<svg width="71" height="50" viewBox="0 0 71 50" fill="none" xmlns="http://www.w3.org/2000/svg">
<path d="M45.2029 48.1646L69.1699 27.2126C70.7969 25.7906 70.7969 23.2616 69.1699 21.8406L45.2029 0.888563C42.8949 -1.12844 39.2859 0.510568 39.2859 3.57457V45.4796C39.2859 48.5426 42.8949 50.1816 45.2029 48.1646Z" fill="white"/>
<path d="M30.405 7.77457C29.013 7.77457 27.884 8.90356 27.884 10.2956C27.884 11.6876 29.013 12.8156 30.405 12.8156C31.798 12.8156 32.926 11.6866 32.926 10.2956C32.926 8.90256 31.798 7.77457 30.405 7.77457Z" fill="white"/>
<path d="M30.405 17.2616C29.013 17.2616 27.884 18.3906 27.884 19.7826C27.884 21.1746 29.013 22.3026 30.405 22.3026C31.798 22.3026 32.926 21.1746 32.926 19.7826C32.926 18.3906 31.798 17.2616 30.405 17.2616Z" fill="white"/>
<path d="M30.405 31.7896C31.7968 31.7896 32.925 30.6613 32.925 29.2696C32.925 27.8778 31.7968 26.7496 30.405 26.7496C29.0132 26.7496 27.885 27.8778 27.885 29.2696C27.885 30.6613 29.0132 31.7896 30.405 31.7896Z" fill="white"/>
<path d="M30.405 36.2366C29.013 36.2366 27.884 37.3646 27.884 38.7566C27.884 40.1486 29.013 41.2776 30.405 41.2776C31.798 41.2776 32.926 40.1496 32.926 38.7566C32.926 37.3646 31.798 36.2366 30.405 36.2366Z" fill="white"/>
<path d="M21.1111 7.77457C19.7181 7.77457 18.5901 8.90356 18.5901 10.2956C18.5901 11.6876 19.7191 12.8156 21.1111 12.8156C22.5031 12.8156 23.6321 11.6866 23.6321 10.2956C23.6321 8.90256 22.5031 7.77457 21.1111 7.77457Z" fill="white"/>
<path d="M21.1111 17.2616C19.7181 17.2616 18.5901 18.3906 18.5901 19.7826C18.5901 21.1746 19.7191 22.3026 21.1111 22.3026C22.5031 22.3026 23.6321 21.1746 23.6321 19.7826C23.6321 18.3906 22.5031 17.2616 21.1111 17.2616Z" fill="white"/>
<path d="M21.1111 26.7486C19.7181 26.7486 18.5901 27.8766 18.5901 29.2686C18.5901 30.6606 19.7191 31.7896 21.1111 31.7896C22.5031 31.7896 23.6321 30.6616 23.6321 29.2686C23.6321 27.8776 22.5031 26.7486 21.1111 26.7486Z" fill="white"/>
<path d="M21.1111 36.2366C19.7181 36.2366 18.5901 37.3646 18.5901 38.7566C18.5901 40.1486 19.7191 41.2776 21.1111 41.2776C22.5031 41.2776 23.6321 40.1496 23.6321 38.7566C23.6321 37.3646 22.5031 36.2366 21.1111 36.2366Z" fill="white"/>
<path d="M11.8159 17.2616C10.4229 17.2616 9.29492 18.3906 9.29492 19.7826C9.29492 21.1746 10.4229 22.3026 11.8159 22.3026C13.2079 22.3026 14.3369 21.1746 14.3369 19.7826C14.3369 18.3906 13.2079 17.2616 11.8159 17.2616Z" fill="white"/>
<path d="M11.8159 26.7486C10.4229 26.7486 9.29492 27.8766 9.29492 29.2686C9.29492 30.6606 10.4229 31.7896 11.8159 31.7896C13.2079 31.7896 14.3369 30.6616 14.3369 29.2686C14.3369 27.8776 13.2079 26.7486 11.8159 26.7486Z" fill="white"/>
<path d="M2.521 17.2616C1.129 17.2616 0 18.3906 0 19.7826C0 21.1746 1.129 22.3026 2.521 22.3026C3.914 22.3026 5.042 21.1746 5.042 19.7826C5.042 18.3906 3.914 17.2616 2.521 17.2616Z" fill="white"/>
<path d="M2.52098 31.7896C3.91273 31.7896 5.04097 30.6613 5.04097 29.2696C5.04097 27.8778 3.91273 26.7496 2.52098 26.7496C1.12922 26.7496 0.000976562 27.8778 0.000976562 29.2696C0.000976562 30.6613 1.12922 31.7896 2.52098 31.7896Z" fill="white"/>
</svg>
