<svg width="44" height="44" viewBox="0 0 44 44" fill="none" xmlns="http://www.w3.org/2000/svg">
<path d="M34.273 22C34.273 15.222 28.778 9.72706 22 9.727C15.2219 9.727 9.727 15.2219 9.727 22C9.72706 28.778 15.222 34.273 22 34.273C28.778 34.2729 34.2729 28.778 34.273 22ZM37 22C36.9999 30.2842 30.2842 36.9999 22 37C13.7157 37 7.00005 30.2842 7 22C7 13.7157 13.7157 7 22 7C30.2842 7.00005 37 13.7157 37 22Z" fill="#3C83F6"/>
<path d="M20.6367 13.8166C20.6367 13.0635 21.2471 12.4531 22.0002 12.4531C22.7533 12.4531 23.3637 13.0635 23.3637 13.8166V21.1556L28.0643 23.5059L28.1862 23.5746C28.77 23.9446 28.9901 24.704 28.6744 25.3355C28.3587 25.967 27.6189 26.2468 26.9726 26.0017L26.8449 25.9456L21.3901 23.2178C20.9283 22.9868 20.6367 22.5148 20.6367 21.9984V13.8166Z" fill="#3C83F6"/>
</svg>
