<svg width="44" height="44" viewBox="0 0 44 44" fill="none" xmlns="http://www.w3.org/2000/svg">
<path d="M13.2831 26.5177C14.3078 26.5494 15.2881 26.9345 16.0584 27.6046L16.2096 27.7429L16.227 27.7595C17.8844 29.3962 17.8631 32.0219 16.4401 33.7091L16.4409 33.7099C15.8231 34.4453 14.9717 34.9856 14.1531 35.3855C13.3184 35.7932 12.4173 36.1026 11.6083 36.334C10.7949 36.5667 10.0446 36.7285 9.49886 36.8321C9.22501 36.8841 8.99973 36.9219 8.84132 36.947C8.76223 36.9595 8.69958 36.9693 8.6554 36.9757C8.63337 36.9789 8.61581 36.9815 8.60325 36.9833C8.59705 36.9841 8.59192 36.985 8.58813 36.9855C8.58623 36.9858 8.58411 36.9853 8.58284 36.9855L8.58133 36.9863H8.58057C8.14979 37.0439 7.7165 36.8974 7.40909 36.5902C7.10165 36.2828 6.95468 35.8489 7.01229 35.418V35.4172L7.01305 35.4157C7.01322 35.4145 7.01279 35.4123 7.01305 35.4104C7.01357 35.4067 7.01446 35.4015 7.01532 35.3953C7.01707 35.3828 7.01968 35.3652 7.02288 35.3432C7.0293 35.299 7.03906 35.2363 7.0516 35.1572C7.07671 34.9988 7.11448 34.7736 7.16648 34.4997C7.27011 33.954 7.4319 33.2036 7.66455 32.3903C7.89594 31.5814 8.20549 30.6808 8.61307 29.8463C9.01296 29.0276 9.5532 28.1755 10.2887 27.5577C11.1246 26.8541 12.1909 26.484 13.2831 26.5177ZM13.197 29.3066C12.7914 29.2941 12.3955 29.4321 12.0852 29.6936L12.0837 29.6951C11.7727 29.9564 11.4404 30.4164 11.1208 31.0707C10.809 31.7089 10.5522 32.4428 10.3476 33.1582C10.282 33.3876 10.2235 33.6124 10.17 33.8278C10.3855 33.7743 10.6107 33.7166 10.8404 33.6509C11.5557 33.4463 12.2896 33.1895 12.9279 32.8778C13.5822 32.5582 14.0422 32.2259 14.3035 31.9149L14.3065 31.9119L14.4032 31.7849C14.8505 31.139 14.7786 30.2616 14.2755 29.7548C13.9828 29.4789 13.5992 29.3191 13.197 29.3066Z" fill="#A856F7"/>
<path d="M35.7561 7.00869C36.4561 7.08396 37.0007 7.67649 37.0009 8.39557C37.0009 12.401 35.8527 19.4451 28.3712 24.6565L28.0099 24.9037C27.9997 24.9106 27.9894 24.9175 27.9789 24.9241C26.1377 26.0884 24.1842 27.0648 22.148 27.8392C21.6664 28.0223 21.1258 27.9252 20.7399 27.592L20.6651 27.5218L16.4795 23.3362C16.0893 22.946 15.9651 22.3621 16.1636 21.8472L16.4644 21.096C17.1874 19.3525 18.0634 17.6755 19.0817 16.085C20.8332 13.2895 23.2698 10.9876 26.1605 9.39776C29.0556 7.80546 32.31 6.97988 35.614 7.00037L35.7561 7.00869ZM34.1523 9.8467C31.8259 10.0356 29.5597 10.7127 27.5051 11.8428C25.182 13.1205 23.2019 14.9358 21.7278 17.1333L21.4398 17.5777C21.4372 17.5819 21.4341 17.5857 21.4315 17.5898C20.5308 18.9966 19.7538 20.4781 19.1059 22.0165L21.9885 24.8984C23.5442 24.2525 25.0429 23.4763 26.4681 22.5766C32.3653 18.6166 33.8669 13.4389 34.1523 9.8467Z" fill="#A856F7"/>
<path d="M20.3808 16.372L20.6794 15.4393C21.4134 15.6739 21.8186 16.4587 21.5841 17.1928C21.3495 17.9268 20.5639 18.332 19.8299 18.0974V18.0967C19.829 18.0964 19.8276 18.0964 19.8261 18.0959C19.8202 18.0941 19.8093 18.0912 19.7951 18.0869C19.7666 18.0782 19.7219 18.0645 19.6628 18.0476C19.5442 18.0135 19.3684 17.9649 19.1489 17.9108C18.7069 17.8018 18.0999 17.6729 17.4355 17.5873C16.7656 17.501 16.074 17.4636 15.4508 17.5215C14.8167 17.5805 14.3533 17.7279 14.0533 17.9274L14.0541 17.9281C13.447 18.3343 12.8727 19.3383 12.4359 20.5424C12.3851 20.6825 12.3376 20.8203 12.2938 20.9544H17.4642L17.6071 20.9612C18.3106 21.0327 18.8594 21.6272 18.8594 22.3496C18.8594 23.0719 18.3106 23.6664 17.6071 23.738L17.4642 23.7448H10.4875C10.0738 23.7448 9.68161 23.5612 9.4165 23.2437C9.15139 22.9261 9.0403 22.5072 9.11418 22.1001L10.4875 22.3496C9.1839 22.1129 9.11821 22.1003 9.11494 22.0994V22.0971C9.11516 22.0959 9.11538 22.0943 9.11569 22.0926C9.11634 22.0891 9.11769 22.0844 9.11872 22.079C9.12079 22.068 9.1234 22.053 9.12703 22.0344C9.1344 21.9967 9.1448 21.9434 9.15877 21.8772C9.18669 21.7448 9.22881 21.558 9.28499 21.3315C9.39682 20.8807 9.56937 20.2613 9.81254 19.5909C10.2653 18.3428 11.0863 16.556 12.5024 15.6086L12.5039 15.6071L12.6611 15.5073C13.4555 15.0257 14.3635 14.8203 15.1931 14.7432C16.0896 14.6599 17.0007 14.7168 17.7922 14.8188C18.5894 14.9215 19.304 15.0747 19.817 15.2012C20.0745 15.2647 20.2842 15.3228 20.4322 15.3652C20.5064 15.3865 20.5659 15.404 20.6076 15.4166C20.6282 15.4229 20.6447 15.428 20.6567 15.4317C20.6628 15.4336 20.668 15.4351 20.6718 15.4363C20.6736 15.4368 20.6751 15.4374 20.6764 15.4378L20.6779 15.4386H20.6786C20.6789 15.4386 20.6789 15.4388 20.3808 16.372ZM20.2546 16.768C20.2342 16.832 20.2142 16.8929 20.1957 16.9509L20.3808 16.372C20.3435 16.4887 20.3018 16.6202 20.2546 16.768Z" fill="#A856F7"/>
<path d="M20.2559 33.5107V26.534C20.256 25.7635 20.8805 25.1388 21.6511 25.1388C22.4216 25.1388 23.0461 25.7635 23.0463 26.534V31.7044C23.1804 31.6606 23.3181 31.6131 23.4582 31.5623C24.5872 31.1528 25.54 30.6225 25.9893 30.0575L26.0725 29.9441C26.2718 29.6441 26.4202 29.1814 26.4791 28.5474C26.537 27.9242 26.4997 27.2326 26.4133 26.5627C26.3277 25.8984 26.1988 25.292 26.0899 24.8501C26.0357 24.6303 25.9871 24.454 25.9531 24.3354C25.9361 24.2762 25.9224 24.2316 25.9138 24.2031C25.9095 24.189 25.9065 24.1788 25.9047 24.1729L25.9032 24.1683L25.8669 24.03C25.7209 23.3381 26.1197 22.634 26.8079 22.4141C27.5418 22.1797 28.3267 22.5849 28.5613 23.3188L27.1994 23.7542C27.2103 23.7507 27.2215 23.7471 27.2326 23.7436C28.5616 23.3189 28.562 23.3193 28.5621 23.3196V23.3203L28.5628 23.3218C28.5632 23.3232 28.5637 23.3252 28.5643 23.3271C28.5655 23.3309 28.567 23.3357 28.5689 23.3415C28.5726 23.3536 28.5776 23.3705 28.584 23.3914C28.5967 23.4331 28.6141 23.4919 28.6354 23.566C28.6779 23.7141 28.7358 23.9243 28.7994 24.1819C28.9259 24.6949 29.0783 25.4089 29.1811 26.206C29.2831 26.9976 29.3407 27.9091 29.2574 28.8059C29.1751 29.6906 28.9469 30.6641 28.3935 31.4943L28.392 31.4958C27.4447 32.9119 25.6578 33.7337 24.4097 34.1864C23.7391 34.4296 23.1192 34.6021 22.6684 34.714C22.4421 34.7701 22.2557 34.8115 22.1234 34.8394C22.0572 34.8534 22.0039 34.8638 21.9662 34.8712C21.9476 34.8748 21.9327 34.8782 21.9216 34.8802L21.9035 34.8833H21.9012V34.884C21.9009 34.8841 21.9003 34.8836 21.6511 33.5107L21.9005 34.884C21.4935 34.9579 21.0745 34.8474 20.757 34.5825C20.4394 34.3173 20.2559 33.9244 20.2559 33.5107Z" fill="#A856F7"/>
</svg>
