<svg width="44" height="44" viewBox="0 0 44 44" fill="none" xmlns="http://www.w3.org/2000/svg">
<path fill-rule="evenodd" clip-rule="evenodd" d="M34.2404 13.1545L21.6345 7.55468L9.02846 13.1545C9.17283 17.615 10.3948 21.9742 12.59 25.8598C14.7852 29.7454 17.8884 33.0418 21.6345 35.4674C25.3805 33.0418 28.4837 29.7454 30.6789 25.8598C32.8741 21.9742 34.0961 17.615 34.2404 13.1545ZM21.7859 39.5799C21.7396 39.6056 21.6874 39.6191 21.6345 39.6191C21.5815 39.6191 21.5293 39.6056 21.483 39.5799C16.6112 36.8734 12.5518 32.9134 9.72538 28.1101C6.89898 23.3069 5.40843 17.8352 5.4082 12.2621V11.0361C5.4082 10.9027 5.48573 10.7837 5.60652 10.7296L20.9025 3.93262C21.1329 3.83024 21.3823 3.77734 21.6345 3.77734C21.8866 3.77734 22.136 3.83024 22.3664 3.93262L37.6624 10.7296C37.7832 10.7837 37.8607 10.9027 37.8607 11.0361V12.2621C37.8605 17.8352 36.3699 23.3069 33.5435 28.1101C30.7171 32.9134 26.6577 36.8734 21.7859 39.5799ZM21.6345 18.0296C22.1126 18.0296 22.5712 18.2196 22.9093 18.5577C23.2474 18.8958 23.4374 19.3544 23.4374 19.8325V25.2413C23.9155 25.2413 24.3741 25.4312 24.7122 25.7694C25.0503 26.1075 25.2403 26.566 25.2403 27.0442C25.2403 27.5224 25.0503 27.981 24.7122 28.3191C24.3741 28.6572 23.9155 28.8471 23.4374 28.8471H21.6345C21.1563 28.8471 20.6977 28.6572 20.3596 28.3191C20.0215 27.981 19.8315 27.5224 19.8315 27.0442V21.6355C19.3534 21.6355 18.8948 21.4455 18.5567 21.1074C18.2186 20.7693 18.0286 20.3107 18.0286 19.8325C18.0286 19.3544 18.2186 18.8958 18.5567 18.5577C18.8948 18.2196 19.3534 18.0296 19.8315 18.0296H21.6345ZM21.6345 16.2267C22.1126 16.2267 22.5712 16.0368 22.9093 15.6986C23.2474 15.3605 23.4374 14.902 23.4374 14.4238C23.4374 13.9456 23.2474 13.4871 22.9093 13.1489C22.5712 12.8108 22.1126 12.6209 21.6345 12.6209C21.1563 12.6209 20.6977 12.8108 20.3596 13.1489C20.0215 13.4871 19.8315 13.9456 19.8315 14.4238C19.8315 14.902 20.0215 15.3605 20.3596 15.6986C20.6977 16.0368 21.1563 16.2267 21.6345 16.2267Z" fill="#3C83F6"/>
</svg>
