<svg width="44" height="44" viewBox="0 0 44 44" fill="none" xmlns="http://www.w3.org/2000/svg">
<path d="M34.273 22C34.273 15.222 28.778 9.72706 22 9.727C15.2219 9.727 9.727 15.2219 9.727 22C9.72706 28.778 15.222 34.273 22 34.273C28.778 34.2729 34.2729 28.778 34.273 22ZM37 22C36.9999 30.2842 30.2842 36.9999 22 37C13.7157 37 7.00005 30.2842 7 22C7 13.7157 13.7157 7 22 7C30.2842 7.00005 37 13.7157 37 22Z" fill="#3C83F6"/>
<path d="M35.6366 20.6367L35.7762 20.6434C36.4637 20.7134 37.0001 21.2943 37.0001 22.0002C37.0001 22.7062 36.4637 23.2871 35.7762 23.3571L35.6366 23.3637H30.1819C29.4287 23.3637 28.8184 22.7533 28.8184 22.0002C28.8184 21.2471 29.4287 20.6367 30.1819 20.6367H35.6366Z" fill="#3C83F6"/>
<path d="M13.8182 20.6367L13.9578 20.6434C14.6453 20.7134 15.1818 21.2943 15.1818 22.0002C15.1818 22.7062 14.6453 23.2871 13.9578 23.3571L13.8182 23.3637H8.3635C7.61038 23.3637 7 22.7533 7 22.0002C7 21.2471 7.61038 20.6367 8.3635 20.6367H13.8182Z" fill="#3C83F6"/>
<path d="M20.6367 13.8182V8.3635C20.6367 7.61038 21.2471 7 22.0002 7C22.7533 7 23.3637 7.61038 23.3637 8.3635V13.8182C23.3636 14.5713 22.7533 15.1818 22.0002 15.1818C21.2472 15.1818 20.6368 14.5713 20.6367 13.8182Z" fill="#3C83F6"/>
<path d="M20.6367 35.6347V30.1799C20.6367 29.4268 21.2471 28.8164 22.0002 28.8164C22.7533 28.8164 23.3637 29.4268 23.3637 30.1799V35.6347C23.3636 36.3877 22.7533 36.9982 22.0002 36.9982C21.2472 36.9982 20.6368 36.3877 20.6367 35.6347Z" fill="#3C83F6"/>
</svg>
