<svg width="44" height="44" viewBox="0 0 44 44" fill="none" xmlns="http://www.w3.org/2000/svg">
<path fill-rule="evenodd" clip-rule="evenodd" d="M36.2217 16.6635H33.3117H31.6718H31.1139C30.8964 16.6635 30.6879 16.7498 30.5341 16.9036C30.3803 17.0574 30.2939 17.2659 30.2939 17.4834C30.2939 22.3231 26.3565 26.2605 21.5167 26.2605C16.6769 26.2605 12.7395 22.3231 12.7395 17.4834C12.7395 17.2659 12.6531 17.0574 12.4994 16.9036C12.3456 16.7498 12.137 16.6635 11.9196 16.6635H11.3616H9.72177H6.81174H5.17199H2.81993C2.60247 16.6635 2.39392 16.7498 2.24015 16.9036C2.08638 17.0574 2 17.2659 2 17.4834V20.0137C2 20.1794 2.0502 20.3412 2.14398 20.4778C2.23777 20.6144 2.37074 20.7193 2.52537 20.7789L5.22641 21.8185C5.60926 23.2608 6.18324 24.6454 6.93309 25.9356L5.75752 28.5821C5.69026 28.7335 5.67045 28.9018 5.70072 29.0647C5.73098 29.2276 5.80988 29.3775 5.92704 29.4947L9.50551 33.0731C9.62271 33.1902 9.77262 33.269 9.93552 33.2993C10.0984 33.3296 10.2667 33.3098 10.4181 33.2426L13.0656 32.0666C14.3554 32.8163 15.7395 33.3901 17.1814 33.773L18.2212 36.4746C18.2808 36.6293 18.3857 36.7622 18.5223 36.856C18.6589 36.9498 18.8207 37 18.9864 37H24.047C24.2127 37 24.3745 36.9498 24.5111 36.856C24.6477 36.7622 24.7527 36.6293 24.8122 36.4746L25.8518 33.7737C27.2941 33.3908 28.6787 32.8169 29.9688 32.067L32.6155 33.2425C32.7669 33.3098 32.9352 33.3296 33.0981 33.2993C33.261 33.269 33.4109 33.1901 33.528 33.0729L37.1063 29.4944C37.2234 29.3772 37.3024 29.2273 37.3326 29.0645C37.3629 28.9016 37.3431 28.7333 37.2758 28.5819L36.0998 25.9344C36.8496 24.6447 37.4234 23.2605 37.8062 21.8186L40.5079 20.7788C40.6625 20.7192 40.7955 20.6143 40.8893 20.4777C40.983 20.3411 41.0332 20.1793 41.0332 20.0136V17.4834C41.0332 17.2659 40.9469 17.0574 40.7931 16.9036C40.6393 16.7498 40.4308 16.6635 40.2133 16.6635H37.8614H36.2217ZM39.3937 19.4506L36.8208 20.4411C36.6965 20.4889 36.5857 20.5663 36.4981 20.6665C36.4104 20.7668 36.3485 20.8869 36.3177 21.0164C35.9451 22.5823 35.3248 24.0785 34.4801 25.4486C34.4102 25.562 34.3691 25.6907 34.3601 25.8236C34.3512 25.9565 34.3748 26.0896 34.4288 26.2113L35.5489 28.733L32.7666 31.5152L30.2459 30.3957C30.1241 30.3416 29.9911 30.318 29.8582 30.3269C29.7252 30.3358 29.5965 30.377 29.4831 30.4469C28.1126 31.2918 26.616 31.9123 25.0497 32.2848C24.9201 32.3156 24.8 32.3775 24.6998 32.4651C24.5995 32.5528 24.5221 32.6635 24.4743 32.7878L23.4842 35.3601H19.5496L18.5591 32.7872C18.5113 32.6629 18.434 32.5522 18.3337 32.4646C18.2335 32.3769 18.1134 32.315 17.9839 32.2842C16.418 31.9115 14.9217 31.2911 13.5515 30.4464C13.4381 30.3766 13.3094 30.3354 13.1766 30.3265C13.0437 30.3176 12.9106 30.3412 12.7889 30.3953L10.2672 31.5153L7.4848 28.7332L8.60441 26.2124C8.65846 26.0907 8.68203 25.9576 8.6731 25.8247C8.66418 25.6918 8.62301 25.5631 8.55317 25.4497C7.70831 24.0791 7.08784 22.5824 6.7152 21.0161C6.68439 20.8866 6.62249 20.7665 6.53484 20.6662C6.4472 20.566 6.33645 20.4886 6.21217 20.4408L3.63985 19.4507V18.3034H11.1317C11.5512 23.6655 16.0488 27.9005 21.5168 27.9005C26.9848 27.9005 31.4824 23.6656 31.9019 18.3034H39.3937V19.4506ZM16.085 16.3665H18.725V19.0064C18.725 19.6367 19.2377 20.1495 19.868 20.1495H23.1656C23.7959 20.1495 24.3087 19.6367 24.3087 19.0064V16.3665H26.9485C27.5788 16.3665 28.0915 15.8538 28.0915 15.2236V11.9259C28.0915 11.2956 27.5788 10.7828 26.9485 10.7828H24.3087V8.14298C24.3087 7.51276 23.7959 7 23.1656 7H19.868C19.2377 7 18.725 7.51276 18.725 8.14298V10.7828H16.085C15.4548 10.7828 14.942 11.2956 14.942 11.9259V15.2236C14.942 15.8538 15.4548 16.3665 16.085 16.3665ZM16.5819 12.4226H19.5449C19.7624 12.4226 19.9709 12.3362 20.1247 12.1824C20.2784 12.0287 20.3648 11.8201 20.3648 11.6027V8.63975H22.6688V11.6027C22.6688 11.8201 22.7552 12.0287 22.909 12.1824C23.0627 12.3362 23.2713 12.4226 23.4887 12.4226H26.4517V14.7266H23.4887C23.2713 14.7266 23.0627 14.813 22.909 14.9667C22.7552 15.1205 22.6688 15.329 22.6688 15.5465V18.5095H20.3648V15.5465C20.3648 15.329 20.2784 15.1205 20.1247 14.9667C19.9709 14.813 19.7624 14.7266 19.5449 14.7266H16.5819V12.4226Z" fill="#A856F7" stroke="#A856F7" stroke-width="0.4"/>
</svg>
