<svg width="45" height="44" viewBox="0 0 45 44" fill="none" xmlns="http://www.w3.org/2000/svg">
<path d="M9 35.4996V24.9999C9 24.1714 9.67142 23.5 10.4999 23.5C11.3283 23.5 11.9997 24.1714 11.9997 24.9999V35.4996C11.9997 36.328 11.3283 36.9995 10.4999 36.9995C9.67142 36.9995 9 36.328 9 35.4996Z" fill="#A856F7"/>
<path d="M9 18.9996V8.49985C9 7.67142 9.67142 7 10.4999 7C11.3283 7 11.9997 7.67142 11.9997 8.49985V18.9996C11.9997 19.828 11.3283 20.4995 10.4999 20.4995C9.67142 20.4995 9 19.828 9 18.9996Z" fill="#A856F7"/>
<path d="M21 35.5001V21.9999C21 21.1714 21.6714 20.5 22.4999 20.5C23.3283 20.5 23.9997 21.1714 23.9997 21.9999V35.5001C23.9996 36.3284 23.3282 37 22.4999 37C21.6715 37 21.0001 36.3284 21 35.5001Z" fill="#A856F7"/>
<path d="M21 15.9999V8.49985C21 7.67142 21.6714 7 22.4999 7C23.3283 7 23.9997 7.67142 23.9997 8.49985V15.9999C23.9997 16.8283 23.3283 17.4998 22.4999 17.4998C21.6714 17.4998 21 16.8283 21 15.9999Z" fill="#A856F7"/>
<path d="M33 35.4999V27.9999C33 27.1714 33.6714 26.5 34.4999 26.5C35.3283 26.5 35.9997 27.1714 35.9997 27.9999V35.4999C35.9997 36.3283 35.3283 36.9998 34.4999 36.9998C33.6714 36.9998 33 36.3283 33 35.4999Z" fill="#A856F7"/>
<path d="M33 22.0001V8.49985C33 7.67142 33.6714 7 34.4999 7C35.3283 7 35.9997 7.67142 35.9997 8.49985V22.0001C35.9996 22.8284 35.3282 23.5 34.4999 23.5C33.6715 23.5 33.0001 22.8284 33 22.0001Z" fill="#A856F7"/>
<path d="M13.5001 23.5L13.6536 23.5073C14.4098 23.5843 14.9999 24.2233 14.9999 24.9999C14.9999 25.7764 14.4098 26.4154 13.6536 26.4924L13.5001 26.4997H7.49985C6.67142 26.4997 6 25.8283 6 24.9999C6 24.1714 6.67142 23.5 7.49985 23.5H13.5001Z" fill="#A856F7"/>
<path d="M25.5001 14.5L25.6536 14.5073C26.4098 14.5843 26.9999 15.2233 26.9999 15.9999C26.9999 16.7764 26.4098 17.4154 25.6536 17.4924L25.5001 17.4997H19.4999C18.6714 17.4997 18 16.8283 18 15.9999C18 15.1714 18.6714 14.5 19.4999 14.5H25.5001Z" fill="#A856F7"/>
<path d="M37.5001 26.5L37.6536 26.5073C38.4098 26.5843 38.9999 27.2233 38.9999 27.9999C38.9999 28.7764 38.4098 29.4154 37.6536 29.4924L37.5001 29.4997H31.4999C30.6714 29.4997 30 28.8283 30 27.9999C30 27.1714 30.6714 26.5 31.4999 26.5H37.5001Z" fill="#A856F7"/>
</svg>
