<svg width="36" height="35" viewBox="0 0 36 35" fill="none" xmlns="http://www.w3.org/2000/svg">
<path d="M32.588 17.5C32.588 9.5923 26.1772 3.18157 18.2695 3.1815C10.3618 3.1815 3.95104 9.59227 3.95104 17.5C3.9511 25.4077 10.3618 31.8185 18.2695 31.8185C26.1772 31.8184 32.588 25.4076 32.588 17.5ZM35.7695 17.5C35.7695 27.1649 27.9345 34.9999 18.2695 35C8.60456 35 0.769593 27.165 0.769531 17.5C0.769531 7.83499 8.60452 0 18.2695 0C27.9345 6.16295e-05 35.7695 7.83503 35.7695 17.5Z" fill="#A856F7"/>
<path d="M16.6797 7.95403C16.6797 7.0754 17.3918 6.36328 18.2704 6.36328C19.1491 6.36328 19.8612 7.0754 19.8612 7.95403V16.5162L25.3452 19.2582L25.4874 19.3383C26.1685 19.77 26.4254 20.6559 26.057 21.3927C25.6886 22.1295 24.8256 22.4559 24.0716 22.17L23.9225 22.1045L17.5587 18.9221C17.0199 18.6526 16.6797 18.1019 16.6797 17.4994V7.95403Z" fill="#A856F7"/>
</svg>
