<svg width="44" height="44" viewBox="0 0 44 44" fill="none" xmlns="http://www.w3.org/2000/svg">
<path d="M36.7228 21.1367C36.7228 13.229 30.312 6.81829 22.4043 6.81822C14.4966 6.81822 8.0858 13.229 8.0858 21.1367C8.08586 29.0444 14.4966 35.4552 22.4043 35.4552C30.3119 35.4552 36.7227 29.0444 36.7228 21.1367ZM39.9043 21.1367C39.9042 30.8016 32.0692 38.6367 22.4043 38.6367C12.7393 38.6367 4.90436 30.8017 4.9043 21.1367C4.9043 11.4717 12.7393 3.63672 22.4043 3.63672C32.0693 3.63678 39.9043 11.4717 39.9043 21.1367Z" fill="#A856F7"/>
<path d="M20.8145 11.5908C20.8145 10.7121 21.5266 10 22.4052 10C23.2838 10 23.996 10.7121 23.996 11.5908V20.1529L29.48 22.8949L29.6222 22.9751C30.3033 23.4067 30.5601 24.2927 30.1918 25.0294C29.8234 25.7662 28.9604 26.0926 28.2064 25.8067L28.0573 25.7412L21.6934 22.5588C21.1547 22.2893 20.8145 21.7386 20.8145 21.1361V11.5908Z" fill="#A856F7"/>
</svg>
