<svg width="44" height="44" viewBox="0 0 44 44" fill="none" xmlns="http://www.w3.org/2000/svg">
<path d="M37.7791 25.1628H34.1163V17.8372H37.7791C38.4465 17.8372 39 17.2837 39 16.6163C39 15.9488 38.4465 15.3953 37.7791 15.3953H34.1163V13.3605C34.1163 10.886 32.114 8.88372 29.6395 8.88372H27.6047V5.22093C27.6047 4.55349 27.0512 4 26.3837 4C25.7163 4 25.1628 4.55349 25.1628 5.22093V8.88372H17.8372V5.22093C17.8372 4.55349 17.2837 4 16.6163 4C15.9488 4 15.3953 4.55349 15.3953 5.22093V8.88372H13.3605C10.886 8.88372 8.88372 10.886 8.88372 13.3605V15.3953H5.22093C4.55349 15.3953 4 15.9488 4 16.6163C4 17.2837 4.55349 17.8372 5.22093 17.8372H8.88372V25.1628H5.22093C4.55349 25.1628 4 25.7163 4 26.3837C4 27.0512 4.55349 27.6047 5.22093 27.6047H8.88372V29.6395C8.88372 32.114 10.886 34.1163 13.3605 34.1163H15.3953V37.7791C15.3953 38.4465 15.9488 39 16.6163 39C17.2837 39 17.8372 38.4465 17.8372 37.7791V34.1163H25.1628V37.7791C25.1628 38.4465 25.7163 39 26.3837 39C27.0512 39 27.6047 38.4465 27.6047 37.7791V34.1163H29.6395C32.114 34.1163 34.1163 32.114 34.1163 29.6395V27.6047H37.7791C38.4465 27.6047 39 27.0512 39 26.3837C39 25.7163 38.4465 25.1628 37.7791 25.1628ZM31.6744 29.6395C31.6744 30.7628 30.7628 31.6744 29.6395 31.6744H13.3605C12.2372 31.6744 11.3256 30.7628 11.3256 29.6395V13.3605C11.3256 12.2372 12.2372 11.3256 13.3605 11.3256H29.6395C30.7628 11.3256 31.6744 12.2372 31.6744 13.3605V29.6395ZM19.6442 18.293L16.4372 21.5L19.6442 24.707C20.1163 25.1791 20.1163 25.9605 19.6442 26.4326C19.4 26.6767 19.0907 26.7907 18.7814 26.7907C18.4721 26.7907 18.1628 26.6767 17.9186 26.4326L13.8488 22.3628C13.6218 22.133 13.4944 21.823 13.4944 21.5C13.4944 21.177 13.6218 20.867 13.8488 20.6372L17.9186 16.5674C18.3907 16.0953 19.1721 16.0953 19.6442 16.5674C20.1163 17.0395 20.1163 17.8209 19.6442 18.293ZM29.1349 20.6372C29.607 21.1093 29.607 21.8907 29.1349 22.3628L25.0651 26.4326C24.8209 26.6767 24.5116 26.7907 24.2023 26.7907C23.893 26.7907 23.5837 26.6767 23.3395 26.4326C23.1125 26.2028 22.9851 25.8928 22.9851 25.5698C22.9851 25.2467 23.1125 24.9367 23.3395 24.707L26.5465 21.5L23.3395 18.293C22.8674 17.8209 22.8674 17.0395 23.3395 16.5674C23.8116 16.0953 24.593 16.0953 25.0651 16.5674L29.1349 20.6372Z" fill="#A856F7"/>
</svg>
