<svg width="44" height="44" viewBox="0 0 44 44" fill="none" xmlns="http://www.w3.org/2000/svg">
<path d="M17.7935 7.00118C18.5204 6.98604 19.243 7.11699 19.9188 7.38518C20.5945 7.65338 21.21 8.05357 21.7287 8.56303C22.2473 9.0725 22.6587 9.68073 22.939 10.3516C23.2187 11.0213 23.3622 11.7401 23.3606 12.4658V30.1904C23.3596 31.122 23.1675 32.0438 22.7965 32.8983C22.4253 33.753 21.8823 34.5227 21.2022 35.1595C20.522 35.7962 19.7185 36.2869 18.8414 36.601C17.9643 36.915 17.0322 37.046 16.1025 36.9857C15.1728 36.9254 14.2652 36.675 13.436 36.2502C12.6068 35.8254 11.8734 35.2349 11.2813 34.5155C10.6891 33.7962 10.2503 32.963 9.9927 32.0675C9.81678 31.4559 9.73047 30.824 9.72981 30.1904C9.08028 29.7038 8.52031 29.1043 8.07941 28.4173C7.47958 27.4826 7.11758 26.4151 7.02418 25.3084C6.9308 24.2018 7.1087 23.0892 7.5433 22.0673C7.83901 21.3721 8.24702 20.7325 8.74917 20.1746C8.52596 19.5386 8.39565 18.8715 8.36814 18.1941C8.32621 17.1607 8.52052 16.1315 8.93526 15.1841C9.34999 14.2367 9.9745 13.3959 10.7621 12.7257C11.2893 12.2773 11.8811 11.9145 12.5145 11.6454C12.5697 11.277 12.6623 10.9139 12.7921 10.5628C13.0442 9.88093 13.4302 9.25607 13.9271 8.72549C14.424 8.19493 15.0221 7.76914 15.686 7.47306C16.35 7.17693 17.0667 7.01633 17.7935 7.00118ZM17.8504 9.72758C17.487 9.73516 17.1286 9.81512 16.7967 9.96315C16.4647 10.1112 16.1657 10.3248 15.9172 10.5901C15.6687 10.8554 15.4753 11.1678 15.3493 11.5088C15.2234 11.8496 15.167 12.2121 15.1832 12.5751C15.2119 13.2193 14.7856 13.7961 14.1612 13.9568C13.5602 14.1113 13.0019 14.4002 12.5292 14.8023C12.0566 15.2044 11.6815 15.7093 11.4326 16.2777C11.1839 16.8462 11.0678 17.4641 11.093 18.084C11.1182 18.704 11.284 19.31 11.5781 19.8563C11.8883 20.4326 11.7449 21.148 11.237 21.5607C10.7199 21.9809 10.3133 22.5212 10.0525 23.1344C9.79171 23.7475 9.68485 24.4155 9.74089 25.0795C9.79697 25.7434 10.0146 26.3834 10.3745 26.9441C10.7343 27.5048 11.2254 27.9694 11.8056 28.297C12.2888 28.5697 12.5589 29.1083 12.4879 29.6587C12.4162 30.2131 12.4589 30.777 12.6134 31.3143C12.768 31.8514 13.0313 32.3509 13.3866 32.7824C13.7418 33.214 14.1813 33.5687 14.6788 33.8236C15.1764 34.0785 15.7212 34.2283 16.279 34.2645C16.8369 34.3007 17.3965 34.2225 17.9228 34.0341C18.449 33.8456 18.9311 33.5513 19.3391 33.1693C19.7471 32.7873 20.0727 32.3255 20.2954 31.8128C20.5179 31.3004 20.6328 30.7475 20.6336 30.1889V12.4614L20.6306 12.3255C20.6157 12.0085 20.5457 11.6959 20.4231 11.4024C20.283 11.067 20.0769 10.7628 19.8176 10.5081C19.5584 10.2536 19.2507 10.0536 18.913 9.91958C18.5752 9.78549 18.2138 9.72002 17.8504 9.72758Z" fill="#3C83F6"/>
<path d="M26.2011 7.00117C26.9279 7.01632 27.6447 7.17698 28.3086 7.47305C28.9725 7.76911 29.5706 8.19499 30.0676 8.72548C30.5645 9.25604 30.9505 9.88096 31.2025 10.5628C31.3324 10.9141 31.4243 11.2775 31.4795 11.6461C32.1131 11.9152 32.7052 12.2771 33.2325 12.7257C34.0202 13.3959 34.6454 14.2366 35.0601 15.1841C35.4748 16.1314 35.6684 17.1608 35.6265 18.194C35.599 18.8716 35.468 19.5385 35.2447 20.1746C35.7471 20.7327 36.1556 21.3719 36.4514 22.0673C36.886 23.0892 37.0646 24.2018 36.9712 25.3084C36.8778 26.4151 36.5151 27.4826 35.9152 28.4173C35.4745 29.104 34.9148 29.7032 34.2656 30.1896C34.265 30.8235 34.178 31.4556 34.002 32.0675C33.7444 32.9629 33.3062 33.7962 32.7141 34.5155C32.122 35.2348 31.3885 35.8254 30.5594 36.2502C29.7302 36.675 28.8225 36.9253 27.8929 36.9857C26.9631 37.046 26.0305 36.915 25.1533 36.601C24.2761 36.2869 23.4726 35.7963 22.7925 35.1595C22.1123 34.5227 21.5701 33.7529 21.1989 32.8983C20.8743 32.1506 20.6862 31.3518 20.6436 30.5397L20.6348 30.1904V12.4658C20.6332 11.7401 20.776 11.0212 21.0557 10.3516C21.3359 9.6807 21.7481 9.07251 22.2667 8.56302C22.7853 8.05373 23.4004 7.65334 24.0759 7.38517C24.7516 7.11702 25.4744 6.98607 26.2011 7.00117ZM26.145 9.72758C25.7816 9.72 25.4202 9.78553 25.0824 9.91958C24.7445 10.0537 24.4364 10.2534 24.1771 10.5081C23.9178 10.7628 23.7124 11.0671 23.5723 11.4024C23.4322 11.7377 23.3601 12.0979 23.3611 12.4614V30.1874L23.367 30.3971C23.3925 30.8844 23.5052 31.3641 23.7 31.8128C23.9227 32.3254 24.2476 32.7873 24.6556 33.1693C25.0637 33.5514 25.5463 33.8456 26.0726 34.0341C26.5988 34.2224 27.158 34.3006 27.7156 34.2645C28.2735 34.2283 28.8183 34.0785 29.3158 33.8236C29.8134 33.5687 30.2535 33.214 30.6088 32.7824C30.9639 32.3509 31.2267 31.8513 31.3812 31.3143C31.5358 30.777 31.5792 30.2131 31.5075 29.6587C31.4365 29.1083 31.7058 28.5698 32.1891 28.2969C32.7694 27.9694 33.261 27.5049 33.6209 26.9441C33.9807 26.3834 34.1984 25.7433 34.2545 25.0795C34.3105 24.4155 34.203 23.7476 33.9421 23.1344C33.6813 22.5212 33.2749 21.9809 32.7577 21.5607C32.2498 21.148 32.1064 20.4326 32.4165 19.8563C32.7106 19.31 32.8772 18.704 32.9024 18.084C32.9276 17.464 32.8108 16.8462 32.562 16.2777C32.3131 15.7093 31.9381 15.2044 31.4654 14.8023C30.9929 14.4003 30.4351 14.1113 29.8342 13.9567C29.2096 13.7961 28.7827 13.2194 28.8115 12.5751C28.8277 12.2121 28.7713 11.8496 28.6453 11.5087C28.5194 11.1679 28.3265 10.8554 28.0782 10.5901C27.8297 10.3248 27.53 10.1112 27.198 9.96314C26.8662 9.81523 26.5082 9.73519 26.145 9.72758Z" fill="#3C83F6"/>
<path d="M21.999 16.5547C22.7228 16.5549 23.3203 17.1205 23.3599 17.8433C23.4113 18.7856 23.7411 19.6921 24.3073 20.4471C24.8382 21.1549 25.5546 21.7003 26.3757 22.0237L26.5411 22.085L26.6703 22.1382C27.2954 22.4322 27.6088 23.1577 27.3748 23.8234C27.1406 24.4892 26.4418 24.8591 25.7702 24.697L25.6358 24.6571L25.3758 24.5604C24.0857 24.0521 22.9601 23.195 22.126 22.0828C22.0822 22.0245 22.0402 21.965 21.9982 21.9056C21.9564 21.9649 21.9149 22.0246 21.8712 22.0828C20.9815 23.2691 19.7602 24.1649 18.3614 24.6571L18.227 24.697C17.5555 24.8591 16.8566 24.4892 16.6224 23.8234C16.3728 23.1132 16.7461 22.3349 17.4561 22.085L17.6222 22.0237C18.4431 21.7003 19.1591 21.1547 19.6899 20.4471C20.2561 19.6921 20.5859 18.7856 20.6373 17.8433L20.6513 17.7104C20.752 17.0523 21.32 16.5547 21.999 16.5547Z" fill="#3C83F6"/>
<path d="M30.2314 11.2746C30.9837 11.3058 31.5682 11.9416 31.537 12.694L31.5133 13.0226C31.4352 13.7862 31.1967 14.5259 30.8118 15.1929L30.7358 15.3103C30.3317 15.8707 29.5608 16.0456 28.9495 15.6928C28.2974 15.3165 28.0741 14.4826 28.4503 13.8304L28.5286 13.685C28.6999 13.3416 28.7969 12.9649 28.8129 12.5802L28.8254 12.4414C28.9237 11.7575 29.5263 11.2454 30.2314 11.2746Z" fill="#3C83F6"/>
<path d="M13.766 11.2746C14.4711 11.2459 15.0726 11.7583 15.1705 12.4421L15.1838 12.5817L15.1949 12.7456C15.2281 13.0728 15.3207 13.3913 15.4674 13.6857L15.5456 13.8311L15.6084 13.9552C15.8913 14.5858 15.656 15.3404 15.0443 15.6928C14.4327 16.045 13.6624 15.8702 13.2587 15.3095L13.1827 15.1921L13.0268 14.9019C12.7334 14.313 12.5491 13.6757 12.4826 13.021L12.459 12.6924L12.4605 12.5529C12.5023 11.8632 13.0608 11.3034 13.766 11.2746Z" fill="#3C83F6"/>
<path d="M10.5146 18.7731C11.1729 18.4078 12.0026 18.6451 12.3681 19.3033C12.7334 19.9616 12.4961 20.7915 11.8379 21.1569C11.6269 21.2739 11.4268 21.4099 11.2397 21.5623C10.656 22.0376 9.79748 21.9495 9.322 21.3659C8.84658 20.7821 8.93407 19.9236 9.51769 19.4481C9.82939 19.1942 10.1631 18.9682 10.5146 18.7731Z" fill="#3C83F6"/>
<path d="M31.6285 19.3037C31.9711 18.6867 32.7216 18.4391 33.3565 18.7114L33.482 18.7735L33.742 18.9256C33.9987 19.0833 34.2451 19.258 34.4789 19.4484C35.0625 19.9239 35.1506 20.7825 34.6753 21.3662C34.1999 21.95 33.3407 22.038 32.7569 21.5626C32.6167 21.4484 32.4692 21.3434 32.3153 21.2488L32.1587 21.1572L32.0406 21.0834C31.4734 20.6887 31.286 19.9209 31.6285 19.3037Z" fill="#3C83F6"/>
<path d="M9.94761 28.8186C10.2944 28.2037 11.0469 27.9618 11.68 28.2389L11.8048 28.3009L12.0389 28.4228C12.5922 28.6894 13.1998 28.8285 13.8163 28.8282C14.5691 28.828 15.1798 29.4385 15.1802 30.1914C15.1804 30.9443 14.5699 31.555 13.817 31.5553C12.7161 31.5558 11.6327 31.2893 10.6587 30.7807L10.4653 30.6758L10.3471 30.6012C9.78274 30.2026 9.60086 29.4334 9.94761 28.8186Z" fill="#3C83F6"/>
<path d="M32.1891 28.2972C32.8449 27.9273 33.6763 28.1591 34.0463 28.8148C34.4162 29.4707 34.1844 30.3022 33.5286 30.6721C32.5058 31.249 31.3512 31.5521 30.1769 31.5516C29.424 31.5512 28.8142 30.9405 28.8145 30.1876C28.8148 29.4347 29.4254 28.8241 30.1783 28.8244C30.8829 28.8247 31.5754 28.6433 32.1891 28.2972Z" fill="#3C83F6"/>
</svg>
