<svg width="44" height="44" viewBox="0 0 44 44" fill="none" xmlns="http://www.w3.org/2000/svg">
<path d="M30.9962 14.7687H34.602C35.5583 14.7687 36.4755 15.1486 37.1517 15.8248C37.8279 16.501 38.2078 17.4181 38.2078 18.3744V29.1917C38.2078 30.1481 37.8279 31.0652 37.1517 31.7414C36.4755 32.4176 35.5583 32.7975 34.602 32.7975H30.9962V40.0091L23.7847 32.7975H16.5732C16.0996 32.798 15.6306 32.7049 15.1931 32.5236C14.7556 32.3423 14.3583 32.0764 14.0239 31.741M14.0239 31.741L20.1789 25.586H27.3905C28.3468 25.586 29.2639 25.2061 29.9401 24.5299C30.6164 23.8537 30.9962 22.9365 30.9962 21.9802V11.1629C30.9962 10.2066 30.6164 9.28945 29.9401 8.61323C29.2639 7.93702 28.3468 7.55713 27.3905 7.55713H9.36163C8.40532 7.55713 7.48818 7.93702 6.81196 8.61323C6.13575 9.28945 5.75586 10.2066 5.75586 11.1629V21.9802C5.75586 22.9365 6.13575 23.8537 6.81196 24.5299C7.48818 25.2061 8.40532 25.586 9.36163 25.586H12.9674V32.7975L14.0239 31.741Z" stroke="#A856F7" stroke-width="3" stroke-linecap="round" stroke-linejoin="round"/>
</svg>
