<svg width="44" height="44" viewBox="0 0 44 44" fill="none" xmlns="http://www.w3.org/2000/svg">
<path d="M20.6348 35.6373V32.9103C20.6348 32.1572 21.2451 31.5469 21.9982 31.5469C22.7513 31.5469 23.3617 32.1572 23.3617 32.9103V35.6373C23.3617 36.3904 22.7513 37.0015 21.9982 37.0015C21.2451 37.0015 20.6348 36.3904 20.6348 35.6373Z" fill="#3C83F6"/>
<path d="M20.6348 11.0904V8.36347C20.6348 7.61037 21.2451 7 21.9982 7C22.7513 7 23.3617 7.61037 23.3617 8.36347V11.0904C23.3617 11.8435 22.7513 12.4546 21.9982 12.4546C21.2451 12.4546 20.6348 11.8435 20.6348 11.0904Z" fill="#3C83F6"/>
<path d="M27.4531 35.6373V32.9103C27.4531 32.1572 28.0635 31.5469 28.8166 31.5469C29.5697 31.5469 30.1801 32.1572 30.1801 32.9103V35.6373C30.1801 36.3904 29.5697 37.0015 28.8166 37.0015C28.0635 37.0015 27.4531 36.3904 27.4531 35.6373Z" fill="#3C83F6"/>
<path d="M27.4531 11.0904V8.36347C27.4531 7.61037 28.0635 7 28.8166 7C29.5697 7 30.1801 7.61037 30.1801 8.36347V11.0904C30.1801 11.8435 29.5697 12.4546 28.8166 12.4546C28.0635 12.4546 27.4531 11.8435 27.4531 11.0904Z" fill="#3C83F6"/>
<path d="M11.0904 20.6367L11.23 20.6434C11.9177 20.7131 12.4546 21.2941 12.4546 22.0002C12.4546 22.7063 11.9177 23.2872 11.23 23.357L11.0904 23.3637H8.36347C7.61037 23.3637 7 22.7533 7 22.0002C7 21.2471 7.61037 20.6367 8.36347 20.6367H11.0904Z" fill="#3C83F6"/>
<path d="M11.0904 27.4531L11.23 27.4598C11.9177 27.5295 12.4546 28.1105 12.4546 28.8166C12.4546 29.5227 11.9177 30.1036 11.23 30.1734L11.0904 30.1801H8.36347C7.61037 30.1801 7 29.5697 7 28.8166C7 28.0635 7.61037 27.4531 8.36347 27.4531H11.0904Z" fill="#3C83F6"/>
<path d="M11.0904 13.8164L11.23 13.8231C11.9177 13.8928 12.4546 14.4738 12.4546 15.1799C12.4546 15.8859 11.9177 16.4669 11.23 16.5367L11.0904 16.5433H8.36347C7.61037 16.5433 7 15.933 7 15.1799C7 14.4268 7.61037 13.8164 8.36347 13.8164H11.0904Z" fill="#3C83F6"/>
<path d="M35.6353 20.6367L35.7749 20.6434C36.4626 20.7131 36.9995 21.2941 36.9995 22.0002C36.9995 22.7063 36.4626 23.2872 35.7749 23.357L35.6353 23.3637H32.9084C32.1553 23.3637 31.5449 22.7533 31.5449 22.0002C31.5449 21.2471 32.1553 20.6367 32.9084 20.6367H35.6353Z" fill="#3C83F6"/>
<path d="M35.6353 27.4531L35.7749 27.4598C36.4626 27.5295 36.9995 28.1105 36.9995 28.8166C36.9995 29.5227 36.4626 30.1036 35.7749 30.1734L35.6353 30.1801H32.9084C32.1553 30.1801 31.5449 29.5697 31.5449 28.8166C31.5449 28.0635 32.1553 27.4531 32.9084 27.4531H35.6353Z" fill="#3C83F6"/>
<path d="M35.6353 13.8164L35.7749 13.8231C36.4626 13.8928 36.9995 14.4738 36.9995 15.1799C36.9995 15.8859 36.4626 16.4669 35.7749 16.5367L35.6353 16.5433H32.9084C32.1553 16.5433 31.5449 15.933 31.5449 15.1799C31.5449 14.4268 32.1553 13.8164 32.9084 13.8164H35.6353Z" fill="#3C83F6"/>
<path d="M13.8184 35.6373V32.9103C13.8184 32.1572 14.4287 31.5469 15.1818 31.5469C15.9349 31.5469 16.5453 32.1572 16.5453 32.9103V35.6373C16.5453 36.3904 15.9349 37.0015 15.1818 37.0015C14.4287 37.0015 13.8184 36.3904 13.8184 35.6373Z" fill="#3C83F6"/>
<path d="M13.8184 11.0904V8.36347C13.8184 7.61037 14.4287 7 15.1818 7C15.9349 7 16.5453 7.61037 16.5453 8.36347V11.0904C16.5453 11.8435 15.9349 12.4546 15.1818 12.4546C14.4287 12.4546 13.8184 11.8435 13.8184 11.0904Z" fill="#3C83F6"/>
<path d="M31.5443 13.8209C31.5441 13.068 30.9337 12.4576 30.1808 12.4574H13.817C13.0641 12.4576 12.4536 13.068 12.4535 13.8209V30.1847C12.4537 30.9376 13.0641 31.548 13.817 31.5482H30.1808C30.9337 31.548 31.5441 30.9376 31.5443 30.1847V13.8209ZM34.2712 30.1847C34.2711 32.4438 32.4399 34.275 30.1808 34.2751H13.817C11.5579 34.275 9.72672 32.4438 9.72656 30.1847V13.8209C9.72671 11.5618 11.5579 9.73062 13.817 9.73047H30.1808C32.4399 9.73062 34.2711 11.5618 34.2712 13.8209V30.1847Z" fill="#3C83F6"/>
<path d="M17.9086 17.9105V26.0921H26.0901V17.9105H17.9086ZM28.8178 26.0921C28.8178 27.5983 27.5963 28.8198 26.0901 28.8198H17.9086C16.4024 28.8197 15.1816 27.5982 15.1816 26.0921V17.9105C15.1817 16.4044 16.4025 15.1837 17.9086 15.1836H26.0901C27.5963 15.1836 28.8177 16.4044 28.8178 17.9105V26.0921Z" fill="#3C83F6"/>
</svg>
