<svg width="44" height="44" viewBox="0 0 44 44" fill="none" xmlns="http://www.w3.org/2000/svg">
<path d="M31.9728 18.8653C31.9728 13.2831 27.4475 8.75782 21.8653 8.75782C16.2831 8.75782 11.7578 13.2831 11.7578 18.8653C11.7578 24.4475 16.2831 28.9728 21.8653 28.9728C27.4475 28.9728 31.9728 24.4475 31.9728 18.8653ZM33.7306 18.8653C33.7306 25.4184 28.4184 30.7306 21.8653 30.7306C15.3123 30.7306 10 25.4184 10 18.8653C10 12.3123 15.3123 7 21.8653 7C28.4184 7 33.7306 12.3123 33.7306 18.8653Z" fill="#3C83F6"/>
<path d="M14.834 26.4893V31.654C15.4656 31.5484 16.0583 31.3308 16.5918 31.0223V28.9371H18.3496V35.1697C19.4728 34.9818 20.4742 34.4397 21.2376 33.661L21.8653 33.0206L22.493 33.661C23.2563 34.4397 24.2578 34.9818 25.3809 35.1697V28.9367H27.1388V31.0223C27.6723 31.3308 28.265 31.5484 28.8966 31.654V26.4893H30.6544V33.4846H29.7755C28.8436 33.4846 27.9533 33.3031 27.1388 32.9737V37.0002H26.2599C24.5967 37.0002 23.0684 36.423 21.8653 35.4592C20.6622 36.423 19.1339 37.0002 17.4707 37.0002H16.5918V32.9737C15.7773 33.3031 14.887 33.4846 13.9551 33.4846H13.0762V26.4893H14.834ZM24.4706 15.2793L29.8063 16.2851L26.0808 20.235L26.7731 25.6204L21.8653 23.2979L16.9575 25.6204L17.6497 20.235L13.9243 16.2851L19.2599 15.2793L21.8653 10.5156L24.4706 15.2793ZM20.403 16.8527L17.4083 17.4171L19.4993 19.6341L19.1107 22.6566L21.8653 21.3531L24.6199 22.6566L24.2313 19.6341L26.3222 17.4171L23.3276 16.8527L21.8653 14.179L20.403 16.8527Z" fill="#3C83F6"/>
</svg>
