<svg width="44" height="44" viewBox="0 0 44 44" fill="none" xmlns="http://www.w3.org/2000/svg">
<path d="M40.7737 36.3048C40.706 36.1399 40.6063 35.9901 40.4803 35.864L37.7773 33.1609C37.6526 33.0318 37.5034 32.9288 37.3384 32.8579C37.1734 32.787 36.996 32.7497 36.8164 32.7482C36.6369 32.7466 36.4588 32.7808 36.2927 32.8488C36.1265 32.9168 35.9755 33.0172 35.8485 33.1442C35.7216 33.2711 35.6212 33.4221 35.5532 33.5883C35.4852 33.7545 35.451 33.9325 35.4526 34.1121C35.4541 34.2916 35.4914 34.469 35.5623 34.634C35.6331 34.799 35.7362 34.9482 35.8653 35.0729L36.2615 35.4691H30.8974C33.0546 34.0397 34.8383 32.1147 36.0995 29.855C37.3606 27.5953 38.0625 25.0665 38.1464 22.48L38.5697 22.9032C38.695 23.0292 38.8439 23.1292 39.008 23.1975C39.1721 23.2657 39.348 23.3008 39.5257 23.3008C39.7034 23.3008 39.8793 23.2657 40.0434 23.1975C40.2074 23.1292 40.3564 23.0292 40.4817 22.9032C40.7352 22.6497 40.8776 22.3058 40.8776 21.9472C40.8776 21.5887 40.7352 21.2448 40.4817 20.9912L37.7773 18.2869C37.7638 18.2733 37.7476 18.2706 37.734 18.2585C36.0979 11.2541 29.9184 5.99143 22.4814 5.74803L22.9032 5.3248C23.0324 5.20007 23.1354 5.05086 23.2063 4.88589C23.2771 4.72091 23.3144 4.54348 23.316 4.36394C23.3176 4.18439 23.2833 4.00634 23.2154 3.84016C23.1474 3.67398 23.047 3.52301 22.92 3.39605C22.793 3.26909 22.6421 3.16868 22.4759 3.10069C22.3097 3.0327 22.1317 2.99849 21.9521 3.00005C21.7726 3.00161 21.5951 3.03891 21.4302 3.10978C21.2652 3.18065 21.116 3.28366 20.9912 3.41281L18.2869 6.11718C18.2733 6.1307 18.2706 6.14693 18.2585 6.16045C11.2541 7.7966 5.99143 13.9761 5.74803 21.4131L5.3248 20.9912C5.20007 20.8621 5.05086 20.7591 4.88589 20.6882C4.72091 20.6173 4.54348 20.58 4.36394 20.5785C4.18439 20.5769 4.00634 20.6111 3.84016 20.6791C3.67398 20.7471 3.52301 20.8475 3.39605 20.9745C3.26909 21.1014 3.16868 21.2524 3.10069 21.4186C3.0327 21.5848 2.99849 21.7628 3.00005 21.9424C3.00161 22.1219 3.03891 22.2994 3.10978 22.4643C3.18065 22.6293 3.28366 22.7785 3.41281 22.9032L6.11718 25.6076C6.1307 25.6211 6.14693 25.6238 6.16045 25.636C7.10508 29.6639 9.54943 33.1803 12.9958 35.4691H4.3688C4.01018 35.4691 3.66625 35.6116 3.41266 35.8652C3.15908 36.1187 3.01662 36.4627 3.01662 36.8213C3.01662 37.1799 3.15908 37.5239 3.41266 37.7774C3.66625 38.031 4.01018 38.1735 4.3688 38.1735H36.2615L35.8653 38.5697C35.7362 38.6944 35.6331 38.8436 35.5623 39.0086C35.4914 39.1736 35.4541 39.351 35.4526 39.5305C35.451 39.7101 35.4852 39.8881 35.5532 40.0543C35.6212 40.2205 35.7216 40.3715 35.8485 40.4984C35.9755 40.6254 36.1265 40.7258 36.2927 40.7938C36.4588 40.8618 36.6369 40.896 36.8164 40.8944C36.996 40.8929 37.1734 40.8556 37.3384 40.7847C37.5034 40.7138 37.6526 40.6108 37.7773 40.4817L40.4817 37.7773C40.6705 37.5883 40.7991 37.3475 40.8511 37.0853C40.9031 36.8232 40.8762 36.5516 40.7737 36.3048ZM8.7553 24.8815L10.7335 22.9032C10.8627 22.7785 10.9657 22.6293 11.0366 22.4643C11.1074 22.2994 11.1447 22.1219 11.1463 21.9424C11.1479 21.7628 11.1137 21.5848 11.0457 21.4186C10.9777 21.2524 10.8773 21.1014 10.7503 20.9745C10.6233 20.8475 10.4724 20.7471 10.3062 20.6791C10.14 20.6111 9.96196 20.5769 9.78242 20.5785C9.60288 20.58 9.42544 20.6173 9.26047 20.6882C9.0955 20.7591 8.94629 20.8621 8.82156 20.9912L8.45647 21.3563C8.7242 15.1741 13.1513 10.0588 19.013 8.7553L20.9912 10.7335C21.1165 10.8596 21.2655 10.9595 21.4296 11.0278C21.5936 11.096 21.7696 11.1311 21.9472 11.1311C22.1249 11.1311 22.3009 11.096 22.4649 11.0278C22.629 10.9595 22.778 10.8596 22.9032 10.7335C23.1567 10.48 23.2991 10.1361 23.2991 9.77755C23.2991 9.419 23.1567 9.07513 22.9032 8.82156L22.5381 8.45647C28.7203 8.7242 33.8357 13.1513 35.1392 19.013L33.1609 20.9912C33.0318 21.116 32.9288 21.2652 32.8579 21.4302C32.787 21.5951 32.7497 21.7726 32.7482 21.9521C32.7466 22.1317 32.7808 22.3097 32.8488 22.4759C32.9168 22.6421 33.0172 22.793 33.1442 22.92C33.2711 23.047 33.4221 23.1474 33.5883 23.2154C33.7545 23.2833 33.9325 23.3176 34.1121 23.316C34.2916 23.3144 34.469 23.2771 34.634 23.2063C34.799 23.1354 34.9482 23.0324 35.0729 22.9032L35.438 22.5381C35.1284 29.7169 29.2058 35.4691 21.9472 35.4691C15.5 35.4691 10.1007 30.9298 8.7553 24.8815Z" fill="#3C83F6"/>
<path d="M21.2521 14.0338L13.834 17.8916L21.9471 21.9481L30.0602 17.8916L22.6421 14.0338C22.4334 13.9045 22.1927 13.8359 21.9471 13.8359C21.7015 13.8359 21.4608 13.9045 21.2521 14.0338ZM13.834 26.7484C13.834 26.971 13.8889 27.1901 13.9938 27.3863C14.0988 27.5826 14.2506 27.7499 14.4357 27.8734L21.271 31.4134V23.0299L13.834 19.3587V26.7484ZM22.6232 31.4134L29.4585 27.8734C29.6436 27.7499 29.7954 27.5826 29.9004 27.3863C30.0054 27.1901 30.0603 26.971 30.0602 26.7484V19.3587L22.6232 23.0299V31.4134Z" fill="#3C83F6"/>
</svg>
