<svg width="36" height="32" viewBox="0 0 36 32" fill="none" xmlns="http://www.w3.org/2000/svg">
<path fill-rule="evenodd" clip-rule="evenodd" d="M1.55634 13.2599C0.613008 12.7382 0.0830078 11.8249 0.0830078 10.8699C0.0830078 9.91322 0.613008 8.99989 1.55634 8.47989L15.413 0.821554C16.2082 0.394125 17.0969 0.17041 17.9997 0.17041C18.9025 0.17041 19.7912 0.394125 20.5863 0.821554L34.443 8.47989C35.3863 8.99989 35.9163 9.91322 35.9163 10.8699C35.9163 11.8249 35.3863 12.7382 34.443 13.2599L20.5863 20.9166C19.7914 21.3448 18.9026 21.5691 17.9997 21.5691C17.0967 21.5691 16.2079 21.3448 15.413 20.9166L1.55634 13.2599ZM2.76467 11.0716L16.6213 18.7282C17.0449 18.9564 17.5185 19.0758 17.9997 19.0758C18.4808 19.0758 18.9544 18.9564 19.378 18.7282L33.2347 11.0716C33.3263 11.0216 33.4163 10.9616 33.4163 10.8699C33.4163 10.7766 33.3263 10.7182 33.2347 10.6666L19.378 3.00989C18.9544 2.78174 18.4808 2.6623 17.9997 2.6623C17.5185 2.6623 17.0449 2.78174 16.6213 3.00989L2.76467 10.6666C2.67301 10.7182 2.58301 10.7766 2.58301 10.8699C2.58301 10.9616 2.67301 11.0216 2.76467 11.0716Z" fill="#3C83F6"/>
<path fill-rule="evenodd" clip-rule="evenodd" d="M28.4163 14.75C28.4163 14.4185 28.548 14.1005 28.7825 13.8661C29.0169 13.6317 29.3348 13.5 29.6663 13.5C29.9979 13.5 30.3158 13.6317 30.5502 13.8661C30.7846 14.1005 30.9163 14.4185 30.9163 14.75V22.25C30.9163 23.9076 30.2579 25.4973 29.0858 26.6694C27.9137 27.8415 26.3239 28.5 24.6663 28.5H11.333C9.67541 28.5 8.08569 27.8415 6.91359 26.6694C5.74149 25.4973 5.08301 23.9076 5.08301 22.25V14.75C5.08301 14.4185 5.2147 14.1005 5.44912 13.8661C5.68354 13.6317 6.00149 13.5 6.33301 13.5C6.66453 13.5 6.98247 13.6317 7.21689 13.8661C7.45131 14.1005 7.58301 14.4185 7.58301 14.75V22.25C7.58301 23.2446 7.9781 24.1984 8.68136 24.9016C9.38462 25.6049 10.3384 26 11.333 26H24.6663C25.6609 26 26.6147 25.6049 27.318 24.9016C28.0213 24.1984 28.4163 23.2446 28.4163 22.25V14.75Z" fill="#3C83F6"/>
<path fill-rule="evenodd" clip-rule="evenodd" d="M17.1159 12.2998C16.9999 12.1838 16.9079 12.0461 16.8451 11.8945C16.7823 11.743 16.75 11.5805 16.75 11.4165C16.75 11.2524 16.7823 11.09 16.8451 10.9384C16.9079 10.7868 16.9999 10.6491 17.1159 10.5331C17.3502 10.2989 17.6679 10.1672 17.9992 10.1672C18.1633 10.1672 18.3257 10.1995 18.4773 10.2623C18.6288 10.3251 18.7666 10.4171 18.8826 10.5331L24.7159 16.3665C24.9509 16.5998 25.0826 16.9181 25.0826 17.2498V30.5831C25.0826 30.9146 24.9509 31.2326 24.7164 31.467C24.482 31.7014 24.1641 31.8331 23.8326 31.8331C23.501 31.8331 23.1831 31.7014 22.9487 31.467C22.7143 31.2326 22.5826 30.9146 22.5826 30.5831V17.7681L17.1159 12.2998Z" fill="#3C83F6"/>
</svg>
