<svg width="35" height="35" viewBox="0 0 35 35" fill="none" xmlns="http://www.w3.org/2000/svg">
<path d="M33.7791 21.1628H30.1163V13.8372H33.7791C34.4465 13.8372 35 13.2837 35 12.6163C35 11.9488 34.4465 11.3953 33.7791 11.3953H30.1163V9.36047C30.1163 6.88605 28.114 4.88372 25.6395 4.88372H23.6047V1.22093C23.6047 0.553488 23.0512 0 22.3837 0C21.7163 0 21.1628 0.553488 21.1628 1.22093V4.88372H13.8372V1.22093C13.8372 0.553488 13.2837 0 12.6163 0C11.9488 0 11.3953 0.553488 11.3953 1.22093V4.88372H9.36047C6.88605 4.88372 4.88372 6.88605 4.88372 9.36047V11.3953H1.22093C0.553488 11.3953 0 11.9488 0 12.6163C0 13.2837 0.553488 13.8372 1.22093 13.8372H4.88372V21.1628H1.22093C0.553488 21.1628 0 21.7163 0 22.3837C0 23.0512 0.553488 23.6047 1.22093 23.6047H4.88372V25.6395C4.88372 28.114 6.88605 30.1163 9.36047 30.1163H11.3953V33.7791C11.3953 34.4465 11.9488 35 12.6163 35C13.2837 35 13.8372 34.4465 13.8372 33.7791V30.1163H21.1628V33.7791C21.1628 34.4465 21.7163 35 22.3837 35C23.0512 35 23.6047 34.4465 23.6047 33.7791V30.1163H25.6395C28.114 30.1163 30.1163 28.114 30.1163 25.6395V23.6047H33.7791C34.4465 23.6047 35 23.0512 35 22.3837C35 21.7163 34.4465 21.1628 33.7791 21.1628ZM27.6744 25.6395C27.6744 26.7628 26.7628 27.6744 25.6395 27.6744H9.36047C8.23721 27.6744 7.32558 26.7628 7.32558 25.6395V9.36047C7.32558 8.23721 8.23721 7.32558 9.36047 7.32558H25.6395C26.7628 7.32558 27.6744 8.23721 27.6744 9.36047V25.6395ZM15.6442 14.293L12.4372 17.5L15.6442 20.707C16.1163 21.1791 16.1163 21.9605 15.6442 22.4326C15.4 22.6767 15.0907 22.7907 14.7814 22.7907C14.4721 22.7907 14.1628 22.6767 13.9186 22.4326L9.84884 18.3628C9.62178 18.133 9.49444 17.823 9.49444 17.5C9.49444 17.177 9.62178 16.867 9.84884 16.6372L13.9186 12.5674C14.3907 12.0953 15.1721 12.0953 15.6442 12.5674C16.1163 13.0395 16.1163 13.8209 15.6442 14.293ZM25.1349 16.6372C25.607 17.1093 25.607 17.8907 25.1349 18.3628L21.0651 22.4326C20.8209 22.6767 20.5116 22.7907 20.2023 22.7907C19.893 22.7907 19.5837 22.6767 19.3395 22.4326C19.1125 22.2028 18.9851 21.8928 18.9851 21.5698C18.9851 21.2467 19.1125 20.9367 19.3395 20.707L22.5465 17.5L19.3395 14.293C18.8674 13.8209 18.8674 13.0395 19.3395 12.5674C19.8116 12.0953 20.593 12.0953 21.0651 12.5674L25.1349 16.6372Z" fill="#3C83F6"/>
</svg>
