<svg width="40" height="40" viewBox="0 0 40 40" fill="none" xmlns="http://www.w3.org/2000/svg">
<path d="M38.6047 24.186H34.4186V15.814H38.6047C39.3674 15.814 40 15.1814 40 14.4186C40 13.6558 39.3674 13.0233 38.6047 13.0233H34.4186V10.6977C34.4186 7.86977 32.1302 5.5814 29.3023 5.5814H26.9767V1.39535C26.9767 0.632558 26.3442 0 25.5814 0C24.8186 0 24.186 0.632558 24.186 1.39535V5.5814H15.814V1.39535C15.814 0.632558 15.1814 0 14.4186 0C13.6558 0 13.0233 0.632558 13.0233 1.39535V5.5814H10.6977C7.86977 5.5814 5.5814 7.86977 5.5814 10.6977V13.0233H1.39535C0.632558 13.0233 0 13.6558 0 14.4186C0 15.1814 0.632558 15.814 1.39535 15.814H5.5814V24.186H1.39535C0.632558 24.186 0 24.8186 0 25.5814C0 26.3442 0.632558 26.9767 1.39535 26.9767H5.5814V29.3023C5.5814 32.1302 7.86977 34.4186 10.6977 34.4186H13.0233V38.6047C13.0233 39.3674 13.6558 40 14.4186 40C15.1814 40 15.814 39.3674 15.814 38.6047V34.4186H24.186V38.6047C24.186 39.3674 24.8186 40 25.5814 40C26.3442 40 26.9767 39.3674 26.9767 38.6047V34.4186H29.3023C32.1302 34.4186 34.4186 32.1302 34.4186 29.3023V26.9767H38.6047C39.3674 26.9767 40 26.3442 40 25.5814C40 24.8186 39.3674 24.186 38.6047 24.186ZM31.6279 29.3023C31.6279 30.586 30.586 31.6279 29.3023 31.6279H10.6977C9.41395 31.6279 8.37209 30.586 8.37209 29.3023V10.6977C8.37209 9.41395 9.41395 8.37209 10.6977 8.37209H29.3023C30.586 8.37209 31.6279 9.41395 31.6279 10.6977V29.3023ZM17.8791 16.3349L14.214 20L17.8791 23.6651C18.4186 24.2047 18.4186 25.0977 17.8791 25.6372C17.6 25.9163 17.2465 26.0465 16.893 26.0465C16.5395 26.0465 16.186 25.9163 15.907 25.6372L11.2558 20.986C10.9963 20.7235 10.8508 20.3692 10.8508 20C10.8508 19.6308 10.9963 19.2765 11.2558 19.014L15.907 14.3628C16.4465 13.8233 17.3395 13.8233 17.8791 14.3628C18.4186 14.9023 18.4186 15.7953 17.8791 16.3349ZM28.7256 19.014C29.2651 19.5535 29.2651 20.4465 28.7256 20.986L24.0744 25.6372C23.7953 25.9163 23.4419 26.0465 23.0884 26.0465C22.7349 26.0465 22.3814 25.9163 22.1023 25.6372C21.8428 25.3746 21.6973 25.0203 21.6973 24.6512C21.6973 24.282 21.8428 23.9277 22.1023 23.6651L25.7674 20L22.1023 16.3349C21.5628 15.7953 21.5628 14.9023 22.1023 14.3628C22.6419 13.8233 23.5349 13.8233 24.0744 14.3628L28.7256 19.014Z" fill="#3C83F6"/>
</svg>
