<svg width="44" height="44" viewBox="0 0 44 44" fill="none" xmlns="http://www.w3.org/2000/svg">
<path d="M19.9513 14.5258V9.19198H14.6175C13.6356 9.19198 12.8398 8.39621 12.8398 7.41435C12.8398 6.43249 13.6356 5.63672 14.6175 5.63672H21.729L21.911 5.64539C22.8072 5.73663 23.5066 6.49401 23.5066 7.41435V14.5258C23.5065 15.5075 22.7106 16.3033 21.729 16.3035C20.7472 16.3035 19.9515 15.5076 19.9513 14.5258Z" fill="#3C83F6"/>
<path d="M34.1755 18.079C34.1753 17.0974 33.3794 16.3016 32.3978 16.3014H11.0634C10.0818 16.3016 9.28593 17.0974 9.28573 18.079V32.302C9.2858 33.2836 10.0817 34.0794 11.0634 34.0796H32.3978C33.3795 34.0794 34.1754 33.2836 34.1755 32.302V18.079ZM37.7307 32.302C37.7306 35.2474 35.3432 37.6347 32.3978 37.6349H11.0634C8.118 37.6347 5.73054 35.2474 5.73047 32.302V18.079C5.73066 15.1337 8.11807 12.7463 11.0634 12.7461H32.3978C35.3431 12.7463 37.7305 15.1337 37.7307 18.079V32.302Z" fill="#3C83F6"/>
<path d="M7.50672 23.4141L7.68872 23.4227C8.58527 23.5137 9.28532 24.2711 9.28532 25.1917C9.28532 26.1122 8.58527 26.8697 7.68872 26.9607L7.50672 26.9693H3.95146C2.9696 26.9693 2.17383 26.1736 2.17383 25.1917C2.17383 24.2098 2.9696 23.4141 3.95146 23.4141H7.50672Z" fill="#3C83F6"/>
<path d="M39.5067 23.4141L39.6887 23.4227C40.5853 23.5137 41.2853 24.2711 41.2853 25.1917C41.2853 26.1122 40.5853 26.8697 39.6887 26.9607L39.5067 26.9693H35.9515C34.9696 26.9693 34.1738 26.1736 34.1738 25.1917C34.1738 24.2098 34.9696 23.4141 35.9515 23.4141H39.5067Z" fill="#3C83F6"/>
<path d="M25.2852 26.9696V23.4143C25.2852 22.4325 26.0809 21.6367 27.0628 21.6367C28.0446 21.6367 28.8404 22.4325 28.8404 23.4143V26.9696C28.8404 27.9515 28.0446 28.7482 27.0628 28.7482C26.0809 28.7482 25.2852 27.9515 25.2852 26.9696Z" fill="#3C83F6"/>
<path d="M14.6191 26.9696V23.4143C14.6191 22.4325 15.4149 21.6367 16.3968 21.6367C17.3786 21.6367 18.1744 22.4325 18.1744 23.4143V26.9696C18.1744 27.9515 17.3786 28.7482 16.3968 28.7482C15.4149 28.7482 14.6191 27.9515 14.6191 26.9696Z" fill="#3C83F6"/>
</svg>
