<svg width="44" height="44" viewBox="0 0 44 44" fill="none" xmlns="http://www.w3.org/2000/svg">
<path d="M28.3627 16.5448C28.3627 14.7366 27.6442 13.0026 26.3656 11.724C25.1669 10.5254 23.5681 9.81937 21.8831 9.73574L21.5448 9.72688C19.7366 9.7269 18.0026 10.4454 16.724 11.724C15.4454 13.0026 14.7269 14.7366 14.7269 16.5448L14.7298 16.7524C14.7559 17.7992 15.0073 18.9871 16.3732 20.353L16.7587 20.754C17.589 21.6531 18.3655 22.7567 18.7175 24.136L18.7913 24.4588L18.812 24.5969C18.8784 25.2848 18.4141 25.9252 17.7219 26.0638C17.0297 26.2022 16.3551 25.7898 16.1516 25.1295L16.1169 24.9936L16.0755 24.8119C15.8762 24.03 15.4158 23.3209 14.7609 22.6101L14.4447 22.2814C12.4869 20.3236 12.0512 18.4278 12.0044 16.855L12 16.5448C12 14.0133 13.0055 11.5856 14.7956 9.79557C16.5856 8.00555 19.0133 7.00002 21.5448 7L21.7819 7.00295C24.2275 7.06363 26.56 8.06152 28.2941 9.79557C30.0841 11.5856 31.0896 14.0133 31.0896 16.5448C31.0896 18.6385 30.2905 20.7802 28.6309 22.2955C27.6398 23.2888 27.1695 24.0099 26.9727 24.9936C26.825 25.7319 26.1068 26.2113 25.3685 26.0638C24.63 25.9161 24.1506 25.1973 24.2983 24.4588C24.646 22.7201 25.5362 21.534 26.7172 20.353L26.7689 20.3042L26.9587 20.1233C27.8775 19.1934 28.3627 17.8906 28.3627 16.5448Z" fill="#3C83F6"/>
<path d="M25.6366 28.8164L25.7762 28.8231C26.4638 28.8929 27 29.4739 27 30.1798C27 30.8858 26.4638 31.4668 25.7762 31.5366L25.6366 31.5433H17.4552C16.7022 31.5433 16.0918 30.9329 16.0918 30.1798C16.0918 29.4268 16.7022 28.8164 17.4552 28.8164H25.6366Z" fill="#3C83F6"/>
<path d="M24.2711 34.2734L24.4107 34.2801C25.0981 34.3501 25.6345 34.931 25.6345 35.6369C25.6345 36.3428 25.0981 36.9237 24.4107 36.9937L24.2711 37.0003H18.8166C18.0635 37.0003 17.4531 36.39 17.4531 35.6369C17.4531 34.8838 18.0635 34.2734 18.8166 34.2734H24.2711Z" fill="#3C83F6"/>
</svg>
