<svg width="45" height="44" viewBox="0 0 45 44" fill="none" xmlns="http://www.w3.org/2000/svg">
<path d="M19.4748 25.3691C19.7265 24.9023 20.2958 24.6929 20.7961 24.9005C21.329 25.1221 21.5823 25.7334 21.3614 26.2667L20.8261 27.5539C20.6047 28.0873 19.9933 28.3415 19.4599 28.1205C18.9263 27.8991 18.6732 27.2866 18.8946 26.753L19.4285 25.4658L19.4748 25.3691Z" fill="#3C83F6" stroke="#3C83F6" stroke-width="0.4" stroke-linecap="round" stroke-linejoin="round"/>
<path d="M19.4605 15.881C19.9609 15.6734 20.5303 15.8825 20.7817 16.3495L20.8267 16.4462L21.362 17.7334C21.583 18.2669 21.33 18.8795 20.7967 19.101C20.2631 19.3224 19.6506 19.068 19.4291 18.5344L18.8952 17.2472L18.8584 17.1464C18.706 16.6387 18.9603 16.0885 19.4605 15.881Z" fill="#3C83F6" stroke="#3C83F6" stroke-width="0.4" stroke-linecap="round" stroke-linejoin="round"/>
<path d="M23.1998 24.8996C23.7003 24.6931 24.2688 24.9038 24.5196 25.3709L24.566 25.4676L25.0985 26.7562C25.319 27.2899 25.0654 27.9016 24.5319 28.1224C23.9981 28.3431 23.3852 28.0895 23.1643 27.5558L22.6318 26.2658L22.5963 26.165C22.4446 25.6572 22.6993 25.1065 23.1998 24.8996Z" fill="#3C83F6" stroke="#3C83F6" stroke-width="0.4" stroke-linecap="round" stroke-linejoin="round"/>
<path d="M23.2131 16.3495C23.4647 15.8827 24.0341 15.6733 24.5344 15.881C25.0673 16.1026 25.3205 16.7139 25.0997 17.2472L24.5643 18.5344C24.343 19.0678 23.7316 19.322 23.1981 19.101C22.6645 18.8796 22.4115 18.267 22.6329 17.7334L23.1668 16.4462L23.2131 16.3495Z" fill="#3C83F6" stroke="#3C83F6" stroke-width="0.4" stroke-linecap="round" stroke-linejoin="round"/>
<path d="M26.8498 18.8604C27.3575 18.7079 27.909 18.9623 28.1166 19.4625C28.3237 19.9625 28.1143 20.5321 27.648 20.7837L27.55 20.8287L26.2628 21.364L26.162 21.3994C25.6546 21.5518 25.1043 21.2984 24.8966 20.7987C24.6751 20.2651 24.9282 19.6526 25.4618 19.4311L26.749 18.8972L26.8498 18.8604Z" fill="#3C83F6" stroke="#3C83F6" stroke-width="0.4" stroke-linecap="round" stroke-linejoin="round"/>
<path d="M24.8966 23.2007C25.1041 22.7006 25.6544 22.4462 26.162 22.5986L26.2628 22.6354L27.55 23.1694L27.6481 23.2157C28.1142 23.4675 28.3241 24.0369 28.1166 24.5369C27.8951 25.0702 27.2825 25.3233 26.7491 25.1022L25.4619 24.5669L25.3652 24.5219C24.8981 24.2705 24.6891 23.7011 24.8966 23.2007Z" fill="#3C83F6" stroke="#3C83F6" stroke-width="0.4" stroke-linecap="round" stroke-linejoin="round"/>
<path d="M20.9505 12.2345V12.2331C20.9511 11.5364 20.7193 10.8592 20.2926 10.3085C19.8658 9.75764 19.2676 9.36357 18.5927 9.19016C17.9178 9.01681 17.204 9.07395 16.5645 9.35089C16.005 9.59323 15.5302 9.99253 15.1956 10.4978L15.0608 10.7212C14.7849 11.2234 14.6512 11.7914 14.6753 12.3639C14.6961 12.8573 14.369 13.2992 13.8907 13.4222C13.2245 13.5936 12.6057 13.9136 12.0818 14.3594C11.558 14.8052 11.1425 15.3651 10.8668 15.9953C10.5912 16.6254 10.4628 17.3104 10.4909 17.9976C10.5191 18.6846 10.7028 19.3564 11.0289 19.9617L11.0752 20.0585C11.2782 20.5483 11.0808 21.1215 10.6039 21.3783C10.0955 21.6522 9.46152 21.4629 9.18734 20.9547L9.01844 20.6183C8.64676 19.8235 8.43597 18.9612 8.40004 18.082C8.35904 17.0776 8.54739 16.0772 8.95033 15.1562C9.35333 14.2351 9.96087 13.4173 10.7265 12.7657C11.2903 12.286 11.9295 11.9065 12.6158 11.6392C12.6792 11.0838 12.8293 10.5409 13.0653 10.0319L13.226 9.71321C13.7848 8.69525 14.6667 7.89191 15.7323 7.43031C16.7981 6.96866 17.988 6.87575 19.113 7.1647C20.2379 7.4537 21.2349 8.10867 21.9462 9.02671C21.9638 9.04941 21.9781 9.07458 21.9953 9.09754C22.2804 8.71706 22.6168 8.37542 22.9964 8.08413C23.6328 7.59589 24.3728 7.25995 25.1595 7.10341C25.9461 6.94692 26.7589 6.97356 27.5336 7.18105C28.3086 7.38869 29.0254 7.7731 29.6286 8.30207C30.2316 8.83098 30.7054 9.49109 31.0125 10.2322C31.3195 10.9734 31.4518 11.7758 31.3993 12.5764C31.3468 13.3769 31.1112 14.155 30.7101 14.8497C30.4212 15.3498 29.7814 15.5212 29.2812 15.2325C28.7809 14.9436 28.6097 14.3039 28.8985 13.8036C29.1392 13.3868 29.281 12.9192 29.3125 12.4388C29.3439 11.9586 29.2638 11.4777 29.0796 11.0331C28.8954 10.5884 28.612 10.1913 28.2501 9.87394C27.8882 9.55659 27.4578 9.32702 26.9929 9.20242C26.5279 9.07783 26.0402 9.06219 25.5681 9.15611C25.096 9.25003 24.6519 9.4515 24.27 9.74454C23.8881 10.0376 23.5784 10.4148 23.3656 10.8465C23.206 11.1702 23.1043 11.5181 23.0632 11.8749L23.0427 12.2345L23.0373 12.3421C22.9833 12.8694 22.5367 13.2808 21.9953 13.2806C21.4538 13.2802 21.0094 12.8681 20.956 12.3407L20.9505 12.2345Z" fill="#3C83F6" stroke="#3C83F6" stroke-width="0.4" stroke-linecap="round" stroke-linejoin="round"/>
<path d="M30.5182 11.375L30.6231 11.3968L30.9854 11.5017C31.821 11.7681 32.597 12.1984 33.2669 12.7684C34.0324 13.4199 34.6402 14.2367 35.0431 15.1576C35.4461 16.0787 35.6345 17.0802 35.5934 18.0848C35.5523 19.0891 35.2828 20.0712 34.8061 20.9561L34.7503 21.0474C34.4529 21.4863 33.865 21.638 33.3881 21.3811C32.8796 21.107 32.6892 20.4717 32.9632 19.9631L33.0789 19.7329C33.3331 19.1893 33.478 18.6002 33.5026 17.9989C33.5307 17.3118 33.4022 16.6267 33.1266 15.9966C32.8509 15.3664 32.4341 14.8066 31.9103 14.3607C31.4519 13.9708 30.9211 13.6766 30.3493 13.4944L30.1027 13.4236L30.0006 13.3909C29.503 13.2078 29.2148 12.6745 29.3495 12.15C29.4844 11.6256 29.9941 11.2957 30.5182 11.375Z" fill="#3C83F6" stroke="#3C83F6" stroke-width="0.4" stroke-linecap="round" stroke-linejoin="round"/>
<path d="M31.4966 19.2265C31.7005 18.7246 32.2503 18.4672 32.7593 18.6163L32.8601 18.6504L33.1243 18.7648C34.4288 19.3618 35.5074 20.3674 36.1932 21.6334C36.9246 22.9839 37.1635 24.5472 36.8701 26.0548C36.5767 27.5625 35.7692 28.9224 34.5845 29.9001C33.3998 30.8777 31.9116 31.4127 30.3756 31.4147C29.7979 31.4155 29.3289 30.9477 29.3281 30.37C29.3274 29.7922 29.7951 29.3233 30.3729 29.3225C31.4238 29.3212 32.4418 28.9548 33.2524 28.286C34.0629 27.6171 34.6152 26.6872 34.8161 25.6557C35.0169 24.6241 34.8535 23.5546 34.353 22.6305C33.9149 21.8218 33.2432 21.1678 32.4297 20.7521L32.0728 20.59L31.9761 20.5437C31.5075 20.2956 31.2929 19.7284 31.4966 19.2265Z" fill="#3C83F6" stroke="#3C83F6" stroke-width="0.4" stroke-linecap="round" stroke-linejoin="round"/>
<path d="M11.0195 28.6106C11.592 28.686 11.9949 29.2107 11.9198 29.7834L11.8858 30.1729C11.8455 31.084 12.0816 31.9898 12.5668 32.7691C13.1211 33.6593 13.9669 34.33 14.96 34.6665C15.9536 35.003 17.0338 34.9837 18.0153 34.6134C18.9965 34.2431 19.8196 33.5444 20.3431 32.6356V32.6343L20.4289 32.5035C20.6381 32.2154 20.9183 32.044 21.1563 31.9464C21.4338 31.8327 21.7278 31.787 21.9967 31.787C22.2657 31.787 22.5596 31.8327 22.8371 31.9464C23.0751 32.044 23.3553 32.2154 23.5645 32.5035L23.6503 32.6343V32.6356L23.8614 32.9666C24.383 33.714 25.1198 34.2895 25.9782 34.6134C26.9594 34.9836 28.0387 35.0028 29.032 34.6665C30.0254 34.3302 30.8721 33.6593 31.4266 32.7691C31.9117 31.9902 32.1475 31.085 32.1077 30.1743L32.0736 29.7847L32.0641 29.6771C32.049 29.1473 32.4384 28.6822 32.9753 28.6119C33.5123 28.5419 34.0075 28.8914 34.129 29.4074L34.1481 29.5123L34.1794 29.7983C34.3035 31.2247 33.9612 32.6556 33.2014 33.8751C32.391 35.1761 31.1553 36.1568 29.7035 36.6484C28.2517 37.1399 26.674 37.1118 25.2399 36.5708C23.9011 36.0656 22.7645 35.1417 21.9967 33.9405C21.2289 35.1419 20.0925 36.0669 18.7535 36.5721C17.3194 37.1132 15.7417 37.14 14.2899 36.6484C12.8379 36.1567 11.6009 35.1764 10.7906 33.8751C9.98029 32.5737 9.64591 31.031 9.84531 29.5109L9.86438 29.4061C9.98593 28.8898 10.4823 28.5401 11.0195 28.6106Z" fill="#3C83F6" stroke="#3C83F6" stroke-width="0.4" stroke-linecap="round" stroke-linejoin="round"/>
<path d="M11.2453 18.6077C11.7542 18.46 12.3022 18.7189 12.5053 19.2207C12.7216 19.7563 12.4633 20.3664 11.9277 20.5828L11.5695 20.7462C10.7543 21.1609 10.0801 21.814 9.64074 22.6232C9.13861 23.5481 8.97389 24.6195 9.1749 25.6525C9.37597 26.6855 9.93045 27.6165 10.7427 28.2855C11.555 28.9546 12.5752 29.3199 13.6276 29.3194C14.2053 29.3191 14.6734 29.7878 14.6737 30.3655C14.6738 30.9428 14.2064 31.411 13.629 31.4116C12.0909 31.4124 10.6005 30.8775 9.41327 29.8996C8.22602 28.9217 7.41599 27.5615 7.12219 26.0516C6.82841 24.5418 7.06798 22.9765 7.80189 21.6248C8.53584 20.273 9.71823 19.2191 11.1445 18.6431L11.2453 18.6077Z" fill="#3C83F6" stroke="#3C83F6" stroke-width="0.4" stroke-linecap="round" stroke-linejoin="round"/>
<path d="M13.5851 11.3642C14.1259 11.3416 14.588 11.7334 14.6639 12.2578L14.6735 12.3654L14.6871 12.5547C14.7259 12.9313 14.8337 13.2975 15.0031 13.6362L15.093 13.8038L15.1407 13.8991C15.3581 14.3826 15.1791 14.9616 14.7102 15.2326C14.2411 15.5038 13.6488 15.3701 13.3386 14.9398L13.2814 14.8499L13.1316 14.572C12.8492 14.0074 12.6704 13.3965 12.6058 12.7685L12.584 12.4525V12.3463C12.6151 11.8168 13.0438 11.387 13.5851 11.3642Z" fill="#3C83F6" stroke="#3C83F6" stroke-width="0.4" stroke-linecap="round" stroke-linejoin="round"/>
<path d="M15.8771 19.4624C16.0846 18.9623 16.6348 18.708 17.1425 18.8604L17.2433 18.8971L18.5304 19.4311L18.6285 19.4774C19.0947 19.7293 19.3046 20.2986 19.0971 20.7986C18.8756 21.3319 18.2629 21.585 17.7295 21.3639L16.4423 20.8286L16.3456 20.7837C15.8786 20.5322 15.6695 19.9628 15.8771 19.4624Z" fill="#3C83F6" stroke="#3C83F6" stroke-width="0.4" stroke-linecap="round" stroke-linejoin="round"/>
<path d="M17.8303 22.5987C18.338 22.4462 18.8895 22.7006 19.0971 23.2007C19.3042 23.7008 19.0948 24.2704 18.6285 24.522L18.5304 24.5669L17.2432 25.1023L17.1424 25.1377C16.635 25.29 16.0848 25.0367 15.877 24.537C15.6556 24.0033 15.9087 23.3908 16.4423 23.1694L17.7295 22.6355L17.8303 22.5987Z" fill="#3C83F6" stroke="#3C83F6" stroke-width="0.4" stroke-linecap="round" stroke-linejoin="round"/>
<path d="M25.1344 22C25.1344 20.2668 23.7294 18.8617 21.9961 18.8617C20.2629 18.8617 18.8578 20.2668 18.8578 22C18.8578 23.7333 20.2629 25.1383 21.9961 25.1383C23.7294 25.1383 25.1344 23.7333 25.1344 22ZM27.2266 22C27.2266 24.8888 24.8849 27.2305 21.9961 27.2305C19.1074 27.2305 16.7656 24.8888 16.7656 22C16.7656 19.1113 19.1074 16.7695 21.9961 16.7695C24.8849 16.7695 27.2266 19.1113 27.2266 22Z" fill="#3C83F6" stroke="#3C83F6" stroke-width="0.4" stroke-linecap="round" stroke-linejoin="round"/>
</svg>
