<svg width="44" height="44" viewBox="0 0 44 44" fill="none" xmlns="http://www.w3.org/2000/svg">
<path d="M22.1651 7.00665C22.4967 7.0338 22.8166 7.14174 23.0972 7.32056L23.2346 7.41584L23.3631 7.5222C23.6109 7.74425 23.8008 8.02336 23.9163 8.3354L23.968 8.4942L23.9754 8.52153L26.1314 16.887H26.1307C26.1916 17.1228 26.3152 17.3381 26.4874 17.5104C26.6597 17.6826 26.8749 17.8055 27.1108 17.8664H27.1101L35.4763 20.0224L35.4984 20.0283L35.658 20.0793C35.9712 20.194 36.2517 20.3837 36.4748 20.6317L36.5819 20.761L36.678 20.8976C36.8877 21.2256 37 21.608 37 21.9996C37 22.4473 36.8531 22.8829 36.5819 23.239C36.3447 23.5506 36.0236 23.7869 35.658 23.9207L35.4984 23.9717L35.4763 23.9776L27.1101 26.1329L27.1108 26.1336C26.8749 26.1945 26.6597 26.3174 26.4874 26.4896C26.3366 26.6404 26.2232 26.8241 26.1565 27.0259L26.1307 27.113L23.9739 35.4785L23.9665 35.5058C23.8462 35.9356 23.5887 36.3144 23.2331 36.5842C22.8775 36.8539 22.4431 37 21.9967 37C21.5503 37 21.1159 36.8539 20.7602 36.5842C20.4492 36.3482 20.2133 36.0286 20.0785 35.6646L20.0268 35.5058L20.0194 35.4785L17.8642 27.113C17.8033 26.8772 17.6803 26.6619 17.5082 26.4896C17.3574 26.3389 17.1735 26.2254 16.9719 26.1587L16.884 26.1336L8.51858 23.9761C8.50794 23.9734 8.49738 23.9703 8.48682 23.9673C8.05871 23.8458 7.68195 23.5881 7.41362 23.2331C7.17877 22.9223 7.03806 22.5518 7.00665 22.1658L7 21.9996L7.00665 21.8334C7.03814 21.4476 7.17886 21.0776 7.41362 20.7669L7.51924 20.6384C7.777 20.3495 8.11216 20.1383 8.48682 20.032L8.51858 20.0239L16.884 17.8649L16.9719 17.8391C17.1734 17.7724 17.3574 17.6595 17.5082 17.5089C17.6802 17.3368 17.8032 17.1218 17.8642 16.8863L20.0209 8.52079L20.0283 8.4942L20.08 8.3354C20.2147 7.97133 20.4506 7.65188 20.7617 7.41584L20.8991 7.32056C21.2265 7.1119 21.6076 7 21.9982 7L22.1651 7.00665ZM20.5047 17.568V17.5687C20.3218 18.2761 19.9527 18.9217 19.4359 19.4381C18.919 19.9547 18.2726 20.3237 17.565 20.5062L17.5643 20.5054L11.7751 21.9996L17.565 23.4924H17.5658L17.828 23.5699C18.4328 23.7699 18.9837 24.1089 19.4359 24.5611C19.9528 25.078 20.3221 25.7242 20.5047 26.432L21.9967 32.222L23.4901 26.432L23.5677 26.1698C23.7677 25.5648 24.1065 25.0135 24.5589 24.5611C25.0758 24.0443 25.722 23.675 26.4298 23.4924L32.2212 21.9996L26.4298 20.5069C25.722 20.3243 25.0758 19.9557 24.5589 19.4389C24.042 18.922 23.6728 18.2758 23.4901 17.568V17.5672L21.9974 11.7773L20.5047 17.568Z" fill="#3C83F6"/>
</svg>
