<svg width="44" height="44" viewBox="0 0 44 44" fill="none" xmlns="http://www.w3.org/2000/svg">
<mask id="mask0_4360_1481" style="mask-type:luminance" maskUnits="userSpaceOnUse" x="0" y="0" width="43" height="43">
<path d="M42.3496 42.3496V0.650391H0.650391V42.3496H42.3496Z" fill="white" stroke="white" stroke-width="1.3"/>
<path d="M42.3496 42.3496V0.650391H0.650391V42.3496H42.3496ZM1.0293 1.0293H41.9707V41.9707H1.0293V1.0293Z" fill="white" stroke="white" stroke-width="1.3"/>
</mask>
<g mask="url(#mask0_4360_1481)">
<path d="M42.5801 19.8203V18.9805C42.5801 8.76605 34.234 0.419949 24.0195 0.419949H23.1797V19.8203H42.5801ZM24.8594 2.12047C33.4815 2.54794 40.4521 9.5185 40.8795 18.1406H24.8594V2.12047Z" fill="#3C83F6" stroke="#3C83F6" stroke-width="1.3" stroke-miterlimit="10"/>
<path d="M18.9804 42.5781C29.1899 42.5781 37.457 34.2167 37.4571 24.0176V23.1778H19.8203V5.54099H18.9804C8.7814 5.541 0.419922 13.8081 0.419922 24.0176C0.419937 34.2219 8.77621 42.5781 18.9804 42.5781ZM2.09961 24.0176C2.09961 15.0274 9.24464 7.67899 18.1406 7.24143V24.8575H35.7567C35.3191 33.7535 27.9706 40.8984 18.9804 40.8984C9.70387 40.8984 2.09963 33.2943 2.09961 24.0176Z" fill="#3C83F6" stroke="#3C83F6" stroke-width="1.3" stroke-miterlimit="10"/>
<path d="M20.1667 24.0172L7.10182 10.9523L5.91406 12.14L17.7912 24.0172L5.91406 35.8943L7.10182 37.082L20.1667 24.0172Z" fill="#3C83F6" stroke="#3C83F6" stroke-width="1.3" stroke-miterlimit="10"/>
</g>
</svg>
