<svg width="44" height="44" viewBox="0 0 44 44" fill="none" xmlns="http://www.w3.org/2000/svg">
<path fill-rule="evenodd" clip-rule="evenodd" d="M11.6875 22.7478H13.0845L13.8747 20.4287H17.1807L17.9658 22.7468H19.3628L16.2473 14.168H14.8081L11.6875 22.7478ZM15.5159 15.5897H15.5396L16.8171 19.3583H14.2312L15.5159 15.5897ZM20.3137 22.7478H21.6458V19.8168H23.5064C25.1888 19.8168 26.354 18.6691 26.354 16.9919V16.9805C26.354 15.2981 25.1898 14.168 23.5064 14.168H20.3137V22.7478ZM23.1736 15.292C24.3326 15.292 24.9982 15.9163 24.9982 16.9867V16.998C24.9982 18.0746 24.3326 18.6979 23.1736 18.6979H21.6458V15.292H23.1736Z" fill="#3C83F6" stroke="#3C83F6" stroke-width="0.3"/>
<path d="M28.8516 22.7478H27.5195V14.168H28.8516V22.7478Z" fill="#3C83F6" stroke="#3C83F6" stroke-width="0.3"/>
<path fill-rule="evenodd" clip-rule="evenodd" d="M32.8821 27.5075H27.5043V30.7414H31.9755C32.1804 30.7414 32.377 30.8229 32.5219 30.9678C32.6668 31.1127 32.7482 31.3092 32.7482 31.5141V34.4534C33.1913 34.5716 33.6012 34.7901 33.9464 35.0921C34.2915 35.394 34.5625 35.7714 34.7385 36.1948C34.9145 36.6183 34.9907 37.0766 34.9612 37.5342C34.9318 37.9918 34.7974 38.4366 34.5686 38.834C34.3232 39.2595 33.9767 39.618 33.5596 39.8777C33.1426 40.1374 32.668 40.2902 32.1778 40.3227C31.6877 40.3551 31.197 40.2662 30.7494 40.0638C30.3018 39.8614 29.911 39.5517 29.6116 39.1623C29.3123 38.7728 29.1135 38.3155 29.0331 37.8309C28.9526 37.3462 28.9929 36.8493 29.1503 36.3839C29.3078 35.9186 29.5775 35.4992 29.9357 35.1631C30.2939 34.8269 30.7295 34.5842 31.2039 34.4565V32.2878H26.7316C26.5267 32.2878 26.3301 32.2064 26.1852 32.0615C26.0403 31.9166 25.9589 31.7201 25.9589 31.5152V27.5075H22.2408V34.4534C22.9398 34.6419 23.5466 35.0778 23.9484 35.6801C24.3502 36.2823 24.5196 37.01 24.4251 37.7278C24.3307 38.4456 23.9788 39.1047 23.4349 39.5826C22.891 40.0604 22.1921 40.3245 21.4681 40.3258C20.7441 40.3245 20.0452 40.0604 19.5013 39.5826C18.9574 39.1047 18.6055 38.4456 18.5111 37.7278C18.4166 37.01 18.586 36.2823 18.9878 35.6801C19.3896 35.0778 19.9964 34.6419 20.6954 34.4534V27.5075H16.9783V31.4935C16.9783 31.6984 16.8969 31.895 16.752 32.0399C16.6071 32.1848 16.4106 32.2662 16.2057 32.2662H11.7334V34.4555C12.4328 34.6448 13.0396 35.0819 13.4406 35.6855C13.8416 36.289 14.0096 37.0178 13.9131 37.7359C13.8166 38.4541 13.4624 39.1127 12.9163 39.589C12.3703 40.0654 11.6697 40.3269 10.9451 40.325C10.2204 40.3231 9.52124 40.0578 8.97773 39.5785C8.43422 39.0993 8.08348 38.4388 7.99086 37.7201C7.89823 37.0015 8.07004 36.2736 8.47427 35.6722C8.8785 35.0709 9.48758 34.6369 10.188 34.4513V31.4946C10.188 31.2896 10.2694 31.0931 10.4143 30.9482C10.5592 30.8033 10.7558 30.7219 10.9607 30.7219H15.4319V27.5075H9.86866C8.10588 27.4821 6.4153 26.8032 5.12453 25.6024C3.83375 24.4016 3.03468 22.7644 2.88216 21.008C2.72964 19.2517 3.23453 17.5012 4.29899 16.0959C5.36346 14.6906 6.9117 13.7304 8.6437 13.4015C8.3828 11.2712 8.86435 9.11603 10.0072 7.29936C11.15 5.48269 12.8843 4.11559 14.9176 3.4285C16.9509 2.74142 19.1589 2.77637 21.1694 3.52747C23.1799 4.27857 24.87 5.69988 25.9548 7.55182C27.582 7.23154 29.2701 7.53256 30.6863 8.39551C32.1025 9.25847 33.144 10.6207 33.6053 12.2136C35.5373 12.4373 37.3123 13.3863 38.5713 14.8687C39.8304 16.351 40.4795 18.2562 40.3875 20.1989C40.2955 22.1416 39.4692 23.9769 38.0757 25.3337C36.6823 26.6904 34.8266 27.4674 32.8821 27.5075ZM32.7894 25.9622H32.8553C34.4118 25.9358 35.8999 25.318 37.0173 24.2342C38.1347 23.1503 38.7977 21.6818 38.8715 20.1268C38.9454 18.5719 38.4246 17.0471 37.4149 15.8623C36.4052 14.6775 34.9823 13.9214 33.4354 13.7477L32.4092 13.6333L32.1218 12.6412C31.7678 11.4193 30.9687 10.3743 29.8822 9.71256C28.7957 9.05078 27.5007 8.82019 26.2525 9.06627L25.179 9.27747L24.6237 8.33377C23.7187 6.78823 22.3084 5.60204 20.6306 4.97523C18.9528 4.34842 17.1102 4.31932 15.4135 4.89284C13.7168 5.46636 12.2697 6.60742 11.3163 8.12361C10.3629 9.63981 9.96152 11.4384 10.1798 13.2161L10.3518 14.6522L8.93011 14.9201C7.57178 15.1748 6.35666 15.9254 5.52089 17.026C4.68513 18.1267 4.28842 19.4987 4.40788 20.8756C4.52734 22.2524 5.15442 23.5356 6.16725 24.4759C7.18009 25.4161 8.50633 25.9463 9.88823 25.9632H9.93356L32.7894 25.9622ZM20.0278 37.3412C20.0205 37.535 20.0524 37.7284 20.1215 37.9096C20.1906 38.0909 20.2956 38.2563 20.4302 38.3961C20.5647 38.5358 20.7261 38.647 20.9046 38.7229C21.0831 38.7989 21.2751 38.838 21.4691 38.838C21.6631 38.838 21.8551 38.7989 22.0337 38.7229C22.2122 38.647 22.3736 38.5358 22.5081 38.3961C22.6427 38.2563 22.7477 38.0909 22.8168 37.9096C22.8859 37.7284 22.9178 37.535 22.9104 37.3412C22.8963 36.9683 22.7383 36.6155 22.4696 36.3567C22.2008 36.0979 21.8422 35.9533 21.4691 35.9533C21.096 35.9533 20.7375 36.0979 20.4687 36.3567C20.2 36.6155 20.0419 36.9683 20.0278 37.3412ZM33.2314 38.0623C33.1403 38.2331 33.0158 38.3838 32.8653 38.5054C32.7147 38.6271 32.5413 38.7172 32.3552 38.7704C32.1691 38.8236 31.9742 38.8388 31.7821 38.8151C31.59 38.7914 31.4047 38.7293 31.2371 38.6325C31.0695 38.5357 30.9231 38.4061 30.8067 38.2515C30.6902 38.0969 30.6061 37.9205 30.5592 37.7327C30.5124 37.5449 30.5038 37.3496 30.534 37.1585C30.5643 36.9673 30.6326 36.7842 30.7351 36.62C30.9331 36.3027 31.2467 36.0747 31.6096 35.9842C31.9725 35.8937 32.3564 35.9477 32.6803 36.1348C33.0041 36.3219 33.2426 36.6275 33.3455 36.9871C33.4483 37.3468 33.4074 37.7323 33.2314 38.0623ZM9.70691 38.0623C9.79916 38.231 9.92419 38.3795 10.0747 38.4991C10.2251 38.6187 10.398 38.7071 10.5831 38.759C10.7682 38.8108 10.9618 38.8252 11.1525 38.8012C11.3432 38.7772 11.5272 38.7153 11.6937 38.6191C11.8601 38.523 12.0057 38.3945 12.1218 38.2413C12.2379 38.0881 12.3222 37.9133 12.3698 37.727C12.4173 37.5408 12.4272 37.3469 12.3988 37.1568C12.3703 36.9667 12.3042 36.7842 12.2042 36.62C12.0083 36.2982 11.6942 36.0659 11.3292 35.9727C10.9642 35.8794 10.5772 35.9327 10.2509 36.1212C9.92471 36.3096 9.68515 36.6182 9.58348 36.9809C9.48181 37.3437 9.52611 37.7318 9.70691 38.0623Z" fill="#3C83F6" stroke="#3C83F6" stroke-width="0.3"/>
<path fill-rule="evenodd" clip-rule="evenodd" d="M32.328 13.7266L32.022 12.6675C31.6744 11.4711 30.8914 10.4483 29.8271 9.80048C28.7629 9.15271 27.4946 8.92699 26.2722 9.1678L25.1266 9.39239L24.5342 8.38585C23.6413 6.8606 22.2498 5.68991 20.5943 5.07119C18.9387 4.45247 17.1205 4.42357 15.4461 4.98935C13.7717 5.55514 12.3437 6.68101 11.4028 8.1771C10.4618 9.6732 10.0656 11.448 10.2809 13.2022L10.4653 14.7342L8.94776 15.0196C7.61527 15.2704 6.42355 16.0074 5.60402 17.0876C4.7845 18.1678 4.39566 19.514 4.51302 20.8648C4.63038 22.2156 5.24556 23.4746 6.2391 24.3972C7.23264 25.3199 8.53362 25.8404 9.8894 25.8577H32.8534C34.3842 25.8324 35.8479 25.2251 36.947 24.1594C38.0462 23.0937 38.6983 21.6494 38.7709 20.1201C38.8434 18.5908 38.331 17.0913 37.3376 15.9263C36.3443 14.7613 34.9446 14.0183 33.4231 13.8482L32.328 13.7266ZM32.7895 25.9617L32.8544 25.9607C34.4109 25.9343 35.899 25.3165 37.0164 24.2327C38.1338 23.1488 38.7968 21.6803 38.8706 20.1253C38.9445 18.5704 38.4237 17.0456 37.414 15.8608C36.4043 14.676 34.9814 13.9199 33.4345 13.7462L32.4083 13.6318L32.1209 12.6397C31.7669 11.4178 30.9678 10.3728 29.8813 9.71106C28.7948 9.04928 27.4998 8.81869 26.2516 9.06477L25.1781 9.27597L24.6228 8.33227C23.7178 6.78673 22.3075 5.60055 20.6297 4.97374C18.9519 4.34692 17.1093 4.31782 15.4126 4.89135C13.7159 5.46487 12.2688 6.60593 11.3154 8.12212C10.362 9.63831 9.96063 11.4369 10.1789 13.2146L10.3509 14.6507L8.92921 14.9186C7.57088 15.1733 6.35576 15.9239 5.52 17.0245C4.68423 18.1252 4.28753 19.4972 4.40699 20.8741C4.52644 22.2509 5.15352 23.5341 6.16636 24.4744C7.1792 25.4147 8.50544 25.9448 9.88733 25.9617H9.93267H32.7895ZM9.86673 27.5071C8.10223 27.4839 6.40929 26.8059 5.11655 25.6047C3.82382 24.4036 3.02351 22.7649 2.87099 21.0068C2.71848 19.2488 3.22463 17.4968 4.2912 16.0909C5.35777 14.6851 6.90866 13.7257 8.64281 13.399C8.3819 11.2687 8.86345 9.11351 10.0063 7.29684C11.1491 5.48016 12.8834 4.11306 14.9167 3.42598C16.95 2.73889 19.158 2.77385 21.1685 3.52495C23.179 4.27605 24.8691 5.69736 25.9539 7.54929C27.5811 7.22902 29.2692 7.53004 30.6854 8.39299C32.1016 9.25594 33.1431 10.6182 33.6044 12.2111C35.5364 12.4348 37.3114 13.3838 38.5704 14.8661C39.8295 16.3485 40.4786 18.2537 40.3866 20.1964C40.2946 22.1391 39.4683 23.9744 38.0749 25.3312C36.6814 26.6879 34.8247 27.4649 32.8802 27.505V27.5071H27.5023V30.74H31.9736C32.1785 30.74 32.375 30.8214 32.5199 30.9663C32.6648 31.1112 32.7463 31.3077 32.7463 31.5126V34.4519C33.1893 34.5701 33.5993 34.7886 33.9444 35.0906C34.2896 35.3926 34.5606 35.7699 34.7366 36.1933C34.9125 36.6168 34.9888 37.0751 34.9593 37.5327C34.9298 37.9903 34.7955 38.4351 34.5667 38.8325C34.3213 39.258 33.9747 39.6165 33.5577 39.8762C33.1407 40.1359 32.6661 40.2887 32.1759 40.3212C31.6857 40.3536 31.1951 40.2647 30.7475 40.0623C30.2999 39.8599 29.9091 39.5502 29.6097 39.1608C29.3103 38.7713 29.1116 38.314 29.0311 37.8294C28.9507 37.3447 28.991 36.8478 29.1484 36.3824C29.3059 35.9171 29.5756 35.4978 29.9338 35.1616C30.292 34.8254 30.7276 34.5827 31.2019 34.455V32.2863H26.7297C26.5247 32.2863 26.3282 32.2049 26.1833 32.06C26.0384 31.9151 25.957 31.7186 25.957 31.5137V27.506H22.2389V34.4519C22.9379 34.6404 23.5447 35.0763 23.9465 35.6786C24.3483 36.2808 24.5177 37.0085 24.4232 37.7263C24.3288 38.4441 23.9769 39.1032 23.433 39.5811C22.8891 40.0589 22.1902 40.323 21.4662 40.3243C20.7422 40.323 20.0433 40.0589 19.4994 39.5811C18.9555 39.1032 18.6036 38.4441 18.5091 37.7263C18.4147 37.0085 18.5841 36.2808 18.9859 35.6786C19.3877 35.0763 19.9945 34.6404 20.6935 34.4519V27.506H16.9774V31.492C16.9774 31.697 16.896 31.8935 16.7511 32.0384C16.6062 32.1833 16.4097 32.2647 16.2048 32.2647H11.7325V34.454C12.4319 34.6433 13.0387 35.0805 13.4397 35.684C13.8407 36.2875 14.0087 37.0163 13.9122 37.7344C13.8157 38.4526 13.4615 39.1112 12.9154 39.5875C12.3694 40.0639 11.6688 40.3254 10.9442 40.3235C10.2195 40.3216 9.52034 40.0563 8.97683 39.577C8.43333 39.0978 8.08259 38.4373 7.98996 37.7186C7.89733 37 8.06914 36.2721 8.47338 35.6707C8.87761 35.0694 9.48669 34.6354 10.1871 34.4498V31.4931C10.1871 31.2881 10.2685 31.0916 10.4134 30.9467C10.5584 30.8018 10.7549 30.7204 10.9598 30.7204H15.431V27.506L9.86673 27.5071ZM15.3291 27.6101H9.86467C8.08338 27.5858 6.37396 26.9037 5.06525 25.6951C3.75654 24.4864 2.94096 22.8365 2.7754 21.0628C2.60984 19.289 3.10598 17.5167 4.16841 16.0867C5.23083 14.6567 6.78448 13.6701 8.53051 13.3166C8.2902 11.1746 8.79071 9.0149 9.94874 7.19698C11.1068 5.37907 12.8524 4.01257 14.8952 3.32494C16.938 2.6373 19.1547 2.67001 21.1763 3.41761C23.1979 4.16521 24.9026 5.58262 26.0064 7.43391C27.6382 7.13098 29.3244 7.44127 30.7415 8.30524C32.1585 9.1692 33.2067 10.526 33.6848 12.1153C35.6292 12.3539 37.4118 13.3176 38.6764 14.8137C39.9411 16.3098 40.5944 18.228 40.5059 20.185C40.4174 22.1419 39.5936 23.9934 38.1991 25.3692C36.8046 26.745 34.9422 27.5438 32.9842 27.606V27.6101H27.6064V30.6369H31.9746C32.4588 30.6369 32.8503 31.0284 32.8503 31.5126V34.3736C33.5634 34.5825 34.1774 35.0412 34.5798 35.6659C34.9822 36.2905 35.1461 37.0393 35.0415 37.7749C34.9369 38.5106 34.5707 39.1839 34.0101 39.6716C33.4495 40.1593 32.7319 40.4287 31.9889 40.4304C31.2458 40.4322 30.527 40.1662 29.9641 39.6811C29.4012 39.1961 29.0318 38.5245 28.9237 37.7893C28.8157 37.0542 28.976 36.3047 29.3755 35.6781C29.775 35.0516 30.3868 34.5899 31.0989 34.3777V32.3883H26.7307C26.4984 32.3883 26.2757 32.2961 26.1115 32.1318C25.9473 31.9676 25.855 31.7449 25.855 31.5126V27.6091H22.3429V34.3736C23.0555 34.5841 23.6684 35.0444 24.0694 35.67C24.4703 36.2956 24.6325 37.0447 24.5261 37.7801C24.4197 38.5155 24.052 39.1879 23.4902 39.6743C22.9285 40.1607 22.2103 40.4284 21.4672 40.4284C20.7242 40.4284 20.006 40.1607 19.4442 39.6743C18.8824 39.1879 18.5147 38.5155 18.4083 37.7801C18.302 37.0447 18.4641 36.2956 18.865 35.67C19.266 35.0444 19.8789 34.5841 20.5915 34.3736V27.6091H17.0805V31.492C17.0805 31.9752 16.689 32.3677 16.2048 32.3677H11.8355V34.3767C12.5476 34.5889 13.1594 35.0506 13.5589 35.6771C13.9584 36.3036 14.1188 37.0531 14.0107 37.7883C13.9026 38.5234 13.5333 39.195 12.9703 39.6801C12.4074 40.1651 11.6886 40.4311 10.9456 40.4294C10.2025 40.4276 9.48496 40.1583 8.92433 39.6706C8.36371 39.1829 7.99755 38.5095 7.89292 37.7739C7.78829 37.0382 7.95219 36.2895 8.35461 35.6649C8.75702 35.0402 9.37101 34.5814 10.0841 34.3726V31.4931C10.0841 31.0088 10.4756 30.6174 10.9598 30.6174H15.328L15.3291 27.6101ZM11.5409 22.8494L14.7367 14.0635H16.3201L19.5098 22.8494H17.8923L17.1072 20.5303H13.9496L13.1583 22.8483L11.5409 22.8494ZM13.8754 20.4273H17.1814L17.9665 22.7453H19.3635L16.248 14.1665H14.8088L11.6872 22.7463H13.0852L13.8754 20.4273ZM20.2113 22.8483V14.0635H23.5071C24.3725 14.0635 25.1112 14.355 25.6345 14.8681C26.1579 15.3832 26.4587 16.1137 26.4587 16.9791V16.9904C26.4587 17.8537 26.1579 18.5873 25.6345 19.1044C25.1112 19.6227 24.3725 19.9183 23.5071 19.9183H21.7495V22.8494L20.2113 22.8483ZM21.6465 22.7453H20.3144V14.1665H23.5071C25.1895 14.1665 26.3547 15.2967 26.3547 16.9791V16.9904C26.3547 18.6676 25.1905 19.8153 23.5071 19.8153H21.6465V22.7453ZM28.955 22.8483H27.4168V14.0635H28.955V22.8483ZM20.1289 37.3386C20.124 37.5176 20.1549 37.6957 20.22 37.8625C20.285 38.0292 20.3828 38.1813 20.5076 38.3096C20.6325 38.4379 20.7817 38.5399 20.9466 38.6095C21.1115 38.6792 21.2887 38.7151 21.4677 38.7151C21.6467 38.7151 21.8239 38.6792 21.9888 38.6095C22.1537 38.5399 22.303 38.4379 22.4278 38.3096C22.5526 38.1813 22.6504 38.0292 22.7155 37.8625C22.7805 37.6957 22.8115 37.5176 22.8065 37.3386C22.7968 36.99 22.6516 36.6589 22.4015 36.4157C22.1515 36.1725 21.8165 36.0365 21.4677 36.0365C21.1189 36.0365 20.7839 36.1725 20.5339 36.4157C20.2839 36.6589 20.1386 36.99 20.1289 37.3386ZM31.3122 38.4976C31.4646 38.5926 31.6346 38.656 31.8121 38.6839C31.9895 38.7119 32.1708 38.7039 32.3451 38.6603C32.5194 38.6168 32.6831 38.5386 32.8265 38.4305C32.97 38.3224 33.0902 38.1865 33.1801 38.031C33.27 37.8754 33.3276 37.7034 33.3497 37.5251C33.3717 37.3468 33.3576 37.166 33.3083 36.9932C33.259 36.8205 33.1754 36.6594 33.0626 36.5197C32.9497 36.3799 32.8099 36.2642 32.6515 36.1796C32.345 36.0159 31.9868 35.9777 31.6527 36.0731C31.3186 36.1685 31.0346 36.39 30.8608 36.6909C30.6869 36.9918 30.6369 37.3485 30.7211 37.6856C30.8053 38.0227 31.0172 38.3139 31.3122 38.4976ZM9.79461 38.0083C9.87925 38.1667 9.9949 38.3065 10.1347 38.4194C10.2744 38.5322 10.4355 38.6158 10.6082 38.6651C10.781 38.7144 10.9618 38.7285 11.1401 38.7065C11.3184 38.6844 11.4904 38.6268 11.646 38.5369C11.8015 38.447 11.9374 38.3268 12.0455 38.1834C12.1536 38.0399 12.2318 37.8762 12.2753 37.7019C12.3189 37.5276 12.3269 37.3463 12.299 37.1689C12.271 36.9914 12.2076 36.8214 12.1126 36.669C11.9289 36.3741 11.6377 36.1621 11.3006 36.0779C10.9635 35.9937 10.6068 36.0438 10.3059 36.2176C10.005 36.3914 9.78352 36.6754 9.68811 37.0095C9.5927 37.3437 9.63089 37.7018 9.79461 38.0083ZM16.8188 19.3569H14.2329L15.5166 15.5882H15.5403L16.8188 19.3569ZM15.5279 15.8726L14.3761 19.2538H16.6745L15.5279 15.8726ZM24.4508 15.8118C24.1644 15.5439 23.7358 15.3935 23.1733 15.3935H21.7495V18.5945H23.1743C23.7358 18.5945 24.1633 18.443 24.4518 18.1752C24.7372 17.9083 24.8958 17.5127 24.8958 16.9966V16.9852C24.8958 16.4722 24.7372 16.0786 24.4508 15.8118ZM21.4672 38.781C21.2746 38.7861 21.083 38.7526 20.9035 38.6825C20.7241 38.6123 20.5605 38.507 20.4225 38.3726C20.2845 38.2382 20.1748 38.0775 20.0998 37.9C20.0249 37.7225 19.9863 37.5318 19.9863 37.3391C19.9863 37.1465 20.0249 36.9558 20.0998 36.7783C20.1748 36.6008 20.2845 36.4401 20.4225 36.3057C20.5605 36.1713 20.7241 36.0659 20.9035 35.9958C21.083 35.9257 21.2746 35.8922 21.4672 35.8973C21.8429 35.9074 22.1999 36.0637 22.4621 36.333C22.7243 36.6023 22.871 36.9633 22.871 37.3391C22.871 37.715 22.7243 38.076 22.4621 38.3453C22.1999 38.6146 21.8429 38.7709 21.4672 38.781ZM31.2607 38.5873C31.4248 38.6897 31.608 38.7581 31.7991 38.7883C31.9903 38.8186 32.1856 38.81 32.3734 38.7631C32.5612 38.7163 32.7376 38.6321 32.8922 38.5157C33.0468 38.3992 33.1763 38.2529 33.2732 38.0853C33.37 37.9177 33.4321 37.7323 33.4558 37.5403C33.4795 37.3482 33.4643 37.1533 33.4111 36.9672C33.3579 36.7811 33.2678 36.6076 33.1461 36.4571C33.0245 36.3066 32.8738 36.1821 32.703 36.091C32.3729 35.915 31.9874 35.8741 31.6278 35.9769C31.2682 36.0797 30.9626 36.3182 30.7754 36.6421C30.5883 36.966 30.5343 37.3499 30.6248 37.7128C30.7154 38.0757 30.9433 38.3892 31.2607 38.5873ZM11.6748 38.5873C11.5106 38.6897 11.3275 38.7581 11.1363 38.7883C10.9451 38.8186 10.7499 38.81 10.5621 38.7631C10.3743 38.7163 10.1978 38.6321 10.0433 38.5157C9.88868 38.3992 9.75912 38.2529 9.66229 38.0853C9.56547 37.9177 9.50336 37.7323 9.47967 37.5403C9.45597 37.3482 9.47118 37.1533 9.52438 36.9672C9.57758 36.7811 9.66769 36.6076 9.78934 36.4571C9.91099 36.3066 10.0617 36.1821 10.2325 36.091C10.5625 35.915 10.948 35.8741 11.3076 35.9769C11.6673 36.0797 11.9729 36.3182 12.16 36.6421C12.3471 36.966 12.4011 37.3499 12.3106 37.7128C12.2201 38.0757 11.9921 38.3892 11.6748 38.5873ZM24.9989 16.9852C24.9989 15.9138 24.3333 15.2905 23.1743 15.2905H21.6465V18.6975H23.1743C24.3333 18.6975 24.9989 18.0732 24.9989 16.9976V16.9852ZM27.5199 22.7463V14.1665H28.852V22.7463H27.5199Z" fill="#3C83F6" stroke="#3C83F6" stroke-width="0.3"/>
</svg>
