<svg width="44" height="44" viewBox="0 0 44 44" fill="none" xmlns="http://www.w3.org/2000/svg">
<path d="M12.083 12.0849C12.6871 11.4809 13.6424 11.4429 14.2905 11.9714L14.4156 12.0849L17.7162 15.3846L17.8297 15.5097C18.3229 16.1146 18.323 16.9882 17.8297 17.593L17.7162 17.7181L14.4156 21.0178L14.2905 21.1313C13.6425 21.6597 12.687 21.6217 12.083 21.0178C11.4386 20.3734 11.4386 19.3286 12.083 18.6842L14.2154 16.5509L12.083 14.4176L11.9695 14.2925C11.4409 13.6444 11.4789 12.689 12.083 12.0849Z" fill="#3C83F6"/>
<path d="M26.4492 21.5L26.6181 21.508C27.45 21.5927 28.099 22.2957 28.099 23.1498C28.099 24.004 27.45 24.7069 26.6181 24.7916L26.4492 24.7996H19.849C18.9378 24.7996 18.1992 24.0611 18.1992 23.1498C18.1992 22.2386 18.9378 21.5 19.849 21.5H26.4492Z" fill="#3C83F6"/>
<path d="M34.6995 9.94946C34.6993 9.03836 33.9608 8.29965 33.0496 8.29964H9.94946C9.03846 8.29982 8.29982 9.03846 8.29964 9.94946V33.0496C8.29965 33.9608 9.03836 34.6993 9.94946 34.6995H33.0496C33.9609 34.6995 34.6995 33.9609 34.6995 33.0496V9.94946ZM38 33.0496C38 35.7834 35.7834 38 33.0496 38H9.94946C7.21583 37.9998 5.00001 35.7833 5 33.0496V9.94946C5.00018 7.21594 7.21594 5.00018 9.94946 5H33.0496C35.7833 5.00001 37.9998 7.21583 38 9.94946V33.0496Z" fill="#3C83F6"/>
</svg>
