<svg width="45" height="44" viewBox="0 0 45 44" fill="none" xmlns="http://www.w3.org/2000/svg">
<path d="M24.688 8.77226C24.6879 8.3505 24.5208 7.94597 24.2227 7.6477C23.9243 7.34935 23.5192 7.1815 23.0972 7.1815H22.3975C21.9757 7.1815 21.5713 7.34945 21.273 7.6477C20.9747 7.94598 20.8068 8.35044 20.8068 8.77226V9.06094C20.8058 9.89777 20.5844 10.72 20.1656 11.4445C19.7475 12.1678 19.1463 12.7677 18.4232 13.186L18.4241 13.1869L17.7399 13.5842L17.7364 13.5867C17.0109 14.0056 16.1872 14.2261 15.3494 14.2261C14.5293 14.2261 13.724 14.0136 13.0098 13.6117V13.6126L12.7711 13.4851C12.7558 13.4769 12.7405 13.4687 12.7255 13.4601C12.3604 13.2495 11.9262 13.1918 11.519 13.3006C11.163 13.3959 10.8527 13.6116 10.6392 13.9082L10.5539 14.04L10.204 14.6449L10.2032 14.6441C9.99352 15.0087 9.93767 15.4424 10.0463 15.8488C10.1417 16.2049 10.3572 16.5151 10.6539 16.7286L10.7857 16.8139L10.871 16.8673L11.1097 17.0259H11.1089C11.7912 17.4395 12.3609 18.0156 12.7625 18.7063C13.1812 19.4263 13.4038 20.244 13.4088 21.0769V21.8912L13.3993 22.2058C13.3539 22.9374 13.1404 23.6505 12.7737 24.2886C12.3591 25.0099 11.763 25.6094 11.0451 26.0292L11.0459 26.0301L10.8072 26.1732C10.8003 26.1773 10.7927 26.1812 10.7857 26.1852C10.4211 26.3964 10.1552 26.7441 10.0463 27.1512C9.93772 27.5575 9.99375 27.9905 10.2032 28.3551H10.204L10.553 28.9591H10.5539C10.7651 29.3237 11.1121 29.5896 11.519 29.6985C11.9262 29.8074 12.3604 29.7505 12.7255 29.5399L12.7711 29.5141L13.0098 29.3874C13.724 28.9856 14.5294 28.7739 15.3494 28.7739C16.0825 28.7739 16.8047 28.9422 17.4598 29.265L17.7364 29.4133L17.7399 29.4158L18.4198 29.8105H18.4206C19.1453 30.229 19.7468 30.8311 20.1656 31.5555C20.5845 32.2801 20.8059 33.1021 20.8068 33.9391V34.2269C20.8068 34.6488 20.9746 35.0539 21.273 35.3523C21.5713 35.6505 21.9757 35.8185 22.3975 35.8185H23.0972C23.5192 35.8185 23.9243 35.6507 24.2227 35.3523C24.521 35.0539 24.688 34.6488 24.688 34.2269V33.9391L24.6992 33.6263C24.7478 32.8983 24.9626 32.1896 25.3291 31.5555C25.748 30.8309 26.3502 30.229 27.075 29.8105L27.7549 29.4158L27.7592 29.4133L28.0349 29.265C28.6901 28.9421 29.4122 28.7739 30.1453 28.7739C30.9651 28.7739 31.7701 28.9859 32.4841 29.3874H32.4849L32.7236 29.5141L32.7701 29.5399C33.1352 29.7504 33.5687 29.8073 33.9757 29.6985C34.3828 29.5896 34.7305 29.3238 34.9417 28.9591L35.2821 28.3542L35.2898 28.3413C35.5004 27.9763 35.5572 27.5428 35.4484 27.1357C35.34 26.7305 35.0762 26.3847 34.7142 26.1732L34.5195 26.0698C34.5039 26.0614 34.4882 26.0527 34.4729 26.0439C33.7446 25.6234 33.1401 25.0176 32.721 24.2886C32.302 23.5594 32.0826 22.7322 32.0859 21.8912V21.1019C32.0838 20.2632 32.3031 19.4387 32.721 18.7114C33.1357 17.99 33.7316 17.3898 34.4497 16.9699L34.6884 16.8268L34.709 16.8139L34.8409 16.7286C35.1376 16.5151 35.3531 16.2049 35.4484 15.8488C35.5573 15.4416 35.5004 15.0074 35.2898 14.6424V14.6415L34.9408 14.04V14.0391C34.7295 13.6751 34.3824 13.4094 33.9757 13.3006C33.6195 13.2054 33.2428 13.2372 32.9097 13.3877L32.7701 13.4601C32.755 13.4688 32.7391 13.4768 32.7236 13.4851L32.4849 13.6126L32.4841 13.6117C31.77 14.0133 30.9652 14.2261 30.1453 14.2261C29.3076 14.2261 28.4847 14.0055 27.7592 13.5867L27.7549 13.5842L27.0707 13.1869V13.186C26.3479 12.7677 25.7471 12.1675 25.3291 11.4445C24.9103 10.72 24.6889 9.89777 24.688 9.06094V8.77226ZM27.8704 9.05749L27.8738 9.16176C27.89 9.40437 27.9619 9.64069 28.0841 9.852C28.2062 10.0633 28.3748 10.2434 28.577 10.3785L28.6657 10.4337L28.67 10.4363L29.3499 10.8309L29.4421 10.88C29.6605 10.9877 29.901 11.0446 30.1453 11.0446C30.4246 11.0446 30.6989 10.9705 30.9407 10.8309L30.9872 10.8051L31.2259 10.6775C32.3114 10.0673 33.5934 9.90481 34.7978 10.2269C35.9428 10.5331 36.9298 11.2539 37.5708 12.2442L37.6949 12.4458L38.0448 13.0507L38.0457 13.0525L38.1594 13.2601C38.6976 14.3099 38.8283 15.525 38.5222 16.67C38.1976 17.8837 37.4074 18.9194 36.3239 19.5542L36.3248 19.5551L36.0861 19.6981L35.9741 19.7671C35.771 19.9029 35.6016 20.0844 35.4794 20.297C35.3398 20.54 35.2672 20.8156 35.2683 21.0958V21.9042C35.2672 22.1844 35.3398 22.46 35.4794 22.703C35.6175 22.9432 35.8161 23.143 36.0551 23.2829L36.255 23.3889L36.3041 23.4165C37.3981 24.0502 38.1956 25.0922 38.5222 26.3136C38.8475 27.5301 38.6781 28.825 38.0525 29.9174L38.0534 29.9182L37.7035 30.5387C37.7006 30.5438 37.6979 30.5491 37.6949 30.5542C37.0613 31.6482 36.0191 32.4456 34.7978 32.7723C33.5932 33.0944 32.3116 32.9313 31.2259 32.3207V32.3216L30.9872 32.1949L30.9407 32.1682C30.6989 32.0287 30.4245 31.9554 30.1453 31.9554C29.8676 31.9554 29.5943 32.0275 29.3534 32.1656L29.3542 32.1665L28.67 32.5637L28.6657 32.5663C28.4241 32.7058 28.2237 32.9065 28.0841 33.148C27.9444 33.3895 27.8706 33.6635 27.8704 33.9425V34.2269C27.8704 35.4927 27.3677 36.7072 26.4726 37.6023C25.5776 38.4973 24.363 39 23.0972 39H22.3975C21.1318 39 19.918 38.4972 19.023 37.6023C18.1279 36.7072 17.6244 35.4927 17.6244 34.2269V33.9425L17.6209 33.8382C17.6048 33.5956 17.5337 33.3593 17.4115 33.148C17.2719 32.9065 17.0706 32.7058 16.829 32.5663L16.8247 32.5637L16.1414 32.1665V32.1656C15.9005 32.0275 15.6271 31.9554 15.3494 31.9554C15.1052 31.9554 14.8645 32.0115 14.6463 32.1191L14.554 32.1682C14.5386 32.1771 14.5233 32.1865 14.5075 32.1949L14.2688 32.3216L14.268 32.3207C13.1826 32.9308 11.902 33.0942 10.6978 32.7723C9.47646 32.4457 8.43439 31.6482 7.80068 30.5542H7.79981L7.44995 29.9493L7.44909 29.9475C6.81733 28.8523 6.64594 27.5506 6.97255 26.3291C7.27876 25.1843 7.99892 24.1971 8.989 23.5561L9.19064 23.432L9.40866 23.3019L9.43193 23.2881C9.67458 23.1479 9.87568 22.9459 10.0153 22.703C10.155 22.46 10.2284 22.1844 10.2273 21.9042V21.0958L10.223 20.9924C10.2058 20.7509 10.134 20.5158 10.0119 20.3056C9.88978 20.0956 9.72107 19.917 9.51983 19.7826L9.43193 19.7274L9.34489 19.674L9.12257 19.5258C8.06396 18.8887 7.29226 17.8656 6.97255 16.67C6.64606 15.4487 6.81738 14.1476 7.44909 13.0525L7.44995 13.0507L7.79981 12.4458H7.80068L7.9239 12.2442C8.565 11.2538 9.55269 10.5331 10.6978 10.2269C11.9017 9.90505 13.1828 10.0677 14.268 10.6775H14.2688L14.5075 10.8051L14.554 10.8309C14.7958 10.9705 15.0703 11.0446 15.3494 11.0446C15.594 11.0446 15.835 10.9878 16.0535 10.88L16.1448 10.8309L16.8247 10.4363L16.829 10.4337L16.9178 10.3785C17.12 10.2434 17.2893 10.0634 17.4115 9.852C17.5508 9.61102 17.6238 9.33753 17.6244 9.05921V8.77226C17.6245 7.50656 18.128 6.29271 19.023 5.39773C19.918 4.50277 21.1318 4 22.3975 4H23.0972C24.363 4 25.5776 4.50266 26.4726 5.39773C27.3675 6.2927 27.8703 7.50663 27.8704 8.77226V9.05749Z" fill="#A856F7"/>
<path d="M25.9301 21.5006C25.9301 19.7434 24.5057 18.3184 22.7486 18.3182C20.9914 18.3182 19.5663 19.7433 19.5663 21.5006C19.5665 23.2577 20.9915 24.6821 22.7486 24.6821C24.5056 24.6819 25.9299 23.2576 25.9301 21.5006ZM29.1116 21.5006C29.1114 25.0148 26.2629 27.8634 22.7486 27.8636C19.2342 27.8636 16.385 25.015 16.3848 21.5006C16.3848 17.986 19.2341 15.1367 22.7486 15.1367C26.263 15.1369 29.1116 17.9862 29.1116 21.5006Z" fill="#A856F7"/>
</svg>
