<svg width="44" height="44" viewBox="0 0 44 44" fill="none" xmlns="http://www.w3.org/2000/svg">
<path d="M24.7134 32.3212C24.7134 32.0009 24.4489 31.7364 24.1286 31.7364H19.4503C19.13 31.7364 18.8655 32.0009 18.8655 32.3212V35.2451C18.8655 35.5654 19.13 35.8299 19.4503 35.8299H24.1286C24.4489 35.8299 24.7134 35.5654 24.7134 35.2451V32.3212ZM16.0586 11.6783C16.0586 9.06923 18.1972 7 20.7369 7C22.8468 7.00001 24.6397 8.36665 25.2111 10.3139C25.4611 10.258 25.7282 10.2163 25.9999 10.2163C28.9843 10.2163 31.4384 12.4385 31.4384 15.4794C31.4384 18.4715 28.9739 20.6255 26.0584 20.6255H16.7018C14.2162 20.6255 12.082 18.8997 12.082 16.2981C12.082 14.1686 13.5414 12.6896 15.4353 12.1672L15.4694 12.1588C15.4809 12.1564 15.4924 12.1543 15.504 12.1526L16.0831 12.0657C16.0682 11.9398 16.0586 11.8097 16.0586 11.6783ZM25.8829 35.2451C25.8829 36.2114 25.0948 36.9995 24.1286 36.9995H19.4503C18.4841 36.9995 17.696 36.2114 17.696 35.2451V32.3212C17.696 31.355 18.4841 30.5669 19.4503 30.5669H24.1286C25.0948 30.5669 25.8829 31.355 25.8829 32.3212V35.2451ZM17.2282 11.6783C17.2282 11.9028 17.2732 12.1378 17.3337 12.4407C17.3651 12.5976 17.3308 12.7606 17.2389 12.8915C17.1469 13.0225 17.0053 13.11 16.847 13.1337L15.7145 13.3036C14.2343 13.7235 13.2516 14.8125 13.2516 16.2981C13.2516 18.1409 14.7432 19.4559 16.7018 19.4559H26.0584C28.406 19.4559 30.2688 17.7503 30.2688 15.4794C30.2688 13.1403 28.3956 11.3859 25.9999 11.3859C25.7261 11.3859 25.44 11.4546 25.0877 11.5533L24.9325 11.5973C24.7705 11.6436 24.5963 11.6177 24.4547 11.5263C24.3131 11.4349 24.2179 11.2868 24.1933 11.1201C23.9437 9.42271 22.4974 8.16958 20.7369 8.16957C18.8322 8.16957 17.2282 9.72601 17.2282 11.6783Z" fill="#A856F7" stroke="#A856F7" stroke-miterlimit="10" stroke-linecap="round" stroke-linejoin="round"/>
<path d="M13.0174 32.3219C13.0174 32.0016 12.7529 31.7371 12.4326 31.7371H7.75436C7.43406 31.7371 7.16957 32.0016 7.16957 32.3219V35.2458C7.16957 35.5661 7.43406 35.8306 7.75436 35.8306H12.4326C12.7529 35.8306 13.0174 35.5661 13.0174 35.2458V32.3219ZM24.7131 32.3219C24.7131 32.0016 24.4486 31.7371 24.1283 31.7371H19.4501C19.1298 31.7371 18.8653 32.0016 18.8653 32.3219V35.2458C18.8653 35.5661 19.1298 35.8306 19.4501 35.8306H24.1283C24.4486 35.8306 24.7131 35.5661 24.7131 35.2458V32.3219ZM36.4088 32.3219C36.4088 32.0016 36.1443 31.7371 35.824 31.7371H31.1458C30.8255 31.7371 30.561 32.0016 30.561 32.3219V35.2458C30.561 35.5661 30.8255 35.8306 31.1458 35.8306H35.824C36.1443 35.8306 36.4088 35.5661 36.4088 35.2458V32.3219ZM32.9001 29.3979V25.8892H22.374V29.3979C22.374 29.7209 22.1122 29.9827 21.7892 29.9827C21.4662 29.9827 21.2044 29.7209 21.2044 29.3979V25.8892H10.6783V29.3979C10.6783 29.7209 10.4165 29.9827 10.0935 29.9827C9.77053 29.9827 9.50871 29.7209 9.50871 29.3979V25.3044C9.50871 24.9815 9.77053 24.7196 10.0935 24.7196H21.2044V21.7957C21.2044 21.4728 21.4662 21.2109 21.7892 21.2109C22.1122 21.2109 22.374 21.4728 22.374 21.7957V24.7196H33.4849C33.8079 24.7196 34.0697 24.9815 34.0697 25.3044V29.3979C34.0697 29.7209 33.8079 29.9827 33.4849 29.9827C33.1619 29.9827 32.9001 29.7209 32.9001 29.3979ZM14.187 35.2458C14.187 36.212 13.3989 37.0001 12.4326 37.0001H7.75436C6.78812 37.0001 6 36.212 6 35.2458V32.3219C6 31.3556 6.78812 30.5675 7.75436 30.5675H12.4326C13.3989 30.5675 14.187 31.3556 14.187 32.3219V35.2458ZM25.8827 35.2458C25.8827 36.212 25.0946 37.0001 24.1283 37.0001H19.4501C18.4838 37.0001 17.6957 36.212 17.6957 35.2458V32.3219C17.6957 31.3556 18.4838 30.5675 19.4501 30.5675H24.1283C25.0946 30.5675 25.8827 31.3556 25.8827 32.3219V35.2458ZM37.5784 35.2458C37.5784 36.212 36.7903 37.0001 35.824 37.0001H31.1458C30.1795 37.0001 29.3914 36.212 29.3914 35.2458V32.3219C29.3914 31.3556 30.1795 30.5675 31.1458 30.5675H35.824C36.7903 30.5675 37.5784 31.3556 37.5784 32.3219V35.2458Z" fill="#A856F7" stroke="#A856F7" stroke-miterlimit="10" stroke-linecap="round" stroke-linejoin="round"/>
</svg>
