<svg width="44" height="44" viewBox="0 0 44 44" fill="none" xmlns="http://www.w3.org/2000/svg">
<path d="M23.8954 15.8923C24.5828 15.3317 25.597 15.372 26.2377 16.0127C26.9206 16.696 26.9206 17.8034 26.2377 18.4867L19.2375 25.487C18.5967 26.1277 17.5826 26.168 16.8952 25.6074L16.7625 25.487L13.2628 21.9873L13.1425 21.8546C12.5816 21.1673 12.622 20.1532 13.2628 19.5124C13.9035 18.8719 14.9169 18.8316 15.6042 19.392L15.7369 19.5124L17.9995 21.7741L23.7627 16.0127L23.8954 15.8923Z" fill="#3C83F6"/>
<path d="M32 20.7494C31.9998 13.9841 26.5147 8.49965 19.7494 8.49965C12.9842 8.4999 7.4999 13.9842 7.49965 20.7494C7.49965 27.5147 12.9841 32.9998 19.7494 33C26.5149 33 32 27.5149 32 20.7494ZM35.4997 20.7494C35.4997 29.4479 28.4479 36.4997 19.7494 36.4997C11.0511 36.4994 4 29.4477 4 20.7494C4.00025 12.0512 11.0512 5.00025 19.7494 5C28.4477 5 35.4994 12.0511 35.4997 20.7494Z" fill="#3C83F6"/>
<path d="M28.4873 29.4892C29.128 28.8486 30.1413 28.8083 30.8286 29.3689L30.9613 29.4892L38.4867 37.0137L38.6071 37.1464C39.1678 37.8337 39.1274 38.8479 38.4867 39.4886C37.846 40.1294 36.8318 40.1697 36.1444 39.609L36.0117 39.4886L28.4873 31.9633L28.3669 31.8306C27.8063 31.1432 27.8466 30.1299 28.4873 29.4892Z" fill="#3C83F6"/>
</svg>
