<svg width="44" height="44" viewBox="0 0 44 44" fill="none" xmlns="http://www.w3.org/2000/svg">
<path d="M38.5643 38.1286H36.5464V20.2953C36.5464 20.055 36.351 19.8596 36.1107 19.8596H32.1162C31.8758 19.8596 31.6805 20.055 31.6805 20.2953V38.1286H29.1666V28.1907C29.1666 27.9503 28.9713 27.755 28.7309 27.755H24.7364C24.4961 27.755 24.3007 27.9503 24.3007 28.1907V38.1286H21.7868V25.3812C21.7868 25.1409 21.5915 24.9455 21.3511 24.9455H17.3566C17.1163 24.9455 16.921 25.1409 16.921 25.3812V38.1286H14.4071V32.1518C14.4071 31.9114 14.2117 31.7161 13.9714 31.7161H9.97687C9.73651 31.7161 9.54118 31.9114 9.54118 32.1518V38.1286H7.52324C7.28288 38.1286 7.08755 38.324 7.08755 38.5643C7.08755 38.8047 7.28288 39 7.52324 39H38.5643C38.8047 39 39 38.8047 39 38.5643C39 38.324 38.8047 38.1286 38.5643 38.1286ZM32.5511 20.731H35.6743V38.1286H32.5511V20.731ZM25.1721 28.6263H28.2952V38.1286H25.1721V28.6263ZM17.7923 25.8169H20.9155V38.1286H17.7923V25.8169ZM10.4126 32.5874H13.5357V38.1286H10.4126V32.5874ZM24.3712 21.3606L31.0226 15.0504H29.2167C28.9763 15.0504 28.781 14.8551 28.781 14.6147C28.781 14.3744 28.9763 14.179 29.2167 14.179H32.1155C32.3558 14.179 32.5511 14.3744 32.5511 14.6147V17.5135C32.5511 17.7538 32.3558 17.9492 32.1155 17.9492C31.8751 17.9492 31.6798 17.7538 31.6798 17.5135V15.6291L24.7306 22.2218C24.6615 22.2874 24.5729 22.3286 24.4781 22.339C24.3834 22.3493 24.2879 22.3283 24.2063 22.2791L18.2629 18.7007L10.9898 26.1669C10.9493 26.2086 10.9007 26.2418 10.8471 26.2643C10.7934 26.2869 10.7358 26.2985 10.6776 26.2983C10.564 26.2983 10.4549 26.254 10.3733 26.1749C10.2907 26.0943 10.2434 25.9841 10.2419 25.8687C10.2404 25.7532 10.2848 25.6419 10.3654 25.5591L17.8795 17.8439C18.0203 17.6987 18.2433 17.6703 18.4161 17.7749L24.3712 21.3606ZM11.1663 17.4038C11.2483 17.4866 11.3594 17.5331 11.4756 17.5331C11.5918 17.5331 11.7036 17.4866 11.785 17.4038L13.9314 15.2363H17.3559C18.2353 15.2363 18.9512 14.5211 18.9512 13.641V5.59533C18.9512 4.71598 18.236 4 17.3559 4H5.59533C4.71525 4 4 4.71525 4 5.59533V13.641C4 14.5203 4.71525 15.2363 5.59533 15.2363H9.01981L11.1663 17.4038ZM4.87137 13.641V5.59533C4.87137 5.19595 5.19595 4.87137 5.59533 4.87137H17.3566C17.756 4.87137 18.0806 5.19595 18.0806 5.59533V13.641C18.0806 14.0404 17.756 14.3649 17.3566 14.3649H13.7463C13.7194 14.3649 13.6925 14.3678 13.6671 14.3729C13.6664 14.3729 13.6657 14.3729 13.6649 14.3737C13.6381 14.3787 13.6127 14.3867 13.588 14.3969C13.5865 14.3976 13.5851 14.3976 13.5836 14.3983C13.5582 14.4085 13.5342 14.4216 13.5117 14.4368C13.511 14.4376 13.5095 14.4383 13.5081 14.439C13.4841 14.455 13.4616 14.4739 13.4413 14.4942L11.4756 16.4795L9.51068 14.4949C9.49035 14.4746 9.46712 14.455 9.44315 14.439C9.4417 14.4383 9.44098 14.4376 9.43952 14.4368C9.41701 14.4223 9.39305 14.4092 9.36763 14.3983C9.36618 14.3976 9.36473 14.3969 9.36328 14.3969C9.33859 14.3867 9.31317 14.3795 9.28703 14.3737C9.28631 14.3737 9.28485 14.3737 9.28413 14.3729C9.25871 14.3678 9.23257 14.3657 9.20571 14.3649H5.59533C5.19595 14.3649 4.87137 14.0396 4.87137 13.641ZM11.5352 12.4167C11.5439 12.3267 11.549 12.2352 11.549 12.1444C11.549 11.0683 10.9288 10.1344 10.027 9.6806C10.4024 9.33786 10.6384 8.84481 10.6384 8.29803C10.6384 7.26618 9.79896 6.42604 8.76639 6.42604C7.73382 6.42604 6.89512 7.26618 6.89512 8.29803C6.89512 8.84481 7.13112 9.33786 7.50654 9.6806C6.60539 10.1344 5.98454 11.0683 5.98454 12.1444C5.98454 12.2352 5.9889 12.3267 5.99834 12.4167C6.00897 12.5243 6.05923 12.6241 6.13935 12.6967C6.21947 12.7693 6.32372 12.8095 6.43185 12.8095H11.1017C11.326 12.8095 11.5134 12.6396 11.5352 12.4167ZM8.76712 7.29813C9.31898 7.29813 9.76774 7.74689 9.76774 8.29875C9.76774 8.85062 9.31898 9.29938 8.76712 9.29938C8.21525 9.29938 7.76649 8.85062 7.76649 8.29875C7.76649 7.74689 8.21525 7.29813 8.76712 7.29813ZM6.86753 11.9382C6.97064 10.9949 7.7723 10.2593 8.7417 10.2593H8.7918C9.76193 10.2593 10.5629 10.9956 10.666 11.9382H6.86753ZM12.1763 9.41193C12.1763 9.17158 12.3717 8.97624 12.612 8.97624H13.9227V7.66556C13.9227 7.42521 14.118 7.22988 14.3584 7.22988C14.5988 7.22988 14.7941 7.42521 14.7941 7.66556V8.97624H16.1048C16.3451 8.97624 16.5405 9.17158 16.5405 9.41193C16.5405 9.65228 16.3451 9.84761 16.1048 9.84761H14.7941V11.1583C14.7941 11.3987 14.5988 11.594 14.3584 11.594C14.118 11.594 13.9227 11.3987 13.9227 11.1583V9.84761H12.612C12.3717 9.84761 12.1763 9.65228 12.1763 9.41193Z" fill="#A856F7" stroke="#A856F7" stroke-width="0.8"/>
</svg>
