<svg width="34" height="32" viewBox="0 0 34 32" fill="none" xmlns="http://www.w3.org/2000/svg">
<path fill-rule="evenodd" clip-rule="evenodd" d="M1 4.67609C1 4.00832 1.45212 3.33565 2.35524 2.78111C4.05584 1.73695 7.47819 1 11.4286 1C15.3792 1 18.8014 1.73695 20.502 2.78111C21.4052 3.33565 21.8572 4.00832 21.8572 4.67609V16.9337C22.1696 17.1288 22.4655 17.3491 22.7419 17.5924C23.3131 17.4215 23.9062 17.3349 24.5024 17.3354C27.5415 17.3354 30.0616 19.5485 30.5425 22.4509C32.2738 23.0736 33.4623 24.731 33.4623 26.5961C33.4623 29.0177 31.4802 31 29.057 31H13.5683C11.4542 31 9.67588 29.4912 9.25655 27.4981C6.06732 27.274 3.43749 26.5574 2.11295 25.6334C1.36808 25.1139 1 24.5053 1 23.8968V4.67609ZM20.8101 4.67609C20.8101 4.45573 20.6742 4.25624 20.4669 4.05807C20.1758 3.77978 19.7479 3.5263 19.214 3.29448C17.4591 2.53253 14.6247 2.04717 11.4286 2.04717C8.23268 2.04717 5.39825 2.53253 3.64326 3.29448C3.10933 3.5263 2.68149 3.77978 2.39038 4.05807C2.18311 4.25624 2.04717 4.45573 2.04717 4.67609C2.04724 4.89639 2.18311 5.09594 2.39038 5.29405C2.68149 5.57241 3.10939 5.82589 3.64326 6.0577C5.39825 6.81972 8.23268 7.30508 11.4286 7.30508C14.6247 7.30508 17.4591 6.81972 19.214 6.0577C19.7479 5.82589 20.1758 5.57241 20.4668 5.29405C20.6742 5.09588 20.8101 4.89646 20.8101 4.67609ZM20.8101 11.083V6.36479C20.7102 6.4377 20.6075 6.5065 20.502 6.57101C18.8014 7.61524 15.3792 8.35225 11.4286 8.35225C7.47819 8.35225 4.05584 7.61524 2.35524 6.57101C2.2498 6.50646 2.14703 6.43767 2.04717 6.36479V11.083C2.04717 11.3034 2.18311 11.5029 2.39038 11.701C2.68149 11.9793 3.10933 12.2328 3.64326 12.4646C5.39825 13.2266 8.23268 13.7119 11.4286 13.7119C14.6247 13.7119 17.4591 13.2266 19.214 12.4646C19.7479 12.2328 20.1758 11.9793 20.4669 11.701C20.6742 11.5029 20.8101 11.3034 20.8101 11.083ZM20.8101 16.4011V12.7717C20.7102 12.8446 20.6075 12.9135 20.502 12.978C18.8014 14.0222 15.3792 14.7591 11.4286 14.7591C7.47819 14.7591 4.05584 14.0222 2.35524 12.978C2.24979 12.9134 2.14701 12.8446 2.04717 12.7717V17.4899C2.04717 17.7103 2.18311 17.9098 2.39038 18.108C2.68149 18.3863 3.10939 18.6398 3.64326 18.8715C5.39825 19.6336 8.23268 20.1189 11.4286 20.1189C11.6431 20.1189 11.8558 20.1167 12.0668 20.1124C13.0667 17.6519 15.4806 15.917 18.3 15.917C19.1871 15.917 20.0343 16.0888 20.8101 16.4011ZM9.16571 26.4417C9.22297 24.8002 10.1898 23.3795 11.5742 22.6707V22.6442C11.5742 22.1359 11.6306 21.6407 11.7374 21.1646C11.6349 21.1656 11.5319 21.1661 11.4286 21.1661C7.47819 21.1661 4.05584 20.4291 2.35524 19.3849C2.24979 19.3204 2.14701 19.2515 2.04717 19.1786V23.8968C2.04717 24.0868 2.15104 24.2621 2.31204 24.4355C2.54 24.681 2.87705 24.907 3.29946 25.1184C4.61706 25.7776 6.70878 26.2562 9.16571 26.4417ZM4.17162 15.6099C4.62347 15.6099 4.98972 15.9762 4.98972 16.428C4.98972 16.8798 4.62347 17.2461 4.17162 17.2461C3.71983 17.2461 3.35352 16.8798 3.35352 16.428C3.35352 15.9762 3.71983 15.6099 4.17162 15.6099ZM4.17162 9.20609C4.62347 9.20609 4.98972 9.5724 4.98972 10.0243C4.98972 10.476 4.62347 10.8423 4.17162 10.8423C3.71983 10.8423 3.35352 10.476 3.35352 10.0243C3.35352 9.5724 3.71983 9.20609 4.17162 9.20609ZM29.057 29.9528C30.9041 29.9528 32.4151 28.442 32.4151 26.5961C32.4151 25.0837 31.3895 23.7511 29.9318 23.3555C29.8301 23.3279 29.7391 23.2703 29.6707 23.1902C29.6023 23.1101 29.5597 23.0112 29.5484 22.9065C29.2733 20.3624 27.1198 18.3826 24.5024 18.3826C23.9186 18.3819 23.3392 18.4821 22.7895 18.6787C22.6975 18.7117 22.598 18.7182 22.5025 18.6976C22.4069 18.677 22.319 18.63 22.2488 18.562C21.2268 17.5726 19.8338 16.9642 18.3 16.9642C15.1634 16.9642 12.6214 19.5075 12.6214 22.6442C12.6214 22.7535 12.6238 22.8628 12.6301 22.9709C12.6364 23.0797 12.6086 23.1878 12.5505 23.2801C12.4924 23.3724 12.407 23.4443 12.3061 23.4856C11.081 23.9883 10.2102 25.195 10.2102 26.5961C10.2102 28.442 11.7213 29.9528 13.5683 29.9528H29.057ZM4.17162 22.0611C4.62347 22.0611 4.98972 22.4273 4.98972 22.8791C4.98972 23.331 4.62347 23.6973 4.17162 23.6973C3.71983 23.6973 3.35352 23.331 3.35352 22.8791C3.35352 22.4273 3.71983 22.0611 4.17162 22.0611Z" fill="#A856F7" stroke="#A856F7" stroke-width="0.8"/>
</svg>
