<svg width="33" height="35" viewBox="0 0 33 35" fill="none" xmlns="http://www.w3.org/2000/svg">
<path d="M18.0532 4.77226C18.0531 4.3505 17.8861 3.94597 17.5879 3.6477C17.2895 3.34935 16.8844 3.1815 16.4625 3.1815H15.7627C15.3409 3.1815 14.9365 3.34945 14.6382 3.6477C14.3399 3.94598 14.1721 4.35044 14.172 4.77226V5.06094C14.1711 5.89777 13.9497 6.71997 13.5309 7.44448C13.1127 8.16776 12.5116 8.76771 11.7884 9.18604L11.7893 9.1869L11.1051 9.58415L11.1016 9.58674C10.3761 10.0056 9.55245 10.2261 8.71466 10.2261C7.89457 10.2261 7.08926 10.0136 6.37506 9.61173V9.61259L6.13636 9.48505C6.12106 9.47688 6.10573 9.46873 6.09069 9.46006C5.72563 9.24948 5.29142 9.19178 4.88427 9.30064C4.5282 9.39591 4.21795 9.61163 4.00445 9.90816L3.91914 10.04L3.56927 10.6449L3.56841 10.6441C3.35876 11.0087 3.3029 11.4424 3.41158 11.8488C3.50689 12.2049 3.72246 12.5151 4.0191 12.7286L4.15094 12.8139L4.23625 12.8673L4.47495 13.0259H4.47409C5.15639 13.4395 5.72617 14.0156 6.12775 14.7063C6.54639 15.4263 6.76902 16.244 6.77404 17.0769V17.8912L6.76457 18.2058C6.71918 18.9374 6.50564 19.6505 6.13895 20.2886C5.72434 21.0099 5.12822 21.6094 4.41032 22.0292L4.41118 22.0301L4.17248 22.1732C4.16552 22.1773 4.15797 22.1812 4.15094 22.1852C3.78629 22.3964 3.52047 22.7441 3.41158 23.1512C3.30295 23.5575 3.35898 23.9905 3.56841 24.3551H3.56927L3.91827 24.9591H3.91914C4.1303 25.3237 4.47729 25.5896 4.88427 25.6985C5.29142 25.8074 5.72563 25.7505 6.09069 25.5399L6.13636 25.5141L6.37506 25.3874C7.08919 24.9856 7.89467 24.7739 8.71466 24.7739C9.44774 24.7739 10.17 24.9422 10.825 25.265L11.1016 25.4133L11.1051 25.4158L11.785 25.8105H11.7859C12.5105 26.229 13.1121 26.8311 13.5309 27.5555C13.9497 28.2801 14.1711 29.1021 14.172 29.9391V30.2269C14.172 30.6488 14.3398 31.0539 14.6382 31.3523C14.9365 31.6505 15.3409 31.8185 15.7627 31.8185H16.4625C16.8844 31.8185 17.2895 31.6507 17.5879 31.3523C17.8862 31.0539 18.0532 30.6488 18.0532 30.2269V29.9391L18.0644 29.6263C18.113 28.8983 18.3278 28.1896 18.6943 27.5555C19.1132 26.8309 19.7154 26.229 20.4402 25.8105L21.1201 25.4158L21.1244 25.4133L21.4002 25.265C22.0553 24.9421 22.7774 24.7739 23.5106 24.7739C24.3303 24.7739 25.1353 24.9859 25.8493 25.3874H25.8501L26.0888 25.5141L26.1354 25.5399C26.5004 25.7504 26.9339 25.8073 27.3409 25.6985C27.748 25.5896 28.0957 25.3238 28.3069 24.9591L28.6473 24.3542L28.6551 24.3413C28.8656 23.9763 28.9224 23.5428 28.8136 23.1357C28.7053 22.7305 28.4415 22.3847 28.0794 22.1732L27.8847 22.0698C27.8691 22.0614 27.8535 22.0527 27.8382 22.0439C27.1099 21.6234 26.5053 21.0176 26.0863 20.2886C25.6672 19.5594 25.4478 18.7322 25.4512 17.8912V17.1019C25.449 16.2632 25.6683 15.4387 26.0863 14.7114C26.5009 13.99 27.0969 13.3898 27.8149 12.9699L28.0536 12.8268L28.0743 12.8139L28.2061 12.7286C28.5028 12.5151 28.7183 12.2049 28.8136 11.8488C28.9225 11.4416 28.8657 11.0074 28.6551 10.6424V10.6415L28.3061 10.04V10.0391C28.0948 9.67506 27.7476 9.4094 27.3409 9.30064C26.9848 9.2054 26.6081 9.23723 26.275 9.38768L26.1354 9.46006C26.1202 9.46883 26.1043 9.4768 26.0888 9.48505L25.8501 9.61259L25.8493 9.61173C25.1352 10.0133 24.3304 10.2261 23.5106 10.2261C22.6729 10.2261 21.8499 10.0055 21.1244 9.58674L21.1201 9.58415L20.4359 9.1869V9.18604C19.7131 8.76771 19.1124 8.16753 18.6943 7.44448C18.2756 6.71997 18.0541 5.89777 18.0532 5.06094V4.77226ZM21.2356 5.05749L21.239 5.16176C21.2552 5.40437 21.3272 5.64069 21.4493 5.852C21.5715 6.06326 21.7401 6.24343 21.9422 6.37852L22.031 6.43367L22.0353 6.43626L22.7152 6.83093L22.8074 6.88005C23.0257 6.98766 23.2662 7.04464 23.5106 7.04464C23.7898 7.04462 24.0641 6.97055 24.3059 6.83093L24.3525 6.80508L24.5912 6.67754C25.6767 6.06729 26.9587 5.90481 28.163 6.22686C29.308 6.53307 30.295 7.25388 30.9361 8.24417L31.0602 8.44581L31.41 9.05074L31.4109 9.05247L31.5246 9.26014C32.0628 10.3099 32.1935 11.525 31.8874 12.67C31.5629 13.8837 30.7726 14.9194 29.6891 15.5542L29.69 15.5551L29.4513 15.6981L29.3393 15.7671C29.1362 15.9029 28.9668 16.0844 28.8447 16.297C28.705 16.54 28.6324 16.8156 28.6335 17.0958V17.9042C28.6325 18.1844 28.705 18.46 28.8447 18.703C28.9827 18.9432 29.1813 19.143 29.4203 19.2829L29.6202 19.3889L29.6693 19.4165C30.7633 20.0502 31.5608 21.0922 31.8874 22.3136C32.2127 23.5301 32.0433 24.825 31.4178 25.9174L31.4186 25.9182L31.0688 26.5387C31.0659 26.5438 31.0631 26.5491 31.0602 26.5542C30.4265 27.6482 29.3843 28.4456 28.163 28.7723C26.9584 29.0944 25.6768 28.9313 24.5912 28.3207V28.3216L24.3525 28.1949L24.3059 28.1682C24.0641 28.0287 23.7897 27.9554 23.5106 27.9554C23.2328 27.9554 22.9595 28.0275 22.7186 28.1656L22.7195 28.1665L22.0353 28.5637L22.031 28.5663C21.7894 28.7058 21.5889 28.9065 21.4493 29.148C21.3097 29.3895 21.2359 29.6635 21.2356 29.9425V30.2269C21.2356 31.4927 20.7329 32.7072 19.8379 33.6023C18.9428 34.4973 17.7283 35 16.4625 35H15.7627C14.4971 35 13.2832 34.4972 12.3882 33.6023C11.4931 32.7072 10.9896 31.4927 10.9896 30.2269V29.9425L10.9862 29.8382C10.97 29.5956 10.8989 29.3593 10.7768 29.148C10.6372 28.9065 10.4359 28.7058 10.1942 28.5663L10.1899 28.5637L9.50659 28.1665V28.1656C9.26576 28.0275 8.99232 27.9554 8.71466 27.9554C8.47039 27.9554 8.22976 28.0115 8.01149 28.1191L7.91928 28.1682C7.90384 28.1771 7.88849 28.1865 7.87275 28.1949L7.63405 28.3216L7.63319 28.3207C6.5478 28.9308 5.26726 29.0942 4.06304 28.7723C2.84169 28.4457 1.79963 27.6482 1.16591 26.5542H1.16505L0.815186 25.9493L0.814324 25.9475C0.182563 24.8523 0.0111789 23.5506 0.337788 22.3291C0.643991 21.1843 1.36415 20.1971 2.35423 19.5561L2.55588 19.432L2.7739 19.3019L2.79716 19.2881C3.03981 19.1479 3.24092 18.9459 3.38055 18.703C3.5202 18.46 3.59361 18.1844 3.59254 17.9042V17.0958L3.58823 16.9924C3.57103 16.7509 3.49927 16.5158 3.37711 16.3056C3.25501 16.0956 3.0863 15.917 2.88506 15.7826L2.79716 15.7274L2.71013 15.674L2.4878 15.5258C1.42919 14.8887 0.657494 13.8656 0.337788 12.67C0.0112915 11.4487 0.182617 10.1476 0.814324 9.05247L0.815186 9.05074L1.16505 8.44581H1.16591L1.28914 8.24417C1.93023 7.25378 2.91792 6.53306 4.06304 6.22686C5.26698 5.90505 6.54799 6.06775 7.63319 6.67754H7.63405L7.87275 6.80508L7.91928 6.83093C8.16104 6.97051 8.43551 7.04458 8.71466 7.04464C8.9592 7.04464 9.20021 6.98782 9.41869 6.88005L9.51004 6.83093L10.1899 6.43626L10.1942 6.43367L10.283 6.37852C10.4853 6.24336 10.6546 6.06342 10.7768 5.852C10.9161 5.61102 10.989 5.33753 10.9896 5.05921V4.77226C10.9897 3.50656 11.4932 2.29271 12.3882 1.39773C13.2833 0.50277 14.497 0 15.7627 0H16.4625C17.7283 0 18.9428 0.502663 19.8379 1.39773C20.7328 2.2927 21.2355 3.50663 21.2356 4.77226V5.05749Z" fill="#A856F7"/>
<path d="M11.2858 13.1173C11.4913 12.9496 11.7946 12.9618 11.9862 13.1534L14.0792 15.2464L14.1153 15.2859C14.283 15.4914 14.2708 15.7947 14.0792 15.9863C13.8876 16.1779 13.5843 16.1901 13.3788 16.0224L13.3393 15.9863L11.6162 14.2633L9.89317 15.9863C9.68883 16.1907 9.3576 16.1907 9.15326 15.9863C8.94891 15.782 8.94891 15.4507 9.15326 15.2464L11.2463 13.1534L11.2858 13.1173Z" fill="#A856F7" stroke="#A856F7" stroke-linecap="round" stroke-linejoin="round"/>
<path d="M11.0938 20.5V13.5233C11.0938 13.2343 11.328 13 11.617 13C11.906 13 12.1403 13.2343 12.1403 13.5233V20.5L12.1443 20.5865C12.1642 20.786 12.2527 20.9735 12.3958 21.1166C12.5593 21.2801 12.7811 21.3721 13.0123 21.3721H17.1984C17.4874 21.3721 17.7216 21.6063 17.7216 21.8953C17.7216 22.1843 17.4874 22.4186 17.1984 22.4186H13.0123C12.5035 22.4186 12.0156 22.2163 11.6558 21.8565C11.341 21.5416 11.1469 21.1287 11.1033 20.6894L11.0938 20.5Z" fill="#A856F7" stroke="#A856F7" stroke-linecap="round" stroke-linejoin="round"/>
<path d="M23.107 19.4346C23.3113 19.2303 23.6426 19.2303 23.8469 19.4346C24.0512 19.639 24.0512 19.9702 23.8469 20.1745L21.7539 22.2676C21.5495 22.4719 21.2183 22.4719 21.014 22.2676L18.921 20.1745L18.8848 20.135C18.7172 19.9295 18.7294 19.6262 18.921 19.4346C19.1125 19.243 19.4158 19.2309 19.6214 19.3985L19.6609 19.4346L21.3839 21.1577L23.107 19.4346Z" fill="#A856F7" stroke="#A856F7" stroke-linecap="round" stroke-linejoin="round"/>
<path d="M20.8607 21.8953V14.9186C20.8607 14.6873 20.7687 14.4656 20.6052 14.302C20.4622 14.159 20.2746 14.0705 20.0751 14.0506L19.9886 14.0465H15.8026C15.5136 14.0465 15.2793 13.8122 15.2793 13.5233C15.2793 13.2343 15.5136 13 15.8026 13H19.9886L20.178 13.0095C20.6173 13.0531 21.0302 13.2472 21.3451 13.5621C21.7049 13.9219 21.9072 14.4098 21.9072 14.9186V21.8953C21.9072 22.1843 21.6729 22.4186 21.3839 22.4186C21.0949 22.4186 20.8607 22.1843 20.8607 21.8953Z" fill="#A856F7" stroke="#A856F7" stroke-linecap="round" stroke-linejoin="round"/>
</svg>
