<svg width="45" height="44" viewBox="0 0 45 44" fill="none" xmlns="http://www.w3.org/2000/svg">
<path d="M24.686 8.77226C24.6859 8.3505 24.5189 7.94597 24.2207 7.6477C23.9223 7.34935 23.5172 7.1815 23.0953 7.1815H22.3956C21.9737 7.1815 21.5693 7.34945 21.271 7.6477C20.9727 7.94598 20.8049 8.35044 20.8048 8.77226V9.06094C20.8039 9.89777 20.5825 10.72 20.1637 11.4445C19.7455 12.1678 19.1444 12.7677 18.4213 13.186L18.4221 13.1869L17.7379 13.5842L17.7345 13.5867C17.0089 14.0056 16.1853 14.2261 15.3475 14.2261C14.5274 14.2261 13.7221 14.0136 13.0079 13.6117V13.6126L12.7692 13.4851C12.7539 13.4769 12.7385 13.4687 12.7235 13.4601C12.3584 13.2495 11.9242 13.1918 11.5171 13.3006C11.161 13.3959 10.8508 13.6116 10.6373 13.9082L10.5519 14.04L10.2021 14.6449L10.2012 14.6441C9.99157 15.0087 9.93572 15.4424 10.0444 15.8488C10.1397 16.2049 10.3553 16.5151 10.6519 16.7286L10.7838 16.8139L10.8691 16.8673L11.1078 17.0259H11.1069C11.7892 17.4395 12.359 18.0156 12.7606 18.7063C13.1792 19.4263 13.4018 20.244 13.4069 21.0769V21.8912L13.3974 22.2058C13.352 22.9374 13.1385 23.6505 12.7718 24.2886C12.3572 25.0099 11.761 25.6094 11.0431 26.0292L11.044 26.0301L10.8053 26.1732C10.7983 26.1773 10.7908 26.1812 10.7838 26.1852C10.4191 26.3964 10.1533 26.7441 10.0444 27.1512C9.93576 27.5575 9.99179 27.9905 10.2012 28.3551H10.2021L10.5511 28.9591H10.5519C10.7631 29.3237 11.1101 29.5896 11.5171 29.6985C11.9242 29.8074 12.3584 29.7505 12.7235 29.5399L12.7692 29.5141L13.0079 29.3874C13.722 28.9856 14.5275 28.7739 15.3475 28.7739C16.0806 28.7739 16.8028 28.9422 17.4578 29.265L17.7345 29.4133L17.7379 29.4158L18.4178 29.8105H18.4187C19.1433 30.229 19.7449 30.8311 20.1637 31.5555C20.5825 32.2801 20.8039 33.1021 20.8048 33.9391V34.2269C20.8048 34.6488 20.9726 35.0539 21.271 35.3523C21.5693 35.6505 21.9738 35.8185 22.3956 35.8185H23.0953C23.5172 35.8185 23.9223 35.6507 24.2207 35.3523C24.519 35.0539 24.686 34.6488 24.686 34.2269V33.9391L24.6972 33.6263C24.7458 32.8983 24.9607 32.1896 25.3272 31.5555C25.746 30.8309 26.3482 30.229 27.073 29.8105L27.7529 29.4158L27.7572 29.4133L28.033 29.265C28.6881 28.9421 29.4102 28.7739 30.1434 28.7739C30.9631 28.7739 31.7681 28.9859 32.4821 29.3874H32.483L32.7217 29.5141L32.7682 29.5399C33.1332 29.7504 33.5667 29.8073 33.9738 29.6985C34.3808 29.5896 34.7285 29.3238 34.9398 28.9591L35.2801 28.3542L35.2879 28.3413C35.4984 27.9763 35.5552 27.5428 35.4464 27.1357C35.3381 26.7305 35.0743 26.3847 34.7123 26.1732L34.5175 26.0698C34.5019 26.0614 34.4863 26.0527 34.471 26.0439C33.7427 25.6234 33.1381 25.0176 32.7191 24.2886C32.3 23.5594 32.0806 22.7322 32.084 21.8912V21.1019C32.0818 20.2632 32.3011 19.4387 32.7191 18.7114C33.1337 17.99 33.7297 17.3898 34.4477 16.9699L34.6864 16.8268L34.7071 16.8139L34.8389 16.7286C35.1356 16.5151 35.3511 16.2049 35.4464 15.8488C35.5553 15.4416 35.4985 15.0074 35.2879 14.6424V14.6415L34.9389 14.04V14.0391C34.7276 13.6751 34.3805 13.4094 33.9738 13.3006C33.6176 13.2054 33.2409 13.2372 32.9078 13.3877L32.7682 13.4601C32.753 13.4688 32.7371 13.4768 32.7217 13.4851L32.483 13.6126L32.4821 13.6117C31.768 14.0133 30.9632 14.2261 30.1434 14.2261C29.3057 14.2261 28.4827 14.0055 27.7572 13.5867L27.7529 13.5842L27.0687 13.1869V13.186C26.3459 12.7677 25.7452 12.1675 25.3272 11.4445C24.9084 10.72 24.687 9.89777 24.686 9.06094V8.77226ZM27.8684 9.05749L27.8718 9.16176C27.8881 9.40437 27.96 9.64069 28.0821 9.852C28.2043 10.0633 28.3729 10.2434 28.575 10.3785L28.6638 10.4337L28.6681 10.4363L29.348 10.8309L29.4402 10.88C29.6585 10.9877 29.899 11.0446 30.1434 11.0446C30.4226 11.0446 30.6969 10.9705 30.9387 10.8309L30.9853 10.8051L31.224 10.6775C32.3095 10.0673 33.5915 9.90481 34.7958 10.2269C35.9409 10.5331 36.9278 11.2539 37.5689 12.2442L37.693 12.4458L38.0428 13.0507L38.0437 13.0525L38.1574 13.2601C38.6956 14.3099 38.8263 15.525 38.5202 16.67C38.1957 17.8837 37.4054 18.9194 36.322 19.5542L36.3228 19.5551L36.0841 19.6981L35.9721 19.7671C35.7691 19.9029 35.5997 20.0844 35.4775 20.297C35.3379 20.54 35.2652 20.8156 35.2663 21.0958V21.9042C35.2653 22.1844 35.3378 22.46 35.4775 22.703C35.6155 22.9432 35.8141 23.143 36.0531 23.2829L36.253 23.3889L36.3021 23.4165C37.3962 24.0502 38.1936 25.0922 38.5202 26.3136C38.8455 27.5301 38.6761 28.825 38.0506 29.9174L38.0515 29.9182L37.7016 30.5387C37.6987 30.5438 37.6959 30.5491 37.693 30.5542C37.0593 31.6482 36.0171 32.4456 34.7958 32.7723C33.5912 33.0944 32.3096 32.9313 31.224 32.3207V32.3216L30.9853 32.1949L30.9387 32.1682C30.697 32.0287 30.4225 31.9554 30.1434 31.9554C29.8656 31.9554 29.5923 32.0275 29.3514 32.1656L29.3523 32.1665L28.6681 32.5637L28.6638 32.5663C28.4222 32.7058 28.2217 32.9065 28.0821 33.148C27.9425 33.3895 27.8687 33.6635 27.8684 33.9425V34.2269C27.8684 35.4927 27.3657 36.7072 26.4707 37.6023C25.5756 38.4973 24.3611 39 23.0953 39H22.3956C21.1299 39 19.9161 38.4972 19.021 37.6023C18.126 36.7072 17.6224 35.4927 17.6224 34.2269V33.9425L17.619 33.8382C17.6028 33.5956 17.5317 33.3593 17.4096 33.148C17.27 32.9065 17.0687 32.7058 16.8271 32.5663L16.8228 32.5637L16.1394 32.1665V32.1656C15.8986 32.0275 15.6251 31.9554 15.3475 31.9554C15.1032 31.9554 14.8626 32.0115 14.6443 32.1191L14.5521 32.1682C14.5366 32.1771 14.5213 32.1865 14.5056 32.1949L14.2669 32.3216L14.266 32.3207C13.1806 32.9308 11.9001 33.0942 10.6959 32.7723C9.47451 32.4457 8.43244 31.6482 7.79872 30.5542H7.79786L7.448 29.9493L7.44714 29.9475C6.81538 28.8523 6.64399 27.5506 6.9706 26.3291C7.2768 25.1843 7.99697 24.1971 8.98705 23.5561L9.18869 23.432L9.40671 23.3019L9.42998 23.2881C9.67262 23.1479 9.87373 22.9459 10.0134 22.703C10.153 22.46 10.2264 22.1844 10.2254 21.9042V21.0958L10.221 20.9924C10.2038 20.7509 10.1321 20.5158 10.0099 20.3056C9.88782 20.0956 9.71911 19.917 9.51787 19.7826L9.42998 19.7274L9.34294 19.674L9.12062 19.5258C8.06201 18.8887 7.29031 17.8656 6.9706 16.67C6.6441 15.4487 6.81543 14.1476 7.44714 13.0525L7.448 13.0507L7.79786 12.4458H7.79872L7.92195 12.2442C8.56305 11.2538 9.55074 10.5331 10.6959 10.2269C11.8998 9.90505 13.1808 10.0677 14.266 10.6775H14.2669L14.5056 10.8051L14.5521 10.8309C14.7939 10.9705 15.0683 11.0446 15.3475 11.0446C15.592 11.0446 15.833 10.9878 16.0515 10.88L16.1428 10.8309L16.8228 10.4363L16.8271 10.4337L16.9158 10.3785C17.1181 10.2434 17.2874 10.0634 17.4096 9.852C17.5489 9.61102 17.6218 9.33753 17.6224 9.05921V8.77226C17.6225 7.50656 18.126 6.29271 19.021 5.39773C19.9161 4.50277 21.1298 4 22.3956 4H23.0953C24.3611 4 25.5756 4.50266 26.4707 5.39773C27.3656 6.2927 27.8683 7.50663 27.8684 8.77226V9.05749Z" fill="#A856F7"/>
<path d="M25.9282 21.5006C25.9282 19.7434 24.5038 18.3184 22.7467 18.3182C20.9894 18.3182 19.5643 19.7433 19.5643 21.5006C19.5645 23.2577 20.9895 24.6821 22.7467 24.6821C24.5037 24.6819 25.928 23.2576 25.9282 21.5006ZM29.1097 21.5006C29.1095 25.0148 26.2609 27.8634 22.7467 27.8636C19.2323 27.8636 16.383 25.015 16.3828 21.5006C16.3828 17.986 19.2321 15.1367 22.7467 15.1367C26.2611 15.1369 29.1097 17.9862 29.1097 21.5006Z" fill="#A856F7"/>
</svg>
