<svg width="44" height="44" viewBox="0 0 44 44" fill="none" xmlns="http://www.w3.org/2000/svg">
<path d="M22 28.4275V26.2846C24.3636 26.2846 26.2858 24.3625 26.2858 21.9989C26.2858 19.6353 24.3636 17.7132 22 17.7132V15.5703C25.5454 15.5703 28.4287 18.4535 28.4287 21.9989C28.4287 25.5442 25.5454 28.4275 22 28.4275Z" fill="#3C83F6"/>
<path d="M24.6797 37H19.3224C19.062 37.0001 18.8104 36.9052 18.6148 36.7333C18.4192 36.5613 18.2929 36.324 18.2595 36.0657L18.1738 35.4014L19.3224 35.2536V34.8571H23.7346L23.9382 33.2543C23.9648 33.0432 24.0538 32.8448 24.1937 32.6845C24.3336 32.5242 24.518 32.4093 24.7236 32.3543C25.6793 32.0982 26.5772 31.7254 27.3936 31.2443C27.5791 31.1354 27.793 31.0848 28.0076 31.0991C28.2222 31.1135 28.4275 31.192 28.5969 31.3246L29.8644 32.3146L32.3159 29.8621L31.3248 28.5957C31.1923 28.4263 31.1139 28.2209 31.0998 28.0063C31.0856 27.7917 31.1364 27.5778 31.2455 27.3925C31.7276 26.575 32.1005 25.6771 32.3555 24.7225C32.4106 24.517 32.5256 24.3326 32.6859 24.1928C32.8462 24.0529 33.0445 23.9639 33.2555 23.9371L34.8584 23.7336V20.2654L33.2555 20.0629C33.0445 20.0361 32.8462 19.9471 32.6859 19.8072C32.5256 19.6674 32.4106 19.483 32.3555 19.2775C32.1077 18.3415 31.7343 17.4433 31.2455 16.6075C31.1364 16.4222 31.0856 16.2083 31.0998 15.9937C31.1139 15.7791 31.1923 15.5737 31.3248 15.4043L32.3159 14.1379L29.8644 11.6843L28.5969 12.6754C28.4276 12.8081 28.2222 12.8866 28.0075 12.9008C27.7928 12.9149 27.5789 12.864 27.3936 12.7546C26.5783 12.2746 25.6793 11.9018 24.7236 11.6457C24.5181 11.5906 24.3337 11.4756 24.1938 11.3153C24.054 11.155 23.965 10.9567 23.9382 10.7457L23.7346 9.14286H19.3224V8.3875L18.2188 8.23536L18.2617 7.92464C18.2971 7.66845 18.424 7.43373 18.619 7.26378C18.8139 7.09384 19.0638 7.00015 19.3224 7H24.6797C24.9404 7.00001 25.1923 7.09512 25.3879 7.26751C25.5836 7.4399 25.7097 7.67773 25.7425 7.93643L25.9761 9.78357C26.6211 9.99357 27.2404 10.2518 27.8329 10.5529L29.2901 9.41286C29.4962 9.25134 29.7543 9.17088 30.0156 9.18667C30.277 9.20246 30.5235 9.31342 30.7087 9.49857L34.5016 13.2914C34.6869 13.4764 34.7981 13.7229 34.8141 13.9843C34.8301 14.2456 34.7498 14.5038 34.5884 14.71L33.4473 16.1682C33.7505 16.7596 34.0077 17.3811 34.2187 18.025L36.0648 18.2586C36.3235 18.2914 36.5614 18.4175 36.7338 18.6132C36.9062 18.8088 37.0013 19.0607 37.0013 19.3214V24.6786C37.0013 24.9393 36.9062 25.1912 36.7338 25.3868C36.5614 25.5825 36.3235 25.7086 36.0648 25.7414L34.2177 25.975C34.0077 26.6189 33.7505 27.2393 33.4484 27.8318L34.5884 29.29C34.7495 29.4961 34.8296 29.7541 34.8136 30.0152C34.7976 30.2763 34.6866 30.5226 34.5016 30.7075L30.7087 34.5004C30.5237 34.6854 30.2774 34.7963 30.0162 34.8121C29.755 34.8279 29.4971 34.7475 29.2912 34.5861L27.834 33.4471C27.2355 33.7513 26.6144 34.0085 25.9761 34.2164L25.7425 36.0625C25.7099 36.3214 25.5839 36.5595 25.3882 36.7321C25.1926 36.9047 24.9406 37 24.6797 37Z" fill="#3C83F6"/>
<path d="M17.7142 27.3571C17.5734 27.3573 17.4341 27.3296 17.3041 27.2758C17.1741 27.2219 17.056 27.1429 16.9566 27.0432C16.589 26.6762 16.0908 26.47 15.5713 26.47C15.0518 26.47 14.5535 26.6762 14.1859 27.0432C14.087 27.1455 13.9688 27.2272 13.8381 27.2833C13.7074 27.3395 13.5668 27.369 13.4245 27.3703C13.2822 27.3715 13.1412 27.3444 13.0095 27.2905C12.8778 27.2367 12.7582 27.1571 12.6576 27.0565C12.557 26.9559 12.4774 26.8363 12.4235 26.7046C12.3697 26.5729 12.3426 26.4318 12.3438 26.2896C12.345 26.1473 12.3746 26.0067 12.4307 25.876C12.4869 25.7453 12.5685 25.627 12.6709 25.5282C13.4406 24.76 14.4837 24.3285 15.5713 24.3285C16.6588 24.3285 17.7019 24.76 18.4717 25.5282C18.6215 25.6781 18.7235 25.8689 18.7648 26.0768C18.8061 26.2846 18.7849 26.5 18.7038 26.6957C18.6227 26.8915 18.4855 27.0588 18.3093 27.1765C18.1331 27.2942 17.926 27.3571 17.7142 27.3571ZM21.9999 14.5H21.1814C19.2956 14.5 17.5995 15.5479 16.7563 17.2354C16.6921 17.3614 16.6535 17.4988 16.6426 17.6398C16.6318 17.7808 16.649 17.9225 16.6933 18.0568C16.7375 18.1911 16.8078 18.3154 16.9003 18.4224C16.9928 18.5293 17.1055 18.617 17.232 18.6802C17.3585 18.7434 17.4962 18.7809 17.6373 18.7907C17.7784 18.8004 17.92 18.7821 18.054 18.7368C18.1879 18.6915 18.3116 18.6202 18.4179 18.5269C18.5241 18.4336 18.6109 18.3202 18.6731 18.1932C18.9045 17.7264 19.262 17.3337 19.7051 17.0597C20.1482 16.7857 20.6593 16.6413 21.1803 16.6429H21.9999V14.5Z" fill="#3C83F6"/>
<path d="M17.7145 7C14.7605 7 12.3572 9.40321 12.3572 12.3571C12.3572 12.5071 12.3776 12.6593 12.3926 12.8114C10.8797 13.465 9.67756 14.7861 9.28005 16.51C9.11034 17.2595 9.10377 18.0367 9.26077 18.7889C8.54386 19.4839 7.97423 20.3161 7.58582 21.236C7.19741 22.1558 6.99819 23.1444 7.00001 24.1429C7.00068 25.354 7.29491 26.547 7.85752 27.6196C8.42013 28.6921 9.23434 29.6124 10.2304 30.3014C10.2251 30.3893 10.2144 30.475 10.2144 30.5714C10.2144 34.1168 13.0987 37 16.643 37C20.1874 37 23.0717 34.1168 23.0717 30.5714V12.3571C23.0717 9.40321 20.6685 7 17.7145 7ZM20.9288 30.5714C20.9288 32.935 19.0066 34.8571 16.643 34.8571C15.6423 34.8552 14.6737 34.5032 13.9052 33.8621C13.1368 33.2211 12.6168 32.3313 12.4355 31.3471C13.1065 31.5419 13.8015 31.6414 14.5001 31.6429C14.7843 31.6429 15.0568 31.53 15.2578 31.329C15.4587 31.1281 15.5716 30.8556 15.5716 30.5714C15.5716 30.2873 15.4587 30.0147 15.2578 29.8138C15.0568 29.6129 14.7843 29.5 14.5001 29.5C11.5462 29.5 9.14291 27.0968 9.14291 24.1429C9.1419 22.9815 9.52292 21.852 10.2272 20.9286C10.6515 21.49 11.1797 21.985 11.8226 22.3557C11.9444 22.426 12.0789 22.4716 12.2184 22.4899C12.3579 22.5082 12.4996 22.4988 12.6355 22.4624C12.7713 22.4259 12.8987 22.3631 13.0102 22.2774C13.1218 22.1917 13.2154 22.0849 13.2857 21.963C13.3559 21.8412 13.4015 21.7067 13.4198 21.5672C13.4381 21.4278 13.4288 21.286 13.3923 21.1502C13.3559 21.0143 13.293 20.887 13.2073 20.7754C13.1216 20.6639 13.0148 20.5703 12.893 20.5C12.2947 20.1578 11.823 19.6313 11.5482 18.9992C11.2735 18.3671 11.2103 17.6631 11.3683 16.9921C11.5607 16.162 12.0745 15.442 12.7969 14.9901C13.5194 14.5382 14.3916 14.3912 15.2223 14.5814C15.4994 14.6454 15.7905 14.5966 16.0316 14.4459C16.2727 14.2952 16.4441 14.0549 16.508 13.7779C16.572 13.5008 16.5232 13.2097 16.3725 12.9686C16.2218 12.7275 15.9815 12.5561 15.7044 12.4921C15.3089 12.4062 14.9049 12.3656 14.5001 12.3711V12.3582C14.5001 10.585 15.9423 9.14393 17.7145 9.14393C19.4867 9.14393 20.9288 10.585 20.9288 12.3582V30.5714Z" fill="#3C83F6"/>
</svg>
