<svg width="44" height="44" viewBox="0 0 44 44" fill="none" xmlns="http://www.w3.org/2000/svg">
<path d="M27.0638 18.2065C27.0638 17.836 27.0275 17.4748 26.9589 17.125C26.8877 16.7625 27.017 16.3897 27.2974 16.1492L28.6186 15.0157L27.8221 13.6362L26.1773 14.2148C25.828 14.3377 25.4395 14.2627 25.161 14.0186C24.615 13.5398 23.9803 13.1726 23.2931 12.9378C22.9433 12.8184 22.6848 12.5198 22.6167 12.1565L22.2958 10.4453H20.7028L20.3819 12.1565C20.3137 12.5198 20.0553 12.8184 19.7055 12.9378C19.0397 13.1652 18.4233 13.5169 17.889 13.974L17.8376 14.0186C17.5678 14.2551 17.1948 14.3329 16.8541 14.2258L16.8212 14.2148L15.1764 13.6362L14.3799 15.0157L15.7012 16.1492C15.9815 16.3897 16.1108 16.7625 16.0397 17.125C15.971 17.4748 15.9347 17.836 15.9347 18.2065C15.9347 18.577 15.971 18.9381 16.0397 19.2879C16.1108 19.6504 15.9815 20.0232 15.7012 20.2637L14.3799 21.3971L15.1764 22.7767L16.8212 22.198L16.8541 22.1871C17.1948 22.08 17.5678 22.1578 17.8376 22.3943L17.889 22.4389C18.4061 22.8812 19 23.2248 19.6412 23.4526L19.7055 23.4751L19.738 23.4868C20.0713 23.6132 20.3158 23.9044 20.3819 24.2564L20.7028 25.9676H22.2958L22.6167 24.2564L22.6236 24.2226C22.7011 23.8746 22.9542 23.5908 23.2931 23.4751C23.9803 23.2403 24.615 22.8732 25.161 22.3943L25.1874 22.3719C25.4637 22.1456 25.8389 22.0789 26.1773 22.198L27.8221 22.7767L28.6186 21.3971L27.2974 20.2637C27.017 20.0232 26.8877 19.6504 26.9589 19.2879C27.0275 18.9381 27.0638 18.577 27.0638 18.2065ZM29.1146 18.2065C29.1146 18.5011 29.0975 18.7918 29.0648 19.0779L30.5997 20.3947C30.9742 20.716 31.0668 21.2584 30.8201 21.6856L29.1727 24.5391C28.9259 24.9664 28.4099 25.1574 27.9444 24.9937L26.0353 24.322C25.5677 24.6696 25.0617 24.9623 24.5273 25.1943L24.1546 27.182C24.0636 27.6669 23.6402 28.0184 23.1467 28.0184H19.8518C19.3584 28.0184 18.9349 27.6669 18.844 27.182L18.4712 25.1943C17.9368 24.9623 17.4308 24.6696 16.9631 24.322L15.0542 24.9937C14.6033 25.1523 14.1049 24.978 13.8498 24.5784L13.8259 24.5391L12.1784 21.6857C11.9317 21.2584 12.0243 20.716 12.3988 20.3947L13.9336 19.0779C13.9009 18.7918 13.884 18.5011 13.884 18.2065C13.884 17.9118 13.9009 17.621 13.9336 17.3349L12.3988 16.0182C12.0243 15.6969 11.9317 15.1545 12.1784 14.7272L13.8259 11.8738L13.8498 11.8345C14.1049 11.4349 14.6033 11.2606 15.0542 11.4192L16.9631 12.0908C17.4308 11.7432 17.9368 11.4505 18.4712 11.2184L18.844 9.23093L18.8535 9.18587C18.9615 8.72435 19.3738 8.39454 19.8518 8.39453H23.1467L23.1928 8.39553C23.6663 8.41661 24.0665 8.76113 24.1546 9.23093L24.5273 11.2184C25.0617 11.4505 25.5677 11.7432 26.0353 12.0908L27.9444 11.4192L27.9881 11.405C28.4418 11.2677 28.9336 11.4598 29.1727 11.8738L30.8201 14.7272L30.8423 14.7676C31.0608 15.1882 30.9625 15.7069 30.5997 16.0182L29.0648 17.3349C29.0975 17.621 29.1146 17.9118 29.1146 18.2065Z" fill="#A856F7"/>
<path d="M22.6705 18.2064C22.6705 17.5595 22.1462 17.0352 21.4993 17.0352C20.8525 17.0352 20.3281 17.5595 20.3281 18.2064C20.3281 18.8532 20.8525 19.3775 21.4993 19.3775C22.1462 19.3775 22.6705 18.8532 22.6705 18.2064ZM24.7213 18.2064C24.7213 19.9858 23.2788 21.4283 21.4993 21.4283C19.7199 21.4283 18.2773 19.9858 18.2773 18.2064C18.2774 16.4269 19.7199 14.9844 21.4993 14.9844C23.2788 14.9844 24.7213 16.4269 24.7213 18.2064Z" fill="#A856F7"/>
<path d="M33.6545 18.2051C33.6545 11.4973 28.208 6.05079 21.5002 6.05079C14.7924 6.05079 9.34591 11.4973 9.34591 18.2051C9.34591 22.1322 11.2111 25.6221 14.1257 27.8091L14.1948 27.8605L14.207 27.8698C15.0858 28.54 15.7981 29.4039 16.2885 30.3944C16.6263 31.0768 16.8525 31.8066 16.9605 32.5561H26.0854C26.1932 31.8137 26.4175 31.0907 26.7522 30.4145C27.2395 29.4302 27.9475 28.5715 28.8209 27.9055L28.8238 27.9033C31.7598 25.6809 33.6545 22.1621 33.6545 18.2051ZM17.0341 35.7783C17.034 35.9319 17.0643 36.0841 17.1231 36.226C17.1783 36.3591 17.2575 36.4808 17.3568 36.5849L17.3769 36.6055L17.3778 36.6064L17.3984 36.6265C17.5025 36.7258 17.6242 36.805 17.7573 36.8602C17.8992 36.919 18.0514 36.9493 18.205 36.9492H24.7954L24.8242 36.9489C24.968 36.9454 25.1101 36.9153 25.2432 36.8602C25.3851 36.8013 25.514 36.7151 25.6226 36.6064L25.6235 36.6055C25.7323 36.4969 25.8185 36.368 25.8773 36.226C25.9361 36.0841 25.9664 35.9319 25.9663 35.7783V34.6068H17.0341V35.7783ZM5.79508 26.089C6.28194 25.8241 6.894 25.9944 7.17275 26.4772C7.45592 26.9676 7.28792 27.5947 6.79751 27.8779L5.53833 28.605L5.51524 28.6179C5.02838 28.8828 4.41632 28.7125 4.13757 28.2297C3.85441 27.7393 4.02241 27.1122 4.51281 26.829L5.77199 26.102L5.79508 26.089ZM35.8277 26.4772C36.1064 25.9944 36.7185 25.8241 37.2053 26.089L37.2284 26.102L38.4876 26.829L38.5103 26.8426C38.9831 27.1318 39.1416 27.7469 38.8629 28.2297C38.5841 28.7125 37.972 28.8828 37.4852 28.6179L37.4621 28.605L36.2029 27.8779L36.1802 27.8644C35.7074 27.5752 35.5489 26.9599 35.8277 26.4772ZM4.13757 8.18048C4.42074 7.69005 5.04791 7.52206 5.53833 7.80523L6.79751 8.53229L6.82028 8.54584C7.29307 8.83507 7.4515 9.45031 7.17275 9.93306C6.894 10.4158 6.28193 10.5862 5.79508 10.3213L5.77199 10.3083L4.51281 9.58118C4.02241 9.29799 3.8544 8.67089 4.13757 8.18048ZM37.4621 7.80523C37.9525 7.52206 38.5797 7.69005 38.8629 8.18048C39.146 8.67089 38.978 9.29799 38.4876 9.58118L37.2284 10.3083C36.738 10.5915 36.1109 10.4235 35.8277 9.93306C35.5445 9.44264 35.7125 8.81547 36.2029 8.53229L37.4621 7.80523ZM35.7053 18.2051C35.7053 22.8313 33.488 26.9434 30.0643 29.5361L30.0644 29.5362C29.4419 30.0109 28.9375 30.6228 28.5902 31.3243C28.2429 32.0258 28.0622 32.7981 28.0622 33.5809C28.0622 33.6858 28.0464 33.7869 28.0171 33.8823V35.7778L28.0162 35.8571C28.0065 36.2533 27.9238 36.6446 27.7719 37.0112C27.61 37.4018 27.3726 37.7566 27.0736 38.0555L27.0736 38.0556C26.7745 38.3551 26.4193 38.5927 26.0283 38.7547C25.6374 38.9167 25.2183 39 24.7952 38.9999V39H18.2053V38.9999C17.7821 39 17.3631 38.9167 16.9721 38.7547C16.5811 38.5927 16.2259 38.3551 15.9268 38.0556V38.0555C15.6277 37.7566 15.3904 37.4018 15.2286 37.0112C15.0665 36.6202 14.9832 36.201 14.9833 35.7778V33.5804L14.9828 33.5064C14.9717 32.7422 14.7899 31.9897 14.4506 31.3042C14.101 30.5982 13.5936 29.9821 12.9677 29.5038C9.5102 26.9444 7.29512 22.8288 7.29512 18.2051C7.29513 10.3647 13.6598 4 21.5002 4C29.3407 4 35.7053 10.3647 35.7053 18.2051Z" fill="#A856F7"/>
</svg>
