<svg width="44" height="44" viewBox="0 0 44 44" fill="none" xmlns="http://www.w3.org/2000/svg">
<path d="M15.2521 31.7098C15.7876 31.653 16.2735 32.0334 16.3442 32.5703C16.416 33.1157 16.0321 33.6161 15.4866 33.6879L11.7993 34.1733L12.2848 37.8606C12.3566 38.4061 11.9726 38.9065 11.4272 38.9783C10.8818 39.05 10.3815 38.6661 10.3097 38.1207L9.69418 33.4458C9.62238 32.9004 10.0063 32.4 10.5518 32.3282L15.2266 31.7127L15.2521 31.7098ZM32.5693 5.02035C33.1062 4.94968 33.5994 5.32064 33.6832 5.8525L33.6869 5.87792L34.3023 10.5528C34.3741 11.0982 33.9902 11.5986 33.4448 11.6704L28.7699 12.2859C28.2245 12.3577 27.7241 11.9737 27.6523 11.4283C27.5805 10.8829 27.9644 10.3825 28.5098 10.3107L32.1971 9.8252L31.7117 6.13797L31.7087 6.11242C31.652 5.577 32.0324 5.09103 32.5693 5.02035Z" fill="#A856F7"/>
<path d="M37.0078 22C37.0078 19.6816 36.482 17.4888 35.545 15.5308L37.342 14.6709C38.4045 16.8911 39 19.3771 39 22C39 31.3888 31.3888 39 22 39C17.3426 39 13.1209 37.1257 10.0515 34.0927L9.97917 34.0208L9.96121 34.0024C9.59027 33.6122 9.59626 32.9951 9.97917 32.6122C10.3621 32.2292 10.9792 32.2233 11.3694 32.5942L11.3878 32.6122L11.4517 32.6756C14.1634 35.3552 17.8878 37.0078 22 37.0078C30.2885 37.0078 37.0078 30.2885 37.0078 22ZM5 22C5 12.6111 12.6112 5 22 5C26.6575 5 30.8791 6.87427 33.9485 9.90732L34.0208 9.97917L34.0388 9.99759C34.4097 10.3878 34.4037 11.0049 34.0208 11.3878C33.6379 11.7708 33.0208 11.7767 32.6306 11.4058L32.6122 11.3878L32.5483 11.3244C29.8366 8.64477 26.1122 6.99219 22 6.99219C13.7115 6.99219 6.99219 13.7114 6.99219 22C6.99219 24.3184 7.51801 26.5111 8.45501 28.4692C8.69247 28.9654 8.4827 29.5602 7.98647 29.7977C7.49024 30.0351 6.89549 29.8253 6.65802 29.3291C5.59552 27.1088 5 24.6229 5 22ZM36.0135 14.2023C36.5098 13.9649 37.1045 14.1747 37.342 14.6709L35.545 15.5308C35.3075 15.0346 35.5173 14.4398 36.0135 14.2023Z" fill="#A856F7"/>
<path d="M24.3248 11.707L24.3505 11.7074C24.8888 11.721 25.3209 12.1616 25.3209 12.7031V13.2778C25.3209 14.5881 26.7283 15.4108 27.8673 14.7786L27.8942 14.7634L28.3918 14.4761L28.4133 14.464C28.6375 14.3419 28.9004 14.3103 29.1476 14.3766C29.4028 14.4449 29.6204 14.6119 29.7525 14.8407L32.0767 18.8663L32.0888 18.8879C32.2109 19.1121 32.2424 19.375 32.1762 19.6222C32.1078 19.8774 31.9409 20.095 31.7121 20.2271L31.2145 20.5143C30.0709 21.1746 30.0709 22.8254 31.2145 23.4857L31.7121 23.7729L31.7334 23.7856C31.9513 23.9187 32.11 24.1306 32.1762 24.3778C32.2424 24.625 32.2109 24.8879 32.0888 25.1121L32.0767 25.1337L29.7525 29.1593C29.6204 29.3881 29.4028 29.5551 29.1476 29.6234C28.9004 29.6897 28.6375 29.6581 28.4133 29.536L28.3918 29.5239L27.8941 29.2366V29.2365C26.7504 28.5763 25.3209 29.4017 25.3209 30.7222V31.2969C25.3209 31.847 24.8749 32.293 24.3248 32.293H19.6764C19.1263 32.293 18.6803 31.847 18.6803 31.2969V30.7222C18.6803 29.4119 17.2729 28.5892 16.1339 29.2214L16.1071 29.2366L15.6094 29.5239C15.3806 29.656 15.1087 29.6918 14.8536 29.6234C14.5984 29.5551 14.3808 29.3881 14.2487 29.1593L11.9245 25.1337C11.7924 24.9049 11.7566 24.633 11.8249 24.3778C11.8933 24.1226 12.0603 23.905 12.2891 23.7729L12.7867 23.4856H12.7867C13.9303 22.8253 13.9303 21.1746 12.7867 20.5143L12.7867 20.5144L12.2891 20.2271C12.0603 20.095 11.8933 19.8774 11.8249 19.6222C11.7566 19.367 11.7924 19.0951 11.9245 18.8663L14.2487 14.8407L14.2614 14.8194C14.3945 14.6016 14.6064 14.4428 14.8536 14.3766C15.1087 14.3082 15.3806 14.344 15.6094 14.4761L16.107 14.7634H16.1071C17.2507 15.4237 18.6803 14.5983 18.6803 13.2778V12.7031L18.6806 12.6774C18.6942 12.1392 19.1348 11.707 19.6764 11.707H24.3248ZM20.6495 13.6992C20.3788 16.1653 17.7584 17.6781 15.4874 16.6795L14.1363 19.0197C16.1366 20.4871 16.1366 23.5128 14.1363 24.9802L15.4874 27.3205C17.7584 26.3218 20.3788 27.8347 20.6495 30.3008H23.3518C23.6224 27.8347 26.2427 26.3219 28.5137 27.3205L29.8649 24.9802C27.8646 23.5128 27.8646 20.4871 29.8649 19.0197L28.5137 16.6795C26.2427 17.6781 23.6224 16.1653 23.3518 13.6992H20.6495Z" fill="#A856F7"/>
<path d="M24.3242 22C24.3242 20.7164 23.2836 19.6758 22 19.6758C20.7164 19.6758 19.6758 20.7164 19.6758 22C19.6758 23.2836 20.7164 24.3242 22 24.3242C23.2836 24.3242 24.3242 23.2836 24.3242 22ZM26.3164 22C26.3164 24.3839 24.3839 26.3164 22 26.3164C19.6161 26.3164 17.6836 24.3839 17.6836 22C17.6836 19.6161 19.6161 17.6836 22 17.6836C24.3839 17.6836 26.3164 19.6161 26.3164 22Z" fill="#A856F7"/>
</svg>
