<svg width="44" height="44" viewBox="0 0 44 44" fill="none" xmlns="http://www.w3.org/2000/svg">
<path fill-rule="evenodd" clip-rule="evenodd" d="M12.8925 11.1093C12.2102 10.9026 11.489 10.8585 10.7866 10.9804C10.0842 11.1024 9.42006 11.387 8.84738 11.8116C8.2747 12.2363 7.80936 12.789 7.48859 13.4257C7.16783 14.0624 7.00055 14.7653 7.00013 15.4783C7.00013 17.9976 9.046 20.0435 11.5653 20.0435H23.3045C25.8238 20.0435 27.8697 17.9976 27.8697 15.4783C27.8693 14.7653 27.702 14.0624 27.3812 13.4257C27.0605 12.789 26.5951 12.2363 26.0224 11.8116C25.4498 11.387 24.7856 11.1024 24.0832 10.9804C23.3808 10.8585 22.6596 10.9026 21.9773 11.1093C21.749 8.80391 19.801 7 17.4349 7C15.0688 7 13.1208 8.80391 12.8925 11.1093ZM11.5653 18.7391C9.76535 18.7391 8.30448 17.2783 8.30448 15.4783C8.30496 14.903 8.45752 14.3382 8.74671 13.8409C9.0359 13.3437 9.45142 12.9318 9.95115 12.6469C10.4509 12.362 11.0171 12.2144 11.5923 12.2189C12.1675 12.2234 12.7312 12.3799 13.2264 12.6726C13.3321 12.7354 13.4534 12.767 13.5762 12.7639C13.6991 12.7607 13.8186 12.7229 13.9209 12.6548C14.0232 12.5867 14.1042 12.4911 14.1545 12.379C14.2048 12.2669 14.2225 12.1428 14.2053 12.0211C14.1403 11.5589 14.1752 11.0881 14.3077 10.6406C14.4402 10.1931 14.6671 9.77916 14.9733 9.42685C15.2794 9.07454 15.6576 8.79202 16.0822 8.59837C16.5069 8.40472 16.9682 8.30446 17.4349 8.30435C17.9016 8.30446 18.3629 8.40472 18.7876 8.59837C19.2123 8.79202 19.5904 9.07454 19.8966 9.42685C20.2027 9.77916 20.4297 10.1931 20.5621 10.6406C20.6946 11.0881 20.7295 11.5589 20.6645 12.0211C20.6474 12.1428 20.665 12.2669 20.7153 12.379C20.7656 12.4911 20.8466 12.5867 20.949 12.6548C21.0513 12.7229 21.1707 12.7607 21.2936 12.7639C21.4165 12.767 21.5377 12.7354 21.6434 12.6726C22.1386 12.3799 22.7024 12.2234 23.2776 12.2189C23.8528 12.2144 24.4189 12.362 24.9187 12.6469C25.4184 12.9318 25.8339 13.3437 26.1231 13.8409C26.4123 14.3382 26.5649 14.903 26.5653 15.4783C26.5653 17.2783 25.1045 18.7391 23.3045 18.7391H11.5653ZM22.023 28.0659C21.3407 27.8591 20.6195 27.815 19.917 27.9369C19.2146 28.0589 18.5505 28.3436 17.9778 28.7682C17.4051 29.1928 16.9398 29.7456 16.619 30.3822C16.2983 31.0189 16.131 31.7219 16.1306 32.4348C16.1306 34.9541 18.1764 37 20.6958 37H32.4349C34.9543 37 37.0001 34.9541 37.0001 32.4348C36.9997 31.7219 36.8324 31.0189 36.5117 30.3822C36.1909 29.7456 35.7256 29.1928 35.1529 28.7682C34.5802 28.3436 33.9161 28.0589 33.2137 27.9369C32.5112 27.815 31.79 27.8591 31.1077 28.0659C30.8795 25.7604 28.9314 23.9565 26.5653 23.9565C24.1993 23.9565 22.2512 25.7604 22.023 28.0659ZM20.6958 35.6957C18.8958 35.6957 17.4349 34.2348 17.4349 32.4348C17.4354 31.8596 17.588 31.2947 17.8771 30.7975C18.1663 30.3002 18.5819 29.8883 19.0816 29.6034C19.5813 29.3186 20.1475 29.1709 20.7227 29.1754C21.2979 29.1799 21.8617 29.3365 22.3569 29.6291C22.4625 29.6919 22.5838 29.7235 22.7067 29.7204C22.8295 29.7173 22.949 29.6795 23.0513 29.6114C23.1536 29.5433 23.2346 29.4476 23.2849 29.3355C23.3353 29.2234 23.3529 29.0993 23.3358 28.9776C23.2707 28.5154 23.3056 28.0447 23.4381 27.5971C23.5706 27.1496 23.7976 26.7357 24.1037 26.3834C24.4098 26.0311 24.788 25.7485 25.2127 25.5549C25.6373 25.3612 26.0986 25.261 26.5653 25.2609C27.0321 25.261 27.4934 25.3612 27.918 25.5549C28.3427 25.7485 28.7209 26.0311 29.027 26.3834C29.3331 26.7357 29.5601 27.1496 29.6926 27.5971C29.8251 28.0447 29.8599 28.5154 29.7949 28.9776C29.7778 29.0993 29.7954 29.2234 29.8457 29.3355C29.8961 29.4476 29.9771 29.5433 30.0794 29.6114C30.1817 29.6795 30.3012 29.7173 30.424 29.7204C30.5469 29.7235 30.6682 29.6919 30.7738 29.6291C31.269 29.3365 31.8328 29.1799 32.408 29.1754C32.9832 29.1709 33.5494 29.3186 34.0491 29.6034C34.5488 29.8883 34.9644 30.3002 35.2536 30.7975C35.5427 31.2947 35.6953 31.8596 35.6958 32.4348C35.6958 34.2348 34.2349 35.6957 32.4349 35.6957H20.6958ZM33.0871 20.4257L31.5917 18.9302C31.4687 18.8114 31.3039 18.7457 31.1329 18.7472C30.9619 18.7487 30.7983 18.8172 30.6774 18.9382C30.5565 19.0591 30.4879 19.2227 30.4864 19.3937C30.4849 19.5646 30.5507 19.7294 30.6695 19.8524L32.356 21.5389C32.7229 21.9057 33.2205 22.1118 33.7393 22.1118C34.2581 22.1118 34.7556 21.9057 35.1225 21.5389L36.809 19.8524C36.9278 19.7294 36.9936 19.5646 36.9921 19.3937C36.9906 19.2227 36.922 19.0591 36.8011 18.9382C36.6802 18.8172 36.5166 18.7487 36.3456 18.7472C36.1746 18.7457 36.0099 18.8114 35.8869 18.9302L34.3914 20.4257V14.8261C34.3914 14.3072 34.1853 13.8095 33.8184 13.4426C33.4515 13.0757 32.9538 12.8696 32.4349 12.8696H29.8262C29.6533 12.8696 29.4874 12.9383 29.3651 13.0606C29.2428 13.1829 29.174 13.3488 29.174 13.5217C29.174 13.6947 29.2428 13.8606 29.3651 13.9829C29.4874 14.1052 29.6533 14.1739 29.8262 14.1739H32.4349C32.6079 14.1739 32.7738 14.2426 32.8961 14.3649C33.0184 14.4872 33.0871 14.6531 33.0871 14.8261V20.4159V20.4257ZM9.60883 23.6865V29.1739C9.60883 29.6928 9.81496 30.1905 10.1819 30.5574C10.5488 30.9243 11.0464 31.1304 11.5653 31.1304H14.174C14.347 31.1304 14.5129 31.0617 14.6352 30.9394C14.7575 30.8171 14.8262 30.6512 14.8262 30.4783C14.8262 30.3053 14.7575 30.1394 14.6352 30.0171C14.5129 29.8948 14.347 29.8261 14.174 29.8261H11.5653C11.3924 29.8261 11.2265 29.7574 11.1042 29.6351C10.9819 29.5128 10.9132 29.3469 10.9132 29.1739V23.6865L12.4086 25.182C12.531 25.3042 12.6969 25.3729 12.8699 25.3729C13.0429 25.3728 13.2088 25.304 13.3311 25.1816C13.4534 25.0593 13.5221 24.8933 13.522 24.7203C13.5219 24.5473 13.4532 24.3814 13.3308 24.2591L11.6443 22.5733C11.4628 22.3913 11.2472 22.247 11.0098 22.1485C10.7724 22.05 10.518 21.9993 10.261 21.9993C10.004 21.9993 9.74956 22.05 9.5122 22.1485C9.27484 22.247 9.05924 22.3913 8.87774 22.5733L7.19122 24.2591C7.06884 24.3814 7.00006 24.5473 7 24.7203C6.99994 24.8933 7.06861 25.0593 7.19089 25.1816C7.31318 25.304 7.47907 25.3728 7.65208 25.3729C7.82508 25.3729 7.99102 25.3042 8.11339 25.182L9.60883 23.6865Z" fill="#A856F7" stroke="#A856F7" stroke-width="0.8"/>
</svg>
