<svg width="44" height="44" viewBox="0 0 44 44" fill="none" xmlns="http://www.w3.org/2000/svg">
<path d="M11.3076 7.90039C12.7192 7.90039 13.8691 9.05029 13.8691 10.4619V12.5156H19.6387V18.5381C19.6387 19.6724 20.558 20.5928 21.6924 20.5928H22.8457C23.6233 20.5928 24.2539 21.2224 24.2539 22C24.2539 22.7776 23.6233 23.4072 22.8457 23.4072H21.6924C20.558 23.4072 19.6387 24.3276 19.6387 25.4619V31.4844H14.7695C14.6289 31.4844 14.5156 31.3711 14.5156 31.2305V30.0771C14.5156 28.3055 13.0793 26.8691 11.3076 26.8691C9.53598 26.8692 8.09961 28.3055 8.09961 30.0771V31.2305C8.09961 31.3707 7.98595 31.4844 7.8457 31.4844H3.1543C3.01366 31.4844 2.90039 31.3711 2.90039 31.2305V25.4619L2.90527 25.4102C2.92902 25.2946 3.03165 25.208 3.1543 25.208H4.38477C6.15637 25.2079 7.59277 23.7716 7.59277 22C7.59277 20.2284 6.15637 18.7921 4.38477 18.792H3.1543C3.01405 18.792 2.90039 18.6783 2.90039 18.5381V12.7695L2.90527 12.7178C2.92894 12.602 3.03131 12.5156 3.1543 12.5156H8.74609V10.4619C8.74609 9.05038 9.89609 7.90043 11.3076 7.90039Z" stroke="#A856F7" stroke-width="1.8"/>
<path d="M28.6152 12.5176C28.7557 12.5177 28.8691 12.6309 28.8691 12.7715V13.9248C28.8691 15.6964 30.3046 17.1326 32.0762 17.1328C33.8478 17.1328 35.2842 15.6965 35.2842 13.9248V12.7715C35.2842 12.6312 35.3978 12.5176 35.5381 12.5176H40.2305C40.371 12.5177 40.4844 12.6309 40.4844 12.7715V18.54C40.4844 18.6802 40.3707 18.7939 40.2305 18.7939H39C37.2283 18.7939 35.792 20.2303 35.792 22.002C35.7921 23.7736 37.2284 25.21 39 25.21H40.2305C40.3705 25.21 40.4841 25.3229 40.4844 25.4629V31.2324C40.4844 31.373 40.371 31.4862 40.2305 31.4863H34.6377V33.54C34.6377 34.9516 33.4877 36.1016 32.0762 36.1016C30.6647 36.1014 29.5146 34.9516 29.5146 33.54V31.4863H23.7461V27.4424C26.4317 27.0004 28.3613 24.6187 28.3613 22.002C28.3613 19.3854 26.4316 17.0026 23.7461 16.5605V12.5176H28.6152Z" stroke="#A856F7" stroke-width="1.8"/>
</svg>
