<svg width="44" height="44" viewBox="0 0 44 44" fill="none" xmlns="http://www.w3.org/2000/svg">
<path d="M11.9513 26.772C13.1468 26.809 14.2904 27.2582 15.1891 28.04L15.3654 28.2013L15.3857 28.2207C17.3193 30.1301 17.2945 33.1934 15.6344 35.1618L15.6353 35.1627C14.9146 36.0207 13.9212 36.651 12.9662 37.1176C11.9925 37.5932 10.9412 37.9542 9.99735 38.2242C9.04844 38.4956 8.17308 38.6843 7.53639 38.8052C7.21691 38.8659 6.95408 38.91 6.76927 38.9393C6.67699 38.9539 6.6039 38.9653 6.55236 38.9728C6.52666 38.9765 6.50618 38.9795 6.49152 38.9816C6.48429 38.9826 6.4783 38.9836 6.47388 38.9842C6.47166 38.9845 6.46919 38.984 6.46771 38.9842L6.46595 38.9851H6.46507C5.9625 39.0523 5.457 38.8815 5.09836 38.5231C4.73969 38.1644 4.56822 37.6582 4.63544 37.1555V37.1546L4.63632 37.1528C4.63652 37.1513 4.63602 37.1489 4.63632 37.1467C4.63692 37.1422 4.63796 37.1362 4.63896 37.129C4.64101 37.1144 4.64405 37.0939 4.64778 37.0682C4.65528 37.0166 4.66666 36.9435 4.68129 36.8513C4.71058 36.6665 4.75465 36.4036 4.81531 36.0842C4.93621 35.4475 5.12496 34.5721 5.39639 33.6232C5.66634 32.6795 6.02748 31.6288 6.50298 30.6552C6.96952 29.7001 7.59978 28.706 8.45782 27.9853C9.43305 27.1644 10.6771 26.7327 11.9513 26.772ZM11.8508 30.0257C11.3777 30.0111 10.9157 30.1721 10.5537 30.4771L10.552 30.4789C10.1891 30.7837 9.80145 31.3204 9.42863 32.0837C9.0649 32.8283 8.76531 33.6845 8.5266 34.519C8.45003 34.7867 8.38176 35.049 8.31939 35.3003C8.57083 35.2379 8.83357 35.1706 9.1015 35.0939C9.93604 34.8552 10.7922 34.5556 11.5369 34.1919C12.3002 33.8191 12.8369 33.4314 13.1417 33.0686L13.1452 33.065L13.2581 32.9169C13.7799 32.1634 13.696 31.1398 13.109 30.5485C12.7676 30.2266 12.3201 30.0402 11.8508 30.0257Z" fill="#A856F7"/>
<path d="M38.1695 4.01013C38.9862 4.09796 39.6216 4.78923 39.6218 5.62814C39.6218 10.3011 38.2822 18.5191 29.5539 24.599L29.1325 24.8873C29.1205 24.8953 29.1085 24.9034 29.0963 24.9111C26.9482 26.2694 24.6691 27.4085 22.2936 28.312C21.7318 28.5257 21.1011 28.4123 20.6509 28.0237L20.5636 27.9417L15.6805 23.0586C15.2253 22.6034 15.0804 21.9222 15.3119 21.3215L15.6629 20.4451C16.5064 18.4111 17.5284 16.4545 18.7164 14.5991C20.7597 11.3376 23.6024 8.65218 26.9748 6.79734C30.3524 4.93969 34.1491 3.97653 38.0037 4.00043L38.1695 4.01013ZM36.2984 7.3211C33.5844 7.54148 30.9405 8.33144 28.5435 9.6498C25.8332 11.1405 23.5231 13.2583 21.8034 15.822L21.4674 16.3405C21.4644 16.3453 21.4608 16.3498 21.4577 16.3546C20.407 17.9958 19.5005 19.7243 18.7446 21.519L22.1076 24.8811C23.9225 24.1276 25.671 23.2221 27.3337 22.1724C34.2137 17.5525 35.9655 11.512 36.2984 7.3211Z" fill="#A856F7"/>
<path d="M20.2329 14.9352L20.5811 13.8471C21.4375 14.1208 21.9102 15.0364 21.6366 15.8928C21.363 16.7492 20.4465 17.2219 19.5901 16.9483V16.9474C19.589 16.947 19.5874 16.9471 19.5856 16.9465C19.5788 16.9444 19.5661 16.941 19.5495 16.9359C19.5163 16.9258 19.4641 16.9098 19.3952 16.8901C19.2568 16.8504 19.0517 16.7936 18.7956 16.7305C18.28 16.6033 17.5718 16.453 16.7967 16.3531C16.0152 16.2524 15.2083 16.2088 14.4812 16.2764C13.7415 16.3451 13.2009 16.5172 12.8508 16.7499L12.8517 16.7507C12.1435 17.2246 11.4735 18.3959 10.9639 19.8007C10.9047 19.9641 10.8492 20.1248 10.7981 20.2813H16.8302L16.9968 20.2892C17.8176 20.3727 18.4579 21.0662 18.4579 21.909C18.4579 22.7517 17.8176 23.4453 16.9968 23.5288L16.8302 23.5367H8.69075C8.20817 23.5367 7.75061 23.3225 7.44132 22.9521C7.13203 22.5816 7.00242 22.0929 7.08862 21.618L8.69075 21.909C7.16995 21.6329 7.09332 21.6182 7.0895 21.6171V21.6145C7.08976 21.6131 7.09002 21.6112 7.09038 21.6092C7.09114 21.6051 7.09271 21.5997 7.09391 21.5933C7.09633 21.5805 7.09937 21.563 7.10361 21.5413C7.1122 21.4973 7.12434 21.4352 7.14064 21.3579C7.17321 21.2034 7.22235 20.9855 7.28789 20.7213C7.41836 20.1953 7.61966 19.4727 7.90335 18.6906C8.43152 17.2345 9.38937 15.1499 11.0415 14.0447L11.0433 14.0429L11.2267 13.9265C12.1534 13.3647 13.2127 13.125 14.1805 13.0351C15.2265 12.9379 16.2894 13.0042 17.2129 13.1232C18.1429 13.2431 18.9766 13.4218 19.5751 13.5694C19.8754 13.6435 20.1201 13.7112 20.2928 13.7607C20.3793 13.7855 20.4487 13.8059 20.4974 13.8207C20.5214 13.828 20.5406 13.8339 20.5547 13.8383C20.5618 13.8405 20.5679 13.8422 20.5723 13.8436C20.5744 13.8443 20.5761 13.8449 20.5776 13.8454L20.5794 13.8463H20.5803C20.5806 13.8464 20.5806 13.8465 20.2329 14.9352ZM20.0856 15.3973C20.0617 15.472 20.0384 15.543 20.0168 15.6106L20.2329 14.9352C20.1893 15.0714 20.1407 15.2248 20.0856 15.3973Z" fill="#A856F7"/>
<path d="M20.0859 34.9297V26.7902C20.0861 25.8913 20.8147 25.1625 21.7136 25.1625C22.6126 25.1625 23.3412 25.8913 23.3414 26.7902V32.8223C23.4978 32.7712 23.6585 32.7158 23.8219 32.6565C25.1391 32.1787 26.2507 31.56 26.7749 30.9009L26.8719 30.7687C27.1044 30.4186 27.2775 29.8788 27.3463 29.1392C27.4138 28.4121 27.3703 27.6053 27.2695 26.8237C27.1697 26.0487 27.0193 25.3413 26.8922 24.8257C26.8289 24.5693 26.7723 24.3636 26.7326 24.2252C26.7128 24.1562 26.6968 24.1041 26.6867 24.0709C26.6817 24.0544 26.6783 24.0425 26.6761 24.0356L26.6744 24.0304L26.632 23.869C26.4617 23.0617 26.927 22.2403 27.7298 21.9838C28.5861 21.7104 29.5018 22.183 29.7755 23.0393L28.1866 23.5472C28.1993 23.5431 28.2124 23.539 28.2254 23.5348C29.7758 23.0394 29.7762 23.0398 29.7764 23.0401V23.041L29.7772 23.0428C29.7777 23.0443 29.7783 23.0467 29.779 23.049C29.7804 23.0533 29.7822 23.0589 29.7843 23.0657C29.7887 23.0799 29.7945 23.0996 29.8019 23.1239C29.8167 23.1726 29.8371 23.2412 29.8619 23.3276C29.9115 23.5004 29.9791 23.7456 30.0532 24.0462C30.2008 24.6447 30.3787 25.4776 30.4985 26.4075C30.6175 27.3312 30.6848 28.3946 30.5876 29.4408C30.4916 30.4728 30.2254 31.6087 29.5797 32.5771L29.578 32.5789C28.4727 34.2311 26.3881 35.1898 24.932 35.7179C24.1497 36.0017 23.4264 36.2029 22.9005 36.3334C22.6365 36.3989 22.4191 36.4472 22.2647 36.4798C22.1874 36.4961 22.1253 36.5082 22.0813 36.5168C22.0595 36.5211 22.0422 36.525 22.0293 36.5274L22.0082 36.5309H22.0055V36.5318C22.0051 36.5319 22.0044 36.5314 21.7136 34.9297L22.0046 36.5318C21.5299 36.618 21.041 36.4891 20.6705 36.18C20.3 35.8707 20.0859 35.4123 20.0859 34.9297Z" fill="#A856F7"/>
</svg>
