<svg width="44" height="44" viewBox="0 0 44 44" fill="none" xmlns="http://www.w3.org/2000/svg">
<g clip-path="url(#clip0_606_1024)">
<path d="M5.5 40.2893C5.01377 40.2893 4.54745 40.0962 4.20364 39.7524C3.85982 39.4085 3.66667 38.9422 3.66667 38.456V0H0V38.456C0 39.9147 0.579463 41.3136 1.61091 42.3451C2.64236 43.3765 4.04131 43.956 5.5 43.956H44V40.2893H5.5Z" fill="#A856F7"/>
<path d="M9.16797 21.9999H12.8346V34.8333H9.16797V21.9999ZM18.3346 18.3333H22.0013V34.8333H18.3346V18.3333ZM27.5013 23.8333H31.168V34.8333H27.5013V23.8333ZM36.668 16.4999H40.3346V34.8333H36.668V16.4999ZM20.168 8.09228L29.3346 17.2589L43.4641 3.12944L40.8718 0.537109L29.3346 12.0743L20.168 2.90761L9.70514 13.3704L12.2975 15.9628L20.168 8.09228Z" fill="#A856F7"/>
</g>
<defs>
<clipPath id="clip0_606_1024">
<rect width="44" height="44" fill="white"/>
</clipPath>
</defs>
</svg>
