<svg width="44" height="44" viewBox="0 0 44 44" fill="none" xmlns="http://www.w3.org/2000/svg">
<path d="M20.5568 15.7784V11.111H15.8895C15.0303 11.111 14.334 10.4147 14.334 9.55551C14.334 8.69634 15.0303 8 15.8895 8H22.1123L22.2715 8.00758C23.0558 8.08742 23.6678 8.75017 23.6678 9.55551V15.7784C23.6677 16.6374 22.9713 17.3338 22.1123 17.3339C21.2532 17.3339 20.5569 16.6375 20.5568 15.7784Z" fill="#A856F7"/>
<path d="M33.0037 18.8892C33.0035 18.0303 32.3071 17.3338 31.4482 17.3337H12.7798C11.9208 17.3338 11.2244 18.0303 11.2243 18.8892V31.3349C11.2243 32.1939 11.9208 32.8903 12.7798 32.8904H31.4482C32.3072 32.8903 33.0036 32.1939 33.0037 31.3349V18.8892ZM36.1147 31.3349C36.1146 33.9123 34.0255 36.0013 31.4482 36.0014H12.7798C10.2025 36.0013 8.11334 33.9123 8.11328 31.3349V18.8892C8.11345 16.3119 10.2025 14.2228 12.7798 14.2227H31.4482C34.0254 14.2228 36.1145 16.3119 36.1147 18.8892V31.3349Z" fill="#A856F7"/>
<path d="M9.66648 23.5586L9.82573 23.5662C10.6102 23.6458 11.2228 24.3086 11.2228 25.1141C11.2228 25.9196 10.6102 26.5824 9.82573 26.662L9.66648 26.6696H6.55549C5.69633 26.6696 5 25.9733 5 25.1141C5 24.2549 5.69633 23.5586 6.55549 23.5586H9.66648Z" fill="#A856F7"/>
<path d="M37.6684 23.5586L37.8277 23.5662C38.6122 23.6458 39.2248 24.3086 39.2248 25.1141C39.2248 25.9196 38.6122 26.5824 37.8277 26.662L37.6684 26.6696H34.5574C33.6983 26.6696 33.002 25.9733 33.002 25.1141C33.002 24.2549 33.6983 23.5586 34.5574 23.5586H37.6684Z" fill="#A856F7"/>
<path d="M25.2227 26.6665V23.5555C25.2227 22.6963 25.919 22 26.7781 22C27.6373 22 28.3336 22.6963 28.3336 23.5555V26.6665C28.3336 27.5257 27.6373 28.2229 26.7781 28.2229C25.919 28.2229 25.2227 27.5257 25.2227 26.6665Z" fill="#A856F7"/>
<path d="M15.8887 26.6665V23.5555C15.8887 22.6963 16.585 22 17.4442 22C18.3033 22 18.9997 22.6963 18.9997 23.5555V26.6665C18.9997 27.5257 18.3033 28.2229 17.4442 28.2229C16.585 28.2229 15.8887 27.5257 15.8887 26.6665Z" fill="#A856F7"/>
</svg>
