<svg width="44" height="44" viewBox="0 0 44 44" fill="none" xmlns="http://www.w3.org/2000/svg">
<path d="M38.4496 28.8693H36.9845V23.4792C36.9845 21.1472 34.7566 19.1018 32.2171 19.1018H22.3333V14.2181H24.6124C26.0498 14.2154 27.2143 13.0508 27.217 11.6134V6.24135C27.2143 4.80393 26.0497 3.63939 24.6124 3.63672H18.4263C16.9889 3.63939 15.8243 4.80401 15.8217 6.24135V11.6134C15.8243 13.0509 16.9889 14.2154 18.4263 14.2181H20.7054V19.1018H10.8215C8.28194 19.1018 6.05412 21.1472 6.05412 23.4792V28.8693H4.589C3.15166 28.872 1.98705 30.0366 1.98438 31.474V36.0321C1.98705 37.4695 3.15166 38.634 4.589 38.6367H9.14713C10.5845 38.634 11.7491 37.4694 11.7518 36.0321V31.474C11.7491 30.0366 10.5845 28.872 9.14713 28.8693H7.68201V23.4793C7.68201 21.9051 9.33919 20.7298 10.8214 20.7298H20.7052V28.8693H19.2401C17.8027 28.872 16.6382 30.0366 16.6355 31.474V36.0321C16.6382 37.4695 17.8028 38.634 19.2401 38.6367H23.7982C25.2357 38.634 26.4002 37.4694 26.4029 36.0321V31.474C26.4002 30.0366 25.2356 28.872 23.7982 28.8693H22.3331V20.7298H32.2169C33.6992 20.7298 35.3563 21.9051 35.3563 23.4793V28.8693H33.8912C32.4538 28.872 31.2893 30.0366 31.2866 31.474V36.0321C31.2893 37.4695 32.4539 38.634 33.8912 38.6367H38.4493C39.8868 38.634 41.0513 37.4694 41.054 36.0321V31.474C41.0515 30.0366 39.8869 28.872 38.4496 28.8693ZM9.1472 30.4972C9.68662 30.4972 10.1239 30.9345 10.1239 31.474V36.0321C10.1239 36.5715 9.68662 37.0088 9.1472 37.0088H4.589C4.04958 37.0088 3.61226 36.5715 3.61226 36.0321V31.474C3.61226 30.9345 4.04958 30.4972 4.589 30.4972H9.1472ZM23.7984 30.4972C24.3378 30.4972 24.7751 30.9345 24.7751 31.474V36.0321C24.7751 36.5715 24.3378 37.0088 23.7984 37.0088H19.2403C18.7008 37.0088 18.2635 36.5715 18.2635 36.0321V31.474C18.2635 30.9345 18.7008 30.4972 19.2403 30.4972H23.7984ZM18.4263 12.5902C17.8869 12.5902 17.4495 12.1529 17.4495 11.6134V6.24135C17.4495 5.70193 17.8869 5.2646 18.4263 5.2646H24.6124C25.1518 5.2646 25.5891 5.70193 25.5891 6.24135V11.6134C25.5891 12.1529 25.1518 12.5902 24.6124 12.5902H18.4263ZM39.4263 36.0321C39.4263 36.5715 38.989 37.0088 38.4496 37.0088H33.8914C33.352 37.0088 32.9147 36.5715 32.9147 36.0321V31.474C32.9147 30.9345 33.352 30.4972 33.8914 30.4972H38.4496C38.989 30.4972 39.4263 30.9345 39.4263 31.474V36.0321Z" fill="#3C83F6" stroke="#3C83F6"/>
</svg>
