<svg width="44" height="44" viewBox="0 0 44 44" fill="none" xmlns="http://www.w3.org/2000/svg">
<path d="M33.5542 22.8357V21.1643L36.2113 18.593C36.3832 18.4267 36.4945 18.2077 36.5275 17.9708C36.5605 17.7339 36.5133 17.4928 36.3934 17.2859L33.1793 11.7146C33.0596 11.5082 32.8745 11.3476 32.6532 11.2583C32.432 11.1691 32.1873 11.1562 31.9579 11.2218L28.3901 12.2396C27.9326 11.9264 27.4527 11.6471 26.9544 11.4039L26.0545 7.81472C25.9958 7.577 25.8575 7.36654 25.6626 7.21839C25.4676 7.07024 25.2278 6.99332 24.9831 7.00045H18.5547C18.31 6.99332 18.0702 7.07024 17.8752 7.21839C17.6803 7.36654 17.542 7.577 17.4833 7.81472L16.5833 11.4039C16.085 11.6471 15.6052 11.9264 15.1477 12.2396L11.6121 11.2218C11.3827 11.1562 11.1379 11.1691 10.9167 11.2583C10.6954 11.3476 10.5103 11.5082 10.3907 11.7146L7.17647 17.2859C7.05659 17.4928 7.00939 17.7339 7.0424 17.9708C7.0754 18.2077 7.18672 18.4267 7.35861 18.593L9.98353 21.1643V22.8357L7.32647 25.407C7.15457 25.5733 7.04326 25.7923 7.01025 26.0292C6.97725 26.2661 7.02444 26.5072 7.14433 26.7141L10.3585 32.2854C10.4782 32.4918 10.6633 32.6524 10.8845 32.7417C11.1058 32.8309 11.3505 32.8438 11.5799 32.7782L15.1477 31.7604C15.6052 32.0736 16.085 32.3529 16.5833 32.5961L17.4833 36.1853C17.542 36.423 17.6803 36.6335 17.8752 36.7816C18.0702 36.9298 18.31 37.0067 18.5547 36.9995H24.9831C25.2278 37.0067 25.4676 36.9298 25.6626 36.7816C25.8575 36.6335 25.9958 36.423 26.0545 36.1853L26.9544 32.5961C27.4527 32.3529 27.9326 32.0736 28.3901 31.7604L31.9579 32.7782C32.1873 32.8438 32.432 32.8309 32.6532 32.7417C32.8745 32.6524 33.0596 32.4918 33.1793 32.2854L36.3934 26.7141C36.5133 26.5072 36.5605 26.2661 36.5275 26.0292C36.4945 25.7923 36.3832 25.5733 36.2113 25.407L33.5542 22.8357ZM31.7436 30.4855L28.5294 29.5533C28.3713 29.5085 28.205 29.5007 28.0434 29.5304C27.8817 29.5601 27.7291 29.6266 27.5973 29.7248C26.9958 30.1753 26.3453 30.5563 25.6581 30.8604C25.5063 30.9243 25.3713 31.0223 25.2635 31.1468C25.1557 31.2713 25.0781 31.4189 25.0366 31.5783L24.1474 34.8568H19.3904L18.5547 31.5783C18.5132 31.4189 18.4356 31.2713 18.3278 31.1468C18.2201 31.0223 18.0851 30.9243 17.9333 30.8604C17.2461 30.5563 16.5955 30.1753 15.9941 29.7248C15.8622 29.6266 15.7096 29.5601 15.548 29.5304C15.3864 29.5007 15.2201 29.5085 15.0619 29.5533L11.8478 30.4855L9.44783 26.3713L11.8799 24.0142C11.9979 23.9005 12.0883 23.7611 12.144 23.607C12.1997 23.4528 12.2193 23.2879 12.2013 23.125C12.1013 22.3783 12.1013 21.6217 12.2013 20.875C12.2193 20.7121 12.1997 20.5472 12.144 20.393C12.0883 20.2389 11.9979 20.0995 11.8799 19.9858L9.44783 17.6287L11.8263 13.5145L15.0405 14.4467C15.1986 14.4915 15.3649 14.4993 15.5266 14.4696C15.6882 14.4399 15.8408 14.3734 15.9726 14.2752C16.5741 13.8247 17.2246 13.4437 17.9119 13.1396C18.0676 13.0784 18.2069 12.9816 18.3185 12.857C18.4302 12.7323 18.511 12.5833 18.5547 12.4217L19.3904 9.14325H24.1474L24.9831 12.4217C25.0245 12.5811 25.1022 12.7287 25.2099 12.8532C25.3177 12.9777 25.4527 13.0757 25.6045 13.1396C26.2917 13.4437 26.9422 13.8247 27.5437 14.2752C27.6755 14.3734 27.8282 14.4399 27.9898 14.4696C28.1514 14.4993 28.3177 14.4915 28.4758 14.4467L31.69 13.5145L34.0685 17.6287L31.6364 19.9858C31.5184 20.0995 31.4281 20.2389 31.3723 20.393C31.3166 20.5472 31.297 20.7121 31.315 20.875C31.415 21.6217 31.415 22.3783 31.315 23.125C31.297 23.2879 31.3166 23.4528 31.3723 23.607C31.4281 23.7611 31.5184 23.9005 31.6364 24.0142L34.0685 26.3713L31.7436 30.4855Z" fill="#A856F7"/>
<path d="M22.8394 20.9284H20.6966C20.4125 20.9284 20.1399 20.8155 19.939 20.6146C19.7381 20.4136 19.6252 20.1411 19.6252 19.857C19.6252 19.5728 19.7381 19.3003 19.939 19.0994C20.1399 18.8985 20.4125 18.7856 20.6966 18.7856H22.8394C23.0282 18.7848 23.2138 18.834 23.3775 18.9281C23.5412 19.0221 23.6771 19.1578 23.7715 19.3213C23.8333 19.4579 23.923 19.58 24.0349 19.6798C24.1468 19.7795 24.2784 19.8547 24.4211 19.9004C24.5639 19.9461 24.7147 19.9614 24.8637 19.9452C25.0128 19.9289 25.1567 19.8816 25.2863 19.8063C25.4159 19.7309 25.5283 19.6292 25.6161 19.5077C25.7039 19.3862 25.7653 19.2477 25.7962 19.101C25.8271 18.9543 25.8269 18.8027 25.7956 18.6561C25.7642 18.5095 25.7025 18.3711 25.6143 18.2499C25.3329 17.7625 24.9286 17.3576 24.4416 17.0756C23.9546 16.7935 23.4021 16.6443 22.8394 16.6428V15.5714C22.8394 15.2872 22.7265 15.0147 22.5256 14.8138C22.3247 14.6129 22.0522 14.5 21.768 14.5C21.4839 14.5 21.2113 14.6129 21.0104 14.8138C20.8095 15.0147 20.6966 15.2872 20.6966 15.5714V16.6428C19.8442 16.6428 19.0266 16.9814 18.4238 17.5842C17.8211 18.187 17.4824 19.0045 17.4824 19.857C17.4824 20.7094 17.8211 21.527 18.4238 22.1298C19.0266 22.7325 19.8442 23.0712 20.6966 23.0712H22.8394C23.1236 23.0712 23.3961 23.184 23.597 23.385C23.7979 23.5859 23.9108 23.8584 23.9108 24.1426C23.9108 24.4267 23.7979 24.6992 23.597 24.9002C23.3961 25.1011 23.1236 25.214 22.8394 25.214H20.6966C20.5078 25.2147 20.3222 25.1656 20.1585 25.0715C19.9948 24.9774 19.8589 24.8418 19.7645 24.6783C19.7028 24.5417 19.613 24.4195 19.5011 24.3198C19.3892 24.22 19.2576 24.1448 19.1149 24.0991C18.9721 24.0534 18.8213 24.0382 18.6723 24.0544C18.5232 24.0706 18.3793 24.1179 18.2497 24.1933C18.1201 24.2686 18.0077 24.3703 17.9199 24.4918C17.8321 24.6133 17.7707 24.7519 17.7398 24.8986C17.7089 25.0453 17.7091 25.1968 17.7404 25.3434C17.7718 25.49 17.8335 25.6284 17.9217 25.7497C18.2031 26.237 18.6075 26.6419 19.0944 26.924C19.5814 27.206 20.1339 27.3552 20.6966 27.3568V28.4281C20.6966 28.7123 20.8095 28.9848 21.0104 29.1857C21.2113 29.3867 21.4839 29.4995 21.768 29.4995C22.0522 29.4995 22.3247 29.3867 22.5256 29.1857C22.7265 28.9848 22.8394 28.7123 22.8394 28.4281V27.3568C23.6919 27.3568 24.5094 27.0181 25.1122 26.4153C25.715 25.8126 26.0536 24.995 26.0536 24.1426C26.0536 23.2901 25.715 22.4726 25.1122 21.8698C24.5094 21.267 23.6919 20.9284 22.8394 20.9284Z" fill="#A856F7"/>
</svg>
