<svg width="44" height="44" viewBox="0 0 44 44" fill="none" xmlns="http://www.w3.org/2000/svg">
<path d="M19.9082 37.4086V34.2274C19.9082 33.3488 20.6203 32.6367 21.4989 32.6367C22.3776 32.6367 23.0897 33.3488 23.0897 34.2274V37.4086C23.0897 38.2872 22.3776 39.0001 21.4989 39.0001C20.6203 39.0001 19.9082 38.2872 19.9082 37.4086Z" fill="#3C83F6"/>
<path d="M19.9082 8.77191V5.59064C19.9082 4.71206 20.6203 4 21.4989 4C22.3776 4 23.0897 4.71206 23.0897 5.59064V8.77191C23.0897 9.65048 22.3776 10.3634 21.4989 10.3634C20.6203 10.3634 19.9082 9.65048 19.9082 8.77191Z" fill="#3C83F6"/>
<path d="M27.8633 37.4086V34.2274C27.8633 33.3488 28.5754 32.6367 29.454 32.6367C30.3326 32.6367 31.0448 33.3488 31.0448 34.2274V37.4086C31.0448 38.2872 30.3326 39.0001 29.454 39.0001C28.5754 39.0001 27.8633 38.2872 27.8633 37.4086Z" fill="#3C83F6"/>
<path d="M27.8633 8.77191V5.59064C27.8633 4.71206 28.5754 4 29.454 4C30.3326 4 31.0448 4.71206 31.0448 5.59064V8.77191C31.0448 9.65048 30.3326 10.3634 29.454 10.3634C28.5754 10.3634 27.8633 9.65048 27.8633 8.77191Z" fill="#3C83F6"/>
<path d="M8.77222 19.9102L8.93508 19.9179C9.73737 19.9993 10.3638 20.6771 10.3638 21.5008C10.3638 22.3245 9.73737 23.0023 8.93508 23.0837L8.77222 23.0914H5.59074C4.71211 23.0914 4 22.3794 4 21.5008C4 20.6222 4.71211 19.9102 5.59074 19.9102H8.77222Z" fill="#3C83F6"/>
<path d="M8.77222 27.8594L8.93508 27.8671C9.73737 27.9485 10.3638 28.6263 10.3638 29.45C10.3638 30.2737 9.73737 30.9515 8.93508 31.0329L8.77222 31.0406H5.59074C4.71211 31.0406 4 30.3286 4 29.45C4 28.5714 4.71211 27.8594 5.59074 27.8594H8.77222Z" fill="#3C83F6"/>
<path d="M8.77222 11.9531L8.93508 11.9609C9.73737 12.0423 10.3638 12.72 10.3638 13.5438C10.3638 14.3675 9.73737 15.0452 8.93508 15.1266L8.77222 15.1344H5.59074C4.71211 15.1344 4 14.4223 4 13.5438C4 12.6652 4.71211 11.9531 5.59074 11.9531H8.77222Z" fill="#3C83F6"/>
<path d="M37.4089 19.9102L37.5718 19.9179C38.3741 19.9993 39.0005 20.6771 39.0005 21.5008C39.0005 22.3245 38.3741 23.0023 37.5718 23.0837L37.4089 23.0914H34.2275C33.3488 23.0914 32.6367 22.3794 32.6367 21.5008C32.6367 20.6222 33.3488 19.9102 34.2275 19.9102H37.4089Z" fill="#3C83F6"/>
<path d="M37.4089 27.8594L37.5718 27.8671C38.3741 27.9485 39.0005 28.6263 39.0005 29.45C39.0005 30.2737 38.3741 30.9515 37.5718 31.0329L37.4089 31.0406H34.2275C33.3488 31.0406 32.6367 30.3286 32.6367 29.45C32.6367 28.5714 33.3488 27.8594 34.2275 27.8594H37.4089Z" fill="#3C83F6"/>
<path d="M37.4089 11.9531L37.5718 11.9609C38.3741 12.0423 39.0005 12.72 39.0005 13.5438C39.0005 14.3675 38.3741 15.0452 37.5718 15.1266L37.4089 15.1344H34.2275C33.3488 15.1344 32.6367 14.4223 32.6367 13.5438C32.6367 12.6652 33.3488 11.9531 34.2275 11.9531H37.4089Z" fill="#3C83F6"/>
<path d="M11.9551 37.4086V34.2274C11.9551 33.3488 12.6672 32.6367 13.5458 32.6367C14.4244 32.6367 15.1366 33.3488 15.1366 34.2274V37.4086C15.1366 38.2872 14.4244 39.0001 13.5458 39.0001C12.6672 39.0001 11.9551 38.2872 11.9551 37.4086Z" fill="#3C83F6"/>
<path d="M11.9551 8.77191V5.59064C11.9551 4.71206 12.6672 4 13.5458 4C14.4244 4 15.1366 4.71206 15.1366 5.59064V8.77191C15.1366 9.65048 14.4244 10.3634 13.5458 10.3634C12.6672 10.3634 11.9551 9.65048 11.9551 8.77191Z" fill="#3C83F6"/>
<path d="M32.636 11.9555C32.6359 11.0772 31.9237 10.365 31.0453 10.3649H11.9539C11.0755 10.365 10.3633 11.0772 10.3631 11.9555V31.0457C10.3633 31.924 11.0755 32.6362 11.9539 32.6363H31.0453C31.9237 32.6362 32.6359 31.924 32.636 31.0457V11.9555ZM35.8175 31.0457C35.8173 33.6812 33.6809 35.8174 31.0453 35.8176H11.9539C9.31823 35.8174 7.18182 33.6812 7.18164 31.0457V11.9555C7.18181 9.32004 9.31822 7.18377 11.9539 7.18359H31.0453C33.6809 7.18377 35.8173 9.32004 35.8175 11.9555V31.0457Z" fill="#3C83F6"/>
<path d="M20.5095 27.3341V15.668H22.4894V27.3341H20.5095ZM15.666 22.4909V20.5112H27.3329V22.4909H15.666Z" fill="#3C83F6"/>
</svg>
