<svg width="44" height="44" viewBox="0 0 44 44" fill="none" xmlns="http://www.w3.org/2000/svg">
<path d="M29.5668 29.8945H14.2194C13.3526 29.8945 12.6562 30.5908 12.6562 31.4577V35.4367C12.6562 36.3035 13.3526 36.9998 14.2194 36.9998H29.5668C30.4337 36.9998 31.13 36.3035 31.13 35.4367V31.4577C31.13 30.5908 30.4337 29.8945 29.5668 29.8945ZM29.7089 35.4367C29.7089 35.5219 29.6521 35.5788 29.5668 35.5788H14.2194C14.1341 35.5788 14.0773 35.5219 14.0773 35.4367V31.4577C14.0773 31.3724 14.1341 31.3156 14.2194 31.3156H29.5668C29.6521 31.3156 29.7089 31.3724 29.7089 31.4577V35.4367Z" fill="#3C83F6" stroke="#3C83F6" stroke-width="0.7"/>
<path d="M15.9249 32.595C15.456 32.595 15.0723 32.9787 15.0723 33.4476C15.0723 33.9166 15.456 34.3003 15.9249 34.3003C16.3938 34.3003 16.7775 33.9166 16.7775 33.4476C16.7775 32.9787 16.3938 32.595 15.9249 32.595ZM28.7144 32.7371H21.8933C21.4954 32.7371 21.1828 33.0497 21.1828 33.4476C21.1828 33.8455 21.4954 34.1582 21.8933 34.1582H28.7144C29.1123 34.1582 29.4249 33.8455 29.4249 33.4476C29.4249 33.0497 29.1123 32.7371 28.7144 32.7371ZM25.2328 20.1607L22.3907 17.3186C22.1065 17.0344 21.666 17.0344 21.3818 17.3186L18.5396 20.1607C18.2554 20.445 18.2554 20.8855 18.5396 21.1697C18.8239 21.4539 19.2644 21.4539 19.5486 21.1697L21.1828 19.5355V27.7634C21.1828 28.1471 21.5097 28.4739 21.8933 28.4739C22.277 28.4739 22.6039 28.1471 22.6039 27.7634V19.5355L24.2381 21.1697C24.3024 21.2367 24.3796 21.2901 24.4651 21.3266C24.5506 21.363 24.6425 21.3818 24.7355 21.3818C24.8284 21.3818 24.9203 21.363 25.0058 21.3266C25.0913 21.2901 25.1685 21.2367 25.2328 21.1697C25.517 20.8855 25.517 20.445 25.2328 20.1607Z" fill="#3C83F6" stroke="#3C83F6" stroke-width="0.7"/>
<path d="M29.7938 11.7321C29.5522 11.7321 29.3106 11.7321 29.069 11.7748C27.8469 8.89001 25.0474 7 21.9069 7C18.7664 7 15.9527 8.89001 14.7448 11.7748C14.5032 11.7463 14.2616 11.7321 14.02 11.7321C10.1405 11.7321 7 14.8869 7 18.7521C7 22.6174 10.1547 25.7722 14.02 25.7722H19.7895V24.3511H14.02C10.9363 24.3511 8.42106 21.8358 8.42106 18.7521C8.42106 15.6684 10.9363 13.1532 14.02 13.1532C14.3469 13.1532 14.7021 13.1816 15.0716 13.2669C15.4127 13.3379 15.7679 13.139 15.8816 12.7979C16.7627 10.1832 19.1785 8.42106 21.9211 8.42106C24.6637 8.42106 27.0795 10.1832 27.9606 12.7979C28.0743 13.139 28.4153 13.3379 28.7706 13.2669C29.1543 13.1958 29.4953 13.1532 29.8222 13.1532C32.9059 13.1532 35.4211 15.6684 35.4211 18.7521C35.4211 21.8358 32.9059 24.3511 29.8222 24.3511H24.0527V25.7722H29.8222C33.7017 25.7722 36.8422 22.6174 36.8422 18.7521C36.8422 14.8869 33.6874 11.7321 29.8222 11.7321H29.7938Z" fill="#3C83F6" stroke="#3C83F6" stroke-width="0.7"/>
</svg>
