<svg width="33" height="32" viewBox="0 0 33 32" fill="none" xmlns="http://www.w3.org/2000/svg">
<path d="M7.57044 20.8233C5.82785 20.8233 4.15664 20.1311 2.92444 18.8989C1.69224 17.6667 1 15.9954 1 14.2528C1 12.5103 1.69224 10.839 2.92444 9.60684C4.15664 8.37464 5.82785 7.6824 7.57044 7.6824H9.62664C9.64586 6.9403 10.414 3.53327 11.5093 4.19738C11.636 4.27806 11.7254 4.40572 11.7579 4.5523C11.7904 4.69888 11.7634 4.85238 11.6828 4.97905C11.062 5.9554 10.7333 7.08891 10.7356 8.24591C10.7348 8.39633 10.6747 8.54038 10.5684 8.64674C10.462 8.75311 10.318 8.81319 10.1675 8.81393H7.57044C0.36076 9.10953 0.347195 19.3843 7.57044 19.6912C7.72057 19.6912 7.86455 19.7508 7.9707 19.857C8.07685 19.9631 8.13649 20.1071 8.13649 20.2572C8.13649 20.4074 8.07685 20.5513 7.9707 20.6575C7.86455 20.7637 7.72057 20.8233 7.57044 20.8233ZM26.1265 7.6824H24.0652C23.9224 5.86542 23.1006 4.16886 21.7633 2.93054C20.426 1.69222 18.6713 1.00297 16.8488 1.00005C15.2334 0.994011 13.6636 1.53553 12.3956 2.53626C12.2775 2.62898 12.2011 2.76479 12.1832 2.91381C12.1653 3.06284 12.2073 3.21289 12.3 3.33093C12.3927 3.44898 12.5286 3.52536 12.6776 3.54327C12.8266 3.56119 12.9767 3.51916 13.0947 3.42645C18.2024 -0.508467 25.1142 5.11753 22.351 10.9238C22.2914 11.0579 22.2862 11.2098 22.3364 11.3477C22.3867 11.4855 22.4884 11.5984 22.6202 11.6628C22.7521 11.7271 22.9038 11.7377 23.0433 11.6924C23.1828 11.6472 23.2994 11.5495 23.3683 11.4201C23.7632 10.6032 23.9988 9.71847 24.0624 8.81337H26.1265C33.3057 9.06601 33.3385 19.4527 26.1265 19.6906C25.9795 19.6953 25.84 19.757 25.7377 19.8626C25.6353 19.9682 25.5781 20.1096 25.5781 20.2567C25.5781 20.4038 25.6353 20.5451 25.7377 20.6508C25.84 20.7564 25.9795 20.8181 26.1265 20.8227C34.8458 20.5226 34.8029 7.99778 26.1265 7.68184V7.6824ZM13.0964 16.6578C12.9507 16.6643 12.8132 16.7267 12.7124 16.8321C12.6116 16.9375 12.5554 17.0777 12.5554 17.2235C12.5554 17.3694 12.6116 17.5096 12.7124 17.6149C12.8132 17.7203 12.9507 17.7828 13.0964 17.7893H18.6127C18.7598 17.7846 18.8992 17.7228 19.0015 17.6171C19.1038 17.5114 19.161 17.3701 19.1609 17.223C19.1608 17.0759 19.1035 16.9346 19.0011 16.829C18.8987 16.7234 18.7592 16.6618 18.6122 16.6572L13.0964 16.6578ZM22.0989 17.223C22.0989 17.0405 22.0264 16.8656 21.8974 16.7366C21.7684 16.6076 21.5935 16.5351 21.4111 16.5351C21.2286 16.5351 21.0537 16.6076 20.9247 16.7366C20.7957 16.8656 20.7232 17.0405 20.7232 17.223C20.7232 17.4054 20.7957 17.5804 20.9247 17.7094C21.0537 17.8383 21.2286 17.9108 21.4111 17.9108C21.5935 17.9108 21.7684 17.8383 21.8974 17.7094C22.0264 17.5804 22.0989 17.4054 22.0989 17.223ZM27.8701 28.3139C27.3969 28.3124 26.9373 28.1552 26.5623 27.8665C26.1873 27.5778 25.9178 27.1737 25.7953 26.7166H22.5607C22.0729 26.716 21.6053 26.522 21.2604 26.1771C20.9156 25.8322 20.7215 25.3646 20.7209 24.8769V20.5062H17.5739V26.7692C18.0772 26.9066 18.5134 27.2219 18.8017 27.6567C19.0899 28.0915 19.2105 28.6162 19.1411 29.1332C19.0716 29.6502 18.8169 30.1245 18.4242 30.4678C18.0314 30.8111 17.5274 31.0003 17.0058 31C16.4841 30.9997 15.9803 30.8101 15.5879 30.4664C15.1955 30.1226 14.9412 29.6482 14.8723 29.1311C14.8034 28.614 14.9245 28.0895 15.2132 27.655C15.5018 27.2204 15.9384 26.9055 16.4418 26.7686V20.5062H12.976V24.8769C12.9754 25.3645 12.7815 25.8321 12.4367 26.1769C12.0919 26.5218 11.6245 26.7159 11.1369 26.7166H7.90222C7.76682 27.222 7.45255 27.661 7.01782 27.952C6.58308 28.243 6.05746 28.3663 5.53866 28.2989C5.01986 28.2316 4.54316 27.9781 4.19719 27.5857C3.85121 27.1933 3.65949 26.6886 3.65766 26.1654C3.65583 25.6422 3.84402 25.1362 4.18725 24.7414C4.53047 24.3466 5.00538 24.0898 5.5237 24.0188C6.04202 23.9478 6.56849 24.0674 7.00525 24.3554C7.442 24.6434 7.75934 25.0802 7.89826 25.5845H11.1369C11.2301 25.5856 11.3226 25.568 11.4089 25.5328C11.4952 25.4976 11.5737 25.4456 11.6396 25.3796C11.7055 25.3137 11.7576 25.2353 11.7928 25.1489C11.828 25.0626 11.8455 24.9701 11.8445 24.8769V20.4938C7.67557 20.0784 7.8943 14.0562 12.083 13.9397H18.5749C18.7219 13.9444 18.8614 14.006 18.9637 14.1117C19.0661 14.2173 19.1233 14.3587 19.1233 14.5058C19.1233 14.6529 19.0661 14.7942 18.9637 14.8999C18.8614 15.0055 18.7219 15.0672 18.5749 15.0718H12.083C11.8007 15.0716 11.5211 15.1273 11.2604 15.2358C10.9997 15.3442 10.7631 15.5033 10.5643 15.7037C10.2679 16.0059 10.0669 16.3885 9.98631 16.804C9.90569 17.2194 9.94898 17.6495 10.1108 18.0405C10.2727 18.4316 10.5459 18.7665 10.8965 19.0035C11.2472 19.2405 11.6598 19.3692 12.083 19.3736H21.6145C21.8969 19.3737 22.1765 19.3179 22.4372 19.2094C22.6979 19.1008 22.9344 18.9416 23.1332 18.7411C23.4294 18.4389 23.6302 18.0564 23.7107 17.641C23.7913 17.2256 23.7479 16.7957 23.5861 16.4047C23.4243 16.0138 23.1511 15.679 22.8006 15.442C22.4501 15.205 22.0376 15.0763 21.6145 15.0718H20.8391C20.692 15.0672 20.5526 15.0055 20.4502 14.8999C20.3479 14.7942 20.2906 14.6529 20.2906 14.5058C20.2906 14.3587 20.3479 14.2173 20.4502 14.1117C20.5526 14.006 20.692 13.9444 20.8391 13.9397H21.6145C22.4631 13.9389 23.2788 14.2675 23.8899 14.8562C24.501 15.4449 24.8598 16.2478 24.8907 17.0957C24.9216 17.9437 24.6222 18.7706 24.0556 19.4022C23.489 20.0338 22.6994 20.4209 21.853 20.4819V24.8763C21.852 24.9696 21.8696 25.0621 21.9047 25.1484C21.9399 25.2347 21.992 25.3131 22.0579 25.3791C22.1239 25.445 22.2023 25.4971 22.2886 25.5323C22.375 25.5674 22.4674 25.585 22.5607 25.584H25.7993C25.906 25.1958 26.1192 24.8452 26.4147 24.5718C26.7103 24.2984 27.0764 24.1132 27.4717 24.037C27.867 23.9608 28.2758 23.9968 28.6518 24.1408C29.0277 24.2847 29.3559 24.531 29.5992 24.8518C29.8425 25.1725 29.9913 25.5549 30.0286 25.9558C30.066 26.3567 29.9904 26.76 29.8106 27.1201C29.6307 27.4803 29.3536 27.783 29.0107 27.9939C28.6678 28.2049 28.2727 28.3157 27.8701 28.3139ZM5.82737 25.1301C5.5553 25.1301 5.29437 25.2382 5.10199 25.4306C4.90961 25.623 4.80153 25.8839 4.80153 26.1559C4.80153 26.428 4.90961 26.6889 5.10199 26.8813C5.29437 27.0737 5.5553 27.1818 5.82737 27.1818C6.09944 27.1818 6.36036 27.0737 6.55275 26.8813C6.74513 26.6889 6.85321 26.428 6.85321 26.1559C6.85321 25.8839 6.74513 25.623 6.55275 25.4306C6.36036 25.2382 6.09944 25.1301 5.82737 25.1301ZM15.98 28.8418C15.98 29.1138 16.0881 29.3748 16.2805 29.5672C16.4729 29.7595 16.7338 29.8676 17.0059 29.8676C17.278 29.8676 17.5389 29.7595 17.7313 29.5672C17.9236 29.3748 18.0317 29.1138 18.0317 28.8418C18.0317 28.5697 17.9236 28.3088 17.7313 28.1164C17.5389 27.924 17.278 27.8159 17.0059 27.8159C16.7338 27.8159 16.4729 27.924 16.2805 28.1164C16.0881 28.3088 15.98 28.5697 15.98 28.8418ZM27.8701 25.1301C27.5981 25.1301 27.3372 25.2382 27.1448 25.4306C26.9524 25.623 26.8443 25.8839 26.8443 26.1559C26.8443 26.428 26.9524 26.6889 27.1448 26.8813C27.3372 27.0737 27.5981 27.1818 27.8701 27.1818C28.1422 27.1818 28.4031 27.0737 28.5955 26.8813C28.7879 26.6889 28.896 26.428 28.896 26.1559C28.896 25.8839 28.7879 25.623 28.5955 25.4306C28.4031 25.2382 28.1422 25.1301 27.8701 25.1301Z" fill="#A856F7" stroke="#A856F7" stroke-width="0.7"/>
</svg>
