<svg width="32" height="32" viewBox="0 0 32 32" fill="none" xmlns="http://www.w3.org/2000/svg">
<path fill-rule="evenodd" clip-rule="evenodd" d="M6.89252 5.10935C6.21023 4.90262 5.48902 4.85846 4.7866 4.98041C4.08418 5.10236 3.42006 5.38703 2.84738 5.81165C2.2747 6.23626 1.80936 6.78903 1.48859 7.42572C1.16783 8.06241 1.00055 8.76534 1.00013 9.47826C1.00013 11.9976 3.046 14.0435 5.56535 14.0435H17.3045C19.8238 14.0435 21.8697 11.9976 21.8697 9.47826C21.8693 8.76534 21.702 8.06241 21.3812 7.42572C21.0605 6.78903 20.5951 6.23626 20.0224 5.81165C19.4498 5.38703 18.7856 5.10236 18.0832 4.98041C17.3808 4.85846 16.6596 4.90262 15.9773 5.10935C15.749 2.80391 13.801 1 11.4349 1C9.06883 1 7.12078 2.80391 6.89252 5.10935ZM5.56535 12.7391C3.76535 12.7391 2.30448 11.2783 2.30448 9.47826C2.30496 8.90304 2.45752 8.33818 2.74671 7.84094C3.0359 7.3437 3.45142 6.93176 3.95115 6.6469C4.45089 6.36204 5.01705 6.21438 5.59226 6.2189C6.16746 6.22341 6.73124 6.37994 7.22644 6.67261C7.3321 6.73538 7.45335 6.76702 7.57622 6.76387C7.69908 6.76073 7.81856 6.72293 7.92087 6.65483C8.02319 6.58674 8.10418 6.49111 8.15451 6.37899C8.20484 6.26686 8.22247 6.14279 8.20535 6.02109C8.14031 5.55891 8.17521 5.08815 8.30768 4.64061C8.44016 4.19307 8.66713 3.77916 8.97326 3.42685C9.27939 3.07454 9.65756 2.79202 10.0822 2.59837C10.5069 2.40472 10.9682 2.30446 11.4349 2.30435C11.9016 2.30446 12.3629 2.40472 12.7876 2.59837C13.2123 2.79202 13.5904 3.07454 13.8966 3.42685C14.2027 3.77916 14.4297 4.19307 14.5621 4.64061C14.6946 5.08815 14.7295 5.55891 14.6645 6.02109C14.6474 6.14279 14.665 6.26686 14.7153 6.37899C14.7656 6.49111 14.8466 6.58674 14.949 6.65483C15.0513 6.72293 15.1707 6.76073 15.2936 6.76387C15.4165 6.76702 15.5377 6.73538 15.6434 6.67261C16.1386 6.37994 16.7024 6.22341 17.2776 6.2189C17.8528 6.21438 18.4189 6.36204 18.9187 6.6469C19.4184 6.93176 19.8339 7.3437 20.1231 7.84094C20.4123 8.33818 20.5649 8.90304 20.5653 9.47826C20.5653 11.2783 19.1045 12.7391 17.3045 12.7391H5.56535ZM16.023 22.0659C15.3407 21.8591 14.6195 21.815 13.917 21.9369C13.2146 22.0589 12.5505 22.3436 11.9778 22.7682C11.4051 23.1928 10.9398 23.7456 10.619 24.3822C10.2983 25.0189 10.131 25.7219 10.1306 26.4348C10.1306 28.9541 12.1764 31 14.6958 31H26.4349C28.9543 31 31.0001 28.9541 31.0001 26.4348C30.9997 25.7219 30.8324 25.0189 30.5117 24.3822C30.1909 23.7456 29.7256 23.1928 29.1529 22.7682C28.5802 22.3436 27.9161 22.0589 27.2137 21.9369C26.5112 21.815 25.79 21.8591 25.1077 22.0659C24.8795 19.7604 22.9314 17.9565 20.5653 17.9565C18.1993 17.9565 16.2512 19.7604 16.023 22.0659ZM14.6958 29.6957C12.8958 29.6957 11.4349 28.2348 11.4349 26.4348C11.4354 25.8596 11.588 25.2947 11.8771 24.7975C12.1663 24.3002 12.5819 23.8883 13.0816 23.6034C13.5813 23.3186 14.1475 23.1709 14.7227 23.1754C15.2979 23.1799 15.8617 23.3365 16.3569 23.6291C16.4625 23.6919 16.5838 23.7235 16.7067 23.7204C16.8295 23.7173 16.949 23.6795 17.0513 23.6114C17.1536 23.5433 17.2346 23.4476 17.2849 23.3355C17.3353 23.2234 17.3529 23.0993 17.3358 22.9776C17.2707 22.5154 17.3056 22.0447 17.4381 21.5971C17.5706 21.1496 17.7976 20.7357 18.1037 20.3834C18.4098 20.0311 18.788 19.7485 19.2127 19.5549C19.6373 19.3612 20.0986 19.261 20.5653 19.2609C21.0321 19.261 21.4934 19.3612 21.918 19.5549C22.3427 19.7485 22.7209 20.0311 23.027 20.3834C23.3331 20.7357 23.5601 21.1496 23.6926 21.5971C23.8251 22.0447 23.8599 22.5154 23.7949 22.9776C23.7778 23.0993 23.7954 23.2234 23.8457 23.3355C23.8961 23.4476 23.9771 23.5433 24.0794 23.6114C24.1817 23.6795 24.3012 23.7173 24.424 23.7204C24.5469 23.7235 24.6682 23.6919 24.7738 23.6291C25.269 23.3365 25.8328 23.1799 26.408 23.1754C26.9832 23.1709 27.5494 23.3186 28.0491 23.6034C28.5488 23.8883 28.9644 24.3002 29.2536 24.7975C29.5427 25.2947 29.6953 25.8596 29.6958 26.4348C29.6958 28.2348 28.2349 29.6957 26.4349 29.6957H14.6958ZM27.0871 14.4257L25.5917 12.9302C25.4687 12.8114 25.3039 12.7457 25.1329 12.7472C24.9619 12.7487 24.7983 12.8172 24.6774 12.9382C24.5565 13.0591 24.4879 13.2227 24.4864 13.3937C24.4849 13.5646 24.5507 13.7294 24.6695 13.8524L26.356 15.5389C26.7229 15.9057 27.2205 16.1118 27.7393 16.1118C28.2581 16.1118 28.7556 15.9057 29.1225 15.5389L30.809 13.8524C30.9278 13.7294 30.9936 13.5646 30.9921 13.3937C30.9906 13.2227 30.922 13.0591 30.8011 12.9382C30.6802 12.8172 30.5166 12.7487 30.3456 12.7472C30.1746 12.7457 30.0099 12.8114 29.8869 12.9302L28.3914 14.4257V8.82609C28.3914 8.30719 28.1853 7.80954 27.8184 7.44262C27.4515 7.0757 26.9538 6.86957 26.4349 6.86957H23.8262C23.6533 6.86957 23.4874 6.93828 23.3651 7.06058C23.2428 7.18289 23.174 7.34877 23.174 7.52174C23.174 7.69471 23.2428 7.86059 23.3651 7.9829C23.4874 8.1052 23.6533 8.17391 23.8262 8.17391H26.4349C26.6079 8.17391 26.7738 8.24262 26.8961 8.36493C27.0184 8.48724 27.0871 8.65312 27.0871 8.82609V14.4159V14.4257ZM3.60883 17.6865V23.1739C3.60883 23.6928 3.81496 24.1905 4.18188 24.5574C4.5488 24.9243 5.04645 25.1304 5.56535 25.1304H8.17404C8.34701 25.1304 8.51289 25.0617 8.6352 24.9394C8.75751 24.8171 8.82622 24.6512 8.82622 24.4783C8.82622 24.3053 8.75751 24.1394 8.6352 24.0171C8.51289 23.8948 8.34701 23.8261 8.17404 23.8261H5.56535C5.39238 23.8261 5.2265 23.7574 5.10419 23.6351C4.98189 23.5128 4.91318 23.3469 4.91318 23.1739V17.6865L6.40861 19.182C6.53098 19.3042 6.69693 19.3729 6.86993 19.3729C7.04293 19.3728 7.20882 19.304 7.33111 19.1816C7.4534 19.0593 7.52206 18.8933 7.522 18.7203C7.52194 18.5473 7.45316 18.3814 7.33078 18.2591L5.64426 16.5733C5.46276 16.3913 5.24716 16.247 5.0098 16.1485C4.77244 16.05 4.51798 15.9993 4.261 15.9993C4.00402 15.9993 3.74956 16.05 3.5122 16.1485C3.27484 16.247 3.05924 16.3913 2.87774 16.5733L1.19122 18.2591C1.06884 18.3814 1.00006 18.5473 1 18.7203C0.999939 18.8933 1.06861 19.0593 1.19089 19.1816C1.31318 19.304 1.47907 19.3728 1.65208 19.3729C1.82508 19.3729 1.99102 19.3042 2.11339 19.182L3.60883 17.6865Z" fill="#3C83F6" stroke="#3C83F6" stroke-width="0.8"/>
</svg>
