<svg width="44" height="44" viewBox="0 0 44 44" fill="none" xmlns="http://www.w3.org/2000/svg">
<mask id="mask0_4485_801" style="mask-type:luminance" maskUnits="userSpaceOnUse" x="7" y="7" width="30" height="30">
<path d="M36.1504 36.1504V7.84961H7.84961V36.1504H36.1504Z" fill="white" stroke="white" stroke-width="1.7"/>
<mask id="path-2-inside-1_4485_801" fill="white">
<path d="M37 37V7.00003H7V37H37ZM7.29297 7.293H36.707V36.707H7.29297V7.293Z"/>
</mask>
<path d="M37 37V7.00003H7V37H37ZM7.29297 7.293H36.707V36.707H7.29297V7.293Z" fill="white"/>
<path d="M37 37H38.7V38.7H37V37ZM37 7.00003V5.30003H38.7V7.00003H37ZM7 7.00003H5.3V5.30003H7V7.00003ZM7 37V38.7H5.3V37H7ZM7.29297 7.293H5.59297V5.593H7.29297V7.293ZM36.707 7.293V5.593H38.407V7.293H36.707ZM36.707 36.707H38.407V38.407H36.707V36.707ZM7.29297 36.707V38.407H5.59297V36.707H7.29297ZM37 37H35.3V7.00003H37H38.7V37H37ZM37 7.00003V8.70003H7V7.00003V5.30003H37V7.00003ZM7 7.00003H8.7V37H7H5.3V7.00003H7ZM7 37V35.3H37V37V38.7H7V37ZM7.29297 7.293V5.593H36.707V7.293V8.993H7.29297V7.293ZM36.707 7.293H38.407V36.707H36.707H35.007V7.293H36.707ZM36.707 36.707V38.407H7.29297V36.707V35.007H36.707V36.707ZM7.29297 36.707H5.59297V7.293H7.29297H8.99297V36.707H7.29297Z" fill="white" mask="url(#path-2-inside-1_4485_801)"/>
</mask>
<g mask="url(#mask0_4485_801)">
<path d="M7.73242 20.9668C7.73242 24.4315 10.5666 27.2656 14.0313 27.2656H15.9063L15.9212 27.2649C15.9951 27.2574 16.0528 27.195 16.0528 27.1191C16.0528 27.0433 15.9951 26.9809 15.9212 26.9734L15.9063 26.9727H14.0313C10.7284 26.9727 8.02539 24.2697 8.02539 20.9668C8.0254 17.6639 10.7284 14.961 14.0313 14.961H14.265L14.2778 14.9604C14.3414 14.9548 14.3947 14.9084 14.4082 14.8451C15.1571 11.3399 18.2715 8.71121 22 8.71121C25.7285 8.71121 28.8429 11.3399 29.5918 14.8451L29.595 14.8575C29.6137 14.9185 29.6702 14.961 29.735 14.961H29.9688C33.2716 14.961 35.9746 17.6639 35.9746 20.9668C35.9746 24.2697 33.2715 26.9726 29.9688 26.9727H29.0155C28.9346 26.9727 28.869 27.0382 28.869 27.1191C28.869 27.2 28.9346 27.2656 29.0155 27.2656H29.9688C33.4333 27.2656 36.2675 24.4315 36.2675 20.9668C36.2675 17.5021 33.4334 14.668 29.9688 14.668H29.8525C29.0321 11.0886 25.8284 8.41824 22 8.41824C18.1716 8.41824 14.9679 11.0886 14.1475 14.668H14.0313C10.5666 14.668 7.73243 17.5021 7.73242 20.9668Z" fill="#A856F7" stroke="#A856F7" stroke-width="1.7" stroke-miterlimit="22.926" stroke-linecap="round" stroke-linejoin="round"/>
<path d="M27.9472 28.5269C27.9472 31.9757 25.3493 34.8418 22 35.2838C18.6508 34.8418 16.0527 31.9758 16.0527 28.5269V22.8633L22 20.7624L27.9472 22.8633V28.5269ZM28.2402 22.7597C28.2402 22.6976 28.2011 22.6422 28.1425 22.6215L22.0488 20.4689C22.0211 20.4592 21.9913 20.458 21.9632 20.4653L21.9512 20.4689L15.8574 22.6215C15.7989 22.6422 15.7598 22.6976 15.7598 22.7597V28.5269C15.7598 32.1328 18.4802 35.1247 21.9813 35.5769L21.9906 35.5778C22 35.5784 22.0094 35.5781 22.0188 35.5769C25.5199 35.1246 28.2402 32.1327 28.2402 28.5269V22.7597Z" fill="#A856F7" stroke="#A856F7" stroke-width="1.7" stroke-miterlimit="22.926" stroke-linecap="round" stroke-linejoin="round"/>
<path d="M21.3341 29.5376C21.3915 29.5843 21.4761 29.581 21.5296 29.5277L24.0025 27.0667C24.0599 27.0097 24.0601 26.9169 24.0031 26.8595C23.946 26.8022 23.8533 26.802 23.7959 26.8591L21.4263 29.2172L20.2049 28.0017L20.1938 27.9916C20.1361 27.9448 20.0512 27.9484 19.9977 28.0021C19.9407 28.0595 19.9409 28.1523 19.9982 28.2093L21.323 29.5277L21.3341 29.5376Z" fill="#A856F7" stroke="#A856F7" stroke-width="1.7" stroke-miterlimit="22.926" stroke-linecap="round" stroke-linejoin="round"/>
</g>
</svg>
