<svg width="30" height="30" viewBox="0 0 30 30" fill="none" xmlns="http://www.w3.org/2000/svg">
<path fill-rule="evenodd" clip-rule="evenodd" d="M23.8423 4.58436L25.5523 2.87439L25.5545 0L27.7767 0.00222215L27.7756 2.2244L30 2.22551L29.9978 4.4477L27.1234 4.44547L25.4145 6.15544C30.2844 11.8287 30.0333 20.3974 24.659 25.7717C19.0213 31.4094 9.86593 31.4094 4.22826 25.7717C-1.40942 20.1341 -1.40942 10.9787 4.22826 5.34101C9.60149 -0.0322214 18.1691 -0.284439 23.8423 4.58436ZM23.8379 7.73208L21.4668 10.1043C22.7933 11.8155 23.4503 13.9517 23.3147 16.1127C23.1791 18.2736 22.2602 20.3109 20.7302 21.8429C19.0621 23.5088 16.801 24.4444 14.4436 24.4444C12.0862 24.4444 9.82514 23.5088 8.15707 21.8429C6.49124 20.1749 5.55557 17.9138 5.55557 15.5564C5.55557 13.199 6.49124 10.9379 8.15707 9.26983C11.3603 6.06655 16.4091 5.821 19.8946 8.53206L22.2657 6.161C17.4647 2.15663 10.3048 2.40662 5.79934 6.91209C1.02831 11.6831 1.02831 19.4296 5.79934 24.2007C10.5704 28.9717 18.3169 28.9717 23.0879 24.2007C27.5945 19.6941 27.8434 12.5331 23.8379 7.73208ZM19.8791 11.692L17.4525 14.1186C17.7491 14.7411 17.8458 15.4401 17.7292 16.1197C17.6126 16.7993 17.2885 17.4261 16.8014 17.9141C15.5003 19.2152 13.387 19.2152 12.0859 17.9141C10.7848 16.613 10.7848 14.4997 12.0859 13.1986C12.5739 12.7115 13.2007 12.3874 13.8803 12.2708C14.5599 12.1542 15.2589 12.2509 15.8814 12.5475L18.3069 10.1209C17.0221 9.20885 15.456 8.78081 13.8859 8.91258C12.3158 9.04436 10.843 9.72745 9.72815 10.8409C8.47837 12.092 7.77636 13.788 7.77636 15.5564C7.77636 17.3247 8.47837 19.0208 9.72815 20.2718C10.9792 21.5216 12.6753 22.2236 14.4436 22.2236C16.212 22.2236 17.908 21.5216 19.1591 20.2718C20.2724 19.1567 20.9554 17.6838 21.0872 16.1135C21.219 14.5433 20.791 12.9771 19.8791 11.692ZM15.2292 14.7708C15.126 14.6677 15.0035 14.5858 14.8688 14.53C14.734 14.4742 14.5895 14.4455 14.4436 14.4455C14.2977 14.4455 14.1533 14.4742 14.0185 14.53C13.8837 14.5858 13.7612 14.6677 13.6581 14.7708C13.5549 14.874 13.4731 14.9965 13.4173 15.1312C13.3614 15.266 13.3327 15.4105 13.3327 15.5564C13.3327 15.7023 13.3614 15.8467 13.4173 15.9815C13.4731 16.1163 13.5549 16.2388 13.6581 16.3419C13.7612 16.4451 13.8837 16.5269 14.0185 16.5827C14.1533 16.6386 14.2977 16.6673 14.4436 16.6673C14.5895 16.6673 14.734 16.6386 14.8688 16.5827C15.0035 16.5269 15.126 16.4451 15.2292 16.3419C15.3323 16.2388 15.4142 16.1163 15.47 15.9815C15.5258 15.8467 15.5545 15.7023 15.5545 15.5564C15.5545 15.4105 15.5258 15.266 15.47 15.1312C15.4142 14.9965 15.3323 14.874 15.2292 14.7708Z" fill="#3C83F6"/>
</svg>
