<svg width="44" height="44" viewBox="0 0 44 44" fill="none" xmlns="http://www.w3.org/2000/svg">
<path d="M21.4753 11.6016C21.0553 11.6016 20.7144 11.9424 20.7144 12.3624C20.7144 12.7824 21.0553 13.1233 21.4753 13.1233C21.8953 13.1233 22.2362 12.7824 22.2362 12.3624C22.2362 11.9424 21.8953 11.6016 21.4753 11.6016ZM8.84485 25.2972C9.26485 25.2972 9.60572 24.9563 9.60572 24.5363C9.60572 24.1163 9.26485 23.7755 8.84485 23.7755C8.42485 23.7755 8.08398 24.1163 8.08398 24.5363C8.08398 24.9563 8.42485 25.2972 8.84485 25.2972Z" fill="#A856F7" stroke="#A856F7" stroke-width="0.3"/>
<path d="M27.5652 4C20.7153 4 15.0932 8.72272 14.6584 14.6715C8.13489 14.9987 2 19.7027 2 26.0652C2 28.7241 3.05213 31.3004 4.96739 33.3416C5.3463 34.9038 4.88628 36.5596 3.74467 37.7012C3.63822 37.8076 3.56572 37.9431 3.53633 38.0907C3.50694 38.2383 3.522 38.3913 3.57958 38.5304C3.63717 38.6694 3.73471 38.7883 3.85985 38.8718C3.98499 38.9554 4.13211 39 4.28261 39C6.45261 39 8.54378 38.149 10.0976 36.6497C11.6113 37.1655 13.5863 37.4783 15.3913 37.4783C22.2403 37.4783 27.8618 32.7567 28.2979 26.8091C29.8909 26.7384 31.5479 26.4441 32.8589 25.9974C34.4127 27.4969 36.5039 28.3478 38.6739 28.3478C38.8244 28.3479 38.9715 28.3033 39.0967 28.2197C39.2218 28.1361 39.3193 28.0172 39.3769 27.8782C39.4345 27.7392 39.4496 27.5862 39.4202 27.4386C39.3908 27.291 39.3183 27.1554 39.2118 27.049C38.0702 25.9074 37.6102 24.2516 37.9891 22.6895C39.9044 20.6482 40.9565 18.0719 40.9565 15.413C40.9565 8.80208 34.3491 4 27.5652 4ZM15.3913 35.9565C13.5955 35.9565 11.5492 35.604 10.1784 35.0587C10.0349 35.0015 9.87745 34.9894 9.72689 35.0239C9.57633 35.0584 9.43983 35.1379 9.33554 35.2518C8.41687 36.2562 7.22238 36.9564 5.92084 37.2782C6.64875 35.8835 6.81479 34.2629 6.38482 32.7495C6.35038 32.6286 6.28646 32.5181 6.19878 32.428C4.47252 30.6501 3.52174 28.3904 3.52174 26.0652C3.52174 20.7034 8.95724 16.1739 15.3913 16.1739C21.467 16.1739 26.8043 20.3988 26.8043 26.0652C26.8043 31.5194 21.6845 35.9565 15.3913 35.9565ZM36.7577 21.7758C36.6702 21.8661 36.6063 21.9765 36.5717 22.0974C36.1417 23.6108 36.3078 25.2314 37.0357 26.6261C35.7341 26.3045 34.5396 25.6039 33.6209 24.5996C33.5166 24.4858 33.3801 24.4063 33.2296 24.3718C33.079 24.3373 32.9216 24.3494 32.7781 24.4064C31.5901 24.879 29.8954 25.2063 28.2955 25.2853C28.0732 22.408 26.6379 19.7036 24.1841 17.6957H34.1087C34.5289 17.6957 34.8696 17.355 34.8696 16.9348C34.8696 16.5146 34.5289 16.1739 34.1087 16.1739H21.8465C20.1193 15.2947 18.18 14.7821 16.184 14.6745C16.6212 9.56416 21.5588 5.52174 27.5652 5.52174C33.9994 5.52174 39.4348 10.0513 39.4348 15.413C39.4348 17.7382 38.484 19.9979 36.7577 21.7758Z" fill="#A856F7" stroke="#A856F7" stroke-width="0.3"/>
<path d="M21.4753 23.7755H11.8883C11.4681 23.7755 11.1275 24.1161 11.1275 24.5363C11.1275 24.9566 11.4681 25.2972 11.8883 25.2972H21.4753C21.8955 25.2972 22.2362 24.9566 22.2362 24.5363C22.2362 24.1161 21.8955 23.7755 21.4753 23.7755ZM21.4753 28.3407H8.84485C8.42463 28.3407 8.08398 28.6813 8.08398 29.1016C8.08398 29.5218 8.42463 29.8624 8.84485 29.8624H21.4753C21.8955 29.8624 22.2362 29.5218 22.2362 29.1016C22.2362 28.6813 21.8955 28.3407 21.4753 28.3407ZM34.1057 11.6016H24.5188C24.0985 11.6016 23.7579 11.9422 23.7579 12.3624C23.7579 12.7827 24.0985 13.1233 24.5188 13.1233H34.1057C34.526 13.1233 34.8666 12.7827 34.8666 12.3624C34.8666 11.9422 34.526 11.6016 34.1057 11.6016Z" fill="#A856F7" stroke="#A856F7" stroke-width="0.3"/>
</svg>
