<svg width="44" height="44" viewBox="0 0 44 44" fill="none" xmlns="http://www.w3.org/2000/svg">
<path d="M27.3896 21.9814C27.3896 23.4159 26.8197 24.7916 25.8054 25.8059C24.7911 26.8202 23.4154 27.3901 21.9809 27.3901C20.5465 27.3901 19.1707 26.8202 18.1564 25.8059C17.1421 24.7916 16.5723 23.4159 16.5723 21.9814C16.5723 20.5469 17.1421 19.1712 18.1564 18.1569C19.1707 17.1426 20.5465 16.5728 21.9809 16.5728C23.4154 16.5728 24.7911 17.1426 25.8054 18.1569C26.8197 19.1712 27.3896 20.5469 27.3896 21.9814Z" stroke="#3C83F6" stroke-width="3" stroke-linecap="round" stroke-linejoin="round"/>
<path d="M4.77539 21.982C7.07227 14.6677 13.907 9.36182 21.9785 9.36182C30.0518 9.36182 36.8848 14.6677 39.1816 21.982C36.8848 29.2963 30.0518 34.6022 21.9785 34.6022C13.907 34.6022 7.07227 29.2963 4.77539 21.982Z" stroke="#3C83F6" stroke-width="3" stroke-linecap="round" stroke-linejoin="round"/>
</svg>
