<svg width="44" height="44" viewBox="0 0 44 44" fill="none" xmlns="http://www.w3.org/2000/svg">
<path d="M32.1814 11.9476C28.5697 11.8203 24.4321 9.74532 21.5654 7.24227C21.5171 7.20287 21.4563 7.18109 21.3939 7.18109C21.3298 7.18119 21.2678 7.20417 21.219 7.24571C18.3692 9.73062 14.2194 11.8194 10.6073 11.9476L10.2592 11.9545V23.0891C10.2592 26.6457 11.4855 29.2307 13.4196 31.2116C15.2736 33.1104 17.8416 34.5155 20.7934 35.5947L21.3887 35.8066L21.4241 35.8187C24.6136 34.7056 27.396 33.2402 29.3699 31.2151C31.3031 29.2316 32.5294 26.6457 32.5295 23.0891V11.9545L32.1814 11.9476ZM35.7105 23.0891C35.7105 27.486 34.1528 30.8655 31.648 33.4355C29.3404 35.803 26.291 37.4222 23.099 38.5983L22.4589 38.8283C22.4546 38.8298 22.4502 38.8312 22.4459 38.8326C21.7649 39.0634 21.0266 39.0546 20.3505 38.8119V38.8137C16.9188 37.6286 13.6077 35.9587 11.1432 33.4346C8.63544 30.8662 7.07815 27.4859 7.07812 23.0891V11.9545C7.07812 11.1108 7.41307 10.3014 8.00953 9.70477C8.60613 9.10818 9.41551 8.77254 10.2592 8.7725L10.5125 8.76819C13.1516 8.66804 16.6266 7.03315 19.1391 4.83835L19.152 4.82715L19.2709 4.72979C19.8762 4.25756 20.6233 4.00009 21.3939 4C22.1647 4 22.9124 4.25747 23.5178 4.72979L23.6367 4.82715L23.6505 4.83922L24.1502 5.25882C26.7048 7.31935 30.0283 8.7725 32.5295 8.7725C33.3732 8.77255 34.1825 9.10818 34.7791 9.70477C35.3756 10.3014 35.7105 11.1108 35.7105 11.9545V23.0891Z" fill="#3C83F6"/>
<path d="M25.1622 17.0832C25.787 16.5736 26.7088 16.6102 27.2912 17.1926C27.9119 17.8137 27.9119 18.8203 27.2912 19.4414L20.9282 25.8045C20.3458 26.3869 19.4239 26.4235 18.7991 25.9139L18.6785 25.8045L15.4974 22.6234L15.388 22.5028C14.8782 21.878 14.9149 20.9562 15.4974 20.3737C16.0797 19.7915 17.0009 19.7549 17.6256 20.2643L17.7462 20.3737L19.8029 22.4295L25.0415 17.1926L25.1622 17.0832Z" fill="#3C83F6"/>
</svg>
