<svg width="35" height="36" viewBox="0 0 35 36" fill="none" xmlns="http://www.w3.org/2000/svg">
<path d="M29.1411 23.9238L25.8031 28.7196L23.4476 26.7863C23.3254 26.686 23.1683 26.6383 23.0109 26.6537C22.8535 26.6692 22.7087 26.7465 22.6083 26.8686C22.5585 26.9291 22.5212 26.9989 22.4984 27.0738C22.4756 27.1488 22.4678 27.2275 22.4755 27.3055C22.4832 27.3835 22.5063 27.4591 22.5433 27.5282C22.5803 27.5973 22.6306 27.6583 22.6912 27.7079L25.5461 30.0515C25.6096 30.1039 25.6833 30.1426 25.7625 30.165C25.8417 30.1875 25.9247 30.1932 26.0063 30.182C26.0879 30.1707 26.1662 30.1426 26.2364 30.0995C26.3065 30.0565 26.367 29.9993 26.4139 29.9316L30.1205 24.6056C30.211 24.4757 30.2461 24.3152 30.2182 24.1594C30.1902 24.0037 30.1016 23.8653 29.9717 23.7749C29.8418 23.6845 29.6814 23.6494 29.5256 23.6773C29.3698 23.7052 29.2315 23.7939 29.1411 23.9238Z" fill="#A856F7" stroke="#A856F7"/>
<path d="M30.8246 21.1459V6.36842C30.8219 6.265 30.7919 6.16414 30.7375 6.07614C30.0473 3.51719 24.9062 1 15.9123 1C6.91839 1 1.77723 3.51719 1.08709 6.07614C1.03271 6.16414 1.00266 6.265 1 6.36842V28.4386C1.00006 28.5327 1.02408 28.6253 1.06979 28.7076C1.77365 31.6274 8.07677 33.807 15.9123 33.807C17.8008 33.807 19.6386 33.6758 21.3857 33.4235C22.7269 34.4456 24.3664 34.9994 26.0526 35C30.3283 35 33.807 31.5213 33.807 27.2456C33.807 24.7702 32.6367 22.5667 30.8246 21.1459ZM28.8854 20.0346C28.8019 20.0018 28.7178 19.9726 28.6336 19.9422C28.4481 19.8766 28.2596 19.8181 28.0682 19.7662C27.9727 19.7406 27.8779 19.7143 27.7819 19.6922C27.5855 19.6484 27.3875 19.6122 27.1884 19.5837C27.1001 19.5706 27.013 19.5533 26.9241 19.5431C26.6348 19.5099 26.3439 19.4925 26.0526 19.4912C25.8051 19.4912 25.5611 19.5055 25.3189 19.5288C25.2384 19.5366 25.1597 19.5497 25.0798 19.5592C24.9193 19.5795 24.7594 19.6022 24.602 19.6326C24.5115 19.6502 24.4214 19.6697 24.3318 19.6911C23.9437 19.7791 23.5631 19.8975 23.1936 20.0454C23.1227 20.0734 23.0505 20.0996 22.9807 20.1301C22.7833 20.2154 22.59 20.3084 22.4015 20.4092C22.3866 20.4176 22.3705 20.4241 22.355 20.4325C22.1414 20.5488 21.9351 20.6753 21.734 20.8101C21.712 20.825 21.6911 20.8417 21.669 20.8572C21.496 20.9759 21.3284 21.1018 21.1656 21.2342C21.1256 21.2664 21.088 21.3004 21.0487 21.3338C20.8628 21.4916 20.6843 21.6578 20.5136 21.8319C20.3854 21.9631 20.2619 22.0991 20.1432 22.2399C20.1068 22.2828 20.0698 22.3246 20.0346 22.3681C19.9141 22.5166 19.8008 22.6693 19.6911 22.8268C19.6636 22.8662 19.6344 22.9038 19.6081 22.9431C19.4787 23.137 19.3552 23.3362 19.2431 23.5432C19.2341 23.5593 19.227 23.576 19.218 23.5921C19.1184 23.7788 19.0254 23.9709 18.9407 24.1671C18.8912 24.2811 18.8494 24.3998 18.8047 24.5167C18.7689 24.6121 18.7313 24.7069 18.6991 24.8042C18.6526 24.9432 18.6132 25.0857 18.5744 25.2283C18.5619 25.2742 18.5458 25.3178 18.5345 25.3643C18.2971 25.3804 18.0591 25.3947 17.8205 25.406C17.6612 25.4138 17.5031 25.4239 17.3439 25.4299C16.8667 25.4454 16.3889 25.4561 15.9123 25.4561C15.419 25.4561 14.9358 25.4466 14.4616 25.4299C14.1741 25.4192 13.8967 25.4007 13.6164 25.3846C13.4392 25.3744 13.2567 25.3679 13.0825 25.3553C12.7184 25.3282 12.3547 25.2954 11.9915 25.2569C11.92 25.2492 11.8448 25.2444 11.7738 25.2366C11.3743 25.1929 10.9756 25.142 10.5779 25.0839L10.5349 25.0786C8.51937 24.7809 6.78954 24.327 5.43611 23.7872L5.40568 23.7752C5.16926 23.68 4.93573 23.5778 4.7054 23.4686C4.67737 23.4555 4.64754 23.4424 4.61951 23.4287C4.42088 23.3332 4.23775 23.2348 4.06179 23.1358C4.01825 23.1107 3.97232 23.0863 3.92996 23.0612C3.77726 22.9718 3.63768 22.8799 3.50407 22.788C3.45098 22.7511 3.3967 22.7147 3.34719 22.6777C3.18293 22.5558 3.02635 22.424 2.87835 22.2828C2.75187 22.1592 2.63557 22.0255 2.5306 21.8832C2.4419 21.7594 2.36728 21.6262 2.30811 21.4859C2.28015 21.4169 2.25741 21.3459 2.24011 21.2735C2.21744 21.1763 2.19298 21.0791 2.19298 20.9825V16.0871L2.22698 16.1157C2.36537 16.238 2.50733 16.3596 2.66719 16.4766C4.91716 18.1736 9.40754 19.4912 15.9123 19.4912C22.4021 19.4912 26.8853 18.1795 29.1407 16.4885C29.3136 16.362 29.4687 16.2314 29.6173 16.099L29.6316 16.0865V20.3699C29.6 20.3532 29.566 20.3424 29.5338 20.3257C29.3222 20.2189 29.1058 20.1218 28.8854 20.0346ZM2.55147 9.22979C2.73042 9.37056 2.92368 9.50954 3.13305 9.64495C3.1766 9.67298 3.22551 9.70042 3.27084 9.72846C3.52267 9.88499 3.78119 10.0305 4.04568 10.1645C4.2634 10.2754 4.49186 10.3828 4.73225 10.4878C4.77161 10.5051 4.8074 10.523 4.84737 10.5397C5.12712 10.6584 5.42418 10.7717 5.73316 10.8809C5.81846 10.9113 5.90793 10.9399 5.99561 10.9698C6.24137 11.0527 6.49547 11.132 6.75853 11.2089C6.85337 11.2364 6.94642 11.265 7.04365 11.2919C7.3926 11.3885 7.75288 11.4804 8.13105 11.5651C8.18295 11.577 8.23902 11.5871 8.29151 11.5985C8.75587 11.6995 9.22289 11.7878 9.69207 11.8633C10.0303 11.9188 10.3786 11.9701 10.7359 12.0166C10.8278 12.0285 10.9155 12.0416 11.0085 12.0536C11.4523 12.1073 11.9116 12.1532 12.3834 12.1926C12.4998 12.2021 12.6208 12.2093 12.7389 12.2176C13.1165 12.2451 13.5025 12.2677 13.8973 12.2856C14.0411 12.2922 14.1842 12.2987 14.331 12.3035C14.8458 12.3208 15.3695 12.3333 15.9123 12.3333C16.4551 12.3333 16.9788 12.3208 17.493 12.3035C17.6391 12.2987 17.7823 12.2916 17.9266 12.2856C18.3215 12.2677 18.7074 12.2451 19.085 12.2176C19.2031 12.2087 19.3236 12.2021 19.4405 12.1926C19.8997 12.155 20.3581 12.1087 20.8154 12.0536C20.9085 12.0422 20.9962 12.0285 21.088 12.0166C21.5594 11.9552 22.0294 11.8835 22.4975 11.8013C22.8438 11.7406 23.1889 11.673 23.5325 11.5985C23.5849 11.5871 23.641 11.577 23.6929 11.5651C24.0576 11.4831 24.4202 11.392 24.7803 11.2919C24.8775 11.265 24.9706 11.237 25.0654 11.2089C25.3285 11.1326 25.5826 11.0527 25.8284 10.9698C25.916 10.9399 26.0055 10.9113 26.0908 10.8809C26.3893 10.7758 26.6847 10.662 26.9766 10.5397C27.0166 10.523 27.0524 10.5045 27.0917 10.4878C27.3992 10.3536 27.7013 10.2074 27.9972 10.0494C28.1922 9.94498 28.3778 9.83821 28.5531 9.72846C28.5985 9.70042 28.6474 9.67298 28.6909 9.64495C28.9003 9.50954 29.0935 9.37116 29.2725 9.22979C29.3172 9.194 29.3572 9.15821 29.4007 9.12242C29.4783 9.058 29.56 8.99418 29.6316 8.92916V13.8246C29.6316 13.9218 29.6071 14.0196 29.5839 14.1174C29.5508 14.2553 29.4986 14.3878 29.4288 14.5111C29.3532 14.6489 29.263 14.778 29.1598 14.8965C29.0461 15.0312 28.9214 15.1563 28.7869 15.2705C28.6915 15.3534 28.5919 15.4363 28.4809 15.518C28.4296 15.5562 28.3736 15.5938 28.3193 15.6313C28.1869 15.7226 28.0491 15.8133 27.8982 15.9015C27.854 15.9278 27.8069 15.9534 27.761 15.9791C27.58 16.0818 27.3958 16.1787 27.2086 16.2696L27.1174 16.3119C26.8973 16.4157 26.6676 16.5177 26.4219 16.6161L26.3873 16.6293C25.0338 17.1685 23.3058 17.6224 21.2914 17.9201L21.2473 17.926C20.85 17.9841 20.4517 18.035 20.0525 18.0787C19.9809 18.0865 19.9058 18.0919 19.8336 18.099C19.4763 18.136 19.1154 18.1706 18.7438 18.1974C18.5691 18.21 18.3865 18.2165 18.2088 18.2267C17.929 18.2428 17.6516 18.2619 17.3641 18.272C16.3969 18.306 15.4288 18.306 14.4616 18.272C14.1741 18.2613 13.8967 18.2428 13.6164 18.2267C13.4392 18.2165 13.2567 18.21 13.0825 18.1974C12.7184 18.1703 12.3547 18.1375 11.9915 18.099C11.92 18.0913 11.8448 18.0865 11.7738 18.0787C11.3743 18.035 10.9756 17.9841 10.5779 17.926L10.5349 17.9207C8.51937 17.623 6.78954 17.1691 5.43611 16.6293L5.40568 16.6173C5.16926 16.5221 4.93573 16.4199 4.7054 16.3107C4.67737 16.2976 4.64754 16.2845 4.61951 16.2708C4.42088 16.1753 4.23775 16.0769 4.06179 15.9779C4.01825 15.9528 3.97232 15.9284 3.92996 15.9033C3.77726 15.8139 3.63768 15.722 3.50407 15.6301C3.45098 15.5932 3.3967 15.5568 3.34719 15.5198C3.18293 15.3979 3.02635 15.2661 2.87835 15.1249C2.75187 15.0013 2.63557 14.8676 2.5306 14.7253C2.4419 14.6015 2.36728 14.4683 2.30811 14.328C2.28015 14.259 2.25741 14.188 2.24011 14.1156C2.21744 14.0184 2.19298 13.9212 2.19298 13.8246V8.92916C2.26456 8.99418 2.34628 9.058 2.42382 9.12242C2.46677 9.15821 2.50674 9.194 2.55147 9.22979ZM15.9123 2.19298C23.9971 2.19298 29.6316 4.55032 29.6316 6.66667C29.6316 8.78302 23.9971 11.1404 15.9123 11.1404C7.82744 11.1404 2.19298 8.78302 2.19298 6.66667C2.19298 4.55032 7.82744 2.19298 15.9123 2.19298ZM15.9123 32.614C8.13582 32.614 2.55028 30.4052 2.21207 28.342C2.20761 28.3155 2.20123 28.2894 2.19298 28.2638V23.2449L2.22698 23.2736C2.36537 23.3959 2.50733 23.5175 2.66719 23.6345C4.91716 25.3315 9.40754 26.6491 15.9123 26.6491C16.3877 26.6491 16.8643 26.6378 17.3403 26.6211C17.4828 26.6163 17.6242 26.6086 17.7668 26.602C17.9541 26.5936 18.1426 26.5883 18.3293 26.5769C18.309 26.8036 18.2982 27.0267 18.2982 27.2456C18.2982 27.4991 18.3126 27.7508 18.3364 28.0002C18.3442 28.0807 18.3591 28.1594 18.3692 28.2388C18.3907 28.407 18.4134 28.5746 18.4462 28.7398C18.4635 28.8275 18.4861 28.9128 18.5064 28.9999C18.5428 29.1556 18.5804 29.3107 18.6257 29.464C18.6502 29.5463 18.6788 29.6268 18.7062 29.7085C18.7807 29.9386 18.8681 30.1642 18.9681 30.3844C19.1645 30.8286 19.4026 31.2532 19.6791 31.6525C19.7781 31.7951 19.8825 31.9334 19.9911 32.0694C20.0358 32.1261 20.0806 32.1828 20.1271 32.2376C20.1647 32.2824 20.1987 32.3301 20.2374 32.3742C18.8014 32.5356 17.3574 32.6157 15.9123 32.614ZM26.0526 33.807C25.1874 33.8078 24.3306 33.6367 23.532 33.3037C22.7335 32.9708 22.009 32.4825 21.4006 31.8672C21.3362 31.8022 21.2777 31.7318 21.2163 31.6644C21.1262 31.566 21.0355 31.4676 20.952 31.3644C20.8811 31.2767 20.816 31.1848 20.7492 31.0936C20.6825 31.0037 20.6183 30.912 20.5566 30.8186C20.3713 30.5317 20.2076 30.2315 20.0668 29.9203C20.0191 29.8129 19.9745 29.7041 19.9332 29.594C19.8938 29.4943 19.8568 29.3937 19.8223 29.2922C19.7817 29.1681 19.7477 29.0416 19.7143 28.9152C19.6899 28.8221 19.6624 28.7297 19.6421 28.6348C19.6099 28.4857 19.5873 28.3342 19.5658 28.1821C19.5545 28.1052 19.5389 28.0294 19.5306 27.9507C19.5049 27.7165 19.4918 27.4812 19.4912 27.2456C19.494 26.6777 19.5702 26.1125 19.7179 25.5641C19.7292 25.5206 19.7394 25.477 19.7513 25.4335C19.7889 25.3022 19.833 25.174 19.8778 25.0469C19.9028 24.9772 19.9273 24.9074 19.9541 24.8382C19.9959 24.7326 20.0412 24.6282 20.0883 24.5256C20.2174 24.2412 20.3674 23.9666 20.5369 23.7042C20.5768 23.6416 20.6162 23.579 20.6586 23.5175C20.7421 23.3971 20.8309 23.2801 20.9222 23.1656C20.9538 23.1262 20.9831 23.0857 21.0153 23.0469C21.1393 22.8978 21.2694 22.754 21.4066 22.6162L21.4167 22.6055C21.7075 22.3158 22.0243 22.0537 22.3633 21.8223C22.4021 21.7961 22.4433 21.7722 22.4826 21.7466C22.6091 21.6642 22.7379 21.5849 22.8704 21.5109C22.9312 21.4769 22.9932 21.4465 23.0547 21.4149C23.2405 21.3184 23.431 21.2312 23.6255 21.1536C23.817 21.0774 24.0118 21.0099 24.2095 20.9514C24.327 20.9168 24.4469 20.8876 24.5668 20.8596C24.6467 20.8411 24.7266 20.8214 24.8078 20.8053C24.9402 20.7796 25.075 20.7612 25.2104 20.7433C25.2814 20.7343 25.3512 20.7218 25.4221 20.7152C25.6303 20.6961 25.8397 20.6842 26.0526 20.6842C26.256 20.6842 26.4565 20.6967 26.6551 20.7146C26.7171 20.72 26.7786 20.7284 26.8406 20.7361C26.9802 20.7528 27.118 20.7743 27.2546 20.7993C27.3208 20.8119 27.387 20.8238 27.4532 20.8381C27.5987 20.8697 27.7419 20.9079 27.8833 20.9491C27.931 20.9628 27.9793 20.9741 28.0264 20.9884C28.2012 21.0439 28.3718 21.1077 28.54 21.1769C28.6205 21.2103 28.6987 21.2479 28.778 21.2843C28.8699 21.3266 28.9605 21.3696 29.05 21.4155C29.2149 21.5014 29.3761 21.5941 29.5332 21.6935C29.6232 21.7501 29.7133 21.8062 29.801 21.8676C31.4986 23.0547 32.614 25.0213 32.614 27.2456C32.614 30.8633 29.6704 33.807 26.0526 33.807Z" fill="#A856F7" stroke="#A856F7"/>
</svg>
