<svg width="44" height="44" viewBox="0 0 44 44" fill="none" xmlns="http://www.w3.org/2000/svg">
<path d="M24.3382 8.72023C23.3616 8.49649 22.3654 8.38302 21.3772 8.38302C20.3892 8.38302 19.3929 8.49642 18.4162 8.72023C18.2944 8.74812 18.1857 8.8165 18.1079 8.91418C18.0301 9.01185 17.9877 9.13305 17.9877 9.25795V11.3297C17.0974 11.6232 16.2493 12.0321 15.4653 12.5459L13.8443 11.2533C13.7467 11.1754 13.6255 11.133 13.5006 11.1329C13.3757 11.1329 13.2545 11.1752 13.1568 11.253C12.373 11.8772 11.663 12.5853 11.0471 13.3578C10.4309 14.1304 9.89848 14.9801 9.46453 15.8831C9.41044 15.9957 9.39615 16.1233 9.424 16.245C9.45186 16.3668 9.5202 16.4755 9.61786 16.5534L11.2362 17.844C10.9104 18.7235 10.7014 19.642 10.6143 20.5758L8.59452 21.0368C8.47276 21.0646 8.36404 21.1329 8.28614 21.2305C8.20823 21.3281 8.16575 21.4493 8.16563 21.5742C8.16481 22.576 8.2759 23.5725 8.49581 24.536C8.71559 25.4993 9.04795 26.4453 9.4834 27.3478C9.53771 27.4602 9.62856 27.5509 9.74111 27.6051C9.85366 27.6592 9.98125 27.6736 10.103 27.6458L12.1226 27.1849C12.6076 27.9871 13.1949 28.7228 13.8697 29.3735L12.9702 31.2412C12.916 31.3537 12.9016 31.4813 12.9294 31.6031C12.9571 31.7249 13.0253 31.8336 13.1229 31.9116C13.9057 32.5369 14.7541 33.0714 15.6444 33.5001C16.5346 33.9289 17.4814 34.2589 18.4585 34.4811C18.5803 34.5088 18.7079 34.4943 18.8204 34.4401C18.9329 34.3859 19.0236 34.2951 19.0778 34.1826L19.9771 32.315C20.9064 32.4378 21.8479 32.4378 22.7772 32.315L23.6765 34.1826C23.7307 34.2951 23.8215 34.3859 23.934 34.4402C24.0465 34.4944 24.1741 34.5089 24.2959 34.4812C25.273 34.2589 26.2198 33.9289 27.11 33.5002C28.0005 33.0713 28.8489 32.5369 29.6315 31.9117C29.7291 31.8337 29.7973 31.7249 29.8251 31.6031C29.8528 31.4814 29.8384 31.3538 29.7842 31.2413L28.8848 29.3735C29.5596 28.7228 30.147 27.987 30.632 27.1849L32.6516 27.6458C32.7733 27.6735 32.9009 27.6592 33.0135 27.605C33.126 27.5509 33.2169 27.4602 33.2712 27.3478C33.7066 26.4455 34.0389 25.4995 34.2588 24.536C34.4787 23.5727 34.5898 22.5762 34.589 21.5742C34.5889 21.4493 34.5464 21.3281 34.4685 21.2305C34.3906 21.1329 34.2818 21.0646 34.1601 21.0368L32.1404 20.5758C32.0533 19.642 31.8442 18.7235 31.5184 17.844L33.1368 16.5534C33.2345 16.4755 33.3028 16.3668 33.3307 16.245C33.3585 16.1233 33.3442 15.9957 33.2901 15.8831C32.8562 14.9801 32.3237 14.1304 31.7076 13.3578C31.0913 12.5851 30.3814 11.8769 29.5977 11.253C29.5 11.1753 29.3788 11.1329 29.2539 11.133C29.129 11.1331 29.0078 11.1755 28.9102 11.2534L27.2892 12.546C26.5052 12.0321 25.6572 11.6232 24.7668 11.3297V9.25802C24.7667 9.13312 24.7243 9.01194 24.6465 8.91426C24.5686 8.81659 24.46 8.74819 24.3382 8.72023ZM26.9949 13.6807C27.0925 13.7501 27.21 13.7859 27.3298 13.7826C27.4495 13.7793 27.5649 13.7371 27.6585 13.6624L29.248 12.3949C29.8313 12.8935 30.3659 13.4462 30.8448 14.0457C31.3227 14.6459 31.7426 15.2901 32.0989 15.9697L30.5122 17.235C30.4186 17.3097 30.3518 17.4128 30.3219 17.5287C30.2921 17.6447 30.3007 17.7672 30.3466 17.8778C30.7659 18.888 31.0091 19.9564 31.0695 21.0532C31.0761 21.1728 31.1215 21.287 31.1987 21.3785C31.2759 21.4701 31.3808 21.534 31.4976 21.5607L33.4781 22.0128C33.452 22.7796 33.3532 23.5422 33.1831 24.2904C33.0118 25.0383 32.7699 25.7683 32.4607 26.4705L30.4812 26.0186C30.3645 25.9921 30.2425 26.0041 30.1333 26.0529C30.0241 26.1017 29.9337 26.1847 29.8758 26.2893C29.3464 27.2461 28.6593 28.1067 27.8436 28.8349C27.7544 28.9147 27.6935 29.0213 27.6702 29.1386C27.6468 29.256 27.6623 29.3778 27.7142 29.4856L28.5961 31.3167C27.9803 31.7743 27.3224 32.1726 26.6314 32.506C25.9398 32.8384 25.2183 33.1044 24.4765 33.3006L23.5949 31.4698C23.543 31.3621 23.4575 31.2742 23.3513 31.2193C23.2451 31.1644 23.1239 31.1454 23.006 31.1652C22.4611 31.2573 21.9132 31.304 21.3773 31.304C20.8414 31.304 20.2935 31.2573 19.7486 31.1652C19.6307 31.1455 19.5095 31.1645 19.4033 31.2194C19.2971 31.2743 19.2116 31.3622 19.1596 31.4698L18.2781 33.3006C17.5363 33.1045 16.8147 32.8384 16.1232 32.506C15.4322 32.1726 14.7743 31.7743 14.1585 31.3167L15.0403 29.4856C15.0922 29.3778 15.1077 29.256 15.0843 29.1386C15.061 29.0213 15.0001 28.9147 14.9109 28.8349C14.0952 28.1067 13.4082 27.2461 12.8788 26.2893C12.8208 26.1847 12.7304 26.1018 12.6212 26.0529C12.5121 26.0041 12.39 25.9921 12.2734 26.0186L10.2938 26.4705C9.98463 25.7683 9.74277 25.0383 9.57145 24.2904C9.40132 23.5422 9.30253 22.7796 9.27641 22.0128L11.257 21.5607C11.3738 21.534 11.4787 21.4701 11.5559 21.3785C11.6331 21.287 11.6785 21.1728 11.6851 21.0532C11.7455 19.9564 11.9886 18.888 12.408 17.8778C12.4539 17.7672 12.4626 17.6447 12.4327 17.5287C12.4028 17.4128 12.336 17.3097 12.2424 17.235L10.6557 15.9697C11.0119 15.2901 11.4318 14.6459 11.9098 14.0457C12.3886 13.4462 12.9232 12.8934 13.5064 12.3949L15.0959 13.6624C15.1896 13.7371 15.305 13.7793 15.4247 13.7826C15.5444 13.7859 15.662 13.7501 15.7596 13.6807C16.6542 13.0446 17.6406 12.5689 18.6918 12.2669C18.8069 12.2338 18.9081 12.1642 18.9801 12.0686C19.0522 11.9729 19.0911 11.8564 19.0911 11.7367V9.7055C20.6013 9.41443 22.1532 9.41443 23.6634 9.7055V11.7367C23.6634 11.8564 23.7024 11.9729 23.7744 12.0685C23.8465 12.1642 23.9477 12.2338 24.0627 12.2669C25.1132 12.5686 26.1047 13.0467 26.9949 13.6807ZM15.0331 21.347C15.0331 24.8451 17.8791 27.6911 21.3772 27.6911C24.8753 27.6911 27.7212 24.8451 27.7212 21.347C27.7212 17.8489 24.8753 15.0029 21.3772 15.0029C17.8791 15.0029 15.0331 17.8488 15.0331 21.347ZM26.618 21.347C26.618 24.2368 24.2669 26.5877 21.3772 26.5877C18.4875 26.5877 16.1365 24.2368 16.1365 21.347C16.1365 18.4572 18.4875 16.1063 21.3772 16.1063C24.2669 16.1063 26.618 18.4572 26.618 21.347ZM20.6903 22.6374L23.8878 19.4398C23.9916 19.3382 24.1314 19.2815 24.2767 19.2823C24.4221 19.283 24.5612 19.3411 24.664 19.4439C24.7668 19.5466 24.8248 19.6858 24.8256 19.8311C24.8264 19.9764 24.7697 20.1162 24.6681 20.22L21.0823 23.8058C21.0311 23.8571 20.9703 23.8978 20.9034 23.9256C20.8364 23.9533 20.7647 23.9675 20.6922 23.9674C20.5467 23.9677 20.4071 23.9102 20.3039 23.8077L18.3642 21.8858C18.2625 21.7823 18.2057 21.643 18.2059 21.4979C18.2062 21.3528 18.2636 21.2137 18.3657 21.1107C18.4678 21.0076 18.6064 20.9489 18.7515 20.9473C18.8965 20.9456 19.0364 21.0012 19.1408 21.1019L20.6903 22.6374ZM25.9584 5.57808C25.9587 5.57043 25.9592 5.56277 25.9598 5.55511C25.9605 5.54507 25.9613 5.53502 25.9626 5.5249C25.9637 5.51629 25.9652 5.50767 25.9667 5.49906C25.9683 5.4901 25.9698 5.48115 25.9719 5.47219C25.9741 5.46249 25.9768 5.45285 25.9795 5.44321C25.9812 5.43754 25.9822 5.43186 25.9841 5.42626C25.9848 5.42386 25.9859 5.42161 25.9867 5.41922C25.9899 5.40985 25.9936 5.40062 25.9972 5.39139C26.0005 5.38312 26.0036 5.37485 26.0072 5.36685C26.0082 5.3648 26.0088 5.36268 26.0098 5.36063C26.0124 5.35496 26.0157 5.34963 26.0186 5.34402C26.0232 5.33493 26.0278 5.32584 26.0329 5.31709C26.0364 5.31093 26.0404 5.30505 26.0442 5.29904C26.0502 5.28954 26.0562 5.2801 26.0627 5.27108C26.0665 5.26582 26.0707 5.26089 26.0746 5.25584C26.0817 5.24674 26.0888 5.23765 26.0964 5.22904C26.1008 5.22405 26.1055 5.2194 26.1102 5.21461C26.1178 5.20655 26.1255 5.19855 26.1336 5.19103C26.139 5.18597 26.1447 5.18132 26.1503 5.17647C26.158 5.16975 26.1659 5.16323 26.1739 5.15692C26.1804 5.15193 26.1873 5.14728 26.194 5.14256C26.2017 5.13716 26.2094 5.13176 26.2174 5.12677C26.2247 5.12219 26.2324 5.11795 26.2401 5.11372C26.248 5.10927 26.2558 5.10483 26.264 5.1008C26.2718 5.0969 26.2797 5.09348 26.2877 5.09C26.2962 5.08617 26.3048 5.08255 26.3135 5.07913C26.3162 5.0781 26.3187 5.0768 26.3214 5.07584L29.198 4.03302C29.2662 4.00833 29.3385 3.9973 29.4108 4.00056C29.4832 4.00381 29.5542 4.02129 29.6198 4.052C29.6855 4.0827 29.7444 4.12603 29.7933 4.17951C29.8421 4.23298 29.88 4.29556 29.9047 4.36367C29.9294 4.43178 29.9404 4.50409 29.9371 4.57646C29.9339 4.64883 29.9164 4.71985 29.8857 4.78547C29.855 4.85109 29.8117 4.91002 29.7582 4.95889C29.7047 5.00776 29.6421 5.04562 29.574 5.07031L28.1143 5.59948C30.9836 6.8024 33.4619 8.74464 35.3426 11.2802C37.5746 14.2892 38.7544 17.8656 38.7544 21.6228C38.7544 26.2644 36.9468 30.6282 33.6647 33.9103C30.3826 37.1924 26.0188 39 21.3772 39C17.9707 39 14.6722 38.0145 11.8382 36.1501C11.716 36.0697 11.6307 35.944 11.6011 35.8007C11.5715 35.6574 11.6001 35.5082 11.6805 35.386C11.7609 35.2638 11.8866 35.1785 12.0299 35.1489C12.1732 35.1193 12.3224 35.1479 12.4446 35.2283C15.0979 36.974 18.1867 37.8967 21.3772 37.8967C30.3506 37.8967 37.6511 30.5962 37.6511 21.6228C37.6511 14.9022 33.5882 8.96749 27.4285 6.51071L28.0668 8.27152C28.0971 8.35485 28.1068 8.44423 28.0951 8.5321C28.0835 8.61998 28.0508 8.70375 28 8.77633C27.9491 8.84891 27.8814 8.90816 27.8028 8.94906C27.7242 8.98997 27.6368 9.01132 27.5482 9.01131C27.3226 9.01131 27.1109 8.87186 27.0295 8.6475L25.9909 5.78234C25.989 5.77708 25.9877 5.77175 25.986 5.76648C25.983 5.75725 25.98 5.74803 25.9775 5.73866C25.9754 5.73094 25.9737 5.72321 25.9719 5.71549C25.9696 5.70554 25.9676 5.69553 25.9658 5.68548C25.9646 5.67814 25.9636 5.67078 25.9627 5.6634C25.9613 5.65286 25.9603 5.64228 25.9595 5.63168C25.9591 5.62441 25.9588 5.61714 25.9586 5.60987C25.9582 5.59928 25.9581 5.58868 25.9584 5.57808ZM8.94056 33.7593C5.78514 30.5248 4 26.1755 4 21.6228C4 16.9812 5.8075 12.6174 9.08965 9.33533C12.3717 6.05318 16.7356 4.24562 21.3772 4.24562C22.3364 4.24562 23.2988 4.32444 24.2376 4.48002C24.3819 4.50394 24.5108 4.58422 24.596 4.70318C24.6811 4.82215 24.7155 4.97007 24.6916 5.1144C24.6417 5.41511 24.3574 5.61835 24.0572 5.56844C23.1714 5.42224 22.275 5.34883 21.3772 5.34894C12.4038 5.34894 5.10332 12.6493 5.10332 21.6228C5.10332 25.9076 6.79229 29.9995 9.77489 33.0333V31.2769C9.77489 31.1306 9.83301 30.9902 9.93646 30.8868C10.0399 30.7833 10.1802 30.7252 10.3265 30.7252C10.4729 30.7252 10.6132 30.7833 10.7166 30.8868C10.8201 30.9902 10.8782 31.1306 10.8782 31.2769V34.311C10.8782 34.3134 10.8779 34.3157 10.8779 34.3182C10.8777 34.3288 10.877 34.3394 10.8763 34.35C10.8757 34.3576 10.8754 34.3654 10.8746 34.3729C10.8734 34.3831 10.8716 34.3933 10.8699 34.4034C10.8686 34.4112 10.8675 34.419 10.866 34.4267C10.8639 34.4364 10.8612 34.4459 10.8586 34.4555C10.8565 34.4632 10.8546 34.4712 10.8522 34.4788C10.8492 34.4881 10.8456 34.4972 10.8421 34.5062C10.8392 34.5139 10.8365 34.5217 10.8333 34.5292C10.8295 34.5379 10.8251 34.5464 10.8209 34.555C10.8171 34.5626 10.8135 34.5703 10.8094 34.5777C10.8051 34.5855 10.8001 34.5931 10.7954 34.6008C10.7906 34.6086 10.7859 34.6164 10.7807 34.624C10.7759 34.6309 10.7706 34.6376 10.7655 34.6443C10.7595 34.6521 10.7535 34.66 10.7472 34.6675C10.7455 34.6695 10.7442 34.6716 10.7424 34.6735C10.7389 34.6776 10.7349 34.681 10.7314 34.6849C10.7238 34.6933 10.7159 34.7014 10.7078 34.7092C10.6944 34.7221 10.6803 34.7343 10.6655 34.7457C10.6582 34.7515 10.6507 34.7572 10.643 34.7626C10.6354 34.7679 10.6276 34.773 10.6197 34.7778C10.6117 34.7828 10.6037 34.788 10.5955 34.7925C10.5871 34.7972 10.5784 34.8014 10.5697 34.8057C10.5618 34.8096 10.5539 34.8137 10.5458 34.8171C10.5358 34.8215 10.5255 34.8251 10.5152 34.8289C10.508 34.8315 10.5011 34.8344 10.4939 34.8367C10.4816 34.8405 10.4692 34.8438 10.4566 34.8466C10.451 34.848 10.4454 34.8498 10.4396 34.851C10.4266 34.8537 10.4133 34.8554 10.4 34.8572C10.3944 34.858 10.3889 34.8592 10.3833 34.8597C10.3784 34.8602 10.3735 34.8601 10.3686 34.8605C10.3546 34.8618 10.3405 34.8625 10.3264 34.8627L10.3255 34.8626L7.01671 34.8627C6.8704 34.8627 6.73008 34.8045 6.62663 34.7011C6.52317 34.5976 6.46505 34.4573 6.46505 34.311C6.46505 34.1647 6.52317 34.0244 6.62663 33.9209C6.73008 33.8175 6.8704 33.7593 7.01671 33.7593L8.94056 33.7593Z" fill="#A856F7" stroke="#A856F7" stroke-width="0.6"/>
</svg>
