<svg width="44" height="44" viewBox="0 0 44 44" fill="none" xmlns="http://www.w3.org/2000/svg">
<mask id="mask0_4484_770" style="mask-type:luminance" maskUnits="userSpaceOnUse" x="6" y="6" width="32" height="32">
<path d="M7 7H37V37H7V7Z" fill="white" stroke="white" stroke-width="1.5"/>
</mask>
<g mask="url(#mask0_4484_770)">
<path d="M11.4531 22.8855V27.2773H13.3886C13.6169 28.3972 14.0641 29.4366 14.6751 30.3585L13.2992 31.7343L15.7852 34.2203L17.1611 32.8445C18.0829 33.4555 19.1223 33.9026 20.2422 34.1309V36.125H23.7578V34.1309C24.8777 33.9026 25.9171 33.4555 26.8389 32.8445L28.2147 34.2203L30.7008 31.7343L29.3249 30.3585C29.9359 29.4366 30.3831 28.3972 30.6114 27.2773H32.5469V22.8855" stroke="#3C83F6" stroke-width="1.5" stroke-miterlimit="10" stroke-linecap="round" stroke-linejoin="round"/>
<path d="M34.3047 19.3672H9.69531V22.0039C9.69531 22.0039 15.8477 23.7617 22 23.7617C28.1523 23.7617 34.3047 22.0039 34.3047 22.0039V19.3672Z" stroke="#3C83F6" stroke-width="1.5" stroke-miterlimit="10" stroke-linecap="round" stroke-linejoin="round"/>
<path d="M26.849 23.4518C27.121 24.0878 27.2715 24.788 27.2715 25.5234C27.2715 28.4359 24.9105 30.7969 21.998 30.7969C19.0856 30.7969 16.7246 28.4359 16.7246 25.5234C16.7246 24.788 16.8752 24.0878 17.1471 23.4518" stroke="#3C83F6" stroke-width="1.5" stroke-miterlimit="10" stroke-linecap="round" stroke-linejoin="round"/>
<path d="M11.4883 19.3672C11.8137 15.4224 14.31 12.0346 17.7798 10.5184" stroke="#3C83F6" stroke-width="1.5" stroke-miterlimit="10" stroke-linecap="round" stroke-linejoin="round"/>
<path d="M26.2188 10.5184C29.6886 12.0346 32.1849 15.4224 32.5103 19.3672" stroke="#3C83F6" stroke-width="1.5" stroke-miterlimit="10" stroke-linecap="round" stroke-linejoin="round"/>
<path d="M23.7584 15.8516L26.8703 8.89221C25.3756 8.24527 23.7302 7.88281 22.0006 7.88281C20.271 7.88281 18.6256 8.24527 17.1309 8.89221L20.2428 15.8516" stroke="#3C83F6" stroke-width="1.5" stroke-miterlimit="10" stroke-linecap="round" stroke-linejoin="round"/>
</g>
</svg>
