<svg width="44" height="44" viewBox="0 0 44 44" fill="none" xmlns="http://www.w3.org/2000/svg">
<path d="M9.29318 11.3524C9.91039 10.8488 10.821 10.8851 11.3964 11.4604L16.111 16.1738L16.2183 16.2929C16.7219 16.91 16.6863 17.8206 16.111 18.396C15.5358 18.9712 14.625 19.0073 14.0078 18.5041L13.8886 18.396L10.2848 14.7925L6.6818 18.396L6.56264 18.5041C5.9455 19.0072 5.03552 18.971 4.46026 18.396C3.84658 17.7824 3.84658 16.7874 4.46026 16.1738L9.17402 11.4604L9.29318 11.3524Z" fill="#A856F7"/>
<path d="M8.71289 28.2839V12.5711C8.71289 11.7033 9.41628 11 10.2841 11C11.152 11 11.8554 11.7033 11.8554 12.5711V28.2839L11.8631 28.4388C11.8987 28.7986 12.058 29.1367 12.3159 29.3946C12.6105 29.6892 13.01 29.855 13.4267 29.855H22.855L23.0159 29.8636C23.8083 29.9439 24.427 30.6126 24.4271 31.4262C24.4271 32.2398 23.8084 32.9092 23.0159 32.9896L22.855 32.9973H13.4267C12.1765 32.9972 10.9775 32.5007 10.0935 31.6168C9.26481 30.7882 8.77675 29.6829 8.71885 28.518L8.71289 28.2839Z" fill="#A856F7"/>
<path d="M35.8887 25.6049C36.5024 24.9912 37.4975 24.9912 38.1111 25.6049C38.7243 26.2184 38.7243 27.2127 38.1111 27.8262L33.3965 32.5404C32.7828 33.154 31.7878 33.154 31.1741 32.5404L26.4604 27.8262L26.3523 27.707C25.8489 27.0899 25.8851 26.1801 26.4604 25.6049C27.0357 25.0296 27.9455 24.9934 28.5627 25.4968L28.6819 25.6049L32.2849 29.2067L35.8887 25.6049Z" fill="#A856F7"/>
<path d="M30.7135 31.4262V15.7133C30.7134 15.2968 30.5483 14.8972 30.2538 14.6027C29.996 14.3449 29.6576 14.1857 29.298 14.1499L29.1422 14.1422H19.7138C18.846 14.1422 18.1426 13.4389 18.1426 12.5711C18.1426 11.7033 18.846 11 19.7138 11H29.1422L29.3763 11.006C30.5413 11.0638 31.6466 11.5519 32.4754 12.3805C33.3594 13.2644 33.8567 14.4633 33.8568 15.7133V31.4262C33.8568 32.2939 33.1526 32.9973 32.2847 32.9973C31.417 32.997 30.7135 32.2938 30.7135 31.4262Z" fill="#A856F7"/>
</svg>
