<svg width="44" height="44" viewBox="0 0 44 44" fill="none" xmlns="http://www.w3.org/2000/svg">
<path d="M34.6919 11.2307C34.6919 10.7207 34.4891 10.2317 34.1285 9.87105C33.7678 9.51041 33.2788 9.30765 32.7688 9.30765H11.2307C10.7207 9.30765 10.2317 9.51041 9.87105 9.87105C9.51041 10.2317 9.30765 10.7207 9.30765 11.2307V33.0603L13.4918 28.8761L13.6676 28.7319C13.8557 28.6065 14.0781 28.5381 14.3076 28.5381H32.7688C33.2788 28.5381 33.7678 28.3354 34.1285 27.9747C34.4891 27.6141 34.6919 27.1251 34.6919 26.6151V11.2307ZM36.9995 26.6151C36.9995 27.7371 36.5535 28.8129 35.76 29.6063C34.9666 30.3997 33.8909 30.8458 32.7688 30.8458H14.7853L8.96962 36.6615C8.63966 36.9914 8.14326 37.0909 7.71213 36.9124C7.28097 36.7338 7 36.3124 7 35.8457V11.2307C7 10.1086 7.44605 9.03287 8.23946 8.23946C9.03287 7.44605 10.1086 7 11.2307 7H32.7688C33.8909 7 34.9666 7.44605 35.76 8.23946C36.5535 9.03287 36.9995 10.1086 36.9995 11.2307V26.6151Z" fill="#3C83F6"/>
<path d="M15.8603 17.7695L15.9789 17.7755C16.5606 17.8348 17.0141 18.3261 17.0141 18.9234C17.0141 19.5207 16.5606 20.0119 15.9789 20.0712L15.8603 20.0772H15.8452C15.208 20.0772 14.6914 19.5606 14.6914 18.9234C14.6914 18.2861 15.208 17.7695 15.8452 17.7695H15.8603Z" fill="#3C83F6"/>
<path d="M22.0146 17.7695L22.1332 17.7755C22.7149 17.8348 23.1684 18.3261 23.1684 18.9234C23.1684 19.5207 22.7149 20.0119 22.1332 20.0712L22.0146 20.0772H21.9995C21.3623 20.0772 20.8457 19.5606 20.8457 18.9234C20.8457 18.2861 21.3623 17.7695 21.9995 17.7695H22.0146Z" fill="#3C83F6"/>
<path d="M28.1689 17.7695L28.2875 17.7755C28.8692 17.8348 29.3227 18.3261 29.3227 18.9234C29.3227 19.5207 28.8692 20.0119 28.2875 20.0712L28.1689 20.0772H28.1538C27.5166 20.0772 27 19.5606 27 18.9234C27 18.2861 27.5166 17.7695 28.1538 17.7695H28.1689Z" fill="#3C83F6"/>
</svg>
