<svg width="44" height="44" viewBox="0 0 44 44" fill="none" xmlns="http://www.w3.org/2000/svg">
<path d="M38.2775 19.3207C38.3751 19.3964 38.4389 19.5076 38.4549 19.6301C38.4709 19.7526 38.4379 19.8765 38.3629 19.9748L36.5866 22.2565L36.5569 22.2899L36.5346 22.3122C36.4951 22.3462 36.4514 22.3749 36.4045 22.3977H36.3822C36.33 22.418 36.2747 22.4293 36.2187 22.4311C36.1613 22.4309 36.1045 22.4195 36.0515 22.3977L35.9995 22.3717C35.9772 22.3717 35.9549 22.3494 35.9363 22.3345L33.636 20.5731C33.5374 20.4982 33.4727 20.3872 33.4559 20.2645C33.4392 20.1419 33.4719 20.0176 33.5468 19.919C33.6217 19.8205 33.7327 19.7557 33.8553 19.739C33.978 19.7222 34.1023 19.7549 34.2008 19.8298L35.717 20.9893C35.4755 17.6981 34.0818 14.5974 31.7808 12.2319C29.4798 9.86645 26.4187 8.38763 23.1355 8.05531C19.8523 7.72299 16.557 8.55845 13.8287 10.4149C11.1003 12.2713 9.11358 15.0299 8.21749 18.2059C8.20115 18.2647 8.17338 18.3197 8.13577 18.3678C8.09816 18.4158 8.05145 18.456 7.99831 18.486C7.94517 18.5161 7.88663 18.5353 7.82605 18.5427C7.76546 18.5501 7.70401 18.5455 7.64521 18.5292C7.5864 18.5128 7.53139 18.4851 7.48332 18.4474C7.43525 18.4098 7.39505 18.3631 7.36503 18.31C7.3044 18.2027 7.28888 18.0757 7.3219 17.9569C8.26039 14.5784 10.3557 11.6369 13.242 9.64587C16.1283 7.65487 19.6222 6.74088 23.1138 7.06348C26.6053 7.38608 29.8726 8.92478 32.3453 11.4109C34.8179 13.8971 36.3388 17.1727 36.6423 20.666L37.6271 19.3802C37.7039 19.2895 37.8122 19.2314 37.9302 19.2176C38.0482 19.2038 38.167 19.2353 38.2626 19.3059L38.2775 19.3207ZM36.1555 26.0098C35.2225 29.3988 33.126 32.3512 30.2338 34.3489C27.3415 36.3466 23.8382 37.2622 20.3383 36.935C16.8384 36.6078 13.5655 35.0587 11.0937 32.5595C8.6218 30.0603 7.10886 26.7705 6.82022 23.2673L5.83544 24.5531C5.79198 24.6103 5.73575 24.6566 5.67122 24.6882C5.6067 24.7198 5.53568 24.7359 5.46383 24.7352C5.36217 24.7352 5.26319 24.7026 5.1814 24.6422C5.08374 24.5666 5.01996 24.4553 5.00395 24.3328C4.98794 24.2103 5.021 24.0864 5.09593 23.9882L6.85738 21.6916L6.87968 21.673C6.90174 21.649 6.92671 21.6278 6.954 21.6099C6.97509 21.5904 6.99887 21.5742 7.02461 21.5616L7.10265 21.5355C7.13342 21.5306 7.16478 21.5306 7.19555 21.5355H7.22528C7.2438 21.5334 7.2625 21.5334 7.28102 21.5355C7.31187 21.5317 7.34308 21.5317 7.37393 21.5355L7.4594 21.5764L7.50771 21.6024L9.80801 23.3639C9.90657 23.4388 9.97133 23.5498 9.98806 23.6724C10.0048 23.7951 9.9721 23.9194 9.8972 24.0179C9.82229 24.1165 9.7113 24.1813 9.58864 24.198C9.46599 24.2147 9.34171 24.182 9.24315 24.1071L7.72696 22.9477C7.95736 26.2487 9.34696 29.3622 11.6503 31.738C13.9536 34.1139 17.0225 35.5992 20.3148 35.9318C23.6072 36.2644 26.9111 35.4227 29.6431 33.5555C32.375 31.6883 34.3592 28.9157 35.2451 25.7274C35.2781 25.6086 35.3569 25.5078 35.4643 25.4472C35.5716 25.3866 35.6986 25.371 35.8174 25.4041C35.9361 25.4371 36.0369 25.5159 36.0975 25.6232C36.1582 25.7306 36.1737 25.8576 36.1407 25.9763L36.1555 26.0098Z" fill="#3C83F6" stroke="#3C83F6"/>
<path d="M22.7049 15.5907C22.7048 15.3617 22.6142 15.1421 22.4523 14.9802C22.2903 14.8182 22.0704 14.7271 21.8413 14.7271H21.4615C21.2325 14.7271 21.013 14.8183 20.851 14.9802C20.6891 15.1421 20.598 15.3617 20.5979 15.5907V15.7474C20.5974 16.2016 20.4772 16.648 20.2499 17.0413C20.0229 17.4339 19.6966 17.7596 19.304 17.9867L19.3045 17.9872L18.9331 18.2028L18.9312 18.2042C18.5373 18.4316 18.0902 18.5513 17.6354 18.5513C17.1902 18.5513 16.753 18.436 16.3653 18.2178V18.2183L16.2357 18.149C16.2274 18.1446 16.2191 18.1402 16.211 18.1355C16.0128 18.0211 15.7771 17.9898 15.556 18.0489C15.3627 18.1006 15.1943 18.2177 15.0784 18.3787L15.0321 18.4503L14.8422 18.7787L14.8417 18.7782C14.7279 18.9762 14.6976 19.2116 14.7566 19.4322C14.8083 19.6255 14.9253 19.7939 15.0864 19.9098L15.1579 19.9561L15.2043 19.9851L15.3338 20.0712H15.3334C15.7038 20.2957 16.0131 20.6085 16.2311 20.9834C16.4583 21.3743 16.5792 21.8182 16.5819 22.2703V22.7124L16.5768 22.8831C16.5521 23.2803 16.4362 23.6674 16.2371 24.0138C16.0121 24.4054 15.6885 24.7308 15.2987 24.9587L15.2992 24.9592L15.1696 25.0369C15.1659 25.0391 15.1618 25.0412 15.1579 25.0434C14.96 25.1581 14.8157 25.3468 14.7566 25.5678C14.6976 25.7883 14.728 26.0234 14.8417 26.2213H14.8422L15.0316 26.5492H15.0321C15.1467 26.7472 15.3351 26.8915 15.556 26.9506C15.7771 27.0097 16.0128 26.9789 16.211 26.8645L16.2357 26.8505L16.3653 26.7817C16.753 26.5636 17.1903 26.4487 17.6354 26.4487C18.0333 26.4487 18.4254 26.54 18.781 26.7153L18.9312 26.7958L18.9331 26.7972L19.3021 27.0114H19.3026C19.696 27.2386 20.0225 27.5654 20.2499 27.9587C20.4773 28.3521 20.5975 28.7983 20.5979 29.2526V29.4089C20.5979 29.6379 20.6891 29.8579 20.851 30.0198C21.013 30.1817 21.2325 30.2729 21.4615 30.2729H21.8413C22.0704 30.2729 22.2903 30.1818 22.4523 30.0198C22.6142 29.8579 22.7049 29.6379 22.7049 29.4089V29.2526L22.711 29.0828C22.7374 28.6876 22.854 28.3029 23.0529 27.9587C23.2803 27.5654 23.6072 27.2386 24.0007 27.0114L24.3698 26.7972L24.3721 26.7958L24.5218 26.7153C24.8774 26.54 25.2694 26.4487 25.6674 26.4487C26.1125 26.4487 26.5495 26.5638 26.937 26.7817H26.9375L27.0671 26.8505L27.0924 26.8645C27.2905 26.9788 27.5258 27.0097 27.7468 26.9506C27.9678 26.8915 28.1565 26.7472 28.2712 26.5492L28.456 26.2208L28.4602 26.2138C28.5745 26.0157 28.6053 25.7804 28.5463 25.5594C28.4874 25.3394 28.3442 25.1517 28.1477 25.0369L28.042 24.9807C28.0335 24.9762 28.025 24.9715 28.0167 24.9667C27.6214 24.7384 27.2932 24.4096 27.0657 24.0138C26.8382 23.618 26.7191 23.1689 26.7209 22.7124V22.2839C26.7197 21.8286 26.8388 21.381 27.0657 20.9862C27.2908 20.5946 27.6143 20.2687 28.0041 20.0408L28.1337 19.9631L28.1449 19.9561L28.2165 19.9098C28.3775 19.7939 28.4945 19.6255 28.5463 19.4322C28.6054 19.2112 28.5745 18.9755 28.4602 18.7773V18.7768L28.2707 18.4503V18.4498C28.156 18.2522 27.9676 18.108 27.7468 18.0489C27.5534 17.9972 27.349 18.0145 27.1681 18.0962L27.0924 18.1355C27.0841 18.1402 27.0755 18.1445 27.0671 18.149L26.9375 18.2183L26.937 18.2178C26.5494 18.4358 26.1125 18.5513 25.6674 18.5513C25.2127 18.5513 24.766 18.4316 24.3721 18.2042L24.3698 18.2028L23.9984 17.9872V17.9867C23.606 17.7596 23.2799 17.4338 23.0529 17.0413C22.8256 16.648 22.7054 16.2016 22.7049 15.7474V15.5907ZM24.4325 15.7455L24.4343 15.8021C24.4431 15.9338 24.4822 16.0621 24.5485 16.1768C24.6148 16.2915 24.7063 16.3893 24.8161 16.4626L24.8642 16.4926L24.8666 16.494L25.2357 16.7082L25.2857 16.7349C25.4043 16.7933 25.5348 16.8242 25.6674 16.8242C25.819 16.8242 25.9679 16.784 26.0992 16.7082L26.1245 16.6942L26.2541 16.625C26.8433 16.2937 27.5393 16.2055 28.1931 16.3803C28.8147 16.5465 29.3504 16.9378 29.6984 17.4754L29.7658 17.5849L29.9557 17.9133L29.9562 17.9142L30.0179 18.0269C30.3101 18.5968 30.3811 19.2564 30.2149 19.878C30.0387 20.5369 29.6097 21.0991 29.0215 21.4437L29.022 21.4442L28.8924 21.5218L28.8316 21.5593C28.7214 21.633 28.6294 21.7315 28.5631 21.847C28.4873 21.9789 28.4479 22.1285 28.4485 22.2806V22.7194C28.4479 22.8715 28.4873 23.0211 28.5631 23.153C28.638 23.2834 28.7458 23.3919 28.8756 23.4679L28.9841 23.5254L29.0108 23.5404C29.6047 23.8844 30.0376 24.4501 30.2149 25.1131C30.3915 25.7735 30.2995 26.4764 29.9599 27.0694L29.9604 27.0699L29.7705 27.4067C29.7689 27.4095 29.7674 27.4124 29.7658 27.4151C29.4218 28.009 28.8561 28.4419 28.1931 28.6192C27.5391 28.7941 26.8434 28.7056 26.2541 28.3741V28.3746L26.1245 28.3058L26.0992 28.2913C25.968 28.2156 25.819 28.1758 25.6674 28.1758C25.5167 28.1758 25.3683 28.2149 25.2375 28.2899L25.238 28.2904L24.8666 28.506L24.8642 28.5074C24.7331 28.5832 24.6243 28.6921 24.5485 28.8232C24.4727 28.9543 24.4326 29.1031 24.4325 29.2545V29.4089C24.4325 30.096 24.1596 30.7553 23.6737 31.2412C23.1878 31.7271 22.5285 32 21.8413 32H21.4615C20.7744 32 20.1155 31.727 19.6296 31.2412C19.1437 30.7553 18.8704 30.096 18.8704 29.4089V29.2545L18.8685 29.1979C18.8597 29.0662 18.8211 28.9379 18.7548 28.8232C18.679 28.6921 18.5698 28.5832 18.4386 28.5074L18.4363 28.506L18.0653 28.2904V28.2899C17.9346 28.215 17.7861 28.1758 17.6354 28.1758C17.5028 28.1758 17.3722 28.2062 17.2537 28.2646L17.2036 28.2913C17.1952 28.2962 17.1869 28.3013 17.1784 28.3058L17.0488 28.3746L17.0483 28.3741C16.4591 28.7053 15.7639 28.794 15.1102 28.6192C14.4472 28.4419 13.8815 28.009 13.5375 27.4151H13.537L13.3471 27.0867L13.3466 27.0858C13.0037 26.4913 12.9106 25.7846 13.0879 25.1215C13.2542 24.5 13.6451 23.9642 14.1826 23.6162L14.2921 23.5488L14.4104 23.4782L14.423 23.4707C14.5548 23.3946 14.6639 23.2849 14.7397 23.153C14.8155 23.0211 14.8554 22.8715 14.8548 22.7194V22.2806L14.8525 22.2245C14.8431 22.0933 14.8042 21.9657 14.7379 21.8516C14.6716 21.7376 14.58 21.6407 14.4708 21.5677L14.423 21.5377L14.3758 21.5087L14.2551 21.4283C13.6804 21.0824 13.2615 20.5271 13.0879 19.878C12.9107 19.215 13.0037 18.5087 13.3466 17.9142L13.3471 17.9133L13.537 17.5849H13.5375L13.6044 17.4754C13.9524 16.9378 14.4886 16.5465 15.1102 16.3803C15.7638 16.2056 16.4592 16.2939 17.0483 16.625H17.0488L17.1784 16.6942L17.2036 16.7082C17.3349 16.784 17.4839 16.8242 17.6354 16.8242C17.7681 16.8242 17.899 16.7934 18.0176 16.7349L18.0672 16.7082L18.4363 16.494L18.4386 16.4926L18.4868 16.4626C18.5966 16.3893 18.6885 16.2916 18.7548 16.1768C18.8304 16.046 18.87 15.8975 18.8704 15.7464V15.5907C18.8704 14.9036 19.1438 14.2446 19.6296 13.7588C20.1155 13.2729 20.7744 13 21.4615 13H21.8413C22.5285 13 23.1878 13.2729 23.6737 13.7588C24.1595 14.2446 24.4324 14.9036 24.4325 15.5907V15.7455Z" fill="#3C83F6"/>
<path d="M23.379 22.4976C23.379 21.5438 22.6058 20.7702 21.6519 20.7701C20.698 20.7701 19.9244 21.5437 19.9244 22.4976C19.9245 23.4515 20.6981 24.2247 21.6519 24.2247C22.6057 24.2246 23.3789 23.4514 23.379 22.4976ZM25.1061 22.4976C25.106 24.4054 23.5597 25.9517 21.6519 25.9518C19.7441 25.9518 18.1974 24.4054 18.1973 22.4976C18.1973 20.5897 19.744 19.043 21.6519 19.043C23.5597 19.0431 25.1061 20.5898 25.1061 22.4976Z" fill="#3C83F6"/>
</svg>
