<svg width="44" height="44" viewBox="0 0 44 44" fill="none" xmlns="http://www.w3.org/2000/svg">
<path d="M14.3094 9.73892C17.0602 7.73463 20.4365 6.77859 23.8297 7.04326C27.2229 7.30798 30.4104 8.77562 32.817 11.1823C35.2237 13.5889 36.6913 16.7764 36.956 20.1696C37.2207 23.5628 36.2647 26.9391 34.2604 29.6899C32.3187 32.3545 29.517 34.2623 26.3335 35.0951L26.0241 35.1725C22.9135 35.9125 19.6506 35.5862 16.756 34.2559L8.8864 36.9244C8.37183 37.0989 7.80261 36.9658 7.41829 36.5818C7.03397 36.1975 6.90114 35.6276 7.07563 35.1129L9.74267 27.2425C8.4127 24.3481 8.08691 21.0855 8.82684 17.9752C9.61456 14.6642 11.5588 11.7432 14.3094 9.73892ZM23.6077 9.89052C20.8932 9.67877 18.1924 10.4436 15.9918 12.047C13.7912 13.6505 12.2355 15.9869 11.6053 18.6357C10.9751 21.2846 11.3116 24.0719 12.5544 26.4945C12.7306 26.8382 12.7603 27.2387 12.6363 27.6045L10.708 33.2905L16.3948 31.363L16.5332 31.3235C16.8597 31.2485 17.204 31.2907 17.5048 31.4449L17.9635 31.6677C20.2755 32.7263 22.8803 32.9848 25.3636 32.394L25.8563 32.2649C28.3015 31.5666 30.449 30.0706 31.9523 28.0075C33.5557 25.8069 34.3205 23.1061 34.1088 20.3916C33.897 17.677 32.7227 15.1272 30.7974 13.2019C28.8721 11.2766 26.3223 10.1023 23.6077 9.89052Z" fill="#3C83F6"/>
</svg>
