<svg width="44" height="44" viewBox="0 0 44 44" fill="none" xmlns="http://www.w3.org/2000/svg">
<path d="M24.7573 35.7333H17.7573C17.4462 35.7333 17.174 35.4611 17.174 35.15C17.174 34.8389 17.4462 34.5667 17.7573 34.5667H24.7573C25.0684 34.5667 25.3406 34.8389 25.3406 35.15C25.3406 35.4611 25.0684 35.7333 24.7573 35.7333ZM24.4073 8.43333H18.1073C16.9017 8.43333 15.8906 7.42222 15.8906 6.21667V4.58333C15.8906 4.27222 16.1628 4 16.474 4C16.7851 4 17.0573 4.27222 17.0573 4.58333V6.21667C17.0573 6.8 17.524 7.26667 18.1073 7.26667H24.4073C24.9906 7.26667 25.4573 6.8 25.4573 6.21667V4.58333C25.4573 4.27222 25.7295 4 26.0406 4C26.3517 4 26.624 4.27222 26.624 4.58333V6.21667C26.624 7.42222 25.6517 8.43333 24.4073 8.43333ZM30.6684 31.9222C30.5517 31.9222 30.474 31.8833 30.3962 31.8444C30.2017 31.7278 30.0851 31.5333 30.0851 31.3389V25.8944C30.0851 25.7 30.2017 25.5056 30.3962 25.3889C30.5906 25.2722 30.824 25.3111 30.9795 25.3889L35.3351 28.1111C35.4906 28.2278 35.6073 28.4222 35.6073 28.6167C35.6073 28.8111 35.4906 29.0056 35.3351 29.1222L30.9795 31.8444C30.9017 31.9222 30.7851 31.9222 30.6684 31.9222ZM31.2517 26.9444V30.2889L33.9351 28.6167L31.2517 26.9444ZM35.7628 20.6444H29.1517C27.5184 20.6444 26.1573 19.3222 26.1573 17.65V11.6222C26.1573 9.98889 27.4795 8.62778 29.1517 8.62778H35.7628C37.3962 8.62778 38.7573 9.95 38.7573 11.6222V17.65C38.7573 19.2833 37.3962 20.6444 35.7628 20.6444ZM29.1517 9.79444C28.1406 9.79444 27.324 10.6111 27.324 11.6222V17.65C27.324 18.6611 28.1406 19.4778 29.1517 19.4778H35.7628C36.774 19.4778 37.5906 18.6611 37.5906 17.65V11.6222C37.5906 10.6111 36.774 9.79444 35.7628 9.79444H29.1517Z" fill="#3C83F6" stroke="#3C83F6" stroke-width="0.6"/>
<path d="M38.1737 17.4976C38.0181 17.4976 37.8625 17.4198 37.7459 17.3031L35.3737 14.6587C35.2181 14.5031 34.9459 14.2698 34.6348 14.2698C34.3237 14.2698 34.0514 14.4642 33.8959 14.6587L31.5625 17.3031C31.4459 17.4198 31.2903 17.4976 31.1348 17.4976C30.9792 17.4976 30.8237 17.4198 30.707 17.3031L29.2292 15.6698C29.1903 15.6309 29.0737 15.5142 28.957 15.5142C28.8403 15.5142 28.7237 15.6309 28.6459 15.6698L27.1681 17.3031C26.9348 17.5365 26.5848 17.5753 26.3514 17.342C26.1181 17.1087 26.0792 16.7587 26.3125 16.5253L27.7903 14.892C28.4514 14.1531 29.4237 14.1531 30.0848 14.892L31.1348 16.0587L33.0403 13.9198C33.507 13.4142 34.0514 13.142 34.6348 13.142C35.2181 13.142 35.7625 13.4142 36.2292 13.9198L38.6014 16.5642C38.8348 16.7976 38.7959 17.1865 38.5625 17.3809C38.4459 17.4198 38.2903 17.4976 38.1737 17.4976ZM31.1348 12.8698C30.8237 12.8698 30.5514 12.5976 30.5514 12.2865C30.5514 11.9753 30.8237 11.7031 31.1348 11.7031C31.4459 11.7031 31.7181 11.9753 31.7181 12.2865C31.7181 12.5976 31.4459 12.8698 31.1348 12.8698ZM10.9903 24.2642C9.55143 24.2642 8.38477 23.292 8.38477 22.0865C8.38477 20.8809 9.55143 19.9087 10.9903 19.9087C12.4292 19.9087 13.5959 20.8809 13.5959 22.0865C13.5959 23.2531 12.4292 24.2642 10.9903 24.2642ZM10.9903 21.0365C10.2125 21.0365 9.55143 21.5031 9.55143 22.0476C9.55143 22.592 10.2125 23.0587 10.9903 23.0587C11.7681 23.0587 12.4292 22.592 12.4292 22.0476C12.4292 21.5031 11.7681 21.0365 10.9903 21.0365Z" fill="#3C83F6" stroke="#3C83F6" stroke-width="0.6"/>
<path d="M13.0111 22.6285C12.7 22.6285 12.4277 22.3563 12.4277 22.0451V16.9896C12.4277 16.6785 12.7 16.4062 13.0111 16.4062H15.5777C15.8888 16.4062 16.1611 16.6785 16.1611 16.9896C16.1611 17.3007 15.8888 17.5729 15.5777 17.5729H13.5944V22.084C13.5944 22.3951 13.3222 22.6285 13.0111 22.6285Z" fill="#3C83F6" stroke="#3C83F6" stroke-width="0.6"/>
<path d="M16.2 27.1344H8.30556C6.47778 27.1344 5 25.6566 5 23.8288V16.7899C5 14.9622 6.47778 13.4844 8.30556 13.4844H16.2C18.0278 13.4844 19.5056 14.9622 19.5056 16.7899V23.8288C19.5056 25.6566 18.0278 27.1344 16.2 27.1344ZM8.30556 14.651C7.13889 14.651 6.16667 15.6233 6.16667 16.7899V23.8288C6.16667 24.9955 7.13889 25.9677 8.30556 25.9677H16.2C17.3667 25.9677 18.3389 24.9955 18.3389 23.8288V16.7899C18.3389 15.6233 17.3667 14.651 16.2 14.651H8.30556ZM36.6556 34.3288H28.5278C27.1278 34.3288 25.9611 33.201 25.9611 31.7622V25.4622C25.9611 24.0622 27.0889 22.8955 28.5278 22.8955H36.6556C38.0556 22.8955 39.2222 24.0622 39.2222 25.4622V31.7622C39.1833 33.1622 38.0556 34.3288 36.6556 34.3288ZM28.5278 24.101C27.75 24.101 27.1278 24.7233 27.1278 25.501V31.801C27.1278 32.5788 27.75 33.201 28.5278 33.201H36.6556C37.4333 33.201 38.0556 32.5788 38.0556 31.801V25.4622C38.0556 24.6844 37.4333 24.0622 36.6556 24.0622H28.5278V24.101Z" fill="#3C83F6" stroke="#3C83F6" stroke-width="0.6"/>
<path d="M29.6954 39H12.8176C11.3009 39 10.0176 37.7556 10.0176 36.2V26.5556C10.0176 26.2444 10.2898 25.9722 10.6009 25.9722C10.912 25.9722 11.1842 26.2444 11.1842 26.5556V36.2C11.1842 37.0944 11.9231 37.8333 12.8176 37.8333H29.6954C30.5898 37.8333 31.3287 37.0944 31.3287 36.2V33.7111C31.3287 33.4 31.6009 33.1278 31.912 33.1278C32.2231 33.1278 32.4954 33.4 32.4954 33.7111V36.2C32.4954 37.7556 31.2509 39 29.6954 39ZM31.912 24.1056C31.6009 24.1056 31.3287 23.8333 31.3287 23.5222V20.0611C31.3287 19.75 31.6009 19.4778 31.912 19.4778C32.2231 19.4778 32.4954 19.75 32.4954 20.0611V23.5222C32.4954 23.8333 32.2231 24.1056 31.912 24.1056ZM10.6009 14.6556C10.2898 14.6556 10.0176 14.3833 10.0176 14.0722V6.8C10.0176 5.28333 11.262 4 12.8176 4H29.6954C31.212 4 32.4954 5.24444 32.4954 6.8V9.25C32.4954 9.56111 32.2231 9.83333 31.912 9.83333C31.6009 9.83333 31.3287 9.56111 31.3287 9.25V6.8C31.3287 5.90556 30.5898 5.16667 29.6954 5.16667H12.8176C11.9231 5.16667 11.1842 5.90556 11.1842 6.8V14.1111C11.1842 14.4222 10.9509 14.6556 10.6009 14.6556Z" fill="#3C83F6" stroke="#3C83F6" stroke-width="0.6"/>
</svg>
