<svg width="44" height="44" viewBox="0 0 44 44" fill="none" xmlns="http://www.w3.org/2000/svg">
<path d="M22.8764 36.0224C23.3157 35.2616 24.2889 35.0008 25.0497 35.4399C25.8106 35.8792 26.0715 36.8523 25.6323 37.6132C25.2134 38.3386 24.6109 38.9411 23.8855 39.3599C23.1601 39.7787 22.337 39.9993 21.4994 39.9993C20.6616 39.9993 19.8379 39.7788 19.1124 39.3599C18.4776 38.9934 17.9369 38.4865 17.5311 37.8794L17.3656 37.6132L17.2915 37.4684C16.9609 36.7329 17.2348 35.8518 17.9482 35.4399C18.6614 35.0281 19.561 35.2316 20.0327 35.8854L20.1215 36.0224L20.1766 36.1112C20.3119 36.3134 20.4925 36.4828 20.704 36.6049C20.9457 36.7444 21.2203 36.8178 21.4994 36.8178C21.7785 36.8177 22.053 36.7445 22.2948 36.6049C22.5365 36.4654 22.7368 36.2641 22.8764 36.0224Z" fill="#3C83F6"/>
<path d="M35.8184 16.1363C35.8184 13.0724 34.8241 10.3603 33.2504 7.98003L32.9281 7.50866L32.8411 7.37078C32.445 6.66848 32.6371 5.76654 33.3099 5.29142C33.983 4.8163 34.898 4.93691 35.4272 5.54563L35.5271 5.67316L35.9054 6.22726C37.7575 9.02983 39.0007 12.3395 39.0008 16.1363C39.0008 17.015 38.2878 17.7271 37.4091 17.7271C36.5306 17.7269 35.8184 17.0149 35.8184 16.1363Z" fill="#3C83F6"/>
<path d="M29.4544 16.1362C29.4543 14.0266 28.6167 12.0034 27.1251 10.5117C25.6333 9.01987 23.6094 8.18152 21.4997 8.18152C19.3901 8.1816 17.3669 9.01994 15.8752 10.5117C14.3835 12.0034 13.5451 14.0266 13.545 16.1362L13.5381 16.8256C13.4701 20.2063 12.8984 22.6231 12.0068 24.5105C11.0675 26.4989 9.82158 27.7831 8.77447 28.864H34.2275C33.1781 27.7823 31.9325 26.498 30.9934 24.5105C30.0421 22.4969 29.4544 19.8815 29.4544 16.1362ZM32.6368 16.1362C32.6368 19.5485 33.1707 21.6715 33.8699 23.1516C34.4832 24.4495 35.2617 25.3455 36.1561 26.2805L36.5464 26.6855L36.5818 26.7226L36.73 26.8984C37.0618 27.3208 37.2821 27.8212 37.3685 28.3539C37.4673 28.9625 37.387 29.5867 37.1376 30.1506C36.8882 30.7144 36.4806 31.1938 35.9639 31.5302C35.4473 31.8665 34.8439 32.0448 34.2275 32.0447V32.0455H8.77102C8.15445 32.045 7.55098 31.8654 7.03462 31.5285C6.51826 31.1915 6.11142 30.7113 5.86266 30.1471C5.61388 29.5828 5.53386 28.9582 5.63344 28.3496C5.73307 27.741 6.00805 27.1747 6.42365 26.7192L6.45554 26.6847L6.84504 26.2805C7.73832 25.3455 8.51613 24.4492 9.1295 23.1507C9.7849 21.7632 10.2962 19.811 10.3575 16.761L10.3635 16.1362C10.3635 13.1827 11.5368 10.3501 13.6252 8.26167C15.7136 6.17324 18.5462 5.00008 21.4997 5C24.4532 5 27.2858 6.1733 29.3742 8.26167C31.4627 10.3501 32.6367 13.1827 32.6368 16.1362Z" fill="#3C83F6"/>
<path d="M4 16.1364C4.00002 12.0865 5.41363 8.59034 7.47279 5.67319C7.97952 4.9555 8.97226 4.78478 9.69003 5.29145C10.4078 5.79816 10.5793 6.7909 10.0726 7.50869C8.31365 10.0006 7.18155 12.8681 7.18152 16.1364C7.18152 17.015 6.4694 17.7271 5.59076 17.7271C4.71212 17.7271 4 17.015 4 16.1364Z" fill="#3C83F6"/>
</svg>
