<svg width="44" height="44" viewBox="0 0 44 44" fill="none" xmlns="http://www.w3.org/2000/svg">
<path d="M7 22.0001C7 18.0219 8.58007 14.2062 11.3931 11.3931C14.2062 8.58007 18.0219 7 22.0001 7H22.0058L22.395 7.00569C26.2855 7.11424 30.006 8.6272 32.8688 11.2639L33.1523 11.5312L36.5607 14.9388L36.6639 15.0534C37.1441 15.6424 37.1095 16.5111 36.5607 17.0602C36.0115 17.6094 35.1422 17.644 34.553 17.1634L34.4393 17.0602L31.0675 13.6884L30.8367 13.4706C28.4296 11.2534 25.2771 10.0127 21.9969 9.9997C18.8154 10.0005 15.7643 11.2648 13.5145 13.5145C11.2641 15.765 9.9997 18.8175 9.9997 22.0001C9.99956 22.8284 9.32819 23.5 8.49985 23.5C7.67151 23.5 7.00014 22.8284 7 22.0001Z" fill="#A856F7"/>
<path d="M34.0001 8.49985C34.0001 7.67142 34.6715 7 35.4999 7C36.3283 7.00003 36.9998 7.67144 36.9998 8.49985V15.9999C36.9997 16.8283 36.3283 17.4997 35.4999 17.4998H27.9999C27.1714 17.4998 26.5 16.8283 26.5 15.9999C26.5 15.1715 27.1714 14.5001 27.9999 14.5001H34.0001V8.49985Z" fill="#A856F7"/>
<path d="M33.9995 21.9999C33.9995 21.1715 34.6711 20.5002 35.4994 20.5C36.3278 20.5 37 21.1714 37 21.9999C37 25.9781 35.4192 29.7938 32.6061 32.6069C29.7932 35.4197 25.9779 36.9999 21.9999 37H21.9942C17.9632 36.9848 14.0886 35.4607 11.1305 32.736L10.8469 32.4679L10.829 32.4509L7.43934 29.0604C6.85355 28.4746 6.85355 27.5247 7.43934 26.939C8.02505 26.3536 8.97422 26.3536 9.55993 26.939L12.9326 30.3116L13.1625 30.5293C15.569 32.7459 18.7207 33.9858 21.9999 33.9995L22.2973 33.9962C25.3719 33.92 28.3045 32.6655 30.4847 30.4855C32.7352 28.235 33.9995 25.1825 33.9995 21.9999Z" fill="#A856F7"/>
<path d="M7 35.4999V27.9999L7.00731 27.8463C7.0842 27.09 7.72325 26.5 8.49985 26.5H15.9999L16.1535 26.5073C16.9098 26.5842 17.4998 27.2233 17.4998 27.9999C17.4998 28.7764 16.9098 29.4155 16.1535 29.4924L15.9999 29.4997H9.9997V35.4999C9.99967 36.3283 9.32826 36.9998 8.49985 36.9998C7.67144 36.9998 7.00003 36.3283 7 35.4999Z" fill="#A856F7"/>
</svg>
