<svg width="45" height="44" viewBox="0 0 45 44" fill="none" xmlns="http://www.w3.org/2000/svg">
<path d="M4.89648 13.5382C4.89654 12.9213 5.07579 12.3177 5.41269 11.8009C5.74775 11.2869 6.22429 10.8808 6.78465 10.6314L20.4112 4.43089V4.43003C21.0329 4.14648 21.7083 4.00006 22.3915 4C23.075 4 23.751 4.14641 24.3728 4.43003L24.3719 4.43089L38.0381 10.6504H38.0372C38.5948 10.9 39.0693 11.3044 39.4031 11.8164C39.7402 12.3333 39.9194 12.9375 39.9194 13.5546C39.9193 14.1715 39.74 14.7751 39.4031 15.2919C39.0694 15.8038 38.5946 16.2075 38.0372 16.4571L38.0381 16.4588L24.3866 22.6636C23.8431 22.9112 23.2587 23.054 22.6639 23.0859L22.4079 23.0928C21.7244 23.0928 21.0485 22.9464 20.4267 22.6628V22.6619L6.7769 16.4424V16.4416C6.22 16.1919 5.74615 15.7879 5.41269 15.2764C5.07567 14.7595 4.89648 14.1553 4.89648 13.5382ZM8.09629 13.5468L21.7469 19.7672L21.7478 19.768L21.9064 19.8301C22.0678 19.8837 22.2371 19.9111 22.4079 19.9111L22.5777 19.9016C22.7469 19.8835 22.9126 19.8389 23.068 19.768L23.0698 19.7672L36.7213 13.5615L36.7376 13.5546C36.732 13.5521 36.7261 13.5494 36.7204 13.5468L23.0534 7.32562H23.0525C22.8453 7.23107 22.6194 7.1817 22.3915 7.1817C22.1639 7.18176 21.9386 7.23113 21.7314 7.32562H21.7306L8.09542 13.5305L8.07819 13.5382L8.09629 13.5468Z" fill="#3C83F6"/>
<path d="M38.289 19.9102C39.1129 19.9037 39.7956 20.5244 39.8833 21.3261L39.8928 21.4881L39.8859 21.7191C39.8512 22.2559 39.6813 22.7766 39.3895 23.2315C39.0573 23.7497 38.581 24.1588 38.0202 24.4122L38.021 24.413L24.3704 30.6179L24.3687 30.6187C23.7501 30.8988 23.0785 31.0444 22.3995 31.0444C21.8052 31.0444 21.2169 30.9333 20.6647 30.7178L20.4303 30.6187L20.4286 30.6179L6.74605 24.3975L6.73571 24.3932V24.3923C6.18357 24.1367 5.71577 23.7282 5.38875 23.2151C5.06174 22.702 4.88913 22.1053 4.89063 21.4967C4.89301 20.6182 5.60723 19.908 6.4858 19.9102C7.36387 19.9126 8.07292 20.6257 8.07148 21.5036L21.7437 27.7205L21.9014 27.7817C22.0618 27.8346 22.2299 27.8619 22.3995 27.8619C22.625 27.8619 22.848 27.8141 23.0536 27.7214L36.7051 21.5166L36.7111 21.514L36.718 21.3511C36.7931 20.5482 37.4653 19.9168 38.289 19.9102Z" fill="#3C83F6"/>
<path d="M38.289 27.8672C39.1129 27.8607 39.7956 28.4814 39.8833 29.2831L39.8928 29.4452L39.8859 29.6761C39.8512 30.2129 39.6813 30.7336 39.3895 31.1886C39.0573 31.7067 38.581 32.1158 38.0202 32.3692L38.021 32.3701L24.3704 38.5749L24.3687 38.5758C23.7501 38.8559 23.0785 39.0015 22.3995 39.0015C21.8052 39.0015 21.2169 38.8903 20.6647 38.6749L20.4303 38.5758L20.4286 38.5749L6.74605 32.3545L6.73571 32.3502V32.3494C6.18357 32.0937 5.71577 31.6853 5.38875 31.1722C5.06174 30.659 4.88913 30.0623 4.89063 29.4538C4.89301 28.5753 5.60723 27.8651 6.4858 27.8672C7.36387 27.8696 8.07292 28.5827 8.07148 29.4607L21.7437 35.6776L21.9014 35.7388C22.0618 35.7917 22.2299 35.8189 22.3995 35.8189C22.625 35.8189 22.848 35.7711 23.0536 35.6784L36.7051 29.4736L36.7111 29.471L36.718 29.3081C36.7931 28.5052 37.4653 27.8738 38.289 27.8672Z" fill="#3C83F6"/>
</svg>
