<svg width="44" height="44" viewBox="0 0 44 44" fill="none" xmlns="http://www.w3.org/2000/svg">
<path d="M7.00586 15.1753C7.00591 14.6465 7.15955 14.1291 7.4483 13.6862C7.73548 13.2457 8.14393 12.8976 8.62422 12.6838L20.3036 7.36932V7.36858C20.8364 7.12555 21.4153 7.00005 22.001 7C22.5868 7 23.1662 7.12549 23.6991 7.36858L23.6984 7.36932L35.4117 12.7001H35.411C35.8889 12.914 36.2956 13.2606 36.5817 13.6995C36.8706 14.1425 37.0242 14.6604 37.0242 15.1893C37.0242 15.7181 36.8705 16.2354 36.5817 16.6784C36.2957 17.1171 35.8888 17.4631 35.411 17.677L35.4117 17.6785L23.7109 22.9967C23.2451 23.2089 22.7443 23.3313 22.2344 23.3587L22.015 23.3646C21.4292 23.3646 20.8499 23.2391 20.3169 22.996V22.9953L8.61757 17.6645V17.6637C8.14025 17.4498 7.73412 17.1035 7.4483 16.6651C7.15944 16.222 7.00586 15.7042 7.00586 15.1753ZM9.74843 15.1827L21.4485 20.5142L21.4492 20.5149L21.5851 20.5681C21.7235 20.614 21.8686 20.6375 22.015 20.6375L22.1605 20.6294C22.3055 20.6138 22.4476 20.5757 22.5808 20.5149L22.5823 20.5142L34.2831 15.1952L34.2971 15.1893C34.2923 15.1872 34.2872 15.1849 34.2824 15.1827L22.5683 9.85041H22.5675C22.3899 9.76938 22.1963 9.72706 22.001 9.72706C21.8058 9.72711 21.6127 9.76943 21.4352 9.85041H21.4345L9.74769 15.1686L9.73292 15.1753L9.74843 15.1827Z" fill="#A856F7"/>
<path d="M35.626 20.6368C36.3321 20.6312 36.9173 21.1632 36.9925 21.8503L37.0006 21.9892L36.9947 22.1872C36.9649 22.6472 36.8193 23.0936 36.5692 23.4835C36.2844 23.9276 35.8763 24.2783 35.3955 24.4954L35.3963 24.4962L23.6962 29.8144L23.6948 29.8151C23.1646 30.0552 22.589 30.18 22.007 30.18C21.4976 30.18 20.9934 30.0847 20.5201 29.9L20.3192 29.8151L20.3177 29.8144L8.5903 24.4829L8.58144 24.4792V24.4784C8.10819 24.2593 7.70724 23.9092 7.42694 23.4694C7.14666 23.0296 6.99872 22.5182 7.00001 21.9966C7.00204 21.2436 7.61421 20.6349 8.36723 20.6368C9.11983 20.6388 9.72757 21.25 9.72633 22.0025L21.4449 27.3311L21.58 27.3835C21.7175 27.4288 21.8616 27.4522 22.007 27.4522C22.2002 27.4522 22.3914 27.4112 22.5676 27.3318L34.2684 22.0136L34.2736 22.0114L34.2795 21.8718C34.3438 21.1836 34.92 20.6424 35.626 20.6368Z" fill="#A856F7"/>
<path d="M35.626 27.4571C36.3321 27.4515 36.9173 27.9835 36.9925 28.6707L37.0006 28.8095L36.9947 29.0075C36.9649 29.4676 36.8193 29.9139 36.5692 30.3038C36.2844 30.7479 35.8763 31.0986 35.3955 31.3157L35.3963 31.3165L23.6962 36.6347L23.6948 36.6354C23.1646 36.8755 22.589 37.0003 22.007 37.0003C21.4976 37.0003 20.9934 36.905 20.5201 36.7204L20.3192 36.6354L20.3177 36.6347L8.5903 31.3032L8.58144 31.2995V31.2987C8.10819 31.0796 7.70724 30.7295 7.42694 30.2898C7.14666 29.8499 6.99872 29.3385 7.00001 28.8169C7.00204 28.0639 7.61421 27.4552 8.36723 27.4571C9.11983 27.4591 9.72757 28.0703 9.72633 28.8228L21.4449 34.1514L21.58 34.2038C21.7175 34.2492 21.8616 34.2725 22.007 34.2725C22.2002 34.2725 22.3914 34.2316 22.5676 34.1521L34.2684 28.8339L34.2736 28.8317L34.2795 28.6921C34.3438 28.0039 34.92 27.4627 35.626 27.4571Z" fill="#A856F7"/>
</svg>
