<svg width="40" height="40" viewBox="0 0 40 40" fill="none" xmlns="http://www.w3.org/2000/svg">
<path d="M26.6821 24.1778H21.8606L22.865 20.8398C23.1723 19.8417 23.0757 18.7629 22.596 17.8353C22.1163 16.9077 21.2918 16.2054 20.2998 15.8792C20.0148 15.7853 19.7136 15.7512 19.4149 15.7791C19.1162 15.807 18.8265 15.8963 18.5639 16.0414C18.3013 16.1865 18.0716 16.3842 17.8889 16.6222C17.7063 16.8602 17.5748 17.1334 17.5027 17.4246L17.3481 18.0736C16.7653 20.4124 15.5582 22.5489 13.8556 24.255L12.9748 25.1204C12.7509 24.8385 12.4668 24.6102 12.1432 24.4525C11.8197 24.2947 11.4649 24.2114 11.1049 24.2087H9.97677C9.34271 24.2086 8.73417 24.4584 8.28294 24.9038C7.83171 25.3492 7.57414 25.9545 7.56601 26.5885V36.5406C7.56601 37.18 7.82 37.7932 8.2721 38.2453C8.72421 38.6974 9.33739 38.9514 9.97677 38.9514H11.1049C11.5199 38.9504 11.9275 38.8417 12.2878 38.6358C12.6481 38.4299 12.9487 38.1339 13.1602 37.7769L13.3766 37.8851C14.7733 38.5826 16.3124 38.9475 17.8735 38.9514H23.4214C24.3385 38.9558 25.2424 38.7322 26.0517 38.3006C26.8609 37.869 27.5502 37.2429 28.0574 36.4788C29.1371 34.8645 29.7126 32.9658 29.711 31.0237V27.1758C29.711 26.7794 29.6324 26.3871 29.4799 26.0213C29.3273 25.6555 29.1037 25.3236 28.822 25.0449C28.5403 24.7661 28.2062 24.5459 27.8389 24.397C27.4715 24.2482 27.0784 24.1737 26.6821 24.1778ZM11.9085 36.5406C11.9085 36.7701 11.8173 36.9903 11.655 37.1526C11.4927 37.3148 11.2726 37.406 11.0431 37.406H9.97677C9.74725 37.406 9.52713 37.3148 9.36484 37.1526C9.20254 36.9903 9.11137 36.7701 9.11137 36.5406V26.5885C9.11137 26.359 9.20254 26.1389 9.36484 25.9766C9.52713 25.8143 9.74725 25.7231 9.97677 25.7231H11.1049C11.3235 25.7388 11.5281 25.8368 11.6772 25.9974C11.8264 26.1581 11.909 26.3693 11.9085 26.5885V36.5406ZM28.1347 31.0237C28.1412 32.6728 27.657 34.2865 26.7439 35.6598C26.3785 36.206 25.8843 36.6538 25.3048 36.9638C24.7254 37.2737 24.0785 37.4362 23.4214 37.4369H17.8735C16.5541 37.4356 15.253 37.1288 14.072 36.5406L13.4538 36.2315V26.7431L14.8755 25.3213C16.7777 23.4195 18.1289 21.0376 18.7853 18.429L18.9398 17.7954C18.9857 17.6259 19.0968 17.4815 19.2489 17.3936C19.3269 17.3596 19.4111 17.342 19.4962 17.342C19.5813 17.342 19.6654 17.3596 19.7434 17.3936C20.048 17.4949 20.3296 17.6552 20.5721 17.8654C20.8146 18.0756 21.0133 18.3316 21.1569 18.6186C21.3004 18.9057 21.3859 19.2182 21.4086 19.5384C21.4312 19.8585 21.3905 20.18 21.2888 20.4844L19.9907 24.8268C19.9571 24.942 19.9508 25.0634 19.9722 25.1814C19.9937 25.2994 20.0423 25.4108 20.1143 25.5068C20.1845 25.6046 20.2775 25.6838 20.3852 25.7377C20.4929 25.7915 20.6121 25.8184 20.7325 25.8158H26.5894C26.7801 25.8158 26.969 25.8534 27.1453 25.9264C27.3215 25.9994 27.4816 26.1064 27.6165 26.2413C27.7514 26.3762 27.8584 26.5363 27.9314 26.7126C28.0044 26.8888 28.042 27.0777 28.042 27.2685L28.1347 31.0237ZM14.9992 9.28052L14.5047 12.1394C14.4452 12.4558 14.4776 12.7826 14.5981 13.0812C14.7186 13.3797 14.9222 13.6374 15.1846 13.8239C15.4751 14.0404 15.8268 14.1595 16.1891 14.1638C16.4688 14.1594 16.7438 14.0907 16.9927 13.963L19.6352 12.603L22.216 13.963C22.4998 14.1128 22.8202 14.1793 23.1401 14.1546C23.4601 14.13 23.7665 14.0154 24.0241 13.8239C24.2838 13.6386 24.4856 13.3834 24.606 13.088C24.7264 12.7925 24.7604 12.4689 24.704 12.1549L24.2713 9.28052L26.2957 7.27156C26.5295 7.05044 26.6957 6.7675 26.7751 6.45564C26.8544 6.14378 26.8436 5.81581 26.7439 5.50985C26.644 5.20422 26.461 4.93244 26.2154 4.725C25.9697 4.51755 25.6711 4.38264 25.3531 4.33538L22.4633 3.91813L21.1806 1.27557C21.0363 0.989497 20.8155 0.749091 20.5426 0.581123C20.2698 0.413155 19.9557 0.324219 19.6352 0.324219C19.3148 0.324219 19.0007 0.413155 18.7279 0.581123C18.455 0.749091 18.2342 0.989497 18.0899 1.27557L16.8072 3.88722L13.9174 4.30447C13.5994 4.35173 13.3008 4.48664 13.0551 4.69409C12.8095 4.90154 12.6265 5.17331 12.5266 5.47894C12.4205 5.78914 12.4063 6.1234 12.4858 6.44146C12.5654 6.75951 12.7352 7.04779 12.9748 7.27156L14.9992 9.28052ZM14.072 5.83437L17.3636 5.35531C17.5123 5.36494 17.6605 5.33048 17.7897 5.25626C17.9189 5.18204 18.0233 5.07136 18.0899 4.93807L19.6352 1.95553C19.6488 1.92594 19.6706 1.90086 19.698 1.88328C19.7254 1.8657 19.7572 1.85636 19.7898 1.85636C19.8223 1.85636 19.8542 1.8657 19.8816 1.88328C19.909 1.90086 19.9308 1.92594 19.9443 1.95553L21.4897 4.93807C21.5452 5.05091 21.628 5.14815 21.7305 5.22099C21.833 5.29384 21.9521 5.34 22.0769 5.35531L25.3685 5.83437C25.4005 5.8409 25.4303 5.85577 25.4547 5.87748C25.4791 5.89919 25.4974 5.92697 25.5076 5.958C25.5225 5.98384 25.5304 6.01316 25.5304 6.043C25.5304 6.07284 25.5225 6.10215 25.5076 6.12799L23.1278 8.44603C23.0378 8.53597 22.97 8.64565 22.9297 8.76635C22.8895 8.88706 22.8779 9.01549 22.896 9.14144L23.4677 12.4021C23.4782 12.435 23.4761 12.4706 23.4619 12.502C23.4476 12.5334 23.4221 12.5584 23.3905 12.5721C23.3637 12.5922 23.3312 12.603 23.2977 12.603C23.2643 12.603 23.2318 12.5922 23.205 12.5721L20.2688 11.0268C20.1603 10.9659 20.0379 10.9339 19.9134 10.9339C19.7889 10.9339 19.6665 10.9659 19.558 11.0268L16.6063 12.5721C16.582 12.5909 16.5521 12.6011 16.5214 12.6011C16.4906 12.6011 16.4607 12.5909 16.4364 12.5721C16.4047 12.5584 16.3792 12.5334 16.365 12.502C16.3507 12.4706 16.3486 12.435 16.3591 12.4021L16.9309 9.14144C16.9489 9.01549 16.9373 8.88706 16.8971 8.76635C16.8569 8.64565 16.7891 8.53597 16.6991 8.44603L14.3192 6.12799C14.3043 6.10215 14.2964 6.07284 14.2964 6.043C14.2964 6.01316 14.3043 5.98384 14.3192 5.958C14.2791 5.96028 14.2393 5.94945 14.2059 5.92716C14.1724 5.90486 14.1471 5.8723 14.1338 5.83437H14.072ZM9.34317 18.4754C9.57336 18.4796 9.80158 18.4323 10.0112 18.337C10.2207 18.2417 10.4063 18.1007 10.5545 17.9245C10.7026 17.7482 10.8094 17.5411 10.8672 17.3183C10.925 17.0954 10.9323 16.8624 10.8885 16.6364L10.4713 14.2875L12.2021 12.603C12.4201 12.4029 12.5762 12.1444 12.6516 11.8582C12.727 11.572 12.7186 11.2701 12.6274 10.9886C12.5363 10.707 12.3662 10.4575 12.1374 10.2697C11.9086 10.082 11.6307 9.96395 11.3367 9.92957L8.97228 9.58959L7.90599 7.44155C7.76371 7.19439 7.55881 6.98909 7.31193 6.84634C7.06504 6.70359 6.7849 6.62843 6.49971 6.62843C6.21453 6.62843 5.93438 6.70359 5.6875 6.84634C5.44061 6.98909 5.23571 7.19439 5.09344 7.44155L4.02714 9.58959L1.66275 9.92957C1.36878 9.96395 1.09086 10.082 0.862045 10.2697C0.633228 10.4575 0.463133 10.707 0.371984 10.9886C0.280834 11.2701 0.272465 11.572 0.34787 11.8582C0.423275 12.1444 0.579283 12.4029 0.797345 12.603L2.51269 14.2875L2.09545 16.6364C2.04191 16.9276 2.07316 17.2281 2.18549 17.5021C2.29781 17.776 2.48648 18.012 2.72904 18.1818C2.96595 18.3549 3.24726 18.4571 3.54008 18.4762C3.8329 18.4954 4.12513 18.4308 4.38257 18.29L6.49971 17.1773L8.61685 18.29C8.84007 18.4104 9.08951 18.4741 9.34317 18.4754ZM6.49971 15.5392C6.37516 15.5385 6.25259 15.5704 6.14428 15.6319L3.62535 16.8991L4.18168 14.1484C4.19028 14.0161 4.16665 13.8837 4.11281 13.7626C4.05898 13.6415 3.97655 13.5352 3.87261 13.453L1.8791 11.4595L4.66074 11.0577C4.78372 11.0427 4.90082 10.9965 5.0009 10.9234C5.10098 10.8504 5.18071 10.753 5.23252 10.6404L6.51517 8.1215L7.76691 10.6404C7.81871 10.753 7.89845 10.8504 7.99853 10.9234C8.09861 10.9965 8.21571 11.0427 8.33869 11.0577L11.1203 11.5058L9.12682 13.453C9.03682 13.5429 8.96902 13.6526 8.92878 13.7733C8.88854 13.894 8.87698 14.0224 8.89502 14.1484L9.34317 16.93L6.85515 15.6319C6.74684 15.5704 6.62427 15.5385 6.49971 15.5392ZM38.8749 10.9959C38.7867 10.7162 38.6206 10.4675 38.3962 10.2786C38.1719 10.0898 37.8984 9.96875 37.6078 9.92957L35.2434 9.58959L34.1771 7.44155C34.0348 7.19439 33.8299 6.98909 33.583 6.84634C33.3361 6.70359 33.056 6.62843 32.7708 6.62843C32.4856 6.62843 32.2055 6.70359 31.9586 6.84634C31.7117 6.98909 31.5068 7.19439 31.3645 7.44155L30.2982 9.58959L27.9338 9.92957C27.6399 9.96395 27.3619 10.082 27.1331 10.2697C26.9043 10.4575 26.7342 10.707 26.6431 10.9886C26.5519 11.2701 26.5435 11.572 26.6189 11.8582C26.6943 12.1444 26.8504 12.4029 27.0684 12.603L28.7838 14.2875L28.3665 16.6364C28.313 16.9276 28.3442 17.2281 28.4566 17.5021C28.5689 17.776 28.7576 18.012 29.0001 18.1818C29.237 18.3549 29.5183 18.4571 29.8112 18.4762C30.104 18.4954 30.3962 18.4308 30.6536 18.29L32.7708 17.1773L34.8879 18.29C35.1111 18.4104 35.3606 18.4741 35.6142 18.4754C35.8444 18.4796 36.0727 18.4323 36.2822 18.337C36.4918 18.2417 36.6774 18.1007 36.8255 17.9245C36.9737 17.7482 37.0805 17.5411 37.1383 17.3183C37.1961 17.0954 37.2034 16.8624 37.1596 16.6364L36.7424 14.2875L38.4577 12.603C38.673 12.4026 38.8266 12.1449 38.9005 11.8603C38.9744 11.5756 38.9656 11.2757 38.8749 10.9959ZM35.3979 13.453C35.3079 13.5429 35.2401 13.6526 35.1999 13.7733C35.1596 13.894 35.1481 14.0224 35.1661 14.1484L35.6142 16.93L33.1262 15.6319C33.0177 15.571 32.8953 15.539 32.7708 15.539C32.6463 15.539 32.5239 15.571 32.4154 15.6319L29.8964 16.8991L30.4528 14.1484C30.4614 14.0161 30.4377 13.8837 30.3839 13.7626C30.3301 13.6415 30.2476 13.5352 30.1437 13.453L28.1502 11.4595L30.9318 11.0577C31.0548 11.0427 31.1719 10.9965 31.272 10.9234C31.3721 10.8504 31.4518 10.753 31.5036 10.6404L32.7862 8.1215L34.038 10.6404C34.0898 10.753 34.1695 10.8504 34.2696 10.9234C34.3697 10.9965 34.4868 11.0427 34.6098 11.0577L37.3914 11.5058L35.3979 13.453Z" fill="#3C83F6" stroke="#3C83F6" stroke-width="0.5"/>
</svg>
