<svg width="44" height="44" viewBox="0 0 44 44" fill="none" xmlns="http://www.w3.org/2000/svg">
<path d="M34.9177 21.9945C34.9177 21.2333 34.7259 20.4846 34.3603 19.8168C34.0404 19.2326 33.5973 18.7262 33.0616 18.3342L32.8258 18.1733C32.4549 17.936 32.2728 17.4923 32.3693 17.0627L32.4225 16.7806C32.5273 16.1222 32.4861 15.4472 32.2998 14.8046C32.0869 14.0701 31.6918 13.4007 31.151 12.8599C30.6102 12.3192 29.9409 11.924 29.2063 11.7111C28.5637 11.5248 27.8888 11.4836 27.2303 11.5884L26.9496 11.643C26.5736 11.7275 26.1856 11.5981 25.9357 11.3159L25.8376 11.1851C25.4276 10.5439 24.8629 10.0162 24.1954 9.65059C23.6111 9.33063 22.9638 9.14441 22.3012 9.10275L22.0164 9.09321C21.2552 9.09326 20.5063 9.28503 19.8386 9.65059C19.1709 10.0162 18.6053 10.5437 18.1951 11.1851C17.958 11.556 17.5141 11.7393 17.0845 11.643C16.3395 11.476 15.5638 11.5001 14.8305 11.7125C14.0973 11.9249 13.4289 12.3193 12.8885 12.8585C12.3483 13.3978 11.9536 14.065 11.7397 14.7978C11.5258 15.5308 11.4993 16.3064 11.6648 17.0518L11.6879 17.2126C11.7116 17.5896 11.5291 17.9559 11.2028 18.1624C10.5567 18.5714 10.0249 19.1375 9.65604 19.8073C9.28715 20.4773 9.09324 21.2297 9.09321 21.9945C9.09321 22.7594 9.28714 23.5118 9.65604 24.1818C10.0249 24.8517 10.5567 25.4176 11.2028 25.8267C11.5756 26.0626 11.7604 26.5079 11.6648 26.9387C11.4994 27.6839 11.5259 28.4586 11.7397 29.1913C11.9537 29.9243 12.348 30.5925 12.8885 31.1319C13.4289 31.6712 14.0972 32.0656 14.8305 32.278C15.5638 32.4904 16.3395 32.5131 17.0845 32.3461L17.2467 32.323C17.6231 32.2986 17.9893 32.4801 18.1965 32.8054C18.6061 33.4493 19.1725 33.9794 19.8414 34.3467C20.5101 34.7138 21.2603 34.9067 22.0232 34.9068C22.7863 34.9068 23.5374 34.714 24.2063 34.3467C24.8751 33.9794 25.4403 33.4492 25.8498 32.8054L25.9479 32.6759C26.1971 32.393 26.5842 32.2626 26.9605 32.3461C27.7056 32.5115 28.4804 32.4863 29.2131 32.2726C29.9462 32.0586 30.6143 31.6629 31.1537 31.1224C31.6931 30.5819 32.0874 29.9138 32.2998 29.1804C32.5122 28.447 32.535 27.6715 32.3679 26.9264C32.2717 26.4969 32.455 26.0529 32.8258 25.8158C33.4672 25.4056 33.9947 24.84 34.3603 24.1723C34.7259 23.5045 34.9177 22.7558 34.9177 21.9945ZM37.0109 21.9945C37.0109 23.1071 36.7316 24.2021 36.1973 25.178C35.7764 25.9468 35.2056 26.6197 34.5252 27.1649C34.6248 28.0345 34.5546 28.9172 34.3099 29.7623C33.9994 30.8343 33.4234 31.811 32.6351 32.601C31.8468 33.3909 30.8717 33.9686 29.8005 34.2813C28.9557 34.5278 28.0729 34.5998 27.2031 34.502C26.6579 35.1857 25.984 35.7593 25.2134 36.1823C24.2359 36.719 23.1383 37 22.0232 37C20.908 36.9999 19.8104 36.719 18.8329 36.1823C18.0626 35.7594 17.3883 35.1868 16.8433 34.5034C15.9747 34.6025 15.0928 34.5326 14.2486 34.2881C13.1767 33.9776 12.1999 33.4015 11.4099 32.6132C10.6201 31.825 10.0423 30.8498 9.72963 29.7787C9.48322 28.9345 9.41 28.0519 9.5075 27.1826C8.82157 26.6377 8.24651 25.9631 7.82175 25.1916C7.28261 24.2123 7 23.1124 7 21.9945C7.00002 20.8767 7.2826 19.7767 7.82175 18.7975C8.24666 18.0258 8.82125 17.3501 9.5075 16.8051C9.41028 15.9363 9.48337 15.0541 9.72963 14.2104C10.0424 13.1393 10.6201 12.164 11.4099 11.3759C12.1999 10.5875 13.1766 10.0115 14.2486 9.70101C15.0932 9.45641 15.9757 9.38509 16.8446 9.48433C17.3897 8.80413 18.0644 8.23582 18.8329 7.81494C19.8088 7.2806 20.9038 7.00005 22.0164 7L22.4334 7.01363C23.4015 7.07462 24.346 7.34745 25.1998 7.81494C25.9681 8.23565 26.6417 8.80442 27.1867 9.48433C28.0578 9.38414 28.9429 9.45559 29.7896 9.70101C30.863 10.0122 31.8406 10.5897 32.631 11.3799C33.4214 12.1704 33.9987 13.149 34.3099 14.2227C34.5551 15.0687 34.6265 15.9524 34.5266 16.8228C35.207 17.368 35.7764 18.0423 36.1973 18.8111C36.7317 19.787 37.0109 20.882 37.0109 21.9945Z" fill="#A856F7" stroke="#A856F7" stroke-width="0.3" stroke-linecap="round" stroke-linejoin="round"/>
<path d="M26.5525 24.7866C26.5525 24.324 26.3686 23.8805 26.0414 23.5533C25.7143 23.2262 25.2708 23.0423 24.8081 23.0423H19.2262C18.2084 23.0423 17.2326 22.6377 16.513 21.918C15.8831 21.2882 15.4949 20.4623 15.4078 19.5836L15.3887 19.2047C15.3887 18.187 15.7933 17.2112 16.513 16.4915C17.2326 15.7718 18.2084 15.3672 19.2262 15.3672H27.5991C28.1771 15.3672 28.6457 15.8358 28.6457 16.4138C28.6457 16.9918 28.1771 17.4604 27.5991 17.4604H19.2262C18.7636 17.4604 18.3201 17.6443 17.9929 17.9714C17.6658 18.2986 17.4819 18.7421 17.4819 19.2047L17.4901 19.3778C17.5298 19.7769 17.7068 20.152 17.9929 20.4381C18.3201 20.7652 18.7636 20.9491 19.2262 20.9491H24.8081C25.8259 20.9491 26.8017 21.3537 27.5214 22.0734C28.2411 22.7931 28.6457 23.7689 28.6457 24.7866C28.6457 25.8044 28.2411 26.7802 27.5214 27.4999C26.8017 28.2196 25.8259 28.6242 24.8081 28.6242H16.4353C15.8573 28.6242 15.3887 28.1556 15.3887 27.5776C15.3887 26.9996 15.8573 26.531 16.4353 26.531H24.8081C25.2708 26.531 25.7143 26.3471 26.0414 26.02C26.3686 25.6928 26.5525 25.2493 26.5525 24.7866Z" fill="#A856F7" stroke="#A856F7" stroke-width="0.3" stroke-linecap="round" stroke-linejoin="round"/>
<path d="M20.9707 30.3704V13.6247C20.9707 13.0467 21.4393 12.5781 22.0173 12.5781C22.5953 12.5781 23.0639 13.0467 23.0639 13.6247V30.3704C23.0639 30.9485 22.5953 31.417 22.0173 31.417C21.4393 31.417 20.9707 30.9485 20.9707 30.3704Z" fill="#A856F7" stroke="#A856F7" stroke-width="0.3" stroke-linecap="round" stroke-linejoin="round"/>
</svg>
