<svg width="44" height="44" viewBox="0 0 44 44" fill="none" xmlns="http://www.w3.org/2000/svg">
<path d="M34.1839 24.1292L25.1273 33.1858L27.6988 35.7574L36.7554 26.7008L34.1839 24.1292ZM39.9988 26.7008C39.9988 27.5605 39.6571 28.385 39.0494 28.993L29.9911 38.0514C29.383 38.6591 28.5585 39.0007 27.6988 39.0008C26.839 39.0008 26.0138 38.6593 25.4057 38.0514V38.0505L22.8342 35.479C22.2263 34.8709 21.8849 34.0465 21.8848 33.1867C21.8848 32.3268 22.2262 31.5017 22.8342 30.8936L31.8916 21.8361L32.0084 21.7255C32.6033 21.187 33.3786 20.8867 34.1848 20.8867C34.9908 20.8868 35.7655 21.1871 36.3602 21.7255L36.477 21.8361L39.0486 24.4077H39.0494L39.1601 24.5245C39.6985 25.1193 39.9988 25.8947 39.9988 26.7008Z" fill="#3C83F6"/>
<path d="M7.36527 4.12123C7.83333 3.98964 8.32401 3.96491 8.80122 4.04833L9.00497 4.09049L9.03571 4.0984L29.5369 9.48475H29.536C30.1251 9.63297 30.6613 9.94325 31.0826 10.3815C31.5112 10.8273 31.8035 11.3867 31.9249 11.9931L34.1539 23.139L34.1785 23.3033C34.2574 24.1212 33.7054 24.8819 32.8822 25.0466C32.0588 25.2113 31.2566 24.7212 31.015 23.9356L30.9746 23.7749L28.7447 12.6289L28.7131 12.621L8.24265 7.24256L13.6211 27.713L13.629 27.7446L24.775 29.9745L24.9357 30.0149C25.7213 30.2566 26.2114 31.0588 26.0467 31.8821C25.882 32.7053 25.1213 33.2573 24.3033 33.1784L24.1391 33.1538L12.9931 30.9248C12.3868 30.8035 11.8273 30.5111 11.3815 30.0825C10.9433 29.6612 10.6331 29.125 10.4848 28.5359V28.5368L5.09848 8.03562C5.0958 8.02539 5.09307 8.01517 5.09058 8.00489C4.95999 7.46475 4.97093 6.90014 5.12132 6.36518C5.27174 5.83019 5.55655 5.34239 5.94952 4.94943C6.34248 4.55647 6.83028 4.27165 7.36527 4.12123Z" fill="#3C83F6"/>
<path d="M20.0679 16.7767C20.701 17.41 20.7011 18.4367 20.0679 19.0699C19.4348 19.703 18.408 19.7029 17.7748 19.0699L20.0679 16.7767ZM5.96134 4.96329C6.55496 4.36968 7.49378 4.33237 8.13064 4.85176L8.25359 4.96329L20.0679 16.7767L17.7748 19.0699L5.96134 7.25555L5.8498 7.13259C5.33041 6.49574 5.36772 5.55691 5.96134 4.96329Z" fill="#3C83F6"/>
<path d="M22.8355 20.2154C22.8354 19.32 22.1088 18.5941 21.2134 18.5941C20.3182 18.5943 19.5923 19.3201 19.5921 20.2154C19.5921 21.1107 20.3181 21.8373 21.2134 21.8375C22.1089 21.8375 22.8355 21.1108 22.8355 20.2154ZM26.0781 20.2154C26.0781 22.9018 23.8999 25.08 21.2134 25.08C18.5271 25.0798 16.3496 22.9017 16.3496 20.2154C16.3498 17.5291 18.5272 15.3517 21.2134 15.3516C23.8998 15.3516 26.0779 17.529 26.0781 20.2154Z" fill="#3C83F6"/>
</svg>
