<svg width="44" height="44" viewBox="0 0 44 44" fill="none" xmlns="http://www.w3.org/2000/svg">
<path d="M22.3077 24.3077H20C19.0819 24.3077 18.2015 24.6724 17.5523 25.3216C16.9032 25.9707 16.5385 26.8512 16.5385 27.7692V33.5385C16.5385 34.4565 16.9032 35.337 17.5523 35.9861C18.2015 36.6353 19.0819 37 20 37H22.3077C23.2257 37 24.1062 36.6353 24.7554 35.9861C25.4045 35.337 25.7692 34.4565 25.7692 33.5385V27.7692C25.7692 26.8512 25.4045 25.9707 24.7554 25.3216C24.1062 24.6724 23.2257 24.3077 22.3077 24.3077ZM23.4615 33.5385C23.4615 33.8445 23.34 34.138 23.1236 34.3544C22.9072 34.5707 22.6137 34.6923 22.3077 34.6923H20C19.694 34.6923 19.4005 34.5707 19.1841 34.3544C18.9677 34.138 18.8462 33.8445 18.8462 33.5385V27.7692C18.8462 27.4632 18.9677 27.1697 19.1841 26.9533C19.4005 26.7369 19.694 26.6154 20 26.6154H22.3077C22.6137 26.6154 22.9072 26.7369 23.1236 26.9533C23.34 27.1697 23.4615 27.4632 23.4615 27.7692V33.5385ZM33.8462 16.2308H31.5385C30.6204 16.2308 29.7399 16.5955 29.0908 17.2446C28.4416 17.8938 28.0769 18.7743 28.0769 19.6923V33.5385C28.0769 34.4565 28.4416 35.337 29.0908 35.9861C29.7399 36.6353 30.6204 37 31.5385 37H33.8462C34.7642 37 35.6447 36.6353 36.2938 35.9861C36.943 35.337 37.3077 34.4565 37.3077 33.5385V19.6923C37.3077 18.7743 36.943 17.8938 36.2938 17.2446C35.6447 16.5955 34.7642 16.2308 33.8462 16.2308ZM35 33.5385C35 33.8445 34.8784 34.138 34.662 34.3544C34.4457 34.5707 34.1522 34.6923 33.8462 34.6923H31.5385C31.2324 34.6923 30.939 34.5707 30.7226 34.3544C30.5062 34.138 30.3846 33.8445 30.3846 33.5385V19.6923C30.3846 19.3863 30.5062 19.0928 30.7226 18.8764C30.939 18.66 31.2324 18.5385 31.5385 18.5385H33.8462C34.1522 18.5385 34.4457 18.66 34.662 18.8764C34.8784 19.0928 35 19.3863 35 19.6923V33.5385ZM10.7692 19.6923H8.46154C7.54348 19.6923 6.66303 20.057 6.01386 20.7062C5.3647 21.3553 5 22.2358 5 23.1538V33.5385C5 34.4565 5.3647 35.337 6.01386 35.9861C6.66303 36.6353 7.54348 37 8.46154 37H10.7692C11.6873 37 12.5677 36.6353 13.2169 35.9861C13.8661 35.337 14.2308 34.4565 14.2308 33.5385V23.1538C14.2308 22.2358 13.8661 21.3553 13.2169 20.7062C12.5677 20.057 11.6873 19.6923 10.7692 19.6923ZM11.9231 33.5385C11.9231 33.8445 11.8015 34.138 11.5851 34.3544C11.3687 34.5707 11.0752 34.6923 10.7692 34.6923H8.46154C8.15552 34.6923 7.86203 34.5707 7.64565 34.3544C7.42926 34.138 7.30769 33.8445 7.30769 33.5385V23.1538C7.30769 22.8478 7.42926 22.5543 7.64565 22.338C7.86203 22.1216 8.15552 22 8.46154 22H10.7692C11.0752 22 11.3687 22.1216 11.5851 22.338C11.8015 22.5543 11.9231 22.8478 11.9231 23.1538V33.5385ZM7.30769 13.9231C7.26332 13.311 7.4639 12.7064 7.8653 12.2423C8.2667 11.7781 8.83604 11.4925 9.44808 11.4481C10.0601 11.4037 10.6647 11.6043 11.1289 12.0057C11.593 12.4071 11.8787 12.9764 11.9231 13.5885L19.7692 16.7269C20.1643 16.4149 20.6505 16.2407 21.1538 16.2308C21.4387 16.2298 21.7209 16.2847 21.9846 16.3923L30.3846 9.65385V9.30769C30.3846 8.85127 30.52 8.40511 30.7735 8.02561C31.0271 7.64611 31.3875 7.35033 31.8092 7.17566C32.2309 7.001 32.6949 6.9553 33.1425 7.04434C33.5902 7.13339 34.0014 7.35317 34.3241 7.67591C34.6468 7.99864 34.8666 8.40984 34.9557 8.85748C35.0447 9.30513 34.999 9.76913 34.8243 10.1908C34.6497 10.6125 34.3539 10.9729 33.9744 11.2265C33.5949 11.48 33.1487 11.6154 32.6923 11.6154C32.4075 11.6163 32.1253 11.5614 31.8615 11.4538L23.4615 18.1923V18.5385C23.5059 19.1505 23.3053 19.7551 22.9039 20.2193C22.5025 20.6834 21.9332 20.9691 21.3212 21.0135C20.7091 21.0578 20.1045 20.8573 19.6404 20.4559C19.1762 20.0545 18.8905 19.4851 18.8462 18.8731L11 15.7346C10.6049 16.0466 10.1187 16.2208 9.61538 16.2308C9.00335 16.2308 8.41638 15.9876 7.9836 15.5549C7.55082 15.1221 7.30769 14.5351 7.30769 13.9231Z" fill="#3C83F6"/>
</svg>
