<svg width="44" height="44" viewBox="0 0 44 44" fill="none" xmlns="http://www.w3.org/2000/svg">
<path d="M27.4185 12.4185C27.9415 11.8955 28.7687 11.8626 29.3298 12.3202L29.4381 12.4185L38.0103 20.9899C38.5679 21.5478 38.5681 22.4525 38.0103 23.0103L29.4381 31.5817C28.8803 32.1392 27.9763 32.1392 27.4185 31.5817C26.8606 31.0238 26.8606 30.1192 27.4185 29.5613L34.9793 21.9997L27.4185 14.4381L27.3202 14.3298C26.8626 13.7687 26.8955 12.9415 27.4185 12.4185Z" fill="#A856F7"/>
<path d="M18.0102 29.5612C18.5678 30.1191 18.568 31.0238 18.0102 31.5816C17.4524 32.1394 16.5477 32.1393 15.9898 31.5816L18.0102 29.5612ZM15.9898 12.4184C16.5477 11.8605 17.4523 11.8605 18.0102 12.4184C18.5677 12.9762 18.5677 13.8802 18.0102 14.438L10.4479 21.9996L18.0102 29.5612L15.9898 31.5816L7.41842 23.0102C6.86053 22.4523 6.86053 21.5477 7.41842 20.9898L15.9898 12.4184Z" fill="#A856F7"/>
</svg>
