<svg width="44" height="44" viewBox="0 0 44 44" fill="none" xmlns="http://www.w3.org/2000/svg">
<path d="M34.2727 22C34.2727 15.222 28.778 9.72727 22 9.72727C15.222 9.72727 9.72727 15.222 9.72727 22C9.72727 28.778 15.222 34.2727 22 34.2727C28.778 34.2727 34.2727 28.778 34.2727 22ZM37 22C37 30.2843 30.2843 37 22 37C13.7157 37 7 30.2843 7 22C7 13.7157 13.7157 7 22 7C30.2843 7 37 13.7157 37 22Z" fill="#A856F7"/>
<path d="M26.0907 22C26.0907 17.7743 24.637 13.6938 21.9998 10.4304C19.3627 13.6938 17.9089 17.7743 17.9089 22C17.9089 26.2255 19.3629 30.3055 21.9998 33.5688C24.6367 30.3055 26.0907 26.2255 26.0907 22ZM28.818 22C28.818 27.4273 26.7305 32.6468 22.9875 36.5769C22.7302 36.8472 22.373 37 21.9998 37C21.6733 37 21.3591 36.8831 21.1133 36.6728L21.0121 36.5769C17.2692 32.6468 15.1816 27.4273 15.1816 22C15.1816 16.5727 17.2692 11.3532 21.0121 7.42309L21.1133 7.32721C21.3591 7.11693 21.6733 7 21.9998 7C22.373 7 22.7302 7.15285 22.9875 7.42309C26.7305 11.3532 28.818 16.5727 28.818 22Z" fill="#A856F7"/>
<path d="M35.6364 20.6367C36.3895 20.6367 37 21.2472 37 22.0004C37 22.7535 36.3895 23.364 35.6364 23.364H8.36364C7.61052 23.364 7 22.7535 7 22.0004C7 21.2472 7.61052 20.6367 8.36364 20.6367H35.6364Z" fill="#A856F7"/>
</svg>
