<svg width="44" height="44" viewBox="0 0 44 44" fill="none" xmlns="http://www.w3.org/2000/svg">
<path d="M27.5231 9.52315C28.1769 8.86938 29.2109 8.82829 29.9123 9.40031L30.0477 9.52315L40.7629 20.2374C41.4599 20.9348 41.4601 22.0656 40.7629 22.7629L30.0477 33.4771C29.3504 34.174 28.2204 34.174 27.5231 33.4771C26.8258 32.7798 26.8258 31.649 27.5231 30.9516L36.9742 21.4997L27.5231 12.0477L27.4003 11.9123C26.8283 11.2109 26.8694 10.1769 27.5231 9.52315Z" fill="#3C83F6"/>
<path d="M15.7628 30.9515C16.4598 31.6489 16.46 32.7797 15.7628 33.477C15.0655 34.1743 13.9347 34.1741 13.2373 33.477L15.7628 30.9515ZM13.2373 9.52303C13.9346 8.82566 15.0654 8.82566 15.7628 9.52303C16.4596 10.2203 16.4596 11.3503 15.7628 12.0476L6.30982 21.4995L15.7628 30.9515L13.2373 33.477L2.52303 22.7628C1.82566 22.0654 1.82566 20.9346 2.52303 20.2373L13.2373 9.52303Z" fill="#3C83F6"/>
</svg>
