<svg width="44" height="44" viewBox="0 0 44 44" fill="none" xmlns="http://www.w3.org/2000/svg">
<path d="M15.2814 32.27C15.166 32.2702 15.0517 32.2475 14.945 32.2033C14.8384 32.1591 14.7415 32.0943 14.66 32.0126C11.642 28.9946 11.642 24.084 14.66 21.066C15.0032 20.7228 15.5597 20.7228 15.9029 21.066C16.2462 21.4092 16.2462 21.9657 15.9029 22.3089C13.5703 24.6416 13.5703 28.437 15.9029 30.7696C16.2462 31.1128 16.2462 31.6693 15.9029 32.0126C15.8214 32.0943 15.7245 32.1591 15.6179 32.2033C15.5112 32.2475 15.3969 32.2702 15.2814 32.27ZM18.5785 29.5589C18.4631 29.559 18.3488 29.5363 18.2421 29.4922C18.1355 29.448 18.0386 29.3832 17.9571 29.3014C16.434 27.7783 16.434 25.3001 17.9571 23.7771C18.3003 23.4339 18.8568 23.4339 19.2 23.7771C19.5433 24.1203 19.5433 24.6768 19.2 25.02C18.3623 25.8577 18.3623 27.2208 19.2 28.0585C19.5433 28.4017 19.5433 28.9582 19.2 29.3014C19.1185 29.3832 19.0216 29.448 18.915 29.4922C18.8083 29.5363 18.694 29.559 18.5785 29.5589Z" fill="#3C83F6" stroke="#3C83F6" stroke-width="0.5"/>
<path d="M11.9756 34.9082C11.8601 34.9083 11.7458 34.8857 11.6392 34.8415C11.5325 34.7973 11.4356 34.7325 11.3541 34.6507C6.88196 30.1785 6.88196 22.9017 11.3541 18.4295C11.6974 18.0863 12.2539 18.0863 12.5971 18.4295C12.9403 18.7726 12.9403 19.3292 12.5971 19.6724C8.81025 23.4593 8.81025 29.621 12.5971 33.4078C12.9403 33.751 12.9403 34.3075 12.5971 34.6507C12.5155 34.7325 12.4187 34.7973 12.312 34.8415C12.2054 34.8856 12.091 34.9083 11.9756 34.9082ZM34.813 37C34.4782 37 34.1583 36.8076 34.0115 36.4826L32.8266 33.8588C32.6427 33.4517 32.2338 33.1931 31.7889 33.2014C30.2284 33.2287 28.3119 33.2575 27.3339 33.2382C26.2817 33.2174 25.6685 32.7706 25.3393 32.3996C24.8832 31.8855 24.674 31.1832 24.7501 30.4221C24.7941 29.981 24.675 29.8307 24.4376 29.5314C24.2581 29.3051 24.0346 29.0234 23.9268 28.6223C23.7632 28.0133 24.0022 27.3496 24.5356 26.9314C24.5595 26.9127 24.5843 26.8952 24.61 26.879L26.376 25.7682L23.7366 24.7668C23.7141 24.7583 23.692 24.7488 23.6702 24.7385C23.0398 24.438 22.6908 23.7489 22.8215 23.0629L23.1629 21.2706C23.1803 21.1811 23.1793 21.0889 23.1598 20.9998C23.1403 20.9106 23.1028 20.8264 23.0497 20.7523C22.9971 20.6777 22.9298 20.6146 22.8519 20.567C22.7741 20.5194 22.6874 20.4881 22.597 20.4752L20.8595 20.2198C20.6231 20.1852 20.3988 20.0929 20.2065 19.9511C20.0142 19.8093 19.8597 19.6223 19.7568 19.4067C19.6535 19.1912 19.6049 18.9537 19.6152 18.715C19.6255 18.4763 19.6944 18.2439 19.8158 18.0381L23.1276 12.4168C23.6314 11.5618 23.8301 10.55 23.6873 9.56796L23.46 8.00552C23.3901 7.52517 23.7228 7.0791 24.2032 7.00926C24.6836 6.93942 25.1297 7.27217 25.1995 7.75251L25.4268 9.31496C25.627 10.6919 25.3484 12.1104 24.6421 13.3091L21.5571 18.5456L22.8528 18.7361C23.5154 18.8336 24.094 19.1878 24.4821 19.7334C24.8702 20.2791 25.0149 20.9418 24.8897 21.5996L24.5833 23.208L27.5496 24.3334C28.0726 24.5318 28.4321 25.0008 28.4876 25.5575C28.5431 26.1142 28.2835 26.6451 27.8099 26.943L25.6897 28.2767C25.7267 28.328 25.7734 28.3869 25.8147 28.439C26.1138 28.816 26.6142 29.4468 26.4992 30.597C26.4837 30.7518 26.4833 31.0403 26.6542 31.233C26.8285 31.4295 27.1389 31.4761 27.3686 31.4807C28.3174 31.4994 30.2129 31.4709 31.7581 31.4439C32.9072 31.4259 33.9554 32.0877 34.4285 33.1353L35.6135 35.7591C35.8133 36.2015 35.6166 36.7221 35.1743 36.9219C35.0608 36.9733 34.9376 36.9999 34.813 37Z" fill="#3C83F6"/>
<path d="M26.9261 25.9769H26.9267M11.9756 34.9082C11.8601 34.9083 11.7458 34.8857 11.6392 34.8415C11.5325 34.7973 11.4356 34.7325 11.3541 34.6507C6.88196 30.1785 6.88196 22.9017 11.3541 18.4295C11.6974 18.0863 12.2539 18.0863 12.5971 18.4295C12.9403 18.7726 12.9403 19.3292 12.5971 19.6724C8.81025 23.4593 8.81025 29.621 12.5971 33.4078C12.9403 33.751 12.9403 34.3075 12.5971 34.6507C12.5155 34.7325 12.4187 34.7973 12.312 34.8415C12.2054 34.8856 12.091 34.9083 11.9756 34.9082ZM34.813 37C34.4782 37 34.1583 36.8076 34.0115 36.4826L32.8266 33.8588C32.6427 33.4517 32.2338 33.1931 31.7889 33.2014C30.2284 33.2287 28.3119 33.2575 27.3339 33.2382C26.2817 33.2174 25.6685 32.7706 25.3393 32.3996C24.8832 31.8855 24.674 31.1832 24.7501 30.4221C24.7941 29.981 24.675 29.8307 24.4376 29.5314C24.2581 29.3051 24.0346 29.0234 23.9268 28.6223C23.7632 28.0133 24.0022 27.3496 24.5356 26.9314C24.5595 26.9127 24.5843 26.8952 24.61 26.879L26.376 25.7682L23.7366 24.7668C23.7141 24.7583 23.692 24.7488 23.6702 24.7385C23.0398 24.438 22.6908 23.7489 22.8215 23.0629L23.1629 21.2706C23.1803 21.1811 23.1793 21.0889 23.1598 20.9998C23.1403 20.9106 23.1028 20.8264 23.0497 20.7523C22.9971 20.6777 22.9298 20.6146 22.8519 20.567C22.7741 20.5194 22.6874 20.4881 22.597 20.4752L20.8595 20.2198C20.6231 20.1852 20.3988 20.0929 20.2065 19.9511C20.0142 19.8093 19.8597 19.6223 19.7568 19.4067C19.6535 19.1912 19.6049 18.9537 19.6152 18.715C19.6255 18.4763 19.6944 18.2439 19.8158 18.0381L23.1276 12.4168C23.6314 11.5618 23.8301 10.55 23.6873 9.56796L23.46 8.00552C23.3901 7.52517 23.7228 7.0791 24.2032 7.00926C24.6836 6.93942 25.1297 7.27217 25.1995 7.75251L25.4268 9.31496C25.627 10.6919 25.3484 12.1104 24.6421 13.3091L21.5571 18.5456L22.8528 18.7361C23.5154 18.8336 24.094 19.1878 24.4821 19.7334C24.8702 20.2791 25.0149 20.9418 24.8897 21.5996L24.5833 23.208L27.5496 24.3334C28.0726 24.5318 28.4321 25.0008 28.4876 25.5575C28.5431 26.1142 28.2835 26.6451 27.8099 26.943L25.6897 28.2767C25.7267 28.328 25.7734 28.3869 25.8147 28.439C26.1138 28.816 26.6142 29.4468 26.4992 30.597C26.4837 30.7518 26.4833 31.0403 26.6542 31.233C26.8285 31.4295 27.1389 31.4761 27.3686 31.4807C28.3174 31.4994 30.2129 31.4709 31.7581 31.4439C32.9072 31.4259 33.9554 32.0877 34.4285 33.1353L35.6135 35.7591C35.8133 36.2015 35.6166 36.7221 35.1743 36.9219C35.0608 36.9733 34.9376 36.9999 34.813 37Z" stroke="#3C83F6" stroke-width="0.5"/>
</svg>
