<svg width="44" height="44" viewBox="0 0 44 44" fill="none" xmlns="http://www.w3.org/2000/svg">
<path d="M35.3328 12L35.5025 12.0081C36.3431 12.0933 36.9993 12.8034 36.9993 13.6665C36.9993 14.5296 36.3431 15.2397 35.5025 15.3249L35.3328 15.333H20.3325C19.412 15.333 18.666 14.587 18.666 13.6665C18.666 12.746 19.412 12 20.3325 12H35.3328Z" fill="#A856F7"/>
<path d="M25.3347 28.6641L25.5044 28.6722C26.3451 28.7573 27.0012 29.4675 27.0012 30.3306C27.0012 31.1936 26.3451 31.9038 25.5044 31.9889L25.3347 31.9971H10.3345C9.41399 31.9971 8.66797 31.251 8.66797 30.3306C8.66797 29.4101 9.41399 28.6641 10.3345 28.6641H25.3347Z" fill="#A856F7"/>
<path d="M33.6678 30.3349C33.6678 28.494 32.1756 27.0012 30.3349 27.001C28.4939 27.001 27.001 28.4939 27.001 30.3349C27.0012 32.1756 28.494 33.6678 30.3349 33.6678C32.1755 33.6676 33.6676 32.1755 33.6678 30.3349ZM37.0008 30.3349C37.0006 34.0164 34.0164 37.0006 30.3349 37.0008C26.6531 37.0008 23.6682 34.0166 23.668 30.3349C23.668 26.653 26.653 23.668 30.3349 23.668C34.0166 23.6682 37.0008 26.6531 37.0008 30.3349Z" fill="#A856F7"/>
<path d="M16.9999 13.6669C16.9999 11.8261 15.5076 10.3332 13.6669 10.333C11.8259 10.333 10.333 11.8259 10.333 13.6669C10.3332 15.5076 11.8261 16.9999 13.6669 16.9999C15.5075 16.9997 16.9997 15.5075 16.9999 13.6669ZM20.3329 13.6669C20.3326 17.3485 17.3485 20.3326 13.6669 20.3329C9.98512 20.3329 7.00021 17.3486 7 13.6669C7 9.98499 9.98499 7 13.6669 7C17.3486 7.00021 20.3329 9.98512 20.3329 13.6669Z" fill="#A856F7"/>
</svg>
