<svg width="44" height="44" viewBox="0 0 44 44" fill="none" xmlns="http://www.w3.org/2000/svg">
<path d="M14.8037 12.8711C14.9766 12.8711 15.1425 12.9398 15.2648 13.0621C15.3871 13.1844 15.4558 13.3503 15.4558 13.5233V18.0885C15.4558 18.2615 15.3871 18.4273 15.2648 18.5496C15.1425 18.6719 14.9766 18.7407 14.8037 18.7407C14.6307 18.7407 14.4648 18.6719 14.3425 18.5496C14.2202 18.4273 14.1515 18.2615 14.1515 18.0885V13.5233C14.1515 13.3503 14.2202 13.1844 14.3425 13.0621C14.4648 12.9398 14.6307 12.8711 14.8037 12.8711ZM28.4993 13.5233C28.4993 13.3503 28.4306 13.1844 28.3083 13.0621C28.186 12.9398 28.0201 12.8711 27.8471 12.8711C27.6742 12.8711 27.5083 12.9398 27.386 13.0621C27.2637 13.1844 27.195 13.3503 27.195 13.5233V18.0885C27.195 18.2615 27.2637 18.4273 27.386 18.5496C27.5083 18.6719 27.6742 18.7407 27.8471 18.7407C28.0201 18.7407 28.186 18.6719 28.3083 18.5496C28.4306 18.4273 28.4993 18.2615 28.4993 18.0885V13.5233ZM21.3254 13.5233C21.1524 13.5233 20.9866 13.592 20.8642 13.7143C20.7419 13.8366 20.6732 14.0025 20.6732 14.1754V17.4363C20.6732 17.6093 20.7419 17.7752 20.8642 17.8975C20.9866 18.0198 21.1524 18.0885 21.3254 18.0885C21.4984 18.0885 21.6643 18.0198 21.7866 17.8975C21.9089 17.7752 21.9776 17.6093 21.9776 17.4363V14.1754C21.9776 14.0025 21.9089 13.8366 21.7866 13.7143C21.6643 13.592 21.4984 13.5233 21.3254 13.5233ZM10.8906 14.8276C10.8906 14.6546 10.9593 14.4888 11.0816 14.3665C11.2039 14.2442 11.3698 14.1754 11.5428 14.1754C11.7158 14.1754 11.8816 14.2442 12.004 14.3665C12.1263 14.4888 12.195 14.6546 12.195 14.8276V16.7841C12.195 16.9571 12.1263 17.123 12.004 17.2453C11.8816 17.3676 11.7158 17.4363 11.5428 17.4363C11.3698 17.4363 11.2039 17.3676 11.0816 17.2453C10.9593 17.123 10.8906 16.9571 10.8906 16.7841V14.8276ZM24.5863 14.1754C24.4133 14.1754 24.2474 14.2442 24.1251 14.3665C24.0028 14.4888 23.9341 14.6546 23.9341 14.8276V16.7841C23.9341 16.9571 24.0028 17.123 24.1251 17.2453C24.2474 17.3676 24.4133 17.4363 24.5863 17.4363C24.7592 17.4363 24.9251 17.3676 25.0474 17.2453C25.1697 17.123 25.2385 16.9571 25.2385 16.7841V14.8276C25.2385 14.6546 25.1697 14.4888 25.0474 14.3665C24.9251 14.2442 24.7592 14.1754 24.5863 14.1754ZM18.7167 14.5015C18.7167 14.3286 18.648 14.1627 18.5257 14.0404C18.4034 13.9181 18.2375 13.8494 18.0645 13.8494C17.8916 13.8494 17.7257 13.9181 17.6034 14.0404C17.4811 14.1627 17.4124 14.3286 17.4124 14.5015V17.1102C17.4124 17.2832 17.4811 17.4491 17.6034 17.5714C17.7257 17.6937 17.8916 17.7624 18.0645 17.7624C18.2375 17.7624 18.4034 17.6937 18.5257 17.5714C18.648 17.4491 18.7167 17.2832 18.7167 17.1102V14.5015ZM31.108 14.1754C30.935 14.1754 30.7692 14.2442 30.6469 14.3665C30.5246 14.4888 30.4558 14.6546 30.4558 14.8276V16.7841C30.4558 16.9571 30.5246 17.123 30.6469 17.2453C30.7692 17.3676 30.935 17.4363 31.108 17.4363C31.281 17.4363 31.4469 17.3676 31.5692 17.2453C31.6915 17.123 31.7602 16.9571 31.7602 16.7841V14.8276C31.7602 14.6546 31.6915 14.4888 31.5692 14.3665C31.4469 14.2442 31.281 14.1754 31.108 14.1754Z" fill="#3C83F6" stroke="#3C83F6" stroke-width="0.6"/>
<path fill-rule="evenodd" clip-rule="evenodd" d="M17.413 24.2158C16.5682 24.4771 15.6887 24.6095 14.8043 24.6087C9.94174 24.6087 6 20.667 6 15.8043C6 10.9417 9.94174 7 14.8043 7C17.3191 7 19.5887 8.05522 21.1924 9.74533C21.2305 9.78576 21.3091 9.78576 21.3476 9.74533C22.951 8.05522 25.2205 7 27.7357 7C32.5976 7 36.5397 10.9417 36.5397 15.8043C36.5397 20.667 32.5979 24.6087 27.7353 24.6087C26.8683 24.6087 26.0305 24.4832 25.2391 24.2497V29.1739C25.2391 31.1128 23.8288 32.7224 21.9783 33.0328V35.6957H24.0978C24.2708 35.6957 24.4367 35.7644 24.559 35.8867C24.6813 36.009 24.75 36.1749 24.75 36.3478C24.75 36.5208 24.6813 36.6867 24.559 36.809C24.4367 36.9313 24.2708 37 24.0978 37H18.3913C18.2183 37 18.0525 36.9313 17.9301 36.809C17.8078 36.6867 17.7391 36.5208 17.7391 36.3478C17.7391 36.1749 17.8078 36.009 17.9301 35.8867C18.0525 35.7644 18.2183 35.6957 18.3913 35.6957H20.6739V33.0328C18.8234 32.7224 17.413 31.1128 17.413 29.1739V24.2158ZM7.30435 15.8043C7.30435 11.6624 10.6621 8.30435 14.8043 8.30435C15.8229 8.30299 16.8309 8.50973 17.7667 8.91189C18.7024 9.31405 19.5461 9.90315 20.2461 10.643C20.7978 11.2248 21.7418 11.2248 22.2939 10.643C22.9938 9.90323 23.8374 9.31418 24.773 8.91202C25.7087 8.50987 26.7166 8.30308 27.735 8.30435C31.8773 8.30435 35.235 11.6624 35.235 15.8043C35.235 19.9463 31.8773 23.3043 27.735 23.3043C26.8308 23.3043 25.964 23.1446 25.1612 22.8511C24.8002 21.0635 23.2207 19.7174 21.3261 19.7174C19.4478 19.7174 17.879 21.0407 17.5001 22.8054C16.6399 23.1364 15.726 23.3055 14.8043 23.3043C10.6621 23.3043 7.30435 19.9466 7.30435 15.8043ZM18.7174 28.5217V29.1739C18.7174 29.8658 18.9922 30.5293 19.4815 31.0185C19.9707 31.5078 20.6342 31.7826 21.3261 31.7826C22.018 31.7826 22.6815 31.5078 23.1707 31.0185C23.6599 30.5293 23.9348 29.8658 23.9348 29.1739V28.5217H18.7174ZM23.9348 27.2174V23.6304C23.9348 22.9386 23.6599 22.275 23.1707 21.7858C22.6815 21.2966 22.018 21.0217 21.3261 21.0217C20.6342 21.0217 19.9707 21.2966 19.4815 21.7858C18.9922 22.275 18.7174 22.9386 18.7174 23.6304V27.2174H23.9348Z" fill="#3C83F6" stroke="#3C83F6" stroke-width="0.6"/>
</svg>
