<svg width="44" height="44" viewBox="0 0 44 44" fill="none" xmlns="http://www.w3.org/2000/svg">
<path d="M34.2735 21.9999C34.2735 21.7467 34.2241 21.4959 34.1272 21.262C34.0545 21.0865 33.9562 20.923 33.8362 20.7767L33.7092 20.6364L31.4143 18.343C31.0712 18.0002 30.8255 17.5721 30.703 17.1028C30.5805 16.6336 30.5854 16.1403 30.717 15.6736C30.8487 15.2067 31.1029 14.7828 31.4527 14.4467C31.8022 14.1111 32.2348 13.8743 32.7061 13.7613L32.8376 13.7259C33.1401 13.6316 33.417 13.4677 33.6464 13.2472C33.9085 12.9953 34.0994 12.6783 34.1981 12.3284C34.2969 11.9785 34.3002 11.6084 34.2085 11.2567C34.1167 10.9049 33.9329 10.5839 33.6759 10.3267C33.4511 10.1018 33.1772 9.93288 32.8767 9.8326L32.746 9.79345C32.3942 9.7016 32.0242 9.70516 31.6743 9.80379C31.3243 9.90244 31.0067 10.0927 30.7547 10.3548C30.5027 10.6168 30.3255 10.9416 30.2406 11.2951L30.2399 11.2943C30.1269 11.7658 29.891 12.1989 29.5552 12.5485C29.2192 12.8982 28.7958 13.1517 28.3291 13.2834C27.8622 13.4151 27.3684 13.42 26.8991 13.2975C26.4301 13.175 26.0024 12.9297 25.6597 12.5869L23.3641 10.292C23.185 10.113 22.9724 9.97085 22.7385 9.87396C22.5046 9.77713 22.2537 9.72698 22.0006 9.72698C21.7475 9.72702 21.4966 9.7771 21.2627 9.87396C21.0874 9.94662 20.9244 10.045 20.7782 10.165L20.6371 10.292L18.3422 12.5862H18.343L18.6487 12.6704C19.3547 12.8903 20.0014 13.272 20.5367 13.7864C21.1482 14.3742 21.5921 15.1143 21.8226 15.9306C22.0242 16.6452 22.0558 17.3957 21.9171 18.1221L21.8477 18.4316C21.6336 19.2525 21.2044 20.0017 20.6046 20.6016C20.0798 21.1265 19.4409 21.5207 18.7396 21.7546L18.4353 21.8447C17.7171 22.0323 16.9664 22.05 16.2431 21.8972L15.9343 21.8211C15.1179 21.5909 14.3774 21.1473 13.7894 20.5359C13.2013 19.9245 12.7866 19.1671 12.5884 18.3422V18.3407L10.2928 20.6364C10.1137 20.8154 9.9716 21.0281 9.8747 21.262C9.77782 21.4959 9.72846 21.7467 9.72846 21.9999L9.73732 22.1889C9.75587 22.3773 9.80203 22.5623 9.8747 22.7377C9.97159 22.9716 10.1137 23.1843 10.2928 23.3633L12.5876 25.6567L12.7117 25.789C12.9903 26.107 13.1917 26.4863 13.2989 26.8969C13.4215 27.3662 13.4166 27.8601 13.2849 28.3269C13.1532 28.7936 12.899 29.217 12.5492 29.553C12.2431 29.847 11.8731 30.0649 11.4694 30.1904L11.2951 30.2384C10.9417 30.3232 10.6168 30.5006 10.3548 30.7525C10.0928 31.0044 9.90254 31.3216 9.8038 31.6713C9.70505 32.0212 9.70175 32.3913 9.79345 32.743C9.88519 33.0948 10.069 33.4158 10.326 33.673C10.5831 33.9301 10.9041 34.1144 11.2559 34.2063C11.6077 34.2981 11.9777 34.2945 12.3277 34.1959C12.6775 34.0973 12.9945 33.9069 13.2465 33.6449C13.467 33.4156 13.6308 33.1386 13.7251 32.8361L13.7613 32.7046C13.8743 32.2334 14.111 31.8007 14.4467 31.4512L14.5767 31.3249C14.8893 31.0402 15.2644 30.8316 15.6729 30.7163C16.1397 30.5846 16.6335 30.5797 17.1028 30.7022C17.5718 30.8248 17.9996 31.07 18.3422 31.4128L20.6371 33.7077L20.7782 33.8347C20.9244 33.9547 21.0874 34.0531 21.2627 34.1257C21.4966 34.2226 21.7475 34.2727 22.0006 34.2727L22.1904 34.2631C22.3785 34.2445 22.5632 34.1983 22.7385 34.1257C22.9724 34.0288 23.185 33.8867 23.3641 33.7077H23.3648L25.6597 31.4143V31.4135H25.659C24.8341 31.2156 24.0769 30.8011 23.4653 30.2133C22.8537 29.6255 22.4098 28.8854 22.1793 28.0691C21.9489 27.2526 21.9402 26.3891 22.1542 25.5681C22.3683 24.7472 22.7976 23.998 23.3973 23.3981C23.9971 22.7982 24.7459 22.3693 25.5666 22.155C26.3875 21.9406 27.251 21.9484 28.0676 22.1786C28.884 22.4088 29.6245 22.8524 30.2125 23.4638C30.7271 23.9988 31.1085 24.6458 31.3286 25.3517L31.4128 25.6575L31.4135 25.659V25.6582L33.7092 23.3633L33.8362 23.223C33.9562 23.0767 34.0545 22.9132 34.1272 22.7377C34.2241 22.5038 34.2735 22.253 34.2735 21.9999ZM37.0012 21.9999C37.0012 22.6112 36.8806 23.2166 36.6467 23.7814C36.4419 24.2756 36.1534 24.7301 35.795 25.1257L35.637 25.2919L33.3421 27.5868C32.9994 27.9296 32.5716 28.1748 32.1027 28.2973C31.6333 28.4199 31.1396 28.415 30.6727 28.2833C30.206 28.1515 29.7826 27.8981 29.4466 27.5484C29.1107 27.1987 28.8741 26.7657 28.7612 26.2942V26.2949C28.6762 25.9414 28.4984 25.6167 28.2463 25.3547C27.9944 25.0927 27.6774 24.9023 27.3275 24.8036C26.9776 24.705 26.6075 24.7015 26.2558 24.7933C25.904 24.8852 25.5829 25.0694 25.3259 25.3266C25.0688 25.5837 24.885 25.9047 24.7933 26.2565C24.7016 26.6083 24.7049 26.9783 24.8036 27.3282C24.9024 27.6781 25.0933 27.9951 25.3554 28.2471C25.6172 28.4987 25.9411 28.6762 26.2942 28.7612H26.2949C26.7666 28.8741 27.1993 29.1113 27.5491 29.4473C27.8989 29.7834 28.153 30.2066 28.2848 30.6734C28.4164 31.1401 28.4213 31.6335 28.2988 32.1027C28.1916 32.5133 27.9901 32.8926 27.7116 33.2106L27.5875 33.3428L25.2926 35.6362C24.8604 36.0684 24.3475 36.4112 23.7829 36.6452C23.2886 36.8499 22.7628 36.9683 22.2296 36.9945L22.0006 36.9997C21.3893 36.9997 20.7838 36.8791 20.219 36.6452C19.6543 36.4112 19.1408 36.0685 18.7086 35.6362V35.6355L16.4137 33.3413V33.3406L16.4129 33.3421C16.2148 34.1669 15.8008 34.9243 15.2127 35.5358C14.6246 36.1472 13.8836 36.5908 13.067 36.821C12.2506 37.051 11.3875 37.0596 10.5668 36.8453C9.74602 36.631 8.99723 36.2014 8.39747 35.6015C7.79768 35.0015 7.36845 34.2524 7.15437 33.4314C6.9403 32.6105 6.94906 31.747 7.17949 30.9305C7.40994 30.1141 7.85385 29.3741 8.46542 28.7863C9.07706 28.1984 9.83418 27.7839 10.6591 27.586H10.6599L8.36497 25.2919H8.36423C7.93197 24.8596 7.58923 24.3462 7.35528 23.7814C7.15058 23.2872 7.0329 22.762 7.00665 22.2288L7.00074 21.9999C7.00074 21.3885 7.12132 20.7831 7.35528 20.2183C7.58923 19.6535 7.93196 19.1401 8.36423 18.7078L10.6591 16.4129C11.0019 16.07 11.4301 15.8249 11.8993 15.7024C12.3686 15.5798 12.8624 15.5847 13.3292 15.7164C13.7959 15.8482 14.2193 16.1016 14.5553 16.4514C14.891 16.8008 15.127 17.2336 15.24 17.7048H15.2408C15.3257 18.0583 15.5029 18.383 15.7548 18.645C16.0069 18.9071 16.3245 19.0974 16.6744 19.1961L16.8066 19.2286C17.1167 19.294 17.4384 19.2868 17.7462 19.2064L17.8769 19.1673C18.1774 19.067 18.4513 18.898 18.6761 18.6731C18.933 18.416 19.1169 18.0949 19.2086 17.7432L19.2389 17.611C19.2984 17.2996 19.284 16.9777 19.1975 16.6715C19.0988 16.3216 18.9086 16.0045 18.6465 15.7526C18.3844 15.5007 18.0598 15.3234 17.7063 15.2385V15.2378C17.2351 15.1248 16.8023 14.8888 16.4528 14.5531C16.103 14.2171 15.8489 13.7931 15.7172 13.3263C15.5856 12.8596 15.5806 12.3662 15.7031 11.897C15.8257 11.4278 16.0713 10.9997 16.4144 10.6569L18.7086 8.36349L18.8748 8.20542C19.2702 7.84707 19.725 7.55924 20.219 7.35454C20.7838 7.1206 21.3893 7.00004 22.0006 7C22.612 7 23.218 7.12056 23.7829 7.35454C24.3475 7.58848 24.8604 7.93133 25.2926 8.36349L27.5882 10.6591V10.6576L27.6732 10.3518C27.8933 9.64593 28.2746 8.99898 28.7892 8.46394C29.3773 7.85257 30.1177 7.40891 30.9342 7.17875C31.7507 6.94859 32.6143 6.94077 33.4351 7.15511L33.7395 7.24522C34.4408 7.47916 35.0797 7.87332 35.6045 8.3982C36.2042 8.99819 36.6335 9.74736 36.8476 10.5683C37.0616 11.3892 37.0529 12.2527 36.8224 13.0692C36.592 13.8856 36.1481 14.6256 35.5365 15.2134C34.9249 15.8013 34.1677 16.2158 33.3428 16.4137H33.3421L35.637 18.7078L35.795 18.874C36.1535 19.2696 36.4419 19.7241 36.6467 20.2183C36.8806 20.7831 37.0012 21.3885 37.0012 21.9999Z" fill="#A856F7"/>
</svg>
