<svg width="34" height="32" viewBox="0 0 34 32" fill="none" xmlns="http://www.w3.org/2000/svg">
<path d="M31.9833 12.5767L28.898 10.0034C28.4145 9.60009 27.838 9.35195 27.2749 9.30447C26.6203 9.25188 26.0327 9.47398 25.6605 9.91971L23.2593 12.7988L14.0971 23.7857L14.1033 23.7908C13.9833 23.9301 13.9181 24.1084 13.92 24.2922L14.041 30.251C14.0431 30.3633 14.0699 30.4737 14.1195 30.5744C14.1691 30.6752 14.2402 30.7638 14.3279 30.8339C14.4156 30.9041 14.5176 30.9541 14.6267 30.9804C14.7359 31.0068 14.8495 31.0087 14.9595 30.9863L20.6916 29.8206C20.8652 29.7854 21.0123 29.6874 21.1215 29.5562L21.1271 29.5607L30.2459 18.6264L32.6471 15.7473C33.3685 14.8809 33.0765 13.4886 31.9833 12.5767ZM15.5533 29.3014L15.4843 25.9204L18.8056 28.6397L15.5533 29.3014ZM20.4358 27.9959L15.7677 24.1732L23.945 14.3683L28.5784 18.2323L20.4358 27.9959ZM31.4702 14.7655L29.5597 17.0559L24.9263 13.1919L26.8368 10.901C26.8828 10.8459 27.0033 10.8193 27.1462 10.8311C27.3949 10.852 27.6757 10.9791 27.9162 11.1798L31.0015 13.7531C31.482 14.1533 31.5785 14.6363 31.4702 14.7655Z" fill="#3C83F6" stroke="#3C83F6" stroke-width="0.3"/>
<path d="M11.3906 24.8869C11.3524 24.8629 11.3123 24.8423 11.2706 24.8251C11.266 24.8231 11.2619 24.82 11.2573 24.8185C11.17 24.7839 11.077 24.7659 10.9831 24.7654L10.9688 24.7644C10.875 24.7653 10.7821 24.7833 10.6947 24.8175L10.6814 24.8216C10.5885 24.8598 10.5041 24.9158 10.4327 24.9865L10.4312 24.9875L10.4297 24.989L10.4261 24.9926L8.48748 26.9307C8.28233 27.1348 8.00481 27.2496 7.71541 27.25C7.42601 27.2504 7.14819 27.1363 6.9425 26.9328L6.4064 26.3967C6.20309 26.1915 6.08902 25.9143 6.08902 25.6255C6.08902 25.3366 6.20309 25.0594 6.4064 24.8542L8.34758 22.9131L8.34963 22.911L8.35218 22.9085L8.35371 22.9059C8.42519 22.8339 8.48033 22.7497 8.51811 22.6588C8.52016 22.6542 8.52067 22.6491 8.52271 22.6445C8.55683 22.5574 8.57482 22.4649 8.57581 22.3714L8.57479 22.3571C8.57418 22.263 8.556 22.1698 8.52118 22.0824L8.51556 22.0722C8.49842 22.0296 8.4774 21.9888 8.45276 21.9501C7.81664 20.9725 7.36596 19.8861 7.12324 18.7453C7.12069 18.7336 7.11558 18.7233 7.11252 18.7116C7.10348 18.6742 7.0917 18.6375 7.07729 18.6018C7.06963 18.584 7.0584 18.5681 7.04972 18.5508C7.03542 18.5237 7.02215 18.4967 7.0053 18.4716C6.99407 18.4553 6.98028 18.4415 6.96803 18.4267C6.94914 18.4032 6.93076 18.3792 6.90931 18.3583C6.89808 18.3471 6.88481 18.3384 6.87306 18.3282C6.84754 18.3062 6.82201 18.2837 6.79393 18.2654C6.78371 18.2587 6.77248 18.2541 6.76176 18.248C6.73033 18.2284 6.69738 18.2113 6.66322 18.197C6.65046 18.1918 6.63718 18.1893 6.62442 18.1847C6.59072 18.173 6.55753 18.1612 6.5223 18.1546C6.4978 18.15 6.47278 18.1495 6.44776 18.1469C6.42376 18.1444 6.40028 18.1398 6.37526 18.1398H3.62585C3.33584 18.1395 3.05777 18.0242 2.85265 17.8192C2.64753 17.6142 2.53211 17.3361 2.5317 17.0461V16.2956C2.5317 15.6926 3.02236 15.202 3.62585 15.202H6.37628L6.38088 15.2009C6.45817 15.1995 6.53478 15.1862 6.60808 15.1616C6.62033 15.1575 6.63259 15.155 6.64484 15.1504C6.71479 15.1238 6.77912 15.0876 6.83783 15.0432C6.84907 15.035 6.85877 15.0263 6.86949 15.0171C6.92667 14.9681 6.97824 14.913 7.01909 14.8497C7.02419 14.8415 7.02777 14.8328 7.03236 14.8247C7.07321 14.7557 7.10537 14.6807 7.12324 14.6L7.12477 14.5959C7.36776 13.455 7.81843 12.3685 8.45429 11.3906C8.47982 11.3513 8.49973 11.3104 8.51709 11.2685L8.5222 11.2583C8.55794 11.169 8.57479 11.0761 8.57581 10.9831L8.57683 10.9694C8.57588 10.8757 8.55789 10.7829 8.52373 10.6957L8.51914 10.6819C8.48093 10.589 8.4249 10.5046 8.35422 10.4333L8.3532 10.4317L8.35167 10.4302L8.34707 10.4256L6.40947 8.48799C6.20535 8.28284 6.0906 8.00532 6.09021 7.71592C6.08983 7.42652 6.20385 7.1487 6.40743 6.94301L6.94352 6.40692C7.14879 6.20357 7.42605 6.08949 7.71499 6.08949C8.00393 6.08949 8.28119 6.20357 8.48646 6.40692L10.4322 8.35269C10.4353 8.35575 10.4399 8.35677 10.443 8.35984C10.5083 8.42315 10.5829 8.47063 10.6635 8.50637C10.6819 8.51454 10.6998 8.52067 10.7182 8.5273C10.8004 8.55641 10.8851 8.57632 10.9724 8.57683H10.9745C11.0607 8.57683 11.147 8.55692 11.2308 8.52679C11.2558 8.51811 11.2782 8.50535 11.3022 8.49412C11.3319 8.47982 11.363 8.47165 11.3911 8.45327C12.3686 7.81724 13.4548 7.36656 14.5954 7.12375C14.6046 7.12171 14.6128 7.11763 14.622 7.11507C14.6623 7.10486 14.7016 7.09363 14.7389 7.0778C14.7583 7.06963 14.7751 7.05789 14.793 7.04819C14.8185 7.0344 14.8446 7.02215 14.8686 7.00581C14.889 6.99152 14.9069 6.97467 14.9257 6.95833C14.9441 6.9425 14.964 6.92821 14.9809 6.91085C14.9982 6.89349 15.012 6.87357 15.0273 6.85417C15.0432 6.83477 15.06 6.8169 15.0733 6.79597C15.0866 6.77606 15.0958 6.75461 15.107 6.73317C15.1187 6.7107 15.1325 6.68926 15.1422 6.66577C15.1524 6.64025 15.1591 6.6137 15.1667 6.58715C15.1729 6.56621 15.181 6.54579 15.1856 6.52384C15.1928 6.48759 15.1948 6.4498 15.1969 6.41253C15.1974 6.39977 15.2009 6.38751 15.2009 6.37424V3.62534C15.2009 3.02236 15.6916 2.5317 16.2951 2.5317H17.0451C17.6486 2.5317 18.1393 3.02236 18.1393 3.62534V6.37475C18.1393 6.3916 18.1433 6.40692 18.1444 6.42376C18.1464 6.45746 18.1479 6.49116 18.1546 6.52384C18.1597 6.54885 18.1684 6.57183 18.176 6.59583C18.1832 6.61931 18.1883 6.64331 18.1975 6.66577C18.2077 6.6913 18.222 6.71428 18.2352 6.73827C18.246 6.75768 18.2546 6.7781 18.2669 6.79648C18.2812 6.81792 18.298 6.83681 18.3144 6.85622C18.3292 6.8746 18.343 6.894 18.3598 6.91136C18.3767 6.92872 18.3961 6.94301 18.415 6.95833C18.4344 6.97467 18.4522 6.99203 18.4732 7.00632C18.4956 7.02164 18.5207 7.03338 18.5447 7.04666C18.5641 7.05738 18.5824 7.06963 18.6029 7.07831C18.6371 7.09312 18.6738 7.10333 18.7106 7.11303C18.7228 7.11609 18.7336 7.12171 18.7458 7.12426C19.8867 7.36734 20.9732 7.818 21.9512 8.45378C21.9787 8.47165 22.0099 8.47982 22.0385 8.49412C22.063 8.50586 22.0859 8.51862 22.111 8.5273C22.1947 8.55743 22.2805 8.57734 22.3673 8.57734C22.4551 8.57734 22.5409 8.55692 22.6231 8.52782C22.6414 8.52118 22.6593 8.51505 22.6777 8.50688C22.7584 8.47114 22.8329 8.42366 22.8983 8.36035C22.9013 8.35728 22.9059 8.35626 22.9095 8.3532L24.8527 6.40947C25.058 6.2056 25.3355 6.09101 25.6248 6.09063C25.9141 6.09025 26.1919 6.2041 26.3977 6.40743L26.9338 6.94352C27.2258 7.23557 27.3111 7.65423 27.2008 8.02644C27.26 8.02797 27.3183 8.02593 27.378 8.03052C27.8302 8.07296 28.2719 8.19155 28.6845 8.38128C28.9133 7.5077 28.6978 6.54119 28.0167 5.86061L27.4806 5.32451C26.4615 4.30542 24.7986 4.3044 23.7713 5.32451L22.2442 6.85213C21.4354 6.38875 20.5708 6.03018 19.6715 5.78504V3.62534C19.6707 2.92922 19.3937 2.26185 18.9015 1.76966C18.4092 1.27747 17.7417 1.00068 17.0456 1H16.2956C15.5996 1.00095 14.9323 1.27783 14.4401 1.76996C13.9478 2.26209 13.6708 2.9293 13.6697 3.62534V5.78453C12.7704 6.0298 11.9059 6.38837 11.097 6.85162L9.56733 5.32196C8.54262 4.30389 6.87868 4.30491 5.86061 5.324L5.32451 5.8601C4.30542 6.87868 4.30491 8.5416 5.32451 9.56937L6.85162 11.0965C6.38845 11.9054 6.02989 12.7699 5.78453 13.6692H3.62585C2.92981 13.6702 2.26254 13.9471 1.77032 14.4392C1.2781 14.9313 1.00108 15.5985 1 16.2946V17.0451C1.00081 17.7412 1.27774 18.4086 1.77002 18.9008C2.2623 19.393 2.92973 19.6698 3.62585 19.6705H5.78453C6.0297 20.5698 6.38828 21.4343 6.85162 22.2432L5.32247 23.7729C4.3044 24.7976 4.30542 26.4605 5.32451 27.4796L5.86061 28.0157C6.37015 28.5252 7.04104 28.78 7.71244 28.78C8.38383 28.78 9.05625 28.5257 9.56937 28.0157L11.097 26.4886C11.6113 26.7809 12.1483 27.0314 12.7027 27.2376L12.669 25.5757C12.2261 25.3787 11.7987 25.1485 11.3906 24.8869Z" fill="#3C83F6" stroke="#3C83F6" stroke-width="0.3"/>
<path d="M11.0942 16.6701C11.0942 13.5955 13.5955 11.0942 16.6701 11.0942C18.499 11.0942 20.1205 11.9836 21.1381 13.3479L22.1439 12.1419C20.8389 10.5673 18.8702 9.5625 16.6701 9.5625C12.751 9.5625 9.5625 12.751 9.5625 16.6701C9.5625 19.3286 11.0319 21.6476 13.1993 22.8669L14.2031 21.6635C12.364 20.7506 11.0942 18.8584 11.0942 16.6701Z" fill="#3C83F6" stroke="#3C83F6" stroke-width="0.3"/>
</svg>
