<svg width="52" height="52" viewBox="0 0 52 52" fill="none" xmlns="http://www.w3.org/2000/svg">
<path d="M11.4062 9.92829C11.4062 10.914 10.633 11.714 9.68122 11.714C8.72944 11.714 7.95801 10.914 7.95801 9.92829C7.95801 8.94258 8.72944 8.14258 9.68122 8.14258C10.633 8.14258 11.4062 8.94258 11.4062 9.92829ZM14.8544 11.714C15.8062 11.714 16.5777 10.914 16.5777 9.92829C16.5777 8.94258 15.8062 8.14258 14.8544 8.14258C13.9009 8.14258 13.1294 8.94258 13.1294 9.92829C13.1294 10.914 13.9009 11.714 14.8544 11.714ZM21.7491 9.92829C21.7491 10.914 20.9776 11.714 20.0259 11.714C19.0741 11.714 18.3026 10.914 18.3026 9.92829C18.3026 8.94258 19.0741 8.14258 20.0259 8.14258C20.9776 8.14258 21.7509 8.94258 21.7509 9.92829H21.7491ZM27.9741 25.2015C28.1943 24.7931 28.5649 24.4864 29.0074 24.3465C29.4498 24.2066 29.9294 24.2444 30.3444 24.4519C30.7595 24.6594 31.0774 25.0204 31.231 25.4583C31.3845 25.8962 31.3615 26.3767 31.1669 26.7979L24.0241 41.0837C23.8038 41.4921 23.4332 41.7988 22.9908 41.9387C22.5483 42.0786 22.0688 42.0408 21.6537 41.8333C21.2387 41.6257 20.9207 41.2648 20.7672 40.8269C20.6137 40.389 20.6366 39.9085 20.8312 39.4872L27.9741 25.2015ZM18.333 26.5229C18.6678 26.8578 18.8558 27.3119 18.8558 27.7854C18.8558 28.2589 18.6678 28.7131 18.333 29.0479L14.2384 33.1426L18.333 37.2372C18.6583 37.574 18.8383 38.0251 18.8342 38.4933C18.8301 38.9615 18.6423 39.4094 18.3113 39.7405C17.9802 40.0716 17.5323 40.2594 17.0641 40.2634C16.5959 40.2675 16.1448 40.0875 15.808 39.7622L10.4509 34.4051C10.1161 34.0702 9.92803 33.6161 9.92803 33.1426C9.92803 32.6691 10.1161 32.215 10.4509 31.8801L15.808 26.5229C16.1429 26.1882 16.597 26.0001 17.0705 26.0001C17.544 26.0001 17.9981 26.1882 18.333 26.5229ZM33.6651 29.0479C33.3399 28.7111 33.1599 28.2601 33.1639 27.7919C33.168 27.3237 33.3558 26.8758 33.6869 26.5447C34.018 26.2136 34.4659 26.0258 34.9341 26.0217C35.4023 26.0177 35.8534 26.1977 36.1902 26.5229L41.5473 31.8801C41.8821 32.215 42.0701 32.6691 42.0701 33.1426C42.0701 33.6161 41.8821 34.0702 41.5473 34.4051L36.1902 39.7622C35.8534 40.0875 35.4023 40.2675 34.9341 40.2634C34.4659 40.2594 34.018 40.0716 33.6869 39.7405C33.3558 39.4094 33.168 38.9615 33.1639 38.4933C33.1599 38.0251 33.3399 37.574 33.6651 37.2372L37.7598 33.1426L33.6651 29.0479Z" fill="#A856F7" stroke="white"/>
<path fill-rule="evenodd" clip-rule="evenodd" d="M6.35714 1C4.93634 1 3.57373 1.56441 2.56907 2.56907C1.56441 3.57373 1 4.93634 1 6.35714V45.6429C1 47.0637 1.56441 48.4263 2.56907 49.4309C3.57373 50.4356 4.93634 51 6.35714 51H45.6429C47.0637 51 48.4263 50.4356 49.4309 49.4309C50.4356 48.4263 51 47.0637 51 45.6429V6.35714C51 4.93634 50.4356 3.57373 49.4309 2.56907C48.4263 1.56441 47.0637 1 45.6429 1H6.35714ZM47.4286 15.2857V6.35714C47.4286 5.88354 47.2404 5.42934 46.9055 5.09445C46.5707 4.75957 46.1165 4.57143 45.6429 4.57143H6.35714C5.88354 4.57143 5.42934 4.75957 5.09445 5.09445C4.75957 5.42934 4.57143 5.88354 4.57143 6.35714V15.2857H47.4286ZM4.57143 18.8571H47.4286V45.6429C47.4286 46.1165 47.2404 46.5707 46.9055 46.9055C46.5707 47.2404 46.1165 47.4286 45.6429 47.4286H6.35714C5.88354 47.4286 5.42934 47.2404 5.09445 46.9055C4.75957 46.5707 4.57143 46.1165 4.57143 45.6429V18.8571Z" fill="#A856F7" stroke="white"/>
</svg>
