<svg width="44" height="44" viewBox="0 0 44 44" fill="none" xmlns="http://www.w3.org/2000/svg">
<path d="M15.3653 31.2105C12.5449 31.2105 9.89386 30.9228 7.89708 30.4039C7.75725 30.368 7.60893 30.3888 7.48432 30.4617C7.35971 30.5346 7.26886 30.6536 7.23149 30.7931C7.15252 31.0864 7.33302 31.3853 7.62069 31.4587C9.70208 32.0002 12.4547 32.2991 15.3653 32.2991C15.5096 32.2991 15.6481 32.2418 15.7501 32.1397C15.8522 32.0376 15.9096 31.8991 15.9096 31.7548C15.9096 31.6104 15.8522 31.472 15.7501 31.3699C15.6481 31.2678 15.5096 31.2105 15.3653 31.2105Z" fill="#A856F7" stroke="#A856F7" stroke-width="0.5"/>
<path d="M34.0081 28.17C33.2015 28.17 32.7051 27.6511 32.502 27.1604C32.299 26.6753 32.2877 25.9533 32.8574 25.3836C32.9583 25.2791 33.0147 25.1396 33.0147 24.9944C33.0147 24.8491 32.9583 24.7096 32.8574 24.6052L31.0016 22.7494C30.951 22.6985 30.8908 22.6581 30.8245 22.6305C30.7582 22.6029 30.687 22.5887 30.6152 22.5887C30.5434 22.5887 30.4723 22.6029 30.406 22.6305C30.3397 22.6581 30.2795 22.6985 30.2288 22.7494C29.6591 23.3191 28.9371 23.3022 28.4521 23.1048C27.967 22.9017 27.4424 22.3997 27.4424 21.5987C27.4424 21.4521 27.386 21.3167 27.2844 21.2095C27.1807 21.1075 27.0408 21.0507 26.8952 21.0516H24.2724C23.9678 21.0516 23.7252 21.2941 23.7252 21.5987C23.7252 22.4053 23.2063 22.9017 22.7156 23.1048C22.2305 23.3078 21.5085 23.3191 20.9388 22.7494C20.8343 22.6485 20.6948 22.5921 20.5496 22.5921C20.4043 22.5921 20.2648 22.6485 20.1604 22.7494L18.3046 24.6052C18.0902 24.8195 18.0902 25.1636 18.3046 25.3779C18.4061 25.4795 18.4851 25.5866 18.5471 25.6938C17.577 25.7728 16.5222 25.8235 15.3602 25.8235C8.72119 25.8235 5.09992 24.3062 5.08864 23.5165V19.7091C6.14343 20.3747 7.80177 20.7977 9.27961 21.0572C9.57857 21.108 9.8606 20.9106 9.91136 20.6116C9.96213 20.3127 9.76471 20.0306 9.46575 19.9799C6.29009 19.4214 5.09428 18.5641 5.083 18.1467V14.3167C7.01209 15.5407 11.2031 16.1724 15.3546 16.1724C19.5117 16.1724 23.7083 15.5407 25.6374 14.3167V18.1467C25.6374 18.9307 22.0105 20.4537 15.3546 20.4537C14.1869 20.4537 13.0419 20.4029 11.9533 20.307C11.66 20.2788 11.3892 20.5044 11.361 20.8034C11.3328 21.1023 11.5584 21.3674 11.8574 21.3957C12.9799 21.4972 14.1587 21.5479 15.3546 21.5479C21.0064 21.5479 26.7317 20.3803 26.7317 18.1467V7.40129C26.726 5.16761 21.0064 4 15.3546 4C9.71958 4 4 5.16761 4 7.40129V28.8977C4 29.473 4.35536 29.9919 5.06044 30.4432C5.15068 30.5052 5.25222 30.5278 5.35375 30.5278C5.53425 30.5278 5.70911 30.4376 5.81628 30.274C5.89473 30.152 5.92158 30.0039 5.8909 29.8622C5.86023 29.7205 5.77456 29.5967 5.6527 29.5181C5.30298 29.2925 5.09428 29.0612 5.09428 28.892V25.062C7.02337 26.2861 11.2143 26.9178 15.3658 26.9178C16.5165 26.9178 17.6616 26.8558 18.7671 26.7599C18.7446 26.9009 18.7107 27.0363 18.66 27.1547C18.4569 27.6398 17.9549 28.1644 17.1539 28.1644C16.8493 28.1644 16.6068 28.4069 16.6068 28.7115V31.3344C16.6068 31.639 16.8493 31.8815 17.1539 31.8815C17.9605 31.8815 18.4569 32.4005 18.66 32.8912C18.863 33.3763 18.8743 34.0983 18.3046 34.668C18.2037 34.7724 18.1473 34.912 18.1473 35.0572C18.1473 35.2024 18.2037 35.342 18.3046 35.4464L20.1604 37.3022C20.3747 37.5165 20.7188 37.5165 20.9331 37.3022C21.5028 36.7325 22.2248 36.7494 22.7099 36.9468C23.195 37.1499 23.7196 37.6519 23.7196 38.4529C23.7196 38.7575 23.9621 39 24.2667 39H26.8896C27.1942 39 27.4367 38.7575 27.4367 38.4529C27.4367 37.6463 27.9557 37.1499 28.4464 36.9468C28.9315 36.7438 29.6535 36.7325 30.2232 37.3022C30.4376 37.5165 30.7816 37.5165 30.996 37.3022L32.8517 35.4464C32.9526 35.342 33.009 35.2024 33.009 35.0572C33.009 34.912 32.9526 34.7724 32.8517 34.668C32.282 34.0983 32.299 33.3763 32.4964 32.8912C32.6994 32.4061 33.2015 31.8815 34.0024 31.8815C34.307 31.8815 34.5496 31.639 34.5496 31.3344V28.7115C34.55 28.6403 34.5363 28.5697 34.5093 28.5038C34.4822 28.4379 34.4423 28.378 34.392 28.3276C34.3416 28.2773 34.2817 28.2374 34.2158 28.2103C34.1499 28.1833 34.0793 28.1696 34.0081 28.17ZM15.3658 15.0838C8.72683 15.0838 5.10556 13.5665 5.09428 12.7768V8.94682C5.09992 8.95246 5.1112 8.9581 5.11684 8.96374C7.05721 10.1765 11.2256 10.8026 15.3658 10.8026C19.523 10.8026 23.7196 10.1708 25.643 8.94682V12.7768C25.6487 13.5608 22.0218 15.0838 15.3658 15.0838ZM15.3658 5.09428C22.0161 5.09428 25.6487 6.61724 25.6487 7.40129C25.6487 8.18533 22.0218 9.7083 15.3658 9.7083C9.30782 9.71394 5.76551 8.4448 5.19017 7.62691C5.16761 7.59871 5.14504 7.57051 5.13376 7.5423C5.12296 7.52339 5.11714 7.50204 5.11684 7.48026C5.10556 7.45206 5.09428 7.42949 5.09428 7.40129C5.09992 6.61724 8.72683 5.09428 15.3658 5.09428ZM33.4609 30.8493C32.5753 31.0242 31.8477 31.6164 31.4923 32.4795C31.1313 33.3425 31.2329 34.2788 31.7349 35.0234L30.5786 36.1797C29.834 35.6777 28.8977 35.5818 28.0346 35.9371C27.1716 36.2981 26.5794 37.0258 26.4045 37.9057H24.7687C24.5939 37.0201 24.0016 36.2925 23.1386 35.9371C22.2756 35.5762 21.3392 35.6777 20.5947 36.1797L19.4384 35.0234C19.9404 34.2788 20.0363 33.3425 19.6809 32.4795C19.3199 31.6164 18.5923 31.0242 17.7123 30.8493V29.2135C18.5979 29.0387 19.3255 28.4464 19.6809 27.5834C20.0363 26.7204 19.9404 25.784 19.4384 25.0395L20.5947 23.8832C21.3392 24.3852 22.2756 24.4811 23.1386 24.1257C24.0016 23.7647 24.5939 23.0371 24.7687 22.1515H26.4045C26.5794 23.0371 27.1716 23.7647 28.0346 24.1201C28.8977 24.4754 29.834 24.3795 30.5786 23.8775L31.7349 25.0338C31.2329 25.7784 31.137 26.7147 31.4923 27.5778C31.8477 28.4408 32.581 29.033 33.4609 29.2079V30.8493Z" fill="#A856F7" stroke="#A856F7" stroke-width="0.5"/>
<path d="M25.5794 25.8341C23.2668 25.8341 21.3828 27.718 21.3828 30.0307C21.3828 32.3433 23.2668 34.2273 25.5794 34.2273C27.8921 34.2273 29.776 32.3433 29.776 30.0307C29.776 27.718 27.8921 25.8341 25.5794 25.8341ZM25.5794 33.133C23.8703 33.133 22.4771 31.7398 22.4771 30.0307C22.4771 28.3216 23.8703 26.9284 25.5794 26.9284C27.2885 26.9284 28.6818 28.3216 28.6818 30.0307C28.6818 31.7398 27.2885 33.133 25.5794 33.133ZM38.6713 14.6487C38.3103 14.6487 38.0057 14.4457 37.8703 14.1129C37.7293 13.7744 37.8026 13.4247 38.0565 13.1653C38.2708 12.9509 38.2708 12.6068 38.0565 12.3925L36.8494 11.1854C36.6463 10.9823 36.2797 10.9823 36.0766 11.1854C35.8171 11.4449 35.4674 11.5126 35.129 11.3715C34.7906 11.2305 34.5931 10.9316 34.5931 10.5706C34.5931 10.266 34.3506 10.0234 34.046 10.0234H32.3425C32.0379 10.0234 31.7954 10.266 31.7954 10.5706C31.7954 10.9316 31.5923 11.2362 31.2595 11.3715C31.1014 11.4409 30.9259 11.4602 30.7565 11.427C30.5872 11.3937 30.432 11.3094 30.3119 11.1854C30.2613 11.1345 30.2011 11.0941 30.1348 11.0665C30.0684 11.0389 29.9973 11.0247 29.9255 11.0247C29.8537 11.0247 29.7826 11.0389 29.7163 11.0665C29.65 11.0941 29.5898 11.1345 29.5391 11.1854L28.332 12.3925C28.1177 12.6068 28.1177 12.9509 28.332 13.1653C28.5915 13.4247 28.6592 13.7801 28.5182 14.1129C28.3772 14.4457 28.0782 14.6487 27.7172 14.6487C27.4126 14.6487 27.1701 14.8913 27.1701 15.1959V16.8993C27.1701 17.2039 27.4126 17.4465 27.7172 17.4465C28.0782 17.4465 28.3828 17.6495 28.5182 17.9823C28.6536 18.3151 28.5859 18.6705 28.332 18.93C28.2311 19.0344 28.1747 19.1739 28.1747 19.3192C28.1747 19.4644 28.2311 19.6039 28.332 19.7084L29.5391 20.9155C29.7535 21.1298 30.0976 21.1298 30.3119 20.9155C30.4316 20.7908 30.5867 20.706 30.7563 20.6727C30.9259 20.6394 31.1016 20.6592 31.2595 20.7293C31.598 20.8703 31.7954 21.1693 31.7954 21.5359C31.7954 21.6826 31.8518 21.818 31.9533 21.9251C32.0549 22.0267 32.1959 22.0831 32.3425 22.0831H34.046C34.3506 22.0831 34.5931 21.8405 34.5931 21.5359C34.5931 21.1749 34.7962 20.8703 35.129 20.735C35.4674 20.5939 35.8171 20.6673 36.0766 20.9211C36.2797 21.1242 36.6463 21.1242 36.8494 20.9211L38.0565 19.714C38.2708 19.4997 38.2708 19.1556 38.0565 18.9412C37.797 18.6818 37.7293 18.3321 37.8703 17.9936C38.0113 17.6552 38.3103 17.4578 38.6713 17.4578C38.9759 17.4578 39.2184 17.2152 39.2184 16.9106V15.2072C39.2199 15.1344 39.2069 15.062 39.1801 14.9943C39.1532 14.9266 39.1132 14.865 39.0622 14.813C39.0113 14.761 38.9504 14.7196 38.8833 14.6914C38.8162 14.6632 38.7441 14.6487 38.6713 14.6487ZM38.1242 16.4255C37.5544 16.5835 37.0919 16.9896 36.855 17.5649C36.6181 18.1403 36.6576 18.7551 36.9453 19.2684L36.4094 19.8043C35.8961 19.5166 35.2813 19.4771 34.7116 19.714C34.1362 19.9509 33.7301 20.4134 33.5722 20.9831H32.8107C32.6528 20.4191 32.2466 19.9509 31.6713 19.714C31.0959 19.4771 30.4811 19.5166 29.9678 19.8043L29.432 19.2684C29.7196 18.7551 29.7591 18.1403 29.5222 17.5706C29.4158 17.2942 29.2461 17.0466 29.0267 16.8478C28.8072 16.6489 28.5442 16.5043 28.2587 16.4255V15.6641C28.8284 15.5061 29.291 15.1 29.5279 14.5246C29.7648 13.9493 29.7253 13.3345 29.4376 12.8212L29.9735 12.2853C30.4868 12.573 31.1016 12.6125 31.6769 12.3756C31.9507 12.2644 32.1956 12.0923 32.393 11.8724C32.5904 11.6525 32.7352 11.3906 32.8163 11.1064H33.5778C33.7358 11.6761 34.1419 12.1387 34.7172 12.3756C35.2926 12.6125 35.9074 12.573 36.4207 12.2853L36.9565 12.8212C36.6689 13.3345 36.6294 13.9493 36.8663 14.5246C36.9775 14.7984 37.1495 15.0433 37.3694 15.2407C37.5893 15.4382 37.8513 15.5829 38.1354 15.6641V16.4255H38.1242Z" fill="#A856F7" stroke="#A856F7" stroke-width="0.5"/>
<path d="M33.1951 13.1289C32.4301 13.1439 31.7015 13.4584 31.1658 14.0047C30.6301 14.551 30.3301 15.2856 30.3301 16.0507C30.3301 16.8159 30.6301 17.5505 31.1658 18.0968C31.7015 18.6431 32.4301 18.9575 33.1951 18.9726C34.8083 18.9726 36.1169 17.664 36.1169 16.0507C36.1169 14.4375 34.8026 13.1289 33.1951 13.1289ZM33.1951 17.8783C32.7104 17.8783 32.2455 17.6858 31.9028 17.343C31.5601 17.0003 31.3675 16.5354 31.3675 16.0507C31.3675 15.566 31.5601 15.1012 31.9028 14.7585C32.2455 14.4157 32.7104 14.2232 33.1951 14.2232C33.6798 14.2232 34.1446 14.4157 34.4873 14.7585C34.8301 15.1012 35.0226 15.566 35.0226 16.0507C35.0226 16.5354 34.8301 17.0003 34.4873 17.343C34.1446 17.6858 33.6798 17.8783 33.1951 17.8783Z" fill="#A856F7" stroke="#A856F7" stroke-width="0.5"/>
</svg>
