<svg width="44" height="44" viewBox="0 0 44 44" fill="none" xmlns="http://www.w3.org/2000/svg">
<path fill-rule="evenodd" clip-rule="evenodd" d="M17.473 36.9582L15.67 40.564H13.5228C13.2837 40.564 13.0544 40.659 12.8853 40.828C12.7163 40.9971 12.6213 41.2264 12.6213 41.4655C12.6213 41.7046 12.7163 41.9338 12.8853 42.1029C13.0544 42.272 13.2837 42.3669 13.5228 42.3669H29.749C29.9881 42.3669 30.2174 42.272 30.3864 42.1029C30.5555 41.9338 30.6505 41.7046 30.6505 41.4655C30.6505 41.2264 30.5555 40.9971 30.3864 40.828C30.2174 40.659 29.9881 40.564 29.749 40.564H27.6017L25.7988 36.9582H39.6651C40.3823 36.9582 41.0702 36.6733 41.5773 36.1661C42.0845 35.6589 42.3694 34.971 42.3694 34.2538V9.01297C42.3694 8.29572 42.0845 7.60786 41.5773 7.10069C41.0702 6.59352 40.3823 6.30859 39.6651 6.30859H3.60672C2.88947 6.30859 2.20161 6.59352 1.69444 7.10069C1.18727 7.60786 0.902344 8.29572 0.902344 9.01297V34.2538C0.902344 34.971 1.18727 35.6589 1.69444 36.1661C2.20161 36.6733 2.88947 36.9582 3.60672 36.9582H17.473ZM19.4886 36.9582H23.7832L25.5861 40.564H17.6857L19.4886 36.9582ZM40.5665 31.5494V34.2538C40.5665 34.4929 40.4715 34.7222 40.3025 34.8912C40.1334 35.0603 39.9041 35.1553 39.6651 35.1553H3.60672C3.36764 35.1553 3.13835 35.0603 2.96929 34.8912C2.80024 34.7222 2.70526 34.4929 2.70526 34.2538V31.5494H40.5665ZM40.5665 29.7465H2.70526V9.01297C2.70526 8.77389 2.80024 8.5446 2.96929 8.37554C3.13835 8.20649 3.36764 8.11151 3.60672 8.11151H39.6651C39.9041 8.11151 40.1334 8.20649 40.3025 8.37554C40.4715 8.5446 40.5665 8.77389 40.5665 9.01297V29.7465Z" fill="#A856F7"/>
<path fill-rule="evenodd" clip-rule="evenodd" d="M35.1574 10.8155V27.0418C35.1574 27.2809 35.2524 27.5101 35.4214 27.6792C35.5905 27.8483 35.8198 27.9432 36.0589 27.9432C36.2979 27.9432 36.5272 27.8483 36.6963 27.6792C36.8653 27.5101 36.9603 27.2809 36.9603 27.0418V10.8155C36.9603 10.5764 36.8653 10.3471 36.6963 10.1781C36.5272 10.009 36.2979 9.91406 36.0589 9.91406C35.8198 9.91406 35.5905 10.009 35.4214 10.1781C35.2524 10.3471 35.1574 10.5764 35.1574 10.8155ZM31.5516 14.4214V27.0418C31.5516 27.2809 31.6465 27.5101 31.8156 27.6792C31.9846 27.8483 32.2139 27.9432 32.453 27.9432C32.6921 27.9432 32.9214 27.8483 33.0904 27.6792C33.2595 27.5101 33.3545 27.2809 33.3545 27.0418V14.4214C33.3545 14.1823 33.2595 13.953 33.0904 13.7839C32.9214 13.6149 32.6921 13.5199 32.453 13.5199C32.2139 13.5199 31.9846 13.6149 31.8156 13.7839C31.6465 13.953 31.5516 14.1823 31.5516 14.4214ZM27.9457 17.2258V27.0418C27.9457 27.2809 28.0407 27.5101 28.2098 27.6792C28.3788 27.8483 28.6081 27.9432 28.8472 27.9432C29.0863 27.9432 29.3156 27.8483 29.4846 27.6792C29.6537 27.5101 29.7486 27.2809 29.7486 27.0418V17.2258C29.7486 16.9867 29.6537 16.7574 29.4846 16.5884C29.3156 16.4193 29.0863 16.3243 28.8472 16.3243C28.6081 16.3243 28.3788 16.4193 28.2098 16.5884C28.0407 16.7574 27.9457 16.9867 27.9457 17.2258ZM24.3399 19.4073V27.0418C24.3399 27.2809 24.4349 27.5101 24.6039 27.6792C24.773 27.8483 25.0023 27.9432 25.2414 27.9432C25.4804 27.9432 25.7097 27.8483 25.8788 27.6792C26.0478 27.5101 26.1428 27.2809 26.1428 27.0418V19.4073C26.1428 19.1682 26.0478 18.9389 25.8788 18.7699C25.7097 18.6008 25.4804 18.5059 25.2414 18.5059C25.0023 18.5059 24.773 18.6008 24.6039 18.7699C24.4349 18.9389 24.3399 19.1682 24.3399 19.4073ZM12.6209 9.91406C8.14339 9.91406 4.50781 13.5496 4.50781 18.0272C4.50781 22.5047 8.14339 26.1403 12.6209 26.1403C17.0985 26.1403 20.7341 22.5047 20.7341 18.0272C20.7341 13.5496 17.0985 9.91406 12.6209 9.91406ZM11.7195 11.781C10.2179 11.9987 8.84494 12.7497 7.85173 13.8967C6.85852 15.0437 6.31149 16.5099 6.31073 18.0272C6.31073 21.5095 9.1386 24.3374 12.6209 24.3374C14.1382 24.3366 15.6044 23.7896 16.7514 22.7964C17.8984 21.8032 18.6495 20.4302 18.8671 18.9286H14.4239C13.7066 18.9286 13.0187 18.6437 12.5116 18.1366C12.0044 17.6294 11.7195 16.9415 11.7195 16.2243V11.781ZM13.5224 11.781V16.2243C13.5224 16.4634 13.6174 16.6926 13.7864 16.8617C13.9555 17.0308 14.1848 17.1257 14.4239 17.1257H18.8671C18.6713 15.7778 18.0451 14.5293 17.082 13.5662C16.1188 12.603 14.8703 11.9769 13.5224 11.781Z" fill="#A856F7"/>
</svg>
