<svg width="44" height="44" viewBox="0 0 44 44" fill="none" xmlns="http://www.w3.org/2000/svg">
<path d="M33.9953 10.9776C33.9902 10.9609 33.9771 10.9275 33.9467 10.878C33.883 10.7743 33.7529 10.6184 33.5098 10.4268C33.0146 10.0366 32.2053 9.61948 31.0715 9.24149C28.8189 8.49059 25.6112 8.0001 21.9997 8.0001C18.3882 8.0001 15.1805 8.49059 12.9279 9.24149C11.7941 9.61948 10.9848 10.0366 10.4896 10.4268C10.2464 10.6184 10.1164 10.7743 10.0527 10.878C10.0223 10.9275 10.0092 10.9609 10.0041 10.9776C9.99952 10.9928 9.99994 10.9991 9.99994 11.0002C9.99994 11.0013 9.99952 11.0076 10.0041 11.0228C10.0092 11.0395 10.0223 11.0729 10.0527 11.1224C10.1164 11.2261 10.2464 11.382 10.4896 11.5736C10.9848 11.9638 11.7941 12.3809 12.9279 12.7589C15.1805 13.5098 18.3882 14.0003 21.9997 14.0003C25.6112 14.0003 28.8189 13.5098 31.0715 12.7589C32.2053 12.3809 33.0146 11.9638 33.5098 11.5736C33.7529 11.382 33.883 11.2261 33.9467 11.1224C33.9771 11.0729 33.9902 11.0395 33.9953 11.0228C33.9999 11.0076 33.9995 11.0013 33.9995 11.0002C33.9995 10.9991 33.9999 10.9928 33.9953 10.9776ZM36.9994 11.0002C36.9994 12.2781 36.2212 13.2569 35.3672 13.93C34.4962 14.6164 33.3286 15.1687 32.0199 15.605C29.3865 16.4828 25.8439 17.0004 21.9997 17.0004C18.1555 17.0004 14.6129 16.4828 11.9795 15.605C10.6708 15.1687 9.50317 14.6164 8.63222 13.93C7.77819 13.2569 7 12.2781 7 11.0002C7 9.7223 7.77819 8.74354 8.63222 8.07041C9.50317 7.38399 10.6708 6.83171 11.9795 6.39541C14.6129 5.51758 18.1555 5 21.9997 5C25.8439 5 29.3865 5.51758 32.0199 6.39541C33.3286 6.83171 34.4962 7.38399 35.3672 8.07041C36.2212 8.74354 36.9994 9.7223 36.9994 11.0002Z" fill="#3C83F6"/>
<path d="M7 32.0007V11C7 10.1716 7.67156 9.5 8.49997 9.5C9.32838 9.5 9.99994 10.1716 9.99994 11V32.0032C10.0002 32.0053 10.0011 32.01 10.0033 32.0175C10.0078 32.0326 10.02 32.0637 10.0485 32.1112C10.1081 32.2107 10.2316 32.3639 10.4678 32.554C10.9494 32.9416 11.7549 33.3684 12.9279 33.7594C15.2645 34.5383 18.5291 35.0008 21.9997 35.0008C25.4703 35.0008 28.7349 34.5383 31.0715 33.7594C32.2445 33.3684 33.05 32.9416 33.5316 32.554C33.7678 32.3639 33.8912 32.2107 33.9509 32.1112C33.9794 32.0637 33.9916 32.0326 33.9961 32.0175C33.9983 32.01 33.9991 32.0053 33.9995 32.0032V11C33.9995 10.1716 34.671 9.5 35.4994 9.5C36.3278 9.5 36.9994 10.1716 36.9994 11V32.0007L36.991 32.2301C36.9067 33.3589 36.2077 34.251 35.4124 34.8912C34.55 35.5852 33.3782 36.1527 32.0199 36.6055C29.293 37.5145 25.6898 38.0009 21.9997 38.0009C18.3096 38.0009 14.7063 37.5145 11.9795 36.6055C10.6211 36.1527 9.44944 35.5852 8.58702 34.8912C7.79165 34.251 7.09274 33.3589 7.00837 32.2301L7 32.0007Z" fill="#3C83F6"/>
<path d="M7 21.5C7 20.6716 7.67156 20 8.49997 20C9.27667 20 9.91569 20.5904 9.99241 21.3469L9.99994 21.5C9.99996 21.5003 9.99978 21.5015 9.99994 21.5026C10.0002 21.5046 10.0011 21.5093 10.0033 21.5168C10.0078 21.5319 10.02 21.563 10.0485 21.6105C10.1081 21.71 10.2316 21.8632 10.4678 22.0534C10.9494 22.4409 11.7549 22.8677 12.9279 23.2588C15.2645 24.0377 18.5291 24.5001 21.9997 24.5001C25.4703 24.5001 28.7349 24.0377 31.0715 23.2588C32.2445 22.8677 33.05 22.4409 33.5316 22.0534C33.7678 21.8632 33.8912 21.71 33.9509 21.6105C33.9794 21.563 33.9916 21.5319 33.9961 21.5168C33.9983 21.5093 33.9991 21.5046 33.9995 21.5026V21.5C33.9995 20.6716 34.671 20 35.4994 20C36.3278 20 36.9994 20.6716 36.9994 21.5C36.9994 22.7378 36.2609 23.7076 35.4124 24.3905C34.55 25.0845 33.3782 25.652 32.0199 26.1048C29.293 27.0138 25.6898 27.5002 21.9997 27.5002C18.3096 27.5002 14.7063 27.0138 11.9795 26.1048C10.6211 25.652 9.44944 25.0845 8.58702 24.3905C7.73852 23.7076 7 22.7378 7 21.5Z" fill="#3C83F6"/>
</svg>
