<svg width="44" height="44" viewBox="0 0 44 44" fill="none" xmlns="http://www.w3.org/2000/svg">
<path d="M41.3116 29.8326L39.1721 28.6047C39.2093 28.2512 39.2279 27.8977 39.2279 27.5628C39.2279 27.2279 39.2279 26.8744 39.1721 26.5209L41.3116 25.2744C41.8698 24.9581 42.1302 24.307 41.9628 23.693C41.2991 21.3412 40.0585 19.1924 38.3535 17.4419C38.135 17.2238 37.8508 17.0838 37.5448 17.0434C37.2388 17.0031 36.928 17.0646 36.6605 17.2186L34.5209 18.4465C33.9628 18.0372 33.3488 17.7023 32.7163 17.4047V7.11628C32.7163 3.07907 23.0605 2 17.3674 2C11.6744 2 2 3.07907 2 7.11628V29.4419C2 33.6279 11.8791 34.3721 15.3953 34.5209C16.0279 35.6744 16.8093 36.7535 17.7209 37.6837C18.1674 38.1302 18.8558 38.2233 19.414 37.907L21.5535 36.6791C22.1302 37.0884 22.7256 37.4419 23.3767 37.7209V40.1954C23.3767 40.8279 23.8047 41.386 24.4372 41.5535C25.6279 41.8512 26.8372 42 28.0279 42C29.2186 42 30.4279 41.8512 31.6186 41.5535C31.9219 41.4785 32.1912 41.3039 32.3835 41.0577C32.5758 40.8114 32.6799 40.5078 32.6791 40.1954V37.7209C33.3116 37.4233 33.9256 37.0698 34.5023 36.6791L36.6419 37.907C37.1814 38.2233 37.8884 38.1302 38.3349 37.6837C40.0279 35.9721 41.2744 33.814 41.9442 31.4326C42.0275 31.1341 42.0086 30.8164 41.8907 30.5298C41.7727 30.2433 41.5623 30.0044 41.293 29.8512L41.3116 29.8326ZM15.4326 20.5488C8.90233 20.307 5.27442 18.9116 4.7907 18.186V10.2419C8.06512 11.7488 13.5721 12.2326 17.3674 12.2326C21.1628 12.2326 26.6512 11.7488 29.9256 10.2419V13.2372C28.1023 12.9953 26.2605 13.107 24.4558 13.5535C24.1525 13.6285 23.8832 13.8031 23.6909 14.0493C23.4986 14.2956 23.3945 14.5992 23.3953 14.9116V17.386C22.7628 17.6837 22.1488 18.0372 21.5721 18.4279L19.4326 17.2C19.1649 17.0466 18.8542 16.9854 18.5483 17.0258C18.2425 17.0661 17.9583 17.2057 17.7395 17.4233C16.8279 18.3349 16.0651 19.3953 15.4326 20.5302V20.5488ZM29.8698 7.06047C29.2 7.95349 24.6791 9.44186 17.3674 9.44186C10.0558 9.44186 5.46046 7.93488 4.86512 7.17209C5.55349 6.27907 10.0744 4.7907 17.3674 4.7907C24.6605 4.7907 29.2744 6.29767 29.8698 7.06047ZM4.7907 29.4419V21.4233C7.54419 22.6884 11.693 23.1349 14.2605 23.2837C14.2233 23.414 14.1674 23.5442 14.1302 23.6744C13.9628 24.2884 14.2233 24.9395 14.7814 25.2558L16.9209 26.4837C16.8837 26.8372 16.8651 27.1907 16.8651 27.5256C16.8651 27.8605 16.8651 28.214 16.9209 28.5674L14.7814 29.7954C14.2233 30.1116 13.9628 30.7628 14.1302 31.3767C14.1488 31.4512 14.186 31.5256 14.2047 31.6C8.34419 31.2279 5.14419 29.9442 4.8093 29.386L4.7907 29.4419ZM36.2698 26.0186C36.3628 26.5581 36.4186 27.0605 36.4186 27.5442C36.4186 28.0279 36.3628 28.5302 36.2698 29.0698C36.1581 29.6465 36.4372 30.2419 36.9395 30.5209L38.9116 31.6558C38.4651 32.8279 37.8326 33.9256 37.0512 34.8744L35.0791 33.7395C34.8305 33.5931 34.5422 33.5287 34.255 33.5554C33.9678 33.5822 33.6963 33.6986 33.4791 33.8884C32.6977 34.5581 31.8046 35.0791 30.8186 35.414C30.2605 35.6186 29.8884 36.1395 29.8884 36.7349V39.0233C28.6419 39.2279 27.3953 39.2279 26.1488 39.0233V36.7349C26.1488 36.1395 25.7767 35.6186 25.2186 35.414C24.2326 35.0605 23.3395 34.5581 22.5581 33.8884C22.3406 33.6992 22.0692 33.583 21.7821 33.5563C21.495 33.5296 21.2068 33.5937 20.9581 33.7395L18.986 34.8744C18.1999 33.9065 17.572 32.8201 17.1256 31.6558L19.0977 30.5209C19.6 30.2233 19.8791 29.6465 19.7674 29.0512C19.6744 28.5116 19.6186 28.0093 19.6186 27.5256C19.6186 27.0419 19.6744 26.5395 19.7674 26C19.819 25.7159 19.7824 25.4229 19.6627 25.1602C19.543 24.8975 19.3458 24.6777 19.0977 24.5302L17.1256 23.3953C17.5721 22.2233 18.2047 21.1256 18.986 20.1767L20.9581 21.3116C21.4791 21.6093 22.1116 21.5535 22.5581 21.1628C23.3395 20.493 24.2326 19.9721 25.2186 19.6372C25.7767 19.4326 26.1488 18.9116 26.1488 18.3163V16.0279C27.3953 15.8233 28.6419 15.8233 29.8884 16.0279V18.3163C29.8884 18.9116 30.2605 19.4326 30.8186 19.6372C31.8046 19.9907 32.6977 20.493 33.4791 21.1628C33.9256 21.5535 34.5767 21.6093 35.0791 21.3116L37.0512 20.1767C37.8326 21.1442 38.4651 22.2233 38.9116 23.3953L36.9395 24.5302C36.4372 24.8279 36.1581 25.4047 36.2698 25.9814V26.0186ZM33.2 24.1023C33.7395 24.6419 33.7395 25.5349 33.2 26.0744L27.6186 31.6558C27.3395 31.9349 26.986 32.0651 26.6326 32.0651C26.2791 32.0651 25.9256 31.9349 25.6465 31.6558L22.8558 28.8651C22.3163 28.3256 22.3163 27.4326 22.8558 26.893C23.3953 26.3535 24.2884 26.3535 24.8279 26.893L26.6326 28.6977L31.2279 24.1023C31.7674 23.5628 32.6605 23.5628 33.2 24.1023Z" fill="#3C83F6"/>
</svg>
