<svg width="44" height="44" viewBox="0 0 44 44" fill="none" xmlns="http://www.w3.org/2000/svg">
<path d="M9.18164 15.1361V8.77226C9.18173 7.50656 9.68438 6.29271 10.5794 5.39773C11.4744 4.50274 12.6882 4.00009 13.9539 4H28.2724L28.4301 4.00776C28.7941 4.044 29.1369 4.20524 29.3978 4.4662L37.3516 12.42L37.4576 12.5372C37.6895 12.8202 37.8178 13.1762 37.8178 13.5454V34.2269C37.8178 35.4927 37.3151 36.7072 36.42 37.6023C35.5251 38.4972 34.3112 38.9999 33.0455 39H10.7724C9.89383 39 9.18176 38.2878 9.18164 37.4092C9.18164 36.5306 9.89376 35.8185 10.7724 35.8185H33.0455C33.4673 35.8184 33.8718 35.6505 34.1701 35.3523C34.4684 35.0539 34.6363 34.6488 34.6363 34.2269V14.2037L27.614 7.1815H13.9539C13.5321 7.18159 13.1276 7.34942 12.8293 7.6477C12.5311 7.94598 12.3632 8.35044 12.3631 8.77226V15.1361C12.3631 16.0148 11.651 16.7269 10.7724 16.7269C9.89376 16.7269 9.18164 16.0148 9.18164 15.1361Z" fill="#A856F7"/>
<path d="M25.0898 11.9546V5.59075C25.0898 4.71212 25.802 4 26.6806 4C27.5592 4 28.2713 4.71212 28.2713 5.59075V11.9546C28.2714 12.3765 28.4393 12.7809 28.7375 13.0792C29.0358 13.3775 29.4403 13.5453 29.8621 13.5454H36.226L36.3888 13.5531C37.191 13.6346 37.8167 14.3125 37.8167 15.1361C37.8167 15.9598 37.191 16.6376 36.3888 16.7191L36.226 16.7269H29.8621C28.5964 16.7268 27.3826 16.2241 26.4876 15.3292C25.5926 14.4342 25.0899 13.2203 25.0898 11.9546Z" fill="#A856F7"/>
<path d="M23.5 24.6836L23.6629 24.6913C24.465 24.773 25.0908 25.4507 25.0908 26.2743C25.0908 27.098 24.465 27.7757 23.6629 27.8573L23.5 27.8651H7.59075C6.71212 27.8651 6 27.153 6 26.2743C6 25.3957 6.71212 24.6836 7.59075 24.6836H23.5Z" fill="#A856F7"/>
<path d="M17.6028 20.3762C18.1852 19.7938 19.1064 19.7572 19.7313 20.2668L19.8519 20.3762L24.625 25.1485L24.7345 25.2691C25.2442 25.894 25.2075 26.816 24.625 27.3985L19.8519 32.1716C19.2307 32.7924 18.224 32.7924 17.6028 32.1716C16.9815 31.5503 16.9815 30.5429 17.6028 29.9216L21.2496 26.273L17.6028 22.6253L17.4934 22.5047C16.9837 21.8798 17.0203 20.9587 17.6028 20.3762Z" fill="#A856F7"/>
</svg>
