<svg width="45" height="44" viewBox="0 0 45 44" fill="none" xmlns="http://www.w3.org/2000/svg">
<path d="M20.3983 31.2149C19.2331 31.3643 17.9912 31.4453 16.7065 31.4453C10.8111 31.4453 5.81533 29.7384 5.00391 27.5583L5.00777 11.3396" stroke="#A856F7" stroke-width="2.4" stroke-miterlimit="22.926" stroke-linecap="round" stroke-linejoin="round"/>
<path d="M28.4023 11.2387L28.4057 25.3945" stroke="#A856F7" stroke-width="2.4" stroke-miterlimit="22.926" stroke-linecap="round" stroke-linejoin="round"/>
<path d="M28.3588 19.2735V19.2817C28.3588 21.9642 23.1303 24.1387 16.6806 24.1387C10.3037 24.1387 5.10592 22.0111 5.00391 19.3593" stroke="#A856F7" stroke-width="2.4" stroke-miterlimit="22.926" stroke-linecap="round" stroke-linejoin="round"/>
<path d="M16.7045 15.9941C23.1511 15.9941 28.4091 13.7496 28.4091 10.9975C28.4091 8.24545 23.1511 6.0009 16.7045 6.0009C10.2579 6.0009 5 8.24545 5 10.9975C5 13.7496 10.2579 15.9941 16.7045 15.9941Z" stroke="#A856F7" stroke-width="2.4" stroke-miterlimit="22.926" stroke-linecap="round" stroke-linejoin="round"/>
<path d="M31.7422 25.3172L38.7655 15.5619C39.5267 14.5047 41.0145 14.2623 42.0717 15.0236H42.0718C43.1291 15.7848 43.3713 17.2725 42.6101 18.3298L35.7902 27.8027" stroke="#A856F7" stroke-width="2.4" stroke-miterlimit="22.926" stroke-linecap="round" stroke-linejoin="round"/>
<path d="M32.1906 25.6882L35.0924 27.7774C36.3277 28.6668 36.7871 30.2293 36.2295 31.6457C35.9081 32.4621 35.6585 33.26 35.2803 34.403C34.5964 36.4697 34.3727 38.6764 34.4587 41C32.8183 40.4518 31.3591 39.8788 30.0282 39.2427L30.8204 35.7606L28.0253 38.1803C26.5121 37.2893 25.156 36.269 23.8543 35.0453L26.3956 32.5229L22.0395 33.1727C21.3147 32.3579 20.5917 31.4663 19.8516 30.4835C22.9578 29.5652 25.7108 27.9563 28.1231 25.8696C29.2876 24.8623 30.9409 24.7885 32.1906 25.6882Z" stroke="#A856F7" stroke-width="2.4" stroke-miterlimit="22.926" stroke-linecap="round" stroke-linejoin="round"/>
</svg>
