<svg width="44" height="43" viewBox="0 0 44 43" fill="none" xmlns="http://www.w3.org/2000/svg">
<path d="M37.9779 15.6431C38.5339 12.1399 36.8657 8.6366 33.7517 6.85717C31.4162 5.52259 28.5803 5.35577 26.1335 6.41231C23.52 1.96373 17.9593 -0.149341 13.0102 1.63009C8.11679 3.35391 5.16961 8.30296 5.8369 13.3632C3.5014 14.6422 2 17.0889 2 19.8136C2 23.873 5.28083 27.0982 9.28455 27.0982H10.2299V35.4949C10.2299 39.0537 16.2911 41 22.0186 41C27.7461 41 33.8073 39.0537 33.8073 35.4949V27.1538H36.1428C39.3681 27.1538 42.0372 24.4847 42.0372 21.2594C42.0372 18.6459 40.369 16.4216 37.9779 15.6431ZM31.583 35.5505C31.583 36.8851 27.8574 38.8313 22.0186 38.8313C16.1798 38.8313 12.4542 36.8851 12.4542 35.5505V33.8267C14.7341 35.2725 18.4597 36.051 22.0186 36.051C25.5775 36.051 29.3031 35.2725 31.583 33.8267V35.5505ZM31.583 30.4902C31.583 31.8248 27.8574 33.7711 22.0186 33.7711C16.1798 33.7711 12.4542 31.8248 12.4542 30.4902V28.7664C14.7341 30.2122 18.4597 30.9907 22.0186 30.9907C25.5775 30.9907 29.3031 30.2122 31.583 28.7664V30.4902ZM31.583 25.3744C31.583 26.7089 27.8574 28.6552 22.0186 28.6552C16.1798 28.6552 12.4542 26.7089 12.4542 25.3744V23.7618C14.7341 25.2076 18.4597 25.9861 22.0186 25.9861C25.5775 25.9861 29.3031 25.2076 31.583 23.7618V25.3744ZM22.0186 23.7618C16.1798 23.7618 12.4542 21.8155 12.4542 20.4809C12.4542 19.1464 16.1798 17.2001 22.0186 17.2001C27.8574 17.2001 31.583 19.1464 31.583 20.4809C31.583 21.7599 27.8574 23.7618 22.0186 23.7618ZM36.1428 24.9295H33.8073C33.8073 24.9295 33.8073 20.0361 33.7517 19.9249C33.1956 16.644 27.4681 14.9202 22.0186 14.9202C16.5691 14.9202 10.7859 16.6996 10.2855 19.9249C10.2855 20.0361 10.2299 24.9295 10.2299 24.9295H9.28455C6.50418 24.9295 4.22429 22.6496 4.22429 19.8693C4.22429 17.7562 5.50325 15.9211 7.44951 15.1426C7.94997 14.9202 8.22801 14.4197 8.11679 13.8637C7.22708 9.52631 9.61819 5.18895 13.7331 3.74316C17.9593 2.24177 22.7415 4.24363 24.5765 8.35856C24.6877 8.6366 24.9658 8.85903 25.2438 8.97024C25.5219 9.08146 25.8555 9.02585 26.1335 8.85903C28.1354 7.69128 30.5821 7.63567 32.584 8.74781C35.1975 10.2492 36.4209 13.252 35.5312 16.1436C35.4199 16.4772 35.4755 16.8109 35.698 17.0889C35.8648 17.3669 36.1984 17.5338 36.5321 17.5894C38.3671 17.8118 39.8129 19.3688 39.8129 21.2594C39.8129 23.2613 38.2003 24.9295 36.1428 24.9295Z" fill="#A856F7"/>
</svg>
