<svg width="38" height="36" viewBox="0 0 38 36" fill="none" xmlns="http://www.w3.org/2000/svg">
<path d="M0.634766 27.6948V5.7105C0.634766 4.36496 1.16909 3.07393 2.12054 2.12249C3.07189 1.17118 4.36225 0.636809 5.70763 0.636719H12.4385V0.637635C13.2814 0.632094 14.1126 0.835847 14.8568 1.23213C15.5121 1.58115 16.0819 2.06887 16.5266 2.66019L16.7089 2.91942L16.7785 3.03484L17.8466 4.97678C17.9986 5.19749 18.1994 5.38077 18.4356 5.50806C18.6819 5.64071 18.9574 5.71043 19.2371 5.7105H32.7657C34.1112 5.7105 35.4023 6.24483 36.3537 7.19627C37.305 8.14767 37.8394 9.43798 37.8395 10.7834V16.3646C37.8392 17.2983 37.0822 18.0555 36.1485 18.0556C35.2147 18.0556 34.4578 17.2984 34.4576 16.3646V10.7834C34.4575 10.335 34.279 9.90508 33.962 9.58798C33.6448 9.27083 33.2142 9.09242 32.7657 9.09242H19.2371C18.3972 9.09228 17.5701 8.88354 16.8308 8.4851C16.1837 8.13638 15.621 7.65192 15.181 7.0662L15.0006 6.80972C14.9759 6.77229 14.9525 6.73356 14.9309 6.6943L13.8638 4.75327C13.7101 4.52966 13.5063 4.3451 13.2666 4.21741C13.0794 4.11776 12.8759 4.05389 12.6666 4.02962L12.455 4.01863H5.70763C5.25928 4.01872 4.8293 4.19718 4.51224 4.51419C4.19509 4.83134 4.01668 5.26199 4.01668 5.7105V27.6948C4.01668 28.1432 4.1952 28.573 4.51224 28.8902C4.82931 29.2072 5.25924 29.3856 5.70763 29.3857H16.3618L16.5349 29.3949C17.3876 29.4814 18.0535 30.2012 18.0536 31.0767C18.0536 31.9523 17.3877 32.6728 16.5349 32.7594L16.3618 32.7686H5.70763C4.36221 32.7685 3.0719 32.2332 2.12054 31.2819C1.1692 30.3304 0.634771 29.0402 0.634766 27.6948Z" fill="#3C83F6"/>
<path d="M24.2122 28.0163C25.0333 27.7701 25.9237 28.1809 26.2586 28.99C26.6157 29.853 26.2055 30.8423 25.3425 31.1994L23.7817 31.8452C22.9187 32.2024 21.9294 31.7922 21.5722 30.9292C21.2152 30.0663 21.6253 29.0769 22.4882 28.7198L24.0491 28.074L24.2122 28.0163Z" fill="#3C83F6"/>
<path d="M21.573 24.4574C21.9087 23.6488 22.7995 23.2385 23.6202 23.4855L23.7833 23.5441L25.3442 24.1917L25.4999 24.2659C26.2545 24.6727 26.5931 25.5932 26.2574 26.4021C25.9217 27.2107 25.031 27.621 24.2102 27.374L24.0471 27.3153L22.4862 26.6677L22.3305 26.5935C21.5759 26.1867 21.2373 25.2662 21.573 24.4574Z" fill="#3C83F6"/>
<path d="M26.1449 19.8835C26.9537 19.5479 27.8742 19.8865 28.281 20.641L28.3552 20.7968L29.0028 22.3576L29.0615 22.5207C29.3085 23.3415 28.8982 24.2322 28.0896 24.568C27.2807 24.9036 26.3602 24.5651 25.9534 23.8104L25.8792 23.6547L25.2316 22.0938L25.173 21.9308C24.926 21.11 25.3363 20.2193 26.1449 19.8835Z" fill="#3C83F6"/>
<path d="M25.9547 31.5783C26.3613 30.824 27.2812 30.4856 28.0899 30.8208C28.9526 31.1785 29.3626 32.1675 29.005 33.0302L28.3565 34.5929C27.9988 35.4555 27.0098 35.8647 26.1471 35.5071C25.2844 35.1494 24.8753 34.1604 25.2329 33.2977L25.8805 31.735L25.9547 31.5783Z" fill="#3C83F6"/>
<path d="M30.4842 20.6411C30.891 19.8865 31.8116 19.5479 32.6204 19.8835C33.429 20.2192 33.8393 21.11 33.5923 21.9308L33.5336 22.0938L32.886 23.6547C32.5279 24.5171 31.5382 24.9259 30.6757 24.568C29.8133 24.2099 29.4045 23.2202 29.7624 22.3577L30.41 20.7968L30.4842 20.6411Z" fill="#3C83F6"/>
<path d="M30.6782 30.8201C31.4873 30.4857 32.4067 30.8254 32.8125 31.5804L32.8867 31.737L33.5325 33.2997L33.5911 33.4628C33.8366 34.2837 33.4253 35.1736 32.6164 35.5082C31.8073 35.8427 30.8871 35.5029 30.4812 34.7479L30.407 34.5913L29.7612 33.0286L29.7035 32.8655C29.4578 32.0444 29.869 31.1546 30.6782 30.8201Z" fill="#3C83F6"/>
<path d="M35.1502 23.4852C35.971 23.2387 36.8612 23.6493 37.1966 24.458C37.5541 25.3207 37.145 26.3097 36.2824 26.6674L34.7197 27.316L34.5566 27.3737C33.7357 27.6203 32.8456 27.2097 32.5102 26.4009C32.1526 25.5382 32.5617 24.5492 33.4244 24.1915L34.9871 23.5439L35.1502 23.4852Z" fill="#3C83F6"/>
<path d="M32.5103 28.9893C32.8456 28.1805 33.7357 27.7699 34.5566 28.0165L34.7197 28.0751L36.2824 28.7227C37.145 29.0805 37.5542 30.0695 37.1966 30.9322C36.8389 31.7948 35.8499 32.2047 34.9871 31.8473L33.4244 31.1987L33.2678 31.1245C32.5135 30.7179 32.175 29.798 32.5103 28.9893Z" fill="#3C83F6"/>
<path d="M32.7658 27.6944C32.7658 25.8266 31.2517 24.3118 29.3839 24.3116C27.5159 24.3116 26.0011 25.8265 26.0011 27.6944C26.0013 29.5622 27.516 31.0763 29.3839 31.0763C31.2515 31.0761 32.7656 29.5621 32.7658 27.6944ZM36.1477 27.6944C36.1475 31.43 33.1195 34.458 29.3839 34.4583C25.6481 34.4583 22.6194 31.4302 22.6191 27.6944C22.6191 23.9585 25.6479 20.9297 29.3839 20.9297C33.1196 20.9299 36.1477 23.9586 36.1477 27.6944Z" fill="#3C83F6"/>
</svg>
