<svg width="44" height="44" viewBox="0 0 44 44" fill="none" xmlns="http://www.w3.org/2000/svg">
<path d="M37.2815 34.9235C38.1844 33.5629 38.6661 31.9664 38.6665 30.3335C38.6665 25.7305 34.936 22 30.3335 22C30.2435 22 30.1605 22.023 30.0715 22.026C30.0065 21.574 29.9545 21.115 29.865 20.6785L35.335 18.413L34.059 15.334L28.948 17.453C27.83 14.484 26.098 12.0655 24 10.5195L27.001 3.2765L23.9225 2L21.02 9.0055C20.2615 8.784 19.474 8.6665 18.6685 8.6665C17.863 8.6665 17.0745 8.7835 16.3165 9.0055L13.4145 2L10.335 3.276L13.3365 10.519C11.237 12.065 9.5065 14.484 8.3885 17.4525L3.276 15.3335L2 18.4125L7.472 20.678C7.2696 21.6641 7.13197 22.6624 7.06 23.6665H2.0015V27H7.06C7.13239 28.004 7.27002 29.0023 7.472 29.9885L2.0015 32.254L3.276 35.3335L8.3885 33.2145C10.356 38.442 14.22 42 18.6685 42C21.678 42 24.4135 40.356 26.4825 37.68C27.6395 38.289 28.937 38.6665 30.3335 38.6665C32.031 38.6665 33.6065 38.1525 34.925 37.28L39.643 42L42 39.643L37.2815 34.9235ZM18.6685 12C20.8415 12 22.845 13.4225 24.347 15.6915C22.5728 16.5354 20.6329 16.9733 18.6682 16.9733C16.7036 16.9733 14.7637 16.5354 12.9895 15.6915C14.49 13.4195 16.4955 12 18.6685 12ZM23.9205 35.594C22.475 37.5045 20.639 38.667 18.6685 38.667C14.152 38.667 10.335 32.5605 10.335 25.334C10.335 22.915 10.7695 20.63 11.5085 18.6475C13.7414 19.7262 16.189 20.2868 18.6688 20.2874C21.1487 20.288 23.5966 19.7286 25.83 18.651C26.3035 19.9205 26.634 21.3235 26.823 22.8015C23.981 24.1255 22 26.99 22 30.3335C22 32.3385 22.739 34.155 23.9205 35.594ZM30.3335 35.3335C27.5715 35.3335 25.3335 33.094 25.3335 30.3335C25.3335 27.57 27.5715 25.3335 30.3335 25.3335C33.095 25.3335 35.3335 27.57 35.3335 30.3335C35.3335 33.094 33.095 35.3335 30.3335 35.3335Z" fill="#3C83F6"/>
</svg>
