<svg width="44" height="44" viewBox="0 0 44 44" fill="none" xmlns="http://www.w3.org/2000/svg">
<path d="M33.4611 31.6926C34.1383 30.6722 34.4996 29.4748 34.4999 28.2501C34.4999 24.7979 31.702 22 28.2501 22C28.1826 22 28.1204 22.0172 28.0536 22.0195C28.0049 21.6805 27.9659 21.3362 27.8988 21.0089L32.0012 19.3098L31.0442 17.0005L27.211 18.5897C26.3725 16.363 25.0735 14.5491 23.5 13.3896L25.7507 7.95738L23.4419 7L21.265 12.2541C20.6961 12.088 20.1055 11.9999 19.5014 11.9999C18.8973 11.9999 18.3059 12.0876 17.7374 12.2541L15.5609 7L13.2513 7.957L15.5024 13.3893C13.9278 14.5488 12.6299 16.363 11.7914 18.5894L7.957 17.0001L7 19.3094L11.104 21.0085C10.9522 21.7481 10.849 22.4968 10.795 23.2499H7.00113V25.75H10.795C10.8493 26.503 10.9525 27.2517 11.104 27.9914L7.00113 29.6905L7.957 32.0001L11.7914 30.4109C13.267 34.3315 16.165 37 19.5014 37C21.7585 37 23.8101 35.767 25.3619 33.76C26.2296 34.2168 27.2027 34.4999 28.2501 34.4999C29.5232 34.4999 30.7049 34.1144 31.6937 33.46L35.2323 37L37 35.2323L33.4611 31.6926ZM19.5014 14.5C21.1311 14.5 22.6338 15.5669 23.7603 17.2686C22.4296 17.9015 20.9747 18.2299 19.5012 18.2299C18.0277 18.2299 16.5727 17.9015 15.2421 17.2686C16.3675 15.5646 17.8716 14.5 19.5014 14.5ZM23.4404 32.1955C22.3562 33.6284 20.9793 34.5002 19.5014 34.5002C16.114 34.5002 13.2513 29.9204 13.2513 24.5005C13.2513 22.6862 13.5771 20.9725 14.1314 19.4856C15.806 20.2947 17.6418 20.7151 19.5016 20.7156C21.3615 20.716 23.1974 20.2965 24.8725 19.4882C25.2276 20.4404 25.4755 21.4926 25.6172 22.6011C23.4857 23.5941 22 25.7425 22 28.2501C22 29.7539 22.5542 31.1163 23.4404 32.1955ZM28.2501 32.0001C26.1786 32.0001 24.5001 30.3205 24.5001 28.2501C24.5001 26.1775 26.1786 24.5001 28.2501 24.5001C30.3212 24.5001 32.0001 26.1775 32.0001 28.2501C32.0001 30.3205 30.3212 32.0001 28.2501 32.0001Z" fill="#A856F7"/>
</svg>
