<svg width="36" height="35" viewBox="0 0 36 35" fill="none" xmlns="http://www.w3.org/2000/svg">
<path d="M7.34584 22.772C8.5413 22.809 9.68491 23.2582 10.5836 24.04L10.76 24.2013L10.7803 24.2207C12.7139 26.1301 12.6891 29.1934 11.0289 31.1618L11.0298 31.1627C10.3091 32.0207 9.31578 32.651 8.36073 33.1176C7.38702 33.5932 6.33575 33.9542 5.39188 34.2242C4.44297 34.4956 3.56761 34.6843 2.93092 34.8052C2.61144 34.8659 2.34861 34.91 2.1638 34.9393C2.07152 34.9539 1.99843 34.9653 1.94689 34.9728C1.92119 34.9765 1.90071 34.9795 1.88605 34.9816C1.87882 34.9826 1.87283 34.9836 1.86842 34.9842C1.86619 34.9845 1.86373 34.984 1.86224 34.9842L1.86048 34.9851H1.8596C1.35703 35.0523 0.85153 34.8815 0.492887 34.5231C0.134217 34.1644 -0.0372459 33.6582 0.0299682 33.1555V33.1546L0.03085 33.1528C0.0310502 33.1513 0.0305469 33.1489 0.03085 33.1467C0.0314526 33.1422 0.0324909 33.1362 0.0334952 33.129C0.0355387 33.1144 0.0385793 33.0939 0.0423127 33.0682C0.04981 33.0166 0.0611926 32.9435 0.0758192 32.8513C0.105116 32.6665 0.149183 32.4036 0.209845 32.0842C0.330744 31.4475 0.519496 30.5721 0.790918 29.6232C1.06087 28.6795 1.42201 27.6288 1.89751 26.6552C2.36405 25.7001 2.99431 24.706 3.85235 23.9853C4.82759 23.1644 6.07163 22.7327 7.34584 22.772ZM7.24532 26.0257C6.77218 26.0111 6.31024 26.1721 5.94827 26.4771L5.94651 26.4789C5.58365 26.7837 5.19598 27.3204 4.82316 28.0837C4.45943 28.8283 4.15984 29.6845 3.92113 30.519C3.84456 30.7867 3.77629 31.049 3.71392 31.3003C3.96536 31.2379 4.2281 31.1706 4.49603 31.0939C5.33057 30.8552 6.18677 30.5556 6.93142 30.1919C7.69469 29.8191 8.2314 29.4314 8.5362 29.0686L8.53973 29.065L8.65259 28.9169C9.1744 28.1634 9.0905 27.1398 8.50358 26.5485C8.16214 26.2266 7.71463 26.0402 7.24532 26.0257Z" fill="#A856F7"/>
<path d="M33.564 0.0101337C34.3807 0.0979573 35.0161 0.789231 35.0163 1.62814C35.0163 6.30112 33.6767 14.5191 24.9485 20.599L24.527 20.8873C24.515 20.8953 24.503 20.9034 24.4909 20.9111C22.3428 22.2694 20.0637 23.4085 17.6882 24.312C17.1264 24.5257 16.4956 24.4123 16.0455 24.0237L15.9582 23.9417L11.075 19.0586C10.6198 18.6034 10.4749 17.9222 10.7065 17.3215L11.0574 16.4451C11.9009 14.4111 12.9229 12.4545 14.1109 10.5991C16.1543 7.33763 18.9969 4.65218 22.3694 2.79734C25.747 0.93969 29.5436 -0.0234739 33.3983 0.000434489L33.564 0.0101337ZM31.693 3.3211C28.9789 3.54148 26.335 4.33144 23.938 5.6498C21.2277 7.14045 18.9177 9.25827 17.1979 11.822L16.862 12.3405C16.8589 12.3453 16.8553 12.3498 16.8523 12.3546C15.8015 13.9958 14.895 15.7243 14.1391 17.519L17.5021 20.8811C19.317 20.1276 21.0655 19.2221 22.7282 18.1724C29.6082 13.5525 31.3601 7.51199 31.693 3.3211Z" fill="#A856F7"/>
<path d="M15.6274 10.9352L15.9757 9.84715C16.832 10.1208 17.3047 11.0364 17.0311 11.8928C16.7575 12.7492 15.841 13.2219 14.9846 12.9483V12.9474C14.9835 12.947 14.982 12.9471 14.9802 12.9465C14.9733 12.9444 14.9606 12.941 14.944 12.9359C14.9108 12.9258 14.8586 12.9098 14.7897 12.8901C14.6514 12.8504 14.4462 12.7936 14.1901 12.7305C13.6745 12.6033 12.9663 12.453 12.1912 12.3531C11.4097 12.2524 10.6028 12.2088 9.87573 12.2764C9.13599 12.3451 8.5954 12.5172 8.24538 12.7499L8.24626 12.7507C7.53802 13.2246 6.86801 14.3959 6.35844 15.8007C6.29918 15.9641 6.24375 16.1248 6.19267 16.2813H12.2247L12.3914 16.2892C13.2121 16.3727 13.8524 17.0662 13.8524 17.909C13.8524 18.7517 13.2121 19.4453 12.3914 19.5288L12.2247 19.5367H4.08529C3.6027 19.5367 3.14514 19.3225 2.83585 18.9521C2.52656 18.5816 2.39695 18.0929 2.48315 17.618L4.08529 17.909C2.56448 17.6329 2.48785 17.6182 2.48403 17.6171V17.6145C2.48429 17.6131 2.48455 17.6112 2.48491 17.6092C2.48567 17.6051 2.48724 17.5997 2.48844 17.5933C2.49086 17.5805 2.4939 17.563 2.49814 17.5413C2.50674 17.4973 2.51887 17.4352 2.53517 17.3579C2.56774 17.2034 2.61688 16.9855 2.68242 16.7213C2.81289 16.1953 3.01419 15.4727 3.29788 14.6906C3.82606 13.2345 4.7839 11.1499 6.43603 10.0447L6.43779 10.0429L6.6212 9.9265C7.54794 9.36467 8.60727 9.12501 9.57506 9.03506C10.621 8.93788 11.684 9.00424 12.6074 9.12323C13.5374 9.2431 14.3711 9.42183 14.9696 9.5694C15.2699 9.64346 15.5146 9.71119 15.6873 9.76074C15.7738 9.78554 15.8432 9.8059 15.8919 9.82069C15.916 9.82801 15.9352 9.83395 15.9492 9.83833C15.9563 9.84054 15.9624 9.84222 15.9669 9.84362C15.9689 9.84427 15.9707 9.84492 15.9721 9.84538L15.9739 9.84627H15.9748C15.9751 9.84637 15.9752 9.84655 15.6274 10.9352ZM15.4801 11.3973C15.4563 11.472 15.433 11.543 15.4114 11.6106L15.6274 10.9352C15.5839 11.0714 15.5352 11.2248 15.4801 11.3973Z" fill="#A856F7"/>
<path d="M15.4805 30.9297V22.7902C15.4806 21.8913 16.2092 21.1625 17.1082 21.1625C18.0071 21.1625 18.7357 21.8913 18.7359 22.7902V28.8223C18.8923 28.7712 19.0531 28.7158 19.2164 28.6565C20.5336 28.1787 21.6452 27.56 22.1694 26.9009L22.2664 26.7687C22.499 26.4186 22.6721 25.8788 22.7408 25.1392C22.8084 24.4121 22.7648 23.6053 22.6641 22.8237C22.5642 22.0487 22.4138 21.3413 22.2867 20.8257C22.2235 20.5693 22.1668 20.3636 22.1271 20.2252C22.1073 20.1562 22.0913 20.1041 22.0812 20.0709C22.0762 20.0544 22.0728 20.0425 22.0707 20.0356L22.0689 20.0304L22.0266 19.869C21.8562 19.0617 22.3215 18.2403 23.1244 17.9838C23.9806 17.7104 24.8963 18.183 25.17 19.0393L23.5811 19.5472C23.5939 19.5431 23.6069 19.539 23.6199 19.5348C25.1703 19.0394 25.1708 19.0398 25.1709 19.0401V19.041L25.1718 19.0428C25.1723 19.0443 25.1728 19.0467 25.1735 19.049C25.1749 19.0533 25.1767 19.0589 25.1788 19.0657C25.1832 19.0799 25.1891 19.0996 25.1965 19.1239C25.2113 19.1726 25.2316 19.2412 25.2564 19.3276C25.306 19.5004 25.3736 19.7456 25.4478 20.0462C25.5953 20.6447 25.7732 21.4776 25.893 22.4075C26.0121 23.3312 26.0793 24.3946 25.9821 25.4408C25.8861 26.4728 25.6199 27.6087 24.9743 28.5771L24.9725 28.5789C23.8673 30.2311 21.7827 31.1898 20.3266 31.7179C19.5442 32.0017 18.821 32.2029 18.295 32.3334C18.0311 32.3989 17.8136 32.4472 17.6593 32.4798C17.582 32.4961 17.5199 32.5082 17.4759 32.5168C17.4541 32.5211 17.4367 32.525 17.4238 32.5274L17.4027 32.5309H17.4V32.5318C17.3997 32.5319 17.3989 32.5314 17.1082 30.9297L17.3992 32.5318C16.9244 32.618 16.4355 32.4891 16.0651 32.18C15.6946 31.8707 15.4805 31.4123 15.4805 30.9297Z" fill="#A856F7"/>
</svg>
