<svg width="44" height="44" viewBox="0 0 44 44" fill="none" xmlns="http://www.w3.org/2000/svg">
<path d="M35.2741 26.682C33.5545 26.682 32.1018 27.8415 31.6537 29.4193H28.0201V25.4122H31.7301C35.7597 25.4122 39.0379 22.134 39.0379 18.1044C39.0379 14.8736 36.8951 12.0354 33.8531 11.111C32.9336 7.42899 29.6099 4.78822 25.7606 4.78822C24.2684 4.78822 22.839 5.17302 21.5775 5.9082C20.2414 4.68639 18.4896 4 16.649 4C12.7008 4 9.47392 7.14732 9.34513 11.0646C6.22039 11.938 4 14.799 4 18.1044C4 22.134 7.27824 25.4122 11.3078 25.4122H15.0178V29.4193H11.3842C10.9362 27.8415 9.48337 26.682 7.76384 26.682C5.68846 26.682 4 28.3704 4 30.4458C4 32.5212 5.68846 34.2097 7.76384 34.2097C9.48337 34.2097 10.9361 33.0502 11.3842 31.4723H16.0443C16.6112 31.4723 17.0708 31.0127 17.0708 30.4458V25.4122H20.4925V31.6158C18.9146 32.0638 17.7551 33.5166 17.7551 35.2362C17.7551 37.3115 19.4436 39 21.519 39C23.5943 39 25.2828 37.3115 25.2828 35.2362C25.2828 33.5166 24.1233 32.0639 22.5455 31.6158V25.4122H25.9671V30.4458C25.9671 31.0127 26.4267 31.4723 26.9936 31.4723H31.6537C32.1017 33.0502 33.5545 34.2097 35.2741 34.2097C37.3495 34.2097 39.0379 32.5212 39.0379 30.4458C39.0379 28.3704 37.3495 26.682 35.2741 26.682ZM7.76384 32.1567C6.82048 32.1567 6.053 31.3892 6.053 30.4458C6.053 29.5025 6.82048 28.735 7.76384 28.735C8.70719 28.735 9.47467 29.5025 9.47467 30.4458C9.47467 31.3892 8.70719 32.1567 7.76384 32.1567ZM23.2298 35.2362C23.2298 36.1795 22.4623 36.947 21.519 36.947C20.5756 36.947 19.8081 36.1795 19.8081 35.2362C19.8081 34.2928 20.5756 33.5253 21.519 33.5253C22.4623 33.5253 23.2298 34.2928 23.2298 35.2362ZM11.3078 23.3592C8.41033 23.3592 6.053 21.0019 6.053 18.1044C6.053 15.5147 7.9833 13.2794 10.5429 12.9051C11.0831 12.8261 11.4668 12.3382 11.4165 11.7947C11.4016 11.6328 11.3941 11.4703 11.3941 11.3077C11.3941 8.41033 13.7514 6.05307 16.6489 6.05307C18.1948 6.05307 19.6526 6.72509 20.6485 7.8968C20.9981 8.30816 21.6066 8.37837 22.0408 8.05755C23.1174 7.26181 24.4036 6.84122 25.7605 6.84122C28.883 6.84122 31.4797 9.1323 31.9651 12.1126C31.9986 12.3185 32.0941 12.5092 32.2387 12.6594C32.3833 12.8097 32.5702 12.9123 32.7746 12.9537C35.2142 13.4476 36.9848 15.6137 36.9848 18.1044C36.9848 21.0019 34.6275 23.3592 31.73 23.3592H11.3078ZM35.2741 32.1567C34.3307 32.1567 33.5632 31.3892 33.5632 30.4458C33.5632 29.5025 34.3307 28.735 35.2741 28.735C36.2174 28.735 36.9849 29.5025 36.9849 30.4458C36.9849 31.3892 36.2174 32.1567 35.2741 32.1567Z" fill="#3C83F6"/>
</svg>
