<svg width="30" height="30" viewBox="0 0 30 30" fill="none" xmlns="http://www.w3.org/2000/svg">
<path d="M7.44547 18.9159C8.33354 18.9434 9.18311 19.2771 9.85075 19.8578L9.98175 19.9777L9.99682 19.9921C11.4333 21.4106 11.4148 23.6863 10.1815 25.1486L10.1822 25.1493C9.64681 25.7866 8.90889 26.2549 8.19941 26.6015C7.47606 26.9548 6.69509 27.223 5.99391 27.4236C5.28899 27.6252 4.63869 27.7654 4.16571 27.8552C3.92837 27.9003 3.73313 27.933 3.59584 27.9548C3.52728 27.9657 3.47299 27.9741 3.4347 27.9797C3.41561 27.9825 3.40039 27.9847 3.3895 27.9862C3.38413 27.987 3.37968 27.9878 3.3764 27.9882C3.37475 27.9884 3.37292 27.9881 3.37181 27.9882L3.3705 27.9889H3.36985C2.9965 28.0388 2.62098 27.9119 2.35455 27.6456C2.0881 27.3792 1.96072 27.0032 2.01066 26.6297V26.629L2.01131 26.6277C2.01146 26.6266 2.01109 26.6248 2.01131 26.6231C2.01176 26.6198 2.01253 26.6154 2.01328 26.61C2.01479 26.5991 2.01705 26.5839 2.01983 26.5648C2.0254 26.5265 2.03385 26.4722 2.04472 26.4037C2.06648 26.2664 2.09922 26.0711 2.14428 25.8338C2.2341 25.3608 2.37432 24.7105 2.57595 24.0056C2.77649 23.3045 3.04477 22.524 3.39802 21.8007C3.7446 21.0911 4.21281 20.3527 4.85022 19.8172C5.57471 19.2074 6.49888 18.8867 7.44547 18.9159ZM7.37079 21.333C7.01931 21.3222 6.67614 21.4418 6.40724 21.6684L6.40593 21.6697C6.13637 21.8961 5.84838 22.2948 5.57142 22.8619C5.30121 23.4151 5.07865 24.0511 4.90132 24.6711C4.84443 24.87 4.79372 25.0648 4.74738 25.2514C4.93418 25.2051 5.12936 25.1551 5.3284 25.0982C5.94836 24.9208 6.58442 24.6983 7.1376 24.4281C7.70462 24.1511 8.10333 23.8631 8.32976 23.5935L8.33238 23.5909L8.41623 23.4809C8.80387 22.9211 8.74154 22.1607 8.30552 21.7214C8.05188 21.4823 7.71943 21.3438 7.37079 21.333Z" fill="#3C83F6"/>
<path d="M26.9226 2.00753C27.5293 2.07277 28.0013 2.58631 28.0014 3.20953C28.0014 6.68103 27.0063 12.786 20.5223 17.3027L20.2092 17.5169C20.2003 17.5229 20.1913 17.5289 20.1823 17.5346C18.5865 18.5437 16.8934 19.3899 15.1287 20.0611C14.7114 20.2198 14.2428 20.1356 13.9084 19.8469L13.8435 19.786L10.216 16.1584C9.87781 15.8202 9.77016 15.3142 9.94216 14.8679L10.2029 14.2168C10.8295 12.7058 11.5887 11.2523 12.4712 9.87391C13.9892 7.45104 16.101 5.45605 18.6063 4.07811C21.1154 2.69808 23.9359 1.98256 26.7994 2.00032L26.9226 2.00753ZM25.5326 4.46721C23.5164 4.63092 21.5523 5.21778 19.7716 6.19717C17.7582 7.30456 16.0421 8.87785 14.7645 10.7825L14.5149 11.1676C14.5127 11.1712 14.51 11.1745 14.5077 11.1781C13.7271 12.3973 13.0538 13.6814 12.4922 15.0147L14.9905 17.5123C16.3388 16.9525 17.6377 16.2798 18.8729 15.5001C23.9839 12.068 25.2853 7.58057 25.5326 4.46721Z" fill="#3C83F6"/>
<path d="M13.5965 10.1221L13.8552 9.31382C14.4914 9.5171 14.8425 10.1973 14.6393 10.8335C14.436 11.4697 13.7552 11.8209 13.119 11.6176V11.6169C13.1182 11.6167 13.117 11.6167 13.1157 11.6163C13.1106 11.6147 13.1012 11.6122 13.0888 11.6084C13.0641 11.6009 13.0254 11.5891 12.9742 11.5744C12.8714 11.5449 12.719 11.5027 12.5288 11.4558C12.1457 11.3614 11.6197 11.2497 11.0438 11.1754C10.4633 11.1006 9.86382 11.0683 9.3237 11.1185C8.77416 11.1696 8.37257 11.2974 8.11254 11.4702L8.1132 11.4709C7.58706 11.8229 7.08933 12.693 6.71077 13.7367C6.66676 13.858 6.62558 13.9774 6.58763 14.0937H11.0687L11.1925 14.0995C11.8022 14.1616 12.2779 14.6768 12.2779 15.3029C12.2779 15.9289 11.8022 16.4442 11.1925 16.5062L11.0687 16.5121H5.0221C4.66359 16.5121 4.32368 16.353 4.09391 16.0778C3.86415 15.8025 3.76787 15.4395 3.8319 15.0867L5.0221 15.3029C3.89232 15.0978 3.83539 15.0868 3.83256 15.086V15.0841C3.83275 15.083 3.83294 15.0816 3.83321 15.0801C3.83377 15.0771 3.83494 15.0731 3.83583 15.0684C3.83763 15.0588 3.83989 15.0458 3.84304 15.0297C3.84942 14.997 3.85844 14.9509 3.87055 14.8935C3.89474 14.7787 3.93125 14.6168 3.97994 14.4205C4.07686 14.0298 4.2264 13.493 4.43715 12.912C4.82952 11.8302 5.54109 10.2816 6.76842 9.46055L6.76973 9.45924L6.90597 9.37278C7.59443 8.95539 8.38138 8.77735 9.10033 8.71053C9.87735 8.63834 10.667 8.68764 11.353 8.77603C12.0439 8.86508 12.6632 8.99786 13.1078 9.10748C13.3309 9.1625 13.5127 9.21282 13.641 9.24963C13.7053 9.26806 13.7568 9.28318 13.793 9.29417C13.8109 9.29961 13.8251 9.30401 13.8356 9.30727C13.8408 9.30891 13.8454 9.31016 13.8487 9.3112C13.8502 9.31169 13.8515 9.31216 13.8526 9.31251L13.8539 9.31317H13.8546C13.8548 9.31324 13.8548 9.31338 13.5965 10.1221ZM13.4871 10.4654C13.4694 10.5209 13.4521 10.5736 13.436 10.6239L13.5965 10.1221C13.5642 10.2233 13.528 10.3373 13.4871 10.4654Z" fill="#3C83F6"/>
<path d="M13.4883 24.9757V18.929C13.4884 18.2612 14.0297 17.7198 14.6975 17.7198C15.3653 17.7198 15.9065 18.2612 15.9067 18.929V23.4102C16.0229 23.3722 16.1423 23.331 16.2637 23.287C17.2421 22.9321 18.068 22.4725 18.4574 21.9828L18.5294 21.8846C18.7022 21.6245 18.8308 21.2235 18.8818 20.6741C18.932 20.1339 18.8997 19.5345 18.8248 18.9539C18.7506 18.3782 18.6389 17.8526 18.5445 17.4696C18.4975 17.2791 18.4554 17.1263 18.4259 17.0235C18.4112 16.9722 18.3994 16.9336 18.3919 16.9089C18.3881 16.8966 18.3856 16.8878 18.384 16.8827L18.3827 16.8787L18.3512 16.7589C18.2247 16.1592 18.5704 15.549 19.1668 15.3584C19.8029 15.1553 20.4831 15.5064 20.6864 16.1425L19.5061 16.5198C19.5155 16.5168 19.5253 16.5137 19.5349 16.5106C20.6867 16.1426 20.687 16.1429 20.6871 16.1431V16.1438L20.6878 16.1451C20.6881 16.1463 20.6885 16.148 20.6891 16.1497C20.6901 16.1529 20.6914 16.1571 20.693 16.1621C20.6963 16.1726 20.7006 16.1873 20.7061 16.2054C20.7171 16.2415 20.7322 16.2925 20.7506 16.3567C20.7875 16.485 20.8377 16.6672 20.8928 16.8905C21.0024 17.3351 21.1345 17.9539 21.2236 18.6447C21.312 19.3309 21.362 20.1209 21.2897 20.8981C21.2184 21.6648 21.0206 22.5086 20.541 23.2281L20.5397 23.2294C19.7187 24.4567 18.1701 25.1689 17.0883 25.5613C16.5072 25.7721 15.9699 25.9216 15.5791 26.0185C15.3831 26.0672 15.2215 26.1031 15.1069 26.1273C15.0494 26.1394 15.0033 26.1484 14.9706 26.1548C14.9544 26.1579 14.9415 26.1608 14.932 26.1626L14.9163 26.1653H14.9143V26.1659C14.914 26.166 14.9135 26.1656 14.6975 24.9757L14.9136 26.1659C14.561 26.2299 14.1978 26.1342 13.9226 25.9046C13.6473 25.6748 13.4883 25.3342 13.4883 24.9757Z" fill="#3C83F6"/>
</svg>
