<svg width="44" height="44" viewBox="0 0 44 44" fill="none" xmlns="http://www.w3.org/2000/svg">
<path d="M19.5 36.3486V23.1463C19.5 22.2348 20.2387 21.4961 21.1501 21.4961C22.0615 21.4961 22.8002 22.2348 22.8002 23.1463V36.3486C22.8002 37.2601 22.0615 37.9997 21.1501 37.9997C20.2387 37.9997 19.5 37.2601 19.5 36.3486Z" fill="#3C83F6"/>
<path d="M35.2677 29.8718C34.5098 30.3781 33.4847 30.1747 32.9784 29.4168C32.4722 28.6589 32.6765 27.6338 33.4343 27.1275L35.2677 29.8718ZM15.1588 5.04133C17.1557 4.88301 19.1626 5.18082 21.0272 5.91291C22.8918 6.64502 24.5654 7.79217 25.9212 9.2669C26.9946 10.4344 27.8457 11.7838 28.4384 13.2475H30.2253L30.59 13.2547C32.4085 13.3276 34.166 13.9462 35.6324 15.0336C37.1965 16.1936 38.3467 17.8256 38.9121 19.6891C39.4773 21.5527 39.4278 23.549 38.7717 25.3825C38.1155 27.2161 36.887 28.7901 35.2677 29.8718L33.4343 27.1275C34.4649 26.4391 35.247 25.4374 35.6646 24.2705C36.0821 23.1037 36.1136 21.8333 35.754 20.6474C35.3942 19.4616 34.6621 18.4232 33.6667 17.685C32.7336 16.9929 31.615 16.5988 30.4577 16.5524L30.2253 16.5479H27.271C26.5416 16.5477 25.8984 16.0687 25.6897 15.3697C25.2598 13.9301 24.5084 12.6068 23.4916 11.5008C22.4748 10.3948 21.219 9.53441 19.8204 8.98532C18.4222 8.43641 16.9173 8.21315 15.4199 8.33186C13.9221 8.45065 12.4702 8.90826 11.1757 9.67096C9.88134 10.4336 8.77763 11.4811 7.94786 12.7335C7.11805 13.9861 6.58379 15.4115 6.38625 16.901C6.18873 18.3904 6.33266 19.9057 6.80727 21.3313C7.25221 22.6676 7.97738 23.8923 8.93203 24.9249L9.12601 25.1287L9.23774 25.2556C9.75949 25.9094 9.71154 26.865 9.10098 27.4627C8.49026 28.0605 7.53377 28.0879 6.89129 27.5521L6.76704 27.4377L6.50871 27.1659C5.23564 25.789 4.26927 24.1556 3.67599 22.3736C3.04316 20.4728 2.85123 18.4525 3.11463 16.4666C3.37806 14.4807 4.09013 12.5808 5.19649 10.9108C6.30288 9.24081 7.77462 7.84429 9.50054 6.82739C11.2265 5.81047 13.1618 5.19972 15.1588 5.04133Z" fill="#3C83F6"/>
<path d="M20.1083 21.866C20.7565 21.3375 21.712 21.3754 22.3162 21.9795L28.9175 28.5802L29.031 28.7063C29.5593 29.3545 29.5215 30.3102 28.9175 30.9143C28.3133 31.5185 27.3569 31.5566 26.7087 31.0278L26.5836 30.9143L21.1488 25.4792L15.7148 30.9143L15.5897 31.0278C14.9415 31.5563 13.9859 31.5183 13.3818 30.9143C12.7373 30.2698 12.7373 29.2247 13.3818 28.5802L19.9822 21.9795L20.1083 21.866Z" fill="#3C83F6"/>
</svg>
