<svg width="39" height="35" viewBox="0 0 39 35" fill="none" xmlns="http://www.w3.org/2000/svg">
<path d="M17.498 33.2474V19.2461C17.498 18.2795 18.2815 17.4961 19.2481 17.4961C20.2147 17.4961 20.9981 18.2795 20.9981 19.2461V33.2474C20.9981 34.214 20.2147 34.9984 19.2481 34.9984C18.2815 34.9984 17.498 34.214 17.498 33.2474Z" fill="#A856F7"/>
<path d="M34.2217 26.3769C33.4179 26.9138 32.3307 26.6981 31.7938 25.8943C31.2569 25.0905 31.4736 24.0034 32.2773 23.4665L34.2217 26.3769ZM12.8951 0.043832C15.0129 -0.124074 17.1413 0.191762 19.1189 0.968147C21.0964 1.74456 22.8713 2.96113 24.3092 4.5251C25.4476 5.76328 26.3502 7.19429 26.9789 8.74662H28.8739L29.2607 8.7542C31.1893 8.83153 33.0533 9.48752 34.6085 10.6408C36.2674 11.8709 37.4872 13.6017 38.0868 15.578C38.6862 17.5544 38.6338 19.6714 37.9379 21.6159C37.242 23.5604 35.9391 25.2297 34.2217 26.3769L32.2773 23.4665C33.3703 22.7364 34.1997 21.6741 34.6426 20.4366C35.0854 19.1992 35.1189 17.8519 34.7374 16.5943C34.3559 15.3367 33.5794 14.2354 32.5238 13.4526C31.5341 12.7186 30.3478 12.3006 29.1204 12.2514L28.8739 12.2467H25.7407C24.9672 12.2465 24.285 11.7385 24.0637 10.9972C23.6078 9.47048 22.8109 8.06715 21.7325 6.89419C20.6541 5.7212 19.3222 4.80879 17.839 4.22648C16.3561 3.64435 14.7601 3.40759 13.172 3.53348C11.5835 3.65946 10.0437 4.14476 8.67077 4.95361C7.29805 5.76239 6.1275 6.87332 5.24749 8.20151C4.36742 9.52987 3.80081 11.0415 3.59131 12.6212C3.38183 14.2007 3.53448 15.8077 4.03782 17.3195C4.50971 18.7367 5.27879 20.0355 6.29125 21.1305L6.49697 21.3467L6.61548 21.4813C7.16882 22.1747 7.11796 23.188 6.47043 23.822C5.82273 24.4559 4.80832 24.485 4.12693 23.9168L3.99516 23.7954L3.72118 23.5072C2.37102 22.047 1.34614 20.3147 0.716922 18.4249C0.0457732 16.4091 -0.157775 14.2666 0.121568 12.1604C0.400951 10.0544 1.15615 8.03955 2.3295 6.2685C3.50289 4.49743 5.06375 3.0164 6.89419 1.93797C8.72471 0.859508 10.7772 0.211804 12.8951 0.043832Z" fill="#A856F7"/>
<path d="M18.1445 17.8884C18.8319 17.3279 19.8454 17.368 20.4861 18.0088L27.4872 25.0089L27.6076 25.1426C28.1679 25.83 28.1277 26.8435 27.4872 27.4842C26.8464 28.125 25.8321 28.1654 25.1446 27.6046L25.0119 27.4842L19.248 21.7203L13.485 27.4842L13.3523 27.6046C12.6649 28.1651 11.6514 28.1248 11.0107 27.4842C10.3272 26.8007 10.3272 25.6924 11.0107 25.0089L18.0108 18.0088L18.1445 17.8884Z" fill="#A856F7"/>
</svg>
