<svg width="44" height="44" viewBox="0 0 44 44" fill="none" xmlns="http://www.w3.org/2000/svg">
<path d="M11.3302 26.772C12.5257 26.809 13.6693 27.2582 14.568 28.04L14.7443 28.2013L14.7646 28.2207C16.6982 30.1301 16.6735 33.1934 15.0133 35.1618L15.0142 35.1627C14.2935 36.0207 13.3002 36.651 12.3451 37.1176C11.3714 37.5932 10.3201 37.9542 9.37626 38.2242C8.42735 38.4956 7.55198 38.6843 6.9153 38.8052C6.59581 38.8659 6.33299 38.91 6.14818 38.9393C6.0559 38.9539 5.98281 38.9653 5.93127 38.9728C5.90557 38.9765 5.88508 38.9795 5.87043 38.9816C5.8632 38.9826 5.85721 38.9836 5.85279 38.9842C5.85057 38.9845 5.8481 38.984 5.84662 38.9842L5.84485 38.9851H5.84397C5.34141 39.0523 4.83591 38.8815 4.47726 38.5231C4.11859 38.1644 3.94713 37.6582 4.01434 37.1555V37.1546L4.01522 37.1528C4.01543 37.1513 4.01492 37.1489 4.01522 37.1467C4.01583 37.1422 4.01687 37.1362 4.01787 37.129C4.01991 37.1144 4.02295 37.0939 4.02669 37.0682C4.03419 37.0166 4.04557 36.9435 4.06019 36.8513C4.08949 36.6665 4.13356 36.4036 4.19422 36.0842C4.31512 35.4475 4.50387 34.5721 4.77529 33.6232C5.04524 32.6795 5.40638 31.6288 5.88189 30.6552C6.34842 29.7001 6.97869 28.706 7.83673 27.9853C8.81196 27.1644 10.056 26.7327 11.3302 26.772ZM11.2297 30.0257C10.7566 30.0111 10.2946 30.1721 9.93264 30.4771L9.93088 30.4789C9.56803 30.7837 9.18035 31.3204 8.80753 32.0837C8.4438 32.8283 8.14422 33.6845 7.9055 34.519C7.82893 34.7867 7.76066 35.049 7.69829 35.3003C7.94974 35.2379 8.21248 35.1706 8.4804 35.0939C9.31494 34.8552 10.1711 34.5556 10.9158 34.1919C11.6791 33.8191 12.2158 33.4314 12.5206 33.0686L12.5241 33.065L12.637 32.9169C13.1588 32.1634 13.0749 31.1398 12.488 30.5485C12.1465 30.2266 11.699 30.0402 11.2297 30.0257Z" fill="#A856F7"/>
<path d="M37.5484 4.01013C38.3651 4.09796 39.0005 4.78923 39.0007 5.62814C39.0007 10.3011 37.6611 18.5191 28.9329 24.599L28.5114 24.8873C28.4994 24.8953 28.4874 24.9034 28.4752 24.9111C26.3271 26.2694 24.0481 27.4085 21.6725 28.312C21.1107 28.5257 20.48 28.4123 20.0298 28.0237L19.9425 27.9417L15.0594 23.0586C14.6042 22.6034 14.4593 21.9222 14.6908 21.3215L15.0418 20.4451C15.8853 18.4111 16.9073 16.4545 18.0953 14.5991C20.1386 11.3376 22.9813 8.65218 26.3537 6.79734C29.7313 4.93969 33.528 3.97653 37.3827 4.00043L37.5484 4.01013ZM35.6774 7.3211C32.9633 7.54148 30.3194 8.33144 27.9224 9.6498C25.2121 11.1405 22.902 13.2583 21.1823 15.822L20.8463 16.3405C20.8433 16.3453 20.8397 16.3498 20.8366 16.3546C19.7859 17.9958 18.8794 19.7243 18.1235 21.519L21.4865 24.8811C23.3014 24.1276 25.0499 23.2221 26.7126 22.1724C33.5926 17.5525 35.3444 11.512 35.6774 7.3211Z" fill="#A856F7"/>
<path d="M19.6118 14.9352L19.96 13.8471C20.8164 14.1208 21.2891 15.0364 21.0155 15.8928C20.7419 16.7492 19.8254 17.2219 18.969 16.9483V16.9474C18.9679 16.947 18.9663 16.9471 18.9646 16.9465C18.9577 16.9444 18.945 16.941 18.9284 16.9359C18.8952 16.9258 18.843 16.9098 18.7741 16.8901C18.6357 16.8504 18.4306 16.7936 18.1745 16.7305C17.6589 16.6033 16.9507 16.453 16.1756 16.3531C15.3941 16.2524 14.5872 16.2088 13.8601 16.2764C13.1204 16.3451 12.5798 16.5172 12.2298 16.7499L12.2306 16.7507C11.5224 17.2246 10.8524 18.3959 10.3428 19.8007C10.2836 19.9641 10.2281 20.1248 10.177 20.2813H16.2091L16.3757 20.2892C17.1965 20.3727 17.8368 21.0662 17.8368 21.909C17.8368 22.7517 17.1965 23.4453 16.3757 23.5288L16.2091 23.5367H8.06966C7.58707 23.5367 7.12951 23.3225 6.82022 22.9521C6.51093 22.5816 6.38133 22.0929 6.46752 21.618L8.06966 21.909C6.54886 21.6329 6.47222 21.6182 6.4684 21.6171V21.6145C6.46866 21.6131 6.46892 21.6112 6.46929 21.6092C6.47004 21.6051 6.47161 21.5997 6.47281 21.5933C6.47523 21.5805 6.47827 21.563 6.48251 21.5413C6.49111 21.4973 6.50325 21.4352 6.51955 21.3579C6.55212 21.2034 6.60126 20.9855 6.6668 20.7213C6.79726 20.1953 6.99856 19.4727 7.28226 18.6906C7.81043 17.2345 8.76828 15.1499 10.4204 14.0447L10.4222 14.0429L10.6056 13.9265C11.5323 13.3647 12.5916 13.125 13.5594 13.0351C14.6054 12.9379 15.6683 13.0042 16.5918 13.1232C17.5218 13.2431 18.3555 13.4218 18.954 13.5694C19.2543 13.6435 19.499 13.7112 19.6717 13.7607C19.7582 13.7855 19.8276 13.8059 19.8763 13.8207C19.9004 13.828 19.9195 13.8339 19.9336 13.8383C19.9407 13.8405 19.9468 13.8422 19.9512 13.8436C19.9533 13.8443 19.955 13.8449 19.9565 13.8454L19.9583 13.8463H19.9592C19.9595 13.8464 19.9595 13.8465 19.6118 14.9352ZM19.4645 15.3973C19.4406 15.472 19.4174 15.543 19.3957 15.6106L19.6118 14.9352C19.5682 15.0714 19.5196 15.2248 19.4645 15.3973Z" fill="#A856F7"/>
<path d="M19.4648 34.9297V26.7902C19.465 25.8913 20.1936 25.1625 21.0926 25.1625C21.9915 25.1625 22.7201 25.8913 22.7203 26.7902V32.8223C22.8767 32.7712 23.0375 32.7158 23.2008 32.6565C24.518 32.1787 25.6296 31.56 26.1538 30.9009L26.2508 30.7687C26.4833 30.4186 26.6564 29.8788 26.7252 29.1392C26.7927 28.4121 26.7492 27.6053 26.6485 26.8237C26.5486 26.0487 26.3982 25.3413 26.2711 24.8257C26.2079 24.5693 26.1512 24.3636 26.1115 24.2252C26.0917 24.1562 26.0757 24.1041 26.0656 24.0709C26.0606 24.0544 26.0572 24.0425 26.055 24.0356L26.0533 24.0304L26.0109 23.869C25.8406 23.0617 26.3059 22.2403 27.1087 21.9838C27.965 21.7104 28.8807 22.183 29.1544 23.0393L27.5655 23.5472C27.5782 23.5431 27.5913 23.539 27.6043 23.5348C29.1547 23.0394 29.1551 23.0398 29.1553 23.0401V23.041L29.1561 23.0428C29.1566 23.0443 29.1572 23.0467 29.1579 23.049C29.1593 23.0533 29.1611 23.0589 29.1632 23.0657C29.1676 23.0799 29.1734 23.0996 29.1808 23.1239C29.1956 23.1726 29.216 23.2412 29.2408 23.3276C29.2904 23.5004 29.358 23.7456 29.4321 24.0462C29.5797 24.6447 29.7576 25.4776 29.8774 26.4075C29.9965 27.3312 30.0637 28.3946 29.9665 29.4408C29.8705 30.4728 29.6043 31.6087 28.9586 32.5771L28.9569 32.5789C27.8516 34.2311 25.767 35.1898 24.3109 35.7179C23.5286 36.0017 22.8053 36.2029 22.2794 36.3334C22.0154 36.3989 21.798 36.4472 21.6436 36.4798C21.5663 36.4961 21.5042 36.5082 21.4602 36.5168C21.4385 36.5211 21.4211 36.525 21.4082 36.5274L21.3871 36.5309H21.3844V36.5318C21.3841 36.5319 21.3833 36.5314 21.0926 34.9297L21.3835 36.5318C20.9088 36.618 20.4199 36.4891 20.0494 36.18C19.679 35.8707 19.4648 35.4123 19.4648 34.9297Z" fill="#A856F7"/>
</svg>
