<svg width="35" height="35" viewBox="0 0 35 35" fill="none" xmlns="http://www.w3.org/2000/svg">
<g clip-path="url(#clip0_182_738)">
<path d="M9.63829 28.8662C7.83251 29.9031 5.79704 30.275 4.59173 30.4084C4.72516 29.2031 5.09704 27.1676 6.13282 25.3607C6.19901 25.2485 6.24228 25.1243 6.26011 24.9953C6.27794 24.8663 6.26999 24.735 6.23671 24.609C6.20343 24.4831 6.14549 24.365 6.06624 24.2616C5.98699 24.1583 5.88801 24.0716 5.77504 24.0068C5.66207 23.9419 5.53735 23.9002 5.40811 23.8839C5.27887 23.8676 5.14769 23.8771 5.02216 23.9119C4.89663 23.9467 4.77925 24.006 4.67682 24.0865C4.5744 24.167 4.48897 24.267 4.42548 24.3807C2.57048 27.616 2.5486 31.3107 2.5486 31.4671C2.5486 31.7282 2.65231 31.9786 2.83692 32.1632C3.02152 32.3478 3.2719 32.4515 3.53297 32.4515C3.68938 32.4515 7.38407 32.4296 10.6194 30.5746C10.7316 30.5102 10.83 30.4243 10.9089 30.3219C10.9879 30.2194 11.046 30.1024 11.0797 29.9776C11.1135 29.8527 11.1223 29.7224 11.1058 29.5941C11.0892 29.4658 11.0475 29.3421 10.9831 29.2299C10.9186 29.1177 10.8328 29.0193 10.7303 28.9403C10.6279 28.8613 10.5109 28.8033 10.386 28.7695C10.2611 28.7358 10.1308 28.7269 10.0025 28.7435C9.87423 28.7601 9.75047 28.8018 9.63829 28.8662ZM33.8069 3.58198C33.8143 3.26583 33.7572 2.95149 33.6391 2.65813C33.521 2.36477 33.3444 2.09856 33.12 1.87573C32.6661 1.42183 32.0098 1.19761 31.417 1.19214C28.6914 1.24354 21.3392 2.02558 14.383 8.26979C13.1427 7.78745 11.2734 7.07104 9.85485 7.2537C7.76797 7.52167 4.68469 10.361 1.66485 13.3907C1.46853 13.586 1.32615 13.8287 1.25159 14.0954C1.17702 14.362 1.17282 14.6434 1.23938 14.9121C1.37282 15.4656 1.77751 15.8998 2.32001 16.0737L7.12157 17.6159C6.74963 18.2899 6.39513 18.9733 6.05844 19.6656C5.84728 20.1043 5.77784 20.5978 5.85976 21.0778C5.94168 21.5578 6.1709 22.0003 6.51563 22.3442L12.6549 28.4834C12.9991 28.8278 13.4418 29.0569 13.9218 29.139C14.4018 29.2211 14.8954 29.1521 15.3345 28.9417C16.0477 28.5971 16.7236 28.2406 17.382 27.8796L18.9253 32.6801C19.0288 33.0091 19.2351 33.2962 19.5139 33.4991C19.7927 33.7021 20.1292 33.8103 20.4741 33.8078C20.8952 33.8078 21.3009 33.6426 21.6094 33.3353C24.6391 30.3154 27.4784 27.2332 27.7453 25.1475C27.9302 23.7157 27.2116 21.8575 26.7292 20.6171C32.9723 13.6609 33.7555 6.3087 33.8069 3.58198ZM3.46516 14.3751C5.06751 12.7793 8.54782 9.4073 10.1053 9.20714C10.7999 9.11855 11.8903 9.44776 12.8113 9.78136C11.1849 11.4625 9.60547 13.4771 8.13329 15.8735L3.46516 14.3751ZM14.4781 27.1687C14.4071 27.2015 14.3277 27.2118 14.2506 27.1981C14.1736 27.1844 14.1026 27.1474 14.0472 27.0921L7.90688 20.9518C7.85165 20.8964 7.81478 20.8253 7.80128 20.7482C7.78779 20.6712 7.7983 20.5918 7.83141 20.5209C15.4778 4.68229 27.8459 3.22979 31.4553 3.16198H31.4641C31.5942 3.16198 31.6795 3.21995 31.7298 3.27026C31.7659 3.30638 31.7943 3.34942 31.8132 3.39679C31.8322 3.44416 31.8414 3.49487 31.8403 3.54589C31.7703 7.15526 30.3167 19.5234 14.4781 27.1687ZM25.793 24.8959C25.5928 26.4523 22.2208 29.9337 20.625 31.535L19.1244 26.8679C21.523 25.3957 23.5377 23.8153 25.2188 22.1889C25.5534 23.1087 25.8827 24.197 25.793 24.8959Z" fill="#3C83F6" stroke="#3C83F6" stroke-width="0.5"/>
<path d="M26.3904 14.4528C27.1637 13.6772 27.5979 12.6266 27.5979 11.5314C27.5979 10.4361 27.1637 9.38556 26.3904 8.60995C24.8285 7.05026 22.1073 7.05026 20.5476 8.60995C19.7677 9.38979 19.3379 10.4278 19.3379 11.5314C19.3379 12.635 19.7688 13.6729 20.5476 14.4528C21.3274 15.2326 22.3654 15.6625 23.469 15.6625C24.5726 15.6625 25.6095 15.2326 26.3904 14.4528ZM24.997 13.0604C24.1799 13.8785 22.7548 13.8785 21.9399 13.0604C21.5309 12.6525 21.3055 12.1089 21.3055 11.5314C21.3055 10.9539 21.5309 10.4114 21.9399 10.0023C22.1401 9.80096 22.3782 9.64131 22.6405 9.53261C22.9028 9.42391 23.184 9.3683 23.4679 9.36901C23.8953 9.36951 24.3131 9.49663 24.6683 9.73432C25.0236 9.972 25.3005 10.3096 25.4641 10.7045C25.6277 11.0994 25.6706 11.534 25.5875 11.9533C25.5043 12.3725 25.2989 12.7578 24.997 13.0604Z" fill="#3C83F6" stroke="#3C83F6" stroke-width="0.5"/>
</g>
<defs>
<clipPath id="clip0_182_738">
<rect width="35" height="35" fill="white"/>
</clipPath>
</defs>
</svg>
