<svg width="32" height="32" viewBox="0 0 32 32" fill="none" xmlns="http://www.w3.org/2000/svg">
<path d="M30.7372 22.8293L27.6633 21.2923L25.7069 16.2034C25.6838 16.1432 25.6487 16.0885 25.6035 16.0425C25.5584 15.9965 25.5042 15.9604 25.4445 15.9363L13.3055 11.084C13.2207 11.0502 13.1278 11.042 13.0383 11.0603C12.9488 11.0786 12.8666 11.1227 12.8018 11.1871L11.1828 12.8061C11.1193 12.8709 11.0759 12.9528 11.058 13.0418C11.0401 13.1308 11.0485 13.2231 11.0821 13.3075L15.9344 25.4464C15.9584 25.5062 15.9946 25.5603 16.0406 25.6055C16.0865 25.6506 16.1413 25.6858 16.2015 25.7088L21.2904 27.6652L22.8274 30.7392C22.8597 30.807 22.9079 30.866 22.9679 30.9112C23.0278 30.9565 23.0977 30.9867 23.1718 30.9992C23.1967 31.0016 23.2218 31.0016 23.2468 30.9992C23.3708 30.9987 23.4896 30.949 23.5771 30.861L30.8591 23.5791C30.9127 23.5273 30.9532 23.4636 30.9772 23.3931C31.0012 23.3226 31.0081 23.2474 30.9973 23.1737C30.9847 23.0997 30.9545 23.0297 30.9093 22.9698C30.864 22.9099 30.805 22.8617 30.7372 22.8293ZM12.0638 13.2466L12.3238 12.9888L18.3664 19.0314C17.9681 19.5956 17.7961 20.2888 17.8844 20.9738C17.9727 21.6588 18.3147 22.2857 18.843 22.7306C19.3712 23.1756 20.0472 23.4061 20.7372 23.3766C21.4272 23.3471 22.0811 23.0597 22.5694 22.5714C23.0578 22.083 23.3451 21.4292 23.3746 20.7392C23.4041 20.0491 23.1736 19.3732 22.7287 18.8449C22.2838 18.3167 21.6568 17.9746 20.9719 17.8863C20.2869 17.7981 19.5937 17.9701 19.0294 18.3683L12.9869 12.3258L13.2446 12.0657L24.9056 16.7306L26.7448 21.5149L21.513 26.7468L16.7286 24.9075L12.0638 13.2466ZM20.6179 18.7994C21.0391 18.8 21.447 18.9467 21.7722 19.2143C22.0973 19.4819 22.3196 19.854 22.4012 20.2672C22.4828 20.6804 22.4186 21.109 22.2196 21.4802C22.0206 21.8513 21.6991 22.142 21.3098 22.3027C20.9205 22.4634 20.4875 22.4841 20.0847 22.3613C19.6818 22.2386 19.334 21.98 19.1004 21.6295C18.8668 21.2791 18.762 20.8585 18.8037 20.4394C18.8455 20.0204 19.0312 19.6287 19.3293 19.3313C19.6714 18.9902 20.1349 18.7989 20.6179 18.7994ZM23.3756 29.7387L22.2041 27.3958L27.3891 22.2108L29.7321 23.3823L23.3756 29.7387Z" fill="#A856F7" stroke="#A856F7" stroke-width="0.8"/>
<path d="M9.96879 26.077C9.87918 25.9923 9.76055 25.9452 9.63726 25.9452C9.51396 25.9452 9.39533 25.9923 9.30573 26.077L8.71061 26.6721C7.1225 24.5167 6.24639 21.9196 6.20439 19.2426C6.1624 16.5656 6.9566 13.9422 8.47631 11.7381C8.93162 11.9886 9.45586 12.0848 9.97047 12.0124C10.4851 11.9399 10.9623 11.7026 11.3307 11.336C11.6991 10.9695 11.9388 10.4934 12.0139 9.97919C12.0889 9.46496 11.9953 8.94024 11.7471 8.48368C13.9513 6.96397 16.5747 6.16976 19.2516 6.21176C21.9286 6.25376 24.5258 7.12987 26.6812 8.71798L26.0767 9.30606C25.9896 9.39392 25.9407 9.51268 25.9408 9.63642C25.9404 9.69809 25.9523 9.75923 25.9756 9.81632C25.9989 9.87341 26.0333 9.92534 26.0767 9.96913L28.1432 12.0192C28.231 12.1065 28.3498 12.1555 28.4735 12.1555C28.5973 12.1555 28.7161 12.1065 28.8039 12.0192L30.8587 9.96444C30.9023 9.92092 30.9368 9.86924 30.9604 9.81235C30.984 9.75547 30.9961 9.69449 30.9961 9.63291C30.9961 9.57133 30.984 9.51035 30.9604 9.45347C30.9368 9.39658 30.9023 9.3449 30.8587 9.30138L28.8039 7.2466C28.7161 7.15932 28.5973 7.11033 28.4735 7.11033C28.3498 7.11033 28.231 7.15932 28.1432 7.2466L27.3489 8.03618C25.3914 6.56314 23.0771 5.63767 20.6436 5.3548C18.2101 5.07192 15.7452 5.44184 13.502 6.42656L16.2034 3.73214C16.5097 3.8785 16.858 3.91163 17.1864 3.82565C17.5148 3.73968 17.8021 3.54015 17.9974 3.26247C18.1927 2.98479 18.2833 2.64691 18.2532 2.30878C18.2231 1.97064 18.0741 1.6541 17.8328 1.41533C17.5915 1.17655 17.2734 1.03097 16.935 1.0044C16.5966 0.977844 16.2597 1.07202 15.9841 1.27023C15.7085 1.46844 15.512 1.75786 15.4295 2.08716C15.347 2.41646 15.3838 2.76434 15.5333 3.06908L10.9739 7.63553C10.511 7.32499 9.95459 7.18482 9.39979 7.23896C8.84498 7.2931 8.32618 7.53818 7.93201 7.93235C7.53784 8.32652 7.29276 8.84532 7.23862 9.40013C7.18448 9.95493 7.32465 10.5113 7.63519 10.9743L3.06874 15.5337C2.76281 15.3846 2.41392 15.3488 2.08409 15.4327C1.75426 15.5165 1.46484 15.7146 1.26726 15.9917C1.06968 16.2688 0.976741 16.607 1.00495 16.9462C1.03317 17.2853 1.18071 17.6035 1.42135 17.8441C1.662 18.0848 1.98017 18.2323 2.31933 18.2605C2.65848 18.2887 2.99666 18.1958 3.27376 17.9982C3.55086 17.8006 3.74894 17.5112 3.83281 17.1814C3.91667 16.8516 3.88088 16.5027 3.7318 16.1967L6.43325 13.5023C5.44754 15.745 5.07646 18.2095 5.3581 20.643C5.63974 23.0764 6.56395 25.3911 8.03584 27.3493L7.24391 28.1435C7.15664 28.2313 7.10765 28.3501 7.10765 28.4739C7.10765 28.5977 7.15664 28.7165 7.24391 28.8042L9.2987 30.859C9.38617 30.947 9.50498 30.9967 9.62906 30.9973C9.69089 30.9973 9.75212 30.9851 9.80922 30.9614C9.86632 30.9377 9.91816 30.9029 9.96176 30.859L12.0189 28.8042C12.1062 28.7165 12.1551 28.5977 12.1551 28.4739C12.1551 28.3501 12.1062 28.2313 12.0189 28.1435L9.96879 26.077ZM28.4782 8.23533L29.87 9.62705L28.4782 11.0188L27.0865 9.62705L28.4782 8.23533ZM16.4705 2.09207C16.5402 2.02187 16.6291 1.97393 16.726 1.95435C16.8229 1.93476 16.9235 1.94441 17.0149 1.98206C17.1063 2.01971 17.1845 2.08367 17.2395 2.16583C17.2945 2.24799 17.3239 2.34463 17.3239 2.44351C17.3239 2.54239 17.2945 2.63903 17.2395 2.72119C17.1845 2.80335 17.1063 2.86731 17.0149 2.90496C16.9235 2.94261 16.8229 2.95226 16.726 2.93267C16.6291 2.91309 16.5402 2.86516 16.4705 2.79496C16.4243 2.74882 16.3877 2.69404 16.3627 2.63374C16.3377 2.57343 16.3248 2.50879 16.3248 2.44351C16.3248 2.37823 16.3377 2.31359 16.3627 2.25329C16.3877 2.19298 16.4243 2.1382 16.4705 2.09207ZM8.59815 8.59849C8.73422 8.46177 8.89596 8.35327 9.07408 8.27924C9.2522 8.20521 9.44319 8.1671 9.63609 8.1671C9.82898 8.1671 10.02 8.20521 10.1981 8.27924C10.3762 8.35327 10.538 8.46177 10.674 8.59849C10.8797 8.80384 11.0199 9.0656 11.0767 9.35063C11.1336 9.63566 11.1046 9.93115 10.9935 10.1997C10.8824 10.4683 10.6941 10.6979 10.4525 10.8594C10.2109 11.0209 9.92673 11.1071 9.63609 11.1071C9.34544 11.1071 9.06132 11.0209 8.81968 10.8594C8.57805 10.6979 8.38976 10.4683 8.27864 10.1997C8.16752 9.93115 8.13857 9.63566 8.19544 9.35063C8.25232 9.0656 8.39247 8.80384 8.59815 8.59849ZM2.79696 17.1738C2.70129 17.2535 2.57925 17.2946 2.45481 17.289C2.33037 17.2834 2.21254 17.2314 2.12446 17.1434C2.03638 17.0553 1.98442 16.9374 1.9788 16.813C1.97317 16.6886 2.01429 16.5665 2.09407 16.4709C2.18784 16.3787 2.31405 16.3271 2.44551 16.3271C2.57698 16.3271 2.70319 16.3787 2.79696 16.4709C2.84315 16.517 2.87979 16.5718 2.90479 16.6321C2.92979 16.6924 2.94266 16.757 2.94266 16.8223C2.94266 16.8876 2.92979 16.9522 2.90479 17.0125C2.87979 17.0728 2.84315 17.1276 2.79696 17.1738ZM9.63609 29.8562L8.24436 28.4645L9.63609 27.0728L11.0278 28.4645L9.63609 29.8562Z" fill="#A856F7" stroke="#A856F7" stroke-width="0.8"/>
</svg>
