<svg width="44" height="44" viewBox="0 0 44 44" fill="none" xmlns="http://www.w3.org/2000/svg">
<path d="M25.233 4.18895C27.5656 3.76394 29.9725 4.05979 32.1327 5.0373L32.3125 5.13216C32.7159 5.37782 32.9991 5.78603 33.0849 6.25696C33.1706 6.72782 33.0496 7.20936 32.7588 7.58143L32.6242 7.73321L26.3542 14.0032L28.9959 16.6449L35.2659 10.3758L35.4186 10.2412C35.7907 9.95037 36.2721 9.8293 36.743 9.91506C37.2812 10.0131 37.7372 10.3689 37.9627 10.8673C38.9402 13.0274 39.2361 15.4344 38.811 17.767C38.386 20.0995 37.2604 22.2475 35.5839 23.924C33.9073 25.6006 31.7594 26.7262 29.4269 27.1512C27.4816 27.5056 25.4854 27.3566 23.6231 26.7311L12.8783 37.4768C11.9639 38.3912 10.7441 38.9299 9.45868 38.9937L9.20029 39C7.82108 38.9999 6.4985 38.452 5.52323 37.4768C4.54784 36.5014 4 35.1782 4 33.7988C4.00009 32.4195 4.54795 31.097 5.52323 30.1217L16.268 19.3751C15.643 17.5133 15.4945 15.5178 15.8488 13.5731C16.2738 11.2406 17.3994 9.09266 19.076 7.4161C20.7525 5.73955 22.9004 4.61398 25.233 4.18895ZM7.33194 33.7988C7.33194 34.2943 7.52904 34.7702 7.87944 35.1206C8.22973 35.4708 8.70493 35.667 9.20029 35.6672L9.3855 35.6581C9.81315 35.6156 10.2155 35.4271 10.522 35.1206L22.0357 23.606L22.1305 23.5184C22.6186 23.1004 23.3089 22.9982 23.9013 23.2663C25.4443 23.9645 27.1635 24.1761 28.8297 23.8725C30.4957 23.5689 32.0293 22.7644 33.2268 21.5669C34.4242 20.3695 35.2288 18.8358 35.5324 17.1698C35.6792 16.3641 35.7046 15.5458 35.6137 14.7413L31.3413 19.0147C31.3373 19.0186 31.3326 19.0225 31.3286 19.0264C30.7057 19.6368 29.868 19.9786 28.9959 19.9786C28.1782 19.9786 27.3909 19.6782 26.7824 19.1375L26.6632 19.0264L23.9736 16.3368C23.363 15.7139 23.0214 14.8755 23.0214 14.0032C23.0215 13.131 23.3631 12.2933 23.9736 11.6705L23.9853 11.6587L24.0025 11.6425L28.2578 7.38538C27.4535 7.29465 26.6356 7.32085 25.8302 7.46759C24.1643 7.77118 22.6305 8.57503 21.4331 9.77231C20.2356 10.9698 19.4311 12.5042 19.1275 14.1703C18.8239 15.8365 19.0355 17.5557 19.7337 19.0987C20.0196 19.7305 19.8844 20.4739 19.394 20.9643L7.87944 32.478C7.52914 32.8283 7.33203 33.3034 7.33194 33.7988Z" fill="#3C83F6"/>
</svg>
