<svg width="44" height="44" viewBox="0 0 44 44" fill="none" xmlns="http://www.w3.org/2000/svg">
<path d="M22.3604 6.41806C22.3604 6.17458 22.2637 5.94106 22.0915 5.76889C21.9193 5.59672 21.6858 5.5 21.4423 5.5C16.3801 5.5 12.2617 9.61843 12.2617 14.6806C12.2617 14.9241 12.3584 15.1576 12.5306 15.3298C12.7028 15.502 12.9363 15.5987 13.1798 15.5987C13.4233 15.5987 13.6568 15.502 13.829 15.3298C14.0011 15.1576 14.0978 14.9241 14.0978 14.6806C14.0978 10.6311 17.3928 7.33613 21.4423 7.33613C21.6858 7.33613 21.9193 7.2394 22.0915 7.06723C22.2637 6.89506 22.3604 6.66155 22.3604 6.41806Z" fill="#3C83F6" stroke="#3C83F6" stroke-width="0.5"/>
<path d="M19.8316 42H23.0521C23.7822 41.9988 24.482 41.7082 24.9983 41.192C25.5145 40.6757 25.8051 39.9759 25.8063 39.2458V38.2369C26.2857 38.0182 26.6923 37.6666 26.9779 37.2239C27.2634 36.7811 27.416 36.2657 27.4175 35.7388V32.3236C27.5791 31.9729 27.6755 31.5873 27.6755 31.176C27.6755 30.2433 27.883 29.3399 28.2915 28.4889C28.7007 27.6399 29.2837 26.8864 30.0028 26.2773C33.4419 23.3716 35.244 18.9429 34.8226 14.426C34.18 7.65527 28.5679 2.31765 21.7264 2.00918L21.4419 2L21.1169 2.0101C14.3158 2.31765 8.70373 7.65527 8.06016 14.4278C7.63969 18.9419 9.44185 23.3716 12.8809 26.2763C13.5998 26.886 14.1828 27.6398 14.5922 28.4889C15.0007 29.3399 15.2082 30.2433 15.2082 31.176C15.2082 31.5864 15.3046 31.9729 15.4662 32.3236V35.7397C15.4662 36.8497 16.129 37.8026 17.0774 38.2378V39.2476C17.0791 39.9774 17.3699 40.6768 17.886 41.1926C18.4022 41.7085 19.1018 41.9988 19.8316 42ZM23.9702 39.2458C23.9702 39.7526 23.558 40.1639 23.0521 40.1639H19.8316C19.3257 40.1639 18.9135 39.7517 18.9135 39.2458V38.493H23.9702V39.2458ZM25.5814 35.7397C25.5814 36.2456 25.1701 36.6578 24.6633 36.6578H18.2204C17.7136 36.6578 17.3023 36.2456 17.3023 35.7397V33.8412C17.5153 33.8944 17.7338 33.9302 17.9624 33.9302H24.9213C25.1499 33.9302 25.3684 33.8944 25.5814 33.8412V35.7397ZM17.0443 31.176C17.0453 29.97 16.7729 28.7794 16.2474 27.6938C15.7252 26.612 14.9821 25.6516 14.0661 24.8745C11.0852 22.3571 9.52356 18.516 9.88803 14.6004C10.4453 8.73491 15.3074 4.11063 21.1573 3.84531L21.4419 3.83613L21.6851 3.84439C27.5763 4.11063 32.4384 8.73491 32.9948 14.5986C33.3601 18.516 31.7985 22.3571 28.8176 24.8745C27.9016 25.6516 27.1585 26.612 26.6363 27.6938C26.1108 28.7794 25.8384 29.97 25.8394 31.176C25.8394 31.6819 25.4281 32.0941 24.9213 32.0941H17.9624C17.4556 32.0941 17.0443 31.6819 17.0443 31.176Z" fill="#3C83F6" stroke="#3C83F6" stroke-width="0.5"/>
</svg>
