<svg width="44" height="44" viewBox="0 0 44 44" fill="none" xmlns="http://www.w3.org/2000/svg">
<path fill-rule="evenodd" clip-rule="evenodd" d="M31.8161 9.34842L33.811 7.35346L33.8136 4L36.4062 4.00259L36.4049 6.59514L39 6.59643L38.9974 9.18898L35.644 9.18639L33.6503 11.1813C39.3318 17.8001 39.0389 27.797 32.7688 34.067C26.1915 40.6443 15.5102 40.6443 8.93296 34.067C2.35568 27.4897 2.35568 16.8085 8.93296 10.2312C15.2017 3.96241 25.1973 3.66815 31.8161 9.34842ZM31.8109 13.0208L29.0446 15.7883C30.5922 17.7848 31.3587 20.277 31.2005 22.7981C31.0423 25.3192 29.9702 27.6961 28.1852 29.4834C26.2391 31.4269 23.6012 32.5185 20.8509 32.5185C18.1006 32.5185 15.4627 31.4269 13.5166 29.4834C11.5731 27.5373 10.4815 24.8994 10.4815 22.1491C10.4815 19.3988 11.5731 16.7609 13.5166 14.8148C17.2537 11.0776 23.144 10.7912 27.2104 13.9541L29.9766 11.1878C24.3755 6.51606 16.0223 6.80773 10.7659 12.0641C5.1997 17.6303 5.1997 26.6679 10.7659 32.2341C16.3321 37.8003 25.3697 37.8003 30.9359 32.2341C36.1936 26.9764 36.4839 18.622 31.8109 13.0208ZM27.1923 17.6407L24.3612 20.4717C24.7073 21.1979 24.8201 22.0134 24.6841 22.8063C24.5481 23.5992 24.1699 24.3305 23.6016 24.8998C22.0836 26.4177 19.6181 26.4177 18.1002 24.8998C16.5823 23.3819 16.5823 20.9164 18.1002 19.3984C18.6695 18.8301 19.4008 18.4519 20.1937 18.3159C20.9866 18.1799 21.8021 18.2927 22.5283 18.6388L25.358 15.8077C23.8591 14.7437 22.032 14.2443 20.2002 14.398C18.3684 14.5517 16.6501 15.3487 15.3495 16.6477C13.8914 18.1073 13.0724 20.086 13.0724 22.1491C13.0724 24.2122 13.8914 26.1909 15.3495 27.6505C16.8091 29.1086 18.7878 29.9276 20.8509 29.9276C22.914 29.9276 24.8927 29.1086 26.3523 27.6505C27.6512 26.3495 28.448 24.631 28.6017 22.7991C28.7555 20.9672 28.2562 19.1399 27.1923 17.6407ZM21.7674 21.2326C21.647 21.1123 21.5041 21.0168 21.3469 20.9517C21.1896 20.8866 21.0211 20.853 20.8509 20.853C20.6807 20.853 20.5122 20.8866 20.3549 20.9517C20.1977 21.0168 20.0548 21.1123 19.9344 21.2326C19.8141 21.353 19.7186 21.4959 19.6535 21.6531C19.5883 21.8104 19.5548 21.9789 19.5548 22.1491C19.5548 22.3193 19.5883 22.4878 19.6535 22.6451C19.7186 22.8023 19.8141 22.9452 19.9344 23.0656C20.0548 23.1859 20.1977 23.2814 20.3549 23.3465C20.5122 23.4117 20.6807 23.4452 20.8509 23.4452C21.0211 23.4452 21.1896 23.4117 21.3469 23.3465C21.5041 23.2814 21.647 23.1859 21.7674 23.0656C21.8877 22.9452 21.9832 22.8023 22.0483 22.6451C22.1134 22.4878 22.147 22.3193 22.147 22.1491C22.147 21.9789 22.1134 21.8104 22.0483 21.6531C21.9832 21.4959 21.8877 21.353 21.7674 21.2326Z" fill="#3C83F6"/>
</svg>
