<svg width="44" height="44" viewBox="0 0 44 44" fill="none" xmlns="http://www.w3.org/2000/svg">
<path d="M38.4865 36.0135C39.1699 36.6969 39.17 37.8051 38.4865 38.4885C37.8031 39.1719 36.695 39.1719 36.0116 38.4885L38.4865 36.0135ZM28.417 28.4189C29.0577 27.7782 30.0709 27.738 30.7583 28.2985L30.891 28.4189L38.4865 36.0135L36.0116 38.4885L28.417 30.893L28.2966 30.7603C27.736 30.0729 27.7763 29.0596 28.417 28.4189Z" fill="#3C83F6"/>
<path d="M32.0001 19.7494C31.9998 12.9841 26.5148 7.49966 19.7494 7.49966C12.9843 7.49991 7.49991 12.9843 7.49966 19.7494C7.49966 26.5148 12.9841 31.9998 19.7494 32.0001C26.5149 32.0001 32.0001 26.5149 32.0001 19.7494ZM35.4998 19.7494C35.4998 28.4479 28.4479 35.4998 19.7494 35.4998C11.0511 35.4995 4 28.4478 4 19.7494C4.00025 11.0513 11.0513 4.00025 19.7494 4C28.4478 4 35.4995 11.0511 35.4998 19.7494Z" fill="#3C83F6"/>
</svg>
