<svg width="36" height="35" viewBox="0 0 36 35" fill="none" xmlns="http://www.w3.org/2000/svg">
<path d="M20.3954 10.8923C21.0828 10.3317 22.097 10.372 22.7377 11.0127C23.4206 11.696 23.4206 12.8034 22.7377 13.4867L15.7375 20.487C15.0967 21.1277 14.0826 21.168 13.3952 20.6074L13.2625 20.487L9.76284 16.9873L9.64246 16.8546C9.08158 16.1673 9.12204 15.1532 9.76284 14.5124C10.4035 13.8719 11.4169 13.8316 12.1042 14.392L12.2369 14.5124L14.4995 16.7741L20.2627 11.0127L20.3954 10.8923Z" fill="#3C83F6"/>
<path d="M28.5 15.7494C28.4998 8.98409 23.0147 3.49965 16.2494 3.49965C9.48425 3.4999 3.9999 8.98425 3.99965 15.7494C3.99965 22.5147 9.48409 27.9998 16.2494 28C23.0149 28 28.5 22.5149 28.5 15.7494ZM31.9997 15.7494C31.9997 24.4479 24.9479 31.4997 16.2494 31.4997C7.55109 31.4994 0.5 24.4477 0.5 15.7494C0.500253 7.05125 7.55125 0.000252633 16.2494 0C24.9477 0 31.9994 7.05109 31.9997 15.7494Z" fill="#3C83F6"/>
<path d="M24.9873 24.4892C25.628 23.8486 26.6413 23.8083 27.3286 24.3689L27.4613 24.4892L34.9867 32.0137L35.1071 32.1464C35.6678 32.8337 35.6274 33.8479 34.9867 34.4887C34.346 35.1294 33.3318 35.1697 32.6444 34.609L32.5117 34.4887L24.9873 26.9633L24.8669 26.8306C24.3063 26.1432 24.3466 25.1299 24.9873 24.4892Z" fill="#3C83F6"/>
</svg>
