<svg width="44" height="44" viewBox="0 0 44 44" fill="none" xmlns="http://www.w3.org/2000/svg">
<path d="M22.2852 27.4531L22.425 27.4598C23.1126 27.5296 23.6488 28.1107 23.6488 28.8168C23.6488 29.5228 23.1126 30.1039 22.425 30.1737L22.2852 30.1804H22.2718C21.5187 30.1804 20.9082 29.5699 20.9082 28.8168C20.9082 28.0636 21.5187 27.4531 22.2718 27.4531H22.2852Z" fill="#A856F7"/>
<path d="M10 32.9091V11.0909C10 10.0059 10.4313 8.9657 11.1985 8.19851C11.9657 7.43131 13.0059 7 14.0909 7H26.3636L26.4981 7.00666C26.8104 7.0376 27.1039 7.17567 27.3278 7.3995L34.146 14.2177C34.4017 14.4734 34.5455 14.8202 34.5455 15.1818V32.9091C34.5455 33.9941 34.1141 35.0343 33.3469 35.8015C32.5798 36.5687 31.5395 37 30.4545 37H14.0909C13.0059 37 11.9657 36.5687 11.1985 35.8015C10.4313 35.0343 10 33.9941 10 32.9091ZM12.7273 32.9091C12.7273 33.2707 12.871 33.6175 13.1268 33.8732C13.3825 34.129 13.7293 34.2727 14.0909 34.2727H30.4545C30.8162 34.2727 31.1629 34.129 31.4187 33.8732C31.6744 33.6175 31.8182 33.2707 31.8182 32.9091V15.7464L25.799 9.72727H14.0909C13.7293 9.72727 13.3825 9.87104 13.1268 10.1268C12.871 10.3825 12.7273 10.7293 12.7273 11.0909V32.9091Z" fill="#A856F7"/>
<path d="M19.4247 14.5895C20.5307 13.947 21.8276 13.7138 23.0882 13.9303C24.3487 14.1469 25.4933 14.8 26.3215 15.7747C27.1496 16.7495 27.6099 17.9846 27.6199 19.2637V19.2743L27.6012 19.6578C27.4271 21.5317 26.0031 22.7864 24.9672 23.4771C24.3733 23.873 23.7889 24.1647 23.3585 24.356C23.1413 24.4525 22.9576 24.5255 22.8258 24.5757C22.7599 24.6008 22.7063 24.6205 22.6673 24.6343C22.6483 24.6411 22.6326 24.6462 22.6207 24.6503C22.6147 24.6524 22.6088 24.6542 22.6048 24.6556C22.6029 24.6563 22.6009 24.6578 22.5994 24.6583H22.5968C22.5942 24.6517 22.5643 24.5622 22.1653 23.3652L21.9616 22.7553L22.5954 24.6596C21.8812 24.8972 21.109 24.5109 20.8709 23.7967C20.6329 23.0826 21.0188 22.3108 21.7325 22.0722C21.736 22.071 21.7433 22.0679 21.7538 22.0642C21.7748 22.0567 21.8092 22.0443 21.855 22.0269C21.947 21.9919 22.0842 21.937 22.2505 21.8631C22.5871 21.7135 23.0259 21.4936 23.4544 21.2079C24.3894 20.5845 24.8872 19.9214 24.8926 19.285L24.8793 19.0466C24.8263 18.4933 24.6063 17.967 24.2441 17.5405C23.8301 17.0532 23.2575 16.7274 22.6274 16.6189C21.9971 16.5106 21.3481 16.6266 20.795 16.9479C20.2422 17.269 19.8201 17.7745 19.6018 18.3754C19.345 19.0832 18.5625 19.4497 17.8547 19.1931C17.1468 18.9362 16.7804 18.1538 17.037 17.4459C17.4733 16.2435 18.3187 15.232 19.4247 14.5895Z" fill="#A856F7"/>
</svg>
