<svg width="45" height="44" viewBox="0 0 45 44" fill="none" xmlns="http://www.w3.org/2000/svg">
<path d="M21.0625 37.8867V13.3865C21.0625 12.42 21.8458 11.6367 22.8123 11.6367C23.7788 11.6367 24.5621 12.42 24.5621 13.3865V37.8867C24.5619 38.853 23.7787 39.6365 22.8123 39.6365C21.8459 39.6365 21.0627 38.853 21.0625 37.8867Z" fill="#3C83F6"/>
<path d="M39.2079 17.279C39.8952 16.7184 40.9094 16.7587 41.5501 17.3994C42.233 18.0827 42.233 19.1901 41.5501 19.8734L34.5499 26.8736C33.9092 27.5143 32.895 27.5546 32.2077 26.994L32.075 26.8736L28.5753 23.374L28.455 23.2413C27.8941 22.5539 27.9345 21.5398 28.5753 20.899C29.216 20.2586 30.2293 20.2183 30.9166 20.7787L31.0493 20.899L33.312 23.1607L39.0751 17.3994L39.2079 17.279Z" fill="#3C83F6"/>
<path d="M38.5625 11.6369V8.13634H29.8125C28.4202 8.13634 27.0842 8.6893 26.0996 9.67382C25.1766 10.5968 24.6332 11.8285 24.5688 13.126L24.5621 13.3867L24.5536 13.5659C24.4638 14.4481 23.7182 15.1365 22.8123 15.1365C21.8459 15.1365 21.0626 14.3531 21.0625 13.3867C21.0625 11.9943 20.5086 10.6584 19.5241 9.67382C18.5396 8.68952 17.2043 8.13634 15.8121 8.13634H7.06212V30.8867H17.5619L17.9089 30.8953C19.6392 30.981 21.281 31.7062 22.5118 32.937C22.6159 33.0411 22.7156 33.1486 22.8123 33.2583C22.909 33.1486 23.0088 33.0411 23.1128 32.937C24.4254 31.6244 26.2054 30.8868 28.0617 30.8867H38.5625V28.6118C38.5625 27.6453 39.3458 26.861 40.3123 26.861C41.2787 26.8612 42.0621 27.6454 42.0621 28.6118V30.8867C42.062 31.8148 41.6928 32.7054 41.0365 33.3617C40.3803 34.0177 39.4904 34.3862 38.5625 34.3863H28.0617C27.1338 34.3864 26.244 34.755 25.5877 35.411C24.9725 36.0263 24.6098 36.8475 24.5669 37.7125L24.5621 37.886L24.5536 38.0651C24.4641 38.9476 23.7184 39.6367 22.8123 39.6367C21.8458 39.6367 21.0625 38.8525 21.0625 37.886C21.0624 36.9578 20.6932 36.0673 20.0369 35.411C19.4215 34.7958 18.6004 34.4339 17.7354 34.3911L17.5619 34.3863H7.06212C6.13398 34.3863 5.2435 34.0179 4.58717 33.3617C3.97188 32.7464 3.60927 31.9251 3.56629 31.0602L3.5625 30.8867V8.13634C3.56255 7.20815 3.93084 6.31772 4.58717 5.66139C5.2435 5.00506 6.13393 4.63677 7.06212 4.63672H15.8121C18.1326 4.63672 20.3581 5.5582 21.999 7.19887C22.2939 7.49372 22.5651 7.80848 22.8123 8.13824C23.0595 7.80853 23.3298 7.49368 23.6247 7.19887C25.2656 5.55798 27.4919 4.63672 29.8125 4.63672H38.5625L38.736 4.64051C39.6007 4.68349 40.4213 5.04633 41.0365 5.66139C41.6928 6.31772 42.0621 7.20816 42.0621 8.13634V11.6369C42.0619 12.6031 41.2785 13.3866 40.3123 13.3867C39.346 13.3867 38.5627 12.6032 38.5625 11.6369Z" fill="#3C83F6"/>
</svg>
