<svg width="44" height="44" viewBox="0 0 44 44" fill="none" xmlns="http://www.w3.org/2000/svg">
<path d="M36.4961 26.0619C36.496 24.5537 35.8969 23.1075 34.8305 22.041C33.8305 21.041 32.4967 20.4519 31.0909 20.3822L30.8087 20.3745H27.9003C27.1817 20.3744 26.5488 19.9026 26.3435 19.214C25.8269 17.4814 24.8385 15.9265 23.4891 14.7231C22.1396 13.5197 20.4817 12.7152 18.7014 12.3996C16.9213 12.084 15.0884 12.2696 13.4077 12.9356C11.727 13.6018 10.2642 14.7224 9.18351 16.1718C8.10278 17.6213 7.44577 19.3436 7.28713 21.1447C7.12857 22.9457 7.47399 24.7555 8.28464 26.3715C9.09534 27.9877 10.3399 29.3466 11.8784 30.2964C13.4169 31.2461 15.1892 31.7488 16.9972 31.7493H30.8087C32.3171 31.7493 33.7639 31.1503 34.8305 30.0837C35.8971 29.0171 36.4961 27.5703 36.4961 26.0619ZM39.7468 26.0619C39.7468 28.4322 38.8052 30.7062 37.1291 32.3823C35.453 34.0584 33.179 35 30.8087 35H16.9963C14.5855 34.9994 12.2221 34.3279 10.1707 33.0616C8.11947 31.7953 6.46048 29.9835 5.3796 27.8288C4.29867 25.6739 3.83865 23.2606 4.05017 20.8591C4.26171 18.4577 5.13693 16.1626 6.57781 14.2299C8.01869 12.2973 9.96847 10.8031 12.2095 9.91483C14.4506 9.02656 16.8954 8.7787 19.2692 9.19951C21.6429 9.62035 23.853 10.6931 25.6522 12.2975C27.1442 13.6281 28.3039 15.2816 29.0496 17.1247H30.8087L31.2521 17.1358C33.4612 17.2454 35.5578 18.171 37.1291 19.7424C38.8051 21.4184 39.7467 23.6917 39.7468 26.0619Z" fill="#3C83F6"/>
</svg>
