<svg width="44" height="44" viewBox="0 0 44 44" fill="none" xmlns="http://www.w3.org/2000/svg">
<path d="M21.1861 9C21.8572 9.00004 22.5204 9.14387 23.131 9.42234L23.1302 9.42318L36.5229 15.5221L36.522 15.5229C37.0665 15.7602 37.5328 16.1471 37.8652 16.6401C38.2069 17.147 38.3929 17.7428 38.3993 18.354C38.4056 18.9654 38.232 19.5658 37.9008 20.0797C37.5724 20.5891 37.1029 20.991 36.55 21.2384L36.5508 21.2393L23.1302 27.328L23.131 27.3288C22.5968 27.5725 22.0223 27.713 21.4375 27.7444L21.1861 27.7512C20.5989 27.7512 20.0174 27.6411 19.4722 27.427L19.2403 27.3288L5.85013 21.2223V21.2215C5.30322 20.977 4.83755 20.5814 4.50951 20.0797C4.17716 19.5714 4 18.9766 4 18.3692C4.00003 17.7619 4.17719 17.1679 4.50951 16.6596C4.83779 16.1574 5.30344 15.7606 5.85098 15.5162L19.2403 9.42318V9.42234C19.851 9.14377 20.5149 9 21.1861 9ZM7.14675 18.3794L20.5369 24.4851L20.5378 24.4859L20.6935 24.5469C20.852 24.5995 21.0184 24.6264 21.1861 24.6264L21.3528 24.6171C21.5189 24.5992 21.6817 24.5555 21.8344 24.4859L21.8369 24.4842L35.2593 18.3938L35.2745 18.387L35.2271 18.3667L21.8352 12.2661H21.8344C21.6309 12.1733 21.4097 12.1248 21.1861 12.1248C20.9624 12.1248 20.7413 12.1733 20.5378 12.2661H20.5361L7.14506 18.3599L7.12474 18.3692L7.14675 18.3794Z" fill="#3C83F6"/>
<path d="M35.25 27.7501V18.3749C35.25 17.5119 35.9494 16.8125 36.8124 16.8125C37.6753 16.8125 38.3747 17.5119 38.3747 18.3749V27.7501C38.3747 28.613 37.6753 29.3124 36.8124 29.3124C35.9494 29.3124 35.25 28.613 35.25 27.7501Z" fill="#3C83F6"/>
<path d="M10.248 27.7503V22.2811C10.248 21.4182 10.9475 20.7188 11.8104 20.7188C12.6734 20.7188 13.3728 21.4182 13.3728 22.2811V27.7503L13.377 27.8206C13.4175 28.1991 13.7879 28.9337 15.2551 29.6674C16.7465 30.4131 18.8791 30.8751 21.1855 30.8751L21.6163 30.87C23.7562 30.8165 25.7178 30.3664 27.1159 29.6674C28.68 28.8853 28.998 28.1021 28.9982 27.7503V22.2811C28.9982 21.4182 29.6977 20.7189 30.5606 20.7188C31.4235 20.7188 32.1229 21.4182 32.1229 22.2811V27.7503C32.1228 29.885 30.465 31.4862 28.5132 32.462C26.6149 33.4112 24.179 33.9326 21.6848 33.994L21.1855 33.9999C18.5191 33.9999 15.8826 33.4745 13.8578 32.462C11.9669 31.5166 10.3521 29.9842 10.2531 27.9484L10.248 27.7503Z" fill="#3C83F6"/>
</svg>
