<svg width="44" height="44" viewBox="0 0 44 44" fill="none" xmlns="http://www.w3.org/2000/svg">
<path d="M19.4771 25.3732C19.7288 24.9062 20.2983 24.6967 20.7988 24.9044C21.332 25.1261 21.5853 25.7377 21.3643 26.2712L20.8288 27.5589C20.6074 28.0925 19.9958 28.3468 19.4621 28.1257C18.9283 27.9042 18.6751 27.2915 18.8966 26.7576L19.4307 25.4699L19.4771 25.3732Z" fill="#3C83F6" stroke="#3C83F6" stroke-width="0.5" stroke-linecap="round" stroke-linejoin="round"/>
<path d="M25.1394 21.9994C25.1395 21.5872 25.0587 21.1785 24.901 20.7976C24.7432 20.4166 24.5112 20.0699 24.2197 19.7783C23.9283 19.4871 23.5824 19.2561 23.2018 19.0984C22.8209 18.9406 22.4122 18.8586 21.9999 18.8586C21.6906 18.8585 21.3832 18.904 21.0883 18.9935L20.7981 19.0984C20.2976 19.3055 19.7292 19.0951 19.4777 18.6283L19.4313 18.5315L18.8972 17.2438L18.8604 17.143C18.7079 16.6352 18.9623 16.0847 19.4627 15.8771C19.9633 15.6695 20.5329 15.8786 20.7844 16.3458L20.8294 16.4426L21.0038 16.8609C21.3312 16.7975 21.6648 16.7655 21.9999 16.7655C22.6871 16.7656 23.3681 16.9018 24.003 17.1648C24.6374 17.4277 25.2139 17.8129 25.6995 18.2985C26.1853 18.7844 26.5716 19.3615 26.8346 19.9964C27.0975 20.6313 27.2325 21.3122 27.2325 21.9994C27.2324 22.6866 27.0976 23.3677 26.8346 24.0025C26.5716 24.6372 26.1853 25.2133 25.6995 25.699C25.2135 26.1849 24.6365 26.5712 24.0016 26.8341C23.4677 27.055 22.856 26.8011 22.6349 26.2673C22.4138 25.7335 22.6669 25.1219 23.2004 24.9005C23.5814 24.7427 23.9281 24.5108 24.2197 24.2192C24.5111 23.9277 24.7432 23.5821 24.901 23.2013C25.0588 22.8204 25.1394 22.4117 25.1394 21.9994Z" fill="#3C83F6" stroke="#3C83F6" stroke-width="0.5" stroke-linecap="round" stroke-linejoin="round"/>
<path d="M23.2173 16.3458C23.469 15.8789 24.0385 15.6694 24.5391 15.8771C25.0722 16.0988 25.3255 16.7104 25.1046 17.2438L24.569 18.5315C24.3476 19.0651 23.736 19.3194 23.2023 19.0984C22.6685 18.8769 22.4153 18.2641 22.6368 17.7303L23.171 16.4426L23.2173 16.3458Z" fill="#3C83F6" stroke="#3C83F6" stroke-width="0.5" stroke-linecap="round" stroke-linejoin="round"/>
<path d="M16.7676 21.9961C16.7677 21.3092 16.9027 20.6289 17.1655 19.9943C17.4285 19.3595 17.8146 18.7824 18.3006 18.2965C18.7865 17.8106 19.3635 17.4243 19.9984 17.1614L20.0992 17.126C20.6072 16.9736 21.1577 17.2279 21.3651 17.7282C21.5724 18.2288 21.3632 18.7985 20.8964 19.05L20.7996 19.0963C20.4187 19.2541 20.072 19.4847 19.7804 19.7763C19.4888 20.0679 19.2569 20.4146 19.0991 20.7956C18.9415 21.1761 18.8607 21.5841 18.8606 21.9961C18.8606 22.4082 18.9414 22.8171 19.0991 23.1979C19.2568 23.5789 19.4888 23.9256 19.7804 24.2172C20.0717 24.5085 20.4177 24.7394 20.7983 24.8971C21.1792 25.0549 21.5879 25.1369 22.0001 25.1369C22.4125 25.137 22.821 25.0549 23.202 24.8971L23.3996 24.8385C23.6009 24.7987 23.8109 24.8187 24.0032 24.8985C24.2596 25.0049 24.464 25.2088 24.5701 25.4653L25.1029 26.7544C25.3235 27.2885 25.0687 27.9004 24.5347 28.1211C24.0007 28.3415 23.3888 28.088 23.1679 27.5543L22.9935 27.1332C22.6669 27.1964 22.3344 27.23 22.0001 27.23C21.313 27.2299 20.6319 27.0937 19.997 26.8307C19.3626 26.5678 18.7862 26.1826 18.3006 25.697C17.8147 25.211 17.4284 24.6341 17.1655 23.9991C16.9025 23.3642 16.7675 22.6832 16.7676 21.9961Z" fill="#3C83F6" stroke="#3C83F6" stroke-width="0.5" stroke-linecap="round" stroke-linejoin="round"/>
<path d="M26.8545 18.8604C27.3624 18.7078 27.9142 18.9623 28.1218 19.4627C28.329 19.9629 28.1195 20.5328 27.653 20.7845L27.5549 20.8294L26.2672 21.365L26.1664 21.4004C25.6588 21.5528 25.1083 21.2994 24.9005 20.7995C24.679 20.2656 24.9322 19.6529 25.466 19.4314L26.7537 18.8972L26.8545 18.8604Z" fill="#3C83F6" stroke="#3C83F6" stroke-width="0.5" stroke-linecap="round" stroke-linejoin="round"/>
<path d="M24.9005 23.2009C25.1081 22.7006 25.6586 22.4462 26.1664 22.5987L26.2673 22.6354L27.555 23.1696L27.6531 23.2159C28.1194 23.4679 28.3294 24.0375 28.1218 24.5377C27.9003 25.0712 27.2874 25.3243 26.7537 25.1032L25.466 24.5677L25.3693 24.5227C24.902 24.2712 24.6929 23.7016 24.9005 23.2009Z" fill="#3C83F6" stroke="#3C83F6" stroke-width="0.5" stroke-linecap="round" stroke-linejoin="round"/>
<path d="M34.907 16.4186V10.8372C34.907 10.3746 34.7231 9.93111 34.396 9.60402C34.0689 9.27692 33.6254 9.09302 33.1628 9.09302H10.8372C10.3746 9.09302 9.93111 9.27692 9.60402 9.60402C9.27692 9.93111 9.09302 10.3746 9.09302 10.8372V16.4186L9.1012 16.5917C9.14097 16.9907 9.31795 17.3657 9.60402 17.6518C9.93111 17.9789 10.3746 18.1628 10.8372 18.1628H11.5349C12.1129 18.1628 12.5814 18.6313 12.5814 19.2093C12.5814 19.7873 12.1129 20.2558 11.5349 20.2558H10.8372C9.81952 20.2558 8.8438 19.8512 8.12418 19.1316C7.49442 18.5019 7.10622 17.676 7.01908 16.7974L7 16.4186V10.8372C7 9.81952 7.40457 8.8438 8.12418 8.12418C8.8438 7.40457 9.81952 7 10.8372 7H33.1628C34.1805 7 35.1562 7.40457 35.8758 8.12418C36.5954 8.8438 37 9.81952 37 10.8372V16.4186C37 17.4363 36.5954 18.412 35.8758 19.1316C35.1562 19.8512 34.1805 20.2558 33.1628 20.2558H32.4651C31.8871 20.2558 31.4186 19.7873 31.4186 19.2093C31.4186 18.6313 31.8871 18.1628 32.4651 18.1628H33.1628C33.6254 18.1628 34.0689 17.9789 34.396 17.6518C34.7231 17.3247 34.907 16.8812 34.907 16.4186Z" fill="#3C83F6" stroke="#3C83F6" stroke-width="0.5" stroke-linecap="round" stroke-linejoin="round"/>
<path d="M7 33.1647V27.5833C7 26.5656 7.40457 25.5899 8.12418 24.8703C8.8438 24.1507 9.81952 23.7461 10.8372 23.7461H11.5349C12.1129 23.7461 12.5814 24.2146 12.5814 24.7926C12.5814 25.3706 12.1129 25.8391 11.5349 25.8391H10.8372C10.3746 25.8391 9.93111 26.023 9.60402 26.3501C9.27692 26.6772 9.09302 27.1207 9.09302 27.5833V33.1647L9.1012 33.3378C9.14097 33.7368 9.31795 34.1118 9.60402 34.3979C9.93111 34.725 10.3746 34.9089 10.8372 34.9089H33.1628C33.6254 34.9089 34.0689 34.725 34.396 34.3979C34.7231 34.0708 34.907 33.6273 34.907 33.1647V27.5833C34.907 27.1207 34.7231 26.6772 34.396 26.3501C34.0689 26.023 33.6254 25.8391 33.1628 25.8391H32.4651C31.8871 25.8391 31.4186 25.3706 31.4186 24.7926C31.4186 24.2146 31.8871 23.7461 32.4651 23.7461H33.1628C34.1805 23.7461 35.1562 24.1507 35.8758 24.8703C36.5954 25.5899 37 26.5656 37 27.5833V33.1647C37 34.1824 36.5954 35.1581 35.8758 35.8777C35.1562 36.5973 34.1805 37.0019 33.1628 37.0019H10.8372C9.81952 37.0019 8.8438 36.5973 8.12418 35.8777C7.49442 35.248 7.10622 34.4221 7.01908 33.5435L7 33.1647Z" fill="#3C83F6" stroke="#3C83F6" stroke-width="0.5" stroke-linecap="round" stroke-linejoin="round"/>
<path d="M13.6422 29.3242L13.7498 29.3297C14.2774 29.3834 14.6887 29.829 14.6887 30.3707C14.6887 30.9125 14.2774 31.3581 13.7498 31.4118L13.6422 31.4172H13.6285C13.0506 31.4172 12.582 30.9487 12.582 30.3707C12.582 29.7928 13.0506 29.3242 13.6285 29.3242H13.6422Z" fill="#3C83F6" stroke="#3C83F6" stroke-width="0.5" stroke-linecap="round" stroke-linejoin="round"/>
<path d="M13.6422 12.582L13.7498 12.5875C14.2774 12.6412 14.6887 13.0868 14.6887 13.6285C14.6887 14.1703 14.2774 14.6159 13.7498 14.6696L13.6422 14.6751H13.6285C13.0506 14.6751 12.582 14.2065 12.582 13.6285C12.582 13.0506 13.0506 12.582 13.6285 12.582H13.6422Z" fill="#3C83F6" stroke="#3C83F6" stroke-width="0.5" stroke-linecap="round" stroke-linejoin="round"/>
<path d="M15.8771 19.4627C16.0847 18.9623 16.6352 18.7079 17.143 18.8604L17.2438 18.8972L18.5315 19.4313L18.6296 19.4777C19.096 19.7296 19.3059 20.2992 19.0984 20.7994C18.8768 21.3329 18.2639 21.5861 17.7303 21.3649L16.4426 20.8294L16.3458 20.7844C15.8786 20.5329 15.6695 19.9633 15.8771 19.4627Z" fill="#3C83F6" stroke="#3C83F6" stroke-width="0.5" stroke-linecap="round" stroke-linejoin="round"/>
<path d="M17.8311 22.5987C18.339 22.4461 18.8907 22.7006 19.0984 23.201C19.3055 23.7012 19.0961 24.271 18.6296 24.5228L18.5315 24.5677L17.2438 25.1032L17.143 25.1387C16.6354 25.2911 16.0849 25.0376 15.8771 24.5378C15.6555 24.0039 15.9087 23.3912 16.4426 23.1697L17.7303 22.6355L17.8311 22.5987Z" fill="#3C83F6" stroke="#3C83F6" stroke-width="0.5" stroke-linecap="round" stroke-linejoin="round"/>
</svg>
