<svg width="57" height="57" viewBox="0 0 57 57" fill="none" xmlns="http://www.w3.org/2000/svg">
<path d="M54.911 24.6702L52.0363 23.3923C50.5814 22.7367 49.4317 21.5501 48.8225 20.0751C48.2132 18.6001 48.1902 16.9481 48.7583 15.4567L49.8831 12.5317C50.0096 12.2005 50.0377 11.8399 49.964 11.4932C49.8904 11.1465 49.7181 10.8284 49.4678 10.5773L46.4217 7.53033C46.1703 7.28066 45.8522 7.10879 45.5056 7.0353C45.159 6.96181 44.7985 6.98983 44.4674 7.116L41.5167 8.249C40.0273 8.81031 38.38 8.78301 36.91 8.17268C35.44 7.56234 34.2578 6.41483 33.604 4.96367L32.3298 2.089C32.1859 1.76497 31.9511 1.48964 31.6538 1.29636C31.3566 1.10308 31.0096 1.00013 30.6551 1L26.3468 1C25.9922 1.00013 25.6453 1.10308 25.348 1.29636C25.0508 1.48964 24.816 1.76497 24.672 2.089L23.3923 4.96367C22.7418 6.42671 21.5489 7.5802 20.0648 8.18117C18.5939 8.79431 16.943 8.81565 15.4567 8.24075L12.5317 7.116C12.2004 6.99018 11.84 6.96243 11.4934 7.03607C11.1468 7.10971 10.8288 7.28162 10.5773 7.53125L7.53033 10.5783C7.28037 10.8295 7.10829 11.1476 7.03479 11.4943C6.96129 11.841 6.98949 12.2015 7.116 12.5326L8.24167 15.4567C8.81972 16.9609 8.79113 18.6308 8.16192 20.1143C7.55791 21.5779 6.41264 22.7521 4.96458 23.3923L2.089 24.6702C1.76497 24.8141 1.48964 25.0489 1.29636 25.3462C1.10308 25.6434 1.00013 25.9904 1 26.3449L1 30.6532C1.00013 31.0078 1.10308 31.3547 1.29636 31.652C1.48964 31.9492 1.76497 32.184 2.089 32.328L4.96367 33.6058C6.42671 34.2563 7.5802 35.4493 8.18117 36.9333C8.79509 38.4047 8.81677 40.0563 8.24167 41.5433L7.116 44.4683C6.98948 44.7995 6.96137 45.1601 7.03504 45.5068C7.10871 45.8535 7.28103 46.1716 7.53125 46.4227L10.5783 49.4697C10.8296 49.7194 11.1477 49.8914 11.4944 49.9649C11.841 50.0384 12.2015 50.0103 12.5326 49.884L15.4567 48.7593C16.9643 48.181 18.6375 48.211 20.1235 48.8427C21.5806 49.4444 22.7498 50.5846 23.3878 52.0263L24.6711 54.911C24.815 55.2349 25.0497 55.5101 25.3467 55.7034C25.6438 55.8967 25.9905 55.9997 26.3449 56H30.6532C31.0078 55.9999 31.3547 55.8969 31.652 55.7036C31.9492 55.5104 32.184 55.235 32.328 54.911L33.6113 52.0263C34.2665 50.56 35.4664 49.4061 36.9572 48.8088C38.4135 48.2017 40.0481 48.181 41.5194 48.751L44.4674 49.884C44.7984 50.0112 45.1592 50.0397 45.5061 49.966C45.853 49.8923 46.1711 49.7196 46.4217 49.4688L49.4688 46.4217C49.7187 46.1705 49.8908 45.8524 49.9643 45.5057C50.0378 45.159 50.0096 44.7985 49.8831 44.4674L48.7583 41.5433C48.1801 40.0357 48.21 38.3625 48.8418 36.8765C49.4435 35.4194 50.5837 34.2502 52.0253 33.6123L54.9101 32.3289C55.2341 32.1852 55.5096 31.9505 55.703 31.6535C55.8965 31.3564 55.9996 31.0096 56 30.6551V26.3468C56.0002 25.9919 55.8974 25.6446 55.7041 25.347C55.5108 25.0494 55.2353 24.8142 54.911 24.6702ZM54.1667 30.6542L51.2819 31.9375C49.4 32.7861 47.9134 34.3217 47.1262 36.2301C46.339 38.1385 46.3106 40.2755 47.0469 42.2042L48.1726 45.1292L45.1265 48.1753L42.1794 47.0423C40.2528 46.3131 38.1207 46.346 36.2175 47.1342C34.3143 47.9225 32.7834 49.4068 31.9366 51.2847L30.6551 54.1667H26.3468L25.0634 51.2819C24.2192 49.3963 22.684 47.9061 20.7741 47.1183C18.8642 46.3304 16.7249 46.3049 14.7968 47.0469L11.8717 48.1726L8.82742 45.1265L9.95308 42.2014C10.7 40.2585 10.6645 38.1017 9.85408 36.1844C9.07131 34.2862 7.58655 32.763 5.70892 31.932L2.83333 30.6551V26.3468L5.70892 25.0689C7.60143 24.2273 9.09456 22.6855 9.87517 20.767C10.6688 18.8621 10.6967 16.7245 9.95308 14.7995L8.82742 11.8735L11.8735 8.82742L14.7986 9.95308C16.7415 10.6996 18.8982 10.6642 20.8156 9.85408C22.7138 9.07131 24.237 7.58655 25.068 5.70892L26.3449 2.83333H30.6532L31.9311 5.70892C32.7774 7.60808 34.3274 9.10489 36.255 9.88433C38.146 10.6715 40.2679 10.6987 42.1785 9.96042L45.1256 8.82742L48.1717 11.8735L47.046 14.7986C46.3108 16.7284 46.3407 18.8661 47.1296 20.7746C47.9186 22.683 49.4069 24.2179 51.2902 25.0653L54.1667 26.3449V30.6542Z" fill="#3C83F6" stroke="#3C83F6" stroke-width="0.5"/>
<path d="M28.4997 11.0835C25.055 11.0835 21.6877 12.105 18.8235 14.0187C15.9593 15.9325 13.727 18.6526 12.4088 21.8351C11.0906 25.0176 10.7456 28.5195 11.4177 31.898C12.0897 35.2765 13.7485 38.3798 16.1842 40.8156C18.62 43.2514 21.7234 44.9102 25.1019 45.5822C28.4804 46.2542 31.9823 45.9093 35.1647 44.5911C38.3472 43.2728 41.0673 41.0405 42.9811 38.1763C44.8949 35.3122 45.9163 31.9449 45.9163 28.5002C45.9113 23.8825 44.0746 19.4555 40.8095 16.1903C37.5443 12.9252 33.1173 11.0886 28.4997 11.0835ZM28.4997 44.0835C25.4176 44.0835 22.4047 43.1696 19.842 41.4572C17.2794 39.7449 15.282 37.3111 14.1026 34.4636C12.9231 31.6162 12.6145 28.4829 13.2158 25.46C13.8171 22.4371 15.3012 19.6605 17.4806 17.4811C19.66 15.3017 22.4367 13.8175 25.4595 13.2163C28.4824 12.615 31.6157 12.9236 34.4632 14.103C37.3106 15.2825 39.7444 17.2799 41.4567 19.8425C43.1691 22.4052 44.083 25.4181 44.083 28.5002C44.0784 32.6317 42.4351 36.5927 39.5137 39.5142C36.5922 42.4356 32.6312 44.0789 28.4997 44.0835Z" fill="#3C83F6" stroke="#3C83F6" stroke-width="0.5"/>
<path d="M32.7161 22.6621L29.8258 16.5204C29.71 16.2657 29.5233 16.0496 29.288 15.8981C29.0528 15.7466 28.7788 15.666 28.499 15.666C28.2191 15.666 27.9452 15.7466 27.7099 15.8981C27.4746 16.0496 27.2879 16.2657 27.1721 16.5204L24.2818 22.6621L17.8358 23.642C17.5669 23.6838 17.3148 23.7993 17.1075 23.9757C16.9003 24.1521 16.7459 24.3824 16.6616 24.6412C16.5723 24.9053 16.5579 25.1889 16.6198 25.4607C16.6818 25.7325 16.8178 25.9819 17.0127 26.1812L21.7014 30.9754L20.5923 37.7587C20.5447 38.0378 20.5773 38.3247 20.6861 38.5861C20.795 38.8474 20.9757 39.0726 21.2073 39.2354C21.4292 39.3936 21.6914 39.4856 21.9635 39.5009C22.2356 39.5161 22.5064 39.454 22.7446 39.3216L28.4994 36.1472L34.2542 39.3188C34.4924 39.4512 34.7633 39.5134 35.0353 39.4981C35.3074 39.4829 35.5696 39.3908 35.7915 39.2327C36.0233 39.0698 36.2041 38.8444 36.313 38.5829C36.4218 38.3213 36.4543 38.0343 36.4066 37.755L35.2974 30.9754L39.9862 26.183C40.1811 25.9837 40.317 25.7344 40.379 25.4626C40.441 25.1908 40.4265 24.9071 40.3372 24.643C40.2529 24.3841 40.0984 24.1537 39.8909 23.9773C39.6835 23.8009 39.4312 23.6855 39.1621 23.6438L32.7161 22.6621ZM33.6621 30.0257C33.5615 30.1283 33.4865 30.2531 33.443 30.39C33.3995 30.527 33.3888 30.6722 33.4118 30.814L34.4816 37.3508L29.0494 34.3597C28.8817 34.2646 28.6922 34.2147 28.4994 34.2147C28.3066 34.2147 28.1171 34.2646 27.9494 34.3597L22.5154 37.3544L23.5852 30.8177C23.6082 30.6759 23.5975 30.5306 23.554 30.3937C23.5105 30.2568 23.4355 30.1319 23.3349 30.0293L18.7681 25.3562L25.1197 24.3854C25.253 24.3514 25.3773 24.2885 25.4837 24.2013C25.5902 24.114 25.6762 24.0044 25.7357 23.8803L28.4994 18.0073L31.2732 23.9014C31.34 24.0333 31.4372 24.1473 31.5567 24.2342C31.6762 24.3211 31.8147 24.3783 31.9607 24.401L38.2298 25.3571L33.6621 30.0257Z" fill="#3C83F6" stroke="#3C83F6" stroke-width="0.5"/>
</svg>
