<svg width="44" height="44" viewBox="0 0 44 44" fill="none" xmlns="http://www.w3.org/2000/svg">
<path d="M16.1817 31.5446C16.1817 30.0385 14.9608 28.817 13.4547 28.8168C11.9485 28.8168 10.727 30.0383 10.727 31.5446C10.7272 33.0507 11.9486 34.2716 13.4547 34.2716C14.9607 34.2714 16.1816 33.0505 16.1817 31.5446ZM18.9087 31.5446C18.9085 34.5568 16.4669 36.9984 13.4547 36.9986C10.4424 36.9986 8.00018 34.5569 8 31.5446C8 28.5321 10.4423 26.0898 13.4547 26.0898C16.467 26.09 18.9087 28.5322 18.9087 31.5446Z" fill="#A856F7"/>
<path d="M32.5452 26.7715C32.5452 25.8674 32.1859 25 31.5466 24.3607C30.9473 23.7615 30.148 23.4084 29.3056 23.3665L29.1364 23.3621H14.1365C12.509 23.3621 10.9479 22.7158 9.79707 21.565C8.71834 20.4862 8.08269 19.0472 8.00739 17.5306L8 17.2263C8 15.5989 8.64628 14.0377 9.79707 12.8869C10.9479 11.7361 12.509 11.0898 14.1365 11.0898H25.727L25.8666 11.0965C26.5542 11.1663 27.0904 11.7473 27.0904 12.4533C27.0904 13.1594 26.5542 13.7404 25.8666 13.8102L25.727 13.8168H14.1365C13.2323 13.8168 12.3649 14.1761 11.7256 14.8155C11.0863 15.4548 10.727 16.3222 10.727 17.2263L10.7314 17.3955C10.7733 18.2379 11.1264 19.0372 11.7256 19.6364C12.3649 20.2758 13.2323 20.6351 14.1365 20.6351H29.1364L29.4407 20.6425C30.9572 20.7177 32.3963 21.3535 33.4751 22.4321C34.6259 23.5829 35.2729 25.1441 35.2729 26.7715C35.2729 28.399 34.6258 29.9594 33.4751 31.1102C32.3963 32.189 30.9573 32.8253 29.4407 32.9006L29.1364 32.908H17.5452C16.7922 32.908 16.1819 32.2975 16.1817 31.5445C16.1817 30.7914 16.7922 30.1803 17.5452 30.1803H29.1364L29.3056 30.1766C30.1479 30.1347 30.9473 29.7815 31.5466 29.1824C32.1859 28.5431 32.5452 27.6757 32.5452 26.7715Z" fill="#A856F7"/>
<path d="M32.545 12.4547C32.545 10.9486 31.3241 9.72717 29.818 9.727C28.3118 9.727 27.0903 10.9485 27.0903 12.4547C27.0905 13.9608 28.3119 15.1817 29.818 15.1817C31.324 15.1816 32.5448 13.9607 32.545 12.4547ZM35.272 12.4547C35.2718 15.4669 32.8302 17.9085 29.818 17.9087C26.8057 17.9087 24.3635 15.467 24.3633 12.4547C24.3633 9.44227 26.8056 7 29.818 7C32.8303 7.00018 35.272 9.44238 35.272 12.4547Z" fill="#A856F7"/>
</svg>
