<svg width="44" height="44" viewBox="0 0 44 44" fill="none" xmlns="http://www.w3.org/2000/svg">
<path d="M10.812 12.3204C11.3731 11.8625 12.2009 11.8955 12.724 12.4186L17.01 16.704L17.1075 16.8124C17.5653 17.3734 17.533 18.2013 17.01 18.7245C16.4871 19.2474 15.6591 19.2803 15.098 18.8227L14.9897 18.7245L11.7134 15.4481L8.438 18.7245L8.32967 18.8227C7.76864 19.2802 6.94138 19.2473 6.41841 18.7245C5.86053 18.1665 5.86053 17.2619 6.41841 16.704L10.7037 12.4186L10.812 12.3204Z" fill="#A856F7"/>
<path d="M10.2852 27.7146V13.4285C10.2852 12.6395 10.9246 12 11.7136 12C12.5025 12 13.142 12.6395 13.142 13.4285V27.7146L13.1489 27.8554C13.1814 28.1826 13.3262 28.49 13.5606 28.7244C13.8284 28.9923 14.1916 29.143 14.5704 29.1431H23.1416L23.2879 29.1508C24.0083 29.2239 24.5707 29.8319 24.5708 30.5715C24.5708 31.3113 24.0083 31.92 23.2879 31.993L23.1416 32H14.5704C13.4339 31.9999 12.3439 31.5485 11.5402 30.7449C10.7869 29.9915 10.3432 28.9865 10.2906 27.9274L10.2852 27.7146Z" fill="#A856F7"/>
<path d="M34.9898 25.274C35.5476 24.7161 36.4522 24.7161 37.0101 25.274C37.5675 25.8318 37.5675 26.7358 37.0101 27.2936L32.7241 31.5798C32.1662 32.1377 31.2616 32.1377 30.7037 31.5798L26.4185 27.2936L26.3202 27.1853C25.8626 26.6242 25.8955 25.797 26.4185 25.274C26.9415 24.751 27.7687 24.7181 28.3298 25.1757L28.4381 25.274L31.7135 28.5488L34.9898 25.274Z" fill="#A856F7"/>
<path d="M30.2855 30.5715V16.2854C30.2854 15.9067 30.1354 15.5434 29.8676 15.2756C29.6333 15.0412 29.3256 14.8964 28.9987 14.8639L28.8571 14.8569H20.2858C19.4969 14.8569 18.8574 14.2175 18.8574 13.4285C18.8574 12.6395 19.4969 12 20.2858 12H28.8571L29.0699 12.0054C30.129 12.058 31.1338 12.5018 31.8872 13.2551C32.6909 14.0588 33.143 15.1488 33.1431 16.2854V30.5715C33.1431 31.3605 32.5029 32 31.7139 32C30.9251 31.9998 30.2855 31.3604 30.2855 30.5715Z" fill="#A856F7"/>
</svg>
