<svg width="44" height="44" viewBox="0 0 44 44" fill="none" xmlns="http://www.w3.org/2000/svg">
<path d="M19.4107 4.84992C23.3647 4.22697 27.413 4.97877 30.8801 6.97921C31.6411 7.41832 31.9026 8.39143 31.4635 9.15246C31.0244 9.91338 30.0512 10.174 29.2902 9.73498C26.4535 8.09823 23.1413 7.48377 19.9062 7.99345C16.6711 8.50314 13.7082 10.106 11.5122 12.5355C9.31615 14.9652 8.0199 18.0748 7.83872 21.3448C7.6576 24.6147 8.60287 27.8476 10.5169 30.5049C12.4311 33.1622 15.1986 35.0835 18.3577 35.9475C21.5166 36.8113 24.8761 36.5662 27.8761 35.2529C30.8763 33.9396 33.3358 31.6376 34.844 28.7306C36.3522 25.8235 36.818 22.4867 36.1641 19.2776L39.2818 18.6425C40.081 22.5647 39.5112 26.6424 37.6678 30.1955C35.8244 33.7486 32.8192 36.5629 29.1523 38.1681C25.4856 39.7732 21.3792 40.0727 17.5183 39.0169C13.6575 37.9609 10.2748 35.613 7.93523 32.3653C5.59566 29.1174 4.44013 25.1649 4.66158 21.1682C4.8831 17.1716 6.46799 13.3714 9.15197 10.4019C11.8359 7.43258 15.4568 5.4729 19.4107 4.84992ZM37.405 17.4016C38.2659 17.2262 39.1063 17.7817 39.2818 18.6425L36.1641 19.2776C35.9889 18.4169 36.5444 17.5772 37.405 17.4016Z" fill="#3C83F6"/>
<path d="M36.9149 8.29018C37.5362 7.6689 38.5436 7.6689 39.1649 8.29018C39.7858 8.91139 39.7858 9.91803 39.1649 10.5393L23.2559 26.4482C22.9577 26.7465 22.5532 26.9143 22.1314 26.9144C21.7094 26.9144 21.3043 26.7466 21.006 26.4482L16.2338 21.676L16.1244 21.5554C15.6145 20.9305 15.6513 20.0087 16.2338 19.4261C16.8162 18.8438 17.7374 18.8072 18.3622 19.3167L18.4829 19.4261L22.1305 23.0729L36.9149 8.29018Z" fill="#3C83F6"/>
</svg>
