<svg width="44" height="44" viewBox="0 0 44 44" fill="none" xmlns="http://www.w3.org/2000/svg">
<path d="M10.812 12.3203C11.3731 11.8625 12.2009 11.8955 12.724 12.4186L17.01 16.7037L17.1075 16.8121C17.5653 17.3731 17.533 18.201 17.01 18.7241C16.4871 19.247 15.6591 19.2798 15.098 18.8223L14.9897 18.7241L11.7134 15.4479L8.438 18.7241L8.32967 18.8223C7.76864 19.2797 6.94138 19.2468 6.41841 18.7241C5.86053 18.1662 5.86053 17.2616 6.41841 16.7037L10.7037 12.4186L10.812 12.3203Z" fill="#A856F7"/>
<path d="M10.2852 27.7137V13.4284C10.2852 12.6394 10.9246 12 11.7136 12C12.5025 12 13.142 12.6394 13.142 13.4284V27.7137L13.1489 27.8545C13.1814 28.1816 13.3262 28.489 13.5606 28.7235C13.8284 28.9913 14.1916 29.142 14.5704 29.1421H23.1416L23.2879 29.1498C24.0083 29.2229 24.5707 29.8308 24.5708 30.5704C24.5708 31.3102 24.0083 31.9188 23.2879 31.9919L23.1416 31.9988H14.5704C13.4339 31.9987 12.3439 31.5474 11.5402 30.7438C10.7869 29.9904 10.3432 28.9855 10.2906 27.9265L10.2852 27.7137Z" fill="#A856F7"/>
<path d="M34.9898 25.2779C35.5476 24.72 36.4522 24.72 37.0101 25.2779C37.5675 25.8357 37.5675 26.7396 37.0101 27.2974L32.7241 31.5833C32.1662 32.1412 31.2616 32.1412 30.7037 31.5833L26.4185 27.2974L26.3202 27.1891C25.8626 26.628 25.8955 25.8009 26.4185 25.2779C26.9415 24.7549 27.7687 24.722 28.3298 25.1796L28.4381 25.2779L31.7135 28.5525L34.9898 25.2779Z" fill="#A856F7"/>
<path d="M30.2855 30.5704V16.2851C30.2854 15.9065 30.1354 15.5432 29.8676 15.2754C29.6333 15.041 29.3256 14.8962 28.9987 14.8637L28.8571 14.8568H20.2858C19.4969 14.8568 18.8574 14.2173 18.8574 13.4284C18.8574 12.6394 19.4969 12 20.2858 12H28.8571L29.0699 12.0054C30.129 12.058 31.1338 12.5017 31.8872 13.2551C32.6909 14.0587 33.143 15.1486 33.1431 16.2851V30.5704C33.1431 31.3594 32.5029 31.9988 31.7139 31.9988C30.9251 31.9986 30.2855 31.3593 30.2855 30.5704Z" fill="#A856F7"/>
</svg>
