<svg width="44" height="44" viewBox="0 0 44 44" fill="none" xmlns="http://www.w3.org/2000/svg">
<path d="M25.9999 35.5V32.5002C25.9999 31.3067 25.526 30.1616 24.682 29.3176C23.891 28.5267 22.8357 28.0607 21.7237 28.0054L21.5003 27.9998H12.5002C11.3067 27.9998 10.1616 28.4737 9.31763 29.3176C8.4737 30.1616 7.99976 31.3067 7.99976 32.5002V35.5C7.99976 36.3284 7.32832 36.9998 6.49988 36.9998C5.67143 36.9998 5 36.3284 5 35.5V32.5002C5 30.511 5.78964 28.6027 7.19619 27.1962C8.60274 25.7896 10.511 25 12.5002 25H21.5003L21.8724 25.0089C23.7259 25.101 25.4849 25.8778 26.8035 27.1962C28.21 28.6027 29.0005 30.511 29.0005 32.5002V35.5C29.0005 36.3283 28.3289 36.9997 27.5006 36.9998C26.6722 36.9998 25.9999 36.3284 25.9999 35.5Z" fill="#A856F7"/>
<path d="M30.4943 14.4993C30.4943 13.5026 30.1635 12.5341 29.5535 11.7458C28.9815 11.0067 28.1949 10.4648 27.3036 10.1939L27.1241 10.1435L26.977 10.098C26.2643 9.83382 25.8536 9.06709 26.0483 8.31539C26.2432 7.56362 26.9747 7.09337 27.7262 7.20876L27.8765 7.23964L28.1763 7.32414C29.6615 7.77569 30.9728 8.67782 31.926 9.90952C32.9427 11.2234 33.4948 12.838 33.4949 14.4993C33.4949 16.1608 32.9428 17.776 31.926 19.09C30.9728 20.3217 29.6615 21.2238 28.1763 21.6754L27.8765 21.7599C27.0746 21.9676 26.2562 21.486 26.0483 20.6841C25.8405 19.8822 26.3222 19.0639 27.1241 18.856L27.3036 18.8056C28.1949 18.5347 28.9815 17.9928 29.5535 17.2537C30.1636 16.4653 30.4943 15.4962 30.4943 14.4993Z" fill="#A856F7"/>
<path d="M35.0005 35.5011V32.5022L34.9964 32.3153C34.957 31.3846 34.6298 30.4873 34.0572 29.7486C33.4846 29.0099 32.6972 28.4693 31.8057 28.1992L31.6253 28.1488L31.4791 28.1025C30.766 27.839 30.3538 27.0726 30.548 26.3207C30.7422 25.5689 31.4736 25.0979 32.225 25.2124L32.3761 25.2433L32.6751 25.3278C34.1612 25.778 35.4735 26.6794 36.428 27.9107C37.4461 29.224 37.9997 30.838 38.001 32.4997V35.5011C38.001 36.3294 37.3294 37.0008 36.5012 37.001C35.6727 37.001 35.0005 36.3296 35.0005 35.5011Z" fill="#A856F7"/>
<path d="M21.4998 14.5002C21.4998 12.0149 19.4854 9.99987 17.0002 9.99976C14.5149 9.99976 12.4998 12.0149 12.4998 14.5002C12.4999 16.9854 14.5149 18.9998 17.0002 18.9998C19.4854 18.9997 21.4997 16.9854 21.4998 14.5002ZM24.5004 14.5002C24.5003 18.6423 21.1423 22.0003 17.0002 22.0004C12.8581 22.0004 9.50011 18.6423 9.5 14.5002C9.5 10.358 12.858 7 17.0002 7C21.1423 7.00011 24.5004 10.3581 24.5004 14.5002Z" fill="#A856F7"/>
</svg>
