<svg width="44" height="44" viewBox="0 0 44 44" fill="none" xmlns="http://www.w3.org/2000/svg">
<path d="M5 35.5003C4.99992 32.9022 5.74941 30.3592 7.15876 28.1766C8.56813 25.994 10.5773 24.2642 12.9453 23.1953C15.3134 22.1263 17.9402 21.7637 20.5095 22.1504C22.9181 22.513 25.1808 23.52 27.0597 25.0607L27.4302 25.376L27.5399 25.4832C28.0561 26.0411 28.0761 26.9101 27.5626 27.4925C27.0488 28.075 26.1836 28.1637 25.5655 27.7208L25.4453 27.6257L25.1568 27.3804C23.6955 26.1822 21.9359 25.3988 20.0626 25.1168C18.0644 24.816 16.022 25.0988 14.1802 25.9301C12.3384 26.7615 10.7753 28.1064 9.67908 29.804C8.5829 31.5016 7.9996 33.4796 7.99968 35.5003C7.99973 36.3287 7.32826 37.0001 6.49984 37.0002C5.67146 37.0002 5.00005 36.3287 5 35.5003Z" fill="#A856F7"/>
<path d="M24.5 15.9999C24.5 12.6862 21.8135 9.99971 18.4999 9.99968C15.1862 9.99968 12.4997 12.6862 12.4997 15.9999C12.4997 19.3135 15.1862 22 18.4999 22C21.8135 22 24.5 19.3135 24.5 15.9999ZM27.4997 15.9999C27.4997 20.9703 23.4703 24.9997 18.4999 24.9997C13.5293 24.9997 9.50003 20.9704 9.5 15.9999C9.5 11.0293 13.5293 7 18.4999 7C23.4704 7.00003 27.4997 11.0293 27.4997 15.9999Z" fill="#A856F7"/>
<path d="M35.5532 28.3363C36.1423 27.8557 37.0116 27.8903 37.5608 28.4395C38.1461 29.0252 38.1461 29.9743 37.5608 30.56L31.5606 36.5602C31.0115 37.1094 30.1422 37.144 29.553 36.6634L29.4393 36.5602L26.4396 33.5605L26.3364 33.4468C25.8556 32.8576 25.8903 31.9884 26.4396 31.4391C26.9887 30.8902 27.8573 30.8556 28.4464 31.336L28.5602 31.4391L30.4995 33.3777L35.4394 28.4395L35.5532 28.3363Z" fill="#A856F7"/>
</svg>
