<svg width="44" height="44" viewBox="0 0 44 44" fill="none" xmlns="http://www.w3.org/2000/svg">
<path d="M30.5171 13.8122C27.4213 13.7031 23.8748 11.9246 21.4176 9.77909C21.3763 9.74532 21.3242 9.72665 21.2707 9.72665C21.2157 9.72674 21.1626 9.74643 21.1207 9.78204C18.678 11.912 15.1211 13.7023 12.025 13.8122L11.7267 13.8181V23.3621C11.7267 26.4106 12.7777 28.6263 14.4356 30.3242C16.0247 31.9518 18.2258 33.1561 20.7559 34.0811L21.2662 34.2628L21.2965 34.2732C24.0304 33.3191 26.4153 32.063 28.1072 30.3272C29.7643 28.6271 30.8154 26.4106 30.8154 23.3621V13.8181L30.5171 13.8122ZM33.5421 23.3621C33.5421 27.1309 32.2069 30.0276 30.0599 32.2304C28.0819 34.2597 25.4682 35.6476 22.7322 36.6557L22.1835 36.8528C22.1798 36.8541 22.1761 36.8553 22.1724 36.8565C21.5887 37.0543 20.9558 37.0468 20.3763 36.8388V36.8403C17.4349 35.8245 14.5968 34.3931 12.4844 32.2296C10.3348 30.0281 9.00002 27.1308 9 23.3621V13.8181C9 13.095 9.28709 12.4012 9.79835 11.8898C10.3097 11.3784 11.0035 11.0908 11.7267 11.0907L11.9438 11.087C14.2058 11.0012 17.1844 9.59984 19.3379 7.71859L19.349 7.70899L19.4509 7.62553C19.9698 7.22076 20.6101 7.00008 21.2707 7C21.9313 7 22.5722 7.22068 23.0911 7.62553L23.1931 7.70899L23.2049 7.71933L23.6332 8.07899C25.8229 9.84516 28.6716 11.0907 30.8154 11.0907C31.5386 11.0908 32.2324 11.3784 32.7437 11.8898C33.255 12.4012 33.5421 13.095 33.5421 13.8181V23.3621Z" fill="#A856F7"/>
<path d="M24.5001 18.2158C25.0356 17.779 25.8258 17.8104 26.325 18.3096C26.857 18.842 26.857 19.7048 26.325 20.2372L20.8709 25.6912C20.3717 26.1904 19.5815 26.2218 19.046 25.785L18.9426 25.6912L16.216 22.9646L16.1222 22.8612C15.6852 22.3256 15.7167 21.5355 16.216 21.0363C16.7151 20.5373 17.5047 20.5059 18.0401 20.9425L18.1435 21.0363L19.9064 22.7984L24.3967 18.3096L24.5001 18.2158Z" fill="#A856F7"/>
</svg>
