<svg width="36" height="35" viewBox="0 0 36 35" fill="none" xmlns="http://www.w3.org/2000/svg">
<path d="M0 25.6633V13.2185C0 10.9275 1.85733 9.07031 4.14849 9.07031H8.3653V11.1444H4.14849C3.0029 11.1444 2.07424 12.073 2.07424 13.2185V25.6633C2.07424 26.8088 3.0029 27.7374 4.14849 27.7374H31.2519C32.3975 27.7374 33.3262 26.8088 33.3262 25.6633V13.2185C33.3262 12.073 32.3975 11.1444 31.2519 11.1444H27.0552V9.07031H31.2519C33.5431 9.07031 35.4004 10.9275 35.4004 13.2185V25.6633C35.4004 27.9543 33.5431 29.8115 31.2519 29.8115H4.14849C1.85733 29.8115 0 27.9543 0 25.6633Z" fill="#3C83F6"/>
<path d="M22.4 31.2598L22.4096 31.305C22.6206 32.2509 23.4606 32.9272 24.4339 32.9272H29.1431V35.0013H6.32644V32.9272H11.0356C12.0244 32.9272 12.8756 32.2293 13.0696 31.2598L13.6064 28.5756L15.6404 28.9823L15.1035 31.6666C15.0128 32.1201 14.8501 32.544 14.6288 32.9272H20.8407C20.6342 32.5696 20.4788 32.1766 20.3852 31.7571L20.3661 31.6666L19.8291 28.9823L21.8631 28.5756L22.4 31.2598ZM2.07424 21.5195C2.07424 22.665 3.0029 23.5936 4.14849 23.5936H31.2519C32.3975 23.5936 33.3262 22.665 33.3262 21.5195H35.4004C35.4004 23.8106 33.5431 25.6678 31.2519 25.6678H4.14849C1.85733 25.6678 0 23.8106 0 21.5195H2.07424Z" fill="#3C83F6"/>
<path d="M19.7735 10.1092C19.7735 8.96367 18.8448 8.03506 17.6993 8.03506C16.5537 8.03506 15.625 8.96367 15.625 10.1092C15.625 11.2547 16.5537 12.1833 17.6993 12.1833C18.8448 12.1833 19.7735 11.2547 19.7735 10.1092ZM21.8478 10.1092C21.8478 12.4002 19.9904 14.2574 17.6993 14.2574C15.4081 14.2574 13.5508 12.4002 13.5508 10.1092C13.5508 7.81817 15.4081 5.96094 17.6993 5.96094C19.9904 5.96094 21.8478 7.81817 21.8478 10.1092Z" fill="#3C83F6"/>
<path d="M20.6623 0.167307C22.2228 0.631504 23.6281 1.45209 24.7844 2.53384L25.1969 2.9197L24.7807 5.2231L24.7765 5.24255C24.7247 5.4776 24.7577 5.73655 24.8936 5.97207C25.0296 6.20754 25.2373 6.36561 25.4668 6.43827L27.6542 7.13059L27.7905 7.70131C28.1687 9.28474 28.1606 10.912 27.802 12.454L27.6741 13.0042L25.4897 13.7888L25.471 13.7956L25.452 13.8016C25.2225 13.8743 25.0148 14.0323 24.8788 14.2677L24.8788 14.2678C24.7429 14.5032 24.7098 14.7621 24.7616 14.9973L25.2557 17.2377L24.8296 17.641C23.6473 18.7602 22.2339 19.567 20.7189 20.0274L20.1784 20.1916L18.4068 18.6924L18.3916 18.6796L18.3769 18.6661C18.1991 18.5036 17.9583 18.4027 17.6865 18.4027C17.4316 18.4027 17.204 18.4914 17.0301 18.6364L16.9961 18.6661L15.3028 20.2141L14.7404 20.0468C13.1799 19.5826 11.7746 18.7621 10.6183 17.6803L10.2059 17.2944L10.6219 14.991L10.6262 14.9716C10.678 14.7365 10.645 14.4775 10.509 14.242C10.3816 14.0213 10.1911 13.8685 9.9786 13.7905L9.93586 13.7759L7.74852 13.0836L7.61219 12.5129C7.23393 10.9294 7.24198 9.30209 7.60071 7.75992L7.72873 7.20986L9.91304 6.42524L9.93174 6.41849L9.95071 6.41248C10.1803 6.33982 10.388 6.18175 10.524 5.94628L10.5364 5.92413C10.6619 5.69472 10.6913 5.44459 10.6411 5.21676L10.1471 2.97641L10.5732 2.573C11.7555 1.45377 13.1689 0.647113 14.6839 0.186684L15.2243 0.0224156L16.996 1.52176L17.0111 1.53459L17.0258 1.54796C17.2036 1.7105 17.4444 1.81141 17.7162 1.81141C17.9711 1.81141 18.1987 1.72275 18.3726 1.57773L18.4066 1.54796L20.0999 0L20.6623 0.167307ZM19.8063 3.07877C19.2521 3.58534 18.5141 3.88552 17.7162 3.88553C16.9281 3.88553 16.1986 3.59258 15.6468 3.09727L14.7634 2.34959C13.9244 2.66668 13.1347 3.11981 12.4304 3.69884L12.6667 4.77013L12.6811 4.83907C12.8212 5.55255 12.7068 6.3141 12.3203 6.9834L12.3202 6.98334C11.9265 7.66521 11.3089 8.15029 10.6047 8.38067L9.51379 8.77247C9.36889 9.65759 9.36646 10.568 9.51581 11.4673L10.5618 11.7984L10.6286 11.8204C11.3167 12.0558 11.919 12.5357 12.3054 13.205C12.6992 13.887 12.8104 14.6647 12.6577 15.3898L12.4518 16.5298C13.1459 17.0979 13.9331 17.5552 14.7868 17.8756L15.5964 17.1354L15.5965 17.1353L15.6489 17.0885C16.1968 16.6103 16.9135 16.3286 17.6865 16.3286C18.4748 16.3286 19.2045 16.6217 19.7564 17.1173L20.6392 17.8644C21.4783 17.5473 22.268 17.0942 22.9723 16.5152L22.7361 15.4439C22.5795 14.7337 22.677 13.9709 23.0459 13.2958L23.0825 13.2307C23.4761 12.5488 24.0938 12.0637 24.798 11.8333L25.8888 11.4415C26.0337 10.5564 26.0361 9.64606 25.8867 8.74667L24.8409 8.41571C24.125 8.18913 23.4962 7.70007 23.0972 7.00913C22.7034 6.32705 22.5922 5.54924 22.7449 4.82408L22.9509 3.68426C22.2567 3.11621 21.4695 2.65888 20.6158 2.33851L19.8063 3.07877Z" fill="#3C83F6"/>
</svg>
