<svg width="44" height="44" viewBox="0 0 44 44" fill="none" xmlns="http://www.w3.org/2000/svg">
<path d="M16.1517 12.2182C16.0511 12.5277 16.1501 12.8594 16.4037 13.0633L18.662 14.8783L17.9019 17.6742C17.8166 17.9881 17.9315 18.3146 18.1949 18.5061C18.4583 18.6972 18.8042 18.7056 19.0764 18.5275L21.5005 16.9407L23.9247 18.5276C24.051 18.6108 24.199 18.6554 24.3503 18.6556C24.5142 18.6554 24.6739 18.603 24.8061 18.5061C25.0696 18.3148 25.1846 17.9881 25.0991 17.6742L24.339 14.8784L26.5971 13.0634C26.8509 12.8596 26.9499 12.5278 26.8493 12.2182C26.7487 11.9085 26.4737 11.6983 26.1486 11.6826L23.2548 11.5415L22.2264 8.833C22.1109 8.52873 21.8259 8.33206 21.5005 8.33206C21.175 8.33206 20.89 8.52866 20.7746 8.83293L19.7462 11.5416L16.8525 11.6826C16.5273 11.6983 16.2523 11.9085 16.1517 12.2182ZM20.0069 12.6239C20.1578 12.6165 20.3032 12.5653 20.4254 12.4765C20.5477 12.3877 20.6413 12.2652 20.6949 12.1239L21.5004 10.0024L22.3059 12.1242C22.3596 12.2653 22.4533 12.3878 22.5754 12.4765C22.6976 12.5653 22.8431 12.6165 22.9939 12.6239L25.2605 12.7344L23.4916 14.1561C23.3739 14.2507 23.2863 14.3776 23.2396 14.5213C23.193 14.665 23.1892 14.8191 23.2289 14.9649L23.8242 17.1547L21.9255 15.9117C21.799 15.829 21.6513 15.785 21.5002 15.785C21.3492 15.785 21.2014 15.8291 21.075 15.9118L19.1764 17.1547L19.7717 14.965C19.8114 14.8192 19.8077 14.665 19.761 14.5213C19.7143 14.3776 19.6267 14.2507 19.5089 14.1561L17.7401 12.7345L20.0069 12.6239ZM20.9535 6.55376V4.54687C20.9535 4.40183 21.0111 4.26273 21.1137 4.16018C21.2163 4.05762 21.3554 4 21.5004 4C21.6454 4 21.7845 4.05762 21.8871 4.16018C21.9897 4.26273 22.0473 4.40183 22.0473 4.54687V6.55376C22.0473 6.6988 21.9897 6.8379 21.8871 6.94046C21.7845 7.04302 21.6454 7.10064 21.5004 7.10064C21.3554 7.10064 21.2163 7.04302 21.1137 6.94046C21.0111 6.8379 20.9535 6.6988 20.9535 6.55376ZM24.2839 9.79386C24.1869 9.68607 24.1366 9.54415 24.1442 9.39931C24.1518 9.25448 24.2166 9.11859 24.3244 9.02153L26.5608 7.00781C26.6141 6.95975 26.6764 6.92267 26.7441 6.89869C26.8118 6.87472 26.8836 6.86431 26.9553 6.86806C27.027 6.87182 27.0973 6.88966 27.1621 6.92058C27.227 6.95149 27.2851 6.99487 27.3331 7.04824C27.3812 7.10161 27.4182 7.16392 27.4422 7.23162C27.4662 7.29932 27.4766 7.37107 27.4729 7.44279C27.4691 7.51451 27.4513 7.58479 27.4203 7.64962C27.3894 7.71444 27.346 7.77254 27.2927 7.8206L25.0562 9.83433C24.9559 9.92489 24.8256 9.97496 24.6904 9.9748C24.6138 9.97491 24.5379 9.95885 24.4679 9.92767C24.3978 9.89649 24.3352 9.8509 24.2839 9.79386ZM15.6676 7.04828C15.7157 6.9949 15.7738 6.95151 15.8386 6.92059C15.9035 6.88967 15.9737 6.87182 16.0455 6.86806C16.1172 6.8643 16.1889 6.87471 16.2566 6.89869C16.3243 6.92266 16.3867 6.95974 16.44 7.00781L18.6765 9.02153C18.7843 9.11859 18.8491 9.25449 18.8567 9.39934C18.8642 9.54418 18.814 9.68611 18.7169 9.79389C18.6199 9.90167 18.484 9.96649 18.3391 9.97407C18.1943 9.98165 18.0523 9.93138 17.9446 9.83433L15.7081 7.8206C15.6003 7.72355 15.5355 7.58766 15.5279 7.44282C15.5203 7.29798 15.5706 7.15606 15.6676 7.04828ZM28.5164 13.0633L30.7746 14.8783L30.0145 17.6742C29.9292 17.9881 30.0441 18.3146 30.3075 18.5061C30.5708 18.6972 30.9167 18.7056 31.1891 18.5275L33.6132 16.9407L36.0373 18.5276C36.1637 18.6108 36.3116 18.6554 36.4629 18.6556C36.6269 18.6554 36.7865 18.603 36.9188 18.5061C37.1821 18.3149 37.2971 17.9884 37.2117 17.6742L36.4517 14.8784L38.7098 13.0634C38.9635 12.8596 39.0625 12.5279 38.9619 12.2182C38.8613 11.9085 38.5862 11.6983 38.2613 11.6826L35.3674 11.5415L34.3391 8.833C34.2236 8.52873 33.9386 8.33206 33.6132 8.33206C33.2876 8.33206 33.0027 8.52866 32.8872 8.83293L31.8589 11.5415L28.9652 11.6826C28.64 11.6983 28.3649 11.9085 28.2643 12.2182C28.1637 12.5278 28.2627 12.8596 28.5164 13.0633ZM32.1195 12.6239C32.2704 12.6165 32.4159 12.5653 32.5381 12.4765C32.6604 12.3877 32.754 12.2652 32.8076 12.1239L33.6131 10.0024L34.4185 12.1238C34.4721 12.2651 34.5658 12.3876 34.688 12.4764C34.8102 12.5653 34.9557 12.6165 35.1066 12.6238L37.3732 12.7343L35.6045 14.1559C35.4867 14.2505 35.3991 14.3774 35.3524 14.5211C35.3057 14.6648 35.3019 14.819 35.3416 14.9648L35.9369 17.1546L34.0382 15.9117C33.9118 15.8289 33.764 15.7848 33.6129 15.7848C33.4619 15.7848 33.3141 15.829 33.1877 15.9117L31.2891 17.1546L31.8844 14.965C31.9241 14.8192 31.9203 14.665 31.8737 14.5213C31.827 14.3776 31.7394 14.2506 31.6216 14.156L29.8528 12.7343L32.1195 12.6239ZM4.29096 13.0633L6.5492 14.8783L5.78912 17.6742C5.70381 17.9881 5.81872 18.3146 6.08211 18.5061C6.34556 18.6972 6.69139 18.7056 6.96367 18.5275L9.38775 16.9407L11.8119 18.5276C11.9383 18.6108 12.0862 18.6554 12.2375 18.6556C12.4015 18.6554 12.5611 18.603 12.6933 18.5061C12.9567 18.3149 13.0717 17.9884 12.9863 17.6742L12.2262 14.8784L14.4843 13.0634C14.738 12.8598 14.837 12.5281 14.7365 12.2179C14.6357 11.9084 14.3606 11.6983 14.0358 11.6826L11.142 11.5415L10.1137 8.833C9.9982 8.52873 9.71321 8.33206 9.38775 8.33206C9.06223 8.33206 8.77724 8.52866 8.66178 8.83293L7.63345 11.5415L4.7398 11.6826C4.41462 11.6983 4.13954 11.9086 4.03905 12.2179C3.93822 12.5276 4.03714 12.8595 4.29096 13.0633ZM7.89404 12.6239C8.04496 12.6165 8.19046 12.5653 8.3127 12.4765C8.43494 12.3877 8.52861 12.2652 8.58221 12.1239L9.38769 10.0024L10.1931 12.1238C10.2467 12.2651 10.3403 12.3876 10.4626 12.4764C10.5848 12.5653 10.7303 12.6165 10.8812 12.6238L13.1478 12.7343L11.3791 14.1559C11.2613 14.2505 11.1737 14.3774 11.1269 14.5211C11.0802 14.6648 11.0765 14.819 11.1161 14.9648L11.7115 17.1546L9.81274 15.9117C9.68636 15.8289 9.53857 15.7848 9.3875 15.7848C9.23644 15.7848 9.08865 15.829 8.96229 15.9117L7.06368 17.1546L7.65902 14.965C7.69867 14.8192 7.69492 14.665 7.64823 14.5213C7.60154 14.3776 7.51395 14.2506 7.39618 14.156L5.62738 12.7343L7.89404 12.6239ZM38.9143 33.0481C38.5295 31.8055 37.7414 30.6897 36.695 29.9062C36.2009 29.5357 35.6543 29.2411 35.0731 29.0321C35.8709 28.4059 36.385 27.4338 36.385 26.3433C36.385 24.4589 34.8519 22.9259 32.9676 22.9259C31.0832 22.9259 29.5501 24.4589 29.5501 26.3433C29.5501 27.4325 30.0629 28.4036 30.8592 29.0299C29.792 29.4108 28.8466 30.08 28.1226 30.9818C27.7816 30.5045 27.3902 30.0654 26.9551 29.6719C26.0801 28.8799 25.0429 28.2882 23.9159 27.938C25.1009 27.1525 25.8843 25.8074 25.8843 24.2822C25.8843 21.865 23.9176 19.8984 21.5005 19.8984C19.0833 19.8984 17.1167 21.865 17.1167 24.2822C17.1167 25.8074 17.9 27.1525 19.085 27.938C17.9579 28.2882 16.9207 28.8799 16.0457 29.6719C15.6107 30.0654 15.2193 30.5045 14.8782 30.9817C14.1543 30.0799 13.2089 29.4106 12.1417 29.0297C12.9379 28.4034 13.4508 27.4323 13.4508 26.3431C13.4508 24.4587 11.9177 22.9257 10.0333 22.9257C8.14895 22.9257 6.61585 24.4587 6.61585 26.3431C6.61585 27.4335 7.12992 28.4057 7.92767 29.0319C7.34652 29.2409 6.79984 29.5355 6.30571 29.906C5.25933 30.6894 4.47122 31.8053 4.08643 33.0478C3.90862 33.6218 4.00713 34.2043 4.36376 34.6881C4.72032 35.1718 5.24764 35.4381 5.84852 35.4381H13.4086V36.4251C13.4086 37.8449 14.5636 39 15.9835 39H27.0173C28.4371 39 29.5922 37.8449 29.5923 36.4251V35.4384H37.1523C37.7532 35.4384 38.2805 35.172 38.637 34.6884C38.9936 34.2045 39.0921 33.622 38.9143 33.0481ZM32.9676 24.0196C34.2488 24.0196 35.2913 25.062 35.2913 26.3433C35.2913 27.6246 34.2488 28.667 32.9676 28.667C31.6863 28.667 30.6439 27.6246 30.6439 26.3433C30.6439 25.062 31.6863 24.0196 32.9676 24.0196ZM18.2104 24.2822C18.2104 22.4681 19.6863 20.9922 21.5005 20.9922C23.3146 20.9922 24.7905 22.4681 24.7905 24.2822C24.7905 26.0958 23.3155 27.5712 21.5022 27.5722H21.4986C19.6853 27.5712 18.2104 26.0957 18.2104 24.2822ZM10.0333 24.0193C11.3146 24.0193 12.357 25.0618 12.357 26.343C12.357 27.6243 11.3146 28.6668 10.0333 28.6668C8.75201 28.6668 7.7096 27.6243 7.7096 26.343C7.7096 25.0618 8.75201 24.0193 10.0333 24.0193ZM13.4796 34.3443H5.84859C5.59689 34.3443 5.39359 34.2417 5.24423 34.039C5.09479 33.8364 5.05685 33.6118 5.1313 33.3714C5.80012 31.2116 7.77017 29.7605 10.0333 29.7605C11.7453 29.7605 13.3047 30.5876 14.2639 31.9878C13.8828 32.7283 13.6182 33.5232 13.4796 34.3443ZM28.4985 36.425C28.4985 37.2417 27.834 37.9062 27.0173 37.9062H15.9835C15.1668 37.9062 14.5023 37.2417 14.5023 36.425V34.9209C14.8983 31.3534 17.9009 28.6668 21.4986 28.6659L21.5005 28.666L21.5022 28.6659C25.0999 28.6669 28.1025 31.3534 28.4985 34.9209V36.425ZM37.7566 34.0394C37.6073 34.2419 37.404 34.3446 37.1523 34.3446H29.5213C29.3826 33.5234 29.1181 32.7285 28.737 31.988C29.6963 30.5879 31.2557 29.7608 32.9675 29.7608C35.2307 29.7608 37.2007 31.2119 37.8696 33.3717C37.944 33.612 37.906 33.8366 37.7566 34.0394Z" fill="#3C83F6" stroke="#3C83F6" stroke-width="0.4"/>
</svg>
