<svg width="44" height="44" viewBox="0 0 44 44" fill="none" xmlns="http://www.w3.org/2000/svg">
<path d="M35.2971 17.8204C35.2971 10.3775 29.2634 4.34377 21.8204 4.34377C14.3775 4.34377 8.34377 10.3775 8.34377 17.8204C8.34377 25.2634 14.3775 31.2971 21.8204 31.2971C29.2634 31.2971 35.2971 25.2634 35.2971 17.8204ZM37.6409 17.8204C37.6409 26.5578 30.5578 33.6409 21.8204 33.6409C13.083 33.6409 6 26.5578 6 17.8204C6 9.08305 13.083 2 21.8204 2C30.5578 2 37.6409 9.08305 37.6409 17.8204Z" fill="#3C83F6"/>
<path d="M12.4453 27.9858V34.8721C13.2875 34.7312 14.0777 34.441 14.7891 34.0298V31.2494H17.1329V39.5596C18.6304 39.3091 19.9657 38.5863 20.9835 37.5479L21.8204 36.6942L22.6573 37.5479C23.6751 38.5863 25.0104 39.3091 26.5079 39.5596V31.249H28.8517V34.0298C29.5631 34.441 30.3533 34.7312 31.1955 34.8721V27.9858H33.5392V37.3128H32.3673C31.1248 37.3128 29.9378 37.0708 28.8517 36.6316V42.0003H27.6798C25.4623 42.0003 23.4245 41.2307 21.8204 39.9456C20.2163 41.2307 18.1785 42.0003 15.961 42.0003H14.7891V36.6316C13.703 37.0708 12.516 37.3128 11.2734 37.3128H10.1016V27.9858H12.4453ZM25.2942 13.0391L32.4084 14.3802L27.4411 19.6467L28.3642 26.8272L21.8204 23.7305L15.2766 26.8272L16.1996 19.6467L11.2324 14.3802L18.3466 13.0391L21.8204 6.6875L25.2942 13.0391ZM19.8707 15.1369L15.8777 15.8895L18.6658 18.8455L18.1476 22.8755L21.8204 21.1375L25.4931 22.8755L24.975 18.8455L27.763 15.8895L23.7701 15.1369L21.8204 11.5719L19.8707 15.1369Z" fill="#3C83F6"/>
</svg>
