<svg width="28" height="35" viewBox="0 0 28 35" fill="none" xmlns="http://www.w3.org/2000/svg">
<path d="M26.9605 16.0308C27.1039 15.2187 26.9768 14.3859 26.6112 13.659C26.9797 12.9265 27.1022 12.0947 26.9605 11.287C26.8174 10.475 26.4134 9.73588 25.8211 9.17779C25.9171 8.36344 25.7476 7.53987 25.338 6.82951C24.9276 6.11968 24.2991 5.56118 23.546 5.23694C23.3575 4.43901 22.9167 3.72312 22.2891 3.19553C21.6605 2.66901 20.8789 2.35923 20.0602 2.31219C19.6135 1.63208 18.9558 1.10578 18.1806 0.823799C17.4099 0.543971 16.5695 0.520189 15.7843 0.755986C15.132 0.269678 14.3338 0 13.5089 0C12.6844 0 11.8862 0.269678 11.2338 0.755986C10.4485 0.520193 9.60801 0.543974 8.83724 0.823799C8.06708 1.10499 7.40805 1.62693 6.9579 2.31219C6.14559 2.35922 5.36082 2.66547 4.72905 3.19553C4.10136 3.72317 3.66057 4.43917 3.47212 5.23722C2.71894 5.56133 2.09038 6.11974 1.67981 6.82951C1.27044 7.53995 1.10114 8.36348 1.19705 9.17779C0.604788 9.73588 0.200784 10.475 0.0576393 11.287C-0.0857787 12.0993 0.0413014 12.9322 0.406956 13.6591C0.0413014 14.3859 -0.0857787 15.2188 0.0576393 16.0308C0.20054 16.8383 0.600135 17.5781 1.19705 18.1404C1.10117 18.9547 1.27047 19.7781 1.67981 20.4885C2.09044 21.1983 2.71897 21.7567 3.47212 22.0809C3.59937 22.6191 3.84209 23.1231 4.18347 23.5581L1.17942 29.845C1.09632 30.0188 1.06387 30.2125 1.08579 30.4039C1.10771 30.5953 1.1831 30.7767 1.30334 30.9272C1.42357 31.0778 1.58379 31.1914 1.76561 31.2551C1.94744 31.3187 2.14353 31.3299 2.33141 31.2873L6.85646 30.2611L8.90081 34.4264C8.98528 34.5985 9.1163 34.7435 9.279 34.8449C9.4417 34.9462 9.62957 35 9.82127 35H9.8266C10.0192 34.999 10.2077 34.9438 10.3704 34.8407C10.5331 34.7375 10.6635 34.5906 10.7465 34.4168L13.5089 28.6357L16.2716 34.4168C16.3546 34.5906 16.4849 34.7375 16.6476 34.8406C16.8102 34.9438 16.9986 34.999 17.1912 35H17.1968C17.3885 34.9999 17.5764 34.9462 17.739 34.8448C17.9017 34.7434 18.0328 34.5985 18.1173 34.4265L20.1617 30.2611L24.6865 31.2873C24.8744 31.3299 25.0705 31.3187 25.2523 31.255C25.4341 31.1913 25.5943 31.0777 25.7145 30.9272C25.8347 30.7767 25.9101 30.5953 25.932 30.4039C25.954 30.2125 25.9215 30.0188 25.8384 29.845L22.8344 23.5581C23.1757 23.123 23.4185 22.619 23.5457 22.0808C24.2932 21.7591 24.9258 21.2029 25.3381 20.4886C25.7504 19.7743 25.9159 18.9484 25.8211 18.1403C26.4131 17.5822 26.8174 16.8432 26.9605 16.0308ZM24.5952 14.29C24.7465 14.4839 24.8554 14.7072 24.915 14.9458C24.9745 15.1843 24.9834 15.4327 24.941 15.6749C24.898 15.9169 24.8047 16.1472 24.6671 16.3509C24.5296 16.5547 24.3509 16.7273 24.1426 16.8578C23.9486 16.979 23.8008 17.1615 23.7226 17.3764C23.6443 17.5913 23.6402 17.8261 23.7107 18.0437C23.7867 18.2775 23.8126 18.5247 23.787 18.7692C23.7614 19.0137 23.6848 19.2502 23.5621 19.4632C23.4389 19.676 23.2725 19.8605 23.0735 20.005C22.8746 20.1494 22.6476 20.2505 22.4071 20.3016C22.1835 20.3493 21.9821 20.4703 21.8352 20.6455C21.6882 20.8207 21.604 21.04 21.5959 21.2686C21.5871 21.5142 21.527 21.7553 21.4192 21.9763C21.3115 22.1973 21.1587 22.3932 20.9705 22.5514C20.7821 22.7093 20.5626 22.8258 20.3263 22.8935C20.0899 22.9612 19.842 22.9786 19.5986 22.9445C19.3721 22.9126 19.1415 22.9574 18.9434 23.0718C18.7453 23.1861 18.5912 23.3634 18.5055 23.5754C18.4133 23.8034 18.2744 24.0094 18.0976 24.1803C17.9208 24.3511 17.7101 24.4829 17.4791 24.5672C17.248 24.651 17.0019 24.6854 16.7567 24.6682C16.5115 24.651 16.2727 24.5826 16.0556 24.4673C15.8536 24.3599 15.6216 24.3232 15.3963 24.3629C15.1711 24.4026 14.9656 24.5166 14.8125 24.6866C14.6479 24.8691 14.4469 25.0152 14.2223 25.1152C13.9978 25.2152 13.7547 25.2671 13.5089 25.2673C13.2631 25.2671 13.0201 25.2152 12.7955 25.1152C12.571 25.0152 12.3699 24.8691 12.2053 24.6866C12.1092 24.5797 11.9916 24.4943 11.8603 24.4359C11.729 24.3774 11.5869 24.3473 11.4432 24.3474C11.2795 24.3474 11.1145 24.3864 10.9623 24.4673C10.7452 24.5826 10.5063 24.651 10.2611 24.6682C10.0159 24.6854 9.76981 24.651 9.53874 24.5671C9.30782 24.4828 9.09715 24.3509 8.92035 24.1801C8.74354 24.0093 8.60452 23.8033 8.51226 23.5754C8.42652 23.3635 8.27238 23.1862 8.07436 23.0719C7.87633 22.9576 7.64577 22.9127 7.41933 22.9445C7.17587 22.9785 6.92798 22.9612 6.69166 22.8934C6.45534 22.8257 6.23585 22.7092 6.04736 22.5514C5.85921 22.3932 5.70635 22.1973 5.59862 21.9763C5.49089 21.7554 5.4307 21.5143 5.42194 21.2686C5.41391 21.04 5.32972 20.8207 5.18273 20.6455C5.03574 20.4703 4.8344 20.3493 4.61072 20.3016C4.37031 20.2504 4.14332 20.1493 3.9444 20.0049C3.74548 19.8604 3.57905 19.6759 3.45585 19.4632C3.33324 19.2501 3.25665 19.0137 3.23103 18.7692C3.20541 18.5247 3.23132 18.2775 3.3071 18.0437C3.37768 17.8261 3.37351 17.5913 3.29527 17.3764C3.21703 17.1615 3.06919 16.979 2.87528 16.8578C2.66694 16.7274 2.48826 16.5547 2.35079 16.351C2.21332 16.1472 2.12011 15.9169 2.07718 15.6749C2.03471 15.4327 2.04351 15.1843 2.10302 14.9458C2.16253 14.7073 2.27143 14.4839 2.42267 14.29C2.56335 14.1098 2.63977 13.8877 2.63977 13.6591C2.63977 13.4304 2.56335 13.2083 2.42267 13.0281C2.27143 12.8342 2.16253 12.6108 2.10302 12.3723C2.04351 12.1338 2.03471 11.8854 2.07718 11.6432C2.12008 11.4012 2.21327 11.1709 2.35074 10.9671C2.48822 10.7634 2.66691 10.5907 2.87528 10.4604C3.06919 10.3391 3.21703 10.1566 3.29527 9.94172C3.37351 9.72684 3.37768 9.49197 3.3071 9.27445C3.23132 9.04058 3.20541 8.79342 3.23103 8.54891C3.25665 8.30441 3.33324 8.06799 3.45585 7.8549C3.57902 7.64217 3.74544 7.45763 3.94437 7.31321C4.14329 7.1688 4.37029 7.06771 4.61072 7.01647C4.83438 6.96882 5.0357 6.84777 5.18269 6.67257C5.32967 6.49737 5.41388 6.27808 5.42194 6.04953C5.4307 5.80386 5.49089 5.56276 5.59862 5.3418C5.70635 5.12083 5.85921 4.92492 6.04736 4.7667C6.23583 4.60887 6.45533 4.49234 6.69165 4.42464C6.92797 4.35693 7.17587 4.33956 7.41933 4.37363C7.88533 4.43933 8.33576 4.17874 8.51226 3.7424C8.60456 3.51457 8.7436 3.30863 8.9204 3.13785C9.09721 2.96707 9.30785 2.83526 9.53874 2.75092C9.7698 2.66703 10.0159 2.63258 10.2611 2.64978C10.5063 2.66698 10.7452 2.73546 10.9623 2.85079C11.1642 2.95803 11.3963 2.9947 11.6215 2.95498C11.8467 2.91526 12.0522 2.80143 12.2053 2.63156C12.3699 2.44901 12.571 2.303 12.7955 2.20296C13.0201 2.10293 13.2631 2.05108 13.5089 2.05078C13.7547 2.05103 13.9978 2.10285 14.2223 2.20289C14.4469 2.30293 14.6479 2.44897 14.8125 2.63156C14.9656 2.80148 15.1711 2.91535 15.3963 2.95507C15.6216 2.99479 15.8536 2.95809 16.0556 2.85079C16.2727 2.73554 16.5116 2.66711 16.7569 2.64991C17.0021 2.63272 17.2483 2.66716 17.4794 2.75099C17.7103 2.8353 17.9209 2.96713 18.0977 3.13795C18.2745 3.30877 18.4134 3.51479 18.5056 3.74268C18.5914 3.95466 18.7456 4.13188 18.9436 4.2462C19.1417 4.36052 19.3723 4.40537 19.5988 4.37363C19.8422 4.3396 20.0901 4.357 20.3264 4.4247C20.5628 4.4924 20.7823 4.60891 20.9708 4.7667C21.1589 4.92493 21.3117 5.12086 21.4194 5.34182C21.527 5.56279 21.5872 5.80388 21.5959 6.04953C21.604 6.27811 21.6882 6.49744 21.8353 6.67264C21.9823 6.84785 22.1837 6.96887 22.4074 7.01647C22.6478 7.06771 22.8747 7.16881 23.0736 7.31323C23.2725 7.45765 23.4389 7.64218 23.562 7.8549C23.6847 8.06794 23.7614 8.30436 23.787 8.54887C23.8127 8.79339 23.7868 9.04057 23.711 9.27445C23.6404 9.49194 23.6445 9.72679 23.7227 9.94167C23.8009 10.1566 23.9487 10.3391 24.1426 10.4604C24.351 10.5907 24.5297 10.7634 24.6672 10.9671C24.8048 11.1709 24.898 11.4012 24.941 11.6432C24.9835 11.8854 24.9746 12.1338 24.9151 12.3723C24.8556 12.6109 24.7467 12.8342 24.5954 13.0281C24.4547 13.2083 24.3782 13.4303 24.3781 13.659C24.3781 13.8877 24.4545 14.1098 24.5952 14.29ZM19.825 28.0818C19.5999 28.0308 19.3643 28.0572 19.1561 28.1567C18.9479 28.2561 18.7793 28.4229 18.6776 28.6301L17.2092 31.6224L15.0053 27.0105C15.2817 26.8923 15.5432 26.7418 15.7843 26.5621C16.5696 26.7979 17.4101 26.7741 18.1809 26.4943C18.9558 26.2123 19.6135 25.6858 20.0602 25.0059C20.4311 24.9843 20.7969 24.9086 21.146 24.7814L23.0755 28.8191L19.825 28.0818ZM8.34061 28.6301C8.23885 28.423 8.07026 28.2562 7.86207 28.1568C7.65388 28.0573 7.41824 28.0309 7.1932 28.0818L3.94264 28.8188L5.87215 24.7811C6.22122 24.9084 6.58698 24.9842 6.9579 25.0059C7.40463 25.6858 8.06232 26.2121 8.83724 26.4941C9.61243 26.7763 10.4546 26.7958 11.2338 26.5621C11.4749 26.7417 11.7364 26.8921 12.0127 27.0102L9.80897 31.6221L8.34061 28.6301Z" fill="#A856F7"/>
<path d="M13.5099 4.67194C8.55594 4.67194 4.52539 8.70221 4.52539 13.6564C4.52539 18.6107 8.55594 22.6409 13.5099 22.6409C18.4641 22.6409 22.4946 18.6106 22.4946 13.6564C22.4946 8.70228 18.4641 4.67194 13.5099 4.67194ZM13.5099 20.5901C9.68681 20.5901 6.57618 17.4798 6.57618 13.6564C6.57618 9.83309 9.68681 6.72273 13.5099 6.72273C17.3332 6.72273 20.4439 9.83309 20.4439 13.6564C20.4439 17.4798 17.3332 20.5901 13.5099 20.5901Z" fill="#A856F7"/>
<path d="M11.946 16.604C12.1382 16.7962 12.399 16.9043 12.6709 16.9043C12.9428 16.9043 13.2036 16.7962 13.3959 16.604L17.8393 12.1606C18.2398 11.76 18.2398 11.1109 17.8393 10.7103C17.439 10.3101 16.7896 10.3101 16.3893 10.7103L12.6709 14.4288L10.6274 12.3854C10.2271 11.9848 9.57764 11.9848 9.17739 12.3854C8.77681 12.7857 8.77681 13.4351 9.17739 13.8354L11.946 16.604Z" fill="#A856F7"/>
</svg>
