<svg width="44" height="44" viewBox="0 0 44 44" fill="none" xmlns="http://www.w3.org/2000/svg">
<path d="M31.5171 13.8122C28.4213 13.7031 24.8748 11.9246 22.4176 9.77909C22.3763 9.74532 22.3242 9.72665 22.2707 9.72665C22.2157 9.72674 22.1626 9.74643 22.1207 9.78204C19.678 11.912 16.1211 13.7023 13.025 13.8122L12.7267 13.8181V23.3621C12.7267 26.4106 13.7777 28.6263 15.4356 30.3242C17.0247 31.9518 19.2258 33.1561 21.7559 34.0811L22.2662 34.2628L22.2965 34.2732C25.0304 33.3191 27.4153 32.063 29.1072 30.3272C30.7643 28.6271 31.8154 26.4106 31.8154 23.3621V13.8181L31.5171 13.8122ZM34.5421 23.3621C34.5421 27.1309 33.2069 30.0276 31.0599 32.2304C29.0819 34.2597 26.4682 35.6476 23.7322 36.6557L23.1835 36.8528C23.1798 36.8541 23.1761 36.8553 23.1724 36.8565C22.5887 37.0543 21.9558 37.0468 21.3763 36.8388V36.8403C18.4349 35.8245 15.5968 34.3931 13.4844 32.2296C11.3348 30.0281 10 27.1308 10 23.3621V13.8181C10 13.095 10.2871 12.4012 10.7984 11.8898C11.3097 11.3784 12.0035 11.0908 12.7267 11.0907L12.9438 11.087C15.2058 11.0012 18.1844 9.59984 20.3379 7.71859L20.349 7.70899L20.4509 7.62553C20.9698 7.22076 21.6101 7.00008 22.2707 7C22.9313 7 23.5722 7.22068 24.0911 7.62553L24.1931 7.70899L24.2049 7.71933L24.6332 8.07899C26.8229 9.84516 29.6716 11.0907 31.8154 11.0907C32.5386 11.0908 33.2324 11.3784 33.7437 11.8898C34.255 12.4012 34.5421 13.095 34.5421 13.8181V23.3621Z" fill="#3C83F6"/>
<path d="M25.5411 17.5908C26.0766 17.154 26.8668 17.1854 27.366 17.6846C27.898 18.217 27.898 19.0798 27.366 19.6122L21.9119 25.0662C21.4127 25.5654 20.6226 25.5968 20.087 25.16L19.9836 25.0662L17.257 22.3396L17.1632 22.2362C16.7262 21.7006 16.7577 20.9105 17.257 20.4113C17.7561 19.9123 18.5457 19.8809 19.0812 20.3175L19.1845 20.4113L20.9474 22.1734L25.4377 17.6846L25.5411 17.5908Z" fill="#3C83F6"/>
</svg>
