<svg width="44" height="44" viewBox="0 0 44 44" fill="none" xmlns="http://www.w3.org/2000/svg">
<path d="M5.00586 35.5003C5.00578 32.9022 5.75527 30.3592 7.16462 28.1766C8.57399 25.994 10.5831 24.2642 12.9511 23.1953C15.3192 22.1263 17.9461 21.7637 20.5153 22.1504C22.924 22.513 25.1866 23.52 27.0655 25.0607L27.436 25.376L27.5457 25.4832C28.062 26.0411 28.082 26.9101 27.5685 27.4925C27.0546 28.075 26.1895 28.1637 25.5714 27.7208L25.4511 27.6257L25.1627 27.3804C23.7014 26.1822 21.9418 25.3988 20.0684 25.1168C18.0702 24.816 16.0279 25.0988 14.1861 25.9301C12.3443 26.7615 10.7811 28.1064 9.68494 29.804C8.58876 31.5016 8.00546 33.4796 8.00554 35.5003C8.00559 36.3287 7.33412 37.0001 6.5057 37.0002C5.67731 37.0002 5.0059 36.3287 5.00586 35.5003Z" fill="#3C83F6"/>
<path d="M24.5059 15.9999C24.5059 12.6862 21.8194 9.99971 18.5057 9.99968C15.192 9.99968 12.5055 12.6862 12.5055 15.9999C12.5056 19.3135 15.192 22 18.5057 22C21.8194 22 24.5059 19.3135 24.5059 15.9999ZM27.5056 15.9999C27.5055 20.9703 23.4762 24.9997 18.5057 24.9997C13.5352 24.9997 9.50589 20.9704 9.50586 15.9999C9.50586 11.0293 13.5352 7 18.5057 7C23.4762 7.00003 27.5056 11.0293 27.5056 15.9999Z" fill="#3C83F6"/>
<path d="M35.559 28.3363C36.1482 27.8557 37.0175 27.8903 37.5667 28.4395C38.152 29.0252 38.152 29.9743 37.5667 30.56L31.5665 36.5602C31.0173 37.1094 30.148 37.144 29.5589 36.6634L29.4451 36.5602L26.4454 33.5605L26.3422 33.4468C25.8615 32.8576 25.8962 31.9884 26.4454 31.4391C26.9946 30.8902 27.8632 30.8556 28.4523 31.336L28.566 31.4391L30.5054 33.3777L35.4453 28.4395L35.559 28.3363Z" fill="#3C83F6"/>
</svg>
