<svg width="69" height="46" viewBox="0 0 69 46" fill="none" xmlns="http://www.w3.org/2000/svg">
<path d="M9.793 37.1789C9.72895 37.1789 9.66354 37.1748 9.59677 37.1653C6.49223 36.719 3.48903 35.7359 0.721528 34.26C0.41056 34.0854 0.180358 33.7959 0.0802408 33.4536C-0.0198767 33.1113 0.0180546 32.7434 0.185908 32.4287C0.353762 32.114 0.638185 31.8776 0.978243 31.7701C1.3183 31.6626 1.68694 31.6925 2.00519 31.8535C4.49287 33.1821 7.19339 34.0661 9.98514 34.4658C10.3249 34.5165 10.6329 34.6935 10.8478 34.9615C11.0627 35.2295 11.1686 35.5686 11.1443 35.9112C11.1201 36.2539 10.9674 36.5747 10.7169 36.8097C10.4664 37.0447 10.1365 37.1766 9.793 37.1789ZM58.3432 37.1789C57.9984 37.1789 57.6665 37.0482 57.4143 36.8132C57.1621 36.5782 57.0083 36.2564 56.984 35.9125C56.9596 35.5687 57.0665 35.2284 57.283 34.9601C57.4996 34.6919 57.8097 34.5158 58.151 34.4672C60.9428 34.0676 63.6434 33.1836 66.131 31.8549C66.4479 31.7055 66.8102 31.6837 67.1428 31.794C67.4754 31.9043 67.7528 32.1382 67.9177 32.4474C68.0827 32.7566 68.1224 33.1173 68.0288 33.455C67.9351 33.7926 67.7152 34.0813 67.4146 34.2614C64.6471 35.7373 61.6439 36.7204 58.5394 37.1666C58.4743 37.1747 58.4088 37.1788 58.3432 37.1789ZM44.0894 24.946C43.8436 24.9467 43.6023 24.8809 43.391 24.7554C43.1798 24.63 43.0064 24.4496 42.8894 24.2335C42.7724 24.0175 42.7162 23.7737 42.7266 23.5282C42.7371 23.2827 42.8139 23.0447 42.9488 22.8393C43.8931 21.385 45.1866 20.1903 46.7111 19.3641C48.2357 18.5379 49.9428 18.1065 51.6768 18.1094C52.0383 18.1094 52.3849 18.253 52.6404 18.5085C52.896 18.7641 53.0395 19.1107 53.0395 19.4721C53.0395 19.8335 52.896 20.1801 52.6404 20.4356C52.3849 20.6912 52.0383 20.8348 51.6768 20.8348C50.3965 20.8323 49.1358 21.1506 48.0101 21.7607C46.8844 22.3708 45.9295 23.2532 45.2327 24.3274C45.109 24.5178 44.9395 24.6742 44.7398 24.7823C44.5401 24.8904 44.3164 24.9467 44.0894 24.946Z" fill="#3C83F6"/>
<path d="M54.6968 20.8366C49.866 20.8366 45.7861 16.7567 45.7861 11.9273C45.7861 7.09797 49.866 3.01807 54.6968 3.01807C59.5262 3.01807 63.6061 7.09797 63.6061 11.9273C63.6061 16.7567 59.5262 20.8366 54.6968 20.8366ZM54.6968 5.74345C51.3446 5.74345 48.5115 8.57513 48.5115 11.9273C48.5115 15.2796 51.3446 18.1112 54.6968 18.1112C58.049 18.1112 60.8807 15.2796 60.8807 11.9273C60.8807 8.57513 58.049 5.74345 54.6968 5.74345Z" fill="#3C83F6"/>
<path d="M66.7717 29.8912C66.4103 29.8912 66.0637 29.7476 65.8081 29.4921C65.5526 29.2365 65.409 28.8899 65.409 28.5285C65.4065 26.4888 64.5951 24.5333 63.1528 23.091C61.7105 21.6487 59.755 20.8373 57.7152 20.8348C57.3538 20.8348 57.0072 20.6912 56.7517 20.4356C56.4961 20.1801 56.3525 19.8335 56.3525 19.4721C56.3525 19.1107 56.4961 18.7641 56.7517 18.5085C57.0072 18.2529 57.3538 18.1094 57.7152 18.1094C63.4604 18.1094 68.1344 22.7848 68.1344 28.5285C68.1344 28.8899 67.9908 29.2365 67.7353 29.4921C67.4797 29.7476 67.1331 29.8912 66.7717 29.8912Z" fill="#3C83F6"/>
<path d="M57.7177 20.8348H51.6795C51.3181 20.8348 50.9715 20.6912 50.716 20.4356C50.4604 20.1801 50.3168 19.8335 50.3168 19.4721C50.3168 19.1107 50.4604 18.7641 50.716 18.5085C50.9715 18.2529 51.3181 18.1094 51.6795 18.1094H57.7177C58.0791 18.1094 58.4257 18.2529 58.6812 18.5085C58.9368 18.7641 59.0804 19.1107 59.0804 19.4721C59.0804 19.8335 58.9368 20.1801 58.6812 20.4356C58.4257 20.6912 58.0791 20.8348 57.7177 20.8348ZM66.7741 34.4208C66.4127 34.4208 66.0661 34.2772 65.8106 34.0217C65.555 33.7661 65.4114 33.4195 65.4114 33.0581V28.5299C65.4114 28.1685 65.555 27.8219 65.8106 27.5663C66.0661 27.3108 66.4127 27.1672 66.7741 27.1672C67.1356 27.1672 67.4822 27.3108 67.7377 27.5663C67.9933 27.8219 68.1368 28.1685 68.1368 28.5299V33.0581C68.1368 33.4195 67.9933 33.7661 67.7377 34.0217C67.4822 34.2772 67.1356 34.4208 66.7741 34.4208ZM17.9691 35.4265C17.6077 35.4265 17.2611 35.2829 17.0056 35.0273C16.75 34.7718 16.6064 34.4252 16.6064 34.0638C16.6064 26.6535 22.635 20.6263 30.044 20.6263C30.4054 20.6263 30.752 20.7698 31.0076 21.0254C31.2631 21.2809 31.4067 21.6276 31.4067 21.989C31.4067 22.3504 31.2631 22.697 31.0076 22.9525C30.752 23.2081 30.4054 23.3517 30.044 23.3517C24.1367 23.3517 19.3318 28.1565 19.3318 34.0638C19.3318 34.4252 19.1883 34.7718 18.9327 35.0273C18.6772 35.2829 18.3306 35.4265 17.9691 35.4265Z" fill="#3C83F6"/>
<path d="M38.0926 23.3517H30.0418C29.6804 23.3517 29.3337 23.2081 29.0782 22.9525C28.8226 22.697 28.6791 22.3504 28.6791 21.989C28.6791 21.6276 28.8226 21.281 29.0782 21.0254C29.3337 20.7699 29.6804 20.6263 30.0418 20.6263H38.0926C38.454 20.6263 38.8006 20.7699 39.0561 21.0254C39.3117 21.281 39.4553 21.6276 39.4553 21.989C39.4553 22.3504 39.3117 22.697 39.0561 22.9525C38.8006 23.2081 38.454 23.3517 38.0926 23.3517ZM24.0459 24.946C23.8189 24.9463 23.5954 24.8898 23.3957 24.7818C23.1961 24.6738 23.0265 24.5175 22.9026 24.3274C22.2054 23.2535 21.2505 22.3713 20.1248 21.7612C18.9992 21.1511 17.7387 20.8326 16.4584 20.8348C16.097 20.8348 15.7504 20.6912 15.4948 20.4357C15.2393 20.1801 15.0957 19.8335 15.0957 19.4721C15.0957 19.1107 15.2393 18.7641 15.4948 18.5085C15.7504 18.253 16.097 18.1094 16.4584 18.1094C18.1925 18.1063 19.8997 18.5375 21.4243 19.3637C22.9489 20.1899 24.2423 21.3848 25.1865 22.8393C25.3204 23.0448 25.3964 23.2828 25.4064 23.5279C25.4164 23.7731 25.36 24.0163 25.2432 24.2321C25.1264 24.4479 24.9535 24.6281 24.7427 24.7537C24.532 24.8794 24.2912 24.9458 24.0459 24.946ZM17.9669 41.4646C17.6055 41.4646 17.2589 41.321 17.0033 41.0654C16.7478 40.8099 16.6042 40.4633 16.6042 40.1019V34.0638C16.6042 33.7024 16.7478 33.3558 17.0033 33.1002C17.2589 32.8447 17.6055 32.7011 17.9669 32.7011C18.3283 32.7011 18.6749 32.8447 18.9305 33.1002C19.186 33.3558 19.3296 33.7024 19.3296 34.0638V40.1019C19.3296 40.4633 19.186 40.8099 18.9305 41.0654C18.6749 41.321 18.3283 41.4646 17.9669 41.4646Z" fill="#3C83F6"/>
<path d="M34.0668 23.3524C27.8734 23.3524 22.6406 18.1196 22.6406 11.9262C22.6406 5.73274 27.8734 0.5 34.0668 0.5C40.2603 0.5 45.4931 5.73274 45.4931 11.9262C45.4931 18.1196 40.2603 23.3524 34.0668 23.3524ZM34.0668 3.22538C29.3505 3.22538 25.366 7.2099 25.366 11.9262C25.366 16.6425 29.3505 20.627 34.0668 20.627C38.7831 20.627 42.7677 16.6425 42.7677 11.9262C42.7677 7.2099 38.7831 3.22538 34.0668 3.22538Z" fill="#3C83F6"/>
<path d="M50.167 35.4271C49.8056 35.4271 49.459 35.2836 49.2035 35.028C48.9479 34.7725 48.8044 34.4259 48.8044 34.0645C48.8044 28.1572 43.9995 23.3523 38.0922 23.3523C37.7308 23.3523 37.3842 23.2088 37.1286 22.9532C36.8731 22.6977 36.7295 22.3511 36.7295 21.9896C36.7295 21.6282 36.8731 21.2816 37.1286 21.0261C37.3842 20.7705 37.7308 20.627 38.0922 20.627C45.5025 20.627 51.5297 26.6555 51.5297 34.0645C51.5297 34.4259 51.3862 34.7725 51.1306 35.028C50.8751 35.2836 50.5285 35.4271 50.167 35.4271Z" fill="#3C83F6"/>
<path d="M50.1654 41.4642C49.804 41.4642 49.4574 41.3206 49.2019 41.065C48.9463 40.8095 48.8027 40.4629 48.8027 40.1015V34.0634C48.8027 33.702 48.9463 33.3554 49.2019 33.0998C49.4574 32.8443 49.804 32.7007 50.1654 32.7007C50.5268 32.7007 50.8734 32.8443 51.129 33.0998C51.3846 33.3554 51.5281 33.702 51.5281 34.0634V40.1015C51.5281 40.4629 51.3846 40.8095 51.129 41.065C50.8734 41.3206 50.5268 41.4642 50.1654 41.4642Z" fill="#3C83F6"/>
<path d="M34.0714 45.5C28.3208 45.5 22.5716 44.1019 17.3293 41.307C17.0287 41.1269 16.8088 40.8382 16.7152 40.5006C16.6215 40.1629 16.6613 39.8022 16.8262 39.493C16.9911 39.1839 17.2686 38.9499 17.6012 38.8396C17.9337 38.7293 18.296 38.7511 18.613 38.9005C23.3692 41.4428 28.679 42.7729 34.0721 42.7729C39.4652 42.7729 44.775 41.4428 49.5312 38.9005C49.8482 38.7511 50.2104 38.7293 50.543 38.8396C50.8756 38.9499 51.1531 39.1839 51.318 39.493C51.4829 39.8022 51.5226 40.1629 51.429 40.5006C51.3353 40.8382 51.1155 41.1269 50.8149 41.307C45.6624 44.0576 39.9121 45.4977 34.0714 45.5ZM13.4415 20.8366C8.61214 20.8366 4.53223 16.7567 4.53223 11.9273C4.53223 7.09797 8.61214 3.01807 13.4415 3.01807C18.2709 3.01807 22.3509 7.09797 22.3509 11.9273C22.3509 16.7567 18.2709 20.8366 13.4415 20.8366ZM13.4415 5.74345C10.0893 5.74345 7.25762 8.57513 7.25762 11.9273C7.25762 15.2796 10.0893 18.1112 13.4415 18.1112C16.7938 18.1112 19.6255 15.2796 19.6255 11.9273C19.6255 8.57513 16.7938 5.74345 13.4415 5.74345Z" fill="#3C83F6"/>
<path d="M1.3627 29.8912C1.00129 29.8912 0.65468 29.7476 0.399125 29.4921C0.14357 29.2365 0 28.8899 0 28.5285C0 22.7834 4.67541 18.1094 10.4192 18.1094C10.7806 18.1094 11.1272 18.2529 11.3828 18.5085C11.6383 18.7641 11.7819 19.1107 11.7819 19.4721C11.7819 19.8335 11.6383 20.1801 11.3828 20.4356C11.1272 20.6912 10.7806 20.8348 10.4192 20.8348C8.37921 20.8366 6.42332 21.6477 4.98084 23.0902C3.53837 24.5327 2.7272 26.4886 2.72539 28.5285C2.72539 28.8899 2.58182 29.2365 2.32627 29.4921C2.07071 29.7476 1.72411 29.8912 1.3627 29.8912Z" fill="#3C83F6"/>
<path d="M16.4573 20.8348H10.4192C10.0578 20.8348 9.71116 20.6912 9.45561 20.4356C9.20005 20.1801 9.05648 19.8335 9.05648 19.4721C9.05648 19.1107 9.20005 18.7641 9.45561 18.5085C9.71116 18.2529 10.0578 18.1094 10.4192 18.1094H16.4573C16.8187 18.1094 17.1653 18.2529 17.4209 18.5085C17.6764 18.7641 17.82 19.1107 17.82 19.4721C17.82 19.8335 17.6764 20.1801 17.4209 20.4356C17.1653 20.6912 16.8187 20.8348 16.4573 20.8348ZM1.3627 34.4208C1.00129 34.4208 0.65468 34.2772 0.399125 34.0217C0.14357 33.7661 0 33.4195 0 33.0581V28.5299C0 28.1685 0.14357 27.8219 0.399125 27.5663C0.65468 27.3108 1.00129 27.1672 1.3627 27.1672C1.72411 27.1672 2.07071 27.3108 2.32627 27.5663C2.58182 27.8219 2.72539 28.1685 2.72539 28.5299V33.0581C2.72539 33.4195 2.58182 33.7661 2.32627 34.0217C2.07071 34.2772 1.72411 34.4208 1.3627 34.4208Z" fill="#3C83F6"/>
</svg>
