<svg width="44" height="44" viewBox="0 0 44 44" fill="none" xmlns="http://www.w3.org/2000/svg">
<path d="M20 37.5V16.4998C20 15.6714 20.6714 15 21.4998 15C22.3283 15 22.9997 15.6714 22.9997 16.4998V37.5C22.9995 38.3283 22.3282 38.9998 21.4998 38.9998C20.6715 38.9998 20.0002 38.3283 20 37.5Z" fill="#A856F7"/>
<path d="M27.5 11.9997C26.3066 11.9997 25.1614 12.4736 24.3175 13.3175C23.5264 14.1087 23.0606 15.1644 23.0054 16.2766L22.9997 16.5L22.9924 16.6536C22.9154 17.4097 22.2763 17.9998 21.4998 17.9998C20.6715 17.9998 20.0001 17.3283 20 16.5C20 15.3065 19.5253 14.1614 18.6813 13.3175C17.8375 12.4738 16.693 11.9997 15.4997 11.9997H7.99968V31.5H16.9995L17.2969 31.5073C18.78 31.5808 20.1873 32.2024 21.2423 33.2574C21.3315 33.3466 21.4169 33.4388 21.4998 33.5328C21.5828 33.4388 21.6682 33.3466 21.7574 33.2574C22.8825 32.1323 24.4082 31.5001 25.9994 31.5H35V11.9997H27.5ZM37.9997 31.5C37.9996 32.2955 37.6831 33.0589 37.1206 33.6214C36.5581 34.1837 35.7953 34.4996 35 34.4997H25.9994C25.204 34.4998 24.4413 34.8157 23.8788 35.378C23.3162 35.9405 22.9998 36.7038 22.9997 37.4994L22.9924 37.6529C22.9156 38.4093 22.2765 38.9999 21.4998 39C20.7232 39 20.0841 38.4093 20.0073 37.6529L20 37.4994L19.9959 37.3507C19.9591 36.6093 19.6483 35.9054 19.1209 35.378C18.5934 34.8506 17.8897 34.5404 17.1482 34.5037L16.9995 34.4997H7.99968C7.20413 34.4996 6.44085 34.1839 5.87829 33.6214C5.3509 33.094 5.04009 32.3901 5.00325 31.6487L5 31.5V11.9997C5.00004 11.2041 5.31572 10.4409 5.87829 9.87829C6.44086 9.31572 7.20409 9.00004 7.99968 9H15.4997C17.4886 9 19.3963 9.78984 20.8027 11.1961C21.0555 11.4489 21.2879 11.7187 21.4998 12.0013C21.7117 11.7187 21.9434 11.4488 22.1961 11.1961C23.6026 9.78965 25.5109 9 27.5 9H35C35.7954 9.0001 36.5581 9.31596 37.1206 9.87829C37.6831 10.4409 37.9996 11.2041 37.9997 11.9997V31.5Z" fill="#A856F7"/>
</svg>
