<svg width="44" height="44" viewBox="0 0 44 44" fill="none" xmlns="http://www.w3.org/2000/svg">
<path d="M7 14.5001V11.4996C7.00008 10.3062 7.47401 9.1617 8.31786 8.31786C9.1617 7.47401 10.3062 7.00008 11.4996 7H14.5001L14.6536 7.00731C15.4098 7.0843 15.9999 7.72333 15.9999 8.49985C15.9999 9.27638 15.4098 9.91541 14.6536 9.99239L14.5001 9.99971H11.4996C11.1018 9.99979 10.7205 10.158 10.4393 10.4393C10.158 10.7205 9.99979 11.1018 9.99971 11.4996V14.5001C9.99959 15.3284 9.32821 15.9999 8.49985 15.9999C7.67149 15.9999 7.00011 15.3284 7 14.5001Z" fill="#A856F7"/>
<path d="M34.0002 14.5001V11.4996C34.0001 11.1019 33.8418 10.7205 33.5607 10.4393C33.3146 10.1931 32.9916 10.0411 32.6482 10.007L32.4996 9.99971H29.4999C28.6714 9.99971 28 9.32828 28 8.49985C28 7.67142 28.6714 7 29.4999 7H32.4996L32.723 7.00569C33.8352 7.06087 34.8909 7.52668 35.6821 8.31786C36.5259 9.16169 36.9998 10.3062 36.9999 11.4996V14.5001C36.9998 15.3283 36.3283 15.9998 35.5001 15.9999C34.6717 15.9999 34.0003 15.3284 34.0002 14.5001Z" fill="#A856F7"/>
<path d="M34.0002 32.4996V29.4999C34.0002 28.6714 34.6716 28 35.5001 28C36.3284 28.0001 36.9999 28.6715 36.9999 29.4999V32.4996C36.9999 33.693 36.526 34.8382 35.6821 35.6821C34.8382 36.526 33.693 36.9999 32.4996 36.9999H29.4999C28.6715 36.9999 28.0001 36.3284 28 35.5001C28 34.6716 28.6714 34.0002 29.4999 34.0002H32.4996C32.8974 34.0002 33.2794 33.842 33.5607 33.5607C33.842 33.2794 34.0002 32.8974 34.0002 32.4996Z" fill="#A856F7"/>
<path d="M7 32.4996V29.4999C7 28.6714 7.67142 28 8.49985 28C9.32828 28 9.99971 28.6714 9.99971 29.4999V32.4996L10.007 32.6482C10.0411 32.9916 10.1931 33.3146 10.4393 33.5607C10.7205 33.8418 11.1019 34.0001 11.4996 34.0002H14.5001L14.6536 34.0075C15.4098 34.0845 15.9999 34.7236 15.9999 35.5001C15.9998 36.2765 15.4098 36.9148 14.6536 36.9918L14.5001 36.9999H11.4996C10.3062 36.9998 9.16169 36.5259 8.31786 35.6821C7.52668 34.8909 7.06087 33.8352 7.00569 32.723L7 32.4996Z" fill="#A856F7"/>
<path d="M15.0999 23.8C15.7609 23.3043 16.6981 23.4367 17.1961 24.095L17.2026 24.1031C17.2116 24.1145 17.2284 24.1356 17.253 24.1649C17.3027 24.2241 17.3837 24.3167 17.4935 24.4313C17.7144 24.6618 18.0462 24.9744 18.4758 25.2869C19.3414 25.9164 20.5387 26.4999 22.0004 26.4999C23.462 26.4999 24.6586 25.9164 25.5241 25.2869C25.954 24.9743 26.2863 24.6619 26.5073 24.4313C26.617 24.3169 26.6972 24.2241 26.7469 24.1649C26.7716 24.1354 26.7892 24.1144 26.7981 24.1031C26.799 24.102 26.7998 24.1008 26.8006 24.0999C27.2977 23.4374 28.2374 23.3032 28.9 23.8C29.5628 24.2971 29.6969 25.2376 29.1998 25.9003L27.4912 24.6182C27.6307 24.7229 27.7982 24.8489 27.9998 25.0001C29.1843 25.8885 29.2 25.9005 29.1998 25.9011L29.1966 25.9044C29.1954 25.906 29.194 25.9081 29.1925 25.9101C29.1895 25.914 29.186 25.9186 29.182 25.9239C29.1737 25.9347 29.1631 25.9483 29.1503 25.9645C29.1244 25.9972 29.0895 26.0412 29.0455 26.0937C28.9576 26.1984 28.8328 26.34 28.6733 26.5064C28.3553 26.8383 27.8901 27.2757 27.2889 27.713C26.092 28.5834 24.2886 29.5004 22.0004 29.5005C19.7121 29.5005 17.9088 28.5835 16.7119 27.713C16.1106 27.2756 15.6455 26.8384 15.3274 26.5064C15.1679 26.34 15.0432 26.1985 14.9553 26.0937C14.9113 26.0412 14.8763 25.9972 14.8505 25.9645C14.8376 25.9482 14.8263 25.9347 14.818 25.9239C14.8139 25.9186 14.8104 25.914 14.8074 25.9101C14.8059 25.9081 14.8046 25.906 14.8034 25.9044C14.8028 25.9036 14.8023 25.9027 14.8017 25.902L14.8009 25.9011C14.8006 25.9006 14.8002 25.9001 16.0002 25.0001C16.0316 24.9765 16.0621 24.9534 16.092 24.931L14.8001 25.9003C14.3031 25.2376 14.4373 24.2971 15.0999 23.8Z" fill="#A856F7"/>
<path d="M17.5145 16L17.668 16.0073C18.4245 16.084 19.0151 16.7231 19.0151 17.4999C19.0151 18.2766 18.4245 18.9157 17.668 18.9924L17.5145 18.9997H17.4999C16.6714 18.9997 16 18.3283 16 17.4999C16 16.6714 16.6714 16 17.4999 16H17.5145Z" fill="#A856F7"/>
<path d="M26.5145 16L26.668 16.0073C27.4245 16.084 28.0151 16.7231 28.0151 17.4999C28.0151 18.2766 27.4245 18.9157 26.668 18.9924L26.5145 18.9997H26.4999C25.6714 18.9997 25 18.3283 25 17.4999C25 16.6714 25.6714 16 26.4999 16H26.5145Z" fill="#A856F7"/>
</svg>
