<svg width="44" height="44" viewBox="0 0 44 44" fill="none" xmlns="http://www.w3.org/2000/svg">
<path d="M7 32.5002V26.4999C7 25.6714 7.67144 25 8.49988 25C9.32833 25 9.99976 25.6714 9.99976 26.4999V32.5002L10.0071 32.6481C10.0411 32.9915 10.1932 33.3143 10.4393 33.5605C10.7206 33.8418 11.1019 34 11.4996 34.0001H32.5004C32.8982 34.0001 33.2794 33.8418 33.5607 33.5605L33.6607 33.4508C33.8794 33.1839 34.0002 32.8483 34.0003 32.5002V26.4999C34.0003 25.6715 34.6719 25.0002 35.5002 25C36.3286 25 37.0009 25.6714 37.0009 26.4999V32.5002C37.0008 33.619 36.5839 34.6949 35.8365 35.5203L35.6822 35.682C34.8382 36.5258 33.6939 36.9999 32.5004 36.9999H11.4996C10.3062 36.9998 9.16174 36.5258 8.31788 35.682C7.52665 34.8907 7.0608 33.8352 7.00569 32.7228L7 32.5002Z" fill="#3C83F6"/>
<path d="M21.0533 7.33625C21.6425 6.85577 22.511 6.89027 23.0602 7.43943L30.5604 14.9388L30.6636 15.0534C31.144 15.6426 31.1095 16.5111 30.5604 17.0603C30.0113 17.6094 29.1427 17.6439 28.5535 17.1635L28.439 17.0603L21.9991 10.6204L15.56 17.0603L15.4462 17.1635C14.8571 17.6439 13.9885 17.6094 13.4393 17.0603C12.8536 16.4745 12.8536 15.5246 13.4393 14.9388L20.9388 7.43943L21.0533 7.33625Z" fill="#3C83F6"/>
<path d="M20.5 26.5001V8.49988C20.5 7.67144 21.1714 7 21.9999 7C22.8283 7 23.4998 7.67144 23.4998 8.49988V26.5001C23.4998 27.3285 22.8283 28 21.9999 28C21.1714 28 20.5 27.3285 20.5 26.5001Z" fill="#3C83F6"/>
</svg>
