<svg width="44" height="44" viewBox="0 0 44 44" fill="none" xmlns="http://www.w3.org/2000/svg">
<path fill-rule="evenodd" clip-rule="evenodd" d="M19.2038 6.54718C20.0085 6.18647 20.8805 6 21.7623 6C22.6442 6 23.5162 6.18647 24.3209 6.54718C25.4349 7.04701 26.2456 8.0101 26.9801 9.13472C27.7146 10.2593 28.5223 11.7908 29.528 13.7003L35.9695 25.9233C36.803 27.5051 37.4781 28.7882 37.9124 29.8427C38.3513 30.9094 38.6454 31.97 38.4762 33.055C38.3486 33.8488 38.0567 34.6073 37.6193 35.2819C37.1819 35.9565 36.6086 36.5325 35.9359 36.9729C35.0307 37.5733 33.9442 37.7958 32.7556 37.8979C31.5776 38 30.0736 38 28.2023 38H15.3224C13.4511 38 11.9471 38 10.7691 37.8979C9.58048 37.7943 8.49395 37.5733 7.58877 36.9729C6.91638 36.5325 6.34318 35.9568 5.90579 35.2825C5.4684 34.6082 5.17641 33.8501 5.04847 33.0565C4.87932 31.97 5.17343 30.9079 5.6123 29.8427C6.04508 28.7897 6.72169 27.5051 7.55525 25.9248L13.9967 13.7003C15.0024 11.7908 15.8101 10.2593 16.5431 9.13472C17.2791 8.00858 18.0883 7.04701 19.2038 6.54566V6.54718ZM23.0698 9.32521C22.6584 9.14156 22.2129 9.04665 21.7623 9.04665C21.3118 9.04665 20.8663 9.14156 20.4549 9.32521C20.1638 9.45626 19.7508 9.79761 19.0956 10.8003C18.4494 11.7908 17.7088 13.1943 16.6543 15.1937L10.2891 27.275C9.4098 28.9436 8.80178 30.0987 8.42995 31.0039C8.0566 31.9121 8.02155 32.3388 8.05965 32.5872C8.17242 33.3126 8.5991 33.9861 9.27418 34.4341C9.53324 34.6048 9.9965 34.7709 11.0327 34.8608C12.0629 34.9522 13.4344 34.9522 15.3956 34.9522H28.1276C30.0903 34.9522 31.4618 34.9522 32.492 34.8608C33.5282 34.7709 33.9915 34.6048 34.2505 34.4341C34.9256 33.9861 35.3523 33.3126 35.465 32.5872C35.5031 32.3388 35.4681 31.9121 35.0947 31.0024C34.7229 30.0987 34.1149 28.9436 33.2356 27.275L26.8704 15.1937C25.8174 13.1943 25.0753 11.7924 24.4291 10.8003C23.7739 9.79761 23.3624 9.45626 23.0698 9.32521ZM21.7547 16.6657C21.955 16.6647 22.1535 16.7032 22.3388 16.7789C22.5242 16.8547 22.6928 16.9662 22.835 17.1072C22.9773 17.2482 23.0903 17.4158 23.1678 17.6005C23.2452 17.7851 23.2854 17.9833 23.2862 18.1835L23.3198 25.8029C23.3206 26.003 23.2819 26.2013 23.2061 26.3865C23.1302 26.5717 23.0187 26.7401 22.8777 26.8822C22.7368 27.0243 22.5692 27.1372 22.3847 27.2145C22.2001 27.2919 22.0021 27.3321 21.802 27.3329C21.6019 27.3337 21.4035 27.295 21.2183 27.2192C21.0332 27.1434 20.8647 27.0318 20.7226 26.8908C20.5806 26.7499 20.4677 26.5824 20.3903 26.3978C20.313 26.2132 20.2728 26.0152 20.272 25.8151L20.2385 18.1957C20.2377 17.9956 20.2763 17.7973 20.3521 17.6121C20.428 17.4269 20.5396 17.2584 20.6805 17.1164C20.8214 16.9743 20.989 16.8614 21.1736 16.7841C21.3581 16.7067 21.5561 16.6665 21.7563 16.6657H21.7547ZM21.7623 28.8567C22.1665 28.8567 22.5541 29.0173 22.8399 29.3031C23.1257 29.5889 23.2862 29.9765 23.2862 30.3806V30.3959C23.2862 30.8 23.1257 31.1876 22.8399 31.4734C22.5541 31.7592 22.1665 31.9197 21.7623 31.9197C21.3582 31.9197 20.9706 31.7592 20.6848 31.4734C20.399 31.1876 20.2385 30.8 20.2385 30.3959V30.3806C20.2385 29.9765 20.399 29.5889 20.6848 29.3031C20.9706 29.0173 21.3582 28.8567 21.7623 28.8567Z" fill="#A856F7"/>
</svg>
