<svg width="37" height="30" viewBox="0 0 37 30" fill="none" xmlns="http://www.w3.org/2000/svg">
<path d="M10.6605 18.6751C11.4342 18.6751 12.1029 18.0418 12.1029 17.2327C12.1029 16.4591 11.4692 15.7912 10.6605 15.7912H1.44196C0.668299 15.7912 0 16.4241 0 17.2331C0 18.0068 0.632921 18.6751 1.44234 18.6751H10.6605ZM11.821 10.2337H4.28932C3.51567 10.2337 2.84698 10.8674 2.84698 11.676C2.84698 12.4846 3.48068 13.1183 4.28932 13.1183H11.821C12.5947 13.1183 13.2634 12.4846 13.2634 11.676C13.2634 10.8674 12.5947 10.2337 11.821 10.2337ZM11.821 21.3833H6.05318C5.27953 21.3833 4.61084 22.0162 4.61084 22.8252C4.61084 23.6342 5.24454 24.2676 6.05318 24.2676H11.821C12.5947 24.2676 13.2634 23.6339 13.2634 22.8252C13.2634 22.0166 12.5947 21.3833 11.821 21.3833ZM25.5381 4.53619V3.8228C25.5381 3.57386 25.6369 3.33511 25.8129 3.15904C25.9889 2.98298 26.2276 2.88402 26.4766 2.88391H27.1911C27.999 2.88391 28.6918 2.19345 28.6288 1.33349C28.5732 0.569551 27.8925 0 27.1266 0H21.0361C20.2278 0 19.535 0.69046 19.5976 1.55042C19.654 2.31436 20.3343 2.88391 21.1006 2.88391H21.7499C21.8732 2.88386 21.9953 2.90811 22.1093 2.95527C22.2232 3.00243 22.3268 3.07158 22.414 3.15877C22.5012 3.24596 22.5704 3.34948 22.6176 3.46341C22.6648 3.57735 22.6891 3.69947 22.6891 3.8228V4.53619C19.9106 4.85265 17.3078 6.04852 15.3032 7.98305C14.7403 8.5456 14.7053 9.425 15.2683 9.98756C15.8308 10.5505 16.7098 10.5855 17.2728 10.0225C19.1015 8.26452 21.5636 7.27976 24.1311 7.27976C30.1267 7.27976 34.9044 12.6137 33.9663 18.7377C33.3263 22.9173 30.0319 26.2837 25.865 27.0022C22.674 27.5519 19.5525 26.559 17.2728 24.4079C16.7098 23.8803 15.7954 23.8803 15.2679 24.4429C14.7403 25.0058 14.7403 25.9202 15.3029 26.4478C17.6946 28.7338 20.825 30 24.1311 30C31.2005 30 36.9334 24.2672 36.9334 17.1977C36.8984 10.6559 31.9038 5.23948 25.5381 4.53619Z" fill="#A856F7"/>
<path d="M24.0947 10.2344C23.321 10.2344 22.6523 10.8681 22.6523 11.6767V17.2338C22.6523 18.0075 23.2857 18.6758 24.0947 18.6758H28.8428C29.6164 18.6758 30.2847 18.0425 30.2847 17.2334C30.2847 16.4598 29.6514 15.7919 28.8424 15.7919H25.537V11.6767C25.537 10.8681 24.8683 10.2344 24.0947 10.2344Z" fill="#A856F7"/>
</svg>
