<svg width="44" height="44" viewBox="0 0 44 44" fill="none" xmlns="http://www.w3.org/2000/svg">
<path d="M24.323 7.00985C24.6636 6.97597 25.0072 7.02978 25.3216 7.1664L25.4765 7.24173L25.6242 7.33034C25.911 7.51858 26.1458 7.77727 26.3069 8.08208L26.3815 8.2379L26.4422 8.40036C26.568 8.78306 26.5801 9.19647 26.4736 9.58779C26.4688 9.60538 26.463 9.62284 26.4575 9.64022L23.8669 17.8474L23.845 17.9101H33.2958C33.8051 17.9092 34.3044 18.0538 34.7358 18.3274C35.1684 18.6017 35.5146 18.9947 35.7351 19.4601C35.9555 19.9256 36.0414 20.4446 35.9814 20.957C35.9215 21.4693 35.7184 21.9542 35.3966 22.3549C35.3715 22.3862 35.3447 22.4161 35.317 22.445L21.9569 36.3515L21.9554 36.3508C21.6603 36.6695 21.2727 36.8863 20.8465 36.9659C20.395 37.0502 19.9283 36.9772 19.5234 36.7584C19.1187 36.5396 18.7996 36.1883 18.6185 35.7622C18.4373 35.3361 18.4047 34.8602 18.5264 34.4131L18.5425 34.3599L21.1331 26.1527L21.155 26.09H11.7034V26.0892C11.1944 26.09 10.6953 25.9462 10.2641 25.6727C9.83172 25.3985 9.48534 25.0059 9.26489 24.5407C9.04447 24.0754 8.95869 23.5562 9.01855 23.0439C9.07848 22.5315 9.28158 22.0467 9.60333 21.646L9.68301 21.5551L23.0431 7.64935V7.65009C23.3384 7.33076 23.7268 7.11393 24.1535 7.03422L24.323 7.00985ZM11.7064 23.3636H21.1506C21.5856 23.3629 22.0146 23.4687 22.4006 23.6715C22.7877 23.875 23.1205 24.17 23.3699 24.5318C23.6193 24.8938 23.778 25.312 23.8326 25.7495C23.8843 26.1648 23.8391 26.5856 23.7039 26.9805L23.7046 26.9813L21.9941 32.3963L33.2943 20.6365H23.8494V20.6358C23.4143 20.6365 22.9854 20.5321 22.5994 20.3293C22.2121 20.1258 21.8796 19.8302 21.6301 19.4683C21.3807 19.1064 21.222 18.6888 21.1674 18.2513C21.1156 17.8355 21.1598 17.4135 21.2953 17.0181L23.0051 11.6023L11.7064 23.3636Z" fill="#A856F7"/>
</svg>
