<svg width="44" height="44" viewBox="0 0 44 44" fill="none" xmlns="http://www.w3.org/2000/svg">
<path d="M36.691 10.4688L36.889 10.4782C37.8697 10.5776 38.6352 11.4061 38.6352 12.413C38.6352 13.42 37.8697 14.2485 36.889 14.3478L36.691 14.3573H19.1904C18.1165 14.3573 17.2461 13.4869 17.2461 12.413C17.2461 11.3391 18.1165 10.4688 19.1904 10.4688H36.691Z" fill="#A856F7"/>
<path d="M25.0249 29.9141L25.223 29.9235C26.2037 30.0229 26.9692 30.8514 26.9692 31.8583C26.9692 32.8653 26.2037 33.6938 25.223 33.7931L25.0249 33.8026H7.52435C6.45045 33.8026 5.58008 32.9322 5.58008 31.8583C5.58008 30.7844 6.45045 29.9141 7.52435 29.9141H25.0249Z" fill="#A856F7"/>
<path d="M34.7468 31.8602C34.7468 29.7125 33.0058 27.9708 30.8582 27.9706C28.7104 27.9706 26.9686 29.7124 26.9686 31.8602C26.9689 34.0078 28.7106 35.7487 30.8582 35.7487C33.0057 35.7485 34.7465 34.0076 34.7468 31.8602ZM38.6353 31.8602C38.6351 36.1554 35.1535 39.637 30.8582 39.6373C26.5628 39.6373 23.0803 36.1556 23.0801 31.8602C23.0801 27.5646 26.5626 24.082 30.8582 24.082C35.1536 24.0823 38.6353 27.5647 38.6353 31.8602Z" fill="#A856F7"/>
<path d="M15.3015 12.4149C15.3015 10.2672 13.5605 8.52552 11.4129 8.52527C9.26512 8.52527 7.52332 10.2671 7.52332 12.4149C7.52357 14.5625 9.26527 16.3034 11.4129 16.3034C13.5604 16.3032 15.3012 14.5623 15.3015 12.4149ZM19.19 12.4149C19.1898 16.7101 15.7082 20.1917 11.4129 20.192C7.11747 20.192 3.63502 16.7103 3.63477 12.4149C3.63477 8.11927 7.11731 4.63672 11.4129 4.63672C15.7083 4.63697 19.19 8.11942 19.19 12.4149Z" fill="#A856F7"/>
</svg>
