<svg width="44" height="44" viewBox="0 0 44 44" fill="none" xmlns="http://www.w3.org/2000/svg">
<path d="M39.801 12.279C39.801 10.5601 38.4027 9.16186 36.6838 9.16186C35.8013 9.16186 35.0037 9.53124 34.4361 10.1227L22.2715 3.09937C22.1587 3.03427 22.0308 3 21.9005 3C21.7703 3 21.6424 3.03427 21.5296 3.09937L9.36453 10.1228C8.79698 9.53124 7.99972 9.16186 7.11719 9.16186C5.39828 9.16186 4 10.5601 4 12.279C4 13.742 5.01323 14.9721 6.375 15.3061V29.3477C6.375 29.6126 6.51646 29.8576 6.74609 29.9904L18.907 37.0116C18.8243 37.2946 18.7823 37.588 18.7823 37.8828C18.7823 39.6014 20.1806 41 21.8995 41C23.6181 41 25.0164 39.6014 25.0164 37.8828C25.0164 37.5807 24.9726 37.2891 24.892 37.0125L37.055 29.9904C37.2845 29.8579 37.4261 29.6126 37.4261 29.3477V15.3061C38.7877 14.9721 39.8011 13.742 39.8011 12.279H39.801ZM5.48438 12.279C5.48438 11.3786 6.21669 10.6462 7.11719 10.6462C8.01739 10.6462 8.7497 11.3786 8.7497 12.279C8.7497 13.1793 8.01739 13.9119 7.11719 13.9119C6.21669 13.9119 5.48438 13.1793 5.48438 12.279ZM21.8995 39.5156C20.999 39.5156 20.2667 38.7833 20.2667 37.8828C20.2667 36.9826 20.999 36.25 21.8995 36.25C22.7997 36.25 23.5323 36.9826 23.5323 37.8828C23.5323 38.7833 22.7997 39.5156 21.8995 39.5156ZM24.1487 35.7279C23.5807 35.1356 22.7828 34.7656 21.8995 34.7656C21.0167 34.7656 20.2188 35.1352 19.6512 35.727L7.85938 28.9192V15.3061C9.22084 14.9721 10.2341 13.742 10.2341 12.279C10.2341 11.9764 10.19 11.6838 10.1092 11.4068L21.9003 4.59918L33.692 11.4068C33.6091 11.6901 33.567 11.9838 33.567 12.279C33.567 13.742 34.5802 14.9721 35.9417 15.3061V28.9192L24.1487 35.7279ZM36.6837 13.9119C35.7835 13.9119 35.0509 13.1793 35.0509 12.279C35.0509 11.3786 35.7835 10.6462 36.6837 10.6462C37.5842 10.6462 38.3165 11.3786 38.3165 12.279C38.3165 13.1793 37.5842 13.9119 36.6837 13.9119Z" fill="#A856F7" stroke="#A856F7" stroke-width="0.6"/>
<path d="M32.07 14.5132L22.2731 8.85718C22.1604 8.79208 22.0324 8.75781 21.9022 8.75781C21.772 8.75781 21.644 8.79208 21.5313 8.85718L11.7344 14.5132C11.5047 14.646 11.3633 14.8909 11.3633 15.1559V26.4682C11.3633 26.7331 11.5047 26.9784 11.7344 27.1109L21.5313 32.7672C21.646 32.8333 21.7739 32.8667 21.902 32.8667C22.0304 32.8667 22.1583 32.8333 22.2731 32.7672L32.07 27.111C32.2996 26.9784 32.4411 26.7332 32.4411 26.4682V15.1559C32.4411 14.8909 32.2996 14.646 32.07 14.5132ZM21.902 10.3569L30.2145 15.1559L21.902 19.9552L13.5898 15.1559L21.902 10.3569ZM22.6442 30.839V27.4919C22.6442 27.082 22.312 26.7497 21.902 26.7497C21.4924 26.7497 21.1602 27.082 21.1602 27.4919V30.839L12.8477 26.0397V16.4414L21.5313 21.4549C21.646 21.521 21.7739 21.5544 21.902 21.5544C22.0304 21.5544 22.1583 21.521 22.2731 21.4549L30.9567 16.4415V26.0397L22.6442 30.839Z" fill="#A856F7" stroke="#A856F7" stroke-width="0.6"/>
<path d="M21.9013 23.4141C21.7043 23.4146 21.5154 23.4927 21.3757 23.6315C21.237 23.771 21.1588 23.9595 21.1582 24.1562C21.1589 24.3529 21.237 24.5413 21.3757 24.6807C21.5154 24.8196 21.7043 24.8978 21.9013 24.8984C22.0964 24.8984 22.288 24.819 22.426 24.6807C22.5646 24.5413 22.6428 24.3529 22.6435 24.1562C22.6435 23.9608 22.564 23.7696 22.426 23.6315C22.2866 23.4928 22.098 23.4146 21.9013 23.4141Z" fill="#A856F7" stroke="#A856F7" stroke-width="0.6"/>
</svg>
