<svg width="62" height="62" viewBox="0 0 62 62" fill="none" xmlns="http://www.w3.org/2000/svg">
<path d="M51.2796 33.9474V16.0549C51.2796 13.3699 49.0952 11.1855 46.4102 11.1855H39.2291V5.60281C39.2291 3.06464 37.1642 1 34.6263 1H17.6533C15.1154 1 13.0505 3.06476 13.0505 5.60281V11.1854H5.86952C3.18439 11.1855 1 13.3699 1 16.0549V44.3961C1 47.0811 3.18439 49.2655 5.86952 49.2655H30.6923C30.8863 49.2655 31.0724 49.1884 31.2097 49.0512C31.3469 48.9139 31.424 48.7278 31.424 48.5338C31.424 48.3397 31.3469 48.1536 31.2097 48.0164C31.0724 47.8791 30.8863 47.802 30.6923 47.802H5.8694C3.99135 47.802 2.46342 46.2741 2.46342 44.3959V25.7854C3.48293 26.8988 4.94757 27.5982 6.57257 27.5982H10.3467V30.1753C10.3467 31.2686 11.2362 32.1582 12.3297 32.1582H15.3544C16.4477 32.1582 17.3374 31.2686 17.3374 30.1753V27.5982H34.9423V30.1753C34.9423 31.2686 35.8319 32.1582 36.9252 32.1582H39.9501C41.0434 32.1582 41.9329 31.2686 41.9329 30.1753V27.5982H45.707C46.0775 27.5982 46.4481 27.5616 46.8088 27.4892C46.9038 27.4712 46.9943 27.4344 47.075 27.3812C47.1558 27.328 47.2252 27.2592 47.2792 27.179C47.3332 27.0988 47.3708 27.0086 47.3897 26.9138C47.4087 26.8189 47.4087 26.7213 47.3896 26.6264C47.3706 26.5316 47.333 26.4415 47.2789 26.3613C47.2248 26.2811 47.1554 26.2124 47.0746 26.1592C46.9938 26.106 46.9033 26.0694 46.8083 26.0514C46.7132 26.0334 46.6156 26.0344 46.5209 26.0544C46.2548 26.1077 45.9811 26.1349 45.707 26.1349H41.933V23.5578C41.933 22.4644 41.0435 21.5749 39.9501 21.5749H36.9253C35.832 21.5749 34.9424 22.4644 34.9424 23.5578V26.1348H17.3375V23.558C17.3375 22.4644 16.4478 21.575 15.3545 21.575H12.3297C11.2364 21.575 10.3468 22.4644 10.3468 23.558V26.1348H6.57257C4.30671 26.1348 2.46342 24.2915 2.46342 22.0258V16.0549C2.46342 14.1769 3.99135 12.6489 5.86952 12.6489H24.9615C25.1556 12.6489 25.3417 12.5718 25.4789 12.4346C25.6161 12.2974 25.6932 12.1113 25.6932 11.9172C25.6932 11.7232 25.6161 11.537 25.4789 11.3998C25.3417 11.2626 25.1556 11.1855 24.9615 11.1855H18.9481V7.05111H33.3315V11.1854H29.5936C29.3995 11.1854 29.2134 11.2625 29.0762 11.3997C28.939 11.5369 28.8619 11.723 28.8619 11.9171C28.8619 12.1112 28.939 12.2973 29.0762 12.4345C29.2134 12.5717 29.3995 12.6488 29.5936 12.6488H46.4102C48.2883 12.6488 49.8162 14.1767 49.8162 16.0548V33.578C48.9414 33.4072 48.0521 33.3213 47.1608 33.3214C44.4945 33.3214 41.9056 34.0815 39.6741 35.5195C39.5933 35.5715 39.5236 35.639 39.4689 35.7179C39.4141 35.797 39.3755 35.886 39.3552 35.9799C39.3349 36.0738 39.3333 36.1708 39.3505 36.2654C39.3676 36.3599 39.4033 36.4501 39.4553 36.5309C39.5074 36.6117 39.5748 36.6815 39.6538 36.7362C39.7328 36.7909 39.8218 36.8295 39.9157 36.8498C40.0097 36.8702 40.1067 36.8717 40.2012 36.8545C40.2958 36.8373 40.386 36.8017 40.4668 36.7496C42.2567 35.5962 44.3046 34.9325 46.4291 34.8081V36.8671C46.4291 37.0612 46.5062 37.2473 46.6434 37.3845C46.7807 37.5218 46.9668 37.5989 47.1608 37.5989C47.3549 37.5989 47.541 37.5218 47.6782 37.3845C47.8154 37.2473 47.8925 37.0612 47.8925 36.8671V34.807C54.1351 35.1729 59.1487 40.1864 59.5145 46.429H57.4544C57.2603 46.429 57.0742 46.5061 56.937 46.6433C56.7998 46.7805 56.7227 46.9666 56.7227 47.1607C56.7227 47.3548 56.7998 47.5409 56.937 47.6781C57.0742 47.8153 57.2603 47.8924 57.4544 47.8924H59.5145C59.1487 54.135 54.1351 59.1485 47.8925 59.5144V57.4543C47.8925 57.2602 47.8154 57.0741 47.6782 56.9369C47.541 56.7996 47.3549 56.7226 47.1608 56.7226C46.9668 56.7226 46.7807 56.7996 46.6434 56.9369C46.5062 57.0741 46.4291 57.2602 46.4291 57.4543V59.5144C40.1865 59.1485 35.173 54.135 34.8071 47.8924H36.8673C37.0613 47.8924 37.2474 47.8153 37.3847 47.6781C37.5219 47.5409 37.599 47.3548 37.599 47.1607C37.599 46.9666 37.5219 46.7805 37.3847 46.6433C37.2474 46.5061 37.0613 46.429 36.8673 46.429H34.8085C34.9541 43.8912 35.8549 41.5085 37.4406 39.4996C37.5006 39.4242 37.5452 39.3377 37.5718 39.2451C37.5983 39.1524 37.6063 39.0554 37.5953 38.9597C37.5842 38.8639 37.5544 38.7713 37.5074 38.6872C37.4605 38.603 37.3974 38.5289 37.3217 38.4692C37.2461 38.4095 37.1594 38.3653 37.0666 38.3392C36.9738 38.3131 36.8768 38.3055 36.7811 38.317C36.6854 38.3285 36.5929 38.3588 36.509 38.4062C36.425 38.4535 36.3513 38.5169 36.2919 38.5929C34.3486 41.0548 33.3215 44.0175 33.3215 47.1607C33.3215 54.7917 39.5298 61 47.1608 61C54.7918 61 61.0001 54.7918 61.0001 47.1608C61.0001 40.9635 56.9055 35.7047 51.2796 33.9474ZM36.4058 23.5578C36.406 23.4201 36.4608 23.2881 36.5581 23.1907C36.6555 23.0933 36.7876 23.0385 36.9253 23.0383H39.9501C40.0878 23.0385 40.2198 23.0933 40.3172 23.1907C40.4146 23.2881 40.4693 23.4201 40.4695 23.5578V30.1753C40.4695 30.4616 40.2365 30.6948 39.95 30.6948H36.9252C36.7875 30.6947 36.6554 30.6399 36.558 30.5425C36.4606 30.4451 36.4058 30.313 36.4057 30.1753L36.4058 23.5578ZM11.8101 23.5578C11.8101 23.2714 12.0431 23.0383 12.3297 23.0383H15.3544C15.4922 23.0385 15.6242 23.0933 15.7216 23.1907C15.819 23.2881 15.8738 23.4201 15.8739 23.5578V30.1753C15.8738 30.313 15.819 30.4451 15.7216 30.5425C15.6242 30.6399 15.4922 30.6947 15.3544 30.6948H12.3295C12.1918 30.6947 12.0598 30.6399 11.9624 30.5425C11.865 30.4451 11.8103 30.313 11.8101 30.1753V23.5578ZM34.0632 5.58781H18.2164C18.0223 5.58781 17.8362 5.6649 17.699 5.80213C17.5618 5.93935 17.4847 6.12546 17.4847 6.31952V11.1854H14.5139V5.60281C14.5139 3.87171 15.9223 2.46342 17.6533 2.46342H34.6263C36.3573 2.46342 37.7657 3.87171 37.7657 5.60281V11.1854H34.7949V6.3194C34.7949 6.12534 34.7179 5.93923 34.5806 5.802C34.4434 5.66478 34.2573 5.58781 34.0632 5.58781Z" fill="#A856F7" stroke="#A856F7" stroke-width="0.8"/>
<path d="M45.453 51.6733C45.5939 51.6733 45.7318 51.6327 45.8502 51.5563C45.9686 51.4799 46.0624 51.371 46.1203 51.2426L47.8277 47.4618C47.8703 47.3672 47.8924 47.2646 47.8924 47.1607V40.197C47.8924 40.003 47.8153 39.8169 47.6781 39.6796C47.5409 39.5424 47.3548 39.4653 47.1607 39.4653C46.9666 39.4653 46.7805 39.5424 46.6433 39.6796C46.5061 39.8169 46.429 40.003 46.429 40.197V47.0032L44.7866 50.6404C44.7362 50.7518 44.7146 50.874 44.7237 50.9959C44.7328 51.1179 44.7723 51.2355 44.8386 51.3383C44.9048 51.441 44.9958 51.5255 45.1031 51.584C45.2105 51.6425 45.3308 51.6732 45.453 51.6733Z" fill="#A856F7" stroke="#A856F7" stroke-width="0.8"/>
</svg>
