<svg width="45" height="44" viewBox="0 0 45 44" fill="none" xmlns="http://www.w3.org/2000/svg">
<path d="M19.2354 25.1333C19.5634 24.5249 20.3057 24.2518 20.9579 24.5225C21.6533 24.8112 21.9829 25.6093 21.6943 26.3048L21.1721 27.5635C20.8834 28.2589 20.0853 28.5885 19.3898 28.2999C18.6944 28.0111 18.3647 27.2131 18.6533 26.5175L19.1756 25.2589L19.2354 25.1333Z" fill="#A856F7"/>
<path d="M24.7283 22.0006C24.7283 21.6424 24.6578 21.2878 24.5207 20.9569C24.3837 20.626 24.183 20.3252 23.9298 20.072C23.6766 19.8187 23.3758 19.6174 23.0449 19.4803C22.714 19.3432 22.3594 19.2728 22.0012 19.2728C21.6878 19.2727 21.3768 19.3263 21.0824 19.4316L20.9568 19.4803C20.3048 19.7501 19.5635 19.4768 19.2357 18.8687L19.1759 18.7431L18.6537 17.4845L18.6064 17.353C18.4073 16.6912 18.7381 15.9729 19.3901 15.7022C20.0423 15.4315 20.7846 15.7046 21.1126 16.313L21.1725 16.4386L21.2389 16.5996C21.491 16.5641 21.7456 16.5449 22.0012 16.545C22.7176 16.545 23.4268 16.6866 24.0886 16.9608C24.7505 17.235 25.3519 17.6368 25.8584 18.1434C26.3649 18.6499 26.7669 19.2513 27.041 19.9132C27.315 20.575 27.4561 21.2843 27.4561 22.0006C27.4561 22.7169 27.3144 23.4262 27.0402 24.088C26.7661 24.7498 26.3643 25.3512 25.8577 25.8577C25.3511 26.3642 24.7497 26.7662 24.0879 27.0403C23.3922 27.3283 22.5945 26.9981 22.3063 26.3024C22.0181 25.6066 22.3491 24.809 23.0449 24.5208C23.3758 24.3837 23.6766 24.1824 23.9298 23.9292C24.183 23.6759 24.3837 23.3751 24.5207 23.0443C24.6578 22.7133 24.7283 22.3587 24.7283 22.0006Z" fill="#A856F7"/>
<path d="M22.8877 16.313C23.2157 15.7045 23.958 15.4315 24.6102 15.7022C25.3057 15.9909 25.6353 16.789 25.3467 17.4845L24.8245 18.7432C24.5357 19.4386 23.7376 19.7682 23.0421 19.4796C22.3467 19.1908 22.0171 18.3928 22.3057 17.6972L22.8279 16.4386L22.8877 16.313Z" fill="#A856F7"/>
<path d="M16.5449 22.003C16.545 21.2867 16.6859 20.5774 16.96 19.9156C17.2342 19.2538 17.636 18.6523 18.1426 18.1458C18.6492 17.6393 19.2506 17.2373 19.9124 16.9632L20.0439 16.9167C20.706 16.718 21.4238 17.0495 21.694 17.7019C21.9821 18.3977 21.6519 19.1953 20.9561 19.4835L20.8335 19.5374C20.5507 19.6711 20.2928 19.8528 20.0712 20.0744C19.8179 20.3277 19.6167 20.6284 19.4795 20.9593C19.3425 21.2901 19.272 21.6449 19.272 22.003C19.272 22.3612 19.3425 22.7165 19.4795 23.0474C19.6166 23.3783 19.818 23.6791 20.0712 23.9323C20.3244 24.1855 20.6252 24.3862 20.9561 24.5232C21.287 24.6603 21.6416 24.7315 21.9998 24.7315C22.3579 24.7316 22.7126 24.661 23.0435 24.524L23.1705 24.4782C23.471 24.3873 23.7954 24.4027 24.0879 24.524C24.422 24.6626 24.6876 24.9283 24.8258 25.2626L25.3466 26.5227L25.3931 26.6542C25.5913 27.3164 25.2597 28.0339 24.6072 28.3036C23.9547 28.5734 23.2134 28.2994 22.8862 27.6905L22.8263 27.5642L22.7599 27.4039C22.5085 27.4393 22.2547 27.4586 21.9998 27.4586C21.2834 27.4586 20.5735 27.3177 19.9117 27.0435C19.25 26.7694 18.649 26.3673 18.1426 25.8609C17.6361 25.3543 17.2341 24.7523 16.96 24.0904C16.686 23.4286 16.5449 22.7193 16.5449 22.003Z" fill="#A856F7"/>
<path d="M26.6471 18.6045C27.3089 18.4053 28.0272 18.7362 28.2979 19.3882C28.5686 20.0404 28.2956 20.7827 27.6871 21.1107L27.5615 21.1705L26.3029 21.6927C25.6073 21.9814 24.8093 21.6518 24.5205 20.9563C24.2319 20.2608 24.5615 19.4627 25.257 19.174L26.5156 18.6518L26.6471 18.6045Z" fill="#A856F7"/>
<path d="M24.5205 23.0444C24.7913 22.3924 25.5095 22.0616 26.1714 22.2607L26.3029 22.308L27.5615 22.8302L27.6871 22.89C28.2956 23.218 28.5686 23.9603 28.2979 24.6126C28.0272 25.2646 27.3089 25.5955 26.6471 25.3963L26.5156 25.349L25.2569 24.8268L25.1314 24.7669C24.5229 24.4389 24.2499 23.6966 24.5205 23.0444Z" fill="#A856F7"/>
<path d="M34.2736 16.5455V11.0906C34.2735 10.7291 34.1296 10.3823 33.874 10.1267C33.6183 9.87093 33.271 9.72707 32.9093 9.72707H11.0906C10.729 9.72714 10.3823 9.871 10.1267 10.1267C9.871 10.3823 9.72714 10.729 9.72707 11.0906V16.5455L9.73371 16.6806C9.76477 16.9927 9.90297 17.2864 10.1267 17.5101C10.3823 17.7657 10.7291 17.9089 11.0906 17.909H11.7724L11.912 17.9164C12.5996 17.9861 13.1365 18.5666 13.1366 19.2725C13.1366 19.9787 12.5997 20.5597 11.912 20.6294L11.7724 20.6368H11.0906C10.0057 20.6367 8.96523 20.2051 8.19808 19.438C7.47897 18.7188 7.05537 17.7596 7.00517 16.7486L7 16.5455V11.0906C7.00007 10.0057 7.43093 8.96523 8.19808 8.19808C8.96523 7.43093 10.0057 7.00007 11.0906 7H32.9093C33.9943 7 35.0354 7.43086 35.8026 8.19808C36.5697 8.96522 37.0006 10.0057 37.0007 11.0906V16.5455C37.0007 17.6303 36.5696 18.6708 35.8026 19.438C35.0354 20.2052 33.9944 20.6368 32.9093 20.6368H32.2276C31.4745 20.6367 30.864 20.0256 30.864 19.2725C30.8642 18.5196 31.4747 17.9091 32.2276 17.909H32.9093C33.271 17.909 33.6183 17.7658 33.874 17.5101C34.1298 17.2544 34.2736 16.9071 34.2736 16.5455Z" fill="#A856F7"/>
<path d="M7 32.9088V27.4539C7.00007 26.369 7.43093 25.3285 8.19808 24.5614C8.96523 23.7942 10.0057 23.3634 11.0906 23.3633H11.7724L11.912 23.3699C12.5997 23.4397 13.1366 24.0207 13.1366 24.7268C13.1366 25.4329 12.5997 26.014 11.912 26.0837L11.7724 26.0903H11.0906C10.729 26.0904 10.3823 26.2343 10.1267 26.49C9.871 26.7456 9.72714 27.0923 9.72707 27.4539V32.9088L9.73371 33.0439C9.76477 33.356 9.90297 33.6497 10.1267 33.8734C10.3823 34.129 10.7291 34.2722 11.0906 34.2723H32.9093C33.271 34.2723 33.6183 34.1291 33.874 33.8734C34.1298 33.6177 34.2736 33.2704 34.2736 32.9088V27.4539C34.2735 27.0924 34.1296 26.7456 33.874 26.49C33.6183 26.2342 33.271 26.0903 32.9093 26.0903H32.2276C31.4745 26.0902 30.864 25.4799 30.864 24.7268C30.864 23.9737 31.4745 23.3634 32.2276 23.3633H32.9093C33.9944 23.3633 35.0354 23.7941 35.8026 24.5614C36.5697 25.3285 37.0006 26.369 37.0007 27.4539V32.9088C37.0007 33.9936 36.5696 35.0341 35.8026 35.8013C35.0354 36.5685 33.9944 37.0001 32.9093 37.0001H11.0906C10.0057 37 8.96523 36.5684 8.19808 35.8013C7.47897 35.0821 7.05537 34.1229 7.00517 33.1119L7 32.9088Z" fill="#A856F7"/>
<path d="M13.8319 28.8164L13.9715 28.8231C14.6592 28.8928 15.1962 29.4738 15.1962 30.1799C15.1962 30.8861 14.6592 31.4671 13.9715 31.5368L13.8319 31.5435H13.8186C13.0655 31.5435 12.4551 30.9331 12.4551 30.1799C12.4551 29.4268 13.0655 28.8164 13.8186 28.8164H13.8319Z" fill="#A856F7"/>
<path d="M13.8319 12.4531L13.9715 12.4598C14.6592 12.5295 15.1962 13.1105 15.1962 13.8167C15.1962 14.5228 14.6592 15.1038 13.9715 15.1735L13.8319 15.1802H13.8186C13.0655 15.1802 12.4551 14.5698 12.4551 13.8167C12.4551 13.0635 13.0655 12.4531 13.8186 12.4531H13.8319Z" fill="#A856F7"/>
<path d="M15.7022 19.3882C15.9729 18.7362 16.6912 18.4053 17.353 18.6045L17.4845 18.6517L18.7431 19.174L18.8687 19.2338C19.4772 19.5618 19.7502 20.3041 19.4796 20.9563C19.2088 21.6084 18.4906 21.9392 17.8287 21.74L17.6972 21.6927L16.4386 21.1705L16.313 21.1107C15.7046 20.7827 15.4315 20.0404 15.7022 19.3882Z" fill="#A856F7"/>
<path d="M17.8287 22.2607C18.4906 22.0616 19.2088 22.3924 19.4796 23.0444C19.7502 23.6966 19.4772 24.4389 18.8687 24.7669L18.7432 24.8268L17.4845 25.349C16.789 25.6376 15.9909 25.308 15.7022 24.6126C15.4136 23.917 15.7432 23.119 16.4386 22.8302L17.6972 22.308L17.8287 22.2607Z" fill="#A856F7"/>
</svg>
