<svg width="45" height="44" viewBox="0 0 45 44" fill="none" xmlns="http://www.w3.org/2000/svg">
<path d="M6 35.5003C5.99992 32.9022 6.74941 30.3592 8.15876 28.1766C9.56813 25.994 11.5773 24.2642 13.9453 23.1953C16.3134 22.1263 18.9402 21.7637 21.5095 22.1504C23.9181 22.513 26.1808 23.52 28.0597 25.0607L28.4302 25.376L28.5399 25.4832C29.0561 26.0411 29.0761 26.9101 28.5626 27.4925C28.0488 28.075 27.1836 28.1637 26.5655 27.7208L26.4453 27.6257L26.1568 27.3804C24.6955 26.1822 22.9359 25.3988 21.0626 25.1168C19.0644 24.816 17.022 25.0988 15.1802 25.9301C13.3384 26.7615 11.7753 28.1064 10.6791 29.804C9.5829 31.5016 8.9996 33.4796 8.99968 35.5003C8.99973 36.3287 8.32826 37.0001 7.49984 37.0002C6.67146 37.0002 6.00005 36.3287 6 35.5003Z" fill="#3C83F6"/>
<path d="M25.5 15.9999C25.5 12.6862 22.8135 9.99971 19.4999 9.99968C16.1862 9.99968 13.4997 12.6862 13.4997 15.9999C13.4997 19.3135 16.1862 22 19.4999 22C22.8135 22 25.5 19.3135 25.5 15.9999ZM28.4997 15.9999C28.4997 20.9703 24.4703 24.9997 19.4999 24.9997C14.5293 24.9997 10.5 20.9704 10.5 15.9999C10.5 11.0293 14.5293 7 19.4999 7C24.4704 7.00003 28.4997 11.0293 28.4997 15.9999Z" fill="#3C83F6"/>
<path d="M36.5532 28.3363C37.1423 27.8557 38.0116 27.8903 38.5608 28.4395C39.1461 29.0252 39.1461 29.9743 38.5608 30.56L32.5606 36.5602C32.0115 37.1094 31.1422 37.144 30.553 36.6634L30.4393 36.5602L27.4396 33.5605L27.3364 33.4468C26.8556 32.8576 26.8903 31.9884 27.4396 31.4391C27.9887 30.8902 28.8573 30.8556 29.4464 31.336L29.5602 31.4391L31.4995 33.3777L36.4394 28.4395L36.5532 28.3363Z" fill="#3C83F6"/>
</svg>
