<svg width="44" height="44" viewBox="0 0 44 44" fill="none" xmlns="http://www.w3.org/2000/svg">
<path d="M17.7939 7.00118C18.5208 6.98604 19.2434 7.11699 19.9192 7.38518C20.5949 7.65338 21.2105 8.05357 21.7292 8.56303C22.2479 9.0725 22.6593 9.68073 22.9395 10.3516C23.2193 11.0213 23.3628 11.7401 23.3612 12.4658V30.1904C23.3602 31.122 23.168 32.0438 22.797 32.8983C22.4259 33.753 21.8828 34.5227 21.2027 35.1595C20.5225 35.7962 19.719 36.2869 18.8418 36.601C17.9647 36.915 17.0325 37.046 16.1028 36.9857C15.1731 36.9254 14.2655 36.675 13.4363 36.2502C12.607 35.8254 11.8736 35.2349 11.2814 34.5155C10.6892 33.7962 10.2504 32.963 9.9928 32.0675C9.81688 31.4559 9.73057 30.824 9.72991 30.1904C9.08035 29.7038 8.52037 29.1043 8.07945 28.4173C7.47959 27.4826 7.11758 26.4151 7.02418 25.3084C6.9308 24.2018 7.1087 23.0892 7.54332 22.0673C7.83904 21.3721 8.24707 20.7325 8.74923 20.1746C8.52601 19.5386 8.3957 18.8715 8.36818 18.1941C8.32626 17.1607 8.52057 16.1315 8.93532 15.1841C9.35007 14.2367 9.9746 13.3959 10.7623 12.7257C11.2894 12.2773 11.8813 11.9145 12.5146 11.6454C12.5699 11.277 12.6625 10.9139 12.7923 10.5628C13.0444 9.88093 13.4304 9.25607 13.9273 8.72549C14.4243 8.19493 15.0224 7.76914 15.6863 7.47306C16.3504 7.17693 17.067 7.01633 17.7939 7.00118ZM17.8508 9.72758C17.4874 9.73516 17.129 9.81512 16.797 9.96315C16.465 10.1112 16.166 10.3248 15.9175 10.5901C15.669 10.8554 15.4756 11.1678 15.3496 11.5088C15.2237 11.8496 15.1673 12.2121 15.1835 12.5751C15.2122 13.2193 14.7859 13.7961 14.1614 13.9568C13.5604 14.1113 13.0021 14.4002 12.5294 14.8023C12.0567 15.2044 11.6817 15.7093 11.4328 16.2777C11.184 16.8462 11.0679 17.4641 11.0931 18.084C11.1183 18.704 11.2842 19.31 11.5783 19.8563C11.8885 20.4326 11.7451 21.148 11.2371 21.5607C10.72 21.9809 10.3134 22.5212 10.0526 23.1344C9.79181 23.7476 9.68495 24.4155 9.74099 25.0795C9.79707 25.7434 10.0147 26.3834 10.3746 26.9441C10.7345 27.5048 11.2255 27.9694 11.8057 28.297C12.289 28.5697 12.559 29.1083 12.4881 29.6587C12.4164 30.2131 12.4591 30.777 12.6136 31.3143C12.7682 31.8514 13.0316 32.3509 13.3868 32.7824C13.7421 33.214 14.1816 33.5687 14.6791 33.8236C15.1766 34.0785 15.7215 34.2283 16.2793 34.2645C16.8372 34.3007 17.3968 34.2225 17.9231 34.0341C18.4494 33.8456 18.9315 33.5513 19.3395 33.1693C19.7476 32.7873 20.0731 32.3255 20.2958 31.8128C20.5184 31.3004 20.6333 30.7475 20.634 30.1889V12.4614L20.6311 12.3255C20.6162 12.0085 20.5462 11.6959 20.4236 11.4024C20.2835 11.067 20.0773 10.7628 19.818 10.5081C19.5588 10.2536 19.2511 10.0536 18.9134 9.91958C18.5756 9.78549 18.2142 9.72002 17.8508 9.72758Z" fill="#A856F7"/>
<path d="M26.2013 7.00117C26.9281 7.01632 27.6449 7.17698 28.3089 7.47305C28.9728 7.76911 29.571 8.19499 30.0679 8.72548C30.5648 9.25604 30.9509 9.88096 31.2029 10.5628C31.3328 10.9141 31.4246 11.2775 31.4798 11.6461C32.1135 11.9152 32.7056 12.2771 33.2329 12.7257C34.0207 13.3959 34.6459 14.2366 35.0606 15.1841C35.4753 16.1314 35.669 17.1608 35.627 18.194C35.5995 18.8716 35.4685 19.5385 35.2453 20.1746C35.7476 20.7327 36.1561 21.3719 36.4519 22.0673C36.8865 23.0892 37.0652 24.2018 36.9718 25.3084C36.8784 26.4151 36.5156 27.4826 35.9158 28.4173C35.475 29.104 34.9153 29.7032 34.2661 30.1896C34.2655 30.8235 34.1784 31.4556 34.0024 32.0675C33.7449 32.9629 33.3066 33.7962 32.7145 34.5155C32.1224 35.2348 31.3889 35.8254 30.5597 36.2502C29.7305 36.675 28.8228 36.9253 27.8931 36.9857C26.9633 37.046 26.0306 36.915 25.1534 36.601C24.2762 36.2869 23.4727 35.7963 22.7926 35.1595C22.1124 34.5227 21.5701 33.7529 21.199 32.8983C20.8743 32.1506 20.6862 31.3518 20.6436 30.5397L20.6348 30.1904V12.4658C20.6332 11.7401 20.776 11.0212 21.0557 10.3516C21.336 9.6807 21.7481 9.07251 22.2668 8.56302C22.7853 8.05373 23.4005 7.65334 24.076 7.38517C24.7517 7.11702 25.4745 6.98607 26.2013 7.00117ZM26.1452 9.72758C25.7818 9.72 25.4204 9.78553 25.0825 9.91958C24.7447 10.0537 24.4365 10.2534 24.1772 10.5081C23.9179 10.7628 23.7125 11.0671 23.5724 11.4024C23.4323 11.7377 23.3602 12.0979 23.3612 12.4614V30.1874L23.3671 30.3971C23.3926 30.8844 23.5053 31.3641 23.7001 31.8128C23.9228 32.3254 24.2477 32.7873 24.6557 33.1693C25.0638 33.5514 25.5465 33.8456 26.0728 34.0341C26.599 34.2224 27.1582 34.3006 27.7159 34.2645C28.2737 34.2283 28.8186 34.0785 29.3161 33.8236C29.8137 33.5687 30.2539 33.214 30.6092 32.7824C30.9643 32.3509 31.2271 31.8513 31.3816 31.3143C31.5362 30.777 31.5796 30.2131 31.5079 29.6587C31.4369 29.1083 31.7062 28.5698 32.1895 28.2969C32.7698 27.9694 33.2615 27.5049 33.6214 26.9441C33.9812 26.3834 34.1989 25.7433 34.255 25.0795C34.311 24.4155 34.2034 23.7476 33.9426 23.1344C33.6818 22.5212 33.2753 21.9809 32.7581 21.5607C32.2502 21.148 32.1068 20.4326 32.4169 19.8563C32.711 19.31 32.8776 18.704 32.9029 18.084C32.928 17.464 32.8112 16.8462 32.5624 16.2777C32.3136 15.7093 31.9385 15.2044 31.4658 14.8023C30.9932 14.4003 30.4354 14.1113 29.8345 13.9567C29.2099 13.7961 28.783 13.2194 28.8118 12.5751C28.828 12.2121 28.7715 11.8496 28.6456 11.5087C28.5197 11.1679 28.3268 10.8554 28.0785 10.5901C27.83 10.3248 27.5302 10.1112 27.1982 9.96314C26.8664 9.81523 26.5084 9.73519 26.1452 9.72758Z" fill="#A856F7"/>
<path d="M21.9992 16.5547C22.723 16.5549 23.3205 17.1205 23.3601 17.8433C23.4115 18.7856 23.7414 19.6921 24.3076 20.4471C24.8385 21.1549 25.5549 21.7003 26.376 22.0237L26.5414 22.085L26.6707 22.1382C27.2957 22.4322 27.6092 23.1577 27.3752 23.8234C27.1409 24.4892 26.4421 24.8591 25.7705 24.697L25.6361 24.6571L25.3761 24.5604C24.086 24.0521 22.9603 23.195 22.1262 22.0828C22.0824 22.0245 22.0404 21.965 21.9984 21.9056C21.9566 21.9649 21.915 22.0246 21.8714 22.0828C20.9817 23.2691 19.7603 24.1649 18.3615 24.6571L18.2271 24.697C17.5555 24.8591 16.8566 24.4892 16.6224 23.8234C16.3728 23.1132 16.7461 22.3349 17.4561 22.085L17.6223 22.0237C18.4431 21.7003 19.1592 21.1547 19.69 20.4471C20.2562 19.6921 20.586 18.7856 20.6374 17.8433L20.6515 17.7104C20.7521 17.0523 21.3202 16.5547 21.9992 16.5547Z" fill="#A856F7"/>
<path d="M30.2315 11.2746C30.9838 11.3058 31.5683 11.9416 31.5371 12.694L31.5135 13.0226C31.4353 13.7862 31.1968 14.5259 30.8119 15.1929L30.7359 15.3103C30.3318 15.8707 29.5609 16.0456 28.9495 15.6928C28.2974 15.3165 28.0741 14.4826 28.4503 13.8304L28.5286 13.685C28.6999 13.3416 28.7969 12.9649 28.8129 12.5802L28.8255 12.4414C28.9238 11.7575 29.5263 11.2454 30.2315 11.2746Z" fill="#A856F7"/>
<path d="M13.7661 11.2746C14.4711 11.2459 15.0727 11.7583 15.1706 12.4421L15.1839 12.5817L15.195 12.7456C15.2282 13.0728 15.3208 13.3913 15.4675 13.6857L15.5458 13.8311L15.6085 13.9552C15.8914 14.5858 15.6561 15.3404 15.0443 15.6928C14.4328 16.045 13.6624 15.8702 13.2587 15.3095L13.1827 15.1921L13.0269 14.9019C12.7334 14.313 12.5491 13.6757 12.4826 13.021L12.459 12.6924L12.4605 12.5529C12.5023 11.8632 13.0609 11.3034 13.7661 11.2746Z" fill="#A856F7"/>
<path d="M10.5146 18.7731C11.1729 18.4078 12.0028 18.6451 12.3682 19.3033C12.7335 19.9616 12.4962 20.7915 11.838 21.1569C11.627 21.2739 11.4269 21.4099 11.2398 21.5623C10.656 22.0376 9.79751 21.9495 9.32201 21.3659C8.84657 20.7821 8.93406 19.9236 9.5177 19.4481C9.82941 19.1942 10.1631 18.9682 10.5146 18.7731Z" fill="#A856F7"/>
<path d="M31.6286 19.3037C31.9711 18.6867 32.7217 18.4391 33.3566 18.7114L33.4821 18.7735L33.742 18.9256C33.9988 19.0833 34.2452 19.258 34.479 19.4484C35.0626 19.9239 35.1507 20.7825 34.6754 21.3662C34.2 21.95 33.3407 22.038 32.7569 21.5626C32.6167 21.4484 32.4693 21.3434 32.3153 21.2488L32.1588 21.1572L32.0406 21.0834C31.4734 20.6887 31.286 19.9209 31.6286 19.3037Z" fill="#A856F7"/>
<path d="M9.94762 28.8186C10.2944 28.2037 11.0469 27.9618 11.6801 28.2389L11.8049 28.3009L12.0389 28.4228C12.5923 28.6894 13.1999 28.8285 13.8164 28.8282C14.5692 28.828 15.18 29.4385 15.1804 30.1914C15.1806 30.9443 14.5701 31.555 13.8172 31.5553C12.7162 31.5558 11.6327 31.2893 10.6588 30.7807L10.4653 30.6758L10.3471 30.6012C9.78274 30.2026 9.60085 29.4334 9.94762 28.8186Z" fill="#A856F7"/>
<path d="M32.1892 28.2972C32.845 27.9273 33.6765 28.1591 34.0465 28.8148C34.4164 29.4707 34.1846 30.3022 33.5288 30.6721C32.5059 31.249 31.3513 31.5521 30.1769 31.5516C29.4241 31.5512 28.8142 30.9405 28.8145 30.1876C28.8148 29.4347 29.4254 28.8241 30.1784 28.8244C30.8829 28.8247 31.5755 28.6433 32.1892 28.2972Z" fill="#A856F7"/>
</svg>
