<svg width="44" height="44" viewBox="0 0 44 44" fill="none" xmlns="http://www.w3.org/2000/svg">
<path d="M21.5923 9.5458C19.5232 9.5458 18.1407 10.949 18.0703 13.1207C18.001 15.2613 19.3148 17.6617 21.5581 17.8072C21.5809 17.8087 21.6037 17.8087 21.6264 17.8072C23.8698 17.6617 25.1836 15.2613 25.1142 13.1207C25.0439 10.949 23.6614 9.5458 21.5923 9.5458ZM21.5923 16.7513C20.0495 16.6256 19.0721 14.799 19.1253 13.1549C19.1447 12.5559 19.38 10.6014 21.5923 10.6014C23.8046 10.6014 24.0398 12.5559 24.0593 13.1549C24.1125 14.799 23.135 16.6255 21.5923 16.7513ZM38.6568 17.1328H36.2434C35.9645 9.29254 29.5005 3 21.5935 3C13.6865 3 7.22239 9.29255 6.94342 17.1328H4.52778C4.3878 17.1328 4.25356 17.1884 4.15458 17.2873C4.05561 17.3863 4 17.5206 4 17.6605V20.5004C4 20.6226 4.04244 20.7411 4.12008 20.8355C4.19772 20.93 4.30574 20.9945 4.42569 21.0182L7.57999 21.6401L8.87026 24.7507L7.07853 27.4225C7.01044 27.5241 6.97971 27.6461 6.99158 27.7678C7.00345 27.8895 7.05718 28.0033 7.1436 28.0897L11.1616 32.1078C11.2481 32.1942 11.3619 32.248 11.4836 32.2598C11.6052 32.2717 11.7273 32.241 11.8288 32.1729L13.9139 30.7747V33.303C13.9139 34.0917 14.3883 34.7712 15.0665 35.0725V36.5819C15.0665 37.5241 15.833 38.2906 16.7752 38.2906H17.8914V38.8937C17.8914 40.0551 18.8363 41 19.9977 41H23.1868C24.3482 41 25.2932 40.0551 25.2932 38.8937V38.2906H26.4094C27.3515 38.2906 28.1181 37.5241 28.1181 36.5819V35.0725C28.7963 34.7712 29.2707 34.0916 29.2707 33.303V30.7747L31.3557 32.1729C31.4572 32.241 31.5793 32.2717 31.7009 32.2598C31.8226 32.2479 31.9364 32.1942 32.0228 32.1078L36.0409 28.0897C36.1274 28.0033 36.1812 27.8895 36.193 27.7678C36.2049 27.6461 36.1742 27.5241 36.1061 27.4225L34.3143 24.7507L35.6046 21.6401L38.7589 21.0182C38.8789 20.9945 38.9869 20.93 39.0645 20.8355C39.1422 20.7411 39.1846 20.6226 39.1846 20.5004V17.6605C39.1846 17.5206 39.129 17.3863 39.03 17.2873C38.9311 17.1884 38.7967 17.1328 38.6568 17.1328ZM21.5935 4.05556C28.9184 4.05556 34.9089 9.87468 35.1872 17.1328H32.8166C32.54 11.1814 27.612 6.4246 21.5935 6.4246C15.5751 6.4246 10.6469 11.1814 10.3703 17.1328H7.99965C8.27802 9.87468 14.2684 4.05556 21.5935 4.05556ZM25.7791 23.5717C25.6392 23.5717 25.5049 23.6273 25.4059 23.7263C25.307 23.8253 25.2514 23.9595 25.2514 24.0995V27.1608C24.1156 27.5996 22.8822 27.8409 21.5935 27.8409C20.3047 27.8409 19.0697 27.5993 17.9332 27.1599V24.0995C17.9332 23.9595 17.8776 23.8253 17.7786 23.7263C17.6796 23.6273 17.5454 23.5717 17.4054 23.5717C17.2654 23.5717 17.1312 23.6273 17.0322 23.7263C16.9332 23.8253 16.8776 23.9595 16.8776 24.0995V26.6805C16.282 26.3677 15.7188 25.9969 15.1961 25.5734C15.1529 23.9725 15.1668 22.5988 15.2398 21.2708C15.3211 20.2217 15.5352 19.9966 16.0397 19.7006C16.5542 19.399 17.594 19.1336 18.4294 18.9203C18.6551 18.8634 18.8803 18.8048 19.1052 18.7445L19.2512 18.7038C19.4812 18.6398 19.6909 18.6844 19.8749 18.8365C20.0427 18.9755 20.2258 19.0949 20.4206 19.1924L19.912 24.2779C19.8994 24.4034 19.9322 24.5293 20.0045 24.6327L21.1596 26.2862C21.2083 26.3558 21.273 26.4126 21.3484 26.4518C21.4237 26.491 21.5073 26.5115 21.5923 26.5115C21.6772 26.5115 21.7609 26.491 21.8362 26.4518C21.9115 26.4126 21.9762 26.3558 22.0249 26.2862L23.18 24.6327C23.2522 24.5293 23.285 24.4034 23.2725 24.2779L22.7639 19.1924C22.9587 19.0948 23.1418 18.9754 23.3096 18.8364C23.4936 18.6844 23.7035 18.6396 23.9332 18.7037L24.0832 18.7456C24.2927 18.8023 24.5199 18.8603 24.755 18.9203C25.5905 19.1336 26.6303 19.399 27.1447 19.7005C27.6493 19.9964 27.8634 20.2218 27.9447 21.2708C28.0177 22.5987 28.0316 23.9729 27.9883 25.5752C27.4656 25.9986 26.9024 26.3692 26.3068 26.6818V24.0995C26.3068 23.9595 26.2512 23.8253 26.1522 23.7263C26.0533 23.6273 25.9191 23.5717 25.7791 23.5717ZM21.7308 19.4689L22.2028 24.1885L21.5923 25.0623L20.9817 24.1885L21.4537 19.4689C21.546 19.4738 21.6386 19.4738 21.7308 19.4689ZM28.9984 21.2069L28.9977 21.1955C28.8995 19.9176 28.5666 19.3106 27.6786 18.79C27.0358 18.413 25.9628 18.1392 25.0162 17.8975C24.7862 17.8388 24.5639 17.7821 24.363 17.7277L24.2167 17.6869C23.651 17.5293 23.09 17.6486 22.6373 18.0227C22.0122 18.5391 21.1723 18.5392 20.5473 18.0227C20.0947 17.6487 19.5339 17.5292 18.9679 17.6869L18.8257 17.7266C18.6207 17.782 18.3985 17.8387 18.1684 17.8974C17.2217 18.1391 16.1488 18.4129 15.5059 18.7899C14.6181 19.3106 14.2852 19.9175 14.1869 21.1954C14.1867 21.1992 14.1864 21.203 14.1862 21.2068C14.1276 22.2701 14.106 23.36 14.1204 24.5657C12.4412 22.7497 11.4132 20.323 11.4132 17.6604C11.4132 12.0469 15.9801 7.48008 21.5935 7.48008C27.207 7.48008 31.7738 12.0469 31.7738 17.6604C31.7738 20.3242 30.7448 22.7519 29.0642 24.5682C29.0786 23.3611 29.0571 22.2705 28.9984 21.2069ZM24.2376 38.8937C24.2376 39.4731 23.7662 39.9444 23.1868 39.9444H19.9976C19.4182 39.9444 18.9469 39.4731 18.9469 38.8937V38.2906H24.2375L24.2376 38.8937ZM26.4093 37.2351H16.7752C16.4151 37.2351 16.1222 36.9421 16.1222 36.5819V35.2386H27.0625V36.5819C27.0625 36.9421 26.7695 37.2351 26.4093 37.2351ZM27.3349 34.1831H15.8496C15.3643 34.1831 14.9695 33.7882 14.9695 33.303V30.6703C17.0539 31.7279 19.2405 32.2739 21.4817 32.2927C21.5217 32.293 21.5612 32.2932 21.6012 32.2932C23.8736 32.2932 26.0941 31.7472 28.2151 30.6704V33.3029C28.2151 33.7882 27.8203 34.1831 27.3349 34.1831ZM38.129 20.0665L35.1232 20.6591C35.038 20.6759 34.9582 20.7135 34.8909 20.7686C34.8237 20.8237 34.7711 20.8945 34.7379 20.9748L33.2309 24.6076C33.1976 24.688 33.1846 24.7753 33.1932 24.8619C33.2018 24.9484 33.2316 25.0315 33.2801 25.1038L34.9877 27.6502L31.5832 31.0546L29.0368 29.347C28.9549 29.292 28.8592 29.2612 28.7606 29.2579C28.662 29.2546 28.5644 29.279 28.479 29.3283C24.0381 31.8924 19.1465 31.8922 14.7057 29.3283C14.6202 29.2789 14.5227 29.2545 14.4241 29.2578C14.3255 29.2611 14.2298 29.292 14.1479 29.347L11.6014 31.0546L8.19696 27.6502L9.90455 25.1038C9.95302 25.0315 9.98287 24.9484 9.99144 24.8619C10 24.7753 9.98706 24.688 9.95371 24.6076L8.44683 20.9748C8.41354 20.8945 8.36095 20.8237 8.29373 20.7686C8.2265 20.7136 8.14673 20.676 8.06148 20.6591L5.05571 20.0665V18.1884H10.3703C10.6469 24.1398 15.5748 28.8965 21.5934 28.8965C27.612 28.8965 32.5398 24.1398 32.8164 18.1884H38.1289L38.129 20.0665Z" fill="#3C83F6" stroke="#3C83F6" stroke-width="0.5"/>
</svg>
