<svg width="44" height="44" viewBox="0 0 44 44" fill="none" xmlns="http://www.w3.org/2000/svg">
<path d="M34.3727 20.2371V6.64542C34.3727 5.18708 33.1747 4 31.701 4H6.67167C5.19875 4 4 5.18708 4 6.64615V31.7273C4 33.1856 5.19875 34.3727 6.67167 34.3727H20.2371C22.0651 37.1559 25.2093 39 28.78 39C34.415 39 39 34.4157 39 28.7807C39 25.21 37.1552 22.0651 34.3727 20.2371ZM23.6467 5.09375V12.4729C23.6467 12.5969 23.5059 12.6734 23.4024 12.5954L19.9337 9.9974C19.7177 9.83665 19.4556 9.74983 19.1864 9.74983C18.9171 9.74983 18.655 9.83665 18.439 9.9974L14.9703 12.5954C14.9476 12.6126 14.9206 12.623 14.8923 12.6256C14.864 12.6282 14.8355 12.6228 14.8101 12.6101C14.7847 12.5973 14.7634 12.5777 14.7485 12.5535C14.7337 12.5292 14.7259 12.5013 14.726 12.4729V5.09375H23.6467ZM6.67167 33.279C5.80177 33.279 5.09375 32.5833 5.09375 31.7273V6.64615C5.09375 5.7901 5.80104 5.09375 6.67167 5.09375H13.6323V12.4729C13.6323 13.4981 14.8033 14.0866 15.6258 13.4704L19.0952 10.8724C19.1217 10.8531 19.1536 10.8427 19.1864 10.8427C19.2191 10.8427 19.251 10.8531 19.2775 10.8724L22.7469 13.4704C23.5672 14.0851 24.7404 13.501 24.7404 12.4729V5.09375H31.701C32.5717 5.09375 33.279 5.7901 33.279 6.64615V19.618C31.8807 18.924 30.341 18.5622 28.78 18.5607C23.145 18.5607 18.5607 23.1457 18.5607 28.7807C18.5607 30.3966 18.9479 31.9198 19.618 33.2797L6.67167 33.279ZM28.78 37.9063C23.7488 37.9063 19.6545 33.8127 19.6545 28.7807C19.6545 23.748 23.748 19.6545 28.78 19.6545C33.8127 19.6552 37.9063 23.748 37.9063 28.7807C37.9063 33.812 33.8127 37.9063 28.78 37.9063Z" fill="#3C83F6" stroke="#3C83F6" stroke-width="0.5"/>
<path d="M31.2584 25.7578H26.3008C26.1557 25.7578 26.0166 25.8154 25.9141 25.918C25.8115 26.0205 25.7539 26.1596 25.7539 26.3047V31.2623C25.7539 31.5642 25.9989 31.8092 26.3008 31.8092H31.2584C31.4034 31.8092 31.5425 31.7515 31.6451 31.649C31.7476 31.5464 31.8053 31.4073 31.8053 31.2623V26.3047C31.8053 26.1596 31.7476 26.0205 31.6451 25.918C31.5425 25.8154 31.4034 25.7578 31.2584 25.7578ZM30.7115 30.7154H26.8477V26.8516H30.7115V30.7154Z" fill="#3C83F6" stroke="#3C83F6" stroke-width="0.5"/>
<path d="M34.9772 29.3261C35.1222 29.3261 35.2613 29.2685 35.3639 29.1659C35.4664 29.0634 35.5241 28.9243 35.5241 28.7792C35.5241 28.6342 35.4664 28.4951 35.3639 28.3925C35.2613 28.29 35.1222 28.2323 34.9772 28.2323H34.0234V26.1258H34.9772C35.1222 26.1258 35.2613 26.0682 35.3639 25.9656C35.4664 25.863 35.5241 25.7239 35.5241 25.5789C35.5241 25.4339 35.4664 25.2948 35.3639 25.1922C35.2613 25.0896 35.1222 25.032 34.9772 25.032H33.9906C33.925 24.6678 33.7495 24.3324 33.4878 24.0707C33.2261 23.809 32.8907 23.6335 32.5265 23.5679V22.582C32.5265 22.437 32.4688 22.2979 32.3663 22.1953C32.2637 22.0928 32.1246 22.0352 31.9796 22.0352C31.8345 22.0352 31.6954 22.0928 31.5929 22.1953C31.4903 22.2979 31.4327 22.437 31.4327 22.582V23.5351H29.3261V22.582C29.3261 22.437 29.2685 22.2979 29.166 22.1953C29.0634 22.0928 28.9243 22.0352 28.7793 22.0352C28.6342 22.0352 28.4951 22.0928 28.3926 22.1953C28.29 22.2979 28.2324 22.437 28.2324 22.582V23.5351H26.1266V22.582C26.1266 22.437 26.0689 22.2979 25.9664 22.1953C25.8638 22.0928 25.7247 22.0352 25.5797 22.0352C25.4346 22.0352 25.2955 22.0928 25.193 22.1953C25.0904 22.2979 25.0328 22.437 25.0328 22.582V23.5679C24.6686 23.6335 24.3331 23.809 24.0714 24.0707C23.8097 24.3324 23.6343 24.6678 23.5686 25.032H22.5828C22.4378 25.032 22.2987 25.0896 22.1961 25.1922C22.0936 25.2948 22.0359 25.4339 22.0359 25.5789C22.0359 25.7239 22.0936 25.863 22.1961 25.9656C22.2987 26.0682 22.4378 26.1258 22.5828 26.1258H23.5358V28.2323H22.5828C22.4378 28.2323 22.2987 28.29 22.1961 28.3925C22.0936 28.4951 22.0359 28.6342 22.0359 28.7792C22.0359 28.9243 22.0936 29.0634 22.1961 29.1659C22.2987 29.2685 22.4378 29.3261 22.5828 29.3261H23.5358V31.4327H22.5828C22.4378 31.4327 22.2987 31.4903 22.1961 31.5928C22.0936 31.6954 22.0359 31.8345 22.0359 31.9795C22.0359 32.1246 22.0936 32.2637 22.1961 32.3662C22.2987 32.4688 22.4378 32.5264 22.5828 32.5264H23.5686C23.6344 32.8906 23.8099 33.226 24.0715 33.4877C24.3332 33.7494 24.6686 33.9248 25.0328 33.9906V34.9757C25.0328 35.1207 25.0904 35.2598 25.193 35.3624C25.2955 35.4649 25.4346 35.5226 25.5797 35.5226C25.7247 35.5226 25.8638 35.4649 25.9664 35.3624C26.0689 35.2598 26.1266 35.1207 26.1266 34.9757V34.0227H28.2324V34.9757C28.2324 35.1207 28.29 35.2598 28.3926 35.3624C28.4951 35.4649 28.6342 35.5226 28.7793 35.5226C28.9243 35.5226 29.0634 35.4649 29.166 35.3624C29.2685 35.2598 29.3261 35.1207 29.3261 34.9757V34.0227H31.4327V34.9757C31.4327 35.1207 31.4903 35.2598 31.5929 35.3624C31.6954 35.4649 31.8345 35.5226 31.9796 35.5226C32.1246 35.5226 32.2637 35.4649 32.3663 35.3624C32.4688 35.2598 32.5265 35.1207 32.5265 34.9757V33.9906C32.8906 33.9248 33.226 33.7494 33.4877 33.4877C33.7494 33.226 33.9249 32.8906 33.9906 32.5264H34.9765C35.1215 32.5264 35.2606 32.4688 35.3632 32.3662C35.4657 32.2637 35.5233 32.1246 35.5233 31.9795C35.5233 31.8345 35.4657 31.6954 35.3632 31.5928C35.2606 31.4903 35.1215 31.4327 34.9765 31.4327H34.0227V29.3254L34.9772 29.3261ZM32.9297 32.2063C32.9297 32.6044 32.6059 32.9282 32.2078 32.9282H25.3529C25.1616 32.9278 24.9782 32.8516 24.8429 32.7163C24.7076 32.581 24.6314 32.3976 24.631 32.2063V25.3521C24.631 24.9533 24.9548 24.6288 25.3529 24.6288H32.2078C32.6059 24.6288 32.9297 24.9533 32.9297 25.3514V32.2063ZM13.7548 26.2928H8.375C8.22996 26.2928 8.09086 26.3504 7.9883 26.4529C7.88574 26.5555 7.82813 26.6946 7.82812 26.8396C7.82813 26.9847 7.88574 27.1238 7.9883 27.2263C8.09086 27.3289 8.22996 27.3865 8.375 27.3865H13.7548C13.8998 27.3865 14.0389 27.3289 14.1415 27.2263C14.244 27.1238 14.3017 26.9847 14.3017 26.8396C14.3017 26.6946 14.244 26.5555 14.1415 26.4529C14.0389 26.3504 13.8998 26.2928 13.7548 26.2928ZM13.7548 29.4493H8.375C8.22996 29.4493 8.09086 29.5069 7.9883 29.6095C7.88574 29.7121 7.82813 29.8512 7.82812 29.9962C7.82813 30.1412 7.88574 30.2803 7.9883 30.3829C8.09086 30.4855 8.22996 30.5431 8.375 30.5431H13.7548C13.8998 30.5431 14.0389 30.4855 14.1415 30.3829C14.244 30.2803 14.3017 30.1412 14.3017 29.9962C14.3017 29.8512 14.244 29.7121 14.1415 29.6095C14.0389 29.5069 13.8998 29.4493 13.7548 29.4493Z" fill="#3C83F6" stroke="#3C83F6" stroke-width="0.5"/>
</svg>
