<svg width="44" height="44" viewBox="0 0 44 44" fill="none" xmlns="http://www.w3.org/2000/svg">
<path d="M28.1831 29.4384C28.1831 28.9489 27.7863 28.5521 27.2969 28.5521H21.6302L21.3713 28.286C20.0646 26.942 17.8137 26.9441 16.4598 28.306L15.1926 29.5734H13.1758V27.8155H14.4644L15.215 27.0649C17.1486 25.1217 20.3178 24.9981 22.3522 26.7943H27.2969C28.7571 26.7943 29.9409 27.9781 29.9409 29.4384C29.9409 30.8986 28.7572 32.0824 27.2969 32.0824H20.3506V30.3246H27.2969C27.7863 30.3246 28.1831 29.9278 28.1831 29.4384Z" fill="#3C83F6"/>
<path d="M32.5389 24.7211C33.5744 23.7368 35.2118 23.7527 36.2279 24.7687C37.2605 25.8014 37.2571 27.4769 36.2191 28.5048L36.2189 28.5049C33.8659 30.8339 31.5124 33.1623 29.1583 35.4901L29.1582 35.49C28.1232 36.5223 26.5781 37.1109 25.0719 36.9825L14.0533 36.1063V37H7V26.8862H14.0533V34.343L25.2113 35.2303L25.2143 35.2306L25.2173 35.2308C26.1989 35.3157 27.2414 34.9205 27.919 34.2434L27.9223 34.2401C30.2762 31.9126 32.6295 29.5845 34.9822 27.2558L34.9981 27.2396C35.3276 26.8963 35.3237 26.3505 34.9849 26.0117C34.6392 25.666 34.0787 25.666 33.733 26.0117L29.6842 30.0598L28.4414 28.8168L32.4901 24.7687L32.5389 24.7211ZM8.75781 35.2422H12.2955V28.644H8.75781V35.2422ZM26.4092 7V8.79094C27.1862 9.08325 27.9015 9.50033 28.5307 10.0175L30.0832 9.12116L32.7272 13.7008L31.1758 14.5965C31.2423 15.001 31.2758 15.4107 31.2756 15.8214L31.2754 15.8812C31.2726 16.2723 31.2391 16.6622 31.1758 17.0475L32.7272 17.9432L30.0832 22.5229L28.5307 21.6265C27.9015 22.1436 27.1862 22.5608 26.4092 22.8531V24.644H21.1211V22.853C20.344 22.5607 19.6288 22.1436 18.9995 21.6265L17.4471 22.5228L14.803 17.9432L16.3544 17.0475C16.2888 16.6483 16.2547 16.2389 16.2547 15.822C16.2547 15.405 16.2888 14.9956 16.3544 14.5965L14.803 13.7008L17.4471 9.12116L18.9995 10.0175C19.6288 9.50034 20.344 9.0832 21.1211 8.79089V7H26.4092ZM18.0125 15.822C18.0125 16.3231 18.0764 16.8081 18.1961 17.2698L18.3639 17.9171L17.2042 18.5866L18.0905 20.1216L19.2522 19.4509L19.7289 19.9204C20.4182 20.5992 21.2763 21.1046 22.2334 21.3682L22.8789 21.546V22.8862H24.6514V21.5461L25.2969 21.3683C26.254 21.1046 27.1122 20.5992 27.8014 19.9204L28.2781 19.4509L29.4397 20.1216L30.326 18.5866L29.1667 17.9173L29.3341 17.2702C29.4564 16.7974 29.5181 16.3109 29.5178 15.8225V15.8214C29.5181 15.3331 29.4564 14.8466 29.3341 14.3739L29.1666 13.7268L30.326 13.0574L29.4397 11.5224L28.2781 12.1931L27.8014 11.7236C27.1121 11.0448 26.254 10.5394 25.2969 10.2758L24.6514 10.098V8.75781H22.8789V10.098L22.2334 10.2758C21.2763 10.5394 20.4181 11.0448 19.7289 11.7236L19.2522 12.1931L18.0905 11.5224L17.2042 13.0574L18.3638 13.7269L18.1961 14.3742C18.0764 14.836 18.0125 15.321 18.0125 15.822Z" fill="#3C83F6"/>
<path d="M25.877 15.8194C25.877 14.6528 24.9313 13.707 23.7647 13.707C22.5981 13.707 21.6524 14.6528 21.6523 15.8194C21.6523 16.986 22.5981 17.9317 23.7647 17.9317C24.9313 17.9317 25.877 16.986 25.877 15.8194ZM27.6349 15.8194C27.6349 17.9568 25.9021 19.6895 23.7647 19.6895C21.6273 19.6895 19.8945 17.9568 19.8945 15.8194C19.8945 13.682 21.6273 11.9492 23.7647 11.9492C25.9021 11.9492 27.6349 13.6819 27.6349 15.8194Z" fill="#3C83F6"/>
</svg>
