<svg width="44" height="44" viewBox="0 0 44 44" fill="none" xmlns="http://www.w3.org/2000/svg">
<path d="M28.9014 9.1395C26.2601 6.49822 22.7535 5.04688 19.0214 5.04688C15.2894 5.04688 11.7827 6.49822 9.14145 9.1395C6.50018 11.7808 5.04883 15.2874 5.04883 19.0195C5.04883 22.7515 6.50018 26.2582 9.14145 28.8995C11.7827 31.5407 15.2894 32.9921 19.0214 32.9921C21.6807 32.9921 24.2138 32.2439 26.4044 30.8646L33.3636 37.8149C33.6251 38.0763 33.9766 38.2115 34.3192 38.2115C34.6617 38.2115 35.0133 38.0763 35.2747 37.8149L37.8259 35.2638C38.3577 34.7319 38.3577 33.8755 37.8259 33.3527L30.8756 26.3934C32.2548 24.1939 33.0031 21.6608 33.0031 19.0105C32.994 15.2874 31.5427 11.7808 28.9014 9.1395ZM19.0214 30.2877C16.0106 30.2877 13.18 29.1158 11.0525 26.9884C8.9251 24.8609 7.7532 22.0304 7.7532 19.0195C7.7532 16.0086 8.9251 13.178 11.0525 11.0506C13.18 8.92315 16.0106 7.75125 19.0214 7.75125C22.0323 7.75125 24.8629 8.92315 26.9903 11.0506C29.1178 13.178 30.2897 16.0086 30.2897 19.0195C30.2897 22.0304 29.1178 24.8609 26.9903 26.9884C24.8629 29.1158 22.0323 30.2877 19.0214 30.2877ZM34.9592 34.3172L34.3192 34.9573L28.5679 29.206C28.6761 29.1068 28.7932 29.0076 28.9014 28.8995C29.0096 28.7913 29.0997 28.6741 29.2079 28.5659L34.9592 34.3172Z" fill="#A856F7"/>
<path d="M27.1339 17.6667H26.0521L24.6549 15.5663C24.3754 15.1426 23.8796 14.9173 23.3748 14.9714C22.87 15.0255 22.4373 15.368 22.266 15.8368L20.8507 19.6229L18.4979 13.1504C18.2996 12.6095 17.7767 12.249 17.2088 12.258C16.6319 12.267 16.1271 12.6366 15.9468 13.1865L14.1168 18.6764L13.8464 18.2707C13.594 17.8921 13.1703 17.6667 12.7196 17.6667H10.9166C10.1684 17.6667 9.56445 18.2707 9.56445 19.0189C9.56445 19.7671 10.1684 20.3711 10.9166 20.3711H11.9984L13.3957 22.4715C13.6841 22.9042 14.1799 23.1296 14.7028 23.0574C14.9528 23.0234 15.1883 22.9201 15.3826 22.7592C15.577 22.5983 15.7224 22.3862 15.8025 22.147L17.2809 17.7118L19.5616 23.9769C19.7509 24.5088 20.2558 24.8604 20.8237 24.8694H20.8327C21.4006 24.8694 21.8964 24.5178 22.0947 23.995L23.8706 19.2533L24.2132 19.7581C24.4656 20.1367 24.8892 20.3621 25.34 20.3621H27.1429C27.8911 20.3621 28.4951 19.7581 28.4951 19.0099C28.4951 18.2617 27.8821 17.6667 27.1339 17.6667Z" fill="#A856F7"/>
</svg>
