<svg width="44" height="44" viewBox="0 0 44 44" fill="none" xmlns="http://www.w3.org/2000/svg">
<path d="M29.5444 15.8173C29.5444 13.7681 28.7301 11.8029 27.281 10.3538C25.9225 8.99544 24.1105 8.19525 22.2008 8.10047L21.8175 8.09043C19.7682 8.09046 17.803 8.9048 16.3539 10.3538C14.9048 11.8029 14.0905 13.7681 14.0905 15.8173L14.0938 16.0526C14.1234 17.2389 14.4083 18.5852 15.9563 20.1332L16.3932 20.5877C17.3342 21.6067 18.2143 22.8574 18.6131 24.4207L18.6969 24.7864L18.7203 24.943C18.7956 25.7226 18.2693 26.4484 17.4848 26.6054C16.7003 26.7623 15.9358 26.2948 15.7052 25.5465L15.6658 25.3925L15.619 25.1866C15.393 24.3004 14.8712 23.4968 14.129 22.6913L13.7707 22.3188C11.5518 20.0999 11.0581 17.9514 11.005 16.1689L11 15.8173C11 12.9484 12.1396 10.1969 14.1683 8.16828C16.197 6.13961 18.9485 5.00003 21.8175 5L22.0862 5.00335C24.8578 5.07211 27.5013 6.20304 29.4666 8.16828C31.4953 10.1969 32.6349 12.9484 32.6349 15.8173C32.6349 18.1902 31.7293 20.6174 29.8483 22.3347C28.7252 23.4605 28.1921 24.2777 27.9691 25.3925C27.8017 26.2293 26.9877 26.7725 26.151 26.6054C25.314 26.438 24.7707 25.6234 24.938 24.7864C25.3322 22.8159 26.341 21.4717 27.6795 20.1332L27.738 20.078L27.9532 19.8729C28.9945 18.8191 29.5444 17.3426 29.5444 15.8173Z" fill="#A856F7"/>
<path d="M26.4542 29.7266L26.6124 29.7341C27.3916 29.8133 27.9994 30.4717 27.9994 31.2718C27.9994 32.0719 27.3916 32.7303 26.6124 32.8095L26.4542 32.817H17.1819C16.3285 32.817 15.6367 32.1253 15.6367 31.2718C15.6367 30.4183 16.3285 29.7266 17.1819 29.7266H26.4542Z" fill="#A856F7"/>
<path d="M24.9067 35.9102L25.0649 35.9177C25.844 35.997 26.4519 36.6554 26.4519 37.4554C26.4519 38.2554 25.844 38.9137 25.0649 38.9931L24.9067 39.0006H18.7249C17.8714 39.0006 17.1797 38.3089 17.1797 37.4554C17.1797 36.6019 17.8714 35.9102 18.7249 35.9102H24.9067Z" fill="#A856F7"/>
</svg>
