<svg width="40" height="40" viewBox="0 0 40 40" fill="none" xmlns="http://www.w3.org/2000/svg">
<path fill-rule="evenodd" clip-rule="evenodd" d="M32.9642 17.5183C32.8849 17.1715 32.9455 16.8074 33.1329 16.5049C33.3202 16.2024 33.6192 15.986 33.9651 15.9025C34.3109 15.819 34.6757 15.8752 34.9804 16.0588C35.2851 16.2425 35.5052 16.5389 35.5929 16.8837C35.9192 18.2358 36.0923 19.6475 36.0923 21.0989C36.0923 30.9879 28.0639 39.0181 18.1731 39.0181C8.2841 39.0181 0.253906 30.9879 0.253906 21.0989C0.253906 11.2081 8.2841 3.17969 18.1731 3.17969C19.6244 3.17969 21.0361 3.35277 22.3883 3.6791C22.5628 3.71898 22.7276 3.79309 22.8732 3.89714C23.0188 4.00119 23.1423 4.1331 23.2365 4.28523C23.3307 4.43737 23.3938 4.60669 23.4221 4.78339C23.4504 4.96009 23.4434 5.14066 23.4014 5.31461C23.3594 5.48857 23.2833 5.65246 23.1775 5.79678C23.0717 5.9411 22.9383 6.06299 22.785 6.15537C22.6317 6.24775 22.4616 6.30878 22.2846 6.33494C22.1076 6.3611 21.9271 6.35186 21.7537 6.30775C19.5155 5.76687 17.1838 5.74087 14.9341 6.2317C12.6844 6.72253 10.5754 7.7174 8.76595 9.14138C6.95647 10.5654 5.49366 12.3813 4.48768 14.4526C3.4817 16.5238 2.95877 18.7963 2.95828 21.0989C2.95828 29.4969 9.77511 36.3137 18.1731 36.3137C20.4757 36.3132 22.7482 35.7903 24.8194 34.7843C26.8906 33.7783 28.7066 32.3155 30.1306 30.506C31.5546 28.6965 32.5494 26.5875 33.0403 24.3379C33.5311 22.0882 33.5051 19.7565 32.9642 17.5183Z" fill="#3C83F6"/>
<path fill-rule="evenodd" clip-rule="evenodd" d="M24.6188 21.0971C24.6188 20.7385 24.7613 20.3946 25.0149 20.141C25.2684 19.8874 25.6124 19.7449 25.971 19.7449C26.3296 19.7449 26.6736 19.8874 26.9271 20.141C27.1807 20.3946 27.3232 20.7385 27.3232 21.0971C27.3232 26.1453 23.2234 30.2451 18.1734 30.2451C15.7476 30.2437 13.4216 29.2794 11.7064 27.5641C9.99109 25.8489 9.02682 23.5229 9.02539 21.0971C9.02635 18.671 9.9904 16.3446 11.7057 14.6289C13.421 12.9133 15.7473 11.9487 18.1734 11.9473C18.532 11.9473 18.8759 12.0898 19.1295 12.3434C19.3831 12.5969 19.5256 12.9409 19.5256 13.2995C19.5256 13.6581 19.3831 14.0021 19.1295 14.2556C18.8759 14.5092 18.532 14.6517 18.1734 14.6517C16.8986 14.6517 15.6524 15.0297 14.5925 15.7379C13.5326 16.4462 12.7064 17.4528 12.2186 18.6306C11.7308 19.8083 11.6031 21.1043 11.8518 22.3546C12.1005 23.6048 12.7144 24.7533 13.6158 25.6547C14.5172 26.5561 15.6657 27.17 16.916 27.4187C18.1662 27.6674 19.4622 27.5398 20.6399 27.0519C21.8177 26.5641 22.8243 25.738 23.5326 24.678C24.2408 23.6181 24.6188 22.3719 24.6188 21.0971ZM38.6203 8.07465L33.1088 13.588C32.9831 13.7138 32.8339 13.8136 32.6696 13.8816C32.5053 13.9497 32.3292 13.9847 32.1514 13.9846H26.6381C26.2795 13.9846 25.9355 13.8421 25.6819 13.5886C25.4284 13.335 25.2859 12.991 25.2859 12.6324V7.1191C25.2858 6.94129 25.3208 6.7652 25.3889 6.60092C25.4569 6.43665 25.5567 6.28741 25.6825 6.16175L31.1959 0.650238C31.3588 0.487185 31.5608 0.368499 31.7825 0.305456C32.0042 0.242412 32.2384 0.237102 32.4628 0.290032C32.6871 0.342962 32.8942 0.452373 33.0644 0.607873C33.2346 0.763373 33.3622 0.959799 33.4351 1.17849L34.5998 4.67074L38.092 5.83543C38.3107 5.90832 38.5071 6.03592 38.6626 6.2061C38.8181 6.37628 38.9275 6.58339 38.9805 6.80775C39.0334 7.03212 39.0281 7.26629 38.9651 7.48802C38.902 7.70976 38.7833 7.91169 38.6203 8.07465ZM35.1623 7.71046L33.1033 7.02355C32.9041 6.95683 32.723 6.84475 32.5744 6.69614C32.4258 6.54754 32.3137 6.36646 32.247 6.16716L31.56 4.10823L27.9903 7.67801V11.2802H31.5925L35.1623 7.71046Z" fill="#3C83F6"/>
<path fill-rule="evenodd" clip-rule="evenodd" d="M25.6816 11.6735C25.8072 11.5479 25.9563 11.4483 26.1204 11.3803C26.2845 11.3123 26.4604 11.2773 26.638 11.2773C26.8156 11.2773 26.9915 11.3123 27.1556 11.3803C27.3197 11.4483 27.4688 11.5479 27.5945 11.6735C27.7201 11.7991 27.8197 11.9482 27.8877 12.1123C27.9556 12.2764 27.9906 12.4523 27.9906 12.63C27.9906 12.8076 27.9556 12.9835 27.8877 13.1476C27.8197 13.3117 27.7201 13.4608 27.5945 13.5864L19.3245 21.8546C19.199 21.9801 19.05 22.0796 18.8861 22.1475C18.7221 22.2154 18.5464 22.2504 18.3689 22.2504C18.1915 22.2504 18.0157 22.2154 17.8518 22.1475C17.6878 22.0796 17.5389 21.9801 17.4134 21.8546C17.2879 21.7291 17.1884 21.5801 17.1204 21.4162C17.0525 21.2522 17.0176 21.0765 17.0176 20.899C17.0176 20.7216 17.0525 20.5459 17.1204 20.3819C17.1884 20.218 17.2879 20.069 17.4134 19.9435L25.6816 11.6735Z" fill="#3C83F6"/>
</svg>
