<svg width="44" height="44" viewBox="0 0 44 44" fill="none" xmlns="http://www.w3.org/2000/svg">
<path d="M9.24934 29.0847H5.74983C4.78391 29.0857 4.0011 29.8685 4.00008 30.8345V38.4167C4.00008 38.5714 4.06152 38.7197 4.1709 38.8291C4.28028 38.9385 4.42862 38.9999 4.58331 38.9999H10.4158C10.5705 38.9999 10.7188 38.9385 10.8282 38.8291C10.9376 38.7197 10.999 38.5714 10.999 38.4167V30.8345C10.998 29.8685 10.2153 29.0858 9.24934 29.0847ZM9.83257 37.8335H5.16653V30.8345C5.16673 30.6798 5.22824 30.5316 5.33758 30.4223C5.44691 30.3129 5.59514 30.2514 5.74976 30.2512H9.24927C9.40389 30.2514 9.55212 30.3129 9.66145 30.4223C9.77079 30.5316 9.8323 30.6798 9.8325 30.8345L9.83257 37.8335ZM18.5813 20.9192H15.0818C14.1159 20.9203 13.3331 21.7031 13.3321 22.669V38.4168C13.3321 38.5715 13.3935 38.7198 13.5029 38.8292C13.6123 38.9386 13.7606 39 13.9153 39H19.7478C19.9025 39 20.0508 38.9386 20.1602 38.8292C20.2696 38.7198 20.331 38.5715 20.331 38.4168V22.669C20.33 21.703 19.5473 20.9203 18.5813 20.9192ZM19.1646 37.8335H14.4985V22.669C14.4987 22.5144 14.5602 22.3661 14.6696 22.2568C14.7789 22.1475 14.9271 22.086 15.0818 22.0858H18.5813C18.7359 22.086 18.8841 22.1475 18.9935 22.2568C19.1028 22.3661 19.1643 22.5144 19.1645 22.669L19.1646 37.8335ZM27.9133 24.4187H24.4138C23.4479 24.4198 22.6651 25.2026 22.6641 26.1685V38.4168C22.6641 38.5715 22.7255 38.7198 22.8349 38.8292C22.9443 38.9386 23.0926 39 23.2473 39H29.0798C29.2345 39 29.3828 38.9386 29.4922 38.8292C29.6016 38.7198 29.663 38.5715 29.663 38.4168V26.1685C29.6621 25.2025 28.8792 24.4198 27.9133 24.4187ZM28.4966 37.8335H23.8306V26.1685C23.8308 26.0139 23.8923 25.8656 24.0016 25.7563C24.111 25.647 24.2592 25.5855 24.4138 25.5853H27.9133C28.068 25.5855 28.2162 25.647 28.3255 25.7563C28.4349 25.8656 28.4964 26.0139 28.4966 26.1685L28.4966 37.8335ZM37.2454 19.7527H33.7459C32.78 19.7537 31.9972 20.5365 31.9961 21.5025V38.4168C31.9961 38.5715 32.0576 38.7198 32.167 38.8292C32.2763 38.9386 32.4247 39 32.5794 39H38.4119C38.5665 39 38.7149 38.9386 38.8243 38.8292C38.9336 38.7198 38.9951 38.5715 38.9951 38.4168V21.5025C38.9941 20.5365 38.2113 19.7537 37.2454 19.7527ZM37.8286 37.8335H33.1626V21.5025C33.1628 21.3478 33.2243 21.1996 33.3336 21.0903C33.443 20.9809 33.5912 20.9194 33.7458 20.9192H37.2453C37.3999 20.9194 37.5482 20.9809 37.6575 21.0903C37.7668 21.1996 37.8284 21.3478 37.8286 21.5025V37.8335H37.8286ZM32.8832 10.9915C33.9518 12.1942 35.7029 12.5128 37.1266 11.7636C38.5503 11.0143 39.2791 9.39048 38.8928 7.82875C38.5064 6.26703 37.1044 5.17043 35.4956 5.17138C34.9206 5.17091 34.3542 5.31229 33.8468 5.58299C33.3395 5.85369 32.9067 6.24536 32.5868 6.7233C32.267 7.20123 32.07 7.75068 32.0132 8.32296C31.9564 8.89523 32.0417 9.47268 32.2615 10.0041L28.776 12.1828C28.4657 11.831 28.0874 11.5455 27.664 11.3434C27.2406 11.1414 26.7807 11.027 26.312 11.0071C25.8433 10.9871 25.3753 11.0621 24.9363 11.2274C24.4972 11.3927 24.0961 11.6451 23.757 11.9692L19.9395 9.10614C20.7466 7.5451 20.2706 5.62762 18.8272 4.6252C17.3838 3.62278 15.4208 3.84642 14.2399 5.14787C13.059 6.44932 13.0266 8.42476 14.1642 9.76421L9.27429 15.5752C7.70634 14.6526 5.69296 15.0853 4.6425 16.5706C3.59203 18.0559 3.85477 20.0984 5.24705 21.2695C6.63933 22.4405 8.69659 22.3495 9.98 21.06C11.2634 19.7706 11.3447 17.7129 10.1671 16.3261L15.057 10.5152C16.3996 11.3138 18.1101 11.1188 19.2384 10.0383L23.0559 12.9014C22.313 14.3405 22.6548 16.1015 23.8823 17.158C25.1098 18.2146 26.9021 18.2904 28.2145 17.3415C29.527 16.3925 30.0166 14.6668 29.398 13.17L32.8832 10.9915ZM35.4956 6.33791C36.7841 6.33791 37.8286 7.38243 37.8286 8.67089C37.8271 9.95874 36.7835 11.0024 35.4956 11.0039C34.2072 11.0039 33.1627 9.95935 33.1627 8.67089C33.1627 7.38243 34.2071 6.33791 35.4956 6.33791ZM7.49958 20.9192C6.21112 20.9192 5.1666 19.8747 5.1666 18.5863C5.1666 17.2978 6.21112 16.2533 7.49958 16.2533C8.78805 16.2533 9.83257 17.2978 9.83257 18.5863C9.83106 19.8741 8.78743 20.9177 7.49958 20.9192ZM16.8316 9.83742C15.5431 9.83742 14.4986 8.7929 14.4986 7.50443C14.4986 6.21597 15.5431 5.17145 16.8316 5.17145C18.12 5.17145 19.1646 6.21597 19.1646 7.50443C19.1631 8.79228 18.1194 9.83598 16.8316 9.83742ZM26.1636 16.8364C24.8751 16.8364 23.8306 15.7919 23.8306 14.5034C23.8306 13.215 24.8751 12.1705 26.1636 12.1705C27.452 12.1705 28.4966 13.215 28.4966 14.5034C28.4951 15.7913 27.4515 16.835 26.1636 16.8364Z" fill="#3C83F6" stroke="#3C83F6" stroke-width="0.6"/>
</svg>
