<svg width="44" height="44" viewBox="0 0 44 44" fill="none" xmlns="http://www.w3.org/2000/svg">
<path d="M24.0529 16.3363C24.642 15.8557 25.5113 15.8903 26.0604 16.4394C26.6457 17.0251 26.6457 17.9743 26.0604 18.56L20.0605 24.5599C19.5113 25.1091 18.642 25.1437 18.0529 24.6631L17.9391 24.5599L14.9396 21.5603L14.8364 21.4466C14.3556 20.8575 14.3903 19.9883 14.9396 19.439C15.4887 18.8901 16.3572 18.8555 16.9463 19.3358L17.0601 19.439L18.9994 21.3775L23.9391 16.4394L24.0529 16.3363Z" fill="#3C83F6"/>
<path d="M30.9991 20.4989C30.9989 14.7003 26.2976 9.99958 20.4989 9.99958C14.7005 9.9998 9.9998 14.7005 9.99958 20.4989C9.99958 26.2976 14.7003 30.9989 20.4989 30.9991C26.2977 30.9991 30.9991 26.2977 30.9991 20.4989ZM33.9987 20.4989C33.9987 27.9545 27.9545 33.9987 20.4989 33.9987C13.0436 33.9984 7 27.9543 7 20.4989C7.00022 13.0437 13.0437 7.00022 20.4989 7C27.9543 7 33.9984 13.0436 33.9987 20.4989Z" fill="#3C83F6"/>
<path d="M27.9883 27.9902C28.5374 27.4411 29.4059 27.4065 29.995 27.887L30.1088 27.9902L36.5588 34.4395L36.662 34.5532C37.1426 35.1423 37.108 36.0116 36.5588 36.5608C36.0096 37.11 35.1404 37.1446 34.5513 36.664L34.4375 36.5608L27.9883 30.1107L27.8851 29.997C27.4046 29.4078 27.4391 28.5393 27.9883 27.9902Z" fill="#3C83F6"/>
</svg>
