<svg width="44" height="44" viewBox="0 0 44 44" fill="none" xmlns="http://www.w3.org/2000/svg">
<path d="M29.5 17.625V26.375C29.5 26.8723 29.3025 27.3492 28.9508 27.7008C28.5992 28.0525 28.1223 28.25 27.625 28.25C27.1277 28.25 26.6508 28.0525 26.2992 27.7008C25.9475 27.3492 25.75 26.8723 25.75 26.375V17.625C25.75 17.1277 25.9475 16.6508 26.2992 16.2992C26.6508 15.9475 27.1277 15.75 27.625 15.75C28.1223 15.75 28.5992 15.9475 28.9508 16.2992C29.3025 16.6508 29.5 17.1277 29.5 17.625ZM21.375 7C20.8777 7 20.4008 7.19754 20.0492 7.54917C19.6975 7.90081 19.5 8.37772 19.5 8.875V35.125C19.5 35.6223 19.6975 36.0992 20.0492 36.4508C20.4008 36.8025 20.8777 37 21.375 37C21.8723 37 22.3492 36.8025 22.7008 36.4508C23.0525 36.0992 23.25 35.6223 23.25 35.125V8.875C23.25 8.37772 23.0525 7.90081 22.7008 7.54917C22.3492 7.19754 21.8723 7 21.375 7ZM33.875 12C33.3777 12 32.9008 12.1975 32.5492 12.5492C32.1975 12.9008 32 13.3777 32 13.875V30.125C32 30.6223 32.1975 31.0992 32.5492 31.4508C32.9008 31.8025 33.3777 32 33.875 32C34.3723 32 34.8492 31.8025 35.2008 31.4508C35.5525 31.0992 35.75 30.6223 35.75 30.125V13.875C35.75 13.3777 35.5525 12.9008 35.2008 12.5492C34.8492 12.1975 34.3723 12 33.875 12ZM15.125 13.25C14.6277 13.25 14.1508 13.4475 13.7992 13.7992C13.4475 14.1508 13.25 14.6277 13.25 15.125V28.875C13.25 29.3723 13.4475 29.8492 13.7992 30.2008C14.1508 30.5525 14.6277 30.75 15.125 30.75C15.6223 30.75 16.0992 30.5525 16.4508 30.2008C16.8025 29.8492 17 29.3723 17 28.875V15.125C17 14.6277 16.8025 14.1508 16.4508 13.7992C16.0992 13.4475 15.6223 13.25 15.125 13.25ZM8.875 18.25C8.37772 18.25 7.90081 18.4475 7.54917 18.7992C7.19754 19.1508 7 19.6277 7 20.125V23.875C7 24.3723 7.19754 24.8492 7.54917 25.2008C7.90081 25.5525 8.37772 25.75 8.875 25.75C9.37228 25.75 9.84919 25.5525 10.2008 25.2008C10.5525 24.8492 10.75 24.3723 10.75 23.875V20.125C10.75 19.6277 10.5525 19.1508 10.2008 18.7992C9.84919 18.4475 9.37228 18.25 8.875 18.25Z" fill="#3C83F6"/>
</svg>
