<svg width="44" height="44" viewBox="0 0 44 44" fill="none" xmlns="http://www.w3.org/2000/svg">
<path d="M34.2727 22C34.2727 15.222 28.778 9.72727 22 9.72727C15.222 9.72727 9.72727 15.222 9.72727 22C9.72727 28.778 15.222 34.2727 22 34.2727C28.778 34.2727 34.2727 28.778 34.2727 22ZM37 22C37 30.2843 30.2843 37 22 37C13.7157 37 7 30.2843 7 22C7 13.7157 13.7157 7 22 7C30.2843 7 37 13.7157 37 22Z" fill="#A856F7"/>
<path d="M26.0917 22C26.0917 17.7743 24.6379 13.6938 22.0008 10.4304C19.3637 13.6938 17.9099 17.7743 17.9099 22C17.9099 26.2255 19.3639 30.3055 22.0008 33.5688C24.6377 30.3055 26.0917 26.2255 26.0917 22ZM28.819 22C28.819 27.4273 26.7315 32.6468 22.9885 36.5769C22.7311 36.8472 22.374 37 22.0008 37C21.6743 37 21.3601 36.8831 21.1143 36.6728L21.0131 36.5769C17.2701 32.6468 15.1826 27.4273 15.1826 22C15.1826 16.5727 17.2701 11.3532 21.0131 7.42309L21.1143 7.32721C21.3601 7.11693 21.6743 7 22.0008 7C22.374 7 22.7311 7.15285 22.9885 7.42309C26.7315 11.3532 28.819 16.5727 28.819 22Z" fill="#A856F7"/>
<path d="M35.6364 20.6367C36.3895 20.6367 37 21.2472 37 22.0004C37 22.7535 36.3895 23.364 35.6364 23.364H8.36364C7.61052 23.364 7 22.7535 7 22.0004C7 21.2472 7.61052 20.6367 8.36364 20.6367H35.6364Z" fill="#A856F7"/>
</svg>
