<svg width="44" height="44" viewBox="0 0 44 44" fill="none" xmlns="http://www.w3.org/2000/svg">
<path d="M37 22C37 17.9934 35.4397 14.2265 32.6066 11.3934C29.7735 8.56029 26.0066 7 22 7C18.8598 7 15.8674 7.95906 13.356 9.7375C12.95 9.49706 12.4868 9.37039 12.0149 9.37082C10.557 9.37082 9.37088 10.5569 9.37088 12.0149C9.37088 12.5041 9.50494 12.9624 9.73756 13.356C7.95912 15.8675 7 18.8598 7 22C7 26.0066 8.56029 29.7735 11.3934 32.6066C14.2265 35.4397 17.9934 37 22 37C25.14 37 28.1318 36.0404 30.6432 34.262C31.0494 34.5027 31.513 34.6295 31.9851 34.6291C33.4431 34.6291 34.6292 33.443 34.6292 31.9851C34.6292 31.4958 34.4951 31.0375 34.2625 30.644C36.0409 28.1326 37 25.1402 37 22ZM12.0149 11.1286C12.5035 11.1286 12.9011 11.5262 12.9011 12.0149C12.9011 12.5035 12.5035 12.9011 12.0149 12.9011C11.5262 12.9011 11.1286 12.5035 11.1286 12.0149C11.1286 11.5262 11.5262 11.1286 12.0149 11.1286ZM31.9851 32.8714C31.4965 32.8714 31.0989 32.4738 31.0989 31.9851C31.0989 31.4965 31.4965 31.0989 31.9851 31.0989C32.4738 31.0989 32.8714 31.4965 32.8714 31.9851C32.8714 32.4738 32.4737 32.8714 31.9851 32.8714ZM32.911 29.5088C32.6149 29.3977 32.3013 29.3409 31.9851 29.3411C30.5272 29.3411 29.3411 30.5272 29.3411 31.9851C29.3409 32.3011 29.3976 32.6144 29.5085 32.9103C27.3167 34.4255 24.7214 35.2422 22 35.2422C18.4629 35.2422 15.1375 33.8648 12.6364 31.3636C10.1352 28.8625 8.75781 25.5371 8.75781 22C8.75781 19.2786 9.57414 16.6831 11.0894 14.4914C11.3853 14.6024 11.6988 14.6591 12.0149 14.6589C13.4728 14.6589 14.6589 13.4728 14.6589 12.0149C14.6591 11.6989 14.6024 11.3855 14.4915 11.0897C16.6833 9.57443 19.2786 8.75781 22 8.75781C25.5371 8.75781 28.8625 10.1352 31.3636 12.6364C33.8648 15.1375 35.2422 18.4629 35.2422 22C35.2422 24.7214 34.4262 27.317 32.911 29.5088Z" fill="#A856F7"/>
<path d="M31.3886 15.2544C31.3886 13.7965 30.2024 12.6104 28.7445 12.6104C28.2335 12.6099 27.7334 12.7585 27.3055 13.038C25.7507 12.1138 23.9367 11.582 22.0004 11.582C16.2568 11.582 11.584 16.2548 11.584 21.9985C11.584 23.9348 12.1158 25.7488 13.0399 27.3036C12.7605 27.7315 12.6119 28.2315 12.6124 28.7426C12.6124 30.2005 13.7985 31.3866 15.2564 31.3866C15.7673 31.387 16.2673 31.2385 16.6951 30.9592C18.25 31.8833 20.0642 32.4149 22.0005 32.4149C27.7441 32.4149 32.4169 27.7421 32.4169 21.9985C32.4169 20.0622 31.8851 18.2482 30.9609 16.6934C31.2404 16.2655 31.389 15.7654 31.3886 15.2544ZM28.7445 14.3682C29.2332 14.3682 29.6307 14.7657 29.6307 15.2544C29.6307 15.7431 29.2332 16.1406 28.7445 16.1406C28.2558 16.1406 27.8583 15.7431 27.8583 15.2544C27.8583 14.7657 28.2558 14.3682 28.7445 14.3682ZM15.2563 29.6288C14.7677 29.6288 14.3701 29.2312 14.3701 28.7426C14.3701 28.2539 14.7677 27.8563 15.2563 27.8563C15.745 27.8563 16.1426 28.2539 16.1426 28.7426C16.1426 29.2312 15.745 29.6288 15.2563 29.6288ZM22.0004 30.6571C20.466 30.6571 19.0243 30.255 17.7732 29.552C17.8576 29.2904 17.9005 29.0173 17.9004 28.7425C17.9004 27.2846 16.7143 26.0985 15.2563 26.0985C14.9739 26.0985 14.7018 26.1435 14.4463 26.2259C13.7433 24.9749 13.3417 23.5328 13.3417 21.9984C13.3417 17.224 17.226 13.3398 22.0004 13.3398C23.5347 13.3398 24.9765 13.7419 26.2276 14.4449C26.1432 14.7064 26.1003 14.9795 26.1004 15.2543C26.1004 16.7123 27.2865 17.8984 28.7444 17.8984C29.0192 17.8985 29.2923 17.8555 29.5538 17.7712C30.2568 19.0223 30.6589 20.4641 30.6589 21.9985C30.6591 26.7729 26.7748 30.6571 22.0004 30.6571Z" fill="#A856F7"/>
<path d="M23.8028 18.8781L22.0008 15.7891L20.1988 18.8781L16.6211 18.8941L18.3958 22.0011L16.6212 25.1082L20.1988 25.1242L22.0008 28.2132L23.8028 25.1242L27.3804 25.1082L25.6057 22.0011L27.3804 18.8941L23.8028 18.8781ZM24.3597 23.3638L22.7905 23.3709L22.0008 24.7246L21.211 23.3709L19.6418 23.3638L20.4201 22.0011L19.6418 20.6384L21.211 20.6314L22.0008 19.2776L22.7905 20.6314L24.3597 20.6384L23.5814 22.0011L24.3597 23.3638Z" fill="#A856F7"/>
</svg>
