<svg width="44" height="44" viewBox="0 0 44 44" fill="none" xmlns="http://www.w3.org/2000/svg">
<path d="M24.6346 12.4543C24.6346 11.731 24.3471 11.0376 23.8356 10.5261C23.3562 10.0467 22.7169 9.76369 22.0429 9.73021L21.9074 9.72716C21.1842 9.72716 20.4907 10.0147 19.9793 10.5261C19.4678 11.0376 19.1803 11.731 19.1803 12.4543V21.9994L19.1833 22.1348C19.2168 22.8088 19.4998 23.4482 19.9793 23.9276C20.4907 24.439 21.1842 24.7266 21.9074 24.7266C22.6307 24.7266 23.3242 24.439 23.8356 23.9276C24.3471 23.4161 24.6346 22.7227 24.6346 21.9994V12.4543ZM27.3618 21.9994C27.3618 23.446 26.7875 24.8336 25.7646 25.8565C24.7417 26.8794 23.354 27.4537 21.9074 27.4537C20.4609 27.4537 19.0732 26.8794 18.0503 25.8565C17.0913 24.8975 16.5268 23.6177 16.46 22.2695L16.4531 21.9994V12.4543C16.4531 11.0077 17.0274 9.62007 18.0503 8.59719C19.0732 7.5743 20.4609 7 21.9074 7L22.1776 7.00685C23.5258 7.07365 24.8056 7.63815 25.7646 8.59719C26.7875 9.62007 27.3618 11.0077 27.3618 12.4543V21.9994Z" fill="#A856F7"/>
<path d="M11 21.997V19.2698C11 18.5167 11.6105 17.9062 12.3636 17.9062C13.1167 17.9062 13.7272 18.5167 13.7272 19.2698V21.997L13.7371 22.4026C13.8373 24.4248 14.6849 26.3439 16.1233 27.7823C17.6576 29.3166 19.7388 30.1785 21.9086 30.1785L22.3142 30.1686C24.3364 30.0683 26.2555 29.2208 27.694 27.7823C29.1324 26.3439 29.98 24.4248 30.0802 22.4026L30.0901 21.997V19.2698C30.0901 18.5167 30.7006 17.9062 31.4537 17.9062C32.2068 17.9062 32.8173 18.5167 32.8173 19.2698V21.997L32.8143 22.2679C32.7449 25.0629 31.604 27.7287 29.6222 29.7105C27.6403 31.6923 24.9745 32.8332 22.1795 32.9026L21.9086 32.9056C19.0155 32.9056 16.2409 31.7563 14.1951 29.7105C12.2133 27.7287 11.0724 25.0629 11.003 22.2679L11 21.997Z" fill="#A856F7"/>
<path d="M20.5449 35.6379V31.5472C20.5449 30.7941 21.1554 30.1836 21.9085 30.1836C22.6616 30.1836 23.2721 30.7941 23.2721 31.5472V35.6379C23.2721 36.391 22.6616 37.0015 21.9085 37.0015C21.1554 37.0015 20.5449 36.391 20.5449 35.6379Z" fill="#A856F7"/>
</svg>
