<svg width="44" height="44" viewBox="0 0 44 44" fill="none" xmlns="http://www.w3.org/2000/svg">
<path d="M38.4955 26.6868C38.4954 24.9465 37.8042 23.2779 36.5736 22.0473C35.4198 20.8935 33.8808 20.2137 32.2587 20.1333L31.9331 20.1244H28.5772C27.7481 20.1243 27.0179 19.58 26.781 18.7854C26.1849 16.7862 25.0444 14.9921 23.4874 13.6036C21.9304 12.215 20.0174 11.2868 17.9632 10.9226C15.9092 10.5585 13.7943 10.7726 11.855 11.5411C9.91572 12.3098 8.22792 13.6028 6.98097 15.2751C5.73398 16.9477 4.97589 18.9349 4.79284 21.0131C4.60988 23.0912 5.00845 25.1794 5.94381 27.0441C6.87923 28.9089 8.31522 30.4769 10.0905 31.5727C11.8656 32.6685 13.9106 33.2487 15.9967 33.2492H31.9331C33.6736 33.2492 35.3429 32.558 36.5736 31.3273C37.8043 30.0966 38.4955 28.4273 38.4955 26.6868ZM42.2463 26.6868C42.2463 29.4218 41.1598 32.0456 39.2259 33.9796C37.292 35.9135 34.6681 37 31.9331 37H15.9957C13.2141 36.9993 10.487 36.2245 8.12006 34.7634C5.75323 33.3022 3.83902 31.2118 2.59185 28.7255C1.34462 26.2391 0.813822 23.4545 1.05789 20.6836C1.30197 17.9127 2.31185 15.2645 3.9744 13.0345C5.63695 10.8046 7.8867 9.08052 10.4725 8.05557C13.0584 7.03064 15.8793 6.74466 18.6183 7.2302C21.3571 7.71579 23.9073 8.95354 25.9833 10.8048C27.7049 12.3401 29.043 14.248 29.9033 16.3746H31.9331L32.4448 16.3875C34.9937 16.5139 37.4128 17.5819 39.2259 19.395C41.1597 21.3289 42.2462 23.952 42.2463 26.6868Z" fill="#3C83F6"/>
</svg>
