<svg width="38" height="35" viewBox="0 0 38 35" fill="none" xmlns="http://www.w3.org/2000/svg">
<path d="M35.9771 27.322L22.3812 3.77486C21.3034 1.90765 18.9159 1.26766 17.0487 2.34551C16.455 2.68821 15.9621 3.18119 15.6193 3.77486L2.02345 27.322C0.945606 29.1895 1.5857 31.5772 3.45311 32.655C4.04642 32.9975 4.71936 33.1778 5.40439 33.1779H32.5962C34.7524 33.1777 36.5002 31.4295 36.5 29.2733C36.4999 28.5882 36.3196 27.9153 35.9771 27.322ZM34.7204 30.5002C34.507 30.8747 34.1978 31.1858 33.8245 31.4013C33.4512 31.6169 33.0272 31.7292 32.5962 31.7267H5.40439C4.04967 31.7265 2.95161 30.628 2.95182 29.2733C2.95189 28.843 3.06514 28.4203 3.28021 28.0476L16.8761 4.49923C17.5532 3.32612 19.053 2.92392 20.2263 3.60102C20.5993 3.81634 20.9091 4.12614 21.1245 4.49923L34.7204 28.0476C34.938 28.4196 35.0528 28.8429 35.0528 29.2739C35.0528 29.7049 34.938 30.1282 34.7204 30.5002Z" fill="#3C83F6" stroke="#3C83F6" stroke-width="1.8"/>
<path d="M19.5002 13C18.6723 13.0011 18.0014 13.7927 18.0005 14.7696V19.9334C18.0006 20.9107 18.6721 21.703 19.5004 21.7029C20.3285 21.7028 20.9999 20.9107 21 19.9334V14.7696C20.9991 13.7927 20.3282 13.0012 19.5002 13ZM19.5002 22.4603C18.6718 22.4601 18.0001 23.2524 18 24.2298C17.9999 25.2073 18.6714 25.9999 19.4998 26C20.3282 26.0001 20.9999 25.2079 21 24.2304C20.9991 23.2536 20.3282 22.4614 19.5002 22.4603Z" fill="#3C83F6"/>
</svg>
