<svg width="44" height="44" viewBox="0 0 44 44" fill="none" xmlns="http://www.w3.org/2000/svg">
<path d="M33.9995 11.4995C33.9993 10.6712 33.328 9.99968 32.4997 9.99968H11.4995C10.6713 9.99984 9.99984 10.6713 9.99968 11.4995V32.4997C9.99968 33.328 10.6712 33.9993 11.4995 33.9995H32.4997C33.3281 33.9995 33.9995 33.3281 33.9995 32.4997V11.4995ZM37 32.4997C37 34.9849 34.9849 37 32.4997 37H11.4995C9.01439 36.9998 7.00001 34.9848 7 32.4997V11.4995C7.00016 9.01449 9.01449 7.00016 11.4995 7H32.4997C34.9848 7.00001 36.9998 9.01439 37 11.4995V32.4997Z" fill="#3C83F6"/>
<path d="M19.0002 17.4995C19 16.6712 18.3278 15.9997 17.4995 15.9997C16.6713 15.9998 15.9998 16.6713 15.9997 17.4995C15.9997 18.3278 16.6712 19 17.4995 19.0002C18.3279 19.0002 19.0002 18.3279 19.0002 17.4995ZM21.9998 17.4995C21.9998 19.9848 19.9848 21.9998 17.4995 21.9998C15.0144 21.9997 13 19.9847 13 17.4995C13.0002 15.0145 15.0145 13.0002 17.4995 13C19.9847 13 21.9997 15.0144 21.9998 17.4995Z" fill="#3C83F6"/>
<path d="M28.7495 19.4922C29.9427 19.4922 31.0874 19.9656 31.9312 20.8092V20.81L36.5599 25.4387L36.6631 25.5525C37.1437 26.1416 37.1091 27.0109 36.5599 27.5601C36.0108 28.109 35.1422 28.1435 34.5531 27.6633L34.4385 27.5601L29.8098 22.9314C29.5285 22.6502 29.1473 22.4919 28.7495 22.4919C28.4015 22.4919 28.0658 22.6129 27.7989 22.8315L27.6893 22.9314L14.0599 36.5599L13.9462 36.6631C13.3571 37.1434 12.4884 37.1089 11.9393 36.5599C11.3536 35.9742 11.3536 35.0243 11.9393 34.4386L25.5679 20.81V20.8092L25.7296 20.6557C26.555 19.9084 27.6309 19.4922 28.7495 19.4922Z" fill="#3C83F6"/>
</svg>
