<svg width="44" height="44" viewBox="0 0 44 44" fill="none" xmlns="http://www.w3.org/2000/svg">
<path d="M18.8806 29.4987C19.5174 28.862 20.5246 28.8219 21.2077 29.379L21.3396 29.4987L24.819 32.9771L24.9613 33.1062C25.109 33.2273 25.274 33.3267 25.4512 33.4001C25.6878 33.4981 25.9422 33.548 26.1983 33.548C26.4543 33.548 26.7079 33.4981 26.9445 33.4001C27.181 33.3021 27.3956 33.1581 27.5767 32.9771C27.7578 32.796 27.9017 32.5806 27.9997 32.344C28.0732 32.1664 28.1204 31.9795 28.1391 31.789L28.1486 31.5978C28.1485 31.3417 28.0977 31.0881 27.9997 30.8516C27.9017 30.615 27.7577 30.3995 27.5767 30.2185L27.458 30.0866C26.9009 29.4035 26.9403 28.3963 27.5767 27.7595C28.2559 27.0802 29.3573 27.0802 30.0366 27.7595L30.2213 27.9526C30.6392 28.4139 30.9756 28.944 31.2143 29.5203C31.4871 30.1789 31.6269 30.8849 31.627 31.5978L31.6204 31.8653C31.5897 32.487 31.453 33.0999 31.2143 33.6762C30.9415 34.3348 30.5407 34.933 30.0366 35.437C29.5326 35.9411 28.9343 36.341 28.2757 36.6138C27.6171 36.8866 26.9112 37.0273 26.1983 37.0274C25.4853 37.0274 24.7786 36.8866 24.1199 36.6138C23.5436 36.375 23.0134 36.0388 22.5522 35.6208L22.359 35.437L18.8806 31.9586L18.761 31.8258C18.2039 31.1426 18.2438 30.1354 18.8806 29.4987Z" fill="#3C83F6"/>
<path d="M24.0973 24.2807C24.7343 23.6437 25.7422 23.6035 26.4254 24.161L26.5573 24.2807L30.9053 28.6287L31.0485 28.7587C31.3955 29.043 31.8321 29.1996 32.2846 29.1996L32.4778 29.1902C32.9241 29.1458 33.344 28.9487 33.6639 28.6287C33.9839 28.3087 34.1811 27.8889 34.2254 27.4425L34.2349 27.2494C34.2348 26.7967 34.0775 26.3604 33.793 26.0133L33.6639 25.8701L26.9153 19.1215V19.1224C26.263 18.4711 25.379 18.1049 24.4572 18.1049C23.5354 18.1049 22.6514 18.471 21.9992 19.1224L20.4691 20.6525C19.451 21.6705 18.0697 22.2428 16.6298 22.2428C15.1902 22.2427 13.8096 21.6704 12.7915 20.6525C11.837 19.698 11.2744 18.4245 11.2078 17.0826L11.2012 16.8132C11.2012 15.3733 11.7734 13.9921 12.7915 12.9739L17.6803 8.08511L18.0355 7.74499C19.8449 6.08464 22.1306 5.02681 24.5759 4.7254C27.1835 4.40407 29.824 4.96142 32.0792 6.30915L32.897 6.79624L32.9055 6.80095L33.0468 6.87821C33.3826 7.04055 33.7632 7.09045 34.1322 7.01953L37.1602 6.4109L37.3355 6.38452C38.2131 6.29867 39.0309 6.89021 39.2085 7.77325C39.3979 8.71491 38.7877 9.63191 37.8461 9.82149L34.819 10.4301L34.8124 10.432C33.5425 10.6821 32.2255 10.4504 31.1163 9.7838V9.78474L30.2986 9.29765L30.2967 9.29577C28.7054 8.34436 26.8419 7.95163 25.0018 8.17838C23.1618 8.40512 21.4501 9.23878 20.1375 10.5479L20.1365 10.5469L15.2515 15.4339C14.8857 15.7996 14.6796 16.2959 14.6796 16.8132L14.689 17.0063C14.7334 17.4527 14.9315 17.8725 15.2515 18.1925C15.6171 18.558 16.1128 18.7634 16.6298 18.7634C17.1471 18.7634 17.6434 18.5582 18.0092 18.1925L19.5411 16.6606L19.7908 16.4231C21.0666 15.2693 22.7288 14.6265 24.4572 14.6265C26.1856 14.6265 27.8478 15.2694 29.1237 16.4231L29.3743 16.6606L36.1239 23.4101L36.3095 23.6061C37.211 24.6019 37.7142 25.8997 37.7142 27.2494L37.7067 27.5188C37.6401 28.8607 37.0783 30.1341 36.1239 31.0887C35.1694 32.0431 33.8959 32.6058 32.5541 32.6724L32.2846 32.679C30.9346 32.679 29.6363 32.1761 28.6404 31.2743L28.4454 31.0887L24.0973 26.7397L23.9777 26.6078C23.4206 25.9247 23.4607 24.9174 24.0973 24.2807Z" fill="#3C83F6"/>
<path d="M37.3465 4.64397C38.2434 4.56243 39.043 5.17752 39.211 6.04306L39.2364 6.21924L40.9756 25.3524C41.0198 25.839 40.8575 26.3219 40.5281 26.6828C40.1986 27.0436 39.7317 27.249 39.243 27.249H35.7646C34.804 27.249 34.0254 26.4704 34.0254 25.5098C34.0254 24.5492 34.804 23.7706 35.7646 23.7706H37.3389L35.7721 6.53392L35.7646 6.35586C35.774 5.47442 36.4497 4.7255 37.3465 4.64397Z" fill="#3C83F6"/>
<path d="M6.35112 4.64394C7.30776 4.73091 8.01328 5.57726 7.9264 6.53389L6.26068 24.8568L16.9908 35.586L17.134 35.7151C17.481 35.9993 17.9168 36.1569 18.3692 36.157C18.8864 36.157 19.3828 35.9517 19.7485 35.586L19.8785 35.4428C20.1629 35.0958 20.3204 34.6593 20.3204 34.2067C20.3204 33.6895 20.1143 33.1932 19.7485 32.8274L22.2085 30.3675C23.2266 31.3856 23.7988 32.7668 23.7988 34.2067C23.7988 35.5568 23.296 36.855 22.3941 37.851L22.2085 38.046C21.1903 39.064 19.809 39.6364 18.3692 39.6364C17.0195 39.6362 15.7217 39.1332 14.7259 38.2316L14.5309 38.046L3.22507 26.7402C2.86008 26.3752 2.67527 25.8665 2.72196 25.3524L4.46211 6.21921C4.54907 5.26264 5.39458 4.55717 6.35112 4.64394ZM19.7485 30.3675C20.4277 29.6883 21.5292 29.6884 22.2085 30.3675L19.7485 32.8274C19.0695 32.1481 19.0693 31.0467 19.7485 30.3675Z" fill="#3C83F6"/>
<path d="M20.1089 6.37891L20.287 6.38739C21.1642 6.47633 21.8491 7.21743 21.8491 8.11812C21.8491 9.01881 21.1642 9.7599 20.287 9.84885L20.1089 9.85733H6.19429C5.23365 9.85733 4.45508 9.07875 4.45508 8.11812C4.45508 7.15748 5.23365 6.37891 6.19429 6.37891H20.1089Z" fill="#3C83F6"/>
</svg>
