<svg width="44" height="44" viewBox="0 0 44 44" fill="none" xmlns="http://www.w3.org/2000/svg">
<path d="M6 32.4997V11.4995C6.00008 10.3062 6.47401 9.16168 7.31784 8.31784C8.16168 7.47401 9.30616 7.00008 10.4995 7H29.2499L29.4027 7.00731C30.1592 7.08394 30.7498 7.72305 30.7498 8.49984C30.7498 9.27662 30.1592 9.91574 29.4027 9.99236L29.2499 9.99968H10.4995C10.1018 9.99976 9.72046 10.158 9.43923 10.4392C9.158 10.7205 8.99976 11.1018 8.99968 11.4995V32.4997C8.99968 32.8974 9.15802 33.2787 9.43923 33.56L9.54891 33.6599C9.81578 33.8786 10.1514 33.9994 10.4995 33.9995H31.4997C31.8975 33.9995 32.2787 33.8413 32.56 33.56L32.6599 33.4503C32.8786 33.1834 32.9995 32.8478 32.9995 32.4997V19.7494C32.9997 18.9213 33.6712 18.2498 34.4994 18.2496C35.3277 18.2496 35.9998 18.9212 36 19.7494V32.4997C36 33.6184 35.583 34.6942 34.8357 35.5197L34.6813 35.6813C33.8374 36.5253 32.6931 37 31.4997 37H10.4995C9.38079 36.9999 8.30491 36.583 7.47953 35.8357L7.31784 35.6813C6.47403 34.8375 6 33.6931 6 32.4997Z" fill="#A856F7"/>
<path d="M34.9391 8.93934C35.5249 8.35355 36.4747 8.35355 37.0605 8.93934C37.646 9.52506 37.646 10.4742 37.0605 11.0599L22.0605 26.0599C21.7793 26.3411 21.3979 26.4994 21.0002 26.4995C20.6024 26.4995 20.2204 26.3412 19.9391 26.0599L15.4396 21.5604L15.3364 21.4466C14.8556 20.8575 14.8903 19.9883 15.4396 19.439C15.9887 18.89 16.8573 18.8555 17.4464 19.3358L17.5602 19.439L20.9994 22.8774L34.9391 8.93934Z" fill="#A856F7"/>
</svg>
