<svg width="44" height="44" viewBox="0 0 44 44" fill="none" xmlns="http://www.w3.org/2000/svg">
<path d="M27.1739 8.35687C27.676 7.94741 28.4163 7.97679 28.8843 8.44482C29.3835 8.94407 29.3835 9.75296 28.8843 10.2522L26.4807 12.6558L26.3837 12.7438C25.8816 13.1532 25.1413 13.1238 24.6733 12.6558C24.174 12.1566 24.174 11.347 24.6733 10.8478L27.0762 8.44482L27.1739 8.35687Z" fill="#A856F7"/>
<path d="M28.4557 21.658C28.4557 20.6408 28.051 19.6648 27.3318 18.9455C26.6575 18.2714 25.7582 17.8742 24.8104 17.8271L24.62 17.8223H22.958C22.2519 17.8223 21.6797 17.25 21.6797 16.544C21.6797 15.8379 22.2519 15.2656 22.958 15.2656H24.62L24.9371 15.2732C26.5169 15.3516 28.0161 16.0138 29.1399 17.1374C30.3386 18.3362 31.0123 19.9626 31.0123 21.658V22.9363H34.848L34.9782 22.9425C35.623 23.0079 36.1263 23.5527 36.1264 24.2146C36.1264 24.8767 35.623 25.4214 34.9782 25.4867L34.848 25.493H29.734C29.0279 25.493 28.4557 24.9207 28.4557 24.2146V21.658Z" fill="#A856F7"/>
<path d="M32.2517 13.9893C32.2517 13.2832 32.8247 12.7109 33.5307 12.7109C34.2367 12.7111 34.8091 13.2833 34.8091 13.9893C34.8091 17.3213 32.2762 20.0498 29.1895 20.3747C28.4874 20.4485 27.8584 19.9391 27.7845 19.2369C27.7106 18.5347 28.22 17.9058 28.9222 17.8319C30.6936 17.6453 32.2517 16.0267 32.2517 13.9893Z" fill="#A856F7"/>
<path d="M8.37454 9.24954C8.84259 8.78148 9.58284 8.75206 10.085 9.16159L10.1819 9.24954L35.7513 34.8183L35.8393 34.9152C36.249 35.4174 36.2195 36.1582 35.7513 36.6263C35.2832 37.0945 34.5424 37.124 34.0402 36.7143L33.9433 36.6263L8.37454 11.0569L8.28659 10.96C7.87706 10.4578 7.90648 9.71759 8.37454 9.24954Z" fill="#A856F7"/>
<path d="M15.9408 16.3231C16.5058 16.0059 17.2304 16.1619 17.6111 16.7033C18.017 17.2809 17.8778 18.0783 17.3002 18.4843L17.1146 18.6235C16.6918 18.9606 16.3443 19.3843 16.0959 19.8665C15.8121 20.4175 15.6658 21.0292 15.67 21.649V25.4972C15.6658 26.894 16.1197 28.2541 16.9615 29.3689C17.8034 30.4835 18.9872 31.2918 20.3319 31.67C21.6766 32.0482 23.1084 31.9754 24.4079 31.4629C25.7074 30.9503 26.8037 30.0259 27.5282 28.8315L29.7144 30.1576C28.7001 31.8298 27.1655 33.124 25.3462 33.8416C23.5269 34.5592 21.5227 34.6605 19.6401 34.1311C17.7573 33.6016 16.0994 32.4704 14.9208 30.9096C13.7421 29.3489 13.1074 27.4446 13.1134 25.4888V21.6573C13.1078 20.6273 13.3514 19.6113 13.8232 18.6955C14.2963 17.7772 14.9848 16.987 15.83 16.393L15.9408 16.3231ZM27.5282 28.8315C27.8944 28.2279 28.6807 28.0353 29.2843 28.4014C29.8879 28.7676 30.0805 29.554 29.7144 30.1576L27.5282 28.8315Z" fill="#A856F7"/>
<path d="M20.7852 33.1658V22.9385C20.7852 22.2324 21.3574 21.6602 22.0635 21.6602C22.7696 21.6602 23.3418 22.2324 23.3418 22.9385V33.1658C23.3418 33.8719 22.7696 34.4449 22.0635 34.4449C21.3574 34.4449 20.7852 33.8719 20.7852 33.1658Z" fill="#A856F7"/>
<path d="M14.3924 22.9375L14.5232 22.9437C15.1678 23.0093 15.6707 23.554 15.6707 24.2158C15.6707 24.8777 15.1678 25.4223 14.5232 25.4879L14.3924 25.4942H9.27833C8.57226 25.4942 8 24.9219 8 24.2158C8 23.5098 8.57226 22.9375 9.27833 22.9375H14.3924Z" fill="#A856F7"/>
<path d="M9.2793 34.4457C9.2793 31.0849 11.9823 28.2153 15.3552 28.0547H15.4861C16.133 28.0895 16.6615 28.6096 16.6931 29.2707C16.7267 29.976 16.1816 30.575 15.4764 30.6086L15.2908 30.6224C13.379 30.8123 11.836 32.4995 11.836 34.4457C11.8359 35.1517 11.2636 35.724 10.5576 35.724C9.85161 35.724 9.27939 35.1517 9.2793 34.4457Z" fill="#A856F7"/>
<path d="M24.962 15.8812V14.2449L24.9541 14.0299C24.9165 13.5307 24.7498 13.0482 24.4691 12.6307C24.1483 12.1535 23.6924 11.7825 23.1601 11.565C22.6279 11.3476 22.043 11.2936 21.48 11.4096C20.9167 11.5256 20.4006 11.8069 19.9975 12.2171C19.7248 12.4946 19.3515 12.6507 18.9624 12.6503C18.5734 12.6499 18.2011 12.4928 17.9289 12.2148L15.234 9.46181L15.1351 9.35115C14.6772 8.77719 14.72 7.93829 15.256 7.41357C15.7919 6.88898 16.6311 6.86443 17.1951 7.33431L17.3042 7.43554L19.0982 9.26797C19.6509 8.93872 20.2584 8.70232 20.8953 8.5711C22.0217 8.33911 23.1919 8.4477 24.2565 8.88265C25.321 9.31763 26.232 10.0597 26.8736 11.0141C27.5153 11.9685 27.8583 13.0925 27.8593 14.2426V15.8812C27.8593 16.6813 27.2108 17.3299 26.4106 17.3299C25.6106 17.3297 24.962 16.6812 24.962 15.8812Z" fill="#A856F7"/>
</svg>
