<svg width="44" height="44" viewBox="0 0 44 44" fill="none" xmlns="http://www.w3.org/2000/svg">
<path d="M19.2352 25.1292C19.5631 24.5209 20.3052 24.248 20.9572 24.5185C21.6524 24.8072 21.9819 25.605 21.6934 26.3004L21.1713 27.5586C20.8827 28.2539 20.0848 28.5834 19.3895 28.2949C18.6943 28.0062 18.3648 27.2083 18.6533 26.513L19.1754 25.2548L19.2352 25.1292Z" fill="#3C83F6"/>
<path d="M19.3899 15.7021C20.0419 15.4316 20.784 15.7045 21.1119 16.3128L21.1717 16.4383L21.6938 17.6966L21.741 17.8281C21.9402 18.4897 21.6094 19.2078 20.9576 19.4784C20.3055 19.749 19.5635 19.4761 19.2355 18.8678L19.1757 18.7422L18.6537 17.484L18.6064 17.3525C18.4073 16.6909 18.7381 15.9728 19.3899 15.7021Z" fill="#3C83F6"/>
<path d="M23.0439 24.5178C23.6961 24.2482 24.4373 24.5221 24.7644 25.1307L24.8242 25.2569L25.3448 26.5167L25.3921 26.6481C25.59 27.3099 25.2584 28.0273 24.6064 28.297C23.9541 28.5667 23.2123 28.2928 22.8851 27.6841L22.8253 27.5579L22.3047 26.2981L22.2582 26.1667C22.0601 25.5047 22.3916 24.7874 23.0439 24.5178Z" fill="#3C83F6"/>
<path d="M22.8875 16.3128C23.2154 15.7045 23.9575 15.4316 24.6095 15.7021C25.3048 15.9908 25.6343 16.7886 25.3458 17.484L24.8237 18.7422C24.535 19.4374 23.7372 19.767 23.0419 19.4784C22.3467 19.1898 22.0171 18.3919 22.3057 17.6966L22.8277 16.4383L22.8875 16.3128Z" fill="#3C83F6"/>
<path d="M26.6445 18.6045C27.3061 18.4053 28.0242 18.7361 28.2949 19.3879C28.5654 20.0399 28.2925 20.782 27.6842 21.1099L27.5586 21.1698L26.3004 21.6918C25.605 21.9803 24.8072 21.6509 24.5185 20.9556C24.23 20.2603 24.5595 19.4625 25.2548 19.1738L26.513 18.6517L26.6445 18.6045Z" fill="#3C83F6"/>
<path d="M24.5185 23.0403C24.7892 22.3884 25.5073 22.0577 26.1689 22.2568L26.3004 22.3041L27.5586 22.8261L27.6842 22.8859C28.2925 23.2138 28.5654 23.9559 28.2948 24.6079C28.0242 25.2598 27.3061 25.5906 26.6445 25.3914L26.513 25.3442L25.2547 24.8221L25.1292 24.7623C24.5209 24.4344 24.248 23.6923 24.5185 23.0403Z" fill="#3C83F6"/>
<path d="M15.7426 7.4491C16.8538 6.96786 18.0936 6.87022 19.2664 7.17145C20.3285 7.44425 21.2803 8.03083 22.0015 8.84989C22.2334 8.58708 22.4897 8.34541 22.7695 8.13066C23.4331 7.62147 24.205 7.27115 25.0254 7.10794C25.8457 6.94477 26.6927 6.97274 27.5006 7.18917C28.3085 7.40565 29.056 7.80518 29.6848 8.35662C30.3137 8.90809 30.8077 9.59687 31.1277 10.3696C31.4478 11.1424 31.5857 11.9791 31.5309 12.8138C31.4761 13.6483 31.2299 14.4591 30.8117 15.1834L30.7364 15.3008C30.3322 15.8612 29.5607 16.0355 28.9494 15.6825C28.2974 15.3061 28.0745 14.4722 28.4509 13.8202L28.5248 13.6821C28.6888 13.3562 28.7859 13.0002 28.8098 12.6351C28.8372 12.2177 28.7683 11.7994 28.6082 11.413C28.4482 11.0267 28.2018 10.6822 27.8875 10.4065C27.5731 10.1308 27.1993 9.9314 26.7954 9.82314C26.3915 9.71491 25.9679 9.70098 25.5578 9.78252C25.1476 9.86412 24.7613 10.0389 24.4295 10.2935C24.0977 10.5481 23.8287 10.8755 23.6438 11.2505C23.459 11.6253 23.3633 12.0378 23.3632 12.4556V12.4578C23.3625 13.2104 22.7519 13.8204 21.9993 13.8202C21.2467 13.8199 20.6364 13.2096 20.6362 12.4571V12.4556C20.6367 11.8502 20.4361 11.2617 20.0654 10.7831C19.6945 10.3045 19.1742 9.96268 18.5878 9.81206C18.0014 9.66154 17.3814 9.71028 16.8259 9.95088C16.3397 10.1615 15.927 10.5087 15.6363 10.9478L15.5196 11.1412L15.5189 11.142C15.2792 11.5783 15.1642 12.072 15.1851 12.5693L15.1844 12.6897C15.1575 13.2831 14.7466 13.7969 14.1624 13.9472C13.5613 14.1019 13.0031 14.3913 12.5305 14.7935C12.0579 15.1956 11.6834 15.7004 11.4347 16.2689C11.1859 16.8373 11.0697 17.4551 11.095 18.075C11.1172 18.6176 11.2467 19.15 11.476 19.6405L11.5809 19.848L11.6407 19.9743C11.9051 20.6126 11.6484 21.3601 11.027 21.6948C10.4056 22.0296 9.64011 21.8327 9.2526 21.2606L9.18024 21.141L9.00671 20.7954C8.62439 19.9778 8.40789 19.091 8.37092 18.1865C8.3287 17.1531 8.52196 16.1236 8.93656 15.176C9.35117 14.2284 9.97573 13.3874 10.7634 12.717C11.2911 12.2679 11.8837 11.9053 12.5179 11.636C12.6045 11.066 12.7811 10.5114 13.0429 9.99371L13.1293 9.82904C13.7119 8.76765 14.6316 7.93033 15.7426 7.4491Z" fill="#3C83F6"/>
<path d="M34.8186 21.1396C34.4615 21.8024 33.6346 22.0504 32.9718 21.6934C32.309 21.3363 32.0611 20.5094 32.418 19.8466L34.8186 21.1396ZM28.8558 12.2858C29.0317 11.6022 29.696 11.1734 30.3792 11.2771L30.5158 11.3052L30.888 11.4123C31.7478 11.6864 32.5462 12.129 33.2354 12.7156C34.0231 13.3859 34.6477 14.227 35.0623 15.1746C35.4769 16.1222 35.6709 17.1517 35.6287 18.1851C35.5864 19.2186 35.3092 20.2289 34.8186 21.1396L32.418 19.8466C32.7123 19.3002 32.8785 18.6937 32.9039 18.0736C32.9292 17.4535 32.8129 16.836 32.5642 16.2674C32.3154 15.6989 31.9409 15.1942 31.4684 14.792C31.0547 14.44 30.5755 14.1745 30.0594 14.0101L29.8364 13.9458L29.7035 13.9045C29.055 13.6657 28.6799 12.9695 28.8558 12.2858Z" fill="#3C83F6"/>
<path d="M30.9674 19.1593C31.2331 18.5054 31.9487 18.1691 32.6119 18.3633L32.7433 18.4098L33.015 18.5265C34.3573 19.1407 35.4663 20.176 36.1718 21.4787C36.9244 22.8683 37.1708 24.4762 36.8689 26.0274C36.5669 27.5784 35.7358 28.9766 34.517 29.9824C33.3744 30.9253 31.9577 31.4686 30.483 31.5346L30.1869 31.5412C29.4341 31.542 28.8232 30.9324 28.8223 30.1796C28.8213 29.4267 29.431 28.8159 30.1839 28.815L30.3611 28.8105C31.2459 28.771 32.0961 28.4451 32.7817 27.8794C33.513 27.2759 34.0117 26.4367 34.1928 25.5061C34.374 24.5754 34.2264 23.6105 33.7749 22.7768C33.3515 21.9952 32.6855 21.3746 31.8801 21.0061L31.7176 20.9352L31.5906 20.8769C30.98 20.5535 30.7018 19.8133 30.9674 19.1593Z" fill="#3C83F6"/>
<path d="M11.3137 28.1211C12.0602 28.2191 12.5857 28.9039 12.4878 29.6504L12.4686 29.8269C12.3917 30.7074 12.6023 31.5911 13.0712 32.3442C13.5713 33.1475 14.3348 33.7522 15.2311 34.0558C16.1274 34.3594 17.1014 34.3427 17.9869 34.0086C18.8722 33.6745 19.6146 33.0438 20.0869 32.2238L20.0884 32.2216L20.1903 32.0643C20.4419 31.7176 20.7759 31.5166 21.0484 31.4049C21.3669 31.2744 21.6989 31.2232 21.9987 31.2232C22.2986 31.2232 22.6305 31.2743 22.9491 31.4049C23.2216 31.5166 23.5555 31.7176 23.8071 32.0643L23.9098 32.2216L23.9105 32.2238L24.0028 32.3752C24.4768 33.1212 25.1806 33.6954 26.0106 34.0086C26.8958 34.3426 27.8695 34.3592 28.7657 34.0558C29.6619 33.7524 30.4252 33.1473 30.9256 32.3442C31.4258 31.5411 31.6324 30.5893 31.5097 29.6511L34.213 29.2974C34.4176 30.8611 34.0737 32.4478 33.2398 33.7863C32.4059 35.1248 31.1337 36.1324 29.64 36.6381C28.1462 37.1438 26.5232 37.1158 25.0477 36.5591C23.8284 36.0989 22.773 35.3006 21.9987 34.2663C21.2243 35.3009 20.1686 36.0997 18.949 36.5598C17.4735 37.1165 15.8505 37.1447 14.3568 36.6388C12.8629 36.1329 11.5906 35.1244 10.7569 33.7856C9.92326 32.4467 9.57931 30.8598 9.78442 29.2959L9.80953 29.1586C9.96813 28.486 10.6138 28.0293 11.3137 28.1211ZM32.6845 28.1226C33.431 28.0249 34.1152 28.551 34.213 29.2974L31.5097 29.6511C31.4121 28.9047 31.938 28.2203 32.6845 28.1226Z" fill="#3C83F6"/>
<path d="M11.3959 18.3624C12.0594 18.1698 12.7739 18.5076 13.0381 19.1621C13.32 19.8602 12.983 20.6546 12.285 20.9365L12.1218 21.0067C11.3145 21.3742 10.6466 21.9951 10.2218 22.7774C9.76887 23.6118 9.62037 24.5778 9.80163 25.5096C9.98298 26.4417 10.4828 27.2822 11.2157 27.8859C11.9028 28.4518 12.7546 28.7768 13.6407 28.8148L13.8187 28.8185L13.9582 28.8252C14.6455 28.8947 15.1821 29.4752 15.1825 30.1809C15.1829 30.8867 14.647 31.4678 13.9597 31.5381L13.8201 31.5448L13.524 31.5389C12.0472 31.4755 10.6278 30.9335 9.48263 29.9904C8.26121 28.9843 7.42788 27.5842 7.12557 26.0309C6.82332 24.4776 7.07056 22.8671 7.8256 21.4763C8.58068 20.0856 9.79637 19.0008 11.2637 18.4082L11.3959 18.3624Z" fill="#3C83F6"/>
<path d="M13.7638 11.2629C14.469 11.2332 15.0718 11.7451 15.1705 12.4289L15.1838 12.5677L15.1956 12.7324C15.2293 13.0597 15.3217 13.3782 15.4688 13.6724L15.5471 13.8179L15.6106 13.942C15.8941 14.572 15.6597 15.327 15.0486 15.6802C14.4376 16.0333 13.6668 15.8593 13.2624 15.2992L13.1863 15.1818L13.0305 14.8916C12.7363 14.303 12.5507 13.6661 12.4834 13.0115L12.459 12.6829L12.4605 12.5434C12.5012 11.8536 13.0586 11.2928 13.7638 11.2629Z" fill="#3C83F6"/>
<path d="M15.7021 19.3879C15.9728 18.7361 16.6909 18.4054 17.3525 18.6045L17.484 18.6517L18.7422 19.1738L18.8678 19.2336C19.4761 19.5615 19.749 20.3036 19.4784 20.9556C19.2078 21.6075 18.4897 21.9382 17.8281 21.7391L17.6966 21.6918L16.4383 21.1697L16.3128 21.1099C15.7045 20.782 15.4316 20.0399 15.7021 19.3879Z" fill="#3C83F6"/>
<path d="M17.8281 22.2568C18.4897 22.0577 19.2078 22.3885 19.4785 23.0403C19.749 23.6923 19.4761 24.4344 18.8678 24.7623L18.7422 24.8221L17.484 25.3442C16.7886 25.6327 15.9908 25.3032 15.7021 24.608C15.4136 23.9126 15.7431 23.1148 16.4384 22.8261L17.6966 22.3041L17.8281 22.2568Z" fill="#3C83F6"/>
<path d="M24.7245 22.0002C24.7245 20.4944 23.5039 19.2733 21.9982 19.2731C20.4924 19.2731 19.2712 20.4943 19.2712 22.0002C19.2714 23.5058 20.4925 24.7264 21.9982 24.7264C23.5038 24.7262 24.7243 23.5057 24.7245 22.0002ZM27.4507 22.0002C27.4506 25.0116 25.0096 27.4525 21.9982 27.4527C18.9866 27.4527 16.5451 25.0117 16.5449 22.0002C16.5449 18.9885 18.9865 16.5469 21.9982 16.5469C25.0097 16.5471 27.4507 18.9886 27.4507 22.0002Z" fill="#3C83F6"/>
</svg>
