<svg width="44" height="44" viewBox="0 0 44 44" fill="none" xmlns="http://www.w3.org/2000/svg">
<path d="M37.8777 32.142L33.0014 23.7019C33.8123 22.0587 34.2818 20.2234 34.2818 18.2708C34.2818 11.5058 28.776 6 22.0111 6C15.2461 6 9.74031 11.5058 9.74031 18.2708C9.74031 20.2234 10.2098 22.0587 11.0207 23.7019L6.14445 32.142C5.94171 32.4942 5.95238 32.921 6.17646 33.2624C6.40053 33.6039 6.79533 33.7853 7.19013 33.7319L11.693 33.1877L13.4749 37.3598C13.6349 37.7332 13.9871 37.9787 14.3925 38H14.4566C14.8407 38 15.1928 37.7973 15.3849 37.4665L19.5356 30.2854C21.1696 30.6138 22.8526 30.6138 24.4866 30.2854L28.6373 37.4665C28.8293 37.7973 29.1815 38 29.5656 38H29.6296C30.0351 37.9787 30.3872 37.7226 30.5472 37.3598L32.3292 33.1877L36.832 33.7319C37.2375 33.7853 37.6323 33.5932 37.8457 33.2624C38.0698 32.921 38.0804 32.4942 37.8777 32.142ZM14.6166 34.5642L13.3575 31.6192C13.2678 31.406 13.1108 31.228 12.9104 31.1124C12.71 30.9968 12.4773 30.9499 12.2478 30.979L9.06809 31.3631L12.3118 25.7506C13.6349 27.4685 15.4062 28.8236 17.4549 29.6559L14.6166 34.5642ZM11.885 18.2708C11.885 12.6796 16.4305 8.13404 22.0217 8.13404C27.6129 8.13404 32.1585 12.6796 32.1585 18.2708C32.1585 23.862 27.6129 28.4075 22.0217 28.4075C16.4305 28.4075 11.885 23.862 11.885 18.2708ZM31.7957 30.979C31.3368 30.9256 30.878 31.1817 30.686 31.6192L29.4269 34.5642L26.5886 29.6559C28.6373 28.8343 30.3979 27.4685 31.7316 25.7506L34.9754 31.3631L31.7957 30.979Z" fill="#A856F7"/>
<path d="M18.6508 14.6939C18.552 14.595 18.4348 14.5165 18.3057 14.4629C18.1766 14.4094 18.0383 14.3818 17.8985 14.3818C17.7588 14.3818 17.6204 14.4094 17.4913 14.4629C17.3622 14.5165 17.245 14.595 17.1463 14.6939L14.8628 16.9773C14.7639 17.076 14.6854 17.1933 14.6319 17.3224C14.5783 17.4514 14.5508 17.5898 14.5508 17.7296C14.5508 17.8693 14.5783 18.0077 14.6319 18.1368C14.6854 18.2658 14.7639 18.3831 14.8628 18.4818L17.1463 20.7652C17.3597 20.9786 17.6264 21.0747 17.9038 21.0747C18.1813 21.0747 18.448 20.968 18.6614 20.7652C18.7603 20.6665 18.8388 20.5493 18.8924 20.4202C18.9459 20.2911 18.9735 20.1527 18.9735 20.013C18.9735 19.8732 18.9459 19.7349 18.8924 19.6058C18.8388 19.4767 18.7603 19.3594 18.6614 19.2607L17.1249 17.7242L18.6614 16.1877C18.7603 16.089 18.8388 15.9717 18.8924 15.8427C18.9459 15.7136 18.9735 15.5752 18.9735 15.4355C18.9735 15.2957 18.9459 15.1573 18.8924 15.0283C18.8388 14.8992 18.7603 14.7819 18.6614 14.6832L18.6508 14.6939ZM29.1716 16.9773L26.8882 14.6939C26.7894 14.5951 26.6721 14.5167 26.543 14.4633C26.414 14.4098 26.2756 14.3823 26.1359 14.3823C25.9962 14.3823 25.8579 14.4098 25.7288 14.4633C25.5997 14.5167 25.4825 14.5951 25.3837 14.6939C25.2849 14.7927 25.2065 14.9099 25.1531 15.039C25.0996 15.1681 25.0721 15.3064 25.0721 15.4461C25.0721 15.5858 25.0996 15.7242 25.1531 15.8532C25.2065 15.9823 25.2849 16.0996 25.3837 16.1984L26.9202 17.7349L25.3837 19.2714C25.2348 19.4204 25.1335 19.6103 25.0928 19.817C25.052 20.0237 25.0736 20.2378 25.1548 20.4322C25.2359 20.6266 25.3731 20.7924 25.5487 20.9087C25.7244 21.025 25.9306 21.0865 26.1413 21.0853C26.4187 21.0853 26.6854 20.9786 26.8988 20.7759L29.1823 18.4925C29.2812 18.3938 29.3597 18.2765 29.4132 18.1474C29.4667 18.0183 29.4943 17.88 29.4943 17.7402C29.4943 17.6005 29.4667 17.4621 29.4132 17.333C29.3597 17.2039 29.2812 17.0867 29.1823 16.988L29.1716 16.9773ZM23.1856 13.04C23.0497 13.0057 22.9083 12.9987 22.7696 13.0194C22.631 13.0401 22.4978 13.088 22.3778 13.1604C22.2577 13.2329 22.1532 13.3283 22.0703 13.4413C21.9873 13.5544 21.9276 13.6827 21.8945 13.8189L20.0699 21.1387C20.03 21.2959 20.0266 21.4601 20.06 21.6189C20.0934 21.7776 20.1627 21.9265 20.2627 22.0543C20.3626 22.182 20.4905 22.2852 20.6365 22.3558C20.7825 22.4265 20.9427 22.4627 21.1049 22.4618C21.5851 22.4618 22.0225 22.1417 22.1399 21.6509L23.9645 14.3311C23.9988 14.1951 24.0058 14.0538 23.9851 13.9151C23.9644 13.7765 23.9165 13.6433 23.8441 13.5232C23.7717 13.4032 23.6762 13.2987 23.5632 13.2158C23.4502 13.1328 23.3218 13.0731 23.1856 13.04Z" fill="#A856F7"/>
</svg>
