<svg width="45" height="44" viewBox="0 0 45 44" fill="none" xmlns="http://www.w3.org/2000/svg">
<path d="M37.9478 12.3738C38.6024 11.8396 39.5683 11.8781 40.1786 12.4885C40.8293 13.1393 40.8293 14.1938 40.1786 14.8447L26.0122 29.012C25.402 29.6221 24.4361 29.6604 23.7814 29.1266L23.655 29.012L16.4996 21.8566L6.84441 31.5118L6.71802 31.6264C6.06341 32.1603 5.09834 32.1219 4.48816 31.5118C3.83728 30.8609 3.83728 29.8055 4.48816 29.1546L15.3215 18.3213L15.4479 18.2066C16.1025 17.6729 17.0685 17.7112 17.6786 18.3213L24.8332 25.4758L37.8214 12.4885L37.9478 12.3738Z" fill="#3C83F6"/>
<path d="M37.3321 23.6666V15.3331H28.9986C28.0781 15.3331 27.332 14.587 27.332 13.6665C27.332 12.746 28.0781 12 28.9986 12H38.9986L39.1692 12.0081C40.0097 12.0935 40.6652 12.8036 40.6652 13.6665V23.6666C40.6652 24.5871 39.9191 25.3331 38.9986 25.3331C38.0782 25.3331 37.3321 24.587 37.3321 23.6666Z" fill="#3C83F6"/>
</svg>
