<svg width="44" height="44" viewBox="0 0 44 44" fill="none" xmlns="http://www.w3.org/2000/svg">
<path d="M8 20.75C8 19.6981 8.11838 18.6723 8.34296 17.6858L8.35046 17.6544C8.51707 16.9996 9.17661 16.5936 9.83923 16.7444C10.5018 16.8953 10.9206 17.5468 10.7874 18.2092L10.7806 18.2407C10.5972 19.0464 10.5 19.8861 10.5 20.75C10.5 26.9632 15.5368 32 21.75 32C27.9632 32 33 26.9632 33 20.75C33 14.5368 27.9632 9.5 21.75 9.5C18.2908 9.5 15.1971 11.0598 13.1314 13.5189L13.1103 13.5433C12.6628 14.0495 11.8906 14.1091 11.3702 13.6721C10.8416 13.228 10.7731 12.4395 11.2171 11.9109L11.2764 11.8408C13.7966 8.88075 17.5543 7 21.75 7C29.3439 7 35.5 13.1561 35.5 20.75C35.5 25.4004 33.1913 29.5116 29.6576 32H35.7322L35.3661 31.6339L35.3435 31.6108C34.878 31.121 34.8855 30.3466 35.3661 29.8661C35.8466 29.3855 36.621 29.378 37.1108 29.8435L37.1339 29.8661L39.6339 32.3661C40.122 32.8542 40.122 33.6457 39.6339 34.1339L37.1339 36.6339C36.6457 37.122 35.8542 37.122 35.3661 36.6339C34.8779 36.1457 34.8779 35.3542 35.3661 34.8661L35.7322 34.5H9.25C8.55964 34.5 8 33.9403 8 33.25C8 32.5596 8.55964 32 9.25 32H13.8424C10.3087 29.5116 8 25.4004 8 20.75Z" fill="#3C83F6"/>
<path d="M25.5 20.75C25.5 18.6789 23.8211 17 21.75 17C19.6789 17 18 18.6789 18 20.75C18 22.8211 19.6789 24.5 21.75 24.5C23.8211 24.5 25.5 22.8211 25.5 20.75ZM28 20.75C28 24.2018 25.2018 27 21.75 27C18.2982 27 15.5 24.2018 15.5 20.75C15.5 17.2982 18.2982 14.5 21.75 14.5C25.2018 14.5 28 17.2982 28 20.75Z" fill="#3C83F6"/>
<path d="M20.4989 28.2523V25.7523C20.4989 25.062 21.0586 24.5023 21.7489 24.5023C22.4393 24.5023 22.9989 25.062 22.9989 25.7523V28.2523C22.9989 28.9427 22.4393 29.5023 21.7489 29.5023C21.0586 29.5023 20.4989 28.9427 20.4989 28.2523ZM16.7939 22.1698C17.3917 21.8246 18.1562 22.0295 18.5014 22.6273C18.8465 23.2252 18.6417 23.9897 18.0439 24.3348L15.8788 25.5848C15.2809 25.93 14.5164 25.7252 14.1712 25.1273C13.8261 24.5295 14.0309 23.765 14.6288 23.4198L16.7939 22.1698ZM24.9966 22.6273C25.3363 22.0388 26.0824 21.8311 26.6759 22.154L26.7041 22.1698L28.8692 23.4198L28.8969 23.4363C29.4733 23.7888 29.6665 24.5388 29.3267 25.1273C28.9869 25.7158 28.2408 25.9235 27.6473 25.6006L27.6191 25.5848L25.4541 24.3348L25.4264 24.3184C24.85 23.9658 24.6568 23.2158 24.9966 22.6273ZM14.1712 16.3773C14.511 15.7888 15.2571 15.5811 15.8506 15.904L15.8788 15.9198L18.0439 17.1698L18.0716 17.1863C18.648 17.5388 18.8412 18.2888 18.5014 18.8773C18.1616 19.4658 17.4155 19.6735 16.822 19.3506L16.7939 19.3348L14.6288 18.0848L14.6011 18.0684C14.0247 17.7158 13.8315 16.9658 14.1712 16.3773ZM27.6473 15.904C28.2408 15.5811 28.9869 15.7888 29.3267 16.3773C29.6719 16.9752 29.467 17.7397 28.8692 18.0848L26.7041 19.3348C26.1062 19.68 25.3417 19.4752 24.9966 18.8773C24.6514 18.2795 24.8562 17.515 25.4541 17.1698L27.6191 15.9198L27.6473 15.904ZM20.4989 15.7523V13.2523C20.4989 12.562 21.0586 12.0023 21.7489 12.0023C22.4393 12.0023 22.9989 12.562 22.9989 13.2523V15.7523C22.9989 16.4427 22.4393 17.0023 21.7489 17.0023C21.0586 17.0023 20.4989 16.4427 20.4989 15.7523ZM11.7563 7.95014C12.4333 7.89092 13.0314 8.38295 13.1073 9.05433L13.1105 9.08643L13.3097 11.3632L15.5865 11.1641C16.2743 11.1039 16.8805 11.6126 16.9407 12.3004C17.0009 12.9881 16.4921 13.5944 15.8044 13.6545L12.2823 13.9627C11.9521 13.9916 11.6239 13.8881 11.3699 13.675C11.1239 13.4685 10.9671 13.1756 10.9313 12.8572L10.9281 12.8264L10.62 9.30433L10.6177 9.27216C10.5758 8.59779 11.0793 8.00937 11.7563 7.95014Z" fill="#3C83F6"/>
</svg>
