<svg width="44" height="44" viewBox="0 0 44 44" fill="none" xmlns="http://www.w3.org/2000/svg">
<path d="M25.1997 7.16196C27.1991 6.79767 29.2622 7.05124 31.1137 7.88911L31.2679 7.97042C31.6136 8.18099 31.8564 8.53088 31.93 8.93454C32.0034 9.33813 31.8997 9.75088 31.6504 10.0698L31.535 10.1999L26.1607 15.5742L28.4251 17.8385L33.7993 12.465L33.9302 12.3496C34.2492 12.1003 34.6618 11.9965 35.0655 12.07C35.5267 12.1541 35.9176 12.4591 36.1109 12.8863C36.9487 14.7378 37.2023 16.8009 36.838 18.8003C36.4737 20.7996 35.5089 22.6407 34.0719 24.0777C32.6349 25.5148 30.7938 26.4796 28.7944 26.8439C27.1271 27.1477 25.4161 27.0199 23.8198 26.4838L14.6099 35.6944C13.8262 36.4781 12.7807 36.9399 11.6789 36.9946L11.4574 37C10.2752 36.9999 9.14157 36.5303 8.30562 35.6944C7.46958 34.8583 7 33.7242 7 32.5418C7.00008 31.3596 7.46967 30.226 8.30562 29.3901L17.5154 20.1787C16.9797 18.5828 16.8524 16.8724 17.1561 15.2056C17.5204 13.2062 18.4852 11.3651 19.9223 9.92808C21.3593 8.49104 23.2004 7.52627 25.1997 7.16196ZM9.85595 32.5418C9.85595 32.9666 10.0249 33.3744 10.3252 33.6748C10.6255 33.975 11.0328 34.1432 11.4574 34.1433L11.6161 34.1355C11.9827 34.0991 12.3276 33.9375 12.5903 33.6748L22.4592 23.8052L22.5405 23.73C22.9588 23.3718 23.5505 23.2842 24.0583 23.514C25.3808 24.1124 26.8545 24.2938 28.2826 24.0336C29.7106 23.7734 31.0251 23.0838 32.0515 22.0574C33.0779 21.031 33.7675 19.7164 34.0278 18.2884C34.1536 17.5978 34.1753 16.8964 34.0975 16.2068L30.4354 19.8697C30.432 19.8731 30.4279 19.8764 30.4245 19.8798C29.8906 20.403 29.1726 20.696 28.4251 20.696C27.7242 20.6959 27.0493 20.4385 26.5278 19.975L26.4256 19.8798L24.1202 17.5744C23.5968 17.0405 23.304 16.3219 23.304 15.5742C23.3041 14.8266 23.5969 14.1086 24.1202 13.5747L24.1303 13.5646L24.145 13.5507L27.7924 9.90175C27.103 9.82399 26.4019 9.84645 25.7116 9.97222C24.2837 10.2324 22.969 10.9215 21.9426 11.9477C20.9162 12.9741 20.2266 14.2893 19.9664 15.7174C19.7062 17.1456 19.8875 18.6192 20.486 19.9417C20.7311 20.4833 20.6152 21.1205 20.1948 21.5408L10.3252 31.4097C10.025 31.71 9.85603 32.1172 9.85595 32.5418Z" fill="#3C83F6"/>
</svg>
