<svg width="44" height="44" viewBox="0 0 44 44" fill="none" xmlns="http://www.w3.org/2000/svg">
<path d="M26.5 14H16.5C15.8373 14.001 15.202 14.2647 14.7333 14.7333C14.2647 15.202 14.001 15.8373 14 16.5V26.5C14.001 27.1627 14.2647 27.798 14.7333 28.2667C15.202 28.7353 15.8373 28.999 16.5 29H26.5C27.1627 28.999 27.798 28.7353 28.2667 28.2667C28.7353 27.798 28.999 27.1627 29 26.5V16.5C28.999 15.8373 28.7353 15.202 28.2667 14.7333C27.798 14.2647 27.1627 14.001 26.5 14ZM16.5 26.5V16.5H26.5L26.5025 26.5H16.5Z" fill="#A856F7"/>
<path d="M37.75 22.75C38.0815 22.75 38.3995 22.6183 38.6339 22.3839C38.8683 22.1495 39 21.8315 39 21.5C39 21.1685 38.8683 20.8505 38.6339 20.6161C38.3995 20.3817 38.0815 20.25 37.75 20.25H35.25V16.5H37.75C38.0815 16.5 38.3995 16.3683 38.6339 16.1339C38.8683 15.8995 39 15.5815 39 15.25C39 14.9185 38.8683 14.6005 38.6339 14.3661C38.3995 14.1317 38.0815 14 37.75 14H35.25V11.5C35.249 10.5057 34.8536 9.55249 34.1506 8.84945C33.4475 8.1464 32.4943 7.75099 31.5 7.75H29V5.25C29 4.91848 28.8683 4.60054 28.6339 4.36612C28.3995 4.1317 28.0815 4 27.75 4C27.4185 4 27.1005 4.1317 26.8661 4.36612C26.6317 4.60054 26.5 4.91848 26.5 5.25V7.75H22.75V5.25C22.75 4.91848 22.6183 4.60054 22.3839 4.36612C22.1495 4.1317 21.8315 4 21.5 4C21.1685 4 20.8505 4.1317 20.6161 4.36612C20.3817 4.60054 20.25 4.91848 20.25 5.25V7.75H16.5V5.25C16.5 4.91848 16.3683 4.60054 16.1339 4.36612C15.8995 4.1317 15.5815 4 15.25 4C14.9185 4 14.6005 4.1317 14.3661 4.36612C14.1317 4.60054 14 4.91848 14 5.25V7.75H11.5C10.5057 7.75099 9.55249 8.1464 8.84945 8.84945C8.1464 9.55249 7.75099 10.5057 7.75 11.5V14H5.25C4.91848 14 4.60054 14.1317 4.36612 14.3661C4.1317 14.6005 4 14.9185 4 15.25C4 15.5815 4.1317 15.8995 4.36612 16.1339C4.60054 16.3683 4.91848 16.5 5.25 16.5H7.75V20.25H5.25C4.91848 20.25 4.60054 20.3817 4.36612 20.6161C4.1317 20.8505 4 21.1685 4 21.5C4 21.8315 4.1317 22.1495 4.36612 22.3839C4.60054 22.6183 4.91848 22.75 5.25 22.75H7.75V26.5H5.25C4.91848 26.5 4.60054 26.6317 4.36612 26.8661C4.1317 27.1005 4 27.4185 4 27.75C4 28.0815 4.1317 28.3995 4.36612 28.6339C4.60054 28.8683 4.91848 29 5.25 29H7.75V31.5C7.75099 32.4943 8.1464 33.4475 8.84945 34.1506C9.55249 34.8536 10.5057 35.249 11.5 35.25H14V37.75C14 38.0815 14.1317 38.3995 14.3661 38.6339C14.6005 38.8683 14.9185 39 15.25 39C15.5815 39 15.8995 38.8683 16.1339 38.6339C16.3683 38.3995 16.5 38.0815 16.5 37.75V35.25H20.25V37.75C20.25 38.0815 20.3817 38.3995 20.6161 38.6339C20.8505 38.8683 21.1685 39 21.5 39C21.8315 39 22.1495 38.8683 22.3839 38.6339C22.6183 38.3995 22.75 38.0815 22.75 37.75V35.25H26.5V37.75C26.5 38.0815 26.6317 38.3995 26.8661 38.6339C27.1005 38.8683 27.4185 39 27.75 39C28.0815 39 28.3995 38.8683 28.6339 38.6339C28.8683 38.3995 29 38.0815 29 37.75V35.25H31.5C32.4943 35.249 33.4475 34.8536 34.1506 34.1506C34.8536 33.4475 35.249 32.4943 35.25 31.5V29H37.75C38.0815 29 38.3995 28.8683 38.6339 28.6339C38.8683 28.3995 39 28.0815 39 27.75C39 27.4185 38.8683 27.1005 38.6339 26.8661C38.3995 26.6317 38.0815 26.5 37.75 26.5H35.25V22.75H37.75ZM32.75 31.5C32.75 31.8315 32.6183 32.1495 32.3839 32.3839C32.1495 32.6183 31.8315 32.75 31.5 32.75H11.5C11.1685 32.75 10.8505 32.6183 10.6161 32.3839C10.3817 32.1495 10.25 31.8315 10.25 31.5V11.5C10.25 11.1685 10.3817 10.8505 10.6161 10.6161C10.8505 10.3817 11.1685 10.25 11.5 10.25H31.5C31.8315 10.25 32.1495 10.3817 32.3839 10.6161C32.6183 10.8505 32.75 11.1685 32.75 11.5V31.5Z" fill="#A856F7"/>
</svg>
