<svg width="44" height="44" viewBox="0 0 44 44" fill="none" xmlns="http://www.w3.org/2000/svg">
<path d="M18.0209 7.00749C18.6436 7.04374 19.2536 7.20628 19.8132 7.48594L26.2835 10.7211L26.4474 10.791C26.6146 10.8515 26.7913 10.8833 26.97 10.8833C27.2082 10.8833 27.4433 10.8275 27.6565 10.7211L33.2772 7.9103L33.278 7.90947L33.4561 7.82792C33.8769 7.65024 34.3328 7.56828 34.7907 7.58911C35.3142 7.61295 35.823 7.77009 36.2685 8.04593C36.714 8.32177 37.0814 8.70716 37.3361 9.16508C37.5903 9.62238 37.7242 10.1371 37.7238 10.6603V30.2692C37.7235 30.8395 37.5637 31.3983 37.2637 31.8834C37.0011 32.3078 36.6399 32.6611 36.2119 32.9135L36.0247 33.0159L29.0311 36.5131L29.0302 36.514C28.3906 36.8336 27.685 36.9999 26.97 36.9999C26.2551 36.9999 25.5501 36.8334 24.9106 36.514L24.9097 36.5131L18.4395 33.278V33.2788C18.2263 33.1723 17.9913 33.1166 17.753 33.1166C17.5147 33.1166 17.2797 33.1723 17.0665 33.2788V33.278L11.4458 36.0896C10.9768 36.324 10.4552 36.4348 9.93144 36.4108C9.40778 36.3868 8.8992 36.2285 8.45366 35.9523C8.00807 35.6761 7.64052 35.2907 7.3861 34.8323C7.13166 34.3739 6.99872 33.858 7.00001 33.3337V13.7307L7.0075 13.5169C7.0423 13.0212 7.19681 12.54 7.45932 12.1156C7.75928 11.6308 8.18833 11.239 8.69829 10.984L15.6928 7.48594L15.9357 7.3736C16.5091 7.12755 17.1272 7.00001 17.753 7L18.0209 7.00749ZM17.5749 10.0829C17.4574 10.0966 17.3417 10.1233 17.2305 10.1636L17.0665 10.2343L10.0729 13.7315L10.0721 13.7324V33.3412L15.6928 30.5305L15.9357 30.4173C16.509 30.1713 17.1273 30.0437 17.753 30.0437C18.4681 30.0437 19.1736 30.2108 19.8132 30.5305L26.2835 33.7656L26.4474 33.8355C26.6146 33.896 26.7913 33.927 26.97 33.927C27.2082 33.927 27.4433 33.872 27.6565 33.7656L34.6509 30.2675V10.6578L29.0311 13.4694H29.0302C28.3906 13.7891 27.6851 13.9554 26.97 13.9554C26.2551 13.9553 25.5501 13.7889 24.9106 13.4694H24.9097L18.4395 10.2343C18.2263 10.1278 17.9913 10.072 17.753 10.072L17.5749 10.0829Z" fill="#A856F7"/>
<path d="M25.4355 35.4617V12.4188C25.4355 11.5704 26.1232 10.8828 26.9716 10.8828C27.82 10.8828 28.5076 11.5704 28.5076 12.4188V35.4617C28.5075 36.31 27.8199 36.9977 26.9716 36.9977C26.1232 36.9977 25.4356 36.31 25.4355 35.4617Z" fill="#A856F7"/>
<path d="M16.2168 31.5789V8.53602C16.2168 7.68762 16.9044 7 17.7528 7C18.6012 7 19.2888 7.68762 19.2888 8.53602V31.5789C19.2888 32.4272 18.6012 33.1149 17.7528 33.1149C16.9045 33.1149 16.2169 32.4272 16.2168 31.5789Z" fill="#A856F7"/>
</svg>
