<svg width="44" height="44" viewBox="0 0 44 44" fill="none" xmlns="http://www.w3.org/2000/svg">
<path d="M27.6032 9.52315C28.257 8.86938 29.2909 8.82829 29.9923 9.40031L30.1278 9.52315L40.843 20.2374C41.54 20.9348 41.5402 22.0656 40.843 22.7629L30.1278 33.4771C29.4305 34.174 28.3005 34.174 27.6032 33.4771C26.9059 32.7798 26.9059 31.649 27.6032 30.9516L37.0542 21.4997L27.6032 12.0477L27.4804 11.9123C26.9084 11.2109 26.9495 10.1769 27.6032 9.52315Z" fill="#A856F7"/>
<path d="M15.8428 30.9515C16.5399 31.6489 16.5401 32.7797 15.8428 33.477C15.1456 34.1743 14.0147 34.1741 13.3173 33.477L15.8428 30.9515ZM13.3173 9.52303C14.0147 8.82566 15.1455 8.82566 15.8428 9.52303C16.5396 10.2203 16.5396 11.3503 15.8428 12.0476L6.38989 21.4995L15.8428 30.9515L13.3173 33.477L2.60311 22.7628C1.90574 22.0654 1.90574 20.9346 2.60311 20.2373L13.3173 9.52303Z" fill="#A856F7"/>
</svg>
