<svg width="44" height="44" viewBox="0 0 44 44" fill="none" xmlns="http://www.w3.org/2000/svg">
<path d="M7.46272 9.05319C8.19217 8.458 9.26838 8.50092 9.94841 9.18094L15.5203 14.7519L15.6471 14.8927C16.2422 15.6221 16.2002 16.6983 15.5203 17.3784C14.8404 18.0582 13.7641 18.1009 13.0346 17.5061L12.8938 17.3784L8.63464 13.1192L4.37649 17.3784L4.23566 17.5061C3.5063 18.1008 2.43085 18.058 1.75098 17.3784C1.02571 16.6531 1.02571 15.4771 1.75098 14.7519L7.32189 9.18094L7.46272 9.05319Z" fill="#3C83F6"/>
<path d="M6.77734 29.0654V10.4937C6.77734 9.46801 7.60863 8.63672 8.63431 8.63672C9.65999 8.63672 10.4913 9.46801 10.4913 10.4937V29.0654L10.5003 29.2485C10.5425 29.6737 10.7307 30.0733 11.0355 30.3782C11.3837 30.7264 11.8558 30.9223 12.3483 30.9224H23.4911L23.6812 30.9324C24.6177 31.0274 25.3489 31.8178 25.3491 32.7793C25.3491 33.741 24.6178 34.5323 23.6812 34.6273L23.4911 34.6363H12.3483C10.8707 34.6362 9.45375 34.0494 8.40898 33.0047C7.42963 32.0253 6.85282 30.7188 6.78439 29.342L6.77734 29.0654Z" fill="#3C83F6"/>
<path d="M38.8939 25.8956C39.6192 25.1704 40.7952 25.1704 41.5204 25.8956C42.2451 26.6208 42.2451 27.796 41.5204 28.5211L35.9485 34.0931C35.2233 34.8183 34.0473 34.8183 33.322 34.0931L27.7511 28.5211L27.6233 28.3803C27.0284 27.6509 27.0712 26.5756 27.7511 25.8956C28.431 25.2157 29.5063 25.173 30.2358 25.7679L30.3766 25.8956L34.6348 30.1528L38.8939 25.8956Z" fill="#3C83F6"/>
<path d="M32.7786 32.7793V14.2076C32.7785 13.7153 32.5835 13.243 32.2354 12.8949C31.9308 12.5902 31.5308 12.402 31.1058 12.3597L30.9217 12.3507H19.7788C18.7532 12.3507 17.9219 11.5194 17.9219 10.4937C17.9219 9.46801 18.7532 8.63672 19.7788 8.63672H30.9217L31.1983 8.64376C32.5752 8.71213 33.8815 9.28902 34.8609 10.2684C35.9057 11.3131 36.4935 12.7301 36.4936 14.2076V32.7793C36.4936 33.805 35.6613 34.6363 34.6356 34.6363C33.6102 34.636 32.7786 33.8049 32.7786 32.7793Z" fill="#3C83F6"/>
</svg>
