<svg width="44" height="44" viewBox="0 0 44 44" fill="none" xmlns="http://www.w3.org/2000/svg">
<path d="M15.704 17.9893C18.522 17.9893 20.962 18.5209 22.1747 19.2656C22.8597 19.6863 23.1913 20.2043 23.1913 20.7109V34.2783C23.1913 34.7849 22.8598 35.3039 22.1747 35.7246C20.9619 36.4693 18.5219 37 15.704 37C12.8865 37 10.4464 36.4692 9.23337 35.7246C8.54815 35.3039 8.2158 34.7849 8.2158 34.2783V20.7109C8.2158 20.2043 8.54819 19.6863 9.23337 19.2656C10.4464 18.5209 12.8863 17.9893 15.704 17.9893ZM30.161 25.1885C32.4426 25.1885 34.417 25.6226 35.3993 26.2256C35.9855 26.5856 36.2616 27.0352 36.2616 27.4688V34.7197C36.2616 35.1533 35.9855 35.6029 35.3993 35.9629C34.417 36.5658 32.4426 37 30.161 37C27.8792 37 25.9041 36.5659 24.9218 35.9629C24.3353 35.6029 24.0595 35.1533 24.0595 34.7197V27.4688C24.0595 27.0352 24.3353 26.5856 24.9218 26.2256C25.9041 25.6225 27.8792 25.1885 30.161 25.1885ZM22.1747 31.2012C20.9619 31.9462 18.5219 32.4775 15.704 32.4775C12.8863 32.4775 10.4465 31.9462 9.23337 31.2012L9.20896 31.1865V34.2783C9.20896 34.403 9.29476 34.511 9.41208 34.623C9.60865 34.811 9.89828 34.9812 10.2588 35.1377C11.4861 35.6705 13.4691 36.0078 15.704 36.0078C17.9392 36.0078 19.9223 35.6705 21.1493 35.1377C21.5098 34.9812 21.7995 34.811 21.996 34.623C22.1132 34.511 22.1991 34.403 22.1991 34.2783V31.1865L22.1747 31.2012ZM25.0517 34.7197C25.0517 34.7958 25.113 34.8564 25.1845 34.9248C25.3353 35.069 25.5583 35.1983 25.8349 35.3184C26.8099 35.7417 28.3854 36.0078 30.161 36.0078C31.9364 36.0078 33.5113 35.7416 34.4862 35.3184C34.7626 35.1983 34.9858 35.069 35.1366 34.9248C35.2081 34.8564 35.2694 34.7958 35.2694 34.7197V32.4131C34.2494 32.9766 32.3459 33.375 30.161 33.375C27.976 33.375 26.0718 32.9757 25.0517 32.4121V34.7197ZM35.2694 28.7871C34.2495 29.3503 32.3459 29.748 30.161 29.748C27.976 29.748 26.0718 29.3504 25.0517 28.7871V31.0938C25.0517 31.1698 25.1129 31.2304 25.1845 31.2988C25.3353 31.443 25.5583 31.5723 25.8349 31.6924C26.8099 32.1159 28.3854 32.3818 30.161 32.3818C31.9364 32.3818 33.5114 32.1158 34.4862 31.6924C34.7627 31.5723 34.9858 31.443 35.1366 31.2988C35.2082 31.2303 35.2694 31.1698 35.2694 31.0938V28.7871ZM22.1747 26.6787C20.9619 27.4234 18.522 27.9541 15.704 27.9541C12.8864 27.9541 10.4464 27.4234 9.23337 26.6787C9.22531 26.6738 9.21699 26.6691 9.20896 26.6641V29.7559C9.20917 29.8804 9.29495 29.9885 9.41208 30.1006C9.60877 30.2885 9.89929 30.4577 10.2597 30.6143C11.4871 31.1473 13.4693 31.4853 15.704 31.4854C17.9391 31.4854 19.9223 31.1474 21.1493 30.6143C21.5095 30.4577 21.7995 30.2885 21.996 30.1006C22.1131 29.9886 22.1989 29.8804 22.1991 29.7559V26.6641L22.1747 26.6787ZM30.161 26.1807C28.3854 26.1807 26.8099 26.4468 25.8349 26.8701C25.5583 26.9902 25.3353 27.1195 25.1845 27.2637C25.113 27.332 25.0517 27.3927 25.0517 27.4688C25.0519 27.5446 25.1131 27.6055 25.1845 27.6738C25.3353 27.8179 25.5585 27.9464 25.8349 28.0664C26.8099 28.4897 28.3854 28.7559 30.161 28.7559C31.9364 28.7559 33.5113 28.4896 34.4862 28.0664C34.7624 27.9465 34.9858 27.8178 35.1366 27.6738C35.208 27.6055 35.2691 27.5447 35.2694 27.4688C35.2694 27.3927 35.2081 27.3312 35.1366 27.2627C34.9858 27.1188 34.7624 26.9901 34.4862 26.8701C33.5113 26.447 31.9364 26.1807 30.161 26.1807ZM22.1747 22.1562C20.962 22.901 18.522 23.4326 15.704 23.4326C12.8863 23.4326 10.4464 22.9009 9.23337 22.1562C9.22528 22.1513 9.21702 22.1466 9.20896 22.1416V25.2334C9.20908 25.3579 9.29482 25.4661 9.41208 25.5781C9.60862 25.766 9.89851 25.9354 10.2588 26.0918C11.4861 26.6246 13.4691 26.9619 15.704 26.9619C17.9392 26.9619 19.9223 26.6246 21.1493 26.0918C21.5096 25.9353 21.7995 25.766 21.996 25.5781C22.1132 25.4661 22.199 25.358 22.1991 25.2334V22.1416L22.1747 22.1562ZM18.3251 7C21.0273 7.00008 23.4524 8.19478 25.1015 10.084C25.8161 9.83959 26.5827 9.70608 27.3798 9.70605C31.2687 9.70605 34.4266 12.864 34.4266 16.7529C34.4266 16.8593 34.4235 16.9651 34.4188 17.0703C37.0318 17.495 39.0272 19.7622 39.0272 22.4951L39.0194 22.792C38.9409 24.2672 38.2804 25.5881 37.2635 26.5293C37.1669 26.6186 37.0386 26.6662 36.9071 26.6611C36.7756 26.656 36.6517 26.5984 36.5624 26.502C36.473 26.4053 36.4254 26.277 36.4305 26.1455C36.4357 26.0141 36.4933 25.8902 36.5897 25.8008C37.4782 24.9782 38.034 23.8014 38.034 22.4951L38.0291 22.2734C37.9187 19.9959 36.1159 18.162 33.8514 18.0029C33.7847 17.9982 33.7195 17.9797 33.66 17.9492C33.6005 17.9186 33.5475 17.8767 33.5047 17.8252C33.4619 17.7736 33.4301 17.7137 33.411 17.6494C33.3919 17.5852 33.3858 17.5177 33.3934 17.4512C33.4198 17.2221 33.4334 16.9891 33.4335 16.7529C33.4335 13.4119 30.7208 10.6992 27.3798 10.6992C26.5854 10.6992 25.8261 10.8521 25.1308 11.1309C25.0322 11.1703 24.9239 11.1772 24.8212 11.1504C24.7184 11.1235 24.6262 11.0642 24.5595 10.9814C23.0924 9.15959 20.844 7.99227 18.3251 7.99219C14.0352 7.99219 10.5292 11.3763 10.333 15.6182C10.3275 15.7366 10.2795 15.8492 10.1982 15.9355C10.1168 16.0218 10.0067 16.0765 9.88864 16.0889C7.13759 16.3755 4.99237 18.7015 4.99218 21.5283C4.99233 23.3508 5.88429 24.966 7.25487 25.96C7.36139 26.0373 7.43337 26.1542 7.45409 26.2842C7.47468 26.414 7.44323 26.5469 7.3662 26.6533C7.2889 26.7598 7.17193 26.8308 7.04198 26.8516C6.91206 26.8723 6.7794 26.8408 6.67284 26.7637C5.05349 25.5896 4.00015 23.6824 4 21.5293C4.00036 21.8635 4.27307 21.9746 4.41406 22.0098L4.49609 22.0254C4.47548 22 4.00104 21.4164 4 21.5293C4.00018 18.3328 6.32158 15.6776 9.37009 15.1582C9.79217 10.5856 13.6432 7 18.3251 7ZM15.704 18.9824C13.4691 18.9825 11.4861 19.3197 10.2588 19.8525C9.89847 20.009 9.6086 20.1784 9.41208 20.3662C9.29474 20.4783 9.20896 20.5863 9.20896 20.7109C9.20899 20.8356 9.29476 20.9436 9.41208 21.0557C9.60861 21.2435 9.89849 21.4129 10.2588 21.5693C11.4861 22.1022 13.4691 22.4394 15.704 22.4395C17.9392 22.4395 19.9223 22.1021 21.1493 21.5693C21.5096 21.4128 21.7996 21.2435 21.996 21.0557C22.1133 20.9436 22.1991 20.8356 22.1991 20.7109C22.1991 20.5863 22.1133 20.4784 21.996 20.3662C21.7996 20.1783 21.5096 20.009 21.1493 19.8525C19.9223 19.3197 17.9392 18.9824 15.704 18.9824ZM4.49609 22.0254L4 21.5293C4.00104 21.4164 4.47548 22 4.49609 22.0254Z" fill="#A856F7"/>
<path d="M4 21.5293C4.00015 23.6824 5.05349 25.5896 6.67284 26.7637C6.7794 26.8408 6.91206 26.8723 7.04198 26.8516C7.17193 26.8308 7.2889 26.7598 7.3662 26.6533C7.44323 26.5469 7.47468 26.414 7.45409 26.2842C7.43337 26.1542 7.36139 26.0373 7.25487 25.96C5.88429 24.966 4.99233 23.3508 4.99218 21.5283C4.99237 18.7015 7.13759 16.3755 9.88864 16.0889C10.0067 16.0765 10.1168 16.0218 10.1982 15.9355C10.2795 15.8492 10.3275 15.7366 10.333 15.6182C10.5292 11.3763 14.0352 7.99219 18.3251 7.99219C20.844 7.99227 23.0924 9.15959 24.5595 10.9814C24.6262 11.0642 24.7184 11.1235 24.8212 11.1504C24.9239 11.1772 25.0322 11.1703 25.1308 11.1309C25.8261 10.8521 26.5854 10.6992 27.3798 10.6992C30.7208 10.6992 33.4335 13.4119 33.4335 16.7529C33.4334 16.9891 33.4198 17.2221 33.3934 17.4512C33.3858 17.5177 33.3919 17.5852 33.411 17.6494C33.4301 17.7137 33.4619 17.7736 33.5047 17.8252C33.5475 17.8767 33.6005 17.9186 33.66 17.9492C33.7195 17.9797 33.7847 17.9982 33.8514 18.0029C36.1159 18.162 37.9187 19.9959 38.0291 22.2734L38.034 22.4951C38.034 23.8014 37.4782 24.9782 36.5897 25.8008C36.4933 25.8902 36.4357 26.0141 36.4305 26.1455C36.4254 26.277 36.473 26.4053 36.5624 26.502C36.6517 26.5984 36.7756 26.656 36.9071 26.6611C37.0386 26.6662 37.1669 26.6186 37.2635 26.5293C38.2804 25.5881 38.9409 24.2672 39.0194 22.792L39.0272 22.4951C39.0272 19.7622 37.0318 17.495 34.4188 17.0703C34.4235 16.9651 34.4266 16.8593 34.4266 16.7529C34.4266 12.864 31.2687 9.70605 27.3798 9.70605C26.5827 9.70608 25.8161 9.83959 25.1015 10.084C23.4524 8.19478 21.0273 7.00008 18.3251 7C13.6432 7 9.79217 10.5856 9.37009 15.1582C6.32158 15.6776 4.00018 18.3328 4 21.5293ZM4 21.5293C4.00036 21.8635 4.27307 21.9746 4.41406 22.0098L4.49609 22.0254M4 21.5293C4.00104 21.4164 4.47548 22 4.49609 22.0254M4 21.5293L4.49609 22.0254M15.704 17.9893C18.522 17.9893 20.962 18.5209 22.1747 19.2656C22.8597 19.6863 23.1913 20.2043 23.1913 20.7109V34.2783C23.1913 34.7849 22.8598 35.3039 22.1747 35.7246C20.9619 36.4693 18.5219 37 15.704 37C12.8865 37 10.4464 36.4692 9.23337 35.7246C8.54815 35.3039 8.2158 34.7849 8.2158 34.2783V20.7109C8.2158 20.2043 8.54819 19.6863 9.23337 19.2656C10.4464 18.5209 12.8863 17.9893 15.704 17.9893ZM30.161 25.1885C32.4426 25.1885 34.417 25.6226 35.3993 26.2256C35.9855 26.5856 36.2616 27.0352 36.2616 27.4688V34.7197C36.2616 35.1533 35.9855 35.6029 35.3993 35.9629C34.417 36.5658 32.4426 37 30.161 37C27.8792 37 25.9041 36.5659 24.9218 35.9629C24.3353 35.6029 24.0595 35.1533 24.0595 34.7197V27.4688C24.0595 27.0352 24.3353 26.5856 24.9218 26.2256C25.9041 25.6225 27.8792 25.1885 30.161 25.1885ZM22.1747 31.2012C20.9619 31.9462 18.5219 32.4775 15.704 32.4775C12.8863 32.4775 10.4465 31.9462 9.23337 31.2012L9.20896 31.1865V34.2783C9.20896 34.403 9.29476 34.511 9.41208 34.623C9.60865 34.811 9.89828 34.9812 10.2588 35.1377C11.4861 35.6705 13.4691 36.0078 15.704 36.0078C17.9392 36.0078 19.9223 35.6705 21.1493 35.1377C21.5098 34.9812 21.7995 34.811 21.996 34.623C22.1132 34.511 22.1991 34.403 22.1991 34.2783V31.1865L22.1747 31.2012ZM25.0517 34.7197C25.0517 34.7958 25.113 34.8564 25.1845 34.9248C25.3353 35.069 25.5583 35.1983 25.8349 35.3184C26.8099 35.7417 28.3854 36.0078 30.161 36.0078C31.9364 36.0078 33.5113 35.7416 34.4862 35.3184C34.7626 35.1983 34.9858 35.069 35.1366 34.9248C35.2081 34.8564 35.2694 34.7958 35.2694 34.7197V32.4131C34.2494 32.9766 32.3459 33.375 30.161 33.375C27.976 33.375 26.0718 32.9757 25.0517 32.4121V34.7197ZM35.2694 28.7871C34.2495 29.3503 32.3459 29.748 30.161 29.748C27.976 29.748 26.0718 29.3504 25.0517 28.7871V31.0938C25.0517 31.1698 25.1129 31.2304 25.1845 31.2988C25.3353 31.443 25.5583 31.5723 25.8349 31.6924C26.8099 32.1159 28.3854 32.3818 30.161 32.3818C31.9364 32.3818 33.5114 32.1158 34.4862 31.6924C34.7627 31.5723 34.9858 31.443 35.1366 31.2988C35.2082 31.2303 35.2694 31.1698 35.2694 31.0938V28.7871ZM22.1747 26.6787C20.9619 27.4234 18.522 27.9541 15.704 27.9541C12.8864 27.9541 10.4464 27.4234 9.23337 26.6787C9.22531 26.6738 9.21699 26.6691 9.20896 26.6641V29.7559C9.20917 29.8804 9.29495 29.9885 9.41208 30.1006C9.60877 30.2885 9.89929 30.4577 10.2597 30.6143C11.4871 31.1473 13.4693 31.4853 15.704 31.4854C17.9391 31.4854 19.9223 31.1474 21.1493 30.6143C21.5095 30.4577 21.7995 30.2885 21.996 30.1006C22.1131 29.9886 22.1989 29.8804 22.1991 29.7559V26.6641L22.1747 26.6787ZM30.161 26.1807C28.3854 26.1807 26.8099 26.4468 25.8349 26.8701C25.5583 26.9902 25.3353 27.1195 25.1845 27.2637C25.113 27.332 25.0517 27.3927 25.0517 27.4688C25.0519 27.5446 25.1131 27.6055 25.1845 27.6738C25.3353 27.8179 25.5585 27.9464 25.8349 28.0664C26.8099 28.4897 28.3854 28.7559 30.161 28.7559C31.9364 28.7559 33.5113 28.4896 34.4862 28.0664C34.7624 27.9465 34.9858 27.8178 35.1366 27.6738C35.208 27.6055 35.2691 27.5447 35.2694 27.4688C35.2694 27.3927 35.2081 27.3312 35.1366 27.2627C34.9858 27.1188 34.7624 26.9901 34.4862 26.8701C33.5113 26.447 31.9364 26.1807 30.161 26.1807ZM22.1747 22.1562C20.962 22.901 18.522 23.4326 15.704 23.4326C12.8863 23.4326 10.4464 22.9009 9.23337 22.1562C9.22528 22.1513 9.21702 22.1466 9.20896 22.1416V25.2334C9.20908 25.3579 9.29482 25.4661 9.41208 25.5781C9.60862 25.766 9.89851 25.9354 10.2588 26.0918C11.4861 26.6246 13.4691 26.9619 15.704 26.9619C17.9392 26.9619 19.9223 26.6246 21.1493 26.0918C21.5096 25.9353 21.7995 25.766 21.996 25.5781C22.1132 25.4661 22.199 25.358 22.1991 25.2334V22.1416L22.1747 22.1562ZM15.704 18.9824C13.4691 18.9825 11.4861 19.3197 10.2588 19.8525C9.89847 20.009 9.6086 20.1784 9.41208 20.3662C9.29474 20.4783 9.20896 20.5863 9.20896 20.7109C9.20899 20.8356 9.29476 20.9436 9.41208 21.0557C9.60861 21.2435 9.89849 21.4129 10.2588 21.5693C11.4861 22.1022 13.4691 22.4394 15.704 22.4395C17.9392 22.4395 19.9223 22.1021 21.1493 21.5693C21.5096 21.4128 21.7996 21.2435 21.996 21.0557C22.1133 20.9436 22.1991 20.8356 22.1991 20.7109C22.1991 20.5863 22.1133 20.4784 21.996 20.3662C21.7996 20.1783 21.5096 20.009 21.1493 19.8525C19.9223 19.3197 17.9392 18.9824 15.704 18.9824Z" stroke="#A856F7" stroke-width="0.9"/>
</svg>
