<svg width="36" height="36" viewBox="0 0 36 36" fill="none" xmlns="http://www.w3.org/2000/svg">
<path d="M12.3449 2.26661C12.0203 2.07189 11.8794 1.66049 12.0829 1.32109C12.2867 0.981014 12.717 0.913066 13.0412 1.10778L15.5614 2.70877C15.7405 2.85278 15.8707 3.03938 15.8812 3.27669C15.8869 3.44739 15.8291 3.61415 15.7189 3.74468C15.6088 3.8752 15.4541 3.9602 15.2848 3.98321C7.98506 4.92906 2.35219 11.139 2.35219 18.6517C2.35219 19.53 2.42893 20.3896 2.57631 21.225C2.60742 21.4016 2.5671 21.5833 2.46421 21.7302C2.36131 21.8771 2.20429 21.9771 2.02766 22.0082C1.85104 22.0393 1.6693 21.999 1.52241 21.8961C1.37552 21.7932 1.27552 21.6362 1.24441 21.4596C1.08133 20.5325 0.999546 19.593 1 18.6517C1 11.0237 6.31444 4.63564 13.456 2.94439C13.0869 2.7162 12.7164 2.49026 12.3445 2.26661H12.3449ZM18.9243 3.25877C18.9512 3.08154 19.0474 2.92225 19.1917 2.81595C19.3361 2.70964 19.5167 2.66501 19.694 2.69187C27.4819 3.87469 33.4525 10.5663 33.4525 18.6517C33.4525 20.1997 33.2334 21.6975 32.8244 23.1153C33.1936 22.8391 33.5191 22.5846 33.6492 22.4832L33.679 22.4595C33.9755 22.2242 34.4112 22.234 34.6583 22.5457C34.9217 22.878 34.8114 23.2877 34.516 23.5213L32.2098 25.171C32.0452 25.2612 31.8691 25.3424 31.6794 25.3559C31.1051 25.3971 30.763 24.816 30.9692 24.3208C31.7183 22.5248 32.1028 20.5977 32.1003 18.6517C32.1003 11.2505 26.6334 5.11364 19.4912 4.02884C19.4034 4.01551 19.3191 3.98502 19.2431 3.9391C19.1671 3.89318 19.1008 3.83275 19.0482 3.76124C18.9956 3.68973 18.9575 3.60855 18.9363 3.52233C18.915 3.43612 18.9109 3.34656 18.9243 3.25877ZM3.98834 25.4035L3.98766 25.4025C3.96805 25.3653 3.81762 25.0733 3.44848 25.0381C2.78388 24.9752 2.69497 25.605 2.63615 26.0834C2.53135 26.9312 2.45293 27.7827 2.37484 28.6336L2.35489 28.8472C2.3468 28.9357 2.35621 29.0248 2.38258 29.1096C2.40895 29.1944 2.45177 29.2732 2.50859 29.3414C2.56541 29.4097 2.63512 29.4661 2.71373 29.5074C2.79234 29.5487 2.87832 29.5741 2.96676 29.5821C3.3261 29.6149 3.67328 29.332 3.70167 28.9679C3.7392 28.5609 3.77773 28.1542 3.81796 27.7476C6.7397 32.0032 11.6552 34.7975 17.2263 34.7975C21.6753 34.7975 26.5787 32.8751 29.6008 28.8073C29.7058 28.6633 29.7497 28.4836 29.7229 28.3073C29.6961 28.1311 29.6007 27.9726 29.4576 27.8663C29.3145 27.76 29.1352 27.7145 28.9587 27.7398C28.7823 27.765 28.6229 27.8589 28.5153 28.0011C25.7907 31.6686 21.3234 33.4453 17.2263 33.4453C14.4941 33.4492 11.8137 32.7008 9.47867 31.2823C7.14364 29.8638 5.24414 27.8299 3.98834 25.4035ZM13.6477 17.0791C13.5209 16.9524 13.349 16.8812 13.1697 16.8812C12.9904 16.8812 12.8185 16.9524 12.6917 17.0791L11.4795 18.2914C11.226 18.545 11.0836 18.8888 11.0836 19.2474C11.0836 19.6059 11.226 19.9498 11.4795 20.2034L12.6917 21.4156C12.7541 21.4802 12.8287 21.5317 12.9111 21.5671C12.9936 21.6026 13.0823 21.6212 13.1721 21.622C13.2619 21.6228 13.3509 21.6057 13.434 21.5717C13.5171 21.5377 13.5926 21.4875 13.6561 21.424C13.7195 21.3605 13.7697 21.285 13.8037 21.2019C13.8377 21.1188 13.8548 21.0298 13.8541 20.94C13.8533 20.8503 13.8346 20.7616 13.7992 20.6791C13.7638 20.5966 13.7123 20.522 13.6477 20.4596L12.4354 19.2474L13.6477 18.0351C13.7744 17.9084 13.8456 17.7364 13.8456 17.5571C13.8456 17.3779 13.7744 17.2059 13.6477 17.0791ZM21.7608 17.0791C21.6984 17.0146 21.6238 16.9631 21.5414 16.9276C21.4589 16.8922 21.3702 16.8735 21.2804 16.8728C21.1906 16.872 21.1016 16.8891 21.0185 16.9231C20.9354 16.9571 20.8599 17.0073 20.7964 17.0708C20.733 17.1342 20.6828 17.2097 20.6488 17.2928C20.6148 17.3759 20.5977 17.4649 20.5984 17.5547C20.5992 17.6445 20.6179 17.7332 20.6533 17.8157C20.6887 17.8982 20.7402 17.9728 20.8048 18.0351L22.0164 19.2474L20.8045 20.4596C20.6813 20.5871 20.6132 20.7579 20.6147 20.9352C20.6163 21.1124 20.6874 21.282 20.8127 21.4074C20.9381 21.5327 21.1076 21.6038 21.2849 21.6054C21.4622 21.6069 21.633 21.5388 21.7605 21.4156L22.973 20.2034C23.0986 20.0778 23.1982 19.9287 23.2662 19.7647C23.3341 19.6006 23.3691 19.4248 23.3691 19.2472C23.3691 19.0696 23.3341 18.8938 23.2662 18.7297C23.1982 18.5657 23.0986 18.4166 22.973 18.291L21.7608 17.0791ZM18.8512 15.5863C18.9325 15.6222 19.0059 15.6736 19.0672 15.7378C19.1286 15.802 19.1767 15.8776 19.2088 15.9604C19.2409 16.0432 19.2564 16.1315 19.2544 16.2203C19.2524 16.309 19.2329 16.3965 19.1971 16.4778L16.6617 22.2246C16.5894 22.3886 16.4548 22.5172 16.2876 22.5821C16.1204 22.6469 15.9344 22.6427 15.7703 22.5704C15.6062 22.498 15.4776 22.3635 15.4128 22.1963C15.3479 22.0291 15.3521 21.843 15.4245 21.6789L17.9598 15.9322C17.9956 15.8509 18.0471 15.7775 18.1113 15.7162C18.1755 15.6548 18.2511 15.6067 18.3339 15.5746C18.4167 15.5425 18.505 15.527 18.5937 15.529C18.6825 15.531 18.77 15.5505 18.8512 15.5863Z" fill="#A856F7" stroke="#A856F7" stroke-width="0.7"/>
<path fill-rule="evenodd" clip-rule="evenodd" d="M13.8466 28.3759C10.486 28.3759 7.76172 25.6516 7.76172 22.2911V15.5302C7.76172 12.1696 10.486 9.44531 13.8466 9.44531H20.6075C23.968 9.44531 26.6923 12.1696 26.6923 15.5302V22.2911C26.6923 25.6516 23.968 28.3759 20.6075 28.3759H13.8466ZM9.11391 22.2911C9.11391 24.9049 11.2328 27.0238 13.8466 27.0238H20.6075C23.2213 27.0238 25.3402 24.9049 25.3402 22.2911V15.5302C25.3402 12.9164 23.2213 10.7975 20.6075 10.7975H13.8466C11.2328 10.7975 9.11391 12.9164 9.11391 15.5302V22.2911Z" fill="#A856F7" stroke="#A856F7" stroke-width="0.7"/>
</svg>
