<svg width="44" height="44" viewBox="0 0 44 44" fill="none" xmlns="http://www.w3.org/2000/svg">
<path d="M11.0264 35.6138V31.1749C11.0264 30.8908 11.2567 30.6605 11.5408 30.6605C11.8248 30.6605 12.0551 30.8908 12.0551 31.1749V35.6138C12.0551 36.4382 11.3802 37.1094 10.557 37.1094H4.5144C4.23031 37.1094 4 36.8791 4 36.595C4 36.3109 4.2303 36.0806 4.5144 36.0806H10.557C10.8146 36.0806 11.0263 35.8675 11.0264 35.6138ZM17.1636 29.2988C17.3136 29.0681 17.6172 28.9974 17.8526 29.1339L17.8752 29.1477L22.6479 32.2483H22.648C23.2324 32.6274 23.7759 32.7942 24.2183 32.7858C24.6429 32.7777 24.996 32.6105 25.2603 32.2597L25.2608 32.2591L25.2858 32.2249C25.3433 32.1432 25.3955 32.049 25.4401 31.943C25.5503 31.6812 25.8519 31.5583 26.1137 31.6686C26.3756 31.7788 26.4985 32.0804 26.3883 32.3422C26.3071 32.535 26.2049 32.716 26.0819 32.8787L26.082 32.8788C25.6172 33.4956 24.9613 33.8006 24.2379 33.8144C23.5322 33.8278 22.7887 33.566 22.088 33.1113L22.0878 33.1111L17.3147 30.0104L17.2929 29.9955C17.0725 29.8359 17.0137 29.5296 17.1636 29.2988ZM11.0264 28.8053V24.3393C11.0263 24.0856 10.8146 23.8725 10.557 23.8725H4.5144C4.2303 23.8725 4 23.6422 4 23.3581C4 23.0741 4.2303 22.8438 4.5144 22.8438H10.557C11.3803 22.8438 12.0551 23.5149 12.0551 24.3393V28.8053C12.0551 29.0894 11.8248 29.3197 11.5408 29.3197C11.2567 29.3197 11.0264 29.0894 11.0264 28.8053Z" fill="#3C83F6" stroke="#3C83F6" stroke-width="0.4" stroke-miterlimit="10" stroke-linecap="round" stroke-linejoin="round"/>
<path d="M13.904 24.0188C16.9571 22.8802 20.2334 24.0376 22.5901 25.5514L22.7024 25.6243L22.7026 25.6244L24.4505 26.7705C25.4664 27.4359 26.111 28.4374 26.4237 29.4495C26.615 30.0686 26.6881 30.7129 26.6349 31.3082L35.2519 27.9451H35.252L35.3353 27.9134C36.1936 27.596 36.973 27.5773 37.6147 27.8097C38.2797 28.0505 38.7523 28.5468 38.974 29.1508C39.4233 30.3754 38.8194 31.8849 37.1684 32.6528L37.1683 32.6527L25.8105 37.9369L25.8103 37.937C24.269 38.6537 23.0422 39.0628 21.7499 38.9921C20.46 38.9215 19.1802 38.3776 17.5153 37.3696L17.5149 37.3693C15.8852 36.3809 15.0242 35.8582 14.2478 35.568C13.5501 35.3071 12.9092 35.231 11.7745 35.2225L11.5408 35.2217L11.5143 35.221C11.2425 35.2072 11.0264 34.9825 11.0264 34.7073C11.0264 34.4232 11.2567 34.1929 11.5408 34.1929L11.7817 34.1937C12.9593 34.2023 13.7436 34.2811 14.608 34.6043C15.4977 34.937 16.4585 35.5254 18.0481 36.4895L18.1989 36.5801C19.7415 37.5 20.8068 37.9102 21.8061 37.9649C22.8351 38.0212 23.8694 37.7049 25.3766 37.0041L36.7345 31.7199L36.7346 31.7199L36.7929 31.6922C38.0016 31.1031 38.2361 30.1265 38.0081 29.5052C37.8893 29.1813 37.6388 28.9126 37.2644 28.777C36.8873 28.6404 36.3405 28.6248 35.6258 28.9036L35.6258 28.9035L26.1013 32.6209C25.9087 32.696 25.6898 32.6486 25.5456 32.5005C25.4014 32.3524 25.3599 32.1323 25.4402 31.9418L25.4612 31.8899C25.6715 31.3457 25.6896 30.5587 25.4407 29.7532C25.1867 28.9309 24.6708 28.1445 23.8866 27.631L23.8863 27.6308L22.1385 26.4847C19.8808 25.0055 16.9108 23.9959 14.2632 24.9828L14.2008 25.0065L11.7258 25.9606C11.4607 26.0628 11.163 25.9307 11.0608 25.6657C10.9587 25.4006 11.0907 25.1029 11.3558 25.0007L13.8307 24.0466L13.904 24.0188ZM12.5312 5.07093C12.5312 5.05111 12.5131 5.0288 12.4856 5.0288H10.6193C10.608 5.0288 10.5974 5.0329 10.5883 5.04199C10.5792 5.05107 10.5757 5.06099 10.5757 5.07093V5.71272C10.5757 5.94029 10.4263 6.13988 10.2101 6.20515L10.1889 6.21104C9.68155 6.34106 9.1952 6.54242 8.74438 6.80903C8.54248 6.92842 8.28535 6.8961 8.11927 6.73046L7.66408 6.27641L7.65758 6.27112C7.6505 6.26639 7.64168 6.26355 7.63099 6.26355C7.61677 6.26355 7.60582 6.26858 7.5979 6.27641L6.27755 7.59335C6.27176 7.59915 6.2669 7.60822 6.2669 7.62202C6.2669 7.63565 6.27172 7.64609 6.27889 7.6535L6.73441 8.10788L6.74968 8.12376C6.89813 8.28494 6.92806 8.52292 6.82416 8.71585L6.81331 8.73501C6.56319 9.15574 6.37019 9.60773 6.23931 10.0791L6.21399 10.1736C6.15526 10.4006 5.9504 10.5592 5.71593 10.5592H5.0724C5.06241 10.5592 5.05197 10.5628 5.04233 10.5725C5.03259 10.5823 5.0288 10.5931 5.0288 10.6033V12.4649L5.02973 12.4738C5.03397 12.4937 5.05212 12.5091 5.0724 12.5091H5.71593L5.7379 12.5095C5.9633 12.519 6.1574 12.6749 6.21412 12.8951C6.34451 13.4011 6.54626 13.886 6.81331 14.3351C6.93388 14.5379 6.90105 14.7967 6.73368 14.963L6.27922 15.4143L6.27427 15.4204C6.26976 15.4272 6.2669 15.4358 6.2669 15.4464C6.2669 15.4606 6.27198 15.4711 6.27922 15.4784L7.59938 16.7933L7.59965 16.7936L7.60655 16.7991C7.62367 16.8102 7.64762 16.8084 7.66247 16.7936L8.11934 16.3378L8.13521 16.3227C8.3017 16.1701 8.54952 16.1436 8.74519 16.2597C9.19514 16.5268 9.68109 16.728 10.1882 16.8571C10.4161 16.9151 10.5757 17.1203 10.5757 17.3555V17.9974C10.5757 18.0077 10.5795 18.0185 10.5892 18.0283C10.5989 18.0379 10.6093 18.0415 10.6193 18.0415H12.4858C12.4975 18.0415 12.5085 18.0373 12.518 18.0279C12.5276 18.0182 12.5313 18.0076 12.5313 17.9974V17.3555C12.5313 17.1203 12.6909 16.9151 12.9188 16.8571C13.4259 16.728 13.9119 16.5268 14.3619 16.2597L14.381 16.2489C14.5802 16.1418 14.8274 16.1773 14.9885 16.3386L15.4427 16.7936L15.449 16.7988C15.456 16.8035 15.4646 16.8062 15.475 16.8062C15.4889 16.8062 15.4996 16.8013 15.5074 16.7936L16.8275 15.4768L16.8326 15.4706C16.8371 15.4639 16.8397 15.4559 16.8397 15.4464C16.8396 15.4336 16.8352 15.4237 16.8275 15.4161L16.3714 14.963C16.2038 14.7965 16.1711 14.5373 16.2922 14.3344C16.5597 13.8861 16.7613 13.4016 16.8908 12.8959L16.8967 12.8747C16.9619 12.6584 17.1615 12.5091 17.3891 12.5091H18.0326C18.0441 12.5091 18.0553 12.5048 18.065 12.4952C18.0744 12.4858 18.0782 12.4755 18.0782 12.4649V10.6033C18.0782 10.5943 18.0749 10.5837 18.0646 10.5734C18.0542 10.5631 18.0429 10.5592 18.0326 10.5592H17.3891C17.1543 10.5592 16.9493 10.4002 16.8909 10.1728C16.7692 9.69919 16.5843 9.2442 16.3415 8.82007L16.2922 8.73568C16.1713 8.53317 16.2036 8.27441 16.3706 8.10788L16.8275 7.65222L16.8327 7.646C16.8372 7.63931 16.8397 7.6313 16.8397 7.62202C16.8397 7.61277 16.8373 7.60563 16.8334 7.60005L16.8291 7.59496C16.8285 7.59432 16.8278 7.59366 16.8272 7.59302L15.509 6.27634L15.5028 6.27119C15.4957 6.26654 15.4866 6.26349 15.475 6.26348C15.4596 6.26348 15.4484 6.26899 15.441 6.27634L14.9883 6.72966C14.8223 6.89593 14.5647 6.92857 14.3624 6.80896C13.9398 6.55901 13.4859 6.36644 13.0128 6.23622L12.9179 6.21104C12.6903 6.15273 12.5312 5.94763 12.5312 5.71272V5.07093ZM13.56 5.32625C13.8947 5.43427 14.2202 5.56904 14.5334 5.72919L14.7178 5.5446L14.7376 5.52551C15.1504 5.13769 15.7996 5.13769 16.2125 5.52551L16.2322 5.5446L17.5542 6.86516C17.9682 7.27629 17.9717 7.94271 17.5733 8.36086L17.554 8.38062L17.3719 8.5622C17.5322 8.87352 17.6671 9.19728 17.7751 9.53038H18.0326C18.6227 9.53038 19.107 10.0116 19.107 10.6033V12.4649C19.107 13.0598 18.6215 13.5379 18.0326 13.5379H17.7754C17.6675 13.8713 17.5327 14.1955 17.3723 14.5071L17.5532 14.6868L17.554 14.6876C17.9668 15.0992 17.9731 15.7658 17.5733 16.1854L17.554 16.2052L16.2339 17.5219L16.234 17.522C15.822 17.9329 15.1559 17.9393 14.7359 17.5412L14.7161 17.522C14.7158 17.5217 14.7156 17.5214 14.7153 17.5212L14.5338 17.3394C14.2207 17.4999 13.8951 17.6347 13.5601 17.7425V17.9974C13.5601 18.588 13.0789 19.0703 12.4858 19.0703H10.6193C10.027 19.0703 9.54692 18.5868 9.54692 17.9974V17.7425C9.21166 17.6346 8.88571 17.4997 8.57231 17.339L8.38899 17.522C7.97055 17.9393 7.29195 17.9394 6.87339 17.5222L5.5513 16.2055C5.55067 16.2049 5.55005 16.2042 5.54942 16.2036C5.13427 15.7858 5.13436 15.1071 5.54936 14.6893L5.55183 14.6868L5.73301 14.5068C5.57295 14.1951 5.43825 13.8711 5.33013 13.5379H5.0724C4.49042 13.5379 4.01503 13.0723 4.00033 12.4926L4 12.4649V10.6033C4 10.0139 4.48005 9.53039 5.0724 9.53038H5.33067C5.43892 9.19756 5.57358 8.87395 5.73355 8.56267L5.55103 8.38062L5.54936 8.37895C5.13524 7.96206 5.13283 7.28202 5.55103 6.86489L6.87306 5.54634L6.87473 5.54467L6.89449 5.52565C7.30727 5.13777 7.95471 5.13777 8.36749 5.52565L8.38725 5.54467L8.38893 5.54634L8.57278 5.72973C8.88615 5.56942 9.21188 5.43462 9.54686 5.32652V5.07093C9.54686 4.47914 10.0293 4.00001 10.6193 4H12.4856C13.0764 4 13.56 4.47799 13.56 5.07093V5.32625Z" fill="#3C83F6" stroke="#3C83F6" stroke-width="0.4" stroke-miterlimit="10" stroke-linecap="round" stroke-linejoin="round"/>
<path d="M14.3988 11.5352C14.3988 9.96864 13.1255 8.69676 11.5516 8.69676C9.97781 8.69677 8.70459 9.96865 8.70458 11.5352C8.70458 13.1018 9.9778 14.3736 11.5516 14.3736C13.1255 14.3736 14.3988 13.1018 14.3988 11.5352ZM28.411 16.9766C28.411 17.5101 27.9733 17.9447 27.4417 17.9447H24.22C23.6863 17.9447 23.2507 17.512 23.2507 16.9766V11.5353C23.2507 11.2512 23.481 11.0209 23.7651 11.0209C24.0492 11.0209 24.2795 11.2512 24.2795 11.5353V16.9159H27.3822V11.5353C27.3822 11.2512 27.6125 11.0209 27.8966 11.0209C28.1807 11.0209 28.411 11.2512 28.411 11.5353V16.9766ZM15.4276 11.5352C15.4276 13.6724 13.6912 15.4024 11.5516 15.4024C9.41211 15.4024 7.67578 13.6724 7.67578 11.5352C7.67579 9.39797 9.41211 7.66798 11.5516 7.66797C13.6912 7.66797 15.4276 9.39796 15.4276 11.5352Z" fill="#3C83F6" stroke="#3C83F6" stroke-width="0.4" stroke-miterlimit="10" stroke-linecap="round" stroke-linejoin="round"/>
<path d="M36.9703 28.1756C36.9715 28.4597 36.7422 28.691 36.4581 28.6922C36.1741 28.6935 35.9427 28.4642 35.9415 28.1801L35.9123 21.4744L36.9411 21.4699L36.9703 28.1756ZM33.3083 25.7476L33.3347 25.7483C33.6065 25.762 33.8227 25.9868 33.8227 26.262C33.8227 26.5372 33.6065 26.7619 33.3347 26.7757L33.3083 26.7764H30.2345C29.9504 26.7764 29.7201 26.5461 29.7201 26.262C29.7201 25.9779 29.9504 25.7476 30.2345 25.7476H33.3083ZM14.6934 24.1909V17.2525C14.6934 16.9684 14.9237 16.7381 15.2078 16.7381C15.4918 16.7381 15.7222 16.9684 15.7222 17.2525V24.1909C15.7222 24.475 15.4919 24.7053 15.2078 24.7053C14.9237 24.7053 14.6934 24.475 14.6934 24.1909ZM33.3083 23.6707L33.3347 23.6714C33.6065 23.6852 33.8227 23.9099 33.8227 24.1851C33.8227 24.4603 33.6065 24.6851 33.3347 24.6988L33.3083 24.6995H30.2345C29.9504 24.6995 29.7201 24.4692 29.7201 24.1851C29.7201 23.901 29.9504 23.6707 30.2345 23.6707H33.3083ZM36.4245 20.9578C36.7086 20.9566 36.9399 21.1858 36.9411 21.4699L35.9123 21.4744C35.9111 21.1903 36.1404 20.959 36.4245 20.9578ZM35.9415 18.9939V13.126C35.9415 12.5368 35.4537 12.0483 34.8598 12.0483H18.5926C18.3085 12.0483 18.0782 11.818 18.0782 11.5339C18.0782 11.2498 18.3085 11.0195 18.5926 11.0195H34.8598C36.0194 11.0195 36.9703 11.966 36.9703 13.126V18.9939C36.9703 19.278 36.74 19.5083 36.4559 19.5083C36.1719 19.5083 35.9415 19.278 35.9415 18.9939Z" fill="#3C83F6"/>
<path d="M35.9123 21.4744L35.9415 28.1801C35.9427 28.4642 36.1741 28.6935 36.4581 28.6922C36.7422 28.691 36.9715 28.4597 36.9703 28.1756L36.9411 21.4699M35.9123 21.4744L36.9411 21.4699M35.9123 21.4744C35.9111 21.1903 36.1404 20.959 36.4245 20.9578C36.7086 20.9566 36.9399 21.1858 36.9411 21.4699M33.3083 25.7476L33.3347 25.7483C33.6065 25.762 33.8227 25.9868 33.8227 26.262C33.8227 26.5372 33.6065 26.7619 33.3347 26.7757L33.3083 26.7764H30.2345C29.9504 26.7764 29.7201 26.5461 29.7201 26.262C29.7201 25.9779 29.9504 25.7476 30.2345 25.7476H33.3083ZM14.6934 24.1909V17.2525C14.6934 16.9684 14.9237 16.7381 15.2078 16.7381C15.4918 16.7381 15.7222 16.9684 15.7222 17.2525V24.1909C15.7222 24.475 15.4919 24.7053 15.2078 24.7053C14.9237 24.7053 14.6934 24.475 14.6934 24.1909ZM33.3083 23.6707L33.3347 23.6714C33.6065 23.6852 33.8227 23.9099 33.8227 24.1851C33.8227 24.4603 33.6065 24.6851 33.3347 24.6988L33.3083 24.6995H30.2345C29.9504 24.6995 29.7201 24.4692 29.7201 24.1851C29.7201 23.901 29.9504 23.6707 30.2345 23.6707H33.3083ZM35.9415 18.9939V13.126C35.9415 12.5368 35.4537 12.0483 34.8598 12.0483H18.5926C18.3085 12.0483 18.0782 11.818 18.0782 11.5339C18.0782 11.2498 18.3085 11.0195 18.5926 11.0195H34.8598C36.0194 11.0195 36.9703 11.966 36.9703 13.126V18.9939C36.9703 19.278 36.74 19.5083 36.4559 19.5083C36.1719 19.5083 35.9415 19.278 35.9415 18.9939Z" stroke="#3C83F6" stroke-width="0.4" stroke-miterlimit="10" stroke-linecap="round" stroke-linejoin="round"/>
</svg>
