<svg width="44" height="44" viewBox="0 0 44 44" fill="none" xmlns="http://www.w3.org/2000/svg">
<path d="M18.9279 34.3698C19.3553 33.5769 20.3222 33.2211 21.1723 33.5735C22.0791 33.9495 22.51 34.9891 22.1342 35.8959L21.4525 37.5385C21.0765 38.4452 20.0369 38.8753 19.1301 38.4994C18.2233 38.1235 17.7933 37.0839 18.1692 36.1771L18.8499 34.5344L18.9279 34.3698Z" fill="#A856F7"/>
<path d="M23.6918 22.8739C24.1194 22.0807 25.087 21.7249 25.9372 22.0776C26.8437 22.454 27.2734 23.4943 26.8971 24.401L26.2164 26.0417C25.84 26.9482 24.7997 27.3778 23.8931 27.0016C22.9866 26.6252 22.5569 25.5849 22.9331 24.6783L23.6138 23.0376L23.6918 22.8739Z" fill="#A856F7"/>
<path d="M26.0864 30.2878C26.0864 29.8209 25.9945 29.3587 25.8158 28.9273C25.6372 28.496 25.3756 28.104 25.0456 27.7738C24.7154 27.4436 24.3234 27.1813 23.8921 27.0026C23.4608 26.8239 22.9984 26.7321 22.5316 26.732C22.123 26.732 21.7177 26.8018 21.3338 26.939L21.1701 27.0026C20.3202 27.3543 19.3539 26.998 18.9267 26.2054L18.8487 26.0417L18.168 24.401L18.1063 24.2296C17.8467 23.3668 18.278 22.4306 19.1279 22.0776C19.9781 21.7249 20.9457 22.0808 21.3733 22.8739L21.4513 23.0376L21.5379 23.2475C21.8664 23.2011 22.1983 23.1762 22.5316 23.1762C23.4654 23.1763 24.3899 23.3609 25.2526 23.7183C26.1153 24.0757 26.8993 24.5995 27.5596 25.2598C28.2198 25.9202 28.7438 26.7041 29.1011 27.5668C29.4583 28.4295 29.6422 29.3541 29.6422 30.2878C29.6421 31.2216 29.4575 32.1461 29.1001 33.0088C28.7427 33.8715 28.219 34.6555 27.5586 35.3158C26.8983 35.976 26.1143 36.5 25.2516 36.8573C24.3447 37.2327 23.3049 36.8023 22.9292 35.8954C22.5536 34.9884 22.985 33.9487 23.8921 33.5731C24.3234 33.3944 24.7154 33.1319 25.0456 32.8018C25.3757 32.4717 25.6372 32.0796 25.8158 31.6483C25.9946 31.217 26.0864 30.7547 26.0864 30.2878Z" fill="#A856F7"/>
<path d="M19.983 23.6568C20.846 23.3977 21.7818 23.8298 22.134 24.6803C22.5095 25.5873 22.0791 26.6271 21.1721 27.0027L21.0113 27.0739C20.2159 27.4504 19.5858 28.1096 19.2474 28.9264C18.8864 29.7977 18.8865 30.7771 19.2474 31.6484C19.6082 32.5196 20.3009 33.2113 21.1721 33.5722C22.0432 33.933 23.0219 33.9338 23.8931 33.5731L24.0587 33.5134C24.4503 33.395 24.8733 33.415 25.2546 33.5731C25.6901 33.7538 26.0363 34.1002 26.2164 34.536L26.8952 36.1786L26.9559 36.35C27.2142 37.2131 26.782 38.1484 25.9314 38.5C25.0809 38.8516 24.1146 38.4945 23.688 37.7009L23.61 37.5362L23.5234 37.3273C22.2764 37.5027 20.9938 37.3476 19.8106 36.8574C18.0684 36.1355 16.6847 34.7503 15.9631 33.0079C15.2416 31.2656 15.2413 29.3081 15.9631 27.5659C16.6849 25.8236 18.0692 24.4391 19.8116 23.7174L19.983 23.6568Z" fill="#A856F7"/>
<path d="M28.5919 25.8641C29.4546 25.6045 30.3909 26.0358 30.7438 26.8857C31.0966 27.7359 30.7407 28.7035 29.9476 29.1311L29.7839 29.2091L28.1432 29.8898C27.2365 30.266 26.1962 29.8364 25.8198 28.9299C25.4436 28.0232 25.8733 26.9829 26.7798 26.6065L28.4205 25.9258L28.5919 25.8641Z" fill="#A856F7"/>
<path d="M25.8198 31.6474C26.1727 30.7975 27.109 30.3662 27.9718 30.6259L28.1432 30.6875L29.7839 31.3682L29.9475 31.4462C30.7407 31.8738 31.0966 32.8414 30.7438 33.6916C30.3909 34.5415 29.4546 34.9728 28.5919 34.7131L28.4205 34.6515L26.7798 33.9708L26.6161 33.8928C25.8229 33.4652 25.467 32.4976 25.8198 31.6474Z" fill="#A856F7"/>
<path d="M17.4908 3.63962C19.3974 3.67819 21.2772 4.10011 23.0176 4.87977C24.7576 5.65935 26.3231 6.78073 27.6209 8.17752L27.8944 8.48081C28.9454 9.67784 29.7857 11.0414 30.3833 12.5132H32.3341C34.4064 12.5412 36.4164 13.227 38.0736 14.4716C39.7307 15.7163 40.9489 17.4556 41.5533 19.438C42.1577 21.4205 42.1168 23.5435 41.4359 25.5011C40.7549 27.4586 39.4698 29.1494 37.7655 30.3288L37.6105 30.4241C36.8216 30.8593 35.8157 30.635 35.2919 29.8782C34.7335 29.0709 34.9353 27.9642 35.7425 27.4056L35.9428 27.2602C36.9277 26.5191 37.6722 25.5008 38.0784 24.3331C38.5117 23.0876 38.538 21.7364 38.1535 20.475C37.7689 19.2134 36.9926 18.106 35.938 17.314C34.9493 16.5715 33.7634 16.1422 32.5324 16.0767L32.2859 16.068H29.1278C28.3427 16.068 27.6509 15.553 27.4255 14.8009C26.9559 13.2341 26.1315 11.7967 25.0174 10.5991V10.5981C24.0438 9.55021 22.869 8.70838 21.5637 8.1236C20.2583 7.53885 18.8486 7.22238 17.4186 7.19349C15.9886 7.1646 14.5677 7.42455 13.2399 7.95606C11.9119 8.48764 10.704 9.28035 9.68887 10.2881C8.67379 11.2958 7.87209 12.4977 7.33086 13.8217C6.7897 15.1456 6.52001 16.5646 6.53844 17.9947C6.55692 19.4249 6.86347 20.837 7.4387 22.1465C8.01396 23.4561 8.84643 24.6374 9.88722 25.6185C10.6012 26.2919 10.6345 27.4163 9.96136 28.1306C9.28793 28.8449 8.16268 28.8782 7.44833 28.2047C6.06069 26.8965 4.9503 25.3223 4.18331 23.5763C3.41637 21.8303 3.00825 19.9478 2.98361 18.0409C2.95899 16.1341 3.3183 14.2418 4.03985 12.4766C4.76149 10.7113 5.83106 9.10905 7.18451 7.76542C8.53786 6.42188 10.1475 5.3642 11.9179 4.65542C13.6884 3.94664 15.5841 3.6011 17.4908 3.63962Z" fill="#A856F7"/>
<path d="M14.3218 26.8857C14.6747 26.0358 15.611 25.6045 16.4737 25.8641L16.6451 25.9258L18.2858 26.6065L18.4495 26.6845C19.2427 27.112 19.5986 28.0797 19.2458 28.9298C18.8929 29.7798 17.9566 30.2111 17.0938 29.9514L16.9224 29.8898L15.2817 29.2091L15.118 29.1311C14.3249 28.7035 13.969 27.7359 14.3218 26.8857Z" fill="#A856F7"/>
<path d="M17.0938 30.6259C17.9566 30.3662 18.8929 30.7975 19.2458 31.6474C19.622 32.5541 19.1923 33.5944 18.2858 33.9708L16.6451 34.6515C15.7385 35.0277 14.6982 34.5981 14.3218 33.6916C13.9456 32.7849 14.3752 31.7446 15.2817 31.3682L16.9224 30.6875L17.0938 30.6259Z" fill="#A856F7"/>
</svg>
