<svg width="44" height="44" viewBox="0 0 44 44" fill="none" xmlns="http://www.w3.org/2000/svg">
<path d="M27.4652 13.6054C26.5094 12.7436 25.3805 12.0959 24.1541 11.7057C22.9277 11.3156 21.6322 11.1919 20.3541 11.343C18.425 11.5633 16.6169 12.3947 15.194 13.7158C13.7711 15.0369 12.8079 16.7784 12.4452 18.6858C12.0825 20.5933 12.3393 22.5667 13.178 24.3178C14.0168 26.069 15.3935 27.506 17.1071 28.4189V33.7857C17.1074 34.0698 17.2204 34.3421 17.4213 34.543C17.6221 34.7439 17.8945 34.8569 18.1786 34.8571H19.25V35.9286C19.2503 36.2126 19.3633 36.485 19.5641 36.6859C19.765 36.8867 20.0374 36.9997 20.3214 37H22.4643C22.7484 36.9997 23.0207 36.8867 23.2216 36.6859C23.4225 36.485 23.5354 36.2126 23.5357 35.9286V34.8571H24.6071C24.8912 34.8569 25.1636 34.7439 25.3644 34.543C25.5653 34.3421 25.6783 34.0698 25.6786 33.7857V28.4195C26.9716 27.7308 28.0792 26.7402 28.9072 25.5317C29.7352 24.3232 30.2592 22.9327 30.4346 21.4783C30.61 20.0239 30.4316 18.5486 29.9147 17.1779C29.3977 15.8072 28.5574 14.5817 27.4652 13.6054ZM24.6071 30.5714V31.6429H18.1786V30.5714H24.6071ZM22.4654 35.9286H20.3214V34.8571H22.4643L22.4654 35.9286ZM23 33.7857H18.1786V32.7143H24.6071V33.7857H23ZM24.9082 27.61C24.8179 27.6539 24.7418 27.7224 24.6885 27.8076C24.6353 27.8927 24.6071 27.9912 24.6071 28.0916V29.5H21.9286V27.0432L23.3787 25.593C23.4763 25.492 23.5303 25.3567 23.5291 25.2162C23.5279 25.0757 23.4716 24.9414 23.3722 24.8421C23.2729 24.7427 23.1385 24.6864 22.9981 24.6852C22.8576 24.684 22.7223 24.738 22.6212 24.8355L21.3929 26.0639L20.1645 24.8355C20.0634 24.738 19.9281 24.684 19.7876 24.6852C19.6472 24.6864 19.5128 24.7427 19.4135 24.8421C19.3142 24.9414 19.2578 25.0757 19.2566 25.2162C19.2554 25.3567 19.3094 25.492 19.407 25.593L20.8571 27.0432V29.5H18.1786V28.0911C18.1786 27.9908 18.1504 27.8925 18.0973 27.8074C18.0441 27.7224 17.9682 27.654 17.878 27.61C16.3143 26.8505 15.0393 25.604 14.2446 24.0579C13.4498 22.5118 13.1783 20.7496 13.4707 19.0359C13.7631 17.3223 14.6037 15.7498 15.8662 14.5547C17.1287 13.3597 18.7449 12.6066 20.472 12.4086C20.7815 12.374 21.0927 12.3567 21.4041 12.3566C23.3785 12.3508 25.2844 13.0806 26.75 14.4036C27.7326 15.2818 28.4838 16.3884 28.9374 17.6258C29.391 18.8631 29.533 20.1931 29.3509 21.4983C29.1687 22.8035 28.6681 24.0438 27.8931 25.1097C27.1181 26.1756 26.0926 27.0343 24.9071 27.61H24.9082ZM21.3929 10.2143C21.5349 10.2143 21.6712 10.1578 21.7717 10.0574C21.8721 9.95691 21.9286 9.82065 21.9286 9.67857V7.53571C21.9286 7.39363 21.8721 7.25737 21.7717 7.15691C21.6712 7.05644 21.5349 7 21.3929 7C21.2508 7 21.1145 7.05644 21.014 7.15691C20.9136 7.25737 20.8571 7.39363 20.8571 7.53571V9.67857C20.8571 9.82065 20.9136 9.95691 21.014 10.0574C21.1145 10.1578 21.2508 10.2143 21.3929 10.2143ZM13.4375 13.1955C13.4872 13.2453 13.5463 13.2848 13.6113 13.3117C13.6763 13.3387 13.746 13.3526 13.8163 13.3526C13.8867 13.3526 13.9564 13.3388 14.0214 13.3119C14.0864 13.285 14.1455 13.2455 14.1953 13.1958C14.245 13.1461 14.2845 13.087 14.3115 13.022C14.3384 12.957 14.3523 12.8873 14.3523 12.817C14.3524 12.7466 14.3385 12.6769 14.3116 12.6119C14.2847 12.5469 14.2453 12.4878 14.1955 12.438L12.68 10.9225C12.6306 10.8713 12.5715 10.8305 12.5061 10.8024C12.4408 10.7744 12.3705 10.7596 12.2993 10.759C12.2282 10.7584 12.1576 10.7719 12.0918 10.7988C12.026 10.8258 11.9662 10.8656 11.9159 10.9159C11.8656 10.9662 11.8258 11.026 11.7988 11.0918C11.7719 11.1576 11.7584 11.2282 11.759 11.2993C11.7596 11.3705 11.7744 11.4408 11.8024 11.5061C11.8305 11.5715 11.8713 11.6306 11.9225 11.68L13.4375 13.1955ZM10.6786 19.8571H8.53571C8.39363 19.8571 8.25737 19.9136 8.15691 20.014C8.05644 20.1145 8 20.2508 8 20.3929C8 20.5349 8.05644 20.6712 8.15691 20.7717C8.25737 20.8721 8.39363 20.9286 8.53571 20.9286H10.6786C10.8207 20.9286 10.9569 20.8721 11.0574 20.7717C11.1578 20.6712 11.2143 20.5349 11.2143 20.3929C11.2143 20.2508 11.1578 20.1145 11.0574 20.014C10.9569 19.9136 10.8207 19.8571 10.6786 19.8571Z" fill="#A856F7" stroke="#A856F7" stroke-width="0.8"/>
<path d="M13.4383 27.589L11.9233 29.1046C11.8721 29.154 11.8313 29.2131 11.8033 29.2785C11.7752 29.3438 11.7604 29.4141 11.7598 29.4853C11.7592 29.5564 11.7727 29.6269 11.7997 29.6928C11.8266 29.7586 11.8664 29.8184 11.9167 29.8687C11.967 29.919 12.0268 29.9588 12.0926 29.9857C12.1585 30.0127 12.229 30.0262 12.3001 30.0256C12.3713 30.025 12.4416 30.0102 12.5069 29.9821C12.5723 29.9541 12.6314 29.9132 12.6808 29.8621L14.1963 28.3465C14.2939 28.2455 14.3479 28.1102 14.3467 27.9697C14.3455 27.8293 14.2891 27.6949 14.1898 27.5956C14.0905 27.4962 13.9561 27.4399 13.8157 27.4387C13.6752 27.4375 13.5393 27.4915 13.4383 27.589ZM30.1065 10.9214L28.591 12.4369C28.5398 12.4863 28.499 12.5454 28.4709 12.6108C28.4429 12.6761 28.4281 12.7464 28.4275 12.8176C28.4268 12.8887 28.4404 12.9592 28.4673 13.0251C28.4943 13.0909 28.5341 13.1507 28.5843 13.201C28.6346 13.2513 28.6945 13.2911 28.7603 13.3181C28.8261 13.345 28.8967 13.3585 28.9678 13.3579C29.0389 13.3573 29.1092 13.3425 29.1746 13.3145C29.24 13.2864 29.2991 13.2456 29.3485 13.1944L30.864 11.6789C30.9152 11.6294 30.956 11.5703 30.9841 11.505C31.0122 11.4396 31.0269 11.3693 31.0276 11.2982C31.0282 11.2271 31.0146 11.1565 30.9877 11.0907C30.9607 11.0248 30.921 10.965 30.8707 10.9147C30.8204 10.8644 30.7606 10.8246 30.6947 10.7977C30.6289 10.7708 30.5583 10.7572 30.4872 10.7578C30.4161 10.7585 30.3458 10.7732 30.2804 10.8013C30.2151 10.8294 30.1559 10.8702 30.1065 10.9214ZM29.349 27.589C29.2486 27.4885 29.1123 27.432 28.9702 27.432C28.8281 27.4319 28.6918 27.4883 28.5913 27.5888C28.4907 27.6892 28.4342 27.8255 28.4342 27.9676C28.4341 28.1097 28.4905 28.246 28.591 28.3465L30.1065 29.8621C30.2076 29.9597 30.3429 30.0137 30.4833 30.0124C30.6238 30.0112 30.7582 29.9549 30.8575 29.8555C30.9568 29.7562 31.0132 29.6219 31.0144 29.4814C31.0156 29.3409 30.9616 29.2056 30.864 29.1046L29.349 27.589ZM34.2508 19.856H32.108C31.9659 19.856 31.8296 19.9124 31.7291 20.0129C31.6287 20.1134 31.5722 20.2496 31.5722 20.3917C31.5722 20.5338 31.6287 20.6701 31.7291 20.7705C31.8296 20.871 31.9659 20.9274 32.108 20.9274H34.2508C34.3929 20.9274 34.5292 20.871 34.6296 20.7705C34.7301 20.6701 34.7865 20.5338 34.7865 20.3917C34.7865 20.2496 34.7301 20.1134 34.6296 20.0129C34.5292 19.9124 34.3929 19.856 34.2508 19.856Z" fill="#A856F7" stroke="#A856F7" stroke-width="0.8"/>
</svg>
