<svg width="45" height="44" viewBox="0 0 45 44" fill="none" xmlns="http://www.w3.org/2000/svg">
<path d="M29.3627 16.5448C29.3627 14.7366 28.6442 13.0026 27.3656 11.724C26.1669 10.5254 24.5681 9.81937 22.8831 9.73574L22.5448 9.72688C20.7366 9.7269 19.0026 10.4454 17.724 11.724C16.4454 13.0026 15.7269 14.7366 15.7269 16.5448L15.7298 16.7524C15.7559 17.7992 16.0073 18.9871 17.3732 20.353L17.7587 20.754C18.589 21.6531 19.3655 22.7567 19.7175 24.136L19.7913 24.4588L19.812 24.5969C19.8784 25.2848 19.4141 25.9252 18.7219 26.0638C18.0297 26.2022 17.3551 25.7898 17.1516 25.1295L17.1169 24.9936L17.0755 24.8119C16.8762 24.03 16.4158 23.3209 15.7609 22.6101L15.4447 22.2814C13.4869 20.3236 13.0512 18.4278 13.0044 16.855L13 16.5448C13 14.0133 14.0055 11.5856 15.7956 9.79557C17.5856 8.00555 20.0133 7.00002 22.5448 7L22.7819 7.00295C25.2275 7.06363 27.56 8.06152 29.2941 9.79557C31.0841 11.5856 32.0896 14.0133 32.0896 16.5448C32.0896 18.6385 31.2905 20.7802 29.6309 22.2955C28.6398 23.2888 28.1695 24.0099 27.9727 24.9936C27.825 25.7319 27.1068 26.2113 26.3685 26.0638C25.63 25.9161 25.1506 25.1973 25.2983 24.4588C25.646 22.7201 26.5362 21.534 27.7172 20.353L27.7689 20.3042L27.9587 20.1233C28.8775 19.1934 29.3627 17.8906 29.3627 16.5448Z" fill="#A856F7"/>
<path d="M26.6366 28.8164L26.7762 28.8231C27.4638 28.8929 28 29.4739 28 30.1798C28 30.8858 27.4638 31.4668 26.7762 31.5366L26.6366 31.5433H18.4552C17.7022 31.5433 17.0918 30.9329 17.0918 30.1798C17.0918 29.4268 17.7022 28.8164 18.4552 28.8164H26.6366Z" fill="#A856F7"/>
<path d="M25.2711 34.2734L25.4107 34.2801C26.0981 34.3501 26.6345 34.931 26.6345 35.6369C26.6345 36.3428 26.0981 36.9237 25.4107 36.9937L25.2711 37.0003H19.8166C19.0635 37.0003 18.4531 36.39 18.4531 35.6369C18.4531 34.8838 19.0635 34.2734 19.8166 34.2734H25.2711Z" fill="#A856F7"/>
</svg>
