<svg width="44" height="44" viewBox="0 0 44 44" fill="none" xmlns="http://www.w3.org/2000/svg">
<path d="M24.211 34.293L24.3493 34.3C25.0315 34.3692 25.5639 34.9454 25.5639 35.6459C25.5639 36.3463 25.0315 36.9226 24.3493 36.9918L24.211 36.9988H18.8002C18.0531 36.9988 17.4473 36.393 17.4473 35.6459C17.4473 34.8988 18.0531 34.293 18.8002 34.293H24.211Z" fill="#A856F7"/>
<path d="M29.5672 17.831C29.5672 15.7792 28.7515 13.8112 27.3007 12.3604C25.9405 11.0003 24.1262 10.1985 22.2141 10.1037L21.831 10.0948C19.7792 10.0948 17.8112 10.9096 16.3604 12.3604C14.9096 13.8112 14.0948 15.7792 14.0948 17.831L14.1073 18.3056C14.1709 19.4344 14.5155 20.7057 15.9622 22.1524L16.3995 22.6066C17.3417 23.6269 18.2239 24.879 18.6233 26.4444L18.706 26.8106L18.7291 26.967C18.8046 27.7478 18.2784 28.4746 17.4927 28.6318C16.7072 28.7889 15.9414 28.3208 15.7107 27.5714L15.6716 27.4177L15.6254 27.2115C15.3992 26.3241 14.8763 25.5196 14.133 24.713L13.774 24.3406C11.5525 22.1192 11.0585 19.9676 11.0053 18.183L11 17.831C11 14.9585 12.141 12.2033 14.1722 10.1722C16.2033 8.14101 18.9585 7 21.831 7L22.3678 7.01333C25.0447 7.14612 27.5848 8.26811 29.489 10.1722C31.5201 12.2033 32.6611 14.9585 32.6611 17.831C32.6611 20.206 31.7551 22.6356 29.8729 24.3548C28.7474 25.4828 28.2129 26.3009 27.9895 27.4177L27.9504 27.5714C27.7196 28.3207 26.9546 28.7887 26.1693 28.6318C25.3313 28.4642 24.7876 27.6485 24.9552 26.8106L25.036 26.448C25.4769 24.6697 26.4428 23.4086 27.6989 22.1524L27.7585 22.0964C28.9401 21.0329 29.5671 19.4598 29.5672 17.831Z" fill="#A856F7"/>
<path d="M26.4736 31.7539L26.6318 31.7619C27.4119 31.8412 28.021 32.5003 28.021 33.3013C28.021 34.1024 27.4119 34.7614 26.6318 34.8407L26.4736 34.8487H17.19C16.3355 34.8487 15.6426 34.1558 15.6426 33.3013C15.6426 32.4468 16.3355 31.7539 17.19 31.7539H26.4736Z" fill="#A856F7"/>
</svg>
