<svg width="44" height="44" viewBox="0 0 44 44" fill="none" xmlns="http://www.w3.org/2000/svg">
<path d="M33.2391 15.7827C33.3714 15.2381 33.4387 14.6868 33.4387 14.1365C33.4387 10.2018 30.2323 7 26.2908 7C23.7342 7 21.3801 8.38037 20.1072 10.5722C19.1552 9.87465 18.0047 9.50047 16.8245 9.50457C13.7561 9.50457 11.26 12.0035 11.26 15.0747C11.26 15.2839 11.2708 15.4881 11.2917 15.686C7.71493 16.096 5 19.0948 5 22.7773C5 26.712 8.199 29.9138 12.1309 29.9138H17.6818C17.7762 29.9896 17.8684 30.067 17.969 30.1406C18.4356 30.4782 18.7194 31.0431 18.7477 31.6957L18.7511 31.7669C18.7511 31.7703 18.7488 31.7731 18.7488 31.7771V34.2613C18.7494 34.5297 18.8531 34.7876 19.0384 34.9817C19.2238 35.1757 19.4766 35.2912 19.7447 35.3041V35.3816C19.7444 35.81 19.9141 36.2211 20.2166 36.5245C20.5191 36.8279 20.9296 36.999 21.358 37H22.5716C23.0007 36.9996 23.4121 36.8289 23.7155 36.5255C24.0189 36.2221 24.1896 35.8107 24.19 35.3816V35.303C24.456 35.2874 24.706 35.171 24.889 34.9774C25.0721 34.7838 25.1744 34.5277 25.1751 34.2613V31.7845L25.1757 31.7811C25.204 31.09 25.5121 30.4787 26.0211 30.1032C26.1059 30.0405 26.1789 29.9771 26.2569 29.9144H31.7869C35.725 29.9144 38.929 26.7131 38.929 22.7778C38.9305 21.1352 38.3652 19.5424 37.3286 18.2681C36.292 16.9939 34.8476 16.1156 33.2391 15.7827ZM24.0441 34.1776H19.8804V32.342H24.0441V34.1776ZM23.059 35.381C23.0589 35.5102 23.0075 35.6341 22.9161 35.7255C22.8247 35.8169 22.7008 35.8683 22.5716 35.8684H21.358C21.2295 35.8675 21.1066 35.8157 21.0161 35.7244C20.9257 35.633 20.8752 35.5095 20.8757 35.381V35.3086H23.0585L23.059 35.381ZM24.1103 31.2088H19.8318C19.6938 30.3933 19.2697 29.6853 18.6335 29.2256C18.4993 29.1293 18.3695 29.027 18.2444 28.9191C17.4338 28.2301 16.8336 27.3269 16.5123 26.3127C16.3032 25.6813 16.2135 25.0165 16.2477 24.3522C16.3506 21.3624 18.8738 18.8878 21.8715 18.8363C23.4187 18.8137 24.8822 19.4001 25.9843 20.4865C27.0865 21.5728 27.6933 23.0233 27.6933 24.5705C27.6933 26.2483 26.9638 27.8333 25.679 28.9298C25.5744 29.0248 25.4641 29.1091 25.3499 29.1934C24.7052 29.6684 24.2698 30.3764 24.1103 31.2088ZM31.7874 28.7828H27.3788C27.3913 28.767 27.4015 28.75 27.4133 28.7342C27.4501 28.6867 27.4823 28.6369 27.518 28.5883C27.7545 28.2634 27.9612 27.9178 28.1355 27.5557C28.1615 27.5014 28.1898 27.4488 28.2146 27.394C28.3051 27.1932 28.3877 26.9885 28.4584 26.7793C28.4714 26.7408 28.481 26.7018 28.4929 26.6633C28.5483 26.4897 28.5975 26.3139 28.6393 26.1357C28.6557 26.0662 28.6693 25.9966 28.6834 25.9265C28.7151 25.7687 28.7411 25.6098 28.7615 25.4492C28.77 25.3819 28.7801 25.3146 28.7869 25.2468C28.8919 24.2276 28.7658 23.198 28.4179 22.2343C28.0701 21.2706 27.5094 20.3978 26.7777 19.6806C25.4579 18.3794 23.693 17.6839 21.8528 17.7048C18.2614 17.7664 15.24 20.7313 15.1167 24.3069C15.0767 25.1048 15.1851 25.9032 15.4362 26.6616C15.5199 26.9286 15.6262 27.1864 15.7427 27.4398C15.8825 27.7473 16.0453 28.0439 16.2296 28.327C16.2511 28.3598 16.2754 28.3904 16.2974 28.4226C16.3806 28.5442 16.4637 28.6663 16.5547 28.7828H12.1297C8.82161 28.7828 6.12986 26.0888 6.12986 22.7773C6.12986 19.4929 8.69494 16.8549 11.9686 16.7712C12.0532 16.7689 12.1363 16.7477 12.2117 16.7091C12.2871 16.6705 12.3528 16.6155 12.4041 16.5481C12.4554 16.4807 12.4909 16.4026 12.508 16.3197C12.5251 16.2367 12.5234 16.151 12.503 16.0688C12.425 15.7433 12.387 15.4094 12.3899 15.0747C12.3899 12.6267 14.3787 10.6356 16.8233 10.6356C17.9809 10.6356 19.0706 11.0727 19.8906 11.8672C19.9558 11.9304 20.0352 11.977 20.1222 12.0031C20.2092 12.0291 20.3012 12.0338 20.3904 12.0168C20.4796 11.9997 20.5633 11.9615 20.6346 11.9052C20.7059 11.849 20.7626 11.7764 20.7999 11.6936C21.7754 9.52945 23.9305 8.13099 26.2897 8.13099C29.6075 8.13099 32.3066 10.825 32.3066 14.1365C32.3066 14.7789 32.1968 15.4247 31.9808 16.0575C31.9533 16.1376 31.9441 16.2229 31.954 16.3071C31.9639 16.3913 31.9926 16.4721 32.038 16.5437C32.0834 16.6152 32.1443 16.6756 32.2163 16.7204C32.2882 16.7651 32.3693 16.7931 32.4536 16.8023C33.9238 16.9653 35.2822 17.6652 36.2684 18.7678C37.2546 19.8703 37.7993 21.298 37.7981 22.7773C37.7981 26.0882 35.1018 28.7828 31.7874 28.7828Z" fill="#A856F7" stroke="#A856F7" stroke-width="0.6"/>
<path d="M25.8888 24.8666C26.1992 24.8338 26.4243 24.5556 26.392 24.2446C26.249 22.8857 25.6038 21.7451 24.5265 20.946C24.4668 20.9018 24.399 20.8698 24.327 20.8517C24.2549 20.8337 24.18 20.8301 24.1066 20.841C24.0331 20.8519 23.9625 20.8772 23.8988 20.9154C23.8351 20.9536 23.7796 21.004 23.7354 21.0636C23.6911 21.1233 23.6591 21.1911 23.6411 21.2632C23.6231 21.3352 23.6194 21.4101 23.6303 21.4836C23.6412 21.557 23.6665 21.6276 23.7047 21.6913C23.7429 21.755 23.7933 21.8106 23.853 21.8548C24.6809 22.4689 25.157 23.3132 25.2673 24.3639C25.275 24.4378 25.2973 24.5094 25.3328 24.5747C25.3682 24.64 25.4162 24.6977 25.474 24.7444C25.5318 24.7912 25.5982 24.8261 25.6694 24.8471C25.7407 24.8682 25.8154 24.875 25.8893 24.8672L25.8888 24.8666ZM22.7265 20.0599C22.586 20.0175 22.4433 19.983 22.299 19.9564C21.9902 19.9033 21.7018 20.1136 21.6498 20.4201C21.5978 20.7266 21.8031 21.0178 22.109 21.071C22.1231 21.0733 22.2357 21.0948 22.4093 21.1456C22.4813 21.1691 22.5573 21.1779 22.6327 21.1714C22.7082 21.1649 22.7816 21.1434 22.8486 21.108C22.9155 21.0726 22.9747 21.0241 23.0226 20.9655C23.0705 20.9068 23.1061 20.8391 23.1273 20.7664C23.1485 20.6937 23.1549 20.6174 23.1461 20.5422C23.1373 20.467 23.1135 20.3943 23.076 20.3285C23.0386 20.2626 22.9883 20.205 22.9282 20.1589C22.8681 20.1129 22.7993 20.0794 22.726 20.0605L22.7265 20.0599ZM21.9456 14.418C21.7956 14.418 21.6518 14.4775 21.5457 14.5836C21.4397 14.6896 21.3801 14.8335 21.3801 14.9835V16.2083C21.3801 16.3583 21.4397 16.5021 21.5457 16.6082C21.6518 16.7142 21.7956 16.7738 21.9456 16.7738C22.0956 16.7738 22.2394 16.7142 22.3454 16.6082C22.4515 16.5021 22.5111 16.3583 22.5111 16.2083V14.9835C22.5111 14.8335 22.4515 14.6896 22.3454 14.5836C22.2394 14.4775 22.0956 14.418 21.9456 14.418ZM31.4917 23.9646H30.2668C30.1168 23.9646 29.973 24.0242 29.8669 24.1303C29.7609 24.2363 29.7013 24.3801 29.7013 24.5301C29.7013 24.6801 29.7609 24.8239 29.8669 24.93C29.973 25.036 30.1168 25.0956 30.2668 25.0956H31.4917C31.6416 25.0956 31.7855 25.036 31.8915 24.93C31.9976 24.8239 32.0572 24.6801 32.0572 24.5301C32.0572 24.3801 31.9976 24.2363 31.8915 24.1303C31.7855 24.0242 31.6416 23.9646 31.4917 23.9646ZM13.6243 23.9646H12.3995C12.2495 23.9646 12.1057 24.0242 11.9996 24.1303C11.8936 24.2363 11.834 24.3801 11.834 24.5301C11.834 24.6801 11.8936 24.8239 11.9996 24.93C12.1057 25.036 12.2495 25.0956 12.3995 25.0956H13.6243C13.7743 25.0956 13.9182 25.036 14.0242 24.93C14.1303 24.8239 14.1898 24.6801 14.1898 24.5301C14.1898 24.3801 14.1303 24.2363 14.0242 24.1303C13.9182 24.0242 13.7743 23.9646 13.6243 23.9646ZM28.2961 17.38L27.4303 18.2464C27.3778 18.2989 27.3361 18.3612 27.3077 18.4298C27.2793 18.4984 27.2647 18.5719 27.2647 18.6462C27.2647 18.7204 27.2793 18.7939 27.3077 18.8625C27.3361 18.9311 27.3778 18.9935 27.4303 19.046C27.4828 19.0985 27.5451 19.1401 27.6137 19.1685C27.6823 19.1969 27.7559 19.2116 27.8301 19.2116C27.9044 19.2116 27.9779 19.1969 28.0465 19.1685C28.1151 19.1401 28.1774 19.0985 28.2299 19.046L29.0957 18.1796C29.2017 18.0736 29.2613 17.9298 29.2613 17.7798C29.2613 17.6299 29.2017 17.4861 29.0957 17.38C28.9896 17.274 28.8458 17.2144 28.6959 17.2144C28.5459 17.2144 28.4021 17.274 28.2961 17.38ZM15.5951 17.38C15.489 17.274 15.3452 17.2144 15.1953 17.2144C15.0453 17.2144 14.9015 17.274 14.7955 17.38C14.6894 17.4861 14.6299 17.6299 14.6299 17.7798C14.6299 17.9298 14.6894 18.0736 14.7955 18.1796L15.6612 19.046C15.7136 19.0987 15.7759 19.1405 15.8445 19.169C15.9132 19.1976 15.9867 19.2122 16.061 19.2122C16.1354 19.2122 16.2089 19.1976 16.2775 19.169C16.3462 19.1405 16.4085 19.0987 16.4609 19.046C16.5134 18.9935 16.5551 18.9312 16.5836 18.8626C16.612 18.794 16.6267 18.7204 16.6267 18.6462C16.6267 18.5719 16.612 18.4984 16.5836 18.4298C16.5551 18.3612 16.5134 18.2988 16.4609 18.2464L15.5951 17.38Z" fill="#A856F7" stroke="#A856F7" stroke-width="0.6"/>
</svg>
