<svg width="44" height="44" viewBox="0 0 44 44" fill="none" xmlns="http://www.w3.org/2000/svg">
<path d="M13.7534 22.2995C13.4021 22.2995 13.113 22.0182 13.1053 21.665C13.0955 21.1944 13.1286 20.7206 13.2031 20.2566C13.2305 20.0868 13.3243 19.9349 13.4637 19.8343C13.6031 19.7336 13.7768 19.6925 13.9465 19.7199C14.1163 19.7473 14.2682 19.8411 14.3688 19.9805C14.4695 20.1199 14.5106 20.2936 14.4832 20.4633C14.4204 20.8515 14.393 21.2446 14.4015 21.6378C14.4033 21.7229 14.3884 21.8075 14.3574 21.8868C14.3265 21.9662 14.2803 22.0386 14.2214 22.1001C14.1624 22.1615 14.092 22.2108 14.014 22.245C13.9361 22.2792 13.8521 22.2977 13.767 22.2995H13.7534ZM14.7081 18.5792C14.5919 18.579 14.4779 18.5476 14.3779 18.4883C14.278 18.4289 14.1959 18.3438 14.1402 18.2419C14.0845 18.1399 14.0572 18.0248 14.0612 17.9086C14.0652 17.7925 14.1004 17.6796 14.163 17.5817L14.5124 17.036C14.5573 16.9622 14.6164 16.8982 14.6864 16.8476C14.7564 16.797 14.8358 16.7609 14.92 16.7415C15.0041 16.722 15.0913 16.7195 15.1763 16.7342C15.2614 16.7489 15.3427 16.7805 15.4155 16.8271C15.4882 16.8736 15.5509 16.9342 15.5999 17.0054C15.6488 17.0765 15.6831 17.1567 15.7006 17.2412C15.7182 17.3258 15.7187 17.413 15.702 17.4977C15.6854 17.5824 15.652 17.663 15.6038 17.7347L15.2545 18.2804C15.1958 18.3721 15.115 18.4475 15.0195 18.4997C14.924 18.5519 14.8169 18.5793 14.7081 18.5792ZM28.0092 22.2995H27.9956C27.9105 22.2977 27.8266 22.2792 27.7486 22.245C27.6706 22.2108 27.6002 22.1615 27.5413 22.1001C27.4823 22.0386 27.4361 21.9662 27.4052 21.8868C27.3743 21.8075 27.3593 21.7229 27.3611 21.6378C27.4136 19.2208 26.1387 17.0638 23.9512 15.8693C21.7709 14.6774 19.2704 14.772 17.2637 16.1214C17.1931 16.1693 17.1138 16.2027 17.0303 16.2198C16.9467 16.2369 16.8606 16.2373 16.7769 16.2211C16.6932 16.2049 16.6135 16.1723 16.5424 16.1252C16.4714 16.0782 16.4102 16.0175 16.3626 15.9468C16.315 15.8761 16.2818 15.7966 16.2649 15.7131C16.2481 15.6295 16.2478 15.5434 16.2643 15.4597C16.2808 15.3761 16.3136 15.2965 16.3608 15.2255C16.4081 15.1545 16.4689 15.0936 16.5397 15.0462C18.9184 13.4446 21.9964 13.3254 24.5728 14.7318C27.1537 16.1422 28.7189 18.7989 28.6574 21.6663C28.6535 21.8356 28.5835 21.9966 28.4623 22.115C28.3412 22.2333 28.1786 22.2996 28.0092 22.2995ZM28.6593 35.7575C28.4874 35.7575 28.3226 35.6892 28.201 35.5676C28.0795 35.4461 28.0112 35.2812 28.0112 35.1093V34.4612C28.0112 34.2893 28.0795 34.1244 28.201 34.0029C28.3226 33.8813 28.4874 33.8131 28.6593 33.8131C28.8312 33.8131 28.9961 33.8813 29.1176 34.0029C29.2392 34.1244 29.3074 34.2893 29.3074 34.4612V35.1093C29.3074 35.2812 29.2392 35.4461 29.1176 35.5676C28.9961 35.6892 28.8312 35.7575 28.6593 35.7575ZM28.6593 38.9982C28.4874 38.9982 28.3226 38.9299 28.201 38.8083C28.0795 38.6868 28.0112 38.5219 28.0112 38.35V37.7019C28.0112 37.53 28.0795 37.3651 28.201 37.2436C28.3226 37.122 28.4874 37.0538 28.6593 37.0538C28.8312 37.0538 28.9961 37.122 29.1176 37.2436C29.2392 37.3651 29.3074 37.53 29.3074 37.7019V38.35C29.3074 38.5219 29.2392 38.6868 29.1176 38.8083C28.9961 38.9299 28.8312 38.9982 28.6593 38.9982ZM37.356 25.0431C37.243 25.0429 37.132 25.0131 37.034 24.9568C36.936 24.9004 36.8544 24.8194 36.7974 24.7218C36.7404 24.6241 36.71 24.5133 36.709 24.4003C36.7081 24.2872 36.7368 24.1759 36.7922 24.0774C36.8732 23.9328 36.9257 23.7766 36.9471 23.6126C36.974 23.4463 37.0648 23.2969 37.2 23.1963C37.3353 23.0957 37.5044 23.0518 37.6715 23.0738C37.8386 23.0958 37.9905 23.182 38.0951 23.3142C38.1997 23.4464 38.2487 23.6141 38.2317 23.7818C38.1889 24.1095 38.0835 24.4259 37.9212 24.7138C37.8647 24.8139 37.7825 24.8971 37.6832 24.955C37.5839 25.0128 37.471 25.0432 37.356 25.0431ZM4.40722 25.0431C4.18037 25.0431 3.9613 24.9245 3.84139 24.7132C3.67916 24.4253 3.57376 24.1088 3.53094 23.7812C3.5085 23.6107 3.55469 23.4384 3.65935 23.302C3.764 23.1656 3.91855 23.0764 4.08898 23.0539C4.25942 23.0315 4.43179 23.0777 4.56817 23.1824C4.70454 23.287 4.79376 23.4416 4.8162 23.612C4.83758 23.7766 4.88944 23.9328 4.9711 24.0767C5.02665 24.1753 5.05544 24.2867 5.05459 24.3998C5.05374 24.5129 5.0233 24.6239 4.96628 24.7216C4.90926 24.8193 4.82765 24.9004 4.72957 24.9568C4.63149 25.0132 4.52036 25.043 4.40722 25.0431ZM8.51643 18.2577C8.41466 18.2577 8.31432 18.2338 8.22353 18.1878C8.13274 18.1418 8.05406 18.0751 7.99385 17.993C7.93364 17.911 7.8936 17.8159 7.87696 17.7155C7.86033 17.6151 7.86757 17.5122 7.8981 17.4151C8.13726 16.6549 8.44513 15.9114 8.81392 15.2043C8.89486 15.0545 9.0315 14.9426 9.1943 14.8927C9.35709 14.8429 9.53298 14.8591 9.68393 14.9378C9.83489 15.0166 9.94879 15.1516 10.001 15.3136C10.0533 15.4757 10.0396 15.6518 9.96307 15.8039C9.62884 16.4448 9.35167 17.1139 9.13475 17.8034C9.0934 17.935 9.01115 18.05 8.89995 18.1317C8.78876 18.2134 8.65441 18.2576 8.51643 18.2577ZM14.8883 10.6531C14.7434 10.6527 14.6029 10.6038 14.489 10.5142C14.3752 10.4247 14.2945 10.2996 14.26 10.1589C14.2255 10.0182 14.2391 9.87002 14.2985 9.73794C14.358 9.60585 14.46 9.49746 14.5882 9.43005C15.2969 9.0611 16.0364 8.75466 16.7984 8.51423C16.8796 8.48869 16.965 8.4794 17.0498 8.48688C17.1346 8.49437 17.2171 8.51848 17.2925 8.55784C17.368 8.5972 17.435 8.65104 17.4896 8.71629C17.5443 8.78154 17.5856 8.85691 17.6111 8.93811C17.6367 9.01931 17.6459 9.10474 17.6385 9.18953C17.631 9.27432 17.6069 9.35681 17.5675 9.43228C17.5281 9.50776 17.4743 9.57474 17.4091 9.6294C17.3438 9.68407 17.2684 9.72534 17.1872 9.75088C16.4976 9.96809 15.8283 10.2453 15.1871 10.5792C15.0949 10.6276 14.9924 10.6529 14.8883 10.6531ZM26.875 10.6531C26.7709 10.6531 26.6684 10.628 26.5762 10.5798C25.9349 10.2459 25.2656 9.96874 24.576 9.75153C24.412 9.69996 24.2753 9.58535 24.1958 9.43293C24.1163 9.28051 24.1006 9.10275 24.1521 8.93876C24.2037 8.77477 24.3183 8.63798 24.4707 8.55849C24.6232 8.47899 24.8009 8.46331 24.9649 8.51488C25.7232 8.75339 26.4667 9.06126 27.1751 9.4307C27.3035 9.4979 27.4057 9.60621 27.4653 9.73832C27.5249 9.87043 27.5385 10.0187 27.504 10.1595C27.4694 10.3002 27.3887 10.4254 27.2747 10.5148C27.1606 10.6043 27.0199 10.653 26.875 10.6531ZM33.2475 18.2577C33.1096 18.2577 32.9752 18.2137 32.864 18.1321C32.7528 18.0505 32.6705 17.9356 32.6292 17.804C32.4121 17.1143 32.1349 16.4451 31.8008 15.8039C31.7213 15.6514 31.7057 15.4736 31.7573 15.3095C31.8089 15.1455 31.9235 15.0087 32.076 14.9292C32.2284 14.8497 32.4063 14.834 32.5703 14.8856C32.7343 14.9372 32.8711 15.0519 32.9506 15.2043C33.32 15.9128 33.6264 16.6524 33.8665 17.4145C33.8971 17.5117 33.9045 17.6147 33.8879 17.7152C33.8712 17.8158 33.8312 17.911 33.7709 17.9931C33.7106 18.0752 33.6318 18.142 33.5408 18.188C33.4499 18.234 33.3494 18.2578 33.2475 18.2577Z" fill="#A856F7" stroke="#A856F7" stroke-width="0.7"/>
<path d="M26.8755 10.6556C26.7472 10.6559 26.6217 10.618 26.5149 10.5468C26.4082 10.4757 26.3249 10.3744 26.2758 10.2558C26.2267 10.1373 26.214 10.0068 26.2391 9.88103C26.2643 9.75521 26.3263 9.63972 26.4173 9.54919L28.1244 7.84199C28.1846 7.78182 28.2561 7.73408 28.3347 7.70152C28.4133 7.66895 28.4976 7.65219 28.5827 7.65219C28.6678 7.65219 28.7521 7.66895 28.8307 7.70152C28.9093 7.73408 28.9807 7.78182 29.0409 7.84199C29.1011 7.90217 29.1488 7.97361 29.1814 8.05223C29.214 8.13086 29.2307 8.21513 29.2307 8.30023C29.2307 8.38533 29.214 8.4696 29.1814 8.54822C29.1488 8.62685 29.1011 8.69829 29.0409 8.75846L27.3337 10.4657C27.2736 10.5259 27.2022 10.5737 27.1235 10.6063C27.0449 10.6389 26.9606 10.6557 26.8755 10.6556ZM32.375 16.155C32.2466 16.1553 32.1211 16.1175 32.0144 16.0463C31.9076 15.9751 31.8244 15.8739 31.7753 15.7553C31.7262 15.6368 31.7134 15.5063 31.7386 15.3805C31.7638 15.2547 31.8258 15.1392 31.9167 15.0487L33.6239 13.3415C33.6841 13.2813 33.7555 13.2335 33.8342 13.201C33.9128 13.1684 33.997 13.1517 34.0821 13.1517C34.1673 13.1517 34.2515 13.1684 34.3301 13.201C34.4088 13.2335 34.4802 13.2813 34.5404 13.3415C34.6006 13.4016 34.6483 13.4731 34.6809 13.5517C34.7134 13.6303 34.7302 13.7146 34.7302 13.7997C34.7302 13.8848 34.7134 13.9691 34.6809 14.0477C34.6483 14.1263 34.6006 14.1978 34.5404 14.2579L32.8332 15.9651C32.7731 16.0254 32.7017 16.0732 32.623 16.1058C32.5444 16.1384 32.4601 16.1551 32.375 16.155ZM34.2507 11.889C34.1512 11.8892 34.053 11.8665 33.9637 11.8225C33.8744 11.7785 33.7965 11.7146 33.736 11.6356C32.8743 10.5132 31.8694 9.50845 30.7468 8.64698C30.6793 8.59515 30.6226 8.53052 30.5801 8.45678C30.5375 8.38305 30.5099 8.30165 30.4988 8.21724C30.4877 8.13283 30.4933 8.04706 30.5153 7.96483C30.5374 7.88259 30.5754 7.80551 30.6272 7.73797C30.6791 7.67043 30.7437 7.61376 30.8174 7.5712C30.8912 7.52864 30.9726 7.50102 31.057 7.48991C31.1414 7.47881 31.2272 7.48444 31.3094 7.50648C31.3916 7.52853 31.4687 7.56655 31.5363 7.61839C32.748 8.54907 33.8329 9.63418 34.7633 10.8461C34.837 10.942 34.8823 11.0565 34.8942 11.1768C34.9062 11.2971 34.8842 11.4183 34.8309 11.5268C34.7776 11.6353 34.695 11.7267 34.5925 11.7907C34.4899 11.8547 34.3715 11.8887 34.2507 11.889Z" fill="#A856F7" stroke="#A856F7" stroke-width="0.7"/>
<path d="M34.0805 14.4483C33.9522 14.4486 33.8267 14.4108 33.7199 14.3396C33.6132 14.2684 33.53 14.1671 33.4809 14.0486C33.4318 13.9301 33.419 13.7996 33.4442 13.6738C33.4693 13.548 33.5313 13.4325 33.6223 13.3419C33.8439 13.1191 33.9773 12.8235 33.9978 12.5099C34.0183 12.1963 33.9245 11.8858 33.7337 11.636C33.6291 11.4996 33.583 11.3271 33.6056 11.1566C33.6281 10.9862 33.7175 10.8316 33.854 10.727C33.9905 10.6224 34.1629 10.5763 34.3334 10.5989C34.5039 10.6214 34.6584 10.7108 34.763 10.8473C35.1443 11.3469 35.3316 11.9677 35.2904 12.5949C35.2492 13.222 34.9821 13.813 34.5387 14.2584C34.4787 14.3188 34.4073 14.3667 34.3286 14.3993C34.25 14.4319 34.1656 14.4486 34.0805 14.4483ZM28.581 8.94886C28.4527 8.94914 28.3272 8.9113 28.2205 8.84013C28.1137 8.76896 28.0305 8.66768 27.9814 8.54913C27.9323 8.43059 27.9195 8.30013 27.9447 8.17432C27.9699 8.0485 28.0319 7.933 28.1228 7.84248C28.5685 7.39937 29.1596 7.13261 29.7868 7.09151C30.414 7.05041 31.0348 7.23774 31.5346 7.61887C31.666 7.72512 31.7506 7.87846 31.7706 8.04622C31.7905 8.21397 31.7442 8.38289 31.6415 8.517C31.5387 8.6511 31.3877 8.73978 31.2205 8.76415C31.0533 8.78852 30.8832 8.74666 30.7465 8.64747C30.4966 8.45655 30.1861 8.36264 29.8723 8.38314C29.5585 8.40364 29.2628 8.53715 29.0399 8.75895C28.9796 8.81919 28.9081 8.86697 28.8294 8.89955C28.7506 8.93213 28.6662 8.94889 28.581 8.94886ZM14.8858 10.6561C14.8007 10.6561 14.7164 10.6394 14.6378 10.6068C14.5591 10.5742 14.4877 10.5264 14.4276 10.4662L12.7204 8.75895C12.6602 8.69878 12.6125 8.62734 12.5799 8.54871C12.5474 8.47009 12.5306 8.38582 12.5306 8.30072C12.5306 8.21562 12.5474 8.13135 12.5799 8.05272C12.6125 7.9741 12.6602 7.90266 12.7204 7.84248C12.7806 7.78231 12.852 7.73457 12.9306 7.702C13.0093 7.66944 13.0935 7.65268 13.1786 7.65268C13.2637 7.65268 13.348 7.66944 13.4266 7.702C13.5053 7.73457 13.5767 7.78231 13.6369 7.84248L15.3441 9.54968C15.435 9.6402 15.497 9.7557 15.5222 9.88152C15.5474 10.0073 15.5346 10.1378 15.4855 10.2563C15.4364 10.3749 15.3532 10.4762 15.2464 10.5473C15.1397 10.6185 15.0142 10.6563 14.8858 10.6561ZM9.38638 16.1555C9.30125 16.1556 9.21695 16.1389 9.13831 16.1063C9.05968 16.0737 8.98825 16.0259 8.92814 15.9656L7.22094 14.2584C7.16077 14.1982 7.11303 14.1268 7.08047 14.0482C7.0479 13.9696 7.03114 13.8853 7.03114 13.8002C7.03114 13.7151 7.0479 13.6308 7.08047 13.5522C7.11303 13.4736 7.16077 13.4021 7.22094 13.3419C7.28112 13.2818 7.35256 13.234 7.43118 13.2015C7.50981 13.1689 7.59408 13.1521 7.67918 13.1521C7.76428 13.1521 7.84855 13.1689 7.92717 13.2015C8.0058 13.234 8.07724 13.2818 8.13741 13.3419L9.84461 15.0491C9.93555 15.1397 9.99754 15.2552 10.0227 15.381C10.0479 15.5068 10.0351 15.6373 9.98602 15.7558C9.93692 15.8743 9.85371 15.9756 9.74695 16.0468C9.64019 16.118 9.51469 16.1558 9.38638 16.1555ZM7.51131 11.8895C7.39033 11.8894 7.27177 11.8556 7.16905 11.7917C7.06632 11.7278 6.98354 11.6364 6.93005 11.5279C6.87657 11.4193 6.85453 11.298 6.86642 11.1776C6.87831 11.0572 6.92366 10.9426 6.99734 10.8466C7.92783 9.6345 9.01296 8.54937 10.2251 7.61887C10.3616 7.51616 10.5332 7.47152 10.7025 7.49465C10.8718 7.51778 11.0251 7.60683 11.129 7.74241C11.233 7.87799 11.2792 8.04915 11.2577 8.21864C11.2361 8.38813 11.1485 8.54225 11.0139 8.64747C9.8915 9.50896 8.88677 10.5137 8.02529 11.636C7.96498 11.7151 7.88719 11.7791 7.79803 11.823C7.70886 11.867 7.61073 11.8897 7.51131 11.8895Z" fill="#A856F7" stroke="#A856F7" stroke-width="0.7"/>
<path d="M7.6801 14.449C7.59497 14.449 7.51067 14.4323 7.43203 14.3997C7.3534 14.3671 7.28197 14.3193 7.22186 14.259C6.77836 13.8135 6.51137 13.2223 6.47038 12.595C6.42938 11.9676 6.61715 11.3467 6.9989 10.8472C7.05016 10.7782 7.11466 10.72 7.18863 10.6761C7.2626 10.6322 7.34456 10.6035 7.42975 10.5916C7.51493 10.5797 7.60163 10.5849 7.6848 10.6068C7.76796 10.6288 7.84592 10.6671 7.91413 10.7195C7.98235 10.7719 8.03946 10.8373 8.08213 10.912C8.1248 10.9867 8.15217 11.0691 8.16266 11.1545C8.17316 11.2398 8.16655 11.3264 8.14323 11.4092C8.11992 11.492 8.08035 11.5693 8.02685 11.6367C7.83611 11.8865 7.74231 12.1969 7.7628 12.5105C7.7833 12.8241 7.9167 13.1197 8.13833 13.3426C8.22927 13.4331 8.29126 13.5486 8.31643 13.6744C8.34161 13.8002 8.32884 13.9307 8.27974 14.0492C8.23064 14.1678 8.14743 14.2691 8.04067 14.3402C7.93391 14.4114 7.80841 14.4492 7.6801 14.449ZM13.1796 8.94949C13.0944 8.94958 13.0101 8.93284 12.9315 8.90025C12.8529 8.86766 12.7814 8.81986 12.7213 8.75958C12.4984 8.53808 12.2028 8.40476 11.8893 8.38426C11.5757 8.36377 11.2653 8.45749 11.0154 8.6481C10.8789 8.75082 10.7073 8.79546 10.538 8.77233C10.3687 8.74919 10.2154 8.66015 10.1115 8.52457C10.0075 8.38898 9.96126 8.21783 9.98283 8.04834C10.0044 7.87885 10.092 7.72473 10.2266 7.61951C10.7263 7.23797 11.3472 7.05039 11.9745 7.09151C12.6018 7.13262 13.1929 7.39963 13.6384 7.84311C13.7294 7.93367 13.7914 8.04923 13.8166 8.17511C13.8417 8.30098 13.8289 8.43149 13.7797 8.55006C13.7306 8.66863 13.6472 8.76991 13.5404 8.84103C13.4335 8.91215 13.3079 8.9499 13.1796 8.94949ZM35.6609 18.2613H33.2466C33.0747 18.2613 32.9099 18.193 32.7883 18.0715C32.6668 17.9499 32.5985 17.7851 32.5985 17.6132C32.5985 17.4413 32.6668 17.2764 32.7883 17.1549C32.9099 17.0333 33.0747 16.965 33.2466 16.965H35.6609C35.8328 16.965 35.9977 17.0333 36.1192 17.1549C36.2408 17.2764 36.3091 17.4413 36.3091 17.6132C36.3091 17.7851 36.2408 17.9499 36.1192 18.0715C35.9977 18.193 35.8328 18.2613 35.6609 18.2613ZM37.5892 24.3486C37.4969 24.3488 37.4056 24.3292 37.3215 24.2912C37.2374 24.2532 37.1624 24.1977 37.1015 24.1283C37.0406 24.059 36.9953 23.9774 36.9685 23.8891C36.9417 23.8008 36.9341 23.7077 36.9462 23.6162C37.1303 22.2132 37.1303 20.7921 36.9462 19.3891C36.9323 19.3034 36.9358 19.2159 36.9563 19.1316C36.9769 19.0474 37.0142 18.9681 37.0659 18.8985C37.1177 18.8289 37.1829 18.7704 37.2577 18.7265C37.3325 18.6825 37.4154 18.6541 37.5014 18.6427C37.5874 18.6314 37.6748 18.6375 37.7584 18.6605C37.842 18.6836 37.9201 18.7232 37.9881 18.7771C38.0562 18.8309 38.1127 18.8978 38.1544 18.9739C38.1961 19.0499 38.2221 19.1336 38.2308 19.2199C38.4304 20.735 38.4304 22.2697 38.2308 23.7848C38.2104 23.9406 38.134 24.0836 38.016 24.1874C37.898 24.2911 37.7463 24.3484 37.5892 24.3486Z" fill="#A856F7" stroke="#A856F7" stroke-width="0.7"/>
<path d="M37.5877 19.9482C37.4307 19.948 37.2791 19.8908 37.1611 19.7872C37.043 19.6836 36.9666 19.5407 36.9461 19.385C36.9044 19.0734 36.7512 18.7874 36.5149 18.5801C36.2786 18.3728 35.9752 18.258 35.6608 18.2572C35.4889 18.2572 35.324 18.1889 35.2025 18.0674C35.0809 17.9458 35.0127 17.781 35.0127 17.6091C35.0127 17.4372 35.0809 17.2723 35.2025 17.1508C35.324 17.0292 35.4889 16.9609 35.6608 16.9609C36.2893 16.9627 36.8959 17.192 37.3685 17.6064C37.841 18.0208 38.1475 18.5923 38.2313 19.2152C38.2434 19.3067 38.2358 19.3999 38.209 19.4882C38.1822 19.5766 38.1368 19.6583 38.0758 19.7277C38.0149 19.7971 37.9398 19.8527 37.8556 19.8907C37.7714 19.9288 37.6801 19.9484 37.5877 19.9482ZM8.51477 18.2572H6.10046C5.92856 18.2572 5.7637 18.1889 5.64215 18.0674C5.5206 17.9458 5.45232 17.781 5.45232 17.6091C5.45232 17.4372 5.5206 17.2723 5.64215 17.1508C5.7637 17.0292 5.92856 16.9609 6.10046 16.9609H8.51477C8.68667 16.9609 8.85153 17.0292 8.97308 17.1508C9.09463 17.2723 9.16291 17.4372 9.16291 17.6091C9.16291 17.781 9.09463 17.9458 8.97308 18.0674C8.85153 18.1889 8.68667 18.2572 8.51477 18.2572ZM4.17224 24.3445C4.01511 24.3443 3.86341 24.287 3.74537 24.1833C3.62734 24.0795 3.55101 23.9365 3.53058 23.7807C3.33095 22.2656 3.33095 20.7309 3.53058 19.2158C3.54169 19.1314 3.56931 19.05 3.61187 18.9763C3.65442 18.9026 3.71108 18.838 3.77861 18.7862C3.84614 18.7344 3.92321 18.6963 4.00543 18.6743C4.08765 18.6523 4.1734 18.6467 4.25779 18.6578C4.34219 18.6689 4.42356 18.6965 4.49728 18.7391C4.571 18.7816 4.63561 18.8383 4.68743 18.9058C4.73925 18.9733 4.77726 19.0504 4.79929 19.1326C4.82133 19.2148 4.82695 19.3006 4.81584 19.385C4.63112 20.788 4.63112 22.2091 4.81584 23.6121C4.82784 23.7037 4.82015 23.7967 4.79329 23.885C4.76642 23.9733 4.721 24.0549 4.66007 24.1242C4.59913 24.1936 4.52409 24.2491 4.43996 24.2871C4.35583 24.3251 4.26455 24.3447 4.17224 24.3445Z" fill="#A856F7" stroke="#A856F7" stroke-width="0.7"/>
<path d="M4.17449 19.9496C4.08218 19.9497 3.99091 19.9301 3.90677 19.8921C3.82264 19.8542 3.7476 19.7986 3.68666 19.7293C3.62573 19.6599 3.58031 19.5784 3.55344 19.4901C3.52658 19.4018 3.51889 19.3087 3.53089 19.2172C3.61426 18.5942 3.92054 18.0224 4.39302 17.6079C4.8655 17.1933 5.47219 16.964 6.10076 16.9623C6.27266 16.9623 6.43752 17.0306 6.55907 17.1521C6.68062 17.2737 6.7489 17.4386 6.7489 17.6104C6.7489 17.7823 6.68062 17.9472 6.55907 18.0688C6.43752 18.1903 6.27266 18.2586 6.10076 18.2586C5.45262 18.2586 4.90041 18.7434 4.81615 19.3857C4.79572 19.5415 4.71939 19.6846 4.60136 19.7883C4.48332 19.892 4.33163 19.9493 4.17449 19.9496ZM24.7698 9.78157C24.5979 9.78157 24.433 9.71328 24.3115 9.59173C24.1899 9.47018 24.1216 9.30533 24.1216 9.13343V6.71976C24.1216 6.54786 24.1899 6.383 24.3115 6.26145C24.433 6.1399 24.5979 6.07162 24.7698 6.07162C24.9417 6.07162 25.1065 6.1399 25.2281 6.26145C25.3496 6.383 25.4179 6.54786 25.4179 6.71976V9.13408C25.4179 9.21916 25.4011 9.30341 25.3686 9.38201C25.336 9.46061 25.2882 9.53202 25.228 9.59215C25.1678 9.65229 25.0964 9.69997 25.0178 9.73247C24.9391 9.76497 24.8549 9.78165 24.7698 9.78157ZM16.9921 9.78157C16.8202 9.78157 16.6553 9.71328 16.5338 9.59173C16.4122 9.47018 16.344 9.30533 16.344 9.13343V6.71976C16.344 6.54786 16.4122 6.383 16.5338 6.26145C16.6553 6.1399 16.8202 6.07162 16.9921 6.07162C17.164 6.07162 17.3289 6.1399 17.4504 6.26145C17.572 6.383 17.6402 6.54786 17.6402 6.71976V9.13408C17.6401 9.30586 17.5717 9.47055 17.4502 9.59196C17.3286 9.71337 17.1639 9.78157 16.9921 9.78157ZM23.0801 5.43968C23.0522 5.43968 23.0237 5.43774 22.9952 5.4345C21.5922 5.24978 20.171 5.24978 18.768 5.4345C18.5977 5.45589 18.4259 5.4093 18.2898 5.30483C18.1537 5.20036 18.0642 5.04644 18.0408 4.87645C18.0297 4.79206 18.0353 4.7063 18.0573 4.62408C18.0794 4.54186 18.1174 4.46479 18.1692 4.39726C18.221 4.32973 18.2856 4.27307 18.3593 4.23051C18.4331 4.18796 18.5144 4.16034 18.5988 4.14924C20.114 3.95025 21.6486 3.95025 23.1637 4.14924C23.3283 4.16873 23.4792 4.25062 23.5852 4.37804C23.6913 4.50545 23.7444 4.66868 23.7337 4.8341C23.723 4.99952 23.6492 5.15453 23.5276 5.26719C23.406 5.37985 23.2458 5.44159 23.0801 5.43968Z" fill="#A856F7" stroke="#A856F7" stroke-width="0.7"/>
<path d="M16.9918 7.36437C16.8199 7.36437 16.655 7.29609 16.5335 7.17454C16.4119 7.05299 16.3437 6.88813 16.3437 6.71623C16.3437 5.41995 17.3133 4.31423 18.5985 4.14571C18.7688 4.12432 18.9406 4.17091 19.0767 4.27538C19.2129 4.37985 19.3023 4.53377 19.3257 4.70376C19.3369 4.78815 19.3312 4.87391 19.3092 4.95613C19.2872 5.03835 19.2492 5.11542 19.1973 5.18295C19.1455 5.25048 19.0809 5.30714 19.0072 5.3497C18.9335 5.39225 18.8521 5.41987 18.7677 5.43097C18.1247 5.51523 17.6399 6.06809 17.6399 6.71623C17.6399 6.88813 17.5716 7.05299 17.4501 7.17454C17.3285 7.29609 17.1637 7.36437 16.9918 7.36437ZM24.7695 7.36437C24.5976 7.36437 24.4327 7.29609 24.3112 7.17454C24.1896 7.05299 24.1213 6.88813 24.1213 6.71623C24.1213 6.06809 23.6372 5.51523 22.9942 5.43097C22.6397 5.38431 22.3895 5.05894 22.4368 4.70376C22.4841 4.34858 22.7985 4.10294 23.164 4.14571C23.7869 4.22938 24.3584 4.53588 24.7727 5.00847C25.1871 5.48106 25.4161 6.08774 25.4176 6.71623C25.4176 6.88813 25.3493 7.05299 25.2278 7.17454C25.1062 7.29609 24.9414 7.36437 24.7695 7.36437ZM37.7323 38.9955H4.029C3.8571 38.9955 3.69224 38.9272 3.5707 38.8057C3.44915 38.6841 3.38086 38.5193 3.38086 38.3474C3.38086 38.1755 3.44915 38.0106 3.5707 37.8891C3.69224 37.7675 3.8571 37.6993 4.029 37.6993H37.7323C37.9042 37.6993 38.069 37.7675 38.1906 37.8891C38.3121 38.0106 38.3804 38.1755 38.3804 38.3474C38.3804 38.5193 38.3121 38.6841 38.1906 38.8057C38.069 38.9272 37.9042 38.9955 37.7323 38.9955ZM28.2889 30.8601C28.123 30.8588 27.9639 30.794 27.8444 30.679C27.7249 30.564 27.654 30.4075 27.6463 30.2418C27.6387 30.0761 27.6949 29.9138 27.8033 29.7883C27.9117 29.6627 28.0642 29.5836 28.2292 29.567C28.3414 29.5567 28.4535 29.5515 28.5663 29.5515C28.7382 29.5515 28.903 29.6198 29.0246 29.7413C29.1461 29.8629 29.2144 30.0277 29.2144 30.1996C29.2144 30.3715 29.1461 30.5364 29.0246 30.6579C28.903 30.7795 28.7382 30.8478 28.5663 30.8478C28.4943 30.8478 28.4211 30.851 28.3498 30.8575C28.3295 30.8593 28.3092 30.8602 28.2889 30.8601ZM13.473 30.8601C13.4529 30.8602 13.4328 30.8593 13.4128 30.8575C13.3408 30.851 13.2686 30.8478 13.1963 30.8478C13.0244 30.8478 12.8595 30.7795 12.738 30.6579C12.6164 30.5364 12.5481 30.3715 12.5481 30.1996C12.5481 30.0277 12.6164 29.8629 12.738 29.7413C12.8595 29.6198 13.0244 29.5515 13.1963 29.5515C13.3084 29.5515 13.4205 29.5567 13.5327 29.567C13.7006 29.5798 13.8569 29.6575 13.9685 29.7836C14.0801 29.9097 14.1382 30.0743 14.1305 30.2425C14.1227 30.4107 14.0497 30.5693 13.927 30.6846C13.8042 30.7999 13.6414 30.8628 13.473 30.8601Z" fill="#A856F7" stroke="#A856F7" stroke-width="0.7"/>
<path d="M4.029 38.9981C3.8571 38.9981 3.69224 38.9298 3.5707 38.8083C3.44915 38.6867 3.38086 38.5218 3.38086 38.3499V33.2575C3.38086 33.0856 3.44915 32.9208 3.5707 32.7992C3.69224 32.6777 3.8571 32.6094 4.029 32.6094C4.2009 32.6094 4.36575 32.6777 4.4873 32.7992C4.60885 32.9208 4.67714 33.0856 4.67714 33.2575V38.3499C4.67714 38.5218 4.60885 38.6867 4.4873 38.8083C4.36575 38.9298 4.2009 38.9981 4.029 38.9981Z" fill="#A856F7" stroke="#A856F7" stroke-width="0.7"/>
<path d="M4.029 33.9063C3.8571 33.9063 3.69224 33.838 3.5707 33.7165C3.44915 33.5949 3.38086 33.4301 3.38086 33.2582C3.38189 32.2763 3.77241 31.3349 4.46672 30.6405C5.16103 29.9462 6.10242 29.5557 7.08433 29.5547C7.25623 29.5547 7.42108 29.623 7.54263 29.7445C7.66418 29.8661 7.73247 30.0309 7.73247 30.2028C7.73247 30.3747 7.66418 30.5396 7.54263 30.6611C7.42108 30.7827 7.25623 30.851 7.08433 30.851C6.44611 30.8517 5.83423 31.1055 5.38295 31.5568C4.93166 32.0081 4.67782 32.6199 4.67714 33.2582C4.67714 33.4301 4.60885 33.5949 4.4873 33.7165C4.36575 33.838 4.2009 33.9063 4.029 33.9063Z" fill="#A856F7" stroke="#A856F7" stroke-width="0.7"/>
<path d="M13.1969 30.851H7.08564C6.91374 30.851 6.74889 30.7827 6.62734 30.6611C6.50579 30.5396 6.4375 30.3747 6.4375 30.2028C6.4375 30.0309 6.50579 29.8661 6.62734 29.7445C6.74889 29.623 6.91374 29.5547 7.08564 29.5547H13.1969C13.3688 29.5547 13.5337 29.623 13.6553 29.7445C13.7768 29.8661 13.8451 30.0309 13.8451 30.2028C13.8451 30.3747 13.7768 30.5396 13.6553 30.6611C13.5337 30.7827 13.3688 30.851 13.1969 30.851Z" fill="#A856F7" stroke="#A856F7" stroke-width="0.7"/>
<path d="M10.1406 30.8477C7.85725 30.8477 5.92773 28.9182 5.92773 26.6348C5.92773 24.3514 7.85725 22.4219 10.1406 22.4219C12.424 22.4219 14.3536 24.3514 14.3536 26.6348C14.3536 28.9182 12.424 30.8477 10.1406 30.8477ZM10.1406 23.7182C8.55983 23.7182 7.22401 25.054 7.22401 26.6348C7.22401 28.2156 8.55983 29.5514 10.1406 29.5514C11.7215 29.5514 13.0573 28.2156 13.0573 26.6348C13.0573 25.054 11.7215 23.7182 10.1406 23.7182ZM37.7326 38.9955C37.5607 38.9955 37.3958 38.9272 37.2743 38.8056C37.1527 38.6841 37.0845 38.5192 37.0845 38.3473V33.2549C37.0845 33.083 37.1527 32.9181 37.2743 32.7966C37.3958 32.675 37.5607 32.6067 37.7326 32.6067C37.9045 32.6067 38.0693 32.675 38.1909 32.7966C38.3124 32.9181 38.3807 33.083 38.3807 33.2549V38.3473C38.3807 38.5192 38.3124 38.6841 38.1909 38.8056C38.0693 38.9272 37.9045 38.9955 37.7326 38.9955Z" fill="#A856F7" stroke="#A856F7" stroke-width="0.7"/>
<path d="M37.7328 33.9063C37.5609 33.9063 37.396 33.838 37.2745 33.7165C37.1529 33.5949 37.0846 33.4301 37.0846 33.2582C37.0839 32.6199 36.8301 32.0081 36.3788 31.5568C35.9275 31.1055 35.3157 30.8517 34.6774 30.851C34.5055 30.851 34.3407 30.7827 34.2191 30.6611C34.0976 30.5396 34.0293 30.3747 34.0293 30.2028C34.0293 30.0309 34.0976 29.8661 34.2191 29.7445C34.3407 29.623 34.5055 29.5547 34.6774 29.5547C35.6593 29.5557 36.6007 29.9462 37.295 30.6405C37.9894 31.3349 38.3799 32.2763 38.3809 33.2582C38.3809 33.4301 38.3126 33.5949 38.1911 33.7165C38.0695 33.838 37.9047 33.9063 37.7328 33.9063Z" fill="#A856F7" stroke="#A856F7" stroke-width="0.7"/>
<path d="M34.6774 30.851H28.5661C28.3942 30.851 28.2294 30.7827 28.1078 30.6611C27.9863 30.5396 27.918 30.3747 27.918 30.2028C27.918 30.0309 27.9863 29.8661 28.1078 29.7445C28.2294 29.623 28.3942 29.5547 28.5661 29.5547H34.6774C34.8493 29.5547 35.0142 29.623 35.1357 29.7445C35.2573 29.8661 35.3256 30.0309 35.3256 30.2028C35.3256 30.3747 35.2573 30.5396 35.1357 30.6611C35.0142 30.7827 34.8493 30.851 34.6774 30.851Z" fill="#A856F7" stroke="#A856F7" stroke-width="0.7"/>
<path d="M31.6192 30.8477C29.3358 30.8477 27.4062 28.9182 27.4062 26.6348C27.4062 24.3514 29.3358 22.4219 31.6192 22.4219C33.9026 22.4219 35.8321 24.3514 35.8321 26.6348C35.8321 28.9182 33.9032 30.8477 31.6192 30.8477ZM31.6192 23.7182C30.0383 23.7182 28.7025 25.054 28.7025 26.6348C28.7025 28.2156 30.0383 29.5514 31.6192 29.5514C33.2 29.5514 34.5358 28.2156 34.5358 26.6348C34.5358 25.054 33.2006 23.7182 31.6192 23.7182Z" fill="#A856F7" stroke="#A856F7" stroke-width="0.7"/>
<path d="M28.6586 32.5132C28.4867 32.5132 28.3218 32.445 28.2003 32.3234C28.0787 32.2019 28.0104 32.037 28.0104 31.8651C28.0104 30.0782 26.5567 28.6244 24.7697 28.6244C24.5978 28.6244 24.433 28.5561 24.3114 28.4346C24.1899 28.313 24.1216 28.1482 24.1216 27.9763C24.1216 27.8044 24.1899 27.6395 24.3114 27.518C24.433 27.3964 24.5978 27.3281 24.7697 27.3281C27.2709 27.3281 29.3067 29.3633 29.3067 31.8651C29.3067 32.037 29.2384 32.2019 29.1169 32.3234C28.9953 32.445 28.8305 32.5132 28.6586 32.5132ZM13.1032 32.5132C12.9313 32.5132 12.7665 32.445 12.6449 32.3234C12.5234 32.2019 12.4551 32.037 12.4551 31.8651C12.4551 29.3633 14.4902 27.3281 16.9921 27.3281C17.164 27.3281 17.3288 27.3964 17.4504 27.518C17.5719 27.6395 17.6402 27.8044 17.6402 27.9763C17.6402 28.1482 17.5719 28.313 17.4504 28.4346C17.3288 28.5561 17.164 28.6244 16.9921 28.6244C15.2051 28.6244 13.7514 30.0782 13.7514 31.8651C13.7514 32.037 13.6831 32.2019 13.5615 32.3234C13.44 32.445 13.2751 32.5132 13.1032 32.5132Z" fill="#A856F7" stroke="#A856F7" stroke-width="0.7"/>
<path d="M13.1032 38.9946C12.9313 38.9946 12.7665 38.9264 12.6449 38.8048C12.5234 38.6833 12.4551 38.5184 12.4551 38.3465V31.8651C12.4551 31.6932 12.5234 31.5283 12.6449 31.4068C12.7665 31.2852 12.9313 31.217 13.1032 31.217C13.2751 31.217 13.44 31.2852 13.5615 31.4068C13.6831 31.5283 13.7514 31.6932 13.7514 31.8651V38.3465C13.7514 38.5184 13.6831 38.6833 13.5615 38.8048C13.44 38.9264 13.2751 38.9946 13.1032 38.9946ZM24.7697 28.6244H16.9921C16.8202 28.6244 16.6553 28.5561 16.5338 28.4346C16.4122 28.313 16.3439 28.1482 16.3439 27.9763C16.3439 27.8044 16.4122 27.6395 16.5338 27.518C16.6553 27.3964 16.8202 27.3281 16.9921 27.3281H24.7697C24.9416 27.3281 25.1065 27.3964 25.228 27.518C25.3496 27.6395 25.4179 27.8044 25.4179 27.9763C25.4179 28.1482 25.3496 28.313 25.228 28.4346C25.1065 28.5561 24.9416 28.6244 24.7697 28.6244Z" fill="#A856F7" stroke="#A856F7" stroke-width="0.7"/>
<path d="M20.8804 28.628C18.0701 28.628 15.6953 26.2533 15.6953 23.4429C15.6953 20.6326 18.0701 18.2578 20.8804 18.2578C23.6914 18.2578 26.0655 20.6326 26.0655 23.4429C26.0655 26.2533 23.6914 28.628 20.8804 28.628ZM20.8804 19.5541C18.7727 19.5541 16.9916 21.3352 16.9916 23.4429C16.9916 25.5507 18.7727 27.3318 20.8804 27.3318C22.9882 27.3318 24.7693 25.5507 24.7693 23.4429C24.7693 21.3352 22.9882 19.5541 20.8804 19.5541Z" fill="#A856F7" stroke="#A856F7" stroke-width="0.7"/>
</svg>
