<svg width="44" height="44" viewBox="0 0 44 44" fill="none" xmlns="http://www.w3.org/2000/svg">
<path d="M35.0003 11.4996C35.0001 10.6713 34.328 9.99971 33.4996 9.99971H9.49956C8.67137 9.99987 7.99987 10.6714 7.99971 11.4996V26.4997C7.99971 27.328 8.67127 27.9994 9.49956 27.9996H33.4996C34.3281 27.9996 35.0003 27.3281 35.0003 26.4997V11.4996ZM38 26.4997C38 28.985 35.9849 31.0001 33.4996 31.0001H9.49956C7.01441 30.9999 5 28.9849 5 26.4997V11.4996C5.00016 9.01451 7.01451 7.00016 9.49956 7H33.4996C35.9848 7 37.9999 9.01441 38 11.4996V26.4997Z" fill="#A856F7"/>
<path d="M27.4995 34L27.653 34.0073C28.4095 34.084 29.0002 34.7231 29.0002 35.4999C29.0002 36.2766 28.4095 36.9157 27.653 36.9924L27.4995 36.9997H15.4999C14.6714 36.9997 14 36.3283 14 35.4999C14 34.6714 14.6714 34 15.4999 34H27.4995Z" fill="#A856F7"/>
<path d="M20 35.5001V29.4999C20 28.6714 20.6714 28 21.4999 28C22.3283 28 22.9997 28.6714 22.9997 29.4999V35.5001C22.9996 36.3284 22.3282 36.9999 21.4999 36.9999C20.6715 36.9999 20.0001 36.3284 20 35.5001Z" fill="#A856F7"/>
</svg>
