<svg width="40" height="40" viewBox="0 0 40 40" fill="none" xmlns="http://www.w3.org/2000/svg">
<path d="M30.002 11.9909V5.21193C30.002 1.2996 20.6449 0.253906 15.128 0.253906C9.61104 0.253906 0.253906 1.2996 0.253906 5.21193V26.8469C0.253906 30.7773 9.46681 31.5706 12.7842 31.7328C15.164 36.0598 19.7615 39.0166 25.044 39.0166C32.7425 39.0166 39.0166 32.7425 39.0166 25.044C39.0166 19.0944 35.2665 14.0102 30.002 11.9909ZM25.044 11.0714C19.8156 11.0714 15.2722 13.9561 12.8743 18.211C6.78046 17.9405 3.40901 16.6244 2.95828 15.9573V8.25886C6.13141 9.71922 11.468 10.188 15.146 10.188C18.8239 10.188 24.1426 9.71922 27.3157 8.25886V11.2878C26.5765 11.1616 25.8373 11.0894 25.062 11.0894L25.044 11.0714ZM27.2436 5.15784C26.5945 6.02324 22.2134 7.46557 15.128 7.46557C8.04251 7.46557 3.5893 6.00521 3.01237 5.26602C3.67945 4.40062 8.06054 2.95828 15.128 2.95828C22.1954 2.95828 26.6666 4.41864 27.2436 5.15784ZM2.95828 26.8469V19.0944C5.50039 20.2483 9.30455 20.699 11.7205 20.8612C11.3058 22.1774 11.0714 23.5836 11.0714 25.044C11.0714 26.3962 11.2697 27.6943 11.6303 28.9383C6.23959 28.5417 3.26478 27.3517 2.95828 26.8469ZM25.044 36.3122C18.8239 36.3122 13.7758 31.2641 13.7758 25.044C13.7758 18.8239 18.8239 13.7758 25.044 13.7758C31.2641 13.7758 36.3122 18.8239 36.3122 25.044C36.3122 31.2641 31.2641 36.3122 25.044 36.3122ZM22.9887 21.4923L19.4369 25.044L22.9887 28.5958C23.5115 29.1186 23.5115 29.984 22.9887 30.5069C22.7182 30.7773 22.3757 30.9035 22.0331 30.9035C21.6906 30.9035 21.348 30.7773 21.0776 30.5069L16.5703 25.9996C16.3188 25.7451 16.1778 25.4018 16.1778 25.044C16.1778 24.6863 16.3188 24.3429 16.5703 24.0885L21.0776 19.5812C21.6004 19.0583 22.4658 19.0583 22.9887 19.5812C23.5115 20.104 23.5115 20.9694 22.9887 21.4923ZM33.4997 25.9996L28.9924 30.5069C28.722 30.7773 28.3794 30.9035 28.0369 30.9035C27.6943 30.9035 27.3517 30.7773 27.0813 30.5069C26.8298 30.2524 26.6888 29.9091 26.6888 29.5513C26.6888 29.1936 26.8298 28.8502 27.0813 28.5958L30.6331 25.044L27.0813 21.4923C26.5585 20.9694 26.5585 20.104 27.0813 19.5812C27.6042 19.0583 28.4696 19.0583 28.9924 19.5812L33.4997 24.0885C34.0225 24.6113 34.0225 25.4767 33.4997 25.9996Z" fill="#A856F7"/>
</svg>
