<svg width="44" height="44" viewBox="0 0 44 44" fill="none" xmlns="http://www.w3.org/2000/svg">
<g clip-path="url(#clip0_49_2)">
<path d="M36.0517 16.255C34.0519 8.28832 25.9725 3.45123 18.0058 5.45107C11.78 7.01394 7.25936 12.3948 6.79359 18.7968C2.37301 19.5258 -0.619646 23.7003 0.109357 28.1209C0.757407 32.0508 4.16269 34.9289 8.14563 34.9131H14.9058V32.209H8.14563C5.1588 32.209 2.73747 29.7877 2.73747 26.8009C2.73747 23.8141 5.1588 21.3927 8.14563 21.3927C8.89237 21.3927 9.49767 20.7874 9.49767 20.0407C9.49091 13.3203 14.9335 7.86683 21.6539 7.86015C27.4713 7.85432 32.4792 11.9671 33.6045 17.6746C33.6587 17.9525 33.7988 18.2064 34.005 18.4005C34.2112 18.5946 34.4731 18.719 34.7538 18.7562C38.4501 19.2826 41.0197 22.7057 40.4934 26.4019C40.0208 29.721 37.1869 32.1923 33.8344 32.209H28.4262V34.9131H33.8344C39.0614 34.8973 43.2858 30.6472 43.2699 25.4202C43.2567 21.0692 40.2785 17.2876 36.0517 16.255Z" fill="#3C83F6"/>
<path d="M20.7061 21.7849L15.2979 27.1931L17.2043 29.0994L20.314 26.0033V38.9693H23.0181V26.0033L26.1142 29.0994L28.0206 27.1931L22.6124 21.7849C22.0851 21.2607 21.2335 21.2607 20.7061 21.7849Z" fill="#3C83F6"/>
</g>
<defs>
<clipPath id="clip0_49_2">
<rect width="43.27" height="43.27" fill="white"/>
</clipPath>
</defs>
</svg>
