<svg width="44" height="44" viewBox="0 0 44 44" fill="none" xmlns="http://www.w3.org/2000/svg">
<path d="M38.6922 29.4616L35.1059 27.6683L32.8235 21.7307C32.7966 21.6605 32.7556 21.5966 32.7029 21.543C32.6502 21.4893 32.5871 21.4472 32.5174 21.419L18.3555 15.7575C18.2564 15.7181 18.1481 15.7085 18.0436 15.7299C17.9392 15.7512 17.8433 15.8026 17.7678 15.8778L15.879 17.7668C15.8048 17.8424 15.7542 17.938 15.7334 18.0419C15.7125 18.1457 15.7223 18.2534 15.7614 18.3518L21.4224 32.5152C21.4505 32.5849 21.4926 32.6481 21.5463 32.7007C21.5999 32.7534 21.6638 32.7945 21.734 32.8214L27.671 35.104L29.4641 38.6906C29.5019 38.7697 29.5581 38.8386 29.628 38.8914C29.6979 38.9442 29.7795 38.9794 29.8659 38.9941C29.895 38.9968 29.9243 38.9968 29.9534 38.9941C30.0982 38.9935 30.2368 38.9355 30.3388 38.8328L38.8343 30.3364C38.8968 30.2761 38.9441 30.2017 38.9721 30.1194C39.0002 30.0372 39.0082 29.9495 38.9956 29.8635C38.9809 29.7771 38.9457 29.6955 38.8929 29.6255C38.8401 29.5556 38.7712 29.4994 38.6922 29.4616ZM16.9067 18.2807L17.2102 17.98L24.2597 25.0303C23.7951 25.6887 23.5944 26.4974 23.6974 27.2967C23.8004 28.0959 24.1994 28.8274 24.8157 29.3465C25.432 29.8656 26.2206 30.1346 27.0256 30.1001C27.8306 30.0657 28.5934 29.7305 29.1632 29.1607C29.7329 28.5909 30.0682 27.828 30.1026 27.0229C30.137 26.2178 29.8681 25.4291 29.349 24.8127C28.8299 24.1964 28.0985 23.7973 27.2994 23.6943C26.5002 23.5913 25.6915 23.792 25.0332 24.2566L17.9837 17.2064L18.2844 16.9029L31.8887 22.3458L34.0344 27.928L27.9307 34.0324L22.349 31.8864L16.9067 18.2807ZM26.8865 24.7596C27.3778 24.7604 27.8537 24.9314 28.2331 25.2437C28.6124 25.556 28.8718 25.9901 28.967 26.4722C29.0622 26.9543 28.9873 27.4544 28.7551 27.8875C28.5229 28.3206 28.1478 28.6597 27.6936 28.8472C27.2394 29.0346 26.7343 29.0588 26.2643 28.9156C25.7943 28.7724 25.3885 28.4707 25.116 28.0618C24.8435 27.6529 24.7212 27.1622 24.7699 26.6732C24.8186 26.1842 25.0353 25.7273 25.3831 25.3802C25.7822 24.9823 26.3229 24.7591 26.8865 24.7596ZM30.1037 37.5233L28.737 34.7896L34.7861 28.7399L37.5195 30.1068L30.1037 37.5233Z" fill="#3C83F6" stroke="#3C83F6" stroke-width="0.8"/>
<path d="M14.4635 33.2592C14.3589 33.1604 14.2205 33.1053 14.0767 33.1053C13.9328 33.1053 13.7944 33.1604 13.6899 33.2592L12.9956 33.9536C11.1428 31.4387 10.1207 28.4084 10.0717 25.285C10.0227 22.1615 10.9493 19.1007 12.7223 16.5289C13.2534 16.8212 13.865 16.9335 14.4654 16.8489C15.0658 16.7644 15.6226 16.4875 16.0524 16.0598C16.4822 15.6321 16.7618 15.0767 16.8494 14.4767C16.9369 13.8767 16.8277 13.2645 16.5381 12.7318C19.1096 10.9586 22.1702 10.0319 25.2933 10.0809C28.4164 10.1299 31.4464 11.1522 33.961 13.0051L33.2558 13.6913C33.1541 13.7938 33.0971 13.9324 33.0972 14.0767C33.0968 14.1487 33.1106 14.22 33.1378 14.2866C33.165 14.3533 33.2051 14.4138 33.2558 14.4649L35.6667 16.8569C35.7691 16.9588 35.9076 17.0159 36.0521 17.0159C36.1965 17.0159 36.3351 16.9588 36.4375 16.8569L38.8347 14.4595C38.8855 14.4087 38.9258 14.3484 38.9534 14.282C38.9809 14.2156 38.995 14.1445 38.995 14.0726C38.995 14.0008 38.9809 13.9296 38.9534 13.8633C38.9258 13.7969 38.8855 13.7366 38.8347 13.6858L36.4375 11.2884C36.3351 11.1865 36.1965 11.1294 36.0521 11.1294C35.9076 11.1294 35.7691 11.1865 35.6667 11.2884L34.74 12.2096C32.4563 10.4909 29.7562 9.41111 26.9172 9.08106C24.0782 8.75101 21.2025 9.18262 18.5855 10.3316L21.7371 7.18779C22.0945 7.35856 22.5007 7.39721 22.8839 7.2969C23.267 7.19658 23.6022 6.96378 23.8301 6.63979C24.0579 6.3158 24.1636 5.92157 24.1285 5.52704C24.0933 5.13252 23.9196 4.76319 23.6381 4.48459C23.3565 4.20599 22.9854 4.03613 22.5906 4.00514C22.1958 3.97415 21.8027 4.08403 21.4812 4.3153C21.1597 4.54656 20.9304 4.88426 20.8342 5.26847C20.7379 5.65269 20.7808 6.05858 20.9553 6.41415L15.6361 11.7422C15.096 11.3798 14.4469 11.2163 13.7996 11.2795C13.1524 11.3426 12.5471 11.6286 12.0872 12.0885C11.6274 12.5484 11.3415 13.1537 11.2783 13.801C11.2151 14.4484 11.3787 15.0976 11.741 15.6377L6.4135 20.9575C6.05658 20.7836 5.64956 20.7418 5.26476 20.8397C4.87996 20.9375 4.5423 21.1686 4.3118 21.4919C4.08129 21.8153 3.97286 22.2098 4.00578 22.6055C4.03869 23.0013 4.21082 23.3725 4.49157 23.6533C4.77232 23.9341 5.14352 24.1062 5.5392 24.1391C5.93487 24.172 6.3294 24.0636 6.65269 23.8331C6.97597 23.6025 7.20706 23.2649 7.3049 22.88C7.40274 22.4952 7.36099 22.0881 7.18706 21.7311L10.3387 18.5874C9.18873 21.204 8.75581 24.0796 9.08438 26.9189C9.41296 29.7582 10.4912 32.4588 12.2084 34.7436L11.2845 35.6703C11.1827 35.7728 11.1255 35.9114 11.1255 36.0558C11.1255 36.2002 11.1827 36.3388 11.2845 36.4412L13.6817 38.8387C13.7837 38.9414 13.9223 38.9994 14.0671 39C14.1392 39.0001 14.2107 38.9858 14.2773 38.9582C14.3439 38.9305 14.4044 38.8899 14.4553 38.8387L16.8552 36.4412C16.957 36.3388 17.0142 36.2002 17.0142 36.0558C17.0142 35.9114 16.957 35.7728 16.8552 35.6703L14.4635 33.2592ZM36.0575 12.442L37.6812 14.0658L36.0575 15.6896L34.4339 14.0658L36.0575 12.442ZM22.0487 5.27419C22.1299 5.19229 22.2337 5.13636 22.3467 5.11351C22.4598 5.09065 22.5771 5.10191 22.6838 5.14584C22.7905 5.18977 22.8817 5.2644 22.9458 5.36026C23.01 5.45612 23.0443 5.56888 23.0443 5.68425C23.0443 5.79962 23.01 5.91238 22.9458 6.00824C22.8817 6.1041 22.7905 6.17873 22.6838 6.22266C22.5771 6.26659 22.4598 6.27784 22.3467 6.25499C22.2337 6.23214 22.1299 6.17621 22.0487 6.09431C21.9948 6.04048 21.9521 5.97656 21.9229 5.9062C21.8937 5.83584 21.8787 5.76042 21.8787 5.68425C21.8787 5.60808 21.8937 5.53266 21.9229 5.4623C21.9521 5.39194 21.9948 5.32802 22.0487 5.27419ZM12.8644 12.8657C13.0231 12.7062 13.2118 12.5796 13.4196 12.4932C13.6274 12.4068 13.8503 12.3624 14.0753 12.3624C14.3003 12.3624 14.5232 12.4068 14.731 12.4932C14.9388 12.5796 15.1275 12.7062 15.2862 12.8657C15.5262 13.1053 15.6897 13.4107 15.756 13.7433C15.8224 14.0759 15.7886 14.4206 15.659 14.734C15.5293 15.0473 15.3097 15.3152 15.0278 15.5037C14.7459 15.6921 14.4144 15.7927 14.0753 15.7927C13.7362 15.7927 13.4048 15.6921 13.1228 15.5037C12.8409 15.3152 12.6213 15.0473 12.4916 14.734C12.362 14.4206 12.3282 14.0759 12.3946 13.7433C12.4609 13.4107 12.6244 13.1053 12.8644 12.8657ZM6.09643 22.8711C5.98482 22.9642 5.84244 23.0122 5.69726 23.0056C5.55208 22.999 5.41461 22.9384 5.31185 22.8356C5.20909 22.7329 5.14847 22.5954 5.14191 22.4502C5.13535 22.305 5.18332 22.1626 5.2764 22.051C5.38579 21.9435 5.53303 21.8832 5.68641 21.8832C5.83979 21.8832 5.98703 21.9435 6.09643 22.051C6.15031 22.1048 6.19306 22.1687 6.22223 22.2391C6.2514 22.3095 6.26641 22.3849 6.26641 22.461C6.26641 22.5372 6.2514 22.6126 6.22223 22.683C6.19306 22.7534 6.15031 22.8173 6.09643 22.8711ZM14.0753 37.6687L12.4516 36.0449L14.0753 34.421L15.699 36.0449L14.0753 37.6687Z" fill="#3C83F6" stroke="#3C83F6" stroke-width="0.8"/>
</svg>
