<svg width="44" height="44" viewBox="0 0 44 44" fill="none" xmlns="http://www.w3.org/2000/svg">
<path d="M18.7759 4.2132C22.7299 3.59025 26.7782 4.34205 30.2453 6.3425C31.0063 6.7816 31.2678 7.75471 30.8287 8.51574C30.3896 9.27666 29.4164 9.53726 28.6555 9.09826C25.8188 7.46151 22.5065 6.84705 19.2714 7.35673C16.0363 7.86642 13.0735 9.46924 10.8774 11.8988C8.68139 14.3285 7.38513 17.4381 7.20395 20.7081C7.02284 23.978 7.9681 27.2109 9.88216 29.8681C11.7963 32.5255 14.5639 34.4468 17.7229 35.3107C20.8818 36.1746 24.2413 35.9295 27.2414 34.6162C30.2415 33.3029 32.701 31.0009 34.2092 28.0939C35.7174 25.1868 36.1832 21.85 35.5293 18.6409L38.647 18.0058C39.4462 21.928 38.8764 26.0057 37.033 29.5588C35.1897 33.1119 32.1844 35.9262 28.5176 37.5314C24.8509 39.1365 20.7445 39.436 16.8836 38.3802C13.0227 37.3242 9.64002 34.9763 7.30046 31.7286C4.9609 28.4807 3.80537 24.5282 4.02681 20.5315C4.24833 16.5349 5.83322 12.7347 8.5172 9.76522C11.2012 6.79586 14.8221 4.83618 18.7759 4.2132ZM36.7702 16.7649C37.6311 16.5895 38.4715 17.1449 38.647 18.0058L35.5293 18.6409C35.3542 17.7802 35.9096 16.9405 36.7702 16.7649Z" fill="#A856F7"/>
<path d="M36.2802 7.65346C36.9015 7.03218 37.9088 7.03218 38.5301 7.65346C39.1511 8.27468 39.1511 9.28132 38.5301 9.90253L22.6211 25.8115C22.3229 26.1098 21.9184 26.2776 21.4966 26.2777C21.0747 26.2777 20.6696 26.1098 20.3712 25.8115L15.599 21.0393L15.4896 20.9187C14.9797 20.2938 15.0165 19.3719 15.599 18.7894C16.1814 18.2071 17.1027 18.1705 17.7275 18.6799L17.8481 18.7894L21.4957 22.4362L36.2802 7.65346Z" fill="#A856F7"/>
</svg>
