<svg width="32" height="32" viewBox="0 0 32 32" fill="none" xmlns="http://www.w3.org/2000/svg">
<path d="M13.4143 1.4461C13.4648 1.31479 13.554 1.20187 13.67 1.12223C13.786 1.04259 13.9234 0.999975 14.0641 1H17.9356C18.0763 0.999999 18.2137 1.04262 18.3297 1.12226C18.4456 1.20189 18.5348 1.3148 18.5853 1.4461L19.368 3.47968C20.4537 3.77106 21.4966 4.20338 22.4701 4.7656L24.4627 3.88061C24.5913 3.82351 24.7342 3.80671 24.8725 3.83242C25.0109 3.85813 25.1382 3.92515 25.2376 4.02465L27.9752 6.76236C28.0747 6.86185 28.1417 6.98915 28.1674 7.12748C28.1931 7.26581 28.1762 7.40868 28.1191 7.53726L27.2337 9.53054C27.7958 10.5037 28.2281 11.5462 28.5194 12.6316L30.5535 13.4146C30.6848 13.4651 30.7977 13.5543 30.8774 13.6703C30.957 13.7863 30.9996 13.9236 30.9997 14.0643V17.9358C30.9997 18.0765 30.957 18.2139 30.8774 18.3299C30.7978 18.4459 30.6849 18.535 30.5535 18.5856L28.5201 19.3683C28.2286 20.454 27.7963 21.4969 27.2341 22.4704L28.1191 24.463C28.1762 24.5916 28.193 24.7345 28.1673 24.8728C28.1416 25.0111 28.0746 25.1384 27.9751 25.2379L25.2375 27.9754C25.138 28.0749 25.0107 28.1419 24.8724 28.1676C24.7341 28.1933 24.5912 28.1765 24.4627 28.1195L22.4693 27.2341C21.4962 27.7962 20.4536 28.2284 19.3682 28.5198L18.5852 30.5539C18.5347 30.6852 18.4456 30.7981 18.3296 30.8777C18.2136 30.9574 18.0762 31 17.9355 31H14.064C13.9233 31 13.7859 30.9574 13.6699 30.8777C13.5539 30.7981 13.4648 30.6852 13.4142 30.5539L12.6316 28.5204C11.5459 28.229 10.503 27.7967 9.52949 27.2345L7.53691 28.1195C7.40832 28.1766 7.26545 28.1934 7.12712 28.1677C6.98879 28.142 6.8615 28.0749 6.76201 27.9754L4.02439 25.2377C3.92491 25.1382 3.8579 25.0109 3.83221 24.8726C3.80651 24.7343 3.82333 24.5914 3.88044 24.4628L4.76586 22.4695C4.20374 21.4964 3.77149 20.4539 3.48011 19.3685L1.4461 18.5855C1.31481 18.5349 1.20191 18.4458 1.12227 18.3298C1.04264 18.2138 1.00001 18.0764 1 17.9358V14.0643C0.999999 13.9236 1.04262 13.7862 1.12226 13.6703C1.20189 13.5543 1.3148 13.4651 1.4461 13.4146L3.48011 12.6316C3.77156 11.5462 4.20382 10.5037 4.76586 9.53054L3.88044 7.53726C3.82333 7.40867 3.80652 7.26579 3.83223 7.12746C3.85794 6.98913 3.92497 6.86184 4.02447 6.76236L6.76219 4.02473C6.86164 3.92523 6.98892 3.8582 7.12724 3.83248C7.26556 3.80677 7.40842 3.82358 7.537 3.8807L9.5301 4.76586C10.5033 4.20369 11.546 3.77143 12.6315 3.48011L13.4143 1.4461ZM13.3129 4.74367C12.1221 5.02694 10.9841 5.49869 9.94209 6.14107C9.84579 6.20037 9.73649 6.23532 9.62364 6.24291C9.5108 6.25049 9.39781 6.23047 9.29443 6.18459L7.40872 5.34712L5.34712 7.40872L6.18476 9.29452C6.23064 9.39789 6.25066 9.51088 6.2431 9.62372C6.23553 9.73656 6.20061 9.84586 6.14133 9.94218C5.49899 10.9842 5.02719 12.122 4.74376 13.3128C4.71761 13.4229 4.66506 13.5248 4.59063 13.61C4.51621 13.6951 4.42216 13.7608 4.31662 13.8014L2.39244 14.5421V17.4575L4.31662 18.1982C4.42215 18.2388 4.51619 18.3046 4.59061 18.3897C4.66504 18.4748 4.7176 18.5768 4.74376 18.6868C5.0271 19.8776 5.49891 21.0155 6.14133 22.0575C6.20061 22.1538 6.23553 22.2631 6.2431 22.3759C6.25066 22.4888 6.23064 22.6018 6.18476 22.7051L5.34712 24.5909L7.40863 26.6525L9.29382 25.8152C9.3972 25.7694 9.51019 25.7493 9.62303 25.7569C9.73588 25.7645 9.84518 25.7995 9.94148 25.8588C10.9837 26.5012 12.1219 26.9731 13.313 27.2564C13.423 27.2826 13.525 27.3352 13.6101 27.4096C13.6953 27.4841 13.761 27.5781 13.8016 27.6836L14.542 29.6073H17.4575L18.1982 27.683C18.2389 27.5775 18.3046 27.4835 18.3897 27.409C18.4748 27.3346 18.5767 27.282 18.6867 27.2558C19.8775 26.9725 21.0154 26.5007 22.0574 25.8583C22.1537 25.7991 22.263 25.7641 22.3758 25.7565C22.4886 25.749 22.6016 25.769 22.705 25.8148L24.5909 26.6524L26.6524 24.5909L25.8152 22.7057C25.7693 22.6024 25.7492 22.4894 25.7568 22.3765C25.7644 22.2637 25.7994 22.1544 25.8587 22.0581C26.5011 21.0158 26.973 19.8776 27.2564 18.6865C27.2826 18.5765 27.3351 18.4745 27.4095 18.3894C27.484 18.3043 27.578 18.2386 27.6836 18.198L29.6072 17.4575V14.5421L27.683 13.8014C27.5775 13.7608 27.4835 13.6951 27.409 13.61C27.3346 13.5249 27.282 13.4229 27.2559 13.3129C26.9725 12.1221 26.5006 10.9842 25.8582 9.94227C25.799 9.84595 25.764 9.73665 25.7565 9.62381C25.7489 9.51096 25.7689 9.39798 25.8148 9.29461L26.6524 7.40872L24.5909 5.34712L22.7057 6.18441C22.6023 6.23028 22.4893 6.25028 22.3764 6.2427C22.2636 6.23512 22.1543 6.20018 22.058 6.1409C21.0158 5.49842 19.8776 5.02658 18.6865 4.74323C18.5764 4.71706 18.4745 4.66447 18.3893 4.59004C18.3042 4.5156 18.2385 4.42155 18.1979 4.31602L17.4575 2.39236H14.542L13.8014 4.31636C13.7609 4.42192 13.6952 4.516 13.6101 4.59046C13.5249 4.66492 13.423 4.7175 13.3129 4.74367ZM15.9998 6.88168C21.0276 6.88168 25.118 10.9721 25.118 15.9999C25.118 21.0277 21.0276 25.1182 15.9998 25.1182C10.9721 25.1182 6.88159 21.0278 6.88159 15.9999C6.8815 10.9721 10.972 6.88168 15.9998 6.88168ZM8.27394 15.9999C8.27394 20.2599 11.7397 23.7257 15.9997 23.7257C20.2597 23.7257 23.7254 20.2599 23.7254 15.9999C23.7254 11.7399 20.2597 8.27412 15.9997 8.27412C11.7397 8.27412 8.27394 11.7399 8.27394 15.9999ZM14.9506 19.9156C15.0109 19.9318 15.0716 19.9395 15.1312 19.9395C15.2844 19.9393 15.4333 19.8887 15.5548 19.7953C15.6763 19.702 15.7637 19.5712 15.8033 19.4232L17.5413 12.9369C17.5891 12.7585 17.5641 12.5685 17.4718 12.4086C17.3795 12.2487 17.2274 12.132 17.049 12.0842C16.8707 12.0364 16.6806 12.0614 16.5207 12.1538C16.3608 12.2461 16.2441 12.3981 16.1963 12.5765L14.4583 19.0628C14.4346 19.1511 14.4286 19.2432 14.4405 19.3339C14.4524 19.4246 14.4821 19.512 14.5278 19.5912C14.5735 19.6704 14.6344 19.7398 14.7069 19.7955C14.7795 19.8511 14.8623 19.892 14.9506 19.9156ZM10.149 16.5323L12.9809 18.9187C13.1063 19.0247 13.2651 19.0827 13.4292 19.0825C13.5307 19.0827 13.631 19.0606 13.723 19.0178C13.8151 18.975 13.8966 18.9126 13.9619 18.8349C14.0208 18.765 14.0654 18.6842 14.0931 18.597C14.1208 18.5099 14.131 18.4182 14.1232 18.3271C14.1155 18.236 14.0898 18.1473 14.0478 18.0661C14.0057 17.9849 13.9481 17.9128 13.8782 17.8539L11.678 15.9998L13.8782 14.1459C14.1722 13.8981 14.2098 13.4589 13.9619 13.1648C13.714 12.8707 13.2748 12.8332 12.9809 13.0811L10.149 15.4675C10.0714 15.5328 10.009 15.6143 9.96626 15.7063C9.92349 15.7983 9.90133 15.8985 9.90133 15.9999C9.90133 16.1013 9.92349 16.2015 9.96626 16.2935C10.009 16.3855 10.0714 16.467 10.149 16.5323ZM18.0378 18.835C18.1031 18.9127 18.1846 18.9751 18.2766 19.0179C18.3687 19.0607 18.469 19.0828 18.5704 19.0826C18.7288 19.0826 18.8881 19.0288 19.0187 18.9188L21.8506 16.5324C21.9282 16.4671 21.9905 16.3856 22.0333 16.2936C22.0761 16.2016 22.0982 16.1014 22.0982 16C22.0982 15.8986 22.0761 15.7984 22.0333 15.7064C21.9905 15.6144 21.9282 15.5329 21.8506 15.4676L19.0187 13.0812C18.8775 12.9622 18.6949 12.9042 18.5109 12.9199C18.3269 12.9356 18.1567 13.0237 18.0378 13.1649C17.9788 13.2348 17.9343 13.3157 17.9066 13.4028C17.8789 13.4899 17.8686 13.5817 17.8764 13.6728C17.8842 13.7639 17.9098 13.8525 17.9519 13.9337C17.9939 14.0149 18.0516 14.087 18.1215 14.146L20.3215 15.9999L18.1215 17.854C18.0516 17.9129 17.9939 17.985 17.9519 18.0662C17.9098 18.1474 17.8842 18.236 17.8764 18.3271C17.8686 18.4182 17.8789 18.51 17.9066 18.5971C17.9343 18.6843 17.9788 18.7651 18.0378 18.835Z" fill="#A856F7" stroke="#A856F7" stroke-width="0.5"/>
</svg>
