<svg width="44" height="44" viewBox="0 0 44 44" fill="none" xmlns="http://www.w3.org/2000/svg">
<path d="M36.7372 28.8254L33.6633 27.2884L31.7069 22.1995C31.6838 22.1393 31.6487 22.0846 31.6035 22.0386C31.5584 21.9926 31.5042 21.9565 31.4445 21.9324L19.3055 17.0801C19.2207 17.0463 19.1278 17.0381 19.0383 17.0564C18.9488 17.0747 18.8666 17.1188 18.8018 17.1832L17.1828 18.8022C17.1193 18.867 17.0759 18.9489 17.058 19.0379C17.0401 19.1269 17.0485 19.2192 17.0821 19.3036L21.9344 31.4425C21.9584 31.5023 21.9946 31.5564 22.0406 31.6015C22.0865 31.6467 22.1413 31.6819 22.2015 31.7049L27.2904 33.6613L28.8274 36.7353C28.8597 36.803 28.9079 36.8621 28.9679 36.9073C29.0278 36.9526 29.0977 36.9828 29.1718 36.9953C29.1967 36.9977 29.2218 36.9977 29.2468 36.9953C29.3708 36.9948 29.4896 36.9451 29.5771 36.8571L36.8591 29.5752C36.9127 29.5234 36.9532 29.4597 36.9772 29.3892C37.0012 29.3187 37.0081 29.2435 36.9973 29.1698C36.9847 29.0958 36.9545 29.0258 36.9093 28.9659C36.864 28.906 36.805 28.8578 36.7372 28.8254ZM18.0638 19.2427L18.3238 18.9849L24.3664 25.0275C23.9681 25.5917 23.7961 26.2849 23.8844 26.9699C23.9727 27.6549 24.3147 28.2818 24.843 28.7267C25.3712 29.1717 26.0472 29.4022 26.7372 29.3727C27.4272 29.3432 28.0811 29.0558 28.5694 28.5675C29.0578 28.0791 29.3451 27.4253 29.3746 26.7353C29.4041 26.0452 29.1736 25.3693 28.7287 24.841C28.2838 24.3128 27.6568 23.9707 26.9719 23.8824C26.2869 23.7942 25.5937 23.9662 25.0294 24.3644L18.9869 18.3219L19.2446 18.0618L30.9056 22.7267L32.7448 27.511L27.513 32.7428L22.7286 30.9036L18.0638 19.2427ZM26.6179 24.7955C27.0391 24.7961 27.447 24.9427 27.7722 25.2104C28.0973 25.478 28.3196 25.8501 28.4012 26.2633C28.4828 26.6765 28.4186 27.1051 28.2196 27.4763C28.0206 27.8474 27.6991 28.1381 27.3098 28.2988C26.9205 28.4594 26.4875 28.4802 26.0847 28.3574C25.6818 28.2347 25.334 27.9761 25.1004 27.6256C24.8668 27.2752 24.762 26.8546 24.8037 26.4355C24.8455 26.0165 25.0312 25.6248 25.3293 25.3274C25.6714 24.9863 26.1349 24.795 26.6179 24.7955ZM29.3756 35.7348L28.2041 33.3919L33.3891 28.2069L35.7321 29.3783L29.3756 35.7348Z" fill="#A856F7" stroke="#A856F7" stroke-width="0.8"/>
<path d="M15.9688 32.077C15.8792 31.9923 15.7606 31.9452 15.6373 31.9452C15.514 31.9452 15.3953 31.9923 15.3057 32.077L14.7106 32.6721C13.1225 30.5167 12.2464 27.9196 12.2044 25.2426C12.1624 22.5656 12.9566 19.9422 14.4763 17.7381C14.9316 17.9886 15.4559 18.0848 15.9705 18.0124C16.4851 17.9399 16.9623 17.7026 17.3307 17.336C17.6991 16.9695 17.9388 16.4934 18.0139 15.9792C18.0889 15.465 17.9953 14.9402 17.7471 14.4837C19.9513 12.964 22.5747 12.1698 25.2516 12.2118C27.9286 12.2538 30.5258 13.1299 32.6812 14.718L32.0767 15.3061C31.9896 15.3939 31.9407 15.5127 31.9408 15.6364C31.9404 15.6981 31.9523 15.7592 31.9756 15.8163C31.9989 15.8734 32.0333 15.9253 32.0767 15.9691L34.1432 18.0192C34.231 18.1065 34.3498 18.1555 34.4735 18.1555C34.5973 18.1555 34.7161 18.1065 34.8039 18.0192L36.8587 15.9644C36.9023 15.9209 36.9368 15.8692 36.9604 15.8124C36.984 15.7555 36.9961 15.6945 36.9961 15.6329C36.9961 15.5713 36.984 15.5104 36.9604 15.4535C36.9368 15.3966 36.9023 15.3449 36.8587 15.3014L34.8039 13.2466C34.7161 13.1593 34.5973 13.1103 34.4735 13.1103C34.3498 13.1103 34.231 13.1593 34.1432 13.2466L33.3489 14.0362C31.3914 12.5631 29.0771 11.6377 26.6436 11.3548C24.2101 11.0719 21.7452 11.4418 19.502 12.4266L22.2034 9.73214C22.5097 9.8785 22.858 9.91163 23.1864 9.82565C23.5148 9.73968 23.8021 9.54015 23.9974 9.26247C24.1927 8.98479 24.2833 8.64691 24.2532 8.30878C24.2231 7.97064 24.0741 7.6541 23.8328 7.41533C23.5915 7.17655 23.2734 7.03097 22.935 7.0044C22.5966 6.97784 22.2597 7.07202 21.9841 7.27023C21.7085 7.46844 21.512 7.75786 21.4295 8.08716C21.347 8.41646 21.3838 8.76434 21.5333 9.06908L16.9739 13.6355C16.511 13.325 15.9546 13.1848 15.3998 13.239C14.845 13.2931 14.3262 13.5382 13.932 13.9324C13.5378 14.3265 13.2928 14.8453 13.2386 15.4001C13.1845 15.9549 13.3247 16.5113 13.6352 16.9743L9.06874 21.5337C8.76281 21.3846 8.41392 21.3488 8.08409 21.4327C7.75426 21.5165 7.46484 21.7146 7.26726 21.9917C7.06968 22.2688 6.97674 22.607 7.00495 22.9462C7.03317 23.2853 7.18071 23.6035 7.42135 23.8441C7.662 24.0848 7.98017 24.2323 8.31933 24.2605C8.65848 24.2887 8.99666 24.1958 9.27376 23.9982C9.55086 23.8006 9.74894 23.5112 9.83281 23.1814C9.91667 22.8516 9.88088 22.5027 9.7318 22.1967L12.4332 19.5023C11.4475 21.745 11.0765 24.2095 11.3581 26.643C11.6397 29.0764 12.5639 31.3911 14.0358 33.3493L13.2439 34.1435C13.1566 34.2313 13.1076 34.3501 13.1076 34.4739C13.1076 34.5977 13.1566 34.7165 13.2439 34.8042L15.2987 36.859C15.3862 36.947 15.505 36.9967 15.6291 36.9973C15.6909 36.9973 15.7521 36.9851 15.8092 36.9614C15.8663 36.9377 15.9182 36.9029 15.9618 36.859L18.0189 34.8042C18.1062 34.7165 18.1551 34.5977 18.1551 34.4739C18.1551 34.3501 18.1062 34.2313 18.0189 34.1435L15.9688 32.077ZM34.4782 14.2353L35.87 15.6271L34.4782 17.0188L33.0865 15.6271L34.4782 14.2353ZM22.4705 8.09207C22.5402 8.02187 22.6291 7.97393 22.726 7.95435C22.8229 7.93476 22.9235 7.94441 23.0149 7.98206C23.1063 8.01971 23.1845 8.08367 23.2395 8.16583C23.2945 8.24799 23.3239 8.34463 23.3239 8.44351C23.3239 8.54239 23.2945 8.63903 23.2395 8.72119C23.1845 8.80335 23.1063 8.86731 23.0149 8.90496C22.9235 8.94261 22.8229 8.95226 22.726 8.93267C22.6291 8.91309 22.5402 8.86516 22.4705 8.79496C22.4243 8.74882 22.3877 8.69404 22.3627 8.63374C22.3377 8.57343 22.3248 8.50879 22.3248 8.44351C22.3248 8.37823 22.3377 8.31359 22.3627 8.25329C22.3877 8.19298 22.4243 8.1382 22.4705 8.09207ZM14.5982 14.5985C14.7342 14.4618 14.896 14.3533 15.0741 14.2792C15.2522 14.2052 15.4432 14.1671 15.6361 14.1671C15.829 14.1671 16.02 14.2052 16.1981 14.2792C16.3762 14.3533 16.538 14.4618 16.674 14.5985C16.8797 14.8038 17.0199 15.0656 17.0767 15.3506C17.1336 15.6357 17.1046 15.9312 16.9935 16.1997C16.8824 16.4683 16.6941 16.6979 16.4525 16.8594C16.2109 17.0209 15.9267 17.1071 15.6361 17.1071C15.3454 17.1071 15.0613 17.0209 14.8197 16.8594C14.5781 16.6979 14.3898 16.4683 14.2786 16.1997C14.1675 15.9312 14.1386 15.6357 14.1954 15.3506C14.2523 15.0656 14.3925 14.8038 14.5982 14.5985ZM8.79696 23.1738C8.70129 23.2535 8.57925 23.2946 8.45481 23.289C8.33037 23.2834 8.21254 23.2314 8.12446 23.1434C8.03638 23.0553 7.98442 22.9374 7.9788 22.813C7.97317 22.6886 8.01429 22.5665 8.09407 22.4709C8.18784 22.3787 8.31405 22.3271 8.44551 22.3271C8.57698 22.3271 8.70319 22.3787 8.79696 22.4709C8.84315 22.517 8.87979 22.5718 8.90479 22.6321C8.92979 22.6924 8.94266 22.757 8.94266 22.8223C8.94266 22.8876 8.92979 22.9522 8.90479 23.0125C8.87979 23.0728 8.84315 23.1276 8.79696 23.1738ZM15.6361 35.8562L14.2444 34.4645L15.6361 33.0728L17.0278 34.4645L15.6361 35.8562Z" fill="#A856F7" stroke="#A856F7" stroke-width="0.8"/>
</svg>
