<svg width="30" height="30" viewBox="0 0 30 30" fill="none" xmlns="http://www.w3.org/2000/svg">
<mask id="mask0_4350_1071" style="mask-type:luminance" maskUnits="userSpaceOnUse" x="0" y="0" width="30" height="30">
<path d="M29.4004 29.4004V0.599609H0.599609V29.4004H29.4004Z" fill="white" stroke="white" stroke-width="1.2"/>
<mask id="path-2-inside-1_4350_1071" fill="white">
<path d="M30 30V2.67032e-05H0V30H30ZM0.585939 0.585966H29.414V29.4141H0.585939V0.585966Z"/>
</mask>
<path d="M30 30V2.67032e-05H0V30H30ZM0.585939 0.585966H29.414V29.4141H0.585939V0.585966Z" fill="white"/>
<path d="M30 30H31.2V31.2H30V30ZM30 2.67032e-05V-1.19997H31.2V2.67032e-05H30ZM0 2.67032e-05H-1.2V-1.19997H0V2.67032e-05ZM0 30V31.2H-1.2V30H0ZM0.585939 0.585966H-0.614061V-0.614034H0.585939V0.585966ZM29.414 0.585966V-0.614034H30.614V0.585966H29.414ZM29.414 29.4141H30.614V30.6141H29.414V29.4141ZM0.585939 29.4141V30.6141H-0.614061V29.4141H0.585939ZM30 30H28.8V2.67032e-05H30H31.2V30H30ZM30 2.67032e-05V1.20003H0V2.67032e-05V-1.19997H30V2.67032e-05ZM0 2.67032e-05H1.2V30H0H-1.2V2.67032e-05H0ZM0 30V28.8H30V30V31.2H0V30ZM0.585939 0.585966V-0.614034H29.414V0.585966V1.78597H0.585939V0.585966ZM29.414 0.585966H30.614V29.4141H29.414H28.214V0.585966H29.414ZM29.414 29.4141V30.6141H0.585939V29.4141V28.2141H29.414V29.4141ZM0.585939 29.4141H-0.614061V0.585966H0.585939H1.78594V29.4141H0.585939Z" fill="white" mask="url(#path-2-inside-1_4350_1071)"/>
</mask>
<g mask="url(#mask0_4350_1071)">
<path d="M14.707 22.0898C14.707 25.8113 11.6902 28.8281 7.96877 28.8281C4.24733 28.8281 1.23047 25.8113 1.23047 22.0898C1.23048 18.3684 4.24734 15.3516 7.96877 15.3516C11.6902 15.3516 14.707 18.3684 14.707 22.0898ZM15.293 22.0898C15.2929 18.0448 12.0138 14.7657 7.96877 14.7656C3.92373 14.7656 0.644542 18.0448 0.644531 22.0898C0.644531 26.1349 3.92373 29.4141 7.96877 29.4141C12.0138 29.4141 15.293 26.1349 15.293 22.0898Z" fill="#A856F7" stroke="#A856F7" stroke-width="1.2" stroke-miterlimit="10" stroke-linecap="round" stroke-linejoin="round"/>
<path d="M28.7695 27.3633C28.7695 28.1723 28.1137 28.8281 27.3047 28.8281H7.96875C7.80695 28.8281 7.67578 28.9593 7.67578 29.1211C7.67578 29.2829 7.80695 29.4141 7.96875 29.4141H27.3047C28.4373 29.4141 29.3555 28.4959 29.3555 27.3633V6.73844C29.3555 6.66075 29.3246 6.58624 29.2696 6.53131L23.4105 0.671741C23.3556 0.616795 23.281 0.585968 23.2033 0.585968H9.72657C8.59399 0.585968 7.67579 1.50412 7.67578 2.6367V15.0586C7.67579 15.2204 7.80695 15.3516 7.96875 15.3516C8.13055 15.3516 8.26171 15.2204 8.26172 15.0586V2.6367C8.26173 1.82773 8.9176 1.17191 9.72657 1.17191H23.082L28.7695 6.85987V27.3633Z" fill="#A856F7" stroke="#A856F7" stroke-width="1.2" stroke-miterlimit="10" stroke-linecap="round" stroke-linejoin="round"/>
<path d="M29.0625 7.03125L29.0845 7.03045C29.1941 7.02221 29.2907 6.95302 29.3332 6.85038C29.3757 6.74776 29.3563 6.63061 29.2847 6.54734L29.2697 6.53114L23.4103 0.67175C23.3265 0.587972 23.2005 0.5629 23.091 0.608235C22.9816 0.653579 22.9102 0.7604 22.9102 0.878888V6.73828L22.9106 6.75333C22.9184 6.90814 23.0464 7.03125 23.2031 7.03125H29.0625ZM23.4961 1.58619L28.3552 6.44531H23.4961V1.58619Z" fill="#A856F7" stroke="#A856F7" stroke-width="1.2" stroke-miterlimit="10" stroke-linecap="round" stroke-linejoin="round"/>
<path d="M24.9612 17.1094L24.9763 17.109C25.1311 17.1011 25.2542 16.9732 25.2542 16.8164C25.2542 16.6597 25.1311 16.5317 24.9763 16.5238L24.9612 16.5234H12.6191C12.4573 16.5234 12.3262 16.6546 12.3262 16.8164C12.3262 16.9782 12.4573 17.1094 12.6191 17.1094H24.9612Z" fill="#A856F7" stroke="#A856F7" stroke-width="1.2" stroke-miterlimit="10" stroke-linecap="round" stroke-linejoin="round"/>
<path d="M24.9609 11.8359L24.976 11.8355C25.1308 11.8277 25.2539 11.6997 25.2539 11.543C25.2539 11.3862 25.1308 11.2583 24.976 11.2504L24.9609 11.25H12.0703C11.9085 11.25 11.7773 11.3812 11.7773 11.543C11.7773 11.7048 11.9085 11.8359 12.0703 11.8359H24.9609Z" fill="#A856F7" stroke="#A856F7" stroke-width="1.2" stroke-miterlimit="10" stroke-linecap="round" stroke-linejoin="round"/>
<path d="M24.9609 22.3828L24.976 22.3824C25.1308 22.3746 25.2539 22.2466 25.2539 22.0898C25.2539 21.9331 25.1308 21.8051 24.976 21.7973L24.9609 21.7969H15C14.8382 21.7969 14.707 21.928 14.707 22.0898C14.707 22.2516 14.8382 22.3828 15 22.3828H24.9609Z" fill="#A856F7" stroke="#A856F7" stroke-width="1.2" stroke-miterlimit="10" stroke-linecap="round" stroke-linejoin="round"/>
<path d="M6.73826 24.9023C6.81596 24.9023 6.89046 24.8715 6.9454 24.8165L11.047 20.715L11.0574 20.7041C11.1613 20.5891 11.1578 20.4115 11.047 20.3007C10.9361 20.1898 10.7586 20.1863 10.6436 20.2902L10.6326 20.3007L6.73821 24.1951L5.18758 22.6444C5.07317 22.53 4.88772 22.53 4.77331 22.6444C4.6589 22.7588 4.6589 22.9443 4.77331 23.0587L6.53113 24.8165L6.5416 24.8265C6.59534 24.8752 6.66541 24.9023 6.73826 24.9023Z" fill="#A856F7" stroke="#A856F7" stroke-width="1.2" stroke-miterlimit="10" stroke-linecap="round" stroke-linejoin="round"/>
</g>
</svg>
