<svg width="44" height="44" viewBox="0 0 44 44" fill="none" xmlns="http://www.w3.org/2000/svg">
<path d="M41.1221 28.4596L39.0749 24.8545V19.5067C39.2062 19.4052 39.2957 19.238 39.3017 19.059C39.3043 18.9421 39.273 18.8268 39.2116 18.7273C39.1502 18.6277 39.0612 18.5481 38.9555 18.498L20.7152 10.0523C20.5541 9.9807 20.3631 9.9807 20.202 10.0642L3.32851 18.5098C3.11962 18.6113 2.99424 18.8322 3.0002 19.0649C3.01212 19.2977 3.15538 19.5066 3.37626 19.5961L8.84356 21.8165V28.949C8.84356 31.0022 10.3477 32.7749 12.4188 33.1629C18.2084 34.279 24.0876 34.279 29.8831 33.1629C31.9542 32.7749 33.4584 31.0022 33.4584 28.949V21.6493L37.8812 19.9901V24.8843L36.2636 28.5133C36.0906 28.9072 36.377 29.3549 36.8068 29.3549H40.6028C41.0624 29.3549 41.3489 28.8595 41.1221 28.4596ZM32.2646 28.949C32.2646 30.4293 31.1724 31.7066 29.6563 31.9931C24.0099 33.0794 18.286 33.0794 12.6397 31.9931C11.1296 31.7066 10.0373 30.4293 10.0373 28.949V22.2999L20.2438 26.4422C20.3632 26.4899 20.5242 26.5019 20.6734 26.4482L32.2646 22.0969V28.949H32.2646ZM20.4765 25.2485C3.22704 18.2472 6.86794 19.7215 5.04749 18.9814L20.4765 11.2579L37.1588 18.9874C31.5975 21.0729 26.0367 23.16 20.4765 25.2485Z" fill="#3C83F6" stroke="#3C83F6" stroke-width="1.5"/>
</svg>
