<svg width="44" height="44" viewBox="0 0 44 44" fill="none" xmlns="http://www.w3.org/2000/svg">
<g clip-path="url(#clip0_4159_411)">
<path d="M41.8179 8.73248L38.7848 8.73234V5.59257C38.7848 5.24475 38.66 4.90848 38.433 4.64495C38.206 4.38141 37.8919 4.20814 37.5479 4.15666C37.4238 4.13801 34.4689 3.70881 30.9107 4.35625C26.944 5.078 23.7805 6.85789 21.6349 9.54863C19.4892 6.85789 16.3257 5.078 12.3592 4.35625C8.80083 3.70895 5.84595 4.13801 5.72196 4.15666C5.378 4.2082 5.06396 4.38149 4.83696 4.64501C4.60996 4.90853 4.48509 5.24477 4.48506 5.59257V8.73234H1.45194C0.650213 8.73234 2.01087e-09 9.38255 2.01087e-09 10.1844V37.5457C-1.21919e-05 37.7774 0.0554337 38.0058 0.161704 38.2117C0.267975 38.4176 0.421984 38.5951 0.610861 38.7293C0.799739 38.8635 1.018 38.9506 1.2474 38.9832C1.47681 39.0159 1.71069 38.9931 1.92952 38.9169C2.03849 38.8792 12.919 35.1658 21.0324 38.8667C21.2215 38.953 21.4271 38.9977 21.635 38.9977C21.8429 38.9977 22.0485 38.953 22.2376 38.8667C30.3282 35.1763 41.2321 38.8795 41.3405 38.9169C41.5593 38.9931 41.7932 39.0158 42.0226 38.9832C42.2519 38.9505 42.4702 38.8635 42.6591 38.7294C42.848 38.5952 43.002 38.4177 43.1083 38.2118C43.2146 38.0059 43.27 37.7775 43.27 37.5458V10.1846C43.2699 9.38269 42.6198 8.73248 41.8179 8.73248ZM2.90403 35.6029V11.6364H4.48506V30.9732C4.48526 31.1817 4.53036 31.3877 4.61729 31.5772C4.70422 31.7668 4.83095 31.9354 4.98885 32.0715C5.14676 32.2079 5.3322 32.3087 5.53254 32.367C5.73288 32.4253 5.94342 32.4398 6.14986 32.4094C6.22998 32.3977 12.5378 31.5318 17.1462 34.6937C11.4694 33.7229 5.78782 34.8458 2.90403 35.6029ZM20.183 33.3842C18.1532 31.5503 15.5094 30.3102 12.3592 29.737C10.8431 29.4611 9.43662 29.3807 8.31189 29.3807C7.97797 29.3807 7.66882 29.3878 7.38924 29.399V6.92593H7.38909C10.1798 6.80005 16.9685 7.09842 20.183 12.5477V33.3842ZM23.0869 12.5478C26.2899 7.12188 33.0892 6.80996 35.8808 6.92957V29.399C34.6594 29.3498 32.8766 29.3792 30.9107 29.737C27.7605 30.3102 25.1166 31.5501 23.0869 33.3842V12.5478ZM26.1188 34.6945C30.7279 31.5307 37.039 32.3976 37.1177 32.4092C37.3242 32.4402 37.5351 32.4263 37.7357 32.3683C37.9364 32.3104 38.1222 32.2098 38.2805 32.0735C38.4388 31.9371 38.5658 31.7683 38.6528 31.5784C38.7398 31.3885 38.7848 31.1821 38.7848 30.9732V11.6365H40.3658V35.6029C37.4812 34.8455 31.7972 33.7222 26.1188 34.6945Z" fill="#3C83F6"/>
</g>
<defs>
<clipPath id="clip0_4159_411">
<rect width="43.27" height="43.27" fill="white"/>
</clipPath>
</defs>
</svg>
