<svg width="44" height="44" viewBox="0 0 44 44" fill="none" xmlns="http://www.w3.org/2000/svg">
<path d="M20.1348 37.8867V13.3865C20.1348 12.42 20.9181 11.6367 21.8846 11.6367C22.8511 11.6367 23.6344 12.42 23.6344 13.3865V37.8867C23.6342 38.853 22.8509 39.6365 21.8846 39.6365C20.9182 39.6365 20.135 38.853 20.1348 37.8867Z" fill="#A856F7"/>
<path d="M38.2801 17.279C38.9675 16.7184 39.9817 16.7587 40.6224 17.3994C41.3052 18.0827 41.3052 19.1901 40.6224 19.8734L33.6222 26.8736C32.9815 27.5143 31.9673 27.5546 31.2799 26.994L31.1472 26.8736L27.6476 23.374L27.5272 23.2413C26.9663 22.5539 27.0068 21.5398 27.6476 20.899C28.2882 20.2586 29.3016 20.2183 29.9889 20.7787L30.1216 20.899L32.3842 23.1607L38.1474 17.3994L38.2801 17.279Z" fill="#A856F7"/>
<path d="M37.6348 11.6369V8.13634H28.8848C27.4924 8.13634 26.1564 8.6893 25.1719 9.67382C24.2489 10.5968 23.7054 11.8285 23.641 13.126L23.6344 13.3867L23.6259 13.5659C23.5361 14.4481 22.7905 15.1365 21.8846 15.1365C20.9182 15.1365 20.1349 14.3531 20.1348 13.3867C20.1348 11.9943 19.5809 10.6584 18.5963 9.67382C17.6118 8.68952 16.2766 8.13634 14.8844 8.13634H6.13439V30.8867H16.6342L16.9811 30.8953C18.7114 30.981 20.3533 31.7062 21.5841 32.937C21.6881 33.0411 21.7878 33.1486 21.8846 33.2583C21.9813 33.1486 22.081 33.0411 22.1851 32.937C23.4977 31.6244 25.2777 30.8868 27.134 30.8867H37.6348V28.6118C37.6348 27.6453 38.4181 26.861 39.3846 26.861C40.351 26.8612 41.1344 27.6454 41.1344 28.6118V30.8867C41.1343 31.8148 40.7651 32.7054 40.1088 33.3617C39.4525 34.0177 38.5626 34.3862 37.6348 34.3863H27.134C26.2061 34.3864 25.3162 34.755 24.66 35.411C24.0447 36.0263 23.6821 36.8475 23.6391 37.7125L23.6344 37.886L23.6259 38.0651C23.5363 38.9476 22.7907 39.6367 21.8846 39.6367C20.9181 39.6367 20.1348 38.8525 20.1348 37.886C20.1347 36.9578 19.7654 36.0673 19.1091 35.411C18.4937 34.7958 17.6727 34.4339 16.8077 34.3911L16.6342 34.3863H6.13439C5.20625 34.3863 4.31576 34.0179 3.65944 33.3617C3.04415 32.7464 2.68153 31.9251 2.63856 31.0602L2.63477 30.8867V8.13634C2.63481 7.20815 3.00311 6.31772 3.65944 5.66139C4.31577 5.00506 5.2062 4.63677 6.13439 4.63672H14.8844C17.2048 4.63672 19.4304 5.5582 21.0713 7.19887C21.3661 7.49372 21.6373 7.80848 21.8846 8.13824C22.1318 7.80853 22.4021 7.49368 22.6969 7.19887C24.3378 5.55798 26.5642 4.63672 28.8848 4.63672H37.6348L37.8082 4.64051C38.673 4.68349 39.4935 5.04633 40.1088 5.66139C40.7651 6.31772 41.1343 7.20816 41.1344 8.13634V11.6369C41.1342 12.6031 40.3508 13.3866 39.3846 13.3867C38.4182 13.3867 37.635 12.6032 37.6348 11.6369Z" fill="#A856F7"/>
</svg>
