<svg width="44" height="44" viewBox="0 0 44 44" fill="none" xmlns="http://www.w3.org/2000/svg">
<path d="M28.8679 7.00031C31.026 7.01921 33.0908 7.88583 34.6169 9.41189C36.1427 10.938 37.0083 13.0028 37.0271 15.1608C37.0445 17.1843 36.3162 19.1383 34.9893 20.6539L34.7173 20.9499L30.5842 25.0831C29.7497 25.9178 28.7452 26.5637 27.6394 26.9762C26.5336 27.3886 25.3519 27.5576 24.1747 27.4733C22.9974 27.3889 21.8518 27.0531 20.8159 26.4872C19.9097 25.992 19.1063 25.331 18.4459 24.5405L18.1712 24.1935L18.0935 24.077C17.7354 23.4809 17.8798 22.6991 18.4486 22.2736C19.0174 21.8484 19.8081 21.9306 20.2787 22.4424L20.3685 22.551L20.5507 22.7814C20.991 23.3086 21.5272 23.7494 22.1316 24.0796C22.822 24.4568 23.5856 24.6812 24.3703 24.7375C25.155 24.7937 25.943 24.6801 26.6801 24.4052C27.4174 24.1302 28.0879 23.6997 28.6442 23.1431L32.7425 19.0448C33.7421 18.0098 34.2958 16.6224 34.2833 15.1836C34.2706 13.7452 33.6939 12.3691 32.6769 11.3519C31.6595 10.3345 30.2826 9.75672 28.8438 9.74415C27.405 9.73165 26.0189 10.2853 24.9839 11.2849L24.9826 11.2835L22.638 13.6161C22.1007 14.1503 21.2322 14.148 20.698 13.6107C20.1639 13.0734 20.1661 12.2049 20.7034 11.6707L23.0627 9.3248L23.0775 9.3114C24.6299 7.81197 26.7096 6.98156 28.8679 7.00031Z" fill="#3C83F6"/>
<path d="M19.8527 16.525C21.0299 16.6093 22.1757 16.9452 23.2115 17.5111C24.2473 18.077 25.1492 18.8596 25.8562 19.8047C26.3099 20.4113 26.1865 21.2707 25.5802 21.7246C24.9735 22.1784 24.1128 22.0552 23.6589 21.4486C23.1876 20.8185 22.5864 20.2959 21.8958 19.9186C21.2054 19.5415 20.4418 19.317 19.6571 19.2608C18.8723 19.2046 18.0845 19.3182 17.3473 19.5931C16.7021 19.8337 16.1085 20.1938 15.5976 20.6528L15.3832 20.8551L11.2835 24.9535L11.2849 24.9548C10.2853 25.9898 9.73165 27.3758 9.74415 28.8147C9.75673 30.2534 10.3345 31.6303 11.3519 32.6477C12.3691 33.6647 13.7452 34.2415 15.1836 34.2541C16.6224 34.2666 18.0098 33.713 19.0448 32.7134L21.3733 30.3849C21.9091 29.8491 22.7775 29.8491 23.3133 30.3849C23.849 30.9206 23.849 31.7891 23.3133 32.3248L20.9499 34.6882C19.3976 36.1872 17.3187 37.0166 15.1608 36.9979C13.0028 36.9792 10.938 36.1136 9.41189 34.5877C7.88583 33.0616 7.01921 30.9968 7.00031 28.8388C6.98156 26.6805 7.81197 24.6008 9.3114 23.0483L9.32748 23.0309L13.4432 18.9151L13.7634 18.611C14.5298 17.9225 15.4203 17.383 16.388 17.022C17.4938 16.6096 18.6755 16.4407 19.8527 16.525Z" fill="#3C83F6"/>
</svg>
