<svg width="44" height="44" viewBox="0 0 44 44" fill="none" xmlns="http://www.w3.org/2000/svg">
<path d="M21.6012 23.7645C22.1334 24.2971 22.1336 25.1606 21.6012 25.693C21.0688 26.2254 20.2053 26.2252 19.6727 25.693L21.6012 23.7645ZM11.4913 15.5831C11.9905 15.0838 12.78 15.0525 13.3156 15.4893L13.419 15.5831L21.6012 23.7645L19.6727 25.693L11.4913 17.5108L11.3975 17.4074C10.9607 16.8718 10.9921 16.0823 11.4913 15.5831Z" fill="#A856F7"/>
<path d="M20.9471 11.5849C21.3867 11.0516 22.1678 10.9274 22.7552 11.3191C23.3816 11.7368 23.5509 12.5834 23.1334 13.2099L20.4058 17.301C20.3809 17.3382 20.3543 17.3742 20.326 17.4088L20.2359 17.5085L12.0537 25.69L11.9503 25.7838C11.4147 26.2204 10.6251 26.189 10.1259 25.69C9.59343 25.1574 9.59343 24.294 10.1259 23.7615L18.2106 15.6768L20.8637 11.6972L20.9471 11.5849Z" fill="#A856F7"/>
<path d="M24.7264 11.0898L24.8659 11.0965C25.5536 11.1663 26.0898 11.7473 26.0898 12.4533C26.0898 13.1593 25.5536 13.7403 24.8659 13.8101L24.7264 13.8167H8.36345C7.61036 13.8167 7 13.2064 7 12.4533C7 11.7002 7.61036 11.0898 8.36345 11.0898H24.7264Z" fill="#A856F7"/>
<path d="M16.5453 7L16.6849 7.00665C17.3725 7.07648 17.9087 7.65743 17.9087 8.36345C17.9087 9.06947 17.3725 9.65042 16.6849 9.72026L16.5453 9.7269H15.1818C14.4287 9.7269 13.8184 9.11654 13.8184 8.36345C13.8184 7.61036 14.4287 7 15.1818 7H16.5453Z" fill="#A856F7"/>
<path d="M28.8184 20.6367C29.3348 20.6367 29.8068 20.9283 30.0379 21.3901L36.8559 35.0261L36.912 35.1539C37.1571 35.8 36.8778 36.5397 36.2465 36.8556C35.6151 37.1713 34.8557 36.9511 34.4857 36.3674L34.417 36.2463L28.8184 25.0491L23.2199 36.2463C22.883 36.9196 22.0638 37.1923 21.3904 36.8556C20.717 36.5187 20.4443 35.6996 20.781 35.0261L27.599 21.3901L27.6448 21.3059C27.8889 20.8931 28.3342 20.6367 28.8184 20.6367Z" fill="#A856F7"/>
<path d="M32.9062 28.8164L33.0458 28.8231C33.7334 28.8929 34.2697 29.4739 34.2697 30.1799C34.2697 30.8859 33.7334 31.4668 33.0458 31.5367L32.9062 31.5433H24.7248C23.9717 31.5433 23.3613 30.9329 23.3613 30.1799C23.3613 29.4268 23.9717 28.8164 24.7248 28.8164H32.9062Z" fill="#A856F7"/>
</svg>
