<svg width="30" height="30" viewBox="0 0 30 30" fill="none" xmlns="http://www.w3.org/2000/svg">
<path d="M6.28314 19.5177C7.30783 19.5494 8.28808 19.9345 9.05842 20.6046L9.20958 20.7429L9.22696 20.7595C10.8844 22.3962 10.8631 25.0219 9.4401 26.7091L9.44085 26.7099C8.82312 27.4453 7.97168 27.9856 7.15306 28.3855C6.31844 28.7932 5.41733 29.1026 4.60829 29.334C3.79493 29.5667 3.0446 29.7285 2.49886 29.8321C2.22501 29.8841 1.99973 29.9219 1.84132 29.947C1.76223 29.9595 1.69958 29.9693 1.6554 29.9757C1.63337 29.9789 1.61581 29.9815 1.60325 29.9833C1.59705 29.9841 1.59192 29.985 1.58813 29.9855C1.58623 29.9858 1.58411 29.9853 1.58284 29.9855L1.58133 29.9863H1.58057C1.14979 30.0439 0.716501 29.8974 0.409087 29.5902C0.101652 29.2828 -0.0453186 28.8489 0.0122944 28.418V28.4172L0.0130502 28.4157C0.0132218 28.4145 0.0127904 28.4123 0.0130502 28.4104C0.0135667 28.4067 0.0144567 28.4015 0.0153176 28.3953C0.0170691 28.3828 0.0196754 28.3652 0.0228755 28.3432C0.0293019 28.299 0.0390585 28.2363 0.0515958 28.1572C0.0767074 27.9988 0.11448 27.7736 0.166477 27.4997C0.270106 26.954 0.431896 26.2036 0.664547 25.3903C0.895937 24.5814 1.20549 23.6808 1.61307 22.8463C2.01296 22.0276 2.5532 21.1755 3.28867 20.5577C4.1246 19.8541 5.19094 19.484 6.28314 19.5177ZM6.19698 22.3066C5.79142 22.2941 5.39546 22.4321 5.0852 22.6936L5.08369 22.6951C4.77267 22.9564 4.44037 23.4164 4.1208 24.0707C3.80903 24.7089 3.55224 25.4428 3.34762 26.1582C3.28199 26.3876 3.22348 26.6124 3.17001 26.8278C3.38554 26.7743 3.61075 26.7166 3.8404 26.6509C4.55573 26.4463 5.28963 26.1895 5.92791 25.8778C6.58215 25.5582 7.0422 25.2259 7.30346 24.9149L7.30649 24.9119L7.40323 24.7849C7.8505 24.139 7.77858 23.2616 7.2755 22.7548C6.98284 22.4789 6.59924 22.3191 6.19698 22.3066Z" fill="#A856F7"/>
<path d="M28.7561 0.00868618C29.4561 0.0839646 30.0007 0.676494 30.0009 1.39557C30.0009 5.40104 28.8527 12.4451 21.3712 17.6565L21.0099 17.9037C20.9997 17.9106 20.9894 17.9175 20.9789 17.9241C19.1377 19.0884 17.1842 20.0648 15.148 20.8392C14.6664 21.0223 14.1258 20.9252 13.7399 20.592L13.6651 20.5218L9.4795 16.3362C9.08933 15.946 8.96512 15.3621 9.16358 14.8472L9.46439 14.096C10.1874 12.3525 11.0634 10.6755 12.0817 9.08505C13.8332 6.28949 16.2698 3.98764 19.1605 2.39776C22.0556 0.805461 25.31 -0.0201208 28.614 0.000372425L28.7561 0.00868618ZM27.1523 2.8467C24.8259 3.0356 22.5597 3.71272 20.5051 4.84276C18.182 6.12048 16.2019 7.93578 14.7278 10.1333L14.4398 10.5777C14.4372 10.5819 14.4341 10.5857 14.4315 10.5898C13.5308 11.9966 12.7538 13.4781 12.1059 15.0165L14.9885 17.8984C16.5442 17.2525 18.0429 16.4763 19.4681 15.5766C25.3653 11.6166 26.8669 6.43895 27.1523 2.8467Z" fill="#A856F7"/>
<path d="M13.3808 9.37196L13.6794 8.43931C14.4134 8.67385 14.8186 9.45871 14.5841 10.1928C14.3495 10.9268 13.5639 11.332 12.8299 11.0974V11.0967C12.829 11.0964 12.8276 11.0964 12.8261 11.0959C12.8202 11.0941 12.8093 11.0912 12.7951 11.0869C12.7666 11.0782 12.7219 11.0645 12.6628 11.0476C12.5442 11.0135 12.3684 10.9649 12.1489 10.9108C11.7069 10.8018 11.0999 10.6729 10.4355 10.5873C9.76564 10.501 9.07399 10.4636 8.45078 10.5215C7.81671 10.5805 7.35334 10.7279 7.05331 10.9274L7.05407 10.9281C6.447 11.3343 5.87269 12.3383 5.43591 13.5424C5.38512 13.6825 5.33761 13.8203 5.29382 13.9544H10.4642L10.6071 13.9612C11.3106 14.0327 11.8594 14.6272 11.8594 15.3496C11.8594 16.0719 11.3106 16.6664 10.6071 16.738L10.4642 16.7448H3.48746C3.07381 16.7448 2.68161 16.5612 2.4165 16.2437C2.15139 15.9261 2.0403 15.5072 2.11418 15.1001L3.48746 15.3496C2.1839 15.1129 2.11821 15.1003 2.11494 15.0994V15.0971C2.11516 15.0959 2.11538 15.0943 2.11569 15.0926C2.11634 15.0891 2.11769 15.0844 2.11872 15.079C2.12079 15.068 2.1234 15.053 2.12703 15.0344C2.1344 14.9967 2.1448 14.9434 2.15877 14.8772C2.18669 14.7448 2.22881 14.558 2.28499 14.3315C2.39682 13.8807 2.56937 13.2613 2.81254 12.5909C3.26526 11.3428 4.08629 9.55597 5.50242 8.60861L5.50393 8.60709L5.66114 8.50733C6.4555 8.02575 7.36351 7.82032 8.19305 7.74322C9.0896 7.65992 10.0007 7.7168 10.7922 7.8188C11.5894 7.92154 12.304 8.07475 12.817 8.20123C13.0745 8.26471 13.2842 8.32277 13.4322 8.36524C13.5064 8.3865 13.5659 8.40395 13.6076 8.41663C13.6282 8.42291 13.6447 8.42799 13.6567 8.43175C13.6628 8.43364 13.668 8.43508 13.6718 8.43628C13.6736 8.43684 13.6751 8.43739 13.6764 8.4378L13.6779 8.43855H13.6786C13.6789 8.43864 13.6789 8.43879 13.3808 9.37196ZM13.2546 9.768C13.2342 9.83203 13.2142 9.89288 13.1957 9.9509L13.3808 9.37196C13.3435 9.48872 13.3018 9.62019 13.2546 9.768Z" fill="#A856F7"/>
<path d="M13.2559 26.5107V19.534C13.256 18.7635 13.8805 18.1388 14.6511 18.1388C15.4216 18.1388 16.0461 18.7635 16.0463 19.534V24.7044C16.1804 24.6606 16.3181 24.6131 16.4582 24.5623C17.5872 24.1528 18.54 23.6225 18.9893 23.0575L19.0725 22.9441C19.2718 22.6441 19.4202 22.1814 19.4791 21.5474C19.537 20.9242 19.4997 20.2326 19.4133 19.5627C19.3277 18.8984 19.1988 18.292 19.0899 17.8501C19.0357 17.6303 18.9871 17.454 18.9531 17.3354C18.9361 17.2762 18.9224 17.2316 18.9138 17.2031C18.9095 17.189 18.9065 17.1788 18.9047 17.1729L18.9032 17.1683L18.8669 17.03C18.7209 16.3381 19.1197 15.634 19.8079 15.4141C20.5418 15.1797 21.3267 15.5849 21.5613 16.3188L20.1994 16.7542C20.2103 16.7507 20.2215 16.7471 20.2326 16.7436C21.5616 16.3189 21.562 16.3193 21.5621 16.3196V16.3203L21.5628 16.3218C21.5632 16.3232 21.5637 16.3252 21.5643 16.3271C21.5655 16.3309 21.567 16.3357 21.5689 16.3415C21.5726 16.3536 21.5776 16.3705 21.584 16.3914C21.5967 16.4331 21.6141 16.4919 21.6354 16.566C21.6779 16.7141 21.7358 16.9243 21.7994 17.1819C21.9259 17.6949 22.0783 18.4089 22.1811 19.206C22.2831 19.9976 22.3407 20.9091 22.2574 21.8059C22.1751 22.6906 21.9469 23.6641 21.3935 24.4943L21.392 24.4958C20.4447 25.9119 18.6578 26.7337 17.4097 27.1864C16.7391 27.4296 16.1192 27.6021 15.6684 27.714C15.4421 27.7701 15.2557 27.8115 15.1234 27.8394C15.0572 27.8534 15.0039 27.8638 14.9662 27.8712C14.9476 27.8748 14.9327 27.8782 14.9216 27.8802L14.9035 27.8833H14.9012V27.884C14.9009 27.8841 14.9003 27.8836 14.6511 26.5107L14.9005 27.884C14.4935 27.9579 14.0745 27.8474 13.757 27.5825C13.4394 27.3173 13.2559 26.9244 13.2559 26.5107Z" fill="#A856F7"/>
</svg>
