<svg width="44" height="44" viewBox="0 0 44 44" fill="none" xmlns="http://www.w3.org/2000/svg">
<path fill-rule="evenodd" clip-rule="evenodd" d="M17.7798 22.2708C17.8881 21.9458 17.9964 21.6209 18.213 21.296C19.296 19.6715 21.3538 19.2383 22.87 20.213C24.4946 21.1877 25.0361 23.2455 23.9531 24.87C23.8448 25.1949 23.5199 25.4116 23.3032 25.7365L19.8375 28.3357L16.2635 30.935L16.9134 26.6029L17.7798 22.2708ZM21.1372 7C30.0181 7 37.2744 14.148 37.2744 23.0289C37.2744 28.9856 34.0253 34.1841 29.1516 37L27.4188 34.0758C31.3177 31.9097 33.8087 27.7942 33.8087 23.0289C33.8087 16.0975 28.1769 10.3574 21.1372 10.3574C14.0975 10.3574 8.4657 16.0975 8.4657 23.0289C8.4657 27.7942 10.9567 31.9097 14.7473 34.0758L13.1227 37C8.2491 34.1841 5 28.9856 5 23.0289C5 14.148 12.2563 7 21.1372 7Z" fill="#A856F7"/>
</svg>
