<svg width="44" height="44" viewBox="0 0 44 44" fill="none" xmlns="http://www.w3.org/2000/svg">
<path d="M17.7685 30.9928H26.1934M21.9818 5.75244V7.55533M33.4554 10.5048L32.1807 11.7795M38.2078 21.9784H36.4049M7.55874 21.9784H5.75586M11.7829 11.7795L10.5083 10.5048M15.6068 28.3534C14.3464 27.0926 13.4881 25.4864 13.1404 23.7378C12.7928 21.9893 12.9715 20.1769 13.6538 18.5299C14.3362 16.8828 15.4916 15.4751 16.9739 14.4847C18.4563 13.4943 20.199 12.9657 21.9818 12.9657C23.7646 12.9657 25.5074 13.4943 26.9897 14.4847C28.4721 15.4751 29.6275 16.8828 30.3098 18.5299C30.9922 20.1769 31.1708 21.9893 30.8232 23.7378C30.4756 25.4864 29.6173 27.0926 28.3568 28.3534L27.3688 29.3396C26.804 29.9045 26.356 30.5752 26.0504 31.3133C25.7447 32.0513 25.5875 32.8424 25.5876 33.6413V34.5986C25.5876 35.5549 25.2077 36.472 24.5315 37.1483C23.8553 37.8245 22.9381 38.2044 21.9818 38.2044C21.0255 38.2044 20.1084 37.8245 19.4322 37.1483C18.7559 36.472 18.3761 35.5549 18.3761 34.5986V33.6413C18.3761 32.0277 17.7342 30.479 16.5948 29.3396L15.6068 28.3534Z" stroke="#3C83F6" stroke-width="3" stroke-linecap="round" stroke-linejoin="round"/>
</svg>
