<svg width="44" height="44" viewBox="0 0 44 44" fill="none" xmlns="http://www.w3.org/2000/svg">
<path d="M20.5977 35.8281C20.5977 36.4754 20.0731 37 19.4258 37H12.6875C10.1028 37 8 34.8972 8 32.3125V11.6875C8 9.10275 10.1028 7 12.6875 7H27.0951C29.6797 7 31.7826 9.10275 31.7826 11.6875V24.1094C31.7826 24.7567 31.2579 25.2812 30.6107 25.2812C29.9635 25.2812 29.4389 24.7567 29.4389 24.1094V11.6875C29.4389 10.3952 28.3874 9.34375 27.0951 9.34375H12.6875C11.3952 9.34375 10.3438 10.3952 10.3438 11.6875V32.3125C10.3438 33.6048 11.3952 34.6562 12.6875 34.6562H19.4258C20.0731 34.6562 20.5977 35.1808 20.5977 35.8281ZM34.4047 26.0862C33.8785 25.7095 33.1466 25.8307 32.7698 26.3567L26.9935 34.4254C26.8358 34.6082 26.6381 34.6476 26.5324 34.6547C26.4229 34.6618 26.2115 34.648 26.0299 34.4753L22.2905 30.8846C21.8238 30.4364 21.082 30.4513 20.6336 30.9182C20.1852 31.3851 20.2003 32.1269 20.6673 32.5751L24.4104 36.1694C24.9711 36.7029 25.7193 37 26.4893 37C26.5555 37 26.6219 36.9977 26.6882 36.9934C27.5268 36.9375 28.3098 36.5297 28.8365 35.8741C28.8499 35.8574 28.8632 35.84 28.8758 35.8224L34.6754 27.7212C35.0522 27.195 34.9311 26.463 34.4047 26.0862ZM25.9232 14.0312H13.8529C13.2057 14.0312 12.6811 14.5558 12.6811 15.2031C12.6811 15.8504 13.2057 16.375 13.8529 16.375H25.9232C26.5704 16.375 27.0951 15.8504 27.0951 15.2031C27.0951 14.5558 26.5704 14.0312 25.9232 14.0312ZM27.0951 19.8906C27.0951 19.2433 26.5704 18.7188 25.9232 18.7188H13.8529C13.2057 18.7188 12.6811 19.2433 12.6811 19.8906C12.6811 20.5379 13.2057 21.0625 13.8529 21.0625H25.9232C26.5704 21.0625 27.0951 20.5379 27.0951 19.8906ZM13.8529 23.4062C13.2057 23.4062 12.6811 23.9308 12.6811 24.5781C12.6811 25.2254 13.2057 25.75 13.8529 25.75H21.1836C21.8309 25.75 22.3555 25.2254 22.3555 24.5781C22.3555 23.9308 21.8309 23.4062 21.1836 23.4062H13.8529Z" fill="#3C83F6"/>
</svg>
