<svg width="44" height="44" viewBox="0 0 44 44" fill="none" xmlns="http://www.w3.org/2000/svg">
<path d="M24.7977 15.7812C27.2592 15.7812 29.0976 17.896 29.2166 20.2551L29.2194 20.318C29.2713 21.6338 28.8548 22.6383 28.3339 23.4793L28.3337 23.4796C28.0144 23.9948 27.4403 24.5692 26.8749 25.0827C26.28 25.6231 25.5852 26.192 24.9319 26.7048C24.2764 27.2193 23.6508 27.6865 23.1894 28.0246C22.9584 28.1938 22.7675 28.3314 22.6334 28.4272C22.5665 28.475 22.5129 28.5129 22.4751 28.5395C22.4565 28.5526 22.4401 28.5641 22.4271 28.5731C22.4213 28.5771 22.4124 28.5831 22.4031 28.5894C22.3998 28.5916 22.3885 28.5991 22.3744 28.6081C22.3699 28.6109 22.3493 28.6239 22.3224 28.6391C22.3055 28.6484 22.2556 28.6739 22.2222 28.6893C22.1757 28.7077 21.9846 28.727 21.7437 28.7098C21.5079 28.7267 21.3216 28.7085 21.2753 28.6904C21.2415 28.6748 21.1911 28.6491 21.174 28.6397C21.1468 28.6244 21.126 28.6113 21.1214 28.6084C21.1071 28.5994 21.0957 28.5917 21.0924 28.5895C21.083 28.5833 21.0741 28.5771 21.0683 28.5731C21.0552 28.5641 21.0387 28.5526 21.0202 28.5396C20.9824 28.513 20.9288 28.4751 20.8619 28.4273C20.7277 28.3314 20.5368 28.1938 20.3058 28.0246C19.8444 27.6865 19.2188 27.2193 18.5633 26.7048C17.91 26.192 17.2153 25.6231 16.6203 25.0828C16.0549 24.5693 15.4808 23.9948 15.1615 23.4796L15.1614 23.4794C14.6321 22.625 14.2107 21.6019 14.2787 20.2551C14.3977 17.8961 16.236 15.7813 18.6975 15.7812C19.9991 15.7812 21.0399 16.5336 21.6573 17.1022C21.688 17.1305 21.718 17.1589 21.7476 17.1871C21.7771 17.1589 21.8072 17.1306 21.838 17.1022C22.4554 16.5336 23.4961 15.7813 24.7977 15.7812ZM24.7977 18.125C24.3904 18.125 23.9061 18.3837 23.4258 18.8261C23.205 19.0296 23.0235 19.2366 22.8974 19.3936C22.835 19.4711 22.788 19.5341 22.7583 19.5753C22.7434 19.5957 22.733 19.6106 22.7273 19.6189C22.7251 19.6221 22.7236 19.6243 22.7228 19.6254L22.7238 19.6239C22.7239 19.6237 22.7241 19.6235 22.7242 19.6234C22.7242 19.6234 22.7241 19.6234 22.7241 19.6234C22.516 19.9368 22.1713 20.1296 21.799 20.1459C21.7949 20.146 21.7907 20.1463 21.7865 20.1465C21.7862 20.1465 21.7858 20.1465 21.7854 20.1465C21.7793 20.1467 21.7732 20.1467 21.7671 20.1468C21.7606 20.1469 21.7541 20.1471 21.7476 20.1471C21.7411 20.1471 21.7345 20.1469 21.728 20.1468C21.7219 20.1467 21.7158 20.1467 21.7097 20.1465C21.7094 20.1465 21.709 20.1465 21.7087 20.1465C21.7043 20.1463 21.7 20.146 21.6957 20.1458C21.6874 20.1454 21.6791 20.1451 21.6708 20.1446C21.67 20.1445 21.6692 20.1444 21.6684 20.1444C21.3191 20.1208 20.9967 19.9418 20.7923 19.6542L20.772 19.6247C20.7723 19.6253 20.7726 19.6257 20.7728 19.6259C20.7728 19.6261 20.7729 19.6262 20.7729 19.6262C20.7725 19.6255 20.7708 19.623 20.7679 19.6189C20.7622 19.6106 20.7518 19.5957 20.7369 19.5753C20.7072 19.5341 20.6602 19.4711 20.5978 19.3936C20.4717 19.2366 20.2903 19.0296 20.0694 18.8261C19.5891 18.3837 19.1048 18.125 18.6975 18.125C17.6848 18.125 16.6862 19.0508 16.6195 20.3732V20.3732C16.5825 21.1062 16.7911 21.6595 17.1539 22.2452C17.2824 22.4524 17.6302 22.8338 18.1961 23.3477C18.7325 23.835 19.3786 24.3652 20.0104 24.8612C20.64 25.3553 21.2438 25.8063 21.691 26.1339C21.7101 26.1479 21.729 26.1617 21.7476 26.1752C21.7661 26.1617 21.7851 26.148 21.8043 26.1339C22.2514 25.8063 22.8552 25.3553 23.4848 24.8612C24.1166 24.3652 24.7627 23.835 25.2992 23.3477C25.8652 22.8337 26.2131 22.4521 26.3415 22.245C26.7042 21.6593 26.9128 21.106 26.8758 20.3732V20.3732C26.8091 19.0508 25.8104 18.125 24.7977 18.125ZM22.7225 19.6259C22.7224 19.6261 22.7223 19.6262 22.7223 19.6262C22.7224 19.6261 22.7225 19.6258 22.7228 19.6254C22.7227 19.6256 22.7226 19.6258 22.7225 19.6259Z" fill="#A856F7"/>
<path d="M11.3197 11.3197C17.0792 5.56011 26.4172 5.56011 32.1768 11.3197C36.3263 15.4691 37.4845 21.4745 35.6583 26.6585L33.4477 25.8798C34.9855 21.5143 34.0073 16.4647 30.5195 12.9769C25.6753 8.13268 17.8212 8.13268 12.9769 12.9769C8.13268 17.8212 8.13268 25.6753 12.9769 30.5195C17.8208 35.3634 25.674 35.3638 30.5183 30.5207L30.54 30.4996C30.999 30.0633 31.7248 30.0703 32.1753 30.5205L36.6565 34.9993L36.6776 35.0209C37.1142 35.4799 37.1074 36.2059 36.657 36.6565C36.1995 37.1143 35.4575 37.1145 34.9997 36.657L31.3145 32.9739C25.52 37.9228 16.8 37.6571 11.3197 32.1768C5.56011 26.4172 5.56011 17.0792 11.3197 11.3197ZM35.6583 26.6585C35.4433 27.2689 34.7741 27.5894 34.1637 27.3744C33.5532 27.1594 33.2327 26.4902 33.4477 25.8798L35.6583 26.6585Z" fill="#A856F7"/>
</svg>
