<svg width="44" height="44" viewBox="0 0 44 44" fill="none" xmlns="http://www.w3.org/2000/svg">
<path d="M20.668 9.67211C20.6681 8.20498 21.8859 6.84886 23.5345 7.01362H23.5352L23.858 7.04989C27.1876 7.45635 30.2891 8.96553 32.6656 11.3415C35.1188 13.7942 36.6483 17.0195 36.995 20.4712V20.4719L37.0061 20.6244C37.0731 22.1427 35.8427 23.2639 34.4742 23.3347L34.3372 23.3384L23.4012 23.3399C22.6763 23.3399 21.9809 23.0522 21.4683 22.5396C20.9557 22.027 20.668 21.3315 20.668 20.6066V9.67211ZM34.2595 20.6052C33.9493 17.8338 32.7074 15.2482 30.7334 13.2745C28.7591 11.3007 26.1729 10.0586 23.4012 9.7491V20.6066L34.2595 20.6052Z" fill="#3C83F6"/>
<path d="M16.152 8.13531C16.8117 7.92371 17.5376 8.24253 17.8206 8.89118C18.1224 9.58296 17.8061 10.3883 17.1144 10.6902L16.7716 10.8464C15.0723 11.6508 13.5781 12.8346 12.4059 14.3088C11.1555 15.8816 10.3093 17.7371 9.94142 19.7124C9.57358 21.6878 9.69553 23.7234 10.296 25.6409C10.8966 27.5583 11.9573 29.2995 13.3861 30.7121C14.8149 32.1247 16.568 33.1659 18.4921 33.7445C20.4163 34.323 22.4533 34.4213 24.4243 34.031C26.3953 33.6406 28.2406 32.7733 29.799 31.505C31.3574 30.2367 32.5818 28.6058 33.3644 26.7551C33.6585 26.06 34.4601 25.7349 35.1552 26.0288C35.8504 26.3228 36.1754 27.1245 35.8815 27.8197C34.925 30.0816 33.4294 32.0751 31.5247 33.6253C29.62 35.1754 27.3641 36.2353 24.9551 36.7124C22.5462 37.1895 20.0569 37.0693 17.7052 36.3622C15.3534 35.6551 13.2106 34.3827 11.4643 32.6562C9.71785 30.9296 8.4211 28.8011 7.68714 26.4575C6.95323 24.114 6.80448 21.6262 7.25406 19.212C7.70365 16.7977 8.73813 14.5306 10.2664 12.6083C11.7947 10.6861 13.7702 9.16715 16.0209 8.18492L16.152 8.13531Z" fill="#3C83F6"/>
</svg>
