<svg width="44" height="44" viewBox="0 0 44 44" fill="none" xmlns="http://www.w3.org/2000/svg">
<path d="M18.8574 11.2851V8.42838C18.8574 7.63943 19.4969 7 20.2859 7C21.0749 7 21.7143 7.63943 21.7143 8.42838V11.2851C21.7143 12.0741 21.0749 12.7143 20.2859 12.7143C19.4969 12.7143 18.8574 12.0741 18.8574 11.2851Z" fill="#A856F7"/>
<path d="M10.2852 11.2851V8.42838C10.2852 7.63943 10.9246 7 11.7136 7C12.5026 7 13.1421 7.63943 13.1421 8.42838V11.2851C13.1421 12.0741 12.5026 12.7143 11.7136 12.7143C10.9246 12.7143 10.2852 12.0741 10.2852 11.2851Z" fill="#A856F7"/>
<path d="M6 18.4291V12.7148C6.00008 11.5783 6.45145 10.4884 7.25512 9.68474C8.05879 8.88111 9.1488 8.42976 10.2854 8.42969H11.7146L11.8601 8.43665C12.5806 8.50968 13.143 9.11833 13.143 9.85806C13.143 10.5978 12.5806 11.2064 11.8601 11.2795L11.7146 11.2864H10.2854C9.90657 11.2865 9.54338 11.4372 9.27554 11.705C9.00769 11.9729 8.85698 12.3361 8.8569 12.7148V18.4291L8.86619 18.7835C8.9538 20.5488 9.69353 22.2237 10.9493 23.4795C12.2888 24.819 14.1055 25.5717 15.9999 25.5718C17.8944 25.5718 19.711 24.819 21.0506 23.4795C22.3064 22.2237 23.0469 20.5488 23.1345 18.7835L23.143 18.4291V12.7148C23.1429 12.3361 22.9922 11.9729 22.7243 11.705C22.4565 11.4372 22.0933 11.2865 21.7145 11.2864H20.2861C19.4971 11.2864 18.8568 10.647 18.8568 9.85806C18.8568 9.06911 19.4971 8.42969 20.2861 8.42969H21.7145C22.8511 8.42971 23.9411 8.88112 24.7448 9.68474C25.5484 10.4884 25.9998 11.5783 25.9999 12.7148V18.4291L25.9968 18.6775C25.9332 21.2396 24.8878 23.6831 23.071 25.4998C21.1956 27.3751 18.6522 28.4285 15.9999 28.4285C13.3478 28.4285 10.8042 27.3751 8.92887 25.4998C7.11213 23.6831 6.06666 21.2395 6.0031 18.6775L6 18.4291Z" fill="#A856F7"/>
<path d="M14.5723 26.9994C14.5723 26.2105 15.2117 25.5703 16.0007 25.5703C16.7897 25.5703 17.4292 26.2105 17.4292 26.9994C17.4293 28.8936 18.1821 30.7104 19.5216 32.0498C20.8611 33.3892 22.6779 34.1413 24.5722 34.1413C26.4665 34.1413 28.2833 33.3892 29.6229 32.0498C30.8788 30.794 31.6192 29.1185 31.7067 27.353L31.7152 26.9994V22.7135C31.7152 21.9246 32.3548 21.2853 33.1437 21.2852C33.9327 21.2852 34.5721 21.9246 34.5721 22.7135V26.9994L34.5691 27.247C34.5056 29.8093 33.4602 32.2534 31.6433 34.0701C29.7679 35.9453 27.2243 36.9988 24.5722 36.9988C21.9201 36.9988 19.3765 35.9453 17.5011 34.0701C15.6258 32.1949 14.5724 29.6514 14.5723 26.9994Z" fill="#A856F7"/>
<path d="M34.5701 19.8554C34.5699 19.0666 33.9297 18.4271 33.1408 18.4271C32.3521 18.4272 31.7125 19.0667 31.7124 19.8554C31.7124 20.6443 32.352 21.2844 33.1408 21.2846C33.9298 21.2846 34.5701 20.6444 34.5701 19.8554ZM37.427 19.8554C37.427 22.2223 35.5078 24.1413 33.1408 24.1413C30.774 24.1412 28.8555 22.2222 28.8555 19.8554C28.8556 17.4888 30.7741 15.5705 33.1408 15.5703C35.5077 15.5703 37.4268 17.4887 37.427 19.8554Z" fill="#A856F7"/>
</svg>
