<svg width="35" height="32" viewBox="0 0 35 32" fill="none" xmlns="http://www.w3.org/2000/svg">
<path d="M28.9448 9.14751C28.6932 6.57324 26.5121 4.55471 23.8749 4.55471C22.9574 4.55471 22.0818 4.79588 21.3059 5.25202C19.8378 2.65152 17.1168 1 14.2227 1C9.75045 1 6.11186 4.68054 6.0804 9.21567C3.19679 9.70851 1 12.2671 1 15.2398C1 18.6058 3.74205 21.3478 7.11326 21.3478H7.76862C8.05698 21.3478 8.29292 21.1119 8.29292 20.8235C8.29292 20.5352 8.05698 20.2992 7.76862 20.2992H7.11326C4.31877 20.2992 2.04859 18.029 2.04859 15.2398C2.04859 12.6393 4.07236 10.4268 6.65712 10.2013C6.935 10.1751 7.14471 9.91823 7.13423 9.64035C7.12899 9.51976 7.12374 9.39918 7.12374 9.27859C7.12374 5.29396 10.3062 2.05383 14.2174 2.05383C16.9018 2.05383 19.4184 3.70011 20.6295 6.24293C20.6977 6.38449 20.8288 6.48935 20.9808 6.52605C21.1329 6.56275 21.2954 6.53129 21.4212 6.43168C22.1208 5.89154 22.9806 5.60005 23.8644 5.60329C26.0979 5.60329 27.912 7.41735 27.912 9.65084C27.912 9.9392 28.1479 10.1751 28.4363 10.1751C31.2255 10.1751 33.5009 12.4453 33.5009 15.2398C33.5009 18.0343 31.2307 20.3045 28.4363 20.3045H27.8019C27.5135 20.3045 27.2776 20.5404 27.2776 20.8288C27.2776 21.1171 27.5135 21.3531 27.8019 21.3531H28.4363C31.8127 21.3478 34.5548 18.6058 34.5548 15.2398C34.5548 12.0364 32.0801 9.40442 28.9448 9.14751Z" fill="#3C83F6" stroke="#3C83F6" stroke-width="0.9"/>
<path d="M16.7648 21.8243H15.2548V15.2391C15.2548 14.9508 15.0189 14.7148 14.7305 14.7148H10.6673C10.3789 14.7148 10.143 14.9508 10.143 15.2391V21.8243H8.63299C8.43901 21.8243 8.26075 21.9291 8.17162 22.1021C8.08249 22.2751 8.09297 22.4796 8.19783 22.6422L12.2611 28.7344C12.3607 28.8812 12.5232 28.9704 12.6963 28.9704C12.8693 28.9704 13.0371 28.8812 13.1314 28.7344L17.1947 22.6422C17.2996 22.4796 17.31 22.2751 17.2209 22.1021C17.1318 21.9291 16.9588 21.8243 16.7648 21.8243ZM12.7015 27.4971L9.61867 22.8728H10.6725C10.9609 22.8728 11.1968 22.6369 11.1968 22.3486V15.7634H14.2115V22.3486C14.2115 22.6369 14.4474 22.8728 14.7358 22.8728H15.7896L12.7015 27.4971ZM23.2922 16.9798C23.0982 16.6862 22.6159 16.6862 22.4219 16.9798L18.3586 23.0721C18.2538 23.2346 18.2433 23.4391 18.3324 23.6121C18.4215 23.7851 18.5998 23.89 18.7938 23.89H20.3038V30.4751C20.3038 30.7635 20.5397 30.9994 20.8281 30.9994H24.8913C25.1797 30.9994 25.4156 30.7635 25.4156 30.4751V23.89H26.9256C27.1196 23.89 27.2978 23.7851 27.387 23.6121C27.4761 23.4391 27.4656 23.2346 27.3607 23.0721L23.2922 16.9798ZM24.8861 22.8414C24.5977 22.8414 24.3618 23.0773 24.3618 23.3657V29.9508H21.3471V23.3657C21.3471 23.0773 21.1112 22.8414 20.8228 22.8414H19.769L22.8518 18.2171L25.9347 22.8414H24.8861Z" fill="#3C83F6" stroke="#3C83F6" stroke-width="0.9"/>
</svg>
