<svg width="44" height="44" viewBox="0 0 44 44" fill="none" xmlns="http://www.w3.org/2000/svg">
<path d="M32.1032 11.9476C28.4916 11.8203 24.354 9.74532 21.4872 7.24227C21.439 7.20287 21.3782 7.18109 21.3158 7.18109C21.2517 7.18119 21.1897 7.20417 21.1409 7.24571C18.2911 9.73062 14.1413 11.8194 10.5292 11.9476L10.1811 11.9545V23.0891C10.1811 26.6457 11.4074 29.2307 13.3415 31.2116C15.1955 33.1104 17.7635 34.5155 20.7152 35.5947L21.3106 35.8066L21.3459 35.8187C24.5355 34.7056 27.3179 33.2402 29.2918 31.2151C31.225 29.2316 32.4513 26.6457 32.4513 23.0891V11.9545L32.1032 11.9476ZM35.6324 23.0891C35.6324 27.486 34.0747 30.8655 31.5699 33.4355C29.2623 35.803 26.2129 37.4222 23.0209 38.5983L22.3807 38.8283C22.3765 38.8298 22.3721 38.8312 22.3678 38.8326C21.6868 39.0634 20.9484 39.0546 20.2724 38.8119V38.8137C16.8407 37.6286 13.5296 35.9587 11.0651 33.4346C8.55731 30.8662 7.00002 27.4859 7 23.0891V11.9545C7 11.1108 7.33494 10.3014 7.93141 9.70477C8.528 9.10818 9.33739 8.77254 10.1811 8.7725L10.4344 8.76819C13.0735 8.66804 16.5485 7.03315 19.0609 4.83835L19.0739 4.82715L19.1928 4.72979C19.798 4.25756 20.5452 4.00009 21.3158 4C22.0866 4 22.8343 4.25747 23.4397 4.72979L23.5586 4.82715L23.5724 4.83922L24.0721 5.25882C26.6267 7.31935 29.9502 8.7725 32.4513 8.7725C33.295 8.77255 34.1044 9.10818 34.701 9.70477C35.2975 10.3014 35.6324 11.1108 35.6324 11.9545V23.0891Z" fill="#A856F7"/>
<path d="M25.0841 17.0832C25.7088 16.5736 26.6307 16.6102 27.2131 17.1926C27.8338 17.8137 27.8338 18.8203 27.2131 19.4414L20.8501 25.8045C20.2677 26.3869 19.3458 26.4235 18.721 25.9139L18.6004 25.8045L15.4193 22.6234L15.3099 22.5028C14.8 21.878 14.8368 20.9562 15.4193 20.3737C16.0016 19.7915 16.9228 19.7549 17.5475 20.2643L17.6681 20.3737L19.7248 22.4295L24.9634 17.1926L25.0841 17.0832Z" fill="#A856F7"/>
</svg>
