<svg width="44" height="44" viewBox="0 0 44 44" fill="none" xmlns="http://www.w3.org/2000/svg">
<path d="M7.49971 7.49971V16.2499H35.5002V7.49971H7.49971ZM39.0009 16.2499C39.0009 18.183 37.4333 19.7496 35.5002 19.7496H7.49971C5.56676 19.7495 4 18.1829 4 16.2499V7.49971C4.0001 5.56682 5.56682 4.0001 7.49971 4H35.5002C37.4332 4 39.0008 5.56676 39.0009 7.49971V16.2499Z" fill="#A856F7"/>
<path d="M7.49971 26.7497V35.4999H19.7496V26.7497H7.49971ZM23.2503 35.4999C23.2503 37.433 21.6827 38.9996 19.7496 38.9996H7.49971C5.56676 38.9995 4 37.4329 4 35.4999V26.7497C4.0001 24.8168 5.56682 23.2501 7.49971 23.25H19.7496C21.6826 23.25 23.2502 24.8168 23.2503 26.7497V35.4999Z" fill="#A856F7"/>
<path d="M30.2497 26.7497V35.4999H35.5002V26.7497H30.2497ZM38.9999 35.4999C38.9999 37.4329 37.4331 38.9995 35.5002 38.9996H30.2497C28.3168 38.9995 26.75 37.4329 26.75 35.4999V26.7497C26.7501 24.8168 28.3168 23.2501 30.2497 23.25H35.5002C37.4331 23.2501 38.9998 24.8168 38.9999 26.7497V35.4999Z" fill="#A856F7"/>
</svg>
