<svg width="35" height="35" viewBox="0 0 35 35" fill="none" xmlns="http://www.w3.org/2000/svg">
<g clip-path="url(#clip0_182_781)">
<path d="M12.518 2.16211C15.2703 2.16211 17.501 4.39274 17.501 7.14503V27.8572C17.501 30.6076 15.2703 32.8382 12.518 32.8382C9.95066 32.8382 7.83679 30.8957 7.56431 28.4004C5.73077 27.8125 4.40323 26.0938 4.40323 24.0636C4.40323 23.5809 4.4772 23.1157 4.61733 22.6797C2.3478 22.049 0.683594 19.9702 0.683594 17.5002C0.683594 15.0321 2.3478 12.9513 4.6174 12.3226C4.47727 11.8847 4.4033 11.4195 4.4033 10.9368C4.4033 8.90665 5.73077 7.18789 7.56437 6.60007C7.83679 4.10468 9.95066 2.16211 12.518 2.16211Z" stroke="#A856F7" stroke-width="1.8" stroke-miterlimit="10" stroke-linecap="round" stroke-linejoin="round"/>
<path d="M6.44713 14.7382C5.21502 13.9226 4.40332 12.525 4.40332 10.9368C4.403 10.4093 4.49387 9.88582 4.67191 9.38934M6.44713 20.2642C5.21502 21.0778 4.40332 22.4753 4.40332 24.0636C4.403 24.5911 4.49387 25.1146 4.67191 25.6111M12.5181 12.126C9.76584 12.126 7.53521 9.8954 7.53521 7.14503C7.53521 6.96012 7.54491 6.7791 7.5644 6.60198M12.5181 22.8743C9.76584 22.8743 7.53521 25.105 7.53521 27.8572C7.53521 28.0402 7.54491 28.2212 7.5644 28.4003M17.575 17.5002H26.4003M22.4821 32.8382C19.7317 32.8382 17.501 30.6076 17.501 27.8572V7.14503C17.501 4.39274 19.7317 2.16211 22.4821 2.16211C25.0494 2.16211 27.1652 4.10468 27.4358 6.6C29.2693 7.18782 30.5969 8.90658 30.5969 10.9367C30.5969 11.4195 30.5229 11.8847 30.3828 12.3226C32.6523 12.9513 34.3165 15.0321 34.3165 17.5002C34.3165 19.9702 32.6523 22.049 30.3827 22.6797C30.5228 23.1157 30.5968 23.5809 30.5968 24.0636C30.5968 26.0938 29.2693 27.8125 27.4357 28.4004C27.1652 30.8957 25.0494 32.8382 22.4821 32.8382Z" stroke="#A856F7" stroke-width="1.8" stroke-miterlimit="10" stroke-linecap="round" stroke-linejoin="round"/>
<path d="M28.099 15.8027C27.1608 15.8027 26.3997 16.5618 26.3997 17.5C26.3997 18.4382 27.1607 19.1993 28.099 19.1993C29.0372 19.1993 29.7963 18.4382 29.7963 17.5C29.7963 16.5618 29.0372 15.8027 28.099 15.8027ZM23.9199 8.66113C22.9818 8.66113 22.2227 9.42218 22.2227 10.3604C22.2227 11.2986 22.9818 12.0577 23.9199 12.0577C24.8581 12.0577 25.6192 11.2986 25.6192 10.3604C25.6192 9.42218 24.8581 8.66113 23.9199 8.66113Z" stroke="#A856F7" stroke-width="1.8" stroke-miterlimit="10" stroke-linecap="round" stroke-linejoin="round"/>
<path d="M17.501 14.2923H21.6509L23.0717 11.8301M23.9204 26.3389C22.9822 26.3389 22.2231 25.5798 22.2231 24.6417C22.2231 23.7035 22.9822 22.9424 23.9204 22.9424C24.8586 22.9424 25.6197 23.7034 25.6197 24.6417C25.6197 25.5798 24.8586 26.3389 23.9204 26.3389Z" stroke="#A856F7" stroke-width="1.8" stroke-miterlimit="10" stroke-linecap="round" stroke-linejoin="round"/>
<path d="M17.501 20.708H21.6509L23.0717 23.1702" stroke="#A856F7" stroke-width="1.8" stroke-miterlimit="10" stroke-linecap="round" stroke-linejoin="round"/>
</g>
<defs>
<clipPath id="clip0_182_781">
<rect width="35" height="35" fill="white"/>
</clipPath>
</defs>
</svg>
