<svg width="44" height="44" viewBox="0 0 44 44" fill="none" xmlns="http://www.w3.org/2000/svg">
<path d="M32.2324 11.5885V9.46102C32.2324 7.1958 30.396 5.35947 28.1308 5.35947H14.8691C12.6039 5.35947 10.7676 7.1958 10.7676 9.46102V33.5234C10.7676 35.7887 12.6039 37.625 14.8691 37.625H28.1308C30.396 37.625 32.2324 35.7887 32.2324 33.5234V30.9341" stroke="#A856F7" stroke-width="3" stroke-miterlimit="10" stroke-linecap="round"/>
<path d="M21.6328 32.7812C21.6328 32.7079 21.5733 32.6484 21.5 32.6484C21.4451 32.6484 21.3981 32.6819 21.3779 32.7295L21.3672 32.7812C21.3672 32.8546 21.4267 32.9141 21.5 32.9141L21.5518 32.9033C21.5993 32.8831 21.6328 32.8362 21.6328 32.7812Z" fill="#A856F7" stroke="#A856F7" stroke-width="3"/>
<path d="M20.1328 10.2188H22.8672" stroke="#A856F7" stroke-width="3" stroke-miterlimit="10" stroke-linecap="round"/>
<mask id="path-4-inside-1_4367_445" fill="white">
<path d="M26.1019 28.3359C26.7226 28.3359 27.3359 27.9269 27.5042 27.3346L30.6095 16.4109C30.8587 15.5342 30.1942 14.6641 29.2755 14.6641C28.6548 14.6641 28.1098 15.0732 27.9415 15.6654L24.8362 26.5892C24.587 27.4659 25.1832 28.3359 26.1019 28.3359Z"/>
</mask>
<path d="M26.1019 28.3359C26.7226 28.3359 27.3359 27.9269 27.5042 27.3346L30.6095 16.4109C30.8587 15.5342 30.1942 14.6641 29.2755 14.6641C28.6548 14.6641 28.1098 15.0732 27.9415 15.6654L24.8362 26.5892C24.587 27.4659 25.1832 28.3359 26.1019 28.3359Z" fill="#A856F7"/>
<path d="M27.5042 27.3346L30.3899 28.1549L30.3899 28.1549L27.5042 27.3346ZM30.6095 16.4109L27.7238 15.5906L27.7238 15.5905L30.6095 16.4109ZM27.9415 15.6654L25.0558 14.8451L25.0558 14.8451L27.9415 15.6654ZM24.8362 26.5892L21.9505 25.769L21.9505 25.7688L24.8362 26.5892ZM26.1019 28.3359V25.3359C25.7675 25.3359 25.4803 25.4401 25.2528 25.5993C25.022 25.7608 24.7489 26.0557 24.6186 26.5143L27.5042 27.3346L30.3899 28.1549C29.8062 30.2082 27.8767 31.3359 26.1019 31.3359V28.3359ZM27.5042 27.3346L24.6186 26.5143L27.7238 15.5906L30.6095 16.4109L33.4951 17.2312L30.3899 28.1549L27.5042 27.3346ZM30.6095 16.4109L27.7238 15.5905C27.4189 16.6632 28.2379 17.6641 29.2755 17.6641V14.6641V11.6641C32.1504 11.6641 34.2985 14.4052 33.4951 17.2312L30.6095 16.4109ZM29.2755 14.6641V17.6641C29.9805 17.6641 30.6247 17.1978 30.8271 16.4858L27.9415 15.6654L25.0558 14.8451C25.595 12.9485 27.329 11.6641 29.2755 11.6641V14.6641ZM27.9415 15.6654L30.8271 16.4857L27.7219 27.4095L24.8362 26.5892L21.9505 25.7688L25.0558 14.8451L27.9415 15.6654ZM24.8362 26.5892L27.7219 27.4093C27.8456 26.9741 27.7721 26.469 27.4755 26.0521C27.1661 25.6173 26.6485 25.3359 26.1019 25.3359V28.3359V31.3359C23.0043 31.3359 21.2092 28.377 21.9505 25.769L24.8362 26.5892Z" fill="#A856F7" mask="url(#path-4-inside-1_4367_445)"/>
<path d="M21.5 17.3282L18.1144 20.1667C17.2509 20.9001 17.2509 22.2328 18.1144 22.9661L21.5 25.8047" stroke="#A856F7" stroke-width="3" stroke-miterlimit="10" stroke-linecap="round" stroke-linejoin="round"/>
<path d="M33.668 17.3282L36.9852 20.1667C37.8487 20.9001 37.8487 22.2328 36.9852 22.9661L33.668 25.8047" stroke="#A856F7" stroke-width="3" stroke-miterlimit="10" stroke-linecap="round" stroke-linejoin="round"/>
</svg>
