<svg width="45" height="44" viewBox="0 0 45 44" fill="none" xmlns="http://www.w3.org/2000/svg">
<path d="M25.4681 10.1391C26.0455 9.59053 26.9583 9.6133 27.5069 10.1906C28.0554 10.768 28.0318 11.6809 27.4546 12.2295L24.5705 14.9698L24.458 15.0659C23.8799 15.5132 23.046 15.4588 22.5317 14.9174C21.9831 14.34 22.0058 13.4272 22.5832 12.8786L25.4681 10.1391Z" fill="#3C83F6"/>
<path d="M8.05226 15.2701C8.25079 14.5504 8.96122 14.1092 9.68176 14.2311L9.82628 14.2632L14.0086 15.4169L14.1485 15.4638C14.8299 15.7283 15.2141 16.4711 15.0155 17.191C14.8169 17.9109 14.106 18.3523 13.3853 18.2299L13.2415 18.1979L9.05918 17.0441L8.91935 16.9972C8.23785 16.7327 7.85368 15.9899 8.05226 15.2701Z" fill="#3C83F6"/>
<path d="M13.2275 26.4526C12.6789 27.0298 11.7661 27.0534 11.1887 26.5049C10.6113 25.9563 10.5886 25.0435 11.1371 24.4661L13.2275 26.4526ZM13.9837 21.4797C14.5381 21.0033 15.3741 21.0154 15.9155 21.5297C16.4929 22.0783 16.5164 22.9911 15.9678 23.5685L13.2275 26.4526L11.1371 24.4661L13.8767 21.5812L13.9837 21.4797Z" fill="#3C83F6"/>
<path d="M16.2701 7.05226C16.9899 6.85368 17.7327 7.23785 17.9972 7.91935L18.0441 8.05918L19.1979 12.2415L19.2299 12.3853C19.3523 13.106 18.9109 13.8169 18.191 14.0155C17.4711 14.2141 16.7283 13.8299 16.4638 13.1485L16.4169 13.0086L15.2632 8.82628L15.2311 8.68176C15.1092 7.96122 15.5504 7.25079 16.2701 7.05226Z" fill="#3C83F6"/>
<path d="M19.7111 16.8194C20.0772 16.7762 20.4486 16.8285 20.7906 16.9702L20.7914 16.9686L36.6553 23.4585L36.6561 23.4593L36.8123 23.5304C37.1168 23.6845 37.3804 23.9087 37.5817 24.1842L37.6778 24.3264L37.7614 24.4756C37.9428 24.8303 38.023 25.2293 37.9918 25.6286C37.9563 26.085 37.777 26.5188 37.4794 26.8667C37.1819 27.2146 36.7818 27.4591 36.3366 27.5651L36.3358 27.5643L30.0662 29.0657L30.0654 29.0665L30.0646 29.0657L28.5663 35.3314L28.5671 35.3322C28.4622 35.779 28.2179 36.1809 27.8695 36.4797C27.5211 36.7786 27.0867 36.9589 26.6291 36.9945C26.1714 37.0301 25.7142 36.9194 25.3237 36.6782C24.9341 36.4373 24.6312 36.0789 24.4582 35.6548V35.6556L17.9683 19.7918L17.9699 19.791C17.8077 19.3994 17.7632 18.9692 17.8441 18.5528L17.88 18.3958C17.9787 18.0342 18.1706 17.7037 18.437 17.4373L18.555 17.328C18.839 17.0833 19.1827 16.9163 19.5525 16.8444L19.7111 16.8194ZM26.2799 32.4911L27.2602 28.3939L27.261 28.3924L27.3141 28.2002C27.4534 27.7577 27.6977 27.3545 28.0273 27.0253C28.4039 26.6493 28.8769 26.3843 29.3944 26.2606L33.4892 25.2802L21.2882 20.2886L26.2799 32.4911Z" fill="#3C83F6"/>
</svg>
