<svg width="44" height="44" viewBox="0 0 44 44" fill="none" xmlns="http://www.w3.org/2000/svg">
<path d="M30.0905 11.0905C30.0904 10.3375 29.48 9.727 28.727 9.727H15.0905C14.3376 9.72715 13.7272 10.3376 13.727 11.0905V32.9088C13.727 33.6618 14.3375 34.2728 15.0905 34.273H28.727C29.4801 34.273 30.0905 33.6619 30.0905 32.9088V11.0905ZM32.8182 32.9088C32.8182 35.1681 30.9864 37 28.727 37H15.0905C12.8313 36.9999 11 35.168 11 32.9088V11.0905C11.0001 8.83137 12.8314 7.00015 15.0905 7H28.727C30.9863 7 32.8181 8.83128 32.8182 11.0905V32.9088Z" fill="#A856F7"/>
<path d="M21.9217 28.8164L22.0613 28.8231C22.749 28.8928 23.286 29.4738 23.286 30.1799C23.286 30.886 22.749 31.467 22.0613 31.5368L21.9217 31.5434H21.9084C21.1553 31.5434 20.5449 30.933 20.5449 30.1799C20.5449 29.4268 21.1553 28.8164 21.9084 28.8164H21.9217Z" fill="#A856F7"/>
</svg>
