<svg width="44" height="44" viewBox="0 0 44 44" fill="none" xmlns="http://www.w3.org/2000/svg">
<path d="M28.1853 30.4392V32.7536C28.1853 34.4576 26.8039 35.8391 25.0998 35.8391H13.2464C11.5424 35.8391 10.1609 34.4576 10.1609 32.7536V11.2464C10.1609 9.54236 11.5424 8.1609 13.2464 8.1609H25.0998C26.8039 8.1609 28.1853 9.54236 28.1853 11.2464V13.148C28.1853 13.4686 28.4452 13.7284 28.7658 13.7284C29.0863 13.7284 29.3462 13.4686 29.3462 13.148V11.2464C29.3462 8.90122 27.445 7 25.0998 7H13.2464C10.9012 7 9.00001 8.90122 9 11.2464V32.7536C9 35.0988 10.9012 37 13.2464 37H25.0998C27.445 37 29.3462 35.0988 29.3462 32.7536V30.4392C29.3462 30.1187 29.0863 29.8588 28.7658 29.8588C28.4452 29.8588 28.1853 30.1187 28.1853 30.4392Z" fill="#3C83F6" stroke="#3C83F6" stroke-miterlimit="10" stroke-linecap="round"/>
<path d="M19.1732 33.3086C18.4983 33.3086 17.9512 32.7615 17.9512 32.0866C17.9512 31.4117 18.4983 30.8646 19.1732 30.8646C19.8481 30.8646 20.3952 31.4117 20.3952 32.0866C20.3952 32.7615 19.8481 33.3086 19.1732 33.3086Z" fill="#3C83F6"/>
<path d="M20.3955 12.5039L20.4254 12.5031C20.7321 12.4876 20.976 12.234 20.976 11.9235C20.976 11.6129 20.7321 11.3593 20.4254 11.3438L20.3955 11.343H17.9515C17.631 11.343 17.3711 11.6029 17.3711 11.9235C17.3711 12.244 17.631 12.5039 17.9515 12.5039H20.3955Z" fill="#3C83F6" stroke="#3C83F6" stroke-miterlimit="10" stroke-linecap="round"/>
<path d="M23.2837 28.1172C23.8385 28.1172 24.3866 27.7516 24.5371 27.2222L27.3126 17.4585C27.5354 16.6749 26.9414 15.8972 26.1203 15.8972C25.5655 15.8972 25.0784 16.2629 24.9279 16.7922L22.1524 26.5559C21.9297 27.3395 22.4625 28.1172 23.2837 28.1172Z" fill="#3C83F6"/>
<path d="M18.7987 26.3019C19.0444 26.5078 19.4105 26.4756 19.6164 26.23C19.8224 25.9843 19.7903 25.6182 19.5446 25.4122L16.5213 22.8776L16.5214 22.8775C16.0225 22.4538 16.0225 21.6839 16.5214 21.2602H16.5213L19.5446 18.7255L19.567 18.7057C19.792 18.4968 19.816 18.1457 19.6164 17.9077C19.4169 17.6698 19.0671 17.6321 18.8221 17.8173L18.7987 17.8359L15.7727 20.373C15.7718 20.3737 15.7708 20.3746 15.7699 20.3753C14.7251 21.2626 14.7251 22.8751 15.7699 23.7623L15.7727 23.7647L18.7987 26.3019Z" fill="#3C83F6" stroke="#3C83F6" stroke-miterlimit="10" stroke-linecap="round" stroke-linejoin="round"/>
<path d="M29.6062 26.2344C29.8082 26.4704 30.1583 26.5045 30.4014 26.3169L30.4246 26.2981L33.3895 23.761H33.3895C34.4326 22.8734 34.4321 21.2622 33.3879 20.3754L33.3879 20.3754L30.4246 17.8397L30.4014 17.8208C30.1583 17.6332 29.8082 17.6674 29.6062 17.9033C29.3978 18.1469 29.4263 18.5133 29.6699 18.7217L32.6348 21.2588L32.6364 21.2602C33.1353 21.6839 33.1353 22.4539 32.6364 22.8775C32.6359 22.878 32.6353 22.8784 32.6348 22.8789L29.6699 25.416L29.6477 25.436C29.4247 25.6472 29.4043 25.9985 29.6062 26.2344Z" fill="#3C83F6" stroke="#3C83F6" stroke-miterlimit="10" stroke-linecap="round" stroke-linejoin="round"/>
</svg>
