<svg width="39" height="35" viewBox="0 0 39 35" fill="none" xmlns="http://www.w3.org/2000/svg">
<path d="M23.1556 30.4862H15.7941C14.454 30.4862 14.454 28.4612 15.7941 28.4612H23.1556C24.4957 28.4612 24.4957 30.4862 23.1556 30.4862ZM28.4791 34.5403H10.4701C9.13 34.5403 9.13 32.5153 10.4701 32.5153H28.4791C29.8192 32.5153 29.8192 34.5403 28.4791 34.5403ZM18.4626 0.459961C13.9995 0.701611 9.9805 2.50566 6.88855 5.29206L10.7473 9.15081C12.8034 7.36341 15.4372 6.15201 18.4626 5.92791V0.459961ZM6.097 18.298C6.3121 15.3482 7.47445 12.7346 9.3172 10.5845L5.44945 6.71676C2.64415 9.83256 0.86035 13.7638 0.625 18.298H6.097ZM6.088 20.323H0.625C0.8365 24.3046 2.2585 27.9649 4.5589 30.9187C4.91035 31.3696 5.57905 31.4186 6.0151 31.0487L8.6287 28.8347C9.0535 28.4747 9.09535 27.8546 8.7592 27.4105C7.20379 25.3551 6.2761 22.8937 6.088 20.323ZM35.6436 9.54006C34.7301 10.6619 33.3742 12.3256 31.8586 14.1818C32.5196 15.764 32.9071 17.488 32.9071 19.3105C32.9117 22.254 31.9451 25.1168 30.1572 27.455C29.8314 27.8816 29.9236 28.4959 30.334 28.8415L32.9359 31.0316C33.3774 31.4033 34.0532 31.3525 34.4074 30.8966C36.9848 27.5848 38.3812 23.5065 38.3746 19.31C38.3751 15.6776 37.3581 12.3589 35.6436 9.54006ZM34.4384 7.81071C31.1287 3.53976 26.0671 0.762361 20.4876 0.461311V5.93286C23.9575 6.19746 27.5219 7.81476 30.0527 11.0512C30.0527 11.0512 17.9973 19.9999 17.5684 20.4292C17.0997 20.9037 16.8378 21.5443 16.8399 22.2113C16.842 22.8782 17.1078 23.5173 17.5794 23.9889C18.051 24.4605 18.6901 24.7263 19.357 24.7284C20.024 24.7305 20.6646 24.4686 21.1392 23.9999C21.7782 23.3605 34.4384 7.81071 34.4384 7.81071Z" fill="#A856F7"/>
</svg>
