<svg width="44" height="44" viewBox="0 0 44 44" fill="none" xmlns="http://www.w3.org/2000/svg">
<path d="M16.873 5.0013C17.6725 4.98464 18.4674 5.12869 19.2107 5.4237C19.954 5.71872 20.6311 6.15893 21.2016 6.71933C21.7722 7.27975 22.2247 7.9488 22.533 8.68674C22.8407 9.42338 22.9986 10.2141 22.9968 11.0124V30.5094C22.9957 31.5342 22.7844 32.5482 22.3762 33.4881C21.968 34.4282 21.3707 35.275 20.6225 35.9754C19.8743 36.6758 18.9905 37.2156 18.0256 37.5611C17.0608 37.9065 16.0355 38.0506 15.0128 37.9843C13.9901 37.9179 12.9918 37.6425 12.0797 37.1752C11.1675 36.7079 10.3608 36.0584 9.70943 35.2671C9.05806 34.4758 8.57532 33.5593 8.29199 32.5743C8.09848 31.9015 8.00354 31.2063 8.00282 30.5094C7.28832 29.9742 6.67236 29.3147 6.18736 28.5591C5.52754 27.5309 5.12934 26.3566 5.0266 25.1392C4.92388 23.922 5.11957 22.6981 5.59764 21.574C5.92291 20.8093 6.37174 20.1058 6.9241 19.4921C6.67856 18.7925 6.53522 18.0586 6.50496 17.3135C6.45884 16.1768 6.67258 15.0446 7.1288 14.0025C7.585 12.9604 8.27197 12.0355 9.13839 11.2983C9.71826 10.805 10.3692 10.4059 11.0659 10.1099C11.1267 9.70469 11.2286 9.30531 11.3714 8.91906C11.6486 8.16902 12.0732 7.48167 12.6198 6.89804C13.1665 6.31442 13.8244 5.84606 14.5547 5.52036C15.2851 5.19462 16.0734 5.01796 16.873 5.0013ZM16.9355 8.00034C16.5358 8.00867 16.1416 8.09663 15.7764 8.25947C15.4112 8.42234 15.0823 8.65725 14.809 8.94912C14.5357 9.24094 14.3229 9.58461 14.1843 9.95963C14.0458 10.3345 13.9838 10.7334 14.0015 11.1326C14.0332 11.8412 13.5642 12.4757 12.8773 12.6524C12.2163 12.8224 11.6021 13.1402 11.0822 13.5825C10.5623 14.0248 10.1497 14.5802 9.87595 15.2055C9.60228 15.8308 9.4746 16.5105 9.5023 17.1924C9.53005 17.8744 9.71247 18.541 10.036 19.142C10.3772 19.7759 10.2194 20.5628 9.66069 21.0168C9.09187 21.4789 8.64466 22.0733 8.35778 22.7478C8.0709 23.4223 7.95336 24.157 8.015 24.8874C8.07669 25.6177 8.31611 26.3217 8.71194 26.9385C9.10779 27.5553 9.64793 28.0664 10.2862 28.4266C10.8177 28.7267 11.1148 29.3191 11.0367 29.9245C10.9579 30.5344 11.0048 31.1548 11.1748 31.7457C11.3448 32.3366 11.6345 32.8859 12.0253 33.3606C12.4161 33.8354 12.8995 34.2256 13.4468 34.506C13.9941 34.7864 14.5933 34.9511 15.207 34.9909C15.8206 35.0307 16.4362 34.9448 17.0151 34.7375C17.5939 34.5302 18.1243 34.2064 18.5731 33.7863C19.0219 33.366 19.3801 32.858 19.625 32.2941C19.8698 31.7304 19.9962 31.1223 19.997 30.5078V11.0075L19.9938 10.858C19.9774 10.5093 19.9004 10.1655 19.7655 9.84265C19.6114 9.47374 19.3847 9.13912 19.0995 8.85895C18.8143 8.57891 18.4759 8.359 18.1044 8.21154C17.7328 8.06404 17.3353 7.99202 16.9355 8.00034Z" fill="#A856F7"/>
<path d="M26.1211 5.00129C26.9206 5.01795 27.709 5.19468 28.4393 5.52036C29.1696 5.84602 29.8276 6.31448 30.3742 6.89803C30.9208 7.48164 31.3454 8.16905 31.6227 8.91905C31.7655 9.3055 31.8666 9.70528 31.9273 10.1107C32.6243 10.4068 33.2756 10.8048 33.8557 11.2983C34.7222 12.0355 35.4098 12.9603 35.8661 14.0025C36.3222 15.0446 36.5352 16.1768 36.4891 17.3135C36.4588 18.0587 36.3148 18.7924 36.0691 19.4921C36.6217 20.1059 37.071 20.809 37.3964 21.574C37.8745 22.6981 38.071 23.922 37.9683 25.1392C37.8655 26.3566 37.4665 27.5309 36.8067 28.5591C36.3219 29.3144 35.7062 29.9735 34.992 30.5086C34.9914 31.2058 34.8957 31.9012 34.7021 32.5743C34.4188 33.5592 33.9367 34.4759 33.2854 35.2671C32.6341 36.0583 31.8272 36.7079 30.9152 37.1752C30.0031 37.6425 29.0046 37.9179 27.982 37.9843C26.9593 38.0506 25.9334 37.9066 24.9684 37.5611C24.0036 37.2156 23.1197 36.6759 22.3716 35.9754C21.6234 35.275 21.0269 34.4282 20.6186 33.4881C20.2615 32.6657 20.0546 31.787 20.0078 30.8936L19.9981 30.5094V11.0124C19.9963 10.2141 20.1534 9.42335 20.4611 8.68673C20.7693 7.94877 21.2227 7.27976 21.7932 6.71932C22.3636 6.1591 23.0402 5.71867 23.7833 5.42369C24.5265 5.12872 25.3216 4.98468 26.1211 5.00129ZM26.0593 8.00033C25.6596 7.992 25.2621 8.06408 24.8905 8.21153C24.5188 8.35902 24.1798 8.57878 23.8946 8.85894C23.6094 9.13907 23.3835 9.47381 23.2293 9.84265C23.0752 10.2115 22.9959 10.6077 22.997 11.0075V30.5062L23.0035 30.7369C23.0316 31.2729 23.1556 31.8006 23.3699 32.294C23.6148 32.8579 23.9722 33.3661 24.421 33.7863C24.8699 34.2065 25.4008 34.5302 25.9797 34.7375C26.5585 34.9447 27.1736 35.0307 27.7871 34.9909C28.4007 34.9511 29 34.7863 29.5473 34.506C30.0946 34.2256 30.5788 33.8354 30.9696 33.3606C31.3602 32.886 31.6493 32.3364 31.8193 31.7457C31.9893 31.1547 32.037 30.5344 31.9582 29.9245C31.8801 29.3191 32.1763 28.7267 32.7079 28.4266C33.3462 28.0663 33.887 27.5554 34.2829 26.9385C34.6787 26.3217 34.9182 25.6176 34.9799 24.8874C35.0415 24.157 34.9232 23.4223 34.6363 22.7478C34.3494 22.0733 33.9023 21.479 33.3334 21.0168C32.7746 20.5628 32.6169 19.7758 32.9581 19.142C33.2816 18.541 33.4648 17.8744 33.4926 17.1924C33.5203 16.5104 33.3918 15.8308 33.1181 15.2055C32.8444 14.5802 32.4318 14.0248 31.9119 13.5825C31.392 13.1404 30.7784 12.8224 30.1175 12.6524C29.4305 12.4758 28.9609 11.8413 28.9925 11.1326C29.0103 10.7333 28.9482 10.3345 28.8097 9.95962C28.6712 9.58471 28.4591 9.24089 28.1859 8.94911C27.9126 8.65724 27.5829 8.42233 27.2177 8.25946C26.8527 8.09676 26.4588 8.00871 26.0593 8.00033Z" fill="#A856F7"/>
<path d="M21.4995 15.5117C22.2957 15.5119 22.953 16.1342 22.9965 16.9292C23.053 17.9658 23.4159 18.9629 24.0387 19.7934C24.6227 20.572 25.4107 21.1719 26.3139 21.5277L26.4959 21.5951L26.638 21.6536C27.3256 21.977 27.6703 22.775 27.4129 23.5073C27.1553 24.2397 26.3866 24.6466 25.6478 24.4682L25.5 24.4244L25.2141 24.318C23.795 23.7588 22.5568 22.8161 21.6392 21.5927C21.5911 21.5285 21.5448 21.4631 21.4987 21.3977C21.4526 21.463 21.407 21.5286 21.359 21.5927C20.3803 22.8976 19.0368 23.883 17.4982 24.4244L17.3503 24.4682C16.6116 24.6465 15.8429 24.2396 15.5852 23.5073C15.3107 22.7261 15.7213 21.87 16.5023 21.5951L16.6851 21.5277C17.588 21.1719 18.3756 20.5718 18.9595 19.7934C19.5823 18.9629 19.9451 17.9658 20.0016 16.9292L20.0171 16.783C20.1278 16.0591 20.7526 15.5117 21.4995 15.5117Z" fill="#A856F7"/>
<path d="M30.5548 9.70053C31.3823 9.73487 32.0252 10.4342 31.9909 11.2618L31.9649 11.6233C31.879 12.4632 31.6166 13.277 31.1932 14.0106L31.1096 14.1398C30.6651 14.7562 29.8171 14.9486 29.1446 14.5606C28.4273 14.1466 28.1817 13.2293 28.5955 12.5119L28.6816 12.3519C28.8701 11.9742 28.9768 11.5598 28.9944 11.1367L29.0082 10.984C29.1163 10.2317 29.7791 9.66841 30.5548 9.70053Z" fill="#A856F7"/>
<path d="M12.4417 9.70048C13.2172 9.66895 13.8789 10.2326 13.9866 10.9847L14.0012 11.1383L14.0134 11.3186C14.05 11.6785 14.1519 12.0288 14.3132 12.3527L14.3993 12.5127L14.4683 12.6492C14.7795 13.3428 14.5206 14.1729 13.8477 14.5605C13.175 14.948 12.3276 14.7556 11.8836 14.1389L11.7999 14.0098L11.6286 13.6905C11.3058 13.0427 11.103 12.3417 11.0299 11.6216L11.0039 11.2601L11.0055 11.1066C11.0515 10.348 11.666 9.73219 12.4417 9.70048Z" fill="#A856F7"/>
<path d="M8.86565 17.9504C9.58977 17.5485 10.5025 17.8096 10.9045 18.5337C11.3064 19.2578 11.0453 20.1706 10.3213 20.5726C10.0892 20.7013 9.86907 20.8509 9.66332 21.0185C9.02121 21.5414 8.07684 21.4444 7.55381 20.8024C7.03085 20.1603 7.12708 19.2159 7.76907 18.6929C8.11194 18.4136 8.47901 18.165 8.86565 17.9504Z" fill="#A856F7"/>
<path d="M32.091 18.534C32.4678 17.8553 33.2934 17.583 33.9918 17.8826L34.1298 17.9508L34.4158 18.1181C34.6982 18.2917 34.9692 18.4838 35.2264 18.6933C35.8684 19.2163 35.9653 20.1607 35.4425 20.8028C34.9195 21.445 33.9744 21.5419 33.3322 21.0189C33.178 20.8933 33.0158 20.7777 32.8464 20.6737L32.6742 20.5729L32.5443 20.4917C31.9203 20.0576 31.7142 19.213 32.091 18.534Z" fill="#A856F7"/>
<path d="M8.24257 29.0012C8.62407 28.3248 9.45178 28.0588 10.1482 28.3636L10.2855 28.4318L10.543 28.5658C11.1517 28.8591 11.82 29.0121 12.4981 29.0118C13.3262 29.0116 13.998 29.6832 13.9984 30.5113C13.9987 31.3395 13.3271 32.0112 12.499 32.0116C11.2879 32.0122 10.0961 31.719 9.0248 31.1595L8.81198 31.0442L8.68202 30.9621C8.06121 30.5237 7.86114 29.6775 8.24257 29.0012Z" fill="#A856F7"/>
<path d="M32.7082 28.4281C33.4296 28.0212 34.3442 28.2762 34.7511 28.9975C35.158 29.7189 34.9031 30.6335 34.1817 31.0404C33.0566 31.675 31.7865 32.0085 30.4948 32.0079C29.6667 32.0075 28.9958 31.3357 28.9961 30.5076C28.9965 29.6793 29.6682 29.0077 30.4964 29.0081C31.2714 29.0084 32.0332 28.8088 32.7082 28.4281Z" fill="#A856F7"/>
</svg>
