<svg width="27" height="30" viewBox="0 0 27 30" fill="none" xmlns="http://www.w3.org/2000/svg">
<path d="M26.3982 7.52066C26.3932 7.51051 26.3932 7.49832 26.3871 7.48816C26.3749 7.46683 26.3535 7.45464 26.3393 7.43432C26.0775 7.00012 25.7112 6.63835 25.2738 6.38197L14.9219 0.4061C14.4584 0.140014 13.9332 0 13.3987 0C12.8642 0 12.3391 0.140014 11.8756 0.4061L1.52368 6.38197C1.08656 6.63841 0.720595 7.00019 0.459135 7.43432C0.444914 7.45464 0.423583 7.46683 0.411393 7.48816C0.405299 7.49832 0.406314 7.50949 0.40022 7.52066C0.1392 7.97807 0.00130239 8.49536 0 9.022V20.9747C0 22.0596 0.584077 23.0703 1.52368 23.6148L11.8745 29.5917C12.3408 29.8598 12.8629 29.9939 13.385 29.997C13.3901 29.997 13.3942 30 13.3992 30C13.4043 30 13.4084 29.997 13.4135 29.997C13.9434 29.9959 14.4637 29.8562 14.9229 29.5917L25.2748 23.6148C25.7375 23.3464 26.1217 22.9614 26.3891 22.4982C26.6564 22.0349 26.7976 21.5096 26.7985 20.9747V9.022C26.797 8.49538 26.6591 7.97812 26.3982 7.52066ZM24.259 21.8544L14.415 27.5377V24.077C14.415 23.8076 14.308 23.5492 14.1175 23.3587C13.927 23.1682 13.6686 23.0612 13.3992 23.0612C13.1298 23.0612 12.8715 23.1682 12.681 23.3587C12.4905 23.5492 12.3834 23.8076 12.3834 24.077V27.5388L2.54048 21.8554C2.2266 21.6746 2.03259 21.3374 2.03259 20.9758V9.59693L6.62496 12.2481C6.74037 12.3152 6.86792 12.3588 7.00025 12.3765C7.13259 12.3941 7.2671 12.3854 7.39606 12.3508C7.52502 12.3163 7.64587 12.2566 7.75166 12.1751C7.85746 12.0937 7.94611 11.9922 8.01252 11.8764C8.14721 11.643 8.18372 11.3658 8.11399 11.1056C8.04427 10.8454 7.87404 10.6235 7.64074 10.4888L3.05752 7.84267L12.8903 2.16544C13.045 2.07659 13.2203 2.02984 13.3987 2.02984C13.5771 2.02984 13.7524 2.07659 13.9071 2.16544L23.7409 7.84267L19.1587 10.4878C18.9273 10.6234 18.759 10.8451 18.6904 11.1044C18.6219 11.3638 18.6587 11.6397 18.7928 11.872C18.9269 12.1043 19.1475 12.2741 19.4063 12.3444C19.6652 12.4147 19.9413 12.3797 20.1745 12.2471L24.7669 9.59591V20.9737C24.7669 21.3364 24.5719 21.6736 24.259 21.8544Z" fill="#3C83F6"/>
<path d="M19.1865 13.8926L17.7695 13.3816C17.1326 13.1532 16.5543 12.7866 16.0759 12.3082C15.5975 11.8298 15.2309 11.2515 15.0025 10.6146L14.4925 9.19661C14.327 8.73849 13.8871 8.42969 13.3996 8.42969C12.912 8.42969 12.4721 8.73849 12.3066 9.19762L11.7966 10.6157C11.568 11.2525 11.2012 11.8309 10.7226 12.3093C10.2441 12.7876 9.66556 13.1542 9.02863 13.3827L7.60957 13.8936C7.15247 14.0602 6.8457 14.499 6.8457 14.9846C6.8457 15.4701 7.15247 15.9089 7.61262 16.0765L9.02863 16.5864C9.66563 16.8151 10.2442 17.1818 10.7227 17.6604C11.2013 18.1389 11.568 18.7175 11.7966 19.3545L12.3066 20.7725C12.4721 21.2316 12.911 21.5404 13.3996 21.5404C13.8881 21.5404 14.327 21.2316 14.4925 20.7725L15.0025 19.3545C15.231 18.7176 15.5976 18.1392 16.076 17.6606C16.5544 17.1821 17.1327 16.8153 17.7695 16.5864L19.1895 16.0755C19.6466 15.9089 19.9534 15.4701 19.9534 14.9846C19.9534 14.499 19.6466 14.0602 19.1865 13.8926ZM13.3996 17.9456C12.7602 16.6633 11.7209 15.6239 10.4385 14.9846C11.7211 14.3455 12.7605 13.3061 13.3996 12.0235C14.0389 13.3059 15.0783 14.3452 16.3606 14.9846C15.0783 15.6239 14.0389 16.6633 13.3996 17.9456Z" fill="#3C83F6"/>
</svg>
