<svg width="44" height="44" viewBox="0 0 44 44" fill="none" xmlns="http://www.w3.org/2000/svg">
<path d="M20.543 37.0457V33.8642C20.543 32.9855 21.2551 32.2734 22.1337 32.2734C23.0123 32.2734 23.7244 32.9855 23.7244 33.8642V37.0457C23.7244 37.9243 23.0123 38.6373 22.1337 38.6373C21.2551 38.6373 20.543 37.9243 20.543 37.0457Z" fill="#3C83F6"/>
<path d="M20.543 8.40893V5.22746C20.543 4.34883 21.2551 3.63672 22.1337 3.63672C23.0123 3.63672 23.7244 4.34883 23.7244 5.22746V8.40893C23.7244 9.28756 23.0123 10.0005 22.1337 10.0005C21.2551 10.0005 20.543 9.28756 20.543 8.40893Z" fill="#3C83F6"/>
<path d="M28.498 37.0457V33.8642C28.498 32.9855 29.2102 32.2734 30.0888 32.2734C30.9674 32.2734 31.6795 32.9855 31.6795 33.8642V37.0457C31.6795 37.9243 30.9674 38.6373 30.0888 38.6373C29.2102 38.6373 28.498 37.9243 28.498 37.0457Z" fill="#3C83F6"/>
<path d="M28.498 8.40893V5.22746C28.498 4.34883 29.2102 3.63672 30.0888 3.63672C30.9674 3.63672 31.6795 4.34883 31.6795 5.22746V8.40893C31.6795 9.28756 30.9674 10.0005 30.0888 10.0005C29.2102 10.0005 28.498 9.28756 28.498 8.40893Z" fill="#3C83F6"/>
<path d="M9.40698 19.5469L9.56985 19.5546C10.3721 19.636 10.9986 20.3138 10.9986 21.1376C10.9986 21.9614 10.3721 22.6392 9.56985 22.7206L9.40698 22.7284H6.2255C5.34687 22.7284 4.63477 22.0162 4.63477 21.1376C4.63477 20.259 5.34687 19.5469 6.2255 19.5469H9.40698Z" fill="#3C83F6"/>
<path d="M9.40698 27.5L9.56985 27.5078C10.3721 27.5892 10.9986 28.267 10.9986 29.0907C10.9986 29.9145 10.3721 30.5923 9.56985 30.6737L9.40698 30.6815H6.2255C5.34687 30.6815 4.63477 29.9694 4.63477 29.0907C4.63477 28.2121 5.34687 27.5 6.2255 27.5H9.40698Z" fill="#3C83F6"/>
<path d="M9.40698 11.5898L9.56985 11.5976C10.3721 11.679 10.9986 12.3568 10.9986 13.1806C10.9986 14.0043 10.3721 14.6822 9.56985 14.7636L9.40698 14.7713H6.2255C5.34687 14.7713 4.63477 14.0592 4.63477 13.1806C4.63477 12.302 5.34687 11.5898 6.2255 11.5898H9.40698Z" fill="#3C83F6"/>
<path d="M38.0437 19.5469L38.2066 19.5546C39.0089 19.636 39.6353 20.3138 39.6353 21.1376C39.6353 21.9614 39.0089 22.6392 38.2066 22.7206L38.0437 22.7284H34.8622C33.9836 22.7284 33.2715 22.0162 33.2715 21.1376C33.2715 20.259 33.9836 19.5469 34.8622 19.5469H38.0437Z" fill="#3C83F6"/>
<path d="M38.0437 27.5L38.2066 27.5078C39.0089 27.5892 39.6353 28.267 39.6353 29.0907C39.6353 29.9145 39.0089 30.5923 38.2066 30.6737L38.0437 30.6815H34.8622C33.9836 30.6815 33.2715 29.9694 33.2715 29.0907C33.2715 28.2121 33.9836 27.5 34.8622 27.5H38.0437Z" fill="#3C83F6"/>
<path d="M38.0437 11.5898L38.2066 11.5976C39.0089 11.679 39.6353 12.3568 39.6353 13.1806C39.6353 14.0043 39.0089 14.6822 38.2066 14.7636L38.0437 14.7713H34.8622C33.9836 14.7713 33.2715 14.0592 33.2715 13.1806C33.2715 12.302 33.9836 11.5898 34.8622 11.5898H38.0437Z" fill="#3C83F6"/>
<path d="M12.5898 37.0457V33.8642C12.5898 32.9855 13.302 32.2734 14.1806 32.2734C15.0592 32.2734 15.7713 32.9855 15.7713 33.8642V37.0457C15.7713 37.9243 15.0592 38.6373 14.1806 38.6373C13.302 38.6373 12.5898 37.9243 12.5898 37.0457Z" fill="#3C83F6"/>
<path d="M12.5898 8.40893V5.22746C12.5898 4.34883 13.302 3.63672 14.1806 3.63672C15.0592 3.63672 15.7713 4.34883 15.7713 5.22746V8.40893C15.7713 9.28756 15.0592 10.0005 14.1806 10.0005C13.302 10.0005 12.5898 9.28756 12.5898 8.40893Z" fill="#3C83F6"/>
<path d="M33.2708 11.5925C33.2706 10.7142 32.5584 10.002 31.6801 10.0018H12.5886C11.7102 10.002 10.9981 10.7142 10.9979 11.5925V30.684C10.9981 31.5623 11.7103 32.2745 12.5886 32.2747H31.6801C32.5584 32.2745 33.2706 31.5623 33.2708 30.684V11.5925ZM36.4523 30.684C36.4521 33.3196 34.3157 35.456 31.6801 35.4562H12.5886C9.95299 35.456 7.81659 33.3196 7.81641 30.684V11.5925C7.81658 8.95689 9.95299 6.82049 12.5886 6.82031H31.6801C34.3157 6.82049 36.4521 8.9569 36.4523 11.5925V30.684Z" fill="#3C83F6"/>
<path d="M17.3612 16.3651V25.9104H26.9065V16.3651H17.3612ZM30.0888 25.9104C30.0888 27.6676 28.6637 29.0927 26.9065 29.0927H17.3612C15.604 29.0926 14.1797 27.6676 14.1797 25.9104V16.3651C14.1798 14.6079 15.604 13.1837 17.3612 13.1836H26.9065C28.6637 13.1836 30.0887 14.6079 30.0888 16.3651V25.9104Z" fill="#3C83F6"/>
</svg>
