<svg width="44" height="44" viewBox="0 0 44 44" fill="none" xmlns="http://www.w3.org/2000/svg">
<path d="M20 35.4978V23.4962C20 22.6676 20.6715 21.9961 21.5001 21.9961C22.3287 21.9961 23.0002 22.6676 23.0002 23.4962V35.4978C23.0002 36.3264 22.3287 36.9987 21.5001 36.9987C20.6715 36.9987 20 36.3264 20 35.4978Z" fill="#3C83F6"/>
<path d="M34.3343 29.6098C33.6453 30.07 32.7133 29.8852 32.2531 29.1962C31.7929 28.5072 31.9786 27.5753 32.6676 27.115L34.3343 29.6098ZM16.0535 7.03757C17.8688 6.89365 19.6933 7.16438 21.3884 7.82988C23.0835 8.49541 24.6049 9.53823 25.8375 10.8788C26.8132 11.9402 27.587 13.1668 28.1258 14.4975H29.7502L30.0818 14.504C31.735 14.5702 33.3327 15.1325 34.6658 16.1211C36.0878 17.1756 37.1334 18.6592 37.6473 20.3532C38.1612 22.0473 38.1162 23.862 37.5197 25.5288C36.9232 27.1956 35.8064 28.6264 34.3343 29.6098L32.6676 27.115C33.6044 26.4893 34.3154 25.5786 34.6951 24.5179C35.0746 23.4572 35.1033 22.3024 34.7763 21.2243C34.4493 20.1463 33.7837 19.2024 32.8788 18.5313C32.0305 17.9022 31.0136 17.5439 29.9615 17.5017L29.7502 17.4977H27.0645C26.4014 17.4975 25.8167 17.062 25.627 16.4266C25.2362 15.1179 24.5531 13.915 23.6288 12.9096C22.7043 11.9041 21.5627 11.122 20.2913 10.6229C19.0202 10.1239 17.6521 9.92093 16.2908 10.0288C14.9292 10.1368 13.6093 10.5528 12.4324 11.2461C11.2558 11.9394 10.2524 12.8917 9.49806 14.0302C8.74368 15.1688 8.25799 16.4646 8.07841 17.8186C7.89885 19.1726 8.02969 20.5501 8.46115 21.846C8.86565 23.0608 9.52489 24.1741 10.3928 25.1127L10.5691 25.298L10.6707 25.4134C11.145 26.0078 11.1014 26.8764 10.5463 27.4198C9.99115 27.9632 9.12161 27.9881 8.53754 27.501L8.42458 27.397L8.18974 27.15C7.0324 25.8983 6.15389 24.4135 5.61453 22.7935C5.03924 21.0656 4.86476 19.2291 5.10421 17.4237C5.34369 15.6185 5.99103 13.8914 6.99681 12.3733C8.00262 10.8551 9.34056 9.58561 10.9096 8.66119C12.4787 7.73676 14.238 7.18155 16.0535 7.03757Z" fill="#3C83F6"/>
<path d="M20.5524 22.3323C21.1417 21.8519 22.0104 21.8863 22.5596 22.4356L28.5608 28.436L28.6641 28.5505C29.1443 29.1398 29.1099 30.0086 28.5608 30.5577C28.0116 31.107 27.1421 31.1416 26.5529 30.6609L26.4391 30.5577L21.4983 25.617L16.5584 30.5577L16.4446 30.6609C15.8554 31.1414 14.9867 31.1068 14.4375 30.5577C13.8516 29.9718 13.8516 29.0218 14.4375 28.436L20.4379 22.4356L20.5524 22.3323Z" fill="#3C83F6"/>
</svg>
