<svg width="44" height="44" viewBox="0 0 44 44" fill="none" xmlns="http://www.w3.org/2000/svg">
<path d="M4.63477 34.3863V6.38653C4.63477 5.42004 5.41808 4.63672 6.38458 4.63672C7.35107 4.63672 8.13439 5.42004 8.13439 6.38653V34.3863C8.13439 34.8504 8.31912 35.2952 8.6472 35.6233L8.77516 35.7399C9.08651 35.9951 9.47812 36.1361 9.8842 36.1362H37.884L38.0632 36.1456C38.9455 36.2352 39.6346 36.98 39.6348 37.886C39.6348 38.7921 38.9457 39.5377 38.0632 39.6272L37.884 39.6367H9.8842C8.57902 39.6366 7.32383 39.1503 6.36088 38.2784L6.17225 38.0983C5.1878 37.1138 4.63477 35.7786 4.63477 34.3863Z" fill="#A856F7"/>
<path d="M27.384 27.3867L27.5632 27.3952C28.4457 27.4847 29.1348 28.2304 29.1348 29.1365C29.1348 30.0427 28.4457 30.7883 27.5632 30.8778L27.384 30.8863H13.3846C12.4181 30.8863 11.6348 30.103 11.6348 29.1365C11.6348 28.17 12.4181 27.3867 13.3846 27.3867H27.384Z" fill="#A856F7"/>
<path d="M34.3842 18.6367L34.5633 18.6452C35.4458 18.7349 36.134 19.4804 36.134 20.3865C36.134 21.2926 35.4458 22.0382 34.5633 22.1278L34.3842 22.1363H13.3846C12.4181 22.1363 11.6348 21.353 11.6348 20.3865C11.6348 19.42 12.4181 18.6367 13.3846 18.6367H34.3842Z" fill="#A856F7"/>
<path d="M18.635 9.88672L18.8132 9.89525C19.6958 9.98471 20.3848 10.7303 20.3848 11.6365C20.3848 12.5427 19.6958 13.2883 18.8132 13.3778L18.635 13.3863H13.3846C12.4181 13.3863 11.6348 12.603 11.6348 11.6365C11.6348 10.67 12.4181 9.88672 13.3846 9.88672H18.635Z" fill="#A856F7"/>
</svg>
