<svg width="35" height="35" viewBox="0 0 35 35" fill="none" xmlns="http://www.w3.org/2000/svg">
<path d="M12.5929 0.00137484C13.4409 -0.016292 14.284 0.136485 15.0724 0.449375C15.8608 0.762274 16.579 1.22917 17.184 1.82353C17.7892 2.41792 18.2692 3.12751 18.5961 3.91018C18.9225 4.69146 19.0899 5.53009 19.088 6.37677V27.0554C19.0869 28.1423 18.8627 29.2177 18.4298 30.2147C17.9968 31.2118 17.3633 32.1098 16.5698 32.8527C15.7762 33.5956 14.8388 34.168 13.8154 34.5345C12.7921 34.9008 11.7046 35.0537 10.62 34.9833C9.53526 34.9129 8.4764 34.6208 7.50896 34.1252C6.54148 33.6296 5.68586 32.9407 4.99499 32.1015C4.30412 31.2622 3.79211 30.2901 3.4916 29.2455C3.28636 28.5319 3.18566 27.7946 3.18489 27.0554C2.42707 26.4877 1.77376 25.7884 1.25935 24.9869C0.559527 23.8964 0.137179 22.6509 0.0282128 21.3598C-0.0807311 20.0688 0.126819 18.7707 0.633875 17.5785C0.978875 16.7674 1.45491 16.0213 2.04077 15.3704C1.78034 14.6284 1.62831 13.85 1.59621 13.0597C1.5473 11.8542 1.774 10.6534 2.25788 9.54809C2.74175 8.44281 3.47037 7.46187 4.38933 6.68003C5.00435 6.15681 5.6948 5.73356 6.43376 5.4196C6.49817 4.98982 6.60629 4.56623 6.7577 4.15658C7.05176 3.36109 7.50213 2.63208 8.08188 2.01307C8.66167 1.39409 9.35949 0.897332 10.1341 0.551898C10.9088 0.206418 11.7448 0.0190515 12.5929 0.00137484ZM12.6592 3.18218C12.2353 3.19102 11.8171 3.28431 11.4298 3.45701C11.0425 3.62975 10.6937 3.8789 10.4037 4.18846C10.1139 4.49797 9.88821 4.86246 9.74121 5.26021C9.59433 5.65781 9.52849 6.08083 9.54736 6.50427C9.58092 7.25584 9.08354 7.92873 8.35499 8.11621C7.65384 8.2965 7.00242 8.63359 6.45099 9.10268C5.89954 9.57181 5.46195 10.1608 5.1716 10.824C4.88135 11.4872 4.74592 12.2081 4.77529 12.9314C4.80473 13.6546 4.99821 14.3617 5.34133 14.9991C5.70325 15.6714 5.53593 16.506 4.9433 16.9875C4.33998 17.4777 3.86565 18.1081 3.56139 18.8234C3.25711 19.5388 3.13244 20.3181 3.19782 21.0927C3.26324 21.8673 3.51719 22.6139 3.93702 23.2681C4.35687 23.9223 4.92976 24.4643 5.60668 24.8464C6.17051 25.1647 6.48556 25.793 6.40274 26.4351C6.31914 27.082 6.3689 27.7399 6.5492 28.3667C6.72952 28.9933 7.03682 29.576 7.45124 30.0794C7.86573 30.5829 8.37851 30.9968 8.95893 31.2942C9.53942 31.5916 10.175 31.7663 10.8259 31.8085C11.4767 31.8508 12.1296 31.7596 12.7437 31.5397C13.3576 31.3199 13.9201 30.9765 14.3961 30.5309C14.8722 30.0852 15.252 29.5464 15.5118 28.9482C15.7714 28.3504 15.9055 27.7054 15.9064 27.0537V6.3716L15.9029 6.21307C15.8855 5.84323 15.8039 5.47855 15.6608 5.13615C15.4974 4.74488 15.2569 4.38998 14.9544 4.09282C14.6519 3.79581 14.293 3.56258 13.899 3.40618C13.5048 3.24974 13.0832 3.17335 12.6592 3.18218Z" fill="#A856F7"/>
<path d="M22.4005 0.00136811C23.2485 0.0190429 24.0848 0.206482 24.8594 0.551892C25.6339 0.897297 26.3318 1.39415 26.9116 2.01306C27.4913 2.63204 27.9417 3.36112 28.2358 4.15657C28.3872 4.56644 28.4944 4.99044 28.5588 5.42045C29.2981 5.73444 29.9889 6.15664 30.6041 6.68002C31.5232 7.46189 32.2525 8.44273 32.7364 9.54809C33.2203 10.6533 33.4462 11.8542 33.3972 13.0597C33.3651 13.8502 33.2123 14.6283 32.9518 15.3704C33.5379 16.0214 34.0145 16.7672 34.3596 17.5785C34.8667 18.7707 35.075 20.0688 34.9661 21.3598C34.8571 22.6509 34.4339 23.8964 33.7341 24.9869C33.2199 25.788 32.5669 26.487 31.8094 27.0546C31.8087 27.7941 31.7072 28.5316 31.5019 29.2455C31.2014 30.29 30.6901 31.2623 29.9993 32.1015C29.3085 32.9406 28.4527 33.6296 27.4854 34.1252C26.518 34.6208 25.459 34.9129 24.3743 34.9833C23.2896 35.0537 22.2014 34.9009 21.178 34.5345C20.1546 34.168 19.2172 33.5956 18.4237 32.8527C17.6301 32.1098 16.9975 31.2118 16.5645 30.2147C16.1857 29.3424 15.9662 28.4104 15.9166 27.4629L15.9063 27.0554V6.37676C15.9044 5.53011 16.071 4.69143 16.3973 3.91017C16.7243 3.12748 17.2051 2.41793 17.8103 1.82352C18.4152 1.22935 19.1329 0.762225 19.921 0.449369C20.7093 0.136518 21.5526 -0.0162527 22.4005 0.00136811ZM22.3351 3.18217C21.9111 3.17333 21.4895 3.24979 21.0953 3.40617C20.7012 3.5626 20.3416 3.79567 20.0391 4.09282C19.7366 4.38992 19.4969 4.74495 19.3335 5.13614C19.17 5.52737 19.0859 5.9476 19.0871 6.37159V27.052L19.094 27.2967C19.1237 27.8652 19.2552 28.4248 19.4825 28.9482C19.7423 29.5463 20.1214 30.0852 20.5973 30.5309C21.0735 30.9766 21.6366 31.3199 22.2506 31.5397C22.8645 31.7595 23.5169 31.8507 24.1676 31.8085C24.8184 31.7663 25.4541 31.5915 26.0345 31.2942C26.615 30.9968 27.1286 30.583 27.5431 30.0794C27.9574 29.5761 28.264 28.9932 28.4442 28.3667C28.6246 27.7399 28.6752 27.082 28.5916 26.4351C28.5087 25.793 28.8229 25.1647 29.3868 24.8464C30.0638 24.4643 30.6374 23.9224 31.0573 23.2681C31.4771 22.614 31.7311 21.8672 31.7965 21.0927C31.8619 20.318 31.7364 19.5388 31.4321 18.8234C31.1278 18.108 30.6535 17.4777 30.0502 16.9875C29.4576 16.506 29.2903 15.6713 29.6521 14.999C29.9952 14.3617 30.1896 13.6546 30.219 12.9314C30.2484 12.208 30.1121 11.4872 29.8218 10.824C29.5315 10.1608 29.0939 9.5718 28.5425 9.10267C27.9911 8.63371 27.3403 8.29648 26.6393 8.11621C25.9106 7.92884 25.4125 7.25594 25.4461 6.50427C25.465 6.08078 25.3992 5.65784 25.2522 5.2602C25.1053 4.86257 24.8803 4.49791 24.5906 4.18845C24.3007 3.8789 23.951 3.62974 23.5636 3.457C23.1765 3.28444 22.7588 3.19106 22.3351 3.18217Z" fill="#A856F7"/>
<path d="M17.498 11.1484C18.3425 11.1486 19.0397 11.8086 19.0859 12.6518C19.1458 13.7512 19.5306 14.8088 20.1912 15.6896C20.8106 16.5154 21.6464 17.1517 22.6044 17.529L22.7974 17.6005L22.9481 17.6625C23.6774 18.0056 24.043 18.8519 23.77 19.6286C23.4968 20.4054 22.6815 20.8369 21.8979 20.6478L21.7411 20.6012L21.4379 20.4884C19.9327 19.8954 18.6194 18.8955 17.6462 17.5979C17.5952 17.5299 17.5461 17.4605 17.4972 17.3912C17.4483 17.4604 17.3999 17.53 17.349 17.5979C16.311 18.9819 14.886 20.0271 13.2541 20.6012L13.0973 20.6478C12.3138 20.8369 11.4984 20.4053 11.2252 19.6286C10.934 18.8001 11.3695 17.892 12.1978 17.6005L12.3917 17.529C13.3493 17.1517 14.1848 16.5151 14.804 15.6896C15.4646 14.8088 15.8494 13.7512 15.9094 12.6518L15.9257 12.4967C16.0432 11.7289 16.7059 11.1484 17.498 11.1484Z" fill="#A856F7"/>
<path d="M27.1037 4.98576C27.9814 5.02219 28.6634 5.76395 28.6269 6.64164L28.5994 7.02502C28.5082 7.91588 28.2299 8.77894 27.7809 9.55709L27.6922 9.69407C27.2207 10.3479 26.3213 10.5519 25.6081 10.1404C24.8473 9.70132 24.5867 8.72838 25.0257 7.96755L25.117 7.79783C25.3169 7.39722 25.4301 6.95774 25.4487 6.50896L25.4634 6.34699C25.5781 5.54914 26.281 4.9517 27.1037 4.98576Z" fill="#A856F7"/>
<path d="M7.89407 4.98571C8.71664 4.95227 9.41842 5.55005 9.53271 6.34781L9.54822 6.51064L9.56114 6.7019C9.59992 7.08365 9.70797 7.45517 9.87905 7.79864L9.97038 7.96836L10.0436 8.1131C10.3736 8.8488 10.0991 9.72915 9.38539 10.1403C8.67191 10.5512 7.77315 10.3472 7.30219 9.69316L7.21345 9.55618L7.03166 9.21759C6.68933 8.53049 6.47428 7.78699 6.39671 7.02325L6.36914 6.63987L6.37086 6.47704C6.41965 5.67249 7.07133 5.01935 7.89407 4.98571Z" fill="#A856F7"/>
<path d="M4.1004 13.7353C4.86842 13.3091 5.83654 13.5859 6.26286 14.3539C6.6891 15.1219 6.41224 16.09 5.64428 16.5163C5.39818 16.6529 5.16466 16.8116 4.94643 16.9893C4.26538 17.5439 3.26376 17.441 2.70901 16.7602C2.15434 16.0791 2.25641 15.0775 2.93732 14.5227C3.30098 14.2266 3.69031 13.9629 4.1004 13.7353Z" fill="#A856F7"/>
<path d="M28.7333 14.3543C29.1329 13.6344 30.0086 13.3456 30.7493 13.6633L30.8958 13.7357L31.199 13.9132C31.4986 14.0972 31.786 14.301 32.0589 14.5232C32.7397 15.0779 32.8425 16.0795 32.288 16.7606C31.7333 17.4417 30.7309 17.5444 30.0497 16.9897C29.8862 16.8565 29.7142 16.7339 29.5345 16.6236L29.3519 16.5168L29.2141 16.4306C28.5523 15.9702 28.3337 15.0744 28.7333 14.3543Z" fill="#A856F7"/>
<path d="M3.43987 25.4537C3.8445 24.7363 4.7224 24.4542 5.46104 24.7774L5.60664 24.8498L5.87975 24.9919C6.52535 25.303 7.2342 25.4652 7.95347 25.4649C8.83175 25.4647 9.54433 26.177 9.54474 27.0553C9.54504 27.9337 8.83271 28.6462 7.95433 28.6466C6.66988 28.6471 5.40582 28.3362 4.26953 27.7428L4.04381 27.6205L3.90596 27.5335C3.24751 27.0685 3.03531 26.171 3.43987 25.4537Z" fill="#A856F7"/>
<path d="M29.3865 24.8461C30.1515 24.4145 31.1216 24.685 31.5532 25.45C31.9848 26.2151 31.7144 27.1852 30.9493 27.6168C29.7559 28.2898 28.4089 28.6435 27.0388 28.6429C26.1604 28.6424 25.4489 27.9299 25.4492 27.0516C25.4496 26.1731 26.162 25.4608 27.0405 25.4612C27.8624 25.4616 28.6705 25.2498 29.3865 24.8461Z" fill="#A856F7"/>
</svg>
