<svg width="29" height="35" viewBox="0 0 29 35" fill="none" xmlns="http://www.w3.org/2000/svg">
<path d="M14.2301 5.34353H18.3082L16.7637 6.8907C16.3637 7.29149 16.3642 7.9407 16.765 8.34094C17.1651 8.74016 17.8145 8.74091 18.2149 8.33958L21.5042 5.04466C21.9099 4.63861 21.9045 3.97129 21.4807 3.57234L18.215 0.300943C17.815 -0.0998468 17.1658 -0.100325 16.765 0.299576C16.3642 0.699888 16.3637 1.34903 16.7637 1.74989L18.3039 3.29275C13.6573 3.29275 14.2368 3.29248 14.186 3.29248C3.34604 3.29248 -3.53473 15.09 1.90092 24.5727C2.18236 25.0638 2.80853 25.2342 3.30037 24.9525C3.79174 24.6707 3.96154 24.0443 3.68011 23.553C-0.997985 15.3921 4.99015 5.29705 14.2301 5.34353ZM26.4992 10.4269C26.2178 9.9359 25.5911 9.76576 25.0998 10.0473C24.6084 10.3289 24.4386 10.9557 24.7203 11.447C29.3629 19.546 23.5035 29.6564 14.2002 29.6564H10.092L11.6365 28.1093C12.0368 27.7085 12.0362 27.0593 11.6354 26.659C11.2346 26.2591 10.5852 26.2596 10.1852 26.6604L6.89593 29.9553C6.49377 30.3579 6.49166 31.0263 6.92075 31.429L10.1852 34.699C10.5852 35.0995 11.2344 35.1006 11.6354 34.7004C12.0362 34.3001 12.0368 33.6509 11.6368 33.2501L10.0965 31.7072H14.213C25.0586 31.7069 31.9338 19.9077 26.4992 10.4269Z" fill="#3C83F6"/>
<path d="M13.1738 14.4258H17.2754C17.8415 14.4258 18.3008 13.9665 18.3008 13.4004C18.3008 12.834 17.8415 12.375 17.2754 12.375H15.2246V11.3496C15.2246 10.7833 14.7654 10.3242 14.1992 10.3242C13.6329 10.3242 13.1738 10.7833 13.1738 11.3496V12.375C11.4774 12.375 10.0977 13.755 10.0977 15.4512C10.0977 17.1473 11.4774 18.5273 13.1738 18.5273H15.2244C15.7899 18.5273 16.25 18.9872 16.25 19.5527C16.25 20.1182 15.7927 20.5784 15.2244 20.5784C14.1648 20.5784 14.1992 20.5781 14.1992 20.5781C14.1976 20.5781 14.1961 20.5784 14.1944 20.5784L11.123 20.5781C10.5567 20.5781 10.0977 21.0371 10.0977 21.6032C10.0975 22.1696 10.5564 22.6286 11.1228 22.6289H13.1738V23.6543C13.1738 24.2203 13.6329 24.6797 14.1992 24.6797C14.7654 24.6797 15.2246 24.2203 15.2246 23.6543V22.6292C16.9246 22.6292 18.3008 21.2537 18.3008 19.5527C18.3008 17.8566 16.9206 16.4765 15.2244 16.4765H13.1738C12.6083 16.4765 12.1484 16.0165 12.1484 15.4512C12.1484 14.8856 12.6083 14.4258 13.1738 14.4258Z" fill="#3C83F6"/>
</svg>
