<svg width="44" height="44" viewBox="0 0 44 44" fill="none" xmlns="http://www.w3.org/2000/svg">
<path d="M22 9C25.8075 9.00003 29.5291 10.1306 32.6933 12.2483C35.66 14.2339 38.012 17.0031 39.4905 20.242L39.7741 20.8961L39.7954 20.9502C40.0341 21.5932 40.064 22.2927 39.8849 22.9497L39.7954 23.228L39.7741 23.283C38.3224 26.8029 35.8576 29.812 32.6933 31.9298C29.7268 33.9153 26.2705 35.0338 22.7126 35.1658L22 35.1791C18.1923 35.1791 14.47 34.0477 11.3057 31.9298C8.33917 29.9443 5.98791 27.175 4.50945 23.9362L4.22583 23.283C4.2184 23.2649 4.21133 23.2463 4.20456 23.228C3.93181 22.4933 3.93181 21.6849 4.20456 20.9502L4.22583 20.8961L4.50945 20.242C5.98794 17.0032 8.33919 14.2338 11.3057 12.2483C14.47 10.1305 18.1923 9 22 9ZM22 12.2723C18.8405 12.2723 15.7519 13.2103 13.1262 14.9676C10.5169 16.7139 8.48139 19.1917 7.27386 22.0891C8.48138 24.9866 10.5168 27.4642 13.1262 29.2106C15.7519 30.9679 18.8405 31.9059 22 31.9059L22.5911 31.8953C25.5435 31.7858 28.4121 30.8582 30.8737 29.2106C33.4829 27.4643 35.5168 24.9863 36.7243 22.0891C35.5168 19.1919 33.4829 16.7138 30.8737 14.9676C28.2481 13.2102 25.1595 12.2723 22 12.2723Z" fill="#A856F7"/>
<path d="M25.2728 22.0884C25.2728 20.2811 23.8077 18.8155 22.0005 18.8152C20.1931 18.8152 18.7273 20.281 18.7273 22.0884C18.7276 23.8956 20.1932 25.3607 22.0005 25.3607C23.8076 25.3605 25.2726 23.8955 25.2728 22.0884ZM28.5451 22.0884C28.5448 25.7029 25.615 28.6327 22.0005 28.6329C18.3858 28.6329 15.4553 25.703 15.4551 22.0884C15.4551 18.4736 18.3857 15.543 22.0005 15.543C25.6151 15.5432 28.5451 18.4737 28.5451 22.0884Z" fill="#A856F7"/>
</svg>
