<svg width="44" height="44" viewBox="0 0 44 44" fill="none" xmlns="http://www.w3.org/2000/svg">
<path d="M11.4923 15.6779C11.8755 15.2947 12.4821 15.2703 12.8932 15.6056L12.9722 15.6779L21.3447 24.0503L21.4169 24.1294C21.7522 24.5404 21.7279 25.147 21.3447 25.5302C20.9615 25.9134 20.3549 25.9378 19.9438 25.6025L19.8648 25.5302L11.4923 17.1578L11.4201 17.0787C11.0848 16.6677 11.1091 16.0611 11.4923 15.6779Z" fill="#3C83F6" stroke="#3C83F6" stroke-width="0.5" stroke-linecap="round" stroke-linejoin="round"/>
<path d="M21.13 11.6536C21.4506 11.1727 22.1004 11.0428 22.5813 11.3634C23.0622 11.684 23.1922 12.3337 22.8716 12.8147L20.0807 17.0009L19.9499 17.1603L11.5774 25.5328C11.1687 25.9415 10.5063 25.9415 10.0975 25.5328C9.68884 25.1241 9.68884 24.4616 10.0975 24.0529L18.3964 15.754L21.13 11.6536Z" fill="#3C83F6" stroke="#3C83F6" stroke-width="0.5" stroke-linecap="round" stroke-linejoin="round"/>
<path d="M24.7915 11.1875C25.3695 11.1875 25.838 11.6561 25.838 12.2341C25.838 12.8121 25.3695 13.2806 24.7915 13.2806H8.04656C7.46856 13.2806 7 12.8121 7 12.2341C7 11.6561 7.46856 11.1875 8.04656 11.1875H24.7915Z" fill="#3C83F6" stroke="#3C83F6" stroke-width="0.5" stroke-linecap="round" stroke-linejoin="round"/>
<path d="M16.4185 7C16.9965 7 17.4651 7.46856 17.4651 8.04656C17.4651 8.62456 16.9965 9.09312 16.4185 9.09312H15.0231C14.4451 9.09312 13.9766 8.62456 13.9766 8.04656C13.9766 7.46856 14.4451 7 15.0231 7H16.4185Z" fill="#3C83F6" stroke="#3C83F6" stroke-width="0.5" stroke-linecap="round" stroke-linejoin="round"/>
<path d="M28.9787 20.9531C29.3751 20.9531 29.7376 21.1777 29.9148 21.5323L36.8919 35.4864L36.9341 35.5845C37.122 36.0804 36.9077 36.6477 36.4231 36.89C35.9387 37.1319 35.3566 36.9629 35.0727 36.5152L35.0195 36.4212L28.9787 24.3394L22.9378 36.4212C22.6794 36.938 22.0511 37.148 21.5342 36.89C21.0174 36.6316 20.8074 36.0033 21.0654 35.4864L28.0425 21.5323L28.1174 21.4055C28.3109 21.1249 28.6316 20.9531 28.9787 20.9531Z" fill="#3C83F6" stroke="#3C83F6" stroke-width="0.5" stroke-linecap="round" stroke-linejoin="round"/>
<path d="M33.1632 29.3281C33.7412 29.3281 34.2097 29.7967 34.2097 30.3747C34.2097 30.9527 33.7412 31.4212 33.1632 31.4212H24.7907C24.2127 31.4212 23.7441 30.9527 23.7441 30.3747C23.7441 29.7967 24.2127 29.3281 24.7907 29.3281H33.1632Z" fill="#3C83F6" stroke="#3C83F6" stroke-width="0.5" stroke-linecap="round" stroke-linejoin="round"/>
</svg>
