<svg width="44" height="44" viewBox="0 0 44 44" fill="none" xmlns="http://www.w3.org/2000/svg">
<path d="M39.2093 22C39.2093 12.4956 31.5044 4.7907 22 4.7907C12.4956 4.7907 4.7907 12.4956 4.7907 22C4.7907 31.5044 12.4956 39.2093 22 39.2093C31.5044 39.2093 39.2093 31.5044 39.2093 22ZM42 22C42 33.0457 33.0457 42 22 42C10.9543 42 2 33.0457 2 22C2 10.9543 10.9543 2 22 2C33.0457 2 42 10.9543 42 22Z" fill="#A856F7"/>
<path d="M28.0478 22C28.0478 15.9373 25.8947 10.0897 22.0013 5.48474C18.1079 10.0897 15.9548 15.9373 15.9548 22C15.9548 28.0622 18.1085 33.9087 22.0013 38.5134C25.8941 33.9087 28.0478 28.0622 28.0478 22ZM30.8385 22C30.8385 29.2853 28.0358 36.292 23.0114 41.5676C22.7481 41.8438 22.3829 42 22.0013 42C21.6196 42 21.2544 41.8438 20.9911 41.5676C15.9668 36.292 13.1641 29.2853 13.1641 22C13.1641 14.7147 15.9668 7.70797 20.9911 2.43241L21.0947 2.3343C21.3461 2.11943 21.6674 2 22.0013 2C22.3829 2 22.7481 2.15617 23.0114 2.43241C28.0358 7.70797 30.8385 14.7147 30.8385 22Z" fill="#A856F7"/>
<path d="M40.6047 20.6016C41.3753 20.6016 42 21.2263 42 21.9969C42 22.7675 41.3753 23.3923 40.6047 23.3923H3.39535C2.62472 23.3923 2 22.7675 2 21.9969C2 21.2263 2.62472 20.6016 3.39535 20.6016H40.6047Z" fill="#A856F7"/>
</svg>
