<svg width="44" height="44" viewBox="0 0 44 44" fill="none" xmlns="http://www.w3.org/2000/svg">
<path d="M26.4185 12.4185C26.9415 11.8955 27.7687 11.8626 28.3298 12.3202L28.4381 12.4185L37.0103 20.9899C37.5679 21.5478 37.5681 22.4525 37.0103 23.0103L28.4381 31.5817C27.8803 32.1392 26.9763 32.1392 26.4185 31.5817C25.8606 31.0238 25.8606 30.1192 26.4185 29.5613L33.9793 21.9997L26.4185 14.4381L26.3202 14.3298C25.8626 13.7687 25.8955 12.9415 26.4185 12.4185Z" fill="#3C83F6"/>
<path d="M17.0102 29.5612C17.5678 30.1191 17.568 31.0238 17.0102 31.5816C16.4524 32.1394 15.5477 32.1393 14.9898 31.5816L17.0102 29.5612ZM14.9898 12.4184C15.5477 11.8605 16.4523 11.8605 17.0102 12.4184C17.5677 12.9762 17.5677 13.8802 17.0102 14.438L9.44785 21.9996L17.0102 29.5612L14.9898 31.5816L6.41842 23.0102C5.86053 22.4523 5.86053 21.5477 6.41842 20.9898L14.9898 12.4184Z" fill="#3C83F6"/>
</svg>
