<svg width="44" height="44" viewBox="0 0 44 44" fill="none" xmlns="http://www.w3.org/2000/svg">
<path d="M23.3235 11.0905C23.3234 10.729 23.1803 10.3823 22.9247 10.1266C22.6689 9.87087 22.3217 9.727 21.96 9.727H21.3603C20.9987 9.727 20.6521 9.87096 20.3963 10.1266C20.1407 10.3823 19.9968 10.7289 19.9968 11.0905V11.3379C19.996 12.0552 19.8062 12.76 19.4472 13.381C19.0888 14.0009 18.5735 14.5152 17.9537 14.8737L17.9545 14.8745L17.368 15.215L17.365 15.2172C16.7431 15.5763 16.0371 15.7653 15.319 15.7653C14.6161 15.7652 13.9258 15.5831 13.3137 15.2386V15.2394L13.1091 15.13C13.0959 15.123 13.0828 15.1161 13.0699 15.1086C12.757 14.9281 12.3848 14.8787 12.0358 14.972C11.7306 15.0536 11.4647 15.2385 11.2817 15.4927L11.2086 15.6057L10.9087 16.1242L10.908 16.1235C10.7283 16.4361 10.6804 16.8077 10.7735 17.1561C10.8552 17.4613 11.04 17.7272 11.2943 17.9102L11.4073 17.9834L11.4804 18.0292L11.685 18.1651H11.6843C12.2691 18.5195 12.7575 19.0134 13.1017 19.6054C13.4605 20.2226 13.6513 20.9234 13.6557 21.6373V22.3353L13.6475 22.6049C13.6086 23.2321 13.4256 23.8433 13.1113 24.3902C12.7559 25.0085 12.245 25.5223 11.6296 25.8822L11.6303 25.883L11.4257 26.0056C11.4198 26.0091 11.4133 26.0124 11.4073 26.0159C11.0947 26.1969 10.8669 26.495 10.7735 26.8439C10.6804 27.1921 10.7285 27.5633 10.908 27.8758H10.9087L11.2079 28.3935H11.2086C11.3896 28.706 11.687 28.9339 12.0358 29.0273C12.3848 29.1206 12.757 29.0719 13.0699 28.8914L13.1091 28.8692L13.3137 28.7606C13.9258 28.4163 14.6162 28.2348 15.319 28.2347C15.9474 28.2347 16.5665 28.379 17.1279 28.6558L17.365 28.7828L17.368 28.785L17.9508 29.1233H17.9515C18.5726 29.482 19.0882 29.9981 19.4472 30.619C19.8062 31.2401 19.996 31.9447 19.9968 32.6621V32.9088C19.9968 33.2704 20.1406 33.6177 20.3963 33.8734C20.6521 34.129 20.9987 34.273 21.3603 34.273H21.96C22.3217 34.273 22.6689 34.1291 22.9247 33.8734C23.1804 33.6177 23.3235 33.2704 23.3235 32.9088V32.6621L23.3331 32.3939C23.3748 31.77 23.5589 31.1625 23.8731 30.619C24.2321 29.998 24.7483 29.482 25.3695 29.1233L25.9523 28.785L25.956 28.7828L26.1923 28.6558C26.7539 28.379 27.3728 28.2347 28.0012 28.2347C28.7039 28.2347 29.3939 28.4165 30.0059 28.7606H30.0066L30.2112 28.8692L30.2511 28.8914C30.5639 29.0718 30.9355 29.1206 31.2844 29.0273C31.6333 28.9339 31.9314 28.7061 32.1124 28.3935L32.4042 27.875L32.4108 27.8639C32.5913 27.5511 32.64 27.1795 32.5467 26.8306C32.4539 26.4833 32.2277 26.1869 31.9174 26.0056L31.7505 25.9169C31.7371 25.9098 31.7237 25.9023 31.7106 25.8948C31.0864 25.5344 30.5682 25.0151 30.209 24.3902C29.8498 23.7652 29.6618 23.0562 29.6646 22.3353V21.6588C29.6628 20.9398 29.8507 20.2332 30.209 19.6098C30.5644 18.9914 31.0752 18.477 31.6907 18.117L31.8953 17.9944L31.913 17.9834L32.026 17.9102C32.2803 17.7273 32.465 17.4614 32.5467 17.1561C32.64 16.8071 32.5913 16.4349 32.4108 16.122V16.1213L32.1117 15.6057V15.605C31.9306 15.2929 31.633 15.0652 31.2844 14.972C30.9791 14.8903 30.6563 14.9176 30.3707 15.0466L30.2511 15.1086C30.2381 15.1161 30.2245 15.123 30.2112 15.13L30.0066 15.2394L30.0059 15.2386C29.3938 15.5829 28.704 15.7653 28.0012 15.7653C27.2832 15.7653 26.5778 15.5762 25.956 15.2172L25.9523 15.215L25.3658 14.8745V14.8737C24.7463 14.5152 24.2313 14.0007 23.8731 13.381C23.5141 12.76 23.3243 12.0552 23.3235 11.3379V11.0905ZM26.0513 11.335L26.0542 11.4244C26.0681 11.6323 26.1297 11.8349 26.2344 12.016C26.3392 12.1971 26.4837 12.3515 26.6569 12.4673L26.733 12.5146L26.7367 12.5168L27.3195 12.8551L27.3985 12.8972C27.5857 12.9894 27.7918 13.0383 28.0012 13.0383C28.2406 13.0382 28.4757 12.9748 28.683 12.8551L28.7229 12.8329L28.9275 12.7236C29.8579 12.2005 30.9568 12.0613 31.9891 12.3373C32.9705 12.5998 33.8165 13.2176 34.366 14.0664L34.4723 14.2393L34.7722 14.7578L34.7729 14.7593L34.8704 14.9373C35.3317 15.8371 35.4438 16.8786 35.1814 17.86C34.9032 18.9004 34.2259 19.7881 33.2972 20.3322L33.2979 20.3329L33.0933 20.4555L32.9973 20.5146C32.8233 20.6311 32.6781 20.7866 32.5733 20.9689C32.4537 21.1772 32.3914 21.4134 32.3924 21.6536V22.3464C32.3914 22.5866 32.4536 22.8229 32.5733 23.0311C32.6917 23.237 32.8619 23.4083 33.0667 23.5282L33.2381 23.6191L33.2802 23.6427C34.2179 24.1859 34.9015 25.0791 35.1814 26.126C35.4602 27.1687 35.315 28.2785 34.7789 29.2149L34.7796 29.2156L34.4797 29.7474C34.4772 29.7519 34.4749 29.7563 34.4723 29.7607C33.9292 30.6984 33.0359 31.382 31.9891 31.662C30.9566 31.9381 29.858 31.7982 28.9275 31.2749V31.2757L28.7229 31.1671L28.683 31.1442C28.4757 31.0246 28.2405 30.9618 28.0012 30.9617C27.7632 30.9617 27.5289 31.0236 27.3224 31.142L27.3232 31.1427L26.7367 31.4832L26.733 31.4854C26.5259 31.605 26.3541 31.777 26.2344 31.984C26.1148 32.191 26.0515 32.4259 26.0513 32.665V32.9088C26.0513 33.9937 25.6204 35.0348 24.8532 35.802C24.086 36.5691 23.045 37 21.96 37H21.3603C20.2754 37 19.235 36.569 18.4678 35.802C17.7006 35.0348 17.269 33.9937 17.269 32.9088V32.665L17.2661 32.5756C17.2522 32.3677 17.1912 32.1651 17.0866 31.984C16.9669 31.777 16.7944 31.605 16.5873 31.4854L16.5836 31.4832L15.9978 31.1427V31.142C15.7914 31.0236 15.557 30.9617 15.319 30.9617C15.1097 30.9618 14.9034 31.0099 14.7163 31.1021L14.6373 31.1442C14.624 31.1518 14.6109 31.1599 14.5974 31.1671L14.3928 31.2757L14.3921 31.2749C13.4617 31.7979 12.3641 31.9379 11.3319 31.662C10.2851 31.382 9.39187 30.6984 8.84868 29.7607H8.84794L8.54806 29.2422L8.54732 29.2407C8.00581 28.302 7.85891 27.1862 8.13886 26.1393C8.40132 25.158 9.0186 24.3118 9.86725 23.7624L10.0401 23.656L10.227 23.5445L10.2469 23.5326C10.4549 23.4125 10.6273 23.2394 10.7469 23.0311C10.8666 22.8228 10.9296 22.5866 10.9287 22.3464V21.6536L10.925 21.5649C10.9102 21.3579 10.8487 21.1564 10.744 20.9763C10.6393 20.7963 10.4947 20.6431 10.3222 20.5279L10.2469 20.4806L10.1723 20.4349L9.98173 20.3078C9.07435 19.7617 8.4129 18.8848 8.13886 17.86C7.85901 16.8131 8.00586 15.6979 8.54732 14.7593L8.54806 14.7578L8.84794 14.2393H8.84868L8.95431 14.0664C9.50382 13.2175 10.3504 12.5998 11.3319 12.3373C12.3639 12.0615 13.4619 12.2009 14.3921 12.7236H14.3928L14.5974 12.8329L14.6373 12.8551C14.8445 12.9747 15.0798 13.0382 15.319 13.0383C15.5286 13.0383 15.7352 12.9896 15.9225 12.8972L16.0008 12.8551L16.5836 12.5168L16.5873 12.5146L16.6633 12.4673C16.8367 12.3515 16.9818 12.1972 17.0866 12.016C17.206 11.8094 17.2685 11.575 17.269 11.3365V11.0905C17.2691 10.0056 17.7007 8.96518 18.4678 8.19805C19.235 7.43095 20.2753 7 21.3603 7H21.96C23.045 7 24.086 7.43085 24.8532 8.19805C25.6203 8.96517 26.0512 10.0057 26.0513 11.0905V11.335Z" fill="#3C83F6"/>
<path d="M24.3888 22.0016C24.3888 20.4955 23.1679 19.2741 21.6618 19.2739C20.1555 19.2739 18.934 20.4954 18.934 22.0016C18.9342 23.5077 20.1557 24.7286 21.6618 24.7286C23.1678 24.7285 24.3886 23.5076 24.3888 22.0016ZM27.1158 22.0016C27.1156 25.0138 24.674 27.4555 21.6618 27.4556C18.6494 27.4556 16.2072 25.0139 16.207 22.0016C16.207 18.9892 18.6493 16.5469 21.6618 16.5469C24.6741 16.5471 27.1158 18.9893 27.1158 22.0016Z" fill="#3C83F6"/>
</svg>
