<svg width="44" height="44" viewBox="0 0 44 44" fill="none" xmlns="http://www.w3.org/2000/svg">
<path d="M21.6359 19.2739C21.6358 18.521 21.0247 17.9105 20.2717 17.9105H12.0903C11.3375 17.9106 10.727 18.5211 10.7269 19.2739V32.9098C10.7269 33.6628 11.3374 34.2731 12.0903 34.2733H20.2717C21.0248 34.2733 21.6359 33.6629 21.6359 32.9098V19.2739ZM24.3628 32.9098C24.3628 35.1691 22.531 37.0009 20.2717 37.0009H12.0903C9.8312 37.0007 8 35.169 8 32.9098V19.2739C8.00015 17.0149 9.83129 15.1837 12.0903 15.1836H20.2717C22.5309 15.1836 24.3626 17.0148 24.3628 19.2739V32.9098Z" fill="#3C83F6"/>
<path d="M32.5439 32.9076V11.0903C32.5438 10.7288 32.3999 10.3821 32.1443 10.1265C31.8886 9.87081 31.542 9.72696 31.1804 9.72689H14.8169C14.4553 9.72696 14.1087 9.87081 13.853 10.1265C13.5974 10.3821 13.4535 10.7288 13.4534 11.0903C13.4534 11.8434 12.8431 12.4545 12.09 12.4545C11.3369 12.4545 10.7266 11.8434 10.7266 11.0903C10.7266 10.0055 11.1575 8.9651 11.9246 8.198C12.6917 7.4309 13.7321 7.00007 14.8169 7H31.1804C32.2652 7.00008 33.3057 7.4309 34.0727 8.198C34.8398 8.96509 35.2707 10.0055 35.2707 11.0903V32.9076C35.2707 33.9926 34.8399 35.0335 34.0727 35.8007C33.3057 36.5677 32.2652 36.9986 31.1804 36.9987H27.9077C27.1547 36.9987 26.5444 36.3882 26.5443 35.6352C26.5443 34.8822 27.1546 34.2718 27.9077 34.2718H31.1804C31.5419 34.2717 31.8886 34.1278 32.1443 33.8722C32.4 33.6165 32.5439 33.2693 32.5439 32.9076Z" fill="#3C83F6"/>
<path d="M16.1951 28.8164L16.3347 28.8231C17.0224 28.8928 17.5593 29.4738 17.5593 30.1798C17.5593 30.8859 17.0224 31.4669 16.3347 31.5366L16.1951 31.5433H16.1818C15.4287 31.5433 14.8184 30.9329 14.8184 30.1798C14.8184 29.4268 15.4287 28.8164 16.1818 28.8164H16.1951Z" fill="#3C83F6"/>
</svg>
