<svg width="44" height="44" viewBox="0 0 44 44" fill="none" xmlns="http://www.w3.org/2000/svg">
<path d="M14.7703 18.3744H14.7883M21.9818 18.3744H21.9998M29.1934 18.3744H29.2114M16.5732 29.1917H9.36163C8.40532 29.1917 7.48818 28.8119 6.81196 28.1356C6.13575 27.4594 5.75586 26.5423 5.75586 25.586V11.1629C5.75586 10.2066 6.13575 9.28945 6.81196 8.61323C7.48818 7.93702 8.40532 7.55713 9.36163 7.55713H34.602C35.5583 7.55713 36.4755 7.93702 37.1517 8.61323C37.8279 9.28945 38.2078 10.2066 38.2078 11.1629V25.586C38.2078 26.5423 37.8279 27.4594 37.1517 28.1356C36.4755 28.8119 35.5583 29.1917 34.602 29.1917H25.5876L16.5732 38.2062V29.1917Z" stroke="#A856F7" stroke-width="3" stroke-linecap="round" stroke-linejoin="round"/>
</svg>
