<svg width="44" height="44" viewBox="0 0 44 44" fill="none" xmlns="http://www.w3.org/2000/svg">
<g clip-path="url(#clip0_4160_672)">
<path d="M21.7184 30.25L21.92 30.2607C22.9129 30.3725 23.6881 31.3046 23.6881 32.4373C23.6881 33.5701 22.9129 34.5021 21.92 34.614L21.7184 34.6247H5.9686C4.88126 34.6247 4 33.6455 4 32.4373C4 31.2292 4.88126 30.25 5.9686 30.25H21.7184Z" fill="#3C83F6"/>
<path d="M40.1639 26.3654C40.9372 25.6646 42.0782 25.715 42.799 26.5159C43.5673 27.3701 43.5673 28.7543 42.799 29.6085L34.9236 38.359C34.2027 39.1599 33.0617 39.2103 32.2885 38.5095L32.1392 38.359L28.202 33.9843L28.0665 33.8185C27.4355 32.9592 27.481 31.6916 28.202 30.8906C28.9227 30.09 30.0628 30.0396 30.836 30.7401L30.9853 30.8906L33.5308 33.7177L40.0146 26.5159L40.1639 26.3654Z" fill="#3C83F6"/>
<path d="M31.5625 17.125L31.7641 17.1357C32.7569 17.2476 33.5322 18.1796 33.5322 19.3123C33.5322 20.4451 32.7569 21.3771 31.7641 21.489L31.5625 21.4997H5.9686C4.88126 21.4997 4 20.5205 4 19.3123C4 18.1042 4.88126 17.125 5.9686 17.125H31.5625Z" fill="#3C83F6"/>
<path d="M31.5625 4L31.7641 4.01066C32.7569 4.12257 33.5322 5.0546 33.5322 6.18733C33.5322 7.32006 32.7569 8.2521 31.7641 8.364L31.5625 8.37466H5.9686C4.88126 8.37466 4 7.39548 4 6.18733C4 4.97918 4.88126 4 5.9686 4H31.5625Z" fill="#3C83F6"/>
</g>
<defs>
<clipPath id="clip0_4160_672">
<rect width="43.27" height="43.27" fill="white"/>
</clipPath>
</defs>
</svg>
