<svg width="34" height="30" viewBox="0 0 34 30" fill="none" xmlns="http://www.w3.org/2000/svg">
<path d="M16.9922 0C12.3254 0 8.09353 1.8926 5.01956 4.94876C5.00621 4.96049 4.98922 4.96454 4.97668 4.97708C4.96414 4.98962 4.96009 5.00662 4.94836 5.01997C1.8926 8.09352 8.39205e-07 12.3254 8.39205e-07 16.9922C-0.00128818 21.094 1.48241 25.0576 4.17683 28.1503C4.33366 28.3309 4.55538 28.4424 4.79389 28.4606C5.0324 28.4788 5.26845 28.4022 5.45084 28.2474L9.0018 25.239C9.09429 25.1608 9.17024 25.065 9.2252 24.9571C9.28015 24.8492 9.313 24.7314 9.32182 24.6106C9.33064 24.4898 9.31525 24.3685 9.27655 24.2537C9.23785 24.139 9.17663 24.0331 9.09647 23.9423C7.40427 22.0225 6.47116 19.5509 6.47239 16.9917C6.47239 11.191 11.191 6.47239 16.9918 6.47239C19.4111 6.47425 21.7563 7.30787 23.6341 8.83349C24.5634 9.59207 25.7176 8.18374 24.7839 7.42314C22.8277 5.8279 20.4124 4.87837 17.902 4.69145V1.8663C25.8439 2.34128 32.1637 8.93383 32.1637 16.9922C32.1645 20.3416 31.0563 23.5971 29.0121 26.2504L26.8444 24.4226C28.4599 22.2824 29.3333 19.6736 29.3321 16.9922C29.3321 15.795 29.1602 14.6096 28.8211 13.4683C28.474 12.306 26.7363 12.8436 27.0762 13.9874C27.365 14.9628 27.5115 15.9748 27.5111 16.9922C27.5111 19.5523 26.5806 22.0202 24.8903 23.9391C24.81 24.03 24.7488 24.136 24.7101 24.2509C24.6714 24.3658 24.6561 24.4873 24.6651 24.6082C24.674 24.7291 24.707 24.847 24.7621 24.955C24.8173 25.063 24.8934 25.1589 24.9862 25.237L28.5432 28.2369C28.7257 28.391 28.9615 28.4671 29.1997 28.4487C29.4379 28.4304 29.6593 28.3189 29.816 28.1386C32.5047 25.0477 33.9851 21.0888 33.9843 16.9922C33.9843 7.6226 26.3617 0 16.9922 0ZM8.94516 7.65699L6.94372 5.65596C9.40961 3.46761 12.5851 2.07547 16.0819 1.8663V4.69793C13.4465 4.89049 10.9436 5.92826 8.94516 7.65699ZM7.1448 24.4274L4.98032 26.261C3.12211 23.8541 2.04068 20.94 1.85821 17.9024H4.68943C4.86273 20.2684 5.71531 22.5341 7.1448 24.4274ZM4.69833 16.0819H1.86671C2.07588 12.5847 3.46802 9.4092 5.65637 6.94332L7.6578 8.94394C5.92861 10.9426 4.89067 13.446 4.69833 16.0819Z" fill="#3C83F6"/>
<path d="M19.0529 21.6268C19.9098 20.7687 27.0004 11.4712 27.8063 10.414C28.4293 9.59597 27.4183 8.53841 26.5772 9.10562C24.7493 10.323 15.5861 16.4426 14.7268 17.3019C13.5345 18.4942 13.5345 20.4345 14.7268 21.6268C15.9166 22.8167 17.8578 22.8215 19.0529 21.6268ZM16.0137 18.5889C16.4118 18.1964 19.65 15.966 22.9926 13.7044C20.532 16.9022 18.1628 19.9414 17.7655 20.3395C16.6072 21.4982 14.855 19.7476 16.0137 18.5889ZM13.8602 26.5517H20.1254C21.3302 26.5517 21.3302 24.7311 20.1254 24.7311H13.8602C12.6553 24.7311 12.6553 26.5517 13.8602 26.5517ZM24.6546 28.1801H9.33135C8.12653 28.1801 8.12653 30.0007 9.33135 30.0007H24.6546C25.8591 30.0007 25.8591 28.1801 24.6546 28.1801Z" fill="#3C83F6"/>
</svg>
