<svg width="44" height="44" viewBox="0 0 44 44" fill="none" xmlns="http://www.w3.org/2000/svg">
<path d="M10.812 12.3204C11.3731 11.8625 12.201 11.8955 12.7241 12.4186L17.0101 16.7039L17.1076 16.8122C17.5654 17.3733 17.533 18.2012 17.0101 18.7243C16.4871 19.2472 15.6592 19.2801 15.0981 18.8225L14.9897 18.7243L11.7135 15.448L8.43802 18.7243L8.32969 18.8225C7.76865 19.28 6.94138 19.2471 6.41842 18.7243C5.86053 18.1664 5.86053 17.2618 6.41842 16.7039L10.7037 12.4186L10.812 12.3204Z" fill="#A856F7"/>
<path d="M10.2852 27.7142V13.4284C10.2852 12.6394 10.9246 12 11.7136 12C12.5026 12 13.142 12.6394 13.142 13.4284V27.7142L13.149 27.855C13.1814 28.1821 13.3262 28.4895 13.5606 28.724C13.8285 28.9918 14.1916 29.1425 14.5704 29.1426H23.1417L23.288 29.1504C24.0084 29.2234 24.5708 29.8314 24.5709 30.571C24.5709 31.3108 24.0084 31.9194 23.288 31.9925L23.1417 31.9995H14.5704C13.4339 31.9994 12.3439 31.548 11.5402 30.7444C10.7869 29.991 10.3432 28.9861 10.2906 27.927L10.2852 27.7142Z" fill="#A856F7"/>
<path d="M34.9898 25.2779C35.5477 24.72 36.4523 24.72 37.0102 25.2779C37.5676 25.8357 37.5676 26.7397 37.0102 27.2975L32.7242 31.5835C32.1663 32.1414 31.2617 32.1414 30.7038 31.5835L26.4185 27.2975L26.3202 27.1892C25.8626 26.6281 25.8955 25.8009 26.4185 25.2779C26.9415 24.7549 27.7687 24.722 28.3298 25.1796L28.4381 25.2779L31.7136 28.5526L34.9898 25.2779Z" fill="#A856F7"/>
<path d="M30.2856 30.571V16.2853C30.2855 15.9066 30.1354 15.5433 29.8677 15.2755C29.6334 15.0411 29.3257 14.8963 28.9988 14.8638L28.8572 14.8568H20.2858C19.4969 14.8568 18.8574 14.2174 18.8574 13.4284C18.8574 12.6394 19.4969 12 20.2858 12H28.8572L29.0699 12.0054C30.129 12.058 31.1339 12.5018 31.8873 13.2551C32.691 14.0587 33.1431 15.1487 33.1432 16.2853V30.571C33.1432 31.36 32.503 31.9995 31.714 31.9995C30.9252 31.9993 30.2856 31.3599 30.2856 30.571Z" fill="#A856F7"/>
</svg>
