<svg width="44" height="44" viewBox="0 0 44 44" fill="none" xmlns="http://www.w3.org/2000/svg">
<path d="M35.7396 18.8192L32.8327 17.8746C32.7542 17.6684 32.6687 17.4621 32.5773 17.2582L33.9642 14.5359C34.3304 13.8193 34.1992 12.9866 33.629 12.4142L31.5852 10.3704C31.0134 9.80084 30.1813 9.66958 29.4647 10.0358L26.7424 11.4239C26.5373 11.3319 26.331 11.2464 26.126 11.1673L25.1814 8.26096C24.933 7.49513 24.2509 7 23.4447 7H20.5565C19.7502 7 19.0682 7.49513 18.8198 8.26096L17.8752 11.1673C17.6671 11.2463 17.4614 11.3313 17.2582 11.4222L14.5365 10.0358C13.8199 9.66958 12.9872 9.80084 12.4148 10.371L10.371 12.4153C9.80142 12.9866 9.67017 13.8193 10.0364 14.5359L11.4233 17.2588C11.3319 17.4633 11.247 17.669 11.1679 17.8752L8.26155 18.8198C7.49513 19.0676 7 19.7497 7 20.5559V23.4441C7 24.2503 7.49513 24.9324 8.26096 25.1808L11.1679 26.1254C11.2464 26.331 11.3319 26.5373 11.4233 26.7418L10.0364 29.4641C9.67017 30.1807 9.80142 31.0134 10.3716 31.5858L12.4153 33.6296C12.9872 34.1992 13.8193 34.3304 14.5359 33.9642L17.2576 32.5761C17.4604 32.6675 17.6666 32.753 17.8746 32.8327L18.8192 35.739C19.0676 36.5049 19.7497 37 20.5559 37H23.4441C24.2503 37 24.9324 36.5049 25.1808 35.739L26.1254 32.8321C26.3334 32.7525 26.5396 32.6669 26.7424 32.5755L29.4641 33.9636C30.1807 34.3298 31.0134 34.1986 31.5858 33.6285L33.6296 31.5847C34.1992 31.0128 34.3304 30.1807 33.9642 29.4641L32.5761 26.7424C32.6675 26.5396 32.753 26.3334 32.8327 26.1254L35.739 25.1808C36.5055 24.9324 37 24.2503 37 23.4441V20.5559C37.0006 19.7497 36.5055 19.0676 35.7396 18.8192ZM36.0619 23.4447C36.0619 23.8367 35.8217 24.1683 35.449 24.289L32.3265 25.3039C32.2584 25.3262 32.1964 25.3636 32.145 25.4135C32.0936 25.4633 32.0543 25.5242 32.03 25.5916C31.9128 25.9179 31.7786 26.2408 31.631 26.5519C31.6001 26.6168 31.5845 26.6879 31.5855 26.7598C31.5866 26.8316 31.6041 26.9022 31.6368 26.9662L33.1286 29.8913C33.3091 30.2446 33.2464 30.6401 32.9657 30.922L30.9231 32.9646C30.6401 33.2464 30.2452 33.3091 29.8913 33.1281L26.9662 31.6362C26.9022 31.6035 26.8316 31.586 26.7598 31.585C26.6879 31.5839 26.6168 31.5995 26.5519 31.6304C26.2402 31.778 25.9168 31.9128 25.591 32.0294C25.5237 32.0537 25.4628 32.093 25.4129 32.1444C25.3631 32.1958 25.3256 32.2579 25.3033 32.3259L24.2884 35.4484C24.1677 35.8205 23.8361 36.0607 23.4441 36.0607H20.5559C20.1639 36.0607 19.8323 35.8205 19.7116 35.4484L18.6967 32.3259C18.6745 32.2578 18.6371 32.1957 18.5872 32.1443C18.5373 32.0929 18.4764 32.0536 18.409 32.0294C18.0832 31.9122 17.7598 31.778 17.4481 31.6304C17.3853 31.6005 17.3166 31.5851 17.2471 31.5852C17.1738 31.5852 17.1006 31.6022 17.0338 31.6362L14.1087 33.1281C13.7554 33.3085 13.3599 33.2458 13.078 32.9652L11.036 30.9231C10.7542 30.6401 10.6915 30.2452 10.8725 29.8913L12.3626 26.9662C12.395 26.9025 12.4124 26.8322 12.4135 26.7607C12.4146 26.6892 12.3994 26.6184 12.3691 26.5537C12.2213 26.2392 12.0884 25.9179 11.9706 25.591C11.9463 25.5237 11.907 25.4628 11.8556 25.4129C11.8042 25.3631 11.7421 25.3256 11.6741 25.3033L8.55159 24.2884C8.17952 24.1677 7.93928 23.8361 7.93928 23.4441V20.5559C7.93928 20.1639 8.17952 19.8323 8.55218 19.7116L11.6747 18.6967C11.7427 18.6744 11.8048 18.6369 11.8562 18.5871C11.9075 18.5372 11.9469 18.4763 11.9712 18.409C12.0866 18.0879 12.2208 17.7639 12.3696 17.4463C12.4 17.3816 12.4152 17.3108 12.4141 17.2393C12.413 17.1678 12.3956 17.0975 12.3632 17.0338L10.8731 14.1081C10.6927 13.7542 10.7553 13.3593 11.036 13.0769L13.0786 11.0343C13.3616 10.7524 13.7566 10.6897 14.1105 10.8708L17.0355 12.3608C17.0996 12.3934 17.1702 12.4109 17.242 12.4119C17.3138 12.4129 17.3849 12.3975 17.4498 12.3667C17.7522 12.2231 18.075 12.0896 18.4108 11.9688C18.4781 11.9445 18.539 11.9052 18.5889 11.8538C18.6387 11.8024 18.6762 11.7404 18.6985 11.6724L19.7133 8.54984C19.834 8.17776 20.1657 7.93752 20.5577 7.93752H23.4458C23.8378 7.93752 24.1695 8.17776 24.2902 8.54984L25.305 11.6724C25.3272 11.7404 25.3647 11.8025 25.4145 11.8539C25.4644 11.9053 25.5254 11.9446 25.5927 11.9688C25.9121 12.0837 26.2355 12.2179 26.5543 12.3685C26.6191 12.3991 26.6902 12.4145 26.7619 12.4134C26.8336 12.4122 26.9041 12.3947 26.968 12.362L29.893 10.8702C30.2464 10.6897 30.6419 10.7524 30.9237 11.0331L32.9663 13.0751C33.2482 13.3581 33.3109 13.7531 33.1298 14.107L31.6397 17.032C31.6074 17.0958 31.5899 17.1661 31.5888 17.2375C31.5877 17.309 31.6029 17.3798 31.6333 17.4445C31.7821 17.7615 31.9163 18.0856 32.0317 18.4067C32.0561 18.474 32.0954 18.5349 32.1468 18.5848C32.1981 18.6346 32.2602 18.6721 32.3282 18.6944L35.4508 19.7092C35.8228 19.8299 36.0631 20.1616 36.0631 20.5536V23.4447H36.0619ZM21.9997 15.0228C18.1524 15.0228 15.0228 18.1524 15.0228 21.9997C15.0228 24.7789 16.6711 27.292 19.2211 28.403C19.2809 28.4287 19.3448 28.4422 19.4086 28.4422C19.469 28.4422 19.5293 28.4305 19.5862 28.4071C19.7034 28.359 19.7965 28.2658 19.8434 28.1481L21.4712 24.1068C21.5152 23.9976 21.5166 23.8758 21.475 23.7656C21.4335 23.6554 21.352 23.5649 21.2468 23.512C20.6708 23.2226 20.3128 22.6431 20.3128 21.9997C20.3128 21.0686 21.0692 20.3116 21.9997 20.3116C22.9308 20.3116 23.6878 21.0692 23.6878 21.9997C23.6878 22.6431 23.3298 23.2226 22.7538 23.512C22.6486 23.5649 22.5671 23.6554 22.5255 23.7656C22.484 23.8758 22.4853 23.9976 22.5294 24.1068L24.1572 28.1481C24.2046 28.2658 24.2972 28.359 24.4144 28.4071C24.5316 28.4551 24.6634 28.4533 24.7794 28.403C27.3301 27.292 28.9778 24.7789 28.9778 21.9997C28.9778 18.1524 25.8476 15.0228 21.9997 15.0228ZM24.8398 27.3318L23.5478 24.1238C24.2216 23.6333 24.6259 22.8528 24.6259 21.9997C24.6259 20.5512 23.4476 19.3729 21.9991 19.3729C20.5518 19.3729 19.3741 20.5512 19.3741 21.9997C19.3741 22.8528 19.7784 23.6333 20.4528 24.1238L19.1608 27.3318C17.2025 26.2865 15.9615 24.2433 15.9615 21.9997C15.9615 18.6703 18.6703 15.9615 21.9997 15.9615C25.3302 15.9615 28.0397 18.6703 28.0397 21.9997C28.0397 24.2427 26.7986 26.2865 24.8398 27.3318Z" fill="#A856F7" stroke="#A856F7" stroke-width="1.2"/>
</svg>
