<svg width="44" height="44" viewBox="0 0 44 44" fill="none" xmlns="http://www.w3.org/2000/svg">
<path d="M21.1816 35.6365V8.3635C21.1816 7.61038 21.792 7 22.5451 7C23.2983 7 23.9086 7.61038 23.9086 8.3635V35.6365C23.9085 36.3895 23.2982 37 22.5451 37C21.7921 37 21.1817 36.3895 21.1816 35.6365Z" fill="#A856F7"/>
<path d="M29.3635 26.7716C29.3635 25.8674 29.0042 25.0001 28.3649 24.3607C27.7654 23.7614 26.9658 23.4083 26.1232 23.3665L25.9547 23.3621H19.1365C17.509 23.3621 15.9479 22.7158 14.7971 21.565C13.7183 20.4862 13.0827 19.0472 13.0074 17.5307L13 17.2263C13 15.5989 13.6463 14.0377 14.7971 12.8869C15.9479 11.7361 17.509 11.0898 19.1365 11.0898H29.3635L29.5031 11.0965C30.1907 11.1664 30.727 11.7473 30.727 12.4533C30.727 13.1594 30.1907 13.7403 29.5031 13.8102L29.3635 13.8168H19.1365C18.2323 13.8168 17.365 14.1761 16.7256 14.8155C16.0863 15.4548 15.727 16.3222 15.727 17.2263L15.7314 17.3955C15.7733 18.2379 16.1264 19.0372 16.7256 19.6365C17.365 20.2758 18.2323 20.6351 19.1365 20.6351H25.9547L26.2591 20.6425C27.7755 20.7178 29.2147 21.3535 30.2934 22.4322C31.4442 23.583 32.0905 25.1441 32.0905 26.7716C32.0905 28.399 31.4441 29.9595 30.2934 31.1103C29.2146 32.1891 27.7756 32.8254 26.2591 32.9007L25.9547 32.9081H14.3635C13.6105 32.9081 13.0002 32.2976 13 31.5446C13 30.7915 13.6104 30.1804 14.3635 30.1804H25.9547L26.1232 30.1767C26.9658 30.1349 27.7655 29.7818 28.3649 29.1825C29.0042 28.5431 29.3635 27.6757 29.3635 26.7716Z" fill="#A856F7"/>
</svg>
