<svg width="45" height="44" viewBox="0 0 45 44" fill="none" xmlns="http://www.w3.org/2000/svg">
<path d="M20.832 37.3073V30.5425C20.832 29.6085 21.589 28.8516 22.523 28.8516C23.457 28.8516 24.214 29.6085 24.214 30.5425V37.3073C24.2138 38.2412 23.4569 38.9983 22.523 38.9983C21.5891 38.9983 20.8322 38.2412 20.832 37.3073Z" fill="#A856F7"/>
<path d="M27.4974 12.2624C28.3185 12.0162 29.2089 12.427 29.5437 13.2361C29.8786 14.0451 29.5391 14.9652 28.7844 15.3714L28.6277 15.4456L27.0668 16.0914C26.2038 16.4485 25.2146 16.0383 24.8574 15.1753C24.5004 14.3124 24.9105 13.323 25.7734 12.9659L27.3343 12.3201L27.4974 12.2624Z" fill="#A856F7"/>
<path d="M24.8581 8.70348C25.1939 7.8949 26.0846 7.4846 26.9054 7.73159L27.0685 7.79021L28.6294 8.43784L28.7851 8.51203C29.5397 8.9188 29.8783 9.83936 29.5426 10.6482C29.2069 11.4568 28.3162 11.8671 27.4953 11.6201L27.3323 11.5615L25.7714 10.9138L25.6157 10.8396C24.8611 10.4329 24.5225 9.5123 24.8581 8.70348Z" fill="#A856F7"/>
<path d="M29.4327 4.12939C30.2414 3.79417 31.1613 4.13261 31.5679 4.88694L31.6421 5.04358L32.2907 6.60631L32.3484 6.76936C32.5949 7.59026 32.1844 8.48043 31.3756 8.81575C30.5128 9.17334 29.5238 8.76417 29.1661 7.90156L28.5185 6.33883L28.4599 6.17578C28.2133 5.3549 28.6239 4.46475 29.4327 4.12939Z" fill="#A856F7"/>
<path d="M29.2401 15.8247C29.6469 15.0701 30.5674 14.7315 31.3763 15.0671C32.1849 15.4028 32.5952 16.2936 32.3482 17.1144L32.2895 17.2775L31.6419 18.8384C31.2838 19.7008 30.2941 20.1095 29.4315 19.7516C28.5692 19.3935 28.1604 18.4038 28.5183 17.5413L29.1659 15.9804L29.2401 15.8247Z" fill="#A856F7"/>
<path d="M33.7711 4.88695C34.1778 4.13259 35.0976 3.79417 35.9064 4.1294C36.769 4.48707 37.179 5.4761 36.8215 6.33884L36.1729 7.90156C35.8152 8.76416 34.8262 9.17334 33.9635 8.81575C33.1008 8.45806 32.6917 7.46906 33.0493 6.60631L33.6969 5.04359L33.7711 4.88695Z" fill="#A856F7"/>
<path d="M33.9653 15.0662C34.7744 14.7318 35.6938 15.0715 36.0996 15.8265L36.1738 15.9831L36.8196 17.5458L36.8782 17.7089C37.1237 18.5298 36.7124 19.4198 35.9036 19.7543C35.0944 20.0889 34.1742 19.7491 33.7683 18.994L33.6941 18.8374L33.0484 17.2747L32.9906 17.1116C32.7449 16.2905 33.1561 15.4007 33.9653 15.0662Z" fill="#A856F7"/>
<path d="M38.4354 7.73132C39.2562 7.48483 40.1464 7.89538 40.4817 8.70413C40.817 9.51284 40.4785 10.4327 39.7242 10.8394L39.5676 10.9136L38.0048 11.5621L37.8418 11.6198C37.0209 11.8664 36.1307 11.4558 35.7954 10.647C35.4378 9.78426 35.8469 8.79527 36.7096 8.43757L38.2723 7.78995L38.4354 7.73132Z" fill="#A856F7"/>
<path d="M35.7954 13.2354C36.1308 12.4266 37.0209 12.016 37.8418 12.2626L38.0048 12.3212L39.5676 12.9688L39.7242 13.043C40.4785 13.4497 40.817 14.3696 40.4818 15.1783C40.1241 16.041 39.1351 16.4509 38.2723 16.0934L36.7096 15.4448L36.553 15.3706C35.7986 14.964 35.4602 14.0441 35.7954 13.2354Z" fill="#A856F7"/>
<path d="M3.91992 27.1602V10.2487C3.92001 8.90326 4.45433 7.61294 5.4057 6.66156C6.35708 5.71019 7.6474 5.17587 8.99283 5.17578H20.8315L21.0037 5.18403C21.8566 5.27043 22.5224 5.99099 22.5224 6.86675C22.5224 7.74252 21.8566 8.46308 21.0037 8.54948L20.8315 8.55772H8.99283C8.54444 8.55781 8.1145 8.73622 7.79743 9.05329C7.48036 9.37036 7.30195 9.8003 7.30186 10.2487V27.1602C7.30186 27.6088 7.48028 28.0394 7.79743 28.3566C8.11448 28.6735 8.54452 28.8511 8.99283 28.8512H36.0511C36.4996 28.8512 36.9303 28.6737 37.2474 28.3566C37.5646 28.0394 37.743 27.6088 37.743 27.1602V23.7783C37.743 22.8443 38.5 22.0873 39.434 22.0873C40.3679 22.0875 41.1249 22.8444 41.1249 23.7783V27.1602C41.1249 28.5058 40.5906 29.7968 39.6392 30.7483C38.6877 31.6997 37.3966 32.2341 36.0511 32.2341H8.99283C7.64748 32.234 6.35706 31.6995 5.4057 30.7483C4.45425 29.7968 3.91992 28.5058 3.91992 27.1602Z" fill="#A856F7"/>
<path d="M29.2861 35.6172L29.4592 35.6254C30.3121 35.7119 30.9779 36.4325 30.9779 37.3082C30.9779 38.1839 30.3121 38.9044 29.4592 38.9909L29.2861 38.9991H15.7574C14.8234 38.9991 14.0664 38.2422 14.0664 37.3082C14.0664 36.3742 14.8234 35.6172 15.7574 35.6172H29.2861Z" fill="#A856F7"/>
<path d="M36.051 11.9406C36.051 10.0727 34.5369 8.55794 32.6691 8.55772C30.8011 8.55772 29.2862 10.0726 29.2862 11.9406C29.2865 13.8084 30.8012 15.3225 32.6691 15.3225C34.5368 15.3223 36.0508 13.8082 36.051 11.9406ZM39.433 11.9406C39.4328 15.6762 36.4047 18.7042 32.6691 18.7045C28.9333 18.7045 25.9045 15.6764 25.9043 11.9406C25.9043 8.20461 28.9331 5.17578 32.6691 5.17578C36.4049 5.176 39.433 8.20475 39.433 11.9406Z" fill="#A856F7"/>
</svg>
