<svg width="44" height="44" viewBox="0 0 44 44" fill="none" xmlns="http://www.w3.org/2000/svg">
<path d="M20.4961 35.5488V29.7502C20.4961 28.9496 21.1449 28.3008 21.9455 28.3008C22.7461 28.3008 23.395 28.9496 23.395 29.7502V35.5488C23.3949 36.3493 22.7461 36.9982 21.9455 36.9982C21.145 36.9982 20.4962 36.3493 20.4961 35.5488Z" fill="#A856F7"/>
<path d="M26.2093 14.0804C26.9131 13.8694 27.6763 14.2215 27.9634 14.915C28.2504 15.6085 27.9594 16.3971 27.3125 16.7453L27.1782 16.8089L25.8403 17.3624C25.1005 17.6686 24.2526 17.317 23.9464 16.5772C23.6404 15.8376 23.9919 14.9895 24.7316 14.6834L26.0695 14.1298L26.2093 14.0804Z" fill="#A856F7"/>
<path d="M23.947 11.031C24.2348 10.3379 24.9983 9.98623 25.7019 10.1979L25.8417 10.2482L27.1796 10.8033L27.3131 10.8669C27.9599 11.2156 28.2501 12.0046 27.9624 12.698C27.6746 13.3911 26.9111 13.7428 26.2076 13.531L26.0678 13.4808L24.7298 12.9257L24.5964 12.8621C23.9496 12.5134 23.6593 11.7243 23.947 11.031Z" fill="#A856F7"/>
<path d="M27.8695 7.11091C28.5627 6.82357 29.3512 7.11367 29.6997 7.76025L29.7633 7.89452L30.3192 9.23403L30.3687 9.3738C30.58 10.0774 30.2281 10.8405 29.5349 11.1279C28.7954 11.4344 27.9476 11.0837 27.641 10.3443L27.0859 9.00476L27.0356 8.865C26.8243 8.16137 27.1762 7.39837 27.8695 7.11091Z" fill="#A856F7"/>
<path d="M27.7044 17.1354C28.0531 16.4886 28.8422 16.1984 29.5355 16.4861C30.2286 16.7739 30.5803 17.5374 30.3685 18.241L30.3183 18.3807L29.7632 19.7187C29.4562 20.4579 28.6079 20.8083 27.8685 20.5015C27.1293 20.1945 26.7789 19.3462 27.0857 18.6069L27.6408 17.2689L27.7044 17.1354Z" fill="#A856F7"/>
<path d="M31.587 7.76026C31.9356 7.11365 32.7241 6.82357 33.4173 7.11092C34.1568 7.4175 34.5082 8.26526 34.2017 9.00477L33.6458 10.3443C33.3391 11.0837 32.4914 11.4344 31.7519 11.1279C31.0125 10.8213 30.6618 9.97356 30.9683 9.23404L31.5234 7.89452L31.587 7.76026Z" fill="#A856F7"/>
<path d="M31.7535 16.4853C32.447 16.1987 33.2351 16.4899 33.5829 17.137L33.6465 17.2712L34.2001 18.6108L34.2503 18.7505C34.4608 19.4542 34.1082 20.217 33.4149 20.5038C32.7213 20.7906 31.9325 20.4993 31.5847 19.8521L31.5211 19.7179L30.9675 18.3783L30.918 18.2386C30.7074 17.5347 31.0599 16.772 31.7535 16.4853Z" fill="#A856F7"/>
<path d="M35.5847 10.1977C36.2883 9.98643 37.0514 10.3383 37.3388 11.0316C37.6261 11.7248 37.336 12.5132 36.6895 12.8618L36.5552 12.9254L35.2157 13.4813L35.0759 13.5308C34.3723 13.7422 33.6093 13.3902 33.3218 12.6969C33.0153 11.9574 33.366 11.1097 34.1054 10.8031L35.445 10.248L35.5847 10.1977Z" fill="#A856F7"/>
<path d="M33.3218 14.9144C33.6093 14.2212 34.3723 13.8692 35.0759 14.0806L35.2157 14.1308L36.5552 14.6859L36.6895 14.7495C37.336 15.0981 37.6262 15.8866 37.3388 16.5798C37.0323 17.3192 36.1845 17.6706 35.445 17.3642L34.1055 16.8083L33.9712 16.7447C33.3246 16.3961 33.0345 15.6076 33.3218 14.9144Z" fill="#A856F7"/>
<path d="M6 26.8521V12.3561C6.00008 11.2029 6.45808 10.0969 7.27356 9.28137C8.08904 8.46589 9.19506 8.00789 10.3483 8.00781H20.496L20.6436 8.01488C21.3747 8.08894 21.9454 8.70658 21.9454 9.45725C21.9454 10.2079 21.3747 10.8256 20.6436 10.8996L20.496 10.9067H10.3483C9.96397 10.9068 9.59544 11.0597 9.32366 11.3315C9.05188 11.6033 8.89896 11.9718 8.89888 12.3561V26.8521C8.89888 27.2366 9.05181 27.6057 9.32366 27.8775C9.59543 28.1492 9.96404 28.3015 10.3483 28.3015H33.5417C33.9261 28.3015 34.2953 28.1494 34.5671 27.8775C34.839 27.6057 34.9919 27.2365 34.9919 26.8521V23.9532C34.9919 23.1526 35.6408 22.5038 36.4414 22.5038C37.2419 22.5039 37.8908 23.1527 37.8908 23.9532V26.8521C37.8908 28.0055 37.4328 29.1121 36.6173 29.9276C35.8017 30.7432 34.695 31.2012 33.5417 31.2012H10.3483C9.19513 31.2011 8.08903 30.743 7.27356 29.9276C6.45801 29.1121 6 28.0055 6 26.8521Z" fill="#A856F7"/>
<path d="M27.743 34.1016L27.8914 34.1086C28.6225 34.1828 29.1932 34.8004 29.1932 35.551C29.1932 36.3016 28.6225 36.9192 27.8914 36.9934L27.743 37.0004H16.1467C15.3461 37.0004 14.6973 36.3516 14.6973 35.551C14.6973 34.7504 15.3461 34.1016 16.1467 34.1016H27.743Z" fill="#A856F7"/>
<path d="M33.5412 13.8064C33.5412 12.2053 32.2433 10.9069 30.6423 10.9067C29.0411 10.9067 27.7426 12.2052 27.7426 13.8064C27.7428 15.4074 29.0412 16.7052 30.6423 16.7052C32.2432 16.705 33.541 15.4073 33.5412 13.8064ZM36.4401 13.8064C36.4399 17.0084 33.8444 19.6039 30.6423 19.6041C27.4401 19.6041 24.8439 17.0085 24.8438 13.8064C24.8438 10.604 27.44 8.00781 30.6423 8.00781C33.8445 8.008 36.4401 10.6041 36.4401 13.8064Z" fill="#A856F7"/>
</svg>
