<svg width="44" height="44" viewBox="0 0 44 44" fill="none" xmlns="http://www.w3.org/2000/svg">
<path d="M38.3426 11.4112C39.0627 10.8235 40.1251 10.866 40.7964 11.5373C41.5122 12.2532 41.5122 13.4132 40.7964 14.1292L25.2134 29.7132C24.5422 30.3844 23.4797 30.4265 22.7596 29.8393L22.6205 29.7132L14.7496 21.8422L4.12885 32.463L3.98983 32.5891C3.26975 33.1763 2.20817 33.1341 1.53698 32.463C0.821007 31.747 0.821007 30.5861 1.53698 29.8701L13.4536 17.9534L13.5927 17.8273C14.3128 17.2402 15.3754 17.2823 16.0465 17.9534L23.9165 25.8234L38.2036 11.5373L38.3426 11.4112Z" fill="#3C83F6"/>
<path d="M37.6661 23.8333V14.6664H28.4992C27.4867 14.6664 26.666 13.8457 26.666 12.8332C26.666 11.8206 27.4867 11 28.4992 11H39.4993L39.687 11.0089C40.6114 11.1029 41.3324 11.884 41.3324 12.8332V23.8333C41.3324 24.8458 40.5118 25.6664 39.4993 25.6664C38.4868 25.6664 37.6661 24.8458 37.6661 23.8333Z" fill="#3C83F6"/>
</svg>
