<svg width="44" height="44" viewBox="0 0 44 44" fill="none" xmlns="http://www.w3.org/2000/svg">
<path d="M11.9694 36.9882L11.3926 32.6066L15.7742 32.0297M32.029 7.01172L32.6058 11.3933L28.2242 11.9702" stroke="#A856F7" stroke-width="2.17842" stroke-miterlimit="10" stroke-linecap="round" stroke-linejoin="round"/>
<path d="M32.6066 11.3934C29.8922 8.67894 26.1422 7 22 7C13.7158 7 7 13.7157 7 22C7 24.3157 7.5255 26.5082 8.46253 28.4664M11.3934 32.6066C14.1078 35.3211 17.8579 37 22 37C30.2842 37 37 30.2842 37 22C37 19.6843 36.4745 17.4917 35.5375 15.5336" stroke="#A856F7" stroke-width="2.17842" stroke-miterlimit="10" stroke-linecap="round" stroke-linejoin="round"/>
<path d="M30.6363 19.5325L28.4578 15.7593L27.9914 16.0286C26.2971 17.0069 24.1792 15.7841 24.1792 13.8276V13.2891H19.8223V13.8276C19.8223 15.784 17.7044 17.0068 16.0101 16.0286L15.5437 15.7593L13.3652 19.5325L13.8316 19.8017C15.5259 20.78 15.5259 23.2255 13.8316 24.2038L13.3652 24.473L15.5437 28.2462L16.0101 27.9769C17.7044 26.9986 19.8223 28.2214 19.8223 30.1779V30.7164H24.1792V30.1779C24.1792 28.2215 26.2971 26.9987 27.9914 27.9769L28.4578 28.2462L30.6363 24.473L30.1699 24.2038C28.4756 23.2255 28.4756 20.78 30.1699 19.8017L30.6363 19.5325Z" stroke="#A856F7" stroke-width="2.17842" stroke-miterlimit="10" stroke-linecap="round" stroke-linejoin="round"/>
<path d="M22.0007 25.1147C23.7194 25.1147 25.1127 23.7214 25.1127 22.0027C25.1127 20.2839 23.7194 18.8906 22.0007 18.8906C20.282 18.8906 18.8887 20.2839 18.8887 22.0027C18.8887 23.7214 20.282 25.1147 22.0007 25.1147Z" stroke="#A856F7" stroke-width="2.17842" stroke-miterlimit="10" stroke-linecap="round" stroke-linejoin="round"/>
</svg>
