<svg width="44" height="44" viewBox="0 0 44 44" fill="none" xmlns="http://www.w3.org/2000/svg">
<path d="M18.9996 11.4995C18.9994 10.6712 18.328 9.99969 17.4997 9.99969H11.4995C10.6713 9.99985 9.99985 10.6713 9.99969 11.4995V17.4997C9.99969 18.328 10.6712 18.9994 11.4995 18.9996H17.4997C18.3281 18.9996 18.9996 18.3281 18.9996 17.4997V11.4995ZM22.0001 17.4997C22.0001 19.985 19.985 22.0001 17.4997 22.0001H11.4995C9.0144 21.9999 7 19.9849 7 17.4997V11.4995C7.00016 9.0145 9.0145 7.00016 11.4995 7H17.4997C19.9849 7 21.9999 9.0144 22.0001 11.4995V17.4997Z" fill="#A856F7"/>
<path d="M13 26.5V20.4998C13 19.6714 13.6714 19 14.4998 19C15.3283 19 15.9997 19.6714 15.9997 20.4998V26.5L16.007 26.6479C16.0411 26.9913 16.1931 27.3141 16.4392 27.5603C16.7205 27.8415 17.1018 27.9998 17.4995 27.9999H23.4997L23.6533 28.0072C24.4096 28.084 24.9995 28.7231 24.9996 29.4997C24.9996 30.2763 24.4096 30.9154 23.6533 30.9922L23.4997 30.9996H17.4995C16.3062 30.9995 15.1617 30.5255 14.3178 29.6817C13.5266 28.8905 13.0608 27.835 13.0057 26.7226L13 26.5Z" fill="#A856F7"/>
<path d="M33.9996 26.4995C33.9994 25.6712 33.328 24.9997 32.4997 24.9997H26.4995C25.6713 24.9998 24.9998 25.6713 24.9997 26.4995V32.4997C24.9997 33.328 25.6712 33.9994 26.4995 33.9996H32.4997C33.3281 33.9996 33.9996 33.3281 33.9996 32.4997V26.4995ZM37.0001 32.4997C37.0001 34.985 34.985 37.0001 32.4997 37.0001H26.4995C24.0144 36.9999 22 34.9849 22 32.4997V26.4995C22.0002 24.0145 24.0145 22.0002 26.4995 22H32.4997C34.9849 22 36.9999 24.0144 37.0001 26.4995V32.4997Z" fill="#A856F7"/>
</svg>
