<svg width="44" height="44" viewBox="0 0 44 44" fill="none" xmlns="http://www.w3.org/2000/svg">
<path d="M24.4681 10.1391C25.0455 9.59053 25.9583 9.6133 26.5069 10.1906C27.0554 10.768 27.0318 11.6809 26.4546 12.2295L23.5705 14.9698L23.458 15.0659C22.8799 15.5132 22.046 15.4588 21.5317 14.9174C20.9831 14.34 21.0058 13.4272 21.5832 12.8786L24.4681 10.1391Z" fill="#3C83F6"/>
<path d="M7.05226 15.2701C7.25079 14.5504 7.96122 14.1092 8.68176 14.2311L8.82628 14.2632L13.0086 15.4169L13.1485 15.4638C13.8299 15.7283 14.2141 16.4711 14.0155 17.191C13.8169 17.9109 13.106 18.3523 12.3853 18.2299L12.2415 18.1979L8.05918 17.0441L7.91935 16.9972C7.23785 16.7327 6.85368 15.9899 7.05226 15.2701Z" fill="#3C83F6"/>
<path d="M12.2275 26.4526C11.6789 27.0298 10.7661 27.0534 10.1887 26.5049C9.61134 25.9563 9.58858 25.0435 10.1371 24.4661L12.2275 26.4526ZM12.9837 21.4797C13.5381 21.0033 14.3741 21.0154 14.9155 21.5297C15.4929 22.0783 15.5164 22.9911 14.9678 23.5685L12.2275 26.4526L10.1371 24.4661L12.8767 21.5812L12.9837 21.4797Z" fill="#3C83F6"/>
<path d="M15.2701 7.05226C15.9899 6.85368 16.7327 7.23785 16.9972 7.91935L17.0441 8.05918L18.1979 12.2415L18.2299 12.3853C18.3523 13.106 17.9109 13.8169 17.191 14.0155C16.4711 14.2141 15.7283 13.8299 15.4638 13.1485L15.4169 13.0086L14.2632 8.82628L14.2311 8.68176C14.1092 7.96122 14.5504 7.25079 15.2701 7.05226Z" fill="#3C83F6"/>
<path d="M18.7111 16.8194C19.0772 16.7762 19.4486 16.8285 19.7906 16.9702L19.7914 16.9686L35.6553 23.4585L35.6561 23.4593L35.8123 23.5304C36.1168 23.6845 36.3804 23.9087 36.5817 24.1842L36.6778 24.3264L36.7614 24.4756C36.9428 24.8303 37.023 25.2293 36.9918 25.6286C36.9563 26.085 36.777 26.5188 36.4794 26.8667C36.1819 27.2146 35.7818 27.4591 35.3366 27.5651L35.3358 27.5643L29.0662 29.0657L29.0654 29.0665L29.0646 29.0657L27.5663 35.3314L27.5671 35.3322C27.4622 35.779 27.2179 36.1809 26.8695 36.4797C26.5211 36.7786 26.0867 36.9589 25.6291 36.9945C25.1714 37.0301 24.7142 36.9194 24.3237 36.6782C23.9341 36.4373 23.6312 36.0789 23.4582 35.6548V35.6556L16.9683 19.7918L16.9699 19.791C16.8077 19.3994 16.7632 18.9692 16.8441 18.5528L16.88 18.3958C16.9787 18.0342 17.1706 17.7037 17.437 17.4373L17.555 17.328C17.839 17.0833 18.1827 16.9163 18.5525 16.8444L18.7111 16.8194ZM25.2799 32.4911L26.2602 28.3939L26.261 28.3924L26.3141 28.2002C26.4534 27.7577 26.6977 27.3545 27.0273 27.0253C27.4039 26.6493 27.8769 26.3843 28.3944 26.2606L32.4892 25.2802L20.2882 20.2886L25.2799 32.4911Z" fill="#3C83F6"/>
</svg>
