<svg width="32" height="32" viewBox="0 0 32 32" fill="none" xmlns="http://www.w3.org/2000/svg">
<path d="M29.2422 20.488V3.63672C29.2422 2.18283 28.0594 1 26.6055 1H7.21094C5.75705 1 4.57422 2.18283 4.57422 3.63672V4.57422H3.63672C2.18283 4.57422 1 5.75705 1 7.21094C1 8.66482 2.18283 9.84766 3.63672 9.84766H4.57422V13.3633H3.63672C2.18283 13.3633 1 14.5461 1 16C1 17.4539 2.18283 18.6367 3.63672 18.6367H4.57422V22.1523H3.63672C2.18283 22.1523 1 23.3352 1 24.7891C1 26.2429 2.18283 27.4258 3.63672 27.4258H4.57422V28.3047C4.57422 29.0052 4.84357 29.6727 5.33266 30.1843C5.83551 30.7103 6.5026 31 7.21094 31H24.8477C28.2401 31 31 28.2138 31 24.7891C31 23.1166 30.3289 21.5982 29.2422 20.488ZM3.63672 8.08984C3.15209 8.08984 2.75781 7.69557 2.75781 7.21094C2.75781 6.72631 3.15209 6.33203 3.63672 6.33203H5.45312C5.93775 6.33203 6.33203 6.72631 6.33203 7.21094C6.33203 7.69557 5.93775 8.08984 5.45312 8.08984H3.63672ZM3.63672 16.8789C3.15209 16.8789 2.75781 16.4846 2.75781 16C2.75781 15.5154 3.15209 15.1211 3.63672 15.1211H5.45312C5.93775 15.1211 6.33203 15.5154 6.33203 16C6.33203 16.4846 5.93775 16.8789 5.45312 16.8789H3.63672ZM5.45312 25.668H3.63672C3.15209 25.668 2.75781 25.2737 2.75781 24.7891C2.75781 24.3044 3.15209 23.9102 3.63672 23.9102H5.45312C5.93775 23.9102 6.33203 24.3044 6.33203 24.7891C6.33203 25.2737 5.93775 25.668 5.45312 25.668ZM7.21094 29.2422C6.74277 29.2422 6.33203 28.8041 6.33203 28.3047V27.2746C7.35502 26.9118 8.08984 25.9349 8.08984 24.7891C8.08984 23.6433 7.35502 22.6663 6.33203 22.3035V18.4855C7.35502 18.1227 8.08984 17.1458 8.08984 16C8.08984 14.8542 7.35502 13.8773 6.33203 13.5145V9.69648C7.35502 9.33367 8.08984 8.35674 8.08984 7.21094C8.08984 6.06514 7.35502 5.0882 6.33203 4.72539V3.63672C6.33203 3.15209 6.72631 2.75781 7.21094 2.75781H26.6055C27.0901 2.75781 27.4844 3.15209 27.4844 3.63672V19.2312C26.6848 18.8503 25.7907 18.6367 24.8477 18.6367C21.4553 18.6367 18.6953 21.3967 18.6953 24.7891C18.6953 26.534 19.4121 28.1129 20.5636 29.2422H7.21094ZM24.8477 29.2422C22.4245 29.2422 20.4531 27.2446 20.4531 24.7891C20.4531 22.3659 22.4245 20.3945 24.8477 20.3945C27.2708 20.3945 29.2422 22.3659 29.2422 24.7891C29.2422 27.2446 27.2708 29.2422 24.8477 29.2422Z" fill="#A856F7" stroke="#A856F7" stroke-width="0.3"/>
<path d="M24.8467 8.08987H19.5733C19.0879 8.08987 18.6944 8.48338 18.6944 8.96877C18.6944 9.45416 19.0879 9.84768 19.5733 9.84768H24.8467C25.3321 9.84768 25.7256 9.45416 25.7256 8.96877C25.7256 8.48338 25.3321 8.08987 24.8467 8.08987ZM24.8467 15.1211H19.5733C19.0879 15.1211 18.6944 15.5146 18.6944 16C18.6944 16.4854 19.0879 16.8789 19.5733 16.8789H24.8467C25.3321 16.8789 25.7256 16.4854 25.7256 16C25.7256 15.5146 25.3321 15.1211 24.8467 15.1211ZM26.6045 23.9102H25.7256V23.0313C25.7256 22.5459 25.3321 22.1524 24.8467 22.1524C24.3613 22.1524 23.9678 22.5459 23.9678 23.0313V24.7891C23.9678 25.2745 24.3613 25.668 24.8467 25.668H26.6045C27.0899 25.668 27.4834 25.2745 27.4834 24.7891C27.4834 24.3037 27.0899 23.9102 26.6045 23.9102ZM16.6205 6.58946C16.2773 6.24621 15.7208 6.24621 15.3776 6.58951L12.4834 9.48364L11.1 8.10018C10.7568 7.75694 10.2003 7.75694 9.85704 8.10018C9.5138 8.44342 9.5138 8.99989 9.85704 9.34313L11.862 11.3481C12.0336 11.5197 12.2585 11.6055 12.4834 11.6055C12.7084 11.6055 12.9333 11.5197 13.1049 11.348L16.6205 7.83241C16.9638 7.48916 16.9638 6.9327 16.6205 6.58946ZM16.6205 13.6207C16.2773 13.2775 15.7208 13.2775 15.3776 13.6208L12.4834 16.5149L11.1 15.1314C10.7568 14.7882 10.2003 14.7882 9.85704 15.1314C9.5138 15.4747 9.5138 16.0311 9.85704 16.3744L11.862 18.3793C12.0336 18.551 12.2585 18.6367 12.4834 18.6367C12.7084 18.6367 12.9333 18.551 13.1049 18.3793L16.6205 14.8637C16.9638 14.5204 16.9638 13.9639 16.6205 13.6207ZM16.6205 20.652C16.2773 20.3087 15.7208 20.3087 15.3776 20.652L12.4834 23.5461L11.1 22.1627C10.7568 21.8194 10.2003 21.8194 9.85704 22.1627C9.5138 22.5059 9.5138 23.0624 9.85704 23.4056L11.862 25.4106C12.0336 25.5822 12.2585 25.668 12.4834 25.668C12.7084 25.668 12.9333 25.5822 13.1049 25.4105L16.6205 21.8949C16.9638 21.5517 16.9638 20.9952 16.6205 20.652Z" fill="#A856F7" stroke="#A856F7" stroke-width="0.3"/>
</svg>
