<svg width="28" height="30" viewBox="0 0 28 30" fill="none" xmlns="http://www.w3.org/2000/svg">
<path d="M15.3235 4.09051C15.3234 3.729 15.1803 3.38226 14.9247 3.1266C14.6689 2.87087 14.3217 2.727 13.96 2.727H13.3603C12.9987 2.727 12.6521 2.87096 12.3963 3.1266C12.1407 3.38227 11.9968 3.72895 11.9968 4.09051V4.33795C11.996 5.05523 11.8062 5.75997 11.4472 6.38098C11.0888 7.00093 10.5735 7.51518 9.95372 7.87374L9.95445 7.87448L9.36799 8.21499L9.36503 8.21721C8.74313 8.57626 8.03715 8.76527 7.31904 8.76527C6.6161 8.76522 5.92584 8.5831 5.31367 8.23863V8.23936L5.10907 8.13005C5.09595 8.12304 5.08281 8.11606 5.06993 8.10863C4.75701 7.92812 4.38483 7.87866 4.03585 7.97198C3.73065 8.05364 3.46472 8.23854 3.28171 8.49271L3.20859 8.60572L2.90871 9.12424L2.90797 9.1235C2.72827 9.43606 2.68039 9.80775 2.77354 10.1561C2.85524 10.4613 3.04001 10.7272 3.29427 10.9102L3.40728 10.9834L3.4804 11.0292L3.685 11.1651H3.68426C4.26909 11.5195 4.75748 12.0134 5.10169 12.6054C5.46052 13.2226 5.65135 13.9234 5.65565 14.6373V15.3353L5.64753 15.6049C5.60862 16.2321 5.4256 16.8433 5.11129 17.3902C4.75591 18.0085 4.24495 18.5223 3.62961 18.8822L3.63034 18.883L3.42575 19.0056C3.41978 19.0091 3.4133 19.0124 3.40728 19.0159C3.09472 19.1969 2.86687 19.495 2.77354 19.8439C2.68043 20.1921 2.72846 20.5633 2.90797 20.8758H2.90871L3.20785 21.3935H3.20859C3.38959 21.706 3.68701 21.9339 4.03585 22.0273C4.38483 22.1206 4.75701 22.0719 5.06993 21.8914L5.10907 21.8692L5.31367 21.7606C5.92578 21.4163 6.61619 21.2348 7.31904 21.2347C7.9474 21.2347 8.56645 21.379 9.12793 21.6558L9.36503 21.7828L9.36799 21.785L9.95076 22.1233H9.9515C10.5726 22.482 11.0882 22.9981 11.4472 23.619C11.8062 24.2401 11.996 24.9447 11.9968 25.6621V25.9088C11.9968 26.2704 12.1406 26.6177 12.3963 26.8734C12.6521 27.129 12.9987 27.273 13.3603 27.273H13.96C14.3217 27.273 14.6689 27.1291 14.9247 26.8734C15.1804 26.6177 15.3235 26.2704 15.3235 25.9088V25.6621L15.3331 25.3939C15.3748 24.77 15.5589 24.1625 15.8731 23.619C16.2321 22.998 16.7483 22.482 17.3695 22.1233L17.9523 21.785L17.956 21.7828L18.1923 21.6558C18.7539 21.379 19.3728 21.2347 20.0012 21.2347C20.7039 21.2347 21.3939 21.4165 22.0059 21.7606H22.0066L22.2112 21.8692L22.2511 21.8914C22.5639 22.0718 22.9355 22.1206 23.2844 22.0273C23.6333 21.9339 23.9314 21.7061 24.1124 21.3935L24.4042 20.875L24.4108 20.8639C24.5913 20.5511 24.64 20.1795 24.5467 19.8306C24.4539 19.4833 24.2277 19.1869 23.9174 19.0056L23.7505 18.9169C23.7371 18.9098 23.7237 18.9023 23.7106 18.8948C23.0864 18.5344 22.5682 18.0151 22.209 17.3902C21.8498 16.7652 21.6618 16.0562 21.6646 15.3353V14.6588C21.6628 13.9398 21.8507 13.2332 22.209 12.6098C22.5644 11.9914 23.0752 11.477 23.6907 11.117L23.8953 10.9944L23.913 10.9834L24.026 10.9102C24.2803 10.7273 24.465 10.4614 24.5467 10.1561C24.64 9.80712 24.5913 9.43493 24.4108 9.12202V9.12128L24.1117 8.60572V8.60498C23.9306 8.29291 23.633 8.0652 23.2844 7.97198C22.9791 7.89035 22.6563 7.91763 22.3707 8.04658L22.2511 8.10863C22.2381 8.11614 22.2245 8.12297 22.2112 8.13005L22.0066 8.23936L22.0059 8.23863C21.3938 8.58287 20.704 8.76525 20.0012 8.76527C19.2832 8.76527 18.5778 8.57618 17.956 8.21721L17.9523 8.21499L17.3658 7.87448V7.87374C16.7463 7.51518 16.2313 7.00074 15.8731 6.38098C15.5141 5.75997 15.3243 5.05523 15.3235 4.33795V4.09051ZM18.0513 4.33499L18.0542 4.42436C18.0681 4.63231 18.1297 4.83488 18.2344 5.016C18.3392 5.19708 18.4837 5.35151 18.6569 5.4673L18.733 5.51458L18.7367 5.51679L19.3195 5.85508L19.3985 5.89718C19.5857 5.98942 19.7918 6.03826 20.0012 6.03826C20.2406 6.03825 20.4757 5.97475 20.683 5.85508L20.7229 5.83292L20.9275 5.72361C21.8579 5.20053 22.9568 5.06127 23.9891 5.33731C24.9705 5.59978 25.8165 6.21761 26.366 7.06643L26.4723 7.23927L26.7722 7.75778L26.7729 7.75926L26.8704 7.93727C27.3317 8.83706 27.4438 9.87855 27.1814 10.86C26.9032 11.9004 26.2259 12.7881 25.2972 13.3322L25.2979 13.3329L25.0933 13.4555L24.9973 13.5146C24.8233 13.6311 24.6781 13.7866 24.5733 13.9689C24.4537 14.1772 24.3914 14.4134 24.3924 14.6536V15.3464C24.3914 15.5866 24.4536 15.8229 24.5733 16.0311C24.6917 16.237 24.8619 16.4083 25.0667 16.5282L25.2381 16.6191L25.2802 16.6427C26.2179 17.1859 26.9015 18.0791 27.1814 19.126C27.4602 20.1687 27.315 21.2785 26.7789 22.2149L26.7796 22.2156L26.4797 22.7474C26.4772 22.7519 26.4749 22.7563 26.4723 22.7607C25.9292 23.6984 25.0359 24.382 23.9891 24.662C22.9566 24.9381 21.858 24.7982 20.9275 24.2749V24.2757L20.7229 24.1671L20.683 24.1442C20.4757 24.0246 20.2405 23.9618 20.0012 23.9617C19.7632 23.9617 19.5289 24.0236 19.3224 24.142L19.3232 24.1427L18.7367 24.4832L18.733 24.4854C18.5259 24.605 18.3541 24.777 18.2344 24.984C18.1148 25.191 18.0515 25.4259 18.0513 25.665V25.9088C18.0513 26.9937 17.6204 28.0348 16.8532 28.802C16.086 29.5691 15.045 30 13.96 30H13.3603C12.2754 30 11.235 29.569 10.4678 28.802C9.7006 28.0348 9.26901 26.9937 9.26901 25.9088V25.665L9.26606 25.5756C9.25219 25.3677 9.19124 25.1651 9.08657 24.984C8.9669 24.777 8.79435 24.605 8.58726 24.4854L8.58357 24.4832L7.99784 24.1427V24.142C7.79141 24.0236 7.55703 23.9617 7.31904 23.9617C7.10967 23.9618 6.90341 24.0099 6.71632 24.1021L6.63729 24.1442C6.62405 24.1518 6.61089 24.1599 6.5974 24.1671L6.3928 24.2757L6.39206 24.2749C5.46173 24.7979 4.36413 24.9379 3.33194 24.662C2.28507 24.382 1.39187 23.6984 0.848682 22.7607H0.847943L0.548061 22.2422L0.547323 22.2407C0.00581329 21.302 -0.141088 20.1862 0.138863 19.1393C0.401322 18.158 1.0186 17.3118 1.86725 16.7624L2.04008 16.656L2.22696 16.5445L2.2469 16.5326C2.45488 16.4125 2.62726 16.2394 2.74695 16.0311C2.86665 15.8228 2.92957 15.5866 2.92865 15.3464V14.6536L2.92496 14.5649C2.91021 14.3579 2.84871 14.1564 2.74399 13.9763C2.63934 13.7963 2.49473 13.6431 2.32224 13.5279L2.2469 13.4806L2.1723 13.4349L1.98173 13.3078C1.07435 12.7617 0.412896 11.8848 0.138863 10.86C-0.140991 9.81315 0.00585932 8.69791 0.547323 7.75926L0.548061 7.75778L0.847943 7.23927H0.848682L0.954305 7.06643C1.50382 6.21753 2.35041 5.59977 3.33194 5.33731C4.36388 5.06147 5.46189 5.20093 6.39206 5.72361H6.3928L6.5974 5.83292L6.63729 5.85508C6.84451 5.97472 7.07976 6.03821 7.31904 6.03826C7.52864 6.03826 7.73523 5.98956 7.9225 5.89718L8.00079 5.85508L8.58357 5.51679L8.58726 5.51458L8.66334 5.4673C8.83671 5.35145 8.98182 5.19722 9.08657 5.016C9.20596 4.80945 9.26848 4.57503 9.26901 4.33647V4.09051C9.26908 3.00563 9.70067 1.96518 10.4678 1.19805C11.235 0.430946 12.2753 0 13.3603 0H13.96C15.045 0 16.086 0.430854 16.8532 1.19805C17.6203 1.96517 18.0512 3.00568 18.0513 4.09051V4.33499Z" fill="#A856F7"/>
<path d="M16.3888 15.0016C16.3888 13.4955 15.1679 12.2741 13.6618 12.2739C12.1555 12.2739 10.934 13.4954 10.934 15.0016C10.9342 16.5077 12.1557 17.7286 13.6618 17.7286C15.1678 17.7285 16.3886 16.5076 16.3888 15.0016ZM19.1158 15.0016C19.1156 18.0138 16.674 20.4555 13.6618 20.4556C10.6494 20.4556 8.20721 18.0139 8.20703 15.0016C8.20703 11.9892 10.6493 9.54688 13.6618 9.54688C16.6741 9.54705 19.1158 11.9893 19.1158 15.0016Z" fill="#A856F7"/>
</svg>
