<svg width="44" height="44" viewBox="0 0 44 44" fill="none" xmlns="http://www.w3.org/2000/svg">
<path d="M32.8631 31.6783V30.9752C32.8624 30.4316 32.7228 29.8971 32.4574 29.4227C32.192 28.9483 31.8096 28.5497 31.3467 28.2647C33.1952 26.2895 34.3603 23.7727 34.6701 21.0852C34.98 18.3977 34.4182 15.6818 33.0677 13.3378C33.5248 12.9108 34.0677 12.5862 34.6601 12.3856C34.8247 12.3307 34.9679 12.2254 35.0693 12.0846C35.1707 11.9438 35.2253 11.7747 35.2253 11.6012C35.2253 11.4277 35.1707 11.2586 35.0693 11.1178C34.9679 10.977 34.8247 10.8717 34.6601 10.8168C34.0125 10.599 33.4242 10.2343 32.941 9.7512C32.4579 9.26809 32.0932 8.67971 31.8755 8.03212C31.8205 7.86754 31.7152 7.7244 31.5745 7.62297C31.4337 7.52154 31.2646 7.46696 31.0911 7.46696C30.9176 7.46696 30.7484 7.52154 30.6077 7.62297C30.4669 7.7244 30.3616 7.86754 30.3067 8.03212C30.137 8.53654 29.877 9.00586 29.5393 9.41713C26.9972 7.56807 23.8571 6.73301 20.7324 7.07505C17.6076 7.41709 14.7225 8.91166 12.6407 11.2669C10.5588 13.6221 9.42965 16.6687 9.47373 19.8119C9.51781 22.955 10.732 25.9688 12.879 28.2647C12.4161 28.5497 12.0338 28.9483 11.7684 29.4227C11.503 29.8971 11.3633 30.4316 11.3627 30.9752V31.6783C10.6856 31.8605 10.0873 32.2607 9.6603 32.8168C9.23327 33.373 9.00123 34.0543 9 34.7555V36.1731C9.00013 36.3923 9.08729 36.6026 9.24234 36.7577C9.3974 36.9127 9.60766 36.9999 9.82694 37H34.3988C34.6181 36.9999 34.8284 36.9127 34.9834 36.7577C35.1385 36.6026 35.2256 36.3923 35.2258 36.1731V34.7555C35.2245 34.0543 34.9925 33.373 34.5655 32.8168C34.1384 32.2607 33.5402 31.8605 32.8631 31.6783ZM31.0911 10.1094C31.4981 10.6894 32.0029 11.1942 32.5829 11.6012C32.0029 12.0082 31.4981 12.513 31.0911 13.093C30.684 12.513 30.1792 12.0082 29.5993 11.6012C30.1792 11.1942 30.684 10.6894 31.0911 10.1094ZM11.1264 19.6343C11.1251 17.6442 11.6647 15.6911 12.6876 13.984C13.7104 12.2768 15.1781 10.8798 16.9335 9.94226C18.689 9.00473 20.6663 8.56197 22.6539 8.66133C24.6416 8.76068 26.5648 9.39841 28.218 10.5063C27.9956 10.63 27.7627 10.7339 27.522 10.8168C27.3574 10.8717 27.2143 10.977 27.1128 11.1178C27.0114 11.2586 26.9568 11.4277 26.9568 11.6012C26.9568 11.7747 27.0114 11.9438 27.1128 12.0846C27.2143 12.2254 27.3574 12.3307 27.522 12.3856C28.1696 12.6034 28.758 12.9681 29.2411 13.4512C29.7242 13.9343 30.0889 14.5227 30.3067 15.1703C30.3616 15.3348 30.4669 15.478 30.6077 15.5794C30.7484 15.6808 30.9176 15.7354 31.0911 15.7354C31.2646 15.7354 31.4337 15.6808 31.5745 15.5794C31.7152 15.478 31.8205 15.3348 31.8755 15.1703C31.9114 15.0625 31.9577 14.959 32.0016 14.8551C33.0378 16.9934 33.3515 19.4104 32.8954 21.7424C32.4393 24.0744 31.2381 26.1952 29.4726 27.7855H14.7531C13.6115 26.7566 12.6987 25.4993 12.074 24.0951C11.4492 22.691 11.1264 21.1712 11.1264 19.6343ZM31.2092 30.9752V31.5658H13.0166V30.9752C13.0171 30.568 13.179 30.1777 13.4669 29.8898C13.7548 29.6019 14.1451 29.4399 14.5523 29.4394H29.6735C30.0806 29.4399 30.4709 29.6019 30.7588 29.8898C31.0467 30.1777 31.2087 30.568 31.2092 30.9752ZM33.5719 35.3461H10.6539V34.7555C10.6544 34.3483 10.8163 33.958 11.1042 33.6701C11.3921 33.3822 11.7825 33.2202 12.1896 33.2197H32.0361C32.4433 33.2202 32.8336 33.3822 33.1215 33.6701C33.4094 33.958 33.5714 34.3483 33.5719 34.7555V35.3461Z" fill="#3C83F6"/>
<path d="M27.4285 23.65C27.8852 23.65 28.2554 23.2797 28.2554 22.823C28.2554 22.3663 27.8852 21.9961 27.4285 21.9961C26.9718 21.9961 26.6016 22.3663 26.6016 22.823C26.6016 23.2797 26.9718 23.65 27.4285 23.65Z" fill="#3C83F6"/>
<path d="M21.1687 14.7906C21.6254 14.7906 21.9957 14.4204 21.9957 13.9637C21.9957 13.507 21.6254 13.1367 21.1687 13.1367C20.712 13.1367 20.3418 13.507 20.3418 13.9637C20.3418 14.4204 20.712 14.7906 21.1687 14.7906Z" fill="#3C83F6"/>
<path d="M14.7624 21.8366C15.41 22.0544 15.9984 22.4191 16.4815 22.9022C16.9646 23.3853 17.3293 23.9737 17.5471 24.6213C17.602 24.7858 17.7073 24.929 17.8481 25.0304C17.9889 25.1318 18.158 25.1864 18.3315 25.1864C18.505 25.1864 18.6741 25.1318 18.8149 25.0304C18.9557 24.929 19.061 24.7858 19.1159 24.6213C19.3337 23.9737 19.6984 23.3853 20.1815 22.9022C20.6646 22.4191 21.253 22.0544 21.9006 21.8366C22.0651 21.7817 22.2083 21.6764 22.3097 21.5356C22.4111 21.3948 22.4657 21.2257 22.4657 21.0522C22.4657 20.8787 22.4111 20.7096 22.3097 20.5688C22.2083 20.428 22.0651 20.3227 21.9006 20.2678C21.253 20.05 20.6646 19.6853 20.1815 19.2022C19.6984 18.7191 19.3337 18.1307 19.1159 17.4831C19.061 17.3185 18.9557 17.1754 18.8149 17.074C18.6741 16.9725 18.505 16.918 18.3315 16.918C18.158 16.918 17.9889 16.9725 17.8481 17.074C17.7073 17.1754 17.602 17.3185 17.5471 17.4831C17.3293 18.1307 16.9646 18.7191 16.4815 19.2022C15.9984 19.6853 15.41 20.05 14.7624 20.2678C14.5978 20.3227 14.4547 20.428 14.3533 20.5688C14.2518 20.7096 14.1973 20.8787 14.1973 21.0522C14.1973 21.2257 14.2518 21.3948 14.3533 21.5356C14.4547 21.6764 14.5978 21.7817 14.7624 21.8366ZM18.3315 19.5604C18.7385 20.1404 19.2433 20.6452 19.8233 21.0522C19.2433 21.4592 18.7385 21.964 18.3315 22.544C17.9245 21.964 17.4197 21.4592 16.8397 21.0522C17.4197 20.6452 17.9245 20.1404 18.3315 19.5604Z" fill="#3C83F6"/>
</svg>
