<svg width="44" height="44" viewBox="0 0 44 44" fill="none" xmlns="http://www.w3.org/2000/svg">
<path d="M21.8174 37C21.3957 36.9999 20.9811 36.8921 20.6128 36.6868L15.8369 34.0324C13.4624 32.7125 11.4839 30.7819 10.106 28.4405C8.72811 26.0991 8.00103 23.432 8 20.7153V13.3517C7.99993 12.7389 8.22709 12.1479 8.63755 11.693C9.04801 11.238 9.6126 10.9514 10.2221 10.8887C12.1223 10.687 13.9924 10.2642 15.7944 9.6288C17.4463 9.045 19.0307 8.28578 20.5207 7.36416H20.5221C20.9122 7.126 21.3604 7 21.8174 7C22.2744 7 22.7226 7.126 23.1127 7.36416C24.6032 8.2857 26.1881 9.04491 27.8404 9.6288C29.6424 10.2642 31.5125 10.687 33.4127 10.8887C34.0222 10.9514 34.5868 11.238 34.9972 11.693C35.4077 12.1479 35.6349 12.7389 35.6348 13.3517V20.7153C35.6338 23.432 34.9067 26.0991 33.5288 28.4405C32.1509 30.7819 30.1724 32.7125 27.7978 34.0324L23.022 36.6868C22.6537 36.8921 22.239 36.9999 21.8174 37ZM21.6403 9.17388C20.0204 10.1743 18.2982 10.9986 16.503 11.6327C14.5449 12.324 12.5125 12.7834 10.4475 13.0017C10.3597 13.0091 10.278 13.0492 10.2184 13.114C10.1589 13.1789 10.1258 13.2637 10.1258 13.3517V20.7153C10.1265 23.053 10.752 25.3479 11.9375 27.3627C13.1231 29.3774 14.8255 31.0387 16.8686 32.1745L21.6445 34.8275C21.6971 34.8577 21.7567 34.8736 21.8174 34.8736C21.8781 34.8736 21.9377 34.8577 21.9903 34.8275L26.7662 32.1745C28.8093 31.0387 30.5117 29.3774 31.6973 27.3627C32.8828 25.3479 33.5083 23.053 33.509 20.7153V13.3517C33.509 13.2637 33.4759 13.1789 33.4164 13.114C33.3568 13.0492 33.2751 13.0091 33.1873 13.0017C31.1223 12.7834 29.0899 12.324 27.1318 11.6327C25.3366 10.9986 23.6144 10.1743 21.9945 9.17388C21.9411 9.14164 21.8798 9.12459 21.8174 9.12459C21.755 9.12459 21.6937 9.14164 21.6403 9.17388Z" fill="#A856F7"/>
<path d="M25.3604 29.4061H18.2746C17.4291 29.4054 16.6185 29.0692 16.0207 28.4714C15.4229 27.8735 15.0867 27.0629 15.0859 26.2175V21.966C15.0867 21.1205 15.4229 20.3099 16.0207 19.7121C16.6185 19.1143 17.4291 18.7781 18.2746 18.7773H25.3604C26.2059 18.7781 27.0165 19.1143 27.6143 19.7121C28.2121 20.3099 28.5483 21.1205 28.549 21.966V26.2175C28.5483 27.0629 28.2121 27.8735 27.6143 28.4714C27.0165 29.0692 26.2059 29.4054 25.3604 29.4061ZM18.2746 20.9031C17.9927 20.9031 17.7223 21.0151 17.523 21.2144C17.3237 21.4137 17.2117 21.6841 17.2117 21.966V26.2175C17.2117 26.4994 17.3237 26.7697 17.523 26.969C17.7223 27.1684 17.9927 27.2804 18.2746 27.2804H25.3604C25.6423 27.2804 25.9127 27.1684 26.112 26.969C26.3113 26.7697 26.4233 26.4994 26.4233 26.2175V21.966C26.4233 21.6841 26.3113 21.4137 26.112 21.2144C25.9127 21.0151 25.6423 20.9031 25.3604 20.9031H18.2746Z" fill="#A856F7"/>
<path d="M24.6515 20.9038H18.9828C18.7009 20.9038 18.4306 20.7918 18.2312 20.5925C18.0319 20.3932 17.9199 20.1228 17.9199 19.8409V17.0066C17.9199 15.973 18.3305 14.9817 19.0614 14.2508C19.7923 13.52 20.7835 13.1094 21.8171 13.1094C22.8507 13.1094 23.842 13.52 24.5729 14.2508C25.3038 14.9817 25.7144 15.973 25.7144 17.0066V19.8409C25.7144 20.1228 25.6024 20.3932 25.403 20.5925C25.2037 20.7918 24.9334 20.9038 24.6515 20.9038ZM20.0457 18.7781H23.5886V17.0066C23.5886 16.5368 23.402 16.0862 23.0697 15.754C22.7375 15.4218 22.287 15.2351 21.8171 15.2351C21.3473 15.2351 20.8967 15.4218 20.5645 15.754C20.2323 16.0862 20.0457 16.5368 20.0457 17.0066V18.7781Z" fill="#A856F7"/>
</svg>
