<svg width="44" height="44" viewBox="0 0 44 44" fill="none" xmlns="http://www.w3.org/2000/svg">
<path d="M21.5017 10C24.9923 10 28.4041 11.0365 31.305 12.978C34.0247 14.7982 36.1809 17.3369 37.5364 20.3063L37.7964 20.9059L37.8159 20.9555C38.0347 21.5449 38.0621 22.1862 37.898 22.7886L37.8159 23.0437L37.7964 23.0941C36.4655 26.321 34.2059 29.0797 31.305 31.0212C28.5854 32.8414 25.4167 33.8668 22.155 33.9878L21.5017 34C18.011 34 14.5986 32.9628 11.6976 31.0212C8.978 29.201 6.82244 26.6622 5.46704 23.6929L5.20703 23.0941C5.20022 23.0776 5.19374 23.0604 5.18753 23.0437C4.93749 22.3701 4.93749 21.6291 5.18753 20.9555L5.20703 20.9059L5.46704 20.3063C6.82247 17.337 8.97801 14.7982 11.6976 12.978C14.5986 11.0364 18.011 10 21.5017 10ZM21.5017 12.9999C18.6052 12.9999 15.7737 13.8598 13.3666 15.4708C10.9744 17.0719 9.10837 19.3434 8.00136 21.9996C9.10836 24.6559 10.9744 26.9273 13.3666 28.5284C15.7737 30.1394 18.6052 30.9993 21.5017 30.9993L22.0437 30.9895C24.7503 30.8892 27.3801 30.0388 29.6369 28.5284C32.0289 26.9274 33.8934 24.6557 35.0004 21.9996C33.8934 19.3436 32.0289 17.0718 29.6369 15.4708C27.2297 13.8598 24.3982 12.9999 21.5017 12.9999Z" fill="#A856F7"/>
<path d="M24.5025 22.0006C24.5025 20.3438 23.1594 19.0001 21.5026 18.9999C19.8456 18.9999 18.5019 20.3436 18.5019 22.0006C18.502 23.6574 19.8457 25.0005 21.5026 25.0005C23.1592 25.0003 24.5023 23.6573 24.5025 22.0006ZM27.5024 22.0006C27.5022 25.3143 24.8162 28.0002 21.5026 28.0004C18.1888 28.0004 15.5021 25.3144 15.502 22.0006C15.502 18.6867 18.1886 16 21.5026 16C24.8163 16.0002 27.5024 18.6868 27.5024 22.0006Z" fill="#A856F7"/>
</svg>
