<svg width="44" height="44" viewBox="0 0 44 44" fill="none" xmlns="http://www.w3.org/2000/svg">
<path d="M11.9749 28.3445C10.8597 28.5443 9.85041 29.1301 9.1237 29.9992C8.39698 30.8683 7.99919 31.9654 8 33.0983V36.2374C8 36.4396 8.08035 36.6336 8.22337 36.7766C8.3664 36.9197 8.56038 37 8.76264 37C8.96491 37 9.15889 36.9197 9.30191 36.7766C9.44493 36.6336 9.52528 36.4396 9.52528 36.2374V33.0983C9.52414 32.323 9.79599 31.5719 10.2932 30.977C10.7904 30.382 11.4811 29.981 12.2444 29.8444L14.2425 29.4865V32.6123C13.6947 32.8011 13.2193 33.1559 12.8823 33.6273C12.5454 34.0988 12.3636 34.6634 12.3623 35.2429V36.2374C12.3623 36.4396 12.4427 36.6336 12.5857 36.7766C12.7287 36.9197 12.9227 37 13.125 37C13.3272 37 13.5212 36.9197 13.6642 36.7766C13.8072 36.6336 13.8876 36.4396 13.8876 36.2374V35.2429C13.8881 34.9059 14.0222 34.5829 14.2605 34.3447C14.4987 34.1064 14.8217 33.9723 15.1587 33.9718H27.5236C27.8606 33.9723 28.1836 34.1064 28.4218 34.3447C28.6601 34.5829 28.7942 34.9059 28.7947 35.2429V36.2374C28.7947 36.4396 28.875 36.6336 29.0181 36.7766C29.1611 36.9197 29.3551 37 29.5573 37C29.7596 37 29.9536 36.9197 30.0966 36.7766C30.2396 36.6336 30.32 36.4396 30.32 36.2374V35.2429C30.3182 34.6638 30.1363 34.0996 29.7994 33.6285C29.4625 33.1575 28.9873 32.803 28.4398 32.6143V29.4885L30.4379 29.8464C31.2012 29.9831 31.8919 30.384 32.3891 30.979C32.8863 31.574 33.1581 32.325 33.157 33.1004V36.2374C33.157 36.4396 33.2373 36.6336 33.3804 36.7766C33.5234 36.9197 33.7174 37 33.9196 37C34.1219 37 34.3159 36.9197 34.4589 36.7766C34.6019 36.6336 34.6823 36.4396 34.6823 36.2374V33.0983C34.6831 31.9654 34.2853 30.8683 33.5586 29.9992C32.8319 29.1301 31.8225 28.5443 30.7074 28.3445L25.7919 27.4639L25.2621 25.3733C26.025 24.7871 26.6431 24.0336 27.0687 23.1707C27.4943 22.3079 27.716 21.3589 27.7168 20.3968V18.4871H29.8604C30.0626 18.4871 30.2566 18.4068 30.3996 18.2638C30.5426 18.1207 30.623 17.9268 30.623 17.7245C30.623 17.5222 30.5426 17.3282 30.3996 17.1852C30.2566 17.0422 30.0626 16.9619 29.8604 16.9619H29.597V16.9171C29.5869 15.2153 29.0534 13.5577 28.0689 12.1696C27.0844 10.7814 25.6965 9.72976 24.0938 9.15749C23.9421 8.54179 23.5884 7.99469 23.0892 7.60361C22.5901 7.21252 21.9742 7 21.3401 7C20.706 7 20.0902 7.21252 19.591 7.60361C19.0919 7.99469 18.7382 8.54179 18.5865 9.15749C16.9823 9.72731 15.5931 10.7784 14.6085 12.1671C13.6239 13.5559 13.092 15.2147 13.0853 16.9171V16.9619H12.8219C12.6197 16.9619 12.4257 17.0422 12.2827 17.1852C12.1396 17.3282 12.0593 17.5222 12.0593 17.7245C12.0593 17.9268 12.1396 18.1207 12.2827 18.2638C12.4257 18.4068 12.6197 18.4871 12.8219 18.4871H14.9655V20.3968C14.9662 21.3589 15.188 22.3079 15.6136 23.1707C16.0392 24.0336 16.6572 24.7871 17.4201 25.3733L16.8904 27.4639L11.9749 28.3445ZM26.9145 32.4465H15.7678V29.215L17.1405 28.9699C17.648 29.5803 18.294 30.0606 19.0246 30.3709C19.7553 30.6811 20.5495 30.8123 21.3411 30.7535C22.1328 30.8123 22.927 30.6811 23.6577 30.3709C24.3883 30.0606 25.0343 29.5803 25.5418 28.9699L26.9145 29.215V32.4465ZM14.6106 16.9171C14.6145 15.638 14.9815 14.3863 15.669 13.3077C16.3565 12.229 17.3361 11.3678 18.4939 10.8241V13.6489C18.4939 13.8512 18.5743 14.0452 18.7173 14.1882C18.8603 14.3312 19.0543 14.4116 19.2566 14.4116C19.4589 14.4116 19.6528 14.3312 19.7959 14.1882C19.9389 14.0452 20.0192 13.8512 20.0192 13.6489V9.852C20.0192 9.50141 20.1585 9.16517 20.4064 8.91727C20.6543 8.66936 20.9905 8.53009 21.3411 8.53009C21.6917 8.53009 22.028 8.66936 22.2759 8.91727C22.5238 9.16517 22.6631 9.50141 22.6631 9.852V13.6489C22.6631 13.8512 22.7434 14.0452 22.8864 14.1882C23.0294 14.3312 23.2234 14.4116 23.4257 14.4116C23.628 14.4116 23.8219 14.3312 23.965 14.1882C24.108 14.0452 24.1883 13.8512 24.1883 13.6489V10.8231C25.3448 11.3688 26.3232 12.2307 27.0104 13.3091C27.6976 14.3875 28.0656 15.6384 28.0717 16.9171V16.9619H14.6106V16.9171ZM16.4907 20.3968V18.4871H26.1915V20.3968C26.1905 21.6608 25.6879 22.8728 24.7942 23.7667C23.9005 24.6607 22.6886 25.1635 21.4245 25.1648H21.2578C19.9937 25.1635 18.7818 24.6607 17.8881 23.7667C16.9944 22.8728 16.4918 21.6608 16.4907 20.3968ZM21.2578 26.6901H21.4245C22.2738 26.6902 23.1142 26.5172 23.8945 26.1817L24.3581 28.012C23.9936 28.4467 23.5278 28.785 23.0016 28.9971C22.4755 29.2092 21.9052 29.2885 21.3411 29.2282C20.7767 29.2881 20.2063 29.2081 19.6801 28.9953C19.1539 28.7824 18.6882 28.4434 18.3241 28.0079L18.7878 26.1776C19.5677 26.5145 20.4082 26.6889 21.2578 26.6901Z" fill="#3C83F6"/>
</svg>
