<svg width="44" height="44" viewBox="0 0 44 44" fill="none" xmlns="http://www.w3.org/2000/svg">
<path d="M24.3154 21.8862L21.6351 21.1651L18.9547 21.8862C18.768 21.935 18.5726 21.9412 18.3832 21.9042C18.1937 21.8672 18.015 21.7881 17.8603 21.6727C17.7056 21.5572 17.5789 21.4084 17.4895 21.2373C17.4002 21.0662 17.3505 20.8772 17.3441 20.6843L17.1999 17.9078L15.6253 15.6241C15.5213 15.4638 15.4542 15.2823 15.4291 15.0928C15.404 14.9033 15.4214 14.7106 15.4801 14.5288C15.5389 14.3469 15.6374 14.1804 15.7685 14.0413C15.8997 13.9023 16.0602 13.7942 16.2383 13.725L18.8345 12.7394L20.5774 10.5759C20.7029 10.4177 20.8643 10.2915 21.0482 10.2079C21.2321 10.1244 21.4333 10.0857 21.6351 10.0951C21.8268 10.095 22.0161 10.1382 22.1888 10.2215C22.3616 10.3047 22.5133 10.4259 22.6327 10.5759L24.3755 12.7394L26.9717 13.725C27.155 13.7878 27.3217 13.8912 27.4594 14.0275C27.5971 14.1638 27.7022 14.3294 27.7669 14.512C27.8316 14.6946 27.8543 14.8894 27.8331 15.082C27.812 15.2746 27.7476 15.4599 27.6448 15.6241L26.1303 17.9438L25.9861 20.7203C25.9761 20.9118 25.9234 21.0985 25.8319 21.267C25.7404 21.4354 25.6124 21.5813 25.4572 21.6939C25.294 21.8105 25.1063 21.8884 24.9085 21.9217C24.7107 21.955 24.5078 21.9429 24.3154 21.8862ZM21.9115 18.5929L23.3899 18.9895L23.462 17.4631C23.4727 17.2364 23.5432 17.0166 23.6663 16.826L24.5077 15.54L23.0774 14.9991C22.8652 14.917 22.6786 14.7802 22.5365 14.6024L21.575 13.4005L20.6134 14.6024C20.4714 14.7802 20.2847 14.917 20.0725 14.9991L18.6422 15.54L19.4836 16.826C19.6067 17.0166 19.6772 17.2364 19.6879 17.4631L19.76 18.9895L21.2384 18.5929C21.3552 18.5455 21.4803 18.5222 21.6062 18.5242C21.7322 18.5263 21.8565 18.5537 21.9716 18.6049L21.9115 18.5929Z" fill="#A856F7"/>
<path d="M30.6134 40.8646H12.6564C10.9573 40.8646 9.32782 40.1896 8.12639 38.9882C6.92497 37.7868 6.25001 36.1573 6.25001 34.4582V12.1141C6.24669 10.4904 6.86117 8.92622 7.96879 7.73898L11.0578 4.43363C11.6585 3.79218 12.3844 3.28091 13.1908 2.9315C13.9971 2.58209 14.8666 2.40199 15.7454 2.40234H30.6134C32.3125 2.40234 33.942 3.0773 35.1434 4.27872C36.3448 5.48015 37.0198 7.10963 37.0198 8.80871V34.4582C37.0198 36.1573 36.3448 37.7868 35.1434 38.9882C33.942 40.1896 32.3125 40.8646 30.6134 40.8646ZM15.7454 4.96249C15.2194 4.96054 14.6986 5.06616 14.2149 5.27285C13.7312 5.47955 13.2949 5.78295 12.9328 6.16443L9.84383 9.49382C9.17931 10.2044 8.80979 11.1411 8.81016 12.1141V34.4582C8.81016 35.4783 9.21538 36.4566 9.93669 37.1779C10.658 37.8992 11.6363 38.3044 12.6564 38.3044H30.6134C31.6335 38.3044 32.6118 37.8992 33.3331 37.1779C34.0544 36.4566 34.4596 35.4783 34.4596 34.4582V8.80871C34.4596 7.78863 34.0544 6.81033 33.3331 6.08902C32.6118 5.36771 31.6335 4.96249 30.6134 4.96249H15.7454Z" fill="#A856F7"/>
<path d="M13.9434 25.4805H29.3282V28.0406H13.9434V25.4805ZM13.9434 30.6128H29.3282V33.1729H13.9434V30.6128Z" fill="#A856F7"/>
</svg>
