<svg width="44" height="44" viewBox="0 0 44 44" fill="none" xmlns="http://www.w3.org/2000/svg">
<path d="M36.2283 32.5564L31.1947 27.5228C31.1059 27.4341 31.0006 27.3637 30.8846 27.3156C30.7687 27.2676 30.6444 27.2429 30.5189 27.2429C30.3934 27.2429 30.2691 27.2676 30.1531 27.3156C30.0372 27.3637 29.9318 27.4341 29.8431 27.5228L27.5947 25.2744C29.1042 23.2534 29.8589 20.844 29.8589 18.4346C29.8589 15.5041 28.741 12.5736 26.5147 10.3442C21.8642 5.69707 14.1783 5.89318 9.78764 10.9328C6.06076 15.2104 6.07244 21.6991 9.81291 25.9651C12.0951 28.5681 15.2618 29.8691 18.4243 29.8691C20.8338 29.8691 23.2432 29.1144 25.2642 27.6049L27.5126 29.8533C27.4239 29.9421 27.3535 30.0474 27.3054 30.1634C27.2574 30.2793 27.2326 30.4036 27.2326 30.5291C27.2326 30.6546 27.2574 30.7789 27.3054 30.8948C27.3535 31.0108 27.4239 31.1161 27.5126 31.2049L32.4827 36.1753C32.9514 36.6436 33.5675 36.9572 34.229 36.9951C34.5969 37.0177 34.9653 36.962 35.3099 36.8315C35.6546 36.7011 35.9676 36.4989 36.2283 36.2385C37.2419 35.2216 37.2419 33.5701 36.2283 32.5564ZM24.8537 24.8639C21.3106 28.407 15.5412 28.4102 11.995 24.8639C8.44872 21.3208 8.44872 15.5514 11.995 12.0052C13.7665 10.2305 16.097 9.34628 18.4243 9.34628C20.7548 9.34628 23.0822 10.2305 24.8537 12.0052C28.4 15.5514 28.4 21.3208 24.8537 24.8639Z" fill="#3C83F6"/>
<path d="M22.1601 15.6162H23.9146C24.1676 15.6162 24.3728 15.8211 24.3728 16.0741V23.1208C24.3728 23.3738 24.1676 23.579 23.9146 23.579H22.1598C21.9069 23.579 21.7016 23.3738 21.7016 23.1208V16.0741C21.7016 15.8208 21.9069 15.6156 22.1598 15.6156L22.1601 15.6162ZM12.9367 19.0699H14.6912C14.9445 19.0699 15.1494 19.2752 15.1494 19.5284V23.1208C15.1494 23.3738 14.9442 23.579 14.6912 23.579H12.9367C12.6835 23.579 12.4785 23.3738 12.4785 23.1208V19.5284C12.4785 19.2752 12.6838 19.0699 12.9367 19.0699ZM17.55 13.293H19.3014C19.5546 13.293 19.7599 13.4982 19.7599 13.7512V23.1205C19.7599 23.3738 19.5546 23.579 19.3014 23.579H17.55C17.2968 23.579 17.0918 23.3738 17.0918 23.1208V13.7515C17.0918 13.4982 17.2971 13.293 17.55 13.293Z" fill="#3C83F6"/>
</svg>
