<svg width="44" height="44" viewBox="0 0 44 44" fill="none" xmlns="http://www.w3.org/2000/svg">
<path d="M36.9647 9.23955C36.8998 8.04788 35.952 7.10025 34.7603 7.03521C32.3558 6.90384 27.6505 7.03163 23.1512 9.35879C20.8576 10.5452 18.4318 12.5567 16.4959 14.8774C16.4721 14.906 16.4489 14.9348 16.4252 14.9634L12.0319 15.3028C11.3087 15.3587 10.6646 15.7378 10.2646 16.3427L7.26732 20.8762C6.96398 21.335 6.91576 21.9091 7.13824 22.412C7.36077 22.915 7.81804 23.2655 8.36149 23.3497L12.0629 23.923C12.0498 23.9949 12.0367 24.0668 12.0247 24.1388C11.9015 24.8759 12.1457 25.6337 12.6781 26.1661L17.8338 31.3219C18.2752 31.7633 18.8716 32.0066 19.4828 32.0066C19.6096 32.0066 19.7361 31.9961 19.8612 31.9752C19.9331 31.9632 20.005 31.9501 20.077 31.937L20.6503 35.6385C20.7345 36.1819 21.085 36.6392 21.5878 36.8617C21.7928 36.9527 22.0146 36.9998 22.2389 37C22.5537 36.9997 22.8614 36.9068 23.1237 36.7327L27.6572 33.7353C28.2622 33.3353 28.6412 32.6912 28.697 31.9681L29.0363 27.5748C29.065 27.5511 29.0938 27.5279 29.1224 27.5041C31.4432 25.5682 33.4548 23.1425 34.6411 20.8488C36.9684 16.3493 37.0959 11.6439 36.9647 9.23955ZM26.6878 32.269L22.3512 35.1361L21.7925 31.5288C23.6253 30.9899 25.4383 30.1269 27.1656 28.9706L26.9445 31.8326C26.9381 31.9202 26.9115 32.0051 26.867 32.0807C26.8225 32.1564 26.7612 32.2208 26.6878 32.269ZM19.0768 30.0789L13.921 24.9231C13.7894 24.7915 13.7286 24.6066 13.7584 24.4286C13.9117 23.512 14.1499 22.6395 14.4447 21.8175L22.1807 29.5535C21.1935 29.9071 20.3093 30.1181 19.5713 30.2415C19.393 30.2711 19.2083 30.2105 19.0768 30.0789ZM12.1673 17.0554L15.0292 16.8343C13.8729 18.5616 13.0098 20.3747 12.471 22.2075L8.8637 21.6488L11.7309 17.3122C11.7791 17.2388 11.8435 17.1775 11.9192 17.1329C11.9948 17.0884 12.0797 17.0619 12.1673 17.0554ZM27.9966 26.1542C26.5767 27.3385 25.1984 28.1951 23.928 28.815L15.1846 20.0716C15.9966 18.4132 16.9876 17.0322 17.8457 16.0034C19.6372 13.8557 21.8654 12.0029 23.9589 10.9201C28.0882 8.78417 32.4388 8.66915 34.6647 8.79032C34.8067 8.7979 34.941 8.85776 35.0416 8.95838C35.1422 9.05899 35.2021 9.19327 35.2096 9.33536C35.331 11.5612 35.2157 15.9118 33.0798 20.0412C31.9971 22.1346 30.1443 24.3627 27.9966 26.1542Z" fill="#3C83F6"/>
<path d="M27.55 20.8393C28.6751 20.8392 29.8006 20.4109 30.6572 19.5543C31.4873 18.7243 31.9443 17.6208 31.9443 16.447C31.9443 15.2733 31.4872 14.1697 30.6572 13.3397C28.9438 11.6263 26.156 11.6264 24.4427 13.3397C23.6126 14.1697 23.1556 15.2733 23.1556 16.447C23.1556 17.6208 23.6127 18.7243 24.4427 19.5543C25.2994 20.411 26.4244 20.8394 27.55 20.8393ZM25.6855 14.5826C26.1995 14.0686 26.8747 13.8116 27.5498 13.8116C28.2251 13.8116 28.9002 14.0686 29.4142 14.5826C29.9122 15.0806 30.1864 15.7427 30.1864 16.4469C30.1864 17.1512 29.9122 17.8133 29.4142 18.3113C28.3863 19.3394 26.7135 19.3393 25.6854 18.3113C25.1875 17.8133 24.9132 17.1512 24.9132 16.447C24.9132 15.7428 25.1875 15.0806 25.6855 14.5826ZM7.89651 31.7198C8.12145 31.7198 8.34639 31.634 8.51795 31.4624L11.3875 28.5929C11.7307 28.2496 11.7307 27.6932 11.3875 27.3499C11.0443 27.0067 10.4878 27.0067 10.1445 27.3499L7.27507 30.2194C6.93183 30.5627 6.93183 31.1191 7.27507 31.4624C7.35658 31.5441 7.45344 31.6089 7.56009 31.6531C7.66674 31.6973 7.78107 31.72 7.89651 31.7198ZM14.0172 29.9797C13.674 29.6364 13.1175 29.6364 12.7742 29.9797L7.25743 35.4965C6.91419 35.8398 6.91419 36.3962 7.25743 36.7395C7.42905 36.9111 7.65393 36.9969 7.87887 36.9969C8.10381 36.9969 8.32875 36.9111 8.50032 36.7394L14.0171 31.2226C14.3604 30.8794 14.3604 30.3229 14.0172 29.9797ZM15.404 32.6094L12.5345 35.4789C12.1912 35.8221 12.1912 36.3786 12.5345 36.7218C12.7061 36.8935 12.931 36.9793 13.1559 36.9793C13.3808 36.9793 13.6058 36.8935 13.7774 36.7218L16.6469 33.8523C16.9901 33.5091 16.9901 32.9526 16.6469 32.6094C16.3037 32.2661 15.7472 32.2661 15.404 32.6094Z" fill="#3C83F6"/>
</svg>
