<svg width="44" height="44" viewBox="0 0 44 44" fill="none" xmlns="http://www.w3.org/2000/svg">
<path fill-rule="evenodd" clip-rule="evenodd" d="M19.3561 7.62975V5.44C19.3561 5.05809 19.5078 4.69182 19.7778 4.42177C20.0479 4.15171 20.4142 4 20.7961 4H22.8165C23.1984 4 23.5647 4.15171 23.8347 4.42177C24.1048 4.69182 24.2565 5.05809 24.2565 5.44V7.62975L27.2801 9.14139C27.4508 9.2269 27.5807 9.37667 27.6411 9.55781C27.7015 9.73894 27.6875 9.93665 27.6023 10.1075C27.5168 10.2782 27.367 10.408 27.1858 10.4684C27.0047 10.5287 26.807 10.5147 26.6362 10.4293L24.2565 9.23984V34.7605L24.8766 34.4505C25.0471 34.3672 25.2436 34.3546 25.4234 34.4155C25.6032 34.4764 25.7516 34.6057 25.8365 34.7755C25.9214 34.9452 25.9358 35.1416 25.8766 35.3219C25.8174 35.5023 25.6895 35.6519 25.5205 35.7384L24.2565 36.3702V38.56C24.2565 38.9419 24.1048 39.3082 23.8347 39.5782C23.5647 39.8483 23.1984 40 22.8165 40H20.7961C20.4142 40 20.0479 39.8483 19.7778 39.5782C19.5078 39.3082 19.3561 38.9419 19.3561 38.56V36.3702L7.3982 30.3913C7.27858 30.3315 7.17796 30.2396 7.10762 30.1259C7.03729 30.0122 7.00002 29.8811 7 29.7473V14.2527C7 13.9801 7.15429 13.7307 7.3982 13.6087L19.3561 7.62975ZM22.8165 5.44H20.7961V38.56H22.8165V5.44ZM8.44 29.3025L19.3561 34.7605V20.8491L8.44 15.4153V29.3025ZM27.4524 33.1626L30.0286 31.8747C30.1992 31.7914 30.3957 31.7788 30.5754 31.8397C30.7552 31.9005 30.9037 32.0299 30.9885 32.1996C31.0734 32.3694 31.0878 32.5658 31.0287 32.7461C30.9695 32.9264 30.8415 33.0761 30.6726 33.1626L28.0964 34.4505C27.9258 34.5338 27.7293 34.5463 27.5495 34.4855C27.3698 34.4246 27.2213 34.2952 27.1364 34.1255C27.0516 33.9558 27.0372 33.7594 27.0963 33.579C27.1555 33.3987 27.2835 33.249 27.4524 33.1626ZM32.6044 30.5867L35.1803 29.2984C35.3504 29.2188 35.545 29.2087 35.7224 29.2704C35.8998 29.3321 36.0462 29.4607 36.1302 29.6287C36.2142 29.7968 36.2292 29.991 36.172 30.1699C36.1149 30.3489 35.9901 30.4985 35.8242 30.5867L33.2484 31.8747C33.0779 31.9579 32.8813 31.9705 32.7016 31.9096C32.5218 31.8488 32.3734 31.7194 32.2885 31.5497C32.2036 31.3799 32.1892 31.1835 32.2484 31.0032C32.3075 30.8229 32.4355 30.6732 32.6044 30.5867ZM36.6126 27.3038C36.6126 27.4947 36.5367 27.6778 36.4017 27.8129C36.2667 27.9479 36.0835 28.0238 35.8926 28.0238C35.7016 28.0238 35.5185 27.9479 35.3835 27.8129C35.2484 27.6778 35.1726 27.4947 35.1726 27.3038V24.4238C35.1726 24.2328 35.2484 24.0497 35.3835 23.9146C35.5185 23.7796 35.7016 23.7038 35.8926 23.7038C36.0835 23.7038 36.2667 23.7796 36.4017 23.9146C36.5367 24.0497 36.6126 24.2328 36.6126 24.4238V27.3038ZM36.6126 21.5438C36.6126 21.7347 36.5367 21.9178 36.4017 22.0529C36.2667 22.1879 36.0835 22.2638 35.8926 22.2638C35.7016 22.2638 35.5185 22.1879 35.3835 22.0529C35.2484 21.9178 35.1726 21.7347 35.1726 21.5438V18.6638C35.1726 18.4728 35.2484 18.2897 35.3835 18.1546C35.5185 18.0196 35.7016 17.9438 35.8926 17.9438C36.0835 17.9438 36.2667 18.0196 36.4017 18.1546C36.5367 18.2897 36.6126 18.4728 36.6126 18.6638V21.5438ZM25.2667 18.7604L27.8429 17.4724C28.0134 17.3892 28.21 17.3766 28.3897 17.4375C28.5695 17.4983 28.7179 17.6277 28.8028 17.7974C28.8877 17.9672 28.9021 18.1636 28.8429 18.3439C28.7838 18.5242 28.6558 18.6739 28.4869 18.7604L25.9107 20.0487C25.7398 20.134 25.5421 20.1481 25.3609 20.0877C25.1797 20.0272 25.0299 19.8973 24.9445 19.7265C24.8591 19.5557 24.8451 19.3579 24.9055 19.1767C24.9659 18.9955 25.0959 18.8458 25.2667 18.7604ZM9.33302 14.2512L19.3561 19.2405V9.23984L9.33302 14.2512ZM30.4187 16.1845L32.9946 14.8966C33.1651 14.8133 33.3616 14.8008 33.5414 14.8616C33.7212 14.9225 33.8696 15.0519 33.9545 15.2216C34.0394 15.3913 34.0538 15.5877 33.9946 15.7681C33.9354 15.9484 33.8075 16.0981 33.6385 16.1845L31.0627 17.4724C30.8922 17.5557 30.6956 17.5683 30.5159 17.5074C30.3361 17.4466 30.1876 17.3172 30.1028 17.1475C30.0179 16.9777 30.0035 16.7813 30.0626 16.601C30.1218 16.4207 30.2498 16.271 30.4187 16.1845ZM36.6126 15.7838C36.6126 15.9747 36.5367 16.1578 36.4017 16.2929C36.2667 16.4279 36.0835 16.5038 35.8926 16.5038C35.7016 16.5038 35.5185 16.4279 35.3835 16.2929C35.2484 16.1578 35.1726 15.9747 35.1726 15.7838V14.6975L34.364 14.2934C34.1933 14.2079 34.0635 14.0581 34.0031 13.877C33.9427 13.6959 33.9566 13.4982 34.0419 13.3273C34.1274 13.1566 34.2772 13.0268 34.4583 12.9664C34.6395 12.9061 34.8372 12.9202 35.008 13.0055L36.2144 13.6087C36.334 13.6685 36.4346 13.7604 36.5049 13.8741C36.5753 13.9878 36.6125 14.1189 36.6126 14.2527V15.7838ZM31.7882 13.0055L29.212 11.7172C29.0431 11.6308 28.9151 11.4811 28.8559 11.3008C28.7967 11.1204 28.8112 10.924 28.896 10.7543C28.9809 10.5845 29.1294 10.4552 29.3091 10.3943C29.4889 10.3335 29.6854 10.346 29.856 10.4293L32.4322 11.7172C32.603 11.8026 32.7329 11.9524 32.7933 12.1336C32.8538 12.3147 32.8397 12.5125 32.7543 12.6833C32.6689 12.8542 32.5192 12.9841 32.338 13.0445C32.1568 13.1049 31.959 13.0909 31.7882 13.0055Z" fill="#A856F7" stroke="#A856F7" stroke-width="0.8"/>
</svg>
