<svg width="44" height="44" viewBox="0 0 44 44" fill="none" xmlns="http://www.w3.org/2000/svg">
<path d="M38.6213 36.1502C39.3047 36.8337 39.3047 37.9418 38.6213 38.6252C37.9379 39.3086 36.8298 39.3086 36.1463 38.6252L38.6213 36.1502ZM28.5517 28.5556C29.1924 27.915 30.2057 27.8747 30.8931 28.4353L31.0258 28.5556L38.6213 36.1502L36.1463 38.6252L28.5517 31.0297L28.4314 30.897C27.8708 30.2096 27.9111 29.1963 28.5517 28.5556Z" fill="#3C83F6"/>
<path d="M32.1349 19.8861C32.1346 13.1208 26.6495 7.63638 19.8842 7.63638C13.119 7.63663 7.63467 13.121 7.63442 19.8861C7.63442 26.6515 13.1189 32.1366 19.8842 32.1368C26.6497 32.1368 32.1349 26.6516 32.1349 19.8861ZM35.6345 19.8861C35.6345 28.5846 28.5827 35.6365 19.8842 35.6365C11.1859 35.6362 4.13477 28.5845 4.13477 19.8861C4.13502 11.188 11.186 4.13697 19.8842 4.13672C28.5825 4.13672 35.6343 11.1878 35.6345 19.8861Z" fill="#3C83F6"/>
</svg>
