<svg width="44" height="44" viewBox="0 0 44 44" fill="none" xmlns="http://www.w3.org/2000/svg">
<path d="M13.6605 25.6751C14.4342 25.6751 15.1029 25.0418 15.1029 24.2327C15.1029 23.4591 14.4692 22.7912 13.6605 22.7912H4.44196C3.6683 22.7912 3 23.4241 3 24.2331C3 25.0068 3.63292 25.6751 4.44234 25.6751H13.6605ZM14.821 17.2337H7.28932C6.51567 17.2337 5.84698 17.8674 5.84698 18.676C5.84698 19.4846 6.48068 20.1183 7.28932 20.1183H14.821C15.5947 20.1183 16.2634 19.4846 16.2634 18.676C16.2634 17.8674 15.5947 17.2337 14.821 17.2337ZM14.821 28.3833H9.05318C8.27953 28.3833 7.61084 29.0162 7.61084 29.8252C7.61084 30.6342 8.24454 31.2676 9.05318 31.2676H14.821C15.5947 31.2676 16.2634 30.6339 16.2634 29.8252C16.2634 29.0166 15.5947 28.3833 14.821 28.3833ZM28.5381 11.5362V10.8228C28.5381 10.5739 28.6369 10.3351 28.8129 10.159C28.9889 9.98298 29.2276 9.88402 29.4766 9.88391H30.1911C30.999 9.88391 31.6918 9.19345 31.6288 8.33349C31.5732 7.56955 30.8925 7 30.1266 7H24.0361C23.2278 7 22.535 7.69046 22.5976 8.55042C22.654 9.31436 23.3343 9.88391 24.1006 9.88391H24.7499C24.8732 9.88386 24.9953 9.90811 25.1093 9.95527C25.2232 10.0024 25.3268 10.0716 25.414 10.1588C25.5012 10.246 25.5704 10.3495 25.6176 10.4634C25.6648 10.5773 25.6891 10.6995 25.6891 10.8228V11.5362C22.9106 11.8527 20.3078 13.0485 18.3032 14.983C17.7403 15.5456 17.7053 16.425 18.2683 16.9876C18.8308 17.5505 19.7098 17.5855 20.2728 17.0225C22.1015 15.2645 24.5636 14.2798 27.1311 14.2798C33.1267 14.2798 37.9044 19.6137 36.9662 25.7377C36.3263 29.9173 33.0319 33.2837 28.865 34.0022C25.674 34.5519 22.5525 33.559 20.2728 31.4079C19.7098 30.8803 18.7954 30.8803 18.2679 31.4429C17.7403 32.0058 17.7403 32.9202 18.3029 33.4478C20.6946 35.7338 23.825 37 27.1311 37C34.2005 37 39.9334 31.2672 39.9334 24.1977C39.8984 17.6559 34.9038 12.2395 28.5381 11.5362Z" fill="#3C83F6"/>
<path d="M27.0947 17.2344C26.321 17.2344 25.6523 17.8681 25.6523 18.6767V24.2338C25.6523 25.0075 26.2857 25.6758 27.0947 25.6758H31.8428C32.6164 25.6758 33.2847 25.0425 33.2847 24.2334C33.2847 23.4598 32.6514 22.7919 31.8424 22.7919H28.537V18.6767C28.537 17.8681 27.8683 17.2344 27.0947 17.2344Z" fill="#3C83F6"/>
</svg>
