<svg width="44" height="44" viewBox="0 0 44 44" fill="none" xmlns="http://www.w3.org/2000/svg">
<g clip-path="url(#clip0_4488_866)">
<path d="M30.038 36.7165C24.5129 40.3147 17.0406 39.6894 12.1922 34.8408C6.62604 29.2744 6.62604 20.2496 12.1922 14.6832C17.7584 9.11685 26.7828 9.11685 32.349 14.6832C37.1928 19.5273 37.8214 26.9905 34.2347 32.5142" stroke="#3C83F6" stroke-width="1.6" stroke-miterlimit="10" stroke-linecap="round" stroke-linejoin="round"/>
<path d="M22.2736 35.5469C16.3235 35.5469 11.5 30.7232 11.5 24.7729C11.5 18.8225 16.3235 13.9989 22.2736 13.9989C28.2237 13.9989 33.0471 18.8225 33.0471 24.7729C33.0471 30.7232 28.2237 35.5469 22.2736 35.5469Z" stroke="#3C83F6" stroke-width="1.6" stroke-miterlimit="10" stroke-linecap="round" stroke-linejoin="round"/>
<path d="M19.5883 7.57812H24.9331C25.9171 7.57812 26.7148 6.78044 26.7148 5.79643C26.7148 4.81241 25.9171 4.01473 24.9331 4.01473H19.5883C18.6043 4.01473 17.8066 4.81241 17.8066 5.79643C17.8066 6.78044 18.6043 7.57812 19.5883 7.57812Z" stroke="#3C83F6" stroke-width="1.6" stroke-miterlimit="10" stroke-linecap="round" stroke-linejoin="round"/>
<path d="M24.7974 10.5078V7.57722H19.7188V10.5078" stroke="#3C83F6" stroke-width="1.6" stroke-miterlimit="10" stroke-linecap="round" stroke-linejoin="round"/>
<path d="M23.6797 23.3594L27.4933 19.5456" stroke="#3C83F6" stroke-width="1.6" stroke-miterlimit="10" stroke-linecap="round" stroke-linejoin="round"/>
<path d="M20.7051 24.7636C20.7051 25.6277 21.4055 26.3281 22.2695 26.3281C23.1335 26.3281 23.8339 25.6277 23.8339 24.7636C23.8339 23.8996 23.1335 23.1992 22.2695 23.1992C21.4055 23.1992 20.7051 23.8996 20.7051 24.7636Z" stroke="#3C83F6" stroke-width="1.6" stroke-miterlimit="10" stroke-linecap="round" stroke-linejoin="round"/>
<path d="M30.2092 24.7734H29.5215" stroke="#3C83F6" stroke-width="1.6" stroke-miterlimit="10" stroke-linecap="round" stroke-linejoin="round"/>
<path d="M14.334 24.7578H15.0217" stroke="#3C83F6" stroke-width="1.6" stroke-miterlimit="10" stroke-linecap="round" stroke-linejoin="round"/>
<path d="M22.2793 16.8201V17.5078" stroke="#3C83F6" stroke-width="1.6" stroke-miterlimit="10" stroke-linecap="round" stroke-linejoin="round"/>
<path d="M22.2617 32.7031V32.0154" stroke="#3C83F6" stroke-width="1.6" stroke-miterlimit="10" stroke-linecap="round" stroke-linejoin="round"/>
<path d="M21.0955 23.5938L19.0801 21.5783" stroke="#3C83F6" stroke-width="1.6" stroke-miterlimit="10" stroke-linecap="round" stroke-linejoin="round"/>
<path d="M23.375 23.6641L27.3817 19.6573" stroke="#3C83F6" stroke-width="1.6" stroke-miterlimit="10" stroke-linecap="round" stroke-linejoin="round"/>
<path d="M8.66705 29.3438H2.96875" stroke="#3C83F6" stroke-width="1.6" stroke-miterlimit="10" stroke-linecap="round" stroke-linejoin="round"/>
<path d="M8.01654 25.0078H4.00781" stroke="#3C83F6" stroke-width="1.6" stroke-miterlimit="10" stroke-linecap="round" stroke-linejoin="round"/>
<path d="M8.46969 20.6719H0" stroke="#3C83F6" stroke-width="1.6" stroke-miterlimit="10" stroke-linecap="round" stroke-linejoin="round"/>
<path d="M10.3506 16.3281H5.06055" stroke="#3C83F6" stroke-width="1.6" stroke-miterlimit="10" stroke-linecap="round" stroke-linejoin="round"/>
</g>
<defs>
<clipPath id="clip0_4488_866">
<rect width="43.273" height="43.273" fill="white"/>
</clipPath>
</defs>
</svg>
