<svg width="44" height="44" viewBox="0 0 44 44" fill="none" xmlns="http://www.w3.org/2000/svg">
<path d="M27.1169 37.2499V33.7502C27.1169 32.3578 26.564 31.0218 25.5794 30.0372C24.6565 29.1144 23.4254 28.5708 22.1281 28.5063L21.8674 28.4997H11.3674C9.97496 28.4997 8.63897 29.0526 7.65439 30.0372C6.66981 31.0218 6.11688 32.3578 6.11688 33.7502V37.2499C6.11688 38.2164 5.33354 38.9997 4.36703 38.9997C3.40052 38.9997 2.61719 38.2164 2.61719 37.2499V33.7502C2.61719 31.4295 3.53843 29.2032 5.17939 27.5622C6.82036 25.9212 9.04669 25 11.3674 25H21.8674L22.3015 25.0104C24.464 25.1178 26.5161 26.0241 28.0544 27.5622C29.6954 29.2032 30.6176 31.4295 30.6176 33.7502V37.2499C30.6176 38.2163 29.8341 38.9995 28.8677 38.9997C27.9012 38.9997 27.1169 38.2164 27.1169 37.2499Z" fill="#3C83F6"/>
<path d="M32.3606 12.7485C32.3605 11.5856 31.9745 10.4557 31.2629 9.53605C30.5956 8.67376 29.6778 8.04163 28.6381 7.72553L28.4286 7.66676L28.257 7.61368C27.4255 7.30545 26.9464 6.41094 27.1736 5.53396C27.401 4.6569 28.2544 4.10828 29.131 4.2429L29.3064 4.27892L29.6562 4.37751C31.3889 4.90432 32.9187 5.95679 34.0308 7.39376C35.217 8.92667 35.8611 10.8103 35.8612 12.7485C35.8612 14.6869 35.217 16.5712 34.0308 18.1042C32.9187 19.5412 31.3889 20.5937 29.6562 21.1205L29.3064 21.2191C28.3709 21.4614 27.4161 20.8995 27.1736 19.964C26.9311 19.0285 27.4931 18.0738 28.4286 17.8312L28.6381 17.7725C29.6778 17.4564 30.5956 16.8242 31.2629 15.9619C31.9746 15.0421 32.3606 13.9116 32.3606 12.7485Z" fill="#3C83F6"/>
<path d="M37.6177 37.2499V33.7512L37.613 33.5331C37.567 32.4473 37.1852 31.4005 36.5172 30.5387C35.8491 29.6769 34.9306 29.0462 33.8905 28.731L33.6801 28.6723L33.5095 28.6182C32.6775 28.3108 32.1966 27.4167 32.4231 26.5395C32.6498 25.6624 33.503 25.1129 34.3796 25.2465L34.556 25.2825L34.9048 25.3811C36.6386 25.9063 38.1696 26.958 39.2832 28.3945C40.4709 29.9267 41.1168 31.8097 41.1183 33.7483V37.2499C41.1183 38.2163 40.3348 38.9995 39.3685 38.9998C38.402 38.9998 37.6177 38.2164 37.6177 37.2499Z" fill="#3C83F6"/>
<path d="M21.8669 12.7502C21.8669 9.85072 19.5168 7.49982 16.6174 7.49969C13.7178 7.49969 11.3669 9.85064 11.3669 12.7502C11.367 15.6496 13.7179 17.9997 16.6174 17.9997C19.5167 17.9996 21.8668 15.6495 21.8669 12.7502ZM25.3675 12.7502C25.3674 17.5825 21.4497 21.5002 16.6174 21.5004C11.7849 21.5004 7.86732 17.5826 7.86719 12.7502C7.86719 7.91762 11.7848 4 16.6174 4C21.4498 4.00013 25.3675 7.9177 25.3675 12.7502Z" fill="#3C83F6"/>
</svg>
