<svg width="44" height="44" viewBox="0 0 44 44" fill="none" xmlns="http://www.w3.org/2000/svg">
<path d="M23.323 7.00985C23.6636 6.97597 24.0072 7.02978 24.3216 7.1664L24.4765 7.24173L24.6242 7.33034C24.911 7.51858 25.1458 7.77727 25.3069 8.08208L25.3815 8.2379L25.4422 8.40036C25.568 8.78306 25.5801 9.19647 25.4736 9.58779C25.4688 9.60538 25.463 9.62284 25.4575 9.64022L22.8669 17.8474L22.845 17.9101H32.2958C32.8051 17.9092 33.3044 18.0538 33.7358 18.3274C34.1684 18.6017 34.5146 18.9947 34.7351 19.4601C34.9555 19.9256 35.0414 20.4446 34.9814 20.957C34.9215 21.4693 34.7184 21.9542 34.3966 22.3549C34.3715 22.3862 34.3447 22.4161 34.317 22.445L20.9569 36.3515L20.9554 36.3508C20.6603 36.6695 20.2727 36.8863 19.8465 36.9659C19.395 37.0502 18.9283 36.9772 18.5234 36.7584C18.1187 36.5396 17.7996 36.1883 17.6185 35.7622C17.4373 35.3361 17.4047 34.8602 17.5264 34.4131L17.5425 34.3599L20.1331 26.1527L20.155 26.09H10.7034V26.0892C10.1944 26.09 9.69534 25.9462 9.26414 25.6727C8.83172 25.3985 8.48534 25.0059 8.26489 24.5407C8.04447 24.0754 7.95869 23.5562 8.01855 23.0439C8.07848 22.5315 8.28158 22.0467 8.60333 21.646L8.68301 21.5551L22.0431 7.64935V7.65009C22.3384 7.33076 22.7268 7.11393 23.1535 7.03422L23.323 7.00985ZM10.7064 23.3636H20.1506C20.5856 23.3629 21.0146 23.4687 21.4006 23.6715C21.7877 23.875 22.1205 24.17 22.3698 24.5318C22.6193 24.8938 22.778 25.312 22.8326 25.7495C22.8843 26.1648 22.8391 26.5856 22.7039 26.9805L22.7046 26.9813L20.9941 32.3963L32.2943 20.6365H22.8494V20.6358C22.4143 20.6365 21.9854 20.5321 21.5994 20.3293C21.2121 20.1258 20.8796 19.8302 20.6301 19.4683C20.3807 19.1064 20.222 18.6888 20.1674 18.2513C20.1156 17.8355 20.1598 17.4135 20.2953 17.0181L22.0051 11.6023L10.7064 23.3636Z" fill="#3C83F6"/>
</svg>
