<svg width="44" height="44" viewBox="0 0 44 44" fill="none" xmlns="http://www.w3.org/2000/svg">
<path fill-rule="evenodd" clip-rule="evenodd" d="M14.3842 9.30769C9.92394 9.30769 6.30769 12.9232 6.30769 17.3842V26.615C6.30769 31.0753 9.92394 34.6923 14.3842 34.6923H29.7694C34.2297 34.6923 37.8459 31.0761 37.8459 26.615V17.3842C37.8459 12.9239 34.2297 9.30769 29.7694 9.30769H14.3842ZM4 17.3842C4 11.6494 8.64935 7 14.3842 7H29.7694C35.5042 7 40.1536 11.6494 40.1536 17.3842V26.615C40.1536 32.3499 35.5042 37 29.7694 37H14.3842C8.64935 37 4 32.3499 4 26.6143V17.3842Z" fill="#3C83F6"/>
<path fill-rule="evenodd" clip-rule="evenodd" d="M16.4264 18.5389C15.5783 18.5389 14.765 18.8758 14.1654 19.4755C13.5657 20.0751 13.2288 20.8884 13.2288 21.7365V22.2645C13.2288 22.897 13.4163 23.5154 13.7677 24.0413C14.1192 24.5673 14.6187 24.9771 15.2032 25.2191C15.7876 25.4611 16.4307 25.5243 17.051 25.4007C17.6714 25.2772 18.2412 24.9724 18.6883 24.5249L18.9519 24.2613C19.0591 24.1541 19.1863 24.0691 19.3263 24.0111C19.4663 23.9531 19.6164 23.9233 19.7679 23.9233C19.9195 23.9233 20.0695 23.9531 20.2095 24.0111C20.3495 24.0691 20.4767 24.1541 20.5839 24.2613C20.6911 24.3684 20.7761 24.4956 20.8341 24.6357C20.8921 24.7757 20.9219 24.9257 20.9219 25.0773C20.9219 25.2288 20.8921 25.3789 20.8341 25.5189C20.7761 25.6589 20.6911 25.7861 20.5839 25.8933L20.3195 26.1569C19.5496 26.9267 18.5687 27.4509 17.5009 27.6632C16.4331 27.8756 15.3263 27.7666 14.3204 27.35C13.3146 26.9333 12.4548 26.2278 11.8499 25.3226C11.245 24.4174 10.922 23.3532 10.9219 22.2645V21.7365C10.9219 20.6477 11.2447 19.5833 11.8496 18.678C12.4545 17.7727 13.3142 17.0671 14.3201 16.6504C15.326 16.2337 16.4329 16.1246 17.5007 16.3369C18.5686 16.5493 19.5496 17.0735 20.3195 17.8433L20.5839 18.1069C20.7934 18.3248 20.9092 18.6161 20.9062 18.9183C20.9033 19.2205 20.7819 19.5095 20.5682 19.7233C20.3545 19.937 20.0655 20.0583 19.7633 20.0613C19.461 20.0642 19.1697 19.9485 18.9519 19.7389L18.6883 19.4753C18.3913 19.1784 18.0388 18.9429 17.6508 18.7822C17.2628 18.6216 16.8463 18.5389 16.4264 18.5389ZM28.735 18.5389C27.887 18.5389 27.0737 18.8758 26.474 19.4755C25.8744 20.0751 25.5375 20.8884 25.5375 21.7365V22.2645C25.5377 22.8967 25.7254 23.5147 26.0768 24.0403C26.4281 24.566 26.9274 24.9756 27.5116 25.2175C28.0957 25.4595 28.7384 25.5228 29.3585 25.3995C29.9787 25.2762 30.5483 24.9719 30.9955 24.5249L31.2598 24.2613C31.367 24.1541 31.4942 24.0691 31.6342 24.0111C31.7742 23.9531 31.9243 23.9233 32.0758 23.9233C32.2274 23.9233 32.3775 23.9531 32.5175 24.0111C32.6575 24.0691 32.7847 24.1541 32.8918 24.2613C32.999 24.3684 33.084 24.4956 33.142 24.6357C33.2 24.7757 33.2298 24.9257 33.2298 25.0773C33.2298 25.2288 33.2 25.3789 33.142 25.5189C33.084 25.6589 32.999 25.7861 32.8918 25.8933L32.6275 26.1569C31.8576 26.9269 30.8767 27.4514 29.8087 27.6639C28.7408 27.8764 27.6338 27.7674 26.6278 27.3508C25.6218 26.9341 24.7619 26.2285 24.1569 25.3231C23.552 24.4178 23.2291 23.3533 23.2291 22.2645V21.7365C23.2289 20.6475 23.5517 19.583 24.1566 18.6775C24.7615 17.7721 25.6214 17.0663 26.6274 16.6496C27.6335 16.2328 28.7405 16.1238 29.8085 16.3363C30.8765 16.5488 31.8576 17.0732 32.6275 17.8433L32.8918 18.1069C33.1014 18.3248 33.2171 18.6161 33.2142 18.9183C33.2112 19.2205 33.0899 19.5095 32.8762 19.7233C32.6625 19.937 32.3734 20.0583 32.0712 20.0613C31.769 20.0642 31.4777 19.9485 31.2598 19.7389L30.9955 19.4753C30.3959 18.8758 29.5829 18.539 28.735 18.5389Z" fill="#3C83F6"/>
</svg>
