<svg width="44" height="44" viewBox="0 0 44 44" fill="none" xmlns="http://www.w3.org/2000/svg">
<path d="M25 12.5001V6.49985C25 5.67142 25.6714 5 26.4998 5C27.3283 5 27.9997 5.67142 27.9997 6.49985V12.5001C27.9997 12.8978 28.158 13.2791 28.4392 13.5604C28.7205 13.8416 29.1018 13.9998 29.4995 13.9999H35.4997L35.6532 14.0072C36.4095 14.0841 36.9994 14.7232 36.9995 15.4998C36.9995 16.2764 36.4096 16.9155 35.6532 16.9923L35.4997 16.9996H29.4995C28.3062 16.9996 27.1617 16.5256 26.3178 15.6818C25.474 14.8379 25.0001 13.6935 25 12.5001Z" fill="#3C83F6"/>
<path d="M11.1501 33.7011C11.8675 33.287 12.785 33.5323 13.1992 34.2496L10.6009 35.7502C10.1867 35.0328 10.4327 34.1153 11.1501 33.7011ZM9.99805 13.9999V9.49956C9.99813 8.30619 10.4721 7.1617 11.3159 6.31786C12.1597 5.47401 13.3042 5.00008 14.4976 5H27.9977L28.1464 5.00731C28.4896 5.04148 28.8127 5.19351 29.0588 5.43956L36.558 12.9388L36.6579 13.0493C36.8766 13.3162 36.9975 13.6518 36.9975 13.9999V33.4996C36.9975 34.6931 36.5236 35.8382 35.6797 36.6821C34.8359 37.5259 33.6913 37.9999 32.498 38H14.4862C13.6983 37.9979 12.9247 37.7887 12.2429 37.3939C11.5612 36.9991 10.9948 36.4325 10.6009 35.7502L13.1992 34.2496C13.3305 34.477 13.5188 34.6664 13.746 34.798C13.9733 34.9296 14.2316 34.9996 14.4943 35.0003H32.498C32.8957 35.0002 33.2771 34.8419 33.5583 34.5607C33.8396 34.2794 33.9978 33.8975 33.9978 33.4996V14.6207L27.377 7.9997H14.4976C14.0998 7.99978 13.7185 8.15803 13.4373 8.43926C13.156 8.72049 12.9978 9.10184 12.9977 9.49956V13.9999C12.9977 14.8283 12.3263 15.4998 11.4979 15.4998C10.6695 15.4998 9.99808 14.8283 9.99805 13.9999Z" fill="#3C83F6"/>
<path d="M20.0606 29.4392C20.6462 30.025 20.6463 30.9749 20.0606 31.5606C19.4748 32.1464 18.525 32.1462 17.9392 31.5606L20.0606 29.4392ZM15.6894 27.1894C16.2386 26.6403 17.1071 26.6058 17.6963 27.0863L17.81 27.1894L20.0606 29.4392L17.9392 31.5606L15.6894 29.31L15.5863 29.1963C15.1058 28.6071 15.1403 27.7386 15.6894 27.1894Z" fill="#3C83F6"/>
<path d="M15.9998 24.4963C15.9998 22.8396 14.6568 21.496 13.0002 21.4958C11.3433 21.4958 9.99967 22.8395 9.99967 24.4963C9.99986 26.153 11.3434 27.496 13.0002 27.496C14.6567 27.4958 15.9996 26.1529 15.9998 24.4963ZM18.9995 24.4963C18.9993 27.8097 16.3135 30.4955 13.0002 30.4957C9.68659 30.4957 7.00019 27.8099 7 24.4963C7 21.1826 9.68647 18.4961 13.0002 18.4961C16.3137 18.4963 18.9995 21.1827 18.9995 24.4963Z" fill="#3C83F6"/>
</svg>
