<svg width="44" height="44" viewBox="0 0 44 44" fill="none" xmlns="http://www.w3.org/2000/svg">
<path d="M2.38477 32.1369V9.38717C2.38477 7.99477 2.9377 6.65879 3.92227 5.67422C4.90675 4.68979 6.24204 4.13681 7.63426 4.13672H14.4601V4.13767C15.3321 4.13204 16.1918 4.34288 16.9617 4.75286C17.7307 5.16241 18.3851 5.75712 18.8669 6.48278H18.8679L20.285 8.58239L20.2964 8.59946L20.4262 8.77197C20.5665 8.93644 20.7363 9.07455 20.9277 9.17768C21.1825 9.31497 21.4676 9.38705 21.7571 9.38717H35.6344C37.0268 9.38717 38.3628 9.9401 39.3474 10.9247C40.3318 11.9092 40.8849 13.2444 40.8849 14.6367V21.8114C40.8849 22.7778 40.1014 23.562 39.135 23.5621C38.1685 23.5621 37.3852 22.7779 37.3852 21.8114V14.6367C37.3852 14.1727 37.2004 13.7278 36.8724 13.3996C36.5442 13.0715 36.0986 12.8868 35.6344 12.8868H21.7571C20.8879 12.8867 20.0321 12.6707 19.267 12.2584C18.502 11.8461 17.851 11.2504 17.373 10.5247V10.5237L15.9664 8.44116L15.9559 8.42409C15.795 8.17964 15.5744 7.97966 15.3161 7.84208C15.1224 7.73899 14.9119 7.67284 14.6952 7.64776L14.4772 7.63638H7.63426C7.1703 7.63648 6.72535 7.82115 6.39725 8.1492C6.06906 8.47739 5.88443 8.92303 5.88443 9.38717V32.1369C5.88444 32.6009 6.06916 33.0457 6.39725 33.3739C6.72536 33.702 7.17026 33.8866 7.63426 33.8867H19.3598L19.539 33.8962C20.4212 33.986 21.1095 34.7307 21.1097 35.6366C21.1097 36.5425 20.4213 37.2881 19.539 37.3779L19.3598 37.3873H7.63426C6.242 37.3872 4.90676 36.8334 3.92227 35.8489C2.93781 34.8643 2.38477 33.5292 2.38477 32.1369Z" fill="#3C83F6"/>
<path d="M32.8213 32.8252C33.462 32.1845 34.4752 32.1442 35.1626 32.7048L35.2953 32.8252L38.6206 36.1495L38.7409 36.2831C39.3013 36.9705 39.2612 37.9839 38.6206 38.6245C37.9799 39.2651 36.9666 39.3052 36.2792 38.7449L36.1456 38.6245L32.8213 35.2992L32.7009 35.1665C32.1403 34.4792 32.1806 33.4659 32.8213 32.8252Z" fill="#3C83F6"/>
<path d="M33.8847 30.387C33.8847 28.4541 32.3179 26.8866 30.385 26.8864C28.452 26.8864 26.8844 28.454 26.8844 30.387C26.8847 32.3198 28.4522 33.8867 30.385 33.8867C32.3177 33.8864 33.8845 32.3197 33.8847 30.387ZM37.3844 30.387C37.3842 34.2527 34.2507 37.3861 30.385 37.3863C26.5192 37.3863 23.385 34.2528 23.3848 30.387C23.3848 26.521 26.519 23.3867 30.385 23.3867C34.2509 23.3869 37.3844 26.5211 37.3844 30.387Z" fill="#3C83F6"/>
</svg>
