<svg width="44" height="44" viewBox="0 0 44 44" fill="none" xmlns="http://www.w3.org/2000/svg">
<path d="M23.4996 14.5001C23.4996 12.0148 21.4852 9.99981 19.0001 9.9997C16.5148 9.9997 14.4997 12.0148 14.4997 14.5001C14.4998 16.9852 16.5148 18.9996 19.0001 18.9996C21.4852 18.9995 23.4995 16.9852 23.4996 14.5001ZM26.5001 14.5001C26.5 18.642 23.142 22 19.0001 22.0001C14.858 22.0001 11.5001 18.6421 11.5 14.5001C11.5 10.3579 14.8579 7 19.0001 7C23.1421 7.00011 26.5001 10.358 26.5001 14.5001Z" fill="#3C83F6"/>
<path d="M7 35.4998V32.5001C7 30.5109 7.78963 28.6027 9.19615 27.1961C10.6027 25.7896 12.5109 25 14.5001 25H19.4497L19.6033 25.0073C20.3597 25.0841 20.9496 25.7232 20.9496 26.4998C20.9496 27.2765 20.3597 27.9156 19.6033 27.9924L19.4497 27.9997H14.5001C13.3066 27.9997 12.1615 28.4736 11.3176 29.3176C10.4736 30.1615 9.9997 31.3066 9.9997 32.5001V35.4998C9.9997 36.3282 9.32828 36.9996 8.49985 36.9996C7.67142 36.9996 7 36.3282 7 35.4998Z" fill="#3C83F6"/>
<path d="M32.4999 29.5002C32.4999 27.8435 31.1569 26.4999 29.5002 26.4997C27.8434 26.4997 26.4997 27.8434 26.4997 29.5002C26.4999 31.1569 27.8435 32.4999 29.5002 32.4999C31.1568 32.4997 32.4997 31.1568 32.4999 29.5002ZM35.4996 29.5002C35.4994 32.8136 32.8136 35.4994 29.5002 35.4996C26.1866 35.4996 23.5002 32.8138 23.5 29.5002C23.5 26.1865 26.1865 23.5 29.5002 23.5C32.8138 23.5002 35.4996 26.1866 35.4996 29.5002Z" fill="#3C83F6"/>
<path d="M31.5879 31.5918C32.137 31.0426 33.0056 31.0081 33.5947 31.4886L33.7085 31.5918L36.5587 34.4412L36.6619 34.5557C37.1422 35.1449 37.1078 36.0135 36.5587 36.5626C36.0096 37.1117 35.141 37.1461 34.5518 36.6658L34.4373 36.5626L31.5879 33.7124L31.4847 33.5986C31.0042 33.0095 31.0387 32.1409 31.5879 31.5918Z" fill="#3C83F6"/>
</svg>
