<svg width="36" height="36" viewBox="0 0 36 36" fill="none" xmlns="http://www.w3.org/2000/svg">
<path d="M14.7915 0.84992C18.7456 0.226971 22.7939 0.978766 26.2609 2.97921C27.022 3.41832 27.2834 4.39143 26.8443 5.15246C26.4052 5.91338 25.4321 6.17398 24.6711 5.73498C21.8344 4.09823 18.5221 3.48377 15.287 3.99345C12.052 4.50314 9.08909 6.10596 6.89306 8.53555C4.69701 10.9652 3.40076 14.0748 3.21957 17.3448C3.03846 20.6147 3.98372 23.8476 5.89778 26.5049C7.81197 29.1622 10.5795 31.0835 13.7385 31.9475C16.8974 32.8113 20.257 32.5662 23.257 31.2529C26.2571 29.9396 28.7166 27.6376 30.2248 24.7306C31.733 21.8235 32.1989 18.4867 31.545 15.2776L34.6627 14.6425C35.4619 18.5647 34.892 22.6424 33.0487 26.1955C31.2053 29.7486 28.2 32.5629 24.5332 34.1681C20.8665 35.7732 16.7601 36.0727 12.8992 35.0169C9.03833 33.9609 5.65564 31.613 3.31609 28.3653C0.976521 25.1174 -0.179009 21.1649 0.0424357 17.1682C0.263955 13.1716 1.84885 9.37142 4.53283 6.40194C7.2168 3.43258 10.8377 1.4729 14.7915 0.84992ZM32.7858 13.4016C33.6467 13.2262 34.4872 13.7817 34.6627 14.6425L31.545 15.2776C31.3698 14.4169 31.9252 13.5772 32.7858 13.4016Z" fill="#3C83F6"/>
<path d="M32.2958 4.29018C32.9171 3.6689 33.9245 3.6689 34.5457 4.29018C35.1667 4.91139 35.1667 5.91803 34.5457 6.53925L18.6368 22.4482C18.3385 22.7465 17.934 22.9143 17.5122 22.9144C17.0903 22.9144 16.6852 22.7466 16.3868 22.4482L11.6147 17.676L11.5052 17.5554C10.9953 16.9305 11.0321 16.0087 11.6147 15.4261C12.1971 14.8438 13.1183 14.8072 13.7431 15.3167L13.8637 15.4261L17.5114 19.0729L32.2958 4.29018Z" fill="#3C83F6"/>
</svg>
