<svg width="32" height="35" viewBox="0 0 32 35" fill="none" xmlns="http://www.w3.org/2000/svg">
<path d="M30.7979 8.77411C30.792 8.76226 30.792 8.74804 30.7849 8.73618C30.7707 8.7113 30.7458 8.69708 30.7292 8.67338C30.4238 8.16681 29.9964 7.74474 29.4861 7.44563L17.4089 0.473784C16.8681 0.16335 16.2554 0 15.6318 0C15.0083 0 14.3956 0.16335 13.8548 0.473784L1.77762 7.44563C1.26766 7.74481 0.840694 8.16689 0.535658 8.67338C0.519066 8.69708 0.49418 8.7113 0.479959 8.73618C0.472848 8.74804 0.474033 8.76107 0.466923 8.77411C0.1624 9.30774 0.00151945 9.91125 0 10.5257V24.4705C0 25.7362 0.681423 26.9154 1.77762 27.5506L13.8536 34.5236C14.3976 34.8365 15.0067 34.9929 15.6158 34.9964C15.6218 34.9964 15.6265 35 15.6324 35C15.6384 35 15.6431 34.9964 15.649 34.9964C16.2672 34.9952 16.8744 34.8322 17.4101 34.5236L29.4872 27.5506C30.0271 27.2375 30.4753 26.7883 30.7872 26.2479C31.0992 25.7074 31.2639 25.0946 31.2649 24.4705V10.5257C31.2632 9.91127 31.1023 9.3078 30.7979 8.77411ZM28.3022 25.4968L16.8175 32.1274V28.0898C16.8175 27.7755 16.6927 27.474 16.4704 27.2518C16.2482 27.0296 15.9467 26.9047 15.6324 26.9047C15.3181 26.9047 15.0167 27.0296 14.7945 27.2518C14.5722 27.474 14.4474 27.7755 14.4474 28.0898V32.1285L2.96389 25.498C2.5977 25.2871 2.37135 24.8936 2.37135 24.4717V11.1964L7.72911 14.2895C7.86377 14.3678 8.01257 14.4187 8.16696 14.4392C8.32135 14.4598 8.47829 14.4496 8.62874 14.4093C8.77918 14.369 8.92018 14.2993 9.04361 14.2043C9.16703 14.1093 9.27046 13.9909 9.34794 13.8557C9.50508 13.5836 9.54767 13.2601 9.46633 12.9565C9.38498 12.6529 9.18638 12.3941 8.9142 12.2369L3.5671 9.14978L15.0387 2.52635C15.2192 2.42269 15.4237 2.36815 15.6318 2.36815C15.84 2.36815 16.0445 2.42269 16.225 2.52635L27.6978 9.14978L22.3519 12.2357C22.0819 12.394 21.8855 12.6526 21.8055 12.9552C21.7255 13.2577 21.7684 13.5796 21.9249 13.8506C22.0814 14.1217 22.3387 14.3198 22.6407 14.4018C22.9427 14.4838 23.2649 14.443 23.5369 14.2883L28.8947 11.1952V24.4693C28.8947 24.8924 28.6672 25.2859 28.3022 25.4968Z" fill="#3C83F6"/>
<path d="M22.3839 16.2093L20.7307 15.6132C19.9878 15.3467 19.313 14.919 18.7549 14.3609C18.1968 13.8028 17.7691 13.128 17.5025 12.3851L16.9076 10.7307C16.7145 10.1962 16.2013 9.83594 15.6325 9.83594C15.0636 9.83594 14.5505 10.1962 14.3573 10.7319L13.7624 12.3862C13.4956 13.1292 13.0677 13.804 12.5094 14.3621C11.9511 14.9202 11.2762 15.3479 10.5331 15.6144L8.87751 16.2105C8.34422 16.4049 7.98633 16.9168 7.98633 17.4833C7.98633 18.0497 8.34422 18.5617 8.88107 18.7572L10.5331 19.3522C11.2762 19.6189 11.9512 20.0467 12.5095 20.6051C13.0678 21.1634 13.4957 21.8383 13.7624 22.5815L14.3573 24.2359C14.5505 24.7715 15.0625 25.1318 15.6325 25.1318C16.2025 25.1318 16.7145 24.7715 16.9076 24.2359L17.5025 22.5815C17.7692 21.8385 18.1969 21.1637 18.755 20.6054C19.3131 20.0471 19.9878 19.6191 20.7307 19.3522L22.3875 18.7561C22.9207 18.5617 23.2786 18.0497 23.2786 17.4833C23.2786 16.9168 22.9207 16.4049 22.3839 16.2093ZM15.6325 20.9378C14.8866 19.4418 13.674 18.2292 12.178 17.4833C13.6743 16.7377 14.8869 15.5251 15.6325 14.0288C16.3784 15.5248 17.591 16.7374 19.087 17.4833C17.591 18.2292 16.3784 19.4418 15.6325 20.9378Z" fill="#3C83F6"/>
</svg>
