<svg width="44" height="44" viewBox="0 0 44 44" fill="none" xmlns="http://www.w3.org/2000/svg">
<path fill-rule="evenodd" clip-rule="evenodd" d="M32.1329 14.8488L21.5816 10.1617L11.0302 14.8488C11.151 18.5823 12.1739 22.231 14.0113 25.4833C15.8487 28.7355 18.4461 31.4947 21.5816 33.525C24.717 31.4947 27.3144 28.7355 29.1519 25.4833C30.9893 22.231 32.0121 18.5823 32.1329 14.8488ZM21.7083 36.9672C21.6695 36.9887 21.6259 37 21.5816 37C21.5372 37 21.4936 36.9887 21.4548 36.9672C17.377 34.7018 13.9793 31.3872 11.6135 27.3668C9.24779 23.3465 8.00019 18.7666 8 14.1018V13.0757C8 12.964 8.06489 12.8644 8.166 12.8191L20.9689 7.12997C21.1618 7.04428 21.3705 7 21.5816 7C21.7926 7 22.0014 7.04428 22.1942 7.12997L34.9971 12.8191C35.0982 12.8644 35.1631 12.964 35.1631 13.0757V14.1018C35.1629 18.7666 33.9153 23.3465 31.5496 27.3668C29.1839 31.3872 25.7861 34.7018 21.7083 36.9672ZM21.5816 18.9293C21.9818 18.9293 22.3656 19.0883 22.6486 19.3713C22.9316 19.6543 23.0906 20.0382 23.0906 20.4384V24.9656C23.4909 24.9656 23.8747 25.1246 24.1577 25.4076C24.4407 25.6906 24.5997 26.0744 24.5997 26.4746C24.5997 26.8749 24.4407 27.2587 24.1577 27.5417C23.8747 27.8247 23.4909 27.9837 23.0906 27.9837H21.5816C21.1813 27.9837 20.7975 27.8247 20.5145 27.5417C20.2315 27.2587 20.0725 26.8749 20.0725 26.4746V21.9475C19.6723 21.9475 19.2884 21.7885 19.0054 21.5055C18.7224 21.2225 18.5634 20.8386 18.5634 20.4384C18.5634 20.0382 18.7224 19.6543 19.0054 19.3713C19.2884 19.0883 19.6723 18.9293 20.0725 18.9293H21.5816ZM21.5816 17.4203C21.9818 17.4203 22.3656 17.2613 22.6486 16.9783C22.9316 16.6953 23.0906 16.3114 23.0906 15.9112C23.0906 15.511 22.9316 15.1271 22.6486 14.8441C22.3656 14.5611 21.9818 14.4021 21.5816 14.4021C21.1813 14.4021 20.7975 14.5611 20.5145 14.8441C20.2315 15.1271 20.0725 15.511 20.0725 15.9112C20.0725 16.3114 20.2315 16.6953 20.5145 16.9783C20.7975 17.2613 21.1813 17.4203 21.5816 17.4203Z" fill="#A856F7"/>
</svg>
