<svg width="44" height="44" viewBox="0 0 44 44" fill="none" xmlns="http://www.w3.org/2000/svg">
<path d="M33.5412 12.4339C33.5365 12.4187 33.5246 12.3883 33.497 12.3433C33.4391 12.2491 33.3209 12.1074 33.0998 11.9332C32.6496 11.5784 31.9139 11.1993 30.8832 10.8557C28.8354 10.1731 25.9193 9.72722 22.6361 9.72722C19.3529 9.72722 16.4368 10.1731 14.389 10.8557C13.3583 11.1993 12.6226 11.5784 12.1724 11.9332C11.9513 12.1074 11.8331 12.2491 11.7752 12.3433C11.7475 12.3883 11.7357 12.4187 11.731 12.4339C11.7268 12.4477 11.7272 12.4534 11.7272 12.4544C11.7272 12.4554 11.7268 12.4611 11.731 12.475C11.7357 12.4902 11.7475 12.5206 11.7752 12.5655C11.8331 12.6598 11.9513 12.8015 12.1724 12.9757C12.6226 13.3304 13.3583 13.7096 14.389 14.0532C16.4368 14.7358 19.3529 15.1817 22.6361 15.1817C25.9193 15.1817 28.8354 14.7358 30.8832 14.0532C31.9139 13.7096 32.6496 13.3304 33.0998 12.9757C33.3209 12.8015 33.4391 12.6598 33.497 12.5655C33.5246 12.5206 33.5365 12.4902 33.5412 12.475C33.5453 12.4611 33.545 12.4554 33.545 12.4544C33.545 12.4534 33.5453 12.4477 33.5412 12.4339ZM36.2722 12.4544C36.2722 13.6161 35.5647 14.5058 34.7883 15.1177C33.9966 15.7417 32.9351 16.2438 31.7453 16.6404C29.3514 17.4384 26.1308 17.9089 22.6361 17.9089C19.1414 17.9089 15.9208 17.4384 13.5268 16.6404C12.3371 16.2438 11.2756 15.7417 10.4838 15.1177C9.70745 14.5058 9 13.6161 9 12.4544C9 11.2928 9.70745 10.403 10.4838 9.79114C11.2756 9.16715 12.3371 8.6651 13.5268 8.26849C15.9208 7.47051 19.1414 7 22.6361 7C26.1308 7 29.3514 7.47051 31.7453 8.26849C32.9351 8.6651 33.9966 9.16715 34.7883 9.79114C35.5647 10.403 36.2722 11.2928 36.2722 12.4544Z" fill="#3C83F6"/>
<path d="M9 31.544V12.4535C9 11.7004 9.61051 11.0898 10.3636 11.0898C11.1167 11.0898 11.7272 11.7004 11.7272 12.4535V31.5463C11.7275 31.5481 11.7282 31.5524 11.7303 31.5592C11.7344 31.573 11.7454 31.6012 11.7714 31.6444C11.8256 31.7348 11.9378 31.8741 12.1526 32.047C12.5904 32.3992 13.3226 32.7872 14.389 33.1427C16.5131 33.8508 19.481 34.2712 22.6361 34.2712C25.7912 34.2712 28.759 33.8508 30.8832 33.1427C31.9495 32.7872 32.6818 32.3992 33.1196 32.047C33.3344 31.8741 33.4466 31.7348 33.5008 31.6444C33.5267 31.6012 33.5378 31.573 33.5419 31.5592C33.5439 31.5524 33.5447 31.5481 33.545 31.5463V12.4535C33.545 11.7004 34.1555 11.0898 34.9086 11.0898C35.6617 11.0898 36.2722 11.7004 36.2722 12.4535V31.544L36.2646 31.7525C36.1879 32.7786 35.5525 33.5896 34.8294 34.1715C34.0454 34.8024 32.9802 35.3183 31.7453 35.7299C29.2664 36.5562 25.9907 36.9984 22.6361 36.9984C19.2814 36.9984 16.0058 36.5562 13.5268 35.7299C12.292 35.3183 11.2268 34.8024 10.4427 34.1715C9.71968 33.5896 9.08431 32.7786 9.00761 31.7525L9 31.544Z" fill="#3C83F6"/>
<path d="M9 22.0003C9 21.2472 9.61051 20.6367 10.3636 20.6367C11.0697 20.6367 11.6506 21.1734 11.7204 21.8611L11.7272 22.0003C11.7272 22.0006 11.7271 22.0017 11.7272 22.0026C11.7275 22.0044 11.7282 22.0087 11.7303 22.0155C11.7344 22.0293 11.7454 22.0576 11.7714 22.1008C11.8256 22.1912 11.9378 22.3304 12.1526 22.5033C12.5904 22.8556 13.3226 23.2436 14.389 23.5991C16.5131 24.3071 19.481 24.7275 22.6361 24.7275C25.7912 24.7275 28.759 24.3071 30.8832 23.5991C31.9495 23.2436 32.6818 22.8556 33.1196 22.5033C33.3344 22.3304 33.4466 22.1912 33.5008 22.1008C33.5267 22.0576 33.5378 22.0293 33.5419 22.0155C33.5439 22.0087 33.5447 22.0044 33.545 22.0026V22.0003C33.545 21.2472 34.1555 20.6367 34.9086 20.6367C35.6617 20.6367 36.2722 21.2472 36.2722 22.0003C36.2722 23.1255 35.6008 24.007 34.8294 24.6279C34.0454 25.2588 32.9802 25.7746 31.7453 26.1863C29.2664 27.0126 25.9907 27.4548 22.6361 27.4548C19.2814 27.4548 16.0058 27.0126 13.5268 26.1863C12.292 25.7746 11.2268 25.2588 10.4427 24.6279C9.67138 24.007 9 23.1255 9 22.0003Z" fill="#3C83F6"/>
</svg>
