<svg width="44" height="44" viewBox="0 0 44 44" fill="none" xmlns="http://www.w3.org/2000/svg">
<path d="M19.9319 26.8111C19.7471 26.8115 19.564 26.7755 19.3931 26.7052C19.2221 26.6348 19.0668 26.5314 18.9359 26.4009L14.6382 22.1033C14.378 21.8388 14.2329 21.4823 14.2344 21.1113C14.2359 20.7404 14.3839 20.385 14.6462 20.1227C14.9086 19.8604 15.2639 19.7124 15.6348 19.7109C16.0058 19.7094 16.3623 19.8545 16.6268 20.1147L19.9079 23.3958L26.9629 16.0338C27.0899 15.8974 27.2427 15.7876 27.4126 15.7108C27.5824 15.6341 27.7657 15.5918 27.952 15.5865C28.1383 15.5812 28.3238 15.613 28.4977 15.68C28.6716 15.7471 28.8304 15.848 28.9649 15.9769C29.0995 16.1059 29.2071 16.2603 29.2814 16.4312C29.3557 16.6021 29.3954 16.786 29.398 16.9724C29.4006 17.1587 29.3662 17.3437 29.2966 17.5166C29.2271 17.6895 29.1239 17.8469 28.9931 17.9796L20.9461 26.3781C20.8166 26.5132 20.6614 26.6211 20.4897 26.6954C20.318 26.7698 20.1331 26.8091 19.946 26.8111H19.9319Z" fill="#3C83F6"/>
<path d="M21.8453 9.87391C25.0942 10.9555 28.4187 12.2135 31.3037 13.3308C31.5947 15.3742 31.7606 17.4334 31.8006 19.497C31.8474 22.6404 31.5949 24.3788 31.4771 25.0087C31.2463 25.7874 30.7617 26.644 30.0358 27.5562C29.1376 28.6841 27.9083 29.8612 26.382 31.0553H26.3785C24.9505 32.1721 23.4345 33.1714 21.8453 34.0435C20.2573 33.174 18.7427 32.1771 17.3162 31.0623L17.3121 31.0594C15.7887 29.8665 14.5583 28.69 13.6618 27.5627C12.9681 26.6908 12.4947 25.8682 12.2556 25.1165C12.248 25.0884 12.2398 25.0579 12.2316 25.0309C12.1525 24.7632 11.7629 23.2281 11.8179 19.2819C11.89 16.3963 12.1625 14.4687 12.391 13.3244C15.2702 12.2094 18.5917 10.9555 21.8453 9.87391ZM21.8453 7.00293C21.6661 7.00309 21.4881 7.03177 21.318 7.08789C17.9507 8.19234 14.4944 9.49072 10.9795 10.853C10.5146 11.0368 10.1206 11.3644 9.85513 11.7881C9.87446 11.7881 9.13211 14.1077 9.00614 19.2257C8.93114 24.3442 9.56862 25.8776 9.54752 25.8793C9.89204 27.0043 10.5377 28.1486 11.4635 29.3122C12.4976 30.6124 13.895 31.9541 15.5824 33.2742C18.3773 35.4672 20.9922 36.7779 21.1018 36.8242C21.3337 36.9395 21.5892 36.9997 21.8482 37C22.1076 36.9997 22.3635 36.9396 22.5958 36.8242C22.706 36.7779 25.3239 35.4626 28.1169 33.2701C29.8049 31.9494 31.2029 30.6077 32.2377 29.3081C33.229 28.0625 33.8993 26.8391 34.2233 25.6379C34.2104 25.6379 34.6792 23.7566 34.6141 19.4495C34.5688 16.941 34.3423 14.4391 33.9362 11.9633C33.6753 11.4601 33.2409 11.0686 32.7134 10.8612C29.1979 9.49717 25.741 8.19644 22.3708 7.08554C22.2007 7.02915 22.0227 7.00027 21.8435 7L21.8453 7.00293Z" fill="#3C83F6"/>
</svg>
