<svg width="44" height="44" viewBox="0 0 44 44" fill="none" xmlns="http://www.w3.org/2000/svg">
<path d="M36.9644 21.9533C36.8949 21.8123 36.8588 21.6572 36.8588 21.5C36.8588 21.3428 36.8949 21.1877 36.9644 21.0467L38.2698 18.3763C38.9966 16.8894 38.4207 15.1172 36.9588 14.3416L34.3331 12.9484C34.1941 12.8752 34.0737 12.7709 33.9813 12.6438C33.8889 12.5166 33.8269 12.3699 33.8002 12.215L33.2867 9.28725C33.0008 7.65718 31.4929 6.5618 29.8546 6.7936L26.9115 7.20991C26.7559 7.2324 26.5973 7.21883 26.4478 7.17024C26.2983 7.12166 26.1619 7.03936 26.0493 6.9297L23.913 4.86309C22.7235 3.71234 20.8601 3.71227 19.6706 4.86309L17.5343 6.92991C17.4216 7.03954 17.2853 7.12182 17.1358 7.1704C16.9863 7.21898 16.8277 7.23257 16.6721 7.21011L13.7291 6.79381C12.0902 6.56187 10.5828 7.65738 10.2969 9.28746L9.78339 12.2151C9.7567 12.37 9.69477 12.5167 9.60238 12.6439C9.50999 12.771 9.38961 12.8753 9.25054 12.9485L6.62488 14.3417C5.16297 15.1173 4.58711 16.8896 5.3139 18.3765L6.61921 21.0468C6.68869 21.1879 6.72483 21.343 6.72483 21.5002C6.72483 21.6574 6.68869 21.8125 6.61921 21.9535L5.31383 24.6238C4.58705 26.1107 5.1629 27.8829 6.62482 28.6586L9.25047 30.0517C9.38956 30.125 9.50995 30.2292 9.60236 30.3564C9.69476 30.4835 9.7567 30.6302 9.78339 30.7851L10.2969 33.7129C10.5572 35.1968 11.8296 36.2375 13.292 36.2374C13.4361 36.2374 13.5822 36.2272 13.7291 36.2065L16.6722 35.7902C16.8277 35.7676 16.9864 35.7812 17.1359 35.8298C17.2854 35.8784 17.4217 35.9607 17.5344 36.0704L19.6706 38.137C20.2655 38.7124 21.0285 39.0001 21.7918 39C22.5549 38.9999 23.3184 38.7123 23.913 38.137L26.0493 36.0704C26.2798 35.8474 26.594 35.7456 26.9115 35.7902L29.8546 36.2065C31.4937 36.4383 33.0008 35.3429 33.2867 33.7128L33.8003 30.7852C33.827 30.6303 33.8889 30.4836 33.9813 30.3564C34.0737 30.2292 34.1941 30.125 34.3331 30.0517L36.9588 28.6586C38.4207 27.883 38.9966 26.1106 38.2698 24.6238L36.9644 21.9533ZM36.0126 26.8753L33.387 28.2685C32.5499 28.7127 31.9757 29.5028 31.812 30.4363L31.2985 33.364C31.2532 33.6283 31.1065 33.8644 30.8895 34.022C30.6726 34.1796 30.4027 34.2463 30.1373 34.2077L27.1943 33.7913C26.2557 33.6584 25.327 33.9605 24.6458 34.6194L22.5094 36.6859C22.3174 36.8731 22.0599 36.9778 21.7918 36.9778C21.5236 36.9778 21.2661 36.8731 21.0741 36.6859L18.9378 34.6193C18.3621 34.0624 17.6095 33.7606 16.8238 33.7606C16.6798 33.7606 16.5347 33.7707 16.3894 33.7913L13.4463 34.2076C13.181 34.2461 12.9111 34.1795 12.6942 34.0219C12.4772 33.8643 12.3305 33.6282 12.2851 33.3639L11.7715 30.4362C11.6077 29.5027 11.0337 28.7125 10.1965 28.2684L7.57083 26.8752C7.33345 26.7505 7.15421 26.538 7.07134 26.2829C6.98847 26.0279 7.00853 25.7506 7.12725 25.5102L8.43263 22.8398C8.84879 21.9883 8.84879 21.0117 8.43263 20.1602L7.12725 17.4898C7.00853 17.2494 6.98847 16.9721 7.07134 16.717C7.15421 16.462 7.33345 16.2495 7.57083 16.1248L10.1965 14.7316C11.0336 14.2873 11.6077 13.4973 11.7715 12.5638L12.285 9.63609C12.3303 9.37179 12.477 9.13565 12.694 8.97803C12.9109 8.82041 13.1808 8.7538 13.4462 8.79241L16.3892 9.20871C17.3274 9.34153 18.2565 9.03959 18.9377 8.38068L21.074 6.31407C21.266 6.1269 21.5236 6.02214 21.7917 6.02214C22.0598 6.02214 22.3174 6.1269 22.5094 6.31407L24.6456 8.38068C25.3268 9.03966 26.2558 9.34153 27.1941 9.20871L30.1372 8.79241C30.4025 8.75384 30.6724 8.82046 30.8894 8.97807C31.1063 9.13568 31.2531 9.37181 31.2984 9.63609L31.8119 12.5638C31.9757 13.4973 32.5497 14.2875 33.3869 14.7316L36.0126 16.1248C36.25 16.2495 36.4292 16.462 36.5121 16.717C36.5949 16.9721 36.5749 17.2494 36.4562 17.4898L35.1508 20.1602C34.7346 21.0116 34.7346 21.9883 35.1508 22.8397L36.4562 25.51C36.5749 25.7505 36.595 26.0278 36.5121 26.2829C36.4293 26.538 36.25 26.7505 36.0126 26.8753Z" fill="#3C83F6" stroke="#3C83F6" stroke-width="0.5"/>
<path d="M29.1677 14.1269C28.7736 13.7328 28.1344 13.7328 27.7403 14.1269L14.4179 27.4493C14.0238 27.8435 14.0238 28.4826 14.4179 28.8767C14.5116 28.9706 14.6228 29.045 14.7453 29.0958C14.8677 29.1465 14.999 29.1725 15.1316 29.1724C15.3899 29.1724 15.6483 29.0739 15.8453 28.8767L29.1676 15.5544C29.5619 15.1602 29.5619 14.5212 29.1677 14.1269ZM17.7556 12.418C15.7149 12.418 14.0547 14.0782 14.0547 16.1188C14.0547 18.1595 15.7149 19.8197 17.7556 19.8197C19.7962 19.8197 21.4564 18.1595 21.4564 16.1188C21.4564 14.0782 19.7962 12.418 17.7556 12.418ZM17.7556 17.801C16.828 17.801 16.0734 17.0464 16.0734 16.1188C16.0734 15.1912 16.828 14.4366 17.7556 14.4366C18.6831 14.4366 19.4378 15.1912 19.4378 16.1188C19.4377 17.0464 18.6831 17.801 17.7556 17.801ZM25.8301 23.184C23.7894 23.184 22.1292 24.8443 22.1292 26.8849C22.1292 28.9255 23.7894 30.5858 25.8301 30.5858C27.8707 30.5858 29.5309 28.9255 29.5309 26.8849C29.5309 24.8443 27.8707 23.184 25.8301 23.184ZM25.8301 28.5671C24.9025 28.5671 24.1478 27.8125 24.1478 26.8849C24.1478 25.9573 24.9024 25.2027 25.8301 25.2027C26.7576 25.2027 27.5122 25.9573 27.5122 26.8849C27.5122 27.8125 26.7576 28.5671 25.8301 28.5671Z" fill="#3C83F6" stroke="#3C83F6" stroke-width="0.5"/>
</svg>
