<svg width="44" height="44" viewBox="0 0 44 44" fill="none" xmlns="http://www.w3.org/2000/svg">
<path fill-rule="evenodd" clip-rule="evenodd" d="M10.2523 26.4967C11.2472 26.4967 12.2014 26.8919 12.9049 27.5954C13.6085 28.2989 14.0037 29.2531 14.0037 30.248V35.2474C14.0037 36.2423 13.6085 37.1965 12.9049 37.9C12.2014 38.6035 11.2472 38.9988 10.2523 38.9988H7.75139C6.75646 38.9988 5.80228 38.6035 5.09876 37.9C4.39523 37.1965 4 36.2423 4 35.2474V30.2468C4.00033 29.2521 4.39571 28.2982 5.0992 27.595C5.80268 26.8917 6.75668 26.4967 7.75139 26.4967H10.2523ZM10.2523 28.9976H7.75139C7.41975 28.9976 7.10169 29.1293 6.86718 29.3638C6.63267 29.5983 6.50093 29.9164 6.50093 30.248V35.2474C6.50093 35.579 6.63267 35.8971 6.86718 36.1316C7.10169 36.3661 7.41975 36.4979 7.75139 36.4979H10.2523C10.584 36.4979 10.902 36.3661 11.1365 36.1316C11.371 35.8971 11.5028 35.579 11.5028 35.2474V30.2468C11.5028 29.9151 11.371 29.5971 11.1365 29.3626C10.902 29.1281 10.584 28.9963 10.2523 28.9963V28.9976ZM22.7569 20.2456C23.7519 20.2456 24.7061 20.6408 25.4096 21.3443C26.1131 22.0479 26.5083 23.002 26.5083 23.997V35.2486C26.508 36.2434 26.1126 37.1972 25.4091 37.9005C24.7056 38.6037 23.7517 38.9988 22.7569 38.9988H20.256C19.2611 38.9988 18.3069 38.6035 17.6034 37.9C16.8999 37.1965 16.5046 36.2423 16.5046 35.2474V23.997C16.5046 23.002 16.8999 22.0479 17.6034 21.3443C18.3069 20.6408 19.2611 20.2456 20.256 20.2456H22.7569ZM22.7569 22.7465H20.256C19.9244 22.7465 19.6063 22.8783 19.3718 23.1128C19.1373 23.3473 19.0056 23.6653 19.0056 23.997V35.2486C19.0056 35.5803 19.1373 35.8983 19.3718 36.1329C19.6063 36.3674 19.9244 36.4991 20.256 36.4991H22.7569C23.0886 36.4991 23.4066 36.3674 23.6412 36.1329C23.8757 35.8983 24.0074 35.5803 24.0074 35.2486V23.997C24.0074 23.6653 23.8757 23.3473 23.6412 23.1128C23.4066 22.8783 23.0886 22.7465 22.7569 22.7465ZM35.2616 14.0208C35.7542 14.0205 36.2421 14.1172 36.6973 14.3055C37.1525 14.4939 37.5661 14.7701 37.9145 15.1184C38.2629 15.4666 38.5392 15.8802 38.7277 16.3353C38.9162 16.7905 39.0131 17.2783 39.013 17.7709V35.2486C39.0133 35.7413 38.9165 36.2292 38.7281 36.6844C38.5396 37.1397 38.2633 37.5533 37.9149 37.9016C37.5664 38.2499 37.1527 38.5261 36.6975 38.7143C36.2422 38.9026 35.7542 38.9993 35.2616 38.9988H32.7606C32.2679 38.9991 31.78 38.9023 31.3247 38.7139C30.8694 38.5255 30.4557 38.2492 30.1073 37.9008C29.7589 37.5523 29.4826 37.1387 29.2941 36.6834C29.1057 36.2281 29.0089 35.7401 29.0093 35.2474V17.7709C29.0093 16.776 29.4045 15.8218 30.108 15.1183C30.8115 14.4148 31.7657 14.0195 32.7606 14.0195L35.2616 14.0208ZM35.2616 16.5217H32.7606C32.5964 16.5214 32.4338 16.5535 32.282 16.6161C32.1302 16.6787 31.9923 16.7707 31.8761 16.8868C31.76 17.0028 31.6679 17.1407 31.6051 17.2924C31.5423 17.4441 31.51 17.6067 31.5102 17.7709V35.2486C31.5099 35.4129 31.542 35.5757 31.6047 35.7276C31.6674 35.8794 31.7595 36.0174 31.8757 36.1336C31.9919 36.2498 32.1299 36.3419 32.2817 36.4046C32.4336 36.4673 32.5963 36.4994 32.7606 36.4991H35.2616C35.4259 36.4994 35.5886 36.4673 35.7405 36.4046C35.8924 36.3419 36.0303 36.2498 36.1465 36.1336C36.2627 36.0174 36.3548 35.8794 36.4175 35.7276C36.4802 35.5757 36.5124 35.4129 36.512 35.2486V17.7709C36.5125 17.6066 36.4805 17.4437 36.4179 17.2918C36.3552 17.1399 36.2631 17.0018 36.1469 16.8856C36.0307 16.7694 35.8926 16.6773 35.7407 16.6146C35.5888 16.552 35.4259 16.52 35.2616 16.5205V16.5217Z" fill="#3C83F6"/>
<path fill-rule="evenodd" clip-rule="evenodd" d="M35.2617 8.26408C27.9678 15.3129 16.9087 21.3364 5.40315 22.7482C5.08356 22.7696 4.7679 22.6678 4.52103 22.4637C4.27415 22.2596 4.11482 21.9687 4.07576 21.6508C4.0367 21.3329 4.12088 21.0121 4.31101 20.7543C4.50113 20.4965 4.78276 20.3214 5.09804 20.2648C16.0346 18.9243 26.5447 13.1984 33.4873 6.50093H31.5103C31.1787 6.50093 30.8606 6.36918 30.6261 6.13467C30.3916 5.90017 30.2599 5.58211 30.2599 5.25046C30.2599 4.91882 30.3916 4.60076 30.6261 4.36625C30.8606 4.13174 31.1787 4 31.5103 4H36.5122C36.8438 4 37.1619 4.13174 37.3964 4.36625C37.6309 4.60076 37.7626 4.91882 37.7626 5.25046V10.2523C37.7626 10.584 37.6309 10.902 37.3964 11.1365C37.1619 11.371 36.8438 11.5028 36.5122 11.5028C36.1805 11.5028 35.8625 11.371 35.628 11.1365C35.3934 10.902 35.2617 10.584 35.2617 10.2523V8.26408Z" fill="#3C83F6"/>
</svg>
