<svg width="44" height="44" viewBox="0 0 44 44" fill="none" xmlns="http://www.w3.org/2000/svg">
<path d="M34.2736 11.0906C34.2735 10.3376 33.6624 9.72707 32.9093 9.72707H11.0906C10.3377 9.72721 9.72722 10.3377 9.72707 11.0906V16.5455C9.72707 17.2985 10.3376 17.9089 11.0906 17.909H32.9093C33.6625 17.909 34.2736 17.2986 34.2736 16.5455V11.0906ZM37.0007 16.5455C37.0007 18.8049 35.1687 20.6368 32.9093 20.6368H11.0906C8.83132 20.6367 7 18.8048 7 16.5455V11.0906C7.00015 8.83141 8.83141 7.00015 11.0906 7H32.9093C35.1687 7 37.0005 8.83132 37.0007 11.0906V16.5455Z" fill="#A856F7"/>
<path d="M34.2736 27.4539C34.2735 26.7009 33.6624 26.0903 32.9093 26.0903H11.0906C10.3377 26.0905 9.72722 26.701 9.72707 27.4539V32.9088C9.72707 33.6618 10.3376 34.2721 11.0906 34.2723H32.9093C33.6625 34.2723 34.2736 33.6619 34.2736 32.9088V27.4539ZM37.0007 32.9088C37.0007 35.1682 35.1687 37.0001 32.9093 37.0001H11.0906C8.83132 36.9999 7 35.1681 7 32.9088V27.4539C7.00015 25.1947 8.83141 23.3634 11.0906 23.3633H32.9093C35.1687 23.3633 37.0005 25.1946 37.0007 27.4539V32.9088Z" fill="#A856F7"/>
<path d="M13.8319 12.4531L13.9715 12.4598C14.6592 12.5295 15.1962 13.1105 15.1962 13.8167C15.1962 14.5228 14.6592 15.1038 13.9715 15.1735L13.8319 15.1802H13.8186C13.0655 15.1802 12.4551 14.5698 12.4551 13.8167C12.4551 13.0635 13.0655 12.4531 13.8186 12.4531H13.8319Z" fill="#A856F7"/>
<path d="M13.8319 28.8164L13.9715 28.8231C14.6592 28.8928 15.1962 29.4738 15.1962 30.1799C15.1962 30.8861 14.6592 31.4671 13.9715 31.5368L13.8319 31.5435H13.8186C13.0655 31.5435 12.4551 30.9331 12.4551 30.1799C12.4551 29.4268 13.0655 28.8164 13.8186 28.8164H13.8319Z" fill="#A856F7"/>
</svg>
