<svg width="44" height="44" viewBox="0 0 44 44" fill="none" xmlns="http://www.w3.org/2000/svg">
<path d="M36.9478 12.3738C37.6024 11.8396 38.5683 11.8781 39.1786 12.4885C39.8293 13.1393 39.8293 14.1938 39.1786 14.8447L25.0122 29.012C24.402 29.6221 23.4361 29.6604 22.7814 29.1266L22.655 29.012L15.4996 21.8566L5.84441 31.5118L5.71802 31.6264C5.06341 32.1603 4.09834 32.1219 3.48816 31.5118C2.83728 30.8609 2.83728 29.8055 3.48816 29.1546L14.3215 18.3213L14.4479 18.2066C15.1025 17.6729 16.0685 17.7112 16.6786 18.3213L23.8332 25.4758L36.8214 12.4885L36.9478 12.3738Z" fill="#A856F7"/>
<path d="M36.3321 23.6666V15.3331H27.9986C27.0781 15.3331 26.332 14.587 26.332 13.6665C26.332 12.746 27.0781 12 27.9986 12H37.9986L38.1692 12.0081C39.0097 12.0935 39.6652 12.8036 39.6652 13.6665V23.6666C39.6652 24.5871 38.9191 25.3331 37.9986 25.3331C37.0782 25.3331 36.3321 24.587 36.3321 23.6666Z" fill="#A856F7"/>
</svg>
