<svg width="44" height="44" viewBox="0 0 44 44" fill="none" xmlns="http://www.w3.org/2000/svg">
<path d="M8 35C8 36.1046 8.89543 37 10 37H13.9644C15.069 37 15.9644 36.1046 15.9644 35V29.1121C15.9644 28.0075 15.069 27.1121 13.9644 27.1121H10C8.89543 27.1121 8 28.0075 8 29.1121V35ZM9.81463 30.9267C9.81463 29.8222 10.7101 28.9267 11.8146 28.9267H12.1498C13.2543 28.9267 14.1498 29.8222 14.1498 30.9267V33.1854C14.1498 34.2899 13.2543 35.1854 12.1498 35.1854H11.8146C10.7101 35.1854 9.81463 34.2899 9.81463 33.1854V30.9267ZM30.0619 15.8294C28.9573 15.8294 28.0619 16.7248 28.0619 17.8294V35C28.0619 36.1046 28.9573 37 30.0619 37H34.0263C35.1309 37 36.0263 36.1046 36.0263 35V17.8294C36.0263 16.7248 35.1309 15.8294 34.0263 15.8294H30.0619ZM34.2117 33.1854C34.2117 34.2899 33.3162 35.1854 32.2117 35.1854H31.8765C30.772 35.1854 29.8765 34.2899 29.8765 33.1854V19.644C29.8765 18.5394 30.772 17.644 31.8765 17.644H32.2117C33.3162 17.644 34.2117 18.5394 34.2117 19.644V33.1854ZM18.0313 35C18.0313 36.1046 18.9267 37 20.0313 37H23.995C25.0996 37 25.995 36.1046 25.995 35V23.2097C25.995 22.1052 25.0996 21.2097 23.995 21.2097H20.0313C18.9267 21.2097 18.0313 22.1052 18.0313 23.2097V35ZM19.8459 25.0244C19.8459 23.9198 20.7413 23.0244 21.8459 23.0244H22.1804C23.285 23.0244 24.1804 23.9198 24.1804 25.0244V33.1854C24.1804 34.2899 23.285 35.1854 22.1804 35.1854H21.8459C20.7413 35.1854 19.8459 34.2899 19.8459 33.1854V25.0244ZM9.46208 23.8441C9.74433 24.2583 10.3089 24.3653 10.7231 24.0831L29.6185 11.212C30.2633 10.7728 31.1365 11.2346 31.1365 12.0147V12.0785C31.1365 12.5796 31.5427 12.9858 32.0438 12.9858V12.9858C32.5449 12.9858 32.9511 12.5796 32.9511 12.0785V9C32.9511 7.89543 32.0557 7 30.9511 7H27.8732C27.3721 7 26.9659 7.40622 26.9659 7.90731V8.12002C26.9659 8.50364 27.2768 8.81463 27.6605 8.81463V8.81463C28.3441 8.81463 28.6165 9.69842 28.0515 10.0833L9.70116 22.5828C9.28681 22.8651 9.17976 23.4298 9.46208 23.8441V23.8441Z" fill="#A856F7" stroke="#A856F7" stroke-width="0.5"/>
</svg>
