<svg width="58" height="67" viewBox="0 0 58 67" fill="none" xmlns="http://www.w3.org/2000/svg">
<path d="M28.3193 6.74886V1.80913C28.3193 1.36276 28.6821 1 29.1285 1C29.5748 1 29.9376 1.36276 29.9376 1.80913V6.74886C29.9376 7.19523 29.5748 7.55799 29.1285 7.55799C28.6821 7.55799 28.3193 7.19523 28.3193 6.74886ZM41.0024 43.6694C38.954 46.059 37.1833 48.1264 36.7666 50.9516V60.4629C36.7666 61.5983 35.8011 66 33.6515 66H24.7295C22.5799 66 21.6144 61.4406 21.6144 60.2646V51.3116C21.5577 51.2186 21.5159 51.1147 21.4997 51.0015C21.0965 48.1506 19.3164 46.0739 17.2559 43.6694C14.2688 40.1848 10.884 36.2349 11.0525 28.8839C11.0566 18.9209 19.164 10.8174 29.1285 10.8174C39.0929 10.8174 47.2004 18.9209 47.2044 28.8853C47.3743 36.2349 43.9895 40.1848 41.0024 43.6694ZM35.147 59.4555V56.3336H23.2313V59.4555H35.147ZM35.147 54.7154V51.6973H23.2313V54.7154H35.147ZM35.0823 61.0738H23.3176C23.5657 62.4223 24.2912 64.1956 24.7497 64.3817H33.6353C33.7769 64.3305 34.1828 63.8976 34.5901 62.8404C34.8328 62.216 34.9987 61.57 35.0823 61.0738ZM45.5875 28.9136V28.8947C45.5875 19.819 38.2042 12.4357 29.1298 12.4357C20.0554 12.4357 12.6708 19.819 12.6708 28.8947V28.9136C12.513 35.6496 15.5486 39.1922 18.4844 42.6175C20.4654 44.9289 22.3439 47.1217 22.9791 50.0804H35.2805C35.9144 47.1217 37.7942 44.9289 39.7753 42.6175C42.7097 39.1909 45.7453 35.6496 45.5875 28.9136ZM17.1277 10.1809C17.2774 10.4398 17.5498 10.5855 17.829 10.5855C17.9665 10.5855 18.1054 10.5504 18.2322 10.4776C18.4179 10.3701 18.5535 10.1933 18.6091 9.98601C18.6647 9.77872 18.6359 9.55784 18.5289 9.37179L16.0597 5.09419C15.9522 4.90845 15.7754 4.77291 15.5681 4.7173C15.3608 4.66168 15.1399 4.69053 14.9539 4.79751C14.7681 4.90503 14.6326 5.08181 14.577 5.2891C14.5214 5.49638 14.5502 5.71727 14.6572 5.90332L17.1277 10.1809ZM9.96156 17.3484L5.68397 14.8793C5.29693 14.6554 4.80201 14.7889 4.57816 15.1759C4.3543 15.563 4.4878 16.0579 4.87484 16.2817L9.15243 18.7509C9.27919 18.8251 9.41944 18.8588 9.55565 18.8588C9.8348 18.8588 10.1072 18.7132 10.2569 18.4543C10.4807 18.0659 10.3472 17.571 9.96156 17.3484ZM7.33729 29.3492C7.33729 28.9028 6.97453 28.54 6.52816 28.54H1.58843C1.14206 28.54 0.779297 28.9028 0.779297 29.3492C0.779297 29.7955 1.14206 30.1583 1.58843 30.1583H6.52816C6.97587 30.1583 7.33729 29.7955 7.33729 29.3492ZM9.15243 39.9474L4.87484 42.4166C4.68909 42.5241 4.55356 42.7009 4.49794 42.9082C4.44233 43.1155 4.47117 43.3364 4.57816 43.5224C4.72784 43.7813 5.00025 43.927 5.2794 43.927C5.41695 43.927 5.55585 43.8919 5.68262 43.8191L9.96021 41.3499C10.146 41.2424 10.2815 41.0656 10.3371 40.8583C10.3927 40.651 10.3639 40.4301 10.2569 40.2441C10.033 39.8571 9.53812 39.7249 9.15243 39.9474ZM53.3834 42.4179L49.1059 39.9488C48.7188 39.7249 48.2239 39.8584 48 40.2454C47.7762 40.6325 47.9097 41.1274 48.2967 41.3512L52.5743 43.8204C52.7011 43.8946 52.8413 43.9283 52.9775 43.9283C53.2567 43.9283 53.5291 43.7827 53.6788 43.5238C53.9026 43.1354 53.7705 42.6418 53.3834 42.4179ZM56.6685 28.54H51.7288C51.2824 28.54 50.9197 28.9028 50.9197 29.3492C50.9197 29.7955 51.2824 30.1583 51.7288 30.1583H56.6685C57.1149 30.1583 57.4776 29.7955 57.4776 29.3492C57.4776 28.9028 57.1149 28.54 56.6685 28.54ZM48.7013 18.8575C48.8388 18.8575 48.9777 18.8224 49.1045 18.7496L53.3821 16.2804C53.5678 16.1729 53.7034 15.9961 53.759 15.7888C53.8146 15.5815 53.7858 15.3606 53.6788 15.1746C53.5713 14.9888 53.3945 14.8533 53.1872 14.7977C52.9799 14.7421 52.759 14.7709 52.573 14.8779L48.2954 17.3471C48.1096 17.4546 47.9741 17.6314 47.9185 17.8387C47.8629 18.046 47.8917 18.2669 47.9987 18.4529C48.1497 18.7132 48.4221 18.8575 48.7013 18.8575ZM40.0234 10.4776C40.1502 10.5518 40.2904 10.5855 40.4266 10.5855C40.7057 10.5855 40.9782 10.4398 41.1278 10.1809L43.597 5.90332C43.8209 5.51629 43.6874 5.02137 43.3004 4.79751C42.9133 4.57365 42.4184 4.70716 42.1945 5.09419L39.7281 9.37179C39.6748 9.46378 39.6402 9.56536 39.6262 9.67073C39.6123 9.7761 39.6192 9.88319 39.6466 9.98588C39.674 10.0886 39.7214 10.1848 39.7861 10.2692C39.8507 10.3536 39.9314 10.4244 40.0234 10.4776ZM42.0476 27.9521V30.7368C42.0476 31.639 41.3139 32.3726 40.4104 32.3726H38.4024L38.3849 32.3848C38.2317 32.8489 38.0442 33.301 37.8239 33.7373L37.8266 33.7589L39.2466 35.1789C39.8845 35.8168 39.8845 36.8552 39.2466 37.493L37.2777 39.4619C36.9689 39.7707 36.5576 39.9407 36.1207 39.9407C35.6838 39.9407 35.2724 39.7707 34.9636 39.4619L33.5436 38.0419L33.522 38.0392C33.0859 38.2609 32.6332 38.4484 32.1681 38.6002L32.156 38.6177V40.6257C32.156 41.5279 31.4223 42.2615 30.5202 42.2615H27.7354C26.8332 42.2615 26.0996 41.5279 26.0996 40.6257V38.6177L26.0875 38.6002C25.6229 38.447 25.1703 38.2595 24.7336 38.0392L24.712 38.0419L23.292 39.4619C22.9831 39.7707 22.5718 39.9407 22.1349 39.9407C21.698 39.9407 21.2867 39.7707 20.9778 39.4619L19.009 37.493C18.7001 37.1842 18.5302 36.7729 18.5302 36.336C18.5302 35.8991 18.7001 35.4878 19.009 35.1789L20.429 33.7589L20.4317 33.7373C20.2103 33.3011 20.0227 32.8484 19.8707 32.3834L19.8532 32.3713H17.8452C16.943 32.3713 16.208 31.6377 16.208 30.7355V27.9507C16.208 27.0485 16.9416 26.3136 17.8452 26.3136H19.8532L20.6394 26.5536L19.8707 26.3015C20.0231 25.8389 20.2119 25.3831 20.4317 24.9475L21.0008 24.3541L20.429 24.9259L19.009 23.5059C18.7001 23.1971 18.5302 22.7858 18.5302 22.3489C18.5302 21.9119 18.7001 21.5006 19.009 21.1918L20.9778 19.2229C21.2867 18.9141 21.698 18.7442 22.1349 18.7442C22.5718 18.7442 22.9831 18.9141 23.292 19.2229L24.712 20.6429L24.7336 20.6456C25.1698 20.4242 25.6225 20.2367 26.0875 20.0846L26.0996 20.0671V18.0591C26.0996 17.157 26.8332 16.422 27.7354 16.422H30.5202C31.4223 16.422 32.156 17.1556 32.156 18.0591V20.0671L31.9159 20.8533L32.1681 20.0846C32.6306 20.237 33.0865 20.4258 33.522 20.6456L33.5436 20.6429L34.9636 19.2229C35.2724 18.9141 35.6838 18.7442 36.1207 18.7442C36.5576 18.7442 36.9689 18.9141 37.2777 19.2229L39.2466 21.1918C39.5554 21.5006 39.7254 21.9119 39.7254 22.3489C39.7254 22.7858 39.5554 23.1971 39.2466 23.5059L37.8266 24.9259L37.8239 24.9475C38.0453 25.3838 38.2329 25.8364 38.3849 26.3015L38.4024 26.3136H40.4104C41.3126 26.3163 42.0476 27.0499 42.0476 27.9521ZM40.4293 27.9521C40.429 27.9472 40.4269 27.9426 40.4234 27.9391C40.4199 27.9356 40.4153 27.9335 40.4104 27.9332H38.4024C37.6931 27.9332 37.0687 27.4814 36.8476 26.8072C36.7208 26.4215 36.563 26.0425 36.3796 25.6798C36.223 25.3724 36.1679 25.0233 36.2222 24.6826C36.2764 24.3419 36.4373 24.0272 36.6817 23.7837L38.1017 22.3637C38.1071 22.3583 38.1084 22.3435 38.1017 22.3381L36.1328 20.3692C36.1274 20.3638 36.1126 20.3638 36.1072 20.3692L34.6872 21.7892C34.4434 22.0336 34.1285 22.1945 33.7876 22.2488C33.4467 22.3031 33.0974 22.2479 32.7898 22.0913C32.427 21.9079 32.0481 21.7501 31.6624 21.6233C31.3346 21.5162 31.0491 21.3081 30.8469 21.0288C30.6446 20.7495 30.5359 20.4133 30.5364 20.0685V18.0605C30.5364 18.0524 30.5269 18.0416 30.5188 18.0416H27.7341C27.7246 18.0416 27.7165 18.051 27.7165 18.0605V20.0685C27.7165 20.7765 27.2648 21.4022 26.5905 21.6233C26.2048 21.7501 25.8259 21.9065 25.4631 22.0913C25.1557 22.2479 24.8066 22.303 24.4659 22.2487C24.1253 22.1944 23.8106 22.0336 23.5671 21.7892L22.147 20.3692C22.1416 20.3638 22.1268 20.3624 22.1214 20.3692L20.1525 22.3381C20.1458 22.3448 20.1471 22.3583 20.1525 22.3637L21.5726 23.7837C22.0742 24.2854 22.1956 25.0473 21.8746 25.6798C21.6912 26.0425 21.5334 26.4215 21.4067 26.8072C21.2995 27.1349 21.0914 27.4204 20.8121 27.6227C20.5328 27.8249 20.1967 27.9336 19.8518 27.9332H17.8438C17.8389 27.9335 17.8343 27.9356 17.8308 27.9391C17.8273 27.9426 17.8253 27.9472 17.8249 27.9521V30.7368C17.8249 30.7463 17.8344 30.7544 17.8438 30.7544H19.8518C20.5598 30.7544 21.1855 31.2061 21.4067 31.8804C21.5334 32.2661 21.6899 32.645 21.8746 33.0078C22.0313 33.3152 22.0864 33.6645 22.0318 34.0052C21.9773 34.346 21.816 34.6606 21.5712 34.9038L20.1512 36.3239C20.1458 36.3293 20.1444 36.3441 20.1512 36.3495L22.1201 38.3184C22.1268 38.3251 22.1403 38.3251 22.1457 38.3184L23.5657 36.8983C23.8092 36.6539 24.1239 36.493 24.4646 36.4387C24.8053 36.3844 25.1544 36.4396 25.4618 36.5963C25.8245 36.7797 26.2035 36.9375 26.5892 37.0642C27.2621 37.2854 27.7152 37.9098 27.7152 38.6191V40.6271C27.7152 40.6365 27.7246 40.6446 27.7327 40.6446H30.5175C30.5256 40.6446 30.535 40.6352 30.535 40.6271V38.6191C30.535 37.9098 30.9868 37.2854 31.661 37.0642C32.0467 36.9375 32.4257 36.7797 32.7884 36.5963C33.0958 36.4397 33.4449 36.3846 33.7856 36.4388C34.1263 36.4931 34.441 36.654 34.6845 36.8983L36.1045 38.3184C36.1099 38.3251 36.1247 38.3251 36.1301 38.3184L38.099 36.3495C38.1022 36.346 38.104 36.3414 38.104 36.3367C38.104 36.3319 38.1022 36.3274 38.099 36.3239L36.679 34.9038C36.4346 34.6601 36.2737 34.3452 36.2194 34.0043C36.1651 33.6634 36.2203 33.314 36.3769 33.0064C36.5603 32.6437 36.7181 32.2647 36.8449 31.879C37.066 31.2061 37.6904 30.753 38.3997 30.753H40.4077C40.4172 30.753 40.4266 30.7436 40.4266 30.7355V27.9521H40.4293ZM34.8962 29.3451C34.8962 32.5264 32.3083 35.1129 29.1285 35.1129C25.9486 35.1129 23.3607 32.525 23.3607 29.3451C23.3607 26.1653 25.9486 23.5774 29.1285 23.5774C32.3083 23.5774 34.8962 26.1639 34.8962 29.3451ZM33.278 29.3451C33.278 27.0566 31.4156 25.1956 29.1285 25.1956C26.8413 25.1956 24.979 27.058 24.979 29.3451C24.979 31.6323 26.8413 33.4946 29.1285 33.4946C31.4156 33.4946 33.278 31.6323 33.278 29.3451Z" fill="#3C83F6" stroke="#3C83F6" stroke-width="0.7"/>
</svg>
