<svg width="44" height="44" viewBox="0 0 44 44" fill="none" xmlns="http://www.w3.org/2000/svg">
<path d="M35.2463 25.4057C35.2462 23.9554 34.6701 22.5649 33.6447 21.5394C32.6832 20.5779 31.4007 20.0114 30.0489 19.9444L29.7776 19.937H26.981C26.2901 19.937 25.6816 19.4833 25.4842 18.8212C24.9874 17.1552 24.037 15.6601 22.7395 14.503C21.442 13.3459 19.8478 12.5723 18.136 12.2688C16.4243 11.9654 14.6619 12.1438 13.0458 12.7843C11.4298 13.4248 10.0233 14.5023 8.98414 15.8959C7.94498 17.2897 7.31324 18.9458 7.1607 20.6776C7.00824 22.4093 7.34038 24.1495 8.11984 25.7034C8.89936 27.2574 10.096 28.564 11.5754 29.4773C13.0547 30.3904 14.7588 30.8739 16.4973 30.8743H29.7776C31.228 30.8743 32.6191 30.2983 33.6447 29.2728C34.6703 28.2472 35.2463 26.8561 35.2463 25.4057ZM38.3719 25.4057C38.3719 27.6848 37.4665 29.8714 35.8549 31.483C34.2433 33.0946 32.0568 34 29.7776 34H16.4964C14.1784 33.9994 11.9059 33.3538 9.93338 32.1362C7.96103 30.9185 6.36585 29.1765 5.32654 27.1046C4.28719 25.0326 3.84485 22.7121 4.04824 20.403C4.25164 18.094 5.09321 15.8871 6.47867 14.0288C7.86413 12.1705 9.73892 10.7338 11.8937 9.87964C14.0487 9.02554 16.3995 8.78721 18.6819 9.19183C20.9643 9.59649 23.0895 10.6279 24.8194 12.1707C26.2541 13.4501 27.3691 15.04 28.0861 16.8122H29.7776L30.204 16.8229C32.3281 16.9282 34.344 17.8183 35.8549 19.3292C37.4664 20.9407 38.3718 23.1267 38.3719 25.4057Z" fill="#A856F7"/>
</svg>
