<svg width="45" height="44" viewBox="0 0 45 44" fill="none" xmlns="http://www.w3.org/2000/svg">
<path d="M29.8679 7.00031C32.026 7.01921 34.0908 7.88583 35.6169 9.41189C37.1427 10.938 38.0083 13.0028 38.0271 15.1608C38.0445 17.1843 37.3162 19.1383 35.9893 20.6539L35.7173 20.9499L31.5842 25.0831C30.7497 25.9178 29.7452 26.5637 28.6394 26.9762C27.5336 27.3886 26.3519 27.5576 25.1747 27.4733C23.9974 27.3889 22.8518 27.0531 21.8159 26.4872C20.9097 25.992 20.1063 25.331 19.4459 24.5405L19.1712 24.1935L19.0935 24.077C18.7354 23.4809 18.8798 22.6991 19.4486 22.2736C20.0174 21.8484 20.8081 21.9306 21.2787 22.4424L21.3685 22.551L21.5507 22.7814C21.991 23.3086 22.5272 23.7494 23.1316 24.0796C23.822 24.4568 24.5856 24.6812 25.3703 24.7375C26.155 24.7937 26.943 24.6801 27.6801 24.4052C28.4174 24.1302 29.0879 23.6997 29.6442 23.1431L33.7425 19.0448C34.7421 18.0098 35.2958 16.6224 35.2833 15.1836C35.2706 13.7452 34.6939 12.3691 33.6769 11.3519C32.6595 10.3345 31.2826 9.75672 29.8438 9.74415C28.405 9.73165 27.0189 10.2853 25.9839 11.2849L25.9826 11.2835L23.638 13.6161C23.1007 14.1503 22.2322 14.148 21.698 13.6107C21.1639 13.0734 21.1661 12.2049 21.7034 11.6707L24.0627 9.3248L24.0775 9.3114C25.6299 7.81197 27.7096 6.98156 29.8679 7.00031Z" fill="#A856F7"/>
<path d="M20.8527 16.525C22.0299 16.6093 23.1757 16.9452 24.2115 17.5111C25.2473 18.077 26.1492 18.8596 26.8562 19.8047C27.3099 20.4113 27.1865 21.2707 26.5802 21.7246C25.9735 22.1784 25.1128 22.0552 24.6589 21.4486C24.1876 20.8185 23.5864 20.2959 22.8958 19.9186C22.2054 19.5415 21.4418 19.317 20.6571 19.2608C19.8723 19.2046 19.0845 19.3182 18.3473 19.5931C17.7021 19.8337 17.1085 20.1938 16.5976 20.6528L16.3832 20.8551L12.2835 24.9535L12.2849 24.9548C11.2853 25.9898 10.7316 27.3758 10.7441 28.8147C10.7567 30.2534 11.3345 31.6303 12.3519 32.6477C13.3691 33.6647 14.7452 34.2415 16.1836 34.2541C17.6224 34.2666 19.0098 33.713 20.0448 32.7134L22.3733 30.3849C22.9091 29.8491 23.7775 29.8491 24.3133 30.3849C24.849 30.9206 24.849 31.7891 24.3133 32.3248L21.9499 34.6882C20.3976 36.1872 18.3187 37.0166 16.1608 36.9979C14.0028 36.9792 11.938 36.1136 10.4119 34.5877C8.88583 33.0616 8.01921 30.9968 8.00031 28.8388C7.98156 26.6805 8.81197 24.6008 10.3114 23.0483L10.3275 23.0309L14.4432 18.9151L14.7634 18.611C15.5298 17.9225 16.4203 17.383 17.388 17.022C18.4938 16.6096 19.6755 16.4407 20.8527 16.525Z" fill="#A856F7"/>
</svg>
