<svg width="44" height="44" viewBox="0 0 44 44" fill="none" xmlns="http://www.w3.org/2000/svg">
<path d="M14.4439 19.2539C14.4439 19.4013 14.5024 19.5427 14.6067 19.647C14.7109 19.7512 14.8523 19.8098 14.9998 19.8098H18.2528C18.4002 19.8098 18.5416 19.7512 18.6459 19.647C18.7501 19.5427 18.8087 19.4013 18.8087 19.2539V16.5067C19.5358 16.3756 20.1938 15.9931 20.6677 15.4262C21.1416 14.8592 21.4012 14.1438 21.4012 13.4049C21.4012 12.666 21.1416 11.9506 20.6677 11.3836C20.1938 10.8166 19.5358 10.4342 18.8087 10.3031V7.55588C18.8087 7.40845 18.7501 7.26706 18.6459 7.16281C18.5416 7.05857 18.4002 7 18.2528 7H8.44644C7.79779 7.00059 7.17587 7.25853 6.7172 7.7172C6.25853 8.17587 6.00059 8.79779 6 9.44644V19.2539C6 19.4013 6.05857 19.5427 6.16281 19.647C6.26706 19.7512 6.40845 19.8098 6.55588 19.8098H9.80947C9.9569 19.8098 10.0983 19.7512 10.2025 19.647C10.3068 19.5427 10.3654 19.4013 10.3654 19.2539C10.3742 18.7189 10.5929 18.2088 10.9744 17.8335C11.3559 17.4583 11.8695 17.248 12.4046 17.248C12.9397 17.248 13.4534 17.4583 13.8348 17.8335C14.2163 18.2088 14.435 18.7189 14.4439 19.2539ZM9.30195 18.698H7.11177V9.44644C7.11235 9.09279 7.2531 8.7538 7.50317 8.50373C7.75324 8.25366 8.09224 8.11291 8.44589 8.11232H17.6969V10.8095C17.6969 10.9569 17.7555 11.0983 17.8597 11.2025C17.964 11.3068 18.1054 11.3654 18.2528 11.3654C18.7878 11.3742 19.2979 11.5929 19.6731 11.9744C20.0484 12.3559 20.2587 12.8695 20.2587 13.4046C20.2587 13.9397 20.0484 14.4534 19.6731 14.8348C19.2979 15.2163 18.7878 15.435 18.2528 15.4439C18.1054 15.4439 17.964 15.5024 17.8597 15.6067C17.7555 15.7109 17.6969 15.8523 17.6969 15.9998V18.698H15.5067C15.3709 17.9746 14.9865 17.3214 14.4201 16.8514C13.8536 16.3814 13.1407 16.1241 12.4046 16.1241C11.6685 16.1241 10.9556 16.3814 10.3892 16.8514C9.82271 17.3214 9.43832 17.9746 9.3025 18.698H9.30195Z" fill="#A856F7" stroke="#A856F7" stroke-width="0.8"/>
<path d="M34.6838 12.8477H24.8764C24.729 12.8477 24.5876 12.9062 24.4833 13.0105C24.3791 13.1147 24.3205 13.2561 24.3205 13.4035V16.6571C24.3205 16.8046 24.3791 16.9459 24.4833 17.0502C24.5876 17.1544 24.729 17.213 24.8764 17.213C25.4114 17.2218 25.9215 17.4406 26.2967 17.8221C26.672 18.2035 26.8823 18.7172 26.8823 19.2523C26.8823 19.7874 26.672 20.301 26.2967 20.6825C25.9215 21.064 25.4114 21.2827 24.8764 21.2915C24.729 21.2915 24.5876 21.3501 24.4833 21.4543C24.3791 21.5586 24.3205 21.7 24.3205 21.8474V24.1899H22.1292C21.9981 23.4627 21.6156 22.8047 21.0487 22.3309C20.4817 21.857 19.7663 21.5974 19.0274 21.5974C18.2885 21.5974 17.573 21.857 17.0061 22.3309C16.4391 22.8047 16.0567 23.4627 15.9256 24.1899H13.1789C13.0315 24.1899 12.8901 24.2485 12.7859 24.3527C12.6816 24.457 12.623 24.5984 12.623 24.7458V34.5532C12.6238 35.2017 12.8817 35.8234 13.3402 36.2819C13.7988 36.7405 14.4205 36.9984 15.0689 36.9991H34.6838C35.3324 36.9985 35.9542 36.7407 36.4129 36.2821C36.8715 35.8236 37.1295 35.2018 37.1303 34.5532V15.2935C37.1295 14.6451 36.8716 14.0234 36.4131 13.5649C35.9546 13.1063 35.3329 12.8484 34.6844 12.8477H34.6838ZM28.0271 19.2531C28.0263 18.514 27.7661 17.7986 27.2919 17.2317C26.8177 16.6647 26.1596 16.2822 25.4323 16.1507V13.9605H34.6827C35.0365 13.961 35.3756 14.1017 35.6258 14.3517C35.876 14.6018 36.0168 14.9409 36.0174 15.2947V24.1893H33.3197C33.1723 24.1893 33.0309 24.2479 32.9266 24.3522C32.8224 24.4564 32.7638 24.5978 32.7638 24.7452C32.755 25.2802 32.5362 25.7904 32.1548 26.1656C31.7733 26.5408 31.2596 26.7511 30.7246 26.7511C30.1895 26.7511 29.6758 26.5408 29.2943 26.1656C28.9129 25.7904 28.6941 25.2802 28.6853 24.7452C28.6853 24.5978 28.6267 24.4564 28.5225 24.3522C28.4182 24.2479 28.2768 24.1893 28.1294 24.1893H25.4323V22.3549C26.1595 22.2235 26.8175 21.841 27.2917 21.2742C27.7659 20.7074 28.0262 19.9921 28.0271 19.2531ZM13.7354 34.5532V25.3017H16.4331C16.5805 25.3017 16.7219 25.2431 16.8261 25.1389C16.9304 25.0346 16.989 24.8932 16.989 24.7458C16.989 24.205 17.2038 23.6864 17.5862 23.304C17.9685 22.9216 18.4872 22.7068 19.0279 22.7068C19.5687 22.7068 20.0873 22.9216 20.4697 23.304C20.8521 23.6864 21.0669 24.205 21.0669 24.7458C21.0669 24.8932 21.1255 25.0346 21.2297 25.1389C21.334 25.2431 21.4754 25.3017 21.6228 25.3017H24.3205V27.493C23.5933 27.6241 22.9353 28.0065 22.4615 28.5735C21.9876 29.1405 21.728 29.8559 21.728 30.5948C21.728 31.3337 21.9876 32.0491 22.4615 32.6161C22.9353 33.183 23.5933 33.5655 24.3205 33.6966V35.8874H15.0695C14.7158 35.8868 14.3768 35.746 14.1268 35.496C13.8767 35.2459 13.736 34.9069 13.7354 34.5532ZM34.6833 35.8874H25.4328V33.1902C25.4328 33.0428 25.3743 32.9014 25.27 32.7971C25.1658 32.6929 25.0244 32.6343 24.8769 32.6343C24.3361 32.6343 23.8174 32.4195 23.435 32.037C23.0525 31.6546 22.8377 31.1359 22.8377 30.5951C22.8377 30.0542 23.0525 29.5355 23.435 29.1531C23.8174 28.7707 24.3361 28.5558 24.8769 28.5558C25.0244 28.5558 25.1658 28.4972 25.27 28.393C25.3743 28.2887 25.4328 28.1474 25.4328 27.9999V25.6563H27.623C27.7538 26.3838 28.1362 27.0422 28.7032 27.5164C29.2703 27.9906 29.9859 28.2504 30.7251 28.2504C31.4643 28.2504 32.18 27.9906 32.747 27.5164C33.3141 27.0422 33.6964 26.3838 33.8272 25.6563H36.018V34.5532C36.0174 34.9069 35.8766 35.2459 35.6266 35.496C35.3765 35.746 35.0369 35.8868 34.6833 35.8874Z" fill="#A856F7" stroke="#A856F7" stroke-width="0.8"/>
</svg>
