<svg width="45" height="44" viewBox="0 0 45 44" fill="none" xmlns="http://www.w3.org/2000/svg">
<path d="M26.9999 35.5V32.5002C26.9999 31.3067 26.526 30.1616 25.682 29.3176C24.891 28.5267 23.8357 28.0607 22.7237 28.0054L22.5003 27.9998H13.5002C12.3067 27.9998 11.1616 28.4737 10.3176 29.3176C9.4737 30.1616 8.99976 31.3067 8.99976 32.5002V35.5C8.99976 36.3284 8.32832 36.9998 7.49988 36.9998C6.67143 36.9998 6 36.3284 6 35.5V32.5002C6 30.511 6.78964 28.6027 8.19619 27.1962C9.60274 25.7896 11.511 25 13.5002 25H22.5003L22.8724 25.0089C24.7259 25.101 26.4849 25.8778 27.8035 27.1962C29.21 28.6027 30.0005 30.511 30.0005 32.5002V35.5C30.0005 36.3283 29.3289 36.9997 28.5006 36.9998C27.6722 36.9998 26.9999 36.3284 26.9999 35.5Z" fill="#A856F7"/>
<path d="M31.4943 14.4993C31.4943 13.5026 31.1635 12.5341 30.5535 11.7458C29.9815 11.0067 29.1949 10.4648 28.3036 10.1939L28.1241 10.1435L27.977 10.098C27.2643 9.83382 26.8536 9.06709 27.0483 8.31539C27.2432 7.56362 27.9747 7.09337 28.7262 7.20876L28.8765 7.23964L29.1763 7.32414C30.6615 7.77569 31.9728 8.67782 32.926 9.90952C33.9427 11.2234 34.4948 12.838 34.4949 14.4993C34.4949 16.1608 33.9428 17.776 32.926 19.09C31.9728 20.3217 30.6615 21.2238 29.1763 21.6754L28.8765 21.7599C28.0746 21.9676 27.2562 21.486 27.0483 20.6841C26.8405 19.8822 27.3222 19.0639 28.1241 18.856L28.3036 18.8056C29.1949 18.5347 29.9815 17.9928 30.5535 17.2537C31.1636 16.4653 31.4943 15.4962 31.4943 14.4993Z" fill="#A856F7"/>
<path d="M36.0005 35.5011V32.5022L35.9964 32.3153C35.957 31.3846 35.6298 30.4873 35.0572 29.7486C34.4846 29.0099 33.6972 28.4693 32.8057 28.1992L32.6253 28.1488L32.4791 28.1025C31.766 27.839 31.3538 27.0726 31.548 26.3207C31.7422 25.5689 32.4736 25.0979 33.225 25.2124L33.3761 25.2433L33.6751 25.3278C35.1612 25.778 36.4735 26.6794 37.428 27.9107C38.4461 29.224 38.9997 30.838 39.001 32.4997V35.5011C39.001 36.3294 38.3294 37.0008 37.5012 37.001C36.6727 37.001 36.0005 36.3296 36.0005 35.5011Z" fill="#A856F7"/>
<path d="M22.4998 14.5002C22.4998 12.0149 20.4854 9.99987 18.0002 9.99976C15.5149 9.99976 13.4998 12.0149 13.4998 14.5002C13.4999 16.9854 15.5149 18.9998 18.0002 18.9998C20.4854 18.9997 22.4997 16.9854 22.4998 14.5002ZM25.5004 14.5002C25.5003 18.6423 22.1423 22.0003 18.0002 22.0004C13.8581 22.0004 10.5001 18.6423 10.5 14.5002C10.5 10.358 13.858 7 18.0002 7C22.1423 7.00011 25.5004 10.3581 25.5004 14.5002Z" fill="#A856F7"/>
</svg>
