<svg width="44" height="44" viewBox="0 0 44 44" fill="none" xmlns="http://www.w3.org/2000/svg">
<path d="M36.5585 34.4411C37.1442 35.0268 37.1443 35.9767 36.5585 36.5624C35.9728 37.1482 35.0229 37.1481 34.4372 36.5624L36.5585 34.4411ZM27.9277 27.9316C28.4769 27.3825 29.3454 27.348 29.9345 27.8284L30.0482 27.9316L36.5585 34.4411L34.4372 36.5624L27.9277 30.0521L27.8245 29.9384C27.344 29.3493 27.3786 28.4808 27.9277 27.9316Z" fill="#3C83F6"/>
<path d="M30.9994 20.4991C30.9992 14.7004 26.2978 9.99962 20.4991 9.99962C14.7006 9.99983 9.99983 14.7006 9.99962 20.4991C9.99962 26.2978 14.7004 30.9992 20.4991 30.9994C26.2979 30.9994 30.9994 26.2979 30.9994 20.4991ZM33.999 20.4991C33.999 27.9547 27.9547 33.999 20.4991 33.999C13.0436 33.9988 7 27.9546 7 20.4991C7.00022 13.0438 13.0438 7.00022 20.4991 7C27.9546 7 33.9988 13.0436 33.999 20.4991Z" fill="#3C83F6"/>
</svg>
