<svg width="30" height="30" viewBox="0 0 30 30" fill="none" xmlns="http://www.w3.org/2000/svg">
<mask id="mask0_4348_1046" style="mask-type:luminance" maskUnits="userSpaceOnUse" x="0" y="0" width="30" height="30">
<path d="M29.1504 29.1504V0.849609H0.849609V29.1504H29.1504Z" fill="white" stroke="white" stroke-width="1.7"/>
<mask id="path-2-inside-1_4348_1046" fill="white">
<path d="M30 30V2.67032e-05H0V30H30ZM0.29297 0.292996H29.707V29.707H0.29297V0.292996Z"/>
</mask>
<path d="M30 30V2.67032e-05H0V30H30ZM0.29297 0.292996H29.707V29.707H0.29297V0.292996Z" fill="white"/>
<path d="M30 30H31.7V31.7H30V30ZM30 2.67032e-05V-1.69997H31.7V2.67032e-05H30ZM0 2.67032e-05H-1.7V-1.69997H0V2.67032e-05ZM0 30V31.7H-1.7V30H0ZM0.29297 0.292996H-1.40703V-1.407H0.29297V0.292996ZM29.707 0.292996V-1.407H31.407V0.292996H29.707ZM29.707 29.707H31.407V31.407H29.707V29.707ZM0.29297 29.707V31.407H-1.40703V29.707H0.29297ZM30 30H28.3V2.67032e-05H30H31.7V30H30ZM30 2.67032e-05V1.70003H0V2.67032e-05V-1.69997H30V2.67032e-05ZM0 2.67032e-05H1.7V30H0H-1.7V2.67032e-05H0ZM0 30V28.3H30V30V31.7H0V30ZM0.29297 0.292996V-1.407H29.707V0.292996V1.993H0.29297V0.292996ZM29.707 0.292996H31.407V29.707H29.707H28.007V0.292996H29.707ZM29.707 29.707V31.407H0.29297V29.707V28.007H29.707V29.707ZM0.29297 29.707H-1.40703V0.292996H0.29297H1.99297V29.707H0.29297Z" fill="white" mask="url(#path-2-inside-1_4348_1046)"/>
</mask>
<g mask="url(#mask0_4348_1046)">
<path d="M0.732422 13.9707C0.732422 17.4354 3.56658 20.2695 7.03127 20.2695H8.90627L8.92121 20.2688C8.99508 20.2613 9.05276 20.1989 9.05276 20.123C9.05276 20.0472 8.99508 19.9848 8.92121 19.9773L8.90627 19.9766H7.03127C3.72838 19.9766 1.02539 17.2736 1.02539 13.9707C1.0254 10.6678 3.72839 7.96486 7.03127 7.96486H7.26496L7.27783 7.96429C7.34137 7.95873 7.39469 7.91233 7.40824 7.84899C8.15711 4.34381 11.2715 1.71512 15 1.71511C18.7285 1.71511 21.8429 4.34381 22.5918 7.84899L22.595 7.86141C22.6137 7.9224 22.6702 7.96486 22.735 7.96486H22.9688C26.2716 7.96487 28.9746 10.6678 28.9746 13.9707C28.9746 17.2736 26.2715 19.9766 22.9688 19.9766H22.0155C21.9346 19.9766 21.869 20.0422 21.869 20.123C21.869 20.2039 21.9346 20.2695 22.0155 20.2695H22.9688C26.4333 20.2695 29.2675 17.4354 29.2675 13.9707C29.2675 10.506 26.4334 7.6719 22.9688 7.6719H22.8525C22.0321 4.09248 18.8284 1.42214 15 1.42214C11.1716 1.42215 7.96786 4.09249 7.14748 7.6719H7.03127C3.56658 7.6719 0.732432 10.506 0.732422 13.9707Z" fill="#3C83F6" stroke="#3C83F6" stroke-width="1.7" stroke-miterlimit="22.926" stroke-linecap="round" stroke-linejoin="round"/>
<path d="M20.9472 21.5308C20.9472 24.9796 18.3493 27.8457 15 28.2877C11.6508 27.8457 9.05274 24.9797 9.05274 21.5308V15.8672L15 13.7663L20.9472 15.8672V21.5308ZM21.2402 15.7636C21.2402 15.7015 21.2011 15.6461 21.1425 15.6254L15.0488 13.4729C15.0211 13.4631 14.9913 13.4619 14.9632 13.4692L14.9512 13.4729L8.85744 15.6254C8.7989 15.6461 8.75977 15.7015 8.75977 15.7636V21.5308C8.75977 25.1367 11.4802 28.1286 14.9813 28.5808L14.9906 28.5817C15 28.5823 15.0094 28.582 15.0188 28.5808C18.5199 28.1286 21.2402 25.1366 21.2402 21.5308V15.7636Z" fill="#3C83F6" stroke="#3C83F6" stroke-width="1.7" stroke-miterlimit="22.926" stroke-linecap="round" stroke-linejoin="round"/>
<path d="M14.3341 22.5416C14.3915 22.5882 14.4761 22.5849 14.5296 22.5316L17.0025 20.0707C17.0599 20.0136 17.0601 19.9208 17.0031 19.8635C16.946 19.8061 16.8533 19.8059 16.7959 19.863L14.4263 22.2211L13.2049 21.0056L13.1938 20.9955C13.1361 20.9487 13.0512 20.9523 12.9977 21.006C12.9407 21.0634 12.9409 21.1562 12.9982 21.2132L14.323 22.5316L14.3341 22.5416Z" fill="#3C83F6" stroke="#3C83F6" stroke-width="1.7" stroke-miterlimit="22.926" stroke-linecap="round" stroke-linejoin="round"/>
</g>
</svg>
