<svg width="44" height="44" viewBox="0 0 44 44" fill="none" xmlns="http://www.w3.org/2000/svg">
<path d="M32.5329 11.9476C28.9213 11.8203 24.7836 9.74532 21.9169 7.24227C21.8687 7.20287 21.8079 7.18109 21.7455 7.18109C21.6814 7.18119 21.6194 7.20417 21.5706 7.24571C18.7207 9.73062 14.5709 11.8194 10.9589 11.9476L10.6108 11.9545V23.0891C10.6108 26.6457 11.8371 29.2307 13.7712 31.2116C15.6252 33.1104 18.1931 34.5155 21.1449 35.5947L21.7403 35.8066L21.7756 35.8187C24.9652 34.7056 27.7476 33.2402 29.7215 31.2151C31.6547 29.2316 32.881 26.6457 32.881 23.0891V11.9545L32.5329 11.9476ZM36.0621 23.0891C36.0621 27.486 34.5044 30.8655 31.9996 33.4355C29.6919 35.803 26.6426 37.4222 23.4506 38.5983L22.8104 38.8283C22.8061 38.8298 22.8018 38.8312 22.7975 38.8326C22.1165 39.0634 21.3781 39.0546 20.702 38.8119V38.8137C17.2704 37.6286 13.9593 35.9587 11.4948 33.4346C8.987 30.8662 7.42971 27.4859 7.42969 23.0891V11.9545C7.42969 11.1108 7.76463 10.3014 8.3611 9.70477C8.95769 9.10818 9.76707 8.77254 10.6108 8.7725L10.8641 8.76819C13.5032 8.66804 16.9782 7.03315 19.4906 4.83835L19.5035 4.82715L19.6224 4.72979C20.2277 4.25756 20.9748 4.00009 21.7455 4C22.5162 4 23.264 4.25747 23.8694 4.72979L23.9883 4.82715L24.002 4.83922L24.5018 5.25882C27.0564 7.31935 30.3799 8.7725 32.881 8.7725C33.7247 8.77255 34.5341 9.10818 35.1307 9.70477C35.7272 10.3014 36.0621 11.1108 36.0621 11.9545V23.0891Z" fill="#3C83F6"/>
<path d="M25.5137 17.0832C26.1385 16.5736 27.0604 16.6102 27.6428 17.1926C28.2635 17.8137 28.2635 18.8203 27.6428 19.4414L21.2797 25.8045C20.6974 26.3869 19.7755 26.4235 19.1507 25.9139L19.0301 25.8045L15.849 22.6234L15.7395 22.5028C15.2297 21.878 15.2665 20.9562 15.849 20.3737C16.4313 19.7915 17.3524 19.7549 17.9772 20.2643L18.0978 20.3737L20.1545 22.4295L25.3931 17.1926L25.5137 17.0832Z" fill="#3C83F6"/>
</svg>
