<svg width="25" height="30" viewBox="0 0 25 30" fill="none" xmlns="http://www.w3.org/2000/svg">
<path d="M21.5171 6.8122C18.4213 6.70308 14.8748 4.92456 12.4176 2.77909C12.3763 2.74532 12.3242 2.72665 12.2707 2.72665C12.2157 2.72674 12.1626 2.74643 12.1207 2.78204C9.67804 4.91196 6.12108 6.70233 3.02502 6.8122L2.72665 6.8181V16.3621C2.72667 19.4106 3.77775 21.6263 5.43558 23.3242C7.02468 24.9518 9.22582 26.1561 11.7559 27.0811L12.2662 27.2628L12.2965 27.2732C15.0304 26.3191 17.4153 25.063 19.1072 23.3272C20.7643 21.6271 21.8154 19.4106 21.8154 16.3621V6.8181L21.5171 6.8122ZM24.5421 16.3621C24.5421 20.1309 23.2069 23.0276 21.0599 25.2304C19.0819 27.2597 16.4682 28.6476 13.7322 29.6557L13.1835 29.8528C13.1798 29.8541 13.1761 29.8553 13.1724 29.8565C12.5887 30.0543 11.9558 30.0468 11.3763 29.8388V29.8403C8.43488 28.8245 5.59681 27.3931 3.48438 25.2296C1.33484 23.0281 2.02828e-05 20.1308 0 16.3621V6.8181C0 6.09498 0.287094 5.40118 0.79835 4.8898C1.30972 4.37844 2.00347 4.09075 2.72665 4.09071L2.94378 4.08702C5.20583 4.00118 8.1844 2.59984 10.3379 0.718589L10.349 0.708988L10.4509 0.625535C10.9698 0.220762 11.6101 8.12377e-05 12.2707 0C12.9313 0 13.5722 0.220685 14.0911 0.625535L14.1931 0.708988L14.2049 0.719328L14.6332 1.07899C16.8229 2.84516 19.6716 4.09071 21.8154 4.09071C22.5386 4.09075 23.2324 4.37844 23.7437 4.8898C24.255 5.40118 24.5421 6.09499 24.5421 6.8181V16.3621Z" fill="#A856F7"/>
<path d="M15.5001 11.2158C16.0356 10.779 16.8258 10.8104 17.325 11.3096C17.857 11.842 17.857 12.7048 17.325 13.2372L11.8709 18.6912C11.3717 19.1904 10.5815 19.2218 10.046 18.785L9.94262 18.6912L7.21597 15.9646L7.12218 15.8612C6.68518 15.3256 6.71671 14.5355 7.21597 14.0363C7.71511 13.5373 8.50466 13.5059 9.04014 13.9425L9.14353 14.0363L10.9064 15.7984L15.3967 11.3096L15.5001 11.2158Z" fill="#A856F7"/>
</svg>
