<svg width="44" height="44" viewBox="0 0 44 44" fill="none" xmlns="http://www.w3.org/2000/svg">
<path d="M9 32.9088V11.0905C9.00007 10.0056 9.43092 8.96518 10.1981 8.19805C10.9652 7.43092 12.0056 7.00007 13.0905 7H25.3635L25.4987 7.00665C25.8107 7.03771 26.1045 7.17592 26.3281 7.3996L33.1457 14.2171L33.2365 14.3176C33.4353 14.5602 33.5453 14.8653 33.5453 15.1818V32.9088C33.5453 33.9937 33.1144 35.0348 32.3472 35.802C31.5801 36.569 30.5396 36.9999 29.4547 37H13.0905C12.0057 36.9999 10.9652 36.569 10.1981 35.802C9.43085 35.0348 9 33.9937 9 32.9088ZM11.727 32.9088C11.727 33.2704 11.8709 33.6177 12.1266 33.8734C12.3823 34.129 12.729 34.2729 13.0905 34.273H29.4547C29.8163 34.2729 30.163 34.129 30.4187 33.8734C30.6744 33.6177 30.8182 33.2704 30.8182 32.9088V15.7461L24.7992 9.727H13.0905C12.7289 9.72708 12.3823 9.87093 12.1266 10.1266C11.8709 10.3823 11.7271 10.7289 11.727 11.0905V32.9088Z" fill="#3C83F6"/>
<path d="M17.1821 23.3637V28.8185H25.3638V23.3637H17.1821ZM28.0916 28.8185C28.0915 30.3247 26.8701 31.5455 25.3638 31.5455H17.1821C15.6759 31.5454 14.4551 30.3246 14.4551 28.8185V23.3637C14.4552 21.8576 15.676 20.6368 17.1821 20.6367H25.3638C26.87 20.6367 28.0915 21.8576 28.0916 23.3637V28.8185Z" fill="#3C83F6"/>
<path d="M22.6364 22.0018V19.2741C22.6363 18.9126 22.4924 18.5659 22.2368 18.3102C22.013 18.0865 21.7194 17.9483 21.4073 17.9172L21.2721 17.9106C20.9106 17.9107 20.5639 18.0545 20.3082 18.3102C20.0526 18.5659 19.9087 18.9125 19.9086 19.2741V22.0018C19.9085 22.7549 19.2982 23.3653 18.5451 23.3653C17.7921 23.3653 17.1817 22.7549 17.1816 22.0018V19.2741C17.1817 18.1892 17.6126 17.1488 18.3797 16.3816C19.1468 15.6145 20.1873 15.1837 21.2721 15.1836L21.4753 15.1888C22.4864 15.2389 23.4461 15.6624 24.1653 16.3816C24.9324 17.1488 25.3633 18.1893 25.3634 19.2741V22.0018C25.3633 22.7548 24.7529 23.3652 23.9999 23.3653C23.2468 23.3653 22.6365 22.7549 22.6364 22.0018Z" fill="#3C83F6"/>
</svg>
