<svg width="44" height="44" viewBox="0 0 44 44" fill="none" xmlns="http://www.w3.org/2000/svg">
<path d="M35.9074 16.7499C35.9074 14.9596 35.1741 13.2424 33.87 11.9765C32.5659 10.7109 30.7972 9.99977 28.9531 9.99971C27.7481 9.99971 26.8097 10.1644 25.9422 10.5311C25.0647 10.902 24.1622 11.5212 23.0912 12.5607C22.4877 13.1463 21.5091 13.1464 20.9057 12.5607C19.8348 11.5212 18.933 10.902 18.0555 10.5311C17.2964 10.2101 16.483 10.0443 15.4841 10.0078L15.0446 9.99971C13.2003 9.99971 11.4311 10.7106 10.127 11.9765C8.82281 13.2424 8.09041 14.9596 8.0904 16.7499L8.09626 17.0082C8.2002 19.4888 9.79144 21.5417 11.8278 23.5146L12.2556 23.9217L21.998 33.3782L31.7238 23.9396L31.7347 23.9282C34.0406 21.735 35.9074 19.5037 35.9074 16.7499ZM38.9978 16.7499C38.9978 20.8593 36.2056 23.8742 33.9085 26.0602L33.9093 26.061L23.0912 36.5608C22.4877 37.1463 21.5091 37.1465 20.9057 36.5608L10.0884 26.061V26.0602C7.83841 23.9468 5.17251 21.0564 5.00753 17.1342L5 16.7499C5.00001 14.164 6.05848 11.6844 7.94224 9.8559C9.82601 8.02742 12.3806 7.00001 15.0446 7L15.6063 7.00975C16.9037 7.05778 18.108 7.2814 19.2893 7.7808C20.237 8.18144 21.1208 8.74126 21.9989 9.46184C22.877 8.74131 23.7608 8.18142 24.7084 7.7808C26.0584 7.21015 27.4385 7 28.9531 7C31.6171 7.00006 34.1718 8.02747 36.0555 9.8559C37.9392 11.6844 38.9978 14.164 38.9978 16.7499Z" fill="#3C83F6"/>
<path d="M24.9911 15.253C25.6437 15.2129 26.2519 15.5756 26.5095 16.1589L28.4255 20.4993H35.5513L35.7087 20.5074C36.4881 20.5841 37.0965 21.2232 37.0965 21.9999C37.0964 22.7765 36.488 23.415 35.7087 23.4917L35.5513 23.4998H27.4068C26.7887 23.4997 26.2298 23.1421 25.9863 22.5906L25.3803 21.2183L23.4844 27.6613C23.3058 28.268 22.755 28.7018 22.1066 28.746C21.4581 28.7901 20.8497 28.4354 20.5857 27.8588L18.5625 23.4405C18.4254 23.4788 18.2817 23.4998 18.1348 23.4998H8.42997C7.57659 23.4998 6.88492 22.8282 6.88477 21.9999C6.88477 21.1715 7.57649 20.4993 8.42997 20.4993H17.1797L17.5254 19.829L17.579 19.7339C17.8622 19.2707 18.3821 18.9879 18.9425 19.0002C19.5404 19.0134 20.0766 19.3603 20.3195 19.8907L21.6814 22.8644L23.6032 16.3377L23.6409 16.2256C23.8523 15.6747 24.3792 15.2907 24.9911 15.253Z" fill="#3C83F6"/>
</svg>
