<svg width="57" height="57" viewBox="0 0 57 57" fill="none" xmlns="http://www.w3.org/2000/svg">
<path d="M48.9032 40.0376V36.4839C48.9018 35.3079 48.4341 34.1806 47.6025 33.3491C46.771 32.5176 45.6437 32.0498 44.4677 32.0484H37.0002C37.8212 30.5337 38.4836 28.9382 38.9766 27.2873L42.3476 24.5897C42.8716 24.1714 43.2546 23.6024 43.445 22.9595C43.6355 22.3167 43.6241 21.6309 43.4125 20.9946C43.201 20.3584 42.7993 19.8024 42.2618 19.4017C41.7243 19.0009 41.0768 18.7747 40.4066 18.7535L42.3831 13.3191C42.8874 11.9322 43.05 10.4442 42.857 8.98118C42.6641 7.51813 42.1214 6.12313 41.2748 4.91438C40.4283 3.70563 39.3028 2.71875 37.9938 2.03736C36.6848 1.35596 35.2309 1.00013 33.7552 1H26.2237C20.5882 0.998595 15.066 2.58235 10.2879 5.57032C10.1443 5.65925 10.0291 5.78731 9.95585 5.93945C9.88256 6.09159 9.85422 6.26149 9.87415 6.42919C9.89409 6.59688 9.96148 6.7554 10.0684 6.88611C10.1753 7.01683 10.3173 7.11431 10.4777 7.1671L12.6165 7.87677C12.9109 7.97497 13.1821 8.13228 13.4135 8.33905C13.6449 8.54581 13.8316 8.79768 13.9622 9.07919C14.0928 9.3607 14.1645 9.66592 14.1729 9.97612C14.1813 10.2863 14.1262 10.595 14.011 10.8831C13.7985 11.4144 13.7009 11.9846 13.7246 12.5563C13.7483 13.128 13.8928 13.6882 14.1485 14.2L16.4355 18.7694C15.7812 18.8215 15.1578 19.0691 14.6461 19.4801C14.1343 19.891 13.758 20.4463 13.5659 21.0739C13.3739 21.7015 13.3749 22.3723 13.569 22.9993C13.7631 23.6262 14.1412 24.1804 14.6542 24.5897L18.0252 27.2873C18.5176 28.9381 19.1794 30.5336 19.9998 32.0484H12.5323C11.3563 32.0498 10.229 32.5176 9.39745 33.3491C8.56594 34.1806 8.09818 35.3079 8.09677 36.4839V40.0376C5.99723 40.9147 4.20358 42.3924 2.94099 44.2854C1.6784 46.1783 1.00315 48.402 1 50.6774V55.1129C1 55.3482 1.09346 55.5738 1.25982 55.7402C1.42619 55.9065 1.65182 56 1.8871 56H55.1129C55.3482 56 55.5738 55.9065 55.7402 55.7402C55.9065 55.5738 56 55.3482 56 55.1129V50.6774C55.9969 48.402 55.3216 46.1783 54.059 44.2854C52.7964 42.3924 51.0028 40.9147 48.9032 40.0376ZM35.5968 18.7419H30.2742C30.0389 18.7419 29.8133 18.8354 29.6469 19.0018C29.4806 19.1681 29.3871 19.3938 29.3871 19.629V20.5161H27.6129V19.629C27.6129 19.3938 27.5194 19.1681 27.3531 19.0018C27.1867 18.8354 26.9611 18.7419 26.7258 18.7419H18.7419V17.4423L24.2792 13.7511C25.4707 12.9551 26.8719 12.5309 28.3048 12.5323C30.355 12.5299 32.3437 11.8322 33.9459 10.5531L35.3954 9.39371L36.9168 11.6771C37.7927 12.9878 38.2595 14.5291 38.2581 16.1055V18.7419H35.5968ZM34.7097 20.5161V23.1774C34.7097 23.4127 34.6162 23.6383 34.4499 23.8047C34.2835 23.9711 34.0579 24.0645 33.8226 24.0645H32.0484C31.8131 24.0645 31.5875 23.9711 31.4211 23.8047C31.2548 23.6383 31.1613 23.4127 31.1613 23.1774V20.5161H34.7097ZM25.8387 20.5161V23.1774C25.8387 23.4127 25.7452 23.6383 25.5789 23.8047C25.4125 23.9711 25.1869 24.0645 24.9516 24.0645H23.1774C22.9421 24.0645 22.7165 23.9711 22.5501 23.8047C22.3838 23.6383 22.2903 23.4127 22.2903 23.1774V20.5161H25.8387ZM41.8064 22.0242C41.8069 22.2505 41.7562 22.474 41.6582 22.678C41.5602 22.882 41.4174 23.0612 41.2405 23.2023L39.6322 24.4886C39.8666 23.1768 39.9957 21.8484 40.0181 20.5161H40.2984C40.6983 20.5161 41.0819 20.675 41.3647 20.9578C41.6476 21.2407 41.8064 21.6242 41.8064 22.0242ZM15.6575 11.5423C15.8625 11.0297 15.9605 10.4807 15.9457 9.9289C15.9309 9.3771 15.8035 8.83414 15.5713 8.33333C15.3391 7.83253 15.0071 7.38444 14.5956 7.01656C14.184 6.64867 13.7017 6.36874 13.1781 6.19395L12.9066 6.10524C17.0045 3.91746 21.5784 2.77337 26.2237 2.77419H33.7552C34.9454 2.77442 36.118 3.06145 37.1738 3.61098C38.2295 4.16051 39.1373 4.95635 39.8203 5.93112C40.5032 6.9059 40.9412 8.03089 41.0972 9.21084C41.2531 10.3908 41.1224 11.5909 40.7162 12.7097L39.9453 14.8298C39.7526 13.3486 39.2214 11.9317 38.3929 10.6889L36.3348 7.60089C36.2665 7.49861 36.1777 7.41164 36.074 7.34552C35.9704 7.27939 35.854 7.23555 35.7325 7.21678C35.611 7.19843 35.4871 7.20526 35.3683 7.23685C35.2496 7.26844 35.1386 7.32411 35.0423 7.4004L32.8379 9.16839C31.55 10.1954 29.9521 10.7557 28.3048 10.7581C26.5214 10.7564 24.7776 11.2844 23.2945 12.275L17.3625 16.2297C17.3075 16.267 17.2569 16.3105 17.2117 16.3592L15.7356 13.406C15.5917 13.1185 15.5104 12.8038 15.4969 12.4825C15.4835 12.1613 15.5382 11.8408 15.6575 11.5423ZM15.7604 23.204C15.5156 23.0091 15.3374 22.7428 15.2507 22.4421C15.1639 22.1414 15.1729 21.8212 15.2764 21.5258C15.3798 21.2304 15.5726 20.9745 15.8279 20.7936C16.0833 20.6127 16.3886 20.5157 16.7016 20.5161H16.9802C17.0025 21.849 17.1315 23.178 17.366 24.4903L15.7604 23.204ZM18.7561 20.5161H20.5161V23.1774C20.5161 23.8832 20.7965 24.5601 21.2956 25.0592C21.7947 25.5583 22.4716 25.8387 23.1774 25.8387H24.9516C25.6574 25.8387 26.3343 25.5583 26.8334 25.0592C27.3325 24.5601 27.6129 23.8832 27.6129 23.1774V22.2903H29.3871V23.1774C29.3871 23.8832 29.6675 24.5601 30.1666 25.0592C30.6657 25.5583 31.3426 25.8387 32.0484 25.8387H33.8226C34.5284 25.8387 35.2053 25.5583 35.7044 25.0592C36.2035 24.5601 36.4839 23.8832 36.4839 23.1774V20.5161H38.2439C38.175 24.5821 37.0398 28.5588 34.9519 32.0484H22.0481C19.9602 28.5588 18.825 24.5821 18.7561 20.5161ZM12.5323 33.8226H44.4677C45.1736 33.8226 45.8505 34.103 46.3496 34.6021C46.8486 35.1011 47.129 35.7781 47.129 36.4839V54.2258H9.87097V36.4839C9.87097 35.7781 10.1514 35.1011 10.6504 34.6021C11.1495 34.103 11.8264 33.8226 12.5323 33.8226ZM2.77419 50.6774C2.7766 48.8799 3.27473 47.1179 4.21378 45.5852C5.15284 44.0525 6.49643 42.8085 8.09677 41.9901V54.2258H2.77419V50.6774ZM54.2258 54.2258H48.9032V41.9901C50.5035 42.8086 51.847 44.0526 52.7861 45.5853C53.7251 47.118 54.2233 48.88 54.2258 50.6774V54.2258Z" fill="#3C83F6" stroke="#3C83F6" stroke-width="0.3"/>
<path d="M28.5001 51.5646C29.2019 51.5646 29.8879 51.3565 30.4714 50.9666C31.055 50.5767 31.5098 50.0226 31.7783 49.3742C32.0469 48.7258 32.1172 48.0123 31.9803 47.324C31.8434 46.6357 31.5054 46.0034 31.0091 45.5072C30.5129 45.0109 29.8806 44.673 29.1923 44.5361C28.504 44.3991 27.7905 44.4694 27.1422 44.738C26.4938 45.0065 25.9396 45.4614 25.5497 46.0449C25.1598 46.6284 24.9517 47.3145 24.9517 48.0163C24.9517 48.9574 25.3255 49.8599 25.991 50.5253C26.6564 51.1908 27.559 51.5646 28.5001 51.5646ZM28.5001 46.2421C28.851 46.2421 29.194 46.3461 29.4858 46.5411C29.7775 46.736 30.0049 47.0131 30.1392 47.3373C30.2735 47.6615 30.3086 48.0182 30.2402 48.3624C30.1717 48.7065 30.0027 49.0227 29.7546 49.2708C29.5065 49.5189 29.1904 49.6879 28.8462 49.7564C28.502 49.8248 28.1453 49.7897 27.8211 49.6554C27.4969 49.5211 27.2198 49.2937 27.0249 49.002C26.8299 48.7102 26.7259 48.3672 26.7259 48.0163C26.7259 47.5457 26.9128 47.0944 27.2455 46.7617C27.5782 46.429 28.0295 46.2421 28.5001 46.2421ZM22.5503 43.3209L23.8047 42.0665L20.8834 39.1453L23.8047 36.2241L22.5503 34.9697L19.0019 38.5181C18.8356 38.6845 18.7422 38.9101 18.7422 39.1453C18.7422 39.3805 18.8356 39.6061 19.0019 39.7725L22.5503 43.3209ZM34.4498 43.3209L37.9982 39.7725C38.1645 39.6061 38.2579 39.3805 38.2579 39.1453C38.2579 38.9101 38.1645 38.6845 37.9982 38.5181L34.4498 34.9697L33.1955 36.2241L36.1167 39.1453L33.1955 42.0665L34.4498 43.3209ZM25.1291 42.1605L30.4517 35.0646L31.871 36.1292L26.5476 43.2259L25.1291 42.1605Z" fill="#3C83F6" stroke="#3C83F6" stroke-width="0.3"/>
</svg>
