<svg width="44" height="44" viewBox="0 0 44 44" fill="none" xmlns="http://www.w3.org/2000/svg">
<path d="M20.4211 33.8423C13.0211 33.8423 7 27.8212 7 20.4211C7 13.0211 13.0211 7 20.4211 7C27.8212 7 33.8423 13.0211 33.8423 20.4211C33.8423 20.7985 33.8254 21.1769 33.7917 21.5454C33.7712 21.7533 33.6697 21.9447 33.5092 22.0784C33.3487 22.2122 33.142 22.2774 32.9338 22.2601C32.7254 22.241 32.533 22.1399 32.3991 21.979C32.2652 21.8181 32.2006 21.6107 32.2196 21.4022C32.2486 21.0811 32.2633 20.7511 32.2633 20.4211C32.2633 13.8916 26.9512 8.57896 20.4211 8.57896C13.8911 8.57896 8.57896 13.8916 8.57896 20.4211C8.57896 26.9507 13.8911 32.2633 20.4211 32.2633C20.6305 32.2633 20.8313 32.3465 20.9794 32.4945C21.1274 32.6426 21.2106 32.8434 21.2106 33.0528C21.2106 33.2622 21.1274 33.463 20.9794 33.611C20.8313 33.7591 20.6305 33.8423 20.4211 33.8423Z" fill="#A856F7"/>
<path d="M20.4205 30.1613C15.0515 30.1613 10.6836 25.7934 10.6836 20.4244C10.6836 15.0554 15.0515 10.6875 20.4205 10.6875C25.7895 10.6875 30.1574 15.0554 30.1574 20.4244C30.1574 20.8144 30.1342 21.2013 30.0885 21.5739C30.0628 21.7817 29.9556 21.9709 29.7904 22.0997C29.6253 22.2285 29.4158 22.2864 29.2079 22.2607C29.0001 22.235 28.8109 22.1278 28.6821 21.9627C28.5533 21.7976 28.4954 21.588 28.5211 21.3802C28.559 21.0712 28.5784 20.7502 28.5784 20.4244C28.5784 15.926 24.9189 12.2665 20.4205 12.2665C15.922 12.2665 12.2626 15.926 12.2626 20.4244C12.2626 24.9229 15.922 28.5823 20.4205 28.5823C20.6299 28.5823 20.8307 28.6655 20.9787 28.8136C21.1268 28.9616 21.21 29.1624 21.21 29.3718C21.21 29.5812 21.1268 29.782 20.9787 29.9301C20.8307 30.0781 20.6299 30.1613 20.4205 30.1613Z" fill="#A856F7"/>
<path d="M20.4204 25.3842C19.2835 25.3842 18.2514 24.7215 17.8509 23.7357C17.8098 23.6393 17.7884 23.5357 17.7878 23.4309C17.7872 23.3261 17.8074 23.2223 17.8474 23.1254C17.8873 23.0285 17.9462 22.9406 18.0204 22.8667C18.0947 22.7928 18.183 22.7344 18.2801 22.695C18.3772 22.6555 18.4811 22.6358 18.5859 22.637C18.6907 22.6381 18.7942 22.6601 18.8904 22.7017C18.9866 22.7432 19.0735 22.8035 19.1462 22.879C19.2188 22.9546 19.2757 23.0438 19.3135 23.1415C19.4751 23.5384 19.9198 23.8047 20.4204 23.8047C21.233 23.8047 21.8941 23.2457 21.8941 22.5589V22.4589C21.8941 21.4926 20.3035 21.2036 20.2877 21.201C19.2046 21.0204 17.3672 20.2236 17.3672 18.3862V18.2862C17.3672 16.7283 18.7367 15.4609 20.4204 15.4609C21.5572 15.4609 22.5893 16.1241 22.9899 17.1094C23.0309 17.2058 23.0524 17.3094 23.053 17.4142C23.0536 17.519 23.0333 17.6228 22.9934 17.7197C22.9534 17.8166 22.8946 17.9045 22.8203 17.9784C22.746 18.0523 22.6577 18.1107 22.5607 18.1501C22.4636 18.1896 22.3596 18.2093 22.2548 18.2081C22.15 18.207 22.0465 18.185 21.9504 18.1434C21.8542 18.1019 21.7672 18.0416 21.6946 17.966C21.6219 17.8905 21.565 17.8013 21.5272 17.7036C21.3656 17.3067 20.9209 17.0404 20.4204 17.0404C19.6077 17.0404 18.9467 17.5994 18.9467 18.2862V18.3862C18.9467 19.3525 20.5372 19.6415 20.553 19.6441C21.6362 19.8246 23.4735 20.6215 23.4735 22.4589V22.5589C23.4735 24.1168 22.1041 25.3842 20.4204 25.3842Z" fill="#A856F7"/>
<path d="M20.4223 17.04C20.2129 17.04 20.0121 16.9568 19.864 16.8088C19.716 16.6607 19.6328 16.4599 19.6328 16.2505V15.141C19.6328 14.9317 19.716 14.7309 19.864 14.5828C20.0121 14.4347 20.2129 14.3516 20.4223 14.3516C20.6317 14.3516 20.8325 14.4347 20.9805 14.5828C21.1286 14.7309 21.2118 14.9317 21.2118 15.141V16.2505C21.2118 16.4599 21.1286 16.6607 20.9805 16.8088C20.8325 16.9568 20.6317 17.04 20.4223 17.04ZM20.4223 26.4937C20.2129 26.4937 20.0121 26.4106 19.864 26.2625C19.716 26.1145 19.6328 25.9136 19.6328 25.7043V24.5948C19.6328 24.3854 19.716 24.1846 19.864 24.0365C20.0121 23.8885 20.2129 23.8053 20.4223 23.8053C20.6317 23.8053 20.8325 23.8885 20.9805 24.0365C21.1286 24.1846 21.2118 24.3854 21.2118 24.5948V25.7043C21.2118 25.9136 21.1286 26.1145 20.9805 26.2625C20.8325 26.4106 20.6317 26.4937 20.4223 26.4937ZM36.2119 37.0017H26.7381C26.5287 37.0017 26.3279 36.9185 26.1799 36.7705C26.0318 36.6224 25.9486 36.4216 25.9486 36.2122V21.4753C25.9486 21.2659 26.0318 21.0651 26.1799 20.917C26.3279 20.769 26.5287 20.6858 26.7381 20.6858H36.2119C36.4212 20.6858 36.6221 20.769 36.7701 20.917C36.9182 21.0651 37.0013 21.2659 37.0013 21.4753V36.2122C37.0013 36.4216 36.9182 36.6224 36.7701 36.7705C36.6221 36.9185 36.4212 37.0017 36.2119 37.0017ZM27.5276 35.4227H35.4224V22.2648H27.5276V35.4227Z" fill="#A856F7"/>
<path d="M29.7633 25.9441C29.5539 25.9441 29.3531 25.8609 29.2051 25.7129C29.057 25.5648 28.9738 25.364 28.9738 25.1546V24.102C28.9738 23.8926 29.057 23.6918 29.2051 23.5437C29.3531 23.3957 29.5539 23.3125 29.7633 23.3125C29.9727 23.3125 30.1735 23.3957 30.3216 23.5437C30.4696 23.6918 30.5528 23.8926 30.5528 24.102V25.1546C30.5528 25.364 30.4696 25.5648 30.3216 25.7129C30.1735 25.8609 29.9727 25.9441 29.7633 25.9441ZM33.1844 25.9441C32.975 25.9441 32.7742 25.8609 32.6261 25.7129C32.4781 25.5648 32.3949 25.364 32.3949 25.1546V24.102C32.3949 23.8926 32.4781 23.6918 32.6261 23.5437C32.7742 23.3957 32.975 23.3125 33.1844 23.3125C33.3938 23.3125 33.5946 23.3957 33.7426 23.5437C33.8907 23.6918 33.9739 23.8926 33.9739 24.102V25.1546C33.9739 25.364 33.8907 25.5648 33.7426 25.7129C33.5946 25.8609 33.3938 25.9441 33.1844 25.9441ZM29.7633 30.1546C29.5539 30.1546 29.3531 30.0715 29.2051 29.9234C29.057 29.7754 28.9738 29.5746 28.9738 29.3652V28.3125C28.9738 28.1031 29.057 27.9023 29.2051 27.7543C29.3531 27.6062 29.5539 27.5231 29.7633 27.5231C29.9727 27.5231 30.1735 27.6062 30.3216 27.7543C30.4696 27.9023 30.5528 28.1031 30.5528 28.3125V29.3652C30.5528 29.5746 30.4696 29.7754 30.3216 29.9234C30.1735 30.0715 29.9727 30.1546 29.7633 30.1546ZM33.1844 30.1546C32.975 30.1546 32.7742 30.0715 32.6261 29.9234C32.4781 29.7754 32.3949 29.5746 32.3949 29.3652V28.3125C32.3949 28.1031 32.4781 27.9023 32.6261 27.7543C32.7742 27.6062 32.975 27.5231 33.1844 27.5231C33.3938 27.5231 33.5946 27.6062 33.7426 27.7543C33.8907 27.9023 33.9739 28.1031 33.9739 28.3125V29.3652C33.9739 29.5746 33.8907 29.7754 33.7426 29.9234C33.5946 30.0715 33.3938 30.1546 33.1844 30.1546ZM29.7633 34.3652C29.5539 34.3652 29.3531 34.282 29.2051 34.134C29.057 33.9859 28.9738 33.7851 28.9738 33.5757V32.5231C28.9738 32.3137 29.057 32.1129 29.2051 31.9648C29.3531 31.8168 29.5539 31.7336 29.7633 31.7336C29.9727 31.7336 30.1735 31.8168 30.3216 31.9648C30.4696 32.1129 30.5528 32.3137 30.5528 32.5231V33.5757C30.5528 33.7851 30.4696 33.9859 30.3216 34.134C30.1735 34.282 29.9727 34.3652 29.7633 34.3652ZM33.1844 34.3652C32.975 34.3652 32.7742 34.282 32.6261 34.134C32.4781 33.9859 32.3949 33.7851 32.3949 33.5757V32.5231C32.3949 32.3137 32.4781 32.1129 32.6261 31.9648C32.7742 31.8168 32.975 31.7336 33.1844 31.7336C33.3938 31.7336 33.5946 31.8168 33.7426 31.9648C33.8907 32.1129 33.9739 32.3137 33.9739 32.5231V33.5757C33.9739 33.7851 33.8907 33.9859 33.7426 34.134C33.5946 34.282 33.3938 34.3652 33.1844 34.3652ZM26.737 36.9968H23.5785C23.3692 36.9968 23.1684 36.9136 23.0203 36.7656C22.8722 36.6175 22.7891 36.4167 22.7891 36.2073V27.2599C22.7891 26.9957 22.9206 26.7494 23.1406 26.603L26.2991 24.4978C26.3853 24.4389 26.4824 24.3977 26.5846 24.3766C26.6869 24.3555 26.7923 24.3549 26.8948 24.3748C26.9973 24.3947 27.0948 24.4348 27.1817 24.4926C27.2686 24.5505 27.3432 24.625 27.4011 24.7119C27.459 24.7987 27.4991 24.8962 27.5191 24.9987C27.5391 25.1012 27.5385 25.2066 27.5175 25.3089C27.4965 25.4111 27.4553 25.5082 27.3965 25.5945C27.3377 25.6808 27.2624 25.7545 27.1749 25.8115L24.368 27.6825V35.4178H26.737C26.9464 35.4178 27.1472 35.501 27.2952 35.6491C27.4433 35.7971 27.5265 35.9979 27.5265 36.2073C27.5265 36.4167 27.4433 36.6175 27.2952 36.7656C27.1472 36.9136 26.9464 36.9968 26.737 36.9968Z" fill="#A856F7"/>
</svg>
