<svg width="44" height="44" viewBox="0 0 44 44" fill="none" xmlns="http://www.w3.org/2000/svg">
<path d="M24.3197 18.2158C24.8552 17.7788 25.6456 17.8106 26.1449 18.3099C26.6441 18.8091 26.6759 19.5995 26.239 20.1351L26.1449 20.238L18.8725 27.5104C18.34 28.0429 17.4768 28.0429 16.9443 27.5104C16.4118 26.9779 16.4118 26.1148 16.9443 25.5822L24.2167 18.3099L24.3197 18.2158Z" fill="#3C83F6"/>
<path d="M38.3619 26.5445C38.3619 23.5926 37.5848 20.6923 36.1089 18.1358C34.6329 15.5793 32.5097 13.4563 29.9532 11.9802C27.3967 10.5042 24.4966 9.72715 21.5445 9.72715C18.5925 9.72715 15.6924 10.5042 13.1358 11.9802C10.5794 13.4563 8.45624 15.5793 6.98024 18.1358C5.50434 20.6923 4.72715 23.5926 4.72715 26.5445C4.72725 29.3121 5.41049 32.0344 6.71214 34.4703L6.98024 34.9533L7.04416 35.0775C7.32796 35.708 7.09294 36.4644 6.48133 36.8175C5.8703 37.1699 5.0995 36.9955 4.69519 36.4358L4.61884 36.3168L4.30636 35.7558C2.79365 32.9249 2.00012 29.7608 2 26.5445C2 23.1139 2.90361 19.7433 4.61884 16.7723C6.33419 13.8013 8.80127 11.3342 11.7723 9.61884C14.7435 7.90339 18.1137 7 21.5445 7C24.9754 7 28.3456 7.90339 31.3168 9.61884C34.2878 11.3342 36.7549 13.8013 38.4703 16.7723C40.1855 19.7433 41.0891 23.1139 41.0891 26.5445C41.089 29.9751 40.1856 33.3459 38.4703 36.3168C38.0938 36.9688 37.2598 37.1936 36.6078 36.8175C35.9556 36.4409 35.7323 35.6054 36.1089 34.9533C37.5848 32.3969 38.3618 29.4964 38.3619 26.5445Z" fill="#3C83F6"/>
</svg>
