<svg width="44" height="44" viewBox="0 0 44 44" fill="none" xmlns="http://www.w3.org/2000/svg">
<path d="M35.119 7.00006H32.8869C32.7611 7.00006 32.6404 7.05005 32.5514 7.13902C32.4625 7.228 32.4125 7.34867 32.4125 7.4745C32.4125 7.60033 32.4625 7.72101 32.5514 7.80998C32.6404 7.89895 32.7611 7.94894 32.8869 7.94894H35.119C36.1396 7.94894 36.9699 8.7793 36.9699 9.79994V28.8023C36.9699 29.8229 36.1396 30.6533 35.119 30.6533H22.0284C21.0078 30.6533 20.1775 29.8229 20.1775 28.8023V9.79987C20.1775 8.77924 21.0078 7.94888 22.0284 7.94888H31.3056C31.4314 7.94888 31.5521 7.89889 31.6411 7.80992C31.73 7.72094 31.78 7.60027 31.78 7.47444C31.78 7.34861 31.73 7.22793 31.6411 7.13896C31.5521 7.04999 31.4314 7 31.3056 7H22.0284C20.4846 7 19.2287 8.25598 19.2287 9.79987V28.8022C19.2287 30.3461 20.4846 31.6021 22.0284 31.6021H35.119C36.6628 31.6021 37.9188 30.3461 37.9188 28.8022V9.79987C37.9187 8.25605 36.6628 7.00006 35.119 7.00006ZM18.1621 12.3978H8.79974C7.25593 12.3978 6 13.6538 6 15.1977V27.6969C6 27.8227 6.04998 27.9434 6.13895 28.0324C6.22792 28.1213 6.34859 28.1713 6.47442 28.1713C6.60024 28.1713 6.72091 28.1213 6.80988 28.0324C6.89885 27.9434 6.94883 27.8227 6.94883 27.6969V15.1977C6.94883 14.177 7.77916 13.3467 8.79981 13.3467H18.1622C18.288 13.3467 18.4086 13.2967 18.4976 13.2077C18.5866 13.1187 18.6365 12.9981 18.6365 12.8722C18.6365 12.7464 18.5865 12.6257 18.4976 12.5368C18.4086 12.4478 18.2879 12.3978 18.1621 12.3978Z" fill="#3C83F6" stroke="#3C83F6" stroke-width="0.7"/>
<path d="M24.2157 32.1914C24.0899 32.1914 23.9692 32.2413 23.8803 32.3303C23.7913 32.4193 23.7413 32.54 23.7413 32.6658V34.1989C23.7413 35.2196 22.911 36.0499 21.8904 36.0499H8.79978C7.77913 36.0499 6.9488 35.2195 6.9488 34.1989V29.2772C6.94952 29.2144 6.93778 29.1522 6.91427 29.094C6.89075 29.0358 6.85592 28.9828 6.8118 28.9382C6.76768 28.8936 6.71514 28.8581 6.65722 28.834C6.59931 28.8098 6.53718 28.7973 6.47442 28.7973C6.41166 28.7973 6.34952 28.8098 6.29161 28.834C6.2337 28.8581 6.18116 28.8936 6.13704 28.9382C6.09291 28.9828 6.05809 29.0358 6.03457 29.094C6.01105 29.1522 5.99931 29.2144 6.00003 29.2772V34.1989C6.00003 35.7428 7.25596 36.9988 8.79978 36.9988H21.8904C23.4342 36.9988 24.6902 35.7428 24.6902 34.1989V32.6658C24.6902 32.6035 24.6779 32.5418 24.654 32.4842C24.6302 32.4267 24.5953 32.3744 24.5512 32.3303C24.5072 32.2863 24.4549 32.2513 24.3973 32.2275C24.3397 32.2036 24.278 32.1914 24.2157 32.1914ZM32.8457 19.2999L34.5708 16.3117C34.6125 16.2396 34.6344 16.1578 34.6344 16.0745C34.6344 15.9912 34.6125 15.9094 34.5708 15.8373C34.5292 15.7652 34.4693 15.7053 34.3972 15.6636C34.3251 15.622 34.2433 15.6001 34.16 15.6001H30.7097L28.9845 12.6119C28.9429 12.5398 28.883 12.4799 28.8109 12.4382C28.7388 12.3966 28.657 12.3747 28.5737 12.3747C28.4904 12.3747 28.4086 12.3966 28.3365 12.4382C28.2644 12.4799 28.2045 12.5398 28.1629 12.6119L26.4378 15.6001H22.9875C22.9042 15.6001 22.8224 15.622 22.7503 15.6636C22.6782 15.7053 22.6183 15.7652 22.5767 15.8373C22.535 15.9094 22.5131 15.9912 22.5131 16.0745C22.5131 16.1578 22.535 16.2396 22.5767 16.3117L24.3018 19.2999L22.5767 22.288C22.535 22.3602 22.5131 22.442 22.5131 22.5252C22.5131 22.6085 22.535 22.6903 22.5767 22.7625C22.6183 22.8346 22.6782 22.8945 22.7503 22.9361C22.8224 22.9778 22.9042 22.9997 22.9875 22.9997H26.4378L28.1629 25.9878C28.2045 26.06 28.2644 26.1198 28.3365 26.1615C28.4086 26.2031 28.4904 26.225 28.5737 26.225C28.657 26.225 28.7388 26.2031 28.8109 26.1615C28.883 26.1198 28.9429 26.06 28.9845 25.9878L30.7097 22.9997H34.16C34.2433 22.9997 34.3251 22.9778 34.3972 22.9361C34.4693 22.8945 34.5292 22.8346 34.5708 22.7625C34.6125 22.6903 34.6344 22.6085 34.6344 22.5252C34.6344 22.442 34.6125 22.3602 34.5708 22.288L32.8457 19.2999ZM33.3384 16.5489L32.298 18.351L31.2576 16.5489H33.3384ZM28.5738 13.7979L29.6142 15.6001H27.5333L28.5738 13.7979ZM23.8091 16.5489H25.89L24.8496 18.351L23.8091 16.5489ZM23.8091 22.0508L24.8496 20.2487L25.89 22.0508H23.8091ZM28.5738 24.8018L27.5334 22.9997H29.6143L28.5738 24.8018ZM30.1619 22.0508H26.9855L25.3973 19.2999L26.9855 16.5489H30.1619L31.7501 19.2999L30.1619 22.0508ZM31.2575 22.0508L32.2979 20.2487L33.3383 22.0508H31.2575ZM25.1265 10.3808H24.4624V9.71663C24.4624 9.5908 24.4124 9.47012 24.3234 9.38115C24.2344 9.29217 24.1138 9.24219 23.9879 9.24219C23.8621 9.24219 23.7415 9.29217 23.6525 9.38115C23.5635 9.47012 23.5135 9.5908 23.5135 9.71663V10.3808H22.8494C22.7236 10.3808 22.6029 10.4308 22.5139 10.5197C22.425 10.6087 22.375 10.7294 22.375 10.8552C22.375 10.981 22.425 11.1017 22.5139 11.1907C22.6029 11.2797 22.7236 11.3297 22.8494 11.3297H23.5135V11.9938C23.5135 12.1196 23.5635 12.2403 23.6525 12.3293C23.7415 12.4183 23.8621 12.4683 23.9879 12.4683C24.1138 12.4683 24.2344 12.4183 24.3234 12.3293C24.4124 12.2403 24.4624 12.1196 24.4624 11.9938V11.3297H25.1265C25.1892 11.3304 25.2515 11.3186 25.3097 11.2951C25.3679 11.2716 25.4208 11.2368 25.4655 11.1926C25.5101 11.1485 25.5455 11.096 25.5697 11.0381C25.5939 10.9802 25.6063 10.918 25.6063 10.8553C25.6063 10.7925 25.5939 10.7304 25.5697 10.6724C25.5455 10.6145 25.5101 10.562 25.4655 10.5179C25.4208 10.4737 25.3679 10.4389 25.3097 10.4154C25.2515 10.3919 25.1892 10.3801 25.1265 10.3808ZM34.2981 27.27H33.634V26.6059C33.634 26.48 33.584 26.3594 33.495 26.2704C33.406 26.1814 33.2854 26.1314 33.1595 26.1314C33.0337 26.1314 32.913 26.1814 32.8241 26.2704C32.7351 26.3594 32.6851 26.48 32.6851 26.6059V27.27H32.021C31.8952 27.27 31.7745 27.32 31.6855 27.409C31.5966 27.498 31.5466 27.6186 31.5466 27.7445C31.5466 27.8703 31.5966 27.991 31.6855 28.0799C31.7745 28.1689 31.8952 28.2189 32.021 28.2189H32.6851V28.8831C32.6851 29.0089 32.7351 29.1296 32.8241 29.2185C32.913 29.3075 33.0337 29.3575 33.1595 29.3575C33.2854 29.3575 33.406 29.3075 33.495 29.2185C33.584 29.1296 33.634 29.0089 33.634 28.8831V28.2189H34.2981C34.4239 28.2189 34.5446 28.1689 34.6335 28.0799C34.7225 27.991 34.7725 27.8703 34.7725 27.7445C34.7725 27.6186 34.7225 27.498 34.6335 27.409C34.5446 27.32 34.4239 27.27 34.2981 27.27ZM11.8978 15.7786H11.2337V15.1145C11.2337 14.9886 11.1837 14.8679 11.0948 14.779C11.0058 14.69 10.8851 14.64 10.7593 14.64C10.6335 14.64 10.5128 14.69 10.4238 14.779C10.3349 14.8679 10.2849 14.9886 10.2849 15.1145V15.7786H9.62075C9.49493 15.7786 9.37426 15.8286 9.28529 15.9176C9.19632 16.0065 9.14634 16.1272 9.14634 16.253C9.14634 16.3789 9.19632 16.4996 9.28529 16.5885C9.37426 16.6775 9.49493 16.7275 9.62075 16.7275H10.2849V17.3916C10.2849 17.5175 10.3349 17.6381 10.4238 17.7271C10.5128 17.8161 10.6335 17.8661 10.7593 17.8661C10.8851 17.8661 11.0058 17.8161 11.0948 17.7271C11.1837 17.6381 11.2337 17.5175 11.2337 17.3916V16.7275H11.8978C12.0237 16.7275 12.1443 16.6775 12.2333 16.5885C12.3223 16.4996 12.3723 16.3789 12.3723 16.253C12.3723 16.1272 12.3223 16.0065 12.2333 15.9176C12.1443 15.8286 12.0237 15.7786 11.8978 15.7786Z" fill="#3C83F6" stroke="#3C83F6" stroke-width="0.7"/>
<path d="M21.0694 32.6701H20.4053V32.0059C20.4053 31.8801 20.3553 31.7594 20.2664 31.6705C20.1774 31.5815 20.0567 31.5315 19.9309 31.5315C19.8051 31.5315 19.6844 31.5815 19.5954 31.6705C19.5065 31.7594 19.4565 31.8801 19.4565 32.0059V32.6701H18.7924C18.6665 32.6701 18.5459 32.7201 18.4569 32.8091C18.3679 32.898 18.3179 33.0187 18.3179 33.1445C18.3179 33.2704 18.3679 33.391 18.4569 33.48C18.5459 33.569 18.6665 33.619 18.7924 33.619H19.4565V34.2831C19.4565 34.409 19.5065 34.5296 19.5954 34.6186C19.6844 34.7076 19.8051 34.7576 19.9309 34.7576C20.0567 34.7576 20.1774 34.7076 20.2664 34.6186C20.3553 34.5296 20.4053 34.409 20.4053 34.2831V33.619H21.0694C21.1953 33.619 21.3159 33.569 21.4049 33.48C21.4939 33.391 21.5439 33.2704 21.5439 33.1445C21.5439 33.0187 21.4939 32.898 21.4049 32.8091C21.3159 32.7201 21.1953 32.6701 21.0694 32.6701ZM18.081 28.8537C16.1215 30.1475 13.4922 29.8793 11.8291 28.2161C9.89027 26.2772 9.89027 23.1224 11.8291 21.1834C12.411 20.6015 13.1106 20.1829 13.8698 19.9476C13.8517 19.9651 13.8339 19.9827 13.8161 20.0004C12.099 21.7176 12.099 24.5117 13.8161 26.2289C14.4277 26.8421 15.2068 27.261 16.0556 27.4331C16.9044 27.6052 17.785 27.5228 18.5872 27.1963C18.6459 27.1736 18.6996 27.1395 18.7449 27.0958C18.7903 27.0522 18.8266 27 18.8516 26.9422C18.8766 26.8844 18.8898 26.8222 18.8906 26.7592C18.8913 26.6963 18.8795 26.6338 18.8558 26.5755C18.8321 26.5171 18.7971 26.4641 18.7527 26.4194C18.7083 26.3747 18.6555 26.3393 18.5973 26.3153C18.5391 26.2913 18.4767 26.279 18.4138 26.2794C18.3508 26.2797 18.2886 26.2925 18.2306 26.3172C17.6012 26.5733 16.9101 26.6379 16.2441 26.5029C15.5781 26.3679 14.9668 26.0392 14.4869 25.5581C13.1397 24.2109 13.1397 22.0187 14.4869 20.6714C14.937 20.2206 15.5032 19.9033 16.1227 19.7548C16.2309 19.7289 16.3266 19.6659 16.393 19.5767C16.4594 19.4874 16.4924 19.3777 16.4861 19.2667C16.4798 19.1556 16.4348 19.0503 16.3587 18.9691C16.2827 18.8879 16.1806 18.836 16.0702 18.8224C14.2464 18.5987 12.4559 19.2146 11.1582 20.5124C10.0398 21.6309 9.42383 23.1179 9.42383 24.6996C9.42383 26.2814 10.0398 27.7685 11.1582 28.8869C12.2993 30.028 13.8223 30.6175 15.3548 30.6175C16.4821 30.6175 17.6146 30.2985 18.6037 29.6453C18.6557 29.611 18.7004 29.5668 18.7353 29.5152C18.7702 29.4636 18.7946 29.4056 18.8071 29.3446C18.8196 29.2835 18.8199 29.2206 18.8081 29.1594C18.7963 29.0983 18.7725 29.04 18.7382 28.988C18.7039 28.9361 18.6596 28.8913 18.608 28.8565C18.5564 28.8216 18.4984 28.7972 18.4374 28.7847C18.3764 28.7722 18.3135 28.7719 18.2523 28.7837C18.1912 28.7956 18.133 28.8193 18.081 28.8537Z" fill="#3C83F6" stroke="#3C83F6" stroke-width="0.7"/>
</svg>
