<svg width="44" height="44" viewBox="0 0 44 44" fill="none" xmlns="http://www.w3.org/2000/svg">
<path d="M21.5 8.10156C20.9337 8.10156 20.4746 8.56068 20.4746 9.127C20.4746 9.69331 20.9337 10.1524 21.5 10.1524C24.8931 10.1524 27.6537 12.9125 27.6537 16.3051C27.6537 16.8714 28.1128 17.3305 28.6791 17.3305C29.2454 17.3305 29.7046 16.8714 29.7046 16.3051C29.7046 11.7816 26.0241 8.10156 21.5 8.10156Z" fill="#3C83F6"/>
<path d="M18.8575 4.27469C14.2246 5.24277 10.4681 8.96333 9.47966 13.625C8.64502 17.5615 9.67353 21.5135 12.3015 24.4678C13.5861 25.9118 14.3227 27.818 14.3227 29.7028V31.7537C14.3227 33.1182 15.216 34.2774 16.4483 34.6789C16.8536 37.0733 18.9318 39 21.5008 39C24.0691 39 26.1479 37.0739 26.5532 34.6789C27.7855 34.2774 28.6788 33.1182 28.6788 31.7536V29.7027C28.6788 27.8142 29.418 25.931 30.7599 24.3999C32.7238 22.1601 33.8064 19.2826 33.806 16.3037C33.806 8.54017 26.6998 2.63632 18.8575 4.27469ZM21.5008 36.9492C20.1826 36.9492 19.0269 36.0422 18.6001 34.8231H24.4014C23.9747 36.0422 22.8189 36.9492 21.5008 36.9492ZM26.628 31.7537C26.628 32.3191 26.1679 32.7791 25.6025 32.7791H17.399C16.8336 32.7791 16.3736 32.3191 16.3736 31.7537V30.7282H26.628V31.7537ZM29.2177 23.0482C27.7875 24.6798 26.9076 26.6473 26.6844 28.6773H16.3174C16.0944 26.6462 15.2168 24.6593 13.8339 23.1047C11.6437 20.6426 10.7879 17.3424 11.486 14.0505C12.3008 10.2075 15.4318 7.08576 19.2771 6.28229C25.8415 4.91046 31.7551 9.84021 31.7551 16.3037C31.7555 18.7853 30.8536 21.1823 29.2177 23.0482ZM7.07631 16.3037H5.02544C4.45912 16.3037 4 16.7629 4 17.3292C4 17.8955 4.45912 18.3546 5.02544 18.3546H7.07631C7.64262 18.3546 8.10174 17.8955 8.10174 17.3292C8.10174 16.7629 7.64262 16.3037 7.07631 16.3037ZM7.50104 11.1766L6.05087 9.72639C5.65047 9.32592 5.00117 9.32592 4.6007 9.72639C4.20023 10.1269 4.20023 10.7761 4.6007 11.1766L6.05087 12.6267C6.45127 13.0272 7.10058 13.0273 7.50104 12.6267C7.90151 12.2263 7.90151 11.577 7.50104 11.1766ZM7.50104 22.0316C7.10058 21.6312 6.45127 21.6312 6.05087 22.0316L4.6007 23.4818C4.20023 23.8823 4.20023 24.5315 4.6007 24.932C5.0011 25.3324 5.65041 25.3325 6.05087 24.932L7.50104 23.4818C7.90151 23.0813 7.90151 22.4321 7.50104 22.0316ZM37.9761 16.3037H35.9252C35.3589 16.3037 34.8998 16.7629 34.8998 17.3292C34.8998 17.8955 35.3589 18.3546 35.9252 18.3546H37.9761C38.5424 18.3546 39.0016 17.8955 39.0016 17.3292C39.0016 16.7629 38.5424 16.3037 37.9761 16.3037ZM38.4009 9.72639C38.0005 9.32592 37.3512 9.32592 36.9507 9.72639L35.5005 11.1766C35.1 11.577 35.1 12.2263 35.5005 12.6267C35.9009 13.0271 36.5502 13.0272 36.9507 12.6267L38.4009 11.1766C38.8013 10.7761 38.8013 10.1269 38.4009 9.72639ZM38.4009 23.4818L36.9507 22.0316C36.5503 21.6312 35.901 21.6312 35.5005 22.0316C35.1 22.4321 35.1 23.0813 35.5005 23.4818L36.9507 24.932C37.3511 25.3324 38.0004 25.3324 38.4009 24.932C38.8013 24.5315 38.8013 23.8823 38.4009 23.4818Z" fill="#3C83F6"/>
</svg>
