<svg width="30" height="30" viewBox="0 0 30 30" fill="none" xmlns="http://www.w3.org/2000/svg">
<path d="M28.2422 19.488V2.63672C28.2422 1.18283 27.0594 0 25.6055 0H6.21094C4.75705 0 3.57422 1.18283 3.57422 2.63672V3.57422H2.63672C1.18283 3.57422 0 4.75705 0 6.21094C0 7.66482 1.18283 8.84766 2.63672 8.84766H3.57422V12.3633H2.63672C1.18283 12.3633 0 13.5461 0 15C0 16.4539 1.18283 17.6367 2.63672 17.6367H3.57422V21.1523H2.63672C1.18283 21.1523 0 22.3352 0 23.7891C0 25.2429 1.18283 26.4258 2.63672 26.4258H3.57422V27.3047C3.57422 28.0052 3.84357 28.6727 4.33266 29.1843C4.83551 29.7103 5.5026 30 6.21094 30H23.8477C27.2401 30 30 27.2138 30 23.7891C30 22.1166 29.3289 20.5982 28.2422 19.488ZM2.63672 7.08984C2.15209 7.08984 1.75781 6.69557 1.75781 6.21094C1.75781 5.72631 2.15209 5.33203 2.63672 5.33203H4.45312C4.93775 5.33203 5.33203 5.72631 5.33203 6.21094C5.33203 6.69557 4.93775 7.08984 4.45312 7.08984H2.63672ZM2.63672 15.8789C2.15209 15.8789 1.75781 15.4846 1.75781 15C1.75781 14.5154 2.15209 14.1211 2.63672 14.1211H4.45312C4.93775 14.1211 5.33203 14.5154 5.33203 15C5.33203 15.4846 4.93775 15.8789 4.45312 15.8789H2.63672ZM4.45312 24.668H2.63672C2.15209 24.668 1.75781 24.2737 1.75781 23.7891C1.75781 23.3044 2.15209 22.9102 2.63672 22.9102H4.45312C4.93775 22.9102 5.33203 23.3044 5.33203 23.7891C5.33203 24.2737 4.93775 24.668 4.45312 24.668ZM6.21094 28.2422C5.74277 28.2422 5.33203 27.8041 5.33203 27.3047V26.2746C6.35502 25.9118 7.08984 24.9349 7.08984 23.7891C7.08984 22.6433 6.35502 21.6663 5.33203 21.3035V17.4855C6.35502 17.1227 7.08984 16.1458 7.08984 15C7.08984 13.8542 6.35502 12.8773 5.33203 12.5145V8.69648C6.35502 8.33367 7.08984 7.35674 7.08984 6.21094C7.08984 5.06514 6.35502 4.0882 5.33203 3.72539V2.63672C5.33203 2.15209 5.72631 1.75781 6.21094 1.75781H25.6055C26.0901 1.75781 26.4844 2.15209 26.4844 2.63672V18.2312C25.6848 17.8503 24.7907 17.6367 23.8477 17.6367C20.4553 17.6367 17.6953 20.3967 17.6953 23.7891C17.6953 25.534 18.4121 27.1129 19.5636 28.2422H6.21094ZM23.8477 28.2422C21.4245 28.2422 19.4531 26.2446 19.4531 23.7891C19.4531 21.3659 21.4245 19.3945 23.8477 19.3945C26.2708 19.3945 28.2422 21.3659 28.2422 23.7891C28.2422 26.2446 26.2708 28.2422 23.8477 28.2422Z" fill="#3C83F6"/>
<path d="M23.8467 7.08987H18.5733C18.0879 7.08987 17.6944 7.48338 17.6944 7.96877C17.6944 8.45416 18.0879 8.84768 18.5733 8.84768H23.8467C24.3321 8.84768 24.7256 8.45416 24.7256 7.96877C24.7256 7.48338 24.3321 7.08987 23.8467 7.08987ZM23.8467 14.1211H18.5733C18.0879 14.1211 17.6944 14.5146 17.6944 15C17.6944 15.4854 18.0879 15.8789 18.5733 15.8789H23.8467C24.3321 15.8789 24.7256 15.4854 24.7256 15C24.7256 14.5146 24.3321 14.1211 23.8467 14.1211ZM25.6045 22.9102H24.7256V22.0313C24.7256 21.5459 24.3321 21.1524 23.8467 21.1524C23.3613 21.1524 22.9678 21.5459 22.9678 22.0313V23.7891C22.9678 24.2745 23.3613 24.668 23.8467 24.668H25.6045C26.0899 24.668 26.4834 24.2745 26.4834 23.7891C26.4834 23.3037 26.0899 22.9102 25.6045 22.9102ZM15.6205 5.58946C15.2773 5.24621 14.7208 5.24621 14.3776 5.58951L11.4834 8.48364L10.1 7.10018C9.75681 6.75694 9.20028 6.75694 8.85704 7.10018C8.5138 7.44342 8.5138 7.99989 8.85704 8.34313L10.862 10.3481C11.0336 10.5197 11.2585 10.6055 11.4834 10.6055C11.7084 10.6055 11.9333 10.5197 12.1049 10.348L15.6205 6.83241C15.9638 6.48916 15.9638 5.9327 15.6205 5.58946ZM15.6205 12.6207C15.2773 12.2775 14.7208 12.2775 14.3776 12.6208L11.4834 15.5149L10.1 14.1314C9.75681 13.7882 9.20028 13.7882 8.85704 14.1314C8.5138 14.4747 8.5138 15.0311 8.85704 15.3744L10.862 17.3793C11.0336 17.551 11.2585 17.6367 11.4834 17.6367C11.7084 17.6367 11.9333 17.551 12.1049 17.3793L15.6205 13.8637C15.9638 13.5204 15.9638 12.9639 15.6205 12.6207ZM15.6205 19.652C15.2773 19.3087 14.7208 19.3087 14.3776 19.652L11.4834 22.5461L10.1 21.1627C9.75681 20.8194 9.20028 20.8194 8.85704 21.1627C8.5138 21.5059 8.5138 22.0624 8.85704 22.4056L10.862 24.4106C11.0336 24.5822 11.2585 24.668 11.4834 24.668C11.7084 24.668 11.9333 24.5822 12.1049 24.4105L15.6205 20.8949C15.9638 20.5517 15.9638 19.9952 15.6205 19.652Z" fill="#3C83F6"/>
</svg>
