<svg width="44" height="44" viewBox="0 0 44 44" fill="none" xmlns="http://www.w3.org/2000/svg">
<path d="M28.3894 13.214C28.9312 13.0748 29.51 13.2307 29.9095 13.6302C30.3355 14.0563 30.4844 14.6864 30.2938 15.258L27.4243 23.8667C27.1899 24.5695 26.7952 25.2084 26.2713 25.7323C25.7473 26.2563 25.1077 26.6501 24.4048 26.8844L24.4056 26.8853L15.7969 29.7549C15.2253 29.9454 14.5953 29.7965 14.1691 29.3705C13.743 28.9444 13.5943 28.3144 13.7848 27.7427L16.6544 19.134L16.75 18.8738C16.9897 18.2734 17.3489 17.7269 17.8074 17.2684C18.3313 16.7445 18.9701 16.3497 19.673 16.1154L28.2817 13.2459L28.3894 13.214ZM20.6795 19.134C20.4452 19.2121 20.232 19.3437 20.0573 19.5184C19.9263 19.6495 19.8192 19.802 19.7411 19.9691L19.673 20.1405L17.8091 25.7297L23.3991 23.8667L23.5706 23.7977C23.7375 23.7196 23.8903 23.6133 24.0213 23.4823C24.1959 23.3077 24.3275 23.0945 24.4056 22.8602L26.2687 17.2701L20.6795 19.134Z" fill="#3C83F6"/>
<path d="M36.3576 21.5C36.3576 13.5923 29.9467 7.18157 22.0391 7.1815C14.1313 7.1815 7.72057 13.5923 7.72057 21.5C7.72063 29.4077 14.1314 35.8185 22.0391 35.8185C29.9467 35.8184 36.3575 29.4076 36.3576 21.5ZM39.5391 21.5C39.539 31.1649 31.704 38.9999 22.0391 39C12.3741 39 4.53912 31.165 4.53906 21.5C4.53906 11.835 12.3741 4 22.0391 4C31.704 4.00006 39.5391 11.835 39.5391 21.5Z" fill="#3C83F6"/>
</svg>
