<svg width="44" height="44" viewBox="0 0 44 44" fill="none" xmlns="http://www.w3.org/2000/svg">
<path d="M34.6313 10.3399C34.6259 10.3221 34.6121 10.2867 34.5799 10.2342C34.5123 10.1242 34.3743 9.95895 34.1164 9.75569C33.5912 9.3418 32.7329 8.89945 31.5304 8.49855C29.1413 7.70214 25.7391 7.18192 21.9088 7.18192C18.0784 7.18192 14.6763 7.70214 12.2872 8.49855C11.0847 8.89945 10.2263 9.3418 9.7011 9.75569C9.4432 9.95895 9.30523 10.1242 9.23768 10.2342C9.20547 10.2867 9.19159 10.3221 9.18619 10.3399C9.18131 10.356 9.18175 10.3627 9.18175 10.3638C9.18175 10.365 9.18131 10.3717 9.18619 10.3878C9.19159 10.4055 9.20547 10.441 9.23768 10.4935C9.30523 10.6035 9.4432 10.7687 9.7011 10.972C10.2263 11.3859 11.0847 11.8282 12.2872 12.2291C14.6763 13.0256 18.0784 13.5458 21.9088 13.5458C25.7391 13.5458 29.1413 13.0256 31.5304 12.2291C32.7329 11.8282 33.5912 11.3859 34.1164 10.972C34.3743 10.7687 34.5123 10.6035 34.5799 10.4935C34.6121 10.441 34.6259 10.4055 34.6313 10.3878C34.6362 10.3717 34.6358 10.365 34.6358 10.3638C34.6358 10.3627 34.6362 10.356 34.6313 10.3399ZM37.8175 10.3638C37.8175 11.7192 36.9922 12.7573 36.0864 13.4712C35.1627 14.1992 33.9243 14.785 32.5362 15.2477C29.7433 16.1787 25.986 16.7277 21.9088 16.7277C17.8316 16.7277 14.0743 16.1787 11.2813 15.2477C9.89324 14.785 8.65488 14.1992 7.73114 13.4712C6.82536 12.7573 6 11.7192 6 10.3638C6 9.0085 6.82536 7.97042 7.73114 7.2565C8.65488 6.52848 9.89324 5.94272 11.2813 5.47998C14.0743 4.54895 17.8316 4 21.9088 4C25.986 4 29.7433 4.54895 32.5362 5.47998C33.9243 5.94272 35.1627 6.52848 36.0864 7.2565C36.9922 7.97042 37.8175 9.0085 37.8175 10.3638Z" fill="#3C83F6"/>
<path d="M6 32.6379V10.3644C6 9.48574 6.71226 8.77344 7.59088 8.77344C8.46949 8.77344 9.18175 9.48574 9.18175 10.3644V32.6405C9.18208 32.6427 9.18294 32.6477 9.1853 32.6556C9.1901 32.6717 9.20302 32.7046 9.23324 32.755C9.29652 32.8605 9.42744 33.023 9.67802 33.2247C10.1887 33.6357 11.0431 34.0884 12.2872 34.5032C14.7653 35.3293 18.2278 35.8198 21.9088 35.8198C25.5897 35.8198 29.0522 35.3293 31.5304 34.5032C32.7745 34.0884 33.6288 33.6357 34.1395 33.2247C34.3901 33.023 34.521 32.8605 34.5843 32.755C34.6145 32.7046 34.6274 32.6717 34.6322 32.6556C34.6346 32.6477 34.6355 32.6427 34.6358 32.6405V10.3644C34.6358 9.48574 35.348 8.77344 36.2267 8.77344C37.1053 8.77344 37.8175 9.48574 37.8175 10.3644V32.6379L37.8087 32.8811C37.7192 34.0783 36.9779 35.0245 36.1343 35.7035C35.2196 36.4396 33.9769 37.0414 32.5362 37.5217C29.6441 38.4858 25.8225 39.0017 21.9088 39.0017C17.995 39.0017 14.1734 38.4858 11.2813 37.5217C9.84061 37.0414 8.59789 36.4396 7.6832 35.7035C6.83963 35.0245 6.09836 34.0783 6.00888 32.8811L6 32.6379Z" fill="#3C83F6"/>
<path d="M6 21.5011C6 20.6225 6.71226 19.9102 7.59088 19.9102C8.41465 19.9102 9.0924 20.5363 9.17376 21.3386L9.18175 21.5011C9.18178 21.5014 9.18159 21.5027 9.18175 21.5038C9.18208 21.5059 9.18294 21.5109 9.1853 21.5189C9.1901 21.5349 9.20302 21.5679 9.23324 21.6183C9.29652 21.7238 9.42744 21.8863 9.67802 22.088C10.1887 22.499 11.0431 22.9517 12.2872 23.3664C14.7653 24.1925 18.2278 24.683 21.9088 24.683C25.5897 24.683 29.0522 24.1925 31.5304 23.3664C32.7745 22.9517 33.6288 22.499 34.1395 22.088C34.3901 21.8863 34.521 21.7238 34.5843 21.6183C34.6145 21.5679 34.6274 21.5349 34.6322 21.5189C34.6346 21.5109 34.6355 21.5059 34.6358 21.5038V21.5011C34.6358 20.6225 35.348 19.9102 36.2267 19.9102C37.1053 19.9102 37.8175 20.6225 37.8175 21.5011C37.8175 22.8139 37.0343 23.8424 36.1343 24.5667C35.2196 25.3029 33.9769 25.9047 32.5362 26.385C29.6441 27.3491 25.8225 27.865 21.9088 27.865C17.995 27.865 14.1734 27.3491 11.2813 26.385C9.84061 25.9047 8.59789 25.3029 7.6832 24.5667C6.78328 23.8424 6 22.8139 6 21.5011Z" fill="#3C83F6"/>
</svg>
