<svg width="44" height="44" viewBox="0 0 44 44" fill="none" xmlns="http://www.w3.org/2000/svg">
<path d="M36.2559 28.6279H35.0001V24.0079C35.0001 22.009 33.0905 20.2558 30.9138 20.2558H22.4419V16.0697H24.3954C25.6275 16.0674 26.6257 15.0692 26.628 13.8372V9.23254C26.6257 8.00047 25.6274 7.00229 24.3954 7H19.0931C17.861 7.00229 16.8628 8.00053 16.8605 9.23254V13.8372C16.8628 15.0693 17.8611 16.0674 19.0931 16.0697H21.0466V20.2558H12.5747C10.3979 20.2558 8.48836 22.009 8.48836 24.0079V28.6279H7.23254C6.00053 28.6302 5.00229 29.6284 5 30.8605V34.7675C5.00229 35.9995 6.00053 36.9977 7.23254 37H11.1395C12.3716 36.9977 13.3698 35.9995 13.372 34.7675V30.8605C13.3698 29.6284 12.3715 28.6302 11.1395 28.628H9.88368V24.0079C9.88368 22.6586 11.3041 21.6512 12.5746 21.6512H21.0464V28.628H19.7906C18.5586 28.6302 17.5604 29.6285 17.5581 30.8605V34.7675C17.5604 35.9995 18.5586 36.9977 19.7906 37H23.6976C24.9297 36.9977 25.9278 35.9995 25.9301 34.7675V30.8605C25.9278 29.6284 24.9296 28.6302 23.6976 28.628H22.4418V21.6512H30.9136C32.1841 21.6512 33.6045 22.6586 33.6045 24.0079V28.628H32.3487C31.1167 28.6302 30.1185 29.6285 30.1162 30.8605V34.7675C30.1185 35.9995 31.1167 36.9977 32.3487 37H36.2557C37.4878 36.9977 38.4859 35.9995 38.4882 34.7675V30.8605C38.4861 29.6284 37.4879 28.6302 36.2559 28.6279ZM11.1396 30.0233C11.6019 30.0233 11.9768 30.3981 11.9768 30.8605V34.7675C11.9768 35.2298 11.6019 35.6047 11.1396 35.6047H7.23254C6.77018 35.6047 6.39533 35.2298 6.39533 34.7675V30.8605C6.39533 30.3981 6.77018 30.0233 7.23254 30.0233H11.1396ZM23.6977 30.0233C24.1601 30.0233 24.5349 30.3981 24.5349 30.8605V34.7675C24.5349 35.2298 24.1601 35.6047 23.6977 35.6047H19.7908C19.3284 35.6047 18.9536 35.2298 18.9536 34.7675V30.8605C18.9536 30.3981 19.3284 30.0233 19.7908 30.0233H23.6977ZM19.0931 14.6744C18.6307 14.6744 18.2559 14.2996 18.2559 13.8372V9.23254C18.2559 8.77018 18.6307 8.39533 19.0931 8.39533H24.3954C24.8578 8.39533 25.2326 8.77018 25.2326 9.23254V13.8372C25.2326 14.2996 24.8578 14.6744 24.3954 14.6744H19.0931ZM37.0931 34.7675C37.0931 35.2298 36.7182 35.6047 36.2559 35.6047H32.3489C31.8866 35.6047 31.5117 35.2298 31.5117 34.7675V30.8605C31.5117 30.3981 31.8866 30.0233 32.3489 30.0233H36.2559C36.7182 30.0233 37.0931 30.3981 37.0931 30.8605V34.7675Z" fill="#3C83F6" stroke="#3C83F6"/>
</svg>
