<svg width="44" height="44" viewBox="0 0 44 44" fill="none" xmlns="http://www.w3.org/2000/svg">
<g clip-path="url(#clip0_4363_400)">
<path d="M34.1657 26.6552C33.3166 24.8847 30.2786 22.4273 27.3435 20.0529C25.7065 18.7295 24.1596 17.4783 23.1734 16.4921C22.9264 16.2433 22.5568 16.164 22.2305 16.2812C21.6229 16.5012 21.2479 16.6706 20.9523 16.8022C20.5016 17.0041 20.3501 17.0726 19.7425 17.1339C19.6102 17.147 19.4824 17.1891 19.3683 17.2574C19.2542 17.3257 19.1567 17.4183 19.0826 17.5287C17.8079 19.4344 16.4882 19.2721 15.6065 18.9765C15.3253 18.8828 15.2748 18.7619 15.2478 18.6466C15.0585 17.8551 16.0087 16.0125 17.24 14.7811C20.1698 11.8496 21.6806 11.1157 24.8717 12.5419C28.492 14.1609 32.1195 15.4284 32.1555 15.441C32.2674 15.4801 32.3859 15.4968 32.5042 15.4901C32.6225 15.4834 32.7384 15.4533 32.8451 15.4018C32.9518 15.3502 33.0472 15.278 33.126 15.1894C33.2047 15.1009 33.2652 14.9976 33.304 14.8856C33.4662 14.4151 33.2192 13.9012 32.7487 13.7372C32.7126 13.7246 29.1572 12.4824 25.6091 10.894C21.475 9.04596 19.2069 10.2629 15.9671 13.5046C14.7339 14.7378 13.0589 17.233 13.4916 19.063C13.6773 19.8419 14.2255 20.4189 15.0403 20.6875C17.0831 21.3618 18.9472 20.7163 20.3355 18.8737C20.9088 18.7854 21.2207 18.6556 21.6894 18.4447C21.898 18.3505 22.1084 18.2603 22.3205 18.1742C23.3518 19.1424 24.7436 20.2692 26.2094 21.4537C28.8597 23.5974 31.8652 26.0277 32.5413 27.434C32.8748 28.1281 32.516 28.5807 32.2726 28.788C31.9156 29.0945 31.4271 29.1919 31.162 29.0061C30.87 28.806 30.4896 28.7934 30.1885 28.9737C30.0403 29.062 29.9205 29.191 29.8435 29.3453C29.7665 29.4997 29.7354 29.673 29.754 29.8445C29.8152 30.4178 29.2906 30.7459 29.0634 30.8595C28.4865 31.1516 27.8843 31.1012 27.6589 30.892C27.4065 30.6576 27.0441 30.5891 26.7232 30.7081C26.4023 30.8289 26.1787 31.1246 26.1463 31.4671C26.0922 32.0584 25.6541 32.6263 25.0825 32.8481C24.8067 32.9526 24.4064 33.0158 24.0477 32.6876C23.9376 32.5885 23.8051 32.5176 23.6616 32.4812C23.518 32.4447 23.3678 32.4438 23.2238 32.4784C23.0796 32.5136 22.9465 32.5839 22.8361 32.683C22.7256 32.782 22.6414 32.9069 22.5909 33.0464C22.5567 33.1365 22.4791 33.3529 21.6354 33.3529C21.035 33.3529 19.955 32.9472 19.4268 32.5974C18.794 32.181 14.8257 29.2206 11.3985 26.3503C10.9171 25.9447 10.0841 25.0756 9.34854 24.3076C8.69585 23.6261 8.09912 23.0077 7.79259 22.7481C7.40857 22.4236 6.84065 22.4723 6.52154 22.8545C6.20065 23.2349 6.24747 23.8047 6.62794 24.1256C6.90742 24.3618 7.44829 24.9332 8.04503 25.5552C8.84916 26.3954 9.68025 27.2644 10.2392 27.7332C13.5963 30.544 17.6312 33.5783 18.4352 34.1065C19.0987 34.5428 20.5284 35.1558 21.6354 35.1558C22.5243 35.1558 23.2076 34.952 23.6817 34.5536C24.3163 34.8007 25.0375 34.8024 25.7316 34.532C26.552 34.2147 27.2262 33.5746 27.6085 32.7994C28.3188 32.9509 29.132 32.8445 29.8711 32.4731C30.5941 32.109 31.1169 31.5519 31.3765 30.9009C32.0941 30.9388 32.8332 30.6846 33.4444 30.1599C34.4795 29.2748 34.7643 27.8974 34.1657 26.6552Z" fill="#3C83F6"/>
<path d="M18.0283 11.7188H9.91516C9.41755 11.7188 9.01367 12.1226 9.01367 12.6202C9.01367 13.1178 9.41755 13.5217 9.91516 13.5217H18.0283C18.5259 13.5217 18.9298 13.1178 18.9298 12.6202C18.9298 12.1226 18.5259 11.7188 18.0283 11.7188ZM36.8057 24.7376C36.5262 24.3248 35.9673 24.2112 35.5545 24.4924L32.9187 26.2629C32.5058 26.5405 32.3958 27.1012 32.6735 27.5141C32.7564 27.6367 32.8681 27.7372 32.9989 27.8067C33.1297 27.8761 33.2755 27.9125 33.4235 27.9125C33.5948 27.9125 33.7697 27.8639 33.9248 27.7593L36.5606 25.9889C36.9734 25.7112 37.0833 25.1505 36.8057 24.7376ZM31.2094 29.0394C30.564 28.531 27.6775 25.5761 25.8926 23.7154C25.5482 23.3548 24.9768 23.3422 24.6179 23.6884C24.2573 24.0328 24.2465 24.6043 24.5909 24.9631C25.0542 25.4462 29.1414 29.7066 30.0916 30.4566C30.2503 30.5818 30.4465 30.6498 30.6487 30.6495C30.9137 30.6495 31.1787 30.5306 31.359 30.3052C31.6674 29.9156 31.6007 29.3477 31.2094 29.0394ZM27.6072 30.8477C26.5272 29.9841 23.8139 27.1012 23.2008 26.4342C22.8618 26.0664 22.2939 26.0448 21.9261 26.3801C21.5601 26.7172 21.5349 27.2888 21.872 27.6548C21.9045 27.689 25.1426 31.1849 26.4803 32.2559C26.6403 32.3829 26.8385 32.4521 27.0428 32.4523C27.3061 32.4523 27.5692 32.3351 27.7477 32.1152C28.058 31.7257 27.9948 31.1578 27.6072 30.8477ZM24.0194 32.6633C22.7339 31.5798 20.1035 28.7798 19.5896 28.2299C19.2489 27.8657 18.6773 27.8459 18.3149 28.1866C17.9508 28.5274 17.9327 29.0971 18.2717 29.4613C19.0109 30.2528 21.5277 32.9211 22.8565 34.0425C23.0188 34.1798 23.2245 34.2552 23.437 34.2552C23.693 34.2552 23.9491 34.1453 24.1276 33.9343C24.4485 33.5521 24.3998 32.9842 24.0194 32.6633Z" fill="#3C83F6"/>
<path d="M10.5362 10.1626C8.99112 8.69865 2.81255 8.22446 0.955574 8.11451C0.699588 8.10191 0.463378 8.1866 0.283114 8.3579C0.193662 8.44219 0.1224 8.54389 0.0737121 8.65675C0.025024 8.7696 -6.10044e-05 8.89122 1.11406e-07 9.01413V25.2404C1.11406e-07 25.738 0.403882 26.1419 0.901487 26.1419H6.31024C6.69967 26.1419 7.04583 25.8913 7.16659 25.5199C7.29818 25.116 10.4047 15.5822 10.8139 10.8946C10.8374 10.6205 10.7364 10.3501 10.5362 10.1626ZM5.65214 24.339H1.80289V9.98053C4.7002 10.2095 7.82646 10.7071 8.9623 11.2588C8.48455 15.2072 6.32283 22.2223 5.65214 24.339ZM42.3685 9.91562C35.2902 9.91562 31.3635 11.7276 31.1994 11.8033C30.9651 11.9132 30.7902 12.117 30.7181 12.364C30.646 12.611 30.682 12.8761 30.8172 13.096C31.9314 14.8899 35.42 24.8528 36.0907 27.2831C36.1432 27.4733 36.2566 27.641 36.4136 27.7606C36.5706 27.8801 36.7625 27.9448 36.9598 27.9448H42.3685C42.8661 27.9448 43.27 27.5409 43.27 27.0433V10.817C43.2701 10.6986 43.2469 10.5813 43.2016 10.4719C43.1563 10.3625 43.0899 10.2631 43.0062 10.1794C42.9224 10.0957 42.823 10.0293 42.7136 9.98401C42.6042 9.93875 42.4869 9.91551 42.3685 9.91562ZM41.4671 26.1419H37.6341C36.7795 23.3581 34.2554 16.0996 32.8473 13.0996C34.2229 12.6327 37.178 11.8303 41.4671 11.7294V26.1419Z" fill="#3C83F6"/>
</g>
<defs>
<clipPath id="clip0_4363_400">
<rect width="43.27" height="43.27" fill="white"/>
</clipPath>
</defs>
</svg>
