<svg width="35" height="35" viewBox="0 0 35 35" fill="none" xmlns="http://www.w3.org/2000/svg">
<path d="M23.8503 9.21397C24.3922 9.07485 24.9709 9.23071 25.3704 9.63018C25.7964 10.0563 25.9453 10.6864 25.7548 11.258L22.8852 19.8667C22.6509 20.5695 22.2561 21.2084 21.7322 21.7323C21.2082 22.2563 20.5687 22.6501 19.8657 22.8844L19.8666 22.8853L11.2579 25.7549C10.6863 25.9454 10.0562 25.7965 9.63008 25.3705C9.20398 24.9444 9.05519 24.3144 9.24574 23.7427L12.1153 15.134L12.211 14.8738C12.4506 14.2734 12.8098 13.7269 13.2683 13.2684C13.7922 12.7445 14.431 12.3497 15.1339 12.1154L23.7426 9.24585L23.8503 9.21397ZM16.1404 15.134C15.9061 15.2121 15.6929 15.3437 15.5183 15.5184C15.3872 15.6495 15.2802 15.802 15.202 15.9691L15.1339 16.1405L13.27 21.7297L18.8601 19.8667L19.0315 19.7977C19.1984 19.7196 19.3513 19.6133 19.4822 19.4823C19.6569 19.3077 19.7885 19.0945 19.8666 18.8602L21.7296 13.2701L16.1404 15.134Z" fill="#3C83F6"/>
<path d="M31.8185 17.5C31.8185 9.5923 25.4077 3.18157 17.5 3.1815C9.59226 3.1815 3.1815 9.59226 3.1815 17.5C3.18157 25.4077 9.5923 31.8185 17.5 31.8185C25.4076 31.8184 31.8184 25.4076 31.8185 17.5ZM35 17.5C34.9999 27.1649 27.1649 34.9999 17.5 35C7.83503 35 6.16255e-05 27.165 0 17.5C0 7.83499 7.83499 0 17.5 0C27.165 6.16295e-05 35 7.83503 35 17.5Z" fill="#3C83F6"/>
</svg>
