<svg width="44" height="44" viewBox="0 0 44 44" fill="none" xmlns="http://www.w3.org/2000/svg">
<path d="M30.0613 22.8328C29.8701 24.6865 29.0487 26.4184 27.7343 27.7395C26.4199 29.0605 24.6921 29.8907 22.8394 30.0913C22.8021 30.0908 22.7651 30.0978 22.7306 30.1119C22.696 30.126 22.6646 30.1468 22.6382 30.1732C22.6118 30.1996 22.591 30.231 22.5769 30.2655C22.5629 30.3001 22.5558 30.3371 22.5563 30.3744V36.4337C22.5563 36.5839 22.4966 36.7279 22.3904 36.8341C22.2842 36.9403 22.1402 37 21.99 37C21.8398 37 21.6958 36.9403 21.5896 36.8341C21.4834 36.7279 21.4237 36.5839 21.4237 36.4337V34.2352C21.4183 34.1619 21.3868 34.0929 21.3348 34.041C21.2828 33.989 21.2139 33.9574 21.1406 33.952C18.622 33.7482 16.233 32.7505 14.3174 31.1026C12.4019 29.4546 11.0587 27.2414 10.481 24.7815C10.4595 24.7086 10.4529 24.6321 10.4616 24.5566C10.4702 24.4811 10.494 24.4082 10.5315 24.3421C10.5689 24.2759 10.6193 24.218 10.6796 24.1718C10.7399 24.1256 10.8089 24.092 10.8825 24.073C10.9561 24.0539 11.0327 24.0499 11.1079 24.0612C11.183 24.0724 11.2552 24.0987 11.32 24.1383C11.3848 24.178 11.4409 24.2304 11.4851 24.2922C11.5292 24.3541 11.5605 24.4242 11.5769 24.4983C12.0905 26.7064 13.288 28.696 14.9986 30.1836C16.7093 31.6712 18.8459 32.5808 21.1039 32.7828C21.1772 32.8195 21.2472 32.7828 21.3171 32.7129C21.3541 32.692 21.384 32.6605 21.403 32.6226C21.422 32.5846 21.4292 32.5418 21.4237 32.4997V30.3744C21.4242 30.3371 21.4171 30.3001 21.4031 30.2655C21.389 30.231 21.3682 30.1996 21.3418 30.1732C21.3154 30.1468 21.284 30.126 21.2495 30.1119C21.2149 30.0978 21.1779 30.0908 21.1406 30.0913C19.2967 29.8859 17.5761 29.0643 16.2572 27.7595C14.9385 26.4342 14.1153 24.696 13.9254 22.8361C13.9146 22.768 13.8804 22.7059 13.8287 22.6603C13.7771 22.6147 13.7111 22.5885 13.6422 22.5863H7.58294C7.42834 22.5863 7.28006 22.5249 7.17074 22.4155C7.06142 22.3062 7 22.1579 7 22.0033C7 21.8487 7.06142 21.7005 7.17074 21.5911C7.28006 21.4818 7.42834 21.4204 7.58294 21.4204H9.88474C9.95343 21.4175 10.019 21.3911 10.0706 21.3456C10.1221 21.3002 10.1565 21.2383 10.1679 21.1706C10.319 18.6557 11.2534 16.2512 12.8401 14.2942C14.4267 12.3371 16.5861 10.9257 19.0153 10.2578C19.1624 10.2299 19.3147 10.2593 19.4408 10.3401C19.5669 10.4208 19.6573 10.5467 19.6935 10.692C19.7297 10.8373 19.709 10.991 19.6355 11.1214C19.5621 11.2519 19.4415 11.3493 19.2985 11.3937C17.1251 11.9798 15.189 13.2299 13.7606 14.9695C12.3321 16.7092 11.4825 18.8514 11.3304 21.0973C11.3211 21.1386 11.3214 21.1816 11.3315 21.2228C11.3416 21.264 11.3612 21.3023 11.3887 21.3347C11.4162 21.367 11.4508 21.3925 11.4898 21.4091C11.5289 21.4257 11.5712 21.433 11.6136 21.4304H13.6289C13.6978 21.4281 13.7637 21.402 13.8154 21.3564C13.8671 21.3108 13.9013 21.2486 13.9121 21.1805C14.1007 19.3235 14.9218 17.5876 16.2377 16.2637C17.5537 14.9399 19.2846 14.1084 21.1406 13.9087C21.1779 13.9092 21.2149 13.9022 21.2495 13.8881C21.284 13.874 21.3154 13.8532 21.3418 13.8268C21.3682 13.8004 21.389 13.769 21.4031 13.7345C21.4171 13.6999 21.4242 13.6629 21.4237 13.6256V7.56629C21.4237 7.4161 21.4834 7.27206 21.5896 7.16586C21.6958 7.05966 21.8398 7 21.99 7C22.1402 7 22.2842 7.05966 22.3904 7.16586C22.4966 7.27206 22.5563 7.4161 22.5563 7.56629V14.4384C22.5601 14.5186 22.5471 14.5987 22.5182 14.6735C22.4892 14.7484 22.4449 14.8164 22.3882 14.8732C22.3314 14.9299 22.2634 14.9742 22.1885 15.0032C22.1136 15.0321 22.0336 15.0451 21.9534 15.0413C15.7941 15.0413 12.7162 22.5829 17.07 26.94C21.4237 31.2971 28.8554 28.1792 28.962 22C28.9611 21.9254 28.9752 21.8513 29.0033 21.7822C29.0315 21.7131 29.0731 21.6503 29.1259 21.5976C29.1787 21.5448 29.2414 21.5031 29.3106 21.475C29.3797 21.4469 29.4537 21.4328 29.5283 21.4337H36.3971C36.5517 21.4337 36.6999 21.4951 36.8093 21.6045C36.9186 21.7138 36.98 21.8621 36.98 22.0167C36.98 22.1713 36.9186 22.3195 36.8093 22.4289C36.6999 22.5382 36.5517 22.5996 36.3971 22.5996H34.1319C34.0616 22.5968 33.993 22.6212 33.9402 22.6677C33.8875 22.7143 33.8547 22.7793 33.8488 22.8494C33.6649 25.38 32.6863 27.7878 31.0525 29.729C29.4188 31.6702 27.2135 33.0457 24.7515 33.6589C24.0087 33.8354 23.7522 32.7029 24.5017 32.5263C26.7004 31.9797 28.6721 30.757 30.1392 29.0305C31.6063 27.304 32.4948 25.1608 32.6795 22.9027C32.6889 22.8614 32.6886 22.8184 32.6785 22.7772C32.6683 22.736 32.6488 22.6977 32.6213 22.6654C32.5938 22.633 32.5592 22.6075 32.5202 22.5909C32.4811 22.5743 32.4387 22.567 32.3964 22.5696H30.3444C30.2756 22.5719 30.2096 22.598 30.1579 22.6436C30.1063 22.6892 30.0721 22.7514 30.0613 22.8195V22.8328ZM34.6482 13.4124L30.5543 17.483C30.4543 17.5916 30.3154 17.6562 30.1679 17.6629H27.4397C27.3652 17.6694 27.2933 17.6934 27.2298 17.7328L22.3797 22.6196C22.2707 22.7215 22.1264 22.7771 21.9771 22.7747C21.8279 22.7723 21.6854 22.7121 21.5797 22.6068C21.4739 22.5015 21.4131 22.3593 21.4102 22.21C21.4072 22.0608 21.4622 21.9163 21.5636 21.8068L26.4137 16.9167C26.4464 16.9004 26.4737 16.8751 26.4925 16.8439C26.5114 16.8126 26.521 16.7767 26.5203 16.7402V14.0053C26.5196 13.9265 26.5349 13.8484 26.5653 13.7757C26.5956 13.703 26.6404 13.6372 26.6969 13.5823L30.7675 9.51499C30.8461 9.43001 30.9485 9.37068 31.0613 9.34471C31.1741 9.31874 31.2921 9.32735 31.3999 9.36941C31.5078 9.41147 31.6005 9.48503 31.6659 9.58051C31.7313 9.676 31.7665 9.78897 31.7668 9.90473V12.1366C31.7715 12.2101 31.8029 12.2794 31.855 12.3316C31.9071 12.3837 31.9764 12.415 32.05 12.4197H34.2452C34.3623 12.4167 34.4776 12.4489 34.576 12.5123C34.6745 12.5757 34.7516 12.6673 34.7973 12.7752C34.8429 12.8831 34.855 13.0022 34.832 13.117C34.809 13.2319 34.7519 13.3371 34.6682 13.4191L34.6482 13.4124ZM29.9847 16.4104L32.3564 14.0386C32.3976 14.0006 32.4268 13.9512 32.4402 13.8968C32.4536 13.8423 32.4507 13.7851 32.4319 13.7322C32.4131 13.6794 32.3792 13.6332 32.3344 13.5994C32.2896 13.5657 32.2359 13.5458 32.1799 13.5423H31.1805C31.0258 13.5459 30.8759 13.4886 30.7631 13.3826C30.6503 13.2767 30.5837 13.1306 30.5776 12.976V12.0067C30.5773 11.9493 30.5602 11.8933 30.5284 11.8455C30.4966 11.7978 30.4515 11.7604 30.3986 11.7381C30.3458 11.7157 30.2876 11.7094 30.2311 11.7198C30.1747 11.7303 30.1226 11.757 30.0813 11.7968L27.7495 14.1686C27.6873 14.2228 27.6489 14.2994 27.6429 14.3817V16.2239C27.6425 16.2612 27.6495 16.2982 27.6635 16.3327C27.6776 16.3673 27.6985 16.3987 27.7248 16.4251C27.7512 16.4514 27.7826 16.4723 27.8172 16.4864C27.8517 16.5004 27.8887 16.5074 27.926 16.507H29.8015C29.8747 16.507 29.9447 16.507 29.978 16.4337L29.9847 16.4104Z" fill="#3C83F6" stroke="#3C83F6" stroke-width="0.8"/>
</svg>
