<svg width="44" height="44" viewBox="0 0 44 44" fill="none" xmlns="http://www.w3.org/2000/svg">
<path d="M27.8503 13.214C28.3922 13.0748 28.9709 13.2307 29.3704 13.6302C29.7964 14.0563 29.9453 14.6864 29.7548 15.258L26.8852 23.8667C26.6509 24.5695 26.2561 25.2084 25.7322 25.7323C25.2082 26.2563 24.5687 26.6501 23.8657 26.8844L23.8666 26.8853L15.2579 29.7549C14.6863 29.9454 14.0562 29.7965 13.6301 29.3705C13.204 28.9444 13.0552 28.3144 13.2457 27.7427L16.1153 19.134L16.211 18.8738C16.4506 18.2734 16.8098 17.7269 17.2683 17.2684C17.7922 16.7445 18.431 16.3497 19.1339 16.1154L27.7426 13.2459L27.8503 13.214ZM20.1404 19.134C19.9061 19.2121 19.6929 19.3437 19.5183 19.5184C19.3872 19.6495 19.2802 19.802 19.202 19.9691L19.1339 20.1405L17.27 25.7297L22.8601 23.8667L23.0315 23.7977C23.1984 23.7196 23.3513 23.6133 23.4822 23.4823C23.6569 23.3077 23.7885 23.0945 23.8666 22.8602L25.7296 17.2701L20.1404 19.134Z" fill="#A856F7"/>
<path d="M35.8185 21.5C35.8185 13.5923 29.4077 7.18157 21.5 7.1815C13.5923 7.1815 7.1815 13.5923 7.1815 21.5C7.18157 29.4077 13.5923 35.8185 21.5 35.8185C29.4076 35.8184 35.8184 29.4076 35.8185 21.5ZM39 21.5C38.9999 31.1649 31.1649 38.9999 21.5 39C11.835 39 4.00006 31.165 4 21.5C4 11.835 11.835 4 21.5 4C31.165 4.00006 39 11.835 39 21.5Z" fill="#A856F7"/>
</svg>
