<svg width="44" height="44" viewBox="0 0 44 44" fill="none" xmlns="http://www.w3.org/2000/svg">
<path d="M10 32.9088V11.0905C10.0001 10.0056 10.4309 8.96518 11.1981 8.19805C11.9652 7.43092 13.0056 7.00007 14.0905 7H26.3635L26.4987 7.00665C26.8107 7.03771 27.1045 7.17592 27.3281 7.3996L34.1457 14.2171L34.2365 14.3176C34.4353 14.5602 34.5453 14.8653 34.5453 15.1818V32.9088C34.5453 33.9937 34.1144 35.0348 33.3472 35.802C32.5801 36.569 31.5396 36.9999 30.4547 37H14.0905C13.0057 36.9999 11.9652 36.569 11.1981 35.802C10.4309 35.0348 10 33.9937 10 32.9088ZM12.727 32.9088C12.727 33.2704 12.8709 33.6177 13.1266 33.8734C13.3823 34.129 13.729 34.2729 14.0905 34.273H30.4547C30.8163 34.2729 31.163 34.129 31.4187 33.8734C31.6744 33.6177 31.8182 33.2704 31.8182 32.9088V15.7461L25.7992 9.727H14.0905C13.7289 9.72708 13.3823 9.87093 13.1266 10.1266C12.8709 10.3823 12.7271 10.7289 12.727 11.0905V32.9088Z" fill="#3C83F6"/>
<path d="M18.1821 23.3637V28.8185H26.3638V23.3637H18.1821ZM29.0916 28.8185C29.0915 30.3247 27.8701 31.5455 26.3638 31.5455H18.1821C16.6759 31.5454 15.4551 30.3246 15.4551 28.8185V23.3637C15.4552 21.8576 16.676 20.6368 18.1821 20.6367H26.3638C27.87 20.6367 29.0915 21.8576 29.0916 23.3637V28.8185Z" fill="#3C83F6"/>
<path d="M23.6364 22.0018V19.2741C23.6363 18.9126 23.4924 18.5659 23.2368 18.3102C23.013 18.0865 22.7194 17.9483 22.4073 17.9172L22.2721 17.9106C21.9106 17.9107 21.5639 18.0545 21.3082 18.3102C21.0526 18.5659 20.9087 18.9125 20.9086 19.2741V22.0018C20.9085 22.7549 20.2982 23.3653 19.5451 23.3653C18.7921 23.3653 18.1817 22.7549 18.1816 22.0018V19.2741C18.1817 18.1892 18.6126 17.1488 19.3797 16.3816C20.1468 15.6145 21.1873 15.1837 22.2721 15.1836L22.4753 15.1888C23.4864 15.2389 24.4461 15.6624 25.1653 16.3816C25.9324 17.1488 26.3633 18.1893 26.3634 19.2741V22.0018C26.3633 22.7548 25.7529 23.3652 24.9999 23.3653C24.2468 23.3653 23.6365 22.7549 23.6364 22.0018Z" fill="#3C83F6"/>
</svg>
