<svg width="32" height="32" viewBox="0 0 32 32" fill="none" xmlns="http://www.w3.org/2000/svg">
<path fill-rule="evenodd" clip-rule="evenodd" d="M6.23265 1C6.37008 1 6.50617 1.02707 6.63314 1.07966C6.76011 1.13226 6.87548 1.20934 6.97266 1.30652C7.06984 1.4037 7.14693 1.51907 7.19952 1.64604C7.25211 1.77301 7.27918 1.9091 7.27918 2.04653V13.2095C7.27918 13.4871 7.16892 13.7533 6.97266 13.9495C6.7764 14.1458 6.51021 14.2561 6.23265 14.2561C5.95509 14.2561 5.6889 14.1458 5.49264 13.9495C5.29638 13.7533 5.18612 13.4871 5.18612 13.2095V2.04653C5.18612 1.76897 5.29638 1.50278 5.49264 1.30652C5.6889 1.11026 5.95509 1 6.23265 1ZM10.4188 3.79075C10.6963 3.79075 10.9625 3.90101 11.1588 4.09727C11.355 4.29353 11.4653 4.55972 11.4653 4.83728V10.4188C11.4653 10.6963 11.355 10.9625 11.1588 11.1588C10.9625 11.355 10.6963 11.4653 10.4188 11.4653C10.1412 11.4653 9.87503 11.355 9.67876 11.1588C9.4825 10.9625 9.37224 10.6963 9.37224 10.4188V4.83728C9.37224 4.55972 9.4825 4.29353 9.67876 4.09727C9.87503 3.90101 10.1412 3.79075 10.4188 3.79075ZM2.04653 5.18612C2.32409 5.18612 2.59028 5.29638 2.78654 5.49264C2.9828 5.6889 3.09306 5.95509 3.09306 6.23265V9.0234C3.09306 9.30096 2.9828 9.56715 2.78654 9.76341C2.59028 9.95967 2.32409 10.0699 2.04653 10.0699C1.76897 10.0699 1.50278 9.95967 1.30652 9.76341C1.11026 9.56715 1 9.30096 1 9.0234V6.23265C1 5.95509 1.11026 5.6889 1.30652 5.49264C1.50278 5.29638 1.76897 5.18612 2.04653 5.18612ZM14.6049 5.18612C14.8825 5.18612 15.1486 5.29638 15.3449 5.49264C15.5412 5.6889 15.6514 5.95509 15.6514 6.23265V9.0234C15.6514 9.30096 15.5412 9.56715 15.3449 9.76341C15.1486 9.95967 14.8825 10.0699 14.6049 10.0699C14.3273 10.0699 14.0611 9.95967 13.8649 9.76341C13.6686 9.56715 13.5584 9.30096 13.5584 9.0234V6.23265C13.5584 5.95509 13.6686 5.6889 13.8649 5.49264C14.0611 5.29638 14.3273 5.18612 14.6049 5.18612Z" fill="#A856F7" stroke="#A856F7" stroke-width="0.5"/>
<path fill-rule="evenodd" clip-rule="evenodd" d="M19.9076 3.78906H18.7913C18.5137 3.78906 18.2475 3.89932 18.0513 4.09558C17.855 4.29185 17.7448 4.55804 17.7448 4.83559C17.7448 5.11315 17.855 5.37934 18.0513 5.5756C18.2475 5.77186 18.5137 5.88212 18.7913 5.88212H19.9048C21.9518 5.89329 23.4449 5.94352 24.6044 6.14724C25.7375 6.3426 26.4742 6.6733 27.0533 7.19377C27.2626 7.38215 27.4579 7.58867 27.6366 7.80913C28.2115 8.51659 28.5491 9.45428 28.7263 10.9906C28.9063 12.545 28.9077 14.5711 28.9077 17.3926C28.9077 20.214 28.9063 22.2401 28.7263 23.7959C28.5491 25.3308 28.2115 26.2685 27.638 26.976C27.4594 27.1956 27.2639 27.4009 27.0533 27.59C26.3919 28.1844 25.524 28.5318 24.0867 28.716C22.6216 28.9044 20.7071 28.9058 18.0238 28.9058H17.3959C14.4042 28.9058 12.2721 28.903 10.6521 28.6742C9.06832 28.4509 8.13063 28.0281 7.43573 27.2955C6.75758 26.5825 6.35153 25.6183 6.12966 24.0331C5.90361 22.4215 5.88547 20.3131 5.88408 17.394C5.88408 17.1164 5.77382 16.8502 5.57755 16.6539C5.38129 16.4577 5.1151 16.3474 4.83755 16.3474C4.55999 16.3474 4.2938 16.4577 4.09754 16.6539C3.90127 16.8502 3.79102 17.1164 3.79102 17.394C3.79102 20.2684 3.80636 22.5373 4.05614 24.3234C4.31009 26.1332 4.82359 27.5844 5.91757 28.7369C7.06177 29.9412 8.52273 30.4867 10.359 30.7463C12.1423 30.9989 14.4238 30.9988 17.3122 30.9988H18.0978C20.6904 30.9988 22.7374 30.9988 24.3518 30.7923C26.0123 30.5802 27.3519 30.1365 28.4529 29.1458C28.7445 28.8849 29.0152 28.6002 29.2622 28.2946C30.1929 27.1476 30.6073 25.7592 30.8055 24.0359C31.0008 22.3461 31.0008 20.1987 31.0008 17.4609V17.3242C31.0008 14.5865 31.0008 12.4404 30.8055 10.7492C30.6073 9.0259 30.1915 7.6375 29.2622 6.49051C29.015 6.18611 28.7444 5.90152 28.4529 5.63933C27.4928 4.7742 26.3472 4.32489 24.9644 4.08349C23.6067 3.84767 21.9476 3.80023 19.9132 3.79046L19.9076 3.78906Z" fill="#A856F7" stroke="#A856F7" stroke-width="0.5"/>
<path d="M25.3954 24.3395H22.814C22.2419 24.3395 21.7674 23.8651 21.7674 23.293C21.7674 22.7209 22.2419 22.2465 22.814 22.2465H25.3954C25.9674 22.2465 26.4419 22.7209 26.4419 23.293C26.4419 23.8651 25.9674 24.3395 25.3954 24.3395ZM19.0744 24.3395H10.0465C9.47442 24.3395 9 23.8651 9 23.293C9 22.7209 9.47442 22.2465 10.0465 22.2465H19.0744C19.352 22.2465 19.6182 22.3568 19.8144 22.553C20.0107 22.7493 20.1209 23.0155 20.1209 23.293C20.1209 23.5706 20.0107 23.8368 19.8144 24.033C19.6182 24.2293 19.352 24.3395 19.0744 24.3395ZM25.3954 19.093H17.6791C17.107 19.093 16.6326 18.6186 16.6326 18.0465C16.6326 17.4744 17.107 17 17.6791 17H25.3954C25.9674 17 26.4419 17.4744 26.4419 18.0465C26.4419 18.6186 25.9674 19.093 25.3954 19.093ZM13.9116 19.093H10.0465C9.47442 19.093 9 18.6186 9 18.0465C9 17.4744 9.47442 17 10.0465 17H13.9116C14.4837 17 14.9581 17.4744 14.9581 18.0465C14.9581 18.6186 14.4837 19.093 13.9116 19.093Z" fill="#A856F7"/>
</svg>
