<svg width="44" height="44" viewBox="0 0 44 44" fill="none" xmlns="http://www.w3.org/2000/svg">
<mask id="mask0_4363_410" style="mask-type:luminance" maskUnits="userSpaceOnUse" x="4" y="4" width="35" height="35">
<path d="M38.5 38.5V4.5H4.5V38.5H38.5Z" fill="white" stroke="white"/>
<path d="M38.5 38.5V4.5H4.5V38.5H38.5ZM4.86719 4.86719H38.1328V38.1328H4.86719V4.86719Z" fill="white" stroke="white"/>
</mask>
<g mask="url(#mask0_4363_410)">
<path d="M24.2448 38.6602L24.28 38.6593C24.6412 38.641 24.9284 38.3423 24.9284 37.9766V26.0327C24.9284 25.6551 24.6224 25.3491 24.2448 25.3491H14.7933C14.4158 25.3491 14.1097 25.6551 14.1097 26.0327V31.0913H5.3418C4.96426 31.0913 4.6582 31.3974 4.6582 31.7749V37.9766L4.65907 38.0117C4.67738 38.3729 4.97606 38.6602 5.3418 38.6602H24.2448ZM15.4769 26.7163H23.5612V37.293H15.4769V26.7163ZM6.02539 32.4585H14.1097V37.293H6.02539V32.4585Z" fill="#A856F7" stroke="#A856F7" stroke-miterlimit="10" stroke-linecap="round" stroke-linejoin="round"/>
<path d="M33.8717 38.6602C34.2493 38.6602 34.5553 38.3541 34.5553 37.9766V18.0156C34.5553 17.6381 34.2493 17.332 33.8717 17.332H24.2461C23.8686 17.332 23.5625 17.6381 23.5625 18.0156V37.9766L23.5634 38.0117C23.5817 38.3729 23.8804 38.6602 24.2461 38.6602H33.8717ZM24.9297 18.6992H33.1881V37.293H24.9297V18.6992Z" fill="#A856F7" stroke="#A856F7" stroke-miterlimit="10" stroke-linecap="round" stroke-linejoin="round"/>
<path d="M37.9752 12.9766L38.0011 12.9761C38.2674 12.9661 38.5046 12.8018 38.607 12.5541C38.7127 12.2984 38.6538 12.0042 38.4579 11.8088L36.1889 9.54703L38.478 7.06259C38.6619 6.86299 38.7103 6.57349 38.6013 6.32492C38.4924 6.07635 38.2466 5.91577 37.9752 5.91577H28.9727C28.5951 5.91577 28.2891 6.22183 28.2891 6.59936V12.293L28.2899 12.3281C28.3082 12.6893 28.6069 12.9766 28.9727 12.9766H37.9752ZM29.6563 7.28296H36.4159L34.7382 9.10397C34.4894 9.37393 34.4983 9.7921 34.7583 10.0513L36.3212 11.6094H29.6563V7.28296Z" fill="#A856F7" stroke="#A856F7" stroke-miterlimit="10" stroke-linecap="round" stroke-linejoin="round"/>
<path d="M28.2891 5.02737V18.0156C28.2891 18.3932 28.5951 18.6992 28.9727 18.6992C29.3502 18.6992 29.6563 18.3932 29.6563 18.0156V5.02737C29.6563 4.64983 29.3502 4.34377 28.9727 4.34377C28.5951 4.34377 28.2891 4.64983 28.2891 5.02737Z" fill="#A856F7" stroke="#A856F7" stroke-miterlimit="10" stroke-linecap="round" stroke-linejoin="round"/>
<path d="M4.39598 24.8247C4.53845 25.1616 4.9193 25.3247 5.25908 25.2009L5.29186 25.188L5.45421 25.1188C8.86065 23.6542 12.0504 21.5319 14.8294 18.7529L14.9612 18.6202C17.3587 16.1934 19.2596 13.4592 20.6634 10.5452L21.7073 12.6502C21.875 12.9884 22.2852 13.1266 22.6234 12.9589C22.9616 12.7912 23.0999 12.3811 22.9322 12.0428L21.2473 8.64533C21.1286 8.40598 20.8814 8.2577 20.6144 8.26575C20.3473 8.27381 20.1094 8.43676 20.0053 8.68285C18.6288 11.9383 16.6237 14.9919 13.9885 17.6594L13.8626 17.7862C11.2084 20.4404 8.1641 22.4655 4.91421 23.8628L4.75927 23.9288L4.72723 23.9433C4.40169 24.1009 4.2535 24.4879 4.39598 24.8247Z" fill="#A856F7" stroke="#A856F7" stroke-miterlimit="10" stroke-linecap="round" stroke-linejoin="round"/>
<path d="M20.7764 9.62001C21.1458 9.54226 21.3823 9.17975 21.3046 8.81031C21.2268 8.44087 20.8643 8.2044 20.4949 8.28213L20.7764 9.62001ZM16.3195 9.8594C16.3948 10.2173 16.7374 10.4504 17.0946 10.3939L17.1292 10.3876L20.7764 9.62001L20.4949 8.28213L16.8477 9.04964L16.8134 9.05778C16.4637 9.15009 16.2442 9.50151 16.3195 9.8594Z" fill="#A856F7"/>
<path d="M20.7764 9.62001C21.1458 9.54226 21.3823 9.17975 21.3046 8.81031C21.2268 8.44087 20.8643 8.2044 20.4949 8.28213M20.7764 9.62001L20.4949 8.28213M20.7764 9.62001L17.1292 10.3876L17.0946 10.3939C16.7374 10.4504 16.3948 10.2173 16.3195 9.8594C16.2442 9.50151 16.4637 9.15009 16.8134 9.05778L16.8477 9.04964L20.4949 8.28213" stroke="#A856F7" stroke-miterlimit="10" stroke-linecap="round" stroke-linejoin="round"/>
</g>
</svg>
