<svg width="44" height="44" viewBox="0 0 44 44" fill="none" xmlns="http://www.w3.org/2000/svg">
<path d="M23.8774 8.77226C23.8774 8.3505 23.7103 7.94597 23.4121 7.6477C23.1138 7.34935 22.7086 7.1815 22.2867 7.1815H21.587C21.1651 7.1815 20.7607 7.34945 20.4624 7.6477C20.1641 7.94598 19.9963 8.35044 19.9962 8.77226V9.06094C19.9953 9.89777 19.7739 10.72 19.3551 11.4445C18.9369 12.1678 18.3358 12.7677 17.6127 13.186L17.6135 13.1869L16.9293 13.5842L16.9259 13.5867C16.2003 14.0056 15.3767 14.2261 14.5389 14.2261C13.7188 14.2261 12.9135 14.0136 12.1993 13.6117V13.6126L11.9606 13.4851C11.9453 13.4769 11.9299 13.4687 11.9149 13.4601C11.5498 13.2495 11.1156 13.1918 10.7085 13.3006C10.3524 13.3959 10.0422 13.6116 9.82867 13.9082L9.74335 14.04L9.39349 14.6449L9.39263 14.6441C9.18298 15.0087 9.12712 15.4424 9.2358 15.8488C9.33111 16.2049 9.54668 16.5151 9.84331 16.7286L9.97516 16.8139L10.0605 16.8673L10.2992 17.0259H10.2983C10.9806 17.4395 11.5504 18.0156 11.952 18.7063C12.3706 19.4263 12.5932 20.244 12.5983 21.0769V21.8912L12.5888 22.2058C12.5434 22.9374 12.3299 23.6505 11.9632 24.2886C11.5486 25.0099 10.9524 25.6094 10.2345 26.0292L10.2354 26.0301L9.9967 26.1732C9.98974 26.1773 9.98219 26.1812 9.97516 26.1852C9.61051 26.3964 9.34469 26.7441 9.2358 27.1512C9.12717 27.5575 9.1832 27.9905 9.39263 28.3551H9.39349L9.74249 28.9591H9.74335C9.95452 29.3237 10.3015 29.5896 10.7085 29.6985C11.1156 29.8074 11.5498 29.7505 11.9149 29.5399L11.9606 29.5141L12.1993 29.3874C12.9134 28.9856 13.7189 28.7739 14.5389 28.7739C15.272 28.7739 15.9942 28.9422 16.6493 29.265L16.9259 29.4133L16.9293 29.4158L17.6092 29.8105H17.6101C18.3348 30.229 18.9363 30.8311 19.3551 31.5555C19.7739 32.2801 19.9953 33.1021 19.9962 33.9391V34.2269C19.9962 34.6488 20.1641 35.0539 20.4624 35.3523C20.7607 35.6505 21.1652 35.8185 21.587 35.8185H22.2867C22.7086 35.8185 23.1138 35.6507 23.4121 35.3523C23.7104 35.0539 23.8774 34.6488 23.8774 34.2269V33.9391L23.8886 33.6263C23.9372 32.8983 24.1521 32.1896 24.5186 31.5555C24.9374 30.8309 25.5396 30.229 26.2644 29.8105L26.9443 29.4158L26.9486 29.4133L27.2244 29.265C27.8795 28.9421 28.6016 28.7739 29.3348 28.7739C30.1545 28.7739 30.9595 28.9859 31.6735 29.3874H31.6744L31.9131 29.5141L31.9596 29.5399C32.3246 29.7504 32.7581 29.8073 33.1652 29.6985C33.5722 29.5896 33.92 29.3238 34.1312 28.9591L34.4715 28.3542L34.4793 28.3413C34.6898 27.9763 34.7467 27.5428 34.6379 27.1357C34.5295 26.7305 34.2657 26.3847 33.9037 26.1732L33.7089 26.0698C33.6933 26.0614 33.6777 26.0527 33.6624 26.0439C32.9341 25.6234 32.3295 25.0176 31.9105 24.2886C31.4914 23.5594 31.272 22.7322 31.2754 21.8912V21.1019C31.2732 20.2632 31.4925 19.4387 31.9105 18.7114C32.3251 17.99 32.9211 17.3898 33.6391 16.9699L33.8778 16.8268L33.8985 16.8139L34.0303 16.7286C34.327 16.5151 34.5425 16.2049 34.6379 15.8488C34.7467 15.4416 34.6899 15.0074 34.4793 14.6424V14.6415L34.1303 14.04V14.0391C33.919 13.6751 33.5719 13.4094 33.1652 13.3006C32.809 13.2054 32.4323 13.2372 32.0992 13.3877L31.9596 13.4601C31.9444 13.4688 31.9285 13.4768 31.9131 13.4851L31.6744 13.6126L31.6735 13.6117C30.9595 14.0133 30.1546 14.2261 29.3348 14.2261C28.4971 14.2261 27.6741 14.0055 26.9486 13.5867L26.9443 13.5842L26.2601 13.1869V13.186C25.5373 12.7677 24.9366 12.1675 24.5186 11.4445C24.0998 10.72 23.8784 9.89777 23.8774 9.06094V8.77226ZM27.0598 9.05749L27.0633 9.16176C27.0795 9.40437 27.1514 9.64069 27.2735 9.852C27.3957 10.0633 27.5643 10.2434 27.7664 10.3785L27.8552 10.4337L27.8595 10.4363L28.5394 10.8309L28.6316 10.88C28.8499 10.9877 29.0904 11.0446 29.3348 11.0446C29.614 11.0446 29.8883 10.9705 30.1301 10.8309L30.1767 10.8051L30.4154 10.6775C31.5009 10.0673 32.7829 9.90481 33.9873 10.2269C35.1323 10.5331 36.1192 11.2539 36.7603 12.2442L36.8844 12.4458L37.2342 13.0507L37.2351 13.0525L37.3489 13.2601C37.887 14.3099 38.0178 15.525 37.7116 16.67C37.3871 17.8837 36.5968 18.9194 35.5134 19.5542L35.5142 19.5551L35.2755 19.6981L35.1635 19.7671C34.9605 19.9029 34.7911 20.0844 34.6689 20.297C34.5293 20.54 34.4566 20.8156 34.4578 21.0958V21.9042C34.4567 22.1844 34.5292 22.46 34.6689 22.703C34.8069 22.9432 35.0055 23.143 35.2445 23.2829L35.4444 23.3889L35.4936 23.4165C36.5876 24.0502 37.385 25.0922 37.7116 26.3136C38.0369 27.5301 37.8675 28.825 37.242 29.9174L37.2429 29.9182L36.893 30.5387C36.8901 30.5438 36.8873 30.5491 36.8844 30.5542C36.2507 31.6482 35.2085 32.4456 33.9873 32.7723C32.7826 33.0944 31.501 32.9313 30.4154 32.3207V32.3216L30.1767 32.1949L30.1301 32.1682C29.8884 32.0287 29.6139 31.9554 29.3348 31.9554C29.057 31.9554 28.7837 32.0275 28.5428 32.1656L28.5437 32.1665L27.8595 32.5637L27.8552 32.5663C27.6136 32.7058 27.4131 32.9065 27.2735 33.148C27.1339 33.3895 27.0601 33.6635 27.0598 33.9425V34.2269C27.0598 35.4927 26.5571 36.7072 25.6621 37.6023C24.767 38.4973 23.5525 39 22.2867 39H21.587C20.3213 39 19.1075 38.4972 18.2124 37.6023C17.3174 36.7072 16.8138 35.4927 16.8138 34.2269V33.9425L16.8104 33.8382C16.7942 33.5956 16.7231 33.3593 16.601 33.148C16.4614 32.9065 16.2601 32.7058 16.0185 32.5663L16.0142 32.5637L15.3308 32.1665V32.1656C15.09 32.0275 14.8165 31.9554 14.5389 31.9554C14.2946 31.9554 14.054 32.0115 13.8357 32.1191L13.7435 32.1682C13.7281 32.1771 13.7127 32.1865 13.697 32.1949L13.4583 32.3216L13.4574 32.3207C12.372 32.9308 11.0915 33.0942 9.88726 32.7723C8.66591 32.4457 7.62384 31.6482 6.99013 30.5542H6.98927L6.6394 29.9493L6.63854 29.9475C6.00678 28.8523 5.8354 27.5506 6.16201 26.3291C6.46821 25.1843 7.18837 24.1971 8.17845 23.5561L8.3801 23.432L8.59812 23.3019L8.62138 23.2881C8.86403 23.1479 9.06514 22.9459 9.20477 22.703C9.34442 22.46 9.41783 22.1844 9.41676 21.9042V21.0958L9.41245 20.9924C9.39525 20.7509 9.32349 20.5158 9.20133 20.3056C9.07923 20.0956 8.91052 19.917 8.70928 19.7826L8.62138 19.7274L8.53435 19.674L8.31202 19.5258C7.25341 18.8887 6.48171 17.8656 6.16201 16.67C5.83551 15.4487 6.00684 14.1476 6.63854 13.0525L6.6394 13.0507L6.98927 12.4458H6.99013L7.11336 12.2442C7.75445 11.2538 8.74214 10.5331 9.88726 10.2269C11.0912 9.90505 12.3722 10.0677 13.4574 10.6775H13.4583L13.697 10.8051L13.7435 10.8309C13.9853 10.9705 14.2597 11.0446 14.5389 11.0446C14.7834 11.0446 15.0244 10.9878 15.2429 10.88L15.3343 10.8309L16.0142 10.4363L16.0185 10.4337L16.1072 10.3785C16.3095 10.2434 16.4788 10.0634 16.601 9.852C16.7403 9.61102 16.8132 9.33753 16.8138 9.05921V8.77226C16.8139 7.50656 17.3174 6.29271 18.2124 5.39773C19.1075 4.50277 20.3212 4 21.587 4H22.2867C23.5525 4 24.767 4.50266 25.6621 5.39773C26.557 6.2927 27.0597 7.50663 27.0598 8.77226V9.05749Z" fill="#3C83F6"/>
<path d="M25.1196 21.5006C25.1196 19.7434 23.6952 18.3184 21.9381 18.3182C20.1808 18.3182 18.7557 19.7433 18.7557 21.5006C18.7559 23.2577 20.1809 24.6821 21.9381 24.6821C23.6951 24.6819 25.1194 23.2576 25.1196 21.5006ZM28.3011 21.5006C28.3009 25.0148 25.4523 27.8634 21.9381 27.8636C18.4237 27.8636 15.5744 25.015 15.5742 21.5006C15.5742 17.986 18.4235 15.1367 21.9381 15.1367C25.4525 15.1369 28.3011 17.9862 28.3011 21.5006Z" fill="#3C83F6"/>
</svg>
