<svg width="44" height="44" viewBox="0 0 44 44" fill="none" xmlns="http://www.w3.org/2000/svg">
<path d="M35.2373 17.1695H32.9492V15.8983C32.9465 13.5392 32.0081 11.2774 30.3399 9.60923C28.6718 7.94105 26.41 7.00269 24.0508 7H19.9831C17.6239 7.00269 15.3621 7.94105 13.694 9.60923C12.0258 11.2774 11.0874 13.5392 11.0847 15.8983V17.1695H8.79661C7.25492 17.1695 6 18.4244 6 19.9661V26.0678C6 27.6095 7.25492 28.8644 8.79661 28.8644H11.162C11.5485 32.2875 14.4244 34.9661 17.9492 34.9661H18.3234C18.6569 36.1356 19.7247 37 21 37H23.0339C24.5756 37 25.8305 35.7451 25.8305 34.2034C25.8305 32.6617 24.5756 31.4068 23.0339 31.4068H21C19.7247 31.4068 18.6569 32.2712 18.3234 33.4407H17.9492C16.5337 33.4391 15.1766 32.876 14.1757 31.8751C13.1748 30.8742 12.6118 29.5172 12.6102 28.1017V15.8983C12.6123 13.9436 13.3898 12.0695 14.772 10.6873C16.1542 9.30505 18.0283 8.52758 19.9831 8.52542H24.0508C26.0056 8.52758 27.8797 9.30505 29.2619 10.6873C30.6441 12.0695 31.4216 13.9436 31.4237 15.8983V28.1017C31.4237 28.5227 31.7654 28.8644 32.1864 28.8644H35.2373C36.779 28.8644 38.0339 27.6095 38.0339 26.0678V19.9661C38.0339 18.4244 36.779 17.1695 35.2373 17.1695ZM21 32.9322H23.0339C23.3586 32.9506 23.664 33.0925 23.8873 33.3289C24.1107 33.5653 24.2352 33.8782 24.2352 34.2034C24.2352 34.5286 24.1107 34.8415 23.8873 35.0779C23.664 35.3143 23.3586 35.4562 23.0339 35.4746H21C20.6753 35.4562 20.3699 35.3143 20.1466 35.0779C19.9232 34.8415 19.7987 34.5286 19.7987 34.2034C19.7987 33.8782 19.9232 33.5653 20.1466 33.3289C20.3699 33.0925 20.6753 32.9506 21 32.9322ZM7.52542 26.0678V19.9661C7.52542 19.2644 8.09492 18.6949 8.79661 18.6949H11.0847V27.339H8.79661C8.45964 27.3384 8.13662 27.2043 7.89834 26.9661C7.66006 26.7278 7.52596 26.4048 7.52542 26.0678ZM36.5085 26.0678C36.5085 26.7695 35.939 27.339 35.2373 27.339H32.9492V18.6949H35.2373C35.939 18.6949 36.5085 19.2644 36.5085 19.9661V26.0678Z" fill="#A856F7" stroke="#A856F7" stroke-width="0.5"/>
<path d="M21 16.1523H19.983C19.8206 16.1526 19.6625 16.2046 19.5315 16.3008C19.4006 16.397 19.3037 16.5323 19.2549 16.6873L16.7125 24.8229C16.6521 25.016 16.6709 25.2252 16.7647 25.4044C16.8586 25.5837 17.0198 25.7184 17.2129 25.7788C17.406 25.8392 17.6152 25.8204 17.7945 25.7266C17.9737 25.6328 18.1084 25.4716 18.1688 25.2784L18.6366 23.7795H22.3444L22.8122 25.2784C22.8796 25.4632 23.0155 25.6149 23.1917 25.702C23.368 25.7892 23.571 25.8051 23.7587 25.7464C23.9464 25.6878 24.1043 25.5591 24.1996 25.3871C24.2949 25.2152 24.3203 25.0131 24.2705 24.8229L21.7281 16.6873C21.6793 16.5323 21.5824 16.397 21.4515 16.3008C21.3206 16.2046 21.1624 16.1526 21 16.1523ZM19.1146 22.254L20.4915 17.8445L21.8685 22.254H19.1146ZM26.5932 16.1523C26.3909 16.1523 26.1969 16.2327 26.0539 16.3757C25.9109 16.5188 25.8305 16.7128 25.8305 16.9151V25.0506C25.8305 25.2529 25.9109 25.4469 26.0539 25.59C26.1969 25.733 26.3909 25.8134 26.5932 25.8134C26.7955 25.8134 26.9895 25.733 27.1325 25.59C27.2756 25.4469 27.3559 25.2529 27.3559 25.0506V16.9151C27.3559 16.7128 27.2756 16.5188 27.1325 16.3757C26.9895 16.2327 26.7955 16.1523 26.5932 16.1523Z" fill="#A856F7" stroke="#A856F7" stroke-width="0.5"/>
</svg>
