<svg width="44" height="44" viewBox="0 0 44 44" fill="none" xmlns="http://www.w3.org/2000/svg">
<path d="M19.202 36.955C19.3768 37.0132 19.5655 37.0153 19.7416 36.9609C19.9177 36.9065 20.0723 36.7984 20.1838 36.6517L29.0782 24.8879C29.1771 24.7573 29.2377 24.6018 29.253 24.4387C29.2683 24.2756 29.2379 24.1115 29.165 23.9648C29.0921 23.8181 28.9798 23.6946 28.8406 23.6083C28.7014 23.5219 28.5408 23.4761 28.377 23.4761H24.1823L24.9484 15.5439C24.967 15.3532 24.9229 15.1616 24.8228 14.9983C24.7226 14.835 24.572 14.7088 24.3936 14.6388C24.2152 14.5689 24.0189 14.5591 23.8345 14.6109C23.65 14.6627 23.4875 14.7732 23.3716 14.9257L14.1905 26.9792C14.0908 27.1096 14.0296 27.2653 14.0138 27.4287C13.9981 27.5921 14.0283 27.7566 14.1011 27.9037C14.174 28.0508 14.2865 28.1746 14.426 28.2611C14.5656 28.3475 14.7265 28.3933 14.8906 28.393H18.602V36.12C18.602 36.4983 18.8439 36.8342 19.202 36.955ZM16.6676 26.6327L22.8988 18.4525L22.336 24.2718C22.324 24.394 22.3377 24.5173 22.3763 24.6339C22.4148 24.7505 22.4774 24.8576 22.56 24.9485C22.6425 25.0394 22.7432 25.112 22.8555 25.1616C22.9679 25.2112 23.0893 25.2367 23.2121 25.2364H26.6071L20.3623 33.4971V27.5129C20.3623 27.2794 20.2696 27.0555 20.1045 26.8905C19.9395 26.7254 19.7156 26.6327 19.4822 26.6327H16.6676Z" fill="#3C83F6"/>
<path d="M12.2238 35.1704C12.4573 35.1704 12.6812 35.0777 12.8462 34.9126C13.0113 34.7475 13.104 34.5236 13.104 34.2902C13.104 34.0568 13.0113 33.8329 12.8462 33.6678C12.6812 33.5028 12.4573 33.41 12.2238 33.41H9.98214V16.4285L13.9586 13.8559C13.9675 13.8509 13.976 13.8454 13.9842 13.8393L21.5749 8.92836L33.1717 16.4315V33.4105H31.1981C30.9646 33.4105 30.7408 33.5033 30.5757 33.6683C30.4106 33.8334 30.3179 34.0573 30.3179 34.2907C30.3179 34.5242 30.4106 34.748 30.5757 34.9131C30.7408 35.0782 30.9646 35.1709 31.1981 35.1709H39.6423C39.8757 35.1709 40.0996 35.0782 40.2647 34.9131C40.4298 34.748 40.5225 34.5242 40.5225 34.2907C40.5225 34.0573 40.4298 33.8334 40.2647 33.6683C40.0996 33.5033 39.8757 33.4105 39.6423 33.4105H34.9321V17.5697L39.7927 20.7143C39.8897 20.7772 39.9982 20.8203 40.112 20.8412C40.2257 20.8621 40.3425 20.8603 40.4555 20.836C40.5686 20.8117 40.6758 20.7654 40.7709 20.6996C40.866 20.6338 40.9472 20.5499 41.0099 20.4527C41.0726 20.3556 41.1156 20.2471 41.1365 20.1334C41.1573 20.0197 41.1555 19.903 41.1312 19.79C41.1069 19.6769 41.0606 19.5698 40.9949 19.4747C40.9292 19.3795 40.8454 19.2983 40.7483 19.2356L22.0522 7.14133C21.9098 7.04948 21.7439 7.00064 21.5744 7.00064C21.4049 7.00064 21.239 7.04948 21.0966 7.14133L14.3634 11.498V7.88018C14.3634 7.64674 14.2707 7.42287 14.1056 7.2578C13.9406 7.09273 13.7167 7 13.4833 7H9.10296C8.86952 7 8.64564 7.09273 8.48058 7.2578C8.31551 7.42287 8.22278 7.64674 8.22278 7.88018V15.4206L8.22177 15.4256V15.4709L2.4025 19.2361C2.20641 19.3628 2.0687 19.5622 2.01965 19.7905C1.9706 20.0187 2.01424 20.2571 2.14096 20.4532C2.26769 20.6493 2.46712 20.787 2.69538 20.8361C2.92364 20.8851 3.16204 20.8415 3.35813 20.7148L8.22177 17.5682V33.4105H3.51053C3.27709 33.4105 3.05321 33.5033 2.88814 33.6683C2.72308 33.8334 2.63034 34.0573 2.63034 34.2907C2.63034 34.5242 2.72308 34.748 2.88814 34.9131C3.05321 35.0782 3.27709 35.1709 3.51053 35.1709L12.2238 35.1704ZM9.98314 8.75986H12.6031V12.6362L9.98314 14.3317V8.75986Z" fill="#3C83F6"/>
</svg>
