<svg width="44" height="44" viewBox="0 0 44 44" fill="none" xmlns="http://www.w3.org/2000/svg">
<path d="M4.30957 13.5382C4.30963 12.9213 4.48888 12.3177 4.82578 11.8009C5.16083 11.2869 5.63738 10.8808 6.19774 10.6314L19.8243 4.43089V4.43003C20.4459 4.14648 21.1213 4.00006 21.8046 4C22.4881 4 23.1641 4.14641 23.7859 4.43003L23.785 4.43089L37.4512 10.6504H37.4503C38.0079 10.9 38.4824 11.3044 38.8162 11.8164C39.1533 12.3333 39.3324 12.9375 39.3324 13.5546C39.3324 14.1715 39.1531 14.7751 38.8162 15.2919C38.4825 15.8038 38.0077 16.2075 37.4503 16.4571L37.4512 16.4588L23.7997 22.6636C23.2562 22.9112 22.6718 23.054 22.077 23.0859L21.821 23.0928C21.1375 23.0928 20.4616 22.9464 19.8398 22.6628V22.6619L6.18998 16.4424V16.4416C5.63308 16.1919 5.15924 15.7879 4.82578 15.2764C4.48875 14.7595 4.30957 14.1553 4.30957 13.5382ZM7.50937 13.5468L21.16 19.7672L21.1609 19.768L21.3194 19.8301C21.4808 19.8837 21.6502 19.9111 21.821 19.9111L21.9908 19.9016C22.1599 19.8835 22.3257 19.8389 22.4811 19.768L22.4829 19.7672L36.1344 13.5615L36.1507 13.5546C36.1451 13.5521 36.1391 13.5494 36.1335 13.5468L22.4665 7.32562H22.4656C22.2583 7.23107 22.0325 7.1817 21.8046 7.1817C21.577 7.18176 21.3517 7.23113 21.1445 7.32562H21.1436L7.50851 13.5305L7.49127 13.5382L7.50937 13.5468Z" fill="#A856F7"/>
<path d="M37.7031 19.9102C38.5269 19.9037 39.2097 20.5244 39.2974 21.3261L39.3069 21.4881L39.3 21.7191C39.2653 22.2559 39.0953 22.7766 38.8036 23.2315C38.4713 23.7497 37.9951 24.1588 37.4342 24.4122L37.4351 24.413L23.7844 30.6179L23.7827 30.6187C23.1641 30.8988 22.4926 31.0444 21.8135 31.0444C21.2193 31.0444 20.631 30.9333 20.0788 30.7178L19.8444 30.6187L19.8426 30.6179L6.16012 24.3975L6.14977 24.3932V24.3923C5.59763 24.1367 5.12984 23.7282 4.80281 23.2151C4.4758 22.702 4.30319 22.1053 4.3047 21.4967C4.30707 20.6182 5.02129 19.908 5.89986 19.9102C6.77793 19.9126 7.48698 20.6257 7.48554 21.5036L21.1577 27.7205L21.3154 27.7817C21.4758 27.8346 21.6439 27.8619 21.8135 27.8619C22.0391 27.8619 22.2621 27.8141 22.4676 27.7214L36.1191 21.5166L36.1252 21.514L36.1321 21.3511C36.2071 20.5482 36.8794 19.9168 37.7031 19.9102Z" fill="#A856F7"/>
<path d="M37.7031 27.8672C38.5269 27.8607 39.2097 28.4814 39.2974 29.2831L39.3069 29.4452L39.3 29.6761C39.2653 30.2129 39.0953 30.7336 38.8036 31.1886C38.4713 31.7067 37.9951 32.1158 37.4342 32.3692L37.4351 32.3701L23.7844 38.5749L23.7827 38.5758C23.1641 38.8559 22.4926 39.0015 21.8135 39.0015C21.2193 39.0015 20.631 38.8903 20.0788 38.6749L19.8444 38.5758L19.8426 38.5749L6.16012 32.3545L6.14977 32.3502V32.3494C5.59763 32.0937 5.12984 31.6853 4.80281 31.1722C4.4758 30.659 4.30319 30.0623 4.3047 29.4538C4.30707 28.5753 5.02129 27.8651 5.89986 27.8672C6.77793 27.8696 7.48698 28.5827 7.48554 29.4607L21.1577 35.6776L21.3154 35.7388C21.4758 35.7917 21.6439 35.8189 21.8135 35.8189C22.0391 35.8189 22.2621 35.7711 22.4676 35.6784L36.1191 29.4736L36.1252 29.471L36.1321 29.3081C36.2071 28.5052 36.8794 27.8738 37.7031 27.8672Z" fill="#A856F7"/>
</svg>
