<svg width="44" height="44" viewBox="0 0 44 44" fill="none" xmlns="http://www.w3.org/2000/svg">
<path d="M4.13477 12.8868V9.38621C4.13486 7.99394 4.68778 6.6587 5.67226 5.67422C6.65675 4.68973 7.99199 4.13681 9.38425 4.13672H12.8849L13.064 4.14525C13.9463 4.23507 14.6347 4.9806 14.6347 5.88655C14.6347 6.7925 13.9463 7.53803 13.064 7.62785L12.8849 7.63638H9.38425C8.92025 7.63647 8.47534 7.82109 8.14724 8.14919C7.81913 8.4773 7.63452 8.9222 7.63442 9.38621V12.8868C7.63429 13.8532 6.85102 14.6366 5.88459 14.6366C4.91817 14.6366 4.1349 13.8532 4.13477 12.8868Z" fill="#3C83F6"/>
<path d="M35.635 12.8868V9.38621C35.6349 8.92226 35.4502 8.47729 35.1222 8.14919C34.8351 7.86206 34.4583 7.68471 34.0577 7.64491L33.8843 7.63638H30.3846C29.4181 7.63638 28.6348 6.85305 28.6348 5.88655C28.6348 4.92005 29.4181 4.13672 30.3846 4.13672H33.8843L34.1449 4.14335C35.4425 4.20773 36.6742 4.75118 37.5972 5.67422C38.5816 6.65869 39.1346 7.994 39.1347 9.38621V12.8868C39.1346 13.8531 38.3512 14.6365 37.3849 14.6366C36.4184 14.6366 35.6352 13.8532 35.635 12.8868Z" fill="#3C83F6"/>
<path d="M35.635 33.8862V30.3865C35.635 29.42 36.4184 28.6367 37.3849 28.6367C38.3512 28.6368 39.1347 29.4201 39.1347 30.3865V33.8862C39.1347 35.2786 38.5818 36.6146 37.5972 37.5991C36.6126 38.5837 35.2766 39.1366 33.8843 39.1366H30.3846C29.4182 39.1366 28.6349 38.3532 28.6348 37.3868C28.6348 36.4203 29.4181 35.637 30.3846 35.637H33.8843C34.3484 35.637 34.794 35.4524 35.1222 35.1242C35.4504 34.796 35.635 34.3503 35.635 33.8862Z" fill="#3C83F6"/>
<path d="M4.13477 33.8862V30.3865C4.13477 29.42 4.91809 28.6367 5.88459 28.6367C6.8511 28.6367 7.63442 29.42 7.63442 30.3865V33.8862L7.64295 34.0597C7.68276 34.4602 7.8601 34.837 8.14724 35.1242C8.47533 35.4522 8.92031 35.6369 9.38425 35.637H12.8849L13.064 35.6455C13.9462 35.7353 14.6347 36.4809 14.6347 37.3868C14.6346 38.2926 13.9461 39.0373 13.064 39.1272L12.8849 39.1366H9.38425C7.99204 39.1365 6.65674 38.5836 5.67226 37.5991C4.74923 36.6761 4.20578 35.4445 4.1414 34.1469L4.13477 33.8862Z" fill="#3C83F6"/>
<path d="M18.1348 21.6364C18.1349 19.7035 19.7016 18.1368 21.6344 18.1367C23.5674 18.1367 25.1349 19.7035 25.135 21.6364C25.135 23.5694 23.5674 25.137 21.6344 25.137C19.7015 25.1369 18.1348 23.5693 18.1348 21.6364Z" fill="#3C83F6"/>
<path d="M22.1878 11.155C24.9491 11.2577 27.6316 12.1273 29.9312 13.6726C32.2308 15.2179 34.0497 17.3729 35.1882 19.8908L35.4072 20.3989L35.4385 20.4823C35.6672 21.1365 35.6962 21.842 35.5247 22.5089L35.4385 22.7924L35.4072 22.8767C34.2906 25.6127 32.3839 27.9539 29.9312 29.6021C27.6316 31.1473 24.9491 32.0179 22.1878 32.1207L21.6342 32.1311C18.679 32.131 15.7909 31.2503 13.3381 29.6021C11.0386 28.0569 9.21956 25.9025 8.08106 23.3848L7.86209 22.8767C7.85081 22.8491 7.84066 22.8205 7.83081 22.7924C7.56943 22.0446 7.5694 21.2301 7.83081 20.4823L7.86209 20.3989L8.08106 19.8908C9.21956 17.373 11.0385 15.2179 13.3381 13.6726C15.7909 12.0245 18.6791 11.1446 21.6342 11.1445L22.1878 11.155ZM21.2114 14.6518C19.0998 14.7303 17.0484 15.3963 15.2899 16.5779C13.4395 17.8213 11.9964 19.5809 11.138 21.6369C11.9964 23.6934 13.4391 25.4541 15.2899 26.6977C17.1655 27.9581 19.3744 28.6304 21.6342 28.6305L22.0579 28.6229C24.1692 28.5443 26.2202 27.8791 27.9785 26.6977C29.8292 25.4541 31.2719 23.6933 32.1303 21.6369C31.2719 19.581 29.8288 17.8213 27.9785 16.5779C26.1028 15.3176 23.894 14.6442 21.6342 14.6442L21.2114 14.6518Z" fill="#3C83F6"/>
</svg>
