<svg width="44" height="44" viewBox="0 0 44 44" fill="none" xmlns="http://www.w3.org/2000/svg">
<path d="M30.0449 26.0117V17.0566H12.9551V26.0117H30.0449ZM13.6387 17.7402H29.3613V25.3281H13.6387V17.7402Z" fill="#A856F7" stroke="#A856F7" stroke-width="1.5" stroke-miterlimit="10"/>
<path d="M21.8418 29.7734V25.6719H21.1582V29.7734H21.8418Z" fill="#A856F7" stroke="#A856F7" stroke-width="1.5" stroke-miterlimit="10"/>
<path d="M24.5762 30.1133V29.4297H18.4238V30.1133H24.5762Z" fill="#A856F7" stroke="#A856F7" stroke-width="1.5" stroke-miterlimit="10"/>
<mask id="mask0_4355_1198" style="mask-type:luminance" maskUnits="userSpaceOnUse" x="4" y="4" width="35" height="35">
<path d="M38.25 38.25V4.75H4.75V38.25H38.25Z" fill="white" stroke="white" stroke-width="1.5"/>
<mask id="path-5-inside-1_4355_1198" fill="white">
<path d="M39 39V4.00003H4V39H39ZM4.6836 4.68363H38.3164V38.3164H4.6836V4.68363Z"/>
</mask>
<path d="M39 39V4.00003H4V39H39ZM4.6836 4.68363H38.3164V38.3164H4.6836V4.68363Z" fill="white"/>
<path d="M39 39H40.5V40.5H39V39ZM39 4.00003V2.50003H40.5V4.00003H39ZM4 4.00003H2.5V2.50003H4V4.00003ZM4 39V40.5H2.5V39H4ZM4.6836 4.68363H3.1836V3.18363H4.6836V4.68363ZM38.3164 4.68363V3.18363H39.8164V4.68363H38.3164ZM38.3164 38.3164H39.8164V39.8164H38.3164V38.3164ZM4.6836 38.3164V39.8164H3.1836V38.3164H4.6836ZM39 39H37.5V4.00003H39H40.5V39H39ZM39 4.00003V5.50003H4V4.00003V2.50003H39V4.00003ZM4 4.00003H5.5V39H4H2.5V4.00003H4ZM4 39V37.5H39V39V40.5H4V39ZM4.6836 4.68363V3.18363H38.3164V4.68363V6.18363H4.6836V4.68363ZM38.3164 4.68363H39.8164V38.3164H38.3164H36.8164V4.68363H38.3164ZM38.3164 38.3164V39.8164H4.6836V38.3164V36.8164H38.3164V38.3164ZM4.6836 38.3164H3.1836V4.68363H4.6836H6.1836V38.3164H4.6836Z" fill="white" mask="url(#path-5-inside-1_4355_1198)"/>
</mask>
<g mask="url(#mask0_4355_1198)">
<path d="M25.2598 9.19725C25.2598 11.2737 23.5765 12.957 21.5 12.957C19.4236 12.957 17.7402 11.2737 17.7402 9.19725C17.7402 7.11343 19.4309 5.36912 21.5 5.36912C23.5692 5.36912 25.2598 7.11343 25.2598 9.19725ZM25.9434 9.19725C25.9434 6.75064 23.9613 4.68553 21.5 4.68552C19.0387 4.68552 17.0566 6.75064 17.0566 9.19725C17.0566 11.6512 19.046 13.6406 21.5 13.6406C23.954 13.6406 25.9434 11.6512 25.9434 9.19725Z" fill="#A856F7" stroke="#A856F7" stroke-width="1.5" stroke-miterlimit="10"/>
<path d="M12.8867 33.873C12.8867 35.9495 11.2034 37.6328 9.12697 37.6328C7.05051 37.6328 5.36719 35.9495 5.36719 33.873C5.3672 31.7966 7.05052 30.1133 9.12697 30.1133C11.2034 30.1133 12.8867 31.7966 12.8867 33.873ZM13.5703 33.873C13.5703 31.419 11.581 29.4297 9.12697 29.4297C6.67298 29.4297 4.6836 31.419 4.68359 33.873C4.68359 36.327 6.67297 38.3164 9.12697 38.3164C11.581 38.3164 13.5703 36.327 13.5703 33.873Z" fill="#A856F7" stroke="#A856F7" stroke-width="1.5" stroke-miterlimit="10"/>
<path d="M37.6328 33.873C37.6328 35.9422 35.8885 37.6328 33.8047 37.6328C31.7282 37.6328 30.0449 35.9495 30.0449 33.873C30.0449 31.7966 31.7282 30.1133 33.8047 30.1133C35.8885 30.1133 37.6328 31.8039 37.6328 33.873ZM38.3164 33.873C38.3164 31.4118 36.2513 29.4297 33.8047 29.4297C31.3507 29.4297 29.3613 31.419 29.3613 33.873C29.3613 36.327 31.3507 38.3164 33.8047 38.3164C36.2513 38.3164 38.3164 36.3343 38.3164 33.873Z" fill="#A856F7" stroke="#A856F7" stroke-width="1.5" stroke-miterlimit="10"/>
<path d="M35.5139 23.6181C35.5139 25.7874 35.0212 27.8407 34.1419 29.673L34.7582 29.9688C35.6809 28.0461 36.1975 25.8919 36.1975 23.6181C36.1975 18.6251 33.7071 14.1433 29.8989 11.487L29.5078 12.0477C33.1376 14.5795 35.5139 18.8545 35.5139 23.6181Z" fill="#A856F7" stroke="#A856F7" stroke-width="1.5" stroke-miterlimit="10"/>
<path d="M21.4995 38.3164C22.9581 38.3164 24.3676 38.1039 25.6985 37.7078L25.5035 37.0526C24.2353 37.43 22.8913 37.6328 21.4995 37.6328C18.4203 37.6328 15.5073 36.6401 13.1971 34.9598L12.7949 35.5127C15.2208 37.2771 18.2744 38.3164 21.4995 38.3164Z" fill="#A856F7" stroke="#A856F7" stroke-width="1.5" stroke-miterlimit="10"/>
<path d="M7.62826 25.6221C7.53358 24.9588 7.48614 24.2897 7.48633 23.6198V23.6196L7.48713 23.4706C7.55274 17.1706 11.7738 11.8022 17.536 10.1061L17.3429 9.45031C11.2963 11.2301 6.8723 16.8589 6.80354 23.4634L6.80273 23.6196C6.80253 24.322 6.85222 25.0235 6.95147 25.7188L7.62826 25.6221Z" fill="#A856F7" stroke="#A856F7" stroke-width="1.5" stroke-miterlimit="10"/>
</g>
</svg>
