<svg width="44" height="44" viewBox="0 0 44 44" fill="none" xmlns="http://www.w3.org/2000/svg">
<path d="M19.0001 11.4998C19 10.6715 18.3285 9.99998 17.5002 9.99984H11.4998C10.6715 9.99993 9.99993 10.6715 9.99984 11.4998V17.5002C9.99998 18.3285 10.6715 19 11.4998 19.0001H17.5002C18.3284 19 19 18.3284 19.0001 17.5002V11.4998ZM22 17.5002C21.9998 19.9853 19.9853 21.9998 17.5002 22H11.4998C9.01463 21.9999 7.00014 19.9853 7 17.5002V11.4998C7.00009 9.0146 9.0146 7.00009 11.4998 7H17.5002C19.9853 7.00014 21.9999 9.01463 22 11.4998V17.5002Z" fill="#3C83F6"/>
<path d="M13 26.4996V20.4999C13 19.6715 13.6715 19 14.4999 19C15.3283 19 15.9998 19.6715 15.9998 20.4999V26.4996L16.0074 26.648C16.0414 26.9913 16.193 27.3142 16.439 27.5603C16.7203 27.8416 17.102 28.0002 17.4998 28.0003H23.5002L23.6531 28.0078C24.4096 28.0845 25.0001 28.7235 25.0001 29.5002C25 30.2768 24.4095 30.9151 23.6531 30.9918L23.5002 31.0001H17.4998C16.3063 31.0001 15.1615 30.5256 14.3176 29.6818C13.5267 28.8907 13.0605 27.8354 13.0053 26.7233L13 26.4996Z" fill="#3C83F6"/>
<path d="M34.0001 26.4998C34 25.6715 33.3285 25 32.5002 24.9998H26.4998C25.6715 24.9999 24.9999 25.6715 24.9998 26.4998V32.5002C25 33.3285 25.6715 34 26.4998 34.0001H32.5002C33.3284 34 34 33.3284 34.0001 32.5002V26.4998ZM37 32.5002C36.9998 34.9853 34.9853 36.9998 32.5002 37H26.4998C24.0146 36.9999 22.0001 34.9853 22 32.5002V26.4998C22.0001 24.0146 24.0146 22.0001 26.4998 22H32.5002C34.9853 22.0001 36.9999 24.0146 37 26.4998V32.5002Z" fill="#3C83F6"/>
</svg>
