<svg width="44" height="44" viewBox="0 0 44 44" fill="none" xmlns="http://www.w3.org/2000/svg">
<path d="M38.0907 16.6667H37.92C37.6698 16.6645 37.4262 16.587 37.2207 16.4443C37.0152 16.3016 36.8575 16.1003 36.768 15.8667C36.6738 15.6411 36.6489 15.3926 36.6964 15.1527C36.7439 14.9129 36.8616 14.6927 37.0347 14.52L37.156 14.3987C37.8874 13.6645 38.2981 12.6703 38.2981 11.634C38.2981 10.5977 37.8874 9.60354 37.156 8.86933L35.1413 6.856C34.4077 6.12403 33.4137 5.71295 32.3773 5.71295C31.341 5.71295 30.347 6.12403 29.6133 6.856L29.492 6.97733C29.3132 7.14948 29.0881 7.26571 28.8442 7.31174C28.6004 7.35778 28.3484 7.33162 28.1192 7.23648C27.8899 7.14134 27.6935 6.98135 27.5539 6.77615C27.4143 6.57096 27.3376 6.32947 27.3333 6.08133V5.90933C27.3323 4.87284 26.9201 3.8791 26.1871 3.14619C25.4542 2.41327 24.4605 2.00106 23.424 2H20.576C19.5395 2.00106 18.5458 2.41327 17.8129 3.14619C17.0799 3.8791 16.6677 4.87284 16.6667 5.90933V6.08133C16.6602 6.32769 16.5824 6.56689 16.4428 6.76995C16.3031 6.97302 16.1076 7.13126 15.8799 7.2255C15.6522 7.31975 15.402 7.34596 15.1597 7.30097C14.9174 7.25598 14.6934 7.14171 14.5147 6.972L14.4 6.85067C13.6664 6.1187 12.6723 5.70762 11.636 5.70762C10.5997 5.70762 9.60564 6.1187 8.872 6.85067L6.85067 8.864C6.11926 9.59821 5.7086 10.5923 5.7086 11.6287C5.7086 12.665 6.11926 13.6591 6.85067 14.3933L6.972 14.5147C7.14674 14.6934 7.26369 14.9206 7.30768 15.1667C7.35167 15.4128 7.32065 15.6664 7.21867 15.8947C7.12717 16.122 6.96996 16.3169 6.76712 16.4544C6.56429 16.5919 6.32505 16.6658 6.08 16.6667H5.90933C4.87284 16.6677 3.8791 17.0799 3.14619 17.8129C2.41327 18.5458 2.00106 19.5395 2 20.576V23.424C2.00106 24.4605 2.41327 25.4542 3.14619 26.1871C3.8791 26.9201 4.87284 27.3323 5.90933 27.3333H6.08C6.33016 27.3355 6.57385 27.413 6.77933 27.5557C6.98481 27.6984 7.14255 27.8997 7.232 28.1333C7.32617 28.3589 7.35111 28.6074 7.30362 28.8473C7.25613 29.0871 7.13838 29.3073 6.96533 29.48L6.844 29.6013C6.1126 30.3355 5.70194 31.3297 5.70194 32.366C5.70194 33.4023 6.1126 34.3965 6.844 35.1307L8.85733 37.1427C9.59085 37.8754 10.5852 38.2869 11.622 38.2869C12.6588 38.2869 13.6531 37.8754 14.3867 37.1427L14.508 37.0213C14.6869 36.8468 14.914 36.7299 15.1601 36.6859C15.4061 36.6419 15.6597 36.6729 15.888 36.7747C16.1153 36.8658 16.3103 37.0227 16.4478 37.2254C16.5854 37.428 16.6592 37.6671 16.66 37.912V38.084C16.6596 38.5984 16.7607 39.1077 16.9574 39.583C17.154 40.0583 17.4425 40.4901 17.8062 40.8538C18.1699 41.2175 18.6017 41.506 19.077 41.7026C19.5523 41.8993 20.0616 42.0004 20.576 42H23.424C24.4605 41.9989 25.4542 41.5867 26.1871 40.8538C26.9201 40.1209 27.3323 39.1272 27.3333 38.0907V37.9187C27.3398 37.6723 27.4176 37.4331 27.5572 37.23C27.6969 37.027 27.8924 36.8687 28.1201 36.7745C28.3478 36.6803 28.598 36.654 28.8403 36.699C29.0826 36.744 29.3066 36.8583 29.4853 37.028L29.6067 37.1493C30.3403 37.8813 31.3343 38.2924 32.3707 38.2924C33.407 38.2924 34.401 37.8813 35.1347 37.1493L37.1493 35.1373C37.8807 34.4031 38.2914 33.409 38.2914 32.3727C38.2914 31.3363 37.8807 30.3422 37.1493 29.608L37.028 29.4867C36.8533 29.3079 36.7363 29.0807 36.6923 28.8346C36.6483 28.5885 36.6793 28.3349 36.7813 28.1067C36.8726 27.8791 37.0297 27.6839 37.2326 27.5462C37.4354 27.4084 37.6748 27.3343 37.92 27.3333H38.0907C39.1272 27.3323 40.1209 26.9201 40.8538 26.1871C41.5867 25.4542 41.9989 24.4605 42 23.424V20.576C41.9989 19.5395 41.5867 18.5458 40.8538 17.8129C40.1209 17.0799 39.1272 16.6677 38.0907 16.6667ZM39.3333 23.424C39.333 23.7535 39.2019 24.0693 38.969 24.3023C38.736 24.5353 38.4201 24.6663 38.0907 24.6667H37.92C37.1463 24.6733 36.3916 24.9074 35.75 25.34C35.1085 25.7726 34.6085 26.3845 34.3123 27.0994C34.0162 27.8142 33.937 28.6004 34.0846 29.36C34.2323 30.1195 34.6003 30.8188 35.1427 31.3707L35.2627 31.492C35.4954 31.7254 35.6262 32.0417 35.6262 32.3713C35.6262 32.701 35.4954 33.0172 35.2627 33.2507L33.248 35.2627C33.015 35.4957 32.6989 35.6266 32.3693 35.6266C32.0398 35.6266 31.7237 35.4957 31.4907 35.2627L31.3707 35.1413C30.8186 34.5996 30.1194 34.2322 29.36 34.0848C28.6007 33.9375 27.8148 34.0168 27.1002 34.3129C26.3856 34.6089 25.7738 35.1086 25.3411 35.7498C24.9084 36.3909 24.6739 37.1452 24.6667 37.9187V38.0907C24.6663 38.4201 24.5353 38.736 24.3023 38.969C24.0693 39.2019 23.7535 39.333 23.424 39.3333H20.576C20.2465 39.333 19.9307 39.2019 19.6977 38.969C19.4647 38.736 19.3337 38.4201 19.3333 38.0907V37.9187C19.3296 37.1436 19.097 36.387 18.6649 35.7436C18.2327 35.1003 17.6201 34.5989 16.904 34.3024C16.188 34.0058 15.4003 33.9274 14.6398 34.0769C13.8793 34.2264 13.1799 34.5972 12.6293 35.1427L12.508 35.264C12.2746 35.4964 11.9587 35.6268 11.6293 35.6268C11.3 35.6268 10.9841 35.4964 10.7507 35.264L8.73733 33.252C8.50455 33.0186 8.37383 32.7023 8.37383 32.3727C8.37383 32.043 8.50455 31.7268 8.73733 31.4933L8.85867 31.372C9.40159 30.8201 9.76998 30.1206 9.91785 29.3607C10.0657 28.6008 9.98653 27.8142 9.69017 27.099C9.3938 26.3839 8.89338 25.7718 8.25135 25.3392C7.60933 24.9067 6.85413 24.6727 6.08 24.6667H5.90933C5.57987 24.6663 5.26399 24.5353 5.03103 24.3023C4.79806 24.0693 4.66702 23.7535 4.66667 23.424V20.576C4.66702 20.2465 4.79806 19.9307 5.03103 19.6977C5.26399 19.4647 5.57987 19.3337 5.90933 19.3333H6.08C6.85374 19.3267 7.60843 19.0926 8.24998 18.66C8.89153 18.2274 9.39154 17.6155 9.68769 16.9006C9.98385 16.1858 10.063 15.3996 9.91537 14.64C9.7677 13.8805 9.39974 13.1812 8.85733 12.6293L8.73733 12.508C8.50463 12.2748 8.37395 11.9588 8.37395 11.6293C8.37395 11.2999 8.50463 10.9839 8.73733 10.7507L10.7507 8.736C10.9837 8.50297 11.2998 8.37206 11.6293 8.37206C11.9589 8.37206 12.275 8.50297 12.508 8.736L12.628 8.85733C13.1799 9.39948 13.8792 9.76726 14.6386 9.91486C15.3981 10.0625 16.1841 9.98338 16.899 9.68745C17.6138 9.39151 18.2257 8.89181 18.6586 8.25059C19.0915 7.60936 19.3261 6.85496 19.3333 6.08133V5.90933C19.3337 5.57987 19.4647 5.26399 19.6977 5.03103C19.9307 4.79806 20.2465 4.66702 20.576 4.66667H23.424C23.7535 4.66702 24.0693 4.79806 24.3023 5.03103C24.5353 5.26399 24.6663 5.57987 24.6667 5.90933V6.08133C24.6735 6.85496 24.9079 7.60947 25.3406 8.25082C25.7733 8.89216 26.3852 9.39198 27.1 9.68796C27.8148 9.98395 28.6009 10.063 29.3603 9.91531C30.1197 9.76761 30.8189 9.39966 31.3707 8.85733L31.492 8.736C31.725 8.50297 32.0411 8.37206 32.3707 8.37206C32.7002 8.37206 33.0163 8.50297 33.2493 8.736L35.2627 10.7507C35.4954 10.9839 35.6261 11.2999 35.6261 11.6293C35.6261 11.9588 35.4954 12.2748 35.2627 12.508L35.1413 12.6293C34.5989 13.1813 34.2309 13.8807 34.0832 14.6403C33.9356 15.4 34.0149 16.1863 34.3112 16.9012C34.6076 17.6161 35.1078 18.228 35.7495 18.6605C36.3913 19.093 37.1461 19.327 37.92 19.3333H38.0907C38.4201 19.3337 38.736 19.4647 38.969 19.6977C39.2019 19.9307 39.333 20.2465 39.3333 20.576V23.424Z" fill="#A856F7"/>
<path d="M22.0013 12.6641C20.1553 12.6641 18.3508 13.2115 16.816 14.237C15.2811 15.2626 14.0848 16.7202 13.3784 18.4257C12.672 20.1311 12.4872 22.0078 12.8473 23.8182C13.2074 25.6287 14.0964 27.2918 15.4016 28.5971C16.7069 29.9023 18.37 30.7913 20.1805 31.1514C21.991 31.5115 23.8676 31.3267 25.573 30.6203C27.2785 29.9139 28.7361 28.7176 29.7617 27.1827C30.7872 25.6479 31.3346 23.8434 31.3346 21.9974C31.3318 19.5229 30.3476 17.1506 28.5978 15.4009C26.8481 13.6511 24.4758 12.6669 22.0013 12.6641ZM22.0013 28.6641C20.6828 28.6641 19.3938 28.2731 18.2975 27.5405C17.2012 26.808 16.3467 25.7668 15.8421 24.5486C15.3375 23.3304 15.2055 21.99 15.4627 20.6968C15.72 19.4036 16.3549 18.2157 17.2873 17.2834C18.2196 16.351 19.4075 15.7161 20.7007 15.4588C21.9939 15.2016 23.3344 15.3336 24.5525 15.8382C25.7707 16.3428 26.8119 17.1973 27.5444 18.2936C28.277 19.3899 28.668 20.6789 28.668 21.9974C28.6659 23.7649 27.9628 25.4593 26.713 26.7091C25.4632 27.9589 23.7688 28.6619 22.0013 28.6641Z" fill="#A856F7"/>
</svg>
