<svg width="44" height="44" viewBox="0 0 44 44" fill="none" xmlns="http://www.w3.org/2000/svg">
<path d="M24.6579 14.769V12.9692L24.6493 12.7327C24.6079 12.1835 24.4245 11.6528 24.1158 11.1936C23.7628 10.6687 23.2614 10.2605 22.6759 10.0213C22.0904 9.78218 21.4471 9.72284 20.8276 9.85039C20.2081 9.97804 19.6403 10.2874 19.197 10.7386C18.897 11.0439 18.4864 11.2155 18.0583 11.2151C17.6304 11.2147 17.2208 11.0418 16.9214 10.7361L13.957 7.7079L13.8483 7.58618C13.3445 6.95485 13.3916 6.03208 13.9812 5.45491C14.5708 4.87789 15.4938 4.85088 16.1143 5.36773L16.2343 5.47908L18.2077 7.49468C18.8157 7.13252 19.4839 6.87249 20.1845 6.72815C21.4235 6.47298 22.7108 6.59242 23.8818 7.07085C25.0529 7.54931 26.0549 8.36557 26.7608 9.41533C27.4666 10.4652 27.8439 11.7015 27.845 12.9666V14.769C27.845 15.6491 27.1316 16.3625 26.2515 16.3625C25.3714 16.3623 24.6579 15.649 24.6579 14.769Z" fill="#A856F7"/>
<path d="M27.0923 6.49099C27.6446 6.04059 28.4589 6.07291 28.9738 6.58772C29.5229 7.13689 29.5229 8.02663 28.9738 8.57579L26.3297 11.2197L26.2231 11.3164C25.6708 11.7668 24.8564 11.7345 24.3416 11.2197C23.7924 10.6705 23.7924 9.78004 24.3416 9.23086L26.9848 6.58772L27.0923 6.49099Z" fill="#A856F7"/>
<path d="M28.5006 21.1251C28.5006 20.0062 28.0555 18.9327 27.2642 18.1415C26.5226 17.4 25.5333 16.9631 24.4907 16.9113L24.2812 16.906H22.4531C21.6764 16.906 21.0469 16.2765 21.0469 15.4999C21.0469 14.7232 21.6764 14.0938 22.4531 14.0938H24.2812L24.6301 14.1021C26.3679 14.1884 28.017 14.9167 29.2532 16.1527C30.5718 17.4713 31.3129 19.2603 31.3129 21.1251V22.5312H35.5322L35.6754 22.5381C36.3847 22.61 36.9384 23.2092 36.9384 23.9373C36.9384 24.6655 36.3847 25.2647 35.6754 25.3366L35.5322 25.3435H29.9067C29.13 25.3435 28.5006 24.714 28.5006 23.9373V21.1251Z" fill="#A856F7"/>
<path d="M32.6777 12.6874C32.6777 11.9107 33.308 11.2812 34.0847 11.2812C34.8612 11.2814 35.4908 11.9108 35.4908 12.6874C35.4908 16.3525 32.7047 19.3537 29.3093 19.7111C28.5369 19.7923 27.845 19.2319 27.7637 18.4596C27.6824 17.6872 28.2428 16.9954 29.0152 16.9141C30.9638 16.7089 32.6777 14.9285 32.6777 12.6874Z" fill="#A856F7"/>
<path d="M6.412 7.47448C6.92686 6.95963 7.74114 6.92728 8.29351 7.37774L8.40015 7.47448L36.5268 35.5992L36.6236 35.7058C37.0743 36.2581 37.0418 37.0731 36.5268 37.588C36.0119 38.1029 35.1969 38.1354 34.6446 37.6847L34.5379 37.588L6.412 9.46255L6.31525 9.35591C5.86477 8.80356 5.89713 7.98932 6.412 7.47448Z" fill="#A856F7"/>
<path d="M14.7353 15.2534C15.3568 14.9046 16.1539 15.0761 16.5726 15.6716C17.0192 16.307 16.866 17.1842 16.2306 17.6307L16.0265 17.7838C15.5614 18.1546 15.1792 18.6207 14.9059 19.1511C14.5938 19.7572 14.4328 20.43 14.4375 21.1117V25.3446C14.4329 26.8811 14.9321 28.3771 15.8581 29.6033C16.7842 30.8294 18.0864 31.7185 19.5655 32.1345C21.0448 32.5505 22.6197 32.4705 24.0492 31.9067C25.4787 31.3429 26.6846 30.3261 27.4816 29.0122L29.8864 30.4709C28.7707 32.3103 27.0827 33.7338 25.0813 34.5232C23.0801 35.3125 20.8755 35.4239 18.8046 34.8416C16.7335 34.2592 14.9098 33.0149 13.6133 31.2981C12.3167 29.5814 11.6185 27.4867 11.6251 25.3354V21.1209C11.619 19.9879 11.887 18.8703 12.4059 17.863C12.9263 16.8529 13.6837 15.9838 14.6134 15.3304L14.7353 15.2534ZM27.4816 29.0122C27.8844 28.3483 28.7494 28.1364 29.4134 28.5392C30.0773 28.942 30.2891 29.8069 29.8864 30.4709L27.4816 29.0122Z" fill="#A856F7"/>
<path d="M20.0645 33.7808V22.5311C20.0645 21.7545 20.6939 21.125 21.4706 21.125C22.2473 21.125 22.8768 21.7545 22.8768 22.5311V33.7808C22.8768 34.5575 22.2473 35.1877 21.4706 35.1877C20.6939 35.1877 20.0645 34.5575 20.0645 33.7808Z" fill="#A856F7"/>
<path d="M13.0317 22.5312L13.1756 22.5381C13.8846 22.6103 14.4379 23.2094 14.4379 23.9374C14.4379 24.6654 13.8846 25.2645 13.1756 25.3366L13.0317 25.3435H7.40618C6.62949 25.3435 6 24.714 6 23.9374C6 23.1607 6.62949 22.5312 7.40618 22.5312H13.0317Z" fill="#A856F7"/>
<path d="M7.4082 35.19C7.4082 31.4933 10.3815 28.3368 14.0918 28.1602H14.2357C14.9474 28.1985 15.5288 28.7706 15.5635 29.4977C15.6004 30.2735 15.0009 30.9324 14.2251 30.9693L14.0209 30.9846C11.9179 31.1934 10.2206 33.0493 10.2206 35.19C10.2205 35.9666 9.59101 36.5961 8.81439 36.5961C8.03776 36.5961 7.40831 35.9666 7.4082 35.19Z" fill="#A856F7"/>
</svg>
