<svg width="30" height="30" viewBox="0 0 30 30" fill="none" xmlns="http://www.w3.org/2000/svg">
<path d="M16.8665 26.3326L15 27.6247L13.1336 26.3326C9.80385 24.0274 7.07066 20.9627 5.16006 17.3919C3.24945 13.8211 2.21631 9.84674 2.14608 5.79752L5.80073 2.14286H24.1994L27.8529 5.79752C27.7825 9.87935 26.7327 13.8846 24.7919 17.4761L26.3604 19.0447C28.742 14.8758 29.9965 10.1584 30.0001 5.35716C30 5.07302 29.8871 4.80054 29.6862 4.59966L25.4004 0.313929C25.1995 0.112983 24.9271 6.06831e-05 24.6429 0H5.35716C5.07302 6.06831e-05 4.80054 0.112983 4.59966 0.313929L0.313929 4.59966C0.112983 4.80054 6.06831e-05 5.07302 0 5.35716C0.000399519 9.82792 1.08454 14.232 3.15955 18.192C5.23456 22.1521 8.23859 25.5501 11.9143 28.0951L14.3893 29.8094C14.5688 29.9335 14.7818 30 15 30C15.2183 30 15.4313 29.9335 15.6108 29.8094L18.0858 28.0951C19.4462 27.1526 20.7192 26.0897 21.8893 24.9194L20.3754 23.4065C19.2957 24.4849 18.1213 25.4642 16.8665 26.3326Z" fill="#A856F7"/>
<path d="M24.329 18.5277C24.1281 18.3268 23.8556 18.214 23.5715 18.214C23.2874 18.214 23.0149 18.3268 22.814 18.5277L22.5001 18.8416L21.7629 18.1045C22.9352 16.6063 23.5722 14.7589 23.5726 12.8566C23.5726 8.13052 19.7272 4.28516 15.0011 4.28516C10.2751 4.28516 6.42969 8.13052 6.42969 12.8566C6.42969 17.5827 10.2751 21.4281 15.0011 21.4281C16.9029 21.4278 18.7499 20.7911 20.2479 19.6195L20.9851 20.3566L20.6712 20.6706C20.4703 20.8715 20.3575 21.144 20.3575 21.4281C20.3575 21.7122 20.4703 21.9846 20.6712 22.1856L24.5133 26.0277C24.7529 26.2687 25.0379 26.4597 25.3519 26.5898C25.6658 26.7198 26.0024 26.7862 26.3422 26.7852C27.0322 26.7852 27.6815 26.5163 28.1722 26.0266C29.1794 25.0184 29.1794 23.377 28.1712 22.3699L24.329 18.5277ZM15.0011 19.2852C11.4558 19.2852 8.57255 16.402 8.57255 12.8566C8.57255 9.31124 11.4558 6.42802 15.0011 6.42802C18.5465 6.42802 21.4297 9.31124 21.4297 12.8566C21.4297 16.402 18.5465 19.2852 15.0011 19.2852ZM26.6572 24.5116C26.428 24.742 26.2533 24.7366 26.0283 24.5116L22.9437 21.4281L23.5715 20.8002L26.6562 23.8849C26.7389 23.9682 26.7854 24.0808 26.7854 24.1982C26.7854 24.3157 26.74 24.4283 26.6572 24.5116Z" fill="#A856F7"/>
<path d="M17.4079 10.0108L14.4132 13.434L13.0804 12.1011C12.9815 11.9988 12.8633 11.9172 12.7326 11.861C12.6019 11.8049 12.4613 11.7753 12.319 11.7741C12.1768 11.7728 12.0357 11.7999 11.904 11.8538C11.7723 11.9077 11.6527 11.9872 11.5521 12.0878C11.4515 12.1884 11.3719 12.3081 11.3181 12.4397C11.2642 12.5714 11.2371 12.7125 11.2383 12.8548C11.2396 12.997 11.2691 13.1376 11.3253 13.2683C11.3814 13.3991 11.463 13.5173 11.5654 13.6161L13.7082 15.759C13.9097 15.9604 14.1818 16.0729 14.4657 16.0729L14.5011 16.0719C14.6478 16.0675 14.7921 16.0329 14.9248 15.9702C15.0576 15.9076 15.176 15.8181 15.2725 15.7076L19.0215 11.4218C19.1141 11.3159 19.185 11.1927 19.2301 11.0594C19.2751 10.926 19.2935 10.7851 19.2841 10.6447C19.2747 10.5043 19.2377 10.3671 19.1753 10.2409C19.1128 10.1148 19.0262 10.0022 18.9202 9.90951C18.8143 9.81686 18.6911 9.74598 18.5578 9.70093C18.4244 9.65587 18.2835 9.63752 18.1431 9.64693C18.0027 9.65633 17.8654 9.6933 17.7393 9.75573C17.6132 9.81815 17.5005 9.90481 17.4079 10.0108Z" fill="#A856F7"/>
</svg>
