<svg width="44" height="44" viewBox="0 0 44 44" fill="none" xmlns="http://www.w3.org/2000/svg">
<path d="M26.5455 3.80224C28.8781 3.37722 31.285 3.67307 33.4452 4.65058L33.625 4.74544C34.0284 4.9911 34.3116 5.39931 34.3974 5.87025C34.4831 6.3411 34.3621 6.82264 34.0713 7.19471L33.9367 7.34649L27.6667 13.6165L30.3084 16.2582L36.5784 9.9891L36.7311 9.85449C37.1032 9.56365 37.5846 9.44258 38.0555 9.52834C38.5937 9.62639 39.0497 9.98223 39.2752 10.4806C40.2527 12.6407 40.5486 15.0477 40.1235 17.3803C39.6985 19.7128 38.5729 21.8608 36.8964 23.5373C35.2198 25.2138 33.0719 26.3395 30.7394 26.7645C28.7941 27.1189 26.7979 26.9699 24.9356 26.3444L14.1908 37.0901C13.2764 38.0044 12.0566 38.5432 10.7712 38.607L10.5128 38.6133C9.13358 38.6132 7.811 38.0653 6.83573 37.0901C5.86034 36.1147 5.3125 34.7915 5.3125 33.4121C5.31259 32.0328 5.86045 30.7103 6.83573 29.735L17.5805 18.9884C16.9555 17.1266 16.807 15.1311 17.1613 13.1864C17.5863 10.8538 18.7119 8.70594 20.3885 7.02938C22.065 5.35283 24.2129 4.22726 26.5455 3.80224ZM8.64444 33.4121C8.64444 33.9076 8.84154 34.3834 9.19194 34.7338C9.54223 35.0841 10.0174 35.2803 10.5128 35.2804L10.698 35.2714C11.1257 35.2289 11.528 35.0404 11.8345 34.7338L23.3482 23.2193L23.443 23.1317C23.9311 22.7137 24.6214 22.6115 25.2138 22.8796C26.7568 23.5778 28.476 23.7894 30.1422 23.4858C31.8082 23.1822 33.3418 22.3777 34.5393 21.1802C35.7367 19.9827 36.5413 18.4491 36.8449 16.7831C36.9917 15.9774 37.0171 15.1591 36.9262 14.3546L32.6538 18.6279C32.6498 18.6319 32.6451 18.6358 32.6411 18.6397C32.0182 19.2501 31.1805 19.5919 30.3084 19.5919C29.4907 19.5918 28.7034 19.2915 28.0949 18.7508L27.9757 18.6397L25.2861 15.9501C24.6755 15.3271 24.3339 14.4888 24.3339 13.6165C24.334 12.7443 24.6756 11.9066 25.2861 11.2838L25.2978 11.272L25.315 11.2557L29.5703 6.99866C28.766 6.90793 27.9481 6.93413 27.1427 7.08088C25.4768 7.38447 23.943 8.18831 22.7456 9.38559C21.5481 10.5831 20.7436 12.1175 20.44 13.7836C20.1364 15.4498 20.348 17.169 21.0462 18.712C21.3321 19.3438 21.1969 20.0872 20.7065 20.5776L9.19194 32.0912C8.84164 32.4416 8.64453 32.9167 8.64444 33.4121Z" fill="#A856F7"/>
</svg>
