<svg width="44" height="44" viewBox="0 0 44 44" fill="none" xmlns="http://www.w3.org/2000/svg">
<path d="M3 22C3 19.3478 4.05321 16.804 5.92859 14.9286C7.80398 13.0532 10.3478 12 13 12H16.333L16.5037 12.0081C17.3441 12.0934 17.9995 12.8035 17.9995 13.6665C17.9995 14.5295 17.3441 15.2396 16.5037 15.3249L16.333 15.333H13C11.2319 15.333 9.53598 16.0355 8.28573 17.2857C7.03547 18.536 6.33303 20.2319 6.33303 22C6.33305 23.7681 7.03549 25.464 8.28573 26.7143C9.53598 27.9645 11.2319 28.667 13 28.667H16.333L16.5037 28.6751C17.3441 28.7604 17.9995 29.4705 17.9995 30.3335C17.9995 31.1964 17.3441 31.9066 16.5037 31.9919L16.333 32H13C10.3478 32 7.80397 30.9468 5.92859 29.0714C4.05322 27.196 3.00002 24.6522 3 22Z" fill="#3C83F6"/>
<path d="M36.3325 22C36.3325 20.2319 35.6301 18.536 34.3798 17.2857C33.2078 16.1138 31.6444 15.423 29.9969 15.3412L29.6656 15.333H26.3325C25.412 15.333 24.666 14.587 24.666 13.6665C24.666 12.746 25.412 12 26.3325 12H29.6656L30.1621 12.0117C32.6336 12.1344 34.9789 13.1706 36.737 14.9286C38.6124 16.804 39.6656 19.3478 39.6656 22C39.6655 24.6522 38.6123 27.196 36.737 29.0714C34.9789 30.8294 32.6335 31.8647 30.1621 31.9874L29.6656 32H26.3325C25.4121 32 24.6661 31.2539 24.666 30.3335C24.666 29.413 25.412 28.667 26.3325 28.667H29.6656L29.9969 28.6588C31.6444 28.577 33.2078 27.8862 34.3798 26.7143C35.6301 25.464 36.3325 23.7681 36.3325 22Z" fill="#3C83F6"/>
<path d="M27.9995 20.332L28.1702 20.3402C29.0107 20.4254 29.667 21.1355 29.667 21.9985C29.667 22.8616 29.0107 23.5717 28.1702 23.6569L27.9995 23.6651H14.6665C13.746 23.6651 13 22.919 13 21.9985C13 21.0781 13.746 20.332 14.6665 20.332H27.9995Z" fill="#3C83F6"/>
</svg>
