<svg width="44" height="44" viewBox="0 0 44 44" fill="none" xmlns="http://www.w3.org/2000/svg">
<path d="M24.3235 11.0905C24.3234 10.729 24.1803 10.3823 23.9247 10.1266C23.6689 9.87087 23.3217 9.727 22.96 9.727H22.3603C21.9987 9.727 21.6521 9.87096 21.3963 10.1266C21.1407 10.3823 20.9968 10.7289 20.9968 11.0905V11.3379C20.996 12.0552 20.8062 12.76 20.4472 13.381C20.0888 14.0009 19.5735 14.5152 18.9537 14.8737L18.9545 14.8745L18.368 15.215L18.365 15.2172C17.7431 15.5763 17.0371 15.7653 16.319 15.7653C15.6161 15.7652 14.9258 15.5831 14.3137 15.2386V15.2394L14.1091 15.13C14.0959 15.123 14.0828 15.1161 14.0699 15.1086C13.757 14.9281 13.3848 14.8787 13.0358 14.972C12.7306 15.0536 12.4647 15.2385 12.2817 15.4927L12.2086 15.6057L11.9087 16.1242L11.908 16.1235C11.7283 16.4361 11.6804 16.8077 11.7735 17.1561C11.8552 17.4613 12.04 17.7272 12.2943 17.9102L12.4073 17.9834L12.4804 18.0292L12.685 18.1651H12.6843C13.2691 18.5195 13.7575 19.0134 14.1017 19.6054C14.4605 20.2226 14.6513 20.9234 14.6557 21.6373V22.3353L14.6475 22.6049C14.6086 23.2321 14.4256 23.8433 14.1113 24.3902C13.7559 25.0085 13.2449 25.5223 12.6296 25.8822L12.6303 25.883L12.4257 26.0056C12.4198 26.0091 12.4133 26.0124 12.4073 26.0159C12.0947 26.1969 11.8669 26.495 11.7735 26.8439C11.6804 27.1921 11.7285 27.5633 11.908 27.8758H11.9087L12.2079 28.3935H12.2086C12.3896 28.706 12.687 28.9339 13.0358 29.0273C13.3848 29.1206 13.757 29.0719 14.0699 28.8914L14.1091 28.8692L14.3137 28.7606C14.9258 28.4163 15.6162 28.2348 16.319 28.2347C16.9474 28.2347 17.5665 28.379 18.1279 28.6558L18.365 28.7828L18.368 28.785L18.9508 29.1233H18.9515C19.5726 29.482 20.0882 29.9981 20.4472 30.619C20.8062 31.2401 20.996 31.9447 20.9968 32.6621V32.9088C20.9968 33.2704 21.1406 33.6177 21.3963 33.8734C21.6521 34.129 21.9987 34.273 22.3603 34.273H22.96C23.3217 34.273 23.6689 34.1291 23.9247 33.8734C24.1804 33.6177 24.3235 33.2704 24.3235 32.9088V32.6621L24.3331 32.3939C24.3748 31.77 24.5589 31.1625 24.8731 30.619C25.2321 29.998 25.7483 29.482 26.3695 29.1233L26.9523 28.785L26.956 28.7828L27.1923 28.6558C27.7539 28.379 28.3728 28.2347 29.0012 28.2347C29.7039 28.2347 30.3939 28.4165 31.0059 28.7606H31.0066L31.2112 28.8692L31.2511 28.8914C31.5639 29.0718 31.9355 29.1206 32.2844 29.0273C32.6333 28.9339 32.9314 28.7061 33.1124 28.3935L33.4042 27.875L33.4108 27.8639C33.5913 27.5511 33.64 27.1795 33.5467 26.8306C33.4539 26.4833 33.2277 26.1869 32.9174 26.0056L32.7505 25.9169C32.7371 25.9098 32.7237 25.9023 32.7106 25.8948C32.0864 25.5344 31.5682 25.0151 31.209 24.3902C30.8498 23.7652 30.6618 23.0562 30.6646 22.3353V21.6588C30.6628 20.9398 30.8507 20.2332 31.209 19.6098C31.5644 18.9914 32.0752 18.477 32.6907 18.117L32.8953 17.9944L32.913 17.9834L33.026 17.9102C33.2803 17.7273 33.465 17.4614 33.5467 17.1561C33.64 16.8071 33.5913 16.4349 33.4108 16.122V16.1213L33.1117 15.6057V15.605C32.9306 15.2929 32.633 15.0652 32.2844 14.972C31.9791 14.8903 31.6563 14.9176 31.3707 15.0466L31.2511 15.1086C31.2381 15.1161 31.2245 15.123 31.2112 15.13L31.0066 15.2394L31.0059 15.2386C30.3938 15.5829 29.704 15.7653 29.0012 15.7653C28.2832 15.7653 27.5778 15.5762 26.956 15.2172L26.9523 15.215L26.3658 14.8745V14.8737C25.7463 14.5152 25.2313 14.0007 24.8731 13.381C24.5141 12.76 24.3243 12.0552 24.3235 11.3379V11.0905ZM27.0513 11.335L27.0542 11.4244C27.0681 11.6323 27.1297 11.8349 27.2344 12.016C27.3392 12.1971 27.4837 12.3515 27.6569 12.4673L27.733 12.5146L27.7367 12.5168L28.3195 12.8551L28.3985 12.8972C28.5857 12.9894 28.7918 13.0383 29.0012 13.0383C29.2406 13.0382 29.4757 12.9748 29.683 12.8551L29.7229 12.8329L29.9275 12.7236C30.8579 12.2005 31.9568 12.0613 32.9891 12.3373C33.9705 12.5998 34.8165 13.2176 35.366 14.0664L35.4723 14.2393L35.7722 14.7578L35.7729 14.7593L35.8704 14.9373C36.3317 15.8371 36.4438 16.8786 36.1814 17.86C35.9032 18.9004 35.2259 19.7881 34.2972 20.3322L34.2979 20.3329L34.0933 20.4555L33.9973 20.5146C33.8233 20.6311 33.6781 20.7866 33.5733 20.9689C33.4537 21.1772 33.3914 21.4134 33.3924 21.6536V22.3464C33.3914 22.5866 33.4536 22.8229 33.5733 23.0311C33.6917 23.237 33.8619 23.4083 34.0667 23.5282L34.2381 23.6191L34.2802 23.6427C35.2179 24.1859 35.9015 25.0791 36.1814 26.126C36.4602 27.1687 36.315 28.2785 35.7789 29.2149L35.7796 29.2156L35.4797 29.7474C35.4772 29.7519 35.4749 29.7563 35.4723 29.7607C34.9292 30.6984 34.0359 31.382 32.9891 31.662C31.9566 31.9381 30.858 31.7982 29.9275 31.2749V31.2757L29.7229 31.1671L29.683 31.1442C29.4757 31.0246 29.2405 30.9618 29.0012 30.9617C28.7632 30.9617 28.5289 31.0236 28.3224 31.142L28.3232 31.1427L27.7367 31.4832L27.733 31.4854C27.5259 31.605 27.3541 31.777 27.2344 31.984C27.1148 32.191 27.0515 32.4259 27.0513 32.665V32.9088C27.0513 33.9937 26.6204 35.0348 25.8532 35.802C25.086 36.5691 24.045 37 22.96 37H22.3603C21.2754 37 20.235 36.569 19.4678 35.802C18.7006 35.0348 18.269 33.9937 18.269 32.9088V32.665L18.2661 32.5756C18.2522 32.3677 18.1912 32.1651 18.0866 31.984C17.9669 31.777 17.7944 31.605 17.5873 31.4854L17.5836 31.4832L16.9978 31.1427V31.142C16.7914 31.0236 16.557 30.9617 16.319 30.9617C16.1097 30.9618 15.9034 31.0099 15.7163 31.1021L15.6373 31.1442C15.624 31.1518 15.6109 31.1599 15.5974 31.1671L15.3928 31.2757L15.3921 31.2749C14.4617 31.7979 13.3641 31.9379 12.3319 31.662C11.2851 31.382 10.3919 30.6984 9.84868 29.7607H9.84794L9.54806 29.2422L9.54732 29.2407C9.00581 28.302 8.85891 27.1862 9.13886 26.1393C9.40132 25.158 10.0186 24.3118 10.8672 23.7624L11.0401 23.656L11.227 23.5445L11.2469 23.5326C11.4549 23.4125 11.6273 23.2394 11.7469 23.0311C11.8666 22.8228 11.9296 22.5866 11.9287 22.3464V21.6536L11.925 21.5649C11.9102 21.3579 11.8487 21.1564 11.744 20.9763C11.6393 20.7963 11.4947 20.6431 11.3222 20.5279L11.2469 20.4806L11.1723 20.4349L10.9817 20.3078C10.0744 19.7617 9.4129 18.8848 9.13886 17.86C8.85901 16.8131 9.00586 15.6979 9.54732 14.7593L9.54806 14.7578L9.84794 14.2393H9.84868L9.9543 14.0664C10.5038 13.2175 11.3504 12.5998 12.3319 12.3373C13.3639 12.0615 14.4619 12.2009 15.3921 12.7236H15.3928L15.5974 12.8329L15.6373 12.8551C15.8445 12.9747 16.0798 13.0382 16.319 13.0383C16.5286 13.0383 16.7352 12.9896 16.9225 12.8972L17.0008 12.8551L17.5836 12.5168L17.5873 12.5146L17.6633 12.4673C17.8367 12.3515 17.9818 12.1972 18.0866 12.016C18.206 11.8094 18.2685 11.575 18.269 11.3365V11.0905C18.2691 10.0056 18.7007 8.96518 19.4678 8.19805C20.235 7.43095 21.2753 7 22.3603 7H22.96C24.045 7 25.086 7.43085 25.8532 8.19805C26.6203 8.96517 27.0512 10.0057 27.0513 11.0905V11.335Z" fill="#3C83F6"/>
<path d="M25.3888 22.0016C25.3888 20.4955 24.1679 19.2741 22.6618 19.2739C21.1555 19.2739 19.934 20.4954 19.934 22.0016C19.9342 23.5077 21.1557 24.7286 22.6618 24.7286C24.1678 24.7285 25.3886 23.5076 25.3888 22.0016ZM28.1158 22.0016C28.1156 25.0138 25.674 27.4555 22.6618 27.4556C19.6494 27.4556 17.2072 25.0139 17.207 22.0016C17.207 18.9892 19.6493 16.5469 22.6618 16.5469C25.6741 16.5471 28.1158 18.9893 28.1158 22.0016Z" fill="#3C83F6"/>
</svg>
