<svg width="44" height="44" viewBox="0 0 44 44" fill="none" xmlns="http://www.w3.org/2000/svg">
<path d="M20.8062 26.29C21.0115 26.4274 21.253 26.5007 21.5 26.5007C21.747 26.5007 21.9885 26.4274 22.1938 26.29C22.5225 26.0713 30.25 20.8262 30.25 12.75C30.25 7.925 26.325 4 21.5 4C16.675 4 12.75 7.925 12.75 12.75C12.75 20.8262 20.4775 26.0713 20.8062 26.29ZM21.5 6.5C24.9462 6.5 27.75 9.30375 27.75 12.75C27.75 18.185 23.26 22.29 21.5 23.69C19.74 22.29 15.25 18.185 15.25 12.75C15.25 9.30375 18.0538 6.5 21.5 6.5ZM34.625 29.625C32.65 29.625 30.9963 30.9488 30.4538 32.75H26.5V31.5C26.5 30.1212 25.3788 29 24 29H19C17.6212 29 16.5 30.1212 16.5 31.5V32.75H12.5462C12.0037 30.9488 10.35 29.625 8.375 29.625C5.9625 29.625 4 31.5875 4 34C4 36.4125 5.9625 38.375 8.375 38.375C10.35 38.375 12.0037 37.0512 12.5462 35.25H16.5V36.5C16.5 37.8788 17.6212 39 19 39H24C25.3788 39 26.5 37.8788 26.5 36.5V35.25H30.4538C30.9963 37.0512 32.65 38.375 34.625 38.375C37.0375 38.375 39 36.4125 39 34C39 31.5875 37.0375 29.625 34.625 29.625ZM8.375 35.875C7.34125 35.875 6.5 35.0338 6.5 34C6.5 32.9662 7.34125 32.125 8.375 32.125C9.40875 32.125 10.25 32.9662 10.25 34C10.25 35.0338 9.40875 35.875 8.375 35.875ZM19 36.5V31.5H24V36.5H18.9987H19ZM34.625 35.875C33.5912 35.875 32.75 35.0338 32.75 34C32.75 32.9662 33.5912 32.125 34.625 32.125C35.6588 32.125 36.5 32.9662 36.5 34C36.5 35.0338 35.6588 35.875 34.625 35.875ZM25.25 12.75C25.25 10.6825 23.5675 9 21.5 9C19.4325 9 17.75 10.6825 17.75 12.75C17.75 14.8175 19.4325 16.5 21.5 16.5C23.5675 16.5 25.25 14.8175 25.25 12.75ZM20.25 12.75C20.25 12.0613 20.8113 11.5 21.5 11.5C22.1887 11.5 22.75 12.0613 22.75 12.75C22.75 13.4387 22.1887 14 21.5 14C20.8113 14 20.25 13.4387 20.25 12.75Z" fill="#3C83F6"/>
</svg>
