<svg width="44" height="44" viewBox="0 0 44 44" fill="none" xmlns="http://www.w3.org/2000/svg">
<g clip-path="url(#clip0_4160_873)">
<path d="M21.6072 6.63672C22.4125 6.63676 23.2084 6.80936 23.9411 7.14351L23.9401 7.14452L40.011 14.463L40.01 14.464C40.6634 14.7487 41.2229 15.2129 41.6218 15.8046C42.0318 16.4128 42.2549 17.1277 42.2626 17.8612C42.2702 18.5949 42.0619 19.3153 41.6644 19.932C41.2705 20.5432 40.707 21.0255 40.0435 21.3224L40.0445 21.3234L23.9401 28.6296L23.9411 28.6307C23.3001 28.923 22.6106 29.0916 21.9089 29.1293L21.6072 29.1374C20.9026 29.1374 20.2048 29.0054 19.5506 28.7485L19.2724 28.6307L3.20449 21.3031V21.3021C2.5482 21.0087 1.98942 20.534 1.59577 19.932C1.19696 19.322 0.984375 18.6083 0.984375 17.8795C0.984416 17.1507 1.197 16.4379 1.59577 15.8279C1.98971 15.2254 2.54847 14.7492 3.2055 14.4559L19.2724 7.14452V7.14351C20.0052 6.80924 20.8018 6.63672 21.6072 6.63672ZM4.76039 17.8917L20.8283 25.2182L20.8293 25.2192L21.0162 25.2924C21.2063 25.3555 21.4061 25.3878 21.6072 25.3878L21.8073 25.3767C22.0067 25.3552 22.202 25.3028 22.3852 25.2192L22.3882 25.2172L38.4947 17.9089L38.513 17.9008L38.4561 17.8764L22.3862 10.5559H22.3852C22.141 10.4446 21.8756 10.3864 21.6072 10.3863C21.3389 10.3863 21.0735 10.4446 20.8293 10.5559H20.8273L4.75836 17.8683L4.73399 17.8795L4.76039 17.8917Z" fill="#A856F7"/>
<path d="M38.4824 29.1364V17.8865C38.4824 16.851 39.3217 16.0117 40.3572 16.0117C41.3928 16.0117 42.232 16.851 42.232 17.8865V29.1364C42.232 30.1719 41.3928 31.0112 40.3572 31.0112C39.3217 31.0112 38.4824 30.1719 38.4824 29.1364Z" fill="#A856F7"/>
<path d="M8.48242 29.1369V22.574C8.48242 21.5385 9.3217 20.6992 10.3572 20.6992C11.3928 20.6992 12.232 21.5385 12.232 22.574V29.1369L12.2371 29.2212C12.2856 29.6754 12.7301 30.5569 14.4907 31.4372C16.2804 32.332 18.8395 32.8865 21.6071 32.8865L22.124 32.8804C24.6919 32.8161 27.0457 32.276 28.7234 31.4372C30.6003 30.4988 30.9819 29.559 30.9821 29.1369V22.574C30.9821 21.5386 31.8215 20.6994 32.8569 20.6992C33.8925 20.6992 34.7317 21.5385 34.7317 22.574V29.1369C34.7316 31.6984 32.7422 33.6197 30.4002 34.7907C28.1222 35.9297 25.1993 36.5553 22.2063 36.629L21.6071 36.6361C18.4074 36.6361 15.2438 36.0056 12.814 34.7907C10.545 33.6562 8.6073 31.8174 8.48852 29.3745L8.48242 29.1369Z" fill="#A856F7"/>
</g>
<defs>
<clipPath id="clip0_4160_873">
<rect width="43.27" height="43.27" fill="white" transform="translate(0.349609)"/>
</clipPath>
</defs>
</svg>
