<svg width="44" height="44" viewBox="0 0 44 44" fill="none" xmlns="http://www.w3.org/2000/svg">
<path d="M27.9075 25.6136H23.5388L24.4489 22.5891C24.7273 21.6847 24.6398 20.7073 24.2052 19.8668C23.7705 19.0263 23.0234 18.3898 22.1245 18.0943C21.8664 18.0092 21.5934 17.9784 21.3228 18.0036C21.0521 18.0289 20.7896 18.1098 20.5517 18.2413C20.3138 18.3727 20.1056 18.5519 19.9401 18.7676C19.7746 18.9832 19.6555 19.2307 19.5901 19.4946L19.4501 20.0827C18.922 22.2018 17.8282 24.1377 16.2855 25.6836L15.4874 26.4678C15.2846 26.2123 15.0271 26.0055 14.7339 25.8625C14.4408 25.7196 14.1193 25.6441 13.7931 25.6416H12.7709C12.1964 25.6416 11.645 25.8679 11.2361 26.2715C10.8273 26.6751 10.5939 27.2235 10.5865 27.798V36.8156C10.5865 37.3949 10.8167 37.9505 11.2263 38.3602C11.636 38.7698 12.1916 38.9999 12.7709 38.9999H13.7931C14.1691 38.9991 14.5384 38.9005 14.8649 38.714C15.1914 38.5274 15.4638 38.2593 15.6554 37.9358L15.8515 38.0338C17.117 38.6657 18.5116 38.9964 19.9262 38.9999H24.953C25.7841 39.004 26.6031 38.8013 27.3363 38.4103C28.0696 38.0192 28.6941 37.4519 29.1538 36.7596C30.132 35.2968 30.6535 33.5764 30.652 31.8167V28.3301C30.652 27.971 30.5809 27.6154 30.4426 27.284C30.3043 26.9526 30.1017 26.6519 29.8465 26.3993C29.5913 26.1467 29.2885 25.9472 28.9557 25.8123C28.6229 25.6774 28.2666 25.6099 27.9075 25.6136ZM14.5212 36.8156C14.5212 37.0235 14.4386 37.223 14.2916 37.37C14.1445 37.5171 13.9451 37.5997 13.7371 37.5997H12.7709C12.563 37.5997 12.3635 37.5171 12.2165 37.37C12.0694 37.223 11.9868 37.0235 11.9868 36.8156V27.798C11.9868 27.59 12.0694 27.3906 12.2165 27.2435C12.3635 27.0965 12.563 27.0139 12.7709 27.0139H13.7931C13.9912 27.028 14.1766 27.1169 14.3117 27.2624C14.4468 27.408 14.5217 27.5994 14.5212 27.798V36.8156ZM29.2238 31.8167C29.2296 33.3109 28.7909 34.7732 27.9636 36.0174C27.6325 36.5123 27.1847 36.9181 26.6596 37.199C26.1346 37.4798 25.5485 37.6271 24.953 37.6277H19.9262C18.7307 37.6265 17.5517 37.3486 16.4816 36.8156L15.9215 36.5355V27.938L17.2097 26.6498C18.9333 24.9265 20.1575 22.7683 20.7523 20.4047L20.8923 19.8306C20.9339 19.677 21.0346 19.5461 21.1724 19.4666C21.243 19.4357 21.3193 19.4198 21.3964 19.4198C21.4735 19.4198 21.5498 19.4357 21.6205 19.4666C21.8964 19.5583 22.1516 19.7036 22.3713 19.894C22.5911 20.0845 22.7711 20.3164 22.9012 20.5765C23.0312 20.8366 23.1087 21.1198 23.1292 21.4099C23.1497 21.6999 23.1129 21.9912 23.0207 22.267L21.8445 26.2017C21.8141 26.3061 21.8083 26.4161 21.8278 26.523C21.8472 26.6299 21.8913 26.7309 21.9565 26.8178C22.0201 26.9065 22.1044 26.9783 22.202 27.0271C22.2995 27.0759 22.4075 27.1002 22.5166 27.0979H27.8235C27.9964 27.0979 28.1675 27.1319 28.3272 27.1981C28.4869 27.2642 28.632 27.3612 28.7542 27.4834C28.8765 27.6056 28.9734 27.7507 29.0396 27.9104C29.1057 28.0701 29.1398 28.2413 29.1398 28.4141L29.2238 31.8167ZM17.3217 12.1153L16.8736 14.7057C16.8197 14.9924 16.8491 15.2885 16.9583 15.559C17.0675 15.8295 17.2519 16.0631 17.4897 16.232C17.753 16.4282 18.0716 16.5361 18.3999 16.54C18.6534 16.536 18.9025 16.4737 19.128 16.358L21.5224 15.1258L23.8608 16.358C24.118 16.4938 24.4083 16.554 24.6982 16.5317C24.9881 16.5094 25.2658 16.4055 25.4991 16.232C25.7345 16.0641 25.9174 15.8329 26.0264 15.5652C26.1355 15.2975 26.1663 15.0043 26.1152 14.7197L25.7232 12.1153L27.5575 10.295C27.7693 10.0946 27.9199 9.83824 27.9918 9.55566C28.0637 9.27308 28.0539 8.97591 27.9636 8.69868C27.8731 8.42175 27.7072 8.1755 27.4847 7.98753C27.2621 7.79957 26.9915 7.67732 26.7033 7.6345L24.0849 7.25643L22.9227 4.86202C22.7919 4.60281 22.5918 4.38498 22.3446 4.23278C22.0974 4.08058 21.8128 4 21.5224 4C21.2321 4 20.9475 4.08058 20.7003 4.23278C20.4531 4.38498 20.2529 4.60281 20.1222 4.86202L18.96 7.22843L16.3415 7.60649C16.0534 7.64931 15.7828 7.77156 15.5602 7.95953C15.3376 8.14749 15.1718 8.39375 15.0813 8.67068C14.9852 8.95174 14.9723 9.25462 15.0444 9.54281C15.1164 9.831 15.2703 10.0922 15.4874 10.295L17.3217 12.1153ZM16.4816 8.99273L19.4641 8.55866C19.5988 8.56738 19.7331 8.53616 19.8502 8.46891C19.9672 8.40166 20.0619 8.30137 20.1222 8.18059L21.5224 5.47812C21.5347 5.45131 21.5545 5.42859 21.5793 5.41266C21.6041 5.39673 21.633 5.38826 21.6625 5.38826C21.692 5.38826 21.7208 5.39673 21.7457 5.41266C21.7705 5.42859 21.7902 5.45131 21.8025 5.47812L23.2027 8.18059C23.253 8.28284 23.328 8.37095 23.4209 8.43695C23.5138 8.50296 23.6217 8.54479 23.7348 8.55866L26.7173 8.99273C26.7464 8.99865 26.7733 9.01212 26.7954 9.03179C26.8176 9.05146 26.8341 9.07663 26.8434 9.10475C26.8569 9.12817 26.864 9.15473 26.864 9.18177C26.864 9.2088 26.8569 9.23537 26.8434 9.25878L24.687 11.3591C24.6054 11.4406 24.544 11.54 24.5075 11.6494C24.4711 11.7588 24.4606 11.8751 24.477 11.9893L24.995 14.9438C25.0046 14.9736 25.0027 15.0058 24.9897 15.0343C24.9768 15.0627 24.9537 15.0854 24.925 15.0978C24.9008 15.116 24.8713 15.1258 24.841 15.1258C24.8107 15.1258 24.7812 15.116 24.757 15.0978L22.0965 13.6976C21.9982 13.6424 21.8873 13.6134 21.7745 13.6134C21.6617 13.6134 21.5508 13.6424 21.4524 13.6976L18.778 15.0978C18.7559 15.1148 18.7288 15.1241 18.7009 15.1241C18.6731 15.1241 18.646 15.1148 18.6239 15.0978C18.5952 15.0854 18.5722 15.0627 18.5592 15.0343C18.5463 15.0058 18.5444 14.9736 18.5539 14.9438L19.072 11.9893C19.0884 11.8751 19.0779 11.7588 19.0414 11.6494C19.005 11.54 18.9435 11.4406 18.862 11.3591L16.7056 9.25878C16.6921 9.23537 16.685 9.2088 16.685 9.18177C16.685 9.15473 16.6921 9.12817 16.7056 9.10475C16.6692 9.10682 16.6332 9.09701 16.6029 9.0768C16.5726 9.0566 16.5497 9.02709 16.5376 8.99273H16.4816ZM12.1968 20.4467C12.4054 20.4505 12.6122 20.4077 12.8021 20.3213C12.992 20.235 13.1602 20.1073 13.2944 19.9475C13.4286 19.7878 13.5254 19.6002 13.5778 19.3982C13.6301 19.1963 13.6367 18.9852 13.5971 18.7804L13.219 16.6521L14.7873 15.1258C14.9849 14.9445 15.1262 14.7102 15.1945 14.4509C15.2629 14.1916 15.2553 13.9181 15.1727 13.6629C15.0901 13.4078 14.936 13.1817 14.7286 13.0116C14.5213 12.8415 14.2695 12.7345 14.0031 12.7034L11.8608 12.3953L10.8946 10.449C10.7657 10.225 10.58 10.039 10.3563 9.90967C10.1326 9.78033 9.87878 9.71222 9.62037 9.71222C9.36197 9.71222 9.10813 9.78033 8.88443 9.90967C8.66073 10.039 8.47507 10.225 8.34615 10.449L7.37998 12.3953L5.23761 12.7034C4.97125 12.7345 4.71943 12.8415 4.5121 13.0116C4.30477 13.1817 4.15065 13.4078 4.06806 13.6629C3.98547 13.9181 3.97788 14.1916 4.04621 14.4509C4.11453 14.7102 4.25589 14.9445 4.45347 15.1258L6.00774 16.6521L5.62968 18.7804C5.58117 19.0443 5.60949 19.3166 5.71127 19.5648C5.81304 19.813 5.984 20.0268 6.20378 20.1807C6.41844 20.3376 6.67334 20.4301 6.93866 20.4475C7.20398 20.4648 7.46877 20.4063 7.70204 20.2787L9.62037 19.2705L11.5387 20.2787C11.741 20.3879 11.967 20.4456 12.1968 20.4467ZM9.62037 17.7863C9.50751 17.7856 9.39645 17.8145 9.29832 17.8703L7.01592 19.0185L7.52001 16.526C7.5278 16.4062 7.50639 16.2862 7.45761 16.1765C7.40883 16.0667 7.33414 15.9705 7.23996 15.8959L5.43364 14.0896L7.95408 13.7256C8.06552 13.712 8.17162 13.6701 8.2623 13.6039C8.35298 13.5377 8.42523 13.4495 8.47217 13.3475L9.63437 11.0651L10.7686 13.3475C10.8155 13.4495 10.8878 13.5377 10.9784 13.6039C11.0691 13.6701 11.1752 13.712 11.2867 13.7256L13.8071 14.1316L12.0008 15.8959C11.9192 15.9774 11.8578 16.0768 11.8213 16.1862C11.7849 16.2956 11.7744 16.4119 11.7907 16.526L12.1968 19.0465L9.94243 17.8703C9.84429 17.8145 9.73323 17.7856 9.62037 17.7863ZM38.9555 13.6695C38.8755 13.4162 38.725 13.1907 38.5217 13.0197C38.3184 12.8486 38.0706 12.7389 37.8073 12.7034L35.6649 12.3953L34.6987 10.449C34.5698 10.225 34.3842 10.039 34.1605 9.90967C33.9367 9.78033 33.6829 9.71222 33.4245 9.71222C33.1661 9.71222 32.9123 9.78033 32.6886 9.90967C32.4649 10.039 32.2792 10.225 32.1503 10.449L31.1841 12.3953L29.0417 12.7034C28.7754 12.7345 28.5236 12.8415 28.3162 13.0116C28.1089 13.1817 27.9548 13.4078 27.8722 13.6629C27.7896 13.9181 27.782 14.1916 27.8503 14.4509C27.9187 14.7102 28.06 14.9445 28.2576 15.1258L29.8119 16.6521L29.4338 18.7804C29.3853 19.0443 29.4136 19.3166 29.5154 19.5648C29.6172 19.813 29.7881 20.0268 30.0079 20.1807C30.2226 20.3376 30.4775 20.4301 30.7428 20.4475C31.0081 20.4648 31.2729 20.4063 31.5062 20.2787L33.4245 19.2705L35.3428 20.2787C35.5451 20.3879 35.7711 20.4456 36.001 20.4467C36.2095 20.4505 36.4163 20.4077 36.6062 20.3213C36.7961 20.235 36.9643 20.1073 37.0985 19.9475C37.2327 19.7878 37.3295 19.6002 37.3819 19.3982C37.4343 19.1963 37.4409 18.9852 37.4012 18.7804L37.0231 16.6521L38.5774 15.1258C38.7725 14.9442 38.9117 14.7107 38.9786 14.4528C39.0456 14.1948 39.0376 13.9231 38.9555 13.6695ZM35.8049 15.8959C35.7234 15.9774 35.6619 16.0768 35.6255 16.1862C35.589 16.2956 35.5785 16.4119 35.5949 16.526L36.001 19.0465L33.7466 17.8703C33.6482 17.8151 33.5373 17.7861 33.4245 17.7861C33.3117 17.7861 33.2008 17.8151 33.1025 17.8703L30.8201 19.0185L31.3241 16.526C31.3319 16.4062 31.3105 16.2862 31.2617 16.1765C31.213 16.0667 31.1383 15.9705 31.0441 15.8959L29.2378 14.0896L31.7582 13.7256C31.8696 13.712 31.9758 13.6701 32.0664 13.6039C32.1571 13.5377 32.2294 13.4495 32.2763 13.3475L33.4385 11.0651L34.5727 13.3475C34.6196 13.4495 34.6919 13.5377 34.7826 13.6039C34.8733 13.6701 34.9794 13.712 35.0908 13.7256L37.6112 14.1316L35.8049 15.8959Z" fill="#A856F7" stroke="#A856F7" stroke-width="0.5"/>
</svg>
