<svg width="61" height="60" viewBox="0 0 61 60" fill="none" xmlns="http://www.w3.org/2000/svg">
<path d="M30.6852 7.62423C31.337 7.62423 31.8654 7.09583 31.8654 6.44404V1.1802C31.8654 0.5284 31.337 0 30.6852 0C30.0334 0 29.505 0.5284 29.505 1.1802V6.44404C29.5051 7.09583 30.0335 7.62423 30.6852 7.62423ZM59.5336 40.5452L57.4487 38.4662C56.7071 37.7254 55.7186 37.3174 54.6653 37.3174C53.9918 37.3174 53.3453 37.485 52.7724 37.7989L48.8435 33.8748L49.0349 33.6836C50.6288 32.0866 50.6282 29.4915 49.0348 27.8998C48.4739 27.3359 47.7594 26.9495 46.9804 26.7889C47.0885 26.4157 47.1433 26.0292 47.1431 25.6407C47.1431 24.5444 46.7173 23.5164 45.9464 22.7487C45.3855 22.1848 44.671 21.7984 43.892 21.6378C44.0001 21.2646 44.0549 20.8781 44.0548 20.4896C44.0548 19.3932 43.6289 18.3653 42.8568 17.5964C42.2953 17.0348 41.5818 16.6496 40.8041 16.4884C41.2068 15.1001 40.8627 13.5381 39.7705 12.444C38.8614 11.5388 37.6277 11.1497 36.4389 11.2758L28.6535 9.80217C27.4661 9.57693 25.9834 9.42799 25.0474 10.2817C24.9883 10.3356 24.9281 10.3976 24.8688 10.4666C23.4175 9.93764 21.7249 10.2526 20.5627 11.4135C19.7918 12.1835 19.3671 13.211 19.3671 14.3067C19.3671 14.7014 19.423 15.0869 19.5295 15.4551C18.7519 15.6153 18.0387 16.0008 17.4787 16.5635C16.7062 17.3329 16.2802 18.3592 16.2794 19.4536C16.2789 19.8432 16.3338 20.2309 16.4423 20.6051C15.6641 20.7651 14.9501 21.1502 14.3889 21.7125C13.6164 22.4842 13.191 23.5123 13.191 24.6074C13.191 25.4463 13.4415 26.2454 13.9055 26.9204C13.3133 27.1212 12.7753 27.456 12.3335 27.8985C10.7385 29.4915 10.7379 32.0867 12.3345 33.6861L12.5252 33.8759L8.59587 37.7981C7.1356 37.1105 5.33641 37.3681 4.13137 38.5716L2.0452 40.652C1.30316 41.3931 0.894648 42.3816 0.894531 43.4355C0.894531 44.4895 1.30316 45.4782 2.0452 46.2194L4.64876 48.8198C5.10989 49.2805 5.8572 49.28 6.31775 48.8189C6.77841 48.3578 6.77794 47.6104 6.31681 47.1499L3.71325 44.5495C3.4177 44.2543 3.25493 43.8587 3.25493 43.4356C3.25493 43.0127 3.4177 42.6172 3.71254 42.3227L5.79884 40.2423C6.32009 39.7216 7.1179 39.644 7.72376 40.0062C7.84438 40.188 8.01322 40.3326 8.21138 40.4238L20.1754 52.3703C20.2334 52.4976 20.3135 52.6135 20.4121 52.7127C20.5086 52.8089 20.621 52.8875 20.7444 52.9452C20.9987 53.2322 21.1386 53.6029 21.1372 53.9864C21.1372 54.4094 20.9744 54.805 20.6789 55.1001L18.5947 57.1819C17.9789 57.795 16.9771 57.7949 16.3632 57.1837L13.7596 54.5799C13.2987 54.119 12.5515 54.119 12.0906 54.5799C11.6297 55.0408 11.6297 55.788 12.0906 56.2489L14.6961 58.8546C15.463 59.6183 16.4701 60 17.4776 60C18.4855 60 19.4937 59.6177 20.2616 58.8533L22.347 56.7703C23.0891 56.0291 23.4977 55.0405 23.4977 53.9864C23.4977 53.2342 23.2885 52.5158 22.8996 51.8964L27.3218 47.4795L27.336 47.4651C27.8423 46.9417 29.2524 47.0396 30.6162 47.1343C31.5851 47.2017 32.6653 47.2766 33.7207 47.1549L38.5634 51.9919C38.2496 52.5639 38.0822 53.2096 38.0822 53.882C38.0822 54.9349 38.4908 55.9229 39.2328 56.6641L41.3184 58.7472C42.06 59.4879 43.0485 59.8959 44.1018 59.8959C45.1549 59.8959 46.1434 59.488 46.8851 58.7472L59.5344 46.1131C60.2765 45.372 60.6851 44.3834 60.6851 43.3295C60.685 42.2756 60.2764 41.287 59.5336 40.5452ZM28.214 12.1213L33.3336 13.0903L30.2693 16.1535C29.7953 15.9257 29.1456 15.5008 28.4328 14.819C27.4572 13.8857 26.7594 12.8082 26.6959 12.1361L26.6958 12.135L26.6956 12.1347C26.6917 12.0961 26.69 12.0572 26.6905 12.0184C26.8448 11.9809 27.2547 11.9393 28.214 12.1213ZM22.2307 13.0835C22.8286 12.4862 23.7574 12.4173 24.433 12.8748C24.8158 14.4801 26.1852 15.935 26.8012 16.5244C27.2578 16.9613 28.7228 18.2711 30.2014 18.6311C30.4036 18.9213 30.5115 19.2667 30.5103 19.6204C30.5103 20.085 30.3316 20.5195 30.006 20.8448C29.6812 21.1701 29.2461 21.3491 28.7806 21.3491C28.3151 21.3491 27.8799 21.1701 27.5537 20.8432L27.5536 20.8431L27.553 20.8425L22.2306 15.5297C21.9061 15.2057 21.7273 14.7713 21.7273 14.3067C21.7275 13.8421 21.9062 13.4077 22.2307 13.0835ZM19.1468 18.2336C19.4715 17.9084 19.9061 17.7292 20.3709 17.7292C20.8363 17.7292 21.2723 17.9087 21.5991 18.2352L25.8849 22.5125C26.5598 23.1884 26.5598 24.2883 25.8873 24.9619C25.5608 25.2871 25.1241 25.4662 24.6579 25.4662C24.1916 25.4662 23.7549 25.2871 23.4298 24.9633L23.4297 24.9632L20.1784 21.7125C20.1733 21.7075 20.1678 21.7028 20.1627 21.6977L19.1455 20.6809C18.8191 20.3549 18.6395 19.9197 18.6398 19.4554C18.6403 18.9926 18.8193 18.5596 19.1468 18.2336ZM16.057 23.3826C16.3819 23.0581 16.8175 22.8794 17.2837 22.8794C17.746 22.8794 18.1778 23.0555 18.5014 23.3744L21.7627 26.6342C22.0879 26.9581 22.2671 27.392 22.2671 27.8561C22.2671 28.3201 22.0879 28.754 21.7614 29.0792C21.4366 29.4036 21.0015 29.5823 20.5361 29.5823C20.0701 29.5823 19.6336 29.4031 19.3082 29.0792L18.1259 27.8983L18.1251 27.8975L16.0571 25.8319C15.7311 25.5063 15.5516 25.0713 15.5516 24.6072C15.5516 24.1433 15.7311 23.7081 16.057 23.3826ZM14.0015 29.5685C14.3279 29.2424 14.7641 29.0629 15.2296 29.0629C15.6951 29.0629 16.1312 29.2423 16.4574 29.5681L17.6414 30.7506C17.9667 31.0746 18.1457 31.5085 18.1457 31.9726C18.1457 32.4366 17.9666 32.8705 17.6389 33.1969C17.3142 33.5221 16.8791 33.7013 16.4136 33.7013C15.948 33.7013 15.5129 33.5223 15.1858 33.1946L15.0376 33.0469C15.0356 33.0449 15.0341 33.0428 15.0322 33.041L15.0254 33.0349L14.0027 32.0162C13.3278 31.3399 13.3272 30.2419 14.0015 29.5685ZM38.0524 42.9815C37.5918 42.5203 36.8444 42.5199 36.3834 42.9805L35.3334 44.0292C34.3357 45.0269 32.5278 44.9013 30.7795 44.78C28.881 44.6481 26.9177 44.5119 25.6473 45.8162L21.3002 50.158L10.4295 39.3032L14.2766 35.4631C14.9124 35.8529 15.6461 36.0618 16.4138 36.0618C17.5106 36.0618 18.539 35.6367 19.3072 34.8671C20.0805 34.0969 20.5065 33.0691 20.5065 31.9727C20.5065 31.9625 20.5058 31.9524 20.5058 31.9422C20.516 31.9423 20.5262 31.9429 20.5364 31.9429C21.6316 31.9429 22.6592 31.519 23.4284 30.7508C24.2018 29.9806 24.6277 28.9526 24.6277 27.8563C24.6277 27.8461 24.627 27.8361 24.627 27.8259C24.6374 27.8259 24.6477 27.8266 24.6581 27.8266C25.753 27.8266 26.7812 27.4032 27.5556 26.632C28.3595 25.8268 28.7571 24.7667 28.7495 23.7088C28.76 23.709 28.7706 23.7095 28.7811 23.7095C29.8779 23.7094 30.9062 23.2844 31.6755 22.5136C32.4465 21.7436 32.8712 20.7161 32.8712 19.6204C32.8712 18.8541 32.6628 18.1216 32.2744 17.487L35.6462 14.1166C35.8884 13.8752 36.1966 13.7109 36.532 13.6445C36.5672 13.6408 36.6019 13.6351 36.6362 13.6283C37.1572 13.5565 37.7044 13.7173 38.1028 14.1141C38.7777 14.7901 38.7777 15.8901 38.1053 16.5637L37.0784 17.5864C37.075 17.5898 37.0713 17.5928 37.0679 17.5962L35.8851 18.777C35.4239 19.2375 35.4234 19.9848 35.8841 20.446C36.3449 20.9072 37.0921 20.9076 37.5531 20.447L38.5841 19.4174L38.5848 19.4167L38.7407 19.2614C39.4174 18.5909 40.5138 18.5923 41.1899 19.2674C41.5152 19.5913 41.6944 20.0253 41.6944 20.4893C41.6944 20.9533 41.5152 21.3872 41.1873 21.7137L40.1545 22.7486L40.1542 22.7491L38.9715 23.9269C38.5097 24.3869 38.5082 25.1342 38.9681 25.5959C39.4281 26.0577 40.1753 26.0592 40.6371 25.5993L41.8252 24.4161C42.1499 24.0908 42.585 23.9117 43.0505 23.9117C43.5161 23.9117 43.9513 24.0907 44.2784 24.4184C44.6037 24.7424 44.7827 25.1764 44.7827 25.6404C44.7827 26.1044 44.6037 26.5383 44.2765 26.8641L42.2175 28.9239C41.7567 29.3849 41.7568 30.1321 42.2177 30.5929C42.3272 30.7026 42.4573 30.7896 42.6005 30.8489C42.7436 30.9082 42.8971 30.9386 43.0521 30.9384C43.3542 30.9384 43.6563 30.8231 43.8867 30.5926L44.8958 29.5831C44.9016 29.5776 44.9078 29.5728 44.9135 29.567C45.2383 29.2417 45.6734 29.0627 46.1388 29.0627C46.6044 29.0627 47.0395 29.2417 47.3654 29.5682C48.0396 30.2417 48.039 31.3398 47.3654 32.0145L46.3395 33.0393L46.3383 33.0404L46.3372 33.0415L44.7088 34.668C44.2477 35.1287 44.2472 35.876 44.7077 36.3371C44.8172 36.447 44.9474 36.5342 45.0907 36.5936C45.234 36.653 45.3877 36.6835 45.5428 36.6833C45.8446 36.6833 46.1465 36.5682 46.3768 36.3382L47.1734 35.5426L50.991 39.3557L40.1212 50.2122L36.2266 46.3223C36.5066 46.1428 36.7665 45.9336 37.0018 45.6985L38.0512 44.6504C38.5126 44.19 38.5131 43.4427 38.0524 42.9815ZM57.8663 44.4431L45.2169 57.0771C44.921 57.3727 44.5249 57.5354 44.1016 57.5354C43.6784 57.5354 43.2823 57.3727 42.9863 57.077L40.9007 54.994C40.6051 54.6989 40.4423 54.304 40.4423 53.882C40.4423 53.4601 40.6051 53.0652 40.9007 52.77L53.55 40.136C53.846 39.8403 54.242 39.6775 54.6654 39.6775C55.0887 39.6775 55.4848 39.8403 55.7815 40.1367L57.8664 42.2157C58.1619 42.5109 58.3247 42.9063 58.3247 43.3293C58.3246 43.7525 58.1618 44.148 57.8663 44.4431ZM15.0138 6.62931C15.1232 6.7388 15.2532 6.82562 15.3963 6.88478C15.5393 6.94394 15.6926 6.97429 15.8475 6.97408C16.1498 6.97408 16.4523 6.85853 16.6828 6.62755C17.1432 6.16618 17.1425 5.41899 16.6811 4.95856L12.3806 0.666564C11.9193 0.206133 11.172 0.206719 10.7116 0.668204C10.2512 1.12957 10.2519 1.87676 10.7132 2.33719L15.0138 6.62931ZM45.5229 6.97408C45.8247 6.97408 46.1265 6.859 46.3569 6.62896L50.6542 2.33684C51.1153 1.87629 51.1158 1.12899 50.6551 0.667853C50.1946 0.206719 49.4474 0.20625 48.9861 0.666915L44.6889 4.95903C44.2277 5.41958 44.2273 6.16689 44.6879 6.62802C44.7974 6.7379 44.9276 6.82504 45.0709 6.88443C45.2142 6.94382 45.3678 6.97429 45.5229 6.97408Z" fill="#A856F7"/>
<path d="M8.15107 50.766C7.69415 51.2307 7.70048 51.9781 8.16537 52.435L8.16876 52.4382C8.38851 52.655 8.68487 52.7764 8.99353 52.776C9.29904 52.776 9.60455 52.6577 9.83599 52.4223C10.2929 51.9575 10.2848 51.2086 9.82006 50.7517C9.35541 50.2948 8.60822 50.3012 8.15107 50.766ZM40.9387 41.2812C41.1182 41.2812 41.3003 41.2403 41.4713 41.1541C42.0532 40.8606 42.287 40.1509 41.9936 39.5689C41.7 38.987 40.9902 38.7531 40.4084 39.0466L40.4018 39.0499C39.8199 39.3435 39.5894 40.0515 39.8828 40.6335C40.09 41.0446 40.5067 41.2812 40.9387 41.2812Z" fill="#A856F7"/>
</svg>
