<svg width="45" height="44" viewBox="0 0 45 44" fill="none" xmlns="http://www.w3.org/2000/svg">
<path d="M23.8906 7.00985C24.2437 6.97597 24.6001 7.02978 24.9261 7.1664L25.0868 7.24173L25.2399 7.33034C25.5373 7.51858 25.7809 7.77727 25.9479 8.08208L26.0252 8.2379L26.0882 8.40036C26.2187 8.78306 26.2312 9.19647 26.1208 9.58779C26.1158 9.60538 26.1098 9.62284 26.1041 9.64022L23.4175 17.8474L23.3948 17.9101H33.1957C33.7238 17.9092 34.2416 18.0538 34.689 18.3274C35.1376 18.6017 35.4966 18.9947 35.7253 19.4601C35.9539 19.9256 36.0429 20.4446 35.9807 20.957C35.9186 21.4693 35.708 21.9542 35.3743 22.3549C35.3482 22.3862 35.3205 22.4161 35.2917 22.445L21.4368 36.3515L21.4352 36.3508C21.1292 36.6695 20.7273 36.8863 20.2853 36.9659C19.8171 37.0502 19.3331 36.9772 18.9132 36.7584C18.4935 36.5396 18.1626 36.1883 17.9747 35.7622C17.7869 35.3361 17.753 34.8602 17.8792 34.4131L17.8959 34.3599L20.5824 26.1527L20.6052 26.09H10.8036V26.0892C10.2757 26.09 9.75813 25.9462 9.31096 25.6727C8.86252 25.3985 8.50331 25.0059 8.2747 24.5407C8.04612 24.0754 7.95716 23.5562 8.01924 23.0439C8.08139 22.5315 8.29201 22.0467 8.62568 21.646L8.70831 21.5551L22.5632 7.64935V7.65009C22.8694 7.33076 23.2723 7.11393 23.7147 7.03422L23.8906 7.00985ZM10.8066 23.3636H20.6006C21.0518 23.3629 21.4966 23.4687 21.8969 23.6715C22.2984 23.875 22.6434 24.17 22.9021 24.5318C23.1608 24.8938 23.3253 25.312 23.3819 25.7495C23.4356 26.1648 23.3887 26.5856 23.2485 26.9805L23.2493 26.9813L21.4754 32.3963L33.1941 20.6365H23.3993V20.6358C22.9482 20.6365 22.5034 20.5321 22.1031 20.3293C21.7015 20.1258 21.3566 19.8302 21.0979 19.4683C20.8392 19.1064 20.6747 18.6888 20.6181 18.2513C20.5643 17.8355 20.6101 17.4135 20.7507 17.0181L22.5238 11.6023L10.8066 23.3636Z" fill="#A856F7"/>
</svg>
