<svg width="44" height="44" viewBox="0 0 44 44" fill="none" xmlns="http://www.w3.org/2000/svg">
<path d="M14.8184 13.8178V8.36342C14.8184 7.61035 15.4287 7 16.1818 7C16.9349 7 17.5452 7.61035 17.5452 8.36342V13.8178C17.5451 14.5708 16.9348 15.1813 16.1818 15.1813C15.4288 15.1813 14.8185 14.5708 14.8184 13.8178Z" fill="#A856F7"/>
<path d="M25.7266 13.8178V8.36342C25.7266 7.61035 26.3369 7 27.09 7C27.8431 7 28.4534 7.61035 28.4534 8.36342V13.8178C28.4533 14.5708 27.843 15.1813 27.09 15.1813C26.337 15.1813 25.7267 14.5708 25.7266 13.8178Z" fill="#A856F7"/>
<path d="M32.5438 13.8207C32.5436 13.0678 31.9333 12.4573 31.1804 12.4573H12.0903C11.3374 12.4575 10.727 13.0679 10.7268 13.8207V32.9108C10.7268 33.6638 11.3373 34.2741 12.0903 34.2742H31.1804C31.9334 34.2742 32.5438 33.6639 32.5438 32.9108V13.8207ZM35.2713 32.9108C35.2713 35.17 33.4396 37.0018 31.1804 37.0018H12.0903C9.83117 37.0017 8.00001 35.1699 8 32.9108V13.8207C8.00015 11.5617 9.83126 9.73062 12.0903 9.73047H31.1804C33.4395 9.73047 35.2712 11.5616 35.2713 13.8207V32.9108Z" fill="#A856F7"/>
<path d="M33.9072 17.9062L34.0468 17.9129C34.7344 17.9827 35.2713 18.5636 35.2713 19.2697C35.2713 19.9757 34.7344 20.5567 34.0468 20.6264L33.9072 20.6331H9.36342C8.61035 20.6331 8 20.0227 8 19.2697C8 18.5166 8.61035 17.9062 9.36342 17.9062H33.9072Z" fill="#A856F7"/>
</svg>
