<svg width="44" height="44" viewBox="0 0 44 44" fill="none" xmlns="http://www.w3.org/2000/svg">
<path d="M29.0144 15.0025C30.1024 15.0026 31.1661 14.6801 32.0709 14.0757C32.9757 13.4713 33.6809 12.6121 34.0973 11.6069C34.5138 10.6017 34.6229 9.49557 34.4107 8.42839C34.1985 7.36122 33.6746 6.38093 32.9052 5.6115C32.1359 4.84208 31.1556 4.31807 30.0885 4.10575C29.0213 3.89344 27.9151 4.00234 26.9099 4.4187C25.9046 4.83506 25.0454 5.54017 24.4409 6.44486C23.8363 7.34955 23.5137 8.41318 23.5137 9.50125C23.5152 10.9597 24.0952 12.358 25.1264 13.3894C26.1576 14.4207 27.5559 15.0008 29.0144 15.0025ZM29.0144 5.25C29.8552 5.24988 30.6772 5.4991 31.3764 5.96616C32.0756 6.43322 32.6206 7.09713 32.9425 7.87394C33.2644 8.65074 33.3486 9.50554 33.1847 10.3302C33.0207 11.1549 32.6158 11.9125 32.0213 12.5071C31.4268 13.1017 30.6693 13.5067 29.8446 13.6708C29.0199 13.8349 28.1651 13.7507 27.3882 13.429C26.6114 13.1072 25.9474 12.5623 25.4802 11.8632C25.013 11.1641 24.7637 10.3421 24.7637 9.50125C24.765 8.37426 25.2132 7.29381 26.0101 6.49685C26.807 5.69989 27.8874 5.25149 29.0144 5.25Z" fill="#A856F7" stroke="#A856F7" stroke-width="0.5"/>
<path d="M35.7734 15.6048L33.5484 14.8673C33.454 14.8363 33.3537 14.8281 33.2556 14.8435C33.1574 14.8588 33.0644 14.8972 32.984 14.9555C31.8322 15.7953 30.4436 16.248 29.0182 16.2482C27.5928 16.2484 26.204 15.7962 25.052 14.9567C24.9716 14.8981 24.8783 14.8594 24.7799 14.844C24.6816 14.8285 24.5809 14.8368 24.4864 14.868L22.2607 15.6055C21.3188 15.9173 20.4992 16.5182 19.9185 17.3228C19.3378 18.1273 19.0256 19.0945 19.0263 20.0867V22.8298C19.0277 23.3063 19.218 23.7629 19.5556 24.0992C19.8932 24.4355 20.3505 24.6241 20.827 24.6236H37.2084C37.684 24.6231 38.1399 24.4339 38.4762 24.0977C38.8125 23.7614 39.0017 23.3054 39.0022 22.8298V20.0861C39.004 19.0945 38.693 18.1276 38.1134 17.323C37.5338 16.5184 36.7145 15.9172 35.7734 15.6048ZM37.7515 22.8298C37.7514 22.974 37.694 23.1122 37.5921 23.2141C37.4901 23.3161 37.3519 23.3734 37.2078 23.3736H20.827C20.682 23.3742 20.5426 23.3174 20.4395 23.2154C20.3364 23.1135 20.278 22.9748 20.277 22.8298V20.0861C20.2764 19.3567 20.5059 18.6457 20.9327 18.0542C21.3596 17.4628 21.9621 17.021 22.6545 16.7917L24.5814 16.153C25.8943 17.0303 27.438 17.4985 29.0171 17.4985C30.5961 17.4985 32.1398 17.0303 33.4527 16.153L35.3803 16.7917C36.0719 17.0215 36.6734 17.4636 37.0993 18.0551C37.5251 18.6466 37.7536 19.3573 37.7522 20.0861L37.7515 22.8298ZM22.1682 27.5986C22.051 27.4814 21.8921 27.4156 21.7264 27.4156C21.5606 27.4156 21.4017 27.4814 21.2845 27.5986L16.4507 32.4323C15.6702 33.2111 14.6125 33.6482 13.51 33.6476C12.4075 33.647 11.3503 33.2088 10.5707 32.4292C9.79105 31.6496 9.35281 30.5924 9.35221 29.4898C9.35162 28.3873 9.78872 27.3296 10.5675 26.5492L15.4013 21.7161C15.5185 21.5989 15.5843 21.4399 15.5843 21.2742C15.5843 21.1085 15.5185 20.9495 15.4013 20.8323L12.5013 17.9317C12.3841 17.8145 12.2251 17.7487 12.0594 17.7487C11.8937 17.7487 11.7347 17.8145 11.6175 17.9317L6.78308 22.7648C5.00058 24.5488 3.99952 26.9676 4 29.4894C4.00048 32.0112 5.00247 34.4296 6.78565 36.2129C8.56884 37.9961 10.9872 38.9982 13.5091 38.9988C16.0309 38.9994 18.4498 37.9985 20.2338 36.2161L25.0676 31.3823C25.1848 31.2651 25.2506 31.1062 25.2506 30.9405C25.2506 30.7747 25.1848 30.6158 25.0676 30.4986L22.1682 27.5986ZM12.0594 19.258L14.0757 21.2748L13.0256 22.3242L11.0094 20.308L12.0594 19.258ZM19.3507 35.333C18.5835 36.1001 17.6727 36.7086 16.6703 37.1237C15.6679 37.5388 14.5936 37.7525 13.5086 37.7524C11.3175 37.7523 9.21613 36.8818 7.66684 35.3323C6.11754 33.7829 5.24722 31.6815 5.24734 29.4903C5.24746 27.2992 6.118 25.1979 7.66746 23.6486L10.1256 21.1911L12.1425 23.2073L9.68373 25.6655C8.68324 26.6829 8.12524 28.0544 8.13124 29.4813C8.13723 30.9083 8.70675 32.2751 9.71576 33.2841C10.7248 34.2931 12.0916 34.8626 13.5185 34.8686C14.9454 34.8746 16.317 34.3166 17.3344 33.3161L19.7932 30.858L21.8095 32.8742L19.3507 35.333ZM22.6932 31.9911L20.677 29.9736L21.727 28.9236L23.7426 30.9398L22.6932 31.9911Z" fill="#A856F7" stroke="#A856F7" stroke-width="0.5"/>
</svg>
