<svg width="44" height="44" viewBox="0 0 44 44" fill="none" xmlns="http://www.w3.org/2000/svg">
<path d="M10.513 12.5104C11.3864 12.5104 12.0944 11.8024 12.0944 10.9291C12.0944 10.0557 11.3864 9.34766 10.513 9.34766C9.63966 9.34766 8.93164 10.0557 8.93164 10.9291C8.93164 11.8024 9.63966 12.5104 10.513 12.5104Z" fill="#A856F7"/>
<path d="M15.2552 12.5104C16.1286 12.5104 16.8366 11.8024 16.8366 10.9291C16.8366 10.0557 16.1286 9.34766 15.2552 9.34766C14.3818 9.34766 13.6738 10.0557 13.6738 10.9291C13.6738 11.8024 14.3818 12.5104 15.2552 12.5104Z" fill="#A856F7"/>
<path d="M19.9994 12.5104C20.8727 12.5104 21.5808 11.8024 21.5808 10.9291C21.5808 10.0557 20.8727 9.34766 19.9994 9.34766C19.126 9.34766 18.418 10.0557 18.418 10.9291C18.418 11.8024 19.126 12.5104 19.9994 12.5104Z" fill="#A856F7"/>
<path fill-rule="evenodd" clip-rule="evenodd" d="M40.1628 10.9302V33.0698C40.1628 34.6426 39.538 36.1509 38.4259 37.2631C37.3137 38.3752 35.8054 39 34.2326 39H8.93023C7.35744 39 5.84906 38.3752 4.73692 37.2631C3.62479 36.1509 3 34.6426 3 33.0698V10.9302C3 9.35744 3.62479 7.84906 4.73692 6.73692C5.84906 5.62479 7.35744 5 8.93023 5H34.2326C35.8054 5 37.3137 5.62479 38.4259 6.73692C39.538 7.84906 40.1628 9.35744 40.1628 10.9302ZM37.7907 10.9302C37.7907 9.98656 37.4158 9.08153 36.7485 8.41425C36.0813 7.74697 35.1762 7.37209 34.2326 7.37209H8.93023C7.98656 7.37209 7.08153 7.74697 6.41425 8.41425C5.74697 9.08153 5.37209 9.98656 5.37209 10.9302V33.0698C5.37209 34.0134 5.74697 34.9185 6.41425 35.5858C7.08153 36.253 7.98656 36.6279 8.93023 36.6279H34.2326C35.1762 36.6279 36.0813 36.253 36.7485 35.5858C37.4158 34.9185 37.7907 34.0134 37.7907 33.0698V10.9302Z" fill="#A856F7"/>
<path fill-rule="evenodd" clip-rule="evenodd" d="M38.9767 14.4883C39.2913 14.4883 39.593 14.6132 39.8154 14.8357C40.0378 15.0581 40.1628 15.3598 40.1628 15.6743C40.1628 15.9889 40.0378 16.2906 39.8154 16.513C39.593 16.7354 39.2913 16.8604 38.9767 16.8604H4.18605C3.87149 16.8604 3.56981 16.7354 3.34738 16.513C3.12496 16.2906 3 15.9889 3 15.6743C3 15.3598 3.12496 15.0581 3.34738 14.8357C3.56981 14.6132 3.87149 14.4883 4.18605 14.4883H38.9767ZM16.4419 28.7208C16.6497 28.7215 16.8556 28.681 17.0478 28.6017C17.2399 28.5225 17.4145 28.406 17.5615 28.2591C17.7084 28.1121 17.8249 27.9375 17.9042 27.7454C17.9834 27.5532 18.0239 27.3473 18.0233 27.1394V23.5813C18.0233 23.2667 18.1482 22.9651 18.3706 22.7426C18.5931 22.5202 18.8947 22.3953 19.2093 22.3953C19.5239 22.3953 19.8255 22.5202 20.048 22.7426C20.2704 22.9651 20.3953 23.2667 20.3953 23.5813V27.1394C20.3953 28.188 19.9788 29.1936 19.2374 29.935C18.496 30.6764 17.4904 31.0929 16.4419 31.0929C15.3933 31.0929 14.3877 30.6764 13.6463 29.935C12.9049 29.1936 12.4884 28.188 12.4884 27.1394V23.5813C12.4884 23.2667 12.6133 22.9651 12.8358 22.7426C13.0582 22.5202 13.3599 22.3953 13.6744 22.3953C13.989 22.3953 14.2907 22.5202 14.5131 22.7426C14.7355 22.9651 14.8605 23.2667 14.8605 23.5813V27.1394C14.8598 27.3473 14.9003 27.5532 14.9796 27.7454C15.0588 27.9375 15.1753 28.1121 15.3222 28.2591C15.4692 28.406 15.6438 28.5225 15.8359 28.6017C16.0281 28.681 16.234 28.7215 16.4419 28.7208ZM22.3247 24.4194C22.2146 24.3094 22.1273 24.1787 22.0677 24.0349C22.0081 23.8911 21.9775 23.737 21.9775 23.5813C21.9775 23.4256 22.0081 23.2715 22.0677 23.1277C22.1273 22.9839 22.2146 22.8532 22.3247 22.7432C22.4347 22.6331 22.5654 22.5458 22.7092 22.4862C22.853 22.4267 23.0071 22.396 23.1628 22.396C23.3184 22.396 23.4726 22.4267 23.6164 22.4862C23.7602 22.5458 23.8909 22.6331 24.0009 22.7432L30.3265 29.0687C30.4366 29.1788 30.5239 29.3095 30.5835 29.4533C30.643 29.5971 30.6737 29.7512 30.6737 29.9069C30.6737 30.0625 30.643 30.2167 30.5835 30.3605C30.5239 30.5043 30.4366 30.635 30.3265 30.745C30.2164 30.8551 30.0858 30.9424 29.942 31.002C29.7982 31.0615 29.644 31.0922 29.4884 31.0922C29.3327 31.0922 29.1786 31.0615 29.0348 31.002C28.891 30.9424 28.7603 30.8551 28.6502 30.745L22.3247 24.4194Z" fill="#A856F7"/>
<path fill-rule="evenodd" clip-rule="evenodd" d="M28.6513 22.7417C28.7613 22.6316 28.892 22.5443 29.0358 22.4848C29.1796 22.4252 29.3337 22.3945 29.4894 22.3945C29.6451 22.3945 29.7992 22.4252 29.943 22.4848C30.0868 22.5443 30.2175 22.6316 30.3275 22.7417C30.4376 22.8518 30.5249 22.9824 30.5845 23.1262C30.6441 23.2701 30.6747 23.4242 30.6747 23.5798C30.6747 23.7355 30.6441 23.8896 30.5845 24.0334C30.5249 24.1772 30.4376 24.3079 30.3275 24.418L24.002 30.7436C23.8919 30.8536 23.7612 30.9409 23.6174 31.0005C23.4736 31.0601 23.3195 31.0907 23.1638 31.0907C23.0082 31.0907 22.854 31.0601 22.7102 31.0005C22.5664 30.9409 22.4358 30.8536 22.3257 30.7436C22.2156 30.6335 22.1283 30.5028 22.0687 30.359C22.0092 30.2152 21.9785 30.0611 21.9785 29.9054C21.9785 29.7498 22.0092 29.5956 22.0687 29.4518C22.1283 29.308 22.2156 29.1773 22.3257 29.0673L28.6513 22.7417Z" fill="#A856F7"/>
</svg>
