<svg width="44" height="44" viewBox="0 0 44 44" fill="none" xmlns="http://www.w3.org/2000/svg">
<path d="M18.0455 19.3795C19.5609 19.3795 21.0424 18.9301 22.3025 18.0881C23.5625 17.2462 24.5447 16.0495 25.1246 14.6494C25.7045 13.2492 25.8563 11.7086 25.5606 10.2222C25.265 8.73587 24.5352 7.37056 23.4636 6.29895C22.392 5.22735 21.0267 4.49758 19.5403 4.20192C18.054 3.90627 16.5133 4.05801 15.1132 4.63796C13.7131 5.2179 12.5164 6.20001 11.6744 7.46009C10.8325 8.72016 10.3831 10.2016 10.3831 11.7171C10.3855 13.7485 11.1935 15.6961 12.63 17.1326C14.0664 18.569 16.014 19.3771 18.0455 19.3795ZM18.0455 6.75907C19.0261 6.75907 19.9847 7.04985 20.8 7.59464C21.6153 8.13944 22.2508 8.91377 22.6261 9.81973C23.0013 10.7257 23.0995 11.7226 22.9082 12.6843C22.7169 13.6461 22.2447 14.5295 21.5513 15.2229C20.8579 15.9163 19.9745 16.3885 19.0127 16.5798C18.051 16.7711 17.0541 16.673 16.1481 16.2977C15.2422 15.9224 14.4678 15.287 13.923 14.4716C13.3782 13.6563 13.0874 12.6977 13.0874 11.7171C13.0889 10.4026 13.6117 9.14232 14.5412 8.21282C15.4707 7.28332 16.731 6.7605 18.0455 6.75907ZM23.2234 24.8964C22.6976 24.8189 22.1665 24.7827 21.6351 24.7882H14.4234C13.3938 24.7089 12.3593 24.8539 11.3912 25.2132C10.4231 25.5726 9.5445 26.1377 8.81603 26.8696C8.08756 27.6015 7.52657 28.4827 7.17178 29.4525C6.81699 30.4223 6.67684 31.4575 6.76102 32.4867C6.76102 35.3047 7.97438 36.5072 10.8176 36.5072H19.8322C20.1908 36.5072 20.5347 36.6497 20.7883 36.9032C21.0419 37.1568 21.1843 37.5008 21.1843 37.8594C21.1843 38.218 21.0419 38.5619 20.7883 38.8155C20.5347 39.0691 20.1908 39.2116 19.8322 39.2116H10.8176C6.45813 39.2116 4.05664 36.8227 4.05664 32.4867C4.05664 27.6873 6.77183 22.0839 14.4234 22.0839H21.6351C22.3104 22.0775 22.985 22.1258 23.6525 22.2281C23.8329 22.2504 24.0068 22.3089 24.1641 22.3999C24.3213 22.491 24.4586 22.6128 24.5677 22.7581C24.6768 22.9034 24.7555 23.0692 24.7991 23.2456C24.8427 23.422 24.8503 23.6053 24.8214 23.7847C24.7926 23.9641 24.7279 24.1359 24.6312 24.2897C24.5345 24.4435 24.4078 24.5763 24.2586 24.68C24.1094 24.7838 23.9409 24.8564 23.7631 24.8936C23.5852 24.9308 23.4017 24.9317 23.2234 24.8964ZM40.6198 38.7068L37.3205 35.4038C38.3628 33.8841 38.7999 32.03 38.5462 30.2047C38.2924 28.3795 37.366 26.7149 35.9487 25.5372C34.5313 24.3595 32.7252 23.7537 30.8843 23.8386C29.0435 23.9234 27.3008 24.6927 25.9977 25.9958C24.6947 27.2988 23.9253 29.0416 23.8405 30.8824C23.7557 32.7232 24.3615 34.5294 25.5392 35.9467C26.7168 37.3641 28.3815 38.2904 30.2067 38.5442C32.0319 38.798 33.8861 38.3608 35.4058 37.3185L38.7087 40.6178C38.965 40.8567 39.3041 40.9867 39.6544 40.9805C40.0047 40.9744 40.3389 40.8325 40.5867 40.5847C40.8344 40.337 40.9763 40.0027 40.9825 39.6524C40.9887 39.3021 40.8586 38.9631 40.6198 38.7068ZM26.5931 31.2481C26.5931 30.3266 26.8664 29.4258 27.3784 28.6596C27.8904 27.8935 28.6181 27.2964 29.4694 26.9438C30.3208 26.5912 31.2576 26.4991 32.1614 26.679C33.0651 26.8589 33.8952 27.3028 34.5467 27.9545C35.1982 28.6062 35.6417 29.4365 35.8213 30.3403C36.0008 31.2441 35.9083 32.1809 35.5554 33.0322C35.2025 33.8834 34.6051 34.6109 33.8388 35.1226C33.0724 35.6343 32.1715 35.9072 31.25 35.9068C30.0151 35.9054 28.8311 35.414 27.958 34.5406C27.0849 33.6672 26.5941 32.4831 26.5931 31.2481Z" fill="#A856F7"/>
</svg>
