<svg width="44" height="44" viewBox="0 0 44 44" fill="none" xmlns="http://www.w3.org/2000/svg">
<path d="M35.0003 16.7499C35.0003 14.9596 34.2886 13.2424 33.0227 11.9765C31.7569 10.7109 30.0402 9.99977 28.2502 9.99971C27.0805 9.99971 26.1697 10.1644 25.3276 10.5311C24.4759 10.902 23.5998 11.5212 22.5603 12.5607C21.9745 13.1463 21.0246 13.1464 20.4389 12.5607C19.3995 11.5212 18.5241 10.902 17.6724 10.5311C16.9355 10.2101 16.146 10.0443 15.1764 10.0078L14.7499 9.99971C12.9596 9.99971 11.2424 10.7106 9.97649 11.9765C8.71062 13.2424 7.99971 14.9596 7.99971 16.7499L8.00539 17.0082C8.10628 19.4888 9.65082 21.5417 11.6275 23.5146L12.0426 23.9217L21.4992 33.3782L30.9395 23.9396L30.9501 23.9282C33.1883 21.735 35.0003 19.5037 35.0003 16.7499ZM38 16.7499C38 20.8593 35.2898 23.8742 33.0601 26.0602L33.0609 26.061L22.5603 36.5608C21.9745 37.1463 21.0246 37.1465 20.4389 36.5608L9.93912 26.061V26.0602C7.75511 23.9468 5.16745 21.0564 5.00731 17.1342L5 16.7499C5.00001 14.164 6.02742 11.6844 7.8559 9.8559C9.68438 8.02742 12.164 7.00001 14.7499 7L15.295 7.00975C16.5544 7.05778 17.7233 7.2814 18.87 7.7808C19.7899 8.18144 20.6477 8.74126 21.5 9.46184C22.3523 8.74131 23.2102 8.18142 24.13 7.7808C25.4404 7.21015 26.78 7 28.2502 7C30.8359 7.00006 33.3157 8.02747 35.1441 9.8559C36.9725 11.6844 38 14.164 38 16.7499Z" fill="#3C83F6"/>
</svg>
