<svg width="44" height="44" viewBox="0 0 44 44" fill="none" xmlns="http://www.w3.org/2000/svg">
<path d="M23.1967 22.2044H19.7938C17.7976 22.2044 16.1732 23.8285 16.1732 25.825V27.4937C16.1732 27.6004 16.2156 27.7027 16.291 27.7782C16.3664 27.8536 16.4688 27.896 16.5755 27.896H26.4155C26.5222 27.896 26.6245 27.8536 26.6999 27.7782C26.7754 27.7027 26.8178 27.6004 26.8178 27.4937V25.825C26.8178 23.8285 25.1929 22.2044 23.1967 22.2044ZM26.0128 27.0914H16.9778V25.825C16.9778 24.2722 18.2409 23.009 19.7938 23.009H23.1963C24.7488 23.009 26.0124 24.2722 26.0124 25.825L26.0128 27.0914ZM21.4955 21.632C23.0962 21.632 24.398 20.3297 24.398 18.7294V17.9253C24.398 16.3249 23.0962 15.0227 21.4955 15.0227C19.8952 15.0227 18.5933 16.3249 18.5933 17.9253V18.7298C18.5933 20.3297 19.8952 21.632 21.4955 21.632ZM19.3979 17.9253C19.3979 16.7687 20.3389 15.8273 21.4955 15.8273C22.652 15.8273 23.5934 16.7687 23.5934 17.9253V18.7298C23.5934 19.886 22.652 20.8274 21.4955 20.8274C20.3389 20.8274 19.3979 19.886 19.3979 18.7294V17.9253ZM13.9626 25.3845L10.4924 27.3879C10.1582 26.974 9.70106 26.677 9.18701 26.5399C8.86606 26.4529 8.53101 26.4304 8.20132 26.474C7.87164 26.5175 7.55387 26.626 7.26648 26.7933C6.68115 27.1312 6.26237 27.6768 6.08777 28.3297C5.91318 28.9826 6.00209 29.6645 6.34001 30.2498C6.67597 30.8306 7.22868 31.2544 7.8768 31.4281C8.52492 31.6018 9.21548 31.5112 9.79688 31.1763C10.0853 31.0108 10.3381 30.7898 10.5406 30.526C10.743 30.2623 10.8912 29.9609 10.9764 29.6395C11.1147 29.1257 11.0861 28.5812 10.8947 28.0847L14.3649 26.0813C14.4565 26.0275 14.5232 25.9398 14.5504 25.8371C14.5775 25.7343 14.5629 25.6251 14.5098 25.5331C14.4567 25.4411 14.3694 25.3738 14.2668 25.346C14.1643 25.3182 14.0549 25.332 13.9626 25.3845ZM10.1992 29.4311C10.141 29.6503 10.04 29.8558 9.90185 30.0357C9.76375 30.2156 9.59133 30.3663 9.39459 30.4791C8.99812 30.7075 8.52723 30.7693 8.08526 30.6509C7.64329 30.5325 7.26636 30.2435 7.03718 29.8475C6.9231 29.6515 6.84908 29.4348 6.81938 29.2099C6.78969 28.9851 6.80492 28.7566 6.86419 28.5377C6.92242 28.3185 7.02351 28.1131 7.16161 27.9333C7.29971 27.7535 7.47209 27.6029 7.66877 27.4901C7.86475 27.3759 8.08147 27.3018 8.30633 27.2721C8.5312 27.2424 8.75973 27.2577 8.97863 27.3171C9.19779 27.3752 9.40326 27.4762 9.58314 27.6142C9.76302 27.7523 9.91375 27.9246 10.0266 28.1213C10.1406 28.3173 10.2146 28.5341 10.2442 28.7589C10.2738 28.9838 10.2585 29.2122 10.1992 29.4311ZM21.8978 33.9734V29.9079C21.8978 29.8012 21.8554 29.6988 21.7799 29.6234C21.7045 29.5479 21.6022 29.5056 21.4955 29.5056C21.3888 29.5056 21.2864 29.5479 21.211 29.6234C21.1356 29.6988 21.0932 29.8012 21.0932 29.9079V33.9734C19.8887 34.1673 18.9647 35.2108 18.9647 36.4692C18.9647 37.8647 20.0999 39 21.4955 39C22.891 39 24.0263 37.8647 24.0263 36.4692C24.0263 35.2108 23.1022 34.1673 21.8978 33.9734ZM21.4955 38.1954C21.0378 38.1949 20.599 38.0128 20.2754 37.6892C19.9518 37.3656 19.7698 36.9269 19.7692 36.4692C19.7692 35.5407 20.5074 34.7868 21.4267 34.7498C21.45 34.7538 21.4709 34.7639 21.4955 34.7639C21.52 34.7639 21.5409 34.7542 21.5639 34.7498C22.4835 34.7868 23.2217 35.5407 23.2217 36.4692C23.2212 36.9269 23.0391 37.3656 22.7155 37.6892C22.3919 38.0128 21.9531 38.1949 21.4955 38.1954ZM21.0932 9.02661V12.9288C21.0932 13.0355 21.1356 13.1378 21.211 13.2133C21.2864 13.2887 21.3888 13.3311 21.4955 13.3311C21.6022 13.3311 21.7045 13.2887 21.7799 13.2133C21.8554 13.1378 21.8978 13.0355 21.8978 12.9288V9.02661C23.1022 8.8327 24.0263 7.78917 24.0263 6.5308C24.0255 5.85982 23.7586 5.21653 23.2842 4.74208C22.8097 4.26762 22.1664 4.00075 21.4955 4C20.8244 4.00064 20.181 4.26747 19.7065 4.74194C19.2319 5.2164 18.965 5.85975 18.9643 6.5308C18.9643 7.78917 19.8883 8.8327 21.0932 9.02661ZM21.4955 4.80458C22.4473 4.80458 23.2217 5.57899 23.2217 6.5308C23.2217 7.48262 22.4473 8.25703 21.4955 8.25703C20.5432 8.25703 19.7688 7.48262 19.7688 6.5308C19.7688 5.57899 20.5432 4.80458 21.4955 4.80458ZM7.26648 16.2071C7.66394 16.4364 8.09842 16.5458 8.52766 16.5458C8.9113 16.5459 9.28997 16.4591 9.63518 16.2917C9.98038 16.1243 10.2831 15.8808 10.5206 15.5795L16.2794 18.7765C16.3726 18.8276 16.4823 18.8397 16.5845 18.8102C16.6867 18.7806 16.773 18.7118 16.8245 18.6188C16.8761 18.5258 16.8888 18.4162 16.8597 18.3139C16.8307 18.2116 16.7623 18.1249 16.6696 18.0729L10.91 14.8751C11.3191 13.7447 10.8742 12.4453 9.79729 11.8233C9.50979 11.6563 9.192 11.5479 8.86234 11.5046C8.53267 11.4612 8.19767 11.4837 7.87676 11.5707C7.22384 11.7457 6.67793 12.1645 6.34001 12.7502C6.00209 13.3359 5.91238 14.0174 6.08737 14.6703C6.17249 14.9917 6.3205 15.293 6.52282 15.5567C6.72515 15.8205 6.97777 16.0416 7.26608 16.2071H7.26648ZM7.03718 13.1525C7.26621 12.7563 7.64312 12.4672 8.08513 12.3487C8.52713 12.2302 8.9981 12.292 9.39459 12.5205C9.79081 12.7497 10.0799 13.1267 10.1985 13.5688C10.317 14.0109 10.2554 14.482 10.027 14.8787C9.79751 15.2746 9.42043 15.5634 8.9784 15.6818C8.53636 15.8002 8.06542 15.7385 7.66877 15.5103C7.47202 15.3975 7.2996 15.2468 7.16149 15.0669C7.02338 14.8871 6.92233 14.6816 6.86419 14.4623C6.80501 14.2434 6.78982 14.0149 6.81951 13.7901C6.84921 13.5653 6.92319 13.3485 7.03718 13.1525ZM36.9032 28.3297C36.818 28.0083 36.67 27.707 36.4677 27.4433C36.2654 27.1795 36.0128 26.9584 35.7245 26.7929C35.437 26.6259 35.1193 26.5175 34.7897 26.474C34.4601 26.4306 34.1252 26.453 33.8043 26.5399C33.2902 26.677 32.8329 26.974 32.4985 27.3879L29.0299 25.3853C28.9842 25.3589 28.9336 25.3418 28.8812 25.3349C28.8288 25.328 28.7756 25.3315 28.7245 25.3452C28.6215 25.3728 28.5336 25.4403 28.4802 25.5328C28.4269 25.6252 28.4124 25.7351 28.4401 25.8382C28.4677 25.9412 28.5352 26.0291 28.6277 26.0825L32.0966 28.0851C31.6621 29.2248 32.1042 30.5471 33.1936 31.1763C33.7751 31.5114 34.4657 31.602 35.114 31.4283C35.7622 31.2546 36.315 30.8307 36.6509 30.2498C36.8179 29.9624 36.9262 29.6446 36.9696 29.315C37.013 28.9855 36.9901 28.6505 36.9032 28.3297ZM35.9538 29.8475C35.7246 30.2435 35.3476 30.5325 34.9057 30.6509C34.4637 30.7693 33.9928 30.7075 33.5963 30.4791C33.2002 30.2499 32.9112 29.8729 32.7927 29.4309C32.6742 28.9889 32.736 28.5179 32.9643 28.1213C33.0772 27.9247 33.2278 27.7524 33.4076 27.6144C33.5875 27.4763 33.7928 27.3753 34.0119 27.3171C34.2309 27.258 34.4594 27.2428 34.6843 27.2725C34.9092 27.3022 35.126 27.3761 35.3222 27.4901C35.7181 27.7193 36.007 28.0963 36.1254 28.5382C36.2438 28.9802 36.182 29.451 35.9538 29.8475ZM26.5836 18.836C26.6525 18.8361 26.7203 18.8184 26.7803 18.7845L32.4792 15.5875C32.8148 16.014 33.2796 16.3201 33.8039 16.4601C34.1249 16.5469 34.4598 16.5692 34.7895 16.5259C35.1191 16.4825 35.4369 16.3743 35.7245 16.2075C36.3052 15.8714 36.7289 15.3186 36.9026 14.6704C37.0763 14.0223 36.9858 13.3317 36.6509 12.7502C36.4855 12.4618 36.2645 12.209 36.0007 12.0065C35.7369 11.8041 35.4356 11.6559 35.1142 11.5707C34.7933 11.4835 34.4583 11.4609 34.1286 11.5043C33.7989 11.5477 33.4811 11.6561 33.1936 11.8233C32.9052 11.9888 32.6525 12.2098 32.45 12.4736C32.2476 12.7374 32.0994 13.0387 32.0141 13.3601C31.8785 13.8638 31.9031 14.3973 32.0845 14.8864L26.3865 18.083C26.3089 18.1265 26.2479 18.1946 26.2131 18.2765C26.1784 18.3584 26.1717 18.4495 26.1942 18.5356C26.2168 18.6217 26.2672 18.6979 26.3377 18.7523C26.4081 18.8066 26.4946 18.8361 26.5836 18.836ZM32.7918 13.5685C32.8499 13.3493 32.951 13.1438 33.0891 12.9639C33.2272 12.784 33.3996 12.6333 33.5963 12.5205C33.7924 12.4066 34.0091 12.3326 34.234 12.303C34.4588 12.2734 34.6873 12.2886 34.9062 12.3479C35.1254 12.4061 35.3309 12.5071 35.5108 12.6452C35.6906 12.7833 35.8414 12.9558 35.9542 13.1525C36.1823 13.549 36.244 14.0198 36.1256 14.4617C36.0072 14.9036 35.7184 15.2806 35.3226 15.5099C35.1265 15.624 34.9098 15.698 34.685 15.7277C34.4601 15.7574 34.2316 15.7422 34.0127 15.6829C33.5674 15.5634 33.1953 15.2778 32.9647 14.8783C32.7342 14.4788 32.6723 14.0142 32.7918 13.5685Z" fill="#A856F7" stroke="#A856F7"/>
</svg>
