<svg width="44" height="44" viewBox="0 0 44 44" fill="none" xmlns="http://www.w3.org/2000/svg">
<path fill-rule="evenodd" clip-rule="evenodd" d="M10.4131 22.0645C10.1278 23.5593 8.81257 24.6905 7.23524 24.6905C5.44968 24.6905 4 23.2409 4 21.4553C4 19.6697 5.44968 18.2201 7.23524 18.2201C8.8439 18.2201 10.1799 19.3967 10.4289 20.9355H13.1477V13.9461L11.097 11.8953C10.7069 12.1377 10.2568 12.2659 9.79758 12.2652C8.43562 12.2652 7.32987 11.1595 7.32987 9.79758C7.32987 8.43562 8.43562 7.32987 9.79758 7.32987C11.1595 7.32987 12.2652 8.43562 12.2652 9.79758C12.2652 10.2742 12.1297 10.7195 11.8953 11.097L13.6381 12.8397C13.8085 12.6582 14.0243 12.4846 14.2861 12.3238C15.5568 11.5436 18.0349 10.9733 20.9355 10.9072V9.45499C19.6845 9.19418 18.7435 8.08434 18.7435 6.75646C18.7435 5.23516 19.9786 4 21.5 4C23.0214 4 24.2565 5.23516 24.2565 6.75646C24.2565 8.08434 23.3155 9.19418 22.0645 9.45499V10.9072C24.9651 10.9733 27.4432 11.5436 28.7139 12.3238C28.9538 12.4711 29.1549 12.6291 29.3181 12.7942L31.0153 11.097C30.7729 10.7069 30.6447 10.2568 30.6454 9.79758C30.6454 8.43562 31.7511 7.32987 33.113 7.32987C34.475 7.32987 35.5807 8.43562 35.5807 9.79758C35.5807 11.1595 34.475 12.2652 33.113 12.2652C32.6538 12.2659 32.2036 12.1377 31.8136 11.8953L29.8495 13.8594C29.8514 13.8876 29.8523 13.9158 29.8523 13.944V20.9355H32.5711C32.8201 19.3967 34.1561 18.2201 35.7648 18.2201C37.5503 18.2201 39 19.6697 39 21.4553C39 23.2409 37.5503 24.6905 35.7648 24.6905C34.1874 24.6905 32.8722 23.5593 32.5869 22.0645H29.8523V29.0539L31.8136 31.0153C32.2036 30.7729 32.6538 30.6447 33.113 30.6454C34.475 30.6454 35.5807 31.7511 35.5807 33.113C35.5807 34.475 34.475 35.5807 33.113 35.5807C31.7511 35.5807 30.6454 34.475 30.6454 33.113C30.6454 32.6364 30.7809 32.1911 31.0153 31.8136L29.3619 30.1603C29.1915 30.3418 28.9757 30.5154 28.7139 30.6762C27.4432 31.4564 24.9651 32.0267 22.0645 32.0928V33.545C23.3155 33.8058 24.2565 34.9157 24.2565 36.2435C24.2565 37.7648 23.0214 39 21.5 39C19.9786 39 18.7435 37.7648 18.7435 36.2435C18.7435 34.9157 19.6845 33.8058 20.9355 33.545V32.0928C18.0349 32.0267 15.5568 31.4564 14.2861 30.6762C14.0019 30.5017 13.7721 30.312 13.5953 30.1137L11.8953 31.8136C12.1377 32.2036 12.2659 32.6538 12.2652 33.113C12.2652 34.475 11.1595 35.5807 9.79758 35.5807C8.43562 35.5807 7.32987 34.475 7.32987 33.113C7.32987 31.7511 8.43562 30.6454 9.79758 30.6454C10.2742 30.6454 10.7195 30.7809 11.097 31.0153L13.1477 28.9645V22.0645H10.4131ZM14.2767 20.5957V24.0187C14.2767 24.1547 14.3714 24.2717 14.4994 24.3941C14.7176 24.6027 15.0395 24.791 15.4396 24.9648C16.8057 25.5579 19.0124 25.9329 21.5 25.9329C23.9876 25.9329 26.1943 25.5579 27.5604 24.9648C27.9605 24.791 28.2824 24.6027 28.5006 24.3941C28.6286 24.2717 28.7233 24.1547 28.7233 24.0187V20.5957L28.7139 20.6015C27.3616 21.4318 24.6414 22.0245 21.5 22.0245C18.3586 22.0245 15.6384 21.4318 14.2861 20.6015L14.2767 20.5957ZM14.2767 15.5584V18.9813C14.2767 19.1174 14.3714 19.2344 14.4994 19.3567C14.7176 19.5654 15.0395 19.7537 15.4396 19.9274C16.8057 20.5205 19.0124 20.8955 21.5 20.8955C23.9876 20.8955 26.1943 20.5205 27.5604 19.9274C27.9605 19.7537 28.2824 19.5654 28.5006 19.3567C28.6286 19.2344 28.7233 19.1174 28.7233 18.9813V15.5584L28.7139 15.5641C27.3616 16.3944 24.6414 16.9871 21.5 16.9871C18.3586 16.9871 15.6384 16.3944 14.2861 15.5641L14.2767 15.5584ZM28.7233 13.944C28.7233 13.8079 28.6286 13.6909 28.5006 13.5685C28.2824 13.3599 27.9605 13.1716 27.5604 12.9979C26.1943 12.4047 23.9876 12.0298 21.5 12.0298C19.0124 12.0298 16.8057 12.4047 15.4396 12.9979C15.0395 13.1716 14.7176 13.3599 14.4994 13.5685C14.3714 13.6909 14.2767 13.8079 14.2767 13.944C14.2767 14.0801 14.3714 14.1971 14.4994 14.3194C14.7176 14.528 15.0395 14.7163 15.4396 14.89C16.8057 15.4832 19.0124 15.8581 21.5 15.8581C23.9876 15.8581 26.1943 15.4832 27.5604 14.89C27.9605 14.7163 28.2824 14.528 28.5006 14.3194C28.6286 14.1971 28.7233 14.0801 28.7233 13.944ZM14.2767 25.6331V29.056C14.2767 29.1921 14.3714 29.3091 14.4994 29.4315C14.7176 29.6401 15.0395 29.8284 15.4396 30.0021C16.8057 30.5953 19.0124 30.9702 21.5 30.9702C23.9876 30.9702 26.1943 30.5953 27.5604 30.0021C27.9605 29.8284 28.2824 29.6401 28.5006 29.4315C28.6286 29.3091 28.7233 29.1921 28.7233 29.056V25.6331L28.7139 25.6388C27.3616 26.4692 24.6414 27.0619 21.5 27.0619C18.3586 27.0619 15.6384 26.4692 14.2861 25.6388L14.2767 25.6331ZM7.23524 19.3491C6.07276 19.3491 5.12903 20.2929 5.12903 21.4553C5.12903 22.6177 6.07276 23.5615 7.23524 23.5615C8.39765 23.5615 9.34145 22.6177 9.34145 21.4553C9.34145 20.2929 8.39765 19.3491 7.23524 19.3491ZM20.7201 29.5806C20.4085 29.5806 20.1556 29.3277 20.1556 29.0161C20.1556 28.7045 20.4085 28.4516 20.7201 28.4516H22.2799C22.5915 28.4516 22.8444 28.7045 22.8444 29.0161C22.8444 29.3277 22.5915 29.5806 22.2799 29.5806H20.7201ZM35.7648 19.3491C34.6023 19.3491 33.6585 20.2929 33.6585 21.4553C33.6585 22.6177 34.6023 23.5615 35.7648 23.5615C36.9272 23.5615 37.871 22.6177 37.871 21.4553C37.871 20.2929 36.9272 19.3491 35.7648 19.3491ZM9.79758 8.4589C9.05877 8.4589 8.4589 9.05877 8.4589 9.79758C8.4589 10.5364 9.05877 11.1362 9.79758 11.1362C10.5364 11.1362 11.1362 10.5364 11.1362 9.79758C11.1362 9.05877 10.5364 8.4589 9.79758 8.4589ZM21.5 5.12903C20.6018 5.12903 19.8726 5.85825 19.8726 6.75646C19.8726 7.65468 20.6018 8.38389 21.5 8.38389C22.3982 8.38389 23.1274 7.65468 23.1274 6.75646C23.1274 5.85825 22.3982 5.12903 21.5 5.12903ZM33.113 31.7744C32.3742 31.7744 31.7744 32.3742 31.7744 33.113C31.7744 33.8518 32.3742 34.4517 33.113 34.4517C33.8518 34.4517 34.4517 33.8518 34.4517 33.113C34.4517 32.3742 33.8518 31.7744 33.113 31.7744ZM21.5 34.6161C20.6018 34.6161 19.8726 35.3453 19.8726 36.2435C19.8726 37.1418 20.6018 37.871 21.5 37.871C22.3982 37.871 23.1274 37.1418 23.1274 36.2435C23.1274 35.3453 22.3982 34.6161 21.5 34.6161ZM9.79758 31.7744C9.05877 31.7744 8.4589 32.3742 8.4589 33.113C8.4589 33.8518 9.05877 34.4517 9.79758 34.4517C10.5364 34.4517 11.1362 33.8518 11.1362 33.113C11.1362 32.3742 10.5364 31.7744 9.79758 31.7744ZM33.113 8.4589C32.3742 8.4589 31.7744 9.05877 31.7744 9.79758C31.7744 10.5364 32.3742 11.1362 33.113 11.1362C33.8518 11.1362 34.4517 10.5364 34.4517 9.79758C34.4517 9.05877 33.8518 8.4589 33.113 8.4589ZM20.7201 24.5432C20.4085 24.5432 20.1556 24.2903 20.1556 23.9787C20.1556 23.6672 20.4085 23.4142 20.7201 23.4142H22.2799C22.5915 23.4142 22.8444 23.6672 22.8444 23.9787C22.8444 24.2903 22.5915 24.5432 22.2799 24.5432H20.7201ZM20.7201 19.5058C20.4085 19.5058 20.1556 19.2529 20.1556 18.9413C20.1556 18.6298 20.4085 18.3768 20.7201 18.3768H22.2799C22.5915 18.3768 22.8444 18.6298 22.8444 18.9413C22.8444 19.2529 22.5915 19.5058 22.2799 19.5058H20.7201Z" fill="#A856F7" stroke="#A856F7" stroke-width="0.8"/>
</svg>
