<svg width="16" height="21" viewBox="0 0 16 21" fill="none" xmlns="http://www.w3.org/2000/svg">
<path d="M8.57223 8.30688C8.70973 7.89438 9.29223 7.89438 9.42973 8.30688L10.236 10.7281C10.4134 11.2604 10.7124 11.744 11.1093 12.1406C11.5061 12.5372 11.9899 12.836 12.5222 13.0131L14.9422 13.8194C15.3547 13.9569 15.3547 14.5394 14.9422 14.6769L12.521 15.4831C11.9887 15.6606 11.5051 15.9596 11.1085 16.3564C10.7119 16.7533 10.4132 17.237 10.236 17.7694L9.42973 20.1894C9.40009 20.2797 9.34267 20.3584 9.26568 20.4141C9.18869 20.4699 9.09605 20.4999 9.00098 20.4999C8.90592 20.4999 8.81328 20.4699 8.73628 20.4141C8.65929 20.3584 8.60188 20.2797 8.57223 20.1894L7.76598 17.7681C7.58864 17.236 7.28983 16.7525 6.89322 16.3559C6.49661 15.9593 6.0131 15.6605 5.48098 15.4831L3.05973 14.6769C2.96941 14.6472 2.89075 14.5898 2.83499 14.5128C2.77922 14.4358 2.7492 14.3432 2.7492 14.2481C2.7492 14.1531 2.77922 14.0604 2.83499 13.9834C2.89075 13.9064 2.96941 13.849 3.05973 13.8194L5.48098 13.0131C6.0131 12.8358 6.49661 12.537 6.89322 12.1404C7.28983 11.7438 7.58864 11.2602 7.76598 10.7281L8.57223 8.30688ZM3.74348 1.93313C3.76141 1.879 3.79594 1.83189 3.84216 1.7985C3.88839 1.76511 3.94396 1.74714 4.00098 1.74714C4.05801 1.74714 4.11358 1.76511 4.1598 1.7985C4.20603 1.83189 4.24056 1.879 4.25848 1.93313L4.74223 3.38563C4.95848 4.03313 5.46598 4.54063 6.11348 4.75688L7.56598 5.24063C7.62011 5.25855 7.66722 5.29308 7.70061 5.33931C7.734 5.38553 7.75197 5.44111 7.75197 5.49813C7.75197 5.55515 7.734 5.61072 7.70061 5.65695C7.66722 5.70318 7.62011 5.7377 7.56598 5.75563L6.11348 6.23938C5.79395 6.34543 5.50359 6.52462 5.26553 6.76268C5.02747 7.00074 4.84828 7.2911 4.74223 7.61063L4.25848 9.06313C4.24056 9.11726 4.20603 9.16437 4.1598 9.19775C4.11358 9.23114 4.05801 9.24911 4.00098 9.24911C3.94396 9.24911 3.88839 9.23114 3.84216 9.19775C3.79594 9.16437 3.76141 9.11726 3.74348 9.06313L3.25973 7.61063C3.15369 7.2911 2.9745 7.00074 2.73643 6.76268C2.49837 6.52462 2.20802 6.34543 1.88848 6.23938L0.435984 5.75563C0.381852 5.7377 0.334745 5.70318 0.301358 5.65695C0.26797 5.61072 0.25 5.55515 0.25 5.49813C0.25 5.44111 0.26797 5.38553 0.301358 5.33931C0.334745 5.29308 0.381852 5.25855 0.435984 5.24063L1.88848 4.75688C2.20802 4.65083 2.49837 4.47164 2.73643 4.23358C2.9745 3.99552 3.15369 3.70516 3.25973 3.38563L3.74348 1.93313ZM12.5797 0.621878C12.5921 0.586286 12.6152 0.555423 12.6459 0.53358C12.6766 0.511737 12.7133 0.5 12.751 0.5C12.7887 0.5 12.8254 0.511737 12.8561 0.53358C12.8868 0.555423 12.9099 0.586286 12.9222 0.621878L13.2447 1.58938C13.3885 2.02188 13.7272 2.36063 14.1597 2.50438L15.1272 2.82688C15.1628 2.83922 15.1937 2.86234 15.2155 2.89303C15.2374 2.92372 15.2491 2.96046 15.2491 2.99813C15.2491 3.0358 15.2374 3.07253 15.2155 3.10322C15.1937 3.13392 15.1628 3.15704 15.1272 3.16938L14.1597 3.49188C13.9468 3.56313 13.7533 3.68286 13.5945 3.84165C13.4357 4.00043 13.316 4.19393 13.2447 4.40688L12.9222 5.37438C12.9099 5.40997 12.8868 5.44083 12.8561 5.46268C12.8254 5.48452 12.7887 5.49626 12.751 5.49626C12.7133 5.49626 12.6766 5.48452 12.6459 5.46268C12.6152 5.44083 12.5921 5.40997 12.5797 5.37438L12.2572 4.40688C12.186 4.19393 12.0662 4.00043 11.9075 3.84165C11.7487 3.68286 11.5552 3.56313 11.3422 3.49188L10.376 3.16938C10.3404 3.15704 10.3095 3.13392 10.2877 3.10322C10.2658 3.07253 10.2541 3.0358 10.2541 2.99813C10.2541 2.96046 10.2658 2.92372 10.2877 2.89303C10.3095 2.86234 10.3404 2.83922 10.376 2.82688L11.3435 2.50438C11.776 2.36063 12.1147 2.02188 12.2585 1.58938L12.5797 0.621878Z" fill="url(#paint0_linear_182_465)"/>
<defs>
<linearGradient id="paint0_linear_182_465" x1="7.7508" y1="0.5" x2="7.7508" y2="20.4999" gradientUnits="userSpaceOnUse">
<stop stop-color="#DC02AE"/>
<stop offset="1" stop-color="#DC9D02"/>
</linearGradient>
</defs>
</svg>
