<svg width="44" height="44" viewBox="0 0 44 44" fill="none" xmlns="http://www.w3.org/2000/svg">
<path d="M11.9542 12.6974C12.5707 12.6974 13.0704 12.1976 13.0704 11.5811C13.0704 10.9646 12.5707 10.4648 11.9542 10.4648C11.3377 10.4648 10.8379 10.9646 10.8379 11.5811C10.8379 12.1976 11.3377 12.6974 11.9542 12.6974Z" fill="#3C83F6" stroke="#3C83F6" stroke-width="0.5"/>
<path d="M15.6749 12.6974C16.2914 12.6974 16.7912 12.1976 16.7912 11.5811C16.7912 10.9646 16.2914 10.4648 15.6749 10.4648C15.0584 10.4648 14.5586 10.9646 14.5586 11.5811C14.5586 12.1976 15.0584 12.6974 15.6749 12.6974Z" fill="#3C83F6" stroke="#3C83F6" stroke-width="0.5"/>
<path d="M19.3956 12.6974C20.0121 12.6974 20.5119 12.1976 20.5119 11.5811C20.5119 10.9646 20.0121 10.4648 19.3956 10.4648C18.7791 10.4648 18.2793 10.9646 18.2793 11.5811C18.2793 12.1976 18.7791 12.6974 19.3956 12.6974Z" fill="#3C83F6" stroke="#3C83F6" stroke-width="0.5"/>
<path fill-rule="evenodd" clip-rule="evenodd" d="M38 23.4884V10.8372C38 9.5543 37.4904 8.32394 36.5832 7.41679C35.6761 6.50963 34.4457 6 33.1628 6H10.8372C9.5543 6 8.32394 6.50963 7.41679 7.41679C6.50963 8.32394 6 9.5543 6 10.8372V33.1628C6 34.4457 6.50963 35.6761 7.41679 36.5832C8.32394 37.4904 9.5543 38 10.8372 38H22C22.2961 38 22.58 37.8824 22.7893 37.673C22.9987 37.4637 23.1163 37.1798 23.1163 36.8837C23.1163 36.5877 22.9987 36.3037 22.7893 36.0944C22.58 35.885 22.2961 35.7674 22 35.7674H10.8372C10.1464 35.7674 9.48391 35.493 8.99544 35.0045C8.50698 34.5161 8.23256 33.8536 8.23256 33.1628V10.8372C8.23256 9.39795 9.39795 8.23256 10.8372 8.23256H33.1628C34.602 8.23256 35.7674 9.39795 35.7674 10.8372V23.4884C35.7674 23.7844 35.885 24.0684 36.0944 24.2777C36.3037 24.487 36.5877 24.6046 36.8837 24.6046C37.1798 24.6046 37.4637 24.487 37.673 24.2777C37.8824 24.0684 38 23.7844 38 23.4884Z" fill="#3C83F6" stroke="#3C83F6" stroke-width="0.5"/>
<path fill-rule="evenodd" clip-rule="evenodd" d="M36.8837 14.9297H7.11628C6.82022 14.9297 6.53629 15.0473 6.32695 15.2566C6.11761 15.466 6 15.7499 6 16.046C6 16.342 6.11761 16.626 6.32695 16.8353C6.53629 17.0446 6.82022 17.1622 7.11628 17.1622H36.8837C37.1798 17.1622 37.4637 17.0446 37.673 16.8353C37.8824 16.626 38 16.342 38 16.046C38 15.7499 37.8824 15.466 37.673 15.2566C37.4637 15.0473 37.1798 14.9297 36.8837 14.9297ZM36.0755 36.2432L32.9485 31.7781C32.8667 31.6527 32.7605 31.5451 32.6363 31.4616C32.512 31.3781 32.3723 31.3205 32.2254 31.2921C32.0784 31.2637 31.9272 31.2651 31.7809 31.2963C31.6345 31.3276 31.4959 31.3879 31.3733 31.4737C31.2507 31.5596 31.1466 31.6692 31.0672 31.7961C30.9879 31.923 30.9348 32.0646 30.9112 32.2124C30.8877 32.3602 30.8941 32.5112 30.9301 32.6565C30.9661 32.8018 31.0309 32.9383 31.1207 33.0581L34.2463 37.5232C34.3304 37.6433 34.4372 37.7457 34.5609 37.8245C34.6845 37.9033 34.8224 37.9569 34.9667 37.9824C35.1111 38.0079 35.2591 38.0048 35.4022 37.9731C35.5453 37.9414 35.6808 37.8818 35.8009 37.7978C35.921 37.7137 36.0234 37.6068 36.1022 37.4832C36.181 37.3596 36.2347 37.2217 36.2602 37.0773C36.2857 36.933 36.2825 36.785 36.2508 36.6419C36.2191 36.4988 36.1596 36.3633 36.0755 36.2432Z" fill="#3C83F6" stroke="#3C83F6" stroke-width="0.5"/>
<path fill-rule="evenodd" clip-rule="evenodd" d="M36.9831 28.0796L27.3534 22.5235C27.0183 22.3314 26.6355 22.2386 26.2496 22.256C25.8638 22.2734 25.4908 22.4002 25.1744 22.6217C24.858 22.8432 24.6112 23.1502 24.4628 23.5069C24.3144 23.8635 24.2706 24.2549 24.3365 24.6355L26.2639 35.5855C26.3321 35.974 26.512 36.3343 26.7816 36.6224C27.0512 36.9104 27.3989 37.1137 27.7821 37.2075C28.1653 37.3012 28.5676 37.2814 28.9397 37.1503C29.3118 37.0193 29.6377 36.7827 29.8777 36.4696L32.4883 33.0671L36.5783 31.7782C36.9543 31.6594 37.2876 31.4337 37.5376 31.1288C37.7876 30.8239 37.9436 30.4529 37.9865 30.0609C38.0294 29.6689 37.9574 29.2729 37.7792 28.9212C37.6011 28.5694 37.3245 28.277 36.9831 28.0796ZM35.4724 29.7853L31.4806 31.0444C31.2622 31.1125 31.0703 31.2467 30.9314 31.4284L28.3833 34.7505L26.6092 24.6712L35.4724 29.7853Z" fill="#3C83F6" stroke="#3C83F6" stroke-width="0.5"/>
</svg>
