<svg width="44" height="44" viewBox="0 0 44 44" fill="none" xmlns="http://www.w3.org/2000/svg">
<path fill-rule="evenodd" clip-rule="evenodd" d="M14.4632 19.8721V23.1279C14.4632 24.0993 14.8491 25.031 15.536 25.7179C16.2229 26.4048 17.1546 26.7907 18.126 26.7907H21.3818C22.3532 26.7907 23.2849 26.4048 23.9718 25.7179C24.6587 25.031 25.0446 24.0993 25.0446 23.1279V19.8721C25.0446 18.9007 24.6587 17.969 23.9718 17.2821C23.2849 16.5952 22.3532 16.2093 21.3818 16.2093H18.126C17.1546 16.2093 16.2229 16.5952 15.536 17.2821C14.8491 17.969 14.4632 18.9007 14.4632 19.8721ZM16.9051 19.8721C16.9051 19.5481 17.0337 19.2372 17.2632 19.0093C17.3763 18.8957 17.5108 18.8055 17.6588 18.7441C17.8069 18.6826 17.9657 18.651 18.126 18.6512H21.3818C21.7058 18.6512 22.0167 18.7798 22.2446 19.0093C22.4741 19.2372 22.6027 19.5481 22.6027 19.8721V23.1279C22.6027 23.4519 22.4741 23.7628 22.2446 23.9907C22.1315 24.1043 21.997 24.1945 21.849 24.2559C21.7009 24.3174 21.5421 24.349 21.3818 24.3488H18.126C17.9657 24.349 17.8069 24.3174 17.6588 24.2559C17.5108 24.1945 17.3763 24.1043 17.2632 23.9907C17.1496 23.8776 17.0594 23.7431 16.998 23.5951C16.9365 23.447 16.9049 23.2882 16.9051 23.1279V19.8721ZM2.25391 7.66279V10.9186C2.25391 11.89 2.63981 12.8217 3.32671 13.5086C4.01362 14.1955 4.94526 14.5814 5.9167 14.5814H9.17251C10.1439 14.5814 11.0756 14.1955 11.7625 13.5086C12.4494 12.8217 12.8353 11.89 12.8353 10.9186V7.66279C12.8353 6.69136 12.4494 5.75971 11.7625 5.07281C11.0756 4.3859 10.1439 4 9.17251 4H5.9167C4.94526 4 4.01362 4.3859 3.32671 5.07281C2.63981 5.75971 2.25391 6.69136 2.25391 7.66279ZM4.69577 7.66279C4.69577 7.33884 4.82437 7.02791 5.05391 6.8C5.16701 6.68638 5.30147 6.59624 5.44954 6.53478C5.59761 6.47331 5.75638 6.44173 5.9167 6.44186H9.17251C9.49646 6.44186 9.80739 6.57047 10.0353 6.8C10.2648 7.02791 10.3934 7.33884 10.3934 7.66279V10.9186C10.3934 11.2426 10.2648 11.5535 10.0353 11.7814C9.9222 11.895 9.78774 11.9852 9.63967 12.0466C9.4916 12.1081 9.33283 12.1397 9.17251 12.1395H5.9167C5.75638 12.1397 5.59761 12.1081 5.44954 12.0466C5.30147 11.9852 5.16701 11.895 5.05391 11.7814C4.94028 11.6683 4.85015 11.5338 4.78868 11.3858C4.72722 11.2377 4.69564 11.0789 4.69577 10.9186V7.66279ZM26.6725 32.0814V35.3372C26.6725 36.3086 27.0584 37.2403 27.7453 37.9272C28.4322 38.6141 29.3639 39 30.3353 39H33.5911C34.5625 39 35.4942 38.6141 36.1811 37.9272C36.868 37.2403 37.2539 36.3086 37.2539 35.3372V32.0814C37.2539 31.11 36.868 30.1783 36.1811 29.4914C35.4942 28.8045 34.5625 28.4186 33.5911 28.4186H30.3353C29.3639 28.4186 28.4322 28.8045 27.7453 29.4914C27.0584 30.1783 26.6725 31.11 26.6725 32.0814ZM29.1144 32.0814C29.1144 31.7574 29.243 31.4465 29.4725 31.2186C29.5856 31.105 29.7201 31.0148 29.8681 30.9534C30.0162 30.8919 30.175 30.8603 30.3353 30.8605H33.5911C33.9151 30.8605 34.226 30.9891 34.4539 31.2186C34.6834 31.4465 34.812 31.7574 34.812 32.0814V35.3372C34.812 35.6612 34.6834 35.9721 34.4539 36.2C34.3408 36.3136 34.2063 36.4038 34.0583 36.4652C33.9102 36.5267 33.7514 36.5583 33.5911 36.5581H30.3353C30.175 36.5583 30.0162 36.5267 29.8681 36.4652C29.7201 36.4038 29.5856 36.3136 29.4725 36.2C29.3589 36.0869 29.2688 35.9524 29.2073 35.8044C29.1458 35.6563 29.1142 35.4975 29.1144 35.3372V32.0814Z" fill="#A856F7"/>
<path fill-rule="evenodd" clip-rule="evenodd" d="M11.6144 10.5122H32.7772C33.3166 10.513 33.8337 10.7277 34.2151 11.1091C34.5965 11.4906 34.8112 12.0076 34.812 12.5471V18.2447C34.8112 18.7842 34.5965 19.3012 34.2151 19.6827C33.8337 20.0641 33.3166 20.2788 32.7772 20.2796H27.8934C27.5696 20.2796 27.2591 20.4082 27.0301 20.6372C26.8011 20.8662 26.6725 21.1767 26.6725 21.5005C26.6725 21.8244 26.8011 22.1349 27.0301 22.3639C27.2591 22.5928 27.5696 22.7215 27.8934 22.7215H32.7772C33.9639 22.7215 35.1034 22.2494 35.9434 21.411C36.7821 20.5706 37.2534 19.432 37.2539 18.2447V12.5471C37.2539 11.3603 36.7818 10.2208 35.9434 9.38078C35.1031 8.54207 33.9644 8.07081 32.7772 8.07031H11.6144C11.2906 8.07031 10.98 8.19895 10.751 8.42791C10.5221 8.65688 10.3934 8.96743 10.3934 9.29124C10.3934 9.61505 10.5221 9.9256 10.751 10.1546C10.98 10.3835 11.2906 10.5122 11.6144 10.5122ZM21.3818 32.4889H6.73065C6.19123 32.4881 5.67415 32.2734 5.29272 31.892C4.91129 31.5105 4.69663 30.9935 4.69577 30.454V24.7564C4.69663 24.2169 4.91129 23.6999 5.29272 23.3184C5.67415 22.937 6.19123 22.7223 6.73065 22.7215H15.6841C16.0079 22.7215 16.3185 22.5928 16.5475 22.3639C16.7764 22.1349 16.9051 21.8244 16.9051 21.5005C16.9051 21.1767 16.7764 20.8662 16.5475 20.6372C16.3185 20.4082 16.0079 20.2796 15.6841 20.2796H6.73065C5.54391 20.2796 4.40437 20.7517 3.56437 21.5901C2.72567 22.4304 2.2544 23.5691 2.25391 24.7564V30.454C2.25391 31.6408 2.726 32.7803 3.56437 33.6203C4.40473 34.459 5.54337 34.9303 6.73065 34.9308H21.3818C21.7056 34.9308 22.0162 34.8021 22.2451 34.5732C22.4741 34.3442 22.6027 34.0337 22.6027 33.7098C22.6027 33.386 22.4741 33.0755 22.2451 32.8465C22.0162 32.6175 21.7056 32.4889 21.3818 32.4889Z" fill="#A856F7"/>
<path fill-rule="evenodd" clip-rule="evenodd" d="M32.0115 23.8964L29.6201 21.5033L32.0115 19.1103C32.1248 18.997 32.2147 18.8625 32.276 18.7145C32.3373 18.5664 32.3689 18.4077 32.3689 18.2475C32.3689 18.0873 32.3373 17.9286 32.276 17.7806C32.2147 17.6325 32.1248 17.498 32.0115 17.3847C31.8982 17.2714 31.7637 17.1815 31.6157 17.1202C31.4676 17.0589 31.309 17.0273 31.1487 17.0273C30.9885 17.0273 30.8298 17.0589 30.6818 17.1202C30.5337 17.1815 30.3992 17.2714 30.2859 17.3847L27.0301 20.6405C26.9167 20.7538 26.8267 20.8883 26.7654 21.0363C26.704 21.1844 26.6724 21.3431 26.6724 21.5033C26.6724 21.6636 26.704 21.8223 26.7654 21.9703C26.8267 22.1184 26.9167 22.2529 27.0301 22.3661L30.2859 25.6219C30.3992 25.7352 30.5337 25.8251 30.6818 25.8864C30.8298 25.9478 30.9885 25.9793 31.1487 25.9793C31.309 25.9793 31.4676 25.9478 31.6157 25.8864C31.7637 25.8251 31.8982 25.7352 32.0115 25.6219C32.1248 25.5086 32.2147 25.3741 32.276 25.2261C32.3373 25.078 32.3689 24.9194 32.3689 24.7591C32.3689 24.5989 32.3373 24.4402 32.276 24.2922C32.2147 24.1442 32.1248 24.0097 32.0115 23.8964ZM20.6162 37.8312L23.872 34.5754C23.9854 34.4622 24.0754 34.3277 24.1367 34.1796C24.1981 34.0316 24.2297 33.8729 24.2297 33.7126C24.2297 33.5524 24.1981 33.3937 24.1367 33.2456C24.0754 33.0976 23.9854 32.9631 23.872 32.8498L20.6162 29.594C20.3873 29.3652 20.077 29.2366 19.7534 29.2366C19.4298 29.2366 19.1194 29.3652 18.8906 29.594C18.6618 29.8229 18.5332 30.1332 18.5332 30.4568C18.5332 30.7804 18.6618 31.0908 18.8906 31.3196L21.282 33.7126L18.8906 36.1057C18.7773 36.219 18.6874 36.3535 18.6261 36.5015C18.5648 36.6495 18.5332 36.8082 18.5332 36.9684C18.5332 37.1287 18.5648 37.2873 18.6261 37.4354C18.6874 37.5834 18.7773 37.7179 18.8906 37.8312C19.0039 37.9445 19.1384 38.0344 19.2864 38.0957C19.4345 38.1571 19.5931 38.1886 19.7534 38.1886C19.9136 38.1886 20.0723 38.1571 20.2203 38.0957C20.3684 38.0344 20.5029 37.9445 20.6162 37.8312Z" fill="#A856F7"/>
</svg>
