<svg width="44" height="44" viewBox="0 0 44 44" fill="none" xmlns="http://www.w3.org/2000/svg">
<path fill-rule="evenodd" clip-rule="evenodd" d="M17.4651 20.6047V23.3953C17.4651 24.228 17.7959 25.0266 18.3847 25.6153C18.9734 26.2041 19.772 26.5349 20.6047 26.5349H23.3953C24.228 26.5349 25.0266 26.2041 25.6153 25.6153C26.2041 25.0266 26.5349 24.228 26.5349 23.3953V20.6047C26.5349 19.772 26.2041 18.9734 25.6153 18.3847C25.0266 17.7959 24.228 17.4651 23.3953 17.4651H20.6047C19.772 17.4651 18.9734 17.7959 18.3847 18.3847C17.7959 18.9734 17.4651 19.772 17.4651 20.6047ZM19.5581 20.6047C19.5581 20.327 19.6684 20.0605 19.8651 19.8651C19.9621 19.7677 20.0773 19.6905 20.2042 19.6378C20.3311 19.5851 20.4672 19.558 20.6047 19.5581H23.3953C23.673 19.5581 23.9395 19.6684 24.1349 19.8651C24.3316 20.0605 24.4419 20.327 24.4419 20.6047V23.3953C24.4419 23.673 24.3316 23.9395 24.1349 24.1349C24.0379 24.2323 23.9227 24.3095 23.7958 24.3622C23.6689 24.4149 23.5328 24.442 23.3953 24.4419H20.6047C20.4672 24.442 20.3311 24.4149 20.2042 24.3622C20.0773 24.3095 19.9621 24.2323 19.8651 24.1349C19.7677 24.0379 19.6905 23.9227 19.6378 23.7958C19.5851 23.6689 19.558 23.5328 19.5581 23.3953V20.6047ZM7 10.1395V12.9302C7 13.7629 7.33077 14.5614 7.91955 15.1502C8.50833 15.739 9.30688 16.0698 10.1395 16.0698H12.9302C13.7629 16.0698 14.5614 15.739 15.1502 15.1502C15.739 14.5614 16.0698 13.7629 16.0698 12.9302V10.1395C16.0698 9.30688 15.739 8.50833 15.1502 7.91955C14.5614 7.33077 13.7629 7 12.9302 7H10.1395C9.30688 7 8.50833 7.33077 7.91955 7.91955C7.33077 8.50833 7 9.30688 7 10.1395ZM9.09302 10.1395C9.09302 9.86186 9.20326 9.59535 9.4 9.4C9.49695 9.30261 9.6122 9.22535 9.73911 9.17267C9.86603 9.11998 10.0021 9.09292 10.1395 9.09302H12.9302C13.2079 9.09302 13.4744 9.20326 13.6698 9.4C13.8665 9.59535 13.9767 9.86186 13.9767 10.1395V12.9302C13.9767 13.2079 13.8665 13.4744 13.6698 13.6698C13.5728 13.7672 13.4576 13.8444 13.3307 13.8971C13.2037 13.9498 13.0677 13.9769 12.9302 13.9767H10.1395C10.0021 13.9769 9.86603 13.9498 9.73911 13.8971C9.6122 13.8444 9.49695 13.7672 9.4 13.6698C9.30261 13.5728 9.22535 13.4576 9.17267 13.3307C9.11998 13.2037 9.09292 13.0677 9.09302 12.9302V10.1395ZM27.9302 31.0698V33.8605C27.9302 34.6931 28.261 35.4917 28.8498 36.0805C29.4386 36.6692 30.2371 37 31.0698 37H33.8605C34.6931 37 35.4917 36.6692 36.0805 36.0805C36.6692 35.4917 37 34.6931 37 33.8605V31.0698C37 30.2371 36.6692 29.4386 36.0805 28.8498C35.4917 28.261 34.6931 27.9302 33.8605 27.9302H31.0698C30.2371 27.9302 29.4386 28.261 28.8498 28.8498C28.261 29.4386 27.9302 30.2371 27.9302 31.0698ZM30.0233 31.0698C30.0233 30.7921 30.1335 30.5256 30.3302 30.3302C30.4272 30.2328 30.5424 30.1556 30.6693 30.1029C30.7963 30.0502 30.9323 30.0231 31.0698 30.0233H33.8605C34.1381 30.0233 34.4047 30.1335 34.6 30.3302C34.7967 30.5256 34.907 30.7921 34.907 31.0698V33.8605C34.907 34.1381 34.7967 34.4047 34.6 34.6C34.5031 34.6974 34.3878 34.7746 34.2609 34.8273C34.134 34.88 33.9979 34.9071 33.8605 34.907H31.0698C30.9323 34.9071 30.7963 34.88 30.6693 34.8273C30.5424 34.7746 30.4272 34.6974 30.3302 34.6C30.2328 34.5031 30.1556 34.3878 30.1029 34.2609C30.0502 34.134 30.0231 33.9979 30.0233 33.8605V31.0698Z" fill="#3C83F6"/>
<path fill-rule="evenodd" clip-rule="evenodd" d="M15.0233 12.5813H33.1628C33.6252 12.582 34.0684 12.766 34.3953 13.093C34.7222 13.4199 34.9062 13.8631 34.907 14.3255V19.2092C34.9062 19.6716 34.7222 20.1148 34.3953 20.4417C34.0684 20.7687 33.6252 20.9527 33.1628 20.9534H28.9767C28.6992 20.9534 28.433 21.0637 28.2367 21.2599C28.0405 21.4562 27.9302 21.7224 27.9302 21.9999C27.9302 22.2775 28.0405 22.5436 28.2367 22.7399C28.433 22.9362 28.6992 23.0464 28.9767 23.0464H33.1628C34.18 23.0464 35.1567 22.6418 35.8767 21.9232C36.5956 21.2029 36.9996 20.2269 37 19.2092V14.3255C37 13.3083 36.5953 12.3315 35.8767 11.6115C35.1564 10.8926 34.1805 10.4887 33.1628 10.4883H15.0233C14.7457 10.4883 14.4795 10.5985 14.2833 10.7948C14.087 10.9911 13.9767 11.2572 13.9767 11.5348C13.9767 11.8123 14.087 12.0785 14.2833 12.2748C14.4795 12.471 14.7457 12.5813 15.0233 12.5813ZM23.3953 31.4185H10.8372C10.3748 31.4178 9.93164 31.2338 9.6047 30.9068C9.27776 30.5799 9.09376 30.1367 9.09302 29.6743V24.7906C9.09376 24.3282 9.27776 23.885 9.6047 23.5581C9.93164 23.2312 10.3748 23.0472 10.8372 23.0464H18.5116C18.7892 23.0464 19.0554 22.9362 19.2516 22.7399C19.4479 22.5436 19.5581 22.2775 19.5581 21.9999C19.5581 21.7224 19.4479 21.4562 19.2516 21.2599C19.0554 21.0637 18.7892 20.9534 18.5116 20.9534H10.8372C9.82 20.9534 8.84326 21.358 8.12326 22.0767C7.40437 22.797 7.00043 23.7729 7 24.7906V29.6743C7 30.6915 7.40465 31.6683 8.12326 32.3883C8.84357 33.1072 9.81954 33.5111 10.8372 33.5115H23.3953C23.6729 33.5115 23.9391 33.4013 24.1353 33.205C24.3316 33.0088 24.4419 32.7426 24.4419 32.465C24.4419 32.1875 24.3316 31.9213 24.1353 31.725C23.9391 31.5288 23.6729 31.4185 23.3953 31.4185Z" fill="#3C83F6"/>
<path fill-rule="evenodd" clip-rule="evenodd" d="M32.506 24.0557L30.4562 22.0045L32.506 19.9534C32.6031 19.8562 32.6801 19.741 32.7327 19.6141C32.7852 19.4872 32.8123 19.3512 32.8123 19.2138C32.8123 19.0765 32.7852 18.9405 32.7327 18.8136C32.6801 18.6867 32.6031 18.5714 32.506 18.4743C32.4088 18.3772 32.2936 18.3001 32.1667 18.2476C32.0398 18.195 31.9038 18.168 31.7664 18.168C31.6291 18.168 31.4931 18.195 31.3662 18.2476C31.2393 18.3001 31.124 18.3772 31.0269 18.4743L28.2362 21.265C28.139 21.3621 28.0619 21.4773 28.0093 21.6042C27.9566 21.7311 27.9296 21.8672 27.9296 22.0045C27.9296 22.1419 27.9566 22.2779 28.0093 22.4048C28.0619 22.5317 28.139 22.647 28.2362 22.7441L31.0269 25.5348C31.124 25.6319 31.2393 25.7089 31.3662 25.7615C31.4931 25.814 31.6291 25.8411 31.7664 25.8411C31.9038 25.8411 32.0398 25.814 32.1667 25.7615C32.2936 25.7089 32.4088 25.6319 32.506 25.5348C32.6031 25.4376 32.6801 25.3223 32.7327 25.1955C32.7852 25.0686 32.8123 24.9326 32.8123 24.7952C32.8123 24.6579 32.7852 24.5219 32.7327 24.395C32.6801 24.2681 32.6031 24.1528 32.506 24.0557ZM22.7385 35.9999L25.5292 33.2092C25.6264 33.1121 25.7035 32.9968 25.7562 32.8699C25.8088 32.743 25.8359 32.607 25.8359 32.4696C25.8359 32.3323 25.8088 32.1962 25.7562 32.0694C25.7035 31.9425 25.6264 31.8272 25.5292 31.7301L22.7385 28.9394C22.5424 28.7433 22.2764 28.6331 21.999 28.6331C21.7216 28.6331 21.4556 28.7433 21.2595 28.9394C21.0633 29.1355 20.9531 29.4016 20.9531 29.6789C20.9531 29.9563 21.0633 30.2223 21.2595 30.4185L23.3092 32.4696L21.2595 34.5208C21.1623 34.6179 21.0853 34.7332 21.0327 34.8601C20.9802 34.987 20.9531 35.123 20.9531 35.2603C20.9531 35.3977 20.9802 35.5337 21.0327 35.6606C21.0853 35.7875 21.1623 35.9028 21.2595 35.9999C21.3566 36.097 21.4719 36.174 21.5988 36.2266C21.7256 36.2791 21.8616 36.3062 21.999 36.3062C22.1363 36.3062 22.2723 36.2791 22.3992 36.2266C22.5261 36.174 22.6414 36.097 22.7385 35.9999Z" fill="#3C83F6"/>
</svg>
