<svg width="1920" height="66" viewBox="0 0 1920 66" fill="none" xmlns="http://www.w3.org/2000/svg">
<path d="M-2 33.5513H1920" stroke="url(#paint0_linear_302_5158)" stroke-dasharray="12 12"/>
<mask id="path-2-inside-1_302_5158" fill="white">
<path fill-rule="evenodd" clip-rule="evenodd" d="M221.005 33.1488C198.645 33.1488 188.807 42.987 188.807 65.3464C188.807 42.987 178.969 33.1488 156.609 33.1488C178.969 33.1488 188.807 23.3106 188.807 0.951172C188.807 23.3106 198.645 33.1488 221.005 33.1488Z"/>
</mask>
<path d="M221.005 383.149C414.304 383.149 571.005 226.448 571.005 33.1488C571.005 -160.151 414.304 -316.851 221.005 -316.851V33.1488V383.149ZM-161.193 65.3464C-161.193 258.646 -4.49268 415.346 188.807 415.346C382.107 415.346 538.807 258.646 538.807 65.3464H188.807H-161.193ZM156.609 -316.851C-36.6903 -316.851 -193.391 -160.151 -193.391 33.1488C-193.391 226.448 -36.6903 383.149 156.609 383.149V33.1488V-316.851ZM538.807 0.951172C538.807 -192.348 382.107 -349.049 188.807 -349.049C-4.49268 -349.049 -161.193 -192.348 -161.193 0.951172H188.807H538.807ZM221.005 33.1488V-316.851C167.1 -316.851 48.4316 -306.022 -50.9664 -206.625C-150.364 -107.227 -161.193 11.4414 -161.193 65.3464H188.807H538.807C538.807 96.892 532.897 199.461 444.008 288.35C355.119 377.239 252.55 383.149 221.005 383.149V33.1488ZM188.807 65.3464H538.807C538.807 11.4417 527.978 -107.226 428.58 -206.624C329.182 -306.023 210.514 -316.851 156.609 -316.851V33.1488V383.149C125.064 383.149 22.4946 377.239 -66.3945 288.35C-155.284 199.461 -161.193 96.8917 -161.193 65.3464H188.807ZM156.609 33.1488V383.149C210.514 383.149 329.182 372.32 428.58 272.922C527.978 173.524 538.807 54.8557 538.807 0.951172H188.807H-161.193C-161.193 -30.5939 -155.284 -133.163 -66.3944 -222.053C22.4948 -310.942 125.064 -316.851 156.609 -316.851V33.1488ZM188.807 0.951172H-161.193C-161.193 54.856 -150.364 173.524 -50.9662 272.922C48.4318 372.32 167.1 383.149 221.005 383.149V33.1488V-316.851C252.55 -316.851 355.119 -310.942 444.008 -222.053C532.897 -133.164 538.807 -30.5942 538.807 0.951172H188.807Z" fill="url(#paint1_linear_302_5158)" mask="url(#path-2-inside-1_302_5158)"/>
<mask id="path-4-inside-2_302_5158" fill="white">
<path fill-rule="evenodd" clip-rule="evenodd" d="M1751 33.1488C1728.65 33.1488 1718.81 42.987 1718.81 65.3464C1718.81 42.987 1708.97 33.1488 1686.61 33.1488C1708.97 33.1488 1718.81 23.3106 1718.81 0.951172C1718.81 23.3106 1728.65 33.1488 1751 33.1488Z"/>
</mask>
<path d="M1751 383.149C1944.3 383.149 2101 226.448 2101 33.1488C2101 -160.151 1944.3 -316.851 1751 -316.851V33.1488V383.149ZM1368.81 65.3464C1368.81 258.646 1525.51 415.346 1718.81 415.346C1912.11 415.346 2068.81 258.646 2068.81 65.3464H1718.81H1368.81ZM1686.61 -316.851C1493.31 -316.851 1336.61 -160.151 1336.61 33.1488C1336.61 226.448 1493.31 383.149 1686.61 383.149V33.1488V-316.851ZM2068.81 0.951172C2068.81 -192.348 1912.11 -349.049 1718.81 -349.049C1525.51 -349.049 1368.81 -192.348 1368.81 0.951172H1718.81H2068.81ZM1751 33.1488V-316.851C1697.1 -316.851 1578.43 -306.022 1479.03 -206.625C1379.64 -107.227 1368.81 11.4414 1368.81 65.3464H1718.81H2068.81C2068.81 96.892 2062.9 199.461 1974.01 288.35C1885.12 377.239 1782.55 383.149 1751 383.149V33.1488ZM1718.81 65.3464H2068.81C2068.81 11.4417 2057.98 -107.226 1958.58 -206.624C1859.18 -306.023 1740.51 -316.851 1686.61 -316.851V33.1488V383.149C1655.06 383.149 1552.49 377.239 1463.61 288.35C1374.72 199.461 1368.81 96.8917 1368.81 65.3464H1718.81ZM1686.61 33.1488V383.149C1740.51 383.149 1859.18 372.32 1958.58 272.922C2057.98 173.524 2068.81 54.8557 2068.81 0.951172H1718.81H1368.81C1368.81 -30.5939 1374.72 -133.163 1463.61 -222.053C1552.49 -310.942 1655.06 -316.851 1686.61 -316.851V33.1488ZM1718.81 0.951172H1368.81C1368.81 54.856 1379.64 173.524 1479.03 272.922C1578.43 372.32 1697.1 383.149 1751 383.149V33.1488V-316.851C1782.55 -316.851 1885.12 -310.942 1974.01 -222.053C2062.9 -133.164 2068.81 -30.5942 2068.81 0.951172H1718.81Z" fill="url(#paint2_linear_302_5158)" mask="url(#path-4-inside-2_302_5158)"/>
<defs>
<linearGradient id="paint0_linear_302_5158" x1="-2" y1="34.0513" x2="1920" y2="34.0513" gradientUnits="userSpaceOnUse">
<stop stop-opacity="0.2"/>
<stop offset="0.5" stop-color="#0A0A0A"/>
<stop offset="1" stop-opacity="0.2"/>
</linearGradient>
<linearGradient id="paint1_linear_302_5158" x1="156.609" y1="33.1488" x2="221.005" y2="33.1488" gradientUnits="userSpaceOnUse">
<stop stop-color="#A856F7"/>
<stop offset="0.5" stop-color="#6A5ACD"/>
<stop offset="1" stop-color="#00A1E0"/>
</linearGradient>
<linearGradient id="paint2_linear_302_5158" x1="1686.61" y1="33.1488" x2="1751" y2="33.1488" gradientUnits="userSpaceOnUse">
<stop stop-color="#A856F7"/>
<stop offset="0.5" stop-color="#6A5ACD"/>
<stop offset="1" stop-color="#00A1E0"/>
</linearGradient>
</defs>
</svg>
