<svg width="44" height="44" viewBox="0 0 44 44" fill="none" xmlns="http://www.w3.org/2000/svg">
<path d="M40.9552 5.83677C40.8729 4.32731 39.6724 3.12698 38.163 3.0446C35.1172 2.8782 29.1572 3.04007 23.4581 5.9878C20.5529 7.49058 17.4802 10.0384 15.0281 12.9781C14.9979 13.0143 14.9685 13.0507 14.9385 13.087L9.37366 13.5169C8.45766 13.5877 7.64177 14.0678 7.13516 14.8341L3.3386 20.5765C2.95437 21.1576 2.89329 21.8849 3.1751 22.5219C3.45698 23.159 4.03618 23.603 4.72455 23.7096L9.41299 24.4358C9.39644 24.5269 9.37982 24.618 9.3646 24.7091C9.20852 25.6428 9.51786 26.6027 10.1922 27.277L16.7228 33.8077C17.2819 34.3668 18.0374 34.675 18.8115 34.675C18.9721 34.675 19.1324 34.6617 19.2908 34.6352C19.3819 34.62 19.473 34.6034 19.5641 34.5869L20.2903 39.2754C20.3969 39.9638 20.8409 40.543 21.4778 40.8248C21.7375 40.9401 22.0184 40.9998 22.3025 41C22.7013 40.9997 23.0911 40.8819 23.4233 40.6614L29.1657 36.8648C29.932 36.3581 30.4121 35.5422 30.4827 34.6263L30.9126 29.0614C30.9489 29.0315 30.9854 29.0021 31.0216 28.9719C33.9613 26.5198 36.5093 23.4471 38.0119 20.5417C40.9598 14.8424 41.1214 8.88232 40.9552 5.83677ZM27.9378 35.0074L22.4448 38.6391L21.7371 34.0698C24.0586 33.3873 26.3552 32.294 28.543 30.8295L28.263 34.4547C28.2548 34.5656 28.2212 34.6731 28.1648 34.7689C28.1084 34.8648 28.0307 34.9463 27.9378 35.0074ZM18.2972 32.2333L11.7665 25.7026C11.5999 25.5359 11.5229 25.3018 11.5606 25.0762C11.7548 23.9152 12.0565 22.81 12.43 21.7689L22.2288 31.5678C20.9784 32.0157 19.8584 32.2829 18.9236 32.4392C18.6977 32.4767 18.4638 32.3999 18.2972 32.2333ZM9.54518 15.7368L13.1703 15.4568C11.7057 17.6447 10.6124 19.9412 9.92985 22.2628L5.36068 21.5551L8.99247 16.0621C9.0535 15.9691 9.13509 15.8914 9.23093 15.8351C9.32676 15.7787 9.43428 15.7451 9.54518 15.7368ZM29.5956 27.2619C27.7971 28.7621 26.0512 29.8472 24.442 30.6323L13.3671 19.5574C14.3956 17.4567 15.6509 15.7075 16.7379 14.4043C19.0071 11.6838 21.8294 9.33699 24.4811 7.96543C29.7116 5.25994 35.2224 5.11425 38.0418 5.26774C38.2218 5.27734 38.3918 5.35316 38.5193 5.48061C38.6467 5.60806 38.7225 5.77814 38.7321 5.95812C38.8858 8.77753 38.7398 14.2883 36.0343 19.5188C34.6628 22.1705 32.316 24.9927 29.5956 27.2619Z" fill="#3C83F6"/>
<path d="M29.0299 20.5334C30.455 20.5333 31.8807 19.9907 32.9657 18.9057C34.0171 17.8544 34.596 16.4566 34.596 14.9699C34.596 13.4831 34.017 12.0853 32.9657 11.034C30.7954 8.8636 27.2641 8.86375 25.094 11.034C24.0426 12.0853 23.4636 13.4831 23.4636 14.9699C23.4636 16.4566 24.0427 17.8544 25.094 18.9057C26.1792 19.991 27.6042 20.5336 29.0299 20.5334ZM26.6682 12.6083C27.3193 11.9572 28.1745 11.6317 29.0297 11.6317C29.885 11.6317 30.7402 11.9572 31.3913 12.6083C32.022 13.2391 32.3694 14.0777 32.3694 14.9698C32.3694 15.8618 32.022 16.7006 31.3913 17.3313C30.0892 18.6335 27.9703 18.6334 26.6682 17.3313C26.0374 16.7006 25.69 15.8619 25.69 14.9699C25.69 14.0778 26.0375 13.2391 26.6682 12.6083ZM4.13558 34.3154C4.4205 34.3154 4.70542 34.2068 4.92273 33.9893L8.55742 30.3546C8.99219 29.9198 8.99219 29.215 8.55742 28.7802C8.12273 28.3454 7.4178 28.3454 6.98303 28.7802L3.34842 32.4149C2.91365 32.8497 2.91365 33.5545 3.34842 33.9893C3.45166 34.0928 3.57436 34.175 3.70945 34.2309C3.84453 34.2869 3.98935 34.3156 4.13558 34.3154ZM11.8884 32.1112C11.4537 31.6764 10.7488 31.6764 10.314 32.1112L3.32608 39.0992C2.89131 39.534 2.89131 40.2389 3.32608 40.6736C3.54346 40.891 3.82831 40.9997 4.11324 40.9997C4.39816 40.9997 4.68308 40.891 4.90039 40.6736L11.8883 33.6856C12.3232 33.2508 12.3232 32.546 11.8884 32.1112ZM13.645 35.4422L10.0103 39.0769C9.57555 39.5117 9.57555 40.2165 10.0103 40.6513C10.2277 40.8687 10.5126 40.9774 10.7975 40.9774C11.0823 40.9774 11.3673 40.8688 11.5846 40.6513L15.2193 37.0166C15.6541 36.5818 15.6541 35.877 15.2193 35.4422C14.7846 35.0074 14.0797 35.0074 13.645 35.4422Z" fill="#3C83F6"/>
</svg>
