<svg width="44" height="44" viewBox="0 0 44 44" fill="none" xmlns="http://www.w3.org/2000/svg">
<path fill-rule="evenodd" clip-rule="evenodd" d="M32.4055 8.65404L34.5145 6.54508L34.5173 3L37.2579 3.00274L37.2566 5.74343L40 5.7448L39.9973 8.48549L36.4522 8.48275L34.3446 10.5917C40.3508 17.5887 40.0411 28.1568 33.4128 34.7852C26.4596 41.7383 15.168 41.7383 8.21485 34.7852C1.26172 27.832 1.26172 16.5404 8.21485 9.58725C14.8418 2.96026 25.4086 2.64919 32.4055 8.65404ZM32.4001 12.5362L29.4757 15.4619C31.1118 17.5725 31.9221 20.2071 31.7548 22.8723C31.5876 25.5374 30.4543 28.0502 28.5672 29.9396C26.5099 31.9941 23.7213 33.1481 20.8138 33.1481C17.9063 33.1481 15.1177 31.9941 13.0604 29.9396C11.0059 27.8823 9.85187 25.0937 9.85187 22.1862C9.85187 19.2787 11.0059 16.4901 13.0604 14.4328C17.0111 10.4821 23.2379 10.1792 27.5367 13.5229L30.461 10.5986C24.5398 5.65984 15.7093 5.96817 10.1525 11.5249C4.26825 17.4092 4.26825 26.9632 10.1525 32.8475C16.0368 38.7317 25.5908 38.7317 31.4751 32.8475C37.0332 27.2894 37.3402 18.4575 32.4001 12.5362ZM27.5175 17.4201L24.5247 20.413C24.8906 21.1807 25.0098 22.0428 24.8661 22.881C24.7223 23.7191 24.3225 24.4922 23.7217 25.0941C22.117 26.6987 19.5106 26.6987 17.9059 25.0941C16.3013 23.4894 16.3013 20.883 17.9059 19.2783C18.5078 18.6775 19.2809 18.2777 20.119 18.1339C20.9572 17.9902 21.8193 18.1094 22.587 18.4753L25.5785 15.4825C23.9939 14.3576 22.0624 13.8297 20.1259 13.9922C18.1895 14.1547 16.373 14.9972 14.9981 16.3705C13.4567 17.9134 12.5908 20.0052 12.5908 22.1862C12.5908 24.3672 13.4567 26.459 14.9981 28.0019C16.541 29.5433 18.6328 30.4092 20.8138 30.4092C22.9948 30.4092 25.0866 29.5433 26.6295 28.0019C28.0027 26.6267 28.845 24.81 29.0076 22.8733C29.1701 20.9367 28.6423 19.005 27.5175 17.4201ZM21.7826 21.2174C21.6554 21.0901 21.5044 20.9892 21.3381 20.9204C21.1719 20.8515 20.9937 20.8161 20.8138 20.8161C20.6339 20.8161 20.4557 20.8515 20.2895 20.9204C20.1232 20.9892 19.9722 21.0901 19.845 21.2174C19.7177 21.3446 19.6168 21.4956 19.548 21.6619C19.4791 21.8281 19.4437 22.0063 19.4437 22.1862C19.4437 22.3661 19.4791 22.5443 19.548 22.7105C19.6168 22.8768 19.7177 23.0278 19.845 23.155C19.9722 23.2823 20.1232 23.3832 20.2895 23.452C20.4557 23.5209 20.6339 23.5563 20.8138 23.5563C20.9937 23.5563 21.1719 23.5209 21.3381 23.452C21.5044 23.3832 21.6554 23.2823 21.7826 23.155C21.9099 23.0278 22.0108 22.8768 22.0796 22.7105C22.1485 22.5443 22.1839 22.3661 22.1839 22.1862C22.1839 22.0063 22.1485 21.8281 22.0796 21.6619C22.0108 21.4956 21.9099 21.3446 21.7826 21.2174Z" fill="#A856F7"/>
</svg>
