<svg width="39" height="42" viewBox="0 0 39 42" fill="none" xmlns="http://www.w3.org/2000/svg">
<path d="M19.6371 25.3143C19.5507 25.3142 19.4653 25.297 19.3856 25.2636L5.82824 19.3854C5.71308 19.341 5.614 19.2628 5.54395 19.1611C5.47389 19.0595 5.43612 18.939 5.43555 18.8156C5.43555 18.3935 5.90825 18.0849 6.29523 18.2539L19.633 24.0357L31.698 18.8074L25.6973 16.2096C25.6235 16.1777 25.5567 16.1316 25.5007 16.0739C25.4447 16.0161 25.4007 15.948 25.371 15.8732C25.3414 15.7985 25.3267 15.7186 25.328 15.6382C25.3292 15.5578 25.3462 15.4784 25.3781 15.4046C25.41 15.3308 25.4561 15.264 25.5139 15.208C25.5716 15.152 25.6398 15.1079 25.7145 15.0783C25.7892 15.0486 25.8691 15.034 25.9495 15.0352C26.0299 15.0364 26.1093 15.0535 26.1831 15.0854L33.4819 18.2449C33.5913 18.2924 33.6846 18.3709 33.75 18.4707C33.8155 18.5705 33.8504 18.6873 33.8504 18.8066C33.8504 18.926 33.8155 19.0427 33.75 19.1425C33.6846 19.2423 33.5913 19.3208 33.4819 19.3683L19.8804 25.2628C19.8037 25.2965 19.7209 25.314 19.6371 25.3143Z" fill="#3C83F6" stroke="#3C83F6" stroke-width="0.6"/>
<path d="M6.05292 19.4295C5.91204 19.4298 5.77538 19.3814 5.66598 19.2927C5.55658 19.2039 5.48113 19.0802 5.45236 18.9422C5.42359 18.8043 5.44325 18.6607 5.50804 18.5356C5.57282 18.4105 5.67876 18.3116 5.80799 18.2555L13.0904 15.096C13.1643 15.063 13.244 15.0451 13.3249 15.0431C13.4058 15.0412 13.4863 15.0553 13.5617 15.0847C13.6371 15.114 13.7059 15.158 13.7642 15.2141C13.8225 15.2702 13.8691 15.3373 13.9013 15.4116C13.9335 15.4858 13.9507 15.5657 13.9519 15.6466C13.953 15.7275 13.9381 15.8078 13.908 15.8829C13.8779 15.958 13.8333 16.0264 13.7766 16.0842C13.7199 16.1419 13.6524 16.1879 13.5778 16.2194L6.29539 19.3789C6.21886 19.4121 6.13635 19.4293 6.05292 19.4295Z" fill="#3C83F6" stroke="#3C83F6" stroke-width="0.6"/>
<path d="M19.6373 25.3137C19.5509 25.3137 19.4654 25.2965 19.3858 25.2631L5.82842 19.3849C5.71326 19.3404 5.61418 19.2623 5.54413 19.1606C5.47407 19.059 5.43629 18.9385 5.43572 18.8151C5.43572 18.4771 5.70514 18.2028 6.04395 18.2028H6.05212C6.13621 18.2028 6.21867 18.2191 6.29541 18.2534L19.6332 24.0352L32.9954 18.2444C33.0694 18.2115 33.1491 18.1935 33.23 18.1916C33.3108 18.1896 33.3913 18.2038 33.4667 18.2331C33.5421 18.2624 33.611 18.3064 33.6693 18.3626C33.7276 18.4187 33.7742 18.4858 33.8064 18.56C33.8386 18.6342 33.8557 18.7141 33.8569 18.795C33.858 18.8759 33.8431 18.9563 33.8131 19.0314C33.783 19.1065 33.7383 19.1749 33.6816 19.2326C33.625 19.2904 33.5574 19.3363 33.4828 19.3678L19.8806 25.2623C19.8036 25.2961 19.7205 25.3136 19.6364 25.3137H19.6373ZM19.6324 40.7848C19.4258 40.7848 19.2201 40.744 19.0282 40.6607L6.34766 35.1662C6.07506 35.0467 5.84323 34.8503 5.68053 34.601C5.51784 34.3518 5.43135 34.0605 5.43164 33.7628V26.4477C5.43164 26.2854 5.49615 26.1296 5.61098 26.0148C5.72581 25.8999 5.88156 25.8354 6.04395 25.8354C6.20635 25.8354 6.36209 25.8999 6.47692 26.0148C6.59175 26.1296 6.65626 26.2854 6.65626 26.4477V33.7628C6.65548 33.8223 6.67226 33.8806 6.7045 33.9306C6.73674 33.9806 6.78301 34.0199 6.83751 34.0437L19.5132 39.5373C19.5911 39.5684 19.6781 39.5679 19.7556 39.5357L32.4403 34.0429C32.495 34.0191 32.5417 33.98 32.5747 33.9303C32.6077 33.8807 32.6257 33.8225 32.6264 33.7628V26.4396C32.6264 26.2772 32.6909 26.1214 32.8058 26.0066C32.9206 25.8918 33.0763 25.8273 33.2387 25.8273C33.4011 25.8273 33.5569 25.8918 33.6717 26.0066C33.7865 26.1214 33.8511 26.2772 33.8511 26.4396V33.7628C33.8501 34.0606 33.7625 34.3517 33.599 34.6006C33.4355 34.8495 33.2031 35.0455 32.9301 35.1646L20.2398 40.6607C20.0463 40.744 19.8397 40.7848 19.6324 40.7848Z" fill="#3C83F6" stroke="#3C83F6" stroke-width="0.6"/>
<path d="M19.6338 40.7649C19.4714 40.7649 19.3157 40.7004 19.2008 40.5856C19.086 40.4708 19.0215 40.315 19.0215 40.1526V24.7061C19.0215 24.5437 19.086 24.3879 19.2008 24.2731C19.3157 24.1583 19.4714 24.0938 19.6338 24.0938C19.7962 24.0938 19.9519 24.1583 20.0668 24.2731C20.1816 24.3879 20.2461 24.5437 20.2461 24.7061V40.1526C20.2461 40.315 20.1816 40.4708 20.0668 40.5856C19.9519 40.7004 19.7962 40.7649 19.6338 40.7649Z" fill="#3C83F6" stroke="#3C83F6" stroke-width="0.6"/>
<path d="M24.0958 30.8335C23.7766 30.8335 23.4655 30.6873 23.263 30.4228L19.1475 25.0802C19.0904 25.0065 19.051 24.9207 19.0321 24.8294C19.0133 24.7381 19.0156 24.6437 19.0388 24.5534C19.0621 24.4631 19.1056 24.3794 19.1662 24.3085C19.2268 24.2376 19.3028 24.1816 19.3883 24.1446L32.9939 18.2501C33.1127 18.1984 33.2448 18.1857 33.3713 18.2139C33.4978 18.242 33.612 18.3096 33.6976 18.4068L38.1961 23.5306C38.4198 23.7845 38.5063 24.1323 38.4304 24.4613C38.3925 24.6235 38.3166 24.7744 38.209 24.9015C38.1014 25.0287 37.9652 25.1285 37.8116 25.1928L24.5007 30.7518C24.3701 30.8057 24.2321 30.8326 24.0966 30.8326L24.0958 30.8335ZM20.5966 24.9553L24.1513 29.5705L37.116 24.156L33.0715 19.5506L20.5966 24.9553Z" fill="#3C83F6"/>
<path d="M24.2329 29.6758V29.6766M24.0958 30.8335C23.7766 30.8335 23.4655 30.6873 23.263 30.4228L19.1475 25.0802C19.0904 25.0065 19.051 24.9207 19.0321 24.8294C19.0133 24.7381 19.0156 24.6437 19.0388 24.5534C19.0621 24.4631 19.1056 24.3794 19.1662 24.3085C19.2268 24.2376 19.3028 24.1816 19.3883 24.1446L32.9939 18.2501C33.1127 18.1984 33.2448 18.1857 33.3713 18.2139C33.4978 18.242 33.612 18.3096 33.6976 18.4068L38.1961 23.5306C38.4198 23.7845 38.5063 24.1323 38.4304 24.4613C38.3925 24.6235 38.3166 24.7744 38.209 24.9015C38.1014 25.0287 37.9652 25.1285 37.8116 25.1928L24.5007 30.7518C24.3701 30.8057 24.2321 30.8326 24.0966 30.8326L24.0958 30.8335ZM20.5966 24.9553L24.1513 29.5705L37.116 24.156L33.0715 19.5506L20.5966 24.9553Z" stroke="#3C83F6" stroke-width="0.6"/>
<path d="M15.1748 30.833C15.0393 30.833 14.9021 30.8069 14.7715 30.7514L1.4582 25.1916C1.30483 25.127 1.16896 25.027 1.06176 24.8998C0.954565 24.7725 0.879097 24.6216 0.84156 24.4595C0.804024 24.2974 0.80549 24.1287 0.84584 23.9673C0.886189 23.8059 0.96427 23.6564 1.07366 23.531L5.57211 18.4072C5.6574 18.3095 5.77157 18.2414 5.8981 18.213C6.02463 18.1845 6.15694 18.197 6.27586 18.2488L19.8822 24.1441C19.9678 24.1811 20.0438 24.2372 20.1044 24.308C20.1649 24.3789 20.2085 24.4627 20.2317 24.5529C20.255 24.6432 20.2573 24.7376 20.2384 24.8289C20.2196 24.9202 20.1801 25.006 20.1231 25.0797L16.0075 30.4232C15.9095 30.5508 15.7833 30.6541 15.6389 30.7252C15.4945 30.7962 15.3357 30.8331 15.1748 30.833ZM2.15541 24.1555L15.1201 29.57L18.6748 24.9548L6.19993 19.5501L2.15541 24.1555ZM23.4696 17.9908H15.8018C15.4254 17.9908 15.0572 17.8593 14.7649 17.6201L12.8496 16.0502C12.6622 15.8971 12.5112 15.7041 12.4077 15.4854C12.3042 15.2666 12.2507 15.0276 12.2512 14.7855V6.83121C12.2512 6.39443 12.421 5.98377 12.7304 5.67598L14.7045 3.70108C15.0131 3.39247 15.4238 3.22266 15.8606 3.22266H23.4108C23.8476 3.22266 24.2582 3.39247 24.5668 3.70108L26.5409 5.67598C26.8503 5.98377 27.0202 6.39443 27.0202 6.83121V14.7855C27.0202 15.2778 26.8022 15.7383 26.4217 16.051L24.5056 17.6201C24.2132 17.8597 23.8476 17.9907 23.4696 17.9908ZM15.8606 4.44646C15.8067 4.44643 15.7533 4.45709 15.7036 4.47783C15.6538 4.49857 15.6087 4.52898 15.5707 4.56729L13.5958 6.54138C13.5577 6.57937 13.5274 6.62454 13.5068 6.67428C13.4862 6.72403 13.4757 6.77737 13.4758 6.83121V14.7855C13.4756 14.8463 13.489 14.9064 13.515 14.9613C13.541 15.0163 13.5789 15.0647 13.626 15.1031L15.543 16.6731C15.6159 16.7331 15.7074 16.766 15.8018 16.7662H23.4696C23.5639 16.7662 23.6554 16.7336 23.7284 16.6739L25.6453 15.1031C25.6924 15.0647 25.7303 15.0163 25.7563 14.9613C25.7823 14.9064 25.7957 14.8463 25.7955 14.7855V6.83121C25.7957 6.77737 25.7851 6.72403 25.7645 6.67428C25.7439 6.62454 25.7137 6.57937 25.6755 6.54138L23.7006 4.56729C23.6626 4.52913 23.6175 4.49887 23.5677 4.47827C23.518 4.45767 23.4646 4.44714 23.4108 4.44728L15.8606 4.44646Z" fill="#3C83F6" stroke="#3C83F6" stroke-width="0.6"/>
<path d="M16.2687 4.44562C16.1063 4.44562 15.9506 4.38111 15.8357 4.26628C15.7209 4.15145 15.6564 3.9957 15.6564 3.83331V1.09669C15.6564 0.934291 15.7209 0.778547 15.8357 0.663717C15.9506 0.548886 16.1063 0.484375 16.2687 0.484375C16.4311 0.484375 16.5868 0.548886 16.7017 0.663717C16.8165 0.778547 16.881 0.934291 16.881 1.09669V3.83494C16.881 3.99734 16.8165 4.15308 16.7017 4.26791C16.5868 4.38274 16.4311 4.44725 16.2687 4.44725V4.44562ZM19.6356 4.44562C19.4732 4.44562 19.3174 4.38111 19.2026 4.26628C19.0878 4.15145 19.0233 3.9957 19.0233 3.83331V1.09669C19.0233 0.934291 19.0878 0.778547 19.2026 0.663717C19.3174 0.548886 19.4732 0.484375 19.6356 0.484375C19.798 0.484375 19.9537 0.548886 20.0686 0.663717C20.1834 0.778547 20.2479 0.934291 20.2479 1.09669V3.83494C20.2479 3.99734 20.1834 4.15308 20.0686 4.26791C19.9537 4.38274 19.798 4.44725 19.6356 4.44725V4.44562ZM23.0025 4.44562C22.8401 4.44562 22.6843 4.38111 22.5695 4.26628C22.4547 4.15145 22.3902 3.9957 22.3902 3.83331V1.09669C22.3902 0.934291 22.4547 0.778547 22.5695 0.663717C22.6843 0.548886 22.8401 0.484375 23.0025 0.484375C23.1649 0.484375 23.3206 0.548886 23.4355 0.663717C23.5503 0.778547 23.6148 0.934291 23.6148 1.09669V3.83494C23.6148 3.99734 23.5503 4.15308 23.4355 4.26791C23.3206 4.38274 23.1649 4.44725 23.0025 4.44725V4.44562ZM16.2687 20.7282C16.1063 20.7282 15.9506 20.6637 15.8357 20.5489C15.7209 20.434 15.6564 20.2783 15.6564 20.1159V17.3776C15.6564 17.2152 15.7209 17.0595 15.8357 16.9447C15.9506 16.8298 16.1063 16.7653 16.2687 16.7653C16.4311 16.7653 16.5868 16.8298 16.7017 16.9447C16.8165 17.0595 16.881 17.2152 16.881 17.3776V20.1159C16.881 20.2783 16.8165 20.434 16.7017 20.5489C16.5868 20.6637 16.4311 20.7282 16.2687 20.7282ZM19.6356 20.7282C19.4732 20.7282 19.3174 20.6637 19.2026 20.5489C19.0878 20.434 19.0233 20.2783 19.0233 20.1159V17.3776C19.0233 17.2152 19.0878 17.0595 19.2026 16.9447C19.3174 16.8298 19.4732 16.7653 19.6356 16.7653C19.798 16.7653 19.9537 16.8298 20.0686 16.9447C20.1834 17.0595 20.2479 17.2152 20.2479 17.3776V20.1159C20.2479 20.2783 20.1834 20.434 20.0686 20.5489C19.9537 20.6637 19.798 20.7282 19.6356 20.7282ZM23.0025 20.7282C22.8401 20.7282 22.6843 20.6637 22.5695 20.5489C22.4547 20.434 22.3902 20.2783 22.3902 20.1159V17.3776C22.3902 17.2152 22.4547 17.0595 22.5695 16.9447C22.6843 16.8298 22.8401 16.7653 23.0025 16.7653C23.1649 16.7653 23.3206 16.8298 23.4355 16.9447C23.5503 17.0595 23.6148 17.2152 23.6148 17.3776V20.1159C23.6148 20.2783 23.5503 20.434 23.4355 20.5489C23.3206 20.6637 23.1649 20.7282 23.0025 20.7282ZM29.1452 7.85089H26.4077C26.2454 7.85089 26.0896 7.78638 25.9748 7.67155C25.86 7.55672 25.7954 7.40097 25.7954 7.23858C25.7954 7.07618 25.86 6.92044 25.9748 6.80561C26.0896 6.69078 26.2454 6.62627 26.4077 6.62627H29.1452C29.3076 6.62627 29.4633 6.69078 29.5782 6.80561C29.693 6.92044 29.7575 7.07618 29.7575 7.23858C29.7575 7.40097 29.693 7.55672 29.5782 7.67155C29.4633 7.78638 29.3076 7.85089 29.1452 7.85089ZM29.1452 11.2186H26.4077C26.2454 11.2186 26.0896 11.1541 25.9748 11.0393C25.86 10.9244 25.7954 10.7687 25.7954 10.6063C25.7954 10.4439 25.86 10.2882 25.9748 10.1733C26.0896 10.0585 26.2454 9.99398 26.4077 9.99398H29.1452C29.3076 9.99398 29.4633 10.0585 29.5782 10.1733C29.693 10.2882 29.7575 10.4439 29.7575 10.6063C29.7575 10.7687 29.693 10.9244 29.5782 11.0393C29.4633 11.1541 29.3076 11.2186 29.1452 11.2186ZM29.1452 14.5855H26.4077C26.2454 14.5855 26.0896 14.521 25.9748 14.4062C25.86 14.2913 25.7954 14.1356 25.7954 13.9732C25.7954 13.8108 25.86 13.655 25.9748 13.5402C26.0896 13.4254 26.2454 13.3609 26.4077 13.3609H29.1452C29.3076 13.3609 29.4633 13.4254 29.5782 13.5402C29.693 13.655 29.7575 13.8108 29.7575 13.9732C29.7575 14.1356 29.693 14.2913 29.5782 14.4062C29.4633 14.521 29.3076 14.5855 29.1452 14.5855ZM12.8634 7.85089H10.126C9.96359 7.85089 9.80784 7.78638 9.69301 7.67155C9.57818 7.55672 9.51367 7.40097 9.51367 7.23858C9.51367 7.07618 9.57818 6.92044 9.69301 6.80561C9.80784 6.69078 9.96359 6.62627 10.126 6.62627H12.8634C13.0258 6.62627 13.1816 6.69078 13.2964 6.80561C13.4112 6.92044 13.4757 7.07618 13.4757 7.23858C13.4757 7.40097 13.4112 7.55672 13.2964 7.67155C13.1816 7.78638 13.0258 7.85089 12.8634 7.85089ZM12.8634 11.2186H10.126C9.96359 11.2186 9.80784 11.1541 9.69301 11.0393C9.57818 10.9244 9.51367 10.7687 9.51367 10.6063C9.51367 10.4439 9.57818 10.2882 9.69301 10.1733C9.80784 10.0585 9.96359 9.99398 10.126 9.99398H12.8634C13.0258 9.99398 13.1816 10.0585 13.2964 10.1733C13.4112 10.2882 13.4757 10.4439 13.4757 10.6063C13.4757 10.7687 13.4112 10.9244 13.2964 11.0393C13.1816 11.1541 13.0258 11.2186 12.8634 11.2186ZM12.8634 14.5855H10.126C9.96359 14.5855 9.80784 14.521 9.69301 14.4062C9.57818 14.2913 9.51367 14.1356 9.51367 13.9732C9.51367 13.8108 9.57818 13.655 9.69301 13.5402C9.80784 13.4254 9.96359 13.3609 10.126 13.3609H12.8634C13.0258 13.3609 13.1816 13.4254 13.2964 13.5402C13.4112 13.655 13.4757 13.8108 13.4757 13.9732C13.4757 14.1356 13.4112 14.2913 13.2964 14.4062C13.1816 14.521 13.0258 14.5855 12.8634 14.5855ZM19.6478 13.8622C19.4854 13.8622 19.3297 13.7976 19.2149 13.6828C19.1 13.568 19.0355 13.4122 19.0355 13.2498V9.63149C19.0205 9.36125 18.9026 9.10702 18.7059 8.92102C18.5093 8.73502 18.2489 8.63138 17.9783 8.63138C17.7076 8.63138 17.4472 8.73502 17.2506 8.92102C17.054 9.10702 16.936 9.36125 16.921 9.63149V13.2498C16.921 13.4122 16.8565 13.568 16.7417 13.6828C16.6268 13.7976 16.4711 13.8622 16.3087 13.8622C16.1463 13.8622 15.9906 13.7976 15.8757 13.6828C15.7609 13.568 15.6964 13.4122 15.6964 13.2498V9.63149C15.697 9.02664 15.9375 8.44673 16.3652 8.01896C16.7928 7.59119 17.3726 7.35047 17.9774 7.34961C18.5826 7.35004 19.1628 7.59057 19.5908 8.01838C20.0188 8.4462 20.2595 9.02636 20.2601 9.63149V13.2498C20.2601 13.4122 20.1956 13.568 20.0808 13.6828C19.966 13.7976 19.8102 13.8622 19.6478 13.8622ZM22.9625 13.6727C22.8001 13.6727 22.6443 13.6082 22.5295 13.4934C22.4147 13.3786 22.3502 13.2228 22.3502 13.0604V8.23787C22.3502 8.07547 22.4147 7.91973 22.5295 7.8049C22.6443 7.69007 22.8001 7.62556 22.9625 7.62556C23.1249 7.62556 23.2806 7.69007 23.3954 7.8049C23.5103 7.91973 23.5748 8.07547 23.5748 8.23787V13.0604C23.5748 13.2228 23.5103 13.3786 23.3954 13.4934C23.2806 13.6082 23.1249 13.6727 22.9625 13.6727Z" fill="#3C83F6" stroke="#3C83F6" stroke-width="0.6"/>
<path d="M19.6487 11.7129H16.3096C16.1472 11.7129 15.9914 11.6484 15.8766 11.5336C15.7618 11.4187 15.6973 11.263 15.6973 11.1006C15.6973 10.9382 15.7618 10.7825 15.8766 10.6676C15.9914 10.5528 16.1472 10.4883 16.3096 10.4883H19.6487C19.8111 10.4883 19.9669 10.5528 20.0817 10.6676C20.1965 10.7825 20.261 10.9382 20.261 11.1006C20.261 11.263 20.1965 11.4187 20.0817 11.5336C19.9669 11.6484 19.8111 11.7129 19.6487 11.7129Z" fill="#3C83F6" stroke="#3C83F6" stroke-width="0.6"/>
</svg>
