<svg width="44" height="44" viewBox="0 0 44 44" fill="none" xmlns="http://www.w3.org/2000/svg">
<path d="M20.6348 35.6373V32.9103C20.6348 32.1572 21.2451 31.5469 21.9982 31.5469C22.7513 31.5469 23.3617 32.1572 23.3617 32.9103V35.6373C23.3617 36.3904 22.7513 37.0015 21.9982 37.0015C21.2451 37.0015 20.6348 36.3904 20.6348 35.6373Z" fill="#A856F7"/>
<path d="M20.6348 11.0904V8.36347C20.6348 7.61037 21.2451 7 21.9982 7C22.7513 7 23.3617 7.61037 23.3617 8.36347V11.0904C23.3617 11.8435 22.7513 12.4546 21.9982 12.4546C21.2451 12.4546 20.6348 11.8435 20.6348 11.0904Z" fill="#A856F7"/>
<path d="M27.4531 35.6373V32.9103C27.4531 32.1572 28.0635 31.5469 28.8166 31.5469C29.5697 31.5469 30.1801 32.1572 30.1801 32.9103V35.6373C30.1801 36.3904 29.5697 37.0015 28.8166 37.0015C28.0635 37.0015 27.4531 36.3904 27.4531 35.6373Z" fill="#A856F7"/>
<path d="M27.4531 11.0904V8.36347C27.4531 7.61037 28.0635 7 28.8166 7C29.5697 7 30.1801 7.61037 30.1801 8.36347V11.0904C30.1801 11.8435 29.5697 12.4546 28.8166 12.4546C28.0635 12.4546 27.4531 11.8435 27.4531 11.0904Z" fill="#A856F7"/>
<path d="M11.0904 20.6406L11.23 20.6473C11.9177 20.717 12.4546 21.298 12.4546 22.0041C12.4546 22.7102 11.9177 23.2911 11.23 23.3609L11.0904 23.3676H8.36347C7.61037 23.3676 7 22.7572 7 22.0041C7 21.251 7.61037 20.6406 8.36347 20.6406H11.0904Z" fill="#A856F7"/>
<path d="M11.0904 27.4531L11.23 27.4598C11.9177 27.5295 12.4546 28.1105 12.4546 28.8166C12.4546 29.5227 11.9177 30.1036 11.23 30.1734L11.0904 30.1801H8.36347C7.61037 30.1801 7 29.5697 7 28.8166C7 28.0635 7.61037 27.4531 8.36347 27.4531H11.0904Z" fill="#A856F7"/>
<path d="M11.0904 13.8203L11.23 13.827C11.9177 13.8967 12.4546 14.4777 12.4546 15.1838C12.4546 15.8899 11.9177 16.4708 11.23 16.5406L11.0904 16.5473H8.36347C7.61037 16.5473 7 15.9369 7 15.1838C7 14.4307 7.61037 13.8203 8.36347 13.8203H11.0904Z" fill="#A856F7"/>
<path d="M35.6353 20.6406L35.7749 20.6473C36.4626 20.717 36.9995 21.298 36.9995 22.0041C36.9995 22.7102 36.4626 23.2911 35.7749 23.3609L35.6353 23.3676H32.9084C32.1553 23.3676 31.5449 22.7572 31.5449 22.0041C31.5449 21.251 32.1553 20.6406 32.9084 20.6406H35.6353Z" fill="#A856F7"/>
<path d="M35.6353 27.4531L35.7749 27.4598C36.4626 27.5295 36.9995 28.1105 36.9995 28.8166C36.9995 29.5227 36.4626 30.1036 35.7749 30.1734L35.6353 30.1801H32.9084C32.1553 30.1801 31.5449 29.5697 31.5449 28.8166C31.5449 28.0635 32.1553 27.4531 32.9084 27.4531H35.6353Z" fill="#A856F7"/>
<path d="M35.6353 13.8203L35.7749 13.827C36.4626 13.8967 36.9995 14.4777 36.9995 15.1838C36.9995 15.8899 36.4626 16.4708 35.7749 16.5406L35.6353 16.5473H32.9084C32.1553 16.5473 31.5449 15.9369 31.5449 15.1838C31.5449 14.4307 32.1553 13.8203 32.9084 13.8203H35.6353Z" fill="#A856F7"/>
<path d="M13.8184 35.6373V32.9103C13.8184 32.1572 14.4287 31.5469 15.1818 31.5469C15.9349 31.5469 16.5453 32.1572 16.5453 32.9103V35.6373C16.5453 36.3904 15.9349 37.0015 15.1818 37.0015C14.4287 37.0015 13.8184 36.3904 13.8184 35.6373Z" fill="#A856F7"/>
<path d="M13.8184 11.0904V8.36347C13.8184 7.61037 14.4287 7 15.1818 7C15.9349 7 16.5453 7.61037 16.5453 8.36347V11.0904C16.5453 11.8435 15.9349 12.4546 15.1818 12.4546C14.4287 12.4546 13.8184 11.8435 13.8184 11.0904Z" fill="#A856F7"/>
<path d="M31.5443 13.817C31.5441 13.0641 30.9337 12.4537 30.1808 12.4535H13.817C13.0641 12.4536 12.4536 13.0641 12.4535 13.817V30.1808C12.4537 30.9337 13.0641 31.5441 13.817 31.5443H30.1808C30.9337 31.5441 31.5441 30.9337 31.5443 30.1808V13.817ZM34.2712 30.1808C34.2711 32.4399 32.4399 34.2711 30.1808 34.2712H13.817C11.5579 34.2711 9.72672 32.4399 9.72656 30.1808V13.817C9.72671 11.5579 11.5579 9.72671 13.817 9.72656H30.1808C32.4399 9.72672 34.2711 11.5579 34.2712 13.817V30.1808Z" fill="#A856F7"/>
<path d="M17.9086 17.9066V26.0882H26.0901V17.9066H17.9086ZM28.8178 26.0882C28.8178 27.5944 27.5963 28.8159 26.0901 28.8159H17.9086C16.4024 28.8158 15.1816 27.5943 15.1816 26.0882V17.9066C15.1817 16.4005 16.4025 15.1798 17.9086 15.1797H26.0901C27.5963 15.1797 28.8177 16.4005 28.8178 17.9066V26.0882Z" fill="#A856F7"/>
</svg>
