<svg width="44" height="44" viewBox="0 0 44 44" fill="none" xmlns="http://www.w3.org/2000/svg">
<g clip-path="url(#clip0_4476_392)">
<path d="M40.289 24.2108C41.7862 24.2108 42.9999 22.9971 42.9999 21.4999C42.9999 20.0028 41.7862 18.7891 40.289 18.7891C38.7918 18.7891 37.5781 20.0028 37.5781 21.4999C37.5781 22.9971 38.7918 24.2108 40.289 24.2108Z" fill="#3C83F6" stroke="#3C83F6" stroke-width="0.3"/>
<path d="M2.71087 24.2108C4.20804 24.2108 5.42173 22.9971 5.42173 21.4999C5.42173 20.0028 4.20804 18.7891 2.71087 18.7891C1.2137 18.7891 0 20.0028 0 21.4999C0 22.9971 1.2137 24.2108 2.71087 24.2108Z" fill="#3C83F6" stroke="#3C83F6" stroke-width="0.3"/>
<path d="M21.4999 42.9999C22.9971 42.9999 24.2108 41.7862 24.2108 40.289C24.2108 38.7918 22.9971 37.5781 21.4999 37.5781C20.0028 37.5781 18.7891 38.7918 18.7891 40.289C18.7891 41.7862 20.0028 42.9999 21.4999 42.9999Z" fill="#3C83F6" stroke="#3C83F6" stroke-width="0.3"/>
<path d="M21.4999 5.42173C22.9971 5.42173 24.2108 4.20804 24.2108 2.71087C24.2108 1.2137 22.9971 0 21.4999 0C20.0028 0 18.7891 1.2137 18.7891 2.71087C18.7891 4.20804 20.0028 5.42173 21.4999 5.42173Z" fill="#3C83F6" stroke="#3C83F6" stroke-width="0.3"/>
<path d="M38.7944 17.1091C39.2618 16.9222 39.7292 16.8287 40.29 16.8287H40.6639C38.9813 9.72435 33.2792 4.02218 26.0813 2.24609V2.62001C26.0813 3.0874 25.9879 3.64827 25.8009 4.11566C32.1574 5.79826 37.2053 10.8461 38.7944 17.1091ZM4.20745 17.1091C5.79658 10.8461 10.8444 5.79826 17.1074 4.20914C16.9205 3.74174 16.827 3.27435 16.827 2.71348V2.33957C9.72267 4.11566 4.11398 9.72435 2.33789 16.9222H2.7118C3.27267 16.9222 3.74006 17.0156 4.20745 17.1091ZM4.20745 25.8961C3.74006 26.083 3.27267 26.1765 2.7118 26.1765H2.33789C4.0205 33.3743 9.72267 38.983 16.9205 40.7591V40.3852C16.9205 39.9178 17.014 39.3569 17.2009 38.8895C10.8444 37.2069 5.79658 32.1591 4.20745 25.8961ZM38.7944 25.8961C37.2053 32.1591 32.1574 37.2069 25.8944 38.7961C26.0813 39.2634 26.1748 39.7308 26.1748 40.2917V40.6656C33.3726 38.8895 38.9813 33.2808 40.7574 26.083H40.3835C39.7292 26.083 39.2618 26.083 38.7944 25.8961Z" fill="#3C83F6" stroke="#3C83F6" stroke-width="0.3"/>
<path d="M35.7084 21.5017C35.7084 18.7908 34.9606 16.2669 33.6519 14.1169C33.278 14.6777 32.8106 15.0517 32.2497 15.4256C33.3714 17.2951 33.9323 19.3517 33.9323 21.5951C33.9323 28.419 28.4171 33.9342 21.5932 33.9342C20.191 33.9342 18.7888 33.6538 17.4801 33.1864C17.2932 33.8408 17.0127 34.4016 16.5454 34.869C18.1345 35.5234 19.8171 35.8038 21.5932 35.8038C29.3519 35.7103 35.7084 29.3538 35.7084 21.5017ZM26.3606 10.1908C26.641 9.62992 27.0149 9.06905 27.4823 8.60166C25.6127 7.76036 23.6497 7.29297 21.5932 7.29297C13.6475 7.29297 7.29102 13.6495 7.29102 21.5017C7.29102 24.493 8.2258 27.2973 9.9084 29.7277C10.2823 29.1669 10.7497 28.793 11.3106 28.419C9.9084 26.3625 9.16058 23.9321 9.16058 21.5017C9.16058 14.6777 14.6758 9.16253 21.4997 9.16253C23.1823 9.16253 24.7714 9.53644 26.3606 10.1908Z" fill="#3C83F6" stroke="#3C83F6" stroke-width="0.3"/>
<path d="M26.1746 21.4968C26.1746 18.8794 24.1181 16.8229 21.5007 16.8229C18.8833 16.8229 16.8268 18.8794 16.8268 21.4968C16.8268 24.1142 18.8833 26.1707 21.5007 26.1707C24.1181 26.1707 26.1746 24.1142 26.1746 21.4968ZM22.4355 14.2055V13.2707C22.4355 12.7099 22.0616 12.3359 21.5007 12.3359C20.9398 12.3359 20.5659 12.7099 20.5659 13.2707V14.2055C20.5659 14.7664 20.9398 15.1403 21.5007 15.1403C22.0616 15.1403 22.4355 14.7664 22.4355 14.2055ZM20.5659 28.7881V29.7229C20.5659 30.2837 20.9398 30.6577 21.5007 30.6577C22.0616 30.6577 22.4355 30.2837 22.4355 29.7229V28.7881C22.4355 28.2272 22.0616 27.8533 21.5007 27.8533C20.9398 27.8533 20.5659 28.2272 20.5659 28.7881ZM30.5681 21.4968C30.5681 20.9359 30.1942 20.562 29.6333 20.562H28.6985C28.1377 20.562 27.7637 20.9359 27.7637 21.4968C27.7637 22.0577 28.1377 22.4316 28.6985 22.4316H29.6333C30.1942 22.4316 30.5681 22.0577 30.5681 21.4968ZM14.2094 22.4316C14.7703 22.4316 15.1442 22.0577 15.1442 21.4968C15.1442 20.9359 14.7703 20.562 14.2094 20.562H13.2746C12.7138 20.562 12.3398 20.9359 12.3398 21.4968C12.3398 22.0577 12.7138 22.4316 13.2746 22.4316H14.2094ZM17.8551 16.1685C18.042 16.1685 18.1355 16.1685 18.3224 16.0751C18.7898 15.7946 18.8833 15.2338 18.6964 14.7664L18.229 14.0185C17.9485 13.5512 17.3877 13.4577 16.9203 13.6446C16.4529 13.9251 16.3594 14.4859 16.5464 14.9533L17.0138 15.7012C17.2007 15.9816 17.5746 16.1685 17.8551 16.1685ZM24.7724 28.9751C24.9594 29.2555 25.2398 29.4424 25.6137 29.4424C25.8007 29.4424 25.8942 29.4424 26.0811 29.349C26.5485 29.0685 26.642 28.5077 26.455 28.0403L25.9877 27.2924C25.7072 26.8251 25.1464 26.7316 24.679 26.9185C24.2116 27.199 24.1181 27.7598 24.305 28.2272L24.7724 28.9751ZM26.9224 18.3185C27.1094 18.599 27.3898 18.7859 27.7637 18.7859C27.9507 18.7859 28.0442 18.7859 28.2311 18.6925L28.979 18.2251C29.4463 17.9446 29.5398 17.3838 29.3529 16.9164C29.0724 16.449 28.5116 16.3555 28.0442 16.5425L27.2964 17.0098C26.829 17.2903 26.7355 17.8512 26.9224 18.3185ZM16.079 24.6751C15.7985 24.2077 15.2377 24.1142 14.7703 24.3011L14.0225 24.7685C13.5551 25.049 13.4616 25.6098 13.6485 26.0772C13.8355 26.3577 14.1159 26.5446 14.4898 26.5446C14.6768 26.5446 14.7703 26.5446 14.9572 26.4511L15.7051 25.9838C16.1724 25.7033 16.2659 25.1424 16.079 24.6751ZM15.7051 17.1033L14.9572 16.6359C14.4898 16.3555 13.929 16.5425 13.6485 17.0098C13.3681 17.4772 13.5551 18.0381 14.0225 18.3185L14.7703 18.7859C14.9572 18.8794 15.0507 18.8794 15.2377 18.8794C15.5181 18.8794 15.892 18.6925 16.079 18.412C16.2659 17.8512 16.1724 17.2903 15.7051 17.1033ZM28.2311 24.3011C27.7637 24.0207 27.2029 24.2077 26.9224 24.6751C26.642 25.1424 26.829 25.7033 27.2964 25.9838L28.0442 26.4511C28.2311 26.5446 28.3246 26.5446 28.5116 26.5446C28.792 26.5446 29.1659 26.3577 29.3529 26.0772C29.6333 25.6098 29.4463 25.049 28.979 24.7685L28.2311 24.3011ZM26.0811 13.6446C25.6137 13.3642 25.0529 13.5512 24.7724 14.0185L24.305 14.7664C24.0246 15.2338 24.2116 15.7946 24.679 16.0751C24.8659 16.1685 24.9594 16.1685 25.1464 16.1685C25.4268 16.1685 25.8007 15.9816 25.9877 15.7012L26.455 14.9533C26.642 14.4859 26.455 13.9251 26.0811 13.6446ZM16.9203 29.349C17.1072 29.4424 17.2007 29.4424 17.3877 29.4424C17.6681 29.4424 18.042 29.2555 18.229 28.9751L18.6964 28.2272C18.9768 27.7598 18.7898 27.199 18.3224 26.9185C17.8551 26.6381 17.2942 26.8251 17.0138 27.2924L16.6398 28.0403C16.3594 28.5077 16.5464 29.0685 16.9203 29.349Z" fill="#3C83F6" stroke="#3C83F6" stroke-width="0.3"/>
<path d="M30.1927 13.9284C31.4317 13.9284 32.4362 12.9239 32.4362 11.6849C32.4362 10.4458 31.4317 9.44141 30.1927 9.44141C28.9537 9.44141 27.9492 10.4458 27.9492 11.6849C27.9492 12.9239 28.9537 13.9284 30.1927 13.9284Z" fill="#3C83F6" stroke="#3C83F6" stroke-width="0.3"/>
<path d="M13.3685 34.3073C14.6075 34.3073 15.612 33.3028 15.612 32.0638C15.612 30.8247 14.6075 29.8203 13.3685 29.8203C12.1294 29.8203 11.125 30.8247 11.125 32.0638C11.125 33.3028 12.1294 34.3073 13.3685 34.3073Z" fill="#3C83F6" stroke="#3C83F6" stroke-width="0.3"/>
</g>
<defs>
<clipPath id="clip0_4476_392">
<rect width="43.27" height="43.27" fill="white"/>
</clipPath>
</defs>
</svg>
