<svg width="44" height="44" viewBox="0 0 44 44" fill="none" xmlns="http://www.w3.org/2000/svg">
<path d="M36.6354 23.0585V20.9415L40.001 17.6844C40.2187 17.4738 40.3597 17.1964 40.4015 16.8963C40.4433 16.5963 40.3835 16.2909 40.2317 16.0288L36.1604 8.97182C36.0088 8.71036 35.7743 8.50697 35.4941 8.39389C35.2138 8.2808 34.9039 8.2645 34.6133 8.34756L30.0941 9.6368C29.5146 9.24012 28.9068 8.88633 28.2756 8.57826L27.1357 4.03197C27.0614 3.73086 26.8862 3.46429 26.6392 3.27663C26.3923 3.08897 26.0886 2.99154 25.7786 3.00058H17.6359C17.3259 2.99154 17.0222 3.08897 16.7753 3.27663C16.5283 3.46429 16.3531 3.73086 16.2788 4.03197L15.1389 8.57826C14.5077 8.88633 13.8999 9.24012 13.3204 9.6368L8.84193 8.34756C8.55136 8.2645 8.24138 8.2808 7.96113 8.39389C7.68088 8.50697 7.44639 8.71036 7.29483 8.97182L3.22353 16.0288C3.07168 16.2909 3.01189 16.5963 3.0537 16.8963C3.09551 17.1964 3.23651 17.4738 3.45424 17.6844L6.77914 20.9415V23.0585L3.41352 26.3156C3.19579 26.5262 3.0548 26.8036 3.01299 27.1037C2.97118 27.4037 3.03096 27.7091 3.18282 27.9712L7.25412 35.0282C7.40568 35.2896 7.64016 35.493 7.92042 35.6061C8.20067 35.7192 8.51065 35.7355 8.80122 35.6524L13.3204 34.3632C13.8999 34.7599 14.5077 35.1137 15.1389 35.4217L16.2788 39.968C16.3531 40.2691 16.5283 40.5357 16.7753 40.7234C17.0222 40.911 17.3259 41.0085 17.6359 40.9994H25.7786C26.0886 41.0085 26.3923 40.911 26.6392 40.7234C26.8862 40.5357 27.0614 40.2691 27.1357 39.968L28.2756 35.4217C28.9068 35.1137 29.5146 34.7599 30.0941 34.3632L34.6133 35.6524C34.9039 35.7355 35.2138 35.7192 35.4941 35.6061C35.7743 35.493 36.0088 35.2896 36.1604 35.0282L40.2317 27.9712C40.3835 27.7091 40.4433 27.4037 40.4015 27.1037C40.3597 26.8036 40.2187 26.5262 40.001 26.3156L36.6354 23.0585ZM34.3419 32.7482L30.2706 31.5676C30.0703 31.5108 29.8596 31.5008 29.6549 31.5385C29.4502 31.5761 29.2569 31.6604 29.0899 31.7847C28.328 32.3554 27.504 32.838 26.6335 33.2232C26.4413 33.3041 26.2703 33.4282 26.1338 33.5859C25.9972 33.7436 25.8989 33.9306 25.8464 34.1325L24.72 38.2852H18.6945L17.6359 34.1325C17.5834 33.9306 17.4851 33.7436 17.3486 33.5859C17.2121 33.4282 17.0411 33.3041 16.8488 33.2232C15.9784 32.838 15.1543 32.3554 14.3925 31.7847C14.2255 31.6604 14.0322 31.5761 13.8275 31.5385C13.6227 31.5008 13.4121 31.5108 13.2118 31.5676L9.14049 32.7482L6.10059 27.537L9.18121 24.5513C9.33072 24.4073 9.44517 24.2308 9.51576 24.0355C9.58634 23.8402 9.61117 23.6313 9.58834 23.425C9.46167 22.4792 9.46167 21.5208 9.58834 20.575C9.61117 20.3687 9.58634 20.1598 9.51576 19.9645C9.44517 19.7692 9.33072 19.5927 9.18121 19.4486L6.10059 16.463L9.11335 11.2518L13.1847 12.4324C13.3849 12.4892 13.5956 12.4992 13.8003 12.4615C14.005 12.4239 14.1984 12.3396 14.3653 12.2153C15.1272 11.6446 15.9512 11.162 16.8217 10.7768C17.019 10.6993 17.1954 10.5767 17.3368 10.4188C17.4782 10.2609 17.5807 10.0721 17.6359 9.86751L18.6945 5.71478H24.72L25.7786 9.86751C25.8311 10.0694 25.9294 10.2564 26.0659 10.4141C26.2024 10.5718 26.3734 10.6959 26.5657 10.7768C27.4361 11.162 28.2602 11.6446 29.022 12.2153C29.189 12.3396 29.3823 12.4239 29.5871 12.4615C29.7918 12.4992 30.0024 12.4892 30.2027 12.4324L34.274 11.2518L37.2868 16.463L34.2062 19.4486C34.0566 19.5927 33.9422 19.7692 33.8716 19.9645C33.801 20.1598 33.7762 20.3687 33.799 20.575C33.9257 21.5208 33.9257 22.4792 33.799 23.425C33.7762 23.6313 33.801 23.8402 33.8716 24.0355C33.9422 24.2308 34.0566 24.4073 34.2062 24.5513L37.2868 27.537L34.3419 32.7482Z" fill="#3C83F6"/>
<path d="M23.0629 20.6426H20.3486C19.9887 20.6426 19.6435 20.4996 19.389 20.2451C19.1345 19.9906 18.9915 19.6454 18.9915 19.2855C18.9915 18.9256 19.1345 18.5804 19.389 18.3259C19.6435 18.0714 19.9887 17.9284 20.3486 17.9284H23.0629C23.302 17.9275 23.5371 17.9897 23.7445 18.1089C23.9518 18.228 24.124 18.3999 24.2435 18.607C24.3217 18.78 24.4354 18.9347 24.5771 19.0611C24.7189 19.1874 24.8856 19.2826 25.0664 19.3405C25.2472 19.3984 25.4382 19.4177 25.627 19.3972C25.8158 19.3766 25.9981 19.3167 26.1623 19.2213C26.3265 19.1258 26.4688 18.997 26.58 18.8431C26.6913 18.6892 26.769 18.5137 26.8081 18.3279C26.8473 18.1421 26.847 17.9501 26.8073 17.7644C26.7676 17.5787 26.6894 17.4034 26.5777 17.2499C26.2213 16.6325 25.7091 16.1196 25.0923 15.7624C24.4755 15.4052 23.7757 15.2161 23.0629 15.2142V13.8571C23.0629 13.4972 22.9199 13.152 22.6654 12.8975C22.4109 12.643 22.0657 12.5 21.7058 12.5C21.3458 12.5 21.0006 12.643 20.7461 12.8975C20.4916 13.152 20.3486 13.4972 20.3486 13.8571V15.2142C19.2689 15.2142 18.2333 15.6431 17.4698 16.4067C16.7063 17.1702 16.2773 18.2057 16.2773 19.2855C16.2773 20.3653 16.7063 21.4008 17.4698 22.1644C18.2333 22.9279 19.2689 23.3568 20.3486 23.3568H23.0629C23.4228 23.3568 23.768 23.4998 24.0225 23.7543C24.277 24.0088 24.42 24.354 24.42 24.7139C24.42 25.0738 24.277 25.419 24.0225 25.6735C23.768 25.928 23.4228 26.071 23.0629 26.071H20.3486C20.1095 26.072 19.8744 26.0097 19.667 25.8906C19.4597 25.7714 19.2875 25.5996 19.168 25.3925C19.0898 25.2194 18.9761 25.0647 18.8344 24.9384C18.6926 24.812 18.5259 24.7168 18.3451 24.6589C18.1643 24.601 17.9733 24.5817 17.7845 24.6022C17.5957 24.6228 17.4134 24.6827 17.2492 24.7781C17.085 24.8736 16.9427 25.0024 16.8315 25.1563C16.7202 25.3102 16.6425 25.4857 16.6034 25.6715C16.5642 25.8573 16.5645 26.0493 16.6042 26.235C16.6439 26.4207 16.7221 26.596 16.8338 26.7496C17.1902 27.3669 17.7024 27.8798 18.3192 28.237C18.936 28.5943 19.6358 28.7833 20.3486 28.7852V30.1423C20.3486 30.5022 20.4916 30.8474 20.7461 31.1019C21.0006 31.3564 21.3458 31.4994 21.7058 31.4994C22.0657 31.4994 22.4109 31.3564 22.6654 31.1019C22.9199 30.8474 23.0629 30.5022 23.0629 30.1423V28.7852C24.1426 28.7852 25.1782 28.3563 25.9417 27.5928C26.7052 26.8292 27.1342 25.7937 27.1342 24.7139C27.1342 23.6341 26.7052 22.5986 25.9417 21.8351C25.1782 21.0715 24.1426 20.6426 23.0629 20.6426Z" fill="#3C83F6"/>
</svg>
