<svg width="44" height="44" viewBox="0 0 44 44" fill="none" xmlns="http://www.w3.org/2000/svg">
<path d="M32.464 14.1852C31.913 12.9797 31.0546 11.9462 29.9594 11.1762C28.6973 10.2885 27.212 9.81939 25.6639 9.81939C24.7018 9.81939 23.7732 9.9972 22.8949 10.349C22.2132 9.31915 21.287 8.47429 20.199 7.88989C19.111 7.30548 17.8952 6.99974 16.6602 7C12.5378 7 9.18402 10.3538 9.18402 14.4762C9.18402 14.4986 9.18409 14.5211 9.1843 14.5437C7.79916 14.991 6.55583 15.8454 5.63868 16.9901C4.58198 18.3089 4 19.9678 4 21.661C4 25.7834 7.3538 29.1372 11.4761 29.1372H13.3717V29.2228C13.3717 29.8939 13.9176 30.4399 14.5887 30.4399C15.0227 30.4399 15.3813 30.68 15.5479 31.0822C15.7145 31.4843 15.6308 31.9077 15.3238 32.2147C14.8493 32.6892 14.8493 33.4613 15.3239 33.9359L16.4358 35.0477C16.6656 35.2776 16.9713 35.4043 17.2964 35.4043C17.6216 35.4043 17.9272 35.2777 18.1571 35.0478C18.4647 34.7402 18.8883 34.656 19.29 34.8225C19.6919 34.989 19.9318 35.3479 19.9318 35.7829C19.9318 36.454 20.4778 37 21.1489 37H22.7214C23.3925 37 23.9385 36.454 23.9385 35.7829C23.9385 35.3488 24.1786 34.9903 24.5808 34.8238C24.983 34.6569 25.4063 34.7408 25.7132 35.0477C25.9431 35.2776 26.2487 35.4043 26.5739 35.4043C26.899 35.4043 27.2047 35.2776 27.4345 35.0478L28.5465 33.9359C29.021 33.4614 29.021 32.6891 28.5465 32.2146C28.2396 31.9077 28.1558 31.4843 28.3224 31.0822C28.489 30.68 28.8476 30.4399 29.2816 30.4399C29.9527 30.4399 30.4987 29.8939 30.4987 29.2228V29.1372H32.3942C36.5165 29.1372 39.8703 25.7834 39.8703 21.661C39.8702 17.562 36.5541 14.223 32.464 14.1852ZM29.0973 29.0452C28.1719 29.1112 27.3891 29.6736 27.0277 30.5459C26.6664 31.4185 26.8221 32.3695 27.43 33.0707L26.5691 33.9315C25.868 33.3236 24.9168 33.1679 24.0444 33.5293C23.1719 33.8906 22.6097 34.6733 22.5437 35.5989H21.3264C21.2605 34.6724 20.6984 33.8893 19.8261 33.528C18.9539 33.1666 18.0026 33.3229 17.301 33.9315L16.4401 33.0707C17.0479 32.3695 17.2038 31.4185 16.8424 30.5459C16.481 29.6736 15.6983 29.1112 14.7728 29.0452V27.828C15.6983 27.762 16.481 27.1996 16.8424 26.3273C17.2038 25.4549 17.0479 24.5038 16.4401 23.8026L17.301 22.9417C18.002 23.5496 18.9532 23.7053 19.8256 23.3439C20.6981 22.9826 21.2604 22.1999 21.3264 21.2744H22.5437C22.6097 22.1999 23.172 22.9826 24.0444 23.3439C24.9167 23.7052 25.8679 23.5496 26.569 22.9417L27.4299 23.8025C26.8221 24.5038 26.6663 25.4548 27.0276 26.3273C27.389 27.1996 28.1717 27.762 29.0973 27.828L29.0973 29.0452ZM32.3941 27.736H30.4986V27.6503C30.4986 26.9792 29.9526 26.4333 29.2815 26.4333C28.8475 26.4333 28.4889 26.1932 28.3223 25.791C28.1557 25.3888 28.2395 24.9655 28.5463 24.6586C28.7763 24.4288 28.9028 24.1231 28.9028 23.7979C28.9028 23.4728 28.7763 23.167 28.5464 22.9373L27.4344 21.8254C27.2045 21.5955 26.8989 21.4689 26.5737 21.4689C26.2486 21.4689 25.943 21.5955 25.7131 21.8253C25.4062 22.1322 24.9829 22.216 24.5807 22.0494C24.1786 21.8828 23.9385 21.5243 23.9385 21.0903C23.9385 20.4192 23.3925 19.8732 22.7213 19.8732H21.1488C20.4778 19.8732 19.9317 20.4192 19.9317 21.0903C19.9317 21.5243 19.6916 21.8829 19.2895 22.0494C18.8872 22.2161 18.4639 22.1322 18.157 21.8253C17.9272 21.5955 17.6215 21.4689 17.2964 21.4689C16.9712 21.4689 16.6656 21.5955 16.4357 21.8253L15.3238 22.9373C15.0939 23.1671 14.9673 23.4728 14.9673 23.7979C14.9673 24.1231 15.0939 24.4287 15.3237 24.6585C15.6306 24.9655 15.7144 25.3888 15.5478 25.791C15.3813 26.1932 15.0227 26.4333 14.5887 26.4333C13.9176 26.4333 13.3716 26.9792 13.3716 27.6503V27.736H11.4761C8.12641 27.736 5.40118 25.0108 5.40118 21.661C5.40118 18.8309 7.32185 16.3999 10.0719 15.7493C10.2355 15.7106 10.3798 15.6143 10.4783 15.4781C10.5768 15.3418 10.6231 15.1747 10.6086 15.0071C10.5932 14.8305 10.5854 14.6534 10.5852 14.4761C10.5852 11.1264 13.3104 8.40111 16.6602 8.40111C18.8883 8.40111 20.9346 9.61832 22.0006 11.5777C22.0875 11.7377 22.2334 11.8574 22.4072 11.9117C22.581 11.966 22.769 11.9504 22.9316 11.8684C23.7837 11.4385 24.703 11.2205 25.6639 11.2205C28.1744 11.2205 30.4582 12.7977 31.347 15.1451C31.4554 15.4313 31.7374 15.6148 32.0424 15.5964C32.1595 15.5896 32.2768 15.5861 32.3941 15.586C35.7438 15.586 38.4691 18.3112 38.4691 21.661C38.4691 25.0108 35.7438 27.736 32.3941 27.736ZM21.9351 24.5291C19.7805 24.5291 18.0276 26.282 18.0276 28.4366C18.0276 30.5912 19.7805 32.3441 21.9351 32.3441C24.0897 32.3441 25.8427 30.5911 25.8427 28.4366C25.8427 26.2819 24.0898 24.5291 21.9351 24.5291ZM21.9351 30.9429C20.5531 30.9429 19.4288 29.8185 19.4288 28.4366C19.4288 27.0546 20.5531 25.9302 21.9351 25.9302C23.3171 25.9302 24.4415 27.0546 24.4415 28.4366C24.4415 29.8186 23.3172 30.9429 21.9351 30.9429Z" fill="#A856F7" stroke="#A856F7" stroke-width="0.6"/>
</svg>
