<svg width="44" height="44" viewBox="0 0 44 44" fill="none" xmlns="http://www.w3.org/2000/svg">
<g clip-path="url(#clip0_4412_549)">
<mask id="mask0_4412_549" style="mask-type:luminance" maskUnits="userSpaceOnUse" x="0" y="0" width="44" height="44">
<path d="M42.5703 42.5693V0.699219H0.700195V42.5693H42.5703Z" fill="white" stroke="white" stroke-width="1.4"/>
<mask id="path-2-inside-1_4412_549" fill="white">
<path d="M43.2698 43.2695V-0.000304146H0V43.2695H43.2698ZM0.845117 0.844813H42.4247V42.4244H0.845117V0.844813Z"/>
</mask>
<path d="M43.2698 43.2695V-0.000304146H0V43.2695H43.2698ZM0.845117 0.844813H42.4247V42.4244H0.845117V0.844813Z" fill="white"/>
<path d="M43.2698 43.2695H44.6698V44.6695H43.2698V43.2695ZM43.2698 -0.000304146V-1.4003H44.6698V-0.000304146H43.2698ZM0 -0.000304146H-1.4V-1.4003H0V-0.000304146ZM0 43.2695V44.6695H-1.4V43.2695H0ZM0.845117 0.844813H-0.554883V-0.555187H0.845117V0.844813ZM42.4247 0.844813V-0.555187H43.8247V0.844813H42.4247ZM42.4247 42.4244H43.8247V43.8244H42.4247V42.4244ZM0.845117 42.4244V43.8244H-0.554883V42.4244H0.845117ZM43.2698 43.2695H41.8698V-0.000304146H43.2698H44.6698V43.2695H43.2698ZM43.2698 -0.000304146V1.3997H0V-0.000304146V-1.4003H43.2698V-0.000304146ZM0 -0.000304146H1.4V43.2695H0H-1.4V-0.000304146H0ZM0 43.2695V41.8695H43.2698V43.2695V44.6695H0V43.2695ZM0.845117 0.844813V-0.555187H42.4247V0.844813V2.24481H0.845117V0.844813ZM42.4247 0.844813H43.8247V42.4244H42.4247H41.0247V0.844813H42.4247ZM42.4247 42.4244V43.8244H0.845117V42.4244V41.0244H42.4247V42.4244ZM0.845117 42.4244H-0.554883V0.844813H0.845117H2.24512V42.4244H0.845117Z" fill="white" mask="url(#path-2-inside-1_4412_549)"/>
</mask>
<g mask="url(#mask0_4412_549)">
<path d="M32.0747 22.9938C32.0747 23.2272 32.2638 23.4163 32.4972 23.4163H38.3172L21.6347 41.3823L4.95209 23.4163H10.7722C11.0055 23.4163 11.1947 23.2271 11.1947 22.9938V3.98442C11.1947 2.71742 12.2214 1.6913 13.4877 1.6913H29.7815C31.0479 1.6913 32.0747 2.71744 32.0747 3.98442V22.9938ZM32.9198 3.98442C32.9198 2.25057 31.5145 0.84618 29.7815 0.84618H13.4877C11.7547 0.84618 10.3496 2.25059 10.3496 3.98442V22.5712H3.9831C3.81503 22.5712 3.66296 22.6709 3.59578 22.8249C3.52861 22.979 3.5591 23.1582 3.67344 23.2813L21.325 42.2908L21.3404 42.3064C21.419 42.3828 21.5245 42.4258 21.6347 42.4258C21.7522 42.4258 21.8644 42.3769 21.9443 42.2908L39.5959 23.2813C39.7102 23.1582 39.7407 22.979 39.6735 22.8249C39.6064 22.6709 39.4543 22.5712 39.2862 22.5712H32.9198V3.98442Z" fill="#A856F7" stroke="#A856F7" stroke-width="1.4" stroke-miterlimit="10" stroke-linecap="round" stroke-linejoin="round"/>
<path d="M22.9926 22.0586L23.0698 22.0576C23.4555 22.0481 23.8365 21.9675 24.1934 21.8196C24.5741 21.6618 24.92 21.4306 25.2114 21.1391H25.2113C25.5028 20.8479 25.734 20.502 25.8917 20.1213C26.0495 19.7406 26.1307 19.3325 26.1307 18.9204L26.1298 18.8432C26.1204 18.4573 26.0397 18.0762 25.8918 17.7191C25.7341 17.3383 25.5027 16.9924 25.2112 16.7011L25.2113 16.701C24.9199 16.4096 24.574 16.1785 24.1933 16.0209C23.8126 15.8632 23.4045 15.7823 22.9925 15.7824V15.7823H20.277L20.2205 15.7815C19.9387 15.7746 19.6603 15.7156 19.3995 15.6076C19.1214 15.4923 18.8686 15.3233 18.6558 15.1104L18.6556 15.1102C18.4426 14.8974 18.2737 14.6447 18.1584 14.3665C18.0432 14.0884 17.9838 13.7902 17.9838 13.4892V13.489C17.9837 13.1878 18.043 12.8896 18.1583 12.6114C18.2663 12.3505 18.4216 12.112 18.6161 11.9078L18.6556 11.8674L18.6557 11.8673L18.696 11.828C18.9002 11.6336 19.1387 11.4784 19.3995 11.3704C19.6777 11.2553 19.9758 11.1961 20.2768 11.1961H24.3504C24.5837 11.1961 24.7729 11.0069 24.773 10.7736C24.773 10.5402 24.5838 10.351 24.3504 10.351H20.2769V10.3511C19.8649 10.351 19.4569 10.432 19.0762 10.5896C18.6955 10.7472 18.3495 10.9784 18.0581 11.2697V11.2698C17.7666 11.5612 17.5353 11.9071 17.3775 12.2879C17.2197 12.6688 17.1386 13.077 17.1387 13.4892C17.1387 13.9013 17.2199 14.3094 17.3777 14.6901C17.5355 15.0708 17.7667 15.4168 18.0582 15.7081C18.3495 15.9994 18.6954 16.2306 19.076 16.3883C19.4567 16.5461 19.8647 16.6273 20.2768 16.6274H22.9926L23.049 16.6281C23.3309 16.6349 23.6092 16.6937 23.8699 16.8017C24.148 16.9169 24.4008 17.0857 24.6137 17.2986L24.6138 17.2987L24.6532 17.3391C24.8477 17.5433 25.003 17.7818 25.1111 18.0426C25.2263 18.3208 25.2856 18.619 25.2856 18.9202V18.9204L25.2849 18.9768C25.278 19.2587 25.2191 19.537 25.111 19.7977C24.9957 20.0759 24.8268 20.3286 24.6138 20.5414L24.6136 20.5417C24.4007 20.7546 24.148 20.9236 23.8699 21.0388C23.6091 21.1469 23.3308 21.2058 23.0489 21.2128L22.9925 21.2135H18.919C18.6857 21.2135 18.4965 21.4027 18.4965 21.636C18.4965 21.8694 18.6857 22.0586 18.919 22.0586H22.9926Z" fill="#A856F7" stroke="#A856F7" stroke-width="1.4" stroke-miterlimit="10" stroke-linecap="round" stroke-linejoin="round"/>
<path d="M21.2129 8.05707V10.7728C21.2129 11.0061 21.4021 11.1953 21.6354 11.1953C21.8688 11.1953 22.058 11.0061 22.058 10.7728V8.05707C22.058 7.8237 21.8688 7.63451 21.6354 7.63451C21.4021 7.63451 21.2129 7.8237 21.2129 8.05707Z" fill="#A856F7" stroke="#A856F7" stroke-width="1.4" stroke-miterlimit="10" stroke-linecap="round" stroke-linejoin="round"/>
<path d="M21.2129 21.6352V24.3509C21.2129 24.5843 21.4021 24.7734 21.6354 24.7734C21.8688 24.7734 22.058 24.5843 22.058 24.3509V21.6352C22.058 21.4018 21.8688 21.2126 21.6354 21.2126C21.4021 21.2126 21.2129 21.4018 21.2129 21.6352Z" fill="#A856F7" stroke="#A856F7" stroke-width="1.4" stroke-miterlimit="10" stroke-linecap="round" stroke-linejoin="round"/>
</g>
</g>
<defs>
<clipPath id="clip0_4412_549">
<rect width="43.27" height="43.27" fill="white"/>
</clipPath>
</defs>
</svg>
