<svg width="44" height="44" viewBox="0 0 44 44" fill="none" xmlns="http://www.w3.org/2000/svg">
<path d="M21.4565 9.32609C16.4218 9.32609 12.3261 13.4218 12.3261 18.4565C12.3261 20.8441 13.3867 22.4975 14.4116 24.0968C14.7662 24.65 15.1329 25.2214 15.4616 25.8286C15.712 26.2912 16.0064 28.0762 16.1358 29.1954L16.2134 29.8696H26.7004L26.778 29.1962C26.9074 28.0762 27.2026 26.2912 27.4529 25.8286C27.7816 25.2214 28.1476 24.6492 28.5022 24.0968C29.5263 22.4975 30.587 20.8441 30.587 18.4565C30.587 13.4218 26.4912 9.32609 21.4565 9.32609ZM27.2201 23.2751C26.8511 23.8511 26.4691 24.4476 26.113 25.1042C25.7509 25.7738 25.4853 27.3861 25.3514 28.3478H17.5609C17.4277 27.3861 17.1622 25.7738 16.7992 25.1042C16.4439 24.4476 16.062 23.8518 15.6922 23.2751C14.703 21.7313 13.8478 20.3983 13.8478 18.4565C13.8478 14.2611 17.2611 10.8478 21.4565 10.8478C25.652 10.8478 29.0652 14.2611 29.0652 18.4565C29.0652 20.3983 28.2108 21.7313 27.2201 23.2751ZM16.8913 31.2528H26.0217V32.7746H16.8913V31.2528ZM16.8913 36.095H18.4275C18.5013 37.7073 19.8252 39 21.4565 39C23.0878 39 24.4125 37.7073 24.4855 36.095H26.0217V34.5733H16.8913V36.095ZM21.4565 37.4783C21.0781 37.4771 20.7137 37.3346 20.4348 37.0787C20.156 36.8228 19.9828 36.472 19.9492 36.095H22.9646C22.9308 36.472 22.7575 36.8229 22.4785 37.0788C22.1995 37.3346 21.8351 37.4771 21.4565 37.4783ZM32.1087 17.6957H35.913V19.2174H32.1087V17.6957ZM7 17.6957H10.8043V19.2174H7V17.6957ZM33.5992 10.5678L34.3601 11.8857L31.0655 13.7878L30.3047 12.47L33.5992 10.5678ZM9.31685 26.3422L8.55598 25.0243L11.8505 23.1222L12.6114 24.44L9.31685 26.3422ZM28.0236 5.55826L29.3414 6.31913L27.4392 9.61293L26.1214 8.85207L28.0236 5.55826ZM14.8879 5.55674L16.7901 8.8513L15.4723 9.61217L13.5701 6.31761L14.8879 5.55674ZM33.5939 26.3452L30.2993 24.443L31.0602 23.1252L34.3548 25.0274L33.5939 26.3452ZM9.31761 10.5686L12.6122 12.4708L11.8513 13.7886L8.55674 11.8864L9.31761 10.5686ZM20.6957 4H22.2174V7.80435H20.6957V4Z" fill="#3C83F6"/>
<path d="M21.4551 12.3711V13.8928C23.9728 13.8928 26.0203 15.9403 26.0203 18.4581H27.542C27.542 15.1019 24.8113 12.3711 21.4551 12.3711Z" fill="#3C83F6"/>
</svg>
