<svg width="44" height="44" viewBox="0 0 44 44" fill="none" xmlns="http://www.w3.org/2000/svg">
<path fill-rule="evenodd" clip-rule="evenodd" d="M28.2263 28.3993C28.2262 28.4748 28.1962 28.5473 28.1427 28.6007C28.0893 28.6541 28.0169 28.6842 27.9413 28.6842H24.5614V14.63C24.5615 14.5547 24.5915 14.4824 24.6447 14.4291C24.698 14.3758 24.7702 14.3457 24.8455 14.3455H27.9413C28.0168 14.3456 28.0891 14.3756 28.1425 14.429C28.1959 14.4823 28.226 14.5546 28.2263 14.63V28.3993ZM19.8049 28.6842V19.3589C19.8049 19.3215 19.8122 19.2845 19.8264 19.25C19.8407 19.2154 19.8616 19.184 19.888 19.1576C19.9144 19.1311 19.9457 19.1101 19.9802 19.0957C20.0147 19.0814 20.0517 19.074 20.0891 19.0739H23.4702V28.6842H19.8049ZM15.0485 28.3993V24.1433C15.0485 24.0677 15.0785 23.9953 15.1318 23.9419C15.1852 23.8884 15.2576 23.8584 15.3331 23.8583H18.7138V28.6842H15.3332C15.2577 28.6842 15.1853 28.6541 15.1319 28.6007C15.0785 28.5472 15.0485 28.4748 15.0485 28.3993ZM27.9413 13.2549H24.8455C24.0868 13.2549 23.4704 13.8714 23.4704 14.63V17.9824H20.0892C19.3309 17.9824 18.7141 18.6002 18.7141 19.3589V22.7673H15.3332C14.5744 22.7673 13.9575 23.3846 13.9575 24.1433V28.3993C13.9575 29.158 14.5744 29.7753 15.3332 29.7753H27.9413C28.7 29.7753 29.3177 29.158 29.3177 28.3993V14.63C29.3177 13.8714 28.7 13.2549 27.9413 13.2549ZM33.5952 33.5935C32.8671 34.3216 31.6823 34.3216 30.9539 33.5935C30.2262 32.8654 30.2262 31.6802 30.9539 30.9526C31.6824 30.2236 32.8671 30.2236 33.5952 30.9526C34.3232 31.6802 34.3232 32.8654 33.5952 33.5935ZM13.5915 33.6977C15.9718 35.2923 18.7722 36.1436 21.6372 36.1436C24.5022 36.1436 27.3026 35.2923 29.6829 33.6977C29.066 32.5738 29.2319 31.1312 30.1824 30.1807C31.1337 29.2298 32.5755 29.0634 33.6993 29.6803C34.7487 28.1059 35.4869 26.3262 35.8559 24.476C34.6252 24.1179 33.7225 22.9805 33.7225 21.6355C33.7225 20.2896 34.6252 19.1522 35.8559 18.7941C35.4869 16.9439 34.7487 15.1638 33.6993 13.5898C32.5606 14.2156 31.1229 14.0303 30.1824 13.0894C29.2319 12.1389 29.0651 10.6964 29.6829 9.57247C27.3026 7.97789 24.5022 7.12655 21.6372 7.12655C18.7722 7.12655 15.9718 7.97789 13.5915 9.57247C14.2093 10.6964 14.0429 12.1389 13.092 13.0894C12.1511 14.0301 10.7136 14.2155 9.57502 13.5898C8.52557 15.1638 7.78742 16.9439 7.41838 18.7941C8.64993 19.1522 9.55183 20.2896 9.55183 21.6355C9.55183 22.9804 8.64993 24.1179 7.41838 24.476C7.7875 26.3262 8.52565 28.1059 9.57502 29.6803C10.6989 29.0634 12.1415 29.2298 13.092 30.1807C14.0429 31.1312 14.2093 32.5738 13.5915 33.6977ZM9.67922 33.5935C8.95111 32.8654 8.95111 31.6802 9.67922 30.9526C10.4073 30.2241 11.592 30.2236 12.3201 30.9526C13.0482 31.6803 13.0482 32.8654 12.3201 33.5935C11.5921 34.3216 10.4073 34.3216 9.67922 33.5935ZM4.72585 21.6355C4.72585 20.6054 5.56379 19.7673 6.59351 19.7673C7.62281 19.7673 8.46074 20.6053 8.46074 21.6355C8.46074 22.6648 7.62281 23.5027 6.59351 23.5027C5.56379 23.5028 4.72585 22.6648 4.72585 21.6355ZM9.67922 9.67667C10.4079 8.94795 11.5915 8.94847 12.3201 9.67667C13.0482 10.4048 13.0482 11.5894 12.3201 12.318C11.592 13.0465 10.4073 13.0465 9.67922 12.318C8.9512 11.5895 8.9512 10.4048 9.67922 9.67667ZM32.2752 9.1303C32.5203 9.13001 32.7631 9.17812 32.9896 9.27188C33.2162 9.36564 33.4219 9.5032 33.5952 9.67667C34.3233 10.4048 34.3233 11.5894 33.5952 12.318C32.8671 13.0461 31.6823 13.0461 30.9539 12.318C30.2262 11.5894 30.2262 10.4047 30.9539 9.67667C31.1273 9.50313 31.3333 9.36553 31.5601 9.27177C31.7868 9.17802 32.0298 9.12994 32.2752 9.1303ZM38.5485 21.6355C38.5485 22.6648 37.7106 23.5027 36.6809 23.5027C35.6516 23.5027 34.8137 22.6648 34.8137 21.6355C34.8137 20.6054 35.6516 19.7673 36.6809 19.7673C37.7106 19.7673 38.5485 20.6054 38.5485 21.6355ZM39.6395 21.6355C39.6395 20.0935 38.4548 18.8248 36.9483 18.689C36.5517 16.6243 35.7285 14.6376 34.5456 12.8925C35.5162 11.7318 35.4571 9.99542 34.367 8.90572C33.2769 7.81558 31.5405 7.75561 30.3794 8.72665C25.1092 5.14841 18.1651 5.14841 12.8949 8.72665C11.7338 7.75561 9.99754 7.81558 8.90732 8.90572C7.81719 9.99542 7.75808 11.7318 8.72826 12.8925C7.54569 14.6376 6.72221 16.6243 6.326 18.689C4.81949 18.8248 3.63477 20.0936 3.63477 21.6355C3.63477 23.1766 4.81949 24.4454 6.326 24.5811C6.72221 26.6454 7.54578 28.6327 8.72826 30.3778C7.75808 31.5389 7.81719 33.2747 8.90732 34.3644C9.99365 35.4509 11.7298 35.519 12.8949 34.5435C18.1651 38.1217 25.1093 38.1217 30.3794 34.5435C31.5465 35.5192 33.2803 35.4508 34.367 34.3644C35.4571 33.2747 35.5162 31.5388 34.5456 30.3778C35.7286 28.6327 36.5517 26.6454 36.9483 24.5811C38.4548 24.4454 39.6395 23.1766 39.6395 21.6355Z" fill="#A856F7" stroke="#A856F7" stroke-width="0.8"/>
</svg>
