<svg width="44" height="44" viewBox="0 0 44 44" fill="none" xmlns="http://www.w3.org/2000/svg">
<path d="M29.611 7.56592C26.6643 4.61919 22.7521 3 18.5885 3C14.4248 3 10.5126 4.61919 7.56591 7.56592C4.61919 10.5126 3 14.4248 3 18.5885C3 22.7521 4.61919 26.6643 7.56591 29.611C10.5126 32.5578 14.4248 34.1769 18.5885 34.1769C21.5553 34.1769 24.3814 33.3422 26.8252 31.8035L34.5893 39.5575C34.8809 39.8491 35.2732 40 35.6553 40C36.0375 40 36.4297 39.8491 36.7214 39.5575L39.5675 36.7113C40.1609 36.118 40.1609 35.1625 39.5675 34.5792L31.8135 26.8152C33.3523 24.3612 34.187 21.5352 34.187 18.5784C34.1769 14.4248 32.5578 10.5126 29.611 7.56592ZM18.5885 31.1598C15.2294 31.1598 12.0715 29.8524 9.69802 27.4789C7.32454 25.1055 6.01712 21.9475 6.01712 18.5885C6.01712 15.2294 7.32454 12.0715 9.69802 9.69802C12.0715 7.32455 15.2294 6.01712 18.5885 6.01712C21.9475 6.01712 25.1055 7.32455 27.4789 9.69802C29.8524 12.0715 31.1598 15.2294 31.1598 18.5885C31.1598 21.9475 29.8524 25.1055 27.4789 27.4789C25.1055 29.8524 21.9475 31.1598 18.5885 31.1598ZM36.3694 35.6553L35.6553 36.3694L29.2389 29.953C29.3596 29.8424 29.4903 29.7317 29.611 29.611C29.7317 29.4904 29.8323 29.3596 29.953 29.2389L36.3694 35.6553Z" fill="#3C83F6"/>
<path d="M27.6403 17.0813H26.4335L24.8746 14.738C24.5628 14.2653 24.0097 14.0139 23.4465 14.0742C22.8833 14.1346 22.4006 14.5168 22.2095 15.0397L20.6305 19.2637L18.0056 12.0427C17.7844 11.4393 17.2011 11.037 16.5675 11.0471C15.9238 11.0571 15.3606 11.4695 15.1595 12.0829L13.1179 18.2077L12.8162 17.7551C12.5346 17.3327 12.0619 17.0813 11.559 17.0813H9.54762C8.71289 17.0813 8.03906 17.7551 8.03906 18.5899C8.03906 19.4246 8.71289 20.0984 9.54762 20.0984H10.7545L12.3133 22.4417C12.6351 22.9245 13.1883 23.1759 13.7716 23.0954C14.0505 23.0575 14.3132 22.9422 14.5301 22.7627C14.7469 22.5832 14.9092 22.3466 14.9986 22.0797L16.6479 17.1316L19.1924 24.1213C19.4036 24.7146 19.9668 25.1069 20.6004 25.1169H20.6104C21.244 25.1169 21.7971 24.7247 22.0184 24.1414L23.9996 18.8514L24.3818 19.4145C24.6634 19.8369 25.1361 20.0884 25.639 20.0884H27.6504C28.4851 20.0884 29.1589 19.4145 29.1589 18.5798C29.1589 17.7451 28.4751 17.0813 27.6403 17.0813Z" fill="#3C83F6"/>
</svg>
