<svg width="44" height="44" viewBox="0 0 44 44" fill="none" xmlns="http://www.w3.org/2000/svg">
<path d="M15.5453 32.6376C15.5453 30.8804 14.1209 29.4553 12.3639 29.4551C10.6066 29.4551 9.18149 30.8802 9.18149 32.6376C9.1817 34.3948 10.6067 35.8192 12.3639 35.8192C14.1208 35.819 15.5451 34.3946 15.5453 32.6376ZM18.7268 32.6376C18.7266 36.152 15.8781 39.0007 12.3639 39.0009C8.84944 39.0009 6.0002 36.1521 6 32.6376C6 29.1229 8.84931 26.2734 12.3639 26.2734C15.8782 26.2736 18.7268 29.123 18.7268 32.6376Z" fill="#3C83F6"/>
<path d="M34.636 27.0696C34.636 26.0147 34.2169 25.0027 33.471 24.2568C32.7718 23.5578 31.8393 23.1457 30.8565 23.0969L30.6592 23.0917H13.1592C11.2605 23.0917 9.43917 22.3377 8.09658 20.995C6.83806 19.7364 6.09647 18.0574 6.00862 16.2881L6 15.933C6 14.0342 6.75399 12.2128 8.09658 10.8701C9.43917 9.52747 11.2605 8.77344 13.1592 8.77344H26.6814L26.8443 8.78119C27.6465 8.86265 28.2722 9.54049 28.2722 10.3643C28.2722 11.188 27.6465 11.8659 26.8443 11.9473L26.6814 11.9551H13.1592C12.1044 11.9551 11.0924 12.3743 10.3465 13.1202C9.60067 13.8661 9.1815 14.8781 9.1815 15.933L9.18667 16.1304C9.23553 17.1132 9.64746 18.0458 10.3465 18.745C11.0924 19.4909 12.1044 19.9101 13.1592 19.9101H30.6592L31.0142 19.9187C32.7834 20.0065 34.4624 20.7482 35.721 22.0067C37.0635 23.3494 37.8184 25.1708 37.8184 27.0696C37.8184 28.9684 37.0635 30.789 35.721 32.1317C34.4623 33.3903 32.7836 34.1327 31.0142 34.2206L30.6592 34.2292H17.1361C16.2576 34.2291 15.5455 33.5169 15.5453 32.6384C15.5453 31.7597 16.2575 31.0467 17.1361 31.0467H30.6592L30.8565 31.0424C31.8393 30.9935 32.7718 30.5815 33.471 29.8824C34.2169 29.1365 34.636 28.1245 34.636 27.0696Z" fill="#3C83F6"/>
<path d="M34.6352 10.3642C34.6352 8.60693 33.2108 7.18185 31.4537 7.18165C29.6964 7.18165 28.2713 8.6068 28.2713 10.3642C28.2715 12.1213 29.6966 13.5458 31.4537 13.5458C33.2107 13.5456 34.635 12.1212 34.6352 10.3642ZM37.8167 10.3642C37.8165 13.8786 34.9679 16.7272 31.4537 16.7275C27.9393 16.7275 25.09 13.8787 25.0898 10.3642C25.0898 6.84945 27.9392 4 31.4537 4C34.9681 4.0002 37.8167 6.84958 37.8167 10.3642Z" fill="#3C83F6"/>
</svg>
