<svg width="44" height="44" viewBox="0 0 44 44" fill="none" xmlns="http://www.w3.org/2000/svg">
<path d="M32.0979 20.3265V19.2279C32.0979 19.0591 31.9655 18.921 31.7978 18.9125L31.7814 18.9121H27.9143C27.7399 18.9121 27.5985 19.0534 27.5985 19.2279V27.4386C27.5985 30.7879 24.8588 33.5083 21.502 33.4755V33.4754C18.1709 33.4432 15.5249 30.6821 15.5248 27.3682V19.2279C15.5248 19.0588 15.3921 18.921 15.2252 18.9125L15.209 18.9121H11.3419C11.1665 18.9121 11.0254 19.0536 11.0254 19.2279V25.8322L11.0247 25.8586C11.011 26.1294 10.787 26.3449 10.5127 26.3449C10.2384 26.3449 10.0144 26.1294 10.0007 25.8586L10 25.8322V19.2279C10 18.4862 10.6013 17.8867 11.3419 17.8867H15.209L15.2436 17.8872C15.9678 17.9055 16.5502 18.4981 16.5502 19.2279V27.3682C16.5502 30.137 18.7604 32.4235 21.5119 32.4501H21.512L21.5772 32.4503C24.3333 32.4421 26.5731 30.1967 26.5731 27.4386V19.2279C26.5731 18.4865 27.1741 17.8867 27.9143 17.8867H31.7814L31.8161 17.8872C32.5407 17.9055 33.1233 18.4978 33.1233 19.2279V20.3265C33.1233 20.6096 32.8938 20.8392 32.6106 20.8392C32.3275 20.8392 32.0979 20.6096 32.0979 20.3265Z" fill="#3C83F6" stroke="#3C83F6" stroke-width="0.3" stroke-miterlimit="10" stroke-linecap="round" stroke-linejoin="round"/>
<path d="M32.0977 27.4393V24.7758H27.0858C26.8026 24.7758 26.5731 24.5462 26.5731 24.2631C26.5731 23.9799 26.8026 23.7504 27.0858 23.7504H32.0977V22.7197C32.0977 22.4366 32.3272 22.207 32.6104 22.207C32.8935 22.207 33.123 22.4366 33.123 22.7197V27.4393C33.123 30.6316 31.8285 33.5229 29.7368 35.6147C27.645 37.7064 24.7537 39.0009 21.5614 39.0009C15.5002 39.0009 10.5279 34.3371 10.0397 28.4011L10.029 28.2606L10.0278 28.2342C10.0226 27.963 10.231 27.7325 10.5046 27.7133C10.7782 27.6941 11.0167 27.8933 11.0494 28.1626L11.0519 28.1889L11.0616 28.3169C11.5065 33.7254 16.038 37.9755 21.5614 37.9755C24.4709 37.9755 27.1044 36.7968 29.0117 34.8895C30.9189 32.9823 32.0977 30.3487 32.0977 27.4393ZM16.0371 23.7504L16.0634 23.7511C16.3343 23.7648 16.5498 23.9888 16.5498 24.2631C16.5498 24.5374 16.3343 24.7614 16.0634 24.7751L16.0371 24.7758H10.5127C10.2295 24.7758 10 24.5462 10 24.2631C10 23.9799 10.2295 23.7504 10.5127 23.7504H16.0371Z" fill="#3C83F6" stroke="#3C83F6" stroke-width="0.3" stroke-miterlimit="10" stroke-linecap="round" stroke-linejoin="round"/>
<path d="M29.8882 6.72244C29.8882 5.7852 29.1284 5.0254 28.1912 5.02539C27.2539 5.02539 26.4941 5.78519 26.4941 6.72244C26.4942 7.65967 27.2539 8.41948 28.1912 8.41948C29.1284 8.41947 29.8882 7.65967 29.8882 6.72244ZM30.9136 6.72244C30.9136 8.22598 29.6947 9.44486 28.1912 9.44487C26.6876 9.44487 25.4688 8.22598 25.4688 6.72244C25.4688 5.21888 26.6876 4 28.1912 4C29.6947 4.00001 30.9136 5.21889 30.9136 6.72244Z" fill="#3C83F6" stroke="#3C83F6" stroke-width="0.3" stroke-miterlimit="10" stroke-linecap="round" stroke-linejoin="round"/>
<path d="M31.8223 11.1418C31.8223 10.2048 31.0623 9.44487 30.1253 9.44487H26.2572C25.8722 9.44409 25.4985 9.57521 25.1985 9.81644L25.1775 9.83247C24.9578 9.99151 24.6495 9.95193 24.4776 9.73814C24.3002 9.51746 24.3353 9.1947 24.556 9.01729L24.6016 8.98144C25.0761 8.61642 25.6586 8.41849 26.2583 8.41948H30.1253C31.6286 8.41948 32.8477 9.63847 32.8477 11.1418V13.0754C32.8477 13.3586 32.6182 13.5881 32.335 13.5881H25.7058C25.4227 13.5881 25.1931 13.3586 25.1931 13.0754C25.1931 12.7923 25.4227 12.5627 25.7058 12.5627H31.8223V11.1418ZM16.6304 6.72244C16.6304 5.78517 15.8706 5.0254 14.9334 5.02539C13.9961 5.02539 13.2363 5.78517 13.2363 6.72244C13.2363 7.6597 13.9961 8.41948 14.9334 8.41948C15.8706 8.41947 16.6304 7.65969 16.6304 6.72244ZM17.6558 6.72244C17.6558 8.226 16.4369 9.44486 14.9334 9.44487C13.4298 9.44487 12.2109 8.22601 12.2109 6.72244C12.2109 5.21886 13.4298 4 14.9334 4C16.4369 4.00001 17.6558 5.21886 17.6558 6.72244Z" fill="#3C83F6" stroke="#3C83F6" stroke-width="0.3" stroke-miterlimit="10" stroke-linecap="round" stroke-linejoin="round"/>
<path d="M10.2773 11.1443C10.2773 9.64093 11.4965 8.42188 12.9998 8.42188H16.8668V8.42194C17.4858 8.42092 18.0866 8.63186 18.5691 9.01975C18.7898 9.19717 18.8249 9.51985 18.6475 9.74054C18.47 9.96122 18.1473 9.99632 17.9266 9.81891C17.6359 9.5852 17.2761 9.45481 16.9039 9.4476L16.8678 9.44727H12.9998C12.0628 9.44727 11.3027 10.2073 11.3027 11.1443V12.5652H17.4192L17.4456 12.5658C17.7165 12.5796 17.9319 12.8036 17.9319 13.0779C17.9319 13.3522 17.7165 13.5762 17.4456 13.5899L17.4192 13.5906H10.79C10.5069 13.5906 10.2774 13.361 10.2773 13.0779V11.1443Z" fill="#3C83F6" stroke="#3C83F6" stroke-width="0.3" stroke-miterlimit="10" stroke-linecap="round" stroke-linejoin="round"/>
<path d="M23.2593 6.72244C23.2593 5.7852 22.4995 5.0254 21.5623 5.02539C20.625 5.02539 19.8652 5.78519 19.8652 6.72244C19.8652 7.65967 20.625 8.41948 21.5623 8.41948C22.4995 8.41947 23.2593 7.65967 23.2593 6.72244ZM24.2847 6.72244C24.2847 8.22598 23.0658 9.44486 21.5623 9.44487C20.0587 9.44487 18.8399 8.22598 18.8398 6.72244C18.8398 5.21888 20.0587 4 21.5623 4C23.0658 4.00001 24.2847 5.21889 24.2847 6.72244Z" fill="#3C83F6" stroke="#3C83F6" stroke-width="0.3" stroke-miterlimit="10" stroke-linecap="round" stroke-linejoin="round"/>
<path d="M18.8398 21.6406V18.7403C18.8398 18.4572 19.0694 18.2276 19.3525 18.2276C19.6357 18.2276 19.8652 18.4572 19.8652 18.7403V21.6406C19.8652 21.9237 19.6357 22.1533 19.3525 22.1533C19.0694 22.1533 18.8398 21.9237 18.8398 21.6406ZM21.0496 21.6406V16.6687C21.0496 16.3855 21.2791 16.156 21.5622 16.156C21.8454 16.156 22.0749 16.3856 22.0749 16.6687V21.6406C22.0749 21.9237 21.8454 22.1533 21.5622 22.1533C21.2791 22.1533 21.0496 21.9237 21.0496 21.6406ZM23.2592 21.6406V18.7403C23.2592 18.4572 23.4888 18.2276 23.7719 18.2276C24.0551 18.2276 24.2846 18.4572 24.2846 18.7403V21.6406C24.2846 21.9237 24.0551 22.1533 23.7719 22.1533C23.4888 22.1533 23.2592 21.9237 23.2592 21.6406ZM25.1928 11.1446C25.1928 10.2069 24.4332 9.44727 23.4954 9.44727H19.629C18.6913 9.44727 17.9316 10.2069 17.9316 11.1446V13.946H20.4103L20.4367 13.9467C20.7076 13.9604 20.923 14.1844 20.923 14.4587C20.923 14.733 20.7076 14.957 20.4367 14.9707L20.4103 14.9714H17.4189C17.1358 14.9714 16.9062 14.7418 16.9062 14.4587V11.1446C16.9062 9.64059 18.125 8.42188 19.629 8.42188H23.4954C24.9995 8.42188 26.2182 9.64059 26.2182 11.1446V14.4587C26.2182 14.7418 25.9886 14.9714 25.7055 14.9714H22.8029C22.5198 14.9714 22.2902 14.7418 22.2902 14.4587C22.2903 14.1755 22.5198 13.946 22.8029 13.946H25.1928V11.1446Z" fill="#3C83F6" stroke="#3C83F6" stroke-width="0.3" stroke-miterlimit="10" stroke-linecap="round" stroke-linejoin="round"/>
</svg>
