<svg width="44" height="44" viewBox="0 0 44 44" fill="none" xmlns="http://www.w3.org/2000/svg">
<path d="M12.3822 36.5385V34.8261C12.3822 32.0457 13.7508 29.311 16.1076 28.0842C15.3599 27.3537 14.4039 26.8939 13.3469 26.8939H7.98419C6.77677 26.8939 5.67457 27.4955 4.86892 28.4644C4.04391 29.4592 3.53042 30.8389 3.53042 32.3619V33.8657C3.519 34.1541 3.61467 34.4365 3.799 34.6585C5.5991 36.7705 8.0272 37.2883 10.6656 37.2883C11.2649 37.2918 11.864 37.2596 12.4595 37.1916C12.4074 36.9778 12.3814 36.7585 12.3822 36.5385ZM22.1063 1.99079L23.8208 5.33171L27.529 5.92895C27.625 5.94478 27.7147 5.98664 27.7884 6.04997C27.8622 6.11331 27.9171 6.19568 27.9473 6.2881C27.9774 6.38052 27.9816 6.47945 27.9594 6.57409C27.9371 6.66873 27.8893 6.75544 27.8212 6.82477L25.17 9.48901L25.748 13.2016C25.762 13.2972 25.7497 13.3948 25.7123 13.4839C25.6749 13.573 25.6138 13.6501 25.5357 13.707C25.4576 13.7638 25.3654 13.7983 25.2691 13.8065C25.1729 13.8148 25.0762 13.7965 24.9896 13.7538L21.6357 12.0565L18.2841 13.7538C18.1952 13.7988 18.0954 13.8178 17.9962 13.8086C17.897 13.7993 17.8025 13.7623 17.7234 13.7016C17.6444 13.641 17.5841 13.5593 17.5495 13.4658C17.5149 13.3724 17.5074 13.2711 17.5278 13.1736L18.1014 9.48892L15.4502 6.82486C15.3809 6.75472 15.3325 6.66663 15.3104 6.57049C15.2884 6.47434 15.2937 6.37396 15.3256 6.28065C15.3576 6.18733 15.4149 6.10477 15.4912 6.04226C15.5675 5.97976 15.6597 5.93978 15.7575 5.92684L19.4507 5.33171L21.1651 1.99079C21.2094 1.90418 21.2768 1.83149 21.3599 1.78074C21.4429 1.72998 21.5383 1.70312 21.6356 1.70312C21.7329 1.70312 21.8284 1.72998 21.9114 1.78074C21.9944 1.83149 22.0618 1.90418 22.1062 1.99079H22.1063ZM23.0021 6.05141L21.6357 3.38954L20.28 6.03222C20.2435 6.11128 20.1882 6.18022 20.119 6.23302C20.0498 6.28581 19.9687 6.32086 19.8828 6.33511L16.9284 6.80982L19.0382 8.93258C19.0969 8.99105 19.141 9.06262 19.1668 9.14141C19.1926 9.22021 19.1993 9.304 19.1865 9.3859L18.7266 12.3443L21.3972 10.993C21.4709 10.955 21.5525 10.935 21.6354 10.9346C21.7183 10.9342 21.8002 10.9535 21.8742 10.9908L24.5448 12.3443L24.0892 9.41176C24.0714 9.32626 24.0751 9.23764 24.1002 9.15396C24.1253 9.07029 24.1709 8.99422 24.2329 8.93267L26.343 6.80982L23.3889 6.33292C23.3067 6.32006 23.2288 6.28782 23.1615 6.23887C23.0943 6.18991 23.0397 6.12566 23.0022 6.05141H23.0021ZM10.6656 15.552C11.5899 15.5523 12.4935 15.8266 13.262 16.3402C14.0304 16.8539 14.6294 17.5839 14.983 18.438C15.3366 19.292 15.4291 20.2317 15.2487 21.1383C15.0683 22.0449 14.6232 22.8776 13.9695 23.5312C13.3159 24.1849 12.4832 24.63 11.5766 24.8104C10.67 24.9907 9.73026 24.8983 8.87623 24.5446C8.0222 24.191 7.2922 23.592 6.77853 22.8235C6.26486 22.0551 5.99059 21.1515 5.99039 20.2271C5.99024 19.6132 6.11107 19.0052 6.34597 18.4379C6.58087 17.8706 6.92524 17.3552 7.3594 16.921C7.79356 16.4868 8.30901 16.1425 8.8763 15.9076C9.44358 15.6727 10.0516 15.5519 10.6656 15.552ZM13.22 17.6726C12.7148 17.1674 12.0711 16.8233 11.3703 16.6839C10.6695 16.5445 9.94315 16.6161 9.28304 16.8895C8.62292 17.163 8.05871 17.626 7.66175 18.2201C7.2648 18.8142 7.05292 19.5126 7.05292 20.2271C7.05292 20.9417 7.2648 21.6401 7.66175 22.2342C8.05871 22.8283 8.62292 23.2913 9.28304 23.5648C9.94315 23.8382 10.6695 23.9098 11.3703 23.7704C12.0711 23.631 12.7148 23.2869 13.22 22.7817C13.5557 22.4463 13.8219 22.0481 14.0036 21.6098C14.1852 21.1714 14.2787 20.7016 14.2787 20.2271C14.2787 19.7527 14.1852 19.2829 14.0036 18.8445C13.8219 18.4062 13.5557 18.008 13.22 17.6726ZM32.608 15.552C33.5324 15.5522 34.4359 15.8265 35.2044 16.3402C35.9729 16.8539 36.5719 17.5839 36.9255 18.4379C37.2792 19.2919 37.3716 20.2317 37.1912 21.1383C37.0109 22.0448 36.5657 22.8776 35.9121 23.5312C35.2585 24.1848 34.4257 24.63 33.5191 24.8104C32.6125 24.9907 31.6728 24.8983 30.8188 24.5446C29.9648 24.191 29.2347 23.592 28.7211 22.8236C28.2074 22.0551 27.9331 21.1515 27.9329 20.2271C27.9328 19.6132 28.0536 19.0052 28.2885 18.4379C28.5234 17.8706 28.8678 17.3552 29.3019 16.921C29.7361 16.4869 30.2515 16.1425 30.8188 15.9076C31.386 15.6727 31.994 15.5519 32.608 15.552ZM35.1626 17.6726C34.6573 17.1671 34.0134 16.8228 33.3125 16.6833C32.6115 16.5438 31.8849 16.6152 31.2246 16.8887C30.5642 17.1621 29.9998 17.6253 29.6027 18.2195C29.2056 18.8138 28.9936 19.5124 28.9936 20.2271C28.9936 20.9419 29.2056 21.6405 29.6027 22.2348C29.9998 22.829 30.5642 23.2922 31.2246 23.5656C31.8849 23.8391 32.6115 23.9105 33.3125 23.771C34.0134 23.6315 34.6573 23.2872 35.1626 22.7817C35.8398 22.104 36.2202 21.1852 36.2202 20.2271C36.2202 19.2691 35.8398 18.3503 35.1626 17.6726ZM26.1046 27.6631C27.0843 26.548 28.4292 25.8347 29.9267 25.8347H35.2893C36.8234 25.8347 38.2113 26.5823 39.2147 27.7877C40.1944 28.9672 40.8024 30.5872 40.8024 32.3619V33.8657C40.811 34.4065 40.6241 34.9321 40.276 35.346C38.2562 37.718 35.5472 38.3497 32.608 38.3497C31.8346 38.3546 31.0618 38.3015 30.2963 38.1907C28.0125 40.8591 24.953 41.568 21.6357 41.568C18.3185 41.568 15.259 40.8591 12.9751 38.1907C12.2103 38.3015 11.4383 38.3546 10.6656 38.3497C7.72457 38.3497 5.01715 37.7158 2.99546 35.346C2.64732 34.9322 2.46038 34.4065 2.46904 33.8657V32.3619C2.46904 30.5871 3.07752 28.9672 4.05676 27.7877C5.06008 26.5823 6.44844 25.8347 7.98419 25.8347H13.3469C14.8422 25.8347 16.1893 26.548 17.1668 27.6631C17.6285 27.5345 18.1055 27.4695 18.5847 27.4697H24.6865C25.1658 27.4695 25.6428 27.5345 26.1045 27.6631H26.1046ZM30.8119 37.1916C32.5651 37.3979 34.763 37.3055 36.3658 36.762C37.5749 36.3597 38.6499 35.6321 39.4725 34.6589C39.6568 34.4368 39.7524 34.1544 39.741 33.8661V32.3619C39.741 30.8385 39.2297 29.4592 38.4025 28.4644C37.5968 27.4955 36.4946 26.8939 35.2893 26.8939H29.9267C28.8675 26.8939 27.9115 27.3537 27.1638 28.0842C29.5228 29.311 30.8914 32.046 30.8914 34.8261V36.5385C30.8915 36.7586 30.8647 36.9779 30.8119 37.1916ZM21.6357 15.2942C22.7673 15.2942 23.8735 15.6298 24.8144 16.2584C25.7553 16.8871 26.4886 17.7807 26.9216 18.8261C27.3547 19.8716 27.468 21.022 27.2472 22.1318C27.0265 23.2417 26.4815 24.2612 25.6814 25.0613C24.8812 25.8615 23.8618 26.4064 22.7519 26.6272C21.6421 26.8479 20.4917 26.7346 19.4462 26.3016C18.4007 25.8685 17.5072 25.1352 16.8785 24.1943C16.2498 23.2534 15.9143 22.1472 15.9143 21.0156C15.9142 20.2643 16.0621 19.5202 16.3496 18.826C16.6371 18.1318 17.0585 17.5011 17.5898 16.9698C18.1211 16.4385 18.7519 16.017 19.4461 15.7295C20.1403 15.442 20.8843 15.2941 21.6357 15.2942ZM24.9317 17.7197C24.2798 17.0679 23.4493 16.624 22.5452 16.4442C21.641 16.2644 20.7039 16.3567 19.8522 16.7095C19.0005 17.0623 18.2726 17.6597 17.7605 18.4262C17.2483 19.1927 16.975 20.0938 16.975 21.0156C16.975 21.9375 17.2483 22.8386 17.7605 23.6051C18.2726 24.3716 19.0005 24.969 19.8522 25.3218C20.7039 25.6746 21.641 25.7669 22.5452 25.5871C23.4493 25.4073 24.2798 24.9634 24.9317 24.3116C25.8057 23.4374 26.2967 22.2518 26.2967 21.0156C26.2967 19.7795 25.8057 18.5939 24.9317 17.7197ZM13.4414 34.8261V36.5385C13.4284 36.8836 13.544 37.2212 13.7658 37.486C15.8326 39.9095 18.6128 40.5071 21.6357 40.5071C24.6586 40.5071 27.4409 39.9098 29.5056 37.4863C29.7274 37.2216 29.843 36.8839 29.83 36.5388V34.8261C29.83 33.0751 29.2392 31.4874 28.2875 30.3423C27.3593 29.225 26.0831 28.531 24.6866 28.531H18.5848C17.1884 28.531 15.9143 29.225 14.984 30.3423C14.0322 31.4874 13.4414 33.0751 13.4414 34.8261Z" fill="#3C83F6" stroke="#3C83F6"/>
</svg>
