<svg width="43" height="41" viewBox="0 0 43 41" fill="none" xmlns="http://www.w3.org/2000/svg">
<path fill-rule="evenodd" clip-rule="evenodd" d="M0.59375 5.95688C0.59375 5.09122 1.17985 4.2192 2.3506 3.50033C4.55516 2.14674 8.99169 1.19141 14.1128 1.19141C19.234 1.19141 23.6705 2.14674 25.8751 3.50033C27.0458 4.2192 27.6318 5.09122 27.6318 5.95688V21.8469C28.0368 22.0998 28.4204 22.3854 28.7787 22.7008C29.5191 22.4793 30.288 22.367 31.0608 22.3677C35.0006 22.3677 38.2675 25.2366 38.8909 28.9991C41.1353 29.8063 42.6759 31.9549 42.6759 34.3726C42.6759 37.5119 40.1065 40.0816 36.9652 40.0816H16.8866C14.146 40.0816 11.8406 38.1257 11.2971 35.542C7.16273 35.2514 3.75356 34.3225 2.03651 33.1248C1.07091 32.4512 0.59375 31.6622 0.59375 30.8735V5.95688ZM26.2743 5.95688C26.2743 5.67121 26.0982 5.41261 25.8295 5.1557C25.4521 4.79495 24.8974 4.46635 24.2053 4.16584C21.9304 3.17809 18.256 2.5489 14.1128 2.5489C9.96976 2.5489 6.29538 3.17809 4.02031 4.16584C3.32816 4.46635 2.77354 4.79495 2.39616 5.1557C2.12746 5.41261 1.95124 5.67121 1.95124 5.95688C1.95133 6.24246 2.12746 6.50114 2.39616 6.75797C2.77354 7.1188 3.32824 7.4474 4.02031 7.74791C6.29538 8.73574 9.96976 9.36494 14.1128 9.36494C18.256 9.36494 21.9304 8.73574 24.2053 7.74791C24.8974 7.4474 25.4521 7.1188 25.8294 6.75797C26.0982 6.50106 26.2743 6.24254 26.2743 5.95688ZM26.2743 14.2624V8.146C26.1449 8.24052 26.0117 8.32971 25.8751 8.41334C23.6705 9.76701 19.234 10.7224 14.1128 10.7224C8.99169 10.7224 4.55516 9.76701 2.3506 8.41334C2.21392 8.32966 2.08069 8.24047 1.95124 8.146V14.2624C1.95124 14.5481 2.12746 14.8067 2.39616 15.0636C2.77354 15.4244 3.32816 15.7529 4.02031 16.0535C6.29538 17.0413 9.96976 17.6704 14.1128 17.6704C18.256 17.6704 21.9304 17.0413 24.2053 16.0535C24.8974 15.7529 25.4521 15.4244 25.8295 15.0636C26.0982 14.8067 26.2743 14.5481 26.2743 14.2624ZM26.2743 21.1564V16.4515C26.1449 16.5461 26.0117 16.6353 25.8751 16.719C23.6705 18.0726 19.234 19.0279 14.1128 19.0279C8.99169 19.0279 4.55516 18.0726 2.3506 16.719C2.2139 16.6353 2.08067 16.5461 1.95124 16.4515V22.5679C1.95124 22.8536 2.12746 23.1122 2.39616 23.3692C2.77354 23.73 3.32824 24.0586 4.02031 24.359C6.29538 25.3468 9.96976 25.976 14.1128 25.976C14.3908 25.976 14.6666 25.9732 14.94 25.9676C16.2364 22.778 19.3656 20.5289 23.0205 20.5289C24.1704 20.5289 25.2687 20.7517 26.2743 21.1564ZM11.1793 34.1726C11.2535 32.0445 12.5068 30.2029 14.3015 29.2841V29.2497C14.3015 28.5907 14.3746 27.9488 14.513 27.3316C14.3802 27.3329 14.2467 27.3335 14.1128 27.3335C8.99169 27.3335 4.55516 26.3782 2.3506 25.0245C2.2139 24.9408 2.08067 24.8516 1.95124 24.7571V30.8735C1.95124 31.1198 2.08589 31.347 2.2946 31.5718C2.59011 31.8901 3.02705 32.1831 3.57463 32.457C5.28269 33.3116 7.99428 33.932 11.1793 34.1726ZM4.70525 20.1309C5.29101 20.1309 5.76579 20.6056 5.76579 21.1913C5.76579 21.7771 5.29101 22.2519 4.70525 22.2519C4.11958 22.2519 3.64471 21.7771 3.64471 21.1913C3.64471 20.6056 4.11958 20.1309 4.70525 20.1309ZM4.70525 11.8293C5.29101 11.8293 5.76579 12.3042 5.76579 12.8899C5.76579 13.4756 5.29101 13.9504 4.70525 13.9504C4.11958 13.9504 3.64471 13.4756 3.64471 12.8899C3.64471 12.3042 4.11958 11.8293 4.70525 11.8293ZM36.9652 38.7241C39.3596 38.7241 41.3185 36.7655 41.3185 34.3726C41.3185 32.4121 39.9889 30.6846 38.0992 30.1718C37.9674 30.136 37.8495 30.0613 37.7608 29.9575C37.6721 29.8536 37.6168 29.7254 37.6022 29.5897C37.2456 26.2917 34.454 23.7252 31.0608 23.7252C30.3041 23.7243 29.5529 23.8542 28.8404 24.1091C28.7211 24.1518 28.5922 24.1603 28.4683 24.1335C28.3444 24.1068 28.2305 24.0459 28.1394 23.9577C26.8145 22.6751 25.0088 21.8864 23.0205 21.8864C18.9543 21.8864 15.659 25.1834 15.659 29.2497C15.659 29.3914 15.6621 29.5331 15.6703 29.6732C15.6785 29.8143 15.6424 29.9544 15.5671 30.074C15.4918 30.1937 15.3811 30.2868 15.2503 30.3405C13.6621 30.9921 12.5333 32.5564 12.5333 34.3726C12.5333 36.7655 14.4922 38.7241 16.8866 38.7241H36.9652ZM4.70525 28.4938C5.29101 28.4938 5.76579 28.9685 5.76579 29.5542C5.76579 30.14 5.29101 30.6148 4.70525 30.6148C4.11958 30.6148 3.64471 30.14 3.64471 29.5542C3.64471 28.9685 4.11958 28.4938 4.70525 28.4938Z" fill="#A856F7" stroke="#A856F7" stroke-width="0.6"/>
</svg>
