<svg width="44" height="44" viewBox="0 0 44 44" fill="none" xmlns="http://www.w3.org/2000/svg">
<g clip-path="url(#clip0_4412_519)">
<path d="M16.775 25.4375L16.7967 25.4369C17.02 25.4256 17.1976 25.241 17.1976 25.0149C17.1976 24.7889 17.02 24.6043 16.7967 24.593L16.775 24.5924H14.2396V18.6766H16.775L16.7967 18.6761C17.02 18.6648 17.1976 18.4801 17.1976 18.254C17.1975 18.0279 17.02 17.8433 16.7967 17.832L16.775 17.8314H13.8171C13.5837 17.8314 13.3945 18.0206 13.3945 18.254V25.0149L13.3951 25.0366C13.4064 25.2599 13.591 25.4375 13.8171 25.4375H16.775Z" fill="#3C83F6" stroke="#3C83F6" stroke-miterlimit="22.926" stroke-linecap="round" stroke-linejoin="round"/>
<path d="M15.8981 22.0586L15.9198 22.058C16.1431 22.0467 16.3207 21.8621 16.3207 21.636C16.3207 21.4099 16.1431 21.2254 15.9198 21.2141L15.8981 21.2135H14.2819C14.0486 21.2135 13.8594 21.4027 13.8594 21.636C13.8594 21.8694 14.0486 22.0586 14.2819 22.0586H15.8981Z" fill="#3C83F6" stroke="#3C83F6" stroke-miterlimit="22.926" stroke-linecap="round" stroke-linejoin="round"/>
<mask id="mask0_4412_519" style="mask-type:luminance" maskUnits="userSpaceOnUse" x="0" y="0" width="44" height="44">
<path d="M42.7695 42.7695V0.5H0.5V42.7695H42.7695Z" fill="white" stroke="white"/>
<mask id="path-4-inside-1_4412_519" fill="white">
<path d="M43.2698 43.2695V-0.000304146H0V43.2695H43.2698ZM0.845117 0.844813H42.4247V42.4244H0.845117V0.844813Z"/>
</mask>
<path d="M43.2698 43.2695V-0.000304146H0V43.2695H43.2698ZM0.845117 0.844813H42.4247V42.4244H0.845117V0.844813Z" fill="white"/>
<path d="M43.2698 43.2695H44.2698V44.2695H43.2698V43.2695ZM43.2698 -0.000304146V-1.0003H44.2698V-0.000304146H43.2698ZM0 -0.000304146H-1V-1.0003H0V-0.000304146ZM0 43.2695V44.2695H-1V43.2695H0ZM0.845117 0.844813H-0.154883V-0.155187H0.845117V0.844813ZM42.4247 0.844813V-0.155187H43.4247V0.844813H42.4247ZM42.4247 42.4244H43.4247V43.4244H42.4247V42.4244ZM0.845117 42.4244V43.4244H-0.154883V42.4244H0.845117ZM43.2698 43.2695H42.2698V-0.000304146H43.2698H44.2698V43.2695H43.2698ZM43.2698 -0.000304146V0.999696H0V-0.000304146V-1.0003H43.2698V-0.000304146ZM0 -0.000304146H1V43.2695H0H-1V-0.000304146H0ZM0 43.2695V42.2695H43.2698V43.2695V44.2695H0V43.2695ZM0.845117 0.844813V-0.155187H42.4247V0.844813V1.84481H0.845117V0.844813ZM42.4247 0.844813H43.4247V42.4244H42.4247H41.4247V0.844813H42.4247ZM42.4247 42.4244V43.4244H0.845117V42.4244V41.4244H42.4247V42.4244ZM0.845117 42.4244H-0.154883V0.844813H0.845117H1.84512V42.4244H0.845117Z" fill="white" mask="url(#path-4-inside-1_4412_519)"/>
</mask>
<g mask="url(#mask0_4412_519)">
<path d="M29.0289 19.9442C29.0289 20.6404 28.4575 21.2118 27.7612 21.2118H26.4936V18.6765H27.7612C28.4575 18.6765 29.0289 19.2479 29.0289 19.9442ZM29.874 19.9442C29.874 18.7812 28.9242 17.8314 27.7612 17.8314H26.071C25.8376 17.8314 25.6484 18.0206 25.6484 18.2539V25.0149C25.6484 25.2483 25.8376 25.4375 26.071 25.4375C26.3044 25.4375 26.4936 25.2483 26.4936 25.0149V22.0569H27.7612C28.9242 22.0569 29.874 21.1072 29.874 19.9442Z" fill="#3C83F6" stroke="#3C83F6" stroke-miterlimit="22.926" stroke-linecap="round" stroke-linejoin="round"/>
<path d="M22.6069 19.9442C22.6069 20.6404 22.0356 21.2118 21.3394 21.2118H20.0717V18.6765H21.3394C22.0356 18.6765 22.6069 19.2479 22.6069 19.9442ZM23.4521 19.9442C23.4521 18.7812 22.5024 17.8314 21.3394 17.8314H19.6491C19.4158 17.8314 19.2266 18.0206 19.2266 18.2539V25.0149C19.2266 25.2483 19.4157 25.4375 19.6491 25.4375C19.8825 25.4375 20.0717 25.2483 20.0717 25.0149V22.0569H21.3394C22.5024 22.0569 23.4521 21.1071 23.4521 19.9442Z" fill="#3C83F6" stroke="#3C83F6" stroke-miterlimit="22.926" stroke-linecap="round" stroke-linejoin="round"/>
<path d="M22.6611 25.223C22.771 25.4176 23.0156 25.4939 23.2178 25.3928C23.4266 25.2884 23.5111 25.0346 23.4068 24.8258L21.7167 21.4454L21.7065 21.4261C21.5965 21.2315 21.3519 21.1553 21.1497 21.2564C20.941 21.3607 20.8563 21.6145 20.9607 21.8233L22.6509 25.2038L22.6611 25.223Z" fill="#3C83F6" stroke="#3C83F6" stroke-miterlimit="22.926" stroke-linecap="round" stroke-linejoin="round"/>
<path d="M33.8886 21.6351C33.8886 28.4029 28.4023 33.8892 21.6345 33.8893C14.8667 33.8893 9.38027 28.4029 9.38027 21.6351C9.38028 19.574 9.88952 17.6332 10.7878 15.9296C10.8966 15.7232 10.8174 15.4676 10.611 15.3587C10.4046 15.2499 10.1489 15.329 10.0401 15.5354C9.07944 17.3575 8.53516 19.4332 8.53516 21.6351C8.53516 28.8696 14.4 34.7344 21.6345 34.7344C28.869 34.7344 34.7337 28.8696 34.7337 21.6351C34.7337 14.4006 28.869 8.53584 21.6345 8.53582C19.4328 8.53582 17.3573 9.08014 15.5354 10.0405L15.9294 10.7882C17.6331 9.89016 19.5737 9.38094 21.6345 9.38094C28.4023 9.38096 33.8886 14.8674 33.8886 21.6351ZM15.3586 10.6114C15.4674 10.8178 15.723 10.897 15.9294 10.7882L15.5354 10.0405C15.3289 10.1494 15.2498 10.405 15.3586 10.6114Z" fill="#3C83F6"/>
<path d="M15.5354 10.0405C17.3573 9.08014 19.4328 8.53582 21.6345 8.53582C28.869 8.53584 34.7337 14.4006 34.7337 21.6351C34.7337 28.8696 28.869 34.7344 21.6345 34.7344C14.4 34.7344 8.53516 28.8696 8.53516 21.6351C8.53516 19.4332 9.07944 17.3575 10.0401 15.5354C10.1489 15.329 10.4046 15.2499 10.611 15.3587C10.8174 15.4676 10.8966 15.7232 10.7878 15.9296C9.88952 17.6332 9.38028 19.574 9.38027 21.6351C9.38027 28.4029 14.8667 33.8893 21.6345 33.8893C28.4023 33.8892 33.8886 28.4029 33.8886 21.6351C33.8886 14.8674 28.4023 9.38096 21.6345 9.38094C19.5737 9.38094 17.6331 9.89016 15.9294 10.7882M15.5354 10.0405L15.9294 10.7882M15.5354 10.0405C15.3289 10.1494 15.2498 10.405 15.3586 10.6114C15.4674 10.8178 15.723 10.897 15.9294 10.7882" stroke="#3C83F6" stroke-miterlimit="22.926" stroke-linecap="round" stroke-linejoin="round"/>
<path d="M42.0016 23.7481C42.0016 23.9203 41.8644 24.1066 41.5415 24.1705L41.5097 24.1763L38.9898 24.5963C38.8155 24.6254 38.6778 24.7597 38.6444 24.9332C38.2029 27.2231 37.3012 29.3996 35.994 31.3309C35.8949 31.4772 35.8974 31.6696 36.0001 31.8133L37.4851 33.8924L37.5035 33.919C37.6868 34.1927 37.6519 34.4214 37.5302 34.5431H37.5301L34.5422 37.5311H34.5422C34.4204 37.6529 34.1917 37.6877 33.9181 37.5044L33.8915 37.486L31.8124 36.001C31.6732 35.9015 31.4882 35.8961 31.3438 35.9859L31.3299 35.9949C29.3987 37.3023 27.2222 38.204 24.9323 38.6453C24.7588 38.6787 24.6244 38.8165 24.5954 38.9907L24.1754 41.5106C24.1177 41.8564 23.9249 42.0025 23.7471 42.0025H19.5214C19.3491 42.0025 19.1628 41.8654 19.099 41.5424L19.0932 41.5106L18.6731 38.9907C18.6441 38.8165 18.5097 38.6787 18.3363 38.6453C16.0463 38.204 13.8698 37.3023 11.9387 35.9949C11.7924 35.8959 11.5999 35.8983 11.4562 36.001L9.37706 37.486H9.37698C9.09177 37.6898 8.85216 37.6568 8.72655 37.5312L5.73836 34.543C5.61273 34.4174 5.57961 34.1778 5.7835 33.8924L7.26848 31.8133C7.37114 31.6696 7.37359 31.4772 7.27459 31.3309C5.96743 29.3996 5.06578 27.2231 4.62427 24.9332C4.59083 24.7597 4.45302 24.6254 4.2788 24.5963L1.75896 24.1763C1.41314 24.1186 1.26701 23.9258 1.26699 23.7481V19.5224C1.26699 19.3446 1.41309 19.1518 1.75896 19.0942L4.2788 18.6742L4.29505 18.6711C4.46155 18.6367 4.59188 18.5054 4.62427 18.3374L4.64532 18.2301C5.09408 15.9795 5.98787 13.8407 7.27459 11.9396C7.37357 11.7933 7.37112 11.6009 7.26848 11.4572L5.7835 9.37804C5.58602 9.10163 5.61083 8.8681 5.72688 8.7395L5.73844 8.72745V8.72737L8.72647 5.73942V5.73934L8.7386 5.72786C8.86712 5.6119 9.10065 5.58702 9.37698 5.7844L9.37706 5.78448L11.4562 7.26946L11.4698 7.27879C11.6119 7.37219 11.7969 7.3715 11.9387 7.27557C13.8396 5.98863 15.9784 5.0948 18.229 4.6463L18.3363 4.62525L18.3524 4.62187C18.518 4.58325 18.645 4.44865 18.6731 4.27986L19.0932 1.75986L19.099 1.728C19.1628 1.40512 19.3492 1.2679 19.5214 1.26789H23.7471C23.9248 1.26789 24.1177 1.41407 24.1754 1.75986L24.5954 4.27986L24.5984 4.29603C24.6329 4.46257 24.7642 4.59287 24.9323 4.62525C27.2222 5.06651 29.3987 5.9682 31.3299 7.27557L31.3438 7.28456C31.4882 7.37436 31.6732 7.36893 31.8124 7.26946L33.8915 5.78448L33.9181 5.76608C34.1917 5.58284 34.4205 5.61764 34.5422 5.73942L37.5301 8.72737L37.5417 8.7395C37.6539 8.86397 37.6808 9.08669 37.5035 9.35147L37.4851 9.37804L36.0001 11.4571C35.8974 11.6008 35.895 11.7933 35.994 11.9396C37.3012 13.8709 38.2029 16.0474 38.6444 18.3374L38.6477 18.3535C38.6864 18.5191 38.821 18.646 38.9898 18.6742L41.5097 19.0942L41.5415 19.0999C41.8645 19.1638 42.0016 19.3502 42.0016 19.5224V23.7481ZM42.8468 19.5224C42.8468 18.7941 42.2582 18.382 41.7023 18.2704L41.6486 18.2606L39.4159 17.8885C38.9543 15.6883 38.0866 13.5934 36.857 11.7114L38.1728 9.86927L38.2038 9.82429C38.5129 9.35995 38.6387 8.66755 38.1521 8.15485L38.1277 8.12976L35.1399 5.14181C34.6249 4.62682 33.9172 4.75159 33.4452 5.06572L33.4003 5.09675L31.5582 6.41254C29.6762 5.18279 27.5813 4.31498 25.3811 3.85367L25.0089 1.62096C24.9138 1.04998 24.4988 0.422773 23.7471 0.422773H19.5214C18.7932 0.422787 18.3809 1.01132 18.2694 1.56723L18.2595 1.62096L17.8874 3.85367C15.6872 4.31498 13.5923 5.18278 11.7104 6.41254L9.86821 5.09683L9.86829 5.09675C9.39734 4.76033 8.66034 4.61012 8.12878 5.14181V5.14189L5.14083 8.12976V8.12985C4.60918 8.66146 4.75929 9.39824 5.09577 9.86927L6.41148 11.7114C5.18196 13.5935 4.31413 15.6883 3.85261 17.8885L1.61998 18.2606V18.2605C1.0489 18.3557 0.421875 18.7706 0.421875 19.5224V23.7481C0.42189 24.4998 1.04888 24.9147 1.61998 25.0099L3.85261 25.382C4.31412 27.5822 5.18194 29.677 6.41148 31.5591L5.09577 33.4012C4.75933 33.8723 4.6091 34.6092 5.14091 35.1407L8.12887 38.1287C8.66038 38.6604 9.39726 38.5102 9.86821 38.1738L11.7104 36.858C13.5923 38.0877 15.6872 38.9556 17.8874 39.4169L18.2595 41.6496L18.2694 41.7032C18.3809 42.2592 18.7932 42.8476 19.5214 42.8477H23.7471C24.4988 42.8477 24.9138 42.2207 25.009 41.6496H25.0089L25.3811 39.4169C27.5813 38.9556 29.6762 38.0877 31.5581 36.858L33.4003 38.1738C33.8713 38.5102 34.6082 38.6604 35.1398 38.1287H35.1399L38.1276 35.1407H38.1277C38.6594 34.6092 38.5092 33.8723 38.1729 33.4012L38.1728 33.4012L36.857 31.5592C38.0866 29.6771 38.9543 27.5823 39.4159 25.382L41.6486 25.0099L41.7023 25C42.2582 24.8884 42.8467 24.4763 42.8468 23.7481V19.5224Z" fill="#3C83F6" stroke="#3C83F6" stroke-miterlimit="22.926" stroke-linecap="round" stroke-linejoin="round"/>
<path d="M12.9698 12.9696C13.1348 12.8045 13.1348 12.537 12.9698 12.372C12.8048 12.2069 12.5373 12.207 12.3722 12.372L12.9698 12.9696ZM12.3718 12.97C12.5317 13.1298 12.7877 13.1349 12.9536 12.985L12.9693 12.97L12.9698 12.9696L12.3722 12.372L12.3718 12.3725L12.3568 12.3882C12.2069 12.5541 12.212 12.8101 12.3718 12.97Z" fill="#3C83F6"/>
<path d="M12.9698 12.9696C13.1348 12.8045 13.1348 12.537 12.9698 12.372C12.8048 12.2069 12.5373 12.207 12.3722 12.372M12.9698 12.9696L12.3722 12.372M12.9698 12.9696L12.9693 12.97L12.9536 12.985C12.7877 13.1349 12.5317 13.1298 12.3718 12.97C12.212 12.8101 12.2069 12.5541 12.3568 12.3882L12.3718 12.3725L12.3722 12.372" stroke="#3C83F6" stroke-miterlimit="2.613" stroke-linecap="round" stroke-linejoin="round"/>
</g>
</g>
<defs>
<clipPath id="clip0_4412_519">
<rect width="43.27" height="43.27" fill="white"/>
</clipPath>
</defs>
</svg>
