<svg width="44" height="44" viewBox="0 0 44 44" fill="none" xmlns="http://www.w3.org/2000/svg">
<path d="M38.9589 6.61281C38.8831 5.22253 37.7774 4.11695 36.3871 4.04108C33.5817 3.88781 28.0922 4.03691 22.8431 6.75192C20.1672 8.13606 17.3371 10.4828 15.0786 13.1903C15.0507 13.2237 15.0237 13.2573 14.9961 13.2907L9.87049 13.6866C9.02681 13.7518 8.27533 14.194 7.80871 14.8998L4.31187 20.1889C3.95798 20.7241 3.90172 21.394 4.16128 21.9807C4.4209 22.5675 4.95438 22.9764 5.58841 23.0746L9.90672 23.7435C9.89148 23.8274 9.87617 23.9113 9.86215 23.9952C9.71839 24.8552 10.0033 25.7394 10.6244 26.3604L16.6395 32.3755C17.1544 32.8905 17.8503 33.1744 18.5632 33.1744C18.7112 33.1744 18.8588 33.1621 19.0047 33.1377C19.0887 33.1237 19.1725 33.1084 19.2565 33.0932L19.9253 37.4115C20.0235 38.0456 20.4325 38.5791 21.0191 38.8387C21.2583 38.9449 21.517 38.9998 21.7787 39C22.146 38.9997 22.505 38.8912 22.811 38.6881L28.1001 35.1912C28.8059 34.7245 29.248 33.9731 29.3131 33.1295L29.7091 28.004C29.7425 27.9763 29.7761 27.9493 29.8095 27.9214C32.5171 25.6629 34.8639 22.8329 36.248 20.1569C38.9631 14.9075 39.1119 9.41793 38.9589 6.61281ZM26.9691 33.4805L21.9098 36.8255L21.2579 32.617C23.3962 31.9883 25.5114 30.9813 27.5266 29.6324L27.2686 32.9714C27.2611 33.0735 27.2301 33.1726 27.1782 33.2609C27.1262 33.3491 27.0547 33.4243 26.9691 33.4805ZM18.0896 30.9254L12.0745 24.9103C11.921 24.7568 11.85 24.5411 11.8848 24.3333C12.0637 23.264 12.3415 22.2461 12.6855 21.2871L21.7108 30.3124C20.5591 30.725 19.5275 30.9711 18.6665 31.115C18.4584 31.1496 18.243 31.0789 18.0896 30.9254ZM10.0285 15.7313L13.3674 15.4734C12.0184 17.4885 11.0115 19.6038 10.3828 21.7421L6.17432 21.0903L9.5194 16.0309C9.57561 15.9452 9.65076 15.8737 9.73903 15.8218C9.8273 15.7698 9.92633 15.7389 10.0285 15.7313ZM28.496 26.3465C26.8395 27.7283 25.2315 28.7277 23.7493 29.4508L13.5487 19.2502C14.496 17.3154 15.6522 15.7042 16.6534 14.504C18.7434 11.9983 21.3429 9.8367 23.7853 8.57342C28.6029 6.08153 33.6786 5.94734 36.2754 6.0887C36.4412 6.09755 36.5978 6.16738 36.7152 6.28477C36.8326 6.40216 36.9024 6.55881 36.9112 6.72458C37.0528 9.32141 36.9184 14.3971 34.4265 19.2147C33.1632 21.657 31.0017 24.2564 28.496 26.3465Z" fill="#A856F7"/>
<path d="M27.9749 20.1511C29.2876 20.1509 30.6008 19.6512 31.6001 18.6519C32.5685 17.6836 33.1017 16.3961 33.1017 15.0267C33.1017 13.6573 32.5684 12.3699 31.6001 11.4016C29.6011 9.40254 26.3486 9.40267 24.3498 11.4016C23.3814 12.3699 22.8481 13.6573 22.8481 15.0267C22.8481 16.3961 23.3815 17.6836 24.3498 18.6519C25.3493 19.6514 26.6618 20.1512 27.9749 20.1511ZM25.7998 12.8516C26.3994 12.2519 27.1871 11.9521 27.9748 11.9521C28.7626 11.9521 29.5503 12.2519 30.1499 12.8516C30.7309 13.4326 31.0508 14.205 31.0508 15.0266C31.0508 15.8483 30.7309 16.6208 30.1499 17.2018C28.9506 18.4011 26.999 18.4011 25.7997 17.2018C25.2187 16.6208 24.8987 15.8483 24.8987 15.0267C24.8987 14.2051 25.2188 13.4326 25.7998 12.8516ZM5.04593 32.845C5.30836 32.845 5.57079 32.7449 5.77095 32.5446L9.1187 29.1969C9.51914 28.7964 9.51914 28.1472 9.1187 27.7468C8.71832 27.3463 8.06904 27.3463 7.66859 27.7468L4.32091 31.0945C3.92046 31.495 3.92046 32.1442 4.32091 32.5446C4.41601 32.64 4.52902 32.7156 4.65344 32.7672C4.77786 32.8187 4.91125 32.8452 5.04593 32.845ZM12.1867 30.8148C11.7863 30.4144 11.1371 30.4144 10.7366 30.8148L4.30034 37.2512C3.89989 37.6516 3.89989 38.3008 4.30034 38.7013C4.50056 38.9015 4.76292 39.0016 5.02535 39.0016C5.28778 39.0016 5.55021 38.9015 5.75037 38.7012L12.1867 32.2649C12.5872 31.8645 12.5872 31.2153 12.1867 30.8148ZM13.8046 33.8828L10.4569 37.2306C10.0564 37.631 10.0564 38.2802 10.4569 38.6807C10.6571 38.8809 10.9195 38.9811 11.1819 38.9811C11.4443 38.9811 11.7068 38.881 11.9069 38.6807L15.2547 35.3329C15.6551 34.9325 15.6551 34.2833 15.2547 33.8828C14.8543 33.4824 14.205 33.4824 13.8046 33.8828Z" fill="#A856F7"/>
</svg>
