<svg width="44" height="44" viewBox="0 0 44 44" fill="none" xmlns="http://www.w3.org/2000/svg">
<path d="M21.235 26.7656C20.5889 26.7656 20.0631 26.2399 20.0631 25.5938C20.0629 25.3633 20.1306 25.1379 20.2579 24.9457C20.3852 24.7536 20.5664 24.6033 20.7787 24.5137C21.3035 24.2915 21.9314 24.4811 22.5021 25.0339C22.9669 25.4842 23.7088 25.4725 24.1591 25.0077C24.6095 24.5429 24.5977 23.801 24.1329 23.3507C23.6039 22.8381 23.0157 22.4759 22.4069 22.2714V20.9062C22.4069 20.2591 21.8822 19.7344 21.235 19.7344C20.5878 19.7344 20.0631 20.2591 20.0631 20.9062V22.279C19.9963 22.3025 19.9301 22.328 19.8647 22.3555C19.2281 22.6242 18.685 23.0748 18.3034 23.6509C17.9217 24.2269 17.7186 24.9028 17.7194 25.5938C17.7194 27.5323 19.2965 29.1094 21.235 29.1094C21.8812 29.1094 22.4069 29.6351 22.4069 30.2812C22.4069 30.7723 22.0971 31.2152 21.6361 31.383C21.0342 31.6022 20.3335 31.3049 19.7138 30.567C19.2975 30.0714 18.5584 30.0071 18.0628 30.4234C17.5671 30.8396 17.5028 31.5788 17.9191 32.0744C18.5526 32.8287 19.29 33.3459 20.0632 33.6062V34.9688C20.0632 35.6159 20.5879 36.1406 21.2351 36.1406C21.8823 36.1406 22.407 35.6159 22.407 34.9688V33.5959C22.4174 33.5922 22.4279 33.589 22.4383 33.5852C23.8214 33.0815 24.7506 31.7537 24.7506 30.2812C24.7506 28.3427 23.1735 26.7656 21.235 26.7656Z" fill="#A856F7"/>
<path d="M32.0874 19.5984C30.6946 17.8848 29.1024 16.5197 27.3546 15.538C27.6475 15.1911 27.8709 14.791 28.0126 14.3596C28.5849 12.6167 27.7489 10.5464 25.6151 9.87195L28.6064 4.65594C28.9838 3.99766 28.6448 3.15922 27.917 2.94766C25.7542 2.31883 23.5059 2 21.2344 2C18.9628 2 16.7145 2.31883 14.5517 2.94766C13.8231 3.15945 13.4854 3.99844 13.8623 4.65594L16.8537 9.87203C14.7283 10.543 13.8817 12.6103 14.4565 14.3605C14.598 14.7917 14.8216 15.1914 15.1148 15.5377C13.3667 16.5194 11.7744 17.8847 10.3814 19.5984C7.59695 23.0239 6 27.3448 6 31.4531C6 39.9759 12.8005 42 21.2344 42C29.6741 42 36.4688 39.9724 36.4688 31.4531C36.4688 27.3448 34.8718 23.0239 32.0874 19.5984ZM16.6638 4.82953C18.1657 4.50593 19.6979 4.34309 21.2344 4.34375C22.7708 4.34309 24.303 4.50593 25.805 4.82953L23.2243 9.32969C21.9041 9.14518 20.5647 9.14521 19.2445 9.32977L16.6638 4.82953ZM17.4294 12.1481C19.4462 11.4866 21.5562 11.3612 23.6075 11.7712L23.6148 11.7727C24.0962 11.8693 24.5713 11.9945 25.0377 12.1476C25.6519 12.35 25.9875 13.0143 25.7862 13.6273C25.7163 13.8416 25.5859 14.031 25.4107 14.1728C25.2356 14.3147 25.0232 14.4028 24.7991 14.4266C23.6306 14.0608 22.4388 13.875 21.2344 13.875C20.0323 13.875 18.8429 14.06 17.6767 14.4244C17.2152 14.3769 16.828 14.0689 16.6829 13.6284C16.4813 13.0143 16.8169 12.3499 17.4294 12.1481ZM21.2344 39.6719C12.0784 39.6719 8.34375 37.2797 8.34375 31.4531C8.34375 27.9264 9.78539 24.0474 12.2 21.0767C14.7465 17.944 17.9549 16.2188 21.2344 16.2188C24.8442 16.2188 28.0016 18.2877 30.2688 21.0767C32.6834 24.0474 34.125 27.9264 34.125 31.4531C34.125 37.2797 30.3903 39.6719 21.2344 39.6719Z" fill="#A856F7"/>
</svg>
