<svg width="39" height="39" viewBox="0 0 39 39" fill="none" xmlns="http://www.w3.org/2000/svg">
<path d="M18.2835 17.6055C18.2835 17.7848 18.3547 17.9567 18.4815 18.0835C18.6083 18.2103 18.7803 18.2816 18.9596 18.2816H20.232C22.0953 18.2816 23.6125 19.7987 23.6125 21.662C23.6196 22.4362 23.3629 23.1897 22.8846 23.7985C22.4063 24.4073 21.735 24.8351 20.9811 25.0114C20.9811 25.0222 20.9879 25.0317 20.9879 25.0425V26.3947C20.9879 26.7533 20.8454 27.0972 20.5918 27.3508C20.3383 27.6044 19.9943 27.7469 19.6357 27.7469C19.2771 27.7469 18.9331 27.6044 18.6796 27.3508C18.426 27.0972 18.2835 26.7533 18.2835 26.3947V25.102H16.9313C16.5727 25.102 16.2288 24.9595 15.9752 24.7059C15.7216 24.4524 15.5791 24.1084 15.5791 23.7498C15.5791 23.3912 15.7216 23.0473 15.9752 22.7937C16.2288 22.5401 16.5727 22.3976 16.9313 22.3976H20.232C20.4113 22.3976 20.5833 22.3264 20.7101 22.1996C20.8369 22.0728 20.9081 21.9008 20.9081 21.7215C20.9081 21.2888 20.6052 20.9859 20.232 20.9859H18.9596C18.0634 20.9849 17.2042 20.6284 16.5704 19.9946C15.9367 19.3609 15.5802 18.5017 15.5791 17.6055C15.5791 15.968 16.7501 14.6009 18.297 14.2926C18.297 14.2696 18.2835 14.2493 18.2835 14.225V12.8728C18.2835 12.5142 18.426 12.1703 18.6796 11.9167C18.9331 11.6631 19.2771 11.5206 19.6357 11.5206C19.9943 11.5206 20.3383 11.6631 20.5918 11.9167C20.8454 12.1703 20.9879 12.5142 20.9879 12.8728V14.225H22.2603C22.6189 14.225 22.9629 14.3675 23.2164 14.621C23.47 14.8746 23.6125 15.2186 23.6125 15.5772C23.6125 15.9358 23.47 16.2797 23.2164 16.5333C22.9629 16.7869 22.6189 16.9294 22.2603 16.9294H18.9596C18.7803 16.9294 18.6083 17.0006 18.4815 17.1274C18.3547 17.2542 18.2835 17.4262 18.2835 17.6055ZM33.1576 20.9859V23.6903H37.2141C37.5728 23.6903 37.9167 23.8328 38.1703 24.0864C38.4239 24.3399 38.5663 24.6839 38.5663 25.0425C38.5663 25.4011 38.4239 25.7451 38.1703 25.9986C37.9167 26.2522 37.5728 26.3947 37.2141 26.3947H33.1576V29.0991C33.1576 31.3356 31.3375 33.1556 29.101 33.1556H26.3966V37.2122C26.3966 37.5708 26.2542 37.9147 26.0006 38.1683C25.747 38.4219 25.4031 38.5644 25.0445 38.5644C24.6858 38.5644 24.3419 38.4219 24.0883 38.1683C23.8347 37.9147 23.6923 37.5708 23.6923 37.2122V33.1556H20.9879V37.2122C20.9879 37.5708 20.8454 37.9147 20.5918 38.1683C20.3383 38.4219 19.9943 38.5644 19.6357 38.5644C19.2771 38.5644 18.9331 38.4219 18.6796 38.1683C18.426 37.9147 18.2835 37.5708 18.2835 37.2122V33.1556H15.5791V37.2122C15.5791 37.5708 15.4367 37.9147 15.1831 38.1683C14.9295 38.4219 14.5856 38.5644 14.227 38.5644C13.8683 38.5644 13.5244 38.4219 13.2708 38.1683C13.0172 37.9147 12.8748 37.5708 12.8748 37.2122V33.1556H10.1704C7.93387 33.1556 6.11383 31.3356 6.11383 29.0991V26.3947H2.05727C1.69864 26.3947 1.35471 26.2522 1.10112 25.9986C0.84754 25.7451 0.705078 25.4011 0.705078 25.0425C0.705078 24.6839 0.84754 24.3399 1.10112 24.0864C1.35471 23.8328 1.69864 23.6903 2.05727 23.6903H6.11383V20.9859H2.05727C1.69864 20.9859 1.35471 20.8435 1.10112 20.5899C0.84754 20.3363 0.705078 19.9924 0.705078 19.6338C0.705078 19.2751 0.84754 18.9312 1.10112 18.6776C1.35471 18.424 1.69864 18.2816 2.05727 18.2816H6.11383V15.5772H2.05727C1.69864 15.5772 1.35471 15.4347 1.10112 15.1811C0.84754 14.9276 0.705078 14.5836 0.705078 14.225C0.705078 13.8664 0.84754 13.5224 1.10112 13.2689C1.35471 13.0153 1.69864 12.8728 2.05727 12.8728H6.11383V10.1684C6.11383 7.93192 7.93387 6.11188 10.1704 6.11188H12.8748V2.05531C12.8748 1.69669 13.0172 1.35276 13.2708 1.09917C13.5244 0.845587 13.8683 0.703125 14.227 0.703125C14.5856 0.703125 14.9295 0.845587 15.1831 1.09917C15.4367 1.35276 15.5791 1.69669 15.5791 2.05531V6.11188H18.2835V2.05531C18.2835 1.69669 18.426 1.35276 18.6796 1.09917C18.9331 0.845587 19.2771 0.703125 19.6357 0.703125C19.9943 0.703125 20.3383 0.845587 20.5918 1.09917C20.8454 1.35276 20.9879 1.69669 20.9879 2.05531V6.11188H23.6923V2.05531C23.6923 1.69669 23.8347 1.35276 24.0883 1.09917C24.3419 0.845587 24.6858 0.703125 25.0445 0.703125C25.4031 0.703125 25.747 0.845587 26.0006 1.09917C26.2542 1.35276 26.3966 1.69669 26.3966 2.05531V6.11188H29.101C31.3375 6.11188 33.1576 7.93192 33.1576 10.1684V12.8728H37.2141C37.5728 12.8728 37.9167 13.0153 38.1703 13.2689C38.4239 13.5224 38.5663 13.8664 38.5663 14.225C38.5663 14.5836 38.4239 14.9276 38.1703 15.1811C37.9167 15.4347 37.5728 15.5772 37.2141 15.5772H33.1576V18.2816H37.2141C37.5728 18.2816 37.9167 18.424 38.1703 18.6776C38.4239 18.9312 38.5663 19.2751 38.5663 19.6338C38.5663 19.9924 38.4239 20.3363 38.1703 20.5899C37.9167 20.8435 37.5728 20.9859 37.2141 20.9859H33.1576ZM30.4532 10.1684C30.4532 9.42338 29.8461 8.81625 29.101 8.81625H10.1704C9.42534 8.81625 8.8182 9.42338 8.8182 10.1684V29.0991C8.8182 29.8441 9.42534 30.4513 10.1704 30.4513H29.101C29.8461 30.4513 30.4532 29.8441 30.4532 29.0991V10.1684Z" fill="#3C83F6"/>
</svg>
