<svg width="44" height="44" viewBox="0 0 44 44" fill="none" xmlns="http://www.w3.org/2000/svg">
<path d="M38.9395 11.6793C38.9327 11.6658 38.9327 11.6495 38.9246 11.636C38.9084 11.6076 38.88 11.5914 38.8611 11.5643C38.5125 10.9863 38.0249 10.5048 37.4426 10.1635L23.6625 2.20856C23.0454 1.85435 22.3463 1.66797 21.6349 1.66797C20.9234 1.66797 20.2243 1.85435 19.6073 2.20856L5.82711 10.1635C5.24523 10.5048 4.75807 10.9864 4.41002 11.5643C4.39109 11.5914 4.36269 11.6076 4.34646 11.636C4.33835 11.6495 4.3397 11.6644 4.33159 11.6793C3.98413 12.2882 3.80056 12.9768 3.79883 13.6778V29.589C3.79883 31.0331 4.57634 32.3786 5.82711 33.1033L19.6059 41.0596C20.2266 41.4166 20.9216 41.5951 21.6166 41.5991C21.6234 41.5991 21.6288 41.6032 21.6355 41.6032C21.6423 41.6032 21.6477 41.5991 21.6545 41.5991C22.3599 41.5977 23.0526 41.4117 23.6638 41.0596L37.444 33.1033C38.0599 32.7462 38.5714 32.2336 38.9273 31.617C39.2832 31.0003 39.4711 30.301 39.4722 29.589V13.6778C39.4703 12.9768 39.2868 12.2882 38.9395 11.6793ZM36.0918 30.76L22.9877 38.3255V33.7186C22.9877 33.36 22.8453 33.016 22.5917 32.7624C22.3381 32.5089 21.9942 32.3664 21.6355 32.3664C21.2769 32.3664 20.933 32.5089 20.6794 32.7624C20.4258 33.016 20.2833 33.36 20.2833 33.7186V38.3268L7.18065 30.7614C6.76282 30.5207 6.50456 30.0717 6.50456 29.5904V14.4432L12.6178 17.9724C12.7714 18.0617 12.9412 18.1197 13.1174 18.1432C13.2935 18.1667 13.4726 18.1551 13.6443 18.1091C13.8159 18.0631 13.9768 17.9836 14.1176 17.8752C14.2585 17.7668 14.3765 17.6316 14.4649 17.4775C14.6442 17.1669 14.6928 16.7978 14.6 16.4514C14.5072 16.105 14.2805 15.8097 13.97 15.6304L7.86891 12.1079L20.9581 4.55055C21.164 4.43228 21.3974 4.37004 21.6349 4.37004C21.8723 4.37004 22.1057 4.43228 22.3116 4.55055L35.4022 12.1079L29.3024 15.629C28.9944 15.8096 28.7703 16.1047 28.679 16.4499C28.5878 16.7951 28.6367 17.1624 28.8153 17.4716C28.9938 17.7809 29.2874 18.0069 29.632 18.1005C29.9766 18.194 30.3442 18.1475 30.6546 17.971L36.7679 14.4418V29.5877C36.7679 30.0704 36.5082 30.5193 36.0918 30.76Z" fill="#3C83F6"/>
<path d="M29.3398 20.1627L27.4535 19.4825C26.6058 19.1784 25.8359 18.6904 25.1991 18.0536C24.5623 17.4168 24.0743 16.6469 23.7702 15.7992L23.0914 13.9115C22.871 13.3017 22.2855 12.8906 21.6364 12.8906C20.9874 12.8906 20.4019 13.3017 20.1815 13.9129L19.5027 15.8005C19.1982 16.6483 18.71 17.4182 18.073 18.055C17.4359 18.6918 16.6658 19.1798 15.818 19.4839L13.929 20.164C13.3205 20.3858 12.9121 20.9699 12.9121 21.6163C12.9121 22.2626 13.3205 22.8468 13.933 23.0699L15.818 23.7487C16.6659 24.053 17.436 24.5412 18.0731 25.1783C18.7101 25.8153 19.1983 26.5854 19.5027 27.4334L20.1815 29.3211C20.4019 29.9322 20.986 30.3433 21.6364 30.3433C22.2868 30.3433 22.871 29.9322 23.0914 29.3211L23.7702 27.4334C24.0745 26.5856 24.5625 25.8156 25.1993 25.1786C25.8361 24.5416 26.6059 24.0533 27.4535 23.7487L29.3439 23.0685C29.9524 22.8468 30.3607 22.2626 30.3607 21.6163C30.3607 20.9699 29.9524 20.3858 29.3398 20.1627ZM21.6364 25.5579C20.7854 23.8509 19.4018 22.4674 17.6948 21.6163C19.4021 20.7656 20.7858 19.3819 21.6364 17.6747C22.4875 19.3816 23.8711 20.7652 25.5781 21.6163C23.8711 22.4674 22.4875 23.8509 21.6364 25.5579Z" fill="#3C83F6"/>
</svg>
