<svg width="37" height="37" viewBox="0 0 37 37" fill="none" xmlns="http://www.w3.org/2000/svg">
<path d="M31.3727 17.2371V3.64542C31.3727 2.18708 30.1747 1 28.701 1H3.67167C2.19875 1 1 2.18708 1 3.64615V28.7273C1 30.1856 2.19875 31.3727 3.67167 31.3727H17.2371C19.0651 34.1559 22.2093 36 25.78 36C31.415 36 36 31.4157 36 25.7807C36 22.21 34.1552 19.0651 31.3727 17.2371ZM20.6467 2.09375V9.47292C20.6467 9.59688 20.5059 9.67344 20.4024 9.59542L16.9337 6.9974C16.7177 6.83665 16.4556 6.74983 16.1864 6.74983C15.9171 6.74983 15.655 6.83665 15.439 6.9974L11.9703 9.59542C11.9476 9.61255 11.9206 9.62301 11.8923 9.62559C11.864 9.62818 11.8355 9.6228 11.8101 9.61006C11.7847 9.59731 11.7634 9.57772 11.7485 9.55348C11.7337 9.52925 11.7259 9.50134 11.726 9.47292V2.09375H20.6467ZM3.67167 30.279C2.80177 30.279 2.09375 29.5833 2.09375 28.7273V3.64615C2.09375 2.7901 2.80104 2.09375 3.67167 2.09375H10.6323V9.47292C10.6323 10.4981 11.8033 11.0866 12.6258 10.4704L16.0952 7.8724C16.1217 7.85308 16.1536 7.84267 16.1864 7.84267C16.2191 7.84267 16.251 7.85308 16.2775 7.8724L19.7469 10.4704C20.5672 11.0851 21.7404 10.501 21.7404 9.47292V2.09375H28.701C29.5717 2.09375 30.279 2.7901 30.279 3.64615V16.618C28.8807 15.924 27.341 15.5622 25.78 15.5607C20.145 15.5607 15.5607 20.1457 15.5607 25.7807C15.5607 27.3966 15.9479 28.9198 16.618 30.2797L3.67167 30.279ZM25.78 34.9063C20.7488 34.9063 16.6545 30.8127 16.6545 25.7807C16.6545 20.748 20.748 16.6545 25.78 16.6545C30.8127 16.6552 34.9063 20.748 34.9063 25.7807C34.9063 30.812 30.8127 34.9063 25.78 34.9063Z" fill="#A856F7" stroke="#A856F7" stroke-width="0.5"/>
<path d="M28.2584 22.7578H23.3008C23.1557 22.7578 23.0166 22.8154 22.9141 22.918C22.8115 23.0205 22.7539 23.1596 22.7539 23.3047V28.2623C22.7539 28.5642 22.9989 28.8092 23.3008 28.8092H28.2584C28.4034 28.8092 28.5425 28.7515 28.6451 28.649C28.7476 28.5464 28.8053 28.4073 28.8053 28.2623V23.3047C28.8053 23.1596 28.7476 23.0205 28.6451 22.918C28.5425 22.8154 28.4034 22.7578 28.2584 22.7578ZM27.7115 27.7154H23.8477V23.8516H27.7115V27.7154Z" fill="#A856F7" stroke="#A856F7" stroke-width="0.5"/>
<path d="M31.9772 26.3261C32.1222 26.3261 32.2613 26.2685 32.3639 26.1659C32.4664 26.0634 32.5241 25.9243 32.5241 25.7792C32.5241 25.6342 32.4664 25.4951 32.3639 25.3925C32.2613 25.29 32.1222 25.2323 31.9772 25.2323H31.0234V23.1258H31.9772C32.1222 23.1258 32.2613 23.0682 32.3639 22.9656C32.4664 22.863 32.5241 22.7239 32.5241 22.5789C32.5241 22.4339 32.4664 22.2948 32.3639 22.1922C32.2613 22.0896 32.1222 22.032 31.9772 22.032H30.9906C30.925 21.6678 30.7495 21.3324 30.4878 21.0707C30.2261 20.809 29.8907 20.6335 29.5265 20.5679V19.582C29.5265 19.437 29.4688 19.2979 29.3663 19.1953C29.2637 19.0928 29.1246 19.0352 28.9796 19.0352C28.8345 19.0352 28.6954 19.0928 28.5929 19.1953C28.4903 19.2979 28.4327 19.437 28.4327 19.582V20.5351H26.3261V19.582C26.3261 19.437 26.2685 19.2979 26.166 19.1953C26.0634 19.0928 25.9243 19.0352 25.7793 19.0352C25.6342 19.0352 25.4951 19.0928 25.3926 19.1953C25.29 19.2979 25.2324 19.437 25.2324 19.582V20.5351H23.1266V19.582C23.1266 19.437 23.0689 19.2979 22.9664 19.1953C22.8638 19.0928 22.7247 19.0352 22.5797 19.0352C22.4346 19.0352 22.2955 19.0928 22.193 19.1953C22.0904 19.2979 22.0328 19.437 22.0328 19.582V20.5679C21.6686 20.6335 21.3331 20.809 21.0714 21.0707C20.8097 21.3324 20.6343 21.6678 20.5686 22.032H19.5828C19.4378 22.032 19.2987 22.0896 19.1961 22.1922C19.0936 22.2948 19.0359 22.4339 19.0359 22.5789C19.0359 22.7239 19.0936 22.863 19.1961 22.9656C19.2987 23.0682 19.4378 23.1258 19.5828 23.1258H20.5358V25.2323H19.5828C19.4378 25.2323 19.2987 25.29 19.1961 25.3925C19.0936 25.4951 19.0359 25.6342 19.0359 25.7792C19.0359 25.9243 19.0936 26.0634 19.1961 26.1659C19.2987 26.2685 19.4378 26.3261 19.5828 26.3261H20.5358V28.4327H19.5828C19.4378 28.4327 19.2987 28.4903 19.1961 28.5928C19.0936 28.6954 19.0359 28.8345 19.0359 28.9795C19.0359 29.1246 19.0936 29.2637 19.1961 29.3662C19.2987 29.4688 19.4378 29.5264 19.5828 29.5264H20.5686C20.6344 29.8906 20.8099 30.226 21.0715 30.4877C21.3332 30.7494 21.6686 30.9248 22.0328 30.9906V31.9757C22.0328 32.1207 22.0904 32.2598 22.193 32.3624C22.2955 32.4649 22.4346 32.5226 22.5797 32.5226C22.7247 32.5226 22.8638 32.4649 22.9664 32.3624C23.0689 32.2598 23.1266 32.1207 23.1266 31.9757V31.0227H25.2324V31.9757C25.2324 32.1207 25.29 32.2598 25.3926 32.3624C25.4951 32.4649 25.6342 32.5226 25.7793 32.5226C25.9243 32.5226 26.0634 32.4649 26.166 32.3624C26.2685 32.2598 26.3261 32.1207 26.3261 31.9757V31.0227H28.4327V31.9757C28.4327 32.1207 28.4903 32.2598 28.5929 32.3624C28.6954 32.4649 28.8345 32.5226 28.9796 32.5226C29.1246 32.5226 29.2637 32.4649 29.3663 32.3624C29.4688 32.2598 29.5265 32.1207 29.5265 31.9757V30.9906C29.8906 30.9248 30.226 30.7494 30.4877 30.4877C30.7494 30.226 30.9249 29.8906 30.9906 29.5264H31.9765C32.1215 29.5264 32.2606 29.4688 32.3632 29.3662C32.4657 29.2637 32.5233 29.1246 32.5233 28.9795C32.5233 28.8345 32.4657 28.6954 32.3632 28.5928C32.2606 28.4903 32.1215 28.4327 31.9765 28.4327H31.0227V26.3254L31.9772 26.3261ZM29.9297 29.2063C29.9297 29.6044 29.6059 29.9282 29.2078 29.9282H22.3529C22.1616 29.9278 21.9782 29.8516 21.8429 29.7163C21.7076 29.581 21.6314 29.3976 21.631 29.2063V22.3521C21.631 21.9533 21.9548 21.6288 22.3529 21.6288H29.2078C29.6059 21.6288 29.9297 21.9533 29.9297 22.3514V29.2063ZM10.7548 23.2928H5.375C5.22996 23.2928 5.09086 23.3504 4.9883 23.4529C4.88574 23.5555 4.82813 23.6946 4.82812 23.8396C4.82813 23.9847 4.88574 24.1238 4.9883 24.2263C5.09086 24.3289 5.22996 24.3865 5.375 24.3865H10.7548C10.8998 24.3865 11.0389 24.3289 11.1415 24.2263C11.244 24.1238 11.3017 23.9847 11.3017 23.8396C11.3017 23.6946 11.244 23.5555 11.1415 23.4529C11.0389 23.3504 10.8998 23.2928 10.7548 23.2928ZM10.7548 26.4493H5.375C5.22996 26.4493 5.09086 26.5069 4.9883 26.6095C4.88574 26.7121 4.82813 26.8512 4.82812 26.9962C4.82813 27.1412 4.88574 27.2803 4.9883 27.3829C5.09086 27.4855 5.22996 27.5431 5.375 27.5431H10.7548C10.8998 27.5431 11.0389 27.4855 11.1415 27.3829C11.244 27.2803 11.3017 27.1412 11.3017 26.9962C11.3017 26.8512 11.244 26.7121 11.1415 26.6095C11.0389 26.5069 10.8998 26.4493 10.7548 26.4493Z" fill="#A856F7" stroke="#A856F7" stroke-width="0.5"/>
</svg>
