<svg width="44" height="44" viewBox="0 0 44 44" fill="none" xmlns="http://www.w3.org/2000/svg">
<path d="M38.1286 18.6698C37.5255 18.6709 36.9385 18.8642 36.4527 19.2217C35.967 19.5791 35.6079 20.0821 35.4275 20.6576H23.4455V17.7539H31.5024C31.6693 17.7535 31.8323 17.7035 31.9709 17.6104L35.8115 15.0486C36.2042 15.2464 36.638 15.3491 37.0777 15.3482C37.6981 15.3492 38.3017 15.1467 38.796 14.7719C39.2903 14.397 39.6481 13.8703 39.8145 13.2727C39.9809 12.675 39.9467 12.0392 39.7172 11.4628C39.4877 10.8865 39.0755 10.4012 38.5438 10.0815C38.0121 9.76178 37.3903 9.6252 36.7736 9.69271C36.1569 9.76022 35.5793 10.0281 35.1294 10.4553C34.6795 10.8824 34.382 11.4453 34.2826 12.0577C34.1833 12.6701 34.2874 13.2982 34.5792 13.8457L31.2576 16.0657H23.4455V12.9974H27.5267C27.6617 12.997 27.7946 12.9642 27.9143 12.9018C28.034 12.8393 28.137 12.7491 28.2146 12.6387L29.9915 10.157C30.6487 10.0457 31.2453 9.70544 31.6757 9.19651C32.1062 8.68757 32.3427 8.04276 32.3434 7.37621C32.3441 6.70965 32.109 6.06433 31.6797 5.55446C31.2503 5.04459 30.6544 4.70306 29.9975 4.59031C29.3405 4.47756 28.6649 4.60087 28.0901 4.9384C27.5153 5.27594 27.0785 5.80593 26.8569 6.43459C26.6354 7.06325 26.6433 7.75002 26.8795 8.37335C27.1156 8.99669 27.5646 9.51639 28.1471 9.84047L27.1046 11.3092H23.4455V9.11454C23.3278 7.9715 22.8674 6.89073 22.1245 6.0141C21.3816 5.13746 20.391 4.50593 19.2828 4.20239C18.1745 3.89885 17.0004 3.9375 15.9145 4.31325C14.8286 4.68901 13.8817 5.38431 13.1981 6.3079C11.4558 6.43861 9.82699 7.22179 8.63697 8.50101C7.44695 9.78022 6.78333 11.4613 6.77866 13.2084C6.77939 13.6188 6.81611 14.0284 6.8884 14.4324C5.71184 15.0049 4.72192 15.8995 4.03367 17.0123C3.34541 18.1251 2.98709 19.4104 3.00036 20.7188C3.01362 22.0272 3.39791 23.3049 4.10858 24.4035C4.81924 25.5022 5.8271 26.3766 7.01501 26.9251C6.54609 27.8708 6.30335 28.9125 6.30597 29.9681C6.3082 31.8031 7.03816 33.5624 8.33573 34.8599C9.63331 36.1575 11.3926 36.8875 13.2276 36.8897H13.6497C14.1599 37.5494 14.8151 38.0829 15.5645 38.4488C16.3139 38.8147 17.1375 39.0033 17.9715 39C19.2216 39.0045 20.4376 38.5918 21.4268 37.8274C22.416 37.0629 23.1219 35.9903 23.4328 34.7795C23.4463 34.7156 23.4534 34.6506 23.4539 34.5853V31.6943H27.1004L28.1429 33.163C27.5572 33.4879 27.1055 34.0096 26.8676 34.6357C26.6298 35.2618 26.6212 35.9519 26.8433 36.5837C27.0654 37.2155 27.504 37.7483 28.0813 38.0878C28.6586 38.4273 29.3375 38.5515 29.9976 38.4385C30.6577 38.3255 31.2566 37.9825 31.6881 37.4702C32.1195 36.958 32.3558 36.3096 32.3551 35.6399C32.3544 34.9701 32.1166 34.3223 31.684 33.811C31.2514 33.2997 30.6518 32.958 29.9915 32.8465L28.2146 30.3648C28.1365 30.2551 28.0334 30.1657 27.9137 30.1041C27.794 30.0424 27.6613 30.0102 27.5267 30.0103H23.4455V26.9588H31.2576L34.5834 29.1788C34.261 29.7786 34.1637 30.4739 34.3091 31.1391C34.4545 31.8043 34.8331 32.3955 35.3763 32.806C35.9196 33.2165 36.5917 33.4192 37.2714 33.3774C37.951 33.3357 38.5933 33.0522 39.0822 32.5783C39.5711 32.1043 39.8743 31.4712 39.9372 30.7932C40.0001 30.1152 39.8184 29.437 39.425 28.8813C39.0316 28.3255 38.4524 27.9288 37.792 27.7628C37.1316 27.5968 36.4337 27.6724 35.8242 27.976L31.9835 25.4141C31.845 25.321 31.682 25.2711 31.5151 25.2706H23.4455V22.3458H35.4275C35.5836 22.8458 35.8753 23.2926 36.2701 23.6367C36.665 23.9808 37.1475 24.2087 37.6641 24.295C38.1807 24.3813 38.7111 24.3226 39.1964 24.1255C39.6816 23.9285 40.1027 23.6007 40.4128 23.1786C40.723 22.7565 40.91 22.2568 40.9531 21.7348C40.9962 21.2128 40.8937 20.6891 40.657 20.2219C40.4203 19.7547 40.0587 19.3623 39.6123 19.0883C39.1659 18.8142 38.6523 18.6694 38.1286 18.6698ZM37.0692 11.3725C37.2955 11.3725 37.5166 11.4396 37.7047 11.5653C37.8928 11.6909 38.0394 11.8696 38.1259 12.0786C38.2125 12.2876 38.2352 12.5175 38.191 12.7394C38.1469 12.9613 38.038 13.1651 37.878 13.325C37.7181 13.485 37.5143 13.5939 37.2924 13.6381C37.0705 13.6822 36.8405 13.6595 36.6316 13.573C36.4226 13.4864 36.2439 13.3398 36.1182 13.1517C35.9926 12.9636 35.9255 12.7425 35.9255 12.5163C35.9266 12.2133 36.0475 11.923 36.2617 11.7087C36.476 11.4945 36.7662 11.3736 37.0692 11.3725ZM29.5145 6.22349C29.7408 6.22349 29.9619 6.29057 30.15 6.41625C30.3381 6.54193 30.4847 6.72056 30.5712 6.92955C30.6578 7.13855 30.6805 7.36852 30.6363 7.59039C30.5922 7.81225 30.4833 8.01605 30.3233 8.17601C30.1633 8.33597 29.9595 8.4449 29.7377 8.48903C29.5158 8.53316 29.2858 8.51051 29.0768 8.42394C28.8679 8.33738 28.6892 8.19078 28.5635 8.00269C28.4379 7.8146 28.3708 7.59346 28.3708 7.36725C28.3719 7.06425 28.4928 6.77398 28.707 6.55972C28.9213 6.34546 29.2115 6.2246 29.5145 6.22349ZM29.5145 36.78C29.2883 36.78 29.0672 36.7129 28.8791 36.5872C28.691 36.4615 28.5444 36.2829 28.4578 36.0739C28.3713 35.8649 28.3486 35.6349 28.3928 35.4131C28.4369 35.1912 28.5458 34.9874 28.7058 34.8275C28.8657 34.6675 29.0695 34.5586 29.2914 34.5144C29.5133 34.4703 29.7432 34.493 29.9522 34.5795C30.1612 34.6661 30.3399 34.8127 30.4655 35.0008C30.5912 35.1889 30.6583 35.41 30.6583 35.6362C30.6572 35.9392 30.5363 36.2295 30.3221 36.4437C30.1078 36.658 29.8175 36.7789 29.5145 36.78ZM38.213 30.4872C38.213 30.7134 38.1459 30.9345 38.0203 31.1226C37.8946 31.3107 37.7159 31.4573 37.5069 31.5439C37.298 31.6305 37.068 31.6531 36.8461 31.609C36.6242 31.5648 36.4204 31.4559 36.2605 31.296C36.1005 31.136 35.9916 30.9322 35.9475 30.7103C35.9033 30.4885 35.926 30.2585 36.0126 30.0495C36.0991 29.8405 36.2457 29.6619 36.4338 29.5362C36.6219 29.4105 36.843 29.3434 37.0692 29.3434C37.3722 29.3445 37.6625 29.4654 37.8768 29.6797C38.091 29.8939 38.2119 30.1842 38.213 30.4872ZM21.753 34.4714C21.5089 35.2896 21.0076 36.0074 20.3234 36.5183C19.6391 37.0292 18.8085 37.306 17.9546 37.3075C17.3141 37.3054 16.6846 37.1414 16.1245 36.8308C15.5645 36.5201 15.0921 36.0729 14.7512 35.5307C14.6751 35.4104 14.5697 35.3114 14.445 35.2428C14.3203 35.1741 14.1803 35.1382 14.0379 35.1382H13.9198C13.6822 35.1741 13.4425 35.1938 13.2023 35.1973C11.8208 35.1951 10.496 34.6476 9.516 33.674C8.53598 32.7003 7.97997 31.3791 7.96885 29.9976C7.97062 29.9667 7.97062 29.9357 7.96885 29.9048C7.96995 29.2864 8.09291 28.6744 8.33069 28.1036C8.56847 27.5328 8.91641 27.0144 9.35462 26.5782C9.79283 26.1419 10.3127 25.7963 10.8846 25.5611C11.4564 25.3259 12.069 25.2057 12.6874 25.2073C12.9112 25.2073 13.1259 25.1184 13.2842 24.9601C13.4425 24.8018 13.5315 24.5871 13.5315 24.3632C13.5315 24.1394 13.4425 23.9247 13.2842 23.7664C13.1259 23.6081 12.9112 23.5191 12.6874 23.5191C11.8166 23.5192 10.9551 23.6983 10.1565 24.0454C9.3578 24.3924 8.63904 24.9 8.04482 25.5365C7.04455 25.1578 6.18461 24.4812 5.58116 23.5981C4.9777 22.715 4.6598 21.668 4.67039 20.5984C4.68097 19.5289 5.01953 18.4884 5.64035 17.6174C6.26116 16.7464 7.13432 16.087 8.14189 15.7281C8.34539 15.6559 8.5135 15.5085 8.61163 15.3161C8.70976 15.1238 8.73045 14.9012 8.66945 14.6941C8.5292 14.2115 8.46094 13.7109 8.46687 13.2084C8.47011 12.0071 8.88554 10.8433 9.64374 9.91154C10.4019 8.97973 11.457 8.33636 12.6325 8.08896C12.5022 9.00448 12.586 9.93774 12.8773 10.8154C12.9353 10.9759 13.0405 11.115 13.1791 11.2145C13.3178 11.3139 13.4833 11.369 13.6539 11.3725C13.7531 11.3721 13.8516 11.355 13.9451 11.3219C14.0495 11.2834 14.1453 11.2246 14.2269 11.1489C14.3085 11.0733 14.3743 10.9822 14.4206 10.881C14.4669 10.7798 14.4927 10.6705 14.4966 10.5592C14.5004 10.448 14.4823 10.3371 14.4431 10.233C14.1964 9.3409 14.1964 8.39861 14.4431 7.50653C14.8974 6.82315 15.5506 6.29579 16.3144 5.99578C17.0781 5.69578 17.9156 5.63761 18.7136 5.82915C19.5115 6.02069 20.2313 6.45269 20.7757 7.06671C21.3201 7.68073 21.6627 8.44714 21.7572 9.26226V15.2258C21.1612 14.5717 20.4351 14.0491 19.6255 13.6915C18.8159 13.334 17.9406 13.1493 17.0556 13.1493C16.8317 13.1493 16.617 13.2383 16.4587 13.3966C16.3004 13.5549 16.2115 13.7696 16.2115 13.9934C16.2115 14.2173 16.3004 14.432 16.4587 14.5903C16.617 14.7486 16.8317 14.8375 17.0556 14.8375C18.3015 14.8387 19.4961 15.3338 20.3774 16.2144C21.2588 17.0949 21.755 18.2891 21.7572 19.535V25.5956C21.1605 24.9423 20.4343 24.4202 19.6249 24.0627C18.8154 23.7053 17.9405 23.5201 17.0556 23.5191C16.8317 23.5191 16.617 23.6081 16.4587 23.7664C16.3004 23.9247 16.2115 24.1394 16.2115 24.3632C16.2115 24.5871 16.3004 24.8018 16.4587 24.9601C16.617 25.1184 16.8317 25.2073 17.0556 25.2073C18.3019 25.2096 19.4965 25.7056 20.3777 26.5869C21.2589 27.4681 21.755 28.6627 21.7572 29.909L21.753 34.4714ZM38.1244 22.6539C37.8989 22.6523 37.6789 22.584 37.4921 22.4577C37.3053 22.3313 37.1601 22.1526 37.0745 21.944C36.989 21.7353 36.9671 21.5061 37.0115 21.285C37.0559 21.0639 37.1646 20.8609 37.3241 20.7014C37.4835 20.542 37.6866 20.4332 37.9076 20.3888C38.1287 20.3444 38.358 20.3664 38.5666 20.4519C38.7753 20.5374 38.954 20.6827 39.0803 20.8695C39.2066 21.0563 39.2749 21.2762 39.2766 21.5017C39.2755 21.8055 39.154 22.0964 38.9389 22.3107C38.7237 22.5251 38.4323 22.6455 38.1286 22.6455L38.1244 22.6539Z" fill="#A856F7"/>
</svg>
