<svg width="44" height="44" viewBox="0 0 44 44" fill="none" xmlns="http://www.w3.org/2000/svg">
<path d="M20.1875 36.1406V32.625H4.17188C3.52467 32.625 3 32.1003 3 31.4531C3 30.8059 3.52467 30.2813 4.17188 30.2813H6.125V19.3438H5.73438C5.08717 19.3438 4.5625 18.8191 4.5625 18.1719C4.5625 17.5247 5.08717 17 5.73438 17H6.125V13.4844L6.12538 13.4542C6.14141 12.8209 6.65977 12.3125 7.29688 12.3125H12.4508C12.9751 8.28786 16.1629 5.10011 20.1875 4.57584V3.17188C20.1875 2.52467 20.7122 2 21.3594 2C22.0066 2 22.5312 2.52467 22.5312 3.17188V4.57584C26.5559 5.10011 29.7436 8.28786 30.2679 12.3125H35.4219C36.0691 12.3125 36.5938 12.8372 36.5938 13.4844V17H36.9844C37.6316 17 38.1562 17.5247 38.1562 18.1719C38.1562 18.8191 37.6316 19.3438 36.9844 19.3438H36.5938V30.2813H38.5469C39.1941 30.2813 39.7188 30.8059 39.7188 31.4531C39.7188 32.1003 39.1941 32.625 38.5469 32.625H22.5312V36.1406C22.5312 36.7878 22.0066 37.3125 21.3594 37.3125C20.7122 37.3125 20.1875 36.7878 20.1875 36.1406ZM31.9062 30.2813H34.25V19.3438H31.9062V30.2813ZM27.2188 30.2813H29.5625V19.3438H27.2188V30.2813ZM22.5312 30.2813H24.875V19.3438H22.5312V30.2813ZM17.8438 30.2813H20.1875V19.3438H17.8438V30.2813ZM13.1562 30.2813H15.5V19.3438H13.1562V30.2813ZM8.46875 30.2813H10.8125V19.3438H8.46875V30.2813ZM8.46875 17H34.25V14.6563H8.46875V17ZM21.3594 6.84375C18.0918 6.84375 15.3753 9.20392 14.8218 12.3125H27.8969C27.3434 9.20392 24.627 6.84375 21.3594 6.84375Z" fill="#3C83F6"/>
<path d="M22.5312 38.4844C22.5312 37.8372 22.0066 37.3125 21.3594 37.3125C20.7122 37.3125 20.1875 37.8372 20.1875 38.4844C20.1875 39.1316 20.7122 39.6562 21.3594 39.6562C22.0066 39.6562 22.5312 39.1316 22.5312 38.4844ZM24.875 38.4844C24.875 40.426 23.301 42 21.3594 42C19.4177 42 17.8438 40.426 17.8438 38.4844C17.8438 36.5427 19.4177 34.9688 21.3594 34.9688C23.301 34.9688 24.875 36.5427 24.875 38.4844Z" fill="#3C83F6"/>
<path d="M13.1591 31.4531C13.1591 30.8059 13.6837 30.2812 14.3309 30.2812C14.9781 30.2813 15.5028 30.8059 15.5028 31.4531V36.1406C15.5028 36.6291 15.1998 37.0664 14.7424 37.2379L10.6871 38.7586C10.0812 38.9858 9.40568 38.6788 9.17844 38.0728C8.95121 37.4668 9.25825 36.7913 9.86424 36.5641L13.1591 35.3285V31.4531ZM27.2216 31.4531C27.2216 30.8059 27.7462 30.2812 28.3934 30.2812C29.0406 30.2813 29.5653 30.8059 29.5653 31.4531V35.3285L32.8602 36.5641L32.8883 36.575C33.4756 36.8124 33.7696 37.4762 33.546 38.0728C33.3187 38.6788 32.6432 38.9858 32.0372 38.7586L27.982 37.2379C27.5246 37.0664 27.2216 36.6291 27.2216 36.1406V31.4531Z" fill="#3C83F6"/>
<path d="M9.25 38.4844C9.25 37.8372 8.72533 37.3125 8.07812 37.3125C7.43092 37.3125 6.90625 37.8372 6.90625 38.4844C6.90625 39.1316 7.43092 39.6562 8.07812 39.6562C8.72533 39.6562 9.25 39.1316 9.25 38.4844ZM11.5938 38.4844C11.5938 40.426 10.0198 42 8.07812 42C6.1365 42 4.5625 40.426 4.5625 38.4844C4.5625 36.5427 6.1365 34.9688 8.07812 34.9688C10.0198 34.9688 11.5938 36.5427 11.5938 38.4844Z" fill="#3C83F6"/>
<path d="M35.8125 38.4844C35.8125 37.8372 35.2878 37.3125 34.6406 37.3125C33.9934 37.3125 33.4688 37.8372 33.4688 38.4844C33.4688 39.1316 33.9934 39.6562 34.6406 39.6562C35.2878 39.6562 35.8125 39.1316 35.8125 38.4844ZM38.1562 38.4844C38.1562 40.426 36.5823 42 34.6406 42C32.699 42 31.125 40.426 31.125 38.4844C31.125 36.5427 32.699 34.9688 34.6406 34.9688C36.5823 34.9688 38.1562 36.5427 38.1562 38.4844Z" fill="#3C83F6"/>
</svg>
