<svg width="44" height="44" viewBox="0 0 44 44" fill="none" xmlns="http://www.w3.org/2000/svg">
<path d="M27.6498 11.5192C27.6498 8.12159 24.8954 5.36715 21.4978 5.36714C18.1001 5.36714 15.3457 8.12158 15.3457 11.5192C15.3457 12.9207 15.8135 14.2109 16.6019 15.2451L16.7679 15.4632C17.5773 16.5288 18.0798 17.2271 18.371 17.8137C18.7122 18.5009 18.7635 19.0322 18.7635 19.722V21.7727H24.232V19.722C24.232 19.0322 24.2834 18.5009 24.6245 17.8137C24.9157 17.2272 25.4182 16.5289 26.2275 15.4632L26.3935 15.2451C27.1819 14.2109 27.6498 12.9207 27.6498 11.5192ZM18.7635 23.5402L19.7302 24.507H23.2653L24.232 23.5403V23.1398H18.7635V23.5402ZM20.8142 19.4503V12.8864C20.8142 12.5089 21.1202 12.2027 21.4978 12.2027C21.8753 12.2028 22.1813 12.5089 22.1813 12.8864V19.4503C22.1813 19.8278 21.8753 20.1339 21.4978 20.1339C21.1202 20.1339 20.8142 19.8278 20.8142 19.4503ZM29.0169 11.5192C29.0169 13.2305 28.4443 14.81 27.4808 16.074L27.4807 16.074C26.5493 17.2957 26.0895 17.9374 25.849 18.4217C25.6391 18.8444 25.5991 19.1385 25.5991 19.722V23.8234C25.5991 24.0047 25.5271 24.1786 25.3989 24.3068L24.0318 25.6739C23.9036 25.8021 23.7297 25.8741 23.5484 25.8741H19.4471C19.2658 25.8741 19.0919 25.8021 18.9637 25.6739L17.5966 24.3068C17.4684 24.1786 17.3964 24.0047 17.3964 23.8234V19.722C17.3964 19.1385 17.3563 18.8444 17.1464 18.4217C16.906 17.9374 16.4462 17.2957 15.5147 16.074V16.074C14.5512 14.81 13.9785 13.2306 13.9785 11.5192C13.9785 7.36653 17.345 4 21.4978 4C25.6505 4.00001 29.0169 7.36654 29.0169 11.5192Z" fill="#3C83F6"/>
<path d="M24.9327 27.7973C26.5674 27.1625 28.3947 27.2667 30.3688 28.0216L30.4591 28.0567C32.354 28.8 34.1291 30.0641 37.6315 30.0641C38.009 30.0641 38.315 30.3701 38.315 30.7477V32.8496C38.6925 32.8497 38.9985 33.1557 38.9985 33.5332V36.6093C38.9985 36.9868 38.6925 37.2928 38.315 37.2928H24.255C23.7519 38.3052 22.7078 39.0018 21.4993 39.0018C20.2907 39.0018 19.2467 38.3052 18.7436 37.2928H4.68357C4.30604 37.2928 4 36.9868 4 36.6093V33.5332L4.00087 33.498C4.01919 33.1369 4.31782 32.8497 4.6835 32.8496V30.7477L4.68437 30.7125C4.70266 30.3513 5.00133 30.0641 5.36707 30.0641C8.925 30.0641 10.7004 28.7595 12.6298 28.0216L12.7222 27.9867C14.6609 27.2636 16.4567 27.1725 18.0659 27.7973C19.4048 28.3172 20.5426 29.3051 21.4993 30.6916C22.4559 29.3051 23.5937 28.3172 24.9327 27.7973ZM5.36714 35.9257H19.206L19.2343 35.9263C19.5249 35.9382 19.7776 36.1335 19.8612 36.4142L19.8714 36.4472C20.092 37.1367 20.7383 37.6346 21.4993 37.6346C22.2723 37.6346 22.9271 37.1207 23.1374 36.4143L23.146 36.3874C23.2403 36.1122 23.4995 35.9257 23.7925 35.9257H37.6314V34.2168H23.8331C23.0101 34.2168 22.458 34.5001 22.0912 35.1354C21.9691 35.3469 21.7435 35.4772 21.4993 35.4772C21.2551 35.4772 21.0294 35.3469 20.9073 35.1354C20.5405 34.5001 19.9884 34.2168 19.1655 34.2168H5.36714V35.9257ZM17.571 29.0717C16.3529 28.5987 14.9133 28.6284 13.1999 29.2677L13.1182 29.2986C11.559 29.8948 9.52298 31.2542 6.05064 31.4154V32.8496H19.1655C19.7647 32.8496 20.3241 32.9632 20.8157 33.2135V32.1645C19.8669 30.5404 18.7772 29.5401 17.571 29.0717ZM29.8804 29.2986C28.131 28.6295 26.6649 28.5912 25.4275 29.0717C24.2214 29.5401 23.1317 30.5404 22.1828 32.1645V33.2135C22.6744 32.9632 23.2338 32.8496 23.8331 32.8496H36.9479V31.4154C33.5333 31.2569 31.5076 29.9397 29.9585 29.3289L29.8804 29.2986ZM24.6365 19.0415C25.0141 19.0415 25.3201 19.3476 25.3201 19.7251C25.3201 20.1026 25.0141 20.4086 24.6365 20.4086H18.362C17.9845 20.4086 17.6784 20.1026 17.6784 19.7251C17.6784 19.3476 17.9845 19.0415 18.362 19.0415H24.6365ZM12.6046 15.8693C12.9265 15.7046 13.3246 15.8196 13.5075 16.1363C13.6962 16.4633 13.5842 16.8814 13.2573 17.0702L12.0732 17.7537C11.7463 17.9425 11.3282 17.8304 11.1395 17.5035C10.9507 17.1765 11.0627 16.7585 11.3897 16.5697L12.5737 15.8861L12.6046 15.8693ZM29.4911 16.1363C29.6739 15.8196 30.072 15.7046 30.3939 15.8693L30.4248 15.8861L31.6088 16.5697L31.6388 16.5881C31.9424 16.7845 32.0418 17.1868 31.859 17.5035C31.6761 17.8202 31.2781 17.9352 30.9561 17.7705L30.9252 17.7537L29.7413 17.0701L29.7112 17.0518C29.4076 16.8553 29.3082 16.4531 29.4911 16.1363ZM22.383 11.039C22.65 10.772 23.0828 10.772 23.3498 11.039C23.6167 11.3059 23.6167 11.7387 23.3498 12.0056L21.9826 13.3728C21.724 13.6314 21.3097 13.6395 21.0414 13.3971L21.0159 13.3728L19.6488 12.0056L20.6155 11.039L21.4993 11.9227L22.383 11.039ZM11.5876 10.8388L11.6228 10.8396C11.9839 10.858 12.2712 11.1566 12.2712 11.5223C12.2712 11.888 11.9839 12.1866 11.6228 12.205L11.5876 12.2059H10.2204C9.84288 12.2059 9.53684 11.8998 9.53683 11.5223C9.53683 11.1448 9.84287 10.8388 10.2204 10.8388H11.5876ZM32.7781 10.8388L32.8132 10.8396C33.1744 10.8579 33.4616 11.1566 33.4616 11.5223C33.4616 11.8881 33.1744 12.1867 32.8132 12.205L32.7781 12.2059H31.4109C31.0334 12.2059 30.7274 11.8998 30.7274 11.5223C30.7274 11.1448 31.0334 10.8388 31.4109 10.8388H32.7781ZM19.6488 11.039C19.9157 10.772 20.3486 10.772 20.6155 11.039L19.6488 12.0056C19.3818 11.7387 19.3818 11.3059 19.6488 11.039ZM11.1395 5.54111C11.3223 5.22439 11.7204 5.10936 12.0423 5.27409L12.0732 5.29092L13.2573 5.97448L13.2872 5.99284C13.5909 6.18928 13.6903 6.59151 13.5075 6.90825C13.3246 7.22497 12.9266 7.33999 12.6046 7.17527L12.5737 7.15845L11.3897 6.47488L11.3597 6.45652C11.0561 6.26008 10.9566 5.85785 11.1395 5.54111ZM30.9252 5.29092C31.2522 5.10216 31.6702 5.21417 31.859 5.54111C32.0477 5.86805 31.9357 6.28611 31.6088 6.47488L30.4248 7.15845C30.0979 7.3472 29.6798 7.23519 29.4911 6.90825C29.3023 6.58131 29.4143 6.16325 29.7413 5.97448L30.9252 5.29092Z" fill="#3C83F6"/>
</svg>
