<svg width="44" height="44" viewBox="0 0 44 44" fill="none" xmlns="http://www.w3.org/2000/svg">
<g clip-path="url(#clip0_4482_647)">
<path d="M32.1674 39H12.1668C11.0621 38.9987 10.003 38.5593 9.22189 37.7781C8.44075 36.997 8.00132 35.938 8 34.8333V8.16667C8.00132 7.062 8.44075 6.00296 9.22189 5.22185C10.003 4.44073 11.0621 4.00132 12.1668 4H25.0505C25.6054 4.00037 26.1547 4.11107 26.6665 4.32567C27.1782 4.54026 27.6422 4.85446 28.0314 5.25L35.1466 12.5325C35.9098 13.3116 36.3363 14.3594 36.3342 15.45V21.6583C36.3342 21.8793 36.2464 22.0913 36.0901 22.2476C35.9338 22.4039 35.7218 22.4917 35.5008 22.4917C35.2798 22.4917 35.0678 22.4039 34.9115 22.2476C34.7552 22.0913 34.6674 21.8793 34.6674 21.6583V15.45C34.6678 14.7958 34.4117 14.1675 33.9541 13.7L26.838 6.41667C26.6049 6.17917 26.3267 5.99053 26.0198 5.86175C25.7128 5.73298 25.3833 5.66666 25.0505 5.66667H12.1668C11.5037 5.66667 10.8678 5.93006 10.399 6.3989C9.93011 6.86774 9.66671 7.50362 9.66671 8.16667V34.8333C9.66671 35.4964 9.93011 36.1322 10.399 36.6011C10.8678 37.0699 11.5037 37.3333 12.1668 37.3333H32.1674C32.4817 37.3346 32.7933 37.2737 33.0841 37.1542C33.2885 37.0701 33.518 37.0706 33.722 37.1557C33.926 37.2408 34.0879 37.4035 34.172 37.6079C34.2561 37.8123 34.2555 38.0418 34.1704 38.2458C34.0854 38.4499 33.9227 38.6117 33.7182 38.6958C33.2262 38.8979 32.6993 39.0012 32.1674 39Z" fill="#3C83F6" stroke="#3C83F6" stroke-width="0.6"/>
<path d="M35.158 14.8328H29.6662C28.5615 14.8315 27.5024 14.3921 26.7213 13.611C25.9401 12.8298 25.5007 11.7708 25.4994 10.6661V5.09115C25.4994 4.87013 25.5872 4.65817 25.7435 4.50189C25.8997 4.34561 26.1117 4.25781 26.3327 4.25781C26.5538 4.25781 26.7657 4.34561 26.922 4.50189C27.0783 4.65817 27.1661 4.87013 27.1661 5.09115V10.6661C27.1661 11.3292 27.4295 11.9651 27.8983 12.4339C28.3672 12.9028 29.0031 13.1661 29.6662 13.1661H35.158C35.379 13.1661 35.591 13.2539 35.7473 13.4102C35.9035 13.5665 35.9913 13.7785 35.9913 13.9995C35.9913 14.2205 35.9035 14.4325 35.7473 14.5887C35.591 14.745 35.379 14.8328 35.158 14.8328ZM33.833 38.8778C33.5043 38.8782 33.183 38.781 32.9096 38.5986L30.2328 36.8136C28.5192 35.6743 27.1141 34.1286 26.1428 32.3144C25.1715 30.5003 24.6642 28.4739 24.666 26.4161V24.9895C24.6677 24.6145 24.7951 24.251 25.028 23.9571C25.2608 23.6632 25.5856 23.456 25.9502 23.3686C28.4252 22.6845 30.7797 21.6223 32.9304 20.2195C33.1995 20.0461 33.5129 19.954 33.833 19.954C34.153 19.954 34.4664 20.0461 34.7355 20.2195C36.8861 21.6225 39.2406 22.6847 41.7157 23.3686C42.0803 23.456 42.4051 23.6632 42.6379 23.9571C42.8708 24.251 42.9983 24.6145 42.9999 24.9895V26.4161C43.0023 28.4745 42.4952 30.5015 41.5239 32.3163C40.5526 34.1311 39.1472 35.6773 37.4331 36.817L34.7571 38.6011C34.4832 38.7828 34.1616 38.879 33.833 38.8778ZM33.833 21.6195C31.5289 23.1225 29.0054 24.2588 26.3527 24.9878L26.3327 26.4161C26.3307 28.2 26.7702 29.9567 27.6119 31.5295C28.4537 33.1024 29.6716 34.4424 31.157 35.4303L33.833 37.2111L36.5089 35.427C37.9938 34.4394 39.2114 33.0999 40.0532 31.5277C40.8949 29.9555 41.3346 28.1995 41.3332 26.4161V24.9895C38.674 24.2609 36.1438 23.1243 33.833 21.6203V21.6195Z" fill="#3C83F6" stroke="#3C83F6" stroke-width="0.6"/>
<path d="M32.9986 31.5013C32.7776 31.5012 32.5657 31.4134 32.4094 31.2571L30.7427 29.5905C30.5909 29.4333 30.5069 29.2228 30.5088 29.0043C30.5107 28.7858 30.5984 28.5768 30.7529 28.4223C30.9074 28.2678 31.1164 28.1801 31.3349 28.1782C31.5534 28.1763 31.7639 28.2603 31.9211 28.4121L32.9986 29.4896L35.7429 26.7455C35.9 26.5937 36.1106 26.5097 36.3291 26.5116C36.5476 26.5135 36.7566 26.6011 36.9111 26.7556C37.0656 26.9101 37.1532 27.1191 37.1551 27.3376C37.157 27.5561 37.073 27.7666 36.9212 27.9238L33.5878 31.2571C33.4316 31.4134 33.2196 31.5012 32.9986 31.5013ZM20.4983 12.3346H13.8314C13.6104 12.3346 13.3984 12.2468 13.2421 12.0906C13.0858 11.9343 12.998 11.7223 12.998 11.5013C12.998 11.2803 13.0858 11.0683 13.2421 10.912C13.3984 10.7558 13.6104 10.668 13.8314 10.668H20.4983C20.7193 10.668 20.9313 10.7558 21.0875 10.912C21.2438 11.0683 21.3316 11.2803 21.3316 11.5013C21.3316 11.7223 21.2438 11.9343 21.0875 12.0906C20.9313 12.2468 20.7193 12.3346 20.4983 12.3346ZM25.4984 17.3346H13.8314C13.6104 17.3346 13.3984 17.2468 13.2421 17.0906C13.0858 16.9343 12.998 16.7223 12.998 16.5013C12.998 16.2803 13.0858 16.0683 13.2421 15.912C13.3984 15.7558 13.6104 15.668 13.8314 15.668H25.4984C25.7194 15.668 25.9314 15.7558 26.0877 15.912C26.244 16.0683 26.3318 16.2803 26.3318 16.5013C26.3318 16.7223 26.244 16.9343 26.0877 17.0906C25.9314 17.2468 25.7194 17.3346 25.4984 17.3346ZM27.1651 22.3346H13.8314C13.6104 22.3346 13.3984 22.2468 13.2421 22.0906C13.0858 21.9343 12.998 21.7223 12.998 21.5013C12.998 21.2803 13.0858 21.0683 13.2421 20.912C13.3984 20.7558 13.6104 20.668 13.8314 20.668H27.1651C27.3861 20.668 27.5981 20.7558 27.7544 20.912C27.9107 21.0683 27.9985 21.2803 27.9985 21.5013C27.9985 21.7223 27.9107 21.9343 27.7544 22.0906C27.5981 22.2468 27.3861 22.3346 27.1651 22.3346ZM22.165 27.3346H13.8314C13.6104 27.3346 13.3984 27.2468 13.2421 27.0906C13.0858 26.9343 12.998 26.7223 12.998 26.5013C12.998 26.2803 13.0858 26.0683 13.2421 25.912C13.3984 25.7558 13.6104 25.668 13.8314 25.668H22.165C22.386 25.668 22.598 25.7558 22.7543 25.912C22.9105 26.0683 22.9983 26.2803 22.9983 26.5013C22.9983 26.7223 22.9105 26.9343 22.7543 27.0906C22.598 27.2468 22.386 27.3346 22.165 27.3346ZM22.165 32.3346H13.8314C13.6104 32.3346 13.3984 32.2468 13.2421 32.0905C13.0858 31.9343 12.998 31.7223 12.998 31.5013C12.998 31.2803 13.0858 31.0683 13.2421 30.912C13.3984 30.7558 13.6104 30.668 13.8314 30.668H22.165C22.386 30.668 22.598 30.7558 22.7543 30.912C22.9105 31.0683 22.9983 31.2803 22.9983 31.5013C22.9983 31.7223 22.9105 31.9343 22.7543 32.0905C22.598 32.2468 22.386 32.3346 22.165 32.3346Z" fill="#3C83F6" stroke="#3C83F6" stroke-width="0.6"/>
</g>
<defs>
<clipPath id="clip0_4482_647">
<rect width="43.27" height="43.27" fill="white"/>
</clipPath>
</defs>
</svg>
