<svg width="37" height="43" viewBox="0 0 37 43" fill="none" xmlns="http://www.w3.org/2000/svg">
<path d="M34.5102 21.5212C32.9514 21.5212 31.9773 20.5101 31.5854 19.5639C31.1934 18.6177 31.1673 17.2138 32.2695 16.1116C32.592 15.7891 32.7697 15.3602 32.7697 14.9041C32.7697 14.4479 32.592 14.019 32.2696 13.6965L29.8667 11.2936C29.7084 11.1346 29.5203 11.0085 29.313 10.9226C29.1057 10.8368 28.8834 10.7929 28.6591 10.7935C28.4347 10.7929 28.2125 10.8368 28.0052 10.9226C27.7979 11.0085 27.6097 11.1346 27.4515 11.2936C26.777 11.9682 25.8942 12.2953 24.9675 12.2151C24.0551 12.1361 23.2009 11.664 22.6606 10.947L22.5188 10.3988L26.4144 7.18822C26.506 7.11268 26.5728 7.0113 26.6061 6.89728C26.6393 6.78325 26.6375 6.66185 26.6008 6.54889C26.5641 6.43593 26.4942 6.33663 26.4003 6.26392C26.3064 6.1912 26.1928 6.14844 26.0742 6.1412L21.0354 5.83358L19.1857 1.1365C19.1421 1.026 19.0664 0.931154 18.9682 0.86431C18.87 0.797466 18.754 0.761719 18.6352 0.761719C18.5165 0.761719 18.4004 0.797466 18.3023 0.86431C18.2041 0.931154 18.1283 1.026 18.0848 1.1365L16.2352 5.83358L11.1964 6.14129C11.0779 6.14857 10.9643 6.19135 10.8704 6.26407C10.7765 6.33679 10.7067 6.43608 10.67 6.54902C10.6333 6.66197 10.6314 6.78334 10.6647 6.89735C10.6979 7.01137 10.7646 7.11274 10.8563 7.1883L14.7519 10.3989L14.6101 10.9469C14.0698 11.664 13.2156 12.1362 12.3031 12.2152C11.3756 12.2957 10.4937 11.9683 9.81905 11.2937C9.66083 11.1346 9.47263 11.0085 9.26535 10.9227C9.05807 10.8368 8.83582 10.793 8.61146 10.7936C8.38711 10.793 8.16486 10.8369 7.95758 10.9227C7.7503 11.0086 7.56211 11.1347 7.40387 11.2937L5.00095 13.6966C4.33517 14.3624 4.33517 15.4459 5.00095 16.1117C6.10324 17.2139 6.07713 18.6178 5.68516 19.564C5.29328 20.5102 4.31911 21.5213 2.76038 21.5213C1.81875 21.5213 1.05273 22.2873 1.05273 23.229V26.6271C1.05273 27.5687 1.81875 28.3347 2.76038 28.3347C4.31911 28.3347 5.29336 29.3458 5.68516 30.292C6.07721 31.2383 6.10324 32.6421 5.00095 33.7443C4.33525 34.4101 4.33525 35.4936 5.00095 36.1594L7.40396 38.5623C7.56217 38.7214 7.75036 38.8475 7.95762 38.9333C8.16489 39.0192 8.38713 39.063 8.61146 39.0624C8.83582 39.063 9.05807 39.0191 9.26535 38.9333C9.47263 38.8474 9.66083 38.7213 9.81905 38.5623C10.9229 37.4584 12.3268 37.4837 13.2724 37.8754C14.2181 38.2671 15.2286 39.2419 15.2286 40.803C15.2286 41.7446 15.9946 42.5107 16.9362 42.5107H20.3343C21.2759 42.5107 22.0419 41.7446 22.0419 40.803C22.0419 39.2443 23.053 38.2701 23.9991 37.8781C24.9455 37.4862 26.3493 37.4601 27.4515 38.5623C27.6097 38.7214 27.7979 38.8475 28.0052 38.9333C28.2124 39.0192 28.4347 39.063 28.659 39.0624C28.8834 39.063 29.1056 39.0191 29.3129 38.9333C29.5202 38.8474 29.7084 38.7213 29.8666 38.5623L32.2695 36.1593C32.592 35.8368 32.7696 35.4079 32.7696 34.9518C32.7696 34.4956 32.5919 34.0667 32.2695 33.7442C31.1672 32.642 31.1934 31.2381 31.5853 30.2919C31.9773 29.3457 32.9513 28.3346 34.5101 28.3346C35.4518 28.3346 36.2178 27.5686 36.2178 26.6269V23.2289C36.2179 22.2872 35.4519 21.5212 34.5102 21.5212ZM12.7681 7.23064L16.6836 6.99147C16.796 6.98462 16.9042 6.94581 16.9953 6.87961C17.0864 6.8134 17.1567 6.72256 17.198 6.61776L18.6353 2.96779L20.0728 6.61776C20.114 6.72256 20.1843 6.81341 20.2755 6.87961C20.3666 6.94581 20.4747 6.98462 20.5871 6.99147L24.5026 7.23064L21.4754 9.72551C21.3885 9.79714 21.3238 9.8921 21.289 9.99922C21.2543 10.1063 21.2508 10.2212 21.279 10.3302L22.2615 14.128L18.9532 12.02C18.8583 11.9594 18.748 11.9272 18.6353 11.9272C18.5227 11.9272 18.4123 11.9594 18.3174 12.02L15.0092 14.128L15.9917 10.3302C16.0199 10.2212 16.0164 10.1063 15.9816 9.99923C15.9468 9.89211 15.8822 9.79715 15.7953 9.72551L12.7681 7.23064ZM35.0347 26.6269C35.0346 26.766 34.9793 26.8993 34.8809 26.9976C34.7826 27.096 34.6492 27.1513 34.5102 27.1514C32.7185 27.1514 31.1789 28.1813 30.4922 29.839C29.8055 31.4969 30.166 33.3138 31.4329 34.5807C31.532 34.6798 31.5865 34.8115 31.5865 34.9517C31.5865 35.0919 31.5319 35.2235 31.4328 35.3226L29.0299 37.7255C28.9813 37.7744 28.9235 37.8131 28.8598 37.8395C28.7962 37.8658 28.7279 37.8793 28.659 37.8791C28.5901 37.8793 28.5218 37.8658 28.4582 37.8394C28.3945 37.8131 28.3367 37.7743 28.2881 37.7255C27.0212 36.4585 25.2043 36.0982 23.5464 36.7849C21.8886 37.4716 20.8587 39.0112 20.8587 40.8028C20.8586 40.9419 20.8033 41.0752 20.7049 41.1735C20.6066 41.2719 20.4733 41.3272 20.3343 41.3273H16.9362C16.7972 41.3272 16.6638 41.2719 16.5655 41.1735C16.4672 41.0752 16.4119 40.9419 16.4117 40.8028C16.4117 39.0092 15.3823 37.4686 13.7251 36.7822C12.0682 36.0959 10.2507 36.4572 8.9823 37.7255C8.88325 37.8246 8.75158 37.8791 8.61138 37.8791C8.47117 37.8791 8.3395 37.8245 8.24046 37.7255L5.83753 35.3227C5.7393 35.2242 5.68413 35.0908 5.68413 34.9517C5.68413 34.8126 5.7393 34.6792 5.83753 34.5807C7.10445 33.3138 7.46489 31.4969 6.77815 29.839C6.09149 28.1813 4.55186 27.1514 2.76021 27.1514C2.62116 27.1512 2.48784 27.0959 2.38952 26.9976C2.29119 26.8993 2.23589 26.766 2.23573 26.6269V23.2289C2.23589 23.0898 2.29119 22.9565 2.38951 22.8582C2.48784 22.7598 2.62115 22.7045 2.76021 22.7043C4.55186 22.7043 6.09149 21.6745 6.77815 20.0167C7.46489 18.3588 7.10445 16.5419 5.83753 15.275C5.7393 15.1765 5.68414 15.0431 5.68414 14.9041C5.68414 14.765 5.7393 14.6316 5.83753 14.5331L8.24037 12.1302C8.3395 12.0312 8.47117 11.9766 8.61138 11.9766C8.75158 11.9766 8.88325 12.0312 8.9823 12.1301C9.90821 13.056 11.1229 13.5051 12.4051 13.3938C13.0037 13.342 13.5841 13.1641 14.1084 12.8855L13.4873 15.2859C13.4576 15.4009 13.4632 15.5221 13.5034 15.6338C13.5435 15.7456 13.6164 15.8427 13.7124 15.9125C13.8085 15.9823 13.9233 16.0216 14.042 16.0252C14.1607 16.0289 14.2778 15.9967 14.3779 15.933L18.6353 13.2203L22.8926 15.9331C22.9928 15.9969 23.1098 16.0291 23.2286 16.0255C23.3473 16.0219 23.4622 15.9826 23.5583 15.9128C23.6544 15.843 23.7272 15.7458 23.7674 15.634C23.8075 15.5222 23.813 15.401 23.7833 15.286L23.1622 12.8856C23.6865 13.1642 24.2668 13.342 24.8654 13.3938C26.1471 13.5052 27.3622 13.0559 28.2881 12.1302C28.3872 12.0312 28.5189 11.9766 28.6591 11.9766C28.7993 11.9766 28.931 12.0312 29.03 12.1301L31.433 14.5331C31.5321 14.6321 31.5866 14.7638 31.5866 14.904C31.5866 15.0441 31.532 15.1758 31.4329 15.2749C30.1661 16.5418 29.8056 18.3587 30.4923 20.0166C31.179 21.6744 32.7186 22.7042 34.5102 22.7042C34.6493 22.7044 34.7827 22.7597 34.881 22.858C34.9794 22.9564 35.0347 23.0897 35.0348 23.2288L35.0347 26.6269ZM18.6353 16.0331C13.7308 16.0331 9.74054 20.0234 9.74054 24.928C9.74054 29.8326 13.7307 33.8227 18.6353 33.8227C23.54 33.8227 27.5302 29.8325 27.5302 24.9279C27.5302 20.0233 23.54 16.0331 18.6353 16.0331ZM14.2759 31.2856C14.4358 29.02 16.331 27.224 18.6354 27.224C20.9397 27.224 22.8348 29.02 22.9946 31.2856C21.7537 32.1391 20.2519 32.6395 18.6353 32.6395C17.0187 32.6395 15.5169 32.1391 14.2759 31.2856ZM24.0598 30.4036C23.5121 27.9124 21.287 26.0408 18.6354 26.0408C15.9838 26.0408 13.7585 27.9124 13.2108 30.4036C11.7993 29.0053 10.9236 27.067 10.9236 24.9279C10.9236 20.6757 14.3831 17.2162 18.6352 17.2162C22.8874 17.2162 26.3469 20.6757 26.3469 24.9279C26.347 27.0671 25.4712 29.0053 24.0598 30.4036ZM18.6354 20.1314C17.0444 20.1314 15.7499 21.4257 15.7499 23.0165C15.7499 24.6076 17.0443 25.902 18.6354 25.902C20.2265 25.902 21.5209 24.6076 21.5209 23.0165C21.5209 21.4257 20.2265 20.1314 18.6354 20.1314ZM18.6354 24.7189C17.6968 24.7189 16.9331 23.9553 16.9331 23.0166C16.9331 22.0782 17.6967 21.3147 18.6354 21.3147C19.5741 21.3147 20.3377 22.0782 20.3377 23.0166C20.3377 23.9552 19.5741 24.7189 18.6354 24.7189Z" fill="#3C83F6" stroke="#3C83F6" stroke-width="0.5"/>
</svg>
