<svg width="44" height="44" viewBox="0 0 44 44" fill="none" xmlns="http://www.w3.org/2000/svg">
<path d="M25.107 5.32285L26.7784 2.43158C26.8313 2.33461 26.9031 2.24919 26.9895 2.18037C27.076 2.11155 27.1753 2.06071 27.2816 2.03085C27.388 2.00098 27.4993 1.99269 27.6089 2.00646C27.7185 2.02024 27.8242 2.0558 27.9199 2.11105C28.0156 2.16631 28.0992 2.24014 28.1659 2.3282C28.2326 2.41627 28.2811 2.51679 28.3083 2.62384C28.3356 2.7309 28.3412 2.84233 28.3248 2.95157C28.3084 3.06082 28.2702 3.16568 28.2127 3.25998L26.5459 6.15125C26.4727 6.27746 26.3676 6.38218 26.2411 6.45489C26.1146 6.5276 25.9712 6.56573 25.8254 6.56545C25.6805 6.56646 25.5381 6.52826 25.4133 6.45492C25.2226 6.34539 25.0832 6.1646 25.0257 5.9523C24.9683 5.74001 24.9975 5.51359 25.107 5.32285ZM29.0851 10.68H32.4095C32.6293 10.68 32.8401 10.7673 32.9955 10.9227C33.1509 11.0782 33.2383 11.2889 33.2383 11.5088C33.2383 11.7286 33.1509 11.9394 32.9955 12.0948C32.8401 12.2502 32.6293 12.3375 32.4095 12.3375H29.0853C28.8655 12.3375 28.6547 12.2502 28.4993 12.0948C28.3439 11.9394 28.2566 11.7286 28.2566 11.5088C28.2566 11.2889 28.3439 11.0782 28.4993 10.9227C28.6547 10.7673 28.8655 10.68 29.0853 10.68H29.0851ZM27.6117 7.56944L30.5078 5.91223C30.6023 5.85774 30.7067 5.82245 30.8149 5.80841C30.9231 5.79437 31.033 5.80186 31.1383 5.83043C31.2436 5.859 31.3422 5.9081 31.4284 5.97491C31.5147 6.04171 31.5869 6.1249 31.6409 6.2197C31.6949 6.3145 31.7296 6.41904 31.7431 6.52731C31.7566 6.63557 31.7485 6.74543 31.7194 6.85057C31.6903 6.95571 31.6406 7.05406 31.5734 7.13996C31.5061 7.22587 31.4225 7.29763 31.3275 7.35113L28.4385 9.00866C28.2478 9.11629 28.0223 9.14417 27.8111 9.08623C27.5999 9.02829 27.4202 8.88922 27.3112 8.69934C27.2021 8.50946 27.1725 8.28417 27.2289 8.07258C27.2852 7.86098 27.423 7.68024 27.612 7.56976L27.6117 7.56944ZM20.4177 6.7226L25.5837 15.6689L19.0478 16.203L16.6926 12.1189L20.4177 6.7226ZM20.2584 21.9239C20.2261 22.0515 20.1462 22.1619 20.0351 22.2325C19.8947 22.2992 19.5194 22.4236 19.3053 22.0529L17.4248 18.7975L18.3296 18.2749L20.2082 21.5324C20.2429 21.5907 20.2654 21.6555 20.2741 21.7228C20.2828 21.7902 20.2776 21.8585 20.2588 21.9238L20.2584 21.9239ZM14.0679 18.8205C13.8691 18.9323 13.6501 19.0033 13.4236 19.0294C13.1971 19.0555 12.9676 19.0362 12.7487 18.9725C12.1762 18.8025 11.6904 18.4199 11.391 17.9033C11.0915 17.3866 11.0009 16.775 11.1379 16.1937C11.1932 15.9708 11.292 15.761 11.4287 15.5765C11.5654 15.392 11.7373 15.2363 11.9345 15.1186L15.3671 13.1364L17.5008 16.8384L15.8778 17.7754L14.0679 18.8205ZM11.1055 13.6844C10.7187 13.9108 10.3808 14.2118 10.1112 14.5698C9.84172 14.9279 9.64599 15.3359 9.5354 15.7702C9.2864 16.7756 9.43741 17.8384 9.95662 18.7347C10.4758 19.6309 11.3227 20.2906 12.3187 20.5748C12.6198 20.6558 12.9302 20.6968 13.2419 20.6966C13.8228 20.6989 14.394 20.5472 14.8972 20.2569L15.9885 19.6261L17.8717 22.886C18.0576 23.2147 18.3277 23.488 18.6542 23.6777C18.9807 23.8675 19.3518 23.9669 19.7295 23.9657C20.1046 23.9628 20.4738 23.8713 20.8069 23.6987C20.8212 23.6919 20.835 23.6842 20.8483 23.6756C21.3467 23.3853 21.7102 22.9097 21.8594 22.3525C22.0086 21.7953 21.9315 21.2017 21.6449 20.7012L19.9643 17.7912L27.0227 17.2134C27.162 17.2025 27.2963 17.1564 27.4131 17.0796C27.5298 17.0027 27.6251 16.8975 27.6902 16.7738C27.7552 16.6502 27.7879 16.512 27.7851 16.3723C27.7823 16.2326 27.7442 16.0958 27.6742 15.9748L21.1959 4.75897C21.1256 4.63835 21.0261 4.53726 20.9067 4.46491C20.7873 4.39256 20.6516 4.35126 20.5122 4.34478C20.3716 4.33725 20.2314 4.36639 20.1055 4.42936C19.9796 4.49232 19.8722 4.58693 19.7939 4.70391L15.2539 11.2881L11.1055 13.6844ZM36.0034 30.5313C36.002 31.3248 35.6859 32.0854 35.1244 32.646C34.5628 33.2067 33.8018 33.5217 33.0083 33.5218H9.65072C8.8574 33.5217 8.09657 33.2067 7.53536 32.6459C6.97414 32.0852 6.65845 31.3247 6.65761 30.5313V29.866H36.0034V30.5313ZM24.3774 39.3421H18.2835L20.687 35.182H21.9762L24.3774 39.3421ZM37.661 12.0153C37.661 9.74528 35.9573 7.77004 33.7012 7.42244C33.4839 7.38886 33.2621 7.443 33.0846 7.57296C32.9072 7.70291 32.7886 7.89804 32.755 8.11541C32.7214 8.33277 32.7756 8.55458 32.9055 8.73203C33.0355 8.90947 33.2306 9.02803 33.448 9.06161C34.1546 9.17184 34.7992 9.52918 35.2671 10.07C35.7351 10.6109 35.9959 11.3002 36.0034 12.0153V28.2086H6.65761V12.0153C6.65845 11.222 6.9741 10.4615 7.53524 9.90076C8.09638 9.34005 8.85713 9.02497 9.6504 9.02474H14.3284C14.5485 9.02474 14.7596 8.9373 14.9153 8.78165C15.0709 8.62601 15.1584 8.41491 15.1584 8.1948C15.1584 7.97468 15.0709 7.76358 14.9153 7.60794C14.7596 7.45229 14.5485 7.36485 14.3284 7.36485H9.6504C8.41743 7.36612 7.23532 7.85648 6.36347 8.72833C5.49163 9.60017 5.00127 10.7823 5 12.0153V28.9201C5.00116 28.9402 5.00347 28.9601 5.0069 28.9799C5.00347 28.999 5.00116 29.0182 5 29.0375V30.5319C5.00165 31.7647 5.49214 32.9466 6.3639 33.8184C7.23566 34.6902 8.41754 35.1806 9.6504 35.1823H18.7693L16.1287 39.7567C16.0554 39.8824 16.0165 40.0253 16.0161 40.1709C16.0157 40.3165 16.0538 40.4596 16.1264 40.5858C16.1991 40.712 16.3038 40.8167 16.4299 40.8895C16.556 40.9622 16.6991 41.0003 16.8447 41H25.8163C25.9618 41 26.1047 40.9617 26.2308 40.889C26.3569 40.8163 26.4616 40.7117 26.5345 40.5858C26.608 40.4601 26.6467 40.3172 26.6467 40.1716C26.6467 40.026 26.608 39.8831 26.5345 39.7574L23.8869 35.183H33.0083C34.2415 35.1818 35.4239 34.6916 36.2961 33.8198C37.1683 32.948 37.6592 31.7658 37.661 30.5326V29.0383C37.661 29.0198 37.6518 28.9991 37.6518 28.9807C37.6518 28.96 37.661 28.9415 37.661 28.9208V12.0153Z" fill="#3C83F6" stroke="#3C83F6" stroke-width="0.5"/>
</svg>
