<svg width="44" height="44" viewBox="0 0 44 44" fill="none" xmlns="http://www.w3.org/2000/svg">
<path d="M26.3633 28.4085C26.3633 28.3843 26.3714 28.34 26.3875 28.2753L28.64 20.8878C28.7045 20.6859 28.8519 20.5304 29.082 20.4213C29.3122 20.3123 29.5765 20.2578 29.8753 20.2578C30.174 20.2578 30.4385 20.3123 30.6686 20.4213C30.8988 20.5304 31.0459 20.6859 31.1107 20.8878L33.3753 28.2753C33.3914 28.34 33.3998 28.3843 33.3998 28.4085C33.3998 28.6185 33.2684 28.8003 33.0061 28.9537C32.7438 29.107 32.4712 29.1835 32.1886 29.1835C31.8414 29.1835 31.6354 29.0668 31.571 28.8325L31.1593 27.3187H28.6038L28.1921 28.8325C28.1274 29.0668 27.9214 29.1835 27.5744 29.1835C27.2916 29.1835 27.0191 29.107 26.7567 28.9537C26.4943 28.8004 26.3634 28.6185 26.3634 28.4085H26.3633ZM28.9912 25.8654H30.7594L29.8753 22.6197L28.9912 25.8654Z" fill="#A856F7" stroke="#A856F7" stroke-width="0.4"/>
<path d="M35.8346 15.7401H27.7378V11.7662C27.7378 8.58671 25.1513 6 21.9717 6H6.76618C3.58671 6 1 8.58679 1 11.7662V18.5357C1 21.6717 3.51614 24.2309 6.63605 24.3006C6.61528 24.9582 6.54193 25.6907 6.4164 26.4887C6.33155 27.0274 6.53202 27.5568 6.95206 27.905C7.23389 28.1385 7.57741 28.2599 7.92838 28.2599C8.10308 28.2599 8.27967 28.2296 8.45159 28.1683C9.5946 27.7596 11.5829 26.7263 12.6083 24.3018H18.3227V28.276C18.3227 31.4554 20.9095 34.0422 24.0888 34.0422H29.9926C31.0182 36.4667 33.0062 37.4997 34.1495 37.9086C34.3173 37.9689 34.4942 37.9998 34.6724 38C35.0234 38 35.3669 37.8786 35.6487 37.6451C36.0691 37.2972 36.2692 36.7675 36.1843 36.2288C36.0589 35.4312 35.9854 34.6983 35.9646 34.0406C39.0846 33.9712 41.6008 31.412 41.6008 28.276V21.5066C41.6008 18.3269 39.014 15.7401 35.8346 15.7401ZM40.0148 28.2757C40.0148 30.5809 38.1396 32.4562 35.8346 32.4562H35.1733C34.9681 32.4563 34.7709 32.5358 34.6232 32.6781C34.4754 32.8204 34.3886 33.0145 34.3809 33.2195C34.3466 34.1352 34.4215 35.2001 34.604 36.3862C33.4495 35.9559 31.9689 35.0211 31.292 32.9977C31.2393 32.84 31.1383 32.7029 31.0034 32.6058C30.8685 32.5086 30.7065 32.4563 30.5402 32.4562H24.0888C21.784 32.4562 19.9086 30.5809 19.9086 28.2757V21.5062C19.9086 20.7953 20.0902 20.0935 20.4333 19.4767C20.484 19.3857 20.5163 19.2856 20.5282 19.1822C20.5402 19.0787 20.5317 18.9739 20.5032 18.8737C20.4746 18.7736 20.4266 18.68 20.3619 18.5984C20.2972 18.5168 20.2171 18.4488 20.1261 18.3981C19.7435 18.185 19.2606 18.3228 19.0475 18.7054C18.5733 19.5576 18.3227 20.5259 18.3227 21.5062V22.7159H12.0605C11.8942 22.7159 11.7321 22.7681 11.5972 22.8653C11.4622 22.9625 11.3612 23.0996 11.3085 23.2573C10.632 25.2807 9.15132 26.2159 7.99682 26.6457C8.17896 25.4597 8.25398 24.3948 8.21988 23.4791C8.21217 23.2741 8.12527 23.08 7.97746 22.9376C7.82964 22.7953 7.63241 22.7158 7.42722 22.7159H6.76618C4.46122 22.7159 2.58597 20.8405 2.58597 18.5357V11.7662C2.58597 9.46122 4.46122 7.58597 6.76618 7.58597H21.9717C24.2765 7.58597 26.1519 9.46122 26.1519 11.7662V15.7404H25.0274C24.5895 15.7404 24.2344 16.0954 24.2344 16.5334C24.2344 16.9713 24.5895 17.3264 25.0274 17.3264H35.8346C38.1396 17.3264 40.0148 19.2016 40.0148 21.5066V28.2757Z" fill="#A856F7" stroke="#A856F7" stroke-width="0.4"/>
<path d="M17.462 12.5421C17.9 12.5421 18.255 12.1872 18.255 11.7492C18.255 11.3111 17.9 10.9562 17.462 10.9562H14.4368V9.76955C14.4368 9.3315 14.0819 8.97656 13.6439 8.97656C13.2061 8.97656 12.8509 9.3315 12.8509 9.76955V10.9562H9.82619C9.38814 10.9562 9.0332 11.3112 9.0332 11.7492C9.0332 12.1871 9.38814 12.5421 9.82619 12.5421H15.0821C14.9319 13.2023 14.5611 14.2681 13.6473 15.4685C13.2075 14.8908 12.898 14.3521 12.6815 13.8881C12.4962 13.4913 12.0242 13.3197 11.6274 13.5052C11.2306 13.6905 11.059 14.1622 11.2442 14.559C11.5311 15.1733 11.9542 15.8984 12.575 16.6697C11.8126 17.4076 10.8282 18.1609 9.5557 18.8755C9.1738 19.0899 9.03812 19.5731 9.25246 19.955C9.3214 20.078 9.4219 20.1803 9.54359 20.2515C9.66529 20.3227 9.80377 20.3601 9.94474 20.3599C10.0804 20.36 10.2138 20.325 10.332 20.2583C11.712 19.4836 12.7958 18.6587 13.6477 17.8393C14.4923 18.6534 15.5731 19.4823 16.9559 20.2583C17.0467 20.3093 17.1467 20.3419 17.2501 20.3543C17.3535 20.3666 17.4584 20.3585 17.5586 20.3304C17.6589 20.3022 17.7527 20.2546 17.8345 20.1902C17.9164 20.1258 17.9847 20.0459 18.0357 19.955C18.2501 19.5731 18.1141 19.0899 17.7325 18.8755C16.4587 18.1606 15.4774 17.4051 14.7198 16.6706C16.0923 14.963 16.5467 13.4048 16.6963 12.5421H17.462ZM21.8339 16.2815H21.832C21.3943 16.2815 21.04 16.6366 21.04 17.0745C21.04 17.5125 21.3962 17.8675 21.8339 17.8675C22.2719 17.8675 22.6269 17.5126 22.6269 17.0745C22.6269 16.6365 22.2719 16.2815 21.8339 16.2815Z" fill="#A856F7" stroke="#A856F7" stroke-width="0.4"/>
</svg>
