<svg width="44" height="44" viewBox="0 0 44 44" fill="none" xmlns="http://www.w3.org/2000/svg">
<path d="M26.0978 7.45217C26.0265 7.23277 25.897 7.03686 25.7231 6.88532C25.5492 6.73379 25.3373 6.63232 25.1102 6.59175L23.4227 6.2995L22.6305 4.70817C22.4117 4.27183 21.9789 4 21.5 4C21.0211 4 20.5882 4.27183 20.3695 4.70875L19.5773 6.30008L17.8903 6.59233C17.663 6.63256 17.451 6.7339 17.2769 6.88548C17.1028 7.03705 16.9733 7.23315 16.9022 7.45275C16.826 7.67824 16.8126 7.92019 16.8633 8.15272C16.9141 8.38525 17.0271 8.5996 17.1903 8.77283L18.4037 10.0573L18.1458 11.8458C18.1097 12.0838 18.1404 12.3271 18.2343 12.5487C18.3282 12.7704 18.4817 12.9616 18.6778 13.1012C18.8648 13.2342 19.085 13.313 19.3139 13.3288C19.5429 13.3445 19.7717 13.2966 19.9752 13.1904L21.4994 12.3965L23.0237 13.1904C23.2271 13.2971 23.4561 13.3453 23.6853 13.3295C23.9144 13.3138 24.1347 13.2347 24.3216 13.1012C24.5177 12.9616 24.6713 12.7704 24.7652 12.5488C24.8591 12.3272 24.8897 12.0838 24.8536 11.8458L24.5957 10.0573L25.8091 8.77283C25.9723 8.5996 26.0853 8.38525 26.1361 8.15272C26.1868 7.92019 26.1734 7.67824 26.0972 7.45275L26.0978 7.45217ZM24.9621 7.97133L23.5551 9.46117C23.4946 9.52495 23.4494 9.60159 23.4229 9.68535C23.3963 9.7691 23.389 9.85779 23.4017 9.94475L23.7003 12.0121C23.712 12.0949 23.6671 12.1357 23.6478 12.1497C23.607 12.1772 23.579 12.1637 23.5632 12.1562L21.7695 11.2211C21.6862 11.178 21.5938 11.1555 21.5 11.1555C21.4062 11.1555 21.3138 11.178 21.2305 11.2211L19.4367 12.1562C19.421 12.1643 19.3924 12.1772 19.3522 12.1497C19.3329 12.1357 19.2886 12.0943 19.2997 12.0121L19.5983 9.94475C19.611 9.85779 19.6037 9.7691 19.5771 9.68535C19.5506 9.60159 19.5054 9.52495 19.4449 9.46117L18.0379 7.97133C18.0197 7.95132 18.0074 7.92671 18.0023 7.90017C17.9971 7.87363 17.9994 7.84618 18.0087 7.82083C18.0239 7.77475 18.0507 7.7485 18.0892 7.7415L20.0679 7.3985C20.2505 7.36642 20.4074 7.24975 20.4908 7.0835L21.4148 5.2285C21.4224 5.21333 21.4457 5.16667 21.5 5.16667C21.5542 5.16667 21.5782 5.21275 21.5852 5.22792L22.5092 7.0835C22.5926 7.24975 22.7489 7.36642 22.9321 7.3985L24.9113 7.7415C24.9487 7.7485 24.9755 7.77475 24.9912 7.82083C25.0008 7.84616 25.0031 7.87364 24.9979 7.90021C24.9928 7.92677 24.9804 7.95139 24.9621 7.97133ZM15.5978 12.1188C15.5265 11.8994 15.397 11.7035 15.2231 11.552C15.0492 11.4005 14.8373 11.299 14.6102 11.2584L12.9227 10.9662L12.1305 9.37483C11.9129 8.9385 11.4801 8.66667 11.0006 8.66667C10.5211 8.66667 10.0888 8.9385 9.87008 9.37542L9.07792 10.9667L7.39092 11.259C7.16363 11.2992 6.95157 11.4006 6.77749 11.5521C6.60341 11.7037 6.47386 11.8998 6.40275 12.1194C6.32658 12.3449 6.31315 12.5869 6.36391 12.8194C6.41467 13.0519 6.52771 13.2663 6.69092 13.4395L7.90425 14.724L7.64642 16.5125C7.61033 16.7505 7.64095 16.9938 7.73487 17.2154C7.82879 17.437 7.98233 17.6283 8.17842 17.7678C8.3654 17.9009 8.58554 17.9797 8.8145 17.9954C9.04345 18.0112 9.27231 17.9633 9.47575 17.8571L11 17.0632L12.5242 17.8571C12.7277 17.9638 12.9567 18.012 13.1858 17.9962C13.415 17.9805 13.6353 17.9014 13.8222 17.7678C14.0183 17.6283 14.1719 17.4371 14.2658 17.2154C14.3597 16.9938 14.3903 16.7505 14.3542 16.5125L14.0963 14.724L15.3097 13.4395C15.4729 13.2663 15.5859 13.0519 15.6367 12.8194C15.6874 12.5869 15.674 12.3443 15.5978 12.1188ZM14.4621 12.638L13.0551 14.1278C12.9946 14.1916 12.9494 14.2683 12.9229 14.352C12.8963 14.4358 12.889 14.5245 12.9017 14.6114L13.2003 16.6787C13.212 16.7616 13.1671 16.8024 13.1478 16.8164C13.107 16.8438 13.079 16.831 13.0632 16.8228L11.2695 15.8877C11.1862 15.8446 11.0938 15.8221 11 15.8221C10.9062 15.8221 10.8138 15.8446 10.7305 15.8877L8.93675 16.8228C8.921 16.8316 8.893 16.8438 8.85217 16.8164C8.83292 16.8024 8.78858 16.761 8.79967 16.6787L9.09833 14.6114C9.11095 14.5245 9.10371 14.4358 9.07713 14.352C9.05056 14.2683 9.00536 14.1916 8.94492 14.1278L7.53792 12.638C7.51974 12.618 7.5074 12.5934 7.50226 12.5668C7.49712 12.5403 7.49936 12.5129 7.50875 12.4875C7.52392 12.4414 7.55075 12.4152 7.58925 12.4082L9.56792 12.0652C9.7505 12.0331 9.90742 11.9164 9.99083 11.7502L10.9148 9.89517C10.9224 9.88 10.9457 9.83333 11 9.83333C11.0542 9.83333 11.0782 9.87942 11.0852 9.89458L12.0092 11.7502C12.0926 11.9164 12.2489 12.0331 12.4321 12.0652L14.4113 12.4082C14.4487 12.4152 14.4755 12.4414 14.4912 12.4875C14.5008 12.5128 14.5031 12.5403 14.4979 12.5669C14.4928 12.5934 14.4804 12.6181 14.4621 12.638ZM36.5978 12.1188C36.5265 11.8994 36.397 11.7035 36.2231 11.552C36.0492 11.4005 35.8373 11.299 35.6102 11.2584L33.9227 10.9662L33.1305 9.37483C32.9129 8.9385 32.4801 8.66667 32.0006 8.66667C31.5211 8.66667 31.0888 8.9385 30.8701 9.37542L30.0779 10.9667L28.3909 11.259C28.1636 11.2992 27.9516 11.4006 27.7775 11.5521C27.6034 11.7037 27.4739 11.8998 27.4027 12.1194C27.3266 12.3449 27.3132 12.5869 27.3639 12.8194C27.4147 13.0519 27.5277 13.2663 27.6909 13.4395L28.9042 14.724L28.6464 16.5125C28.6103 16.7505 28.641 16.9938 28.7349 17.2154C28.8288 17.437 28.9823 17.6283 29.1784 17.7678C29.3654 17.9009 29.5855 17.9797 29.8145 17.9954C30.0435 18.0112 30.2723 17.9633 30.4757 17.8571L32 17.0632L33.5242 17.8571C33.7276 17.9638 33.9567 18.012 34.1858 17.9962C34.415 17.9805 34.6353 17.9014 34.8222 17.7678C35.0183 17.6283 35.1719 17.4371 35.2658 17.2154C35.3597 16.9938 35.3903 16.7505 35.3542 16.5125L35.0963 14.724L36.3097 13.4395C36.4729 13.2663 36.5859 13.0519 36.6367 12.8194C36.6874 12.5869 36.674 12.3443 36.5978 12.1188ZM35.4621 12.638L34.0551 14.1278C33.9946 14.1916 33.9494 14.2683 33.9229 14.352C33.8963 14.4358 33.889 14.5245 33.9017 14.6114L34.2003 16.6787C34.212 16.7616 34.1671 16.8024 34.1478 16.8164C34.107 16.8438 34.079 16.831 34.0632 16.8228L32.2695 15.8877C32.1862 15.8446 32.0938 15.8221 32 15.8221C31.9062 15.8221 31.8138 15.8446 31.7305 15.8877L29.9367 16.8228C29.9216 16.8316 29.8924 16.8438 29.8522 16.8164C29.8329 16.8024 29.7886 16.761 29.7997 16.6787L30.0983 14.6114C30.111 14.5245 30.1037 14.4358 30.0771 14.352C30.0506 14.2683 30.0054 14.1916 29.9449 14.1278L28.5379 12.638C28.5197 12.618 28.5074 12.5934 28.5023 12.5668C28.4971 12.5403 28.4994 12.5129 28.5087 12.4875C28.5239 12.4414 28.5507 12.4152 28.5892 12.4082L30.5679 12.0652C30.7505 12.0331 30.9074 11.9164 30.9908 11.7502L31.9148 9.89517C31.9224 9.88 31.9457 9.83333 32 9.83333C32.0542 9.83333 32.0782 9.87942 32.0852 9.89458L33.0092 11.7502C33.0926 11.9164 33.2489 12.0331 33.4321 12.0652L35.4113 12.4082C35.4487 12.4152 35.4755 12.4414 35.4912 12.4875C35.5008 12.5128 35.5031 12.5403 35.4979 12.5669C35.4928 12.5934 35.4804 12.6181 35.4621 12.638ZM21.5 18C11.8505 18 4 25.8505 4 35.5C4 36.1434 4.52325 36.6667 5.16667 36.6667H12.1667C12.8101 36.6667 13.3333 36.1434 13.3333 35.5C13.3333 30.9967 16.9967 27.3333 21.5 27.3333C22.8533 27.3342 24.1851 27.6716 25.3756 28.3152C26.5661 28.9587 27.5778 29.8882 28.3198 31.02C25.7181 31.9399 23.7009 32.6825 22.2157 33.2658C21.9823 33.2028 21.7418 33.1695 21.5 33.1667C19.8917 33.1667 18.5833 34.4751 18.5833 36.0833C18.5833 37.6916 19.8917 39 21.5 39C22.6486 39 23.635 38.3268 24.1104 37.3591C25.6347 36.529 27.5912 35.402 29.5593 34.247C29.6235 34.66 29.6667 35.0777 29.6667 35.5C29.6667 36.1434 30.1899 36.6667 30.8333 36.6667H37.8333C38.4767 36.6667 39 36.1434 39 35.5C39 25.8505 31.1495 18 21.5 18ZM27.6699 28.5052C26.1175 27.1325 24.1516 26.3165 22.0833 26.1865V19.1812C26.1468 19.3247 29.8364 20.9581 32.6218 23.5533L27.6699 28.5052ZM12.1667 35.5H5.16667C5.16667 31.2061 6.83442 27.2966 9.55333 24.3782L14.5105 29.3353C13.0568 30.9815 12.1667 33.1363 12.1667 35.5ZM15.3353 28.5105L10.3782 23.5533C13.1636 20.9587 16.8526 19.3253 20.9167 19.1812V26.1958C18.8501 26.3232 16.8855 27.138 15.3353 28.5105ZM33.8987 30.3147C31.0993 31.9901 27.2213 34.2954 24.3945 35.8698C24.3465 35.1646 24.0426 34.5012 23.5399 34.0043C25.8878 33.1089 29.2945 31.895 33.8987 30.3147ZM21.4994 37.8333C20.5346 37.8333 19.7494 37.0482 19.7494 36.0833C19.7494 35.1185 20.5346 34.3333 21.4994 34.3333C22.4642 34.3333 23.2494 35.1185 23.2494 36.0833C23.2494 37.0482 22.4642 37.8333 21.4994 37.8333ZM30.8327 35.5C30.8327 34.8618 30.7651 34.2295 30.6373 33.6123C32.0087 32.8027 33.3457 32.0052 34.5002 31.3152C35.0246 30.9972 35.2177 30.3667 34.9604 29.8154C34.8415 29.5521 34.6275 29.3435 34.3614 29.2311C34.0952 29.1187 33.7965 29.111 33.5248 29.2093C32.0426 29.718 30.6881 30.1882 29.4479 30.6233C29.167 30.1665 28.8473 29.7346 28.4924 29.3324L33.4455 24.3793C36.1644 27.2977 37.8322 31.2072 37.8322 35.5012H30.8322L30.8327 35.5Z" fill="#3C83F6" stroke="#3C83F6" stroke-width="0.5"/>
</svg>
