<svg width="44" height="44" viewBox="0 0 44 44" fill="none" xmlns="http://www.w3.org/2000/svg">
<g clip-path="url(#clip0_4405_447)">
<path d="M29.0644 4.13685C28.8033 1.81362 26.8282 0 24.4365 0H18.8334C16.4417 0 14.4667 1.81362 14.2055 4.13685H9.28612C6.73302 4.13685 4.65234 6.21753 4.65234 8.77654V38.6303C4.65234 41.1893 6.73302 43.27 9.28612 43.27H33.9838C36.5369 43.27 38.6176 41.1893 38.6176 38.6303V8.79598C38.6176 6.22429 36.5302 4.13769 33.9593 4.13769H29.0644V4.13685ZM35.5118 8.79598V38.6303C35.5118 39.4754 34.8289 40.1642 33.9838 40.1642H9.28612C8.441 40.1642 7.75815 39.4746 7.75815 38.6303V8.77739C7.75815 7.93227 8.441 7.2435 9.28612 7.2435H15.7276C16.5846 7.2435 17.2801 6.54797 17.2801 5.69102V4.65998C17.2801 3.80303 17.9756 3.1075 18.8326 3.1075H24.4357C25.2926 3.1075 25.9882 3.80303 25.9882 4.65998V5.69102C25.9882 6.54797 26.6837 7.2435 27.5407 7.2435H33.9576C34.8163 7.24265 35.5118 7.93819 35.5118 8.79598Z" fill="#3C83F6"/>
<path d="M27.6235 22.8586H15.6482C14.7912 22.8586 14.0957 23.5541 14.0957 24.4111C14.0957 25.268 14.7912 25.9636 15.6482 25.9636H27.6243C28.4813 25.9636 29.1768 25.268 29.1768 24.4111C29.1768 23.5541 28.4813 22.8586 27.6235 22.8586ZM27.6235 28.2809H15.6482C14.7912 28.2809 14.0957 28.9764 14.0957 29.8334C14.0957 30.6903 14.7912 31.3858 15.6482 31.3858H27.6243C28.4813 31.3858 29.1768 30.6903 29.1768 29.8334C29.1768 28.9773 28.4813 28.2809 27.6235 28.2809ZM21.6358 33.704H15.6482C14.7912 33.704 14.0957 34.3995 14.0957 35.2565C14.0957 36.1134 14.7912 36.809 15.6482 36.809H21.6358C22.4928 36.809 23.1883 36.1134 23.1883 35.2565C23.1892 34.3995 22.4928 33.704 21.6358 33.704ZM18.4371 16.9014H20.0834V18.5477C20.0834 19.4046 20.7789 20.1002 21.6358 20.1002C22.4928 20.1002 23.1883 19.4046 23.1883 18.5477V16.9014H24.8346C25.6916 16.9014 26.3871 16.2059 26.3871 15.3489C26.3871 14.492 25.6916 13.7964 24.8346 13.7964H23.1883V12.1501C23.1883 11.2932 22.4928 10.5977 21.6358 10.5977C20.7789 10.5977 20.0834 11.2932 20.0834 12.1501V13.7964H18.4371C17.5801 13.7964 16.8846 14.492 16.8846 15.3489C16.8846 16.2059 17.5793 16.9014 18.4371 16.9014Z" fill="#3C83F6"/>
</g>
<defs>
<clipPath id="clip0_4405_447">
<rect width="43.27" height="43.27" fill="white"/>
</clipPath>
</defs>
</svg>
