<svg width="44" height="44" viewBox="0 0 44 44" fill="none" xmlns="http://www.w3.org/2000/svg">
<path d="M40.6792 30.717C40.2671 29.1775 38.6667 28.2421 37.0359 28.5842L25.6695 30.9973C25.8931 30.3825 25.8936 29.7086 25.6708 29.0935C25.4481 28.4784 25.0162 27.9611 24.4508 27.632L17.8619 23.8272C17.5975 23.6621 17.3491 23.4726 17.12 23.2613C16.5411 22.7608 15.8205 22.1385 14.4776 21.9953C13.2017 21.8597 11.5412 22.1591 9.29789 22.9352C9.22301 22.4595 8.9809 22.0262 8.61509 21.713C8.24928 21.3998 7.78375 21.2274 7.30219 21.2267H5.02008C4.48451 21.2273 3.97104 21.4403 3.59234 21.819C3.21363 22.1978 3.0006 22.7112 3 23.2468V34.4753C3.0006 35.0109 3.21363 35.5243 3.59234 35.903C3.97104 36.2817 4.48451 36.4948 5.02008 36.4954H7.29533C7.82528 36.4947 8.33378 36.2859 8.71142 35.9141C9.08906 35.5423 9.30567 35.0372 9.31465 34.5073C11.1321 34.2521 13.4409 35.5699 15.6788 36.848C17.6075 37.9495 19.4463 38.9999 20.9827 38.9999C21.2717 39.0023 21.5594 38.9604 21.8358 38.8757L38.557 34.3953C39.326 34.1886 39.9815 33.6851 40.3794 32.9954C40.7774 32.3056 40.8852 31.4862 40.6792 30.717ZM7.29533 35.2766H5.02008C4.80762 35.2764 4.60391 35.1919 4.45368 35.0417C4.30344 34.8915 4.21895 34.6878 4.21875 34.4753V23.2468C4.21895 23.0343 4.30344 22.8306 4.45368 22.6804C4.60391 22.5302 4.80762 22.4457 5.02008 22.4455H7.29533C7.5078 22.4457 7.7115 22.5302 7.86174 22.6804C8.01197 22.8306 8.09646 23.0343 8.09666 23.2468V34.4753C8.09646 34.6878 8.01197 34.8915 7.86174 35.0417C7.7115 35.1919 7.5078 35.2764 7.29533 35.2766ZM38.2417 33.22L21.5098 37.7019L21.4816 37.7103C20.3063 38.0858 18.2618 36.9189 16.2851 35.79C13.9291 34.4433 11.5008 33.0585 9.3177 33.2763V24.2187C14.2955 22.4333 15.3254 23.3222 16.3255 24.1829C16.6119 24.4458 16.9231 24.6802 17.2548 24.883L23.8437 28.687C24.0216 28.7902 24.1774 28.9275 24.3023 29.0909C24.4271 29.2544 24.5186 29.4408 24.5714 29.6396C24.6242 29.8384 24.6373 30.0457 24.61 30.2495C24.5827 30.4534 24.5155 30.6499 24.4123 30.8278C24.3091 31.0057 24.1718 31.1615 24.0084 31.2864C23.8449 31.4113 23.6585 31.5027 23.4597 31.5555C23.2609 31.6083 23.0536 31.6214 22.8498 31.5941C22.6459 31.5668 22.4494 31.4997 22.2715 31.3964L16.7704 28.2208C16.6308 28.145 16.4671 28.1267 16.3142 28.1698C16.1613 28.2129 16.0313 28.314 15.9519 28.4515C15.8724 28.5891 15.8498 28.7522 15.8889 28.9062C15.928 29.0601 16.0256 29.1928 16.161 29.2758L21.6621 32.4522C22.0837 32.6962 22.5621 32.8247 23.0492 32.8247C23.4863 32.824 23.9172 32.7212 24.3076 32.5245C24.3362 32.5226 24.3647 32.5188 24.3929 32.5131L37.2857 29.7831C38.2996 29.5683 39.251 30.1068 39.5001 31.0354C39.6216 31.4916 39.5575 31.9774 39.3216 32.3864C39.0858 32.7955 38.6975 33.0944 38.2417 33.2177V33.22ZM7.17346 24.6461C7.17406 24.8472 7.11496 25.044 7.00364 25.2115C6.89232 25.379 6.73379 25.5097 6.54812 25.5871C6.36246 25.6645 6.15801 25.685 5.96068 25.646C5.76335 25.6071 5.58201 25.5105 5.43963 25.3684C5.29724 25.2264 5.20022 25.0453 5.16085 24.848C5.12148 24.6508 5.14154 24.4463 5.21847 24.2604C5.29541 24.0746 5.42576 23.9158 5.59303 23.8041C5.7603 23.6924 5.95695 23.6328 6.15809 23.633C6.4268 23.6336 6.68437 23.7404 6.87459 23.9302C7.06482 24.12 7.17225 24.3774 7.17346 24.6461ZM19.2041 17.9513H20.2354C20.4398 18.686 20.7329 19.393 21.1083 20.0567L20.3794 20.7864C20.1881 20.9752 20.0722 21.2272 20.0533 21.4952C20.0343 21.7633 20.1137 22.0291 20.2766 22.2428C20.9212 23.0983 21.6825 23.8592 22.5381 24.5036C22.7516 24.6669 23.0174 24.7466 23.2856 24.7278C23.5537 24.709 23.8058 24.593 23.9945 24.4016L24.7242 23.6726C25.3878 24.0481 26.0945 24.3417 26.8289 24.547V25.5784C26.8272 25.8472 26.9237 26.1073 27.1 26.31C27.2764 26.5128 27.5207 26.6443 27.7871 26.6799C28.8483 26.8293 29.9252 26.8293 30.9863 26.6799C31.2531 26.6444 31.4978 26.5128 31.6744 26.3097C31.8509 26.1066 31.9473 25.846 31.9453 25.5769V24.547C32.6799 24.3424 33.3869 24.0493 34.0507 23.6741L34.7797 24.4031C34.9684 24.5945 35.2205 24.7105 35.4886 24.7293C35.7567 24.7481 36.0225 24.6684 36.2361 24.5052C37.0915 23.8604 37.8522 23.0989 38.4961 22.2428C38.659 22.0292 38.7386 21.7634 38.7198 21.4954C38.701 21.2273 38.5852 20.9753 38.394 20.7864L37.6643 20.0567C38.0398 19.3933 38.3329 18.6865 38.5372 17.9521H39.5694C39.8382 17.9539 40.0984 17.8575 40.3012 17.6811C40.504 17.5047 40.6354 17.2603 40.6708 16.9938C40.8203 15.9327 40.8203 14.8558 40.6708 13.7946C40.6352 13.5283 40.5037 13.2841 40.3009 13.1079C40.0982 12.9316 39.838 12.8353 39.5694 12.8371H38.5365C38.3317 12.1025 38.0383 11.3955 37.6628 10.7317L38.3925 10.0028C38.5827 9.81437 38.698 9.56334 38.717 9.29632C38.7361 9.02931 38.6576 8.76445 38.4961 8.55095C37.8519 7.69493 37.0906 6.93365 36.2346 6.2894C36.021 6.12615 35.7552 6.04644 35.4871 6.06523C35.2189 6.08402 34.9669 6.20003 34.7782 6.39147L34.0492 7.1212C33.386 6.74486 32.6795 6.45046 31.9453 6.24446V5.21309C31.9472 4.94433 31.8509 4.68412 31.6747 4.48122C31.4984 4.27832 31.2542 4.14665 30.9878 4.11088C29.9266 3.96304 28.8499 3.96304 27.7886 4.11088C27.5223 4.14681 27.2782 4.27852 27.102 4.48139C26.9258 4.68425 26.8295 4.94438 26.8311 5.21309V6.24446C26.096 6.44921 25.3885 6.74259 24.7242 7.11815L23.9945 6.38842C23.8056 6.19727 23.5536 6.08148 23.2856 6.06269C23.0175 6.0439 22.7518 6.12342 22.5381 6.28635C21.6819 6.93154 20.9206 7.69386 20.2766 8.55095C20.1136 8.76465 20.0341 9.03046 20.053 9.29856C20.0719 9.56667 20.188 9.81867 20.3794 10.0074L21.1083 10.7363C20.7328 11.4 20.4396 12.107 20.2354 12.8417H19.2041C18.9353 12.8399 18.6751 12.9361 18.4722 13.1124C18.2693 13.2886 18.1376 13.5328 18.1018 13.7992C17.9524 14.8604 17.9524 15.9372 18.1018 16.9984C18.1385 17.264 18.2705 17.5072 18.4734 17.6826C18.6762 17.8579 18.9359 17.9535 19.2041 17.9513ZM19.2962 14.0574H20.71C20.8486 14.0574 20.9831 14.0102 21.0912 13.9235C21.1994 13.8368 21.2747 13.7159 21.3049 13.5806C21.5125 12.6525 21.8795 11.7675 22.3896 10.9648C22.4637 10.8479 22.4958 10.7092 22.4806 10.5716C22.4653 10.4339 22.4037 10.3056 22.3058 10.2077L21.3064 9.20755C21.8513 8.49655 22.4875 7.86038 23.1985 7.31544L24.1979 8.31557C24.2958 8.41367 24.4243 8.47543 24.5621 8.49066C24.6999 8.5059 24.8388 8.47369 24.9558 8.39936C25.7585 7.88933 26.6435 7.52233 27.5715 7.31467C27.7062 7.28449 27.8266 7.20951 27.9131 7.102C27.9995 6.99448 28.047 6.8608 28.0476 6.72282V5.30526C28.9358 5.18948 29.8353 5.18948 30.7235 5.30526V6.72282C30.7235 6.86143 30.7707 6.9959 30.8574 7.10405C30.9441 7.21221 31.0651 7.28757 31.2004 7.31772C32.1279 7.52416 33.0127 7.88987 33.8153 8.3986C33.9324 8.47293 34.0712 8.50513 34.209 8.4899C34.3468 8.47467 34.4753 8.41291 34.5733 8.31481L35.5734 7.31467C36.284 7.85984 36.9199 8.49599 37.4647 9.20679L36.4654 10.2069C36.3675 10.3048 36.3058 10.4332 36.2906 10.5708C36.2754 10.7084 36.3074 10.8471 36.3816 10.9641C36.8917 11.7662 37.2587 12.6507 37.4663 13.5783C37.4966 13.7134 37.572 13.8342 37.6801 13.9208C37.7883 14.0073 37.9227 14.0544 38.0612 14.0544H39.4749C39.5917 14.9425 39.5917 15.8421 39.4749 16.7303H38.0604C37.922 16.7304 37.7878 16.7776 37.6798 16.8641C37.5719 16.9506 37.4965 17.0713 37.4663 17.2064C37.2589 18.1352 36.8919 19.021 36.3816 19.8244C36.3074 19.9413 36.2754 20.08 36.2906 20.2177C36.3058 20.3553 36.3675 20.4836 36.4654 20.5815L37.4655 21.5817C36.9202 22.2923 36.284 22.9284 35.5734 23.4738L34.5733 22.4744C34.4753 22.3766 34.3469 22.3151 34.2093 22.3C34.0716 22.2849 33.933 22.3172 33.8161 22.3914C33.0133 22.9016 32.128 23.2686 31.1996 23.4761C31.0646 23.5063 30.9439 23.5817 30.8574 23.6896C30.7708 23.7976 30.7236 23.9318 30.7235 24.0702V25.4847C29.8353 25.6005 28.9358 25.6005 28.0476 25.4847V24.0702C28.0477 23.9317 28.0006 23.7973 27.914 23.6892C27.8275 23.581 27.7067 23.5056 27.5715 23.4753C26.6432 23.2685 25.758 22.9014 24.9558 22.3906C24.8388 22.3163 24.6999 22.2841 24.5621 22.2993C24.4243 22.3146 24.2958 22.3763 24.1979 22.4744L23.1985 23.4745C22.4875 22.9296 21.8513 22.2934 21.3064 21.5824L22.3058 20.5861C22.4037 20.4882 22.4653 20.3599 22.4806 20.2222C22.4958 20.0846 22.4637 19.9459 22.3896 19.829C21.8794 19.0264 21.5123 18.1413 21.3049 17.2132C21.2747 17.0779 21.1994 16.957 21.0912 16.8703C20.9831 16.7836 20.8486 16.7364 20.71 16.7364H19.2962C19.1794 15.8485 19.1794 14.9491 19.2962 14.0612V14.0574ZM29.3859 21.5002C30.5928 21.5002 31.7726 21.1423 32.7761 20.4718C33.7796 19.8013 34.5617 18.8482 35.0236 17.7332C35.4854 16.6182 35.6063 15.3913 35.3708 14.2076C35.1354 13.0239 34.5542 11.9366 33.7008 11.0832C32.8474 10.2298 31.7601 9.64861 30.5764 9.41316C29.3927 9.17771 28.1658 9.29855 27.0508 9.7604C25.9357 10.2223 24.9827 11.0044 24.3122 12.0079C23.6417 13.0114 23.2838 14.1912 23.2838 15.398C23.2856 17.0159 23.9291 18.5669 25.0731 19.7109C26.2171 20.8549 27.7681 21.4984 29.3859 21.5002ZM29.3859 10.5147C30.3518 10.5147 31.2959 10.8011 32.099 11.3377C32.9021 11.8742 33.528 12.6369 33.8976 13.5292C34.2672 14.4216 34.3639 15.4035 34.1755 16.3507C33.9871 17.298 33.522 18.1682 32.839 18.8511C32.1561 19.5341 31.2859 19.9992 30.3386 20.1876C29.3914 20.376 28.4095 20.2793 27.5172 19.9097C26.6248 19.5401 25.8622 18.9142 25.3256 18.1111C24.789 17.308 24.5026 16.3639 24.5026 15.398C24.5032 14.1028 25.0178 12.8607 25.9334 11.9446C26.849 11.0284 28.0907 10.513 29.3859 10.5116V10.5147ZM26.8517 15.9747C26.7951 15.918 26.7503 15.8508 26.7197 15.7769C26.6891 15.7029 26.6734 15.6237 26.6734 15.5436C26.6734 15.4636 26.6892 15.3844 26.7199 15.3104C26.7506 15.2365 26.7955 15.1693 26.8521 15.1128C26.9087 15.0562 26.9759 15.0113 27.0499 14.9808C27.1238 14.9502 27.2031 14.9344 27.2831 14.9345C27.3631 14.9345 27.4424 14.9503 27.5163 14.981C27.5902 15.0116 27.6574 15.0565 27.714 15.1132L28.6928 16.092L31.0313 13.4084C31.1409 13.3002 31.2874 13.2376 31.4413 13.233C31.5953 13.2285 31.7452 13.2824 31.8611 13.3839C31.9769 13.4854 32.0499 13.627 32.0656 13.7803C32.0812 13.9335 32.0382 14.0869 31.9453 14.2098L29.1803 17.3816C29.1254 17.4446 29.0581 17.4956 28.9826 17.5315C28.9071 17.5674 28.8251 17.5874 28.7415 17.5903H28.721C28.6409 17.5903 28.5616 17.5746 28.4877 17.544C28.4137 17.5135 28.3465 17.4686 28.2898 17.412L26.8517 15.9747Z" fill="#3C83F6" stroke="#3C83F6" stroke-width="0.5"/>
</svg>
