<svg width="44" height="44" viewBox="0 0 44 44" fill="none" xmlns="http://www.w3.org/2000/svg">
<path d="M21.502 41C20.9679 40.9999 20.4427 40.8633 19.9762 40.6033L13.9268 37.2411C10.9191 35.5691 8.41288 33.1237 6.66758 30.158C4.92228 27.1922 4.00131 23.8139 4 20.3727V11.0455C3.99991 10.2693 4.28765 9.52073 4.80756 8.94445C5.32748 8.36817 6.04262 8.00516 6.81469 7.92564C9.22154 7.67026 11.5903 7.13469 13.8729 6.32981C15.9653 5.59034 17.9723 4.62866 19.8595 3.46127H19.8613C20.3554 3.1596 20.9231 3 21.502 3C22.0809 3 22.6486 3.1596 23.1427 3.46127C25.0307 4.62856 27.0383 5.59022 29.1311 6.32981C31.4137 7.13469 33.7825 7.67026 36.1894 7.92564C36.9615 8.00516 37.6766 8.36817 38.1965 8.94445C38.7164 9.52073 39.0042 10.2693 39.0041 11.0455V20.3727C39.0028 23.8139 38.0818 27.1922 36.3365 30.158C34.5912 33.1237 32.085 35.5691 29.0773 37.2411L23.0279 40.6033C22.5613 40.8633 22.0361 40.9999 21.502 41ZM21.2777 5.75359C19.2258 7.02078 17.0444 8.06487 14.7705 8.86805C12.2902 9.74367 9.71585 10.3257 7.1001 10.6021C6.989 10.6115 6.88548 10.6623 6.81002 10.7444C6.73457 10.8265 6.69267 10.934 6.69262 11.0455V20.3727C6.69358 23.3338 7.4859 26.2407 8.98756 28.7927C10.4892 31.3447 12.6456 33.449 15.2336 34.8877L21.283 38.2481C21.3497 38.2864 21.4252 38.3065 21.502 38.3065C21.5789 38.3065 21.6544 38.2864 21.721 38.2481L27.7705 34.8877C30.3584 33.449 32.5149 31.3447 34.0165 28.7927C35.5182 26.2407 36.3105 23.3338 36.3115 20.3727V11.0455C36.3114 10.934 36.2695 10.8265 36.1941 10.7444C36.1186 10.6623 36.0151 10.6115 35.904 10.6021C33.2882 10.3257 30.7139 9.74367 28.2336 8.86805C25.9597 8.06487 23.7782 7.02078 21.7264 5.75359C21.6587 5.71274 21.5811 5.69115 21.502 5.69115C21.423 5.69115 21.3454 5.71274 21.2777 5.75359Z" fill="#3C83F6"/>
<path d="M25.9909 31.385H17.0155C15.9446 31.384 14.9178 30.9582 14.1606 30.201C13.4033 29.4437 12.9775 28.4169 12.9766 27.346V21.9608C12.9775 20.8899 13.4033 19.8631 14.1606 19.1059C14.9178 18.3487 15.9446 17.9228 17.0155 17.9219H25.9909C27.0618 17.9228 28.0886 18.3487 28.8458 19.1059C29.603 19.8631 30.0289 20.8899 30.0298 21.9608V27.346C30.0289 28.4169 29.603 29.4437 28.8458 30.201C28.0886 30.9582 27.0618 31.384 25.9909 31.385ZM17.0155 20.6145C16.6584 20.6145 16.316 20.7563 16.0635 21.0088C15.811 21.2613 15.6692 21.6037 15.6692 21.9608V27.346C15.6692 27.7031 15.811 28.0456 16.0635 28.298C16.316 28.5505 16.6584 28.6924 17.0155 28.6924H25.9909C26.348 28.6924 26.6904 28.5505 26.9429 28.298C27.1954 28.0456 27.3372 27.7031 27.3372 27.346V21.9608C27.3372 21.6037 27.1954 21.2613 26.9429 21.0088C26.6904 20.7563 26.348 20.6145 25.9909 20.6145H17.0155Z" fill="#3C83F6"/>
<path d="M25.093 20.6112H17.9127C17.5557 20.6112 17.2132 20.4694 16.9607 20.2169C16.7082 19.9644 16.5664 19.622 16.5664 19.2649V15.6748C16.5664 14.3655 17.0865 13.1099 18.0123 12.1841C18.938 11.2584 20.1936 10.7383 21.5029 10.7383C22.8121 10.7383 24.0677 11.2584 24.9935 12.1841C25.9193 13.1099 26.4394 14.3655 26.4394 15.6748V19.2649C26.4394 19.622 26.2975 19.9644 26.045 20.2169C25.7925 20.4694 25.4501 20.6112 25.093 20.6112ZM19.259 17.9186H23.7467V15.6748C23.7467 15.0796 23.5103 14.5089 23.0895 14.0881C22.6687 13.6673 22.098 13.4309 21.5029 13.4309C20.9078 13.4309 20.337 13.6673 19.9162 14.0881C19.4954 14.5089 19.259 15.0796 19.259 15.6748V17.9186Z" fill="#3C83F6"/>
</svg>
