<svg width="44" height="44" viewBox="0 0 44 44" fill="none" xmlns="http://www.w3.org/2000/svg">
<path d="M8.69928 30.2348H4.89982C3.8511 30.2359 3.0012 31.0858 3.00008 32.1346V40.3667C3.00008 40.5346 3.0668 40.6957 3.18555 40.8145C3.3043 40.9332 3.46536 40.9999 3.6333 40.9999H9.96572C10.1337 40.9999 10.2947 40.9332 10.4135 40.8145C10.5322 40.6957 10.5989 40.5346 10.5989 40.3667V32.1346C10.5978 31.0858 9.74799 30.236 8.69928 30.2348ZM9.3325 39.7335H4.26652V32.1346C4.26674 31.9667 4.33352 31.8057 4.45223 31.687C4.57093 31.5683 4.73187 31.5016 4.89974 31.5013H8.69921C8.86708 31.5016 9.02802 31.5683 9.14672 31.687C9.26543 31.8057 9.33221 31.9667 9.33243 32.1346L9.3325 39.7335ZM18.8312 21.3695H15.0317C13.983 21.3706 13.1331 22.2205 13.132 23.2692V40.3668C13.132 40.5347 13.1987 40.6958 13.3174 40.8145C13.4362 40.9333 13.5972 41 13.7652 41H20.0976C20.2655 41 20.4266 40.9333 20.5454 40.8145C20.6641 40.6958 20.7308 40.5347 20.7308 40.3668V23.2692C20.7297 22.2204 19.8799 21.3706 18.8312 21.3695ZM19.4644 39.7335H14.3984V23.2692C14.3986 23.1013 14.4654 22.9404 14.5841 22.8217C14.7028 22.703 14.8638 22.6362 15.0316 22.636H18.8311C18.999 22.6362 19.1599 22.703 19.2786 22.8217C19.3973 22.9404 19.4641 23.1013 19.4643 23.2692L19.4644 39.7335ZM28.963 25.1689H25.1636C24.1149 25.17 23.265 26.0199 23.2638 27.0687V40.3668C23.2638 40.5347 23.3306 40.6958 23.4493 40.8145C23.5681 40.9333 23.7291 41 23.8971 41H30.2295C30.3974 41 30.5585 40.9333 30.6772 40.8145C30.796 40.6958 30.8627 40.5347 30.8627 40.3668V27.0687C30.8617 26.0199 30.0118 25.17 28.963 25.1689ZM29.5963 39.7335H24.5304V27.0687C24.5306 26.9008 24.5974 26.7398 24.7161 26.6211C24.8348 26.5024 24.9957 26.4356 25.1636 26.4354H28.963C29.1309 26.4356 29.2919 26.5024 29.4106 26.6211C29.5293 26.7398 29.5961 26.9008 29.5963 27.0687L29.5963 39.7335ZM39.095 20.1029H35.2955C34.2468 20.1041 33.3969 20.954 33.3958 22.0027V40.3668C33.3958 40.5347 33.4625 40.6958 33.5813 40.8145C33.7 40.9333 33.8611 41 34.029 41H40.3614C40.5294 41 40.6904 40.9333 40.8092 40.8145C40.9279 40.6958 40.9947 40.5347 40.9947 40.3668V22.0027C40.9935 20.954 40.1437 20.1041 39.095 20.1029ZM39.7282 39.7335H34.6622V22.0027C34.6625 21.8348 34.7292 21.6739 34.8479 21.5552C34.9667 21.4365 35.1276 21.3697 35.2955 21.3695H39.0949C39.2628 21.3697 39.4237 21.4365 39.5424 21.5552C39.6611 21.6739 39.7279 21.8348 39.7281 22.0027V39.7335H39.7282ZM34.359 10.5908C35.5191 11.8965 37.4203 12.2425 38.966 11.429C40.5117 10.6156 41.3031 8.85252 40.8836 7.15693C40.4641 5.46135 38.9419 4.27075 37.1953 4.27179C36.5709 4.27127 35.956 4.42477 35.4051 4.71868C34.8543 5.01258 34.3844 5.43782 34.0371 5.95672C33.6899 6.47562 33.4759 7.07217 33.4143 7.6935C33.3527 8.31483 33.4453 8.94176 33.6839 9.51876L29.8997 11.8842C29.5627 11.5022 29.1521 11.1922 28.6923 10.9729C28.2326 10.7535 27.7333 10.6293 27.2244 10.6077C26.7155 10.586 26.2075 10.6674 25.7308 10.8469C25.2542 11.0264 24.8186 11.3004 24.4504 11.6523L20.3058 8.54381C21.182 6.84897 20.6652 4.76713 19.0981 3.67879C17.531 2.59045 15.3997 2.83326 14.1176 4.24626C12.8355 5.65926 12.8003 7.80403 14.0354 9.25829L8.72637 15.5673C7.02403 14.5657 4.83807 15.0355 3.69757 16.6481C2.55706 18.2607 2.84232 20.4783 4.35394 21.7497C5.86556 23.0211 8.09916 22.9223 9.49257 21.5223C10.886 20.1224 10.9743 17.8883 9.69575 16.3827L15.0048 10.0736C16.4624 10.9407 18.3196 10.7289 19.5446 9.55586L23.6893 12.6644C22.8826 14.2268 23.2538 16.1387 24.5865 17.2858C25.9192 18.433 27.8651 18.5153 29.2901 17.485C30.715 16.4547 31.2466 14.5811 30.5749 12.956L34.359 10.5908ZM37.1953 5.5383C38.5942 5.5383 39.7282 6.67235 39.7282 8.07125C39.7266 9.46949 38.5935 10.6026 37.1953 10.6042C35.7964 10.6042 34.6623 9.47015 34.6623 8.07125C34.6623 6.67235 35.7963 5.5383 37.1953 5.5383ZM6.79955 21.3695C5.40065 21.3695 4.2666 20.2354 4.2666 18.8365C4.2666 17.4376 5.40065 16.3036 6.79955 16.3036C8.19845 16.3036 9.3325 17.4376 9.3325 18.8365C9.33087 20.2347 8.19778 21.3678 6.79955 21.3695ZM16.9314 9.33777C15.5325 9.33777 14.3985 8.20372 14.3985 6.80481C14.3985 5.40591 15.5325 4.27186 16.9314 4.27186C18.3303 4.27186 19.4644 5.40591 19.4644 6.80481C19.4628 8.20305 18.3297 9.33621 16.9314 9.33777ZM27.0633 16.9367C25.6644 16.9367 24.5304 15.8026 24.5304 14.4037C24.5304 13.0048 25.6644 11.8708 27.0633 11.8708C28.4622 11.8708 29.5963 13.0048 29.5963 14.4037C29.5947 15.802 28.4616 16.9351 27.0633 16.9367Z" fill="#3C83F6" stroke="#3C83F6" stroke-width="0.6"/>
</svg>
