<svg width="44" height="44" viewBox="0 0 44 44" fill="none" xmlns="http://www.w3.org/2000/svg">
<path d="M31.8761 28.8141C32.3666 28.531 32.9936 28.6991 33.2767 29.1896C33.5598 29.68 33.3918 30.3071 32.9013 30.5902L23.9046 35.7835C23.4141 36.0666 22.787 35.8985 22.5039 35.408C22.3193 35.0882 22.3265 34.7102 22.4899 34.4075C22.3094 34.7002 21.9859 34.8954 21.6167 34.8954C21.2475 34.8954 20.9239 34.7002 20.7434 34.4075C20.9068 34.7103 20.914 35.0882 20.7294 35.408C20.4507 35.8908 19.8387 36.0612 19.3519 35.7964L19.3288 35.7835L10.332 30.5902C9.84156 30.3071 9.67346 29.68 9.95656 29.1896C10.2397 28.6991 10.8668 28.531 11.3573 28.8141L20.354 34.0073C20.5062 34.0952 20.6274 34.2163 20.7137 34.3561C20.6356 34.2115 20.5913 34.0459 20.5913 33.87V23.5478C20.5913 22.9815 21.0504 22.5224 21.6167 22.5224C22.183 22.5224 22.6421 22.9815 22.6421 23.5478V33.87C22.6421 34.0457 22.5978 34.2111 22.5199 34.3556C22.6061 34.216 22.7272 34.0951 22.8793 34.0073L31.8761 28.8141ZM8.05078 26.6144V16.353C8.05078 15.7867 8.50986 15.3276 9.07617 15.3276C9.64248 15.3276 10.1016 15.7867 10.1016 16.353V26.6144C10.1015 27.1807 9.64247 27.6398 9.07617 27.6398C8.50987 27.6398 8.0508 27.1807 8.05078 26.6144ZM33.1318 26.6144V16.353C33.1318 15.7867 33.5909 15.3276 34.1572 15.3276C34.7235 15.3276 35.1826 15.7867 35.1826 16.353V26.6144C35.1826 27.1807 34.7235 27.6398 34.1572 27.6398C33.5909 27.6398 33.1318 27.1807 33.1318 26.6144ZM19.3286 7.20714C19.8194 6.92469 20.4463 7.09362 20.7287 7.58445C21.0112 8.07527 20.8423 8.70214 20.3514 8.98461L11.3595 14.1594L11.3364 14.1723C11.2001 14.2462 11.054 14.2859 10.9082 14.2944C11.0574 14.3017 11.2071 14.3419 11.3466 14.4178L11.3697 14.4307L20.3391 19.6096C20.8295 19.8928 20.9975 20.5199 20.7143 21.0104C20.4311 21.5008 19.804 21.6687 19.3136 21.3856L10.3442 16.2067L10.3215 16.1932C9.84864 15.904 9.69017 15.2887 9.96891 14.806C10.1481 14.4956 10.4651 14.3144 10.798 14.2949C10.4614 14.2782 10.1399 14.096 9.9593 13.7821C9.67684 13.2913 9.84578 12.6644 10.3366 12.3819L19.3286 7.20714ZM22.5046 7.58445C22.7871 7.09362 23.4139 6.92467 23.9048 7.20714L32.8967 12.3819L32.9195 12.3954C33.3927 12.684 33.552 13.2989 33.274 13.7821C33.0934 14.096 32.7719 14.2782 32.4353 14.2949C32.7682 14.3144 33.0852 14.4956 33.2644 14.806C33.5475 15.2964 33.3796 15.9235 32.8891 16.2067L23.9197 21.3856L23.8966 21.3985C23.4098 21.6634 22.7977 21.4931 22.519 21.0104C22.2358 20.5199 22.4038 19.8928 22.8943 19.6096L31.8637 14.4307C32.0096 14.3465 32.1676 14.3022 32.325 14.2944C32.1793 14.2859 32.0332 14.2462 31.8969 14.1723L31.8738 14.1594L22.8819 8.98461C22.391 8.70214 22.2222 8.07527 22.5046 7.58445Z" fill="#A856F7" stroke="#A856F7" stroke-width="0.5" stroke-miterlimit="10" stroke-linecap="round" stroke-linejoin="round"/>
<path d="M22.6426 7.07616C22.6426 6.50986 22.1835 6.05078 21.6172 6.05078C21.0509 6.05078 20.5918 6.50986 20.5918 7.07616C20.5918 7.64247 21.0509 8.10155 21.6172 8.10155C22.1835 8.10155 22.6426 7.64247 22.6426 7.07616ZM24.6933 7.07616C24.6933 8.77508 23.3161 10.1523 21.6172 10.1523C19.9183 10.1523 18.541 8.77508 18.541 7.07616C18.541 5.37725 19.9183 4 21.6172 4C23.3161 4 24.6933 5.37725 24.6933 7.07616Z" fill="#A856F7" stroke="#A856F7" stroke-width="0.5" stroke-miterlimit="10" stroke-linecap="round" stroke-linejoin="round"/>
<path d="M22.6426 35.9277C22.6426 35.3614 22.1835 34.9023 21.6172 34.9023C21.0509 34.9023 20.5918 35.3614 20.5918 35.9277C20.5918 36.494 21.0509 36.9531 21.6172 36.9531C22.1835 36.9531 22.6426 36.494 22.6426 35.9277ZM24.6933 35.9277C24.6933 37.6266 23.3161 39.0039 21.6172 39.0039C19.9183 39.0039 18.541 37.6266 18.541 35.9277C18.541 34.2288 19.9183 32.8516 21.6172 32.8516C23.3161 32.8516 24.6933 34.2288 24.6933 35.9277Z" fill="#A856F7" stroke="#A856F7" stroke-width="0.5" stroke-miterlimit="10" stroke-linecap="round" stroke-linejoin="round"/>
<path d="M35.1836 28.6699C35.1836 28.1036 34.7245 27.6445 34.1582 27.6445C33.5919 27.6445 33.1328 28.1036 33.1328 28.6699C33.1328 29.2362 33.5919 29.6953 34.1582 29.6953C34.7245 29.6953 35.1836 29.2362 35.1836 28.6699ZM37.2344 28.6699C37.2344 30.3688 35.8571 31.7461 34.1582 31.7461C32.4593 31.7461 31.082 30.3688 31.082 28.6699C31.082 26.971 32.4593 25.5938 34.1582 25.5938C35.8571 25.5938 37.2344 26.971 37.2344 28.6699Z" fill="#A856F7" stroke="#A856F7" stroke-width="0.5" stroke-miterlimit="10" stroke-linecap="round" stroke-linejoin="round"/>
<path d="M35.1836 14.3027C35.1836 13.7364 34.7245 13.2773 34.1582 13.2773C33.5919 13.2773 33.1328 13.7364 33.1328 14.3027C33.1328 14.869 33.5919 15.3281 34.1582 15.3281C34.7245 15.3281 35.1836 14.869 35.1836 14.3027ZM37.2344 14.3027C37.2344 16.0016 35.8571 17.3789 34.1582 17.3789C32.4593 17.3789 31.082 16.0016 31.082 14.3027C31.082 12.6038 32.4593 11.2266 34.1582 11.2266C35.8571 11.2266 37.2344 12.6038 37.2344 14.3027Z" fill="#A856F7" stroke="#A856F7" stroke-width="0.5" stroke-miterlimit="10" stroke-linecap="round" stroke-linejoin="round"/>
<path d="M22.6426 21.498C22.6426 20.9317 22.1835 20.4727 21.6172 20.4727C21.0509 20.4727 20.5918 20.9317 20.5918 21.498C20.5918 22.0643 21.0509 22.5234 21.6172 22.5234C22.1835 22.5234 22.6426 22.0643 22.6426 21.498ZM24.6933 21.498C24.6933 23.197 23.3161 24.5742 21.6172 24.5742C19.9183 24.5742 18.541 23.197 18.541 21.498C18.541 19.7991 19.9183 18.4219 21.6172 18.4219C23.3161 18.4219 24.6933 19.7991 24.6933 21.498Z" fill="#A856F7" stroke="#A856F7" stroke-width="0.5" stroke-miterlimit="10" stroke-linecap="round" stroke-linejoin="round"/>
<path d="M10.1016 28.6699C10.1016 28.1036 9.64247 27.6445 9.07616 27.6445C8.50986 27.6445 8.05078 28.1036 8.05078 28.6699C8.05078 29.2362 8.50986 29.6953 9.07616 29.6953C9.64247 29.6953 10.1016 29.2362 10.1016 28.6699ZM12.1523 28.6699C12.1523 30.3688 10.7751 31.7461 9.07616 31.7461C7.37725 31.7461 6 30.3688 6 28.6699C6 26.971 7.37725 25.5938 9.07616 25.5938C10.7751 25.5938 12.1523 26.971 12.1523 28.6699Z" fill="#A856F7" stroke="#A856F7" stroke-width="0.5" stroke-miterlimit="10" stroke-linecap="round" stroke-linejoin="round"/>
<path d="M10.1016 14.3027C10.1016 13.7364 9.64247 13.2773 9.07616 13.2773C8.50986 13.2773 8.05078 13.7364 8.05078 14.3027C8.05078 14.869 8.50986 15.3281 9.07616 15.3281C9.64247 15.3281 10.1016 14.869 10.1016 14.3027ZM12.1523 14.3027C12.1523 16.0016 10.7751 17.3789 9.07616 17.3789C7.37725 17.3789 6 16.0016 6 14.3027C6 12.6038 7.37725 11.2266 9.07616 11.2266C10.7751 11.2266 12.1523 12.6038 12.1523 14.3027Z" fill="#A856F7" stroke="#A856F7" stroke-width="0.5" stroke-miterlimit="10" stroke-linecap="round" stroke-linejoin="round"/>
</svg>
