<svg width="44" height="44" viewBox="0 0 44 44" fill="none" xmlns="http://www.w3.org/2000/svg">
<mask id="mask0_4481_512" style="mask-type:luminance" maskUnits="userSpaceOnUse" x="3" y="3" width="37" height="37">
<path d="M4 4H39V39H4V4Z" fill="white" stroke="white" stroke-width="2"/>
</mask>
<g mask="url(#mask0_4481_512)">
<path d="M34.3906 10.6093C33.5363 11.4636 32.1513 11.4636 31.297 10.6093C30.4427 9.755 30.4427 8.36997 31.297 7.51568C32.1513 6.66139 33.5363 6.66139 34.3906 7.51568C35.2449 8.36997 35.2449 9.755 34.3906 10.6093Z" stroke="#A856F7" stroke-width="2" stroke-miterlimit="10" stroke-linecap="round" stroke-linejoin="round"/>
<path d="M11.7031 35.4882C10.8488 36.3425 9.46375 36.3425 8.60947 35.4882C7.75518 34.6339 7.75518 33.2489 8.60947 32.3946C9.46375 31.5403 10.8488 31.5403 11.7031 32.3946C12.5574 33.2489 12.5574 34.6339 11.7031 35.4882Z" stroke="#A856F7" stroke-width="2" stroke-miterlimit="10" stroke-linecap="round" stroke-linejoin="round"/>
<path d="M18.1836 37.9894C19.2756 38.2074 20.3864 38.317 21.4999 38.3164C30.7874 38.3164 38.3163 30.7874 38.3163 21.5C38.3163 17.4457 36.8813 13.7267 34.4918 10.8225" stroke="#A856F7" stroke-width="2" stroke-miterlimit="10" stroke-linecap="round" stroke-linejoin="round"/>
<path d="M24.8482 5.01921C23.746 4.79694 22.6244 4.68525 21.5 4.68582C12.2126 4.68582 4.68359 12.2148 4.68359 21.5022C4.68359 25.5566 6.11859 29.2756 8.5081 32.1797" stroke="#A856F7" stroke-width="2" stroke-miterlimit="10" stroke-linecap="round" stroke-linejoin="round"/>
<path d="M21.5012 26.4649C18.7591 26.4649 16.5362 24.2421 16.5362 21.5C16.5362 18.758 18.7591 16.5351 21.5012 16.5351C24.2432 16.5351 26.4661 18.758 26.4661 21.5C26.4661 24.2421 24.2432 26.4649 21.5012 26.4649ZM31.402 19.3567C31.1458 18.1644 30.6751 17.0286 30.0129 16.0045L31.3227 14.6947L28.2992 11.6734L26.9905 12.9821C25.9665 12.32 24.8306 11.8493 23.6383 11.5932V9.74219H19.364V11.5932C18.1717 11.8493 17.0359 12.32 16.0118 12.9821L14.7031 11.6734L11.6796 14.6947L12.9894 16.0045C12.3272 17.0286 11.8565 18.1644 11.6003 19.3567H9.74451L9.74219 23.631H11.6003C11.8565 24.8233 12.3271 25.9592 12.9893 26.9833L11.6746 28.2981L14.6958 31.3216L16.0117 30.0057C17.0358 30.6679 18.1716 31.1386 19.364 31.3948V33.2578H23.6383V31.3948C24.8307 31.1386 25.9665 30.6679 26.9906 30.0057L28.3065 31.3216L31.3278 28.2981L30.013 26.9833C30.6752 25.9592 31.1458 24.8233 31.4021 23.631H33.2601V19.3567H31.402Z" stroke="#A856F7" stroke-width="2" stroke-miterlimit="10" stroke-linecap="round" stroke-linejoin="round"/>
</g>
</svg>
