<svg width="44" height="44" viewBox="0 0 44 44" fill="none" xmlns="http://www.w3.org/2000/svg">
<path d="M27.6203 7C33.3854 7 37 10.5883 37 16.3797V19.8631L36.9895 20.0184C36.9518 20.2932 36.8158 20.5452 36.6067 20.7275C36.3977 20.9099 36.1296 21.0104 35.8521 21.0104H35.8393L35.6576 20.9963C35.3871 20.9524 35.1416 20.8121 34.9664 20.6014C34.7911 20.3906 34.6981 20.1236 34.7043 19.8496V16.3797C34.7043 11.8152 32.1848 9.2957 27.6203 9.2957H16.3797C11.8023 9.2957 9.2957 11.8152 9.2957 16.3797V27.6332C9.2957 32.1977 11.8152 34.7043 16.3797 34.7043H27.6203C32.1977 34.7043 34.7043 32.1848 34.7043 27.6332C34.7043 27.4825 34.734 27.3332 34.7917 27.1939C34.8494 27.0547 34.9339 26.9281 35.0405 26.8215C35.1471 26.715 35.2736 26.6304 35.4129 26.5727C35.5521 26.515 35.7014 26.4854 35.8521 26.4854C36.0029 26.4854 36.1521 26.515 36.2914 26.5727C36.4307 26.6304 36.5572 26.715 36.6638 26.8215C36.7704 26.9281 36.8549 27.0547 36.9126 27.1939C36.9703 27.3332 37 27.4825 37 27.6332C37 33.4117 33.4117 37 27.6332 37H16.3797C10.5883 37 7 33.4117 7 27.6332V16.3797C7 10.5883 10.5883 7 16.3797 7H27.6203ZM15.6279 18.3326C15.7787 18.3376 15.927 18.3723 16.0643 18.4347C16.2017 18.4971 16.3253 18.586 16.4283 18.6963C16.5312 18.8065 16.6114 18.936 16.6641 19.0773C16.7169 19.2186 16.7413 19.369 16.7359 19.5197V29.1109C16.735 29.2645 16.7034 29.4164 16.6427 29.5576C16.5821 29.6987 16.4938 29.8262 16.383 29.9326C16.2722 30.039 16.1412 30.1221 15.9977 30.177C15.8542 30.2318 15.7012 30.2574 15.5477 30.252C15.3941 30.2467 15.2433 30.2106 15.1039 30.1459C14.9646 30.0813 14.8397 29.9893 14.7365 29.8755C14.6334 29.7616 14.5541 29.6283 14.5034 29.4833C14.4527 29.3383 14.4316 29.1845 14.4414 29.0312V19.4271L14.4619 19.2479C14.5139 18.9805 14.6604 18.7409 14.8746 18.5728C15.0889 18.4047 15.3565 18.3194 15.6285 18.3326H15.6279ZM22.0527 13.8338C22.3572 13.8338 22.6491 13.9547 22.8644 14.17C23.0797 14.3853 23.2006 14.6772 23.2006 14.9816V29.0441C23.2006 29.3486 23.0797 29.6405 22.8644 29.8558C22.6491 30.0711 22.3572 30.192 22.0527 30.192C21.7483 30.192 21.4563 30.0711 21.2411 29.8558C21.0258 29.6405 20.9049 29.3486 20.9049 29.0441V14.9816C20.9049 14.6772 21.0258 14.3853 21.2411 14.17C21.4563 13.9547 21.7483 13.8338 22.0527 13.8338ZM28.4113 23.3986C28.7156 23.3988 29.0073 23.5197 29.2224 23.7348C29.4375 23.95 29.5584 24.2417 29.5586 24.5459V29.0312C29.562 29.1841 29.5349 29.3362 29.4788 29.4784C29.4227 29.6207 29.3387 29.7503 29.2318 29.8596C29.1249 29.969 28.9972 30.0558 28.8563 30.1152C28.7153 30.1745 28.564 30.205 28.411 30.205C28.2581 30.205 28.1067 30.1745 27.9658 30.1152C27.8248 30.0558 27.6972 29.969 27.5903 29.8596C27.4834 29.7503 27.3994 29.6207 27.3433 29.4784C27.2872 29.3362 27.26 29.1841 27.2635 29.0312V24.5459C27.2635 24.3952 27.2932 24.246 27.3509 24.1067C27.4086 23.9675 27.4931 23.841 27.5997 23.7345C27.7063 23.6279 27.8328 23.5434 27.9721 23.4858C28.1114 23.4282 28.2606 23.3986 28.4113 23.3986Z" fill="#3C83F6"/>
</svg>
