<svg width="44" height="44" viewBox="0 0 44 44" fill="none" xmlns="http://www.w3.org/2000/svg">
<path d="M22.7927 40.9988H5.37513C4.06564 40.9988 3 39.9331 3 38.6236V37.0402C3 35.7307 4.06564 34.6651 5.37513 34.6651H22.7927C24.1022 34.6651 25.1679 35.7307 25.1679 37.0402V38.6236C25.1679 39.9331 24.1022 40.9988 22.7927 40.9988ZM5.37513 36.2485C5.16515 36.2485 4.96378 36.3319 4.8153 36.4804C4.66683 36.6289 4.58342 36.8303 4.58342 37.0402V38.6236C4.58342 38.8336 4.66683 39.035 4.8153 39.1835C4.96378 39.3319 5.16515 39.4154 5.37513 39.4154H22.7927C23.0027 39.4154 23.2041 39.3319 23.3526 39.1835C23.501 39.035 23.5844 38.8336 23.5844 38.6236V37.0402C23.5844 36.8303 23.501 36.6289 23.3526 36.4804C23.2041 36.3319 23.0027 36.2485 22.7927 36.2485H5.37513ZM19.9315 22.9921C19.7443 22.9981 19.5579 22.9658 19.3836 22.8972C19.2094 22.8285 19.051 22.7251 18.9181 22.5931L13.3603 17.0353C12.3881 16.0631 13.4569 14.3815 13.8068 13.8305C14.464 12.7981 15.4868 11.5662 16.6902 10.3628C17.8952 9.15623 19.1287 8.13017 20.1611 7.47305C20.7153 7.11995 22.3985 6.05114 23.3707 7.02336L28.9285 12.5812C29.9023 13.555 28.8303 15.2397 28.4788 15.7923C27.8201 16.8263 26.794 18.0598 25.5875 19.2648C24.3841 20.4682 23.1522 21.4911 22.1214 22.1466C21.7366 22.3936 20.7945 22.9921 19.9315 22.9921ZM22.2528 8.14284C21.9757 8.15392 20.2387 9.05489 17.816 11.4759C15.3934 13.8986 14.4909 15.6372 14.5479 16.0298L20.0392 21.4736C20.3178 21.4626 22.0549 20.5616 24.4791 18.139C26.8099 15.8066 27.7314 14.1107 27.7472 13.6357L22.2528 8.14284Z" fill="#A856F7" stroke="#A856F7" stroke-width="0.5"/>
<path d="M17.2558 26.6225C16.9453 26.6229 16.6377 26.5619 16.3508 26.4432C16.0639 26.3245 15.8032 26.1502 15.5837 25.9305L10.0259 20.3727C9.57941 19.9278 9.33398 19.334 9.33398 18.7022C9.33398 18.0704 9.57941 17.4767 10.0275 17.0301L11.1391 15.9186C11.5826 15.4758 12.1837 15.2272 12.8104 15.2272C13.4371 15.2272 14.0382 15.4758 14.4817 15.9186L20.0395 21.4764C20.4822 21.9199 20.7309 22.521 20.7309 23.1477C20.7309 23.7744 20.4822 24.3755 20.0395 24.819L18.9279 25.9305C18.7084 26.1501 18.4477 26.3242 18.1608 26.443C17.8738 26.5617 17.5663 26.6227 17.2558 26.6225ZM12.8096 16.81C12.6023 16.8107 12.4037 16.8932 12.257 17.0396L11.147 18.1496C11.0736 18.2217 11.0152 18.3077 10.9754 18.4026C10.9356 18.4975 10.9151 18.5993 10.9151 18.7022C10.9151 18.8051 10.9356 18.907 10.9754 19.0019C11.0152 19.0968 11.0736 19.1828 11.147 19.2548L16.7048 24.8126C16.8516 24.9582 17.0499 25.0398 17.2566 25.0398C17.4633 25.0398 17.6617 24.9582 17.8084 24.8126L18.92 23.7011C19.0659 23.5545 19.1478 23.3561 19.1478 23.1493C19.1478 22.9424 19.0659 22.744 18.92 22.5974L13.3622 17.0396C13.2155 16.8932 13.0169 16.8107 12.8096 16.81ZM29.483 14.3938C29.1725 14.3941 28.8649 14.3332 28.578 14.2145C28.291 14.0957 28.0304 13.9215 27.8109 13.7018L22.2531 8.144C21.8104 7.70075 21.5618 7.09992 21.5618 6.47349C21.5618 5.84706 21.8104 5.24624 22.2531 4.80298L23.3647 3.69142C23.8082 3.24867 24.4093 3 25.036 3C25.6626 3 26.2637 3.24867 26.7073 3.69142L32.2651 9.24922C32.7078 9.69275 32.9565 10.2938 32.9565 10.9205C32.9565 11.5472 32.7078 12.1483 32.2651 12.5918L31.1535 13.7034C30.9343 13.9228 30.6738 14.0968 30.3871 14.2153C30.1004 14.3337 29.7932 14.3944 29.483 14.3938ZM25.0367 4.58447C24.8297 4.58449 24.631 4.66646 24.4841 4.81248L23.3726 5.92404C23.2268 6.07036 23.1449 6.26851 23.1449 6.47507C23.1449 6.68164 23.2268 6.87979 23.3726 7.0261L28.9304 12.5839C29.0774 12.729 29.2756 12.8104 29.4822 12.8104C29.6888 12.8104 29.887 12.729 30.034 12.5839L31.1456 11.4739C31.2915 11.3273 31.3734 11.1289 31.3734 10.9221C31.3734 10.7153 31.2915 10.5169 31.1456 10.3703L25.5878 4.81248C25.5155 4.74001 25.4296 4.68256 25.335 4.64342C25.2405 4.60429 25.1391 4.58426 25.0367 4.58447ZM37.9891 34.6726C37.0343 34.6726 36.0067 34.1263 34.9141 33.0338C33.8216 31.9412 27.3976 24.8712 23.4106 20.1701C23.3434 20.0907 23.2925 19.999 23.2608 19.9C23.2291 19.801 23.2173 19.6967 23.2259 19.5931C23.2345 19.4895 23.2634 19.3887 23.311 19.2962C23.3586 19.2038 23.4239 19.1217 23.5032 19.0545C23.5825 18.9874 23.6743 18.9365 23.7733 18.9048C23.8723 18.8731 23.9766 18.8612 24.0802 18.8698C24.1837 18.8784 24.2846 18.9073 24.377 18.9549C24.4694 19.0025 24.5516 19.0678 24.6187 19.1472C28.7768 24.0494 35.0899 30.9706 36.0336 31.9143C37.8165 33.7004 38.5116 33.0053 38.9265 32.5936C39.1165 32.4036 39.3778 32.1439 39.4142 31.7718C39.468 31.2318 39.0643 30.5161 38.2488 29.6991C37.313 28.7617 30.403 22.4581 25.4817 18.281C25.4025 18.2138 25.3373 18.1316 25.2898 18.0391C25.2424 17.9466 25.2136 17.8457 25.2051 17.7421C25.1967 17.6386 25.2087 17.5343 25.2405 17.4354C25.2724 17.3364 25.3234 17.2447 25.3906 17.1655C25.4579 17.0863 25.5401 17.0211 25.6326 16.9736C25.7251 16.9262 25.826 16.8974 25.9295 16.889C26.0331 16.8805 26.1374 16.8925 26.2363 16.9244C26.3352 16.9562 26.4269 17.0072 26.5062 17.0745C31.2263 21.0789 38.2884 27.495 39.3714 28.5796C40.5511 29.7592 41.0974 30.8866 40.9929 31.9285C40.8994 32.8612 40.3247 33.4359 40.0491 33.7115C39.4063 34.3527 38.7191 34.6726 37.9891 34.6726Z" fill="#A856F7"/>
<path d="M31.7045 12.0329H31.7204M17.2558 26.6225C16.9453 26.6229 16.6377 26.5619 16.3508 26.4432C16.0639 26.3245 15.8032 26.1502 15.5837 25.9305L10.0259 20.3727C9.57941 19.9278 9.33398 19.334 9.33398 18.7022C9.33398 18.0704 9.57941 17.4767 10.0275 17.0301L11.1391 15.9186C11.5826 15.4758 12.1837 15.2272 12.8104 15.2272C13.4371 15.2272 14.0382 15.4758 14.4817 15.9186L20.0395 21.4764C20.4822 21.9199 20.7309 22.521 20.7309 23.1477C20.7309 23.7744 20.4822 24.3755 20.0395 24.819L18.9279 25.9305C18.7084 26.1501 18.4477 26.3242 18.1608 26.443C17.8738 26.5617 17.5663 26.6227 17.2558 26.6225ZM12.8096 16.81C12.6023 16.8107 12.4037 16.8932 12.257 17.0396L11.147 18.1496C11.0736 18.2217 11.0152 18.3077 10.9754 18.4026C10.9356 18.4975 10.9151 18.5993 10.9151 18.7022C10.9151 18.8051 10.9356 18.907 10.9754 19.0019C11.0152 19.0968 11.0736 19.1828 11.147 19.2548L16.7048 24.8126C16.8516 24.9582 17.0499 25.0398 17.2566 25.0398C17.4633 25.0398 17.6617 24.9582 17.8084 24.8126L18.92 23.7011C19.0659 23.5545 19.1478 23.3561 19.1478 23.1493C19.1478 22.9424 19.0659 22.744 18.92 22.5974L13.3622 17.0396C13.2155 16.8932 13.0169 16.8107 12.8096 16.81ZM29.483 14.3938C29.1725 14.3941 28.8649 14.3332 28.578 14.2145C28.291 14.0957 28.0304 13.9215 27.8109 13.7018L22.2531 8.144C21.8104 7.70075 21.5618 7.09992 21.5618 6.47349C21.5618 5.84706 21.8104 5.24624 22.2531 4.80298L23.3647 3.69142C23.8082 3.24867 24.4093 3 25.036 3C25.6626 3 26.2637 3.24867 26.7073 3.69142L32.2651 9.24922C32.7078 9.69275 32.9565 10.2938 32.9565 10.9205C32.9565 11.5472 32.7078 12.1483 32.2651 12.5918L31.1535 13.7034C30.9343 13.9228 30.6738 14.0968 30.3871 14.2153C30.1004 14.3337 29.7932 14.3944 29.483 14.3938ZM25.0367 4.58447C24.8297 4.58449 24.631 4.66646 24.4841 4.81248L23.3726 5.92404C23.2268 6.07036 23.1449 6.26851 23.1449 6.47507C23.1449 6.68164 23.2268 6.87979 23.3726 7.0261L28.9304 12.5839C29.0774 12.729 29.2756 12.8104 29.4822 12.8104C29.6888 12.8104 29.887 12.729 30.034 12.5839L31.1456 11.4739C31.2915 11.3273 31.3734 11.1289 31.3734 10.9221C31.3734 10.7153 31.2915 10.5169 31.1456 10.3703L25.5878 4.81248C25.5155 4.74001 25.4296 4.68256 25.335 4.64342C25.2405 4.60429 25.1391 4.58426 25.0367 4.58447ZM37.9891 34.6726C37.0343 34.6726 36.0067 34.1263 34.9141 33.0338C33.8216 31.9412 27.3976 24.8712 23.4106 20.1701C23.3434 20.0907 23.2925 19.999 23.2608 19.9C23.2291 19.801 23.2173 19.6967 23.2259 19.5931C23.2345 19.4895 23.2634 19.3887 23.311 19.2962C23.3586 19.2038 23.4239 19.1217 23.5032 19.0545C23.5825 18.9874 23.6743 18.9365 23.7733 18.9048C23.8723 18.8731 23.9766 18.8612 24.0802 18.8698C24.1837 18.8784 24.2846 18.9073 24.377 18.9549C24.4694 19.0025 24.5516 19.0678 24.6187 19.1472C28.7768 24.0494 35.0899 30.9706 36.0336 31.9143C37.8165 33.7004 38.5116 33.0053 38.9265 32.5936C39.1165 32.4036 39.3778 32.1439 39.4142 31.7718C39.468 31.2318 39.0643 30.5161 38.2488 29.6991C37.313 28.7617 30.403 22.4581 25.4817 18.281C25.4025 18.2138 25.3373 18.1316 25.2898 18.0391C25.2424 17.9466 25.2136 17.8457 25.2051 17.7421C25.1967 17.6386 25.2087 17.5343 25.2405 17.4354C25.2724 17.3364 25.3234 17.2447 25.3906 17.1655C25.4579 17.0863 25.5401 17.0211 25.6326 16.9736C25.7251 16.9262 25.826 16.8974 25.9295 16.889C26.0331 16.8805 26.1374 16.8925 26.2363 16.9244C26.3352 16.9562 26.4269 17.0072 26.5062 17.0745C31.2263 21.0789 38.2884 27.495 39.3714 28.5796C40.5511 29.7592 41.0974 30.8866 40.9929 31.9285C40.8994 32.8612 40.3247 33.4359 40.0491 33.7115C39.4063 34.3527 38.7191 34.6726 37.9891 34.6726Z" stroke="#A856F7" stroke-width="0.5"/>
</svg>
