<svg width="44" height="44" viewBox="0 0 44 44" fill="none" xmlns="http://www.w3.org/2000/svg">
<g clip-path="url(#clip0_4484_740)">
<path d="M38.8667 17.7692C38.8667 17.5652 38.7859 17.3696 38.6421 17.2253C38.4983 17.081 38.3033 17 38.1 17H31.9667C31.7633 17 31.5683 17.081 31.4246 17.2253C31.2808 17.3696 31.2 17.5652 31.2 17.7692V35.4615H25.8333V23.1538C25.8333 22.9498 25.7526 22.7542 25.6088 22.6099C25.465 22.4657 25.27 22.3846 25.0667 22.3846H18.9333C18.73 22.3846 18.535 22.4657 18.3912 22.6099C18.2474 22.7542 18.1667 22.9498 18.1667 23.1538V35.4615H12.8V28.5385C12.8 28.3344 12.7192 28.1388 12.5754 27.9945C12.4317 27.8503 12.2367 27.7692 12.0333 27.7692H5.9C5.69667 27.7692 5.50166 27.8503 5.35788 27.9945C5.21411 28.1388 5.13333 28.3344 5.13333 28.5385V35.4615H-1V37H45V35.4615H38.8667V17.7692ZM11.2667 35.4615H6.66667V29.3077H11.2667V35.4615ZM24.3 35.4615H19.7V23.9231H24.3V35.4615ZM37.3333 35.4615H32.7333V18.5385H37.3333V35.4615ZM2.99433 25.0923L38.6597 10.7231L37.3333 13.1L38.6673 13.8692L41.0823 9.57692C41.1387 9.47708 41.1721 9.36585 41.18 9.25138C41.188 9.13692 41.1703 9.02211 41.1283 8.91538C41.0859 8.80752 41.0198 8.71068 40.9348 8.63208C40.8498 8.55349 40.7483 8.49519 40.6377 8.46154L35.9227 7L35.478 8.53846L38.1 9.30769L2.41933 23.6692L2.99433 25.0923Z" fill="#A856F7" stroke="#A856F7" stroke-width="0.6"/>
</g>
<defs>
<clipPath id="clip0_4484_740">
<rect width="43.27" height="43.27" fill="white"/>
</clipPath>
</defs>
</svg>
