<svg width="38" height="38" viewBox="0 0 38 38" fill="none" xmlns="http://www.w3.org/2000/svg">
<mask id="mask0_4404_411" style="mask-type:luminance" maskUnits="userSpaceOnUse" x="0" y="0" width="38" height="38">
<path d="M37 37V1H1V37H37Z" fill="white" stroke="white" stroke-width="2"/>
<mask id="path-2-inside-1_4404_411" fill="white">
<path d="M38 38V3.43327e-05H0V38H38ZM0.74219 0.742224H37.2578V37.2578H0.74219V0.742224Z"/>
</mask>
<path d="M38 38V3.43327e-05H0V38H38ZM0.74219 0.742224H37.2578V37.2578H0.74219V0.742224Z" fill="white"/>
<path d="M38 38H40V40H38V38ZM38 3.43327e-05V-1.99997H40V3.43327e-05H38ZM0 3.43327e-05H-2V-1.99997H0V3.43327e-05ZM0 38V40H-2V38H0ZM0.74219 0.742224H-1.25781V-1.25778H0.74219V0.742224ZM37.2578 0.742224V-1.25778H39.2578V0.742224H37.2578ZM37.2578 37.2578H39.2578V39.2578H37.2578V37.2578ZM0.74219 37.2578V39.2578H-1.25781V37.2578H0.74219ZM38 38H36V3.43327e-05H38H40V38H38ZM38 3.43327e-05V2.00003H0V3.43327e-05V-1.99997H38V3.43327e-05ZM0 3.43327e-05H2V38H0H-2V3.43327e-05H0ZM0 38V36H38V38V40H0V38ZM0.74219 0.742224V-1.25778H37.2578V0.742224V2.74222H0.74219V0.742224ZM37.2578 0.742224H39.2578V37.2578H37.2578H35.2578V0.742224H37.2578ZM37.2578 37.2578V39.2578H0.74219V37.2578V35.2578H37.2578V37.2578ZM0.74219 37.2578H-1.25781V0.742224H0.74219H2.74219V37.2578H0.74219Z" fill="white" mask="url(#path-2-inside-1_4404_411)"/>
</mask>
<g mask="url(#mask0_4404_411)">
<path d="M33.1758 14.8662C33.1758 24.1666 27.5783 32.547 19 36.1141C10.4216 32.547 4.82422 24.1666 4.82422 14.8662V7.77189L19 1.88627L33.1758 7.77189V14.8662ZM33.918 7.52408C33.918 7.37411 33.8277 7.23891 33.6892 7.1814L19.1423 1.14169C19.0512 1.10386 18.9488 1.10386 18.8577 1.14169L4.31085 7.1814C4.17234 7.23891 4.08204 7.37411 4.08203 7.52408V14.8662C4.08203 24.5188 9.92296 33.2115 18.8598 36.8592L18.8768 36.8657C18.9622 36.8957 19.0559 36.8936 19.1402 36.8592C28.077 33.2115 33.918 24.5188 33.918 14.8662V7.52408Z" fill="#A856F7" stroke="#A856F7" stroke-width="2" stroke-miterlimit="10" stroke-linecap="round" stroke-linejoin="round"/>
<path d="M17.1107 22.2443C17.2564 22.3759 17.4813 22.3715 17.6217 22.2311L25.0514 14.8015L25.0646 14.7876C25.1962 14.642 25.1918 14.4171 25.0514 14.2767C24.911 14.1363 24.6861 14.1319 24.5405 14.2635L24.5266 14.2767L17.3593 21.444L13.4733 17.558L13.4594 17.5448C13.3138 17.4132 13.0889 17.4176 12.9485 17.558C12.8036 17.7029 12.8036 17.9379 12.9485 18.0828L17.0969 22.2311L17.1107 22.2443Z" fill="#A856F7" stroke="#A856F7" stroke-width="2" stroke-miterlimit="10" stroke-linecap="round" stroke-linejoin="round"/>
</g>
</svg>
