<svg width="44" height="44" viewBox="0 0 44 44" fill="none" xmlns="http://www.w3.org/2000/svg">
<mask id="mask0_4404_410" style="mask-type:luminance" maskUnits="userSpaceOnUse" x="3" y="3" width="38" height="38">
<path d="M40 40V4H4V40H40Z" fill="white" stroke="white" stroke-width="2"/>
<mask id="path-2-inside-1_4404_410" fill="white">
<path d="M41 41V3.00003H3V41H41ZM3.74219 3.74222H40.2578V40.2578H3.74219V3.74222Z"/>
</mask>
<path d="M41 41V3.00003H3V41H41ZM3.74219 3.74222H40.2578V40.2578H3.74219V3.74222Z" fill="white"/>
<path d="M41 41H43V43H41V41ZM41 3.00003V1.00003H43V3.00003H41ZM3 3.00003H1V1.00003H3V3.00003ZM3 41V43H1V41H3ZM3.74219 3.74222H1.74219V1.74222H3.74219V3.74222ZM40.2578 3.74222V1.74222H42.2578V3.74222H40.2578ZM40.2578 40.2578H42.2578V42.2578H40.2578V40.2578ZM3.74219 40.2578V42.2578H1.74219V40.2578H3.74219ZM41 41H39V3.00003H41H43V41H41ZM41 3.00003V5.00003H3V3.00003V1.00003H41V3.00003ZM3 3.00003H5V41H3H1V3.00003H3ZM3 41V39H41V41V43H3V41ZM3.74219 3.74222V1.74222H40.2578V3.74222V5.74222H3.74219V3.74222ZM40.2578 3.74222H42.2578V40.2578H40.2578H38.2578V3.74222H40.2578ZM40.2578 40.2578V42.2578H3.74219V40.2578V38.2578H40.2578V40.2578ZM3.74219 40.2578H1.74219V3.74222H3.74219H5.74219V40.2578H3.74219Z" fill="white" mask="url(#path-2-inside-1_4404_410)"/>
</mask>
<g mask="url(#mask0_4404_410)">
<path d="M36.1758 17.8662C36.1758 27.1666 30.5783 35.547 22 39.1141C13.4216 35.547 7.82422 27.1666 7.82422 17.8662V10.7719L22 4.88627L36.1758 10.7719V17.8662ZM36.918 10.5241C36.918 10.3741 36.8277 10.2389 36.6892 10.1814L22.1423 4.14169C22.0512 4.10386 21.9488 4.10386 21.8577 4.14169L7.31085 10.1814C7.17234 10.2389 7.08204 10.3741 7.08203 10.5241V17.8662C7.08203 27.5188 12.923 36.2115 21.8598 39.8592L21.8768 39.8657C21.9622 39.8957 22.0559 39.8936 22.1402 39.8592C31.077 36.2115 36.918 27.5188 36.918 17.8662V10.5241Z" fill="#A856F7" stroke="#A856F7" stroke-width="2" stroke-miterlimit="10" stroke-linecap="round" stroke-linejoin="round"/>
<path d="M20.1107 25.2443C20.2564 25.3759 20.4813 25.3715 20.6217 25.2311L28.0514 17.8015L28.0646 17.7876C28.1962 17.642 28.1918 17.4171 28.0514 17.2767C27.911 17.1363 27.6861 17.1319 27.5405 17.2635L27.5266 17.2767L20.3593 24.444L16.4733 20.558L16.4594 20.5448C16.3138 20.4132 16.0889 20.4176 15.9485 20.558C15.8036 20.7029 15.8036 20.9379 15.9485 21.0828L20.0969 25.2311L20.1107 25.2443Z" fill="#A856F7" stroke="#A856F7" stroke-width="2" stroke-miterlimit="10" stroke-linecap="round" stroke-linejoin="round"/>
</g>
</svg>
