<svg width="44" height="44" viewBox="0 0 44 44" fill="none" xmlns="http://www.w3.org/2000/svg">
<path d="M26.5133 19.1954C26.5133 18.9115 26.4005 18.6393 26.1998 18.4385C25.999 18.2378 25.7268 18.125 25.4429 18.125H13.6685C13.3846 18.125 13.1123 18.2378 12.9116 18.4385C12.7109 18.6393 12.5981 18.9115 12.5981 19.1954C12.5981 19.4793 12.7109 19.7515 12.9116 19.9523C13.1123 20.153 13.3846 20.2658 13.6685 20.2658H25.4429C25.5835 20.2658 25.7226 20.2381 25.8525 20.1843C25.9824 20.1305 26.1004 20.0517 26.1998 19.9523C26.2992 19.8529 26.378 19.7349 26.4318 19.605C26.4856 19.4752 26.5133 19.336 26.5133 19.1954ZM13.6661 23.5305C13.3822 23.5305 13.11 23.6433 12.9092 23.844C12.7085 24.0448 12.5957 24.317 12.5957 24.6009C12.5957 24.8848 12.7085 25.1571 12.9092 25.3578C13.11 25.5585 13.3822 25.6713 13.6661 25.6713H19.9089C20.1928 25.6713 20.4651 25.5585 20.6658 25.3578C20.8665 25.1571 20.9793 24.8848 20.9793 24.6009C20.9793 24.317 20.8665 24.0448 20.6658 23.844C20.4651 23.6433 20.1928 23.5305 19.9089 23.5305H13.6661Z" fill="#A856F7"/>
<path d="M33.5668 19.2557C33.2829 19.2557 33.0107 19.3684 32.8099 19.5692C32.6092 19.7699 32.4964 20.0422 32.4964 20.3261V28.9832C32.4955 29.762 32.1857 30.5087 31.635 31.0594C31.0843 31.6101 30.3376 31.9199 29.5588 31.9209H22.399C22.1668 31.9206 21.9409 31.9962 21.7556 32.1361L15.5734 36.7852C15.5206 36.8276 15.4562 36.853 15.3887 36.8581C15.3212 36.8632 15.2538 36.8478 15.1952 36.8138C15.1347 36.7849 15.084 36.7388 15.0495 36.6812C15.0151 36.6237 14.9983 36.5573 15.0013 36.4903L15.1203 33.0293C15.1249 32.8859 15.1007 32.743 15.049 32.609C14.9974 32.4751 14.9195 32.3529 14.8198 32.2497C14.7201 32.1464 14.6007 32.0642 14.4686 32.0079C14.3366 31.9517 14.1946 31.9225 14.0511 31.9221H9.07845C8.29953 31.9214 7.5527 31.6117 7.00191 31.061C6.45113 30.5102 6.14143 29.7633 6.1408 28.9844V14.8313C6.14017 14.0511 6.44912 13.3024 6.99987 12.7496C7.55062 12.1969 8.29816 11.8852 9.07845 11.883H22.2682C22.552 11.883 22.8243 11.7702 23.025 11.5695C23.2258 11.3687 23.3386 11.0965 23.3386 10.8126C23.3386 10.5287 23.2258 10.2564 23.025 10.0557C22.8243 9.85496 22.552 9.74219 22.2682 9.74219H9.07845C7.73047 9.74534 6.43878 10.283 5.48672 11.2373C4.53467 12.1916 4 13.4845 4 14.8325V28.9844C4.00157 30.3309 4.53709 31.6219 5.48911 32.5741C6.44113 33.5263 7.73194 34.0622 9.07845 34.0641H12.9426L12.8617 36.4213C12.8453 36.8921 12.9632 37.3578 13.2016 37.764C13.44 38.1703 13.7891 38.5003 14.208 38.7155C14.5647 38.9025 14.9614 39.0004 15.3641 39.001C15.891 39.001 16.4131 38.8309 16.8579 38.4991L22.7558 34.0641H29.5576C30.9041 34.0622 32.1949 33.5263 33.1469 32.5741C34.0989 31.6219 34.6345 30.3309 34.636 28.9844V20.3273C34.6364 20.1866 34.6089 20.0474 34.5553 19.9174C34.5017 19.7874 34.423 19.6692 34.3237 19.5697C34.2244 19.4701 34.1064 19.3912 33.9765 19.3373C33.8467 19.2834 33.7074 19.2557 33.5668 19.2557Z" fill="#A856F7"/>
<path d="M39.3542 9.05794C39.2607 8.7672 39.0944 8.50524 38.871 8.29703C38.6476 8.08883 38.3746 7.94133 38.078 7.8686L35.3425 7.18712L33.8487 4.79656C33.1863 3.73329 31.457 3.73567 30.7957 4.79656L29.3019 7.18712L26.5664 7.8686C25.9611 8.01846 25.483 8.46327 25.2903 9.05794C25.0976 9.6526 25.2213 10.2937 25.6233 10.773L27.4358 12.9304L27.2384 15.742C27.216 16.0467 27.272 16.352 27.4011 16.6289C27.5302 16.9058 27.728 17.1451 27.9758 17.3238C28.2225 17.5041 28.5113 17.6182 28.8146 17.6555C29.1178 17.6928 29.4256 17.6519 29.7087 17.5367L32.3228 16.4806L34.9358 17.5367C35.515 17.7722 36.162 17.6913 36.6686 17.325C37.1741 16.9575 37.45 16.3664 37.4072 15.742L37.2098 12.9304L39.0223 10.7718C39.4231 10.2937 39.548 9.6526 39.3542 9.05794ZM35.2914 11.885C35.1126 12.098 35.0239 12.3723 35.044 12.6497L35.2343 15.3495L32.7248 14.335C32.4678 14.2306 32.1802 14.2306 31.9232 14.335L29.4149 15.3495L29.604 12.6497C29.6228 12.3725 29.5342 12.0987 29.3566 11.885L27.6166 9.81317L30.2427 9.15784C30.5116 9.09068 30.7439 8.92185 30.8909 8.68687L32.3252 6.39264L33.7595 8.68687C33.907 8.92235 34.1389 9.09124 34.4077 9.15784L37.0338 9.81317L35.2914 11.885Z" fill="#A856F7"/>
</svg>
