<svg width="37" height="38" viewBox="0 0 37 38" fill="none" xmlns="http://www.w3.org/2000/svg">
<path d="M19.3106 31.1448H16.6063C16.0519 31.1448 15.5921 31.6045 15.5921 32.1589C15.5921 32.7133 16.0519 33.1731 16.6063 33.1731H19.3106C19.865 33.1731 20.3248 32.7133 20.3248 32.1589C20.3248 31.6045 19.865 31.1448 19.3106 31.1448ZM9.06107 26.0741C9.06107 25.7766 8.92585 25.4927 8.69597 25.3033L6.89757 23.7889C6.75046 23.6626 6.56943 23.5825 6.37705 23.5584C6.18468 23.5344 5.98948 23.5675 5.81582 23.6537C5.46425 23.8159 5.23438 24.181 5.23438 24.5732V27.6021C5.23438 27.9942 5.46425 28.3593 5.81582 28.5216C5.95103 28.5892 6.09978 28.6162 6.24852 28.6162C6.47839 28.6162 6.70826 28.5351 6.89757 28.3728L8.69597 26.8584C8.92585 26.6691 9.06107 26.3851 9.06107 26.0876V26.0741Z" fill="#3C83F6"/>
<path d="M36.5517 19.9877C36.5517 16.8642 34.6992 14.1733 32.0354 12.9293C32.3329 12.1856 32.4952 11.3878 32.4952 10.5765V4.81619C32.4952 3.55025 31.9923 2.33617 31.0971 1.44101C30.202 0.54586 28.9879 0.0429688 27.7219 0.0429688H8.19635C6.93041 0.0429688 5.71632 0.54586 4.82117 1.44101C3.92602 2.33617 3.42313 3.55025 3.42313 4.81619V10.5765C3.42313 12.7265 4.49135 14.6196 6.1275 15.7689V19.7579C3.07156 20.2446 0.71875 22.8814 0.71875 26.0726C0.71875 29.2637 3.07156 31.9005 6.1275 32.3873V33.5502C6.1275 35.5785 7.77717 37.2281 9.80545 37.2281H26.1128C28.1411 37.2281 29.7908 35.5785 29.7908 33.5502V27.6952C33.604 27.1949 36.5517 23.9361 36.5517 19.9877ZM5.45141 4.81619C5.45141 3.30174 6.6819 2.07125 8.19635 2.07125H27.7219C29.2364 2.07125 30.4669 3.30174 30.4669 4.81619V10.5765C30.4669 11.185 30.3317 11.78 30.0883 12.3344C29.6556 12.2667 29.2229 12.2127 28.7766 12.2127C26.4238 12.2127 24.3279 13.2674 22.8946 14.917H16.607C16.3365 14.917 16.0796 15.0252 15.8903 15.2145L13.9026 17.2022L11.9149 15.2145C11.7249 15.0243 11.4671 14.9173 11.1982 14.917H9.79193C7.39856 14.917 5.45141 12.9699 5.45141 10.5765V4.81619ZM2.74703 26.0726C2.74703 23.6522 4.72123 21.678 7.14164 21.678C9.33218 21.678 11.1982 23.3141 11.4957 25.4776C11.5227 25.694 11.6309 25.8968 11.7796 26.0591L12.1988 26.4782L11.9013 26.627C11.6444 26.7622 11.4551 26.9921 11.3875 27.2625C11.1288 28.1856 10.575 28.9986 9.81075 29.5772C9.04649 30.1559 8.11379 30.4685 7.15516 30.4672C4.73475 30.4672 2.76055 28.493 2.76055 26.0726H2.74703ZM26.1128 35.1998H9.80545C8.89948 35.1998 8.15578 34.4561 8.15578 33.5502V32.4143C9.28884 32.2302 10.3523 31.7472 11.2365 31.0151C12.1207 30.2831 12.7936 29.3284 13.1859 28.2496L14.3623 27.6546C14.6463 27.5059 14.8491 27.2355 14.9032 26.9109C14.9573 26.5864 14.8491 26.2619 14.6192 26.032L13.4428 24.8556C12.9425 22.1918 10.7925 20.1635 8.15578 19.7443V16.7154C8.68313 16.8507 9.22401 16.9588 9.79193 16.9588H10.779L13.1859 19.3657C13.3887 19.5686 13.6457 19.6632 13.9026 19.6632C14.1595 19.6632 14.4164 19.5686 14.6192 19.3657L17.0261 16.9588H21.6236C21.2053 17.9438 20.9943 19.0044 21.0036 20.0745C21.0129 21.1446 21.2423 22.2013 21.6777 23.1789L21.0557 25.5047C20.961 25.8562 21.0556 26.2213 21.3126 26.4782C21.5695 26.7351 21.9346 26.8433 22.2726 26.7487L24.1792 26.2889C25.2339 27.0597 26.4644 27.5329 27.749 27.7087V33.5772C27.749 34.4832 27.0053 35.2269 26.0993 35.2269L26.1128 35.1998ZM28.7766 25.7345C27.3974 25.7345 26.1264 25.2748 25.0716 24.3959C24.8882 24.2451 24.6599 24.1595 24.4226 24.1525C24.3415 24.1525 24.2603 24.1525 24.1792 24.1795L23.4625 24.3553L23.6248 23.7198C23.8412 23.4088 23.8682 23.0031 23.6924 22.6515C23.2597 21.8402 23.0298 20.9207 23.0298 19.9742C23.0298 16.8101 25.6125 14.2274 28.7766 14.2274C31.9408 14.2274 34.5234 16.8101 34.5234 19.9742C34.5234 23.1383 31.9408 25.721 28.7766 25.721V25.7345Z" fill="#3C83F6"/>
<path d="M32.0491 16.9726C31.1972 16.1207 29.818 15.9179 28.7768 16.4452C27.7356 15.9179 26.3564 16.1072 25.5045 16.9726C24.9771 17.5135 24.6797 18.2166 24.6797 18.9738C24.6797 19.7311 24.9771 20.4342 25.5045 20.9751L28.0601 23.5307C28.2503 23.7206 28.508 23.8273 28.7768 23.8273C29.0455 23.8273 29.3033 23.7206 29.4935 23.5307L32.0491 20.9751C32.5764 20.4477 32.8739 19.7311 32.8739 18.9738C32.8739 18.2166 32.5764 17.5135 32.0491 16.9726ZM30.6158 19.5417L28.7768 21.3807L26.9378 19.5417C26.826 19.4307 26.7499 19.2888 26.7193 19.1342C26.6887 18.9797 26.7049 18.8195 26.766 18.6742C26.827 18.5289 26.93 18.4052 27.0618 18.3188C27.1936 18.2325 27.3482 18.1875 27.5057 18.1896C27.7221 18.1896 27.9249 18.2707 28.0737 18.4194C28.4658 18.8116 29.1148 18.8116 29.507 18.4194C29.8045 18.122 30.3318 18.122 30.6293 18.4194C30.9403 18.7304 30.9403 19.2307 30.6293 19.5417H30.6158ZM9.84617 13.227C10.4006 13.227 10.8603 12.7673 10.8603 12.2129C10.8603 10.9148 11.9285 9.84656 13.2266 9.84656C14.5247 9.84656 15.593 10.9148 15.593 12.2129C15.593 12.7673 16.0527 13.227 16.6071 13.227C17.1615 13.227 17.6213 12.7673 17.6213 12.2129C17.6213 10.6984 16.8505 9.3733 15.6876 8.57551C16.0527 8.0752 16.2691 7.46671 16.2691 6.80414C16.2691 5.12743 14.9034 3.76172 13.2266 3.76172C11.5499 3.76172 10.1842 5.12743 10.1842 6.80414C10.1842 7.46671 10.4006 8.0752 10.7657 8.57551C9.60278 9.3733 8.83203 10.6984 8.83203 12.2129C8.83203 12.7673 9.29178 13.227 9.84617 13.227ZM12.2125 6.80414C12.2125 6.24974 12.6722 5.79 13.2266 5.79C13.781 5.79 14.2408 6.24974 14.2408 6.80414C14.2408 7.35854 13.781 7.81828 13.2266 7.81828C12.6722 7.81828 12.2125 7.35854 12.2125 6.80414ZM20.2715 9.42738C20.4068 9.48147 20.5285 9.50852 20.6637 9.50852C20.8641 9.50834 21.06 9.44877 21.2266 9.33732C21.3932 9.22587 21.5231 9.06755 21.5998 8.88235C21.6765 8.69715 21.6965 8.49338 21.6575 8.29677C21.6184 8.10016 21.522 7.91954 21.3803 7.77772C21.189 7.59008 20.9317 7.48498 20.6637 7.48498C20.3957 7.48498 20.1384 7.59008 19.947 7.77772C19.7599 7.96982 19.6535 8.22625 19.6495 8.49438C19.65 8.69382 19.7092 8.88872 19.8199 9.05467C19.9305 9.22062 20.0876 9.35026 20.2715 9.42738ZM24.6661 9.42738C24.8014 9.48147 24.9231 9.50852 25.0583 9.50852C25.2587 9.50834 25.4546 9.44877 25.6212 9.33732C25.7879 9.22587 25.9177 9.06755 25.9944 8.88235C26.0711 8.69715 26.0911 8.49338 26.0521 8.29677C26.013 8.10016 25.9166 7.91954 25.7749 7.77772C25.5836 7.59008 25.3263 7.48498 25.0583 7.48498C24.7903 7.48498 24.533 7.59008 24.3416 7.77772C24.1545 7.96982 24.0481 8.22625 24.0441 8.49438C24.0446 8.69382 24.1038 8.88872 24.2145 9.05467C24.3251 9.22062 24.4822 9.35026 24.6661 9.42738Z" fill="#3C83F6"/>
</svg>
