<svg width="29" height="35" viewBox="0 0 29 35" fill="none" xmlns="http://www.w3.org/2000/svg">
<path d="M14.4565 5.32609C9.42185 5.32609 5.32609 9.42185 5.32609 14.4565C5.32609 16.8441 6.38674 18.4975 7.41163 20.0968C7.7662 20.65 8.13293 21.2214 8.46163 21.8286C8.71196 22.2912 9.00641 24.0762 9.13576 25.1954L9.21337 25.8696H19.7004L19.778 25.1962C19.9074 24.0762 20.2026 22.2912 20.4529 21.8286C20.7816 21.2214 21.1476 20.6492 21.5022 20.0968C22.5263 18.4975 23.587 16.8441 23.587 14.4565C23.587 9.42185 19.4912 5.32609 14.4565 5.32609ZM20.2201 19.2751C19.8511 19.8511 19.4691 20.4476 19.113 21.1042C18.7509 21.7738 18.4853 23.3861 18.3514 24.3478H10.5609C10.4277 23.3861 10.1622 21.7738 9.79924 21.1042C9.44391 20.4476 9.06196 19.8518 8.69217 19.2751C7.70304 17.7313 6.84783 16.3983 6.84783 14.4565C6.84783 10.2611 10.2611 6.84783 14.4565 6.84783C18.652 6.84783 22.0652 10.2611 22.0652 14.4565C22.0652 16.3983 21.2108 17.7313 20.2201 19.2751ZM9.8913 27.2528H19.0217V28.7746H9.8913V27.2528ZM9.8913 32.095H11.4275C11.5013 33.7073 12.8252 35 14.4565 35C16.0878 35 17.4125 33.7073 17.4855 32.095H19.0217V30.5733H9.8913V32.095ZM14.4565 33.4783C14.0781 33.4771 13.7137 33.3346 13.4348 33.0787C13.156 32.8228 12.9828 32.472 12.9492 32.095H15.9646C15.9308 32.472 15.7575 32.8229 15.4785 33.0788C15.1995 33.3346 14.8351 33.4771 14.4565 33.4783ZM25.1087 13.6957H28.913V15.2174H25.1087V13.6957ZM0 13.6957H3.80435V15.2174H0V13.6957ZM26.5992 6.56783L27.3601 7.88565L24.0655 9.78783L23.3047 8.47L26.5992 6.56783ZM2.31685 22.3422L1.55598 21.0243L4.85054 19.1222L5.61141 20.44L2.31685 22.3422ZM21.0236 1.55826L22.3414 2.31913L20.4392 5.61293L19.1214 4.85207L21.0236 1.55826ZM7.88793 1.55674L9.79011 4.8513L8.47228 5.61217L6.57011 2.31761L7.88793 1.55674ZM26.5939 22.3452L23.2993 20.443L24.0602 19.1252L27.3548 21.0274L26.5939 22.3452ZM2.31761 6.56859L5.61217 8.47076L4.8513 9.78859L1.55674 7.88641L2.31761 6.56859ZM13.6957 0H15.2174V3.80435H13.6957V0Z" fill="#3C83F6"/>
<path d="M14.4551 8.37109V9.89283C16.9728 9.89283 19.0203 11.9403 19.0203 14.4581H20.542C20.542 11.1019 17.8113 8.37109 14.4551 8.37109Z" fill="#3C83F6"/>
</svg>
