<svg width="44" height="44" viewBox="0 0 44 44" fill="none" xmlns="http://www.w3.org/2000/svg">
<path d="M11.3305 26.7759C12.526 26.8129 13.6697 27.2621 14.5685 28.0439L14.7448 28.2052L14.7651 28.2246C16.6988 30.1341 16.674 33.1974 15.0138 35.1659L15.0146 35.1668C14.2939 36.0247 13.3006 36.6551 12.3455 37.1216C11.3717 37.5973 10.3204 37.9583 9.37649 38.2283C8.42754 38.4997 7.55214 38.6884 6.91543 38.8093C6.59592 38.87 6.33309 38.9141 6.14827 38.9434C6.05599 38.958 5.9829 38.9694 5.93135 38.9769C5.90565 38.9806 5.88517 38.9836 5.87051 38.9857C5.86328 38.9867 5.85729 38.9877 5.85287 38.9883C5.85065 38.9886 5.84818 38.9881 5.8467 38.9883L5.84494 38.9892H5.84405C5.34146 39.0564 4.83594 38.8856 4.47728 38.5272C4.1186 38.1685 3.94713 37.6623 4.01434 37.1596V37.1587L4.01523 37.1569C4.01543 37.1554 4.01492 37.153 4.01523 37.1507C4.01583 37.1463 4.01687 37.1403 4.01787 37.1331C4.01991 37.1184 4.02296 37.0979 4.02669 37.0723C4.03419 37.0207 4.04557 36.9476 4.0602 36.8553C4.08949 36.6705 4.13356 36.4077 4.19423 36.0882C4.31513 35.4515 4.50389 34.5761 4.77533 33.6272C5.04529 32.6835 5.40644 31.6328 5.88197 30.6592C6.34853 29.7041 6.97882 28.71 7.83689 27.9892C8.81217 27.1683 10.0563 26.7366 11.3305 26.7759ZM11.23 30.0296C10.7569 30.015 10.2949 30.176 9.9329 30.4811L9.93114 30.4828C9.56827 30.7876 9.18058 31.3244 8.80774 32.0877C8.444 32.8323 8.1444 33.6885 7.90567 34.5231C7.8291 34.7908 7.76083 35.0531 7.69845 35.3043C7.94991 35.2419 8.21266 35.1746 8.4806 35.098C9.31518 34.8593 10.1714 34.5597 10.9161 34.1959C11.6794 33.8231 12.2161 33.4354 12.5209 33.0726L12.5245 33.0691L12.6373 32.9209C13.1592 32.1674 13.0753 31.1438 12.4883 30.5525C12.1469 30.2306 11.6993 30.0441 11.23 30.0296Z" fill="#3C83F6"/>
<path d="M37.5494 4.01013C38.3662 4.09796 39.0015 4.78924 39.0017 5.62817C39.0017 10.3012 37.6621 18.5193 28.9335 24.5993L28.512 24.8877C28.5 24.8957 28.488 24.9038 28.4758 24.9115C26.3276 26.2698 24.0485 27.4089 21.6728 28.3124C21.111 28.5261 20.4802 28.4128 20.0301 28.0241L19.9428 27.9421L15.0594 23.0589C14.6042 22.6037 14.4593 21.9225 14.6908 21.3218L15.0418 20.4453C15.8854 18.4113 16.9074 16.4547 18.0954 14.5992C20.1389 11.3378 22.9817 8.65226 26.3542 6.79739C29.732 4.93971 33.5288 3.97653 37.3836 4.00043L37.5494 4.01013ZM35.6783 7.32116C32.9641 7.54154 30.3201 8.33151 27.9229 9.6499C25.2126 11.1406 22.9024 13.2584 21.1826 15.8222L20.8466 16.3407C20.8436 16.3455 20.84 16.35 20.8369 16.3548C19.7861 17.996 18.8796 19.7245 18.1236 21.5193L21.4868 24.8815C23.3018 24.1279 25.0503 23.2224 26.7131 22.1727C33.5934 17.5528 35.3454 11.5121 35.6783 7.32116Z" fill="#3C83F6"/>
<path d="M19.6123 14.9392L19.9606 13.8511C20.817 14.1247 21.2897 15.0404 21.0161 15.8968C20.7425 16.7532 19.8259 17.2259 18.9695 16.9522V16.9514C18.9685 16.951 18.9669 16.951 18.9651 16.9505C18.9583 16.9483 18.9456 16.9449 18.9289 16.9399C18.8957 16.9298 18.8436 16.9138 18.7746 16.894C18.6363 16.8543 18.4311 16.7976 18.175 16.7344C17.6594 16.6073 16.9512 16.4569 16.176 16.357C15.3945 16.2563 14.5875 16.2128 13.8604 16.2803C13.1207 16.3491 12.58 16.5212 12.23 16.7538L12.2309 16.7547C11.5226 17.2286 10.8526 18.3999 10.343 19.8047C10.2837 19.9681 10.2283 20.1289 10.1772 20.2853H16.2095L16.3762 20.2932C17.197 20.3767 17.8373 21.0702 17.8373 21.913C17.8373 22.7558 17.1969 23.4494 16.3762 23.5328L16.2095 23.5408H8.06973C7.58712 23.5408 7.12954 23.3266 6.82024 22.9562C6.51093 22.5857 6.38132 22.0969 6.46752 21.6221L8.06973 21.913C6.54886 21.637 6.47222 21.6222 6.46841 21.6212V21.6185C6.46867 21.6171 6.46892 21.6152 6.46929 21.6132C6.47004 21.6091 6.47161 21.6037 6.47281 21.5974C6.47524 21.5845 6.47827 21.567 6.48251 21.5453C6.49111 21.5013 6.50325 21.4392 6.51955 21.3619C6.55212 21.2075 6.60127 20.9895 6.66681 20.7253C6.79728 20.1994 6.99859 19.4768 7.2823 18.6946C7.81049 17.2385 8.76838 15.1538 10.4206 14.0486L10.4223 14.0468L10.6058 13.9304C11.5325 13.3686 12.5919 13.1289 13.5597 13.039C14.6057 12.9418 15.6687 13.0081 16.5922 13.1271C17.5223 13.247 18.356 13.4257 18.9545 13.5733C19.2549 13.6474 19.4996 13.7151 19.6723 13.7647C19.7588 13.7895 19.8282 13.8098 19.8769 13.8246C19.9009 13.8319 19.9201 13.8379 19.9342 13.8423C19.9413 13.8445 19.9474 13.8461 19.9518 13.8475C19.9539 13.8482 19.9556 13.8488 19.9571 13.8493L19.9589 13.8502H19.9598C19.9601 13.8503 19.9601 13.8505 19.6123 14.9392ZM19.4651 15.4012C19.4412 15.4759 19.4179 15.5469 19.3963 15.6146L19.6123 14.9392C19.5688 15.0754 19.5202 15.2288 19.4651 15.4012Z" fill="#3C83F6"/>
<path d="M19.4668 34.9299V26.7903C19.467 25.8914 20.1956 25.1626 21.0946 25.1626C21.9936 25.1626 22.7222 25.8914 22.7224 26.7903V32.8225C22.8788 32.7714 23.0396 32.7159 23.2029 32.6567C24.5201 32.1789 25.6318 31.5602 26.156 30.9011L26.253 30.7688C26.4856 30.4187 26.6587 29.8789 26.7274 29.1393C26.795 28.4122 26.7514 27.6054 26.6507 26.8238C26.5508 26.0488 26.4004 25.3413 26.2733 24.8257C26.2101 24.5694 26.1534 24.3637 26.1137 24.2253C26.0939 24.1562 26.078 24.1042 26.0679 24.0709C26.0629 24.0545 26.0594 24.0425 26.0573 24.0357L26.0555 24.0304L26.0132 23.869C25.8428 23.0618 26.3082 22.2403 27.111 21.9838C27.9673 21.7103 28.8831 22.1831 29.1568 23.0393L27.5678 23.5472C27.5805 23.5431 27.5936 23.539 27.6066 23.5348C29.1571 23.0394 29.1575 23.0398 29.1576 23.0402V23.041L29.1585 23.0428C29.159 23.0444 29.1596 23.0468 29.1603 23.049C29.1617 23.0533 29.1635 23.0589 29.1656 23.0657C29.17 23.0799 29.1758 23.0996 29.1832 23.1239C29.198 23.1726 29.2184 23.2412 29.2432 23.3276C29.2927 23.5004 29.3604 23.7456 29.4345 24.0463C29.5821 24.6447 29.76 25.4777 29.8798 26.4076C29.9989 27.3312 30.0661 28.3947 29.9689 29.4409C29.8729 30.473 29.6067 31.6088 28.961 32.5773L28.9592 32.5791C27.854 34.2313 25.7693 35.19 24.3131 35.7182C23.5308 36.0019 22.8074 36.2032 22.2815 36.3336C22.0175 36.3991 21.8001 36.4475 21.6457 36.48C21.5684 36.4963 21.5063 36.5084 21.4623 36.517C21.4405 36.5213 21.4231 36.5252 21.4103 36.5276L21.3891 36.5312H21.3864V36.532C21.3861 36.5321 21.3853 36.5316 21.0946 34.9299L21.3856 36.532C20.9108 36.6182 20.4219 36.4893 20.0514 36.1802C19.6809 35.8709 19.4668 35.4125 19.4668 34.9299Z" fill="#3C83F6"/>
</svg>
