<svg width="44" height="44" viewBox="0 0 44 44" fill="none" xmlns="http://www.w3.org/2000/svg">
<path d="M29.6348 17.125V12.4013L32.8583 10.9507C33.6598 10.59 33.6644 9.44823 32.8631 9.08278L21.9256 4.09254C21.792 4.03156 21.6468 4 21.5 4C21.3531 4 21.2079 4.03156 21.0743 4.09254L10.1368 9.08278C9.33716 9.44754 9.3386 10.5894 10.1417 10.9507L13.3652 12.4013V17.125C13.3652 17.3209 13.4213 17.5126 13.5269 17.6776C13.6325 17.8426 13.7831 17.9739 13.9609 18.056L21.0703 21.3373C21.205 21.3995 21.3516 21.4317 21.5 21.4317C21.6484 21.4317 21.795 21.3995 21.9297 21.3373L29.0391 18.056C29.2169 17.9739 29.3675 17.8426 29.4731 17.6776C29.5787 17.5126 29.6348 17.3209 29.6348 17.125ZM21.5 6.15242L29.9531 10.0091L21.5 13.813L13.047 10.0092L21.5 6.15242ZM21.5 19.2769L15.416 16.4689V13.3241L21.0793 15.8725C21.2115 15.9321 21.355 15.9628 21.5 15.9628C21.6451 15.9628 21.7885 15.9321 21.9208 15.8725L27.584 13.3241V16.4689L21.5 19.2769ZM18.8905 26.6623C18.6234 26.039 18.1497 25.5144 17.557 25.1851L13.2479 22.7912C13.1237 22.7221 12.9864 22.6797 12.8449 22.6665C12.7034 22.6534 12.5606 22.6698 12.4258 22.7147C11.6204 22.9833 10.9477 23.5047 10.4941 24.1944V17.4668C10.4941 15.2052 8.65418 13.3652 6.39258 13.3652H5.02539C4.4591 13.3652 4 13.8243 4 14.3906V28.6094C4 28.8072 4.05722 29.0008 4.16475 29.1668L7.73174 34.6737C7.8394 34.8397 7.89663 35.0333 7.89649 35.2311V37.9746C7.89649 38.5409 8.35559 39 8.92188 39H19.3125C19.8788 39 20.3379 38.5409 20.3379 37.9746V31.0918C20.3387 30.3974 20.1976 29.7102 19.9234 29.0722L18.8905 26.6623ZM18.2871 36.9492H9.94727V35.2311C9.94727 34.6363 9.77637 34.058 9.45303 33.5588L6.05078 28.3063V15.416H6.39258C7.52338 15.416 8.44336 16.336 8.44336 17.4668V24.7812C8.44336 24.9763 8.49894 25.1672 8.60366 25.3317L12.4318 31.3474C12.7359 31.8251 13.3697 31.9661 13.8474 31.662C14.3251 31.358 14.466 30.7241 14.162 30.2464L12.1908 27.1487C11.6802 26.3464 11.9465 25.315 12.7047 24.8353L16.5612 26.9778C16.7595 27.0884 16.9158 27.2615 17.0057 27.4702L18.0384 29.8801C18.203 30.2629 18.2876 30.6752 18.2872 31.0918V36.9492H18.2871ZM37.9746 13.3652H36.6074C34.3458 13.3652 32.5059 15.2052 32.5059 17.4668V24.1944C32.0523 23.5047 31.3797 22.9833 30.5742 22.7147C30.4394 22.6698 30.2967 22.6534 30.1551 22.6665C30.0136 22.6797 29.8763 22.7221 29.7521 22.7912L25.443 25.1851C24.8503 25.5144 24.3766 26.039 24.1095 26.6624L23.0767 29.0722C22.8024 29.7102 22.6613 30.3974 22.6621 31.0918V37.9746C22.6621 38.5409 23.1212 39 23.6875 39H34.0781C34.6444 39 35.1035 38.5409 35.1035 37.9746V35.2311C35.1035 35.0328 35.1605 34.8401 35.2683 34.6737L38.8353 29.1668C38.9428 29.0007 39 28.8071 39 28.6093V14.3906C39 13.8243 38.5409 13.3652 37.9746 13.3652ZM36.9492 28.3063L33.547 33.5588C33.224 34.0567 33.0523 34.6376 33.0527 35.2311V36.9492H24.7129V31.0918C24.7124 30.6752 24.7971 30.2628 24.9617 29.88L25.9944 27.4702C26.0843 27.2615 26.2405 27.0884 26.4389 26.9777L30.2953 24.8352C31.054 25.3152 31.3196 26.3468 30.8093 27.1487L28.838 30.2463C28.5341 30.7241 28.6749 31.3579 29.1527 31.6619C29.6302 31.9659 30.2642 31.8251 30.5683 31.3473L34.3964 25.3317C34.5011 25.1671 34.5567 24.9762 34.5567 24.7812V17.4668C34.5567 16.336 35.4767 15.416 36.6075 15.416H36.9493V28.3063H36.9492Z" fill="#3C83F6"/>
</svg>
