<svg width="44" height="44" viewBox="0 0 44 44" fill="none" xmlns="http://www.w3.org/2000/svg">
<path d="M11.8651 33.9046L10.0178 35.2499L4.64844 27.8765L6.49574 26.5313L11.8651 33.9046ZM25.2913 16.7406H17.3791V20.6307C17.3791 22.8156 19.1504 24.5868 21.3352 24.5868C23.5201 24.5868 25.2913 22.8156 25.2913 20.6307V16.7406ZM27.5765 20.6307C27.5765 24.0777 24.7822 26.872 21.3352 26.872C17.8883 26.872 15.0939 24.0777 15.0939 20.6307V14.4554H17.3269V9.95312H19.6121V14.4554H23.0582V9.95312H25.3435V14.4554H27.5765V20.6307Z" fill="#A856F7"/>
<path d="M37.3829 20.334C37.3829 11.4705 30.1976 4.28529 21.3341 4.28529C12.4706 4.2853 5.28529 11.4705 5.28529 20.334C5.28529 22.6162 5.7621 24.7841 6.61911 26.7474L4.52469 27.6616C3.54453 25.4162 3 22.9376 3 20.334C3.00001 10.2084 11.2085 2.00001 21.3341 2C31.4597 2 39.6681 10.2084 39.6681 20.334C39.6681 30.4596 31.4597 38.6681 21.3341 38.6681H20.1915V25.7301H22.4767V36.3428C30.807 35.7568 37.3829 28.8133 37.3829 20.334Z" fill="#A856F7"/>
<path d="M5.85619 26.0634C6.0478 26.0657 6.31958 26.0732 6.65168 26.0937C7.31364 26.1345 8.22683 26.2276 9.22893 26.4386C11.1799 26.8494 13.7169 27.7588 15.2259 29.8606C16.7348 31.9624 16.7852 34.6569 16.5506 36.6368C16.4301 37.6538 16.2263 38.5488 16.0533 39.1891C15.9665 39.5103 15.8867 39.7702 15.8276 39.9524C15.7981 40.0437 15.7736 40.1157 15.756 40.1664C15.7472 40.1917 15.7401 40.2118 15.7349 40.2263C15.7323 40.2336 15.7302 40.2395 15.7286 40.244C15.7278 40.2462 15.727 40.248 15.7265 40.2495C15.7262 40.2503 15.7259 40.251 15.7257 40.2516C15.7256 40.2518 15.7255 40.2522 15.7254 40.2524C15.7254 40.2525 15.7253 40.2527 15.5912 40.2034L14.6532 39.8578L14.6808 40.8571C14.6844 40.9932 14.6844 40.9996 14.6843 40.9999C14.6841 40.9999 14.6837 40.9999 14.6834 41C14.6828 41 14.6821 40.9999 14.6813 41C14.6797 41 14.6776 41 14.6753 41.0001C14.6705 41.0002 14.6643 41.0004 14.6566 41.0005C14.6412 41.0008 14.6198 41.0011 14.593 41.0014C14.5393 41.0019 14.4632 41.002 14.3674 41.0008C14.1758 40.9986 13.904 40.9911 13.572 40.9706C12.91 40.9298 11.9968 40.8367 10.9946 40.6257C9.04366 40.2149 6.50672 39.3055 4.99778 37.2037C3.48885 35.1019 3.43838 32.4073 3.67296 30.4274C3.79345 29.4104 3.99723 28.5154 4.17023 27.8751C4.25702 27.5539 4.33682 27.294 4.39592 27.1118C4.42549 27.0206 4.44993 26.9486 4.46755 26.8978C4.47637 26.8725 4.48348 26.8524 4.48868 26.8379C4.49128 26.8306 4.49346 26.8248 4.49508 26.8203C4.49589 26.8181 4.49653 26.8162 4.49709 26.8147C4.49736 26.8139 4.49762 26.8132 4.49783 26.8127C4.49794 26.8124 4.49807 26.812 4.49813 26.8119C4.4983 26.8115 4.50579 26.8139 5.5704 27.2065L4.49835 26.8112L4.76584 26.0858L5.53864 26.0643L5.5704 27.2065C5.53862 26.0644 5.53902 26.0644 5.53938 26.0643C5.53956 26.0643 5.53991 26.0644 5.5402 26.0643C5.54082 26.0643 5.54155 26.0643 5.54236 26.0643C5.54397 26.0642 5.54595 26.0642 5.54831 26.0641C5.55306 26.064 5.55934 26.0639 5.56706 26.0638C5.58247 26.0635 5.60375 26.0631 5.63058 26.0629C5.68428 26.0624 5.76033 26.0622 5.85619 26.0634ZM15.7252 40.253L15.4577 40.9784L14.6849 40.9999L14.6532 39.8578L15.7252 40.253ZM6.40449 28.3683C6.39522 28.4017 6.38582 28.436 6.3763 28.4713C6.22407 29.0346 6.04648 29.8173 5.94233 30.6963C5.72764 32.5084 5.85492 34.4792 6.85408 35.871C7.85324 37.2627 9.67989 38.0135 11.4655 38.3895C12.3317 38.5719 13.1301 38.6538 13.7126 38.6897C13.749 38.692 13.7845 38.694 13.8191 38.6959C13.8283 38.6625 13.8378 38.6282 13.8473 38.593C13.9995 38.0297 14.1772 37.247 14.2813 36.368C14.4926 34.5842 14.3726 32.6466 13.4157 31.2589L13.3695 31.1933C12.3703 29.8016 10.5437 29.0508 8.75807 28.6748C7.89189 28.4924 7.09351 28.4105 6.51101 28.3746C6.47461 28.3723 6.43909 28.3702 6.40449 28.3683Z" fill="#A856F7"/>
</svg>
