<svg width="44" height="44" viewBox="0 0 44 44" fill="none" xmlns="http://www.w3.org/2000/svg">
<path d="M30.4033 11.9041C30.5107 11.9043 30.6159 11.8738 30.7065 11.8163C30.7972 11.7588 30.8696 11.6767 30.9152 11.5795C30.9609 11.4823 30.9778 11.3741 30.9642 11.2677C30.9505 11.1612 30.9067 11.0608 30.838 10.9783L25.193 4.20432C25.1401 4.1404 25.0736 4.08895 24.9985 4.05363C24.9234 4.01831 24.8414 4 24.7584 4C24.6753 4 24.5933 4.01831 24.5182 4.05363C24.4431 4.08895 24.3767 4.1404 24.3237 4.20432L18.6787 10.9783C18.61 11.0608 18.5662 11.1612 18.5526 11.2677C18.5389 11.3741 18.5559 11.4823 18.6015 11.5795C18.6471 11.6767 18.7195 11.7588 18.8102 11.8163C18.9008 11.8738 19.006 11.9043 19.1134 11.9041H20.8069V17.2329L18.419 14.3653C18.3661 14.3014 18.2997 14.2499 18.2245 14.2146C18.1494 14.1793 18.0674 14.161 17.9844 14.161C17.9014 14.161 17.8194 14.1793 17.7442 14.2146C17.6691 14.2499 17.6027 14.3014 17.5497 14.3653L11.9047 21.1393C11.836 21.2218 11.7923 21.3221 11.7786 21.4286C11.7649 21.5351 11.7819 21.6433 11.8275 21.7405C11.8731 21.8376 11.9455 21.9198 12.0362 21.9773C12.1269 22.0348 12.232 22.0652 12.3394 22.0651H14.0329V27.9584L11.6451 25.0908C11.5921 25.0268 11.5257 24.9754 11.4505 24.9401C11.3754 24.9047 11.2934 24.8864 11.2104 24.8864C11.1274 24.8864 11.0454 24.9047 10.9703 24.9401C10.8951 24.9754 10.8287 25.0268 10.7757 25.0908L5.13075 31.8647C5.06204 31.9472 5.01828 32.0476 5.0046 32.1541C4.99092 32.2606 5.00789 32.3688 5.05352 32.4659C5.09915 32.5631 5.17154 32.6453 5.26221 32.7028C5.35288 32.7603 5.45806 32.7907 5.56542 32.7905H7.25891V38.4355C7.25891 38.5852 7.31839 38.7288 7.42425 38.8347C7.53011 38.9405 7.6737 39 7.82341 39H28.1453C28.2951 39 28.4386 38.9405 28.5445 38.8347C28.6504 38.7288 28.7098 38.5852 28.7098 38.4355V36.3469C29.434 36.6081 30.198 36.7418 30.9678 36.742C32.7644 36.742 34.4874 36.0283 35.7578 34.758C37.0281 33.4876 37.7418 31.7646 37.7418 29.968C37.7418 28.1715 37.0281 26.4485 35.7578 25.1781C34.4874 23.9077 32.7644 23.194 30.9678 23.194C30.198 23.1943 29.434 23.328 28.7098 23.5892V11.9041H30.4033ZM14.0329 32.226V37.871H8.38791V32.226C8.38791 32.0763 8.32843 31.9327 8.22257 31.8269C8.11671 31.721 7.97312 31.6615 7.82341 31.6615H6.7678L11.2104 26.3327L15.653 31.6615H14.5974C14.4477 31.6615 14.3041 31.721 14.1982 31.8269C14.0924 31.9327 14.0329 32.0763 14.0329 32.226ZM20.8069 21.5006V37.871H15.1619V32.7905H16.8554C16.9627 32.7907 17.0679 32.7603 17.1586 32.7028C17.2493 32.6453 17.3217 32.5631 17.3673 32.4659C17.4129 32.3688 17.4299 32.2606 17.4162 32.1541C17.4025 32.0476 17.3588 31.9472 17.29 31.8647L15.1619 29.3132V21.5006C15.1619 21.3508 15.1024 21.2073 14.9966 21.1014C14.8907 20.9955 14.7471 20.9361 14.5974 20.9361H13.5418L17.9844 15.6072L22.427 20.9361H21.3714C21.2217 20.9361 21.0781 20.9955 20.9722 21.1014C20.8663 21.2073 20.8069 21.3508 20.8069 21.5006ZM30.9678 24.323C32.0843 24.323 33.1757 24.6541 34.104 25.2744C35.0323 25.8947 35.7559 26.7763 36.1831 27.8078C36.6104 28.8393 36.7222 29.9743 36.5044 31.0693C36.2865 32.1643 35.7489 33.1702 34.9594 33.9596C34.17 34.7491 33.1641 35.2867 32.0691 35.5045C30.9741 35.7224 29.8391 35.6106 28.8076 35.1833C27.7761 34.7561 26.8945 34.0325 26.2742 33.1042C25.6539 32.1759 25.3229 31.0845 25.3229 29.968C25.3229 28.4709 25.9176 27.0351 26.9762 25.9764C28.0349 24.9178 29.4707 24.323 30.9678 24.323ZM28.1453 10.7751C27.9956 10.7751 27.8521 10.8346 27.7462 10.9404C27.6403 11.0463 27.5808 11.1899 27.5808 11.3396V24.1085C26.5543 24.704 25.7023 25.5587 25.1099 26.587C24.5176 27.6154 24.2059 28.7813 24.2059 29.968C24.2059 31.1548 24.5176 32.3207 25.1099 33.349C25.7023 34.3774 26.5543 35.2321 27.5808 35.8275V37.871H21.9359V22.0651H23.6294C23.7367 22.0652 23.8419 22.0348 23.9326 21.9773C24.0232 21.9198 24.0956 21.8376 24.1413 21.7405C24.1869 21.6433 24.2039 21.5351 24.1902 21.4286C24.1765 21.3221 24.1327 21.2218 24.064 21.1393L21.9359 18.5877V11.3396C21.9359 11.1899 21.8764 11.0463 21.7705 10.9404C21.6647 10.8346 21.5211 10.7751 21.3714 10.7751H20.3158L24.7584 5.44622L29.201 10.7751H28.1453Z" fill="#3C83F6" stroke="#3C83F6"/>
<path d="M29.5728 32.6444C29.7208 32.6438 29.8628 32.585 29.9679 32.4807L34.3541 28.0889L33.5638 27.293L29.5728 31.284L28.3704 30.0872L27.5801 30.8832L29.1776 32.4807C29.2828 32.585 29.4247 32.6438 29.5728 32.6444Z" fill="#3C83F6" stroke="#3C83F6"/>
</svg>
