<svg width="44" height="44" viewBox="0 0 44 44" fill="none" xmlns="http://www.w3.org/2000/svg">
<path d="M15.8164 16.8959C15.8164 20.104 18.4261 22.7137 21.6342 22.7137C24.8423 22.7137 27.452 20.104 27.452 16.8959C27.452 13.6878 24.8423 11.0781 21.6342 11.0781C18.4261 11.0781 15.8164 13.6878 15.8164 16.8959ZM24.7476 16.8959C24.7476 18.6125 23.3508 20.0093 21.6342 20.0093C19.9176 20.0093 18.5208 18.6125 18.5208 16.8959C18.5208 15.1793 19.9176 13.7825 21.6342 13.7825C23.3508 13.7825 24.7476 15.1793 24.7476 16.8959Z" fill="#A856F7"/>
<path d="M6.98787 24.0775L10.3163 20.7491C10.4454 20.6243 10.5484 20.4751 10.6193 20.3102C10.6902 20.1452 10.7275 19.9678 10.729 19.7882C10.7306 19.6087 10.6964 19.4306 10.6284 19.2644C10.5604 19.0983 10.46 18.9473 10.333 18.8203C10.2061 18.6934 10.0551 18.593 9.88893 18.525C9.72275 18.457 9.54469 18.4228 9.36515 18.4243C9.18561 18.4259 9.00817 18.4632 8.8432 18.5341C8.67823 18.6049 8.52902 18.7079 8.40429 18.8371L7.52942 19.712C8.47325 12.7624 14.4303 7.38474 21.6341 7.38474C27.7237 7.38474 33.1419 11.252 35.1168 17.0076C35.1742 17.1757 35.2642 17.3308 35.3817 17.464C35.4992 17.5972 35.6419 17.706 35.8015 17.784C35.9611 17.862 36.1345 17.9077 36.3118 17.9186C36.4891 17.9295 36.6668 17.9052 36.8347 17.8473C37.0027 17.7897 37.1577 17.6996 37.2908 17.582C37.4239 17.4645 37.5326 17.3219 37.6106 17.1623C37.6886 17.0028 37.7343 16.8294 37.7453 16.6522C37.7563 16.4749 37.7322 16.2973 37.6744 16.1293C36.5266 12.7877 34.3636 9.88798 31.4878 7.83527C28.6119 5.78255 25.1667 4.67932 21.6334 4.67969C12.8564 4.67969 5.61608 11.3852 4.76352 19.9418L3.65878 18.8371C3.53405 18.7079 3.38484 18.6049 3.21987 18.5341C3.0549 18.4632 2.87746 18.4259 2.69792 18.4243C2.51838 18.4228 2.34032 18.457 2.17414 18.525C2.00797 18.593 1.85699 18.6934 1.73003 18.8203C1.60307 18.9473 1.50267 19.0983 1.43468 19.2644C1.36669 19.4306 1.33248 19.6087 1.33404 19.7882C1.3356 19.9678 1.3729 20.1452 1.44376 20.3102C1.51463 20.4751 1.61764 20.6243 1.74679 20.7491L5.0752 24.0775C5.33955 24.3418 5.68504 24.4737 6.0312 24.4737C6.37736 24.4737 6.72352 24.3418 6.98787 24.0775ZM41.5207 22.5205L38.1923 19.192C37.9387 18.9385 37.5949 18.7961 37.2363 18.7961C36.8778 18.7961 36.5339 18.9385 36.2803 19.192L32.9519 22.5205C32.8228 22.6452 32.7197 22.7944 32.6489 22.9594C32.578 23.1243 32.5407 23.3018 32.5391 23.4813C32.5376 23.6609 32.5718 23.8389 32.6398 24.0051C32.7078 24.1713 32.8082 24.3222 32.9351 24.4492C33.0621 24.5762 33.2131 24.6766 33.3793 24.7446C33.5454 24.8125 33.7235 24.8468 33.903 24.8452C34.0826 24.8436 34.26 24.8063 34.425 24.7355C34.59 24.6646 34.7392 24.5616 34.8639 24.4324L35.7388 23.5576C35.3296 26.5774 33.96 29.3856 31.8323 31.5673V31.0575C31.8323 28.1124 29.4362 25.7163 26.4911 25.7163H16.7777C13.8326 25.7163 11.4366 28.1124 11.4366 31.0575V31.5801C9.96017 30.0735 8.83814 28.2567 8.1521 26.262C8.09466 26.0939 8.00461 25.9388 7.88711 25.8055C7.76962 25.6723 7.62699 25.5636 7.46739 25.4856C7.3078 25.4076 7.13439 25.3618 6.95708 25.3509C6.77978 25.3401 6.60207 25.3643 6.43415 25.4222C6.26616 25.4798 6.11118 25.57 5.97804 25.6875C5.84491 25.805 5.73625 25.9477 5.65827 26.1072C5.58028 26.2667 5.53451 26.4401 5.52356 26.6173C5.5126 26.7946 5.53669 26.9723 5.59444 27.1402C6.7423 30.4819 8.90522 33.3816 11.7811 35.4343C14.6569 37.487 18.1021 38.5902 21.6354 38.5898C30.4125 38.5898 37.6528 31.8843 38.5053 23.3277L39.6101 24.4324C39.8744 24.6968 40.2199 24.8286 40.5661 24.8286C40.9122 24.8286 41.2577 24.6968 41.5221 24.4324C41.7756 24.1789 41.918 23.835 41.918 23.4764C41.918 23.1179 41.7756 22.774 41.5221 22.5205H41.5207ZM14.1403 33.7517V31.0568C14.1403 29.6032 15.3234 28.42 16.777 28.42H26.4905C27.9441 28.42 29.1272 29.6032 29.1272 31.0568V33.7321C26.9468 35.0877 24.3844 35.8848 21.6334 35.8848C18.9857 35.8846 16.3912 35.1459 14.1403 33.7517Z" fill="#A856F7"/>
</svg>
