<svg width="44" height="44" viewBox="0 0 44 44" fill="none" xmlns="http://www.w3.org/2000/svg">
<path d="M31.4615 7.43516H23.3247V5.00122C23.3247 4.75018 23.225 4.50943 23.0475 4.33192C22.8699 4.15441 22.6292 4.05469 22.3782 4.05469H20.8907C20.6397 4.05469 20.399 4.15441 20.2215 4.33192C20.0439 4.50943 19.9442 4.75018 19.9442 5.00122V7.43516H11.8074C10.1105 7.43605 8.48338 8.11054 7.28348 9.31044C6.08359 10.5103 5.4091 12.1375 5.4082 13.8344V17.6476C5.4082 21.8425 7.07465 25.8657 10.041 28.832C13.0073 31.7983 17.0304 33.4648 21.2254 33.4648H22.3782C22.6292 33.4648 22.8699 33.365 23.0475 33.1875C23.225 33.01 23.3247 32.7693 23.3247 32.5182V31.0308C23.3247 30.7798 23.225 30.539 23.0475 30.3615C22.8699 30.184 22.6292 30.0843 22.3782 30.0843H21.2254C17.927 30.0843 14.7637 28.774 12.4313 26.4417C10.099 24.1093 8.78867 20.946 8.78867 17.6476V13.8344C8.78867 13.0338 9.10672 12.2659 9.67285 11.6998C10.239 11.1337 11.0068 10.8156 11.8074 10.8156H31.4615C32.2621 10.8156 33.0299 11.1337 33.5961 11.6998C34.1622 12.2659 34.4802 13.0338 34.4802 13.8344V17.9146C34.4781 18.8421 34.3646 19.7659 34.1422 20.6663C34.0832 20.8983 34.1147 21.144 34.2302 21.3537C34.3457 21.5634 34.5366 21.7213 34.7642 21.7954L36.184 22.2585C36.3066 22.2992 36.4363 22.3143 36.565 22.3028C36.6937 22.2913 36.8187 22.2534 36.9322 22.1916C37.0457 22.1298 37.1452 22.0453 37.2247 21.9434C37.3042 21.8416 37.3619 21.7244 37.3942 21.5993C37.7016 20.3951 37.8583 19.1574 37.8607 17.9146V13.8344C37.8598 12.1375 37.1853 10.5103 35.9854 9.31044C34.7855 8.11054 33.1584 7.43605 31.4615 7.43516Z" fill="#A856F7"/>
<path d="M16.2259 21.6314C17.7194 21.6314 18.9302 20.4206 18.9302 18.927C18.9302 17.4334 17.7194 16.2227 16.2259 16.2227C14.7323 16.2227 13.5215 17.4334 13.5215 18.927C13.5215 20.4206 14.7323 21.6314 16.2259 21.6314Z" fill="#A856F7"/>
<path d="M27.0423 21.6314C28.5359 21.6314 29.7466 20.4206 29.7466 18.927C29.7466 17.4334 28.5359 16.2227 27.0423 16.2227C25.5487 16.2227 24.3379 17.4334 24.3379 18.927C24.3379 20.4206 25.5487 21.6314 27.0423 21.6314Z" fill="#A856F7"/>
<path d="M37.7699 31.3678L40.8326 32.5746C40.8956 32.5996 40.9497 32.6429 40.9879 32.6989C41.026 32.755 41.0464 32.8212 41.0464 32.889C41.0464 32.9568 41.026 33.0231 40.9879 33.0791C40.9497 33.1352 40.8956 33.1785 40.8326 33.2034L37.7699 34.4102C37.2277 34.6246 36.7353 34.9479 36.323 35.3601C35.9108 35.7724 35.5875 36.2648 35.3731 36.807L34.1663 39.8494C34.1414 39.9125 34.0981 39.9666 34.042 40.0047C33.9859 40.0428 33.9197 40.0632 33.8519 40.0632C33.7841 40.0632 33.7179 40.0428 33.6618 40.0047C33.6058 39.9666 33.5625 39.9125 33.5375 39.8494L32.3307 36.807C32.1169 36.2645 31.7937 35.7718 31.3814 35.3595C30.9691 34.9472 30.4764 34.6241 29.934 34.4102L26.8915 33.2034C26.8285 33.1785 26.7744 33.1352 26.7362 33.0791C26.6981 33.0231 26.6777 32.9568 26.6777 32.889C26.6777 32.8212 26.6981 32.755 26.7362 32.6989C26.7744 32.6429 26.8285 32.5996 26.8915 32.5746L29.934 31.3678C30.4764 31.154 30.9691 30.8309 31.3814 30.4185C31.7937 30.0062 32.1169 29.5135 32.3307 28.9711L33.5375 25.9286C33.5625 25.8656 33.6058 25.8115 33.6618 25.7734C33.7179 25.7352 33.7841 25.7148 33.8519 25.7148C33.9197 25.7148 33.9859 25.7352 34.042 25.7734C34.0981 25.8115 34.1414 25.8656 34.1663 25.9286L35.3731 28.9711C35.5875 29.5132 35.9108 30.0057 36.323 30.4179C36.7353 30.8301 37.2277 31.1534 37.7699 31.3678Z" fill="#A856F7"/>
</svg>
