<svg width="36" height="26" viewBox="0 0 36 26" fill="none" xmlns="http://www.w3.org/2000/svg">
<path d="M36 22C36 23.0609 36 25 36 26C34.5 26 33.0609 26 32 26H4C2.93913 26 2 26 0.00094986 26C0 24.5 0 23.0609 0 22V4C0 2.93913 0 1 9.83179e-05 0.000443539C1.00066 -4.56673e-05 2.93913 1.21265e-06 4 1.21265e-06H32C33.0609 1.21265e-06 35 1.21264e-06 36 0.00029855C36 1 36 2.93913 36 4V22Z" fill="#009B3A"/>
<path d="M32.7275 13L17.9995 24.124L3.27148 13L17.9995 1.875L32.7275 13Z" fill="#FEDF01"/>
<path d="M17.9756 19.3818C21.5422 19.3818 24.4336 16.4905 24.4336 12.9238C24.4336 9.35717 21.5422 6.46582 17.9756 6.46582C14.4089 6.46582 11.5176 9.35717 11.5176 12.9238C11.5176 16.4905 14.4089 19.3818 17.9756 19.3818Z" fill="#002776"/>
<path d="M12.2775 9.88682C11.9421 10.5189 11.7149 11.2027 11.6055 11.9098C15.6005 11.6198 21.0225 13.8008 23.3495 16.5048C23.7515 15.9008 24.0495 15.2248 24.2325 14.5008C21.3605 11.6928 16.3155 9.87082 12.2775 9.88682Z" fill="#CBE9D4"/>
<path d="M12 13.2334H13V14.2334H12V13.2334ZM13 15.2334H14V16.2334H13V15.2334Z" fill="#88C9F9"/>
<path d="M15 13.2334H16V14.2334H15V13.2334ZM17 14.2334H18V15.2334H17V14.2334ZM21 16.2334H22V17.2334H21V16.2334ZM18 17.2334H19V18.2334H18V17.2334ZM21 11.2334H22V12.2334H21V11.2334Z" fill="#55ACEE"/>
<path d="M19 15.2334H20V16.2334H19V15.2334Z" fill="#3B88C3"/>
</svg>
