<svg width="512" height="338" viewBox="0 0 512 338" fill="none" xmlns="http://www.w3.org/2000/svg">
<g clip-path="url(#clip0_411_2620)">
<path d="M49.4451 0.492127C51.3031 0.487513 53.161 0.481156 55.019 0.473218C60.0995 0.456582 65.1798 0.464746 70.2603 0.477163C75.7491 0.486235 81.2379 0.472234 86.7268 0.461244C97.4695 0.443476 108.212 0.44729 118.955 0.458894C127.687 0.467935 136.42 0.46915 145.152 0.464799C146.396 0.464186 147.64 0.463573 148.921 0.462942C151.448 0.461663 153.975 0.460366 156.502 0.459051C179.511 0.447976 202.52 0.459453 225.529 0.480422C246.517 0.499403 267.505 0.497704 288.492 0.478578C312.093 0.457142 335.693 0.448749 359.293 0.461027C361.811 0.462301 364.328 0.463558 366.846 0.464799C368.704 0.465725 368.704 0.465725 370.599 0.466669C379.319 0.47012 388.039 0.4643 396.759 0.454881C407.389 0.443651 418.018 0.446721 428.648 0.468004C434.069 0.478501 439.49 0.482658 444.911 0.469407C449.878 0.457451 454.844 0.464099 459.811 0.485317C461.604 0.48977 463.396 0.487548 465.189 0.477814C478.609 0.410557 490.145 1.51354 500.737 10.6563C509.906 20.1577 512.304 29.4944 512.266 42.2458C512.271 43.3711 512.276 44.4964 512.28 45.6558C512.293 49.4226 512.291 53.1893 512.29 56.9561C512.295 59.6585 512.302 62.3608 512.31 65.0632C512.327 71.6399 512.332 78.2166 512.333 84.7934C512.334 90.1416 512.338 95.4899 512.345 100.838C512.362 116.014 512.371 131.19 512.37 146.366C512.37 147.593 512.37 147.593 512.37 148.844C512.37 149.662 512.37 150.481 512.369 151.324C512.369 164.586 512.388 177.847 512.416 191.109C512.445 204.738 512.459 218.367 512.457 231.997C512.456 239.643 512.462 247.29 512.483 254.937C512.501 261.448 512.506 267.96 512.492 274.471C512.486 277.79 512.488 281.108 512.503 284.427C512.518 288.034 512.509 291.64 512.494 295.246C512.504 296.283 512.514 297.32 512.525 298.389C512.425 309.02 509.178 317.697 502.269 325.773C491.017 336.812 477.723 337.442 462.907 337.388C461.051 337.392 459.195 337.397 457.339 337.404C452.25 337.419 447.161 337.414 442.071 337.407C436.578 337.402 431.085 337.415 425.593 337.425C414.836 337.442 404.079 337.443 393.322 337.438C384.579 337.434 375.835 337.435 367.092 337.44C365.847 337.441 364.603 337.442 363.32 337.443C360.792 337.444 358.264 337.446 355.736 337.447C338.761 337.457 321.786 337.461 304.812 337.454C303.816 337.453 303.816 337.453 302.801 337.453C297.413 337.45 292.025 337.448 286.637 337.445C265.623 337.435 244.609 337.443 223.595 337.467C199.974 337.493 176.354 337.505 152.733 337.498C140.23 337.495 127.728 337.497 115.225 337.515C104.582 337.529 93.9388 337.53 83.2955 337.513C77.8663 337.504 72.4373 337.502 67.0081 337.517C62.0351 337.531 57.0624 337.526 52.0894 337.507C50.2934 337.503 48.4973 337.506 46.7013 337.517C33.4113 337.588 21.367 336.174 10.9991 327C2.32017 317.212 -0.463074 308.4 -0.388618 295.514C-0.394004 294.387 -0.399389 293.26 -0.404938 292.099C-0.419198 288.338 -0.412119 284.578 -0.404991 280.817C-0.409054 278.114 -0.41756 275.412 -0.425789 272.709C-0.442948 266.139 -0.443823 259.569 -0.438576 253C-0.434527 247.657 -0.435984 242.315 -0.441322 236.972C-0.442071 236.211 -0.442821 235.449 -0.443592 234.664C-0.445124 233.117 -0.446663 231.57 -0.448208 230.022C-0.461923 215.524 -0.456502 201.026 -0.445023 186.528C-0.435092 173.28 -0.448027 160.032 -0.471954 146.783C-0.496367 133.163 -0.505948 119.543 -0.499302 105.922C-0.495814 98.282 -0.49801 90.6421 -0.515553 83.0021C-0.530302 76.498 -0.530877 69.9941 -0.513485 63.4901C-0.504995 60.1751 -0.504958 56.8608 -0.518135 53.5458C-0.531358 49.9437 -0.519784 46.3424 -0.502144 42.7403C-0.511749 41.7046 -0.521354 40.6689 -0.53125 39.6018C-0.41102 27.6236 3.78356 18.6053 11.9991 10.0001C22.1829 0.177311 36.2516 0.420485 49.4451 0.492127Z" fill="#FE4B55"/>
<path d="M49.446 0.492127C51.304 0.487513 53.162 0.481156 55.0199 0.473218C60.1005 0.456582 65.1807 0.464746 70.2612 0.477163C75.7501 0.486235 81.2389 0.472234 86.7277 0.461244C97.4704 0.443476 108.213 0.44729 118.956 0.458894C127.688 0.467935 136.421 0.46915 145.153 0.464799C146.397 0.464186 147.641 0.463573 148.922 0.462942C151.449 0.461663 153.976 0.460366 156.503 0.459051C179.512 0.447976 202.521 0.459453 225.53 0.480422C246.518 0.499403 267.505 0.497704 288.493 0.478578C312.094 0.457142 335.694 0.448749 359.294 0.461027C361.812 0.462301 364.329 0.463558 366.847 0.464799C368.705 0.465725 368.705 0.465725 370.6 0.466669C379.32 0.47012 388.04 0.4643 396.76 0.454881C407.389 0.443651 418.019 0.446721 428.649 0.468004C434.07 0.478501 439.491 0.482658 444.912 0.469407C449.879 0.457451 454.845 0.464099 459.812 0.485317C461.605 0.48977 463.397 0.487548 465.19 0.477814C478.61 0.410557 490.146 1.51354 500.738 10.6563C525.736 36.5605 512 84.4637 512 113C343.04 113 174.08 113 0 113C0 22.5693 0 22.5693 12 10.0001C22.1839 0.177311 36.2525 0.420485 49.446 0.492127Z" fill="#454554"/>
<path d="M-0.000344038 225C168.96 225 337.92 225 512 225C512 314.4 512 314.4 502.269 325.773C491.018 336.812 477.723 337.442 462.908 337.388C461.052 337.392 459.195 337.397 457.339 337.404C452.25 337.418 447.161 337.414 442.072 337.407C436.579 337.402 431.086 337.415 425.593 337.425C414.836 337.442 404.08 337.443 393.323 337.438C384.579 337.434 375.836 337.435 367.092 337.44C365.848 337.441 364.603 337.442 363.321 337.443C360.793 337.444 358.264 337.446 355.736 337.447C338.762 337.457 321.787 337.461 304.812 337.454C303.817 337.453 303.817 337.453 302.802 337.453C297.414 337.45 292.026 337.448 286.638 337.445C265.624 337.435 244.61 337.443 223.596 337.467C199.975 337.493 176.354 337.505 152.733 337.498C140.231 337.495 127.728 337.497 115.226 337.515C104.583 337.529 93.9394 337.53 83.2962 337.513C77.8669 337.504 72.4379 337.502 67.0087 337.517C62.0357 337.531 57.063 337.526 52.09 337.507C50.294 337.503 48.4979 337.506 46.7019 337.517C33.4119 337.588 21.3676 336.174 10.9997 327C-13.2359 299.666 -0.000344038 258.763 -0.000344038 225Z" fill="#FFE159"/>
</g>
<defs>
<clipPath id="clip0_411_2620">
<rect width="512" height="338" fill="white"/>
</clipPath>
</defs>
</svg>
