<svg width="512" height="338" viewBox="0 0 512 338" fill="none" xmlns="http://www.w3.org/2000/svg">
<g clip-path="url(#clip0_411_2597)">
<path d="M49.4444 0.492127C51.3023 0.487513 53.1603 0.481156 55.0182 0.473218C60.0988 0.456582 65.179 0.464746 70.2595 0.477163C75.7484 0.486235 81.2372 0.472234 86.726 0.461244C97.4687 0.443476 108.211 0.44729 118.954 0.458894C127.687 0.467935 136.419 0.46915 145.151 0.464799C146.395 0.464186 147.639 0.463573 148.921 0.462942C151.448 0.461663 153.975 0.460366 156.502 0.459051C179.511 0.447976 202.52 0.459453 225.529 0.480422C246.516 0.499403 267.504 0.497704 288.491 0.478578C312.092 0.457142 335.692 0.448749 359.292 0.461027C361.81 0.462301 364.328 0.463558 366.845 0.464799C368.703 0.465725 368.703 0.465725 370.599 0.466669C379.318 0.47012 388.038 0.4643 396.758 0.454881C407.388 0.443651 418.017 0.446721 428.647 0.468004C434.068 0.478501 439.489 0.482658 444.91 0.469407C449.877 0.457451 454.844 0.464099 459.81 0.485317C461.603 0.48977 463.396 0.487548 465.188 0.477814C478.608 0.410557 490.144 1.51354 500.737 10.6563C509.905 20.1577 512.304 29.4944 512.266 42.2458C512.27 43.3711 512.275 44.4964 512.279 45.6558C512.292 49.4226 512.29 53.1893 512.289 56.9561C512.294 59.6585 512.302 62.3608 512.309 65.0632C512.326 71.6399 512.331 78.2166 512.332 84.7934C512.333 90.1416 512.337 95.4899 512.344 100.838C512.361 116.014 512.371 131.19 512.369 146.366C512.369 147.593 512.369 147.593 512.369 148.844C512.369 149.662 512.369 150.481 512.369 151.324C512.368 164.586 512.387 177.847 512.415 191.109C512.444 204.738 512.458 218.367 512.456 231.997C512.455 239.643 512.461 247.29 512.482 254.937C512.501 261.448 512.505 267.96 512.491 274.471C512.485 277.79 512.487 281.108 512.502 284.427C512.517 288.034 512.508 291.64 512.493 295.246C512.503 296.283 512.513 297.32 512.524 298.389C512.424 309.02 509.178 317.697 502.268 325.773C491.018 336.81 477.726 337.442 462.913 337.388C461.058 337.392 459.202 337.397 457.347 337.404C452.26 337.419 447.173 337.414 442.085 337.407C436.594 337.402 431.103 337.415 425.612 337.425C414.859 337.442 404.106 337.443 393.353 337.438C384.612 337.434 375.871 337.435 367.13 337.44C365.263 337.442 365.263 337.442 363.359 337.443C360.832 337.444 358.304 337.446 355.776 337.447C338.805 337.457 321.834 337.461 304.863 337.454C303.868 337.453 303.868 337.453 302.852 337.453C297.466 337.45 292.079 337.448 286.692 337.445C265.685 337.435 244.677 337.443 223.67 337.467C200.055 337.493 176.441 337.505 152.826 337.498C140.327 337.495 127.829 337.497 115.33 337.515C104.689 337.529 94.0489 337.53 83.4083 337.513C77.981 337.504 72.5539 337.502 67.1266 337.517C62.1541 337.531 57.182 337.526 52.2095 337.507C50.4148 337.503 48.6201 337.506 46.8255 337.517C33.3979 337.589 21.8594 336.492 11.26 327.344C2.09114 317.842 -0.306876 308.506 -0.269119 295.754C-0.27365 294.629 -0.27818 293.504 -0.282848 292.344C-0.295498 288.578 -0.293873 284.811 -0.292221 281.044C-0.29712 278.342 -0.304955 275.639 -0.312576 272.937C-0.329165 266.36 -0.334684 259.783 -0.3358 253.207C-0.336752 247.858 -0.340868 242.51 -0.347202 237.162C-0.364809 221.986 -0.37404 206.81 -0.37254 191.634C-0.37246 190.816 -0.372382 189.999 -0.372299 189.156C-0.372217 188.338 -0.372135 187.519 -0.372051 186.676C-0.371239 173.414 -0.390372 160.153 -0.418575 146.891C-0.447332 133.262 -0.461115 119.633 -0.459389 106.003C-0.458726 98.3566 -0.464177 90.71 -0.485744 83.0632C-0.503993 76.5518 -0.508273 70.0406 -0.494724 63.5291C-0.488213 60.2101 -0.490204 56.8917 -0.505432 53.5727C-0.520905 49.9661 -0.511561 46.3604 -0.49617 42.7538C-0.506457 41.7167 -0.516745 40.6796 -0.527344 39.6111C-0.414759 27.6275 3.77931 18.6089 11.9983 10.0001C22.1822 0.177311 36.2508 0.420485 49.4444 0.492127Z" fill="#F4F4F4"/>
<path d="M11.9983 10C18.0963 13.9898 24.0268 18.1513 29.8733 22.5C31.5465 23.7383 33.2196 24.9766 34.8928 26.2148C35.7393 26.8425 36.5857 27.4701 37.4578 28.1167C41.488 31.1043 45.5234 34.0847 49.5608 37.0625C50.3463 37.6419 51.1319 38.2214 51.9412 38.8184C58.0089 43.2871 64.1131 47.7034 70.229 52.1057C76.4846 56.6143 82.6915 61.1868 88.8928 65.7695C94.2369 69.7142 99.6075 73.6196 104.998 77.5C115.192 84.84 125.292 92.3045 135.394 99.7705C144.636 106.6 153.902 113.392 163.229 120.106C169.485 124.614 175.691 129.187 181.893 133.77C187.237 137.714 192.608 141.619 197.998 145.5C204.496 150.182 210.977 154.888 217.436 159.625C218.247 160.217 219.059 160.81 219.895 161.42C220.65 161.975 221.404 162.53 222.182 163.102C222.848 163.59 223.513 164.078 224.199 164.581C225.998 166 225.998 166 228.998 169C179.828 169 130.658 169 79.9983 169C84.1298 173.722 88.2454 178.397 92.4983 183C96.1435 186.958 99.7375 190.952 103.264 195.016C106.793 199.054 110.405 203.019 113.998 207C116.246 209.497 118.493 211.995 120.74 214.492C122.265 216.186 123.791 217.879 125.319 219.57C128.697 223.316 132.067 227.065 135.373 230.875C138.357 234.303 141.42 237.656 144.498 241C148.142 244.959 151.737 248.952 155.264 253.016C158.793 257.054 162.405 261.019 165.998 265C168.246 267.497 170.493 269.995 172.74 272.492C174.265 274.186 175.791 275.879 177.319 277.57C180.697 281.316 184.067 285.065 187.373 288.875C190.357 292.303 193.42 295.656 196.498 299C200.142 302.959 203.737 306.952 207.264 311.016C209.279 313.321 211.324 315.599 213.373 317.875C214.125 318.71 214.876 319.546 215.651 320.406C217.26 322.184 218.878 323.955 220.502 325.719C221.305 326.595 222.108 327.472 222.936 328.375C223.667 329.166 224.398 329.958 225.151 330.773C226.841 332.811 227.872 334.629 228.998 337C203.39 337.094 177.781 337.164 152.172 337.207C140.281 337.228 128.39 337.256 116.498 337.302C106.131 337.342 95.7634 337.367 85.3959 337.376C79.9091 337.382 74.4226 337.394 68.9359 337.423C63.7649 337.45 58.5942 337.458 53.4231 337.452C51.5317 337.454 49.6404 337.461 47.7491 337.477C33.9772 337.584 22.1541 336.747 11.26 327.344C2.09114 317.842 -0.306877 308.506 -0.26912 295.754C-0.273651 294.629 -0.278183 293.504 -0.282851 292.344C-0.295501 288.577 -0.293874 284.811 -0.292222 281.044C-0.297121 278.342 -0.304956 275.639 -0.312577 272.937C-0.329166 266.36 -0.334686 259.783 -0.335802 253.207C-0.336754 247.858 -0.340869 242.51 -0.347203 237.162C-0.36481 221.986 -0.374043 206.81 -0.372542 191.634C-0.372462 190.816 -0.372382 189.999 -0.3723 189.156C-0.372218 188.338 -0.372136 187.519 -0.372052 186.676C-0.37124 173.414 -0.390374 160.153 -0.418577 146.891C-0.447334 133.262 -0.461116 119.633 -0.45939 106.003C-0.458727 98.3566 -0.464178 90.7099 -0.485745 83.0631C-0.503994 76.5517 -0.508274 70.0405 -0.494726 63.5291C-0.488214 60.2101 -0.490205 56.8917 -0.505433 53.5727C-0.520906 49.9661 -0.511562 46.3603 -0.496171 42.7537C-0.506458 41.7166 -0.516745 40.6796 -0.527344 39.611C-0.438209 30.1234 1.92672 21.5823 8.24831 14.3125C8.95471 13.4836 9.66112 12.6548 10.3889 11.8008C10.92 11.2065 11.4511 10.6123 11.9983 10Z" fill="#FE4C56"/>
<path d="M11.9983 10C18.0963 13.9898 24.0268 18.1513 29.8733 22.5C31.5465 23.7383 33.2196 24.9766 34.8928 26.2148C35.7393 26.8425 36.5857 27.4701 37.4578 28.1167C41.488 31.1043 45.5234 34.0847 49.5608 37.0625C50.3463 37.6419 51.1319 38.2214 51.9412 38.8184C58.0089 43.2871 64.1131 47.7034 70.229 52.1057C76.4846 56.6143 82.6915 61.1868 88.8928 65.7695C94.2369 69.7142 99.6075 73.6196 104.998 77.5C115.192 84.84 125.292 92.3045 135.394 99.7705C144.636 106.6 153.902 113.392 163.229 120.106C169.485 124.614 175.691 129.187 181.893 133.77C187.237 137.714 192.608 141.619 197.998 145.5C204.496 150.182 210.977 154.888 217.436 159.625C218.247 160.217 219.059 160.81 219.895 161.42C220.65 161.975 221.404 162.53 222.182 163.102C222.848 163.59 223.513 164.078 224.199 164.581C225.998 166 225.998 166 228.998 169C179.828 169 130.658 169 79.9983 169C84.1298 173.722 88.2454 178.397 92.4983 183C96.1435 186.958 99.7375 190.952 103.264 195.016C106.793 199.054 110.405 203.019 113.998 207C116.246 209.497 118.493 211.995 120.74 214.492C122.265 216.186 123.791 217.879 125.319 219.57C128.697 223.316 132.067 227.065 135.373 230.875C138.357 234.303 141.42 237.656 144.498 241C148.142 244.959 151.737 248.952 155.264 253.016C158.793 257.054 162.405 261.019 165.998 265C168.246 267.497 170.493 269.995 172.74 272.492C174.265 274.186 175.791 275.879 177.319 277.57C180.697 281.316 184.067 285.065 187.373 288.875C190.357 292.303 193.42 295.656 196.498 299C200.142 302.959 203.737 306.952 207.264 311.016C209.279 313.321 211.324 315.599 213.373 317.875C214.125 318.71 214.876 319.546 215.651 320.406C217.26 322.184 218.878 323.955 220.502 325.719C221.305 326.595 222.108 327.472 222.936 328.375C223.667 329.166 224.398 329.958 225.151 330.773C226.841 332.811 227.872 334.629 228.998 337C203.39 337.094 177.781 337.164 152.172 337.207C140.281 337.228 128.39 337.256 116.498 337.302C106.131 337.342 95.7634 337.367 85.3959 337.376C79.9091 337.382 74.4226 337.394 68.9359 337.423C63.7649 337.45 58.5942 337.458 53.4231 337.452C51.5317 337.454 49.6404 337.461 47.7491 337.477C36.2637 337.566 25.8031 337.403 15.8108 330.938C13.9983 329 13.9983 329 12.9983 326C76.0283 326 139.058 326 203.998 326C203.998 325.34 203.998 324.68 203.998 324C203.008 323.67 202.018 323.34 200.998 323C199.49 321.504 199.49 321.504 197.873 319.562C195.167 316.373 192.428 313.228 189.623 310.125C188.863 309.282 188.102 308.439 187.319 307.57C186.553 306.722 185.787 305.874 184.998 305C182.75 302.503 180.503 300.005 178.256 297.508C176.731 295.814 175.205 294.121 173.678 292.43C170.299 288.684 166.929 284.935 163.623 281.125C160.639 277.697 157.576 274.344 154.498 271C150.854 267.041 147.259 263.048 143.733 258.984C140.203 254.946 136.592 250.981 132.998 247C130.75 244.503 128.503 242.005 126.256 239.508C124.731 237.814 123.205 236.121 121.678 234.43C118.299 230.684 114.929 226.935 111.623 223.125C108.639 219.697 105.576 216.344 102.498 213C98.8542 209.041 95.2592 205.048 91.7327 200.984C88.2033 196.946 84.592 192.981 80.9983 189C78.7503 186.503 76.5032 184.005 74.2561 181.508C72.7312 179.814 71.2052 178.121 69.678 176.43C67.4472 173.957 65.2224 171.479 62.9983 169C62.3099 168.241 61.6216 167.481 60.9124 166.699C60.2807 165.994 59.6491 165.289 58.9983 164.562C58.4414 163.945 57.8846 163.328 57.3108 162.691C55.9983 161 55.9983 161 54.9983 158C100.538 157.67 146.078 157.34 192.998 157C186.728 152.38 180.458 147.76 173.998 143C168.619 139.027 168.619 139.027 166.489 137.453C158.949 131.886 151.374 126.37 143.768 120.894C137.512 116.386 131.305 111.813 125.104 107.23C119.76 103.286 114.389 99.3804 108.998 95.5C98.8047 88.16 88.7043 80.6955 78.6028 73.2295C69.3632 66.4025 60.1008 59.6116 50.7764 52.9009C44.5044 48.381 38.2773 43.8018 32.0686 39.1953C25.1044 34.0408 18.0531 29.0392 10.9983 24C10.9983 123 10.9983 222 10.9983 324C7.1802 322.091 6.42149 321.675 4.37331 318.312C3.96854 317.669 3.56377 317.026 3.14674 316.363C-0.168251 309.542 -0.291214 303.216 -0.26912 295.754C-0.273651 294.629 -0.278183 293.504 -0.282851 292.344C-0.295501 288.577 -0.293874 284.811 -0.292222 281.044C-0.297121 278.342 -0.304956 275.639 -0.312577 272.937C-0.329166 266.36 -0.334686 259.783 -0.335802 253.207C-0.336754 247.858 -0.340869 242.51 -0.347203 237.162C-0.36481 221.986 -0.374043 206.81 -0.372542 191.634C-0.372462 190.816 -0.372382 189.999 -0.3723 189.156C-0.372218 188.338 -0.372136 187.519 -0.372052 186.676C-0.37124 173.414 -0.390374 160.153 -0.418577 146.891C-0.447334 133.262 -0.461116 119.633 -0.45939 106.003C-0.458727 98.3566 -0.464178 90.7099 -0.485745 83.0631C-0.503994 76.5517 -0.508274 70.0405 -0.494726 63.5291C-0.488214 60.2101 -0.490205 56.8917 -0.505433 53.5727C-0.520906 49.9661 -0.511562 46.3603 -0.496171 42.7537C-0.506458 41.7166 -0.516745 40.6796 -0.527344 39.611C-0.438209 30.1234 1.92672 21.5823 8.24831 14.3125C8.95471 13.4836 9.66112 12.6548 10.3889 11.8008C10.92 11.2065 11.4511 10.6123 11.9983 10Z" fill="#43499B"/>
<path d="M66 209C68.8612 211.861 70.3162 214.153 72.1875 217.688C72.7173 218.681 73.2471 219.675 73.793 220.699C74.1913 221.458 74.5896 222.218 75 223C75.843 222.423 76.6861 221.845 77.5547 221.25C78.6613 220.5 79.7681 219.75 80.875 219C82.5108 217.886 82.5108 217.886 84.1797 216.75C87 215 87 215 89 215C88.67 220.61 88.34 226.22 88 232C91.96 231.505 91.96 231.505 96 231C97.6657 230.941 99.3334 230.911 101 230.938C101.763 230.947 102.526 230.956 103.312 230.965C103.869 230.976 104.426 230.988 105 231C103.612 234.89 101.785 237.966 99.375 241.312C98.7434 242.196 98.1117 243.079 97.4609 243.988C96.9788 244.652 96.4967 245.316 96 246C96.825 246.248 97.65 246.495 98.5 246.75C102.524 248.187 106.22 250.024 110 252C109 255 109 255 106.277 256.605C105.175 257.128 104.073 257.65 102.938 258.188C101.833 258.717 100.728 259.247 99.5898 259.793C98.7352 260.191 97.8805 260.59 97 261C98.9765 264.53 100.949 267.984 103.25 271.312C105 274 105 274 105 276C99.2224 276.12 93.7204 275.832 88 275C88.1637 275.705 88.3274 276.41 88.4961 277.137C89.017 280.097 89.0987 282.811 89.0625 285.812C89.0535 286.788 89.0445 287.764 89.0352 288.77C89.0236 289.506 89.012 290.242 89 291C85.5157 290.372 83.2488 288.97 80.375 286.938C77.4545 284.66 77.4545 284.66 74 284C72.02 288.29 70.04 292.58 68 297C65 296 65 296 63.3945 293.277C62.8725 292.175 62.3504 291.073 61.8125 289.938C61.2827 288.833 60.7529 287.728 60.207 286.59C59.8087 285.735 59.4104 284.881 59 284C54.9643 285.484 52.0055 287.349 48.6484 289.977C47 291 47 291 44 291C43.8886 285.542 44.0834 280.385 45 275C43.8656 275.165 42.7313 275.33 41.5625 275.5C37.0294 276.076 32.5625 276.095 28 276C29.3256 272.377 30.9435 269.365 33.125 266.188C33.6638 265.397 34.2027 264.607 34.7578 263.793C35.1677 263.201 35.5777 262.61 36 262C33.071 259.666 30.1143 257.95 26.75 256.312C25.858 255.876 24.9659 255.439 24.0469 254.988C23.3714 254.662 22.6959 254.336 22 254C24.3825 251.319 26.8546 249.886 30.0625 248.312C30.9404 247.876 31.8182 247.439 32.7227 246.988C35 246 35 246 37 246C36.3503 245.001 35.7006 244.002 35.0312 242.973C34.1874 241.669 33.3436 240.366 32.5 239.062C32.0707 238.403 31.6415 237.744 31.1992 237.064C28 232.113 28 232.113 28 231C33.7776 230.88 39.2796 231.168 45 232C44.7525 230.855 44.7525 230.855 44.5 229.688C43.8344 224.779 43.9208 219.946 44 215C49.2693 216.928 53.3876 219.833 58 223C60.64 218.38 63.28 213.76 66 209Z" fill="#F5F3F3"/>
<path d="M61 99C62.3756 100.29 63.7077 101.627 65 103C65 103.66 65 104.32 65 105C65.7837 104.34 66.5675 103.68 67.375 103C70 101 70 101 72 101C72 103.31 72 105.62 72 108C75.465 107.505 75.465 107.505 79 107C78.67 109.31 78.34 111.62 78 114C80.31 114.33 82.62 114.66 85 115C83.68 116.98 82.36 118.96 81 121C82.6749 122.736 82.6749 122.736 85 124C92.5973 121.631 99.0809 116.16 105 111C103.235 121.945 97.9092 131.231 89 138C76.2377 145.649 64.6016 147.599 49.9102 145.574C38.3451 142.519 29.4452 134.861 23 125C20.9739 121.111 19.1395 117.244 18 113C18.33 112.01 18.66 111.02 19 110C19.6922 110.762 19.6922 110.762 20.3984 111.539C25.1429 116.546 30.3676 121.685 37 124C39.7639 123.254 39.7639 123.254 42 122C42 118.483 41.1755 117.629 39 115C42.465 114.505 42.465 114.505 46 114C45.67 113.402 45.34 112.804 45 112.188C44 110 44 110 44 107C46.64 107.33 49.28 107.66 52 108C52 105.69 52 103.38 52 101C53.98 101.99 55.96 102.98 58 104C58.99 102.35 59.98 100.7 61 99Z" fill="#F5F2F2"/>
<path d="M11 24C11.66 24.33 12.32 24.66 13 25C12.67 124 12.34 223 12 325C75.36 324.67 138.72 324.34 204 324C204 324.66 204 325.32 204 326C179.279 326.13 154.558 326.261 129.837 326.391C118.359 326.452 106.881 326.512 95.4031 326.573C85.4016 326.626 75.4 326.678 65.3985 326.731C60.1005 326.759 54.8025 326.787 49.5044 326.815C44.5215 326.841 39.5385 326.867 34.5556 326.894C32.7234 326.903 30.8912 326.913 29.0589 326.923C26.5639 326.936 24.0689 326.949 21.5739 326.962C20.8434 326.966 20.1128 326.97 19.3601 326.974C16.5734 326.988 13.7868 327 11 327C10.01 325.515 10.01 325.515 9 324C9.66 324 10.32 324 11 324C11 225 11 126 11 24Z" fill="#B97192"/>
<path d="M12 10C12.33 10.99 12.66 11.98 13 13C10.69 14.98 8.38 16.96 6 19C7.74382 15.5124 9.52807 12.9663 12 10Z" fill="#7477B5"/>
</g>
<defs>
<clipPath id="clip0_411_2597">
<rect width="512" height="338" fill="white"/>
</clipPath>
</defs>
</svg>
