<svg width="36" height="27" viewBox="0 0 36 27" fill="none" xmlns="http://www.w3.org/2000/svg">
<path d="M4 0.5C2.93913 0.5 1.92172 0.921427 1.17157 1.67157C0.421427 2.42172 0 3.43913 0 4.5L0 22.5C0 23.5609 0.421427 24.5783 1.17157 25.3284C1.92172 26.0786 2.93913 26.5 4 26.5H12V0.5H4Z" fill="#009A49"/>
<path d="M12 0.5H24V26.5H12V0.5Z" fill="#EEEEEE"/>
<path d="M32 0.5H24V26.5H32C33.0609 26.5 34.0783 26.0786 34.8284 25.3284C35.5786 24.5783 36 23.5609 36 22.5V4.5C36 3.43913 35.5786 2.42172 34.8284 1.67157C34.0783 0.921427 33.0609 0.5 32 0.5Z" fill="#009A49"/>
</svg>
