<svg width="512" height="338" viewBox="0 0 512 338" fill="none" xmlns="http://www.w3.org/2000/svg">
<g clip-path="url(#clip0_411_2605)">
<path d="M49.446 0.492127C51.304 0.487513 53.162 0.481156 55.0199 0.473218C60.1005 0.456582 65.1807 0.464746 70.2612 0.477163C75.7501 0.486235 81.2389 0.472234 86.7277 0.461244C97.4704 0.443476 108.213 0.44729 118.956 0.458894C127.688 0.467935 136.421 0.46915 145.153 0.464799C146.397 0.464186 147.641 0.463573 148.922 0.462942C151.449 0.461663 153.976 0.460366 156.503 0.459051C179.512 0.447976 202.521 0.459453 225.53 0.480422C246.518 0.499403 267.505 0.497704 288.493 0.478578C312.094 0.457142 335.694 0.448749 359.294 0.461027C361.812 0.462301 364.329 0.463558 366.847 0.464799C368.705 0.465725 368.705 0.465725 370.6 0.466669C379.32 0.47012 388.04 0.4643 396.76 0.454881C407.389 0.443651 418.019 0.446721 428.649 0.468004C434.07 0.478501 439.491 0.482658 444.912 0.469407C449.879 0.457451 454.845 0.464099 459.812 0.485317C461.605 0.48977 463.397 0.487548 465.19 0.477814C478.61 0.410557 490.146 1.51354 500.738 10.6563C510.253 20.5158 512.302 30.0463 512.274 43.2353C512.279 44.4669 512.285 45.6985 512.29 46.9674C512.302 50.3739 512.306 53.7802 512.305 57.1867C512.307 60.8649 512.32 64.5432 512.332 68.2215C512.354 76.2562 512.362 84.291 512.367 92.3258C512.371 97.3426 512.377 102.359 512.384 107.376C512.404 121.268 512.42 135.16 512.423 149.053C512.423 149.941 512.424 150.829 512.424 151.744C512.424 153.545 512.425 155.345 512.425 157.146C512.425 158.04 512.425 158.934 512.426 159.855C512.426 161.197 512.426 161.197 512.426 162.566C512.43 177.083 512.457 191.6 512.494 206.117C512.532 221.023 512.551 235.929 512.552 250.835C512.552 259.204 512.561 267.573 512.59 275.941C512.614 283.063 512.622 290.185 512.607 297.306C512.599 300.94 512.6 304.574 512.623 308.208C512.647 312.145 512.633 316.082 512.615 320.019C512.628 321.171 512.641 322.322 512.655 323.509C512.644 324.563 512.632 325.617 512.621 326.704C512.622 327.612 512.622 328.521 512.623 329.457C511.691 333.259 510.128 334.689 507 337C503.995 337.491 501.559 337.674 498.559 337.629C497.281 337.64 497.281 337.64 495.977 337.651C493.109 337.67 490.243 337.652 487.375 337.635C485.303 337.641 483.232 337.649 481.16 337.659C475.458 337.68 469.755 337.669 464.052 337.654C457.906 337.642 451.761 337.66 445.615 337.674C434.267 337.695 422.92 337.693 411.572 337.679C401.09 337.666 390.607 337.663 380.125 337.669C379.083 337.67 379.083 337.67 378.019 337.67C375.199 337.672 372.378 337.673 369.557 337.675C343.089 337.69 316.621 337.677 290.152 337.65C266.628 337.626 243.104 337.628 219.58 337.652C193.161 337.679 166.741 337.689 140.322 337.674C137.506 337.672 134.691 337.671 131.875 337.669C130.835 337.669 130.835 337.669 129.774 337.668C119.298 337.662 108.821 337.669 98.3442 337.682C86.4336 337.696 74.5232 337.692 62.6127 337.665C56.5321 337.652 50.4518 337.647 44.3712 337.663C38.8098 337.678 33.2489 337.67 27.6876 337.643C25.6708 337.638 23.6541 337.641 21.6373 337.653C18.9046 337.668 16.1738 337.653 13.4412 337.629C12.6504 337.641 11.8596 337.653 11.0448 337.665C7.13561 337.598 5.1865 337.138 2.01157 334.791C-0.191776 331.734 -0.625315 330.425 -0.626419 326.715C-0.638841 325.663 -0.651264 324.611 -0.664062 323.528C-0.646309 321.804 -0.646309 321.804 -0.628197 320.046C-0.635291 318.82 -0.642387 317.594 -0.649696 316.332C-0.664259 312.932 -0.656377 309.533 -0.638973 306.134C-0.62561 302.466 -0.641032 298.799 -0.652794 295.131C-0.671186 287.946 -0.662647 280.761 -0.644707 273.575C-0.630682 267.732 -0.626788 261.89 -0.63015 256.047C-0.630627 255.216 -0.631104 254.384 -0.631596 253.527C-0.632622 251.838 -0.633678 250.149 -0.634762 248.46C-0.643333 233.515 -0.626643 218.571 -0.596931 203.626C-0.568124 189.136 -0.560995 174.646 -0.576424 160.156C-0.593205 144.374 -0.597197 128.593 -0.579712 112.811C-0.577868 111.126 -0.576036 109.441 -0.574211 107.756C-0.573299 106.927 -0.572385 106.098 -0.571445 105.244C-0.56585 99.4139 -0.569141 93.5841 -0.575756 87.7542C-0.583508 80.6407 -0.576669 73.5274 -0.551579 66.4139C-0.539122 62.7872 -0.53289 59.1608 -0.544121 55.534C-0.556089 51.5946 -0.536826 47.6557 -0.514671 43.7163C-0.522912 42.5806 -0.531152 41.4449 -0.539642 40.2748C-0.412207 27.9632 3.52492 18.8772 12 10.0001C22.1839 0.177311 36.2525 0.420485 49.446 0.492127Z" fill="#F4F4F4"/>
<path d="M49.446 0.492127C51.304 0.487513 53.162 0.481156 55.0199 0.473218C60.1005 0.456582 65.1807 0.464746 70.2612 0.477163C75.7501 0.486235 81.2389 0.472234 86.7277 0.461244C97.4704 0.443476 108.213 0.44729 118.956 0.458894C127.688 0.467935 136.421 0.46915 145.153 0.464799C146.397 0.464186 147.641 0.463573 148.922 0.462942C151.449 0.461663 153.976 0.460366 156.503 0.459051C179.512 0.447976 202.521 0.459453 225.53 0.480422C246.518 0.499403 267.505 0.497704 288.493 0.478578C312.094 0.457142 335.694 0.448749 359.294 0.461027C361.812 0.462301 364.329 0.463558 366.847 0.464799C368.705 0.465725 368.705 0.465725 370.6 0.466669C379.32 0.47012 388.04 0.4643 396.76 0.454881C407.389 0.443651 418.019 0.446721 428.649 0.468004C434.07 0.478501 439.491 0.482658 444.912 0.469407C449.879 0.457451 454.845 0.464099 459.812 0.485317C461.605 0.48977 463.397 0.487548 465.19 0.477814C478.61 0.410557 490.146 1.51354 500.738 10.6563C536.313 47.521 512 159.847 512 169C343.04 169 174.08 169 0 169C0 22.5693 0 22.5693 12 10.0001C22.1839 0.177311 36.2525 0.420485 49.446 0.492127Z" fill="#FE4B55"/>
<path d="M107.688 23.8125C108.72 23.8131 109.752 23.8138 110.815 23.8144C119.106 23.8629 119.106 23.8629 123.001 25C122.671 25.99 122.341 26.98 122.001 28C119.262 28.9219 119.262 28.9219 115.688 29.75C101.005 33.6893 89.3141 42.1851 81.5007 55.2617C76.2507 64.8456 73.6572 73.4705 73.7507 84.4375C73.743 85.3405 73.7352 86.2435 73.7273 87.1738C73.7716 102.462 79.7946 115.309 90.1804 126.309C99.3733 135.245 110.53 140.328 123.001 143C122.506 144.485 122.506 144.485 122.001 146C104.548 148.769 88.3862 147.273 73.5241 136.941C61.6352 127.795 54.0158 118.219 49.0007 104C48.6346 102.975 48.2685 101.95 47.8913 100.895C44.7992 87.3733 45.1573 71.2384 52.0007 59C52.6697 57.6929 52.6697 57.6929 53.3523 56.3594C61.9356 40.7271 75.5918 30.8529 92.0984 24.8789C97.2022 23.4722 102.437 23.7494 107.688 23.8125Z" fill="#F5F2F2"/>
<path d="M122 100C122.99 100.33 123.98 100.66 125 101C126.031 103.609 126.431 106.24 127 109C129.97 109 132.94 109 136 109C134.863 112.412 133.957 113.119 131 115C130.34 115 129.68 115 129 115C129.495 116.093 129.99 117.186 130.5 118.312C132 122 132 122 132 125C128.644 124.401 126.622 123.154 124 121C123.443 121.289 122.886 121.577 122.312 121.875C119.915 123.041 117.484 124.034 115 125C115.33 121.7 115.66 118.4 116 115C115.01 114.381 114.02 113.762 113 113.125C112.01 112.424 111.02 111.723 110 111C110 110.34 110 109.68 110 109C113.3 109 116.6 109 120 109C120.144 107.886 120.289 106.773 120.438 105.625C121 102 121 102 122 100Z" fill="#F5ECED"/>
<path d="M110 61C110.99 61.33 111.98 61.66 113 62C114.031 64.6086 114.431 67.2405 115 70C117.97 70 120.94 70 124 70C122 74 122 74 119.375 75.25C118.591 75.4975 117.808 75.745 117 76C117.33 76.5362 117.66 77.0725 118 77.625C119.227 80.5391 119.142 82.8687 119 86C118.443 85.7113 117.886 85.4225 117.312 85.125C114.915 83.9587 112.484 82.966 110 82C109.216 82.66 108.433 83.32 107.625 84C105 86 105 86 103 86C103.33 82.7 103.66 79.4 104 76C103.01 75.3813 102.02 74.7625 101 74.125C100.01 73.4237 99.02 72.7225 98 72C98 71.34 98 70.68 98 70C101.3 70 104.6 70 108 70C108.144 68.8863 108.289 67.7725 108.438 66.625C109 63 109 63 110 61Z" fill="#F5EDEE"/>
<path d="M143 37C143.66 37 144.32 37 145 37C146.498 40.371 147 42.2044 147 46C150.3 46 153.6 46 157 46C157 46.66 157 47.32 157 48C155.039 49.3894 153.038 50.726 151 52C151.33 55.3 151.66 58.6 152 62C147.161 60.1183 147.161 60.1183 145.125 58.625C143.026 57.7636 143.026 57.7636 141.195 58.7656C139.423 59.7762 137.707 60.8836 136 62C135.821 58.0527 135.906 55.4019 138 52C137.103 51.5669 137.103 51.5669 136.188 51.125C134 50 134 50 131 48C131 47.34 131 46.68 131 46C133.97 46 136.94 46 140 46C140.99 43.03 141.98 40.06 143 37Z" fill="#F5EDEE"/>
<path d="M175 61C175.66 61 176.32 61 177 61C177.99 63.64 178.98 66.28 180 69C182.97 69.33 185.94 69.66 189 70C187.863 73.4116 186.957 74.1185 184 76C183.34 76 182.68 76 182 76C182.33 76.7219 182.66 77.4438 183 78.1875C184.006 81.017 184.17 83.029 184 86C183.443 85.7113 182.886 85.4225 182.312 85.125C179.915 83.9587 177.484 82.966 175 82C174.216 82.66 173.433 83.32 172.625 84C170 86 170 86 168 86C168.458 82.5306 168.891 79.326 170 76C169.103 75.5669 169.103 75.5669 168.188 75.125C166 74 166 74 163 72C163 71.34 163 70.68 163 70C166.3 70 169.6 70 173 70C173.144 68.8863 173.289 67.7725 173.438 66.625C174 63 174 63 175 61Z" fill="#F5EFEF"/>
<path d="M163 100C163.66 100 164.32 100 165 100C165.99 102.64 166.98 105.28 168 108C170.97 108.33 173.94 108.66 177 109C175.863 112.412 174.957 113.119 172 115C171.34 115 170.68 115 170 115C170.33 115.722 170.66 116.444 171 117.188C172.006 120.017 172.17 122.029 172 125C171.443 124.711 170.886 124.423 170.312 124.125C167.915 122.959 165.484 121.966 163 121C162.216 121.66 161.433 122.32 160.625 123C158 125 158 125 156 125C156.33 121.7 156.66 118.4 157 115C156.01 114.381 155.02 113.762 154 113.125C153.01 112.424 152.02 111.723 151 111C151 110.34 151 109.68 151 109C155.455 108.505 155.455 108.505 160 108C160.99 105.36 161.98 102.72 163 100Z" fill="#F5EFEF"/>
<path d="M16 7C16.66 7.33 17.32 7.66 18 8C14.37 11.63 10.74 15.26 7 19C7 14.8408 9.24684 12.8546 12 10C14.3125 8.125 14.3125 8.125 16 7Z" fill="#FD767D"/>
</g>
<defs>
<clipPath id="clip0_411_2605">
<rect width="512" height="338" fill="white"/>
</clipPath>
</defs>
</svg>
