<svg width="512" height="338" viewBox="0 0 512 338" fill="none" xmlns="http://www.w3.org/2000/svg">
<g clip-path="url(#clip0_411_2579)">
<path d="M49.2038 0.612328C51.0601 0.608152 52.9163 0.602673 54.7726 0.596008C59.8576 0.581574 64.9424 0.585792 70.0274 0.593175C75.5176 0.597909 81.0078 0.585395 86.4981 0.575158C97.2477 0.557969 107.997 0.55713 118.747 0.562371C127.485 0.566414 136.224 0.564968 144.962 0.559623C146.206 0.558874 147.45 0.558126 148.732 0.557355C151.259 0.555823 153.787 0.554285 156.314 0.55274C173.281 0.542912 190.249 0.538746 207.216 0.546365C208.211 0.546811 208.211 0.546811 209.225 0.547266C214.61 0.549715 219.995 0.552326 225.379 0.55495C246.38 0.565051 267.381 0.556698 288.382 0.533456C311.991 0.507368 335.601 0.494589 359.211 0.501643C371.706 0.505136 384.202 0.502901 396.697 0.485392C407.334 0.470672 417.971 0.470033 428.608 0.487463C434.033 0.495977 439.458 0.498113 444.883 0.482812C449.854 0.468966 454.824 0.473726 459.795 0.493051C461.589 0.496812 463.383 0.493887 465.177 0.483439C478.602 0.410837 490.139 1.5092 500.737 10.6563C509.905 20.1577 512.304 29.4944 512.266 42.2458C512.27 43.3711 512.275 44.4964 512.279 45.6557C512.292 49.4226 512.29 53.1892 512.289 56.9561C512.294 59.6584 512.302 62.3608 512.309 65.0631C512.326 71.6399 512.331 78.2166 512.332 84.7934C512.333 90.1416 512.337 95.4898 512.344 100.838C512.361 116.014 512.371 131.19 512.369 146.366C512.369 147.593 512.369 147.593 512.369 148.844C512.369 149.662 512.369 150.481 512.369 151.324C512.368 164.586 512.387 177.847 512.415 191.109C512.444 204.738 512.458 218.367 512.456 231.997C512.455 239.643 512.461 247.29 512.482 254.937C512.501 261.448 512.505 267.96 512.491 274.471C512.485 277.79 512.487 281.108 512.502 284.427C512.517 288.034 512.508 291.64 512.493 295.246C512.503 296.283 512.513 297.32 512.524 298.389C512.412 310.252 508.317 319.578 499.998 328C488.972 337.417 476.602 337.438 462.793 337.388C460.937 337.392 459.08 337.397 457.224 337.404C452.139 337.418 447.054 337.414 441.969 337.407C436.479 337.402 430.989 337.415 425.499 337.425C414.749 337.442 403.999 337.443 393.25 337.438C384.511 337.434 375.773 337.435 367.035 337.44C365.791 337.441 364.547 337.442 363.265 337.443C360.737 337.444 358.21 337.446 355.683 337.447C338.715 337.457 321.748 337.461 304.781 337.454C303.786 337.453 303.786 337.453 302.771 337.453C297.386 337.45 292.002 337.448 286.617 337.445C265.616 337.435 244.616 337.443 223.615 337.467C200.005 337.493 176.395 337.505 152.785 337.498C140.29 337.495 127.795 337.497 115.3 337.515C104.663 337.529 94.0258 337.53 83.3888 337.513C77.9635 337.504 72.5384 337.502 67.1131 337.517C62.1425 337.531 57.1723 337.526 52.2017 337.507C50.4077 337.503 48.6137 337.506 46.8198 337.517C33.3943 337.589 21.8576 336.491 11.26 327.344C2.09114 317.842 -0.306876 308.506 -0.269119 295.754C-0.27365 294.629 -0.27818 293.504 -0.282848 292.344C-0.295498 288.577 -0.293873 284.811 -0.292221 281.044C-0.29712 278.342 -0.304955 275.639 -0.312576 272.937C-0.329165 266.36 -0.334684 259.783 -0.3358 253.207C-0.336752 247.858 -0.340868 242.51 -0.347202 237.162C-0.364809 221.986 -0.37404 206.81 -0.37254 191.634C-0.37246 190.816 -0.372382 189.999 -0.372299 189.156C-0.372217 188.338 -0.372135 187.519 -0.372051 186.676C-0.371239 173.414 -0.390372 160.153 -0.418575 146.891C-0.447332 133.262 -0.461115 119.633 -0.459389 106.003C-0.458726 98.3566 -0.464177 90.7099 -0.485744 83.0632C-0.503993 76.5517 -0.508273 70.0405 -0.494724 63.5291C-0.488213 60.2101 -0.490204 56.8917 -0.505432 53.5727C-0.520905 49.9661 -0.511561 46.3603 -0.49617 42.7537C-0.506457 41.7166 -0.516745 40.6796 -0.527344 39.611C-0.415889 27.7477 3.67991 18.4218 11.9983 10C23.0249 0.582716 35.395 0.561771 49.2038 0.612328Z" fill="#FE4B55"/>
<path d="M-0.000946045 195C75.8991 195 151.799 195 229.999 195C229.999 241.86 229.999 288.72 229.999 337C180.579 337.161 180.579 337.161 159.847 337.195C145.54 337.219 131.233 337.247 116.926 337.302C106.506 337.342 96.086 337.367 85.6657 337.376C80.151 337.382 74.6365 337.394 69.1218 337.423C63.9245 337.45 58.7276 337.458 53.5302 337.452C51.6292 337.454 49.7282 337.461 47.8272 337.477C34.0276 337.583 22.1784 336.767 11.2608 327.344C-19.4404 295.529 -0.000946045 216.652 -0.000946045 195Z" fill="#F4F1F1"/>
<path d="M282 1.00005C331.42 0.838836 331.42 0.838836 352.152 0.804736C366.459 0.781014 380.766 0.753148 395.073 0.69829C405.493 0.658354 415.913 0.632599 426.333 0.623694C431.848 0.618491 437.363 0.606308 442.877 0.577128C448.075 0.549852 453.271 0.541628 458.469 0.547617C460.37 0.546523 462.271 0.538642 464.172 0.523226C477.971 0.416867 489.821 1.23302 500.738 10.6563C531.439 42.471 512 121.348 512 143C436.1 143 360.2 143 282 143C282 96.14 282 49.28 282 1.00005Z" fill="#F4F1F1"/>
<path d="M50.4028 0.659538C52.3649 0.660385 54.3269 0.659907 56.289 0.65821C61.592 0.657353 66.8948 0.674943 72.1978 0.695932C77.7485 0.714736 83.2991 0.716452 88.8498 0.720008C99.3504 0.729318 109.851 0.753917 120.351 0.784057C134.548 0.823918 148.745 0.840065 162.942 0.857564C185.294 0.885739 207.647 0.945516 230 1.00011C230 47.8601 230 94.7201 230 143C154.1 143 78.2 143 0 143C0 22.1493 0 22.1493 12 10.0001C23.4331 0.235592 36.1562 0.573238 50.4028 0.659538Z" fill="#F4F1F1"/>
<path d="M282 195C357.9 195 433.8 195 512 195C512 315.851 512 315.851 500 328C488.567 337.765 475.844 337.427 461.597 337.341C459.635 337.34 457.673 337.34 455.711 337.342C450.408 337.343 445.105 337.325 439.802 337.304C434.252 337.285 428.701 337.284 423.15 337.28C412.65 337.271 402.149 337.246 391.649 337.216C377.452 337.176 363.255 337.16 349.058 337.143C326.706 337.114 304.353 337.055 282 337C282 290.14 282 243.28 282 195Z" fill="#F4F1F1"/>
<path d="M300 230C303.589 231.436 305.993 232.502 309.062 234.59C309.844 235.117 310.625 235.643 311.43 236.186C312.278 236.764 313.126 237.342 314 237.938C315.895 239.215 317.791 240.491 319.688 241.766C321.215 242.793 321.215 242.793 322.773 243.842C328.489 247.665 334.245 251.425 340 255.188C341.24 255.999 342.48 256.81 343.719 257.621C346.233 259.266 348.746 260.91 351.259 262.553C356.683 266.1 362.104 269.652 367.525 273.204C369.318 274.379 371.112 275.554 372.906 276.729C379.28 280.905 385.653 285.084 392.023 289.266C392.696 289.707 393.369 290.149 394.061 290.603C396.781 292.389 399.501 294.174 402.221 295.96C410.283 301.253 418.349 306.537 426.426 311.808C435.676 317.846 444.916 323.899 454.125 330C455.478 330.891 455.478 330.891 456.858 331.801C457.671 332.341 458.483 332.881 459.32 333.438C460.035 333.911 460.749 334.384 461.485 334.871C461.985 335.244 462.485 335.616 463 336C463 336.33 463 336.66 463 337C409.21 337 355.42 337 300 337C300 301.69 300 266.38 300 230Z" fill="#41479B"/>
<path d="M300 1C353.79 1 407.58 1 463 1C459.465 4.53478 456.05 7.06284 451.875 9.6875C450.332 10.6724 448.789 11.6581 447.246 12.6445C445.983 13.4501 445.983 13.4501 444.695 14.272C439.754 17.4401 434.848 20.6599 429.938 23.875C428.845 24.5895 427.753 25.3041 426.628 26.0403C416.446 32.7018 406.275 39.3786 396.104 46.0557C387.774 51.5242 379.441 56.9896 371.106 62.4501C369.315 63.6231 367.525 64.7963 365.734 65.9695C360.307 69.5253 354.879 73.0798 349.448 76.6301C346.973 78.2486 344.497 79.8678 342.022 81.4871C340.807 82.282 339.592 83.0766 338.377 83.8711C331.865 88.1287 325.37 92.4088 318.914 96.75C318.351 97.128 317.788 97.506 317.208 97.8955C314.546 99.6836 311.887 101.477 309.233 103.278C308.307 103.902 307.38 104.525 306.426 105.168C305.615 105.717 304.805 106.267 303.97 106.833C302 108 302 108 300 108C300 72.69 300 37.38 300 1Z" fill="#41479B"/>
<path d="M212 230C212 265.31 212 300.62 212 337C158.21 337 104.42 337 49 337C52.1762 333.824 54.6195 331.797 58.332 329.461C59.8881 328.475 59.8881 328.475 61.4756 327.469C62.5768 326.778 63.6779 326.087 64.8125 325.375C67.107 323.923 69.3992 322.467 71.6914 321.012C72.7924 320.314 73.8934 319.615 75.0278 318.896C79.0338 316.341 82.9838 313.712 86.9265 311.06C93.4585 306.675 100.043 302.371 106.625 298.062C107.248 297.655 107.87 297.247 108.512 296.827C111.724 294.725 114.937 292.622 118.149 290.52C121.869 288.086 125.587 285.651 129.305 283.215C130.197 282.63 130.197 282.63 131.107 282.034C134.112 280.065 137.118 278.095 140.124 276.125C145.551 272.568 150.979 269.013 156.411 265.463C158.821 263.889 161.229 262.315 163.638 260.739C164.831 259.959 166.024 259.179 167.218 258.399C174.314 253.76 181.383 249.085 188.422 244.359C189.116 243.894 189.811 243.428 190.526 242.948C193.899 240.686 197.269 238.42 200.633 236.145C201.842 235.332 203.052 234.519 204.262 233.707C205.324 232.99 206.385 232.273 207.479 231.534C210 230 210 230 212 230Z" fill="#41479B"/>
<path d="M49 1C102.79 1 156.58 1 212 1C212 36.31 212 71.62 212 108C207.97 106.388 205.151 104.921 201.625 102.535C200.573 101.828 199.52 101.12 198.436 100.391C197.878 100.013 197.32 99.6342 196.744 99.2444C193.719 97.1947 190.683 95.1611 187.648 93.125C187.018 92.7011 186.387 92.2772 185.737 91.8405C179.066 87.3629 172.35 82.9578 165.625 78.5625C164.411 77.7683 163.197 76.9741 161.982 76.1799C159.541 74.5832 157.099 72.987 154.657 71.3911C149.205 67.8273 143.758 64.2564 138.31 60.6859C135.294 58.7096 132.278 56.7337 129.262 54.7578C125.003 51.9676 120.744 49.1771 116.486 46.3863C114.037 44.7812 111.587 43.1763 109.138 41.5713C107.924 40.7758 106.71 39.9803 105.496 39.1848C99.0113 34.9346 92.5242 30.6874 86.0312 26.4492C76.1319 19.9875 66.2333 13.5242 56.375 7C55.6161 6.50121 54.8573 6.00243 54.0754 5.48853C52.3656 4.35236 50.6796 3.18047 49 2C49 1.67 49 1.34 49 1Z" fill="#41479B"/>
<path d="M0 31C1.65 32.65 3.3 34.3 5 36C6.73893 37.3271 6.73893 37.3271 8.46094 38.3242C9.40199 38.8984 9.40199 38.8984 10.3621 39.4841C11.0263 39.8812 11.6906 40.2784 12.375 40.6875C13.8279 41.5763 15.2797 42.467 16.7305 43.3594C17.4554 43.8047 18.1803 44.2501 18.9272 44.709C21.891 46.555 24.7926 48.4858 27.6875 50.4375C34.9623 55.3286 42.2902 60.1372 49.625 64.9375C50.2468 65.3445 50.8685 65.7515 51.5091 66.1709C54.7223 68.2742 57.9358 70.3772 61.1494 72.48C66.6695 76.0922 72.1871 79.708 77.7049 83.3238C79.5016 84.501 81.2984 85.6782 83.0952 86.8552C88.646 90.4915 94.1963 94.1283 99.745 97.7675C102.29 99.4368 104.836 101.106 107.381 102.774C108.618 103.586 109.855 104.397 111.092 105.208C116.913 109.028 122.738 112.841 128.598 116.602C129.409 117.122 130.22 117.643 131.056 118.18C132.513 119.113 133.971 120.043 135.433 120.969C136.972 121.954 138.489 122.972 140 124C140 124.33 140 124.66 140 125C93.8 125 47.6 125 0 125C0 93.98 0 62.96 0 31Z" fill="#42489B"/>
<path d="M0 213C46.2 213 92.4 213 140 213C136.309 215.953 132.735 218.589 128.812 221.188C128.177 221.609 127.541 222.031 126.885 222.465C117.724 228.525 108.519 234.518 99.3222 240.523C92.7728 244.8 86.23 249.087 79.6875 253.375C78.4686 254.174 77.2497 254.972 76.0308 255.771C73.5783 257.378 71.1258 258.986 68.6733 260.593C65.0285 262.981 61.3834 265.37 57.7383 267.758C57.1398 268.15 56.5413 268.542 55.9247 268.946C52.9261 270.911 49.9274 272.875 46.9285 274.839C41.2665 278.548 35.6054 282.258 29.9471 285.973C27.2752 287.727 24.6028 289.48 21.9304 291.233C20.6569 292.069 19.3836 292.905 18.1106 293.741C16.3451 294.901 14.5789 296.06 12.8125 297.219C11.8083 297.878 10.8041 298.537 9.76953 299.217C2.34064 304 2.34064 304 0 304C0 273.97 0 243.94 0 213Z" fill="#42489B"/>
<path d="M372 213C418.2 213 464.4 213 512 213C512 244.02 512 275.04 512 307C509.525 304.525 509.525 304.525 507 302C505.017 300.511 505.017 300.511 502.988 299.309C502.241 298.846 501.493 298.383 500.723 297.906C499.928 297.421 499.132 296.937 498.312 296.438C496.586 295.366 494.861 294.293 493.137 293.219C492.27 292.679 491.403 292.139 490.509 291.582C486.836 289.266 483.227 286.861 479.625 284.438C471.848 279.217 464.025 274.067 456.188 268.938C455.571 268.534 454.954 268.13 454.319 267.714C451.147 265.638 447.975 263.563 444.802 261.488C439.298 257.887 433.798 254.282 428.296 250.677C426.504 249.502 424.71 248.328 422.917 247.153C417.311 243.481 411.705 239.807 406.102 236.13C403.488 234.415 400.874 232.701 398.26 230.987C397.028 230.178 395.795 229.369 394.563 228.56C387.732 224.075 380.879 219.633 373.936 215.321C373.297 214.885 372.658 214.449 372 214C372 213.67 372 213.34 372 213Z" fill="#42489B"/>
<path d="M511 31C511.33 31 511.66 31 512 31C512 62.02 512 93.04 512 125C465.8 125 419.6 125 372 125C377.626 120.499 377.626 120.499 380.343 118.685C380.952 118.277 381.56 117.869 382.187 117.449C382.833 117.02 383.479 116.591 384.145 116.148C384.832 115.69 385.519 115.231 386.228 114.758C387.684 113.787 389.14 112.817 390.597 111.848C392.77 110.403 394.939 108.954 397.107 107.504C404.861 102.332 412.668 97.2663 420.597 92.3669C425.954 89.0557 431.186 85.5775 436.41 82.0625C442.452 78.0172 448.541 74.044 454.625 70.0625C455.549 69.458 455.549 69.458 456.491 68.8412C459.035 67.1766 461.578 65.512 464.122 63.8477C468.729 60.8329 473.334 57.8138 477.938 54.793C479.876 53.5211 481.815 52.2493 483.754 50.9775C484.981 50.1728 486.207 49.3679 487.433 48.5628C488.594 47.8001 489.756 47.0378 490.918 46.2759C492.561 45.1985 494.203 44.1198 495.845 43.041C499.839 40.4572 503.893 37.9734 507.966 35.5166C510.289 34.086 510.289 34.086 511 31Z" fill="#42489B"/>
<path d="M490.848 4.21882C495.545 5.92381 499.474 9.53095 503 13.0001C503 13.6601 503 14.3201 503 15.0001C500.905 16.4464 498.81 17.7619 496.625 19.0626C489.071 23.6696 481.647 28.4566 474.25 33.3126C473.119 34.0546 471.987 34.7965 470.855 35.5384C468.621 37.0033 466.387 38.4686 464.153 39.9342C459.651 42.8838 455.139 45.8188 450.625 48.7501C449.824 49.2706 449.022 49.7911 448.196 50.3275C446.599 51.3649 445.001 52.4023 443.403 53.4395C439.268 56.1248 435.134 58.8126 431 61.5001C429.337 62.5808 427.674 63.6615 426.012 64.7423C422.639 66.9345 419.267 69.1272 415.895 71.3204C407.411 76.837 398.924 82.3466 390.426 87.8409C385.009 91.3449 379.597 94.8582 374.188 98.3751C373.357 98.9147 372.527 99.4543 371.672 100.01C367.338 102.829 363.004 105.648 358.672 108.469C357.795 109.039 356.918 109.61 356.015 110.198C354.363 111.273 352.712 112.348 351.061 113.423C349.513 114.431 347.957 115.428 346.395 116.415C343.944 117.991 343.944 117.991 341.552 119.923C333.407 125.98 325.988 125.839 316.312 125.438C314.821 125.402 313.329 125.37 311.838 125.342C308.224 125.266 304.612 125.145 301 125C304.235 121.654 307.586 119.253 311.562 116.875C319.347 112.121 326.928 107.082 334.5 102C342.288 96.7784 350.09 91.6054 358.075 86.6888C366.87 81.2592 375.481 75.5396 384.128 69.8785C388.538 66.994 392.956 64.1212 397.375 61.2501C398.196 60.7166 399.017 60.1832 399.862 59.6336C405.759 55.8027 411.662 51.9811 417.568 48.1632C423.907 44.0634 430.236 39.9479 436.565 35.8316C442.478 31.9868 448.398 28.1535 454.323 24.3267C458.59 21.5677 462.848 18.7954 467.102 16.0157C468.675 14.9877 468.675 14.9877 470.28 13.939C472.358 12.5809 474.435 11.2219 476.511 9.86189C477.455 9.24491 478.399 8.62793 479.371 7.99226C480.216 7.43909 481.061 6.88592 481.931 6.31599C485.115 4.2907 487.023 3.63656 490.848 4.21882Z" fill="#FE4D57"/>
<path d="M211 213C207.507 215.865 203.925 218.469 200.168 220.977C199.619 221.343 199.071 221.71 198.505 222.088C196.735 223.269 194.961 224.447 193.188 225.625C192.579 226.03 191.97 226.435 191.343 226.852C183.937 231.78 176.502 236.645 168.927 241.31C160.127 246.742 151.511 252.466 142.859 258.13C138.516 260.971 134.165 263.798 129.812 266.625C128.177 267.687 126.542 268.75 124.906 269.812C123.698 270.597 123.698 270.597 122.465 271.398C119.945 273.036 117.425 274.674 114.906 276.312C106.419 281.832 97.9278 287.344 89.4263 292.841C80.6072 298.545 71.8044 304.274 63 310C61.2943 311.109 59.5886 312.219 57.8828 313.328C57.043 313.875 56.2032 314.421 55.3379 314.984C53.6664 316.07 51.9932 317.154 50.3184 318.234C46.2425 320.868 42.2016 323.536 38.2109 326.297C37.4481 326.816 36.6852 327.334 35.8992 327.869C34.4691 328.843 33.0491 329.832 31.6418 330.838C28.2515 333.125 26.5523 333.995 22.3594 334.035C18.6833 332.902 16.4953 331.531 13.5625 329.062C12.6975 328.352 11.8326 327.642 10.9414 326.91C10.3007 326.28 9.66008 325.649 9 325C9 324.34 9 323.68 9 323C10.5186 321.786 10.5186 321.786 12.6719 320.418C13.4713 319.905 14.2708 319.392 15.0945 318.863C15.9708 318.31 16.8471 317.757 17.75 317.187C19.5952 316.007 21.4402 314.826 23.2852 313.644C24.7105 312.737 24.7105 312.737 26.1646 311.811C30.5237 309.027 34.8547 306.2 39.1875 303.375C45.9743 298.961 52.7685 294.559 59.5671 290.164C65.0503 286.617 70.526 283.06 76 279.5C82.1618 275.492 88.3273 271.491 94.5 267.5C104.011 261.35 113.506 255.175 123 249C126.396 246.791 129.792 244.583 133.188 242.375C134.434 241.564 134.434 241.564 135.706 240.737C139.601 238.205 143.498 235.677 147.402 233.16C148.103 232.707 148.803 232.254 149.525 231.787C150.925 230.887 152.331 229.998 153.743 229.117C157.367 226.835 160.679 224.477 163.898 221.648C177.996 209.864 193.597 211.792 211 213Z" fill="#FE4D57"/>
<path d="M315 213C334.676 211.451 348.807 211.07 364.68 224.157C368.637 227.301 372.92 229.927 377.188 232.625C378.856 233.706 380.522 234.789 382.188 235.875C389.452 240.594 396.726 245.297 404 250C417.201 258.534 430.384 267.096 443.562 275.666C452.202 281.286 460.844 286.903 469.5 292.5C475.837 296.598 482.171 300.702 488.5 304.813C489.313 305.34 490.126 305.867 490.963 306.41C496.335 309.901 501.677 313.435 507 317C504.788 322.988 501.348 327.435 496 331C491.786 328.951 487.894 326.503 483.938 324C483.121 323.485 482.305 322.969 481.464 322.438C473.403 317.315 465.472 312.003 457.539 306.686C450.402 301.905 443.239 297.192 435.924 292.688C427.125 287.256 418.51 281.534 409.859 275.87C405.516 273.029 401.165 270.202 396.812 267.375C395.177 266.313 393.542 265.25 391.906 264.188C391.101 263.664 390.295 263.141 389.465 262.602C386.945 260.964 384.425 259.326 381.906 257.688C374.109 252.617 366.31 247.55 358.5 242.5C332.391 225.612 332.391 225.612 321.25 218.25C320.612 217.832 319.974 217.413 319.316 216.982C317.859 216.015 316.426 215.012 315 214C315 213.67 315 213.34 315 213Z" fill="#FE4D57"/>
<path d="M18 9.99996C20.5508 11.5328 23.0254 13.1025 25.5 14.75C27.0312 15.7552 28.5625 16.7604 30.0938 17.7656C31.2964 18.5593 31.2964 18.5593 32.5234 19.3691C36.6694 22.0993 40.836 24.7975 45 27.5C46.698 28.604 48.3959 29.7082 50.0938 30.8125C54.5585 33.7145 59.0281 36.6089 63.5 39.5C70.5271 44.043 77.5439 48.6018 84.5586 53.164C89.8679 56.6163 95.1817 60.0616 100.5 63.5C110.866 70.2026 121.213 76.9354 131.562 83.666C140.884 89.7287 150.208 95.7871 159.547 101.823C163.443 104.342 167.335 106.867 171.223 109.398C172.111 109.977 172.999 110.555 173.914 111.15C175.627 112.266 177.339 113.381 179.051 114.498C183.522 117.409 188.015 120.265 192.582 123.024C193.05 123.346 193.518 123.668 194 124C194 124.33 194 124.66 194 125C169.787 127.659 155.759 124.359 136.775 109.174C133.257 106.418 129.589 104.086 125.75 101.812C116.323 96.034 107.109 89.9254 97.8589 83.8696C93.5158 81.0293 89.1645 78.2016 84.8125 75.375C83.5929 74.5826 83.5929 74.5826 82.3486 73.7741C80.7163 72.7136 79.084 71.6531 77.4517 70.5927C73.3006 67.8959 69.1504 65.1979 65 62.5C64.1769 61.965 63.3539 61.43 62.5059 60.8789C58.3017 58.1463 54.0979 55.4134 49.8945 52.6796C34.6215 42.7473 19.3322 32.8408 4 23C4.60943 19.3517 6.1545 17.184 8.4375 14.3125C9.05496 13.5248 9.67242 12.7372 10.3086 11.9257C12.9861 8.8772 14.275 8.76817 18 9.99996Z" fill="#FE4D57"/>
</g>
<defs>
<clipPath id="clip0_411_2579">
<rect width="512" height="338" fill="white"/>
</clipPath>
</defs>
</svg>
