<svg width="51" height="51" viewBox="0 0 51 51" fill="none" xmlns="http://www.w3.org/2000/svg">
<path d="M42.9739 24.375V15.5C42.9739 7.10418 41.0155 5 33.1405 5H17.3905C9.51553 5 7.55719 7.10418 7.55719 15.5V38.9583C7.55719 44.5 10.5989 45.8125 14.2864 41.8542L14.3072 41.8333C16.0155 40.0208 18.6197 40.1666 20.0988 42.1458L22.203 44.9583" stroke="white" stroke-width="1.46009" stroke-linecap="round" stroke-linejoin="round"/>
<path d="M38.1811 45.4156C41.8625 45.4156 44.8468 42.4313 44.8468 38.7498C44.8468 35.0684 41.8625 32.084 38.1811 32.084C34.4996 32.084 31.5152 35.0684 31.5152 38.7498C31.5152 42.4313 34.4996 45.4156 38.1811 45.4156Z" stroke="white" stroke-width="1.46009" stroke-linecap="round" stroke-linejoin="round"/>
<path d="M46.0968 46.6654L44.0154 44.584" stroke="white" stroke-width="1.46009" stroke-linecap="round" stroke-linejoin="round"/>
<path d="M16.9321 15.418H33.5988" stroke="white" stroke-width="1.46009" stroke-linecap="round" stroke-linejoin="round"/>
<path d="M19.0157 23.75H31.5141" stroke="white" stroke-width="1.46009" stroke-linecap="round" stroke-linejoin="round"/>
</svg>
