<svg width="51" height="50" viewBox="0 0 51 50" fill="none" xmlns="http://www.w3.org/2000/svg">
<path d="M21.2849 23.2285H15.7641C14.4516 23.2285 13.3892 24.2909 13.3892 25.6034V36.2701H21.2849V23.2285V23.2285Z" stroke="white" stroke-width="1.4599" stroke-miterlimit="10" stroke-linecap="round" stroke-linejoin="round"/>
<path d="M26.8083 13.75H23.6416C22.3291 13.75 21.2666 14.8125 21.2666 16.125V36.2501H29.1625V16.125C29.1625 14.8125 28.1208 13.75 26.8083 13.75Z" stroke="white" stroke-width="1.4599" stroke-miterlimit="10" stroke-linecap="round" stroke-linejoin="round"/>
<path d="M34.6976 26.7715H29.1768V36.2508H37.0726V29.1465C37.0518 27.834 35.9892 26.7715 34.6976 26.7715Z" stroke="white" stroke-width="1.4599" stroke-miterlimit="10" stroke-linecap="round" stroke-linejoin="round"/>
<path d="M18.9722 45.8327H31.4722C41.8889 45.8327 46.0556 41.666 46.0556 31.2493V18.7493C46.0556 8.33268 41.8889 4.16602 31.4722 4.16602H18.9722C8.55558 4.16602 4.38892 8.33268 4.38892 18.7493V31.2493C4.38892 41.666 8.55558 45.8327 18.9722 45.8327Z" stroke="white" stroke-width="1.4599" stroke-linecap="round" stroke-linejoin="round"/>
</svg>
