<svg width="51" height="50" viewBox="0 0 51 50" fill="none" xmlns="http://www.w3.org/2000/svg">
<path d="M20.8149 41.6673H30.8149C39.1482 41.6673 42.4815 38.334 42.4815 30.0007V20.0007C42.4815 11.6673 39.1482 8.33398 30.8149 8.33398H20.8149C12.4815 8.33398 9.14819 11.6673 9.14819 20.0007V30.0007C9.14819 38.334 12.4815 41.6673 20.8149 41.6673Z" stroke="white" stroke-width="1.4599" stroke-linecap="round" stroke-linejoin="round"/>
<path d="M22.6899 35.4173H28.9399C34.1482 35.4173 36.2315 33.334 36.2315 28.1256V21.8756C36.2315 16.6673 34.1482 14.584 28.9399 14.584H22.6899C17.4815 14.584 15.3982 16.6673 15.3982 21.8756V28.1256C15.3982 33.334 17.4815 35.4173 22.6899 35.4173Z" stroke="white" stroke-width="1.4599" stroke-linecap="round" stroke-linejoin="round"/>
<path d="M17.5024 8.33268V4.16602" stroke="white" stroke-width="1.4599" stroke-linecap="round" stroke-linejoin="round"/>
<path d="M25.8149 8.33268V4.16602" stroke="white" stroke-width="1.4599" stroke-linecap="round" stroke-linejoin="round"/>
<path d="M34.1484 8.33268V4.16602" stroke="white" stroke-width="1.4599" stroke-linecap="round" stroke-linejoin="round"/>
<path d="M42.4814 16.668H46.6481" stroke="white" stroke-width="1.4599" stroke-linecap="round" stroke-linejoin="round"/>
<path d="M42.4814 25H46.6481" stroke="white" stroke-width="1.4599" stroke-linecap="round" stroke-linejoin="round"/>
<path d="M42.4814 33.332H46.6481" stroke="white" stroke-width="1.4599" stroke-linecap="round" stroke-linejoin="round"/>
<path d="M34.1484 41.666V45.8327" stroke="white" stroke-width="1.4599" stroke-linecap="round" stroke-linejoin="round"/>
<path d="M25.8357 41.666V45.8327" stroke="white" stroke-width="1.4599" stroke-linecap="round" stroke-linejoin="round"/>
<path d="M17.5024 41.666V45.8327" stroke="white" stroke-width="1.4599" stroke-linecap="round" stroke-linejoin="round"/>
<path d="M4.98145 16.668H9.14811" stroke="white" stroke-width="1.4599" stroke-linecap="round" stroke-linejoin="round"/>
<path d="M4.98145 25H9.14811" stroke="white" stroke-width="1.4599" stroke-linecap="round" stroke-linejoin="round"/>
<path d="M4.98145 33.332H9.14811" stroke="white" stroke-width="1.4599" stroke-linecap="round" stroke-linejoin="round"/>
</svg>
