<svg width="51" height="50" viewBox="0 0 51 50" fill="none" xmlns="http://www.w3.org/2000/svg">
<path d="M42.0741 20.0007C42.0741 11.6673 38.7407 8.33398 30.4074 8.33398H20.4074C12.0741 8.33398 8.74072 11.6673 8.74072 20.0007V30.0006C8.74072 38.334 12.0741 41.6673 20.4074 41.6673" stroke="white" stroke-width="1.46009" stroke-linecap="round" stroke-linejoin="round"/>
<path d="M34.4701 16.6673C33.3243 15.209 31.4076 14.584 28.5326 14.584H22.2826C17.0743 14.584 14.991 16.6673 14.991 21.8756V28.1256C14.991 31.0006 15.616 32.9173 17.0535 34.0631" stroke="white" stroke-width="1.46009" stroke-linecap="round" stroke-linejoin="round"/>
<path d="M17.0947 8.33036V4.16602" stroke="white" stroke-width="1.46009" stroke-linecap="round" stroke-linejoin="round"/>
<path d="M25.4072 8.33036V4.16602" stroke="white" stroke-width="1.46009" stroke-linecap="round" stroke-linejoin="round"/>
<path d="M33.7412 8.33036V4.16602" stroke="white" stroke-width="1.46009" stroke-linecap="round" stroke-linejoin="round"/>
<path d="M42.0742 16.668H46.2386" stroke="white" stroke-width="1.46009" stroke-linecap="round" stroke-linejoin="round"/>
<path d="M17.0947 41.666V45.8304" stroke="white" stroke-width="1.46009" stroke-linecap="round" stroke-linejoin="round"/>
<path d="M4.57422 16.668H8.73857" stroke="white" stroke-width="1.46009" stroke-linecap="round" stroke-linejoin="round"/>
<path d="M4.57422 25H8.73857" stroke="white" stroke-width="1.46009" stroke-linecap="round" stroke-linejoin="round"/>
<path d="M4.57422 33.334H8.73857" stroke="white" stroke-width="1.46009" stroke-linecap="round" stroke-linejoin="round"/>
<path d="M35.2205 38.7285C37.0499 38.7285 38.533 37.2455 38.533 35.416C38.533 33.5866 37.0499 32.1035 35.2205 32.1035C33.391 32.1035 31.908 33.5866 31.908 35.416C31.908 37.2455 33.391 38.7285 35.2205 38.7285Z" stroke="white" stroke-width="1.46009" stroke-miterlimit="10" stroke-linecap="round" stroke-linejoin="round"/>
<path d="M24.1782 36.3742V34.4367C24.1782 33.2909 25.1157 32.3534 26.2616 32.3534C28.2616 32.3534 29.0741 30.9367 28.0741 29.2075C27.4907 28.2075 27.8449 26.9159 28.8449 26.3534L30.7407 25.2492C31.6157 24.7284 32.7407 25.0409 33.2616 25.9159L33.3866 26.1242C34.3866 27.8534 36.0116 27.8534 37.0116 26.1242L37.1366 25.9159C37.6574 25.0409 38.7824 24.7492 39.6574 25.2492L41.5532 26.3534C42.5532 26.9367 42.9074 28.2075 42.3241 29.2075C41.3241 30.9367 42.1366 32.3534 44.1366 32.3534C45.2824 32.3534 46.2199 33.2909 46.2199 34.4367V36.3742C46.2199 37.52 45.2824 38.4575 44.1366 38.4575C42.1366 38.4575 41.3241 39.8742 42.3241 41.6034C42.9074 42.6034 42.5532 43.895 41.5532 44.4575L39.6574 45.5617C38.7824 46.0825 37.6574 45.77 37.1366 44.895L37.0116 44.6867C36.0116 42.9575 34.3866 42.9575 33.3866 44.6867L33.2616 44.895C32.7407 45.77 31.6157 46.0617 30.7407 45.5617L28.8449 44.4575C27.8449 43.8742 27.4907 42.6034 28.0741 41.6034C29.0741 39.8742 28.2616 38.4575 26.2616 38.4575C25.1157 38.4784 24.1782 37.5409 24.1782 36.3742Z" stroke="white" stroke-width="1.46009" stroke-miterlimit="10" stroke-linecap="round" stroke-linejoin="round"/>
</svg>
