<svg width="50" height="50" viewBox="0 0 50 50" fill="none" xmlns="http://www.w3.org/2000/svg">
<path d="M7.29175 42.7083C9.02091 44.4375 11.8126 44.4375 13.5417 42.7083L40.6251 15.625C42.3542 13.8958 42.3542 11.1042 40.6251 9.375C38.8959 7.64583 36.1043 7.64583 34.3751 9.375L7.29175 36.4583C5.56258 38.1875 5.56258 40.9792 7.29175 42.7083Z" stroke="white" stroke-width="1.4599" stroke-linecap="round" stroke-linejoin="round"/>
<path d="M37.521 18.7285L31.271 12.4785" stroke="white" stroke-width="1.4599" stroke-linecap="round" stroke-linejoin="round"/>
<path d="M17.7083 5.08268L20.8333 4.16602L19.9166 7.29102L20.8333 10.416L17.7083 9.49935L14.5833 10.416L15.4999 7.29102L14.5833 4.16602L17.7083 5.08268Z" stroke="white" stroke-width="1.4599" stroke-linecap="round" stroke-linejoin="round"/>
<path d="M9.375 17.5846L12.5 16.668L11.5833 19.793L12.5 22.918L9.375 22.0013L6.25 22.918L7.16667 19.793L6.25 16.668L9.375 17.5846Z" stroke="white" stroke-width="1.4599" stroke-linecap="round" stroke-linejoin="round"/>
<path d="M40.625 28.0007L43.75 27.084L42.8333 30.209L43.75 33.334L40.625 32.4173L37.5 33.334L38.4167 30.209L37.5 27.084L40.625 28.0007Z" stroke="white" stroke-width="1.4599" stroke-linecap="round" stroke-linejoin="round"/>
</svg>
