<svg  viewBox="0 0 40 40" xmlns="http://www.w3.org/2000/svg">
<path d="M7.48723 6.17172C8.8679 6.17172 9.98715 5.05247 9.98715 3.6718C9.98715 2.29113 8.8679 1.17188 7.48723 1.17188C6.10656 1.17188 4.9873 2.29113 4.9873 3.6718C4.9873 5.05247 6.10656 6.17172 7.48723 6.17172Z" stroke="black" stroke-width="1.5" stroke-miterlimit="10" stroke-linecap="round" stroke-linejoin="round"/>
<path d="M9.9873 3.67181L13.6514 5.59377V13.4695" stroke="black" stroke-width="1.5" stroke-miterlimit="10" stroke-linecap="round" stroke-linejoin="round"/>
<path d="M34.2314 6.17172C35.612 6.17172 36.7313 5.05247 36.7313 3.6718C36.7313 2.29113 35.612 1.17188 34.2314 1.17188C32.8507 1.17188 31.7314 2.29113 31.7314 3.6718C31.7314 5.05247 32.8507 6.17172 34.2314 6.17172Z" stroke="black" stroke-width="1.5" stroke-miterlimit="10" stroke-linecap="round" stroke-linejoin="round"/>
<path d="M31.7314 3.67181L28.0674 5.59377V13.4838" stroke="black" stroke-width="1.5" stroke-miterlimit="10" stroke-linecap="round" stroke-linejoin="round"/>
<path d="M20.8593 8.89944C22.24 8.89944 23.3592 7.78019 23.3592 6.39952C23.3592 5.01885 22.24 3.8996 20.8593 3.8996C19.4786 3.8996 18.3594 5.01885 18.3594 6.39952C18.3594 7.78019 19.4786 8.89944 20.8593 8.89944Z" stroke="black" stroke-width="1.5" stroke-miterlimit="10" stroke-linecap="round" stroke-linejoin="round"/>
<path d="M20.8594 8.89948V13.4696" stroke="black" stroke-width="1.5" stroke-miterlimit="10" stroke-linecap="round" stroke-linejoin="round"/>
<path d="M4.24219 18.2262V22.9905" stroke="black" stroke-width="1.5" stroke-miterlimit="10" stroke-linecap="round" stroke-linejoin="round"/>
<path d="M37.3708 18.2262V36.5332C37.3708 37.8006 36.3433 38.8282 35.0759 38.8282H6.53711C5.26969 38.8282 4.24219 37.8006 4.24219 36.5332V34.2953" stroke="black" stroke-width="1.5" stroke-miterlimit="10" stroke-linecap="round" stroke-linejoin="round"/>
<path d="M35.0759 13.4673C36.3433 13.4673 37.3708 14.4948 37.3708 15.7623V18.2262H4.24219" stroke="black" stroke-width="1.5" stroke-miterlimit="10" stroke-linecap="round" stroke-linejoin="round"/>
<path d="M11.0362 34.2953H2.62891V22.9905H11.0362C14.158 22.9905 16.6887 25.5212 16.6887 28.6429C16.6887 31.7647 14.158 34.2953 11.0362 34.2953Z" stroke="black" stroke-width="1.5" stroke-miterlimit="10" stroke-linecap="round" stroke-linejoin="round"/>
<circle cx="12.1309" cy="28.6429" r="1.17188" fill="black"/>
<path d="M35.0756 13.4673H6.14355V18.224" stroke="black" stroke-width="1.5" stroke-miterlimit="10" stroke-linecap="round" stroke-linejoin="round"/>
</svg>
