<svg viewBox="0 0 40 40" xmlns="http://www.w3.org/2000/svg">
<path d="M27.8778 20.0493H20.9142L18.9916 25.7058L17.214 20.2072H14.5319L12.7005 14.2941L9.50118 25.292L7.98723 19.5475H2.28418" stroke="black" stroke-width="1.5" stroke-miterlimit="10" stroke-linecap="round" stroke-linejoin="round"/>
<path d="M29.0792 3.21738C24.9366 3.21738 21.3982 5.79906 19.9867 9.43931C18.5756 5.79898 15.0369 3.21738 10.8944 3.21738C5.24354 3.20237 1.17442 8.02006 1.17442 13.6902H1.17285C1.17285 13.7279 1.17457 13.7652 1.17481 13.8028C1.20695 18.1755 3.09918 22.1233 5.67312 25.4781C9.80301 30.8607 15.6851 34.7167 18.4479 36.3489C19.414 36.9196 20.6126 36.9276 21.586 36.3697C24.363 34.7782 30.1839 30.9953 34.2917 25.4781C36.7507 22.1754 38.5938 18.2507 38.8043 13.8028C38.8176 13.5219 38.8266 13.2397 38.8266 12.9546C38.8267 7.57688 34.4626 3.21738 29.0792 3.21738Z" stroke="black" stroke-width="1.5" stroke-miterlimit="10" stroke-linecap="round" stroke-linejoin="round"/>
</svg>
