<svg viewBox="0 0 40 40"  xmlns="http://www.w3.org/2000/svg">
<g clip-path="url(#clip0_280_5014)">
<path d="M20 29.375C25.1777 29.375 29.375 25.1777 29.375 20C29.375 14.8223 25.1777 10.625 20 10.625C14.8223 10.625 10.625 14.8223 10.625 20C10.625 25.1777 14.8223 29.375 20 29.375Z" stroke="black" stroke-width="1.5" stroke-miterlimit="10" stroke-linecap="round" stroke-linejoin="round"/>
<path d="M17.6562 16.0938L23.9062 20L17.6562 23.9062V16.0938Z" stroke="black" stroke-width="1.5" stroke-miterlimit="10" stroke-linecap="round" stroke-linejoin="round"/>
<path d="M20 38.8281C21.2944 38.8281 22.3438 37.7788 22.3438 36.4844C22.3438 35.19 21.2944 34.1406 20 34.1406C18.7056 34.1406 17.6562 35.19 17.6562 36.4844C17.6562 37.7788 18.7056 38.8281 20 38.8281Z" stroke="black" stroke-width="1.5" stroke-miterlimit="10" stroke-linecap="round" stroke-linejoin="round"/>
<path d="M20 34.1406V29.375" stroke="black" stroke-width="1.5" stroke-miterlimit="10" stroke-linecap="round" stroke-linejoin="round"/>
<path d="M20 5.85938C21.2944 5.85938 22.3438 4.81004 22.3438 3.51562C22.3438 2.22121 21.2944 1.17188 20 1.17188C18.7056 1.17188 17.6562 2.22121 17.6562 3.51562C17.6562 4.81004 18.7056 5.85938 20 5.85938Z" stroke="black" stroke-width="1.5" stroke-miterlimit="10" stroke-linecap="round" stroke-linejoin="round"/>
<path d="M20 5.85938V10.625" stroke="black" stroke-width="1.5" stroke-miterlimit="10" stroke-linecap="round" stroke-linejoin="round"/>
<path d="M36.4844 22.3438C37.7788 22.3438 38.8281 21.2944 38.8281 20C38.8281 18.7056 37.7788 17.6562 36.4844 17.6562C35.19 17.6562 34.1406 18.7056 34.1406 20C34.1406 21.2944 35.19 22.3438 36.4844 22.3438Z" stroke="black" stroke-width="1.5" stroke-miterlimit="10" stroke-linecap="round" stroke-linejoin="round"/>
<path d="M34.1406 20H29.375" stroke="black" stroke-width="1.5" stroke-miterlimit="10" stroke-linecap="round" stroke-linejoin="round"/>
<path d="M3.51562 22.3438C4.81004 22.3438 5.85938 21.2944 5.85938 20C5.85938 18.7056 4.81004 17.6562 3.51562 17.6562C2.22121 17.6562 1.17188 18.7056 1.17188 20C1.17188 21.2944 2.22121 22.3438 3.51562 22.3438Z" stroke="black" stroke-width="1.5" stroke-miterlimit="10" stroke-linecap="round" stroke-linejoin="round"/>
<path d="M5.85938 20H10.625" stroke="black" stroke-width="1.5" stroke-miterlimit="10" stroke-linecap="round" stroke-linejoin="round"/>
<path d="M31.6562 34C32.9507 34 34 32.9507 34 31.6562C34 30.3618 32.9507 29.3125 31.6562 29.3125C30.3618 29.3125 29.3125 30.3618 29.3125 31.6562C29.3125 32.9507 30.3618 34 31.6562 34Z" stroke="black" stroke-width="1.5" stroke-miterlimit="10" stroke-linecap="round" stroke-linejoin="round"/>
<path d="M29.9987 29.9989L26.6289 26.6292" stroke="black" stroke-width="1.5" stroke-miterlimit="10" stroke-linecap="round" stroke-linejoin="round"/>
<path d="M8.34375 10.6875C9.63817 10.6875 10.6875 9.63817 10.6875 8.34375C10.6875 7.04933 9.63817 6 8.34375 6C7.04933 6 6 7.04933 6 8.34375C6 9.63817 7.04933 10.6875 8.34375 10.6875Z" stroke="black" stroke-width="1.5" stroke-miterlimit="10" stroke-linecap="round" stroke-linejoin="round"/>
<path d="M10.001 10.0011L13.3707 13.3709" stroke="black" stroke-width="1.5" stroke-miterlimit="10" stroke-linecap="round" stroke-linejoin="round"/>
<path d="M31.6562 10.6875C32.9507 10.6875 34 9.63817 34 8.34375C34 7.04933 32.9507 6 31.6562 6C30.3618 6 29.3125 7.04933 29.3125 8.34375C29.3125 9.63817 30.3618 10.6875 31.6562 10.6875Z" stroke="black" stroke-width="1.5" stroke-miterlimit="10" stroke-linecap="round" stroke-linejoin="round"/>
<path d="M29.9987 10.0011L26.6289 13.3709" stroke="black" stroke-width="1.5" stroke-miterlimit="10" stroke-linecap="round" stroke-linejoin="round"/>
<path d="M8.34375 34C9.63817 34 10.6875 32.9507 10.6875 31.6562C10.6875 30.3618 9.63817 29.3125 8.34375 29.3125C7.04933 29.3125 6 30.3618 6 31.6562C6 32.9507 7.04933 34 8.34375 34Z" stroke="black" stroke-width="1.5" stroke-miterlimit="10" stroke-linecap="round" stroke-linejoin="round"/>
<path d="M10.001 29.9989L13.3707 26.6292" stroke="black" stroke-width="1.5" stroke-miterlimit="10" stroke-linecap="round" stroke-linejoin="round"/>
</g>
<defs>
<clipPath id="clip0_280_5014">
<rect width="40" height="40" fill="white"/>
</clipPath>
</defs>
</svg>
