<svg  viewBox="0 0 40 40"  xmlns="http://www.w3.org/2000/svg">
<g clip-path="url(#clip0_280_4825)">
<path d="M14.5352 16.8367V15.5164C14.5352 14.2 14.0016 13.0078 13.1391 12.1453C12.2758 11.2828 11.0844 10.7492 9.76719 10.7492C7.13437 10.7492 5 12.8836 5 15.5164V16.8391" stroke="black" stroke-width="1.5" stroke-miterlimit="10" stroke-linecap="round" stroke-linejoin="round"/>
<path d="M9.76711 10.7491C11.1174 10.7491 12.212 9.65447 12.212 8.30422C12.212 6.95397 11.1174 5.85938 9.76711 5.85938C8.41686 5.85938 7.32227 6.95397 7.32227 8.30422C7.32227 9.65447 8.41686 10.7491 9.76711 10.7491Z" stroke="black" stroke-width="1.5" stroke-miterlimit="10" stroke-linecap="round" stroke-linejoin="round"/>
<path d="M9.76562 18.3594C14.5118 18.3594 18.3594 14.5118 18.3594 9.76562C18.3594 5.01943 14.5118 1.17188 9.76562 1.17188C5.01943 1.17188 1.17188 5.01943 1.17188 9.76562C1.17188 14.5118 5.01943 18.3594 9.76562 18.3594Z" stroke="black" stroke-width="1.5" stroke-miterlimit="10" stroke-linecap="round" stroke-linejoin="round"/>
<path d="M35.0039 37.3055V35.9851C35.0039 34.6687 34.4703 33.4765 33.6078 32.614C32.7445 31.7515 31.5531 31.218 30.2359 31.218C27.6031 31.218 25.4688 33.3523 25.4688 35.9851V37.3078" stroke="black" stroke-width="1.5" stroke-miterlimit="10" stroke-linecap="round" stroke-linejoin="round"/>
<path d="M30.2359 31.2178C31.5861 31.2178 32.6807 30.1232 32.6807 28.773C32.6807 27.4227 31.5861 26.3281 30.2359 26.3281C28.8856 26.3281 27.791 27.4227 27.791 28.773C27.791 30.1232 28.8856 31.2178 30.2359 31.2178Z" stroke="black" stroke-width="1.5" stroke-miterlimit="10" stroke-linecap="round" stroke-linejoin="round"/>
<path d="M30.2344 38.8281C34.9806 38.8281 38.8281 34.9806 38.8281 30.2344C38.8281 25.4882 34.9806 21.6406 30.2344 21.6406C25.4882 21.6406 21.6406 25.4882 21.6406 30.2344C21.6406 34.9806 25.4882 38.8281 30.2344 38.8281Z" stroke="black" stroke-width="1.5" stroke-miterlimit="10" stroke-linecap="round" stroke-linejoin="round"/>
<path d="M16.1758 4.04219C17.4031 3.74922 18.6836 3.59375 20 3.59375C23.6859 3.59375 27.0883 4.80938 29.8281 6.86172" stroke="black" stroke-width="1.5" stroke-miterlimit="10" stroke-linecap="round" stroke-linejoin="round"/>
<path d="M4.04219 16.1758C3.74922 17.4031 3.59375 18.6836 3.59375 20C3.59375 23.6859 4.80938 27.0883 6.86172 29.8281" stroke="black" stroke-width="1.5" stroke-miterlimit="10" stroke-linecap="round" stroke-linejoin="round"/>
<path d="M10.1719 33.1383C12.9117 35.1906 16.3141 36.4063 20 36.4063C21.3164 36.4063 22.5969 36.2508 23.8242 35.9578" stroke="black" stroke-width="1.5" stroke-miterlimit="10" stroke-linecap="round" stroke-linejoin="round"/>
<path d="M33.1387 10.1719C35.191 12.9117 36.4066 16.3141 36.4066 20C36.4066 21.3164 36.2512 22.5969 35.9582 23.8242" stroke="black" stroke-width="1.5" stroke-miterlimit="10" stroke-linecap="round" stroke-linejoin="round"/>
<path d="M31.5625 10.7812C32.8569 10.7812 33.9062 9.73192 33.9062 8.4375C33.9062 7.14308 32.8569 6.09375 31.5625 6.09375C30.2681 6.09375 29.2188 7.14308 29.2188 8.4375C29.2188 9.73192 30.2681 10.7812 31.5625 10.7812Z" stroke="black" stroke-width="1.5" stroke-miterlimit="10" stroke-linecap="round" stroke-linejoin="round"/>
<path d="M8.4375 33.9062C9.73192 33.9062 10.7812 32.8569 10.7812 31.5625C10.7812 30.2681 9.73192 29.2188 8.4375 29.2188C7.14308 29.2188 6.09375 30.2681 6.09375 31.5625C6.09375 32.8569 7.14308 33.9062 8.4375 33.9062Z" stroke="black" stroke-width="1.5" stroke-miterlimit="10" stroke-linecap="round" stroke-linejoin="round"/>
</g>
<defs>
<clipPath id="clip0_280_4825">
<rect width="40" height="40" fill="white"/>
</clipPath>
</defs>
</svg>
