<?xml version="1.0" encoding="UTF-8"?>
<svg version="1.1" xmlns="http://www.w3.org/2000/svg" width="512" height="512">
<path d="M0 0 C13.33299167 12.50215242 20.92114973 28.32512459 22.6328125 46.46875 C22.77976562 45.59734375 22.92671875 44.7259375 23.078125 43.828125 C25.95252681 28.5640602 32.12386707 16.81657147 44.640625 7.14453125 C56.70905677 -0.87637979 70.26992339 -4.32851743 84.62109375 -2.05859375 C100.00821368 1.27428437 112.40119632 9.56098557 121.09765625 22.71875 C128.6256373 36.20398833 130.85315617 50.52556045 126.671875 65.453125 C123.59128269 74.3937914 119.3010623 81.7610431 112.6328125 88.46875 C113.64859375 88.91863281 114.664375 89.36851562 115.7109375 89.83203125 C132.59866761 97.60355831 143.85790544 108.48004833 151.58984375 125.6328125 C154.16086134 132.62366932 154.94973372 138.90737402 154.96875 146.296875 C154.9754068 147.20830261 154.9820636 148.11973022 154.98892212 149.05877686 C154.99898712 150.97145586 155.00374106 152.88416954 155.00341797 154.796875 C155.0078212 157.72453718 155.04428682 160.65072588 155.08203125 163.578125 C155.0878947 165.44270321 155.09186725 167.30728853 155.09375 169.171875 C155.10812103 170.04483215 155.12249207 170.91778931 155.13729858 171.81719971 C155.09178477 177.84364629 155.09178477 177.84364629 152.82788086 180.92700195 C150.92318273 182.26480294 149.15057407 183.43835726 147.05078125 184.43359375 C146.37418457 184.75618164 145.69758789 185.07876953 145.00048828 185.41113281 C143.92130127 185.90371582 143.92130127 185.90371582 142.8203125 186.40625 C142.06476074 186.75397461 141.30920898 187.10169922 140.53076172 187.45996094 C130.19807347 192.12103119 119.68794339 195.38895168 108.6328125 197.84375 C107.84342285 198.02389648 107.0540332 198.20404297 106.24072266 198.38964844 C101.43445785 199.38954782 97.49623666 199.6308071 92.6328125 198.46875 C89.74899671 195.88071019 88.7836946 194.27345451 88.0703125 190.46875 C88.6611687 187.31751691 89.4934973 185.85238992 91.80639648 183.65966797 C95.83711026 181.03143354 100.79750243 180.4748681 105.4453125 179.53125 C114.51673606 177.5389372 123.01708588 175.15163187 131.62109375 171.66796875 C133.99033323 170.72457508 136.16655721 170.04734459 138.6328125 169.46875 C138.46777128 165.29015372 138.27296694 161.11421134 138.05297852 156.93823242 C137.98238123 155.52388541 137.91928974 154.10913941 137.86450195 152.6940918 C137.29996474 138.36705272 134.16405939 125.92409601 123.6328125 115.46875 C115.58484002 108.85025754 106.13178996 104.39224581 95.6340332 104.30761719 C94.66565018 104.29800964 93.69726715 104.2884021 92.69953918 104.27850342 C91.66302719 104.27425354 90.6265152 104.27000366 89.55859375 104.265625 C87.94007759 104.25707489 87.94007759 104.25707489 86.28886414 104.24835205 C84.006795 104.23891703 81.72471233 104.23237403 79.44262695 104.22851562 C75.97517703 104.21883339 72.50832598 104.18780462 69.04101562 104.15625 C66.81771183 104.14971691 64.59440382 104.14446764 62.37109375 104.140625 C61.34470291 104.1282782 60.31831207 104.1159314 59.26081848 104.10321045 C50.48684485 104.12996625 42.66203125 105.73734683 35.1953125 110.53125 C34.39222656 111.03785156 33.58914063 111.54445312 32.76171875 112.06640625 C31.04842175 113.1949817 29.33984822 114.33072619 27.6328125 115.46875 C29.02137074 118.6349311 29.87595639 119.6672348 32.6953125 121.96875 C46.82964732 133.75713713 55.75250203 153.40933395 57.6328125 171.46875 C57.97735347 178.38031871 57.9453472 185.31129067 57.98291016 192.22998047 C57.999539 194.4761791 58.02691872 196.72232336 58.06494141 198.96826172 C58.11962639 202.22130519 58.14156185 205.47312183 58.15625 208.7265625 C58.17891937 209.7287381 58.20158875 210.7309137 58.22494507 211.76345825 C58.20380657 218.72071185 58.20380657 218.72071185 55.30371094 222.52001953 C52.18017489 224.79900168 49.01162306 226.61411001 45.5078125 228.21875 C44.78335937 228.55237549 44.05890625 228.88600098 43.3125 229.22973633 C-9.55575969 252.72372139 -68.5744766 254.41934152 -122.59692383 233.86425781 C-127.53695519 231.90069219 -132.34426173 229.68210857 -137.1171875 227.34375 C-138.11939331 226.85672607 -138.11939331 226.85672607 -139.1418457 226.35986328 C-142.88292018 224.46405177 -145.90683729 222.87936806 -148.3671875 219.46875 C-148.9644464 216.01697792 -148.90325767 212.60079852 -148.86328125 209.10546875 C-148.86473648 208.08129349 -148.86619171 207.05711823 -148.86769104 206.00190735 C-148.86603053 203.82896083 -148.85445238 201.65600274 -148.83374023 199.4831543 C-148.80512492 196.20633968 -148.81306138 192.93117913 -148.82617188 189.65429688 C-148.81289153 175.36914512 -148.3423048 161.40188955 -142.1796875 148.21875 C-141.87998047 147.55746094 -141.58027344 146.89617187 -141.27148438 146.21484375 C-138.37726241 140.06835175 -134.68712383 134.70890946 -130.3671875 129.46875 C-129.43326172 128.32599609 -129.43326172 128.32599609 -128.48046875 127.16015625 C-125.36105929 123.47235114 -122.16904904 120.46415606 -118.3671875 117.46875 C-118.3671875 116.80875 -118.3671875 116.14875 -118.3671875 115.46875 C-126.85056479 109.10238187 -135.61325073 104.39430119 -146.3659668 104.30761719 C-147.33434982 104.29800964 -148.30273285 104.2884021 -149.30046082 104.27850342 C-150.33697281 104.27425354 -151.3734848 104.27000366 -152.44140625 104.265625 C-154.05992241 104.25707489 -154.05992241 104.25707489 -155.71113586 104.24835205 C-157.993205 104.23891703 -160.27528767 104.23237403 -162.55737305 104.22851562 C-166.02482297 104.21883339 -169.49167402 104.18780462 -172.95898438 104.15625 C-175.18228817 104.14971691 -177.40559618 104.14446764 -179.62890625 104.140625 C-181.16849251 104.1221048 -181.16849251 104.1221048 -182.73918152 104.10321045 C-195.14402842 104.14103843 -206.40400595 108.22909274 -215.671875 116.61328125 C-225.98532846 127.90104713 -227.82546504 139.91175809 -228.5546875 154.53125 C-228.63623974 155.98378785 -228.71891329 157.43626319 -228.80273438 158.88867188 C-229.00381366 162.41473809 -229.18972115 165.94140718 -229.3671875 169.46875 C-228.81538818 169.65123291 -228.26358887 169.83371582 -227.69506836 170.02172852 C-223.84788309 171.29840774 -220.00720072 172.58779373 -216.18359375 173.93359375 C-207.63724178 176.90654103 -199.23312753 179.40724179 -190.29321289 180.91186523 C-185.21838027 181.87432348 -182.56713398 183.41013063 -179.3671875 187.46875 C-178.65483064 191.2679866 -179.05454762 192.90599821 -180.9296875 196.28125 C-184.14310332 199.16508471 -186.07742896 199.17156793 -190.3671875 199.46875 C-193.31944181 199.19460956 -196.16346475 198.61621931 -199.0546875 197.96875 C-200.28493652 197.69853027 -200.28493652 197.69853027 -201.54003906 197.42285156 C-216.5501958 193.95371097 -231.3095304 188.76083881 -244.3671875 180.46875 C-246.056207 177.09071099 -245.57381688 173.26047736 -245.60546875 169.54296875 C-245.6135405 168.64439651 -245.62161224 167.74582428 -245.62992859 166.82002258 C-245.64378353 164.90925021 -245.65449935 162.99845294 -245.66235352 161.08764648 C-245.67379349 159.1530013 -245.69411618 157.21838564 -245.72387695 155.28393555 C-246.02692616 135.58573715 -242.86015828 119.63094094 -228.7734375 104.81640625 C-221.07516564 97.30559231 -213.31246382 92.58403675 -203.3671875 88.46875 C-203.79128906 88.05367188 -204.21539062 87.63859375 -204.65234375 87.2109375 C-215.47203268 75.84431924 -219.92171314 62.18947929 -219.61328125 46.6953125 C-218.53555952 32.56518315 -211.60906718 20.04557255 -201.3671875 10.46875 C-190.65229091 1.32537158 -177.78033252 -2.96506156 -163.78515625 -2.80859375 C-148.40495229 -1.56060006 -135.70252138 5.17238181 -125.3671875 16.46875 C-118.33843801 25.99157189 -114.93369039 34.868161 -113.3671875 46.46875 C-113.20863281 45.45296875 -113.05007812 44.4371875 -112.88671875 43.390625 C-110.68626165 30.0872715 -106.80957045 19.19429311 -98.3671875 8.46875 C-97.78324219 7.70820313 -97.19929687 6.94765625 -96.59765625 6.1640625 C-85.76734374 -7.01471777 -70.00754292 -14.70400783 -53.3046875 -17.21875 C-33.23114359 -19.08124377 -15.18990033 -12.98282079 0 0 Z M-81.3671875 14.46875 C-91.88951408 25.95919411 -96.6016648 39.21731106 -96.3046875 54.734375 C-95.03376223 67.6342665 -88.45243997 79.76045157 -78.93359375 88.421875 C-66.90241647 98.01751716 -53.55753752 102.60506202 -38.1796875 101.03125 C-24.70365087 98.59562864 -12.65443932 91.37514947 -4.3671875 80.46875 C3.78887447 68.17344522 7.52128079 54.60483317 4.63671875 39.85546875 C0.33972724 25.35939232 -7.70541422 13.5653273 -21.03417969 5.96826172 C-41.5329536 -4.80622674 -64.37754124 -1.15418408 -81.3671875 14.46875 Z M-194.3671875 27.79296875 C-200.60959645 36.07716563 -203.72366564 45.06394609 -202.3671875 55.46875 C-200.00765405 66.1849644 -194.80372728 74.84916288 -185.734375 81.18359375 C-176.63219071 86.12520865 -167.36119249 87.92003129 -157.3671875 85.28125 C-147.66397605 82.07651961 -138.90349615 75.66264608 -133.9921875 66.53125 C-129.96566256 57.31498181 -129.08708514 47.96704172 -132.4609375 38.3515625 C-137.30876402 27.76714127 -144.06213342 20.86035172 -154.7890625 16.34375 C-169.41260988 11.38060665 -184.42353692 16.23735919 -194.3671875 27.79296875 Z M47.4609375 28.1796875 C40.99054332 36.28150586 38.9243073 45.70005266 39.85546875 55.91015625 C41.67243747 66.05342821 47.66676473 74.14493362 55.6328125 80.46875 C65.60949194 86.20875735 74.85304635 87.94772873 86.0078125 84.96875 C96.2031316 81.6018138 103.79388372 75.06675725 108.6328125 65.46875 C112.83663971 55.47866633 112.67296493 46.47966079 108.94921875 36.359375 C104.72567359 27.08512154 97.34139542 20.0942539 87.828125 16.37109375 C72.18105659 11.71164817 58.5517506 16.52123436 47.4609375 28.1796875 Z M-113.3671875 53.46875 C-115.19754467 55.29910717 -115.11010192 58.31582085 -115.5546875 60.78125 C-117.87658519 71.80745981 -122.42663156 80.48120853 -130.3671875 88.46875 C-127.28777525 90.5216915 -124.22766398 91.92233604 -120.8671875 93.46875 C-114.32649196 96.56232221 -109.84795718 100.33293222 -104.8671875 105.625 C-102.48071733 107.78736156 -102.48071733 107.78736156 -99.359375 107.34765625 C-95.4048761 106.19197662 -95.4048761 106.19197662 -91.4921875 104.90625 C-90.71101563 104.63683594 -89.92984375 104.36742187 -89.125 104.08984375 C-88.54492188 103.88488281 -87.96484375 103.67992187 -87.3671875 103.46875 C-88.10195312 102.74558594 -88.83671875 102.02242187 -89.59375 101.27734375 C-102.97423954 87.72724237 -110.80566815 72.51928607 -112.3671875 53.46875 C-112.6971875 53.46875 -113.0271875 53.46875 -113.3671875 53.46875 Z M21.6328125 53.46875 C21.55804688 54.30535156 21.48328125 55.14195312 21.40625 56.00390625 C19.22900492 75.27892889 10.31604996 89.93201401 -3.3671875 103.46875 C-1.45521711 104.16920456 0.46261685 104.853669 2.3828125 105.53125 C3.98382813 106.10552734 3.98382813 106.10552734 5.6171875 106.69140625 C8.6602759 107.4758293 9.83180445 107.77627451 12.6328125 106.46875 C14.14297929 105.15088909 15.59536207 103.76584173 17.0078125 102.34375 C22.13444914 97.55328625 27.33581686 94.80094446 33.62890625 91.87890625 C36.71659733 90.52017811 36.71659733 90.52017811 39.6328125 88.46875 C39.19710937 88.03046875 38.76140625 87.5921875 38.3125 87.140625 C30.08323087 78.37698775 26.28051472 68.97931109 24.2734375 57.20703125 C23.95632813 55.85158203 23.95632813 55.85158203 23.6328125 54.46875 C22.9728125 54.13875 22.3128125 53.80875 21.6328125 53.46875 Z M-117.58984375 141.1015625 C-129.69561717 156.98614743 -131.84251931 172.87065977 -131.5546875 192.21875 C-131.53960616 193.99478026 -131.52592389 195.77082297 -131.51367188 197.546875 C-131.48095608 201.85447989 -131.42936686 206.1614738 -131.3671875 210.46875 C-123.54158385 214.51781155 -115.84210193 218.39185937 -107.4296875 221.09375 C-106.54982178 221.37951904 -105.66995605 221.66528809 -104.76342773 221.9597168 C-87.2751366 227.46457665 -69.65468346 230.46133771 -51.3671875 231.46875 C-50.28824219 231.52933594 -49.20929688 231.58992188 -48.09765625 231.65234375 C-45.16522153 231.7236619 -42.29662738 231.63324662 -39.3671875 231.46875 C-38.62130371 231.42766113 -37.87541992 231.38657227 -37.10693359 231.34423828 C-18.63990251 230.23330599 -0.90142669 226.80894402 16.6953125 221.09375 C17.49074463 220.83827393 18.28617676 220.58279785 19.10571289 220.31958008 C26.62487762 217.74928886 33.59096929 214.11228446 40.6328125 210.46875 C40.73313837 205.3316796 40.80495334 200.19520318 40.85253906 195.05737305 C40.87241585 193.31671187 40.89952715 191.57611526 40.93457031 189.83569336 C41.33461001 169.42778588 37.37411783 151.90074519 22.89013672 136.58105469 C10.39136505 123.95062759 -4.73123431 118.30977659 -22.28213501 118.13955688 C-23.69850515 118.1364975 -25.1148773 118.13427067 -26.53125 118.1328125 C-28.01085534 118.1263702 -29.49045945 118.11964083 -30.97006226 118.11264038 C-34.06486964 118.10070872 -37.15956579 118.09695505 -40.25439453 118.09814453 C-44.18107995 118.09834693 -48.10703518 118.07110939 -52.03354836 118.03660011 C-55.08974344 118.01413346 -58.14576868 118.01031304 -61.20203781 118.01136398 C-62.64743934 118.00903512 -64.09284758 118.00036873 -65.53816605 117.98469925 C-86.47879342 117.77900334 -103.93976836 124.9325804 -117.58984375 141.1015625 Z " fill="#000000" transform="translate(301.3671875,140.53125)"/>
</svg>
