<svg width="512" height="512" viewBox="0 0 512 512" fill="none" xmlns="http://www.w3.org/2000/svg">
<path d="M243.628 23.4382C262.442 37.4302 275.206 56.5057 279.777 79.6511C280.337 83.5904 280.482 87.4905 280.57 91.4616C280.591 92.2522 280.611 93.0428 280.633 93.8573C280.698 96.3634 280.757 98.8695 280.816 101.376C280.859 103.083 280.903 104.79 280.947 106.497C281.053 110.665 281.155 114.833 281.253 119.001C282.328 119.12 283.402 119.239 284.51 119.361C285.946 119.529 287.383 119.696 288.82 119.864C289.525 119.941 290.23 120.018 290.956 120.098C301.908 121.4 311.189 125.444 319.253 133.001C319.867 133.573 320.481 134.145 321.113 134.735C332.509 146.534 336.562 162.392 336.753 178.313C336.836 180.515 336.924 182.717 337.019 184.919C337.139 187.749 337.255 190.565 337.244 193.398C337.231 197.98 337.509 201.261 340.253 205.001C345.835 208.224 352.255 209.536 358.436 211.16C362.86 212.48 366.933 214.402 371.066 216.438C371.794 216.793 372.523 217.148 373.273 217.514C374.939 218.332 376.597 219.165 378.253 220.001C378.955 219.435 379.656 218.869 380.378 218.286C390.269 210.639 390.269 210.639 397.253 211.001C402.383 213.403 406.156 217.527 410.144 221.45C410.889 222.181 411.635 222.913 412.402 223.666C413.972 225.213 415.538 226.762 417.102 228.314C419.494 230.679 421.908 233.018 424.324 235.358C425.849 236.866 427.372 238.376 428.894 239.887C429.617 240.58 430.34 241.273 431.085 241.987C435.644 246.587 437.281 249.458 437.253 256.001C436.363 258.61 436.363 258.61 435.003 260.751C434.565 261.467 434.127 262.184 433.675 262.923C432.253 265.001 432.253 265.001 430.519 266.891C428.992 268.999 428.992 268.999 429.367 271.856C430.345 275.325 431.722 278.145 433.441 281.313C436.316 286.796 438.64 292.347 440.691 298.188C440.95 298.919 441.208 299.65 441.475 300.402C442.498 303.387 443.253 305.823 443.253 309.001C444.532 309.104 445.811 309.207 447.128 309.313C450.679 309.735 454.15 310.292 457.628 311.126C458.441 311.314 459.253 311.502 460.089 311.696C463.338 313.655 464.26 316.484 465.253 320.001C465.673 323.651 465.674 327.267 465.652 330.938C465.655 331.977 465.658 333.016 465.661 334.086C465.663 336.275 465.657 338.464 465.645 340.652C465.628 343.99 465.644 347.327 465.664 350.665C465.662 352.798 465.658 354.93 465.652 357.063C465.658 358.055 465.664 359.047 465.67 360.069C465.612 365.8 465.056 369.956 462.253 375.001C460.089 376.305 460.089 376.305 457.628 376.876C456.752 377.086 455.875 377.296 454.972 377.512C451.065 378.214 447.211 378.682 443.253 379.001C443.13 379.647 443.006 380.292 442.878 380.958C441.346 387.957 439.038 394.348 436.253 400.938C435.909 401.755 435.565 402.571 435.21 403.412C433.787 406.715 432.423 409.743 430.441 412.755C429.034 414.953 429.034 414.953 429.378 417.548C430.33 420.216 431.528 422.012 433.253 424.251C436.342 428.782 438.094 432.463 437.253 438.001C436.208 439.661 436.208 439.661 434.652 441.348C434.015 442.04 433.377 442.731 432.72 443.443C427.711 448.636 422.658 453.783 417.555 458.884C415.555 460.887 413.563 462.897 411.572 464.907C410.296 466.186 409.019 467.465 407.742 468.743C407.15 469.342 406.558 469.941 405.949 470.558C405.391 471.112 404.833 471.667 404.259 472.238C403.773 472.725 403.288 473.212 402.788 473.713C399.962 476.084 397.894 476.988 394.191 477.063C389.408 476.268 385.746 473.186 381.902 470.399C379.396 468.794 379.396 468.794 376.835 469.091C373.609 470.228 370.629 471.662 367.566 473.188C361.656 476.053 355.677 478.38 349.441 480.438C348.658 480.697 347.876 480.956 347.069 481.222C341.549 483.001 341.549 483.001 339.253 483.001C339.15 484.279 339.047 485.558 338.941 486.876C338.359 492.049 337.368 497.22 335.253 502.001C331.899 504.237 330.76 504.261 326.836 504.291C325.728 504.304 324.62 504.317 323.478 504.33C321.683 504.333 321.683 504.333 319.851 504.337C318.622 504.343 317.393 504.35 316.126 504.357C313.524 504.367 310.923 504.372 308.321 504.371C304.335 504.371 300.35 504.412 296.365 504.45C293.839 504.456 291.314 504.46 288.789 504.462C287.594 504.476 286.399 504.49 285.168 504.505C284.057 504.499 282.945 504.493 281.801 504.487C280.824 504.489 279.847 504.492 278.84 504.495C275.484 503.854 274.306 502.692 272.253 500.001C271.979 497.992 271.713 495.98 271.549 493.959C271.137 489.945 270.509 486.407 268.253 483.001C262.863 479.344 256.131 478.262 249.891 476.75C244.888 475.329 240.562 472.745 236.066 470.188C232.805 468.811 231.545 468.798 228.253 470.001C226.041 471.355 226.041 471.355 223.941 473.001C219.496 476.058 216.679 477.179 211.253 477.001C205.871 473.996 201.796 469.818 197.484 465.462C196.762 464.74 196.041 464.018 195.297 463.274C193.781 461.755 192.268 460.233 190.757 458.71C188.436 456.371 186.108 454.041 183.779 451.712C182.305 450.233 180.832 448.754 179.359 447.274C178.661 446.575 177.963 445.876 177.244 445.156C176.603 444.508 175.962 443.861 175.301 443.194C174.735 442.624 174.169 442.054 173.586 441.467C171.207 438.85 171.251 437.846 171.191 434.126C171.657 429.295 173.722 427.199 176.878 423.626C179.263 420.665 179.263 420.665 180.253 417.001C179.034 410.919 175.511 405.499 172.455 400.18C170.91 397.378 169.759 394.513 168.691 391.501C168.401 390.686 168.111 389.871 167.812 389.032C167.253 387.001 167.253 387.001 167.253 384.001C166.343 384.01 165.432 384.018 164.494 384.028C155.859 384.108 147.225 384.169 138.591 384.208C134.153 384.229 129.715 384.257 125.278 384.302C120.985 384.346 116.693 384.37 112.401 384.38C110.773 384.388 109.145 384.402 107.518 384.424C90.1936 384.646 75.5983 380.839 62.6792 368.704C48.89 353.338 47.1002 333.851 47.1082 314.064C47.1052 312.569 47.1018 311.073 47.098 309.577C47.0892 305.535 47.0869 301.494 47.0862 297.452C47.0855 294.92 47.0833 292.388 47.0807 289.856C47.0715 281.002 47.0674 272.149 47.0682 263.295C47.0688 255.075 47.0582 246.855 47.0424 238.635C47.0293 231.551 47.024 224.467 47.0246 217.383C47.0249 213.164 47.0221 208.945 47.0114 204.726C47.0017 200.752 47.0017 196.779 47.009 192.805C47.01 191.358 47.0077 189.911 47.0016 188.464C46.9225 168.41 49.7347 148.938 64.0035 133.751C73.1925 125.087 83.2691 121.367 95.5582 119.923C96.6698 119.788 96.6698 119.788 97.804 119.651C99.6201 119.431 101.437 119.216 103.253 119.001C103.263 117.994 103.272 116.987 103.282 115.95C103.322 112.132 103.388 108.316 103.461 104.499C103.489 102.862 103.51 101.225 103.524 99.5886C103.763 73.6532 111.868 51.4775 129.832 32.3366C160.867 2.40277 208.355 -0.261445 243.628 23.4382ZM162.253 31.0007C160.852 31.6311 160.852 31.6311 159.421 32.2741C141.837 40.9781 129.608 57.2441 123.395 75.5261C120.748 84.5975 120.909 93.4008 121.066 102.751C121.081 104.334 121.095 105.917 121.107 107.501C121.137 111.335 121.196 115.167 121.253 119.001C131.483 119.001 141.713 119.001 152.253 119.001C152.423 108.965 152.423 108.965 152.551 98.9292C152.846 86.6759 155.156 76.7575 163.566 67.4382C172.362 59.4605 181.271 56.0165 193.253 56.0007C204.444 56.7431 214.192 59.9392 222.253 68.0007C231.853 80.0766 232.269 92.7039 232.816 107.563C233.033 113.225 233.033 113.225 233.253 119.001C243.153 119.001 253.053 119.001 263.253 119.001C263.346 114.432 263.426 109.867 263.473 105.298C263.493 103.752 263.52 102.205 263.555 100.659C263.987 81.1028 259.354 63.3231 245.878 48.5632C231.669 33.7474 214.631 25.068 193.929 24.0046C182.569 23.9925 172.553 26.2796 162.253 31.0007ZM173.945 79.8913C169.86 84.9861 168.878 89.8333 168.96 96.2468C168.968 97.4475 168.975 98.6482 168.983 99.8852C169.011 101.388 169.038 102.89 169.066 104.438C169.128 109.244 169.19 114.049 169.253 119.001C184.763 119.001 200.273 119.001 216.253 119.001C216.295 115.226 216.336 111.452 216.378 107.563C216.397 106.392 216.415 105.221 216.434 104.015C216.491 93.1683 215.452 85.3235 207.628 77.3132C196.973 68.8864 183.52 71.4958 173.945 79.8913ZM75.4488 146.887C65.0289 160.081 64.1016 174.451 64.1082 190.672C64.1052 192.151 64.1018 193.63 64.098 195.109C64.0892 199.109 64.0869 203.11 64.0862 207.11C64.0855 209.615 64.0833 212.119 64.0807 214.624C64.0715 223.378 64.0674 232.132 64.0682 240.886C64.0688 249.021 64.0582 257.155 64.0424 265.289C64.0293 272.294 64.024 279.299 64.0246 286.304C64.0249 290.478 64.0221 294.652 64.0114 298.827C64.0017 302.757 64.0017 306.687 64.009 310.617C64.01 312.05 64.0077 313.483 64.0016 314.917C63.9375 331.047 65.521 345.055 76.5035 357.563C87.4418 367.259 99.6897 368.189 113.761 368.098C115.039 368.096 115.039 368.096 116.342 368.094C119.021 368.089 121.699 368.076 124.378 368.063C126.212 368.058 128.045 368.054 129.878 368.05C134.337 368.039 138.795 368.021 143.253 368.001C143.262 367.413 143.27 366.825 143.278 366.219C143.364 360.086 143.464 353.954 143.571 347.822C143.609 345.535 143.644 343.248 143.675 340.961C143.721 337.669 143.779 334.378 143.839 331.087C143.851 330.068 143.863 329.049 143.874 327.999C143.978 323.008 144.115 318.615 146.253 314.001C148.32 312.829 148.32 312.829 150.816 312.251C151.705 312.023 152.595 311.794 153.511 311.559C155.266 311.202 157.033 310.897 158.808 310.661C161.164 310.317 163.069 309.949 165.253 309.001C166.432 306.312 167.376 303.783 168.253 301.001C168.933 299.124 169.613 297.246 170.298 295.371C170.786 294.035 171.266 292.697 171.742 291.357C173.069 287.733 174.511 284.425 176.515 281.122C178.731 277.379 180.379 274.307 181.253 270.001C180.146 266.488 178.097 263.698 175.724 260.918C173.166 257.892 172.262 256.329 172.154 252.319C173.062 246.683 176.788 243.46 180.726 239.598C181.483 238.835 182.239 238.072 183.018 237.286C184.618 235.681 186.226 234.086 187.843 232.499C190.308 230.071 192.734 227.608 195.158 225.139C196.72 223.582 198.284 222.026 199.851 220.473C200.572 219.738 201.293 219.003 202.036 218.245C206.725 213.705 209.656 211.963 216.253 212.001C218.757 212.856 218.757 212.856 220.816 214.188C221.498 214.615 222.18 215.042 222.882 215.481C224.225 216.342 225.554 217.228 226.827 218.188C228.633 219.434 230.158 220.342 232.253 221.001C235.209 220.063 237.111 219.199 239.691 217.626C241.088 216.848 242.489 216.077 243.894 215.313C244.966 214.725 244.966 214.725 246.06 214.126C249.576 212.322 253.227 210.962 256.941 209.626C257.6 209.388 258.258 209.15 258.937 208.905C261.648 207.933 264.264 206.998 267.078 206.364C269.69 204.727 269.76 204.089 270.511 201.192C270.822 199.653 271.11 198.11 271.378 196.563C271.663 195.021 271.957 193.48 272.261 191.942C272.381 191.258 272.501 190.575 272.625 189.87C273.415 187.52 274.336 186.565 276.253 185.001C278.247 184.602 278.247 184.602 280.541 184.568C281.402 184.549 282.263 184.529 283.149 184.508C284.537 184.499 284.537 184.499 285.953 184.489C286.903 184.471 287.853 184.453 288.832 184.435C291.868 184.38 294.904 184.347 297.941 184.313C299.999 184.28 302.057 184.246 304.115 184.21C309.161 184.125 314.207 184.058 319.253 184.001C319.31 181.489 319.35 178.978 319.382 176.466C319.4 175.765 319.417 175.064 319.435 174.342C319.531 164.204 315.913 154.597 309.246 146.899C297.158 135.38 280.844 135.551 265.179 135.613C263.407 135.608 261.634 135.603 259.862 135.597C255.089 135.583 250.317 135.588 245.544 135.598C240.524 135.605 235.505 135.598 230.485 135.594C222.059 135.588 213.633 135.595 205.208 135.61C195.497 135.626 185.788 135.621 176.077 135.604C167.707 135.59 159.336 135.589 150.965 135.596C145.981 135.601 140.996 135.602 136.011 135.592C131.323 135.583 126.634 135.589 121.946 135.607C120.236 135.61 118.526 135.609 116.816 135.603C102.358 135.552 86.1624 135.687 75.4488 146.887ZM287.253 200.001C285.933 205.281 284.613 210.561 283.253 216.001C278.929 218.595 275.5 219.857 270.753 221.063C263.507 223.043 256.834 225.816 250.066 229.063C249.182 229.487 248.297 229.91 247.386 230.347C243.728 232.142 240.198 233.951 236.839 236.266C233.212 238.699 231.57 238.779 227.253 238.001C224.318 236.245 221.556 234.368 218.804 232.337C217.962 231.896 217.121 231.455 216.253 231.001C212.446 232.272 210.042 234.983 207.269 237.79C206.578 238.485 206.578 238.485 205.874 239.194C204.412 240.666 202.958 242.146 201.503 243.626C200.51 244.629 199.517 245.631 198.523 246.634C196.094 249.084 193.672 251.541 191.253 254.001C192.827 258.063 194.716 261.301 197.23 264.841C198.651 267.84 198.669 269.7 198.253 273.001C196.984 275.545 195.689 277.853 194.191 280.251C187.143 292.151 182.428 304.802 179.371 318.278C178.253 321.001 178.253 321.001 173.253 324.001C168.963 324.991 164.673 325.981 160.253 327.001C160.253 338.221 160.253 349.441 160.253 361.001C165.533 362.321 170.813 363.641 176.253 365.001C178.848 369.325 180.109 372.754 181.316 377.501C183.296 384.747 186.069 391.42 189.316 398.188C189.74 399.072 190.163 399.957 190.599 400.868C192.395 404.526 194.203 408.057 196.519 411.415C198.952 415.042 199.032 416.684 198.253 421.001C196.498 423.936 194.621 426.699 192.589 429.45C192.149 430.292 191.708 431.133 191.253 432.001C192.525 435.808 195.236 438.212 198.043 440.985C198.506 441.446 198.969 441.906 199.446 442.38C200.919 443.842 202.399 445.296 203.878 446.751C204.882 447.744 205.884 448.737 206.886 449.731C209.337 452.16 211.793 454.582 214.253 457.001C218.316 455.427 221.554 453.539 225.093 451.024C228.133 449.584 229.899 449.552 233.253 450.001C236.188 451.308 238.886 452.959 241.628 454.626C253.365 461.44 265.255 465.794 278.46 468.848C281.253 470.001 281.253 470.001 284.253 475.001C285.243 479.291 286.233 483.581 287.253 488.001C298.473 488.001 309.693 488.001 321.253 488.001C323.233 480.081 323.233 480.081 325.253 472.001C330.853 468.641 330.853 468.641 334.378 467.747C335.158 467.537 335.937 467.327 336.74 467.111C337.569 466.889 338.399 466.667 339.253 466.438C351.445 462.995 363.364 457.898 374.148 451.204C376.253 450.001 376.253 450.001 379.503 449.938C384.476 451.347 388.134 453.946 392.253 457.001C396.019 455.438 398.39 453.094 401.238 450.212C401.698 449.748 402.159 449.285 402.633 448.808C404.095 447.335 405.549 445.856 407.003 444.376C407.996 443.373 408.99 442.37 409.984 441.368C412.412 438.917 414.835 436.461 417.253 434.001C415.676 429.916 413.78 426.76 411.179 423.259C409.746 419.763 410.333 417.66 411.253 414.001C412.819 410.562 414.655 407.294 416.503 404.001C421.682 394.458 425.497 385.326 428.035 374.743C428.39 373.262 428.39 373.262 428.753 371.751C428.929 370.9 429.104 370.049 429.285 369.173C430.253 367.001 430.253 367.001 435.253 364.001C439.543 363.011 443.833 362.021 448.253 361.001C448.253 349.781 448.253 338.561 448.253 327.001C443.303 325.681 438.353 324.361 433.253 323.001C430.406 320.153 429.875 319.58 428.964 316.001C428.75 315.205 428.535 314.409 428.314 313.59C428.088 312.735 427.861 311.881 427.628 311.001C425.546 303.609 423.012 296.678 419.691 289.751C419.327 288.99 418.964 288.23 418.589 287.446C416.757 283.728 414.791 280.268 412.476 276.829C410.302 273.392 409.472 271.133 410.253 267.001C411.936 264.005 413.891 261.358 415.918 258.587C416.358 257.733 416.799 256.88 417.253 256.001C415.983 252.193 413.271 249.789 410.464 247.016C410.001 246.556 409.538 246.095 409.06 245.621C407.588 244.159 406.108 242.705 404.628 241.251C403.625 240.258 402.623 239.264 401.621 238.27C399.17 235.842 396.713 233.42 394.253 231.001C390.18 232.572 387.076 234.451 383.609 237.075C380.049 238.474 376.859 237.94 373.253 237.001C369.937 235.364 369.937 235.364 366.691 233.313C358.162 228.162 349.256 224.337 339.632 221.696C338.861 221.484 338.09 221.271 337.296 221.052C335.802 220.652 334.303 220.271 332.799 219.912C327.564 218.54 327.277 218.04 324.253 213.001C323.263 208.711 322.273 204.421 321.253 200.001C310.033 200.001 298.813 200.001 287.253 200.001Z" fill="white"/>
<path d="M365.891 258.832C389.24 276.691 403.941 300.844 408.254 330C409.184 345.583 409.11 361.065 404.254 376C403.941 376.97 403.941 376.97 403.621 377.96C398.351 393.633 389.79 406.326 378.254 418C377.611 418.716 376.968 419.431 376.305 420.168C361.524 436.232 336.938 447.001 315.241 448.161C280.676 448.619 253.996 441.37 228.754 416.938C208.993 397.144 199.762 370.485 199.211 342.818C199.323 315.008 210.94 289.546 230.254 270C230.898 269.285 231.541 268.569 232.204 267.832C265.929 231.18 327.002 231.812 365.891 258.832ZM245.254 279C244.123 279.994 244.123 279.994 242.969 281.008C225.785 296.984 217.41 319.948 216.254 343C216.047 364.405 223.943 386.021 238.254 402C240.392 403.767 240.392 403.767 242.254 405C242.51 404.477 242.766 403.954 243.03 403.415C252.713 383.806 263.324 371.068 284.254 363C290.765 360.975 296.771 360.665 303.567 360.688C304.536 360.672 305.504 360.655 306.502 360.639C316.526 360.632 325.415 363.09 334.317 367.625C334.998 367.971 335.679 368.318 336.381 368.674C351.606 376.737 359.138 389.989 366.254 405C380.816 394.296 388.09 374.164 391.254 357C394.742 333.871 388.323 311.138 375.208 292.016C373.313 289.575 371.341 287.278 369.254 285C368.592 284.246 367.929 283.492 367.247 282.715C351.97 266.283 329.098 257.001 306.883 255.965C284.019 256.186 262.272 263.408 245.254 279ZM267.333 393.449C261.465 400.652 258.428 408.857 257.254 418C278.059 430.532 301.038 434.89 325.079 429.606C334.548 427.178 342.912 423.025 351.254 418C349.48 404.174 343.11 393.716 332.254 385C328.384 382.619 324.475 380.676 320.254 379C319.335 378.628 318.416 378.255 317.469 377.871C298.566 372.749 280.506 379.746 267.333 393.449Z" fill="white"/>
<path d="M326.672 277.507C336.559 284.628 341.997 293.472 344.785 305.241C346.453 315.589 343.954 326.297 338.254 334.999C331.824 343.82 323.95 349.529 313.254 351.999C300.884 353.312 289.808 352.233 279.504 344.812C271.419 337.999 265.191 329.694 264.031 318.928C263.135 306.017 264.701 295.249 273.281 285.066C287.222 270.463 309.159 266.586 326.672 277.507ZM285.309 297.132C280.494 303.918 279.899 310.909 281.254 318.999C283.744 326.181 288.089 330.427 294.738 333.941C301.072 336.606 306.881 336.454 313.254 333.999C319.262 331.392 323.052 327.699 326.176 321.941C328.579 315.385 328.53 308.679 326.246 302.093C322.859 295.666 318.137 291.386 311.254 288.999C300.737 287.238 292.553 289.189 285.309 297.132Z" fill="white"/>
</svg>
