<svg width="512" height="512" viewBox="0 0 512 512" fill="none" xmlns="http://www.w3.org/2000/svg">
<path d="M119.753 51.0968C120.336 51.0648 120.919 51.0329 121.52 51C125.445 51.9082 127.981 54.8323 130.094 58.095C130.7 59.104 131.298 60.1177 131.889 61.1353C135.47 67.1004 139.334 72.8271 143.334 78.519C143.762 79.1338 144.19 79.7487 144.631 80.3821C145.015 80.9284 145.399 81.4748 145.795 82.0377C146.622 83.4099 146.622 83.4099 146.622 85.0081C147.343 85.1647 148.064 85.3212 148.807 85.4826C156.605 87.2244 164.303 89.2837 171.993 91.4507C172.973 91.7227 173.952 91.9946 174.961 92.2748C175.889 92.5395 176.818 92.8043 177.774 93.077C178.604 93.3119 179.434 93.5469 180.289 93.7889C183.154 94.7993 185.731 95.9073 187.625 98.3429C188.445 101.1 188.557 103.751 188.175 106.583C186.792 109.031 186.792 109.031 184.829 111.378C184.477 111.809 184.125 112.24 183.762 112.683C182.994 113.62 182.22 114.551 181.439 115.478C179.645 117.613 177.895 119.782 176.141 121.949C175.266 123.027 174.388 124.103 173.507 125.176C172.676 126.189 171.852 127.206 171.035 128.229C170.192 129.269 169.322 130.287 168.43 131.285C164.85 135.508 164.366 138.597 164.652 144.041C164.679 145.16 164.679 145.16 164.707 146.302C164.776 148.78 164.884 151.254 165.001 153.73C165.128 156.549 165.254 159.368 165.376 162.188C165.458 164.012 165.551 165.836 165.655 167.659C165.697 168.494 165.739 169.329 165.782 170.189C165.823 170.927 165.865 171.664 165.908 172.424C165.746 175.561 164.727 177.775 162.904 180.299C160.281 182.232 157.798 182.571 154.613 182.497C151.876 181.833 149.346 180.783 146.753 179.694C145.245 179.097 143.736 178.501 142.227 177.905C139.876 176.958 137.528 176.003 135.184 175.037C132.905 174.105 130.616 173.202 128.324 172.302C127.634 172.008 126.944 171.713 126.232 171.41C120.856 169.323 117.519 169.948 112.261 172.109C111.731 172.304 111.201 172.499 110.655 172.7C109.18 173.244 107.719 173.828 106.259 174.412C105.181 174.838 104.104 175.264 103.027 175.689C101.369 176.348 99.712 177.009 98.0562 177.672C96.4308 178.322 94.8025 178.965 93.1737 179.606C92.2161 179.989 91.2584 180.371 90.2718 180.765C86.1576 182.144 83.0955 182.857 78.8994 181.598C76.0364 179.946 75.3006 179.036 73.9051 176.104C73.6429 173.857 73.6429 173.857 73.7053 171.31C73.7259 170.328 73.7465 169.346 73.7677 168.335C73.8863 165.137 74.0393 161.941 74.1985 158.744C74.2695 157.294 74.336 155.844 74.3983 154.393C74.5382 151.167 74.7045 147.971 75.0662 144.762C75.4689 139.639 75.3192 136.317 72.0041 132.196C70.4444 130.439 68.8181 128.758 67.1686 127.086C65.0493 124.848 63.1944 122.411 61.3194 119.968C59.3744 117.441 57.447 114.938 55.3294 112.552C52.0662 108.822 50.9157 106.271 51.0218 101.277C51.7278 98.6609 52.8101 97.3067 54.7269 95.3962C56.9931 94.3568 56.9931 94.3568 59.8211 93.5484C60.3501 93.3888 60.879 93.2293 61.424 93.0649C65.4024 91.8966 69.4193 90.9558 73.4618 90.0367C75.0706 89.6545 76.6784 89.2685 78.2859 88.8808C79.3493 88.6323 80.4159 88.3967 81.4852 88.1749C87.315 86.9641 91.4518 85.8178 95.0747 80.9003C96.0349 79.3554 96.9701 77.7945 97.8777 76.2181C98.7808 74.8467 99.6899 73.4793 100.606 72.1165C101.464 70.7884 102.319 69.4587 103.172 68.1273C104.449 66.1433 105.728 64.16 107.012 62.1802C107.864 60.8594 108.706 59.5319 109.539 58.1988C110.154 57.2327 110.154 57.2327 110.782 56.2471C111.325 55.3805 111.325 55.3805 111.879 54.4964C114.02 51.8659 116.449 51.1953 119.753 51.0968ZM119.453 76.2181C118.395 77.7333 117.375 79.2748 116.369 80.8254C115.735 81.7942 115.1 82.7629 114.465 83.7314C113.465 85.264 112.466 86.7978 111.472 88.3344C110.513 89.8141 109.546 91.2882 108.578 92.7617C108.287 93.2172 107.995 93.6726 107.695 94.1419C104.379 99.1625 101.231 101.222 95.4399 102.7C94.9134 102.838 94.387 102.975 93.8446 103.117C92.178 103.549 90.5083 103.968 88.838 104.386C87.7011 104.678 86.5644 104.972 85.4279 105.266C82.655 105.982 79.8792 106.686 77.1014 107.383C77.1014 110.865 77.2816 111.187 79.4082 113.666C80.1382 114.532 80.1382 114.532 80.883 115.416C81.3986 116.012 81.9142 116.607 82.4453 117.221C84.4079 119.523 86.3534 121.838 88.2887 124.163C88.6941 124.625 89.0996 125.087 89.5173 125.563C94.8971 132.17 93.0912 141.453 92.7336 149.435C92.6919 150.466 92.6502 151.497 92.6072 152.559C92.5045 155.081 92.3967 157.602 92.2841 160.122C94.03 159.514 95.7758 158.905 97.5213 158.295C98.9952 157.78 100.469 157.267 101.944 156.754C106.384 155.206 110.791 153.603 115.149 151.835C119.945 150.571 123.899 151.54 128.44 153.255C129.226 153.548 129.226 153.548 130.028 153.846C131.684 154.465 133.335 155.096 134.985 155.727C136.115 156.152 137.244 156.575 138.374 156.998C141.127 158.03 143.876 159.073 146.622 160.122C146.597 159.289 146.572 158.455 146.546 157.596C146.459 154.473 146.404 151.35 146.359 148.227C146.335 146.881 146.302 145.534 146.26 144.188C145.836 130.149 145.836 130.149 151.417 124.163C152.315 123.037 153.21 121.908 154.101 120.777C155.001 119.689 155.904 118.604 156.811 117.521C157.725 116.428 158.636 115.332 159.545 114.234C159.941 113.761 160.338 113.288 160.746 112.8C161.843 111.326 162.632 109.846 163.403 108.182C162.118 107.775 160.832 107.369 159.546 106.964C158.409 106.607 157.273 106.248 156.137 105.887C153.067 104.922 149.994 104.004 146.884 103.172C146.281 103.007 145.677 102.841 145.055 102.671C143.895 102.357 142.733 102.052 141.567 101.76C134.889 99.9248 132.12 95.0905 128.643 89.5529C128.275 88.9766 127.907 88.4003 127.528 87.8065C126.038 85.4659 124.559 83.1198 123.111 80.7524C122.753 80.1677 122.395 79.583 122.025 78.9806C121.542 78.1846 121.542 78.1846 121.05 77.3725C120.787 76.9915 120.523 76.6106 120.252 76.2181C119.989 76.2181 119.725 76.2181 119.453 76.2181Z" fill="white"/>
<path d="M122.65 190.488C126.98 192.795 128.973 195.57 131.44 199.628C131.827 200.215 132.215 200.802 132.615 201.407C134.772 204.704 136.552 207.913 138.054 211.558C141.123 218.208 144.306 223.009 151.286 225.662C157.495 227.752 163.832 229.312 170.223 230.732C170.994 230.904 171.765 231.076 172.56 231.253C174.024 231.57 175.492 231.871 176.963 232.153C181.5 233.092 184.095 234.324 187.376 237.634C188.641 240.165 188.689 242.888 188.175 245.625C185.911 249.477 183.068 252.873 180.234 256.313C178.933 257.901 177.639 259.489 176.371 261.104C174.94 262.793 173.498 264.278 171.911 265.811C166.751 271.046 163.619 275.275 163.526 282.824C163.689 286.977 164.062 291.087 164.502 295.219C164.725 297.753 164.932 300.288 165.127 302.825C165.252 304.39 165.396 305.954 165.562 307.516C165.991 312.158 165.714 315.05 163.403 319.141C160.291 321.822 157.821 321.815 153.814 321.539C151.259 320.849 148.822 319.91 146.36 318.945C145.664 318.681 144.968 318.416 144.251 318.144C142.042 317.303 139.837 316.45 137.632 315.595C136.139 315.024 134.645 314.453 133.15 313.883C129.868 312.631 126.59 311.371 123.315 310.103C120.333 308.981 119.139 308.66 116.189 309.836C115.535 310.092 114.882 310.348 114.208 310.612C113.504 310.896 112.8 311.18 112.074 311.472C110.578 312.057 109.082 312.643 107.585 313.228C105.229 314.16 102.875 315.095 100.521 316.032C98.2486 316.934 95.9721 317.824 93.6951 318.714C92.9973 318.996 92.2996 319.278 91.5807 319.569C86.9674 321.366 82.8822 322.655 78.1003 320.59C75.4201 318.431 74.0459 316.352 73.6429 312.898C73.6635 312.058 73.6841 311.217 73.7054 310.351C73.726 309.371 73.7466 308.39 73.7678 307.38C73.8869 304.167 74.0395 300.956 74.1985 297.746C74.2695 296.29 74.3361 294.833 74.3983 293.377C74.5349 290.232 74.7086 287.139 75.0663 284.01C75.5535 278.311 74.5499 274.93 70.9585 270.497C69.7443 269.078 68.5066 267.685 67.2514 266.302C64.8743 263.638 62.6614 260.84 60.4205 258.061C59.9933 257.541 59.5662 257.022 59.1261 256.487C57.9123 255.007 56.7144 253.518 55.5261 252.018C55.1381 251.531 54.7502 251.043 54.3505 250.541C52.2647 247.799 50.9752 245.815 51.0312 242.329C51.0209 241.684 51.0106 241.039 51 240.375C51.7846 237.504 53.2442 236.303 55.5261 234.438C57.8703 233.399 57.8703 233.399 60.6702 232.59C61.1985 232.425 61.7267 232.261 62.2709 232.091C66.1825 230.913 70.1031 230.085 74.1174 229.331C87.3042 226.992 87.3042 226.992 97.1721 218.62C98.7784 215.872 100.227 213.078 101.595 210.204C103.408 206.608 105.695 203.345 107.966 200.027C108.564 199.122 108.564 199.122 109.173 198.198C109.543 197.639 109.913 197.079 110.295 196.503C110.779 195.771 110.779 195.771 111.274 195.023C114.419 190.76 117.354 190.039 122.65 190.488ZM119.453 216.059C118.52 217.214 117.63 218.404 116.756 219.605C116.178 220.396 115.601 221.187 115.005 222.002C113.558 224.06 112.259 226.172 110.991 228.345C110.63 228.947 110.27 229.549 109.898 230.17C109.193 231.356 108.507 232.555 107.845 233.767C104.768 238.881 101.083 240.095 95.4805 241.63C94.629 241.882 93.7774 242.133 92.9001 242.393C90.2544 243.165 87.6012 243.901 84.9425 244.626C84.0294 244.879 83.1162 245.131 82.1754 245.391C79.9522 246.005 77.7282 246.616 75.5033 247.223C77.9082 250.497 80.3513 253.721 82.9542 256.841C83.3966 257.372 83.839 257.903 84.2948 258.45C85.1982 259.529 86.1055 260.605 87.0167 261.677C87.4561 262.207 87.8954 262.737 88.348 263.283C88.7402 263.749 89.1323 264.215 89.5363 264.694C92.5618 269.187 93.4238 273.157 93.1426 278.485C93.1214 279.08 93.1003 279.675 93.0785 280.288C93.009 282.169 92.9216 284.049 92.8335 285.929C92.7829 287.213 92.7335 288.496 92.6853 289.78C92.5652 292.908 92.429 296.036 92.2842 299.164C98.3034 297.441 104.126 295.382 109.959 293.115C117.175 290.382 121.687 290.173 128.892 292.921C129.598 293.179 130.304 293.437 131.032 293.703C135.282 295.268 139.513 296.889 143.682 298.662C145.035 299.258 145.035 299.258 146.622 299.164C146.597 297.895 146.597 297.895 146.571 296.599C146.513 293.445 146.477 290.291 146.447 287.137C146.431 285.774 146.409 284.412 146.381 283.049C146.342 281.085 146.324 279.122 146.31 277.158C146.294 276.553 146.277 275.949 146.26 275.326C146.258 271.162 147.148 268.945 149.819 265.602C150.236 265.056 150.654 264.51 151.084 263.948C151.482 263.463 151.881 262.978 152.291 262.478C152.735 261.934 153.179 261.391 153.636 260.831C154.09 260.28 154.545 259.728 155.013 259.16C156.349 257.528 157.686 255.895 159.021 254.262C160.049 253.009 161.088 251.765 162.13 250.523C163.563 248.962 163.563 248.962 163.403 247.223C162.649 247.022 161.896 246.821 161.119 246.614C158.309 245.861 155.503 245.096 152.697 244.326C151.486 243.996 150.273 243.669 149.059 243.345C147.308 242.878 145.562 242.399 143.816 241.917C143.277 241.776 142.739 241.635 142.184 241.49C137.195 240.089 134.166 237.795 131.489 233.399C131.088 232.749 130.686 232.1 130.272 231.43C129.866 230.758 129.46 230.086 129.042 229.394C126.251 224.836 123.477 220.326 120.252 216.059C119.989 216.059 119.725 216.059 119.453 216.059Z" fill="white"/>
<path d="M121.101 329.529C121.857 329.603 121.857 329.603 122.628 329.679C126.688 331.306 129.154 335.462 131.436 339.006C131.721 339.444 132.005 339.883 132.299 340.335C133.199 341.724 134.092 343.118 134.985 344.512C135.875 345.89 136.765 347.267 137.656 348.644C138.514 349.971 139.368 351.3 140.223 352.63C142.042 355.43 143.913 358.19 145.814 360.935C146.622 362.292 146.622 362.292 146.622 363.89C147.101 363.965 147.58 364.04 148.073 364.117C154.516 365.2 160.78 366.794 167.078 368.506C168.855 368.987 170.636 369.454 172.416 369.921C173.563 370.23 174.709 370.54 175.854 370.851C176.641 371.055 176.641 371.055 177.444 371.262C182.016 372.532 185.513 374.28 188.175 378.274C189.004 384.287 186.867 387.121 183.38 391.858C181.616 394.117 179.784 396.31 177.936 398.501C176.955 399.701 175.974 400.902 174.993 402.103C173.351 404.095 171.684 406 169.868 407.834C164.751 413.429 164.344 418.09 164.572 425.36C164.691 427.779 164.845 430.195 165.001 432.612C165.153 435.415 165.292 438.219 165.42 441.024C165.505 442.84 165.607 444.656 165.725 446.471C166.013 451.87 165.785 455.435 162.105 459.681C158.041 461.606 153.481 460.911 149.34 459.467C148.052 458.966 146.768 458.453 145.489 457.93C144.801 457.662 144.113 457.394 143.405 457.118C141.226 456.269 139.054 455.405 136.883 454.537C134.013 453.39 131.138 452.26 128.259 451.137C127.607 450.871 126.955 450.605 126.283 450.33C119.9 447.844 115.694 449.461 109.574 451.918C108.275 452.426 106.976 452.933 105.677 453.44C103.65 454.236 101.624 455.036 99.6018 455.844C97.6359 456.627 95.6646 457.395 93.6919 458.161C93.0974 458.403 92.5028 458.645 91.8902 458.895C87.8086 460.464 83.8745 461.306 79.4987 460.58C76.6477 459.028 74.9488 457.318 73.9051 454.187C73.6009 448.694 73.9131 443.169 74.1954 437.68C74.2687 436.224 74.3352 434.767 74.3952 433.311C74.5292 430.091 74.6901 426.919 75.1225 423.725C75.666 418.018 74.9008 414.684 71.4318 410.219C69.5889 408.03 67.6786 405.913 65.7344 403.813C63.531 401.379 61.5291 398.799 59.5215 396.203C59.1766 395.766 58.8318 395.329 58.4764 394.878C57.4818 393.613 56.5021 392.338 55.5261 391.059C55.1569 390.585 54.7878 390.112 54.4074 389.624C50.9714 385.068 50.9714 385.068 51.0312 381.82C51.0209 381.258 51.0106 380.697 51 380.118C51.8092 377.305 53.3382 375.356 55.5261 373.479C58.0398 372.299 60.6318 371.641 63.3203 370.97C64.4445 370.666 64.4445 370.666 65.5914 370.357C67.9757 369.716 70.3655 369.1 72.7564 368.485C75.1488 367.854 77.5398 367.218 79.9301 366.579C81.4147 366.184 82.9008 365.794 84.3884 365.41C85.0632 365.234 85.738 365.057 86.4332 364.876C87.0245 364.723 87.6158 364.571 88.2249 364.414C91.5297 363.372 93.3346 362.335 95.1278 359.348C95.497 358.746 95.8661 358.143 96.2464 357.522C96.6365 356.871 97.0265 356.22 97.4283 355.55C98.2763 354.176 99.1264 352.804 99.9785 351.432C100.418 350.723 100.858 350.013 101.312 349.282C103.54 345.723 105.833 342.21 108.166 338.719C108.584 338.075 109.001 337.43 109.432 336.767C112.304 332.504 115.448 328.786 121.101 329.529ZM119.453 355.1C118.373 356.679 117.334 358.269 116.307 359.882C115.651 360.888 114.995 361.893 114.337 362.897C113.301 364.484 112.27 366.073 111.256 367.674C104.114 378.913 104.114 378.913 97.0787 380.671C96.2504 380.916 95.4221 381.162 94.5687 381.415C91.8037 382.215 89.0282 382.949 86.2411 383.668C85.2826 383.92 84.3241 384.172 83.3366 384.432C80.9932 385.048 78.6485 385.659 76.3024 386.265C77.629 389.864 79.5181 392.365 82.0458 395.204C84.7668 398.361 87.4796 401.513 89.9868 404.843C90.4174 405.408 90.8479 405.972 91.2915 406.554C94.2784 412.828 93.0333 420.735 92.7337 427.468C92.6919 428.502 92.6502 429.537 92.6072 430.603C92.5044 433.137 92.3966 435.671 92.2842 438.205C95.5711 437.746 98.4167 437.001 101.489 435.755C102.307 435.433 103.124 435.111 103.966 434.78C105.66 434.103 107.352 433.42 109.042 432.732C119.068 428.811 124.665 430.278 134.586 434.21C136.524 434.961 138.462 435.71 140.401 436.457C141.251 436.792 142.101 437.127 142.976 437.472C144.912 438.295 144.912 438.295 146.622 438.205C146.589 437.38 146.555 436.555 146.521 435.704C146.404 432.602 146.331 429.501 146.271 426.398C146.239 425.062 146.196 423.727 146.14 422.392C145.817 414.448 145.787 408.807 151.253 402.511C151.834 401.897 152.416 401.282 153.015 400.648C153.988 399.455 154.954 398.255 155.912 397.049C157.276 395.401 158.648 393.759 160.023 392.119C160.462 391.587 160.902 391.055 161.355 390.507C161.75 390.035 162.144 389.564 162.551 389.078C163.556 387.892 163.556 387.892 163.403 386.265C162.702 386.088 162.001 385.911 161.279 385.728C158.658 385.063 156.041 384.389 153.424 383.709C152.295 383.417 151.165 383.129 150.034 382.844C148.401 382.432 146.772 382.008 145.143 381.582C143.674 381.206 143.674 381.206 142.175 380.822C136.923 379.004 133.969 376.271 131.049 371.644C130.739 371.169 130.428 370.695 130.108 370.206C129.128 368.706 128.161 367.198 127.194 365.688C126.211 364.169 125.226 362.651 124.238 361.136C123.349 359.77 122.468 358.4 121.587 357.03C121.147 356.393 120.706 355.756 120.252 355.1C119.989 355.1 119.725 355.1 119.453 355.1Z" fill="white"/>
<path d="M221.737 417.429C300.583 417.429 379.429 417.429 460.664 417.429C460.664 423.231 460.664 429.032 460.664 435.009C381.818 435.009 302.972 435.009 221.737 435.009C221.737 429.208 221.737 423.406 221.737 417.429Z" fill="white"/>
<path d="M221.737 272.794C300.583 272.794 379.429 272.794 460.664 272.794C460.664 278.595 460.664 284.397 460.664 290.374C381.818 290.374 302.972 290.374 221.737 290.374C221.737 284.573 221.737 278.771 221.737 272.794Z" fill="white"/>
<path d="M221.737 136.15C300.583 136.15 379.429 136.15 460.664 136.15C460.664 141.951 460.664 147.753 460.664 153.73C381.818 153.73 302.972 153.73 221.737 153.73C221.737 147.928 221.737 142.127 221.737 136.15Z" fill="white"/>
<path d="M221.737 229.643C269.73 229.643 317.723 229.643 367.171 229.643C367.171 235.708 367.171 241.773 367.171 248.022C319.177 248.022 271.184 248.022 221.737 248.022C221.737 241.957 221.737 235.892 221.737 229.643Z" fill="white"/>
<path d="M221.737 375.077C269.73 375.077 317.723 375.077 367.171 375.077C367.171 380.879 367.171 386.68 367.171 392.657C319.177 392.657 271.184 392.657 221.737 392.657C221.737 386.856 221.737 381.054 221.737 375.077Z" fill="white"/>
<path d="M221.737 93.7979C269.73 93.7979 317.723 93.7979 367.171 93.7979C367.171 99.5992 367.171 105.401 367.171 111.378C319.177 111.378 271.184 111.378 221.737 111.378C221.737 105.576 221.737 99.775 221.737 93.7979Z" fill="white"/>
</svg>
