<svg width="70" height="70" viewBox="0 0 70 70" fill="none" xmlns="http://www.w3.org/2000/svg">
<circle cx="35" cy="35" r="35" fill="#FFE8AF"/>
<path d="M49.7851 39.0758C50.0394 39.2831 50.2828 39.5005 50.5249 39.7219C50.6182 39.8056 50.6182 39.8056 50.7134 39.891C51.5951 40.7227 52.2156 41.7359 52.7045 42.8356C52.7608 42.9601 52.7608 42.9601 52.8182 43.0871C53.6067 44.9724 53.7042 47.345 53.0937 49.2965C53.0693 49.3763 53.0693 49.3763 53.0444 49.4577C52.3234 51.7418 50.6972 53.7354 48.5722 54.8506C48.318 54.9782 48.0602 55.0967 47.8004 55.2124C47.7184 55.25 47.6363 55.2875 47.5517 55.3262C45.7617 56.0815 43.5179 56.205 41.6509 55.6795C41.5553 55.653 41.4597 55.6265 41.3612 55.5992C38.9157 54.8507 36.9795 53.1907 35.7392 50.9716C35.0141 49.5826 34.6739 48.1524 34.689 46.5915C34.6892 46.5373 34.6895 46.4831 34.6898 46.4272C34.7081 44.0106 35.5874 41.8899 37.2139 40.1111C37.2697 40.0489 37.3255 39.9867 37.383 39.9226C38.2151 39.0405 39.228 38.4215 40.3276 37.9316C40.4097 37.894 40.4918 37.8565 40.5763 37.8178C43.5335 36.5699 47.2694 37.093 49.7851 39.0758ZM38.6929 40.5003C38.6268 40.552 38.5607 40.6037 38.4926 40.6569C37.3119 41.6246 36.5635 43.1693 36.202 44.6259C36.1803 44.7111 36.1803 44.7111 36.1583 44.798C35.8519 46.1366 35.9223 47.6833 36.3577 48.9851C36.3877 49.0756 36.4177 49.1661 36.4486 49.2594C36.7908 50.2095 37.2884 50.9992 37.9145 51.7874C37.9567 51.8426 37.9988 51.8978 38.0422 51.9546C39.2922 53.5013 41.3225 54.3709 43.2497 54.6262C45.4028 54.8291 47.5191 54.1503 49.2016 52.7993C49.0838 52.5216 48.921 52.345 48.7072 52.134C48.6409 52.0683 48.5747 52.0026 48.5065 51.9349C48.4372 51.8669 48.368 51.799 48.2967 51.729C48.2268 51.6599 48.157 51.5907 48.085 51.5195C47.9127 51.349 47.74 51.1788 47.5669 51.009C47.4973 51.0503 47.4276 51.0917 47.3559 51.1343C45.8364 52.0263 44.2617 52.4028 42.5023 51.982C41.0199 51.5061 39.8526 50.5851 39.1043 49.2061C38.9815 48.9541 38.8728 48.7013 38.7708 48.4402C38.7442 48.3722 38.7176 48.3041 38.6902 48.234C38.2475 46.8296 38.4681 45.1702 39.1211 43.8767C39.8083 42.6108 40.9803 41.6453 42.3626 41.2285C42.7203 41.1303 43.079 41.0493 43.4413 40.9674C43.4413 40.1711 43.4413 39.3747 43.4413 38.5543C41.6772 38.5543 40.0171 39.3873 38.6929 40.5003ZM44.6868 38.5543C44.6868 39.3506 44.6868 40.1469 44.6868 40.9674C45.0167 41.0444 45.0167 41.0444 45.3533 41.1231C46.8734 41.5106 48.0651 42.3357 48.8902 43.6918C49.2941 44.4178 49.4869 45.1454 49.6686 45.9493C50.465 45.9493 51.2613 45.9493 52.0817 45.9493C52.0303 45.3321 51.9833 44.8266 51.8044 44.2513C51.7839 44.1848 51.7634 44.1182 51.7423 44.0496C51.4134 43.0292 50.8844 42.1876 50.2135 41.3566C50.1746 41.3057 50.1357 41.2548 50.0956 41.2024C49.1661 40.0352 47.6879 39.2393 46.2874 38.8073C46.2354 38.7908 46.1835 38.7744 46.1299 38.7575C45.634 38.6126 45.2289 38.5995 44.6868 38.5543ZM41.4174 43.147C41.368 43.1811 41.3187 43.2152 41.2678 43.2503C40.4726 43.8558 39.9957 44.8394 39.7827 45.7936C39.6723 47.0934 39.8594 48.1493 40.639 49.2186C40.6731 49.268 40.7072 49.3174 40.7424 49.3682C41.3325 50.1432 42.3361 50.6931 43.2856 50.8533C44.577 50.9937 45.6509 50.7696 46.7106 49.997C46.76 49.9629 46.8094 49.9288 46.8603 49.8937C47.6554 49.2882 48.1323 48.3046 48.3453 47.3504C48.4557 46.0506 48.2686 44.9947 47.4891 43.9254C47.455 43.876 47.4208 43.8266 47.3857 43.7758C46.7802 42.9806 45.7966 42.5037 44.8424 42.2907C43.5427 42.1803 42.4867 42.3674 41.4174 43.147ZM49.6686 47.1947C49.6173 47.4147 49.5659 47.6346 49.513 47.8612C49.3086 48.6797 48.968 49.3744 48.501 50.0749C49.0405 50.6143 49.5799 51.1538 50.1357 51.7096C50.4743 51.5403 50.5963 51.3713 50.7876 51.0625C50.8181 51.0139 50.8487 50.9653 50.8801 50.9152C51.5626 49.8056 52.0817 48.5109 52.0817 47.1947C51.2854 47.1947 50.4891 47.1947 49.6686 47.1947Z" fill="black"/>
<path d="M18.4604 21.0201C18.5143 21.0198 18.5683 21.0195 18.6238 21.0192C18.8045 21.0185 18.9851 21.0189 19.1658 21.0193C19.2966 21.019 19.4275 21.0186 19.5583 21.0182C19.9179 21.0172 20.2774 21.0173 20.637 21.0174C21.0247 21.0175 21.4125 21.0166 21.8003 21.0159C22.5601 21.0146 23.3198 21.0142 24.0796 21.0141C24.6972 21.014 25.3147 21.0137 25.9323 21.0132C27.6831 21.0118 29.4339 21.0111 31.1846 21.0112C31.3262 21.0112 31.3262 21.0112 31.4707 21.0112C31.5652 21.0112 31.6597 21.0112 31.7571 21.0112C33.2888 21.0113 34.8205 21.0098 36.3522 21.0076C37.9248 21.0054 39.4974 21.0043 41.07 21.0045C41.9529 21.0045 42.8359 21.0041 43.7188 21.0024C44.4706 21.001 45.2224 21.0006 45.9742 21.0017C46.3577 21.0022 46.7412 21.0022 47.1247 21.0009C47.476 20.9996 47.8272 20.9999 48.1785 21.0012C48.3054 21.0015 48.4323 21.0012 48.5592 21.0003C49.441 20.9947 50.2022 21.0597 50.8727 21.6859C51.3636 22.2319 51.5607 22.8041 51.5576 23.5357C51.558 23.5975 51.5583 23.6593 51.5587 23.7231C51.5597 23.9296 51.5595 24.1361 51.5594 24.3426C51.5599 24.491 51.5604 24.6393 51.561 24.7876C51.5624 25.19 51.5627 25.5924 51.5628 25.9948C51.563 26.3306 51.5635 26.6665 51.5641 27.0023C51.5654 27.7943 51.5657 28.5864 51.5656 29.3784C51.5655 30.196 51.5672 31.0135 51.5696 31.8311C51.5717 32.5329 51.5725 33.2347 51.5724 33.9365C51.5724 34.3558 51.5728 34.775 51.5745 35.1943C51.576 35.5882 51.576 35.9822 51.5748 36.3761C51.5747 36.5208 51.5751 36.6656 51.576 36.8103C51.5772 37.0076 51.5765 37.2047 51.5753 37.402C51.5761 37.4595 51.5769 37.5171 51.5777 37.5763C51.5741 37.8437 51.5562 37.9845 51.3902 38.1987C51.1923 38.3455 51.0833 38.3929 50.8362 38.3988C50.3973 38.2216 50.3973 38.2216 50.2913 38.0096C50.2835 37.821 50.2803 37.6346 50.2806 37.4459C50.2803 37.3872 50.2801 37.3284 50.2799 37.2679C50.2793 37.0699 50.2791 36.8719 50.279 36.674C50.2787 36.5324 50.2783 36.3909 50.2778 36.2494C50.277 35.944 50.2763 35.6386 50.2758 35.3332C50.275 34.85 50.2734 34.3669 50.2717 33.8837C50.2668 32.5095 50.2626 31.1354 50.2601 29.7612C50.2586 29.0028 50.2564 28.2443 50.2532 27.4858C50.2516 27.0844 50.2504 26.6831 50.2502 26.2817C50.25 25.9038 50.2488 25.5259 50.2467 25.148C50.2462 25.0095 50.246 24.8711 50.2463 24.7327C50.2873 23.6095 50.2873 23.6095 49.8048 22.6407C49.3875 22.4036 48.9788 22.3439 48.5042 22.3436C48.4523 22.3433 48.4003 22.3431 48.3468 22.3428C48.1734 22.3422 48 22.3426 47.8266 22.3431C47.7008 22.3429 47.5749 22.3426 47.4491 22.3422C47.1038 22.3414 46.7585 22.3416 46.4131 22.3419C46.0405 22.3421 45.6679 22.3414 45.2953 22.3408C44.5655 22.3398 43.8357 22.3397 43.1059 22.3399C42.5127 22.34 41.9195 22.3399 41.3263 22.3395C41.2419 22.3395 41.1575 22.3394 41.0706 22.3394C40.8991 22.3393 40.7276 22.3392 40.5561 22.3391C38.9478 22.3383 37.3395 22.3384 35.7312 22.3389C34.2599 22.3393 32.7885 22.3384 31.3172 22.3369C29.8064 22.3354 28.2957 22.3348 26.7849 22.3351C25.9367 22.3352 25.0885 22.335 24.2403 22.3339C23.5183 22.333 22.7962 22.3329 22.0742 22.3338C21.7058 22.3343 21.3374 22.3344 20.9691 22.3335C20.6317 22.3326 20.2944 22.3329 19.957 22.3339C19.8351 22.3342 19.7132 22.334 19.5913 22.3333C18.5422 22.3043 18.5422 22.3043 17.6415 22.7721C17.3422 23.2988 17.3418 23.8038 17.3439 24.3956C17.3436 24.4821 17.3433 24.5685 17.343 24.6576C17.3422 24.9468 17.3425 25.2361 17.3428 25.5254C17.3425 25.7329 17.3421 25.9405 17.3416 26.148C17.3407 26.653 17.3405 27.158 17.3407 27.6631C17.3408 28.0737 17.3407 28.4843 17.3404 28.8949C17.3403 28.9534 17.3403 29.0119 17.3402 29.0721C17.3401 29.1909 17.34 29.3098 17.3399 29.4286C17.3391 30.5424 17.3393 31.6563 17.3397 32.7701C17.3401 33.7884 17.3393 34.8067 17.3378 35.825C17.3363 36.8713 17.3356 37.9177 17.3359 38.964C17.3361 39.5512 17.3359 40.1383 17.3348 40.7254C17.3339 41.2253 17.3337 41.7251 17.3347 42.225C17.3351 42.4798 17.3351 42.7347 17.3343 42.9895C17.3335 43.2662 17.3341 43.5429 17.3351 43.8196C17.3345 43.8996 17.334 43.9795 17.3334 44.0619C17.3375 44.6191 17.3811 45.1699 17.7729 45.5943C18.2133 45.8445 18.6527 45.8945 19.1509 45.8912C19.2109 45.8914 19.2709 45.8917 19.3327 45.8919C19.5325 45.8925 19.7323 45.892 19.9322 45.8915C20.0759 45.8917 20.2197 45.892 20.3634 45.8924C20.6723 45.893 20.9812 45.8932 21.2902 45.893C21.7785 45.8928 22.2668 45.8939 22.7551 45.8952C24.1434 45.8989 25.5318 45.9008 26.9201 45.9013C27.6874 45.9016 28.4546 45.903 29.2219 45.9056C29.7075 45.9071 30.1931 45.9073 30.6787 45.9065C30.9804 45.9063 31.2821 45.9074 31.5838 45.9088C31.7238 45.9092 31.8639 45.9091 32.004 45.9084C32.195 45.9076 32.3858 45.9086 32.5768 45.9101C32.6324 45.9094 32.6881 45.9087 32.7454 45.908C33.0106 45.9121 33.1443 45.9324 33.3561 46.0979C33.4878 46.2747 33.5198 46.3545 33.5164 46.5722C33.5172 46.6236 33.518 46.6749 33.5188 46.7279C33.4567 46.9619 33.3572 47.0467 33.1661 47.1949C32.9519 47.2255 32.7688 47.237 32.5547 47.2345C32.4617 47.2352 32.4617 47.2352 32.3668 47.2359C32.1587 47.2372 31.9507 47.2362 31.7426 47.2352C31.5935 47.2356 31.4444 47.2362 31.2953 47.2369C30.89 47.2383 30.4847 47.2377 30.0793 47.2368C29.655 47.236 29.2307 47.2367 28.8063 47.2372C28.0932 47.2378 27.38 47.237 26.6669 47.2355C25.8434 47.2338 25.0199 47.2344 24.1964 47.2361C23.4891 47.2375 22.7817 47.2377 22.0743 47.2369C21.652 47.2364 21.2297 47.2363 20.8074 47.2374C20.4099 47.2383 20.0124 47.2376 19.6148 47.2358C19.4693 47.2354 19.3238 47.2355 19.1782 47.2362C18.2436 47.2403 17.4272 47.2235 16.705 46.5491C16.1267 45.9058 16.0177 45.2662 16.0201 44.4247C16.0197 44.3333 16.0194 44.2419 16.019 44.1477C16.0182 43.8947 16.0181 43.6417 16.0183 43.3886C16.0183 43.1154 16.0175 42.8423 16.0167 42.5691C16.0154 42.0341 16.015 41.4991 16.0149 40.9642C16.0148 40.5292 16.0145 40.0942 16.014 39.6592C16.0127 38.4253 16.0119 37.1914 16.0121 35.9576C16.0121 35.8911 16.0121 35.8246 16.0121 35.7561C16.0121 35.6895 16.0121 35.6229 16.0121 35.5543C16.0122 34.4756 16.0107 33.397 16.0085 32.3183C16.0062 31.2102 16.0052 30.102 16.0053 28.9938C16.0053 28.3719 16.0049 27.75 16.0032 27.1281C16.0018 26.5985 16.0015 26.069 16.0025 25.5394C16.003 25.2694 16.0031 24.9994 16.0017 24.7294C16.0005 24.4362 16.0012 24.1431 16.0024 23.8498C16.0016 23.7652 16.0008 23.6806 16 23.5933C16.0065 22.8689 16.1839 22.2425 16.6868 21.7042C17.2077 21.2358 17.7587 21.0209 18.4604 21.0201Z" fill="black"/>
<path d="M38.7269 24.2706C39.1789 24.5438 39.5505 24.9706 39.7048 25.4771C39.7227 25.7371 39.7227 25.7371 39.7194 26.0172C39.7189 26.1094 39.7184 26.2016 39.7179 26.2966C39.7048 26.5669 39.7048 26.5669 39.6388 26.8047C39.6019 27.0517 39.6019 27.0517 39.7991 27.2708C39.8799 27.3537 39.9621 27.4352 40.0453 27.5156C40.132 27.6039 40.2185 27.6924 40.3047 27.7811C40.348 27.8251 40.3913 27.8692 40.436 27.9146C40.6807 28.1715 40.8974 28.4503 41.1184 28.7276C41.3859 29.0639 41.3859 29.0639 41.7916 29.1968C42.4427 29.2569 42.4427 29.2569 43.0408 29.0415C43.3106 28.7907 43.5173 28.4942 43.7251 28.1917C43.8877 27.9665 44.076 27.7744 44.2683 27.574C44.5024 27.3281 44.6708 27.1305 44.7645 26.8004C44.7158 26.6437 44.6634 26.4881 44.6088 26.3334C44.556 25.8056 44.6719 25.4005 44.9202 24.9322C45.2133 24.5774 45.5707 24.3003 46.01 24.1538C46.6256 24.1061 47.2203 24.063 47.7225 24.4652C48.2189 24.929 48.4224 25.3217 48.4571 26.0026C48.446 26.5626 48.279 26.9983 47.9004 27.4141C47.6529 27.6383 47.4236 27.7961 47.0998 27.8902C46.9564 27.8797 46.813 27.8688 46.6701 27.8523C46.3362 27.8196 46.0113 27.7935 45.7166 27.9751C45.4489 28.2067 45.2344 28.4809 45.0236 28.764C44.9255 28.8951 44.8234 29.021 44.718 29.1463C44.5487 29.3481 44.3835 29.5523 44.2196 29.7584C44.1158 29.8882 44.012 30.0179 43.9082 30.1476C43.9333 30.2017 43.9584 30.2558 43.9843 30.3115C44.1563 30.798 44.1578 31.4131 43.9472 31.8893C43.6751 32.3463 43.2494 32.7144 42.7406 32.8721C42.1287 32.935 41.5273 32.958 41.0281 32.5607C40.6167 32.1918 40.3337 31.7909 40.2497 31.2374C40.2517 30.9035 40.2882 30.5847 40.388 30.2656C40.4254 30.0613 40.4254 30.0613 40.2926 29.8801C40.2351 29.8142 40.1776 29.7484 40.1183 29.6806C40.0544 29.6066 39.9905 29.5327 39.9246 29.4565C39.649 29.1498 39.3705 28.8456 39.0879 28.5453C38.7795 28.2172 38.7795 28.2172 38.6682 28.021C38.4106 27.7639 38.0218 27.8177 37.6789 27.8167C37.3512 27.8323 37.1724 27.8658 36.8952 28.052C36.6954 28.2732 36.5264 28.5009 36.3576 28.7465C36.2339 28.8999 36.1091 29.0524 35.983 29.2038C35.9295 29.271 35.876 29.3383 35.8209 29.4075C35.657 29.6027 35.657 29.6027 35.4372 29.7931C35.241 29.977 35.241 29.977 35.2809 30.2164C35.3023 30.2964 35.3236 30.3765 35.3456 30.459C35.4318 31.6766 35.4318 31.6766 35.0343 32.1715C34.6603 32.5643 34.3211 32.8414 33.7678 32.8983C33.1049 32.9056 32.6464 32.8813 32.1569 32.4151C31.6601 31.8777 31.5718 31.4553 31.5855 30.7272C31.6396 30.1152 31.9243 29.7935 32.3801 29.4039C32.7223 29.1681 32.9551 29.1251 33.3701 29.1657C33.7727 29.2002 34.0683 29.212 34.4079 28.9758C34.6084 28.7531 34.7831 28.5238 34.9564 28.2794C35.0804 28.1262 35.2052 27.9738 35.3311 27.8221C35.3845 27.7549 35.438 27.6877 35.4931 27.6184C35.657 27.4232 35.657 27.4232 35.8759 27.2392C36.0754 27.0436 36.0754 27.0436 36.0447 26.7624C36.0243 26.6642 36.004 26.566 35.983 26.4647C35.8789 25.8811 35.8907 25.5316 36.1776 25.0003C36.807 24.2178 37.7415 23.8339 38.7269 24.2706ZM37.4182 25.6036C37.2538 25.8439 37.2441 25.9697 37.2917 26.2555C37.4085 26.4502 37.4085 26.4502 37.6031 26.5669C37.8889 26.6146 38.0147 26.6048 38.255 26.4404C38.4194 26.2001 38.4291 26.0743 38.3815 25.7885C38.2647 25.5939 38.2647 25.5939 38.0701 25.4771C37.7843 25.4295 37.6585 25.4392 37.4182 25.6036ZM46.1365 25.6036C45.9721 25.8439 45.9623 25.9697 46.01 26.2555C46.1267 26.4502 46.1267 26.4502 46.3213 26.5669C46.6072 26.6146 46.733 26.6048 46.9733 26.4404C47.1377 26.2001 47.1474 26.0743 47.0998 25.7885C46.983 25.5939 46.983 25.5939 46.7884 25.4771C46.5026 25.4295 46.3768 25.4392 46.1365 25.6036ZM33.059 30.5855C32.8946 30.8258 32.8849 30.9516 32.9326 31.2374C33.0493 31.432 33.0493 31.432 33.2439 31.5488C33.5297 31.5964 33.6556 31.5867 33.8958 31.4223C34.0603 31.182 34.07 31.0562 34.0223 30.7704C33.9056 30.5758 33.9056 30.5758 33.711 30.459C33.4252 30.4114 33.2993 30.4211 33.059 30.5855ZM41.7773 30.5855C41.6129 30.8258 41.6032 30.9516 41.6508 31.2374C41.7676 31.432 41.7676 31.432 41.9622 31.5488C42.248 31.5964 42.3738 31.5867 42.6141 31.4223C42.7785 31.182 42.7883 31.0562 42.7406 30.7704C42.6239 30.5758 42.6239 30.5758 42.4293 30.459C42.1434 30.4114 42.0176 30.4211 41.7773 30.5855Z" fill="black"/>
<path d="M24.7641 33.4546C24.8561 33.4532 24.8561 33.4532 24.9499 33.4517C25.0155 33.4523 25.081 33.4529 25.1485 33.4536C25.2164 33.4533 25.2844 33.453 25.3543 33.4527C25.4978 33.4525 25.6412 33.453 25.7846 33.4543C26.004 33.456 26.2232 33.4543 26.4426 33.4524C26.5821 33.4526 26.7215 33.453 26.861 33.4536C26.9265 33.4529 26.9921 33.4523 27.0596 33.4517C27.1209 33.4526 27.1822 33.4536 27.2454 33.4546C27.3259 33.455 27.3259 33.455 27.408 33.4554C27.6341 33.5136 27.7254 33.6284 27.873 33.8063C27.9121 33.9993 27.9121 33.9993 27.9125 34.2199C27.9134 34.3037 27.9142 34.3875 27.9152 34.4739C27.9145 34.5654 27.9139 34.657 27.9132 34.7513C27.9138 34.8481 27.9143 34.9448 27.9149 35.0445C27.916 35.3095 27.9158 35.5745 27.9148 35.8396C27.914 36.117 27.9147 36.3945 27.9152 36.6719C27.9158 37.1378 27.915 37.6037 27.9135 38.0697C27.9119 38.6082 27.9124 39.1468 27.9141 39.6853C27.9155 40.1478 27.9157 40.6103 27.9149 41.0728C27.9144 41.349 27.9144 41.6252 27.9154 41.9014C27.9165 42.2093 27.915 42.5171 27.9132 42.825C27.9139 42.9166 27.9145 43.0081 27.9152 43.1024C27.9143 43.1863 27.9134 43.2701 27.9125 43.3564C27.9124 43.4292 27.9123 43.502 27.9121 43.577C27.8611 43.8283 27.7578 43.9219 27.5616 44.0814C27.408 44.1209 27.408 44.1209 27.2454 44.1217C27.184 44.1227 27.1227 44.1237 27.0596 44.1247C26.994 44.124 26.9285 44.1234 26.861 44.1228C26.7931 44.1231 26.7251 44.1234 26.6552 44.1237C26.5117 44.1239 26.3683 44.1233 26.2249 44.122C26.0055 44.1203 25.7863 44.122 25.5669 44.124C25.4274 44.1238 25.288 44.1234 25.1485 44.1228C25.083 44.1234 25.0174 44.124 24.9499 44.1247C24.8886 44.1237 24.8273 44.1227 24.7641 44.1217C24.6836 44.1213 24.6836 44.1213 24.6015 44.1209C24.3754 44.0627 24.2841 43.948 24.1365 43.77C24.0974 43.577 24.0974 43.577 24.097 43.3564C24.0961 43.2726 24.0953 43.1888 24.0943 43.1024C24.095 43.0109 24.0956 42.9193 24.0963 42.825C24.0957 42.7283 24.0952 42.6315 24.0946 42.5319C24.0935 42.2668 24.0937 42.0018 24.0947 41.7368C24.0955 41.4593 24.0948 41.1819 24.0943 40.9044C24.0937 40.4385 24.0945 39.9726 24.096 39.5067C24.0976 38.9681 24.0971 38.4296 24.0954 37.891C24.094 37.4285 24.0938 36.966 24.0946 36.5035C24.0951 36.2273 24.0951 35.9511 24.0941 35.6749C24.093 35.3671 24.0945 35.0592 24.0963 34.7513C24.0956 34.6598 24.095 34.5682 24.0943 34.4739C24.0952 34.3901 24.0961 34.3063 24.097 34.2199C24.0971 34.1471 24.0972 34.0743 24.0974 33.9993C24.1703 33.6399 24.4044 33.4563 24.7641 33.4546ZM25.382 34.7404C25.382 37.4119 25.382 40.0835 25.382 42.8359C25.793 42.8359 26.204 42.8359 26.6275 42.8359C26.6275 40.1644 26.6275 37.4929 26.6275 34.7404C26.2165 34.7404 25.8055 34.7404 25.382 34.7404Z" fill="black"/>
<path d="M19.7823 35.9454C19.8743 35.9439 19.8743 35.9439 19.9681 35.9424C20.0337 35.943 20.0992 35.9436 20.1667 35.9443C20.2346 35.944 20.3026 35.9437 20.3725 35.9434C20.516 35.9432 20.6594 35.9438 20.8028 35.9451C21.0222 35.9467 21.2414 35.9451 21.4608 35.9431C21.6003 35.9433 21.7397 35.9437 21.8792 35.9443C21.9447 35.9437 22.0103 35.943 22.0778 35.9424C22.1391 35.9434 22.2004 35.9443 22.2636 35.9454C22.3441 35.9457 22.3441 35.9457 22.4262 35.9461C22.667 36.0081 22.7483 36.0928 22.8912 36.297C22.9372 36.5357 22.9337 36.7709 22.9314 37.0134C22.932 37.0858 22.9325 37.1583 22.9331 37.2329C22.9345 37.4723 22.9336 37.7117 22.9325 37.9512C22.9327 38.1175 22.933 38.2839 22.9334 38.4502C22.9339 38.7989 22.9332 39.1475 22.9317 39.4961C22.93 39.9432 22.931 40.3903 22.9329 40.8374C22.934 41.1809 22.9336 41.5244 22.9328 41.8679C22.9326 42.0328 22.9329 42.1976 22.9336 42.3625C22.9344 42.5928 22.9332 42.8231 22.9314 43.0534C22.9321 43.1217 22.9327 43.19 22.9334 43.2603C22.9292 43.5582 22.9266 43.7191 22.7527 43.9678C22.5686 44.0885 22.4809 44.1205 22.2636 44.1215C22.1716 44.123 22.1716 44.123 22.0778 44.1245C22.0122 44.1238 21.9467 44.1232 21.8792 44.1225C21.8113 44.1228 21.7433 44.1231 21.6734 44.1235C21.5299 44.1237 21.3865 44.1231 21.2431 44.1218C21.0237 44.1201 20.8045 44.1218 20.5851 44.1238C20.4456 44.1236 20.3062 44.1232 20.1667 44.1225C20.0684 44.1235 20.0684 44.1235 19.9681 44.1245C19.8762 44.123 19.8762 44.123 19.7823 44.1215C19.7287 44.1212 19.675 44.121 19.6197 44.1207C19.3789 44.0587 19.2976 43.9741 19.1547 43.7698C19.1087 43.5311 19.1122 43.2959 19.1145 43.0534C19.1139 42.981 19.1134 42.9086 19.1128 42.8339C19.1114 42.5945 19.1123 42.3551 19.1134 42.1157C19.1132 41.9493 19.1129 41.783 19.1125 41.6166C19.112 41.268 19.1127 40.9194 19.1142 40.5707C19.1159 40.1236 19.1149 39.6766 19.113 39.2295C19.1119 38.8859 19.1123 38.5425 19.1131 38.1989C19.1133 38.0341 19.113 37.8692 19.1123 37.7044C19.1115 37.474 19.1127 37.2437 19.1145 37.0134C19.1138 36.9451 19.1132 36.8769 19.1125 36.8065C19.1167 36.5087 19.1193 36.3477 19.2932 36.0991C19.4773 35.9783 19.565 35.9464 19.7823 35.9454ZM20.4002 37.2311C20.4002 39.0806 20.4002 40.9302 20.4002 42.8357C20.8112 42.8357 21.2222 42.8357 21.6457 42.8357C21.6457 40.9862 21.6457 39.1367 21.6457 37.2311C21.2347 37.2311 20.8237 37.2311 20.4002 37.2311Z" fill="black"/>
<path d="M29.7457 37.8135C29.8377 37.812 29.8377 37.812 29.9315 37.8105C29.997 37.8112 30.0626 37.8118 30.1301 37.8125C30.198 37.8122 30.2659 37.8119 30.3359 37.8116C30.4793 37.8113 30.6228 37.8119 30.7662 37.8132C30.9856 37.8149 31.2048 37.8132 31.4242 37.8112C31.5637 37.8114 31.7031 37.8118 31.8426 37.8125C31.9081 37.8118 31.9736 37.8112 32.0411 37.8105C32.1025 37.8115 32.1638 37.8125 32.2269 37.8135C32.3075 37.8139 32.3075 37.8139 32.3896 37.8143C32.6231 37.8744 32.712 37.9724 32.8545 38.1652C32.8941 38.4133 32.8941 38.4133 32.8948 38.7101C32.8954 38.7643 32.8959 38.8185 32.8965 38.8743C32.8978 39.0531 32.8969 39.2318 32.8959 39.4106C32.8961 39.5351 32.8964 39.6596 32.8968 39.784C32.8972 40.0447 32.8966 40.3054 32.8951 40.5661C32.8934 40.9001 32.8944 41.2341 32.8962 41.5681C32.8974 41.8251 32.897 42.082 32.8962 42.339C32.896 42.4621 32.8962 42.5853 32.897 42.7084C32.8978 42.8806 32.8966 43.0527 32.8948 43.2249C32.8944 43.3718 32.8944 43.3718 32.8941 43.5217C32.8545 43.7698 32.8545 43.7698 32.7161 43.957C32.5307 44.0901 32.4513 44.1204 32.2269 44.1214C32.135 44.1229 32.135 44.1229 32.0411 44.1244C31.9756 44.1238 31.9101 44.1232 31.8426 44.1225C31.7747 44.1228 31.7067 44.1231 31.6367 44.1234C31.4933 44.1236 31.3499 44.1231 31.2065 44.1217C30.9871 44.1201 30.7679 44.1217 30.5485 44.1237C30.409 44.1235 30.2695 44.1231 30.1301 44.1225C30.0318 44.1235 30.0318 44.1235 29.9315 44.1244C29.8395 44.1229 29.8395 44.1229 29.7457 44.1214C29.692 44.1212 29.6384 44.1209 29.583 44.1207C29.3496 44.0606 29.2606 43.9625 29.1181 43.7698C29.0786 43.5217 29.0786 43.5217 29.0778 43.2249C29.0773 43.1707 29.0767 43.1165 29.0762 43.0606C29.0748 42.8818 29.0757 42.7031 29.0768 42.5243C29.0766 42.3999 29.0763 42.2754 29.0759 42.1509C29.0754 41.8902 29.0761 41.6296 29.0775 41.3689C29.0793 41.0348 29.0783 40.7009 29.0764 40.3669C29.0753 40.1099 29.0757 39.8529 29.0765 39.596C29.0767 39.4728 29.0764 39.3497 29.0757 39.2265C29.0749 39.0543 29.0761 38.8823 29.0778 38.7101C29.0781 38.6121 29.0783 38.5142 29.0786 38.4133C29.1181 38.1652 29.1181 38.1652 29.2566 37.978C29.4419 37.8449 29.5214 37.8146 29.7457 37.8135ZM30.3636 39.0993C30.3636 40.3323 30.3636 41.5653 30.3636 42.8357C30.7746 42.8357 31.1856 42.8357 31.6091 42.8357C31.6091 41.6027 31.6091 40.3697 31.6091 39.0993C31.1981 39.0993 30.7871 39.0993 30.3636 39.0993Z" fill="black"/>
<path d="M23.7472 30.3408C23.8014 30.3402 23.8556 30.3397 23.9115 30.3391C24.0903 30.3378 24.269 30.3387 24.4478 30.3397C24.5723 30.3395 24.6967 30.3392 24.8212 30.3388C25.0819 30.3383 25.3426 30.339 25.6033 30.3405C25.9373 30.3422 26.2712 30.3412 26.6052 30.3394C26.8622 30.3382 27.1192 30.3386 27.3761 30.3394C27.4993 30.3396 27.6224 30.3394 27.7456 30.3386C27.9178 30.3378 28.0899 30.339 28.262 30.3408C28.4089 30.3411 28.4089 30.3411 28.5588 30.3415C28.8502 30.388 28.9417 30.4609 29.1183 30.6924C29.1597 30.8481 29.1597 30.8481 29.1572 31.0038C29.1584 31.0809 29.1584 31.0809 29.1597 31.1595C29.0982 31.3908 28.9937 31.4784 28.8069 31.6265C28.5588 31.6661 28.5588 31.6661 28.262 31.6668C28.2078 31.6674 28.1536 31.6679 28.0978 31.6685C27.919 31.6698 27.7403 31.6689 27.5615 31.6679C27.437 31.6681 27.3125 31.6684 27.1881 31.6688C26.9274 31.6692 26.6667 31.6686 26.406 31.6671C26.072 31.6654 25.738 31.6664 25.404 31.6682C25.1471 31.6694 24.8901 31.669 24.6331 31.6682C24.51 31.668 24.3868 31.6682 24.2637 31.669C24.0915 31.6698 23.9194 31.6686 23.7472 31.6668C23.6493 31.6666 23.5514 31.6663 23.4505 31.6661C23.1591 31.6196 23.0675 31.5467 22.891 31.3152C22.8496 31.1595 22.8496 31.1595 22.852 31.0038C22.8508 30.9267 22.8508 30.9267 22.8496 30.8481C22.9735 30.3818 23.3195 30.3419 23.7472 30.3408Z" fill="black"/>
<path d="M23.7472 27.227C23.8014 27.2265 23.8556 27.2259 23.9115 27.2254C24.0903 27.224 24.269 27.2249 24.4478 27.2259C24.5723 27.2257 24.6967 27.2254 24.8212 27.225C25.0819 27.2246 25.3426 27.2252 25.6033 27.2267C25.9373 27.2285 26.2712 27.2275 26.6052 27.2256C26.8622 27.2245 27.1192 27.2248 27.3761 27.2256C27.4993 27.2258 27.6224 27.2256 27.7456 27.2249C27.9178 27.2241 28.0899 27.2253 28.262 27.227C28.4089 27.2274 28.4089 27.2274 28.5588 27.2278C28.8502 27.2742 28.9417 27.3471 29.1183 27.5787C29.1597 27.7343 29.1597 27.7343 29.1572 27.89C29.1584 27.9671 29.1584 27.9671 29.1597 28.0457C29.0982 28.2771 28.9937 28.3646 28.8069 28.5128C28.5588 28.5523 28.5588 28.5523 28.262 28.5531C28.2078 28.5536 28.1536 28.5541 28.0978 28.5547C27.919 28.5561 27.7403 28.5552 27.5615 28.5541C27.437 28.5543 27.3125 28.5546 27.1881 28.555C26.9274 28.5555 26.6667 28.5548 26.406 28.5534C26.072 28.5516 25.738 28.5526 25.404 28.5545C25.1471 28.5556 24.8901 28.5552 24.6331 28.5544C24.51 28.5542 24.3868 28.5545 24.2637 28.5552C24.0915 28.556 23.9194 28.5548 23.7472 28.5531C23.6493 28.5528 23.5514 28.5526 23.4505 28.5523C23.1591 28.5059 23.0675 28.433 22.891 28.2014C22.8496 28.0457 22.8496 28.0457 22.852 27.89C22.8508 27.813 22.8508 27.813 22.8496 27.7343C22.9735 27.268 23.3195 27.2281 23.7472 27.227Z" fill="black"/>
<path d="M23.7472 24.1132C23.8014 24.1127 23.8556 24.1121 23.9115 24.1116C24.0903 24.1102 24.269 24.1111 24.4478 24.1122C24.5723 24.112 24.6967 24.1117 24.8212 24.1113C25.0819 24.1108 25.3426 24.1115 25.6033 24.1129C25.9373 24.1147 26.2712 24.1137 26.6052 24.1118C26.8622 24.1107 27.1192 24.1111 27.3761 24.1119C27.4993 24.1121 27.6224 24.1118 27.7456 24.1111C27.9178 24.1103 28.0899 24.1115 28.262 24.1132C28.4089 24.1136 28.4089 24.1136 28.5588 24.114C28.8502 24.1604 28.9417 24.2333 29.1183 24.4649C29.1597 24.6206 29.1597 24.6206 29.1572 24.7763C29.1584 24.8533 29.1584 24.8533 29.1597 24.9319C29.0982 25.1633 28.9937 25.2508 28.8069 25.399C28.5588 25.4385 28.5588 25.4385 28.262 25.4393C28.2078 25.4398 28.1536 25.4404 28.0978 25.4409C27.919 25.4423 27.7403 25.4414 27.5615 25.4403C27.437 25.4406 27.3125 25.4409 27.1881 25.4413C26.9274 25.4417 26.6667 25.441 26.406 25.4396C26.072 25.4378 25.738 25.4388 25.404 25.4407C25.1471 25.4418 24.8901 25.4415 24.6331 25.4407C24.51 25.4405 24.3868 25.4407 24.2637 25.4414C24.0915 25.4422 23.9194 25.441 23.7472 25.4393C23.6493 25.439 23.5514 25.4388 23.4505 25.4385C23.1591 25.3921 23.0675 25.3192 22.891 25.0876C22.8496 24.9319 22.8496 24.9319 22.852 24.7763C22.8508 24.6992 22.8508 24.6992 22.8496 24.6206C22.9735 24.1543 23.3195 24.1143 23.7472 24.1132Z" fill="black"/>
<path d="M19.8941 30.3396C19.976 30.3392 20.0579 30.3388 20.1423 30.3384C20.2273 30.3396 20.3124 30.3408 20.4001 30.342C20.5277 30.3402 20.5277 30.3402 20.658 30.3384C20.7398 30.3388 20.8217 30.3392 20.9061 30.3396C21.0181 30.3401 21.0181 30.3401 21.1323 30.3407C21.3897 30.392 21.4828 30.4908 21.6456 30.6923C21.6869 30.848 21.6869 30.848 21.6845 31.0037C21.6853 31.0551 21.6861 31.1064 21.6869 31.1594C21.6266 31.3865 21.5139 31.478 21.3342 31.6264C21.1323 31.6667 21.1323 31.6667 20.9061 31.6678C20.8242 31.6682 20.7423 31.6686 20.658 31.669C20.5729 31.6678 20.4878 31.6666 20.4001 31.6653C20.2725 31.6671 20.2725 31.6671 20.1423 31.669C20.0604 31.6686 19.9785 31.6682 19.8941 31.6678C19.8195 31.6674 19.7448 31.6671 19.6679 31.6667C19.4105 31.6153 19.3174 31.5166 19.1546 31.3151C19.1133 31.1594 19.1133 31.1594 19.1157 31.0037C19.1145 30.9266 19.1145 30.9266 19.1133 30.848C19.2206 30.4439 19.5095 30.3414 19.8941 30.3396Z" fill="black"/>
<path d="M19.8941 27.2263C19.976 27.2259 20.0579 27.2255 20.1423 27.2251C20.2273 27.2263 20.3124 27.2275 20.4001 27.2287C20.5277 27.2269 20.5277 27.2269 20.658 27.2251C20.7398 27.2255 20.8217 27.2259 20.9061 27.2263C21.0181 27.2268 21.0181 27.2268 21.1323 27.2274C21.3897 27.2787 21.4828 27.3775 21.6456 27.579C21.6869 27.7347 21.6869 27.7347 21.6845 27.8904C21.6853 27.9418 21.6861 27.9932 21.6869 28.0461C21.6266 28.2732 21.5139 28.3647 21.3342 28.5131C21.1323 28.5534 21.1323 28.5534 20.9061 28.5545C20.8242 28.5549 20.7423 28.5553 20.658 28.5557C20.5729 28.5545 20.4878 28.5533 20.4001 28.5521C20.2725 28.5539 20.2725 28.5539 20.1423 28.5557C20.0604 28.5553 19.9785 28.5549 19.8941 28.5545C19.8195 28.5541 19.7448 28.5538 19.6679 28.5534C19.4105 28.5021 19.3174 28.4033 19.1546 28.2018C19.1133 28.0461 19.1133 28.0461 19.1157 27.8904C19.1145 27.8133 19.1145 27.8133 19.1133 27.7347C19.2206 27.3306 19.5095 27.2281 19.8941 27.2263Z" fill="black"/>
<path d="M19.8941 24.1125C19.976 24.1121 20.0579 24.1117 20.1423 24.1113C20.2273 24.1125 20.3124 24.1137 20.4001 24.115C20.5277 24.1132 20.5277 24.1132 20.658 24.1113C20.7398 24.1117 20.8217 24.1121 20.9061 24.1125C21.0181 24.1131 21.0181 24.1131 21.1323 24.1136C21.3897 24.165 21.4828 24.2637 21.6456 24.4653C21.6869 24.6209 21.6869 24.6209 21.6845 24.7766C21.6853 24.828 21.6861 24.8794 21.6869 24.9323C21.6266 25.1595 21.5139 25.2509 21.3342 25.3994C21.1323 25.4397 21.1323 25.4397 20.9061 25.4407C20.8242 25.4411 20.7423 25.4415 20.658 25.4419C20.5729 25.4407 20.4878 25.4395 20.4001 25.4383C20.2725 25.4401 20.2725 25.4401 20.1423 25.4419C20.0604 25.4415 19.9785 25.4411 19.8941 25.4407C19.8195 25.4404 19.7448 25.44 19.6679 25.4397C19.4105 25.3883 19.3174 25.2895 19.1546 25.088C19.1133 24.9323 19.1133 24.9323 19.1157 24.7766C19.1145 24.6996 19.1145 24.6996 19.1133 24.6209C19.2206 24.2169 19.5095 24.1144 19.8941 24.1125Z" fill="black"/>
</svg>
