<svg width="512" height="512" viewBox="0 0 512 512" fill="none" xmlns="http://www.w3.org/2000/svg">
<path fill-rule="evenodd" clip-rule="evenodd" d="M103.054 370.525C53.7467 304.406 52.1017 213.961 99.3902 146.207C121.375 114.708 151.866 90.7536 187.591 76.9544C189.38 76.2615 191.37 76.3071 193.125 77.0813C194.879 77.8555 196.255 79.2948 196.949 81.0828C198.389 84.8126 196.491 89.0003 192.827 90.446C124.975 116.658 79.4347 183.116 79.4347 255.824C79.4347 295.508 92.8477 334.204 117.319 365.31L119.216 339.3C119.371 337.386 120.276 335.61 121.735 334.36C123.193 333.11 125.087 332.487 127.002 332.627C130.994 332.921 133.938 336.395 133.676 340.373L130.208 386.247C129.88 391.188 124.893 394.14 120.459 392.489L77.4046 376.347C73.6749 374.947 71.7769 370.779 73.152 367.043C73.8339 365.243 75.2012 363.786 76.9547 362.992C78.7081 362.197 80.705 362.129 82.5083 362.803L103.054 370.525ZM223.448 439.621C223.452 440.743 223.194 441.85 222.694 442.854C222.194 443.859 221.466 444.732 220.569 445.405L183.796 473.003C180.664 475.354 176.078 474.817 173.655 471.551C171.234 468.365 171.888 463.824 175.095 461.429L194.528 446.851H7.26245C3.27067 446.851 0 443.605 0 439.62C0 435.616 3.27181 432.384 7.26245 432.384H194.527L175.094 417.793C174.331 417.226 173.688 416.513 173.203 415.696C172.717 414.878 172.398 413.973 172.264 413.032C172.13 412.091 172.184 411.133 172.423 410.212C172.661 409.292 173.08 408.429 173.654 407.671C176.01 404.478 180.59 403.824 183.795 406.224L220.568 433.83C222.401 435.191 223.448 437.331 223.448 439.621ZM512 439.621C512 441.892 510.888 444.038 509.121 445.405L472.284 473.005C469.076 475.409 464.528 474.738 462.141 471.552C459.786 468.366 460.441 463.825 463.581 461.43L483.08 446.852H395.926C391.934 446.852 388.729 443.606 388.729 439.621C388.729 435.617 391.934 432.385 395.926 432.385H483.08L463.581 417.794C460.441 415.399 459.787 410.865 462.141 407.672C464.562 404.479 469.077 403.825 472.284 406.225L509.121 433.831C510.887 435.191 512 437.331 512 439.621ZM273.371 446.819C372.25 438.303 448.4 355.387 448.4 255.825C448.4 147.7 358.627 60.6215 250.274 64.2226L267.875 51.0191C268.638 50.4512 269.28 49.7378 269.766 48.9201C270.252 48.1024 270.571 47.1965 270.705 46.2548C270.839 45.3132 270.785 44.3543 270.546 43.4336C270.308 42.5128 269.889 41.6485 269.314 40.8904C268.159 39.3568 266.443 38.3436 264.542 38.0727C262.641 37.8017 260.71 38.2951 259.172 39.4448L222.4 67.0569C218.557 69.9266 218.566 75.7627 222.4 78.6256L259.172 106.224C260.439 107.166 261.977 107.673 263.556 107.67C270.276 107.67 273.536 98.8921 267.875 94.6485L246.806 78.8523C348.57 73.2702 433.939 154.348 433.939 255.825C433.939 347.016 362.881 424.585 272.127 432.404C270.214 432.572 268.445 433.489 267.207 434.957C265.969 436.425 265.362 438.323 265.519 440.236C265.859 444.248 269.45 447.211 273.371 446.819ZM294.571 232.897C297.123 235.966 296.731 240.52 293.655 243.085L250.536 278.98C247.665 281.402 243.434 281.153 240.786 278.536L219.26 256.996C217.908 255.636 217.149 253.797 217.149 251.879C217.149 249.962 217.908 248.122 219.26 246.762C222.074 243.942 226.653 243.942 229.532 246.776L246.348 263.638L284.363 231.969C287.439 229.416 292.019 229.828 294.571 232.897ZM245.498 347.925C254.182 348.978 262.972 348.797 271.605 347.389C272.804 347.193 274.033 347.304 275.177 347.711C276.321 348.119 277.344 348.809 278.149 349.718L292.871 366.207L313.613 357.112L311.454 335.147C311.329 333.94 311.51 332.721 311.979 331.602C312.447 330.483 313.189 329.499 314.137 328.741C321.04 323.361 327.142 317.027 332.261 309.929C332.967 308.936 333.914 308.139 335.013 307.614C336.112 307.088 337.327 306.852 338.543 306.926L360.527 308.209L368.772 287.101L351.76 273.125C350.825 272.345 350.096 271.347 349.639 270.218C349.183 269.089 349.012 267.865 349.142 266.654C350.189 257.985 349.993 249.216 348.619 240.566C348.226 238.119 349.077 235.639 350.909 233.991L367.398 219.321L358.303 198.566L336.382 200.744C333.895 200.98 331.474 199.959 329.969 198.003C324.562 191.128 318.218 185.042 311.125 179.924C310.133 179.214 309.337 178.264 308.811 177.164C308.285 176.063 308.045 174.848 308.115 173.63L309.424 151.612L288.289 143.368L274.352 160.426C273.58 161.372 272.581 162.106 271.448 162.56C270.315 163.015 269.086 163.174 267.875 163.024C259.191 161.963 250.4 162.143 241.767 163.56C240.569 163.755 239.34 163.643 238.196 163.236C237.052 162.829 236.03 162.139 235.224 161.231L220.567 144.742L199.759 153.837L201.984 175.802C202.18 178.263 201.199 180.677 199.236 182.208C192.33 187.584 186.227 193.919 181.111 201.02C180.405 202.012 179.458 202.808 178.359 203.333C177.26 203.859 176.045 204.096 174.83 204.023L152.845 202.734L144.601 223.85L161.614 237.825C162.573 238.585 163.318 239.581 163.776 240.716C164.235 241.85 164.392 243.084 164.231 244.297C163.184 252.967 163.38 261.748 164.753 270.384C165.146 272.824 164.295 275.304 162.464 276.953L145.975 291.629L155.07 312.384L176.99 310.205C178.203 310.079 179.428 310.264 180.55 310.742C181.672 311.221 182.654 311.977 183.402 312.94C188.806 319.821 195.149 325.909 202.246 331.025C204.275 332.471 205.387 334.846 205.256 337.319L203.947 359.337L225.081 367.581L239.018 350.523C239.793 349.58 240.793 348.847 241.925 348.393C243.058 347.939 244.287 347.778 245.498 347.925ZM285.541 379.751C286.559 380.891 287.91 381.68 289.402 382.005C290.894 382.331 292.451 382.176 293.851 381.564L324.211 368.256C327.089 366.993 328.791 364.036 328.529 360.915L326.174 337.588C331.866 332.792 337.035 327.44 341.551 321.59L364.975 322.957C368.05 323.127 370.995 321.295 372.106 318.364L384.212 287.474C385.323 284.55 384.474 281.233 382.053 279.249L363.928 264.389C364.528 257.001 364.375 249.572 363.47 242.215L380.941 226.636C383.297 224.563 384.017 221.199 382.773 218.333L369.49 187.953C368.181 185.081 365.237 183.353 362.161 183.655L338.803 185.971C334.029 180.306 328.678 175.153 322.838 170.595L324.212 147.216C324.343 144.082 322.511 141.19 319.566 140.052L288.682 127.986C285.803 126.835 282.467 127.705 280.438 130.133L265.65 148.244C258.259 147.636 250.826 147.792 243.468 148.709L227.83 131.199C225.802 128.862 222.4 128.117 219.521 129.38L189.161 142.695C186.282 143.944 184.58 146.915 184.842 150.03L187.198 173.35C181.505 178.146 176.402 183.511 171.822 189.347L148.463 187.986C145.322 187.81 142.378 189.655 141.265 192.586L129.226 223.476C128.048 226.388 128.964 229.719 131.32 231.701L149.445 246.547C148.856 253.934 148.987 261.367 149.903 268.729L132.433 284.314C130.077 286.389 129.357 289.752 130.601 292.618L143.884 322.997C145.193 325.87 148.137 327.604 151.278 327.296L174.571 324.98C179.352 330.662 184.726 335.817 190.602 340.357L189.228 363.736C189.128 365.263 189.519 366.781 190.343 368.07C191.167 369.359 192.381 370.351 193.809 370.901L224.693 382.966C227.589 384.111 230.929 383.241 232.937 380.82L247.79 362.695C255.18 363.315 262.614 363.161 269.972 362.237L285.541 379.751ZM236.599 306.848C264.931 317.912 296.992 303.871 308.05 275.539C319.133 247.17 305.197 215.165 276.774 204.095C248.538 193.097 216.502 206.783 205.323 235.397C194.265 263.729 208.267 295.777 236.599 306.848ZM321.529 280.812C335.531 245.048 317.799 204.584 282.009 190.628C246.108 176.624 205.776 194.35 191.844 230.136C177.907 265.901 195.574 306.35 231.364 320.32C266.725 334.126 307.397 316.979 321.529 280.812Z" fill="#024D81"/>
</svg>
