<svg width="100" height="100" viewBox="0 0 100 100" fill="none" xmlns="http://www.w3.org/2000/svg">
<path d="M48.2344 79.7329V73.6864C48.2344 72.4341 49.2495 71.4189 50.5018 71.4189C51.754 71.4189 52.7692 72.4341 52.7692 73.6864V79.7329C52.7692 80.9852 51.754 82.0004 50.5018 82.0004C49.2495 82.0004 48.2344 80.9852 48.2344 79.7329Z" fill="black"/>
<path d="M48.2344 25.314V19.2674C48.2344 18.0152 49.2495 17 50.5018 17C51.754 17 52.7692 18.0152 52.7692 19.2674V25.314C52.7692 26.5662 51.754 27.5814 50.5018 27.5814C49.2495 27.5814 48.2344 26.5662 48.2344 25.314Z" fill="black"/>
<path d="M63.3477 79.7329V73.6864C63.3477 72.4341 64.3628 71.4189 65.6151 71.4189C66.8673 71.4189 67.8825 72.4341 67.8825 73.6864V79.7329C67.8825 80.9852 66.8673 82.0004 65.6151 82.0004C64.3628 82.0004 63.3477 80.9852 63.3477 79.7329Z" fill="black"/>
<path d="M63.3477 25.314V19.2674C63.3477 18.0152 64.3628 17 65.6151 17C66.8673 17 67.8825 18.0152 67.8825 19.2674V25.314C67.8825 26.5662 66.8673 27.5814 65.6151 27.5814C64.3628 27.5814 63.3477 26.5662 63.3477 25.314Z" fill="black"/>
<path d="M26.3139 47.2334C27.5661 47.2334 28.5813 48.2486 28.5813 49.5008C28.5813 50.7531 27.5661 51.7683 26.3139 51.7683H20.2674C19.0152 51.7683 18 50.7531 18 49.5008C18 48.2486 19.0152 47.2334 20.2674 47.2334H26.3139Z" fill="black"/>
<path d="M26.3139 62.3486C27.5661 62.3486 28.5813 63.3638 28.5813 64.6161C28.5813 65.8684 27.5661 66.8835 26.3139 66.8835H20.2674C19.0152 66.8835 18 65.8684 18 64.6161C18 63.3638 19.0152 62.3486 20.2674 62.3486H26.3139Z" fill="black"/>
<path d="M26.3139 32.1162C27.5661 32.1162 28.5813 33.1314 28.5813 34.3837C28.5813 35.6359 27.5661 36.6511 26.3139 36.6511H20.2674C19.0152 36.6511 18 35.6359 18 34.3837C18 33.1314 19.0152 32.1162 20.2674 32.1162H26.3139Z" fill="black"/>
<path d="M80.7318 47.2334C81.9841 47.2334 82.9992 48.2486 82.9992 49.5008C82.9992 50.7531 81.9841 51.7683 80.7318 51.7683H74.6854C73.4331 51.7683 72.418 50.7531 72.418 49.5008C72.418 48.2486 73.4331 47.2334 74.6854 47.2334H80.7318Z" fill="black"/>
<path d="M80.7318 62.3486C81.9841 62.3486 82.9992 63.3638 82.9992 64.6161C82.9992 65.8684 81.9841 66.8835 80.7318 66.8835H74.6854C73.4331 66.8835 72.418 65.8684 72.418 64.6161C72.418 63.3638 73.4331 62.3486 74.6854 62.3486H80.7318Z" fill="black"/>
<path d="M80.7318 32.1162C81.9841 32.1162 82.9992 33.1314 82.9992 34.3837C82.9992 35.6359 81.9841 36.6511 80.7318 36.6511H74.6854C73.4331 36.6511 72.418 35.6359 72.418 34.3837C72.418 33.1314 73.4331 32.1162 74.6854 32.1162H80.7318Z" fill="black"/>
<path d="M33.1172 79.7329V73.6864C33.1172 72.4341 34.1323 71.4189 35.3846 71.4189C36.6369 71.4189 37.652 72.4341 37.652 73.6864V79.7329C37.652 80.9852 36.6369 82.0004 35.3846 82.0004C34.1323 82.0004 33.1172 80.9852 33.1172 79.7329Z" fill="black"/>
<path d="M33.1172 25.314V19.2674C33.1172 18.0152 34.1323 17 35.3846 17C36.6369 17 37.652 18.0152 37.652 19.2674V25.314C37.652 26.5662 36.6369 27.5814 35.3846 27.5814C34.1323 27.5814 33.1172 26.5662 33.1172 25.314Z" fill="black"/>
<path d="M72.4184 31.3608C72.4184 29.2737 70.7265 27.5818 68.6394 27.5818H32.3607C30.2736 27.5818 28.5817 29.2737 28.5817 31.3608V67.64C28.5817 69.7271 30.2736 71.4191 32.3607 71.4191H68.6394C70.7265 71.4191 72.4184 69.7271 72.4184 67.64V31.3608ZM76.9532 67.64C76.9532 72.2317 73.231 75.954 68.6394 75.954H32.3607C27.7691 75.954 24.0469 72.2317 24.0469 67.64V31.3608C24.0469 26.7692 27.7691 23.0469 32.3607 23.0469H68.6394C73.231 23.0469 76.9532 26.7692 76.9532 31.3608V67.64Z" fill="black"/>
<path d="M60.3264 40.4304C60.3264 40.0129 59.988 39.6745 59.5706 39.6745H41.4313C41.0138 39.6745 40.6755 40.0129 40.6755 40.4304V58.5699C40.6755 58.9874 41.0138 59.3258 41.4313 59.3258H59.5706C59.988 59.3258 60.3264 58.9874 60.3264 58.5699V40.4304ZM64.8612 58.5699C64.8612 61.4919 62.4925 63.8606 59.5706 63.8606H41.4313C38.5093 63.8606 36.1406 61.4919 36.1406 58.5699V40.4304C36.1406 37.5084 38.5093 35.1396 41.4313 35.1396H59.5706C62.4925 35.1396 64.8612 37.5084 64.8612 40.4304V58.5699Z" fill="black"/>
</svg>
