<svg width="512" height="512" viewBox="0 0 512 512" fill="none" xmlns="http://www.w3.org/2000/svg">
<path d="M466.886 412.73H433.944C432.023 412.73 430.18 411.966 428.821 410.608C427.462 409.249 426.699 407.406 426.699 405.484C426.699 403.563 427.462 401.72 428.821 400.361C430.18 399.003 432.023 398.239 433.944 398.239H466.886C474.46 398.239 480.604 392.086 480.604 384.521V46.2054C480.604 38.6413 474.46 32.4876 466.886 32.4876H45.1139C37.5499 32.4876 31.3962 38.6413 31.3962 46.2054V384.512C31.3962 392.076 37.5499 398.23 45.1139 398.23H259.004C260.926 398.23 262.769 398.993 264.128 400.352C265.486 401.71 266.25 403.553 266.25 405.475C266.25 407.396 265.486 409.239 264.128 410.598C262.769 411.957 260.926 412.72 259.004 412.72H45.1236C29.5704 412.72 16.9153 400.065 16.9153 384.512V46.2054C16.9153 30.6522 29.5704 17.9971 45.1236 17.9971H466.896C482.449 17.9971 495.104 30.6522 495.104 46.2054V384.512C495.104 400.065 482.449 412.72 466.896 412.72L466.886 412.73Z" fill="white"/>
<path d="M487.849 138.887H203.737C199.332 138.887 195.091 137.052 192.077 133.845L158.614 98.3042C158.416 98.0919 158.177 97.9225 157.911 97.8062C157.645 97.6899 157.358 97.6292 157.068 97.628H102.584C102.304 97.628 102.028 97.683 101.77 97.7898C101.512 97.8966 101.278 98.0531 101.081 98.2505C100.883 98.4478 100.727 98.6821 100.62 98.94C100.513 99.1978 100.458 99.4742 100.458 99.7533V122.88C100.458 131.71 93.2806 138.887 84.451 138.887H24.1509C22.2294 138.887 20.3865 138.124 19.0277 136.765C17.669 135.407 16.9056 133.564 16.9056 131.642V46.2444C16.9056 30.6912 29.5607 18.0361 45.1139 18.0361H466.886C482.439 18.0361 495.094 30.6912 495.094 46.2444V131.642C495.094 133.564 494.331 135.407 492.972 136.765C491.613 138.124 489.771 138.887 487.849 138.887ZM102.593 83.1471H157.078C161.657 83.1471 166.062 85.0502 169.182 88.383L202.646 123.914C202.936 124.223 203.332 124.397 203.747 124.397H480.604V46.2444C480.604 38.6804 474.45 32.5267 466.886 32.5267H45.1139C37.5402 32.5267 31.3962 38.6804 31.3962 46.2444V124.397H84.4607C85.3011 124.397 85.9773 123.721 85.9773 122.88V99.7533C85.9773 90.5952 93.4255 83.1374 102.593 83.1374V83.1471Z" fill="white"/>
<path d="M424.767 103.927C418.015 103.934 411.535 101.264 406.749 96.5012C401.962 91.7385 399.26 85.272 399.234 78.5198C399.245 71.7522 401.938 65.2649 406.725 60.4804C411.511 55.6959 417.999 53.0047 424.767 52.9971C431.519 53.0226 437.985 55.7249 442.748 60.5112C447.511 65.2975 450.181 71.7772 450.174 78.5294C450.174 92.537 438.774 103.927 424.767 103.927ZM424.767 67.4876C418.681 67.4876 413.725 72.4337 413.725 78.5294C413.725 84.5382 418.671 89.4457 424.767 89.4457C430.689 89.4457 435.683 84.4416 435.683 78.5294C435.683 72.4434 430.776 67.4876 424.767 67.4876ZM358.342 103.927C351.59 103.934 345.11 101.264 340.324 96.5012C335.537 91.7385 332.835 85.272 332.81 78.5198C332.82 71.7522 335.513 65.2649 340.3 60.4804C345.086 55.6959 351.574 53.0047 358.342 52.9971C365.094 53.0226 371.561 55.7249 376.323 60.5112C381.086 65.2975 383.757 71.7772 383.749 78.5294C383.749 92.537 372.35 103.927 358.342 103.927ZM358.342 67.4876C352.256 67.4876 347.3 72.4337 347.3 78.5294C347.3 84.5382 352.246 89.4457 358.342 89.4457C364.264 89.4457 369.258 84.4416 369.258 78.5294C369.258 72.4434 364.351 67.4876 358.342 67.4876ZM291.917 103.927C285.165 103.934 278.685 101.264 273.899 96.5012C269.113 91.7385 266.41 85.272 266.385 78.5198C266.395 71.7522 269.089 65.2649 273.875 60.4804C278.661 55.6959 285.15 53.0047 291.917 52.9971C298.669 53.0226 305.136 55.7249 309.899 60.5112C314.661 65.2975 317.332 71.7772 317.324 78.5294C317.324 92.537 305.925 103.927 291.917 103.927ZM291.917 67.4876C285.831 67.4876 280.875 72.4337 280.875 78.5294C280.875 84.5382 285.822 89.4457 291.917 89.4457C297.839 89.4457 302.833 84.4416 302.833 78.5294C302.833 72.4434 297.926 67.4876 291.917 67.4876ZM203.583 334.578H103.018C96.4164 334.57 90.0873 331.943 85.42 327.274C80.7527 322.605 78.1285 316.275 78.1234 309.673V209.118C78.1285 202.515 80.754 196.183 85.4234 191.514C90.0928 186.845 96.4244 184.219 103.028 184.214H203.583C210.185 184.222 216.516 186.848 221.184 191.517C225.853 196.186 228.48 202.516 228.487 209.118V309.683C228.48 316.285 225.853 322.614 221.184 327.281C216.515 331.948 210.185 334.573 203.583 334.578ZM103.018 198.705C100.26 198.712 97.6161 199.812 95.6664 201.764C93.7166 203.715 92.6191 206.36 92.614 209.118V309.683C92.614 315.421 97.2896 320.087 103.028 320.087H203.583C209.321 320.087 213.997 315.421 213.997 309.673V209.118C213.992 206.358 212.893 203.712 210.941 201.76C208.989 199.808 206.343 198.71 203.583 198.705H103.018Z" fill="white"/>
<path d="M241.664 232.525H221.242C219.32 232.525 217.478 231.761 216.119 230.403C214.76 229.044 213.997 227.201 213.997 225.279C213.997 223.358 214.76 221.515 216.119 220.156C217.478 218.797 219.32 218.034 221.242 218.034H241.664C243.586 218.034 245.428 218.797 246.787 220.156C248.146 221.515 248.909 223.358 248.909 225.279C248.909 227.201 248.146 229.044 246.787 230.403C245.428 231.761 243.586 232.525 241.664 232.525ZM241.664 266.645H221.242C219.32 266.645 217.478 265.882 216.119 264.523C214.76 263.164 213.997 261.321 213.997 259.4C213.997 257.478 214.76 255.635 216.119 254.277C217.478 252.918 219.32 252.154 221.242 252.154H241.664C243.586 252.154 245.428 252.918 246.787 254.277C248.146 255.635 248.909 257.478 248.909 259.4C248.909 261.321 248.146 263.164 246.787 264.523C245.428 265.882 243.586 266.645 241.664 266.645ZM241.664 300.766H221.242C219.32 300.766 217.478 300.002 216.119 298.643C214.76 297.285 213.997 295.442 213.997 293.52C213.997 291.599 214.76 289.756 216.119 288.397C217.478 287.038 219.32 286.275 221.242 286.275H241.664C243.586 286.275 245.428 287.038 246.787 288.397C248.146 289.756 248.909 291.599 248.909 293.52C248.909 295.442 248.146 297.285 246.787 298.643C245.428 300.002 243.586 300.766 241.664 300.766ZM85.3687 232.525H64.9467C63.0251 232.525 61.1823 231.761 59.8235 230.403C58.4648 229.044 57.7014 227.201 57.7014 225.279C57.7014 223.358 58.4648 221.515 59.8235 220.156C61.1823 218.797 63.0251 218.034 64.9467 218.034H85.3687C87.2903 218.034 89.1332 218.797 90.4919 220.156C91.8507 221.515 92.614 223.358 92.614 225.279C92.614 227.201 91.8507 229.044 90.4919 230.403C89.1332 231.761 87.2903 232.525 85.3687 232.525ZM85.3687 266.645H64.9467C63.0251 266.645 61.1823 265.882 59.8235 264.523C58.4648 263.164 57.7014 261.321 57.7014 259.4C57.7014 257.478 58.4648 255.635 59.8235 254.277C61.1823 252.918 63.0251 252.154 64.9467 252.154H85.3687C87.2903 252.154 89.1332 252.918 90.4919 254.277C91.8507 255.635 92.614 257.478 92.614 259.4C92.614 261.321 91.8507 263.164 90.4919 264.523C89.1332 265.882 87.2903 266.645 85.3687 266.645ZM85.3687 300.766H64.9467C63.0251 300.766 61.1823 300.002 59.8235 298.643C58.4648 297.285 57.7014 295.442 57.7014 293.52C57.7014 291.599 58.4648 289.756 59.8235 288.397C61.1823 287.038 63.0251 286.275 64.9467 286.275H85.3687C87.2903 286.275 89.1332 287.038 90.4919 288.397C91.8507 289.756 92.614 291.599 92.614 293.52C92.614 295.442 91.8507 297.285 90.4919 298.643C89.1332 300.002 87.2903 300.766 85.3687 300.766ZM187.431 354.999C185.509 354.999 183.666 354.236 182.307 352.877C180.949 351.518 180.185 349.675 180.185 347.754V327.332C180.185 325.41 180.949 323.567 182.307 322.208C183.666 320.85 185.509 320.086 187.431 320.086C189.352 320.086 191.195 320.85 192.554 322.208C193.913 323.567 194.676 325.41 194.676 327.332V347.754C194.676 349.675 193.913 351.518 192.554 352.877C191.195 354.236 189.352 354.999 187.431 354.999ZM153.31 354.999C151.389 354.999 149.546 354.236 148.187 352.877C146.828 351.518 146.065 349.675 146.065 347.754V327.332C146.065 325.41 146.828 323.567 148.187 322.208C149.546 320.85 151.389 320.086 153.31 320.086C155.232 320.086 157.075 320.85 158.433 322.208C159.792 323.567 160.555 325.41 160.555 327.332V347.754C160.555 349.675 159.792 351.518 158.433 352.877C157.075 354.236 155.232 354.999 153.31 354.999ZM119.18 354.999C117.258 354.999 115.416 354.236 114.057 352.877C112.698 351.518 111.935 349.675 111.935 347.754V327.332C111.935 325.41 112.698 323.567 114.057 322.208C115.416 320.85 117.258 320.086 119.18 320.086C121.102 320.086 122.944 320.85 124.303 322.208C125.662 323.567 126.425 325.41 126.425 327.332V347.754C126.425 349.675 125.662 351.518 124.303 352.877C122.944 354.236 121.102 354.999 119.18 354.999ZM187.431 198.713C185.509 198.713 183.666 197.95 182.307 196.591C180.949 195.232 180.185 193.39 180.185 191.468V171.036C180.185 169.115 180.949 167.272 182.307 165.913C183.666 164.554 185.509 163.791 187.431 163.791C189.352 163.791 191.195 164.554 192.554 165.913C193.913 167.272 194.676 169.115 194.676 171.036V191.458C194.676 193.38 193.913 195.223 192.554 196.582C191.195 197.94 189.352 198.713 187.431 198.713ZM153.31 198.713C151.389 198.713 149.546 197.95 148.187 196.591C146.828 195.232 146.065 193.39 146.065 191.468V171.036C146.065 169.115 146.828 167.272 148.187 165.913C149.546 164.554 151.389 163.791 153.31 163.791C155.232 163.791 157.075 164.554 158.433 165.913C159.792 167.272 160.555 169.115 160.555 171.036V191.458C160.555 193.38 159.792 195.223 158.433 196.582C157.075 197.94 155.232 198.713 153.31 198.713ZM119.18 198.713C117.258 198.713 115.416 197.95 114.057 196.591C112.698 195.232 111.935 193.39 111.935 191.468V171.036C111.935 169.115 112.698 167.272 114.057 165.913C115.416 164.554 117.258 163.791 119.18 163.791C121.102 163.791 122.944 164.554 124.303 165.913C125.662 167.272 126.425 169.115 126.425 171.036V191.458C126.425 193.38 125.662 195.223 124.303 196.582C122.944 197.94 121.102 198.713 119.18 198.713ZM147.243 295.51C145.322 295.51 143.479 294.747 142.12 293.388C140.762 292.029 139.998 290.187 139.998 288.265V247.914C139.998 242.32 135.448 237.77 129.855 237.77C124.261 237.77 119.711 242.32 119.711 247.914V288.265C119.711 290.187 118.948 292.029 117.589 293.388C116.231 294.747 114.388 295.51 112.466 295.51C110.545 295.51 108.702 294.747 107.343 293.388C105.984 292.029 105.221 290.187 105.221 288.265V247.914C105.221 234.331 116.272 223.28 129.855 223.28C143.437 223.28 154.489 234.331 154.489 247.914V288.265C154.489 290.187 153.725 292.029 152.367 293.388C151.008 294.747 149.165 295.51 147.243 295.51Z" fill="white"/>
<path d="M147.243 268.925H112.466C110.545 268.925 108.702 268.162 107.343 266.803C105.984 265.444 105.221 263.602 105.221 261.68C105.221 259.758 105.984 257.916 107.343 256.557C108.702 255.198 110.545 254.435 112.466 254.435H147.243C149.165 254.435 151.008 255.198 152.367 256.557C153.725 257.916 154.489 259.758 154.489 261.68C154.489 263.602 153.725 265.444 152.367 266.803C151.008 268.162 149.165 268.925 147.243 268.925ZM182.852 292.767C180.93 292.767 179.087 292.004 177.728 290.645C176.37 289.286 175.606 287.443 175.606 285.522V233.278C175.606 231.357 176.37 229.514 177.728 228.155C179.087 226.797 180.93 226.033 182.852 226.033C184.773 226.033 186.616 226.797 187.975 228.155C189.334 229.514 190.097 231.357 190.097 233.278V285.522C190.097 287.443 189.334 289.286 187.975 290.645C186.616 292.004 184.773 292.767 182.852 292.767Z" fill="white"/>
<path d="M194.145 240.524H171.549C169.627 240.524 167.785 239.76 166.426 238.402C165.067 237.043 164.304 235.2 164.304 233.278C164.304 231.357 165.067 229.514 166.426 228.155C167.785 226.797 169.627 226.033 171.549 226.033H194.154C196.076 226.033 197.919 226.797 199.277 228.155C200.636 229.514 201.4 231.357 201.4 233.278C201.4 235.2 200.636 237.043 199.277 238.402C197.919 239.76 196.066 240.524 194.145 240.524ZM194.145 292.767H171.549C169.627 292.767 167.785 292.004 166.426 290.645C165.067 289.286 164.304 287.443 164.304 285.522C164.304 283.6 165.067 281.757 166.426 280.399C167.785 279.04 169.627 278.277 171.549 278.277H194.154C196.076 278.277 197.919 279.04 199.277 280.399C200.636 281.757 201.4 283.6 201.4 285.522C201.4 287.443 200.636 289.286 199.277 290.645C197.919 292.004 196.066 292.767 194.145 292.767ZM417.86 426.486H275.06C268.827 426.478 262.852 423.998 258.445 419.59C254.039 415.182 251.561 409.206 251.556 402.973V318.338C251.561 312.105 254.039 306.129 258.445 301.721C262.852 297.312 268.827 294.832 275.06 294.825H417.86C424.093 294.832 430.068 297.312 434.474 301.721C438.881 306.129 441.358 312.105 441.363 318.338V402.973C441.358 409.206 438.881 415.182 434.474 419.59C430.068 423.998 424.093 426.478 417.86 426.486ZM275.06 309.315C272.669 309.32 270.378 310.273 268.689 311.964C266.999 313.656 266.049 315.948 266.047 318.338V402.973C266.047 407.948 270.085 411.995 275.06 411.995H417.86C420.251 411.993 422.543 411.041 424.233 409.349C425.923 407.658 426.873 405.364 426.873 402.973V318.338C426.873 315.947 425.923 313.653 424.233 311.961C422.543 310.27 420.251 309.318 417.86 309.315H275.06Z" fill="white"/>
<path d="M371.925 459.901H320.995C319.073 459.901 317.231 459.138 315.872 457.779C314.513 456.421 313.75 454.578 313.75 452.656V419.202C313.75 417.281 314.513 415.438 315.872 414.079C317.231 412.72 319.073 411.957 320.995 411.957H371.925C373.846 411.957 375.689 412.72 377.048 414.079C378.406 415.438 379.17 417.281 379.17 419.202V452.656C379.17 454.578 378.406 456.421 377.048 457.779C375.689 459.138 373.846 459.901 371.925 459.901ZM328.24 445.411H364.679V426.448H328.24V445.411Z" fill="white"/>
<path d="M436.185 493.993C434.264 493.993 432.421 493.23 431.062 491.871C429.703 490.512 428.94 488.669 428.94 486.748V466.732C428.94 462.945 425.849 459.873 422.072 459.873H270.858C269.038 459.875 267.294 460.598 266.007 461.884C264.72 463.169 263.994 464.912 263.989 466.732V486.748C263.989 488.669 263.226 490.512 261.867 491.871C260.508 493.23 258.665 493.993 256.744 493.993C254.822 493.993 252.979 493.23 251.621 491.871C250.262 490.512 249.499 488.669 249.499 486.748V466.732C249.499 454.956 259.082 445.382 270.848 445.382H422.072C433.848 445.382 443.421 454.956 443.421 466.732V486.748C443.421 488.669 442.658 490.512 441.299 491.871C439.94 493.23 438.107 493.993 436.185 493.993ZM387.342 309.325H310.542C308.621 309.325 306.778 308.562 305.419 307.203C304.061 305.845 303.297 304.002 303.297 302.08C303.3 289.979 308.101 278.373 316.649 269.807C325.197 261.241 336.793 256.415 348.894 256.387C361.008 256.402 372.622 261.221 381.187 269.787C389.753 278.353 394.572 289.966 394.588 302.08C394.588 304.002 393.824 305.845 392.466 307.203C391.107 308.562 389.264 309.325 387.342 309.325ZM318.638 294.835H379.247C377.609 288.017 373.726 281.948 368.223 277.603C362.72 273.258 355.916 270.889 348.904 270.877C341.902 270.893 335.109 273.264 329.618 277.61C324.128 281.956 320.26 288.023 318.638 294.835ZM307.615 380.909C300.335 380.901 293.356 378.006 288.207 372.86C283.058 367.713 280.161 360.734 280.151 353.454C280.146 346.16 283.035 339.161 288.184 333.994C293.332 328.827 300.321 325.913 307.615 325.893C314.923 325.901 321.928 328.807 327.095 333.974C332.263 339.141 335.169 346.147 335.176 353.454C335.156 360.748 332.242 367.735 327.075 372.882C321.908 378.03 314.909 380.916 307.615 380.909ZM307.615 340.383C304.163 340.401 300.859 341.787 298.427 344.237C295.995 346.687 294.634 350.002 294.641 353.454C294.641 360.603 300.467 366.418 307.615 366.418C311.066 366.426 314.379 365.066 316.829 362.636C319.278 360.206 320.665 356.904 320.686 353.454C320.686 346.247 314.822 340.383 307.615 340.383ZM385.208 380.909C377.928 380.901 370.95 378.006 365.803 372.859C360.655 367.712 357.76 360.733 357.753 353.454C357.745 346.16 360.632 339.162 365.779 333.994C370.926 328.827 377.914 325.913 385.208 325.893C392.514 325.903 399.518 328.81 404.685 333.977C409.851 339.143 412.758 346.147 412.769 353.454C412.743 360.746 409.828 367.73 404.661 372.877C399.495 378.023 392.5 380.911 385.208 380.909ZM385.208 340.383C381.861 340.541 378.705 341.982 376.392 344.406C374.08 346.83 372.79 350.051 372.79 353.401C372.79 356.751 374.08 359.972 376.392 362.396C378.705 364.82 381.861 366.26 385.208 366.418C388.658 366.426 391.971 365.066 394.421 362.636C396.871 360.206 398.258 356.904 398.278 353.454C398.278 346.247 392.414 340.383 385.208 340.383ZM348.894 242.91C341.613 242.903 334.633 240.006 329.486 234.857C324.338 229.708 321.444 222.727 321.439 215.446C321.432 208.152 324.318 201.154 329.466 195.986C334.613 190.819 341.601 187.905 348.894 187.885C356.201 187.895 363.205 190.802 368.371 195.969C373.538 201.135 376.445 208.139 376.455 215.446C376.435 222.74 373.521 229.729 368.354 234.878C363.187 240.027 356.189 242.915 348.894 242.91ZM348.894 202.375C345.563 202.557 342.428 204.008 340.134 206.43C337.841 208.852 336.562 212.062 336.562 215.398C336.562 218.734 337.841 221.943 340.134 224.365C342.428 226.787 345.563 228.238 348.894 228.42C352.346 228.427 355.661 227.066 358.111 224.634C360.561 222.202 361.947 218.898 361.965 215.446C361.965 208.239 356.101 202.375 348.894 202.375ZM359.047 399.573H333.872C331.951 399.573 330.108 398.809 328.749 397.451C327.39 396.092 326.627 394.249 326.627 392.327C326.627 390.406 327.39 388.563 328.749 387.204C330.108 385.845 331.951 385.082 333.872 385.082H359.047C360.969 385.082 362.812 385.845 364.17 387.204C365.529 388.563 366.293 390.406 366.293 392.327C366.293 394.249 365.529 396.092 364.17 397.451C362.812 398.809 360.969 399.573 359.047 399.573Z" fill="white"/>
<path d="M348.952 270.876C347.031 270.876 345.188 270.113 343.829 268.754C342.47 267.395 341.707 265.553 341.707 263.631V235.664C341.707 233.743 342.47 231.9 343.829 230.541C345.188 229.182 347.031 228.419 348.952 228.419C350.874 228.419 352.716 229.182 354.075 230.541C355.434 231.9 356.197 233.743 356.197 235.664V263.621C356.197 265.543 355.434 267.386 354.075 268.745C352.716 270.103 350.874 270.867 348.952 270.867V270.876Z" fill="white"/>
</svg>
