<svg width="300" height="300" viewBox="0 0 300 300" fill="none" xmlns="http://www.w3.org/2000/svg">
<g clip-path="url(#clip0_368_663)">
<mask id="mask0_368_663" style="mask-type:luminance" maskUnits="userSpaceOnUse" x="0" y="0" width="300" height="300">
<path d="M300 0H0V300H300V0Z" fill="white"/>
</mask>
<g mask="url(#mask0_368_663)">
<path d="M62.7301 190.27C62.2582 190.282 61.7882 190.199 61.3497 190.023C60.9112 189.848 60.5132 189.585 60.1801 189.25L0.884015 129.862C0.309953 129.226 -0.0078125 128.399 -0.0078125 127.543C-0.00781254 126.686 0.309953 125.859 0.884015 125.223C1.9494 123.831 29.834 94.2311 80.1762 95.9927C144.669 98.4504 178.722 65.7427 179.045 65.4158C179.369 65.0927 179.752 64.8365 180.174 64.6615C180.596 64.4869 181.049 64.3969 181.505 64.3969C181.962 64.3969 182.414 64.4869 182.836 64.6615C183.258 64.8365 183.642 65.0927 183.965 65.4158C184.288 65.7385 184.544 66.1219 184.719 66.5442C184.894 66.9661 184.984 67.4184 184.984 67.8754C184.984 68.3319 184.894 68.7842 184.719 69.2061C184.544 69.6285 184.288 70.0119 183.965 70.335L65.1916 189.25C64.8689 189.574 64.4855 189.831 64.0628 190.006C63.6405 190.181 63.1874 190.27 62.7301 190.27ZM8.30708 127.497L62.7301 181.873L155.895 88.7081C132.079 99.5261 106.01 104.458 79.8878 103.089C53.7824 101.759 28.162 110.495 8.30708 127.497Z" fill="black"/>
<path d="M172.682 300C172.225 300.005 171.772 299.917 171.349 299.742C170.927 299.567 170.544 299.308 170.225 298.981L110.836 239.592C110.511 239.27 110.253 238.887 110.077 238.465C109.901 238.043 109.811 237.59 109.811 237.133C109.811 236.675 109.901 236.222 110.077 235.8C110.253 235.378 110.511 234.995 110.836 234.673L229.613 115.9C230.266 115.248 231.15 114.881 232.073 114.881C232.996 114.881 233.88 115.248 234.532 115.9C235.185 116.552 235.551 117.437 235.551 118.36C235.551 119.282 235.185 120.167 234.532 120.819C234.256 121.377 201.498 155.246 203.956 219.688C204.791 234.191 202.657 248.711 197.688 262.361C192.718 276.01 185.016 288.503 175.052 299.073C174.401 299.658 173.557 299.987 172.682 300ZM118.259 237.365L172.586 291.554C189.588 271.689 198.366 246.083 197.129 219.965C195.744 193.845 200.678 167.777 211.513 143.969L118.259 237.365Z" fill="black"/>
<path d="M111.981 244.508C111.524 244.508 111.072 244.419 110.65 244.244C110.229 244.069 109.846 243.812 109.523 243.488L83.1233 217.089C81.4541 215.55 76.1656 210.223 56.6772 190.735C56.3129 190.413 56.0202 190.019 55.8187 189.577C55.6168 189.135 55.5102 188.656 55.506 188.17C55.5014 187.684 55.5995 187.203 55.7933 186.758C55.9872 186.312 56.2726 185.913 56.631 185.585L184.685 57.8115C195.898 46.595 208.225 36.552 221.477 27.8387C263.235 0.230956 295.712 0.27711 296.731 0.0001865C297.36 -0.00633889 297.978 0.158484 298.521 0.476962C299.063 0.795438 299.508 1.25554 299.808 1.80788C300.643 3.34634 300.273 36.8079 272.573 78.7308C263.725 91.9938 253.551 104.322 242.208 115.527L114.439 243.488C114.117 243.812 113.734 244.069 113.312 244.244C112.89 244.419 112.438 244.508 111.981 244.508ZM64.1002 188.231C70.5964 194.727 87.7156 211.893 88.0426 212.173L111.985 236.115L237.593 110.608C248.555 99.7381 258.366 87.7658 266.869 74.8808C287.889 42.9154 292.154 16.5617 293.269 7.18865C283.989 8.06942 257.5 12.3848 225.577 33.4502C212.693 41.9535 200.72 51.7646 189.85 62.7269L64.1002 188.231Z" fill="black"/>
<path d="M269.684 80.3119C269.236 80.3146 268.792 80.22 268.384 80.035L235.349 66.8119C234.487 66.4627 233.79 65.7985 233.399 64.9542L220.18 31.8273C219.984 31.3999 219.879 30.9368 219.87 30.4669C219.861 29.997 219.948 29.5302 220.126 29.0954C220.305 28.6606 220.571 28.267 220.907 27.9391C221.244 27.6112 221.644 27.3558 222.084 27.1889C222.512 26.9975 222.974 26.8951 223.443 26.8878C223.912 26.8805 224.378 26.9686 224.811 27.1467C225.245 27.3247 225.638 27.589 225.966 27.9235C226.295 28.258 226.552 28.6558 226.722 29.0927L239.387 60.7812L271.088 73.4465C271.873 73.72 272.534 74.2673 272.949 74.9885C273.365 75.7092 273.506 76.5558 273.348 77.3727C273.191 78.1892 272.744 78.9219 272.09 79.4365C271.436 79.9508 270.619 80.2123 269.787 80.1735L269.684 80.3119Z" fill="black"/>
<path d="M245.293 110.985C244.851 110.976 244.412 110.898 243.993 110.754L206.408 95.6731C205.967 95.4988 205.567 95.2361 205.231 94.9008C204.896 94.5654 204.633 94.1642 204.458 93.7231L189.332 56.0308C189.022 55.1754 189.058 54.2331 189.432 53.4038C189.806 52.5746 190.488 51.9238 191.334 51.5896C192.18 51.255 193.123 51.2634 193.963 51.6131C194.802 51.9627 195.473 52.6258 195.832 53.4615L210.493 89.7884L246.728 104.312C247.48 104.608 248.103 105.159 248.492 105.868C248.88 106.577 249.008 107.399 248.853 108.192C248.699 108.985 248.272 109.7 247.647 110.211C247.021 110.722 246.236 110.999 245.428 110.992L245.293 110.985Z" fill="black"/>
<path d="M216.128 140.25C215.684 140.245 215.245 140.167 214.828 140.019L177.108 124.892C176.68 124.718 176.291 124.46 175.964 124.133C175.637 123.806 175.378 123.417 175.204 122.988L159.893 85.2689C159.723 84.8423 159.639 84.3865 159.645 83.9273C159.651 83.4681 159.748 83.0146 159.929 82.5931C160.111 82.1712 160.373 81.7892 160.702 81.4688C161.031 81.1488 161.42 80.8965 161.847 80.7265C162.273 80.5565 162.729 80.4723 163.188 80.4785C163.647 80.4846 164.101 80.5812 164.523 80.7627C164.944 80.9442 165.326 81.2069 165.646 81.5358C165.967 81.865 166.219 82.2538 166.389 82.6804L180.912 119.007L217.239 133.53C217.976 133.827 218.59 134.367 218.979 135.059C219.369 135.752 219.51 136.557 219.38 137.341C219.25 138.125 218.857 138.842 218.264 139.372C217.673 139.902 216.917 140.214 216.124 140.257L216.128 140.25Z" fill="black"/>
<path d="M6.64062 163.103C32.1599 137.63 57.26 121.346 62.7331 126.823C68.2062 132.3 51.9254 157.4 26.4522 182.911L6.64062 163.103Z" fill="white"/>
<path d="M26.4504 186.396C25.9923 186.407 25.5372 186.322 25.114 186.146C24.6908 185.97 24.3089 185.708 23.9927 185.377L4.18115 165.608C3.5375 164.942 3.17773 164.051 3.17773 163.125C3.17773 162.198 3.5375 161.308 4.18115 160.642C22.2735 142.596 55.4313 114.635 65.1928 124.362C74.9544 134.088 46.9698 167.327 28.8927 185.373C28.5714 185.698 28.1886 185.955 27.7665 186.13C27.3445 186.305 26.8918 186.394 26.435 186.392L26.4504 186.396ZM11.5581 163.196L26.4042 178.042C51.789 152.062 61.9428 132.527 60.1813 129.235C56.9813 127.612 37.4888 137.773 11.5581 163.15V163.196Z" fill="black"/>
<path d="M113.867 270.124C139.386 244.605 164.486 228.366 169.959 233.843C175.433 239.32 159.148 264.42 133.679 289.935L113.867 270.124Z" fill="white"/>
<path d="M133.684 293.411C133.226 293.421 132.771 293.336 132.348 293.16C131.924 292.985 131.542 292.723 131.226 292.392L111.414 272.58C111.089 272.258 110.831 271.875 110.655 271.453C110.479 271.031 110.389 270.578 110.389 270.121C110.389 269.663 110.479 269.21 110.655 268.788C110.831 268.366 111.089 267.983 111.414 267.661C129.461 249.611 162.449 221.634 172.422 231.38C182.395 241.127 154.188 274.484 136.141 292.392C135.82 292.717 135.437 292.974 135.015 293.149C134.593 293.324 134.141 293.413 133.684 293.411ZM118.788 270.227L133.634 285.073C158.964 259.138 169.172 239.65 167.457 236.311C164.211 234.642 144.722 244.803 118.834 270.18L118.788 270.227Z" fill="black"/>
<path d="M61.8242 218.311C87.3435 192.838 112.443 176.553 117.917 182.03C123.39 187.507 107.105 212.607 81.6358 238.357L61.8242 218.311Z" fill="white"/>
<path d="M81.6659 241.578C81.2094 241.578 80.7571 241.488 80.3352 241.313C79.9136 241.138 79.5305 240.882 79.2082 240.558L59.3044 220.747C58.9809 220.425 58.724 220.042 58.5494 219.62C58.3744 219.198 58.2844 218.746 58.2852 218.289C58.2959 217.369 58.6609 216.489 59.3044 215.832C70.2994 204.564 82.409 194.44 95.4467 185.616C108.066 177.451 116.216 175.455 120.316 179.539C124.416 183.624 122.404 191.789 114.239 204.408C105.419 217.45 95.2994 229.563 84.0352 240.562C83.4009 241.184 82.5575 241.548 81.6698 241.582L81.6659 241.578ZM66.7736 218.378L81.6198 233.224C107.004 207.289 117.158 187.801 115.443 184.462C112.197 182.655 92.7082 192.955 66.7736 218.332V218.378Z" fill="black"/>
</g>
</g>
<defs>
<clipPath id="clip0_368_663">
<rect width="300" height="300" fill="white"/>
</clipPath>
</defs>
</svg>
