<svg width="300" height="300" viewBox="0 0 300 300" fill="none" xmlns="http://www.w3.org/2000/svg">
<g clip-path="url(#clip0_368_644)">
<mask id="mask0_368_644" style="mask-type:luminance" maskUnits="userSpaceOnUse" x="0" y="0" width="300" height="300">
<path d="M300 0H0V300H300V0Z" fill="white"/>
</mask>
<g mask="url(#mask0_368_644)">
<path d="M232.433 286.261H182.048C181.137 286.261 180.263 285.899 179.619 285.255C178.975 284.611 178.613 283.737 178.613 282.826C178.613 281.915 178.975 281.041 179.619 280.398C180.263 279.753 181.137 279.392 182.048 279.392H232.433C243.654 279.364 254.409 274.89 262.338 266.949C270.268 259.008 274.728 248.248 274.74 237.026V186.961C274.74 186.05 275.102 185.176 275.746 184.532C276.39 183.888 277.264 183.526 278.175 183.526C279.086 183.526 279.959 183.888 280.603 184.532C281.248 185.176 281.609 186.05 281.609 186.961V237.022C281.586 250.063 276.399 262.565 267.184 271.792C257.968 281.019 245.473 286.221 232.433 286.261Z" fill="black"/>
<path d="M168.312 299.999H131.682C127.171 299.932 122.868 298.093 119.702 294.879C116.536 291.665 114.762 287.335 114.762 282.824C114.762 278.313 116.536 273.983 119.702 270.77C122.868 267.556 127.171 265.717 131.682 265.649H168.312C172.823 265.717 177.126 267.556 180.292 270.77C183.457 273.983 185.232 278.313 185.232 282.824C185.232 287.335 183.457 291.665 180.292 294.879C177.126 298.093 172.823 299.932 168.312 299.999ZM131.67 272.518C128.937 272.518 126.316 273.605 124.383 275.537C122.45 277.47 121.364 280.091 121.364 282.824C121.364 285.558 122.45 288.179 124.383 290.111C126.316 292.044 128.937 293.13 131.67 293.13H168.312C171.046 293.13 173.667 292.044 175.6 290.111C177.532 288.179 178.618 285.558 178.618 282.824C178.618 280.091 177.532 277.47 175.6 275.537C173.667 273.605 171.046 272.518 168.312 272.518H131.67Z" fill="black"/>
<path d="M278.24 171.758C277.329 171.758 276.455 171.396 275.811 170.752C275.167 170.108 274.805 169.234 274.805 168.323V139.831C274.805 86.7 218.79 43.6461 149.997 43.6461C81.205 43.6461 25.2012 86.8384 25.2012 139.831V168.319C25.2012 169.23 24.8393 170.104 24.1952 170.748C23.5511 171.392 22.6775 171.754 21.7666 171.754C20.8557 171.754 19.9821 171.392 19.338 170.748C18.6938 170.104 18.332 169.23 18.332 168.319V131.681C18.2382 114.328 21.575 97.1288 28.1504 81.0704C34.7259 65.0123 44.4103 50.4119 56.6473 38.1085C68.8842 25.8054 83.4319 16.0422 99.4546 9.38001C115.477 2.71786 132.658 -0.711792 150.011 -0.711792C167.363 -0.711792 184.545 2.71786 200.567 9.38001C216.59 16.0422 231.138 25.8054 243.375 38.1085C255.611 50.4119 265.296 65.0123 271.871 81.0704C278.447 97.1288 281.783 114.328 281.69 131.681V168.323C281.678 169.23 281.312 170.097 280.67 170.738C280.029 171.38 279.162 171.746 278.255 171.758H278.24ZM149.997 36.6422C203.309 36.6422 249.293 61.6038 270.182 97.3769C262.712 71.3107 246.96 48.3846 225.307 32.0644C203.653 15.7442 177.274 6.9169 150.159 6.9169C123.044 6.9169 96.6654 15.7442 75.0115 32.0644C53.3577 48.3846 37.6054 71.3107 30.1359 97.3769C50.6511 61.6038 96.6819 36.6422 149.997 36.6422Z" fill="black"/>
<path d="M250.766 131.68C262.913 131.68 274.563 136.506 283.153 145.095C291.742 153.685 296.568 165.335 296.568 177.482C296.568 189.629 291.742 201.279 283.153 209.869C274.563 218.458 262.913 223.284 250.766 223.284V131.68Z" fill="white"/>
<path d="M149.987 208.397C149.077 208.397 148.203 208.035 147.559 207.391C146.915 206.747 146.553 205.873 146.553 204.962V168.32C146.553 167.409 146.915 166.535 147.559 165.891C148.203 165.247 149.077 164.885 149.987 164.885C150.898 164.885 151.772 165.247 152.416 165.891C153.06 166.535 153.422 167.409 153.422 168.32V204.962C153.41 205.869 153.044 206.736 152.403 207.377C151.761 208.019 150.895 208.385 149.987 208.397Z" fill="black"/>
<path d="M156.874 208.396H143.12C142.209 208.396 141.336 208.034 140.691 207.39C140.047 206.746 139.686 205.872 139.686 204.961C139.686 204.05 140.047 203.177 140.691 202.533C141.336 201.889 142.209 201.527 143.12 201.527H156.862C157.773 201.527 158.647 201.889 159.291 202.533C159.935 203.177 160.297 204.05 160.297 204.961C160.297 205.872 159.935 206.746 159.291 207.39C158.647 208.034 157.773 208.396 156.862 208.396H156.874Z" fill="black"/>
<path d="M156.874 171.754H143.12C142.209 171.754 141.336 171.392 140.691 170.748C140.047 170.104 139.686 169.231 139.686 168.32C139.686 167.409 140.047 166.535 140.691 165.891C141.336 165.247 142.209 164.885 143.12 164.885H156.862C157.773 164.885 158.647 165.247 159.291 165.891C159.935 166.535 160.297 167.409 160.297 168.32C160.297 169.231 159.935 170.104 159.291 170.748C158.647 171.392 157.773 171.754 156.862 171.754H156.874Z" fill="black"/>
<path d="M149.999 159.162C152.529 159.162 154.58 157.111 154.58 154.581C154.58 152.051 152.529 150 149.999 150C147.469 150 145.418 152.051 145.418 154.581C145.418 157.111 147.469 159.162 149.999 159.162Z" fill="black"/>
<path d="M108.769 254.199C108.246 254.214 107.728 254.105 107.257 253.88C106.675 253.595 106.186 253.151 105.846 252.6C105.506 252.049 105.328 251.413 105.334 250.765V136.261C105.334 134.606 105.66 132.967 106.294 131.438C106.928 129.909 107.856 128.52 109.027 127.35C110.198 126.18 111.588 125.253 113.118 124.62C114.647 123.988 116.286 123.663 117.942 123.665H182.065C185.405 123.665 188.609 124.992 190.971 127.354C193.334 129.716 194.661 132.92 194.661 136.261V218.703C194.661 222.044 193.334 225.248 190.971 227.61C188.609 229.972 185.405 231.299 182.065 231.299H138.826L110.888 253.468C110.292 253.951 109.547 254.211 108.78 254.203L108.769 254.199ZM117.93 130.534C116.416 130.541 114.966 131.148 113.898 132.221C112.83 133.294 112.23 134.747 112.23 136.261V243.665L135.496 225.345C136.114 224.872 136.871 224.615 137.65 224.611H182.065C182.827 224.6 183.579 224.437 184.278 224.133C184.976 223.83 185.608 223.39 186.136 222.841C186.665 222.292 187.079 221.643 187.355 220.933C187.631 220.223 187.764 219.465 187.746 218.703V136.261C187.735 134.745 187.128 133.295 186.056 132.223C184.984 131.152 183.534 130.545 182.019 130.534H117.93Z" fill="black"/>
<path d="M67.5136 235.877H58.352C55.012 235.877 51.8086 234.55 49.4466 232.188C47.0843 229.827 45.7566 226.624 45.7559 223.284V131.68C45.7559 128.34 47.0828 125.136 49.4451 122.773C51.8074 120.412 55.0112 119.084 58.352 119.084H67.5136C70.8543 119.084 74.0582 120.412 76.4205 122.773C78.7824 125.136 80.1097 128.34 80.1097 131.68V223.284C80.1097 226.625 78.7824 229.829 76.4205 232.191C74.0582 234.553 70.8543 235.877 67.5136 235.877ZM58.352 125.953C56.8332 125.953 55.3762 126.557 54.3024 127.631C53.2286 128.705 52.6251 130.162 52.6251 131.68V223.284C52.6251 224.803 53.2286 226.26 54.3024 227.334C55.3762 228.408 56.8332 229.011 58.352 229.011H67.5136C68.2655 229.011 69.0101 228.863 69.7051 228.575C70.4001 228.287 71.0312 227.866 71.5632 227.334C72.0947 226.802 72.5166 226.171 72.8043 225.476C73.0924 224.781 73.2405 224.037 73.2405 223.284V131.68C73.2405 130.928 73.0924 130.184 72.8043 129.489C72.5166 128.794 72.0947 128.163 71.5632 127.631C71.0312 127.099 70.4001 126.677 69.7051 126.39C69.0101 126.102 68.2655 125.953 67.5136 125.953H58.352Z" fill="black"/>
<path d="M241.603 235.876H232.445C230.787 235.883 229.145 235.561 227.612 234.931C226.078 234.301 224.684 233.375 223.51 232.205C222.335 231.035 221.404 229.645 220.767 228.114C220.131 226.583 219.804 224.942 219.803 223.284V131.68C219.803 130.022 220.13 128.381 220.766 126.85C221.402 125.318 222.334 123.928 223.509 122.757C224.683 121.587 226.077 120.66 227.611 120.03C229.144 119.4 230.787 119.078 232.445 119.084H241.607C244.947 119.084 248.151 120.411 250.514 122.774C252.876 125.136 254.203 128.34 254.203 131.68V223.284C254.203 226.625 252.876 229.829 250.514 232.191C248.151 234.553 244.947 235.88 241.607 235.88L241.603 235.876ZM232.441 125.953C230.924 125.956 229.471 126.561 228.399 127.635C227.328 128.709 226.726 130.163 226.726 131.68V223.284C226.726 224.803 227.329 226.26 228.404 227.334C229.477 228.408 230.934 229.011 232.453 229.011H241.614C243.125 228.999 244.57 228.39 245.634 227.318C246.698 226.245 247.295 224.795 247.295 223.284V131.68C247.295 130.161 246.692 128.705 245.618 127.631C244.544 126.557 243.087 125.953 241.568 125.953H232.441Z" fill="black"/>
<path d="M250.753 226.703C249.843 226.703 248.969 226.342 248.325 225.697C247.681 225.053 247.319 224.18 247.319 223.269V131.677C247.313 131.223 247.397 130.774 247.568 130.355C247.738 129.935 247.991 129.554 248.311 129.234C248.631 128.914 249.012 128.661 249.432 128.49C249.851 128.32 250.301 128.235 250.753 128.242C263.81 128.242 276.332 133.428 285.565 142.661C294.797 151.894 299.984 164.416 299.984 177.473C299.984 190.529 294.797 203.052 285.565 212.284C276.332 221.517 263.81 226.703 250.753 226.703ZM254.215 135.111V219.846C264.828 218.992 274.731 214.172 281.952 206.347C289.172 198.522 293.182 188.265 293.182 177.617C293.182 166.969 289.172 156.712 281.952 148.887C274.731 141.062 264.828 136.242 254.215 135.388V135.111Z" fill="black"/>
<path d="M49.2356 131.68C37.0881 131.68 25.4382 136.506 16.8487 145.095C8.25914 153.685 3.43359 165.335 3.43359 177.482C3.43359 189.629 8.25914 201.279 16.8487 209.869C25.4382 218.458 37.0881 223.284 49.2356 223.284V131.68Z" fill="white"/>
<path d="M49.2384 226.703C50.1495 226.703 51.023 226.342 51.6672 225.697C52.3115 225.053 52.6734 224.18 52.6734 223.269V131.677C52.6795 131.223 52.5949 130.774 52.4245 130.355C52.2541 129.935 52.0011 129.554 51.6811 129.234C51.3607 128.914 50.9799 128.661 50.5603 128.49C50.1407 128.32 49.6915 128.235 49.2384 128.242C36.1818 128.242 23.6597 133.428 14.4271 142.661C5.19461 151.894 0.0078125 164.416 0.0078125 177.473C0.0078125 190.529 5.19461 203.052 14.4271 212.284C23.6597 221.517 36.1818 226.703 49.2384 226.703ZM45.8041 135.1V219.846C35.1906 218.992 25.288 214.172 18.0673 206.347C10.8466 198.522 6.83715 188.265 6.83715 177.617C6.83715 166.969 10.8466 156.712 18.0673 148.887C25.288 141.062 35.1906 136.242 45.8041 135.388V135.1Z" fill="black"/>
</g>
</g>
<defs>
<clipPath id="clip0_368_644">
<rect width="300" height="300" fill="white"/>
</clipPath>
</defs>
</svg>
