<svg width="300" height="300" viewBox="0 0 300 300" fill="none" xmlns="http://www.w3.org/2000/svg">
<g clip-path="url(#clip0_368_736)">
<path d="M223.285 300H21.7577C18.9006 300 16.0714 299.438 13.4317 298.345C10.7919 297.252 8.39335 295.65 6.37292 293.63C4.35246 291.61 2.74975 289.212 1.65628 286.572C0.562808 283.932 -4.46554e-08 281.103 0 278.246V21.7538C-4.46554e-08 18.8968 0.562808 16.0677 1.65628 13.4281C2.74975 10.7886 4.35246 8.39027 6.37292 6.37019C8.39335 4.35012 10.7919 2.74782 13.4317 1.65481C16.0714 0.561804 18.9006 -0.0005048 21.7577 3.40035e-07H223.296C229.063 0.00305947 234.594 2.29633 238.671 6.37562C242.748 10.4549 245.038 15.9864 245.038 21.7538V278.246C245.038 281.103 244.476 283.932 243.383 286.571C242.289 289.21 240.687 291.608 238.667 293.628C236.647 295.648 234.249 297.251 231.61 298.344C228.97 299.437 226.142 300 223.285 300ZM21.7577 6.86923C17.8138 6.88142 14.0349 8.4535 11.2461 11.2423C8.45735 14.031 6.88523 17.81 6.87308 21.7538V278.246C6.88523 282.19 8.45735 285.969 11.2461 288.758C14.0349 291.547 17.8138 293.118 21.7577 293.131H223.296C227.24 293.118 231.019 291.547 233.808 288.758C236.597 285.969 238.168 282.19 238.181 278.246V21.7538C238.168 17.81 236.597 14.031 233.808 11.2423C231.019 8.4535 227.24 6.88142 223.296 6.86923H21.7577Z" fill="black"/>
<path d="M204.959 272.519H40.0746C36.7346 272.519 33.5313 271.192 31.1692 268.831C28.8071 266.469 27.4796 263.267 27.4785 259.927V76.7188C27.4785 73.3781 28.8056 70.1742 31.1679 67.8119C33.5301 65.4496 36.734 64.1227 40.0746 64.1227H204.959C208.3 64.1227 211.504 65.4496 213.866 67.8119C216.228 70.1742 217.555 73.3781 217.555 76.7188V259.927C217.555 263.267 216.227 266.469 213.865 268.831C211.503 271.192 208.299 272.519 204.959 272.519ZM40.0746 70.9804C39.3226 70.9804 38.578 71.1284 37.8831 71.4161C37.1882 71.7038 36.5569 72.1258 36.0251 72.6577C35.4933 73.1896 35.0715 73.8208 34.7837 74.5158C34.4959 75.2104 34.3477 75.955 34.3477 76.7073V259.927C34.3467 260.679 34.4941 261.425 34.7815 262.12C35.0688 262.816 35.4905 263.448 36.0224 263.981C36.5543 264.513 37.186 264.936 37.8813 265.224C38.5765 265.513 39.3219 265.661 40.0746 265.661H204.959C206.478 265.661 207.935 265.058 209.009 263.984C210.083 262.91 210.686 261.453 210.686 259.934V76.7188C210.686 75.2 210.083 73.7431 209.009 72.6692C207.935 71.5954 206.478 70.9919 204.959 70.9919L40.0746 70.9804Z" fill="black"/>
<path d="M288.875 186.642H66.0907C61.8423 186.642 58.3984 190.086 58.3984 194.334V224.75C58.3984 228.998 61.8423 232.442 66.0907 232.442H288.875C293.124 232.442 296.568 228.998 296.568 224.75V194.334C296.568 190.086 293.124 186.642 288.875 186.642Z" fill="white"/>
<path d="M269.084 104.199H104.199V149.999H269.084V104.199Z" fill="white"/>
<path d="M269.089 153.435H104.2C103.292 153.423 102.424 153.057 101.782 152.413C101.141 151.77 100.776 150.902 100.766 149.993V104.197C100.778 103.29 101.143 102.423 101.785 101.782C102.426 101.14 103.293 100.774 104.2 100.762H269.085C269.996 100.762 270.869 101.124 271.514 101.768C272.158 102.413 272.519 103.286 272.519 104.197V149.993C272.521 150.445 272.433 150.892 272.261 151.309C272.089 151.727 271.836 152.106 271.518 152.425C271.199 152.745 270.821 152.999 270.404 153.172C269.987 153.345 269.54 153.435 269.089 153.435ZM107.635 146.562H265.65V107.632H107.635V146.562Z" fill="black"/>
<path d="M287.406 153.435H269.083C268.174 153.423 267.307 153.057 266.665 152.413C266.023 151.77 265.658 150.902 265.648 149.993V104.197C265.66 103.29 266.026 102.423 266.667 101.782C267.309 101.14 268.176 100.774 269.083 100.762H287.402C290.743 100.762 293.947 102.09 296.309 104.452C298.671 106.814 299.998 110.018 299.998 113.358V140.839C299.998 144.18 298.672 147.383 296.31 149.745C293.949 152.107 290.746 153.435 287.406 153.435ZM272.522 146.566H287.406C288.158 146.566 288.903 146.418 289.598 146.13C290.292 145.843 290.924 145.421 291.455 144.889C291.987 144.357 292.409 143.726 292.697 143.031C292.985 142.336 293.133 141.592 293.133 140.839V113.358C293.133 111.84 292.53 110.383 291.455 109.309C290.382 108.235 288.925 107.632 287.406 107.632H272.522V146.566Z" fill="black"/>
<path d="M287.401 235.88H67.5551C64.2144 235.88 61.0105 234.553 58.6482 232.191C56.2859 229.828 54.959 226.625 54.959 223.284V195.803C54.959 192.462 56.2859 189.258 58.6482 186.896C61.0105 184.534 64.2144 183.207 67.5551 183.207H287.401C289.055 183.207 290.693 183.533 292.221 184.166C293.75 184.799 295.138 185.727 296.308 186.896C297.478 188.066 298.406 189.455 299.039 190.983C299.672 192.511 299.997 194.149 299.997 195.803V223.284C299.997 224.938 299.672 226.576 299.039 228.104C298.406 229.632 297.478 231.021 296.308 232.191C295.138 233.36 293.75 234.288 292.221 234.921C290.693 235.554 289.055 235.88 287.401 235.88ZM67.5551 190.076C66.8028 190.076 66.0582 190.224 65.3632 190.512C64.6686 190.8 64.0371 191.222 63.5055 191.753C62.9736 192.285 62.5517 192.917 62.264 193.612C61.9763 194.306 61.8282 195.051 61.8282 195.803V223.284C61.8282 224.036 61.9763 224.781 62.264 225.475C62.5517 226.17 62.9736 226.802 63.5055 227.333C64.0371 227.865 64.6686 228.287 65.3632 228.575C66.0582 228.863 66.8028 229.011 67.5551 229.011H287.401C288.92 229.011 290.377 228.407 291.451 227.333C292.525 226.259 293.128 224.803 293.128 223.284V195.803C293.128 194.284 292.525 192.827 291.451 191.753C290.377 190.68 288.92 190.076 287.401 190.076H67.5551Z" fill="black"/>
<path d="M104.188 153.443C103.661 153.431 103.144 153.299 102.676 153.058L56.8802 130.17C56.3044 129.888 55.819 129.45 55.479 128.906C55.139 128.362 54.9583 127.734 54.9571 127.093C54.9529 126.45 55.1313 125.82 55.4721 125.275C55.8125 124.73 56.301 124.294 56.8802 124.016L102.684 101.135C103.192 100.842 103.768 100.687 104.355 100.687C104.942 100.687 105.518 100.842 106.026 101.135C106.521 101.447 106.928 101.88 107.209 102.392C107.489 102.905 107.634 103.481 107.63 104.066V149.862C107.634 150.447 107.489 151.023 107.209 151.536C106.928 152.048 106.521 152.481 106.026 152.793C105.485 153.167 104.852 153.389 104.196 153.435L104.188 153.443ZM66.0802 127.108L100.753 144.466V109.923L66.0802 127.108Z" fill="black"/>
<path d="M204.955 48.0927H168.321C164.98 48.0927 161.776 46.7658 159.414 44.4035C157.052 42.0412 155.725 38.8373 155.725 35.4965C155.725 32.1559 157.052 28.952 159.414 26.5897C161.776 24.2275 164.98 22.9004 168.321 22.9004H204.955C208.296 22.9004 211.5 24.2275 213.862 26.5897C216.224 28.952 217.552 32.1559 217.552 35.4965C217.552 38.8373 216.224 42.0412 213.862 44.4035C211.5 46.7658 208.296 48.0927 204.955 48.0927ZM168.321 29.7696C166.828 29.8083 165.41 30.4285 164.367 31.4979C163.325 32.5673 162.742 34.0015 162.742 35.4946C162.742 36.9878 163.325 38.4219 164.367 39.4915C165.41 40.5608 166.828 41.1808 168.321 41.2196H204.955C206.448 41.1808 207.867 40.5608 208.908 39.4915C209.951 38.4219 210.534 36.9878 210.534 35.4946C210.534 34.0015 209.951 32.5673 208.908 31.4979C207.867 30.4285 206.448 29.8083 204.955 29.7696H168.321Z" fill="black"/>
<path d="M76.7092 48.0927H40.0746C36.734 48.0927 33.5301 46.7658 31.1679 44.4035C28.8056 42.0412 27.4785 38.8373 27.4785 35.4965C27.4785 32.1559 28.8056 28.952 31.1679 26.5897C33.5301 24.2275 36.734 22.9004 40.0746 22.9004H76.7092C80.0499 22.9004 83.2538 24.2275 85.6161 26.5897C87.9784 28.952 89.3053 32.1559 89.3053 35.4965C89.3053 38.8373 87.9784 42.0412 85.6161 44.4035C83.2538 46.7658 80.0499 48.0927 76.7092 48.0927ZM40.0746 29.7696C38.5819 29.8083 37.1635 30.4285 36.1214 31.4979C35.0793 32.5673 34.4962 34.0015 34.4962 35.4946C34.4962 36.9878 35.0793 38.4219 36.1214 39.4915C37.1635 40.5608 38.5819 41.1808 40.0746 41.2196H76.7092C77.4734 41.2396 78.2342 41.1062 78.9461 40.8273C79.658 40.5485 80.3069 40.13 80.8546 39.5962C81.4019 39.0627 81.8373 38.4249 82.1346 37.7205C82.4315 37.016 82.5846 36.2592 82.5846 35.4946C82.5846 34.7301 82.4315 33.9732 82.1346 33.2688C81.8373 32.5644 81.4019 31.9265 80.8546 31.393C80.3069 30.8594 79.658 30.4409 78.9461 30.162C78.2342 29.8832 77.4734 29.7498 76.7092 29.7696H40.0746Z" fill="black"/>
<path d="M122.522 54.9615C118.672 54.9615 114.909 53.8196 111.708 51.6808C108.507 49.5419 106.012 46.5019 104.538 42.945C103.065 39.3884 102.68 35.4744 103.431 31.6985C104.182 27.9226 106.036 24.4542 108.758 21.7319C111.48 19.0096 114.948 17.1558 118.725 16.4047C122.5 15.6536 126.414 16.0391 129.971 17.5124C133.528 18.9856 136.568 21.4806 138.707 24.6816C140.846 27.8827 141.987 31.6461 141.987 35.496C141.987 40.6584 139.937 45.6096 136.286 49.26C132.636 52.9108 127.685 54.9615 122.522 54.9615ZM122.522 22.8999C120.031 22.8999 117.595 23.6386 115.524 25.0227C113.453 26.4068 111.838 28.374 110.885 30.6757C109.931 32.9773 109.682 35.51 110.168 37.9534C110.654 40.3969 111.853 42.6411 113.615 44.4027C115.377 46.1646 117.621 47.3642 120.065 47.85C122.508 48.3361 125.041 48.0869 127.342 47.1334C129.644 46.18 131.611 44.5654 132.995 42.4942C134.379 40.4227 135.118 37.9873 135.118 35.496C135.118 32.1553 133.791 28.9514 131.429 26.5892C129.067 24.2269 125.863 22.8999 122.522 22.8999Z" fill="black"/>
<path d="M58.3936 48.0927C57.4824 48.0927 56.609 47.7308 55.9648 47.0865C55.3205 46.4427 54.959 45.5689 54.959 44.6581V26.335C54.959 25.4241 55.3205 24.5505 55.9648 23.9064C56.609 23.2623 57.4824 22.9004 58.3936 22.9004C59.3044 22.9004 60.1778 23.2623 60.8221 23.9064C61.4663 24.5505 61.8282 25.4241 61.8282 26.335V44.6542C61.8171 45.5619 61.4517 46.4296 60.8101 47.0723C60.1686 47.7146 59.3013 48.0808 58.3936 48.0927Z" fill="black"/>
<path d="M186.646 48.0927C185.738 48.0808 184.872 47.715 184.23 47.0735C183.589 46.4319 183.223 45.5654 183.211 44.6581V26.335C183.211 25.4241 183.573 24.5505 184.217 23.9064C184.861 23.2623 185.734 22.9004 186.646 22.9004C187.556 22.9004 188.43 23.2623 189.074 23.9064C189.718 24.5505 190.08 25.4241 190.08 26.335V44.6542C190.081 45.1058 189.992 45.5527 189.82 45.9696C189.647 46.3869 189.394 46.7662 189.076 47.0854C188.756 47.4046 188.377 47.6581 187.961 47.8308C187.544 48.0039 187.097 48.0927 186.646 48.0927Z" fill="black"/>
<path d="M269.089 130.534H104.2C103.749 130.534 103.303 130.445 102.886 130.273C102.469 130.1 102.091 129.847 101.772 129.528C101.453 129.209 101.2 128.83 101.027 128.414C100.854 127.997 100.766 127.55 100.766 127.099C100.766 126.648 100.854 126.202 101.027 125.785C101.2 125.368 101.453 124.99 101.772 124.671C102.091 124.352 102.469 124.099 102.886 123.926C103.303 123.753 103.749 123.665 104.2 123.665H269.085C269.996 123.665 270.869 124.027 271.514 124.671C272.158 125.315 272.519 126.188 272.519 127.099C272.519 128.01 272.158 128.884 271.514 129.528C270.869 130.172 269.996 130.534 269.085 130.534H269.089Z" fill="black"/>
<path d="M269.083 158.015C268.176 158.003 267.309 157.637 266.667 156.995C266.026 156.354 265.66 155.487 265.648 154.58V99.6185C265.648 98.7077 266.01 97.8338 266.654 97.19C267.298 96.5458 268.172 96.1838 269.083 96.1838C269.994 96.1838 270.867 96.5458 271.512 97.19C272.156 97.8338 272.518 98.7077 272.518 99.6185V154.58C272.518 155.491 272.156 156.365 271.512 157.009C270.867 157.653 269.994 158.015 269.083 158.015Z" fill="black"/>
<path d="M266.798 235.88C265.887 235.88 265.013 235.518 264.369 234.874C263.725 234.23 263.363 233.356 263.363 232.445V214.122C263.363 213.212 263.725 212.338 264.369 211.694C265.013 211.05 265.887 210.688 266.798 210.688C267.709 210.688 268.583 211.05 269.227 211.694C269.871 212.338 270.232 213.212 270.232 214.122V232.442C270.239 232.894 270.154 233.344 269.984 233.763C269.813 234.183 269.561 234.564 269.241 234.884C268.92 235.204 268.539 235.457 268.119 235.627C267.7 235.798 267.251 235.886 266.798 235.88Z" fill="black"/>
<path d="M237.021 235.88C236.57 235.88 236.123 235.791 235.706 235.618C235.289 235.446 234.911 235.193 234.592 234.874C234.273 234.555 234.02 234.177 233.847 233.76C233.675 233.343 233.586 232.897 233.586 232.445V214.122C233.586 213.212 233.948 212.338 234.592 211.694C235.236 211.05 236.11 210.688 237.021 210.688C237.932 210.688 238.805 211.05 239.449 211.694C240.093 212.338 240.455 213.212 240.455 214.122V232.442C240.461 232.894 240.377 233.344 240.206 233.763C240.036 234.183 239.783 234.564 239.463 234.884C239.143 235.204 238.762 235.457 238.342 235.627C237.923 235.798 237.473 235.886 237.021 235.88Z" fill="black"/>
<path d="M207.251 235.88C206.34 235.88 205.466 235.518 204.822 234.874C204.178 234.23 203.816 233.356 203.816 232.445V214.122C203.816 213.212 204.178 212.338 204.822 211.694C205.466 211.05 206.34 210.688 207.251 210.688C208.162 210.688 209.036 211.05 209.679 211.694C210.324 212.338 210.686 213.212 210.686 214.122V232.442C210.692 232.894 210.607 233.344 210.437 233.763C210.266 234.183 210.014 234.564 209.693 234.884C209.373 235.204 208.992 235.457 208.573 235.627C208.153 235.798 207.704 235.886 207.251 235.88Z" fill="black"/>
<path d="M177.481 235.88C176.57 235.88 175.697 235.518 175.053 234.874C174.408 234.23 174.047 233.356 174.047 232.445V214.122C174.047 213.212 174.408 212.338 175.053 211.694C175.697 211.05 176.57 210.688 177.481 210.688C178.392 210.688 179.266 211.05 179.91 211.694C180.554 212.338 180.916 213.212 180.916 214.122V232.442C180.922 232.894 180.838 233.344 180.667 233.763C180.497 234.183 180.244 234.564 179.924 234.884C179.604 235.204 179.223 235.457 178.803 235.627C178.383 235.798 177.934 235.886 177.481 235.88Z" fill="black"/>
<path d="M147.71 235.88C146.799 235.88 145.925 235.518 145.282 234.874C144.637 234.23 144.275 233.356 144.275 232.445V214.122C144.275 213.212 144.637 212.338 145.282 211.694C145.925 211.05 146.799 210.688 147.71 210.688C148.621 210.688 149.495 211.05 150.139 211.694C150.783 212.338 151.145 213.212 151.145 214.122V232.442C151.151 232.894 151.066 233.344 150.896 233.763C150.725 234.183 150.473 234.564 150.153 234.884C149.832 235.204 149.451 235.457 149.032 235.627C148.612 235.798 148.163 235.886 147.71 235.88Z" fill="black"/>
<path d="M117.94 235.88C117.029 235.88 116.156 235.518 115.512 234.874C114.868 234.23 114.506 233.356 114.506 232.445V214.122C114.506 213.212 114.868 212.338 115.512 211.694C116.156 211.05 117.029 210.688 117.94 210.688C118.851 210.688 119.725 211.05 120.369 211.694C121.013 212.338 121.375 213.212 121.375 214.122V232.442C121.381 232.894 121.297 233.344 121.126 233.763C120.956 234.183 120.703 234.564 120.383 234.884C120.063 235.204 119.682 235.457 119.262 235.627C118.842 235.798 118.393 235.886 117.94 235.88Z" fill="black"/>
<path d="M88.1709 235.88C87.2602 235.88 86.3867 235.518 85.7425 234.874C85.0983 234.23 84.7367 233.356 84.7363 232.445V214.122C84.7367 213.212 85.0983 212.338 85.7425 211.694C86.3867 211.05 87.2602 210.688 88.1709 210.688C89.0821 210.688 89.9556 211.05 90.5998 211.694C91.244 212.338 91.6056 213.212 91.6056 214.122V232.442C91.6121 232.894 91.5275 233.344 91.3571 233.763C91.1867 234.183 90.9336 234.564 90.6136 234.884C90.2932 235.204 89.9125 235.457 89.4929 235.627C89.0733 235.798 88.624 235.886 88.1709 235.88Z" fill="black"/>
</g>
<defs>
<clipPath id="clip0_368_736">
<rect width="300" height="300" fill="white"/>
</clipPath>
</defs>
</svg>
