<svg width="300" height="300" viewBox="0 0 300 300" fill="none" xmlns="http://www.w3.org/2000/svg">
<g clip-path="url(#clip0_368_759)">
<mask id="mask0_368_759" style="mask-type:luminance" maskUnits="userSpaceOnUse" x="0" y="0" width="300" height="300">
<path d="M300 0H0V300H300V0Z" fill="white"/>
</mask>
<g mask="url(#mask0_368_759)">
<path d="M150 300C120.333 300 91.3319 291.203 66.6646 274.72C41.9973 258.238 22.7713 234.812 11.4182 207.403C0.0649911 179.994 -2.90551 149.834 2.88228 120.737C8.67008 91.6392 22.9562 64.9119 43.9342 43.9342C64.9119 22.9562 91.6392 8.67008 120.737 2.88228C149.834 -2.90551 179.994 0.0649911 207.403 11.4182C234.812 22.7713 258.238 41.9973 274.72 66.6646C291.203 91.3319 300 120.333 300 150C300 189.783 284.197 227.936 256.066 256.066C227.936 284.197 189.783 300 150 300ZM150 6.86931C121.692 6.86931 94.0185 15.2638 70.4808 30.9912C46.9431 46.7185 28.5977 69.0727 17.7645 95.2262C6.93127 121.38 4.09677 150.159 9.6195 177.923C15.1422 205.688 28.7741 231.192 48.7912 251.209C68.8085 271.226 94.3119 284.858 122.077 290.381C149.841 295.903 178.62 293.069 204.774 282.236C230.928 271.402 253.282 253.057 269.009 229.519C284.736 205.982 293.131 178.309 293.131 150C293.131 112.04 278.051 75.6335 251.209 48.7912C224.367 21.9491 187.961 6.86931 150 6.86931Z" fill="black"/>
<path d="M81.3005 45.1158C80.5589 45.1181 79.8366 44.88 79.2412 44.4377C78.6459 43.9954 78.2101 43.3723 77.9982 42.6616C77.7866 41.9508 77.8109 41.1904 78.067 40.4946C78.3232 39.7985 78.7978 39.2042 79.4197 38.8004C83.8462 36.0237 88.4351 33.5154 93.162 31.2888C93.5659 31.0808 94.0078 30.9572 94.4609 30.9257C94.9139 30.8941 95.3689 30.9553 95.7974 31.1054C96.2262 31.2555 96.6197 31.4914 96.9543 31.7987C97.2889 32.106 97.557 32.4782 97.7428 32.8927C97.9443 33.2977 98.0628 33.7389 98.0909 34.1904C98.1189 34.6419 98.0566 35.0944 97.907 35.5213C97.7574 35.9482 97.5243 36.3409 97.2205 36.6762C96.917 37.0114 96.5493 37.2826 96.1389 37.4734C91.7289 39.6027 87.447 41.9889 83.3159 44.6196C82.7166 45.0008 82.0085 45.175 81.3005 45.1158Z" fill="black"/>
<path d="M23.7747 130.812H23.1324C22.2408 130.646 21.4512 130.133 20.936 129.387C20.4208 128.64 20.2218 127.72 20.3824 126.827C25.5904 97.8281 40.3475 71.4034 62.3056 51.758C62.9902 51.1615 63.881 50.8557 64.7879 50.9069C65.6948 50.958 66.546 51.3615 67.1594 52.0311C67.4606 52.3677 67.6925 52.7604 67.8418 53.1865C67.991 53.6127 68.0548 54.0638 68.0294 54.515C68.0041 54.9657 67.8898 55.4069 67.6937 55.8138C67.4975 56.2204 67.2233 56.5846 66.8864 56.885C46.0879 75.4954 32.0895 100.51 27.1055 127.97C26.9678 128.757 26.5597 129.472 25.9518 129.99C25.3438 130.509 24.5739 130.8 23.7747 130.812Z" fill="black"/>
<path d="M150.001 153.435H149.132C148.398 153.235 147.749 152.799 147.286 152.196C146.823 151.592 146.57 150.853 146.566 150.092V3.43462C146.566 2.5237 146.928 1.65009 147.573 1.00598C148.216 0.36186 149.09 0 150.001 0C150.912 0 151.786 0.36186 152.43 1.00598C153.074 1.65009 153.436 2.5237 153.436 3.43462V136.946L219.116 20.7038C219.559 19.9315 220.287 19.3643 221.144 19.1247C222.001 18.885 222.918 18.9922 223.697 19.4231C224.468 19.8655 225.038 20.5896 225.286 21.4431C225.534 22.2967 225.441 23.2132 225.028 24L152.982 151.692C152.691 152.227 152.259 152.671 151.734 152.978C151.209 153.285 150.609 153.443 150.001 153.435Z" fill="black"/>
<path d="M68.0626 274.811C67.383 274.812 66.7164 274.621 66.1395 274.261C65.4376 273.753 64.953 273 64.7834 272.15C64.6137 271.3 64.771 270.418 65.2241 269.68L147.147 148.076C147.563 147.451 148.176 146.983 148.89 146.749L288.001 100.349C288.87 100.085 289.807 100.167 290.618 100.577C291.428 100.987 292.049 101.693 292.351 102.549C292.494 102.979 292.55 103.433 292.517 103.885C292.484 104.337 292.361 104.778 292.157 105.182C291.952 105.587 291.67 105.947 291.326 106.241C290.981 106.536 290.582 106.76 290.151 106.899L152.197 152.703L70.901 273.434C70.5749 273.876 70.146 274.232 69.6514 274.471C69.1568 274.71 68.6118 274.829 68.0626 274.811Z" fill="black"/>
<path d="M272.296 234.228C271.555 234.262 270.825 234.035 270.235 233.585L148.123 152.885C147.414 152.385 146.918 151.637 146.732 150.79C146.545 149.943 146.682 149.056 147.115 148.305C147.609 147.587 148.357 147.084 149.207 146.897C150.057 146.71 150.947 146.853 151.696 147.297L274.004 228.089C274.721 228.583 275.224 229.33 275.411 230.181C275.598 231.031 275.455 231.921 275.012 232.67C274.709 233.121 274.307 233.496 273.836 233.767C273.365 234.037 272.838 234.195 272.296 234.228Z" fill="black"/>
<path d="M150.006 250.761C205.657 250.761 250.771 205.648 250.771 149.999C250.771 94.35 205.657 49.2377 150.006 49.2377C94.3545 49.2377 49.2402 94.35 49.2402 149.999C49.2402 205.648 94.3545 250.761 150.006 250.761Z" fill="white"/>
<path d="M149.997 254.197C129.388 254.198 109.241 248.087 92.105 236.638C74.9688 225.188 61.6126 208.915 53.7253 189.875C45.8384 170.834 43.7746 149.883 47.795 129.67C51.8153 109.457 61.7396 90.8892 76.3123 76.3165C90.8853 61.7439 109.452 51.8196 129.665 47.7992C149.878 43.7785 170.83 45.8423 189.87 53.7296C208.91 61.6165 225.184 74.9727 236.634 92.1092C248.083 109.245 254.194 129.392 254.193 150.001C254.192 177.635 243.214 204.137 223.673 223.678C204.133 243.218 177.631 254.196 149.997 254.197ZM149.997 52.6585C130.748 52.6608 111.933 58.3704 95.9296 69.0658C79.9261 79.7608 67.453 94.9612 60.088 112.745C52.723 130.528 50.7965 150.096 54.5519 168.975C58.3073 187.853 67.5761 205.194 81.1865 218.805C94.7969 232.415 112.137 241.685 131.016 245.441C149.894 249.197 169.462 247.272 187.246 239.907C205.03 232.543 220.23 220.07 230.926 204.067C241.622 188.064 247.332 169.249 247.335 150.001C247.336 137.218 244.818 124.561 239.926 112.752C235.035 100.942 227.865 90.2119 218.826 81.1739C209.787 72.1358 199.056 64.9665 187.246 60.0758C175.437 55.185 162.779 52.6685 149.997 52.67V52.6585Z" fill="black"/>
<path d="M149.997 254.2C145.251 254.2 140.511 253.865 135.813 253.196C134.988 253.089 134.23 252.686 133.679 252.062C133.129 251.438 132.824 250.636 132.82 249.804V90.4577C132.832 89.5504 133.198 88.6838 133.84 88.0423C134.481 87.4008 135.348 87.035 136.255 87.0231H163.736C164.643 87.035 165.51 87.4008 166.151 88.0423C166.793 88.6838 167.158 89.5504 167.17 90.4577V249.804C167.166 250.633 166.863 251.432 166.316 252.055C165.769 252.678 165.015 253.082 164.193 253.192C159.49 253.862 154.748 254.199 149.997 254.2ZM139.693 246.781C146.545 247.514 153.454 247.514 160.305 246.781V93.8923H139.69L139.693 246.781Z" fill="black"/>
<path d="M163.741 253.242C162.916 253.258 162.115 252.964 161.495 252.418C161.117 252.092 160.815 251.686 160.61 251.23C160.405 250.775 160.301 250.28 160.307 249.78V131.676C160.319 130.769 160.685 129.902 161.326 129.261C161.968 128.619 162.835 128.253 163.741 128.242H191.222C192.13 128.253 192.996 128.619 193.638 129.261C194.28 129.902 194.645 130.769 194.657 131.676V241.922C194.663 242.588 194.476 243.241 194.119 243.802C193.761 244.363 193.248 244.809 192.641 245.084C183.588 249.127 174.005 251.857 164.18 253.192L163.741 253.242ZM167.176 135.118V245.768C174.255 244.522 181.17 242.478 187.788 239.676V135.111L167.176 135.118Z" fill="black"/>
<path d="M191.224 245.358C190.559 245.353 189.909 245.162 189.347 244.808C188.871 244.493 188.481 244.064 188.213 243.56C187.944 243.057 187.805 242.494 187.809 241.923V113.358C187.821 112.454 188.184 111.59 188.821 110.949C189.458 110.308 190.32 109.94 191.224 109.923H218.705C219.612 109.935 220.479 110.301 221.12 110.943C221.762 111.584 222.127 112.451 222.139 113.358V223.65C222.137 224.123 222.038 224.59 221.849 225.023C221.659 225.456 221.384 225.846 221.039 226.17C212.673 233.986 203.08 240.376 192.643 245.085C192.193 245.268 191.711 245.361 191.224 245.358ZM194.659 116.793V236.462C202.119 232.612 209.047 227.809 215.27 222.173V116.847L194.659 116.793Z" fill="black"/>
<path d="M136.257 253.238H135.8C125.974 251.91 116.389 249.18 107.338 245.131C106.738 244.854 106.23 244.41 105.876 243.852C105.522 243.294 105.337 242.645 105.342 241.985V145.446C105.338 144.993 105.425 144.543 105.596 144.123C105.767 143.704 106.019 143.322 106.338 143C106.658 142.678 107.037 142.423 107.456 142.249C107.874 142.074 108.323 141.985 108.777 141.985H136.257C137.165 141.997 138.031 142.362 138.673 143.004C139.314 143.645 139.68 144.512 139.692 145.419V249.8C139.692 250.252 139.604 250.698 139.432 251.116C139.259 251.533 139.006 251.912 138.687 252.231C138.368 252.55 137.99 252.804 137.573 252.977C137.156 253.15 136.709 253.238 136.257 253.238ZM112.211 239.496C118.82 242.367 125.735 244.472 132.823 245.769V148.846H112.211V239.496Z" fill="black"/>
<path d="M108.777 245.358C108.291 245.361 107.809 245.268 107.358 245.085C96.9216 240.377 87.3285 233.987 78.9619 226.17C78.6077 225.853 78.3258 225.464 78.1362 225.029C77.9462 224.593 77.8527 224.122 77.862 223.647V163.739C77.862 162.828 78.2239 161.955 78.8681 161.311C79.5119 160.667 80.3858 160.305 81.2966 160.305H108.777C109.685 160.317 110.551 160.682 111.193 161.324C111.834 161.965 112.2 162.832 112.212 163.739V241.924C112.215 242.495 112.077 243.057 111.808 243.561C111.539 244.065 111.149 244.493 110.673 244.808C110.111 245.163 109.461 245.353 108.797 245.358H108.777ZM84.7312 222.182C90.9546 227.813 97.8831 232.612 105.343 236.458V167.174H84.7312V222.182Z" fill="black"/>
</g>
</g>
<defs>
<clipPath id="clip0_368_759">
<rect width="300" height="300" fill="white"/>
</clipPath>
</defs>
</svg>
