<svg width="300" height="300" viewBox="0 0 300 300" fill="none" xmlns="http://www.w3.org/2000/svg">
<g clip-path="url(#clip0_368_680)">
<mask id="mask0_368_680" style="mask-type:luminance" maskUnits="userSpaceOnUse" x="0" y="0" width="300" height="300">
<path d="M299.996 0H0V300H299.996V0Z" fill="white"/>
</mask>
<g mask="url(#mask0_368_680)">
<path d="M227.862 299.999H12.5962C9.25612 299.999 6.05281 298.673 3.69069 296.311C1.32856 293.95 0.00101986 290.747 0 287.407V44.6569C0.0119515 43.7496 0.377649 42.8831 1.01919 42.2415C1.66073 41.6 2.52742 41.2342 3.43462 41.2223H237.023C237.93 41.2342 238.797 41.6 239.438 42.2415C240.08 42.8831 240.446 43.7496 240.458 44.6569V287.407C240.458 290.748 239.131 293.952 236.768 296.313C234.406 298.676 231.202 300.003 227.862 300.003V299.999ZM6.86923 48.0915V287.407C6.86773 288.16 7.01473 288.906 7.30185 289.602C7.58896 290.298 8.01058 290.931 8.54254 291.464C9.07446 291.997 9.70631 292.42 10.4019 292.708C11.0975 292.997 11.8431 293.145 12.5962 293.145H227.865C228.617 293.145 229.362 292.997 230.057 292.709C230.752 292.422 231.383 292 231.915 291.468C232.447 290.936 232.868 290.305 233.157 289.61C233.444 288.915 233.592 288.17 233.592 287.418V48.0915H6.86923Z" fill="black"/>
<path d="M237.023 48.0769H3.43462C2.53003 48.065 1.66561 47.7015 1.02448 47.0631C0.383363 46.425 0.0159162 45.5623 0 44.6577V12.5962C0 9.25546 1.32709 6.05158 3.68933 3.68933C6.05158 1.32709 9.25546 0 12.5962 0H227.865C231.206 0 234.41 1.32709 236.772 3.68933C239.135 6.05158 240.462 9.25546 240.462 12.5962V44.6577C240.45 45.565 240.084 46.4315 239.442 47.0731C238.801 47.7146 237.934 48.0804 237.027 48.0923L237.023 48.0769ZM6.86923 41.2231H233.588V12.5962C233.588 11.0773 232.985 9.62062 231.911 8.54662C230.837 7.47262 229.38 6.86923 227.862 6.86923H12.5962C11.0773 6.86923 9.62062 7.47262 8.54662 8.54662C7.47262 9.62062 6.86923 11.0773 6.86923 12.5962V41.2231Z" fill="black"/>
<path d="M172.944 27.48C172.033 27.4791 171.161 27.1166 170.517 26.4723C170.185 26.1603 169.92 25.7838 169.739 25.3658C169.558 24.9478 169.464 24.4971 169.463 24.0415C169.455 23.5935 169.536 23.1483 169.701 22.7317C169.866 22.3151 170.112 21.9354 170.425 21.6146C171.08 20.9932 171.949 20.6468 172.852 20.6468C173.755 20.6468 174.623 20.9932 175.279 21.6146C175.61 21.9364 175.873 22.3207 176.054 22.7453C176.235 23.1699 176.33 23.6262 176.333 24.0877C176.322 24.9963 175.961 25.8656 175.325 26.5146C174.676 27.1167 173.829 27.4601 172.944 27.48Z" fill="black"/>
<path d="M190.121 24.046C190.115 23.5972 190.198 23.1515 190.366 22.7351C190.534 22.3187 190.782 21.9397 191.098 21.6201C191.413 21.3005 191.788 21.0468 192.203 20.8737C192.617 20.7005 193.061 20.6114 193.51 20.6114C193.965 20.6053 194.416 20.6896 194.838 20.8595C195.261 21.0293 195.644 21.2814 195.968 21.6009C196.292 21.9204 196.549 22.3011 196.725 22.7209C196.9 23.1406 196.991 23.591 196.991 24.046C196.979 24.9611 196.606 25.8347 195.955 26.4775C195.304 27.1203 194.425 27.4807 193.51 27.4806C192.607 27.4685 191.745 27.1013 191.111 26.4585C190.477 25.8157 190.121 24.949 190.121 24.046Z" fill="black"/>
<path d="M214.124 27.48C213.214 27.4791 212.341 27.1166 211.697 26.4723C211.06 25.8224 210.699 24.9514 210.689 24.0415C210.69 23.1309 211.053 22.258 211.697 21.6146C212.353 20.9932 213.221 20.6468 214.124 20.6468C215.027 20.6468 215.896 20.9932 216.551 21.6146C217.195 22.258 217.558 23.1309 217.559 24.0415C217.539 24.9482 217.179 25.8143 216.551 26.4684C216.233 26.7882 215.854 27.0421 215.438 27.2156C215.022 27.3892 214.575 27.479 214.124 27.48Z" fill="black"/>
<path d="M232.09 256.124C231.18 256.123 230.307 255.76 229.663 255.116L208.455 233.908C207.812 233.265 207.451 232.392 207.451 231.482C207.451 230.572 207.812 229.698 208.455 229.055L229.067 208.443C229.711 207.8 230.584 207.439 231.494 207.439C232.404 207.439 233.277 207.8 233.921 208.443L255.128 229.597C255.763 230.254 256.118 231.133 256.118 232.047C256.118 232.961 255.763 233.839 255.128 234.497L234.517 255.108C233.864 255.739 232.998 256.102 232.09 256.124ZM215.74 231.482L232.09 247.785L247.859 232.074L231.509 215.724L215.74 231.482Z" fill="black"/>
<path d="M257.572 227.19L227.193 257.568L256.601 286.976L286.979 256.597L257.572 227.19Z" fill="white"/>
<path d="M235.35 217.65L217.699 235.301L232.078 249.68L249.728 232.029L235.35 217.65Z" fill="white"/>
<path d="M256.491 290.385C255.581 290.384 254.708 290.022 254.064 289.377L224.66 259.973C224.017 259.329 223.656 258.456 223.656 257.546C223.656 256.636 224.017 255.763 224.66 255.119L255.045 224.735C255.689 224.092 256.562 223.73 257.472 223.73C258.382 223.73 259.255 224.092 259.899 224.735L289.303 254.138C289.946 254.783 290.307 255.655 290.307 256.565C290.307 257.475 289.946 258.348 289.303 258.992L258.918 289.377C258.275 290.022 257.402 290.384 256.491 290.385ZM231.941 257.546L256.491 282.096L282.095 256.492L257.545 231.942L231.941 257.546Z" fill="black"/>
<path d="M272.153 300C269.823 300.006 267.515 299.551 265.361 298.663C263.208 297.775 261.251 296.47 259.603 294.823L254.153 289.377C253.51 288.733 253.148 287.86 253.148 286.95C253.148 286.04 253.51 285.167 254.153 284.523L284.537 254.138C285.181 253.494 286.053 253.132 286.964 253.131C287.875 253.132 288.748 253.494 289.391 254.138L294.841 259.588C298.153 262.925 300.012 267.436 300.012 272.138C300.012 276.84 298.153 281.351 294.841 284.688L284.718 294.811C281.382 298.126 276.871 299.987 272.168 299.988L272.153 300ZM261.433 286.946L264.457 289.923C265.465 290.936 266.663 291.74 267.984 292.288C269.304 292.837 270.719 293.12 272.149 293.12C273.578 293.12 274.994 292.837 276.314 292.288C277.634 291.74 278.833 290.936 279.841 289.923L289.968 279.8C291.99 277.759 293.124 275.002 293.124 272.129C293.124 269.256 291.99 266.499 289.968 264.458L286.945 261.435L261.433 286.946Z" fill="black"/>
<path d="M160.626 67.5573C179.037 67.5573 197.035 73.0177 212.342 83.2477C227.65 93.4773 239.58 108.017 246.623 125.028C253.666 142.038 255.506 160.756 251.91 178.813C248.315 196.869 239.445 213.454 226.422 226.469C213.4 239.483 196.81 248.344 178.751 251.93C160.692 255.515 141.976 253.664 124.97 246.611C107.963 239.558 93.43 227.62 83.2088 212.306C72.9881 196.992 67.5381 178.992 67.5488 160.58C67.5631 135.904 77.3758 112.244 94.8296 94.8C112.283 77.3565 135.95 67.5573 160.626 67.5573Z" fill="white"/>
<path d="M160.582 257.085C141.495 257.085 122.837 251.425 106.968 240.822C91.0976 230.217 78.7284 215.146 71.4241 197.512C64.1199 179.878 62.2088 160.474 65.9326 141.755C69.6561 123.035 78.8472 105.839 92.3438 92.3431C105.84 78.8465 123.035 69.6554 141.755 65.9319C160.475 62.2081 179.879 64.1192 197.513 71.4235C215.146 78.7277 230.218 91.0969 240.822 106.967C251.426 122.837 257.086 141.495 257.086 160.582C257.086 186.176 246.919 210.722 228.821 228.82C210.723 246.918 186.176 257.085 160.582 257.085ZM160.582 70.9931C142.857 70.9931 125.53 76.2496 110.792 86.0977C96.0538 95.9462 84.5676 109.943 77.7857 126.32C71.0038 142.697 69.2307 160.717 72.6907 178.101C76.1507 195.486 84.6884 211.453 97.2241 223.985C109.76 236.517 125.73 245.05 143.116 248.505C160.501 251.96 178.52 250.181 194.895 243.395C211.27 236.608 225.264 225.117 235.108 210.377C244.951 195.636 250.203 178.307 250.198 160.582C250.19 136.818 240.746 114.032 223.94 97.2312C207.135 80.4308 184.345 70.9931 160.582 70.9931Z" fill="black"/>
<path d="M160.582 225.845C147.673 225.845 135.054 222.017 124.32 214.845C113.587 207.673 105.221 197.48 100.281 185.553C95.3409 173.627 94.0482 160.504 96.5666 147.843C99.0851 135.182 105.302 123.552 114.43 114.424C123.558 105.296 135.187 99.0796 147.849 96.5612C160.509 94.0427 173.633 95.335 185.559 100.275C197.486 105.215 207.679 113.581 214.851 124.315C222.023 135.048 225.851 147.667 225.851 160.576C225.851 169.147 224.163 177.635 220.883 185.553C217.603 193.472 212.795 200.668 206.734 206.728C200.674 212.789 193.478 217.597 185.559 220.877C177.64 224.157 169.153 225.845 160.582 225.845ZM160.582 102.18C149.032 102.18 137.742 105.605 128.139 112.021C118.536 118.438 111.051 127.558 106.631 138.228C102.211 148.898 101.055 160.64 103.307 171.967C105.56 183.295 111.122 193.7 119.288 201.867C127.455 210.034 137.859 215.596 149.187 217.85C160.514 220.103 172.256 218.948 182.926 214.528C193.597 210.109 202.717 202.625 209.135 193.022C215.552 183.419 218.977 172.13 218.978 160.58C218.975 145.094 212.821 130.244 201.87 119.295C190.919 108.346 176.067 102.195 160.582 102.195V102.18Z" fill="black"/>
<path d="M153.616 204.504C152.693 204.496 151.808 204.135 151.143 203.497L117.343 169.47C116.699 168.826 116.338 167.953 116.338 167.043C116.338 166.133 116.699 165.26 117.343 164.616L133.739 148.4C134.382 147.756 135.255 147.393 136.166 147.393C137.076 147.393 137.949 147.756 138.593 148.4L153.616 163.377L182.608 134.531C182.923 134.207 183.301 133.95 183.718 133.774C184.134 133.598 184.582 133.507 185.035 133.507C185.487 133.507 185.935 133.598 186.352 133.774C186.769 133.95 187.146 134.207 187.462 134.531L203.858 151.158C204.501 151.802 204.862 152.675 204.862 153.585C204.862 154.495 204.501 155.368 203.858 156.012L156 203.497C155.371 204.134 154.511 204.496 153.616 204.504ZM124.623 167.223L153.616 196.216L196.577 153.347L185.039 141.989L156 170.835C155.684 171.159 155.307 171.417 154.89 171.592C154.473 171.768 154.026 171.859 153.573 171.859C153.121 171.859 152.673 171.768 152.256 171.592C151.839 171.417 151.462 171.159 151.146 170.835L136.169 155.72L124.623 167.223Z" fill="black"/>
<path d="M44.6541 93.8919H30.9119C28.7868 93.8919 26.7486 93.0477 25.2455 91.5454C23.7424 90.0431 22.8975 88.0054 22.8965 85.8804V72.1381C22.9126 70.0173 23.7623 67.9877 25.2619 66.4881C26.7616 64.9884 28.7911 64.1388 30.9119 64.1227H44.6541C46.7799 64.1227 48.8187 64.9669 50.3218 66.4704C51.8253 67.9735 52.6695 70.0123 52.6695 72.1381V85.8804C52.6687 88.0054 51.8237 90.0431 50.3206 91.5454C48.8176 93.0477 46.7795 93.8919 44.6541 93.8919ZM30.9119 70.9919C30.6059 70.9919 30.3124 71.1135 30.096 71.3296C29.8796 71.5461 29.758 71.8396 29.758 72.1458V85.8881C29.758 86.1938 29.8796 86.4873 30.096 86.7038C30.3124 86.9204 30.6059 87.0419 30.9119 87.0419H44.6541C44.8056 87.0419 44.9556 87.0119 45.0956 86.9538C45.2356 86.8961 45.3629 86.8111 45.4703 86.7038C45.5772 86.5965 45.6622 86.4696 45.7203 86.3296C45.7783 86.1896 45.8079 86.0396 45.8079 85.8881V72.1381C45.8079 71.9865 45.7783 71.8365 45.7203 71.6965C45.6622 71.5565 45.5772 71.4292 45.4703 71.3219C45.3629 71.215 45.2356 71.13 45.0956 71.0719C44.9556 71.0138 44.8056 70.9842 44.6541 70.9842L30.9119 70.9919Z" fill="black"/>
<path d="M44.6541 139.693H30.9119C28.7868 139.693 26.7486 138.849 25.2455 137.346C23.7424 135.844 22.8975 133.806 22.8965 131.681V117.939C22.9126 115.818 23.7623 113.788 25.2619 112.289C26.7616 110.789 28.7911 109.94 30.9119 109.923H44.6541C46.7799 109.923 48.8187 110.768 50.3218 112.271C51.8253 113.774 52.6695 115.813 52.6695 117.939V131.681C52.6687 133.806 51.8237 135.844 50.3206 137.346C48.8176 138.849 46.7795 139.693 44.6541 139.693ZM30.9119 116.793C30.6059 116.793 30.3124 116.914 30.096 117.13C29.8796 117.347 29.758 117.64 29.758 117.947V131.689C29.758 131.995 29.8796 132.288 30.096 132.505C30.3124 132.721 30.6059 132.843 30.9119 132.843H44.6541C44.8056 132.843 44.9556 132.813 45.0956 132.755C45.2356 132.697 45.3629 132.612 45.4703 132.505C45.5772 132.398 45.6622 132.27 45.7203 132.13C45.7783 131.99 45.8079 131.84 45.8079 131.689V117.939C45.8079 117.787 45.7783 117.637 45.7203 117.497C45.6622 117.357 45.5772 117.23 45.4703 117.123C45.3629 117.016 45.2356 116.931 45.0956 116.873C44.9556 116.815 44.8056 116.785 44.6541 116.785L30.9119 116.793Z" fill="black"/>
<path d="M44.6541 185.495H30.9119C28.7868 185.495 26.7486 184.651 25.2455 183.149C23.7424 181.647 22.8975 179.609 22.8965 177.484V163.742C22.9126 161.621 23.7623 159.591 25.2619 158.092C26.7616 156.592 28.7911 155.742 30.9119 155.726H44.6541C46.7799 155.726 48.8187 156.57 50.3218 158.074C51.8253 159.577 52.6695 161.616 52.6695 163.742V177.484C52.6695 178.536 52.4622 179.578 52.0595 180.551C51.6568 181.523 51.0664 182.407 50.3218 183.152C49.5776 183.896 48.6941 184.486 47.7214 184.889C46.7491 185.292 45.7068 185.495 44.6541 185.495ZM30.9119 162.595C30.6059 162.595 30.3124 162.717 30.096 162.933C29.8796 163.15 29.758 163.443 29.758 163.749V177.492C29.758 177.797 29.8796 178.091 30.096 178.307C30.3124 178.524 30.6059 178.645 30.9119 178.645H44.6541C44.8056 178.645 44.9556 178.615 45.0956 178.557C45.2356 178.5 45.3629 178.415 45.4703 178.307C45.5772 178.2 45.6622 178.073 45.7203 177.933C45.7783 177.793 45.8079 177.643 45.8079 177.492V163.742C45.8079 163.435 45.6864 163.142 45.4703 162.925C45.2537 162.709 44.9603 162.588 44.6541 162.588L30.9119 162.595Z" fill="black"/>
<path d="M44.6541 231.296H30.9119C28.7868 231.296 26.7486 230.452 25.2455 228.95C23.7424 227.447 22.8975 225.41 22.8965 223.285V209.542C22.9126 207.422 23.7623 205.392 25.2619 203.892C26.7616 202.393 28.7911 201.543 30.9119 201.527H44.6541C45.7068 201.527 46.7491 201.734 47.7214 202.137C48.6941 202.54 49.5776 203.13 50.3218 203.875C51.0664 204.619 51.6568 205.502 52.0595 206.475C52.4622 207.447 52.6695 208.49 52.6695 209.542V223.285C52.6687 225.41 51.8237 227.447 50.3206 228.95C48.8176 230.452 46.7795 231.296 44.6541 231.296ZM30.9119 208.396C30.6059 208.396 30.3124 208.518 30.096 208.734C29.8796 208.95 29.758 209.244 29.758 209.55V223.292C29.758 223.598 29.8796 223.892 30.096 224.108C30.3124 224.325 30.6059 224.446 30.9119 224.446H44.6541C44.8056 224.446 44.9556 224.416 45.0956 224.358C45.2356 224.3 45.3629 224.215 45.4703 224.108C45.5772 224.001 45.6622 223.874 45.7203 223.734C45.7783 223.594 45.8079 223.444 45.8079 223.292V209.542C45.8079 209.391 45.7783 209.241 45.7203 209.101C45.6622 208.961 45.5772 208.833 45.4703 208.726C45.3629 208.619 45.2356 208.534 45.0956 208.476C44.9556 208.418 44.8056 208.388 44.6541 208.388L30.9119 208.396Z" fill="black"/>
<path d="M44.6541 277.097H30.9119C28.7868 277.097 26.7486 276.253 25.2455 274.75C23.7424 273.248 22.8975 271.21 22.8965 269.085V255.343C22.9126 253.222 23.7623 251.193 25.2619 249.693C26.7616 248.193 28.7911 247.344 30.9119 247.328H44.6541C45.7068 247.328 46.7491 247.535 47.7214 247.938C48.6941 248.34 49.5776 248.931 50.3218 249.675C51.0664 250.42 51.6568 251.303 52.0595 252.276C52.4622 253.248 52.6695 254.29 52.6695 255.343V269.085C52.6687 271.21 51.8237 273.248 50.3206 274.75C48.8176 276.253 46.7795 277.097 44.6541 277.097ZM30.9119 254.197C30.6059 254.197 30.3124 254.318 30.096 254.535C29.8796 254.751 29.758 255.045 29.758 255.351V269.093C29.758 269.399 29.8796 269.692 30.096 269.909C30.3124 270.125 30.6059 270.247 30.9119 270.247H44.6541C44.8056 270.247 44.9556 270.217 45.0956 270.159C45.2356 270.101 45.3629 270.016 45.4703 269.909C45.5772 269.802 45.6622 269.675 45.7203 269.535C45.7783 269.395 45.8079 269.245 45.8079 269.093V255.343C45.8079 255.192 45.7783 255.042 45.7203 254.902C45.6622 254.762 45.5772 254.634 45.4703 254.527C45.3629 254.42 45.2356 254.335 45.0956 254.277C44.9556 254.219 44.8056 254.189 44.6541 254.189L30.9119 254.197Z" fill="black"/>
</g>
</g>
<defs>
<clipPath id="clip0_368_680">
<rect width="300" height="300" fill="white"/>
</clipPath>
</defs>
</svg>
