<svg width="300" height="300" viewBox="0 0 300 300" fill="none" xmlns="http://www.w3.org/2000/svg">
<g clip-path="url(#clip0_368_704)">
<mask id="mask0_368_704" style="mask-type:luminance" maskUnits="userSpaceOnUse" x="0" y="0" width="300" height="300">
<path d="M300 0H0V300H300V0Z" fill="white"/>
</mask>
<g mask="url(#mask0_368_704)">
<path d="M287.248 300H240.885C239.207 300.007 237.544 299.685 235.992 299.056C234.44 298.426 233.029 297.5 231.84 296.331C230.651 295.162 229.708 293.772 229.065 292.242C228.421 290.712 228.09 289.072 228.09 287.416V12.8157C228.09 11.1592 228.421 9.51895 229.065 7.9891C229.708 6.45925 230.651 5.06987 231.84 3.90068C233.029 2.7315 234.44 1.80549 235.992 1.17577C237.544 0.546054 239.207 0.225027 240.885 0.231103H287.248C290.625 0.243263 293.861 1.57304 296.249 3.93048C298.637 6.28795 299.984 9.48183 299.996 12.8157V287.431C299.992 290.766 298.647 293.963 296.257 296.32C293.867 298.677 290.627 300 287.248 300ZM240.885 7.09648C239.35 7.09956 237.88 7.70345 236.795 8.77568C235.711 9.84791 235.103 11.3009 235.103 12.8157V287.431C235.103 288.948 235.713 290.403 236.8 291.475C237.886 292.548 239.36 293.15 240.896 293.15H287.26C288.785 293.126 290.24 292.515 291.314 291.446C292.389 290.378 292.997 288.937 293.011 287.431V12.8157C292.997 11.3101 292.389 9.86925 291.314 8.80068C290.24 7.7321 288.785 7.12052 287.26 7.09648H240.885Z" fill="black"/>
<path d="M296.523 277.116H277.969C277.047 277.116 276.163 276.754 275.511 276.11C274.859 275.467 274.492 274.593 274.492 273.683C274.492 272.773 274.859 271.9 275.511 271.256C276.163 270.612 277.047 270.25 277.969 270.25H296.515C297.437 270.25 298.322 270.612 298.974 271.256C299.626 271.9 299.992 272.773 299.992 273.683C299.992 274.593 299.626 275.467 298.974 276.11C298.322 276.754 297.437 277.116 296.515 277.116H296.523Z" fill="black"/>
<path d="M296.523 249.658H277.969C277.047 249.658 276.163 249.296 275.511 248.652C274.859 248.009 274.492 247.135 274.492 246.225C274.492 245.315 274.859 244.442 275.511 243.798C276.163 243.154 277.047 242.792 277.969 242.792H296.515C297.437 242.792 298.322 243.154 298.974 243.798C299.626 244.442 299.992 245.315 299.992 246.225C299.992 247.135 299.626 248.009 298.974 248.652C298.322 249.296 297.437 249.658 296.515 249.658H296.523Z" fill="black"/>
<path d="M296.523 222.195H277.969C277.047 222.195 276.163 221.834 275.511 221.19C274.859 220.547 274.492 219.673 274.492 218.763C274.492 217.852 274.859 216.979 275.511 216.335C276.163 215.692 277.047 215.33 277.969 215.33H296.515C297.437 215.33 298.322 215.692 298.974 216.335C299.626 216.979 299.992 217.852 299.992 218.763C299.992 219.673 299.626 220.547 298.974 221.19C298.322 221.834 297.437 222.195 296.515 222.195H296.523Z" fill="black"/>
<path d="M296.523 194.739H277.969C277.047 194.739 276.163 194.377 275.511 193.734C274.859 193.09 274.492 192.217 274.492 191.307C274.492 190.396 274.859 189.523 275.511 188.879C276.163 188.235 277.047 187.874 277.969 187.874H296.515C297.437 187.874 298.322 188.235 298.974 188.879C299.626 189.523 299.992 190.396 299.992 191.307C299.992 192.217 299.626 193.09 298.974 193.734C298.322 194.377 297.437 194.739 296.515 194.739H296.523Z" fill="black"/>
<path d="M296.523 167.277H277.969C277.513 167.277 277.061 167.188 276.639 167.016C276.217 166.843 275.834 166.59 275.511 166.272C275.188 165.953 274.932 165.575 274.757 165.158C274.582 164.742 274.492 164.295 274.492 163.844C274.492 163.393 274.582 162.947 274.757 162.531C274.932 162.114 275.188 161.736 275.511 161.417C275.834 161.098 276.217 160.845 276.639 160.673C277.061 160.5 277.513 160.412 277.969 160.412H296.515C297.437 160.412 298.322 160.773 298.974 161.417C299.626 162.061 299.992 162.934 299.992 163.844C299.992 164.755 299.626 165.628 298.974 166.272C298.322 166.915 297.437 167.277 296.515 167.277H296.523Z" fill="black"/>
<path d="M296.523 139.819H277.969C277.047 139.819 276.163 139.457 275.511 138.813C274.859 138.17 274.492 137.297 274.492 136.386C274.492 135.476 274.859 134.603 275.511 133.959C276.163 133.315 277.047 132.953 277.969 132.953H296.515C297.437 132.953 298.322 133.315 298.974 133.959C299.626 134.603 299.992 135.476 299.992 136.386C299.992 137.297 299.626 138.17 298.974 138.813C298.322 139.457 297.437 139.819 296.515 139.819H296.523Z" fill="black"/>
<path d="M296.523 112.358H277.969C277.047 112.358 276.163 111.997 275.511 111.353C274.859 110.709 274.492 109.836 274.492 108.926C274.492 108.015 274.859 107.142 275.511 106.498C276.163 105.855 277.047 105.493 277.969 105.493H296.515C297.437 105.493 298.322 105.855 298.974 106.498C299.626 107.142 299.992 108.015 299.992 108.926C299.992 109.836 299.626 110.709 298.974 111.353C298.322 111.997 297.437 112.358 296.515 112.358H296.523Z" fill="black"/>
<path d="M296.523 84.8966H277.969C277.047 84.8966 276.163 84.535 275.511 83.8912C274.859 83.2473 274.492 82.3743 274.492 81.4639C274.492 80.5535 274.859 79.6804 275.511 79.0366C276.163 78.3927 277.047 78.0312 277.969 78.0312H296.515C297.437 78.0312 298.322 78.3927 298.974 79.0366C299.626 79.6804 299.992 80.5535 299.992 81.4639C299.992 82.3743 299.626 83.2473 298.974 83.8912C298.322 84.535 297.437 84.8966 296.515 84.8966H296.523Z" fill="black"/>
<path d="M296.523 57.4381H277.969C277.047 57.4381 276.163 57.0765 275.511 56.4327C274.859 55.7888 274.492 54.9158 274.492 54.0054C274.492 53.095 274.859 52.2219 275.511 51.5781C276.163 50.9346 277.047 50.5727 277.969 50.5727H296.515C297.437 50.5727 298.322 50.9346 298.974 51.5781C299.626 52.2219 299.992 53.095 299.992 54.0054C299.992 54.9158 299.626 55.7888 298.974 56.4327C298.322 57.0765 297.437 57.4381 296.515 57.4381H296.523Z" fill="black"/>
<path d="M296.523 29.9762H277.969C277.047 29.9762 276.163 29.6145 275.511 28.9707C274.859 28.327 274.492 27.4539 274.492 26.5435C274.492 25.633 274.859 24.7599 275.511 24.1162C276.163 23.4724 277.047 23.1108 277.969 23.1108H296.515C297.437 23.1108 298.322 23.4724 298.974 24.1162C299.626 24.7599 299.992 25.633 299.992 26.5435C299.992 27.4539 299.626 28.327 298.974 28.9707C298.322 29.6145 297.437 29.9762 296.515 29.9762H296.523Z" fill="black"/>
<path d="M250.111 104.351C250.271 82.2277 243.024 60.6719 229.496 43.0339C215.967 25.3956 196.916 12.6634 175.302 6.81605C153.756 1.23129 130.935 2.95155 110.498 11.7009C90.0611 20.4503 73.193 35.7218 62.5991 55.0662C51.7644 74.545 47.6661 96.9827 50.9259 118.971C54.1858 140.959 64.6262 161.296 80.6614 176.893C86.0871 182.234 90.3759 188.592 93.2758 195.594C96.1757 202.595 97.6278 210.098 97.5471 217.662V223.339H202.458V216.57C202.539 209.03 204.13 201.58 207.139 194.65C210.148 187.719 214.516 181.444 219.99 176.185C229.574 166.769 237.173 155.571 242.345 143.237C247.517 130.903 250.161 117.68 250.122 104.332L250.111 104.351Z" fill="white"/>
<path d="M202.488 226.773H97.7376C97.2861 226.778 96.8384 226.693 96.4211 226.522C96.0038 226.352 95.6259 226.1 95.3103 225.781C94.9909 225.458 94.7396 225.076 94.5701 224.657C94.401 224.238 94.3176 223.79 94.3246 223.339V217.665C94.3507 210.547 92.9431 203.495 90.1835 196.918C87.4239 190.342 83.3672 184.372 78.2493 179.358C58.3461 160.12 46.8483 133.964 46.2097 106.473C45.5715 78.982 55.8432 52.3335 74.8324 32.2154C84.1266 22.3473 95.3275 14.4155 107.776 8.88728C120.223 3.35905 133.666 0.346322 147.312 0.0265988C160.957 -0.293124 174.529 2.08663 187.229 7.02562C199.929 11.9646 211.498 19.363 221.256 28.7847C231.395 38.5027 239.477 50.1131 245.032 62.9416C250.586 75.7697 253.502 89.56 253.611 103.51C253.72 117.461 251.019 131.294 245.665 144.205C240.311 157.116 232.411 168.848 222.425 178.719C217.241 183.621 213.098 189.492 210.236 195.99C207.374 202.489 205.852 209.484 205.757 216.569V223.342C205.765 224.222 205.428 225.07 204.817 225.71C204.205 226.349 203.366 226.73 202.477 226.773H202.488ZM101.018 219.908H199.067V216.565C199.133 208.572 200.81 200.672 204 193.325C207.19 185.978 211.83 179.332 217.648 173.773C226.97 164.554 234.343 153.599 239.34 141.544C244.337 129.488 246.857 116.572 246.755 103.547C246.653 90.522 243.931 77.6466 238.747 65.6685C233.562 53.6904 226.018 42.8489 216.553 33.7731C207.099 24.6505 195.819 17.5777 183.435 13.0077C171.051 8.43782 157.837 6.47147 144.639 7.23466C125.672 8.32089 107.447 14.8883 92.2324 26.1199C77.0174 37.3515 65.4829 52.7516 59.0649 70.4039C52.4774 88.1604 51.2127 107.415 55.422 125.862C59.6314 144.31 69.1367 161.17 82.7999 174.423C88.597 180.074 93.194 186.81 96.3222 194.237C99.4503 201.663 101.047 209.63 101.018 217.673V219.908Z" fill="black"/>
<path d="M187.07 263.388H112.893C109.511 263.388 106.268 262.063 103.877 259.702C101.486 257.342 100.143 254.14 100.143 250.802C100.143 247.464 101.486 244.262 103.877 241.902C106.268 239.542 109.511 238.215 112.893 238.215H187.07C190.452 238.215 193.695 239.542 196.086 241.902C198.477 244.262 199.821 247.464 199.821 250.802C199.821 254.14 198.477 257.342 196.086 259.702C193.695 262.063 190.452 263.388 187.07 263.388ZM112.893 245.081C111.356 245.081 109.882 245.684 108.795 246.757C107.708 247.83 107.097 249.285 107.097 250.802C107.097 252.319 107.708 253.775 108.795 254.848C109.882 255.92 111.356 256.523 112.893 256.523H187.07C188.608 256.523 190.082 255.92 191.168 254.848C192.255 253.775 192.866 252.319 192.866 250.802C192.866 249.285 192.255 247.83 191.168 246.757C190.082 245.684 188.608 245.081 187.07 245.081H112.893Z" fill="black"/>
<path d="M187.07 281.695H112.893C109.511 281.695 106.268 280.369 103.877 278.009C101.486 275.649 100.143 272.447 100.143 269.109C100.143 265.771 101.486 262.569 103.877 260.209C106.268 257.848 109.511 256.522 112.893 256.522H187.07C190.452 256.522 193.695 257.848 196.086 260.209C198.477 262.569 199.821 265.771 199.821 269.109C199.821 272.447 198.477 275.649 196.086 278.009C193.695 280.369 190.452 281.695 187.07 281.695ZM112.893 263.388C111.356 263.388 109.882 263.99 108.795 265.063C107.708 266.136 107.097 267.592 107.097 269.109C107.097 270.626 107.708 272.082 108.795 273.154C109.882 274.227 111.356 274.83 112.893 274.83H187.07C188.608 274.83 190.082 274.227 191.168 273.154C192.255 272.082 192.866 270.626 192.866 269.109C192.866 267.592 192.255 266.136 191.168 265.063C190.082 263.99 188.608 263.388 187.07 263.388H112.893Z" fill="black"/>
<path d="M187.069 245.08H112.891C111.216 245.08 109.558 244.754 108.012 244.122C106.464 243.489 105.059 242.562 103.875 241.393C102.691 240.223 101.752 238.836 101.112 237.308C100.471 235.781 100.142 234.144 100.143 232.492V223.338C100.151 222.43 100.52 221.562 101.17 220.921C101.819 220.279 102.699 219.915 103.618 219.907H196.345C196.802 219.907 197.254 219.996 197.675 220.168C198.097 220.34 198.48 220.593 198.803 220.912C199.125 221.23 199.381 221.608 199.556 222.025C199.731 222.441 199.821 222.887 199.821 223.338V232.492C199.821 234.145 199.492 235.782 198.851 237.31C198.21 238.837 197.271 240.225 196.087 241.394C194.902 242.563 193.497 243.49 191.949 244.123C190.402 244.755 188.743 245.08 187.069 245.08ZM107.097 226.772V232.492C107.097 234.008 107.708 235.463 108.794 236.535C109.881 237.608 111.354 238.211 112.891 238.211H187.069C187.83 238.212 188.584 238.065 189.288 237.778C189.992 237.491 190.632 237.07 191.17 236.538C191.709 236.007 192.137 235.376 192.428 234.682C192.72 233.988 192.87 233.243 192.87 232.492V226.772H107.097Z" fill="black"/>
<path d="M177.801 299.999H122.165C121.243 299.999 120.358 299.638 119.706 298.994C119.054 298.35 118.688 297.477 118.688 296.566C118.688 295.656 119.054 294.783 119.706 294.139C120.358 293.496 121.243 293.134 122.165 293.134H177.801C178.723 293.134 179.608 293.496 180.26 294.139C180.912 294.783 181.278 295.656 181.278 296.566C181.278 297.477 180.912 298.35 180.26 298.994C179.608 299.638 178.723 299.999 177.801 299.999Z" fill="black"/>
<path d="M68.3974 269.108V58.5808L35.9467 67.7347L3.49219 58.5808V269.108H68.3974Z" fill="white"/>
<path d="M68.3924 272.539H3.48314C3.02642 272.539 2.57419 272.45 2.15229 272.277C1.73039 272.105 1.3471 271.852 1.02434 271.532C0.701572 271.213 0.44566 270.835 0.271239 270.418C0.0968169 270.002 0.00730266 269.555 0.00781468 269.104V58.585C0.00766336 58.0519 0.133283 57.5262 0.374714 57.0496C0.616146 56.5731 0.966748 56.1585 1.39872 55.8388C1.83694 55.4631 2.36449 55.2031 2.93207 55.0835C3.49964 54.9639 4.0887 54.9881 4.64416 55.1542L35.9377 64.3081L67.4184 55.1542C67.9358 55.0015 68.4828 54.9719 69.0142 55.0677C69.5457 55.1631 70.0467 55.3812 70.4768 55.7042C70.9085 56.0239 71.2592 56.4385 71.5007 56.915C71.7419 57.3915 71.8677 57.9173 71.8677 58.4504V268.97C71.8864 269.432 71.8105 269.893 71.6445 270.325C71.4781 270.757 71.2253 271.152 70.9007 271.485C70.5762 271.819 70.1866 272.084 69.7553 272.265C69.3244 272.446 68.8607 272.539 68.3924 272.539ZM6.96235 265.673H64.9132V63.1119L37.0948 71.0312C36.4588 71.2142 35.7828 71.2142 35.1468 71.0312L7.33248 63.1119L6.96235 265.673Z" fill="black"/>
<path d="M59.1197 300.001H12.7559C11.0814 300.001 9.4234 299.675 7.87649 299.042C6.32958 298.41 4.92406 297.482 3.74025 296.313C2.55644 295.145 1.6175 293.757 0.977081 292.229C0.336662 290.702 0.00730134 289.065 0.0078131 287.412V269.105C0.015948 268.197 0.384709 267.329 1.0347 266.688C1.6847 266.046 2.56394 265.682 3.48314 265.674H68.3924C69.3115 265.682 70.1909 266.046 70.8407 266.688C71.4906 267.329 71.8595 268.197 71.8677 269.105V287.412C71.8677 290.75 70.5244 293.951 68.1337 296.311C65.7431 298.671 62.5003 300.001 59.1197 300.001ZM6.96235 272.539V287.412C6.96184 288.164 7.11133 288.908 7.40225 289.602C7.69318 290.297 8.11984 290.927 8.65785 291.459C9.1959 291.99 9.83475 292.412 10.5379 292.7C11.241 292.987 11.9947 293.135 12.7559 293.135H59.1197C60.6559 293.135 62.1298 292.533 63.2161 291.46C64.3027 290.388 64.9132 288.933 64.9132 287.416V272.539H6.96235Z" fill="black"/>
<path d="M68.3974 58.5811L35.9467 3.66211L3.49219 58.5811L35.9467 67.735L68.3974 58.5811Z" fill="white"/>
<path d="M35.9447 71.1654H34.9706L2.51609 62.0115C2.00669 61.8673 1.53749 61.6096 1.14439 61.2589C0.75129 60.9077 0.444694 60.4727 0.248058 59.9869C0.0514196 59.5012 -0.0300509 58.9773 0.00987714 58.4558C0.0498051 57.9339 0.210074 57.4281 0.478426 56.9769L32.9291 2.05774C33.2582 1.56339 33.7066 1.15756 34.234 0.876722C34.7614 0.595883 35.3513 0.448853 35.9505 0.448853C36.5497 0.448853 37.1396 0.595883 37.667 0.876722C38.1944 1.15756 38.6428 1.56339 38.9719 2.05774L71.4265 56.9769C71.6439 57.4512 71.7565 57.9658 71.7565 58.4865C71.7565 59.0073 71.6439 59.5219 71.4265 59.9962C71.2223 60.4769 70.913 60.9073 70.5203 61.2558C70.1275 61.6042 69.6612 61.8623 69.1551 62.0115L36.7005 71.1654H35.9447ZM8.73039 56.4731L35.9447 64.3L63.159 56.6077L35.9447 10.8462L8.73039 56.4731Z" fill="black"/>
<path d="M35.9382 272.538C35.0165 272.538 34.1325 272.176 33.4808 271.533C32.829 270.889 32.4629 270.017 32.4629 269.107V67.73C32.4629 66.8196 32.8292 65.9465 33.4814 65.3027C34.1335 64.6588 35.018 64.2973 35.9402 64.2973C36.8624 64.2973 37.7469 64.6588 38.399 65.3027C39.0511 65.9465 39.4173 66.8196 39.4173 67.73V269.107C39.4173 270.017 39.0515 270.889 38.3995 271.533C37.7478 272.176 36.8638 272.538 35.9421 272.538H35.9382Z" fill="black"/>
<path d="M149.98 129.2C145.009 129.199 140.149 127.742 136.017 125.015C131.885 122.287 128.665 118.411 126.765 113.876C124.865 109.342 124.371 104.352 125.343 99.54C126.317 94.7277 128.714 90.3085 132.232 86.8416C135.75 83.3746 140.23 81.0158 145.107 80.0635C149.984 79.1112 155.036 79.6077 159.627 81.4912C164.217 83.3746 168.138 86.5596 170.894 90.6439C173.65 94.7277 175.117 99.5269 175.109 104.434C175.098 111.005 172.446 117.303 167.735 121.946C163.024 126.588 156.64 129.196 149.984 129.196L149.98 129.2ZM149.98 86.5073C145.787 86.5158 141.727 87.9585 138.491 90.59C135.255 93.2212 133.043 96.8785 132.231 100.939C131.42 104.999 132.059 109.212 134.04 112.86C136.021 116.507 139.222 119.364 143.096 120.944C146.971 122.524 151.281 122.729 155.292 121.525C159.303 120.32 162.768 117.781 165.095 114.339C167.423 110.897 168.47 106.764 168.058 102.645C167.646 98.5265 165.801 94.6762 162.837 91.7496C159.425 88.3881 154.8 86.5023 149.98 86.5073Z" fill="black"/>
<path d="M149.984 171.945C146.271 171.943 142.565 171.637 138.903 171.03C138.18 170.921 137.511 170.587 136.994 170.076C136.477 169.566 136.138 168.905 136.028 168.192L132.829 148.392L130.671 147.507L114.074 159.268C113.48 159.693 112.766 159.921 112.034 159.921C111.301 159.921 110.587 159.693 109.994 159.268C103.947 154.977 98.6535 149.735 94.3242 143.753C93.8987 143.174 93.6696 142.478 93.6696 141.763C93.6696 141.048 93.8987 140.351 94.3242 139.772L106.285 123.526C105.962 122.795 105.635 122.107 105.358 121.376L85.2852 118.218C84.5621 118.109 83.8931 117.775 83.3757 117.265C82.8587 116.754 82.5201 116.094 82.4099 115.38C81.1733 108.123 81.1733 100.713 82.4099 93.4569C82.5221 92.7485 82.8626 92.0946 83.3804 91.5919C83.8978 91.0888 84.566 90.7638 85.2852 90.6646L105.346 87.5069C105.623 86.7762 105.95 86.0415 106.274 85.3108L94.3125 69.1108C93.8824 68.525 93.6509 67.8204 93.6509 67.0973C93.6509 66.3738 93.8824 65.6692 94.3125 65.0838C98.6426 59.115 103.936 53.8892 109.983 49.6146C110.576 49.19 111.289 48.9615 112.022 48.9615C112.755 48.9615 113.468 49.19 114.062 49.6146L130.519 61.3761L132.697 60.4608L135.896 40.6454C136.025 39.9392 136.37 39.2896 136.884 38.7823C137.398 38.275 138.056 37.9346 138.771 37.8068C146.108 36.6165 153.594 36.6165 160.932 37.8068C161.647 37.9346 162.305 38.275 162.819 38.7823C163.333 39.2896 163.678 39.9392 163.807 40.6454L167.006 60.5069L169.231 61.3761L185.641 49.6146C186.24 49.2031 186.951 48.9823 187.681 48.9823C188.41 48.9823 189.122 49.2031 189.72 49.6146C195.769 53.9227 201.062 59.1792 205.39 65.1762C205.816 65.7546 206.045 66.4515 206.045 67.1665C206.045 67.8815 205.816 68.5781 205.39 69.1569L193.612 85.3531C193.936 86.0377 194.216 86.7723 194.493 87.5031L214.566 90.6608C215.282 90.7669 215.946 91.0942 216.462 91.5958C216.979 92.0973 217.321 92.7473 217.441 93.4531C218.677 100.71 218.677 108.119 217.441 115.376C217.33 116.09 216.992 116.75 216.475 117.261C215.958 117.772 215.289 118.105 214.566 118.215L194.493 121.372C194.216 122.057 193.936 122.792 193.612 123.522L205.527 139.768C205.952 140.347 206.181 141.044 206.181 141.759C206.181 142.474 205.952 143.17 205.527 143.749C201.197 149.732 195.903 154.973 189.857 159.265C189.263 159.689 188.55 159.917 187.817 159.917C187.084 159.917 186.37 159.689 185.777 159.265L169.367 147.457L167.138 148.392L163.94 168.207C163.829 168.921 163.491 169.581 162.974 170.092C162.457 170.602 161.788 170.936 161.064 171.045C157.403 171.653 153.697 171.959 149.984 171.961V171.945ZM142.472 164.638C147.46 165.232 152.503 165.232 157.492 164.638L160.414 145.322C160.507 144.704 160.773 144.125 161.183 143.649C161.593 143.173 162.129 142.82 162.732 142.63C164.528 142.036 166.279 141.318 167.972 140.48C168.539 140.182 169.18 140.05 169.82 140.098C170.46 140.147 171.073 140.374 171.588 140.753L187.585 152.238C191.54 149.18 195.105 145.661 198.202 141.757L186.564 125.922C186.193 125.408 185.971 124.805 185.922 124.176C185.874 123.547 186 122.916 186.288 122.353C187.134 120.697 187.862 118.983 188.466 117.226C188.663 116.634 189.022 116.107 189.503 115.703C189.984 115.299 190.569 115.034 191.193 114.938L210.759 111.861C211.377 106.937 211.377 101.957 210.759 97.0338L191.193 93.9569C190.574 93.8462 189.997 93.5762 189.518 93.1746C189.039 92.7727 188.676 92.2531 188.466 91.6685C187.871 89.8931 187.143 88.1638 186.288 86.4954C186 85.9319 185.874 85.3015 185.922 84.6727C185.971 84.0435 186.193 83.4396 186.564 82.9262L198.202 67.1377C195.129 63.2119 191.562 59.69 187.585 56.6569L171.58 68.1454C171.061 68.515 170.449 68.7361 169.811 68.7842C169.173 68.8323 168.534 68.7058 167.964 68.4185C166.274 67.5742 164.523 66.8554 162.724 66.2685C162.127 66.0692 161.595 65.7138 161.187 65.2396C160.778 64.765 160.508 64.19 160.406 63.5762L157.289 44.2185C152.301 43.6235 147.258 43.6235 142.27 44.2185L139.153 63.5762C139.05 64.19 138.78 64.765 138.372 65.2396C137.963 65.7138 137.432 66.0692 136.835 66.2685C135.042 66.8719 133.292 67.59 131.594 68.4185C131.029 68.6935 130.4 68.8131 129.772 68.765C129.144 68.7173 128.541 68.5031 128.025 68.1454L112.168 56.6569C108.192 59.69 104.624 63.2119 101.551 67.1377L113.189 82.9262C113.573 83.4338 113.803 84.0388 113.852 84.6711C113.901 85.3031 113.767 85.9358 113.466 86.4954C112.623 88.1938 111.91 89.9527 111.335 91.7569C111.127 92.3573 110.758 92.8908 110.269 93.3019C109.779 93.7127 109.186 93.9854 108.553 94.0915L88.9865 97.1685C88.3682 102.092 88.3682 107.072 88.9865 111.995L108.553 115.072C109.186 115.16 109.782 115.42 110.274 115.825C110.766 116.229 111.133 116.761 111.335 117.361C111.908 119.122 112.621 120.836 113.466 122.488C113.767 123.047 113.901 123.68 113.852 124.312C113.803 124.944 113.573 125.549 113.189 126.057L101.551 141.892C104.648 145.795 108.213 149.315 112.168 152.372L128.209 140.884C128.723 140.505 129.336 140.277 129.976 140.229C130.616 140.181 131.257 140.313 131.824 140.611C133.508 141.434 135.243 142.152 137.018 142.761C137.62 142.951 138.157 143.304 138.566 143.78C138.976 144.255 139.243 144.835 139.336 145.453L142.472 164.638Z" fill="black"/>
<path d="M250.155 277.4C249.698 277.4 249.246 277.312 248.825 277.139C248.403 276.967 248.02 276.714 247.697 276.396C247.375 276.077 247.119 275.699 246.944 275.283C246.769 274.867 246.68 274.42 246.68 273.97V224.485C246.68 223.575 247.046 222.702 247.698 222.058C248.35 221.414 249.234 221.052 250.157 221.052C251.079 221.052 251.964 221.414 252.615 222.058C253.268 222.702 253.634 223.575 253.634 224.485V273.962C253.628 274.872 253.259 275.742 252.608 276.385C251.957 277.029 251.076 277.393 250.155 277.4Z" fill="black"/>
<path d="M250.143 209.703C249.675 209.708 249.212 209.619 248.781 209.443C248.349 209.267 247.958 209.006 247.631 208.677C247.304 208.348 247.047 207.958 246.876 207.529C246.705 207.1 246.623 206.641 246.636 206.18V196.153C246.636 195.243 247.002 194.37 247.655 193.726C248.306 193.083 249.191 192.721 250.113 192.721C251.036 192.721 251.92 193.083 252.572 193.726C253.224 194.37 253.591 195.243 253.591 196.153V206.177C253.607 207.093 253.255 207.978 252.612 208.638C251.968 209.299 251.086 209.68 250.158 209.7L250.143 209.703Z" fill="black"/>
</g>
</g>
<defs>
<clipPath id="clip0_368_704">
<rect width="300" height="300" fill="white"/>
</clipPath>
</defs>
</svg>
