<svg width="512" height="512" viewBox="0 0 512 512" fill="none" xmlns="http://www.w3.org/2000/svg">
<g clip-path="url(#clip0_440_1449)">
<path d="M160 0C170.56 0 181.12 0 192 0C192 15.84 192 31.68 192 48C207.84 48 223.68 48 240 48C240 32.16 240 16.32 240 0C250.56 0 261.12 0 272 0C272 15.84 272 31.68 272 48C287.84 48 303.68 48 320 48C320 32.16 320 16.32 320 0C330.56 0 341.12 0 352 0C352 15.84 352 31.68 352 48C366.134 47.8427 366.134 47.8427 380.268 47.6396C394.735 47.4996 407.391 48.8935 420.375 55.8125C421.039 56.1551 421.704 56.4976 422.388 56.8506C427.733 59.6838 432.427 63.0402 437 67C438.189 67.8953 438.189 67.8953 439.402 68.8086C448.933 76.8489 455.937 88.3 460 100C460.353 100.986 460.706 101.973 461.07 102.989C464.765 114.746 464.451 126.209 464.25 138.438C464.167 145.553 464.085 152.669 464 160C479.84 160 495.68 160 512 160C512 170.56 512 181.12 512 192C496.16 192 480.32 192 464 192C464 207.84 464 223.68 464 240C479.84 240 495.68 240 512 240C512 250.56 512 261.12 512 272C496.16 272 480.32 272 464 272C464 287.84 464 303.68 464 320C479.84 320 495.68 320 512 320C512 330.56 512 341.12 512 352C496.16 352 480.32 352 464 352C464.157 366.134 464.157 366.134 464.36 380.268C464.5 394.735 463.107 407.391 456.188 420.375C455.845 421.039 455.502 421.704 455.149 422.388C452.316 427.733 448.96 432.427 445 437C444.403 437.793 443.806 438.586 443.191 439.402C435.151 448.933 423.7 455.937 412 460C411.014 460.353 410.027 460.706 409.011 461.07C397.254 464.765 385.791 464.451 373.562 464.25C366.447 464.167 359.331 464.085 352 464C352 479.84 352 495.68 352 512C341.44 512 330.88 512 320 512C320 496.16 320 480.32 320 464C304.16 464 288.32 464 272 464C272 479.84 272 495.68 272 512C261.44 512 250.88 512 240 512C240 496.16 240 480.32 240 464C224.16 464 208.32 464 192 464C192 479.84 192 495.68 192 512C181.44 512 170.88 512 160 512C160 496.16 160 480.32 160 464C145.866 464.157 145.866 464.157 131.732 464.36C117.265 464.5 104.609 463.107 91.625 456.188C90.9607 455.845 90.2965 455.502 89.6121 455.149C84.2675 452.316 79.5726 448.96 75 445C74.2072 444.403 73.4145 443.806 72.5977 443.191C63.0668 435.151 56.0633 423.7 52 412C51.647 411.014 51.2939 410.027 50.9302 409.011C47.235 397.254 47.5487 385.791 47.75 373.562C47.8738 362.889 47.8738 362.889 48 352C32.16 352 16.32 352 0 352C0 341.44 0 330.88 0 320C15.84 320 31.68 320 48 320C48 304.16 48 288.32 48 272C32.16 272 16.32 272 0 272C0 261.44 0 250.88 0 240C15.84 240 31.68 240 48 240C48 224.16 48 208.32 48 192C32.16 192 16.32 192 0 192C0 181.44 0 170.88 0 160C15.84 160 31.68 160 48 160C47.8427 145.866 47.8427 145.866 47.6396 131.732C47.4996 117.265 48.8935 104.609 55.8125 91.625C56.1551 90.9607 56.4976 90.2965 56.8506 89.6121C59.6838 84.2675 63.0402 79.5726 67 75C67.8953 73.8108 67.8953 73.8108 68.8086 72.5977C76.8489 63.0668 88.3 56.0633 100 52C101.48 51.4704 101.48 51.4704 102.989 50.9302C114.746 47.235 126.209 47.5487 138.438 47.75C145.553 47.8325 152.669 47.915 160 48C160 32.16 160 16.32 160 0ZM91.75 97.3125C81.3797 109.439 79.8416 123.376 79.8663 138.714C79.864 139.757 79.8618 140.801 79.8594 141.877C79.8531 145.356 79.8539 148.836 79.8547 152.315C79.8517 154.818 79.8483 157.32 79.8446 159.823C79.8367 165.904 79.8335 171.985 79.8329 178.066C79.8325 183.013 79.8304 187.96 79.8272 192.906C79.8184 206.954 79.8138 221.001 79.8146 235.048C79.8146 235.805 79.8147 236.561 79.8147 237.34C79.8147 238.097 79.8148 238.854 79.8148 239.634C79.8152 251.898 79.8057 264.162 79.7916 276.426C79.7772 289.041 79.7703 301.656 79.7712 314.27C79.7715 321.344 79.7688 328.417 79.758 335.49C79.7479 342.145 79.7482 348.8 79.7555 355.455C79.7565 357.891 79.7542 360.327 79.7481 362.763C79.6326 393.022 79.6326 393.022 95.1016 418.164C107.684 430.035 122.078 432.161 138.714 432.134C139.757 432.136 140.801 432.138 141.877 432.141C145.356 432.147 148.836 432.146 152.315 432.145C154.818 432.148 157.32 432.152 159.823 432.155C165.904 432.163 171.985 432.166 178.066 432.167C183.013 432.168 187.96 432.17 192.906 432.173C206.954 432.182 221.001 432.186 235.048 432.185C235.805 432.185 236.561 432.185 237.34 432.185C238.097 432.185 238.854 432.185 239.634 432.185C251.898 432.185 264.162 432.194 276.426 432.208C289.041 432.223 301.656 432.23 314.27 432.229C321.344 432.229 328.417 432.231 335.49 432.242C342.145 432.252 348.8 432.252 355.455 432.245C357.891 432.243 360.327 432.246 362.763 432.252C393.022 432.367 393.022 432.367 418.164 416.898C430.035 404.316 432.161 389.922 432.134 373.286C432.136 372.243 432.138 371.199 432.141 370.123C432.147 366.644 432.146 363.164 432.145 359.685C432.148 357.182 432.152 354.68 432.155 352.177C432.163 346.096 432.166 340.015 432.167 333.934C432.168 328.987 432.17 324.04 432.173 319.094C432.182 305.046 432.186 290.999 432.185 276.952C432.185 276.195 432.185 275.439 432.185 274.66C432.185 273.903 432.185 273.146 432.185 272.366C432.185 260.102 432.194 247.838 432.208 235.574C432.223 222.959 432.23 210.344 432.229 197.73C432.229 190.656 432.231 183.583 432.242 176.51C432.252 169.855 432.252 163.2 432.245 156.545C432.243 154.109 432.246 151.673 432.252 149.237C432.367 118.978 432.367 118.978 416.898 93.8359C404.316 81.9647 389.922 79.8395 373.286 79.8663C372.243 79.864 371.199 79.8618 370.123 79.8594C366.644 79.8531 363.164 79.8539 359.685 79.8547C357.182 79.8517 354.68 79.8483 352.177 79.8446C346.096 79.8367 340.015 79.8335 333.934 79.8329C328.987 79.8325 324.04 79.8304 319.094 79.8272C305.046 79.8184 290.999 79.8138 276.952 79.8146C276.195 79.8146 275.439 79.8147 274.66 79.8147C273.903 79.8147 273.146 79.8148 272.366 79.8148C260.102 79.8152 247.838 79.8057 235.574 79.7916C222.959 79.7772 210.344 79.7703 197.73 79.7712C190.656 79.7715 183.583 79.7688 176.51 79.758C169.855 79.7479 163.2 79.7482 156.545 79.7555C154.109 79.7565 151.673 79.7542 149.237 79.7481C126.731 79.6958 108.11 79.9721 91.75 97.3125Z" fill="#024D81"/>
<path d="M247.564 168.499C249.067 169.635 250.546 170.804 252.002 171.999C252.989 172.775 253.977 173.551 254.994 174.351C258.004 176.88 260.28 179.662 262.564 182.874C263.288 183.862 264.011 184.849 264.756 185.866C271.188 196.581 272.741 207.94 272.57 220.196C272.568 221.647 272.569 223.097 272.572 224.548C272.573 228.433 272.544 232.318 272.509 236.204C272.477 240.284 272.475 244.363 272.469 248.443C272.453 256.146 272.412 263.848 272.362 271.551C272.306 280.33 272.279 289.109 272.254 297.888C272.202 315.925 272.11 333.962 272.002 351.999C261.442 351.999 250.882 351.999 240.002 351.999C240.002 333.519 240.002 315.039 240.002 295.999C224.162 295.999 208.322 295.999 192.002 295.999C192.002 314.479 192.002 332.959 192.002 351.999C181.442 351.999 170.882 351.999 160.002 351.999C159.889 333.092 159.797 314.185 159.743 295.277C159.717 286.497 159.682 277.716 159.625 268.936C159.575 261.277 159.543 253.618 159.532 245.958C159.525 241.908 159.51 237.859 159.473 233.809C159.439 229.985 159.429 226.161 159.436 222.337C159.435 220.945 159.425 219.553 159.406 218.162C159.214 203.669 162.694 191.338 172.002 179.999C172.778 179.012 173.554 178.024 174.354 177.007C191.808 156.234 225.726 153.714 247.564 168.499ZM197.35 200.863C191.862 208.8 191.71 218.031 191.807 227.378C191.809 228.313 191.811 229.247 191.813 230.21C191.823 233.661 191.851 237.111 191.877 240.562C191.918 248.296 191.959 256.031 192.002 263.999C207.842 263.999 223.682 263.999 240.002 263.999C240.043 256.265 240.084 248.531 240.127 240.562C240.145 238.138 240.163 235.714 240.182 233.216C240.188 231.27 240.193 229.324 240.197 227.378C240.213 225.893 240.213 225.893 240.228 224.377C240.231 215.109 239.368 206.178 233.002 198.999C226.772 193.455 220.655 192.026 212.412 192.421C206.161 193.481 201.551 196.125 197.35 200.863Z" fill="#024D81"/>
<path d="M320 160C330.56 160 341.12 160 352 160C352 223.36 352 286.72 352 352C341.44 352 330.88 352 320 352C320 288.64 320 225.28 320 160Z" fill="#024D81"/>
</g>
<defs>
<clipPath id="clip0_440_1449">
<rect width="512" height="512" fill="white"/>
</clipPath>
</defs>
</svg>
