<svg width="300" height="300" viewBox="0 0 300 300" fill="none" xmlns="http://www.w3.org/2000/svg">
<path fill-rule="evenodd" clip-rule="evenodd" d="M148.416 109.882H127.409L125.724 105.715C124.389 102.413 121.948 99.6797 118.821 97.982C115.693 96.2844 112.074 95.728 108.581 96.4077C105.089 97.0877 101.942 98.9617 99.6783 101.71C97.4147 104.457 96.1763 107.908 96.1763 111.47C96.1763 115.032 97.4147 118.482 99.6783 121.23C101.942 123.978 105.089 125.852 108.581 126.532C112.074 127.212 115.693 126.655 118.821 124.958C121.948 123.26 124.389 120.526 125.724 117.225L127.409 113.057H148.416V239.662C148.416 247.798 144.962 257.158 136.2 261.651C129.967 264.911 123.044 266.631 116.01 266.667H115.976C96.8807 266.667 82.755 256.939 73.8567 245.81C68.5027 239.135 64.5597 231.458 62.249 223.245C57.623 221.424 53.3254 218.839 49.539 215.589L49.5317 215.582C40.2077 207.555 33.3327 194.904 33.3327 177.129C33.3327 168.561 33.9387 160.721 35.6153 153.9L36.863 148.825H88.3993C99.208 148.825 108.164 156.797 109.681 167.197L110.43 172.334L105.634 174.319C102.349 175.679 99.637 178.139 97.964 181.28C96.291 184.42 95.7607 188.045 96.4644 191.534C97.168 195.023 99.0617 198.158 101.82 200.403C104.579 202.648 108.031 203.864 111.586 203.842C115.141 203.821 118.578 202.564 121.31 200.287C124.042 198.009 125.898 194.851 126.56 191.354C127.222 187.857 126.648 184.239 124.938 181.118C123.228 177.998 120.487 175.57 117.185 174.25L113.316 172.702L113.012 168.546C112.557 162.324 109.766 156.505 105.2 152.258C100.634 148.012 94.632 145.651 88.3993 145.65H32.916L47.191 133.846C47.8567 133.295 48.5463 132.775 49.257 132.287C48.715 129.401 48.3833 126.477 48.2657 123.539C47.868 114.629 49.1963 105.428 51.8217 97.222L51.826 97.209C54.3967 89.2307 58.616 80.9157 64.9797 74.9137C68.201 71.7857 72.0693 69.4337 76.29 68.0097C79.39 58.855 85.3183 51.3464 92.431 45.8127C102.81 37.7167 116.251 33.3334 129.528 33.3334H129.539C135.935 33.3334 140.874 36.6194 143.984 40.969C146.996 45.1817 148.416 50.475 148.416 55.5287V109.882ZM96.5283 51.0717C89.4113 56.6074 83.8343 64.245 81.6453 73.4897C77.0977 74.329 72.9014 76.501 69.5894 79.73C64.3094 84.6934 60.5473 91.88 58.1713 99.2537C55.7733 106.748 54.5633 115.168 54.9263 123.257C55.0477 126.305 55.4277 129.336 56.0613 132.317C56.2997 133.439 56.5743 134.554 56.8843 135.66C54.92 136.502 53.0867 137.621 51.4393 138.983H88.3993C96.317 138.985 103.941 141.983 109.74 147.377C115.539 152.77 119.083 160.159 119.661 168.06C124.399 169.955 128.331 173.438 130.784 177.914C133.237 182.389 134.06 187.579 133.11 192.594C132.161 197.609 129.499 202.139 125.58 205.407C121.66 208.675 116.728 210.478 111.626 210.509C106.524 210.539 101.57 208.795 97.6123 205.574C93.6543 202.353 90.9383 197.856 89.9293 192.852C88.92 187.849 89.6803 182.65 92.0803 178.145C94.48 173.64 98.37 170.11 103.084 168.159C102.039 160.995 95.8573 155.492 88.3993 155.492H42.0893C40.5933 161.578 39.9993 168.819 39.9993 177.129C39.9993 193.021 46.0714 203.806 53.8813 210.53C57.946 214.019 62.7037 216.608 67.8404 218.124C69.7117 226.726 73.5523 234.777 79.0603 241.643C87.0133 251.592 99.3663 260 115.976 260C121.955 259.97 127.84 258.506 133.136 255.73C138.977 252.747 141.749 246.221 141.749 239.662V119.724H131.904C129.99 124.459 126.489 128.381 122.001 130.817C117.514 133.253 112.319 134.051 107.307 133.075C102.296 132.1 97.7797 129.41 94.5327 125.469C91.2857 121.527 89.5097 116.578 89.5097 111.47C89.5097 106.362 91.2857 101.413 94.5327 97.4707C97.7797 93.529 102.296 90.8397 107.307 89.864C112.319 88.8884 117.514 89.6867 122.001 92.1227C126.489 94.5587 129.99 98.4804 131.904 103.216H141.749V55.5287C141.749 47.748 137.316 40 129.539 40H129.528C117.648 40 105.669 43.94 96.5283 51.0717ZM151.583 198.35H176.399C182.945 198.35 189.223 195.748 193.852 191.117C198.481 186.485 201.083 180.202 201.083 173.651V149.402L205.248 147.716C208.547 146.381 211.279 143.94 212.976 140.81C214.674 137.68 215.23 134.056 214.55 130.56C213.87 127.063 211.996 123.913 209.25 121.649C206.504 119.385 203.057 118.147 199.499 118.147C195.942 118.147 192.495 119.385 189.749 121.649C187.003 123.913 185.128 127.063 184.448 130.56C183.768 134.056 184.325 137.68 186.022 140.81C187.72 143.94 190.452 146.381 193.75 147.716L197.916 149.402V173.651C197.916 179.358 195.65 184.833 191.615 188.869C187.58 192.906 182.107 195.175 176.399 195.175H151.583V55.5287C151.583 50.475 153.003 45.1817 156.015 40.969C159.125 36.6194 164.064 33.3334 170.459 33.3334C183.759 33.3334 197.189 37.7167 207.568 45.8127C214.674 51.3417 220.596 58.8487 223.698 67.9824C228.064 69.4604 231.865 71.9557 234.969 74.8664L234.976 74.8724C241.362 80.8764 245.596 89.199 248.174 97.2117L248.177 97.222C250.804 105.433 252.132 114.64 251.732 123.556C251.603 126.417 251.291 129.355 250.748 132.286C254.2 134.651 257.079 137.728 259.344 141.398C265.053 150.609 266.666 163.073 266.666 177.129C266.666 194.91 259.794 207.578 250.459 215.589C246.67 218.841 242.369 221.427 237.739 223.246C235.431 231.459 231.491 239.136 226.14 245.812C217.241 256.941 203.116 266.667 184.011 266.667H183.982C176.944 266.635 170.016 264.917 163.779 261.657C155.037 257.153 151.583 247.801 151.583 239.662V198.35ZM220.938 241.643C226.442 234.776 230.279 226.725 232.147 218.124C237.288 216.609 242.049 214.021 246.117 210.53C253.927 203.828 259.999 193.032 259.999 177.129C259.999 163.295 258.349 152.443 253.674 144.904C251.21 140.909 247.91 137.905 243.84 135.99L243.114 135.66C244.28 131.621 244.885 127.395 245.072 123.257C245.435 115.168 244.225 106.748 241.827 99.2537C239.451 91.869 235.689 84.6934 230.409 79.73C227.087 76.6154 222.973 74.26 218.353 73.4897C216.164 64.256 210.587 56.6074 203.47 51.0717C194.329 43.94 182.361 40 170.459 40C162.682 40 158.249 47.748 158.249 55.5287V188.508H176.399C180.338 188.508 184.115 186.943 186.9 184.157C189.685 181.37 191.249 177.591 191.249 173.651V153.896C186.516 151.98 182.597 148.478 180.162 143.988C177.727 139.498 176.929 134.301 177.904 129.287C178.88 124.273 181.568 119.754 185.507 116.505C189.447 113.257 194.394 111.48 199.499 111.48C204.605 111.48 209.551 113.257 213.491 116.505C217.431 119.754 220.119 124.273 221.094 129.287C222.069 134.301 221.271 139.498 218.837 143.988C216.402 148.478 212.482 151.98 207.749 153.896V173.651C207.749 181.97 204.446 189.947 198.567 195.83C192.688 201.712 184.714 205.017 176.399 205.017H158.249V239.662C158.249 246.221 161.021 252.747 166.851 255.741C172.149 258.513 178.033 259.973 184.011 260C200.632 260 212.985 251.592 220.938 241.643ZM99.3327 111.47C99.3327 108.243 100.614 105.148 102.895 102.866C105.176 100.583 108.271 99.3004 111.499 99.3004C114.727 99.3004 117.822 100.583 120.104 102.866C122.385 105.148 123.666 108.243 123.666 111.47C123.666 114.696 122.385 117.791 120.104 120.074C117.822 122.356 114.727 123.639 111.499 123.639C108.272 123.639 105.176 122.356 102.895 120.074C100.614 117.791 99.3327 114.696 99.3327 111.47ZM102.895 179.904C105.176 177.622 108.272 176.339 111.499 176.339C114.727 176.339 117.822 177.622 120.104 179.904C122.385 182.187 123.666 185.282 123.666 188.508C123.666 191.735 122.385 194.83 120.104 197.112C117.822 199.395 114.727 200.678 111.499 200.678C108.272 200.678 105.176 199.395 102.895 197.112C100.614 194.83 99.3327 191.735 99.3327 188.508C99.3327 185.282 100.614 182.187 102.895 179.904ZM190.895 142.085C188.614 139.802 187.333 136.707 187.333 133.481C187.333 130.254 188.614 127.159 190.895 124.877C193.176 122.594 196.271 121.311 199.499 121.311C202.727 121.311 205.822 122.594 208.104 124.877C210.385 127.159 211.666 130.254 211.666 133.481C211.666 136.707 210.385 139.802 208.104 142.085C205.822 144.367 202.727 145.65 199.499 145.65C196.271 145.65 193.176 144.367 190.895 142.085ZM107.61 107.579C106.579 108.611 105.999 110.01 105.999 111.47C105.999 112.929 106.579 114.329 107.61 115.361C108.642 116.393 110.041 116.972 111.499 116.972C112.958 116.972 114.357 116.393 115.388 115.361C116.42 114.329 116.999 112.929 116.999 111.47C116.999 110.01 116.42 108.611 115.388 107.579C114.357 106.547 112.958 105.967 111.499 105.967C110.041 105.967 108.642 106.547 107.61 107.579ZM107.61 184.617C108.642 183.585 110.041 183.005 111.499 183.005C112.958 183.005 114.357 183.585 115.388 184.617C116.42 185.649 116.999 187.049 116.999 188.508C116.999 189.968 116.42 191.367 115.388 192.399C114.357 193.431 112.958 194.011 111.499 194.011C110.041 194.011 108.642 193.431 107.61 192.399C106.579 191.367 105.999 189.968 105.999 188.508C105.999 187.049 106.579 185.649 107.61 184.617ZM195.61 137.372C194.579 136.34 193.999 134.94 193.999 133.481C193.999 132.021 194.579 130.622 195.61 129.59C196.642 128.558 198.041 127.978 199.499 127.978C200.958 127.978 202.357 128.558 203.388 129.59C204.42 130.622 204.999 132.021 204.999 133.481C204.999 134.94 204.42 136.34 203.388 137.372C202.357 138.404 200.958 138.983 199.499 138.983C198.041 138.983 196.642 138.404 195.61 137.372Z" fill="black"/>
</svg>
