<svg width="281" height="175" viewBox="0 0 281 175" fill="none" xmlns="http://www.w3.org/2000/svg">
<path d="M38.1773 1.26763C25.4152 3.9006 11.6927 14.0918 5.99311 25.2742C0.293494 36.4566 0.0766602 39.2134 0.0766602 86.2662C0.0766602 111.388 0.510326 132.08 1.12985 135.301C4.87797 154.445 19.8704 169.437 39.0137 173.185C44.8062 174.239 120.388 174.765 120.388 173.619C120.388 172.783 113.945 147.444 113.635 147.134C113.542 146.918 100.13 143.975 83.8672 140.475C45.9833 132.235 47.0985 132.545 43.9699 128.766L41.213 125.482V48.847L43.9699 45.5326C47.1295 41.7225 45.9833 42.0632 83.8672 33.8236L113.635 27.1637C113.945 26.9469 120.388 1.60837 120.388 0.833963C120.388 -0.188251 43.2574 0.307367 38.1773 1.36056V1.26763ZM160.502 1.42251C160.595 3.31205 166.512 26.5442 167.162 27.1637C167.379 27.4735 181.814 30.7569 199.129 34.4431C216.445 38.1293 231.84 41.8774 233.203 42.6828C235.062 43.7669 236.611 45.2848 237.757 47.1124C239.46 50.0551 239.646 53.2456 239.646 87.2265C239.646 121.207 239.429 124.367 237.757 127.341C236.611 129.137 235.062 130.655 233.203 131.77C231.84 132.514 216.569 136.2 199.129 140.01L167.162 147.351C166.543 147.971 160.626 171.203 160.502 173.092C160.502 174.239 168.091 174.455 201.453 174.146C247.421 173.712 247.979 173.619 259.688 165.72C268.113 159.928 274.464 151.626 277.84 141.961C280.256 134.899 280.256 134.248 280.256 87.2884C280.256 40.3286 280.256 39.7091 277.84 32.6155C274.464 22.9819 268.113 14.6493 259.688 8.85679C247.979 0.957865 247.452 0.833962 201.453 0.431272C168.122 0.12151 160.502 0.276394 160.502 1.48446V1.42251ZM113.387 85.0272C113.047 86.1423 112.985 87.3504 113.171 88.4965C113.48 90.2621 115.401 90.3861 140.182 90.7268L166.79 90.9436V83.5713H140.461C118.406 83.5713 113.852 83.7881 113.449 85.0582L113.387 85.0272Z" fill="#383D42"/>
</svg>
