<?xml version="1.0" encoding="UTF-8"?>
<svg version="1.1" xmlns="http://www.w3.org/2000/svg" width="1667" height="1667">
<path d="M0 0 C59.73 0 119.46 0 181 0 C181 0.99 181 1.98 181 3 C183.64 3 186.28 3 189 3 C189 3.99 189 4.98 189 6 C191.64 6 194.28 6 197 6 C197 6.66 197 7.32 197 8 C198.65 8 200.3 8 202 8 C202 8.99 202 9.98 202 11 C203.98 11 205.96 11 208 11 C208 11.99 208 12.98 208 14 C208.99 14 209.98 14 211 14 C211 14.66 211 15.32 211 16 C212.65 16 214.3 16 216 16 C216 16.99 216 17.98 216 19 C216.99 19 217.98 19 219 19 C219 19.99 219 20.98 219 22 C219.99 22 220.98 22 222 22 C222 22.99 222 23.98 222 25 C222.66 25 223.32 25 224 25 C224 25.66 224 26.32 224 27 C224.99 27 225.98 27 227 27 C227 27.99 227 28.98 227 30 C227.99 30 228.98 30 230 30 C230 30.99 230 31.98 230 33 C230.99 33 231.98 33 233 33 C233 33.99 233 34.98 233 36 C233.66 36 234.32 36 235 36 C235 37.65 235 39.3 235 41 C235.99 41 236.98 41 238 41 C238 41.99 238 42.98 238 44 C238.99 44 239.98 44 241 44 C241 45.65 241 47.3 241 49 C241.99 49 242.98 49 244 49 C244 50.98 244 52.96 244 55 C244.66 55 245.32 55 246 55 C246 56.65 246 58.3 246 60 C246.99 60 247.98 60 249 60 C249 62.97 249 65.94 249 69 C249.99 69 250.98 69 252 69 C252 73.29 252 77.58 252 82 C252.99 82 253.98 82 255 82 C255 148 255 214 255 282 C254.01 282 253.02 282 252 282 C252 285.63 252 289.26 252 293 C251.01 293 250.02 293 249 293 C249 295.97 249 298.94 249 302 C248.01 302 247.02 302 246 302 C246 303.65 246 305.3 246 307 C245.34 307 244.68 307 244 307 C244 308.98 244 310.96 244 313 C243.01 313 242.02 313 241 313 C241 314.65 241 316.3 241 318 C240.01 318 239.02 318 238 318 C238 319.65 238 321.3 238 323 C237.01 323 236.02 323 235 323 C235 323.99 235 324.98 235 326 C234.34 326 233.68 326 233 326 C233 326.99 233 327.98 233 329 C232.01 329 231.02 329 230 329 C230 329.99 230 330.98 230 332 C229.01 332 228.02 332 227 332 C227 332.66 227 333.32 227 334 C226.01 334 225.02 334 224 334 C224 334.99 224 335.98 224 337 C223.34 337 222.68 337 222 337 C222 337.99 222 338.98 222 340 C221.01 340 220.02 340 219 340 C219 340.99 219 341.98 219 343 C218.01 343 217.02 343 216 343 C216 343.66 216 344.32 216 345 C215.01 345 214.02 345 213 345 C213 345.99 213 346.98 213 348 C211.35 348 209.7 348 208 348 C208 348.99 208 349.98 208 351 C206.02 351 204.04 351 202 351 C202 351.99 202 352.98 202 354 C200.35 354 198.7 354 197 354 C197 354.66 197 355.32 197 356 C195.35 356 193.7 356 192 356 C192 356.99 192 357.98 192 359 C189.03 359 186.06 359 183 359 C183 359.99 183 360.98 183 362 C178.71 362 174.42 362 170 362 C170 362.99 170 363.98 170 365 C113.9 365 57.8 365 0 365 C0 363.02 0 361.04 0 359 C0.66 359 1.32 359 2 359 C2 355.37 2 351.74 2 348 C2.99 348 3.98 348 5 348 C5 344.37 5 340.74 5 337 C5.99 337 6.98 337 8 337 C8 333.37 8 329.74 8 326 C8.99 326 9.98 326 11 326 C11 322.37 11 318.74 11 315 C11.66 315 12.32 315 13 315 C13 311.37 13 307.74 13 304 C17.62 304 22.24 304 27 304 C27 303.34 27 302.68 27 302 C30.63 302 34.26 302 38 302 C38 301.01 38 300.02 38 299 C42.62 299 47.24 299 52 299 C52 298.01 52 297.02 52 296 C56.29 296 60.58 296 65 296 C65 295.01 65 294.02 65 293 C68.63 293 72.26 293 76 293 C76 292.34 76 291.68 76 291 C80.62 291 85.24 291 90 291 C90 290.01 90 289.02 90 288 C93.63 288 97.26 288 101 288 C101 287.01 101 286.02 101 285 C105.62 285 110.24 285 115 285 C115 284.01 115 283.02 115 282 C119.29 282 123.58 282 128 282 C128 281.34 128 280.68 128 280 C131.63 280 135.26 280 139 280 C139 279.01 139 278.02 139 277 C142.63 277 146.26 277 150 277 C150 276.01 150 275.02 150 274 C151.98 274 153.96 274 156 274 C156 273.01 156 272.02 156 271 C156.99 271 157.98 271 159 271 C159 270.34 159 269.68 159 269 C159.66 269 160.32 269 161 269 C161 268.01 161 267.02 161 266 C161.99 266 162.98 266 164 266 C164 264.02 164 262.04 164 260 C164.99 260 165.98 260 167 260 C167 207.53 167 155.06 167 101 C166.01 101 165.02 101 164 101 C164 99.35 164 97.7 164 96 C163.01 96 162.02 96 161 96 C161 95.01 161 94.02 161 93 C160.34 93 159.68 93 159 93 C159 92.34 159 91.68 159 91 C157.02 91 155.04 91 153 91 C153 90.01 153 89.02 153 88 C151.35 88 149.7 88 148 88 C148 87.01 148 86.02 148 85 C144.37 85 140.74 85 137 85 C137 84.01 137 83.02 137 82 C132.38 82 127.76 82 123 82 C123 81.34 123 80.68 123 80 C119.37 80 115.74 80 112 80 C112 79.01 112 78.02 112 77 C107.38 77 102.76 77 98 77 C98 76.01 98 75.02 98 74 C93.71 74 89.42 74 85 74 C85 73.01 85 72.02 85 71 C81.37 71 77.74 71 74 71 C74 70.34 74 69.68 74 69 C69.38 69 64.76 69 60 69 C60 68.01 60 67.02 60 66 C56.37 66 52.74 66 49 66 C49 65.01 49 64.02 49 63 C44.38 63 39.76 63 35 63 C35 62.01 35 61.02 35 60 C30.71 60 26.42 60 22 60 C22 59.34 22 58.68 22 58 C19.03 58 16.06 58 13 58 C13 54.37 13 50.74 13 47 C12.34 47 11.68 47 11 47 C11 43.37 11 39.74 11 36 C10.01 36 9.02 36 8 36 C8 32.37 8 28.74 8 25 C7.01 25 6.02 25 5 25 C5 21.37 5 17.74 5 14 C4.01 14 3.02 14 2 14 C2 10.37 2 6.74 2 3 C1.34 3 0.68 3 0 3 C0 2.01 0 1.02 0 0 Z " fill="#363C41" transform="translate(874,543)"/>
<path d="M0 0 C59.73 0 119.46 0 181 0 C181 0.99 181 1.98 181 3 C180.01 3 179.02 3 178 3 C178 6.63 178 10.26 178 14 C177.34 14 176.68 14 176 14 C176 17.63 176 21.26 176 25 C175.01 25 174.02 25 173 25 C173 28.63 173 32.26 173 36 C172.01 36 171.02 36 170 36 C170 39.63 170 43.26 170 47 C169.01 47 168.02 47 167 47 C167 50.63 167 54.26 167 58 C164.36 58 161.72 58 159 58 C159 58.66 159 59.32 159 60 C154.71 60 150.42 60 146 60 C146 60.99 146 61.98 146 63 C141.38 63 136.76 63 132 63 C132 63.99 132 64.98 132 66 C128.37 66 124.74 66 121 66 C121 66.99 121 67.98 121 69 C116.38 69 111.76 69 107 69 C107 69.66 107 70.32 107 71 C103.37 71 99.74 71 96 71 C96 71.99 96 72.98 96 74 C91.38 74 86.76 74 82 74 C82 74.99 82 75.98 82 77 C77.71 77 73.42 77 69 77 C69 77.99 69 78.98 69 80 C65.37 80 61.74 80 58 80 C58 80.66 58 81.32 58 82 C53.38 82 48.76 82 44 82 C44 82.99 44 83.98 44 85 C40.37 85 36.74 85 33 85 C33 85.99 33 86.98 33 88 C31.35 88 29.7 88 28 88 C28 88.99 28 89.98 28 91 C26.02 91 24.04 91 22 91 C22 91.66 22 92.32 22 93 C21.01 93 20.02 93 19 93 C19 93.99 19 94.98 19 96 C18.34 96 17.68 96 17 96 C17 97.65 17 99.3 17 101 C16.01 101 15.02 101 14 101 C14 153.47 14 205.94 14 260 C14.99 260 15.98 260 17 260 C17 261.98 17 263.96 17 266 C17.66 266 18.32 266 19 266 C19 266.99 19 267.98 19 269 C19.99 269 20.98 269 22 269 C22 269.66 22 270.32 22 271 C22.99 271 23.98 271 25 271 C25 271.99 25 272.98 25 274 C26.65 274 28.3 274 30 274 C30 274.99 30 275.98 30 277 C33.63 277 37.26 277 41 277 C41 277.99 41 278.98 41 280 C44.63 280 48.26 280 52 280 C52 280.66 52 281.32 52 282 C56.62 282 61.24 282 66 282 C66 282.99 66 283.98 66 285 C70.62 285 75.24 285 80 285 C80 285.99 80 286.98 80 288 C83.63 288 87.26 288 91 288 C91 288.99 91 289.98 91 291 C95.29 291 99.58 291 104 291 C104 291.66 104 292.32 104 293 C107.63 293 111.26 293 115 293 C115 293.99 115 294.98 115 296 C119.62 296 124.24 296 129 296 C129 296.99 129 297.98 129 299 C133.62 299 138.24 299 143 299 C143 299.99 143 300.98 143 302 C146.63 302 150.26 302 154 302 C154 302.66 154 303.32 154 304 C158.29 304 162.58 304 167 304 C167 307.63 167 311.26 167 315 C167.99 315 168.98 315 170 315 C170 318.63 170 322.26 170 326 C170.99 326 171.98 326 173 326 C173 329.63 173 333.26 173 337 C173.99 337 174.98 337 176 337 C176 340.63 176 344.26 176 348 C176.66 348 177.32 348 178 348 C178 351.63 178 355.26 178 359 C178.99 359 179.98 359 181 359 C181 360.98 181 362.96 181 365 C124.9 365 68.8 365 11 365 C11 364.01 11 363.02 11 362 C6.38 362 1.76 362 -3 362 C-3 361.01 -3 360.02 -3 359 C-5.64 359 -8.28 359 -11 359 C-11 358.01 -11 357.02 -11 356 C-12.65 356 -14.3 356 -16 356 C-16 355.34 -16 354.68 -16 354 C-17.98 354 -19.96 354 -22 354 C-22 353.01 -22 352.02 -22 351 C-23.65 351 -25.3 351 -27 351 C-27 350.01 -27 349.02 -27 348 C-28.98 348 -30.96 348 -33 348 C-33 347.01 -33 346.02 -33 345 C-33.66 345 -34.32 345 -35 345 C-35 344.34 -35 343.68 -35 343 C-35.99 343 -36.98 343 -38 343 C-38 342.01 -38 341.02 -38 340 C-38.99 340 -39.98 340 -41 340 C-41 339.01 -41 338.02 -41 337 C-41.99 337 -42.98 337 -44 337 C-44 336.01 -44 335.02 -44 334 C-44.66 334 -45.32 334 -46 334 C-46 333.34 -46 332.68 -46 332 C-46.99 332 -47.98 332 -49 332 C-49 331.01 -49 330.02 -49 329 C-49.99 329 -50.98 329 -52 329 C-52 328.01 -52 327.02 -52 326 C-52.99 326 -53.98 326 -55 326 C-55 325.01 -55 324.02 -55 323 C-55.66 323 -56.32 323 -57 323 C-57 321.35 -57 319.7 -57 318 C-57.99 318 -58.98 318 -60 318 C-60 316.35 -60 314.7 -60 313 C-60.99 313 -61.98 313 -63 313 C-63 311.02 -63 309.04 -63 307 C-63.99 307 -64.98 307 -66 307 C-66 305.35 -66 303.7 -66 302 C-66.66 302 -67.32 302 -68 302 C-68 299.03 -68 296.06 -68 293 C-68.99 293 -69.98 293 -71 293 C-71 289.37 -71 285.74 -71 282 C-71.99 282 -72.98 282 -74 282 C-74 216 -74 150 -74 82 C-73.01 82 -72.02 82 -71 82 C-71 77.71 -71 73.42 -71 69 C-70.01 69 -69.02 69 -68 69 C-68 66.03 -68 63.06 -68 60 C-67.34 60 -66.68 60 -66 60 C-66 58.35 -66 56.7 -66 55 C-65.01 55 -64.02 55 -63 55 C-63 53.02 -63 51.04 -63 49 C-62.01 49 -61.02 49 -60 49 C-60 47.35 -60 45.7 -60 44 C-59.01 44 -58.02 44 -57 44 C-57 43.01 -57 42.02 -57 41 C-56.34 41 -55.68 41 -55 41 C-55 39.35 -55 37.7 -55 36 C-54.01 36 -53.02 36 -52 36 C-52 35.01 -52 34.02 -52 33 C-51.01 33 -50.02 33 -49 33 C-49 32.01 -49 31.02 -49 30 C-48.01 30 -47.02 30 -46 30 C-46 29.01 -46 28.02 -46 27 C-45.34 27 -44.68 27 -44 27 C-44 26.34 -44 25.68 -44 25 C-43.01 25 -42.02 25 -41 25 C-41 24.01 -41 23.02 -41 22 C-40.01 22 -39.02 22 -38 22 C-38 21.01 -38 20.02 -38 19 C-37.01 19 -36.02 19 -35 19 C-35 18.01 -35 17.02 -35 16 C-33.35 16 -31.7 16 -30 16 C-30 15.34 -30 14.68 -30 14 C-29.01 14 -28.02 14 -27 14 C-27 13.01 -27 12.02 -27 11 C-25.35 11 -23.7 11 -22 11 C-22 10.01 -22 9.02 -22 8 C-20.02 8 -18.04 8 -16 8 C-16 7.34 -16 6.68 -16 6 C-13.36 6 -10.72 6 -8 6 C-8 5.01 -8 4.02 -8 3 C-5.36 3 -2.72 3 0 3 C0 2.01 0 1.02 0 0 Z " fill="#363C41" transform="translate(613,543)"/>
<path d="M0 0 C10.89 0 21.78 0 33 0 C33 0.66 33 1.32 33 2 C33.99 2 34.98 2 36 2 C36 3.98 36 5.96 36 8 C36.66 8 37.32 8 38 8 C38 9.65 38 11.3 38 13 C38.99 13 39.98 13 41 13 C41 14.98 41 16.96 41 19 C41.99 19 42.98 19 44 19 C44 20.65 44 22.3 44 24 C44.99 24 45.98 24 47 24 C47 25.98 47 27.96 47 30 C47.66 30 48.32 30 49 30 C49 32.64 49 35.28 49 38 C49.99 38 50.98 38 52 38 C52 39.65 52 41.3 52 43 C52.99 43 53.98 43 55 43 C55 45.97 55 48.94 55 52 C55.99 52 56.98 52 58 52 C58 53.65 58 55.3 58 57 C58.66 57 59.32 57 60 57 C60 59.64 60 62.28 60 65 C60.99 65 61.98 65 63 65 C63 67.97 63 70.94 63 74 C63.99 74 64.98 74 66 74 C66 76.64 66 79.28 66 82 C66.99 82 67.98 82 69 82 C69 84.64 69 87.28 69 90 C69.66 90 70.32 90 71 90 C71 92.64 71 95.28 71 98 C71.99 98 72.98 98 74 98 C74 100.64 74 103.28 74 106 C74.99 106 75.98 106 77 106 C77 108.97 77 111.94 77 115 C77.99 115 78.98 115 80 115 C80 118.63 80 122.26 80 126 C80.66 126 81.32 126 82 126 C82 128.64 82 131.28 82 134 C82.99 134 83.98 134 85 134 C85 137.63 85 141.26 85 145 C85.99 145 86.98 145 88 145 C88 148.63 88 152.26 88 156 C88.99 156 89.98 156 91 156 C91 158.64 91 161.28 91 164 C82.75 164 74.5 164 66 164 C66 163.01 66 162.02 66 161 C65.01 161 64.02 161 63 161 C63 157.37 63 153.74 63 150 C62.01 150 61.02 150 60 150 C60 146.37 60 142.74 60 139 C59.34 139 58.68 139 58 139 C58 136.36 58 133.72 58 131 C57.01 131 56.02 131 55 131 C55 129.35 55 127.7 55 126 C29.59 126 4.18 126 -22 126 C-22 126.66 -22 127.32 -22 128 C-22.99 128 -23.98 128 -25 128 C-25 130.97 -25 133.94 -25 137 C-25.66 137 -26.32 137 -27 137 C-27 140.63 -27 144.26 -27 148 C-27.99 148 -28.98 148 -30 148 C-30 151.63 -30 155.26 -30 159 C-30.99 159 -31.98 159 -33 159 C-33 160.65 -33 162.3 -33 164 C-40.92 164 -48.84 164 -57 164 C-57 160.37 -57 156.74 -57 153 C-56.34 153 -55.68 153 -55 153 C-55 149.37 -55 145.74 -55 142 C-54.01 142 -53.02 142 -52 142 C-52 138.37 -52 134.74 -52 131 C-51.01 131 -50.02 131 -49 131 C-49 128.36 -49 125.72 -49 123 C-48.01 123 -47.02 123 -46 123 C-46 119.37 -46 115.74 -46 112 C-45.34 112 -44.68 112 -44 112 C-44 109.36 -44 106.72 -44 104 C-43.01 104 -42.02 104 -41 104 C-41 101.36 -41 98.72 -41 96 C-40.01 96 -39.02 96 -38 96 C-38 93.03 -38 90.06 -38 87 C-37.34 87 -36.68 87 -36 87 C-36 84.36 -36 81.72 -36 79 C-35.01 79 -34.02 79 -33 79 C-33 76.36 -33 73.72 -33 71 C-32.01 71 -31.02 71 -30 71 C-30 68.36 -30 65.72 -30 63 C-29.01 63 -28.02 63 -27 63 C-27 61.02 -27 59.04 -27 57 C-26.34 57 -25.68 57 -25 57 C-25 54.36 -25 51.72 -25 49 C-24.01 49 -23.02 49 -22 49 C-22 47.02 -22 45.04 -22 43 C-21.01 43 -20.02 43 -19 43 C-19 40.36 -19 37.72 -19 35 C-18.01 35 -17.02 35 -16 35 C-16 33.35 -16 31.7 -16 30 C-15.34 30 -14.68 30 -14 30 C-14 28.02 -14 26.04 -14 24 C-13.01 24 -12.02 24 -11 24 C-11 21.36 -11 18.72 -11 16 C-10.01 16 -9.02 16 -8 16 C-8 14.35 -8 12.7 -8 11 C-7.01 11 -6.02 11 -5 11 C-5 9.02 -5 7.04 -5 5 C-4.34 5 -3.68 5 -3 5 C-3 4.01 -3 3.02 -3 2 C-2.01 2 -1.02 2 0 2 C0 1.34 0 0.68 0 0 Z M14 24 C14 25.98 14 27.96 14 30 C13.01 30 12.02 30 11 30 C11 32.64 11 35.28 11 38 C10.01 38 9.02 38 8 38 C8 39.65 8 41.3 8 43 C7.34 43 6.68 43 6 43 C6 44.98 6 46.96 6 49 C5.01 49 4.02 49 3 49 C3 51.64 3 54.28 3 57 C2.01 57 1.02 57 0 57 C0 58.98 0 60.96 0 63 C-0.99 63 -1.98 63 -3 63 C-3 65.64 -3 68.28 -3 71 C-3.66 71 -4.32 71 -5 71 C-5 72.65 -5 74.3 -5 76 C-5.99 76 -6.98 76 -8 76 C-8 78.97 -8 81.94 -8 85 C-8.99 85 -9.98 85 -11 85 C-11 87.64 -11 90.28 -11 93 C-11.99 93 -12.98 93 -14 93 C-14 95.64 -14 98.28 -14 101 C6.13 101 26.26 101 47 101 C47 99.35 47 97.7 47 96 C46.01 96 45.02 96 44 96 C44 93.03 44 90.06 44 87 C43.01 87 42.02 87 41 87 C41 84.36 41 81.72 41 79 C40.01 79 39.02 79 38 79 C38 76.36 38 73.72 38 71 C37.34 71 36.68 71 36 71 C36 69.02 36 67.04 36 65 C35.01 65 34.02 65 33 65 C33 62.36 33 59.72 33 57 C32.01 57 31.02 57 30 57 C30 55.35 30 53.7 30 52 C29.34 52 28.68 52 28 52 C28 49.03 28 46.06 28 43 C27.01 43 26.02 43 25 43 C25 41.35 25 39.7 25 38 C24.01 38 23.02 38 22 38 C22 36.02 22 34.04 22 32 C21.01 32 20.02 32 19 32 C19 30.35 19 28.7 19 27 C18.34 27 17.68 27 17 27 C17 26.01 17 25.02 17 24 C16.01 24 15.02 24 14 24 Z " fill="#363C41" transform="translate(265,993)"/>
<path d="M0 0 C8.25 0 16.5 0 25 0 C25 14.19 25 28.38 25 43 C27.64 43 30.28 43 33 43 C33 42.34 33 41.68 33 41 C45.87 41 58.74 41 72 41 C72 41.66 72 42.32 72 43 C74.64 43 77.28 43 80 43 C80 43.99 80 44.98 80 46 C81.65 46 83.3 46 85 46 C85 46.99 85 47.98 85 49 C85.99 49 86.98 49 88 49 C88 49.99 88 50.98 88 52 C88.99 52 89.98 52 91 52 C91 52.66 91 53.32 91 54 C91.99 54 92.98 54 94 54 C94 55.98 94 57.96 94 60 C94.66 60 95.32 60 96 60 C96 62.64 96 65.28 96 68 C96.99 68 97.98 68 99 68 C99 91.43 99 114.86 99 139 C98.01 139 97.02 139 96 139 C96 141.97 96 144.94 96 148 C95.34 148 94.68 148 94 148 C94 149.65 94 151.3 94 153 C93.01 153 92.02 153 91 153 C91 153.99 91 154.98 91 156 C90.01 156 89.02 156 88 156 C88 156.99 88 157.98 88 159 C87.01 159 86.02 159 85 159 C85 159.66 85 160.32 85 161 C83.35 161 81.7 161 80 161 C80 161.99 80 162.98 80 164 C78.02 164 76.04 164 74 164 C74 164.99 74 165.98 74 167 C56.84 167 39.68 167 22 167 C22 166.01 22 165.02 22 164 C14.74 164 7.48 164 0 164 C0 109.88 0 55.76 0 0 Z M39 65 C39 65.99 39 66.98 39 68 C34.38 68 29.76 68 25 68 C25 92.42 25 116.84 25 142 C32.26 142 39.52 142 47 142 C47 142.99 47 143.98 47 145 C49.64 145 52.28 145 55 145 C55 144.01 55 143.02 55 142 C58.63 142 62.26 142 66 142 C66 141.01 66 140.02 66 139 C67.98 139 69.96 139 72 139 C72 137.35 72 135.7 72 134 C72.66 134 73.32 134 74 134 C74 114.2 74 94.4 74 74 C73.34 74 72.68 74 72 74 C72 72.02 72 70.04 72 68 C70.02 68 68.04 68 66 68 C66 67.01 66 66.02 66 65 C57.09 65 48.18 65 39 65 Z " fill="#363C41" transform="translate(462,993)"/>
<path d="M0 0 C7.92 0 15.84 0 24 0 C24 14.19 24 28.38 24 43 C26.97 43 29.94 43 33 43 C33 42.34 33 41.68 33 41 C44.55 41 56.1 41 68 41 C68 41.66 68 42.32 68 43 C71.63 43 75.26 43 79 43 C79 43.99 79 44.98 79 46 C79.99 46 80.98 46 82 46 C82 46.99 82 47.98 82 49 C83.65 49 85.3 49 87 49 C87 49.99 87 50.98 87 52 C87.99 52 88.98 52 90 52 C90 52.66 90 53.32 90 54 C90.99 54 91.98 54 93 54 C93 55.98 93 57.96 93 60 C93.99 60 94.98 60 96 60 C96 62.64 96 65.28 96 68 C96.66 68 97.32 68 98 68 C98 91.43 98 114.86 98 139 C97.34 139 96.68 139 96 139 C96 141.97 96 144.94 96 148 C95.01 148 94.02 148 93 148 C93 149.65 93 151.3 93 153 C92.01 153 91.02 153 90 153 C90 153.99 90 154.98 90 156 C89.01 156 88.02 156 87 156 C87 156.99 87 157.98 87 159 C86.34 159 85.68 159 85 159 C85 159.66 85 160.32 85 161 C83.02 161 81.04 161 79 161 C79 161.99 79 162.98 79 164 C77.35 164 75.7 164 74 164 C74 164.99 74 165.98 74 167 C56.84 167 39.68 167 22 167 C22 166.01 22 165.02 22 164 C14.74 164 7.48 164 0 164 C0 109.88 0 55.76 0 0 Z M35 65 C35 65.99 35 66.98 35 68 C31.37 68 27.74 68 24 68 C24 92.42 24 116.84 24 142 C31.26 142 38.52 142 46 142 C46 142.99 46 143.98 46 145 C48.97 145 51.94 145 55 145 C55 144.01 55 143.02 55 142 C58.63 142 62.26 142 66 142 C66 141.01 66 140.02 66 139 C67.65 139 69.3 139 71 139 C71 137.35 71 135.7 71 134 C71.99 134 72.98 134 74 134 C74 114.2 74 94.4 74 74 C73.01 74 72.02 74 71 74 C71 72.02 71 70.04 71 68 C69.35 68 67.7 68 66 68 C66 67.01 66 66.02 66 65 C55.77 65 45.54 65 35 65 Z " fill="#363C41" transform="translate(693,993)"/>
<path d="M0 0 C7.26 0 14.52 0 22 0 C22 54.12 22 108.24 22 164 C15.73 164 9.46 164 3 164 C3 164.99 3 165.98 3 167 C-12.51 167 -28.02 167 -44 167 C-44 166.01 -44 165.02 -44 164 C-46.64 164 -49.28 164 -52 164 C-52 163.01 -52 162.02 -52 161 C-52.99 161 -53.98 161 -55 161 C-55 160.34 -55 159.68 -55 159 C-56.65 159 -58.3 159 -60 159 C-60 157.02 -60 155.04 -60 153 C-60.99 153 -61.98 153 -63 153 C-63 152.01 -63 151.02 -63 150 C-63.99 150 -64.98 150 -66 150 C-66 148.35 -66 146.7 -66 145 C-66.66 145 -67.32 145 -68 145 C-68 117.94 -68 90.88 -68 63 C-67.34 63 -66.68 63 -66 63 C-66 61.02 -66 59.04 -66 57 C-65.01 57 -64.02 57 -63 57 C-63 56.01 -63 55.02 -63 54 C-62.01 54 -61.02 54 -60 54 C-60 53.34 -60 52.68 -60 52 C-59.01 52 -58.02 52 -57 52 C-57 51.01 -57 50.02 -57 49 C-56.34 49 -55.68 49 -55 49 C-55 48.01 -55 47.02 -55 46 C-53.02 46 -51.04 46 -49 46 C-49 45.01 -49 44.02 -49 43 C-46.36 43 -43.72 43 -41 43 C-41 42.34 -41 41.68 -41 41 C-29.12 41 -17.24 41 -5 41 C-5 41.66 -5 42.32 -5 43 C-3.35 43 -1.7 43 0 43 C0 28.81 0 14.62 0 0 Z M-35 65 C-35 65.99 -35 66.98 -35 68 C-36.98 68 -38.96 68 -41 68 C-41 68.99 -41 69.98 -41 71 C-41.99 71 -42.98 71 -44 71 C-44 74.63 -44 78.26 -44 82 C-44.66 82 -45.32 82 -46 82 C-46 96.52 -46 111.04 -46 126 C-45.34 126 -44.68 126 -44 126 C-44 129.63 -44 133.26 -44 137 C-43.01 137 -42.02 137 -41 137 C-41 137.66 -41 138.32 -41 139 C-40.01 139 -39.02 139 -38 139 C-38 139.99 -38 140.98 -38 142 C-34.37 142 -30.74 142 -27 142 C-27 142.99 -27 143.98 -27 145 C-24.36 145 -21.72 145 -19 145 C-19 144.01 -19 143.02 -19 142 C-12.73 142 -6.46 142 0 142 C0 117.58 0 93.16 0 68 C-2.64 68 -5.28 68 -8 68 C-8 67.01 -8 66.02 -8 65 C-16.91 65 -25.82 65 -35 65 Z " fill="#363C41" transform="translate(1438,993)"/>
<path d="M0 0 C10.89 0 21.78 0 33 0 C33 0.66 33 1.32 33 2 C36.63 2 40.26 2 44 2 C44 2.99 44 3.98 44 5 C45.65 5 47.3 5 49 5 C49 5.99 49 6.98 49 8 C49.99 8 50.98 8 52 8 C52 8.99 52 9.98 52 11 C52.99 11 53.98 11 55 11 C55 11.66 55 12.32 55 13 C55.99 13 56.98 13 58 13 C58 14.98 58 16.96 58 19 C58.66 19 59.32 19 60 19 C60 20.65 60 22.3 60 24 C60.99 24 61.98 24 63 24 C63 56.67 63 89.34 63 123 C55.74 123 48.48 123 41 123 C41 123.99 41 124.98 41 126 C23.84 126 6.68 126 -11 126 C-11 125.01 -11 124.02 -11 123 C-12.65 123 -14.3 123 -16 123 C-16 122.01 -16 121.02 -16 120 C-17.98 120 -19.96 120 -22 120 C-22 119.34 -22 118.68 -22 118 C-22.99 118 -23.98 118 -25 118 C-25 117.01 -25 116.02 -25 115 C-25.66 115 -26.32 115 -27 115 C-27 113.02 -27 111.04 -27 109 C-27.99 109 -28.98 109 -30 109 C-30 108.34 -30 107.68 -30 107 C-30.99 107 -31.98 107 -33 107 C-33 102.38 -33 97.76 -33 93 C-33.99 93 -34.98 93 -36 93 C-36 89.37 -36 85.74 -36 82 C-35.01 82 -34.02 82 -33 82 C-33 79.36 -33 76.72 -33 74 C-32.01 74 -31.02 74 -30 74 C-30 72.02 -30 70.04 -30 68 C-29.01 68 -28.02 68 -27 68 C-27 67.01 -27 66.02 -27 65 C-26.34 65 -25.68 65 -25 65 C-25 64.34 -25 63.68 -25 63 C-24.01 63 -23.02 63 -22 63 C-22 62.01 -22 61.02 -22 60 C-21.01 60 -20.02 60 -19 60 C-19 59.01 -19 58.02 -19 57 C-17.35 57 -15.7 57 -14 57 C-14 56.34 -14 55.68 -14 55 C-12.02 55 -10.04 55 -8 55 C-8 54.01 -8 53.02 -8 52 C-3.71 52 0.58 52 5 52 C5 51.01 5 50.02 5 49 C15.23 49 25.46 49 36 49 C36 49.99 36 50.98 36 52 C36.66 52 37.32 52 38 52 C38 45.73 38 39.46 38 33 C37.34 33 36.68 33 36 33 C36 31.02 36 29.04 36 27 C34.02 27 32.04 27 30 27 C30 26.01 30 25.02 30 24 C21.09 24 12.18 24 3 24 C3 24.99 3 25.98 3 27 C-1.62 27 -6.24 27 -11 27 C-11 27.99 -11 28.98 -11 30 C-13.64 30 -16.28 30 -19 30 C-19 28.02 -19 26.04 -19 24 C-19.99 24 -20.98 24 -22 24 C-22 21.36 -22 18.72 -22 16 C-22.99 16 -23.98 16 -25 16 C-25 12.37 -25 8.74 -25 5 C-21.37 5 -17.74 5 -14 5 C-14 4.01 -14 3.02 -14 2 C-9.38 2 -4.76 2 0 2 C0 1.34 0 0.68 0 0 Z M8 74 C8 74.66 8 75.32 8 76 C4.37 76 0.74 76 -3 76 C-3 76.99 -3 77.98 -3 79 C-3.66 79 -4.32 79 -5 79 C-5 79.99 -5 80.98 -5 82 C-5.99 82 -6.98 82 -8 82 C-8 83.65 -8 85.3 -8 87 C-8.99 87 -9.98 87 -11 87 C-11 87.99 -11 88.98 -11 90 C-10.01 90 -9.02 90 -8 90 C-8 92.64 -8 95.28 -8 98 C-6.35 98 -4.7 98 -3 98 C-3 98.99 -3 99.98 -3 101 C0.63 101 4.26 101 8 101 C8 101.99 8 102.98 8 104 C8.99 104 9.98 104 11 104 C11 103.01 11 102.02 11 101 C19.91 101 28.82 101 38 101 C38 92.75 38 84.5 38 76 C36.35 76 34.7 76 33 76 C33 75.34 33 74.68 33 74 C24.75 74 16.5 74 8 74 Z " fill="#363C41" transform="translate(838,1034)"/>
<path d="M0 0 C11.55 0 23.1 0 35 0 C35 0.66 35 1.32 35 2 C37.97 2 40.94 2 44 2 C44 2.99 44 3.98 44 5 C45.65 5 47.3 5 49 5 C49 5.99 49 6.98 49 8 C49.99 8 50.98 8 52 8 C52 8.99 52 9.98 52 11 C52.99 11 53.98 11 55 11 C55 11.66 55 12.32 55 13 C55.66 13 56.32 13 57 13 C57 14.98 57 16.96 57 19 C57.99 19 58.98 19 60 19 C60 20.65 60 22.3 60 24 C60.99 24 61.98 24 63 24 C63 56.67 63 89.34 63 123 C55.74 123 48.48 123 41 123 C41 123.99 41 124.98 41 126 C23.84 126 6.68 126 -11 126 C-11 125.01 -11 124.02 -11 123 C-12.98 123 -14.96 123 -17 123 C-17 122.01 -17 121.02 -17 120 C-18.65 120 -20.3 120 -22 120 C-22 119.34 -22 118.68 -22 118 C-22.99 118 -23.98 118 -25 118 C-25 117.01 -25 116.02 -25 115 C-25.99 115 -26.98 115 -28 115 C-28 113.02 -28 111.04 -28 109 C-28.66 109 -29.32 109 -30 109 C-30 107.35 -30 105.7 -30 104 C-30.99 104 -31.98 104 -33 104 C-33 99.38 -33 94.76 -33 90 C-33.99 90 -34.98 90 -36 90 C-36 89.01 -36 88.02 -36 87 C-35.01 87 -34.02 87 -33 87 C-33 82.71 -33 78.42 -33 74 C-32.01 74 -31.02 74 -30 74 C-30 72.02 -30 70.04 -30 68 C-29.34 68 -28.68 68 -28 68 C-28 67.01 -28 66.02 -28 65 C-27.01 65 -26.02 65 -25 65 C-25 64.34 -25 63.68 -25 63 C-24.01 63 -23.02 63 -22 63 C-22 62.01 -22 61.02 -22 60 C-21.01 60 -20.02 60 -19 60 C-19 59.01 -19 58.02 -19 57 C-17.35 57 -15.7 57 -14 57 C-14 56.34 -14 55.68 -14 55 C-12.02 55 -10.04 55 -8 55 C-8 54.01 -8 53.02 -8 52 C-3.71 52 0.58 52 5 52 C5 51.01 5 50.02 5 49 C14.9 49 24.8 49 35 49 C35 49.99 35 50.98 35 52 C35.99 52 36.98 52 38 52 C38 44.74 38 37.48 38 30 C37.01 30 36.02 30 35 30 C35 29.01 35 28.02 35 27 C33.35 27 31.7 27 30 27 C30 26.01 30 25.02 30 24 C20.76 24 11.52 24 2 24 C2 24.99 2 25.98 2 27 C-2.29 27 -6.58 27 -11 27 C-11 27.99 -11 28.98 -11 30 C-13.64 30 -16.28 30 -19 30 C-19 28.02 -19 26.04 -19 24 C-19.99 24 -20.98 24 -22 24 C-22 20.37 -22 16.74 -22 13 C-22.99 13 -23.98 13 -25 13 C-25 10.36 -25 7.72 -25 5 C-21.37 5 -17.74 5 -14 5 C-14 4.01 -14 3.02 -14 2 C-9.38 2 -4.76 2 0 2 C0 1.34 0 0.68 0 0 Z M8 74 C8 74.66 8 75.32 8 76 C4.37 76 0.74 76 -3 76 C-3 76.99 -3 77.98 -3 79 C-3.99 79 -4.98 79 -6 79 C-6 79.99 -6 80.98 -6 82 C-6.66 82 -7.32 82 -8 82 C-8 83.65 -8 85.3 -8 87 C-8.99 87 -9.98 87 -11 87 C-11 87.99 -11 88.98 -11 90 C-10.01 90 -9.02 90 -8 90 C-8 91.98 -8 93.96 -8 96 C-7.34 96 -6.68 96 -6 96 C-6 96.66 -6 97.32 -6 98 C-5.01 98 -4.02 98 -3 98 C-3 98.99 -3 99.98 -3 101 C0.63 101 4.26 101 8 101 C8 101.99 8 102.98 8 104 C8.99 104 9.98 104 11 104 C11 103.01 11 102.02 11 101 C19.91 101 28.82 101 38 101 C38 92.75 38 84.5 38 76 C36.35 76 34.7 76 33 76 C33 75.34 33 74.68 33 74 C24.75 74 16.5 74 8 74 Z " fill="#363C41" transform="translate(608,1034)"/>
<path d="M0 0 C16.5 0 33 0 50 0 C50 0.66 50 1.32 50 2 C54.29 2 58.58 2 63 2 C63 2.99 63 3.98 63 5 C65.64 5 68.28 5 71 5 C71 5.99 71 6.98 71 8 C71.99 8 72.98 8 74 8 C74 9.65 74 11.3 74 13 C73.01 13 72.02 13 71 13 C71 16.63 71 20.26 71 24 C70.34 24 69.68 24 69 24 C69 26.64 69 29.28 69 32 C68.01 32 67.02 32 66 32 C66 31.34 66 30.68 66 30 C63.36 30 60.72 30 58 30 C58 29.01 58 28.02 58 27 C53.38 27 48.76 27 44 27 C44 26.01 44 25.02 44 24 C30.47 24 16.94 24 3 24 C3 24.99 3 25.98 3 27 C-0.63 27 -4.26 27 -8 27 C-8 27.99 -8 28.98 -8 30 C-8.99 30 -9.98 30 -11 30 C-11 30.66 -11 31.32 -11 32 C-11.99 32 -12.98 32 -14 32 C-14 32.99 -14 33.98 -14 35 C-14.66 35 -15.32 35 -16 35 C-16 66.68 -16 98.36 -16 131 C-15.34 131 -14.68 131 -14 131 C-14 132.98 -14 134.96 -14 137 C-12.02 137 -10.04 137 -8 137 C-8 137.66 -8 138.32 -8 139 C-6.35 139 -4.7 139 -3 139 C-3 139.99 -3 140.98 -3 142 C3.6 142 10.2 142 17 142 C17 142.99 17 143.98 17 145 C20.63 145 24.26 145 28 145 C28 144.01 28 143.02 28 142 C35.26 142 42.52 142 50 142 C50 141.01 50 140.02 50 139 C53.3 139 56.6 139 60 139 C60 138.34 60 137.68 60 137 C62.97 137 65.94 137 69 137 C69 139.64 69 142.28 69 145 C69.66 145 70.32 145 71 145 C71 148.63 71 152.26 71 156 C71.99 156 72.98 156 74 156 C74 157.65 74 159.3 74 161 C71.36 161 68.72 161 66 161 C66 161.99 66 162.98 66 164 C62.37 164 58.74 164 55 164 C55 164.99 55 165.98 55 167 C35.2 167 15.4 167 -5 167 C-5 166.01 -5 165.02 -5 164 C-8.63 164 -12.26 164 -16 164 C-16 163.01 -16 162.02 -16 161 C-17.98 161 -19.96 161 -22 161 C-22 160.34 -22 159.68 -22 159 C-23.65 159 -25.3 159 -27 159 C-27 158.01 -27 157.02 -27 156 C-27.99 156 -28.98 156 -30 156 C-30 155.01 -30 154.02 -30 153 C-30.99 153 -31.98 153 -33 153 C-33 151.35 -33 149.7 -33 148 C-33.66 148 -34.32 148 -35 148 C-35 147.01 -35 146.02 -35 145 C-35.99 145 -36.98 145 -38 145 C-38 142.36 -38 139.72 -38 137 C-38.99 137 -39.98 137 -41 137 C-41 101.69 -41 66.38 -41 30 C-40.01 30 -39.02 30 -38 30 C-38 28.02 -38 26.04 -38 24 C-37.01 24 -36.02 24 -35 24 C-35 22.35 -35 20.7 -35 19 C-34.34 19 -33.68 19 -33 19 C-33 18.01 -33 17.02 -33 16 C-32.01 16 -31.02 16 -30 16 C-30 15.01 -30 14.02 -30 13 C-29.01 13 -28.02 13 -27 13 C-27 12.34 -27 11.68 -27 11 C-26.34 11 -25.68 11 -25 11 C-25 10.01 -25 9.02 -25 8 C-23.02 8 -21.04 8 -19 8 C-19 7.01 -19 6.02 -19 5 C-17.35 5 -15.7 5 -14 5 C-14 4.01 -14 3.02 -14 2 C-9.38 2 -4.76 2 0 2 C0 1.34 0 0.68 0 0 Z " fill="#363C41" transform="translate(1016,993)"/>
<path d="M0 0 C12.54 0 25.08 0 38 0 C38 0.66 38 1.32 38 2 C40.64 2 43.28 2 46 2 C46 2.99 46 3.98 46 5 C46.99 5 47.98 5 49 5 C49 5.99 49 6.98 49 8 C50.98 8 52.96 8 55 8 C55 8.99 55 9.98 55 11 C55.66 11 56.32 11 57 11 C57 12.65 57 14.3 57 16 C57.99 16 58.98 16 60 16 C60 16.99 60 17.98 60 19 C60.99 19 61.98 19 63 19 C63 20.65 63 22.3 63 24 C63.99 24 64.98 24 66 24 C66 49.41 66 74.82 66 101 C65.01 101 64.02 101 63 101 C63 102.98 63 104.96 63 107 C62.01 107 61.02 107 60 107 C60 108.65 60 110.3 60 112 C59.01 112 58.02 112 57 112 C57 112.99 57 113.98 57 115 C56.34 115 55.68 115 55 115 C55 115.99 55 116.98 55 118 C54.01 118 53.02 118 52 118 C52 118.66 52 119.32 52 120 C51.01 120 50.02 120 49 120 C49 120.99 49 121.98 49 123 C47.35 123 45.7 123 44 123 C44 123.99 44 124.98 44 126 C27.5 126 11 126 -6 126 C-6 125.01 -6 124.02 -6 123 C-7.65 123 -9.3 123 -11 123 C-11 122.01 -11 121.02 -11 120 C-11.99 120 -12.98 120 -14 120 C-14 119.34 -14 118.68 -14 118 C-14.99 118 -15.98 118 -17 118 C-17 117.01 -17 116.02 -17 115 C-17.66 115 -18.32 115 -19 115 C-19 114.01 -19 113.02 -19 112 C-19.99 112 -20.98 112 -22 112 C-22 111.01 -22 110.02 -22 109 C-22.99 109 -23.98 109 -25 109 C-25 107.35 -25 105.7 -25 104 C-25.99 104 -26.98 104 -28 104 C-28 99.38 -28 94.76 -28 90 C-28.66 90 -29.32 90 -30 90 C-30 72.84 -30 55.68 -30 38 C-29.34 38 -28.68 38 -28 38 C-28 33.38 -28 28.76 -28 24 C-27.01 24 -26.02 24 -25 24 C-25 22.35 -25 20.7 -25 19 C-24.01 19 -23.02 19 -22 19 C-22 17.02 -22 15.04 -22 13 C-21.01 13 -20.02 13 -19 13 C-19 12.34 -19 11.68 -19 11 C-18.34 11 -17.68 11 -17 11 C-17 10.01 -17 9.02 -17 8 C-16.01 8 -15.02 8 -14 8 C-14 7.01 -14 6.02 -14 5 C-12.02 5 -10.04 5 -8 5 C-8 4.01 -8 3.02 -8 2 C-5.36 2 -2.72 2 0 2 C0 1.34 0 0.68 0 0 Z M5 24 C5 24.99 5 25.98 5 27 C3.35 27 1.7 27 0 27 C0 27.99 0 28.98 0 30 C-0.99 30 -1.98 30 -3 30 C-3 32.64 -3 35.28 -3 38 C-3.99 38 -4.98 38 -6 38 C-6 54.17 -6 70.34 -6 87 C-5.01 87 -4.02 87 -3 87 C-3 89.97 -3 92.94 -3 96 C-2.01 96 -1.02 96 0 96 C0 96.66 0 97.32 0 98 C0.99 98 1.98 98 3 98 C3 98.99 3 99.98 3 101 C5.64 101 8.28 101 11 101 C11 101.99 11 102.98 11 104 C16.28 104 21.56 104 27 104 C27 103.01 27 102.02 27 101 C29.97 101 32.94 101 36 101 C36 100.01 36 99.02 36 98 C36.66 98 37.32 98 38 98 C38 97.34 38 96.68 38 96 C38.99 96 39.98 96 41 96 C41 75.21 41 54.42 41 33 C40.01 33 39.02 33 38 33 C38 32.01 38 31.02 38 30 C37.34 30 36.68 30 36 30 C36 29.01 36 28.02 36 27 C35.01 27 34.02 27 33 27 C33 26.01 33 25.02 33 24 C23.76 24 14.52 24 5 24 Z " fill="#363C41" transform="translate(1178,1034)"/>
<path d="M0 0 C8.25 0 16.5 0 25 0 C25 31.02 25 62.04 25 94 C25.99 94 26.98 94 28 94 C28 94.66 28 95.32 28 96 C28.66 96 29.32 96 30 96 C30 96.99 30 97.98 30 99 C33.63 99 37.26 99 41 99 C41 99.99 41 100.98 41 102 C43.64 102 46.28 102 49 102 C49 101.01 49 100.02 49 99 C55.6 99 62.2 99 69 99 C69 66.33 69 33.66 69 0 C76.92 0 84.84 0 93 0 C93 39.93 93 79.86 93 121 C86.73 121 80.46 121 74 121 C74 121.99 74 122.98 74 124 C57.83 124 41.66 124 25 124 C25 123.01 25 122.02 25 121 C23.02 121 21.04 121 19 121 C19 120.01 19 119.02 19 118 C17.35 118 15.7 118 14 118 C14 117.34 14 116.68 14 116 C13.01 116 12.02 116 11 116 C11 115.01 11 114.02 11 113 C10.01 113 9.02 113 8 113 C8 112.01 8 111.02 8 110 C7.34 110 6.68 110 6 110 C6 109.01 6 108.02 6 107 C5.01 107 4.02 107 3 107 C3 104.36 3 101.72 3 99 C2.01 99 1.02 99 0 99 C0 66.33 0 33.66 0 0 Z " fill="#363C41" transform="translate(1260,1036)"/>
<path d="M0 0 C8.25 0 16.5 0 25 0 C25 54.12 25 108.24 25 164 C16.75 164 8.5 164 0 164 C0 109.88 0 55.76 0 0 Z " fill="#363C41" transform="translate(369,993)"/>
<path d="M0 0 C7.92 0 15.84 0 24 0 C24 54.12 24 108.24 24 164 C16.08 164 8.16 164 0 164 C0 109.88 0 55.76 0 0 Z " fill="#363C41" transform="translate(1107,993)"/>
<path d="M0 0 C8.25 0 16.5 0 25 0 C25 39.93 25 79.86 25 121 C16.75 121 8.5 121 0 121 C0 81.07 0 41.14 0 0 Z " fill="#363C41" transform="translate(416,1036)"/>
<path d="M0 0 C36.96 0 73.92 0 112 0 C112 5.28 112 10.56 112 16 C75.04 16 38.08 16 0 16 C0 10.72 0 5.44 0 0 Z " fill="#363C41" transform="translate(778,716)"/>
<path d="M0 0 C4.62 0 9.24 0 14 0 C14 0.66 14 1.32 14 2 C15.98 2 17.96 2 20 2 C20 2.99 20 3.98 20 5 C20.66 5 21.32 5 22 5 C22 11.27 22 17.54 22 24 C21.34 24 20.68 24 20 24 C20 24.99 20 25.98 20 27 C19.01 27 18.02 27 17 27 C17 27.99 17 28.98 17 30 C15.02 30 13.04 30 11 30 C11 30.66 11 31.32 11 32 C9.35 32 7.7 32 6 32 C6 31.34 6 30.68 6 30 C3.36 30 0.72 30 -2 30 C-2 29.01 -2 28.02 -2 27 C-2.99 27 -3.98 27 -5 27 C-5 26.01 -5 25.02 -5 24 C-5.99 24 -6.98 24 -8 24 C-8 18.72 -8 13.44 -8 8 C-7.01 8 -6.02 8 -5 8 C-5 6.02 -5 4.04 -5 2 C-3.35 2 -1.7 2 0 2 C0 1.34 0 0.68 0 0 Z " fill="#363C41" transform="translate(421,993)"/>
</svg>
