<svg width="512" height="512" viewBox="0 0 512 512" fill="none" xmlns="http://www.w3.org/2000/svg">
<path d="M455.589 446.584H438.293V175.219C438.285 170.433 436.379 165.845 432.993 162.463C429.608 159.08 425.019 157.178 420.233 157.174H383.594C378.811 157.182 374.225 159.085 370.843 162.468C367.461 165.85 365.557 170.435 365.549 175.219V446.584H340.679V304.076C340.673 299.292 338.77 294.705 335.387 291.32C332.005 287.936 327.418 286.032 322.634 286.024H285.98C281.194 286.032 276.607 287.938 273.224 291.323C269.841 294.709 267.939 299.298 267.935 304.084V446.592H243.065V251.979C243.059 247.194 241.156 242.607 237.773 239.223C234.391 235.839 229.804 233.934 225.02 233.927H188.359C183.573 233.934 178.985 235.84 175.603 239.226C172.22 242.611 170.318 247.2 170.314 251.987V446.584H145.451V361.25C145.447 356.464 143.545 351.875 140.162 348.489C136.779 345.104 132.192 343.198 127.406 343.19H90.7598C85.9712 343.194 81.3799 345.098 77.9939 348.484C74.6078 351.87 72.7038 356.462 72.6999 361.25V446.584H55.4107C53.4453 446.584 51.5603 447.365 50.1705 448.755C48.7808 450.145 48 452.03 48 453.995C48 455.961 48.7808 457.846 50.1705 459.235C51.5603 460.625 53.4453 461.406 55.4107 461.406C110.769 461.421 439.701 461.436 455.589 461.406C457.555 461.406 459.44 460.625 460.829 459.235C462.219 457.846 463 455.961 463 453.995C463 452.03 462.219 450.145 460.829 448.755C459.44 447.365 457.555 446.584 455.589 446.584ZM87.5287 446.584V361.25C87.5307 360.392 87.8725 359.569 88.4794 358.962C89.0863 358.355 89.9089 358.014 90.7672 358.012H127.406C128.262 358.016 129.082 358.358 129.686 358.965C130.29 359.572 130.629 360.394 130.629 361.25V446.584H87.5287ZM185.143 446.584V251.994C185.143 251.138 185.482 250.316 186.086 249.709C186.69 249.102 187.51 248.759 188.366 248.755H225.02C225.876 248.759 226.696 249.102 227.3 249.709C227.904 250.316 228.243 251.138 228.243 251.994V446.584H185.143ZM282.757 446.584V304.076C282.759 303.221 283.099 302.402 283.702 301.796C284.306 301.191 285.125 300.849 285.98 300.845H322.634C323.49 300.849 324.31 301.192 324.914 301.799C325.518 302.406 325.857 303.227 325.857 304.084V446.592L282.757 446.584ZM380.371 446.584V175.219C380.372 174.365 380.713 173.546 381.317 172.942C381.921 172.337 382.74 171.997 383.594 171.995H420.24C421.095 171.997 421.915 172.337 422.52 172.941C423.125 173.545 423.467 174.364 423.471 175.219V446.584H380.371Z" fill="#024D81"/>
<path d="M108.182 237.053C112.951 237.022 117.632 235.775 121.783 233.428C125.934 231.082 129.418 227.715 131.904 223.646C134.39 219.577 135.796 214.941 135.99 210.177C136.183 205.412 135.157 200.677 133.008 196.42L190.871 143.73C196.479 147.265 203.162 148.689 209.723 147.745C216.285 146.801 222.296 143.552 226.68 138.58L275.946 162.731C275.115 167.086 275.332 171.577 276.58 175.831C277.829 180.086 280.072 183.982 283.125 187.197C286.179 190.412 289.953 192.854 294.138 194.321C298.322 195.787 302.795 196.236 307.187 195.631C311.58 195.025 315.764 193.383 319.396 190.839C323.027 188.295 326.001 184.923 328.07 181.001C330.139 177.08 331.245 172.722 331.296 168.289C331.347 163.855 330.341 159.474 328.362 155.506L387.722 102.482C393.407 106.172 400.237 107.675 406.946 106.711C413.655 105.747 419.786 102.383 424.202 97.2418C428.619 92.1009 431.02 85.5324 430.962 78.7552C430.903 71.978 428.388 65.4521 423.883 60.3884C419.378 55.3247 413.19 52.067 406.465 51.2197C399.741 50.3724 392.938 51.9931 387.317 55.7809C381.697 59.5688 377.642 65.2668 375.904 71.8176C374.166 78.3684 374.863 85.3273 377.866 91.4032L318.521 144.427C312.908 140.835 306.197 139.368 299.597 140.291C292.998 141.214 286.946 144.465 282.534 149.459L233.253 125.3C234.086 120.935 233.866 116.435 232.61 112.172C231.354 107.91 229.1 104.009 226.033 100.793C222.967 97.5772 219.177 95.1397 214.979 93.683C210.781 92.2263 206.296 91.7924 201.897 92.4175C197.497 93.0426 193.311 94.7086 189.685 97.277C186.059 99.8454 183.098 103.242 181.049 107.185C178.999 111.127 177.92 115.502 177.902 119.946C177.883 124.389 178.925 128.773 180.941 132.733L123.048 185.453C119.381 183.141 115.226 181.714 110.912 181.284C106.598 180.855 102.244 181.435 98.1926 182.978C94.1414 184.521 90.5046 186.985 87.5697 190.176C84.6348 193.367 82.4822 197.196 81.2821 201.362C80.082 205.527 79.8672 209.915 80.6548 214.178C81.4423 218.441 83.2106 222.463 85.8198 225.925C88.4291 229.387 91.8078 232.194 95.689 234.126C99.5701 236.057 103.847 237.06 108.182 237.053ZM402.825 65.8214C406.263 65.9029 409.532 67.3258 411.934 69.7858C414.337 72.2459 415.681 75.548 415.681 78.9865C415.681 82.425 414.337 85.7271 411.934 88.1872C409.532 90.6472 406.263 92.0701 402.825 92.1517C399.387 92.0701 396.118 90.6472 393.716 88.1872C391.313 85.7271 389.969 82.425 389.969 78.9865C389.969 75.548 391.313 72.2459 393.716 69.7858C396.118 67.3258 399.387 65.9029 402.825 65.8214ZM303.418 154.75C306.855 154.832 310.125 156.254 312.527 158.714C314.929 161.174 316.274 164.477 316.274 167.915C316.274 171.354 314.929 174.656 312.527 177.116C310.125 179.576 306.855 180.999 303.418 181.08C299.98 180.999 296.711 179.576 294.308 177.116C291.906 174.656 290.561 171.354 290.561 167.915C290.561 164.477 291.906 161.174 294.308 158.714C296.711 156.254 299.98 154.832 303.418 154.75ZM205.804 106.973C209.241 107.055 212.511 108.477 214.913 110.938C217.315 113.398 218.66 116.7 218.66 120.138C218.66 123.577 217.315 126.879 214.913 129.339C212.511 131.799 209.241 133.222 205.804 133.303C202.366 133.222 199.097 131.799 196.695 129.339C194.292 126.879 192.947 123.577 192.947 120.138C192.947 116.7 194.292 113.398 196.695 110.938C199.097 108.477 202.366 107.055 205.804 106.973ZM108.19 195.902C111.627 195.983 114.897 197.406 117.299 199.866C119.701 202.326 121.046 205.628 121.046 209.067C121.046 212.505 119.701 215.807 117.299 218.267C114.897 220.728 111.627 222.15 108.19 222.232C104.752 222.15 101.483 220.728 99.0806 218.267C96.6782 215.807 95.3334 212.505 95.3334 209.067C95.3334 205.628 96.6782 202.326 99.0806 199.866C101.483 197.406 104.752 195.983 108.19 195.902Z" fill="#024D81"/>
</svg>
