<svg width="16" height="16" viewBox="0 0 16 16" fill="none" xmlns="http://www.w3.org/2000/svg">
<g clip-path="url(#clip0_464_2755)">
<path d="M3.40096 10.1414C3.40096 10.7564 2.97246 11.2599 2.44896 11.2599C1.92546 11.2599 1.49646 10.7569 1.49646 10.1414V6.48089C1.49646 5.86589 1.92496 5.36239 2.44896 5.36239C2.97296 5.36239 3.40096 5.86589 3.40096 6.48089V10.1414ZM14.5035 10.1414C14.5035 10.7564 14.075 11.2599 13.551 11.2599C13.027 11.2599 12.5985 10.7569 12.5985 10.1414V6.48089C12.5985 5.86589 13.027 5.36239 13.551 5.36239C14.075 5.36239 14.5035 5.86589 14.5035 6.48089V10.1414ZM10.082 1.82439L10.693 0.727885C10.743 0.638385 10.728 0.533885 10.6605 0.496385C10.593 0.458885 10.496 0.500885 10.4465 0.590385L9.82146 1.71239C9.26396 1.49289 8.63946 1.37039 7.97946 1.37039C7.31446 1.37039 6.68546 1.49539 6.12446 1.71789L5.49646 0.590885C5.44646 0.501385 5.34996 0.458885 5.28246 0.496885C5.21496 0.534885 5.19996 0.638885 5.24996 0.728385L5.86396 1.83039C4.58646 2.43039 3.72596 3.55689 3.72596 4.84789C3.72596 4.97889 3.73546 5.10839 3.75246 5.23589H12.207C12.2245 5.10839 12.2335 4.97939 12.2335 4.84789C12.2335 3.55289 11.3675 2.42339 10.083 1.82489L10.082 1.82439ZM6.04846 3.73839C5.84296 3.73839 5.67646 3.57189 5.67646 3.36639C5.67646 3.16089 5.84296 2.99439 6.04846 2.99439C6.25396 2.99439 6.42046 3.16089 6.42046 3.36639C6.42046 3.57189 6.25396 3.73839 6.04846 3.73839ZM9.93046 3.73839C9.72496 3.73839 9.55846 3.57189 9.55846 3.36639C9.55846 3.16089 9.72496 2.99439 9.93046 2.99439C10.136 2.99439 10.3025 3.16089 10.3025 3.36639C10.3025 3.57189 10.136 3.73839 9.93046 3.73839ZM3.72496 5.60539V11.8409H3.72846C3.77196 12.3674 4.25646 12.7859 4.84346 12.7859H11.114C11.7005 12.7859 12.185 12.3674 12.229 11.8409H12.2325V5.60539H3.72546H3.72496ZM7.36996 12.7549V14.6839C7.36996 15.2989 6.94146 15.8024 6.41746 15.8024C5.89346 15.8024 5.46546 15.2989 5.46546 14.6839V12.7564L7.36996 12.7549ZM10.544 12.7539V14.6839C10.544 15.2989 10.1155 15.8024 9.59146 15.8024C9.06746 15.8024 8.63896 15.2989 8.63896 14.6839V12.7539H10.544Z" stroke="black" stroke-width="0.7"/>
</g>
<defs>
<clipPath id="clip0_464_2755">
<rect width="16" height="16" fill="white"/>
</clipPath>
</defs>
</svg>
