<svg width="300" height="300" viewBox="0 0 300 300" fill="none" xmlns="http://www.w3.org/2000/svg">
<mask id="mask0_369_952" style="mask-type:luminance" maskUnits="userSpaceOnUse" x="96" y="123" width="108" height="54">
<path d="M119.523 123.333H104.285C102.264 123.333 100.326 124.136 98.8977 125.565C97.4687 126.994 96.666 128.932 96.666 130.952V176.667H104.285V157.619H119.523V176.667H127.142V130.952C127.142 128.932 126.339 126.994 124.911 125.565C123.482 124.136 121.544 123.333 119.523 123.333ZM104.285 150V130.952H119.523V150H104.285ZM172.856 130.952H184.285V169.048H172.856V176.667H203.333V169.048H191.904V130.952H203.333V123.333H172.856V130.952ZM142.38 176.667H134.761V123.333H157.618C159.639 123.333 161.577 124.136 163.006 125.565C164.435 126.994 165.237 128.932 165.237 130.952V150C165.237 152.021 164.435 153.959 163.006 155.387C161.577 156.816 159.639 157.619 157.618 157.619H142.38V176.667ZM142.38 150H157.618V130.952H142.38V150Z" fill="white"/>
</mask>
<g mask="url(#mask0_369_952)">
<path d="M96.666 176.667H76.666V196.667H96.666V176.667ZM104.285 176.667V196.667H124.285V176.667H104.285ZM104.285 157.619V137.619H84.285V157.619H104.285ZM119.523 157.619H139.523V137.619H119.523V157.619ZM119.523 176.667H99.523V196.667H119.523V176.667ZM127.142 176.667V196.667H147.142V176.667H127.142ZM104.285 150H84.285V170H104.285V150ZM104.285 130.952V110.952H84.285V130.952H104.285ZM119.523 130.952H139.523V110.952H119.523V130.952ZM119.523 150V170H139.523V150H119.523ZM172.856 130.952H152.856V150.952H172.856V130.952ZM184.285 130.952H204.285V110.952H184.285V130.952ZM184.285 169.048V189.048H204.285V169.048H184.285ZM172.856 169.048V149.048H152.856V169.048H172.856ZM172.856 176.667H152.856V196.667H172.856V176.667ZM203.333 176.667V196.667H223.333V176.667H203.333ZM203.333 169.048H223.333V149.048H203.333V169.048ZM191.904 169.048H171.904V189.048H191.904V169.048ZM191.904 130.952V110.952H171.904V130.952H191.904ZM203.333 130.952V150.952H223.333V130.952H203.333ZM203.333 123.333H223.333V103.333H203.333V123.333ZM172.856 123.333V103.333H152.856V123.333H172.856ZM142.38 176.667V196.667H162.38V176.667H142.38ZM134.761 176.667H114.761V196.667H134.761V176.667ZM134.761 123.333V103.333H114.761V123.333H134.761ZM142.38 157.619V137.619H122.38V157.619H142.38ZM142.38 150H122.38V170H142.38V150ZM157.618 150V170H177.618V150H157.618ZM157.618 130.952H177.618V110.952H157.618V130.952ZM142.38 130.952V110.952H122.38V130.952H142.38ZM119.523 103.333H104.285V143.333H119.523V103.333ZM104.285 103.333C96.96 103.333 89.935 106.243 84.7553 111.423L113.04 139.707C110.718 142.029 107.569 143.333 104.285 143.333V103.333ZM84.7553 111.423C79.576 116.602 76.666 123.627 76.666 130.952H116.666C116.666 134.236 115.362 137.385 113.04 139.707L84.7553 111.423ZM76.666 130.952V176.667H116.666V130.952H76.666ZM96.666 196.667H104.285V156.667H96.666V196.667ZM124.285 176.667V157.619H84.285V176.667H124.285ZM104.285 177.619H119.523V137.619H104.285V177.619ZM99.523 157.619V176.667H139.523V157.619H99.523ZM119.523 196.667H127.142V156.667H119.523V196.667ZM147.142 176.667V130.952H107.142V176.667H147.142ZM147.142 130.952C147.142 123.627 144.232 116.602 139.053 111.423L110.768 139.707C108.447 137.385 107.142 134.236 107.142 130.952H147.142ZM139.053 111.423C133.873 106.243 126.848 103.333 119.523 103.333V143.333C116.239 143.333 113.09 142.029 110.768 139.707L139.053 111.423ZM124.285 150V130.952H84.285V150H124.285ZM104.285 150.952H119.523V110.952H104.285V150.952ZM99.523 130.952V150H139.523V130.952H99.523ZM119.523 130H104.285V170H119.523V130ZM172.856 150.952H184.285V110.952H172.856V150.952ZM164.285 130.952V169.048H204.285V130.952H164.285ZM184.285 149.048H172.856V189.048H184.285V149.048ZM152.856 169.048V176.667H192.856V169.048H152.856ZM172.856 196.667H203.333V156.667H172.856V196.667ZM223.333 176.667V169.048H183.333V176.667H223.333ZM203.333 149.048H191.904V189.048H203.333V149.048ZM211.904 169.048V130.952H171.904V169.048H211.904ZM191.904 150.952H203.333V110.952H191.904V150.952ZM223.333 130.952V123.333H183.333V130.952H223.333ZM203.333 103.333H172.856V143.333H203.333V103.333ZM152.856 123.333V130.952H192.856V123.333H152.856ZM142.38 156.667H134.761V196.667H142.38V156.667ZM154.761 176.667V123.333H114.761V176.667H154.761ZM134.761 143.333H157.618V103.333H134.761V143.333ZM157.618 143.333C154.335 143.333 151.186 142.029 148.864 139.707L177.148 111.423C171.968 106.243 164.943 103.333 157.618 103.333V143.333ZM148.864 139.707C146.542 137.385 145.237 134.236 145.237 130.952H185.237C185.237 123.627 182.328 116.602 177.148 111.423L148.864 139.707ZM145.237 130.952V150H185.237V130.952H145.237ZM145.237 150C145.237 146.716 146.542 143.567 148.864 141.245L177.148 169.53C182.328 164.35 185.237 157.325 185.237 150H145.237ZM148.864 141.245C151.186 138.923 154.335 137.619 157.618 137.619V177.619C164.943 177.619 171.968 174.709 177.148 169.53L148.864 141.245ZM157.618 137.619H142.38V177.619H157.618V137.619ZM122.38 157.619V176.667H162.38V157.619H122.38ZM142.38 170H157.618V130H142.38V170ZM177.618 150V130.952H137.618V150H177.618ZM157.618 110.952H142.38V150.952H157.618V110.952ZM122.38 130.952V150H162.38V130.952H122.38Z" fill="black"/>
</g>
<path d="M84.8313 103.333L46.666 147.299L86.666 193.333" stroke="black" stroke-width="6" stroke-linecap="round" stroke-linejoin="round"/>
<path d="M215.169 103.333L253.334 147.299L213.334 193.333" stroke="black" stroke-width="6" stroke-linecap="round" stroke-linejoin="round"/>
</svg>
