<svg width="300" height="300" viewBox="0 0 300 300" fill="none" xmlns="http://www.w3.org/2000/svg">
<mask id="mask0_369_838" style="mask-type:luminance" maskUnits="userSpaceOnUse" x="103" y="113" width="94" height="47">
<path d="M123.334 113.333H110.001C108.233 113.333 106.537 114.036 105.287 115.286C104.036 116.536 103.334 118.232 103.334 120V160H110.001V143.333H123.334V160H130.001V120C130.001 118.232 129.298 116.536 128.048 115.286C126.798 114.036 125.102 113.333 123.334 113.333ZM110.001 136.667V120H123.334V136.667H110.001ZM170.001 120H180.001V153.333H170.001V160H196.667V153.333H186.667V120H196.667V113.333H170.001V120ZM143.334 160H136.667V113.333H156.667C158.435 113.333 160.131 114.036 161.381 115.286C162.632 116.536 163.334 118.232 163.334 120V136.667C163.334 138.435 162.632 140.13 161.381 141.381C160.131 142.631 158.435 143.333 156.667 143.333H143.334V160ZM143.334 136.667H156.667V120H143.334V136.667Z" fill="white"/>
</mask>
<g mask="url(#mask0_369_838)">
<path d="M103.334 160H83.334V180H103.334V160ZM110.001 160V180H130.001V160H110.001ZM110.001 143.333V123.333H90.0007V143.333H110.001ZM123.334 143.333H143.334V123.333H123.334V143.333ZM123.334 160H103.334V180H123.334V160ZM130.001 160V180H150.001V160H130.001ZM110.001 136.667H90.0007V156.667H110.001V136.667ZM110.001 120V100H90.0007V120H110.001ZM123.334 120H143.334V100H123.334V120ZM123.334 136.667V156.667H143.334V136.667H123.334ZM170.001 120H150.001V140H170.001V120ZM180.001 120H200.001V100H180.001V120ZM180.001 153.333V173.333H200.001V153.333H180.001ZM170.001 153.333V133.333H150.001V153.333H170.001ZM170.001 160H150.001V180H170.001V160ZM196.667 160V180H216.667V160H196.667ZM196.667 153.333H216.667V133.333H196.667V153.333ZM186.667 153.333H166.667V173.333H186.667V153.333ZM186.667 120V100H166.667V120H186.667ZM196.667 120V140H216.667V120H196.667ZM196.667 113.333H216.667V93.3333H196.667V113.333ZM170.001 113.333V93.3333H150.001V113.333H170.001ZM143.334 160V180H163.334V160H143.334ZM136.667 160H116.667V180H136.667V160ZM136.667 113.333V93.3333H116.667V113.333H136.667ZM143.334 143.333V123.333H123.334V143.333H143.334ZM143.334 136.667H123.334V156.667H143.334V136.667ZM156.667 136.667V156.667H176.667V136.667H156.667ZM156.667 120H176.667V100H156.667V120ZM143.334 120V100H123.334V120H143.334ZM123.334 93.3333H110.001V133.333H123.334V93.3333ZM110.001 93.3333C102.928 93.3333 96.1453 96.143 91.1443 101.144L119.429 129.428C116.928 131.929 113.537 133.333 110.001 133.333V93.3333ZM91.1443 101.144C86.1436 106.145 83.334 112.928 83.334 120H123.334C123.334 123.536 121.929 126.928 119.429 129.428L91.1443 101.144ZM83.334 120V160H123.334V120H83.334ZM103.334 180H110.001V140H103.334V180ZM130.001 160V143.333H90.0007V160H130.001ZM110.001 163.333H123.334V123.333H110.001V163.333ZM103.334 143.333V160H143.334V143.333H103.334ZM123.334 180H130.001V140H123.334V180ZM150.001 160V120H110.001V160H150.001ZM150.001 120C150.001 112.928 147.191 106.145 142.19 101.144L113.906 129.428C111.405 126.928 110.001 123.536 110.001 120H150.001ZM142.19 101.144C137.189 96.143 130.406 93.3333 123.334 93.3333V133.333C119.798 133.333 116.406 131.929 113.906 129.428L142.19 101.144ZM130.001 136.667V120H90.0007V136.667H130.001ZM110.001 140H123.334V100H110.001V140ZM103.334 120V136.667H143.334V120H103.334ZM123.334 116.667H110.001V156.667H123.334V116.667ZM170.001 140H180.001V100H170.001V140ZM160.001 120V153.333H200.001V120H160.001ZM180.001 133.333H170.001V173.333H180.001V133.333ZM150.001 153.333V160H190.001V153.333H150.001ZM170.001 180H196.667V140H170.001V180ZM216.667 160V153.333H176.667V160H216.667ZM196.667 133.333H186.667V173.333H196.667V133.333ZM206.667 153.333V120H166.667V153.333H206.667ZM186.667 140H196.667V100H186.667V140ZM216.667 120V113.333H176.667V120H216.667ZM196.667 93.3333H170.001V133.333H196.667V93.3333ZM150.001 113.333V120H190.001V113.333H150.001ZM143.334 140H136.667V180H143.334V140ZM156.667 160V113.333H116.667V160H156.667ZM136.667 133.333H156.667V93.3333H136.667V133.333ZM156.667 133.333C153.131 133.333 149.74 131.929 147.239 129.428L175.524 101.144C170.523 96.143 163.74 93.3333 156.667 93.3333V133.333ZM147.239 129.428C144.739 126.928 143.334 123.536 143.334 120H183.334C183.334 112.928 180.524 106.145 175.524 101.144L147.239 129.428ZM143.334 120V136.667H183.334V120H143.334ZM143.334 136.667C143.334 133.13 144.739 129.739 147.239 127.239L175.524 155.523C180.524 150.522 183.334 143.739 183.334 136.667H143.334ZM147.239 127.239C149.74 124.738 153.131 123.333 156.667 123.333V163.333C163.74 163.333 170.523 160.524 175.524 155.523L147.239 127.239ZM156.667 123.333H143.334V163.333H156.667V123.333ZM123.334 143.333V160H163.334V143.333H123.334ZM143.334 156.667H156.667V116.667H143.334V156.667ZM176.667 136.667V120H136.667V136.667H176.667ZM156.667 100H143.334V140H156.667V100ZM123.334 120V136.667H163.334V120H123.334Z" fill="black"/>
</g>
<path d="M91.138 94.3553L56.666 134.066L92.795 175.646" stroke="black" stroke-width="6" stroke-linecap="round" stroke-linejoin="round"/>
<path d="M208.86 94.3553L243.332 134.067L207.203 175.646" stroke="black" stroke-width="6" stroke-linecap="round" stroke-linejoin="round"/>
<path d="M261.861 56.2107H40.1058C39.4642 56.247 38.8435 56.4507 38.3042 56.8007C37.8268 57.2244 37.4705 57.767 37.2715 58.3734V199.971C37.6445 201.8 38.4365 203.519 39.5848 204.991C40.8488 206.24 42.4162 207.138 44.1328 207.596H256.718C258.306 207.386 259.807 206.745 261.058 205.745C262.029 204.296 262.605 202.617 262.728 200.876V59.2154C262.686 58.3637 262.316 57.561 261.695 56.9757C260.825 56.4734 259.837 56.2064 258.832 56.2014H232.312" stroke="black" stroke-width="6" stroke-linecap="square" stroke-linejoin="round"/>
<path d="M113.457 246.665H189.643" stroke="black" stroke-width="6" stroke-linecap="square"/>
<path d="M132.504 242.858V208.574" stroke="black" stroke-width="6" stroke-linecap="square"/>
<path d="M170 246.667L170.597 208.574" stroke="black" stroke-width="6" stroke-linecap="square"/>
</svg>
