<?xml version="1.0" encoding="UTF-8"?>
<svg version="1.1" xmlns="http://www.w3.org/2000/svg" width="512" height="512">
<path d="M0 0 C5.33184798 1.5985615 9.29675573 8.07498281 12.84765625 12.25390625 C13.3698877 12.86564697 13.89211914 13.4773877 14.43017578 14.10766602 C18.3878834 18.75806322 22.26750588 23.46680397 26.1171875 28.20703125 C28.72428086 31.39519275 31.40048273 34.51678295 34.09765625 37.62890625 C34.57074219 37.23058594 35.04382813 36.83226562 35.53125 36.421875 C42.33872318 30.9679345 49.18617648 27.67410485 58.09765625 28.62890625 C65.12160079 30.04389326 70.33810579 33.24685328 75.09765625 38.62890625 C75.09765625 39.28890625 75.09765625 39.94890625 75.09765625 40.62890625 C76.35441288 40.62337549 76.35441288 40.62337549 77.63655853 40.617733 C98.03499732 40.52934658 118.43340304 40.46317938 138.8319931 40.42165756 C148.69665917 40.40104354 158.5611973 40.37294509 168.42578125 40.32714844 C177.02503626 40.28724519 185.62419862 40.261465 194.22354364 40.25255227 C198.77570728 40.24734343 203.32760586 40.23512495 207.87968445 40.20598602 C212.16754069 40.17876177 216.4550236 40.17047536 220.74295807 40.17647552 C222.31347434 40.17537841 223.88400356 40.1674662 225.45444489 40.15208435 C234.62585933 40.06668809 241.85668259 40.10628998 249.12109375 46.375 C249.56710937 46.93316406 250.013125 47.49132813 250.47265625 48.06640625 C251.16488281 48.89978516 251.16488281 48.89978516 251.87109375 49.75 C255.32534707 55.04138805 255.36742878 59.74203311 255.29296875 65.8671875 C255.28872391 67.18833809 255.28872391 67.18833809 255.28439331 68.53617859 C255.27323458 71.3380617 255.24813796 74.13962041 255.22265625 76.94140625 C255.21262088 78.8456985 255.203496 80.74999577 255.1953125 82.65429688 C255.17330934 87.31262422 255.13880919 91.97071031 255.09765625 96.62890625 C255.99484375 96.60795898 256.89203125 96.58701172 257.81640625 96.56542969 C261.17865484 96.49683009 264.5401486 96.44690331 267.90283203 96.40917969 C269.35184542 96.3891933 270.8007795 96.36199428 272.24951172 96.32714844 C281.65742152 96.10670121 288.87284415 96.05036882 296.33984375 102.59375 C297.14808594 103.57021484 297.14808594 103.57021484 297.97265625 104.56640625 C298.52695312 105.21480469 299.08125 105.86320312 299.65234375 106.53125 C302.31616941 110.39739697 303.34707457 113.89234697 303.35492516 118.56342793 C303.36137405 119.53683355 303.36782294 120.51023917 303.37446725 121.51314193 C303.36982145 123.10563562 303.36982145 123.10563562 303.36508179 124.7303009 C303.3696129 125.86415606 303.37414401 126.99801121 303.37881243 128.16622561 C303.39149478 131.97389536 303.38983357 135.78142277 303.38818359 139.58911133 C303.39307883 142.31575562 303.40091464 145.04238987 303.40853882 147.76902771 C303.42514708 154.41188115 303.43064829 161.05469909 303.43176357 167.69757155 C303.43271415 173.0978469 303.43682494 178.49811054 303.44316483 183.89838219 C303.46077694 199.21215498 303.47000377 214.52589974 303.46850388 229.83968274 C303.46842397 230.6651387 303.46834405 231.49059467 303.46826172 232.34106445 C303.46817996 233.16752937 303.4680982 233.99399428 303.46801396 234.84550359 C303.46720112 248.23847235 303.48633832 261.63132863 303.51453845 275.02426485 C303.54327159 288.77898074 303.5570785 302.53364177 303.5553509 316.28838843 C303.55468713 324.00944912 303.56017344 331.7303919 303.581707 339.45142555 C303.59992451 346.0255571 303.60426156 352.5995173 303.59068815 359.17366318 C303.58416106 362.52669997 303.58620747 365.87914 303.60139465 369.23218918 C303.61680716 372.87060714 303.60756399 376.50816159 303.59213257 380.14656067 C303.60241969 381.20153096 303.61270682 382.25650126 303.62330568 383.34344035 C303.55344893 390.7959848 302.09531763 396.20811573 297.1328125 401.87109375 C296.48183594 402.40992188 295.83085937 402.94875 295.16015625 403.50390625 C294.51175781 404.05820312 293.86335938 404.6125 293.1953125 405.18359375 C288.74051323 408.25300852 284.91224538 408.88071107 279.55192566 408.89633179 C278.90809679 408.9008629 278.26426792 408.90539401 277.60092908 408.91006243 C275.45157104 408.92268503 273.30246709 408.92108749 271.15307617 408.91943359 C269.60868505 408.92542023 268.06429692 408.93222609 266.51991272 408.93978882 C262.32970661 408.95744321 258.1395822 408.96214399 253.94934249 408.96342039 C251.32956009 408.96484297 248.70979839 408.96911461 246.09002113 408.97441483 C236.94501046 408.99291389 227.80005806 409.00108567 218.6550293 408.99951172 C210.13953209 408.99831064 201.62428848 409.01940656 193.10885543 409.05099905 C185.79063134 409.07717928 178.47248999 409.08787827 171.15421945 409.0866009 C166.78659765 409.08609174 162.41920123 409.09174927 158.05162621 409.112957 C153.94176915 409.1323687 149.83235174 409.13244406 145.72247887 409.11792374 C144.21808732 409.11583809 142.71366804 409.12052199 141.20932388 409.13264465 C132.05309303 409.20162305 125.05060387 408.96920704 117.85546875 402.6640625 C117.31664062 402.01308594 116.7778125 401.36210937 116.22265625 400.69140625 C115.66835938 400.04300781 115.1140625 399.39460938 114.54296875 398.7265625 C111.19870901 393.87286661 110.83019249 389.58744935 110.97265625 383.81640625 C111.01390625 381.44453125 111.05515625 379.07265625 111.09765625 376.62890625 C103.17765625 376.62890625 95.25765625 376.62890625 87.09765625 376.62890625 C87.09765625 395.10890625 87.09765625 413.58890625 87.09765625 432.62890625 C93.78015625 432.55929687 93.78015625 432.55929687 100.59765625 432.48828125 C104.166301 432.46252874 107.73491923 432.44084777 111.30360413 432.42190552 C115.06180697 432.40084692 118.81964463 432.37274093 122.57763672 432.32714844 C126.20218487 432.28345375 129.82638052 432.25971989 133.45117188 432.24939728 C134.82899519 432.24204793 136.2068008 432.22769679 137.58447266 432.20598602 C146.71304024 432.06794539 153.2423949 432.37420858 160.33984375 438.59375 C160.87867188 439.24472656 161.4175 439.89570313 161.97265625 440.56640625 C162.52695312 441.21480469 163.08125 441.86320312 163.65234375 442.53125 C168.13177722 449.03248182 167.77229353 456.00031542 167.09765625 463.62890625 C165.41680042 470.28849958 160.63387303 474.81438072 155.09765625 478.62890625 C150.40604731 481.08459013 145.98299053 480.91461439 140.81852722 480.89633179 C139.88068258 480.9008629 138.94283794 480.90539401 137.97657377 480.91006243 C134.83223289 480.92272837 131.68806474 480.92108463 128.54370117 480.91943359 C126.2899605 480.92541748 124.03622188 480.9322227 121.78248596 480.93978882 C115.65846231 480.95747047 109.53449454 480.96214512 103.41044784 480.96342039 C98.2986248 480.96531897 93.18681479 480.97267605 88.07499677 480.97976458 C76.70339533 480.99512388 65.3318285 481.00110176 53.96022018 480.99975388 C53.27814 480.99967397 52.59605982 480.99959405 51.89331055 480.99951172 C51.21039514 480.99942996 50.52747973 480.9993482 49.82386992 480.99926396 C38.7588405 480.99845123 27.69394727 481.0175861 16.62895723 481.04578845 C5.26082147 481.07453424 -6.10722725 481.08796175 -17.47540778 481.0866009 C-23.85508963 481.0860909 -30.23461738 481.09179525 -36.61426735 481.112957 C-42.61514757 481.13231856 -48.61572636 481.13247783 -54.6166172 481.11792374 C-56.81763143 481.11583196 -59.01866442 481.12055841 -61.21964645 481.13264465 C-64.22753972 481.14809052 -67.23439278 481.13879278 -70.24226379 481.12338257 C-71.11046857 481.13366969 -71.97867335 481.14395682 -72.87318736 481.15455568 C-79.73301067 481.07704727 -84.95446364 479.21215311 -90.14453125 474.6640625 C-90.68335937 474.01308594 -91.2221875 473.36210937 -91.77734375 472.69140625 C-92.33164063 472.04300781 -92.8859375 471.39460938 -93.45703125 470.7265625 C-97.93646472 464.22533068 -97.57698103 457.25749708 -96.90234375 449.62890625 C-95.22148792 442.96931292 -90.43856053 438.44343178 -84.90234375 434.62890625 C-80.77465504 432.59901054 -77.39203246 432.38560363 -72.81713867 432.40185547 C-72.12390503 432.40156342 -71.43067139 432.40127136 -70.71643066 432.40097046 C-68.43842801 432.40235728 -66.1607576 432.41788758 -63.8828125 432.43359375 C-62.29812295 432.43732619 -60.71343109 432.44017207 -59.1287384 432.44216919 C-54.96779962 432.44978748 -50.80700154 432.46942037 -46.64611816 432.49157715 C-41.64840858 432.51568147 -36.65065183 432.52482516 -31.6529007 432.53648376 C-24.069284 432.55584591 -16.48597575 432.59418089 -8.90234375 432.62890625 C-8.90234375 414.14890625 -8.90234375 395.66890625 -8.90234375 376.62890625 C-13.46498047 376.64985352 -18.02761719 376.67080078 -22.72851562 376.69238281 C-37.79992714 376.7586485 -52.87134437 376.80304387 -67.94286346 376.83615494 C-77.08112523 376.85676539 -86.21924881 376.88485693 -95.35742188 376.93066406 C-103.32382441 376.97057834 -111.29012685 376.99635009 -119.25662661 377.00526023 C-123.47345148 377.01046723 -127.68999006 377.02267374 -131.90672302 377.05182648 C-135.87940914 377.07906828 -139.85169224 377.08733368 -143.82446289 377.08133698 C-145.27887668 377.08243331 -146.73330458 377.09033516 -148.18763733 377.10572815 C-156.17017924 377.18604061 -162.1424057 377.09965516 -168.90234375 372.62890625 C-175.57897589 365.95227411 -177.2357841 359.9700551 -177.30823606 350.83218008 C-177.30222602 349.6790696 -177.29621597 348.52595911 -177.2900238 347.33790588 C-177.29540934 346.10025307 -177.30079488 344.86260026 -177.30634362 343.58744282 C-177.31815485 340.1638571 -177.31656142 336.74075955 -177.3091768 333.31719339 C-177.30444135 329.62044614 -177.31695829 325.92375081 -177.32719421 322.22702026 C-177.34438 314.98952015 -177.34522272 307.75210686 -177.33998131 300.51459164 C-177.33593808 294.63142736 -177.33738499 288.74828872 -177.34272957 282.86512566 C-177.34347799 282.02744941 -177.34422641 281.18977317 -177.34499751 280.3267128 C-177.34652901 278.62491838 -177.34806735 276.92312397 -177.34961248 275.22132956 C-177.36333665 259.26658406 -177.35790035 243.3118876 -177.34642727 227.35714322 C-177.33649428 212.76476051 -177.34943683 198.17250459 -177.37336146 183.58014143 C-177.39775059 168.59138351 -177.40736083 153.60268465 -177.40070873 138.61390728 C-177.39721619 130.20095218 -177.39945095 121.78809459 -177.41695976 113.3751545 C-177.43167939 106.21367256 -177.43232034 99.05235682 -177.41488885 91.89087815 C-177.40637455 88.23817868 -177.4042395 84.58577613 -177.41954041 80.93309212 C-177.43593228 76.97087273 -177.42124471 73.0091118 -177.40354919 69.04689026 C-177.4131542 67.89601049 -177.42275921 66.74513073 -177.43265527 65.55937582 C-177.36258476 57.94080466 -176.27650107 52.53900354 -171.15625 46.60546875 C-170.31900391 45.93644531 -170.31900391 45.93644531 -169.46484375 45.25390625 C-168.90925781 44.79242188 -168.35367188 44.3309375 -167.78125 43.85546875 C-163.80031941 41.25669078 -160.32322782 40.37880569 -155.59837341 40.46482849 C-154.02380119 40.48493484 -154.02380119 40.48493484 -152.41741943 40.50544739 C-150.70537323 40.54226875 -150.70537323 40.54226875 -148.95874023 40.57983398 C-146.45015549 40.61560844 -143.94156443 40.65094238 -141.43296814 40.68589783 C-140.0905739 40.70778478 -138.74818131 40.72977375 -137.40579033 40.75185966 C-133.23937804 40.8169705 -129.0730882 40.85058386 -124.90626526 40.87599182 C-124.20146151 40.8803619 -123.49665775 40.88473198 -122.77049631 40.88923448 C-120.60025446 40.9023765 -118.43001041 40.91508773 -116.25976562 40.92773438 C-107.29394927 40.98042968 -98.33035229 41.05544982 -89.3659668 41.22875977 C-82.81896816 41.35511209 -76.27446459 41.42040052 -69.72620636 41.41610295 C-66.26586708 41.41613812 -62.81185769 41.44597628 -59.3529644 41.55038261 C-45.33461484 42.50981051 -45.33461484 42.50981051 -32.58769608 37.96108818 C-28.76532756 34.01173179 -26.19839928 29.58773955 -23.88066292 24.63507462 C-22.55672781 21.92017663 -20.84689261 19.57450962 -19.02734375 17.171875 C-18.49753906 16.43259766 -17.96773437 15.69332031 -17.421875 14.93164062 C-16.92042969 14.23361328 -16.41898438 13.53558594 -15.90234375 12.81640625 C-15.10376953 11.69395508 -15.10376953 11.69395508 -14.2890625 10.54882812 C-6.87142282 0.23223497 -6.87142282 0.23223497 0 0 Z M-1.90234375 22.62890625 C-3.35958343 24.56566497 -4.76378685 26.51841965 -6.15234375 28.50390625 C-7.06325253 29.79335715 -7.97473945 31.08239977 -8.88671875 32.37109375 C-9.37462891 33.06170898 -9.86253906 33.75232422 -10.36523438 34.46386719 C-13.01996399 38.20308926 -15.71277741 41.91470548 -18.40234375 45.62890625 C-22.25160531 50.95099682 -26.09055752 56.27990787 -29.90234375 61.62890625 C-34.26992541 67.75784052 -38.67585309 73.85863146 -43.0859375 79.95703125 C-46.77007576 85.05414489 -50.43619607 90.16354796 -54.08276367 95.28759766 C-56.44966379 98.60920976 -58.83473599 101.91678752 -61.234375 105.21484375 C-61.81123047 106.00890625 -62.38808594 106.80296875 -62.98242188 107.62109375 C-64.10258044 109.16178534 -65.22483545 110.70095584 -66.34960938 112.23828125 C-69.74714194 116.91463664 -72.90790117 121.68461348 -75.90234375 126.62890625 C-70.67497452 133.06954143 -65.38359181 139.44639976 -60.01074219 145.765625 C-56.1716371 150.28922169 -52.41326255 154.87310599 -48.6796875 159.484375 C-46.92978666 161.66360856 -46.92978666 161.66360856 -44.90234375 163.62890625 C-40.46042172 163.25828636 -36.52623091 161.30760074 -32.5 159.515625 C-31.76670471 159.19416504 -31.03340942 158.87270508 -30.27789307 158.54150391 C-28.68011497 157.8403629 -27.08334096 157.13693033 -25.48745728 156.43148804 C-22.92022783 155.29668448 -20.35050406 154.16771487 -17.7800293 153.0402832 C-14.08761699 151.42051015 -10.3961091 149.7986993 -6.70507812 148.17578125 C3.11327458 143.86244928 12.94992102 139.59106147 22.78515625 135.31640625 C23.75631378 134.89406708 24.72747131 134.47172791 25.72805786 134.03659058 C41.49493212 127.1799728 57.28047937 120.36872744 73.09765625 113.62890625 C70.35480263 109.35234561 67.37151363 105.46362078 64.03515625 101.62890625 C60.13887067 97.09392824 56.37917658 92.4839863 52.72265625 87.75390625 C48.2482761 81.98103414 43.53939261 76.45128461 38.72753906 70.95800781 C35.0675348 66.77295811 31.54858612 62.50603099 28.109375 58.13671875 C25.72672353 55.1665008 23.2590047 52.27296415 20.78515625 49.37890625 C16.34913503 44.18107356 12.07912535 38.87170594 7.8894043 33.47363281 C5.03146392 29.79347076 2.14812135 26.15235288 -0.90234375 22.62890625 C-1.23234375 22.62890625 -1.56234375 22.62890625 -1.90234375 22.62890625 Z M45.09765625 51.62890625 C47.73652279 55.83154555 50.46205964 59.19528723 54.09765625 62.62890625 C57.53584755 60.08763442 59.67464129 58.44109498 61.66015625 54.62890625 C62.3287455 51.61933129 62.3287455 51.61933129 61.16015625 48.81640625 C59.17268857 46.38127964 59.17268857 46.38127964 55.84765625 45.44140625 C50.70687547 45.69844529 48.54337973 48.01560959 45.09765625 51.62890625 Z M-158.90234375 59.62890625 C-161.45115622 64.28124395 -161.17669218 68.8800846 -161.14285278 74.03779602 C-161.14456482 74.98716034 -161.14627686 75.93652466 -161.14804077 76.91465759 C-161.15135265 80.10765069 -161.1403016 83.30043426 -161.12939453 86.4934082 C-161.12878193 88.81687253 -161.12904874 91.14033723 -161.13012505 93.46380138 C-161.13057697 99.69157455 -161.11897679 105.91927101 -161.10490417 112.14702606 C-161.09352281 117.98876693 -161.0929784 123.83048905 -161.09155273 129.67224121 C-161.08105387 146.76197307 -161.05313162 163.85169062 -161.02734375 180.94140625 C-160.98609375 219.11828125 -160.94484375 257.29515625 -160.90234375 296.62890625 C-71.14234375 296.62890625 18.61765625 296.62890625 111.09765625 296.62890625 C111.26816773 236.7637195 111.26816773 236.7637195 111.39550781 176.8984375 C111.44091797 165.31835938 111.44091797 165.31835938 111.46722412 159.89672852 C111.4842251 156.11120625 111.49008801 152.32584277 111.48919678 148.5402832 C111.48842486 143.70843237 111.50673607 138.87700432 111.5387454 134.04526329 C111.5472526 132.27397285 111.54910958 130.50263471 111.5434804 128.73133278 C111.4941732 110.9635913 111.4941732 110.9635913 117.84375 103.60546875 C118.40191406 103.15945312 118.96007812 102.7134375 119.53515625 102.25390625 C120.09074219 101.79242188 120.64632813 101.3309375 121.21875 100.85546875 C126.90658827 97.14241009 132.26027032 97.32402516 138.85473633 97.31005859 C139.93811279 97.30001297 141.02148926 97.28996735 142.13769531 97.27961731 C145.71418738 97.24875726 149.29060448 97.23174207 152.8671875 97.21484375 C155.34869533 97.1961344 157.83019679 97.17656117 160.31169128 97.15615845 C166.83987674 97.10480676 173.36808282 97.06519712 179.8963623 97.02801514 C186.55922037 96.9890518 193.22198433 96.93689334 199.88476562 96.88671875 C212.95566766 96.78992342 226.02661903 96.70515374 239.09765625 96.62890625 C239.14724573 92.16318261 239.18346525 87.69760664 239.20751953 83.23168945 C239.2175517 81.71375739 239.23118063 80.19584452 239.24853516 78.67797852 C239.2729066 76.49099985 239.2841672 74.30427761 239.29296875 72.1171875 C239.30344238 70.80274658 239.31391602 69.48830566 239.32470703 68.1340332 C239.10284995 64.70908477 238.82559982 62.57834955 237.09765625 59.62890625 C233.21761486 56.75012696 230.43321639 56.25644767 225.64994812 56.2681427 C224.34729507 56.26401871 223.04464203 56.25989471 221.70251465 56.25564575 C220.26611119 56.2662619 218.82970985 56.27716631 217.39331055 56.28833008 C215.87535112 56.28917662 214.35739047 56.28870067 212.83943176 56.28700256 C208.72404875 56.28614225 204.60892835 56.30377383 200.49360633 56.32472444 C196.19080422 56.34348518 191.887996 56.3452412 187.5851593 56.34880066 C179.43959531 56.35812289 171.29415219 56.38273909 163.14864141 56.41284913 C153.87423288 56.44638758 144.59981855 56.46287775 135.32536447 56.47793543 C116.24939322 56.50928849 97.17353445 56.56205247 78.09765625 56.62890625 C77.83627869 57.31914886 77.57490112 58.00939148 77.30560303 58.72055054 C76.9556427 59.62407257 76.60568237 60.5275946 76.24511719 61.45849609 C75.90123962 62.35498871 75.55736206 63.25148132 75.20306396 64.17514038 C73.79027628 67.31122325 72.02805313 69.12535579 69.34765625 71.25390625 C68.5484375 71.90617187 67.74921875 72.5584375 66.92578125 73.23046875 C66.3225 73.69195312 65.71921875 74.1534375 65.09765625 74.62890625 C66.61109353 79.48831632 69.40118413 82.59882804 72.72265625 86.31640625 C73.8137338 87.56272305 74.90357398 88.81012414 75.9921875 90.05859375 C76.52408691 90.66670898 77.05598633 91.27482422 77.60400391 91.90136719 C80.25531108 94.96783491 82.77680301 98.13145766 85.2734375 101.32421875 C86.52810878 102.90934949 87.81979755 104.46565123 89.140625 105.99609375 C92.15904138 109.57481496 93.94152308 111.76307684 94.78515625 116.44140625 C93.96801391 120.22997526 93.00114175 121.14315299 90.09765625 123.62890625 C87.53686523 125.03833008 87.53686523 125.03833008 84.59375 126.3359375 C83.4795166 126.8319043 82.3652832 127.32787109 81.21728516 127.83886719 C79.99004145 128.37335143 78.7626606 128.90752087 77.53515625 129.44140625 C76.23980794 130.01274892 74.94472954 130.58470388 73.64990234 131.15722656 C62.42191462 136.10672147 51.13830502 140.93055281 39.85131836 145.74365234 C26.81999814 151.30206339 13.83254915 156.9586617 0.85595703 162.64355469 C-10.022695 167.40403092 -20.94757922 172.04636652 -31.90234375 176.62890625 C-31.90234375 181.51454642 -30.18464101 183.08633555 -27.08984375 186.50390625 C-26.07199824 187.66472339 -25.05644143 188.82755062 -24.04296875 189.9921875 C-23.52025391 190.59111816 -22.99753906 191.19004883 -22.45898438 191.80712891 C-19.50911756 195.2594354 -16.75260056 198.86249245 -13.97729492 202.45532227 C-11.75016117 205.32369144 -9.49186493 208.13545682 -7.09375 210.86328125 C-1.05682071 217.73876276 2.96692497 223.38956302 3.47265625 232.69140625 C2.72799177 240.51038331 -0.06314767 246.29869579 -5.90234375 251.62890625 C-12.73840886 255.73054532 -19.60715407 256.78256043 -27.39453125 255.0859375 C-34.96436288 252.57445131 -39.06467075 247.76093992 -43.90234375 241.62890625 C-44.53027832 240.83468262 -44.53027832 240.83468262 -45.17089844 240.02441406 C-46.98723708 237.72335941 -48.79753254 235.41798563 -50.59204102 233.09985352 C-54.48204962 228.09066197 -58.56757817 223.27318821 -62.75512695 218.51074219 C-66.07097005 214.71111308 -69.02268284 210.77038221 -71.90234375 206.62890625 C-75.88669719 208.17123662 -79.75102522 209.92098475 -83.62109375 211.7265625 C-92.98012401 215.42850769 -104.22414786 214.73933903 -113.375 210.8828125 C-123.37951842 205.91921062 -130.26709262 199.59875535 -134.33984375 189.00390625 C-137.59337622 177.94752967 -137.0105539 166.96820445 -131.90234375 156.62890625 C-127.96625575 149.7724949 -122.16597389 144.87919823 -116.21484375 139.81640625 C-115.5997998 139.29087158 -114.98475586 138.76533691 -114.35107422 138.22387695 C-110.78985742 135.19373507 -107.19002866 132.22383985 -103.52734375 129.31640625 C-102.33625 128.36121094 -102.33625 128.36121094 -101.12109375 127.38671875 C-99.74362808 126.29541672 -98.35020992 125.22356991 -96.93359375 124.18359375 C-89.96296508 118.72707704 -85.44973134 111.1865623 -80.50976562 103.95800781 C-77.88798779 100.15913774 -75.17667912 96.42625955 -72.46484375 92.69140625 C-71.38273578 91.19667012 -70.30070502 89.70187809 -69.21875 88.20703125 C-68.67750488 87.46001953 -68.13625977 86.71300781 -67.57861328 85.94335938 C-64.68296006 81.94528298 -61.79280662 77.94323576 -58.90234375 73.94140625 C-58.37455322 73.21123291 -57.8467627 72.48105957 -57.30297852 71.72875977 C-56.30851014 70.35235443 -55.31551679 68.9748818 -54.32421875 67.59619141 C-53.36357197 66.26705477 -52.39457497 64.94391949 -51.41796875 63.62646484 C-48.8015274 60.46118018 -48.8015274 60.46118018 -47.90234375 56.62890625 C-61.63664121 56.55942679 -75.37089693 56.50610529 -89.10533428 56.47346973 C-95.48263947 56.45780712 -101.85982451 56.43655765 -108.23706055 56.40258789 C-114.390274 56.37001618 -120.54337181 56.35205772 -126.69666481 56.34427452 C-129.04543694 56.33872712 -131.39420268 56.32789456 -133.74292564 56.31171608 C-137.03017278 56.28997133 -140.31694068 56.28693815 -143.60424805 56.28833008 C-144.57744995 56.27754425 -145.55065186 56.26675842 -146.55334473 56.25564575 C-153.26341995 56.24801708 -153.26341995 56.24801708 -158.90234375 59.62890625 Z M129.09765625 115.62890625 C126.10728111 122.20731662 126.10728111 122.20731662 127.09765625 136.62890625 C179.89765625 136.62890625 232.69765625 136.62890625 287.09765625 136.62890625 C288.29022584 121.89601144 288.29022584 121.89601144 284.09765625 114.62890625 C280.47832525 112.50077995 277.21219032 112.3763122 273.06996155 112.36820984 C271.25520073 112.35758263 271.25520073 112.35758263 269.40377808 112.34674072 C267.42512253 112.35045685 267.42512253 112.35045685 265.40649414 112.35424805 C263.99678782 112.34989864 262.58708387 112.34471473 261.17738342 112.33876038 C257.35505779 112.32538395 253.53283112 112.32479017 249.71048665 112.32732368 C246.51714644 112.32839427 243.32382618 112.32350778 240.13049024 112.31871825 C232.59584872 112.30762785 225.06125706 112.30718309 217.52661133 112.31323242 C209.75864658 112.31927325 201.99086291 112.30695742 194.22292906 112.28566235 C187.548468 112.26803904 180.87406455 112.26204613 174.19958109 112.2653001 C170.21547835 112.26711187 166.2315048 112.26448734 162.24742317 112.25058556 C158.5004011 112.23799982 154.75366109 112.23995818 151.0066433 112.25299644 C148.98010903 112.25648524 146.95356613 112.24518987 144.92706299 112.23342896 C143.71440262 112.24044327 142.50174225 112.24745758 141.25233459 112.25468445 C139.67751359 112.25443284 139.67751359 112.25443284 138.07087803 112.25417614 C134.46515007 112.70862419 132.14073997 113.64213466 129.09765625 115.62890625 Z M-88.90234375 138.62890625 C-89.79695313 139.40234375 -90.6915625 140.17578125 -91.61328125 140.97265625 C-92.8342907 142.02513963 -94.05567089 143.077193 -95.27734375 144.12890625 C-95.912771 144.67627441 -96.54819824 145.22364258 -97.20288086 145.78759766 C-100.8916518 148.9507292 -104.62793797 152.02029116 -108.46484375 155.00390625 C-114.99850338 160.22012304 -119.2804164 165.20349604 -120.90234375 173.62890625 C-121.17639077 179.44966489 -119.30212832 184.92748987 -115.90234375 189.62890625 C-110.66055364 194.58557807 -105.46330008 197.62676426 -98.21484375 198.06640625 C-87.04728148 197.73697963 -79.41834655 189.99462388 -71.49072266 183.00683594 C-67.73674986 179.75023857 -63.80534617 176.70373209 -59.90234375 173.62890625 C-63.91841491 168.09324059 -68.20589264 162.84150069 -72.64379883 157.64233398 C-76.51117131 153.10878602 -80.28452575 148.50833517 -84.02734375 143.87109375 C-85.57922231 142.01530564 -87.15586972 140.29897204 -88.90234375 138.62890625 Z M127.09765625 152.62890625 C127.09765625 218.62890625 127.09765625 284.62890625 127.09765625 352.62890625 C179.89765625 352.62890625 232.69765625 352.62890625 287.09765625 352.62890625 C287.09765625 286.62890625 287.09765625 220.62890625 287.09765625 152.62890625 C234.29765625 152.62890625 181.49765625 152.62890625 127.09765625 152.62890625 Z M-48.90234375 186.62890625 C-52.20234375 189.26890625 -55.50234375 191.90890625 -58.90234375 194.62890625 C-57.09152788 199.15594593 -55.98726822 200.93312349 -52.77734375 204.31640625 C-49.80351688 207.53058997 -46.9296061 210.75544354 -44.21484375 214.19140625 C-40.40372479 219.00140719 -36.57794612 223.79805373 -32.71484375 228.56640625 C-32.12034424 229.312854 -31.52584473 230.05930176 -30.91333008 230.82836914 C-26.64809411 236.12019494 -26.64809411 236.12019494 -20.90234375 239.62890625 C-17.68917852 239.14128364 -17.68917852 239.14128364 -14.90234375 237.62890625 C-12.61117202 234.83181577 -12.61117202 234.83181577 -13.02734375 231.765625 C-14.04255964 228.12625733 -15.42838023 226.28045119 -17.90234375 223.44140625 C-18.72347656 222.48105469 -19.54460937 221.52070313 -20.390625 220.53125 C-21.21949219 219.57347656 -22.04835937 218.61570313 -22.90234375 217.62890625 C-24.30412148 215.92544722 -25.69998763 214.21710601 -27.08984375 212.50390625 C-28.23107923 211.11018505 -29.37235259 209.71649474 -30.51416016 208.32324219 C-31.54813253 207.06123581 -32.58157697 205.79879687 -33.61474609 204.53613281 C-35.50060562 202.23234742 -37.38878965 199.93048303 -39.27734375 197.62890625 C-39.88473389 196.88624512 -40.49212402 196.14358398 -41.11791992 195.37841797 C-41.69388916 194.6773291 -42.2698584 193.97624023 -42.86328125 193.25390625 C-43.63357666 192.31417969 -43.63357666 192.31417969 -44.41943359 191.35546875 C-45.83424551 189.7081935 -47.36689455 188.16435545 -48.90234375 186.62890625 Z M-160.90234375 312.62890625 C-162.69052351 335.66586061 -162.69052351 335.66586061 -158.90234375 357.62890625 C-157.13639989 359.80347334 -157.13639989 359.80347334 -154.93552291 359.87730324 C-153.71548149 359.87616408 -153.71548149 359.87616408 -152.47079277 359.87500191 C-151.53326066 359.878984 -150.59572855 359.8829661 -149.62978637 359.88706887 C-148.59283791 359.88124318 -147.55588945 359.8754175 -146.48751831 359.86941528 C-145.39141743 359.87112413 -144.29531655 359.87283298 -143.16600049 359.87459362 C-139.46851203 359.87790544 -135.77120239 359.86685697 -132.07373047 359.85595703 C-129.43307077 359.85539328 -126.79242225 359.85562056 -124.15176392 359.85684204 C-118.45394898 359.85789229 -112.75617975 359.85160112 -107.05837631 359.84036636 C-98.82024959 359.82413322 -90.58214503 359.8189056 -82.34400405 359.81639038 C-68.97916074 359.81200984 -55.61434179 359.79869101 -42.24951172 359.77978516 C-29.26448692 359.76143564 -16.27946873 359.7472746 -3.29443359 359.73876953 C-2.09444954 359.73798136 -2.09444954 359.73798136 -0.87022339 359.73717727 C3.1429664 359.73456725 7.15615623 359.73203982 11.16934609 359.72955346 C44.47880122 359.70880977 77.78822405 359.67302523 111.09765625 359.62890625 C111.09765625 344.11890625 111.09765625 328.60890625 111.09765625 312.62890625 C21.33765625 312.62890625 -68.42234375 312.62890625 -160.90234375 312.62890625 Z M127.09765625 368.62890625 C126.22058047 380.66233641 126.22058047 380.66233641 130.09765625 390.62890625 C133.8364092 392.55411629 136.95511103 392.88144551 141.12535095 392.88960266 C142.94011177 392.90022987 142.94011177 392.90022987 144.79153442 392.91107178 C146.77018997 392.90735565 146.77018997 392.90735565 148.78881836 392.90356445 C150.19852468 392.90791386 151.60822863 392.91309777 153.01792908 392.91905212 C156.84025471 392.93242855 160.66248138 392.93302233 164.48482585 392.93048882 C167.67816606 392.92941823 170.87148632 392.93430472 174.06482226 392.93909425 C181.59946378 392.95018465 189.13405544 392.95062941 196.66870117 392.94458008 C204.43666592 392.93853925 212.20444959 392.95085508 219.97238344 392.97215015 C226.6468445 392.98977346 233.32124795 392.99576637 239.99573141 392.9925124 C243.97983415 392.99070063 247.9638077 392.99332516 251.94788933 393.00722694 C255.6949114 393.01981268 259.44165141 393.01785432 263.1886692 393.00481606 C265.21520347 393.00132726 267.24174637 393.01262263 269.26824951 393.02438354 C270.48090988 393.01736923 271.69357025 393.01035492 272.94297791 393.00312805 C274.51779891 393.00337966 274.51779891 393.00337966 276.12443447 393.00363636 C279.76474221 392.54483005 282.05239933 391.68655123 285.09765625 389.62890625 C287.88822567 382.31129056 287.88822567 382.31129056 287.09765625 368.62890625 C234.29765625 368.62890625 181.49765625 368.62890625 127.09765625 368.62890625 Z M7.09765625 376.62890625 C7.09765625 395.10890625 7.09765625 413.58890625 7.09765625 432.62890625 C28.21765625 432.62890625 49.33765625 432.62890625 71.09765625 432.62890625 C71.09765625 414.14890625 71.09765625 395.66890625 71.09765625 376.62890625 C49.97765625 376.62890625 28.85765625 376.62890625 7.09765625 376.62890625 Z M-78.90234375 451.62890625 C-80.32276196 454.46974266 -80.21686647 456.48367903 -79.90234375 459.62890625 C-77.67027944 462.47671244 -76.35241376 463.47888291 -72.90234375 464.62890625 C-70.05411229 464.72937948 -67.23022666 464.77233039 -64.38175964 464.76934814 C-63.50138245 464.77231927 -62.62100526 464.77529039 -61.71394998 464.77835155 C-58.75224293 464.78705063 -55.79057625 464.78854781 -52.82885742 464.79003906 C-50.71009738 464.79466637 -48.59133818 464.79969091 -46.47257996 464.80508423 C-40.70807609 464.81821834 -34.94358387 464.82465511 -29.17906737 464.82909489 C-25.57938654 464.83202387 -21.9797089 464.83612833 -18.38002968 464.84059906 C-7.12252161 464.8542764 4.13497917 464.86394201 15.39249498 464.86780095 C28.39711732 464.87228301 41.40163463 464.88983682 54.40622503 464.91880155 C64.45215821 464.94040156 74.49806181 464.95050433 84.54401797 464.95184207 C90.54693714 464.95289126 96.5497576 464.95882346 102.55265236 464.97666168 C108.19888035 464.99311336 113.84493513 464.99531194 119.49117851 464.98652267 C121.56402677 464.98575076 123.63688424 464.99011533 125.70970917 464.99998093 C128.53872055 465.01265639 131.36711437 465.00684748 134.19612122 464.99639893 C135.42750335 465.00848353 135.42750335 465.00848353 136.68376189 465.02081227 C141.54294813 464.97881768 144.88603267 464.32114079 149.09765625 461.62890625 C150.51807446 458.78806984 150.41217897 456.77413347 150.09765625 453.62890625 C147.86559194 450.78110006 146.54772626 449.77892959 143.09765625 448.62890625 C140.24942479 448.52843302 137.42553916 448.48548211 134.57707214 448.48846436 C133.69669495 448.48549323 132.81631776 448.48252211 131.90926248 448.47946095 C128.94755543 448.47076187 125.98588875 448.46926469 123.02416992 448.46777344 C120.90540988 448.46314613 118.78665068 448.45812159 116.66789246 448.45272827 C110.90338859 448.43959416 105.13889637 448.43315739 99.37437987 448.42871761 C95.77469904 448.42578863 92.1750214 448.42168417 88.57534218 448.41721344 C77.31783411 448.4035361 66.06033333 448.39387049 54.80281752 448.39001155 C41.79819518 448.38552949 28.79367787 448.36797568 15.78908747 448.33901095 C5.74315429 448.31741094 -4.30274931 448.30730817 -14.34870547 448.30597043 C-20.35162464 448.30492124 -26.3544451 448.29898904 -32.35733986 448.28115082 C-38.00356785 448.26469914 -43.64962263 448.26250056 -49.29586601 448.27128983 C-51.36871427 448.27206174 -53.44157174 448.26769717 -55.51439667 448.25783157 C-58.34340805 448.24515611 -61.17180187 448.25096502 -64.00080872 448.26141357 C-65.23219085 448.24932897 -65.23219085 448.24932897 -66.48844939 448.23700023 C-71.34763563 448.27899482 -74.69072017 448.93667171 -78.90234375 451.62890625 Z " fill="#000000" transform="translate(192.90234375,15.37109375)"/>
<path d="M0 0 C0.90471542 -0.00671722 1.80943085 -0.01343445 2.74156189 -0.02035522 C5.72774778 -0.03932819 8.71370879 -0.04325918 11.69995117 -0.04541016 C13.78114412 -0.05183893 15.86233617 -0.05856735 17.94352722 -0.06558228 C22.30547175 -0.07755354 26.66733708 -0.08126328 31.02929688 -0.08007812 C36.60780665 -0.07987503 42.18580645 -0.10716837 47.76419544 -0.14162254 C52.06314915 -0.16390444 56.36198042 -0.16791525 60.66098595 -0.16685867 C62.71700484 -0.16921302 64.77302719 -0.17802712 66.82898903 -0.19352341 C69.71057033 -0.21320773 72.59105578 -0.20733545 75.47265625 -0.1953125 C76.73618423 -0.21217102 76.73618423 -0.21217102 78.02523804 -0.22937012 C84.82620696 -0.15757821 90.03077487 1.74954919 95.17260742 6.25537109 C95.71143555 6.90634766 96.25026367 7.55732422 96.80541992 8.22802734 C97.3597168 8.87642578 97.91401367 9.52482422 98.48510742 10.19287109 C101.89777549 15.14585151 102.22783939 19.74307512 102.22094727 25.62573242 C102.22766449 26.45241928 102.23438171 27.27910614 102.24130249 28.13084412 C102.26026284 30.8573105 102.26420581 33.58353042 102.26635742 36.31005859 C102.27278715 38.21188965 102.27951565 40.11371972 102.28652954 42.01554871 C102.29849771 46.00086764 102.30221088 49.98609992 102.30102539 53.97143555 C102.30082233 59.06569211 102.32811316 64.15939 102.36256981 69.25351429 C102.38486341 73.18188503 102.38886216 77.11012191 102.38780594 81.03854942 C102.39015862 82.91594046 102.39896333 84.79333537 102.41447067 86.67066383 C102.43417885 89.30321403 102.42827387 91.9345671 102.41625977 94.56713867 C102.42749878 95.33468475 102.43873779 96.10223083 102.45031738 96.89303589 C102.37476547 103.44396763 100.2928534 108.5946291 95.96557617 113.53271484 C95.31459961 114.07154297 94.66362305 114.61037109 93.99291992 115.16552734 C93.34452148 115.71982422 92.69612305 116.27412109 92.02807617 116.84521484 C86.76651853 120.47049665 82.04473609 120.58766094 75.86083984 120.58105469 C74.95612442 120.58777191 74.051409 120.59448914 73.11927795 120.60140991 C70.13309207 120.62038287 67.14713106 120.62431387 64.16088867 120.62646484 C62.07969572 120.63289361 59.99850368 120.63962203 57.91731262 120.64663696 C53.5553681 120.65860823 49.19350276 120.66231797 44.83154297 120.66113281 C39.2530332 120.66092972 33.6750334 120.68822306 28.0966444 120.72267723 C23.7976907 120.74495913 19.49885943 120.74896994 15.1998539 120.74791336 C13.14383501 120.7502677 11.08781266 120.7590818 9.03185081 120.77457809 C6.15026951 120.79426241 3.26978406 120.78839013 0.38818359 120.77636719 C-0.4541684 120.7876062 -1.29652039 120.79884521 -2.16439819 120.8104248 C-8.96536712 120.7386329 -14.16993503 118.8315055 -19.31176758 114.32568359 C-19.8505957 113.67470703 -20.38942383 113.02373047 -20.94458008 112.35302734 C-21.49887695 111.70462891 -22.05317383 111.05623047 -22.62426758 110.38818359 C-26.03693565 105.43520318 -26.36699955 100.83797957 -26.36010742 94.95532227 C-26.36682465 94.12863541 -26.37354187 93.30194855 -26.38046265 92.45021057 C-26.39942299 89.72374418 -26.40336597 86.99752427 -26.40551758 84.27099609 C-26.41194731 82.36916504 -26.4186758 80.46733497 -26.4256897 78.56550598 C-26.43765787 74.58018705 -26.44137104 70.59495477 -26.44018555 66.60961914 C-26.43998249 61.51536258 -26.46727331 56.42166468 -26.50172997 51.3275404 C-26.52402357 47.39916965 -26.52802232 43.47093278 -26.52696609 39.54250526 C-26.52931878 37.66511423 -26.53812349 35.78771932 -26.55363083 33.91039085 C-26.57333901 31.27784066 -26.56743403 28.64648759 -26.55541992 26.01391602 C-26.56665894 25.24636993 -26.57789795 24.47882385 -26.58947754 23.6880188 C-26.51392562 17.13708706 -24.43201356 11.98642559 -20.10473633 7.04833984 C-19.45375977 6.50951172 -18.8027832 5.97068359 -18.13208008 5.41552734 C-17.48368164 4.86123047 -16.8352832 4.30693359 -16.16723633 3.73583984 C-10.90567868 0.11055804 -6.18389625 -0.00660626 0 0 Z M-8.06958008 19.29052734 C-10.41497191 23.16813184 -10.32780806 26.91520043 -10.34423828 31.37231445 C-10.34934921 32.06566391 -10.35446014 32.75901337 -10.35972595 33.47337341 C-10.37357422 35.75496156 -10.37266887 38.03624603 -10.37036133 40.31787109 C-10.3742508 41.91061006 -10.37858599 43.50334799 -10.38334656 45.09608459 C-10.39079844 48.43070847 -10.39052493 51.76522646 -10.38525391 55.09985352 C-10.37945969 59.36470341 -10.39639387 63.62911895 -10.41959858 67.89389706 C-10.43435838 71.18224098 -10.43520459 74.47048082 -10.43208885 77.75885201 C-10.4326009 79.33086571 -10.43781684 80.90288542 -10.44790077 82.47486687 C-10.46029231 84.67664378 -10.45345817 86.87758136 -10.44189453 89.0793457 C-10.44252396 90.33001328 -10.44315338 91.58068085 -10.44380188 92.86924744 C-10.02277852 96.71840519 -9.221724 99.07379174 -7.06958008 102.29052734 C-3.07652425 104.75616236 1.1803737 104.5808829 5.74658203 104.56518555 C6.90364906 104.57285194 6.90364906 104.57285194 8.08409119 104.58067322 C10.62539502 104.59453476 13.16642661 104.59361511 15.70776367 104.59130859 C17.4798645 104.59519732 19.25196441 104.59953235 21.02406311 104.60429382 C24.73531111 104.61174856 28.44646397 104.6114701 32.15771484 104.60620117 C36.90682079 104.60040648 41.65553673 104.61734108 46.40457821 104.64054585 C50.0635047 104.65529773 53.72233757 104.65615292 57.38128853 104.65303612 C59.1319309 104.65354856 60.88257861 104.65877189 62.63319206 104.66884804 C65.08400493 104.68122396 67.53406196 104.6744143 69.98486328 104.6628418 C70.70349548 104.67048553 71.42212769 104.67812927 72.16253662 104.68600464 C76.80274847 104.63772506 80.07668682 103.91387581 83.93041992 101.29052734 C86.27581175 97.41292285 86.18864791 93.66585425 86.20507812 89.20874023 C86.21274452 88.16871605 86.21274452 88.16871605 86.2205658 87.10768127 C86.23441406 84.82609313 86.23350871 82.54480866 86.23120117 80.26318359 C86.23509064 78.67044463 86.23942583 77.07770669 86.2441864 75.48497009 C86.25163829 72.15034621 86.25136478 68.81582823 86.24609375 65.48120117 C86.24029953 61.21635128 86.25723371 56.95193573 86.28043842 52.68715763 C86.29519822 49.39881371 86.29604444 46.11057386 86.2929287 42.82220268 C86.29344075 41.25018898 86.29865669 39.67816927 86.30874062 38.10618782 C86.32113216 35.9044109 86.31429801 33.70347332 86.30273438 31.50170898 C86.3033638 30.25104141 86.30399323 29.00037384 86.30464172 27.71180725 C85.88361837 23.8626495 85.08256384 21.50726294 82.93041992 18.29052734 C78.93736409 15.82489233 74.68046615 16.00017178 70.11425781 16.01586914 C68.95719078 16.00820274 68.95719078 16.00820274 67.77674866 16.00038147 C65.23544483 15.98651993 62.69441324 15.98743958 60.15307617 15.98974609 C58.38097534 15.98585737 56.60887544 15.98152233 54.83677673 15.97676086 C51.12552873 15.96930613 47.41437587 15.96958459 43.703125 15.97485352 C38.95401906 15.98064821 34.20530311 15.96371361 29.45626163 15.94050884 C25.79733514 15.92575696 22.13850228 15.92490176 18.47955132 15.92801857 C16.72890894 15.92750612 14.97826123 15.9222828 13.22764778 15.91220665 C10.77683491 15.89983072 8.32677789 15.90664038 5.87597656 15.91821289 C4.79802826 15.90674728 4.79802826 15.90674728 3.69830322 15.89505005 C-0.94190863 15.94332963 -4.21584698 16.66717888 -8.06958008 19.29052734 Z " fill="#000000" transform="translate(362.069580078125,207.70947265625)"/>
<path d="M0 0 C2.81716513 1.52091903 5.32227541 3.3871501 7.875 5.3125 C9.36157396 6.40029355 10.84856638 7.48751543 12.3359375 8.57421875 C13.09745117 9.1367334 13.85896484 9.69924805 14.64355469 10.27880859 C17.02419453 12.01767213 19.43069263 13.71220706 21.8515625 15.39453125 C22.63031738 15.9361792 23.40907227 16.47782715 24.21142578 17.03588867 C25.71634023 18.0808522 27.22249184 19.12403668 28.72998047 20.1652832 C29.40689941 20.63925537 30.08381836 21.11322754 30.78125 21.6015625 C31.38001953 22.01744629 31.97878906 22.43333008 32.59570312 22.86181641 C34 24 34 24 35 26 C35.70086223 33.12543269 35.70086223 33.12543269 33.1875 36.26171875 C28.75614555 40.35455604 23.59382337 43.60818354 18.625 47 C16.59612268 48.39549684 14.56747143 49.79132242 12.5390625 51.1875 C11.58209473 51.84234375 10.62512695 52.4971875 9.63916016 53.171875 C7.39667485 54.72522652 5.19432569 56.31750458 3 57.9375 C-0.51314284 60.3527857 -2.74775324 61 -7 61 C-9.94755732 59.65437601 -11.54277272 58.91445456 -13 56 C-13.10563292 54.32090261 -13.14875499 52.63769355 -13.16113281 50.95532227 C-13.17074036 49.90405655 -13.1803479 48.85279083 -13.19024658 47.76966858 C-13.19449646 46.63009201 -13.19874634 45.49051544 -13.203125 44.31640625 C-13.20882507 43.14996078 -13.21452515 41.98351532 -13.22039795 40.78172302 C-13.22985648 38.31111562 -13.2363853 35.84049556 -13.24023438 33.36987305 C-13.24995089 29.58164614 -13.2809715 25.7939591 -13.3125 22.00585938 C-13.31902869 19.60937823 -13.32427969 17.2128932 -13.328125 14.81640625 C-13.3404718 13.67885391 -13.3528186 12.54130157 -13.36553955 11.36927795 C-13.36253845 10.31486008 -13.35953735 9.2604422 -13.35644531 8.17407227 C-13.36009094 7.2452272 -13.36373657 6.31638214 -13.36749268 5.35939026 C-12.92741842 2.53400899 -12.26928212 1.68861189 -10 0 C-6.10837001 -1.29721 -4.0021067 -0.94094706 0 0 Z M3 24 C3 27.96 3 31.92 3 36 C6.96 33.525 6.96 33.525 11 31 C9.86516076 27.59548229 9.44722063 27.3994436 6.4375 25.8125 C5.303125 25.214375 4.16875 24.61625 3 24 Z " fill="#000000" transform="translate(389,238)"/>
<path d="M0 0 C1.051875 -0.00515625 2.10375 -0.0103125 3.1875 -0.015625 C4.280625 -0.00015625 5.37375 0.0153125 6.5 0.03125 C8.1396875 0.00804687 8.1396875 0.00804687 9.8125 -0.015625 C10.864375 -0.01046875 11.91625 -0.0053125 13 0 C14.43859375 0.00676758 14.43859375 0.00676758 15.90625 0.01367188 C19.21298564 0.673525 20.40908706 1.94238555 22.5 4.53125 C23.03125 6.53125 23.03125 6.53125 23 8.53125 C23.0103125 9.19125 23.020625 9.85125 23.03125 10.53125 C22.2561666 13.44921104 20.80895833 14.6243588 18.5 16.53125 C15.90625 17.04882812 15.90625 17.04882812 13 17.0625 C11.948125 17.06765625 10.89625 17.0728125 9.8125 17.078125 C8.719375 17.06265625 7.62625 17.0471875 6.5 17.03125 C4.8603125 17.05445313 4.8603125 17.05445313 3.1875 17.078125 C2.135625 17.07296875 1.08375 17.0678125 0 17.0625 C-0.9590625 17.05798828 -1.918125 17.05347656 -2.90625 17.04882812 C-6.21298564 16.388975 -7.40908706 15.12011445 -9.5 12.53125 C-10.03125 10.53125 -10.03125 10.53125 -10 8.53125 C-10.01546875 7.54125 -10.01546875 7.54125 -10.03125 6.53125 C-8.65240655 1.34030994 -4.94094259 0.02324368 0 0 Z " fill="#000000" transform="translate(225.5,343.46875)"/>
</svg>
