<?xml version="1.0" encoding="UTF-8"?>
<svg version="1.1" xmlns="http://www.w3.org/2000/svg" width="512" height="512">
<path d="M0 0 C0.66 -0.0103125 1.32 -0.020625 2 -0.03125 C4.96882484 0.7573441 6.09395131 2.10746619 8 4.5 C8.54589844 7.70800781 8.54589844 7.70800781 8.609375 11.453125 C8.62591125 12.11334656 8.64244751 12.77356812 8.65948486 13.45379639 C8.70788451 15.55262626 8.72931519 17.65073222 8.75 19.75 C8.77816683 21.1771196 8.80809528 22.60420559 8.83984375 24.03125 C8.91363763 27.52067609 8.96326279 31.00996472 9 34.5 C9.99 33.84 10.98 33.18 12 32.5 C15.62972232 32.01575407 19.27889646 32.08359381 22.9375 32.0625 C23.93974609 32.02962891 24.94199219 31.99675781 25.97460938 31.96289062 C33.23053531 31.909645 33.23053531 31.909645 36.55078125 34.45703125 C38.44689153 38.43835176 39.40535715 42.31178281 40.25 46.625 C40.42273438 47.43582031 40.59546875 48.24664062 40.7734375 49.08203125 C41.44482591 52.30576129 42 55.19582278 42 58.5 C42.804375 58.5825 43.60875 58.665 44.4375 58.75 C48.28214138 59.55939818 51.28381938 60.96400646 54.75390625 62.7578125 C57.70759423 63.73381375 59.04834139 63.5056536 62 62.5 C64.93960579 60.64211295 67.76384928 58.70791341 70.56445312 56.65039062 C75.23508188 53.43514011 78.33224805 52.83768773 84 53.5 C86.0390625 54.5390625 86.0390625 54.5390625 87.625 56.125 C88.26953125 56.75664062 88.9140625 57.38828125 89.578125 58.0390625 C90.37734375 58.85117188 91.1765625 59.66328125 92 60.5 C93.17967985 61.61474961 94.36221383 62.72648305 95.546875 63.8359375 C96.82431342 65.0558307 98.10034448 66.27719927 99.375 67.5 C100.3043335 68.37132568 100.3043335 68.37132568 101.25244141 69.26025391 C105.09924649 73.03918043 107.16972517 75.98226808 108 81.5 C107.56640625 83.546875 107.56640625 83.546875 106.5625 85.25 C106.18867188 85.91128906 105.81484375 86.57257813 105.4296875 87.25390625 C104.35419193 88.94355094 103.2502845 90.61516259 102.1328125 92.27734375 C101.16988281 93.71787109 101.16988281 93.71787109 100.1875 95.1875 C99.56230469 96.07824219 98.93710937 96.96898437 98.29296875 97.88671875 C96.72128072 101.06333293 96.89683688 102.18530704 98 105.5 C98.98354623 108.09909003 100.068863 110.63989985 101.16015625 113.1953125 C102 115.5 102 115.5 102 118.5 C102.57967529 118.60546143 103.15935059 118.71092285 103.7565918 118.81958008 C106.40224271 119.30692987 109.0447707 119.80955844 111.6875 120.3125 C112.59951172 120.47814453 113.51152344 120.64378906 114.45117188 120.81445312 C124.19172297 122.69172297 124.19172297 122.69172297 128 126.5 C128.12576893 129.04682092 128.18864439 131.56505348 128.203125 134.11328125 C128.20882507 134.87924118 128.21452515 135.64520111 128.22039795 136.43437195 C128.22986293 138.05934258 128.23638786 139.68433253 128.24023438 141.30932617 C128.24991943 143.79184733 128.28091887 146.27353349 128.3125 148.75585938 C128.31903192 150.33332841 128.32428165 151.91080338 128.328125 153.48828125 C128.3404718 154.23008133 128.3528186 154.97188141 128.36553955 155.73616028 C128.35226249 158.82060436 128.18486972 161.13496095 126.78051758 163.90795898 C124.60706634 165.8513397 123.02309898 166.35558327 120.18359375 166.984375 C119.25482422 167.19707031 118.32605469 167.40976562 117.36914062 167.62890625 C116.40169922 167.83386719 115.43425781 168.03882813 114.4375 168.25 C113.46619141 168.47042969 112.49488281 168.69085938 111.49414062 168.91796875 C104.42413141 170.5 104.42413141 170.5 102 170.5 C101.9175 171.304375 101.835 172.10875 101.75 172.9375 C100.94060182 176.78214138 99.53599354 179.78381938 97.7421875 183.25390625 C96.76597585 186.20823098 97.00182858 187.54454463 98 190.5 C99.44601536 192.90261013 100.91104871 195.19774241 102.5 197.5 C107.94734288 205.39274448 107.94734288 205.39274448 108 209.5 C106.13672917 213.84961349 103.97539724 216.8935695 100.62109375 220.20703125 C99.78255859 221.04041016 98.94402344 221.87378906 98.08007812 222.73242188 C97.20802734 223.58384766 96.33597656 224.43527344 95.4375 225.3125 C94.56158203 226.18326172 93.68566406 227.05402344 92.78320312 227.95117188 C85.27567728 235.36622627 85.27567728 235.36622627 80.38671875 235.87890625 C75.19047956 235.81437856 71.92684565 233.37856813 67.8125 230.4375 C63.01384813 226.73799503 63.01384813 226.73799503 57.33203125 225.5625 C56.56246094 225.871875 55.79289062 226.18125 55 226.5 C53.72769531 226.98146484 53.72769531 226.98146484 52.4296875 227.47265625 C50.72121617 228.20149952 49.01288364 228.93066823 47.3046875 229.66015625 C45 230.5 45 230.5 42 230.5 C41.89042969 231.23863281 41.78085937 231.97726562 41.66796875 232.73828125 C38.50754873 252.95983046 38.50754873 252.95983046 34 256.5 C31.6875 256.87231445 31.6875 256.87231445 29 256.86328125 C28.030625 256.86263672 27.06125 256.86199219 26.0625 256.86132812 C24.5465625 256.8371582 24.5465625 256.8371582 23 256.8125 C21.989375 256.81572266 20.97875 256.81894531 19.9375 256.82226562 C12.40071429 256.76714286 12.40071429 256.76714286 9 254.5 C8.98598145 256.00397339 8.98598145 256.00397339 8.97167969 257.53833008 C8.93137712 261.30910371 8.86551415 265.07909544 8.79248047 268.84936523 C8.76450159 270.47165778 8.74317397 272.09408081 8.72900391 273.71655273 C8.59975789 287.6880467 7.06880023 298.95268254 -3 309.5 C-14.53910312 320.51558993 -26.7790052 321.09049303 -41.8828125 321.01757812 C-43.77789852 321.02300641 -45.67298031 321.03013302 -47.5680542 321.03881836 C-52.68791916 321.05697057 -57.80745977 321.05001775 -62.92733002 321.03730202 C-68.30068293 321.02713223 -73.6740092 321.03657871 -79.04736328 321.04284668 C-88.0687353 321.05011152 -97.08997606 321.04056592 -106.11132812 321.02148438 C-116.52186413 320.99971794 -126.93208671 321.00677013 -137.34261513 321.02879 C-146.3017729 321.04697716 -155.26083666 321.04948612 -164.22000694 321.03903532 C-169.56178292 321.03281862 -174.90341186 321.03191444 -180.24517822 321.04518127 C-185.26865465 321.05678748 -190.29172935 321.04862722 -195.31516266 321.02560425 C-197.15208522 321.02034257 -198.98904193 321.02178708 -200.82595062 321.03065491 C-215.00384415 321.09275795 -226.27404452 319.73933368 -237 309.5 C-246.09429671 299.97349909 -248.61059705 289.74143043 -248.51757812 276.84008789 C-248.52809204 275.01852173 -248.52809204 275.01852173 -248.53881836 273.16015625 C-248.55329567 269.86496779 -248.55006376 266.57043371 -248.53730202 263.2752564 C-248.52709609 259.81381681 -248.53658709 256.35241744 -248.54284668 252.89097595 C-248.55009439 247.08861565 -248.5406044 241.28646001 -248.52148438 235.48413086 C-248.49964893 228.78040793 -248.50682636 222.07717043 -248.52879 215.37345892 C-248.54694079 209.60163027 -248.54950614 203.82994765 -248.53903532 198.05809969 C-248.53280775 194.61738296 -248.53194564 191.17689466 -248.54518127 187.7361927 C-248.55888153 183.90865268 -248.53989558 180.08165815 -248.51757812 176.25415039 C-248.52567505 175.11697067 -248.53377197 173.97979095 -248.54211426 172.80815125 C-248.53083496 171.76678009 -248.51955566 170.72540894 -248.50793457 169.65248108 C-248.50642647 168.74866227 -248.50491837 167.84484346 -248.50336456 166.91363621 C-247.84046722 163.73503934 -246.47863441 162.52621003 -244 160.5 C-242 159.96875 -242 159.96875 -240 160 C-239.34 159.9896875 -238.68 159.979375 -238 159.96875 C-234.85623265 160.8038132 -233.92278806 161.82645602 -232 164.5 C-231.38297643 168.14548347 -231.45728974 171.77005066 -231.48583984 175.4597168 C-231.47515221 177.13602928 -231.47515221 177.13602928 -231.46424866 178.84620667 C-231.44492229 182.54738901 -231.45325805 186.24800244 -231.4609375 189.94921875 C-231.45103326 192.52269833 -231.43909306 195.09617081 -231.42520142 197.66963196 C-231.39609032 203.76098905 -231.38324758 209.85216092 -231.37962496 215.94358045 C-231.37259169 227.47873075 -231.33707367 239.0137107 -231.2861824 250.54874611 C-231.27362082 254.3315135 -231.2743539 258.11411238 -231.27645874 261.89689636 C-231.26987465 264.22903572 -231.26286765 266.56117394 -231.25537109 268.89331055 C-231.26155708 270.46237656 -231.26155708 270.46237656 -231.26786804 272.06314087 C-231.21645138 281.44920755 -230.58034662 289.96577195 -223.58203125 296.90625 C-216.7219186 302.97277635 -209.53482018 303.622096 -200.65739441 303.63371277 C-199.93991274 303.63597833 -199.22243106 303.63824388 -198.48320752 303.64057809 C-196.09059506 303.64688383 -193.69803975 303.64609094 -191.30541992 303.64526367 C-189.58516873 303.64825731 -187.86491822 303.65166031 -186.14466858 303.65544128 C-181.47927552 303.66426484 -176.8139008 303.66661871 -172.1485002 303.66725707 C-169.23138155 303.66796853 -166.31426754 303.67010467 -163.39715004 303.67275429 C-153.21357554 303.68200239 -143.03001411 303.68608986 -132.84643555 303.68530273 C-123.36478818 303.68470214 -113.88319774 303.69525173 -104.40156478 303.7110464 C-96.25189865 303.72413683 -88.1022511 303.729486 -79.95257455 303.72884732 C-75.08924979 303.72859277 -70.22597562 303.73142036 -65.36266136 303.74202538 C-60.78669682 303.75173161 -56.210831 303.75176824 -51.6348629 303.74450874 C-49.95996455 303.74346603 -48.28505997 303.74580712 -46.61017227 303.7518692 C-30.85113719 304.15298197 -30.85113719 304.15298197 -17 297.5 C-8.86256164 289.29474965 -8.85053617 280.26056833 -8.86869812 269.32736206 C-8.86658241 268.19799732 -8.86446669 267.06863259 -8.86228687 265.90504467 C-8.85629285 262.11881562 -8.85728658 258.33261995 -8.8581543 254.54638672 C-8.85569417 251.83281289 -8.85167531 249.11924204 -8.84762573 246.40567017 C-8.83952347 240.56171552 -8.83457274 234.71776522 -8.83133507 228.873806 C-8.82583301 219.63925086 -8.80893135 210.40473254 -8.78999329 201.17019653 C-8.78363716 198.00996977 -8.77732869 194.84974292 -8.77101612 191.68951607 C-8.76943236 190.89983286 -8.7678486 190.11014965 -8.76621684 189.29653665 C-8.74829069 180.31341639 -8.73205766 171.33029355 -8.71704102 162.34716797 C-8.71566514 161.52620054 -8.71428927 160.70523312 -8.71287171 159.85938789 C-8.69091917 146.5414289 -8.68017927 133.22347942 -8.67267027 119.90550552 C-8.66460542 106.23210347 -8.64133879 92.55878305 -8.6047166 78.88542759 C-8.58267219 70.45063935 -8.57303281 62.01601885 -8.57921693 53.58120324 C-8.58238624 47.80542747 -8.57109659 42.02979529 -8.54832252 36.25406395 C-8.53562889 32.91975974 -8.53168278 29.58604347 -8.54073906 26.2516861 C-8.54955972 22.64035251 -8.53404291 19.02992988 -8.51225281 15.41867065 C-8.52491661 13.83143419 -8.52491661 13.83143419 -8.53783625 12.21213233 C-8.45848206 5.13692026 -8.45848206 5.13692026 -6.0929842 1.85078621 C-3.83804923 0.39547897 -2.66321463 -0.04161273 0 0 Z M8 44.5 C8 61.66 8 78.82 8 96.5 C13.94 96.83 19.88 97.16 26 97.5 C39.43719755 100.85929939 50.29114845 108.0143001 57.53515625 120.05078125 C63.65597606 131.81060706 65.36509534 145.62174056 62.125 158.6015625 C58.09011484 170.78585388 50.16315906 180.65035115 38.9375 187 C35.01079599 188.78556816 32.16555478 188.88851826 28 187.5 C25.40606144 184.6628797 24.97141708 183.21457298 25.125 179.375 C26.51809959 174.79767278 29.33590435 173.20944626 33.3125 170.8125 C39.57219479 166.69026197 44.16609572 161.07334357 46.52734375 153.890625 C48.55186593 143.65089301 47.36062909 134.32710991 41.75 125.54296875 C37.35817971 119.81613491 30.23239667 114.65929127 23 113.5 C20.60561131 113.4069609 18.20869048 113.3700338 15.8125 113.375 C14.56082031 113.37242187 13.30914062 113.36984375 12.01953125 113.3671875 C9.12072464 113.154158 9.12072464 113.154158 8 114.5 C7.90383193 116.18291696 7.87812309 117.86989561 7.87974548 119.55555725 C7.87837082 120.65077194 7.87699615 121.74598663 7.87557983 122.87438965 C7.87917511 124.08639038 7.88277039 125.29839111 7.88647461 126.54711914 C7.88632858 127.81522934 7.88618256 129.08333954 7.8860321 130.38987732 C7.88574415 133.87732422 7.89164055 137.36473701 7.89860606 140.85217595 C7.90483993 144.49303723 7.90544342 148.13389922 7.90663147 151.77476501 C7.90974469 158.67376972 7.91795795 165.57275865 7.92798096 172.4717564 C7.93914239 180.32410685 7.94465262 188.17645803 7.94967639 196.02881444 C7.96014057 212.18588553 7.97773983 228.34294076 8 244.5 C8.60231445 244.0155542 9.20462891 243.5311084 9.82519531 243.03198242 C12.55053344 241.11219158 14.4480712 241.00904338 17.75 240.8125 C18.73484375 240.74675781 19.7196875 240.68101562 20.734375 240.61328125 C21.85585938 240.55720703 21.85585938 240.55720703 23 240.5 C23.09498779 239.95061768 23.18997559 239.40123535 23.2878418 238.83520508 C23.73403825 236.32352949 24.21043028 233.81848693 24.6875 231.3125 C24.83638672 230.44818359 24.98527344 229.58386719 25.13867188 228.69335938 C26.20852761 223.21821531 27.31893902 219.94816182 32 216.5 C35.19921875 215.09375 35.19921875 215.09375 38.6875 214 C44.03470471 212.23626232 48.83550078 210.21208142 53.71875 207.41796875 C56.82279071 206.16891127 58.65822824 206.03698343 62 206.5 C64.96245377 207.91722326 67.6488822 209.67601521 70.375 211.5 C71.11105469 211.97695313 71.84710938 212.45390625 72.60546875 212.9453125 C74.41156489 214.1181022 76.20689794 215.30743806 78 216.5 C83.53038493 212.00830072 83.53038493 212.00830072 88 206.5 C86.9171875 204.87191406 86.9171875 204.87191406 85.8125 203.2109375 C84.8742862 201.76608825 83.93682558 200.32074974 83 198.875 C82.52304687 198.16214844 82.04609375 197.44929687 81.5546875 196.71484375 C78.86837851 192.53187689 77.09830523 189.6164347 78 184.5 C78.99993319 181.99735823 80.02992388 179.69852973 81.25 177.3125 C86.65397548 167.31413686 86.65397548 167.31413686 89 156.5 C90.25296875 156.22285156 91.5059375 155.94570313 92.796875 155.66015625 C94.44792292 155.29429904 96.09896424 154.92841207 97.75 154.5625 C98.9875 154.28889648 98.9875 154.28889648 100.25 154.00976562 C101.04921875 153.83251953 101.8484375 153.65527344 102.671875 153.47265625 C103.4050293 153.31031494 104.13818359 153.14797363 104.89355469 152.98071289 C106.93552511 152.51471384 108.96806708 152.00798323 111 151.5 C111 146.88 111 142.26 111 137.5 C109.74703125 137.22285156 108.4940625 136.94570313 107.203125 136.66015625 C105.55207708 136.29429904 103.90103576 135.92841207 102.25 135.5625 C101.425 135.38009766 100.6 135.19769531 99.75 135.00976562 C98.95078125 134.83251953 98.1515625 134.65527344 97.328125 134.47265625 C96.22839355 134.22914429 96.22839355 134.22914429 95.10644531 133.98071289 C94.41131836 133.82207764 93.71619141 133.66344238 93 133.5 C92.26869873 133.35336914 91.53739746 133.20673828 90.78393555 133.05566406 C90.19523682 132.87229492 89.60653809 132.68892578 89 132.5 C88.12890625 130.63671875 88.12890625 130.63671875 87.5625 128.1875 C85.63035725 120.8284645 82.78756476 113.82856886 79.1875 107.125 C77.69347308 103.82241418 77.58279614 102.12419517 78 98.5 C79.40812941 95.53340448 81.17622153 92.85080944 83 90.125 C83.47695313 89.38894531 83.95390625 88.65289062 84.4453125 87.89453125 C85.6181022 86.08843511 86.80743806 84.29310206 88 82.5 C83.50830072 76.96961507 83.50830072 76.96961507 78 72.5 C76.37191406 73.5828125 76.37191406 73.5828125 74.7109375 74.6875 C73.26608825 75.6257138 71.82074974 76.56317442 70.375 77.5 C69.66214844 77.97695312 68.94929688 78.45390625 68.21484375 78.9453125 C64.03138456 81.63193766 61.10949309 83.43929404 56 82.5 C53.12774909 81.41611789 50.42034412 80.08157258 47.6875 78.6875 C43.06113949 76.4006454 38.59635891 74.19963843 33.625 72.75 C29.61245929 71.36636527 28.99593675 71.08273411 27 67.5 C26.07186202 64.28652709 25.435908 61.03441415 24.8125 57.75 C24.63525391 56.86183594 24.45800781 55.97367188 24.27539062 55.05859375 C23.84083471 52.87406943 23.41607088 50.68810691 23 48.5 C21.87851562 48.44392578 21.87851562 48.44392578 20.734375 48.38671875 C19.25710938 48.28810547 19.25710938 48.28810547 17.75 48.1875 C16.77546875 48.12949219 15.8009375 48.07148438 14.796875 48.01171875 C12 47.5 12 47.5 8 44.5 Z " fill="#000000" transform="translate(360,175.5)"/>
<path d="M0 0 C23.66234029 18.59998072 39.34054315 44.63448351 43.28955078 74.69042969 C43.60743422 79.547814 43.67135421 84.38600194 43.66455078 89.25292969 C43.66400696 89.9120636 43.66346313 90.57119751 43.66290283 91.25030518 C43.62136172 102.23144782 42.67449866 112.24706689 39.28955078 122.69042969 C39.07524414 123.37202148 38.8609375 124.05361328 38.64013672 124.75585938 C34.05753137 138.98394847 27.10241502 151.37655371 17.28955078 162.69042969 C16.62568359 163.49867188 15.96181641 164.30691406 15.27783203 165.13964844 C1.12033168 181.80938545 -17.92303446 192.56747983 -38.71044922 198.69042969 C-39.81646484 199.03074219 -40.92248047 199.37105469 -42.06201172 199.72167969 C-60.85696274 204.47543779 -83.27986116 203.66423154 -101.71044922 197.69042969 C-102.39204102 197.47612305 -103.07363281 197.26181641 -103.77587891 197.04101562 C-118.003968 192.45841028 -130.39657324 185.50329393 -141.71044922 175.69042969 C-142.51869141 175.0265625 -143.32693359 174.36269531 -144.15966797 173.67871094 C-160.82940498 159.52121059 -171.58749936 140.47784444 -177.71044922 119.69042969 C-178.05076172 118.58441406 -178.39107422 117.47839844 -178.74169922 116.33886719 C-185.78551602 88.48970262 -180.69576603 57.57861595 -166.57763672 32.84277344 C-150.76554247 6.58926916 -127.15115849 -10.6193679 -98.06591797 -19.48535156 C-63.85293083 -27.88924014 -28.03931841 -21.46772822 0 0 Z M-132.71044922 18.69042969 C-133.58314453 19.49480469 -134.45583984 20.29917969 -135.35498047 21.12792969 C-151.71633579 36.82698127 -163.45889355 59.36339122 -163.94873047 82.36621094 C-164.38535354 108.53593607 -158.64346915 129.44640311 -142.71044922 150.69042969 C-139.92807102 147.25474543 -139.92807102 147.25474543 -137.34326172 143.67089844 C-129.1694974 132.06089986 -117.30762118 125.84362903 -103.71044922 122.69042969 C-98.25492655 122.04724829 -92.87093719 122.0058935 -87.39013672 122.06152344 C-85.87329946 122.06069127 -84.35646233 122.05821888 -82.83963013 122.05421448 C-79.68805219 122.05138372 -76.53719566 122.06578935 -73.38574219 122.09350586 C-69.3839464 122.12764392 -65.38343254 122.12152498 -61.38157463 122.10284328 C-58.25844984 122.09218396 -55.13561406 122.10129017 -52.01251602 122.1162281 C-50.53841134 122.12134123 -49.06427559 122.12101362 -47.59017563 122.11468315 C-33.03030568 122.07558944 -21.55717603 125.1137911 -9.71044922 133.69042969 C-8.63794922 134.45355469 -7.56544922 135.21667969 -6.46044922 136.00292969 C-3.18706249 139.20192126 -0.75651969 142.68203103 1.77392578 146.48339844 C3.24088407 148.76350061 3.24088407 148.76350061 5.28955078 150.69042969 C22.52283237 127.80247757 29.3549968 102.65683897 25.97314453 74.01025391 C21.86679277 49.65619924 7.53793332 26.64540348 -12.39794922 12.06542969 C-49.73201847 -12.59133879 -98.90318488 -12.72856637 -132.71044922 18.69042969 Z M-120.64794922 149.06542969 C-123.76387906 152.51821681 -126.98698418 156.3368852 -128.71044922 160.69042969 C-128.56181465 163.54751635 -127.96330115 164.45825119 -125.84716797 166.40136719 C-103.14656476 181.82474353 -77.10763626 188.16099792 -49.93725586 183.10302734 C-34.76819117 179.98506791 -20.51315267 173.76445435 -8.71044922 163.69042969 C-9.76178531 156.02106772 -15.74788395 149.78845987 -21.63623047 145.03808594 C-32.35477196 138.07406181 -43.29314232 137.53671835 -55.66748047 137.52246094 C-56.69169601 137.51913254 -57.71591156 137.51580414 -58.77116394 137.51237488 C-60.9267838 137.50733879 -63.08241137 137.50496552 -65.23803711 137.50512695 C-68.50306283 137.50294299 -71.76774882 137.48475835 -75.03271484 137.46582031 C-99.67180075 137.21978435 -99.67180075 137.21978435 -120.64794922 149.06542969 Z " fill="#000000" transform="translate(212.71044921875,118.3095703125)"/>
<path d="M0 0 C1.07721313 -0.00671722 2.15442627 -0.01343445 3.26428223 -0.02035522 C6.81978998 -0.03932771 10.37510885 -0.04325924 13.93066406 -0.04541016 C16.40920082 -0.05183915 18.88773681 -0.05856759 21.36627197 -0.06558228 C26.5612565 -0.07755358 31.75617453 -0.0812633 36.95117188 -0.08007812 C43.59325039 -0.07987508 50.23488956 -0.10716377 56.87688828 -0.14162254 C61.99686626 -0.163911 67.11674148 -0.16791504 72.236763 -0.16685867 C74.68466924 -0.1692122 77.13257842 -0.17802163 79.58043671 -0.19352341 C83.01225879 -0.21321956 86.44316166 -0.20732999 89.875 -0.1953125 C90.87690369 -0.20655151 91.87880737 -0.21779053 92.91107178 -0.22937012 C101.98672095 -0.14901281 109.93854196 2.30510788 116.66503906 8.58740234 C124.05870197 16.81096619 125.77818973 25.52498369 125.50878906 36.30224609 C125.03446271 44.68794065 121.42159383 51.69346434 115.19628906 57.29052734 C107.26395987 63.2556389 100.14095745 64.58980349 90.37670898 64.58105469 C89.29788956 64.58777191 88.21907013 64.59448914 87.1075592 64.60140991 C83.54724499 64.62038089 79.9871194 64.62431372 76.42675781 64.62646484 C73.94582543 64.63289346 71.46489381 64.63962187 68.98396301 64.64663696 C63.78478234 64.65860754 58.58566809 64.66231801 53.38647461 64.66113281 C46.73528366 64.66092966 40.08466985 64.68822944 33.43355846 64.72267723 C28.30933183 64.74495146 23.18520797 64.74897018 18.06093788 64.74791336 C15.60941406 64.75026859 13.15788737 64.75908767 10.70641136 64.77457809 C7.27199026 64.79424737 3.83848973 64.7883954 0.40405273 64.77636719 C-0.60144623 64.7876062 -1.60694519 64.79884521 -2.64291382 64.8104248 C-12.46776645 64.72330752 -20.6729517 61.07876103 -27.80371094 54.29052734 C-34.88357023 45.30593433 -35.9323253 35.36505582 -34.80371094 24.29052734 C-32.85133005 15.71558175 -28.10581222 9.27177322 -20.80371094 4.47802734 C-14.03307718 0.34511965 -7.73229033 -0.00693894 0 0 Z M-14.80371094 22.35302734 C-18.23086913 27.38666595 -18.46139754 31.26945286 -17.80371094 37.29052734 C-15.45578436 42.16699024 -12.5161024 44.69390348 -7.80371094 47.29052734 C-3.12306925 48.60876101 1.61083478 48.44543159 6.43359375 48.45166016 C7.35621002 48.45662506 8.27882629 48.46158997 9.22940063 48.46670532 C12.27566276 48.48128619 15.3218728 48.48812239 18.36816406 48.49365234 C20.49180095 48.49940743 22.61543783 48.50516512 24.73907471 48.51092529 C29.19096111 48.52142388 33.64282952 48.52727393 38.09472656 48.53076172 C43.78513279 48.53624205 49.47529922 48.56026521 55.16563034 48.58873367 C59.55296513 48.60740446 63.94024268 48.61256804 68.32761383 48.6140976 C70.42466797 48.61711494 72.52172132 48.62511229 74.61873627 48.63828278 C77.55980914 48.65543504 80.50030295 48.65344054 83.44140625 48.64697266 C84.72759354 48.66079483 84.72759354 48.66079483 86.0397644 48.67489624 C92.15170319 48.63302379 99.07047639 48.07518185 103.8261528 43.83855057 C107.87101558 39.08402679 108.5523085 35.89635991 108.47363281 29.82958984 C108.06252462 26.06592332 106.71342546 24.07262547 104.19628906 21.29052734 C97.6659816 16.149647 91.9208458 16.13967722 83.95898438 16.12939453 C83.0363681 16.12442963 82.11375183 16.11946472 81.16317749 16.11434937 C78.11691536 16.0997685 75.07070533 16.09293229 72.02441406 16.08740234 C69.90077717 16.08164726 67.77714029 16.07588957 65.65350342 16.07012939 C61.20161701 16.0596308 56.7497486 16.05378075 52.29785156 16.05029297 C46.60744533 16.04481264 40.9172789 16.02078948 35.22694778 15.99232101 C30.839613 15.97365023 26.45233545 15.96848665 22.06496429 15.96695709 C19.96791016 15.96393975 17.87085681 15.9559424 15.77384186 15.94277191 C12.83276898 15.92561965 9.89227518 15.92761415 6.95117188 15.93408203 C6.09371368 15.92486725 5.23625549 15.91565247 4.35281372 15.90615845 C-2.65236953 15.95415045 -10.03181731 16.74391697 -14.80371094 22.35302734 Z " fill="#000000" transform="translate(322.8037109375,95.70947265625)"/>
<path d="M0 0 C1.89508602 -0.00542829 3.79016781 -0.01255489 5.6852417 -0.02124023 C10.80510666 -0.03939244 15.92464727 -0.03243963 21.04451752 -0.01972389 C26.41787043 -0.0095541 31.7911967 -0.01900058 37.16455078 -0.02526855 C46.1859228 -0.0325334 55.20716356 -0.0229878 64.22851562 -0.00390625 C74.63905163 0.01786019 85.04927421 0.010808 95.45980263 -0.01121187 C104.4189604 -0.02939903 113.37802416 -0.03190799 122.33719444 -0.0214572 C127.67897042 -0.01524049 133.02059936 -0.01433631 138.36236572 -0.02760315 C143.38584215 -0.03920935 148.40891685 -0.03104909 153.43235016 -0.00802612 C155.26927272 -0.00276444 157.10622943 -0.00420895 158.94313812 -0.01307678 C173.12103165 -0.07517983 184.39123202 1.27824445 195.1171875 11.51757812 C204.91447258 21.78047675 206.78533372 32.61804534 206.6171875 46.45507812 C206.63265625 47.75509766 206.648125 49.05511719 206.6640625 50.39453125 C206.65890625 51.64041016 206.65375 52.88628906 206.6484375 54.16992188 C206.64392578 55.29390381 206.63941406 56.41788574 206.63476562 57.57592773 C206.00778412 61.13937121 204.93082746 62.3163843 202.1171875 64.51757812 C200.1171875 65.04882812 200.1171875 65.04882812 198.1171875 65.01757812 C197.1271875 65.03304687 197.1271875 65.03304687 196.1171875 65.04882812 C192.99698404 64.22002408 191.97048836 63.18422718 190.1171875 60.51757812 C189.52836001 57.29432115 189.51135471 54.10048261 189.4921875 50.83007812 C189.34357637 40.91028553 189.163816 31.51423449 181.69921875 24.11132812 C174.8391061 18.04480178 167.65200768 17.39548213 158.77458191 17.38386536 C158.05710024 17.3815998 157.33961856 17.37933424 156.60039502 17.37700003 C154.20778256 17.37069429 151.81522725 17.37148719 149.42260742 17.37231445 C147.70235623 17.36932082 145.98210572 17.36591781 144.26185608 17.36213684 C139.59646302 17.35331328 134.9310883 17.35095941 130.2656877 17.35032105 C127.34856905 17.3496096 124.43145504 17.34747346 121.51433754 17.34482384 C111.33076304 17.33557573 101.14720161 17.33148827 90.96362305 17.33227539 C81.48197568 17.33287598 72.00038524 17.32232639 62.51875228 17.30653173 C54.36908615 17.29344129 46.2194386 17.28809213 38.06976205 17.2887308 C33.20643729 17.28898535 28.34316312 17.28615776 23.47984886 17.27555275 C18.90388432 17.26584652 14.3280185 17.26580988 9.7520504 17.27306938 C8.07715205 17.2741121 6.40224747 17.271771 4.72735977 17.26570892 C-11.03167531 16.86459616 -11.03167531 16.86459616 -24.8828125 23.51757812 C-31.24371902 29.9314922 -32.82473202 36.51259759 -33.05859375 45.33789062 C-33.08244141 46.20285156 -33.10628906 47.0678125 -33.13085938 47.95898438 C-33.17400984 49.75561299 -33.20516087 51.55256789 -33.22460938 53.34960938 C-33.4341754 59.87052418 -33.4341754 59.87052418 -35.67578125 63.10351562 C-37.99549368 64.58977385 -39.15635687 65.06017899 -41.8828125 65.01757812 C-42.5428125 65.02789062 -43.2028125 65.03820312 -43.8828125 65.04882812 C-46.8304666 64.2658575 -47.97839797 62.87641091 -49.8828125 60.51757812 C-50.40039062 57.57592773 -50.40039062 57.57592773 -50.4140625 54.16992188 C-50.41921875 52.92404297 -50.424375 51.67816406 -50.4296875 50.39453125 C-50.41421875 49.09451172 -50.39875 47.79449219 -50.3828125 46.45507812 C-50.39828125 45.18212891 -50.41375 43.90917969 -50.4296875 42.59765625 C-50.37877921 30.20784998 -47.53134089 20.57712569 -38.8828125 11.51757812 C-27.34370938 0.50198819 -15.1038073 -0.0729149 0 0 Z " fill="#000000" transform="translate(161.8828125,15.482421875)"/>
<path d="M0 0 C8.80288754 6.34043826 15.4186507 14.72648904 17.58203125 25.4921875 C18.92007691 37.90936834 17.85729499 48.88109459 10.39453125 59.2421875 C3.58210875 67.3274193 -4.72289951 73.55522767 -15.48876953 74.71533203 C-28.40007937 75.61089799 -39.16843729 74.04490094 -49.3515625 65.46484375 C-57.86959925 57.33325857 -62.42046403 48.68416257 -62.88867188 36.85693359 C-63.04371176 24.34263074 -60.22647828 14.71931927 -51.41796875 5.4921875 C-37.63784493 -7.66275112 -16.31305228 -10.17259803 0 0 Z M-42.19140625 21.6484375 C-46.12351302 27.55912028 -46.11660152 33.61334174 -45.41796875 40.4921875 C-43.64454442 47.13691664 -38.97130405 51.66586709 -33.41796875 55.4921875 C-27.41909871 58.43281007 -20.53513345 58.59102538 -14.10546875 56.875 C-7.97664014 54.16969675 -3.17844083 49.08355055 -0.24609375 43.1015625 C1.66008982 37.09528598 1.64641812 29.98927192 -0.91796875 24.1796875 C-4.39834133 18.24695275 -9.85358805 13.56055006 -16.41796875 11.4921875 C-28.14191837 10.06609888 -34.72539236 12.80600765 -42.19140625 21.6484375 Z " fill="#000000" transform="translate(166.41796875,149.5078125)"/>
<path d="M0 0 C1.27866943 -0.0112793 2.55733887 -0.02255859 3.87475586 -0.03417969 C5.28955305 -0.02640266 6.704348 -0.01821 8.11914062 -0.00964355 C9.61076542 -0.01506435 11.10238485 -0.02218677 12.59399414 -0.03088379 C16.6436169 -0.04912547 20.69283223 -0.04204633 24.74246216 -0.02936745 C28.97936099 -0.01924407 33.21622481 -0.02863128 37.453125 -0.03491211 C44.56842312 -0.04219046 51.68355521 -0.03259594 58.79882812 -0.0135498 C67.02641862 0.00821938 75.25361265 0.00116814 83.48119354 -0.02085543 C90.54373317 -0.03900413 97.6061534 -0.04157037 104.6687088 -0.03110075 C108.88752237 -0.02486287 113.10614956 -0.02403817 117.32495117 -0.0372467 C121.29119435 -0.04879699 125.25692611 -0.04079505 129.22311401 -0.01766968 C130.6791804 -0.01237811 132.1352898 -0.01390409 133.59133911 -0.02272034 C135.57780425 -0.03363977 137.56436338 -0.01752243 139.55078125 0 C141.21880798 0.00226215 141.21880798 0.00226215 142.92053223 0.00457001 C146.42748135 0.62291028 147.6037293 1.74310328 149.77539062 4.50793457 C150.30664062 6.50793457 150.30664062 6.50793457 150.27539062 8.50793457 C150.29085937 9.49793457 150.29085937 9.49793457 150.30664062 10.50793457 C149.52474835 13.45152901 148.12782438 14.6039415 145.77539062 16.50793457 C142.92053223 17.01129913 142.92053223 17.01129913 139.55078125 17.01586914 C138.27211182 17.02714844 136.99344238 17.03842773 135.67602539 17.05004883 C134.2612282 17.0422718 132.84643325 17.03407914 131.43164062 17.0255127 C129.94001583 17.03093349 128.4483964 17.03805591 126.95678711 17.04675293 C122.90716435 17.06499461 118.85794902 17.05791547 114.80831909 17.04523659 C110.57142026 17.03511321 106.33455644 17.04450042 102.09765625 17.05078125 C94.98235813 17.0580596 87.86722604 17.04846509 80.75195312 17.02941895 C72.52436263 17.00764976 64.2971686 17.014701 56.06958771 17.03672457 C49.00704808 17.05487327 41.94462785 17.05743951 34.88207245 17.04696989 C30.66325888 17.04073201 26.44463169 17.03990731 22.22583008 17.05311584 C18.2595869 17.06466613 14.29385514 17.05666419 10.32766724 17.03353882 C8.87160085 17.02824725 7.41549145 17.02977323 5.95944214 17.03858948 C3.972977 17.04950891 1.98641787 17.03339157 0 17.01586914 C-1.66802673 17.01360699 -1.66802673 17.01360699 -3.36975098 17.01129913 C-6.8767001 16.39295886 -8.05294805 15.27276586 -10.22460938 12.50793457 C-10.75585938 10.50793457 -10.75585938 10.50793457 -10.72460938 8.50793457 C-10.74007812 7.51793457 -10.74007812 7.51793457 -10.75585938 6.50793457 C-9.2677065 0.9054767 -5.22342768 0.00708394 0 0 Z " fill="#000000" transform="translate(170.224609375,351.4920654296875)"/>
<path d="M0 0 C1.0094165 -0.0112793 2.01883301 -0.02255859 3.05883789 -0.03417969 C4.16026123 -0.02608276 5.26168457 -0.01798584 6.39648438 -0.00964355 C7.56107178 -0.01665283 8.72565918 -0.02366211 9.92553711 -0.03088379 C13.78067771 -0.04850975 17.63508612 -0.03682384 21.49023438 -0.02331543 C24.1653739 -0.026009 26.84049107 -0.02988396 29.515625 -0.03491211 C35.12442987 -0.0421874 40.733024 -0.03260414 46.34179688 -0.0135498 C52.82441344 0.008219 59.30652679 0.00116752 65.78913116 -0.02085543 C71.35700027 -0.03901302 76.92471797 -0.04156609 82.49260712 -0.03110075 C85.81719107 -0.02486765 89.14148689 -0.02559741 92.46606445 -0.0372467 C96.17238595 -0.04738291 99.87773545 -0.03195028 103.58398438 -0.00964355 C104.68540771 -0.01774048 105.78683105 -0.0258374 106.92163086 -0.03417969 C108.43575562 -0.01726074 108.43575562 -0.01726074 109.98046875 0 C110.85650757 0.0015081 111.73254639 0.0030162 112.63513184 0.00457001 C115.76922829 0.67443175 116.98468568 2.06729702 118.99023438 4.50793457 C119.52148438 6.50793457 119.52148438 6.50793457 119.49023438 8.50793457 C119.50570312 9.49793457 119.50570312 9.49793457 119.52148438 10.50793457 C118.75060311 13.41007581 117.27232168 14.5993654 114.99023438 16.50793457 C112.63513184 17.01129913 112.63513184 17.01129913 109.98046875 17.01586914 C108.97105225 17.02714844 107.96163574 17.03842773 106.92163086 17.05004883 C105.82020752 17.0419519 104.71878418 17.03385498 103.58398438 17.0255127 C102.41939697 17.03252197 101.25480957 17.03953125 100.05493164 17.04675293 C96.19979104 17.06437889 92.34538263 17.05269298 88.49023438 17.03918457 C85.81509485 17.04187814 83.13997768 17.0457531 80.46484375 17.05078125 C74.85603888 17.05805654 69.24744475 17.04847328 63.63867188 17.02941895 C57.15605531 17.00765014 50.67394196 17.01470162 44.19133759 17.03672457 C38.62346848 17.05488216 33.05575078 17.05743523 27.48786163 17.04696989 C24.16327768 17.04073679 20.83898186 17.04146655 17.5144043 17.05311584 C13.8080828 17.06325205 10.1027333 17.04781942 6.39648438 17.0255127 C5.29506104 17.03360962 4.1936377 17.04170654 3.05883789 17.05004883 C1.54471313 17.03312988 1.54471313 17.03312988 0 17.01586914 C-0.87603882 17.01436104 -1.75207764 17.01285294 -2.65466309 17.01129913 C-5.78875954 16.34143739 -7.00421693 14.94857212 -9.00976562 12.50793457 C-9.54101562 10.50793457 -9.54101562 10.50793457 -9.50976562 8.50793457 C-9.52523437 7.51793457 -9.52523437 7.51793457 -9.54101562 6.50793457 C-8.23625145 1.59588121 -4.74608273 0.00817039 0 0 Z " fill="#000000" transform="translate(169.009765625,415.4920654296875)"/>
<path d="M0 0 C0.69641602 -0.00700928 1.39283203 -0.01401855 2.11035156 -0.02124023 C4.40730932 -0.03881383 6.70303021 -0.02720107 9 -0.01367188 C10.59896073 -0.01636701 12.19791987 -0.0202496 13.796875 -0.02526855 C17.14599226 -0.03116269 20.49468243 -0.0226038 23.84375 -0.00390625 C28.13478591 0.01888377 32.42482111 0.00576017 36.71582031 -0.01819611 C40.01700366 -0.03265667 43.31795011 -0.02804703 46.61914062 -0.01768494 C48.20117308 -0.01501834 49.78322711 -0.0182851 51.36523438 -0.02760315 C53.57740163 -0.03777366 55.787953 -0.02226378 58 0 C59.8871875 0.00477356 59.8871875 0.00477356 61.8125 0.00964355 C65.55520109 0.60605054 66.73159929 1.54273163 69 4.51757812 C69.53125 6.51757812 69.53125 6.51757812 69.5 8.51757812 C69.51546875 9.50757813 69.51546875 9.50757813 69.53125 10.51757812 C68.74176632 13.48975197 67.39936627 14.61414098 65 16.51757812 C61.8125 17.0255127 61.8125 17.0255127 58 17.03515625 C57.30358398 17.04216553 56.60716797 17.0491748 55.88964844 17.05639648 C53.59269068 17.07397008 51.29696979 17.06235732 49 17.04882812 C47.40103927 17.05152326 45.80208013 17.05540585 44.203125 17.0604248 C40.85400774 17.06631894 37.50531757 17.05776005 34.15625 17.0390625 C29.86521409 17.01627248 25.57517889 17.02939608 21.28417969 17.05335236 C17.98299634 17.06781292 14.68204989 17.06320328 11.38085938 17.05284119 C9.79882692 17.05017459 8.21677289 17.05344135 6.63476562 17.0627594 C4.42259837 17.07292991 2.212047 17.05742003 0 17.03515625 C-1.258125 17.03197388 -2.51625 17.0287915 -3.8125 17.0255127 C-7.55520109 16.42910571 -8.73159929 15.49242462 -11 12.51757812 C-11.53125 10.51757812 -11.53125 10.51757812 -11.5 8.51757812 C-11.51546875 7.52757812 -11.51546875 7.52757812 -11.53125 6.51757812 C-9.93997703 0.52690342 -5.4948528 0.01389899 0 0 Z " fill="#000000" transform="translate(171,383.482421875)"/>
<path d="M0 0 C1.10794922 -0.01260864 2.21589844 -0.02521729 3.35742188 -0.03820801 C4.54916016 -0.03011108 5.74089844 -0.02201416 6.96875 -0.01367188 C8.19658203 -0.01749878 9.42441406 -0.02132568 10.68945312 -0.02526855 C13.28516459 -0.02799029 15.88090336 -0.02061099 18.4765625 -0.00390625 C22.45374599 0.01749738 26.42912282 -0.0037015 30.40625 -0.02929688 C32.92708733 -0.02665365 35.44792353 -0.02152878 37.96875 -0.01367188 C39.16048828 -0.0217688 40.35222656 -0.02986572 41.58007812 -0.03820801 C43.24200195 -0.01929504 43.24200195 -0.01929504 44.9375 0 C45.91138672 0.00318237 46.88527344 0.00636475 47.88867188 0.00964355 C51.19021681 0.65961178 52.38452655 1.93295409 54.46875 4.51757812 C55 6.51757812 55 6.51757812 54.96875 8.51757812 C54.98421875 9.50757813 54.98421875 9.50757813 55 10.51757812 C54.2245785 13.43681202 52.78007479 14.6111988 50.46875 16.51757812 C47.88867188 17.0255127 47.88867188 17.0255127 44.9375 17.03515625 C43.82955078 17.04776489 42.72160156 17.06037354 41.58007812 17.07336426 C40.38833984 17.06526733 39.19660156 17.05717041 37.96875 17.04882812 C36.12700195 17.05456848 36.12700195 17.05456848 34.24804688 17.0604248 C31.65233541 17.06314654 29.05659664 17.05576724 26.4609375 17.0390625 C22.48375401 17.01765887 18.50837718 17.03885775 14.53125 17.06445312 C12.01041267 17.0618099 9.48957647 17.05668503 6.96875 17.04882812 C5.77701172 17.05692505 4.58527344 17.06502197 3.35742188 17.07336426 C1.69549805 17.05445129 1.69549805 17.05445129 0 17.03515625 C-0.97388672 17.03197388 -1.94777344 17.0287915 -2.95117188 17.0255127 C-6.25271681 16.37554447 -7.44702655 15.10220216 -9.53125 12.51757812 C-10.0625 10.51757812 -10.0625 10.51757812 -10.03125 8.51757812 C-10.04671875 7.52757812 -10.04671875 7.52757812 -10.0625 6.51757812 C-8.67664018 1.3002235 -4.95665502 0.01619688 0 0 Z " fill="#000000" transform="translate(217.53125,47.482421875)"/>
<path d="M0 0 C2.875 1.4375 2.875 1.4375 5 4 C5.91181761 8.32122258 5.80084338 11.76793326 3.375 15.5 C0.43125008 17.35921047 -1.51270927 17.9288308 -5 18 C-7.32731556 16.86220128 -9.16840714 15.83159286 -11 14 C-11.4311661 10.6184259 -11.47253855 7.3775767 -11 4 C-7.81276081 0.06282218 -4.96287606 -0.82714601 0 0 Z " fill="#000000" transform="translate(75,414)"/>
<path d="M0 0 C2.875 1.4375 2.875 1.4375 5 4 C5.91181761 8.32122258 5.80084338 11.76793326 3.375 15.5 C0.43125008 17.35921047 -1.51270927 17.9288308 -5 18 C-7.32731556 16.86220128 -9.16840714 15.83159286 -11 14 C-11.4311661 10.6184259 -11.47253855 7.3775767 -11 4 C-7.81276081 0.06282218 -4.96287606 -0.82714601 0 0 Z " fill="#000000" transform="translate(75,382)"/>
<path d="M0 0 C2.875 1.4375 2.875 1.4375 5 4 C5.91181761 8.32122258 5.80084338 11.76793326 3.375 15.5 C0.43125008 17.35921047 -1.51270927 17.9288308 -5 18 C-7.32731556 16.86220128 -9.16840714 15.83159286 -11 14 C-11.4311661 10.6184259 -11.47253855 7.3775767 -11 4 C-7.81276081 0.06282218 -4.96287606 -0.82714601 0 0 Z " fill="#000000" transform="translate(75,350)"/>
</svg>
