<svg width="80" height="80" viewBox="0 0 80 80" fill="none" xmlns="http://www.w3.org/2000/svg">
<path d="M44.0855 1.16919C44.4062 1.16835 44.7269 1.16723 45.0477 1.16588C45.9148 1.16304 46.7819 1.16413 47.649 1.16611C48.5587 1.1677 49.4683 1.16623 50.378 1.16525C51.9052 1.16411 53.4325 1.1656 54.9598 1.16858C56.7228 1.17199 58.4857 1.17088 60.2487 1.16744C61.7653 1.1646 63.2819 1.16421 64.7986 1.16584C65.7031 1.16681 66.6076 1.16695 67.5121 1.16488C68.3627 1.16307 69.2132 1.16434 70.0638 1.16794C70.375 1.16876 70.6862 1.16854 70.9974 1.16715C73.2854 1.15792 75.1079 1.31237 76.843 2.96882C78.3982 4.59792 78.6555 6.31166 78.6411 8.49874C78.6419 8.73909 78.6429 8.97944 78.6441 9.21978C78.6467 9.87622 78.6454 10.5326 78.6435 11.189C78.6421 11.8985 78.6442 12.608 78.646 13.3174C78.6487 14.7056 78.6481 16.0937 78.6463 17.4818C78.6449 18.6099 78.6447 19.7381 78.6454 20.8663C78.6455 21.027 78.6456 21.1877 78.6457 21.3533C78.6459 21.6799 78.6461 22.0064 78.6463 22.3329C78.6481 25.3924 78.646 28.4518 78.6427 31.5113C78.6399 34.136 78.6404 36.7606 78.6433 39.3853C78.6466 42.4347 78.6479 45.4841 78.646 48.5336C78.6458 48.8587 78.6456 49.1839 78.6454 49.5091C78.6453 49.749 78.6453 49.749 78.6451 49.9939C78.6446 51.1208 78.6455 52.2477 78.647 53.3747C78.6487 54.7478 78.6482 56.1209 78.6449 57.4941C78.6433 58.1946 78.6426 58.895 78.6447 59.5955C78.6466 60.2369 78.6455 60.8782 78.6422 61.5196C78.6415 61.7515 78.6419 61.9833 78.6434 62.2151C78.6525 63.7316 78.5826 64.7422 77.5462 65.9083C77.0573 66.3361 76.6475 66.6663 76.052 66.9337C75.5201 67.2279 75.3532 67.4093 75.1243 67.9688C75.0723 68.5402 75.084 68.9519 75.2805 69.4922C75.626 70.6149 75.5619 71.7326 75.0297 72.782C74.2799 73.9623 73.3035 74.9138 72.0383 75.5176C70.9799 75.7415 70.0136 75.7229 68.9915 75.3614C68.4646 75.1838 68.1576 75.116 67.634 75.3223C67.0032 75.7215 66.7846 76.041 66.4719 76.709C65.9546 77.684 65.0779 78.4009 64.0305 78.7501C63.4747 78.7941 62.918 78.7934 62.3606 78.7989C62.2092 78.8034 62.0579 78.808 61.9019 78.8126C60.6566 78.8236 59.8367 78.5639 58.9036 77.7344C58.4758 77.2455 58.1455 76.8357 57.8782 76.2403C57.5448 75.6377 57.1843 75.4315 56.5452 75.2088C56.1449 75.1446 55.9544 75.2248 55.5833 75.3809C54.5054 75.7632 53.433 75.8091 52.3606 75.3809C51.8576 75.1263 51.5183 74.8418 51.1287 74.4377C50.357 73.7544 49.6902 73.7543 48.6915 73.7731C48.5189 73.7719 48.3462 73.7708 48.1683 73.7696C47.5913 73.7672 47.0146 73.7725 46.4376 73.7777C46.0233 73.7775 45.609 73.7769 45.1947 73.7757C44.3031 73.7739 43.4116 73.7761 42.52 73.7808C41.229 73.7877 39.938 73.7879 38.6469 73.7864C36.5494 73.784 34.4518 73.7861 32.3543 73.7914C32.2288 73.7917 32.1034 73.792 31.9742 73.7923C31.7203 73.793 31.4665 73.7936 31.2126 73.7943C31.0868 73.7946 30.9609 73.7949 30.8313 73.7952C30.7053 73.7955 30.5794 73.7958 30.4497 73.7962C29.0521 73.7996 27.6546 73.802 26.257 73.8039C26.1319 73.8041 26.0068 73.8042 25.878 73.8044C23.7888 73.8072 21.6996 73.8075 19.6105 73.8064C18.3235 73.8059 17.0365 73.8078 15.7495 73.813C14.8668 73.8165 13.9841 73.8178 13.1015 73.8174C12.593 73.8173 12.0846 73.8186 11.5761 73.8219C11.0232 73.8254 10.4705 73.8251 9.91763 73.8238C9.75919 73.8258 9.60074 73.8277 9.4375 73.8297C7.3647 73.8144 5.20177 72.9451 3.66859 71.5333C1.66187 69.3729 0.945604 67.0451 1.00319 64.1578C1.09026 62.3131 1.77338 60.8065 2.93678 59.3751C3.03467 59.2449 3.13256 59.1148 3.23341 58.9808C4.43385 57.5661 6.30564 56.6555 8.09303 56.2501C8.67968 56.2106 9.26313 56.2134 9.85084 56.2208C10.0835 56.2209 10.0835 56.2209 10.3208 56.2211C11.4645 56.228 11.4645 56.228 11.9993 56.4063C12.0386 56.2728 12.0778 56.1392 12.1183 56.0017C13.1488 53.1636 15.618 51.051 18.259 49.7675C19.672 49.1439 21.0371 48.7429 22.5852 48.7501C23.1835 48.7132 23.4589 48.6922 23.8963 48.274C24.0975 47.9815 24.2909 47.6835 24.4779 47.3817C26.5343 44.2614 30.318 42.2531 33.8804 41.4564C34.6223 41.3104 35.3049 41.2451 36.0618 41.2501C36.0612 41.0705 36.0606 40.8909 36.06 40.7058C36.0465 36.4378 36.0362 32.1698 36.0299 27.9017C36.0291 27.3759 36.0283 26.85 36.0275 26.3241C36.0273 26.2194 36.0271 26.1147 36.027 26.0069C36.0242 24.3141 36.0193 22.6213 36.0136 20.9286C36.0077 19.1903 36.0043 17.452 36.003 15.7137C36.0022 14.7379 36.0003 13.7621 35.9957 12.7863C35.9914 11.8672 35.9902 10.9481 35.9911 10.0289C35.9909 9.69224 35.9897 9.35558 35.9873 9.01893C35.9712 6.65417 36.0647 4.76619 37.7805 2.96882C39.6479 1.18612 41.6456 1.15834 44.0855 1.16919ZM39.4602 5.22468C38.5656 6.3225 38.5382 7.53235 38.543 8.89408C38.5429 9.03271 38.5427 9.17133 38.5426 9.31415C38.5423 9.77765 38.5432 10.2411 38.544 10.7046C38.5441 11.0373 38.5441 11.3699 38.544 11.7026C38.5439 12.6051 38.5448 13.5077 38.5459 14.4102C38.5469 15.3536 38.547 16.2971 38.5472 17.2405C38.5477 19.0267 38.549 20.813 38.5505 22.5992C38.5523 24.6329 38.5531 26.6666 38.5539 28.7003C38.5556 32.8836 38.5583 37.0668 38.5618 41.2501C39.3868 41.3532 40.2118 41.4563 41.0618 41.5626C41.0621 41.303 41.0621 41.303 41.0625 41.0381C41.0682 36.8286 41.0775 32.6192 41.0905 28.4098C41.0967 26.3741 41.1018 24.3385 41.1041 22.3028C41.1062 20.5288 41.1104 18.7547 41.1172 16.9806C41.1207 16.0411 41.1232 15.1016 41.123 14.1621C41.1229 13.2779 41.1257 12.3938 41.1307 11.5097C41.132 11.185 41.1323 10.8604 41.1314 10.5357C41.1304 10.0926 41.1332 9.64969 41.1369 9.20658C41.1351 9.0137 41.1351 9.0137 41.1333 8.81692C41.1455 7.99697 41.287 7.51638 41.843 6.87507C42.4681 6.36521 43.0489 6.33918 43.8271 6.34574C43.9471 6.3449 44.067 6.34406 44.1906 6.34319C44.592 6.34096 44.9933 6.34207 45.3946 6.34318C45.6826 6.34229 45.9706 6.3412 46.2586 6.33993C47.0405 6.33713 47.8224 6.33731 48.6043 6.33821C49.257 6.33869 49.9098 6.33774 50.5625 6.33679C52.1024 6.3346 53.6422 6.33484 55.1821 6.33662C56.7707 6.33842 58.3593 6.33622 59.948 6.33203C61.312 6.32857 62.676 6.32753 64.04 6.32845C64.8546 6.32897 65.6693 6.32859 66.4839 6.32591C67.25 6.32349 68.0159 6.32411 68.782 6.32705C69.063 6.32763 69.3441 6.32714 69.6251 6.3255C70.009 6.32344 70.3927 6.32524 70.7766 6.328C70.9432 6.32575 70.9432 6.32575 71.1131 6.32345C71.8955 6.33502 72.3421 6.52858 72.9368 7.03132C73.5816 7.75015 73.4684 8.60974 73.4594 9.52238C73.4597 9.78413 73.4597 9.78413 73.4599 10.0512C73.4599 10.6371 73.4565 11.223 73.4532 11.809C73.4526 12.2286 73.4522 12.6482 73.452 13.0679C73.4513 13.9722 73.449 14.8765 73.4458 15.7809C73.4409 17.2109 73.4406 18.6408 73.4411 20.0708C73.4412 20.5603 73.4412 21.0497 73.4413 21.5392C73.4413 21.7226 73.4413 21.7226 73.4413 21.9098C73.4414 23.3018 73.4404 24.6938 73.439 26.0857C73.4389 26.213 73.4387 26.3402 73.4386 26.4713C73.4365 28.5325 73.4313 30.5937 73.4254 32.6549C73.4194 34.7721 73.4183 36.8893 73.4212 39.0066C73.4228 40.3119 73.4205 41.6172 73.413 42.9225C73.4082 43.8175 73.408 44.7124 73.4113 45.6073C73.413 46.1234 73.4121 46.6392 73.407 47.1553C73.4018 47.7157 73.4043 48.2755 73.4087 48.8359C73.4053 48.9978 73.402 49.1598 73.3985 49.3267C73.4185 50.4314 73.7202 50.9606 74.5132 51.7275C75.1995 52.4259 75.305 53.2113 75.3294 54.1602C75.3123 54.8122 75.1914 55.3233 74.968 55.9376C74.8996 56.7173 74.9413 57.1932 75.4368 57.8126C75.6418 57.9231 75.8499 58.0283 76.0618 58.1251C76.0689 51.6997 76.0744 45.2743 76.0777 38.8489C76.0781 38.0903 76.0785 37.3316 76.0789 36.573C76.079 36.422 76.0791 36.2709 76.0792 36.1153C76.0806 33.6701 76.083 31.2249 76.0859 28.7797C76.0888 26.2705 76.0905 23.7613 76.0912 21.2522C76.0916 19.704 76.093 18.1558 76.0955 16.6076C76.0972 15.5459 76.0977 14.4841 76.0973 13.4223C76.0971 12.8098 76.0974 12.1973 76.099 11.5848C76.1006 11.0236 76.1006 10.4623 76.0996 9.90101C76.0994 9.60287 76.1007 9.30474 76.1021 9.0066C76.0972 7.58266 76.061 6.29562 75.1243 5.15632C73.9107 3.95136 72.7576 3.72556 71.0696 3.72917C70.8861 3.72864 70.8861 3.72864 70.6989 3.7281C70.2905 3.72711 69.8822 3.72724 69.4738 3.72737C69.1803 3.7269 68.8869 3.72637 68.5935 3.72578C67.7974 3.7244 67.0013 3.72403 66.2052 3.72393C65.7075 3.72382 65.2098 3.72349 64.7121 3.72307C62.9751 3.72163 61.238 3.72099 59.5009 3.72111C57.8831 3.72121 56.2653 3.71956 54.6474 3.71709C53.2573 3.71505 51.8671 3.71421 50.477 3.71431C49.6472 3.71435 48.8174 3.71391 47.9877 3.71225C47.207 3.71073 46.4264 3.71073 45.6457 3.71186C45.3598 3.71202 45.074 3.71166 44.7881 3.71071C44.3965 3.7095 44.005 3.71023 43.6135 3.71144C43.5015 3.71063 43.3895 3.70983 43.2741 3.709C41.7271 3.71942 40.5238 4.04577 39.4602 5.22468ZM43.5618 8.75007C43.5618 11.2251 43.5618 13.7001 43.5618 16.2501C52.6368 16.2501 61.7118 16.2501 71.0618 16.2501C71.0618 13.7751 71.0618 11.3001 71.0618 8.75007C61.9868 8.75007 52.9118 8.75007 43.5618 8.75007ZM43.5618 18.7501C43.5618 21.2251 43.5618 23.7001 43.5618 26.2501C52.6368 26.2501 61.7118 26.2501 71.0618 26.2501C71.0618 23.7751 71.0618 21.3001 71.0618 18.7501C61.9868 18.7501 52.9118 18.7501 43.5618 18.7501ZM43.5618 28.7501C43.5618 31.2251 43.5618 33.7001 43.5618 36.2501C52.6368 36.2501 61.7118 36.2501 71.0618 36.2501C71.0618 33.7751 71.0618 31.3001 71.0618 28.7501C61.9868 28.7501 52.9118 28.7501 43.5618 28.7501ZM43.5618 38.7501C43.5618 39.9876 43.5618 41.2251 43.5618 42.5001C43.9324 42.6741 44.303 42.8481 44.6848 43.0274C47.4601 44.3884 49.546 46.4833 51.218 49.0626C51.4256 49.3755 51.6344 49.6878 51.843 50.0001C52.0138 49.9227 52.1846 49.8454 52.3606 49.7657C53.5074 49.3359 54.6155 49.4315 55.7493 49.8438C56.5346 49.9127 56.9965 49.8634 57.6243 49.3751C57.9339 49.0298 58.1104 48.7129 58.3079 48.2911C58.8217 47.3227 59.5768 46.7675 60.593 46.4063C61.1687 46.3204 61.7306 46.3187 62.3118 46.3282C62.5335 46.3246 62.5335 46.3246 62.7598 46.3209C63.959 46.3275 64.7728 46.618 65.7005 47.3731C66.095 47.8529 66.3731 48.3408 66.6538 48.8929C66.9628 49.4251 67.1924 49.6478 67.7805 49.8438C68.5472 49.8872 69.0929 49.7807 69.8118 49.5313C70.2243 49.4798 70.6368 49.4282 71.0618 49.3751C71.0618 45.8688 71.0618 42.3626 71.0618 38.7501C61.9868 38.7501 52.9118 38.7501 43.5618 38.7501ZM27.0371 48.3582C26.8068 48.6091 26.8068 48.6091 26.6868 49.0626C26.836 49.1194 26.9853 49.1762 27.1391 49.2347C29.7872 50.2571 32.3177 51.5639 33.8743 54.0626C33.6625 54.6978 33.243 54.8649 32.6926 55.1856C32.5965 55.2431 32.5003 55.3006 32.4012 55.3599C32.1638 55.5016 31.9254 55.6416 31.6868 55.7813C31.6451 55.6905 31.6034 55.5996 31.5604 55.506C30.5596 53.6258 28.5006 52.4087 26.558 51.7182C24.1832 51.0169 21.7648 51.1652 19.4993 52.1876C19.3601 52.2498 19.2209 52.312 19.0775 52.3762C16.5434 53.6306 14.9144 55.7541 14.0165 58.4022C13.8811 58.882 13.7888 59.3507 13.718 59.8438C13.5553 59.7761 13.3925 59.7085 13.2249 59.6387C11.2289 58.8476 9.29216 58.4395 7.22694 59.325C5.62253 60.1872 4.38738 61.5099 3.82118 63.2575C3.4488 65.0357 3.60975 66.7891 4.57863 68.3478C5.59745 69.7576 6.87176 70.6661 8.56178 71.0938C9.53258 71.2421 10.4759 71.2718 11.4569 71.2689C11.6997 71.2691 11.6997 71.2691 11.9474 71.2693C12.4877 71.2695 13.0279 71.2687 13.5682 71.2678C13.9563 71.2678 14.3444 71.2678 14.7325 71.2679C15.567 71.2679 16.4015 71.2675 17.236 71.2666C18.4426 71.2653 19.6491 71.2649 20.8556 71.2647C22.8134 71.2644 24.7711 71.2633 26.7289 71.2619C28.6301 71.2604 30.5314 71.2593 32.4326 71.2587C32.5499 71.2586 32.6672 71.2586 32.788 71.2585C33.3764 71.2583 33.9649 71.2581 34.5533 71.2579C39.4311 71.2563 44.3089 71.2535 49.1868 71.2501C49.2075 71.1183 49.2283 70.9866 49.2496 70.8509C49.2772 70.6797 49.3048 70.5085 49.3333 70.3321C49.3741 70.0765 49.3741 70.0765 49.4157 69.8157C49.4993 69.3751 49.4993 69.3751 49.6555 69.0626C49.7145 68.2807 49.673 67.8127 49.1868 67.1876C48.6316 66.6898 47.9569 66.3887 47.2727 66.1036C46.9115 65.8843 46.8454 65.7038 46.6868 65.3126C46.6078 65.1599 46.5289 65.0072 46.4475 64.8499C46.1213 64.0867 46.1436 63.3284 46.1497 62.5098C46.1465 62.3613 46.1434 62.2127 46.1402 62.0597C46.141 60.8535 46.4253 60.0445 47.1848 59.1114C47.6646 58.7169 48.1525 58.4388 48.7046 58.158C49.2368 57.8491 49.4595 57.6194 49.6555 57.0313C49.6872 56.4712 49.692 56.0379 49.4993 55.5079C49.1941 54.5159 49.1908 53.5404 49.6555 52.6075C49.8557 52.0798 49.8216 51.9005 49.614 51.3618C47.854 47.9956 44.9194 45.6526 41.3743 44.3751C36.0364 42.7483 30.8936 44.5387 27.0371 48.3582ZM60.9055 49.0626C60.6057 49.4532 60.3613 49.8481 60.1304 50.2827C59.6007 51.2679 58.9206 51.7917 57.9063 52.2254C56.7504 52.5377 55.4388 52.5099 54.343 52.0313C53.5406 52.001 53.138 52.2257 52.5657 52.754C52.0374 53.3263 51.8128 53.7289 51.843 54.5313C51.8934 54.6481 51.9437 54.765 51.9956 54.8853C52.3847 55.9249 52.3198 57.1631 51.973 58.2044C51.4269 59.3471 50.8267 59.9758 49.7044 60.5665C49.03 60.8994 49.03 60.8994 48.6204 61.504C48.4901 62.3288 48.4279 63.1759 48.8743 63.9063C49.2649 64.2061 49.6598 64.4506 50.0944 64.6815C51.2368 65.2957 51.7431 66.1457 52.1555 67.3438C52.4112 68.4273 52.2209 69.2696 51.9047 70.312C51.7841 70.8405 51.7612 71.119 52.0554 71.59C52.5027 72.1128 52.9747 72.6043 53.5618 72.9688C54.1017 72.9973 54.6388 72.8991 55.1243 72.6563C56.7497 72.4921 57.9667 72.6413 59.343 73.5938C59.9524 74.1114 60.2829 74.7931 60.6095 75.5103C60.7844 75.8494 60.9549 76.0527 61.3157 76.1915C62.1405 76.3217 62.9876 76.3839 63.718 75.9376C64.0178 75.5469 64.2623 75.152 64.4932 74.7175C65.0229 73.7322 65.7029 73.2085 66.7173 72.7747C67.8732 72.4624 69.1848 72.4903 70.2805 72.9688C71.0829 72.9991 71.4856 72.7744 72.0579 72.2462C72.5861 71.6739 72.8108 71.2712 72.7805 70.4688C72.6858 70.2048 72.5808 69.9444 72.468 69.6876C72.1817 68.2797 72.4231 67.0232 73.1632 65.7874C73.7917 64.961 74.6711 64.5016 75.593 64.0626C76.0838 63.5718 76.0581 63.2014 76.0911 62.5098C76.08 61.9687 76.0375 61.5655 75.7493 61.0938C75.3587 60.794 74.9637 60.5496 74.5292 60.3187C73.3867 59.7044 72.8804 58.8544 72.468 57.6563C72.2123 56.5728 72.4027 55.7305 72.7189 54.6882C72.8394 54.1597 72.8624 53.8811 72.5681 53.4101C72.1209 52.8873 71.6488 52.3958 71.0618 52.0313C70.5218 52.0028 69.9848 52.1011 69.4993 52.3438C67.8738 52.508 66.6568 52.3588 65.2805 51.4063C64.6712 50.8888 64.3407 50.2071 64.014 49.4898C63.8392 49.1507 63.6687 48.9474 63.3079 48.8087C62.483 48.6784 61.6359 48.6162 60.9055 49.0626Z" fill="black"/>
<path d="M10.0567 17.6474C10.9832 18.2033 11.5273 18.9985 12.0194 19.9481C12.1101 20.1224 12.2008 20.2967 12.2942 20.4763C12.3912 20.6655 12.4881 20.8547 12.5848 21.044C12.6589 21.1888 12.6589 21.1888 12.7345 21.3366C12.9961 21.8481 13.2563 22.3602 13.5156 22.8729C13.7287 23.2935 13.9442 23.7126 14.1622 24.1307C14.4272 24.6392 14.6878 25.1498 14.9454 25.6622C15.0433 25.8552 15.1427 26.0475 15.2437 26.239C15.9579 27.5973 16.2836 28.7715 16.0638 30.3122C15.6326 31.3899 14.9034 31.9862 13.8763 32.4997C13.3607 32.4997 12.845 32.4997 12.3138 32.4997C12.3138 38.6872 12.3138 44.8747 12.3138 51.2497C11.4888 51.2497 10.6638 51.2497 9.81378 51.2497C9.81378 44.2372 9.81378 37.2247 9.81378 29.9997C10.7935 29.9481 11.7732 29.8966 12.7825 29.8435C12.9372 29.7919 13.0919 29.7403 13.2513 29.6872C13.2904 28.9795 13.2014 28.5335 12.8833 27.9024C12.803 27.7408 12.7227 27.5792 12.6399 27.4127C12.5081 27.1549 12.5081 27.1549 12.3736 26.8918C12.2842 26.7135 12.1947 26.5352 12.1026 26.3516C11.9135 25.9755 11.7238 25.5999 11.5328 25.2248C11.2879 24.744 11.0453 24.2622 10.8035 23.7799C10.5724 23.3194 10.3402 22.8595 10.108 22.3996C10.0207 22.2264 9.93347 22.0533 9.84358 21.8748C9.76227 21.7152 9.68096 21.5556 9.59718 21.3912C9.52571 21.2503 9.45423 21.1095 9.38059 20.9644C9.19855 20.6065 9.19855 20.6065 8.87628 20.3122C8.49013 20.2719 8.49013 20.2719 8.09503 20.4685C7.8316 20.8562 7.63286 21.2113 7.43097 21.6306C7.36795 21.7563 7.30493 21.882 7.24001 22.0115C7.09196 22.3074 6.9451 22.6039 6.7991 22.9009C6.54474 23.4127 6.28491 23.9212 6.023 24.4291C5.77753 24.9057 5.53387 25.3831 5.29049 25.8607C5.16832 26.0999 5.04563 26.3388 4.92241 26.5774C4.74721 26.9175 4.57454 27.2588 4.40241 27.6004C4.34926 27.7024 4.29611 27.8043 4.24135 27.9094C3.93297 28.5288 3.81907 28.9966 3.87628 29.6872C4.9678 30.051 6.16481 29.9392 7.31378 29.9997C7.31378 37.0122 7.31378 44.0247 7.31378 51.2497C6.48878 51.2497 5.66378 51.2497 4.81378 51.2497C4.81378 45.0622 4.81378 38.8747 4.81378 32.4997C4.29816 32.4997 3.78253 32.4997 3.25128 32.4997C2.23383 31.991 1.5086 31.3849 1.06378 30.3122C0.824524 28.6205 1.2813 27.3719 2.05072 25.8933C2.15351 25.6886 2.25598 25.4838 2.35814 25.2788C2.57154 24.853 2.78778 24.4289 3.00642 24.0057C3.28503 23.4663 3.55743 22.924 3.82793 22.3804C4.03845 21.9585 4.25151 21.5379 4.46541 21.1177C4.56675 20.9182 4.66747 20.7183 4.76753 20.5182C5.85259 18.3577 7.40179 16.665 10.0567 17.6474Z" fill="black"/>
<path d="M22.3139 3.75C23.1389 3.75 23.9639 3.75 24.8139 3.75C24.8139 10.7625 24.8139 17.775 24.8139 25C23.8342 25.0516 22.8545 25.1031 21.8451 25.1562C21.6904 25.2078 21.5357 25.2594 21.3764 25.3125C21.3372 26.0202 21.4262 26.4662 21.7443 27.0973C21.8648 27.3397 21.8648 27.3397 21.9877 27.587C22.0756 27.7589 22.1635 27.9308 22.254 28.1079C22.3435 28.2862 22.4329 28.4645 22.525 28.6481C22.7141 29.0242 22.9039 29.3998 23.0949 29.7749C23.3397 30.2557 23.5823 30.7375 23.8241 31.2198C24.0552 31.6803 24.2874 32.1402 24.5197 32.6001C24.6069 32.7733 24.6942 32.9464 24.7841 33.1249C24.8654 33.2845 24.9467 33.4441 25.0305 33.6086C25.1377 33.8198 25.1377 33.8198 25.247 34.0353C25.4291 34.3932 25.4291 34.3932 25.7514 34.6875C26.1375 34.7278 26.1375 34.7278 26.5326 34.5312C26.796 34.1435 26.9948 33.7884 27.1967 33.3691C27.2597 33.2434 27.3227 33.1177 27.3876 32.9882C27.5357 32.6923 27.6825 32.3958 27.8285 32.0988C28.0829 31.5871 28.3427 31.0785 28.6046 30.5706C28.8501 30.094 29.0938 29.6166 29.3372 29.139C29.4593 28.8998 29.582 28.6609 29.7052 28.4223C29.8804 28.0822 30.0531 27.7409 30.2252 27.3993C30.2784 27.2973 30.3315 27.1954 30.3863 27.0903C30.6947 26.4709 30.8086 26.0031 30.7514 25.3125C29.6598 24.9487 28.4628 25.0605 27.3139 25C27.3139 17.9875 27.3139 10.975 27.3139 3.75C28.1389 3.75 28.9639 3.75 29.8139 3.75C29.8139 9.9375 29.8139 16.125 29.8139 22.5C30.3295 22.5 30.8451 22.5 31.3764 22.5C32.3938 23.0087 33.119 23.6148 33.5639 24.6875C33.8031 26.3792 33.3463 27.6279 32.5769 29.1064C32.4741 29.3111 32.3717 29.5159 32.2695 29.7209C32.0561 30.1467 31.8399 30.5708 31.6212 30.994C31.3426 31.5334 31.0702 32.0757 30.7997 32.6193C30.5892 33.0412 30.3761 33.4618 30.1622 33.882C30.0609 34.0815 29.9602 34.2814 29.8601 34.4815C29.1859 35.8239 28.566 36.8782 27.1576 37.5C25.9982 37.6356 24.9516 37.66 23.9777 36.9659C23.3902 36.4021 22.981 35.771 22.6082 35.0516C22.5175 34.8773 22.4269 34.703 22.3334 34.5234C22.2364 34.3342 22.1396 34.145 22.0429 33.9557C21.9934 33.8592 21.944 33.7626 21.8931 33.6632C21.6316 33.1516 21.3713 32.6395 21.112 32.1268C20.8989 31.7062 20.6834 31.2871 20.4655 30.869C20.2004 30.3605 19.9398 29.8499 19.6822 29.3375C19.5843 29.1445 19.4849 28.9522 19.3839 28.7607C18.6697 27.4024 18.3441 26.2282 18.5639 24.6875C18.995 23.6098 19.7243 23.0135 20.7514 22.5C21.267 22.5 21.7826 22.5 22.3139 22.5C22.3139 16.3125 22.3139 10.125 22.3139 3.75Z" fill="black"/>
<path d="M66.8357 54.8042C67.2173 55.0638 67.5775 55.3336 67.9356 55.6245C68.0657 55.7224 68.1958 55.8203 68.3298 55.9212C69.767 57.1407 70.923 59.2715 71.0951 61.1599C71.1694 62.8746 71.2008 64.5202 70.4356 66.0933C70.3638 66.2435 70.2921 66.3938 70.2183 66.5486C69.0105 68.9069 67.1083 70.2401 64.6293 71.1104C62.7412 71.5483 60.4672 71.4761 58.7168 70.6245C58.5665 70.5528 58.4163 70.4811 58.2615 70.4072C55.905 69.2004 54.5648 67.2968 53.7003 64.8164C53.166 62.5296 53.4165 60.0026 54.6152 57.9744C54.8749 57.5928 55.1446 57.2326 55.4356 56.8745C55.5334 56.7444 55.6313 56.6143 55.7322 56.4802C58.3615 53.3818 63.4128 52.7812 66.8357 54.8042ZM57.3398 58.7886C56.2314 60.3224 56.0366 61.9081 56.2168 63.7495C56.5695 65.434 57.5831 66.7356 58.9628 67.7327C60.5215 68.7016 62.2749 68.8625 64.0531 68.4901C65.8007 67.9239 67.1234 66.6888 67.9856 65.0844C68.6186 63.6081 68.6543 61.8471 68.1602 60.3218C67.4451 58.6541 66.156 57.365 64.4883 56.6499C61.7669 55.7682 59.1533 56.6363 57.3398 58.7886Z" fill="black"/>
<path d="M43.0252 47.591C45.0178 48.7544 46.6244 50.5318 47.6135 52.6065C47.6596 52.7031 47.7057 52.7996 47.7531 52.899C48.0481 53.5555 48.1765 54.1352 48.2483 54.8429C47.9523 54.9221 47.656 55 47.3596 55.0772C47.1946 55.1207 47.0297 55.1642 46.8597 55.2091C46.4183 55.3021 46.0407 55.3316 45.592 55.3116C45.5519 55.1867 45.5118 55.0619 45.4705 54.9332C44.6586 52.604 43.2664 50.8838 41.0406 49.7501C39.0599 48.9141 37.0744 48.8213 34.967 49.0616C34.8876 48.7918 34.8098 48.5215 34.7326 48.2511C34.6674 48.0254 34.6674 48.0254 34.6008 47.7951C34.5034 47.3658 34.479 46.9997 34.4983 46.5616C37.1073 45.4466 40.6462 46.2965 43.0252 47.591Z" fill="black"/>
<path d="M64.099 58.9846C65.0092 59.5346 65.7466 60.3892 66.0619 61.4065C66.1877 62.6309 66.2376 63.847 65.4369 64.844C64.6862 65.6323 64.0054 66.1886 62.8948 66.3027C61.5642 66.3174 60.6438 66.2686 59.6612 65.3329C58.664 64.2541 58.4869 63.4062 58.5143 61.9448C58.623 60.7163 59.1944 60.0706 60.1092 59.2886C61.213 58.528 62.8734 58.4415 64.099 58.9846ZM61.4721 61.6604C61.1421 62.1427 61.1226 62.3953 61.2182 62.969C61.4526 63.3596 61.4526 63.3596 61.8432 63.594C62.4169 63.6896 62.6694 63.6701 63.1518 63.3401C63.4818 62.8577 63.5013 62.6052 63.4057 62.0315C63.1713 61.6408 63.1713 61.6408 62.7807 61.4065C62.207 61.3109 61.9544 61.3304 61.4721 61.6604Z" fill="black"/>
<path d="M27.8301 54.8922C28.4993 55.3917 29.092 55.9474 29.6562 56.5621C29.4538 57.1695 29.1753 57.314 28.6602 57.6852C28.4311 57.8528 28.4311 57.8528 28.1975 58.0239C27.7812 58.2809 27.7812 58.2809 27.3125 58.2809C27.1024 58.0218 26.8944 57.7612 26.6875 57.4996C25.3418 56.5118 23.919 56.3232 22.3125 56.5621C21.1421 56.9369 20.1407 57.5248 19.5 58.5934C19.2145 59.1568 18.9577 59.7275 18.7188 60.3121C17.8155 60.2136 16.9462 60.0541 16.0625 59.8434C16.6004 57.7118 17.6102 55.9912 19.4512 54.7359C22.0335 53.2561 25.3314 53.2338 27.8301 54.8922Z" fill="black"/>
<path d="M66.0625 41.25C66.8875 41.25 67.7125 41.25 68.5625 41.25C68.5625 42.075 68.5625 42.9 68.5625 43.75C67.7375 43.75 66.9125 43.75 66.0625 43.75C66.0625 42.925 66.0625 42.1 66.0625 41.25Z" fill="black"/>
<path d="M61.0625 41.25C61.8875 41.25 62.7125 41.25 63.5625 41.25C63.5625 42.075 63.5625 42.9 63.5625 43.75C62.7375 43.75 61.9125 43.75 61.0625 43.75C61.0625 42.925 61.0625 42.1 61.0625 41.25Z" fill="black"/>
<path d="M51.0625 31.25C51.8875 31.25 52.7125 31.25 53.5625 31.25C53.5625 32.075 53.5625 32.9 53.5625 33.75C52.7375 33.75 51.9125 33.75 51.0625 33.75C51.0625 32.925 51.0625 32.1 51.0625 31.25Z" fill="black"/>
<path d="M46.0625 31.25C46.8875 31.25 47.7125 31.25 48.5625 31.25C48.5625 32.075 48.5625 32.9 48.5625 33.75C47.7375 33.75 46.9125 33.75 46.0625 33.75C46.0625 32.925 46.0625 32.1 46.0625 31.25Z" fill="black"/>
<path d="M66.0625 21.25C66.8875 21.25 67.7125 21.25 68.5625 21.25C68.5625 22.075 68.5625 22.9 68.5625 23.75C67.7375 23.75 66.9125 23.75 66.0625 23.75C66.0625 22.925 66.0625 22.1 66.0625 21.25Z" fill="black"/>
<path d="M61.0625 21.25C61.8875 21.25 62.7125 21.25 63.5625 21.25C63.5625 22.075 63.5625 22.9 63.5625 23.75C62.7375 23.75 61.9125 23.75 61.0625 23.75C61.0625 22.925 61.0625 22.1 61.0625 21.25Z" fill="black"/>
<path d="M51.0625 11.25C51.8875 11.25 52.7125 11.25 53.5625 11.25C53.5625 12.075 53.5625 12.9 53.5625 13.75C52.7375 13.75 51.9125 13.75 51.0625 13.75C51.0625 12.925 51.0625 12.1 51.0625 11.25Z" fill="black"/>
<path d="M46.0625 11.25C46.8875 11.25 47.7125 11.25 48.5625 11.25C48.5625 12.075 48.5625 12.9 48.5625 13.75C47.7375 13.75 46.9125 13.75 46.0625 13.75C46.0625 12.925 46.0625 12.1 46.0625 11.25Z" fill="black"/>
</svg>
