<svg width="80" height="80" viewBox="0 0 80 80" fill="none" xmlns="http://www.w3.org/2000/svg">
<g clip-path="url(#clip0_43_824)">
<path d="M18.6578 -0.0597451C18.9027 -0.0610073 18.9027 -0.0610073 19.1526 -0.0622951C19.6979 -0.0645242 20.2431 -0.0634167 20.7884 -0.0623033C21.1801 -0.0631946 21.5719 -0.0642828 21.9636 -0.065553C22.9161 -0.0680653 23.8685 -0.0683706 24.8209 -0.0675509C25.5954 -0.0669185 26.3699 -0.0671461 27.1444 -0.0679804C27.31 -0.0681558 27.31 -0.0681558 27.479 -0.0683347C27.7033 -0.068574 27.9276 -0.0688144 28.1519 -0.0690558C30.2535 -0.071199 32.3552 -0.0703517 34.4568 -0.0685581C36.3775 -0.0670066 38.2981 -0.0690278 40.2188 -0.0727666C42.1931 -0.0765809 44.1675 -0.0780781 46.1419 -0.0770396C47.2495 -0.0764946 48.357 -0.0768381 49.4646 -0.0795788C50.5062 -0.0821246 51.5478 -0.081377 52.5895 -0.0784374C52.9713 -0.0778617 53.3531 -0.0783466 53.735 -0.0799821C54.2572 -0.0820476 54.7792 -0.0802403 55.3014 -0.0774834C55.4516 -0.0789842 55.6018 -0.080485 55.7566 -0.0820312C57.3022 -0.065302 58.5278 0.447506 59.6483 1.5084C60.6815 2.69536 61.0808 3.88473 61.0824 5.43419C61.0829 5.59083 61.0829 5.59083 61.0834 5.75064C61.0844 6.09942 61.0842 6.44819 61.0841 6.79698C61.0846 7.04753 61.0851 7.29807 61.0857 7.54862C61.087 8.0877 61.0878 8.62679 61.0883 9.16587C61.0892 10.0189 61.0918 10.8719 61.0947 11.7249C61.0957 12.0171 61.0967 12.3094 61.0977 12.6017C61.0982 12.748 61.0987 12.8944 61.0992 13.0452C61.1058 15.0305 61.1109 17.0159 61.1128 19.0013C61.1142 20.3412 61.1177 21.6811 61.1237 23.021C61.1268 23.7297 61.1287 24.4383 61.1279 25.1469C61.1272 25.8137 61.1294 26.4804 61.1337 27.1472C61.1348 27.3913 61.1348 27.6355 61.1337 27.8796C61.1284 29.1473 61.1444 30.1557 61.8432 31.2508C62.2416 32.2784 62.3274 33.2636 62.2938 34.3545C62.2558 35.6572 62.3248 36.641 62.9369 37.8133C63.0537 38.0921 63.1677 38.3721 63.2787 38.6532C63.3545 38.8387 63.3545 38.8387 63.4319 39.0279C64.0881 40.7839 63.8403 42.8529 63.0932 44.5321C62.8936 44.9541 62.6829 45.3674 62.4682 45.7821C62.3308 46.2217 62.296 46.6034 62.3076 47.0626C62.3098 47.1866 62.312 47.3106 62.3142 47.4383C62.3167 47.5685 62.3191 47.6987 62.3217 47.8329C62.3361 49.6588 62.0354 51.0227 61.2182 52.6571C61.2026 52.9568 61.1973 53.2571 61.1966 53.5572C61.1953 53.8447 61.1953 53.8447 61.194 54.138C61.1938 54.3515 61.1937 54.5651 61.1935 54.7787C61.1928 55.0028 61.192 55.2268 61.1911 55.4509C61.1894 55.9342 61.188 56.4175 61.187 56.9009C61.1854 57.6659 61.1822 58.431 61.1787 59.196C61.1691 61.3719 61.1606 63.5477 61.1554 65.7236C61.1526 66.9247 61.148 68.1258 61.1417 69.3269C61.1384 69.9622 61.136 70.5976 61.1356 71.233C61.1353 71.8315 61.1328 72.43 61.1287 73.0286C61.1276 73.2475 61.1272 73.4663 61.1278 73.6852C61.1319 75.7004 60.783 77.1949 59.4066 78.713C58.2372 79.8107 56.8612 80.0947 55.3035 80.0802C55.1399 80.0812 54.9763 80.0822 54.8078 80.0832C54.2635 80.0856 53.7193 80.0837 53.1749 80.0817C52.7832 80.0826 52.3914 80.0837 51.9996 80.085C51.0482 80.0876 50.0969 80.0872 49.1455 80.0854C48.3719 80.084 47.5983 80.0838 46.8247 80.0845C46.7144 80.0846 46.604 80.0847 46.4903 80.0848C46.2661 80.085 46.0419 80.0852 45.8177 80.0854C43.7181 80.0872 41.6185 80.0851 39.5189 80.0817C37.7197 80.0789 35.9205 80.0794 34.1213 80.0823C32.0289 80.0857 29.9366 80.087 27.8442 80.0851C27.6208 80.0849 27.3975 80.0847 27.1741 80.0845C27.0642 80.0844 26.9543 80.0843 26.8411 80.0842C26.069 80.0836 25.2968 80.0845 24.5247 80.086C23.4843 80.088 22.444 80.0866 21.4036 80.083C21.0223 80.0821 20.641 80.0824 20.2597 80.0837C19.7382 80.0855 19.2168 80.0833 18.6954 80.0802C18.5453 80.0816 18.3953 80.083 18.2407 80.0844C16.696 80.0666 15.4704 79.5536 14.3505 78.4933C13.353 77.3473 12.9182 76.1702 12.9164 74.6683C12.9158 74.4758 12.9151 74.2832 12.9145 74.0849C12.9146 73.8728 12.9147 73.6606 12.9148 73.4485C12.9143 73.2241 12.9137 72.9998 12.9131 72.7754C12.9119 72.2928 12.9111 71.8103 12.9106 71.3277C12.9096 70.564 12.907 69.8002 12.9041 69.0365C12.9031 68.7747 12.9021 68.513 12.9011 68.2512C12.9006 68.1201 12.9001 67.989 12.8996 67.854C12.8931 66.0766 12.8879 64.2992 12.886 62.5218C12.8847 61.3219 12.8812 60.1221 12.8752 58.9223C12.8721 58.2879 12.8701 57.6535 12.8709 57.0191C12.8716 56.4221 12.8695 55.8251 12.8651 55.2281C12.864 55.0097 12.864 54.7912 12.8652 54.5728C12.8709 53.3359 12.8122 52.4671 12.1557 51.4071C11.8939 50.74 11.7898 50.1487 11.7455 49.4344C11.7332 49.2431 11.7209 49.0517 11.7083 48.8546C11.6889 48.3348 11.6981 47.8251 11.7162 47.3055C11.7249 46.3655 11.4566 45.6848 11.0619 44.8446C10.9461 44.5654 10.8322 44.2854 10.7201 44.0047C10.6696 43.8811 10.619 43.7574 10.5669 43.63C9.91073 41.874 10.1585 39.805 10.9057 38.1258C11.1052 37.7038 11.3159 37.2905 11.5307 36.8758C11.6681 36.4362 11.7028 36.0545 11.6912 35.5953C11.689 35.4713 11.6869 35.3473 11.6846 35.2196C11.6822 35.0894 11.6797 34.9592 11.6771 34.825C11.6627 32.9991 11.9635 31.6352 12.7807 30.0008C12.7959 29.6658 12.8008 29.3304 12.8012 28.995C12.8015 28.8906 12.8018 28.7861 12.8022 28.6785C12.8031 28.3268 12.803 27.9752 12.8028 27.6235C12.8033 27.372 12.8039 27.1205 12.8045 26.869C12.8057 26.3263 12.8065 25.7836 12.807 25.241C12.8079 24.382 12.8105 23.5231 12.8135 22.6641C12.8145 22.37 12.8155 22.076 12.8164 21.7819C12.8169 21.6346 12.8174 21.4873 12.8179 21.3355C12.8245 19.3354 12.8297 17.3353 12.8316 15.3352C12.8329 13.9868 12.8364 12.6383 12.8424 11.2899C12.8455 10.5765 12.8475 9.86319 12.8467 9.14981C12.8459 8.47777 12.8481 7.80579 12.8525 7.13376C12.8535 6.888 12.8536 6.64223 12.8524 6.39647C12.8443 4.44197 13.1295 2.87486 14.4994 1.40708C15.7564 0.257047 16.9907 -0.0701174 18.6578 -0.0597451ZM16.1693 3.83872C15.7604 4.42943 15.73 4.87441 15.7306 5.57516C15.7304 5.75986 15.7302 5.94457 15.73 6.13487C15.7305 6.33773 15.7311 6.54059 15.7317 6.7496C15.7317 6.96519 15.7317 7.18077 15.7316 7.39635C15.7316 7.98192 15.7325 8.56749 15.7336 9.15306C15.7345 9.7649 15.7346 10.3767 15.7348 10.9886C15.7353 12.1473 15.7366 13.3061 15.7382 14.4648C15.7399 15.784 15.7408 17.1031 15.7416 18.4222C15.7432 21.1359 15.7459 23.8496 15.7494 26.5633C16.1178 26.0914 16.3205 25.7 16.5014 25.1278C17.129 23.3535 18.2687 22.0083 19.9486 21.1336C20.495 20.877 21.0445 20.6838 21.6186 20.4989C22.7864 20.0898 23.5757 19.2952 24.3334 18.3407C25.2714 17.2026 26.8302 16.5466 28.2494 16.2508C28.481 16.242 28.7129 16.2411 28.9446 16.2466C29.0772 16.2485 29.2099 16.2504 29.3465 16.2524C29.6212 16.2578 29.8959 16.2639 30.1705 16.2707C31.3983 16.2864 32.5015 16.1464 33.5912 15.5477C35.5917 14.4981 37.5279 14.5002 39.6557 15.1571C40.0103 15.3131 40.362 15.4759 40.7104 15.6454C41.757 16.1493 42.5131 16.2663 43.6638 16.2356C45.8052 16.1824 47.6382 16.5748 49.3432 17.9696C49.7221 18.3564 50.0736 18.7666 50.4281 19.1756C51.0764 19.9045 51.7221 20.2846 52.6244 20.6258C54.6714 21.4061 56.3251 22.4002 57.2826 24.4637C57.4001 24.7455 57.5142 25.0287 57.6244 25.3133C57.6993 25.5049 57.6993 25.5049 57.7758 25.7003C57.8851 25.9867 57.9897 26.2748 58.0932 26.5633C58.1447 26.5633 58.1963 26.5633 58.2494 26.5633C58.2677 23.7328 58.2815 20.9023 58.2899 18.0717C58.2939 16.7573 58.2994 15.443 58.3083 14.1286C58.3162 12.9828 58.3212 11.8369 58.3229 10.691C58.3239 10.0845 58.3263 9.47812 58.332 8.87165C58.3373 8.30016 58.3389 7.72877 58.3378 7.15725C58.3381 6.84884 58.3423 6.54045 58.3466 6.23207C58.3401 5.10065 58.2364 4.30184 57.4682 3.43833C56.7073 2.75152 56.0812 2.72781 55.1061 2.75229C54.9722 2.75318 54.8382 2.75406 54.7003 2.75497C54.2751 2.75846 53.8502 2.7663 53.4252 2.77427C53.1359 2.7774 52.8466 2.78026 52.5573 2.78281C51.8504 2.78968 51.1437 2.80046 50.4369 2.81333C50.4346 2.94323 50.4324 3.07313 50.43 3.20697C50.4204 3.69538 50.4088 4.1837 50.3959 4.67204C50.3882 4.98475 50.3828 5.29751 50.3774 5.61027C50.335 7.14013 50.2255 8.45294 49.1466 9.60959C48.2343 10.3972 47.196 10.6439 46.0123 10.6478C45.7656 10.6491 45.7656 10.6491 45.5139 10.6505C45.3351 10.6507 45.1563 10.6508 44.972 10.651C44.7824 10.6518 44.5928 10.6526 44.3974 10.6534C43.8782 10.6552 43.3591 10.6564 42.8399 10.6571C42.515 10.6576 42.19 10.6582 41.865 10.6589C40.8466 10.661 39.8281 10.6626 38.8096 10.6632C37.6372 10.6639 36.4649 10.6666 35.2925 10.6711C34.3842 10.6745 33.4758 10.6761 32.5675 10.6763C32.026 10.6765 31.4845 10.6774 30.943 10.6802C30.338 10.6832 29.733 10.6825 29.1279 10.6815C28.862 10.6837 28.862 10.6837 28.5908 10.6859C27.1544 10.6784 25.8097 10.5146 24.7289 9.49241C23.9254 8.5372 23.7062 7.51153 23.6687 6.29233C23.6622 6.08991 23.6556 5.88749 23.6489 5.67893C23.6427 5.46592 23.6365 5.25291 23.6303 5.03989C23.6235 4.82444 23.6167 4.60898 23.6098 4.39353C23.5933 3.86681 23.5773 3.34008 23.5619 2.81333C22.7112 2.79784 21.8607 2.78652 21.0099 2.779C20.7207 2.77586 20.4316 2.7716 20.1424 2.76618C19.7258 2.75857 19.3094 2.75505 18.8927 2.75229C18.7643 2.74907 18.6358 2.74584 18.5035 2.74252C17.4613 2.74212 16.8785 3.05284 16.1693 3.83872ZM26.3744 2.81333C26.0261 6.44708 26.0261 6.44708 26.8432 7.65708C27.3108 7.98125 27.7007 8.00902 28.2618 8.01031C28.4219 8.01142 28.582 8.01253 28.747 8.01367C29.0091 8.01309 29.0091 8.01309 29.2766 8.0125C29.4614 8.01329 29.6461 8.01409 29.8365 8.01492C30.3427 8.01672 30.8489 8.0171 31.3551 8.0167C31.7779 8.01653 32.2008 8.0173 32.6236 8.01805C33.6214 8.01978 34.6191 8.01985 35.6168 8.0189C36.6455 8.01796 37.6741 8.01988 38.7028 8.02321C39.5866 8.02596 40.4704 8.0269 41.3541 8.02639C41.8817 8.02611 42.4093 8.02652 42.9369 8.02869C43.5253 8.03062 44.1136 8.02957 44.702 8.02775C44.8765 8.02895 45.0509 8.03014 45.2307 8.03137C45.3912 8.03028 45.5518 8.02918 45.7172 8.02805C45.9258 8.02809 45.9258 8.02809 46.1386 8.02813C46.6295 7.95482 46.916 7.79811 47.3119 7.50083C48.0122 6.10019 47.6244 4.3793 47.6244 2.81333C40.6119 2.81333 33.5994 2.81333 26.3744 2.81333ZM34.1363 18.2479C33.3359 18.6124 32.6237 18.794 31.7455 18.8485C31.4585 18.8669 31.4585 18.8669 31.1657 18.8857C30.6458 18.9051 30.1362 18.8959 29.6166 18.8778C28.3111 18.8691 27.2712 19.3246 26.3164 20.2041C26.046 20.4862 25.8016 20.7824 25.5541 21.0848C24.5092 22.3015 23.1458 22.8823 21.6686 23.4218C20.5636 23.8456 19.7064 24.6044 19.1653 25.6605C19.0078 26.0336 18.8603 26.4087 18.7182 26.7879C18.1877 28.1962 17.5387 29.2677 16.3646 30.2352C15.1494 31.3061 14.6265 32.2825 14.4994 33.9071C14.4976 34.3435 14.509 34.7794 14.5189 35.2157C14.5497 36.816 14.0987 38.1002 13.4447 39.5516C12.9943 40.6175 12.8683 41.5314 13.2482 42.6412C13.3814 42.9565 13.5185 43.2702 13.659 43.5824C14.3155 45.048 14.5439 46.3098 14.5114 47.8973C14.48 49.4692 14.6869 50.6603 15.7494 51.8758C16.0562 52.1498 16.3647 52.4191 16.6771 52.6864C17.9291 53.7675 18.4628 55.0695 19.0209 56.6122C19.4268 57.6606 20.1664 58.5723 21.1693 59.1024C21.549 59.269 21.9335 59.408 22.3241 59.5473C23.8901 60.1136 24.8979 60.7915 25.9838 62.0516C26.7441 62.9264 27.5755 63.5085 28.7182 63.7508C29.1651 63.7539 29.6094 63.75 30.0561 63.7411C31.7586 63.7283 33.0997 63.9666 34.6691 64.6499C35.0877 64.8289 35.5034 64.9926 35.935 65.1376C36.0467 65.1758 36.1585 65.2141 36.2737 65.2535C37.4128 65.4184 38.3792 65.0881 39.4018 64.62C40.935 63.9611 42.2201 63.7386 43.8842 63.7704C45.4113 63.796 46.5353 63.5104 47.6824 62.4538C47.9529 62.1717 48.1973 61.8755 48.4447 61.5731C49.3773 60.4896 50.5172 59.8992 51.8627 59.4637C53.2041 59.0112 54.1121 58.3377 54.7729 57.0711C54.9651 56.6446 55.1393 56.2134 55.3118 55.7784C55.8958 54.3155 56.5187 53.3959 57.7123 52.3641C58.8813 51.3272 59.3955 50.3108 59.4994 48.7508C59.5011 48.412 59.4925 48.0748 59.4812 47.7362C59.4325 46.188 59.6917 45.0085 60.3399 43.5927C60.8933 42.3613 61.2021 41.3356 60.7506 40.0167C60.6174 39.7014 60.4803 39.3877 60.3399 39.0755C59.6833 37.6099 59.4549 36.3481 59.4874 34.7606C59.5188 33.1887 59.312 31.9976 58.2494 30.7821C57.9427 30.5081 57.6341 30.2388 57.3217 29.9715C56.0698 28.8904 55.5361 27.5884 54.9779 26.0457C54.5102 24.8509 53.7294 24.0074 52.5658 23.4676C52.1401 23.2942 51.7116 23.1347 51.2792 22.9787C49.9047 22.4686 48.9677 21.7158 48.015 20.6063C47.2547 19.7315 46.4234 19.1494 45.2807 18.9071C44.8337 18.904 44.3894 18.9079 43.9428 18.9168C42.0527 18.931 40.605 18.5869 38.8744 17.8133C37.1143 17.0672 35.7959 17.4414 34.1363 18.2479ZM15.7494 56.0946C15.7348 58.5815 15.7238 61.0684 15.717 63.5554C15.7138 64.7101 15.7094 65.8649 15.7023 67.0197C15.696 68.0264 15.692 69.0332 15.6906 70.0399C15.6898 70.5728 15.6879 71.1056 15.6833 71.6385C15.6788 72.234 15.6782 72.8294 15.6785 73.4249C15.6762 73.6007 15.674 73.7765 15.6717 73.9576C15.677 74.9676 15.7693 75.5873 16.3744 76.4071C16.9581 76.9352 17.3308 77.2075 18.1141 77.2093C18.2502 77.21 18.3863 77.2107 18.5265 77.2114C18.677 77.2114 18.8274 77.2114 18.9824 77.2113C19.1415 77.2119 19.3006 77.2125 19.4646 77.2131C20.0012 77.2148 20.5379 77.2154 21.0746 77.216C21.458 77.217 21.8413 77.218 22.2247 77.2191C23.3777 77.2221 24.5307 77.2238 25.6837 77.2252C26.2266 77.2258 26.7694 77.2267 27.3122 77.2275C29.1163 77.2301 30.9205 77.2324 32.7246 77.2336C33.1929 77.2338 33.6612 77.2341 34.1295 77.2345C34.3041 77.2346 34.3041 77.2346 34.4823 77.2347C36.368 77.236 38.2538 77.2399 40.1395 77.245C42.075 77.2502 44.0105 77.253 45.9461 77.2535C47.033 77.2538 48.1199 77.2552 49.2069 77.2592C50.2293 77.2629 51.2516 77.2635 52.274 77.2619C52.6496 77.2618 53.0251 77.2628 53.4006 77.2649C53.9128 77.2677 54.4249 77.2666 54.9371 77.2645C55.0861 77.2663 55.2352 77.268 55.3887 77.2697C56.265 77.2612 56.7787 77.1571 57.4682 76.5633C58.2179 75.7901 58.3397 74.9842 58.3466 73.9382C58.3438 73.7629 58.341 73.5877 58.3381 73.4072C58.3382 73.2196 58.3383 73.0319 58.3384 72.8386C58.338 72.3276 58.3341 71.8167 58.3286 71.3058C58.3237 70.7705 58.3233 70.2352 58.3224 69.6999C58.3199 68.6877 58.3135 67.6757 58.3057 66.6636C58.2969 65.5107 58.2926 64.3578 58.2887 63.2049C58.2806 60.8348 58.2668 58.4647 58.2494 56.0946C57.881 56.5665 57.6783 56.9579 57.4975 57.5301C56.8698 59.3044 55.7301 60.6496 54.0502 61.5243C53.5038 61.7809 52.9543 61.9741 52.3803 62.159C51.2103 62.5689 50.4233 63.3687 49.6557 64.3172C48.6697 65.4966 47.2631 66.1904 45.7494 66.4071C44.9181 66.4638 44.0859 66.4855 43.2528 66.4848C42.1599 66.4966 41.4004 66.6824 40.4369 67.1883C38.4633 67.9874 36.4794 68.3069 34.4439 67.5136C34.2212 67.4136 33.9998 67.3107 33.7804 67.2036C32.5387 66.6353 31.5859 66.4966 30.2221 66.4852C27.7344 66.4643 25.8166 65.8456 24.0307 64.0633C23.8431 63.847 23.6575 63.6289 23.474 63.409C22.6932 62.5027 21.8817 62.1975 20.7689 61.827C19.7575 61.4752 19.0216 61.0516 18.2494 60.3133C18.1501 60.2185 18.0508 60.1236 17.9485 60.0259C16.8926 58.9202 16.4134 57.5108 15.9057 56.0946C15.8541 56.0946 15.8025 56.0946 15.7494 56.0946Z" fill="black"/>
<path d="M41.8439 23.1259C42.0359 23.1791 42.2278 23.2322 42.4256 23.287C47.1437 24.7312 51.2001 27.9748 53.5496 32.3291C55.9237 36.9295 56.4222 42.0826 54.9396 47.0517C53.3548 52.0138 49.8493 55.8587 45.2912 58.2431C44.1724 58.7819 43.0372 59.1967 41.8439 59.5322C41.5771 59.6074 41.5771 59.6074 41.305 59.6841C38.4201 60.3547 35.0121 60.336 32.1564 59.5322C31.9645 59.479 31.7725 59.4258 31.5748 59.371C26.8218 57.9161 22.8367 54.6749 20.449 50.3178C18.0435 45.7609 17.589 40.5391 19.0607 35.6064C20.6358 30.6749 24.129 26.8391 28.6706 24.4644C29.8038 23.89 30.9252 23.453 32.1564 23.1259C32.3333 23.0764 32.5101 23.0268 32.6923 22.9758C35.5755 22.2999 38.9892 22.3223 41.8439 23.1259ZM29.6564 27.1884C29.4911 27.272 29.3257 27.3556 29.1553 27.4417C25.6163 29.3758 22.9402 32.7451 21.7395 36.5849C20.5199 40.8393 20.9224 45.2183 23.0366 49.1303C23.6687 50.2396 24.4538 51.2201 25.2814 52.1884C25.3707 52.2937 25.4599 52.3991 25.5518 52.5076C28.0144 55.1728 31.8393 56.9599 35.4418 57.2229C40.1583 57.3977 44.258 56.2726 47.8205 53.0868C50.4369 50.6383 52.1894 47.4522 52.7814 43.9072C52.7987 43.805 52.8161 43.7029 52.8339 43.5977C53.3994 39.5248 52.3613 35.1981 49.9013 31.8871C47.1621 28.4036 43.427 26.1261 39.0314 25.4697C35.6258 25.253 32.7002 25.6495 29.6564 27.1884Z" fill="black"/>
<path d="M44.3438 34.6867C44.8221 34.9976 44.9353 35.2175 45.125 35.7511C45.125 36.7397 44.4403 37.456 43.7782 38.1282C43.6855 38.22 43.5928 38.3117 43.4973 38.4063C43.3981 38.5063 43.2989 38.6063 43.1968 38.7093C42.871 39.0371 42.5436 39.3631 42.2161 39.6891C41.9879 39.9176 41.7599 40.1461 41.5319 40.3747C41.0548 40.8524 40.5769 41.3293 40.0984 41.8056C39.4859 42.4154 38.8756 43.0273 38.2659 43.6398C37.7957 44.1117 37.3244 44.5825 36.8527 45.0529C36.6273 45.2781 36.4021 45.5036 36.1774 45.7294C35.8629 46.0451 35.547 46.3592 35.2307 46.6729C35.0926 46.8124 35.0926 46.8124 34.9516 46.9548C34.3248 47.5721 33.7195 48.1037 32.8008 48.1437C32.0673 47.8796 31.6153 47.4132 31.0625 46.8742C30.9853 46.8007 30.908 46.7273 30.8284 46.6516C30.5728 46.4084 30.3193 46.1632 30.0664 45.9171C29.9845 45.8386 29.9026 45.7601 29.8182 45.6792C29.3602 45.225 29.0475 44.8439 28.875 44.2179C28.8972 43.6728 28.9753 43.3654 29.2754 42.9093C29.7095 42.6199 30.0479 42.5386 30.5706 42.5639C31.111 42.7112 31.4425 43.0468 31.8352 43.4336C32.0976 43.6915 32.362 43.9255 32.6451 44.1595C32.7931 44.2819 32.9412 44.4043 33.0938 44.5304C33.214 44.4071 33.3342 44.2838 33.458 44.1567C34.592 42.9941 35.7298 41.8353 36.8713 40.68C37.458 40.086 38.0433 39.4907 38.6257 38.8924C39.1879 38.3148 39.7536 37.7408 40.3217 37.1691C40.5376 36.9505 40.7524 36.7307 40.9658 36.5097C41.2654 36.1998 41.5691 35.8947 41.8742 35.5903C42.0047 35.4522 42.0047 35.4522 42.1378 35.3114C42.8135 34.6511 43.4101 34.5154 44.3438 34.6867Z" fill="black"/>
<path d="M28.118 71.8336C28.2808 71.8325 28.4435 71.8313 28.6112 71.8302C28.7889 71.8306 28.9666 71.831 29.1497 71.8314C29.3375 71.8306 29.5253 71.8298 29.7188 71.829C30.2334 71.8272 30.748 71.8268 31.2626 71.8272C31.6924 71.8273 32.1223 71.8266 32.5521 71.8258C33.5663 71.8241 34.5805 71.824 35.5947 71.825C36.6404 71.8259 37.6861 71.824 38.7319 71.8207C39.6302 71.8179 40.5286 71.817 41.427 71.8175C41.9633 71.8178 42.4996 71.8174 43.0359 71.8152C43.634 71.8128 44.2321 71.8143 44.8302 71.8161C45.0076 71.8149 45.185 71.8137 45.3678 71.8125C45.6125 71.8141 45.6125 71.8141 45.8623 71.8158C46.0036 71.8158 46.145 71.8158 46.2906 71.8157C46.8794 71.9026 47.3154 72.1477 47.6837 72.6165C47.8309 73.1463 47.7575 73.5321 47.6251 74.0618C47.3067 74.466 47.1224 74.662 46.6126 74.7654C46.4665 74.7657 46.3204 74.7659 46.1698 74.7662C46.0016 74.7679 45.8334 74.7697 45.66 74.7715C45.3843 74.7696 45.3843 74.7696 45.1031 74.7677C44.8119 74.7693 44.8119 74.7693 44.5147 74.771C43.9827 74.7733 43.4508 74.7727 42.9187 74.7707C42.3618 74.7692 41.8049 74.7706 41.248 74.7716C40.3127 74.7728 39.3776 74.7713 38.4423 74.7683C37.3613 74.7649 36.2803 74.766 35.1992 74.7694C34.2708 74.7723 33.3425 74.7727 32.4141 74.771C31.8597 74.77 31.3054 74.7699 30.751 74.772C30.133 74.7741 29.515 74.7712 28.897 74.7677C28.7133 74.7689 28.5295 74.7702 28.3401 74.7715C28.0878 74.7689 28.0878 74.7689 27.8303 74.7662C27.6842 74.7659 27.5381 74.7657 27.3876 74.7654C26.878 74.662 26.694 74.4651 26.3751 74.0618C26.2088 73.452 26.1567 73.1151 26.4044 72.5286C26.8992 71.9313 27.3604 71.8353 28.118 71.8336Z" fill="black"/>
<path d="M54.9662 5.31178C55.4718 5.58405 55.5637 5.69801 55.7474 6.24928C55.7663 6.61025 55.7748 6.97181 55.7767 7.33326C55.7789 7.52481 55.7812 7.71636 55.7834 7.91371C55.7496 8.40583 55.7135 8.66286 55.4349 9.06178C54.9399 9.3918 54.633 9.42609 54.0494 9.46156C53.5004 9.31776 53.2759 9.03732 52.9349 8.59303C52.8556 8.13769 52.8248 7.7945 52.8373 7.34303C52.8343 7.23386 52.8312 7.1247 52.8281 7.01222C52.8339 6.40323 52.9181 6.11485 53.292 5.62916C53.9251 5.1555 54.1926 5.21355 54.9662 5.31178Z" fill="black"/>
<path d="M20.2856 5.31213C20.8623 5.74067 21.0462 5.97452 21.1707 6.68908C21.1727 6.90718 21.1706 7.12535 21.1646 7.34338C21.1691 7.50713 21.1691 7.50713 21.1737 7.67419C21.168 8.28305 21.0839 8.57128 20.7098 9.05663C20.0743 9.53307 19.8127 9.48563 19.0356 9.37463C18.6558 9.08241 18.4668 8.86191 18.2544 8.43712C18.231 8.08284 18.2198 7.7277 18.2153 7.37267C18.2113 7.18153 18.2073 6.99038 18.2031 6.79345C18.2577 6.21438 18.3738 5.92708 18.7231 5.46838C19.2166 5.22166 19.7554 5.18411 20.2856 5.31213Z" fill="black"/>
</g>
<defs>
<clipPath id="clip0_43_824">
<rect width="80" height="80" fill="white"/>
</clipPath>
</defs>
</svg>
