<svg width="50" height="50" viewBox="0 0 50 50" fill="none" xmlns="http://www.w3.org/2000/svg">
<path d="M11.4844 3.08594C11.1523 3.19336 10.8594 3.38867 10.4883 3.75C9.63867 4.59961 9.66797 4.36523 9.66797 11.2793V17.2461L9.26758 17.627C8.01758 18.8477 7.00195 20.9473 6.34766 23.6816C5.97656 25.2246 5.73242 26.7773 5.37109 29.7363C4.91211 33.5547 4.78516 34.4531 4.56055 35.498C4.38477 36.3574 4.35547 36.8262 4.33594 39.3359L4.32617 42.1973L3.99414 42.3633C3.81836 42.4512 3.56445 42.6758 3.44727 42.8613C3.24219 43.1641 3.22266 43.3008 3.22266 44.6191C3.22266 46.2207 3.31055 46.4941 3.92578 46.875C4.23828 47.0605 4.43359 47.0703 9.48242 47.0703H14.7168L15.0488 46.8457C15.6152 46.4648 15.7227 46.123 15.7227 44.6289C15.7227 43.1738 15.625 42.8223 15.1074 42.4414C14.8828 42.2754 14.6484 42.2266 13.8574 42.207L12.8809 42.168L12.9492 41.7676C12.9785 41.543 13.0664 41.2109 13.1348 41.0156L13.252 40.6738H25H36.748L36.8652 41.0156C36.9336 41.2109 37.0215 41.543 37.0508 41.7676L37.1191 42.168L36.1426 42.207C35.3516 42.2266 35.1172 42.2754 34.8926 42.4414C34.375 42.8223 34.2773 43.1738 34.2773 44.6289C34.2773 46.123 34.3848 46.4648 34.9512 46.8457L35.2832 47.0703H40.5176C45.5664 47.0703 45.7617 47.0605 46.0742 46.875C46.6895 46.4941 46.7773 46.2207 46.7773 44.6191C46.7773 43.3008 46.7578 43.1641 46.5527 42.8613C46.4355 42.6758 46.1816 42.4512 46.0059 42.3633L45.6738 42.1973L45.6641 39.3848C45.6543 36.7676 45.6348 36.4844 45.3906 35.2539C45.2441 34.5312 44.9902 32.793 44.8242 31.3965C44.4043 27.832 44.1797 26.25 43.8379 24.5605C43.2129 21.4062 42.1094 18.9648 40.7324 17.627L40.332 17.2461V13.1445V9.0332L37.2754 5.98633L34.2285 2.92969L23.0957 2.93945C13.4863 2.93945 11.8945 2.95898 11.4844 3.08594ZM33.3008 6.09375V7.89062L33.623 8.51562C33.9648 9.17969 34.5508 9.66797 35.2344 9.86328C35.4297 9.91211 36.3574 9.96094 37.2852 9.96094H38.9648V18.9941C38.9648 23.9648 38.9355 28.0273 38.9062 28.0273C38.8672 28.0273 37.9199 27.4414 36.7773 26.7188C34.6094 25.332 34.1211 25.127 33.3789 25.2344C32.168 25.4199 31.2207 26.6406 31.3867 27.8125C31.4551 28.3594 31.6895 28.8477 32.041 29.1895C32.1875 29.3457 33.2031 30.0293 34.2871 30.7129L36.25 31.9629L36.1914 32.5098C35.9375 34.5898 35.957 37.1289 36.2305 38.5645C36.2793 38.8574 36.3281 39.1309 36.3281 39.1699C36.3281 39.2188 31.2891 39.2578 25 39.2578C14.2773 39.2578 13.6719 39.248 13.6719 39.082C13.6719 38.9941 13.7207 38.7305 13.7695 38.4961C14.0332 37.3828 14.0527 34.4434 13.8086 32.5098L13.75 31.9727L15.6836 30.7324C17.9199 29.3066 17.8418 29.3555 18.1836 28.9062C19.4531 27.2266 17.7637 24.7461 15.7227 25.293C15.4785 25.3613 14.3848 25.9766 13.2129 26.7188C12.0703 27.4414 11.123 28.0273 11.0938 28.0273C11.0547 28.0273 11.0352 22.9102 11.0352 16.6504C11.0352 4.08203 10.9961 4.89258 11.6504 4.49219C11.9531 4.30664 12.2266 4.29688 22.6367 4.29688H33.3008V6.09375ZM36.377 6.93359L38.0371 8.59375H36.7383H35.4492L35.0977 8.27148C34.8438 8.04688 34.7266 7.83203 34.6582 7.51953C34.5605 6.97266 34.541 5.27344 34.6484 5.27344C34.6875 5.27344 35.4688 6.01562 36.377 6.93359ZM9.88281 29.7852C9.98047 29.8926 10.1758 29.9805 10.3125 29.9805C10.4785 29.9805 11.5332 29.375 13.2617 28.2715C15.0684 27.1191 16.0449 26.5625 16.2305 26.5625C17.1387 26.5625 17.6172 27.5684 17.0215 28.2129C16.8652 28.3691 15.791 29.1016 14.6191 29.834C13.2715 30.6836 12.4512 31.2598 12.4023 31.3965C12.3535 31.5234 12.373 31.9824 12.4609 32.5195C12.8809 35.3613 12.6465 38.5645 11.8555 40.625C11.7676 40.8691 11.6602 41.3086 11.6309 41.6016L11.5723 42.1387L8.67188 42.168L5.76172 42.1875L5.71289 41.9727C5.68359 41.8457 5.67383 40.5859 5.68359 39.1602C5.71289 36.875 5.75195 36.4062 5.97656 35.1562C6.12305 34.375 6.37695 32.5781 6.54297 31.1523C7.32422 24.4824 7.98828 21.7285 9.29688 19.7363L9.61914 19.2285L9.66797 24.4043C9.7168 29.1406 9.72656 29.5996 9.88281 29.7852ZM41.2598 20.752C42.2461 22.8223 42.666 24.7949 43.4082 30.8203C43.6523 32.7539 43.9551 34.9414 44.0918 35.6738C44.3164 36.875 44.3359 37.2461 44.3359 39.4727C44.3359 40.8301 44.2969 42.002 44.2578 42.0703C44.1895 42.1582 43.5352 42.1875 41.2988 42.168L38.4277 42.1387L38.3691 41.6016C38.3398 41.3086 38.2227 40.8203 38.1152 40.5273C37.3438 38.4082 37.1191 35.3711 37.5391 32.4707C37.6074 31.9824 37.6367 31.4941 37.5879 31.3867C37.5488 31.2598 36.6895 30.6543 35.3809 29.834C34.209 29.1016 33.1348 28.3691 32.9883 28.2129C32.3828 27.5781 32.8613 26.5625 33.7695 26.5625C33.9551 26.5625 34.873 27.0898 36.7383 28.2715C38.2227 29.209 39.5312 29.9805 39.6582 29.9805C39.7754 29.9805 39.9805 29.8828 40.1074 29.7656L40.332 29.5605V24.375V19.1992L40.5859 19.541C40.7227 19.7266 41.0254 20.2637 41.2598 20.752ZM14.3555 44.6289V45.7031H9.47266H4.58984V44.6289V43.5547H9.47266H14.3555V44.6289ZM45.4102 44.6289V45.7031H40.5273H35.6445V44.6289V43.5547H40.5273H45.4102V44.6289Z" fill="black"/>
<path d="M19.3848 7.46094C18.418 7.76367 17.627 8.41797 17.207 9.24805C16.9336 9.77539 16.7676 10.6836 16.8457 11.2207C16.9238 11.7773 17.2852 12.5977 17.6758 13.0859L17.9688 13.4473L17.3926 13.7988C16.6699 14.248 15.7617 15.2148 15.3613 15.9668C14.7949 17.0508 14.7461 17.4219 14.7461 20.8105C14.7461 22.5 14.7852 23.9258 14.8242 23.9844C15.0293 24.2969 15.332 24.3164 20.3125 24.3164C25.293 24.3164 25.5957 24.2969 25.8008 23.9844C25.8398 23.9258 25.8789 22.4902 25.8789 20.8008C25.8789 17.3926 25.8398 17.0508 25.2637 15.9766C24.8633 15.2246 23.9551 14.248 23.2324 13.8086L22.6758 13.457L23.0566 12.959C23.5742 12.2754 23.7793 11.6406 23.7695 10.7422C23.7695 9.22852 22.7734 7.91992 21.2891 7.48047C20.6738 7.29492 19.9316 7.28516 19.3848 7.46094ZM21.2598 8.89648C22.6367 9.56055 22.8711 11.3672 21.709 12.4121C20.8594 13.1738 19.6875 13.1348 18.8477 12.3145C18.125 11.6211 17.9785 10.8008 18.3984 9.90234C18.623 9.4043 19.0625 8.98438 19.5312 8.79883C19.9609 8.63281 20.8008 8.67188 21.2598 8.89648ZM22.1875 14.7754C23.3887 15.3711 24.2285 16.4355 24.502 17.7539C24.5605 18.0469 24.6094 19.2676 24.6094 20.6055V22.9492H20.3125H16.0156V20.6641C16.0156 19.4141 16.0547 18.1445 16.1133 17.8613C16.2695 17.0215 16.8262 15.9961 17.4023 15.4785C18.3691 14.6094 19.1016 14.3457 20.4688 14.3848C21.3867 14.4043 21.5039 14.4336 22.1875 14.7754Z" fill="black"/>
<path d="M31.541 8.27304C31.4628 8.31211 30.8671 8.81015 30.2128 9.38632L29.0312 10.441L28.5722 9.9625C28.0644 9.42539 27.8007 9.35703 27.4296 9.65C27.0195 9.99179 27.1269 10.3434 27.9179 11.2223C28.8945 12.3062 28.9531 12.3062 30.291 11.1246C31.9121 9.67929 32.4199 9.16171 32.4199 8.92734C32.4199 8.51718 31.9023 8.13632 31.541 8.27304Z" fill="black"/>
<path d="M31.2885 14.5688C31.1323 14.686 30.5756 15.1743 30.0581 15.6431C29.5307 16.1118 29.0717 16.5024 29.0424 16.5024C29.0034 16.5024 28.7983 16.3071 28.5737 16.063C28.2612 15.7309 28.0854 15.6235 27.8608 15.6235C27.3237 15.6235 27.0405 16.2192 27.3627 16.6782C27.4311 16.7856 27.7631 17.1665 28.0952 17.5181C28.9741 18.4653 28.8667 18.4946 31.0444 16.561C32.5385 15.2231 32.6655 15.0083 32.1967 14.5688C31.9038 14.2954 31.6401 14.2954 31.2885 14.5688Z" fill="black"/>
<path d="M30.2538 21.5805L29.0624 22.6449L28.5546 22.1664C28.2714 21.893 27.998 21.6781 27.9394 21.6781C27.7148 21.6781 27.3534 21.9125 27.2558 22.1274C27.0995 22.4692 27.2363 22.7133 28.0566 23.5727C28.7206 24.2758 28.8085 24.3344 29.0624 24.2758C29.2968 24.2172 31.5722 22.2934 32.207 21.6098C32.6171 21.1606 32.3437 20.5063 31.7382 20.5063C31.5136 20.5063 31.2109 20.7211 30.2538 21.5805Z" fill="black"/>
<path d="M17.8399 31.2305C17.6251 31.4746 17.6348 31.9629 17.8497 32.1582C18.0157 32.3145 18.6309 32.3242 24.6368 32.3242C31.1212 32.3242 31.2481 32.3242 31.4434 32.1289C31.6778 31.8945 31.6973 31.5723 31.4825 31.2695L31.336 31.0547H24.6661C18.3282 31.0547 17.9864 31.0645 17.8399 31.2305Z" fill="black"/>
<path d="M17.7734 35.2539C17.666 35.3613 17.5781 35.5566 17.5781 35.6934C17.5781 35.8301 17.666 36.0254 17.7734 36.1328C17.9688 36.3281 18.0957 36.3281 25 36.3281C31.9043 36.3281 32.0312 36.3281 32.2266 36.1328C32.334 36.0254 32.4219 35.8301 32.4219 35.6934C32.4219 35.5566 32.334 35.3613 32.2266 35.2539C32.0312 35.0586 31.9043 35.0586 25 35.0586C18.0957 35.0586 17.9688 35.0586 17.7734 35.2539Z" fill="black"/>
</svg>
