<svg width="70" height="70" viewBox="0 0 70 70" fill="none" xmlns="http://www.w3.org/2000/svg">
<circle cx="35" cy="35" r="35" fill="#FFE8AF"/>
<path d="M24.8228 18.453C25.3294 18.8685 25.6375 19.3428 25.7827 19.9823C25.8075 20.2735 25.8043 20.5608 25.7968 20.8528C25.7922 21.1121 25.7875 21.3714 25.7827 21.6386C26.8014 21.6386 27.82 21.6386 28.8695 21.6386C28.8695 21.1666 28.8695 20.6945 28.8695 20.2081C29.0378 19.4507 29.2427 18.864 29.9036 18.42C30.5948 18.0387 31.2077 17.9128 31.9705 18.1189C32.581 18.324 33.0183 18.7045 33.3868 19.2294C33.6404 19.7456 33.6399 20.2049 33.6268 20.7728C33.6221 21.0585 33.6175 21.3442 33.6127 21.6386C34.6562 21.6386 35.6997 21.6386 36.7748 21.6386C36.763 21.0744 36.763 21.0744 36.7477 20.5103C36.7397 19.7565 36.9446 19.2366 37.4586 18.6865C37.9848 18.1956 38.5857 17.9815 39.3028 18.0013C39.9054 18.079 40.4894 18.3421 40.9156 18.7777C41.5912 19.6608 41.5179 20.5111 41.5179 21.6386C42.5366 21.6386 43.5552 21.6386 44.6048 21.6386C44.5985 21.3824 44.5923 21.1262 44.5859 20.8622C44.5798 19.953 44.6874 19.2996 45.3362 18.623C45.8596 18.1774 46.4512 17.9976 47.1298 18.0089C47.8119 18.0674 48.3372 18.3443 48.8 18.8418C49.2996 19.458 49.382 20.0768 49.362 20.8528C49.361 20.9287 49.36 21.0047 49.3589 21.0829C49.3563 21.2682 49.3526 21.4534 49.3479 21.6386C49.4384 21.6369 49.5288 21.6351 49.622 21.6333C50.6467 21.6347 51.6108 22.1071 52.3403 22.8073C53.1225 23.6667 53.3846 24.6192 53.3769 25.7611C53.3773 25.8626 53.3779 25.9642 53.3785 26.0657C53.3799 26.3422 53.3794 26.6186 53.3786 26.8951C53.3781 27.1943 53.3793 27.4934 53.3803 27.7926C53.3819 28.3777 53.3819 28.9628 53.3813 29.548C53.3808 30.0239 53.3809 30.4998 53.3814 30.9757C53.3815 31.0436 53.3815 31.1114 53.3816 31.1814C53.3818 31.3193 53.3819 31.4572 53.382 31.5951C53.3833 32.887 53.3826 34.1788 53.3814 35.4707C53.3803 36.6507 53.3814 37.8308 53.3835 39.0108C53.3857 40.2245 53.3866 41.4381 53.3858 42.6518C53.3858 42.7892 53.3857 42.9267 53.3856 43.0642C53.3856 43.1656 53.3856 43.1656 53.3855 43.2691C53.3853 43.7439 53.3861 44.2187 53.3872 44.6935C53.3885 45.2729 53.3885 45.8523 53.3868 46.4317C53.3859 46.7269 53.3857 47.0221 53.3871 47.3173C53.3947 49.0281 53.312 50.3758 52.0912 51.6927C50.9941 52.7335 49.6743 53.0064 48.206 52.9967C48.0885 52.9971 47.9709 52.9975 47.8533 52.9981C47.5339 52.9994 47.2145 52.9988 46.895 52.9978C46.5491 52.9972 46.2032 52.9982 45.8573 52.999C45.1811 53.0004 44.5049 53.0001 43.8287 52.9992C43.2788 52.9985 42.7289 52.9984 42.179 52.9988C42.1005 52.9988 42.022 52.9989 41.9412 52.9989C41.7817 52.999 41.6223 52.9991 41.4628 52.9992C39.9701 53.0001 38.4774 52.9991 36.9846 52.9975C35.7057 52.9961 34.4268 52.9963 33.1479 52.9977C31.6603 52.9994 30.1727 53 28.685 52.9991C28.5262 52.999 28.3673 52.9989 28.2085 52.9988C28.1303 52.9987 28.0522 52.9987 27.9717 52.9986C27.4229 52.9984 26.8741 52.9988 26.3253 52.9995C25.6559 53.0004 24.9864 53.0001 24.317 52.9985C23.9759 52.9977 23.6348 52.9974 23.2937 52.9984C22.9807 52.9993 22.6677 52.9988 22.3547 52.9972C22.2422 52.9969 22.1297 52.9971 22.0173 52.9978C20.6191 53.0063 19.3902 52.6931 18.3557 51.7095C17.8113 51.1515 17.4524 50.6126 17.1999 49.8717C17.1609 49.765 17.1609 49.765 17.1211 49.6562C17.0021 49.2314 17.0278 48.7913 17.0287 48.3537C17.0283 48.2525 17.0279 48.1512 17.0275 48.05C17.0264 47.7725 17.0263 47.495 17.0263 47.2175C17.0262 46.918 17.0252 46.6184 17.0243 46.3188C17.0226 45.6641 17.022 45.0093 17.0216 44.3546C17.0214 43.9454 17.0209 43.5363 17.0203 43.1272C17.0189 41.9935 17.0176 40.8598 17.0174 39.7261C17.0174 39.6536 17.0174 39.5811 17.0174 39.5064C17.0174 39.3594 17.0173 39.2124 17.0173 39.0654C17.0173 38.9925 17.0173 38.9195 17.0173 38.8443C17.0172 38.7713 17.0172 38.6982 17.0172 38.623C17.0169 37.4399 17.0149 36.2569 17.0121 35.0738C17.0092 33.8581 17.0078 32.6423 17.0078 31.4265C17.0077 30.7444 17.0071 30.0623 17.0049 29.3801C17.003 28.7991 17.0025 28.2182 17.0036 27.6372C17.0042 27.3411 17.0041 27.045 17.0024 26.7489C17.0008 26.4771 17.001 26.2054 17.0026 25.9337C17.003 25.7902 17.0015 25.6468 17 25.5034C17.0107 24.3893 17.4235 23.5107 18.1636 22.6935C18.953 21.9312 19.9692 21.6285 21.0396 21.6386C21.038 21.5928 21.0364 21.5469 21.0348 21.4997C20.9774 19.5792 20.9774 19.5792 21.6136 18.7871C22.461 17.9033 23.8118 17.7462 24.8228 18.453ZM22.3289 19.5258C22.0829 19.8804 21.9996 20.15 21.9964 20.5807C21.9955 20.6692 21.9945 20.7576 21.9935 20.8488C21.9934 20.9438 21.9932 21.0387 21.993 21.1366C21.9925 21.2349 21.992 21.3332 21.9915 21.4345C21.9906 21.6424 21.9903 21.8503 21.9904 22.0582C21.9904 22.3232 21.9884 22.5882 21.9858 22.8532C21.9837 23.1076 21.9838 23.362 21.9836 23.6164C21.9825 23.7109 21.9814 23.8054 21.9803 23.9028C21.9833 24.4753 22.0173 24.9288 22.4258 25.3663C22.7297 25.6378 22.9964 25.7623 23.397 25.8077C23.8438 25.7623 24.1947 25.5971 24.4934 25.2571C24.7394 24.9026 24.8227 24.633 24.8258 24.2023C24.8268 24.1138 24.8278 24.0254 24.8288 23.9342C24.8289 23.8392 24.8291 23.7442 24.8293 23.6464C24.8298 23.5481 24.8303 23.4498 24.8308 23.3485C24.8317 23.1406 24.832 22.9327 24.8319 22.7248C24.8319 22.4598 24.8339 22.1948 24.8365 21.9298C24.8386 21.6754 24.8385 21.421 24.8387 21.1666C24.8398 21.0721 24.8408 20.9775 24.842 20.8802C24.839 20.3077 24.805 19.8542 24.3965 19.4167C24.0926 19.1452 23.8258 19.0206 23.4253 18.9753C22.9785 19.0207 22.6276 19.1859 22.3289 19.5258ZM30.1494 19.5305C29.9193 19.925 29.8394 20.243 29.8361 20.6951C29.8354 20.7775 29.8347 20.86 29.834 20.9449C29.8336 21.0337 29.8333 21.1225 29.833 21.2139C29.8326 21.3057 29.8321 21.3974 29.8317 21.4919C29.831 21.6861 29.8305 21.8802 29.8302 22.0744C29.8295 22.3705 29.8271 22.6665 29.8247 22.9626C29.8243 23.1514 29.8239 23.3402 29.8236 23.529C29.8226 23.6172 29.8217 23.7054 29.8208 23.7962C29.8224 24.3883 29.8814 24.863 30.2435 25.3513C30.5478 25.6486 30.8198 25.7626 31.2411 25.8077C31.7466 25.7535 32.0832 25.5652 32.4081 25.1772C32.5951 24.856 32.6623 24.6234 32.6632 24.2528C32.6639 24.1609 32.6646 24.0689 32.6653 23.9741C32.6649 23.8758 32.6644 23.7774 32.6639 23.6761C32.6641 23.5732 32.6643 23.4702 32.6646 23.3673C32.6649 23.1521 32.6644 22.937 32.6634 22.7218C32.6621 22.4469 32.6628 22.172 32.6642 21.8971C32.665 21.6847 32.6647 21.4724 32.6642 21.26C32.6639 21.1096 32.6646 20.9592 32.6653 20.8088C32.6646 20.7169 32.6639 20.6249 32.6632 20.5302C32.6629 20.4093 32.6629 20.4093 32.6626 20.2861C32.6054 19.83 32.3774 19.5201 32.0316 19.2294C31.3294 18.8591 30.7231 18.9728 30.1494 19.5305ZM38.1488 19.4035C37.8486 19.7621 37.7257 20.0664 37.7207 20.5335C37.7193 20.6262 37.7178 20.719 37.7164 20.8145C37.7161 20.9138 37.7159 21.0131 37.7156 21.1154C37.7149 21.2195 37.7141 21.3236 37.7133 21.4276C37.712 21.6454 37.7115 21.8631 37.7117 22.0809C37.7117 22.3584 37.7086 22.6357 37.7047 22.9132C37.7022 23.1281 37.7018 23.343 37.7019 23.5579C37.7015 23.7094 37.699 23.8609 37.6966 24.0124C37.7011 24.6198 37.7834 25.026 38.2053 25.4783C38.5834 25.7664 38.9397 25.8186 39.4099 25.7795C39.8513 25.6326 40.1322 25.4112 40.3886 25.0266C40.5749 24.5401 40.5622 24.0631 40.5618 23.547C40.5623 23.4099 40.5623 23.4099 40.5628 23.27C40.5632 23.0772 40.5633 22.8844 40.563 22.6916C40.5627 22.3975 40.5645 22.1034 40.5664 21.8093C40.5666 21.6216 40.5666 21.4338 40.5665 21.246C40.5672 21.1585 40.5679 21.0711 40.5686 20.981C40.5649 20.327 40.4877 19.7942 40.0122 19.3047C39.4352 18.8295 38.6902 18.9482 38.1488 19.4035ZM45.8941 19.5258C45.6481 19.8804 45.5648 20.15 45.5616 20.5807C45.5607 20.6692 45.5597 20.7576 45.5587 20.8488C45.5585 20.9438 45.5584 21.0387 45.5582 21.1366C45.5577 21.2349 45.5572 21.3332 45.5567 21.4345C45.5558 21.6424 45.5555 21.8503 45.5556 22.0582C45.5556 22.3232 45.5536 22.5882 45.551 22.8532C45.5489 23.1076 45.549 23.362 45.5488 23.6164C45.5477 23.7109 45.5466 23.8054 45.5455 23.9028C45.5485 24.4753 45.5825 24.9288 45.991 25.3663C46.2949 25.6378 46.5616 25.7623 46.9622 25.8077C47.409 25.7623 47.7599 25.5971 48.0586 25.2571C48.3046 24.9026 48.3878 24.633 48.391 24.2023C48.392 24.1138 48.393 24.0254 48.3939 23.9342C48.3941 23.8392 48.3943 23.7442 48.3945 23.6464C48.395 23.5481 48.3955 23.4498 48.396 23.3485C48.3969 23.1406 48.3972 22.9327 48.3971 22.7248C48.397 22.4598 48.3991 22.1948 48.4017 21.9298C48.4038 21.6754 48.4037 21.421 48.4039 21.1666C48.4049 21.0721 48.406 20.9775 48.4071 20.8802C48.4042 20.3077 48.3702 19.8542 47.9617 19.4167C47.6578 19.1452 47.391 19.0206 46.9904 18.9753C46.5437 19.0207 46.1927 19.1859 45.8941 19.5258ZM18.8389 23.4432C17.3768 24.9573 17.9528 27.4955 17.9528 29.318C29.307 29.318 40.6612 29.318 52.3594 29.318C52.6941 26.1672 52.6941 26.1672 51.5313 23.4455C50.892 22.8611 50.2042 22.6134 49.3479 22.6174C49.3468 22.7101 49.3468 22.7101 49.3458 22.8046C49.3424 23.038 49.3378 23.2713 49.3323 23.5047C49.3292 23.6537 49.3275 23.8028 49.3258 23.9518C49.3051 24.7712 49.1813 25.4901 48.6 26.1015C48.0638 26.5485 47.4732 26.7126 46.7887 26.7035C46.1299 26.6436 45.5565 26.3642 45.1318 25.8547C44.812 25.3372 44.6748 24.8992 44.6562 24.2937C44.6533 24.2058 44.6505 24.1179 44.6475 24.0273C44.6443 23.9161 44.641 23.8048 44.6377 23.6902C44.6268 23.3362 44.616 22.9821 44.6048 22.6174C43.5861 22.6174 42.5675 22.6174 41.5179 22.6174C41.4992 23.231 41.4992 23.231 41.4819 23.8447C41.4537 24.6642 41.3669 25.3488 40.8403 26.0053C40.4429 26.3656 40.0236 26.6265 39.4852 26.6829C39.4272 26.689 39.3693 26.6951 39.3096 26.7014C38.6568 26.7354 38.0726 26.5482 37.57 26.1277C37.0428 25.622 36.8369 25.1231 36.8189 24.3966C36.8149 24.2562 36.8149 24.2562 36.8108 24.1129C36.8082 23.9951 36.8057 23.8774 36.803 23.7561C36.7937 23.3803 36.7844 23.0045 36.7748 22.6174C35.7313 22.6174 34.6878 22.6174 33.6127 22.6174C33.5999 23.3549 33.5999 23.3549 33.5903 24.0925C33.5702 24.9025 33.4251 25.4899 32.8648 26.0962C32.3555 26.5381 31.7674 26.7092 31.1067 26.6985C30.4604 26.6492 29.9132 26.411 29.4718 25.93C29.1091 25.3547 28.9434 24.8444 28.921 24.1687C28.9181 24.0871 28.9153 24.0055 28.9123 23.9214C28.9091 23.8187 28.9058 23.716 28.9025 23.6102C28.8862 23.1188 28.8862 23.1188 28.8695 22.6174C27.8509 22.6174 26.8322 22.6174 25.7827 22.6174C25.7699 23.2986 25.7699 23.2986 25.7603 23.9798C25.7388 24.7888 25.6084 25.4992 25.0345 26.1015C24.4641 26.5779 23.802 26.7455 23.0723 26.6829C22.3759 26.5557 21.8718 26.2508 21.4631 25.6712C21.1776 25.2383 21.0973 24.7837 21.0837 24.2716C21.0793 24.1264 21.0793 24.1264 21.0749 23.9783C21.0725 23.8776 21.0701 23.7768 21.0678 23.6761C21.0649 23.5733 21.062 23.4705 21.059 23.3677C21.0519 23.1176 21.0455 22.8675 21.0396 22.6174C20.1881 22.6103 19.4824 22.8751 18.8389 23.4432ZM17.9528 30.2215C17.9496 33.206 17.9465 36.1905 17.9433 39.2654C17.942 40.207 17.9406 41.1487 17.9392 42.1188C17.9387 42.9645 17.9387 42.9645 17.9384 43.8101C17.9382 44.1861 17.9377 44.5622 17.9369 44.9382C17.9358 45.4186 17.9355 45.899 17.9357 46.3794C17.9357 46.5552 17.9354 46.731 17.9348 46.9069C17.914 49.0951 17.914 49.0951 18.9738 50.9586C19.9188 51.833 21.0146 52.0028 22.2592 51.9994C22.3753 51.9996 22.4914 51.9999 22.6075 52.0002C22.9253 52.001 23.243 52.0008 23.5608 52.0005C23.904 52.0003 24.2472 52.001 24.5904 52.0016C25.2623 52.0025 25.9342 52.0027 26.6061 52.0025C27.1523 52.0024 27.6986 52.0025 28.2448 52.0028C28.3226 52.0029 28.4004 52.0029 28.4806 52.0029C28.6386 52.003 28.7967 52.0031 28.9547 52.0032C30.4365 52.004 31.9182 52.0039 33.3999 52.0034C34.7547 52.003 36.1094 52.0039 37.4642 52.0053C38.856 52.0068 40.2479 52.0074 41.6398 52.0071C42.4209 52.007 43.202 52.0071 43.9831 52.0082C44.6481 52.0091 45.3131 52.0092 45.9781 52.0083C46.3172 52.0079 46.6562 52.0078 46.9953 52.0087C47.3062 52.0095 47.617 52.0093 47.9278 52.0082C48.0398 52.008 48.1518 52.0082 48.2639 52.0088C49.468 52.0148 50.4913 51.7989 51.3995 50.9633C52.5538 49.7356 52.457 48.2231 52.4518 46.649C52.4518 46.4665 52.4518 46.2839 52.4519 46.1014C52.4519 45.6151 52.451 45.1288 52.45 44.6425C52.4491 44.1852 52.4491 43.7279 52.449 43.2706C52.4482 41.9355 52.4461 40.6005 52.4441 39.2654C52.441 36.2809 52.4379 33.2964 52.4347 30.2215C41.0557 30.2215 29.6766 30.2215 17.9528 30.2215Z" fill="black" stroke="black" stroke-width="0.3"/>
<path d="M32.2108 42.1444C32.3176 42.1422 32.4245 42.142 32.5314 42.1435C32.5898 42.1429 32.6483 42.1422 32.7084 42.1415C32.9017 42.1399 33.0948 42.141 33.2881 42.1422C33.4223 42.142 33.5565 42.1416 33.6906 42.1411C33.9719 42.1406 34.2532 42.1414 34.5344 42.1432C34.8952 42.1453 35.2559 42.1441 35.6167 42.1418C35.8938 42.1405 36.1709 42.1409 36.448 42.1419C36.581 42.1421 36.7141 42.1418 36.8471 42.1409C37.033 42.14 37.2187 42.1414 37.4046 42.1435C37.4597 42.1428 37.5149 42.142 37.5717 42.1412C37.7252 42.1444 37.7252 42.1444 37.9795 42.1922C38.2396 42.4682 38.2374 42.7689 38.2334 43.1307C38.2337 43.1859 38.234 43.2412 38.2342 43.2981C38.2349 43.4801 38.2338 43.6619 38.2327 43.8439C38.2327 43.9707 38.2327 44.0976 38.2328 44.2244C38.2328 44.49 38.2321 44.7555 38.2307 45.0211C38.229 45.3611 38.2289 45.701 38.2294 46.041C38.2297 46.3029 38.2292 46.5647 38.2285 46.8266C38.2282 46.9519 38.2281 47.0773 38.2282 47.2026C38.2282 47.3779 38.2273 47.5532 38.2261 47.7286C38.2262 47.7801 38.2264 47.8317 38.2266 47.8848C38.2234 48.1769 38.1921 48.4072 38.0548 48.667C37.8296 48.7796 37.5986 48.7534 37.3516 48.7532C37.2947 48.7535 37.2378 48.7537 37.1791 48.754C36.9904 48.7547 36.8016 48.7549 36.6129 48.7549C36.482 48.7552 36.351 48.7554 36.2201 48.7557C35.9455 48.7562 35.6709 48.7563 35.3963 48.7563C35.044 48.7562 34.6918 48.7573 34.3395 48.7586C34.0691 48.7594 33.7987 48.7596 33.5282 48.7595C33.3984 48.7596 33.2685 48.7599 33.1386 48.7605C32.9571 48.7613 32.7756 48.761 32.5941 48.7606C32.5402 48.761 32.4864 48.7614 32.4309 48.7619C32.155 48.7601 32.0422 48.7492 31.8059 48.5917C31.7178 48.3275 31.7189 48.089 31.7185 47.814C31.7181 47.7581 31.7177 47.7021 31.7173 47.6444C31.7162 47.4592 31.7157 47.2741 31.7153 47.0889C31.7149 46.9602 31.7144 46.8314 31.714 46.7027C31.7132 46.4327 31.7128 46.1627 31.7125 45.8927C31.7121 45.5469 31.7103 45.2012 31.7081 44.8555C31.7067 44.5895 31.7064 44.3235 31.7062 44.0575C31.706 43.9301 31.7054 43.8026 31.7044 43.6752C31.7031 43.4968 31.7033 43.3184 31.7038 43.14C31.7031 43.0875 31.7024 43.035 31.7017 42.9809C31.7054 42.5448 31.7438 42.2322 32.2108 42.1444ZM32.7093 43.171C32.7093 44.6865 32.7093 46.2021 32.7093 47.7636C34.2 47.7636 35.6908 47.7636 37.2266 47.7636C37.2266 46.248 37.2266 44.7325 37.2266 43.171C35.7359 43.171 34.2452 43.171 32.7093 43.171Z" fill="black" stroke="black" stroke-width="0.3"/>
<path d="M42.4626 42.1629C42.5202 42.1625 42.5779 42.1621 42.6374 42.1617C42.8282 42.1607 43.0189 42.1613 43.2097 42.1621C43.3422 42.1619 43.4747 42.1617 43.6072 42.1614C43.8849 42.1611 44.1626 42.1616 44.4403 42.1627C44.7965 42.1639 45.1527 42.1632 45.509 42.1618C45.7826 42.161 46.0561 42.1613 46.3297 42.1619C46.4611 42.162 46.5925 42.1618 46.7238 42.1613C46.9073 42.1607 47.0907 42.1616 47.2742 42.1629C47.3287 42.1624 47.3831 42.162 47.4392 42.1615C47.6441 42.1641 47.8064 42.1729 47.9889 42.2705C48.1144 42.5041 48.0995 42.7412 48.0974 42.9998C48.0978 43.059 48.0982 43.1181 48.0986 43.1791C48.0996 43.3748 48.0989 43.5704 48.0981 43.7661C48.0983 43.902 48.0985 44.0378 48.0988 44.1737C48.0991 44.4585 48.0987 44.7433 48.0976 45.0281C48.0963 45.3934 48.0971 45.7587 48.0984 46.1241C48.0992 46.4046 48.099 46.6852 48.0984 46.9658C48.0982 47.1005 48.0984 47.2352 48.0989 47.3699C48.0995 47.5581 48.0986 47.7463 48.0974 47.9344C48.0978 47.9903 48.0983 48.0461 48.0988 48.1037C48.0962 48.312 48.0887 48.4782 47.9889 48.6637C47.7593 48.7866 47.5283 48.7742 47.2742 48.7726C47.2166 48.7731 47.1589 48.7736 47.0994 48.7742C46.9087 48.7755 46.7179 48.7752 46.5271 48.7748C46.3946 48.7752 46.2621 48.7756 46.1296 48.776C45.8519 48.7767 45.5742 48.7765 45.2965 48.7757C44.9403 48.7749 44.5841 48.7764 44.2278 48.7786C43.9543 48.78 43.6807 48.78 43.4071 48.7795C43.2757 48.7795 43.1444 48.78 43.013 48.7809C42.8295 48.782 42.6461 48.7812 42.4626 48.7799C42.4081 48.7807 42.3537 48.7814 42.2976 48.7821C42.0706 48.7788 41.9285 48.7691 41.7479 48.6257C41.6382 48.37 41.6372 48.131 41.6394 47.8575C41.639 47.7991 41.6386 47.7407 41.6382 47.6805C41.6372 47.4876 41.6379 47.2948 41.6387 47.102C41.6385 46.9679 41.6383 46.8339 41.638 46.6998C41.6377 46.419 41.6382 46.1382 41.6392 45.8574C41.6405 45.4972 41.6398 45.137 41.6384 44.7768C41.6376 44.5001 41.6378 44.2233 41.6384 43.9466C41.6386 43.8137 41.6384 43.6809 41.6379 43.5481C41.6373 43.3626 41.6382 43.1772 41.6394 42.9917C41.639 42.9367 41.6385 42.8817 41.638 42.8249C41.6407 42.6184 41.6488 42.4547 41.7479 42.271C41.9775 42.1475 42.2084 42.1607 42.4626 42.1629ZM42.6474 43.1708C42.6474 44.6864 42.6474 46.2019 42.6474 47.7634C44.1133 47.7634 45.5791 47.7634 47.0894 47.7634C47.0894 46.2479 47.0894 44.7323 47.0894 43.1708C45.6235 43.1708 44.1577 43.1708 42.6474 43.1708Z" fill="black" stroke="black" stroke-width="0.3"/>
<path d="M22.6618 42.1619C22.7195 42.1614 22.7771 42.1609 22.8366 42.1603C23.0274 42.159 23.2181 42.1592 23.4089 42.1597C23.5414 42.1593 23.6739 42.1589 23.8064 42.1585C24.0841 42.1578 24.3618 42.158 24.6395 42.1587C24.9958 42.1596 25.352 42.1581 25.7082 42.1559C25.9818 42.1545 26.2554 42.1545 26.529 42.155C26.6603 42.155 26.7917 42.1545 26.923 42.1536C27.1065 42.1525 27.29 42.1533 27.4735 42.1545C27.5279 42.1538 27.5824 42.1531 27.6385 42.1523C27.8658 42.1557 28.0076 42.1653 28.1881 42.3093C28.2971 42.5625 28.2989 42.7981 28.2966 43.0689C28.297 43.1264 28.2974 43.184 28.2978 43.2433C28.2988 43.4334 28.2981 43.6233 28.2974 43.8134C28.2975 43.9456 28.2977 44.0778 28.298 44.21C28.2984 44.4869 28.2979 44.7639 28.2968 45.0408C28.2955 45.3958 28.2963 45.7507 28.2976 46.1056C28.2984 46.3786 28.2982 46.6515 28.2976 46.9245C28.2974 47.0553 28.2976 47.1862 28.2982 47.3171C28.2987 47.5 28.2979 47.6829 28.2966 47.8658C28.2971 47.9199 28.2975 47.974 28.298 48.0297C28.2952 48.2489 28.2751 48.4233 28.1881 48.6254C27.9665 48.8022 27.7448 48.7838 27.4735 48.7802C27.4158 48.7806 27.3581 48.781 27.2987 48.7814C27.1079 48.7823 26.9171 48.7811 26.7263 48.7797C26.5938 48.7798 26.4613 48.7799 26.3289 48.7801C26.0511 48.7802 25.7734 48.7792 25.4957 48.7775C25.1395 48.7754 24.7833 48.7756 24.4271 48.7765C24.1535 48.7771 23.8799 48.7765 23.6063 48.7755C23.4749 48.7752 23.3436 48.7752 23.2122 48.7755C23.0287 48.7757 22.8453 48.7745 22.6618 48.7728C22.6073 48.7731 22.5529 48.7735 22.4968 48.7738C22.292 48.7708 22.1295 48.7615 21.9471 48.6639C21.8216 48.4304 21.8365 48.1932 21.8387 47.9347C21.8383 47.8755 21.8379 47.8164 21.8375 47.7554C21.8365 47.5597 21.8371 47.3641 21.8379 47.1684C21.8377 47.0325 21.8375 46.8967 21.8372 46.7608C21.8369 46.476 21.8374 46.1912 21.8384 45.9064C21.8397 45.5411 21.839 45.1758 21.8376 44.8104C21.8368 44.5298 21.8371 44.2493 21.8377 43.9687C21.8378 43.834 21.8376 43.6993 21.8371 43.5646C21.8365 43.3764 21.8374 43.1882 21.8387 43.0001C21.8382 42.9442 21.8377 42.8883 21.8373 42.8308C21.8399 42.6224 21.8474 42.4563 21.9471 42.2708C22.1767 42.1479 22.4077 42.1603 22.6618 42.1619ZM22.8466 43.1711C22.8466 44.6866 22.8466 46.2022 22.8466 47.7636C24.3125 47.7636 25.7783 47.7636 27.2886 47.7636C27.2886 46.2481 27.2886 44.7325 27.2886 43.1711C25.8228 43.1711 24.3569 43.1711 22.8466 43.1711Z" fill="black" stroke="black" stroke-width="0.3"/>
<path d="M42.4626 32.8187C42.5202 32.8183 42.5779 32.8179 42.6374 32.8175C42.8282 32.8165 43.0189 32.8178 43.2097 32.8191C43.3422 32.8191 43.4747 32.819 43.6072 32.8188C43.8849 32.8187 44.1626 32.8196 44.4403 32.8214C44.7965 32.8235 45.1527 32.8233 45.509 32.8223C45.7826 32.8218 46.0561 32.8224 46.3297 32.8233C46.4611 32.8237 46.5925 32.8237 46.7238 32.8234C46.9073 32.8232 47.0907 32.8244 47.2742 32.8261C47.3559 32.8256 47.3559 32.8256 47.4392 32.825C47.644 32.8281 47.8065 32.8373 47.9889 32.935C48.1145 33.1685 48.0995 33.4057 48.0974 33.6642C48.0978 33.7234 48.0982 33.7825 48.0986 33.8435C48.0996 34.0391 48.0989 34.2348 48.0981 34.4305C48.0983 34.5663 48.0985 34.7022 48.0988 34.8381C48.0991 35.1229 48.0987 35.4077 48.0976 35.6925C48.0963 36.0578 48.0971 36.4231 48.0984 36.7885C48.0992 37.069 48.099 37.3496 48.0984 37.6302C48.0982 37.7649 48.0984 37.8996 48.0989 38.0343C48.0995 38.2225 48.0986 38.4106 48.0974 38.5988C48.0978 38.6547 48.0983 38.7105 48.0988 38.7681C48.0962 38.9764 48.0887 39.1426 47.9889 39.3281C47.7593 39.451 47.5283 39.4386 47.2742 39.437C47.2166 39.4375 47.1589 39.438 47.0994 39.4385C46.9087 39.4399 46.7179 39.4396 46.5271 39.4392C46.3946 39.4395 46.2621 39.4399 46.1296 39.4404C45.8519 39.4411 45.5742 39.4409 45.2965 39.4401C44.9403 39.4393 44.5841 39.4408 44.2278 39.443C43.9543 39.4444 43.6807 39.4443 43.4071 39.4439C43.2757 39.4439 43.1444 39.4444 43.013 39.4453C42.8295 39.4464 42.6461 39.4456 42.4626 39.4443C42.4081 39.4451 42.3537 39.4458 42.2976 39.4465C42.0702 39.4432 41.9284 39.4336 41.7479 39.2896C41.639 39.0364 41.6371 38.8008 41.6394 38.53C41.639 38.4724 41.6386 38.4149 41.6382 38.3555C41.6372 38.1655 41.6379 37.9755 41.6387 37.7855C41.6385 37.6533 41.6383 37.5211 41.638 37.3889C41.6377 37.112 41.6382 36.835 41.6392 36.5581C41.6405 36.2031 41.6398 35.8482 41.6384 35.4932C41.6376 35.2203 41.6378 34.9474 41.6384 34.6744C41.6386 34.5435 41.6384 34.4126 41.6379 34.2818C41.6373 34.0988 41.6382 33.916 41.6394 33.733C41.639 33.679 41.6385 33.6249 41.638 33.5692C41.6408 33.35 41.6609 33.1756 41.7479 32.9735C41.9695 32.7967 42.1912 32.8151 42.4626 32.8187ZM42.6474 33.8352C42.6474 35.3508 42.6474 36.8663 42.6474 38.4278C44.1133 38.4278 45.5791 38.4278 47.0894 38.4278C47.0894 36.9123 47.0894 35.3967 47.0894 33.8352C45.6235 33.8352 44.1577 33.8352 42.6474 33.8352Z" fill="black" stroke="black" stroke-width="0.3"/>
<path d="M22.6618 32.826C22.7195 32.8254 22.7771 32.8249 22.8366 32.8244C23.0274 32.823 23.2181 32.8233 23.4089 32.8237C23.5414 32.8234 23.6739 32.823 23.8064 32.8225C24.0841 32.8219 24.3618 32.8221 24.6395 32.8228C24.9958 32.8237 25.352 32.8221 25.7082 32.8199C25.9818 32.8186 26.2554 32.8186 26.529 32.819C26.6603 32.819 26.7917 32.8186 26.923 32.8176C27.1065 32.8165 27.29 32.8173 27.4735 32.8186C27.5279 32.8179 27.5824 32.8172 27.6385 32.8164C27.8658 32.8198 28.0076 32.8293 28.1881 32.9734C28.2971 33.2265 28.2989 33.4621 28.2966 33.7329C28.297 33.7905 28.2974 33.8481 28.2978 33.9074C28.2988 34.0974 28.2981 34.2874 28.2974 34.4774C28.2975 34.6096 28.2977 34.7418 28.298 34.874C28.2984 35.151 28.2979 35.4279 28.2968 35.7049C28.2955 36.0598 28.2963 36.4147 28.2976 36.7697C28.2984 37.0426 28.2982 37.3156 28.2976 37.5885C28.2974 37.7194 28.2976 37.8503 28.2982 37.9812C28.2987 38.1641 28.2979 38.347 28.2966 38.5299C28.2971 38.584 28.2975 38.638 28.298 38.6937C28.2952 38.9129 28.2751 39.0874 28.1881 39.2895C27.9665 39.4663 27.7448 39.4479 27.4735 39.4442C27.4158 39.4446 27.3581 39.445 27.2987 39.4455C27.1079 39.4464 26.9171 39.4452 26.7263 39.4438C26.5938 39.4438 26.4613 39.4439 26.3289 39.4441C26.0511 39.4442 25.7734 39.4433 25.4957 39.4416C25.1395 39.4394 24.7833 39.4396 24.4271 39.4406C24.1535 39.4411 23.8799 39.4405 23.6063 39.4396C23.4749 39.4393 23.3436 39.4392 23.2122 39.4395C23.0287 39.4398 22.8453 39.4385 22.6618 39.4369C22.6073 39.4372 22.5529 39.4376 22.4968 39.4379C22.292 39.4348 22.1295 39.4256 21.9471 39.328C21.8216 39.0945 21.8365 38.8573 21.8387 38.5987C21.8383 38.5396 21.8379 38.4804 21.8375 38.4195C21.8365 38.2238 21.8371 38.0281 21.8379 37.8325C21.8377 37.6966 21.8375 37.5607 21.8372 37.4249C21.8369 37.1401 21.8374 36.8553 21.8384 36.5705C21.8397 36.2051 21.839 35.8398 21.8376 35.4745C21.8368 35.1939 21.8371 34.9133 21.8377 34.6328C21.8378 34.4981 21.8376 34.3633 21.8371 34.2286C21.8365 34.0404 21.8374 33.8523 21.8387 33.6641C21.8382 33.6083 21.8377 33.5524 21.8373 33.4949C21.8399 33.2865 21.8474 33.1204 21.9471 32.9349C22.1767 32.812 22.4077 32.8244 22.6618 32.826ZM22.8466 33.8351C22.8466 35.3507 22.8466 36.8662 22.8466 38.4277C24.3125 38.4277 25.7783 38.4277 27.2886 38.4277C27.2886 36.9122 27.2886 35.3966 27.2886 33.8351C25.8228 33.8351 24.3569 33.8351 22.8466 33.8351Z" fill="black" stroke="black" stroke-width="0.3"/>
<path d="M37.8288 33.7979C38.0547 33.8355 38.0547 33.8355 38.2382 33.9578C38.3558 34.1366 38.3558 34.1366 38.3605 34.3578C38.2645 34.6346 38.1099 34.7676 37.9041 34.9648C37.7995 35.0694 37.6951 35.1742 37.5909 35.2792C37.264 35.6074 36.9369 35.9354 36.6097 36.2633C36.4687 36.4047 36.3278 36.5461 36.187 36.6876C35.9831 36.8924 35.779 37.0969 35.5749 37.3014C35.5121 37.3645 35.4494 37.4277 35.3847 37.4927C35.222 37.6554 35.0579 37.8163 34.8926 37.9763C34.8273 38.04 34.7619 38.1036 34.6946 38.1691C34.4352 38.3266 34.2875 38.3298 33.9891 38.2775C33.7872 38.1479 33.6285 37.9855 33.4627 37.8131C33.4151 37.7656 33.3676 37.718 33.3186 37.669C33.2187 37.5684 33.1194 37.4672 33.0207 37.3653C32.8696 37.2097 32.7164 37.0564 32.5628 36.9033C32.4658 36.8052 32.3689 36.7069 32.2722 36.6085C32.2036 36.5398 32.2036 36.5398 32.1337 36.4697C31.7401 36.0604 31.7401 36.0604 31.7305 35.7177C31.804 35.5139 31.8363 35.4389 32.0316 35.3413C32.2543 35.2988 32.4109 35.2956 32.6072 35.4192C32.7747 35.5619 32.9296 35.7129 33.0857 35.8683C33.131 35.9131 33.1763 35.9579 33.223 36.0041C33.5558 36.3332 33.8861 36.6646 34.215 36.9976C34.4257 36.9016 34.5789 36.8027 34.7412 36.6379C34.7829 36.5959 34.8247 36.5539 34.8677 36.5106C34.912 36.4653 34.9563 36.4199 35.002 36.3732C35.0486 36.3262 35.0952 36.2792 35.1432 36.2308C35.2922 36.0805 35.4406 35.9297 35.589 35.7789C35.7836 35.5815 35.9785 35.3843 36.1736 35.1874C36.2434 35.117 36.2434 35.117 36.3146 35.0452C36.5975 34.7612 36.8854 34.4876 37.1935 34.2306C37.3167 34.1281 37.3167 34.1281 37.4618 33.9531C37.6029 33.8355 37.6029 33.8355 37.8288 33.7979Z" fill="black" stroke="black" stroke-width="0.3"/>
</svg>
