<svg width="16" height="16" viewBox="0 0 16 16" fill="none" xmlns="http://www.w3.org/2000/svg">
<path d="M13.3737 11.5113C13.3468 11.5785 13.3195 11.6446 13.2917 11.7098L13.2909 11.7096C13.0964 12.1543 12.8566 12.5777 12.5754 12.9733L12.5709 12.9797L12.5665 12.9863C12.3038 13.3816 11.998 13.7466 11.6547 14.0744L11.6547 14.0743L11.6502 14.0787C11.4029 14.3207 11.0764 14.4647 10.7314 14.4844C10.3976 14.4673 10.0696 14.389 9.76408 14.2531L9.7641 14.2531L9.75764 14.2503C9.30007 14.0545 8.80935 13.9479 8.3118 13.9361L8.30132 13.9359L8.29084 13.9361C7.78073 13.9454 7.27703 14.0516 6.80655 14.2489L6.80651 14.2488L6.79726 14.2529C6.49967 14.3849 6.18284 14.4682 5.85893 14.4996C5.69046 14.4953 5.52432 14.4586 5.36955 14.3916C5.20768 14.3215 5.06155 14.2196 4.93982 14.0919L4.93112 14.0828L4.92198 14.0742C4.56241 13.7333 4.24142 13.3539 3.96478 12.9428L3.96491 12.9427L3.95768 12.9326C3.52134 12.3179 3.17592 11.6435 2.93209 10.9303L2.93217 10.9302L2.92906 10.9217C2.65319 10.1603 2.5081 9.35774 2.49995 8.54797L2.50002 8.54797L2.49979 8.53945C2.47926 7.78223 2.67029 7.03429 3.05143 6.37968C3.32254 5.91953 3.70795 5.53722 4.1703 5.26983L4.1703 5.26983L4.17299 5.26825C4.62513 5.00298 5.13817 4.85934 5.66212 4.85119C6.06559 4.87641 6.46222 4.96772 6.83614 5.1215C7.21517 5.28589 7.61341 5.4019 8.02144 5.46679L8.11083 5.48101L8.19954 5.46299C8.64074 5.37333 9.07229 5.24147 9.48824 5.06921C9.93834 4.89008 10.4207 4.80615 10.9049 4.82271L10.9049 4.82274L10.9102 4.82286C11.3611 4.83343 11.8035 4.94683 12.2038 5.15441C12.4434 5.27864 12.6641 5.43463 12.8603 5.61755C12.521 5.88012 12.2323 6.20499 12.0107 6.57666C11.6819 7.12816 11.514 7.76061 11.5259 8.40247C11.5217 8.89179 11.6222 9.37639 11.8207 9.82374C12.0192 10.2713 12.3112 10.6711 12.677 10.9964C12.8889 11.1948 13.1228 11.3674 13.3737 11.5113ZM9.8527 2.90081L9.83581 2.91919L9.82084 2.93917C9.61346 3.21592 9.343 3.43915 9.03195 3.5903C8.87101 3.6685 8.70161 3.72623 8.52771 3.76263C8.60572 3.25605 8.8357 2.78233 9.19065 2.40613L9.19071 2.4062L9.19724 2.39901C9.4358 2.13613 9.72425 1.92331 10.0458 1.77291L10.0529 1.7696L10.0599 1.76607C10.1929 1.69868 10.3313 1.6433 10.4735 1.60038C10.4015 2.08366 10.1865 2.53726 9.8527 2.90081Z" stroke="black"/>
</svg>
