<?xml version="1.0" encoding="UTF-8"?>
<svg version="1.1" xmlns="http://www.w3.org/2000/svg" width="512" height="512">
<path d="M0 0 C0.74878418 0.00684814 1.49756836 0.01369629 2.26904297 0.02075195 C8.12743707 0.19073579 12.64316586 1.23564466 17.625 4.4375 C18.24503906 4.788125 18.86507813 5.13875 19.50390625 5.5 C26.47940128 9.83896883 30.34364567 16.71281357 32.625 24.4375 C35.45112199 40.48222617 28.35393786 55.48904445 22.86024857 70.22431946 C21.5102312 73.86388236 20.19192032 77.51489216 18.87084961 81.16503906 C16.76917188 86.96223784 14.65234432 92.75363467 12.52246094 98.54052734 C9.1373064 107.74206707 5.84320323 116.97517108 2.56573486 126.21554565 C1.10348922 130.33130627 -0.37089264 134.44271534 -1.84375 138.5546875 C-4.67168954 146.4563475 -7.48093538 154.36455304 -10.28395081 162.27508545 C-11.95402651 166.98717061 -13.62717347 171.69811255 -15.30834961 176.40625 C-15.80281334 177.79103546 -15.80281334 177.79103546 -16.30726624 179.20379639 C-16.9757062 181.07562793 -17.64427547 182.9474133 -18.31297302 184.81915283 C-20.42982702 190.75481899 -22.51565439 196.70057446 -24.58387756 202.65335083 C-25.99347674 206.69879156 -27.42041635 210.73798668 -28.85061646 214.77618408 C-29.52452091 216.69143231 -30.19097922 218.60931966 -30.84933472 220.52996826 C-31.76530239 223.19923163 -32.70772257 225.85778751 -33.65625 228.515625 C-33.91410782 229.2886496 -34.17196564 230.06167419 -34.43763733 230.85812378 C-36.08864541 235.38486884 -37.95389332 238.12827158 -41.44816589 241.4675293 C-46.31676484 246.86032245 -46.48602727 251.251172 -46.32739258 258.30371094 C-46.33654694 260.03464745 -46.33654694 260.03464745 -46.34588623 261.80055237 C-46.3572463 265.59199651 -46.31312024 269.38070002 -46.26953125 273.171875 C-46.26943259 275.81504586 -46.27329111 278.45821957 -46.28092957 281.10137939 C-46.29355097 287.33573926 -46.26825917 293.56927717 -46.22690934 299.80349088 C-46.14950286 311.63687915 -46.14356414 323.47030511 -46.14969444 335.30390167 C-46.14459087 339.18898713 -46.11769029 343.07347027 -46.08784485 346.95843506 C-46.0812063 349.33524429 -46.07508966 351.71205507 -46.06958008 354.08886719 C-46.05557663 355.16948929 -46.04157318 356.25011139 -46.02714539 357.36347961 C-46.03620591 366.59358415 -46.03620591 366.59358415 -49.375 370.4375 C-51.6738347 372.04223493 -53.87017757 373.40447335 -56.3125 374.75 C-57.04267334 375.16604492 -57.77284668 375.58208984 -58.52514648 376.01074219 C-60.19189376 376.95910768 -61.86180163 377.90193167 -63.53417969 378.84033203 C-67.23591426 380.92152381 -70.92161685 383.03032956 -74.60766602 385.1391449 C-75.18605225 385.47003616 -75.76443848 385.80092743 -76.36035156 386.1418457 C-76.94707642 386.47753571 -77.53380127 386.81322571 -78.13830566 387.15908813 C-79.9529981 388.19635865 -81.76881705 389.23163062 -83.58496094 390.26635742 C-91.27368935 394.64878641 -98.92885999 399.08457091 -106.5625 403.5625 C-115.65052212 408.89003922 -124.81556776 414.06513881 -134.02026367 419.18798828 C-141.18909207 423.18735179 -148.2961803 427.2811288 -155.375 431.4375 C-164.52413289 436.80946793 -173.74903131 442.02826525 -183.01953125 447.1875 C-191.17945287 451.73998429 -199.25277614 456.42868891 -207.30932617 461.16113281 C-215.95494652 466.22568044 -224.68448115 471.1306341 -233.44335938 475.99609375 C-234.43787109 476.54910156 -235.43238281 477.10210937 -236.45703125 477.671875 C-237.33593018 478.15881836 -238.2148291 478.64576172 -239.12036133 479.14746094 C-240.91405343 480.1737597 -242.65552815 481.29118544 -244.375 482.4375 C-252.16528839 483.5665273 -256.83941263 480.36136937 -263.3125 476.3125 C-265.45568688 475.01600423 -267.60026209 473.72180119 -269.74609375 472.4296875 C-271.39134033 471.43146973 -271.39134033 471.43146973 -273.06982422 470.41308594 C-278.27287733 467.30309142 -283.57159475 464.371937 -288.875 461.4375 C-298.10567162 456.30368792 -307.24742943 451.0353396 -316.35546875 445.6875 C-323.4802819 441.51506041 -330.66046141 437.45254756 -337.875 433.4375 C-347.10431402 428.30118611 -356.24736973 423.03537465 -365.35546875 417.6875 C-372.48028309 413.51505971 -379.66048765 409.45259629 -386.875 405.4375 C-396.13423707 400.28380087 -405.31401997 395.01040877 -414.44995117 389.64135742 C-422.6204195 384.84854891 -430.8630226 380.19086036 -439.15478516 375.61108398 C-440.51095947 374.85420288 -440.51095947 374.85420288 -441.89453125 374.08203125 C-442.68964111 373.64221924 -443.48475098 373.20240723 -444.30395508 372.74926758 C-446.36914118 371.44121089 -447.80780499 370.30856172 -449.375 368.4375 C-449.67452418 365.3493268 -449.78804438 362.46196263 -449.76940918 359.3719635 C-449.77550028 358.43300545 -449.78159139 357.49404739 -449.78786707 356.52663606 C-449.80457385 353.36667567 -449.7997103 350.20711484 -449.79492188 347.04711914 C-449.80225773 344.78718138 -449.81084253 342.52724738 -449.82058716 340.26731873 C-449.84286237 334.11863056 -449.84573085 327.97007617 -449.84383965 321.8213532 C-449.84372022 316.69433533 -449.85227267 311.5673461 -449.86061716 306.44033617 C-449.88097474 293.65627888 -449.88199335 280.87232087 -449.87481004 268.08825921 C-449.86923374 256.98156491 -449.89006221 245.87510122 -449.92317051 234.76846082 C-449.95688913 223.36875453 -449.97160324 211.9691918 -449.96745348 200.56942266 C-449.96538144 194.16745367 -449.97093542 187.7657143 -449.99534607 181.3637867 C-450.01753706 175.34482547 -450.01579892 169.32634561 -449.99541855 163.30738258 C-449.99199499 161.09501526 -449.99715504 158.882616 -450.01140213 156.6702919 C-450.02947647 153.65629952 -450.01693328 150.64396078 -449.99645996 147.63002014 C-450.00897781 146.74879976 -450.02149566 145.86757938 -450.03439283 144.95965534 C-449.94774504 139.03434184 -449.94774504 139.03434184 -447.00450897 135.96727657 C-446.13677101 135.4624503 -445.26903305 134.95762403 -444.375 134.4375 C-443.48611084 133.88674805 -442.59722168 133.33599609 -441.68139648 132.76855469 C-440.71274658 132.22102539 -439.74409668 131.67349609 -438.74609375 131.109375 C-437.64330078 130.48289063 -436.54050781 129.85640625 -435.40429688 129.2109375 C-434.20705091 128.53642343 -433.00978473 127.86194526 -431.8125 127.1875 C-430.5589823 126.47702542 -429.30573183 125.76607918 -428.05273438 125.0546875 C-425.45138814 123.57825109 -422.84890788 122.10384365 -420.24560547 120.63085938 C-414.27790857 117.25202546 -408.32739325 113.84320083 -402.375 110.4375 C-400.04184756 109.10385003 -397.70842336 107.77067588 -395.375 106.4375 C-394.20832833 105.7708421 -393.04166166 105.10417543 -391.875 104.4375 C-370.875 92.4375 -349.875 80.4375 -328.875 68.4375 C-328.29752014 68.10751007 -327.72004028 67.77752014 -327.12506104 67.43753052 C-325.95819593 66.77075336 -324.79132581 66.10398497 -323.62445068 65.43722534 C-320.71077909 63.77232094 -317.79719422 62.10726514 -314.88378906 60.44189453 C-309.598247 57.4207534 -304.3121082 54.40068405 -299.02264404 51.38641357 C-297.23715066 50.36876949 -295.45204617 49.35044586 -293.66699219 48.33203125 C-291.3253334 46.99614783 -288.98204275 45.66318983 -286.63769531 44.33203125 C-280.90054789 41.06479643 -275.20431492 37.74872485 -269.5625 34.3203125 C-268.47743164 33.66691895 -267.39236328 33.01352539 -266.27441406 32.34033203 C-264.23605708 31.10878519 -262.2060806 29.86321355 -260.18652344 28.60107422 C-251.54394642 23.40056912 -251.54394642 23.40056912 -246.45361328 23.85058594 C-241.68223658 25.19782455 -237.60737256 27.95427485 -233.4375 30.5625 C-231.29431312 31.85899577 -229.14973791 33.15319881 -227.00390625 34.4453125 C-225.9070752 35.11079102 -224.81024414 35.77626953 -223.68017578 36.46191406 C-218.47712267 39.57190858 -213.17840525 42.503063 -207.875 45.4375 C-198.64432838 50.57131208 -189.50257057 55.8396604 -180.39453125 61.1875 C-173.2697181 65.35993959 -166.08953859 69.42245244 -158.875 73.4375 C-149.64568598 78.57381389 -140.50263027 83.83962535 -131.39453125 89.1875 C-124.26971647 93.35994055 -117.08950885 97.42239582 -109.875 101.4375 C-95.91129934 109.2098937 -82.07002718 117.20008425 -68.375 125.4375 C-62.42155433 109.78828188 -56.71950224 94.06518972 -51.20321655 78.25689697 C-49.14351977 72.36069039 -47.06906532 66.46967477 -44.99609375 60.578125 C-44.19379108 58.29754594 -43.39154332 56.01694757 -42.58935547 53.73632812 C-42.21236511 52.66455322 -41.83537476 51.59277832 -41.44696045 50.48852539 C-40.47299988 47.7164283 -39.50180701 44.9433827 -38.53173828 42.16992188 C-37.27508097 38.58016325 -36.00562204 34.99527276 -34.72259521 31.41485596 C-34.08819704 29.63461091 -33.46786641 27.84937187 -32.84814453 26.06396484 C-30.00006403 18.17818308 -26.41269527 11.12413572 -19.4375 6.125 C-18.83035156 5.67511719 -18.22320312 5.22523437 -17.59765625 4.76171875 C-11.61267331 1.1959732 -6.89292571 -0.09687606 0 0 Z M-13.25 18.0625 C-17.20681862 21.87041808 -17.20681862 21.87041808 -19.375 30.4375 C-7.495 34.7275 4.385 39.0175 16.625 43.4375 C19.79929525 40.26320475 19.87842272 37.12994892 20.0625 32.8125 C19.99883135 26.23871219 18.16395671 22.15641535 13.625 17.4375 C5.06557384 10.40235521 -4.84479999 11.69653628 -13.25 18.0625 Z M-255.0234375 41.03125 C-256.09867676 41.64234619 -257.17391602 42.25344238 -258.28173828 42.88305664 C-259.43806054 43.56747419 -260.59414163 44.25229932 -261.75 44.9375 C-262.95845182 45.63385464 -264.1679415 46.32841103 -265.37841797 47.02124023 C-268.46905301 48.79684036 -271.54519692 50.59595014 -274.61694336 52.4039917 C-277.27587267 53.96709578 -279.94294298 55.51614508 -282.609375 57.06640625 C-285.55993295 58.78436655 -288.50869103 60.5051051 -291.45263672 62.234375 C-298.54250179 66.39594461 -305.69138511 70.44022879 -312.875 74.4375 C-321.0970259 79.013164 -329.2608143 83.67320748 -337.375 88.4375 C-346.52413289 93.80946793 -355.74903131 99.02826525 -365.01953125 104.1875 C-372.18853743 108.18714479 -379.29592228 112.28098796 -386.375 116.4375 C-397.77278185 123.12961945 -409.29191727 129.59275082 -420.84033203 136.02050781 C-424.03132255 137.80441351 -427.20584715 139.61512599 -430.375 141.4375 C-427.33956324 143.81935025 -424.19789274 145.76419862 -420.84375 147.66796875 C-419.73773438 148.29767578 -418.63171875 148.92738281 -417.4921875 149.57617188 C-416.28647057 150.25913619 -415.08074105 150.94207828 -413.875 151.625 C-412.61702387 152.34020706 -411.3592142 153.05570698 -410.1015625 153.77148438 C-407.48892496 155.25813462 -404.8755759 156.74352257 -402.26171875 158.22802734 C-397.44151176 160.96671327 -392.6284687 163.71785895 -387.81591797 166.4699707 C-385.52379535 167.78061468 -383.23115259 169.09034941 -380.93798828 170.39916992 C-375.4385297 173.53833753 -369.94283412 176.6835738 -364.45794678 179.84814453 C-361.85162484 181.3514456 -359.24351521 182.85162941 -356.63525391 184.3515625 C-355.38565389 185.07135282 -354.13694347 185.79268993 -352.88916016 186.515625 C-351.16530594 187.51425873 -349.43820061 188.50727404 -347.7109375 189.5 C-346.72657715 190.06847656 -345.7422168 190.63695312 -344.72802734 191.22265625 C-342.52016721 192.59041855 -342.52016721 192.59041855 -340.375 192.4375 C-340.36041748 191.63530029 -340.34583496 190.83310059 -340.33081055 190.0065918 C-340.25643281 186.37890301 -340.15973757 182.75214496 -340.0625 179.125 C-340.03994141 177.86236328 -340.01738281 176.59972656 -339.99414062 175.29882812 C-339.9409668 173.48608398 -339.9409668 173.48608398 -339.88671875 171.63671875 C-339.86053467 170.52127686 -339.83435059 169.40583496 -339.80737305 168.2565918 C-339.375 165.4375 -339.375 165.4375 -338.28686523 163.7851162 C-335.36769354 161.72748003 -332.89350847 162.05965065 -329.3527832 162.05654907 C-328.63363141 162.0518691 -327.91447962 162.04718913 -327.17353535 162.04236734 C-324.75743118 162.03037609 -322.3418899 162.03989035 -319.92578125 162.04931641 C-318.19623482 162.04525253 -316.46669099 162.03991168 -314.7371521 162.03338623 C-310.03473446 162.01968493 -305.3325138 162.02502285 -300.63009262 162.03452349 C-295.71473398 162.04210553 -290.79939249 162.03507853 -285.8840332 162.03036499 C-277.6287126 162.02490319 -269.37347245 162.03211018 -261.11816406 162.04638672 C-251.56654952 162.06271404 -242.01512707 162.05742583 -232.46351719 162.0409075 C-224.27067956 162.02730472 -216.07789985 162.02536705 -207.88505459 162.03322351 C-202.98832995 162.03790668 -198.09169568 162.03850723 -193.19497681 162.02861404 C-188.59192514 162.01996421 -183.98912173 162.02592986 -179.38609695 162.04329681 C-177.69417356 162.04727229 -176.00222937 162.04610955 -174.31031418 162.03950882 C-172.00566386 162.03134485 -169.70181562 162.0415516 -167.3972168 162.05654907 C-166.10599411 162.05768015 -164.81477142 162.05881123 -163.48442078 162.05997658 C-160.375 162.4375 -160.375 162.4375 -158.46313477 163.7851162 C-156.78055404 166.34019413 -156.93437465 168.60813986 -156.86328125 171.63671875 C-156.81010742 173.44946289 -156.81010742 173.44946289 -156.75585938 175.29882812 C-156.73330078 176.56146484 -156.71074219 177.82410156 -156.6875 179.125 C-156.65333984 180.39923828 -156.61917969 181.67347656 -156.58398438 182.98632812 C-156.50139216 186.13663103 -156.43227665 189.28665157 -156.375 192.4375 C-152.40888873 191.21804406 -148.97735569 189.79870986 -145.41796875 187.671875 C-144.01611328 186.84236328 -144.01611328 186.84236328 -142.5859375 185.99609375 C-141.58820313 185.39925781 -140.59046875 184.80242187 -139.5625 184.1875 C-131.05864976 179.16013199 -122.51069577 174.23488187 -113.875 169.4375 C-105.19807844 164.60808018 -96.57639035 159.69341727 -88 154.6875 C-86.97712891 154.09066406 -85.95425781 153.49382812 -84.90039062 152.87890625 C-78.21462119 149.64647237 -78.21462119 149.64647237 -73.64453125 144.4921875 C-73.41830078 143.41324219 -73.41830078 143.41324219 -73.1875 142.3125 C-72.919375 141.03375 -72.65125 139.755 -72.375 138.4375 C-84.47573889 131.31672461 -96.60586857 124.26477961 -108.875 117.4375 C-118.1043412 112.30123341 -127.24737021 107.03537437 -136.35546875 101.6875 C-143.4802819 97.51506041 -150.66046141 93.45254756 -157.875 89.4375 C-167.10431402 84.30118611 -176.24736973 79.03537465 -185.35546875 73.6875 C-193.50138982 68.91707825 -201.72583839 64.29792025 -209.9777832 59.71386719 C-218.5983048 54.91105358 -227.1173378 49.94474819 -235.5859375 44.87890625 C-236.52050781 44.32589844 -237.45507812 43.77289063 -238.41796875 43.203125 C-239.23289795 42.71618164 -240.04782715 42.22923828 -240.88745117 41.72753906 C-246.54782689 38.79207677 -249.31975549 37.71987293 -255.0234375 41.03125 Z M-24.375 42.4375 C-26.025 47.3875 -27.675 52.3375 -29.375 57.4375 C-24.60808801 59.15236341 -19.84012399 60.86328239 -15.06835938 62.56445312 C-13.44580219 63.14421577 -11.82404781 63.72623035 -10.203125 64.31054688 C-7.87187235 65.15048349 -5.53784395 65.98225493 -3.203125 66.8125 C-2.11852997 67.20622803 -2.11852997 67.20622803 -1.01202393 67.60791016 C2.43467944 68.82493386 4.92214463 69.4375 8.625 69.4375 C9.29760351 67.66891309 9.96288395 65.89753984 10.625 64.125 C10.99625 63.13886719 11.3675 62.15273437 11.75 61.13671875 C12.77918502 58.43478344 12.77918502 58.43478344 12.625 55.4375 C8.85452286 54.01988409 5.08355176 52.60358654 1.3125 51.1875 C0.25998047 50.79175781 -0.79253906 50.39601563 -1.87695312 49.98828125 C-5.04138602 48.80040183 -8.20773257 47.61779932 -11.375 46.4375 C-12.42349121 46.04498047 -13.47198242 45.65246094 -14.55224609 45.24804688 C-15.53918457 44.88259766 -16.52612305 44.51714844 -17.54296875 44.140625 C-18.42621826 43.81223633 -19.30946777 43.48384766 -20.21948242 43.14550781 C-22.31355124 42.33347989 -22.31355124 42.33347989 -24.375 42.4375 Z M-33.375 69.4375 C-36.96926385 77.80914523 -40.18174819 86.26181675 -43.19140625 94.859375 C-43.64527839 96.14755552 -44.09948627 97.43561779 -44.55400085 98.72357178 C-45.51846485 101.4583698 -46.48094906 104.19385246 -47.44177246 106.92993164 C-49.73107774 113.44866802 -52.03042256 119.96386593 -54.32890701 126.47937012 C-55.11597468 128.71076107 -55.90264246 130.94229275 -56.68930054 133.17382812 C-60.18152125 143.07672403 -63.69598711 152.9714862 -67.23046875 162.859375 C-67.46161943 163.50605888 -67.69277012 164.15274277 -67.93092537 164.81902313 C-70.33985932 171.55712542 -72.75267014 178.29383759 -75.16625977 185.03027344 C-75.76299248 186.69742401 -75.76299248 186.69742401 -76.3717804 188.39825439 C-77.10468616 190.44573281 -77.83840646 192.49291995 -78.57316589 194.53973389 C-80.58080236 200.14902706 -82.51862241 205.77629925 -84.375 211.4375 C-80.25101773 212.97287853 -76.1249922 214.50259859 -71.99707031 216.02734375 C-70.59611954 216.54568909 -69.19571612 217.06551649 -67.79589844 217.58691406 C-65.77164173 218.34059594 -63.74540808 219.08874063 -61.71875 219.8359375 C-60.50380859 220.28630371 -59.28886719 220.73666992 -58.03710938 221.20068359 C-54.17219675 222.50599342 -50.34278775 223.49917182 -46.375 224.4375 C-45.99915771 223.35484863 -45.62331543 222.27219727 -45.23608398 221.15673828 C-36.7884283 196.83372248 -28.24044276 172.54940088 -19.55325317 148.3109436 C-16.69142842 140.32515627 -13.83707334 132.3367072 -10.984375 124.34765625 C-10.7542037 123.70306017 -10.5240324 123.05846409 -10.28688622 122.39433479 C-9.1292968 119.15242778 -7.97178111 115.91049445 -6.81430054 112.66854858 C-4.6175456 106.51584734 -2.42005559 100.36340862 -0.22265625 94.2109375 C0.52726544 92.11116646 1.27718438 90.01139444 2.02709961 87.91162109 C2.55973307 86.4202474 3.09236654 84.9288737 3.625 83.4375 C0.87515987 80.68765987 -2.37101518 79.86087286 -5.97265625 78.6171875 C-6.72212021 78.35366486 -7.47158417 78.09014221 -8.24375916 77.81863403 C-9.82733996 77.26296597 -11.41188709 76.71004533 -12.99731445 76.15966797 C-15.43319475 75.31399467 -17.86622129 74.46050731 -20.29882812 73.60546875 C-21.83577797 73.06725255 -23.37288218 72.52947693 -24.91015625 71.9921875 C-25.64242935 71.73597626 -26.37470245 71.47976501 -27.12916565 71.21578979 C-30.18301571 69.9742323 -30.18301571 69.9742323 -33.375 69.4375 Z M-437.375 153.4375 C-437.375 222.0775 -437.375 290.7175 -437.375 361.4375 C-428.465 366.3875 -419.555 371.3375 -410.375 376.4375 C-398.25 383.5 -398.25 383.5 -392.3359375 386.97265625 C-386.22732658 390.54255828 -380.05737575 393.99736116 -373.875 397.4375 C-364.64565229 402.57375165 -355.50262875 407.83962624 -346.39453125 413.1875 C-339.2697181 417.35993959 -332.08953859 421.42245244 -324.875 425.4375 C-316.65300121 430.01322106 -308.48924484 434.67330096 -300.375 439.4375 C-288.14206791 446.61838211 -275.77503836 453.55019387 -263.375 460.4375 C-260.405 462.0875 -257.435 463.7375 -254.375 465.4375 C-254.375 425.8375 -254.375 386.2375 -254.375 345.4375 C-281.22608721 345.2273812 -281.22608721 345.2273812 -308.07739258 345.04956055 C-313.2689209 344.99963379 -313.2689209 344.99963379 -315.69877625 344.9724884 C-317.3969346 344.95633161 -319.09515497 344.94604809 -320.79338074 344.94038391 C-323.36495145 344.93066922 -325.93570984 344.90236074 -328.50708008 344.86987305 C-329.26449147 344.87129901 -330.02190287 344.87272497 -330.80226612 344.87419415 C-335.88319193 344.7822874 -335.88319193 344.7822874 -338.07265949 343.24733734 C-339.86007129 340.76340584 -339.72489605 339.12775142 -339.68624878 336.08137512 C-339.67999985 334.96972992 -339.67375092 333.85808472 -339.66731262 332.7127533 C-339.64545395 331.49245926 -339.62359528 330.27216522 -339.60107422 329.01489258 C-339.58466406 327.04261246 -339.5682739 325.07033208 -339.55263448 323.09804571 C-339.53346849 320.97653524 -339.50738801 318.85519391 -339.48003769 316.73377419 C-339.42548856 312.30810385 -339.40433022 307.88267379 -339.39065552 303.45671082 C-339.38558716 301.94062893 -339.38049625 300.42454712 -339.37538338 298.90846539 C-339.3728475 298.14916741 -339.37031163 297.38986943 -339.36769891 296.60756242 C-339.33073968 286.30444998 -339.26671856 276.00227105 -339.13183594 265.69995117 C-339.04110319 258.74957791 -338.99678612 251.80056159 -339.00482762 244.84957999 C-339.00713938 241.17250475 -338.98568815 237.49900931 -338.90700912 233.82270241 C-337.84167435 219.59763119 -337.84167435 219.59763119 -341.62252617 206.45915222 C-345.01547113 203.1001946 -348.84002514 201.82420579 -353.375 200.4375 C-355.36393123 199.36378149 -357.33349222 198.25233013 -359.26953125 197.0859375 C-361.24097322 195.99259929 -363.21366514 194.90151234 -365.1875 193.8125 C-373.64098986 189.11555193 -382.03692484 184.3363691 -390.375 179.4375 C-399.84577059 173.87353032 -409.39432791 168.46323729 -419.00390625 163.14257812 C-424.05207837 160.33914657 -429.01232269 157.48508259 -433.83398438 154.30493164 C-435.37074605 153.2739922 -435.37074605 153.2739922 -437.375 153.4375 Z M-83.375 166.4375 C-97.57045692 174.25227086 -111.70819908 182.14004523 -125.68188477 190.34692383 C-133.43071385 194.89759627 -141.22260712 199.36821572 -149.04248047 203.7956543 C-149.86248535 204.26140869 -150.68249023 204.72716309 -151.52734375 205.20703125 C-152.24913818 205.61542236 -152.97093262 206.02381348 -153.71459961 206.44458008 C-155.34929214 207.33047111 -155.34929214 207.33047111 -156.375 208.4375 C-156.47688551 210.15151155 -156.50853405 211.86973031 -156.51303101 213.58676147 C-156.51848434 214.70288315 -156.52393768 215.81900482 -156.52955627 216.96894836 C-156.5305986 218.20428818 -156.53164093 219.43962799 -156.53271484 220.71240234 C-156.5405138 222.696482 -156.54831681 224.68056164 -156.55627275 226.66464067 C-156.56400066 228.80395644 -156.56937516 230.9432679 -156.57423019 233.08259201 C-156.58488736 237.536191 -156.60512583 241.9897134 -156.62734985 246.44326782 C-156.6893516 259.10960383 -156.74330615 271.77593581 -156.77636719 284.44238281 C-156.79469448 291.43316967 -156.82360677 298.4238288 -156.8643719 305.41452181 C-156.8854747 309.11631961 -156.90090374 312.81795622 -156.90317917 316.51981735 C-156.90571953 320.64799402 -156.93115076 324.77572173 -156.95849609 328.90380859 C-156.95398689 330.75074562 -156.95398689 330.75074562 -156.9493866 332.63499451 C-156.96602608 334.31763649 -156.96602608 334.31763649 -156.98300171 336.03427124 C-156.98631186 337.01099478 -156.989622 337.98771832 -156.99303246 338.99403954 C-157.375 341.4375 -157.375 341.4375 -158.68476009 343.25028133 C-161.5344611 345.25190147 -164.79137628 344.87627759 -168.15112305 344.86987305 C-169.35599601 344.88528373 -169.35599601 344.88528373 -170.58520985 344.90100574 C-173.18578929 344.93089981 -175.7859912 344.94043635 -178.38671875 344.94921875 C-179.99207892 344.96468172 -181.59742682 344.98147801 -183.20275879 344.99963379 C-189.15587038 345.05759334 -195.10921077 345.0897248 -201.0625 345.125 C-214.365625 345.228125 -227.66875 345.33125 -241.375 345.4375 C-241.375 384.7075 -241.375 423.9775 -241.375 464.4375 C-237.74693866 462.98627547 -234.63271216 461.56205815 -231.26171875 459.671875 C-230.27365234 459.11886719 -229.28558594 458.56585938 -228.26757812 457.99609375 C-227.20990234 457.39925781 -226.15222656 456.80242187 -225.0625 456.1875 C-223.40057617 455.25357422 -223.40057617 455.25357422 -221.70507812 454.30078125 C-213.21923074 449.51636134 -204.79999183 444.62244065 -196.39916992 439.69042969 C-189.27299387 435.51668435 -182.09105967 431.45357916 -174.875 427.4375 C-165.71776685 422.33919076 -156.6380683 417.12441945 -147.59667969 411.82373047 C-137.02855984 405.6335375 -126.39114412 399.56621936 -115.75027466 393.50239563 C-111.55903522 391.11376024 -107.3705735 388.72031207 -103.18359375 386.32421875 C-101.97819403 385.634596 -100.77279041 384.94498007 -99.56738281 384.25537109 C-97.35423798 382.98921219 -95.14137912 381.72255855 -92.92871094 380.45556641 C-81.76794984 374.07331804 -70.56815962 367.76406848 -59.375 361.4375 C-59.375 329.0975 -59.375 296.7575 -59.375 263.4375 C-68.41036758 272.47286758 -76.69300906 282.09350075 -84.51171875 292.19921875 C-86.375 294.4375 -86.375 294.4375 -88.375 295.4375 C-91.0473621 295.57165472 -93.69750488 295.48068541 -96.375 295.4375 C-97.42059237 289.34786799 -97.59119866 283.35828286 -97.69140625 277.1875 C-97.71218735 276.09775879 -97.73296844 275.00801758 -97.75437927 273.88525391 C-97.79753374 271.57555827 -97.83858875 269.26582257 -97.87768555 266.95605469 C-97.93636189 263.50444852 -98.00175657 260.05302379 -98.06835938 256.6015625 C-98.15516509 252.06927768 -98.21725 247.53748046 -98.26586914 243.00463867 C-98.31591634 238.81321408 -98.45423236 234.64339607 -98.68530273 230.45825195 C-99.36769833 215.39890234 -95.81846517 203.54078486 -90.3125 189.625 C-89.15181466 186.59363947 -88.00179833 183.55852404 -86.85780334 180.52082825 C-86.15090924 178.65433591 -85.43245869 176.79216931 -84.70115662 174.93510437 C-84.22054527 173.69528557 -84.22054527 173.69528557 -83.73022461 172.43041992 C-83.44376572 171.70481369 -83.15730682 170.97920746 -82.86216736 170.23161316 C-82.13877303 168.35498037 -82.13877303 168.35498037 -83.375 166.4375 Z M-327.375 174.4375 C-327.375 226.5775 -327.375 278.7175 -327.375 332.4375 C-275.235 332.4375 -223.095 332.4375 -169.375 332.4375 C-169.375 280.2975 -169.375 228.1575 -169.375 174.4375 C-221.515 174.4375 -273.655 174.4375 -327.375 174.4375 Z M-86.375 224.4375 C-86.045 240.2775 -85.715 256.1175 -85.375 272.4375 C-74.11880327 261.18130327 -64.06190779 249.05228346 -54.375 236.4375 C-57.48213282 234.36607812 -60.24433486 233.30159578 -63.7578125 232.0546875 C-64.37268524 231.83555695 -64.98755798 231.61642639 -65.62106323 231.39065552 C-66.91644693 230.92988587 -68.21253594 230.47109486 -69.50927734 230.01416016 C-71.50127632 229.31205014 -73.49101691 228.60382262 -75.48046875 227.89453125 C-80.83375502 225.56561795 -80.83375502 225.56561795 -86.375 224.4375 Z " fill="#000000" transform="translate(464.375,14.5625)"/>
<path d="M0 0 C1.30001953 -0.00386719 2.60003906 -0.00773438 3.93945312 -0.01171875 C4.61548584 -0.00543457 5.29151855 0.00084961 5.98803711 0.00732422 C8.02722556 0.02325349 10.0643921 0.00753456 12.10351562 -0.01171875 C21.98651804 0.01753533 30.42433705 0.65475934 37.859375 7.67578125 C42.81440638 13.35154447 44.65364268 19.91872719 44.36328125 27.3984375 C43.11889083 34.13796794 40.07631506 40.81055188 34.33862305 44.80957031 C33.62875244 45.23592773 32.91888184 45.66228516 32.1875 46.1015625 C31.47037842 46.53629883 30.75325684 46.97103516 30.0144043 47.41894531 C29.46953369 47.74217773 28.92466309 48.06541016 28.36328125 48.3984375 C28.81243896 49.12434082 29.26159668 49.85024414 29.72436523 50.59814453 C31.39639757 53.3107306 33.05956973 56.0284964 34.71704102 58.75 C35.43427123 59.92367883 36.15492951 61.09527027 36.87915039 62.26464844 C37.9233631 63.95206168 38.95401329 65.64784365 39.984375 67.34375 C40.60755615 68.35969238 41.2307373 69.37563477 41.87280273 70.42236328 C43.43347122 73.53858751 44.16517167 75.92320221 44.36328125 79.3984375 C42.30078125 82.3359375 42.30078125 82.3359375 39.36328125 84.3984375 C36.42578125 84.7734375 36.42578125 84.7734375 33.36328125 83.3984375 C29.54795664 78.76951569 26.7291761 73.32155791 23.84765625 68.0859375 C23.23535156 66.99152344 22.62304688 65.89710938 21.9921875 64.76953125 C20.72991936 62.50479651 19.4931777 60.22566171 18.28125 57.93359375 C15.115558 51.93662281 15.115558 51.93662281 9.65039062 48.4296875 C7.14181544 48.1751175 4.8669986 48.13287238 2.36328125 48.3984375 C2.38946533 49.31133545 2.41564941 50.2242334 2.44262695 51.16479492 C2.52806667 54.56616094 2.59063124 57.96638008 2.63793945 61.3684082 C2.66301769 62.83799275 2.69708981 64.30745337 2.74047852 65.77661133 C2.80143624 67.89435431 2.82955441 70.01044326 2.8515625 72.12890625 C2.87774658 73.40145264 2.90393066 74.67399902 2.9309082 75.98510742 C2.21366091 80.29815447 0.79487438 81.77302232 -2.63671875 84.3984375 C-6.39142026 84.3248159 -7.96513036 84.07002589 -10.63671875 81.3984375 C-10.8454074 78.9157142 -10.93038506 76.54353684 -10.92724609 74.05883789 C-10.93396332 73.30258621 -10.94068054 72.54633453 -10.94760132 71.76716614 C-10.96664396 69.26007571 -10.97050856 66.75325205 -10.97265625 64.24609375 C-10.9790796 62.50735869 -10.98580761 60.76862472 -10.99282837 59.02989197 C-11.00481665 55.38228855 -11.00850758 51.73477994 -11.00732422 48.0871582 C-11.00712089 43.40819495 -11.03443044 38.72983814 -11.06886864 34.05101871 C-11.09108229 30.45911352 -11.09516348 26.86735558 -11.09410477 23.27538872 C-11.09646881 21.55016425 -11.10533728 19.8249362 -11.1207695 18.09977913 C-11.14031944 15.68856189 -11.13463601 13.27866923 -11.12255859 10.86743164 C-11.13379761 10.15200195 -11.14503662 9.43657227 -11.15661621 8.69946289 C-11.11573359 5.4950363 -11.04617534 3.83099901 -8.79792786 1.45588684 C-5.7872513 -0.01719502 -3.34451173 0.00960213 0 0 Z M2.36328125 13.3984375 C2.36328125 20.9884375 2.36328125 28.5784375 2.36328125 36.3984375 C6.35421875 36.4603125 6.35421875 36.4603125 10.42578125 36.5234375 C11.66146851 36.55074951 11.66146851 36.55074951 12.92211914 36.57861328 C18.84819324 36.62261 24.29834026 36.40903794 28.73828125 32.0859375 C30.45146743 29.25259112 31.28459899 27.70309231 31.36328125 24.3984375 C29.87836548 19.86553672 28.59658648 16.77967169 24.36328125 14.3984375 C21.5391636 13.45706495 19.83410093 13.28118368 16.9140625 13.30078125 C16.15005127 13.30327881 15.38604004 13.30577637 14.59887695 13.30834961 C13.63425537 13.31745361 12.66963379 13.32655762 11.67578125 13.3359375 C8.60265625 13.3565625 5.52953125 13.3771875 2.36328125 13.3984375 Z " fill="#000000" transform="translate(245.63671875,225.6015625)"/>
<path d="M0 0 C7.41373603 3.52152461 11.58601945 16.95319996 15.2421875 24.1953125 C15.60292484 24.90863613 15.96366219 25.62195976 16.33533096 26.35689926 C18.23867264 30.12213537 20.1369192 33.889891 22.03125 37.65966797 C23.98483655 41.54458436 25.95695013 45.41978764 27.93319511 49.2932148 C29.45539276 52.28535856 30.96335821 55.28450946 32.46756363 58.28573227 C33.18863331 59.71814294 33.91509735 61.14785162 34.64709091 62.57471085 C35.66780946 64.56746729 36.66785734 66.56936773 37.66357422 68.57470703 C38.23695526 69.70973663 38.8103363 70.84476624 39.40109253 72.01419067 C40.64856269 75.6165037 40.54996224 77.55530771 39.5 81.1875 C37.8125 83.125 37.8125 83.125 35.5 84.1875 C32.6796875 84.328125 32.6796875 84.328125 29.5 83.1875 C27.30411444 80.35931791 25.84272487 77.22516973 24.3125 74 C23.88775391 73.14857422 23.46300781 72.29714844 23.02539062 71.41992188 C22.20248097 69.76514398 21.38973463 68.10526395 20.58837891 66.43994141 C19.65634756 64.5110672 18.68190976 62.6027829 17.69921875 60.69921875 C16.5 58.1875 16.5 58.1875 16.5 56.1875 C-0.825 56.6825 -0.825 56.6825 -18.5 57.1875 C-22.28024863 64.94538102 -22.28024863 64.94538102 -26.03808594 72.71411133 C-26.75399902 74.16466919 -26.75399902 74.16466919 -27.484375 75.64453125 C-28.20705566 77.1291687 -28.20705566 77.1291687 -28.94433594 78.64379883 C-30.56085207 81.28700058 -31.82490801 82.6520285 -34.5 84.1875 C-37.9803645 84.11647215 -39.79485909 83.80165498 -42.4375 81.5 C-43.90576079 78.30437357 -43.29643824 76.6002584 -42.5 73.1875 C-41.48125079 70.76986522 -40.4279675 68.46565997 -39.25292969 66.12817383 C-38.91944016 65.44936661 -38.58595062 64.77055939 -38.24235535 64.07118225 C-37.14384122 61.84140862 -36.03356683 59.61776099 -34.921875 57.39453125 C-34.15028028 55.84102198 -33.37898349 54.2873647 -32.60797119 52.73356628 C-30.99274611 49.48371407 -29.37117893 46.23711904 -27.74560547 42.99243164 C-25.66485926 38.83694558 -23.60442121 34.67175043 -21.54914474 30.5036211 C-19.96312161 27.29459477 -18.36431876 24.09206593 -16.76181793 20.89124107 C-15.99667249 19.35807936 -15.23600327 17.82267514 -14.47994232 16.2850132 C-13.42140406 14.13596934 -12.34543001 11.99656698 -11.26464844 9.85864258 C-10.95692001 9.22430298 -10.64919159 8.58996338 -10.33213806 7.93640137 C-7.95937225 3.3127288 -5.36078294 0.40205872 0 0 Z M-1.5 22.1875 C-3.17333158 25.30897545 -4.83751716 28.43523498 -6.5 31.5625 C-6.97695312 32.45195312 -7.45390625 33.34140625 -7.9453125 34.2578125 C-8.39648438 35.10859375 -8.84765625 35.959375 -9.3125 36.8359375 C-9.73144531 37.62145996 -10.15039062 38.40698242 -10.58203125 39.21630859 C-11.64072001 41.12726431 -11.64072001 41.12726431 -11.5 43.1875 C-4.57 43.1875 2.36 43.1875 9.5 43.1875 C8.05625 40.09375 6.6125 37 5.125 33.8125 C4.67334473 32.83877441 4.22168945 31.86504883 3.75634766 30.86181641 C3.39589355 30.09530762 3.03543945 29.32879883 2.6640625 28.5390625 C2.29748535 27.75354004 1.9309082 26.96801758 1.55322266 26.15869141 C0.54123526 24.03511117 0.54123526 24.03511117 -1.5 22.1875 Z " fill="#000000" transform="translate(185.5,225.8125)"/>
</svg>
