<svg width="40" height="40" viewBox="0 0 40 40" fill="none" xmlns="http://www.w3.org/2000/svg">
<g clip-path="url(#clip0_97_5920)">
<path d="M27.8143 -0.0215125C27.6254 -0.0218526 27.4365 -0.0222576 27.2476 -0.0227225C26.7898 -0.0236566 26.332 -0.0238591 25.8742 -0.0236756C25.5016 -0.0235356 25.129 -0.0236742 24.7564 -0.0240056C24.7031 -0.0240521 24.6499 -0.0240986 24.595 -0.0241465C24.4868 -0.0242412 24.3786 -0.024336 24.2703 -0.0244311C23.2578 -0.0252788 22.2452 -0.0251127 21.2327 -0.0246354C20.3091 -0.0242318 19.3856 -0.0251104 18.462 -0.0265962C17.5108 -0.0281147 16.5595 -0.0287543 15.6082 -0.0284615C15.0753 -0.0283128 14.5425 -0.0284999 14.0096 -0.0296111C13.5081 -0.0305987 13.0067 -0.0304373 12.5052 -0.0294228C12.3221 -0.029239 12.139 -0.0294476 11.9558 -0.0300965C8.80739 -0.0404395 6.06186 0.93394 3.79436 3.16065C3.6675 3.28503 3.53908 3.40763 3.41049 3.53022C1.7572 5.12392 0.677002 7.06403 0.155788 9.29682C0.141685 9.35576 0.127583 9.4147 0.113052 9.47542C-0.0617294 10.3425 -0.0235901 11.2286 -0.0231552 12.1089C-0.0236244 12.2989 -0.0241585 12.4889 -0.0247498 12.6789C-0.0259819 13.1399 -0.026474 13.6009 -0.0265579 14.0619C-0.0266342 14.4372 -0.0269585 14.8125 -0.0274506 15.1879C-0.0288277 16.2552 -0.0295486 17.3226 -0.0294304 18.3899C-0.0294228 18.476 -0.0294228 18.476 -0.0294113 18.5639C-0.0294037 18.6213 -0.0293999 18.6788 -0.0293922 18.738C-0.0293274 19.668 -0.0308228 20.5979 -0.0330276 21.5279C-0.0352783 22.486 -0.0363503 23.4441 -0.0362167 24.4021C-0.0361633 24.9387 -0.0365829 25.4753 -0.0382767 26.0119C-0.0398598 26.5172 -0.0397911 27.0225 -0.038662 27.5278C-0.0385017 27.7121 -0.0388641 27.8964 -0.0398178 28.0807C-0.0554008 31.3075 1.03451 34.0149 3.28079 36.3281C3.3218 36.3711 3.36282 36.4141 3.40507 36.4585C5.23183 38.3742 7.77665 39.8932 10.4877 40.0073C10.6933 40.0104 10.8988 40.0111 11.1044 40.0109C11.1831 40.0111 11.2617 40.0114 11.3427 40.0116C11.6057 40.0123 11.8687 40.0124 12.1316 40.0125C12.3204 40.0129 12.5092 40.0133 12.698 40.0137C13.2107 40.0147 13.7234 40.0152 14.2361 40.0156C14.5568 40.0158 14.8775 40.0161 15.1982 40.0165C16.0877 40.0174 16.9772 40.0182 17.8667 40.0185C17.9236 40.0185 17.9804 40.0185 18.039 40.0186C18.1245 40.0186 18.1245 40.0186 18.2118 40.0186C18.3273 40.0186 18.4427 40.0187 18.5582 40.0187C18.6442 40.0187 18.6442 40.0187 18.7318 40.0188C19.6584 40.0191 20.585 40.0204 21.5117 40.0223C22.465 40.0241 23.4184 40.0251 24.3718 40.0252C24.9063 40.0252 25.4407 40.0257 25.9752 40.0271C26.4785 40.0285 26.9819 40.0286 27.4853 40.0279C27.6692 40.0278 27.8531 40.0282 28.0369 40.0289C31.2761 40.0418 33.9825 38.9689 36.3277 36.7187C36.3907 36.6588 36.3907 36.6588 36.455 36.5978C38.1681 34.9647 39.3047 33.0102 39.8433 30.7031C39.8574 30.6441 39.8715 30.5852 39.886 30.5244C40.0607 29.6577 40.0227 28.7721 40.0222 27.8923C40.0227 27.7024 40.0232 27.5125 40.0238 27.3226C40.0251 26.8619 40.0256 26.4012 40.0256 25.9405C40.0257 25.5653 40.026 25.1902 40.0265 24.8151C40.0279 23.7481 40.0286 22.6812 40.0285 21.6142C40.0285 21.5281 40.0285 21.5281 40.0285 21.4403C40.0285 21.3829 40.0285 21.3254 40.0285 21.2662C40.0284 20.3368 40.0299 19.4074 40.0321 18.478C40.0344 17.5204 40.0354 16.5627 40.0353 15.6051C40.0352 15.0688 40.0357 14.5325 40.0374 13.9962C40.0389 13.4911 40.0389 12.986 40.0377 12.4809C40.0376 12.2968 40.0379 12.1126 40.0389 11.9285C40.0546 8.68993 38.9707 5.99128 36.7183 3.67182C36.6773 3.62879 36.6363 3.58577 36.594 3.54143C35.178 2.05648 33.4856 0.933668 31.5034 0.361273C31.4389 0.34263 31.3743 0.323986 31.3078 0.304778C30.1423 -0.0125386 29.0139 -0.0229429 27.8143 -0.0215125ZM34.3745 5.85932C34.4125 5.89656 34.4505 5.93379 34.4896 5.97216C35.5568 7.0314 36.3044 8.34279 36.6646 9.80463C36.6833 9.87955 36.6833 9.87955 36.7024 9.95598C36.9405 11.0168 36.8858 12.1379 36.8846 13.2183C36.8848 13.383 36.8849 13.5476 36.8851 13.7123C36.8854 14.1565 36.8853 14.6007 36.885 15.0449C36.8848 15.5115 36.885 15.9781 36.8851 16.4447C36.8853 17.228 36.8851 18.0113 36.8847 18.7947C36.8843 19.6981 36.8844 20.6015 36.8849 21.505C36.8852 22.283 36.8853 23.0611 36.8851 23.8391C36.8849 24.3027 36.8849 24.7664 36.8852 25.2301C36.8854 25.6661 36.8853 26.1022 36.8848 26.5382C36.8847 26.6975 36.8847 26.8568 36.8849 27.0161C36.8879 30.0208 36.263 32.1727 34.1548 34.3847C32.0092 36.4561 29.6699 36.8871 26.7874 36.8863C26.6233 36.8865 26.4593 36.8868 26.2953 36.8871C25.8527 36.8878 25.4101 36.888 24.9675 36.888C24.6901 36.8881 24.4128 36.8882 24.1355 36.8884C23.1658 36.8892 22.196 36.8895 21.2263 36.8894C20.326 36.8894 19.4256 36.8902 18.5253 36.8914C17.7492 36.8925 16.9732 36.8929 16.1972 36.8928C15.735 36.8928 15.2729 36.893 14.8107 36.8939C14.3756 36.8946 13.9405 36.8946 13.5055 36.894C13.347 36.894 13.1885 36.8941 13.03 36.8946C9.93953 36.9033 7.69546 36.1943 5.46829 33.9843C5.40132 33.9184 5.33435 33.8524 5.26535 33.7844C4.31758 32.7932 3.661 31.5203 3.3345 30.1953C3.31579 30.1203 3.31579 30.1203 3.2967 30.0439C3.05861 28.983 3.11325 27.862 3.11443 26.7816C3.11433 26.6169 3.11419 26.4523 3.11402 26.2876C3.11366 25.8434 3.1138 25.3992 3.11404 24.955C3.11424 24.4884 3.11406 24.0218 3.11394 23.5552C3.1138 22.7719 3.11398 21.9886 3.11435 21.2052C3.11478 20.3018 3.11464 19.3983 3.11421 18.4949C3.11386 17.7169 3.11381 16.9388 3.11401 16.1608C3.11413 15.6971 3.11415 15.2335 3.11389 14.7698C3.11367 14.3338 3.11382 13.8977 3.11427 13.4617C3.11438 13.3024 3.11435 13.1431 3.11417 12.9838C3.11118 9.95477 3.75517 7.76987 5.90286 5.56147C7.00638 4.49115 8.30963 3.70012 9.80911 3.33491C9.85969 3.32244 9.91027 3.30998 9.96239 3.29714C10.9994 3.06539 12.0846 3.1133 13.1403 3.1136C13.306 3.11336 13.4716 3.1131 13.6373 3.1128C14.0848 3.11211 14.5322 3.11193 14.9797 3.11188C15.26 3.11182 15.5402 3.11166 15.8205 3.11145C16.8003 3.11073 17.78 3.11041 18.7598 3.11047C19.6699 3.11052 20.5799 3.10969 21.49 3.10846C22.274 3.10743 23.0581 3.10702 23.8422 3.10707C24.3093 3.10709 24.7763 3.10687 25.2434 3.10604C25.6831 3.10527 26.1228 3.10528 26.5625 3.10584C26.7228 3.10592 26.8831 3.10574 27.0434 3.10527C29.9907 3.09708 32.2633 3.76562 34.3745 5.85932Z" fill="black"/>
<path d="M18.4921 12.2362C18.4231 12.234 18.3541 12.2318 18.2831 12.2295C17.6349 12.3287 17.2179 12.7378 16.7759 13.1857C16.7146 13.2466 16.6533 13.3075 16.5901 13.3702C16.3888 13.5706 16.1886 13.772 15.9885 13.9736C15.8483 14.1137 15.708 14.2539 15.5677 14.3939C15.2744 14.6872 14.9815 14.981 14.6891 15.2752C14.352 15.6145 14.0138 15.9527 13.6752 16.2905C13.3482 16.6166 13.0218 16.9434 12.6958 17.2706C12.5575 17.4092 12.4191 17.5476 12.2805 17.6859C12.0868 17.8794 11.8939 18.0736 11.7011 18.2681C11.644 18.3248 11.587 18.3815 11.5282 18.44C11.0706 18.9043 10.738 19.3086 10.7333 19.9901C10.7307 20.0785 10.7281 20.167 10.7254 20.2581C10.8568 20.9263 11.3923 21.4258 11.8608 21.8913C11.9497 21.981 11.9497 21.981 12.0403 22.0725C12.2346 22.2682 12.4296 22.4629 12.6248 22.6577C12.761 22.7942 12.8973 22.9309 13.0334 23.0675C13.3182 23.353 13.6034 23.638 13.8888 23.9227C14.254 24.287 14.618 24.6525 14.9816 25.0184C15.2623 25.3005 15.5437 25.5819 15.8253 25.863C15.9598 25.9975 16.094 26.1322 16.228 26.2672C16.4155 26.4559 16.604 26.6435 16.7927 26.8309C16.8474 26.8864 16.9022 26.9418 16.9585 26.999C17.3448 27.3795 17.727 27.6756 18.2748 27.7758C18.8198 27.7692 19.2435 27.6905 19.6518 27.3104C19.9653 26.9577 20.1016 26.6152 20.1083 26.1473C20.1105 26.0784 20.1128 26.0094 20.115 25.9383C20.0031 25.2068 19.4897 24.7596 18.9841 24.265C18.9074 24.1889 18.8307 24.1127 18.7542 24.0365C18.554 23.8375 18.3529 23.6394 18.1516 23.4416C17.9457 23.2389 17.7407 23.0354 17.5357 22.8319C17.1343 22.4339 16.732 22.0369 16.329 21.6405C16.3898 21.6403 16.4506 21.6401 16.5132 21.6399C17.992 21.6353 19.4708 21.6294 20.9497 21.6221C21.6648 21.6186 22.38 21.6155 23.0951 21.6134C23.7185 21.6116 24.3418 21.609 24.9652 21.6054C25.2952 21.6036 25.6252 21.6021 25.9553 21.6016C26.266 21.6012 26.5768 21.5996 26.8875 21.5972C27.0014 21.5965 27.1154 21.5962 27.2293 21.5964C27.3852 21.5965 27.541 21.595 27.6968 21.5935C27.784 21.5932 27.8711 21.5928 27.9609 21.5924C28.4545 21.5314 28.7455 21.2924 29.0433 20.9175C29.3357 20.5116 29.3566 20.0967 29.2978 19.6093C29.1552 19.1251 28.8533 18.7937 28.4384 18.5155C28.1829 18.4303 27.9941 18.4266 27.725 18.425C27.6248 18.4243 27.5245 18.4235 27.4213 18.4227C27.31 18.4222 27.1986 18.4218 27.0873 18.4213C26.9703 18.4206 26.8533 18.4198 26.7363 18.419C26.4183 18.4169 26.1003 18.4152 25.7824 18.4137C25.4502 18.412 25.118 18.4098 24.7858 18.4077C24.1566 18.4038 23.5274 18.4003 22.8982 18.397C22.182 18.3931 21.4657 18.3888 20.7495 18.3845C19.276 18.3756 17.8025 18.3672 16.329 18.3593C16.3714 18.3176 16.4138 18.2759 16.4574 18.233C16.8582 17.8385 17.2582 17.4432 17.6574 17.0471C17.8626 16.8435 18.0681 16.6402 18.2743 16.4376C18.4736 16.2417 18.672 16.0451 18.87 15.8479C18.9818 15.737 19.0944 15.6268 19.207 15.5167C19.6422 15.0816 20.0064 14.694 20.1205 14.0697C20.114 13.5247 20.0353 13.101 19.6551 12.6927C19.3024 12.3792 18.96 12.243 18.4921 12.2362Z" fill="black"/>
</g>
<defs>
<clipPath id="clip0_97_5920">
<rect width="40" height="40" fill="white" transform="matrix(-1 0 0 1 40 0)"/>
</clipPath>
</defs>
</svg>
