<svg width="40" height="40" viewBox="0 0 40 40" fill="none" xmlns="http://www.w3.org/2000/svg">
<g clip-path="url(#clip0_97_5917)">
<path d="M12.1857 -0.0215125C12.3746 -0.0218526 12.5635 -0.0222576 12.7524 -0.0227225C13.2102 -0.0236566 13.668 -0.0238591 14.1258 -0.0236756C14.4984 -0.0235356 14.871 -0.0236742 15.2436 -0.0240056C15.2969 -0.0240521 15.3501 -0.0240986 15.405 -0.0241465C15.5132 -0.0242412 15.6214 -0.024336 15.7297 -0.0244311C16.7422 -0.0252788 17.7548 -0.0251127 18.7673 -0.0246354C19.6909 -0.0242318 20.6144 -0.0251104 21.538 -0.0265962C22.4892 -0.0281147 23.4405 -0.0287543 24.3918 -0.0284615C24.9247 -0.0283128 25.4575 -0.0284999 25.9904 -0.0296111C26.4919 -0.0305987 26.9933 -0.0304373 27.4948 -0.0294228C27.6779 -0.029239 27.861 -0.0294476 28.0442 -0.0300965C31.1926 -0.0404395 33.9381 0.93394 36.2056 3.16065C36.3325 3.28503 36.4609 3.40763 36.5895 3.53022C38.2428 5.12392 39.323 7.06403 39.8442 9.29682C39.8583 9.35576 39.8724 9.4147 39.8869 9.47542C40.0617 10.3425 40.0236 11.2286 40.0232 12.1089C40.0236 12.2989 40.0242 12.4889 40.0247 12.6789C40.026 13.1399 40.0265 13.6009 40.0266 14.0619C40.0266 14.4372 40.027 14.8125 40.0275 15.1879C40.0288 16.2552 40.0295 17.3226 40.0294 18.3899C40.0294 18.476 40.0294 18.476 40.0294 18.5639C40.0294 18.6213 40.0294 18.6788 40.0294 18.738C40.0293 19.668 40.0308 20.5979 40.033 21.5279C40.0353 22.486 40.0364 23.4441 40.0362 24.4021C40.0362 24.9387 40.0366 25.4753 40.0383 26.0119C40.0399 26.5172 40.0398 27.0225 40.0387 27.5278C40.0385 27.7121 40.0389 27.8964 40.0398 28.0807C40.0554 31.3075 38.9655 34.0149 36.7192 36.3281C36.6782 36.3711 36.6372 36.4141 36.5949 36.4585C34.7682 38.3742 32.2234 39.8932 29.5123 40.0073C29.3067 40.0104 29.1012 40.0111 28.8956 40.0109C28.8169 40.0111 28.7383 40.0114 28.6573 40.0116C28.3943 40.0123 28.1313 40.0124 27.8684 40.0125C27.6796 40.0129 27.4908 40.0133 27.302 40.0137C26.7893 40.0147 26.2766 40.0152 25.7639 40.0156C25.4432 40.0158 25.1225 40.0161 24.8018 40.0165C23.9123 40.0174 23.0228 40.0182 22.1333 40.0185C22.0764 40.0185 22.0196 40.0185 21.961 40.0186C21.8755 40.0186 21.8755 40.0186 21.7882 40.0186C21.6727 40.0186 21.5573 40.0187 21.4418 40.0187C21.3558 40.0187 21.3558 40.0187 21.2682 40.0188C20.3416 40.0191 19.415 40.0204 18.4883 40.0223C17.535 40.0241 16.5816 40.0251 15.6282 40.0252C15.0937 40.0252 14.5593 40.0257 14.0248 40.0271C13.5215 40.0285 13.0181 40.0286 12.5147 40.0279C12.3308 40.0278 12.1469 40.0282 11.9631 40.0289C8.72392 40.0418 6.0175 38.9689 3.67233 36.7187C3.60929 36.6588 3.60929 36.6588 3.54496 36.5978C1.83192 34.9647 0.695258 33.0102 0.156709 30.7031C0.142605 30.6441 0.128501 30.5852 0.113969 30.5244C-0.0607024 29.6577 -0.0226712 28.7721 -0.022238 27.8923C-0.0227061 27.7024 -0.0232379 27.5125 -0.0238283 27.3226C-0.0250614 26.8619 -0.0255552 26.4012 -0.0256426 25.9405C-0.0257172 25.5653 -0.0260397 25.1902 -0.0265331 24.8151C-0.0279076 23.7481 -0.0286306 22.6812 -0.0285132 21.6142C-0.0285038 21.5281 -0.0285037 21.5281 -0.0284941 21.4403C-0.0284877 21.3829 -0.0284816 21.3254 -0.0284751 21.2662C-0.0284117 20.3368 -0.0299045 19.4074 -0.0321098 18.478C-0.0343637 17.5204 -0.0354319 16.5627 -0.0352974 15.6051C-0.0352459 15.0688 -0.0356618 14.5325 -0.0373573 13.9962C-0.0389442 13.4911 -0.0388735 12.986 -0.0377448 12.4809C-0.0375828 12.2968 -0.0379419 12.1126 -0.0388951 11.9285C-0.0545597 8.68993 1.02927 5.99128 3.28171 3.67182C3.32272 3.62879 3.36374 3.58577 3.40599 3.54143C4.822 2.05648 6.51444 0.933668 8.49655 0.361273C8.56111 0.34263 8.62566 0.323986 8.69217 0.304778C9.85773 -0.0125386 10.9861 -0.0229429 12.1857 -0.0215125ZM5.62546 5.85932C5.58749 5.89656 5.54953 5.93379 5.51041 5.97216C4.44317 7.0314 3.69562 8.34279 3.33542 9.80463C3.31671 9.87955 3.31671 9.87955 3.29762 9.95598C3.05953 11.0168 3.11417 12.1379 3.11535 13.2183C3.11524 13.383 3.11511 13.5476 3.11494 13.7123C3.11458 14.1565 3.11472 14.6007 3.11497 15.0449C3.11516 15.5115 3.11498 15.9781 3.11486 16.4447C3.11472 17.228 3.1149 18.0113 3.11527 18.7947C3.1157 19.6981 3.11556 20.6015 3.11513 21.505C3.11478 22.283 3.11473 23.0611 3.11493 23.8391C3.11505 24.3027 3.11507 24.7664 3.11481 25.2301C3.11458 25.6661 3.11474 26.1022 3.11519 26.5382C3.1153 26.6975 3.11527 26.8568 3.1151 27.0161C3.11213 30.0208 3.73704 32.1727 5.84519 34.3847C7.99082 36.4561 10.3301 36.8871 13.2126 36.8863C13.3767 36.8865 13.5407 36.8868 13.7047 36.8871C14.1473 36.8878 14.5899 36.888 15.0325 36.888C15.3099 36.8881 15.5872 36.8882 15.8645 36.8884C16.8342 36.8892 17.804 36.8895 18.7737 36.8894C19.674 36.8894 20.5744 36.8902 21.4747 36.8914C22.2508 36.8925 23.0268 36.8929 23.8028 36.8928C24.265 36.8928 24.7271 36.893 25.1893 36.8939C25.6244 36.8946 26.0595 36.8946 26.4945 36.894C26.653 36.894 26.8115 36.8941 26.97 36.8946C30.0605 36.9033 32.3045 36.1943 34.5317 33.9843C34.5987 33.9184 34.6657 33.8524 34.7347 33.7844C35.6824 32.7932 36.339 31.5203 36.6655 30.1953C36.6842 30.1203 36.6842 30.1203 36.7033 30.0439C36.9414 28.983 36.8867 27.862 36.8856 26.7816C36.8857 26.6169 36.8858 26.4523 36.886 26.2876C36.8863 25.8434 36.8862 25.3992 36.886 24.955C36.8858 24.4884 36.8859 24.0218 36.8861 23.5552C36.8862 22.7719 36.886 21.9886 36.8856 21.2052C36.8852 20.3018 36.8854 19.3983 36.8858 18.4949C36.8861 17.7169 36.8862 16.9388 36.886 16.1608C36.8859 15.6971 36.8858 15.2335 36.8861 14.7698C36.8863 14.3338 36.8862 13.8977 36.8857 13.4617C36.8856 13.3024 36.8857 13.1431 36.8858 12.9838C36.8888 9.95477 36.2448 7.76987 34.0971 5.56147C32.9936 4.49115 31.6904 3.70012 30.1909 3.33491C30.1403 3.32244 30.0897 3.30998 30.0376 3.29714C29.0006 3.06539 27.9154 3.1133 26.8597 3.1136C26.694 3.11336 26.5284 3.1131 26.3627 3.1128C25.9152 3.11211 25.4678 3.11193 25.0203 3.11188C24.74 3.11182 24.4598 3.11166 24.1795 3.11145C23.1997 3.11073 22.22 3.11041 21.2402 3.11047C20.3301 3.11052 19.4201 3.10969 18.51 3.10846C17.726 3.10743 16.9419 3.10702 16.1578 3.10707C15.6907 3.10709 15.2237 3.10687 14.7566 3.10604C14.3169 3.10527 13.8772 3.10528 13.4375 3.10584C13.2772 3.10592 13.1169 3.10574 12.9566 3.10527C10.0093 3.09708 7.73671 3.76562 5.62546 5.85932Z" fill="black"/>
<path d="M21.5079 12.2362C21.5769 12.234 21.6459 12.2318 21.7169 12.2295C22.3651 12.3287 22.7821 12.7378 23.2241 13.1857C23.2854 13.2466 23.3467 13.3075 23.4099 13.3702C23.6112 13.5706 23.8114 13.772 24.0115 13.9736C24.1517 14.1137 24.292 14.2539 24.4323 14.3939C24.7256 14.6872 25.0185 14.981 25.3109 15.2752C25.648 15.6145 25.9862 15.9527 26.3248 16.2905C26.6518 16.6166 26.9782 16.9434 27.3042 17.2706C27.4425 17.4092 27.5809 17.5476 27.7195 17.6859C27.9132 17.8794 28.1061 18.0736 28.2989 18.2681C28.356 18.3248 28.413 18.3815 28.4718 18.44C28.9294 18.9043 29.262 19.3086 29.2667 19.9901C29.2693 20.0785 29.2719 20.167 29.2746 20.2581C29.1432 20.9263 28.6077 21.4258 28.1392 21.8913C28.0503 21.981 28.0503 21.981 27.9597 22.0725C27.7654 22.2682 27.5704 22.4629 27.3752 22.6577C27.239 22.7942 27.1027 22.9309 26.9666 23.0675C26.6818 23.353 26.3966 23.638 26.1112 23.9227C25.746 24.287 25.382 24.6525 25.0184 25.0184C24.7377 25.3005 24.4563 25.5819 24.1747 25.863C24.0402 25.9975 23.906 26.1322 23.772 26.2672C23.5845 26.4559 23.396 26.6435 23.2073 26.8309C23.1526 26.8864 23.0978 26.9418 23.0415 26.999C22.6552 27.3795 22.273 27.6756 21.7252 27.7758C21.1802 27.7692 20.7565 27.6905 20.3482 27.3104C20.0347 26.9577 19.8984 26.6152 19.8917 26.1473C19.8895 26.0784 19.8872 26.0094 19.885 25.9383C19.9969 25.2068 20.5103 24.7596 21.0159 24.265C21.0926 24.1889 21.1693 24.1127 21.2458 24.0365C21.446 23.8375 21.6471 23.6394 21.8484 23.4416C22.0543 23.2389 22.2593 23.0354 22.4643 22.8319C22.8657 22.4339 23.268 22.0369 23.671 21.6405C23.6102 21.6403 23.5494 21.6401 23.4868 21.6399C22.008 21.6353 20.5292 21.6294 19.0503 21.6221C18.3352 21.6186 17.62 21.6155 16.9049 21.6134C16.2815 21.6116 15.6582 21.609 15.0348 21.6054C14.7048 21.6036 14.3748 21.6021 14.0447 21.6016C13.734 21.6012 13.4232 21.5996 13.1125 21.5972C12.9986 21.5965 12.8846 21.5962 12.7707 21.5964C12.6148 21.5965 12.459 21.595 12.3032 21.5935C12.216 21.5932 12.1289 21.5928 12.0391 21.5924C11.5455 21.5314 11.2545 21.2924 10.9567 20.9175C10.6643 20.5116 10.6434 20.0967 10.7022 19.6093C10.8448 19.1251 11.1467 18.7937 11.5616 18.5155C11.8171 18.4303 12.0059 18.4266 12.275 18.425C12.3752 18.4243 12.4755 18.4235 12.5787 18.4227C12.69 18.4222 12.8014 18.4218 12.9127 18.4213C13.0297 18.4206 13.1467 18.4198 13.2637 18.419C13.5817 18.4169 13.8997 18.4152 14.2176 18.4137C14.5498 18.412 14.882 18.4098 15.2142 18.4077C15.8434 18.4038 16.4726 18.4003 17.1018 18.397C17.818 18.3931 18.5343 18.3888 19.2505 18.3845C20.724 18.3756 22.1975 18.3672 23.671 18.3593C23.6286 18.3176 23.5862 18.2759 23.5426 18.233C23.1418 17.8385 22.7418 17.4432 22.3426 17.0471C22.1374 16.8435 21.9319 16.6402 21.7257 16.4376C21.5264 16.2417 21.328 16.0451 21.13 15.8479C21.0182 15.737 20.9056 15.6268 20.793 15.5167C20.3578 15.0816 19.9936 14.694 19.8795 14.0697C19.886 13.5247 19.9647 13.101 20.3449 12.6927C20.6976 12.3792 21.04 12.243 21.5079 12.2362Z" fill="black"/>
</g>
<defs>
<clipPath id="clip0_97_5917">
<rect width="40" height="40" fill="white"/>
</clipPath>
</defs>
</svg>
