<svg width="491" height="491" viewBox="0 0 491 491" fill="none" xmlns="http://www.w3.org/2000/svg">
<g filter="url(#filter0_d_3145_191)">
<path fill-rule="evenodd" clip-rule="evenodd" d="M369.523 205.62L483.889 237.406C485.725 237.917 486.998 239.589 487 241.503C487 243.411 485.727 245.083 483.891 245.594L369.525 277.382C369.291 278.187 369.041 278.988 368.792 279.789L405.218 292.536C406.99 293.156 407.925 295.095 407.304 296.865C406.815 298.264 405.5 299.141 404.098 299.141C403.726 299.141 403.347 299.079 402.977 298.949L366.604 286.222C365.699 288.667 364.72 291.088 363.665 293.479L442.474 336.226C444.122 337.121 444.734 339.183 443.839 340.833C443.223 341.966 442.057 342.609 440.85 342.609C440.303 342.609 439.747 342.477 439.232 342.197L360.753 299.628C359.972 301.175 359.169 302.713 358.323 304.229L381.819 372.423C382.346 373.957 381.955 375.659 380.806 376.808C379.657 377.958 377.953 378.352 376.419 377.821L308.224 354.326C307.353 354.811 306.47 355.28 305.587 355.746L322.342 390.54C323.157 392.232 322.446 394.262 320.756 395.075C320.28 395.305 319.777 395.412 319.284 395.412C318.019 395.412 316.806 394.705 316.221 393.489L299.494 358.753C297.123 359.849 294.721 360.874 292.292 361.821L317.791 447.776C318.325 449.574 317.3 451.466 315.5 451.997C315.178 452.093 314.853 452.139 314.533 452.139C313.069 452.139 311.716 451.184 311.279 449.706L285.887 364.118C284.391 364.612 282.891 365.087 281.378 365.525L249.59 479.892C249.079 481.727 247.405 483 245.497 483C243.589 483 241.915 481.727 241.404 479.892L209.616 365.525C208.934 365.328 208.256 365.117 207.577 364.906L207.577 364.906L207.196 364.788L194.441 401.24C193.951 402.64 192.637 403.517 191.234 403.517C190.863 403.517 190.483 403.455 190.114 403.325C188.342 402.704 187.407 400.766 188.028 398.996L200.766 362.596C198.32 361.691 195.901 360.712 193.512 359.659L150.75 438.493C150.135 439.628 148.968 440.271 147.761 440.271C147.214 440.271 146.659 440.139 146.145 439.859C144.495 438.966 143.884 436.903 144.779 435.255L187.363 356.749C185.818 355.968 184.284 355.167 182.772 354.324L114.577 377.819C113.047 378.346 111.341 377.956 110.192 376.806C109.043 375.659 108.65 373.957 109.179 372.421L132.675 304.227C132.189 303.356 131.722 302.479 131.258 301.598L96.4355 318.367C95.9601 318.597 95.4566 318.704 94.9632 318.704C93.6986 318.704 92.486 317.995 91.9006 316.781C91.0875 315.091 91.7968 313.059 93.4868 312.246L128.252 295.505C127.157 293.134 126.132 290.734 125.185 288.307L39.1982 313.814C38.8766 313.908 38.5509 313.954 38.2313 313.954C36.7669 313.954 35.4145 312.999 34.977 311.523C34.4436 309.725 35.4684 307.833 37.2684 307.299L122.886 281.901C122.39 280.4 121.915 278.894 121.475 277.378L7.10849 245.59C5.27256 245.079 4 243.407 4 241.499C4 239.591 5.27256 237.919 7.10849 237.408L121.475 205.622C121.681 204.911 121.9 204.205 122.12 203.499L122.204 203.227L85.7356 190.466C83.9636 189.846 83.0286 187.906 83.6499 186.137C84.2692 184.369 86.2111 183.432 87.9791 184.053L124.392 196.794C125.297 194.351 126.274 191.932 127.327 189.543L48.4817 146.776C46.8336 145.881 46.2223 143.817 47.1173 142.169C48.0123 140.519 50.0719 139.908 51.7241 140.803L130.237 183.39C131.022 181.837 131.827 180.293 132.677 178.771L109.181 110.577C108.654 109.043 109.045 107.341 110.194 106.192C111.345 105.044 113.049 104.652 114.579 105.179L182.772 128.676C183.635 128.197 184.504 127.733 185.375 127.274L168.61 92.4599C167.797 90.7699 168.506 88.7382 170.196 87.9251C171.89 87.1101 173.918 87.8213 174.731 89.5113L191.466 124.263C193.835 123.169 196.235 122.142 198.664 121.195L173.161 35.2236C172.627 33.4257 173.652 31.5338 175.452 31.0005C177.242 30.4671 179.14 31.4919 179.673 33.2918L205.063 118.898C206.573 118.398 208.087 117.919 209.614 117.477L241.402 3.11043C241.913 1.27054 243.587 0 245.495 0C247.403 0 249.077 1.27254 249.588 3.11043L281.376 117.477C282.054 117.674 282.725 117.883 283.398 118.092L283.756 118.202L296.507 81.7602C297.125 79.9922 299.066 79.0553 300.834 79.6766C302.606 80.2959 303.541 82.2357 302.92 84.0056L290.188 120.39C292.634 121.295 295.053 122.272 297.444 123.325L340.2 44.509C341.095 42.8589 343.157 42.2475 344.807 43.1425C346.455 44.0375 347.066 46.1011 346.171 47.7492L303.595 126.235C305.152 127.022 306.698 127.829 308.224 128.678L376.417 105.181C377.951 104.652 379.655 105.044 380.804 106.194C381.953 107.341 382.346 109.045 381.817 110.579L358.321 178.773C358.805 179.636 359.268 180.509 359.73 181.384L394.515 164.633C396.209 163.818 398.234 164.529 399.049 166.219C399.865 167.909 399.153 169.941 397.463 170.754L362.738 187.477C363.835 189.848 364.86 192.249 365.809 194.679L451.754 169.184C453.544 168.655 455.442 169.675 455.975 171.475C456.508 173.273 455.484 175.165 453.684 175.698L368.108 201.083C368.604 202.588 369.083 204.098 369.523 205.62ZM231.213 121.554C231.019 121.6 230.824 121.622 230.63 121.622C229.945 121.622 229.277 121.345 228.792 120.835C228.167 120.184 227.933 119.253 228.177 118.386L243.04 65.229C243.345 64.1283 244.35 63.3672 245.493 63.3672H245.707C246.849 63.3672 247.852 64.1283 248.16 65.229L263.023 118.386C263.262 119.247 263.035 120.17 262.421 120.821C261.806 121.473 260.901 121.754 260.024 121.562C259.876 121.53 244.891 118.336 231.213 121.554ZM148.103 167.958C148.197 167.968 148.293 167.974 148.385 167.974C149.26 167.974 150.083 167.523 150.55 166.768C157.948 154.819 170.801 146.483 170.929 146.401C171.756 145.872 172.203 144.915 172.081 143.94C171.958 142.967 171.29 142.15 170.359 141.838L138.42 131.192C137.507 130.889 136.49 131.126 135.807 131.814L135.657 131.963C134.972 132.653 134.738 133.671 135.056 134.59L145.973 166.258C146.297 167.187 147.124 167.85 148.103 167.958ZM124.775 224.532C125.425 225.145 125.706 226.056 125.517 226.929C125.483 227.079 122.288 242.062 125.509 255.74C125.714 256.619 125.443 257.54 124.791 258.163C124.31 258.625 123.677 258.872 123.027 258.872C122.798 258.872 122.568 258.84 122.34 258.778L69.1832 243.915C68.0825 243.606 67.3214 242.603 67.3214 241.46V241.249C67.3214 240.104 68.0825 239.101 69.1832 238.793L122.34 223.93C123.211 223.689 124.126 223.918 124.775 224.532ZM170.718 336.403C158.865 329.064 150.565 316.351 150.355 316.029L150.352 316.024C149.822 315.199 148.859 314.749 147.892 314.871C146.92 314.993 146.101 315.662 145.791 316.593L135.145 348.531C134.839 349.446 135.077 350.456 135.76 351.138L135.912 351.29C136.398 351.775 137.049 352.037 137.714 352.037C137.992 352.037 138.274 351.993 138.545 351.897L170.211 340.977C171.14 340.658 171.803 339.829 171.913 338.852C172.019 337.875 171.555 336.92 170.718 336.403ZM230.916 361.426C231.066 361.46 246.049 364.657 259.727 361.436C260.614 361.227 261.525 361.502 262.146 362.154C262.772 362.803 263.005 363.734 262.762 364.603L247.899 417.758C247.593 418.858 246.588 419.62 245.446 419.62H245.234C244.091 419.62 243.088 418.858 242.781 417.758L227.918 364.603C227.678 363.742 227.906 362.819 228.519 362.167C229.132 361.518 230.037 361.241 230.916 361.426ZM342.842 315.063C341.849 314.951 340.91 315.419 340.392 316.254C333.051 328.109 320.337 336.41 320.019 336.617L320.014 336.621C319.187 337.152 318.739 338.109 318.861 339.082C318.983 340.055 319.652 340.874 320.583 341.183L352.522 351.829C352.786 351.917 353.058 351.961 353.329 351.961C353.989 351.961 354.636 351.703 355.121 351.224L355.273 351.074C355.97 350.385 356.21 349.358 355.891 348.431L344.971 316.765C344.647 315.834 343.818 315.171 342.842 315.063ZM366.178 258.435C365.529 257.822 365.247 256.911 365.437 256.038C365.471 255.886 368.665 240.903 365.445 227.227C365.239 226.348 365.511 225.427 366.162 224.804C366.815 224.18 367.738 223.945 368.613 224.188L421.768 239.051C422.869 239.361 423.63 240.364 423.63 241.506V241.718C423.63 242.863 422.869 243.866 421.768 244.173L368.613 259.036C368.385 259.1 368.156 259.13 367.928 259.13C367.287 259.13 366.657 258.888 366.178 258.435ZM320.212 146.593C332.067 153.934 340.367 166.647 340.575 166.966L340.579 166.972C341.052 167.707 341.863 168.144 342.724 168.144C342.828 168.144 342.934 168.138 343.04 168.124C344.013 168.002 344.832 167.333 345.141 166.402L355.787 134.463C356.095 133.546 355.853 132.533 355.168 131.852L355.016 131.702C354.325 131.017 353.306 130.783 352.389 131.101L320.723 142.02C319.794 142.34 319.131 143.169 319.021 144.146C318.911 145.123 319.375 146.076 320.212 146.593ZM137.908 241.507C137.908 182.185 186.17 133.922 245.493 133.922C304.816 133.922 353.077 182.185 353.077 241.507C353.077 300.83 304.816 349.091 245.493 349.091C186.17 349.091 137.908 300.828 137.908 241.507ZM324.757 195.4C350.099 239.293 335.06 295.419 291.167 320.761C247.273 346.102 191.146 331.063 165.804 287.17C140.462 243.278 155.501 187.152 199.395 161.81C243.289 136.469 299.415 151.508 324.757 195.4ZM297.459 233.055C300.153 231.866 307.035 229.772 312.816 235.902C313.132 236.24 313.198 236.752 312.98 237.167C312.751 237.581 312.282 237.81 311.824 237.723L311.813 237.721C311.485 237.668 304.207 236.477 299.761 240.57C299.313 241.017 293.664 246.47 286.727 244.932C286.094 248.128 285.08 251.248 283.728 254.203C283.837 255.207 284.6 256.908 288.014 258.446C289.192 258.98 290.599 259.329 292.3 259.526C295.223 259.842 302.236 261.467 304.178 269.669C304.287 270.127 304.091 270.596 303.687 270.847C303.283 271.087 302.771 271.054 302.411 270.749L302.411 270.749C302.328 270.679 296.512 265.832 290.522 267.182C290.217 267.27 282.408 269.342 277.074 264.445C274.937 266.877 272.504 269.058 269.843 270.956C269.483 271.774 269.167 273.661 271.425 276.791C272.177 277.849 273.213 278.853 274.598 279.867C276.976 281.601 282.233 286.52 279.812 294.591C279.681 295.039 279.267 295.355 278.798 295.366C278.34 295.398 277.903 295.082 277.74 294.646C277.718 294.57 275.1 287.436 269.221 285.604C268.927 285.528 261.129 283.434 258.958 276.53C255.893 277.555 252.698 278.231 249.436 278.536C248.717 279.071 247.495 280.543 247.888 284.383C248.008 285.68 248.411 287.066 249.098 288.636C250.287 291.33 252.381 298.212 246.252 303.993C246.084 304.149 245.872 304.249 245.645 304.278C245.418 304.307 245.188 304.265 244.986 304.157C244.572 303.928 244.343 303.459 244.43 303.001L244.432 302.99C244.485 302.663 245.677 295.363 241.573 290.927L241.553 290.906C241.128 290.467 235.682 284.84 237.221 277.904C234.025 277.271 230.906 276.257 227.95 274.904C226.946 275.014 225.245 275.777 223.707 279.191C223.173 280.369 222.824 281.776 222.627 283.477C222.311 286.4 220.686 293.413 212.484 295.355C212.026 295.464 211.557 295.268 211.306 294.864C211.055 294.46 211.099 293.948 211.404 293.588L211.405 293.588C211.474 293.505 216.321 287.689 214.971 281.699C214.884 281.394 212.811 273.585 217.708 268.251C215.276 266.114 213.095 263.681 211.197 261.02C210.379 260.66 208.492 260.344 205.362 262.602C204.304 263.354 203.3 264.39 202.286 265.775C200.552 268.153 195.633 273.41 187.562 270.989C187.115 270.858 186.798 270.444 186.787 269.975C186.777 269.506 187.071 269.08 187.507 268.917C187.584 268.895 194.717 266.277 196.549 260.398C196.625 260.104 198.72 252.305 205.624 250.135C204.598 247.07 203.922 243.875 203.617 240.613C203.082 239.894 201.61 238.672 197.771 239.065C196.473 239.185 195.088 239.588 193.517 240.275C190.823 241.464 183.941 243.558 178.16 237.429C177.844 237.09 177.778 236.578 177.997 236.163C178.226 235.749 178.695 235.52 179.153 235.607L179.163 235.609C179.49 235.662 186.79 236.854 191.227 232.75L191.247 232.73C191.686 232.305 197.313 226.859 204.249 228.398C204.885 225.201 205.891 222.09 207.249 219.127C207.14 218.123 206.376 216.422 202.962 214.884C201.784 214.35 200.377 214.001 198.676 213.804C195.753 213.488 188.74 211.863 186.798 203.661C186.689 203.203 186.886 202.734 187.289 202.483C187.693 202.243 188.205 202.276 188.565 202.581L188.566 202.581C188.648 202.65 194.464 207.498 200.454 206.148C200.759 206.06 208.568 203.988 213.902 208.885C216.054 206.444 218.481 204.259 221.133 202.374C221.493 201.556 221.809 199.669 219.552 196.539C218.799 195.481 217.763 194.477 216.378 193.463C214 191.729 208.743 186.81 211.164 178.739C211.295 178.292 211.71 177.975 212.179 177.964C212.648 177.943 213.073 178.248 213.237 178.684C213.258 178.761 215.876 185.894 221.755 187.726C222.049 187.802 229.848 189.897 232.018 196.801C235.083 195.775 238.279 195.099 241.54 194.794C242.26 194.259 243.481 192.787 243.089 188.948C242.969 187.65 242.565 186.265 241.878 184.694C240.689 182 238.595 175.118 244.725 169.337C245.063 169.021 245.575 168.955 245.99 169.174C246.404 169.403 246.633 169.872 246.546 170.33L246.544 170.34C246.491 170.667 245.299 177.967 249.404 182.404L249.423 182.424C249.848 182.863 255.295 188.49 253.756 195.426C256.952 196.062 260.063 197.068 263.026 198.426C264.03 198.317 265.731 197.553 267.269 194.139C267.804 192.961 268.153 191.554 268.349 189.853C268.665 186.93 270.29 179.917 278.492 177.975C278.95 177.866 279.419 178.063 279.67 178.466C279.921 178.87 279.877 179.382 279.572 179.742L279.572 179.743C279.503 179.825 274.655 185.641 276.005 191.631C276.093 191.936 278.165 199.745 273.268 205.079C275.709 207.231 277.894 209.658 279.779 212.31C280.597 212.67 282.484 212.986 285.614 210.729C286.672 209.976 287.676 208.94 288.69 207.555C290.424 205.177 295.343 199.92 303.414 202.341C303.862 202.472 304.178 202.887 304.189 203.356C304.2 203.825 303.905 204.25 303.469 204.414C303.393 204.435 296.259 207.053 294.427 212.932C294.351 213.226 292.257 221.025 285.353 223.195C286.378 226.26 287.054 229.456 287.359 232.717C287.894 233.437 289.377 234.658 293.206 234.266C294.503 234.146 295.889 233.742 297.459 233.055ZM211.902 236.665C211.902 255.184 226.968 270.251 245.487 270.251C264.006 270.251 279.072 255.184 279.072 236.665C279.072 218.146 264.006 203.08 245.487 203.08C226.968 203.08 211.902 218.146 211.902 236.665ZM273.793 236.69C273.793 252.328 261.116 265.005 245.477 265.005C229.839 265.005 217.162 252.328 217.162 236.69C217.162 221.051 229.839 208.374 245.477 208.374C261.116 208.374 273.793 221.051 273.793 236.69Z" fill="black"/>
</g>
<defs>
<filter id="filter0_d_3145_191" x="0" y="0" width="491" height="491" filterUnits="userSpaceOnUse" color-interpolation-filters="sRGB">
<feFlood flood-opacity="0" result="BackgroundImageFix"/>
<feColorMatrix in="SourceAlpha" type="matrix" values="0 0 0 0 0 0 0 0 0 0 0 0 0 0 0 0 0 0 127 0" result="hardAlpha"/>
<feOffset dy="4"/>
<feGaussianBlur stdDeviation="2"/>
<feComposite in2="hardAlpha" operator="out"/>
<feColorMatrix type="matrix" values="0 0 0 0 0 0 0 0 0 0 0 0 0 0 0 0 0 0 0.25 0"/>
<feBlend mode="normal" in2="BackgroundImageFix" result="effect1_dropShadow_3145_191"/>
<feBlend mode="normal" in="SourceGraphic" in2="effect1_dropShadow_3145_191" result="shape"/>
</filter>
</defs>
</svg>
