<svg width="70" height="70" viewBox="0 0 70 70" fill="none" xmlns="http://www.w3.org/2000/svg">
<circle cx="35" cy="35" r="35" fill="#FFE8AF"/>
<path d="M34.9707 15.0003C35.0502 15.0005 35.1296 15.0006 35.2115 15.0008C36.3526 15.0047 37.4679 15.0292 38.5893 15.2588C38.6671 15.2739 38.7448 15.2889 38.8249 15.3045C41.8383 15.8999 44.6572 17.1266 47.0944 19.0041C47.1578 19.0525 47.2211 19.1009 47.2864 19.1507C48.618 20.1904 49.8946 21.4089 50.8964 22.7715C50.9976 22.9079 51.1014 23.042 51.2058 23.1759C51.8195 23.973 52.3177 24.828 52.7905 25.7146C52.8422 25.8114 52.8422 25.8114 52.8951 25.9102C53.7937 27.6192 54.3923 29.5146 54.7412 31.4107C54.7537 31.4731 54.7663 31.5356 54.7792 31.6C55.2065 33.7845 55.1974 36.411 54.7412 38.5893C54.7179 38.7034 54.7179 38.7034 54.6942 38.8198C54.2171 41.1007 53.4607 43.5783 52.076 45.4915C51.6253 46.057 51.6253 46.057 51.4765 46.7305C51.5578 46.9479 51.6582 47.1293 51.7761 47.3285C52.0235 48.2268 51.8679 49.2115 51.4494 50.0302C50.9121 50.924 50.1868 51.4587 49.2012 51.7761C48.3295 51.9841 47.532 51.8465 46.7043 51.542C46.4836 51.4387 46.4836 51.4387 46.3335 51.5275C46.2831 51.5616 46.2326 51.5958 46.1806 51.631C46.0941 51.6882 46.0941 51.6882 46.0059 51.7464C45.9434 51.7884 45.881 51.8304 45.8167 51.8736C43.6883 53.2556 41.3577 54.176 38.8721 54.6875C38.8167 54.699 38.7613 54.7105 38.7041 54.7224C37.4705 54.9579 36.2378 55.0046 34.9853 54.9997C34.9079 54.9995 34.8305 54.9993 34.7508 54.9992C33.6221 54.9952 32.52 54.9669 31.4107 54.7412C31.3328 54.7261 31.2549 54.711 31.1747 54.6955C27.9687 54.0619 25.0744 52.7066 22.5154 50.6837C22.4345 50.6203 22.3535 50.557 22.2701 50.4917C21.1004 49.5397 19.9833 48.4473 19.0985 47.2234C18.9999 47.0887 18.8981 46.9569 18.7954 46.8253C17.0207 44.5227 15.8978 41.7155 15.3173 38.8819C15.2996 38.7964 15.2996 38.7964 15.2816 38.7093C15.045 37.4847 14.9956 36.2734 15.0003 35.0292C15.0005 34.9498 15.0006 34.8703 15.0008 34.7885C15.0047 33.6476 15.0285 32.5318 15.2588 31.4107C15.2743 31.3317 15.2898 31.2527 15.3057 31.1713C15.7642 28.8788 16.5575 26.286 17.9843 24.3878C18.3964 23.8872 18.3964 23.8872 18.5183 23.2799C18.4373 23.0619 18.3371 22.8739 18.2239 22.6715C17.9783 21.7716 18.1314 20.7897 18.5506 19.9697C19.0878 19.0759 19.8131 18.5413 20.7988 18.2239C21.6705 18.0158 22.468 18.1535 23.2957 18.4579C23.4116 18.4966 23.4116 18.4966 23.5298 18.536C23.7228 18.4219 23.9025 18.3033 24.0857 18.1751C26.2152 16.7489 28.6144 15.8323 31.1181 15.3173C31.1751 15.3055 31.2321 15.2937 31.2908 15.2815C32.5154 15.0451 33.7265 14.9956 34.9707 15.0003ZM25.0904 20.4087C25.1089 20.5432 25.1089 20.5432 25.1279 20.6805C25.2694 21.8241 25.2153 22.876 24.514 23.8401C23.9472 24.5509 23.2524 24.9621 22.3594 25.1684C22.1393 25.187 21.9217 25.1868 21.701 25.183C21.6454 25.183 21.5899 25.1829 21.5326 25.1829C21.1524 25.1798 20.7851 25.1434 20.4087 25.0904C18.7149 27.8129 17.4562 30.8188 17.425 34.0755C17.4242 34.1418 17.4235 34.2081 17.4227 34.2764C17.4091 35.7678 17.4298 37.2046 17.7557 38.6673C17.7776 38.7673 17.7776 38.7673 17.8 38.8694C17.8978 39.3019 18.0147 39.7263 18.1458 40.1499C18.174 40.2417 18.174 40.2417 18.2027 40.3354C19.0254 42.9647 20.4747 45.3096 22.3911 47.2786C22.5017 47.3924 22.6108 47.5075 22.7196 47.6229C23.2321 48.1556 23.7978 48.6033 24.3881 49.0451C24.4324 49.0785 24.4766 49.1119 24.5223 49.1463C28.2113 51.915 32.8897 53.0815 37.453 52.4589C40.1512 52.0576 42.622 51.0678 44.9096 49.5913C44.891 49.4567 44.891 49.4567 44.8721 49.3194C44.7306 48.1759 44.7847 47.124 45.486 46.1599C46.0527 45.449 46.7476 45.0379 47.6406 44.8316C47.8606 44.813 48.0783 44.8132 48.299 44.8169C48.3545 44.817 48.4101 44.817 48.4674 44.8171C48.8476 44.8202 49.2149 44.8566 49.5913 44.9096C50.8068 42.9559 51.7617 40.9296 52.2443 38.6673C52.2671 38.5644 52.2671 38.5644 52.2903 38.4594C52.7768 36.1707 52.7526 33.6144 52.2443 31.3326C52.2297 31.266 52.2151 31.1993 52.2 31.1306C52.1022 30.6981 51.9852 30.2736 51.8541 29.8501C51.8354 29.7889 51.8166 29.7276 51.7973 29.6646C50.9746 27.0352 49.5253 24.6903 47.6088 22.7214C47.4983 22.6076 47.3892 22.4924 47.2803 22.377C46.7679 21.8444 46.2022 21.3967 45.6119 20.9549C45.5676 20.9214 45.5233 20.888 45.4777 20.8536C43.931 19.6928 42.225 18.8134 40.3839 18.2239C40.3315 18.2066 40.2791 18.1893 40.2251 18.1715C35.2104 16.5293 29.4292 17.4314 25.0904 20.4087ZM20.8768 20.8768C20.6569 21.1381 20.5722 21.3621 20.5306 21.701C20.5816 22.1017 20.6967 22.343 20.9939 22.6178C21.3267 22.8425 21.6542 22.8805 22.0472 22.8275C22.4215 22.6404 22.6404 22.4215 22.8275 22.0472C22.9015 21.6315 22.8273 21.3097 22.5934 20.9549C22.3085 20.6913 22.1051 20.5778 21.7156 20.5403C21.3641 20.5696 21.1461 20.6502 20.8768 20.8768ZM47.2992 47.6991C47.143 48.0115 47.1163 48.2347 47.1724 48.5769C47.3064 48.9437 47.4741 49.1395 47.7967 49.3572C48.114 49.463 48.4 49.4966 48.7229 49.3847C49.0872 49.2014 49.2992 48.9623 49.4353 48.5769C49.4854 48.1685 49.4238 47.908 49.2012 47.5626C48.8561 47.2434 48.5876 47.143 48.1133 47.1508C47.7445 47.2005 47.5326 47.4289 47.2992 47.6991Z" fill="black" stroke="#FFE8AF" stroke-width="0.8"/>
<path d="M43.6611 24.076C43.7305 24.1312 43.7305 24.1312 43.8012 24.1876C46.5678 26.4161 48.4473 29.74 48.8524 33.2849C49.193 37.029 48.2863 40.6975 45.9239 43.6612C45.8871 43.7074 45.8503 43.7537 45.8124 43.8013C43.5839 46.5679 40.26 48.4474 36.715 48.8525C32.9709 49.1931 29.3025 48.2864 26.3388 45.924C26.2925 45.8872 26.2463 45.8504 26.1986 45.8125C23.4575 43.6045 21.5662 40.2991 21.1477 36.7852C20.8007 33.0773 21.6709 29.3757 23.9979 26.4169C24.1735 26.2098 24.3531 26.0088 24.5383 25.8103C24.6856 25.6523 24.8247 25.49 24.9635 25.3245C26.9841 23.0225 30.0597 21.6306 33.0492 21.189C33.0986 21.1816 33.1481 21.1743 33.199 21.1667C36.9137 20.6803 40.7385 21.7465 43.6611 24.076ZM28.2115 25.7146C28.1456 25.7614 28.0797 25.8082 28.0118 25.8564C25.5227 27.7326 24.0654 30.4599 23.5593 33.4962C23.4123 34.8257 23.4427 36.2744 23.7638 37.575C23.7768 37.629 23.7898 37.6831 23.8031 37.7388C24.1121 38.9874 24.6418 40.1544 25.3244 41.2423C25.5683 41.0136 25.7749 40.7767 25.9779 40.5108C27.264 38.8917 28.9308 37.6795 30.8644 36.9507C30.837 36.9156 30.8095 36.8805 30.7812 36.8444C29.9379 35.7456 29.2334 34.5415 29.1478 33.1273C29.1437 33.0605 29.1395 32.9936 29.1353 32.9247C29.0833 31.2451 29.688 29.7057 30.8224 28.4733C31.8699 27.3975 33.3566 26.8305 34.843 26.7794C36.574 26.7613 38.0117 27.385 39.2543 28.5526C40.3726 29.7148 40.887 31.2646 40.8688 32.8616C40.7738 34.3681 40.1914 35.7815 39.1354 36.8727C39.3514 37.0167 39.5659 37.1195 39.8023 37.2247C41.7243 38.0869 43.4043 39.5059 44.5974 41.2423C46.2778 39.2595 46.601 36.3077 46.4701 33.8296C46.1827 30.7799 44.5933 28.1184 42.3346 26.1048C38.2963 22.7748 32.4232 22.6643 28.2115 25.7146ZM32.425 30.2403C31.7793 31.0209 31.4025 31.9503 31.4886 32.9713C31.6861 34.0744 32.148 34.914 33.0785 35.5755C33.9038 36.0813 34.7506 36.2619 35.7022 36.0876C36.6351 35.8602 37.3855 35.3884 37.9309 34.5867C38.4428 33.7031 38.6431 32.8124 38.4234 31.8057C38.1535 30.8064 37.5169 30.0633 36.6385 29.538C35.1825 28.8282 33.5873 29.1038 32.425 30.2403ZM28.5236 41.2423C28.4765 41.2844 28.4294 41.3264 28.3809 41.3697C28.0651 41.6634 27.8143 41.996 27.5628 42.3445C27.5121 42.4145 27.5121 42.4145 27.4604 42.4859C27.2825 42.7384 27.141 42.9784 27.041 43.2711C28.772 45.171 31.5649 46.3389 34.1077 46.4864C34.3972 46.4938 34.686 46.4959 34.9755 46.4946C35.1296 46.494 35.1296 46.494 35.2868 46.4934C36.0711 46.484 36.8134 46.4241 37.5749 46.2361C37.6289 46.2232 37.683 46.2102 37.7387 46.1968C39.6847 45.7153 41.559 44.7177 42.9588 43.2711C42.6764 42.4806 42.0425 41.8437 41.4763 41.2423C41.4343 41.1952 41.3922 41.1482 41.3489 41.0997C40.27 39.9395 38.7594 39.25 37.2628 38.8234C37.1728 38.7968 37.0829 38.7701 36.9903 38.7427C33.8983 37.975 30.7743 39.1235 28.5236 41.2423Z" fill="black" stroke="#FFE8AF" stroke-width="0.8"/>
</svg>
