<svg width="512" height="512" viewBox="0 0 512 512" fill="none" xmlns="http://www.w3.org/2000/svg">
<g clip-path="url(#clip0_360_9972)">
<path d="M267.248 79.3618C274.596 85.1526 276.961 92.2876 278.998 101.039C279.541 100.7 280.084 100.36 280.643 100.011C281.716 99.3476 281.716 99.3476 282.811 98.6711C283.518 98.2315 284.226 97.7919 284.955 97.339C292.162 93.2559 304.04 94.1592 311.971 95.8399C314.213 96.7389 316.027 97.7264 317.998 99.0961C318.712 99.5908 319.426 100.085 320.162 100.595C326.502 105.489 329.611 110.834 330.998 118.527C331.139 120.312 331.243 122.1 331.315 123.889C331.377 125.378 331.377 125.378 331.441 126.897C331.481 127.922 331.52 128.947 331.561 130.003C331.604 131.047 331.647 132.091 331.691 133.166C331.797 135.735 331.899 138.303 331.998 140.872C332.674 140.533 333.349 140.193 334.045 139.844C334.937 139.402 335.829 138.96 336.748 138.504C337.63 138.064 338.512 137.625 339.42 137.172C346.664 133.919 354.193 134.205 361.686 136.622C370.414 140.054 375.219 145.158 378.998 153.502C379.827 156.235 380.125 158.668 380.13 161.513C380.133 162.334 380.137 163.155 380.141 164.001C380.14 164.898 380.139 165.796 380.139 166.72C380.143 168.156 380.143 168.156 380.148 169.621C380.156 172.837 380.158 176.053 380.159 179.27C380.164 181.573 380.169 183.876 380.174 186.179C380.187 192.444 380.194 198.709 380.198 204.975C380.201 208.892 380.205 212.809 380.21 216.726C380.222 227.583 380.232 238.44 380.236 249.297C380.236 249.992 380.236 250.687 380.236 251.402C380.237 252.099 380.237 252.795 380.237 253.513C380.237 254.924 380.238 256.335 380.238 257.747C380.239 258.447 380.239 259.147 380.239 259.868C380.243 271.188 380.26 282.509 380.284 293.829C380.308 305.467 380.32 317.106 380.321 328.744C380.322 335.272 380.328 341.8 380.346 348.328C380.362 354.477 380.364 360.626 380.356 366.775C380.355 369.023 380.359 371.272 380.369 373.52C380.419 385.394 380.131 396.512 376.998 408.045C378.648 408.686 380.298 409.327 381.998 409.988C381.936 413.145 381.936 413.145 380.998 416.789C378.416 418.976 375.509 420.675 371.998 420.675C371.905 421.648 371.905 421.648 371.81 422.641C371.053 425.336 370.353 426.617 368.75 428.847C358.636 443.46 359.647 458.877 359.906 475.771C359.956 479.615 359.953 483.459 359.953 487.303C359.953 491.615 359.957 495.926 360.007 500.237C360.02 501.5 360.032 502.763 360.045 504.064C360.059 505.178 360.074 506.291 360.089 507.439C359.998 510.056 359.998 510.056 358.998 511.999C356.665 512.041 354.331 512.039 351.998 511.999C350.293 510.343 350.829 508.19 350.793 505.923C350.773 504.834 350.753 503.745 350.732 502.623C350.716 501.438 350.699 500.253 350.682 499.032C350.661 497.825 350.64 496.619 350.619 495.376C350.564 492.164 350.514 488.953 350.466 485.74C350.416 482.465 350.36 479.189 350.305 475.914C350.197 469.483 350.096 463.053 349.998 456.622C349.331 457.022 348.665 457.422 347.978 457.835C346.65 458.623 346.65 458.623 345.295 459.426C344.422 459.947 343.549 460.467 342.65 461.004C331.09 467.313 318.342 467.282 305.623 465.062C304.606 464.891 304.606 464.891 303.569 464.716C299.521 463.953 296.3 462.94 292.998 460.508C292.561 458.018 292.561 458.018 292.998 455.65C293.658 455.009 294.318 454.368 294.998 453.707C299.018 453.959 302.853 454.459 306.803 455.218C320.137 457.726 331.141 456.267 342.986 449.688C358.592 438.64 366.393 411.579 369.564 394.404C370.216 390.084 370.281 385.84 370.266 381.481C370.272 380.053 370.272 380.053 370.279 378.596C370.292 375.439 370.29 372.281 370.289 369.124C370.295 366.847 370.301 364.571 370.309 362.294C370.327 356.134 370.331 349.974 370.333 343.814C370.334 339.316 370.34 334.818 370.346 330.32C370.363 318.22 370.37 306.121 370.369 294.021C370.369 293.336 370.369 292.65 370.369 291.944C370.369 290.915 370.369 290.915 370.368 289.864C370.368 278.728 370.387 267.592 370.415 256.456C370.444 245.003 370.458 233.55 370.456 222.097C370.455 215.674 370.461 209.251 370.482 202.829C370.502 196.793 370.502 190.757 370.487 184.721C370.485 182.508 370.49 180.294 370.502 178.08C370.517 175.056 370.508 172.033 370.493 169.009C370.508 167.699 370.508 167.699 370.524 166.362C370.453 160.066 369.047 154.846 364.622 150.076C360.68 146.631 356.928 144.796 351.608 144.728C344.672 145.131 340.533 146.948 335.748 151.984C332.946 155.97 331.757 159.392 331.67 164.209C331.638 165.647 331.638 165.647 331.605 167.114C331.585 168.675 331.585 168.675 331.565 170.268C331.533 171.925 331.533 171.925 331.501 173.616C331.32 183.783 331.226 193.951 331.16 204.119C331.111 211.626 331.018 219.13 330.866 226.636C330.751 232.565 330.707 238.492 330.687 244.422C330.668 246.937 330.627 249.451 330.563 251.966C329.587 264.389 329.587 264.389 333.323 275.817C336.06 278.316 338.655 279.649 342.104 281.14C344.998 282.717 344.998 282.717 346.028 285.705C345.998 288.546 345.998 288.546 343.998 290.489C340.198 290.998 338.395 290.715 335.061 288.815C334.05 288.065 333.039 287.315 331.998 286.542C312.261 272.548 288.216 266.193 263.998 265.229C263.084 265.189 262.17 265.149 261.229 265.107C246.224 264.781 231.515 266.986 216.952 270.315C211.292 271.604 205.791 272.49 199.998 273.001C197.998 270.087 197.998 270.087 198.373 267.476C198.579 266.734 198.786 265.993 198.998 265.229C201.455 264.416 203.914 263.607 206.373 262.8C207.072 262.568 207.77 262.337 208.49 262.098C213.772 260.371 213.772 260.371 215.998 260.371C215.938 243.388 215.86 226.404 215.762 209.421C215.717 201.535 215.678 193.649 215.652 185.763C215.629 178.889 215.595 172.014 215.549 165.139C215.526 161.5 215.507 157.862 215.501 154.223C215.493 150.157 215.463 146.091 215.431 142.026C215.432 140.824 215.433 139.622 215.435 138.383C215.35 130.815 214.832 125.687 209.686 119.741C204.666 115.658 200.538 114.235 193.998 114.276C192.823 114.269 191.647 114.261 190.436 114.254C184.181 114.958 179.951 117.742 175.998 122.413C173.411 128.047 172.553 132.604 172.563 138.73C172.553 139.556 172.543 140.382 172.532 141.232C172.502 143.98 172.492 146.728 172.483 149.476C172.466 151.454 172.447 153.432 172.428 155.41C172.38 160.772 172.353 166.133 172.332 171.495C172.318 174.851 172.302 178.206 172.285 181.561C172.233 192.074 172.195 202.588 172.175 213.101C172.151 225.209 172.081 237.315 171.971 249.422C171.889 258.799 171.849 268.176 171.841 277.554C171.835 283.146 171.812 288.737 171.743 294.329C171.68 299.595 171.67 304.859 171.699 310.125C171.701 312.048 171.684 313.971 171.646 315.893C171.419 328.226 173.099 335.509 181.637 344.856C183.998 347.81 183.998 347.81 184.524 350.513C183.998 352.667 183.998 352.667 180.998 354.61C177.822 354.469 176.425 354.044 174.136 351.871C173.562 351.108 172.988 350.345 172.397 349.559C171.747 348.711 171.098 347.864 170.429 346.99C169.75 346.078 169.072 345.166 168.373 344.227C166.94 342.349 165.507 340.472 164.072 338.595C163.375 337.675 162.679 336.755 161.961 335.808C159.431 332.493 156.826 329.242 154.186 326.011C151.483 322.701 148.794 319.385 146.162 316.022C136.403 303.133 136.403 303.133 121.998 296.318C113.108 295.198 106.238 297.582 99.1856 302.815C93.7085 307.778 91.7894 313.432 91.4981 320.607C91.3999 329.194 96.3736 336.167 101.436 342.83C102.507 344.273 103.578 345.716 104.647 347.161C105.474 348.274 105.474 348.274 106.317 349.41C109.125 353.229 111.842 357.107 114.561 360.986C115.653 362.542 116.745 364.098 117.838 365.654C118.368 366.409 118.897 367.164 119.443 367.941C121.828 371.336 124.225 374.723 126.623 378.109C127.069 378.739 127.515 379.369 127.975 380.019C128.868 381.28 129.762 382.542 130.655 383.803C133.399 387.678 136.141 391.553 138.882 395.428C141.123 398.595 143.364 401.761 145.608 404.925C146.488 406.168 147.368 407.41 148.248 408.652C148.689 409.273 149.129 409.895 149.583 410.535C152.332 414.416 155.061 418.31 157.779 422.212C158.436 423.153 159.094 424.095 159.771 425.065C161.052 426.903 162.332 428.743 163.608 430.584C167.05 435.514 170.613 440.295 174.423 444.963C175.511 446.306 176.576 447.666 177.622 449.04C184.765 458.345 196.778 462.107 208.119 463.98C217.483 464.979 226.676 464.694 235.998 463.422C237.621 463.31 239.247 463.23 240.873 463.18C241.613 463.155 242.353 463.13 243.115 463.104C243.737 463.209 244.358 463.314 244.998 463.422C246.998 466.337 246.998 466.337 246.623 468.948C246.417 469.69 246.211 470.431 245.998 471.195C228.124 475.765 208.253 476.125 190.79 469.68C190.078 469.418 189.365 469.155 188.631 468.885C188.092 468.686 187.553 468.486 186.998 468.28C187.009 469.536 187.019 470.791 187.03 472.084C187.066 476.73 187.089 481.376 187.108 486.022C187.118 488.035 187.132 490.048 187.149 492.061C187.173 494.95 187.185 497.839 187.193 500.728C187.204 501.632 187.214 502.536 187.225 503.467C187.225 504.303 187.225 505.139 187.225 506.001C187.23 506.739 187.234 507.476 187.239 508.237C186.998 510.056 186.998 510.056 184.998 511.999C181.936 512.181 181.936 512.181 178.998 511.999C177.998 511.028 177.998 511.028 177.9 509.126C177.912 508.291 177.924 507.457 177.936 506.597C177.945 505.653 177.954 504.709 177.963 503.736C177.981 502.191 177.981 502.191 177.998 500.614C177.999 498.443 177.998 496.273 177.994 494.102C177.99 490.671 177.998 487.242 178.049 483.811C178.095 480.505 178.083 477.203 178.061 473.897C178.088 472.882 178.116 471.868 178.145 470.823C178.045 464.854 177.062 461.895 172.647 457.63C171.861 456.972 171.075 456.313 170.266 455.634C166.69 452.595 164.139 448.914 161.436 445.145C160.886 444.392 160.337 443.639 159.771 442.863C158.168 440.656 156.58 438.44 154.998 436.219C154.549 435.592 154.1 434.964 153.637 434.317C146.998 424.998 146.998 424.998 146.998 422.618C146.091 422.357 145.183 422.097 144.248 421.829C138.949 419.948 138.949 419.948 136.998 417.76C137.051 416.567 137.104 415.373 137.158 414.144C137.24 409.637 135.691 407.427 132.811 403.855C131.886 402.674 130.965 401.491 130.045 400.307C129.551 399.678 129.056 399.05 128.547 398.402C125.762 394.777 123.172 391.022 120.561 387.278C119.444 385.687 118.327 384.095 117.209 382.504C116.666 381.73 116.123 380.956 115.564 380.158C113.277 376.9 110.983 373.648 108.686 370.398C108.258 369.791 107.83 369.185 107.389 368.56C104.585 364.595 101.749 360.653 98.8966 356.72C97.8221 355.234 97.8221 355.234 96.7259 353.718C95.3149 351.767 93.8996 349.819 92.4793 347.875C84.1389 336.329 80.6577 326.964 81.9981 312.834C82.8408 309.251 84.117 306.299 85.9981 303.119C86.399 302.434 86.7999 301.749 87.213 301.043C91.7997 294.262 98.772 290.328 106.311 287.149C118.428 285.353 129.135 286.283 139.373 293.161C147.314 299.566 153.635 308.236 159.599 316.365C160.049 316.978 160.498 317.59 160.961 318.221C161.303 318.688 161.646 319.154 161.998 319.635C162.001 318.657 162.003 317.678 162.005 316.67C162.064 292.855 162.14 269.04 162.234 245.224C162.279 233.708 162.318 222.191 162.345 210.674C162.368 200.634 162.401 190.595 162.447 180.556C162.471 175.241 162.489 169.927 162.496 164.612C162.502 159.606 162.522 154.601 162.552 149.596C162.561 147.762 162.565 145.928 162.563 144.094C162.561 141.582 162.578 139.071 162.599 136.56C162.595 135.84 162.59 135.121 162.585 134.38C162.707 125.555 165.806 118.163 171.998 111.726C178.558 106.071 185.195 104.545 193.811 104.561C194.608 104.561 195.405 104.561 196.227 104.561C203.787 104.704 208.773 106.722 214.998 110.755C215.024 109.815 215.05 108.876 215.076 107.908C215.548 97.3943 216.916 88.3106 224.998 80.6369C237.385 71.522 254.337 70.8054 267.248 79.3618ZM228.408 91.1948C225.346 95.6941 224.749 99.4344 224.758 104.794C224.756 105.453 224.754 106.112 224.752 106.791C224.749 108.991 224.76 111.191 224.771 113.391C224.772 114.971 224.771 116.551 224.77 118.132C224.77 122.417 224.781 126.702 224.795 130.987C224.808 135.467 224.809 139.947 224.811 144.427C224.818 152.908 224.834 161.389 224.854 169.871C224.876 179.527 224.887 189.184 224.897 198.841C224.918 218.703 224.954 238.566 224.998 258.428C225.62 258.369 226.243 258.31 226.884 258.25C240.967 256.944 254.852 256.211 268.998 256.485C269.068 236.098 269.121 215.712 269.154 195.325C269.169 185.859 269.19 176.392 269.224 166.926C269.254 158.674 269.274 150.422 269.28 142.17C269.284 137.802 269.293 133.434 269.315 129.066C269.336 124.951 269.342 120.836 269.337 116.722C269.338 115.215 269.344 113.708 269.356 112.201C269.634 99.9239 269.634 99.9239 264.201 89.1454C258.256 84.3164 253.071 82.064 245.104 82.3485C237.607 83.1727 233.223 85.5554 228.408 91.1948ZM283.221 109.726C279.348 114.534 277.872 117.949 277.878 124.115C277.877 125.28 277.875 126.444 277.874 127.644C277.877 128.924 277.881 130.204 277.885 131.522C277.885 132.881 277.885 134.241 277.884 135.601C277.884 139.294 277.89 142.987 277.897 146.68C277.903 150.539 277.904 154.398 277.905 158.257C277.908 165.565 277.916 172.873 277.926 180.181C277.937 188.501 277.943 196.82 277.948 205.14C277.958 222.255 277.976 239.37 277.998 256.485C282.2 257.67 286.379 258.744 290.657 259.639C298.166 261.227 305.349 263.332 312.58 265.855C313.492 266.169 314.404 266.484 315.343 266.807C317.563 267.573 319.781 268.342 321.998 269.115C322.068 249.868 322.121 230.622 322.154 211.375C322.169 202.438 322.19 193.501 322.224 184.564C322.254 176.773 322.274 168.983 322.28 161.192C322.284 157.068 322.293 152.944 322.315 148.82C322.336 144.935 322.342 141.05 322.337 137.165C322.338 135.743 322.344 134.32 322.356 132.898C322.423 124.139 322.098 117.606 317.311 110.026C312.05 105.053 307.343 103.69 299.998 103.468C292.973 103.701 288.052 104.599 283.221 109.726Z" fill="black" stroke="black"/>
<path d="M280.688 285.023C281.451 285.223 282.214 285.424 283 285.63C285.617 293.767 286.161 301.435 286 309.918C297.938 312.801 309.998 314.876 322.125 316.841C322.886 316.965 323.647 317.089 324.431 317.217C334.495 318.86 334.495 318.86 344.608 320.172C345.345 320.255 346.083 320.338 346.842 320.424C348.871 320.645 350.902 320.853 352.933 321.06C356 321.577 356 321.577 358 323.52C358.25 325.949 358.25 325.949 358 328.378C356 330.321 356 330.321 352.203 330.541C345.999 330.399 339.889 329.578 333.75 328.742C332.501 328.574 331.252 328.406 329.965 328.232C299.221 323.915 299.221 323.915 286 319.634C284.122 332.608 284.122 332.608 287.116 344.949C290.176 348.351 294.051 350.696 297.912 353.16C301.738 355.816 304.961 359.072 308.25 362.321C308.922 362.978 309.594 363.635 310.286 364.313C326.053 379.97 326.053 379.97 328 388.613C326 391.528 326 391.528 323.199 392.089C318.751 391.308 317.258 388.871 314.812 385.455C313.853 384.196 312.889 382.94 311.922 381.687C311.437 381.053 310.951 380.419 310.451 379.766C303.718 371.229 294.044 359.488 284 354.609C283.792 355.461 283.585 356.312 283.371 357.19C279.238 373.724 274.847 390.406 268 406.101C264.535 406.582 264.535 406.582 261 407.072C259 404.158 259 404.158 259.141 401.729C260.356 396.92 262.065 392.311 263.75 387.641C267.452 377.16 270.157 366.661 272.495 355.827C273.196 352.786 274.075 349.82 275 346.837C274.291 346.588 273.582 346.338 272.852 346.082C269.77 344.798 267.182 343.214 264.375 341.433C245.477 329.907 223.889 322.057 202 317.961C197.203 317.016 197.203 317.016 195 313.805C195.359 310.928 195.847 310.068 198 307.975C204.847 307.742 211.625 309.677 218.125 311.558C219.039 311.819 219.953 312.079 220.894 312.348C239.85 317.854 258.706 325.087 275 336.15C275.981 332.024 276.309 327.918 276.562 323.702C276.627 322.692 276.627 322.692 276.693 321.662C276.799 320.015 276.9 318.367 277 316.719C276.066 316.539 276.066 316.539 275.113 316.355C267.897 314.79 261.095 312.521 254.188 309.979C252.845 309.49 252.845 309.49 251.476 308.991C246.357 307.074 241.684 304.922 237 302.146C237 300.223 237 298.299 237 296.317C239.808 294.939 241.362 294.241 244.489 294.894C245.78 295.422 245.78 295.422 247.098 295.96C248.54 296.532 248.54 296.532 250.011 297.116C251.018 297.534 252.025 297.951 253.062 298.381C255.127 299.205 257.192 300.026 259.258 300.844C260.247 301.24 261.236 301.636 262.255 302.044C267.091 303.935 272.017 305.515 277 307.004C276.783 305.772 276.783 305.772 276.562 304.514C274.468 292.079 274.468 292.079 275 286.602C278 284.659 278 284.659 280.688 285.023Z" fill="black" stroke="black"/>
<path d="M486 151.56C488.934 153.947 488.934 153.947 489.313 156.965C489 159.333 489 159.333 487 161.276C483.825 161.715 482.4 161.524 479.676 159.83C478.896 159.245 478.116 158.66 477.313 158.058C473.674 155.797 473.674 155.797 469.516 155.834C466.771 157.099 464.455 158.563 462 160.304C461.067 160.948 460.134 161.592 459.172 162.255C449.469 169.441 441.293 179.447 439 191.393C438.058 205.569 439.93 216.741 449 228.312C449.722 229.294 450.444 230.276 451.188 231.287C455.725 236.427 465.074 244.336 472.168 245.044C472.835 244.993 473.501 244.942 474.188 244.889C475.446 244.869 476.704 244.849 478 244.828C480 246.771 480 246.771 480.25 249.564C479 252.6 479 252.6 477.051 253.777C461.305 260.165 444.228 260.213 428.356 254.115C420.366 250.49 414.135 246.091 408 239.97C407.049 239.093 407.049 239.093 406.079 238.198C395.407 227.624 391.603 212.809 391.629 198.433C392.089 182.638 398.795 169.254 410.082 158.099C430.912 139.163 462.057 137.776 486 151.56ZM414 167.105C404.354 178.218 399.953 191.526 401 205.967C403.185 219.746 410.294 231.398 421.602 240.008C430.636 245.953 441.341 249.931 452.375 249.746C453.572 249.726 454.768 249.706 456 249.686C456 248.724 456 247.762 456 246.771C454.271 245.212 454.271 245.212 452 243.735C439.944 234.905 432.095 222.657 429.516 208.088C427.9 191.861 432.116 178.2 442 165.162C446.464 160.142 451.396 156.275 457 152.532C457 152.211 457 151.891 457 151.56C440.687 150.627 425.449 155.403 414 167.105Z" fill="black" stroke="black"/>
<path d="M89.248 174.635C96.9176 180.626 101.296 188.129 102.811 197.527C103.678 207.71 100.352 216.602 93.998 224.548C88.2757 230.662 79.6143 234.656 71.1504 235.344C60.0999 235.592 51.5701 233.31 43.0059 226.362C36.4654 220.057 32.8148 212.985 32.6172 203.961C32.6479 192.847 34.5507 185.185 42.6426 176.866C56.279 165.354 74.5459 164.79 89.248 174.635ZM46.998 186.536C41.9565 193.203 41.1994 198.77 41.998 206.938C43.7496 213.427 47.4527 218.514 52.998 222.483C60.0234 226.302 66.7897 227.786 74.6074 225.659C79.8095 223.828 83.4084 221.831 86.998 217.625C87.7199 216.824 88.4418 216.022 89.1855 215.196C93.7869 209.03 93.8294 202.661 92.998 195.28C90.731 187.55 85.9327 182.898 78.998 178.764C67.6992 173.275 54.7655 177.436 46.998 186.536Z" fill="black" stroke="black"/>
<path d="M457.625 327.895C460 328.38 460 328.38 462 330.323C462.731 335.532 460.924 337.767 458 341.982C458 345.363 460.359 348.202 462.078 351.063C464.744 355.706 464.752 361.256 463.504 366.354C461.437 372.276 458.133 376.929 452.562 380.236C445.902 383.194 437.461 382.818 430.57 380.821C429.722 380.507 428.874 380.194 428 379.872C427.564 380.363 427.129 380.854 426.68 381.359C421.79 386.542 421.79 386.542 417.688 387.219C415 386.673 415 386.673 413 384.729C413 381.997 413 381.997 414 378.9C415.445 377.644 415.445 377.644 417.125 376.471C418.074 375.67 419.022 374.868 420 374.043C420.082 371.041 420.082 371.041 419 368.213C416.883 361.358 417.763 355.554 420.68 349.105C424.007 343.395 429.13 340.317 435.512 338.475C440.058 337.782 444.482 338.386 449 339.067C449.293 338.332 449.585 337.597 449.887 336.84C453.337 328.688 453.337 328.688 457.625 327.895ZM430.688 351.576C427.879 355.012 427 357.361 427 361.777C428.261 366.219 430.454 369.066 434 372.099C438.774 373.645 443.15 373.847 447.75 371.917C451.496 368.986 453.595 366.603 455 362.08C455 357.462 453.744 354.463 451 350.726C444.176 345.317 437.337 346.338 430.688 351.576Z" fill="black" stroke="black"/>
<path d="M147.5 23.013C147.995 23.4338 148.49 23.8546 149 24.2881C149.516 23.9675 150.031 23.6469 150.562 23.3166C153.78 22.034 156.557 22.2164 160 22.345C160.495 25.7114 160.495 25.7114 161 29.1458C156.25 32.0604 156.25 32.0604 154 32.0604C154.16 32.6165 154.32 33.1725 154.484 33.7454C156.01 40.2597 155.314 46.5904 152 52.4627C147.672 57.4631 142.247 61.8052 135.363 62.4096C128.272 62.5772 124.112 61.7468 118 58.2919C114.815 58.0224 114.815 58.0224 112 60.235C108.812 60.3564 108.812 60.3564 106 60.235C105.34 58.6319 104.68 57.0289 104 55.3773C105.616 53.3942 107.286 51.4516 109 49.5481C109.66 49.5481 110.32 49.5481 111 49.5481C110.67 48.7265 110.34 47.905 110 47.0585C108.067 40.6037 108.915 35.642 111.602 29.5708C114.505 24.6546 118.715 21.5118 123.875 19.0054C132.593 17.4809 140.008 18.0995 147.5 23.013ZM122 31.0889C119.573 34.1542 118.186 36.9265 118 40.8042C118.927 44.8235 120.333 47.8332 123.125 50.9447C127.055 53.0196 130.54 53.6256 135 53.4342C139.696 51.8847 142.447 49.7964 145 45.6619C146.253 41.625 146.301 38.7337 144.875 34.7321C142.372 31.1655 140.3 28.8252 135.922 27.586C129.969 26.5926 126.788 27.5534 122 31.0889Z" fill="black" stroke="black"/>
<path d="M192 326.438C198.174 326.636 202.229 328.156 207.375 331.356C208.349 331.945 208.349 331.945 209.342 332.546C226.43 343.062 241.876 357.465 246.542 377.321C249.613 394.426 246.318 411.703 237 426.506C235 428.449 235 428.449 232.5 428.752C231.675 428.652 230.85 428.552 230 428.449C228 425.534 228 425.534 228.125 422.923C229 419.705 229 419.705 230.812 416.305C237.439 403.829 239.633 389.1 235.375 375.561C227.325 355.544 210.367 343.376 191 334.21C190 333.238 190 333.238 189.812 330.87C190 328.381 190 328.381 192 326.438Z" fill="black" stroke="black"/>
<path d="M380.488 48.4534C386.29 51.7916 390.759 56.4878 393.438 62.4838C394.506 69.2859 393.851 75.7132 390.359 81.7855C386.26 87.1183 380.689 90.1446 374 91.3263C367.686 92.0207 362.45 90.4778 357 87.4401C352.538 83.6951 349.042 79.5745 348 73.8386C347.862 70.2693 347.882 66.7211 348 63.1517C347.031 62.8511 346.061 62.5506 345.062 62.2409C342 61.2086 342 61.2086 341 60.2371C340.75 57.3832 340.75 57.3832 341 54.4079C344 52.4648 344 52.4648 346.438 52.7684C349 53.4363 349 53.4363 350.906 54.1384C353.084 54.6294 353.084 54.6294 355.035 53.2617C355.704 52.7182 356.373 52.1747 357.062 51.6147C363.472 46.4756 372.615 45.7757 380.488 48.4534ZM359 62.1802C356.64 65.8625 356.846 68.5046 357.469 72.6887C358.266 75.8705 359.496 77.4914 362 79.6678C366.01 82.036 368.969 82.9018 373.562 82.2181C377.752 81.061 380.355 79.2947 382.961 75.9069C384.921 72.0054 384.96 68.3174 384 64.1232C381.955 60.3286 379.044 57.9897 375 56.3509C367.974 55.0388 363.521 56.8751 359 62.1802Z" fill="black" stroke="black"/>
<path d="M20.9531 205.367C25.692 206.3 27.2168 209.69 29.8152 213.455C31.7782 216.481 33.7373 219.51 35.6875 222.544C36.3765 223.601 37.0655 224.659 37.7754 225.749C38.4309 226.766 39.0864 227.784 39.7617 228.832C40.3594 229.758 40.9572 230.683 41.573 231.637C42.8443 233.868 43.6704 235.513 44 238.028C43 240.942 43 240.942 41 241.914C38.182 242.149 35.3861 242.329 32.5625 242.46C31.7266 242.5 30.8907 242.54 30.0295 242.581C23.8335 242.852 17.6395 243.016 11.4375 243.067C10.6229 243.08 9.80829 243.093 8.96899 243.106C6.9779 243.109 4.98721 243.006 3 242.885C1 240.942 1 240.942 0.589844 238.43C1.15555 233.855 3.1737 230.659 5.5625 226.733C6.01851 225.968 6.47451 225.203 6.94434 224.415C7.86322 222.874 8.78618 221.336 9.71338 219.8C10.8659 217.852 11.9529 215.888 13.0117 213.891C13.5854 212.839 14.159 211.787 14.75 210.703C15.2398 209.779 15.7297 208.855 16.2344 207.902C18 205.967 18 205.967 20.9531 205.367ZM21 219.568C18.36 224.057 15.72 228.545 13 233.17C17.0199 234.146 19.6647 234.074 23.75 233.716C24.9205 233.617 26.0909 233.518 27.2969 233.417C28.1889 233.335 29.0809 233.254 30 233.17C28.6773 229.675 27.0806 226.721 24.9375 223.637C24.4103 222.869 23.883 222.101 23.3398 221.31C22.6766 220.448 22.6766 220.448 22 219.568C21.67 219.568 21.34 219.568 21 219.568Z" fill="black" stroke="black"/>
<path d="M118 204.996C119.579 206.652 119.579 206.652 120.918 208.803C121.421 209.593 121.924 210.384 122.443 211.199C122.957 212.037 123.471 212.876 124 213.74C124.784 214.966 124.784 214.966 125.584 216.217C127.183 218.718 128.75 221.236 130.312 223.759C130.849 224.614 131.386 225.469 131.939 226.349C132.451 227.174 132.962 227.999 133.488 228.848C133.948 229.586 134.407 230.324 134.88 231.085C136.007 233.184 136.808 234.692 137 237.057C136.096 239.215 136.096 239.215 134 240.943C131.029 241.312 128.434 241.442 125.465 241.391C124.63 241.39 123.796 241.389 122.936 241.388C121.173 241.382 119.411 241.367 117.648 241.343C114.944 241.308 112.241 241.303 109.537 241.304C107.826 241.294 106.114 241.283 104.402 241.269C103.591 241.267 102.779 241.265 101.943 241.263C96.2322 241.169 96.2322 241.169 94 239C94.2608 233.75 95.8466 230.13 98.5273 225.619C98.8763 225.027 99.2253 224.435 99.5849 223.825C100.318 222.586 101.057 221.35 101.802 220.117C102.943 218.225 104.065 216.323 105.186 214.419C111.9 203.125 111.9 203.125 118 204.996ZM114 218.598C112.172 221.159 112.172 221.159 110.375 224.306C109.743 225.365 109.112 226.425 108.461 227.516C106.847 230.029 106.847 230.029 107 232.199C112.61 232.199 118.22 232.199 124 232.199C120.04 225.467 120.04 225.467 116 218.598C115.34 218.598 114.68 218.598 114 218.598Z" fill="black" stroke="black"/>
<path d="M121.251 160.122C122.37 160.11 123.49 160.097 124.643 160.084C125.695 160.083 126.746 160.082 127.829 160.081C128.777 160.077 129.724 160.073 130.701 160.069C133.001 160.305 133.001 160.305 135.001 162.248C134.71 167.204 133.37 170.806 130.946 175.136C130.331 176.24 129.716 177.345 129.083 178.483C128.761 179.048 128.44 179.612 128.109 180.194C127.124 181.924 126.157 183.664 125.192 185.405C119.778 195.047 119.778 195.047 117.001 197.223C114.505 197.637 114.505 197.637 112.001 197.223C110.403 195.747 110.403 195.747 108.938 193.519C108.358 192.645 107.778 191.771 107.18 190.87C106.849 190.354 106.517 189.838 106.176 189.306C104.783 187.175 103.334 185.086 101.884 182.992C100.775 181.361 99.6686 179.729 98.5633 178.096C98.0186 177.312 97.4739 176.527 96.9126 175.719C93.7672 170.979 92.198 167.915 93.0008 162.248C97.4707 157.905 115.152 160.16 121.251 160.122ZM106.001 170.02C107.326 173.54 108.944 176.466 111.126 179.553C111.665 180.321 112.203 181.089 112.759 181.88C113.169 182.454 113.578 183.029 114.001 183.622C118.043 179.258 120.438 174.305 123.001 169.048C117.215 168.947 111.708 169.056 106.001 170.02Z" fill="black" stroke="black"/>
<path d="M66.001 126.301C69.0241 126.456 70.5008 126.745 72.5777 128.934C73.019 129.646 73.4603 130.357 73.9151 131.09C74.4181 131.881 74.9212 132.673 75.4395 133.488C75.9548 134.322 76.4701 135.156 77.001 136.016C78.0699 137.639 79.1402 139.261 80.2119 140.881C81.269 142.537 82.3236 144.194 83.376 145.853C83.9213 146.683 84.4665 147.514 85.0283 148.369C88.1206 153.271 89.7257 156.475 89.001 162.248C85.7399 163.832 82.1462 163.357 78.5635 163.348C77.7276 163.349 76.8917 163.35 76.0305 163.351C74.2619 163.352 72.4933 163.35 70.7246 163.346C68.012 163.341 65.2995 163.346 62.5869 163.352C60.8708 163.351 59.1546 163.35 57.4385 163.348C56.2166 163.351 56.2166 163.351 54.97 163.354C49.2309 163.331 49.2309 163.331 47.001 162.248C46.5222 156.564 47.8584 153.172 51.001 148.525C51.4046 147.902 51.8081 147.279 52.2239 146.638C53.0593 145.35 53.9005 144.065 54.7476 142.784C55.9617 140.934 57.1417 139.067 58.3096 137.189C58.6686 136.612 59.0276 136.036 59.3975 135.442C59.741 134.89 60.0845 134.338 60.4385 133.769C63.7463 128.491 63.7463 128.491 66.001 126.301ZM67.001 140.874C65.1726 143.435 65.1726 143.435 63.376 146.582C62.7444 147.641 62.1127 148.701 61.4619 149.792C59.8477 152.306 59.8477 152.306 60.001 154.475C65.281 154.475 70.561 154.475 76.001 154.475C74.6213 150.454 73.7083 147.809 71.501 144.396C71.0782 143.727 70.6554 143.058 70.2197 142.369C69.8176 141.876 69.4154 141.382 69.001 140.874C68.341 140.874 67.681 140.874 67.001 140.874Z" fill="black" stroke="black"/>
<path d="M10.6919 162.117C11.5523 162.116 12.4128 162.115 13.2993 162.114C15.1192 162.113 16.9391 162.115 18.759 162.119C21.5551 162.124 24.3509 162.119 27.147 162.113C28.912 162.113 30.6769 162.115 32.4419 162.117C33.2835 162.115 34.1252 162.113 34.9923 162.111C40.8855 162.134 40.8855 162.134 42.0005 163.217C42.4365 167.92 41.4907 170.653 39.1138 174.724C38.5047 175.774 37.8956 176.825 37.2681 177.908C36.6229 178.991 35.9777 180.074 35.313 181.191C34.3742 182.815 34.3742 182.815 33.4165 184.473C30.315 189.768 27.2538 194.676 23.0005 199.164C18.4632 198.68 18.4632 198.68 16.4238 196.531C15.9825 195.819 15.5411 195.108 15.0864 194.375C14.5834 193.583 14.0803 192.792 13.562 191.977C13.0467 191.143 12.5314 190.308 12.0005 189.449C10.9316 187.826 9.86129 186.204 8.78956 184.583C7.73254 182.928 6.67786 181.27 5.62549 179.612C5.08022 178.781 4.53495 177.951 3.97315 177.096C0.880865 172.194 -0.724172 168.99 0.000494838 163.217C3.32305 161.603 7.03984 162.108 10.6919 162.117ZM13.0005 170.989C14.4121 174.418 15.7743 177.352 17.6255 180.523C18.0715 181.29 18.5175 182.058 18.9771 182.849C19.3148 183.424 19.6525 183.999 20.0005 184.591C20.6605 184.591 21.3205 184.591 22.0005 184.591C23.8289 182.029 23.8289 182.029 25.6255 178.883C26.2571 177.824 26.8888 176.764 27.5396 175.672C29.1538 173.159 29.1538 173.159 29.0005 170.989C23.7205 170.989 18.4405 170.989 13.0005 170.989Z" fill="black" stroke="black"/>
<path d="M54.1876 239.836C55.4875 239.839 55.4875 239.839 56.8138 239.842C57.6978 239.841 58.5819 239.841 59.4927 239.84C61.3657 239.839 63.2387 239.841 65.1116 239.845C67.989 239.85 70.8661 239.845 73.7435 239.839C75.5586 239.839 77.3737 239.84 79.1888 239.842C80.0554 239.84 80.9221 239.838 81.815 239.836C87.8863 239.86 87.8863 239.86 89.0013 240.943C89.3858 245.434 88.6636 248.076 86.3685 251.956C85.809 252.911 85.2496 253.865 84.6732 254.848C84.0802 255.83 83.4872 256.812 82.8763 257.823C82.3065 258.798 81.7367 259.772 81.1497 260.776C77.7889 266.445 74.2037 271.776 70.0013 276.89C65.4656 276.402 65.4656 276.402 63.4246 274.276C62.9833 273.569 62.5419 272.863 62.0872 272.135C61.5842 271.344 61.0811 270.553 60.5628 269.738C60.0475 268.892 59.5322 268.046 59.0013 267.174C58.4731 266.337 57.9449 265.5 57.4007 264.638C55.7762 262.04 54.1974 259.42 52.6263 256.791C52.081 255.906 51.5357 255.022 50.9739 254.11C46.116 245.966 46.116 245.966 47.0013 240.943C48.8975 239.101 51.665 239.846 54.1876 239.836ZM60.0013 248.715C61.4128 252.144 62.7751 255.077 64.6263 258.248C65.0723 259.016 65.5183 259.784 65.9778 260.575C66.3156 261.15 66.6533 261.724 67.0013 262.317C67.6613 262.317 68.3213 262.317 69.0013 262.317C70.8297 259.755 70.8297 259.755 72.6263 256.609C73.2579 255.549 73.8896 254.49 74.5403 253.398C76.1546 250.885 76.1546 250.885 76.0013 248.715C70.7213 248.715 65.4413 248.715 60.0013 248.715Z" fill="black" stroke="black"/>
<path d="M499.438 224.91C500.706 225.151 500.706 225.151 502 225.396C503.164 227.544 503.164 227.544 504 230.254C503.023 232.538 503.023 232.538 501.375 234.747C500.846 235.481 500.318 236.215 499.773 236.971C497.984 239.015 496.348 240.501 494 241.912C489.59 241.513 489.59 241.513 488 239.969C488 234.176 490.044 231.09 494.078 226.887C496 225.396 496 225.396 499.438 224.91Z" fill="black" stroke="black"/>
<path d="M390 85.4971C392.5 85.0114 392.5 85.0114 396 85.4971C399.849 88.297 403.319 91.2716 404.855 95.778C405 98.1271 405 98.1271 403 101.042C398.806 100.802 396.546 100.504 393.25 97.8842C389.179 93.0504 389.179 93.0504 388 90.3548C388.812 87.6224 388.812 87.6224 390 85.4971Z" fill="black" stroke="black"/>
<path d="M129 81.6104C131 83.5535 131 83.5535 131.352 85.8457C130.699 90.608 126.758 93.3595 123 96.1835C119.625 97.2764 119.625 97.2764 117 97.155C115 95.2119 115 95.2119 114.438 92.6009C115.265 87.8647 118.271 85.5574 122 82.5819C124.513 81.3613 126.217 81.4076 129 81.6104Z" fill="black" stroke="black"/>
<path d="M496 167.104C498.625 166.497 498.625 166.497 502 167.104C505.488 170.973 508.359 175.512 508.438 180.766C508 183.62 508 183.62 507 184.592C504.312 185.259 504.312 185.259 501 184.592C497.737 180.683 494.784 176.036 494 170.99C494.938 168.804 494.938 168.804 496 167.104Z" fill="black" stroke="black"/>
<path d="M427.188 71.3477C431.673 72.2192 434.111 75.3936 437 78.6949C439 81.6095 439 81.6095 438.625 84.7063C438.419 85.608 438.213 86.5097 438 87.4387C435.812 88.1674 435.812 88.1674 433 88.4103C428.853 85.8922 425.819 82.5295 423 78.6949C422.562 76.0232 422.562 76.0232 423 73.8372C425 71.8941 425 71.8941 427.188 71.3477Z" fill="black" stroke="black"/>
<path d="M405.289 51.1172C408.989 51.6299 410.615 53.1514 413.375 55.5612C414.27 56.3164 415.164 57.0716 416.086 57.8496C418 60.2367 418 60.2367 417.914 62.8364C417 65.0944 417 65.0944 415 67.0375C410.701 66.7848 408.36 65.1419 405.188 62.4227C404.397 61.7664 403.607 61.1102 402.793 60.4341C401 58.2937 401 58.2937 400.613 55.7282C401.142 52.5932 402.055 51.648 405.289 51.1172Z" fill="black" stroke="black"/>
<path d="M378 34.0039C385.024 34.1491 388.817 37.4034 394 41.7762C393.67 43.6998 393.34 45.6235 393 47.6054C389.718 48.6411 388.352 48.7276 385.141 47.3549C384.187 46.7563 383.233 46.1577 382.25 45.5409C381.286 44.9573 380.321 44.3737 379.328 43.7724C377 41.7762 377 41.7762 376.047 39.2942C376 36.9185 376 36.9185 378 34.0039Z" fill="black" stroke="black"/>
<path d="M412.686 107.355C417.001 107.988 418.104 109.633 420.702 112.87C423.241 116.34 424.452 118.119 423.999 122.414C421.999 124.357 421.999 124.357 419.643 124.76C415.953 124.198 414.96 122.684 412.686 119.864C411.989 119.03 411.291 118.196 410.573 117.336C408.748 114.212 408.607 112.35 408.999 108.813C409.999 107.841 409.999 107.841 412.686 107.355Z" fill="black" stroke="black"/>
<path d="M105.646 102.609C108.001 102.981 108.001 102.981 110.001 104.924C110.516 108.149 110.144 109.547 108.427 112.382C107.729 113.227 107.032 114.072 106.314 114.943C105.629 115.801 104.945 116.659 104.239 117.543C102.001 119.497 102.001 119.497 99.3565 119.903C97.0011 119.497 97.0011 119.497 95.0011 117.554C94.5467 114.052 94.6527 112.274 96.5753 109.243C97.2727 108.499 97.9701 107.755 98.6886 106.989C99.3731 106.23 100.058 105.471 100.763 104.689C103.001 102.981 103.001 102.981 105.646 102.609Z" fill="black" stroke="black"/>
<path d="M355.094 19.7845C359.286 21.1081 363.559 22.5444 367 25.2608C368 27.6896 368 27.6896 368 30.1184C366.938 31.9401 366.938 31.9401 365 33.0331C359.65 33.0331 354.086 30.5137 350 27.2038C349.238 24.608 349.238 24.608 349 22.3462C350.907 20.1709 352.124 19.2839 355.094 19.7845Z" fill="black" stroke="black"/>
<path d="M91 374.043C96.8043 374.802 100.202 377.611 104 381.815C105.125 385.033 105.125 385.033 105 387.644C103 389.588 103 389.588 100.375 390.195C95.171 389.258 92.1541 385.823 89 381.815C88.1797 379.751 88.1797 379.751 88 377.929C89.4375 375.743 89.4375 375.743 91 374.043Z" fill="black" stroke="black"/>
<path d="M483.999 273.974C484.329 274.294 484.659 274.615 484.999 274.945C484.951 281.018 483.782 286.054 480.999 291.461C478.124 291.644 478.124 291.644 474.999 291.461C472.999 288.547 472.999 288.547 473.171 286.308C475.275 277.219 475.275 277.219 476.999 273.974C479.682 272.67 481.152 273.264 483.999 273.974Z" fill="black" stroke="black"/>
<path d="M446.817 94.8359C450.001 95.2116 450.001 95.2116 452.153 97.3786C452.742 98.3267 453.331 99.2747 453.938 100.251C454.545 101.187 455.153 102.123 455.778 103.086C457.146 106.233 457.126 107.569 456.001 110.756C455.001 111.728 455.001 111.728 452.184 112.103C449.001 111.728 449.001 111.728 446.849 109.561C446.259 108.613 445.67 107.665 445.063 106.688C444.153 105.285 444.153 105.285 443.224 103.853C441.855 100.706 441.876 99.3707 443.001 96.1832C444.001 95.2116 444.001 95.2116 446.817 94.8359Z" fill="black" stroke="black"/>
<path d="M154 64.1223C155 65.0938 155 65.0938 155.355 67.8338C155 70.923 155 70.923 152.988 72.98C152.105 73.5435 151.222 74.1071 150.312 74.6877C149.442 75.2663 148.572 75.8449 147.676 76.4411C144.792 77.8234 143.167 78.1536 140 77.7238C138 75.7807 138 75.7807 137.602 73.4581C138 70.923 138 70.923 139.898 68.9951C140.716 68.4291 141.533 67.863 142.375 67.2798C143.593 66.4156 143.593 66.4156 144.836 65.534C148.438 63.184 149.792 63.074 154 64.1223Z" fill="black" stroke="black"/>
<path d="M313.999 41.7773C326.843 42.598 326.843 42.598 330.999 46.635C331.186 49.0032 331.186 49.0032 330.999 51.4927C328.999 53.4358 328.999 53.4358 327.081 53.5155C321.889 52.9164 317.548 52.1282 312.999 49.5496C311.936 47.1208 311.936 47.1208 311.999 44.692C312.659 43.7301 313.319 42.7683 313.999 41.7773Z" fill="black" stroke="black"/>
<path d="M405 391.528C407 393.471 407 393.471 407.418 395.76C406.832 399.359 405.237 400.316 402.312 402.519C401.442 403.196 400.572 403.874 399.676 404.572C396.758 406.24 395.32 406.601 392 406.101C390 404.158 390 404.158 389.582 401.87C390.168 398.27 391.763 397.313 394.688 395.111C395.558 394.433 396.428 393.756 397.324 393.058C400.242 391.39 401.68 391.028 405 391.528Z" fill="black" stroke="black"/>
<path d="M73.6886 351.516C78.6902 353.258 81.487 356.933 84.0011 361.413C84.3214 364.009 84.3214 364.009 84.0011 366.271C82.0011 368.214 82.0011 368.214 79.6456 368.586C76.0994 368.087 75.0264 366.798 72.6886 364.206C71.9912 363.462 71.2938 362.719 70.5753 361.952C68.6527 358.921 68.5467 357.143 69.0011 353.641C71.0011 351.698 71.0011 351.698 73.6886 351.516Z" fill="black" stroke="black"/>
<path d="M43.4386 299.781C46.0011 300.206 46.0011 300.206 47.6261 302.21C48.0798 303.152 48.5336 304.094 49.0011 305.064C49.5786 306.186 50.1561 307.308 50.7511 308.464C52.018 311.911 52.2327 313.332 51.0011 316.722C50.0011 317.694 50.0011 317.694 46.9386 317.755C45.9692 317.735 44.9998 317.715 44.0011 317.694C38.0752 307.29 38.0752 307.29 39.0011 302.149C41.0011 300.206 41.0011 300.206 43.4386 299.781Z" fill="black" stroke="black"/>
<path d="M505 196.249C508.063 196.006 508.063 196.006 511 196.249C512.918 198.112 512.175 201.365 512.188 203.839C512.202 205.047 512.216 206.256 512.231 207.501C512.019 210.555 511.665 212.17 510 214.708C507.125 214.89 507.125 214.89 504 214.708C501.545 211.13 501.879 209.69 502.25 205.478C502.338 204.366 502.426 203.254 502.516 202.108C503 199.163 503 199.163 505 196.249Z" fill="black" stroke="black"/>
<path d="M210 39.8317C211.327 45.1052 211.327 45.1052 210 47.3611C205.06 50.3608 199.718 50.9543 194 50.5186C193.34 49.8774 192.68 49.2362 192 48.5755C192.375 45.5395 192.375 45.5395 193 42.7463C194.89 42.0639 196.788 41.3994 198.688 40.7425C199.743 40.3706 200.799 39.9986 201.887 39.6154C205.093 38.8375 206.869 38.9343 210 39.8317Z" fill="black" stroke="black"/>
<path d="M188 11.657C189 12.6285 189 12.6285 189.062 15.6039C189.042 16.5457 189.021 17.4874 189 18.4578C187.112 19.3034 185.214 20.1295 183.312 20.9473C182.257 21.4095 181.201 21.8716 180.113 22.3477C176.819 23.3717 175.244 23.3831 172 22.3439C171 21.3724 171 21.3724 170.938 18.397C170.958 17.4553 170.979 16.5135 171 15.5432C172.437 14.914 173.874 14.287 175.312 13.6608C176.113 13.3114 176.914 12.962 177.738 12.602C181.701 10.9462 183.83 10.591 188 11.657Z" fill="black" stroke="black"/>
<path d="M296.562 2.60938C301.368 2.70361 305.557 4.14883 310 5.82759C310.188 8.62076 310.188 8.62076 310 11.6568C306.21 14.1115 304.903 13.5842 300.5 12.8712C299.355 12.6959 298.211 12.5206 297.031 12.3399C294 11.6568 294 11.6568 291 9.71374C290.688 7.2849 290.688 7.2849 291 4.85605C293 2.91298 293 2.91298 296.562 2.60938Z" fill="black" stroke="black"/>
<path d="M115.562 393.836C120.691 394.742 124.491 397.533 128 401.244C128.832 403.79 128.832 403.79 129 406.102C127.875 407.923 127.875 407.923 126 409.016C121.897 408.634 119.463 407.272 116.25 404.826C115.471 404.249 114.693 403.672 113.891 403.077C111.851 401.099 111.16 400.14 111 397.358C113 394.443 113 394.443 115.562 393.836Z" fill="black" stroke="black"/>
<path d="M468 302.15C470.875 302.028 470.875 302.028 474 302.15C474.66 302.791 475.32 303.432 476 304.093C475.744 309.198 473.924 314.41 471 318.666C467.875 319.82 467.875 319.82 465 319.637C463 317.694 463 317.694 462.562 315.265C463.197 310.335 465.546 306.458 468 302.15Z" fill="black" stroke="black"/>
<path d="M34.0607 271.969C35.5148 271.999 35.5148 271.999 36.9982 272.029C39.5537 277.751 41.4777 282.141 40.9982 288.546C37.9982 290.489 37.9982 290.489 35.3107 290.124C34.166 289.824 34.166 289.824 32.9982 289.517C30.7132 283.809 29.5468 279.141 29.9982 273.001C30.9982 272.029 30.9982 272.029 34.0607 271.969Z" fill="black" stroke="black"/>
<path d="M94.625 65.0938C97 66.0653 97 66.0653 98.3125 68.5549C98.6528 69.7271 98.6528 69.7271 99 70.923C97.9217 72.1618 96.8371 73.3955 95.75 74.627C95.1467 75.3145 94.5434 76.0021 93.9219 76.7104C92.0506 78.6431 90.3192 80.2079 88 81.6099C85.3125 81.0634 85.3125 81.0634 83 79.6668C82.1875 77.8831 82.1875 77.8831 82 75.7807C83.0742 73.8034 83.0742 73.8034 84.6875 71.8338C85.207 71.1813 85.7265 70.5288 86.2617 69.8566C90.7413 65.0938 90.7413 65.0938 94.625 65.0938Z" fill="black" stroke="black"/>
<path d="M181 49.5489C181.33 51.7931 181.66 54.0374 182 56.3496C180.278 57.3338 178.547 58.3024 176.812 59.2642C175.368 60.0758 175.368 60.0758 173.895 60.9037C170.92 62.2143 169.214 62.6104 166 62.1788C164 60.2358 164 60.2358 163.375 57.9891C164.155 54.7296 165.025 54.4367 167.875 52.7064C172.628 50.0912 175.426 49.4486 181 49.5489Z" fill="black" stroke="black"/>
<path d="M239 34.0033C241 35.9463 241 35.9463 241.25 38.3752C241 40.804 241 40.804 239 42.7471C233.728 44.0276 228.395 43.8119 223 43.7186C222.375 40.4397 222.375 40.4397 222 36.9179C226.107 32.9275 233.468 33.73 239 34.0033Z" fill="black" stroke="black"/>
<path d="M56.1869 326.738C59.9994 327.406 59.9994 327.406 61.7963 329.402C66.6422 336.958 66.6422 336.958 65.9994 341.979C63.9994 343.922 63.9994 343.922 61.6244 344.347C58.9994 343.922 58.9994 343.922 56.8744 341.797C56.2557 340.895 55.6369 339.994 54.9994 339.065C54.4219 338.283 53.8444 337.502 53.2494 336.697C51.7541 333.718 51.693 331.653 51.9994 328.378C52.9994 327.406 52.9994 327.406 56.1869 326.738Z" fill="black" stroke="black"/>
<path d="M287.645 34.8945C289.213 35.0242 289.213 35.0242 290.812 35.1564C291.85 35.2303 292.888 35.3042 293.957 35.3803C297.216 35.9859 299.281 37.0492 302 38.8604C301.67 40.784 301.34 42.7077 301 44.6896C295.45 46.1086 290.413 45.3356 285 43.7181C283 41.775 283 41.775 282.75 39.3461C283.11 35.8479 284.029 35.0035 287.645 34.8945Z" fill="black" stroke="black"/>
<path d="M259.32 32.8987C260.018 32.9024 260.716 32.9062 261.436 32.9101C262.13 32.9063 262.824 32.9026 263.539 32.8987C268.745 32.9085 268.745 32.9085 270.998 34.003C271.748 35.764 271.748 35.764 271.998 37.8892C271.374 39.2046 270.712 40.5037 269.998 41.7753C267.56 41.854 265.124 41.9118 262.686 41.9575C261.65 41.9941 261.65 41.9941 260.594 42.0315C255.498 42.1033 255.498 42.1033 253.002 40.466C251.998 38.8607 251.998 38.8607 252.248 36.3104C253.569 32.2453 255.17 32.9065 259.32 32.8987Z" fill="black" stroke="black"/>
<path d="M324.938 9.41016C329.887 9.48013 334.809 11.0724 339 13.5999C339.879 15.543 339.879 15.543 340 17.4861C338.563 19.672 338.563 19.672 337 21.3722C331.034 20.8789 326.362 19.0542 321 16.5145C320.957 14.5719 320.959 12.628 321 10.6853C322 9.71376 322 9.71376 324.938 9.41016Z" fill="black" stroke="black"/>
<path d="M218 3.8874C218.688 6.61985 218.688 6.61985 219 9.71662C217.283 12.2283 215.993 12.633 212.969 13.4092C211.252 13.6553 211.252 13.6553 209.5 13.9064C208.355 14.083 207.211 14.2595 206.031 14.4415C203 14.5743 203 14.5743 200 12.6312C199.562 10.2631 199.562 10.2631 200 7.77355C204.824 2.91302 211.57 3.76491 218 3.8874Z" fill="black" stroke="black"/>
<path d="M269.375 -0.243668C270.061 -0.263706 270.747 -0.283744 271.453 -0.304389C274.428 -0.326879 276.488 -0.337993 278.992 1.31231C280 2.91383 280 2.91383 279.75 5.46411C279 7.77151 279 7.77151 278 8.74305C275.508 8.86598 273.055 8.92298 270.562 8.92521C269.521 8.94306 269.521 8.94306 268.459 8.96127C266.638 8.9664 264.817 8.86128 263 8.74305C261 6.79998 261 6.79998 260.812 3.82464C261.165 -1.54295 264.784 -0.210505 269.375 -0.243668Z" fill="black" stroke="black"/>
<path d="M241.688 -0.242632C242.64 -0.247642 243.593 -0.252651 244.574 -0.257812C247 0.000251998 247 0.000251998 249 1.94333C249.25 4.37217 249.25 4.37217 249 6.80101C246.183 9.53784 243.989 9.23821 240.062 9.53346C238.816 9.63991 237.569 9.74636 236.285 9.85604C233 9.71562 233 9.71562 231.059 8.4253C230 6.80101 230 6.80101 230 4.31145C231 1.94333 231 1.94333 233.207 0.838962C236.18 -0.0536989 238.583 -0.259091 241.688 -0.242632Z" fill="black" stroke="black"/>
<path d="M76.9981 88.4114C77.9981 89.3829 77.9981 89.3829 78.4356 91.9332C77.8967 95.9723 76.5282 97.8192 73.7325 100.768C71.9981 102.013 71.9981 102.013 68.6231 101.952C67.7568 101.652 66.8906 101.351 65.9981 101.041C65.0535 98.147 64.5185 96.1291 65.9747 93.345C69.3879 88.6521 70.9354 86.9011 76.9981 88.4114Z" fill="black" stroke="black"/>
</g>
<defs>
<clipPath id="clip0_360_9972">
<rect width="512" height="512" fill="white"/>
</clipPath>
</defs>
</svg>
