
<svg width="40" height="40" viewBox="0 0 40 40" fill="none" xmlns="http://www.w3.org/2000/svg">
<path d="M30.8631 29.6783V28.9752C30.8624 28.4316 30.7228 27.8971 30.4574 27.4227C30.192 26.9483 29.8096 26.5497 29.3467 26.2647C31.1952 24.2895 32.3603 21.7727 32.6701 19.0852C32.98 16.3977 32.4182 13.6818 31.0677 11.3378C31.5248 10.9108 32.0677 10.5862 32.6601 10.3856C32.8247 10.3307 32.9679 10.2254 33.0693 10.0846C33.1707 9.94381 33.2253 9.7747 33.2253 9.60119C33.2253 9.42768 33.1707 9.25856 33.0693 9.11779C32.9679 8.97701 32.8247 8.87171 32.6601 8.81678C32.0125 8.59902 31.4242 8.23431 30.941 7.7512C30.4579 7.26809 30.0932 6.67971 29.8755 6.03212C29.8205 5.86754 29.7152 5.7244 29.5745 5.62297C29.4337 5.52154 29.2646 5.46696 29.0911 5.46696C28.9176 5.46696 28.7484 5.52154 28.6077 5.62297C28.4669 5.7244 28.3616 5.86754 28.3067 6.03212C28.137 6.53654 27.877 7.00586 27.5393 7.41713C24.9972 5.56807 21.8571 4.73301 18.7324 5.07505C15.6076 5.41709 12.7225 6.91166 10.6407 9.26686C8.55881 11.6221 7.42965 14.6687 7.47373 17.8119C7.51781 20.955 8.73196 23.9688 10.879 26.2647C10.4161 26.5497 10.0338 26.9483 9.76838 27.4227C9.50297 27.8971 9.36331 28.4316 9.36268 28.9752V29.6783C8.68559 29.8605 8.08733 30.2607 7.6603 30.8168C7.23327 31.373 7.00123 32.0543 7 32.7555V34.1731C7.00013 34.3923 7.08729 34.6026 7.24234 34.7577C7.3974 34.9127 7.60766 34.9999 7.82694 35H32.3988C32.6181 34.9999 32.8284 34.9127 32.9834 34.7577C33.1385 34.6026 33.2256 34.3923 33.2258 34.1731V32.7555C33.2245 32.0543 32.9925 31.373 32.5655 30.8168C32.1384 30.2607 31.5402 29.8605 30.8631 29.6783ZM29.0911 8.10939C29.4981 8.68937 30.0029 9.19416 30.5829 9.60119C30.0029 10.0082 29.4981 10.513 29.0911 11.093C28.684 10.513 28.1792 10.0082 27.5993 9.60119C28.1792 9.19416 28.684 8.68937 29.0911 8.10939ZM9.12641 17.6343C9.12509 15.6442 9.66471 13.6911 10.6876 11.984C11.7104 10.2768 13.1781 8.87978 14.9335 7.94226C16.689 7.00473 18.6663 6.56197 20.6539 6.66133C22.6416 6.76068 24.5648 7.39841 26.218 8.50632C25.9956 8.63003 25.7627 8.73391 25.522 8.81678C25.3574 8.87171 25.2143 8.97701 25.1128 9.11779C25.0114 9.25856 24.9568 9.42768 24.9568 9.60119C24.9568 9.7747 25.0114 9.94381 25.1128 10.0846C25.2143 10.2254 25.3574 10.3307 25.522 10.3856C26.1696 10.6034 26.758 10.9681 27.2411 11.4512C27.7242 11.9343 28.0889 12.5227 28.3067 13.1703C28.3616 13.3348 28.4669 13.478 28.6077 13.5794C28.7484 13.6808 28.9176 13.7354 29.0911 13.7354C29.2646 13.7354 29.4337 13.6808 29.5745 13.5794C29.7152 13.478 29.8205 13.3348 29.8755 13.1703C29.9114 13.0625 29.9577 12.959 30.0016 12.8551C31.0378 14.9934 31.3515 17.4104 30.8954 19.7424C30.4393 22.0744 29.2381 24.1952 27.4726 25.7855H12.7531C11.6115 24.7566 10.6987 23.4993 10.074 22.0951C9.44922 20.691 9.12639 19.1712 9.12641 17.6343ZM29.2092 28.9752V29.5658H11.0166V28.9752C11.0171 28.568 11.179 28.1777 11.4669 27.8898C11.7548 27.6019 12.1451 27.4399 12.5523 27.4394H27.6735C28.0806 27.4399 28.4709 27.6019 28.7588 27.8898C29.0467 28.1777 29.2087 28.568 29.2092 28.9752ZM31.5719 33.3461H8.65388V32.7555C8.65438 32.3483 8.81634 31.958 9.10424 31.6701C9.39214 31.3822 9.78247 31.2202 10.1896 31.2197H30.0361C30.4433 31.2202 30.8336 31.3822 31.1215 31.6701C31.4094 31.958 31.5714 32.3483 31.5719 32.7555V33.3461Z" fill="black"/>
<path d="M25.4246 21.6507C25.8813 21.6507 26.2515 21.2805 26.2515 20.8238C26.2515 20.3671 25.8813 19.9968 25.4246 19.9968C24.9679 19.9968 24.5977 20.3671 24.5977 20.8238C24.5977 21.2805 24.9679 21.6507 25.4246 21.6507Z" fill="black"/>
<path d="M19.1668 12.7908C19.6235 12.7908 19.9937 12.4206 19.9937 11.9639C19.9937 11.5072 19.6235 11.137 19.1668 11.137C18.7101 11.137 18.3398 11.5072 18.3398 11.9639C18.3398 12.4206 18.7101 12.7908 19.1668 12.7908Z" fill="black"/>
<path d="M12.7644 19.8364C13.412 20.0541 14.0003 20.4188 14.4835 20.9019C14.9666 21.385 15.3313 21.9734 15.549 22.621C15.604 22.7856 15.7093 22.9287 15.85 23.0302C15.9908 23.1316 16.1599 23.1862 16.3334 23.1862C16.507 23.1862 16.6761 23.1316 16.8168 23.0302C16.9576 22.9287 17.0629 22.7856 17.1179 22.621C17.3356 21.9734 17.7003 21.385 18.1834 20.9019C18.6665 20.4188 19.2549 20.0541 19.9025 19.8364C20.0671 19.7814 20.2102 19.6761 20.3117 19.5353C20.4131 19.3946 20.4677 19.2255 20.4677 19.0519C20.4677 18.8784 20.4131 18.7093 20.3117 18.5685C20.2102 18.4278 20.0671 18.3225 19.9025 18.2675C19.2549 18.0498 18.6665 17.6851 18.1834 17.202C17.7003 16.7189 17.3356 16.1305 17.1179 15.4829C17.0629 15.3183 16.9576 15.1752 16.8168 15.0737C16.6761 14.9723 16.507 14.9177 16.3334 14.9177C16.1599 14.9177 15.9908 14.9723 15.85 15.0737C15.7093 15.1752 15.604 15.3183 15.549 15.4829C15.3313 16.1305 14.9666 16.7189 14.4835 17.202C14.0003 17.6851 13.412 18.0498 12.7644 18.2675C12.5998 18.3225 12.4567 18.4278 12.3552 18.5685C12.2538 18.7093 12.1992 18.8784 12.1992 19.0519C12.1992 19.2255 12.2538 19.3946 12.3552 19.5353C12.4567 19.6761 12.5998 19.7814 12.7644 19.8364ZM16.3334 17.5602C16.7405 18.1401 17.2453 18.6449 17.8252 19.0519C17.2453 19.459 16.7405 19.9638 16.3334 20.5437C15.9264 19.9638 15.4216 19.459 14.8416 19.0519C15.4216 18.6449 15.9264 18.1401 16.3334 17.5602Z" fill="black"/>
</svg>
