<?xml version="1.0" encoding="UTF-8"?>
<svg version="1.1" xmlns="http://www.w3.org/2000/svg" width="512" height="512">
<path d="M0 0 C0.93199219 0.72832031 1.86398437 1.45664063 2.82421875 2.20703125 C9.33663954 7.39335241 15.2075339 13.02960832 21 19 C21.81726563 19.81726563 22.63453125 20.63453125 23.4765625 21.4765625 C62.74705051 60.74705051 82.86181795 115.00314943 83.25 170.125 C82.84113873 227.91072655 58.38653469 280.42211328 18 321 C17.49146484 321.51256348 16.98292969 322.02512695 16.45898438 322.55322266 C-20.74759359 359.54582504 -74.76907803 379.87473629 -126.8125 380.25 C-173.3942686 379.96104259 -218.74494291 366.38703972 -256 338 C-256.87914062 337.33355469 -257.75828125 336.66710937 -258.6640625 335.98046875 C-265.44651894 330.69445905 -271.76116856 324.90745744 -278 319 C-278.93070313 318.1234375 -279.86140625 317.246875 -280.8203125 316.34375 C-291.77355428 305.73377221 -300.62933856 293.67183992 -308.81347656 280.8515625 C-309.58297599 279.65076339 -310.36052508 278.45507018 -311.14746094 277.265625 C-326.14862912 254.5752197 -335.15351422 226.81704876 -339 200 C-339.10151367 199.32356445 -339.20302734 198.64712891 -339.30761719 197.95019531 C-342.57206592 175.49037611 -342.21613385 152.28997985 -338 130 C-337.74259033 128.6380249 -337.74259033 128.6380249 -337.47998047 127.24853516 C-330.80834874 93.16299575 -316.28156219 59.11253255 -293 33 C-292.23816406 32.14148438 -291.47632813 31.28296875 -290.69140625 30.3984375 C-289.17580731 28.70648725 -287.65263716 27.02128109 -286.12109375 25.34375 C-284.18168497 23.20075688 -282.30670701 21.01655362 -280.4375 18.8125 C-276.93323764 14.8041999 -273.07533151 11.41370601 -269 8 C-268.16082031 7.26136719 -267.32164062 6.52273437 -266.45703125 5.76171875 C-257.86051692 -1.67278399 -248.59368439 -7.92478177 -239 -14 C-238.33049316 -14.42684082 -237.66098633 -14.85368164 -236.97119141 -15.29345703 C-224.121117 -23.39295727 -224.121117 -23.39295727 -216 -23 C-213.5 -22.0625 -213.5 -22.0625 -212 -20 C-211.04423144 -17.25142334 -210.4470615 -14.8752802 -211 -12 C-214.80796781 -7.23621697 -219.68725679 -4.69203637 -224.9375 -1.8125 C-251.4738669 13.17727653 -274.05699127 33.58548691 -291 59 C-261.96 59.33 -232.92 59.66 -203 60 C-202.34 58.35 -201.68 56.7 -201 55 C-199.85732775 52.95747118 -198.67453033 50.93716112 -197.46484375 48.93359375 C-197.11444534 48.35102814 -196.76404694 47.76846252 -196.4030304 47.16824341 C-195.25144636 45.25580288 -194.09455754 43.34663308 -192.9375 41.4375 C-192.12634796 40.09318628 -191.31547978 38.74870123 -190.50488281 37.40405273 C-188.00855993 33.26614925 -185.50471108 29.1328295 -183 25 C-182.23774702 23.74123876 -181.47553854 22.48245057 -180.71337891 21.22363281 C-175.81954068 13.14261741 -170.91201035 5.06998303 -166 -3 C-165.29994074 -4.15053714 -164.5999083 -5.30109059 -163.89990234 -6.45166016 C-159.93482144 -12.96871974 -155.96837993 -19.48494874 -152 -26 C-152.61931396 -25.88406494 -153.23862793 -25.76812988 -153.87670898 -25.64868164 C-156.72969004 -25.11658964 -159.58357752 -24.58951827 -162.4375 -24.0625 C-163.41138672 -23.88009766 -164.38527344 -23.69769531 -165.38867188 -23.50976562 C-181.96453287 -20.4606942 -181.96453287 -20.4606942 -186 -22.5625 C-188.43478807 -25.52989796 -189 -27.16733326 -189 -31 C-188.125 -33.6875 -188.125 -33.6875 -186 -36 C-179.72984107 -38.82191284 -172.85303361 -39.95205132 -166.125 -41.125 C-165.20847656 -41.29386719 -164.29195312 -41.46273437 -163.34765625 -41.63671875 C-106.24795817 -51.83596159 -45.23670826 -36.0469907 0 0 Z M-131 -28 C-132.45601627 -25.94819589 -133.76631814 -23.90193154 -135.0625 -21.75 C-135.70626587 -20.70054199 -135.70626587 -20.70054199 -136.36303711 -19.62988281 C-137.91660088 -17.09133448 -139.45822364 -14.54572376 -141 -12 C-142.28091956 -9.89563216 -143.56219025 -7.79147802 -144.84375 -5.6875 C-148.10107311 -0.33429365 -151.35065548 5.02354959 -154.59681702 10.38352966 C-157.24716148 14.75916891 -159.90158752 19.13230928 -162.55859375 23.50390625 C-166.70956474 30.33361454 -170.85621794 37.16592661 -175 44 C-175.53254395 44.8775293 -176.06508789 45.75505859 -176.61376953 46.65917969 C-177.93246895 48.83381476 -179.24825422 51.01017148 -180.5625 53.1875 C-181.24441406 54.31542969 -181.92632812 55.44335938 -182.62890625 56.60546875 C-184.08281684 58.68475297 -184.08281684 58.68475297 -184 60 C-148.36 60 -112.72 60 -76 60 C-81.211883 50.87920475 -86.46421319 41.83400906 -91.9375 32.875 C-92.67158577 31.67020589 -93.40546754 30.46528747 -94.13916016 29.26025391 C-95.65988765 26.76288416 -97.18147597 24.26604194 -98.70361328 21.76953125 C-101.3428607 17.43917676 -103.97382852 13.10381599 -106.60354614 8.76766968 C-108.40455806 5.79800692 -110.20653345 2.82894456 -112.01171875 -0.13818359 C-115.17243122 -5.33449589 -118.32497815 -10.53479975 -121.44140625 -15.7578125 C-121.95396973 -16.61165527 -122.4665332 -17.46549805 -122.99462891 -18.34521484 C-123.92863156 -19.90188593 -124.85707225 -21.46191345 -125.77880859 -23.02587891 C-126.79800046 -24.71799087 -127.89083997 -26.36544838 -129 -28 C-129.66 -28 -130.32 -28 -131 -28 Z M-109 -27 C-107.5889953 -23.17633805 -105.81151387 -19.84387557 -103.68359375 -16.37109375 C-103.01062256 -15.26813965 -102.33765137 -14.16518555 -101.64428711 -13.02880859 C-100.90873861 -11.83167673 -100.17314156 -10.63457468 -99.4375 -9.4375 C-98.67221278 -8.18595086 -97.90732713 -6.9341561 -97.14282227 -5.68212891 C-95.55374405 -3.08029767 -93.96293943 -0.47953338 -92.37109375 2.12060547 C-90.12338738 5.7947673 -87.88750268 9.47598444 -85.65625 13.16015625 C-85.30079605 13.746866 -84.9453421 14.33357574 -84.57911682 14.93806458 C-82.91542338 17.68438756 -81.25226502 20.43103296 -79.58959961 23.17797852 C-78.6196071 24.77715536 -77.64647826 26.37580667 -76.60667419 27.93049622 C-73.94879678 32.00352113 -72.21089319 36.02944619 -70.52783203 40.59814453 C-67.44940071 48.01287446 -64.12984157 55.68340967 -57 60 C-43.88490043 64.77116871 -27.81938185 62.54552453 -14.18078613 61.78527832 C-8.86018762 61.51717586 -3.53637081 61.40013004 1.7890625 61.26953125 C12.20118293 60.99230526 22.59896159 60.5499221 33 60 C31.35894487 55.63154446 29.14907768 52.25103518 26.25 48.625 C25.77119385 48.02212158 25.2923877 47.41924316 24.79907227 46.7980957 C-6.89877685 7.51097704 -52.01823369 -19.67449176 -102.39453125 -26.45703125 C-104.59172553 -26.68750617 -106.79548548 -26.85544167 -109 -27 Z M-302 76 C-303.30889224 78.82552846 -303.30889224 78.82552846 -302.23413086 80.81152344 C-301.81526611 81.48731445 -301.39640137 82.16310547 -300.96484375 82.859375 C-300.25642334 84.0201355 -300.25642334 84.0201355 -299.53369141 85.2043457 C-299.00694824 86.04441162 -298.48020508 86.88447754 -297.9375 87.75 C-297.39528809 88.63324951 -296.85307617 89.51649902 -296.29443359 90.42651367 C-295.13208213 92.31918776 -293.9655961 94.20932767 -292.79541016 96.09716797 C-290.46032098 99.87255691 -288.15772204 103.66722786 -285.85498047 107.46240234 C-284.11124863 110.33515503 -282.36299849 113.20510818 -280.61328125 116.07421875 C-276.84346582 122.25605522 -273.07755141 128.44026112 -269.3125 134.625 C-268.7242041 135.59091064 -268.1359082 136.55682129 -267.52978516 137.55200195 C-266.97983887 138.45523193 -266.42989258 139.35846191 -265.86328125 140.2890625 C-265.38157471 141.08006348 -264.89986816 141.87106445 -264.40356445 142.68603516 C-262.92766933 145.11924685 -261.46230065 147.55859839 -260 150 C-256.41367472 148.80455824 -256.17422103 148.08283653 -254.35546875 144.8984375 C-253.59882935 143.59277832 -253.59882935 143.59277832 -252.8269043 142.26074219 C-252.28590088 141.30844727 -251.74489746 140.35615234 -251.1875 139.375 C-250.01181231 137.34554501 -248.83468417 135.31692394 -247.65625 133.2890625 C-246.74746094 131.71946777 -246.74746094 131.71946777 -245.8203125 130.11816406 C-243.00285818 125.29191318 -240.1005525 120.51897237 -237.1875 115.75 C-236.62232666 114.8221167 -236.05715332 113.8942334 -235.47485352 112.93823242 C-232.56616386 108.17093182 -229.64091111 103.41429515 -226.69496155 98.66995239 C-225.20078476 96.26359606 -223.70936319 93.85553563 -222.21768188 91.44763184 C-221.14098525 89.71324962 -220.05925086 87.98208113 -218.97729492 86.25097656 C-218.32736572 85.20264648 -217.67743652 84.15431641 -217.0078125 83.07421875 C-216.42660645 82.14182373 -215.84540039 81.20942871 -215.24658203 80.2487793 C-213.83839051 78.13699385 -213.83839051 78.13699385 -214 76 C-243.04 76 -272.08 76 -302 76 Z M-198.92470932 82.77149296 C-199.45697821 83.87460394 -199.45697821 83.87460394 -200 85 C-200.97610229 86.55811401 -200.97610229 86.55811401 -201.97192383 88.14770508 C-202.54450928 89.09540771 -203.11709473 90.04311035 -203.70703125 91.01953125 C-204.36719238 92.10967529 -205.02735352 93.19981934 -205.70751953 94.32299805 C-206.40921018 95.48614697 -207.11086948 96.6493148 -207.8125 97.8125 C-208.55822488 99.04545346 -209.30416033 100.27827958 -210.05029297 101.51098633 C-211.59728015 104.06708496 -213.14336798 106.62372455 -214.68896484 109.18066406 C-217.2643782 113.43928966 -219.84932882 117.69208642 -222.43670654 121.94345093 C-224.20232125 124.84508326 -225.96516574 127.74831436 -227.72119141 130.65576172 C-230.89910279 135.91475117 -234.08982436 141.16260693 -237.35919189 146.36540222 C-238.45231905 148.10820092 -239.53774034 149.85554645 -240.62060547 151.60473633 C-241.96827284 153.7777823 -243.32997221 155.94220726 -244.70751953 158.09643555 C-245.30290527 159.06363525 -245.89829102 160.03083496 -246.51171875 161.02734375 C-247.04240967 161.87031006 -247.57310059 162.71327637 -248.11987305 163.58178711 C-249.25238467 165.98265065 -249.25238467 165.98265065 -248.36279297 168.45898438 C-246.87394673 171.23503448 -245.32971173 173.94242919 -243.68359375 176.62890625 C-243.01070313 177.73169922 -242.3378125 178.83449219 -241.64453125 179.97070312 C-240.90888442 181.16798734 -240.17320647 182.36525243 -239.4375 183.5625 C-238.67147143 184.81550857 -237.90585357 186.06876832 -237.140625 187.32226562 C-235.55090594 189.92561801 -233.95942677 192.52788174 -232.36669922 195.12939453 C-229.07787601 200.50423011 -225.81062922 205.8921274 -222.54327393 211.2800293 C-221.15032564 213.57648297 -219.7561305 215.87217847 -218.36193848 218.1678772 C-215.38208537 223.07458572 -212.40393134 227.98232028 -209.42776489 232.89126587 C-207.85256424 235.4893158 -206.27688707 238.08707657 -204.70117188 240.68481445 C-203.94816596 241.92653154 -203.1953951 243.16839119 -202.44287109 244.41040039 C-201.40130625 246.1294267 -200.35887612 247.84792863 -199.31640625 249.56640625 C-198.72287354 250.54552979 -198.12934082 251.52465332 -197.51782227 252.53344727 C-196.38219726 254.3789064 -195.20196808 256.19704788 -194 258 C-191.72029341 258.5264583 -191.72029341 258.5264583 -189.01451111 258.54917908 C-187.43172112 258.61606178 -187.43172112 258.61606178 -185.81695557 258.68429565 C-184.65395935 258.71749908 -183.49096313 258.75070251 -182.29272461 258.78491211 C-180.46056145 258.85303352 -180.46056145 258.85303352 -178.59138489 258.92253113 C-167.28150438 259.31589517 -155.96454132 259.53499903 -144.64916134 259.69713497 C-137.04794065 259.80810224 -129.4562502 259.97221755 -121.86010742 260.27709961 C-89.03239721 263.53014457 -89.03239721 263.53014457 -59.94931889 253.81338882 C-54.68917182 247.8925675 -52.1111146 240.85346478 -49.99380493 233.32809448 C-48.70461938 229.01081734 -46.693056 225.68902096 -44.1484375 222.01953125 C-35.59251701 207.94796413 -27.08603481 193.84812662 -18.62744141 179.71777344 C-16.08786875 175.47677092 -13.54403719 171.23832544 -11 167 C-16.1657102 157.86548108 -21.46596482 148.83096384 -26.9375 139.875 C-27.67304403 138.66800464 -28.40839076 137.46088902 -29.14355469 136.25366211 C-30.28344516 134.38198611 -31.42352096 132.51042504 -32.56436157 130.639328 C-35.19167713 126.3300877 -37.81112031 122.0161475 -40.42578125 117.69921875 C-41.15827384 116.49039067 -41.89077701 115.28156901 -42.62329102 114.07275391 C-43.97477842 111.84240456 -45.32542623 109.61155472 -46.67553711 107.38037109 C-47.96116209 105.26033152 -49.27461461 103.15691119 -50.61566162 101.07148743 C-52.46854207 98.07234977 -53.87521831 95.03085862 -55.25093079 91.78718567 C-60.01526518 81.41390586 -60.01526518 81.41390586 -68.87829971 74.79671669 C-76.81106134 73.03953096 -84.89220102 73.30236435 -92.96745563 73.5743432 C-96.50103997 73.67314404 -100.03439602 73.65806755 -103.56910706 73.65817261 C-109.49483591 73.67479324 -115.41484932 73.77114846 -121.33862305 73.92138672 C-128.17622377 74.09429613 -135.00840316 74.16234324 -141.84806293 74.1700393 C-149.15628348 74.17882281 -156.46252649 74.25622699 -163.76999021 74.35773993 C-165.86598385 74.38275152 -167.96177896 74.39583516 -170.05788994 74.40655899 C-173.96550684 74.43120418 -177.86899777 74.53358134 -181.77514648 74.64501953 C-182.93004578 74.64565399 -184.08494507 74.64628845 -185.27484131 74.64694214 C-192.52280618 74.93727824 -195.4369012 76.29644335 -198.92470932 82.77149296 Z M-47 76 C-45.74885576 78.19826481 -44.49666694 80.39592389 -43.24389648 82.59326172 C-42.89503136 83.20646774 -42.54616623 83.81967377 -42.18672943 84.45146179 C-38.59499747 90.74766811 -34.84178675 96.93952688 -31.0625 103.125 C-29.95904554 104.93445332 -28.85609208 106.74421136 -27.75318909 108.55400085 C-26.99450269 109.79886451 -26.23558052 111.0435845 -25.47642517 112.28816223 C-22.72289529 116.80482279 -19.98730266 121.33206162 -17.2578125 125.86328125 C-16.10612153 127.77202561 -14.95411079 129.68057655 -13.80197144 131.58905029 C-13.06551337 132.8105313 -12.3302412 134.03272818 -11.59622192 135.25567627 C-10.5713271 136.96278465 -9.54161383 138.66699734 -8.51171875 140.37109375 C-7.92865967 141.33974365 -7.34560059 142.30839355 -6.74487305 143.30639648 C-4.98449894 146.02392937 -3.06505354 148.50851418 -1 151 C-0.6189209 150.36312256 -0.2378418 149.72624512 0.15478516 149.07006836 C7.08994673 137.48418371 14.03717707 125.90648977 21.0625 114.375 C21.62557861 113.45033936 22.18865723 112.52567871 22.76879883 111.57299805 C25.8224494 106.56209087 28.88456143 101.55647612 31.953125 96.5546875 C32.92173462 94.97228271 32.92173462 94.97228271 33.90991211 93.35791016 C35.15295959 91.32737065 36.39846068 89.29833059 37.64672852 87.27099609 C38.48095337 85.9070874 38.48095337 85.9070874 39.33203125 84.515625 C39.82421143 83.71415039 40.3163916 82.91267578 40.82348633 82.08691406 C42.13256419 79.91968025 42.13256419 79.91968025 43 77 C39.7709039 75.38545195 36.24141342 75.87084219 32.69482422 75.88647461 C31.83621796 75.88632858 30.97761169 75.88618256 30.09298706 75.8860321 C27.24686176 75.88673037 24.40080141 75.89451875 21.5546875 75.90234375 C19.58456457 75.90420824 17.61444118 75.90563199 15.64431763 75.90663147 C10.45260341 75.91045424 5.26091706 75.92028249 0.06921387 75.93133545 C-5.225989 75.94155472 -10.52119637 75.9461302 -15.81640625 75.95117188 C-26.21094976 75.96190496 -36.60547256 75.97897852 -47 76 Z M51 96 C49.75768555 97.54348148 49.75768555 97.54348148 48.55859375 99.609375 C48.06617188 100.41246094 47.57375 101.21554688 47.06640625 102.04296875 C46.52886719 102.93628906 45.99132812 103.82960937 45.4375 104.75 C44.8703125 105.67941406 44.303125 106.60882813 43.71875 107.56640625 C41.80507198 110.70648438 39.90228061 113.85300576 38 117 C36.2488759 119.88556776 34.49726511 122.77083289 32.74368286 125.65490723 C30.93709901 128.62742641 29.13618017 131.60309804 27.34667969 134.5859375 C23.97410826 140.19514723 20.54485163 145.74157212 16.88671875 151.171875 C16.26023437 152.11933594 15.63375 153.06679687 14.98828125 154.04296875 C13.82084629 155.79791978 12.62807788 157.53638066 11.40625 159.25390625 C8.60571838 163.29484046 8.60571838 163.29484046 8.35913086 167.98925781 C9.394414 170.1582154 10.6266052 172.02792226 12 174 C12.95765513 175.6059114 13.90911546 177.21552765 14.85546875 178.828125 C15.96304559 180.63731827 17.07390952 182.44450201 18.1875 184.25 C19.43515191 186.28630145 20.68253534 188.32276743 21.9296875 190.359375 C22.58807617 191.43251953 23.24646484 192.50566406 23.92480469 193.61132812 C27.5703558 199.56429865 31.19086815 205.53245867 34.8125 211.5 C35.5398718 212.6979194 36.26724806 213.8958361 36.99462891 215.09375 C42.02417463 223.37926405 47.03195392 231.67746127 52 240 C71.20992169 211.18511747 69.42256758 163.21031031 63.2421875 130.81640625 C60.81094764 118.93766373 57.37367443 107.30406655 53 96 C52.34 96 51.68 96 51 96 Z M-312 97 C-319.80863149 118.0108538 -323.75079884 139.64664745 -325 162 C-325.06058594 163.07636719 -325.12117188 164.15273437 -325.18359375 165.26171875 C-325.67582502 185.55902007 -321.98476088 206.05198072 -316.4375 225.5 C-316.23987061 226.20036377 -316.04224121 226.90072754 -315.83862305 227.62231445 C-314.74007 231.27736836 -313.53225973 234.12276576 -311 237 C-304.08689055 226.06132068 -297.32177737 215.03320139 -290.63354492 203.95581055 C-289.90023354 202.74137027 -289.16691647 201.52693343 -288.43359375 200.3125 C-288.06916672 199.70876053 -287.70473969 199.10502106 -287.32926941 198.48298645 C-285.1220895 194.83331386 -282.89005281 191.20041644 -280.63487244 187.58021545 C-279.55602539 185.84604565 -278.48338235 184.10820404 -277.4128418 182.36889648 C-276.08077506 180.2076194 -274.73761437 178.0531304 -273.38208008 175.90649414 C-272.4929895 174.45424438 -272.4929895 174.45424438 -271.5859375 172.97265625 C-271.0604834 172.12968994 -270.5350293 171.28672363 -269.99365234 170.41821289 C-268.7716326 167.44423119 -269.02331913 166.02640515 -270 163 C-271.27108117 160.73735783 -272.5780718 158.60122964 -274 156.4375 C-274.91228808 155.01438519 -275.82225842 153.58978312 -276.73046875 152.1640625 C-277.24399902 151.3587207 -277.7575293 150.55337891 -278.28662109 149.72363281 C-281.323674 144.8958525 -284.26429101 140.00919508 -287.21456909 135.12811279 C-290.46844922 129.74727658 -293.73518503 124.3742061 -297 119 C-297.66161133 117.91074219 -298.32322266 116.82148438 -299.00488281 115.69921875 C-300.81002627 112.73342806 -302.62235296 109.7721758 -304.4375 106.8125 C-304.97479736 105.92796143 -305.51209473 105.04342285 -306.06567383 104.13208008 C-306.80466919 102.93168091 -306.80466919 102.93168091 -307.55859375 101.70703125 C-307.98454834 101.0106958 -308.41050293 100.31436035 -308.84936523 99.59692383 C-309.92444959 97.84434223 -309.92444959 97.84434223 -312 97 Z M-259 183 C-263.86416617 190.11603138 -268.36155038 197.43330412 -272.8125 204.8125 C-273.55017272 206.03226715 -274.28805113 207.25190992 -275.02612305 208.47143555 C-276.1751468 210.37014672 -277.32397042 212.26897678 -278.47200012 214.16828918 C-281.22394408 218.72087053 -283.98460836 223.26807636 -286.75 227.8125 C-287.52238559 229.08227172 -288.29476523 230.35204706 -289.06713867 231.62182617 C-290.17877751 233.44926425 -291.290621 235.27657573 -292.40322876 237.10342407 C-294.6115224 240.73001708 -296.80953148 244.3626165 -299 248 C-299.45036621 248.73782715 -299.90073242 249.4756543 -300.36474609 250.23583984 C-302.52582756 253.85295049 -302.52582756 253.85295049 -303 258 C-273.3 258 -243.6 258 -213 258 C-218.21186501 248.87923623 -223.46377247 239.83372601 -228.9375 230.875 C-230.04095446 229.06554668 -231.14390792 227.25578864 -232.24681091 225.44599915 C-233.00549731 224.20113549 -233.76441948 222.9564155 -234.52357483 221.71183777 C-237.27710471 217.19517721 -240.01269734 212.66793838 -242.7421875 208.13671875 C-243.89387847 206.22797439 -245.04588921 204.31942345 -246.19802856 202.41094971 C-246.93448663 201.1894687 -247.6697588 199.96727182 -248.40377808 198.74432373 C-249.4286729 197.03721535 -250.45838617 195.33300266 -251.48828125 193.62890625 C-252.07134033 192.66025635 -252.65439941 191.69160645 -253.25512695 190.69360352 C-255.01550106 187.97607063 -256.93494646 185.49148582 -259 183 Z M-2 183 C-3.04109334 184.54072518 -4.03020913 186.11655162 -5 187.703125 C-5.63131836 188.73228027 -6.26263672 189.76143555 -6.91308594 190.82177734 C-7.60883987 191.96444766 -8.30447452 193.10719061 -9 194.25 C-9.71881676 195.42545124 -10.43789649 196.60074172 -11.15722656 197.77587891 C-13.05920996 200.88574281 -14.95616814 203.99863902 -16.85131836 207.1126709 C-17.97641292 208.9612455 -19.10235334 210.80930227 -20.22851562 212.65722656 C-25.16692668 220.7626822 -30.08788245 228.87858384 -35 237 C-35.63115723 238.04236816 -36.26231445 239.08473633 -36.91259766 240.15869141 C-38.63192229 243.00001446 -40.34796492 245.84328489 -42.0625 248.6875 C-42.56942383 249.52522949 -43.07634766 250.36295898 -43.59863281 251.22607422 C-44.05206055 251.98033691 -44.50548828 252.73459961 -44.97265625 253.51171875 C-45.36718994 254.16615967 -45.76172363 254.82060059 -46.16821289 255.49487305 C-47.08061483 256.85926108 -47.08061483 256.85926108 -47 258 C-16.97 258 13.06 258 44 258 C40.63042383 251.26084766 37.25262119 244.94847406 33.25 238.625 C32.10163269 236.79113542 30.9545682 234.95645457 29.80859375 233.12109375 C29.19741699 232.14253418 28.58624023 231.16397461 27.95654297 230.15576172 C24.73769909 224.96400031 21.57780527 219.73672866 18.41564941 214.51031494 C13.30837174 206.07118426 8.1992944 197.63285338 3 189.25 C2.59692627 188.59475342 2.19385254 187.93950684 1.77856445 187.2644043 C0.88051517 185.82499347 -0.05486956 184.40894446 -1 183 C-1.33 183 -1.66 183 -2 183 Z M-292 275 C-283.22334206 293.00327945 -266.49818409 308.82582322 -251 321 C-250.03835937 321.75539063 -249.07671875 322.51078125 -248.0859375 323.2890625 C-221.98631725 343.32861261 -183.9155509 363.50735782 -150 362 C-153.01677628 355.39484772 -156.63632349 349.24925964 -160.5168457 343.12597656 C-164.78234409 336.38449738 -168.92940528 329.57309586 -173.0625 322.75 C-173.78693321 321.55476076 -174.51137992 320.35952969 -175.23583984 319.16430664 C-176.34729736 317.33031247 -177.45860214 315.49622626 -178.56958008 313.66194153 C-181.2997817 309.1542434 -184.03363343 304.64877421 -186.76953125 300.14453125 C-187.15772537 299.50540802 -187.54591949 298.86628479 -187.94587708 298.20779419 C-189.08888727 296.32601076 -190.23193966 294.44425297 -191.375 292.5625 C-192.77884201 290.25142107 -194.18245648 287.94020448 -195.5859375 285.62890625 C-196.1742334 284.66025635 -196.7625293 283.69160645 -197.36865234 282.69360352 C-199 280 -199 280 -200.0643158 277.36712646 C-201.90026602 274.58659675 -201.90026602 274.58659675 -205.7775116 274.39872742 C-207.38574628 274.3842095 -208.99437108 274.39758089 -210.60229492 274.43237305 C-211.48055435 274.43164291 -212.35881378 274.43091278 -213.26368713 274.43016052 C-216.16990687 274.43364714 -219.07452866 274.47255858 -221.98046875 274.51171875 C-223.99399439 274.52104306 -226.00753136 274.52816098 -228.02107239 274.53315735 C-233.32322455 274.55225713 -238.62469291 274.60138393 -243.92657471 274.65667725 C-249.33572132 274.70780531 -254.74497833 274.73065763 -260.15429688 274.75585938 C-270.76983185 274.80949951 -281.38485909 274.8948486 -292 275 Z M-183 275 C-179.69532712 281.63810364 -179.69532712 281.63810364 -176.0390625 288.00390625 C-175.4925 288.89722656 -174.9459375 289.79054688 -174.3828125 290.7109375 C-173.80273438 291.65195312 -173.22265625 292.59296875 -172.625 293.5625 C-171.3671022 295.61583317 -170.10929215 297.66922009 -168.8515625 299.72265625 C-168.2112207 300.76566895 -167.57087891 301.80868164 -166.91113281 302.88330078 C-163.92820151 307.74790234 -160.96475083 312.62430581 -158 317.5 C-156.84379016 319.39846196 -155.68753996 321.29689934 -154.53125 323.1953125 C-152.08851916 327.2077848 -149.65194164 331.2239239 -147.21875 335.2421875 C-146.59613281 336.26892578 -145.97351563 337.29566406 -145.33203125 338.35351562 C-144.15074078 340.30176334 -142.97093985 342.25091537 -141.79296875 344.20117188 C-138.33505576 349.89971344 -134.74639507 355.48672401 -131 361 C-126.85104868 359.61701623 -125.89782461 356.82402915 -123.875 353.1875 C-122.98404908 351.63020478 -122.09063449 350.07431756 -121.1953125 348.51953125 C-120.69418945 347.6476416 -120.19306641 346.77575195 -119.67675781 345.87744141 C-116.44453878 340.33071259 -113.0907581 334.85676351 -109.75 329.375 C-108.65076561 327.57010239 -107.55163323 325.76514269 -106.45251465 323.96017456 C-105.71903228 322.75575162 -104.9853899 321.55142611 -104.25158691 320.34719849 C-101.78829769 316.30255451 -99.34007307 312.24916077 -96.8984375 308.19140625 C-96.26067383 307.13453613 -95.62291016 306.07766602 -94.96582031 304.98876953 C-93.76652542 303.00086667 -92.57039949 301.01104744 -91.37792969 299.01904297 C-90.57597168 297.69283936 -90.57597168 297.69283936 -89.7578125 296.33984375 C-89.2952002 295.57019287 -88.83258789 294.80054199 -88.35595703 294.00756836 C-86.18192489 290.78879518 -84.8618112 289.23837331 -81.0625 288.1875 C-77.87653809 287.99244111 -76.57600582 288.18725516 -74 290 C-72.4356075 293.12878499 -72.71089993 295.53079911 -73 299 C-74.2706048 301.69344796 -75.53798982 304.01083301 -77.125 306.5 C-77.56803467 307.2228418 -78.01106934 307.94568359 -78.4675293 308.69042969 C-79.44299428 310.27987852 -80.42499835 311.86532785 -81.41259766 313.44726562 C-83.07087036 316.11396809 -84.70049486 318.79650772 -86.32421875 321.484375 C-91.09531029 329.37580351 -95.8961907 337.2473451 -100.78515625 345.06640625 C-101.38803467 346.03223633 -101.99091309 346.99806641 -102.61206055 347.99316406 C-103.76697734 349.84013527 -104.92585304 351.68463822 -106.08911133 353.52636719 C-106.60368896 354.34911133 -107.1182666 355.17185547 -107.6484375 356.01953125 C-108.10395996 356.74245361 -108.55948242 357.46537598 -109.02880859 358.21020508 C-110.15897858 359.95359356 -110.15897858 359.95359356 -110 362 C-103.01086305 362.22962257 -96.70657455 361.44878141 -89.875 360 C-88.83529053 359.77997314 -87.79558105 359.55994629 -86.72436523 359.33325195 C-53.05025908 351.8413667 -22.59220353 335.77075148 2.5625 312.2265625 C5 310 5 310 7.60546875 307.94140625 C9.7785082 306.17957818 11.51288958 304.44255998 13.3125 302.3125 C15.14888068 300.15485186 16.98475346 298.01646252 18.91015625 295.9375 C28.36551044 286.43538955 28.36551044 286.43538955 34 275 C-37.61 275 -109.22 275 -183 275 Z " fill="#000000" transform="translate(387,90)"/>
<path d="M0 0 C1.45108658 0.00273422 1.45108658 0.00273422 2.93148804 0.00552368 C17.26440977 0.05095174 31.21023917 0.55983928 45.3125 3.3125 C46.65803955 3.55395752 46.65803955 3.55395752 48.03076172 3.80029297 C96.71843124 12.61028149 141.74255908 36.05356547 177.3125 70.3125 C178.3015332 71.26068604 178.3015332 71.26068604 179.31054688 72.22802734 C188.79880305 81.37247479 197.5387044 90.66984009 205.3125 101.3125 C206.17056152 102.46355017 207.02863451 103.61459177 207.88671875 104.765625 C213.92427396 112.95525981 219.30707302 121.45788276 224.3125 130.3125 C224.7146875 131.01971191 225.116875 131.72692383 225.53125 132.45556641 C238.54775099 155.57510937 247.281052 180.72419753 252.625 206.6875 C252.77235596 207.39801514 252.91971191 208.10853027 253.0715332 208.84057617 C256.05794017 224.48291051 256.68730954 240.11926093 256.625 256 C256.62226578 257.45108658 256.62226578 257.45108658 256.61947632 258.93148804 C256.57404826 273.26440977 256.06516072 287.21023917 253.3125 301.3125 C253.15152832 302.20952637 252.99055664 303.10655273 252.82470703 304.03076172 C244.01471851 352.71843124 220.57143453 397.74255908 186.3125 433.3125 C185.68037598 433.97185547 185.04825195 434.63121094 184.39697266 435.31054688 C175.25252521 444.79880305 165.95515991 453.5387044 155.3125 461.3125 C154.16144983 462.17056152 153.01040823 463.02863451 151.859375 463.88671875 C143.66974019 469.92427396 135.16711724 475.30707302 126.3125 480.3125 C125.60528809 480.7146875 124.89807617 481.116875 124.16943359 481.53125 C101.04989063 494.54775099 75.90080247 503.281052 49.9375 508.625 C49.22698486 508.77235596 48.51646973 508.91971191 47.78442383 509.0715332 C32.14252803 512.05785645 16.50542167 512.68882614 0.625 512.625 C-0.34338806 512.62284485 -1.31177612 512.6206897 -2.30950928 512.61846924 C-16.62643438 512.56738903 -30.61598845 512.18100217 -44.6875 509.3125 C-46.22664063 509.00650879 -46.22664063 509.00650879 -47.796875 508.69433594 C-79.22294114 502.29928042 -134.64737413 488.87268881 -153.6875 460.3125 C-154.125 457.4375 -154.125 457.4375 -153.6875 454.3125 C-151.5625 451.4375 -151.5625 451.4375 -148.6875 449.3125 C-143.15535926 448.48704428 -139.79404953 450.69675237 -135.375 453.6875 C-133.94509103 454.61364969 -132.51406584 455.53807789 -131.08203125 456.4609375 C-130.35193848 456.9362793 -129.6218457 457.41162109 -128.86962891 457.90136719 C-101.91657983 475.33128704 -72.29111275 486.74015618 -40.6875 492.3125 C-39.30570557 492.55806641 -39.30570557 492.55806641 -37.89599609 492.80859375 C22.97855552 503.11945394 87.04685848 488.18640467 137.45605469 452.80810547 C156.0080864 439.55233781 173.40736224 424.46518787 187.3125 406.3125 C187.82393555 405.65572266 188.33537109 404.99894531 188.86230469 404.32226562 C198.20960007 392.27272271 206.19400421 379.79662368 213.3125 366.3125 C213.72338867 365.5400293 214.13427734 364.76755859 214.55761719 363.97167969 C242.89746809 309.88531955 247.03306271 243.15360597 229.33544922 185.10791016 C214.93902551 140.49474169 187.83092737 98.051985 150.3125 69.3125 C149.65572266 68.80106445 148.99894531 68.28962891 148.32226562 67.76269531 C136.27272271 58.41539993 123.79662368 50.43099579 110.3125 43.3125 C109.5400293 42.90161133 108.76755859 42.49072266 107.97167969 42.06738281 C53.88531955 13.72753191 -12.84639403 9.59193729 -70.89208984 27.28955078 C-115.50525831 41.68597449 -157.948015 68.79407263 -186.6875 106.3125 C-187.19893555 106.96927734 -187.71037109 107.62605469 -188.23730469 108.30273438 C-197.58460007 120.35227729 -205.56900421 132.82837632 -212.6875 146.3125 C-213.09838867 147.0849707 -213.50927734 147.85744141 -213.93261719 148.65332031 C-242.68571618 203.52836084 -246.36743115 270.97383614 -228.05859375 329.69140625 C-217.17556563 362.80658687 -199.46366497 391.39253802 -176.72290039 417.58056641 C-170.78261261 424.44063443 -170.78261261 424.44063443 -170.3125 428.75 C-170.6875 432.3125 -170.6875 432.3125 -172.1875 434.75 C-174.9261439 436.46165244 -177.09370245 437.31638004 -180.359375 437.12890625 C-190.31431088 433.63799753 -198.57903139 419.51217617 -204.6875 411.3125 C-205.33549561 410.4477002 -205.33549561 410.4477002 -205.99658203 409.56542969 C-212.50337702 400.83217169 -218.32903309 391.79164607 -223.6875 382.3125 C-224.0896875 381.60528809 -224.491875 380.89807617 -224.90625 380.16943359 C-239.62754051 354.02189144 -249.32671333 325.00083558 -253.6875 295.3125 C-253.86482666 294.10787109 -254.04215332 292.90324219 -254.22485352 291.66210938 C-255.823825 280.00482646 -256.0459053 268.44063902 -256 256.6875 C-255.99817719 255.71761139 -255.99635437 254.74772278 -255.99447632 253.7484436 C-255.94908309 239.39693945 -255.4437347 225.43307082 -252.6875 211.3125 C-252.44604248 209.96696045 -252.44604248 209.96696045 -252.19970703 208.59423828 C-243.38971851 159.90656876 -219.94643453 114.88244092 -185.6875 79.3125 C-185.05537598 78.65314453 -184.42325195 77.99378906 -183.77197266 77.31445312 C-174.62752521 67.82619695 -165.33015991 59.0862956 -154.6875 51.3125 C-153.53644983 50.45443848 -152.38540823 49.59636549 -151.234375 48.73828125 C-143.04474019 42.70072604 -134.54211724 37.31792698 -125.6875 32.3125 C-124.98028809 31.9103125 -124.27307617 31.508125 -123.54443359 31.09375 C-100.42489063 18.07724901 -75.27580247 9.343948 -49.3125 4 C-48.24672729 3.77896606 -48.24672729 3.77896606 -47.15942383 3.5534668 C-31.51708949 0.56705983 -15.88073907 -0.06230954 0 0 Z " fill="#000000" transform="translate(255.6875,-0.3125)"/>
<path d="M0 0 C4.31799709 4.03055979 8.49830592 8.19190161 12.671875 12.37109375 C13.88375552 13.57907989 15.09585661 14.78684479 16.3081665 15.99440002 C18.83629176 18.51510012 21.3605552 21.03959203 23.88232422 23.56665039 C27.10385807 26.79399211 30.33665004 30.00978973 33.57264328 33.22262478 C36.0744035 35.70961501 38.56916192 38.20353853 41.06198883 40.69948006 C42.25089098 41.88787124 43.44213727 43.07392235 44.63582611 44.25750542 C46.30586246 45.91512301 47.96597423 47.58211226 49.62402344 49.25170898 C50.11136459 49.7314064 50.59870575 50.21110382 51.10081482 50.70533752 C56.23324111 55.91658841 59.87081601 61.50732832 60 69 C58.15075853 81.84862579 44.95317028 91.21894027 36.2109375 99.9921875 C35.39243254 100.81493353 35.39243254 100.81493353 34.55739212 101.65430069 C31.67959634 104.54693875 28.79905562 107.43680776 25.91601562 110.32421875 C22.95616935 113.28958389 20.00574768 116.26414785 17.05733299 119.24087334 C14.76831749 121.54855687 12.47257816 123.84946198 10.17497635 126.1485939 C9.08412289 127.2424558 7.99574882 128.33879655 6.91001511 129.43774033 C-7.32439252 143.83317918 -7.32439252 143.83317918 -17 144 C-29.84862579 142.15075853 -39.21894027 128.95317028 -47.9921875 120.2109375 C-48.54068485 119.66526752 -49.08918221 119.11959755 -49.65430069 118.55739212 C-52.54693875 115.67959634 -55.43680776 112.79905562 -58.32421875 109.91601562 C-61.28958389 106.95616935 -64.26414785 104.00574768 -67.24087334 101.05733299 C-69.54855687 98.76831749 -71.84946198 96.47257816 -74.1485939 94.17497635 C-75.2424558 93.08412289 -76.33879655 91.99574882 -77.43774033 90.91001511 C-91.83317918 76.67560748 -91.83317918 76.67560748 -92 67 C-90.15075853 54.15137421 -76.95317028 44.78105973 -68.2109375 36.0078125 C-67.66526752 35.45931515 -67.11959755 34.91081779 -66.55739212 34.34569931 C-63.67959634 31.45306125 -60.79905562 28.56319224 -57.91601562 25.67578125 C-54.95616935 22.71041611 -52.00574768 19.73585215 -49.05733299 16.75912666 C-46.76831749 14.45144313 -44.47257816 12.15053802 -42.17497635 9.8514061 C-41.08412289 8.7575442 -39.99574882 7.66120345 -38.91001511 6.56225967 C-26.17445077 -6.31737975 -15.32744474 -13.08502702 0 0 Z M-20.92959595 12.68075562 C-21.46474823 13.22309845 -21.99990051 13.76544128 -22.55126953 14.32421875 C-23.11726868 14.88992584 -23.68326782 15.45563293 -24.26641846 16.03848267 C-26.14332666 17.91678854 -28.01304459 19.80208833 -29.8828125 21.6875 C-31.17989277 22.98830884 -32.47741418 24.28867796 -33.77536011 25.58862305 C-37.19597861 29.01689025 -40.61054971 32.45112047 -44.02392578 35.88659668 C-47.50583053 39.38893325 -50.99337987 42.88563882 -54.48046875 46.3828125 C-61.32587125 53.24968672 -68.16490283 60.12286915 -75 67 C-73.3993244 70.97526224 -70.62856444 73.64020304 -67.63232422 76.59472656 C-66.81258621 77.41490265 -66.81258621 77.41490265 -65.97628784 78.25164795 C-64.17378907 80.05275649 -62.36431604 81.84668247 -60.5546875 83.640625 C-59.30157633 84.89000495 -58.04890681 86.13982801 -56.79666138 87.39007568 C-53.50324045 90.67586872 -50.20385709 93.9556107 -46.90319824 97.23413086 C-43.53471006 100.58214253 -40.1718924 103.93583907 -36.80859375 107.2890625 C-30.21126824 113.86495296 -23.60763017 120.43446516 -17 127 C-13.02473776 125.3993244 -10.35979696 122.62856444 -7.40527344 119.63232422 C-6.85848938 119.08583221 -6.31170532 118.53934021 -5.74835205 117.97628784 C-3.94724351 116.17378907 -2.15331753 114.36431604 -0.359375 112.5546875 C0.89000495 111.30157633 2.13982801 110.04890681 3.39007568 108.79666138 C6.67586872 105.50324045 9.9556107 102.20385709 13.23413086 98.90319824 C16.58214253 95.53471006 19.93583907 92.1718924 23.2890625 88.80859375 C29.86495296 82.21126824 36.43446516 75.60763017 43 69 C41.3991259 65.03607741 38.64517519 62.36287411 35.6640625 59.40527344 C35.12078308 58.85848938 34.57750366 58.31170532 34.01776123 57.74835205 C32.22516477 55.94697052 30.42537258 54.15298232 28.625 52.359375 C27.37682289 51.10985071 26.12894281 49.86002965 24.88134766 48.60992432 C22.26854023 45.99417032 19.65215399 43.38206354 17.03320312 40.77246094 C13.67024761 37.42092324 10.316381 34.06045611 6.96511841 30.69723129 C4.39174416 28.11664601 1.81364522 25.54082354 -0.76593018 22.96643829 C-2.00501499 21.72869085 -3.24260703 20.4894472 -4.47869873 19.24871063 C-6.20237239 17.51998163 -7.93228523 15.79775419 -9.6640625 14.07714844 C-10.17737122 13.55979126 -10.69067993 13.04243408 -11.21954346 12.50939941 C-15.62198268 8.15966823 -16.56715081 8.3427492 -20.92959595 12.68075562 Z " fill="#000000" transform="translate(272,188)"/>
<path d="M0 0 C6.92234266 6.37403829 9.58153212 13.47831756 9.97265625 22.81640625 C9.5788342 31.23435256 6.16902951 37.93579969 0 43.640625 C-6.50826133 48.51886807 -13.63434948 50.06871008 -21.69921875 49.69140625 C-29.96046741 48.45991577 -36.46927839 44.356192 -41.46484375 37.69140625 C-45.53319662 30.948593 -46.68303385 23.38166066 -45.52734375 15.62890625 C-43.41988199 7.3713674 -38.71583493 1.33870313 -31.4375 -3.0234375 C-21.09333078 -8.00272155 -9.20517611 -6.93311813 0 0 Z M-28.02734375 15.81640625 C-29.64164298 19.04500472 -29.62305032 22.32634278 -29.02734375 25.81640625 C-27.2913227 28.8414877 -25.19154238 31.23430694 -22.02734375 32.81640625 C-16.90363977 33.4236947 -16.90363977 33.4236947 -12.203125 31.76953125 C-8.39981631 28.6384781 -7.14071008 26.95006957 -6.65234375 22.06640625 C-6.676756 18.71582557 -7.27133021 16.96746093 -9.40234375 14.37890625 C-12.93220235 10.9330919 -14.95570895 10.42084789 -19.921875 10.45703125 C-23.64327828 11.09222439 -25.43047224 13.15619641 -28.02734375 15.81640625 Z " fill="#000000" transform="translate(274.02734375,234.18359375)"/>
</svg>
