<svg width="70" height="70" viewBox="0 0 70 70" fill="none" xmlns="http://www.w3.org/2000/svg">
<circle cx="35" cy="35" r="35" fill="#FFE8AF"/>
<path d="M19.0202 18.0265C19.1119 18.025 19.1119 18.025 19.2053 18.0235C19.2711 18.023 19.3368 18.0224 19.4045 18.0218C19.5063 18.0209 19.5063 18.0209 19.6102 18.02C19.7538 18.0189 19.8974 18.0181 20.041 18.0175C20.2604 18.0162 20.4796 18.0129 20.6989 18.0095C20.8385 18.0087 20.9781 18.0081 21.1177 18.0076C21.1832 18.0063 21.2486 18.0049 21.316 18.0036C21.627 18.0047 21.7874 18.0149 22.0576 18.1822C22.2334 18.3716 22.2771 18.4659 22.2834 18.7233C22.2026 19.0128 22.16 19.084 21.9037 19.2548C21.6779 19.2679 21.4594 19.2724 21.2337 19.2697C21.1683 19.2694 21.1029 19.2692 21.0355 19.269C20.8266 19.2682 20.6177 19.2662 20.4088 19.2643C20.2672 19.2636 20.1256 19.2629 19.9839 19.2622C19.6367 19.2607 19.2896 19.2577 18.9424 19.2548C18.9424 19.9815 18.9424 20.7082 18.9424 21.4568C29.2661 21.4568 39.5898 21.4568 50.2263 21.4568C50.2263 20.7302 50.2263 20.0035 50.2263 19.2548C49.8988 19.2555 49.5713 19.2562 49.2339 19.2569C46.2326 19.2629 43.2313 19.2674 40.23 19.2703C39.8369 19.2707 39.4438 19.2711 39.0507 19.2715C38.9724 19.2716 38.8941 19.2717 38.8135 19.2717C37.5452 19.2731 36.2768 19.2755 35.0085 19.2783C33.7077 19.2811 32.4069 19.2828 31.1061 19.2834C30.303 19.2838 29.5 19.2851 28.6969 19.2876C28.1467 19.2892 27.5965 19.2897 27.0463 19.2893C26.7285 19.2891 26.4108 19.2894 26.093 19.291C25.8023 19.2925 25.5117 19.2926 25.221 19.2915C25.1156 19.2914 25.0102 19.2918 24.9049 19.2928C24.762 19.294 24.6192 19.2931 24.4763 19.2922C24.3969 19.2923 24.3174 19.2924 24.2355 19.2925C23.9771 19.2451 23.8889 19.1528 23.7261 18.9511C23.6356 18.7506 23.645 18.6668 23.7024 18.4528C23.8166 18.2406 23.9 18.1634 24.1058 18.0399C24.3117 18.0113 24.3117 18.0113 24.5529 18.011C24.6449 18.0104 24.737 18.0098 24.8318 18.0091C24.934 18.0095 25.0362 18.01 25.1385 18.0105C25.247 18.0102 25.3555 18.0097 25.464 18.0092C25.7626 18.0081 26.0611 18.0085 26.3597 18.009C26.6815 18.0094 27.0034 18.0084 27.3252 18.0077C27.956 18.0063 28.5867 18.0063 29.2175 18.0067C29.7302 18.007 30.2428 18.0069 30.7555 18.0065C30.8284 18.0064 30.9013 18.0064 30.9765 18.0063C31.1246 18.0062 31.2727 18.0061 31.4208 18.006C32.8106 18.0049 34.2005 18.0053 35.5903 18.0062C36.8619 18.0069 38.1334 18.006 39.405 18.0041C40.7102 18.0023 42.0155 18.0016 43.3208 18.0021C44.0537 18.0023 44.7866 18.0022 45.5196 18.0008C46.1437 17.9997 46.7678 17.9997 47.3919 18.001C47.7103 18.0016 48.0287 18.0018 48.3471 18.0006C48.6387 17.9996 48.9303 17.9999 49.2219 18.0014C49.3273 18.0017 49.4327 18.0015 49.538 18.0007C50.1294 17.9966 50.5595 18.0168 51.0616 18.3436C51.2572 18.5493 51.3517 18.6825 51.4413 18.9511C51.4348 19.0851 51.4277 19.219 51.4169 19.3527C51.2409 21.5878 51.9425 23.1082 53.0387 25.0145C53.0945 25.1116 53.0945 25.1116 53.1514 25.2107C53.2261 25.3402 53.3012 25.4695 53.3768 25.5985C53.894 26.4915 54.1389 27.2127 54.0969 28.2495C54.0893 28.4398 54.0876 28.6296 54.0867 28.82C54.0714 29.9146 53.8867 30.8969 53.1091 31.7192C52.5894 32.2114 52.0723 32.501 51.3653 32.6188C51.3653 37.8057 51.3653 42.9927 51.3653 48.3367C51.6911 48.3367 52.0168 48.3367 52.3524 48.3367C52.8728 48.4197 53.3532 48.5968 53.6872 49.0201C53.9602 49.4469 54.0354 49.7886 54.0384 50.2938C54.0388 50.3515 54.0392 50.4093 54.0397 50.4688C54.0404 50.591 54.0409 50.7131 54.0412 50.8353C54.0419 51.0216 54.0443 51.2079 54.0467 51.3942C54.0472 51.513 54.0476 51.6319 54.0478 51.7507C54.0488 51.8062 54.0497 51.8616 54.0507 51.9188C54.0492 52.2575 54.0213 52.483 53.7951 52.7408C53.3892 52.9529 53.0698 53.0014 52.6163 52.9972C52.5527 52.9976 52.4892 52.9979 52.4237 52.9983C52.2108 52.9991 51.9979 52.9983 51.785 52.9975C51.6308 52.9978 51.4767 52.9981 51.3225 52.9986C50.8988 52.9995 50.475 52.9991 50.0513 52.9984C49.5944 52.9978 49.1374 52.9986 48.6805 52.9993C47.8371 53.0002 46.9936 53.0001 46.1502 52.9995C45.3711 52.9989 44.5919 52.9988 43.8127 52.9991C43.7352 52.9991 43.7352 52.9991 43.6561 52.9991C43.4464 52.9992 43.2366 52.9993 43.0268 52.9993C41.0588 53 39.0909 52.9994 37.1229 52.9982C35.3744 52.9971 33.6258 52.9972 31.8773 52.9983C29.9129 52.9995 27.9486 53 25.9842 52.9993C25.7748 52.9992 25.5654 52.9991 25.356 52.9991C25.3044 52.999 25.2529 52.999 25.1998 52.999C24.4211 52.9988 23.6424 52.9991 22.8637 52.9996C21.9783 53.0003 21.093 53.0001 20.2076 52.9989C19.7557 52.9983 19.3038 52.9981 18.852 52.9988C18.4385 52.9995 18.025 52.9991 17.6116 52.9979C17.4618 52.9976 17.312 52.9978 17.1623 52.9983C16.959 52.999 16.7558 52.9983 16.5525 52.9972C16.4649 52.9981 16.4649 52.998 16.3755 52.9989C15.9882 52.9948 15.7182 52.9209 15.3736 52.7408C15.1154 52.444 15.1113 52.1418 15.1129 51.7641C15.1125 51.707 15.1121 51.65 15.1117 51.5913C15.1112 51.471 15.1113 51.3507 15.1119 51.2304C15.1126 51.0479 15.1104 50.8656 15.108 50.6831C15.1047 49.9615 15.1434 49.4601 15.6251 48.8872C16.3112 48.3128 16.8837 48.3367 17.8034 48.3367C17.8034 43.1498 17.8034 37.9629 17.8034 32.6188C17.5779 32.5687 17.3524 32.5186 17.12 32.467C16.2347 32.0569 15.6347 31.3757 15.2882 30.4747C14.7141 28.6629 15.0404 26.8798 15.8888 25.2348C16.2984 24.4592 16.7142 23.6851 17.1781 22.9403C17.6861 22.1007 17.7404 21.3911 17.7133 20.4223C17.7097 20.2198 17.7072 20.0173 17.7063 19.8148C17.7056 19.6902 17.7033 19.5657 17.699 19.4413C17.6937 19.0127 17.784 18.7718 18.0312 18.4196C18.3525 18.1704 18.6136 18.0321 19.0202 18.0265ZM18.7146 22.6718C18.2624 23.531 17.8119 24.3886 17.3789 25.2573C17.2979 25.4197 17.2165 25.582 17.1352 25.7443C17.0832 25.8482 17.0313 25.9521 16.9794 26.0561C16.9552 26.1043 16.9311 26.1525 16.9061 26.2022C16.7899 26.4019 16.7899 26.4019 16.7404 26.6202C18.0434 26.6202 19.3464 26.6202 20.6888 26.6202C21.0074 25.8011 21.324 24.9851 21.6173 24.1572C21.6727 24.0011 21.7287 23.8454 21.7847 23.6896C21.8203 23.5893 21.856 23.489 21.8916 23.3887C21.9232 23.2999 21.9548 23.2112 21.9874 23.1198C22.0668 22.9017 22.0668 22.9017 22.0556 22.6718C20.9531 22.6718 19.8505 22.6718 18.7146 22.6718ZM23.4224 22.6718C23.1942 23.2193 22.9715 23.7596 22.7731 24.317C22.75 24.3813 22.727 24.4456 22.7032 24.5118C22.6553 24.6454 22.6076 24.779 22.5599 24.9127C22.4865 25.1184 22.4128 25.3239 22.339 25.5294C22.2923 25.66 22.2456 25.7905 22.1989 25.9211C22.1768 25.9826 22.1547 26.0442 22.132 26.1076C22.0264 26.3581 22.0264 26.3581 21.9797 26.6202C23.3077 26.6202 24.6358 26.6202 26.0041 26.6202C26.1979 25.8449 26.3875 25.0724 26.5578 24.2922C26.5932 24.1303 26.6292 23.9684 26.6652 23.8066C26.6881 23.7024 26.7109 23.5982 26.7337 23.494C26.7541 23.4015 26.7744 23.309 26.7953 23.2137C26.8485 22.9661 26.8485 22.9661 26.8393 22.6718C25.7117 22.6718 24.5841 22.6718 23.4224 22.6718ZM28.1302 22.6718C28.0389 22.9455 27.9581 23.19 27.8983 23.467C27.8847 23.5298 27.871 23.5927 27.8569 23.6574C27.8427 23.7239 27.8286 23.7903 27.814 23.8588C27.799 23.9282 27.7841 23.9976 27.7687 24.0692C27.7373 24.2153 27.706 24.3614 27.6749 24.5076C27.6271 24.7313 27.5788 24.9548 27.5304 25.1784C27.4999 25.3207 27.4695 25.4629 27.4391 25.6052C27.4246 25.672 27.4101 25.7387 27.3952 25.8075C27.3754 25.9011 27.3754 25.9011 27.3552 25.9965C27.3377 26.0784 27.3377 26.0784 27.3198 26.162C27.2868 26.3404 27.2868 26.3404 27.2949 26.6202C28.623 26.6202 29.951 26.6202 31.3193 26.6202C31.4138 25.6755 31.5018 24.7384 31.5566 23.7918C31.5785 23.4222 31.6004 23.0526 31.623 22.6718C30.4704 22.6718 29.3177 22.6718 28.1302 22.6718ZM32.8379 22.6718C32.7885 22.9191 32.75 23.1341 32.7325 23.3812C32.7256 23.4751 32.7256 23.4751 32.7187 23.5709C32.7141 23.6375 32.7095 23.7041 32.7048 23.7728C32.6998 23.8421 32.6949 23.9115 32.6898 23.9829C32.6794 24.1292 32.6691 24.2755 32.659 24.4218C32.6434 24.6452 32.6275 24.8687 32.6115 25.0921C32.6014 25.2345 32.5914 25.3768 32.5814 25.5192C32.5766 25.5858 32.5719 25.6524 32.567 25.721C32.5627 25.7836 32.5584 25.8462 32.5539 25.9107C32.5501 25.9654 32.5463 26.0201 32.5423 26.0764C32.5334 26.2575 32.5342 26.4389 32.5342 26.6202C33.8873 26.6202 35.2404 26.6202 36.6345 26.6202C36.611 26.2287 36.5875 25.8372 36.5633 25.4338C36.5561 25.3126 36.5489 25.1915 36.5414 25.0667C36.5223 24.7493 36.5027 24.4318 36.4827 24.1145C36.4795 24.0632 36.4762 24.0118 36.4729 23.959C36.4637 23.814 36.4541 23.6691 36.4444 23.5242C36.4362 23.4007 36.4362 23.4007 36.4279 23.2747C36.408 23.0238 36.408 23.0238 36.3308 22.6718C35.1782 22.6718 34.0255 22.6718 32.8379 22.6718ZM37.5457 22.6718C37.5764 23.1609 37.6075 23.65 37.6389 24.139C37.6495 24.3053 37.66 24.4716 37.6705 24.6379C37.6855 24.8773 37.7009 25.1167 37.7163 25.3561C37.7209 25.4301 37.7254 25.5042 37.7302 25.5805C37.7347 25.6504 37.7393 25.7203 37.744 25.7923C37.7479 25.8533 37.7517 25.9143 37.7557 25.9772C37.7762 26.1929 37.8138 26.4066 37.8494 26.6202C39.1775 26.6202 40.5055 26.6202 41.8738 26.6202C41.8182 26.0877 41.8182 26.0877 41.7278 25.5677C41.7143 25.5041 41.7009 25.4406 41.6871 25.3751C41.6727 25.3091 41.6584 25.2431 41.6437 25.1751C41.6288 25.1055 41.6139 25.0359 41.5986 24.9641C41.5673 24.8183 41.5359 24.6726 41.5044 24.5269C41.4559 24.3029 41.4081 24.0788 41.3604 23.8546C41.3299 23.7126 41.2993 23.5707 41.2688 23.4287C41.2544 23.3615 41.2401 23.2943 41.2254 23.225C41.1832 22.9239 41.1832 22.9239 41.0386 22.6718C40.929 22.6647 40.8191 22.6628 40.7093 22.6631C40.6394 22.6631 40.5695 22.6631 40.4974 22.6632C40.3834 22.6637 40.3834 22.6637 40.2671 22.6643C40.151 22.6645 40.151 22.6645 40.0325 22.6647C39.7841 22.6651 39.5358 22.666 39.2874 22.667C39.1195 22.6674 38.9515 22.6677 38.7836 22.6681C38.371 22.6689 37.9583 22.6702 37.5457 22.6718ZM42.3294 22.6718C42.3802 23.132 42.4617 23.5784 42.5596 24.0308C42.5745 24.1004 42.5894 24.17 42.6047 24.2416C42.636 24.3875 42.6674 24.5334 42.6989 24.6792C42.7472 24.9031 42.7951 25.1271 42.8429 25.351C42.8734 25.4931 42.9039 25.6352 42.9345 25.7773C42.9488 25.8443 42.9631 25.9114 42.9779 25.9805C42.9913 26.0424 43.0048 26.1042 43.0186 26.168C43.0303 26.2225 43.0421 26.277 43.0542 26.3331C43.0853 26.475 43.0853 26.475 43.1647 26.6202C44.4927 26.6202 45.8208 26.6202 47.1891 26.6202C46.7411 25.2729 46.7411 25.2729 46.2648 23.9363C46.2095 23.7864 46.1547 23.6363 46.0999 23.4862C46.0646 23.3899 46.0292 23.2936 45.9937 23.1973C45.9469 23.07 45.9469 23.07 45.8992 22.9401C45.8401 22.7555 45.8401 22.7555 45.7464 22.6718C45.6391 22.6647 45.5315 22.6628 45.4241 22.6631C45.3215 22.6631 45.3215 22.6631 45.2168 22.6632C45.1053 22.6637 45.1053 22.6637 44.9915 22.6643C44.9158 22.6645 44.84 22.6646 44.762 22.6647C44.519 22.6651 44.2761 22.666 44.0331 22.667C43.8689 22.6674 43.7046 22.6677 43.5403 22.6681C43.1367 22.6689 42.7331 22.6702 42.3294 22.6718ZM47.1131 22.6718C47.2129 23.1659 47.3504 23.6256 47.5263 24.0976C47.5512 24.1653 47.5761 24.2331 47.6017 24.3029C47.6805 24.5171 47.7599 24.731 47.8392 24.945C47.8928 25.0905 47.9463 25.2361 47.9998 25.3817C48.0974 25.6466 48.195 25.9115 48.2932 26.1762C48.3226 26.2555 48.3226 26.2555 48.3526 26.3365C48.4037 26.4736 48.4037 26.4736 48.4799 26.6202C49.7829 26.6202 51.0859 26.6202 52.4284 26.6202C52.0182 25.7543 51.608 24.8909 51.1785 24.0347C51.0972 23.8725 51.0162 23.7101 50.9352 23.5476C50.8833 23.4437 50.8312 23.3398 50.7792 23.2359C50.7552 23.1877 50.7311 23.1394 50.7064 23.0898C50.6023 22.8658 50.6023 22.8658 50.4541 22.6718C50.3492 22.6647 50.244 22.6628 50.1388 22.6631C50.0719 22.6631 50.0051 22.6631 49.9361 22.6632C49.8271 22.6637 49.8271 22.6637 49.7159 22.6643C49.6048 22.6645 49.6048 22.6645 49.4915 22.6647C49.254 22.6651 49.0164 22.666 48.7789 22.667C48.6183 22.6674 48.4577 22.6677 48.297 22.6681C47.9024 22.6689 47.5078 22.6702 47.1131 22.6718ZM16.3607 27.8351C16.2656 29.6103 16.2656 29.6103 17.0491 30.9691C17.4663 31.3416 17.9804 31.5103 18.5366 31.5009C19.1246 31.4313 19.7031 31.1845 20.0814 30.7205C20.675 29.7574 20.537 29.0735 20.537 27.8351C19.1588 27.8351 17.7806 27.8351 16.3607 27.8351ZM21.7519 27.8351C21.6297 29.5138 21.6297 29.5138 22.3024 30.8629C22.762 31.282 23.3024 31.5106 23.9275 31.5012C24.4924 31.4335 25.0053 31.2065 25.3966 30.7965C26.0865 29.9177 25.9281 28.9452 25.9281 27.8351C24.55 27.8351 23.1718 27.8351 21.7519 27.8351ZM27.143 27.8351C27.0047 29.5458 27.0047 29.5458 27.6852 30.8436C28.178 31.2679 28.6613 31.5351 29.3317 31.5069C30.0193 31.3945 30.5425 31.1191 30.9539 30.5592C31.4985 29.7976 31.3193 28.6846 31.3193 27.8351C29.9411 27.8351 28.563 27.8351 27.143 27.8351ZM32.5342 27.8351C32.3959 29.5565 32.3959 29.5565 33.099 30.8629C33.5934 31.2729 34.0572 31.5222 34.7175 31.5042C35.2137 31.4334 35.7598 31.2451 36.103 30.8724C36.8363 29.7788 36.6345 29.5071 36.6345 27.8351C35.2814 27.8351 33.9283 27.8351 32.5342 27.8351ZM37.8494 27.8351C37.7662 29.4374 37.7662 29.4374 38.4011 30.8205C38.8464 31.2527 39.3487 31.4538 39.966 31.5036C40.6342 31.4779 41.055 31.2123 41.5502 30.7769C42.3063 29.8603 42.0257 29.0824 42.0257 27.8351C40.6475 27.8351 39.2694 27.8351 37.8494 27.8351ZM43.2406 27.8351C43.1571 29.4926 43.1571 29.4926 43.8481 30.8724C44.3358 31.2874 44.8593 31.5227 45.5114 31.4977C46.1109 31.4306 46.4899 31.1747 46.9414 30.7843C47.6674 29.8728 47.4169 29.0107 47.4169 27.8351C46.0387 27.8351 44.6605 27.8351 43.2406 27.8351ZM48.6318 27.8351C48.5442 29.5402 48.5442 29.5402 49.3152 30.9483C49.7844 31.3232 50.2987 31.5168 50.9065 31.4991C51.5494 31.4192 52.0514 31.0524 52.4743 30.5817C53.0446 29.6936 52.808 28.9623 52.808 27.8351C51.4299 27.8351 50.0517 27.8351 48.6318 27.8351ZM21.0685 31.328C21.0184 31.3938 20.9683 31.4595 20.9166 31.5273C20.4144 32.1337 19.7517 32.3368 19.0183 32.6188C19.0183 37.8057 19.0183 42.9927 19.0183 48.3367C19.3441 48.3367 19.6698 48.3367 20.0054 48.3367C20.0059 48.1749 20.0063 48.0131 20.0068 47.8464C20.0111 46.3234 20.0166 44.8005 20.0233 43.2776C20.0268 42.4946 20.0298 41.7115 20.0318 40.9285C20.0335 40.2461 20.036 39.5637 20.0395 38.8813C20.0413 38.5199 20.0428 38.1586 20.0432 37.7972C20.0437 37.4571 20.0452 37.117 20.0475 36.7769C20.0482 36.652 20.0485 36.5272 20.0483 36.4023C20.0482 36.2318 20.0495 36.0614 20.0511 35.891C20.0515 35.7956 20.0518 35.7002 20.0522 35.6019C20.0839 35.3307 20.1457 35.1891 20.3092 34.9727C20.6887 34.7119 21.0348 34.7119 21.4784 34.7142C21.5488 34.7137 21.6193 34.7132 21.6918 34.7127C21.9238 34.7113 22.1558 34.7116 22.3878 34.712C22.5495 34.7117 22.7112 34.7113 22.8729 34.7108C23.2114 34.7101 23.55 34.7103 23.8885 34.7111C24.3221 34.7119 24.7556 34.7104 25.1891 34.7082C25.5229 34.7068 25.8567 34.7068 26.1905 34.7072C26.3503 34.7073 26.5102 34.7068 26.67 34.7059C26.8936 34.7047 27.117 34.7055 27.3406 34.7068C27.4064 34.7061 27.4722 34.7054 27.54 34.7046C27.9481 34.7096 28.1909 34.7698 28.5098 35.0487C28.6905 35.3182 28.6814 35.5629 28.6828 35.8818C28.6835 35.9616 28.6835 35.9616 28.6842 36.0429C28.6855 36.2215 28.6857 36.4002 28.6859 36.5788C28.6866 36.7088 28.6874 36.8389 28.6882 36.9689C28.6903 37.3174 28.6915 37.6658 28.6924 38.0143C28.6935 38.3411 28.6954 38.668 28.6972 38.9949C28.702 39.9511 28.7055 40.9073 28.7091 41.8635C28.7185 43.9997 28.7279 46.1359 28.7376 48.3367C35.8038 48.3367 42.8701 48.3367 50.1504 48.3367C50.1504 43.1498 50.1504 37.9629 50.1504 32.6188C49.8247 32.4935 49.4989 32.3683 49.1633 32.2392C48.8975 32.0826 48.8975 32.0826 48.7077 31.9354C48.6419 31.8853 48.5762 31.8352 48.5084 31.7836C48.3372 31.6394 48.1815 31.4871 48.0243 31.328C47.9856 31.372 47.9468 31.4161 47.9069 31.4615C47.2889 32.1255 46.5229 32.5745 45.6067 32.6325C44.5696 32.656 43.7473 32.367 42.9701 31.6617C42.8566 31.5516 42.7445 31.4403 42.6332 31.328C42.5944 31.372 42.5556 31.4161 42.5157 31.4615C41.8271 32.2014 41.0065 32.6052 39.9993 32.6473C38.8934 32.6263 37.9934 32.1072 37.242 31.328C37.1966 31.3922 37.1512 31.4564 37.1044 31.5226C36.5371 32.1947 35.6648 32.5408 34.8095 32.6476C33.8781 32.6856 33.0345 32.3526 32.3064 31.7836C32.1598 31.6376 32.0466 31.4975 31.9268 31.328C31.8766 31.3812 31.8265 31.4345 31.7749 31.4894C31.0775 32.177 30.2223 32.6167 29.2312 32.6426C28.2481 32.6317 27.4483 32.2466 26.7586 31.5653C26.6837 31.4868 26.6091 31.4079 26.5356 31.328C26.4855 31.3812 26.4354 31.4345 26.3837 31.4894C25.8193 32.0474 25.0721 32.569 24.2576 32.6188C24.1932 32.6235 24.1288 32.6282 24.0625 32.6331C23.1741 32.6702 22.3646 32.4289 21.6759 31.8595C21.5269 31.7198 21.3836 31.5775 21.2441 31.4282C21.2112 31.3952 21.1783 31.3621 21.1444 31.328C21.1194 31.328 21.0943 31.328 21.0685 31.328ZM21.2204 35.8839C21.2204 39.9933 21.2204 44.1028 21.2204 48.3367C23.3001 48.3367 25.3799 48.3367 27.5227 48.3367C27.5227 44.2273 27.5227 40.1179 27.5227 35.8839C25.4429 35.8839 23.3632 35.8839 21.2204 35.8839ZM16.3607 49.9313C16.2133 50.5211 16.2848 51.1457 16.2848 51.7537C28.3625 51.7537 40.4402 51.7537 52.884 51.7537C52.9936 50.6595 52.9936 50.6595 52.6229 49.7225C52.3482 49.5027 52.0296 49.5409 51.6969 49.5417C51.637 49.5415 51.5771 49.5414 51.5154 49.5412C51.3131 49.5408 51.1107 49.5409 50.9083 49.541C50.7625 49.5408 50.6166 49.5406 50.4707 49.5403C50.0685 49.5397 49.6663 49.5396 49.2641 49.5395C48.8309 49.5394 48.3977 49.5388 47.9644 49.5383C47.0165 49.5372 46.0687 49.5368 45.1208 49.5364C44.5293 49.5362 43.9379 49.5359 43.3464 49.5356C41.7099 49.5346 40.0734 49.5339 38.4369 49.5336C38.331 49.5336 38.2252 49.5336 38.1193 49.5336C38.0132 49.5335 37.9071 49.5335 37.801 49.5335C37.5881 49.5335 37.3753 49.5334 37.1624 49.5334C37.1096 49.5334 37.0568 49.5334 37.0024 49.5334C35.2904 49.5331 33.5784 49.5319 31.8664 49.5301C30.057 49.5283 28.2476 49.5272 26.4382 49.5271C25.4516 49.5271 24.465 49.5266 23.4784 49.5252C22.6385 49.5241 21.7986 49.5237 20.9587 49.5243C20.5299 49.5246 20.1011 49.5245 19.6723 49.5235C19.2801 49.5225 18.8879 49.5226 18.4957 49.5235C18.3535 49.5237 18.2113 49.5234 18.0691 49.5228C17.8763 49.5219 17.6837 49.5225 17.4909 49.5234C17.4352 49.5228 17.3795 49.5223 17.3221 49.5217C16.8977 49.526 16.6576 49.6344 16.3607 49.9313Z" fill="black"/>
<path d="M30.9466 34.6581C31.0097 34.6576 31.0728 34.6572 31.1379 34.6568C31.2069 34.6567 31.2759 34.6566 31.3469 34.6565C31.4562 34.6559 31.4562 34.6559 31.5677 34.6554C31.8091 34.6543 32.0505 34.6537 32.2918 34.6533C32.4593 34.6529 32.6268 34.6524 32.7943 34.652C33.1455 34.6512 33.4968 34.6508 33.8481 34.6505C34.2986 34.6501 34.7491 34.6483 35.1996 34.6461C35.5455 34.6447 35.8915 34.6443 36.2374 34.6442C36.4036 34.6439 36.5697 34.6433 36.7358 34.6423C36.9679 34.641 37.2 34.6412 37.4322 34.6417C37.501 34.641 37.5699 34.6403 37.6408 34.6396C38.1038 34.6426 38.1038 34.6426 38.3456 34.7707C38.5126 34.9597 38.5278 35.1027 38.5328 35.3521C38.4439 35.5578 38.3687 35.6858 38.1863 35.8173C37.9059 35.9178 37.6266 35.9034 37.3325 35.9009C37.2639 35.9009 37.1954 35.9009 37.1248 35.9009C36.9032 35.9008 36.6816 35.8997 36.4601 35.8985C36.3232 35.8983 36.1863 35.8981 36.0494 35.898C35.542 35.8972 35.0347 35.8951 34.5274 35.8931C33.3935 35.89 32.2596 35.8869 31.0914 35.8836C31.0914 38.8154 31.0914 41.7471 31.0914 44.7677C36.4788 44.7677 41.8662 44.7677 47.4168 44.7677C47.4168 41.8359 47.4168 38.9042 47.4168 35.8836C45.1599 35.8897 45.1599 35.8897 42.9029 35.8973C42.466 35.898 42.466 35.898 42.2614 35.8981C42.1187 35.8984 41.9761 35.8989 41.8334 35.8997C41.617 35.9008 41.4007 35.9009 41.1844 35.9009C41.121 35.9014 41.0577 35.902 40.9924 35.9025C40.6714 35.9014 40.417 35.8876 40.1273 35.7318C39.9628 35.5298 39.9758 35.4213 39.9897 35.1575C40.052 34.894 40.0733 34.8268 40.2792 34.6687C40.4243 34.6399 40.4243 34.6399 40.5913 34.6393C40.6547 34.6385 40.7181 34.6378 40.7835 34.637C40.8529 34.6374 40.9222 34.6377 40.9936 34.6381C41.0669 34.6375 41.1401 34.637 41.2156 34.6365C41.4583 34.6351 41.701 34.6354 41.9438 34.6358C42.1124 34.6355 42.281 34.6351 42.4497 34.6346C42.8036 34.6339 43.1575 34.6341 43.5113 34.6349C43.9644 34.6357 44.4174 34.6342 44.8704 34.632C45.219 34.6306 45.5674 34.6306 45.916 34.6311C46.0829 34.6311 46.2499 34.6306 46.4169 34.6297C46.6509 34.6285 46.8847 34.6293 47.1186 34.6306C47.2217 34.6295 47.2217 34.6295 47.3269 34.6284C47.7736 34.6336 48.0452 34.6984 48.4039 34.9725C48.7208 35.3824 48.6643 35.8768 48.6624 36.3717C48.6629 36.4666 48.6634 36.5615 48.664 36.6592C48.6651 36.9186 48.6652 37.1778 48.6648 37.4372C48.6646 37.654 48.665 37.8708 48.6655 38.0876C48.6666 38.5992 48.6664 39.1108 48.6656 39.6224C48.6647 40.1495 48.6658 40.6767 48.6678 41.2039C48.6695 41.6571 48.67 42.1104 48.6695 42.5637C48.6693 42.8341 48.6695 43.1046 48.6708 43.375C48.6722 43.6765 48.6711 43.9781 48.6698 44.2796C48.6709 44.4135 48.6709 44.4135 48.672 44.55C48.6677 45.0252 48.6507 45.3194 48.328 45.6789C47.9562 46.0056 47.5989 45.9939 47.124 45.9938C47.0544 45.994 46.9849 45.9943 46.9132 45.9946C46.679 45.9955 46.4449 45.9957 46.2107 45.996C46.0432 45.9965 45.8757 45.997 45.7082 45.9975C45.2525 45.9989 44.7967 45.9997 44.341 46.0003C44.0563 46.0007 43.7717 46.0011 43.4871 46.0016C42.6989 46.0029 41.9108 46.004 41.1226 46.0046C40.9181 46.0047 40.7136 46.0049 40.5091 46.005C40.4329 46.0051 40.4329 46.0051 40.3551 46.0051C39.5318 46.0057 38.7085 46.0077 37.8852 46.0101C37.0397 46.0126 36.1943 46.014 35.3489 46.0143C34.8742 46.0144 34.3996 46.0151 33.925 46.017C33.4785 46.0188 33.0321 46.0191 32.5856 46.0183C32.4217 46.0183 32.2579 46.0188 32.094 46.0198C31.8702 46.0212 31.6465 46.0206 31.4228 46.0196C31.358 46.0205 31.2932 46.0213 31.2265 46.0221C30.7912 46.0175 30.5395 45.9275 30.1803 45.6789C29.9173 45.3896 29.8671 45.1373 29.8653 44.754C29.8648 44.6726 29.8643 44.5912 29.8637 44.5073C29.8635 44.4179 29.8633 44.3286 29.8631 44.2365C29.8626 44.1424 29.8621 44.0483 29.8616 43.9514C29.8601 43.6392 29.8592 43.3271 29.8584 43.015C29.8581 42.9075 29.8578 42.8 29.8575 42.6924C29.856 42.1873 29.855 41.6821 29.8543 41.1769C29.8536 40.5941 29.8516 40.0114 29.8485 39.4286C29.8462 38.9779 29.8451 38.5272 29.8449 38.0765C29.8447 37.8074 29.844 37.5383 29.8421 37.2692C29.84 36.9689 29.8403 36.6687 29.8408 36.3684C29.8399 36.2795 29.8389 36.1906 29.8379 36.099C29.8409 35.6229 29.8602 35.3344 30.1803 34.9725C30.2194 34.927 30.2586 34.8816 30.2989 34.8348C30.4991 34.6695 30.6983 34.6591 30.9466 34.6581Z" fill="black"/>
<path d="M26.3079 40.8194C26.474 40.9238 26.474 40.9238 26.6117 41.1232C26.6571 41.3895 26.654 41.6508 26.6496 41.9205C26.6508 41.9926 26.652 42.0647 26.6532 42.1391C26.6502 42.6619 26.6502 42.6619 26.474 42.9171C26.2284 43.0714 26.0601 43.062 25.7764 43.0215C25.6103 42.9171 25.6103 42.9171 25.4727 42.7177C25.4272 42.4514 25.4303 42.1901 25.4347 41.9205C25.4335 41.8483 25.4324 41.7762 25.4312 41.7019C25.4341 41.1791 25.4341 41.1791 25.6103 40.9238C25.8559 40.7695 26.0243 40.7789 26.3079 40.8194Z" fill="black"/>
</svg>
