<svg width="70" height="70" viewBox="0 0 70 70" fill="none" xmlns="http://www.w3.org/2000/svg">
<circle cx="35" cy="35" r="35" fill="#FFE8AF"/>
<path d="M45.2217 22.0474C45.2944 22.1042 45.3671 22.161 45.4421 22.2196C45.9502 22.6243 46.4083 23.0641 46.8603 23.5299C46.924 23.5937 46.9878 23.6575 47.0535 23.7232C50.1177 26.7874 51.6873 31.0209 51.7176 35.322C51.6856 39.8309 49.7775 43.9283 46.6262 47.0945C46.5865 47.1345 46.5468 47.1745 46.506 47.2157C43.6028 50.1022 39.3876 51.6884 35.3267 51.7177C31.692 51.6952 28.1533 50.636 25.2464 48.421C25.1778 48.369 25.1092 48.317 25.0385 48.2634C24.5093 47.851 24.0166 47.3994 23.5298 46.9385C23.4571 46.8701 23.3845 46.8017 23.3097 46.7312C22.455 45.9033 21.764 44.9622 21.1254 43.9618C21.0654 43.8681 21.0047 43.7748 20.9433 43.682C19.7728 41.9115 19.0702 39.7456 18.77 37.6531C18.7621 37.6003 18.7542 37.5475 18.746 37.4931C18.4913 35.7406 18.5191 33.9303 18.8481 32.1911C18.8681 32.0848 18.8681 32.0848 18.8886 31.9764C19.4092 29.3167 20.5427 26.6598 22.3593 24.6223C22.4188 24.5553 22.4782 24.4883 22.5395 24.4193C22.6577 24.2873 22.7766 24.1558 22.8961 24.0249C23.0474 23.8577 23.1937 23.6873 23.3396 23.5153C23.613 23.2025 23.914 22.938 24.232 22.6716C24.2975 22.614 24.363 22.5563 24.4304 22.497C25.1012 21.9169 25.8243 21.429 26.5729 20.955C26.6251 20.9217 26.6774 20.8884 26.7312 20.8541C27.7338 20.2221 27.7338 20.2221 28.3675 20.2527C28.5626 20.3259 28.5626 20.3259 28.6796 20.4868C28.7542 20.7013 28.8008 20.8867 28.7577 21.111C28.4605 21.4827 28.0798 21.6813 27.6701 21.906C25.5996 23.0756 23.8374 24.668 22.5154 26.6511C24.7813 26.6768 27.0473 26.7026 29.3819 26.7291C29.4334 26.6003 29.4849 26.4716 29.538 26.3389C29.6271 26.1796 29.7194 26.0219 29.8138 25.8656C29.8411 25.8201 29.8685 25.7747 29.8966 25.7278C29.9865 25.5786 30.0768 25.4297 30.1671 25.2807C30.2304 25.1758 30.2936 25.0709 30.3569 24.966C30.5517 24.6431 30.747 24.3206 30.9425 23.9981C31.0019 23.8999 31.0614 23.8017 31.1209 23.7034C31.5027 23.0729 31.8857 22.443 32.269 21.8133C32.3236 21.7235 32.3782 21.6337 32.4328 21.544C32.7422 21.0355 33.0517 20.527 33.3614 20.0186C33.313 20.0277 33.2647 20.0367 33.2149 20.0461C32.9923 20.0876 32.7696 20.1287 32.5469 20.1698C32.4709 20.1841 32.3949 20.1983 32.3167 20.2129C31.0233 20.4509 31.0233 20.4509 30.7084 20.2869C30.5184 20.0553 30.4743 19.9276 30.4743 19.6285C30.5426 19.4188 30.5426 19.4188 30.7084 19.2384C31.1976 19.0182 31.7342 18.93 32.2592 18.8385C32.3307 18.8253 32.4022 18.8121 32.4759 18.7985C36.9313 18.0027 41.6919 19.2347 45.2217 22.0474ZM34.9999 19.8626C34.8863 20.0227 34.7841 20.1823 34.683 20.3503C34.6327 20.4321 34.6327 20.4321 34.5815 20.5157C34.4603 20.7138 34.34 20.9124 34.2197 21.111C34.1197 21.2752 34.0197 21.4394 33.9197 21.6036C33.6656 22.0213 33.412 22.4394 33.1587 22.8576C32.9519 23.199 32.7448 23.5402 32.5375 23.8814C32.2136 24.4143 31.89 24.9474 31.5667 25.4806C31.5251 25.5491 31.4836 25.6176 31.4408 25.6881C31.3379 25.8578 31.2352 26.0276 31.1327 26.1975C31.0795 26.2855 31.0262 26.3735 30.9714 26.4642C30.858 26.6265 30.858 26.6265 30.8644 26.7291C33.6454 26.7291 36.4263 26.7291 39.2915 26.7291C38.8848 26.0174 38.475 25.3116 38.0479 24.6126C37.9907 24.5186 37.9334 24.4245 37.8761 24.3305C37.7575 24.1356 37.6388 23.9408 37.52 23.746C37.3141 23.4081 37.1088 23.0699 36.9036 22.7315C36.763 22.4998 36.6224 22.2681 36.4816 22.0366C36.235 21.6311 35.989 21.2254 35.7458 20.8178C35.7058 20.7512 35.6658 20.6846 35.6246 20.6159C35.5517 20.4945 35.4793 20.3727 35.4074 20.2507C35.3278 20.1187 35.2426 19.9901 35.156 19.8626C35.1045 19.8626 35.053 19.8626 34.9999 19.8626ZM36.7166 19.9406C36.8267 20.239 36.9654 20.499 37.1314 20.77C37.1839 20.856 37.2364 20.9421 37.2905 21.0308C37.3479 21.1242 37.4053 21.2176 37.4627 21.311C37.5224 21.4086 37.5821 21.5063 37.6418 21.604C37.7658 21.807 37.8899 22.01 38.0141 22.2128C38.1895 22.4995 38.364 22.7868 38.5381 23.0742C38.5658 23.12 38.5935 23.1658 38.6221 23.213C38.7519 23.4273 38.8817 23.6416 39.0114 23.8559C39.0871 23.9807 39.163 24.1054 39.2442 24.2268C39.4516 24.5446 39.5872 24.8587 39.7185 25.2152C39.9587 25.7938 40.2177 26.3923 40.7741 26.7291C41.7974 27.1014 43.051 26.9277 44.1152 26.8684C44.5303 26.8475 44.9457 26.8383 45.3613 26.8281C46.1737 26.8065 46.985 26.772 47.7966 26.7291C47.6686 26.3882 47.4961 26.1245 47.2699 25.8415C47.2326 25.7945 47.1952 25.7474 47.1567 25.699C44.6834 22.6335 41.1628 20.5122 37.232 19.983C37.0605 19.965 36.8886 19.9519 36.7166 19.9406ZM21.6571 27.9775C21.5549 28.198 21.5549 28.198 21.6388 28.353C21.6715 28.4057 21.7042 28.4584 21.7378 28.5128C21.7931 28.6033 21.7931 28.6033 21.8495 28.6957C21.8906 28.7613 21.9317 28.8268 21.9741 28.8944C22.0164 28.9633 22.0587 29.0322 22.1023 29.1032C22.193 29.2509 22.284 29.3984 22.3753 29.5457C22.5575 29.8403 22.7372 30.1364 22.9168 30.4325C23.0529 30.6567 23.1893 30.8806 23.3259 31.1045C23.62 31.5868 23.9139 32.0694 24.2076 32.552C24.2535 32.6273 24.2994 32.7027 24.3467 32.7804C24.3896 32.8508 24.4326 32.9213 24.4768 32.9939C24.5144 33.0556 24.5519 33.1174 24.5907 33.181C24.7058 33.3708 24.8202 33.5612 24.9343 33.7517C25.2141 33.6584 25.2328 33.6021 25.3747 33.3536C25.4337 33.2517 25.4337 33.2517 25.494 33.1478C25.5362 33.0735 25.5784 32.9992 25.6219 32.9226C25.7136 32.7642 25.8055 32.606 25.8974 32.4477C25.9683 32.3253 25.9683 32.3253 26.0407 32.2003C26.2605 31.8237 26.487 31.4513 26.7143 31.0792C26.7584 31.0068 26.8025 30.9344 26.8479 30.8598C27.0749 30.4878 27.3031 30.1166 27.533 29.7464C27.6496 29.5587 27.766 29.3708 27.8824 29.1829C27.9664 29.0476 28.0508 28.9125 28.1352 28.7774C28.1859 28.6956 28.2366 28.6138 28.2889 28.5295C28.3342 28.4568 28.3796 28.384 28.4263 28.3091C28.5362 28.1443 28.5362 28.1443 28.5236 27.9775C26.2576 27.9775 23.9917 27.9775 21.6571 27.9775ZM29.6999 28.5059C29.6584 28.592 29.6584 28.592 29.616 28.6798C29.5398 28.8014 29.5398 28.8014 29.4621 28.9254C29.4174 28.9994 29.3728 29.0733 29.3267 29.1495C29.2752 29.2346 29.2237 29.3196 29.1706 29.4073C29.1159 29.498 29.0611 29.5888 29.0064 29.6795C28.9482 29.7757 28.89 29.8719 28.8318 29.9681C28.7111 30.1676 28.5904 30.3671 28.4698 30.5666C28.2689 30.8989 28.0672 31.2307 27.8653 31.5624C27.7275 31.7889 27.59 32.0154 27.4529 32.2423C27.205 32.6526 26.956 33.0621 26.7009 33.4681C26.6156 33.604 26.5309 33.7404 26.4464 33.8769C26.3413 34.0464 26.235 34.2153 26.1275 34.3834C26.0811 34.4589 26.0346 34.5343 25.9867 34.6121C25.9453 34.6779 25.9039 34.7437 25.8613 34.8114C25.7729 34.9988 25.7729 34.9988 25.8423 35.192C25.9585 35.4086 26.079 35.6198 26.2074 35.8295C26.2599 35.9155 26.3124 36.0016 26.3665 36.0902C26.4239 36.1836 26.4813 36.2771 26.5387 36.3705C26.5985 36.4683 26.6582 36.566 26.718 36.6639C26.842 36.867 26.9662 37.07 27.0905 37.273C27.3471 37.6924 27.602 38.1128 27.857 38.5332C27.9657 38.7124 28.0744 38.8916 28.1832 39.0707C28.4157 39.4536 28.6481 39.8365 28.8803 40.2195C29.0033 40.4223 29.1262 40.625 29.2492 40.8277C29.3079 40.9245 29.3667 41.0214 29.4254 41.1184C29.5066 41.2525 29.588 41.3866 29.6693 41.5207C29.7156 41.5971 29.7619 41.6735 29.8097 41.7522C29.8983 41.8962 29.9904 42.038 30.0842 42.1787C30.262 42.2198 30.262 42.2198 30.4732 42.2216C30.5967 42.2268 30.5967 42.2268 30.7227 42.2321C30.8134 42.2347 30.9042 42.2373 30.9977 42.24C31.1406 42.2453 31.1406 42.2453 31.2865 42.2507C32.169 42.2814 33.052 42.2985 33.9349 42.3112C34.528 42.3198 35.1204 42.3326 35.7131 42.3564C38.2746 42.6102 38.2746 42.6102 40.5439 41.8521C40.9544 41.3901 41.1555 40.8408 41.3207 40.2536C41.4213 39.9167 41.5783 39.6576 41.7768 39.3712C42.4445 38.2732 43.1082 37.1731 43.7682 36.0705C43.9664 35.7396 44.1649 35.4088 44.3634 35.0781C43.9603 34.3654 43.5467 33.6604 43.1198 32.9616C43.0624 32.8674 43.005 32.7732 42.9477 32.679C42.8587 32.533 42.7698 32.387 42.6807 32.241C42.4757 31.9047 42.2713 31.5681 42.0673 31.2313C42.0102 31.1369 41.953 31.0426 41.8959 30.9483C41.7904 30.7743 41.685 30.6002 41.5797 30.4261C41.4793 30.2607 41.3769 30.0966 41.2722 29.9338C41.1276 29.6998 41.0179 29.4625 40.9105 29.2094C40.5388 28.4 40.5388 28.4 39.8472 27.8837C39.2282 27.7465 38.5977 27.7671 37.9676 27.7883C37.6919 27.796 37.4161 27.7948 37.1403 27.7948C36.678 27.7961 36.216 27.8036 35.7538 27.8154C35.2203 27.8288 34.6872 27.8342 34.1535 27.8348C33.5832 27.8354 33.0131 27.8415 32.443 27.8494C32.2794 27.8514 32.1159 27.8524 31.9523 27.8532C31.6474 27.8551 31.3428 27.8631 31.038 27.8718C30.9479 27.8719 30.8578 27.8719 30.765 27.872C30.1994 27.8946 29.972 28.0007 29.6999 28.5059ZM41.5543 27.9775C41.652 28.1491 41.7497 28.3206 41.8474 28.492C41.8746 28.5399 41.9019 28.5877 41.9299 28.637C42.2102 29.1283 42.503 29.6114 42.7979 30.0941C42.884 30.2353 42.9701 30.3765 43.0561 30.5177C43.1153 30.6148 43.1746 30.7119 43.2338 30.8091C43.4487 31.1615 43.6621 31.5147 43.8751 31.8683C43.9649 32.0172 44.0548 32.1662 44.1447 32.3151C44.2022 32.4104 44.2596 32.5058 44.3168 32.6012C44.3968 32.7344 44.4772 32.8674 44.5575 33.0003C44.603 33.0759 44.6485 33.1515 44.6954 33.2294C44.8327 33.4414 44.9825 33.6353 45.1437 33.8297C45.1734 33.78 45.2031 33.7303 45.2338 33.6791C45.7749 32.7751 46.317 31.8717 46.8652 30.9719C46.9091 30.8997 46.953 30.8276 46.9983 30.7533C47.2366 30.3623 47.4755 29.9717 47.7149 29.5814C47.7905 29.4579 47.7905 29.4579 47.8676 29.332C47.9646 29.1735 48.0618 29.0152 48.1592 28.857C48.2243 28.7506 48.2243 28.7506 48.2907 28.642C48.3291 28.5795 48.3675 28.5169 48.4071 28.4525C48.5092 28.2834 48.5092 28.2834 48.5769 28.0556C48.3249 27.9296 48.0495 27.9675 47.7728 27.9687C47.7058 27.9687 47.6388 27.9687 47.5698 27.9687C47.3477 27.9687 47.1256 27.9693 46.9036 27.9699C46.7498 27.9701 46.5961 27.9702 46.4424 27.9703C46.0373 27.9706 45.6322 27.9713 45.2271 27.9722C44.8139 27.973 44.4007 27.9733 43.9876 27.9737C43.1765 27.9746 42.3654 27.9759 41.5543 27.9775ZM49.2011 29.5381C49.1042 29.6586 49.1042 29.6586 49.0106 29.8197C48.9722 29.8824 48.9338 29.9451 48.8942 30.0096C48.8523 30.0793 48.8103 30.149 48.7671 30.2209C48.7228 30.2934 48.6786 30.3659 48.633 30.4406C48.4837 30.6856 48.3352 30.9312 48.1868 31.1767C48.0501 31.4019 47.9135 31.627 47.7766 31.852C47.6357 32.084 47.4951 32.3162 47.3555 32.5489C47.0923 32.9866 46.8248 33.4194 46.5393 33.8431C46.4904 33.917 46.4416 33.991 46.3912 34.0671C46.3001 34.2041 46.207 34.3397 46.1117 34.4737C45.8932 34.789 45.8932 34.789 45.8739 35.1553C45.9547 35.3246 46.0509 35.4705 46.158 35.6243C46.2327 35.7496 46.307 35.8752 46.3808 36.0011C46.4673 36.1422 46.5539 36.2832 46.6408 36.4241C46.7382 36.583 46.8355 36.7419 46.9328 36.9008C46.9842 36.9846 47.0356 37.0683 47.0885 37.1546C47.373 37.6191 47.6555 38.0848 47.938 38.5504C47.9948 38.6439 48.0516 38.7374 48.1083 38.8308C48.5008 39.4773 48.8915 40.1248 49.2792 40.7742C50.7781 38.5258 50.6386 34.7824 50.1564 32.2548C49.9667 31.3279 49.6985 30.4202 49.3572 29.5381C49.3057 29.5381 49.2542 29.5381 49.2011 29.5381ZM20.8768 29.6161C20.2675 31.2556 19.9599 32.9438 19.8624 34.688C19.8577 34.772 19.853 34.856 19.8481 34.9425C19.8097 36.5263 20.0977 38.1253 20.5305 39.6428C20.546 39.6975 20.5614 39.7521 20.5773 39.8084C20.663 40.0936 20.7572 40.3156 20.9548 40.5401C21.4942 39.6866 22.0221 38.8261 22.544 37.9617C22.6012 37.867 22.6584 37.7722 22.7156 37.6775C22.7441 37.6304 22.7725 37.5832 22.8018 37.5347C22.974 37.2499 23.1482 36.9665 23.3242 36.684C23.4083 36.5487 23.492 36.4131 23.5756 36.2773C23.6795 36.1087 23.7843 35.9406 23.8901 35.7731C23.9595 35.6598 23.9595 35.6598 24.0302 35.5442C24.0712 35.4784 24.1122 35.4126 24.1545 35.3449C24.2498 35.1128 24.2302 35.0022 24.154 34.766C24.0548 34.5895 23.9528 34.4228 23.8419 34.254C23.7707 34.1429 23.6997 34.0318 23.6288 33.9205C23.5888 33.8577 23.5487 33.7948 23.5074 33.7301C23.2704 33.3534 23.041 32.9721 22.8108 32.5912C22.5569 32.1714 22.302 31.7521 22.0472 31.3328C21.9956 31.2478 21.944 31.1628 21.8908 31.0752C21.7499 30.8438 21.6085 30.6127 21.4669 30.3818C21.425 30.3128 21.383 30.2438 21.3398 30.1726C21.2822 30.079 21.2822 30.079 21.2233 29.9834C21.1901 29.9291 21.1569 29.8748 21.1226 29.8188C21.0387 29.682 21.0387 29.682 20.8768 29.6161ZM25.0123 36.3266C24.6328 36.8818 24.2818 37.4528 23.9345 38.0286C23.877 38.1238 23.8194 38.2189 23.7618 38.3141C23.6722 38.4622 23.5825 38.6104 23.4929 38.7586C23.2782 39.1138 23.0628 39.4687 22.847 39.8232C22.7867 39.9223 22.7265 40.0214 22.6662 40.1205C22.5795 40.2631 22.4927 40.4057 22.4059 40.5482C22.2336 40.8312 22.0621 41.1146 21.8912 41.3984C21.856 41.456 21.8209 41.5136 21.7847 41.5729C21.616 41.8551 21.616 41.8551 21.579 42.1787C23.8965 42.1787 26.2139 42.1787 28.6016 42.1787C28.1949 41.4671 27.7851 40.7612 27.358 40.0622C27.2719 39.921 27.1859 39.7798 27.0998 39.6386C27.0406 39.5415 26.9814 39.4443 26.9222 39.3472C26.7073 38.9948 26.4939 38.6415 26.2809 38.288C26.191 38.139 26.1011 37.9901 26.0112 37.8412C25.9538 37.7459 25.8964 37.6505 25.8391 37.5551C25.7591 37.4219 25.6788 37.2889 25.5984 37.156C25.5529 37.0804 25.5074 37.0048 25.4606 36.9269C25.3232 36.7149 25.1734 36.521 25.0123 36.3266ZM45.0656 36.3266C44.9844 36.4468 44.9072 36.5698 44.8315 36.6936C44.7823 36.7739 44.733 36.8542 44.6823 36.9369C44.628 37.0261 44.5737 37.1152 44.5194 37.2044C44.4633 37.2961 44.4072 37.3878 44.3511 37.4795C44.2027 37.7222 44.0547 37.9651 43.9068 38.2081C43.819 38.3523 43.7312 38.4965 43.6433 38.6407C43.2579 39.2732 42.874 39.9064 42.4907 40.5401C42.4414 40.6215 42.3922 40.7028 42.3414 40.7866C42.2073 41.0083 42.0734 41.2302 41.9396 41.4521C41.9001 41.5175 41.8605 41.5828 41.8197 41.6502C41.7844 41.709 41.749 41.7679 41.7125 41.8285C41.6817 41.8796 41.651 41.9306 41.6192 41.9833C41.5481 42.0897 41.5481 42.0897 41.5543 42.1787C43.8975 42.1787 46.2407 42.1787 48.6549 42.1787C48.392 41.6529 48.1284 41.1603 47.8161 40.6669C47.7265 40.5238 47.637 40.3807 47.5476 40.2375C47.4999 40.1611 47.4522 40.0848 47.4031 40.0061C47.1519 39.601 46.9054 39.1931 46.6586 38.7853C46.2601 38.1268 45.8615 37.4684 45.4558 36.8143C45.4243 36.7631 45.3929 36.712 45.3605 36.6593C45.2904 36.547 45.2174 36.4365 45.1437 36.3266C45.1179 36.3266 45.0922 36.3266 45.0656 36.3266ZM22.4374 43.5052C23.1222 44.91 24.4272 46.1446 25.6365 47.0945C25.7116 47.1535 25.7866 47.2124 25.8639 47.2731C27.9004 48.8368 30.871 50.4113 33.5174 50.2937C33.282 49.7783 32.9996 49.2988 32.6968 48.821C32.364 48.295 32.0404 47.7635 31.7179 47.2311C31.6613 47.1378 31.6048 47.0445 31.5483 46.9513C31.4616 46.8082 31.3749 46.6651 31.2882 46.5219C31.0751 46.1702 30.8618 45.8187 30.6483 45.4672C30.618 45.4173 30.5878 45.3675 30.5565 45.3161C30.4674 45.1693 30.3782 45.0224 30.289 44.8756C30.1794 44.6953 30.0699 44.5149 29.9604 44.3346C29.9145 44.259 29.8686 44.1834 29.8213 44.1055C29.694 43.8954 29.694 43.8954 29.611 43.6899C29.4677 43.473 29.4677 43.473 29.1652 43.4583C29.0397 43.4572 28.9142 43.4582 28.7887 43.4609C28.7202 43.4609 28.6516 43.4608 28.581 43.4608C28.3543 43.461 28.1276 43.4641 27.9009 43.4671C27.7438 43.4678 27.5867 43.4684 27.4295 43.4688C27.0158 43.4703 26.6022 43.4741 26.1885 43.4784C25.7664 43.4824 25.3443 43.4842 24.9222 43.4862C24.0939 43.4904 23.2656 43.497 22.4374 43.5052ZM30.9425 43.5052C31.2003 44.0232 31.2003 44.0232 31.4856 44.5199C31.5283 44.5896 31.5709 44.6593 31.6149 44.7311C31.6601 44.8045 31.7054 44.878 31.752 44.9536C31.8502 45.1138 31.9483 45.2741 32.0464 45.4343C32.0964 45.5157 32.1464 45.5971 32.1979 45.6809C32.4306 46.0605 32.6618 46.441 32.8932 46.8214C32.9834 46.9696 33.0736 47.1177 33.1638 47.2658C33.3544 47.5789 33.5446 47.8923 33.7344 48.2058C33.783 48.2859 33.8316 48.3661 33.8816 48.4486C33.9738 48.6006 34.0659 48.7527 34.1578 48.9049C34.4276 49.3495 34.7076 49.7855 34.9999 50.2157C35.3237 50.1078 35.3981 49.8898 35.5559 49.6061C35.6254 49.4846 35.6951 49.3631 35.765 49.2418C35.8041 49.1738 35.8432 49.1058 35.8835 49.0357C36.1357 48.6029 36.3974 48.1757 36.6581 47.748C36.7438 47.6072 36.8296 47.4663 36.9154 47.3255C36.9726 47.2315 37.0298 47.1376 37.0871 47.0436C37.2793 46.728 37.4703 46.4117 37.6608 46.0951C37.7106 46.0126 37.7604 45.9302 37.8116 45.8452C37.9052 45.6901 37.9986 45.5348 38.0916 45.3794C38.1542 45.2759 38.1542 45.2759 38.218 45.1703C38.2541 45.1103 38.2902 45.0502 38.3274 44.9883C38.497 44.7372 38.6 44.6162 38.8965 44.5342C39.1451 44.519 39.2466 44.5342 39.4476 44.6756C39.5696 44.9198 39.5482 45.1072 39.5256 45.3779C39.4265 45.5881 39.3276 45.7689 39.2037 45.9631C39.1692 46.0195 39.1346 46.0759 39.099 46.134C39.0229 46.2581 38.9462 46.3818 38.8692 46.5052C38.7398 46.7133 38.6126 46.9226 38.4859 47.1323C38.1137 47.7481 37.739 48.3623 37.3576 48.9724C37.3105 49.0478 37.2635 49.1231 37.215 49.2008C37.1249 49.3449 37.0345 49.4888 36.9437 49.6325C36.9036 49.6967 36.8634 49.7609 36.822 49.827C36.7865 49.8835 36.7509 49.9399 36.7143 49.998C36.6261 50.134 36.6261 50.134 36.6385 50.2937C37.1839 50.3116 37.6758 50.2507 38.2089 50.1376C38.29 50.1205 38.3711 50.1033 38.4547 50.0856C41.0823 49.501 43.4588 48.2471 45.4216 46.4099C45.6118 46.2362 45.6118 46.2362 45.8151 46.0756C45.9847 45.9381 46.12 45.8026 46.2604 45.6364C46.4037 45.468 46.547 45.3012 46.6972 45.1389C47.435 44.3975 47.435 44.3975 47.8747 43.5052C42.287 43.5052 36.6994 43.5052 30.9425 43.5052Z" fill="black"/>
<path d="M34.9757 15.0003C35.0889 15.0005 35.0889 15.0005 35.2045 15.0007C36.3228 15.0043 37.411 15.044 38.5114 15.2588C38.6164 15.2776 38.6164 15.2776 38.7235 15.2968C42.5225 15.9843 46.0357 17.8135 48.8111 20.4867C48.8883 20.5607 48.8883 20.5607 48.967 20.6362C49.7074 21.3497 50.3894 22.0751 50.9959 22.9056C51.0629 22.9954 51.1298 23.0852 51.1968 23.175C51.6679 23.814 52.0879 24.4775 52.4785 25.1684C52.5099 25.2236 52.5412 25.2788 52.5736 25.3356C53.5892 27.1396 54.2707 29.102 54.6877 31.1278C54.6992 31.1833 54.7107 31.2387 54.7225 31.2958C54.9555 32.5164 55.0046 33.7365 54.9998 34.9756C54.9996 35.0888 54.9996 35.0888 54.9993 35.2043C54.9958 36.3227 54.9561 37.4109 54.7413 38.5113C54.7287 38.5813 54.7162 38.6513 54.7032 38.7234C54.0158 42.5224 52.1866 46.0356 49.5134 48.811C49.4641 48.8625 49.4147 48.9139 49.3639 48.9669C48.6504 49.7073 47.9249 50.3893 47.0945 50.9958C47.0047 51.0628 46.9149 51.1297 46.8251 51.1967C46.186 51.6678 45.5226 52.0878 44.8317 52.4784C44.7765 52.5098 44.7213 52.5411 44.6645 52.5735C42.8605 53.5891 40.8981 54.2706 38.8723 54.6876C38.8168 54.6991 38.7614 54.7106 38.7043 54.7224C37.4837 54.9554 36.2636 55.0047 35.0245 54.9997C34.9489 54.9995 34.8734 54.9993 34.7955 54.9992C33.6784 54.9952 32.5868 54.965 31.4888 54.7412C31.3687 54.7173 31.3687 54.7173 31.2462 54.693C28.7941 54.194 24.4694 53.1463 22.9837 50.9178C22.9496 50.6935 22.9496 50.6935 22.9837 50.4496C23.1495 50.2253 23.1495 50.2253 23.3738 50.0595C23.8055 49.9951 24.0678 50.1675 24.4126 50.4009C24.5242 50.4731 24.6358 50.5453 24.7476 50.6173C24.8045 50.6544 24.8615 50.6915 24.9202 50.7297C27.0233 52.0897 29.3349 52.9799 31.8009 53.4147C31.9087 53.4339 31.9087 53.4339 32.0187 53.4534C36.7687 54.258 41.7678 53.0928 45.7012 50.3322C47.1488 49.2979 48.5064 48.1207 49.5914 46.7043C49.6313 46.653 49.6712 46.6018 49.7124 46.549C50.4417 45.6088 51.0647 44.6353 51.6202 43.5831C51.6522 43.5229 51.6843 43.4626 51.7173 43.4005C53.9286 39.1802 54.2513 33.9732 52.8704 29.444C51.7471 25.9629 49.6319 22.6512 46.7044 20.4087C46.6531 20.3688 46.6019 20.3289 46.5491 20.2877C45.6089 19.5584 44.6354 18.9354 43.5832 18.3799C43.523 18.3479 43.4627 18.3158 43.4006 18.2828C39.1803 16.0715 33.9733 15.7488 29.4441 17.1297C25.963 18.253 22.6513 20.3682 20.4088 23.2957C20.3689 23.347 20.329 23.3982 20.2878 23.451C19.5585 24.3912 18.9355 25.3647 18.38 26.4169C18.348 26.4771 18.3159 26.5374 18.2829 26.5995C16.0393 30.8813 15.752 36.144 17.1806 40.7256C18.0298 43.3096 19.4119 45.5401 21.1863 47.5835C21.6498 48.1188 21.6498 48.1188 21.6865 48.455C21.6572 48.733 21.6572 48.733 21.5402 48.9232C21.3265 49.0568 21.1574 49.1235 20.9025 49.1088C20.1258 48.8364 19.4809 47.7342 19.0043 47.0944C18.9537 47.0269 18.9537 47.0269 18.9021 46.9581C18.3944 46.2766 17.9398 45.5712 17.5217 44.8316C17.4903 44.7764 17.4589 44.7212 17.4266 44.6644C16.2779 42.6241 15.5211 40.3596 15.1809 38.0431C15.167 37.9491 15.1532 37.8551 15.1389 37.7583C15.0142 36.8487 14.9968 35.9463 15.0004 35.0293C15.0006 34.9536 15.0007 34.8779 15.0008 34.7999C15.0044 33.6801 15.0438 32.5905 15.2589 31.4887C15.2777 31.3837 15.2777 31.3837 15.2969 31.2766C15.9844 27.4776 17.8136 23.9644 20.4868 21.189C20.5361 21.1375 20.5854 21.0861 20.6363 21.033C21.3498 20.2927 22.0752 19.6107 22.9057 19.0042C22.9955 18.9372 23.0853 18.8702 23.1751 18.8033C23.8141 18.3322 24.4776 17.9122 25.1685 17.5216C25.2237 17.4902 25.2789 17.4588 25.3357 17.4265C27.1397 16.4109 29.1021 15.7294 31.1279 15.3124C31.2111 15.2952 31.2111 15.2952 31.2959 15.2776C32.5165 15.0446 33.7366 14.9955 34.9757 15.0003Z" fill="black"/>
<path d="M36.2482 29.6941C36.5851 30.0086 36.9113 30.3333 37.237 30.6594C37.3315 30.7536 37.4261 30.8478 37.5207 30.9421C37.718 31.1388 37.9149 31.3357 38.1117 31.5329C38.3631 31.7847 38.6153 32.0357 38.8678 32.2864C39.063 32.4804 39.2577 32.675 39.4522 32.8698C39.545 32.9625 39.6379 33.055 39.7311 33.1474C39.8614 33.2767 39.9909 33.4068 40.1203 33.5371C40.1583 33.5745 40.1963 33.6119 40.2355 33.6505C40.636 34.0571 40.9198 34.4934 40.9299 35.078C40.7856 36.0806 39.7558 36.8117 39.0737 37.4963C39.0098 37.5605 39.0098 37.5605 38.9447 37.626C38.7201 37.8517 38.4953 38.0772 38.2704 38.3025C38.0394 38.5339 37.8092 38.766 37.5792 38.9982C37.4006 39.1783 37.2214 39.3578 37.0421 39.5372C36.957 39.6226 36.8721 39.7081 36.7874 39.7939C35.6767 40.9171 35.6767 40.9171 34.9217 40.9302C33.9192 40.7859 33.188 39.7561 32.5034 39.0739C32.4606 39.0314 32.4178 38.9888 32.3738 38.9449C32.148 38.7204 31.9226 38.4956 31.6973 38.2706C31.4659 38.0397 31.2338 37.8095 31.0015 37.5794C30.8214 37.4008 30.6419 37.2217 30.4625 37.0424C30.3771 36.9573 30.2916 36.8723 30.2059 36.7876C29.0826 35.6769 29.0826 35.6769 29.0696 34.922C29.2139 33.9194 30.2437 33.1883 30.9258 32.5037C30.9684 32.4609 31.011 32.4181 31.0548 32.374C31.2794 32.1483 31.5041 31.9228 31.7291 31.6975C31.9601 31.4661 32.1903 31.234 32.4203 31.0017C32.5989 30.8217 32.7781 30.6421 32.9574 30.4627C33.0425 30.3774 33.1274 30.2918 33.2121 30.2061C34.2058 29.2011 35.0522 28.673 36.2482 29.6941ZM34.6151 30.6835C34.5733 30.7258 34.5316 30.7682 34.4886 30.8118C34.4444 30.8559 34.4002 30.9 34.3547 30.9455C34.2083 31.0921 34.0624 31.2392 33.9165 31.3863C33.8153 31.4878 33.714 31.5893 33.6128 31.6907C33.3459 31.9582 33.0794 32.2262 32.8131 32.4942C32.5414 32.7675 32.2693 33.0404 31.9972 33.3132C31.463 33.849 30.9294 34.3854 30.3961 34.922C30.521 35.2321 30.7372 35.4401 30.971 35.6706C31.0349 35.7346 31.0349 35.7346 31.1002 35.7999C31.2408 35.9404 31.382 36.0804 31.5232 36.2204C31.621 36.3179 31.7187 36.4154 31.8164 36.513C32.0734 36.7694 32.3309 37.0253 32.5884 37.2811C32.8513 37.5423 33.1136 37.804 33.3761 38.0657C33.8909 38.5788 34.4061 39.0914 34.9217 39.6037C35.2319 39.4788 35.4398 39.2626 35.6704 39.0288C35.713 38.9861 35.7557 38.9435 35.7997 38.8996C35.9402 38.7589 36.0802 38.6177 36.2202 38.4765C36.3176 38.3787 36.4152 38.281 36.5127 38.1833C36.7691 37.9263 37.025 37.6689 37.2808 37.4113C37.5421 37.1485 37.8038 36.8861 38.0654 36.6237C38.5785 36.1089 39.0911 35.5936 39.6034 35.078C39.4785 34.7687 39.2636 34.5601 39.031 34.3294C38.9886 34.2867 38.9462 34.244 38.9026 34.2001C38.7627 34.0595 38.6222 33.9195 38.4818 33.7796C38.3844 33.6821 38.287 33.5846 38.1897 33.487C37.9858 33.2829 37.7816 33.0791 37.5773 32.8755C37.3149 32.614 37.0532 32.3517 36.7917 32.0893C36.5909 31.888 36.3897 31.687 36.1884 31.4861C36.0918 31.3895 35.9952 31.2928 35.8987 31.196C35.7642 31.0611 35.6293 30.9267 35.4941 30.7925C35.4541 30.7521 35.414 30.7117 35.3728 30.6701C35.0292 30.3307 34.9555 30.345 34.6151 30.6835Z" fill="black"/>
<path d="M36.4067 33.2976C36.9468 33.795 37.1543 34.3493 37.1848 35.0779C37.1541 35.7348 36.888 36.2577 36.4067 36.7028C35.8988 37.0835 35.3428 37.2044 34.7135 37.1749C34.0689 37.0789 33.561 36.7586 33.1712 36.2386C32.8538 35.7125 32.7641 35.122 32.8542 34.5171C33.0187 33.8728 33.3857 33.4021 33.9536 33.0617C34.7608 32.6732 35.6884 32.7566 36.4067 33.2976ZM34.2197 34.5317C34.0938 34.7837 34.0952 35.0397 34.1417 35.312C34.2772 35.5481 34.441 35.7348 34.6879 35.8582C35.0877 35.9056 35.0877 35.9056 35.4545 35.7765C35.7512 35.5322 35.8495 35.4005 35.8876 35.0194C35.8857 34.758 35.8393 34.6215 35.673 34.4196C35.3976 34.1507 35.2397 34.1107 34.8522 34.1135C34.5618 34.1631 34.4224 34.3242 34.2197 34.5317Z" fill="black"/>
</svg>
