<svg width="512" height="512" viewBox="0 0 512 512" fill="none" xmlns="http://www.w3.org/2000/svg">
<path d="M256.702 314.629C224.008 314.629 197.408 288.56 197.408 256.512C197.408 224.463 224.008 198.391 256.702 198.391C261.338 198.391 266.988 199.532 266.614 205.466C266.256 211.132 261.122 211.506 256.702 211.506C231.237 211.506 210.523 231.696 210.523 256.512C210.523 281.328 231.237 301.514 256.702 301.514C282.168 301.514 302.882 281.324 302.882 256.512C302.903 249.342 301.155 242.278 297.794 235.945C297.376 235.182 297.113 234.344 297.023 233.479C296.932 232.614 297.014 231.739 297.264 230.906C297.514 230.073 297.928 229.298 298.48 228.627C299.033 227.955 299.714 227.4 300.483 226.994C301.252 226.588 302.094 226.339 302.961 226.262C303.827 226.184 304.7 226.28 305.529 226.543C306.358 226.807 307.126 227.232 307.789 227.796C308.452 228.359 308.996 229.048 309.39 229.823C313.723 238.053 315.99 247.212 315.997 256.512C315.997 288.56 289.4 314.629 256.702 314.629Z" fill="#024D81"/>
<path d="M287.973 221.552C286.645 221.552 285.304 221.148 284.144 220.312C282.398 219.056 280.569 217.92 278.668 216.912C277.889 216.521 277.195 215.977 276.629 215.314C276.062 214.65 275.633 213.88 275.367 213.049C275.102 212.218 275.005 211.342 275.082 210.473C275.16 209.604 275.41 208.759 275.818 207.988C276.226 207.216 276.783 206.534 277.458 205.981C278.133 205.428 278.912 205.016 279.748 204.768C280.585 204.519 281.463 204.441 282.33 204.536C283.197 204.631 284.037 204.899 284.799 205.322C287.232 206.611 289.593 208.073 291.816 209.677C296.852 213.306 294.19 221.552 287.973 221.552ZM435.033 153.064L434.801 124.596C434.786 122.866 434.089 121.213 432.86 119.995C431.632 118.777 429.973 118.094 428.243 118.094H428.188C427.327 118.101 426.475 118.277 425.682 118.613C424.889 118.949 424.17 119.438 423.566 120.052C422.962 120.666 422.485 121.392 422.162 122.191C421.839 122.989 421.676 123.843 421.683 124.704L421.752 133.343C382.385 86.4651 319.327 56 258.842 56C196.299 56 138.405 84.0127 100.028 132.848C99.4858 133.524 99.0827 134.301 98.8425 135.134C98.6022 135.967 98.5295 136.84 98.6285 137.701C98.7276 138.562 98.9965 139.395 99.4196 140.152C99.8427 140.909 100.412 141.574 101.094 142.109C101.775 142.645 102.557 143.039 103.392 143.271C104.228 143.502 105.101 143.566 105.961 143.458C106.821 143.35 107.651 143.072 108.403 142.641C109.156 142.21 109.815 141.634 110.343 140.946C146.218 95.2945 200.345 69.1146 258.842 69.1146C317.642 69.1146 379.047 99.8223 415.604 146.566H397.608C395.869 146.566 394.201 147.257 392.971 148.487C391.741 149.716 391.05 151.384 391.05 153.123C391.05 154.862 391.741 156.53 392.971 157.76C394.201 158.99 395.869 159.68 397.608 159.68H428.476C430.591 159.677 435.033 157.32 435.033 153.064ZM446.387 183.1C445.756 181.479 444.506 180.176 442.914 179.477C441.321 178.778 439.516 178.74 437.896 179.372C436.275 180.004 434.972 181.253 434.273 182.846C433.574 184.438 433.536 186.243 434.168 187.864C442.413 209.019 446.628 231.531 446.594 254.237C446.594 326.14 396.506 395.185 325.137 424.913L330.022 417.437C330.502 416.717 330.834 415.908 330.999 415.058C331.165 414.208 331.161 413.334 330.986 412.485C330.812 411.637 330.472 410.832 329.985 410.116C329.498 409.4 328.874 408.787 328.148 408.314C327.423 407.84 326.612 407.515 325.76 407.357C324.909 407.199 324.035 407.211 323.188 407.393C322.341 407.574 321.539 407.922 320.827 408.415C320.116 408.908 319.509 409.538 319.042 410.267L303.402 434.195C301.225 437.516 302.625 442.181 306.245 443.781L332.592 455.401C340.327 458.794 345.622 446.817 337.884 443.401L326.674 438.46C361.084 424.798 392.277 402.077 415.752 373.294C444.512 338.029 459.708 296.862 459.708 254.237C459.743 229.901 455.225 205.774 446.387 183.1C455.227 205.785 445.073 179.726 446.387 183.1ZM266.623 439.201C264.042 439.303 261.449 439.355 258.842 439.355C155.316 439.355 71.091 356.314 71.091 254.237C71.091 236.178 78.6811 213.591 85.9138 194.526L91.6973 207.322C95.1891 215.04 107.127 209.614 103.651 201.926L91.4252 174.877C89.9203 171.552 85.7793 170.08 82.5138 171.713L56.7798 184.601C55.9862 184.973 55.275 185.499 54.6883 186.149C54.1015 186.8 53.651 187.561 53.3634 188.389C53.0758 189.216 52.957 190.093 53.0138 190.967C53.0707 191.841 53.3022 192.695 53.6946 193.479C54.087 194.262 54.6323 194.958 55.2984 195.527C55.9645 196.096 56.7379 196.526 57.5729 196.791C58.4078 197.056 59.2874 197.151 60.1598 197.071C61.0321 196.99 61.8795 196.736 62.6518 196.323L73.2123 191.034C65.7305 210.87 57.9797 234.384 57.9797 254.233C57.9797 363.537 148.087 452.463 258.846 452.463C261.626 452.463 264.393 452.404 267.144 452.296C268.016 452.279 268.875 452.089 269.673 451.735C270.47 451.382 271.189 450.873 271.787 450.239C272.385 449.604 272.85 448.857 273.156 448.04C273.461 447.223 273.601 446.354 273.566 445.483C273.531 444.611 273.323 443.756 272.954 442.966C272.584 442.176 272.061 441.468 271.414 440.883C270.768 440.298 270.011 439.848 269.188 439.559C268.365 439.27 267.493 439.149 266.623 439.201C270.232 439.063 264.046 439.303 266.623 439.201Z" fill="#024D81"/>
<path d="M266.927 387.11C260.491 387.11 241.413 387.185 238.443 385.92C233.328 383.743 229.157 378.192 229.157 372.5V359.438C219.281 356.85 209.829 352.856 201.089 347.579L191.909 356.74C186.145 362.431 176.319 361.477 170.788 356.186C168.086 353.599 157.568 342.858 155.136 340.032C149.949 334.002 150.063 324.658 155.732 318.999L164.971 309.783C159.568 300.577 155.627 290.901 153.385 281.331H140.454C132.392 281.331 125.729 274.708 125.287 266.718C125.08 262.984 125.179 247.918 125.287 244.168C125.51 236.44 131.762 229.017 139.916 229.017H153.024C155.615 219.166 159.615 209.741 164.899 201.034L155.736 191.89C150.001 186.155 150.995 176.287 156.29 170.779C158.883 168.083 169.65 157.585 172.48 155.162C178.512 149.998 187.856 150.113 193.522 155.759L202.774 164.992C212.004 159.595 221.708 155.661 231.308 153.418V139.999C231.308 131.933 237.957 125.294 245.938 124.848C249.678 124.641 264.78 124.73 268.54 124.848C272.472 124.97 276.201 126.622 278.933 129.451C281.665 132.281 283.185 136.065 283.17 139.999V153.061C293.046 155.647 302.499 159.641 311.238 164.92L320.418 155.759C326.169 150.048 336.022 151.035 341.539 156.316C344.241 158.903 354.759 169.641 357.188 172.467C362.375 178.5 362.26 187.841 356.588 193.5L347.352 202.716C352.756 211.919 356.693 221.591 358.939 231.165H371.87C379.745 231.165 386.719 236.991 387.526 244.964C387.916 248.823 387.69 264.472 387.578 268.331C387.355 276.062 381.109 283.479 372.949 283.479H359.841C357.249 293.33 353.249 302.756 347.966 311.465L357.129 320.606C362.867 326.344 361.87 336.212 356.575 341.72C353.982 344.415 343.218 354.91 340.385 357.333C334.349 362.5 325.012 362.392 319.343 356.74L310.091 347.507C300.861 352.901 291.16 356.838 281.557 359.081V371.963C281.557 379.694 274.914 387.11 266.927 387.11ZM242.269 371.979C242.41 372.644 242.879 373.995 244.321 373.995H266.409C267.081 373.854 268.442 373.389 268.442 371.959V353.704C268.443 352.152 268.994 350.65 269.998 349.466C271.002 348.282 272.393 347.493 273.924 347.238C285.101 345.379 296.707 340.697 307.491 333.704C308.75 332.889 310.25 332.529 311.742 332.685C313.234 332.842 314.628 333.504 315.691 334.563L328.605 347.451C329.645 348.491 331.038 347.878 331.694 347.491L347.405 332.337C348.343 331.402 347.775 330.075 347.389 329.412L334.949 316.999C333.865 315.917 333.193 314.49 333.051 312.964C332.909 311.439 333.306 309.912 334.172 308.649C340.805 298.973 345.798 287.229 348.231 275.574C348.539 274.099 349.346 272.776 350.515 271.826C351.684 270.876 353.144 270.357 354.651 270.357H372.434C373.103 270.22 374.464 269.757 374.464 268.328V246.276C374.195 244.948 373.323 244.276 371.87 244.276H353.572C352.02 244.276 350.518 243.726 349.333 242.722C348.149 241.719 347.359 240.328 347.103 238.797C345.244 227.653 340.553 216.08 333.546 205.322C332.724 204.061 332.361 202.555 332.518 201.058C332.675 199.56 333.343 198.163 334.408 197.099L347.323 184.211C348.343 183.195 347.743 181.821 347.362 181.169L332.176 165.493C331.225 164.549 329.874 165.12 329.202 165.506L316.759 177.923C315.679 179.002 314.255 179.67 312.735 179.811C311.214 179.952 309.692 179.556 308.432 178.693C298.737 172.08 286.96 167.093 275.272 164.664C273.796 164.357 272.471 163.551 271.519 162.382C270.568 161.213 270.049 159.752 270.049 158.244V139.989C270.049 138.727 269.167 137.953 268.534 137.953H246.446C245.774 138.094 244.413 138.559 244.413 139.989V158.782C244.412 160.334 243.861 161.836 242.857 163.02C241.853 164.203 240.462 164.993 238.931 165.247C227.757 167.106 216.151 171.785 205.364 178.778C204.107 179.597 202.606 179.958 201.114 179.801C199.622 179.645 198.228 178.98 197.168 177.919L184.253 165.034C183.217 163.998 181.82 164.608 181.165 164.992L165.453 180.146C164.516 181.08 165.083 182.408 165.47 183.07L177.909 195.486C178.994 196.568 179.665 197.996 179.807 199.521C179.949 201.047 179.552 202.574 178.686 203.837C172.057 213.506 167.063 225.253 164.627 236.909C164.319 238.383 163.513 239.707 162.344 240.657C161.175 241.607 159.714 242.125 158.208 242.125H140.434C139.762 242.269 138.401 242.732 138.401 244.164V266.197C138.542 266.862 139.011 268.213 140.454 268.213H158.752C160.304 268.213 161.806 268.763 162.991 269.767C164.175 270.77 164.965 272.161 165.221 273.692C167.08 284.833 171.768 296.41 178.778 307.17C179.6 308.431 179.963 309.937 179.806 311.434C179.649 312.932 178.981 314.33 177.916 315.393L165.001 328.278C163.981 329.298 164.581 330.671 164.962 331.324L180.148 346.999C181.099 347.946 182.45 347.376 183.122 346.983L195.564 334.566C196.646 333.487 198.07 332.819 199.591 332.679C201.112 332.538 202.635 332.933 203.896 333.796C213.587 340.412 225.361 345.399 237.052 347.828C238.528 348.135 239.853 348.941 240.804 350.11C241.756 351.279 242.275 352.741 242.275 354.248V371.979H242.269Z" fill="#024D81"/>
</svg>
