<svg width="512" height="512" viewBox="0 0 512 512" fill="none" xmlns="http://www.w3.org/2000/svg">
<path fill-rule="evenodd" clip-rule="evenodd" d="M85.229 127.91C85.229 126.453 85.8081 125.055 86.8388 124.024C87.8695 122.993 89.2674 122.414 90.725 122.414C92.1827 122.414 93.5806 122.993 94.6113 124.024C95.642 125.055 96.221 126.453 96.221 127.91V132.923C107.809 135.355 116.664 145.347 116.664 157.443C116.664 158.901 116.085 160.299 115.054 161.329C114.024 162.36 112.626 162.939 111.168 162.939C109.71 162.939 108.312 162.36 107.282 161.329C106.251 160.299 105.672 158.901 105.672 157.443C105.672 144.781 89.356 138.639 80.069 147.54C70.851 156.374 77.396 171.539 90.725 171.539C113.715 171.539 125.451 198.647 108.981 214.431C105.439 217.818 101.018 220.144 96.221 221.147V226.16C96.221 227.618 95.642 229.016 94.6113 230.046C93.5806 231.077 92.1827 231.656 90.725 231.656C89.2674 231.656 87.8695 231.077 86.8388 230.046C85.8081 229.016 85.229 227.618 85.229 226.16V221.147C73.641 218.715 64.785 208.723 64.785 196.627C64.785 195.17 65.3641 193.772 66.3948 192.741C67.4255 191.71 68.8234 191.131 70.281 191.131C71.7387 191.131 73.1366 191.71 74.1673 192.741C75.198 193.772 75.777 195.17 75.777 196.627C75.777 209.288 92.093 215.431 101.381 206.53C110.598 197.697 104.054 182.531 90.725 182.531C67.736 182.531 55.998 155.424 72.469 139.639C76.0115 136.252 80.4318 133.926 85.229 132.923V127.91ZM463.256 121.73C434.255 92.7291 387.23 92.7291 358.228 121.73C329.227 150.731 329.227 197.757 358.228 226.758C387.229 255.759 434.255 255.759 463.256 226.758C492.257 197.756 492.257 150.732 463.256 121.73ZM374.542 177.453C373.497 176.458 372.886 175.09 372.843 173.648C372.799 172.205 373.326 170.803 374.31 169.746C375.293 168.69 376.653 168.063 378.095 168.003C379.537 167.943 380.945 168.453 382.013 169.424L401.716 187.785L439.277 149.216C440.291 148.174 441.677 147.577 443.13 147.557C444.584 147.537 445.985 148.095 447.028 149.109C448.07 150.122 448.666 151.508 448.686 152.962C448.707 154.415 448.149 155.817 447.135 156.859L405.915 199.188C404.924 200.253 403.551 200.88 402.098 200.933C400.644 200.985 399.23 200.458 398.165 199.467L374.542 177.454V177.453ZM156.105 355.183C171.462 339.439 196.686 339.114 212.432 354.472C228.176 369.829 228.502 395.053 213.143 410.798C197.785 426.542 172.562 426.868 156.816 411.509C141.072 396.151 140.746 370.929 156.105 355.183ZM184.261 354.113C168.324 354.311 155.548 367.427 155.746 383.353C155.944 399.29 169.061 412.066 184.986 411.868C200.918 411.67 213.699 398.556 213.502 382.628C213.304 366.691 200.186 353.915 184.261 354.113ZM374.963 442.297C386.829 442.297 396.555 432.57 396.555 420.705V364.684H353.371V420.705C353.371 432.57 363.097 442.297 374.963 442.297ZM353.371 237.31C387.036 267.953 438.836 266.722 471.028 234.53C504.324 201.234 504.324 147.254 471.028 113.959C438.836 81.7671 387.036 80.5361 353.371 111.179V36.4051C353.372 35.4068 353.101 34.4271 352.587 33.5712C352.073 32.7154 351.335 32.0159 350.453 31.5477C349.571 31.0796 348.579 30.8605 347.582 30.9142C346.585 30.9678 345.622 31.2921 344.795 31.8521L315.237 49.3011L285.465 31.7261C284.615 31.2056 283.639 30.9265 282.643 30.9187C281.646 30.911 280.666 31.1749 279.808 31.6821L249.961 49.3011L220.189 31.7261C219.339 31.2056 218.363 30.9265 217.367 30.9187C216.37 30.911 215.39 31.1749 214.532 31.6821L184.685 49.3011L154.913 31.7261C154.063 31.2056 153.087 30.9265 152.091 30.9187C151.094 30.911 150.114 31.1749 149.256 31.6821L119.409 49.3011L89.637 31.7261C88.787 31.2056 87.8113 30.9265 86.8146 30.9187C85.818 30.911 84.838 31.1749 83.98 31.6821L54.133 49.3011L24.575 31.8521C20.548 29.3021 15.999 32.2761 15.999 36.4051V410.519C15.999 434.073 35.302 453.289 58.878 453.289H116.502L128.155 464.655C129.052 465.599 130.256 466.194 131.551 466.332C132.846 466.47 134.148 466.142 135.224 465.408L149.134 455.937L158.647 459.843L162.294 476.754L162.304 476.752C162.567 477.99 163.251 479.099 164.239 479.89C165.227 480.682 166.459 481.106 167.725 481.091L202.361 480.659C203.677 480.712 204.968 480.289 205.998 479.469C207.028 478.648 207.728 477.485 207.971 476.19L211.106 459.674L220.592 455.696L235.162 465.096L235.164 465.093C236.228 465.775 237.495 466.069 238.75 465.925C240.006 465.78 241.173 465.207 242.054 464.301L252.796 453.288H374.961C392.894 453.288 407.546 438.636 407.546 420.703V359.186C407.546 357.729 406.967 356.331 405.936 355.3C404.906 354.269 403.508 353.69 402.05 353.69H353.37V237.309L353.371 237.31ZM123.265 321.404L113.79 331.117L122.517 343.932C123.108 344.766 123.455 345.748 123.518 346.767C123.581 347.787 123.358 348.804 122.874 349.704C120.786 353.578 118.513 358.821 117.363 363.032C116.149 367.48 111.976 367.187 107.545 368.288L97.528 370.448L97.851 396.398L112.91 399.256C113.955 399.4 114.936 399.841 115.737 400.528C116.538 401.215 117.124 402.117 117.425 403.128C118.595 407.047 120.897 412.898 122.907 416.356C123.457 417.237 123.745 418.257 123.738 419.295C123.731 420.334 123.43 421.349 122.869 422.223L114.172 435.702L132.751 453.824L145.565 445.099C146.398 444.508 147.38 444.161 148.4 444.098C149.42 444.035 150.437 444.258 151.337 444.742C155.207 446.828 160.46 449.104 164.666 450.252C165.665 450.5 166.573 451.025 167.288 451.765C168.003 452.506 168.495 453.432 168.708 454.439L172.082 470.085L198.032 469.761L200.89 454.703C201.034 453.658 201.475 452.677 202.162 451.876C202.849 451.075 203.751 450.489 204.762 450.188C208.68 449.018 214.531 446.717 217.989 444.707C218.87 444.158 219.889 443.869 220.928 443.876C221.967 443.883 222.982 444.184 223.856 444.745L237.335 453.441L255.457 434.863L246.732 422.049C246.141 421.216 245.794 420.234 245.731 419.215C245.668 418.195 245.891 417.178 246.375 416.278C248.338 412.635 250.832 406.963 251.86 403.055C252.093 402.033 252.613 401.1 253.36 400.365C254.106 399.629 255.048 399.123 256.073 398.906L271.719 395.532L271.396 369.582L256.337 366.724C255.292 366.58 254.311 366.139 253.51 365.452C252.709 364.766 252.123 363.863 251.822 362.852C250.653 358.936 248.35 353.081 246.341 349.625C245.791 348.744 245.503 347.725 245.51 346.686C245.517 345.648 245.818 344.632 246.379 343.758L255.075 330.279L236.497 312.157L223.683 320.882C222.85 321.473 221.868 321.82 220.848 321.883C219.828 321.946 218.811 321.723 217.911 321.239C214.267 319.275 208.598 316.782 204.688 315.754C203.666 315.521 202.733 315.001 201.997 314.254C201.262 313.508 200.756 312.566 200.539 311.541L197.165 295.896L171.215 296.218L168.357 311.274C168.213 312.319 167.772 313.301 167.085 314.101C166.399 314.902 165.496 315.488 164.485 315.789C160.568 316.959 154.71 319.263 151.254 321.272C150.373 321.822 149.354 322.11 148.316 322.103C147.277 322.096 146.262 321.795 145.388 321.234L131.912 312.54L123.265 321.405V321.404ZM63.695 323.362C62.2374 323.362 60.8395 322.783 59.8088 321.752C58.7781 320.722 58.199 319.324 58.199 317.866C58.199 316.409 58.7781 315.011 59.8088 313.98C60.8395 312.949 62.2374 312.37 63.695 312.37H116.765L127.193 301.68C128.074 300.774 129.241 300.201 130.497 300.057C131.752 299.912 133.019 300.206 134.083 300.888L134.085 300.885L148.653 310.283L158.142 306.304L161.276 289.789C161.519 288.495 162.219 287.331 163.249 286.51C164.279 285.69 165.57 285.267 166.886 285.32L201.522 284.89C202.788 284.875 204.02 285.3 205.008 286.091C205.996 286.882 206.68 287.991 206.943 289.229L206.953 289.227L210.601 306.142L220.113 310.043L234.023 300.572C235.099 299.838 236.401 299.511 237.696 299.649C238.991 299.787 240.195 300.381 241.092 301.325L252.414 312.369H305.677C307.135 312.369 308.533 312.948 309.563 313.979C310.594 315.01 311.173 316.408 311.173 317.865C311.173 319.323 310.594 320.721 309.563 321.751C308.533 322.782 307.135 323.361 305.677 323.361H263.683L265.935 325.558C266.841 326.439 267.414 327.607 267.559 328.862C267.703 330.118 267.409 331.384 266.727 332.448L266.73 332.45L257.33 347.02L261.308 356.506L266.555 357.502H305.677C307.135 357.502 308.533 358.081 309.563 359.112C310.594 360.143 311.173 361.541 311.173 362.998C311.173 364.456 310.594 365.854 309.563 366.884C308.533 367.915 307.135 368.494 305.677 368.494H282.334L282.725 399.887C282.74 401.153 282.315 402.385 281.524 403.373C280.733 404.361 279.624 405.045 278.386 405.308L278.388 405.318L261.472 408.966L257.571 418.478L267.043 432.388C267.777 433.464 268.104 434.766 267.966 436.061C267.829 437.356 267.234 438.56 266.29 439.457L263.521 442.295H350.604C345.493 436.538 342.379 428.968 342.379 420.703V225.192C331.768 210.978 325.485 193.343 325.485 174.242C325.485 155.141 331.768 137.506 342.379 123.292V46.0201L318.103 60.3501C317.253 60.8707 316.277 61.1498 315.281 61.1576C314.284 61.1653 313.304 60.9014 312.446 60.3941L282.599 42.7751L252.827 60.3501C251.977 60.8707 251.001 61.1498 250.005 61.1576C249.008 61.1653 248.028 60.9014 247.17 60.3941L217.323 42.7751L187.551 60.3501C186.701 60.8707 185.725 61.1498 184.729 61.1576C183.732 61.1653 182.752 60.9014 181.894 60.3941L152.047 42.7751L122.275 60.3501C121.425 60.8707 120.449 61.1498 119.453 61.1576C118.456 61.1653 117.476 60.9014 116.618 60.3941L86.771 42.7751L56.999 60.3501C56.149 60.8707 55.1733 61.1498 54.1766 61.1576C53.18 61.1653 52.2 60.9014 51.342 60.3941L26.991 46.0191V410.518C26.991 428.074 41.328 442.296 58.877 442.296H105.231L103.31 440.422C102.404 439.541 101.831 438.374 101.687 437.118C101.542 435.863 101.836 434.596 102.518 433.532L102.515 433.53L111.916 418.96L107.938 409.474L91.422 406.339C90.1275 406.097 88.9636 405.396 88.143 404.366C87.3224 403.336 86.9 402.045 86.953 400.729L86.552 368.495H63.693C62.2354 368.495 60.8375 367.916 59.8068 366.885C58.7761 365.855 58.197 364.457 58.197 362.999C58.197 361.542 58.7761 360.144 59.8068 359.113C60.8375 358.082 62.2354 357.503 63.693 357.503H105.507L107.77 357.015L111.676 347.504L102.203 333.593C101.469 332.517 101.142 331.215 101.28 329.92C101.418 328.625 102.012 327.421 102.956 326.524L106.039 323.363H63.692L63.695 323.362ZM63.695 278.229C62.2374 278.229 60.8395 277.65 59.8088 276.619C58.7781 275.589 58.199 274.191 58.199 272.733C58.199 271.276 58.7781 269.878 59.8088 268.847C60.8395 267.816 62.2374 267.237 63.695 267.237H305.676C307.134 267.237 308.532 267.816 309.562 268.847C310.593 269.878 311.172 271.276 311.172 272.733C311.172 274.191 310.593 275.589 309.562 276.619C308.532 277.65 307.134 278.229 305.676 278.229H63.695ZM168.226 233.096C166.768 233.096 165.37 232.517 164.34 231.486C163.309 230.456 162.73 229.058 162.73 227.6C162.73 226.143 163.309 224.745 164.34 223.714C165.37 222.683 166.768 222.104 168.226 222.104H305.676C307.134 222.104 308.532 222.683 309.562 223.714C310.593 224.745 311.172 226.143 311.172 227.6C311.172 229.058 310.593 230.456 309.562 231.486C308.532 232.517 307.134 233.096 305.676 233.096H168.226ZM168.226 187.963C166.768 187.963 165.37 187.384 164.34 186.353C163.309 185.323 162.73 183.925 162.73 182.467C162.73 181.01 163.309 179.612 164.34 178.581C165.37 177.55 166.768 176.971 168.226 176.971H305.676C307.134 176.971 308.532 177.55 309.562 178.581C310.593 179.612 311.172 181.01 311.172 182.467C311.172 183.925 310.593 185.323 309.562 186.353C308.532 187.384 307.134 187.963 305.676 187.963H168.226ZM168.226 142.83C166.768 142.83 165.37 142.251 164.34 141.22C163.309 140.19 162.73 138.792 162.73 137.334C162.73 135.877 163.309 134.479 164.34 133.448C165.37 132.417 166.768 131.838 168.226 131.838H305.676C307.134 131.838 308.532 132.417 309.562 133.448C310.593 134.479 311.172 135.877 311.172 137.334C311.172 138.792 310.593 140.19 309.562 141.22C308.532 142.251 307.134 142.83 305.676 142.83H168.226Z" fill="white" stroke="white" stroke-width="6"/>
</svg>
