<svg width="300" height="300" viewBox="0 0 300 300" fill="none" xmlns="http://www.w3.org/2000/svg">
<path d="M141.904 237.436C112.761 237.436 84.428 223.128 67.428 197.692H109.523V181.795H44.7613V245.385H60.9517V215.974C81.1897 239.821 110.333 253.333 141.904 253.333V237.436ZM263.333 205.641V189.744H246.333C245.523 184.974 243.095 180.205 240.666 175.436L252.809 163.513L241.476 152.385L229.333 164.308C225.285 161.923 220.428 159.538 214.761 158.744V142.051H198.571V158.744C193.714 159.538 188.856 161.923 183.999 164.308L171.856 152.385L160.523 163.513L172.666 175.436C170.237 179.41 167.809 184.179 166.999 189.744H149.999V205.641H166.999C167.809 210.41 170.237 215.179 172.666 219.949L160.523 231.872L171.856 243L183.999 231.077C188.047 233.462 192.904 235.846 198.571 236.641V253.333H214.761V236.641C219.618 235.846 224.476 233.462 229.333 231.077L241.476 243L252.809 231.872L240.666 219.949C243.095 215.974 245.523 211.205 246.333 205.641H263.333ZM206.666 221.538C192.904 221.538 182.38 211.205 182.38 197.692C182.38 184.179 192.904 173.846 206.666 173.846C220.428 173.846 230.952 184.179 230.952 197.692C230.952 211.205 220.428 221.538 206.666 221.538ZM174.285 102.308H216.38C189.666 61.7693 134.618 50.641 93.3327 76.8716C68.2373 92.7693 52.8563 120.59 52.8563 150H36.666C36.666 92.7693 83.6183 46.6666 141.904 46.6666C173.476 46.6666 202.618 60.1793 222.856 84.0256V54.6153H239.047V118.205H174.285V102.308Z" stroke="black" stroke-width="6"/>
</svg>
