<svg width="300" height="300" viewBox="0 0 300 300" fill="none" xmlns="http://www.w3.org/2000/svg">
<path d="M89.9993 225.556V223.148V222.222V219.815V214.074C89.9993 212.808 91.0813 211.667 92.4993 211.667H104.166C105.584 211.667 106.666 212.808 106.666 214.074V219.815V222.222V223.148V225.556C106.666 226.822 105.584 227.963 104.166 227.963H92.4993C91.0813 227.963 89.9993 226.822 89.9993 225.556ZM46.4167 222.222H45.891H42.5577V225.556V248.519C42.5577 256.724 49.3507 263.333 57.5577 263.333H139.166C147.373 263.333 154.166 256.724 154.166 248.519V225.556V222.222H150.833H150.207C155.892 220.129 159.999 214.714 159.999 208.333V191.111C159.999 182.905 153.206 176.296 144.999 176.296H124.788C123.126 163.306 111.877 153.333 98.3327 153.333C84.7883 153.333 73.5397 163.306 71.8777 176.296H51.666C43.459 176.296 36.666 182.905 36.666 191.111V208.333C36.666 214.752 40.729 220.137 46.4167 222.222ZM90.7377 176.296C92.0423 173.484 94.9403 171.481 98.3327 171.481C101.725 171.481 104.623 173.484 105.928 176.296H90.7377Z" stroke="black" stroke-width="6"/>
<path d="M193.333 108.889V106.481V105.556V103.148V97.4074C193.333 96.141 194.415 95 195.833 95H207.5C208.918 95 210 96.141 210 97.4074V103.148V105.556V106.481V108.889C210 110.155 208.918 111.296 207.5 111.296H195.833C194.415 111.296 193.333 110.155 193.333 108.889ZM149.751 105.556H149.225H145.892V108.889V131.852C145.892 140.058 152.685 146.667 160.892 146.667H242.5C250.707 146.667 257.5 140.058 257.5 131.852V108.889V105.556H254.167H253.541C259.226 103.462 263.333 98.047 263.333 91.6667V74.4444C263.333 66.2387 256.54 59.6297 248.333 59.6297H228.122C226.46 46.639 215.211 36.6667 201.667 36.6667C188.122 36.6667 176.874 46.639 175.212 59.6297H155C146.793 59.6297 140 66.2387 140 74.4444V91.6667C140 98.085 144.063 103.471 149.751 105.556ZM194.072 59.6297C195.376 56.8174 198.274 54.8147 201.667 54.8147C205.059 54.8147 207.957 56.8174 209.262 59.6297H194.072Z" stroke="black" stroke-width="6"/>
<path fill-rule="evenodd" clip-rule="evenodd" d="M71.0117 135.985L48.2227 122.137L53.406 113.608L67.8883 122.408C64.1023 111.192 65.362 98.2077 72.0273 87.2386C83.0053 69.1733 105.627 61.5626 124.067 70.899L125.668 71.7166L120.485 80.2463L119.121 79.589C105.883 73.195 89.0653 78.4696 80.586 92.424C74.5873 102.295 74.3617 113.9 78.9317 122.952L88.7103 106.86L97.2563 112.053L82.8643 135.737L73.989 137.826L70.998 136.008L71.0083 135.991L71.0117 135.985Z" fill="black"/>
<path fill-rule="evenodd" clip-rule="evenodd" d="M223.777 169.933L246.871 183.266L241.88 191.91L227.204 183.436C231.241 194.564 230.273 207.574 223.855 218.69C213.286 236.997 190.84 245.114 172.196 236.193L170.576 235.412L175.567 226.768L176.945 227.395C190.323 233.49 207.018 227.839 215.183 213.698C220.958 203.695 220.923 192.088 216.151 183.14L206.736 199.448L198.076 194.448L211.933 170.447L220.759 168.16L223.79 169.91L223.78 169.927L223.777 169.933Z" fill="black"/>
</svg>
