<svg width="50" height="50" viewBox="0 0 50 50" fill="none" xmlns="http://www.w3.org/2000/svg">
<g clip-path="url(#clip0_118_130)">
<path d="M17.1849 2.68135C17.3881 2.68109 17.5912 2.68071 17.7944 2.68022C18.2174 2.67965 18.6403 2.68047 19.0632 2.68231C19.6028 2.68454 20.1423 2.68324 20.6818 2.68091C21.1003 2.67949 21.5188 2.67995 21.9373 2.68096C22.1362 2.68122 22.3351 2.68091 22.534 2.67999C23.9709 2.67482 25.08 2.72377 26.1639 3.77159C26.7034 4.38042 26.9713 5.14259 26.9547 5.95589C27.0116 5.95614 27.0685 5.95639 27.1271 5.95665C28.0718 6.00121 28.883 6.36552 29.5426 7.04842C30.5398 8.15716 30.3191 9.72979 30.2861 11.1097C30.2136 12.246 30.2136 12.246 30.5667 13.2845C30.7954 13.4944 30.7954 13.4944 31.043 13.6389C31.4315 13.8801 31.4964 14.2495 31.5985 14.6791C31.647 14.9688 31.656 15.2423 31.6579 15.536C31.6589 15.654 31.6598 15.7721 31.6608 15.8937C31.6614 16.084 31.6614 16.084 31.662 16.2781C31.6623 16.3432 31.6626 16.4083 31.6629 16.4754C31.6643 16.8204 31.6652 17.1653 31.6656 17.5103C31.6662 17.8641 31.6685 18.2179 31.6713 18.5717C31.6731 18.846 31.6736 19.1202 31.6738 19.3944C31.6742 19.5875 31.676 19.7806 31.6779 19.9737C31.6751 21.105 31.5011 21.9578 30.7267 22.8138C30.0401 23.4349 29.4719 23.6484 28.5623 23.6238C27.6977 23.5968 27.6977 23.5968 26.949 23.9651C26.7339 24.2679 26.5523 24.5786 26.3687 24.9012C26.157 25.1503 26.157 25.1503 25.9354 25.3712C25.8641 25.4428 25.7929 25.5144 25.7195 25.5882C25.4898 25.7801 25.4898 25.7801 25.2175 25.914C24.8996 26.0721 24.7256 26.1758 24.5133 26.4637C24.3092 27.4046 24.4104 28.4246 24.8062 29.2957C25.0574 29.5469 25.2243 29.5147 25.5666 29.5172C25.6456 29.5168 25.7246 29.5164 25.8061 29.516C25.8893 29.5163 25.9725 29.5167 26.0583 29.5171C26.2395 29.5177 26.4207 29.518 26.602 29.5178C26.8894 29.5177 27.1768 29.519 27.4643 29.5207C28.2817 29.5252 29.0992 29.5276 29.9167 29.5282C30.4165 29.5287 30.9163 29.5311 31.4161 29.5346C31.6061 29.5356 31.7961 29.5358 31.9861 29.5353C33.2526 29.532 34.3038 29.5486 35.2791 30.4607C35.8362 31.1169 36.054 31.8314 36.0222 32.6744C36.0186 32.8248 36.0152 32.9751 36.0119 33.1255C36.0065 33.3613 36.0002 33.5969 35.9905 33.8325C35.949 34.8875 36.0004 35.5027 36.7203 36.327C38.0215 38.3673 38.6725 40.8032 38.694 43.2106C38.6968 43.384 38.6996 43.5574 38.7024 43.7307C38.7065 44.0005 38.7101 44.2703 38.7126 44.5401C38.7153 44.803 38.7198 45.0657 38.7246 45.3285C38.725 45.4495 38.725 45.4495 38.7255 45.573C38.7348 46.0041 38.753 46.2561 39.0641 46.5809C39.323 47.1533 39.3701 47.7826 39.1854 48.3845C38.8754 49.1168 38.5201 49.5448 37.8009 49.8938C37.2262 50.0955 36.6353 50.0655 36.0331 50.0602C35.8855 50.0607 35.7378 50.0614 35.5902 50.0623C35.1866 50.0641 34.783 50.063 34.3793 50.0613C33.9432 50.0599 33.5072 50.0615 33.0711 50.0626C32.2176 50.0644 31.3642 50.0636 30.5107 50.0618C29.817 50.0604 29.1233 50.0601 28.4296 50.0604C28.3308 50.0604 28.232 50.0605 28.1302 50.0605C27.9294 50.0606 27.7287 50.0607 27.5279 50.0608C25.7538 50.0617 23.9796 50.0601 22.2055 50.0571C20.4845 50.0543 18.7637 50.0536 17.0427 50.0551C15.1679 50.0568 13.293 50.0572 11.4182 50.0555C11.2182 50.0553 11.0182 50.0551 10.8183 50.0549C10.7199 50.0548 10.6215 50.0548 10.5201 50.0547C9.82734 50.0541 9.13455 50.0544 8.44175 50.0551C7.59737 50.0558 6.75299 50.0552 5.90861 50.0527C5.47792 50.0515 5.04725 50.0509 4.61656 50.052C4.22206 50.053 3.8276 50.0521 3.4331 50.0499C3.29064 50.0494 3.14818 50.0495 3.00572 50.0504C2.10635 50.0555 1.36092 50.0117 0.651963 49.4164C0.600476 49.3528 0.548989 49.2892 0.495941 49.2237C0.442692 49.1604 0.389443 49.0971 0.33458 49.0318C-0.0937707 48.3946 -0.069669 47.7156 0.00155667 46.9715C0.108121 46.6436 0.241139 46.3413 0.489838 46.0926C0.500721 45.7913 0.505634 45.4918 0.507004 45.1904C0.509276 44.9994 0.511631 44.8083 0.514061 44.6173C0.517444 44.3174 0.520328 44.0175 0.521667 43.7176C0.535988 41.0328 1.05362 37.7422 2.96329 35.6834C3.39654 35.1222 3.24919 34.4169 3.1937 33.7513C3.10266 32.5535 3.10925 31.5814 3.82922 30.5695C4.29311 30.0443 4.95321 29.6367 5.6612 29.571C5.88384 29.5643 6.10573 29.5637 6.32847 29.5653C6.4127 29.5651 6.49693 29.5649 6.58371 29.5647C6.76579 29.5644 6.94786 29.5644 7.12993 29.5649C7.41807 29.5654 7.70617 29.5645 7.99431 29.5632C8.81323 29.5596 9.63213 29.5578 10.4511 29.5589C10.9526 29.5594 11.4541 29.5577 11.9557 29.5544C12.1467 29.5536 12.3377 29.5537 12.5287 29.5548C12.7955 29.5562 13.0621 29.5546 13.3288 29.5523C13.4472 29.5541 13.4472 29.5541 13.5681 29.5558C13.9535 29.5494 14.1223 29.5296 14.403 29.2553C14.862 28.4792 14.8008 27.3361 14.65 26.4637C14.3913 26.0549 14.1042 25.8868 13.6734 25.6825C12.2659 24.6127 11.2551 22.8003 10.9856 21.0545C10.962 20.8061 10.9448 20.5607 10.9391 20.3114C10.8283 20.3159 10.7175 20.3204 10.6034 20.3251C8.9828 20.3723 8.9828 20.3723 8.33209 19.7666C7.73457 19.1258 7.57317 18.4988 7.57297 17.6453C7.57185 17.5169 7.57185 17.5169 7.57071 17.3859C7.56966 17.2056 7.56938 17.0253 7.56982 16.845C7.56992 16.5717 7.56585 16.2986 7.56152 16.0254C7.54904 14.1678 7.54904 14.1678 8.26178 13.4081C8.62271 13.0848 8.62271 13.0848 8.88828 13.0848C8.88725 12.9795 8.88623 12.8743 8.88518 12.7658C8.88159 12.3687 8.87938 11.9716 8.87755 11.5744C8.87657 11.4038 8.87525 11.2331 8.87354 11.0625C8.85004 8.65274 9.18843 6.64205 10.9032 4.81758C12.7012 3.03733 14.7602 2.67012 17.1849 2.68135ZM11.7203 6.24886C10.4829 7.84963 10.4157 9.57275 10.4199 11.5157C10.4203 11.8174 10.4179 12.119 10.4155 12.4207C10.4153 12.6136 10.4152 12.8064 10.4153 12.9993C10.4144 13.089 10.4135 13.1786 10.4126 13.2709C10.416 13.7385 10.4219 14.0833 10.7437 14.452C10.936 14.569 10.936 14.569 11.1569 14.6278C11.2352 14.6527 11.3136 14.6776 11.3943 14.7032C11.5164 14.739 11.5164 14.739 11.641 14.7755C11.7647 14.8141 11.7647 14.8141 11.891 14.8535C12.094 14.9166 12.2977 14.9775 12.5016 15.0379C12.503 14.9395 12.5044 14.8411 12.5059 14.7397C12.5116 14.3702 12.5191 14.0007 12.5272 13.6312C12.5304 13.4722 12.5332 13.313 12.5354 13.1539C12.5539 11.8727 12.6165 10.6872 13.5331 9.69734C14.3356 8.95425 15.231 8.75594 16.3102 8.78792C16.855 8.86932 17.3832 9.00251 17.915 9.14421C19.3015 9.47581 20.678 9.28594 22.0452 8.96165C23.1085 8.71122 24.0781 8.71271 25.0779 9.21822C25.8743 9.72678 26.3109 10.4249 26.5641 11.327C26.5949 11.6165 26.6003 11.905 26.6045 12.196C26.6073 12.3183 26.6073 12.3183 26.6102 12.4431C26.616 12.7017 26.6206 12.9604 26.6251 13.2191C26.6288 13.3952 26.6326 13.5713 26.6365 13.7474C26.6459 14.1776 26.6541 14.6077 26.6617 15.0379C26.8316 14.9936 27.0013 14.9487 27.171 14.9036C27.2655 14.8787 27.36 14.8538 27.4574 14.8281C27.965 14.6765 28.4105 14.5143 28.7125 14.0614C28.7441 13.8243 28.7441 13.8243 28.7424 13.5564C28.744 13.4534 28.7455 13.3503 28.7471 13.2442C28.7477 13.1328 28.7482 13.0214 28.7487 12.9066C28.7496 12.7919 28.7505 12.6771 28.7514 12.5588C28.7528 12.3156 28.7537 12.0724 28.7541 11.8291C28.7552 11.4583 28.76 11.0876 28.7649 10.7168C28.7659 10.4804 28.7666 10.2439 28.767 10.0075C28.7699 9.84188 28.7699 9.84188 28.7728 9.67294C28.769 8.99092 28.6746 8.53143 28.2242 8.00667C27.7809 7.5958 27.3307 7.54487 26.7498 7.47833C26.4401 7.41538 26.2424 7.29675 25.9781 7.12776C25.9137 7.12776 25.8492 7.12776 25.7828 7.12776C25.6223 6.75953 25.532 6.40415 25.4532 6.01082C25.2843 5.26239 25.0621 4.84095 24.4156 4.39339C24.0396 4.26805 23.6841 4.28053 23.2922 4.28C23.2074 4.27951 23.1225 4.27903 23.0351 4.27853C22.7538 4.2771 22.4726 4.27643 22.1913 4.2759C21.9953 4.27533 21.7992 4.27477 21.6032 4.27421C21.1915 4.27318 20.7798 4.27261 20.3681 4.27227C19.8431 4.27174 19.3181 4.2694 18.7931 4.26661C18.3876 4.26478 17.9822 4.26428 17.5768 4.26413C17.3834 4.26384 17.19 4.26306 16.9967 4.26177C14.8717 4.24862 13.2013 4.6414 11.7203 6.24886ZM14.3792 11.0329C14.0587 11.5584 14.0366 12.0678 14.0374 12.6637C14.0354 12.8282 14.0333 12.9927 14.0313 13.1573C14.029 13.4144 14.0274 13.6715 14.0269 13.9287C14.0259 14.1785 14.0226 14.4281 14.019 14.6778C14.0195 14.7541 14.02 14.8304 14.0205 14.9091C14.0099 15.5011 13.8307 15.8572 13.4049 16.283C13.0863 16.46 12.7582 16.5158 12.4039 16.6004C12.3941 17.0707 12.3871 17.5409 12.3824 18.0113C12.3805 18.1704 12.3779 18.3296 12.3744 18.4888C12.3333 20.4502 12.6847 22.2531 14.0091 23.7721C14.1555 23.9227 14.304 24.0713 14.4547 24.2176C14.5217 24.2855 14.5886 24.3533 14.6576 24.4232C16.0541 25.7602 17.9697 26.4086 19.8868 26.387C21.4126 26.2899 22.7582 25.7368 24.025 24.9012C24.025 24.869 24.025 24.8367 24.025 24.8035C23.9424 24.801 23.8598 24.7985 23.7747 24.7959C22.9518 24.7548 22.325 24.6846 21.7423 24.0711C21.3187 23.4194 21.2942 22.8416 21.3883 22.0692C21.5833 21.5418 21.8538 21.2333 22.3496 20.9744C22.9598 20.72 23.5748 20.7426 24.2264 20.7508C24.3463 20.7493 24.4662 20.7478 24.5898 20.7462C25.2992 20.7493 25.7613 20.8227 26.3687 21.1903C26.4332 21.1903 26.4977 21.1903 26.5641 21.1903C26.8925 20.1613 26.8696 19.127 26.8631 18.0592C26.8626 17.9173 26.8622 17.7755 26.8618 17.6336C26.8607 17.2892 26.859 16.9448 26.857 16.6004C26.7348 16.5716 26.6126 16.5428 26.4866 16.5131C26.0868 16.4188 25.8061 16.2866 25.4898 16.0145C25.2107 15.4884 25.1559 15.069 25.1606 14.4798C25.1589 14.3165 25.1572 14.1532 25.1555 13.9898C25.1545 13.7355 25.1541 13.4812 25.1543 13.2268C25.154 12.9792 25.1513 12.7316 25.1484 12.484C25.1492 12.409 25.15 12.334 25.1508 12.2567C25.1425 11.6401 24.9708 11.1084 24.5339 10.659C23.7051 10.1635 23.0124 10.2138 22.1024 10.4359C21.9636 10.472 21.8249 10.5084 21.6862 10.545C20.1869 10.9308 18.5791 10.8232 17.0914 10.4481C16.0094 10.1905 15.1482 10.1113 14.3792 11.0329ZM9.18124 15.0379C9.16914 15.4879 9.1603 15.9378 9.15442 16.388C9.15197 16.541 9.14864 16.6939 9.14441 16.8469C9.13846 17.0673 9.13571 17.2875 9.13356 17.5079C9.13104 17.5759 9.12852 17.6439 9.12592 17.7139C9.1257 18.0972 9.16997 18.2469 9.4173 18.5468C9.9093 18.9409 10.1606 18.8465 10.8414 18.8465C10.8414 17.9442 10.8414 17.0418 10.8414 16.1121C10.4547 15.9188 10.068 15.7254 9.66953 15.5262C9.35214 15.2454 9.35214 15.2454 9.18124 15.0379ZM29.3587 15.6197C29.1031 15.8192 29.1031 15.8192 28.4195 16.1121C28.4195 17.0145 28.4195 17.9168 28.4195 18.8465C29.2213 18.8726 29.2213 18.8726 29.86 18.5108C30.136 18.1658 30.0909 17.7961 30.0892 17.3744C30.0891 17.3076 30.0889 17.2409 30.0888 17.1721C30.0883 16.9591 30.087 16.7462 30.0858 16.5333C30.0853 16.3888 30.0849 16.2443 30.0845 16.0997C30.0834 15.7458 30.0817 15.3919 30.0797 15.0379C29.8301 15.0379 29.5322 15.4548 29.3587 15.6197ZM29.0909 20.2625C28.7102 20.2867 28.7102 20.2867 28.3219 20.3114C28.193 20.8914 28.0641 21.4715 27.9312 22.0692C28.8371 22.1301 28.8371 22.1301 29.5914 21.6785C30.0069 21.2968 30.0374 20.949 30.0721 20.4102C30.0746 20.3453 30.0771 20.2805 30.0797 20.2137C29.7495 20.2137 29.4203 20.2415 29.0909 20.2625ZM22.8531 22.4598C22.8043 22.7528 22.8043 22.7528 22.8531 23.0457C23.1713 23.2579 23.2659 23.266 23.6344 23.267C23.729 23.2672 23.8237 23.2675 23.9212 23.2677C24.0199 23.267 24.1186 23.2662 24.2203 23.2655C24.319 23.2662 24.4177 23.267 24.5194 23.2677C24.6614 23.2674 24.6614 23.2674 24.8062 23.267C24.8929 23.2668 24.9795 23.2665 25.0687 23.2663C25.3213 23.2555 25.3213 23.2555 25.5875 23.0457C25.5625 22.8169 25.5296 22.5889 25.4898 22.3621C25.1117 22.173 24.6423 22.2464 24.2264 22.2462C24.1273 22.245 24.0281 22.2438 23.926 22.2425C23.8309 22.2424 23.7358 22.2422 23.6378 22.242C23.5506 22.2416 23.4633 22.2412 23.3735 22.2408C23.1194 22.2494 23.1194 22.2494 22.8531 22.4598ZM16.3102 27.245C16.3042 27.365 16.2983 27.4851 16.2922 27.6089C16.284 27.7683 16.2757 27.9278 16.2674 28.0872C16.2636 28.1662 16.2597 28.2451 16.2558 28.3264C16.2517 28.4038 16.2476 28.4813 16.2434 28.561C16.2398 28.6316 16.2362 28.7022 16.2325 28.7749C16.2085 29.0479 16.1599 29.3183 16.1148 29.5887C18.4029 29.5887 20.691 29.5887 23.0484 29.5887C22.9518 28.4769 22.9518 28.4769 22.8531 27.3426C22.2895 27.467 22.2895 27.467 21.727 27.5963C19.8978 28.0282 18.0798 27.8409 16.3102 27.245ZM5.00644 31.6944C4.48915 32.3546 4.69306 33.4332 4.74361 34.2152C4.75025 34.3288 4.75689 34.4425 4.76373 34.5596C4.78491 34.9209 4.80708 35.2822 4.82944 35.6434C4.99576 38.3632 4.99576 38.3632 5.01598 39.4032C5.01867 39.4732 5.02136 39.5433 5.02414 39.6155C5.02653 39.9463 5.00224 40.1091 4.79899 40.3756C4.5914 40.5262 4.5914 40.5262 4.36099 40.543C4.28395 40.5294 4.20691 40.5158 4.12753 40.5018C4.04948 40.4892 3.97144 40.4766 3.89102 40.4636C3.83211 40.4521 3.77319 40.4405 3.71249 40.4285C3.57159 39.9814 3.58155 39.5108 3.56429 39.0461C3.54629 38.6819 3.5217 38.3955 3.32187 38.0848C2.21429 40.4179 2.01558 42.757 2.05234 45.3114C2.63242 45.3114 3.21249 45.3114 3.81015 45.3114C3.80675 45.1467 3.80335 44.982 3.79985 44.8124C3.7971 44.5962 3.79444 44.3801 3.79184 44.1639C3.78939 44.0554 3.78693 43.9469 3.7844 43.8351C3.78346 43.7306 3.78251 43.6261 3.78154 43.5184C3.78001 43.4223 3.77847 43.3262 3.77689 43.2271C3.81546 42.9261 3.8953 42.7946 4.10312 42.577C4.29233 42.5285 4.29233 42.5285 4.49374 42.5343C4.59344 42.5344 4.59344 42.5344 4.69516 42.5346C4.88437 42.577 4.88437 42.577 5.17734 42.8699C5.27402 44.0784 5.27402 44.0784 5.37265 45.3114C9.14316 45.3114 12.9137 45.3114 16.7984 45.3114C16.5289 44.284 16.5289 44.284 16.0355 43.4864C15.9341 43.3559 15.9341 43.3559 15.8306 43.2228C15.7633 43.1386 15.6959 43.0544 15.6266 42.9676C14.6456 41.6894 14.3694 40.4619 14.4547 38.866C14.6386 37.4892 15.3512 36.2704 16.4322 35.4176C16.9034 35.0865 17.2899 34.8895 17.8727 34.9598C18.1799 35.0659 18.3764 35.1401 18.5696 35.4049C18.6985 35.7696 18.687 36.127 18.6909 36.5112C18.6926 36.595 18.6942 36.6787 18.6959 36.765C18.7011 37.032 18.7051 37.299 18.7088 37.566C18.7131 37.834 18.7177 38.1021 18.7228 38.3701C18.7259 38.5368 18.7285 38.7035 18.7306 38.8703C18.7016 39.2401 18.7016 39.2401 18.8492 39.5496C19.1125 39.5568 19.3733 39.5587 19.6366 39.5557C19.7106 39.5553 19.7847 39.5549 19.8611 39.5544C20.0446 39.5533 20.2282 39.5515 20.4117 39.5496C20.4131 39.4403 20.4146 39.3309 20.416 39.2183C20.4217 38.8109 20.4292 38.4036 20.4373 37.9963C20.4406 37.8204 20.4433 37.6444 20.4455 37.4684C20.4488 37.2148 20.4539 36.9613 20.4594 36.7077C20.46 36.6295 20.4606 36.5514 20.4613 36.4709C20.4737 35.9954 20.5441 35.6666 20.8023 35.2528C21.09 34.9904 21.3205 34.9349 21.6996 34.9476C22.5007 35.0716 23.1654 35.6755 23.6672 36.2843C24.6451 37.7167 24.952 39.2744 24.6449 40.9771C24.3564 41.9106 23.8415 42.7585 23.1869 43.478C22.7343 44.0441 22.5643 44.5989 22.4625 45.3114C26.2008 45.3114 29.9391 45.3114 33.7906 45.3114C33.8476 44.9124 33.9005 44.542 33.9223 44.1445C33.9273 44.0547 33.9324 43.9648 33.9376 43.8722C33.9427 43.7757 33.9479 43.6793 33.9532 43.5799C33.9589 43.4766 33.9646 43.3733 33.9705 43.2668C33.9893 42.9261 34.0077 42.5854 34.026 42.2447C34.039 42.0064 34.052 41.7681 34.065 41.5298C34.0922 41.0301 34.1192 40.5304 34.146 40.0307C34.1802 39.3941 34.215 38.7575 34.2501 38.1209C34.2771 37.6283 34.3037 37.1357 34.3303 36.6432C34.3429 36.4087 34.3557 36.1742 34.3687 35.9397C34.4539 34.4142 34.4539 34.4142 34.5003 32.8871C34.5026 32.7714 34.5049 32.6557 34.5072 32.5366C34.4558 32.0517 34.2911 31.7386 33.931 31.4137C33.6014 31.1855 33.4378 31.1389 33.0418 31.1384C32.9451 31.138 32.8484 31.1376 32.7488 31.1372C32.6418 31.1373 32.5348 31.1374 32.4245 31.1375C32.3115 31.1372 32.1984 31.1369 32.0819 31.1366C31.7671 31.1359 31.4522 31.1356 31.1374 31.1356C30.7982 31.1354 30.459 31.1347 30.1199 31.134C29.3778 31.1327 28.6357 31.1321 27.8935 31.1316C27.4304 31.1314 26.9672 31.131 26.504 31.1305C25.2222 31.1293 23.9404 31.1283 22.6586 31.128C22.5765 31.128 22.4944 31.128 22.4098 31.1279C22.3276 31.1279 22.2453 31.1279 22.1605 31.1279C21.9938 31.1278 21.8271 31.1278 21.6603 31.1277C21.5776 31.1277 21.4949 31.1277 21.4097 31.1277C20.0694 31.1273 18.7291 31.1256 17.3887 31.1233C16.0134 31.121 14.6381 31.1198 13.2627 31.1197C12.4902 31.1196 11.7177 31.119 10.9452 31.1172C10.2874 31.1157 9.62968 31.1152 8.97189 31.116C8.63619 31.1164 8.30051 31.1163 7.96481 31.115C7.60105 31.1137 7.23734 31.1143 6.87358 31.1153C6.71405 31.1141 6.71405 31.1141 6.55129 31.1129C5.85633 31.1175 5.52224 31.2138 5.00644 31.6944ZM21.9742 36.8153C21.9738 36.9058 21.9734 36.9964 21.973 37.0897C21.9703 37.4291 21.9655 37.7682 21.9593 38.1075C21.9571 38.2537 21.9556 38.3999 21.9551 38.5462C21.9486 40.0535 21.9486 40.0535 21.5283 40.5849C20.973 41.1265 20.3124 41.0619 19.5816 41.0572C19.4727 41.0592 19.3639 41.0611 19.2517 41.0631C18.632 41.0627 18.2427 41.0451 17.775 40.6239C17.3113 40.1226 17.2764 39.7562 17.2558 39.0873C17.2497 38.8975 17.2497 38.8975 17.2434 38.7039C17.2395 38.5708 17.2357 38.4377 17.2318 38.3045C17.2276 38.1699 17.2233 38.0352 17.219 37.9005C17.2086 37.5713 17.1987 37.2421 17.1891 36.9129C16.7622 37.2377 16.5132 37.4935 16.2796 37.9871C16.2317 38.0858 16.1837 38.1845 16.1343 38.2862C15.7956 39.1159 15.8264 40.0374 16.1118 40.8791C16.3357 41.3972 16.6809 41.8321 17.0147 42.2836C17.7077 43.2367 18.0731 44.1599 18.3609 45.3114C19.1666 45.3114 19.9723 45.3114 20.8023 45.3114C20.9452 44.8838 20.9452 44.8838 21.0781 44.453C21.3762 43.4738 21.8259 42.6275 22.5193 41.8728C23.2302 40.9758 23.3398 39.9667 23.2437 38.866C23.0868 38.0954 22.7067 37.4818 22.1695 36.9129C22.1051 36.8807 22.0406 36.8485 21.9742 36.8153ZM35.7437 37.9871C35.6926 38.8411 35.6416 39.6952 35.591 40.5492C35.5674 40.9458 35.5438 41.3424 35.52 41.739C35.497 42.1221 35.4743 42.5052 35.4516 42.8883C35.443 43.0341 35.4343 43.1799 35.4255 43.3257C35.4131 43.5306 35.401 43.7356 35.389 43.9406C35.382 44.057 35.3751 44.1735 35.368 44.2935C35.3529 44.6325 35.3531 44.972 35.3531 45.3114C35.9332 45.3114 36.5133 45.3114 37.1109 45.3114C37.1584 42.7546 37.0795 40.301 35.8414 37.9871C35.8092 37.9871 35.7769 37.9871 35.7437 37.9871ZM1.56406 47.3621C1.48266 47.7081 1.48266 47.7081 1.56406 48.0457C1.8167 48.3023 1.98052 48.424 2.33795 48.4853C2.49755 48.4854 2.49755 48.4854 2.66038 48.4855C2.84517 48.487 2.84517 48.487 3.03369 48.4886C3.17016 48.4878 3.30663 48.4869 3.44309 48.486C3.58825 48.4864 3.73341 48.487 3.87856 48.4878C4.27755 48.4894 4.67651 48.4886 5.0755 48.4874C5.50574 48.4865 5.93597 48.4879 6.36621 48.489C7.20906 48.4907 8.0519 48.4903 8.89475 48.4892C9.57958 48.4883 10.2644 48.4882 10.9492 48.4886C11.0953 48.4887 11.0953 48.4887 11.2444 48.4888C11.4422 48.4889 11.64 48.4891 11.8379 48.4892C13.6938 48.4903 15.5496 48.489 17.4055 48.4869C18.9989 48.4852 20.5922 48.4855 22.1856 48.4873C24.0349 48.4894 25.8842 48.4902 27.7335 48.489C27.9306 48.4889 28.1277 48.4887 28.3248 48.4886C28.4217 48.4886 28.5187 48.4885 28.6186 48.4884C29.3029 48.4881 29.9872 48.4887 30.6714 48.4896C31.5049 48.4907 32.3384 48.4904 33.1719 48.4883C33.5974 48.4873 34.0229 48.4869 34.4484 48.4882C34.8376 48.4893 35.2267 48.4887 35.6159 48.4866C35.757 48.4862 35.8981 48.4864 36.0392 48.4874C36.2304 48.4885 36.4216 48.4871 36.6128 48.4855C36.7192 48.4854 36.8256 48.4854 36.9352 48.4853C37.2759 48.4243 37.3894 48.3161 37.5992 48.0457C37.6886 47.7393 37.7234 47.5466 37.6297 47.2401C37.4709 47.0282 37.3574 46.9711 37.1109 46.8739C36.8305 46.8443 36.8305 46.8443 36.5167 46.8485C36.3941 46.8478 36.2715 46.8471 36.1452 46.8464C36.0089 46.8466 35.8726 46.8468 35.7363 46.8471C35.5917 46.8466 35.4471 46.8461 35.3025 46.8455C34.9046 46.8441 34.5067 46.844 34.1088 46.844C33.6799 46.8439 33.251 46.8426 32.8221 46.8415C31.8841 46.8392 30.9461 46.8385 30.0081 46.838C29.4226 46.8377 28.8372 46.837 28.2517 46.8363C26.6315 46.8344 25.0112 46.8328 23.3909 46.8325C23.2354 46.8325 23.2354 46.8325 23.0767 46.8325C22.8664 46.8324 22.6562 46.8324 22.4459 46.8324C22.3415 46.8323 22.2372 46.8323 22.1296 46.8323C22.0251 46.8323 21.9206 46.8323 21.813 46.8322C20.1187 46.8319 18.4244 46.8293 16.7302 46.8256C14.9916 46.8219 13.2529 46.82 11.5143 46.82C10.5378 46.8199 9.56126 46.8191 8.58473 46.8163C7.75344 46.8139 6.92216 46.8132 6.09086 46.8146C5.66655 46.8153 5.24227 46.8152 4.81796 46.813C4.42971 46.811 4.04153 46.8113 3.65328 46.8133C3.51265 46.8136 3.37201 46.8132 3.23139 46.8118C3.04055 46.81 2.84969 46.8115 2.65885 46.8132C2.55275 46.8131 2.44665 46.8131 2.33733 46.813C1.95385 46.8949 1.8061 47.0601 1.56406 47.3621Z" fill="black"/>
<path d="M34.7303 -0.0115607C34.9003 -0.0126089 34.9003 -0.0126089 35.0737 -0.0136782C35.1977 -0.0139408 35.3217 -0.0142034 35.4494 -0.0144739C35.5817 -0.015086 35.7139 -0.0157352 35.8461 -0.0164185C36.2799 -0.0184698 36.7138 -0.019485 37.1477 -0.0204582C37.2974 -0.0208537 37.4471 -0.0212557 37.5967 -0.0216643C38.3002 -0.0235242 39.0037 -0.024914 39.7072 -0.025728C40.5177 -0.0266813 41.3281 -0.0292492 42.1386 -0.0331987C42.766 -0.0361507 43.3934 -0.0375908 44.0208 -0.0379136C44.3951 -0.0381424 44.7693 -0.0390083 45.1435 -0.0414743C45.4961 -0.0437597 45.8486 -0.0441564 46.2011 -0.0431577C46.3908 -0.0430868 46.5805 -0.0449429 46.7701 -0.046875C47.7446 -0.0411285 48.5408 0.147075 49.2659 0.826023C49.9986 1.61156 50.0303 2.41193 50.0315 3.43299C50.0339 3.54817 50.0362 3.66336 50.0387 3.78203C50.0391 3.89269 50.0395 4.00334 50.0399 4.11734C50.0407 4.21794 50.0415 4.31854 50.0423 4.42219C49.9824 4.76083 49.8752 4.87493 49.6042 5.08094C49.2339 5.13384 49.021 5.14934 48.7074 4.9356C48.4502 4.58004 48.4766 4.27031 48.4751 3.84192C48.466 2.76398 48.466 2.76398 47.9441 1.85828C47.5933 1.68291 47.3181 1.65044 46.9314 1.64925C46.8226 1.6487 46.7137 1.64814 46.6016 1.64756C46.4821 1.64745 46.3626 1.64734 46.2395 1.64723C46.1137 1.64675 45.988 1.64626 45.8584 1.64576C45.5131 1.64448 45.1679 1.64385 44.8227 1.64342C44.6069 1.64313 44.3911 1.64273 44.1754 1.64229C43.5001 1.64096 42.8249 1.64002 42.1497 1.63964C41.3705 1.6392 40.5915 1.63749 39.8123 1.63466C39.2099 1.63255 38.6074 1.63156 38.005 1.63143C37.6453 1.63133 37.2856 1.63075 36.9259 1.62901C36.5245 1.6271 36.1231 1.62752 35.7216 1.62816C35.6028 1.62726 35.4839 1.62636 35.3614 1.62543C34.5728 1.61615 34.5728 1.61615 33.8816 1.95594C33.5946 2.38157 33.5514 2.7289 33.5491 3.23558C33.5481 3.33573 33.5481 3.33573 33.5471 3.43792C33.5453 3.65704 33.5457 3.87609 33.5462 4.09522C33.5458 4.24843 33.5453 4.40164 33.5447 4.55485C33.5438 4.87532 33.5441 5.19577 33.545 5.51624C33.5462 5.92606 33.5442 6.33581 33.5413 6.74562C33.5395 7.06181 33.5396 7.37797 33.5401 7.69416C33.5401 7.84523 33.5395 7.99629 33.5383 8.14735C33.5369 8.35888 33.5379 8.57025 33.5396 8.78177C33.5396 8.90187 33.5396 9.02198 33.5396 9.14572C33.598 9.53916 33.7343 9.75189 33.9792 10.0614C34.1469 10.1826 34.1469 10.1826 34.3332 10.2323C34.4009 10.2545 34.4687 10.2766 34.5384 10.2994C34.7743 10.3578 35.0084 10.3921 35.2487 10.4276C35.8012 10.5298 36.1633 10.8037 36.5183 11.2333C36.7881 11.6883 36.8507 12.0336 36.8612 12.56C36.863 12.6286 36.8647 12.6971 36.8665 12.7677C36.8718 12.9846 36.8751 13.2014 36.8784 13.4183C36.8816 13.5662 36.885 13.7141 36.8885 13.862C36.8968 14.2227 36.9033 14.5834 36.9089 14.9442C36.9551 14.8646 37.0013 14.7849 37.0489 14.7028C37.2241 14.4013 37.3996 14.0999 37.5753 13.7986C37.6506 13.6693 37.7258 13.54 37.8008 13.4106C38.1823 12.7529 38.5689 12.0985 38.978 11.4576C39.0358 11.3668 39.0936 11.276 39.1531 11.1825C39.4508 10.817 39.7837 10.6005 40.2292 10.452C40.4492 10.4415 40.6694 10.4368 40.8897 10.4351C40.9898 10.4341 40.9898 10.4341 41.0919 10.4331C41.2367 10.4317 41.3815 10.4306 41.5264 10.4296C41.7559 10.428 41.9853 10.4257 42.2148 10.4233C42.8673 10.4163 43.5198 10.4105 44.1723 10.4055C44.5716 10.4024 44.9708 10.3983 45.3701 10.3937C45.522 10.3922 45.6739 10.391 45.8257 10.3901C46.0387 10.3889 46.2515 10.3866 46.4645 10.384C46.5854 10.383 46.7064 10.3819 46.8311 10.3809C47.309 10.3427 47.6413 10.2445 48.0173 9.94544C48.4931 9.35067 48.465 8.64395 48.4619 7.91812C48.4724 7.54018 48.4966 7.36343 48.7562 7.0806C49.1141 6.8837 49.3141 6.92634 49.7019 7.03406C49.8661 7.15191 49.8661 7.15191 49.9948 7.32703C50.0612 7.73267 50.0446 8.14339 50.0437 8.55384C50.0464 8.66543 50.0492 8.77703 50.0521 8.89201C50.0541 9.7798 49.8664 10.416 49.2906 11.0986C49.2209 11.1572 49.1512 11.2157 49.0793 11.276C48.9755 11.3665 48.9755 11.3665 48.8695 11.4587C48.3273 11.829 47.8826 11.9534 47.2288 11.9544C47.1609 11.955 47.093 11.9555 47.023 11.956C46.8769 11.957 46.7307 11.9573 46.5845 11.957C46.353 11.9565 46.1215 11.9579 45.8899 11.9598C45.3152 11.9639 44.7406 11.965 44.1659 11.9662C43.6791 11.9673 43.1924 11.9697 42.7057 11.9735C42.478 11.9748 42.2503 11.9744 42.0226 11.974C41.8827 11.9749 41.7428 11.9759 41.6028 11.977C41.4811 11.9772 41.3593 11.9774 41.2339 11.9776C40.8835 12.0179 40.7036 12.0956 40.4245 12.3075C40.2693 12.5255 40.1362 12.7332 40.0053 12.9648C39.9485 13.062 39.9485 13.062 39.8905 13.1611C39.8099 13.2992 39.7299 13.4376 39.6503 13.5762C39.5268 13.7915 39.402 14.0059 39.2767 14.2201C39.1134 14.4993 38.9504 14.7787 38.7878 15.0582C38.5278 15.5042 38.2619 15.9463 37.9892 16.3846C37.9531 16.4437 37.917 16.5028 37.8799 16.5636C37.6168 16.9844 37.3895 17.3231 36.9089 17.4833C36.4509 17.5208 36.219 17.5281 35.8042 17.3246C35.4648 17.0247 35.2806 16.7467 35.2198 16.2885C35.2056 16.0285 35.2006 15.7699 35.1988 15.5096C35.197 15.415 35.1953 15.3205 35.1935 15.2231C35.1882 14.9226 35.1849 14.6221 35.1816 14.3217C35.1784 14.1173 35.175 13.913 35.1715 13.7086C35.1632 13.2091 35.1567 12.7095 35.1511 12.2098C34.8606 12.0582 34.6209 11.9797 34.2966 11.9291C33.5073 11.7761 33.0118 11.4939 32.4793 10.8903C31.8788 9.97961 31.8706 9.1309 31.8766 8.07204C31.8763 7.90705 31.8759 7.74205 31.8754 7.57706C31.8748 7.23239 31.8757 6.88775 31.8775 6.54309C31.8797 6.10364 31.8785 5.66429 31.8761 5.22485C31.8747 4.88443 31.8752 4.54404 31.8762 4.20363C31.8764 4.04171 31.8761 3.87979 31.8752 3.71788C31.8706 2.67858 31.9439 1.84612 32.5266 0.95496C33.1749 0.33484 33.8351 -0.00776694 34.7303 -0.0115607Z" fill="black"/>
<path d="M36.0688 7.01556C36.158 7.01472 36.2471 7.01388 36.3389 7.01301C36.437 7.0126 36.5351 7.01218 36.6361 7.01175C36.7392 7.01095 36.8422 7.01015 36.9484 7.00933C37.2906 7.0069 37.6328 7.00529 37.9749 7.00388C38.0916 7.00336 38.2082 7.00284 38.3284 7.00231C38.9457 6.9997 39.563 6.99781 40.1803 6.9964C40.8187 6.99477 41.4571 6.9904 42.0955 6.98542C42.5856 6.98214 43.0758 6.98101 43.566 6.98046C43.8014 6.9798 44.0367 6.97831 44.2721 6.97598C44.6013 6.9729 44.9304 6.97288 45.2596 6.9736C45.3571 6.972 45.4545 6.9704 45.555 6.96875C46.0106 6.97286 46.2206 6.97904 46.5937 7.25998C46.7773 7.51887 46.7773 7.51887 46.8384 7.81184C46.7533 8.22038 46.6225 8.34158 46.2891 8.59309C45.9471 8.66509 45.6111 8.65881 45.2627 8.65472C45.1078 8.65577 45.1078 8.65577 44.9498 8.65684C44.6087 8.65849 44.2677 8.65659 43.9266 8.6545C43.6896 8.65458 43.4526 8.65482 43.2156 8.65522C42.719 8.6555 42.2224 8.65406 41.7259 8.65138C41.0889 8.64805 40.4519 8.64864 39.8149 8.65047C39.3256 8.6515 38.8363 8.65063 38.3469 8.64916C38.112 8.64865 37.8771 8.6487 37.6422 8.64931C37.3142 8.64984 36.9863 8.64786 36.6583 8.64518C36.5122 8.64614 36.5122 8.64614 36.3632 8.64711C35.7074 8.638 35.7074 8.638 35.3916 8.41245C35.2107 8.13659 35.163 7.94656 35.1562 7.61652C35.3828 7.13116 35.548 7.01921 36.0688 7.01556Z" fill="black"/>
<path d="M39.9263 3.59523C39.9953 3.59443 40.0642 3.59363 40.1352 3.59281C40.3637 3.59038 40.5922 3.58877 40.8207 3.58736C40.8987 3.58684 40.9767 3.58632 41.0571 3.58578C41.4697 3.58317 41.8824 3.58128 42.295 3.57987C42.7215 3.57825 43.1479 3.57387 43.5744 3.5689C43.9022 3.56562 44.2299 3.56449 44.5576 3.56393C44.7148 3.56328 44.8721 3.56179 45.0293 3.55945C45.2493 3.55637 45.4692 3.55636 45.6892 3.55708C45.877 3.5559 45.877 3.5559 46.0686 3.55469C46.3849 3.61406 46.3849 3.61406 46.6215 3.84875C46.7798 4.10938 46.8239 4.2093 46.7816 4.50518C46.7747 4.56988 46.7677 4.63459 46.7606 4.70125C46.6346 4.97892 46.4605 5.044 46.1895 5.17656C45.8746 5.21442 45.8746 5.21442 45.5143 5.21602C45.4484 5.21669 45.3824 5.21736 45.3145 5.21805C45.0975 5.21983 44.8806 5.21946 44.6637 5.21891C44.5123 5.21935 44.3609 5.21987 44.2095 5.22046C43.8926 5.22133 43.5758 5.22109 43.2589 5.22012C42.8533 5.219 42.4479 5.22097 42.0423 5.22382C41.7298 5.22562 41.4173 5.22559 41.1048 5.22503C40.9553 5.22502 40.8058 5.22561 40.6563 5.22682C40.4471 5.22828 40.238 5.22723 40.0288 5.22556C39.9099 5.22554 39.791 5.22553 39.6686 5.22551C39.2933 5.16719 39.1322 5.05115 38.8653 4.78594C38.7225 4.44663 38.7567 4.32492 38.8958 3.98027C39.1714 3.53118 39.4241 3.60027 39.9263 3.59523Z" fill="black"/>
<path d="M36.3647 3.58329C36.4305 3.58046 36.4962 3.57762 36.5639 3.57471C36.8967 3.57045 37.0775 3.59034 37.3486 3.78966C37.568 4.10089 37.5465 4.31622 37.5 4.68802C37.3281 4.99906 37.256 5.06234 36.9141 5.17631C36.387 5.2221 35.909 5.26134 35.4309 5.01761C35.2115 4.73014 35.1562 4.56149 35.1562 4.19974C35.4406 3.59052 35.7391 3.59217 36.3647 3.58329Z" fill="black"/>
</g>
<defs>
<clipPath id="clip0_118_130">
<rect width="50" height="50" fill="white"/>
</clipPath>
</defs>
</svg>
