<svg width="512" height="512" viewBox="0 0 512 512" fill="none" xmlns="http://www.w3.org/2000/svg">
<path d="M357.26 224.045C361.597 219.026 364.802 213.131 366.657 206.762C368.513 200.393 368.974 193.699 368.012 187.136L354.398 91.3369C351.254 69.6495 340.42 49.8145 323.872 35.4482C307.324 21.0819 286.164 13.1413 264.25 13.0743H117.873C106.74 13.138 95.8425 16.2801 86.3849 22.1531V18.2857C86.3801 13.4375 84.452 8.78928 81.0238 5.3611C77.5956 1.93292 72.9474 0.00484092 68.0993 0H19.2857C14.4375 0.00484092 9.78928 1.93292 6.3611 5.3611C2.93292 8.78928 1.00484 13.4375 1 18.2857V234.843C1.00484 239.691 2.93292 244.339 6.3611 247.767C9.78928 251.196 14.4375 253.124 19.2857 253.129H68.0993C72.9474 253.124 77.5956 251.196 81.0238 247.767C84.452 244.339 86.3801 239.691 86.3849 234.843V45.129C90.4645 40.8687 95.3474 37.4586 100.752 35.0953C106.156 32.732 111.975 31.4625 117.873 31.3599H264.25C281.763 31.4092 298.675 37.7525 311.9 49.2326C325.126 60.7128 333.784 76.5647 336.295 93.8969L349.918 189.75C350.477 193.731 350.177 197.785 349.037 201.64C347.897 205.494 345.945 209.06 343.311 212.096C340.678 215.133 337.424 217.57 333.769 219.243C330.114 220.916 326.143 221.787 322.124 221.796H230.604C224.314 221.791 218.278 224.281 213.822 228.721C209.366 233.16 206.852 239.186 206.833 245.476V362.139C206.833 376.493 191.473 386.577 178.563 392.52C177.613 392.991 176.552 393.192 175.496 393.1C174.439 393.008 173.429 392.627 172.574 391.999C171.741 391.403 171.094 390.584 170.705 389.636C170.317 388.688 170.204 387.65 170.38 386.641C174.068 348.673 168.066 310.391 152.936 275.373C148.611 264.374 121.256 213.878 107.13 228.671C105.487 230.455 104.62 232.818 104.72 235.241C104.819 237.663 105.877 239.947 107.66 241.59C145.859 272.859 157.745 354.833 152.222 384.511C151.741 388.756 152.397 393.052 154.124 396.96C155.85 400.868 158.584 404.246 162.046 406.749C165.508 409.252 169.574 410.789 173.826 411.203C178.077 411.617 182.363 410.893 186.243 409.105C211.669 397.402 225.118 381.156 225.118 362.129V245.485C225.124 244.771 225.271 244.064 225.55 243.407C225.829 242.749 226.234 242.153 226.744 241.652C227.253 241.151 227.856 240.755 228.519 240.487C229.181 240.22 229.89 240.085 230.604 240.091H322.124C328.79 240.1 335.38 238.672 341.445 235.905C347.51 233.137 352.907 229.096 357.269 224.054L357.26 224.045ZM68.0993 234.834H19.2857V18.2857H68.0993V234.834ZM435.285 482.614C328.88 534.033 230.458 398.957 314.288 313.965C316.012 312.259 316.988 309.938 317.001 307.513C317.014 305.088 316.063 302.756 314.357 301.032C312.651 299.308 310.33 298.333 307.905 298.32C305.48 298.307 303.148 299.258 301.424 300.964C223.381 377.023 279.244 512.675 388.309 511.98C400.889 512.428 456.286 505.215 447.573 486.655C446.478 484.49 444.569 482.849 442.265 482.091C439.961 481.334 437.45 481.521 435.285 482.614ZM388.309 265.133C376.149 264.776 321.347 271.469 329.813 289.892C330.339 290.971 331.072 291.936 331.971 292.732C332.87 293.528 333.917 294.139 335.053 294.529C336.188 294.92 337.389 295.083 338.588 295.009C339.786 294.935 340.958 294.625 342.037 294.098C447.271 242.605 545.373 379.373 462.933 462.545C461.218 464.261 460.256 466.587 460.256 469.012C460.257 471.438 461.222 473.763 462.937 475.478C464.653 477.192 466.979 478.155 469.404 478.154C471.83 478.153 474.155 477.189 475.87 475.473C553.063 399.167 496.834 264.383 388.309 265.133Z" fill="white"/>
<path d="M345.52 339.646C342.149 339.646 338.917 340.985 336.534 343.369C334.15 345.752 332.811 348.985 332.811 352.355C332.811 355.726 334.15 358.958 336.534 361.341C338.917 363.725 342.149 365.064 345.52 365.064C348.891 365.064 352.123 363.725 354.506 361.341C356.89 358.958 358.229 355.726 358.229 352.355C358.229 348.985 356.89 345.752 354.506 343.369C352.123 340.985 348.891 339.646 345.52 339.646ZM443.897 352.355C443.897 348.985 442.558 345.752 440.175 343.369C437.791 340.985 434.559 339.646 431.188 339.646C427.818 339.646 424.585 340.985 422.202 343.369C419.819 345.752 418.48 348.985 418.48 352.355C418.48 355.726 419.819 358.958 422.202 361.341C424.585 363.725 427.818 365.064 431.188 365.064C434.559 365.064 437.791 363.725 440.175 361.341C442.558 358.958 443.897 355.726 443.897 352.355ZM332.839 450.951C334.773 452.411 337.208 453.043 339.608 452.709C342.008 452.375 344.177 451.101 345.639 449.168C350.66 442.61 357.123 437.296 364.529 433.638C371.935 429.98 380.083 428.077 388.343 428.076C396.603 428.075 404.751 429.977 412.158 433.633C419.564 437.289 426.029 442.602 431.051 449.159C432.542 451.008 434.693 452.205 437.051 452.496C439.408 452.786 441.786 452.148 443.681 450.717C445.576 449.285 446.839 447.172 447.204 444.825C447.568 442.478 447.005 440.081 445.634 438.142C438.944 429.275 430.288 422.082 420.346 417.129C410.404 412.176 399.448 409.598 388.34 409.598C377.233 409.598 366.277 412.176 356.335 417.129C346.393 422.082 337.737 429.275 331.047 438.142C329.588 440.078 328.957 442.513 329.293 444.913C329.629 447.313 330.905 449.482 332.839 450.942V450.951Z" fill="white"/>
</svg>
