<svg width="90" height="90" viewBox="0 0 90 90" fill="none" xmlns="http://www.w3.org/2000/svg">
<g clip-path="url(#clip0_348_1433)">
<mask id="mask0_348_1433" style="mask-type:luminance" maskUnits="userSpaceOnUse" x="0" y="0" width="90" height="90">
<path d="M90 0H0V90H90V0Z" fill="white"/>
</mask>
<g mask="url(#mask0_348_1433)">
<path d="M63.2721 69.254H72.4235C73.9109 69.254 75.3319 68.647 76.3754 67.5755C77.418 66.505 77.9992 65.0585 77.9992 63.5556V16.5714C77.9992 15.0685 77.418 13.622 76.3754 12.5515C75.3319 11.48 73.9109 10.873 72.4235 10.873H17.5152C16.0278 10.873 14.6068 11.48 13.5633 12.5515C12.5207 13.622 11.9395 15.0685 11.9395 16.5714V63.5556C11.9395 65.0585 12.5207 66.505 13.5633 67.5755C14.6068 68.647 16.0278 69.254 17.5152 69.254H26.6666H63.2721Z" stroke="black" stroke-width="2"/>
<path d="M21.5 39.3H37.8333V42.5H21.5V39.3ZM21.5 30.9H46.5V34.1H21.5V30.9ZM21.5 22.5H46.5V25.7H21.5V22.5Z" stroke="black"/>
<path d="M14.0157 69.3582L22.06 56.1492L32.68 64.7253C33.001 64.9896 33.3824 65.1834 33.7956 65.2924C34.2088 65.4015 34.6434 65.4229 35.0668 65.3551C35.4902 65.2872 35.8916 65.132 36.2412 64.9007C36.5908 64.6695 36.8794 64.3684 37.0857 64.0197L47.0429 50.2729L44.67 48.8008L34.67 62.6071L34.57 62.7432L23.9486 54.1671C23.6276 53.9044 23.247 53.7117 22.8348 53.6032C22.4225 53.4948 21.9893 53.4734 21.5669 53.5407C21.1445 53.6079 20.7439 53.762 20.3945 53.9917C20.0452 54.2213 19.7561 54.5206 19.5486 54.8675L13 65.6358" stroke="black"/>
<path d="M72.5 21.5H53.5V32.5H72.5V21.5Z" stroke="black"/>
<path d="M72.5 47.5H53.5V58.5H72.5V47.5Z" stroke="black"/>
<path d="M72.5 37.5H53.5V42.5H72.5V37.5Z" stroke="black"/>
</g>
</g>
<defs>
<clipPath id="clip0_348_1433">
<rect width="90" height="90" fill="white"/>
</clipPath>
</defs>
</svg>
