<svg width="90" height="90" viewBox="0 0 90 90" fill="none" xmlns="http://www.w3.org/2000/svg">
<path d="M78.5584 16.0029H12.0319C11.8394 16.0138 11.6532 16.0749 11.4914 16.1798C11.3482 16.3069 11.2413 16.4697 11.1816 16.6516V59.1308C11.2935 59.6798 11.5311 60.1952 11.8756 60.6371C12.2548 61.0116 12.725 61.2809 13.24 61.4184H77.0157C77.4921 61.3553 77.9422 61.1633 78.3175 60.8633C78.6089 60.4284 78.7817 59.9247 78.8185 59.4024V16.9043C78.8059 16.6487 78.6951 16.408 78.5088 16.2324C78.2476 16.0816 77.9514 16.0016 77.6498 16H69.6939" stroke="black" stroke-width="2" stroke-linecap="square" stroke-linejoin="round"/>
<path d="M34.0371 73.1387H56.8928" stroke="black" stroke-width="2" stroke-linecap="square"/>
<path d="M39.752 71.996V61.7109" stroke="black" stroke-width="2" stroke-linecap="square"/>
<path d="M51 73.1387L51.1792 61.7109" stroke="black" stroke-width="2" stroke-linecap="square"/>
<path d="M50.6911 40.8512L44 37.5057L50.6911 34.1602" stroke="black" stroke-width="2" stroke-linecap="square" stroke-linejoin="round"/>
<path d="M61.9375 40.8512L68.6286 37.5057L61.9375 34.1602" stroke="black" stroke-width="2" stroke-linecap="square" stroke-linejoin="round"/>
<path d="M54.3066 44.1966L58.3213 30.8145" stroke="black" stroke-width="2" stroke-linecap="square"/>
<path d="M11 25.1406H34" stroke="black" stroke-width="2"/>
<path d="M11 30.1406H27.2917" stroke="black" stroke-width="2"/>
<path d="M11 45.1406H27.2917" stroke="black" stroke-width="2"/>
<path d="M11 40.1406H21.5417" stroke="black" stroke-width="2"/>
<path d="M11 50.1406H17.7083" stroke="black" stroke-width="2"/>
<path d="M11 35.1406H32.0833" stroke="black" stroke-width="2"/>
<path d="M38 25.1406H74V50.1406H38V25.1406Z" stroke="black" stroke-width="2"/>
</svg>
