<svg width="300" height="300" viewBox="0 0 300 300" fill="none" xmlns="http://www.w3.org/2000/svg">
<path d="M126.249 36.6667H177.084C181.76 36.6647 186.287 37.913 190.034 40.192C193.778 42.4694 196.519 45.634 197.977 49.1834L198.826 51.25H201.06H227.917C233.922 51.25 239.599 53.3077 243.715 56.8504C247.816 60.3794 250.001 65.0494 250.001 69.7917V244.792C250.001 249.534 247.816 254.204 243.715 257.733C239.599 261.276 233.922 263.333 227.917 263.333H75.4173C69.4123 263.333 63.7356 261.276 59.6193 257.733C55.5186 254.204 53.334 249.534 53.334 244.792V69.7917C53.334 65.0494 55.5186 60.3794 59.6193 56.8504C63.7356 53.3077 69.4123 51.25 75.4173 51.25H102.274H104.509L105.358 49.1834C106.816 45.634 109.557 42.4694 113.301 40.192C117.048 37.913 121.573 36.6647 126.249 36.6667ZM198.265 142.396C202.371 142.396 206.392 140.996 209.425 138.385C212.474 135.761 214.306 132.085 214.306 128.125C214.306 124.165 212.474 120.489 209.425 117.865C206.392 115.254 202.371 113.854 198.265 113.854C194.158 113.854 190.138 115.254 187.104 117.865C184.055 120.489 182.223 124.165 182.223 128.125C182.223 132.085 184.055 135.761 187.104 138.385C190.138 140.996 194.158 142.396 198.265 142.396ZM198.265 186.146C202.371 186.146 206.392 184.746 209.425 182.135C212.474 179.511 214.306 175.835 214.306 171.875C214.306 167.915 212.474 164.239 209.425 161.615C206.392 159.004 202.371 157.604 198.265 157.604C194.158 157.604 190.138 159.004 187.104 161.615C184.055 164.239 182.223 167.915 182.223 171.875C182.223 175.835 184.055 179.511 187.104 182.135C190.138 184.746 194.158 186.146 198.265 186.146ZM182.223 215.625C182.223 219.585 184.055 223.261 187.104 225.885C190.138 228.496 194.158 229.896 198.265 229.896C202.371 229.896 206.392 228.496 209.425 225.885C212.474 223.261 214.306 219.585 214.306 215.625C214.306 211.665 212.474 207.989 209.425 205.365C206.392 202.754 202.371 201.354 198.265 201.354C194.158 201.354 190.138 202.754 187.104 205.365C184.055 207.989 182.223 211.665 182.223 215.625ZM171.945 128.125C171.945 125.132 170.559 122.383 168.305 120.443C166.066 118.515 163.122 117.5 160.14 117.5H100.834C97.851 117.5 94.908 118.515 92.6687 120.443C90.414 122.383 89.0283 125.132 89.0283 128.125C89.0283 131.118 90.414 133.867 92.6687 135.807C94.908 137.735 97.851 138.75 100.834 138.75H160.14C163.122 138.75 166.066 137.735 168.305 135.807C170.559 133.867 171.945 131.118 171.945 128.125ZM171.945 171.875C171.945 168.882 170.559 166.133 168.305 164.193C166.066 162.265 163.122 161.25 160.14 161.25H100.834C97.851 161.25 94.908 162.265 92.6687 164.193C90.414 166.133 89.0283 168.882 89.0283 171.875C89.0283 174.868 90.414 177.617 92.6687 179.557C94.908 181.485 97.851 182.5 100.834 182.5H160.14C163.122 182.5 166.066 181.485 168.305 179.557C170.559 177.617 171.945 174.868 171.945 171.875ZM171.945 215.625C171.945 212.632 170.559 209.883 168.305 207.943C166.066 206.015 163.122 205 160.14 205H100.834C97.851 205 94.908 206.015 92.6687 207.943C90.414 209.883 89.0283 212.632 89.0283 215.625C89.0283 218.618 90.414 221.367 92.6687 223.307C94.908 225.235 97.851 226.25 100.834 226.25H160.14C163.122 226.25 166.066 225.235 168.305 223.307C170.559 221.367 171.945 218.618 171.945 215.625Z" stroke="black" stroke-width="6"/>
<path d="M120.259 63.6977C118.67 62.3303 117.777 60.4757 117.777 58.5417C117.777 56.6077 118.67 54.753 120.259 53.3857C121.848 52.0183 124.003 51.25 126.25 51.25H177.083C179.33 51.25 181.485 52.0183 183.074 53.3857C184.663 54.753 185.555 56.6077 185.555 58.5417C185.555 60.4757 184.663 62.3303 183.074 63.6977C181.485 65.065 179.33 65.8333 177.083 65.8333H126.25C124.003 65.8333 121.848 65.065 120.259 63.6977Z" stroke="black" stroke-width="6"/>
</svg>
