<svg width="512" height="512" viewBox="0 0 512 512" fill="none" xmlns="http://www.w3.org/2000/svg">
<g clip-path="url(#clip0_444_681)">
<path d="M256.5 37.4375C257.599 37.4046 257.599 37.4046 258.719 37.3711C263.139 38.5895 265.579 42.3145 267.894 46.0835C268.774 47.7863 268.774 47.7863 269.672 49.5234C269.996 50.1422 270.32 50.761 270.653 51.3986C271.34 52.7116 272.022 54.0267 272.701 55.3437C274.461 58.7517 276.259 62.1402 278.051 65.5312C278.399 66.1903 278.746 66.8493 279.104 67.5283C287.706 83.8297 294.976 95.2525 313 102C316.906 103.018 320.658 103.196 324.688 103.25C325.826 103.276 326.964 103.302 328.137 103.328C339.227 102.386 348.95 96.9006 358.813 92.125C387.685 78.1835 387.685 78.1835 393.063 79.375C396.498 81.2756 398.118 82.5362 400 86C400.366 91.7501 399.582 96.4901 397.816 101.979C397.584 102.733 397.351 103.487 397.112 104.264C396.344 106.744 395.561 109.217 394.778 111.691C394.233 113.441 393.689 115.19 393.146 116.94C391.714 121.549 390.268 126.153 388.819 130.757C387.373 135.361 385.938 139.969 384.502 144.576C383.94 146.38 383.377 148.184 382.814 149.989C382.539 150.871 382.264 151.753 381.981 152.662C380.63 156.993 379.278 161.323 377.926 165.653C377.672 166.464 377.419 167.276 377.158 168.112C375.649 172.938 374.126 177.759 372.595 182.578C371.939 184.665 371.284 186.752 370.629 188.84C370.19 190.197 370.19 190.197 369.742 191.581C369.365 192.796 369.365 192.796 368.979 194.035C368.655 195.053 368.655 195.053 368.324 196.092C367.933 198.397 368.204 199.81 369 202C370.558 203.83 372.196 205.593 373.875 207.312C405.553 240.768 416.067 283.025 415.132 327.98C414.914 335.834 413.896 343.379 412 351C411.702 352.2 411.702 352.2 411.398 353.423C403.941 382.319 389.512 406.477 369 428C368.001 429.079 368.001 429.079 366.981 430.18C351.17 446.756 321.638 467.442 297.813 468.625C293.651 467.943 291.869 467.048 289 464C287.41 460.819 287.211 457.417 288 454C291.7 448.275 295.39 446.672 301.75 444.688C336.947 432.659 364.049 407.154 380.637 374.102C384.655 365.703 387.53 356.963 390 348C390.192 347.314 390.384 346.627 390.582 345.92C395.67 326.675 395.043 302.157 390 283C389.829 282.346 389.657 281.692 389.48 281.019C383.867 260.202 374.267 241.208 360 225C359.242 224.098 358.484 223.195 357.703 222.266C335.968 197.12 302.019 180.818 269 178C229.956 176.229 194.781 186.076 165 212C164.297 212.571 163.593 213.142 162.868 213.73C157.095 218.496 152.565 224.093 148 230C147.33 230.855 146.66 231.709 145.969 232.59C123.79 261.854 115.416 297.947 119.496 334.273C123.076 359.709 134.189 384.605 151 404C151.663 404.795 152.325 405.591 153.008 406.41C168.821 424.819 190.135 438.561 213.188 446.062C216.673 447.299 218.023 448.022 220.75 450.688C222.412 455.09 222.465 458.52 221 463C217.724 466.745 214.862 467.574 210 468C189.471 463.559 168.557 450.728 153 437C152.125 436.234 151.25 435.469 150.348 434.68C119.885 407.653 101.275 371.565 97.0003 331C96.7209 325.933 96.6662 320.886 96.6878 315.812C96.6893 315.139 96.6908 314.466 96.6923 313.772C96.7366 302.611 97.5159 291.89 100 281C100.145 280.347 100.289 279.695 100.438 279.022C107.179 249.364 122.52 222.48 144 201C142.707 191.119 139.225 181.588 136.258 172.105C135.687 170.268 135.117 168.43 134.547 166.592C133.05 161.77 131.547 156.951 130.044 152.132C128.524 147.26 127.011 142.387 125.496 137.514C123.526 131.172 121.553 124.83 119.576 118.49C118.834 116.106 118.092 113.721 117.351 111.337C116.494 108.579 115.629 105.824 114.756 103.072C114.393 101.918 114.03 100.764 113.656 99.5754C113.345 98.5952 113.034 97.6149 112.713 96.6049C111.346 91.6098 111.009 87.825 113.563 83.125C116.636 80.4456 118.912 78.9311 123 79C134.26 82.2951 144.907 88.1158 155.434 93.2124C171.754 101.097 185.775 106.63 203.961 100.324C217.108 94.5958 224.091 84.6293 230.483 72.2268C231.453 70.3453 232.437 68.4717 233.426 66.5996C234.715 64.1564 236.002 61.7116 237.284 59.2646C239.358 55.32 241.455 51.3923 243.625 47.5C244.449 45.9995 244.449 45.9995 245.289 44.4688C248.209 40.2557 251.216 37.4282 256.5 37.4375ZM255 71C254.709 71.5785 254.418 72.1571 254.118 72.7532C242.514 95.6751 231.393 113.18 206 122C182.989 129.351 161.498 119.832 141 110C139.67 113.991 140.652 115.855 141.906 119.858C142.228 120.898 142.228 120.898 142.556 121.958C143.267 124.249 143.991 126.537 144.715 128.824C145.211 130.412 145.705 131.999 146.199 133.587C147.502 137.767 148.815 141.943 150.13 146.119C151.47 150.38 152.8 154.644 154.131 158.908C156.744 167.275 159.369 175.639 162 184C166.678 184 168.918 182.435 172.688 180C208.174 158.028 251.275 150.997 292.093 160.281C310.958 164.945 329.43 172.307 345.524 183.359C347.783 185.184 347.783 185.184 350 185C352.896 175.667 355.783 166.332 358.657 156.993C359.992 152.656 361.331 148.321 362.676 143.988C363.974 139.808 365.264 135.626 366.547 131.442C367.039 129.844 367.534 128.247 368.032 126.651C368.727 124.42 369.412 122.185 370.094 119.95C370.304 119.287 370.513 118.625 370.729 117.942C371.704 114.704 372.099 113.295 371 110C370.341 110.318 369.682 110.635 369.004 110.962C348.447 120.803 329.265 128.418 306.278 122.156C280.032 112.897 269.155 94.7346 257 71C256.34 71 255.68 71 255 71Z" fill="black"/>
<path d="M259 226C264.743 229.035 267.57 233.192 271.062 238.563C271.616 239.39 272.17 240.218 272.74 241.07C274.504 243.707 276.253 246.352 278 249C280.32 252.509 282.656 256.007 285 259.5C285.527 260.306 286.055 261.113 286.598 261.944C287.102 262.694 287.606 263.445 288.125 264.219C288.561 264.878 288.996 265.537 289.445 266.217C293.678 271.071 299.761 272.312 305.719 274.031C306.654 274.308 307.59 274.586 308.554 274.871C311.534 275.754 314.517 276.628 317.5 277.5C321.429 278.648 325.356 279.806 329.281 280.969C330.18 281.228 331.079 281.488 332.006 281.755C342.602 284.897 342.602 284.897 345.293 288.945C346.671 292.951 346.393 296.11 345 300C342.133 304.303 338.892 308.213 335.549 312.152C333.058 315.123 330.691 318.189 328.312 321.25C327.476 322.319 326.639 323.386 325.801 324.453C325.197 325.242 325.197 325.242 324.581 326.047C323 328 323 328 320.994 330.114C316.017 335.609 314.097 339.345 314.297 346.78C314.367 347.829 314.436 348.877 314.508 349.957C314.565 351.616 314.565 351.616 314.624 353.309C314.752 356.813 314.936 360.311 315.125 363.813C315.282 367.331 315.427 370.85 315.562 374.37C315.649 376.552 315.751 378.734 315.869 380.914C315.915 381.903 315.961 382.891 316.008 383.909C316.078 385.207 316.078 385.207 316.149 386.53C315.901 390.646 314.647 393.296 311.875 396.313C308.173 398.486 305.155 398.5 301 398C297.572 397.067 294.318 395.786 291.023 394.465C290.095 394.107 289.166 393.75 288.209 393.382C284.259 391.861 280.322 390.31 276.385 388.761C273.498 387.629 270.605 386.515 267.711 385.402C266.826 385.047 265.942 384.692 265.031 384.326C256.459 381.035 250.998 383.202 242.727 386.379C240.914 387.06 239.102 387.74 237.289 388.42C234.454 389.49 231.621 390.564 228.791 391.646C226.045 392.694 223.292 393.725 220.539 394.754C219.702 395.079 218.866 395.404 218.004 395.739C212.76 397.684 208.6 398.5 203 398C200.19 396.206 198.491 394.981 197 392C196.975 390.357 197.018 388.712 197.093 387.07C197.135 386.041 197.177 385.011 197.22 383.951C197.266 382.83 197.312 381.709 197.359 380.555C197.461 376.922 197.55 373.29 197.639 369.657C197.712 367.16 197.807 364.664 197.926 362.168C198.988 344.179 198.988 344.179 190.859 328.797C189.134 326.974 187.375 325.218 185.547 323.497C183.537 321.552 181.91 319.418 180.281 317.148C179.804 316.505 179.327 315.862 178.836 315.199C178.175 314.296 178.175 314.296 177.5 313.375C176.554 312.09 175.606 310.806 174.656 309.523C174.217 308.929 173.777 308.334 173.324 307.722C172.014 306.018 170.633 304.407 169.219 302.789C166.074 298.835 166 297 166 292C166.812 288.75 166.812 288.75 169 286C175.01 282.593 182.031 281.135 188.664 279.406C191.387 278.682 194.11 277.956 196.832 277.23C198.694 276.744 200.56 276.271 202.429 275.813C215.504 272.869 215.504 272.869 224.938 264.086C225.997 262.077 227.022 260.05 228 258C228.915 256.587 229.858 255.191 230.836 253.82C231.255 253.208 231.675 252.596 232.107 251.965C233.931 249.317 235.76 246.673 237.593 244.031C238.533 242.674 239.47 241.315 240.403 239.953C241.739 238.004 243.087 236.064 244.438 234.125C244.838 233.536 245.239 232.947 245.652 232.34C249.391 227.022 252.456 225.215 259 226ZM255 256C253.323 258.163 253.323 258.163 251.562 261C250.505 262.624 250.505 262.624 249.426 264.281C249.04 264.876 248.654 265.47 248.256 266.082C245.963 269.583 243.609 273.043 241.25 276.5C240.791 277.182 240.331 277.864 239.858 278.566C234.617 286.24 230.555 288.855 221.625 291.5C220.646 291.8 219.667 292.101 218.658 292.41C215.776 293.289 212.89 294.149 210 295C209.209 295.233 208.417 295.466 207.602 295.707C203.743 296.836 199.877 297.935 196 299C196 303.134 197.683 304.471 200.25 307.688C200.883 308.506 200.883 308.506 201.529 309.341C203.969 312.492 206.455 315.53 209.16 318.458C218.835 329.382 219.543 338.315 218.75 352.5C218.69 354.402 218.635 356.305 218.586 358.207C218.455 362.809 218.249 367.403 218 372C223.473 370.466 228.82 368.737 234.129 366.703C235.184 366.302 236.239 365.901 237.326 365.488C239.492 364.659 241.654 363.818 243.811 362.965C256.614 358.157 265.217 361.871 277.438 366.563C279.495 367.344 281.554 368.122 283.614 368.896C285.465 369.594 287.314 370.3 289.162 371.006C291.813 372.11 291.813 372.11 294 372C293.969 370.835 293.937 369.671 293.905 368.471C293.796 364.116 293.727 359.761 293.67 355.405C293.64 353.526 293.6 351.647 293.547 349.769C293.037 330.915 293.037 330.915 298.333 324.723C298.883 324.154 299.433 323.586 300 323C300.938 321.788 301.865 320.568 302.781 319.34C303.684 318.203 304.591 317.069 305.5 315.938C306.455 314.736 307.41 313.534 308.363 312.332C309.041 311.479 309.041 311.479 309.733 310.608C312.219 307.453 314.611 304.229 317 301C316.102 298.625 316.102 298.625 312.845 297.887C311.446 297.479 310.044 297.08 308.641 296.688C307.529 296.366 307.529 296.366 306.394 296.038C304.015 295.351 301.633 294.675 299.25 294C296.882 293.323 294.515 292.644 292.149 291.962C290.675 291.538 289.2 291.117 287.725 290.7C280.302 288.578 280.302 288.578 277 287C276.047 284.891 276.047 284.891 275 282C273.204 279.165 271.22 276.466 269.25 273.75C268.163 272.236 267.077 270.722 265.992 269.207C265.474 268.483 264.955 267.76 264.421 267.014C262.202 263.868 260.123 260.637 258.086 257.371C257.548 256.692 257.548 256.692 257 256C256.34 256 255.68 256 255 256Z" fill="black"/>
<path d="M486 210C505.735 231.162 512.05 273.414 512.203 301.328C512.21 302.191 512.217 303.054 512.224 303.943C512.241 306.712 512.248 309.481 512.25 312.25C512.25 313.195 512.251 314.14 512.252 315.114C512.236 328.642 511.883 341.736 509 355C508.833 355.831 508.667 356.661 508.496 357.517C504.909 375.311 498.902 392.184 491.25 408.625C490.703 409.807 490.703 409.807 490.145 411.012C488.247 414.95 486.525 418.262 483 421C478.355 422.124 476.128 422.397 471.625 420.813C467.87 418.22 467.87 418.22 467 415C466.346 407.868 468.274 403.557 471.562 397.313C482.728 374.909 489.986 349.472 490.238 324.313C490.248 323.501 490.258 322.689 490.268 321.853C490.439 303.909 490.319 286.531 486 269C485.775 268.083 485.55 267.165 485.318 266.22C482.167 253.751 478.241 241.482 472.476 229.953C469.857 224.715 468.184 220.773 469.281 214.879C470.438 211.853 472.247 210.573 475 209C478.925 207.692 482.309 208.257 486 210Z" fill="black"/>
<path d="M38.9991 209C41.8694 210.794 43.4905 211.983 44.9991 215C45.7021 222.117 43.714 226.463 40.4366 232.687C29.2778 255.078 22.0138 280.507 21.7609 305.652C21.746 306.866 21.746 306.866 21.7309 308.103C21.4141 340.792 24.9024 371.937 40.2928 401.421C43.0015 406.853 43.5911 411.071 41.9991 417C40.3166 419.692 39.1618 420.652 36.1319 421.559C32.7955 422.169 30.5372 422.188 27.3116 421.062C21.781 416.13 18.844 408.926 16.0616 402.187C15.5507 400.956 15.5507 400.956 15.0294 399.699C10.2172 387.865 6.44079 375.802 3.74913 363.312C3.52242 362.264 3.52242 362.264 3.29113 361.195C0.365695 346.694 -0.410321 332.375 -0.375867 317.625C-0.374991 316.704 -0.374115 315.783 -0.373212 314.834C-0.325481 299.57 0.560911 284.93 3.99913 270C4.35322 268.459 4.35322 268.459 4.71446 266.886C19.2332 206.087 19.2332 206.087 38.9991 209Z" fill="black"/>
<path d="M449 244C453.657 245.733 454.957 248.441 456.999 252.677C458.708 256.643 459.906 260.719 461.063 264.875C461.319 265.788 461.576 266.702 461.841 267.643C465.36 280.543 467.426 293.634 468 307C468.041 307.826 468.083 308.653 468.125 309.504C468.68 331.661 465.877 367.112 451 385C447.295 387.298 444.338 387.38 440 387C437.177 385.745 435.537 384.716 433.688 382.25C431.9 376.399 433.226 371.769 435.688 366.375C449.533 333.981 449.597 294.404 436.625 261.75C434.779 256.923 434.452 253.99 436 249C440.019 244.407 442.953 243.12 449 244Z" fill="black"/>
<path d="M72.0007 243C74.9712 244.79 77.4257 246.85 79.0007 250C79.3833 255.33 78.5168 258.796 76.3132 263.625C62.6467 295.6 62.4199 334.202 74.8132 366.563C76.8392 372.032 77.8329 375.402 76.0007 381C73.9446 384.084 72.545 385.684 68.8445 386.441C64.9422 386.643 62.8028 386.496 59.407 384.395C56.5762 381.578 55.2886 378.823 54.0007 375.125C53.7529 374.433 53.5051 373.741 53.2497 373.028C47.6767 356.795 44.9972 340.089 44.0007 323C43.9401 322.004 43.8795 321.007 43.8171 319.98C43.2853 300.115 47.0702 279.902 53.5007 261.188C53.7852 260.357 54.0697 259.527 54.3628 258.672C57.5392 249.852 61.2581 241.518 72.0007 243Z" fill="black"/>
<path d="M261 454C264.165 456.26 265.55 457.83 266.938 461.438C267.043 465.746 265.785 468.807 263.438 472.375C259.749 474.834 256.303 474.782 252 474C249.13 472.206 247.509 471.017 246 468C245.358 463.329 245.38 460.013 247.875 455.938C252.262 453.218 255.967 452.967 261 454Z" fill="black"/>
</g>
<defs>
<clipPath id="clip0_444_681">
<rect width="512" height="512" fill="white"/>
</clipPath>
</defs>
</svg>
