<svg width="190" height="190" viewBox="0 0 190 190" fill="none" xmlns="http://www.w3.org/2000/svg">
<path d="M52.6648 31.6289V52.6646H31.6291V31.6289H52.6648ZM21.1113 21.1111V63.1826H63.1828V21.1111H21.1113ZM105.254 47.4058V68.4414H84.2186V47.4058H105.254ZM73.7006 36.8878V78.9593H115.772V36.8878H73.7006ZM52.6648 94.7361V115.772H31.6291V94.7361H52.6648ZM21.1113 84.2183V126.29H63.1828V84.2183H21.1113Z" stroke="black" stroke-width="6"/>
<path d="M126.291 63.1824V94.7359H94.7371V126.289H63.1836V168.361H168.362V63.1824H126.291ZM105.255 105.254H126.291V126.289H105.255V105.254ZM94.7371 157.843H73.7016V136.807H94.7371V157.843ZM126.291 157.843H105.255V136.807H126.291V157.843ZM157.844 157.843H136.809V136.807H157.844V157.843ZM157.844 126.289H136.809V105.254H157.844V126.289ZM136.809 94.7359V73.7001H157.844V94.7359H136.809Z" stroke="black" stroke-width="6"/>
</svg>
