<?xml version="1.0" encoding="UTF-8"?>
<svg version="1.1" xmlns="http://www.w3.org/2000/svg" width="512" height="512">
<path d="M0 0 C11.00984697 8.4122112 17.91755044 19.21446869 20.5 32.91015625 C21.69252007 44.06764017 20.32328305 53.39612786 16.5 63.91015625 C16.5 64.57015625 16.5 65.23015625 16.5 65.91015625 C17.96174326 67.25886951 17.96174326 67.25886951 19.91796875 68.60546875 C20.66747803 69.14856689 21.4169873 69.69166504 22.18920898 70.2512207 C23.01364502 70.83991943 23.83808105 71.42861816 24.6875 72.03515625 C26.43345111 73.30048503 28.17819877 74.56747568 29.921875 75.8359375 C30.83646484 76.50061035 31.75105469 77.1652832 32.69335938 77.85009766 C37.32114407 81.24686586 41.87843327 84.73451401 46.4375 88.22265625 C47.32139404 88.89498291 48.20528809 89.56730957 49.1159668 90.26000977 C52.87861221 93.12414464 56.62846989 95.99712122 60.31640625 98.95703125 C60.86627197 99.39104248 61.4161377 99.82505371 61.98266602 100.2722168 C63.37194141 101.37134264 64.74912319 102.48571003 66.125 103.6015625 C68.42173449 105.1351504 68.42173449 105.1351504 71.0546875 104.80078125 C73.63442535 103.86119622 75.43402777 102.7429681 77.625 101.09765625 C89.2735902 92.99428916 103.42751137 91.14826677 117.20703125 93.55859375 C128.02235844 96.34887662 136.0978215 101.79028697 144.5 108.91015625 C162.98483562 97.58025188 162.98483562 97.58025188 181.375 86.09765625 C182.14561768 85.61329102 182.91623535 85.12892578 183.71020508 84.62988281 C187.07182853 82.50370829 190.37171623 80.37511284 193.5 77.91015625 C193.2834375 77.1109375 193.066875 76.31171875 192.84375 75.48828125 C188.83454271 59.67418583 190.05704858 46.23227827 197.78125 31.73046875 C205.17634718 19.59578655 217.07526928 11.8552858 230.7578125 8.328125 C246.05155538 5.99702744 260.19347995 8.24315048 273.0703125 17.0703125 C283.82960375 25.21762147 291.14676869 36.53315683 293.5 49.91015625 C295.02666821 66.65669834 292.13173096 80.86596607 281.25 94.16015625 C271.7344342 104.38834152 259.46818653 110.0513834 245.65625 111.1328125 C230.17807639 111.60123091 217.19324829 106.72033803 205.86328125 96.23046875 C205.18845703 95.57691406 205.18845703 95.57691406 204.5 94.91015625 C195.87787673 99.32778345 187.75698108 104.44829603 179.60546875 109.66796875 C176.11559018 111.89981275 172.59738528 114.07433483 169.05078125 116.21484375 C167.7349707 117.01801025 167.7349707 117.01801025 166.39257812 117.83740234 C164.69888103 118.86983958 162.99849689 119.8914017 161.29101562 120.90087891 C160.53111328 121.36800293 159.77121094 121.83512695 158.98828125 122.31640625 C157.97568237 122.92452148 157.97568237 122.92452148 156.94262695 123.54492188 C156.46656006 123.99544922 155.99049316 124.44597656 155.5 124.91015625 C155.5 128.1651715 155.76021351 130.32771254 156.5 133.41015625 C159.14310871 146.52993501 157.35515494 159.80052308 150.5625 171.47265625 C149.56671421 172.96879975 148.54853003 174.45049208 147.5 175.91015625 C146.4171875 177.45703125 146.4171875 177.45703125 145.3125 179.03515625 C136.57488159 188.85802026 123.60642702 195.36341211 110.53125 196.1484375 C93.86110108 196.55897789 80.48326491 192.73033259 68.125 180.97265625 C57.10510409 169.23309367 54.02050744 155.40992008 54.19921875 139.7890625 C54.42977898 133.68926651 56.21885231 128.52137223 58.5 122.91015625 C58.5 122.25015625 58.5 121.59015625 58.5 120.91015625 C57.03825674 119.56144299 57.03825674 119.56144299 55.08203125 118.21484375 C54.33252197 117.67174561 53.5830127 117.12864746 52.81079102 116.5690918 C51.98635498 115.98039307 51.16191895 115.39169434 50.3125 114.78515625 C48.56654889 113.51982747 46.82180123 112.25283682 45.078125 110.984375 C44.16353516 110.31970215 43.24894531 109.6550293 42.30664062 108.97021484 C37.67885593 105.57344664 33.12156673 102.08579849 28.5625 98.59765625 C27.67860596 97.92532959 26.79471191 97.25300293 25.8840332 96.56030273 C22.12138779 93.69616786 18.37153011 90.82319128 14.68359375 87.86328125 C14.13372803 87.42927002 13.5838623 86.99525879 13.01733398 86.5480957 C11.62805859 85.44896986 10.25087681 84.33460247 8.875 83.21875 C6.57826551 81.6851621 6.57826551 81.6851621 3.9453125 82.01953125 C1.36557465 82.95911628 -0.43402777 84.0773444 -2.625 85.72265625 C-13.64167303 93.37363452 -26.80206329 95.51540833 -39.921875 93.34375 C-45.73823213 92.0638834 -51.14576445 90.52501547 -56.5 87.91015625 C-61.87946764 93.77288576 -67.05131747 99.75069609 -72.05859375 105.93359375 C-74.78530483 109.2579999 -77.57080022 112.5261366 -80.375 115.78515625 C-87.64500395 124.23754717 -94.9047966 132.69591322 -101.9375 141.34765625 C-105.41072463 145.61760624 -108.96799055 149.80513344 -112.5625 153.97265625 C-117.34404843 159.51688706 -121.98423398 165.14591374 -126.5 170.91015625 C-125.91992188 171.90982422 -125.91992188 171.90982422 -125.328125 172.9296875 C-117.23504896 187.2528295 -113.08336664 201.11516376 -116.8125 217.5078125 C-120.86904705 231.68267863 -130.18547854 243.42735072 -142.98046875 250.66015625 C-155.00168683 256.62417142 -169.25490651 257.99371273 -182.1875 254.34765625 C-195.8846629 249.56291546 -206.5117269 241.69506051 -213.5 228.91015625 C-219.47186892 214.89338111 -221.13182232 199.40085176 -215.8125 184.828125 C-209.73513113 171.3168317 -200.28867717 161.73189332 -186.54296875 156.02734375 C-173.89956571 151.38547819 -160.93720304 151.40055465 -148.26953125 155.9375 C-145.68109365 156.84655636 -143.19865919 157.44146773 -140.5 157.91015625 C-135.30577543 151.80330157 -130.1161767 145.69685365 -125.0625 139.47265625 C-120.65086945 134.05445046 -116.10676358 128.75744775 -111.55078125 123.4609375 C-104.55696189 115.32926129 -97.65857474 107.12872661 -90.89453125 98.8046875 C-87.57746435 94.79498672 -84.17468525 90.86019884 -80.74829102 86.94360352 C-77.40666905 83.08935594 -74.41295269 79.09885465 -71.5 74.91015625 C-72.04269531 74.05035156 -72.58539063 73.19054687 -73.14453125 72.3046875 C-82.24371081 57.45497896 -84.53336034 43.39960182 -80.5390625 26.33984375 C-76.43683842 12.79941992 -67.33706696 3.23322511 -55.5 -4.08984375 C-37.71049684 -12.84581197 -16.30300087 -11.16092066 0 0 Z M-56.5 19.91015625 C-62.48029499 27.64484184 -65.35915622 36.11577537 -64.5 45.91015625 C-62.25523521 56.57278898 -57.46328113 64.59256633 -48.5 70.91015625 C-39.85096258 75.67506835 -31.83713077 77.09110909 -22.125 74.78515625 C-11.81601453 71.74478331 -5.41914255 65.918218 -0.24609375 56.66796875 C3.72563158 48.22632258 4.07661759 38.49415987 1.0625 29.66015625 C-3.44082812 20.06885741 -10.72770313 13.70265413 -20.5 9.91015625 C-33.64493751 5.52851041 -47.06211477 10.45422535 -56.5 19.91015625 Z M217.5 35.91015625 C211.70001978 42.98470003 209.09475232 50.35913461 208.125 59.41015625 C209.36625283 70.99518264 213.52026968 79.22612404 222.57421875 86.59375 C229.80221702 91.53459263 237.77260293 93.73407136 246.5 92.91015625 C256.54501704 90.99836268 264.46155772 86.31637164 270.28515625 77.86328125 C275.89111166 68.8504912 277.09310661 59.59581924 274.921875 49.12109375 C271.83027629 40.26787927 265.45355308 33.08499027 257.125 28.84765625 C243.67714404 22.84948558 227.86234397 25.05436733 217.5 35.91015625 Z M80.7109375 121.8671875 C73.2400703 131.49098933 71.61121373 139.85926004 72.5 151.91015625 C74.21320237 160.17520012 79.24148517 166.42909668 85.5 171.91015625 C94.27830871 177.44099815 102.18135961 178.85789515 112.5 177.91015625 C123.44789513 174.85993344 130.15851696 169.37994296 136.01953125 159.75390625 C140.58878713 150.97707702 140.27605345 141.95755822 137.5390625 132.62109375 C134.28114282 124.12110783 126.62137698 116.87180356 118.5 112.91015625 C104.9408898 108.61643802 90.6233585 111.02412435 80.7109375 121.8671875 Z M-183.5 174.91015625 C-185.046875 175.77640625 -185.046875 175.77640625 -186.625 176.66015625 C-193.49889376 182.03972528 -198.53926285 188.27827201 -200.5 196.91015625 C-201.4067549 205.65987361 -201.27220681 213.35787881 -196.5 220.91015625 C-196.07589844 221.60625 -195.65179688 222.30234375 -195.21484375 223.01953125 C-189.87977791 230.92553411 -181.83367039 236.01819604 -172.5 237.91015625 C-163.77402337 238.91699971 -155.46173686 237.28789311 -148.25 232.16015625 C-140.64779313 225.92205505 -134.56233388 218.00232812 -133.5 207.91015625 C-132.7274281 198.25300756 -135.70845921 189.79222614 -141.48046875 182.13671875 C-144.71828482 178.56697956 -148.25999538 176.15617268 -152.5 173.91015625 C-153.11359375 173.57113281 -153.7271875 173.23210937 -154.359375 172.8828125 C-163.65620477 168.57210297 -174.88151339 169.7605211 -183.5 174.91015625 Z " fill="#000000" transform="translate(218.5,9.08984375)"/>
<path d="M0 0 C1.35420509 -0.00270245 2.70840828 -0.00659109 4.06260681 -0.01159668 C6.88413182 -0.01745454 9.70514624 -0.00904944 12.52661133 0.00976562 C16.1197849 0.03257619 19.71176433 0.01939684 23.30489445 -0.00452423 C26.0958689 -0.0190653 28.88656599 -0.01433904 31.67754936 -0.00401306 C33.63880578 -0.00009722 35.60007357 -0.012114 37.56129456 -0.02453613 C46.57562444 0.06952631 52.53425465 1.75692251 60.02734375 6.65625 C66.73360783 13.66734426 68.52031517 21.07530085 68.40553284 30.53952026 C68.41262722 31.60288231 68.41972161 32.66624436 68.42703098 33.7618295 C68.44453893 37.30106744 68.42654208 40.83919676 68.40844727 44.37841797 C68.4135886 46.92509967 68.42087149 49.47177781 68.43013 52.01844788 C68.44670174 58.20153463 68.4400337 64.38421467 68.42204178 70.56728582 C68.40798892 75.59134927 68.40412872 80.61532689 68.40748405 85.63940811 C68.4079615 86.35571688 68.40843894 87.07202565 68.40893085 87.81004075 C68.40995721 89.2653455 68.41101257 90.72065024 68.41209661 92.17595495 C68.4206514 105.02491874 68.40402434 117.87372966 68.37426758 130.72265625 C68.34539685 143.18919281 68.33836528 155.65550947 68.35375977 168.12207031 C68.37051455 181.70876871 68.37456637 195.29536288 68.35704941 208.88206398 C68.35520504 210.33003814 68.35337032 211.7780123 68.35154533 213.22598648 C68.35063324 213.93837831 68.34972115 214.65077015 68.34878143 215.38474961 C68.3431743 220.40593042 68.3464845 225.42706032 68.35309029 230.44823837 C68.36162088 237.20021894 68.34868993 243.9518345 68.32124138 250.70377922 C68.31433787 253.18543618 68.31428047 255.66712273 68.32145691 258.14877892 C68.33010487 261.52783808 68.31427379 264.90590563 68.29200745 268.28488159 C68.30024821 269.27416464 68.30848898 270.26344768 68.31697947 271.282709 C68.23661773 277.85845046 68.23661773 277.85845046 65.99659634 281.13990211 C63.64843824 282.61206658 62.49387818 283.03314772 59.75463867 283.03918457 C58.56866592 283.05610352 58.56866592 283.05610352 57.35873413 283.07336426 C56.50042999 283.06526733 55.64212585 283.05717041 54.7578125 283.04882812 C53.39132065 283.05934204 53.39132065 283.05934204 51.9972229 283.07006836 C48.98611972 283.08767252 45.97595648 283.07601689 42.96484375 283.0625 C40.87263814 283.06519421 38.78043374 283.06907604 36.68823242 283.07409668 C32.30342691 283.07999502 27.91894732 283.07141779 23.53417969 283.05273438 C17.91147417 283.02994485 12.28953235 283.0430661 6.66685486 283.06702423 C2.34658038 283.08147301 -1.97351281 283.0768804 -6.29379272 283.06651306 C-8.36705617 283.06384324 -10.44033604 283.06712448 -12.51358032 283.07643127 C-15.41053921 283.08658154 -18.30625853 283.07111689 -21.203125 283.04882812 C-22.06142914 283.05692505 -22.91973328 283.06502197 -23.80404663 283.07336426 C-29.62056297 282.99038653 -29.62056297 282.99038653 -32.72387695 280.62390137 C-34.87295553 277.62327797 -35.34837053 275.98694141 -35.35687733 272.34906864 C-35.36133517 271.46708776 -35.36579301 270.58510687 -35.37038594 269.67639929 C-35.37020158 268.70142742 -35.37001722 267.72645556 -35.36982727 266.72193909 C-35.37350396 265.69076916 -35.37718065 264.65959924 -35.38096875 263.59718174 C-35.39204007 260.11890072 -35.39585531 256.64064954 -35.3996582 253.16235352 C-35.40592041 250.677474 -35.41256699 248.19259543 -35.41957092 245.7077179 C-35.43882747 238.23197706 -35.44940545 230.75624415 -35.45829871 223.28048578 C-35.46268145 219.7588528 -35.46804848 216.23722132 -35.47328758 212.71558952 C-35.49030492 201.00521564 -35.50479684 189.2948427 -35.51203632 177.58445835 C-35.5139462 174.54434266 -35.51586653 171.50422699 -35.51782227 168.46411133 C-35.51830601 167.70851159 -35.51878975 166.95291186 -35.51928815 166.17441516 C-35.52757988 153.94725851 -35.55290001 141.72019996 -35.58540294 129.49308611 C-35.61851246 116.9351399 -35.63648879 104.37724346 -35.63968056 91.81925339 C-35.6418426 84.77041194 -35.65054559 77.72171334 -35.67614174 70.67291451 C-35.7001834 64.03682794 -35.70364995 57.40095163 -35.69338036 50.76481438 C-35.69288517 48.33285035 -35.69920044 45.90087365 -35.7129364 43.46894836 C-35.73068139 40.14013117 -35.72353535 36.81223237 -35.71040344 33.4834137 C-35.72137269 32.52851832 -35.73234193 31.57362295 -35.74364358 30.58979136 C-35.66382851 22.16775275 -33.77084697 14.04454203 -28.09765625 7.59375 C-19.89996086 0.35770152 -10.49097934 -0.06655394 0 0 Z M-16.22265625 22.53125 C-17.13234855 25.2603269 -17.34717275 26.82925603 -17.34570408 29.63294506 C-17.34769513 30.47144975 -17.34968618 31.30995444 -17.35173756 32.17386836 C-17.34882472 33.09506648 -17.34591188 34.01626459 -17.34291077 34.96537781 C-17.34376519 35.9439101 -17.34461962 36.92244238 -17.34549993 37.93062717 C-17.34715292 41.22419624 -17.34163628 44.51771488 -17.33618164 47.8112793 C-17.3358997 50.16637165 -17.33605763 52.52146409 -17.33662415 54.8765564 C-17.33691187 61.28320688 -17.33101919 67.68983875 -17.32405019 74.0964849 C-17.31796861 80.10956808 -17.31742785 86.12265347 -17.31639832 92.13573918 C-17.31420892 104.0469579 -17.30755187 115.95816977 -17.2980957 127.86938477 C-17.28891869 139.440999 -17.28183927 151.01261138 -17.27758789 162.58422852 C-17.27732517 163.29733229 -17.27706244 164.01043606 -17.27679176 164.74514904 C-17.27548673 168.32253015 -17.27422302 171.89991128 -17.27297986 175.47729242 C-17.26261074 205.16195032 -17.2441743 234.84659764 -17.22265625 264.53125 C4.88734375 264.53125 26.99734375 264.53125 49.77734375 264.53125 C49.84345568 233.89735484 49.89885752 203.26352839 49.93053974 172.62958418 C49.93429195 169.01461198 49.93817491 165.39963994 49.94213867 161.78466797 C49.9429256 161.06497905 49.94371253 160.34529013 49.94452331 159.60379246 C49.95758436 147.94409073 49.98124203 136.28443329 50.00880214 124.62475786 C50.03683693 112.66469006 50.05351592 100.70464548 50.05960923 88.74454618 C50.06335955 82.02511812 50.0723947 75.30578249 50.09453392 68.58638763 C50.11484342 62.26636372 50.12118875 55.94648205 50.11666679 49.6264286 C50.11749448 47.30279328 50.12349289 44.97915337 50.13496017 42.65554619 C50.14981744 39.49070744 50.14632192 36.32641053 50.1381073 33.16156006 C50.14684582 32.23549289 50.15558435 31.30942571 50.16458768 30.3552959 C50.14341359 25.4821488 50.14341359 25.4821488 48.44229603 20.99185562 C45.38408102 18.30898831 42.3520247 18.39427854 38.46728516 18.35424805 C37.38250885 18.34141281 36.29773254 18.32857758 35.18008423 18.31535339 C34.0081955 18.30796646 32.83630676 18.30057953 31.62890625 18.29296875 C30.42422699 18.284897 29.21954773 18.27682526 27.97836304 18.26850891 C25.42797281 18.25467131 22.87756408 18.24394771 20.32714844 18.23608398 C16.4247748 18.21884907 12.5232434 18.17495564 8.62109375 18.13085938 C6.14453749 18.12073443 3.66797402 18.11221771 1.19140625 18.10546875 C0.02356598 18.08796066 -1.14427429 18.07045258 -2.34750366 18.05241394 C-10.19058116 17.92591257 -10.19058116 17.92591257 -16.22265625 22.53125 Z " fill="#000000" transform="translate(444.22265625,229.46875)"/>
<path d="M0 0 C1.33417845 -0.00015541 2.66835735 -0.00165131 4.00253296 -0.00440979 C6.78119175 -0.0057848 9.55932871 0.00661439 12.33789062 0.02954102 C15.8794498 0.0579795 19.4201475 0.05516154 22.96177101 0.0424509 C26.37043574 0.03378368 29.77884975 0.04895285 33.1875 0.0625 C35.07995956 0.05809654 35.07995956 0.05809654 37.01065063 0.05360413 C47.32311352 0.16367376 55.41396784 2.09551097 62.9609375 9.49609375 C67.37864664 16.10094698 68.69097194 22.03064122 68.58912659 29.85897827 C68.59622097 30.85291993 68.60331536 31.84686158 68.61062473 32.87092268 C68.62811646 36.17525613 68.61014462 39.47839955 68.59204102 42.78271484 C68.59718297 45.16191135 68.60446633 47.54110404 68.61372375 49.92028809 C68.63220429 56.36205193 68.61932228 62.80340077 68.59963346 69.24514723 C68.58845362 73.26916311 68.58820083 77.29312994 68.5910778 81.31715775 C68.59155525 81.98628537 68.59203269 82.655413 68.5925246 83.34481723 C68.59355097 84.70429299 68.59460633 86.06376872 68.59569036 87.42324443 C68.6042434 99.42366961 68.58762354 111.42393106 68.55786133 123.42431641 C68.52898844 135.06631331 68.52196045 146.70807474 68.53735352 158.35009766 C68.55410952 171.04025733 68.55815909 183.73030541 68.54064316 196.42046797 C68.5387988 197.77295342 68.53696408 199.12543888 68.53513908 200.47792435 C68.53422699 201.14332631 68.5333149 201.80872827 68.53237518 202.49429392 C68.526769 207.18335271 68.53007733 211.87235698 68.53668404 216.56141281 C68.5443288 222.8668905 68.53227962 229.17202791 68.50483513 235.47744751 C68.49793301 237.79462295 68.49787275 240.11183007 68.50505066 242.42900467 C68.51370204 245.58475672 68.49786217 248.73944801 68.4756012 251.89511108 C68.48384196 252.81824801 68.49208273 253.74138493 68.50057322 254.6924957 C68.42026194 260.83362468 68.42026194 260.83362468 66.18019009 264.06440926 C63.82639997 265.58288662 62.70366493 265.99793374 59.93823242 266.00402832 C58.75225967 266.02094727 58.75225967 266.02094727 57.54232788 266.03820801 C56.68402374 266.03011108 55.8257196 266.02201416 54.94140625 266.01367188 C53.5749144 266.02418579 53.5749144 266.02418579 52.18081665 266.03491211 C49.16971347 266.05251627 46.15955023 266.04086064 43.1484375 266.02734375 C41.05623189 266.03003796 38.96402749 266.03391979 36.87182617 266.03894043 C32.48702066 266.04483877 28.10254107 266.03626154 23.71777344 266.01757812 C18.09506792 265.9947886 12.4731261 266.00790985 6.85044861 266.03186798 C2.53017413 266.04631676 -1.78991906 266.04172415 -6.11019897 266.03135681 C-8.18346242 266.02868699 -10.25674229 266.03196823 -12.32998657 266.04127502 C-15.22694546 266.05142529 -18.12266478 266.03596064 -21.01953125 266.01367188 C-21.87783539 266.0217688 -22.73613953 266.02986572 -23.62045288 266.03820801 C-29.43696922 265.95523028 -29.43696922 265.95523028 -32.5402832 263.58874512 C-35.61057723 259.30188647 -35.18726458 255.39571057 -35.18623352 250.28747559 C-35.18991021 249.32093693 -35.1935869 248.35439828 -35.197375 247.35857058 C-35.20844427 244.09906782 -35.21226121 240.8395969 -35.21606445 237.58007812 C-35.2223268 235.25120949 -35.22897339 232.92234186 -35.23597717 230.59347534 C-35.2534115 224.2501529 -35.26394617 217.90683802 -35.2721827 211.56349754 C-35.27732909 207.60113264 -35.28340507 203.6387701 -35.28969383 199.67640686 C-35.30656935 188.7029118 -35.32120268 177.72941883 -35.32844257 166.75591278 C-35.33035245 163.90726215 -35.33227278 161.05861153 -35.33422852 158.20996094 C-35.33471226 157.50194873 -35.335196 156.79393652 -35.3356944 156.0644694 C-35.34398699 144.60615069 -35.36930885 133.14793664 -35.40180919 121.68966359 C-35.43491545 109.92160075 -35.45289473 98.153591 -35.45608681 86.38548136 C-35.45843754 79.77988227 -35.4674008 73.17444841 -35.49254799 66.56889343 C-35.5158372 60.35055754 -35.52005827 54.13249556 -35.50978661 47.91412735 C-35.5092913 45.63493565 -35.51561005 43.35573043 -35.52934265 41.07658005 C-35.54707976 37.95758722 -35.53994575 34.83957534 -35.52680969 31.72058105 C-35.54326356 30.37725149 -35.54326356 30.37725149 -35.56004983 29.00678396 C-35.47834291 20.93477724 -33.30904492 13.75253073 -27.9140625 7.62109375 C-19.79986164 0.3383625 -10.45308173 -0.09337668 0 0 Z M-16.0390625 22.49609375 C-17.35152466 26.43348023 -17.17329729 30.18098834 -17.15931702 34.28483582 C-17.16017144 35.19394771 -17.16102587 36.10305961 -17.16190618 37.03972036 C-17.16355862 40.09835875 -17.15804343 43.15694279 -17.15258789 46.21557617 C-17.15230594 48.40318297 -17.1524639 50.59078986 -17.1530304 52.77839661 C-17.15331807 58.72845067 -17.14742614 64.67848469 -17.14045644 70.62853408 C-17.13421795 76.84254973 -17.13361871 83.05656581 -17.13243103 89.27058411 C-17.12967305 99.70407452 -17.12342088 110.13755805 -17.11450195 120.57104492 C-17.10532451 131.31811486 -17.0982453 142.0651828 -17.09399414 152.81225586 C-17.09373142 153.47458071 -17.09346869 154.13690555 -17.09319801 154.81930085 C-17.09189298 158.14195276 -17.09063152 161.46460467 -17.08938611 164.7872566 C-17.07892502 192.3568753 -17.06058134 219.92648131 -17.0390625 247.49609375 C5.0709375 247.49609375 27.1809375 247.49609375 49.9609375 247.49609375 C50.04909111 219.02790359 50.12295849 190.55981931 50.16519882 162.09152652 C50.17020175 158.73191588 50.17537903 155.37230552 50.18066406 152.01269531 C50.18223793 151.00942261 50.18223793 151.00942261 50.18384358 149.98588178 C50.20125708 139.15064068 50.23279993 128.31548433 50.26954868 117.48029354 C50.3069319 106.36548112 50.32886831 95.25070331 50.33729148 84.13582969 C50.34251519 77.89143542 50.35482851 71.64723345 50.38385773 65.4029007 C50.41094284 59.52934453 50.41939642 53.65606049 50.41336823 47.78244781 C50.41447155 45.62328616 50.42246625 43.46411571 50.4377594 41.30500793 C50.45757901 38.36334031 50.45290584 35.42270825 50.44195557 32.48101807 C50.45943262 31.19113649 50.45943262 31.19113649 50.47726274 29.8751967 C50.44391542 25.07676543 50.44391542 25.07676543 48.05587387 20.99703598 C44.7266762 18.61179247 42.82905725 18.36087909 38.7644043 18.3190918 C37.67955246 18.30625656 36.59470062 18.29342133 35.47697449 18.28019714 C34.29992447 18.27281021 33.12287445 18.26542328 31.91015625 18.2578125 C30.70406204 18.24974075 29.49796783 18.24166901 28.25532532 18.23335266 C25.69895876 18.21950275 23.14257364 18.20878468 20.58618164 18.20092773 C16.67493696 18.1837104 12.76453628 18.13982999 8.85351562 18.09570312 C6.37240206 18.08557695 3.8912813 18.07706061 1.41015625 18.0703125 C0.23917892 18.05280441 -0.9317984 18.03529633 -2.13825989 18.01725769 C-9.99596906 17.88667141 -9.99596906 17.88667141 -16.0390625 22.49609375 Z " fill="#000000" transform="translate(171.0390625,246.50390625)"/>
<path d="M0 0 C1.25374924 -0.00428513 2.50749847 -0.00857025 3.79924011 -0.01298523 C6.44613756 -0.01871625 9.09264353 -0.02017914 11.73950195 -0.01489258 C14.43661158 -0.01025963 17.13327068 -0.01718314 19.83032227 -0.03540039 C23.74118618 -0.06001205 27.65156798 -0.06405148 31.5625 -0.0625 C33.35516045 -0.07631462 33.35516045 -0.07631462 35.18403625 -0.09040833 C45.28834839 -0.03509577 53.79764857 1.18870322 61.2890625 8.33203125 C66.82863756 14.7799431 68.13104409 21.52177199 68.12091064 29.80943298 C68.12388177 30.56886359 68.12685289 31.3282942 68.12991405 32.11073786 C68.13859016 34.65708835 68.14010836 37.20339176 68.14160156 39.74975586 C68.1462304 41.57472331 68.15125515 43.39968979 68.15664673 45.22465515 C68.16976396 50.18327319 68.17621404 55.14187769 68.18065739 60.10051036 C68.18358842 63.19749239 68.18769323 66.29447072 68.19216156 69.39145088 C68.20583298 79.07864774 68.21550211 88.76583614 68.21936345 98.45304197 C68.22384738 109.64085535 68.24141228 120.82854675 68.27036405 132.01632303 C68.29196181 140.66184806 68.30206667 149.30733872 68.30340457 157.95289046 C68.30445371 163.11795812 68.31038497 168.28291106 68.32822418 173.44795036 C68.34467253 178.3046107 68.34687615 183.16106966 68.33808517 188.01774788 C68.33731314 189.80075748 68.34167941 191.58377777 68.35154343 193.36676025 C68.36421519 195.79979672 68.35841253 198.23211474 68.34796143 200.66514587 C68.36004603 201.72478142 68.36004603 201.72478142 68.37237477 202.80582374 C68.32889059 207.13058946 67.62607744 209.85714415 64.98046875 213.30078125 C61.63523137 214.97339994 57.86760228 214.46635144 54.18798828 214.4777832 C52.82193451 214.48764 52.82193451 214.48764 51.42828369 214.49769592 C48.40661544 214.51744975 45.38499689 214.52909514 42.36328125 214.5390625 C40.81793009 214.54517579 40.81793009 214.54517579 39.24135971 214.55141258 C33.79030303 214.57228057 28.3392716 214.58658007 22.88818359 214.59594727 C17.2498129 214.60702322 11.61183561 214.64143484 5.9736042 214.68111897 C1.64479828 214.70722447 -2.68391296 214.71563362 -7.01279068 214.71922874 C-9.09166247 214.72410912 -11.17052963 214.7357641 -13.2493248 214.75426674 C-16.15595738 214.77853283 -19.06155953 214.77771628 -21.96826172 214.77075195 C-23.26043106 214.78996704 -23.26043106 214.78996704 -24.57870483 214.80957031 C-25.37224365 214.8026265 -26.16578247 214.79568268 -26.98336792 214.78852844 C-27.67027143 214.7909168 -28.35717495 214.79330515 -29.06489372 214.79576588 C-32.08691215 214.03048196 -33.19482798 212.8124304 -35.01953125 210.30078125 C-35.4125653 207.60481622 -35.56057629 205.31672462 -35.52746582 202.62249756 C-35.53370578 201.84476588 -35.53994575 201.06703421 -35.5463748 200.26573491 C-35.56234246 197.65699236 -35.54968602 195.04917934 -35.53710938 192.44042969 C-35.54252901 190.5710648 -35.54965077 188.70170419 -35.55834961 186.83235168 C-35.57660981 181.75152873 -35.56950295 176.67103012 -35.55683327 171.59020138 C-35.54671358 166.27279212 -35.55609664 160.95541083 -35.56237793 155.63800049 C-35.56965987 146.70344048 -35.56005492 137.76901261 -35.54101562 128.83447266 C-35.5192725 118.51206777 -35.52627749 108.18997922 -35.54832125 97.86758208 C-35.56649144 89.003728 -35.56902483 80.139969 -35.55856657 71.2761023 C-35.55233714 65.98294282 -35.5514804 60.68993181 -35.56471252 55.39678192 C-35.57629295 50.41608628 -35.56820509 45.43579679 -35.5451355 40.45514488 C-35.53985898 38.62986868 -35.54134404 36.80455814 -35.55018616 34.97929573 C-35.5611681 32.48140668 -35.54734693 29.9848071 -35.52746582 27.48699951 C-35.53638871 26.7698596 -35.54531159 26.05271968 -35.55450487 25.31384826 C-35.45063712 18.55471882 -32.98375639 13.5751472 -28.64453125 8.55078125 C-19.37963341 0.60944024 -11.79512691 -0.00894967 0 0 Z M-15.01953125 20.30078125 C-17.48510103 23.99913592 -17.26643433 25.8142051 -17.26004028 30.22929382 C-17.26174913 30.93831166 -17.26345798 31.64732949 -17.26521862 32.37783271 C-17.26851925 34.7593961 -17.25750054 37.14067926 -17.24658203 39.5222168 C-17.24601804 41.22707106 -17.24633424 42.93192581 -17.24746704 44.63677979 C-17.24804203 49.27079422 -17.23626411 53.90470561 -17.22231913 58.53869605 C-17.20983609 63.37937383 -17.20864319 68.22005385 -17.20626831 73.06074524 C-17.2000464 82.22986211 -17.18362596 91.39893141 -17.16356933 100.56802732 C-17.14123245 111.00561836 -17.13022247 121.44321165 -17.12017846 131.88082063 C-17.09926035 153.3541733 -17.06257524 174.82746075 -17.01953125 196.30078125 C5.09046875 196.30078125 27.20046875 196.30078125 49.98046875 196.30078125 C50.04816833 174.0915013 50.1034404 151.88230478 50.13590527 129.67294788 C50.15137938 119.36094788 50.17247932 109.0490165 50.20678711 98.73706055 C50.23667277 89.74999292 50.25603979 80.76297499 50.26273423 71.77585906 C50.2666479 67.01648825 50.2758569 62.25725962 50.29765892 57.49793434 C50.31801088 53.01889206 50.32430516 48.54005062 50.31979179 44.06096649 C50.32061757 42.41663459 50.32659094 40.77229601 50.33808517 39.12800407 C50.3530094 36.88304744 50.34942304 34.63884928 50.3412323 32.39387512 C50.34399768 31.13747128 50.34676306 29.88106745 50.34961224 28.58659077 C49.94932202 25.02353882 49.10746529 23.15381389 46.98046875 20.30078125 C43.9473141 18.18682696 41.38346644 18.04830957 37.74047852 18.04199219 C36.69581924 18.03568787 35.65115997 18.02938354 34.57484436 18.02288818 C33.45186447 18.02693665 32.32888458 18.03098511 31.171875 18.03515625 C30.01300278 18.0332428 28.85413055 18.03132935 27.66014099 18.02935791 C25.20986718 18.02799719 22.75958613 18.03168572 20.30932617 18.04003906 C16.56087004 18.05073019 12.81289424 18.04014463 9.06445312 18.02734375 C6.68359269 18.02866555 4.30273256 18.03122838 1.921875 18.03515625 C0.80091934 18.03110779 -0.32003632 18.02705933 -1.47496033 18.02288818 C-2.52277176 18.0291925 -3.57058319 18.03549683 -4.65014648 18.04199219 C-5.56851791 18.04358337 -6.48688934 18.04517456 -7.43309021 18.04681396 C-10.33111319 18.33137604 -12.42874277 18.97526397 -15.01953125 20.30078125 Z " fill="#000000" transform="translate(308.01953125,297.69921875)"/>
<path d="M0 0 C1.14514069 -0.0033284 2.29028137 -0.0066568 3.47012329 -0.01008606 C5.88567708 -0.01513479 8.30123781 -0.01749502 10.71679688 -0.01733398 C14.3946491 -0.01951971 18.07220079 -0.03769558 21.75 -0.05664062 C24.10416565 -0.05957519 26.45833271 -0.06155956 28.8125 -0.0625 C29.90339935 -0.06968552 30.99429871 -0.07687103 32.11825562 -0.08427429 C42.64248393 -0.05307528 50.83699481 1.22408232 59.0390625 8.16796875 C66.06274668 15.61888433 66.3363556 23.93595179 66.3137207 33.71533203 C66.31883163 34.85924408 66.32394257 36.00315613 66.32920837 37.18173218 C66.3430723 40.95063554 66.34215047 44.71935547 66.33984375 48.48828125 C66.3437314 51.1118883 66.34806621 53.73549473 66.35282898 56.35910034 C66.36102622 61.85155866 66.36014336 67.34396548 66.35473633 72.83642578 C66.34868765 79.17983047 66.36103584 85.52301386 66.3823064 91.86638081 C66.40205175 97.98050383 66.40509595 104.09452337 66.40157127 110.20867538 C66.40208509 112.80584102 66.40733408 115.40301016 66.41738319 118.0001564 C66.42969749 121.6267438 66.42298634 125.2528156 66.41137695 128.87939453 C66.41902069 129.95380798 66.42666443 131.02822144 66.43453979 132.13519287 C66.36953304 141.30679182 66.36953304 141.30679182 63.0390625 145.16796875 C59.69382512 146.84058744 55.92619603 146.33353894 52.24658203 146.3449707 C50.88052826 146.3548275 50.88052826 146.3548275 49.48687744 146.36488342 C46.46520919 146.38463725 43.44359064 146.39628264 40.421875 146.40625 C38.87652384 146.41236329 38.87652384 146.41236329 37.29995346 146.41860008 C31.84889678 146.43946807 26.39786535 146.45376757 20.94677734 146.46313477 C15.30840665 146.47421072 9.67042936 146.50862234 4.03219795 146.54830647 C-0.29660797 146.57441197 -4.62531921 146.58282112 -8.95419693 146.58641624 C-11.03306872 146.59129662 -13.11193588 146.6029516 -15.19073105 146.62145424 C-18.09736363 146.64572033 -21.00296578 146.64490378 -23.90966797 146.63793945 C-25.20183731 146.65715454 -25.20183731 146.65715454 -26.52011108 146.67675781 C-27.3136499 146.669814 -28.10718872 146.66287018 -28.92477417 146.65571594 C-29.61167768 146.6581043 -30.2985812 146.66049265 -31.00629997 146.66295338 C-33.92854525 145.92293562 -35.13150473 144.51880141 -36.9609375 142.16796875 C-37.46150875 139.79001141 -37.46150875 139.79001141 -37.46214294 137.10246277 C-37.47197708 136.08055344 -37.48181122 135.0586441 -37.49194336 134.00576782 C-37.48227539 132.89035614 -37.47260742 131.77494446 -37.46264648 130.62573242 C-37.46804947 129.44645676 -37.47345245 128.26718109 -37.47901917 127.0521698 C-37.4893838 123.82039867 -37.48180122 120.58929234 -37.46530795 117.35756469 C-37.45144268 113.97090104 -37.45791957 110.58426786 -37.46144104 107.19758606 C-37.46414312 101.50720666 -37.45067177 95.81703818 -37.42749023 90.12670898 C-37.40091866 83.55901227 -37.39912111 76.99166902 -37.4108786 70.42393702 C-37.42168279 64.09676567 -37.4154462 57.76972149 -37.40132332 51.4425602 C-37.39558247 48.75491624 -37.39563124 46.06736594 -37.40038872 43.37972069 C-37.40330329 39.61906107 -37.38677929 35.8589757 -37.36499023 32.09838867 C-37.36949188 30.98904968 -37.37399353 29.87971069 -37.37863159 28.73675537 C-37.29030329 19.5480529 -35.20448414 13.79398468 -28.91796875 6.96484375 C-20.71792573 -0.56413786 -10.48936988 0.01066062 0 0 Z M-17.29171753 20.56654358 C-19.90081658 24.6327398 -19.48538534 28.52840332 -19.41503906 33.26074219 C-19.41562317 34.2854512 -19.41620728 35.31016022 -19.41680908 36.36592102 C-19.41402206 39.75340635 -19.38289974 43.14001211 -19.3515625 46.52734375 C-19.34410234 48.87574788 -19.33840835 51.22415823 -19.33441162 53.5725708 C-19.31913774 59.75410138 -19.27984025 65.93525612 -19.2355957 72.11663818 C-19.18748786 79.53298679 -19.1691174 86.94946104 -19.14578247 94.36592102 C-19.10699091 105.63353167 -19.03034808 116.90031765 -18.9609375 128.16796875 C3.1490625 128.16796875 25.2590625 128.16796875 48.0390625 128.16796875 C48.12630769 109.98341242 48.12630769 109.98341242 48.18554688 91.79882812 C48.20348634 84.38299121 48.22471817 76.96726533 48.26538086 69.55151367 C48.29795595 63.57336395 48.31591173 57.59533329 48.32369423 51.61710167 C48.32924103 49.33531507 48.34007242 47.05353506 48.35625267 44.77179909 C48.37800196 41.57794696 48.38103042 38.38458799 48.37963867 35.19067383 C48.3904245 34.24552414 48.40121033 33.30037445 48.412323 32.32658386 C48.38941033 27.47329564 48.27371851 24.07300161 45.0390625 20.16796875 C42.42759241 18.86223371 40.47582668 19.01936323 37.55126953 18.9909668 C36.40312775 18.97813156 35.25498596 18.96529633 34.072052 18.95207214 C32.82624359 18.94468521 31.58043518 18.93729828 30.296875 18.9296875 C28.38429398 18.91757988 28.38429398 18.91757988 26.43307495 18.90522766 C23.73122514 18.89137748 21.02949775 18.88036348 18.32763672 18.87280273 C14.86838333 18.86173491 11.40977264 18.82733043 7.95074654 18.78763103 C4.64951963 18.75518983 1.34823703 18.75068831 -1.953125 18.7421875 C-3.19488495 18.72467941 -4.4366449 18.70717133 -5.71603394 18.68913269 C-6.87048004 18.69205826 -8.02492615 18.69498383 -9.21435547 18.69799805 C-10.73752884 18.68919868 -10.73752884 18.68919868 -12.29147339 18.68022156 C-15.01877522 19.01668842 -15.01877522 19.01668842 -17.29171753 20.56654358 Z " fill="#000000" transform="translate(36.9609375,365.83203125)"/>
</svg>
