<svg width="400" height="424" viewBox="0 0 400 424" fill="none" xmlns="http://www.w3.org/2000/svg">
<path d="M19.2396 128H380.752C382.93 128 385.086 127.556 387.087 126.693C389.088 125.831 390.892 124.569 392.388 122.985C393.883 121.4 395.04 119.527 395.786 117.48C396.533 115.433 396.853 113.255 396.728 111.08L396.528 106.928C393.928 64.912 358.808 32 316.56 32H296V16C296 11.7565 294.314 7.68687 291.313 4.68629C288.313 1.68571 284.243 0 280 0C275.756 0 271.686 1.68571 268.686 4.68629C265.685 7.68687 264 11.7565 264 16V32H136V16C136 11.7565 134.314 7.68687 131.313 4.68629C128.313 1.68571 124.243 0 120 0C115.756 0 111.686 1.68571 108.686 4.68629C105.685 7.68687 104 11.7565 104 16V32H83.4396C41.1916 32 6.06357 64.92 3.46357 106.96L3.26357 111.088C3.1359 113.263 3.45462 115.442 4.20012 117.49C4.94563 119.537 6.10216 121.411 7.59859 122.995C9.09501 124.579 10.8997 125.84 12.9016 126.701C14.9036 127.562 17.0604 128.004 19.2396 128ZM399.232 175.6C399.129 171.427 397.399 167.459 394.411 164.545C391.423 161.63 387.414 159.999 383.24 160H16.7596C12.5851 160.001 8.57609 161.632 5.58718 164.546C2.59828 167.46 0.865965 171.427 0.75957 175.6C-0.685816 232.214 0.323132 288.865 3.78357 345.392C6.27957 385.552 38.4476 417.712 78.5916 420.208C159.446 425.274 240.538 425.271 321.392 420.2C361.552 417.704 393.712 385.536 396.216 345.384C399.656 290.04 400.672 232.912 399.232 175.6ZM280 256C273.634 256 267.53 253.471 263.029 248.971C258.528 244.47 256 238.365 256 232C256 225.635 258.528 219.53 263.029 215.029C267.53 210.529 273.634 208 280 208C286.365 208 292.469 210.529 296.97 215.029C301.471 219.53 304 225.635 304 232C304 238.365 301.471 244.47 296.97 248.971C292.469 253.471 286.365 256 280 256ZM304 312C304 318.365 301.471 324.47 296.97 328.971C292.469 333.471 286.365 336 280 336C273.634 336 267.53 333.471 263.029 328.971C258.528 324.47 256 318.365 256 312C256 305.635 258.528 299.53 263.029 295.029C267.53 290.529 273.634 288 280 288C286.365 288 292.469 290.529 296.97 295.029C301.471 299.53 304 305.635 304 312ZM120 288C126.365 288 132.469 290.529 136.97 295.029C141.471 299.53 144 305.635 144 312C144 318.365 141.471 324.47 136.97 328.971C132.469 333.471 126.365 336 120 336C113.634 336 107.53 333.471 103.029 328.971C98.5281 324.47 95.9996 318.365 95.9996 312C95.9996 305.635 98.5281 299.53 103.029 295.029C107.53 290.529 113.634 288 120 288ZM95.9996 232C95.9996 228.848 96.6203 225.727 97.8265 222.816C99.0326 219.904 100.8 217.258 103.029 215.029C105.258 212.801 107.903 211.033 110.815 209.827C113.727 208.621 116.848 208 120 208C123.151 208 126.272 208.621 129.184 209.827C132.096 211.033 134.742 212.801 136.97 215.029C139.199 217.258 140.967 219.904 142.173 222.816C143.379 225.727 144 228.848 144 232C144 238.365 141.471 244.47 136.97 248.971C132.469 253.471 126.365 256 120 256C113.634 256 107.53 253.471 103.029 248.971C98.5281 244.47 95.9996 238.365 95.9996 232ZM176 312C176 305.635 178.528 299.53 183.029 295.029C187.53 290.529 193.634 288 200 288C206.365 288 212.469 290.529 216.97 295.029C221.471 299.53 224 305.635 224 312C224 318.365 221.471 324.47 216.97 328.971C212.469 333.471 206.365 336 200 336C193.634 336 187.53 333.471 183.029 328.971C178.528 324.47 176 318.365 176 312ZM200 256C193.634 256 187.53 253.471 183.029 248.971C178.528 244.47 176 238.365 176 232C176 225.635 178.528 219.53 183.029 215.029C187.53 210.529 193.634 208 200 208C206.365 208 212.469 210.529 216.97 215.029C221.471 219.53 224 225.635 224 232C224 238.365 221.471 244.47 216.97 248.971C212.469 253.471 206.365 256 200 256Z" fill="#024D81"/>
</svg>
