<svg width="512" height="512" viewBox="0 0 512 512" fill="none" xmlns="http://www.w3.org/2000/svg">
<mask id="mask0_3526_859" style="mask-type:luminance" maskUnits="userSpaceOnUse" x="0" y="0" width="512" height="512">
<path d="M504.499 504.5V7.5015H7.5V504.5H504.499Z" fill="white" stroke="white" stroke-width="15"/>
</mask>
<g mask="url(#mask0_3526_859)">
<path d="M276.412 501.882C351.621 517.502 425.53 461.443 426.84 381.483C426.99 372.593 426.479 363.333 425.19 353.713C425.19 353.713 356.951 303.673 299.332 318.833C299.332 318.833 270.771 353.463 270.771 379.743C270.771 379.743 229.322 373.683 183.822 328.193C133.022 277.383 132.263 241.243 132.263 241.243C158.553 241.243 193.172 212.685 193.172 212.685C208.342 155.065 158.292 86.8149 158.292 86.8149C149.093 85.5742 139.814 85.0226 130.532 85.1649C43.8526 86.5949 -14.7362 173.325 15.6027 254.533C31.8836 298.093 60.6136 350.053 111.282 400.723C158.272 447.713 206.382 475.842 247.872 492.652" stroke="white" stroke-width="15" stroke-miterlimit="10" stroke-linecap="round" stroke-linejoin="round"/>
<path d="M157.643 234.789C157.643 234.789 153.994 148.783 108.375 87.4705" stroke="white" stroke-width="15" stroke-miterlimit="10" stroke-linecap="round" stroke-linejoin="round"/>
<path d="M277.219 354.366C277.219 354.366 363.225 358.015 424.537 403.633" stroke="white" stroke-width="15" stroke-miterlimit="10" stroke-linecap="round" stroke-linejoin="round"/>
<path d="M454.348 206.842C461.548 206.452 468.739 206.002 475.938 205.492C486.058 204.782 494.648 198.422 498.478 189.482C499.511 187.081 500.182 184.54 500.468 181.942C505.838 132.979 505.838 83.5758 500.468 34.6131C499.068 21.8731 488.728 11.9532 475.949 11.0632C421.878 7.26318 367.809 6.50319 313.749 8.78318C300.159 9.34318 286.569 10.1032 272.979 11.0632C260.189 11.9532 249.849 21.8731 248.45 34.6131C243.07 83.703 243.07 132.782 248.439 181.872C249.839 194.632 260.169 204.592 272.969 205.492C274.029 205.562 275.079 205.642 276.129 205.702C283.939 206.232 290.009 212.722 290.009 220.542V250.121C290.009 260.071 301.389 265.721 309.309 259.691C323.749 248.691 342.969 232.322 354.748 215.362C357.538 211.342 362.149 209.002 367.048 209.022C386.229 209.122 405.399 208.842 424.578 208.172" stroke="white" stroke-width="15" stroke-miterlimit="10" stroke-linecap="round" stroke-linejoin="round"/>
<path d="M464.898 52.875H322.383" stroke="white" stroke-width="15" stroke-miterlimit="10" stroke-linecap="round" stroke-linejoin="round"/>
<path d="M464.898 92.1641H322.383" stroke="white" stroke-width="15" stroke-miterlimit="10" stroke-linecap="round" stroke-linejoin="round"/>
<path d="M424.54 131.461H322.383" stroke="white" stroke-width="15" stroke-miterlimit="10" stroke-linecap="round" stroke-linejoin="round"/>
</g>
</svg>
