<svg width="70" height="70" viewBox="0 0 70 70" fill="none" xmlns="http://www.w3.org/2000/svg">
<circle cx="35" cy="35" r="35" fill="#FFE8AF"/>
<path d="M34.739 15.0006C34.8177 15.0008 34.8963 15.0009 34.9774 15.0011C36.1116 15.005 37.2135 15.0358 38.3226 15.2946C38.3899 15.3094 38.4572 15.3241 38.5265 15.3393C42.4633 16.2167 46.0755 18.4752 48.5296 21.6851C48.5686 21.7351 48.6075 21.785 48.6477 21.8365C49.5445 22.9972 50.1886 24.2815 50.8373 25.5904C50.9388 25.5908 51.0403 25.5911 51.1449 25.5915C51.5269 25.5935 51.9088 25.5983 52.2908 25.604C52.4551 25.606 52.6194 25.6073 52.7837 25.6078C54.2769 25.613 55.367 25.8233 56.4886 26.8847C57.167 27.6032 57.5054 28.4877 57.5112 29.4595C57.5119 29.5269 57.5126 29.5944 57.5134 29.6639C57.5156 29.8869 57.5171 30.11 57.5183 30.333C57.519 30.4479 57.519 30.4479 57.5198 30.565C57.5221 30.9709 57.5239 31.3768 57.5251 31.7827C57.5263 32.1168 57.5288 32.4509 57.5324 32.785C57.5368 33.19 57.539 33.5949 57.5396 33.9999C57.5402 34.1533 57.5416 34.3067 57.5437 34.4601C57.5624 35.8834 57.2961 36.9225 56.2886 37.9873C55.6938 38.5488 54.8427 39.0053 54.0132 39.0028C53.9404 39.0028 53.8676 39.0028 53.7925 39.0028C53.7148 39.0023 53.637 39.0018 53.5569 39.0014C53.4365 39.0012 53.4365 39.0012 53.3136 39.001C53.0577 39.0005 52.8018 38.9994 52.5459 38.9982C52.3722 38.9978 52.1985 38.9974 52.0248 38.997C51.5994 38.9961 51.174 38.9945 50.7485 38.9927C50.7329 39.089 50.7329 39.089 50.7169 39.1873C50.0826 41.9535 47.2924 44.7407 45.0681 46.3595C44.9931 46.4145 44.9931 46.4145 44.9165 46.4706C43.307 47.6357 40.8286 49.1997 38.7664 49.1997C38.7698 49.3117 38.7698 49.3117 38.7734 49.4259C38.7811 49.7086 38.7866 49.9912 38.7907 50.274C38.7929 50.3953 38.7959 50.5165 38.7998 50.6378C38.8388 51.8832 38.564 52.8943 37.7013 53.8151C37.0023 54.5538 36.0631 54.9711 35.056 54.9994C33.7139 55.0155 32.7688 54.6956 31.7837 53.7634C30.9014 52.8288 30.7277 51.768 30.7481 50.5436C30.7966 49.4451 31.3488 48.5791 32.1373 47.8462C32.7781 47.3267 33.5878 46.9765 34.4117 46.9371C34.5623 46.9288 34.5623 46.9288 34.7159 46.9203C34.8224 46.9146 34.9289 46.909 35.0386 46.9032C38.1941 46.7 41.2455 45.8077 43.7367 43.7856C43.7916 43.7411 43.8465 43.6966 43.903 43.6507C46.5092 41.5105 48.1777 38.7066 48.9734 35.4424C48.9893 35.3804 49.0052 35.3183 49.0216 35.2544C49.4852 33.3846 49.4512 31.0029 48.9734 29.1407C48.9558 29.0683 48.9381 28.996 48.92 28.9215C47.9737 25.1008 45.5812 21.8534 42.2206 19.7969C38.9174 17.8564 34.9342 17.3027 31.222 18.2236C29.024 18.8295 26.9919 19.8141 25.2753 21.3301C25.1888 21.4048 25.1023 21.4795 25.0132 21.5565C23.4732 22.9079 22.2868 24.6074 21.4588 26.478C21.4315 26.5392 21.4041 26.6005 21.376 26.6636C19.7542 30.3699 20.0417 34.2629 21.2903 38.0226C21.3887 38.3435 21.4682 38.6666 21.5475 38.9927C20.7342 39.003 19.921 39.0109 19.1077 39.0157C18.7299 39.018 18.3521 39.0211 17.9744 39.0262C17.6089 39.031 17.2435 39.0337 16.8781 39.0348C16.7395 39.0356 16.601 39.0372 16.4625 39.0396C15.0961 39.0625 14.0612 38.7384 13.056 37.7872C12.3776 37.0686 12.0392 36.1841 12.0334 35.2124C12.0327 35.145 12.032 35.0775 12.0312 35.008C12.029 34.785 12.0276 34.5619 12.0263 34.3389C12.0258 34.2623 12.0253 34.1857 12.0248 34.1068C12.0225 33.7009 12.0207 33.295 12.0195 32.8891C12.0183 32.555 12.0158 32.221 12.0122 31.8869C12.0078 31.4819 12.0056 31.077 12.005 30.6719C12.0044 30.5186 12.0031 30.3652 12.0009 30.2118C11.9822 28.7885 12.2485 27.7493 13.256 26.6846C13.8508 26.1231 14.7019 25.6665 15.5314 25.6691C15.6042 25.6691 15.677 25.6691 15.7521 25.6691C15.8299 25.6696 15.9076 25.67 15.9877 25.6705C16.1081 25.6707 16.1081 25.6707 16.231 25.6709C16.4869 25.6714 16.7428 25.6725 16.9987 25.6736C17.1724 25.6741 17.3461 25.6745 17.5198 25.6748C17.9452 25.6758 18.3707 25.6773 18.7961 25.6792C18.8065 25.615 18.8169 25.5507 18.8277 25.4846C19.462 22.7184 22.2522 19.9311 24.4765 18.3123C24.5265 18.2757 24.5765 18.239 24.6281 18.2012C26.7522 16.6637 29.1808 15.671 31.7546 15.2059C31.8448 15.1893 31.935 15.1728 32.0279 15.1558C32.9322 15.0076 33.8253 14.9967 34.739 15.0006ZM15.1737 28.7357C14.7612 29.219 14.7026 29.5813 14.7004 30.2026C14.6998 30.3072 14.6992 30.4118 14.6986 30.5195C14.6985 30.6318 14.6984 30.744 14.6983 30.8597C14.698 30.9758 14.6977 31.0919 14.6974 31.2115C14.6969 31.4569 14.6967 31.7024 14.6968 31.9478C14.6968 32.2611 14.6956 32.5743 14.6941 32.8876C14.6928 33.1879 14.6929 33.4883 14.6928 33.7886C14.6922 33.9005 14.6915 34.0124 14.6909 34.1277C14.6761 35.0681 14.6761 35.0681 15.1071 35.8696C15.556 36.2528 15.8969 36.3424 16.4763 36.3387C16.5549 36.3384 16.6336 36.3381 16.7146 36.3378C16.7956 36.3371 16.8765 36.3363 16.9599 36.3355C17.0426 36.3351 17.1252 36.3347 17.2104 36.3343C17.4135 36.3333 17.6166 36.3318 17.8197 36.33C17.7734 35.8247 17.7147 35.3234 17.6422 34.8211C17.3495 32.622 17.5152 30.5201 17.9085 28.3419C17.6108 28.3367 17.3131 28.3336 17.0154 28.3308C16.8898 28.3285 16.8898 28.3285 16.7618 28.3263C16.1562 28.3221 15.6501 28.3228 15.1737 28.7357ZM51.7249 28.3419C51.7599 28.7333 51.7974 29.1231 51.8567 29.5117C51.9976 30.4362 52.026 31.3462 52.0244 32.2805C52.0246 32.3576 52.0247 32.4348 52.0248 32.5143C52.0246 33.8141 51.9176 35.0572 51.6361 36.33C51.9338 36.3352 52.2315 36.3383 52.5292 36.3411C52.6129 36.3426 52.6966 36.3441 52.7828 36.3456C53.3884 36.3498 53.8945 36.3491 54.3709 35.9361C54.7834 35.4529 54.842 35.0906 54.8442 34.4693C54.8448 34.3647 54.8454 34.2601 54.846 34.1524C54.8461 34.0401 54.8462 33.9279 54.8463 33.8122C54.8466 33.6961 54.8469 33.58 54.8472 33.4604C54.8477 33.2149 54.8479 32.9695 54.8478 32.724C54.8478 32.4108 54.849 32.0976 54.8505 31.7843C54.8518 31.4839 54.8517 31.1836 54.8518 30.8832C54.8525 30.7713 54.8531 30.6595 54.8537 30.5442C54.8685 29.6037 54.8685 29.6037 54.4375 28.8023C53.9886 28.4191 53.6477 28.3295 53.0684 28.3332C52.9897 28.3335 52.911 28.3338 52.83 28.3341C52.7086 28.3352 52.7086 28.3352 52.5847 28.3363C52.502 28.3367 52.4194 28.3371 52.3342 28.3375C52.1311 28.3386 51.928 28.34 51.7249 28.3419ZM33.9014 50.0374C33.5518 50.4469 33.4902 50.6722 33.5016 51.1961C33.5544 51.6144 33.7671 51.8475 34.0733 52.1176C34.4566 52.2676 34.8102 52.276 35.2161 52.2175C35.6127 52.0228 35.8293 51.8192 36.0149 51.4187C36.1142 51.0404 36.114 50.6697 36.1092 50.2815C36.1088 50.22 36.1084 50.1585 36.108 50.0951C36.107 49.9446 36.1054 49.7941 36.1037 49.6435C35.8947 49.6387 35.6858 49.6352 35.4768 49.6324C35.3605 49.6304 35.2441 49.6283 35.1242 49.6262C34.6347 49.6503 34.2756 49.7131 33.9014 50.0374Z" fill="black" stroke="#FFE8AF"/>
<path d="M37.7013 20.62C37.7722 20.6396 37.8431 20.6591 37.9161 20.6793C39.9721 21.2648 41.6523 22.2619 43.2043 23.7265C43.2697 23.7862 43.3351 23.8459 43.4026 23.9075C44.9673 25.3889 45.9213 27.3535 46.4883 29.4069C46.5138 29.4976 46.5138 29.4976 46.5399 29.5901C46.9954 31.2959 46.9664 33.5693 46.4883 35.2649C46.4687 35.3357 46.4491 35.4066 46.429 35.4796C45.8434 37.5356 44.8464 39.2158 43.3818 40.7678C43.322 40.8332 43.2623 40.8987 43.2008 40.9661C41.9532 42.2838 40.3283 43.1977 38.6222 43.78C38.5525 43.804 38.4828 43.828 38.411 43.8527C37.227 44.2313 36.0288 44.3584 34.7909 44.3483C34.6586 44.3482 34.5264 44.3483 34.3941 44.3484C34.0404 44.3485 33.6868 44.347 33.3332 44.3451C32.9616 44.3434 32.59 44.3433 32.2184 44.3429C31.5171 44.3421 30.8159 44.3399 30.1147 44.3373C29.3153 44.3343 28.5159 44.3328 27.7165 44.3315C26.0744 44.3287 24.4323 44.3238 22.7902 44.3181C22.7902 43.4101 22.7902 42.5021 22.7902 41.5666C23.2295 41.4787 23.2295 41.4787 23.6777 41.3891C24.2582 41.1639 24.673 40.8572 25.0091 40.324C25.1533 40.0309 25.1533 40.0309 25.1866 39.7027C25.0687 39.4707 24.9617 39.3045 24.8038 39.1036C23.3811 37.1283 22.75 34.7942 22.7569 32.3803C22.757 32.3138 22.757 32.2473 22.7571 32.1788C22.7694 28.9884 23.9796 26.2176 26.1629 23.904C26.2227 23.8386 26.2824 23.7731 26.3439 23.7057C27.8254 22.141 29.7899 21.1869 31.8434 20.62C31.9341 20.5944 31.9341 20.5944 32.0266 20.5683C33.7323 20.1129 36.0058 20.1418 37.7013 20.62ZM27.9381 26.0342C26.1382 27.9646 25.4319 30.3712 25.5028 32.9641C25.5949 34.8264 26.294 36.9676 27.6798 38.2809C27.9465 38.537 28.1017 38.6993 28.1468 39.0748C28.1109 39.7891 27.9056 40.4514 27.6718 41.1228C27.6125 41.3003 27.5533 41.4778 27.4943 41.6554C28.4257 41.6595 29.3571 41.6627 30.2885 41.6646C30.7211 41.6655 31.1538 41.6667 31.5864 41.6688C32.0054 41.6707 32.4244 41.6718 32.8433 41.6722C33.0017 41.6725 33.1601 41.6732 33.3185 41.6741C36.0009 41.6899 38.5202 41.3218 40.6303 39.5252C40.7064 39.4624 40.7825 39.3996 40.8609 39.3349C42.5435 37.8915 43.749 35.7966 44.0031 33.5785C44.2117 30.8384 43.6199 28.4141 41.8233 26.2994C40.145 24.3781 37.8901 23.2652 35.3548 23.0275C32.4842 22.9016 29.9405 24.0051 27.9381 26.0342Z" fill="black" stroke="#FFE8AF"/>
<path d="M38.7664 30.9158C39.6451 30.9158 40.5237 30.9158 41.4291 30.9158C41.4291 31.8238 41.4291 32.7317 41.4291 33.6672C40.5504 33.6672 39.6717 33.6672 38.7664 33.6672C38.7664 32.7593 38.7664 31.8513 38.7664 30.9158Z" fill="black"/>
<path d="M33.4412 30.9158C34.3199 30.9158 35.1985 30.9158 36.1039 30.9158C36.1039 31.8238 36.1039 32.7317 36.1039 33.6672C35.2252 33.6672 34.3465 33.6672 33.4412 33.6672C33.4412 32.7593 33.4412 31.8513 33.4412 30.9158Z" fill="black"/>
<path d="M28.1155 30.9158C28.9942 30.9158 29.8729 30.9158 30.7782 30.9158C30.7782 31.8238 30.7782 32.7317 30.7782 33.6672C29.8995 33.6672 29.0208 33.6672 28.1155 33.6672C28.1155 32.7593 28.1155 31.8513 28.1155 30.9158Z" fill="black"/>
</svg>
