<svg width="70" height="70" viewBox="0 0 70 70" fill="none" xmlns="http://www.w3.org/2000/svg">
<circle cx="35" cy="35" r="35" fill="#FFE8AF"/>
<path d="M21.4106 25.0366C21.4831 25.0351 21.5556 25.0337 21.6303 25.0322C22.2156 25.126 22.5986 25.5534 22.9986 25.9567C23.0583 26.016 23.1181 26.0753 23.1796 26.1364C23.376 26.3318 23.5715 26.528 23.767 26.7243C23.9036 26.8607 24.0402 26.9972 24.1769 27.1335C24.4629 27.4191 24.7483 27.7051 25.0336 27.9914C25.3627 28.3218 25.6927 28.6513 26.0231 28.9805C26.3418 29.298 26.6598 29.6162 26.9776 29.9347C27.1125 30.0697 27.2476 30.2046 27.3829 30.3394C27.5718 30.5277 27.76 30.7168 27.948 30.9061C28.0039 30.9615 28.0598 31.017 28.1174 31.0741C28.5321 31.4938 28.8054 31.869 28.8261 32.4799C28.6858 33.3071 27.9944 33.8404 27.4235 34.4007C27.2975 34.5254 27.1716 34.6501 27.0456 34.7748C26.8489 34.9692 26.652 35.1635 26.4548 35.3573C26.2631 35.5459 26.0721 35.7352 25.8811 35.9245C25.8219 35.9824 25.7627 36.0402 25.7017 36.0998C25.647 36.1542 25.5923 36.2087 25.536 36.2647C25.4879 36.3122 25.4397 36.3596 25.3901 36.4084C25.1608 36.6874 25.098 36.965 25.0929 37.3202C25.0908 37.3856 25.0887 37.451 25.0865 37.5185C25.1718 38.0759 25.54 38.5338 25.8664 38.9784C25.9298 39.0654 25.9298 39.0654 25.9946 39.1542C26.3725 39.6675 26.7742 40.1542 27.1957 40.6319C27.2459 40.6903 27.296 40.7487 27.3477 40.8088C28.1566 41.7339 29.0334 42.6288 30.0119 43.374C30.0859 43.4327 30.1599 43.4915 30.2362 43.552C30.6711 43.8956 31.117 44.2187 31.5774 44.5273C31.6248 44.5591 31.6722 44.591 31.7211 44.6238C32.0597 44.8474 32.2989 44.9421 32.703 44.9488C32.7715 44.9507 32.8399 44.9526 32.9105 44.9546C33.3301 44.9069 33.6165 44.6884 33.9051 44.3937C33.9674 44.3306 34.0297 44.2676 34.0939 44.2026C34.193 44.1008 34.193 44.1008 34.294 43.9969C34.3637 43.9263 34.4334 43.8557 34.5032 43.7852C34.7236 43.5622 34.9431 43.3385 35.1625 43.1146C35.4168 42.8549 35.6716 42.5956 35.9273 42.3373C36.029 42.2342 36.13 42.1304 36.231 42.0266C36.2933 41.9635 36.3556 41.9004 36.4198 41.8355C36.4741 41.78 36.5284 41.7246 36.5843 41.6674C36.9109 41.3889 37.2132 41.267 37.6405 41.2665C37.713 41.265 37.7855 41.2636 37.8602 41.2621C38.4455 41.3559 38.8285 41.7833 39.2285 42.1866C39.3181 42.2756 39.3181 42.2756 39.4095 42.3664C39.6059 42.5617 39.8014 42.7579 39.9969 42.9542C40.1335 43.0907 40.2702 43.2271 40.4068 43.3635C40.6928 43.649 40.9783 43.935 41.2635 44.2213C41.5926 44.5517 41.9226 44.8812 42.253 45.2104C42.5717 45.5279 42.8897 45.8461 43.2075 46.1646C43.3424 46.2996 43.4775 46.4346 43.6128 46.5693C43.8017 46.7577 43.9899 46.9467 44.1779 47.136C44.2338 47.1914 44.2897 47.2469 44.3473 47.304C44.7416 47.7031 45.0128 48.0431 45.019 48.6264C45.0224 48.7339 45.0224 48.7339 45.0259 48.8436C44.9189 49.4194 44.4766 49.8413 44.0741 50.2401C44.0226 50.2917 43.9711 50.3434 43.9181 50.3967C43.8095 50.5054 43.7006 50.6139 43.5915 50.7221C43.4274 50.885 43.2645 51.0491 43.1017 51.2133C41.5372 52.7804 39.7935 53.9701 37.5028 53.9998C33.8122 53.994 30.7377 51.5764 27.9368 49.3768C27.8741 49.3277 27.8115 49.2786 27.7469 49.228C27.0377 48.6666 26.3474 48.0813 25.6789 47.472C25.5623 47.3662 25.4452 47.2611 25.3273 47.1569C24.8448 46.7295 24.3858 46.2819 23.9311 45.8254C23.8095 45.7034 23.6875 45.5818 23.5654 45.4602C23.1542 45.0492 22.7546 44.6329 22.3786 44.1892C22.3021 44.1017 22.2253 44.0144 22.1485 43.9272C21.245 42.8954 20.4054 41.8248 19.6017 40.7135C19.5279 40.6122 19.4531 40.5115 19.3772 40.4118C19.2026 40.1793 19.0916 40.0197 19.0761 39.7287C19.1178 39.4462 19.1178 39.4462 19.2336 39.2609C19.4877 39.1045 19.6397 39.1034 19.933 39.1497C20.2761 39.4436 20.5232 39.808 20.7853 40.1734C21.2368 40.7947 21.7088 41.3943 22.1987 41.9857C22.3499 42.1692 22.4983 42.355 22.6473 42.5402C22.9454 42.9046 23.2604 43.2505 23.5812 43.5948C23.731 43.756 23.8749 43.9212 24.018 44.0884C24.3423 44.4604 24.6908 44.8079 25.0403 45.156C25.1529 45.2682 25.2651 45.3808 25.3773 45.4935C25.7731 45.8895 26.1771 46.2707 26.6028 46.6348C26.7173 46.7395 26.8316 46.8444 26.9456 46.9497C27.3191 47.2868 27.7107 47.5957 28.1082 47.9036C28.2894 48.0442 28.4683 48.187 28.6455 48.3326C29.3157 48.8821 30.0141 49.377 30.7348 49.8583C30.8857 49.9593 31.0359 50.0613 31.1857 50.1639C33.4207 51.7059 33.4207 51.7059 35.9406 52.6376C35.9986 52.6504 36.0565 52.6632 36.1163 52.6764C37.4453 52.917 38.8327 52.6728 40.0166 52.0447C40.1047 51.9996 40.1047 51.9996 40.1946 51.9535C40.6038 51.7274 40.9578 51.4471 41.3135 51.1462C41.3816 51.0889 41.3816 51.0889 41.451 51.0305C41.4935 50.9936 41.536 50.9567 41.5798 50.9186C41.6368 50.8693 41.6368 50.8693 41.6949 50.819C41.8103 50.6945 41.8703 50.5668 41.9434 50.4143C41.9055 50.3766 41.8676 50.3389 41.8286 50.3C41.4718 49.9447 41.1152 49.5892 40.7588 49.2335C40.5755 49.0506 40.3922 48.8678 40.2087 48.6852C39.9979 48.4753 39.7874 48.2652 39.5769 48.055C39.5108 47.9893 39.4447 47.9236 39.3766 47.8559C39.2854 47.7647 39.2854 47.7647 39.1923 47.6716C39.1385 47.618 39.0847 47.5643 39.0292 47.509C38.8695 47.3379 38.8343 47.2531 38.8031 47.0192C38.8309 46.783 38.8309 46.783 38.9883 46.5699C39.2014 46.4124 39.2014 46.4124 39.4098 46.3569C39.9852 46.4922 40.4579 47.14 40.8642 47.5493C40.921 47.6061 40.9777 47.6629 41.0361 47.7215C41.2152 47.901 41.3941 48.0808 41.5729 48.2605C41.6951 48.3831 41.8174 48.5057 41.9397 48.6283C42.2376 48.927 42.5352 49.2259 42.8328 49.525C43.0763 49.4088 43.2529 49.2816 43.4488 49.0943C43.502 49.0449 43.5552 48.9955 43.61 48.9446C43.742 48.7919 43.742 48.7919 43.7063 48.6053C43.6418 48.3933 43.5742 48.3021 43.4193 48.1461C43.3704 48.0962 43.3216 48.0463 43.2713 47.9949C43.2174 47.9414 43.1635 47.8879 43.108 47.8327C43.0515 47.7754 42.9949 47.7181 42.9367 47.6591C42.7496 47.4699 42.5614 47.2819 42.373 47.0939C42.2427 46.963 42.1125 46.8321 41.9822 46.7012C41.7091 46.4269 41.4354 46.1533 41.1614 45.88C40.8444 45.564 40.5289 45.2466 40.2141 44.9286C39.911 44.6227 39.6068 44.318 39.302 44.0137C39.1725 43.8841 39.0433 43.7542 38.9145 43.6238C38.7346 43.4421 38.5533 43.2619 38.3717 43.0819C38.3184 43.0275 38.2651 42.973 38.2102 42.917C38.1605 42.8683 38.1108 42.8197 38.0597 42.7696C38.0169 42.7269 37.9742 42.6841 37.9302 42.64C37.7924 42.5405 37.7924 42.5405 37.6028 42.5731C37.3601 42.6537 37.2406 42.7861 37.0661 42.971C37.0076 43.0322 36.949 43.0935 36.8887 43.1566C36.8229 43.2275 36.8229 43.2275 36.7558 43.2998C36.861 43.54 36.988 43.697 37.1753 43.8794C37.228 43.9313 37.2806 43.9832 37.3349 44.0366C37.3899 44.09 37.4449 44.1434 37.5015 44.1984C37.6106 44.305 37.7196 44.4117 37.8284 44.5186C37.8767 44.5656 37.925 44.6126 37.9749 44.6611C38.1472 44.8424 38.1633 44.9246 38.187 45.1804C38.1639 45.449 38.1639 45.449 38.0527 45.6297C37.8473 45.758 37.6891 45.7984 37.4467 45.7935C37.0589 45.6852 36.7986 45.3278 36.5335 45.0414C36.469 44.9743 36.4045 44.9071 36.3381 44.8379C36.1795 44.6723 36.0224 44.5055 35.8665 44.3374C35.6237 44.4428 35.472 44.5701 35.2916 44.7626C35.239 44.8173 35.1865 44.872 35.1323 44.9284C35.024 45.0426 34.9161 45.1572 34.8087 45.2723C34.2808 45.8187 33.6927 46.1918 32.917 46.2119C31.369 46.2247 30.2744 45.2033 29.1226 44.2633C29.0835 44.232 29.0445 44.2007 29.0043 44.1684C28.3688 43.6571 27.7874 43.0917 27.2096 42.5171C27.1734 42.4813 27.1373 42.4455 27.1 42.4086C26.6036 41.9164 26.1461 41.4037 25.7135 40.8542C25.6706 40.8005 25.6276 40.7467 25.5834 40.6913C25.137 40.1296 24.7111 39.5579 24.3286 38.9506C24.2831 38.8787 24.2831 38.8787 24.2366 38.8053C23.8051 38.1026 23.7312 37.4262 23.8637 36.6251C24.0884 35.9391 24.52 35.4878 25.0327 34.995C25.0981 34.9308 25.1636 34.8667 25.2311 34.8006C25.3913 34.6439 25.5521 34.488 25.7135 34.3326C25.6123 34.106 25.4978 33.9503 25.3224 33.7755C25.2723 33.7252 25.2222 33.6749 25.1706 33.6231C25.1157 33.5687 25.0608 33.5143 25.0043 33.4583C24.9464 33.4004 24.8886 33.3426 24.829 33.2829C24.6376 33.0917 24.4458 32.901 24.2539 32.7103C24.1212 32.5779 23.9885 32.4454 23.8558 32.3128C23.5422 31.9997 23.2282 31.6869 22.9141 31.3743C22.5564 31.0183 22.1992 30.6619 21.842 30.3054C21.1073 29.5723 20.3721 28.8397 19.6366 28.1075C18.7228 28.532 18.0856 29.7351 17.7097 30.6272C17.1149 32.3217 17.1903 34.0155 17.9506 35.6388C18.1144 35.9789 18.286 36.3116 18.4804 36.6352C18.522 36.7048 18.522 36.7048 18.5645 36.7757C18.6401 36.8993 18.7182 37.0212 18.7965 37.143C18.92 37.4276 18.8962 37.5923 18.8214 37.8899C18.6516 38.0924 18.5355 38.1102 18.2748 38.1585C17.8951 38.0931 17.7815 37.8964 17.5615 37.5934C17.4017 37.3431 17.2578 37.0859 17.1169 36.8246C17.0781 36.753 17.0394 36.6815 16.9995 36.6078C16.0753 34.8608 15.6945 32.7654 16.2774 30.8336C16.8675 29.0909 17.9622 27.8275 19.2471 26.5467C19.4021 26.392 19.556 26.2362 19.71 26.0805C19.8094 25.9808 19.909 25.8812 20.0086 25.7817C20.0767 25.7126 20.0767 25.7126 20.1462 25.6421C20.5235 25.2688 20.8621 25.0373 21.4106 25.0366ZM21.0597 26.4331C20.986 26.5087 20.9131 26.5852 20.8409 26.6623C20.8033 26.7012 20.7658 26.7401 20.7271 26.7802C20.6346 26.8761 20.5431 26.9729 20.4518 27.0699C20.5535 27.298 20.6693 27.454 20.8457 27.6299C20.8964 27.6808 20.9471 27.7317 20.9994 27.7842C21.055 27.8393 21.1106 27.8943 21.1679 27.9511C21.2264 28.0097 21.285 28.0683 21.3454 28.1286C21.5391 28.3223 21.7333 28.5153 21.9276 28.7084C22.062 28.8426 22.1964 28.9767 22.3307 29.1109C22.6483 29.428 22.9662 29.7447 23.2842 30.0613C23.6464 30.4218 24.0081 30.7827 24.3698 31.1436C25.1137 31.886 25.8581 32.6278 26.6028 33.3692C26.8635 33.2459 27.0471 33.1021 27.2559 32.9014C27.316 32.8451 27.3761 32.7889 27.438 32.7309C27.5868 32.566 27.5868 32.566 27.5517 32.3745C27.4856 32.1626 27.4158 32.0699 27.2602 31.9138C27.2106 31.8634 27.161 31.813 27.11 31.7611C27.0279 31.68 27.0279 31.68 26.9442 31.5972C26.8868 31.5393 26.8295 31.4814 26.7704 31.4218C26.5805 31.2306 26.3895 31.0404 26.1984 30.8504C26.0663 30.718 25.9342 30.5856 25.8021 30.4532C25.5252 30.1758 25.2477 29.899 24.9698 29.6225C24.6485 29.3028 24.3283 28.9821 24.0086 28.6608C23.701 28.3516 23.3926 28.0434 23.0838 27.7354C22.9525 27.6043 22.8214 27.473 22.6905 27.3414C22.5077 27.1579 22.3241 26.9754 22.1401 26.7931C22.0859 26.7382 22.0316 26.6834 21.9757 26.6269C21.9255 26.5775 21.8754 26.5282 21.8236 26.4773C21.7803 26.4341 21.7369 26.3908 21.6923 26.3463C21.4302 26.1601 21.2841 26.24 21.0597 26.4331Z" fill="black"/>
<path d="M42.6799 16.0001C42.7652 16.0002 42.7652 16.0002 42.8521 16.0002C45.7827 16.0097 48.3801 17.0951 50.5401 19.0664C50.5991 19.1201 50.658 19.1737 50.7187 19.2291C51.8933 20.3518 52.7751 21.7806 53.3563 23.2906C53.3904 23.3776 53.4245 23.4647 53.4596 23.5543C54.4711 26.3442 54.2307 29.5408 53.0135 32.2207C52.4828 33.3353 51.7436 34.3171 50.9107 35.2222C50.8608 35.2773 50.8109 35.3324 50.7596 35.3892C49.0169 37.2246 46.2862 38.5215 43.7474 38.6443C41.3532 38.6819 39.2494 38.4148 37.1264 37.2231C37.0531 37.182 37.0531 37.182 36.9783 37.1401C36.1826 36.686 35.4997 36.1403 34.829 35.5186C34.7721 35.4669 34.7151 35.4152 34.6565 35.362C32.7009 33.5058 31.4762 30.6828 31.3919 28.0038C31.3372 25.7242 31.6428 23.1365 33.1245 21.2896C33.4257 21.1928 33.5679 21.1811 33.8563 21.3128C34.0138 21.4379 34.0138 21.4379 34.0879 21.5861C34.1306 21.9799 34.0041 22.2411 33.8193 22.5773C32.7054 24.7081 32.2414 27.3872 32.9021 29.7381C32.9181 29.7965 32.934 29.8549 32.9505 29.915C33.3538 31.3474 34.0001 32.6857 34.9772 33.8141C35.0253 33.8706 35.0253 33.8706 35.0744 33.9282C36.6963 35.8226 39.076 37.1281 41.5729 37.3713C41.6603 37.3812 41.7477 37.391 41.8378 37.4012C44.3507 37.6273 47.021 36.8612 48.985 35.2636C49.058 35.201 49.131 35.1384 49.2062 35.0739C49.263 35.0257 49.263 35.0257 49.3209 34.9764C50.816 33.6961 51.8539 32.0333 52.4253 30.155C52.4427 30.0978 52.4601 30.0407 52.478 29.9818C52.726 29.1125 52.7905 28.2489 52.7866 27.3481C52.7864 27.2976 52.7862 27.2471 52.786 27.1951C52.7816 26.4158 52.7513 25.6749 52.5411 24.921C52.5251 24.8625 52.5092 24.804 52.4928 24.7438C52.0894 23.3115 51.4431 21.9733 50.466 20.845C50.434 20.8073 50.4019 20.7697 50.3688 20.7309C48.6245 18.6935 46.1605 17.4875 43.5001 17.239C40.857 17.042 38.1928 17.8874 36.1815 19.6129C35.9652 19.8017 35.754 19.9927 35.5547 20.1997C35.3676 20.3779 35.2327 20.3951 34.9772 20.4003C34.7157 20.2815 34.6194 20.1972 34.4584 19.9557C34.4412 19.6682 34.4704 19.5209 34.6423 19.2887C36.1542 17.6978 38.3118 16.5792 40.4613 16.1761C40.529 16.1631 40.5967 16.1502 40.6664 16.1368C41.3381 16.0199 42.0004 15.9983 42.6799 16.0001Z" fill="black"/>
<path d="M48.156 19.9607C48.3375 20.1029 48.5131 20.2498 48.6875 20.4004C48.7436 20.4467 48.7997 20.4929 48.8575 20.5405C50.5089 21.939 51.5372 24.0509 51.8001 26.1809C51.8152 26.5143 51.817 26.8476 51.8179 27.1813C51.8186 27.339 51.821 27.4967 51.8233 27.6544C51.8238 27.7556 51.8242 27.8567 51.8244 27.9578C51.8251 28.0488 51.8258 28.1398 51.8265 28.2336C51.7977 28.5004 51.7407 28.6377 51.5778 28.8489C51.3297 28.9729 51.2 29.0138 50.9293 28.9461C50.7626 28.8489 50.7626 28.8489 50.6144 28.6265C50.5954 28.4036 50.5954 28.4036 50.5941 28.1304C50.5928 28.0295 50.5915 27.9286 50.5901 27.8277C50.5896 27.775 50.5891 27.7224 50.5885 27.6682C50.5774 26.7467 50.5377 25.8757 50.2438 24.9952C50.2171 24.9128 50.1903 24.8303 50.1628 24.7454C49.4084 22.6224 47.8962 21.0772 45.8878 20.1039C45.4525 19.9082 44.9985 19.7789 44.5374 19.6593C44.4715 19.642 44.4056 19.6248 44.3377 19.6069C42.2991 19.1393 40.1513 19.6268 38.3991 20.7203C37.4947 21.3189 36.6396 22.1306 36.089 23.0684C36.0627 23.1129 36.0365 23.1575 36.0095 23.2034C35.5789 23.9458 35.2605 24.6801 35.0514 25.514C35.031 25.5947 35.031 25.5947 35.0101 25.6771C34.7181 26.9523 34.7858 28.4238 35.1997 29.6641C35.2399 29.7882 35.2399 29.7882 35.281 29.9148C35.8614 31.5478 36.9584 33.0624 38.4605 33.9624C38.5037 33.9885 38.5469 34.0145 38.5914 34.0414C40.4242 35.128 42.5137 35.486 44.5927 34.979C45.8274 34.6587 46.8765 34.086 47.8723 33.2954C47.9503 33.2373 48.0282 33.1793 48.1086 33.1194C48.8671 32.4114 49.4401 31.5246 49.9045 30.6043C50.0215 30.4052 50.0215 30.4052 50.2438 30.257C50.5171 30.2213 50.6559 30.24 50.9015 30.3681C51.0844 30.5832 51.0905 30.7081 51.0825 30.985C51.0418 31.265 50.9125 31.4815 50.7672 31.7206C50.7371 31.7719 50.707 31.8231 50.676 31.876C49.3559 34.0818 47.3478 35.5894 44.8677 36.2259C44.1659 36.3967 43.4835 36.4259 42.7634 36.4265C42.7119 36.4266 42.6603 36.4266 42.6072 36.4267C41.8454 36.4255 41.1261 36.3958 40.3873 36.1857C40.2964 36.1605 40.2054 36.1352 40.1117 36.1093C38.5445 35.63 37.2292 34.7629 36.089 33.5919C36.0523 33.5594 36.0156 33.5269 35.9778 33.4934C34.9208 32.5245 34.2424 31.0226 33.8657 29.6641C33.842 29.5808 33.8183 29.4975 33.7939 29.4116C33.4741 28.0493 33.4829 26.3413 33.8657 24.9952C33.8909 24.9043 33.9161 24.8133 33.9421 24.7196C34.6708 22.3366 36.2776 20.4348 38.4388 19.2307C41.5036 17.6043 45.3703 17.9253 48.156 19.9607Z" fill="black"/>
<path d="M42.7213 22.6702C42.7786 22.6696 42.8359 22.669 42.895 22.6685C43.0945 22.7053 43.1571 22.7586 43.2771 22.9203C43.3456 23.1377 43.3607 23.335 43.3611 23.5622C43.3615 23.6313 43.3618 23.7004 43.3621 23.7716C43.3621 23.8468 43.362 23.9221 43.362 23.9997C43.3622 24.0793 43.3625 24.159 43.3628 24.2411C43.3635 24.5048 43.3636 24.7685 43.3637 25.0321C43.3639 25.2153 43.3642 25.3984 43.3644 25.5815C43.3649 25.9654 43.365 26.3494 43.365 26.7333C43.365 27.2256 43.366 27.7179 43.3672 28.2101C43.3681 28.5883 43.3682 28.9666 43.3682 29.3448C43.3683 29.5263 43.3686 29.7078 43.3692 29.8893C43.3699 30.143 43.3697 30.3967 43.3692 30.6504C43.3697 30.7255 43.3701 30.8006 43.3705 30.878C43.367 31.6494 43.367 31.6494 43.0548 31.9616C42.9022 31.9839 42.9022 31.9839 42.7259 31.9848C42.639 31.9867 42.639 31.9867 42.5502 31.9886C42.3453 31.9546 42.2921 31.9019 42.1655 31.7393C42.1375 31.5748 42.1375 31.5748 42.1373 31.3793C42.1366 31.3051 42.136 31.2309 42.1354 31.1544C42.1358 31.0731 42.1363 30.9918 42.1367 30.908C42.1363 30.8223 42.1359 30.7367 42.1355 30.6484C42.1346 30.3643 42.1352 30.0803 42.136 29.7963C42.1358 29.5994 42.1356 29.4025 42.1353 29.2056C42.1349 28.7927 42.1354 28.3798 42.1365 27.9669C42.1377 27.4894 42.1373 27.0119 42.1361 26.5344C42.1351 26.1245 42.1349 25.7146 42.1355 25.3048C42.1359 25.0599 42.1358 24.8151 42.1352 24.5703C42.1346 24.2974 42.1355 24.0245 42.1367 23.7516C42.1363 23.6703 42.1358 23.5889 42.1354 23.5052C42.136 23.431 42.1366 23.3568 42.1373 23.2804C42.1373 23.2158 42.1374 23.1513 42.1375 23.0848C42.1955 22.7437 42.4004 22.667 42.7213 22.6702Z" fill="black"/>
<path d="M46.7975 24.5227C46.8548 24.5222 46.9121 24.5216 46.9712 24.521C47.1706 24.5579 47.2333 24.6111 47.3533 24.7729C47.4347 25.0201 47.4372 25.253 47.4382 25.512C47.4386 25.6013 47.4391 25.6906 47.4396 25.7826C47.4397 25.8788 47.4398 25.975 47.4399 26.0741C47.4401 26.1741 47.4403 26.2742 47.4406 26.3742C47.441 26.5837 47.4412 26.7932 47.4411 27.0027C47.4411 27.2707 47.4421 27.5386 47.4434 27.8066C47.4442 28.0132 47.4444 28.2197 47.4444 28.4263C47.4445 28.573 47.4453 28.7197 47.4461 28.8663C47.4459 28.9558 47.4456 29.0454 47.4454 29.1376C47.4455 29.2162 47.4456 29.2948 47.4457 29.3758C47.4194 29.6836 47.3502 29.8894 47.131 30.1087C46.9784 30.131 46.9784 30.131 46.8021 30.1319C46.7151 30.1337 46.7151 30.1337 46.6264 30.1356C46.4175 30.101 46.3667 30.0568 46.2417 29.8864C46.2134 29.667 46.2134 29.667 46.2129 29.3953C46.2125 29.3457 46.2121 29.2962 46.2117 29.2451C46.2107 29.0814 46.2114 28.9177 46.2121 28.7539C46.212 28.6401 46.2118 28.5263 46.2115 28.4125C46.2112 28.174 46.2116 27.9356 46.2127 27.6971C46.2139 27.3913 46.2132 27.0855 46.2119 26.7798C46.2111 26.5448 46.2113 26.3098 46.2119 26.0748C46.2121 25.9621 46.2119 25.8493 46.2114 25.7366C46.2108 25.579 46.2117 25.4215 46.2129 25.264C46.2131 25.1743 46.2132 25.0846 46.2134 24.9922C46.2417 24.7729 46.2417 24.7729 46.3446 24.6328C46.5022 24.5241 46.6072 24.5208 46.7975 24.5227Z" fill="black"/>
<path d="M38.6456 24.5227C38.7029 24.5222 38.7603 24.5216 38.8193 24.521C39.0188 24.5579 39.0814 24.6111 39.2014 24.7729C39.2828 25.0201 39.2854 25.253 39.2863 25.512C39.2868 25.6013 39.2873 25.6906 39.2878 25.7826C39.2878 25.8788 39.2879 25.975 39.288 26.0741C39.2882 26.1741 39.2885 26.2742 39.2887 26.3742C39.2892 26.5837 39.2893 26.7932 39.2893 27.0027C39.2893 27.2707 39.2903 27.5386 39.2916 27.8066C39.2924 28.0132 39.2925 28.2197 39.2925 28.4263C39.2926 28.573 39.2934 28.7197 39.2942 28.8663C39.294 28.9558 39.2938 29.0454 39.2936 29.1376C39.2937 29.2162 39.2938 29.2948 39.2939 29.3758C39.2675 29.6836 39.1984 29.8894 38.9791 30.1087C38.8266 30.131 38.8266 30.131 38.6503 30.1319C38.5633 30.1337 38.5633 30.1337 38.4745 30.1356C38.2656 30.101 38.2148 30.0568 38.0898 29.8864C38.0616 29.667 38.0616 29.667 38.061 29.3953C38.0606 29.3457 38.0603 29.2962 38.0599 29.2451C38.0589 29.0814 38.0595 28.9177 38.0603 28.7539C38.0601 28.6401 38.0599 28.5263 38.0596 28.4125C38.0593 28.174 38.0598 27.9356 38.0608 27.6971C38.0621 27.3913 38.0614 27.0855 38.06 26.7798C38.0592 26.5448 38.0595 26.3098 38.0601 26.0748C38.0602 25.9621 38.06 25.8493 38.0595 25.7366C38.0589 25.579 38.0598 25.4215 38.061 25.264C38.0612 25.1743 38.0614 25.0846 38.0616 24.9922C38.0898 24.7729 38.0898 24.7729 38.1928 24.6328C38.3504 24.5241 38.4554 24.5208 38.6456 24.5227Z" fill="black"/>
<path d="M44.7598 25.6249C44.8087 25.6241 44.8576 25.6233 44.908 25.6226C45.1322 25.6821 45.2114 25.7742 45.3527 25.9584C45.3821 26.1741 45.3943 26.3612 45.392 26.5767C45.3923 26.6365 45.3926 26.6962 45.3929 26.7577C45.3931 26.8838 45.3926 27.0099 45.3913 27.136C45.3897 27.3288 45.3913 27.5213 45.3932 27.7141C45.393 27.8368 45.3926 27.9594 45.392 28.0821C45.3926 28.1396 45.3932 28.1971 45.3939 28.2564C45.3893 28.5218 45.3751 28.6712 45.2113 28.8848C45.0432 29.0063 44.9647 29.0371 44.7598 29.0339C44.6864 29.035 44.6864 29.035 44.6116 29.0362C44.3873 28.9767 44.3082 28.8846 44.1669 28.7004C44.1374 28.4847 44.1253 28.2976 44.1276 28.0821C44.1273 28.0223 44.127 27.9626 44.1267 27.901C44.1265 27.775 44.127 27.6489 44.1283 27.5228C44.1299 27.33 44.1283 27.1374 44.1264 26.9447C44.1266 26.822 44.127 26.6994 44.1276 26.5767C44.127 26.5192 44.1264 26.4617 44.1257 26.4024C44.1303 26.137 44.1445 25.9876 44.3083 25.774C44.4764 25.6525 44.5549 25.6217 44.7598 25.6249Z" fill="black"/>
<path d="M40.6836 25.6249C40.7325 25.6241 40.7814 25.6233 40.8318 25.6226C41.0561 25.6821 41.1352 25.7742 41.2765 25.9584C41.306 26.1741 41.3181 26.3612 41.3159 26.5767C41.3162 26.6365 41.3164 26.6962 41.3167 26.7577C41.3169 26.8838 41.3164 27.0099 41.3151 27.136C41.3136 27.3288 41.3151 27.5213 41.317 27.7141C41.3168 27.8368 41.3164 27.9594 41.3159 28.0821C41.3165 28.1396 41.3171 28.1971 41.3177 28.2564C41.3131 28.5218 41.2989 28.6712 41.1351 28.8848C40.967 29.0063 40.8885 29.0371 40.6836 29.0339C40.6103 29.035 40.6103 29.035 40.5354 29.0362C40.3112 28.9767 40.232 28.8846 40.0907 28.7004C40.0613 28.4847 40.0491 28.2976 40.0514 28.0821C40.0511 28.0223 40.0508 27.9626 40.0505 27.901C40.0503 27.775 40.0509 27.6489 40.0521 27.5228C40.0537 27.33 40.0521 27.1374 40.0502 26.9447C40.0504 26.822 40.0508 26.6994 40.0514 26.5767C40.0508 26.5192 40.0502 26.4617 40.0496 26.4024C40.0542 26.137 40.0683 25.9876 40.2322 25.774C40.4002 25.6525 40.4787 25.6217 40.6836 25.6249Z" fill="black"/>
<path d="M48.8353 25.9955C48.8842 25.9947 48.9331 25.994 48.9835 25.9932C49.2008 26.0509 49.287 26.1561 49.4282 26.329C49.4665 26.5336 49.4665 26.5336 49.4675 26.7664C49.4679 26.8507 49.4683 26.935 49.4687 27.0219C49.467 27.1535 49.467 27.1535 49.4652 27.2878C49.4664 27.3752 49.4675 27.4627 49.4687 27.5528C49.4683 27.6372 49.4679 27.7216 49.4675 27.8085C49.4672 27.8854 49.4669 27.9623 49.4665 28.0416C49.4188 28.308 49.3182 28.4337 49.1317 28.6264C48.9835 28.673 48.9835 28.673 48.8353 28.668C48.7864 28.6681 48.7375 28.6682 48.6871 28.6683C48.4706 28.607 48.3835 28.5036 48.2424 28.3299C48.2041 28.1173 48.2041 28.1173 48.2031 27.8737C48.2027 27.7857 48.2023 27.6977 48.2019 27.6071C48.2031 27.5155 48.2042 27.4238 48.2054 27.3294C48.2042 27.2378 48.2031 27.1462 48.2019 27.0518C48.2023 26.9638 48.2027 26.8759 48.2031 26.7852C48.2034 26.7048 48.2037 26.6244 48.2041 26.5416C48.2674 26.1906 48.4745 25.9898 48.8353 25.9955Z" fill="black"/>
<path d="M36.6078 25.9955C36.6567 25.9947 36.7056 25.994 36.756 25.9932C36.9739 26.0511 37.0595 26.155 37.2006 26.329C37.239 26.5416 37.239 26.5416 37.24 26.7852C37.2404 26.8732 37.2408 26.9612 37.2412 27.0518C37.24 27.1434 37.2389 27.2351 37.2377 27.3294C37.2388 27.4211 37.24 27.5127 37.2412 27.6071C37.2408 27.695 37.2404 27.783 37.24 27.8737C37.2397 27.9541 37.2393 28.0345 37.239 28.1173C37.1921 28.3775 37.1091 28.4647 36.9042 28.6264C36.756 28.6683 36.756 28.6683 36.6078 28.668C36.5344 28.6705 36.5344 28.6705 36.4595 28.673C36.2273 28.5999 36.1484 28.4544 36.0149 28.2558C35.9765 28.0416 35.9765 28.0416 35.9755 27.8085C35.9751 27.7241 35.9748 27.6397 35.9744 27.5528C35.9755 27.4653 35.9767 27.3779 35.9778 27.2878C35.9767 27.2 35.9755 27.1123 35.9744 27.0219C35.9747 26.9376 35.9751 26.8533 35.9755 26.7664C35.9759 26.6896 35.9762 26.6128 35.9765 26.5336C36.0415 26.187 36.2526 25.9899 36.6078 25.9955Z" fill="black"/>
</svg>
