<svg width="512" height="512" viewBox="0 0 512 512" fill="none" xmlns="http://www.w3.org/2000/svg">
<path d="M390.89 122.751H329.066V101.403C329.056 92.017 325.322 83.0181 318.685 76.381C312.048 69.7439 303.049 66.0105 293.663 66H218.282C208.895 66.0105 199.897 69.7439 193.259 76.381C186.622 83.0181 182.889 92.017 182.878 101.403V122.751H121.055C115.738 122.758 110.641 124.872 106.881 128.632C103.121 132.392 101.006 137.49 101 142.807V225.05C100.999 228.514 101.9 231.918 103.615 234.928C105.33 237.938 107.799 240.449 110.779 242.214V344.486C110.788 350.189 113.057 355.656 117.09 359.689C121.123 363.722 126.59 365.991 132.293 366H379.652C385.355 365.991 390.822 363.722 394.855 359.689C398.888 355.656 401.157 350.189 401.166 344.486V242.221C404.146 240.462 406.615 237.956 408.33 234.95C410.045 231.944 410.947 228.543 410.945 225.083V142.807C410.939 137.49 408.824 132.392 405.064 128.632C401.304 124.872 396.207 122.758 390.89 122.751ZM194.481 101.403C194.488 95.093 196.998 89.0432 201.46 84.5811C205.922 80.1191 211.971 77.6092 218.282 77.6022H293.663C299.973 77.6092 306.023 80.1191 310.485 84.5811C314.947 89.0432 317.457 95.093 317.464 101.403V122.751H305.862V101.403C305.858 98.169 304.572 95.0682 302.285 92.7813C299.998 90.4943 296.897 89.2079 293.663 89.2044H218.282C215.048 89.2079 211.947 90.4943 209.66 92.7813C207.373 95.0682 206.086 98.169 206.083 101.403V122.751H194.481V101.403ZM294.26 101.403V122.751H217.685V101.403C217.691 101.247 217.756 101.098 217.866 100.988C217.977 100.877 218.125 100.812 218.282 100.807H293.663C293.819 100.812 293.968 100.877 294.079 100.988C294.189 101.098 294.254 101.247 294.26 101.403ZM389.564 344.486C389.56 347.114 388.515 349.633 386.657 351.491C384.799 353.349 382.28 354.394 379.652 354.398H132.293C129.665 354.394 127.146 353.349 125.288 351.491C123.43 349.633 122.385 347.114 122.381 344.486V245.834L186.691 259.634C202.796 263.042 219.131 265.258 235.562 266.264V274.309C235.567 278.563 237.259 282.642 240.267 285.649C243.274 288.657 247.353 290.349 251.607 290.354H266.358C270.612 290.349 274.69 288.657 277.698 285.649C280.706 282.642 282.398 278.563 282.402 274.309V265.873C297.236 264.747 311.976 262.616 326.52 259.495L389.564 245.881V344.486ZM247.155 274.309V248.088C247.156 246.911 247.624 245.781 248.457 244.948C249.29 244.116 250.419 243.647 251.597 243.646H266.348C267.526 243.647 268.655 244.116 269.488 244.948C270.321 245.781 270.789 246.911 270.79 248.088V274.309C270.789 275.487 270.321 276.617 269.488 277.449C268.655 278.282 267.526 278.751 266.348 278.751H251.597C250.419 278.751 249.29 278.282 248.457 277.449C247.624 276.617 247.156 275.487 247.155 274.309ZM399.343 225.083C399.348 226.852 398.792 228.578 397.755 230.012C396.717 231.445 395.251 232.512 393.568 233.059C393.402 233.11 393.24 233.171 393.081 233.241C392.951 233.284 392.818 233.315 392.683 233.334L324.061 248.155C310.322 251.12 296.402 253.171 282.392 254.294V248.088C282.391 247.694 282.351 247.301 282.273 246.915C281.985 242.887 280.185 239.116 277.234 236.358C274.284 233.601 270.4 232.06 266.361 232.044H251.597C247.558 232.061 243.675 233.602 240.725 236.359C237.774 239.117 235.974 242.887 235.685 246.915C235.608 247.301 235.569 247.694 235.569 248.088V254.692C219.951 253.68 204.426 251.539 189.117 248.284L119.182 233.277C118.911 233.223 118.644 233.15 118.383 233.059C116.697 232.506 115.229 231.434 114.19 229.995C113.151 228.556 112.595 226.824 112.602 225.05V142.807C112.605 140.566 113.496 138.417 115.081 136.832C116.666 135.248 118.814 134.356 121.055 134.354H390.89C393.131 134.356 395.279 135.248 396.864 136.832C398.448 138.417 399.34 140.566 399.343 142.807V225.083Z" fill="black" stroke="black" stroke-width="2"/>
</svg>
