<svg width="70" height="70" viewBox="0 0 70 70" fill="none" xmlns="http://www.w3.org/2000/svg">
<circle cx="35" cy="35" r="35" fill="#FFE8AF"/>
<path d="M36.5919 15.7527C36.9144 15.9906 37.2006 16.2354 37.4715 16.5314C37.526 16.5909 37.5805 16.6504 37.6366 16.7116C37.7475 16.8346 37.8567 16.959 37.9644 17.0847C38.2601 17.4145 38.2601 17.4145 38.6685 17.5292C38.8842 17.4858 39.0751 17.4217 39.2794 17.3403C39.3458 17.3153 39.4121 17.2903 39.4805 17.2646C39.6159 17.2119 39.7508 17.1577 39.8851 17.1023C40.862 16.7022 41.7652 16.491 42.7997 16.8605C44.2175 17.5377 44.615 18.8181 45.1708 20.1967C45.2314 20.1985 45.2921 20.2003 45.3547 20.2021C45.6337 20.2107 45.9127 20.2204 46.1917 20.2302C46.3349 20.2343 46.3349 20.2343 46.4809 20.2386C47.6262 20.2806 48.5909 20.4844 49.4045 21.3491C49.9157 22.0295 50.0931 22.7751 50.0889 23.6131C50.0886 23.7161 50.0883 23.8191 50.0881 23.9252C50.0873 24.0314 50.0866 24.1376 50.0858 24.247C50.0854 24.3553 50.085 24.4636 50.0846 24.5751C50.0835 24.8414 50.082 25.1077 50.0802 25.374C50.1295 25.3895 50.1787 25.4051 50.2295 25.4212C51.5221 25.8396 52.9056 26.3645 53.567 27.6334C53.9148 28.4019 53.9679 29.2587 53.6842 30.0602C53.574 30.332 53.4514 30.5939 53.3229 30.8577C53.2728 30.9609 53.2226 31.0641 53.1709 31.1704C53.1224 31.2651 53.0738 31.3598 53.0238 31.4574C52.9135 31.7001 52.9135 31.7001 52.9913 31.9041C53.1266 32.0839 53.2688 32.2329 53.4331 32.3866C54.3375 33.2745 55.0137 34.0639 55.0343 35.3714C55.0166 36.4888 54.6005 37.0943 53.8292 37.8707C53.7638 37.9385 53.6983 38.0063 53.6308 38.0761C53.3532 38.36 53.0806 38.6198 52.7581 38.8526C52.8129 39.3716 53.0094 39.8137 53.2044 40.292C53.5743 41.2337 53.8504 42.15 53.4722 43.1372C52.8442 44.4512 51.8028 44.8763 50.4986 45.3761C50.2587 45.458 50.2587 45.458 50.0802 45.458C50.0811 45.5214 50.0821 45.5848 50.083 45.6501C50.0868 45.9413 50.0891 46.2324 50.0914 46.5236C50.0929 46.6233 50.0944 46.723 50.0959 46.8257C50.1023 47.9204 49.9278 48.7986 49.1764 49.6311C48.5046 50.2632 47.6522 50.4699 46.7531 50.4655C46.6501 50.4652 46.5471 50.4649 46.441 50.4646C46.3348 50.4638 46.2286 50.4631 46.1192 50.4623C46.0109 50.4619 45.9026 50.4615 45.7911 50.4611C45.5248 50.4601 45.2585 50.4586 44.9922 50.4567C44.9716 50.5267 44.951 50.5967 44.9298 50.6687C44.7784 51.0907 44.5842 51.4842 44.3841 51.8849C44.3461 51.9632 44.3081 52.0414 44.2689 52.1221C43.8441 52.9754 43.3331 53.5965 42.419 53.945C40.9841 54.3581 39.8676 53.8008 38.5653 53.2239C38.2618 53.4798 37.9605 53.7365 37.6734 54.0109C36.7635 54.8776 36.0612 55.3189 34.7886 55.3154C33.3597 55.2736 32.5692 54.2509 31.6441 53.2736C31.601 53.2277 31.5579 53.1819 31.5136 53.1346C31.0196 53.2774 30.5338 53.4302 30.0528 53.612C29.1077 53.9665 28.2179 54.1882 27.229 53.8487C25.9136 53.2368 25.4859 52.1689 24.9901 50.8752C24.9081 50.6353 24.9081 50.6353 24.9081 50.4567C24.8448 50.4577 24.7814 50.4586 24.716 50.4596C24.4249 50.4633 24.1337 50.4656 23.8426 50.4679C23.7429 50.4694 23.6432 50.4709 23.5404 50.4724C22.4458 50.4789 21.5676 50.3043 20.7351 49.553C20.103 48.8811 19.8963 48.0287 19.9007 47.1296C19.901 47.0266 19.9013 46.9237 19.9016 46.8176C19.9027 46.6582 19.9027 46.6582 19.9039 46.4957C19.9043 46.3874 19.9047 46.2792 19.9051 46.1676C19.9061 45.9013 19.9076 45.6351 19.9094 45.3688C19.8356 45.3454 19.8356 45.3454 19.7602 45.3216C18.4675 44.9032 17.0841 44.3782 16.4226 43.1093C16.0774 42.3465 16.0203 41.4906 16.2999 40.6936C16.3691 40.5249 16.4421 40.3577 16.5175 40.1915C16.5433 40.1345 16.5691 40.0775 16.5957 40.0187C16.7735 39.6279 16.9564 39.2397 17.1423 38.8526C17.0759 38.7877 17.0759 38.7877 17.0081 38.7215C16.0161 37.7427 15.0231 36.756 15 35.2821C15.0902 34.124 15.6384 33.4274 16.4561 32.6433C16.5307 32.5703 16.6053 32.4973 16.6822 32.422C16.8645 32.2439 17.0476 32.0666 17.2316 31.8901C17.0893 31.3973 16.9368 30.9132 16.7542 30.4339C16.4061 29.511 16.1494 28.5662 16.5175 27.6055C17.1455 26.2915 18.1869 25.8665 19.491 25.3666C19.7309 25.2847 19.7309 25.2847 19.9094 25.2847C19.908 25.1896 19.908 25.1896 19.9066 25.0926C19.9029 24.8014 19.9006 24.5103 19.8983 24.2191C19.8968 24.1194 19.8953 24.0197 19.8938 23.917C19.8873 22.8224 20.0618 21.9441 20.8132 21.1117C21.4851 20.4795 22.3374 20.2728 23.2366 20.2773C23.3396 20.2776 23.4425 20.2778 23.5486 20.2781C23.6548 20.2789 23.761 20.2796 23.8705 20.2804C24.0329 20.281 24.0329 20.281 24.1986 20.2816C24.4649 20.2827 24.7311 20.2841 24.9974 20.286C25.013 20.2367 25.0286 20.1875 25.0446 20.1367C25.463 18.8441 25.988 17.4606 27.2569 16.7992C28.0254 16.4514 28.8821 16.3983 29.6837 16.682C29.9555 16.7922 30.2174 16.9148 30.4811 17.0432C30.5843 17.0934 30.6876 17.1436 30.7939 17.1953C30.8886 17.2438 30.9833 17.2924 31.0809 17.3424C31.3223 17.4519 31.3223 17.4519 31.5209 17.3783C31.7312 17.222 31.9237 17.0553 32.1161 16.8773C32.1946 16.8057 32.2731 16.7341 32.3539 16.6604C32.4952 16.5302 32.6361 16.3996 32.7765 16.2685C33.8061 15.3284 35.3422 14.9504 36.5919 15.7527ZM34.9948 18.2329C34.8599 18.3682 34.7254 18.5038 34.5926 18.6411C33.6897 19.5723 32.8734 20.3627 31.5307 20.4879C30.5082 20.4839 29.5731 19.9812 28.6572 19.5719C28.4254 19.7767 28.3201 19.9646 28.2063 20.2508C28.1734 20.3313 28.1404 20.4117 28.1064 20.4947C28.0392 20.6624 27.9722 20.8302 27.9056 20.9982C27.6239 21.6836 27.2946 22.3247 26.6488 22.7295C26.5853 22.7707 26.5217 22.8119 26.4563 22.8544C25.9925 23.0971 25.5778 23.1659 25.057 23.1762C24.9966 23.1777 24.9361 23.1792 24.8739 23.1808C24.6826 23.1855 24.4913 23.1891 24.3 23.1926C24.1072 23.1965 23.9143 23.2007 23.7215 23.2053C23.5477 23.2095 23.3738 23.2128 23.2 23.2162C22.9536 23.2027 22.9536 23.2027 22.8551 23.3209C22.8453 23.503 22.8412 23.6853 22.8394 23.8676C22.8373 23.9805 22.8352 24.0934 22.833 24.2097C22.8288 24.4475 22.8264 24.6852 22.8246 24.9231C22.8099 25.5992 22.7554 26.126 22.4088 26.7129C22.3491 26.8197 22.3491 26.8197 22.2882 26.9287C21.7012 27.7444 20.8207 28.0457 19.9078 28.3768C19.5292 28.4867 19.5292 28.4867 19.2846 28.7659C19.3486 28.9978 19.3486 28.9978 19.4516 29.2635C20.4042 31.8991 20.4042 31.8991 19.7932 33.3105C19.5315 33.7865 19.1601 34.1335 18.7658 34.5011C18.6869 34.5771 18.608 34.6532 18.5267 34.7315C18.3344 34.9166 18.1408 35.1 17.9457 35.2821C18.0892 35.587 18.2463 35.775 18.4924 36.0074C19.3403 36.8402 20.0197 37.6085 20.0657 38.8359C20.0719 39.7166 19.7262 40.4749 19.3603 41.2609C19.2857 41.4386 19.2369 41.6104 19.1953 41.7983C19.6039 42.0114 20.0137 42.2163 20.4401 42.3914C21.4402 42.8028 22.1261 43.1632 22.5953 44.1874C22.7506 44.5687 22.7812 44.8718 22.791 45.283C22.7926 45.3438 22.7942 45.4047 22.7959 45.4673C22.8029 45.7274 22.809 45.9875 22.8151 46.2475C22.8197 46.4374 22.8249 46.6273 22.83 46.8172C22.8327 46.931 22.8354 47.0447 22.8382 47.1619C22.8258 47.4121 22.8258 47.4121 22.9444 47.5111C23.1254 47.5209 23.3067 47.525 23.488 47.5268C23.6004 47.5289 23.7129 47.531 23.8288 47.5332C24.0655 47.5373 24.302 47.5398 24.5387 47.5416C25.4668 47.5618 26.2704 47.7111 26.9664 48.365C27.5835 49.1385 27.9406 50.1691 28.3001 51.0816C28.6058 51.0281 28.8757 50.9502 29.1617 50.8305C29.2768 50.7832 29.2768 50.7832 29.3941 50.735C29.5534 50.6686 29.7126 50.6022 29.8718 50.5355C30.8418 50.1374 31.6918 50.0633 32.674 50.4567C33.2821 50.7946 33.7617 51.2424 34.2417 51.7399C34.3062 51.8056 34.3707 51.8713 34.4371 51.939C34.5939 52.0989 34.75 52.2594 34.9056 52.4205C35.179 52.2993 35.358 52.1649 35.5621 51.9474C35.6456 51.8606 35.6456 51.8606 35.7307 51.7721C35.845 51.6516 35.9589 51.5308 36.0724 51.4095C36.8088 50.6475 37.5165 50.3368 38.5722 50.3131C39.3765 50.3302 40.072 50.6844 40.7942 51.0073C41.0005 51.0919 41.2006 51.1425 41.4217 51.1708C41.4596 51.0887 41.4974 51.0065 41.5364 50.9219C41.6757 50.6205 41.8171 50.32 41.9588 50.0198C42.0415 49.8428 42.1219 49.6649 42.2021 49.4867C42.6177 48.5827 43.0661 48.0379 44.0025 47.6748C44.5599 47.5242 45.1382 47.5426 45.7119 47.539C45.9024 47.5364 46.0928 47.5333 46.2833 47.5298C46.454 47.5269 46.6246 47.5253 46.7953 47.5237C47.0368 47.5395 47.0368 47.5395 47.1345 47.4218C47.1454 47.2604 47.1506 47.0986 47.1534 46.9368C47.1559 46.8364 47.1584 46.736 47.161 46.6326C47.1656 46.4218 47.1696 46.2109 47.1729 46.0001C47.1943 45.2124 47.2804 44.4565 47.7259 43.7844C47.7639 43.7241 47.8018 43.6638 47.841 43.6017C48.3951 43.0164 49.1247 42.7214 49.8626 42.4343C49.9527 42.3984 50.0427 42.3625 50.1355 42.3255C50.3548 42.2382 50.5744 42.1517 50.7943 42.0661C50.7369 41.9134 50.6794 41.7608 50.6219 41.6082C50.5728 41.4772 50.5239 41.346 50.4754 41.2148C50.3702 40.9307 50.2638 40.6496 50.1437 40.3715C49.8053 39.5682 49.7434 38.6662 50.0412 37.8372C50.4938 36.8867 51.3007 36.1838 52.044 35.4606C51.9034 35.1124 51.6784 34.9074 51.408 34.6517C50.5691 33.8328 49.9173 33.0117 49.8682 31.8009C49.907 30.7958 50.4082 29.8564 50.7943 28.9445C50.6233 28.8642 50.4522 28.7843 50.281 28.7046C50.1751 28.6551 50.0691 28.6056 49.9599 28.5546C49.6719 28.423 49.3784 28.3129 49.0816 28.2025C48.4003 27.9209 47.8033 27.4586 47.447 26.8022C47.1325 26.0142 47.1002 25.2276 47.0787 24.3865C47.0753 24.2752 47.0718 24.1638 47.0683 24.0491C47.0599 23.7767 47.0523 23.5042 47.0453 23.2317C46.9453 23.2308 46.8454 23.23 46.7424 23.2291C46.3701 23.2256 45.9978 23.2197 45.6255 23.2131C45.4646 23.2106 45.3038 23.2087 45.1429 23.2075C44.9111 23.2055 44.6794 23.2014 44.4476 23.1968C44.3762 23.1967 44.3047 23.1966 44.2311 23.1964C43.7614 23.1843 43.489 23.0975 43.1177 22.7853C42.8514 22.5 42.7352 22.1723 42.5957 21.8108C42.5728 21.752 42.5498 21.6933 42.5261 21.6328C42.4283 21.3828 42.3317 21.1322 42.2352 20.8816C42.1643 20.6983 42.0928 20.5153 42.0211 20.3324C41.9789 20.2229 41.9366 20.1135 41.8931 20.0007C41.806 19.7407 41.806 19.7407 41.6003 19.6611C41.3958 19.7147 41.3958 19.7147 41.1658 19.8055C41.0794 19.8376 40.993 19.8697 40.9039 19.9028C40.8134 19.9372 40.7228 19.9716 40.6295 20.007C40.4513 20.0739 40.273 20.1406 40.0946 20.2072C39.9757 20.2522 39.9757 20.2522 39.8544 20.2981C39.0927 20.5676 38.1654 20.598 37.4094 20.2926C36.6686 19.9045 36.1053 19.269 35.5272 18.6774C35.4712 18.6202 35.4152 18.5629 35.3575 18.5039C35.3069 18.4518 35.2564 18.3996 35.2044 18.3459C35.1007 18.2228 35.1007 18.2228 34.9948 18.2329Z" fill="black" stroke="#FFE8AF"/>
<path d="M41.6282 25.4354C41.964 25.7243 42.1876 25.9513 42.2624 26.4019C42.3105 27.3326 41.7681 28.0004 41.26 28.7426C41.2102 28.8159 41.1605 28.8893 41.1092 28.9648C41.002 29.1229 40.8946 29.2809 40.7871 29.4387C40.4947 29.8682 40.2036 30.2984 39.9127 30.7287C39.8225 30.8621 39.8225 30.8621 39.7305 30.9981C39.1113 31.9153 38.503 32.8395 37.8959 33.7647C36.9898 35.1448 36.0728 36.5171 35.1471 37.8842C34.1859 39.3042 33.2393 40.7334 32.2994 42.1676C32.0089 42.6106 31.7172 43.0528 31.4244 43.4943C31.3783 43.5639 31.3322 43.6336 31.2848 43.7053C31.1529 43.9039 31.02 44.1018 30.8867 44.2994C30.8289 44.3867 30.8289 44.3867 30.77 44.4757C30.5079 44.8607 30.2375 45.1589 29.8176 45.3688C29.3169 45.4146 28.885 45.4369 28.4285 45.2126C28.0242 44.8395 27.844 44.5202 27.7925 43.9685C27.8036 43.4813 27.9668 43.1629 28.2297 42.7659C28.2693 42.7044 28.3089 42.6429 28.3497 42.5796C28.4805 42.3777 28.6132 42.1771 28.7465 41.9769C28.7914 41.9093 28.8363 41.8417 28.8825 41.7721C29.1766 41.331 29.4738 40.892 29.7719 40.4536C30.736 39.0349 31.6881 37.6087 32.6294 36.1748C33.5354 34.7949 34.452 33.4227 35.3778 32.0559C36.0004 31.1366 36.6187 30.2147 37.2285 29.2869C37.317 29.1523 37.317 29.1523 37.4072 29.015C37.6912 28.5827 37.9746 28.1501 38.2573 27.717C38.3598 27.5606 38.4622 27.4042 38.5647 27.2478C38.6324 27.1435 38.6324 27.1435 38.7016 27.037C39.7648 25.4165 39.7648 25.4165 40.3391 25.2307C40.7976 25.1457 41.2169 25.2258 41.6282 25.4354Z" fill="black" stroke="#FFE8AF"/>
<path d="M43.1456 36.0239C44.0606 36.7149 44.8153 37.5942 44.9922 38.7631C45.1065 40.0253 45.0262 41.1755 44.2558 42.2332C43.508 43.1021 42.5824 43.8434 41.4003 43.9601C39.9061 44.0316 38.8388 43.791 37.6758 42.8106C36.9056 42.096 36.4527 41.1778 36.3948 40.1328C36.3448 38.6432 36.672 37.5732 37.7006 36.4646C39.1551 35.088 41.4867 34.9229 43.1456 36.0239ZM39.5137 38.9082C39.317 39.3168 39.2975 39.6562 39.3687 40.1021C39.5766 40.534 39.8294 40.7867 40.2613 40.9947C40.7071 41.0658 41.0466 41.0464 41.4552 40.8496C41.7751 40.5602 42.0104 40.3284 42.0807 39.888C42.1036 39.3806 42.0409 39.0622 41.6895 38.6739C41.3011 38.3225 40.9827 38.2598 40.4754 38.2826C40.035 38.3529 39.8032 38.5883 39.5137 38.9082Z" fill="black" stroke="#FFE8AF"/>
<path d="M31.7201 27.4547C32.6698 28.17 33.3303 29.0057 33.5667 30.194C33.6996 31.5132 33.5665 32.6605 32.7494 33.7425C32.0807 34.5571 31.2428 35.2095 30.1748 35.3712C28.9125 35.4855 27.7624 35.4052 26.7047 34.6348C25.8358 33.887 25.0945 32.9614 24.9778 31.7792C24.9062 30.2851 25.1469 29.2178 26.1273 28.0548C27.5456 26.5261 30.0045 26.3161 31.7201 27.4547ZM28.0882 30.339C27.8915 30.7476 27.872 31.0871 27.9432 31.5329C28.1511 31.9648 28.4039 32.2176 28.8358 32.4255C29.2816 32.4967 29.6211 32.4772 30.0297 32.2805C30.3496 31.991 30.585 31.7592 30.6552 31.3188C30.6781 30.8115 30.6154 30.493 30.264 30.1047C29.8757 29.7533 29.5573 29.6906 29.0499 29.7135C28.6095 29.7838 28.3777 30.0191 28.0882 30.339Z" fill="black" stroke="#FFE8AF"/>
</svg>
