<svg width="512" height="512" viewBox="0 0 512 512" fill="none" xmlns="http://www.w3.org/2000/svg">
<g clip-path="url(#clip0_440_1431)">
<path d="M269.271 -0.41918C271.316 -0.426529 273.361 -0.435118 275.405 -0.444845C280.934 -0.466983 286.464 -0.469995 291.993 -0.468097C296.622 -0.467977 301.251 -0.476557 305.88 -0.484875C316.811 -0.504082 327.741 -0.507003 338.672 -0.500234C349.915 -0.4936 361.158 -0.516442 372.401 -0.553548C382.082 -0.58433 391.763 -0.595596 401.444 -0.591711C407.214 -0.589652 412.983 -0.594994 418.753 -0.619604C424.184 -0.642008 429.615 -0.63988 435.046 -0.619676C437.028 -0.61629 439.01 -0.621251 440.991 -0.63566C462.772 -0.78298 479.156 4.45146 494.999 20.0007C495.639 20.6156 496.278 21.2305 496.937 21.864C508.571 33.9921 512.459 50.0827 512.419 66.3882C512.428 67.6808 512.436 68.9735 512.445 70.3053C512.467 73.8201 512.47 77.3347 512.468 80.8496C512.468 83.8012 512.477 86.7528 512.485 89.7044C512.504 96.6796 512.507 103.655 512.5 110.63C512.494 117.783 512.516 124.936 512.554 132.09C512.584 138.267 512.596 144.445 512.592 150.623C512.59 154.297 512.595 157.97 512.62 161.644C512.777 186.925 510.345 205.308 491.999 224.001C491.077 224.96 491.077 224.96 490.136 225.938C476.724 238.804 459.989 241.426 442.206 241.106C440.804 241.073 439.402 241.039 437.999 241.001C438.458 241.921 438.917 242.842 439.39 243.79C443.589 252.391 446.624 260.705 448.999 270.001C449.779 270.005 450.559 270.009 451.363 270.013C454.972 270.047 458.579 270.117 462.187 270.188C464.027 270.197 464.027 270.197 465.904 270.206C479.946 270.539 490.533 274.989 500.671 284.583C508.314 292.679 512.127 302.644 512.192 313.592C512.2 314.352 512.208 315.112 512.217 315.895C512.242 318.408 512.258 320.921 512.273 323.434C512.281 324.728 512.281 324.728 512.289 326.049C512.316 330.622 512.335 335.195 512.349 339.768C512.363 343.532 512.39 347.296 512.431 351.06C512.481 355.623 512.506 360.185 512.513 364.749C512.519 366.477 512.534 368.205 512.558 369.933C512.77 385.969 509.768 397.677 498.417 409.673C490.743 416.917 480.951 421.146 470.484 421.098C469.233 421.095 467.983 421.092 466.695 421.089C465.393 421.08 464.091 421.072 462.749 421.063C460.773 421.056 460.773 421.056 458.757 421.05C455.504 421.038 452.252 421.021 448.999 421.001C448.795 422.013 448.591 423.026 448.381 424.069C444.849 440.961 437.29 456.914 425.999 470.001C425.27 470.867 424.54 471.733 423.788 472.626C405.095 494.139 379.406 508.462 350.999 512.001C348.339 512.093 345.705 512.144 343.045 512.141C342.274 512.144 341.503 512.147 340.708 512.15C338.139 512.159 335.57 512.16 333.001 512.162C331.153 512.166 329.304 512.171 327.455 512.177C322.443 512.19 317.43 512.196 312.417 512.201C309.279 512.204 306.142 512.208 303.005 512.212C293.172 512.226 283.34 512.236 273.507 512.24C262.188 512.244 250.868 512.262 239.549 512.291C230.78 512.312 222.011 512.322 213.242 512.324C208.014 512.325 202.786 512.331 197.558 512.349C192.634 512.365 187.709 512.367 182.784 512.358C180.988 512.358 179.191 512.362 177.394 512.372C147.661 512.527 120.354 502.855 97.9992 483.001C97.1098 482.212 96.2203 481.423 95.3039 480.61C78.4612 464.665 67.3079 443.734 62.9992 421.001C62.2191 421.027 61.439 421.053 60.6352 421.08C57.0276 421.185 53.4203 421.249 49.8117 421.313C48.5852 421.355 47.3587 421.397 46.0949 421.44C31.9771 421.626 21.4782 417.024 11.3274 407.419C3.68457 399.323 -0.128236 389.357 -0.193625 378.409C-0.201802 377.649 -0.20998 376.889 -0.218405 376.106C-0.243193 373.593 -0.259765 371.08 -0.274191 368.567C-0.279515 367.704 -0.28485 366.842 -0.290335 365.953C-0.317048 361.38 -0.336411 356.807 -0.350851 352.233C-0.364144 348.469 -0.391913 344.705 -0.432882 340.941C-0.482536 336.379 -0.507024 331.816 -0.51409 327.253C-0.520752 325.525 -0.535817 323.797 -0.559958 322.069C-0.770403 306.083 2.16812 294.157 13.6516 282.294C18.0011 278.251 24.8685 273.001 30.9992 273.001C30.6692 241.981 30.3392 210.961 29.9992 179.001C25.0492 176.526 25.0492 176.526 19.9992 174.001C10.1408 166.972 3.94198 157.692 0.999246 146.001C0.564693 142.738 0.473941 139.54 0.499246 136.251C0.504967 135.379 0.510687 134.507 0.51658 133.609C0.867303 120.823 5.92655 111.475 14.5813 102.329C25.1117 92.3878 37.0634 90.4311 50.8586 90.6609C63.1963 91.2055 72.8907 97.4005 81.1867 106.188C90.9205 118.152 92.3293 131.186 90.9992 146.001C88.3729 157.731 81.5239 166.898 71.9992 174.001C68.6992 175.651 65.3992 177.301 61.9992 179.001C61.6692 209.361 61.3392 239.721 60.9992 271.001C61.6592 270.671 62.3192 270.341 62.9992 270.001C63.7585 267.714 64.4236 265.447 65.0617 263.126C69.4333 248.354 75.9721 234.754 85.9992 223.001C87.0956 221.698 87.0956 221.698 88.2141 220.368C106.901 198.889 132.599 184.497 160.999 181.001C163.781 180.877 166.555 180.883 169.339 180.903C170.49 180.905 170.49 180.905 171.663 180.907C174.088 180.913 176.512 180.925 178.937 180.938C180.591 180.943 182.245 180.948 183.9 180.952C187.933 180.963 191.966 180.98 195.999 181.001C195.992 180.033 195.992 180.033 195.985 179.046C195.874 163.285 195.792 147.524 195.74 131.762C195.715 124.14 195.68 116.518 195.622 108.895C195.572 102.244 195.54 95.5935 195.529 88.9424C195.522 85.4272 195.507 81.9125 195.471 78.3975C195.236 55.0294 197.083 36.981 213.73 19.3132C214.479 18.5501 215.228 17.787 215.999 17.0007C216.614 16.3614 217.229 15.722 217.863 15.0632C232.288 1.2247 250.355 -0.451397 269.271 -0.41918ZM233.999 43.0007C227.218 51.8763 225.871 61.3306 225.879 72.2648C225.878 72.9495 225.877 73.6342 225.876 74.3396C225.875 76.6089 225.88 78.878 225.886 81.1472C225.886 82.7839 225.886 84.4205 225.885 86.0571C225.885 90.4821 225.891 94.9071 225.898 99.3321C225.904 103.963 225.905 108.594 225.906 113.225C225.909 121.987 225.917 130.749 225.927 139.51C225.938 149.489 225.944 159.467 225.949 169.445C225.959 189.964 225.977 210.482 225.999 231.001C227.911 230.105 229.823 229.209 231.732 228.307C233.447 227.503 235.165 226.707 236.888 225.92C241.212 223.919 245.308 221.887 249.259 219.216C265.622 208.643 284.689 210.65 303.416 210.851C308.429 210.893 313.442 210.876 318.455 210.866C327.929 210.854 337.403 210.891 346.877 210.948C360.78 211.03 374.683 211.04 388.587 211.047C390.646 211.048 392.706 211.049 394.765 211.05C395.771 211.05 396.777 211.051 397.814 211.051C403.76 211.055 409.706 211.075 415.653 211.108C419.354 211.128 423.055 211.14 426.756 211.15C428.462 211.157 430.169 211.168 431.875 211.182C447.271 211.309 460.363 210.764 472.175 199.927C481.563 190.016 482.15 178.047 482.145 165.078C482.148 164.012 482.151 162.945 482.155 161.847C482.164 158.34 482.166 154.832 482.167 151.325C482.17 148.874 482.174 146.423 482.177 143.972C482.183 138.841 482.185 133.709 482.185 128.577C482.184 122.021 482.198 115.464 482.215 108.907C482.226 103.847 482.228 98.7859 482.228 93.7251C482.229 91.3087 482.234 88.8924 482.241 86.476C482.251 83.0879 482.248 79.7001 482.242 76.312C482.248 75.3262 482.253 74.3404 482.259 73.3247C482.198 59.7028 479.676 49.1418 470.261 39.0476C458.869 28.7374 443.234 29.7057 428.851 29.742C427.035 29.7392 425.218 29.7357 423.402 29.7313C418.497 29.7223 413.592 29.7257 408.687 29.7321C403.538 29.7372 398.389 29.7325 393.24 29.7293C384.595 29.7257 375.951 29.7305 367.306 29.74C357.332 29.7509 347.358 29.7474 337.383 29.7363C328.798 29.7273 320.212 29.726 311.627 29.7312C306.509 29.7343 301.391 29.7348 296.272 29.7282C291.459 29.7223 286.646 29.7264 281.833 29.7379C280.073 29.7406 278.314 29.7399 276.554 29.7354C260.007 29.6976 245.967 30.3669 233.999 43.0007ZM33.1242 128.126C31.4344 132.444 31.3396 136.427 31.9992 141.001C34.1622 145.407 36.396 148.199 40.9992 150.001C46.0425 150.685 49.83 150.575 54.4367 148.313C57.7958 145.282 59.6928 143.259 60.3157 138.669C60.5814 132.951 59.9677 129.398 55.9992 125.001C52.1621 121.615 48.3652 121.488 43.4367 121.649C38.774 122.322 36.1473 124.7 33.1242 128.126ZM115.714 236.126C93.0679 260.108 90.6648 287.967 90.7336 319.219C90.7323 321.415 90.7303 323.611 90.7278 325.806C90.7249 330.378 90.7291 334.95 90.7385 339.522C90.7499 345.331 90.7433 351.14 90.7314 356.949C90.7241 361.474 90.7265 365.999 90.7316 370.523C90.7329 372.663 90.7314 374.803 90.7267 376.943C90.4422 400.926 90.4422 400.926 95.5617 424.188C95.9481 425.29 95.9481 425.29 96.3423 426.413C104.482 448.431 120.88 464.885 142.023 474.759C149.827 478.016 157.482 480.124 165.892 481.094C166.631 481.179 167.371 481.265 168.133 481.353C175.932 482.19 183.693 482.283 191.531 482.26C193.101 482.262 194.672 482.266 196.243 482.27C200.454 482.279 204.665 482.276 208.876 482.269C213.317 482.264 217.759 482.269 222.2 482.272C229.654 482.276 237.108 482.271 244.562 482.261C253.135 482.251 261.709 482.254 270.282 482.265C277.691 482.274 285.099 482.275 292.508 482.27C296.912 482.267 301.316 482.267 305.72 482.273C309.863 482.279 314.007 482.275 318.15 482.264C319.656 482.261 321.161 482.262 322.667 482.266C336.103 482.302 350.347 482.005 363.124 477.438C363.863 477.181 364.602 476.923 365.363 476.658C387.405 468.558 403.891 452.128 413.757 430.973C421.439 412.591 421.308 393.386 421.265 373.782C421.266 371.586 421.268 369.391 421.271 367.195C421.274 362.623 421.269 358.052 421.26 353.48C421.249 347.671 421.255 341.862 421.267 336.053C421.274 331.528 421.272 327.003 421.267 322.478C421.266 320.338 421.267 318.198 421.272 316.058C421.553 292.076 421.553 292.076 416.437 268.813C416.058 267.721 416.058 267.721 415.672 266.606C412.823 258.835 408.769 251.747 403.999 245.001C403.522 244.297 403.045 243.593 402.553 242.868C398.413 239.841 394 240.233 388.991 240.086C387.863 240.04 386.736 239.993 385.574 239.946C381.818 239.801 378.062 239.692 374.304 239.591C373.008 239.553 371.712 239.516 370.378 239.477C361.27 239.222 352.163 239.068 343.052 238.964C340.881 238.938 338.709 238.909 336.537 238.88C295.427 238.355 257.857 239.061 224.01 265.58C218.574 269.722 214.614 270.675 207.78 270.517C203.712 269.762 200.986 268.087 198.219 265.041C196.293 260.24 196.518 255.483 196.488 250.356C196.47 249.231 196.452 248.106 196.433 246.947C196.379 243.361 196.345 239.775 196.312 236.188C196.279 233.754 196.244 231.32 196.208 228.886C196.123 222.924 196.055 216.963 195.999 211.001C192.68 210.982 189.361 210.971 186.042 210.962C185.113 210.956 184.185 210.951 183.228 210.946C157.621 210.89 134.24 217.793 115.714 236.126ZM35.1867 305.438C30.5391 310.883 29.8798 314.965 29.854 321.965C29.8476 323.143 29.8412 324.322 29.8347 325.536C29.8335 326.8 29.8324 328.065 29.8313 329.368C29.8279 330.676 29.8246 331.984 29.8212 333.332C29.8152 336.097 29.8134 338.863 29.8139 341.628C29.814 345.157 29.8004 348.687 29.7832 352.216C29.7693 355.6 29.77 358.984 29.7688 362.368C29.7616 363.629 29.7544 364.889 29.747 366.188C29.581 376.784 29.581 376.784 34.4367 385.813C42.7879 392.942 49.3395 391.001 60.9992 391.001C60.9992 361.301 60.9992 331.601 60.9992 301.001C47.0647 299.993 47.0647 299.993 35.1867 305.438ZM450.999 301.001C450.999 330.701 450.999 360.401 450.999 391.001C464.934 392.008 464.934 392.008 476.812 386.563C481.459 381.119 482.119 377.037 482.145 370.036C482.151 368.858 482.157 367.68 482.164 366.466C482.165 365.201 482.166 363.937 482.167 362.634C482.171 361.325 482.174 360.017 482.177 358.67C482.183 355.904 482.185 353.139 482.185 350.373C482.184 346.844 482.198 343.315 482.215 339.786C482.229 336.402 482.229 333.018 482.23 329.634C482.237 328.373 482.244 327.112 482.251 325.814C482.418 315.218 482.418 315.218 477.562 306.188C469.211 299.059 462.659 301.001 450.999 301.001Z" fill="#024D81"/>
<path d="M273.242 135.613C273.961 135.608 274.679 135.602 275.42 135.597C277.823 135.582 280.225 135.59 282.628 135.597C284.353 135.591 286.078 135.584 287.803 135.576C292.485 135.558 297.167 135.559 301.848 135.565C305.757 135.568 309.667 135.562 313.576 135.556C322.798 135.542 332.02 135.543 341.242 135.555C350.755 135.566 360.268 135.552 369.781 135.525C377.95 135.503 386.119 135.496 394.288 135.502C399.167 135.506 404.045 135.503 408.923 135.486C413.511 135.471 418.098 135.475 422.686 135.493C424.368 135.497 426.051 135.494 427.733 135.484C430.033 135.47 432.331 135.482 434.63 135.5C435.916 135.5 437.202 135.5 438.526 135.5C443.571 136.227 446.743 138.383 449.847 142.38C451.935 147.129 451.619 151.923 450.999 157.001C448.82 161.601 446.526 163.789 441.999 166.001C438.652 166.381 438.652 166.381 434.757 166.388C433.679 166.396 433.679 166.396 432.579 166.405C430.176 166.419 427.774 166.412 425.371 166.405C423.646 166.41 421.921 166.417 420.196 166.426C415.514 166.444 410.832 166.442 406.151 166.437C402.241 166.434 398.332 166.44 394.423 166.446C385.201 166.46 375.979 166.458 366.757 166.447C357.244 166.435 347.731 166.449 338.218 166.476C330.049 166.498 321.88 166.505 313.71 166.499C308.832 166.496 303.954 166.498 299.075 166.515C294.488 166.531 289.901 166.527 285.313 166.508C283.631 166.504 281.948 166.507 280.265 166.518C277.966 166.531 275.668 166.52 273.369 166.502C272.083 166.502 270.797 166.502 269.472 166.501C264.428 165.774 261.256 163.619 258.152 159.622C256.064 154.872 256.38 150.078 256.999 145.001C260.526 137.556 265.28 135.628 273.242 135.613Z" fill="#024D81"/>
<path d="M273.242 75.613C273.961 75.6077 274.679 75.6023 275.42 75.5967C277.823 75.5824 280.225 75.5896 282.628 75.5967C284.353 75.591 286.078 75.584 287.803 75.5759C292.485 75.5579 297.167 75.5591 301.848 75.5648C305.757 75.5679 309.667 75.5618 313.576 75.5558C322.798 75.5417 332.02 75.5433 341.242 75.5547C350.755 75.5662 360.268 75.5521 369.781 75.5253C377.95 75.5031 386.119 75.4965 394.288 75.5024C399.167 75.5057 404.045 75.5033 408.923 75.4861C413.511 75.4706 418.098 75.4746 422.686 75.4934C424.368 75.4971 426.051 75.494 427.733 75.4835C430.033 75.4703 432.331 75.4819 434.63 75.4995C435.916 75.4997 437.202 75.4999 438.526 75.5002C443.571 76.2272 446.743 78.3828 449.847 82.3796C451.935 87.129 451.619 91.9232 450.999 97.0007C448.82 101.601 446.526 103.789 441.999 106.001C438.652 106.381 438.652 106.381 434.757 106.388C433.679 106.396 433.679 106.396 432.579 106.405C430.176 106.419 427.774 106.412 425.371 106.405C423.646 106.41 421.921 106.417 420.196 106.426C415.514 106.444 410.832 106.442 406.151 106.437C402.241 106.434 398.332 106.44 394.423 106.446C385.201 106.46 375.979 106.458 366.757 106.447C357.244 106.435 347.731 106.449 338.218 106.476C330.049 106.498 321.88 106.505 313.71 106.499C308.832 106.496 303.954 106.498 299.075 106.515C294.488 106.531 289.901 106.527 285.313 106.508C283.631 106.504 281.948 106.507 280.265 106.518C277.966 106.531 275.668 106.52 273.369 106.502C272.083 106.502 270.797 106.502 269.472 106.501C264.428 105.774 261.256 103.619 258.152 99.6218C256.064 94.8724 256.38 90.0782 256.999 85.0007C260.526 77.5565 265.28 75.6281 273.242 75.613Z" fill="#024D81"/>
<path d="M227.081 390.596C227.775 390.589 228.468 390.582 229.182 390.575C231.464 390.557 233.745 390.561 236.027 390.567C237.62 390.562 239.212 390.557 240.805 390.551C244.14 390.542 247.474 390.544 250.809 390.554C255.074 390.566 259.338 390.545 263.603 390.516C266.891 390.498 270.179 390.498 273.468 390.504C275.04 390.504 276.612 390.498 278.184 390.486C280.386 390.471 282.586 390.481 284.788 390.499C286.664 390.499 286.664 390.499 288.578 390.499C293.587 391.233 296.764 393.41 299.847 397.379C301.935 402.129 301.619 406.923 300.999 412C298.819 416.603 296.523 418.781 291.999 421C288.705 421.388 288.705 421.388 284.918 421.404C284.224 421.411 283.531 421.418 282.817 421.425C280.535 421.443 278.254 421.44 275.972 421.434C274.379 421.438 272.787 421.444 271.194 421.45C267.859 421.459 264.525 421.456 261.19 421.446C256.925 421.435 252.661 421.455 248.396 421.484C245.108 421.503 241.82 421.502 238.531 421.497C236.959 421.496 235.387 421.502 233.815 421.515C231.613 421.53 229.413 421.519 227.211 421.502C225.96 421.502 224.709 421.502 223.421 421.501C218.412 420.768 215.235 418.591 212.152 414.621C210.064 409.872 210.38 405.078 210.999 400C214.484 392.645 219.197 390.63 227.081 390.596Z" fill="#024D81"/>
<path d="M336.999 300.999C341.586 303.172 343.87 305.436 345.999 309.999C346.444 313.155 346.443 316.281 346.432 319.464C346.438 320.375 346.443 321.286 346.448 322.224C346.455 324.146 346.453 326.069 346.445 327.991C346.436 330.923 346.465 333.854 346.497 336.786C346.499 338.658 346.498 340.53 346.495 342.401C346.512 343.709 346.512 343.709 346.529 345.044C346.467 350.515 345.649 353.663 341.999 357.999C336.776 362.055 331.345 361.773 324.999 360.999C320.412 358.826 318.127 356.562 315.999 351.999C315.553 348.843 315.555 345.717 315.565 342.534C315.56 341.623 315.555 340.712 315.549 339.774C315.543 337.852 315.544 335.929 315.553 334.007C315.561 331.075 315.533 328.144 315.501 325.212C315.499 323.34 315.5 321.468 315.503 319.597C315.492 318.725 315.48 317.853 315.469 316.954C315.531 311.483 316.349 308.335 319.999 303.999C325.221 299.943 330.652 300.225 336.999 300.999Z" fill="#024D81"/>
<path d="M186.999 300.999C191.586 303.172 193.87 305.436 195.999 309.999C196.444 313.155 196.443 316.281 196.432 319.464C196.438 320.375 196.443 321.286 196.448 322.224C196.455 324.146 196.453 326.069 196.445 327.991C196.436 330.923 196.465 333.854 196.497 336.786C196.499 338.658 196.498 340.53 196.495 342.401C196.512 343.709 196.512 343.709 196.529 345.044C196.467 350.515 195.649 353.663 191.999 357.999C186.776 362.055 181.345 361.773 174.999 360.999C170.412 358.826 168.127 356.562 165.999 351.999C165.553 348.843 165.555 345.717 165.565 342.534C165.56 341.623 165.555 340.712 165.549 339.774C165.543 337.852 165.544 335.929 165.553 334.007C165.561 331.075 165.533 328.144 165.501 325.212C165.499 323.34 165.5 321.468 165.503 319.597C165.492 318.725 165.48 317.853 165.469 316.954C165.531 311.483 166.349 308.335 169.999 303.999C175.221 299.943 180.652 300.225 186.999 300.999Z" fill="#024D81"/>
</g>
<defs>
<clipPath id="clip0_440_1431">
<rect width="512" height="512" fill="white"/>
</clipPath>
</defs>
</svg>
