<svg width="44" height="44" viewBox="0 0 44 44" fill="none" xmlns="http://www.w3.org/2000/svg">
<path fill-rule="evenodd" clip-rule="evenodd" d="M28.8465 22.5373C28.6074 22.5373 28.3781 22.6323 28.209 22.8013C28.04 22.9704 27.945 23.1997 27.945 23.4387C27.945 23.6778 28.04 23.9071 28.209 24.0762C28.3781 24.2452 28.6074 24.3402 28.8465 24.3402C29.0855 24.3402 29.3148 24.2452 29.4839 24.0762C29.6529 23.9071 29.7479 23.6778 29.7479 23.4387C29.7479 23.1997 29.6529 22.9704 29.4839 22.8013C29.3148 22.6323 29.0855 22.5373 28.8465 22.5373ZM31.5508 23.4387C31.5508 24.156 31.2659 24.8439 30.7587 25.351C30.2516 25.8582 29.5637 26.1431 28.8465 26.1431C28.1292 26.1431 27.4413 25.8582 26.9342 25.351C26.427 24.8439 26.1421 24.156 26.1421 23.4387C26.1421 22.7215 26.427 22.0336 26.9342 21.5265C27.4413 21.0193 28.1292 20.7344 28.8465 20.7344C29.5637 20.7344 30.2516 21.0193 30.7587 21.5265C31.2659 22.0336 31.5508 22.7215 31.5508 23.4387ZM21.6348 22.5373C21.3957 22.5373 21.1664 22.6323 20.9974 22.8013C20.8283 22.9704 20.7333 23.1997 20.7333 23.4387C20.7333 23.6778 20.8283 23.9071 20.9974 24.0762C21.1664 24.2452 21.3957 24.3402 21.6348 24.3402C21.8739 24.3402 22.1032 24.2452 22.2722 24.0762C22.4413 23.9071 22.5363 23.6778 22.5363 23.4387C22.5363 23.1997 22.4413 22.9704 22.2722 22.8013C22.1032 22.6323 21.8739 22.5373 21.6348 22.5373ZM24.3392 23.4387C24.3392 24.156 24.0542 24.8439 23.5471 25.351C23.0399 25.8582 22.352 26.1431 21.6348 26.1431C20.9175 26.1431 20.2297 25.8582 19.7225 25.351C19.2153 24.8439 18.9304 24.156 18.9304 23.4387C18.9304 22.7215 19.2153 22.0336 19.7225 21.5265C20.2297 21.0193 20.9175 20.7344 21.6348 20.7344C22.352 20.7344 23.0399 21.0193 23.5471 21.5265C24.0542 22.0336 24.3392 22.7215 24.3392 23.4387ZM14.4231 22.5373C14.184 22.5373 13.9548 22.6323 13.7857 22.8013C13.6166 22.9704 13.5217 23.1997 13.5217 23.4387C13.5217 23.6778 13.6166 23.9071 13.7857 24.0762C13.9548 24.2452 14.184 24.3402 14.4231 24.3402C14.6622 24.3402 14.8915 24.2452 15.0606 24.0762C15.2296 23.9071 15.3246 23.6778 15.3246 23.4387C15.3246 23.1997 15.2296 22.9704 15.0606 22.8013C14.8915 22.6323 14.6622 22.5373 14.4231 22.5373ZM17.1275 23.4387C17.1275 24.156 16.8426 24.8439 16.3354 25.351C15.8282 25.8582 15.1404 26.1431 14.4231 26.1431C13.7059 26.1431 13.018 25.8582 12.5108 25.351C12.0037 24.8439 11.7188 24.156 11.7188 23.4387C11.7188 22.7215 12.0037 22.0336 12.5108 21.5265C13.018 21.0193 13.7059 20.7344 14.4231 20.7344C15.1404 20.7344 15.8282 21.0193 16.3354 21.5265C16.8426 22.0336 17.1275 22.7215 17.1275 23.4387Z" fill="black" stroke="black" stroke-width="0.5"/>
<path fill-rule="evenodd" clip-rule="evenodd" d="M21.6346 5.40914C21.3956 5.40914 21.1663 5.50412 20.9972 5.67318C20.8282 5.84223 20.7332 6.07152 20.7332 6.3106C20.7332 6.54968 20.8282 6.77897 20.9972 6.94803C21.1663 7.11709 21.3956 7.21206 21.6346 7.21206C21.8737 7.21206 22.103 7.11709 22.2721 6.94803C22.4411 6.77897 22.5361 6.54968 22.5361 6.3106C22.5361 6.07152 22.4411 5.84223 22.2721 5.67318C22.103 5.50412 21.8737 5.40914 21.6346 5.40914ZM24.339 6.3106C24.3392 6.87006 24.1659 7.41581 23.843 7.8727C23.5201 8.32958 23.0635 8.67512 22.5361 8.86173V12.6208H31.5507C32.9852 12.6208 34.3609 13.1907 35.3752 14.205C36.3896 15.2193 36.9594 16.5951 36.9594 18.0296V18.931C37.6767 18.931 38.3645 19.2159 38.8717 19.7231C39.3789 20.2303 39.6638 20.9181 39.6638 21.6354V25.2412C39.6638 25.9585 39.3789 26.6463 38.8717 27.1535C38.3645 27.6607 37.6767 27.9456 36.9594 27.9456V37.8616C36.9595 38.2486 36.8351 38.6253 36.6046 38.9361C36.374 39.247 36.0496 39.4753 35.6792 39.5875C35.3089 39.6997 34.9123 39.6898 34.548 39.5592C34.1837 39.4286 33.8712 39.1842 33.6565 38.8623L31.1207 35.0581C30.9561 34.8114 30.7331 34.6091 30.4716 34.4691C30.2101 34.3292 29.9182 34.2559 29.6216 34.2558H11.7186C10.2841 34.2558 8.90837 33.686 7.89403 32.6716C6.87969 31.6573 6.30984 30.2816 6.30984 28.8471V27.9456C5.5926 27.9456 4.90473 27.6607 4.39756 27.1535C3.89039 26.6463 3.60547 25.9585 3.60547 25.2412V21.6354C3.60547 20.9181 3.89039 20.2303 4.39756 19.7231C4.90473 19.2159 5.5926 18.931 6.30984 18.931V18.0296C6.30984 16.5951 6.87969 15.2193 7.89403 14.205C8.90837 13.1907 10.2841 12.6208 11.7186 12.6208H20.7332V8.86173C20.2655 8.69661 19.8521 8.40608 19.5384 8.0219C19.2247 7.63772 19.0226 7.17468 18.9542 6.68339C18.8859 6.19211 18.954 5.6915 19.151 5.23629C19.348 4.78107 19.6663 4.38879 20.0713 4.10231C20.4762 3.81583 20.9521 3.64619 21.4469 3.61193C21.9417 3.57767 22.4364 3.68012 22.877 3.90806C23.3175 4.13601 23.6869 4.48069 23.9447 4.90441C24.2026 5.32813 24.339 5.81459 24.339 6.3106ZM21.6346 14.4237H11.7186C10.7623 14.4237 9.84511 14.8036 9.16888 15.4799C8.49266 16.1561 8.11276 17.0732 8.11276 18.0296V28.8471C8.11276 29.8034 8.49266 30.7205 9.16888 31.3968C9.84511 32.073 10.7623 32.4529 11.7186 32.4529H29.6216C30.2151 32.4529 30.7995 32.5995 31.3229 32.8795C31.8462 33.1596 32.2923 33.5645 32.6216 34.0584L33.3536 35.1573L35.1565 37.8616V18.0296C35.1565 17.0732 34.7766 16.1561 34.1004 15.4799C33.4242 14.8036 32.507 14.4237 31.5507 14.4237H21.6346ZM6.30984 20.7339V26.1427C6.07076 26.1427 5.84147 26.0477 5.67242 25.8787C5.50336 25.7096 5.40839 25.4803 5.40839 25.2412V21.6354C5.40839 21.3963 5.50336 21.167 5.67242 20.998C5.84147 20.8289 6.07076 20.7339 6.30984 20.7339ZM36.9594 26.1427V20.7339C37.1985 20.7339 37.4278 20.8289 37.5969 20.998C37.7659 21.167 37.8609 21.3963 37.8609 21.6354V25.2412C37.8609 25.4803 37.7659 25.7096 37.5969 25.8787C37.4278 26.0477 37.1985 26.1427 36.9594 26.1427Z" fill="black" stroke="black" stroke-width="0.5"/>
</svg>
