<svg width="290" height="290" viewBox="0 0 290 290" fill="none" xmlns="http://www.w3.org/2000/svg">
<path d="M182.553 210.787H106.134C105.204 207.491 103.848 204.332 102.097 201.389L201.328 102.051C206.98 105.522 213.474 107.375 220.104 107.408C227.133 107.43 234.027 105.478 240.002 101.773C245.977 98.067 250.793 92.7571 253.903 86.447C257.013 80.137 258.291 73.0796 257.592 66.0784C256.894 59.0768 254.246 52.4123 249.951 46.8427C245.656 41.2731 239.886 37.022 233.296 34.5731C226.707 32.124 219.564 31.5754 212.678 32.9897C205.793 34.404 199.443 37.7241 194.349 42.5729C189.256 47.4214 185.624 53.6039 183.867 60.4166H106.134C103.849 51.5575 98.4152 43.8367 90.8504 38.7014C83.2859 33.5662 74.11 31.369 65.043 32.5219C55.9759 33.6748 47.6401 38.0986 41.5981 44.9638C35.5561 51.8294 32.2227 60.6651 32.2227 69.8149C32.2227 78.9647 35.5561 87.8004 41.5981 94.6656C47.6401 101.531 55.9759 105.955 65.043 107.108C74.11 108.261 83.2859 106.064 90.8504 100.928C98.4152 95.7931 103.849 88.0723 106.134 79.2132H183.867C184.796 82.5024 186.158 85.6695 187.904 88.6111L88.6725 187.95C83.0213 184.478 76.527 182.625 69.8966 182.593C62.868 182.57 55.974 184.522 49.999 188.228C44.0238 191.933 39.2075 197.243 36.098 203.553C32.9883 209.863 31.7101 216.92 32.4086 223.922C33.1075 230.923 35.7549 237.588 40.0498 243.157C44.345 248.727 50.1154 252.978 56.7045 255.427C63.2936 257.876 70.4373 258.425 77.3225 257.011C84.2078 255.596 90.5581 252.276 95.6518 247.427C100.745 242.579 104.377 236.396 106.134 229.583H182.553V257.778H257.656V182.593H182.553V210.787ZM69.8966 88.6111C64.917 88.6111 60.141 86.6307 56.6201 83.1059C53.0988 79.5808 51.1207 74.8 51.1207 69.8149C51.1207 64.8298 53.0988 60.049 56.6201 56.5239C60.141 52.9988 64.917 51.0187 69.8966 51.0187C74.8762 51.0187 79.6519 52.9988 83.1731 56.5239C86.6944 60.049 88.6725 64.8298 88.6725 69.8149C88.6725 74.8 86.6944 79.5808 83.1731 83.1059C79.6519 86.6307 74.8762 88.6111 69.8966 88.6111ZM220.104 51.0187C225.084 51.0187 229.86 52.9988 233.381 56.5239C236.902 60.049 238.881 64.8298 238.881 69.8149C238.881 74.8 236.902 79.5808 233.381 83.1059C229.86 86.6307 225.084 88.6111 220.104 88.6111C215.125 88.6111 210.349 86.6307 206.828 83.1059C203.307 79.5808 201.328 74.8 201.328 69.8149C201.328 64.8298 203.307 60.049 206.828 56.5239C210.349 52.9988 215.125 51.0187 220.104 51.0187ZM69.8966 238.982C64.917 238.982 60.141 237.001 56.6201 233.476C53.0988 229.951 51.1207 225.17 51.1207 220.185C51.1207 215.2 53.0988 210.419 56.6201 206.894C60.141 203.369 64.917 201.389 69.8966 201.389C74.8762 201.389 79.6519 203.369 83.1731 206.894C86.6944 210.419 88.6725 215.2 88.6725 220.185C88.6725 225.17 86.6944 229.951 83.1731 233.476C79.6519 237.001 74.8762 238.982 69.8966 238.982ZM201.328 201.389H238.881V238.982H201.328V201.389Z" stroke="black" stroke-width="6"/>
</svg>
