<?xml version="1.0" encoding="UTF-8"?>
<svg version="1.1" xmlns="http://www.w3.org/2000/svg" width="512" height="512">
<path d="M0 0 C2.09159861 1.82342073 4.14519661 3.68418216 6.1875 5.5625 C7.49654297 6.74779297 7.49654297 6.74779297 8.83203125 7.95703125 C16.58584897 15.3201054 24.80803176 24.65892978 29.1875 34.5625 C30.22197266 34.14484375 30.22197266 34.14484375 31.27734375 33.71875 C53.73969668 24.79411044 75.49772003 22.00707935 98.375 31.6875 C116.41824538 39.76617551 129.84700612 54.00388911 137.83203125 71.96484375 C140.29983323 78.51483115 143.1875 86.5038754 143.1875 93.5625 C144.44240234 93.69205078 144.44240234 93.69205078 145.72265625 93.82421875 C165.15692376 96.17010486 181.57694574 103.52167471 196.1875 116.5625 C197.01894531 117.29984375 197.85039062 118.0371875 198.70703125 118.796875 C215.71068451 134.78187622 225.11410453 157.54242637 226.35546875 180.6953125 C226.52735105 207.02768111 217.66153695 230.69236979 199.1875 249.5625 C180.05458699 267.86467595 157.1822038 275.33730494 131.0625 275.9375 C130.35150146 275.96376465 129.64050293 275.9900293 128.90795898 276.01708984 C125.33876395 276.02819154 123.31671286 275.64198914 120.25390625 273.7578125 C117.43632645 270.76446686 117.25991912 268.61797096 117.1875 264.5625 C117.99093353 261.86004176 118.58466521 260.92586364 120.99316406 259.47412109 C123.37552041 258.48438827 125.04099474 258.30929027 127.609375 258.2890625 C128.46184814 258.27157959 129.31432129 258.25409668 130.19262695 258.23608398 C131.09843506 258.22005127 132.00424316 258.20401855 132.9375 258.1875 C155.29873108 257.39100949 174.65800494 249.78707882 190.3125 233.4375 C204.51039116 216.68685669 209.72141308 196.18724666 208.1875 174.5625 C206.33325014 160.08851871 199.91233439 146.40630069 190.1875 135.5625 C189.50945312 134.80324219 188.83140625 134.04398438 188.1328125 133.26171875 C174.53620988 118.86673911 156.48790847 111.8108864 137.02490234 110.47192383 C133.59616034 110.16910835 131.50407505 109.80613616 128.74609375 107.68359375 C126.2893437 104.34019706 126.02200054 101.26300229 125.64355469 97.21923828 C124.82948034 88.94538786 123.01903491 82.02334992 119.1875 74.5625 C118.7440625 73.68980469 118.300625 72.81710938 117.84375 71.91796875 C110.38917893 58.4376194 97.82271558 49.42174268 83.15234375 45.03515625 C82.50394531 44.87917969 81.85554688 44.72320312 81.1875 44.5625 C80.10662109 44.29179687 80.10662109 44.29179687 79.00390625 44.015625 C60.90578387 41.10386051 45.31691119 45.47622587 30.1875 55.5625 C24.55113636 56.28977273 24.55113636 56.28977273 22.1875 55.5625 C18.44544187 51.6872107 15.97911157 47.6378063 13.4375 42.875 C9.70671359 36.13355987 5.36330907 30.29224181 0.1875 24.5625 C-0.96878906 23.28246094 -0.96878906 23.28246094 -2.1484375 21.9765625 C-20.07402075 3.12279371 -45.71638902 -8.15390849 -71.578125 -9.65625 C-100.36271878 -10.33353456 -126.8234602 0.4268569 -147.76635742 20.06445312 C-166.21450309 37.98165874 -178.27443821 63.57534237 -178.98828125 89.4453125 C-179.01212891 90.30253906 -179.03597656 91.15976563 -179.06054688 92.04296875 C-179.10369994 93.81355201 -179.13484956 95.58446647 -179.15429688 97.35546875 C-179.28875152 101.50167479 -179.47046563 103.98429904 -181.6171875 107.61328125 C-184.90677028 110.53410297 -188.61321574 110.80698024 -192.8125 111.5625 C-213.85351918 116.04188843 -230.68435563 126.40957549 -242.8125 144.5625 C-253.43673815 162.29865116 -257.10638633 182.59355814 -252.3125 202.875 C-247.28867343 221.60401325 -234.85149881 237.93583279 -218.1875 247.75 C-207.87724859 253.58607133 -196.48852817 257.47579497 -184.58984375 257.703125 C-183.63916016 257.72246094 -182.68847656 257.74179687 -181.70898438 257.76171875 C-179.73262884 257.7956364 -177.75594173 257.81380711 -175.77929688 257.81640625 C-171.03492835 257.93880001 -168.5673158 258.00528486 -164.6640625 260.88671875 C-162.23015391 264.40407611 -162.12643643 266.36988929 -162.8125 270.5625 C-165.03113029 273.46967073 -166.33194929 274.40231643 -169.8125 275.5625 C-196.22680937 277.0356716 -221.01645403 270.38777797 -241.19165039 252.90039062 C-260.48447387 235.47729094 -270.25139667 213.1427446 -272.03125 187.3984375 C-272.74680902 163.3675804 -263.69594139 140.42376456 -247.8125 122.5625 C-247.16023438 121.81613281 -246.50796875 121.06976563 -245.8359375 120.30078125 C-233.68844342 107.26611063 -217.39436082 98.7788412 -200.04296875 95.203125 C-199.30691406 94.99171875 -198.57085937 94.7803125 -197.8125 94.5625 C-196.49133059 91.92016118 -196.46773651 89.3524429 -196.21777344 86.44433594 C-193.28543052 52.6895186 -178.33519211 22.9692631 -152.8125 0.5625 C-138.8219721 -11.01656087 -123.18902972 -18.4641339 -105.8125 -23.4375 C-104.11867187 -23.94990234 -104.11867187 -23.94990234 -102.390625 -24.47265625 C-67.265459 -33.33640119 -27.47657293 -23.12689036 0 0 Z " fill="#000000" transform="translate(278.8125,60.4375)"/>
<path d="M0 0 C6.06448142 1.68828054 9.74759301 9.24141753 12.9453125 14.1953125 C13.78312508 15.4757972 13.78312508 15.4757972 14.63786316 16.78215027 C16.47476067 19.59096157 18.30375576 22.40482796 20.1328125 25.21875 C22.72903704 29.19665806 25.33023481 33.17128921 27.93359375 37.14453125 C28.60151443 38.16449692 29.26943512 39.18446259 29.95759583 40.2353363 C34.71268849 47.47841569 39.54541741 54.66504659 44.42578125 61.82421875 C45.42570602 63.29344788 45.42570602 63.29344788 46.4458313 64.7923584 C49.03774996 68.59872089 51.63049671 72.40432564 54.24194336 76.19732666 C56.04040609 78.80976195 57.827649 81.42956663 59.61328125 84.05078125 C60.14527634 84.81561325 60.67727142 85.58044525 61.22538757 86.36845398 C64.16458247 90.70545987 66.19100146 94.40721296 67.1328125 99.59375 C65.08735795 105.11647727 65.08735795 105.11647727 62.1328125 106.59375 C60.2464213 106.678665 58.35702735 106.700943 56.46875 106.69140625 C54.78652344 106.68657227 54.78652344 106.68657227 53.0703125 106.68164062 C51.8946875 106.67326172 50.7190625 106.66488281 49.5078125 106.65625 C48.32445312 106.65173828 47.14109375 106.64722656 45.921875 106.64257812 C42.99213743 106.63076467 40.06249978 106.61429258 37.1328125 106.59375 C37.14280525 108.41539169 37.14280525 108.41539169 37.15299988 110.27383423 C37.21382645 121.72109774 37.25879265 133.16832845 37.28824902 144.61571693 C37.30390193 150.50087853 37.32513367 156.38590961 37.35913086 162.27099609 C37.3917372 167.95089373 37.40966833 173.63066586 37.41744423 179.31064987 C37.42298541 181.47717642 37.43380595 183.64369613 37.45000267 185.81016922 C37.47179355 188.84576489 37.47477869 191.88084255 37.47338867 194.91650391 C37.4841745 195.81130463 37.49496033 196.70610535 37.506073 197.62802124 C37.48100973 202.68951588 36.98494798 206.22288718 34.1328125 210.59375 C31.29952585 212.01039332 28.89530736 211.74457587 25.72705078 211.77075195 C25.0699411 211.77732315 24.41283142 211.78389435 23.73580933 211.79066467 C21.55824676 211.81039782 19.38075312 211.82205953 17.203125 211.83203125 C16.08804377 211.83814454 16.08804377 211.83814454 14.95043564 211.84438133 C11.01660184 211.86524107 7.08280293 211.87954378 3.14892578 211.88891602 C-0.91562583 211.89998694 -4.97963093 211.93439423 -9.04398918 211.97408772 C-12.16839624 212.00022145 -15.29267236 212.00860486 -18.41717911 212.01219749 C-19.91551535 212.01707107 -21.41384544 212.02870709 -22.91207504 212.04723549 C-25.0093709 212.07156238 -27.10524323 212.07067503 -29.20263672 212.0637207 C-30.99228348 212.07252007 -30.99228348 212.07252007 -32.81808472 212.08149719 C-35.8671875 211.59375 -35.8671875 211.59375 -38.25534058 210.17222595 C-40.74297322 206.19275317 -40.39245351 202.47045536 -40.32128906 197.86816406 C-40.32187317 196.88246933 -40.32245728 195.8967746 -40.32305908 194.88121033 C-40.32027265 191.6235735 -40.2891534 188.36685196 -40.2578125 185.109375 C-40.25035212 182.85065206 -40.24465823 180.59192264 -40.24066162 178.33319092 C-40.22538943 172.38838835 -40.18609347 166.44397672 -40.1418457 160.49932861 C-40.10092747 154.43319996 -40.08265794 148.36700813 -40.0625 142.30078125 C-40.01960116 130.39826574 -39.95133027 118.49604038 -39.8671875 106.59375 C-40.63385742 106.61993408 -41.40052734 106.64611816 -42.19042969 106.6730957 C-45.66580699 106.77706223 -49.14085733 106.84207724 -52.6171875 106.90625 C-53.82375 106.94814453 -55.0303125 106.99003906 -56.2734375 107.03320312 C-57.43359375 107.04931641 -58.59375 107.06542969 -59.7890625 107.08203125 C-60.85737305 107.10821533 -61.92568359 107.13439941 -63.02636719 107.16137695 C-65.8671875 106.59375 -65.8671875 106.59375 -68.215271 104.24253845 C-70.27850018 100.93422497 -70.49171932 99.437138 -69.8671875 95.59375 C-68.58230989 93.05473612 -67.29657075 90.84385656 -65.7265625 88.49609375 C-65.28125183 87.80797104 -64.83594116 87.11984833 -64.37713623 86.41087341 C-62.89044618 84.12707139 -61.3814747 81.85933663 -59.8671875 79.59375 C-59.34664795 78.81042297 -58.8261084 78.02709595 -58.28979492 77.22003174 C-54.26732621 71.17490639 -50.19507191 65.16406917 -46.1171875 59.15625 C-43.55051385 55.36694651 -40.98590587 51.57624836 -38.421875 47.78515625 C-37.78492706 46.84378815 -37.14797913 45.90242004 -36.49172974 44.93252563 C-32.36355778 38.82548967 -28.26311626 32.70081682 -24.1875 26.55859375 C-23.67537964 25.78721573 -23.16325928 25.01583771 -22.63562012 24.22108459 C-20.24608606 20.62002426 -17.86104422 17.01607963 -15.48144531 13.40844727 C-14.63877806 12.13681114 -13.79601086 10.86524124 -12.953125 9.59375 C-11.8710376 7.9540625 -11.8710376 7.9540625 -10.76708984 6.28125 C-7.38686586 1.49976637 -6.06946559 0.28562191 0 0 Z M-2.8671875 24.59375 C-4.20741554 26.14205351 -4.20741554 26.14205351 -5.53417969 28.20776367 C-6.33707428 29.39742989 -6.33707428 29.39742989 -7.15618896 30.61112976 C-7.73628723 31.48582413 -8.3163855 32.36051849 -8.9140625 33.26171875 C-9.82554047 34.61865593 -9.82554047 34.61865593 -10.75543213 36.00300598 C-12.71580937 38.92481891 -14.66656933 41.85291516 -16.6171875 44.78125 C-17.88609633 46.67554729 -19.155621 48.56943221 -20.42578125 50.46289062 C-22.96489321 54.2504849 -25.49755101 58.04227646 -28.02539062 61.83740234 C-30.65167635 65.77893613 -33.29246978 69.71022757 -35.94335938 73.63525391 C-36.59451721 74.60263992 -37.24567505 75.57002594 -37.91656494 76.56672668 C-39.16245543 78.41735797 -40.4117951 80.265673 -41.66497803 82.1113739 C-42.21800598 82.93482803 -42.77103394 83.75828217 -43.34082031 84.60668945 C-44.0750119 85.69286308 -44.0750119 85.69286308 -44.82403564 86.80097961 C-46.03482895 88.53616473 -46.03482895 88.53616473 -45.8671875 90.59375 C-44.60261719 90.63113281 -43.33804687 90.66851562 -42.03515625 90.70703125 C-40.3749702 90.77268833 -38.71481528 90.83913576 -37.0546875 90.90625 C-36.22130859 90.92880859 -35.38792969 90.95136719 -34.52929688 90.97460938 C-33.32563477 91.0277832 -33.32563477 91.0277832 -32.09765625 91.08203125 C-30.99006958 91.12130737 -30.99006958 91.12130737 -29.86010742 91.16137695 C-27.30153918 91.71646998 -26.5008035 92.56955792 -24.8671875 94.59375 C-24.48242664 96.54024792 -24.48242664 96.54024792 -24.46846008 98.78886414 C-24.44965286 100.06979446 -24.44965286 100.06979446 -24.4304657 101.37660217 C-24.43261833 102.77706032 -24.43261833 102.77706032 -24.43481445 104.20581055 C-24.4246228 105.19135925 -24.41443115 106.17690796 -24.40393066 107.19232178 C-24.37369793 110.45509449 -24.36451892 113.71757412 -24.35546875 116.98046875 C-24.33862971 119.24063602 -24.32048053 121.50079389 -24.30107117 123.76094055 C-24.25348105 129.71376607 -24.22372992 135.66655346 -24.19763184 141.61950684 C-24.16264072 148.75983607 -24.10560246 155.90001877 -24.05223846 163.0402298 C-23.97361903 173.89138495 -23.92309276 184.7423469 -23.8671875 195.59375 C-9.3471875 195.59375 5.1728125 195.59375 20.1328125 195.59375 C20.17019531 188.42140625 20.20757812 181.2490625 20.24609375 173.859375 C20.27636348 169.32028828 20.30750484 164.78124125 20.34179688 160.2421875 C20.39616411 153.03485077 20.44727232 145.82759257 20.47924805 138.62011719 C20.5052242 132.81042287 20.54558641 127.00099154 20.59599876 121.19145966 C20.61270598 118.97309384 20.62419618 116.75468249 20.63042641 114.53626251 C20.64002547 111.43307307 20.66803491 108.33056235 20.70043945 105.22753906 C20.69828682 103.84649994 20.69828682 103.84649994 20.6960907 102.43756104 C20.78806458 96.22500268 20.78806458 96.22500268 22.53527832 93.02575684 C24.55667539 91.21380535 25.66953503 91.06079333 28.36328125 90.984375 C29.16572266 90.95214844 29.96816406 90.91992188 30.79492188 90.88671875 C31.62830078 90.87253906 32.46167969 90.85835938 33.3203125 90.84375 C34.16529297 90.81410156 35.01027344 90.78445313 35.88085938 90.75390625 C37.96433072 90.6832801 40.04857756 90.63624205 42.1328125 90.59375 C40.87842198 87.22035078 39.45504688 84.3392073 37.43408203 81.36450195 C36.89236359 80.56208572 36.35064514 79.75966949 35.79251099 78.93293762 C35.20613861 78.07463852 34.61976624 77.21633942 34.015625 76.33203125 C33.40322968 75.42736618 32.79083435 74.52270111 32.15988159 73.59062195 C30.19695195 70.6928002 28.22760365 67.7994109 26.2578125 64.90625 C24.33186513 62.06848389 22.4072593 59.22981283 20.48309326 56.39083862 C19.21702096 54.52406042 17.9494918 52.65826941 16.68048096 50.79348755 C13.61207155 46.27969293 10.5691899 41.75247004 7.58105469 37.18505859 C7.02811737 36.34267136 6.47518005 35.50028412 5.90548706 34.63237 C4.86622317 33.04498345 3.8326751 31.45383567 2.80569458 29.85847473 C1.632564 28.06895987 0.38971942 26.32544969 -0.8671875 24.59375 C-1.5271875 24.59375 -2.1871875 24.59375 -2.8671875 24.59375 Z " fill="#000000" transform="translate(332.8671875,266.40625)"/>
<path d="M0 0 C0.65740173 -0.00700928 1.31480347 -0.01401855 1.99212646 -0.02124023 C4.15924667 -0.03880619 6.32505466 -0.02720423 8.4921875 -0.01367188 C10.00146739 -0.01636724 11.51074558 -0.02025003 13.02001953 -0.02526855 C16.18083249 -0.03116164 19.34119284 -0.02260738 22.50195312 -0.00390625 C26.55087307 0.01888393 30.59873248 0.00575973 34.64761353 -0.01819611 C37.76350883 -0.03265965 40.87915324 -0.02804571 43.99505615 -0.01768494 C45.4877739 -0.01501915 46.98051454 -0.01828225 48.47320557 -0.02760315 C50.56087454 -0.03777883 52.64683324 -0.02225756 54.734375 0 C56.51497314 0.00477356 56.51497314 0.00477356 58.33154297 0.00964355 C61.3671875 0.51757812 61.3671875 0.51757812 63.75335693 1.94207764 C66.24517896 5.91875833 65.89244508 9.64141768 65.82128906 14.24316406 C65.82187317 15.2288588 65.82245728 16.21455353 65.82305908 17.2301178 C65.82027265 20.48775462 65.7891534 23.74447617 65.7578125 27.00195312 C65.75035212 29.26067607 65.74465823 31.51940548 65.74066162 33.77813721 C65.72538943 39.72293977 65.68609347 45.6673514 65.6418457 51.61199951 C65.60092747 57.67812817 65.58265794 63.74431999 65.5625 69.81054688 C65.51960116 81.71306238 65.45133027 93.61528775 65.3671875 105.51757812 C66.13385742 105.49139404 66.90052734 105.46520996 67.69042969 105.43823242 C71.16580699 105.33426589 74.64085733 105.26925089 78.1171875 105.20507812 C79.32375 105.16318359 80.5303125 105.12128906 81.7734375 105.078125 C82.93359375 105.06201172 84.09375 105.04589844 85.2890625 105.02929688 C86.35737305 105.00311279 87.42568359 104.97692871 88.52636719 104.94995117 C91.3671875 105.51757812 91.3671875 105.51757812 93.715271 107.86878967 C95.77850018 111.17710315 95.99171932 112.67419013 95.3671875 116.51757812 C94.08230989 119.056592 92.79657075 121.26747157 91.2265625 123.61523438 C90.78125183 124.30335709 90.33594116 124.9914798 89.87713623 125.70045471 C88.39044618 127.98425674 86.8814747 130.25199149 85.3671875 132.51757812 C84.84664795 133.30090515 84.3261084 134.08423218 83.78979492 134.89129639 C79.76732621 140.93642173 75.69507191 146.94725895 71.6171875 152.95507812 C69.05051385 156.74438161 66.48590587 160.53507977 63.921875 164.32617188 C63.28492706 165.26753998 62.64797913 166.20890808 61.99172974 167.17880249 C57.86355778 173.28583846 53.76311626 179.41051131 49.6875 185.55273438 C49.17537964 186.3241124 48.66325928 187.09549042 48.13562012 187.89024353 C45.74608606 191.49130386 43.36104422 195.0952485 40.98144531 198.70288086 C40.13877806 199.97451699 39.29601086 201.24608689 38.453125 202.51757812 C37.7317334 203.61070312 37.0103418 204.70382812 36.26708984 205.83007812 C33.31989902 209.99901626 33.31989902 209.99901626 31.3671875 211.51757812 C25.90083019 212.22291455 25.90083019 212.22291455 23.3671875 211.51757812 C18.86282563 207.54998039 15.79472255 202.9355747 12.5546875 197.91601562 C11.99610046 197.06213257 11.43751343 196.20824951 10.86199951 195.32849121 C9.65513347 193.48281313 8.45085554 191.63544064 7.24890137 189.78656006 C4.03561938 184.84469287 0.80284973 179.91561372 -2.4296875 174.98632812 C-3.09740173 173.96739471 -3.76511597 172.9484613 -4.45306396 171.89865112 C-13.07468854 158.76395798 -21.89080161 145.76055104 -30.703125 132.75341797 C-31.59339386 131.43827209 -31.59339386 131.43827209 -32.50164795 130.09655762 C-33.61275643 128.45566405 -34.72503756 126.8155637 -35.83868408 125.1763916 C-36.32665466 124.45608765 -36.81462524 123.73578369 -37.31738281 122.99365234 C-37.74287415 122.3669162 -38.16836548 121.74018005 -38.60675049 121.0944519 C-40.9532925 117.48823656 -41.4984033 113.72641412 -40.6328125 109.51757812 C-38.46338049 106.74443612 -37.31584529 105.62676006 -33.79199219 105.06347656 C-32.72368164 105.08442383 -31.65537109 105.10537109 -30.5546875 105.12695312 C-29.39453125 105.13984375 -28.234375 105.15273438 -27.0390625 105.16601562 C-25.8325 105.19953125 -24.6259375 105.23304688 -23.3828125 105.26757812 C-22.16078125 105.285625 -20.93875 105.30367188 -19.6796875 105.32226562 C-16.66327172 105.36939712 -13.64843759 105.435184 -10.6328125 105.51757812 C-10.64169495 104.26112488 -10.65057739 103.00467163 -10.659729 101.71014404 C-10.74075247 89.8796596 -10.80074803 78.04923132 -10.84006119 66.21853256 C-10.86095184 60.13596805 -10.88929695 54.05362719 -10.93457031 47.97119141 C-10.9779746 42.10326178 -11.00193847 36.23554753 -11.01232147 30.36746979 C-11.01972253 28.12670754 -11.03417474 25.88595732 -11.05573273 23.64528656 C-11.08469408 20.51098491 -11.08877146 17.3775776 -11.08691406 14.24316406 C-11.10129517 13.31312057 -11.11567627 12.38307709 -11.13049316 11.42485046 C-11.10583175 7.58871346 -11.08394402 5.23753565 -9.01898193 1.94207764 C-5.85671853 0.05426422 -3.67933523 0.00986383 0 0 Z M5.3671875 16.51757812 C5.32851562 27.27609375 5.32851562 27.27609375 5.2890625 38.25195312 C5.2639012 42.7910516 5.23757381 47.33008297 5.20703125 51.86914062 C5.15864566 59.07650017 5.11462024 66.28370444 5.09619141 73.49121094 C5.08106674 79.30095877 5.04669552 85.11030092 4.99887848 90.91986847 C4.98402143 93.13823168 4.97614402 95.35665281 4.97530365 97.57506561 C4.97294529 100.67841537 4.94595618 103.78063363 4.91308594 106.88378906 C4.9181163 107.80448181 4.92314667 108.72517456 4.92832947 109.67376709 C4.82604604 115.90006231 4.82604604 115.90006231 2.45898438 119.08557129 C0.18140009 120.64476487 -1.00999976 121.04415956 -3.7421875 121.12695312 C-4.49628906 121.15917969 -5.25039062 121.19140625 -6.02734375 121.22460938 C-6.80464844 121.23878906 -7.58195312 121.25296875 -8.3828125 121.26757812 C-9.17558594 121.29722656 -9.96835938 121.326875 -10.78515625 121.35742188 C-12.73383344 121.42785599 -14.68332745 121.47501295 -16.6328125 121.51757812 C-15.37842198 124.89097734 -13.95504688 127.77212082 -11.93408203 130.74682617 C-11.39236359 131.5492424 -10.85064514 132.35165863 -10.29251099 133.1783905 C-9.41295242 134.46583916 -9.41295242 134.46583916 -8.515625 135.77929688 C-7.59703201 137.13629448 -7.59703201 137.13629448 -6.65988159 138.52070618 C-4.69695195 141.41852792 -2.72760365 144.31191722 -0.7578125 147.20507812 C1.16818593 150.04291947 3.09284188 152.88166786 5.01739502 155.7204895 C6.28273196 157.58666177 7.54863799 159.4524483 8.81512451 161.31784058 C14.71769045 170.01665708 20.55292565 178.75956648 26.3671875 187.51757812 C29.85258745 186.35577814 30.22240584 185.65338141 32.16357422 182.66650391 C32.97119705 181.43723679 32.97119705 181.43723679 33.7951355 180.18313599 C34.37320953 179.28545502 34.95128357 178.38777405 35.546875 177.46289062 C36.1554837 176.53274139 36.76409241 175.60259216 37.3911438 174.64425659 C39.34922532 171.64866011 41.29611385 168.64598635 43.2421875 165.64257812 C45.77800445 161.74722776 48.31857267 157.85499029 50.859375 153.96289062 C51.48164978 153.00674866 52.10392456 152.05060669 52.74505615 151.06549072 C57.54320905 143.7137261 62.47091511 136.45824662 67.51437378 129.27249146 C68.27707077 128.17540359 68.27707077 128.17540359 69.05517578 127.05615234 C69.5035379 126.41781464 69.95190002 125.77947693 70.41384888 125.12179565 C71.53747728 123.54204375 71.53747728 123.54204375 71.3671875 121.51757812 C70.10261719 121.48019531 68.83804688 121.4428125 67.53515625 121.40429688 C65.8749702 121.3386398 64.21481528 121.27219237 62.5546875 121.20507812 C61.72130859 121.18251953 60.88792969 121.15996094 60.02929688 121.13671875 C58.82563477 121.08354492 58.82563477 121.08354492 57.59765625 121.02929688 C56.49006958 120.99002075 56.49006958 120.99002075 55.36010742 120.94995117 C52.80153918 120.39485815 52.0008035 119.5417702 50.3671875 117.51757812 C49.98242664 115.57108021 49.98242664 115.57108021 49.96846008 113.32246399 C49.95592194 112.46851044 49.94338379 111.61455688 49.9304657 110.73472595 C49.93190079 109.80108719 49.93333588 108.86744843 49.93481445 107.90551758 C49.91952698 106.42719452 49.91952698 106.42719452 49.90393066 104.91900635 C49.87369793 101.65623364 49.86451892 98.393754 49.85546875 95.13085938 C49.83862971 92.8706921 49.82048053 90.61053424 49.80107117 88.35038757 C49.75348105 82.39756205 49.72372992 76.44477467 49.69763184 70.49182129 C49.66264072 63.35149205 49.60560246 56.21130935 49.55223846 49.07109833 C49.47361903 38.21994318 49.42309276 27.36898123 49.3671875 16.51757812 C34.8471875 16.51757812 20.3271875 16.51757812 5.3671875 16.51757812 Z " fill="#000000" transform="translate(153.6328125,236.482421875)"/>
</svg>
