<svg width="238" height="238" viewBox="0 0 238 238" fill="none" xmlns="http://www.w3.org/2000/svg">
<path d="M140.73 142.519V125.376C140.73 119.314 138.322 113.501 134.036 109.215C129.75 104.928 123.936 102.52 117.874 102.52C111.812 102.52 105.999 104.928 101.712 109.215C97.4261 113.501 95.0178 119.314 95.0178 125.376V142.519C91.9878 142.522 89.0829 143.727 86.9404 145.869C84.7978 148.012 83.5928 150.917 83.5898 153.947V188.231C83.5928 191.261 84.7978 194.166 86.9404 196.309C89.0829 198.451 91.9878 199.656 95.0178 199.659H140.73C143.76 199.656 146.666 198.451 148.808 196.309C150.951 194.166 152.156 191.261 152.159 188.231V153.947C152.156 150.917 150.951 148.012 148.808 145.869C146.666 143.727 143.76 142.522 140.73 142.519ZM106.446 125.376C106.446 122.346 107.65 119.439 109.793 117.295C111.936 115.152 114.843 113.948 117.874 113.948C120.905 113.948 123.812 115.152 125.955 117.295C128.098 119.439 129.302 122.346 129.302 125.376V142.519H106.446V125.376ZM95.0178 188.231V153.947H140.73L140.736 188.231H95.0178Z" stroke="black" stroke-width="6"/>
<path d="M174.041 86.0346C171.877 74.81 166.398 64.4917 158.312 56.4116C150.225 48.3315 139.903 42.8604 128.677 40.7049C121.303 39.2798 113.72 39.3224 106.363 40.8297C99.0049 42.337 92.0167 45.2798 85.7969 49.4895C79.5775 53.6994 74.2487 59.0938 70.1151 65.3646C65.9819 71.6351 63.1248 78.659 61.7076 86.0346C51.174 87.9333 41.732 93.704 35.2378 102.212C28.7436 110.72 25.667 121.35 26.6132 132.011C27.5594 142.672 32.4598 152.594 40.3508 159.825C48.2419 167.057 58.5526 171.074 69.2559 171.088H72.1643V159.66H69.2787C61.4324 159.646 53.8748 156.698 48.0911 151.396C42.3072 146.093 38.7153 138.82 38.0208 131.004C37.3264 123.189 39.5795 115.396 44.3376 109.157C49.096 102.918 56.0152 98.6833 63.7362 97.2854L71.45 95.8855L72.9301 88.2002C74.9415 77.7549 80.5282 68.3364 88.7302 61.5632C96.9319 54.79 107.237 51.0849 117.874 51.0849C128.511 51.0849 138.816 54.79 147.018 61.5632C155.22 68.3364 160.807 77.7549 162.818 88.2002L164.298 95.8855L172.006 97.2854C179.725 98.6827 186.643 102.915 191.401 109.151C196.159 115.387 198.414 123.177 197.723 130.99C197.033 138.804 193.446 146.077 187.668 151.381C181.889 156.686 174.336 159.639 166.492 159.66H163.59V171.088H166.492C177.195 171.073 187.505 167.054 195.395 159.823C203.285 152.591 208.184 142.669 209.13 132.008C210.075 121.347 206.998 110.718 200.504 102.211C194.01 93.7035 184.568 87.9331 174.035 86.0346H174.041Z" stroke="black" stroke-width="6"/>
</svg>
