<?xml version="1.0" encoding="UTF-8"?>
<svg version="1.1" xmlns="http://www.w3.org/2000/svg" width="512" height="512">
<path d="M0 0 C0.62197266 0.19867676 1.24394531 0.39735352 1.88476562 0.60205078 C22.8709464 7.42204867 39.81293525 19.27770134 53 37 C53.54785156 36.81824219 54.09570312 36.63648438 54.66015625 36.44921875 C76.32189377 29.58086295 96.70753553 28.63651518 117.72265625 38.28125 C135.95265426 47.84167804 148.45461609 63.30524762 155.07421875 82.625 C155.95448082 85.83405665 156.35810881 88.82230435 156.6875 92.125 C157.01589175 94.77373334 157.01589175 94.77373334 158 97 C160.24230673 98.60232489 162.32632118 99.27320428 164.9609375 100.07421875 C176.88484349 103.70656543 185.44227556 110.25039833 194 119 C194.66644531 119.63421875 195.33289063 120.2684375 196.01953125 120.921875 C209.00943962 134.1756867 212.49904124 152.41629363 212.34765625 170.21484375 C211.87973206 189.94154253 204.04960041 205.44994093 190 219 C189.36707031 219.66386719 188.73414063 220.32773438 188.08203125 221.01171875 C183.99144683 225.03006327 179.30726431 227.64371483 174.25 230.25 C173.30314331 230.7445166 173.30314331 230.7445166 172.3371582 231.24902344 C160.93249986 236.83906543 149.72895507 237.40578513 137.25 237.1875 C132.2175 237.125625 127.185 237.06375 122 237 C122 253.5 122 270 122 287 C128.93 286.67 135.86 286.34 143 286 C146.75020951 281.86800669 146.75020951 281.86800669 147.8984375 278.578125 C150.17215971 273.25664749 155.29535557 270.84621967 160.2734375 268.375 C167.68761264 265.63937144 175.98393148 265.73460187 183.49609375 268.1015625 C189.61967956 270.96076486 194.39157153 274.24085257 198 280 C198.40992188 280.62132812 198.81984375 281.24265625 199.2421875 281.8828125 C203.09026139 288.86242238 203.25054524 297.26045045 202 305 C199.59901829 312.57624263 195.78693839 318.74760292 189 323 C188.37867188 323.40992188 187.75734375 323.81984375 187.1171875 324.2421875 C180.13757762 328.09026139 171.73954955 328.25054524 164 327 C156.48400661 324.61811184 150.2074011 320.77627635 146 314 C144.99263162 312.00370119 143.991976 310.00399192 143 308 C141.93563721 307.99589111 140.87127441 307.99178223 139.7746582 307.98754883 C135.81388366 307.96572552 131.85409805 307.91140394 127.89379883 307.84741211 C126.18198141 307.82425975 124.4700221 307.80984285 122.75805664 307.80444336 C120.29223502 307.79513297 117.82863626 307.75410221 115.36328125 307.70703125 C114.60163162 307.7109639 113.83998199 307.71489655 113.05525208 307.71894836 C109.27675967 307.6159161 107.29020288 307.22868594 104.29345703 304.8671875 C101.52673431 301.40834231 101.3898811 299.8422464 101.43237305 295.46557617 C101.4327507 294.16460495 101.43312836 292.86363373 101.43351746 291.52323914 C101.45904705 290.11313917 101.48512697 288.70304908 101.51171875 287.29296875 C101.52105097 285.84281129 101.52816515 284.392638 101.53315735 282.94245911 C101.55219565 279.136241 101.60126694 275.33098568 101.65667725 271.52514648 C101.71696119 266.95311631 101.73980128 262.38076314 101.76894379 257.80844879 C101.81733631 250.87163078 101.91316787 243.93692277 102 237 C85.5 237 69 237 52 237 C52 279.9 52 322.8 52 367 C72.295 366.505 72.295 366.505 93 366 C94.98 362.7 96.96 359.4 99 356 C107.27247377 348.77799909 114.88785274 346.12643163 125.91015625 346.5234375 C133.52957705 347.16061401 140.28570483 350.76096185 145.5 356.3125 C146.8203125 358.1171875 146.8203125 358.1171875 148 360 C148.40992188 360.62132812 148.81984375 361.24265625 149.2421875 361.8828125 C153.09026139 368.86242238 153.25054524 377.26045045 152 385 C149.59901829 392.57624263 145.78693839 398.74760292 139 403 C138.37867188 403.40992188 137.75734375 403.81984375 137.1171875 404.2421875 C130.13757762 408.09026139 121.73954955 408.25054524 114 407 C106.48400661 404.61811184 100.2074011 400.77627635 96 394 C94.99263162 392.00370119 93.991976 390.00399192 93 388 C91.96429619 387.99786247 91.96429619 387.99786247 90.90766907 387.99568176 C83.72100095 387.97599509 76.53518335 387.92174259 69.34887695 387.84741211 C66.66683387 387.82143984 63.98514307 387.80771779 61.30297852 387.80444336 C57.44749939 387.7951668 53.59345998 387.75419944 49.73828125 387.70703125 C47.93959343 387.71293022 47.93959343 387.71293022 46.10456848 387.71894836 C44.98378403 387.69930527 43.86299957 387.67966217 42.70825195 387.65942383 C41.72452103 387.65276199 40.7407901 387.64610016 39.72724915 387.63923645 C35.56768238 386.6642809 34.36807985 385.61527565 32 382 C31.26992654 377.38387075 31.36821678 372.78147133 31.43237305 368.12182617 C31.43378408 366.69253591 31.43299046 365.26324202 31.43016052 363.83395386 C31.42872707 359.96008801 31.45810442 356.08699767 31.49303031 352.21331191 C31.52430608 348.16278128 31.5272255 344.11223248 31.53315735 340.06159973 C31.54869227 332.39403802 31.58971576 324.72683315 31.6399048 317.05942851 C31.69580938 308.32917848 31.72328753 299.59891132 31.74838197 290.86852682 C31.80063221 272.91210786 31.89231926 254.95617801 32 237 C18.8 237 5.6 237 -8 237 C-8.09515937 257.88852281 -8.1489415 278.77580838 -8.12697029 299.66450691 C-8.11809875 309.36352464 -8.12789323 319.06185266 -8.18164062 328.76074219 C-8.22844037 337.21445344 -8.24020713 345.66736371 -8.2099179 354.12116325 C-8.19510204 358.59770938 -8.1978203 363.07269551 -8.24249649 367.54907608 C-8.28400809 371.76384668 -8.27862986 375.97597239 -8.23747826 380.19072151 C-8.23061686 381.73627775 -8.24080448 383.28201947 -8.26943016 384.82732582 C-8.34792851 389.36253309 -8.30489552 393.61226976 -7 398 C-4.62073293 400.33291768 -2.5380793 401.55072214 0.51994514 402.84650993 C6.76979288 405.75335583 9.73346584 412.85717729 12 419 C13.41393332 429.55517662 12.26700277 438.15409786 6 447 C3.886922 449.48538222 1.75947444 451.27103469 -1 453 C-1.62132812 453.40992188 -2.24265625 453.81984375 -2.8828125 454.2421875 C-9.86242238 458.09026139 -18.26045045 458.25054524 -26 457 C-33.57624263 454.59901829 -39.74760292 450.78693839 -44 444 C-44.40992188 443.37867188 -44.81984375 442.75734375 -45.2421875 442.1171875 C-49.09026139 435.13757762 -49.25054524 426.73954955 -48 419 C-45.61811184 411.48400661 -41.77627635 405.2074011 -35 401 C-33.02 400.01 -31.04 399.02 -29 398 C-28.67 344.87 -28.34 291.74 -28 237 C-41.2 237 -54.4 237 -68 237 C-67.97381592 241.36629639 -67.94763184 245.73259277 -67.9206543 250.23120117 C-67.83789164 264.64003799 -67.78235612 279.04888403 -67.74093914 293.45789623 C-67.71515478 302.19609375 -67.67999999 310.93406613 -67.62280273 319.67211914 C-67.57297466 327.28800729 -67.54071067 334.9037324 -67.52955753 342.51977903 C-67.52303767 346.55270495 -67.50771 350.58516444 -67.47134972 354.6179409 C-67.43739922 358.41421834 -67.42694483 362.20983745 -67.43446159 366.00625229 C-67.43308659 367.39905056 -67.42314754 368.79187094 -67.40397263 370.18453789 C-67.24898691 382.02223815 -67.24898691 382.02223815 -70.24203491 385.33609009 C-73.08635085 387.05209639 -74.42108925 387.5983729 -77.69506836 387.50073242 C-78.59627914 387.4880986 -79.49748993 387.47546478 -80.42601013 387.46244812 C-81.38757523 387.42714493 -82.34914032 387.39184174 -83.33984375 387.35546875 C-85.39256678 387.33781966 -87.44530239 387.32158719 -89.49804688 387.30664062 C-92.7225562 387.25477909 -95.94514195 387.18727654 -99.16870117 387.09301758 C-111.08385095 386.11296621 -111.08385095 386.11296621 -121.6394043 390.15893555 C-123.26384598 392.75474583 -123.26384598 392.75474583 -124.11376953 395.50537109 C-125.99934342 400.81302784 -131.482511 403.24668804 -136.2734375 405.625 C-143.68761264 408.36062856 -151.98393148 408.26539813 -159.49609375 405.8984375 C-165.61967956 403.03923514 -170.39157153 399.75914743 -174 394 C-174.61488281 393.06800781 -174.61488281 393.06800781 -175.2421875 392.1171875 C-179.09026139 385.13757762 -179.25054524 376.73954955 -178 369 C-175.59901829 361.42375737 -171.78693839 355.25239708 -165 351 C-164.06800781 350.38511719 -164.06800781 350.38511719 -163.1171875 349.7578125 C-156.13757762 345.90973861 -147.73954955 345.74945476 -140 347 C-132.48400661 349.38188816 -126.2074011 353.22372365 -122 360 C-121.01 361.98 -120.02 363.96 -119 366 C-108.77 366.33 -98.54 366.66 -88 367 C-88 324.1 -88 281.2 -88 237 C-101.2 237 -114.4 237 -128 237 C-127.94199219 241.63417969 -127.88398438 246.26835937 -127.82421875 251.04296875 C-127.79866462 253.98245697 -127.77459496 256.92180785 -127.75585938 259.86132812 C-127.72599282 264.52511101 -127.69069858 269.18840214 -127.62280273 273.85180664 C-127.56839336 277.61252026 -127.53856117 281.37270644 -127.52561378 285.13378334 C-127.51638965 286.56714492 -127.49837629 288.00047828 -127.47134972 289.43361473 C-127.43495241 291.44398106 -127.43295673 293.45488047 -127.43237305 295.46557617 C-127.42126999 296.60919113 -127.41016693 297.75280609 -127.39872742 298.93107605 C-128.19369682 302.98863783 -129.78923969 304.47607021 -133 307 C-135.92390628 307.38762406 -138.25502734 307.49316498 -141.15234375 307.35546875 C-142.74933437 307.33781942 -144.34634117 307.32158699 -145.94335938 307.30664062 C-148.44386613 307.25480774 -150.94188358 307.18733457 -153.44116211 307.09301758 C-163.0685496 306.34873802 -163.0685496 306.34873802 -171.3269043 310.15893555 C-172.93350757 312.76963211 -172.93350757 312.76963211 -173.93798828 315.50537109 C-176.17133387 320.75142287 -181.37647542 323.19404985 -186.2734375 325.625 C-193.68761264 328.36062856 -201.98393148 328.26539813 -209.49609375 325.8984375 C-215.61967956 323.03923514 -220.39157153 319.75914743 -224 314 C-224.61488281 313.06800781 -224.61488281 313.06800781 -225.2421875 312.1171875 C-229.09026139 305.13757762 -229.25054524 296.73954955 -228 289 C-225.59901829 281.42375737 -221.78693839 275.25239708 -215 271 C-214.37867188 270.59007812 -213.75734375 270.18015625 -213.1171875 269.7578125 C-206.13757762 265.90973861 -197.73954955 265.74945476 -190 267 C-182.48400661 269.38188816 -176.2074011 273.22372365 -172 280 C-171.01 281.98 -170.02 283.96 -169 286 C-162.07 286.33 -155.14 286.66 -148 287 C-148 270.5 -148 254 -148 237 C-161.28192888 237.11809022 -161.28192888 237.11809022 -174.56347656 237.27026367 C-187.28255459 237.36948404 -198.4938459 236.36830428 -210 230.5 C-210.671521 230.16033203 -211.34304199 229.82066406 -212.03491211 229.47070312 C-219.07863741 225.71494227 -224.49399266 220.70899378 -230 215 C-230.66386719 214.36707031 -231.32773438 213.73414063 -232.01171875 213.08203125 C-245.0149459 199.84503822 -248.49896718 181.5749985 -248.34765625 163.78515625 C-247.91857976 145.69619485 -240.91219355 128.91219355 -228 116 C-221.96263895 110.48338168 -216.34726985 106.32406581 -208.58398438 103.6315918 C-203.50685832 101.86258089 -203.50685832 101.86258089 -199 99 C-197.12342142 95.03882587 -196.42728638 91.50334225 -195.765625 87.2109375 C-194.17940326 76.97558358 -187.7811482 67.57893034 -181 60 C-180.34515625 59.25234375 -179.6903125 58.5046875 -179.015625 57.734375 C-168.60506722 46.56392249 -152.88663003 37.62322419 -137.32446289 36.87060547 C-136.3833667 36.86947754 -135.44227051 36.86834961 -134.47265625 36.8671875 C-133.43302734 36.86589844 -132.39339844 36.86460938 -131.32226562 36.86328125 C-130.24654297 36.86714844 -129.17082031 36.87101562 -128.0625 36.875 C-126.99064453 36.87113281 -125.91878906 36.86726563 -124.81445312 36.86328125 C-119.7719278 36.86952586 -114.95166165 36.91494023 -110 38 C-109.21689453 36.98292969 -109.21689453 36.98292969 -108.41796875 35.9453125 C-83.50583416 4.44520537 -39.53577169 -13.03106903 0 0 Z M-85.42675781 41.38867188 C-89.47087348 45.53068978 -92.70761632 50.25428378 -96 55 C-99.52335489 59.86851169 -99.52335489 59.86851169 -103.625 61 C-106.8917997 61.2316458 -109.19751839 60.68965311 -112.25 59.5625 C-122.61813711 56.09037966 -136.62798238 56.26952732 -146.62109375 60.7421875 C-147.40613281 61.15726563 -148.19117188 61.57234375 -149 62 C-149.85722656 62.43570313 -150.71445313 62.87140625 -151.59765625 63.3203125 C-163.32229538 69.79273772 -171.83585909 80.20495523 -176 93 C-176.78756717 97.26199904 -177.21543779 101.56958607 -177.640625 105.88085938 C-178.44021887 112.37024623 -178.44021887 112.37024623 -181.21875 115.49609375 C-184.17975604 117.09719954 -186.86719443 118.03453419 -190.125 118.875 C-202.93001778 122.62844377 -213.72299247 129.11290693 -220.3671875 141.0625 C-227.04402817 153.85941547 -229.43272474 166.55606101 -226.09375 180.890625 C-220.92621595 194.86946711 -212.31298388 205.26565435 -199 212 C-187.77507608 217.03518016 -176.89103019 217.14930604 -164.7432251 217.13371277 C-163.43782202 217.13597833 -162.13241893 217.13824388 -160.78745818 217.14057809 C-157.18857023 217.14665832 -153.58970564 217.14656698 -149.99081373 217.14538372 C-146.09974788 217.14517875 -142.20868935 217.15070757 -138.31762695 217.15544128 C-130.70355828 217.16372754 -123.08949736 217.1664952 -115.47542456 217.16705366 C-109.28299015 217.16752977 -103.09055829 217.16958921 -96.89812469 217.17275429 C-79.32011508 217.18155517 -61.74211156 217.18617453 -44.16409972 217.18542381 C-43.2175933 217.18538386 -42.27108687 217.1853439 -41.29589844 217.18530273 C-40.34822907 217.18526185 -39.40055971 217.18522097 -38.42417309 217.18517885 C-23.06978935 217.1847725 -7.71543014 217.19434089 7.6389465 217.2084411 C23.42560567 217.22282327 39.21225289 217.22971028 54.99891877 217.22884732 C63.85353523 217.228516 72.70812597 217.23123472 81.56273651 217.24202538 C89.10198438 217.25115461 96.64119486 217.25328577 104.18044588 217.24651595 C108.02218145 217.24326301 111.86384539 217.24314946 115.70557404 217.2518692 C119.88219974 217.26125105 124.05866135 217.25492632 128.23529053 217.24723816 C129.432793 217.25238172 130.63029548 217.25752529 131.86408591 217.26282471 C149.92914471 217.18971847 164.53220538 214.25117479 177.8828125 201.31640625 C188.86920942 189.29623397 191.7874318 176.1282543 191.17480469 160.33642578 C190.30407592 148.69833318 183.34439732 137.42553636 174.94921875 129.55859375 C165.95680393 122.36826607 156.2836923 118.87850512 145.109375 116.6484375 C142 116 142 116 139 115 C138.89042969 113.99582031 138.78085937 112.99164063 138.66796875 111.95703125 C136.34207316 91.48461909 131.90269321 75.1646634 115.125 61.6875 C103.52775856 53.56482891 90.04929239 50.25383029 76.05859375 52.46484375 C69.40473477 53.93094827 63.74012204 56.40009772 57.7890625 59.6953125 C53.5781235 61.66513551 50.45714696 62.27435061 45.8671875 61.41015625 C42.26928807 59.64061716 41.16381444 57.86323328 39.125 54.4375 C26.99688835 35.27462679 9.44233879 23.97767144 -12.38671875 18.71875 C-39.32933694 13.35935352 -65.73865301 22.61066671 -85.42675781 41.38867188 Z M-207 293 C-207.69847125 295.8396864 -207.69847125 298.1603136 -207 301 C-205.01078114 303.9838283 -203.61497432 305.60276841 -200.0625 306.4765625 C-196.13936508 306.75890933 -194.32887629 306.21925086 -191 304 C-188.78074914 300.67112371 -188.24109067 298.86063492 -188.5234375 294.9375 C-189.39723159 291.38502568 -191.0161717 289.98921886 -194 288 C-199.81663203 286.56929615 -203.60814906 287.91222359 -207 293 Z M163 293 C162.30152875 295.8396864 162.30152875 298.1603136 163 301 C164.98921886 303.9838283 166.38502568 305.60276841 169.9375 306.4765625 C173.86063492 306.75890933 175.67112371 306.21925086 179 304 C181.21925086 300.67112371 181.75890933 298.86063492 181.4765625 294.9375 C180.60276841 291.38502568 178.9838283 289.98921886 176 288 C170.18336797 286.56929615 166.39185094 287.91222359 163 293 Z M-157 373 C-157.69847125 375.8396864 -157.69847125 378.1603136 -157 381 C-155.01078114 383.9838283 -153.61497432 385.60276841 -150.0625 386.4765625 C-146.13936508 386.75890933 -144.32887629 386.21925086 -141 384 C-138.78074914 380.67112371 -138.24109067 378.86063492 -138.5234375 374.9375 C-139.39723159 371.38502568 -141.0161717 369.98921886 -144 368 C-149.81663203 366.56929615 -153.60814906 367.91222359 -157 373 Z M113 373 C112.30152875 375.8396864 112.30152875 378.1603136 113 381 C114.98921886 383.9838283 116.38502568 385.60276841 119.9375 386.4765625 C123.86063492 386.75890933 125.67112371 386.21925086 129 384 C131.21925086 380.67112371 131.75890933 378.86063492 131.4765625 374.9375 C130.60276841 371.38502568 128.9838283 369.98921886 126 368 C120.18336797 366.56929615 116.39185094 367.91222359 113 373 Z M-27 423 C-27.69847125 425.8396864 -27.69847125 428.1603136 -27 431 C-25.01078114 433.9838283 -23.61497432 435.60276841 -20.0625 436.4765625 C-16.13936508 436.75890933 -14.32887629 436.21925086 -11 434 C-8.78074914 430.67112371 -8.24109067 428.86063492 -8.5234375 424.9375 C-9.39723159 421.38502568 -11.0161717 419.98921886 -14 418 C-19.81663203 416.56929615 -23.60814906 417.91222359 -27 423 Z " fill="#000000" transform="translate(274,29)"/>
<path d="M0 0 C16.27877296 4.4674828 30.52140244 15.45784541 40.25 29.1875 C42.54069036 33.32107659 43.07065058 37.39269217 42 42 C39.99923195 45.00115208 38.52782201 46.46981125 35.09765625 47.66015625 C31.41181621 48.3888348 29.40831917 48.18332698 25.9375 46.625 C22.74431652 43.77151689 20.39733843 40.71391926 17.83203125 37.3046875 C11.05857045 28.78370269 2.01073594 24.29109512 -8 20.4375 C-11.5627821 18.73033358 -13.0789658 17.45786155 -15 14 C-15.72214458 8.94498795 -15.54253769 7.01273701 -13.125 2.5 C-9.34008498 -1.35892174 -5.02403939 -0.89666098 0 0 Z " fill="#000000" transform="translate(414,156)"/>
</svg>
