<svg width="48" height="48" viewBox="0 0 48 48" fill="none" xmlns="http://www.w3.org/2000/svg">
<path d="M35.6225 8.25005C35.7285 8.28292 35.8345 8.31579 35.9437 8.34966C37.3133 8.83129 38.5134 9.5957 39.56 10.5938C39.6417 10.6715 39.7234 10.7492 39.8076 10.8293C41.613 12.683 42.4953 15.2266 42.4892 17.7871C42.4521 20.1897 41.5789 22.3991 39.9776 24.1844C39.7298 24.4289 39.7298 24.4289 39.6538 24.75C39.7468 24.7865 39.8399 24.823 39.9357 24.8606C40.8795 25.2442 41.6653 25.7169 42.4663 26.3438C42.5315 26.3929 42.5968 26.4419 42.664 26.4925C44.3133 27.8013 45.3543 30.0178 45.6538 32.0625C45.7389 33.6149 45.7223 35.1088 45.1337 36.5658C45.0381 36.9805 45.2375 37.3922 45.3725 37.7813C45.9581 39.4692 45.7901 41.3666 45.0374 42.9709C44.6761 43.6354 44.2168 44.1843 43.685 44.7188C43.6228 44.7843 43.5605 44.8498 43.4964 44.9173C42.3479 46.0417 40.6723 46.5964 39.0913 46.6172C37.4282 46.5976 35.959 46.079 34.685 45C34.5941 44.9343 34.5032 44.8686 34.4096 44.8008C33.8157 44.2961 33.373 43.6106 33.0312 42.9175C32.9896 42.8334 32.948 42.7493 32.9051 42.6626C32.8737 42.5986 32.8423 42.5347 32.81 42.4688C32.6891 42.4686 32.5681 42.4684 32.4435 42.4681C29.568 42.4627 26.6924 42.4559 23.8169 42.4473C23.4625 42.4463 23.108 42.4452 22.7535 42.4442C22.6829 42.444 22.6124 42.4438 22.5397 42.4436C21.3994 42.4403 20.2591 42.4379 19.1188 42.436C17.9474 42.4339 16.7761 42.4308 15.6047 42.4267C14.8828 42.4243 14.1609 42.4226 13.439 42.422C12.884 42.4214 12.329 42.4194 11.774 42.4168C11.5474 42.416 11.3208 42.4157 11.0941 42.4158C8.19544 42.4173 5.82924 41.7832 3.6922 39.701C1.81054 37.7236 1.1143 35.3798 1.18 32.6924C1.29149 30.177 2.55695 28.0614 4.36136 26.3731C4.91324 25.8742 5.53848 25.5264 6.19672 25.1895C6.25832 25.1578 6.31993 25.1261 6.3834 25.0935C6.80988 24.8831 7.22043 24.7582 7.685 24.6563C7.68353 24.6035 7.68206 24.5508 7.68054 24.4964C7.61567 21.8101 8.32261 19.5733 10.1729 17.5786C11.8429 15.8596 14.0303 14.933 16.4084 14.8686C18.8543 14.8424 21.0665 15.5476 22.8725 17.25C22.8806 17.1535 22.8887 17.0569 22.897 16.9574C23.1604 14.1606 24.3993 11.7837 26.5288 9.93755C29.0316 7.917 32.5616 7.29632 35.6225 8.25005ZM27.185 11.5313C27.115 11.5918 27.0451 11.6524 26.973 11.7148C25.4301 13.1546 24.5581 15.2922 24.4633 17.3793C24.4847 19.8582 25.4343 21.9037 27.1323 23.7071C27.9843 24.6143 28.6306 25.59 29.1538 26.7188C29.6178 26.7188 30.0819 26.7188 30.56 26.7188C30.56 24.3366 30.56 21.9544 30.56 19.5C30.065 19.4691 29.57 19.4382 29.06 19.4063C27.5044 19.0208 27.5044 19.0208 27.0418 18.3571C26.679 17.715 26.6145 17.1637 26.7675 16.4477C26.9298 15.8843 26.9298 15.8843 27.178 15.7358C27.2422 15.7095 27.3064 15.6833 27.3725 15.6563C27.4634 15.608 27.5543 15.5596 27.6479 15.5098C28.3494 15.1805 29.1588 15.2211 29.8873 15.4629C31.0143 15.9876 31.4272 16.8377 31.9663 17.9063C32.4613 17.9063 32.9563 17.9063 33.4663 17.9063C33.5117 17.8056 33.5571 17.705 33.6039 17.6012C34.0848 16.5681 34.5242 15.88 35.6199 15.4417C36.3998 15.1682 37.1155 15.2631 37.8725 15.5625C38.2749 15.8109 38.4727 16.0507 38.6225 16.5C38.6995 17.2204 38.6994 17.8756 38.2475 18.4688C37.3302 19.4297 36.0335 19.4216 34.7788 19.5C34.7788 21.8822 34.7788 24.2644 34.7788 26.7188C35.2428 26.7188 35.7069 26.7188 36.185 26.7188C36.2515 26.5845 36.2515 26.5845 36.3194 26.4474C36.8252 25.4495 37.4405 24.6516 38.1948 23.8243C39.9277 21.9041 41.0114 19.7167 40.8868 17.0698C40.7183 14.7727 39.5947 12.7529 37.8725 11.25C34.6598 8.71974 30.2526 8.867 27.185 11.5313ZM11.7163 18.375C11.6454 18.4373 11.5746 18.4995 11.5017 18.5636C10.3579 19.6268 9.47823 21.2212 9.27875 22.7813C9.26577 23.3657 9.28794 23.9497 9.31079 24.5336C9.31315 24.651 9.31551 24.7683 9.31794 24.8892C9.32158 24.9953 9.32523 25.1014 9.32899 25.2107C9.26228 25.5949 9.10909 25.7272 8.81 25.9688C8.57107 26.0592 8.35228 26.1293 8.10688 26.1915C6.15911 26.7474 4.65965 28.0406 3.63398 29.7712C3.36103 30.2962 3.16604 30.8399 2.9975 31.4063C2.96318 31.5197 2.92886 31.633 2.8935 31.7498C2.41883 33.7107 2.93682 35.7125 3.935 37.4063C4.13274 37.7112 4.34665 37.9816 4.59125 38.25C4.65832 38.3257 4.72539 38.4014 4.7945 38.4793C6.05018 39.819 7.81522 40.7362 9.66669 40.8065C10.2637 40.8195 10.8606 40.8161 11.4576 40.8132C11.6869 40.8131 11.9161 40.8132 12.1454 40.8134C12.6368 40.8134 13.1282 40.8126 13.6197 40.811C14.3302 40.8087 15.0407 40.808 15.7512 40.8077C16.9043 40.8071 18.0573 40.8052 19.2104 40.8025C20.3298 40.7999 21.4491 40.7979 22.5685 40.7967C22.6722 40.7966 22.6722 40.7966 22.778 40.7965C23.1248 40.7962 23.4716 40.7958 23.8184 40.7955C26.6906 40.7925 29.5628 40.7876 32.435 40.7813C32.4345 40.6985 32.434 40.6157 32.4336 40.5304C32.4332 40.4213 32.4328 40.3123 32.4324 40.1999C32.432 40.0919 32.4315 39.984 32.431 39.8728C32.436 39.4883 32.4733 39.1163 32.5288 38.7364C32.5377 38.6703 32.5466 38.6043 32.5559 38.5362C32.5773 38.3782 32.5998 38.2204 32.6225 38.0625C32.5573 38.0612 32.4921 38.0598 32.4249 38.0584C32.1274 38.0514 31.8301 38.0423 31.5327 38.0333C31.3788 38.0301 31.3788 38.0301 31.2217 38.0268C30.5936 38.0059 30.1274 37.9677 29.6386 37.5363C29.1385 36.9387 29.0307 36.3878 28.9663 35.625C28.9051 35.6124 28.844 35.5997 28.7809 35.5866C28.2402 35.4534 27.9206 35.3074 27.5746 34.867C27.339 34.4769 27.2529 34.1264 27.2202 33.6739C27.2096 33.5367 27.2096 33.5367 27.1989 33.3967C27.1943 33.3277 27.1897 33.2586 27.185 33.1875C27.1115 33.1624 27.038 33.1373 26.9623 33.1114C26.7163 33 26.7163 33 26.5288 32.7188C26.4953 32.4048 26.4947 32.2193 26.6459 31.9395C26.81 31.7813 26.81 31.7813 27.185 31.6875C27.185 31.3782 27.185 31.0688 27.185 30.75C27.0941 30.7075 27.0032 30.665 26.9096 30.6211C26.6225 30.4688 26.6225 30.4688 26.5288 30.2813C26.4988 29.5913 26.4988 29.5913 26.6225 29.3438C26.8083 29.2763 26.9958 29.2135 27.185 29.1563C27.2004 29.0341 27.2004 29.0341 27.2161 28.9095C27.2949 28.3368 27.3835 27.8898 27.6538 27.375C27.5366 26.2397 26.3754 25.236 25.6499 24.4172C24.758 23.4058 24.1177 22.365 23.6166 21.1172C23.3291 20.4025 22.9997 19.8101 22.4975 19.2188C22.4342 19.1394 22.3709 19.06 22.3056 18.9782C21.1721 17.6234 19.4634 16.7349 17.7163 16.5C15.4775 16.3043 13.3965 16.8333 11.7163 18.375ZM28.2163 16.9688C28.2198 17.1912 28.2198 17.1912 28.31 17.4375C28.7863 17.8186 29.1428 17.92 29.7397 17.9122C29.8233 17.9113 29.9069 17.9105 29.9931 17.9096C30.0564 17.9085 30.1198 17.9074 30.185 17.9063C29.958 17.3805 29.71 17.103 29.1948 16.8516C28.8072 16.7324 28.5581 16.7734 28.2163 16.9688ZM35.81 17.0625C35.385 17.4369 35.385 17.4369 35.1538 17.9063C35.826 17.9435 36.4579 17.9413 37.0046 17.4903C37.063 17.4178 37.063 17.4178 37.1225 17.3438C37.1009 17.0949 37.1009 17.0949 37.0288 16.875C36.5156 16.7622 36.247 16.7621 35.81 17.0625ZM32.1538 19.5C32.1538 21.8822 32.1538 24.2644 32.1538 26.7188C32.4941 26.7188 32.8344 26.7188 33.185 26.7188C33.185 24.3366 33.185 21.9544 33.185 19.5C32.8447 19.5 32.5044 19.5 32.1538 19.5ZM38.3413 26.0625C38.2489 26.2106 38.1572 26.3591 38.0659 26.5079C38.0147 26.5905 37.9636 26.6732 37.911 26.7584C37.793 26.9741 37.7101 27.1315 37.685 27.375C37.779 27.5254 37.8732 27.6756 37.9692 27.8248C38.0874 28.0937 38.0867 28.3246 38.0952 28.6172C38.1023 28.9042 38.1023 28.9042 38.1538 29.1563C38.4197 29.3677 38.4197 29.3677 38.7163 29.4375C38.8656 29.7362 38.8592 30.0508 38.81 30.375C38.5995 30.6001 38.4469 30.6523 38.1538 30.75C38.1538 31.0594 38.1538 31.3688 38.1538 31.6875C38.264 31.7282 38.264 31.7282 38.3764 31.7696C38.6225 31.875 38.6225 31.875 38.81 32.0625C38.8635 32.7362 38.8635 32.7362 38.687 32.9883C38.5405 33.086 38.394 33.1836 38.2475 33.2813C38.3519 33.2837 38.4563 33.2861 38.5639 33.2886C40.5984 33.3555 42.2375 33.863 43.7788 35.25C44.3485 34.3954 44.1592 32.796 44.0025 31.8212C43.735 30.5149 43.0809 29.2917 42.185 28.3125C42.1297 28.2486 42.0743 28.1847 42.0173 28.1188C41.1147 27.1375 39.6667 26.2798 38.3413 26.0625ZM28.7788 28.5C28.7788 28.7166 28.7788 28.9332 28.7788 29.1563C31.3466 29.1563 33.9144 29.1563 36.56 29.1563C36.56 28.9088 36.56 28.6613 36.56 28.4063C36.2771 28.2648 35.9847 28.2987 35.6743 28.2989C35.6024 28.2986 35.5304 28.2983 35.4562 28.298C35.2177 28.2971 34.9792 28.2969 34.7407 28.2968C34.5753 28.2965 34.41 28.2962 34.2447 28.2959C33.8979 28.2953 33.5511 28.2951 33.2044 28.2952C32.7592 28.2952 32.3141 28.2939 31.8689 28.2923C31.5274 28.2913 31.1859 28.2911 30.8445 28.2911C30.6803 28.291 30.5161 28.2906 30.352 28.2899C30.1228 28.2889 29.8936 28.2892 29.6644 28.2898C29.5961 28.2892 29.5279 28.2887 29.4575 28.2882C29.0759 28.2793 29.0759 28.2793 28.7788 28.5ZM28.7788 30.75C28.7788 31.0594 28.7788 31.3688 28.7788 31.6875C31.3466 31.6875 33.9144 31.6875 36.56 31.6875C36.56 31.3782 36.56 31.0688 36.56 30.75C33.9922 30.75 31.4244 30.75 28.7788 30.75ZM28.7788 33.2813C28.7788 33.4979 28.7788 33.7144 28.7788 33.9375C28.9574 34.1162 29.285 34.046 29.5283 34.0464C29.6312 34.0471 29.6312 34.0471 29.7362 34.0478C29.9643 34.0492 30.1924 34.0498 30.4205 34.0503C30.5787 34.0509 30.737 34.0514 30.8953 34.052C31.2278 34.0529 31.5603 34.0535 31.8928 34.0538C32.3183 34.0543 32.7437 34.0566 33.1692 34.0593C33.4965 34.061 33.8237 34.0615 34.151 34.0616C34.3078 34.0619 34.4646 34.0627 34.6214 34.0639C34.8413 34.0655 35.0611 34.0653 35.2811 34.0647C35.3455 34.0656 35.41 34.0664 35.4764 34.0673C35.9043 34.0636 36.1923 33.9655 36.56 33.75C36.56 33.5954 36.56 33.4407 36.56 33.2813C33.9922 33.2813 31.4244 33.2813 28.7788 33.2813ZM35.0596 36.7647C34.2152 37.7715 33.8931 39.0042 33.9409 40.3008C34.0873 41.8098 34.791 42.9929 35.9323 43.9684C37.0267 44.7821 38.3019 45.118 39.6538 45C41.0625 44.7847 42.2617 44.0961 43.132 42.9621C43.9999 41.6567 44.3013 40.2076 43.9926 38.6628C43.9053 38.3899 43.8054 38.1348 43.685 37.875C43.6521 37.8016 43.6193 37.7281 43.5854 37.6524C42.936 36.3537 41.8287 35.5478 40.4957 35.0574C38.4119 34.3965 36.4851 35.2309 35.0596 36.7647ZM30.56 35.625C30.508 36.1659 30.508 36.1659 30.7475 36.4688C31.1993 36.6194 31.657 36.6071 32.1303 36.6211C32.2309 36.6278 32.3314 36.6344 32.435 36.6413C33.0138 36.6586 33.0138 36.6586 33.4968 36.3739C33.795 36.0348 33.795 36.0348 33.935 35.625C32.8213 35.625 31.7075 35.625 30.56 35.625Z" fill="white"/>
<path d="M11.5869 31.1115C11.6772 31.111 11.7675 31.1104 11.8605 31.1099C11.9599 31.1098 12.0593 31.1097 12.1617 31.1096C12.2662 31.1091 12.3706 31.1086 12.4782 31.1081C12.8249 31.1068 13.1717 31.1061 13.5184 31.1056C13.7588 31.1051 13.9991 31.1045 14.2394 31.104C14.6794 31.1031 15.1193 31.1025 15.5592 31.1023C16.2066 31.1018 16.8539 31.1002 17.5012 31.0975C18.062 31.0952 18.6227 31.0945 19.1834 31.0943C19.422 31.094 19.6605 31.0933 19.899 31.0921C20.2325 31.0905 20.566 31.0906 20.8995 31.0912C21.0478 31.0899 21.0478 31.0899 21.199 31.0886C22.0438 31.0935 22.0438 31.0935 22.4082 31.4059C22.5535 31.6966 22.5291 31.9289 22.502 32.2497C22.3783 32.5018 22.3783 32.5018 22.127 32.7184C21.7777 32.7903 21.4318 32.7824 21.0763 32.7791C20.9691 32.7799 20.8619 32.7807 20.7515 32.7816C20.3966 32.7836 20.0418 32.7822 19.6869 32.7807C19.4405 32.781 19.1942 32.7814 18.9478 32.782C18.4312 32.7829 17.9146 32.7818 17.398 32.7795C16.8012 32.777 16.2045 32.7778 15.6077 32.7804C15.0332 32.7828 14.4586 32.7825 13.8841 32.7811C13.6398 32.7808 13.3955 32.7812 13.1513 32.7823C12.8099 32.7835 12.4686 32.7817 12.1272 32.7791C12.0261 32.78 11.9249 32.781 11.8206 32.7819C11.1371 32.7722 11.1371 32.7722 10.767 32.4978C10.5957 32.2497 10.5957 32.2497 10.543 31.9684C10.6073 31.6254 10.7295 31.4667 10.9707 31.2184C11.1956 31.106 11.3357 31.1124 11.5869 31.1115Z" fill="white"/>
<path d="M11.6848 34.0184C11.8181 34.0178 11.8181 34.0178 11.954 34.0172C12.1 34.0173 12.1 34.0173 12.2489 34.0173C12.3515 34.017 12.4541 34.0167 12.5599 34.0164C12.9 34.0155 13.2402 34.0153 13.5803 34.0152C13.8163 34.0149 14.0523 34.0146 14.2883 34.0143C14.7834 34.0137 15.2785 34.0135 15.7736 34.0136C16.3454 34.0136 16.9173 34.0127 17.4892 34.0112C18.0397 34.0098 18.5902 34.0095 19.1406 34.0095C19.3747 34.0094 19.6088 34.009 19.8428 34.0083C20.17 34.0074 20.4973 34.0076 20.8245 34.0082C20.9214 34.0077 21.0183 34.0071 21.1182 34.0066C21.2076 34.007 21.297 34.0074 21.389 34.0078C21.4664 34.0077 21.5437 34.0077 21.6234 34.0076C21.8853 34.0351 22.0795 34.0998 22.3145 34.2185C22.5154 34.5198 22.5301 34.7035 22.5452 35.0589C22.4769 35.3605 22.3814 35.4431 22.127 35.6247C21.7775 35.6833 21.4299 35.6769 21.0763 35.6747C20.9691 35.6755 20.8619 35.6763 20.7515 35.6772C20.3966 35.6793 20.0418 35.6787 19.6869 35.6778C19.4405 35.6783 19.1942 35.6789 18.9478 35.6796C18.4312 35.6807 17.9146 35.6802 17.398 35.6788C16.8012 35.6772 16.2045 35.6786 15.6077 35.6817C15.0332 35.6845 14.4586 35.6847 13.8841 35.6838C13.6398 35.6837 13.3955 35.6844 13.1513 35.6857C12.8099 35.6874 12.4686 35.686 12.1272 35.6839C11.9755 35.6855 11.9755 35.6855 11.8207 35.6872C11.137 35.6785 11.137 35.6785 10.767 35.4042C10.5957 35.156 10.5957 35.156 10.543 34.8747C10.6077 34.5295 10.724 34.3714 10.9707 34.1247C11.2391 34.0352 11.4063 34.019 11.6848 34.0184Z" fill="white"/>
<path d="M15.0561 28.2033C15.1294 28.2028 15.2028 28.2024 15.2783 28.2019C15.5216 28.2005 15.7649 28.1999 16.0081 28.1994C16.177 28.1988 16.3458 28.1983 16.5147 28.1977C16.8691 28.1968 17.2235 28.1962 17.578 28.1959C18.0319 28.1954 18.4859 28.1931 18.9398 28.1905C19.2888 28.1887 19.6377 28.1882 19.9867 28.1881C20.1541 28.1878 20.3214 28.187 20.4887 28.1858C20.723 28.1842 20.9573 28.1844 21.1916 28.185C21.2606 28.1841 21.3296 28.1833 21.4008 28.1824C21.8147 28.1857 22.0786 28.2442 22.4077 28.4997C22.5548 28.7939 22.5344 29.0189 22.5014 29.3434C22.2466 29.6837 22.1071 29.7997 21.6834 29.8704C21.546 29.8726 21.4085 29.8723 21.2711 29.8698C21.1581 29.8706 21.1581 29.8706 21.0427 29.8714C20.7944 29.8725 20.5462 29.8702 20.2979 29.8678C20.125 29.8677 19.9521 29.8677 19.7792 29.8678C19.4173 29.8677 19.0553 29.8659 18.6934 29.863C18.2294 29.8592 17.7655 29.8588 17.3016 29.8595C16.9447 29.8598 16.5879 29.8587 16.231 29.8571C16.0599 29.8564 15.8889 29.8561 15.7178 29.8562C15.4788 29.8561 15.2398 29.854 15.0008 29.8515C14.9302 29.8518 14.8595 29.8521 14.7867 29.8524C14.3968 29.846 14.1538 29.8161 13.8764 29.5309C13.7767 29.2826 13.7593 29.0468 13.7827 28.7809C14.1326 28.2138 14.4332 28.2042 15.0561 28.2033Z" fill="white"/>
<path d="M41.3438 37.8749C41.5894 38.0305 41.6201 38.1404 41.707 38.4199C41.7222 38.807 41.6517 38.9567 41.4375 39.2812C41.2588 39.4739 41.0732 39.6567 40.8838 39.8389C40.7069 40.0121 40.544 40.1892 40.3828 40.3769C40.3299 40.4372 40.2769 40.4975 40.2224 40.5596C40.1159 40.6831 40.0101 40.807 39.9066 40.933C38.9654 42.0773 38.9654 42.0773 38.4902 42.1464C37.8761 42.0531 37.3867 41.437 36.975 41.0101C36.8619 40.8936 36.7441 40.7818 36.6255 40.671C36.3865 40.4102 36.3811 40.1905 36.375 39.8437C36.4688 39.58 36.4688 39.58 36.6562 39.3749C37.0276 39.2068 37.2162 39.1547 37.6055 39.2871C37.889 39.4781 38.1128 39.6861 38.3438 39.9374C38.6835 39.797 38.8717 39.6039 39.1113 39.3281C39.1844 39.245 39.2576 39.162 39.3329 39.0765C39.4465 38.9458 39.4465 38.9458 39.5625 38.8124C39.7143 38.6382 39.8666 38.4643 40.0195 38.291C40.087 38.2135 40.1544 38.136 40.2239 38.0562C40.5753 37.7069 40.8866 37.777 41.3438 37.8749Z" fill="white"/>
<path d="M19.7815 9.18804C20.155 9.35621 20.5039 9.56288 20.857 9.77018C21.0237 9.86773 21.1917 9.96283 21.3599 10.0578C21.5191 10.1501 21.5191 10.1501 21.6814 10.2442C21.7779 10.3001 21.8744 10.3559 21.9738 10.4135C22.2401 10.6098 22.3639 10.7632 22.5003 11.063C22.4891 11.3864 22.4699 11.6193 22.2952 11.8951C22.0488 12.048 21.852 12.0719 21.5628 12.0943C21.2735 11.9929 21.2735 11.9929 20.9651 11.8306C20.9097 11.8016 20.8544 11.7726 20.7973 11.7426C20.3319 11.4936 19.8794 11.2224 19.43 10.9459C19.3651 10.9061 19.3003 10.8664 19.2335 10.8254C18.9426 10.6419 18.756 10.5091 18.5628 10.2193C18.4999 9.64271 18.4999 9.64271 18.7386 9.34039C19.1171 9.05088 19.3151 9.0936 19.7815 9.18804Z" fill="white"/>
<path d="M40.6888 3.46867C40.9583 3.65617 40.9583 3.65617 41.1575 3.93742C41.2809 4.69858 40.913 5.20246 40.5247 5.83586C40.4652 5.93664 40.4058 6.03743 40.3445 6.14128C39.8271 7.00584 39.8271 7.00584 39.47 7.31242C39.1473 7.39309 38.9181 7.4372 38.597 7.34171C38.3983 7.18718 38.3311 7.08308 38.2513 6.84367C38.2103 6.37452 38.3085 6.11088 38.5424 5.70622C38.6037 5.59975 38.6651 5.49328 38.7282 5.38358C38.7606 5.32892 38.793 5.27425 38.8263 5.21792C38.9247 5.05139 39.0207 4.88365 39.1164 4.71562C39.9268 3.32579 39.9268 3.32579 40.6888 3.46867Z" fill="white"/>
<path d="M25.4046 3.56214C25.7051 3.81816 25.8886 4.09574 26.0795 4.43885C26.1329 4.53408 26.1862 4.62931 26.2412 4.72743C26.3231 4.87571 26.3231 4.87571 26.4066 5.02699C26.4622 5.12657 26.5179 5.22615 26.5752 5.32875C27.1508 6.36042 27.1508 6.36042 27.0921 6.93714C26.8624 7.25465 26.7299 7.38592 26.3421 7.45863C25.8994 7.37563 25.6663 7.13569 25.4098 6.77349C25.0707 6.19352 25.0707 6.19352 24.9559 5.99209C24.8598 5.82408 24.7614 5.65754 24.6628 5.49098C24.6015 5.38451 24.5402 5.27804 24.477 5.16835C24.4211 5.07156 24.3651 4.97478 24.3075 4.87506C24.1468 4.50303 24.1279 4.20477 24.2562 3.81996C24.5634 3.3898 24.9235 3.44187 25.4046 3.56214Z" fill="white"/>
<path d="M46.4989 9.18707C46.779 9.41297 46.7815 9.57139 46.8329 9.93121C46.845 10.1154 46.845 10.1154 46.7802 10.3121C46.3169 10.7722 45.7457 11.0835 45.1864 11.4136C45.0953 11.4689 45.0042 11.5241 44.9103 11.581C44.7772 11.6598 44.7772 11.6598 44.6415 11.7403C44.5616 11.7879 44.4817 11.8355 44.3994 11.8845C44.1247 12.0139 43.895 12.0676 43.5927 12.0933C43.0666 11.8849 43.0666 11.8849 42.9364 11.6246C42.898 11.3364 42.8749 11.1516 42.9364 10.8746C43.353 10.3528 44.0287 10.0387 44.6005 9.72027C44.6891 9.66994 44.7777 9.6196 44.8689 9.56774C45.8223 9.03 45.8223 9.03 46.4989 9.18707Z" fill="white"/>
<path d="M32.998 1.40568C33.3403 1.66426 33.455 1.80353 33.5259 2.23151C33.5284 2.36942 33.5282 2.50739 33.5257 2.6453C33.526 2.71866 33.5262 2.79202 33.5264 2.8676C33.5263 3.02212 33.5251 3.17664 33.5227 3.33115C33.5195 3.56742 33.5208 3.80337 33.5226 4.03965C33.522 4.1901 33.5211 4.34055 33.5199 4.491C33.5203 4.56142 33.5208 4.63184 33.5213 4.70439C33.514 5.0282 33.492 5.2156 33.2961 5.47847C33.0045 5.6868 32.792 5.71818 32.4355 5.71818C32.1728 5.55258 32.0122 5.43407 31.873 5.15568C31.8604 4.92178 31.8531 4.69063 31.8507 4.45658C31.8499 4.38721 31.8492 4.31783 31.8484 4.24636C31.8471 4.09939 31.8461 3.95241 31.8453 3.80543C31.8437 3.58133 31.8396 3.35735 31.8355 3.13328C31.8345 2.99039 31.8337 2.84751 31.8331 2.70463C31.8315 2.63791 31.8298 2.5712 31.8281 2.50246C31.8296 2.16292 31.8646 1.98119 32.0513 1.69363C32.3609 1.38802 32.5666 1.35492 32.998 1.40568Z" fill="white"/>
<path d="M11.7026 28.1956C11.7999 28.1931 11.8971 28.1907 11.9974 28.1882C12.322 28.2232 12.4923 28.3046 12.7514 28.5002C12.9069 28.8112 12.9612 28.9757 12.8745 29.3147C12.7476 29.5382 12.677 29.6613 12.4702 29.8127C12.2283 29.8408 12.0141 29.8521 11.7729 29.8479C11.6493 29.8486 11.5256 29.8494 11.3983 29.8501C11.0562 29.8119 10.92 29.7813 10.6889 29.5315C10.5892 29.2832 10.5718 29.0474 10.5952 28.7815C10.9059 28.2779 11.1317 28.204 11.7026 28.1956Z" fill="white"/>
</svg>
