<svg width="300" height="300" viewBox="0 0 300 300" fill="none" xmlns="http://www.w3.org/2000/svg">
<path d="M209.63 36.6667H93.3333C91.4924 36.6667 90 38.1591 90 40V260C90 261.841 91.4924 263.333 93.3333 263.333H209.63C211.471 263.333 212.963 261.841 212.963 260V40C212.963 38.1591 211.471 36.6667 209.63 36.6667Z" stroke="black" stroke-width="6"/>
<path d="M209.63 224.63H93.3333C91.4924 224.63 90 226.122 90 227.963V260C90 261.841 91.4924 263.333 93.3333 263.333H209.63C211.471 263.333 212.963 261.841 212.963 260V227.963C212.963 226.122 211.471 224.63 209.63 224.63Z" stroke="black" stroke-width="6"/>
<path d="M209.63 36.6667H93.3333C91.4924 36.6667 90 38.1591 90 40V65.5556C90 67.3965 91.4924 68.8889 93.3333 68.8889H209.63C211.471 68.8889 212.963 67.3965 212.963 65.5556V40C212.963 38.1591 211.471 36.6667 209.63 36.6667Z" stroke="black" stroke-width="6"/>
<path d="M132.037 52.7783H170.926" stroke="black" stroke-width="6" stroke-linecap="round"/>
<path d="M180.133 135.877C178.708 128.597 174.769 122.034 168.989 117.313C163.21 112.592 155.95 110.006 148.455 110V116.377C154.451 116.385 160.258 118.454 164.882 122.231C169.506 126.007 172.659 131.256 173.803 137.079L174.637 141.371L178.985 142.152C183.339 142.931 187.24 145.293 189.924 148.773C192.608 152.252 193.88 156.599 193.49 160.959C193.101 165.319 191.078 169.377 187.818 172.337C184.559 175.297 180.299 176.945 175.875 176.957H148.455V183.333H175.875C181.909 183.32 187.719 181.076 192.166 177.041C196.612 173.006 199.373 167.473 199.906 161.527C200.439 155.581 198.706 149.653 195.046 144.907C191.387 140.161 186.07 136.94 180.133 135.877ZM122.671 170.58H142.009V176.957H122.671V170.58ZM109.78 170.58H116.226V176.957H109.78V170.58ZM116.226 157.826H142.009V164.203H116.226V157.826ZM103.334 157.826H109.78V164.203H103.334V157.826ZM122.671 145.072H142.009V151.449H122.671V145.072ZM109.78 145.072H116.226V151.449H109.78V145.072ZM129.117 132.319H142.009V138.696H129.117V132.319ZM116.226 132.319H122.671V138.696H116.226V132.319ZM135.563 119.565H142.009V125.942H135.563V119.565Z" fill="black"/>
</svg>
