<svg width="252" height="214" viewBox="0 0 252 214" fill="none" xmlns="http://www.w3.org/2000/svg">
<path d="M248.054 6.01053H251.054V0.0105324H248.054V6.01053ZM6.0926 3.01053V0.0105324C6.0361 0.0105324 5.97961 0.0121286 5.9232 0.0153191L6.0926 3.01053ZM4.12676 3.65319L2.49607 1.13509C2.36956 1.21702 2.24939 1.30837 2.13661 1.40836L4.12676 3.65319ZM3 5.36719L0.149912 4.43071C0.0506028 4.73295 0 5.04906 0 5.36719H3ZM3 159.689H0C0 159.891 0.0202942 160.092 0.0605751 160.289L3 159.689ZM5.52413 165.162L3.15918 167.007C3.23887 167.11 3.32509 167.206 3.4173 167.297L5.52413 165.162ZM10.4865 168L9.71351 170.899C9.96568 170.966 10.2256 171 10.4865 171L10.4865 168ZM242.443 168V171C242.575 171 242.706 170.991 242.837 170.974L242.443 168ZM247.178 165.983L249.05 168.328C249.289 168.136 249.498 167.909 249.669 167.655L247.178 165.983ZM249 160.676L251.993 160.887C251.998 160.817 252 160.747 252 160.676H249ZM249 6.28522H252C252 6.23591 251.999 6.1866 251.996 6.13735L249 6.28522ZM247.874 3.84429L249.93 1.66002C249.761 1.50069 249.574 1.36156 249.372 1.24545L247.874 3.84429ZM244.749 3L244.765 4.21173e-05C244.76 1.40392e-05 244.755 0 244.749 0L244.749 3ZM215.813 0H212.813V6H215.813V0ZM86 208H83V214H86V208ZM169 214H172V208H169V214ZM104 207V210H110V207H104ZM110 169V166H104V169H110ZM145 211V214H151V211H145ZM151 169V166H145V169H151ZM145.702 95.7046L148.406 97.0028L151.003 91.5936L148.298 90.2954L145.702 95.7046ZM122 81.0002L120.702 78.2956C119.662 78.7949 119 79.8464 119 81.0002C119 82.154 119.662 83.2055 120.702 83.7048L122 81.0002ZM148.298 71.7046L151.003 70.4064L148.406 64.9972L145.702 66.2954L148.298 71.7046ZM186.658 90.3167L183.975 91.6583L186.658 97.0249L189.342 95.6833L186.658 90.3167ZM212 81.0002L213.342 83.6835C214.358 83.1753 215 82.1365 215 81.0002C215 79.8639 214.358 78.8251 213.342 78.3169L212 81.0002ZM189.342 66.3167L186.658 64.9751L183.975 70.3416L186.658 71.6833L189.342 66.3167ZM157.115 105.176L156.291 108.06L162.06 109.709L162.885 106.824L157.115 105.176ZM176.885 57.8242L177.709 54.9396L171.94 53.2913L171.115 56.1758L176.885 57.8242ZM100 36V33H97V36H100ZM232 36H235V33H232V36ZM232 127V130H235V127H232ZM100 127H97V130H100V127ZM248.054 0.0105324H6.0926V6.01053H248.054V0.0105324ZM5.9232 0.0153191C4.70043 0.0844767 3.51995 0.47204 2.49607 1.13509L5.75745 6.1713C5.91053 6.07217 6.0845 6.01579 6.26201 6.00575L5.9232 0.0153191ZM2.13661 1.40836C1.21866 2.22217 0.532943 3.26499 0.149912 4.43071L5.85009 6.30367C5.90132 6.14774 5.99322 6.0077 6.11692 5.89803L2.13661 1.40836ZM0 5.36719V159.689H6V5.36719H0ZM0.0605751 160.289C0.560417 162.739 1.6216 165.037 3.15918 167.007L7.88908 163.316C6.92071 162.075 6.25356 160.629 5.93942 159.09L0.0605751 160.289ZM3.4173 167.297C5.16737 169.024 7.33722 170.265 9.71351 170.899L11.2596 165.101C9.88968 164.736 8.63923 164.021 7.63095 163.026L3.4173 167.297ZM10.4865 171H242.443V165H10.4865V171ZM242.837 170.974C245.11 170.673 247.258 169.758 249.05 168.328L245.306 163.639C244.367 164.388 243.241 164.868 242.05 165.026L242.837 170.974ZM249.669 167.655C251.02 165.64 251.822 163.307 251.993 160.887L246.007 160.465C245.91 161.84 245.455 163.166 244.686 164.312L249.669 167.655ZM252 160.676V6.28522H246V160.676H252ZM251.996 6.13735C251.912 4.43488 251.173 2.83031 249.93 1.66002L245.817 6.02855C245.929 6.13413 245.996 6.27843 246.004 6.4331L251.996 6.13735ZM249.372 1.24545C247.97 0.436729 246.381 0.00860584 244.765 4.21173e-05L244.733 5.99996C245.311 6.00302 245.877 6.15616 246.375 6.44313L249.372 1.24545ZM244.749 0H215.813V6H244.749V0ZM86 214H169V208H86V214ZM110 207V169H104V207H110ZM151 211V169H145V211H151ZM148.298 90.2954L123.298 78.2956L120.702 83.7048L145.702 95.7046L148.298 90.2954ZM123.298 83.7047L148.298 71.7046L145.702 66.2954L120.702 78.2956L123.298 83.7047ZM189.342 95.6833L213.342 83.6835L210.658 78.3169L186.658 90.3167L189.342 95.6833ZM213.342 78.3169L189.342 66.3167L186.658 71.6833L210.658 83.6834L213.342 78.3169ZM162.885 106.824L176.885 57.8242L171.115 56.1758L157.115 105.176L162.885 106.824ZM2 39H86V33H2V39ZM2 57H61V51H2V57ZM2 112H61V106H2V112ZM2 94H40V88H2V94ZM2 130H26V124H2V130ZM2 76H79V70H2V76ZM100 39H232V33H100V39ZM229 36V127H235V36H229ZM232 124H100V130H232V124ZM103 127V36H97V127H103Z" fill="black"/>
</svg>
