<svg width="286" height="286" viewBox="0 0 286 286" fill="none" xmlns="http://www.w3.org/2000/svg">
<path d="M208.065 200.968L206.721 203.098L208.487 204.893L234.834 231.672L226.398 240.191L199.738 213.701L197.945 211.919L195.806 213.266C189.9 216.982 182.884 219.142 175.439 219.142C154.052 219.142 136.909 201.875 136.909 180.202C136.909 158.529 154.052 141.262 175.439 141.262C196.826 141.262 213.97 158.529 213.97 180.202C213.97 187.842 211.821 195.021 208.065 200.968ZM208.005 101.54L208.473 103.917L210.889 104.096C233.341 105.753 251.044 124.412 251.044 147.443C251.044 159.307 246.358 170.079 238.821 177.883C238.547 170.272 236.93 162.764 234.039 155.715C230.854 147.95 226.185 140.893 220.297 134.948C214.409 129.002 207.418 124.284 199.721 121.064C192.023 117.845 183.773 116.187 175.439 116.187C158.608 116.187 142.473 122.939 130.581 134.948C118.691 146.955 112.016 163.234 112.016 180.202C112.016 183.837 112.335 187.458 112.927 191.063H87.3884C73.4923 191.063 60.159 185.489 50.3234 175.557C40.4866 165.624 34.9551 152.145 34.9551 138.084C34.9551 110.687 55.427 88.2764 81.7135 85.3662L83.4044 85.179L84.1862 83.668C89.8048 72.8092 98.2583 63.7157 108.627 57.3709C118.995 51.0262 130.882 47.6711 143.001 47.6666C158.326 47.659 173.183 53.0199 185.038 62.8415C196.894 72.6633 205.014 86.3392 208.005 101.54ZM175.439 153.625C168.441 153.625 161.736 156.433 156.797 161.42C151.859 166.407 149.09 173.163 149.09 180.202C149.09 187.24 151.859 193.997 156.797 198.983C161.736 203.971 168.441 206.778 175.439 206.778C182.438 206.778 189.143 203.971 194.082 198.983C199.02 193.997 201.788 187.24 201.788 180.202C201.788 173.163 199.02 166.407 194.082 161.42C189.143 156.433 182.438 153.625 175.439 153.625Z" stroke="black" stroke-width="6"/>
</svg>
