<?xml version="1.0" encoding="UTF-8"?>
<svg version="1.1" xmlns="http://www.w3.org/2000/svg" width="2105" height="2500">
<path d="M0 0 C3.18841029 0.59820984 5.05717706 1.59032524 7.5390625 3.66015625 C8.19696777 4.2025293 8.85487305 4.74490234 9.53271484 5.30371094 C10.22316895 5.88411133 10.91362305 6.46451172 11.625 7.0625 C13.06741098 8.25686961 14.51011861 9.45088106 15.953125 10.64453125 C16.64986328 11.22412598 17.34660156 11.8037207 18.06445312 12.40087891 C20.47127429 14.38936007 22.91937618 16.3222571 25.375 18.25 C29.61413792 21.62850757 33.63929453 25.20808943 37.64453125 28.859375 C39.67741834 30.70684121 41.73381416 32.51707324 43.8125 34.3125 C53.67589593 42.95026685 63.09462967 51.99294138 72.375 61.25 C72.84899231 61.72140411 73.32298462 62.19280823 73.81134033 62.67849731 C79.4340589 68.27699576 84.84090615 73.97327965 90 80 C91.45445517 81.60768373 92.91220895 83.21239715 94.375 84.8125 C99.10571502 90.06175883 103.57083694 95.49558996 108 101 C108.91374442 102.12135302 109.82782139 103.24243511 110.7421875 104.36328125 C122.62713994 118.9972158 133.7823834 134.15580378 144 150 C144.45552246 150.69996094 144.91104492 151.39992187 145.38037109 152.12109375 C156.62910904 169.43737887 167.06101597 187.30401079 175.99902344 205.92871094 C177.08838691 208.18289622 178.20395446 210.42313119 179.3203125 212.6640625 C227.35694376 310.06056953 230.74631085 411.96345897 190.5 555.4375 C167.02533834 633.44928048 143.77056081 717.56423366 184.06689453 794.22363281 C184.89867078 795.80709802 185.71415928 797.39909465 186.52734375 798.9921875 C204.19103079 832.75380539 233.00394389 859.01020026 269.4375 870.6796875 C293.40592691 877.83895241 320.62265115 878.92662992 345 873 C345.72364746 872.83371094 346.44729492 872.66742187 347.19287109 872.49609375 C378.22634274 865.24308588 410.84634829 847.0428813 428.46484375 819.69140625 C433.65344809 810.59484546 438.05006906 801.2487117 441.875 791.5 C442.16117188 790.77103516 442.44734375 790.04207031 442.7421875 789.29101562 C448.63537013 773.80724491 446.60238846 760.76070191 442.15625 745.21484375 C441.19276 741.83278177 440.4910402 738.48750144 440 735 C464.33104382 746.8254918 487.9004218 759.9325457 511 774 C512.02577148 774.62374512 513.05154297 775.24749023 514.10839844 775.89013672 C529.74464859 785.43613524 544.94020627 795.57215758 560 806 C560.79486816 806.5475293 561.58973633 807.09505859 562.40869141 807.65917969 C579.83664168 819.67925436 596.56737769 832.65951072 613 846 C614.42119141 847.14662109 614.42119141 847.14662109 615.87109375 848.31640625 C627.34995375 857.62944361 638.4550782 867.29975779 649.25073242 877.39428711 C650.48484098 878.52711782 651.73395571 879.64370568 652.9934082 880.74829102 C661.10516249 887.88874331 668.69500983 895.54398903 676.32348633 903.19311523 C678.6891419 905.56414563 681.06011514 907.92976422 683.43164062 910.29492188 C684.95865417 911.82259604 686.48535757 913.35058028 688.01171875 914.87890625 C689.05884285 915.922994 689.05884285 915.922994 690.12712097 916.98817444 C694.07485685 920.95454111 697.84949736 925.02006326 701.50010681 929.26199341 C703.5713598 931.66206521 705.72393225 933.98398727 707.875 936.3125 C712.79624205 941.71476571 717.4139906 947.31305671 722 953 C722.97407866 954.18326549 723.94941 955.36550053 724.92578125 956.546875 C743.58044503 979.18324674 760.64439288 1003.01084181 776 1028 C776.38430176 1028.62084473 776.76860352 1029.24168945 777.16455078 1029.88134766 C779.84277236 1034.21620113 782.43899405 1038.59499204 785 1043 C785.49693359 1043.85174805 785.99386719 1044.70349609 786.50585938 1045.58105469 C825.70296882 1113.1340181 851.4100462 1188.69011368 863 1316 C863.02191406 1316.92989746 863.04382812 1317.85979492 863.06640625 1318.81787109 C864.89658077 1408.81670312 842.83438788 1496.3455692 736 1677 C735.25492188 1677.928125 734.50984375 1678.85625 733.7421875 1679.8125 C724.37185724 1691.36588211 714.62839018 1702.54571401 704.47363281 1713.41308594 C703.04131999 1714.95550366 701.62380596 1716.51008355 700.2109375 1718.0703125 C694.21985466 1724.66944244 688.04195782 1731.06178992 681.75 1737.375 C681.00540527 1738.12418701 680.26081055 1738.87337402 679.49365234 1739.64526367 C675.43067007 1743.69695737 671.27607105 1747.57120092 666.92919922 1751.31591797 C663.76405963 1754.07890618 660.73651909 1756.98534578 657.6875 1759.875 C652.54285081 1764.71304824 647.3073618 1769.33418248 641.78515625 1773.7421875 C639.17827245 1775.8554818 636.64396426 1778.02939254 634.11523438 1780.234375 C626.33252943 1787.01257818 618.22508991 1793.288451 609.98388672 1799.49658203 C608.18768579 1800.857769 606.40479293 1802.23356558 604.62890625 1803.62109375 C579.47535397 1823.24777312 552.4358254 1840.76139693 525 1857 C524.03964844 1857.57411621 523.07929687 1858.14823242 522.08984375 1858.73974609 C507.01625758 1867.74864665 491.66067014 1876.05945812 476 1884 C474.90413574 1884.55929199 474.90413574 1884.55929199 473.78613281 1885.12988281 C469.21180723 1887.46362965 464.61112375 1889.73998727 460 1892 C459.0605957 1892.46341797 458.12119141 1892.92683594 457.15332031 1893.40429688 C396.2235924 1923.405709 331.94868704 1945.94496688 266 1962 C265.20948242 1962.2021109 264.41896484 1962.4042218 263.60449219 1962.61245728 C262.81461914 1962.80520233 262.02474609 1962.99794739 261.2109375 1963.1965332 C260.14431885 1963.46334648 260.14431885 1963.46334648 259.05615234 1963.73554993 C256.76719107 1964.0299425 255.18491199 1963.69217161 253 1963 C253.85940186 1962.6282666 254.71880371 1962.2565332 255.60424805 1961.87353516 C311.74919755 1937.55067805 366.23218615 1909.00242545 411.59375 1867.1953125 C412.92650765 1865.9793875 414.26733828 1864.77156973 415.63891602 1863.59960938 C421.47584644 1858.60361176 426.93419385 1853.25195411 432.36303711 1847.82226562 C433.92608734 1846.26139673 435.49697365 1844.70872112 437.06835938 1843.15625 C443.49929933 1836.76063827 449.34059544 1830.09877809 455 1823 C455.92233011 1821.92092327 456.85178802 1820.8478313 457.79296875 1819.78515625 C509.16077955 1761.37836322 536.18888254 1682.20171003 536.25 1605 C536.25067474 1604.22198029 536.25134949 1603.44396057 536.25204468 1602.6423645 C536.12345422 1508.13318667 494.59842151 1420.53726929 435 1349 C434.5246582 1348.42556152 434.04931641 1347.85112305 433.55957031 1347.25927734 C427.15442119 1339.52513822 420.49201269 1332.0707685 413.62841797 1324.74169922 C411.8837132 1322.87562368 410.14649027 1321.00277168 408.41015625 1319.12890625 C396.88259955 1306.6910428 396.88259955 1306.6910428 384.453125 1295.171875 C381.80064726 1292.82350299 379.22485192 1290.40524396 376.64819336 1287.97436523 C370.83642684 1282.49259068 364.97584924 1277.1899881 358.73046875 1272.19921875 C356.22358083 1270.18008012 353.76852885 1268.11534613 351.32275391 1266.0234375 C344.04431873 1259.79906057 336.57887433 1253.85308031 329 1248 C328.22092285 1247.39494629 327.4418457 1246.78989258 326.63916016 1246.16650391 C315.71033042 1237.68836864 304.63593435 1229.55185811 293.1640625 1221.82421875 C289.80338674 1219.55895788 286.50996913 1217.22141524 283.25 1214.8125 C276.65868069 1209.96948794 269.83562473 1205.48696674 263 1201 C262.13761719 1200.4332959 261.27523438 1199.8665918 260.38671875 1199.28271484 C247.34241915 1190.71954264 234.23597515 1182.26394733 221 1174 C220.20513184 1173.5035498 219.41026367 1173.00709961 218.59130859 1172.49560547 C204.84351237 1163.92203452 190.99655749 1155.51279412 177.14057922 1147.11581421 C152.98568875 1132.47749171 128.89770443 1117.7334616 104.96484375 1102.734375 C100.87898313 1100.17371346 96.78737718 1097.62258224 92.69140625 1095.078125 C82.40330859 1088.68221649 72.17772762 1082.23344216 62.14746094 1075.44042969 C59.56053353 1073.70522372 56.95639218 1071.99727425 54.3515625 1070.2890625 C42.84867693 1062.72543378 31.64428927 1054.96708526 20.8359375 1046.43896484 C19.09165656 1045.07183827 17.33222866 1043.72848471 15.5625 1042.39453125 C7.42022915 1036.2509497 -0.34937317 1029.74227102 -8 1023 C-8.93972656 1022.17371094 -9.87945313 1021.34742188 -10.84765625 1020.49609375 C-24.42858073 1008.29045277 -37.85754682 995.495801 -49 981 C-49.91926038 979.88867562 -50.84275412 978.7808449 -51.76953125 977.67578125 C-76.96260037 947.41626971 -96.26705846 908.41485389 -92.65234375 868.125 C-91.77017866 859.90971536 -90.26032289 851.95633656 -88 844 C-88.59167969 844.60328125 -89.18335938 845.2065625 -89.79296875 845.828125 C-96.47960764 852.59112029 -96.47960764 852.59112029 -99.625 855.0625 C-102.44099328 857.35975768 -104.65157 859.93321445 -107.00390625 862.6953125 C-109.14899895 865.17203401 -111.38387858 867.54745479 -113.625 869.9375 C-156.41152255 916.95065472 -184.64187543 982.14744868 -181.875 1046.25 C-179.12867302 1091.4180173 -161.4058245 1133.41001335 -137 1171 C-136.52884766 1171.72687012 -136.05769531 1172.45374023 -135.57226562 1173.20263672 C-116.75947628 1201.93676935 -93.90791443 1228.00508867 -70.84765625 1253.3671875 C-68.55171661 1255.89977914 -66.27330566 1258.44707048 -64 1261 C-63.5369043 1261.51546387 -63.07380859 1262.03092773 -62.59667969 1262.56201172 C-54.8638198 1271.20086674 -48.04872283 1280.10340332 -42 1290 C-41.57976563 1290.68545898 -41.15953125 1291.37091797 -40.7265625 1292.07714844 C-18.84427565 1328.29896417 -10.1844026 1372.42390217 -20.26782227 1413.81298828 C-28.40355617 1444.97281293 -48.47824559 1469.85332718 -75.8203125 1486.3359375 C-108.45277282 1505.16879959 -148.30011471 1509.95925958 -184.59912109 1500.40820312 C-206.26503301 1494.22807394 -225.45759166 1483.199317 -242 1468 C-242.87140625 1467.21109375 -243.7428125 1466.4221875 -244.640625 1465.609375 C-265.92422547 1445.39664751 -280.6470592 1416.07536794 -282.17700195 1386.58862305 C-282.6184393 1360.82169631 -279.98320605 1336.86531508 -273.39550781 1311.85571289 C-272.89577594 1309.8272153 -272.89577594 1309.8272153 -273 1307 C-283.20636844 1314.42815336 -293.364069 1321.83762966 -303 1330 C-304.06605475 1330.89234718 -305.13248115 1331.78425048 -306.19921875 1332.67578125 C-312.06089038 1337.58940458 -317.83608664 1342.57941115 -323.48828125 1347.734375 C-324.83026604 1348.9448745 -326.17792237 1350.14996274 -327.55981445 1351.31469727 C-334.26005079 1357.00635377 -340.40746379 1363.25679264 -346.60913086 1369.47875977 C-348.5579687 1371.43295624 -350.51209272 1373.38175147 -352.46679688 1375.33007812 C-358.52217878 1381.38193351 -364.50303334 1387.42815815 -370 1394 C-370.87636768 1395.0101886 -371.75391852 1396.01935234 -372.6328125 1397.02734375 C-380.10824911 1405.75649778 -387.13010092 1414.78831927 -394 1424 C-394.54446777 1424.72880371 -395.08893555 1425.45760742 -395.64990234 1426.20849609 C-451.02147991 1500.6680469 -484.56410141 1595.26777323 -471.22265625 1688.609375 C-466.80616085 1717.28580524 -457.45324912 1744.86859201 -445 1771 C-444.41412109 1772.2375 -444.41412109 1772.2375 -443.81640625 1773.5 C-427.30744191 1808.14176123 -404.81360266 1838.74868781 -379 1867 C-378.09226883 1868.00113974 -377.18472519 1869.00244953 -376.27734375 1870.00390625 C-369.22056695 1877.77305827 -362.08075715 1885.32432089 -354.109375 1892.16796875 C-351.82370454 1894.15311587 -349.60298622 1896.2003983 -347.375 1898.25 C-341.76200349 1903.3068307 -335.87279977 1907.95675868 -329.8828125 1912.55419922 C-328.63024713 1913.51603689 -327.38022738 1914.48119898 -326.1328125 1915.44970703 C-304.16966336 1932.48595679 -280.46623623 1946.94189196 -255.19799805 1958.52392578 C-254.27156494 1958.9517334 -253.34513184 1959.37954102 -252.390625 1959.8203125 C-251.56594727 1960.19430176 -250.74126953 1960.56829102 -249.89160156 1960.95361328 C-248 1962 -248 1962 -247 1964 C-301.16396305 1955.33813691 -355.49596478 1934.09945644 -405 1911 C-406.74023438 1910.18861572 -406.74023438 1910.18861572 -408.515625 1909.36083984 C-454.56212652 1887.76408379 -498.64677072 1862.05501604 -539 1831 C-539.63341309 1830.5153125 -540.26682617 1830.030625 -540.91943359 1829.53125 C-548.43840268 1823.76219996 -555.7335006 1817.75853814 -562.93359375 1811.59765625 C-565.65770986 1809.27347258 -568.44669993 1807.04076416 -571.25 1804.8125 C-584.69377434 1793.80086147 -596.83553776 1781.2599304 -609.125 1769 C-609.75960144 1768.36807739 -610.39420288 1767.73615479 -611.04803467 1767.08508301 C-617.58470101 1760.56934786 -624.05906617 1754.07225012 -630 1747 C-630.9723729 1745.8814323 -631.94630554 1744.76421838 -632.921875 1743.6484375 C-639.87365225 1735.62351829 -646.5392573 1727.42418018 -653 1719 C-653.55526367 1718.28134766 -654.11052734 1717.56269531 -654.68261719 1716.82226562 C-673.60079517 1692.28369539 -690.29472169 1666.25989603 -705 1639 C-705.45987305 1638.15405273 -705.91974609 1637.30810547 -706.39355469 1636.43652344 C-719.71891476 1611.8337767 -730.87024469 1586.44321414 -740 1560 C-740.22000671 1559.36660706 -740.44001343 1558.73321411 -740.66668701 1558.08062744 C-751.41820156 1527.0898398 -759.59218305 1495.36805704 -765 1463 C-765.21108398 1461.73752441 -765.42216797 1460.47504883 -765.63964844 1459.17431641 C-779.03723777 1377.91977766 -776.03134789 1294.47642343 -657.47753906 956.51025391 C-655.62607469 953.36472241 -653.84258354 950.18642659 -652.0625 947 C-636.11115409 919.07678441 -617.93656909 891.98810125 -599 866 C-598.4440918 865.2359082 -597.88818359 864.47181641 -597.31542969 863.68457031 C-590.46217391 854.28421893 -583.52605935 844.9537176 -576.37939453 835.77392578 C-574.77888366 833.71564047 -573.18442765 831.65272389 -571.58984375 829.58984375 C-565.17075066 821.29660704 -558.68787659 813.07855036 -552 805 C-550.5411501 803.20875392 -549.08282976 801.41707644 -547.625 799.625 C-543.83193 794.98608861 -539.97267593 790.40749334 -536.09082031 785.84301758 C-533.14065907 782.36795885 -530.24350085 778.85564826 -527.375 775.3125 C-523.75165505 770.86096192 -519.98036128 766.57617545 -516.1171875 762.33203125 C-514.21948831 760.24176111 -512.35266585 758.13013885 -510.5 756 C-506.38916189 751.28295535 -502.19182811 746.64499871 -498 742 C-497.278125 741.195625 -496.55625 740.39125 -495.8125 739.5625 C-490.85432054 734.03767145 -485.85552797 728.55131993 -480.83203125 723.0859375 C-478.92743522 721.01334701 -477.02954887 718.93490265 -475.13671875 716.8515625 C-470.51822399 711.77550788 -465.84687498 706.79064065 -460.94836426 701.9810791 C-459.14390684 700.14632317 -457.46663899 698.26127271 -455.79882812 696.30273438 C-451.88372473 691.79997681 -447.70969751 687.60035129 -443.46875 683.40625 C-442.27662903 682.21980896 -442.27662903 682.21980896 -441.0604248 681.00939941 C-437.69464452 677.65981427 -434.32288952 674.3162673 -430.95166016 670.97216797 C-428.47609773 668.51479061 -426.00361917 666.05433942 -423.53125 663.59375 C-422.78000854 662.85080688 -422.02876709 662.10786377 -421.25476074 661.34240723 C-417.17104404 657.27748731 -413.30658736 653.10490385 -409.54644775 648.74005127 C-407.62224735 646.57495559 -405.54927279 644.6737114 -403.3515625 642.7890625 C-399.37466853 639.28163161 -395.5719488 635.65742285 -391.8359375 631.8984375 C-391.30816711 631.36744446 -390.78039673 630.83645142 -390.2366333 630.28936768 C-388.61416512 628.6531357 -386.99414013 627.01452499 -385.375 625.375 C-372.98010903 612.82508062 -372.98010903 612.82508062 -366.65869141 607.43603516 C-364.31632643 605.4081001 -362.16049767 603.2188895 -360 601 C-356.43640017 597.39280873 -352.78075144 594.00522111 -348.9296875 590.7109375 C-346.86691479 588.88200137 -344.9340928 586.96419542 -343 585 C-339.93882747 581.89753998 -336.76857732 579.01893576 -333.46484375 576.1796875 C-330.08015024 573.18656709 -326.79449566 570.09173886 -323.5 567 C-319.0467074 562.82432513 -314.58037735 558.68658572 -309.953125 554.703125 C-307.43387724 552.50634095 -304.96897004 550.25310381 -302.5 548 C-298.71337002 544.54671847 -294.8952368 541.13900949 -291.02734375 537.77734375 C-288.66510827 535.70640513 -286.33204147 533.60487152 -284 531.5 C-280.37976277 528.23295665 -276.73016435 525.00479224 -273.05078125 521.8046875 C-270.73911203 519.77041859 -268.4646857 517.6977769 -266.1875 515.625 C-262.81059018 512.57141133 -259.36782868 509.65570795 -255.8125 506.8125 C-250.47700557 502.50335245 -245.52165077 497.85874635 -240.54370117 493.14916992 C-237.00851616 489.82185791 -233.43140254 486.64466888 -229.625 483.625 C-223.84514674 479.01498211 -218.53074028 473.94826783 -213.18798828 468.84619141 C-209.16538163 465.00914157 -205.07825389 461.28051016 -200.87768555 457.63916016 C-198.11793774 455.22998752 -195.4321872 452.74480971 -192.75 450.25 C-191.62523615 449.20677659 -190.50023052 448.1638138 -189.375 447.12109375 C-188.81425781 446.60144043 -188.25351562 446.08178711 -187.67578125 445.54638672 C-186.06104341 444.05632997 -184.43876449 442.57511552 -182.8125 441.09765625 C-177.51431773 436.28173583 -172.31176517 431.41133477 -167.328125 426.265625 C-165.38514136 424.37480199 -163.40777975 422.61315645 -161.3527832 420.84838867 C-157.07369196 417.11439612 -153.0360005 413.18073797 -149.02734375 409.16015625 C-148.30059952 408.43436874 -147.57385529 407.70858124 -146.8250885 406.96080017 C-145.30037704 405.43676444 -143.7769085 403.91148431 -142.25463867 402.38500977 C-139.94366109 400.06867537 -137.62739229 397.75772922 -135.31054688 395.44726562 C-133.8199918 393.95604966 -132.329747 392.46452347 -130.83984375 390.97265625 C-129.81611916 389.951968 -129.81611916 389.951968 -128.77171326 388.91065979 C-124.86008211 384.98018553 -121.13433701 380.94166778 -117.51069641 376.74427795 C-115.84005785 374.81532784 -114.11597192 372.94886967 -112.3515625 371.10546875 C-111.74352783 370.46593262 -111.13549316 369.82639648 -110.5090332 369.16748047 C-109.88730225 368.51408691 -109.26557129 367.86069336 -108.625 367.1875 C-103.60156497 361.86842418 -98.78215548 356.47707193 -94.22265625 350.75 C-92.12432769 348.15382547 -89.96254529 345.63385586 -87.76879883 343.11889648 C-80.44436305 334.70892304 -73.67188198 325.93266529 -67 317 C-66.4033252 316.20303711 -65.80665039 315.40607422 -65.19189453 314.58496094 C-58.1955598 305.22317228 -51.34754215 295.81786838 -45 286 C-44.18973978 284.77802356 -43.3784759 283.55671223 -42.56640625 282.3359375 C1.18195016 216.18383028 37.54404327 134.21639046 21.1875 53.375 C17.10564982 34.47677304 9.6076774 16.74323322 0 0 Z " fill="#EE4222" transform="translate(1008,0)"/>
<path d="M0 0 C5.65276478 3.10902063 13.38835995 0.22492487 19.27734375 -1.296875 C29.16954298 -3.4475512 39.06604293 -3.07745675 49.140625 -2.94140625 C51.10025006 -2.92632223 53.05988643 -2.91264045 55.01953125 -2.90039062 C59.76851424 -2.86770249 64.51694093 -2.81612863 69.265625 -2.75390625 C67.91673574 1.31781235 66.56572415 5.3888192 65.21289062 9.45922852 C64.75464948 10.83892584 64.29695077 12.21880347 63.83984375 13.59887695 C61.10308234 21.86017538 58.30217087 30.08886638 55.265625 38.24609375 C46.05019689 38.6884343 38.60396226 38.57830249 30.265625 34.24609375 C29.62496094 33.93800781 28.98429687 33.62992188 28.32421875 33.3125 C26.9582299 32.65010634 25.6090378 31.95315312 24.265625 31.24609375 C24.554375 31.84550781 24.843125 32.44492188 25.140625 33.0625 C31.04209314 47.46781981 29.7994622 65.57995642 25.265625 80.24609375 C24.93691406 81.32761719 24.60820313 82.40914062 24.26953125 83.5234375 C17.46740018 103.31787428 2.79700131 116.78733116 -15.41796875 126.19140625 C-33.57150303 135.02640793 -53.59696393 137.4648243 -73.546875 137.49609375 C-74.2284668 137.49843018 -74.91005859 137.5007666 -75.61230469 137.50317383 C-85.83923211 137.51635904 -95.70112326 136.79667939 -105.765625 134.90234375 C-112.71313991 133.61260087 -112.71313991 133.61260087 -119.171875 135.74609375 C-120.86279971 138.45157328 -120.91018825 139.32608424 -120.83203125 142.40234375 C-120.79980469 143.67078125 -120.76757812 144.93921875 -120.734375 146.24609375 C-110.12111721 148.83701951 -99.49922008 151.14716887 -88.7520752 153.10893059 C-86.40121668 153.53863779 -84.05157933 153.97456025 -81.70214844 154.41200256 C-75.03609223 155.65237125 -68.36853129 156.88443807 -61.69921875 158.10717773 C-57.58030342 158.86277662 -53.46311448 159.62726903 -49.34680176 160.39691353 C-47.80404497 160.6836133 -46.26068795 160.96710687 -44.7166748 161.24696159 C-24.97026365 164.82774046 -0.5846963 169.31445893 11.96875 186.58984375 C17.52587616 195.3301781 19.82046774 203.41901633 19.703125 213.74609375 C19.69410156 214.70588135 19.68507813 215.66566895 19.67578125 216.65454102 C19.25410394 234.28153103 14.03188844 251.27937535 1.49609375 264.203125 C-24.57635481 288.08384408 -60.60945665 292.46497673 -94.609375 292.49609375 C-95.76173645 292.49760437 -95.76173645 292.49760437 -96.93737793 292.49914551 C-125.18755809 292.47420637 -157.69409319 288.8871114 -179.109375 268.43359375 C-192.10588322 254.60397603 -194.71268383 239.8451985 -194.18359375 221.44140625 C-193.08582333 201.32484014 -183.1265184 184.71163634 -168.484375 171.24609375 C-165.39985622 168.50429928 -162.3249048 166.28327378 -158.734375 164.24609375 C-159.45187272 161.01357773 -160.57219172 158.06877582 -161.796875 154.99609375 C-164.84267529 146.60346886 -164.32109708 139.46619702 -160.734375 131.24609375 C-156.73526336 124.61342078 -151.26902007 119.38514592 -144.734375 115.24609375 C-144.074375 115.24609375 -143.414375 115.24609375 -142.734375 115.24609375 C-143.34925781 114.14652344 -143.96414063 113.04695313 -144.59765625 111.9140625 C-150.64049185 100.93342384 -154.99860583 90.91511922 -155.734375 78.24609375 C-155.775625 77.58738281 -155.816875 76.92867187 -155.859375 76.25 C-156.49731444 55.15812728 -150.39190388 34.41535208 -136.734375 18.24609375 C-136.28707031 17.65441406 -135.83976562 17.06273438 -135.37890625 16.453125 C-125.00821286 3.16282292 -108.32131005 -4.31119966 -92.609375 -9.12890625 C-91.44825195 -9.48698364 -91.44825195 -9.48698364 -90.26367188 -9.85229492 C-61.35342216 -18.15828416 -25.88724509 -16.60481864 0 0 Z M-93.9453125 38.01171875 C-102.99198745 49.31018615 -103.55169536 62.40613562 -102.734375 76.24609375 C-101.82900464 82.78050593 -98.18875553 86.42306766 -93.203125 90.55078125 C-83.57565201 97.16205226 -70.38702924 97.32000213 -59.19921875 95.75 C-47.58191636 93.51249998 -38.18281669 89.75156611 -30.734375 80.24609375 C-23.7525004 69.07154127 -22.47384327 57.13495367 -23.734375 44.24609375 C-25.50788348 36.90280999 -29.69955449 31.98765599 -36.109375 28.05859375 C-42.93347025 24.1086864 -49.86663932 23.90741708 -57.546875 23.93359375 C-58.48080078 23.91748047 -59.41472656 23.90136719 -60.37695312 23.88476562 C-73.44629085 23.87569599 -84.92597355 28.45337548 -93.9453125 38.01171875 Z M-127.43359375 186.72265625 C-137.94644406 198.08231769 -142.22661146 210.00314151 -141.93359375 225.359375 C-141.56031419 232.64198609 -139.9811552 236.3493808 -134.796875 241.49609375 C-119.01785217 254.47561253 -92.133526 252.59184951 -72.96264648 250.73046875 C-59.42889589 249.12706253 -46.64290769 245.04919755 -37.94921875 234.01953125 C-33.59080178 227.65708332 -31.96848014 220.3873667 -33.1015625 212.78125 C-34.34134295 208.18181758 -36.08543622 204.86861396 -40.2906189 202.28582764 C-43.45520635 200.93940489 -46.68878476 200.10182041 -50.02197266 199.29785156 C-50.72634272 199.12526951 -51.43071278 198.95268745 -52.15642738 198.77487564 C-59.53792834 196.99934997 -66.97580594 195.5847666 -74.4453125 194.23046875 C-75.87504205 193.96753702 -77.30469756 193.70420243 -78.73428345 193.44049072 C-81.68980928 192.89634774 -84.64590622 192.35547775 -87.60253906 191.81738281 C-91.39400864 191.12729392 -95.18431167 190.43102991 -98.97426414 189.7326622 C-101.90782339 189.19237388 -104.84174535 188.6540796 -107.77580643 188.11652374 C-109.17534327 187.8600944 -110.57481639 187.60331697 -111.97422409 187.34618378 C-113.91395313 186.99031979 -115.85418141 186.63718027 -117.79443359 186.28417969 C-119.44745987 185.98250885 -119.44745987 185.98250885 -121.13388062 185.67474365 C-124.62478976 184.93250183 -124.62478976 184.93250183 -127.43359375 186.72265625 Z " fill="#EE4222" transform="translate(1178.734375,2201.75390625)"/>
<path d="M0 0 C17.49 0 34.98 0 53 0 C50.70264995 20.67615044 50.70264995 20.67615044 49.20297241 30.79446411 C48.94927067 32.53262557 48.94927067 32.53262557 48.69044363 34.30590141 C48.13299768 38.11989911 47.57115883 41.93323547 47.00927734 45.74658203 C46.60443045 48.50773256 46.20052855 51.26902113 45.79658508 54.03030396 C44.93159179 59.93983527 44.06434734 65.84903253 43.19550705 71.75799942 C41.93936297 80.30103566 40.68671766 88.84458212 39.43488498 97.38825105 C37.40304012 111.25479795 35.36842462 125.12093681 33.33203125 138.98681641 C31.35562502 152.44428313 29.38054574 165.90194352 27.40722656 179.35986328 C27.28528519 180.19149302 27.16334382 181.02312276 27.03770725 181.8799534 C26.4258801 186.05261878 25.81407878 190.22528795 25.2022903 194.39795899 C20.13886367 228.93256063 15.07075254 263.46647333 10 298 C-2.87 298 -15.74 298 -29 298 C-32 281 -32 281 -32 275 C-32.57105469 275.38671875 -33.14210938 275.7734375 -33.73046875 276.171875 C-44.98736193 283.40205759 -56.90912324 286.12070103 -70.140625 286.23828125 C-71.02167908 286.246353 -71.90273315 286.25442474 -72.81048584 286.26274109 C-74.67637191 286.27653618 -76.54228273 286.28727867 -78.40820312 286.29516602 C-80.28132742 286.30659143 -82.15442166 286.32688997 -84.02734375 286.35668945 C-107.64332947 286.73144667 -130.94421794 282.62180703 -148.75 265.75 C-167.61629001 245.83932608 -169.74574418 220.03604556 -169.24153137 193.99557495 C-168.20298693 157.48924719 -156.70150684 115.64959763 -129.75 89.6875 C-106.17986952 69.20907916 -74.1240239 64.96126793 -44 67 C-32.65533754 68.56161346 -22.10559879 72.72041427 -12 78 C-12.02271973 76.83126343 -12.04543945 75.66252686 -12.06884766 74.45837402 C-12.06586525 70.43287096 -11.58928035 66.63836199 -10.8984375 62.66601562 C-10.72287323 61.6401384 -10.72287323 61.6401384 -10.54376221 60.59353638 C-10.16049015 58.36329653 -9.76784391 56.13482185 -9.375 53.90625 C-9.10537301 52.34836757 -8.83633933 50.79038234 -8.56787109 49.2322998 C-7.86357255 45.15427085 -7.15127965 41.07767858 -6.43725586 37.00134277 C-5.58011687 32.09803875 -4.73301787 27.1929913 -3.88421631 22.28823853 C-2.59712233 14.85746924 -1.29737462 7.42901418 0 0 Z M-94.203125 117.71484375 C-114.2268892 143.17984822 -119.50763533 186.78910259 -116.71875 218.1640625 C-115.48892971 226.74915415 -112.0600943 234.37709016 -105.02734375 239.71484375 C-93.02339045 247.32428621 -76.91085203 246.77910361 -63.36157227 243.81445312 C-56.01441802 241.9580258 -48.76339366 239.43157436 -42 236 C-40.50241653 235.31043968 -40.50241653 235.31043968 -38.97457886 234.60694885 C-34.51709079 230.70036443 -34.49375646 226.64919631 -33.75830078 220.94506836 C-33.50827049 219.25429924 -33.50827049 219.25429924 -33.25318909 217.52937317 C-32.7085671 213.80268887 -32.20179581 210.0718865 -31.6953125 206.33984375 C-31.32499496 203.75167579 -30.95239527 201.16383343 -30.5776062 198.5763092 C-29.79585957 193.15403755 -29.03315068 187.72938254 -28.28417969 182.30249023 C-27.22782072 174.64834366 -26.13924393 166.9990483 -25.0431788 159.35049999 C-23.49617604 148.54515154 -21.96567884 137.73746725 -20.46533203 126.92553711 C-20.31579575 125.85792145 -20.16625946 124.79030579 -20.01219177 123.69033813 C-19.87782211 122.71595291 -19.74345245 121.74156769 -19.60501099 120.73765564 C-19.42865458 119.46646079 -19.42865458 119.46646079 -19.24873543 118.16958523 C-18.94304978 115.86722008 -18.94304978 115.86722008 -19 113 C-42.25359334 103.14047642 -74.8811451 96.3568701 -94.203125 117.71484375 Z " fill="#EE4222" transform="translate(615,2120)"/>
<path d="M0 0 C0.73099915 -0.0080365 1.46199829 -0.016073 2.21514893 -0.02435303 C27.06817325 -0.23158367 51.51677575 5.49887232 70.0078125 23.07421875 C70.76835937 23.83347656 71.52890625 24.59273437 72.3125 25.375 C73.36050781 26.40560547 73.36050781 26.40560547 74.4296875 27.45703125 C90.95678226 44.78797303 95.75050565 67.87394314 95.4375 91.125 C95.39625 95.4975 95.355 99.87 95.3125 104.375 C82.7725 104.375 70.2325 104.375 57.3125 104.375 C57.18875 101.4875 57.065 98.6 56.9375 95.625 C56.09199559 78.88743466 54.272641 65.15885592 41.3125 53.375 C26.25336965 42.07374438 3.84616942 41.47280624 -14.109375 43.87109375 C-33.40446471 47.41386437 -49.77305994 56.66773843 -61.0402832 72.78295898 C-84.47087365 107.49678801 -93.43535225 164.5888625 -86.4375 205.75 C-83.9717338 218.30379355 -78.96018989 228.84659561 -68.8203125 237.03125 C-52.45387258 247.34270665 -30.7168117 247.47486733 -12.37109375 243.34765625 C11.28740653 237.10060793 27.71272281 219.86677875 41.3125 200.375 C48.04426316 203.91309895 54.24774457 207.96585915 60.4375 212.375 C61.29214844 212.97828125 62.14679688 213.5815625 63.02734375 214.203125 C67.80136275 217.57647176 72.55838338 220.97368079 77.3125 224.375 C73.53629056 235.07096495 65.04498472 244.31375317 57.3125 252.375 C56.17554688 253.60669922 56.17554688 253.60669922 55.015625 254.86328125 C30.1979049 280.93810809 -4.69864061 290.2193945 -39.6875 291.375 C-66.54905661 291.80746717 -94.74868655 285.10743665 -114.83203125 266.3515625 C-136.13484358 243.65846136 -142.35253977 213.25176023 -142.125 183.0625 C-142.12195862 182.19748871 -142.11891724 181.33247742 -142.11578369 180.44125366 C-142.03346857 164.47815629 -140.60618734 149.09134815 -137.6875 133.375 C-137.46787598 132.15748047 -137.24825195 130.93996094 -137.02197266 129.68554688 C-132.99767227 107.73274619 -127.47695718 86.50069393 -117.6875 66.375 C-117.38231445 65.74013672 -117.07712891 65.10527344 -116.76269531 64.45117188 C-104.2792575 38.81161358 -83.3473564 18.26952787 -56.24804688 8.49511719 C-50.13968944 6.46290464 -43.95674945 4.82855107 -37.6875 3.375 C-36.92083008 3.19565918 -36.15416016 3.01631836 -35.36425781 2.83154297 C-23.68332812 0.25764883 -11.90790306 0.07280711 0 0 Z " fill="#EE4322" transform="translate(141.6875,2115.625)"/>
<path d="M0 0 C0.69899414 0.0012085 1.39798828 0.00241699 2.11816406 0.00366211 C23.01930081 0.10144242 42.55272012 4.05907363 58.15234375 18.96191406 C76.10256719 37.19725845 82.227098 61.77948843 82.5625 86.6875 C82.19061733 102.97596095 80.09998119 119.18766462 78.25 135.375 C31.72 135.375 -14.81 135.375 -62.75 135.375 C-63.66900284 154.66001616 -63.66900284 154.66001616 -55.75 171.375 C-43.7599773 180.74711381 -27.37610078 180.54140985 -12.87109375 178.94921875 C5.5026868 175.82625084 18.57900635 166.32145799 29.25 151.375 C36.85203886 153.79688849 44.27631011 156.62803783 51.69140625 159.56347656 C53.07620717 160.10938243 54.46297681 160.65031772 55.8515625 161.18652344 C57.87420956 161.96774246 59.89064081 162.76332642 61.90625 163.5625 C63.10056641 164.03042969 64.29488281 164.49835937 65.52539062 164.98046875 C68.25 166.375 68.25 166.375 69.25 169.375 C68.04771145 171.69801481 66.82017415 173.77277303 65.375 175.9375 C64.75806274 176.87468872 64.75806274 176.87468872 64.12866211 177.83081055 C60.32041351 183.48983748 56.07176848 188.54501726 51.25 193.375 C50.50363281 194.13296875 49.75726562 194.8909375 48.98828125 195.671875 C25.96871085 217.74022348 -5.42926028 222.87820552 -36.12890625 222.59375 C-57.83031195 222.09722134 -79.83217457 215.81449345 -95.75 200.375 C-115.25310047 178.87982007 -116.7636613 151.04419923 -115.75 123.375 C-114.35799118 101.71480472 -109.55559743 79.2629668 -100.75 59.375 C-100.45899414 58.71209961 -100.16798828 58.04919922 -99.86816406 57.36621094 C-95.37283226 47.32425809 -89.9005537 38.72693913 -82.75 30.375 C-82.12738281 29.63894531 -81.50476563 28.90289063 -80.86328125 28.14453125 C-60.53091421 6.0479675 -28.69835539 -0.09246487 0 0 Z M-38.484375 63.44140625 C-44.36255987 71.05264217 -54.75 84.57948812 -54.75 94.375 C-27.03 94.375 0.69 94.375 29.25 94.375 C30.82673075 81.76115397 31.59232749 68.46444634 24.25 57.375 C21.89573501 54.60377725 21.89573501 54.60377725 19.25 52.375 C18.5075 51.67375 17.765 50.9725 17 50.25 C-2.32727906 37.07230973 -24.90508165 47.84421091 -38.484375 63.44140625 Z " fill="#EE4222" transform="translate(778.75,2183.625)"/>
<path d="M0 0 C2.47040688 2.15741415 4.76229615 4.39122201 7.02734375 6.76171875 C7.64738281 7.36242188 8.26742188 7.963125 8.90625 8.58203125 C24.91487306 25.12785643 29.43458594 50.69116096 29.33984375 72.76171875 C29.33782959 74.04739746 29.33581543 75.33307617 29.33374023 76.65771484 C29.22545453 91.24711884 28.56937952 106.59357567 25.02734375 120.76171875 C-21.50265625 120.76171875 -68.03265625 120.76171875 -115.97265625 120.76171875 C-116.6284188 139.84700046 -116.6284188 139.84700046 -108.78515625 156.38671875 C-97.80377995 165.65988096 -82.71840082 165.78833206 -68.97265625 164.76171875 C-52.33499272 162.46860014 -37.83066763 155.25015483 -27.43359375 141.765625 C-26.24824112 140.12003769 -25.10553011 138.44386478 -23.97265625 136.76171875 C-16.04882928 138.90048695 -8.46605533 141.78747732 -0.88305664 144.89526367 C1.11216835 145.70831601 3.11530279 146.49946923 5.11914062 147.29101562 C6.39246689 147.80987516 7.66527434 148.33001015 8.9375 148.8515625 C10.08355713 149.31425537 11.22961426 149.77694824 12.41040039 150.25366211 C15.02734375 151.76171875 15.02734375 151.76171875 15.99145508 153.77709961 C16.1417717 162.0895063 4.44579666 172.09303533 -0.97265625 177.76171875 C-1.89111328 178.79232422 -1.89111328 178.79232422 -2.828125 179.84375 C-16.30226505 194.40961142 -35.94639216 201.89822227 -54.97265625 205.76171875 C-56.0296875 205.98730469 -57.08671875 206.21289062 -58.17578125 206.4453125 C-84.36079398 211.12120763 -116.4050285 209.08701324 -138.97265625 193.76171875 C-156.89241197 179.45299693 -165.74982026 161.07512637 -168.52734375 138.48046875 C-172.73668995 98.49167988 -163.0801537 50.4322924 -137.9921875 18.21875 C-121.07194452 -1.660224 -96.66520426 -11.334755 -71.11523438 -13.99072266 C-46.2374242 -15.950488 -20.73069641 -15.60931543 0 0 Z M-90.78125 47.9375 C-96.34703195 55.1105131 -107.97265625 70.09667242 -107.97265625 79.76171875 C-80.25265625 79.76171875 -52.53265625 79.76171875 -23.97265625 79.76171875 C-20.61509157 73.0465894 -22.3635724 59.78726453 -24.09765625 52.63671875 C-26.87377859 44.34690898 -31.20726238 38.68741534 -38.53125 33.953125 C-57.57874688 24.65794652 -77.85019252 32.89249574 -90.78125 47.9375 Z " fill="#EE4322" transform="translate(1909.97265625,2198.23828125)"/>
<path d="M0 0 C0.92095459 0.00563965 1.84190918 0.0112793 2.79077148 0.01708984 C18.52431521 0.29585274 32.00278295 4.88027116 43.5 15.8984375 C57.78678534 31.2269676 62.49938132 51.30797701 62.14514732 71.82845497 C61.89729485 78.79962027 61.2677294 85.68250609 60.47119141 92.61083984 C60.33913614 93.77690954 60.20708088 94.94297924 60.07102394 96.14438438 C58.56073938 109.27127121 56.81745014 122.3664967 55.04595518 135.4602704 C54.67429008 138.21013019 54.30459445 140.96025351 53.93484461 143.71037138 C53.06454606 150.18311316 52.19107423 156.65542083 51.31542969 163.12744141 C50.4139241 169.79102503 49.51794459 176.45533616 48.62450922 183.1200062 C47.85128628 188.88653871 47.07480055 194.65262528 46.29563773 200.41835821 C45.83267727 203.84443966 45.37094814 207.27067538 44.91236496 210.69734573 C44.40517887 214.48589468 43.89118322 218.27350181 43.37646484 222.06103516 C43.2258107 223.19321472 43.07515656 224.32539429 42.91993713 225.49188232 C42.77985733 226.51442108 42.63977753 227.53695984 42.49545288 228.59048462 C42.37490728 229.48366205 42.25436169 230.37683949 42.13016319 231.2970829 C41.75 233.3125 41.75 233.3125 40.75 234.3125 C39.12325222 234.40590434 37.49245949 234.42995171 35.86303711 234.42602539 C34.82203354 234.42594986 33.78102997 234.42587433 32.70848083 234.42579651 C31.5762056 234.42063522 30.44393036 234.41547394 29.27734375 234.41015625 C27.54817467 234.40803383 27.54817467 234.40803383 25.78407288 234.40586853 C22.08518936 234.40025005 18.38636536 234.38769442 14.6875 234.375 C12.18684983 234.36998738 9.68619871 234.36542406 7.18554688 234.36132812 C1.04034412 234.35027462 -5.10482369 234.33351852 -11.25 234.3125 C-10.73181276 220.47872513 -8.66843249 206.84211065 -6.74874306 193.14756227 C-6.27389158 189.75054149 -5.80564043 186.35261125 -5.33679199 182.95475769 C-4.34893981 175.80261404 -3.35475728 168.65136165 -2.35906982 161.50030518 C-0.85969245 150.73147555 0.63483363 139.96197501 2.1230216 129.19159335 C2.58866423 125.82311285 3.05581599 122.4548556 3.52650452 119.08707619 C4.05108007 115.33162874 4.57177905 111.57566093 5.09179688 107.81958008 C5.24559311 106.72679749 5.39938934 105.63401489 5.55784607 104.50811768 C9.81218324 78.88802039 9.81218324 78.88802039 3.75 54.5 C-0.51859956 49.19509303 -6.21790037 47.66842753 -12.77734375 46.8984375 C-27.27110347 46.33005477 -39.55456101 52.6981718 -51.77930737 59.89364243 C-53.54975843 60.91036861 -55.35915937 61.86039741 -57.18963337 62.76460648 C-61.94425507 65.39847081 -65.4614066 67.5092962 -67.68819237 72.60108185 C-68.60028273 76.71501108 -69.16067425 80.7531311 -69.6159668 84.93652344 C-69.82824795 86.51802606 -70.04527345 88.09889795 -70.26664734 89.67915344 C-70.8512132 93.94841944 -71.36961484 98.22339123 -71.87623572 102.50250912 C-72.41872887 106.98606579 -73.02278758 111.46131258 -73.62031555 115.93780518 C-74.74180673 124.40977144 -75.80892384 132.88764602 -76.85610372 141.36908269 C-78.04919395 151.01210153 -79.30020293 160.64731255 -80.55732477 170.28216124 C-82.08942293 182.0246301 -83.61477912 193.76778329 -85.09025574 205.51751709 C-85.1946187 206.34696697 -85.29898166 207.17641685 -85.40650713 208.03100157 C-85.89509047 211.9157537 -86.38120699 215.80078328 -86.86273193 219.68641663 C-87.03349346 221.04866662 -87.20434081 222.41090586 -87.37528992 223.77313232 C-87.52101787 224.94632397 -87.66674582 226.11951561 -87.81688976 227.32825851 C-88.25 230.3125 -88.25 230.3125 -89.25 234.3125 C-106.74 234.3125 -124.23 234.3125 -142.25 234.3125 C-138.94052165 208.25054644 -135.50626476 182.2115533 -131.92966366 156.18520308 C-131.27245352 151.40060311 -130.61699578 146.61576297 -129.96124268 141.83096313 C-128.86665021 133.84612641 -127.77067312 125.86148072 -126.67382812 117.87695312 C-125.40787389 108.66124255 -124.14431037 99.44520642 -122.8819263 90.22900617 C-121.6568798 81.28585529 -120.43010071 72.34294289 -119.2025528 63.40013504 C-118.68365252 59.61963378 -118.16537328 55.83904816 -117.6476059 52.05839157 C-117.04156209 47.6336844 -116.43400738 43.20918729 -115.82527542 38.78484917 C-115.6026212 37.16475739 -115.38049108 35.54459348 -115.1589241 33.92435265 C-114.85662318 31.71437405 -114.55242387 29.5046648 -114.2477417 27.29501343 C-114.07817333 26.05976614 -113.90860497 24.82451885 -113.73389816 23.55183983 C-113.32160343 20.79183194 -112.79728809 18.04894044 -112.25 15.3125 C-97.73 15.3125 -83.21 15.3125 -68.25 15.3125 C-66.93 19.6025 -65.61 23.8925 -64.25 28.3125 C-63.53199219 27.71824219 -62.81398438 27.12398437 -62.07421875 26.51171875 C-44.23282548 12.09208345 -23.50473331 -0.15146197 0 0 Z " fill="#EE4222" transform="translate(1371.25,2183.6875)"/>
<path d="M0 0 C0.80695313 0.63421875 1.61390625 1.2684375 2.4453125 1.921875 C14.16664286 11.74341787 20.72757967 23.57702103 25 38 C25.3403125 39.13824219 25.680625 40.27648438 26.03125 41.44921875 C31.00007288 62.35968168 29.09185601 87.11357012 25 108 C24.74259033 109.31484375 24.74259033 109.31484375 24.47998047 110.65625 C19.94947235 132.94035786 12.40252847 155.1051291 -2 173 C-2.66515625 173.84175781 -3.3303125 174.68351562 -4.015625 175.55078125 C-20.36546998 195.01920777 -45.2946311 204.13170536 -69.99511719 206.75683594 C-98.30863676 209.04805023 -126.10300126 206.59067254 -148.6328125 187.8046875 C-161.5060259 175.62968228 -168.12733809 159.21530485 -171 142 C-171.18304688 140.97261719 -171.36609375 139.94523437 -171.5546875 138.88671875 C-175.89059184 101.04264138 -168.0684284 51.79520692 -144.1875 20.75 C-136.42564384 11.63891494 -128.5003849 3.85065434 -118 -2 C-117.22398437 -2.44859375 -116.44796875 -2.8971875 -115.6484375 -3.359375 C-84.29434942 -20.34720867 -28.85385075 -23.30084551 0 0 Z M-97 39 C-115.01298734 61.19457369 -119.13192608 94.15714616 -119.25 121.875 C-119.270625 123.07769531 -119.29125 124.28039063 -119.3125 125.51953125 C-119.36330028 137.2162949 -117.58875161 147.91185646 -109.40234375 156.71875 C-100.66847942 164.8358722 -90.01497103 165.26975605 -78.5625 165.1484375 C-65.60757577 164.60864899 -55.72577269 160.559119 -46.3125 151.54296875 C-27.60740104 130.97367918 -23.2711582 92.9200965 -23.8125 66.08984375 C-24.60111031 53.09420294 -27.01758723 41.98417149 -37 33 C-53.39765012 21.72243247 -83.32877335 24.47432168 -97 39 Z " fill="#EE4222" transform="translate(407,2199)"/>
<path d="M0 0 C-0.6283281 10.15819033 -1.87844728 20.16699815 -3.28515625 30.23828125 C-3.50826737 31.85633264 -3.73103436 33.47443151 -3.95347595 35.09257507 C-4.53366468 39.3064163 -5.11845736 43.5196055 -5.70428467 47.73266602 C-6.40954307 52.81187235 -7.10895069 57.89188738 -7.80936432 62.97176361 C-8.86848272 70.64846357 -9.93492486 78.32411364 -11 86 C12.43 86.33 35.86 86.66 60 87 C57.75 93.75 57.75 93.75 56.30419922 96.89404297 C55.97959717 97.60391357 55.65499512 98.31378418 55.32055664 99.04516602 C54.98531982 99.77018311 54.65008301 100.4952002 54.3046875 101.2421875 C53.99217041 101.92418213 53.67965332 102.60617676 53.35766602 103.30883789 C52.20015858 105.83244555 51.03726829 108.35358145 49.875 110.875 C47.27625 116.52625 44.6775 122.1775 42 128 C22.53 128 3.06 128 -17 128 C-18.60480305 139.06402415 -18.60480305 139.06402415 -20.20874023 150.12817383 C-21.85040128 161.39441804 -23.55732282 172.64929136 -25.31161499 183.89844513 C-26.00943269 188.37971357 -26.7017129 192.86184242 -27.39447403 197.34389496 C-28.08499539 201.80583147 -28.78531781 206.26609951 -29.4922533 210.72546291 C-29.93806138 213.55257516 -30.37471636 216.38104906 -30.80908012 219.20993996 C-31.11251549 221.16732018 -31.42707708 223.12296546 -31.74195862 225.07853699 C-33.56025421 236.13889205 -33.56025421 236.13889205 -29.875 246.375 C-24.4047603 251.36956668 -18.33798821 251.40122362 -11.234375 251.2421875 C0.14090423 250.39041538 9.13355444 246.33842882 19 241 C20.33029127 240.3272836 21.66211858 239.65749185 23 239 C29.6921482 246.17133906 35.78925052 253.68192835 41.78369141 261.43603516 C43.49960477 263.6424063 45.2474953 265.82264568 47 268 C43.36247256 277.06367334 31.4465592 281.70865438 22.97265625 285.3984375 C-1.78524756 295.65537111 -31.69422321 299.47645859 -57.29296875 290.12109375 C-69.50334784 285.06427009 -78.58571578 277.48199868 -84.1875 265.44921875 C-86.92257965 258.27913148 -87.31687935 251.56691488 -87.296875 243.96289062 C-87.29430191 242.90994057 -87.29172882 241.85699051 -87.28907776 240.77213287 C-87.14791218 229.71601032 -85.66740168 218.99523232 -83.9375 208.09375 C-83.62206585 206.02078387 -83.30821531 203.94757623 -82.99584961 201.87414551 C-82.18291097 196.50601109 -81.3490017 191.14135639 -80.51013184 185.77722168 C-79.65249647 180.26754551 -78.81549307 174.75473699 -77.9765625 169.2421875 C-76.33747696 158.49169368 -74.67614016 147.74477448 -73 137 C-71.35 136.67 -69.7 136.34 -68 136 C-67.34 133.36 -66.68 130.72 -66 128 C-77.88 128 -89.76 128 -102 128 C-98.96798389 102.50350093 -98.96798389 102.50350093 -97.875 94 C-97.72804688 92.845 -97.58109375 91.69 -97.4296875 90.5 C-97 88 -97 88 -96 87 C-93.70848583 86.91209025 -91.41427476 86.89305962 -89.12109375 86.90234375 C-88.09110008 86.90446617 -88.09110008 86.90446617 -87.04029846 86.90663147 C-84.83932199 86.91224521 -82.63844591 86.92479993 -80.4375 86.9375 C-78.94856917 86.94251324 -77.45963676 86.94707645 -75.97070312 86.95117188 C-72.31376925 86.96221907 -68.65689442 86.97949287 -65 87 C-64.80422363 85.50110229 -64.80422363 85.50110229 -64.60449219 83.97192383 C-63.41689821 74.88629925 -62.22248591 65.80159911 -61.01982117 56.71795654 C-60.38174601 51.89714294 -59.74853183 47.07574561 -59.1211853 42.25352478 C-58.69082511 38.9598985 -58.25102402 35.66754907 -57.8125 32.375 C-57.65813477 31.17464111 -57.50376953 29.97428223 -57.34472656 28.73754883 C-57.19616211 27.63564209 -57.04759766 26.53373535 -56.89453125 25.3984375 C-56.76925049 24.44630371 -56.64396973 23.49416992 -56.51489258 22.51318359 C-55.98102797 19.90739778 -55.44478801 18.23040817 -54 16 C-51.84352112 14.91156006 -51.84352112 14.91156006 -49.13891602 14.07714844 C-47.6220797 13.59710358 -47.6220797 13.59710358 -46.07460022 13.10736084 C-44.4308567 12.61335785 -44.4308567 12.61335785 -42.75390625 12.109375 C-41.63185287 11.75989807 -40.5097995 11.41042114 -39.35374451 11.050354 C-36.9794911 10.3138536 -34.60295026 9.58469334 -32.22436523 8.86230469 C-28.5763262 7.75419976 -24.93525706 6.62531597 -21.29492188 5.4921875 C-18.98996003 4.78002963 -16.68463311 4.06905209 -14.37890625 3.359375 C-13.28510147 3.02194275 -12.19129669 2.6845105 -11.06434631 2.33685303 C-10.04996994 2.02943176 -9.03559357 1.7220105 -7.99047852 1.40527344 C-7.09716324 1.13309998 -6.20384796 0.86092651 -5.28346252 0.58050537 C-3 0 -3 0 0 0 Z " fill="#EE4222" transform="translate(1685,2112)"/>
<path d="M0 0 C36.3 0 72.6 0 110 0 C110 5.9420491 109.87547285 11.08619391 109.125 16.87890625 C109.03621582 17.57644516 108.94743164 18.27398407 108.85595703 18.99266052 C108.57591229 21.18332466 108.28811372 23.37288409 108 25.5625 C107.80677362 27.06308442 107.61406104 28.5637351 107.421875 30.06445312 C106.95478346 33.71058579 106.47717921 37.35511775 106 41 C96.43 41 86.86 41 77 41 C76.63213379 43.81257324 76.26426758 46.62514648 75.88525391 49.52294922 C73.62219758 66.33225548 70.91317675 83.07697358 68.27666426 99.83074427 C67.52970228 104.57980566 66.78500167 109.32922177 66.03994751 114.07858276 C64.79251441 122.02805731 63.54329135 129.97724897 62.29296875 137.92626953 C60.84823404 147.11142825 59.40641441 156.29704108 57.96610105 165.48289406 C56.57473434 174.3561372 55.18132274 183.22905806 53.78697586 192.10183334 C53.19541766 195.86638901 52.6045797 199.63105667 52.01432419 203.3958168 C51.32156059 207.8137978 50.62701035 212.23149426 49.93106651 216.64897537 C49.67606757 218.26944712 49.42168715 219.89001634 49.16796684 221.51068878 C48.82201944 223.7198063 48.47384345 225.9285613 48.12509155 228.13723755 C47.93080252 229.37336351 47.73651348 230.60948948 47.5363369 231.88307381 C47.12477361 234.27487718 46.58862291 236.64550838 46 239 C55.57 239 65.14 239 75 239 C74.45063041 243.8932222 73.89995523 248.78626097 73.34594727 253.67895508 C73.15800371 255.34227982 72.97082079 257.00569069 72.78442383 258.66918945 C72.51585219 261.06484847 72.24451652 263.46018098 71.97265625 265.85546875 C71.8491555 266.96513252 71.8491555 266.96513252 71.72315979 268.09721375 C71.30109006 271.79181806 70.73093211 275.34533943 70 279 C33.37 279 -3.26 279 -41 279 C-37 242 -37 242 -36 239 C-26.43 239 -16.86 239 -7 239 C-6.67 235.04 -6.34 231.08 -6 227 C-5.62604166 224.16534737 -5.23153233 221.354362 -4.77879333 218.53363037 C-4.65951589 217.76792009 -4.54023845 217.0022098 -4.41734654 216.21329618 C-4.02375059 213.69329903 -3.62408959 211.17430512 -3.22436523 208.65527344 C-2.93813724 206.83092448 -2.65228965 205.00651581 -2.36679077 203.18205261 C-1.59592975 198.26288767 -0.8197935 193.34456838 -0.04266238 188.42639065 C0.77055088 183.273944 1.57884758 178.12072615 2.38768005 172.96759033 C3.91770471 163.22451191 5.45210978 153.48212871 6.9881143 143.73999143 C8.73758912 132.64251635 10.48214198 121.54426929 12.22629464 110.44595671 C15.812078 87.62977831 19.40417415 64.81459767 23 42 C9.14 41.505 9.14 41.505 -5 41 C-4.31192982 32.05508768 -3.5325061 23.21147588 -2.5 14.3125 C-2.36980469 13.14783203 -2.23960937 11.98316406 -2.10546875 10.78320312 C-1.91404297 9.1212793 -1.91404297 9.1212793 -1.71875 7.42578125 C-1.60466797 6.42973877 -1.49058594 5.43369629 -1.37304688 4.4074707 C-1 2 -1 2 0 0 Z " fill="#EE4222" transform="translate(905,2139)"/>
<path d="M0 0 C1.08559204 0.00193359 1.08559204 0.00193359 2.19311523 0.00390625 C9.65831764 0.13383472 16.6984993 1.54226402 23.9375 3.3125 C24.0798325 9.2430208 23.57061597 14.77599663 22.625 20.625 C22.49182373 21.47932617 22.35864746 22.33365234 22.22143555 23.21386719 C21.79914624 25.91434176 21.36846923 28.61339852 20.9375 31.3125 C20.64787979 33.15486033 20.35881186 34.99730757 20.0703125 36.83984375 C19.36575499 41.33175901 18.65367738 45.82242335 17.9375 50.3125 C16.47860352 50.30814941 16.47860352 50.30814941 14.99023438 50.30371094 C-6.72552845 50.26621455 -25.19622282 51.66867613 -45.0625 61.3125 C-46.23942917 61.77405991 -47.41635834 62.23561981 -48.62895203 62.71116638 C-51.03682721 64.1162824 -51.90894777 64.91793017 -52.92986488 67.54129219 C-53.52087991 70.52305203 -53.89667477 73.4734144 -54.21801758 76.49633789 C-54.36643758 77.64211587 -54.51485758 78.78789385 -54.66777515 79.96839237 C-54.98828209 82.45337662 -55.29577995 84.94006559 -55.59177017 87.42808914 C-56.14132966 91.96299372 -56.76637168 96.48509621 -57.39978069 101.00892752 C-58.07641514 105.84624803 -58.73721108 110.6854588 -59.3868866 115.526474 C-59.48316426 116.24364525 -59.57944192 116.96081649 -59.67863709 117.6997202 C-59.87639572 119.17314849 -60.07411523 120.64658202 -60.27179694 122.12002063 C-60.7883732 125.96514983 -61.30822651 129.80983588 -61.82783508 133.65455627 C-63.36196049 145.01032416 -64.89098493 156.36677805 -66.41931152 167.72332764 C-67.61714362 176.62353561 -68.81631857 185.52355841 -70.0194667 194.42304951 C-70.63556007 198.98134083 -71.24890788 203.53999045 -71.86014783 208.09893501 C-72.23858281 210.91707242 -72.61942323 213.73488086 -73.00093842 216.55260277 C-73.26151528 218.48262821 -73.51917118 220.41304731 -73.77674866 222.34347534 C-73.93221161 223.48800674 -74.08767456 224.63253815 -74.24784851 225.81175232 C-74.38184398 226.8076258 -74.51583944 227.80349928 -74.65389538 228.82955074 C-75.0625 231.3125 -75.0625 231.3125 -76.0625 234.3125 C-93.5525 234.3125 -111.0425 234.3125 -129.0625 234.3125 C-126.76501574 212.48639958 -126.76501574 212.48639958 -125.80369568 205.56896973 C-125.69243648 204.75039254 -125.58117728 203.93181535 -125.4665466 203.08843279 C-125.10472845 200.43161612 -124.73881628 197.77538227 -124.37280273 195.11914062 C-124.10787995 193.18037693 -123.84320862 191.24157886 -123.57876587 189.30274963 C-122.86877427 184.10304746 -122.15510954 178.90385595 -121.4405582 173.70477867 C-120.69051373 168.24390229 -119.94340391 162.78262425 -119.19581604 157.32141113 C-117.94297037 148.17280352 -116.68765694 139.02453705 -115.4309082 129.87646484 C-113.97769945 119.29805581 -112.52874556 108.71907029 -111.08194965 98.13978243 C-109.83647501 89.03340295 -108.58875552 79.92733314 -107.33913761 70.82152128 C-106.59403188 65.39202517 -105.84970169 59.96242581 -105.10738945 54.532547 C-104.4114902 49.44311475 -103.71277855 44.3540765 -103.01185989 39.26533318 C-102.7548725 37.39614918 -102.49887526 35.52682875 -102.24392509 33.6573658 C-101.89672191 31.11263282 -101.54598625 28.56841155 -101.19432068 26.02429199 C-101.04315289 24.90706497 -101.04315289 24.90706497 -100.88893121 23.7672677 C-100.47858104 20.82201905 -100.00561221 18.14183662 -99.0625 15.3125 C-84.5425 15.3125 -70.0225 15.3125 -55.0625 15.3125 C-53.0625 22.3125 -53.0625 22.3125 -53.0625 26.3125 C-52.41925781 25.76722656 -51.77601562 25.22195312 -51.11328125 24.66015625 C-36.25689585 12.26217414 -20.18504982 -0.15207101 0 0 Z " fill="#EE4322" transform="translate(2081.0625,2183.6875)"/>
<path d="M0 0 C28.71 0 57.42 0 87 0 C85.87505926 13.49928888 85.87505926 13.49928888 85.08250427 19.01460266 C84.81539642 20.89211464 84.81539642 20.89211464 84.54289246 22.80755615 C84.3482333 24.15076528 84.15351393 25.49396568 83.95874023 26.8371582 C83.75138421 28.28563513 83.54435226 29.73415849 83.33761597 31.182724 C82.89542472 34.27670131 82.45112367 37.37036529 82.00515556 40.46380043 C81.29947561 45.35982052 80.59950384 50.25664658 79.90040588 55.15361023 C78.16449965 67.30705764 76.421792 79.45952843 74.67651367 91.6116333 C73.31699102 101.07807965 71.95961073 110.54482158 70.60902172 120.01254719 C69.91488839 124.87674491 69.21623189 129.74026435 68.51411617 134.60331595 C68.0783621 137.62855624 67.64669157 140.65436894 67.21613693 143.68035316 C67.01629134 145.07898291 66.81477312 146.47737487 66.6114254 147.87549973 C66.33324826 149.78978418 66.06173367 151.70503323 65.79051208 153.62031555 C65.63694968 154.68968007 65.48338728 155.75904459 65.32517147 156.86081409 C64.78675366 162.05866738 64.61219601 166.83366115 66.3125 171.8125 C66.55613281 172.56144531 66.79976562 173.31039062 67.05078125 174.08203125 C67.96978063 176.34073276 67.96978063 176.34073276 71 178 C73.02542148 178.36351504 73.02542148 178.36351504 75.23046875 178.4140625 C76.43413086 178.47207031 76.43413086 178.47207031 77.66210938 178.53125 C78.49548828 178.5621875 79.32886719 178.593125 80.1875 178.625 C81.03248047 178.66367188 81.87746094 178.70234375 82.74804688 178.7421875 C84.83167524 178.83636279 86.91580753 178.91926675 89 179 C88.30903952 184.05409993 87.61519833 189.1077929 86.91870117 194.16113281 C86.682234 195.87977429 86.44655015 197.59852374 86.21166992 199.31738281 C85.8736499 201.79000282 85.53280175 204.26221907 85.19140625 206.734375 C85.08719864 207.50118591 84.98299103 208.26799683 84.87562561 209.05804443 C84.40751724 212.42955581 83.86551082 215.70910726 83 219 C77.9687253 219.10010954 72.93805103 219.17204301 67.90600586 219.21972656 C66.20017375 219.23963837 64.49440802 219.26677813 62.78881836 219.30175781 C47.26610537 219.61175619 34.09498836 218.1140988 22.0703125 207.2578125 C12.79661275 197.66570246 10.05928821 184.4537181 9.75 171.5 C10.1680651 154.57399346 12.935434 137.73590827 15.44140625 121.0234375 C15.7727715 118.79241543 16.10381494 116.56134554 16.43455505 114.33023071 C17.12157921 109.70277342 17.81184475 105.07581566 18.50463867 100.44921875 C19.39353648 94.51175552 20.27499697 88.57321603 21.15422153 82.63431358 C21.83362201 78.049607 22.51639826 73.46540835 23.2002697 68.88136673 C23.52695578 66.6893677 23.85269081 64.49722671 24.17746162 62.30494308 C24.62868722 59.26316363 25.08433747 56.22208054 25.54125977 53.18115234 C25.67478348 52.2753392 25.80830719 51.36952606 25.94587708 50.43626404 C26.88564018 44.22871964 26.88564018 44.22871964 28 42 C17.11 41.67 6.22 41.34 -5 41 C-4.01907649 27.26707079 -2.01766989 13.61927178 0 0 Z " fill="#EE4222" transform="translate(1467,2199)"/>
<path d="M0 0 C1.33333333 2.66666667 2.66666667 5.33333333 4 8 C21.16 8 38.32 8 56 8 C56 7.34 56 6.68 56 6 C56.66 6 57.32 6 58 6 C57.82871582 7.08716309 57.65743164 8.17432617 57.48095703 9.29443359 C56.83203907 13.42026859 56.18849867 17.54692891 55.54638672 21.67382812 C55.27045517 23.4426037 54.99316328 25.21116771 54.71435547 26.97949219 C53.13445632 37.00643338 51.65249917 47.00968253 50.72781372 57.12167358 C50.29663586 61.49941665 49.42924714 64.71225859 48 69 C30.18 69 12.36 69 -6 69 C-10.69691485 57.25771288 -5.97666651 40.88687478 -4.41601562 28.54589844 C-3.99572946 25.21616651 -3.58347217 21.88550348 -3.171875 18.5546875 C-2.90672437 16.43744054 -2.6411165 14.32025078 -2.375 12.203125 C-2.1905835 10.70957489 -2.1905835 10.70957489 -2.00244141 9.18585205 C-1.88562012 8.2701947 -1.76879883 7.35453735 -1.6484375 6.41113281 C-1.54708496 5.60508606 -1.44573242 4.79903931 -1.34130859 3.96856689 C-1 2 -1 2 0 0 Z " fill="#EE4222" transform="translate(1510,2111)"/>
</svg>
