<svg width="90" height="90" viewBox="0 0 90 90" fill="none" xmlns="http://www.w3.org/2000/svg">
<path d="M31.4049 55.048C31.4322 55.0826 31.4593 55.1177 31.4861 55.1532L30.6883 55.7561M31.4049 55.048L34.4524 58.9777M31.4049 55.048C31.6754 55.2747 31.9905 55.4454 32.3321 55.5478C32.8395 55.6999 33.381 55.6941 33.8847 55.5313C33.9934 55.4991 34.1004 55.4625 34.2058 55.4214C34.2449 55.4064 34.2741 55.3985 34.2944 55.3943C34.2954 55.3957 34.2964 55.397 34.2972 55.3982C34.2903 55.4196 34.275 55.4573 34.2416 55.5132C33.9065 56.0718 33.691 56.6795 33.7061 57.3024C33.7219 57.9535 33.9887 58.5302 34.4524 58.9777M30.6883 55.7561L31.4841 55.1505C31.5315 55.2128 31.6529 55.3122 31.9774 55.465C32.0494 55.4989 32.1501 55.5429 32.2656 55.5934C32.5223 55.7054 32.8521 55.8493 33.1017 55.9854L33.5951 56.2544L33.6218 56.8157C33.6775 57.9819 33.8814 58.4895 34.2031 58.8201C34.3219 58.942 34.4747 59.0592 34.6782 59.1741C34.6011 59.114 34.5257 59.0485 34.4524 58.9777M30.6883 55.7561C29.9959 54.8399 29.0755 54.2789 28.157 53.7191C27.7996 53.5012 27.4424 53.2835 27.0991 53.0451L31.9452 56.5454C31.4488 56.33 30.9656 56.1205 30.6883 55.7561ZM42.2565 62.513C42.2423 62.5222 42.2252 62.5343 42.2054 62.5501C42.2006 62.5541 42.1941 62.5596 42.1861 62.5664C42.1371 62.6077 42.0331 62.6952 41.9389 62.7618C40.8748 63.5183 39.3862 63.5072 38.4244 62.609C37.4193 61.6706 37.4259 60.2671 38.1507 59.164C38.2008 59.0876 38.2282 59.0293 38.2421 58.9902C38.2424 58.9894 38.2427 58.9886 38.2429 58.9878C38.2063 59.0063 38.1571 59.0354 38.0951 59.0802L38.0906 59.0834C37.4732 59.5232 36.7651 59.7509 36.0801 59.7084C36.284 59.7657 36.5075 59.8233 36.7527 59.8816L37.4208 60.0405L37.5123 60.7212C37.6464 61.7183 37.9932 62.3465 38.4232 62.7335C38.8533 63.1207 39.4729 63.3621 40.334 63.384L40.9094 63.3986L41.1857 63.9033C41.3481 64.1997 41.5085 64.5288 41.648 64.815C41.7045 64.9308 41.7576 65.0395 41.8059 65.1363C41.751 64.9707 41.7141 64.7962 41.697 64.6139C41.6325 63.9278 41.8559 63.2435 42.2229 62.6188L42.2235 62.6179C42.2464 62.579 42.261 62.5485 42.2702 62.5261C42.2662 62.5222 42.2615 62.5175 42.2565 62.513ZM42.2565 62.513C42.2566 62.5132 42.2564 62.5128 42.2565 62.513ZM49.7066 59.8751C50.3519 60.5651 50.9596 61.2875 51.5477 61.9945C51.8935 62.3756 52.1096 62.857 52.1642 63.3691C52.2193 63.8863 52.1069 64.4074 51.8438 64.8558C51.6124 65.2694 51.2889 65.6484 50.821 65.9177C50.3547 66.1861 49.8198 66.3023 49.2357 66.3126L48.965 66.3174C50.4278 66.5752 51.9502 65.6488 52.2976 63.7075L52.4397 62.9135L53.2458 62.8843C54.1352 62.8521 54.7978 62.5836 55.2748 62.1665C55.7543 61.7472 56.1231 61.1101 56.3009 60.2083L56.4501 59.4517L57.2197 59.4037C58.1806 59.3437 58.857 59.0705 59.3265 58.6621C59.7936 58.2559 60.1515 57.6329 60.3242 56.6936L60.4652 55.9257L61.2444 55.8763C62.2317 55.8138 62.8528 55.5716 63.2768 55.2167C63.5295 55.0053 63.7544 54.7186 63.9458 54.3215C63.7864 54.6171 63.5693 54.8839 63.309 55.1134C62.7917 55.5695 62.1495 55.834 61.4716 55.8164C60.7882 55.7986 60.1573 55.4958 59.6763 54.9798C59.032 54.2889 58.4218 53.5673 57.8301 52.8559C57.5037 52.4838 57.2973 52.0216 57.2383 51.5299C57.1793 51.0387 57.2701 50.5414 57.4986 50.103C57.722 49.6459 58.0481 49.2643 58.4986 48.9874C58.9404 48.7158 59.4471 48.5784 59.9827 48.5169L60.1008 48.5034C59.4144 48.4573 58.708 48.7047 58.1017 49.2508C57.583 49.7305 57.253 50.3801 57.1717 51.082L57.0745 51.9211L56.2309 51.9655C55.2376 52.0177 54.5652 52.2952 54.1036 52.7014C53.6401 53.1093 53.2881 53.736 53.103 54.6734L52.9458 55.4694L52.1344 55.4796C51.3756 55.4892 50.7162 55.7001 50.2077 56.1028C49.7063 56.4998 49.274 57.1443 49.0673 58.167L48.9116 58.9375L48.1261 58.9681C47.3551 58.9982 46.7536 59.1835 46.3 59.489C45.8557 59.7883 45.487 60.2474 45.2444 60.9477C44.8168 62.1802 45.3568 63.151 46.5229 64.2981L46.6324 64.4058C46.3322 64.0585 46.0435 63.7085 45.7631 63.3647L45.7618 63.3632C45.321 62.8207 45.0889 62.1647 45.1525 61.4813C45.2158 60.8014 45.5616 60.2035 46.0738 59.7507C46.5886 59.2956 47.2289 59.0286 47.9062 59.0431C48.5901 59.0577 49.2231 59.358 49.7066 59.8751ZM49.7066 59.8751L48.9762 60.5581M35.8749 46.8903C35.8749 46.8903 35.8747 46.8907 35.8745 46.8915M59.5489 54.9167C59.9985 55.4595 60.2609 56.1139 60.2194 56.8096C60.1776 57.5086 59.8362 58.1214 59.3183 58.5867C58.7892 59.0629 58.13 59.3521 57.4129 59.317C56.6955 59.282 56.063 58.9293 55.5737 58.3954L55.5725 58.394C54.9535 57.7159 54.3566 57.0196 53.7784 56.3151C53.4482 55.9375 53.244 55.4662 53.1945 54.9668C53.1448 54.4658 53.2534 53.962 53.5046 53.5261C53.7352 53.1041 54.0573 52.7309 54.5116 52.4593C54.9625 52.1897 55.4804 52.058 56.0448 52.0184L56.3635 51.9961L56.6362 52.1627C56.6581 52.1761 56.6965 52.197 56.7777 52.2389C56.8486 52.2755 56.949 52.3267 57.0515 52.3834C57.2549 52.4958 57.5299 52.6634 57.7772 52.9062L57.7805 52.9094C58.4054 53.5288 58.962 54.2042 59.4795 54.8324L59.5489 54.9167ZM59.5489 54.9167C59.5488 54.9165 59.549 54.9169 59.5489 54.9167ZM35.841 46.9492C35.8209 46.9768 35.7892 47.0136 35.7401 47.0587C35.016 47.7225 34.3117 48.3581 33.6049 48.996C32.9685 49.5704 32.3295 50.147 31.6712 50.7486C31.3675 51.0096 31.1 51.3099 30.876 51.6418L30.8681 51.6535L30.8605 51.6654C30.5698 52.1233 30.4311 52.6612 30.4642 53.2026C30.4922 53.6613 30.6424 54.1026 30.8972 54.4816C30.4634 54.0519 29.997 53.7076 29.5439 53.4081C29.2532 53.216 28.9559 53.0348 28.6768 52.8647C28.6385 52.8413 28.6003 52.8181 28.5627 52.7952C28.2449 52.6011 27.9503 52.4185 27.6707 52.2245C26.2199 51.2101 24.9148 50.0015 23.7922 48.6326L23.7867 48.626C23.4312 48.2001 22.9933 47.8505 22.4994 47.5981L22.49 47.5933C19.7849 46.2469 17.0725 44.9236 14.3635 43.602C13.4106 43.1371 12.458 42.6724 11.5063 42.207C11.4349 42.1718 11.3847 42.1481 11.3452 42.1295C11.2854 42.1013 11.25 42.0846 11.2026 42.0572L11.1894 42.0495L11.176 42.0423C11.1042 42.0036 11.0589 41.9691 11.0312 41.9435C11.0609 41.95 11.1029 41.9632 11.1583 41.9897C12.5668 42.6676 13.969 43.3536 15.3757 44.0417C15.4744 44.09 15.5732 44.1384 15.672 44.1867C16.2661 44.4777 16.8594 44.7668 17.4515 45.0554C19.1987 45.9069 20.9367 46.754 22.6603 47.6326C23.0767 47.8483 23.4465 48.1438 23.7487 48.5023C25.2123 50.3168 26.9998 51.844 29.0206 53.0064L30.1505 53.6564L30.4856 52.3966C30.6513 51.7734 31.0075 51.2916 31.5182 50.8015C31.7744 50.5557 32.0526 50.323 32.3629 50.0637L32.3802 50.0492C32.6876 49.7923 33.0268 49.5081 33.3457 49.1963C34.0317 48.5247 34.7558 47.8853 35.5 47.2281C35.5737 47.163 35.6476 47.0978 35.7217 47.0323C35.7731 46.9868 35.8135 46.9623 35.841 46.9492ZM60.5942 48.643L60.4287 48.5481C60.9493 48.6557 61.4467 48.9363 61.8661 49.3875C62.3573 49.9162 62.8198 50.455 63.3162 51.0335C63.5539 51.3105 63.7994 51.5966 64.0595 51.895L64.6107 52.5271L65.3292 52.0944C65.8017 51.8098 66.2545 51.4938 66.6847 51.1484L66.7087 51.1293L66.7313 51.1087C66.8209 51.0272 66.9196 50.9404 67.0242 50.8484C67.5432 50.3918 68.2089 49.8059 68.6487 49.102C69.2624 48.1178 70.1375 47.5236 71.3197 46.981C72.9261 46.2418 74.5206 45.4516 76.0986 44.6696C76.7966 44.3237 77.4916 43.9794 78.1832 43.6415C78.2155 43.6258 78.2459 43.6112 78.2746 43.5978C78.2305 43.6333 78.1999 43.6523 78.1781 43.6628L78.1716 43.666L78.1649 43.6693C76.7385 44.3855 75.3274 45.0743 73.9102 45.7659C72.7413 46.3363 71.5684 46.9088 70.3795 47.5002C69.9143 47.7224 69.5095 48.0536 69.1996 48.4658L69.1848 48.4853L69.1711 48.5056C68.1332 50.0363 66.7583 51.3089 65.1521 52.2257L65.1427 52.231L65.1335 52.2365C64.737 52.4743 64.4418 52.8495 64.3041 53.2908L64.296 53.3165L64.2894 53.3425C64.2492 53.5007 64.2062 53.6484 64.1603 53.7862C64.196 53.655 64.2209 53.5199 64.2341 53.3815C64.2992 52.7013 64.0723 52.0454 63.6334 51.5033C63.0532 50.7701 62.4363 50.0668 61.7852 49.3958L61.779 49.3895C61.5222 49.1296 61.2292 48.9605 61.0191 48.8518C60.9239 48.8026 60.8308 48.7583 60.7602 48.7248L60.7352 48.713C60.6509 48.6729 60.614 48.6544 60.5942 48.643ZM48.7112 66.1748L48.9483 66.3144C48.5661 66.2447 48.1883 66.094 47.8369 65.8594L47.34 65.5276L46.8124 65.808L45.8152 66.338C46.0859 66.1568 46.3365 65.9337 46.5648 65.68L47.1697 65.0082C47.3141 65.1645 47.4612 65.3192 47.6116 65.4714C47.8593 65.7248 48.1427 65.8891 48.34 65.992C48.431 66.0394 48.5192 66.0815 48.5836 66.1121L48.6045 66.1221C48.6399 66.139 48.6652 66.1512 48.6857 66.1616C48.704 66.1708 48.7112 66.1748 48.7112 66.1748ZM44.7528 66.79C44.9191 66.7567 45.0806 66.7079 45.237 66.6453L44.8088 66.8729H43.8104C43.7197 66.8268 43.6258 66.7811 43.534 66.7373C43.9236 66.8518 44.3358 66.8734 44.7528 66.79ZM42.3242 65.9984C42.4251 66.1053 42.5365 66.2044 42.6578 66.2951C42.5448 66.2231 42.4639 66.1574 42.4045 66.0924C42.3773 66.0624 42.3506 66.0311 42.3242 65.9984ZM49.1772 58.4593C49.2237 58.9583 49.4234 59.4307 49.7486 59.8118C50.3305 60.5284 50.9349 61.2249 51.554 61.903C52.0363 62.4336 52.6651 62.7661 53.3612 62.8058C54.0559 62.8455 54.7135 62.5877 55.2448 62.131C55.7805 61.6705 56.129 61.0548 56.1851 60.359C56.2411 59.6652 55.998 58.9995 55.5518 58.4486L55.5482 58.4443C54.9879 57.7603 54.3916 57.0445 53.7318 56.3828L53.724 56.3751C53.4771 56.1328 53.1994 55.97 52.9981 55.8651C52.8942 55.811 52.7973 55.7656 52.7263 55.7324L52.7098 55.7247C52.6802 55.7109 52.6577 55.7004 52.637 55.6905L52.6102 55.6775L52.6027 55.6737L52.6007 55.6727L52.132 56.5403L52.1273 55.5525H52.1255L52.118 55.5824L52.1176 55.5525C51.5249 55.5583 50.9803 55.6737 50.5081 55.9461C50.0355 56.2188 49.7108 56.6054 49.4856 57.0301C49.2387 57.4634 49.1309 57.9623 49.1772 58.4593Z" stroke="#024D81" stroke-width="2"/>
<mask id="mask0_21_290" style="mask-type:luminance" maskUnits="userSpaceOnUse" x="10" y="22" width="70" height="24">
<path d="M49.6561 35.0153C51.1289 36.4226 52.6126 37.819 54.069 39.2445C54.5071 39.6448 54.8382 40.1482 55.0323 40.709C55.2263 41.2697 55.2771 41.8701 55.18 42.4556C54.7599 45.2466 51.7253 46.6084 49.3761 45.0302C47.7015 43.9065 46.0778 42.7065 44.4305 41.5428C44.2305 41.3992 44.0232 41.2646 43.7886 41.1064L40.3013 44.2793C40.1231 44.4536 39.9355 44.6181 39.7394 44.772C39.2485 45.1356 38.7085 45.0847 38.3357 44.6665C38.2483 44.5691 38.1809 44.4555 38.1375 44.332C38.094 44.2086 38.0753 44.0777 38.0824 43.9471C38.0895 43.8164 38.1222 43.6884 38.1788 43.5703C38.2354 43.4523 38.3147 43.3466 38.4121 43.2592C39.2503 42.461 40.1158 41.6937 40.9704 40.9155C41.4231 40.5028 41.8704 40.0846 42.3322 39.6827C43.2414 38.8863 44.1105 38.8318 45.1141 39.5336C46.8415 40.7409 48.5379 41.9955 50.2889 43.1701C50.7376 43.4575 51.2616 43.6049 51.7944 43.5938C52.4399 43.572 52.8962 43.1028 53.0981 42.4628C53.2013 42.1593 53.2143 41.8324 53.1356 41.5216C53.0568 41.2109 52.8897 40.9296 52.6544 40.7119C51.3707 39.3991 50.0834 38.0863 48.7815 36.7917C47.8342 35.8499 46.9288 34.8444 45.8833 34.0225C42.825 31.617 39.3376 30.9806 35.552 31.717C33.7519 32.0679 31.9373 32.3497 30.1209 32.6043C29.6565 32.6686 29.1833 32.6058 28.7517 32.4225C22.777 29.6466 16.8095 26.8538 10.8493 24.044C10.3402 23.8058 9.94016 23.4985 10.0074 22.8712C10.0838 22.1148 10.8184 21.7803 11.6202 22.153C13.8185 23.1712 16.0095 24.2076 18.2023 25.2349C21.8715 26.9568 25.5389 28.6896 29.2172 30.386C29.5418 30.5253 29.8983 30.573 30.2482 30.5242C32.4901 30.1951 34.7156 29.7478 36.9648 29.4933C40.9231 29.0478 44.445 30.1915 47.5106 32.7207C47.6503 32.861 47.8274 32.9583 48.0207 33.0012C48.214 33.0441 48.4156 33.0306 48.6015 32.9625C51.7944 32.0334 54.9872 32.1206 58.0655 33.3625C59.5292 33.9553 60.6529 33.7971 62.0038 32.977C67.0949 29.886 72.2751 26.9386 77.4226 23.9385C77.6138 23.8172 77.813 23.7091 78.019 23.6149C78.5262 23.404 78.9717 23.5276 79.2645 23.9785C79.5772 24.464 79.4917 24.9386 79.0499 25.3131C78.8336 25.4773 78.6037 25.6227 78.3626 25.7477C72.8242 28.9787 67.2713 32.197 61.7547 35.4498C60.7747 36.0262 59.8383 36.139 58.7819 35.7353C56.7437 34.9553 54.669 34.2916 52.4435 34.4116C51.5726 34.4589 50.7034 34.5935 49.8343 34.6789L49.6561 35.0153Z" fill="white"/>
</mask>
<g mask="url(#mask0_21_290)">
<path d="M49.656 35.0156L47.8887 34.0794L47.1805 35.4163L48.2743 36.4616L49.656 35.0156ZM54.0689 39.2448L52.6699 40.6741L52.6946 40.6982L52.72 40.7214L54.0689 39.2448ZM55.1799 42.4559L53.2068 42.1286L53.2044 42.1434L53.2021 42.1582L55.1799 42.4559ZM49.376 45.0305L50.4913 43.3704L50.4904 43.3697L49.376 45.0305ZM44.4304 41.5431L43.2637 43.1676L43.2701 43.1721L43.2765 43.1766L44.4304 41.5431ZM43.7885 41.1067L44.9068 39.4486L43.6045 38.5703L42.4426 39.6274L43.7885 41.1067ZM40.3012 44.2796L38.9552 42.8002L38.9284 42.8247L38.9024 42.8501L40.3012 44.2796ZM39.7393 44.7723L40.9298 46.3794L40.9522 46.3628L40.9741 46.3456L39.7393 44.7723ZM38.3356 44.6668L39.8287 43.3361L39.8241 43.331L38.3356 44.6668ZM38.412 43.2595L39.7472 44.7485L39.7695 44.7285L39.7912 44.7079L38.412 43.2595ZM40.9703 40.9158L42.3169 42.3945L42.3177 42.3938L40.9703 40.9158ZM42.3321 39.683L43.6449 41.1919L43.65 41.1874L42.3321 39.683ZM50.2888 43.1704L49.1746 44.8313L49.1923 44.8432L49.2102 44.8547L50.2888 43.1704ZM51.7943 43.5941L51.8362 45.5936L51.849 45.5934L51.8619 45.5929L51.7943 43.5941ZM53.098 42.4631L51.2045 41.8192L51.1973 41.8403L51.1906 41.8616L53.098 42.4631ZM52.6543 40.7122L51.2244 42.1104L51.2593 42.1461L51.2959 42.18L52.6543 40.7122ZM30.1208 32.6046L30.3951 34.5857L30.3984 34.5852L30.1208 32.6046ZM28.7516 32.4228L27.909 34.2366L27.9392 34.2506L27.9698 34.2636L28.7516 32.4228ZM10.8492 24.0443L11.702 22.2352L11.6967 22.2328L10.8492 24.0443ZM10.0073 22.8715L11.996 23.0848L11.9972 23.0724L10.0073 22.8715ZM11.6201 22.1533L10.7771 23.9669L10.7795 23.9681L11.6201 22.1533ZM18.2022 25.2352L19.0518 23.4247L19.0507 23.4241L18.2022 25.2352ZM29.2171 30.3863L28.3795 32.2025L28.404 32.2138L28.4288 32.2244L29.2171 30.3863ZM30.2481 30.5245L30.5245 32.5053L30.5315 32.5043L30.5385 32.5033L30.2481 30.5245ZM36.9647 29.4936L36.741 27.5061L36.7398 27.5063L36.9647 29.4936ZM47.5105 32.721L48.9277 31.3097L48.8587 31.2405L48.7833 31.1782L47.5105 32.721ZM48.6014 32.9628L48.0426 31.0424L47.9773 31.0615L47.9134 31.0849L48.6014 32.9628ZM58.0654 33.3628L58.8161 31.509L58.8137 31.508L58.0654 33.3628ZM77.4225 23.9388L78.4296 25.6668L78.4622 25.6477L78.4942 25.6275L77.4225 23.9388ZM78.0189 23.6152L77.251 21.7684L77.2188 21.7818L77.1871 21.7963L78.0189 23.6152ZM79.2644 23.9788L80.9457 22.8957L80.9419 22.8898L79.2644 23.9788ZM79.0498 25.3134L80.2588 26.9066L80.3019 26.874L80.3431 26.839L79.0498 25.3134ZM78.3625 25.748L77.4416 23.9726L77.3976 23.9955L77.3547 24.0205L78.3625 25.748ZM61.7546 35.4501L62.7685 37.1741L62.7705 37.173L61.7546 35.4501ZM49.8342 34.6792L49.6385 32.6888L48.5696 32.7939L48.0669 33.743L49.8342 34.6792ZM48.2743 36.4616C49.7618 37.8829 51.2249 39.2597 52.6699 40.6741L55.4679 37.8155C54.0001 36.3789 52.4958 34.9629 51.0377 33.5696L48.2743 36.4616ZM52.72 40.7214C52.912 40.8968 53.0571 41.1174 53.1421 41.3632L56.9222 40.0553C56.6192 39.1795 56.1021 38.3933 55.4178 37.7682L52.72 40.7214ZM53.1421 41.3632C53.2271 41.6089 53.2494 41.872 53.2068 42.1286L57.1529 42.7831C57.3046 41.8688 57.2253 40.9312 56.9222 40.0553L53.1421 41.3632ZM53.2021 42.1582C52.9976 43.5176 51.6051 44.1186 50.4913 43.3704L48.2607 46.6906C51.8453 49.0989 56.5221 46.9761 57.1576 42.7535L53.2021 42.1582ZM50.4904 43.3697C48.8403 42.2625 47.2805 41.1077 45.5843 39.9096L43.2765 43.1766C44.8749 44.3058 46.5625 45.5511 48.2616 46.6913L50.4904 43.3697ZM45.5971 39.9186C45.3653 39.7522 45.1024 39.5805 44.9068 39.4486L42.6703 42.7649C42.9438 42.9493 43.0955 43.0467 43.2637 43.1676L45.5971 39.9186ZM42.4426 39.6274L38.9552 42.8002L41.6471 45.7589L45.1345 42.5861L42.4426 39.6274ZM38.9024 42.8501C38.7762 42.9735 38.6434 43.09 38.5046 43.199L40.9741 46.3456C41.2274 46.1468 41.4697 45.9343 41.6999 45.709L38.9024 42.8501ZM38.5489 43.1652C38.6239 43.1096 38.8359 42.9936 39.1535 43.0192C39.4802 43.0455 39.7124 43.2057 39.8287 43.3361L36.8426 45.9976C37.3316 46.5462 38.0202 46.9409 38.8328 47.0063C39.6363 47.071 40.3638 46.7986 40.9298 46.3794L38.5489 43.1652ZM39.8241 43.331C39.9122 43.4291 39.98 43.5436 40.0238 43.668L36.2509 44.9966C36.3817 45.3679 36.5843 45.7097 36.8471 46.0026L39.8241 43.331ZM40.0238 43.668C40.0676 43.7923 40.0865 43.9241 40.0793 44.0557L36.0852 43.839C36.0639 44.232 36.1202 44.6254 36.2509 44.9966L40.0238 43.668ZM40.0793 44.0557C40.0722 44.1873 40.0392 44.3163 39.9822 44.4352L36.3752 42.7061C36.2051 43.061 36.1065 43.446 36.0852 43.839L40.0793 44.0557ZM39.9822 44.4352C39.9252 44.5541 39.8454 44.6605 39.7472 44.7485L37.0768 41.7705C36.7837 42.0333 36.5454 42.3512 36.3752 42.7061L39.9822 44.4352ZM39.7912 44.7079C40.608 43.9301 41.4359 43.1968 42.3169 42.3945L39.6237 39.4371C38.7955 40.1913 37.8924 40.9926 37.0328 41.8112L39.7912 44.7079ZM42.3177 42.3938C42.7952 41.9584 43.2064 41.5734 43.6449 41.1919L41.0193 38.1742C40.5342 38.5963 40.0508 39.0477 39.6229 39.4378L42.3177 42.3938ZM43.65 41.1874C43.7697 41.0826 43.8406 41.0442 43.8625 41.0339C43.8778 41.0267 43.8524 41.0406 43.799 41.0435C43.7456 41.0465 43.7189 41.0355 43.7356 41.0412C43.759 41.0492 43.8352 41.0801 43.9679 41.173L46.2602 37.8949C45.5225 37.3791 44.6174 36.9917 43.5763 37.0497C42.5358 37.1078 41.6832 37.5927 41.0143 38.1786L43.65 41.1874ZM43.9679 41.173C45.6282 42.3335 47.411 43.6483 49.1746 44.8313L51.403 41.5095C49.6646 40.3434 48.0545 39.149 46.2602 37.8949L43.9679 41.173ZM49.2102 44.8547C49.9929 45.3559 50.907 45.6131 51.8362 45.5936L51.7524 41.5945C51.6161 41.5974 51.4821 41.5596 51.3673 41.4862L49.2102 44.8547ZM51.8619 45.5929C53.6246 45.5333 54.6405 44.2216 55.0054 43.0646L51.1906 41.8616C51.1741 41.9138 51.1763 41.8631 51.2672 41.7805C51.3152 41.7369 51.3835 41.6892 51.4717 41.6524C51.5613 41.615 51.6501 41.5978 51.7267 41.5952L51.8619 45.5929ZM54.9915 43.1071C55.2192 42.4375 55.2479 41.7163 55.0742 41.0307L51.1967 42.0132C51.1805 41.9491 51.1832 41.8817 51.2045 41.8192L54.9915 43.1071ZM55.0742 41.0307C54.9005 40.3452 54.5318 39.7246 54.0127 39.2443L51.2959 42.18C51.2474 42.1352 51.213 42.0772 51.1967 42.0132L55.0742 41.0307ZM54.0843 39.3139C52.8003 38.0008 51.5044 36.6792 50.1917 35.3738L47.3712 38.2102C48.6622 39.494 49.9409 40.7979 51.2244 42.1104L54.0843 39.3139ZM50.1917 35.3738C49.3509 34.5379 48.2867 33.3683 47.1192 32.4505L44.6467 35.5948C45.5701 36.3207 46.3174 37.1625 47.3712 38.2102L50.1917 35.3738ZM47.1192 32.4505C43.5427 29.6373 39.445 28.9225 35.17 29.7541L35.9338 33.6805C39.23 33.0393 42.1067 33.5969 44.6467 35.5948L47.1192 32.4505ZM35.17 29.7541C33.4186 30.0956 31.6418 30.3719 29.8432 30.6239L30.3984 34.5852C32.2326 34.3282 34.0851 34.0409 35.9338 33.6805L35.17 29.7541ZM29.8465 30.6235C29.7403 30.6382 29.6322 30.6238 29.5335 30.5819L27.9698 34.2636C28.7342 34.5883 29.5724 34.6996 30.3951 34.5857L29.8465 30.6235ZM29.5943 30.609C23.623 27.8347 17.6589 25.0434 11.702 22.2352L9.99634 25.8533C15.9599 28.6647 21.9308 31.4591 27.909 34.2366L29.5943 30.609ZM11.6967 22.2328C11.6226 22.1981 11.5991 22.1822 11.6036 22.1852C11.6091 22.1889 11.6698 22.2296 11.7442 22.3183C11.8249 22.4144 11.9062 22.5488 11.9556 22.7145C12.0043 22.878 12.004 23.011 11.996 23.0848L8.01873 22.6583C7.92892 23.4957 8.16416 24.2746 8.67999 24.8894C9.12169 25.4158 9.67293 25.702 10.0017 25.8558L11.6967 22.2328ZM11.9972 23.0724C11.9852 23.1919 11.9387 23.3608 11.8184 23.533C11.6974 23.7063 11.5339 23.8359 11.3601 23.9139C11.013 24.0695 10.7805 23.9685 10.7771 23.9669L12.4632 20.3397C11.6579 19.9654 10.6572 19.8453 9.72322 20.2641C8.73475 20.7074 8.12273 21.6278 8.01744 22.6706L11.9972 23.0724ZM10.7795 23.9681C12.9729 24.984 15.1516 26.0147 17.3537 27.0463L19.0507 23.4241C16.8672 22.4012 14.6639 21.359 12.4607 20.3385L10.7795 23.9681ZM17.3525 27.0458C21.0154 28.7647 24.6932 30.5024 28.3795 32.2025L30.0547 28.5702C26.3844 26.8774 22.7274 25.1496 19.0518 23.4247L17.3525 27.0458ZM28.4288 32.2244C29.0887 32.5074 29.8134 32.6046 30.5245 32.5053L29.9716 28.5437C29.9831 28.5421 29.9948 28.5437 30.0055 28.5483L28.4288 32.2244ZM30.5385 32.5033C32.9455 32.15 34.958 31.7334 37.1896 31.4809L36.7398 27.5063C34.473 27.7628 32.0344 28.2409 29.9576 28.5457L30.5385 32.5033ZM37.1883 31.481C40.5731 31.1001 43.5621 32.0562 46.2377 34.2637L48.7833 31.1782C45.3278 28.3274 41.2729 26.9961 36.741 27.5061L37.1883 31.481ZM46.0933 34.1322C46.5027 34.5433 47.0213 34.8285 47.5878 34.9541L48.4534 31.0489C48.6332 31.0887 48.7977 31.1792 48.9277 31.3097L46.0933 34.1322ZM47.5878 34.9541C48.1542 35.0797 48.7448 35.0403 49.2895 34.8407L47.9134 31.0849C48.0863 31.0215 48.2737 31.009 48.4534 31.0489L47.5878 34.9541ZM49.1603 34.8831C51.9545 34.07 54.6849 34.1556 57.3172 35.2176L58.8137 31.508C55.2894 30.0863 51.6341 29.9973 48.0426 31.0424L49.1603 34.8831ZM57.3147 35.2166C58.2788 35.607 59.2597 35.7991 60.2904 35.6884C61.3067 35.5793 62.2081 35.1929 63.0415 34.687L60.966 31.2676C60.4484 31.5818 60.1125 31.6845 59.8633 31.7113C59.6285 31.7365 59.3157 31.7113 58.8161 31.509L57.3147 35.2166ZM63.0415 34.687C68.1122 31.6084 73.258 28.6809 78.4296 25.6668L76.4154 22.2109C71.292 25.197 66.0775 28.1642 60.966 31.2676L63.0415 34.687ZM78.4942 25.6275C78.6084 25.5549 78.7275 25.4903 78.8506 25.434L77.1871 21.7963C76.8983 21.9284 76.6189 22.08 76.3508 22.2502L78.4942 25.6275ZM78.7867 25.4619C78.7217 25.4889 78.4875 25.5626 78.1683 25.4706C77.8374 25.3753 77.6536 25.1707 77.5869 25.0679L80.9419 22.8898C80.5823 22.336 80.0295 21.8442 79.2759 21.627C78.5339 21.4132 77.8233 21.5305 77.251 21.7684L78.7867 25.4619ZM77.583 25.0619C77.5292 24.9785 77.407 24.722 77.467 24.3605C77.5251 24.0104 77.7103 23.827 77.7565 23.7878L80.3431 26.839C80.8312 26.4253 81.28 25.8173 81.4131 25.0149C81.548 24.2012 81.3122 23.4647 80.9457 22.8957L77.583 25.0619ZM77.8408 23.7202C77.7152 23.8155 77.5816 23.9 77.4416 23.9726L79.2834 27.5234C79.6255 27.3459 79.9518 27.1396 80.2588 26.9066L77.8408 23.7202ZM77.3547 24.0205C71.8229 27.2476 66.2607 30.4714 60.7388 33.7273L62.7705 37.173C68.2817 33.9232 73.8253 30.7104 79.3703 27.4755L77.3547 24.0205ZM60.7407 33.7262C60.2375 34.0222 59.9349 34.0352 59.4957 33.8674L58.067 37.6035C59.7407 38.243 61.3117 38.0309 62.7685 37.1741L60.7407 33.7262ZM59.4957 33.8674C57.4238 33.0745 55.0115 32.2705 52.3357 32.4148L52.5511 36.409C54.3264 36.3133 56.0624 36.8364 58.067 37.6035L59.4957 33.8674ZM52.3357 32.4148C51.424 32.4643 50.3418 32.6197 49.6385 32.6888L50.0299 36.6696C51.0649 36.5678 51.7209 36.4541 52.5511 36.409L52.3357 32.4148ZM48.0669 33.743L47.8887 34.0794L51.4234 35.9518L51.6016 35.6154L48.0669 33.743Z" fill="#024D81"/>
</g>
</svg>
