<svg width="25" height="19" viewBox="0 0 25 19" fill="none" xmlns="http://www.w3.org/2000/svg">
<path d="M0.852983 19V13.6307C0.852983 12.1061 1.15128 10.5483 1.74787 8.95738C2.34446 7.36648 3.13163 5.86671 4.10938 4.4581C5.08712 3.04948 6.14773 1.87287 7.29119 0.928266L11.9645 3.6875C11.0365 5.14583 10.2741 6.67045 9.67756 8.26136C9.09754 9.85227 8.80753 11.6255 8.80753 13.581V19H0.852983ZM13.4062 19V13.6307C13.4062 12.1061 13.7045 10.5483 14.3011 8.95738C14.8977 7.36648 15.6849 5.86671 16.6626 4.4581C17.6404 3.04948 18.701 1.87287 19.8445 0.928266L24.5178 3.6875C23.5897 5.14583 22.8274 6.67045 22.2308 8.26136C21.6508 9.85227 21.3608 11.6255 21.3608 13.581V19H13.4062Z" fill="#024D81"/>
</svg>
