<svg width="574" height="476" viewBox="0 0 574 476" fill="none" xmlns="http://www.w3.org/2000/svg">
<path d="M370.721 308.88V292.009M458.454 104.169V87.2974M100.187 8H379.179C397.817 8 412.923 23.1059 412.923 41.7436V74.2162M83.3157 8H41.7436C23.1059 8 8 23.1059 8 41.7436V357.809C8 376.446 23.1059 391.552 41.7436 391.552H155.28L243.159 460.164V391.552H304.415M412.923 325.336V357.809C412.923 376.446 397.817 391.552 379.179 391.552H321.287" stroke="white" stroke-width="15.0166" stroke-miterlimit="10"/>
<path d="M430.077 74.2149L453.3 48.4922L492.267 64.6329L490.499 99.2437L513.995 122.739L548.605 120.971L564.746 159.938L539.022 183.162V216.389L564.746 239.613L548.605 278.58L513.995 276.811L490.499 300.307L492.267 334.918L453.3 351.059L430.077 325.336H396.849L373.626 351.059L334.659 334.918L336.427 300.307L312.931 276.811L278.32 278.58L262.18 239.613L287.902 216.389V183.162L262.18 159.938L278.32 120.971L312.931 122.739L336.427 99.2437L334.659 64.6329L373.626 48.4922L396.849 74.2149H430.077Z" stroke="white" stroke-width="15.0166" stroke-miterlimit="10"/>
<path d="M413.463 272.886C453.841 272.886 486.574 240.153 486.574 199.775C486.574 159.397 453.841 126.664 413.463 126.664C373.085 126.664 340.352 159.397 340.352 199.775C340.352 240.153 373.085 272.886 413.463 272.886Z" stroke="white" stroke-width="15.0166" stroke-miterlimit="10"/>
<path d="M276.656 173.961H123.595L83.9805 145.594" stroke="white" stroke-width="15.0166" stroke-miterlimit="10"/>
<path d="M69.2614 150.757C81.6854 150.757 91.7571 140.685 91.7571 128.261C91.7571 115.837 81.6854 105.766 69.2614 105.766C56.8373 105.766 46.7656 115.837 46.7656 128.261C46.7656 140.685 56.8373 150.757 69.2614 150.757Z" stroke="white" stroke-width="15.0166" stroke-miterlimit="10"/>
<path d="M267.572 140.219H213.576L173.961 111.852" stroke="white" stroke-width="15.0166" stroke-miterlimit="10"/>
<path d="M159.242 117.015C171.666 117.015 181.738 106.943 181.738 94.5192C181.738 82.0951 171.666 72.0234 159.242 72.0234C146.818 72.0234 136.746 82.0951 136.746 94.5192C136.746 106.943 146.818 117.015 159.242 117.015Z" stroke="white" stroke-width="15.0166" stroke-miterlimit="10"/>
<path d="M273.279 250.867H168.584L128.969 279.234" stroke="white" stroke-width="15.0166" stroke-miterlimit="10"/>
<path d="M114.254 319.054C126.678 319.054 136.749 308.982 136.749 296.558C136.749 284.134 126.678 274.062 114.254 274.062C101.829 274.062 91.7578 284.134 91.7578 296.558C91.7578 308.982 101.829 319.054 114.254 319.054Z" stroke="white" stroke-width="15.0166" stroke-miterlimit="10"/>
<path d="M335.06 307.112H210.208L173.968 337.728M132.441 211.898H46.7656M287.907 211.898H149.312" stroke="white" stroke-width="15.0166" stroke-miterlimit="10"/>
</svg>
