<svg width="100" height="100" viewBox="0 0 100 100" fill="none" xmlns="http://www.w3.org/2000/svg">
<path d="M10 29.4874V21.2822C10 18.29 11.1895 15.4211 13.3054 13.3053C15.4213 11.1895 18.2901 10 21.2824 10H29.4878C31.1872 10 32.5649 11.3776 32.5649 13.077C32.5649 14.7763 31.1872 16.1539 29.4878 16.1539H21.2824C19.9223 16.1539 18.6183 16.6946 17.6565 17.6563C16.6948 18.6181 16.1541 19.9221 16.1541 21.2822V29.4874C16.1541 31.1868 14.7764 32.5644 13.077 32.5644C11.3776 32.5644 10 31.1868 10 29.4874Z" fill="black" stroke="black" stroke-linecap="round" stroke-linejoin="round"/>
<path d="M83.8444 29.4874V21.2822C83.8444 19.9221 83.3037 18.6181 82.342 17.6563C81.5009 16.8153 80.3982 16.2949 79.2249 16.178L78.716 16.1539H70.5106C68.8112 16.1539 67.4336 14.7763 67.4336 13.077C67.4336 11.3776 68.8112 10 70.5106 10H78.716L79.8298 10.0561C82.4131 10.3123 84.8414 11.4537 86.6931 13.3053C88.8089 15.4211 89.9985 18.29 89.9985 21.2822V29.4874C89.9985 31.1868 88.6208 32.5644 86.9214 32.5644C85.222 32.5644 83.8444 31.1868 83.8444 29.4874Z" fill="black" stroke="black" stroke-linecap="round" stroke-linejoin="round"/>
<path d="M83.8444 78.7177V70.5125C83.8444 68.8131 85.222 67.4355 86.9214 67.4355C88.6208 67.4355 89.9985 68.8131 89.9985 70.5125V78.7177C89.9985 81.7099 88.8089 84.5788 86.6931 86.6946C84.5772 88.8104 81.7083 89.9999 78.716 89.9999H70.5106C68.8112 89.9999 67.4336 88.6223 67.4336 86.9229C67.4336 85.2236 68.8112 83.846 70.5106 83.846H78.716C80.0762 83.846 81.3802 83.3053 82.342 82.3436C83.3037 81.3818 83.8444 80.0778 83.8444 78.7177Z" fill="black" stroke="black" stroke-linecap="round" stroke-linejoin="round"/>
<path d="M10 78.7177V70.5125C10 68.8131 11.3776 67.4355 13.077 67.4355C14.7764 67.4355 16.1541 68.8131 16.1541 70.5125V78.7177L16.1781 79.2265C16.295 80.3998 16.8154 81.5025 17.6565 82.3436C18.6183 83.3053 19.9223 83.846 21.2824 83.846H29.4878C31.1872 83.846 32.5649 85.2236 32.5649 86.9229C32.5649 88.6223 31.1872 89.9999 29.4878 89.9999H21.2824C18.2901 89.9999 15.4213 88.8104 13.3054 86.6946C11.4537 84.8429 10.3123 82.4147 10.0561 79.8315L10 78.7177Z" fill="black" stroke="black" stroke-linecap="round" stroke-linejoin="round"/>
<path d="M51.0257 50.0009C51.0257 49.4344 50.5665 48.9752 50 48.9752C49.4336 48.9752 48.9744 49.4344 48.9744 50.0009C48.9744 50.5673 49.4336 51.0265 50 51.0265C50.5665 51.0265 51.0257 50.5673 51.0257 50.0009ZM57.1798 50.0009C57.1798 53.966 53.9653 57.1804 50 57.1804C46.0348 57.1804 42.8203 53.966 42.8203 50.0009C42.8203 46.0357 46.0348 42.8213 50 42.8213C53.9653 42.8213 57.1798 46.0357 57.1798 50.0009Z" fill="black" stroke="black" stroke-linecap="round" stroke-linejoin="round"/>
<path d="M51.2581 26.4498C57.5417 26.6835 63.646 28.6629 68.8789 32.1791C74.1112 35.695 78.2519 40.5971 80.8424 46.3258L81.3392 47.4837L81.3953 47.6319C81.9308 49.1649 81.9308 50.8346 81.3953 52.3676L81.3392 52.5158C78.7985 58.7415 74.46 64.0701 68.8789 67.8205C63.646 71.3367 57.5417 73.3161 51.2581 73.5497L50 73.5737C43.2755 73.5737 36.7026 71.5709 31.1212 67.8205C25.8889 64.3045 21.7481 59.4025 19.1576 53.6737L18.6608 52.5158C18.6411 52.4675 18.6219 52.4168 18.6047 52.3676C18.0693 50.8347 18.0692 49.1649 18.6047 47.6319L18.6608 47.4837L19.1576 46.3258C21.7481 40.5971 25.8889 35.695 31.1212 32.1791C36.7026 28.4286 43.2755 26.4258 50 26.4258L51.2581 26.4498ZM48.9703 32.5997C43.8294 32.791 38.836 34.4105 34.5548 37.2873C30.0255 40.3307 26.4959 44.6431 24.4102 49.6833C24.3441 49.8865 24.3419 50.1046 24.4062 50.3083C26.4914 55.3521 30.023 59.6671 34.5548 62.7122C39.1214 65.7808 44.4982 67.4198 50 67.4198L51.0297 67.3998C56.1706 67.2086 61.164 65.589 65.4453 62.7122C69.9766 59.6674 73.5045 55.3515 75.5898 50.3083C75.6546 50.1038 75.6525 49.8873 75.5858 49.6833C73.5 44.6437 69.974 40.3304 65.4453 37.2873C60.8787 34.2188 55.5018 32.5797 50 32.5797L48.9703 32.5997Z" fill="black" stroke="black" stroke-linecap="round" stroke-linejoin="round"/>
</svg>
