<svg width="512" height="512" viewBox="0 0 512 512" fill="none" xmlns="http://www.w3.org/2000/svg">
<path d="M192 277.333H249.536C235.554 288.434 224.94 303.208 218.88 320H192V277.333ZM512 352V512H256V352C256 322.581 279.915 298.667 309.333 298.667H320V288C320 270.357 334.357 256 352 256H416C433.643 256 448 270.357 448 288V298.667H458.667C488.085 298.667 512 322.581 512 352ZM298.667 352V384H469.333V352C469.333 346.133 464.533 341.333 458.667 341.333H309.333C303.467 341.333 298.667 346.133 298.667 352ZM469.333 469.333V426.667H405.333V448H362.667V426.667H298.667V469.333H469.333ZM42.6667 64C42.6667 58.342 44.9143 52.9158 48.9151 48.9151C52.9158 44.9143 58.342 42.6667 64 42.6667H277.333C282.991 42.6667 288.418 44.9143 292.418 48.9151C296.419 52.9158 298.667 58.342 298.667 64V236.053C310.075 224.233 325.08 216.528 341.333 214.144V64C341.333 28.7147 312.619 0 277.333 0H64C28.7147 0 0 28.7147 0 64V512H213.333V469.333H42.6667V64ZM149.333 277.333H85.3333V320H149.333V277.333ZM85.3333 405.333H149.333V362.667H85.3333V405.333ZM149.333 106.667H85.3333V149.333H149.333V106.667ZM256 106.667H192V149.333H256V106.667ZM149.333 192H85.3333V234.667H149.333V192ZM192 234.667H256V192H192V234.667Z" fill="#024D81"/>
</svg>
