<svg width="39" height="38" viewBox="0 0 39 38" fill="none" xmlns="http://www.w3.org/2000/svg">
<path d="M5.41057 9.03675C5.48308 9.03532 5.55559 9.03389 5.63029 9.03241C6.21559 9.12614 6.59861 9.55357 6.99864 9.95686C7.05835 10.0162 7.11806 10.0755 7.17959 10.1366C7.37596 10.332 7.57151 10.5282 7.76701 10.7245C7.90361 10.8609 8.04025 10.9973 8.17691 11.1337C8.46286 11.4193 8.74835 11.7053 9.03356 11.9916C9.36273 12.3219 9.69269 12.6515 10.0231 12.9807C10.3418 13.2982 10.6598 13.6164 10.9776 13.9348C11.1125 14.0699 11.2476 14.2048 11.3829 14.3396C11.5718 14.5279 11.76 14.717 11.948 14.9062C12.0039 14.9617 12.0598 15.0172 12.1174 15.0743C12.5321 15.494 12.8054 15.8692 12.8261 16.4801C12.6858 17.3073 11.9944 17.8405 11.4235 18.4009C11.2975 18.5256 11.1716 18.6503 11.0456 18.775C10.8489 18.9694 10.652 19.1637 10.4548 19.3575C10.2631 19.5461 10.0721 19.7353 9.88115 19.9247C9.82194 19.9825 9.76273 20.0404 9.70173 20.1C9.64704 20.1544 9.59234 20.2088 9.53599 20.2649C9.48785 20.3123 9.43972 20.3598 9.39013 20.4086C9.1608 20.6876 9.09801 20.9652 9.09287 21.3203C9.09077 21.3858 9.08867 21.4512 9.0865 21.5186C9.17181 22.0761 9.54004 22.534 9.86639 22.9785C9.92983 23.0656 9.92983 23.0656 9.99456 23.1544C10.3725 23.6676 10.7742 24.1544 11.1957 24.6321C11.2459 24.6905 11.296 24.7488 11.3477 24.809C12.1566 25.7341 13.0334 26.629 14.0119 27.3741C14.0859 27.4329 14.1599 27.4916 14.2362 27.5522C14.6711 27.8958 15.117 28.2189 15.5774 28.5275C15.6248 28.5593 15.6722 28.5912 15.7211 28.624C16.0597 28.8476 16.2989 28.9423 16.703 28.949C16.7715 28.9509 16.8399 28.9528 16.9105 28.9548C17.3301 28.9071 17.6165 28.6886 17.9051 28.3939C17.9674 28.3308 18.0297 28.2677 18.0939 28.2028C18.193 28.101 18.193 28.101 18.294 27.9971C18.3637 27.9265 18.4334 27.8559 18.5032 27.7853C18.7236 27.5624 18.9431 27.3387 19.1625 27.1148C19.4168 26.8551 19.6716 26.5958 19.9273 26.3375C20.029 26.2344 20.13 26.1306 20.231 26.0268C20.2933 25.9637 20.3556 25.9006 20.4198 25.8357C20.4741 25.7802 20.5284 25.7248 20.5843 25.6676C20.9109 25.3891 21.2132 25.2672 21.6405 25.2667C21.713 25.2652 21.7855 25.2638 21.8602 25.2623C22.4455 25.3561 22.8285 25.7835 23.2285 26.1868C23.3181 26.2758 23.3181 26.2758 23.4095 26.3665C23.6059 26.5619 23.8014 26.7581 23.9969 26.9544C24.1335 27.0908 24.2702 27.2273 24.4068 27.3636C24.6928 27.6492 24.9783 27.9352 25.2635 28.2215C25.5926 28.5518 25.9226 28.8814 26.253 29.2106C26.5717 29.5281 26.8897 29.8463 27.2075 30.1648C27.3424 30.2998 27.4775 30.4347 27.6128 30.5695C27.8017 30.7578 27.9899 30.9469 28.1779 31.1362C28.2338 31.1916 28.2897 31.2471 28.3473 31.3042C28.7416 31.7033 29.0128 32.0433 29.019 32.6266C29.0224 32.7341 29.0224 32.7341 29.0259 32.8437C28.9189 33.4196 28.4766 33.8415 28.0741 34.2402C28.0226 34.2919 27.9711 34.3436 27.9181 34.3969C27.8095 34.5056 27.7006 34.6141 27.5915 34.7223C27.4274 34.8852 27.2645 35.0493 27.1017 35.2135C25.5372 36.7806 23.7935 37.9703 21.5028 38C17.8122 37.9942 14.7377 35.5766 11.9368 33.377C11.8741 33.3279 11.8115 33.2788 11.7469 33.2282C11.0377 32.6667 10.3474 32.0815 9.67889 31.4721C9.56233 31.3664 9.44523 31.2613 9.32732 31.1571C8.84479 30.7297 8.38584 30.2821 7.93113 29.8256C7.80949 29.7036 7.68746 29.5819 7.56538 29.4603C7.15418 29.0494 6.75462 28.6331 6.37862 28.1893C6.30206 28.1019 6.22534 28.0146 6.14848 27.9274C5.24502 26.8956 4.40538 25.825 3.60172 24.7137C3.52793 24.6123 3.45313 24.5117 3.37718 24.412C3.20262 24.1795 3.09159 24.0199 3.07613 23.7289C3.11782 23.4464 3.11782 23.4464 3.23361 23.2611C3.48772 23.1047 3.63971 23.1036 3.93302 23.1499C4.27611 23.4438 4.52321 23.8082 4.78528 24.1736C5.23684 24.7949 5.70882 25.3945 6.19867 25.9859C6.34992 26.1694 6.49826 26.3551 6.64727 26.5404C6.94536 26.9048 7.2604 27.2507 7.58116 27.595C7.73099 27.7562 7.87491 27.9214 8.018 28.0886C8.34226 28.4606 8.69078 28.8081 9.04027 29.1561C9.15289 29.2684 9.26511 29.381 9.37729 29.4936C9.77312 29.8897 10.1771 30.2709 10.6028 30.6349C10.7173 30.7397 10.8316 30.8446 10.9456 30.9499C11.3191 31.287 11.7107 31.5959 12.1082 31.9038C12.2894 32.0443 12.4683 32.1872 12.6455 32.3328C13.3157 32.8823 14.0141 33.3772 14.7348 33.8584C14.8857 33.9595 15.0359 34.0615 15.1857 34.1641C17.4207 35.7061 17.4207 35.7061 19.9406 36.6378C19.9986 36.6506 20.0565 36.6634 20.1163 36.6766C21.4453 36.9172 22.8327 36.673 24.0166 36.0449C24.1047 35.9998 24.1047 35.9998 24.1946 35.9537C24.6038 35.7276 24.9578 35.4473 25.3135 35.1463C25.3816 35.0891 25.3816 35.0891 25.451 35.0307C25.4935 34.9938 25.536 34.9568 25.5798 34.9188C25.6368 34.8695 25.6368 34.8695 25.6949 34.8192C25.8103 34.6946 25.8703 34.5669 25.9434 34.4145C25.9055 34.3768 25.8676 34.339 25.8286 34.3002C25.4718 33.9449 25.1152 33.5894 24.7588 33.2337C24.5755 33.0508 24.3922 32.868 24.2087 32.6854C23.9979 32.4755 23.7874 32.2654 23.5769 32.0552C23.5108 31.9895 23.4447 31.9238 23.3766 31.8561C23.2854 31.7649 23.2854 31.7649 23.1923 31.6718C23.1385 31.6181 23.0847 31.5645 23.0292 31.5092C22.8695 31.3381 22.8343 31.2533 22.8031 31.0194C22.8309 30.7832 22.8309 30.7832 22.9883 30.5701C23.2014 30.4126 23.2014 30.4126 23.4098 30.357C23.9852 30.4924 24.4579 31.1402 24.8642 31.5494C24.921 31.6063 24.9777 31.6631 25.0361 31.7217C25.2152 31.9012 25.3941 32.0809 25.5729 32.2607C25.6951 32.3833 25.8174 32.5059 25.9397 32.6285C26.2376 32.9272 26.5352 33.2261 26.8328 33.5252C27.0763 33.409 27.2529 33.2818 27.4488 33.0944C27.502 33.0451 27.5552 32.9957 27.61 32.9448C27.742 32.7921 27.742 32.7921 27.7063 32.6055C27.6418 32.3935 27.5742 32.3023 27.4193 32.1462C27.3704 32.0964 27.3216 32.0465 27.2713 31.9951C27.2174 31.9416 27.1635 31.888 27.108 31.8329C27.0515 31.7756 26.9949 31.7183 26.9367 31.6593C26.7496 31.4701 26.5614 31.2821 26.373 31.0941C26.2427 30.9632 26.1125 30.8323 25.9822 30.7013C25.7091 30.4271 25.4354 30.1535 25.1614 29.8802C24.8444 29.5642 24.5289 29.2468 24.2141 28.9288C23.911 28.6229 23.6068 28.3181 23.302 28.0139C23.1725 27.8843 23.0433 27.7543 22.9145 27.624C22.7346 27.4423 22.5533 27.262 22.3717 27.0821C22.3184 27.0277 22.2651 26.9732 22.2102 26.9171C22.1605 26.8685 22.1108 26.8199 22.0597 26.7698C22.0169 26.727 21.9742 26.6843 21.9302 26.6402C21.7924 26.5407 21.7924 26.5407 21.6028 26.5732C21.3601 26.6539 21.2406 26.7863 21.0661 26.9712C21.0076 27.0324 20.949 27.0936 20.8887 27.1567C20.8229 27.2277 20.8229 27.2277 20.7558 27.3C20.861 27.5402 20.988 27.6971 21.1753 27.8796C21.228 27.9315 21.2806 27.9833 21.3349 28.0368C21.3899 28.0902 21.4449 28.1436 21.5015 28.1986C21.6106 28.3052 21.7196 28.4119 21.8284 28.5188C21.8767 28.5658 21.925 28.6128 21.9749 28.6612C22.1472 28.8426 22.1633 28.9248 22.187 29.1806C22.1639 29.4492 22.1639 29.4492 22.0527 29.6298C21.8473 29.7582 21.6891 29.7985 21.4467 29.7937C21.0589 29.6854 20.7986 29.3279 20.5335 29.0416C20.469 28.9744 20.4045 28.9073 20.3381 28.8381C20.1795 28.6725 20.0224 28.5057 19.8665 28.3376C19.6237 28.443 19.472 28.5703 19.2916 28.7628C19.239 28.8175 19.1865 28.8722 19.1323 28.9286C19.024 29.0427 18.9161 29.1574 18.8087 29.2725C18.2808 29.8189 17.6927 30.192 16.917 30.2121C15.369 30.2249 14.2744 29.2035 13.1226 28.2635C13.0835 28.2322 13.0445 28.2009 13.0043 28.1686C12.3688 27.6573 11.7874 27.0919 11.2096 26.5173C11.1734 26.4815 11.1373 26.4457 11.1 26.4088C10.6036 25.9166 10.1461 25.4039 9.71354 24.8544C9.67058 24.8007 9.62762 24.7469 9.58336 24.6915C9.13697 24.1298 8.71114 23.5581 8.32862 22.9507C8.28306 22.8789 8.28306 22.8789 8.23658 22.8055C7.80511 22.1028 7.73123 21.4264 7.8637 20.6253C8.08841 19.9393 8.51996 19.488 9.03266 18.9952C9.09814 18.931 9.16363 18.8669 9.2311 18.8008C9.39125 18.6441 9.55206 18.4881 9.71354 18.3328C9.61231 18.1062 9.49781 17.9505 9.32242 17.7757C9.27233 17.7254 9.22224 17.6751 9.17063 17.6233C9.11573 17.5689 9.06082 17.5145 9.00425 17.4585C8.9464 17.4006 8.88856 17.3428 8.82895 17.2831C8.63763 17.0919 8.44578 16.9012 8.25393 16.7105C8.12119 16.5781 7.98848 16.4456 7.8558 16.313C7.54217 15.9999 7.22821 15.6871 6.91409 15.3745C6.55643 15.0185 6.19919 14.6621 5.84198 14.3056C5.10732 13.5725 4.37212 12.8399 3.63658 12.1077C2.72283 12.5322 2.08556 13.7353 1.70975 14.6274C1.11486 16.3219 1.19028 18.0157 1.9506 19.639C2.11436 19.979 2.28604 20.3118 2.48036 20.6354C2.52203 20.705 2.52203 20.705 2.56453 20.7759C2.64007 20.8994 2.71819 21.0214 2.79649 21.1432C2.92002 21.4278 2.89622 21.5925 2.82138 21.8901C2.65155 22.0925 2.53552 22.1104 2.27483 22.1587C1.89512 22.0932 1.78154 21.8965 1.56153 21.5936C1.40169 21.3433 1.25778 21.0861 1.11687 20.8247C1.07815 20.7532 1.03942 20.6817 0.99952 20.608C0.075262 18.861 -0.305488 16.7655 0.277354 14.8338C0.867473 13.0911 1.9622 11.8277 3.24713 10.5469C3.4021 10.3921 3.55605 10.2364 3.70997 10.0806C3.80944 9.98101 3.90898 9.88142 4.00858 9.7819C4.07668 9.71277 4.07668 9.71277 4.14615 9.64225C4.52346 9.26897 4.86214 9.03747 5.41057 9.03675ZM5.05971 10.4332C4.98599 10.5089 4.91306 10.5854 4.84086 10.6625C4.80331 10.7014 4.76577 10.7403 4.72709 10.7803C4.63464 10.8763 4.54312 10.9731 4.45178 11.0701C4.55347 11.2981 4.66929 11.4542 4.84572 11.6301C4.89643 11.681 4.94714 11.7319 4.99939 11.7844C5.05499 11.8395 5.11059 11.8945 5.16787 11.9513C5.22644 12.0098 5.28501 12.0684 5.34536 12.1288C5.53909 12.3224 5.73334 12.5155 5.9276 12.7086C6.062 12.8428 6.19638 12.9769 6.33072 13.1111C6.64829 13.4282 6.96618 13.7449 7.28424 14.0615C7.64638 14.422 8.0081 14.7829 8.36979 15.1438C9.11367 15.8861 9.85808 16.6279 10.6028 17.3694C10.8635 17.2461 11.0471 17.1023 11.2559 16.9016C11.316 16.8453 11.3761 16.7891 11.438 16.7311C11.5868 16.5662 11.5868 16.5662 11.5517 16.3747C11.4856 16.1627 11.4158 16.0701 11.2602 15.914C11.2106 15.8636 11.161 15.8132 11.11 15.7613C11.0279 15.6801 11.0279 15.6801 10.9442 15.5974C10.8868 15.5395 10.8295 15.4816 10.7704 15.422C10.5805 15.2307 10.3895 15.0406 10.1984 14.8506C10.0663 14.7182 9.93417 14.5858 9.80211 14.4534C9.52516 14.176 9.24769 13.8991 8.96982 13.6227C8.64852 13.303 8.32831 12.9823 8.00864 12.6609C7.70102 12.3518 7.39258 12.0435 7.08378 11.7356C6.95246 11.6045 6.82136 11.4731 6.69048 11.3416C6.50774 11.1581 6.32408 10.9756 6.14014 10.7933C6.08588 10.7384 6.03163 10.6836 5.97573 10.6271C5.92554 10.5777 5.87536 10.5284 5.82365 10.4775C5.7803 10.4343 5.73695 10.391 5.69228 10.3465C5.43022 10.1603 5.28408 10.2402 5.05971 10.4332Z" fill="black"/>
<path d="M26.6802 0.00010218C26.7654 0.000162633 26.7654 0.000162633 26.8524 0.000224308C29.7829 0.00974587 32.3804 1.09509 34.5404 3.06637C34.5993 3.12006 34.6583 3.17375 34.719 3.22906C35.8936 4.35185 36.7753 5.78061 37.3565 7.29059C37.3906 7.37762 37.4247 7.46465 37.4599 7.55432C38.4713 10.3442 38.231 13.5408 37.0138 16.2207C36.483 17.3353 35.7438 18.3171 34.9109 19.2222C34.8611 19.2773 34.8112 19.3324 34.7598 19.3892C33.0172 21.2246 30.2865 22.5215 27.7476 22.6443C25.3534 22.6819 23.2497 22.4148 21.1266 21.2231C21.0533 21.182 21.0533 21.182 20.9785 21.1401C20.1828 20.686 19.4999 20.1403 18.8292 19.5186C18.7723 19.4669 18.7154 19.4152 18.6567 19.362C16.7012 17.5058 15.4764 14.6828 15.3921 12.0038C15.3375 9.72424 15.643 7.13649 17.1247 5.28964C17.426 5.19282 17.5681 5.18114 17.8565 5.3128C18.014 5.43786 18.014 5.43786 18.0881 5.58608C18.1309 5.97993 18.0044 6.24112 17.8195 6.57729C16.7057 8.70806 16.2416 11.3872 16.9024 13.7381C16.9183 13.7965 16.9343 13.8549 16.9507 13.915C17.3541 15.3474 18.0003 16.6857 18.9775 17.8141C19.0256 17.8706 19.0256 17.8706 19.0746 17.9282C20.6965 19.8226 23.0762 21.1281 25.5732 21.3713C25.6606 21.3812 25.748 21.391 25.838 21.4012C28.351 21.6273 31.0213 20.8612 32.9852 19.2636C33.0582 19.201 33.1312 19.1384 33.2064 19.0739C33.2632 19.0257 33.2632 19.0257 33.3212 18.9764C34.8162 17.6961 35.8541 16.0333 36.4255 14.155C36.4429 14.0978 36.4603 14.0407 36.4783 13.9818C36.7262 13.1125 36.7908 12.2489 36.7868 11.3481C36.7866 11.2976 36.7864 11.2471 36.7863 11.1951C36.7819 10.4158 36.7516 9.67487 36.5413 8.92099C36.5254 8.8625 36.5094 8.80402 36.493 8.74375C36.0896 7.31147 35.4433 5.97329 34.4663 4.84499C34.4342 4.80733 34.4021 4.76966 34.3691 4.73086C32.6248 2.69353 30.1607 1.48755 27.5004 1.23895C24.8573 1.04202 22.1931 1.88735 20.1817 3.61292C19.9654 3.80166 19.7542 3.99275 19.555 4.19972C19.3679 4.37786 19.2329 4.39512 18.9775 4.40033C18.7159 4.28145 18.6197 4.19716 18.4587 3.95568C18.4414 3.66824 18.4707 3.52086 18.6425 3.2887C20.1545 1.69777 22.312 0.579244 24.4615 0.176111C24.5292 0.163131 24.5969 0.150151 24.6667 0.136777C25.3384 0.0199003 26.0007 -0.00171834 26.6802 0.00010218Z" fill="black"/>
<path d="M32.156 3.96064C32.3375 4.10285 32.5131 4.2497 32.6875 4.40037C32.7436 4.44661 32.7997 4.49284 32.8575 4.54048C34.5089 5.93896 35.5372 8.05084 35.8001 10.1809C35.8152 10.5143 35.817 10.8475 35.8179 11.1812C35.8186 11.339 35.821 11.4966 35.8233 11.6544C35.8238 11.7555 35.8242 11.8566 35.8244 11.9578C35.8251 12.0488 35.8258 12.1398 35.8265 12.2335C35.7977 12.5003 35.7407 12.6376 35.5778 12.8488C35.3297 12.9728 35.2 13.0138 34.9293 12.9461C34.7626 12.8488 34.7626 12.8488 34.6144 12.6265C34.5954 12.4035 34.5954 12.4035 34.5941 12.1303C34.5928 12.0294 34.5915 11.9285 34.5901 11.8276C34.5896 11.775 34.5891 11.7223 34.5885 11.6681C34.5774 10.7467 34.5377 9.87564 34.2438 8.99514C34.2171 8.91269 34.1903 8.83025 34.1628 8.74531C33.4084 6.62233 31.8962 5.07712 29.8878 4.10382C29.4525 3.90813 28.9985 3.77883 28.5374 3.65928C28.4715 3.64199 28.4056 3.6247 28.3377 3.60688C26.2991 3.13928 24.1513 3.62677 22.3991 4.72025C21.4947 5.31881 20.6396 6.1305 20.089 7.0683C20.0627 7.11288 20.0365 7.15745 20.0095 7.20338C19.5789 7.94571 19.2605 8.68001 19.0514 9.5139C19.031 9.59466 19.031 9.59466 19.0101 9.67705C18.7181 10.9523 18.7858 12.4237 19.1997 13.664C19.2399 13.7881 19.2399 13.7881 19.281 13.9147C19.8614 15.5478 20.9584 17.0624 22.4605 17.9623C22.5037 17.9884 22.5469 18.0145 22.5914 18.0413C24.4242 19.1279 26.5137 19.4859 28.5927 18.9789C29.8274 18.6586 30.8765 18.086 31.8723 17.2954C31.9503 17.2373 32.0282 17.1792 32.1086 17.1194C32.8671 16.4114 33.4401 15.5246 33.9045 14.6043C34.0215 14.4051 34.0215 14.4051 34.2438 14.2569C34.5171 14.2212 34.6559 14.2399 34.9015 14.3681C35.0844 14.5832 35.0905 14.708 35.0825 14.985C35.0418 15.2649 34.9125 15.4814 34.7672 15.7205C34.7371 15.7718 34.707 15.8231 34.676 15.8759C33.3559 18.0818 31.3478 19.5893 28.8677 20.2258C28.1659 20.3967 27.4835 20.4259 26.7634 20.4265C26.7119 20.4265 26.6603 20.4266 26.6072 20.4266C25.8454 20.4255 25.1261 20.3957 24.3873 20.1856C24.2964 20.1604 24.2054 20.1352 24.1117 20.1092C22.5445 19.63 21.2292 18.7629 20.089 17.5918C20.0523 17.5593 20.0156 17.5268 19.9778 17.4934C18.9208 16.5244 18.2424 15.0226 17.8657 13.664C17.842 13.5807 17.8183 13.4974 17.7939 13.4116C17.4741 12.0493 17.4829 10.3412 17.8657 8.99514C17.8909 8.90419 17.9161 8.81325 17.9421 8.71954C18.6708 6.33655 20.2776 4.43473 22.4388 3.23065C25.5036 1.60426 29.3703 1.92522 32.156 3.96064Z" fill="black"/>
<path d="M26.7216 6.66995C26.7789 6.66938 26.8362 6.6688 26.8952 6.66821C27.0947 6.70507 27.1573 6.75832 27.2774 6.92007C27.3458 7.13749 27.3609 7.33476 27.3614 7.56195C27.3617 7.63104 27.362 7.70013 27.3623 7.77131C27.3623 7.84658 27.3623 7.92186 27.3622 7.99941C27.3625 8.07909 27.3627 8.15877 27.363 8.24087C27.3637 8.50454 27.3638 8.76822 27.3639 9.03189C27.3642 9.21501 27.3644 9.39813 27.3647 9.58125C27.3651 9.9652 27.3653 10.3491 27.3652 10.7331C27.3652 11.2254 27.3662 11.7176 27.3675 12.2099C27.3683 12.5881 27.3685 12.9663 27.3684 13.3445C27.3685 13.526 27.3688 13.7076 27.3694 13.8891C27.3701 14.1428 27.3699 14.3964 27.3695 14.6501C27.3699 14.7253 27.3703 14.8004 27.3707 14.8778C27.3673 15.6491 27.3673 15.6491 27.055 15.9614C26.9025 15.9837 26.9025 15.9837 26.7262 15.9845C26.6392 15.9864 26.6392 15.9864 26.5505 15.9883C26.3455 15.9543 26.2924 15.9017 26.1657 15.7391C26.1378 15.5746 26.1378 15.5746 26.1375 15.379C26.1369 15.3048 26.1362 15.2306 26.1356 15.1542C26.1361 15.0729 26.1365 14.9916 26.137 14.9078C26.1366 14.8221 26.1362 14.7364 26.1358 14.6481C26.1348 14.3641 26.1355 14.0801 26.1362 13.796C26.1361 13.5991 26.1358 13.4023 26.1356 13.2054C26.1352 12.7925 26.1357 12.3795 26.1367 11.9666C26.138 11.4891 26.1376 11.0116 26.1363 10.5341C26.1353 10.1243 26.1352 9.7144 26.1358 9.30454C26.1361 9.0597 26.1361 8.81487 26.1354 8.57002C26.1349 8.29711 26.1357 8.02424 26.137 7.75134C26.1365 7.67002 26.1361 7.5887 26.1356 7.50493C26.1362 7.43074 26.1369 7.35655 26.1375 7.28011C26.1376 7.21557 26.1377 7.15103 26.1378 7.08453C26.1958 6.74341 26.4006 6.66674 26.7216 6.66995Z" fill="black"/>
<path d="M30.7977 8.52267C30.855 8.5221 30.9124 8.52153 30.9714 8.52094C31.1709 8.55779 31.2335 8.61104 31.3535 8.77279C31.4349 9.02003 31.4375 9.25293 31.4384 9.51198C31.4389 9.60127 31.4394 9.69056 31.4398 9.78255C31.4399 9.87875 31.44 9.97494 31.4401 10.074C31.4403 10.1741 31.4406 10.2741 31.4408 10.3742C31.4413 10.5837 31.4414 10.7932 31.4414 11.0027C31.4414 11.2706 31.4424 11.5386 31.4437 11.8066C31.4445 12.0131 31.4446 12.2197 31.4446 12.4262C31.4447 12.5729 31.4455 12.7196 31.4463 12.8663C31.4461 12.9558 31.4459 13.0453 31.4457 13.1375C31.4458 13.2161 31.4459 13.2947 31.446 13.3757C31.4196 13.6835 31.3505 13.8894 31.1312 14.1087C30.9787 14.1309 30.9787 14.1309 30.8024 14.1318C30.7154 14.1337 30.7154 14.1337 30.6266 14.1356C30.4177 14.1009 30.3669 14.0568 30.2419 13.8863C30.2137 13.667 30.2137 13.667 30.2131 13.3952C30.2127 13.3457 30.2124 13.2961 30.212 13.2451C30.211 13.0813 30.2116 12.9176 30.2124 12.7538C30.2122 12.64 30.212 12.5263 30.2117 12.4125C30.2114 12.174 30.2119 11.9355 30.2129 11.697C30.2142 11.3912 30.2135 11.0855 30.2121 10.7797C30.2113 10.5447 30.2116 10.3097 30.2122 10.0748C30.2123 9.96201 30.2121 9.84926 30.2116 9.73651C30.211 9.57895 30.2119 9.42146 30.2131 9.26391C30.2133 9.17423 30.2135 9.08455 30.2137 8.99216C30.2419 8.77279 30.2419 8.77279 30.3449 8.63278C30.5025 8.52409 30.6075 8.52077 30.7977 8.52267Z" fill="black"/>
<path d="M22.6459 8.52267C22.7032 8.5221 22.7605 8.52153 22.8196 8.52094C23.019 8.55779 23.0817 8.61104 23.2017 8.77279C23.2831 9.02003 23.2856 9.25293 23.2866 9.51198C23.287 9.60127 23.2875 9.69056 23.288 9.78255C23.2881 9.87875 23.2882 9.97494 23.2882 10.074C23.2885 10.1741 23.2887 10.2741 23.289 10.3742C23.2894 10.5837 23.2896 10.7932 23.2895 11.0027C23.2895 11.2706 23.2905 11.5386 23.2918 11.8066C23.2926 12.0131 23.2928 12.2197 23.2927 12.4262C23.2929 12.5729 23.2937 12.7196 23.2945 12.8663C23.2943 12.9558 23.294 13.0453 23.2938 13.1375C23.2939 13.2161 23.294 13.2947 23.2941 13.3757C23.2678 13.6835 23.1986 13.8894 22.9794 14.1087C22.8268 14.1309 22.8268 14.1309 22.6505 14.1318C22.5635 14.1337 22.5635 14.1337 22.4748 14.1356C22.2659 14.1009 22.2151 14.0568 22.09 13.8863C22.0618 13.667 22.0618 13.667 22.0613 13.3952C22.0609 13.3457 22.0605 13.2961 22.0601 13.2451C22.0591 13.0813 22.0598 12.9176 22.0605 12.7538C22.0604 12.64 22.0602 12.5263 22.0599 12.4125C22.0595 12.174 22.06 11.9355 22.0611 11.697C22.0623 11.3912 22.0616 11.0855 22.0603 10.7797C22.0595 10.5447 22.0597 10.3097 22.0603 10.0748C22.0604 9.96201 22.0603 9.84926 22.0597 9.73651C22.0592 9.57895 22.06 9.42146 22.0613 9.26391C22.0615 9.17423 22.0616 9.08455 22.0618 8.99216C22.09 8.77279 22.09 8.77279 22.193 8.63278C22.3506 8.52409 22.4556 8.52077 22.6459 8.52267Z" fill="black"/>
<path d="M28.7596 9.62506C28.8085 9.62429 28.8574 9.62353 28.9078 9.62274C29.132 9.6823 29.2112 9.77435 29.3524 9.95855C29.3819 10.1743 29.394 10.3614 29.3918 10.5769C29.3921 10.6366 29.3924 10.6964 29.3927 10.7579C29.3929 10.884 29.3923 11.0101 29.3911 11.1362C29.3895 11.3289 29.3911 11.5215 29.393 11.7143C29.3928 11.8369 29.3924 11.9596 29.3918 12.0822C29.3924 12.1398 29.393 12.1973 29.3936 12.2565C29.389 12.522 29.3748 12.6714 29.211 12.885C29.043 13.0064 28.9645 13.0373 28.7596 13.0341C28.6862 13.0352 28.6862 13.0352 28.6113 13.0364C28.3871 12.9768 28.3079 12.8848 28.1667 12.7006C28.1372 12.4849 28.1251 12.2978 28.1273 12.0822C28.127 12.0225 28.1267 11.9628 28.1264 11.9012C28.1262 11.7751 28.1268 11.6491 28.128 11.523C28.1296 11.3302 28.128 11.1376 28.1261 10.9448C28.1263 10.8222 28.1267 10.6995 28.1273 10.5769C28.1267 10.5194 28.1261 10.4619 28.1255 10.4026C28.1301 10.1371 28.1443 9.98777 28.3081 9.77414C28.4761 9.6527 28.5546 9.62186 28.7596 9.62506Z" fill="black"/>
<path d="M24.6834 9.62506C24.7323 9.62429 24.7812 9.62353 24.8316 9.62274C25.0558 9.6823 25.135 9.77435 25.2763 9.95855C25.3057 10.1743 25.3179 10.3614 25.3156 10.5769C25.3159 10.6366 25.3162 10.6964 25.3165 10.7579C25.3167 10.884 25.3161 11.0101 25.3149 11.1362C25.3133 11.3289 25.3149 11.5215 25.3168 11.7143C25.3166 11.8369 25.3162 11.9596 25.3156 12.0822C25.3162 12.1398 25.3168 12.1973 25.3174 12.2565C25.3128 12.522 25.2987 12.6714 25.1348 12.885C24.9668 13.0064 24.8883 13.0373 24.6834 13.0341C24.61 13.0352 24.61 13.0352 24.5352 13.0364C24.3109 12.9768 24.2318 12.8848 24.0905 12.7006C24.061 12.4849 24.0489 12.2978 24.0511 12.0822C24.0509 12.0225 24.0506 11.9628 24.0503 11.9012C24.0501 11.7751 24.0506 11.6491 24.0519 11.523C24.0534 11.3302 24.0519 11.1376 24.05 10.9448C24.0502 10.8222 24.0506 10.6995 24.0511 10.5769C24.0505 10.5194 24.0499 10.4619 24.0493 10.4026C24.0539 10.1371 24.0681 9.98777 24.2319 9.77414C24.4 9.6527 24.4785 9.62186 24.6834 9.62506Z" fill="black"/>
<path d="M32.8356 9.9956C32.8845 9.99484 32.9334 9.99407 32.9838 9.99329C33.201 10.051 33.2872 10.1562 33.4284 10.3291C33.4668 10.5337 33.4668 10.5337 33.4678 10.7665C33.4682 10.8508 33.4686 10.9351 33.469 11.022C33.4672 11.1536 33.4672 11.1536 33.4655 11.2879C33.4666 11.3753 33.4678 11.4628 33.469 11.5529C33.4686 11.6373 33.4682 11.7217 33.4678 11.8087C33.4675 11.8856 33.4671 11.9625 33.4668 12.0417C33.4191 12.3081 33.3184 12.4338 33.132 12.6265C32.9838 12.6731 32.9838 12.6731 32.8356 12.6682C32.7866 12.6683 32.7377 12.6684 32.6873 12.6685C32.4709 12.6072 32.3837 12.5037 32.2427 12.33C32.2043 12.1174 32.2043 12.1174 32.2033 11.8738C32.2029 11.7858 32.2025 11.6978 32.2021 11.6072C32.2033 11.5156 32.2044 11.424 32.2056 11.3296C32.2045 11.238 32.2033 11.1463 32.2021 11.0519C32.2025 10.964 32.2029 10.876 32.2033 10.7853C32.2036 10.7049 32.204 10.6245 32.2043 10.5417C32.2676 10.1907 32.4747 9.98996 32.8356 9.9956Z" fill="black"/>
<path d="M20.608 9.9956C20.6569 9.99484 20.7058 9.99407 20.7562 9.99329C20.9742 10.0512 21.0597 10.1551 21.2009 10.3291C21.2392 10.5417 21.2392 10.5417 21.2403 10.7853C21.2406 10.8733 21.241 10.9613 21.2414 11.0519C21.2403 11.1436 21.2391 11.2352 21.2379 11.3296C21.2391 11.4212 21.2402 11.5128 21.2414 11.6072C21.241 11.6952 21.2406 11.7832 21.2403 11.8738C21.2399 11.9542 21.2396 12.0346 21.2392 12.1174C21.1923 12.3776 21.1094 12.4648 20.9044 12.6265C20.7562 12.6685 20.7562 12.6685 20.608 12.6682C20.5346 12.6706 20.5346 12.6706 20.4598 12.6731C20.2275 12.6001 20.1486 12.4545 20.0151 12.2559C19.9768 12.0417 19.9768 12.0417 19.9758 11.8087C19.9754 11.7243 19.975 11.6399 19.9746 11.5529C19.9758 11.4654 19.9769 11.378 19.9781 11.2879C19.9769 11.2001 19.9758 11.1124 19.9746 11.022C19.975 10.9377 19.9754 10.8534 19.9758 10.7665C19.9761 10.6897 19.9764 10.6129 19.9768 10.5337C20.0417 10.1872 20.2529 9.99005 20.608 9.9956Z" fill="black"/>
</svg>
