<svg width="38" height="40" viewBox="0 0 38 40" fill="none" xmlns="http://www.w3.org/2000/svg">
<path d="M20.7923 16.9037C20.8844 16.9445 20.9764 16.9853 21.0713 17.0274C22.492 17.7227 23.4256 18.8678 23.9758 20.3453C24.4118 21.7616 24.2487 23.3877 23.5833 24.6957C23.2531 25.3091 22.8368 25.7921 22.3411 26.2821C22.2615 26.3617 22.182 26.4414 22.1001 26.5234C22.0064 26.6169 22.0064 26.6169 21.9109 26.7123C21.9818 26.7204 22.0528 26.7285 22.126 26.7369C22.485 26.8102 22.7856 26.9378 23.1154 27.0941C23.1793 27.1244 23.2432 27.1547 23.309 27.1859C24.3078 27.6758 25.1532 28.3551 25.9548 29.1215C26.0127 29.1739 26.0706 29.2264 26.1302 29.2804C27.4433 30.5125 28.7285 32.7102 28.8049 34.542C28.8013 34.5988 28.7978 34.6556 28.7941 34.7141C29.1893 34.4672 29.5153 34.1953 29.8427 33.8645C29.8911 33.8157 29.9394 33.7669 29.9892 33.7167C32.7559 30.874 34.349 26.9317 34.3184 22.976C34.3168 22.7637 34.3167 22.5514 34.3167 22.339C34.3163 22.2017 34.3158 22.0643 34.3152 21.927C34.315 21.8335 34.315 21.8335 34.3149 21.7382C34.3111 21.3247 34.2712 20.927 34.2147 20.5174C34.1519 19.7717 34.1519 19.7717 34.3384 19.4311C34.6586 19.2593 34.9774 19.2401 35.3332 19.3128C35.5989 19.4973 35.6457 19.7182 35.7042 20.0269C35.7142 20.088 35.7242 20.149 35.7345 20.2119C35.7454 20.2763 35.7562 20.3407 35.7674 20.407C35.8869 21.1823 35.889 21.9556 35.8817 22.7383C35.8812 22.8518 35.8812 22.8518 35.8806 22.9675C35.8743 24.0623 35.8369 25.1252 35.5913 26.1961C35.5766 26.265 35.5618 26.334 35.5466 26.405C34.9029 29.3841 33.5362 32.1049 31.4688 34.3464C31.302 34.5282 31.1421 34.7141 30.9828 34.9023C30.6803 35.2473 30.352 35.5407 29.9987 35.8326C29.9566 35.8685 29.9145 35.9045 29.8712 35.9414C27.6847 37.8051 25.0963 39.0518 22.2927 39.6668C22.1953 39.6886 22.1953 39.6886 22.0959 39.7108C21.6577 39.7983 21.1988 39.8529 20.8031 39.6023C20.6197 39.3068 20.6005 39.0361 20.6633 38.6989C20.9739 38.22 21.7214 38.1564 22.2443 38.0428C24.0723 37.6222 25.8778 36.9216 27.4175 35.8326C27.3242 33.5902 26.2232 31.4561 24.605 29.9281C22.809 28.376 20.4996 27.5479 18.1217 27.6749C16.2117 27.8246 14.4291 28.4773 12.9626 29.7237C12.8889 29.7836 12.8151 29.8435 12.7391 29.9052C11.1366 31.2625 10.0988 33.3201 9.86515 35.4024C9.85273 35.4744 9.84031 35.5464 9.82751 35.6206C9.84585 35.8576 9.84585 35.8576 10.09 36.0168C10.195 36.0792 10.3012 36.1396 10.4083 36.1983C10.4658 36.2311 10.5233 36.2639 10.5826 36.2977C12.1822 37.1929 13.8065 37.8242 15.6076 38.1709C16.3286 38.3184 16.3286 38.3184 16.5763 38.672C16.675 38.9812 16.6896 39.1252 16.5602 39.4248C16.3951 39.6298 16.3018 39.6964 16.0601 39.7905C12.6904 39.8927 9.01706 37.4432 6.644 35.2572C6.57237 35.1914 6.57237 35.1914 6.49929 35.1242C5.37957 34.0724 4.4246 32.7787 3.67022 31.4446C3.63966 31.3914 3.60911 31.3383 3.57762 31.2836C2.28064 29.0133 1.43009 26.3269 1.41568 23.6982C1.41519 23.6264 1.4147 23.5545 1.4142 23.4805C1.41339 23.3293 1.41282 23.178 1.41249 23.0268C1.41166 22.8004 1.40899 22.5741 1.40627 22.3478C1.40169 21.6249 1.42637 20.922 1.54743 20.2082C1.55748 20.1474 1.56752 20.0866 1.57787 20.0239C1.63673 19.7163 1.68499 19.497 1.9494 19.3128C2.30524 19.2401 2.62404 19.2593 2.94425 19.4311C3.18267 19.8665 3.09013 20.3555 3.02472 20.8326C2.97933 21.1933 2.96667 21.5487 2.96442 21.9118C2.96381 21.9771 2.9632 22.0424 2.96258 22.1097C2.93913 24.0817 2.93913 24.0817 3.24002 26.024C3.25711 26.0975 3.2742 26.1711 3.29182 26.2469C4.04013 29.4122 5.69926 32.3704 8.14434 34.542C8.33108 34.6518 8.33108 34.6518 8.4885 34.7141C8.48972 34.667 8.49094 34.6198 8.4922 34.5713C8.61715 32.4944 9.9323 30.5699 11.3278 29.1215C11.378 29.0659 11.4281 29.0103 11.4798 28.9531C12.3122 28.0554 13.4106 27.4707 14.5114 26.9704C14.5659 26.9452 14.6205 26.9201 14.6768 26.8941C14.9241 26.7832 15.0975 26.7123 15.3718 26.7123C15.3093 26.65 15.2469 26.5877 15.1825 26.5234C15.103 26.4438 15.0235 26.3642 14.9416 26.2821C14.8736 26.2149 14.8056 26.1477 14.7355 26.0784C13.65 24.9526 13.081 23.6505 13.0971 22.0769C13.0978 21.9862 13.0985 21.8956 13.0992 21.8022C13.1141 21.1147 13.19 20.5461 13.4789 19.9151C13.5197 19.823 13.5605 19.731 13.6025 19.6361C14.2979 18.2154 15.443 17.2818 16.9205 16.7316C18.1177 16.3615 19.6467 16.3792 20.7923 16.9037ZM15.5089 19.4042C14.662 20.4338 14.4713 21.5435 14.5974 22.8405C14.7988 23.9073 15.467 24.8493 16.3451 25.4782C17.3847 26.1409 18.5097 26.281 19.7148 26.0536C20.8353 25.7177 21.7497 24.9356 22.3162 23.9224C22.8003 22.9555 22.8616 21.7696 22.5508 20.7325C22.1252 19.6492 21.3214 18.7841 20.2761 18.2803C19.7471 18.0625 19.2712 17.9771 18.7005 17.9846C18.5936 17.9856 18.5936 17.9856 18.4845 17.9867C17.2832 18.0196 16.33 18.5366 15.5089 19.4042Z" fill="black"/>
<path d="M18.8105 0C19.0746 0.0598131 19.1527 0.175024 19.3298 0.383822C19.4931 0.662072 19.635 0.950137 19.7774 1.23952C19.819 1.32266 19.8605 1.40579 19.9033 1.49145C19.9907 1.66674 20.0777 1.84219 20.1644 2.0178C20.2977 2.28746 20.4321 2.55654 20.5666 2.82556C20.6513 2.99593 20.736 3.16633 20.8207 3.33677C20.861 3.41761 20.9013 3.49845 20.9429 3.58174C20.9797 3.65641 21.0164 3.73108 21.0543 3.80802C21.0869 3.87385 21.1195 3.93969 21.1531 4.00751C21.2226 4.16962 21.2226 4.16962 21.2226 4.3417C21.2752 4.34867 21.3278 4.35564 21.3819 4.36282C21.9306 4.43579 22.4791 4.50997 23.0276 4.58484C23.2321 4.6126 23.4366 4.64005 23.6412 4.66719C23.9359 4.70632 24.2303 4.74657 24.5248 4.78702C24.6158 4.79887 24.7068 4.81071 24.8005 4.82291C25.2831 4.89039 25.695 4.97196 26.127 5.2021C26.2693 5.48686 26.2773 5.75703 26.213 6.06251C26.0471 6.32721 25.8337 6.53359 25.6107 6.75084C25.5486 6.81495 25.4865 6.87905 25.4225 6.9451C25.1318 7.24292 24.8362 7.52981 24.5191 7.79946C24.4653 7.85015 24.4115 7.90083 24.3561 7.95306C24.179 8.10152 24.0169 8.20518 23.819 8.32075C23.408 8.5945 23.1009 8.85134 22.9435 9.33206C22.8834 10.2687 23.1687 11.2476 23.3777 12.1533C23.7645 13.8346 23.7645 13.8346 23.492 14.3063C23.239 14.5393 23.1123 14.5617 22.7714 14.5805C22.5136 14.4868 22.5136 14.4868 22.2175 14.3278C22.1617 14.2988 22.1058 14.2697 22.0483 14.2398C21.7784 14.099 21.5105 13.9547 21.2426 13.8101C20.8921 13.6208 20.5408 13.433 20.1886 13.2467C20.0088 13.1509 19.8302 13.0531 19.6516 12.9552C19.5388 12.8953 19.4259 12.8354 19.3129 12.7757C19.2616 12.7469 19.2103 12.7181 19.1574 12.6884C18.8937 12.5517 18.7562 12.5096 18.4621 12.5707C18.2193 12.6839 17.9789 12.7973 17.7417 12.9219C17.6537 12.9679 17.5658 13.0139 17.4751 13.0613C17.3364 13.1346 17.3364 13.1346 17.1949 13.2093C17.0518 13.2838 17.0518 13.2838 16.9059 13.3599C16.4724 13.5863 16.0409 13.8151 15.6149 14.0552C15.5494 14.0917 15.4838 14.1281 15.4163 14.1656C15.2972 14.2322 15.1789 14.3001 15.0614 14.3695C14.6733 14.5853 14.4232 14.607 13.9952 14.4945C13.7801 14.3386 13.7801 14.3386 13.6511 14.0643C13.6244 13.044 13.9142 11.9795 14.0998 10.9806C14.1433 10.7449 14.1855 10.5091 14.2275 10.2731C14.2413 10.201 14.2551 10.1288 14.2693 10.0545C14.2811 9.98723 14.2928 9.91996 14.305 9.85066C14.3158 9.79187 14.3266 9.73308 14.3378 9.67251C14.3406 9.38042 14.2041 9.20185 14.0165 8.9883C13.9271 8.89942 13.9271 8.89942 13.8359 8.80876C13.7697 8.74271 13.7035 8.67666 13.6353 8.60861C13.5659 8.54035 13.4966 8.47208 13.4252 8.40174C13.3579 8.33448 13.2906 8.26721 13.2212 8.1979C12.8524 7.83183 12.4756 7.48051 12.082 7.14136C11.8819 6.9668 11.6928 6.78294 11.5054 6.59489C11.4408 6.53045 11.3761 6.46601 11.3095 6.39962C11.0558 6.12705 11.0535 5.9201 11.0332 5.55232C11.0909 5.2717 11.1774 5.19587 11.414 5.03002C11.7234 4.94242 12.0369 4.90103 12.3551 4.85794C12.4946 4.83735 12.4946 4.83735 12.637 4.81635C12.9462 4.77125 13.2555 4.72843 13.565 4.68586C13.6801 4.66972 13.7952 4.65353 13.9103 4.63729C14.6266 4.53629 15.3432 4.43782 16.0602 4.3417C16.0803 4.27374 16.1004 4.20577 16.1211 4.13575C16.2636 3.73816 16.4469 3.36821 16.6353 2.99059C16.6745 2.91152 16.7138 2.83245 16.7542 2.75098C16.837 2.58457 16.9199 2.41825 17.0031 2.25202C17.1303 1.99712 17.2565 1.74169 17.3826 1.48622C17.4632 1.32441 17.5439 1.16264 17.6247 1.0009C17.6812 0.886089 17.6812 0.886089 17.7388 0.768963C17.7744 0.698293 17.81 0.627623 17.8467 0.554812C17.8777 0.492554 17.9087 0.430296 17.9407 0.366151C18.1619 0.0193165 18.428 0.0162128 18.8105 0ZM18.6414 2.4488C18.6194 2.49066 18.5974 2.53253 18.5747 2.57566C18.5436 2.63483 18.5125 2.69401 18.4804 2.75498C18.4456 2.82132 18.4107 2.88765 18.3748 2.95599C18.2975 3.10287 18.22 3.24967 18.1424 3.3964C17.9467 3.76686 17.7527 4.13792 17.5636 4.51176C17.5295 4.57826 17.4954 4.64476 17.4604 4.71327C17.3957 4.83973 17.3317 4.96658 17.2687 5.09386C17.1024 5.41635 17.0036 5.59268 16.6625 5.71835C16.434 5.75966 16.2092 5.7942 15.9792 5.82321C15.8806 5.83656 15.8806 5.83656 15.78 5.85017C15.4995 5.88812 15.2189 5.92466 14.9382 5.96122C14.7331 5.98816 14.528 6.0159 14.3229 6.04369C14.2277 6.05566 14.2277 6.05566 14.1306 6.06788C13.8268 6.1092 13.6526 6.1475 13.3929 6.32063C13.6668 6.59704 13.9412 6.87295 14.2157 7.14878C14.2927 7.22653 14.3698 7.30428 14.4491 7.38438C14.7793 7.71578 15.1074 8.0434 15.4656 8.34461C15.7925 8.62277 15.7925 8.62277 15.818 8.90824C15.827 9.61178 15.7158 10.2768 15.587 10.9668C15.5463 11.189 15.5061 11.4113 15.466 11.6337C15.448 11.7308 15.4299 11.828 15.4114 11.9281C15.365 12.1728 15.365 12.1728 15.3719 12.4295C15.9018 12.2854 16.3583 12.0122 16.8346 11.7466C17.0801 11.6106 17.3257 11.4749 17.572 11.3403C17.7345 11.2506 17.8953 11.1576 18.0553 11.0633C18.4891 10.8904 18.86 10.9185 19.286 11.0826C19.3841 11.1356 19.4823 11.1885 19.5835 11.2431C19.6636 11.2855 19.6636 11.2855 19.7453 11.3287C19.914 11.4183 20.0817 11.5097 20.2493 11.6014C20.4181 11.692 20.587 11.7822 20.7561 11.8723C20.909 11.954 21.0614 12.0367 21.2138 12.1194C21.4432 12.238 21.6694 12.3391 21.911 12.4295C21.834 11.8072 21.7514 11.189 21.6343 10.5729C21.3371 8.99605 21.3371 8.99605 21.5725 8.55971C21.7032 8.398 21.8404 8.26418 21.997 8.12749C22.0449 8.08523 22.0928 8.04298 22.1422 7.99944C22.251 7.90498 22.3604 7.81126 22.4702 7.71812C22.9644 7.27491 23.4236 6.79282 23.8899 6.32063C23.5839 6.11665 23.3185 6.0901 22.963 6.04672C22.8285 6.02886 22.6941 6.01099 22.5596 5.99311C22.3482 5.9658 22.1368 5.93882 21.9253 5.91217C21.7207 5.88615 21.5164 5.85894 21.312 5.83161C21.2178 5.82031 21.2178 5.82031 21.1216 5.80877C20.7536 5.75899 20.4778 5.69968 20.1902 5.46023C20.0619 5.25356 19.9559 5.06026 19.8531 4.84181C19.8235 4.78167 19.794 4.72154 19.7635 4.65958C19.6698 4.46812 19.5777 4.2759 19.4857 4.08357C19.3924 3.89144 19.2988 3.69948 19.2051 3.50757C19.147 3.38832 19.0892 3.26891 19.0319 3.14933C18.9134 2.90353 18.7931 2.67633 18.6414 2.4488Z" fill="black"/>
<path d="M31.2005 5.50659C31.4589 5.56512 31.5461 5.69009 31.7198 5.89041C31.851 6.10645 31.9622 6.33102 32.0734 6.5579C32.1213 6.65396 32.1213 6.65396 32.1703 6.75195C32.2374 6.88673 32.3042 7.02168 32.3707 7.15678C32.4728 7.36413 32.576 7.57089 32.6793 7.7776C32.7445 7.90875 32.8096 8.03994 32.8746 8.17117C32.9055 8.23319 32.9364 8.29521 32.9683 8.35911C33.1825 8.79582 33.1825 8.79582 33.1825 8.98788C33.2897 9.00172 33.3969 9.01555 33.5074 9.02981C33.906 9.08164 34.3044 9.13531 34.7028 9.18954C34.8751 9.21273 35.0474 9.23542 35.2198 9.2576C35.468 9.28961 35.7158 9.32342 35.9637 9.35759C36.0789 9.37186 36.0789 9.37186 36.1965 9.38642C36.9532 9.49431 36.9532 9.49431 37.2264 9.84829C37.2979 10.1232 37.2989 10.3477 37.2264 10.6227C37.066 10.846 36.864 10.9923 36.6436 11.154C36.5225 11.2525 36.402 11.3516 36.282 11.4514C36.2198 11.5029 36.1575 11.5544 36.0934 11.6075C35.0643 12.4422 35.0643 12.4422 34.5736 13.6156C34.5713 14.365 34.7717 15.1129 35.0168 15.817C35.1601 16.2317 35.1937 16.5566 35.1614 16.9897C34.984 17.2478 34.984 17.2478 34.7312 17.4199C34.2155 17.4771 33.9017 17.3437 33.4641 17.1029C33.403 17.0707 33.3418 17.0384 33.2788 17.0052C33.0847 16.9026 32.8916 16.7984 32.6985 16.6939C32.5047 16.59 32.3107 16.4865 32.1163 16.3836C31.9958 16.3196 31.8756 16.2551 31.7558 16.1899C31.3287 15.9603 31.3287 15.9603 30.8594 15.8711C30.6465 15.944 30.6465 15.944 30.4396 16.0704C30.3608 16.1147 30.282 16.159 30.2008 16.2046C30.0769 16.2765 30.0769 16.2765 29.9506 16.3497C29.7801 16.4454 29.6096 16.541 29.439 16.6364C29.3574 16.6826 29.2757 16.7289 29.1916 16.7765C27.8477 17.5357 27.8477 17.5357 27.3317 17.4199C27.079 17.2478 27.079 17.2478 26.9015 16.9897C26.8646 16.4951 26.9425 16.1146 27.1052 15.6473C27.5375 14.3264 27.5375 14.3264 27.3183 13.0087C26.902 12.3996 26.3458 11.9187 25.7809 11.4514C25.7204 11.4011 25.6599 11.3508 25.5976 11.2989C25.4817 11.2047 25.3636 11.1132 25.2432 11.0248C25.012 10.8438 24.8619 10.7191 24.7856 10.4294C24.7652 10.0908 24.7899 9.90868 24.9996 9.63697C25.3614 9.45704 25.7008 9.40695 26.0992 9.35759C26.2186 9.34113 26.2186 9.34113 26.3405 9.32434C26.5936 9.28975 26.847 9.2571 27.1005 9.22449C27.2726 9.20132 27.4448 9.17802 27.6169 9.15459C28.0379 9.09755 28.4591 9.04226 28.8804 8.98788C28.9135 8.88012 28.9135 8.88012 28.9472 8.77017C29.0628 8.44251 29.2067 8.13538 29.3614 7.82499C29.3911 7.76501 29.4208 7.70504 29.4514 7.64325C29.5139 7.51734 29.5766 7.39153 29.6395 7.26581C29.7356 7.07322 29.8306 6.88012 29.9255 6.68696C29.9866 6.56437 30.0477 6.4418 30.1089 6.31927C30.1371 6.26156 30.1654 6.20384 30.1945 6.14437C30.4482 5.64189 30.6368 5.53049 31.2005 5.50659ZM31.0315 7.95539C31.0076 8.00131 30.9838 8.04723 30.9593 8.09454C30.8492 8.30643 30.7387 8.51809 30.6281 8.72976C30.5907 8.80196 30.5533 8.87417 30.5147 8.94856C30.439 9.09317 30.3623 9.23724 30.2845 9.38074C30.2109 9.51655 30.1395 9.65357 30.0707 9.79187C29.8834 10.1395 29.8022 10.2561 29.4182 10.3961C29.2967 10.4138 29.1747 10.4282 29.0525 10.4398C28.9886 10.4484 28.9248 10.457 28.859 10.4658C28.7287 10.4832 28.5983 10.4993 28.4678 10.5142C28.1862 10.5475 27.9074 10.5936 27.6275 10.6388C27.4716 10.6623 27.3156 10.6856 27.1596 10.7087C27.5484 11.1863 27.9756 11.6167 28.4152 12.0471C28.7494 12.3763 28.8934 12.5278 28.902 12.9942C28.8999 13.5117 28.8107 14.0032 28.7066 14.5083C28.6441 14.8226 28.6157 15.0486 28.7084 15.3549C28.7661 15.3241 28.8238 15.2932 28.8832 15.2615C29.1455 15.1218 29.4082 14.9829 29.6709 14.844C29.7617 14.7955 29.8525 14.747 29.946 14.697C30.0339 14.6507 30.1218 14.6044 30.2124 14.5567C30.293 14.5139 30.3737 14.4711 30.4568 14.427C30.7697 14.2851 30.9885 14.1957 31.324 14.3015C31.3942 14.3363 31.4643 14.3712 31.5366 14.4071C31.6533 14.464 31.6533 14.464 31.7724 14.522C31.8526 14.5626 31.9329 14.6032 32.0156 14.6451C32.1354 14.704 32.1354 14.704 32.2577 14.764C32.4805 14.8738 32.7026 14.985 32.9244 15.0968C33.0293 15.1492 33.1343 15.2017 33.2393 15.2541C33.3057 15.2873 33.3722 15.3206 33.4406 15.3549C33.4139 15.1344 33.387 14.9139 33.3599 14.6935C33.3525 14.6314 33.345 14.5693 33.3373 14.5054C33.3298 14.4447 33.3223 14.384 33.3146 14.3214C33.3078 14.266 33.301 14.2106 33.2941 14.1535C33.2754 14.0257 33.2522 13.8986 33.2263 13.772C33.1215 13.2365 33.0278 12.7485 33.3441 12.2721C33.567 12.0326 33.7986 11.8134 34.0429 11.596C34.2043 11.4452 34.3656 11.2943 34.5269 11.1433C34.599 11.0782 34.6711 11.0131 34.7453 10.9461C34.7975 10.8961 34.8496 10.8462 34.9033 10.7947C34.9033 10.7663 34.9033 10.7379 34.9033 10.7087C34.8352 10.6996 34.7671 10.6905 34.6969 10.6812C34.3873 10.6394 34.078 10.5961 33.7686 10.5527C33.6614 10.5385 33.5542 10.5242 33.4438 10.5096C33.3404 10.4949 33.2369 10.4802 33.1304 10.465C33.0353 10.452 32.9402 10.4389 32.8423 10.4254C32.4692 10.3387 32.2328 10.2302 32.017 9.90744C31.9807 9.83113 31.9444 9.75483 31.907 9.67621C31.8665 9.5928 31.8259 9.5094 31.7841 9.42346C31.723 9.29303 31.723 9.29303 31.6606 9.15996C31.578 8.98782 31.4952 8.81574 31.4123 8.64372C31.3762 8.56741 31.3402 8.4911 31.3031 8.41248C31.201 8.19813 31.201 8.19813 31.0315 7.95539Z" fill="black"/>
<path d="M6.42073 5.50659C6.67913 5.56512 6.7663 5.69009 6.94 5.89041C7.07124 6.10645 7.18241 6.33102 7.29357 6.5579C7.34154 6.65396 7.34154 6.65396 7.39048 6.75195C7.45761 6.88673 7.52441 7.02168 7.59089 7.15678C7.69299 7.36413 7.79618 7.57089 7.89956 7.7776C7.96471 7.90875 8.02981 8.03994 8.09483 8.17117C8.12574 8.23319 8.15666 8.29521 8.18851 8.35911C8.40269 8.79582 8.40269 8.79582 8.40269 8.98788C8.50991 9.00172 8.61713 9.01555 8.72759 9.02981C9.12626 9.08164 9.52466 9.13531 9.92301 9.18954C10.0953 9.21273 10.2676 9.23542 10.44 9.2576C10.6882 9.28961 10.936 9.32342 11.1839 9.35759C11.2991 9.37186 11.2991 9.37186 11.4167 9.38642C12.1735 9.49431 12.1735 9.49431 12.4466 9.84829C12.5182 10.1232 12.5191 10.3477 12.4466 10.6227C12.2862 10.846 12.0842 10.9923 11.8638 11.154C11.7427 11.2525 11.6222 11.3516 11.5022 11.4514C11.44 11.5029 11.3777 11.5544 11.3136 11.6075C10.2845 12.4422 10.2845 12.4422 9.7938 13.6156C9.79153 14.365 9.99193 15.1129 10.237 15.817C10.3803 16.2317 10.4139 16.5566 10.3816 16.9897C10.2042 17.2478 10.2042 17.2478 9.95143 17.4199C9.43571 17.4771 9.1219 17.3437 8.68434 17.1029C8.62319 17.0707 8.56204 17.0384 8.49904 17.0052C8.30496 16.9026 8.11181 16.7984 7.91872 16.6939C7.72489 16.59 7.53089 16.4865 7.33655 16.3836C7.21603 16.3196 7.09583 16.2551 6.97599 16.1899C6.54892 15.9603 6.54892 15.9603 6.07959 15.8711C5.86674 15.944 5.86674 15.944 5.65981 16.0704C5.58101 16.1147 5.50222 16.159 5.42103 16.2046C5.29716 16.2765 5.29716 16.2765 5.17079 16.3497C5.00033 16.4454 4.82981 16.541 4.65925 16.6364C4.57759 16.6826 4.49593 16.7289 4.4118 16.7765C3.06789 17.5357 3.06789 17.5357 2.55192 17.4199C2.29918 17.2478 2.29918 17.2478 2.12172 16.9897C2.08484 16.4951 2.16272 16.1146 2.32539 15.6473C2.75772 14.3264 2.75772 14.3264 2.53852 13.0087C2.12224 12.3996 1.566 11.9187 1.00113 11.4514C0.940626 11.4011 0.88012 11.3508 0.81778 11.2989C0.701907 11.2047 0.583832 11.1132 0.463429 11.0248C0.232205 10.8438 0.0821566 10.7191 0.00580752 10.4294C-0.0145711 10.0908 0.0101412 9.90868 0.219812 9.63697C0.581626 9.45704 0.920973 9.40695 1.31946 9.35759C1.43886 9.34113 1.43886 9.34113 1.56067 9.32434C1.81386 9.28975 2.06724 9.2571 2.32069 9.22449C2.49284 9.20132 2.66498 9.17802 2.8371 9.15459C3.2581 9.09755 3.6793 9.04226 4.10066 8.98788C4.13369 8.88012 4.13369 8.88012 4.16739 8.77017C4.28302 8.44251 4.42693 8.13538 4.58161 7.82499C4.61131 7.76501 4.64101 7.70504 4.67161 7.64325C4.73413 7.51734 4.79683 7.39153 4.85971 7.26581C4.95581 7.07322 5.0508 6.88012 5.14575 6.68696C5.2068 6.56437 5.26791 6.4418 5.32909 6.31927C5.35733 6.26156 5.38557 6.20384 5.41467 6.14437C5.6684 5.64189 5.857 5.53049 6.42073 5.50659ZM6.25168 7.95539C6.22786 8.00131 6.20405 8.04723 6.17952 8.09454C6.06943 8.30643 5.9589 8.51809 5.84836 8.72976C5.81093 8.80196 5.77349 8.87417 5.73493 8.94856C5.65926 9.09317 5.58252 9.23724 5.50474 9.38074C5.43115 9.51655 5.35972 9.65357 5.2909 9.79187C5.10362 10.1395 5.02239 10.2561 4.63841 10.3961C4.51693 10.4138 4.39495 10.4282 4.27274 10.4398C4.20886 10.4484 4.14498 10.457 4.07917 10.4658C3.94893 10.4832 3.81852 10.4993 3.68797 10.5142C3.40642 10.5475 3.12757 10.5936 2.84769 10.6388C2.69177 10.6623 2.53583 10.6856 2.37984 10.7087C2.7686 11.1863 3.19586 11.6167 3.63539 12.0471C3.96966 12.3763 4.11362 12.5278 4.12217 12.9942C4.12011 13.5117 4.03089 14.0032 3.92681 14.5083C3.86432 14.8226 3.83588 15.0486 3.92858 15.3549C3.98627 15.3241 4.04397 15.2932 4.10341 15.2615C4.36569 15.1218 4.62841 14.9829 4.89116 14.844C4.98194 14.7955 5.07272 14.747 5.16625 14.697C5.25415 14.6507 5.34205 14.6044 5.43261 14.5567C5.51326 14.5139 5.59392 14.4711 5.67701 14.427C5.98987 14.2851 6.20876 14.1957 6.54423 14.3015C6.61439 14.3363 6.68454 14.3712 6.75683 14.4071C6.87354 14.464 6.87354 14.464 6.9926 14.522C7.07284 14.5626 7.15309 14.6032 7.23577 14.6451C7.35563 14.704 7.35563 14.704 7.47792 14.764C7.70075 14.8738 7.92277 14.985 8.14457 15.0968C8.24953 15.1492 8.3545 15.2017 8.45949 15.2541C8.52593 15.2873 8.59237 15.3206 8.66082 15.3549C8.63413 15.1344 8.60721 14.9139 8.58015 14.6935C8.57267 14.6314 8.56518 14.5693 8.55747 14.5054C8.54998 14.4447 8.54249 14.384 8.53478 14.3214C8.52802 14.266 8.52126 14.2106 8.5143 14.1535C8.49566 14.0257 8.47242 13.8986 8.44653 13.772C8.34172 13.2365 8.24799 12.7485 8.56436 12.2721C8.78719 12.0326 9.01877 11.8134 9.2631 11.596C9.42451 11.4452 9.58584 11.2943 9.74708 11.1433C9.81917 11.0782 9.89127 11.0131 9.96554 10.9461C10.0177 10.8961 10.0698 10.8462 10.1235 10.7947C10.1235 10.7663 10.1235 10.7379 10.1235 10.7087C10.0554 10.6996 9.98727 10.6905 9.91708 10.6812C9.60752 10.6394 9.29819 10.5961 8.98885 10.5527C8.88165 10.5385 8.77445 10.5242 8.66401 10.5096C8.56058 10.4949 8.45716 10.4802 8.3506 10.465C8.25553 10.452 8.16045 10.4389 8.0625 10.4254C7.68943 10.3387 7.45297 10.2302 7.23722 9.90744C7.20091 9.83113 7.16461 9.75483 7.12721 9.67621C7.08667 9.5928 7.04613 9.5094 7.00436 9.42346C6.94322 9.29303 6.94322 9.29303 6.88085 9.15996C6.79818 8.98782 6.71539 8.81574 6.63247 8.64372C6.59646 8.56741 6.56045 8.4911 6.52335 8.41248C6.42119 8.19813 6.42119 8.19813 6.25168 7.95539Z" fill="black"/>
<path d="M18.9859 38.5859C19.201 38.715 19.201 38.715 19.3301 38.9301C19.3982 39.276 19.3836 39.5293 19.201 39.8335C18.8968 40.016 18.6436 40.0306 18.2976 39.9625C18.0825 39.8335 18.0825 39.8335 17.9534 39.6184C17.8854 39.2724 17.9 39.0192 18.0825 38.715C18.3867 38.5324 18.64 38.5178 18.9859 38.5859Z" fill="black"/>
</svg>
