<svg width="38" height="37" viewBox="0 0 38 37" fill="none" xmlns="http://www.w3.org/2000/svg">
<path d="M8.82279 1.45298C9.32939 1.86849 9.63751 2.34277 9.78272 2.98227C9.80748 3.27354 9.80431 3.56077 9.79683 3.85279C9.79218 4.11211 9.78752 4.37143 9.78272 4.63861C10.8014 4.63861 11.82 4.63861 12.8695 4.63861C12.8695 4.16655 12.8695 3.6945 12.8695 3.20814C13.0378 2.45074 13.2427 1.864 13.9036 1.42004C14.5948 1.03868 15.2077 0.912837 15.9705 1.11889C16.581 1.32397 17.0183 1.7045 17.3868 2.22939C17.6404 2.74563 17.6399 3.20493 17.6268 3.7728C17.6221 4.05851 17.6175 4.34423 17.6127 4.63861C18.6562 4.63861 19.6997 4.63861 20.7748 4.63861C20.763 4.07443 20.763 4.07443 20.7477 3.51034C20.7397 2.75653 20.9446 2.23656 21.4586 1.68649C21.9848 1.1956 22.5857 0.98147 23.3028 1.00125C23.9054 1.07901 24.4894 1.34207 24.9156 1.77766C25.5912 2.66083 25.5179 3.51114 25.5179 4.63861C26.5366 4.63861 27.5552 4.63861 28.6048 4.63861C28.5985 4.38239 28.5923 4.12618 28.5859 3.8622C28.5798 2.953 28.6874 2.29964 29.3362 1.62297C29.8596 1.17737 30.4512 0.997624 31.1298 1.0089C31.8119 1.06736 32.3372 1.3443 32.8 1.84177C33.2996 2.458 33.382 3.07683 33.362 3.85279C33.361 3.92873 33.36 4.00467 33.3589 4.08292C33.3563 4.26819 33.3526 4.45338 33.3479 4.63861C33.4384 4.63686 33.5288 4.63512 33.622 4.63332C34.6467 4.63467 35.6108 5.10707 36.3403 5.80734C37.1225 6.66675 37.3846 7.61922 37.3769 8.76111C37.3773 8.86263 37.3779 8.96416 37.3785 9.06568C37.3799 9.34217 37.3794 9.61862 37.3786 9.89511C37.3781 10.1943 37.3793 10.4934 37.3803 10.7926C37.3819 11.3777 37.3819 11.9628 37.3813 12.548C37.3808 13.0239 37.3809 13.4998 37.3814 13.9757C37.3815 14.0436 37.3815 14.1114 37.3816 14.1814C37.3818 14.3193 37.3819 14.4572 37.382 14.5951C37.3833 15.887 37.3826 17.1788 37.3814 18.4707C37.3803 19.6507 37.3814 20.8308 37.3835 22.0108C37.3857 23.2245 37.3866 24.4381 37.3858 25.6518C37.3858 25.7892 37.3857 25.9267 37.3856 26.0642C37.3856 26.1656 37.3856 26.1656 37.3855 26.2691C37.3853 26.7439 37.3861 27.2187 37.3872 27.6935C37.3885 28.2729 37.3885 28.8523 37.3868 29.4317C37.3859 29.7269 37.3857 30.0221 37.3871 30.3173C37.3947 32.0281 37.312 33.3758 36.0912 34.6927C34.9941 35.7335 33.6743 36.0064 32.206 35.9967C32.0885 35.9971 31.9709 35.9975 31.8533 35.9981C31.5339 35.9994 31.2145 35.9988 30.895 35.9978C30.5491 35.9972 30.2032 35.9982 29.8573 35.999C29.1811 36.0004 28.5049 36.0001 27.8287 35.9992C27.2788 35.9985 26.7289 35.9984 26.179 35.9988C26.1005 35.9988 26.022 35.9989 25.9412 35.9989C25.7817 35.999 25.6223 35.9991 25.4628 35.9992C23.9701 36.0001 22.4774 35.9991 20.9846 35.9975C19.7057 35.9961 18.4268 35.9963 17.1479 35.9977C15.6603 35.9994 14.1727 36 12.685 35.9991C12.5262 35.999 12.3673 35.9989 12.2085 35.9988C12.1303 35.9987 12.0522 35.9987 11.9717 35.9986C11.4229 35.9984 10.8741 35.9988 10.3253 35.9995C9.65585 36.0004 8.98642 36.0001 8.31698 35.9985C7.97587 35.9977 7.63479 35.9974 7.29368 35.9984C6.98066 35.9993 6.66767 35.9988 6.35465 35.9972C6.24219 35.9969 6.12973 35.9971 6.01727 35.9978C4.61908 36.0063 3.39017 35.6931 2.35566 34.7095C1.81129 34.1515 1.45241 33.6126 1.19987 32.8717C1.16089 32.765 1.16089 32.765 1.12113 32.6562C1.00207 32.2314 1.0278 31.7913 1.02865 31.3537C1.02832 31.2525 1.02792 31.1512 1.02746 31.05C1.02639 30.7725 1.02627 30.495 1.0263 30.2175C1.02617 29.918 1.02519 29.6184 1.02433 29.3188C1.02261 28.6641 1.02201 28.0093 1.02163 27.3546C1.02138 26.9454 1.02089 26.5363 1.02035 26.1272C1.01888 24.9935 1.01764 23.8598 1.01742 22.7261C1.01741 22.6536 1.01739 22.5811 1.01738 22.5064C1.01735 22.3594 1.01732 22.2124 1.0173 22.0654C1.01728 21.9925 1.01727 21.9195 1.01726 21.8443C1.01724 21.7713 1.01723 21.6982 1.01721 21.623C1.01695 20.4399 1.01491 19.2569 1.0121 18.0738C1.00923 16.8581 1.00777 15.6423 1.00775 14.4265C1.00771 13.7444 1.00707 13.0623 1.00489 12.3801C1.00304 11.7991 1.0025 11.2182 1.00363 10.6372C1.00417 10.3411 1.00411 10.045 1.00239 9.7489C1.00083 9.47714 1.00105 9.20543 1.00261 8.93367C1.00299 8.79024 1.00154 8.64681 1 8.50338C1.01072 7.3893 1.4235 6.5107 2.16362 5.69353C2.95302 4.93117 3.96916 4.62847 5.03957 4.63861C5.03799 4.59277 5.03641 4.54693 5.03479 4.49971C4.97738 2.57918 4.97738 2.57918 5.61364 1.78707C6.46097 0.90331 7.81178 0.746237 8.82279 1.45298ZM6.32887 2.52584C6.08287 2.88037 5.99962 3.14999 5.99644 3.5807C5.99548 3.66916 5.99452 3.75763 5.99353 3.84878C5.99336 3.94376 5.99319 4.03873 5.99302 4.13659C5.99252 4.2349 5.99202 4.3332 5.9915 4.43448C5.9906 4.64238 5.99032 4.85026 5.99041 5.05815C5.99042 5.3232 5.98837 5.58819 5.98577 5.85323C5.98369 6.10762 5.98379 6.362 5.98361 6.61639C5.98253 6.71091 5.98144 6.80544 5.98033 6.90282C5.9833 7.47531 6.01727 7.92879 6.42577 8.3663C6.72969 8.63779 6.99645 8.76234 7.39702 8.80769C7.84377 8.76226 8.19472 8.59712 8.49341 8.25715C8.73941 7.90262 8.82266 7.63299 8.82585 7.20228C8.82681 7.11382 8.82777 7.02535 8.82876 6.9342C8.82892 6.83923 8.82909 6.74425 8.82926 6.64639C8.82977 6.54809 8.83027 6.44978 8.83078 6.3485C8.83168 6.14061 8.83196 5.93272 8.83187 5.72483C8.83186 5.45978 8.83391 5.19479 8.83651 4.92975C8.8386 4.67536 8.8385 4.42099 8.83868 4.16659C8.83976 4.07207 8.84084 3.97755 8.84195 3.88016C8.83898 3.30767 8.80501 2.85419 8.39651 2.41668C8.0926 2.1452 7.82584 2.02064 7.42526 1.97529C6.97851 2.02072 6.62756 2.18586 6.32887 2.52584ZM14.1494 2.53054C13.9193 2.92498 13.8394 3.24296 13.8361 3.69508C13.8354 3.77752 13.8347 3.85997 13.834 3.94491C13.8336 4.03369 13.8333 4.12247 13.833 4.21394C13.8326 4.30566 13.8321 4.39739 13.8317 4.4919C13.831 4.68606 13.8305 4.88022 13.8302 5.07438C13.8295 5.37048 13.8271 5.66654 13.8247 5.96262C13.8243 6.15143 13.8239 6.34024 13.8236 6.52905C13.8226 6.61722 13.8217 6.70539 13.8208 6.79623C13.8224 7.38832 13.8814 7.86305 14.2435 8.35126C14.5478 8.64855 14.8198 8.76255 15.2411 8.80769C15.7466 8.75353 16.0832 8.56516 16.4081 8.17715C16.5951 7.856 16.6623 7.62338 16.6632 7.25281C16.6639 7.16085 16.6646 7.06889 16.6653 6.97414C16.6649 6.87579 16.6644 6.77743 16.6639 6.6761C16.6641 6.57317 16.6643 6.47024 16.6646 6.36731C16.6649 6.15215 16.6644 5.937 16.6634 5.72183C16.6621 5.4469 16.6628 5.17202 16.6642 4.8971C16.665 4.68472 16.6647 4.47236 16.6642 4.25998C16.6639 4.1096 16.6646 3.95922 16.6653 3.80884C16.6646 3.71688 16.6639 3.62492 16.6632 3.53017C16.6629 3.40933 16.6629 3.40933 16.6626 3.28605C16.6054 2.82996 16.3774 2.52013 16.0316 2.22939C15.3294 1.8591 14.7231 1.9728 14.1494 2.53054ZM22.1488 2.40349C21.8486 2.76211 21.7257 3.06643 21.7207 3.5335C21.7193 3.62624 21.7178 3.71898 21.7164 3.81453C21.7161 3.91382 21.7159 4.01311 21.7156 4.11542C21.7149 4.21949 21.7141 4.32356 21.7133 4.42764C21.712 4.6454 21.7115 4.86314 21.7117 5.08091C21.7117 5.35838 21.7086 5.63573 21.7047 5.91317C21.7022 6.12808 21.7018 6.34296 21.7019 6.55788C21.7015 6.70938 21.699 6.86088 21.6966 7.01236C21.7011 7.61977 21.7834 8.02603 22.2053 8.4783C22.5834 8.76641 22.9397 8.81864 23.4099 8.77946C23.8513 8.63259 24.1322 8.4112 24.3886 8.02658C24.5749 7.54013 24.5622 7.06308 24.5618 6.54699C24.5623 6.40988 24.5623 6.40988 24.5628 6.27C24.5632 6.07718 24.5633 5.88437 24.563 5.69156C24.5627 5.39746 24.5645 5.10342 24.5664 4.80933C24.5666 4.62155 24.5666 4.43377 24.5665 4.24599C24.5672 4.15853 24.5679 4.07107 24.5686 3.98096C24.5649 3.32697 24.4877 2.79416 24.0122 2.30468C23.4352 1.82951 22.6902 1.94822 22.1488 2.40349ZM29.8941 2.52584C29.6481 2.88037 29.5648 3.14999 29.5616 3.5807C29.5607 3.66916 29.5597 3.75763 29.5587 3.84878C29.5585 3.94376 29.5584 4.03873 29.5582 4.13659C29.5577 4.2349 29.5572 4.3332 29.5567 4.43448C29.5558 4.64238 29.5555 4.85026 29.5556 5.05815C29.5556 5.3232 29.5536 5.58819 29.551 5.85323C29.5489 6.10762 29.549 6.362 29.5488 6.61639C29.5477 6.71091 29.5466 6.80544 29.5455 6.90282C29.5485 7.47531 29.5825 7.92879 29.991 8.3663C30.2949 8.63779 30.5616 8.76234 30.9622 8.80769C31.409 8.76226 31.7599 8.59712 32.0586 8.25715C32.3046 7.90262 32.3878 7.63299 32.391 7.20228C32.392 7.11382 32.393 7.02535 32.3939 6.9342C32.3941 6.83923 32.3943 6.74425 32.3945 6.64639C32.395 6.54809 32.3955 6.44978 32.396 6.3485C32.3969 6.14061 32.3972 5.93272 32.3971 5.72483C32.397 5.45978 32.3991 5.19479 32.4017 4.92975C32.4038 4.67536 32.4037 4.42099 32.4039 4.16659C32.4049 4.07207 32.406 3.97755 32.4071 3.88016C32.4042 3.30767 32.3702 2.85419 31.9617 2.41668C31.6578 2.1452 31.391 2.02064 30.9904 1.97529C30.5437 2.02072 30.1927 2.18586 29.8941 2.52584ZM2.83886 6.44317C1.37683 7.95732 1.95275 10.4955 1.95275 12.318C13.307 12.318 24.6612 12.318 36.3594 12.318C36.6941 9.16716 36.6941 9.16717 35.5313 6.44553C34.892 5.86107 34.2042 5.61336 33.3479 5.61736C33.3468 5.71006 33.3468 5.71006 33.3458 5.80464C33.3424 6.03803 33.3378 6.27135 33.3323 6.50469C33.3292 6.65371 33.3275 6.80276 33.3258 6.95181C33.3051 7.77115 33.1813 8.4901 32.6 9.10149C32.0638 9.54849 31.4732 9.71263 30.7887 9.7035C30.1299 9.64361 29.5565 9.36423 29.1318 8.85475C28.812 8.33719 28.6748 7.89918 28.6562 7.29369C28.6533 7.20579 28.6505 7.11789 28.6475 7.02732C28.6443 6.91607 28.641 6.80483 28.6377 6.69021C28.6268 6.33617 28.616 5.98213 28.6048 5.61736C27.5861 5.61736 26.5675 5.61736 25.5179 5.61736C25.4992 6.23103 25.4992 6.23103 25.4819 6.84474C25.4537 7.66421 25.3669 8.34878 24.8403 9.00532C24.4429 9.36557 24.0236 9.6265 23.4852 9.68291C23.4272 9.68903 23.3693 9.69514 23.3096 9.70144C22.6568 9.73537 22.0726 9.54817 21.57 9.12767C21.0428 8.62203 20.8369 8.12307 20.8189 7.39663C20.8149 7.25616 20.8149 7.25616 20.8108 7.11286C20.8082 6.99513 20.8057 6.87739 20.803 6.75609C20.7937 6.38031 20.7844 6.00452 20.7748 5.61736C19.7313 5.61736 18.6878 5.61736 17.6127 5.61736C17.5999 6.35491 17.5999 6.35491 17.5903 7.09251C17.5702 7.90247 17.4251 8.48995 16.8648 9.0962C16.3555 9.53813 15.7674 9.70917 15.1067 9.6985C14.4604 9.64921 13.9132 9.41103 13.4718 8.93003C13.1091 8.35473 12.9434 7.84444 12.921 7.1687C12.9181 7.0871 12.9153 7.0055 12.9123 6.92142C12.9091 6.81873 12.9058 6.71603 12.9025 6.61022C12.8862 6.11875 12.8862 6.11875 12.8695 5.61736C11.8509 5.61736 10.8322 5.61736 9.78272 5.61736C9.76993 6.29857 9.76993 6.29857 9.76029 6.97984C9.73876 7.78878 9.60837 8.49922 9.03454 9.10149C8.4641 9.57794 7.80202 9.74546 7.07234 9.68291C6.37595 9.55571 5.87181 9.25079 5.46306 8.67123C5.17764 8.23831 5.09733 7.78367 5.08368 7.27164C5.07931 7.12642 5.07931 7.12642 5.07486 6.97828C5.07249 6.87755 5.07014 6.77682 5.0678 6.6761C5.06492 6.57331 5.06198 6.47052 5.05898 6.36774C5.0519 6.11762 5.04545 5.8675 5.03957 5.61736C4.18806 5.61027 3.48244 5.87511 2.83886 6.44317ZM1.95275 13.2215C1.94965 16.206 1.94654 19.1905 1.94334 22.2654C1.94197 23.207 1.9406 24.1487 1.93919 25.1188C1.93868 25.9645 1.93868 25.9645 1.93838 26.8101C1.93824 27.1861 1.93768 27.5622 1.93685 27.9382C1.93582 28.4186 1.93551 28.899 1.93573 29.3794C1.93568 29.5552 1.93538 29.731 1.9348 29.9069C1.91398 32.0951 1.91398 32.0951 2.97385 33.9586C3.91885 34.833 5.01459 35.0028 6.25923 34.9994C6.37532 34.9996 6.49141 34.9999 6.60749 35.0002C6.92526 35.001 7.24303 35.0008 7.5608 35.0005C7.90399 35.0003 8.24718 35.001 8.59038 35.0016C9.26227 35.0025 9.93417 35.0027 10.6061 35.0025C11.1523 35.0024 11.6986 35.0025 12.2448 35.0028C12.3226 35.0029 12.4004 35.0029 12.4806 35.0029C12.6386 35.003 12.7967 35.0031 12.9547 35.0032C14.4365 35.004 15.9182 35.0039 17.3999 35.0034C18.7547 35.003 20.1094 35.0039 21.4642 35.0053C22.856 35.0068 24.2479 35.0074 25.6398 35.0071C26.4209 35.007 27.202 35.0071 27.9831 35.0082C28.6481 35.0091 29.3131 35.0092 29.9781 35.0083C30.3172 35.0079 30.6562 35.0078 30.9953 35.0087C31.3062 35.0095 31.617 35.0093 31.9278 35.0082C32.0398 35.008 32.1518 35.0082 32.2639 35.0088C33.468 35.0148 34.4913 34.7989 35.3995 33.9633C36.5538 32.7356 36.457 31.2231 36.4518 29.649C36.4518 29.4665 36.4518 29.2839 36.4519 29.1014C36.4519 28.6151 36.451 28.1288 36.45 27.6425C36.4491 27.1852 36.4491 26.7279 36.449 26.2706C36.4482 24.9355 36.4461 23.6005 36.4441 22.2654C36.441 19.2809 36.4379 16.2964 36.4347 13.2215C25.0557 13.2215 13.6766 13.2215 1.95275 13.2215Z" fill="black" stroke="black" stroke-width="0.3"/>
<path d="M16.2108 25.1445C16.3176 25.1423 16.4245 25.1421 16.5314 25.1436C16.5898 25.1429 16.6483 25.1423 16.7084 25.1416C16.9017 25.1399 17.0948 25.141 17.2881 25.1423C17.4223 25.142 17.5565 25.1417 17.6906 25.1412C17.9719 25.1406 18.2532 25.1415 18.5344 25.1432C18.8952 25.1454 19.2559 25.1441 19.6167 25.1419C19.8938 25.1405 20.1709 25.1409 20.448 25.1419C20.581 25.1422 20.7141 25.1419 20.8471 25.141C21.033 25.14 21.2187 25.1415 21.4046 25.1436C21.4597 25.1428 21.5149 25.1421 21.5717 25.1413C21.7252 25.1445 21.7252 25.1445 21.9795 25.1923C22.2396 25.4683 22.2374 25.769 22.2334 26.1307C22.2337 26.186 22.234 26.2413 22.2342 26.2982C22.2349 26.4801 22.2338 26.662 22.2327 26.8439C22.2327 26.9708 22.2327 27.0976 22.2328 27.2245C22.2328 27.49 22.2321 27.7556 22.2307 28.0211C22.229 28.3611 22.2289 28.7011 22.2294 29.0411C22.2297 29.3029 22.2292 29.5648 22.2285 29.8266C22.2282 29.952 22.2281 30.0773 22.2282 30.2027C22.2282 30.378 22.2273 30.5533 22.2261 30.7286C22.2262 30.7802 22.2264 30.8317 22.2266 30.8849C22.2234 31.177 22.1921 31.4073 22.0548 31.6671C21.8296 31.7797 21.5986 31.7535 21.3516 31.7533C21.2947 31.7535 21.2378 31.7538 21.1791 31.7541C20.9904 31.7548 20.8016 31.7549 20.6129 31.755C20.482 31.7552 20.351 31.7555 20.2201 31.7558C19.9455 31.7562 19.6709 31.7564 19.3963 31.7563C19.044 31.7563 18.6918 31.7573 18.3395 31.7586C18.0691 31.7595 17.7987 31.7596 17.5282 31.7596C17.3984 31.7597 17.2685 31.76 17.1386 31.7606C16.9571 31.7613 16.7756 31.7611 16.5941 31.7606C16.5402 31.7611 16.4864 31.7615 16.4309 31.7619C16.155 31.7602 16.0422 31.7493 15.8059 31.5918C15.7178 31.3275 15.7189 31.089 15.7185 30.8141C15.7181 30.7581 15.7177 30.7021 15.7173 30.6445C15.7162 30.4593 15.7157 30.2741 15.7153 30.089C15.7149 29.9602 15.7144 29.8315 15.714 29.7027C15.7132 29.4327 15.7128 29.1627 15.7125 28.8927C15.7121 28.547 15.7103 28.2013 15.7081 27.8555C15.7067 27.5896 15.7064 27.3236 15.7062 27.0576C15.706 26.9301 15.7054 26.8027 15.7044 26.6752C15.7031 26.4968 15.7033 26.3185 15.7038 26.14C15.7031 26.0875 15.7024 26.035 15.7017 25.981C15.7054 25.5448 15.7438 25.2323 16.2108 25.1445ZM16.7093 26.171C16.7093 27.6866 16.7093 29.2021 16.7093 30.7636C18.2 30.7636 19.6908 30.7636 21.2266 30.7636C21.2266 29.2481 21.2266 27.7325 21.2266 26.171C19.7359 26.171 18.2452 26.171 16.7093 26.171Z" fill="black" stroke="black" stroke-width="0.3"/>
<path d="M26.4626 25.1631C26.5202 25.1627 26.5779 25.1623 26.6374 25.1619C26.8282 25.1609 27.0189 25.1615 27.2097 25.1623C27.3422 25.1621 27.4747 25.1619 27.6072 25.1616C27.8849 25.1613 28.1626 25.1618 28.4403 25.1628C28.7965 25.1641 29.1527 25.1634 29.509 25.162C29.7826 25.1612 30.0561 25.1615 30.3297 25.1621C30.4611 25.1622 30.5925 25.162 30.7238 25.1615C30.9073 25.1609 31.0907 25.1618 31.2742 25.1631C31.3287 25.1626 31.3831 25.1621 31.4392 25.1617C31.6441 25.1643 31.8064 25.1731 31.9889 25.2707C32.1144 25.5042 32.0995 25.7414 32.0974 26C32.0978 26.0592 32.0982 26.1183 32.0986 26.1793C32.0996 26.3749 32.0989 26.5706 32.0981 26.7663C32.0983 26.9021 32.0985 27.038 32.0988 27.1739C32.0991 27.4587 32.0987 27.7435 32.0976 28.0283C32.0963 28.3936 32.0971 28.7589 32.0984 29.1243C32.0992 29.4048 32.099 29.6854 32.0984 29.966C32.0982 30.1007 32.0984 30.2354 32.0989 30.3701C32.0995 30.5583 32.0986 30.7464 32.0974 30.9346C32.0978 30.9905 32.0983 31.0463 32.0988 31.1039C32.0962 31.3122 32.0887 31.4784 31.9889 31.6639C31.7593 31.7868 31.5283 31.7743 31.2742 31.7728C31.2166 31.7733 31.1589 31.7738 31.0994 31.7743C30.9087 31.7757 30.7179 31.7754 30.5271 31.775C30.3946 31.7753 30.2621 31.7757 30.1296 31.7762C29.8519 31.7769 29.5742 31.7767 29.2965 31.7759C28.9403 31.7751 28.5841 31.7766 28.2278 31.7788C27.9543 31.7802 27.6807 31.7801 27.4071 31.7797C27.2757 31.7797 27.1444 31.7802 27.013 31.7811C26.8295 31.7822 26.6461 31.7814 26.4626 31.7801C26.4081 31.7808 26.3537 31.7816 26.2976 31.7823C26.0706 31.779 25.9285 31.7693 25.7479 31.6259C25.6382 31.3702 25.6372 31.1311 25.6394 30.8577C25.639 30.7993 25.6386 30.7408 25.6382 30.6806C25.6372 30.4878 25.6379 30.295 25.6387 30.1022C25.6385 29.9681 25.6383 29.8341 25.638 29.7C25.6377 29.4192 25.6382 29.1384 25.6392 28.8576C25.6405 28.4974 25.6398 28.1372 25.6384 27.777C25.6376 27.5003 25.6378 27.2235 25.6384 26.9468C25.6386 26.8139 25.6384 26.6811 25.6379 26.5483C25.6373 26.3628 25.6382 26.1774 25.6394 25.9919C25.639 25.9369 25.6385 25.8818 25.638 25.8251C25.6407 25.6186 25.6488 25.4549 25.7479 25.2712C25.9775 25.1476 26.2084 25.1609 26.4626 25.1631ZM26.6474 26.171C26.6474 27.6866 26.6474 29.2021 26.6474 30.7636C28.1133 30.7636 29.5791 30.7636 31.0894 30.7636C31.0894 29.2481 31.0894 27.7325 31.0894 26.171C29.6235 26.171 28.1577 26.171 26.6474 26.171Z" fill="black" stroke="black" stroke-width="0.3"/>
<path d="M6.66179 25.1618C6.71947 25.1613 6.77715 25.1608 6.83658 25.1603C7.02738 25.1589 7.21813 25.1592 7.40893 25.1596C7.54142 25.1593 7.6739 25.1589 7.80639 25.1584C8.08411 25.1577 8.36181 25.1579 8.63953 25.1587C8.99577 25.1595 9.35195 25.158 9.70818 25.1558C9.98178 25.1544 10.2554 25.1545 10.529 25.1549C10.6603 25.1549 10.7917 25.1544 10.923 25.1535C11.1065 25.1524 11.29 25.1532 11.4735 25.1545C11.5279 25.1538 11.5824 25.153 11.6385 25.1523C11.8658 25.1556 12.0076 25.1652 12.1881 25.3092C12.2971 25.5624 12.2989 25.798 12.2966 26.0688C12.297 26.1264 12.2974 26.184 12.2978 26.2433C12.2988 26.4333 12.2981 26.6233 12.2974 26.8133C12.2975 26.9455 12.2977 27.0777 12.298 27.2099C12.2984 27.4869 12.2979 27.7638 12.2968 28.0407C12.2955 28.3957 12.2963 28.7506 12.2976 29.1056C12.2984 29.3785 12.2982 29.6515 12.2976 29.9244C12.2974 30.0553 12.2976 30.1862 12.2982 30.317C12.2987 30.5 12.2979 30.6828 12.2966 30.8658C12.2971 30.9198 12.2975 30.9739 12.298 31.0296C12.2952 31.2488 12.2751 31.4232 12.1881 31.6254C11.9665 31.8021 11.7448 31.7837 11.4735 31.7801C11.4158 31.7805 11.3581 31.7809 11.2987 31.7813C11.1079 31.7823 10.9171 31.781 10.7263 31.7797C10.5938 31.7797 10.4613 31.7798 10.3289 31.78C10.0511 31.7801 9.77343 31.7792 9.49571 31.7775C9.13948 31.7753 8.7833 31.7755 8.42707 31.7765C8.15347 31.777 7.87989 31.7764 7.6063 31.7755C7.47494 31.7751 7.34358 31.7751 7.21222 31.7754C7.02872 31.7756 6.84528 31.7744 6.66179 31.7727C6.60734 31.7731 6.55289 31.7734 6.49679 31.7738C6.29203 31.7707 6.1295 31.7615 5.94713 31.6639C5.82157 31.4303 5.83654 31.1932 5.83865 30.9346C5.83826 30.8754 5.83786 30.8163 5.83745 30.7554C5.83646 30.5597 5.83712 30.364 5.83788 30.1683C5.83773 30.0325 5.83751 29.8966 5.83723 29.7607C5.83689 29.4759 5.83738 29.1911 5.83843 28.9063C5.83972 28.541 5.83898 28.1757 5.83762 27.8103C5.83681 27.5298 5.83707 27.2492 5.83765 26.9687C5.8378 26.8339 5.83762 26.6992 5.83709 26.5645C5.83652 26.3763 5.83739 26.1882 5.83865 26C5.8382 25.9441 5.83774 25.8883 5.83727 25.8307C5.83985 25.6224 5.84738 25.4563 5.94713 25.2707C6.17675 25.1478 6.40772 25.1603 6.66179 25.1618ZM6.84662 26.171C6.84662 27.6866 6.84662 29.2021 6.84662 30.7636C8.31248 30.7636 9.77834 30.7636 11.2886 30.7636C11.2886 29.248 11.2886 27.7325 11.2886 26.171C9.82276 26.171 8.3569 26.171 6.84662 26.171Z" fill="black" stroke="black" stroke-width="0.3"/>
<path d="M26.4626 15.8188C26.5202 15.8184 26.5779 15.818 26.6374 15.8175C26.8282 15.8166 27.0189 15.8178 27.2097 15.8192C27.3422 15.8192 27.4747 15.8191 27.6072 15.8189C27.8849 15.8188 28.1626 15.8197 28.4403 15.8214C28.7965 15.8236 29.1527 15.8234 29.509 15.8224C29.7826 15.8219 30.0561 15.8225 30.3297 15.8234C30.4611 15.8237 30.5925 15.8238 30.7238 15.8235C30.9073 15.8232 31.0907 15.8245 31.2742 15.8261C31.3559 15.8256 31.3559 15.8256 31.4392 15.8251C31.644 15.8281 31.8065 15.8374 31.9889 15.935C32.1145 16.1685 32.0995 16.4057 32.0974 16.6643C32.0978 16.7234 32.0982 16.7826 32.0986 16.8435C32.0996 17.0392 32.0989 17.2348 32.0981 17.4305C32.0983 17.5664 32.0985 17.7023 32.0988 17.8381C32.0991 18.1229 32.0987 18.4077 32.0976 18.6925C32.0963 19.0579 32.0971 19.4232 32.0984 19.7885C32.0992 20.0691 32.099 20.3497 32.0984 20.6302C32.0982 20.7649 32.0984 20.8997 32.0989 21.0344C32.0995 21.2226 32.0986 21.4107 32.0974 21.5989C32.0978 21.6547 32.0983 21.7106 32.0988 21.7681C32.0962 21.9765 32.0887 22.1426 31.9889 22.3281C31.7593 22.451 31.5283 22.4386 31.2742 22.437C31.2166 22.4376 31.1589 22.4381 31.0994 22.4386C30.9087 22.44 30.7179 22.4397 30.5271 22.4393C30.3946 22.4396 30.2621 22.44 30.1296 22.4405C29.8519 22.4411 29.5742 22.4409 29.2965 22.4402C28.9403 22.4393 28.5841 22.4409 28.2278 22.443C27.9543 22.4444 27.6807 22.4444 27.4071 22.444C27.2757 22.444 27.1444 22.4444 27.013 22.4454C26.8295 22.4465 26.6461 22.4457 26.4626 22.4444C26.4081 22.4451 26.3537 22.4458 26.2976 22.4466C26.0702 22.4432 25.9284 22.4337 25.7479 22.2896C25.639 22.0365 25.6371 21.8009 25.6394 21.5301C25.639 21.4725 25.6386 21.4149 25.6382 21.3556C25.6372 21.1656 25.6379 20.9756 25.6387 20.7856C25.6385 20.6534 25.6383 20.5212 25.638 20.389C25.6377 20.112 25.6382 19.8351 25.6392 19.5581C25.6405 19.2032 25.6398 18.8483 25.6384 18.4933C25.6376 18.2204 25.6378 17.9474 25.6384 17.6745C25.6386 17.5436 25.6384 17.4127 25.6379 17.2818C25.6373 17.0989 25.6382 16.916 25.6394 16.7331C25.639 16.679 25.6385 16.625 25.638 16.5693C25.6408 16.3501 25.6609 16.1756 25.7479 15.9735C25.9695 15.7967 26.1912 15.8151 26.4626 15.8188ZM26.6474 16.8353C26.6474 18.3508 26.6474 19.8664 26.6474 21.4279C28.1133 21.4279 29.5791 21.4279 31.0894 21.4279C31.0894 19.9123 31.0894 18.3968 31.0894 16.8353C29.6235 16.8353 28.1577 16.8353 26.6474 16.8353Z" fill="black" stroke="black" stroke-width="0.3"/>
<path d="M6.66179 15.8261C6.71947 15.8256 6.77715 15.8251 6.83658 15.8246C7.02738 15.8232 7.21813 15.8235 7.40893 15.8239C7.54142 15.8236 7.6739 15.8232 7.80639 15.8227C8.08411 15.8221 8.36181 15.8222 8.63953 15.823C8.99577 15.8239 9.35195 15.8223 9.70818 15.8201C9.98178 15.8188 10.2554 15.8188 10.529 15.8192C10.6603 15.8192 10.7917 15.8188 10.923 15.8178C11.1065 15.8167 11.29 15.8175 11.4735 15.8188C11.5279 15.8181 11.5824 15.8173 11.6385 15.8166C11.8658 15.82 12.0076 15.8295 12.1881 15.9735C12.2971 16.2267 12.2989 16.4623 12.2966 16.7331C12.297 16.7907 12.2974 16.8483 12.2978 16.9076C12.2988 17.0976 12.2981 17.2876 12.2974 17.4776C12.2975 17.6098 12.2977 17.742 12.298 17.8742C12.2984 18.1512 12.2979 18.4281 12.2968 18.7051C12.2955 19.06 12.2963 19.4149 12.2976 19.7699C12.2984 20.0428 12.2982 20.3158 12.2976 20.5887C12.2974 20.7196 12.2976 20.8505 12.2982 20.9813C12.2987 21.1643 12.2979 21.3472 12.2966 21.5301C12.2971 21.5841 12.2975 21.6382 12.298 21.6939C12.2952 21.9131 12.2751 22.0875 12.1881 22.2897C11.9665 22.4665 11.7448 22.448 11.4735 22.4444C11.4158 22.4448 11.3581 22.4452 11.2987 22.4456C11.1079 22.4466 10.9171 22.4453 10.7263 22.444C10.5938 22.444 10.4613 22.4441 10.3289 22.4443C10.0511 22.4444 9.77343 22.4435 9.49571 22.4418C9.13948 22.4396 8.7833 22.4398 8.42707 22.4408C8.15347 22.4413 7.87989 22.4407 7.6063 22.4398C7.47494 22.4395 7.34358 22.4394 7.21222 22.4397C7.02872 22.4399 6.84528 22.4387 6.66179 22.4371C6.60734 22.4374 6.55289 22.4377 6.49679 22.4381C6.29203 22.435 6.1295 22.4258 5.94713 22.3282C5.82157 22.0947 5.83654 21.8575 5.83865 21.5989C5.83826 21.5398 5.83786 21.4806 5.83745 21.4197C5.83646 21.224 5.83712 21.0283 5.83788 20.8326C5.83773 20.6968 5.83751 20.5609 5.83723 20.4251C5.83689 20.1402 5.83738 19.8555 5.83843 19.5706C5.83972 19.2053 5.83898 18.84 5.83762 18.4747C5.83681 18.1941 5.83707 17.9135 5.83765 17.633C5.8378 17.4982 5.83762 17.3635 5.83709 17.2288C5.83652 17.0406 5.83739 16.8525 5.83865 16.6643C5.8382 16.6084 5.83774 16.5526 5.83727 16.495C5.83985 16.2867 5.84738 16.1206 5.94713 15.935C6.17675 15.8121 6.40772 15.8246 6.66179 15.8261ZM6.84662 16.8353C6.84662 18.3509 6.84662 19.8664 6.84662 21.4279C8.31248 21.4279 9.77834 21.4279 11.2886 21.4279C11.2886 19.9123 11.2886 18.3968 11.2886 16.8353C9.82276 16.8353 8.3569 16.8353 6.84662 16.8353Z" fill="black" stroke="black" stroke-width="0.3"/>
<path d="M21.8288 16.7976C22.0547 16.8353 22.0547 16.8353 22.2382 16.9576C22.3558 17.1364 22.3558 17.1364 22.3605 17.3576C22.2645 17.6343 22.1099 17.7674 21.9041 17.9646C21.7995 18.0692 21.6951 18.174 21.5909 18.279C21.264 18.6072 20.9369 18.9352 20.6097 19.2631C20.4687 19.4045 20.3278 19.5459 20.187 19.6874C19.9831 19.8922 19.779 20.0967 19.5749 20.3012C19.5121 20.3643 19.4494 20.4274 19.3847 20.4925C19.222 20.6552 19.0579 20.8161 18.8926 20.9761C18.8273 21.0397 18.7619 21.1033 18.6946 21.1689C18.4352 21.3264 18.2875 21.3296 17.9891 21.2773C17.7872 21.1477 17.6285 20.9853 17.4627 20.8129C17.4151 20.7653 17.3676 20.7177 17.3186 20.6687C17.2187 20.5681 17.1194 20.4669 17.0207 20.3651C16.8696 20.2095 16.7164 20.0562 16.5628 19.9031C16.4658 19.8049 16.3689 19.7067 16.2722 19.6083C16.2036 19.5395 16.2036 19.5395 16.1337 19.4694C15.7401 19.0601 15.7401 19.0601 15.7305 18.7175C15.804 18.5137 15.8363 18.4387 16.0316 18.341C16.2543 18.2986 16.4109 18.2954 16.6072 18.4189C16.7747 18.5617 16.9296 18.7127 17.0857 18.868C17.131 18.9128 17.1763 18.9577 17.223 19.0038C17.5558 19.3329 17.8861 19.6643 18.215 19.9974C18.4257 19.9013 18.5789 19.8024 18.7412 19.6376C18.7829 19.5956 18.8247 19.5536 18.8677 19.5103C18.912 19.465 18.9563 19.4197 19.002 19.373C19.0486 19.326 19.0952 19.279 19.1432 19.2306C19.2922 19.0803 19.4406 18.9295 19.589 18.7786C19.7836 18.5812 19.9785 18.3841 20.1736 18.1872C20.2434 18.1168 20.2434 18.1168 20.3146 18.0449C20.5975 17.761 20.8854 17.4874 21.1935 17.2304C21.3167 17.1278 21.3167 17.1278 21.4618 16.9529C21.6029 16.8353 21.6029 16.8353 21.8288 16.7976Z" fill="black" stroke="black" stroke-width="0.3"/>
</svg>
