<svg width="40" height="40" viewBox="0 0 40 40" fill="none" xmlns="http://www.w3.org/2000/svg">
<path d="M18.0845 2.79286C19.589 4.2197 20.6213 5.9834 20.6834 8.10041C20.6933 9.2253 20.5537 10.201 20.0765 11.2249C20.0329 11.3187 19.9893 11.4125 19.9443 11.5092C19.8942 11.6163 19.8942 11.6163 19.8431 11.7256C19.9756 11.7258 19.9756 11.7258 20.1108 11.726C22.2597 11.7289 24.4086 11.7337 26.5575 11.7404C27.5967 11.7436 28.6359 11.7462 29.6751 11.7474C30.5809 11.7484 31.4866 11.7506 32.3924 11.7541C32.872 11.7559 33.3516 11.7572 33.8312 11.7571C34.2827 11.757 34.7342 11.7585 35.1857 11.761C35.3513 11.7617 35.5169 11.7619 35.6825 11.7614C35.9089 11.7609 36.1353 11.7623 36.3617 11.7642C36.4269 11.7636 36.4922 11.763 36.5594 11.7624C37.0828 11.7702 37.4992 11.9228 37.898 12.2669C37.9338 12.3117 37.9696 12.3565 38.0065 12.4026C38.0435 12.4472 38.0805 12.4918 38.1187 12.5377C38.3172 12.8418 38.3976 13.1184 38.3973 13.4798C38.3976 13.5567 38.3979 13.6335 38.3983 13.7126C38.3978 13.7964 38.3973 13.8801 38.3968 13.9664C38.3971 14.1006 38.397 14.1006 38.3973 14.2375C38.3975 14.5379 38.3966 14.8382 38.3958 15.1386C38.3957 15.3536 38.3957 15.5687 38.3958 15.7838C38.3959 16.2471 38.3954 16.7105 38.3945 17.1738C38.3932 17.8437 38.3928 18.5136 38.3926 19.1835C38.3922 20.2704 38.3912 21.3573 38.3897 22.4442C38.3882 23.4999 38.387 24.5557 38.3864 25.6115C38.3863 25.6766 38.3863 25.7417 38.3862 25.8087C38.386 26.1352 38.3858 26.4617 38.3856 26.7882C38.384 29.4967 38.3811 32.2052 38.3775 34.9137C38.4607 34.9091 38.5439 34.9044 38.6295 34.8996C38.7394 34.8958 38.8493 34.8922 38.9593 34.8886C39.014 34.8853 39.0687 34.8819 39.1251 34.8785C39.2865 34.8745 39.2865 34.8745 39.5811 34.9137C39.7691 35.0971 39.8795 35.2224 39.9418 35.4782C39.9066 36.6957 39.4221 37.7852 38.5778 38.6622C37.4421 39.7002 36.1537 39.9809 34.6575 39.9798C34.5575 39.9801 34.4576 39.9803 34.3546 39.9805C34.0781 39.9811 33.8016 39.9813 33.5251 39.9814C33.2265 39.9815 32.9279 39.9822 32.6294 39.9827C31.9768 39.9838 31.3243 39.9843 30.6718 39.9846C30.264 39.9848 29.8562 39.9852 29.4484 39.9855C28.3183 39.9865 27.1882 39.9873 26.058 39.9876C25.9858 39.9876 25.9135 39.9876 25.839 39.9877C25.7303 39.9877 25.7303 39.9877 25.6195 39.9877C25.4727 39.9878 25.3259 39.9878 25.1791 39.9878C25.0699 39.9879 25.0699 39.9879 24.9584 39.9879C23.7794 39.9882 22.6003 39.9896 21.4213 39.9915C20.2094 39.9934 18.9975 39.9944 17.7856 39.9945C17.1058 39.9945 16.4259 39.995 15.746 39.9965C15.1669 39.9977 14.5879 39.9981 14.0088 39.9974C13.7137 39.9971 13.4186 39.9972 13.1235 39.9983C12.8026 39.9995 12.4818 39.9989 12.1609 39.998C12.069 39.9987 11.9771 39.9993 11.8824 40C10.4794 39.9915 9.23699 39.6096 8.21776 38.6187C8.16191 38.561 8.10606 38.5034 8.04852 38.4441C8.00259 38.3989 7.95667 38.3537 7.90936 38.3071C7.20693 37.563 6.83402 36.4925 6.80518 35.481C6.84498 35.3149 6.84498 35.3149 7.16593 34.9137C7.56309 34.9137 7.96026 34.9137 8.36946 34.9137C8.36946 28.8768 8.36946 22.8399 8.36946 16.62C7.8399 16.5141 7.31035 16.4082 6.76475 16.2991C4.18945 15.4406 1.9346 13.9161 0.683145 11.4404C0.4076 10.828 0.225076 10.2195 0.105199 9.55929C0.0946492 9.50282 0.0840994 9.44634 0.07323 9.38816C-0.207508 7.57474 0.339357 5.72293 1.36389 4.22645C1.50064 4.04633 1.64291 3.87372 1.79015 3.70209C1.84362 3.63797 1.89709 3.57384 1.95218 3.50777C3.78314 1.38321 6.49758 0.331436 9.23199 0.0313177C12.3999 -0.172904 15.6981 0.607383 18.0845 2.79286ZM7.80781 1.61597C7.75157 1.62931 7.69533 1.64265 7.63739 1.6564C5.94595 2.07138 4.47844 2.88002 3.23438 4.10327C3.17253 4.16409 3.11068 4.2249 3.04696 4.28756C1.86011 5.52707 1.33441 7.08595 1.36985 8.77981C1.43704 10.4403 2.38305 11.9083 3.55407 13.0345C5.34138 14.6559 7.85772 15.5542 10.2647 15.4857C10.3442 15.4838 10.3442 15.4838 10.4253 15.4817C10.6883 15.4748 10.9499 15.4637 11.2124 15.4456C11.7773 15.4246 12.0998 15.4726 12.5461 15.8346C12.6806 15.9604 12.8131 16.0882 12.9429 16.2188C13.0252 16.2929 13.1078 16.3665 13.1911 16.4395C13.2867 16.5288 13.2867 16.5288 13.3842 16.62C13.7521 16.9588 14.1322 17.2775 14.5225 17.59C14.7081 17.7433 14.7081 17.7433 14.8435 17.884C14.944 18.0024 14.944 18.0024 15.1092 17.984C15.1194 17.9357 15.1296 17.8873 15.1401 17.8375C15.2463 17.3333 15.3547 16.8297 15.4643 16.3263C15.5049 16.1385 15.545 15.9505 15.5845 15.7625C15.6414 15.4919 15.7003 15.2218 15.7596 14.9517C15.7768 14.8678 15.7941 14.7838 15.8118 14.6974C15.9153 14.2358 16.0048 13.9535 16.393 13.6513C16.4564 13.5995 16.5198 13.5477 16.5851 13.4943C16.6492 13.4451 16.7132 13.396 16.7791 13.3454C18.2176 12.2006 19.1385 10.6791 19.3617 8.83717C19.5064 7.19329 18.8032 5.68749 17.8094 4.42578C16.2583 2.63759 13.8464 1.55916 11.4986 1.37526C10.2552 1.32304 9.02174 1.32161 7.80781 1.61597ZM18.4791 13.6513C18.38 13.7479 18.2782 13.8419 18.1732 13.9321C18.0912 14.0043 18.0912 14.0043 18.0074 14.0779C17.8373 14.2129 17.8373 14.2129 17.6646 14.3104C17.3732 14.4802 17.2229 14.6163 17.1085 14.9405C17.0854 15.0403 17.0624 15.1401 17.0387 15.2428C17.0256 15.2985 17.0126 15.3541 16.9991 15.4114C16.802 16.2678 16.6353 17.1319 16.4674 17.9945C16.4228 18.223 16.3767 18.4513 16.3303 18.6795C16.3172 18.7489 16.3041 18.8182 16.2905 18.8897C16.2105 19.2776 16.126 19.5453 15.8314 19.8294C15.5706 19.9247 15.5706 19.9247 15.2697 19.9097C14.7262 19.6439 14.2727 19.1081 13.8336 18.697C13.5957 18.4746 13.3522 18.2595 13.1055 18.0467C12.8272 17.8022 12.5569 17.5487 12.2856 17.2964C11.2997 16.4434 11.3139 16.7002 9.65323 16.7002C9.65323 22.7107 9.65323 28.7211 9.65323 34.9137C11.5331 34.9137 13.4131 34.9137 15.3499 34.9137C15.3668 33.8217 15.3668 33.8217 15.3811 32.7296C15.4123 30.8229 15.4123 30.8229 15.9116 30.0545C15.9513 29.9915 15.991 29.9285 16.032 29.8636C16.1523 29.6984 16.1523 29.6984 16.2877 29.5658C16.4117 29.4637 16.4117 29.4637 16.393 29.2972C16.4382 29.2756 16.4834 29.254 16.53 29.2317C16.7243 29.1314 16.9053 29.018 17.0901 28.9011C17.9942 28.3575 18.8959 28.329 19.9284 28.2893C20.0131 28.2858 20.0979 28.2823 20.1852 28.2788C20.3921 28.2703 20.599 28.2621 20.806 28.2542C20.7426 27.9484 20.6566 27.8522 20.4098 27.6574C18.8785 26.3345 17.9058 24.1312 17.7422 22.1361C17.6446 20.4428 18.0827 18.9371 19.2232 17.6433C20.2174 16.6391 21.5531 15.9866 22.9723 15.8979C23.0352 15.8937 23.0981 15.8894 23.1629 15.885C24.7099 15.8321 26.176 16.3859 27.3502 17.3823C28.4616 18.4292 29.0524 19.8674 29.1473 21.3774C29.1722 23.7355 28.1901 25.87 26.6118 27.585C26.4225 27.7728 26.4225 27.7728 26.198 27.948C26.1397 27.996 26.0814 28.0441 26.0213 28.0937C26.0213 28.1467 26.0213 28.1996 26.0213 28.2542C26.0713 28.2558 26.1213 28.2573 26.1729 28.259C29.3767 28.3658 29.3767 28.3658 30.4546 29.3787C31.0139 30.0144 31.3968 30.83 31.4135 31.6801C31.4151 31.7534 31.4168 31.8266 31.4184 31.9021C31.4198 31.978 31.4211 32.0539 31.4224 32.1321C31.4239 32.2027 31.4254 32.2733 31.427 32.346C31.4324 32.6085 31.4373 32.871 31.4422 33.1335C31.4538 33.721 31.4654 34.3084 31.4773 34.9137C33.3572 34.9137 35.2371 34.9137 37.174 34.9137C37.1811 32.1784 37.187 29.4432 37.1904 26.7079C37.1908 26.3852 37.1912 26.0625 37.1916 25.7398C37.1917 25.6756 37.1918 25.6113 37.1919 25.5451C37.1933 24.504 37.1958 23.4628 37.1988 22.4217C37.2018 21.3539 37.2036 20.2861 37.2042 19.2183C37.2047 18.559 37.206 17.8998 37.2087 17.2406C37.2103 16.7889 37.2109 16.3373 37.2104 15.8856C37.2102 15.6248 37.2107 15.3639 37.2123 15.1031C37.2139 14.8207 37.2135 14.5383 37.2126 14.2559C37.2135 14.1729 37.2145 14.0899 37.2154 14.0045C37.2148 13.9291 37.2142 13.8537 37.2135 13.776C37.2136 13.7108 37.2137 13.6456 37.2139 13.5784C37.1867 13.3982 37.1867 13.3982 37.031 13.2693C36.7474 13.1108 36.4514 13.136 36.1349 13.1377C36.0615 13.1372 35.9881 13.1366 35.9125 13.136C35.666 13.1345 35.4196 13.1347 35.1732 13.1349C34.9967 13.1342 34.8202 13.1334 34.6438 13.1325C34.164 13.1303 33.6843 13.1298 33.2045 13.1296C32.8043 13.1294 32.4041 13.1285 32.0039 13.1277C31.1139 13.1258 30.2239 13.1251 29.3339 13.1253C29.2805 13.1253 29.2271 13.1253 29.1721 13.1253C29.0919 13.1253 29.0919 13.1253 29.0101 13.1253C28.1434 13.1254 27.2767 13.1231 26.41 13.1197C25.5201 13.1163 24.6302 13.1146 23.7403 13.1148C23.2406 13.1149 22.741 13.1142 22.2414 13.1116C21.7716 13.1093 21.3019 13.1093 20.8321 13.111C20.6596 13.1113 20.487 13.1107 20.3145 13.1093C20.0791 13.1074 19.844 13.1085 19.6087 13.1104C19.5402 13.1091 19.4716 13.1079 19.401 13.1066C18.9036 13.1153 18.7545 13.2396 18.4791 13.6513ZM20.0337 18.671C19.4391 19.3806 19.0527 20.3083 18.9906 21.2285C18.9846 21.3128 18.9786 21.3971 18.9725 21.484C18.9666 21.5785 18.9666 21.5785 18.9605 21.6749C19.7577 22.0169 20.6388 21.7866 21.4209 21.479C22.4386 21.0011 23.1928 20.316 23.7151 19.3151C23.94 18.893 23.94 18.893 24.1686 18.813C24.4826 18.7913 24.6232 18.8397 24.8729 19.0371C24.9964 19.1907 25.1191 19.345 25.2409 19.5C25.8521 20.2296 26.7286 20.6234 27.626 20.8725C27.6789 20.8725 27.7319 20.8725 27.7865 20.8725C27.6309 19.6599 26.9887 18.7134 26.0398 17.9705C24.0871 16.6604 21.6456 16.9909 20.0337 18.671ZM24.4166 20.5516C24.3097 20.684 24.2047 20.8181 24.1006 20.9527C23.249 21.9953 21.9968 22.7733 20.6455 22.9586C20.1648 23.0021 19.6835 23.0233 19.2013 23.0389C19.5327 24.6686 20.5635 26.2923 21.933 27.2352C22.6091 27.6243 23.3306 27.8128 24.0956 27.6123C25.5374 27.1048 26.5207 25.8119 27.1701 24.4836C27.5208 23.7343 27.749 22.9859 27.7865 22.1563C27.7087 22.1405 27.6309 22.1248 27.5508 22.1086C26.447 21.8691 25.4337 21.4748 24.6175 20.6694C24.5153 20.5422 24.5153 20.5422 24.4166 20.5516ZM22.17 28.8158C22.1969 29.3361 22.2764 29.5731 22.6514 29.9391C23.1099 30.092 23.6044 30.0832 24.0555 29.914C24.3847 29.7006 24.3847 29.7006 24.5379 29.3565C24.5425 29.2922 24.5472 29.228 24.552 29.1618C24.5572 29.097 24.5625 29.0321 24.5679 28.9653C24.5709 28.916 24.5739 28.8666 24.577 28.8158C24.4504 28.8357 24.4504 28.8357 24.3213 28.8559C23.6043 28.9449 22.884 28.9126 22.17 28.8158ZM17.1954 30.5008C16.3417 31.8407 16.714 33.2976 16.714 34.9137C21.1357 34.9137 25.5575 34.9137 30.1133 34.9137C30.3578 32.3364 30.3578 32.3364 29.3742 30.235C28.8581 29.7481 28.3244 29.5963 27.6238 29.6025C27.5206 29.603 27.4175 29.6035 27.3112 29.6041C27.2038 29.6054 27.0965 29.6068 26.9891 29.6081C26.8796 29.6089 26.77 29.6097 26.6605 29.6103C26.3939 29.6122 26.1274 29.6149 25.8608 29.6182C25.8353 29.6725 25.8097 29.7268 25.7834 29.7828C25.7316 29.8902 25.7316 29.8902 25.6787 29.9999C25.628 30.1062 25.628 30.1062 25.5763 30.2146C25.2867 30.7256 24.7999 31.0554 24.2536 31.2501C23.4762 31.423 22.6223 31.4015 21.9293 30.9822C21.5273 30.7139 21.2769 30.4372 21.0683 29.9999C21.0337 29.9283 20.9992 29.8566 20.9636 29.7828C20.938 29.7284 20.9125 29.6741 20.8862 29.6182C20.5285 29.6088 20.1708 29.6031 19.8131 29.5981C19.7126 29.5954 19.6122 29.5927 19.5087 29.59C18.5781 29.5802 17.8184 29.7711 17.1954 30.5008ZM8.28922 36.1975C8.74458 37.3359 9.28404 37.9288 10.37 38.4275C10.7155 38.5635 10.992 38.6146 11.3637 38.6153C11.4507 38.6157 11.5378 38.616 11.6274 38.6164C11.723 38.6164 11.8185 38.6164 11.917 38.6164C12.0185 38.6167 12.1201 38.617 12.2247 38.6173C12.5068 38.6181 12.7889 38.6184 13.0709 38.6186C13.3751 38.6189 13.6793 38.6196 13.9834 38.6203C14.7181 38.6219 15.4528 38.6227 16.1875 38.6235C16.5336 38.6238 16.8797 38.6242 17.2258 38.6247C18.3766 38.626 19.5274 38.6272 20.6781 38.6278C20.9767 38.6279 21.2753 38.6281 21.5739 38.6282C21.6852 38.6283 21.6852 38.6283 21.7988 38.6283C23.0006 38.629 24.2024 38.631 25.4042 38.6337C26.6385 38.6363 27.8727 38.6378 29.107 38.638C29.7998 38.6382 30.4927 38.6389 31.1855 38.6409C31.7756 38.6427 32.3658 38.6433 32.9559 38.6425C33.2568 38.6422 33.5577 38.6423 33.8586 38.6439C34.1854 38.6456 34.5121 38.6447 34.8389 38.6437C34.9804 38.645 34.9804 38.645 35.1247 38.6464C36.0969 38.6388 36.9442 38.3279 37.6532 37.6511C38.0544 37.2168 38.3144 36.771 38.4578 36.1975C28.5022 36.1975 18.5465 36.1975 8.28922 36.1975Z" fill="black"/>
<path d="M5.29512 7.70314C5.43466 7.70263 5.43466 7.70263 5.57702 7.7021C5.67877 7.70214 5.78052 7.70218 5.88536 7.70221C5.99384 7.70197 6.10232 7.7017 6.21081 7.7014C6.50523 7.70069 6.79964 7.7005 7.09406 7.70045C7.27803 7.70039 7.46201 7.70022 7.64598 7.70001C8.2879 7.69927 8.92981 7.69894 9.57173 7.699C10.17 7.69905 10.7682 7.6982 11.3664 7.69694C11.8802 7.69589 12.394 7.69546 12.9078 7.69551C13.2146 7.69553 13.5214 7.6953 13.8282 7.69445C14.1167 7.69367 14.4052 7.69367 14.6937 7.69425C14.8499 7.69437 15.0061 7.69371 15.1623 7.69301C15.2556 7.69335 15.3489 7.69369 15.4449 7.69403C15.5258 7.69399 15.6067 7.69394 15.69 7.6939C15.9296 7.71552 16.0991 7.76373 16.3125 7.87434C16.5132 8.17526 16.516 8.32033 16.473 8.6767C16.3409 8.88875 16.2861 8.96405 16.0718 9.07787C15.7078 9.13857 15.3464 9.13096 14.9781 9.12724C14.8656 9.12752 14.753 9.12797 14.6404 9.12859C14.3352 9.12973 14.0301 9.12836 13.7249 9.12648C13.4054 9.12486 13.0859 9.12534 12.7664 9.12552C12.2299 9.12552 11.6935 9.12393 11.1571 9.12136C10.5369 9.1184 9.91681 9.1177 9.29663 9.11826C8.6999 9.11876 8.10317 9.1179 7.50645 9.11633C7.25253 9.11568 6.99862 9.11546 6.74471 9.11559C6.44577 9.11566 6.14687 9.11452 5.84794 9.11244C5.68588 9.11159 5.52383 9.11192 5.36177 9.11228C5.26537 9.11137 5.16896 9.11046 5.06964 9.10952C4.98585 9.10922 4.90205 9.10892 4.81572 9.10861C4.56745 9.07353 4.45766 9.0082 4.27722 8.83717C4.1918 8.6245 4.17789 8.42302 4.19698 8.19528C4.32642 7.96996 4.41136 7.83107 4.66148 7.74431C4.87536 7.70761 5.078 7.7035 5.29512 7.70314Z" fill="black"/>
<path d="M7.97255 10.5105C8.02985 10.5102 8.08715 10.5099 8.14619 10.5096C8.33571 10.5089 8.52524 10.5087 8.71476 10.5086C8.84658 10.5084 8.97839 10.5081 9.1102 10.5078C9.38661 10.5073 9.66301 10.5072 9.93941 10.5072C10.2933 10.5073 10.6472 10.5062 11.0011 10.5048C11.2734 10.5039 11.5457 10.5037 11.818 10.5038C11.9484 10.5037 12.0789 10.5033 12.2093 10.5027C12.392 10.5019 12.5746 10.5021 12.7572 10.5026C12.913 10.5025 12.913 10.5025 13.0719 10.5023C13.3348 10.5214 13.5119 10.5631 13.7452 10.6826C13.9153 10.8914 13.9055 11.0119 13.9006 11.2844C13.8084 11.6288 13.7233 11.6996 13.4242 11.8861C13.2131 11.9172 13.0358 11.9301 12.8253 11.9276C12.7664 11.9282 12.7075 11.9288 12.6468 11.9294C12.4529 11.9308 12.2591 11.9298 12.0652 11.9287C11.93 11.929 11.7949 11.9293 11.6597 11.9297C11.3767 11.9301 11.0937 11.9295 10.8107 11.928C10.4483 11.9261 10.086 11.9272 9.72368 11.9291C9.44463 11.9303 9.16559 11.9299 8.88654 11.9291C8.75295 11.9289 8.61936 11.9291 8.48577 11.9299C8.29889 11.9307 8.11213 11.9294 7.92526 11.9276C7.84284 11.9286 7.84284 11.9286 7.75875 11.9296C7.38212 11.923 7.18823 11.8331 6.92514 11.5652C6.8775 11.3843 6.8775 11.3843 6.88502 11.1991C6.88584 11.1378 6.88667 11.0764 6.88752 11.0132C6.93368 10.8044 6.99828 10.7324 7.16584 10.6024C7.44895 10.508 7.67367 10.5113 7.97255 10.5105Z" fill="black"/>
<path d="M7.78036 4.94561C7.84184 4.94517 7.90333 4.94474 7.96668 4.94429C8.16959 4.94329 8.37242 4.94461 8.57533 4.94606C8.71641 4.94605 8.85749 4.94593 8.99856 4.9457C9.29406 4.94559 9.58952 4.9466 9.88501 4.94843C10.264 4.95071 10.643 4.95049 11.022 4.94946C11.3132 4.94891 11.6044 4.94953 11.8957 4.95053C12.0354 4.95089 12.1752 4.95092 12.315 4.9506C12.5101 4.95037 12.7052 4.95169 12.9004 4.95344C12.9872 4.9529 12.9872 4.9529 13.0758 4.95235C13.4668 4.95819 13.4668 4.95819 13.6576 5.09821C13.8392 5.36428 13.8633 5.54641 13.8254 5.86845C13.6119 6.14525 13.492 6.25731 13.1442 6.32057C13.0354 6.32294 12.9267 6.32313 12.8179 6.32154C12.7583 6.32224 12.6986 6.32295 12.6371 6.32367C12.4406 6.32543 12.2442 6.32427 12.0477 6.32291C11.9107 6.32318 11.7737 6.32357 11.6368 6.32407C11.35 6.32467 11.0632 6.32381 10.7764 6.32193C10.4092 6.31965 10.0421 6.32096 9.67487 6.32337C9.39209 6.32482 9.10935 6.32435 8.82657 6.32331C8.69119 6.32305 8.55581 6.32337 8.42044 6.32431C8.23103 6.32533 8.04182 6.32377 7.85243 6.32154C7.76888 6.32276 7.76888 6.32276 7.68365 6.324C7.38016 6.31739 7.25162 6.27397 7.01045 6.08366C6.84494 5.86845 6.84494 5.86845 6.7998 5.58261C6.89524 4.99937 7.25034 4.93849 7.78036 4.94561Z" fill="black"/>
</svg>
