<svg width="48" height="42" viewBox="0 0 48 42" fill="none" xmlns="http://www.w3.org/2000/svg">
<path d="M23.739 1.0006C23.8177 1.00077 23.8963 1.00093 23.9774 1.0011C25.1116 1.00503 26.2135 1.03582 27.3226 1.29461C27.3899 1.30937 27.4572 1.32413 27.5265 1.33934C31.4633 2.2167 35.0755 4.47523 37.5296 7.68511C37.5686 7.73508 37.6075 7.78505 37.6477 7.83653C38.5445 8.99717 39.1886 10.2815 39.8373 11.5904C39.9388 11.5908 40.0403 11.5911 40.1449 11.5915C40.5269 11.5935 40.9088 11.5983 41.2908 11.604C41.4551 11.606 41.6194 11.6073 41.7837 11.6078C43.2769 11.613 44.367 11.8233 45.4886 12.8847C46.167 13.6032 46.5054 14.4877 46.5112 15.4595C46.5119 15.5269 46.5126 15.5944 46.5134 15.6639C46.5156 15.8869 46.5171 16.11 46.5183 16.333C46.519 16.4479 46.519 16.4479 46.5198 16.565C46.5221 16.9709 46.5239 17.3768 46.5251 17.7827C46.5263 18.1168 46.5288 18.4509 46.5324 18.785C46.5368 19.19 46.539 19.5949 46.5396 19.9999C46.5402 20.1533 46.5416 20.3067 46.5437 20.4601C46.5624 21.8834 46.2961 22.9225 45.2886 23.9873C44.6938 24.5488 43.8427 25.0053 43.0132 25.0028C42.9404 25.0028 42.8676 25.0028 42.7925 25.0028C42.7148 25.0023 42.637 25.0018 42.5569 25.0014C42.4365 25.0012 42.4365 25.0012 42.3136 25.001C42.0577 25.0005 41.8018 24.9994 41.5459 24.9982C41.3722 24.9978 41.1985 24.9974 41.0248 24.997C40.5994 24.9961 40.1739 24.9945 39.7485 24.9927C39.7329 25.089 39.7329 25.089 39.7169 25.1873C39.0826 27.9535 36.2924 30.7407 34.0681 32.3595C33.9931 32.4145 33.9931 32.4145 33.9165 32.4706C32.307 33.6357 29.8286 35.1997 27.7664 35.1997C27.7698 35.3117 27.7698 35.3117 27.7734 35.4259C27.7811 35.7086 27.7866 35.9912 27.7907 36.274C27.7929 36.3953 27.7959 36.5165 27.7998 36.6378C27.8388 37.8832 27.564 38.8943 26.7013 39.8151C26.0023 40.5538 25.0631 40.9711 24.056 40.9994C22.7139 41.0155 21.7688 40.6956 20.7837 39.7634C19.9014 38.8288 19.7277 37.768 19.7481 36.5436C19.7966 35.4451 20.3488 34.5791 21.1373 33.8462C21.7781 33.3267 22.5878 32.9765 23.4117 32.9371C23.5623 32.9288 23.5623 32.9288 23.7159 32.9203C23.8224 32.9146 23.9289 32.909 24.0386 32.9032C27.1941 32.7 30.2455 31.8077 32.7367 29.7856C32.7916 29.7411 32.8465 29.6966 32.903 29.6507C35.5092 27.5105 37.1777 24.7066 37.9734 21.4424C37.9893 21.3804 38.0052 21.3183 38.0216 21.2544C38.4852 19.3846 38.4512 17.0029 37.9734 15.1407C37.9558 15.0683 37.9381 14.996 37.92 14.9215C36.9737 11.1008 34.5812 7.85342 31.2206 5.79686C27.9174 3.85639 23.9342 3.30273 20.222 4.22359C18.024 4.82953 15.9919 5.8141 14.2753 7.33008C14.1888 7.40479 14.1023 7.4795 14.0132 7.55648C12.4732 8.90786 11.2868 10.6074 10.4588 12.478C10.4315 12.5392 10.4041 12.6005 10.376 12.6636C8.75415 16.3699 9.04168 20.2629 10.2903 24.0226C10.3887 24.3435 10.4682 24.6666 10.5475 24.9927C9.73425 25.003 8.92099 25.0109 8.10766 25.0157C7.72988 25.018 7.35215 25.0211 6.97439 25.0262C6.60895 25.031 6.24355 25.0337 5.87807 25.0348C5.73955 25.0356 5.60103 25.0372 5.46252 25.0396C4.09615 25.0625 3.06117 24.7384 2.05599 23.7872C1.37764 23.0686 1.03923 22.1841 1.03342 21.2124C1.0327 21.145 1.03197 21.0775 1.03122 21.008C1.02902 20.785 1.02755 20.5619 1.02627 20.3389C1.0258 20.2623 1.02533 20.1857 1.02484 20.1068C1.02247 19.7009 1.02075 19.295 1.01947 18.8891C1.01829 18.555 1.01582 18.221 1.01219 17.8869C1.00778 17.4819 1.00561 17.077 1.00498 16.6719C1.00439 16.5186 1.00305 16.3652 1.00091 16.2118C0.98217 14.7885 1.24855 13.7493 2.25604 12.6846C2.85085 12.1231 3.70189 11.6665 4.53139 11.6691C4.60422 11.6691 4.67705 11.6691 4.75208 11.6691C4.82985 11.6696 4.90762 11.67 4.98774 11.6705C5.10815 11.6707 5.10815 11.6707 5.23098 11.6709C5.4869 11.6714 5.74282 11.6725 5.99874 11.6736C6.17244 11.6741 6.34614 11.6745 6.51984 11.6748C6.94525 11.6758 7.37066 11.6773 7.79606 11.6792C7.8065 11.615 7.81693 11.5507 7.82768 11.4846C8.46199 8.71836 11.2522 5.93113 13.4765 4.31235C13.5265 4.27568 13.5765 4.23901 13.6281 4.20123C15.7522 2.66373 18.1808 1.67105 20.7546 1.20586C20.8448 1.18933 20.935 1.1728 21.0279 1.15578C21.9322 1.00756 22.8253 0.996714 23.739 1.0006ZM4.17367 14.7357C3.76116 15.219 3.70265 15.5813 3.70035 16.2026C3.69979 16.3072 3.69922 16.4118 3.69864 16.5195C3.69854 16.6318 3.69844 16.744 3.69834 16.8597C3.69804 16.9758 3.69775 17.0919 3.69744 17.2115C3.69691 17.4569 3.69675 17.7024 3.6968 17.9478C3.69681 18.2611 3.6956 18.5743 3.69407 18.8876C3.69284 19.1879 3.6929 19.4883 3.69279 19.7886C3.69215 19.9005 3.69152 20.0124 3.69086 20.1277C3.67612 21.0681 3.67612 21.0681 4.10711 21.8696C4.55603 22.2528 4.89687 22.3424 5.47625 22.3387C5.55491 22.3384 5.63357 22.3381 5.71461 22.3378C5.79556 22.3371 5.87651 22.3363 5.95991 22.3355C6.04257 22.3351 6.12523 22.3347 6.2104 22.3343C6.41352 22.3333 6.61663 22.3318 6.81974 22.33C6.77337 21.8247 6.71468 21.3234 6.64222 20.8211C6.34945 18.622 6.51521 16.5201 6.9085 14.3419C6.6108 14.3367 6.31311 14.3336 6.01538 14.3308C5.88984 14.3285 5.88984 14.3285 5.76176 14.3263C5.15617 14.3221 4.65013 14.3228 4.17367 14.7357ZM40.7249 14.3419C40.7599 14.7333 40.7974 15.1231 40.8567 15.5117C40.9976 16.4362 41.026 17.3462 41.0244 18.2805C41.0245 18.3576 41.0247 18.4348 41.0248 18.5143C41.0246 19.8141 40.9176 21.0572 40.6361 22.33C40.9338 22.3352 41.2315 22.3383 41.5292 22.3411C41.6129 22.3426 41.6966 22.3441 41.7828 22.3456C42.3884 22.3498 42.8945 22.3491 43.3709 21.9361C43.7834 21.4529 43.842 21.0906 43.8443 20.4693C43.8448 20.3647 43.8454 20.2601 43.846 20.1524C43.8461 20.0401 43.8462 19.9279 43.8463 19.8122C43.8466 19.6961 43.8469 19.58 43.8472 19.4604C43.8477 19.2149 43.8479 18.9695 43.8478 18.724C43.8478 18.4108 43.849 18.0976 43.8505 17.7843C43.8518 17.4839 43.8517 17.1836 43.8518 16.8832C43.8525 16.7713 43.8531 16.6595 43.8537 16.5442C43.8685 15.6037 43.8685 15.6037 43.4375 14.8023C42.9886 14.4191 42.6477 14.3295 42.0684 14.3332C41.9897 14.3335 41.911 14.3338 41.83 14.3341C41.7086 14.3352 41.7086 14.3352 41.5847 14.3363C41.502 14.3367 41.4194 14.3371 41.3342 14.3375C41.1311 14.3386 40.928 14.34 40.7249 14.3419ZM22.9014 36.0374C22.5518 36.4469 22.4902 36.6722 22.5016 37.1961C22.5544 37.6144 22.7671 37.8475 23.0733 38.1176C23.4566 38.2676 23.8102 38.276 24.2161 38.2175C24.6127 38.0228 24.8293 37.8192 25.0149 37.4187C25.1142 37.0404 25.114 36.6697 25.1092 36.2815C25.1088 36.22 25.1084 36.1585 25.108 36.0951C25.107 35.9446 25.1054 35.7941 25.1037 35.6435C24.8947 35.6387 24.6858 35.6352 24.4768 35.6324C24.3605 35.6304 24.2441 35.6283 24.1242 35.6262C23.6347 35.6503 23.2756 35.7131 22.9014 36.0374Z" fill="black" stroke="#EDDDFF"/>
<path d="M26.7013 6.61999C26.7722 6.63955 26.8431 6.65912 26.9161 6.67928C28.9721 7.26483 30.6523 8.26188 32.2043 9.72648C32.2697 9.7862 32.3351 9.84593 32.4026 9.90746C33.9673 11.3889 34.9213 13.3535 35.4883 15.4069C35.5138 15.4976 35.5138 15.4976 35.5399 15.5901C35.9954 17.2959 35.9664 19.5693 35.4883 21.2649C35.4687 21.3357 35.4491 21.4066 35.429 21.4796C34.8434 23.5356 33.8464 25.2158 32.3818 26.7678C32.322 26.8332 32.2623 26.8987 32.2008 26.9661C30.9532 28.2838 29.3283 29.1977 27.6222 29.78C27.5525 29.804 27.4828 29.828 27.411 29.8527C26.227 30.2313 25.0288 30.3584 23.7909 30.3483C23.6586 30.3482 23.5264 30.3483 23.3941 30.3484C23.0404 30.3485 22.6868 30.347 22.3332 30.3451C21.9616 30.3434 21.59 30.3433 21.2184 30.3429C20.5171 30.3421 19.8159 30.3399 19.1147 30.3373C18.3153 30.3343 17.5159 30.3328 16.7165 30.3315C15.0744 30.3287 13.4323 30.3238 11.7902 30.3181C11.7902 29.4101 11.7902 28.5021 11.7902 27.5666C12.2295 27.4787 12.2295 27.4787 12.6777 27.3891C13.2582 27.1639 13.673 26.8572 14.0091 26.324C14.1533 26.0309 14.1533 26.0309 14.1866 25.7027C14.0687 25.4707 13.9617 25.3045 13.8038 25.1036C12.3811 23.1283 11.75 20.7942 11.7569 18.3803C11.757 18.3138 11.757 18.2473 11.7571 18.1788C11.7694 14.9884 12.9796 12.2176 15.1629 9.90399C15.2227 9.83855 15.2824 9.77311 15.3439 9.70568C16.8254 8.14096 18.7899 7.18692 20.8434 6.61999C20.9341 6.59442 20.9341 6.59442 21.0266 6.56833C22.7323 6.11288 25.0058 6.14184 26.7013 6.61999ZM16.9381 12.0342C15.1382 13.9646 14.4319 16.3712 14.5028 18.9641C14.5949 20.8264 15.294 22.9676 16.6798 24.2809C16.9465 24.537 17.1017 24.6993 17.1468 25.0748C17.1109 25.7891 16.9056 26.4514 16.6718 27.1228C16.6125 27.3003 16.5533 27.4778 16.4943 27.6554C17.4257 27.6595 18.3571 27.6627 19.2885 27.6646C19.7211 27.6655 20.1538 27.6667 20.5864 27.6688C21.0054 27.6707 21.4244 27.6718 21.8433 27.6722C22.0017 27.6725 22.1601 27.6732 22.3185 27.6741C25.0009 27.6899 27.5202 27.3218 29.6303 25.5252C29.7064 25.4624 29.7825 25.3996 29.8609 25.3349C31.5435 23.8915 32.749 21.7966 33.0031 19.5785C33.2117 16.8384 32.6199 14.4141 30.8233 12.2994C29.145 10.3781 26.8901 9.2652 24.3548 9.02752C21.4842 8.90164 18.9405 10.0051 16.9381 12.0342Z" fill="black" stroke="#EDDDFF"/>
<path d="M27.7661 16.9159C28.6448 16.9159 29.5235 16.9159 30.4288 16.9159C30.4288 17.8238 30.4288 18.7318 30.4288 19.6673C29.5501 19.6673 28.6714 19.6673 27.7661 19.6673C27.7661 18.7593 27.7661 17.8514 27.7661 16.9159Z" fill="black"/>
<path d="M22.4409 16.9159C23.3196 16.9159 24.1983 16.9159 25.1036 16.9159C25.1036 17.8238 25.1036 18.7318 25.1036 19.6673C24.2249 19.6673 23.3462 19.6673 22.4409 19.6673C22.4409 18.7593 22.4409 17.8514 22.4409 16.9159Z" fill="black"/>
<path d="M17.1157 16.9159C17.9944 16.9159 18.8731 16.9159 19.7784 16.9159C19.7784 17.8238 19.7784 18.7318 19.7784 19.6673C18.8997 19.6673 18.021 19.6673 17.1157 19.6673C17.1157 18.7593 17.1157 17.8514 17.1157 16.9159Z" fill="black"/>
</svg>
