<svg width="33" height="30" viewBox="0 0 33 30" fill="none" xmlns="http://www.w3.org/2000/svg">
<path d="M3.98506 0.00827662C4.09598 0.008084 4.2069 0.00783611 4.31781 0.0075379C4.62177 0.00688333 4.92572 0.00702173 5.22968 0.00729451C5.55782 0.00745183 5.88596 0.00687721 6.21409 0.00639999C6.85662 0.00558783 7.49915 0.00547339 8.14168 0.00562258C8.66398 0.00573623 9.18627 0.00562467 9.70856 0.00535338C9.78291 0.00531546 9.85727 0.00527753 9.93387 0.00523845C10.0849 0.00516123 10.236 0.00508386 10.387 0.00500635C11.8034 0.00431337 13.2197 0.0044511 14.6361 0.0048397C15.9315 0.00516911 17.227 0.00445181 18.5224 0.00324035C19.853 0.00200563 21.1835 0.00147935 22.514 0.00171883C23.2609 0.00184069 24.0077 0.00168194 24.7546 0.000781164C25.3903 2.21006e-05 26.0261 -6.76944e-05 26.6619 0.000704068C26.9862 0.0010794 27.3105 0.00114916 27.6348 0.000385297C27.9318 -0.00030636 28.2289 -0.00010927 28.526 0.000784315C28.6332 0.00095307 28.7405 0.000801929 28.8477 0.000291356C29.8814 -0.0042866 30.8669 0.174978 31.6475 0.91503C32.2315 1.54899 32.6661 2.30027 32.6674 3.17639C32.6676 3.21777 32.6678 3.25915 32.6679 3.30179C32.6683 3.44102 32.6683 3.58025 32.6683 3.71949C32.6685 3.8201 32.6687 3.92071 32.669 4.02132C32.6696 4.29826 32.6699 4.5752 32.67 4.85215C32.6703 5.15067 32.6709 5.44918 32.6714 5.7477C32.6727 6.46891 32.6733 7.19012 32.6739 7.91133C32.6742 8.25098 32.6745 8.59064 32.6749 8.93029C32.676 10.0594 32.6769 11.1886 32.6773 12.3178C32.6775 12.6108 32.6776 12.9039 32.6777 13.1969C32.6777 13.2697 32.6778 13.3426 32.6778 13.4176C32.6783 14.5973 32.6799 15.7769 32.682 16.9565C32.6841 18.1677 32.6853 19.3789 32.6855 20.5901C32.6856 21.2701 32.6862 21.9501 32.6878 22.6301C32.6892 23.2093 32.6897 23.7885 32.6891 24.3677C32.6888 24.6631 32.6889 24.9584 32.6901 25.2538C32.6913 25.5246 32.6912 25.7954 32.6902 26.0661C32.6901 26.1637 32.6903 26.2613 32.6911 26.3589C32.6985 27.3698 32.4309 28.2239 31.7419 28.9821C30.8719 29.8373 29.8697 29.9945 28.7062 29.9917C28.5953 29.9919 28.4843 29.9921 28.3734 29.9924C28.0695 29.9931 27.7655 29.9929 27.4616 29.9926C27.1334 29.9925 26.8053 29.9931 26.4771 29.9935C25.8346 29.9944 25.1921 29.9945 24.5496 29.9943C24.0273 29.9942 23.505 29.9943 22.9827 29.9946C22.9083 29.9946 22.834 29.9947 22.7574 29.9947C22.6063 29.9948 22.4553 29.9949 22.3042 29.9949C20.8879 29.9956 19.4715 29.9955 18.0552 29.9951C16.7597 29.9948 15.4642 29.9955 14.1688 29.9967C12.8383 29.9979 11.5077 29.9985 10.1772 29.9982C9.43037 29.9981 8.68352 29.9983 7.93667 29.9992C7.30089 29.9999 6.66512 30 6.02933 29.9992C5.70505 29.9989 5.38077 29.9988 5.05648 29.9996C4.7594 30.0002 4.46232 30 4.16523 29.9992C4.05799 29.999 3.95075 29.9991 3.8435 29.9996C2.80985 30.0042 1.82433 29.825 1.04371 29.0849C0.459732 28.4509 0.0251411 27.6997 0.0237885 26.8235C0.0236386 26.7822 0.0234886 26.7408 0.0233341 26.6982C0.0229085 26.5589 0.0229371 26.4197 0.0229632 26.2804C0.0227529 26.1798 0.0225154 26.0792 0.0222531 25.9786C0.0216146 25.7017 0.0213779 25.4247 0.0212088 25.1478C0.0209601 24.8493 0.0203497 24.5508 0.0197933 24.2522C0.0185338 23.531 0.0178924 22.8098 0.0173255 22.0886C0.0170462 21.749 0.016704 21.4093 0.0163702 21.0696C0.015286 19.9405 0.0143626 18.8113 0.0139012 17.6822C0.0137794 17.3891 0.013657 17.0961 0.0135324 16.803C0.0135016 16.7302 0.0134708 16.6574 0.013439 16.5823C0.0129102 15.4027 0.0112958 14.223 0.00922587 13.0434C0.00711793 11.8322 0.0059708 10.621 0.00576723 9.40981C0.0056293 8.7298 0.00507225 8.0498 0.00344356 7.3698C0.00205955 6.79061 0.00154782 6.21143 0.00216711 5.63225C0.0024565 5.33686 0.00233711 5.04149 0.00109899 4.7461C-2.61488e-05 4.47533 4.03031e-05 4.20458 0.00102874 3.93381C0.00117991 3.8362 0.000905906 3.73859 0.000147546 3.64099C-0.00721598 2.63011 0.260386 1.77607 0.949366 1.01783C1.81934 0.162637 2.82152 0.00541472 3.98506 0.00827662ZM2.00778 2.00033C1.11382 3.04953 1.43426 3.8707 1.43426 5.44141C11.2758 5.44141 21.1173 5.44141 31.257 5.44141C31.4103 3.60245 31.4103 3.60245 30.7527 2.06903C30.266 1.58422 29.675 1.41106 29.0017 1.4106C28.957 1.41039 28.9123 1.41019 28.8662 1.40998C28.7171 1.40945 28.5681 1.40982 28.419 1.4102C28.3107 1.41001 28.2024 1.40976 28.0941 1.40946C27.7972 1.40881 27.5002 1.40894 27.2033 1.40922C26.8828 1.40937 26.5623 1.4088 26.2418 1.40832C25.6141 1.40751 24.9865 1.4074 24.3588 1.40754C23.8487 1.40766 23.3385 1.40755 22.8283 1.40728C22.7557 1.40724 22.6831 1.4072 22.6083 1.40716C22.4608 1.40708 22.3133 1.40701 22.1658 1.40693C20.7824 1.40624 19.3991 1.40637 18.0157 1.40676C16.7503 1.40709 15.4849 1.40637 14.2195 1.40516C12.92 1.40393 11.6205 1.4034 10.321 1.40364C9.59149 1.40376 8.86199 1.4036 8.13249 1.4027C7.51147 1.40194 6.89045 1.40185 6.26943 1.40263C5.95263 1.403 5.63585 1.40307 5.31906 1.40231C5.02889 1.40162 4.73873 1.40181 4.44856 1.40271C4.34376 1.40288 4.23896 1.40272 4.13416 1.40221C3.34319 1.39863 2.62581 1.45211 2.00778 2.00033ZM1.43426 6.84333C1.42901 10.1541 1.42375 13.4648 1.41833 16.8758C1.41601 17.9219 1.41369 18.968 1.4113 20.0457C1.41045 20.9819 1.41045 20.9819 1.40994 21.9182C1.4097 22.3357 1.40876 22.7533 1.40735 23.1709C1.40573 23.6525 1.40499 24.1341 1.40535 24.6157C1.4055 24.8621 1.40526 25.1084 1.40388 25.3548C1.40241 25.6187 1.40291 25.8826 1.40361 26.1466C1.40287 26.2233 1.40213 26.2999 1.40136 26.3789C1.40456 26.8281 1.46668 27.1614 1.68916 27.5535C1.71758 27.6044 1.746 27.6552 1.77529 27.7076C2.13634 28.2093 2.61856 28.4556 3.21853 28.5731C3.37523 28.584 3.53242 28.5892 3.6895 28.5893C3.73422 28.5895 3.77895 28.5898 3.82503 28.59C3.97411 28.5905 4.12317 28.5901 4.27226 28.5897C4.38053 28.5899 4.48881 28.5902 4.59709 28.5905C4.89405 28.5911 5.191 28.591 5.48796 28.5907C5.80846 28.5906 6.12895 28.5911 6.44944 28.5916C7.07709 28.5924 7.70474 28.5925 8.3324 28.5924C8.84257 28.5923 9.35274 28.5924 9.86291 28.5927C9.93553 28.5927 10.0081 28.5927 10.083 28.5928C10.2305 28.5929 10.378 28.5929 10.5255 28.593C11.9088 28.5937 13.2922 28.5936 14.6755 28.5932C15.9409 28.5928 17.2064 28.5936 18.4718 28.5948C19.7713 28.596 21.0708 28.5965 22.3702 28.5963C23.0998 28.5962 23.8292 28.5963 24.5588 28.5972C25.1798 28.598 25.8008 28.5981 26.4218 28.5973C26.7386 28.5969 27.0554 28.5969 27.3722 28.5976C27.6624 28.5983 27.9525 28.5981 28.2427 28.5972C28.3475 28.5971 28.4523 28.5972 28.5571 28.5977C29.348 28.6013 30.0654 28.5478 30.6835 27.9996C31.0391 27.5822 31.2731 27.1778 31.2727 26.6185C31.2729 26.5476 31.2732 26.4766 31.2734 26.4036C31.2731 26.3264 31.2727 26.2491 31.2723 26.1696C31.2724 26.0872 31.2725 26.0049 31.2726 25.92C31.2729 25.6914 31.2724 25.4628 31.2718 25.2341C31.2712 24.9838 31.2714 24.7335 31.2715 24.4832C31.2716 23.9973 31.271 23.5114 31.2702 23.0255C31.2692 22.4635 31.2691 21.9014 31.269 21.3394C31.2684 19.8555 31.2666 18.3717 31.2649 16.8878C31.2623 13.5731 31.2597 10.2584 31.257 6.84333C21.4155 6.84333 11.574 6.84333 1.43426 6.84333Z" fill="black"/>
<path d="M11.3656 9.50925C13.3035 9.45424 15.2148 10.1436 16.6321 11.4678C18.059 12.8502 19.0318 14.5779 19.1073 16.603C19.1361 18.6308 18.5953 20.3769 17.3017 21.9458C17.2662 21.9904 17.2307 22.0349 17.1941 22.0808C16.0109 23.5276 14.1363 24.3285 12.3178 24.5309C10.3775 24.7168 8.40725 24.1435 6.88481 22.9174C5.35593 21.6544 4.36605 19.9742 4.11084 17.995C4.0907 17.6868 4.08651 17.3798 4.08694 17.071C4.08698 17.0291 4.08701 16.9872 4.08705 16.944C4.08976 16.2272 4.15441 15.5586 4.36573 14.8725C4.37905 14.8287 4.39237 14.785 4.40609 14.7399C4.70284 13.8003 5.18004 12.9358 5.83138 12.1961C5.87508 12.144 5.91878 12.0919 5.96381 12.0383C7.22003 10.5787 9.08329 9.67417 11.0007 9.53016C11.1224 9.52323 11.244 9.51626 11.3656 9.50925ZM7.03018 12.9767C5.85752 14.3111 5.42204 15.936 5.51276 17.6763C5.61695 18.7336 6.06113 19.6465 6.59607 20.5439C6.72155 20.3876 6.84651 20.231 6.96945 20.0727C7.60523 19.2596 8.29328 18.725 9.20874 18.2499C9.11639 18.0497 9.00246 17.8842 8.87021 17.7082C8.26704 16.8595 8.18107 16.0102 8.25288 14.9999C8.40301 14.1875 8.89704 13.4108 9.56768 12.9299C10.4396 12.3716 11.3519 12.1684 12.374 12.3696C13.2446 12.622 13.9934 13.1039 14.4779 13.887C14.9516 14.7767 15.0985 15.6974 14.8443 16.6807C14.6545 17.2662 14.3172 17.7224 13.9243 18.1861C13.9699 18.212 13.9699 18.212 14.0164 18.2383C15.0579 18.8347 15.8344 19.4568 16.4732 20.4802C16.7499 20.388 16.8157 20.1803 16.9432 19.9346C16.9686 19.886 16.9939 19.8375 17.02 19.7875C17.7876 18.2714 17.8676 16.6155 17.3455 15.0079C17.0855 14.2774 16.6968 13.6943 16.2184 13.0882C16.1736 13.0275 16.1736 13.0275 16.128 12.9655C15.2861 11.8801 13.9022 11.2991 12.6025 11.0102C10.4489 10.752 8.53255 11.3988 7.03018 12.9767ZM10.1646 14.2353C9.72769 14.748 9.5579 15.199 9.57167 15.8722C9.6257 16.4596 9.91317 16.9117 10.3558 17.294C10.8999 17.6318 11.3749 17.7291 12.0126 17.6763C12.2248 17.62 12.399 17.5353 12.5861 17.4214C12.6306 17.3952 12.6751 17.3689 12.721 17.3418C13.1474 17.0586 13.4168 16.6414 13.5698 16.1549C13.6722 15.626 13.5858 15.1053 13.3236 14.638C12.9771 14.1272 12.5648 13.8082 11.9561 13.6896C11.2734 13.6057 10.6829 13.7755 10.1646 14.2353ZM8.12544 20.8147C7.80237 21.1797 7.80237 21.1797 7.68908 21.6272C7.90973 22.1478 8.89647 22.4992 9.39991 22.7105C10.8828 23.247 12.6225 23.2309 14.0684 22.5821C14.5855 22.334 15.0749 22.0582 15.5174 21.6909C15.2556 20.7589 14.4083 20.0545 13.5995 19.5882C11.6203 18.5448 9.54554 19.2551 8.12544 20.8147Z" fill="black"/>
<path d="M21.1002 19.0689C21.1621 19.0685 21.224 19.068 21.2878 19.0675C21.356 19.0674 21.4242 19.0672 21.4944 19.067C21.6018 19.0664 21.6018 19.0664 21.7114 19.0658C21.9491 19.0645 22.1869 19.0638 22.4246 19.0631C22.5057 19.0629 22.5867 19.0626 22.6702 19.0623C23.0548 19.0611 23.4394 19.0602 23.8239 19.0597C24.2678 19.0591 24.7117 19.0574 25.1556 19.0548C25.54 19.0527 25.9245 19.0519 26.309 19.0516C26.4725 19.0513 26.6361 19.0506 26.7996 19.0494C27.0283 19.0479 27.257 19.0479 27.4857 19.0484C27.5534 19.0475 27.6212 19.0467 27.691 19.0459C28.1503 19.0491 28.1503 19.0491 28.3982 19.1997C28.5764 19.4 28.5891 19.5117 28.592 19.7742C28.5932 19.8722 28.5932 19.8722 28.5945 19.9721C28.5949 20.043 28.5954 20.1138 28.5959 20.1867C28.5964 20.2594 28.5969 20.332 28.5974 20.4068C28.5983 20.5607 28.599 20.7146 28.5995 20.8685C28.6006 21.1039 28.6034 21.3392 28.6062 21.5746C28.6069 21.724 28.6074 21.8734 28.6078 22.0228C28.609 22.0932 28.6101 22.1637 28.6112 22.2362C28.6098 22.7257 28.6098 22.7257 28.4595 22.9766C28.2639 23.1467 28.1582 23.1647 27.9046 23.166C27.8117 23.1667 27.8117 23.1667 27.7169 23.1674C27.6488 23.1676 27.5806 23.1677 27.5104 23.1679C27.4388 23.1683 27.3672 23.1687 27.2934 23.1692C27.0556 23.1704 26.8179 23.1712 26.5801 23.1718C26.4991 23.1721 26.4181 23.1723 26.3346 23.1726C25.95 23.1738 25.5654 23.1747 25.1808 23.1752C24.7369 23.1759 24.2931 23.1775 23.8492 23.1801C23.4647 23.1823 23.0803 23.183 22.6958 23.1833C22.5322 23.1836 22.3687 23.1843 22.2052 23.1855C21.9765 23.1871 21.7478 23.187 21.5191 23.1866C21.4513 23.1874 21.3836 23.1882 21.3137 23.189C20.8544 23.1858 20.8544 23.1858 20.6065 23.0353C20.4284 22.8349 20.4156 22.7233 20.4128 22.4607C20.412 22.3954 20.4112 22.3301 20.4103 22.2628C20.4098 22.192 20.4094 22.1212 20.4089 22.0482C20.4084 21.9756 20.4079 21.903 20.4073 21.8281C20.4064 21.6742 20.4058 21.5203 20.4053 21.3664C20.4042 21.131 20.4014 20.8957 20.3986 20.6603C20.3979 20.5109 20.3974 20.3615 20.3969 20.2121C20.3953 20.1065 20.3953 20.1065 20.3936 19.9987C20.3949 19.5093 20.3949 19.5093 20.5452 19.2584C20.7408 19.0882 20.8466 19.0702 21.1002 19.0689ZM21.826 20.4802C21.826 20.9008 21.826 21.3214 21.826 21.7547C23.5924 21.7547 25.3588 21.7547 27.1788 21.7547C27.1788 21.3341 27.1788 20.9135 27.1788 20.4802C25.4124 20.4802 23.6459 20.4802 21.826 20.4802Z" fill="black"/>
<path d="M21.1002 10.9122C21.1621 10.9118 21.224 10.9113 21.2878 10.9109C21.356 10.9107 21.4242 10.9105 21.4944 10.9103C21.6018 10.9097 21.6018 10.9097 21.7114 10.9091C21.9491 10.9078 22.1869 10.9071 22.4246 10.9064C22.5057 10.9062 22.5867 10.9059 22.6702 10.9056C23.0548 10.9044 23.4394 10.9035 23.8239 10.903C24.2678 10.9024 24.7117 10.9007 25.1556 10.8981C25.54 10.896 25.9245 10.8952 26.309 10.8949C26.4725 10.8946 26.6361 10.8939 26.7996 10.8927C27.0283 10.8912 27.257 10.8912 27.4857 10.8917C27.5534 10.8908 27.6212 10.89 27.691 10.8892C28.1503 10.8924 28.1503 10.8924 28.3982 11.043C28.5764 11.2433 28.5891 11.355 28.592 11.6175C28.5932 11.7155 28.5932 11.7155 28.5945 11.8154C28.5949 11.8863 28.5954 11.9571 28.5959 12.0301C28.5964 12.1027 28.5969 12.1753 28.5974 12.2501C28.5983 12.404 28.599 12.5579 28.5995 12.7118C28.6006 12.9472 28.6034 13.1825 28.6062 13.4179C28.6069 13.5673 28.6074 13.7167 28.6078 13.8661C28.609 13.9365 28.6101 14.007 28.6112 14.0795C28.6098 14.569 28.6098 14.569 28.4595 14.8199C28.2639 14.99 28.1582 15.008 27.9046 15.0093C27.8117 15.01 27.8117 15.01 27.7169 15.0107C27.6488 15.0109 27.5806 15.011 27.5104 15.0112C27.4388 15.0116 27.3672 15.012 27.2934 15.0125C27.0556 15.0137 26.8179 15.0145 26.5801 15.0151C26.4991 15.0154 26.4181 15.0156 26.3346 15.0159C25.95 15.0171 25.5654 15.018 25.1808 15.0186C24.7369 15.0192 24.2931 15.0209 23.8492 15.0234C23.4647 15.0256 23.0803 15.0263 22.6958 15.0266C22.5322 15.0269 22.3687 15.0277 22.2052 15.0288C21.9765 15.0304 21.7478 15.0303 21.5191 15.0299C21.4513 15.0307 21.3836 15.0315 21.3137 15.0324C20.8544 15.0291 20.8544 15.0291 20.6065 14.8786C20.4284 14.6782 20.4156 14.5666 20.4128 14.304C20.412 14.2387 20.4112 14.1734 20.4103 14.1061C20.4098 14.0353 20.4094 13.9645 20.4089 13.8915C20.4084 13.8189 20.4079 13.7463 20.4073 13.6714C20.4064 13.5175 20.4058 13.3636 20.4053 13.2097C20.4042 12.9743 20.4014 12.739 20.3986 12.5036C20.3979 12.3542 20.3974 12.2048 20.3969 12.0554C20.3953 11.9498 20.3953 11.9498 20.3936 11.842C20.3949 11.3526 20.3949 11.3526 20.5452 11.1017C20.7408 10.9315 20.8466 10.9135 21.1002 10.9122ZM21.826 12.3235C21.826 12.7441 21.826 13.1647 21.826 13.598C23.5924 13.598 25.3588 13.598 27.1788 13.598C27.1788 13.1774 27.1788 12.7569 27.1788 12.3235C25.4124 12.3235 23.6459 12.3235 21.826 12.3235Z" fill="black"/>
<path d="M6.46895 2.76501C6.64892 2.90458 6.7503 3.00908 6.85129 3.21108C6.877 3.47839 6.86671 3.62688 6.74376 3.86823C6.58576 4.05184 6.51289 4.11773 6.27778 4.16693C5.99167 4.16182 5.86871 4.13458 5.64851 3.94788C5.43606 3.6917 5.4268 3.54406 5.44937 3.21108C5.6655 2.74794 5.99387 2.68848 6.46895 2.76501Z" fill="black"/>
<path d="M9.1451 2.76505C9.33258 2.84795 9.38927 2.91786 9.52744 3.08367C9.62271 3.34578 9.60808 3.54074 9.52346 3.80454C9.37002 4.01739 9.26764 4.08679 9.01765 4.16697C8.7145 4.19194 8.55204 4.14006 8.31669 3.94394C8.16623 3.73227 8.1474 3.53788 8.16161 3.28256C8.20284 3.08086 8.29637 2.96786 8.44414 2.82878C8.66716 2.71726 8.90175 2.72994 9.1451 2.76505Z" fill="black"/>
<path d="M3.72804 2.76505C3.91095 2.87936 4.01425 2.95511 4.11039 3.14739C4.15101 3.4376 4.15984 3.69936 3.98294 3.94394C3.74759 4.14006 3.58512 4.19193 3.28198 4.16697C3.03199 4.08678 2.92961 4.01738 2.77617 3.80454C2.69155 3.54073 2.67692 3.34577 2.77219 3.08367C3.04374 2.75781 3.31049 2.67969 3.72804 2.76505Z" fill="black"/>
</svg>
