<svg width="21" height="35" viewBox="0 0 21 35" fill="none" xmlns="http://www.w3.org/2000/svg">
<path d="M20.7082 3.25078V3.22957C20.6392 1.81366 19.446 0.662903 18.046 0.662903H2.89529C1.45817 0.662903 0.291504 1.82957 0.291504 3.26669V31.7705C0.360443 33.1864 1.5112 34.3159 2.9165 34.3371H18.1044C18.1892 34.3371 18.2794 34.3318 18.3748 34.3265C18.7779 34.2841 19.165 34.1515 19.5309 33.9182C19.7006 33.8015 19.8226 33.6955 19.9286 33.5894C20.3847 33.1228 20.6604 32.5129 20.7029 31.8978C20.7135 31.8447 20.7135 31.7864 20.7135 31.7334L20.7082 28.9811L20.7135 6.01896V3.25078H20.7082ZM16.7203 28.5834H14.8642V19.0909C14.8642 19.0167 14.9226 18.9584 14.9968 18.9584H16.5877C16.662 18.9584 16.7203 19.0167 16.7203 19.0909V28.5834ZM16.5877 18.1629H14.9968C14.4877 18.1629 14.0688 18.5818 14.0688 19.0909V28.5834H12.218V22.2728C12.218 21.7637 11.7991 21.3447 11.29 21.3447H9.69908C9.18999 21.3447 8.77105 21.7637 8.77105 22.2728V28.5834H6.92029V25.4546C6.92029 24.9455 6.50135 24.5265 5.99226 24.5265H4.40135C3.89226 24.5265 3.47332 24.9455 3.47332 25.4546V28.5834H1.08696V27.5758C1.08696 27.5546 1.08696 27.5387 1.08166 27.5174L1.08696 6.41669H19.9127L19.9074 28.5834H17.5157V19.0909C17.5157 18.5765 17.0968 18.1629 16.5877 18.1629ZM11.4226 28.5834H9.5665V22.2728C9.5665 22.1985 9.62484 22.1402 9.69908 22.1402H11.29C11.3642 22.1402 11.4226 22.1985 11.4226 22.2728V28.5834ZM6.12484 28.5834H4.26878V25.4546C4.26878 25.3803 4.32711 25.322 4.40135 25.322H5.99226C6.0665 25.322 6.12484 25.3803 6.12484 25.4546V28.5834ZM1.08696 3.26669C1.08696 2.26972 1.89832 1.45836 2.89529 1.45836H18.046C19.0218 1.45836 19.8597 2.26442 19.9127 3.26139V5.62124H1.08696V3.26669ZM19.9074 31.8076C19.8756 32.2637 19.6847 32.6985 19.3559 33.0326C19.287 33.1068 19.2021 33.1758 19.0907 33.25C18.8415 33.4038 18.571 33.4993 18.3006 33.5311C18.237 33.5364 18.168 33.5417 18.0991 33.5417H2.92181C1.94075 33.5258 1.13469 32.7303 1.08696 31.7493V29.3788H19.9074L19.9127 31.7334H20.3104L19.9074 31.8076Z" fill="black" stroke="black" stroke-width="0.2"/>
<path d="M11.6346 3.05457H9.3702C9.15277 3.05457 8.97247 3.23487 8.97247 3.45229C8.97247 3.66972 9.15277 3.85002 9.3702 3.85002H11.6346C11.7401 3.85002 11.8412 3.80812 11.9158 3.73353C11.9904 3.65894 12.0323 3.55778 12.0323 3.45229C12.0323 3.34681 11.9904 3.24565 11.9158 3.17106C11.8412 3.09647 11.7401 3.05457 11.6346 3.05457ZM11.6346 31.0652H9.3702C9.15277 31.0652 8.97247 31.2455 8.97247 31.4629C8.97247 31.6803 9.15277 31.8606 9.3702 31.8606H11.6346C11.7401 31.8606 11.8412 31.8187 11.9158 31.7441C11.9904 31.6695 12.0323 31.5684 12.0323 31.4629C12.0323 31.3574 11.9904 31.2563 11.9158 31.1817C11.8412 31.1071 11.7401 31.0652 11.6346 31.0652ZM7.85353 8.3629C5.57322 7.75305 3.22398 9.11063 2.61413 11.3909C2.44581 12.0104 2.41991 12.66 2.53838 13.291C2.65686 13.9219 2.91663 14.5179 3.29822 15.0341C3.87669 15.8169 4.70267 16.3812 5.64216 16.6356C6.18457 16.7829 6.75087 16.8208 7.30807 16.7471C7.86527 16.6733 8.40221 16.4894 8.88762 16.2061C9.37582 15.9257 9.80348 15.5512 10.1458 15.1042C10.4881 14.6572 10.7382 14.1467 10.8816 13.6023C11.1785 12.4993 11.0247 11.3485 10.452 10.3568C9.87929 9.36517 8.95656 8.65457 7.85353 8.3629ZM9.76262 10.7546C10.1603 11.444 10.3088 12.2341 10.1922 13.0084L7.23307 12.2182L8.02322 9.25911C8.75504 9.54017 9.36489 10.0599 9.76262 10.7546ZM3.38307 11.5924C3.79671 10.0387 5.21262 9.00987 6.7505 9.00987C6.92019 9.00987 7.08989 9.02047 7.25959 9.04699L6.94141 10.2402L6.4005 12.2606L5.54141 12.8917L3.71716 14.2334C3.26199 13.4315 3.14191 12.4824 3.38307 11.5924ZM8.48989 15.5167C8.09375 15.7468 7.65596 15.8962 7.20178 15.9563C6.74761 16.0164 6.28603 15.9859 5.84368 15.8667C5.20732 15.697 4.62929 15.347 4.18913 14.875L6.83004 12.9341L9.99065 13.7773C9.69839 14.5082 9.17014 15.1205 8.48989 15.5167ZM12.971 10.9561H18.1255C18.3429 10.9561 18.5232 10.7758 18.5232 10.5584C18.5232 10.3409 18.3429 10.1606 18.1255 10.1606H12.971C12.7535 10.1606 12.5732 10.3409 12.5732 10.5584C12.5732 10.7758 12.7535 10.9561 12.971 10.9561ZM18.5232 12.494C18.5232 12.2765 18.3429 12.0962 18.1255 12.0962H12.971C12.7535 12.0962 12.5732 12.2765 12.5732 12.494C12.5732 12.7114 12.7535 12.8917 12.971 12.8917H18.1255C18.3429 12.8917 18.5232 12.7167 18.5232 12.494ZM16.0626 14.0371H12.971C12.7535 14.0371 12.5732 14.2174 12.5732 14.4349C12.5732 14.6523 12.7535 14.8326 12.971 14.8326H16.0626C16.1681 14.8326 16.2693 14.7907 16.3439 14.7161C16.4184 14.6415 16.4603 14.5404 16.4603 14.4349C16.4603 14.3294 16.4184 14.2282 16.3439 14.1536C16.2693 14.079 16.1681 14.0371 16.0626 14.0371Z" fill="black" stroke="black" stroke-width="0.2"/>
</svg>
