<svg width="35" height="35" viewBox="0 0 35 35" fill="none" xmlns="http://www.w3.org/2000/svg">
<path d="M15.6711 6.37045C15.7389 6.3703 15.8067 6.37014 15.8766 6.36999C16.1029 6.36955 16.3292 6.36961 16.5555 6.36967C16.7181 6.36946 16.8808 6.36923 17.0434 6.36897C17.4388 6.36843 17.8343 6.36822 18.2297 6.36818C18.5514 6.36815 18.8731 6.36801 19.1948 6.36779C20.1083 6.36719 21.0218 6.36687 21.9353 6.36693C22.009 6.36693 22.009 6.36693 22.0843 6.36693C22.1335 6.36694 22.1828 6.36694 22.2335 6.36694C23.031 6.36697 23.8285 6.36632 24.6259 6.36536C25.4462 6.36437 26.2664 6.3639 27.0867 6.36396C27.5466 6.36399 28.0066 6.3638 28.4665 6.36306C28.8993 6.3624 29.3321 6.3624 29.765 6.36289C29.9233 6.36297 30.0817 6.36281 30.2401 6.36239C31.6903 6.35885 32.8636 6.41043 33.9889 7.42855C34.5211 8.01675 34.9769 8.73287 34.9788 9.55233C34.9791 9.61393 34.9794 9.67552 34.9797 9.73898C34.9797 9.84008 34.9797 9.84008 34.9797 9.94322C34.9799 10.015 34.9802 10.0869 34.9805 10.1608C34.9812 10.4023 34.9815 10.6437 34.9817 10.8852C34.9822 11.058 34.9826 11.2308 34.9831 11.4036C34.9844 11.9228 34.9851 12.442 34.9857 12.9612C34.986 13.2059 34.9864 13.4506 34.9868 13.6953C34.9879 14.5092 34.9889 15.323 34.9894 16.1369C34.9895 16.3481 34.9897 16.5592 34.9898 16.7704C34.9898 16.8228 34.9899 16.8753 34.9899 16.9294C34.9905 17.7788 34.9922 18.6281 34.9944 19.4775C34.9967 20.3502 34.9979 21.223 34.9981 22.0957C34.9983 22.5855 34.9989 23.0752 35.0006 23.5649C35.0022 24.0259 35.0025 24.4869 35.0018 24.9478C35.0017 25.1167 35.0022 25.2856 35.0031 25.4544C35.01 26.7739 34.8958 27.8199 33.9463 28.826C33.0527 29.5672 32.143 29.7918 30.9984 29.7907C30.8959 29.791 30.8959 29.791 30.7914 29.7913C30.5634 29.7919 30.3353 29.792 30.1073 29.7921C29.9434 29.7924 29.7795 29.7928 29.6157 29.7931C29.171 29.794 28.7264 29.7945 28.2818 29.7948C28.0038 29.795 27.7257 29.7953 27.4477 29.7956C26.6766 29.7964 25.9056 29.7971 25.1345 29.7973C25.0606 29.7974 25.0606 29.7974 24.9852 29.7974C24.9111 29.7974 24.9111 29.7974 24.8356 29.7974C24.7355 29.7975 24.6354 29.7975 24.5354 29.7975C24.4857 29.7975 24.4361 29.7975 24.385 29.7976C23.5814 29.7978 22.7778 29.799 21.9742 29.8006C21.1475 29.8022 20.3209 29.8031 19.4942 29.8032C19.0307 29.8032 18.5672 29.8036 18.1038 29.8049C17.6675 29.806 17.2313 29.8061 16.795 29.8055C16.6355 29.8055 16.4759 29.8058 16.3163 29.8064C14.9235 29.812 13.6717 29.7408 12.6088 28.7223C11.9706 28.0199 11.6266 27.162 11.6286 26.2142C11.6286 26.0893 11.6286 26.0893 11.6286 25.9618C11.629 25.8729 11.6293 25.784 11.6297 25.6924C11.6298 25.5996 11.6299 25.5069 11.63 25.4142C11.6302 25.1712 11.6309 24.9283 11.6316 24.6854C11.6323 24.437 11.6327 24.1887 11.633 23.9403C11.6337 23.4539 11.6349 22.9674 11.6363 22.4809C11.5722 22.46 11.5081 22.4391 11.4421 22.4176C11.2479 22.3516 11.0776 22.2759 10.8965 22.1808C10.8039 22.1324 10.8039 22.1324 10.7094 22.083C10.6438 22.0483 10.5782 22.0136 10.5106 21.9778C10.4069 21.9233 10.4069 21.9233 10.3011 21.8677C9.7716 21.5885 9.24595 21.3024 8.72127 21.0142C8.27455 20.7695 7.8244 20.5321 7.3722 20.2977C7.11053 20.1615 6.84901 20.025 6.5876 19.8883C6.48333 19.8339 6.48333 19.8339 6.37696 19.7783C6.16954 19.6694 5.96275 19.5595 5.7561 19.4491C5.66124 19.3996 5.66124 19.3996 5.56448 19.3491C5.1545 19.1284 4.85052 18.9048 4.67727 18.4556C4.65195 18.284 4.65195 18.284 4.64742 18.0974C4.6447 18.0365 4.64197 17.9757 4.63916 17.913C4.71265 17.5121 4.91116 17.2368 5.2388 16.9999C5.32804 16.9521 5.41811 16.9058 5.50878 16.8608C5.56032 16.8337 5.61187 16.8065 5.66498 16.7785C5.78634 16.7147 5.90803 16.6515 6.02997 16.5889C6.27965 16.4599 6.5279 16.3284 6.77602 16.1964C7.17369 15.9851 7.57169 15.7744 7.96998 15.5642C8.5152 15.2764 9.05905 14.9861 9.60234 14.6946C9.68051 14.6527 9.75867 14.6109 9.8392 14.5677C10.1656 14.3927 10.4918 14.2175 10.8174 14.0409C10.8905 14.0014 10.8905 14.0014 10.9651 13.9611C11.0868 13.8953 11.2083 13.8293 11.3298 13.7632C11.4999 13.6798 11.4999 13.6798 11.6363 13.6798C11.6357 13.6043 11.6357 13.6043 11.635 13.5273C11.6308 13.0496 11.6277 12.572 11.6257 12.0943C11.6247 11.8488 11.6232 11.6033 11.6209 11.3578C11.6186 11.1203 11.6174 10.8827 11.6169 10.6452C11.6164 10.5119 11.6148 10.3786 11.6131 10.2453C11.6129 9.13828 11.9179 8.16208 12.6954 7.35206C13.5532 6.57146 14.5473 6.36856 15.6711 6.37045ZM13.3889 8.44768C12.9935 8.94307 12.8561 9.48307 12.8558 10.1074C12.8557 10.1514 12.8556 10.1955 12.8554 10.241C12.8551 10.3362 12.855 10.4314 12.855 10.5266C12.8547 10.7294 12.8533 10.9321 12.8519 11.1348C12.8493 11.5117 12.8472 11.8886 12.8473 12.2656C12.8474 12.5283 12.8458 12.791 12.8431 13.0537C12.8424 13.1536 12.8423 13.2535 12.8428 13.3534C12.8435 13.4932 12.842 13.6328 12.8401 13.7726C12.8398 13.8521 12.8396 13.9315 12.8393 14.0133C12.7731 14.339 12.5718 14.489 12.3034 14.6676C12.2523 14.6949 12.2012 14.7222 12.1486 14.7503C12.09 14.7819 12.0315 14.8136 11.9712 14.8461C11.9085 14.8792 11.8459 14.9122 11.7813 14.9462C11.7153 14.9816 11.6493 15.017 11.5813 15.0535C11.0471 15.339 10.5097 15.6184 9.97199 15.8972C9.46418 16.1609 8.96174 16.4336 8.46054 16.7097C7.88822 17.0236 7.30859 17.323 6.72635 17.6181C6.65779 17.6532 6.58922 17.6884 6.51858 17.7246C6.42733 17.7709 6.42733 17.7709 6.33424 17.8181C6.18813 17.904 6.08587 17.9887 5.97357 18.1145C6.9462 18.6408 7.92103 19.1626 8.89876 19.6794C10.3087 20.4249 10.3087 20.4249 11.0023 20.7953C11.1202 20.8582 11.2382 20.9209 11.3562 20.9837C12.553 21.6237 12.553 21.6237 12.7962 21.8669C12.8138 22.0548 12.8138 22.0548 12.8147 22.2974C12.815 22.3416 12.8154 22.3858 12.8158 22.4313C12.8165 22.5274 12.8169 22.6235 12.817 22.7197C12.8172 22.8723 12.8184 23.025 12.8198 23.1777C12.8235 23.6118 12.8256 24.046 12.8273 24.4801C12.8284 24.7457 12.8305 25.0113 12.8331 25.2769C12.8339 25.3776 12.8343 25.4784 12.8343 25.5791C12.8344 26.4991 12.9528 27.2241 13.5872 27.9222C14.1661 28.467 14.8885 28.5632 15.649 28.5631C15.7509 28.5635 15.7509 28.5635 15.8549 28.5639C16.0827 28.5646 16.3106 28.5649 16.5385 28.5651C16.7018 28.5656 16.8651 28.566 17.0284 28.5665C17.5186 28.5678 18.0088 28.5685 18.499 28.5691C18.7302 28.5694 18.9614 28.5698 19.1926 28.5702C19.9616 28.5713 20.7307 28.5723 21.4997 28.5728C21.6992 28.5729 21.8986 28.5731 22.098 28.5732C22.1724 28.5732 22.1724 28.5732 22.2482 28.5733C23.0503 28.5739 23.8524 28.5756 24.6546 28.5778C25.4791 28.5801 26.3037 28.5813 27.1282 28.5815C27.5908 28.5817 28.0533 28.5822 28.5158 28.584C28.9513 28.5856 29.3867 28.5859 29.8222 28.5852C29.9816 28.5851 30.1409 28.5856 30.3003 28.5865C31.7785 28.6094 31.7785 28.6094 33.0636 27.943C33.597 27.3762 33.7623 26.7679 33.7598 26.011C33.7603 25.9055 33.7603 25.9055 33.7608 25.7978C33.7616 25.5621 33.7615 25.3265 33.7614 25.0908C33.7618 24.9218 33.7623 24.7528 33.7628 24.5837C33.7639 24.1723 33.7643 23.7609 33.7644 23.3494C33.7644 23.0149 33.7647 22.6803 33.7652 22.3457C33.7664 21.3964 33.767 20.4471 33.7669 19.4978C33.7669 19.4466 33.7669 19.3955 33.7669 19.3428C33.7669 19.266 33.7669 19.266 33.7669 19.1876C33.7668 18.358 33.7681 17.5284 33.77 16.6988C33.772 15.8462 33.7729 14.9937 33.7728 14.1411C33.7728 13.6628 33.7731 13.1844 33.7746 12.7061C33.776 12.2561 33.7759 11.8061 33.775 11.356C33.7748 11.1911 33.7751 11.0261 33.776 10.8612C33.777 10.6355 33.7764 10.41 33.7753 10.1843C33.7764 10.087 33.7764 10.087 33.7775 9.98769C33.7711 9.36675 33.5674 8.74361 33.1276 8.28991C32.4224 7.71116 31.7711 7.59722 30.8796 7.59806C30.8124 7.59786 30.7451 7.59766 30.6758 7.59745C30.451 7.59686 30.2263 7.59675 30.0015 7.59665C29.8401 7.59634 29.6787 7.59599 29.5173 7.59563C29.0335 7.59464 28.5497 7.59423 28.0659 7.59389C27.8377 7.59372 27.6094 7.59346 27.3812 7.5932C26.6219 7.59237 25.8626 7.59167 25.1034 7.59144C25.0306 7.59142 25.0306 7.59142 24.9563 7.59139C24.9076 7.59138 24.859 7.59136 24.8089 7.59135C24.7103 7.59132 24.6117 7.59129 24.5132 7.59126C24.4643 7.59124 24.4154 7.59123 24.365 7.59121C23.5732 7.59094 22.7814 7.58975 21.9896 7.58816C21.1755 7.58654 20.3613 7.58569 19.5472 7.58561C19.0906 7.58555 18.6339 7.58514 18.1773 7.58392C17.7476 7.58279 17.318 7.58265 16.8883 7.58325C16.731 7.5833 16.5736 7.583 16.4163 7.58233C14.749 7.56614 14.749 7.56614 13.3889 8.44768Z" fill="black"/>
<path d="M3.4696 0.0162933C3.53212 0.0159841 3.59464 0.015675 3.65905 0.0153565C3.8678 0.0144951 4.07654 0.0146043 4.28529 0.0147171C4.43527 0.0143087 4.58525 0.0138443 4.73523 0.0133284C5.1422 0.0121237 5.54918 0.0118031 5.95615 0.0117161C6.21062 0.011619 6.46508 0.0113276 6.71955 0.010966C7.56206 0.00976887 8.40457 0.00913474 9.24708 0.00923717C9.29245 0.00924262 9.33781 0.00924807 9.38456 0.00925369C9.42998 0.00925927 9.47541 0.00926485 9.52221 0.0092706C10.2577 0.00932601 10.9933 0.00802122 11.7288 0.00609641C12.4853 0.00413251 13.2418 0.00321921 13.9983 0.00331194C14.4225 0.00334667 14.8467 0.00296114 15.2709 0.00151376C15.6701 0.000188798 16.0693 0.000184667 16.4686 0.0011749C16.6146 0.00131713 16.7607 0.00099807 16.9068 0.000170552C18.1459 -0.00639082 19.1589 0.173384 20.0961 1.05793C20.8454 1.96119 21.0624 2.87399 21.0683 4.03429C21.0704 4.13904 21.0704 4.13904 21.0726 4.2459C21.0759 4.87879 21.0759 4.87879 20.8466 5.1515C20.6741 5.32397 20.5483 5.3119 20.3122 5.32606C20.0616 5.26149 19.9739 5.15614 19.8232 4.94682C19.7764 4.6953 19.7792 4.44731 19.7806 4.19207C19.762 3.31033 19.7115 2.5464 19.0727 1.87664C18.6298 1.53883 18.1881 1.32362 17.6272 1.32817C17.5657 1.32855 17.5042 1.32894 17.4409 1.32934C17.3706 1.33008 17.3706 1.33008 17.2988 1.33083C17.2426 1.44542 17.2426 1.44542 17.1853 1.56233C17.0453 1.84717 16.9046 2.13165 16.7637 2.41602C16.703 2.53887 16.6425 2.66182 16.5821 2.78487C16.4951 2.96228 16.4073 3.13933 16.3194 3.31632C16.2928 3.37092 16.2662 3.42551 16.2388 3.48177C16.0234 3.91289 15.7942 4.29313 15.3544 4.52467C15.3044 4.55184 15.2545 4.57902 15.203 4.60702C14.924 4.72692 14.653 4.75073 14.3517 4.75218C14.2467 4.75291 14.2467 4.75291 14.1396 4.75366C14.0635 4.75384 13.9875 4.75403 13.9091 4.75422C13.788 4.75489 13.788 4.75489 13.6646 4.75557C13.3976 4.75692 13.1306 4.75772 12.8636 4.7584C12.7713 4.75867 12.6791 4.75895 12.5868 4.75924C12.1532 4.76054 11.7195 4.76151 11.2858 4.76208C10.7869 4.76274 10.2879 4.76454 9.789 4.7673C9.40228 4.76936 9.01557 4.77037 8.62884 4.77059C8.39838 4.77075 8.16794 4.77135 7.93748 4.77308C7.67983 4.77475 7.42222 4.77468 7.16456 4.7742C7.08933 4.77508 7.01409 4.77595 6.93657 4.77685C6.33711 4.77286 5.76385 4.66944 5.30357 4.26003C5.03374 3.95808 4.85962 3.60622 4.68127 3.24543C4.64638 3.17669 4.61148 3.10796 4.57553 3.03714C4.472 2.83268 4.36972 2.62764 4.26765 2.42245C4.2097 2.30729 4.1517 2.19215 4.09362 2.07706C3.96864 1.82883 3.84483 1.58006 3.72184 1.33083C3.07568 1.28134 2.5694 1.41036 2.06309 1.82547C1.64598 2.21899 1.35922 2.69129 1.31667 3.27203C1.31657 3.35938 1.31647 3.44673 1.31638 3.53673C1.31614 3.58584 1.3159 3.63495 1.31565 3.68554C1.31502 3.85015 1.31535 4.01473 1.31568 4.17934C1.31543 4.29853 1.31511 4.41771 1.31475 4.5369C1.31391 4.86449 1.31393 5.19206 1.31409 5.51965C1.31412 5.87293 1.31336 6.2262 1.31272 6.57948C1.31158 7.27165 1.31121 7.96383 1.31113 8.656C1.31107 9.21862 1.31079 9.78123 1.31035 10.3438C1.30915 11.9388 1.30852 13.5337 1.30863 15.1286C1.30863 15.2146 1.30864 15.3006 1.30864 15.3892C1.30865 15.4753 1.30865 15.5614 1.30866 15.6501C1.30872 17.0455 1.30741 18.441 1.30549 19.8364C1.30353 21.269 1.30258 22.7016 1.3027 24.1343C1.30275 24.9386 1.30237 25.743 1.3009 26.5474C1.29966 27.2323 1.29936 27.9172 1.30029 28.602C1.30074 28.9514 1.30074 29.3008 1.29956 29.6502C1.29849 29.9702 1.29868 30.2902 1.29987 30.6103C1.30008 30.7259 1.29983 30.8415 1.29907 30.9571C1.29401 31.7806 1.36506 32.4495 1.95303 33.0728C2.4594 33.5339 2.97749 33.6908 3.65145 33.6883C3.71234 33.6886 3.77322 33.6889 3.83595 33.6892C4.03957 33.69 4.24318 33.6899 4.44681 33.6898C4.59297 33.6902 4.73913 33.6907 4.88529 33.6912C5.28211 33.6924 5.67892 33.6927 6.07575 33.6928C6.32378 33.6929 6.5718 33.6932 6.81983 33.6936C7.68545 33.6948 8.55107 33.6954 9.41669 33.6953C10.223 33.6952 11.0293 33.6966 11.8357 33.6988C12.5284 33.7006 13.2211 33.7013 13.9138 33.7012C14.3273 33.7012 14.7408 33.7016 15.1544 33.703C15.5435 33.7044 15.9325 33.7044 16.3216 33.7034C16.4641 33.7032 16.6067 33.7035 16.7492 33.7044C17.7431 33.7295 17.7431 33.7295 18.6634 33.3971C18.7087 33.3713 18.7541 33.3455 18.8009 33.319C19.2833 33.0289 19.5352 32.5611 19.6697 32.0283C19.7116 31.8383 19.7501 31.6479 19.7878 31.4569C19.8312 31.2548 19.8707 31.1029 20.0023 30.941C20.2419 30.8401 20.4545 30.8276 20.7101 30.8727C20.8764 30.9708 20.8764 30.9708 20.983 31.1456C21.1532 31.8489 20.9526 32.6104 20.6078 33.2353C20.0524 34.1133 19.3309 34.6477 18.3278 34.9356C18.0805 34.989 17.8277 34.9764 17.5757 34.9763C17.5133 34.9766 17.451 34.9768 17.3868 34.9771C17.1774 34.9779 16.968 34.9781 16.7586 34.9784C16.6087 34.9788 16.4587 34.9793 16.3088 34.9797C15.8158 34.9812 15.3229 34.9819 14.8299 34.9826C14.6601 34.9828 14.4903 34.9831 14.3205 34.9834C13.5685 34.9846 12.8164 34.9856 12.0643 34.9861C11.9267 34.9862 11.7891 34.9863 11.6516 34.9864C11.5833 34.9865 11.5833 34.9865 11.5136 34.9865C10.7767 34.9871 10.0398 34.9888 9.30295 34.9911C8.54554 34.9933 7.78814 34.9945 7.03072 34.9948C6.60583 34.9949 6.18094 34.9955 5.75604 34.9972C5.35598 34.9988 4.95593 34.9991 4.55587 34.9984C4.40945 34.9984 4.26302 34.9988 4.1166 34.9998C2.90894 35.0071 1.92248 34.8579 1.00985 33.9941C0.174471 33.1115 -0.0036943 32.135 0.00297746 30.9623C0.00266256 30.8412 0.0022288 30.7201 0.00168734 30.5989C0.000552875 30.2679 0.00110897 29.9368 0.00195645 29.6058C0.0025756 29.248 0.00162007 28.8903 0.000870378 28.5325C-0.00034157 27.8324 -8.17322e-05 27.1323 0.000710056 26.4322C0.00132699 25.8631 0.00140973 25.294 0.00111294 24.7249C0.00107112 24.6438 0.00102928 24.5628 0.000986194 24.4792C0.000898937 24.3145 0.000810416 24.1498 0.000720727 23.9851C-5.70165e-05 22.4415 0.000836545 20.8978 0.00230364 19.3542C0.00352287 18.0304 0.00331118 16.7066 0.00205301 15.3828C0.000591754 13.8446 1.79717e-05 12.3064 0.000855543 10.7682C0.000942474 10.6041 0.0010283 10.44 0.00111294 10.2759C0.00115504 10.1952 0.00119709 10.1145 0.00124047 10.0313C0.00147586 9.46301 0.00107895 8.89475 0.000436261 8.32648C-0.000330017 7.63372 -0.000120202 6.94098 0.00133156 6.24822C0.00204759 5.89493 0.0023317 5.54166 0.00142734 5.18837C0.000611221 4.86465 0.00106588 4.54096 0.00251289 4.21724C0.00281649 4.10045 0.00266543 3.98366 0.00200096 3.86687C-0.00393859 2.73571 0.246077 1.82559 1.02691 0.976912C1.6941 0.33597 2.55071 0.0129327 3.4696 0.0162933ZM5.15459 1.26261C5.2911 1.67214 5.45914 2.04068 5.64923 2.42672C5.68098 2.4936 5.71273 2.56048 5.74544 2.6294C5.79333 2.72656 5.79333 2.72656 5.84218 2.82568C5.87061 2.88417 5.89904 2.94266 5.92833 3.00292C6.07471 3.22278 6.21816 3.389 6.45089 3.51407C6.71306 3.56363 6.97107 3.5593 7.23723 3.55604C7.31593 3.55642 7.39463 3.5568 7.47572 3.55719C7.73547 3.558 7.99514 3.55634 8.25488 3.55458C8.4355 3.55446 8.61613 3.55447 8.79676 3.55459C9.17511 3.55458 9.55345 3.55324 9.9318 3.55105C10.3688 3.54853 10.8058 3.54793 11.2428 3.54841C11.6639 3.54884 12.0849 3.54809 12.5059 3.54677C12.6848 3.54629 12.8637 3.54608 13.0426 3.54614C13.2925 3.54601 13.5424 3.54456 13.7923 3.54272C13.9033 3.54302 13.9033 3.54302 14.0167 3.54333C14.4999 3.54394 14.4999 3.54394 14.9109 3.30939C15.044 3.111 15.044 3.111 15.1532 2.87632C15.1739 2.83453 15.1946 2.79274 15.216 2.74968C15.2593 2.66176 15.3023 2.57362 15.3447 2.48526C15.4099 2.34972 15.4764 2.21489 15.5432 2.08012C15.7676 1.68751 15.7676 1.68751 15.8661 1.26261C12.3313 1.26261 8.7965 1.26261 5.15459 1.26261Z" fill="black"/>
<path d="M25.2812 10.2002C25.3619 10.2284 25.4427 10.2565 25.5259 10.2855C27.0035 10.8596 28.0396 11.9785 28.7181 13.3855C29.0577 14.1579 29.1773 14.9202 29.1994 15.7572C29.2471 16.8765 29.575 17.8997 29.9376 18.9502C29.9821 19.0807 30.0264 19.2112 30.0706 19.3417C30.2474 19.8623 30.4245 20.3828 30.6059 20.9017C30.65 21.0298 30.6941 21.1579 30.7382 21.2859C30.7693 21.3734 30.7693 21.3734 30.8011 21.4627C30.9286 21.836 31.0154 22.1784 30.8963 22.5692C30.6795 22.9846 30.4398 23.2149 29.9888 23.3679C29.8053 23.3843 29.8053 23.3843 29.6056 23.3834C29.5305 23.3834 29.4554 23.3833 29.378 23.3833C29.2576 23.3823 29.2576 23.3823 29.1347 23.3812C29.0518 23.381 28.969 23.3808 28.8837 23.3806C28.6196 23.3799 28.3554 23.3781 28.0913 23.3764C27.912 23.3757 27.7328 23.3751 27.5536 23.3745C27.1145 23.373 26.6754 23.3708 26.2364 23.3679C26.2369 23.4098 26.2374 23.4518 26.238 23.495C26.2384 23.5501 26.2388 23.6053 26.2392 23.6621C26.2397 23.7167 26.2403 23.7713 26.2408 23.8276C26.2248 24.3841 25.9105 24.8726 25.5541 25.2782C25.5199 25.3195 25.4857 25.3609 25.4504 25.4035C25.0532 25.8461 24.4471 26.1929 23.8468 26.2455C22.8284 26.2747 22.0555 26.1761 21.2559 25.4829C20.6901 24.8803 20.3624 24.1994 20.3689 23.3679C20.3013 23.3686 20.3013 23.3686 20.2323 23.3693C19.7619 23.3738 19.2915 23.3769 18.8211 23.3791C18.6457 23.3801 18.4702 23.3815 18.2948 23.3833C18.0423 23.3858 17.7898 23.387 17.5373 23.3879C17.4592 23.3889 17.381 23.39 17.3005 23.3911C16.8239 23.3912 16.4462 23.3727 16.0734 23.0459C16.0415 23.0058 16.0097 22.9657 15.9769 22.9244C15.944 22.8843 15.9111 22.8442 15.8772 22.8029C15.6706 22.4978 15.693 22.1511 15.7296 21.7987C15.8113 21.4713 15.9227 21.1555 16.0358 20.8379C16.0675 20.7462 16.0991 20.6545 16.1307 20.5627C16.2135 20.3224 16.2975 20.0825 16.3818 19.8427C16.5162 19.4598 16.6491 19.0765 16.7816 18.693C16.8275 18.5607 16.874 18.4286 16.9207 18.2966C17.2133 17.4554 17.3869 16.6625 17.4309 15.7735C17.5461 13.9826 18.1472 12.4665 19.5125 11.2443C20.1074 10.7452 20.8011 10.3939 21.5288 10.132C21.5931 10.1088 21.6574 10.0856 21.7236 10.0617C22.8387 9.73662 24.1934 9.81433 25.2812 10.2002ZM19.8914 12.6564C19.8508 12.6946 19.8103 12.7329 19.7685 12.7723C19.5177 13.0299 19.3601 13.3417 19.1963 13.6585C19.1735 13.7018 19.1508 13.7451 19.1273 13.7898C18.7632 14.5265 18.6956 15.2923 18.6635 16.1017C18.5833 17.4935 18.0831 18.8114 17.6296 20.1164C17.5237 20.4218 17.4189 20.7275 17.3139 21.0331C17.2583 21.1948 17.2025 21.3565 17.1465 21.5181C17.1217 21.5899 17.0968 21.6618 17.0712 21.7358C17.0382 21.831 17.0382 21.831 17.0045 21.928C16.9541 22.0572 16.9541 22.0572 16.9576 22.1398C21.1453 22.1398 25.3331 22.1398 29.6477 22.1398C29.5359 21.6299 29.5359 21.6299 29.3863 21.1393C29.3623 21.07 29.3384 21.0008 29.3138 20.9294C29.2883 20.8565 29.2627 20.7835 29.2365 20.7084C29.1819 20.55 29.1273 20.3915 29.0727 20.2331C28.9873 19.9863 28.9016 19.7396 28.8158 19.493C28.4176 18.3473 28.078 17.2946 28.0145 16.0762C27.9135 14.5749 27.5293 13.271 26.3728 12.247C24.3651 10.5762 21.689 10.8424 19.8914 12.6564ZM21.597 23.3679C21.738 24.0025 21.8708 24.4432 22.4285 24.8006C22.8868 25.061 23.4337 25.0995 23.9431 24.9611C24.3647 24.7672 24.7361 24.4336 24.9358 24.0118C25.0285 23.753 25.0285 23.753 25.0083 23.3679C23.8826 23.3679 22.7568 23.3679 21.597 23.3679Z" fill="black"/>
<path d="M6.07943 31.409C6.16007 31.4086 6.24071 31.4082 6.32379 31.4078C6.41271 31.4077 6.50164 31.4076 6.59326 31.4076C6.6875 31.4072 6.78175 31.4069 6.87599 31.4065C7.13241 31.4056 7.38882 31.4052 7.64524 31.4049C7.80541 31.4047 7.96557 31.4044 8.12573 31.4041C8.62673 31.4032 9.12773 31.4025 9.62873 31.4023C10.2073 31.402 10.7858 31.4008 11.3643 31.3988C11.8113 31.3973 12.2584 31.3966 12.7054 31.3965C12.9724 31.3965 13.2395 31.3961 13.5065 31.3948C13.7578 31.3937 14.0091 31.3936 14.2603 31.3942C14.3964 31.3942 14.5325 31.3933 14.6686 31.3923C14.7498 31.3927 14.831 31.3931 14.9147 31.3935C14.9851 31.3934 15.0556 31.3933 15.1282 31.3932C15.3533 31.423 15.4793 31.4889 15.6611 31.6232C15.8207 31.8626 15.8257 31.9556 15.7976 32.2373C15.6431 32.5533 15.6431 32.5533 15.4564 32.6466C15.3267 32.6539 15.1967 32.6567 15.0668 32.6576C14.9838 32.6583 14.9009 32.659 14.8154 32.6597C14.723 32.6601 14.6306 32.6605 14.5382 32.6609C14.4413 32.6615 14.3444 32.6622 14.2474 32.6629C13.9287 32.665 13.6099 32.6664 13.2911 32.6677C13.2368 32.6679 13.1826 32.6681 13.1268 32.6684C12.6156 32.6705 12.1045 32.6723 11.5933 32.6734C10.9392 32.6749 10.2851 32.6778 9.631 32.6825C9.17123 32.6858 8.71147 32.6874 8.25169 32.6879C7.97699 32.6883 7.70234 32.6893 7.42766 32.692C7.1692 32.6945 6.91082 32.6951 6.65235 32.6942C6.55755 32.6942 6.46274 32.6949 6.36794 32.6963C5.65742 32.7067 5.65742 32.7067 5.42999 32.561C5.25837 32.3699 5.22268 32.2462 5.21826 31.99C5.29551 31.7446 5.36388 31.6442 5.56366 31.4868C5.74354 31.3968 5.87791 31.4096 6.07943 31.409Z" fill="black"/>
</svg>
