<svg width="38" height="35" viewBox="0 0 38 35" fill="none" xmlns="http://www.w3.org/2000/svg">
<path d="M33.7851 18.076C34.0394 18.2833 34.2828 18.5007 34.5249 18.7221C34.6182 18.8058 34.6182 18.8058 34.7134 18.8912C35.5951 19.7229 36.2156 20.7361 36.7045 21.8358C36.7608 21.9603 36.7608 21.9603 36.8182 22.0873C37.6067 23.9726 37.7042 26.3452 37.0937 28.2967C37.0693 28.3765 37.0693 28.3765 37.0444 28.4579C36.3234 30.742 34.6972 32.7356 32.5722 33.8508C32.318 33.9784 32.0602 34.0969 31.8004 34.2126C31.7184 34.2502 31.6363 34.2877 31.5517 34.3264C29.7617 35.0817 27.5179 35.2052 25.6509 34.6797C25.5553 34.6532 25.4597 34.6267 25.3612 34.5994C22.9157 33.8509 20.9795 32.1909 19.7392 29.9718C19.0141 28.5828 18.6739 27.1526 18.689 25.5917C18.6892 25.5375 18.6895 25.4833 18.6898 25.4274C18.7081 23.0108 19.5874 20.8901 21.2139 19.1113C21.2697 19.0491 21.3255 18.9869 21.383 18.9228C22.2151 18.0407 23.228 17.4217 24.3276 16.9318C24.4097 16.8942 24.4918 16.8567 24.5763 16.818C27.5335 15.5701 31.2694 16.0932 33.7851 18.076ZM22.6929 19.5005C22.6268 19.5522 22.5607 19.6039 22.4926 19.6571C21.3119 20.6248 20.5635 22.1695 20.202 23.6261C20.1803 23.7113 20.1803 23.7113 20.1583 23.7982C19.8519 25.1368 19.9223 26.6835 20.3577 27.9853C20.3877 28.0758 20.4177 28.1663 20.4486 28.2596C20.7908 29.2097 21.2884 29.9994 21.9145 30.7876C21.9567 30.8428 21.9988 30.898 22.0422 30.9548C23.2922 32.5015 25.3225 33.3711 27.2497 33.6264C29.4028 33.8292 31.5191 33.1505 33.2016 31.7995C33.0838 31.5218 32.921 31.3452 32.7072 31.1342C32.6409 31.0685 32.5747 31.0028 32.5065 30.9351C32.4372 30.8671 32.368 30.7992 32.2967 30.7292C32.2268 30.6601 32.157 30.5909 32.085 30.5197C31.9127 30.3492 31.74 30.179 31.5669 30.0092C31.4973 30.0505 31.4276 30.0919 31.3559 30.1345C29.8364 31.0265 28.2617 31.403 26.5023 30.9822C25.0199 30.5063 23.8526 29.5853 23.1043 28.2063C22.9815 27.9543 22.8728 27.7015 22.7708 27.4404C22.7442 27.3724 22.7176 27.3043 22.6902 27.2342C22.2475 25.8298 22.4681 24.1704 23.1211 22.8769C23.8083 21.611 24.9803 20.6455 26.3626 20.2287C26.7203 20.1305 27.079 20.0495 27.4413 19.9676C27.4413 19.1713 27.4413 18.3749 27.4413 17.5545C25.6772 17.5545 24.0171 18.3875 22.6929 19.5005ZM28.6868 17.5545C28.6868 18.3508 28.6868 19.1471 28.6868 19.9676C29.0167 20.0446 29.0167 20.0446 29.3533 20.1233C30.8734 20.5108 32.0651 21.3359 32.8902 22.692C33.2941 23.418 33.4869 24.1456 33.6686 24.9495C34.465 24.9495 35.2613 24.9495 36.0817 24.9495C36.0303 24.3323 35.9833 23.8268 35.8044 23.2515C35.7839 23.185 35.7634 23.1184 35.7423 23.0498C35.4134 22.0294 34.8844 21.1878 34.2135 20.3568C34.1746 20.3059 34.1357 20.255 34.0956 20.2026C33.1661 19.0354 31.6879 18.2395 30.2874 17.8075C30.2354 17.791 30.1835 17.7746 30.1299 17.7577C29.634 17.6128 29.2289 17.5997 28.6868 17.5545ZM25.4174 22.1472C25.368 22.1813 25.3187 22.2154 25.2678 22.2505C24.4726 22.856 23.9957 23.8396 23.7827 24.7938C23.6723 26.0936 23.8594 27.1495 24.639 28.2188C24.6731 28.2682 24.7072 28.3176 24.7424 28.3684C25.3325 29.1434 26.3361 29.6933 27.2856 29.8535C28.577 29.9939 29.6509 29.7698 30.7106 28.9972C30.76 28.9631 30.8094 28.929 30.8603 28.8938C31.6554 28.2884 32.1323 27.3048 32.3453 26.3506C32.4557 25.0508 32.2686 23.9949 31.4891 22.9256C31.455 22.8762 31.4208 22.8268 31.3857 22.776C30.7802 21.9808 29.7966 21.5039 28.8424 21.2909C27.5427 21.1805 26.4867 21.3676 25.4174 22.1472ZM33.6686 26.1949C33.6173 26.4149 33.5659 26.6348 33.513 26.8614C33.3086 27.6799 32.968 28.3746 32.501 29.0751C33.0405 29.6145 33.5799 30.154 34.1357 30.7098C34.4743 30.5405 34.5963 30.3715 34.7876 30.0627C34.8181 30.0141 34.8487 29.9655 34.8801 29.9154C35.5626 28.8058 36.0817 27.5111 36.0817 26.1949C35.2854 26.1949 34.4891 26.1949 33.6686 26.1949Z" fill="black"/>
<path d="M2.46042 0.0200529C2.51434 0.01978 2.56827 0.0195071 2.62383 0.0192259C2.80448 0.0185018 2.98511 0.0188839 3.16576 0.0192623C3.29661 0.0189714 3.42746 0.0186132 3.55831 0.0181935C3.91786 0.0172406 4.27741 0.0172619 4.63696 0.0174453C5.02475 0.0174771 5.41253 0.016618 5.80032 0.0158795C6.56008 0.014586 7.31983 0.0141585 8.07959 0.0140717C8.69716 0.0139977 9.31472 0.0136779 9.93229 0.0131842C11.6831 0.011813 13.4339 0.011095 15.1846 0.0112117C15.3262 0.0112211 15.3262 0.0112211 15.4707 0.0112306C15.5652 0.011237 15.6597 0.0112433 15.7571 0.0112499C17.2888 0.0113132 18.8205 0.00982342 20.3522 0.00762833C21.9248 0.00539238 23.4974 0.00431689 25.07 0.00445141C25.9529 0.0045031 26.8359 0.00407498 27.7188 0.0023998C28.4706 0.000982635 29.2224 0.000643372 29.9742 0.00170069C30.3577 0.00220922 30.7412 0.00221723 31.1247 0.00086728C31.476 -0.000356555 31.8272 -0.000135002 32.1785 0.00122288C32.3054 0.001462 32.4323 0.00117857 32.5592 0.000310566C33.441 -0.0053215 34.2022 0.0597493 34.8727 0.685923C35.3636 1.23192 35.5607 1.8041 35.5576 2.53566C35.558 2.5975 35.5583 2.65935 35.5587 2.72307C35.5597 2.92959 35.5595 3.1361 35.5594 3.34262C35.5599 3.49096 35.5604 3.6393 35.561 3.78765C35.5624 4.19003 35.5627 4.5924 35.5628 4.99478C35.563 5.33063 35.5635 5.66647 35.5641 6.00232C35.5654 6.79434 35.5657 7.58636 35.5656 8.37839C35.5655 9.19597 35.5672 10.0135 35.5696 10.8311C35.5717 11.5329 35.5725 12.2347 35.5724 12.9365C35.5724 13.3558 35.5728 13.775 35.5745 14.1943C35.576 14.5882 35.576 14.9822 35.5748 15.3761C35.5747 15.5208 35.5751 15.6656 35.576 15.8103C35.5772 16.0076 35.5765 16.2047 35.5753 16.402C35.5761 16.4595 35.5769 16.5171 35.5777 16.5763C35.5741 16.8437 35.5562 16.9845 35.3902 17.1987C35.1923 17.3455 35.0833 17.3929 34.8362 17.3988C34.3973 17.2216 34.3973 17.2216 34.2913 17.0096C34.2835 16.821 34.2803 16.6346 34.2806 16.4459C34.2803 16.3872 34.2801 16.3284 34.2799 16.2679C34.2793 16.0699 34.2791 15.8719 34.279 15.674C34.2787 15.5324 34.2783 15.3909 34.2778 15.2494C34.277 14.944 34.2763 14.6386 34.2758 14.3332C34.275 13.85 34.2734 13.3669 34.2717 12.8837C34.2668 11.5095 34.2626 10.1354 34.2601 8.76123C34.2586 8.00276 34.2564 7.24429 34.2532 6.48582C34.2516 6.08444 34.2504 5.68308 34.2502 5.2817C34.25 4.90378 34.2488 4.52587 34.2467 4.14795C34.2462 4.00954 34.246 3.87113 34.2463 3.73272C34.2873 2.6095 34.2873 2.6095 33.8048 1.6407C33.3875 1.40357 32.9788 1.34393 32.5042 1.34358C32.4523 1.34333 32.4003 1.34308 32.3468 1.34282C32.1734 1.34218 32 1.34264 31.8266 1.3431C31.7008 1.34286 31.5749 1.34256 31.4491 1.34219C31.1038 1.34139 30.7585 1.34156 30.4131 1.3419C30.0405 1.34209 29.6679 1.34139 29.2953 1.3408C28.5655 1.33981 27.8357 1.33967 27.1059 1.33986C26.5127 1.33999 25.9195 1.33986 25.3263 1.33953C25.2419 1.33948 25.1575 1.33943 25.0706 1.33939C24.8991 1.33929 24.7276 1.3392 24.5561 1.3391C22.9478 1.33826 21.3395 1.33842 19.7312 1.3389C18.2599 1.3393 16.7885 1.33842 15.3172 1.33695C13.8064 1.33544 12.2957 1.33479 10.7849 1.33509C9.9367 1.33524 9.08852 1.33504 8.24034 1.33394C7.51828 1.33301 6.79622 1.3329 6.07415 1.33385C5.70579 1.33431 5.33743 1.33439 4.96907 1.33346C4.6317 1.33261 4.29436 1.33285 3.957 1.33394C3.8351 1.33415 3.71321 1.33397 3.59132 1.33334C2.54221 1.30433 2.54221 1.30433 1.64154 1.77206C1.34223 2.29885 1.34177 2.80383 1.34394 3.39564C1.34364 3.48207 1.34334 3.5685 1.34303 3.65755C1.34223 3.94683 1.34254 4.23609 1.34285 4.52537C1.34251 4.73291 1.34211 4.94046 1.34164 5.148C1.34065 5.65302 1.34051 6.15805 1.34069 6.66307C1.34083 7.07368 1.3407 7.48428 1.34036 7.89488C1.34032 7.95337 1.34027 8.01185 1.34022 8.07211C1.34013 8.19094 1.34004 8.30976 1.33994 8.42858C1.33909 9.54242 1.33926 10.6563 1.33974 11.7701C1.34014 12.7884 1.33926 13.8067 1.33778 14.825C1.33627 15.8713 1.33563 16.9177 1.33592 17.964C1.33607 18.5512 1.33588 19.1383 1.33478 19.7254C1.33385 20.2253 1.33374 20.7251 1.33468 21.225C1.33514 21.4798 1.3351 21.7347 1.3343 21.9895C1.33348 22.2662 1.33411 22.5429 1.3351 22.8196C1.33452 22.8996 1.33395 22.9795 1.33336 23.0619C1.33754 23.6191 1.38113 24.1699 1.7729 24.5943C2.21327 24.8445 2.65272 24.8945 3.15086 24.8912C3.21086 24.8914 3.27087 24.8917 3.33269 24.8919C3.53252 24.8925 3.73233 24.892 3.93215 24.8915C4.07591 24.8917 4.21966 24.892 4.36341 24.8924C4.67233 24.893 4.98124 24.8932 5.29016 24.893C5.77847 24.8928 6.26679 24.8939 6.7551 24.8952C8.14344 24.8989 9.53178 24.9008 10.9201 24.9013C11.6874 24.9016 12.4546 24.903 13.2219 24.9056C13.7075 24.9071 14.1931 24.9073 14.6787 24.9065C14.9804 24.9063 15.2821 24.9074 15.5838 24.9088C15.7238 24.9092 15.8639 24.9091 16.004 24.9084C16.195 24.9076 16.3858 24.9086 16.5768 24.9101C16.6324 24.9094 16.6881 24.9087 16.7454 24.908C17.0106 24.9121 17.1443 24.9324 17.3561 25.0979C17.4878 25.2747 17.5198 25.3545 17.5164 25.5722C17.5172 25.6236 17.518 25.6749 17.5188 25.7279C17.4567 25.9619 17.3572 26.0467 17.1661 26.1949C16.9519 26.2255 16.7688 26.237 16.5547 26.2345C16.4617 26.2352 16.4617 26.2352 16.3668 26.2359C16.1587 26.2372 15.9507 26.2362 15.7426 26.2352C15.5935 26.2356 15.4444 26.2362 15.2953 26.2369C14.89 26.2383 14.4847 26.2377 14.0793 26.2368C13.655 26.236 13.2307 26.2367 12.8063 26.2372C12.0932 26.2378 11.38 26.237 10.6669 26.2355C9.8434 26.2338 9.01992 26.2344 8.19643 26.2361C7.48906 26.2375 6.7817 26.2377 6.07433 26.2369C5.65203 26.2364 5.22974 26.2363 4.80744 26.2374C4.40989 26.2383 4.01238 26.2376 3.61484 26.2358C3.4693 26.2354 3.32377 26.2355 3.17824 26.2362C2.2436 26.2403 1.42715 26.2235 0.705006 25.5491C0.126666 24.9058 0.0177233 24.2662 0.0201007 23.4247C0.019748 23.3333 0.0193952 23.2419 0.0190318 23.1477C0.0182177 22.8947 0.0180999 22.6417 0.0182837 22.3886C0.0183155 22.1154 0.0174558 21.8423 0.0167179 21.5691C0.0154256 21.0341 0.0149969 20.4991 0.0149101 19.9642C0.0148361 19.5292 0.0145159 19.0942 0.0140225 18.6592C0.0126517 17.4253 0.0119333 16.1914 0.0120501 14.9576C0.0120563 14.8911 0.0120625 14.8246 0.0120689 14.7561C0.0120753 14.6895 0.0120817 14.6229 0.0120883 14.5543C0.0121515 13.4756 0.0106621 12.397 0.00846673 11.3183C0.00622912 10.2102 0.00515532 9.102 0.00528974 7.99383C0.00534138 7.37192 0.00491575 6.75002 0.00323816 6.12811C0.00181879 5.59855 0.00148349 5.06899 0.00253901 4.53942C0.00304644 4.26941 0.00305959 3.99943 0.00170564 3.72943C0.000503383 3.43621 0.00122709 3.14306 0.00242662 2.84984C0.00162585 2.7652 0.000825034 2.68055 0 2.59335C0.00653589 1.86893 0.183932 1.24255 0.686761 0.704167C1.2077 0.235799 1.75867 0.0208556 2.46042 0.0200529Z" fill="black"/>
<path d="M22.7267 3.27052C23.1787 3.54369 23.5502 3.97054 23.7045 4.47707C23.7225 4.73705 23.7225 4.73705 23.7191 5.0171C23.7186 5.10931 23.7181 5.20153 23.7176 5.29654C23.7045 5.56685 23.7045 5.56685 23.6386 5.80464C23.6017 6.05168 23.6017 6.05168 23.7988 6.27078C23.8796 6.35361 23.9618 6.43515 24.0451 6.51555C24.1318 6.60383 24.2182 6.69232 24.3045 6.781C24.3478 6.82507 24.3911 6.86913 24.4357 6.91453C24.6804 7.17142 24.8972 7.45023 25.1182 7.72757C25.3857 8.06379 25.3857 8.06379 25.7914 8.19675C26.4425 8.25684 26.4425 8.25684 27.0405 8.04145C27.3103 7.79062 27.5171 7.49419 27.7249 7.19165C27.8875 6.96648 28.0758 6.77438 28.268 6.57393C28.5022 6.32806 28.6706 6.13044 28.7643 5.80038C28.7155 5.64368 28.6632 5.48808 28.6086 5.33333C28.5558 4.80555 28.6716 4.40047 28.9199 3.93218C29.2131 3.57731 29.5704 3.3002 30.0097 3.15376C30.6254 3.10604 31.2201 3.06292 31.7223 3.46513C32.2187 3.92897 32.4221 4.3216 32.4569 5.0025C32.4458 5.56256 32.2788 5.99827 31.9001 6.41399C31.6526 6.63819 31.4234 6.796 31.0995 6.89017C30.9561 6.87964 30.8127 6.86873 30.6699 6.85225C30.336 6.8195 30.011 6.79343 29.7164 6.975C29.4487 7.2066 29.2341 7.48087 29.0234 7.76395C28.9252 7.89507 28.8232 8.02098 28.7177 8.14628C28.5485 8.34803 28.3832 8.55222 28.2194 8.75837C28.1156 8.88811 28.0118 9.01784 27.908 9.14758C27.9331 9.20166 27.9582 9.25575 27.984 9.31147C28.156 9.79799 28.1576 10.413 27.9469 10.8893C27.6749 11.3462 27.2491 11.7144 26.7404 11.872C26.1284 11.9349 25.527 11.958 25.0279 11.5607C24.6165 11.1918 24.3335 10.7909 24.2494 10.2374C24.2514 9.90342 24.2879 9.58467 24.3878 9.26556C24.4251 9.06125 24.4251 9.06125 24.2923 8.88C24.2348 8.81417 24.1773 8.74835 24.1181 8.68053C24.0542 8.60657 23.9902 8.53262 23.9244 8.45643C23.6488 8.14976 23.3703 7.84555 23.0877 7.54528C22.7793 7.21711 22.7793 7.21711 22.668 7.02092C22.4103 6.76385 22.0216 6.81762 21.6787 6.81664C21.3509 6.83226 21.1722 6.8657 20.8949 7.05193C20.6952 7.27317 20.5261 7.50086 20.3573 7.74643C20.2337 7.89983 20.1088 8.05231 19.9827 8.20375C19.9293 8.27098 19.8758 8.33821 19.8207 8.40747C19.6568 8.60269 19.6568 8.60269 19.4369 8.79303C19.2407 8.97695 19.2407 8.97695 19.2806 9.2163C19.302 9.29637 19.3234 9.37645 19.3454 9.45895C19.4316 10.6765 19.4316 10.6765 19.034 11.1715C18.66 11.5642 18.3209 11.8413 17.7676 11.8982C17.1047 11.9055 16.6462 11.8812 16.1566 11.415C15.6599 10.8776 15.5716 10.4552 15.5853 9.72713C15.6394 9.11513 15.9241 8.79343 16.3798 8.40382C16.722 8.16805 16.9548 8.12504 17.3698 8.16564C17.7725 8.20013 18.0681 8.21197 18.4077 7.97569C18.6082 7.75307 18.7828 7.52369 18.9562 7.27937C19.0801 7.12616 19.205 6.97369 19.3308 6.82205C19.3843 6.75482 19.4378 6.68759 19.4929 6.61833C19.6568 6.42311 19.6568 6.42311 19.8757 6.23915C20.0751 6.04352 20.0751 6.04352 20.0445 5.76237C20.0241 5.66414 20.0037 5.5659 19.9827 5.46469C19.8786 4.88109 19.8905 4.53149 20.1773 4.00029C20.8068 3.21771 21.7413 2.83386 22.7267 3.27052ZM21.4179 4.60356C21.2535 4.84385 21.2438 4.96967 21.2915 5.25549C21.4082 5.45009 21.4082 5.45009 21.6028 5.56685C21.8886 5.61449 22.0145 5.60477 22.2547 5.44036C22.4191 5.20007 22.4289 5.07425 22.3812 4.78844C22.2645 4.59383 22.2645 4.59383 22.0699 4.47707C21.7841 4.42943 21.6582 4.43915 21.4179 4.60356ZM30.1362 4.60356C29.9718 4.84385 29.9621 4.96967 30.0097 5.25549C30.1265 5.45009 30.1265 5.45009 30.3211 5.56685C30.6069 5.61449 30.7327 5.60477 30.973 5.44036C31.1374 5.20007 31.1472 5.07425 31.0995 4.78844C30.9828 4.59383 30.9828 4.59383 30.7882 4.47707C30.5023 4.42943 30.3765 4.43915 30.1362 4.60356ZM17.0588 9.58544C16.8944 9.82573 16.8847 9.95155 16.9323 10.2374C17.0491 10.432 17.0491 10.432 17.2437 10.5487C17.5295 10.5964 17.6553 10.5866 17.8956 10.4222C18.06 10.182 18.0697 10.0561 18.0221 9.77031C17.9053 9.57571 17.9053 9.57571 17.7107 9.45895C17.4249 9.41131 17.2991 9.42103 17.0588 9.58544ZM25.7771 9.58544C25.6127 9.82573 25.603 9.95155 25.6506 10.2374C25.7674 10.432 25.7674 10.432 25.962 10.5487C26.2478 10.5964 26.3736 10.5866 26.6139 10.4222C26.7783 10.182 26.788 10.0561 26.7404 9.77031C26.6236 9.57571 26.6236 9.57571 26.429 9.45895C26.1432 9.41131 26.0174 9.42103 25.7771 9.58544Z" fill="black"/>
<path d="M8.76415 12.4545C8.85611 12.453 8.85611 12.453 8.94993 12.4515C9.01546 12.4521 9.08098 12.4528 9.14849 12.4534C9.21642 12.4531 9.28436 12.4528 9.35435 12.4525C9.49777 12.4523 9.64119 12.4529 9.78461 12.4542C10.004 12.4558 10.2232 12.4542 10.4426 12.4522C10.5821 12.4524 10.7215 12.4528 10.861 12.4534C10.9265 12.4528 10.9921 12.4522 11.0596 12.4515C11.1209 12.4525 11.1822 12.4535 11.2454 12.4545C11.3259 12.4549 11.3259 12.4549 11.408 12.4552C11.6341 12.5134 11.7254 12.6282 11.873 12.8061C11.9121 12.9992 11.9121 12.9992 11.9125 13.2197C11.9134 13.3036 11.9142 13.3874 11.9152 13.4737C11.9145 13.5653 11.9139 13.6569 11.9132 13.7512C11.9138 13.8479 11.9143 13.9446 11.9149 14.0443C11.916 14.3094 11.9158 14.5744 11.9148 14.8394C11.914 15.1169 11.9147 15.3943 11.9152 15.6718C11.9158 16.1377 11.915 16.6036 11.9135 17.0695C11.9119 17.6081 11.9124 18.1466 11.9141 18.6852C11.9155 19.1477 11.9157 19.6102 11.9149 20.0727C11.9144 20.3489 11.9144 20.625 11.9154 20.9012C11.9165 21.2091 11.915 21.517 11.9132 21.8248C11.9139 21.9164 11.9145 22.008 11.9152 22.1023C11.9143 22.1861 11.9134 22.2699 11.9125 22.3563C11.9124 22.4291 11.9123 22.5019 11.9121 22.5768C11.8611 22.8281 11.7578 22.9218 11.5616 23.0813C11.408 23.1208 11.408 23.1208 11.2454 23.1215C11.184 23.1225 11.1227 23.1235 11.0596 23.1245C10.994 23.1239 10.9285 23.1233 10.861 23.1226C10.7931 23.1229 10.7251 23.1232 10.6552 23.1235C10.5117 23.1237 10.3683 23.1232 10.2249 23.1219C10.0055 23.1202 9.78629 23.1218 9.56689 23.1238C9.42742 23.1236 9.28796 23.1232 9.14849 23.1226C9.08297 23.1232 9.01744 23.1239 8.94993 23.1245C8.88862 23.1235 8.82731 23.1226 8.76415 23.1215C8.68362 23.1212 8.68362 23.1212 8.60147 23.1208C8.37544 23.0626 8.28415 22.9478 8.13655 22.7699C8.09737 22.5768 8.09737 22.5768 8.09701 22.3563C8.09613 22.2725 8.09525 22.1887 8.09435 22.1023C8.09498 22.0107 8.09561 21.9192 8.09626 21.8248C8.09571 21.7281 8.09517 21.6314 8.09461 21.5317C8.09347 21.2667 8.09374 21.0017 8.09472 20.7366C8.09551 20.4592 8.09478 20.1817 8.09429 19.9043C8.09373 19.4383 8.09447 18.9724 8.09595 18.5065C8.09765 17.968 8.0971 17.4294 8.09539 16.8908C8.09397 16.4283 8.09377 15.9659 8.09459 15.5033C8.09507 15.2272 8.09514 14.951 8.09411 14.6748C8.09304 14.3669 8.09452 14.0591 8.09626 13.7512C8.09563 13.6596 8.095 13.5681 8.09435 13.4737C8.09523 13.3899 8.0961 13.3061 8.09701 13.2197C8.09713 13.147 8.09724 13.0742 8.09737 12.9992C8.17031 12.6398 8.40436 12.4561 8.76415 12.4545ZM9.38202 13.7402C9.38202 16.4118 9.38202 19.0833 9.38202 21.8358C9.79302 21.8358 10.204 21.8358 10.6275 21.8358C10.6275 19.1643 10.6275 16.4927 10.6275 13.7402C10.2165 13.7402 9.80548 13.7402 9.38202 13.7402Z" fill="black"/>
<path d="M3.78259 14.9454C3.87455 14.9439 3.87455 14.9439 3.96838 14.9424C4.0339 14.9431 4.09942 14.9437 4.16693 14.9444C4.23487 14.9441 4.3028 14.9438 4.37279 14.9435C4.51621 14.9432 4.65963 14.9438 4.80305 14.9451C5.02245 14.9468 5.24166 14.9451 5.46105 14.9431C5.60052 14.9433 5.73999 14.9437 5.87945 14.9444C5.94498 14.9437 6.0105 14.9431 6.07801 14.9424C6.13932 14.9434 6.20063 14.9444 6.2638 14.9454C6.34432 14.9458 6.34432 14.9458 6.42647 14.9462C6.66725 15.0082 6.74854 15.0928 6.8914 15.2971C6.93745 15.5358 6.93392 15.771 6.93169 16.0135C6.93223 16.0859 6.93278 16.1583 6.93334 16.233C6.93471 16.4724 6.9338 16.7118 6.93275 16.9512C6.93296 17.1176 6.93326 17.2839 6.93365 17.4503C6.93411 17.7989 6.93344 18.1475 6.93199 18.4962C6.93022 18.9433 6.93124 19.3903 6.9331 19.8374C6.93423 20.181 6.93387 20.5245 6.93306 20.868C6.93286 21.0328 6.93311 21.1977 6.93384 21.3625C6.93463 21.5929 6.93342 21.8232 6.93169 22.0535C6.93232 22.1218 6.93295 22.19 6.9336 22.2604C6.92944 22.5582 6.92685 22.7192 6.75296 22.9678C6.56883 23.0886 6.48116 23.1205 6.2638 23.1215C6.17183 23.123 6.17183 23.123 6.07801 23.1245C6.01249 23.1239 5.94696 23.1233 5.87945 23.1226C5.81152 23.1229 5.74359 23.1232 5.6736 23.1235C5.53018 23.1237 5.38675 23.1232 5.24334 23.1218C5.02394 23.1202 4.80473 23.1218 4.58533 23.1238C4.44587 23.1236 4.3064 23.1232 4.16693 23.1226C4.06865 23.1236 4.06865 23.1236 3.96838 23.1245C3.87641 23.123 3.87641 23.123 3.78259 23.1215C3.72891 23.1213 3.67522 23.121 3.61991 23.1208C3.37913 23.0588 3.29785 22.9741 3.15499 22.7699C3.10894 22.5312 3.11246 22.296 3.1147 22.0535C3.11416 21.9811 3.11361 21.9086 3.11305 21.834C3.11168 21.5946 3.11258 21.3552 3.11364 21.1157C3.11343 20.9494 3.11312 20.783 3.11273 20.6167C3.11227 20.268 3.11294 19.9194 3.1144 19.5708C3.11617 19.1237 3.11515 18.6766 3.11328 18.2295C3.11216 17.886 3.11252 17.5425 3.11332 17.199C3.11353 17.0341 3.11328 16.8693 3.11255 16.7044C3.11176 16.4741 3.11297 16.2438 3.1147 16.0135C3.11407 15.9452 3.11344 15.8769 3.11279 15.8066C3.11695 15.5087 3.11953 15.3478 3.29343 15.0991C3.47755 14.9784 3.56522 14.9464 3.78259 14.9454ZM4.40046 16.2312C4.40046 18.0807 4.40046 19.9302 4.40046 21.8358C4.81146 21.8358 5.22247 21.8358 5.64593 21.8358C5.64593 19.9863 5.64593 18.1367 5.64593 16.2312C5.23492 16.2312 4.82392 16.2312 4.40046 16.2312Z" fill="black"/>
<path d="M13.7455 16.8136C13.8374 16.8122 13.8374 16.8122 13.9313 16.8107C13.9968 16.8113 14.0623 16.8119 14.1298 16.8126C14.1978 16.8123 14.2657 16.812 14.3357 16.8117C14.4791 16.8114 14.6225 16.812 14.7659 16.8133C14.9853 16.815 15.2045 16.8133 15.4239 16.8113C15.5634 16.8116 15.7029 16.812 15.8423 16.8126C15.9079 16.8119 15.9734 16.8113 16.0409 16.8107C16.1022 16.8116 16.1635 16.8126 16.2267 16.8136C16.3072 16.814 16.3072 16.814 16.3894 16.8144C16.6229 16.8745 16.7118 16.9725 16.8543 17.1653C16.8938 17.4134 16.8938 17.4134 16.8946 17.7102C16.8951 17.7644 16.8957 17.8186 16.8962 17.8745C16.8976 18.0532 16.8967 18.232 16.8956 18.4108C16.8959 18.5352 16.8962 18.6597 16.8965 18.7842C16.897 19.0449 16.8963 19.3055 16.8949 19.5662C16.8931 19.9002 16.8941 20.2342 16.896 20.5682C16.8971 20.8252 16.8968 21.0821 16.896 21.3391C16.8957 21.4622 16.896 21.5854 16.8967 21.7085C16.8975 21.8807 16.8963 22.0528 16.8946 22.225C16.8942 22.3719 16.8942 22.3719 16.8938 22.5218C16.8543 22.7699 16.8543 22.7699 16.7159 22.9571C16.5305 23.0902 16.4511 23.1205 16.2267 23.1216C16.1347 23.123 16.1347 23.123 16.0409 23.1245C15.9754 23.1239 15.9099 23.1233 15.8423 23.1226C15.7744 23.1229 15.7065 23.1232 15.6365 23.1235C15.4931 23.1237 15.3496 23.1232 15.2062 23.1219C14.9868 23.1202 14.7676 23.1218 14.5482 23.1238C14.4088 23.1236 14.2693 23.1232 14.1298 23.1226C14.0315 23.1236 14.0315 23.1236 13.9313 23.1245C13.8393 23.1231 13.8393 23.1231 13.7455 23.1216C13.6918 23.1213 13.6381 23.1211 13.5828 23.1208C13.3493 23.0607 13.2604 22.9626 13.1179 22.7699C13.0783 22.5218 13.0783 22.5218 13.0776 22.225C13.077 22.1708 13.0765 22.1166 13.0759 22.0607C13.0746 21.8819 13.0755 21.7032 13.0765 21.5244C13.0763 21.4 13.076 21.2755 13.0756 21.151C13.0752 20.8903 13.0758 20.6297 13.0773 20.369C13.0791 20.0349 13.078 19.701 13.0762 19.367C13.0751 19.11 13.0754 18.8531 13.0762 18.5961C13.0764 18.4729 13.0762 18.3498 13.0754 18.2266C13.0747 18.0544 13.0759 17.8824 13.0776 17.7102C13.0778 17.6122 13.0781 17.5143 13.0783 17.4134C13.1179 17.1653 13.1179 17.1653 13.2563 16.9781C13.4417 16.845 13.5211 16.8147 13.7455 16.8136ZM14.3634 18.0994C14.3634 19.3324 14.3634 20.5654 14.3634 21.8358C14.7744 21.8358 15.1854 21.8358 15.6088 21.8358C15.6088 20.6028 15.6088 19.3698 15.6088 18.0994C15.1978 18.0994 14.7868 18.0994 14.3634 18.0994Z" fill="black"/>
<path d="M7.74722 9.34081C7.80143 9.34026 7.85564 9.33971 7.9115 9.33915C8.0903 9.33778 8.269 9.33869 8.4478 9.33974C8.57227 9.33953 8.69673 9.33923 8.8212 9.33884C9.0819 9.33838 9.34257 9.33905 9.60326 9.3405C9.93729 9.34228 10.2712 9.34125 10.6052 9.33939C10.8622 9.33826 11.1192 9.33862 11.3761 9.33943C11.4993 9.33964 11.6224 9.33938 11.7456 9.33866C11.9178 9.33787 12.0899 9.33907 12.262 9.34081C12.4089 9.34118 12.4089 9.34118 12.5588 9.34156C12.8502 9.38798 12.9417 9.4609 13.1183 9.69246C13.1597 9.84815 13.1597 9.84815 13.1572 10.0038C13.1584 10.0809 13.1584 10.0809 13.1597 10.1595C13.0982 10.3909 12.9937 10.4784 12.8069 10.6266C12.5588 10.6661 12.5588 10.6661 12.262 10.6669C12.2078 10.6674 12.1536 10.6679 12.0978 10.6685C11.919 10.6699 11.7403 10.669 11.5615 10.6679C11.437 10.6681 11.3125 10.6684 11.1881 10.6688C10.9274 10.6693 10.6667 10.6686 10.406 10.6672C10.072 10.6654 9.73804 10.6664 9.40402 10.6683C9.14705 10.6694 8.8901 10.669 8.63313 10.6682C8.50998 10.668 8.38683 10.6683 8.26368 10.669C8.09149 10.6698 7.91941 10.6686 7.74722 10.6669C7.64929 10.6666 7.55135 10.6664 7.45045 10.6661C7.15911 10.6197 7.06754 10.5468 6.89096 10.3152C6.84961 10.1595 6.84961 10.1595 6.85204 10.0038C6.85084 9.92677 6.85084 9.92677 6.84961 9.84815C6.97348 9.38182 7.31949 9.34189 7.74722 9.34081Z" fill="black"/>
<path d="M7.74722 6.22713C7.80143 6.22658 7.85564 6.22604 7.9115 6.22547C8.0903 6.22411 8.269 6.22501 8.4478 6.22606C8.57227 6.22585 8.69673 6.22555 8.8212 6.22516C9.0819 6.2247 9.34257 6.22537 9.60326 6.22682C9.93729 6.2286 10.2712 6.22758 10.6052 6.22571C10.8622 6.22459 11.1192 6.22494 11.3761 6.22575C11.4993 6.22596 11.6224 6.2257 11.7456 6.22498C11.9178 6.22419 12.0899 6.2254 12.262 6.22713C12.4089 6.2275 12.4089 6.2275 12.5588 6.22788C12.8502 6.2743 12.9417 6.34722 13.1183 6.57878C13.1597 6.73447 13.1597 6.73447 13.1572 6.89015C13.1584 6.96722 13.1584 6.96722 13.1597 7.04584C13.0982 7.2772 12.9937 7.36472 12.8069 7.51289C12.5588 7.55243 12.5588 7.55243 12.262 7.55318C12.2078 7.55372 12.1536 7.55427 12.0978 7.55483C11.919 7.5562 11.7403 7.55529 11.5615 7.55424C11.437 7.55445 11.3125 7.55475 11.1881 7.55514C10.9274 7.5556 10.6667 7.55494 10.406 7.55348C10.072 7.55171 9.73804 7.55273 9.40402 7.55459C9.14705 7.55572 8.8901 7.55536 8.63313 7.55455C8.50998 7.55434 8.38683 7.5546 8.26368 7.55532C8.09149 7.55612 7.91941 7.55491 7.74722 7.55318C7.64929 7.55293 7.55135 7.55268 7.45045 7.55243C7.15911 7.506 7.06754 7.43309 6.89096 7.20152C6.84961 7.04584 6.84961 7.04584 6.85204 6.89015C6.85084 6.81309 6.85084 6.81309 6.84961 6.73447C6.97348 6.26814 7.31949 6.22821 7.74722 6.22713Z" fill="black"/>
<path d="M7.74722 3.11345C7.80143 3.1129 7.85564 3.11236 7.9115 3.1118C8.0903 3.11043 8.269 3.11133 8.4478 3.11239C8.57227 3.11218 8.69673 3.11187 8.8212 3.11148C9.0819 3.11102 9.34257 3.11169 9.60326 3.11315C9.93729 3.11492 10.2712 3.1139 10.6052 3.11203C10.8622 3.11091 11.1192 3.11127 11.3761 3.11207C11.4993 3.11228 11.6224 3.11203 11.7456 3.1113C11.9178 3.11051 12.0899 3.11172 12.262 3.11345C12.4089 3.11382 12.4089 3.11382 12.5588 3.1142C12.8502 3.16063 12.9417 3.23354 13.1183 3.46511C13.1597 3.62079 13.1597 3.62079 13.1572 3.77647C13.1584 3.85354 13.1584 3.85354 13.1597 3.93216C13.0982 4.16352 12.9937 4.25104 12.8069 4.39921C12.5588 4.43875 12.5588 4.43875 12.262 4.4395C12.2078 4.44004 12.1536 4.44059 12.0978 4.44115C11.919 4.44252 11.7403 4.44162 11.5615 4.44056C11.437 4.44077 11.3125 4.44107 11.1881 4.44146C10.9274 4.44192 10.6667 4.44126 10.406 4.4398C10.072 4.43803 9.73804 4.43905 9.40402 4.44091C9.14705 4.44204 8.8901 4.44168 8.63313 4.44087C8.50998 4.44067 8.38683 4.44092 8.26368 4.44165C8.09149 4.44244 7.91941 4.44123 7.74722 4.4395C7.64929 4.43925 7.55135 4.439 7.45045 4.43875C7.15911 4.39232 7.06754 4.31941 6.89096 4.08784C6.84961 3.93216 6.84961 3.93216 6.85204 3.77647C6.85084 3.69941 6.85084 3.69941 6.84961 3.62079C6.97348 3.15447 7.31949 3.11453 7.74722 3.11345Z" fill="black"/>
<path d="M3.89413 9.33975C3.97601 9.33935 4.05789 9.33895 4.14225 9.33853C4.22734 9.33974 4.31243 9.34094 4.4001 9.34218C4.52774 9.34037 4.52774 9.34037 4.65795 9.33853C4.73983 9.33893 4.82171 9.33933 4.90608 9.33975C5.01806 9.34027 5.01806 9.34027 5.1323 9.34081C5.38971 9.39218 5.48281 9.49095 5.64557 9.69247C5.68693 9.84815 5.68693 9.84815 5.68449 10.0038C5.6853 10.0552 5.6861 10.1066 5.68693 10.1595C5.62659 10.3867 5.51394 10.4781 5.33421 10.6266C5.1323 10.6669 5.1323 10.6669 4.90608 10.6679C4.8242 10.6683 4.74232 10.6687 4.65795 10.6691C4.57286 10.6679 4.48777 10.6667 4.4001 10.6655C4.27247 10.6673 4.27247 10.6673 4.14225 10.6691C4.06037 10.6687 3.97849 10.6683 3.89413 10.6679C3.81948 10.6676 3.74482 10.6672 3.6679 10.6669C3.4105 10.6155 3.3174 10.5167 3.15463 10.3152C3.11328 10.1595 3.11328 10.1595 3.11571 10.0038C3.11451 9.92677 3.11451 9.92677 3.11328 9.84815C3.22061 9.44408 3.50952 9.34156 3.89413 9.33975Z" fill="black"/>
<path d="M3.89413 6.22607C3.97601 6.22567 4.05789 6.22527 4.14225 6.22485C4.22734 6.22606 4.31243 6.22726 4.4001 6.2285C4.52774 6.2267 4.52774 6.2267 4.65795 6.22485C4.73983 6.22525 4.82171 6.22566 4.90608 6.22607C5.01806 6.2266 5.01806 6.2266 5.1323 6.22713C5.38971 6.2785 5.48281 6.37727 5.64557 6.57879C5.68693 6.73447 5.68693 6.73447 5.68449 6.89016C5.6853 6.94153 5.6861 6.99291 5.68693 7.04584C5.62659 7.27298 5.51394 7.36446 5.33421 7.51289C5.1323 7.55318 5.1323 7.55318 4.90608 7.55425C4.8242 7.55465 4.74232 7.55505 4.65795 7.55546C4.57286 7.55426 4.48777 7.55305 4.4001 7.55181C4.27247 7.55362 4.27247 7.55362 4.14225 7.55546C4.06037 7.55506 3.97849 7.55466 3.89413 7.55425C3.81948 7.55389 3.74482 7.55354 3.6679 7.55318C3.4105 7.50182 3.3174 7.40305 3.15463 7.20152C3.11328 7.04584 3.11328 7.04584 3.11571 6.89016C3.11451 6.81309 3.11451 6.81309 3.11328 6.73447C3.22061 6.3304 3.50952 6.22788 3.89413 6.22607Z" fill="black"/>
<path d="M3.89413 3.11239C3.97601 3.11199 4.05789 3.11159 4.14225 3.11118C4.22734 3.11238 4.31243 3.11358 4.4001 3.11482C4.52774 3.11302 4.52774 3.11302 4.65795 3.11118C4.73983 3.11158 4.82171 3.11198 4.90608 3.11239C5.01806 3.11292 5.01806 3.11292 5.1323 3.11346C5.38971 3.16482 5.48281 3.26359 5.64557 3.46511C5.68693 3.6208 5.68693 3.6208 5.68449 3.77648C5.6853 3.82786 5.6861 3.87923 5.68693 3.93216C5.62659 4.1593 5.51394 4.25078 5.33421 4.39921C5.1323 4.4395 5.1323 4.4395 4.90608 4.44057C4.8242 4.44097 4.74232 4.44137 4.65795 4.44178C4.57286 4.44058 4.48777 4.43938 4.4001 4.43814C4.27247 4.43994 4.27247 4.43994 4.14225 4.44178C4.06037 4.44138 3.97849 4.44098 3.89413 4.44057C3.81948 4.44022 3.74482 4.43987 3.6679 4.4395C3.4105 4.38814 3.3174 4.28937 3.15463 4.08785C3.11328 3.93216 3.11328 3.93216 3.11571 3.77648C3.11451 3.69942 3.11451 3.69942 3.11328 3.6208C3.22061 3.21672 3.50952 3.1142 3.89413 3.11239Z" fill="black"/>
</svg>
