<svg width="65" height="65" viewBox="0 0 65 65" fill="none" xmlns="http://www.w3.org/2000/svg">
<path d="M30.6242 54.6618L24.7922 46.7873C24.4399 46.3114 23.9823 45.9243 23.4553 45.6574C22.9282 45.3905 22.3465 45.2513 21.7563 45.2513H14.0827C12.6491 45.2513 11.2723 44.6746 10.2558 43.645C9.23888 42.6152 8.66602 41.2164 8.66602 39.756V14.8859C8.66602 13.4255 9.23888 12.0268 10.2558 10.9969C11.2723 9.96732 12.6491 9.39062 14.0827 9.39062H50.916C52.3496 9.39062 53.7264 9.96732 54.7429 10.9969C55.7598 12.0268 56.3327 13.4255 56.3327 14.8859V39.756C56.3327 41.2164 55.7598 42.6152 54.7429 43.645C53.7264 44.6746 52.3496 45.2513 50.916 45.2513H43.2424C42.6522 45.2513 42.0705 45.3905 41.5434 45.6574C41.0164 45.9243 40.5588 46.3113 40.2065 46.7872L34.3745 54.6618C34.155 54.9581 33.8711 55.1978 33.5458 55.3625C33.2204 55.5273 32.8622 55.6128 32.4994 55.6128C32.1365 55.6128 31.7783 55.5273 31.4529 55.3625C31.1276 55.1978 30.8437 54.9581 30.6242 54.6618Z" stroke="#024D81" stroke-width="2"/>
<path d="M33.9841 15.3723C33.6744 15.2364 33.3415 15.1673 33.0056 15.1685H33.0029C31.78 15.1685 30.6799 16.0143 30.3487 17.2449L27.7897 26.725V39.0019H41.2255C41.4046 39.0019 41.5741 38.9661 41.727 38.8983L41.731 38.8965C42.8883 38.3915 43.6449 37.2294 43.6449 35.9267C43.6449 35.6079 43.6004 35.2961 43.5122 34.9951L43.4113 34.6508L43.6245 34.3624C44.0363 33.8056 44.2654 33.1218 44.2654 32.4086C44.2654 32.0898 44.2209 31.7778 44.1327 31.4768L44.0318 31.1326L44.2451 30.8442C44.6558 30.2888 44.8847 29.6071 44.8859 28.8958C44.8804 28.5708 44.8348 28.2544 44.7472 27.9556L44.6463 27.6113L44.8596 27.3229C45.2713 26.7661 45.5004 26.0823 45.5004 25.3691C45.5004 24.2541 44.8886 23.1814 43.8875 22.5805C43.6875 22.4605 43.4604 22.398 43.231 22.3982H36.0425H35.285L35.3211 21.6416L35.5009 17.873C35.5341 17.153 35.2867 16.4776 34.8085 15.9619L34.8074 15.9607C34.5742 15.7082 34.2938 15.5082 33.9841 15.3723ZM33.9841 15.3723L34.2742 14.7109M20.2227 38.7425V27.5775C20.2227 27.4178 20.3435 27.3182 20.4597 27.3182H24.4267V39.0019H20.4597C20.3436 39.0019 20.2227 38.9023 20.2227 38.7425Z" stroke="#024D81" stroke-width="2"/>
</svg>
