<svg width="28" height="40" viewBox="0 0 28 40" fill="none" xmlns="http://www.w3.org/2000/svg">
<path d="M1.71351 0.0301547C1.8005 0.0298072 1.88749 0.0294596 1.97711 0.0291015C2.07308 0.0291159 2.16905 0.0291303 2.26793 0.0291451C2.42039 0.0287151 2.42039 0.0287151 2.57593 0.0282764C2.85866 0.0274948 3.14139 0.0272054 3.42412 0.0269986C3.72882 0.0266944 4.03352 0.0259476 4.33822 0.0252668C5.07437 0.0237255 5.81053 0.0229409 6.54668 0.0222473C6.89328 0.0219056 7.23988 0.0214872 7.58648 0.0210787C8.73854 0.0197522 9.89059 0.0186222 11.0426 0.0180576C11.3417 0.0179087 11.6407 0.0177589 11.9397 0.0176065C12.014 0.0175687 12.0883 0.017531 12.1649 0.0174922C13.3689 0.016845 14.5729 0.0148694 15.777 0.0123374C17.0129 0.00975957 18.2488 0.0083548 19.4847 0.00810561C20.1787 0.00793676 20.8727 0.00725396 21.5668 0.00526287C22.1578 0.00357116 22.7488 0.00294244 23.3398 0.00370095C23.6414 0.0040555 23.9429 0.00390627 24.2444 0.00239413C24.5714 0.000768199 24.8984 0.00156339 25.2255 0.00259161C25.3206 0.00173638 25.4157 0.000881147 25.5136 0C26.1188 0.00460032 26.5755 0.0667446 27.0275 0.505676C27.0623 0.556431 27.0971 0.607185 27.1329 0.659477C27.1869 0.735307 27.1869 0.735307 27.242 0.812669C27.4719 1.20594 27.5161 1.54332 27.5138 1.99386C27.5141 2.057 27.5144 2.12014 27.5147 2.18519C27.5155 2.39764 27.5152 2.61007 27.5149 2.82251C27.5152 2.97602 27.5157 3.12952 27.5161 3.28302C27.5172 3.70555 27.5174 4.12807 27.5173 4.5506C27.5175 5.00603 27.5185 5.46146 27.5194 5.91689C27.5212 6.91305 27.5218 7.90921 27.5222 8.90537C27.5224 9.52724 27.5229 10.1491 27.5235 10.771C27.525 12.4923 27.5263 14.2137 27.5265 15.9351C27.5265 15.9901 27.5265 16.0452 27.5265 16.1019C27.5266 16.3251 27.5266 16.5482 27.5266 16.7713C27.5266 16.9393 27.5267 17.1072 27.5267 17.2752C27.5267 17.3307 27.5267 17.3862 27.5267 17.4434C27.5269 19.1869 27.5287 20.9304 27.5315 22.674C27.5347 24.6327 27.5365 26.5914 27.5365 28.5502C27.5366 29.5873 27.5372 30.6244 27.5395 31.6616C27.5414 32.5447 27.542 33.4278 27.5408 34.3109C27.5402 34.7615 27.5403 35.212 27.5421 35.6626C27.5437 36.0752 27.5435 36.4878 27.5419 36.9004C27.5416 37.0496 27.542 37.1987 27.5431 37.3479C27.5535 38.8474 27.5535 38.8474 27.1037 39.4136C26.7026 39.7841 26.3833 39.9688 25.8294 39.9698C25.7424 39.9702 25.6554 39.9705 25.5658 39.9709C25.4218 39.9709 25.4218 39.9709 25.275 39.9709C25.1733 39.9711 25.0717 39.9714 24.967 39.9717C24.6842 39.9725 24.4015 39.9728 24.1188 39.973C23.8141 39.9733 23.5094 39.974 23.2047 39.9747C22.4685 39.9763 21.7324 39.9771 20.9962 39.9778C20.6496 39.9781 20.303 39.9785 19.9564 39.9789C18.8043 39.9802 17.6523 39.9814 16.5002 39.9819C16.2012 39.9821 15.9022 39.9822 15.6032 39.9824C15.5289 39.9824 15.4546 39.9825 15.378 39.9825C14.174 39.9832 12.97 39.9851 11.7659 39.9877C10.53 39.9902 9.29409 39.9916 8.05817 39.9919C7.36415 39.9921 6.67014 39.9927 5.97612 39.9947C5.38509 39.9964 4.79407 39.9971 4.20304 39.9963C3.90151 39.9959 3.60001 39.9961 3.29849 39.9976C2.97146 39.9992 2.64447 39.9984 2.31743 39.9974C2.22233 39.9983 2.12723 39.9991 2.02925 40C1.42411 39.9954 0.967361 39.9333 0.51534 39.4943C0.480565 39.4436 0.445791 39.3928 0.409963 39.3405C0.373983 39.29 0.338003 39.2394 0.300932 39.1873C0.098974 38.8419 0.0298444 38.5621 0.0293105 38.1619C0.0288077 38.0665 0.028305 37.9712 0.027787 37.8729C0.0280164 37.7673 0.0282609 37.6617 0.0285188 37.5562C0.0282275 37.4438 0.0278687 37.3315 0.0274483 37.2191C0.0264938 36.9104 0.0265152 36.6016 0.0266989 36.2928C0.0267307 35.9599 0.0258703 35.6269 0.0251306 35.2939C0.0238351 34.6417 0.0234067 33.9894 0.0233198 33.3371C0.0232457 32.8071 0.0229254 32.2772 0.0224308 31.7472C0.0210577 30.2453 0.0203384 28.7434 0.0204554 27.2416C0.0204616 27.1606 0.0204678 27.0796 0.0204743 26.9962C0.0204806 26.9151 0.0204869 26.8341 0.0204934 26.7505C0.0205569 25.4356 0.0190636 24.1207 0.0168661 22.8058C0.0146288 21.4564 0.0135493 20.107 0.0136842 18.7576C0.013736 17.9998 0.0133044 17.2419 0.0116293 16.484C0.0102128 15.8389 0.00986768 15.1939 0.0109291 14.5488C0.0114398 14.2196 0.0114413 13.8903 0.0100942 13.561C0.00887461 13.2598 0.00908404 12.9587 0.0104505 12.6575C0.0106914 12.5483 0.010401 12.4391 0.00953671 12.3299C0.00844235 12.1819 0.00944389 12.0339 0.0105591 11.8859C0.0105252 11.8036 0.0104912 11.7213 0.0104563 11.6365C0.0594712 11.3685 0.149352 11.278 0.361234 11.1118C0.648503 11.0202 0.773095 11.0078 1.04831 11.1362C1.21886 11.2678 1.21886 11.2678 1.29683 11.4237C1.30405 11.5314 1.30648 11.6394 1.30642 11.7473C1.30658 11.8155 1.30673 11.8837 1.30689 11.954C1.30667 12.0294 1.30644 12.1048 1.30621 12.1824C1.30627 12.2622 1.30634 12.3419 1.30641 12.424C1.30654 12.6929 1.30611 12.9618 1.30568 13.2307C1.30566 13.4227 1.30567 13.6148 1.30572 13.8068C1.30573 14.2212 1.30551 14.6356 1.30507 15.05C1.30444 15.6491 1.30424 16.2482 1.30414 16.8473C1.30397 17.8193 1.30345 18.7912 1.30271 19.7632C1.302 20.7075 1.30144 21.6518 1.30111 22.5961C1.30108 22.6834 1.30108 22.6834 1.30105 22.7725C1.30095 23.0643 1.30085 23.3562 1.30075 23.648C1.29995 26.0705 1.29857 28.4929 1.29683 30.9153C1.38112 30.9146 1.4654 30.9139 1.55224 30.9132C2.34612 30.9069 3.13999 30.9022 3.93388 30.8991C4.34204 30.8975 4.75018 30.8953 5.15833 30.8918C5.55214 30.8884 5.94592 30.8865 6.33974 30.8857C6.49008 30.8851 6.64041 30.884 6.79073 30.8823C7.00112 30.8801 7.21143 30.8797 7.42183 30.8799C7.48414 30.8788 7.54644 30.8776 7.61064 30.8765C7.88929 30.8786 8.04724 30.8905 8.27239 31.0616C8.4143 31.2584 8.4638 31.3737 8.46973 31.617C8.34331 31.8888 8.25419 31.9946 8.00193 32.1627C7.78525 32.1771 7.57651 32.1824 7.35987 32.1804C7.26172 32.1805 7.26172 32.1805 7.16159 32.1805C6.94517 32.1804 6.72877 32.1792 6.51235 32.178C6.36236 32.1777 6.21236 32.1775 6.06236 32.1773C5.66745 32.1767 5.27255 32.1752 4.87764 32.1735C4.47472 32.1719 4.07179 32.1711 3.66886 32.1704C2.87818 32.1687 2.08751 32.166 1.29683 32.1627C1.3016 32.972 1.30761 33.7812 1.31521 34.5904C1.3187 34.9661 1.32176 35.3418 1.32384 35.7175C1.32587 36.08 1.32901 36.4425 1.33294 36.8049C1.33425 36.9433 1.33514 37.0818 1.33563 37.2202C1.33638 37.4138 1.33856 37.6073 1.34109 37.8009C1.34092 37.8872 1.34092 37.8872 1.34075 37.9751C1.34608 38.2811 1.34608 38.2811 1.47923 38.5496C1.73112 38.7137 1.95131 38.7217 2.24288 38.7219C2.32621 38.7222 2.40954 38.7224 2.4954 38.7227C2.58728 38.7226 2.67916 38.7225 2.77383 38.7223C2.87118 38.7225 2.96853 38.7227 3.06883 38.7229C3.33956 38.7234 3.61029 38.7233 3.88103 38.7233C4.17281 38.7232 4.46459 38.7237 4.75637 38.724C5.32823 38.7247 5.90008 38.7249 6.47193 38.7249C6.93665 38.725 7.40137 38.7251 7.86609 38.7254C9.18296 38.7261 10.4998 38.7264 11.8167 38.7264C11.8877 38.7264 11.9588 38.7264 12.0319 38.7264C12.103 38.7264 12.1742 38.7264 12.2474 38.7264C13.4002 38.7263 14.553 38.7271 15.7057 38.7282C16.8887 38.7293 18.0716 38.7298 19.2546 38.7298C19.919 38.7297 20.5835 38.7299 21.2479 38.7308C21.8135 38.7315 22.3792 38.7317 22.9449 38.7311C23.2336 38.7309 23.5223 38.7309 23.811 38.7316C24.1237 38.7323 24.4365 38.7318 24.7493 38.7312C24.8866 38.7318 24.8866 38.7318 25.0266 38.7324C25.1522 38.7319 25.1522 38.7319 25.2804 38.7313C25.3526 38.7313 25.4248 38.7314 25.4992 38.7314C25.723 38.7097 25.8892 38.6561 26.0901 38.556C26.2088 38.3186 26.1821 38.0704 26.1841 37.8098C26.1849 37.7489 26.1856 37.6881 26.1864 37.6254C26.1889 37.4237 26.1908 37.2221 26.1928 37.0204C26.1944 36.8808 26.196 36.7412 26.1977 36.6016C26.202 36.2337 26.2058 35.8658 26.2096 35.498C26.2135 35.1227 26.2178 34.7475 26.2221 34.3723C26.2305 33.6358 26.2384 32.8993 26.2461 32.1627C26.1636 32.163 26.0812 32.1633 25.9963 32.1636C23.9922 32.1705 21.9881 32.1757 19.9839 32.1789C19.0148 32.1805 18.0456 32.1827 17.0764 32.1863C16.2318 32.1894 15.3872 32.1914 14.5426 32.1921C14.0953 32.1925 13.648 32.1935 13.2007 32.1957C12.7798 32.1978 12.3589 32.1985 11.938 32.198C11.7834 32.1981 11.6288 32.1987 11.4742 32.1999C11.2633 32.2015 11.0525 32.2011 10.8416 32.2002C10.7803 32.2012 10.7189 32.2021 10.6557 32.203C10.3699 32.1999 10.2001 32.172 9.95452 32.0212C9.79516 31.8509 9.79516 31.8509 9.70745 31.5829C9.71719 31.3051 9.71719 31.3051 9.87149 31.0958C10.1711 30.8661 10.4041 30.8617 10.7666 30.8684C10.8328 30.8681 10.8991 30.8677 10.9673 30.8674C11.1892 30.8668 11.4109 30.8689 11.6328 30.871C11.7919 30.8711 11.9509 30.8711 12.11 30.8709C12.5418 30.8707 12.9736 30.873 13.4055 30.8758C13.8568 30.8782 14.3081 30.8784 14.7594 30.8789C15.614 30.8801 16.4685 30.8833 17.3231 30.8872C18.2961 30.8916 19.269 30.8937 20.2419 30.8957C22.2433 30.8997 24.2447 30.9066 26.2461 30.9153C26.2415 27.1847 26.2357 23.454 26.2282 19.7234C26.2273 19.2834 26.2265 18.8433 26.2256 18.4033C26.2253 18.2719 26.2253 18.2719 26.2251 18.1378C26.2223 16.7177 26.2204 15.2976 26.2187 13.8775C26.217 12.4213 26.2145 10.965 26.2111 9.50874C26.209 8.60956 26.2076 7.71039 26.2071 6.8112C26.2067 6.19529 26.2055 5.57938 26.2035 4.96346C26.2024 4.60768 26.2017 4.2519 26.202 3.89611C26.2023 3.57076 26.2015 3.24543 26.1998 2.92009C26.1994 2.80203 26.1994 2.68398 26.1998 2.56592C26.2003 2.40613 26.1992 2.24634 26.1981 2.08656C26.1979 1.99759 26.1978 1.90863 26.1976 1.81697C26.1857 1.60026 26.1857 1.60026 26.0639 1.45746C25.8158 1.28263 25.5931 1.27827 25.3 1.27805C25.2167 1.2778 25.1333 1.27755 25.0475 1.27729C24.9097 1.27747 24.9097 1.27747 24.7691 1.27766C24.623 1.27739 24.623 1.27739 24.4741 1.27712C24.2033 1.27664 23.9326 1.27665 23.6619 1.27675C23.3701 1.27676 23.0783 1.27633 22.7865 1.27596C22.2147 1.27531 21.6428 1.2751 21.071 1.27506C20.6062 1.27502 20.1415 1.27486 19.6768 1.27461C18.3599 1.27392 17.0431 1.27357 15.7262 1.27362C15.6552 1.27363 15.5841 1.27363 15.511 1.27363C15.4398 1.27364 15.3687 1.27364 15.2955 1.27364C14.1427 1.27367 12.9899 1.27293 11.8372 1.27183C10.6542 1.27071 9.47123 1.27017 8.28827 1.27024C7.62385 1.27026 6.95943 1.27005 6.29501 1.26921C5.72934 1.2685 5.16367 1.26833 4.598 1.26886C4.30931 1.26912 4.02061 1.26912 3.73192 1.26844C3.41915 1.26772 3.1064 1.2682 2.79363 1.2688C2.65633 1.2682 2.65633 1.2682 2.51625 1.26759C2.43252 1.26795 2.34878 1.26831 2.2625 1.26868C2.1903 1.26866 2.11811 1.26864 2.04372 1.26862C1.81991 1.29028 1.65367 1.34387 1.45276 1.44401C1.36442 1.6207 1.3649 1.7165 1.36456 1.91259C1.36425 1.97796 1.36393 2.04332 1.36361 2.11067C1.36365 2.18252 1.36369 2.25437 1.36374 2.32841C1.36347 2.40397 1.3632 2.47954 1.36292 2.5574C1.36234 2.72187 1.36193 2.88633 1.36165 3.0508C1.36109 3.31095 1.35987 3.57108 1.35842 3.83122C1.35433 4.57099 1.35059 5.31076 1.34939 6.05054C1.3486 6.50267 1.34632 6.95477 1.34304 7.40689C1.34208 7.57941 1.34169 7.75194 1.34186 7.92447C1.34204 8.16566 1.34032 8.40676 1.33815 8.64794C1.33867 8.71948 1.33918 8.79102 1.33971 8.86472C1.33258 9.34745 1.33258 9.34745 1.15263 9.59473C0.932791 9.74383 0.78278 9.78099 0.517167 9.78641C0.161234 9.62031 0.161234 9.62031 0.049369 9.39658C0.0414258 9.29068 0.0381644 9.1844 0.0373698 9.0782C0.0366993 9.01155 0.0360289 8.94489 0.035338 8.87621C0.0350059 8.8029 0.0346736 8.7296 0.0343314 8.65407C0.0336938 8.57697 0.0330564 8.49988 0.0323995 8.42044C0.0304592 8.16432 0.0291731 7.90821 0.0280501 7.65208C0.027635 7.5646 0.0272198 7.47712 0.0267922 7.38699C0.0247064 6.92354 0.0231966 6.46009 0.022073 5.99663C0.020778 5.51879 0.0172898 5.04098 0.013312 4.56316C0.0106819 4.19514 0.00978688 3.82713 0.00934695 3.4591C0.00882455 3.28304 0.00764006 3.10699 0.00576887 2.93094C0.00329176 2.68368 0.00329973 2.43653 0.0038758 2.18926C0.00259674 2.11722 0.00131782 2.04518 0 1.97095C0.00501227 1.44221 0.139756 1.02543 0.439201 0.586384C0.835997 0.213477 1.16262 0.0311741 1.71351 0.0301547Z" fill="black"/>
<path d="M20.2124 9.56955C20.4078 9.74249 20.5987 9.91923 20.7886 10.0983C20.8405 10.1451 20.8923 10.1919 20.9458 10.2402C22.671 11.8602 23.6911 14.3391 23.7729 16.6834C23.8122 18.5905 23.5505 20.9653 22.27 22.4949C22.0447 22.6075 21.896 22.6023 21.6462 22.5729C21.4221 22.4072 21.4221 22.4072 21.2564 22.183C21.1889 21.7316 21.3803 21.4247 21.5829 21.0379C22.6103 18.9822 22.7067 16.6229 22.0111 14.4461C21.2476 12.1995 19.6067 10.4341 17.4973 9.37707C17.0245 9.15184 16.5371 8.99143 16.0327 8.8508C15.9479 8.82588 15.8632 8.80095 15.7759 8.77527C14.4382 8.44276 12.8331 8.4624 11.5106 8.8508C11.4172 8.87643 11.3239 8.90206 11.2277 8.92846C9.09948 9.56981 7.26263 11.0275 6.19093 12.98C5.07669 15.0975 4.75305 17.4493 5.42924 19.7661C5.79467 20.9192 6.38752 21.9465 7.1445 22.8847C7.21626 22.9759 7.21626 22.9759 7.28947 23.069C8.62987 24.6815 10.7686 25.6675 12.8239 25.91C15.2427 26.1327 17.5022 25.4115 19.3852 23.8983C19.4516 23.8409 19.5181 23.7835 19.5865 23.7244C19.8834 23.5071 20.0379 23.5349 20.3988 23.5864C20.5986 23.7472 20.5986 23.7472 20.7106 23.9763C20.7164 24.2964 20.6816 24.4604 20.4816 24.7121C20.4028 24.778 20.324 24.8439 20.2428 24.9119C20.1646 24.9802 20.1646 24.9802 20.0848 25.0498C18.0229 26.7892 15.3722 27.4317 12.7168 27.2363C10.7255 27.0365 8.8174 26.2101 7.30043 24.9119C7.26099 24.8788 7.22156 24.8458 7.18093 24.8118C5.27461 23.2062 4.05834 20.8382 3.79194 18.3627C3.66436 15.3929 4.33186 12.806 6.33072 10.5466C6.44555 10.4227 6.56085 10.2992 6.6767 10.1762C6.72434 10.1236 6.77198 10.0709 6.82106 10.0166C7.9922 8.77075 9.64815 7.97203 11.2767 7.52537C11.3683 7.49894 11.4598 7.47251 11.5542 7.44528C14.5541 6.73225 17.8814 7.58749 20.2124 9.56955Z" fill="black"/>
<path d="M14.3172 10.9559C14.6052 11.1893 14.868 11.4443 15.1341 11.7021C15.3104 11.8677 15.4976 12.0182 15.6864 12.1693C15.9801 12.4056 16.2619 12.6498 16.5392 12.9051C16.8182 13.1618 17.1018 13.4077 17.3968 13.6457C17.7674 13.9447 18.118 14.2606 18.468 14.5832C18.6822 14.7753 18.9023 14.9567 19.1267 15.1368C20.1834 16.001 20.1834 16.001 20.2621 16.4623C20.2705 16.8107 20.17 17.0131 19.9307 17.2712C19.6083 17.4407 19.3311 17.4436 18.9708 17.4369C18.873 17.4354 18.7752 17.434 18.6744 17.4326C18.6002 17.4308 18.5259 17.429 18.4494 17.4271C18.4501 17.4964 18.4508 17.5657 18.4515 17.6371C18.4577 18.2909 18.4625 18.9448 18.4655 19.5986C18.4672 19.9348 18.4694 20.2709 18.4729 20.607C18.4763 20.9316 18.4782 21.2561 18.479 21.5807C18.4795 21.7043 18.4807 21.828 18.4824 21.9516C18.4846 22.1252 18.4849 22.2987 18.4848 22.4723C18.4855 22.571 18.4862 22.6696 18.4869 22.7713C18.4422 23.0924 18.34 23.2581 18.1375 23.5085C17.7599 23.7602 17.3209 23.6964 16.879 23.6976C16.7111 23.6985 16.5434 23.7024 16.3755 23.7063C16.2679 23.707 16.1604 23.7076 16.0528 23.708C15.9555 23.709 15.8582 23.7101 15.7579 23.7111C15.3975 23.649 15.2736 23.5336 15.0189 23.2746C14.9414 23.0423 14.9314 22.8914 14.932 22.6491C14.9321 22.5297 14.9321 22.5297 14.9321 22.4079C14.9325 22.3222 14.9329 22.2364 14.9333 22.148C14.9334 22.0601 14.9335 21.9722 14.9336 21.8816C14.9341 21.6004 14.935 21.3191 14.936 21.0379C14.9364 20.8474 14.9368 20.6569 14.9371 20.4664C14.9379 19.9991 14.9394 19.5317 14.9409 19.0644C14.169 19.0644 13.3972 19.0644 12.6019 19.0644C12.6046 19.3469 12.6073 19.6294 12.6101 19.9205C12.612 20.1943 12.6134 20.4681 12.6148 20.7418C12.6159 20.932 12.6175 21.1222 12.6195 21.3124C12.6224 21.5859 12.6237 21.8593 12.6247 22.1328C12.626 22.2178 12.6272 22.3027 12.6284 22.3903C12.6285 22.9009 12.599 23.1949 12.2315 23.5697C11.8701 23.7648 11.4241 23.7016 11.0214 23.6992C10.8533 23.6985 10.6854 23.7008 10.5174 23.7032C10.4099 23.7034 10.3025 23.7033 10.195 23.7031C10.0978 23.7032 10.0005 23.7034 9.90036 23.7035C9.59098 23.6572 9.46682 23.574 9.24935 23.3525C9.0636 23.0716 9.07456 22.8212 9.07572 22.49C9.07569 22.4352 9.07567 22.3804 9.07565 22.3239C9.07576 22.1434 9.07697 21.9628 9.07819 21.7823C9.07848 21.6568 9.0787 21.5314 9.07886 21.406C9.07945 21.0764 9.08099 20.7467 9.08271 20.417C9.08431 20.0805 9.08502 19.7439 9.08581 19.4073C9.08748 18.7473 9.09014 18.0872 9.09342 17.4271C8.98337 17.4312 8.98337 17.4312 8.87109 17.4353C8.77401 17.4374 8.67692 17.4396 8.57689 17.4417C8.43307 17.4458 8.43307 17.4458 8.28635 17.45C7.97774 17.4252 7.79641 17.3541 7.53409 17.1932C7.35286 16.9757 7.30398 16.8234 7.25146 16.5451C7.38973 15.7294 8.43721 15.0821 9.04469 14.5911C9.39966 14.3041 9.73541 14.0023 10.0693 13.6916C10.3898 13.3952 10.7247 13.12 11.0648 12.8463C11.2848 12.6643 11.4952 12.4747 11.7053 12.2813C12.1203 11.8996 12.5517 11.5421 12.9917 11.1898C13.0579 11.1333 13.124 11.0768 13.1921 11.0186C13.5609 10.7448 13.9076 10.7548 14.3172 10.9559ZM12.1923 13.5705C11.9845 13.757 11.7717 13.9336 11.5542 14.1087C11.2012 14.3934 10.8676 14.6929 10.5362 15.0019C10.2001 15.3133 9.84905 15.6008 9.48965 15.8851C9.32113 16.0108 9.32113 16.0108 9.24935 16.1796C9.30292 16.1873 9.35649 16.1949 9.41168 16.2028C9.48193 16.2145 9.55218 16.2261 9.62456 16.2381C9.69421 16.249 9.76386 16.2598 9.83562 16.271C10.0819 16.3532 10.1346 16.4228 10.2629 16.6474C10.294 16.904 10.294 16.904 10.2966 17.2125C10.2974 17.2688 10.2982 17.3251 10.299 17.3831C10.3014 17.5688 10.3021 17.7543 10.3028 17.94C10.3041 18.0689 10.3055 18.1978 10.3071 18.3267C10.3108 18.6656 10.3131 19.0045 10.3151 19.3434C10.3174 19.6894 10.3211 20.0353 10.3246 20.3813C10.3313 21.0598 10.3365 21.7384 10.3409 22.417C10.6754 22.417 11.0098 22.417 11.3544 22.417C11.3556 22.2985 11.3567 22.1801 11.3579 22.0581C11.3624 21.6186 11.3684 21.179 11.3749 20.7395C11.3775 20.5493 11.3797 20.3591 11.3815 20.1689C11.3841 19.8954 11.3881 19.622 11.3925 19.3486C11.393 19.2636 11.3935 19.1786 11.394 19.0911C11.4087 18.3353 11.4087 18.3353 11.6663 18.0508C11.8967 17.9114 12.0689 17.875 12.3366 17.8735C12.4424 17.8724 12.4424 17.8724 12.5503 17.8712C12.6259 17.8713 12.7016 17.8714 12.7795 17.8715C12.8577 17.8711 12.9359 17.8708 13.0165 17.8704C13.1819 17.87 13.3472 17.87 13.5126 17.8703C13.7653 17.8705 14.018 17.8687 14.2707 17.8667C14.4315 17.8666 14.5922 17.8665 14.753 17.8666C14.8284 17.8659 14.9039 17.8651 14.9816 17.8644C15.6575 17.869 15.6575 17.869 15.9545 18.1288C16.1039 18.3708 16.1311 18.5589 16.1352 18.8411C16.1368 18.9207 16.1383 19.0003 16.1399 19.0823C16.1408 19.1676 16.1417 19.253 16.1427 19.3409C16.1442 19.4288 16.1457 19.5166 16.1472 19.607C16.1519 19.8875 16.1555 20.1679 16.1591 20.4483C16.1621 20.6384 16.1651 20.8286 16.1683 21.0187C16.1757 21.4848 16.1823 21.9509 16.1884 22.417C16.5228 22.417 16.8573 22.417 17.2019 22.417C17.202 22.3455 17.2021 22.2741 17.2023 22.2005C17.2036 21.5271 17.2069 20.8538 17.2122 20.1804C17.2149 19.8342 17.2168 19.4881 17.2172 19.1419C17.2175 18.8077 17.2197 18.4736 17.2232 18.1394C17.2242 18.012 17.2246 17.8846 17.2242 17.7572C17.2238 17.5785 17.2259 17.4 17.2285 17.2213C17.229 17.1197 17.2295 17.0181 17.23 16.9134C17.2923 16.5814 17.4097 16.4661 17.6697 16.2576C17.8442 16.2025 17.8442 16.2025 18.0059 16.1943C18.1483 16.187 18.1483 16.187 18.2934 16.1796C17.6432 15.5222 16.9624 14.9038 16.2413 14.3249C16.0221 14.144 15.8127 13.9552 15.6036 13.7627C15.249 13.4365 14.8836 13.1281 14.5084 12.8259C14.3495 12.6973 14.194 12.566 14.0394 12.4324C13.5238 12.0225 12.5862 13.2079 12.1923 13.5705Z" fill="black"/>
<path d="M15.1746 33.6441C15.735 34.1466 15.9823 34.704 16.0566 35.4471C15.9987 36.1655 15.7126 36.7515 15.1746 37.2306C14.6704 37.6051 14.083 37.766 13.4594 37.6984C12.7866 37.5967 12.3467 37.2666 11.9001 36.7628C11.571 36.2758 11.4719 35.7881 11.5102 35.2035C11.6702 34.4624 11.9796 33.93 12.6018 33.4882C13.4762 33.0433 14.3609 33.0912 15.1746 33.6441ZM12.9623 34.8331C12.8049 35.0995 12.7631 35.2838 12.7577 35.5933C12.8862 35.9574 13.0523 36.171 13.3814 36.373C13.6958 36.4587 13.8673 36.472 14.1757 36.3632C14.49 36.1536 14.6621 35.9644 14.7799 35.603C14.7864 35.282 14.7063 35.0934 14.5509 34.8136C14.0453 34.2944 13.4821 34.3407 12.9623 34.8331Z" fill="black"/>
<path d="M10.2371 2.32917C10.3218 2.32849 10.4065 2.32781 10.4938 2.3271C10.7741 2.32538 11.0544 2.32652 11.3347 2.32784C11.5293 2.32758 11.7239 2.3272 11.9185 2.32671C12.3264 2.32613 12.7343 2.32693 13.1422 2.32879C13.6137 2.33091 14.085 2.33023 14.5564 2.32808C15.0102 2.3261 15.4639 2.32631 15.9177 2.32745C16.1107 2.32771 16.3037 2.32739 16.4967 2.32648C16.7662 2.32549 17.0357 2.327 17.3052 2.32917C17.3853 2.32838 17.4653 2.32759 17.5478 2.32678C18.0872 2.33485 18.0872 2.33485 18.3425 2.56306C18.4748 2.8191 18.5024 2.95304 18.4491 3.23724C18.2904 3.46154 18.1637 3.60509 17.8876 3.66323C17.6689 3.67796 17.4532 3.67973 17.234 3.67752C17.1509 3.6782 17.0678 3.67888 16.9822 3.67959C16.7077 3.6813 16.4333 3.68017 16.1589 3.67885C15.9681 3.67911 15.7773 3.67949 15.5865 3.67998C15.1867 3.68055 14.7869 3.67972 14.3871 3.6779C13.8745 3.67568 13.362 3.67696 12.8495 3.67929C12.4555 3.6807 12.0616 3.68025 11.6676 3.67924C11.4786 3.67898 11.2896 3.6793 11.1006 3.68021C10.8365 3.6812 10.5725 3.67969 10.3084 3.67752C10.2302 3.67831 10.152 3.6791 10.0714 3.67991C9.70726 3.67436 9.53743 3.66804 9.23925 3.44363C9.09317 3.23724 9.09317 3.23724 9.04932 3.00334C9.18065 2.30288 9.63291 2.32322 10.2371 2.32917Z" fill="black"/>
</svg>
