<svg width="42" height="42" viewBox="0 0 42 42" fill="none" xmlns="http://www.w3.org/2000/svg">
<path d="M22.5919 1.75273C22.9144 1.99064 23.2006 2.2354 23.4715 2.53138C23.526 2.59086 23.5805 2.65035 23.6366 2.71164C23.7475 2.83459 23.8567 2.95901 23.9644 3.08473C24.2601 3.41445 24.2601 3.41445 24.6685 3.52917C24.8842 3.48581 25.0751 3.42175 25.2794 3.34032C25.3458 3.31532 25.4121 3.29032 25.4805 3.26457C25.6159 3.21185 25.7508 3.15772 25.8851 3.10228C26.862 2.70216 27.7652 2.49105 28.7997 2.86053C30.2175 3.5377 30.615 4.8181 31.1708 6.19672C31.2314 6.19849 31.2921 6.20026 31.3547 6.20208C31.6337 6.21067 31.9127 6.22042 32.1917 6.23019C32.3349 6.23434 32.3349 6.23434 32.4809 6.23856C33.6262 6.28059 34.5909 6.48445 35.4045 7.34912C35.9157 8.02952 36.0931 8.77514 36.0889 9.61311C36.0886 9.71609 36.0883 9.81907 36.0881 9.92518C36.0873 10.0314 36.0866 10.1376 36.0858 10.247C36.0854 10.3553 36.085 10.4636 36.0846 10.5751C36.0835 10.8414 36.082 11.1077 36.0802 11.374C36.1295 11.3895 36.1787 11.4051 36.2295 11.4212C37.5221 11.8396 38.9056 12.3645 39.567 13.6334C39.9148 14.4019 39.9679 15.2587 39.6842 16.0602C39.574 16.332 39.4514 16.5939 39.3229 16.8577C39.2728 16.9609 39.2226 17.0641 39.1709 17.1704C39.1224 17.2651 39.0738 17.3598 39.0238 17.4574C38.9135 17.7001 38.9135 17.7001 38.9913 17.9041C39.1266 18.0839 39.2688 18.2329 39.4331 18.3866C40.3375 19.2745 41.0137 20.0639 41.0343 21.3714C41.0166 22.4888 40.6005 23.0943 39.8292 23.8707C39.7638 23.9385 39.6983 24.0063 39.6308 24.0761C39.3532 24.36 39.0806 24.6198 38.7581 24.8526C38.8129 25.3716 39.0094 25.8137 39.2044 26.292C39.5743 27.2337 39.8504 28.15 39.4722 29.1372C38.8442 30.4512 37.8028 30.8763 36.4986 31.3761C36.2587 31.458 36.2587 31.458 36.0802 31.458C36.0811 31.5214 36.0821 31.5848 36.083 31.6501C36.0868 31.9413 36.0891 32.2324 36.0914 32.5236C36.0929 32.6233 36.0944 32.723 36.0959 32.8257C36.1023 33.9204 35.9278 34.7986 35.1764 35.6311C34.5046 36.2632 33.6522 36.4699 32.7531 36.4655C32.6501 36.4652 32.5471 36.4649 32.441 36.4646C32.3348 36.4638 32.2286 36.4631 32.1192 36.4623C32.0109 36.4619 31.9026 36.4615 31.7911 36.4611C31.5248 36.4601 31.2585 36.4586 30.9922 36.4567C30.9716 36.5267 30.951 36.5967 30.9298 36.6687C30.7784 37.0907 30.5842 37.4842 30.3841 37.8849C30.3461 37.9632 30.3081 38.0414 30.2689 38.1221C29.8441 38.9754 29.3331 39.5965 28.419 39.945C26.9841 40.3581 25.8676 39.8008 24.5653 39.2239C24.2618 39.4798 23.9605 39.7365 23.6734 40.0109C22.7635 40.8776 22.0612 41.3189 20.7886 41.3154C19.3597 41.2736 18.5692 40.2509 17.6441 39.2736C17.601 39.2277 17.5579 39.1819 17.5136 39.1346C17.0196 39.2774 16.5338 39.4302 16.0528 39.612C15.1077 39.9665 14.2179 40.1882 13.229 39.8487C11.9136 39.2368 11.4859 38.1689 10.9901 36.8752C10.9081 36.6353 10.9081 36.6353 10.9081 36.4567C10.8448 36.4577 10.7814 36.4586 10.716 36.4596C10.4249 36.4633 10.1337 36.4656 9.84258 36.4679C9.74287 36.4694 9.64317 36.4709 9.54044 36.4724C8.44583 36.4789 7.56758 36.3043 6.73512 35.553C6.10297 34.8811 5.89628 34.0287 5.90073 33.1296C5.90101 33.0266 5.9013 32.9237 5.9016 32.8176C5.90272 32.6582 5.90272 32.6582 5.90386 32.4957C5.90427 32.3874 5.90467 32.2792 5.90508 32.1676C5.90613 31.9013 5.9076 31.6351 5.90944 31.3688C5.83556 31.3454 5.83556 31.3454 5.76019 31.3216C4.46752 30.9032 3.08409 30.3782 2.42262 29.1093C2.07744 28.3465 2.02028 27.4906 2.29989 26.6936C2.36914 26.5249 2.44212 26.3577 2.51746 26.1915C2.54328 26.1345 2.5691 26.0775 2.5957 26.0187C2.7735 25.6279 2.95635 25.2397 3.1423 24.8526C3.07585 24.7877 3.07585 24.7877 3.00806 24.7215C2.01612 23.7427 1.02314 22.756 1 21.2821C1.09024 20.124 1.63843 19.4274 2.4561 18.6433C2.53072 18.5703 2.60534 18.4973 2.68222 18.422C2.86454 18.2439 3.04764 18.0666 3.23156 17.8901C3.08933 17.3973 2.93678 16.9132 2.75422 16.4339C2.40609 15.511 2.14941 14.5662 2.51746 13.6055C3.14545 12.2915 4.18686 11.8665 5.49102 11.3666C5.73092 11.2847 5.73092 11.2847 5.90944 11.2847C5.90804 11.1896 5.90804 11.1896 5.90661 11.0926C5.90287 10.8014 5.90057 10.5103 5.89829 10.2191C5.89679 10.1194 5.89529 10.0197 5.89375 9.91698C5.88733 8.82237 6.06185 7.94412 6.81323 7.11166C7.48508 6.47951 8.33744 6.27282 9.23657 6.27727C9.33955 6.27755 9.44253 6.27784 9.54864 6.27814C9.65484 6.27889 9.76105 6.27963 9.87047 6.28041C10.0329 6.28101 10.0329 6.28101 10.1986 6.28163C10.4649 6.28267 10.7311 6.28414 10.9974 6.28598C11.013 6.23673 11.0286 6.18747 11.0446 6.13673C11.463 4.84406 11.988 3.46064 13.2569 2.79916C14.0254 2.45141 14.8821 2.39833 15.6837 2.68201C15.9555 2.79217 16.2174 2.91482 16.4811 3.04324C16.5843 3.09341 16.6876 3.14358 16.7939 3.19527C16.8886 3.24382 16.9833 3.29238 17.0809 3.34241C17.3223 3.45191 17.3223 3.45191 17.5209 3.37832C17.7312 3.22197 17.9237 3.05531 18.1161 2.87727C18.1946 2.8057 18.2731 2.73413 18.3539 2.66039C18.4952 2.5302 18.6361 2.39965 18.7765 2.26847C19.8061 1.3284 21.3422 0.95037 22.5919 1.75273ZM20.9948 4.23294C20.8599 4.36822 20.7254 4.50383 20.5926 4.64114C19.6897 5.57233 18.8734 6.36275 17.5307 6.48787C16.5082 6.48388 15.5731 5.98119 14.6572 5.57188C14.4254 5.77671 14.3201 5.96457 14.2063 6.25077C14.1734 6.33125 14.1404 6.41174 14.1064 6.49467C14.0392 6.66238 13.9722 6.83021 13.9056 6.99817C13.6239 7.68363 13.2946 8.32472 12.6488 8.72955C12.5853 8.77074 12.5217 8.81193 12.4563 8.85438C11.9925 9.09711 11.5778 9.16586 11.057 9.17621C10.9966 9.17773 10.9361 9.17924 10.8739 9.18081C10.6826 9.18551 10.4913 9.18913 10.3 9.1926C10.1072 9.19652 9.91432 9.20068 9.72146 9.20535C9.54766 9.20949 9.37384 9.21284 9.20002 9.21616C8.95355 9.20274 8.95355 9.20274 8.85511 9.32091C8.8453 9.50297 8.84119 9.68534 8.83942 9.86765C8.83729 9.98053 8.83516 10.0934 8.83297 10.2097C8.82885 10.4475 8.82636 10.6852 8.8246 10.9231C8.8099 11.5992 8.75545 12.126 8.4088 12.7129C8.34908 12.8197 8.34908 12.8197 8.28815 12.9287C7.70119 13.7444 6.82071 14.0457 5.90779 14.3768C5.52923 14.4867 5.52923 14.4867 5.28461 14.7659C5.34855 14.9978 5.34855 14.9978 5.45162 15.2635C6.40415 17.8991 6.40415 17.8991 5.79324 19.3105C5.53146 19.7865 5.1601 20.1335 4.76577 20.5011C4.68689 20.5771 4.60801 20.6532 4.52674 20.7315C4.33442 20.9166 4.14079 21.1 3.94567 21.2821C4.0892 21.587 4.24629 21.775 4.4924 22.0074C5.34025 22.8402 6.01973 23.6085 6.06565 24.8359C6.07191 25.7166 5.72616 26.4749 5.36029 27.2609C5.28571 27.4386 5.23688 27.6104 5.19534 27.7983C5.60394 28.0114 6.01367 28.2163 6.44014 28.3914C7.44016 28.8028 8.12615 29.1632 8.59534 30.1874C8.75064 30.5687 8.7812 30.8718 8.79095 31.283C8.79259 31.3438 8.79424 31.4047 8.79593 31.4673C8.80295 31.7274 8.80902 31.9875 8.81514 32.2475C8.81975 32.4374 8.82486 32.6273 8.83 32.8172C8.83271 32.931 8.83541 33.0447 8.8382 33.1619C8.82578 33.4121 8.82578 33.4121 8.94437 33.5111C9.12538 33.5209 9.3067 33.525 9.48797 33.5268C9.60044 33.5289 9.71292 33.531 9.8288 33.5332C10.0655 33.5373 10.302 33.5398 10.5387 33.5416C11.4668 33.5618 12.2704 33.7111 12.9664 34.365C13.5835 35.1385 13.9406 36.1691 14.3001 37.0816C14.6058 37.0281 14.8757 36.9502 15.1617 36.8305C15.2768 36.7832 15.2768 36.7832 15.3941 36.735C15.5534 36.6686 15.7126 36.6022 15.8718 36.5355C16.8418 36.1374 17.6918 36.0633 18.674 36.4567C19.2821 36.7946 19.7617 37.2424 20.2417 37.7399C20.3062 37.8056 20.3707 37.8713 20.4371 37.939C20.5939 38.0989 20.75 38.2594 20.9056 38.4205C21.179 38.2993 21.358 38.1649 21.5621 37.9474C21.6456 37.8606 21.6456 37.8606 21.7307 37.7721C21.845 37.6516 21.9589 37.5308 22.0724 37.4095C22.8088 36.6475 23.5165 36.3368 24.5722 36.3131C25.3765 36.3302 26.072 36.6844 26.7942 37.0073C27.0005 37.0919 27.2006 37.1425 27.4217 37.1708C27.4596 37.0887 27.4974 37.0065 27.5364 36.9219C27.6757 36.6205 27.8171 36.32 27.9588 36.0198C28.0415 35.8428 28.1219 35.6649 28.2021 35.4867C28.6177 34.5827 29.0661 34.0379 30.0025 33.6748C30.5599 33.5242 31.1382 33.5426 31.7119 33.539C31.9024 33.5364 32.0928 33.5333 32.2833 33.5298C32.454 33.5269 32.6246 33.5253 32.7953 33.5237C33.0368 33.5395 33.0368 33.5395 33.1345 33.4218C33.1454 33.2604 33.1506 33.0986 33.1534 32.9368C33.1559 32.8364 33.1584 32.736 33.161 32.6326C33.1656 32.4218 33.1696 32.2109 33.1729 32.0001C33.1943 31.2124 33.2804 30.4565 33.7259 29.7844C33.7639 29.7241 33.8018 29.6638 33.841 29.6017C34.3951 29.0164 35.1247 28.7214 35.8626 28.4343C35.9527 28.3984 36.0427 28.3625 36.1355 28.3255C36.3548 28.2382 36.5744 28.1517 36.7943 28.0661C36.7369 27.9134 36.6794 27.7608 36.6219 27.6082C36.5728 27.4772 36.5239 27.346 36.4754 27.2148C36.3702 26.9307 36.2638 26.6496 36.1437 26.3715C35.8053 25.5682 35.7434 24.6662 36.0412 23.8372C36.4938 22.8867 37.3007 22.1838 38.044 21.4606C37.9034 21.1124 37.6784 20.9074 37.408 20.6517C36.5691 19.8328 35.9173 19.0117 35.8682 17.8009C35.907 16.7958 36.4082 15.8564 36.7943 14.9445C36.6233 14.8642 36.4522 14.7843 36.281 14.7046C36.1751 14.6551 36.0691 14.6056 35.9599 14.5546C35.6719 14.423 35.3784 14.3129 35.0816 14.2025C34.4003 13.9209 33.8033 13.4586 33.447 12.8022C33.1325 12.0142 33.1002 11.2276 33.0787 10.3865C33.0753 10.2752 33.0718 10.1638 33.0683 10.0491C33.0599 9.77665 33.0523 9.50417 33.0453 9.23165C32.9453 9.23082 32.8454 9.22998 32.7424 9.22912C32.3701 9.22555 31.9978 9.21968 31.6255 9.21313C31.4646 9.21061 31.3038 9.20872 31.1429 9.20746C30.9111 9.20554 30.6794 9.20137 30.4476 9.19678C30.3762 9.19667 30.3047 9.19656 30.2311 9.19645C29.7614 9.18427 29.489 9.09748 29.1177 8.78534C28.8514 8.50004 28.7352 8.17234 28.5957 7.81077C28.5728 7.75205 28.5498 7.69333 28.5261 7.63283C28.4283 7.38276 28.3317 7.1322 28.2352 6.88164C28.1643 6.69835 28.0928 6.51535 28.0211 6.33236C27.9789 6.22291 27.9366 6.11346 27.8931 6.0007C27.806 5.74066 27.806 5.74066 27.6003 5.66115C27.3958 5.71465 27.3958 5.71465 27.1658 5.8055C27.0794 5.8376 26.993 5.86971 26.9039 5.90278C26.8134 5.93719 26.7228 5.97159 26.6295 6.00704C26.4513 6.0739 26.273 6.14063 26.0946 6.20718C25.9757 6.25221 25.9757 6.25221 25.8544 6.29814C25.0927 6.5676 24.1654 6.59802 23.4094 6.29261C22.6686 5.90453 22.1053 5.26897 21.5272 4.67743C21.4712 4.62015 21.4152 4.56288 21.3575 4.50387C21.3069 4.45175 21.2564 4.39964 21.2044 4.34594C21.1007 4.22276 21.1007 4.22276 20.9948 4.23294Z" fill="black" stroke="#EDDDFF"/>
<path d="M27.6282 11.4353C27.964 11.7243 28.1876 11.9513 28.2624 12.4019C28.3105 13.3326 27.7681 14.0004 27.26 14.7426C27.2102 14.8159 27.1605 14.8892 27.1092 14.9647C27.002 15.1228 26.8946 15.2808 26.7871 15.4387C26.4947 15.8681 26.2036 16.2983 25.9127 16.7287C25.8225 16.862 25.8225 16.862 25.7305 16.9981C25.1113 17.9152 24.503 18.8395 23.8959 19.7646C22.9898 21.1448 22.0728 22.517 21.1471 23.8841C20.1859 25.3041 19.2393 26.7334 18.2994 28.1675C18.0089 28.6105 17.7172 29.0527 17.4244 29.4943C17.3783 29.5639 17.3322 29.6335 17.2848 29.7053C17.1529 29.9039 17.02 30.1017 16.8867 30.2994C16.8289 30.3866 16.8289 30.3866 16.77 30.4756C16.5079 30.8607 16.2375 31.1588 15.8176 31.3688C15.3169 31.4145 14.885 31.4368 14.4285 31.2126C14.0242 30.8394 13.844 30.5201 13.7925 29.9685C13.8036 29.4812 13.9668 29.1629 14.2297 28.7659C14.2693 28.7044 14.3089 28.6429 14.3497 28.5795C14.4805 28.3776 14.6132 28.1771 14.7465 27.9768C14.7914 27.9092 14.8363 27.8417 14.8825 27.772C15.1766 27.3309 15.4738 26.892 15.7719 26.4535C16.736 25.0348 17.6881 23.6087 18.6294 22.1747C19.5354 20.7948 20.452 19.4226 21.3778 18.0559C22.0004 17.1366 22.6187 16.2147 23.2285 15.2869C23.317 15.1523 23.317 15.1523 23.4072 15.015C23.6912 14.5827 23.9746 14.15 24.2573 13.7169C24.3598 13.5605 24.4622 13.4041 24.5647 13.2478C24.6324 13.1434 24.6324 13.1434 24.7016 13.0369C25.7648 11.4165 25.7648 11.4165 26.3391 11.2306C26.7976 11.1457 27.2169 11.2258 27.6282 11.4353Z" fill="black" stroke="#EDDDFF"/>
<path d="M29.1458 22.0241C30.0608 22.7151 30.8155 23.5944 30.9925 24.7633C31.1068 26.0256 31.0265 27.1757 30.256 28.2334C29.5083 29.1023 28.5826 29.8436 27.4005 29.9603C25.9063 30.0319 24.8391 29.7912 23.6761 28.8108C22.9058 28.0962 22.4529 27.178 22.395 26.133C22.3451 24.6435 22.6723 23.5734 23.7008 22.4648C25.1554 21.0882 27.487 20.9231 29.1458 22.0241ZM25.514 24.9084C25.3172 25.317 25.2978 25.6565 25.3689 26.1023C25.5769 26.5342 25.8296 26.787 26.2615 26.9949C26.7074 27.0661 27.0468 27.0466 27.4554 26.8499C27.7754 26.5604 28.0107 26.3286 28.081 25.8882C28.1038 25.3808 28.0411 25.0624 27.6897 24.6741C27.3014 24.3227 26.983 24.26 26.4756 24.2829C26.0352 24.3531 25.8034 24.5885 25.514 24.9084Z" fill="black" stroke="#EDDDFF"/>
<path d="M17.7199 13.4549C18.6695 14.1702 19.3301 15.0058 19.5665 16.1941C19.6994 17.5134 19.5663 18.6607 18.7492 19.7427C18.0805 20.5573 17.2425 21.2097 16.1745 21.3714C14.9123 21.4857 13.7622 21.4054 12.7044 20.6349C11.8355 19.8872 11.0943 18.9615 10.9775 17.7794C10.906 16.2852 11.1467 15.218 12.127 14.055C13.5453 12.5262 16.0042 12.3162 17.7199 13.4549ZM14.088 16.3392C13.8913 16.7478 13.8718 17.0872 13.9429 17.5331C14.1509 17.965 14.4037 18.2177 14.8356 18.4257C15.2814 18.4969 15.6208 18.4774 16.0295 18.2806C16.3494 17.9912 16.5847 17.7594 16.655 17.319C16.6779 16.8116 16.6151 16.4932 16.2638 16.1049C15.8754 15.7535 15.557 15.6908 15.0497 15.7136C14.6093 15.7839 14.3775 16.0193 14.088 16.3392Z" fill="black" stroke="#EDDDFF"/>
</svg>
