<svg width="512" height="512" viewBox="0 0 512 512" fill="none" xmlns="http://www.w3.org/2000/svg">
<path d="M9.28 467.76C8.41712 469.091 7.97812 470.652 8.02097 472.237C8.06382 473.823 8.5865 475.358 9.52 476.64C11.04 478.8 13.52 480.08 16.08 480.08C16.64 480.08 17.2 480.08 17.84 479.92L91.36 463.6C112.56 474.4 136.32 480.08 160.16 480.08C243.12 480.08 310.72 413.2 312 330.48C348 340.24 387.44 336.56 420.88 319.6L494.4 335.84C494.96 336 495.52 336 496.16 336C498.72 336 501.2 334.72 502.72 332.56C504.56 329.92 504.64 326.4 502.96 323.68L472.96 276.24C493.205 249.722 504.168 217.283 504.16 183.92C504.16 100.08 436 31.92 352.16 31.92C268.32 31.92 201.6 98.8 200.32 181.44C187.52 177.92 174.08 175.92 160.16 175.92C76.16 176 8 244.16 8 328C8 361.36 19.04 393.92 39.28 420.32L9.28 467.76ZM352 48C426.96 48 488 109.04 488 184C488 215.6 476.96 246.4 456.8 270.64C454.56 273.28 454.32 277.12 456.16 280L478.96 316L421.36 303.28C419.52 302.88 417.52 303.12 415.84 304C383.92 320.96 345.44 324.24 311.2 313.52C305.76 255.84 267.84 207.44 216 186.8C216 185.84 215.92 184.88 215.92 183.92C215.92 108.96 276.96 47.92 351.92 47.92L352 48ZM24 328C24 253.04 85.04 192 160 192C234.96 192 296 253.04 296 328C296 402.96 234.96 464 160 464C137.76 464 115.68 458.48 96.08 448C94.9251 447.375 93.6333 447.045 92.32 447.04C91.76 447.04 91.12 447.04 90.56 447.2L33.04 459.92L55.84 423.92C57.68 420.96 57.44 417.2 55.28 414.56C35.12 390.24 24.08 359.44 24.08 327.84L24 328Z" fill="black" stroke="black" stroke-width="5"/>
<path d="M160 400C166.627 400 172 394.627 172 388C172 381.373 166.627 376 160 376C153.373 376 148 381.373 148 388C148 394.627 153.373 400 160 400Z" fill="black" stroke="black" stroke-width="5"/>
<path d="M160 264C173.2 264 184 274.8 184 288C184 301.2 173.2 312 160 312C155.6 312 152 315.6 152 320V360H168V327.2C175.415 325.686 182.249 322.1 187.708 316.858C193.166 311.615 197.025 304.932 198.837 297.584C200.649 290.235 200.339 282.524 197.943 275.345C195.547 268.166 191.163 261.814 185.301 257.027C179.44 252.24 172.34 249.214 164.827 248.3C157.314 247.387 149.696 248.624 142.858 251.867C136.02 255.111 130.242 260.228 126.196 266.623C122.15 273.019 120.002 280.432 120 288H136C136 274.8 146.8 264 160 264ZM288 128H416V144H288V128ZM288 176H416V192H288V176ZM320 224H416V240H320V224Z" fill="black" stroke="black" stroke-width="5"/>
</svg>
