<svg width="35" height="35" viewBox="0 0 35 35" fill="none" xmlns="http://www.w3.org/2000/svg">
<path d="M5.6886 0.0341264C5.73629 0.0339456 5.78399 0.0337648 5.83313 0.0335785C5.99414 0.0330531 6.15516 0.0330158 6.31617 0.032975C6.43231 0.0327013 6.54844 0.0323987 6.66457 0.0320695C6.98465 0.0312526 7.30473 0.0308683 7.62481 0.0305571C7.96967 0.0301513 8.31452 0.0293596 8.65937 0.028628C9.49271 0.0269549 10.3261 0.0259583 11.1594 0.0250782C11.3947 0.0248252 11.63 0.0245542 11.8654 0.0242768C13.3262 0.022556 14.7871 0.0210521 16.2479 0.0202041C16.5864 0.0200044 16.9249 0.0198024 17.2634 0.0195969C17.3475 0.019546 17.4316 0.0194952 17.5183 0.0194427C18.8812 0.0185799 20.2441 0.0163145 21.607 0.0134736C23.0058 0.0105816 24.4046 0.00897411 25.8034 0.00861774C26.589 0.00838488 27.3745 0.00758259 28.1601 0.00533775C28.8291 0.00342908 29.4981 0.0026782 30.1672 0.00344184C30.5085 0.00379566 30.8498 0.00359761 31.1911 0.00190998C31.5038 0.000377011 31.8164 0.000426166 32.1291 0.00171932C32.242 0.00191035 32.3549 0.00152792 32.4679 0.000504708C33.0944 -0.00482399 33.5966 0.0261114 34.1358 0.384405C34.1977 0.422376 34.2596 0.460348 34.3233 0.49947C34.7539 0.942039 34.9641 1.4249 34.9645 2.03473C34.9648 2.0851 34.9651 2.13547 34.9654 2.18737C34.9664 2.35664 34.9668 2.52592 34.9672 2.69519C34.9677 2.81638 34.9683 2.93757 34.9689 3.05876C34.9707 3.45727 34.9717 3.85578 34.9727 4.25429C34.9731 4.39154 34.9734 4.52879 34.9738 4.66604C34.9753 5.23711 34.9765 5.80819 34.9773 6.37927C34.9784 7.19722 34.9807 8.01515 34.9846 8.8331C34.9872 9.40843 34.9885 9.98375 34.9889 10.5591C34.9891 10.9026 34.99 11.246 34.9922 11.5895C34.9942 11.913 34.9947 12.2364 34.9939 12.5598C34.9938 12.6782 34.9944 12.7965 34.9956 12.9149C35.0018 13.5566 34.9855 14.0849 34.6131 14.6355C34.5751 14.6974 34.5372 14.7593 34.498 14.823C34.2066 15.1066 33.8397 15.3252 33.4539 15.4538C33.3133 15.4491 33.1728 15.4397 33.0326 15.4277C30.273 15.1184 30.273 15.1184 27.8101 16.0832C27.2115 16.6273 26.6987 17.264 26.2462 17.9331C26.127 18.084 26.007 18.1693 25.8183 18.2113C25.5245 18.2275 25.325 18.2047 25.0981 18.01C24.8698 17.8026 24.7023 17.578 24.5301 17.325C23.989 16.5432 23.3222 15.6595 22.3403 15.458C20.8736 15.2164 19.3138 15.3467 17.8391 15.4538C17.8399 15.5042 17.8408 15.5546 17.8416 15.6065C17.8423 15.6733 17.8429 15.74 17.8436 15.8087C17.8445 15.8746 17.8453 15.9405 17.8462 16.0084C17.8354 16.3042 17.757 16.5638 17.6644 16.8431C17.6488 16.8927 17.6333 16.9424 17.6173 16.9936C17.4051 17.6651 17.1759 18.3316 16.9526 18.9995C17.0244 18.9989 17.0962 18.9983 17.1702 18.9977C17.8493 18.9921 18.5284 18.988 19.2075 18.9854C19.5566 18.9839 19.9057 18.982 20.2547 18.9789C20.5921 18.9759 20.9294 18.9743 21.2668 18.9736C21.395 18.9731 21.5232 18.9721 21.6514 18.9706C22.6741 18.9593 23.461 19.0527 24.2271 19.7922C24.7557 20.3616 24.8815 20.9928 24.8783 21.7469C24.8561 22.099 24.7718 22.4172 24.6578 22.7498C24.7007 22.7681 24.7436 22.7863 24.7878 22.8052C25.4195 23.0944 25.8696 23.4846 26.1598 24.125C26.4262 24.9006 26.4155 25.6362 26.0769 26.3807C25.773 26.9399 25.3576 27.2456 24.7942 27.5229C24.8089 27.5652 24.8237 27.6074 24.8389 27.651C25.0917 28.4551 25.1212 29.2848 24.726 30.0458C24.3893 30.6028 23.931 30.9714 23.3622 31.2732C23.3762 31.3103 23.3902 31.3475 23.4046 31.3858C23.6811 32.1599 23.7019 32.8503 23.3452 33.6086C23.0011 34.2389 22.5554 34.6299 21.8794 34.8913C21.6438 34.9592 21.4508 34.9728 21.2059 34.9735C21.1161 34.9741 21.0263 34.9747 20.9338 34.9753C20.835 34.9752 20.7363 34.9752 20.6375 34.9751C20.5329 34.9755 20.4282 34.976 20.3235 34.9765C20.0396 34.9777 19.7557 34.978 19.4717 34.9781C19.2937 34.9782 19.1157 34.9785 18.9378 34.9788C18.315 34.9801 17.6923 34.9806 17.0695 34.9805C16.4922 34.9805 15.9148 34.9819 15.3375 34.984C14.8398 34.9858 14.342 34.9866 13.8443 34.9865C13.548 34.9864 13.2517 34.9868 12.9553 34.9883C11.4823 34.995 10.0921 34.9781 8.70201 34.4183C8.59016 34.3735 8.47794 34.3296 8.36533 34.2867C8.31831 34.2677 8.27128 34.2488 8.22283 34.2292C8.04257 34.197 7.967 34.2432 7.81557 34.3416C7.76635 34.395 7.71713 34.4485 7.66642 34.5035C7.0865 35.0448 6.39345 34.9966 5.64664 34.9939C5.52838 34.9942 5.41011 34.9947 5.29185 34.9952C5.04477 34.9959 4.79771 34.9956 4.55063 34.9946C4.23553 34.9934 3.92052 34.995 3.60543 34.9974C3.36142 34.9989 3.11743 34.9988 2.87342 34.9982C2.75732 34.9982 2.64122 34.9986 2.52512 34.9997C1.77379 35.0052 1.20096 34.9503 0.600526 34.4567C0.217996 33.9867 0.0321658 33.6174 0.03175 33.0063C0.0314512 32.9532 0.0311522 32.9 0.0308443 32.8452C0.0299313 32.6665 0.0295103 32.4878 0.0290927 32.3091C0.0285539 32.1812 0.0279901 32.0533 0.027403 31.9254C0.0256148 31.5048 0.0245711 31.0841 0.0235991 30.6635C0.0232336 30.5186 0.0228667 30.3738 0.0224988 30.2289C0.0210238 29.6263 0.0197464 29.0236 0.018979 28.4209C0.0178723 27.5576 0.0156119 26.6943 0.0117239 25.8309C0.00908288 25.2238 0.00775278 24.6166 0.00739248 24.0094C0.00714362 23.6469 0.00632667 23.2844 0.00411246 22.9218C0.00205753 22.5805 0.00163259 22.2392 0.00243421 21.8978C0.00244923 21.7728 0.00188524 21.6479 0.000684686 21.5229C-0.00618573 20.7664 0.0296367 20.1754 0.53154 19.5708C0.60366 19.5095 0.60366 19.5095 0.677236 19.447C0.724789 19.4049 0.772342 19.3628 0.821335 19.3194C1.21953 19.0577 1.60591 18.9688 2.07652 18.9719C2.15198 18.9712 2.15198 18.9712 2.22896 18.9705C2.39351 18.9693 2.55802 18.9695 2.72258 18.9699C2.83805 18.9696 2.95351 18.9692 3.06898 18.9688C3.31033 18.9682 3.55167 18.9684 3.79302 18.9691C4.10101 18.9699 4.40894 18.9685 4.71692 18.9665C4.95519 18.9652 5.19345 18.9653 5.43173 18.9656C5.54522 18.9657 5.65871 18.9652 5.7722 18.9644C6.63336 18.9589 7.19284 19.084 7.88376 19.6132C10.2187 18.4239 11.2634 17.1754 12.1412 14.6994C12.1911 14.5597 12.241 14.42 12.291 14.2803C12.3156 14.2117 12.3401 14.1431 12.3654 14.0723C12.4144 13.9354 12.4635 13.7986 12.5126 13.6617C12.6287 13.3379 12.7438 13.0137 12.8559 12.6885C12.8969 12.5719 12.9379 12.4553 12.9789 12.3387C13.0054 12.2598 13.0054 12.2598 13.0324 12.1792C13.1462 11.8597 13.2679 11.6449 13.5433 11.4307C14.0062 11.3112 14.5007 11.4864 14.9369 11.6395C14.9996 11.6612 15.0623 11.6829 15.127 11.7052C16.3191 12.1329 17.0753 12.9001 17.6345 14.0218C17.7373 14.0211 17.7373 14.0211 17.8422 14.0203C18.4902 14.0159 19.1382 14.0147 19.7863 14.0167C20.1194 14.0176 20.4524 14.0174 20.7855 14.0146C21.1074 14.0119 21.4292 14.0122 21.7511 14.0146C21.8735 14.015 21.9959 14.0143 22.1183 14.0125C23.1956 13.9979 23.1956 13.9979 23.6199 14.3745C23.7183 14.482 23.8145 14.5916 23.9077 14.7037C23.9848 14.78 24.0627 14.8555 24.1416 14.9299C24.2103 14.9986 24.2789 15.0675 24.3472 15.1365C24.4025 15.192 24.4025 15.192 24.459 15.2486C24.5737 15.3637 24.6882 15.479 24.8027 15.5944C24.8817 15.6737 24.9607 15.7531 25.0397 15.8324C25.2308 16.0242 25.4217 16.2162 25.6124 16.4084C25.9353 16.1392 26.2394 15.8583 26.5343 15.559C26.5741 15.5188 26.614 15.4787 26.6551 15.4374C26.7807 15.3109 26.9062 15.1842 27.0316 15.0574C27.198 14.8892 27.3647 14.7211 27.5315 14.5532C27.5886 14.4953 27.5886 14.4953 27.6469 14.4361C27.957 14.124 28.0816 14.0815 28.5195 14.0782C28.5659 14.0777 28.6124 14.0773 28.6603 14.0768C28.7614 14.0758 28.8625 14.075 28.9636 14.0743C29.1238 14.0732 29.2841 14.0716 29.4443 14.0699C29.9 14.0651 30.3558 14.061 30.8115 14.0575C31.0902 14.0553 31.3689 14.0525 31.6476 14.0493C31.7536 14.0482 31.8596 14.0474 31.9655 14.0468C32.1144 14.046 32.2632 14.0443 32.412 14.0425C32.5388 14.0414 32.5388 14.0414 32.6682 14.0404C32.9342 14.0198 33.1411 13.9949 33.3857 13.8855C33.5078 13.5608 33.5392 13.269 33.5394 12.9242C33.5396 12.8779 33.5399 12.8317 33.5401 12.784C33.5406 12.6301 33.5402 12.4763 33.5398 12.3225C33.5399 12.2117 33.5402 12.1009 33.5405 11.99C33.5411 11.69 33.5409 11.3899 33.5404 11.0898C33.5401 10.7753 33.5404 10.4609 33.5406 10.1464C33.5409 9.61839 33.5405 9.09036 33.5399 8.56233C33.5392 7.9524 33.5394 7.34248 33.5401 6.73255C33.5408 6.20829 33.5408 5.68404 33.5405 5.15978C33.5403 4.84692 33.5403 4.53406 33.5407 4.2212C33.5411 3.92703 33.5408 3.63287 33.54 3.3387C33.5399 3.23093 33.5399 3.12315 33.5402 3.01537C33.5406 2.8679 33.5401 2.72045 33.5394 2.57298C33.5394 2.49057 33.5393 2.40816 33.5393 2.32325C33.5199 2.05906 33.4943 1.85474 33.3857 1.61177C33.0619 1.49007 32.7711 1.45833 32.4272 1.45824C32.381 1.45804 32.3347 1.45784 32.2871 1.45764C32.1327 1.45714 31.9784 1.45761 31.824 1.45808C31.712 1.45792 31.5999 1.45771 31.4879 1.45744C31.1805 1.45687 30.8731 1.45715 30.5657 1.45757C30.234 1.45788 29.9023 1.4574 29.5706 1.45703C28.921 1.45642 28.2713 1.45655 27.6217 1.45695C27.0938 1.45726 26.5658 1.4573 26.0379 1.45715C25.9628 1.45713 25.8877 1.45711 25.8103 1.45709C25.6577 1.45704 25.5051 1.457 25.3525 1.45695C23.9214 1.45656 22.4902 1.45701 21.0591 1.45774C19.8309 1.45835 18.6027 1.45825 17.3746 1.45762C15.9486 1.45689 14.5226 1.4566 13.0966 1.45702C12.9446 1.45706 12.7925 1.45711 12.6405 1.45715C12.5283 1.45718 12.5283 1.45718 12.4138 1.45721C11.8865 1.45733 11.3591 1.45713 10.8318 1.45681C10.1892 1.45643 9.54659 1.45653 8.904 1.45726C8.57609 1.45762 8.24819 1.45776 7.92029 1.45731C7.62015 1.4569 7.32002 1.45712 7.01988 1.45785C6.91128 1.458 6.80267 1.45792 6.69406 1.45759C6.54643 1.45718 6.39882 1.4576 6.25119 1.45824C6.16919 1.45826 6.08719 1.45828 6.00271 1.4583C5.74705 1.47708 5.53267 1.52156 5.29265 1.61177C5.15113 1.92848 5.13917 2.22943 5.13896 2.57298C5.13875 2.61928 5.13853 2.66557 5.13832 2.71327C5.13778 2.8671 5.1382 3.02092 5.13863 3.17475C5.13845 3.28556 5.1382 3.39637 5.13791 3.50719C5.13729 3.80726 5.13753 4.10733 5.13796 4.40741C5.1383 4.72188 5.13798 5.03634 5.13777 5.35081C5.13752 5.87884 5.13785 6.40687 5.1385 6.9349C5.13924 7.54482 5.139 8.15475 5.13825 8.76467C5.13763 9.28893 5.13754 9.81319 5.1379 10.3374C5.13811 10.6503 5.13814 10.9632 5.13769 11.276C5.1373 11.5702 5.13757 11.8644 5.13836 12.1585C5.13854 12.2663 5.13849 12.3741 5.13819 12.4819C5.13781 12.6293 5.13828 12.7768 5.13896 12.9242C5.13901 13.0067 5.13906 13.0891 5.13912 13.174C5.15786 13.4298 5.20354 13.6449 5.29265 13.8855C5.74063 14.1046 6.28542 14.044 6.77412 14.0425C7.28533 14.0528 7.28533 14.0528 7.55455 14.2421C7.68561 14.4407 7.72549 14.5367 7.72182 14.7719C7.72314 14.8563 7.72314 14.8563 7.72448 14.9424C7.65839 15.1912 7.53523 15.2912 7.33826 15.4538C7.11634 15.4979 7.11634 15.4979 6.86655 15.499C6.82173 15.4994 6.77691 15.4997 6.73074 15.5C6.63612 15.5003 6.54149 15.4996 6.44689 15.4982C6.30418 15.4964 6.16184 15.4982 6.01914 15.5004C5.45074 15.5018 5.02302 15.4255 4.54259 15.1128C4.48071 15.0748 4.41883 15.0369 4.35508 14.9978C3.92447 14.5552 3.71429 14.0723 3.71385 13.4625C3.71341 13.3869 3.71341 13.3869 3.71295 13.3099C3.71204 13.1406 3.71161 12.9713 3.7112 12.802C3.71066 12.6808 3.71009 12.5597 3.70951 12.4385C3.70772 12.04 3.70668 11.6414 3.7057 11.2429C3.70534 11.1057 3.70497 10.9684 3.7046 10.8312C3.70313 10.2601 3.70185 9.68904 3.70108 9.11796C3.69998 8.3 3.69772 7.48207 3.69383 6.66412C3.69119 6.08879 3.68986 5.51347 3.6895 4.93814C3.68925 4.59465 3.68843 4.25119 3.68622 3.90772C3.68416 3.58427 3.68374 3.26087 3.68454 2.93742C3.68455 2.81906 3.68399 2.7007 3.68279 2.58235C3.67663 1.94067 3.69288 1.41232 4.06528 0.861714C4.10326 0.799835 4.14123 0.737955 4.18035 0.6742C4.61396 0.252308 5.08894 0.0352435 5.6886 0.0341264ZM14.2934 12.999C14.2775 13.0436 14.2616 13.0881 14.2452 13.1341C14.0936 13.5594 13.9412 13.9846 13.7882 14.4094C13.7096 14.6277 13.6312 14.8461 13.5534 15.0647C12.6878 17.4935 11.6964 19.2301 9.37109 20.4698C9.28098 20.5186 9.19091 20.5675 9.10088 20.6164C8.5191 20.932 8.5191 20.932 8.29288 21.0451C8.29288 24.8929 8.29288 28.7407 8.29288 32.7051C10.2232 33.4772 11.7742 33.6136 13.8155 33.6121C14.0165 33.612 14.2175 33.6124 14.4185 33.6127C14.8926 33.6134 15.3666 33.6135 15.8407 33.6131C16.3277 33.6126 16.8148 33.6135 17.3018 33.6149C17.7229 33.6161 18.144 33.6165 18.5651 33.6163C18.8154 33.6162 19.0656 33.6164 19.3159 33.6173C19.5942 33.6183 19.8725 33.6177 20.1508 33.6169C20.2734 33.6177 20.2734 33.6177 20.3985 33.6185C20.9461 33.6151 21.4289 33.5816 21.8579 33.2165C22.1314 32.885 22.1647 32.697 22.1564 32.2773C22.1161 31.9299 21.9381 31.7508 21.6874 31.5246C21.4668 31.3719 21.2979 31.3329 21.0359 31.3306C20.9797 31.3299 20.9235 31.3292 20.8656 31.3285C20.805 31.328 20.7445 31.3275 20.6822 31.327C20.5539 31.3251 20.4256 31.3231 20.2973 31.3211C20.0951 31.3183 19.893 31.3158 19.6908 31.314C19.4956 31.3121 19.3005 31.309 19.1053 31.3057C19.0451 31.3054 18.9849 31.3052 18.9228 31.305C18.5982 31.2985 18.3741 31.2816 18.1118 31.0686C17.992 30.8671 17.9739 30.7533 17.9882 30.5188C18.0453 30.3126 18.1006 30.1991 18.2482 30.0458C18.4691 29.9722 18.6314 29.9682 18.8638 29.9669C18.9485 29.9662 19.0332 29.9655 19.1204 29.9647C19.1656 29.9645 19.2109 29.9643 19.2575 29.964C19.3994 29.9632 19.5413 29.9619 19.6832 29.9604C20.0866 29.9562 20.4901 29.9525 20.8936 29.9502C21.1405 29.9488 21.3874 29.9464 21.6344 29.9434C21.7282 29.9424 21.8221 29.9418 21.916 29.9416C22.0477 29.9413 22.1793 29.9396 22.311 29.9378C22.3858 29.9373 22.4606 29.9367 22.5376 29.9362C22.8678 29.8943 23.1432 29.7652 23.3495 29.5003C23.5887 29.1721 23.6155 28.8725 23.5668 28.4775C23.3941 28.1385 23.1585 27.8983 22.8167 27.7274C22.6849 27.7203 22.5528 27.7175 22.4208 27.7167C22.3377 27.716 22.2546 27.7153 22.169 27.7146C22.1244 27.7143 22.0799 27.7141 22.034 27.7139C21.8943 27.713 21.7547 27.7117 21.6151 27.7102C21.218 27.706 20.821 27.7024 20.4239 27.7001C20.181 27.6986 19.9381 27.6962 19.6952 27.6932C19.5583 27.6918 19.4213 27.6914 19.2843 27.6911C18.4913 27.6804 18.4913 27.6804 18.1118 27.4547C17.9682 27.2392 17.9744 27.1258 17.9968 26.8666C18.0436 26.6364 18.0436 26.6364 18.1118 26.4319C18.3593 26.3494 18.5865 26.3533 18.8442 26.3529C18.8979 26.3526 18.9516 26.3522 19.0069 26.3519C19.1236 26.3512 19.2402 26.3506 19.3568 26.3501C19.5418 26.3493 19.7267 26.348 19.9116 26.3465C20.4374 26.3423 20.9631 26.3386 21.4889 26.3363C21.8106 26.3349 22.1323 26.3325 22.4539 26.3295C22.5762 26.3285 22.6985 26.3279 22.8208 26.3277C22.9925 26.3273 23.1641 26.3258 23.3358 26.3239C23.3858 26.3241 23.4358 26.3243 23.4873 26.3245C23.9385 26.3173 24.3119 26.2199 24.6493 25.912C24.849 25.5948 24.9668 25.2983 24.9071 24.9195C24.7951 24.5661 24.6203 24.3881 24.3169 24.1817C24.0242 24.0327 23.7512 24.0261 23.4294 24.0279C23.3753 24.0277 23.3213 24.0274 23.2656 24.0272C23.1487 24.0267 23.0317 24.0265 22.9148 24.0266C22.7296 24.0267 22.5445 24.0258 22.3593 24.0246C21.833 24.0215 21.3068 24.0198 20.7804 24.0194C20.4582 24.019 20.1359 24.0174 19.8137 24.0149C19.691 24.0142 19.5684 24.0141 19.4457 24.0144C19.2741 24.0149 19.1027 24.0137 18.9311 24.0122C18.8806 24.0128 18.8301 24.0133 18.778 24.0139C18.5341 24.01 18.3934 23.9826 18.1842 23.853C17.989 23.6466 17.9755 23.5084 17.9755 23.2271C18.0569 22.9873 18.1043 22.8568 18.333 22.7395C18.541 22.6754 18.7112 22.664 18.9287 22.6631C19.0093 22.6624 19.0899 22.6617 19.1729 22.661C19.2593 22.6608 19.3458 22.6607 19.4348 22.6605C19.5713 22.6593 19.7079 22.658 19.8444 22.6566C20.1803 22.6536 20.5162 22.6519 20.8521 22.6505C21.0408 22.6496 21.2295 22.6482 21.4183 22.6462C21.5958 22.6444 21.7733 22.6435 21.9508 22.6435C22.0316 22.6426 22.1124 22.6417 22.1956 22.6407C22.3017 22.6402 22.3017 22.6402 22.41 22.6397C22.7358 22.5973 23.0097 22.4655 23.2131 22.2043C23.438 21.8959 23.4688 21.623 23.4304 21.2497C23.3037 20.8906 23.1165 20.7182 22.8167 20.4996C22.6301 20.4374 22.5205 20.4227 22.3284 20.422C22.2707 20.4216 22.2129 20.4213 22.1535 20.4209C22.0588 20.4208 22.0588 20.4208 21.9622 20.4207C21.8955 20.4203 21.8289 20.42 21.7602 20.4196C21.6153 20.4189 21.4704 20.4183 21.3255 20.4178C21.0963 20.417 20.867 20.4157 20.6378 20.4142C19.9859 20.41 19.334 20.4063 18.6822 20.404C18.2836 20.4026 17.885 20.4002 17.4864 20.3972C17.3344 20.3962 17.1825 20.3956 17.0305 20.3954C16.818 20.3951 16.6055 20.3935 16.3929 20.3916C16.2987 20.3919 16.2987 20.3919 16.2025 20.3922C15.8744 20.388 15.6497 20.3737 15.3843 20.1587C15.2668 19.9901 15.2405 19.8769 15.2663 19.673C15.3512 19.2548 15.4658 18.8559 15.6041 18.4524C15.6249 18.3904 15.6458 18.3285 15.6672 18.2647C15.7331 18.0691 15.7995 17.8737 15.8659 17.6784C15.9325 17.4815 15.999 17.2846 16.0653 17.0877C16.1065 16.9658 16.1478 16.8439 16.1892 16.7221C16.2079 16.6669 16.2265 16.6118 16.2458 16.555C16.2622 16.5068 16.2785 16.4586 16.2954 16.4089C16.496 15.7778 16.5061 15.0494 16.2204 14.4451C15.7856 13.6845 15.2581 13.2831 14.4297 12.999C14.3847 12.999 14.3397 12.999 14.2934 12.999ZM1.47417 20.7042C1.38558 20.9528 1.39721 21.2014 1.39687 21.463C1.39671 21.512 1.39656 21.561 1.3964 21.6115C1.39597 21.7757 1.39602 21.9399 1.39608 22.1041C1.39588 22.2218 1.39565 22.3396 1.39539 22.4573C1.39478 22.7771 1.39462 23.0969 1.39458 23.4167C1.39452 23.6836 1.39427 23.9505 1.39402 24.2174C1.39347 24.8469 1.3933 25.4765 1.39335 26.1061C1.39339 26.7558 1.39267 27.4055 1.3916 28.0552C1.3907 28.6129 1.39034 29.1705 1.39038 29.7282C1.3904 30.0613 1.3902 30.3945 1.38948 30.7276C1.38882 31.0409 1.38882 31.3541 1.38931 31.6674C1.38939 31.7823 1.38922 31.8973 1.38881 32.0123C1.38829 32.1692 1.3886 32.3261 1.38913 32.4831C1.38909 32.5709 1.38905 32.6587 1.38902 32.7492C1.40936 33.0232 1.46602 33.2216 1.63612 33.4381C1.8739 33.621 2.15003 33.6004 2.43956 33.6014C2.52445 33.6019 2.60933 33.6023 2.69679 33.6028C2.7892 33.6029 2.88161 33.6029 2.97402 33.603C3.06913 33.6032 3.16424 33.6034 3.25934 33.6037C3.45852 33.6041 3.6577 33.6042 3.85688 33.6042C4.11168 33.6042 4.36648 33.6051 4.62128 33.6063C4.81766 33.607 5.01403 33.6072 5.21041 33.6071C5.30434 33.6072 5.39826 33.6075 5.49219 33.608C5.6237 33.6087 5.75522 33.6084 5.88674 33.6081C5.96148 33.6082 6.03621 33.6083 6.11321 33.6084C6.37323 33.5867 6.57008 33.523 6.77572 33.3614C6.97163 33.1067 6.93786 32.8006 6.93826 32.4917C6.93841 32.4427 6.93857 32.3937 6.93873 32.3433C6.93916 32.1791 6.9391 32.0148 6.93905 31.8506C6.93925 31.7329 6.93948 31.6152 6.93974 31.4975C6.94034 31.1777 6.9405 30.8579 6.94055 30.5381C6.94061 30.2712 6.94086 30.0043 6.9411 29.7374C6.94166 29.1078 6.94183 28.4782 6.94178 27.8486C6.94174 27.1989 6.94246 26.5492 6.94353 25.8995C6.94442 25.3419 6.94479 24.7842 6.94475 24.2265C6.94473 23.8934 6.94492 23.5603 6.94565 23.2271C6.9463 22.9139 6.94631 22.6007 6.94581 22.2874C6.94574 22.1724 6.9459 22.0574 6.94632 21.9425C6.94684 21.7855 6.94653 21.6286 6.946 21.4717C6.94604 21.3838 6.94607 21.296 6.94611 21.2055C6.92434 20.9123 6.88073 20.725 6.67191 20.5136C6.48079 20.4102 6.3521 20.408 6.1354 20.4114C6.06245 20.4121 5.98949 20.4128 5.91433 20.4134C5.83856 20.4152 5.76279 20.4169 5.68473 20.4186C5.6079 20.4196 5.53108 20.4205 5.45193 20.4214C5.26243 20.4238 5.073 20.4272 4.88353 20.4314C4.88337 20.475 4.8832 20.5186 4.88304 20.5636C4.879 21.625 4.87385 22.6863 4.86746 23.7477C4.86439 24.261 4.8617 24.7742 4.85991 25.2875C4.85834 25.7349 4.85606 26.1823 4.85293 26.6297C4.8513 26.8665 4.85002 27.1034 4.8496 27.3403C4.84911 27.6047 4.84703 27.8692 4.84482 28.1337C4.84492 28.2122 4.84502 28.2906 4.84512 28.3715C4.84427 28.4437 4.84341 28.5159 4.84253 28.5902C4.84206 28.684 4.84206 28.684 4.84158 28.7797C4.80321 29.0357 4.6967 29.2257 4.49571 29.3895C4.25362 29.4549 4.03369 29.427 3.79253 29.3639C3.61227 29.236 3.59122 29.1691 3.51979 28.9548C3.51286 28.8389 3.50981 28.7227 3.509 28.6066C3.50833 28.5346 3.50766 28.4626 3.50698 28.3884C3.50639 28.27 3.50639 28.27 3.50579 28.1492C3.50511 28.066 3.50444 27.9828 3.50374 27.8972C3.50195 27.6691 3.50046 27.441 3.4991 27.2129C3.49761 26.9746 3.49575 26.7363 3.49392 26.4979C3.49051 26.0466 3.48745 25.5952 3.48451 25.1439C3.48114 24.6301 3.47739 24.1162 3.47362 23.6024C3.46586 22.5454 3.45857 21.4884 3.4516 20.4314C3.18597 20.4235 2.92037 20.4186 2.65466 20.4144C2.57947 20.4121 2.50427 20.4098 2.4268 20.4074C1.88693 20.3887 1.88693 20.3887 1.47417 20.7042Z" fill="black"/>
<path d="M20.2296 4.16612C20.4633 4.36781 20.5255 4.52894 20.6359 4.81013C20.8477 5.35178 20.8477 5.35178 21.2754 5.71624C21.5844 5.8048 21.8886 5.83589 22.2081 5.86014C22.5694 5.89196 22.7496 6.01135 23.0213 6.24849C23.2298 6.5377 23.2706 6.8143 23.2575 7.16369C23.1683 7.65857 22.8236 7.95248 22.446 8.25149C22.1972 8.45955 22.1972 8.45955 22.104 8.75783C22.1217 8.95102 22.1549 9.12912 22.203 9.31691C22.2914 9.81783 22.3652 10.2377 22.0667 10.6807C21.8547 10.9146 21.6661 11.0652 21.3635 11.1622C20.7874 11.1525 20.3357 10.9191 19.8535 10.6199C19.6379 10.5259 19.5603 10.5369 19.3392 10.6125C19.139 10.709 18.944 10.8108 18.7492 10.9174C18.4177 11.0916 18.1141 11.187 17.7384 11.1343C17.3602 11.0084 17.1777 10.8749 16.9526 10.5443C16.8563 10.3515 16.8728 10.1884 16.8717 9.97321C16.8708 9.88681 16.8699 9.8004 16.869 9.71138C16.8839 9.46305 16.9383 9.28224 17.0166 9.04842C17.071 8.84787 17.071 8.84787 17.0208 8.63504C16.8039 8.3289 16.5203 8.08678 16.2399 7.8405C15.9649 7.59513 15.8744 7.4096 15.8403 7.04116C15.8741 6.64906 15.9789 6.40401 16.258 6.1249C16.644 5.85996 17.0351 5.80965 17.4896 5.76266C17.543 5.75677 17.5965 5.75088 17.6516 5.74481C17.7822 5.73047 17.9129 5.71668 18.0436 5.70299C18.0614 5.6448 18.0791 5.58662 18.0974 5.52666C18.1833 5.28445 18.2887 5.06852 18.4101 4.84213C18.45 4.76671 18.4899 4.6913 18.5311 4.6136C18.6904 4.35343 18.8355 4.18198 19.1091 4.04519C19.5088 3.96376 19.8601 3.98964 20.2296 4.16612ZM19.4756 5.90755C19.4508 5.96346 19.426 6.01936 19.4004 6.07696C19.0447 6.83942 19.0447 6.83942 18.6573 6.99855C18.341 7.07886 18.0238 7.14505 17.7027 7.20311C17.7291 7.23282 17.7554 7.26253 17.7826 7.29314C18.2183 7.79136 18.4841 8.15876 18.4528 8.8396C18.4347 9.0225 18.4106 9.20308 18.3846 9.3851C18.6059 9.3149 18.8106 9.2404 19.0196 9.13792C19.394 8.99831 19.6954 8.96607 20.0706 9.12087C20.1903 9.18157 20.3087 9.24466 20.4256 9.31052C20.5601 9.39573 20.5601 9.39573 20.7029 9.3851C20.6956 9.3168 20.6883 9.2485 20.6808 9.17814C20.5869 8.1945 20.5869 8.1945 20.957 7.74062C21.0406 7.64402 21.1257 7.5488 21.2127 7.45535C21.322 7.34376 21.322 7.34376 21.3848 7.20311C21.3108 7.18896 21.2368 7.17481 21.1605 7.16023C20.2084 6.96199 20.2084 6.96199 19.9555 6.58596C19.9321 6.5421 19.9088 6.49824 19.8847 6.45305C19.8433 6.37777 19.8433 6.37777 19.801 6.30096C19.7339 6.17189 19.6723 6.03993 19.6119 5.90755C19.5669 5.90755 19.5219 5.90755 19.4756 5.90755Z" fill="black"/>
<path d="M11.4846 4.15177C11.8049 4.40801 11.9852 4.73865 12.1622 5.10212C12.1837 5.14497 12.2053 5.18782 12.2275 5.23197C12.3838 5.5484 12.3838 5.5484 12.3838 5.70302C12.4612 5.71049 12.5385 5.71797 12.6182 5.72566C12.7219 5.73655 12.8256 5.74747 12.9293 5.75842C12.98 5.76322 13.0308 5.76801 13.083 5.77294C13.6177 5.83106 14.0768 5.94929 14.4294 6.38489C14.5857 6.66013 14.618 6.96073 14.5658 7.27133C14.4431 7.59271 14.2784 7.76865 14.0245 7.98652C13.6252 8.3266 13.6252 8.3266 13.4295 8.79515C13.4495 9.02203 13.4896 9.23203 13.543 9.45331C13.6631 10.2669 13.6631 10.2669 13.4066 10.6807C13.1246 10.9758 12.8557 11.1257 12.452 11.158C11.985 11.1026 11.6339 10.8784 11.2348 10.6373C10.9788 10.5264 10.8752 10.5309 10.611 10.6125C10.4635 10.6871 10.3186 10.7671 10.1763 10.8511C9.77951 11.07 9.49876 11.2177 9.03919 11.1319C8.66924 11.0218 8.40969 10.8159 8.22441 10.4761C8.09592 10.0367 8.17047 9.61151 8.26037 9.17098C8.33328 8.7841 8.33328 8.7841 8.20017 8.43211C8.15895 8.39501 8.11772 8.35792 8.07525 8.3197C8.03165 8.27945 7.98805 8.23919 7.94314 8.19771C7.84243 8.11253 7.73784 8.03194 7.63203 7.9532C7.37557 7.7314 7.23117 7.50733 7.17283 7.17624C7.15198 6.79919 7.22578 6.54403 7.428 6.22748C7.73429 5.91906 8.12873 5.85781 8.53977 5.79252C8.61651 5.77927 8.61651 5.77927 8.69479 5.76575C8.92867 5.72656 9.14582 5.70302 9.38359 5.70302C9.40231 5.64396 9.42103 5.58489 9.44032 5.52403C9.63514 4.96107 9.86881 4.37705 10.4064 4.06653C10.7631 3.94477 11.1454 4.00103 11.4846 4.15177ZM10.8155 5.90758C10.747 6.02956 10.6789 6.15177 10.611 6.27409C10.573 6.34212 10.535 6.41015 10.4959 6.48025C10.3962 6.64482 10.3962 6.64482 10.4064 6.79402C9.97548 7.02605 9.51917 7.11462 9.04265 7.20314C9.06902 7.23285 9.09539 7.26256 9.12256 7.29317C9.59578 7.83433 9.8287 8.21774 9.78099 8.95177C9.76548 9.09661 9.74545 9.24096 9.72452 9.38513C9.94679 9.31465 10.1533 9.23929 10.3638 9.13795C10.7326 8.99805 10.9899 8.97921 11.353 9.1209C11.4858 9.18192 11.6177 9.24505 11.7483 9.31055C11.8979 9.39482 11.8979 9.39482 12.0429 9.38513C12.0348 9.3127 12.0267 9.24027 12.0184 9.16565C11.9264 8.22116 11.9264 8.22116 12.1526 7.86344C12.3288 7.65014 12.5191 7.45618 12.7248 7.27133C12.4708 7.10204 12.2582 7.08585 11.9603 7.04359C11.6332 6.96615 11.4751 6.86536 11.2915 6.58013C11.2512 6.50023 11.2108 6.42033 11.1692 6.33802C11.148 6.29666 11.1268 6.2553 11.1049 6.21269C11.0531 6.11141 11.0024 6.00955 10.9519 5.90758C10.9069 5.90758 10.8619 5.90758 10.8155 5.90758Z" fill="black"/>
<path d="M28.8895 4.16614C29.1228 4.36783 29.1851 4.52917 29.2955 4.81017C29.5079 5.35225 29.5079 5.35225 29.9361 5.71736C30.2464 5.80787 30.553 5.84134 30.8743 5.86682C31.2747 5.8998 31.5037 6.06276 31.7746 6.35505C31.9289 6.68133 31.9509 6.98474 31.8854 7.3395C31.731 7.67101 31.571 7.86838 31.2907 8.09774C31.0985 8.25821 30.9221 8.41754 30.7944 8.63506C30.7624 8.99668 30.8423 9.30858 30.9308 9.65787C30.984 10.1016 30.9258 10.4507 30.6581 10.817C30.3762 11.0613 30.1442 11.1518 29.7716 11.158C29.3015 11.0743 28.9158 10.8698 28.5131 10.6199C28.2975 10.5259 28.2199 10.5369 27.9988 10.6125C27.7986 10.709 27.6036 10.8108 27.4088 10.9175C27.0773 11.0916 26.7737 11.187 26.398 11.1343C26.0201 11.0085 25.8343 10.8774 25.6122 10.5443C25.5464 10.3468 25.5328 10.2173 25.5312 10.0116C25.5305 9.94478 25.5297 9.87798 25.5289 9.80916C25.544 9.58968 25.544 9.58968 25.6082 9.36168C25.6799 9.09521 25.7162 8.91007 25.6804 8.63506C25.5204 8.39325 25.3111 8.2051 25.0903 8.01929C24.7674 7.74716 24.6324 7.54619 24.5212 7.13494C24.5041 6.75246 24.6166 6.47233 24.8622 6.18032C25.2183 5.88233 25.5593 5.84048 26.0128 5.78825C26.0793 5.77972 26.1457 5.77119 26.2142 5.76241C26.3771 5.74165 26.5401 5.72188 26.7032 5.70301C26.7211 5.64482 26.7389 5.58664 26.7573 5.52669C26.8426 5.28537 26.946 5.0684 27.0655 4.84215C27.1241 4.72903 27.1241 4.72903 27.184 4.61362C27.5895 3.98469 28.2294 3.85126 28.8895 4.16614ZM28.2033 5.83939C28.1736 5.90021 28.1439 5.96104 28.1133 6.02371C28.0727 6.10352 28.0321 6.18333 27.9902 6.26556C27.9507 6.34466 27.9111 6.42377 27.8704 6.50528C27.6562 6.83251 27.4415 6.96282 27.0681 7.06995C26.9843 7.08577 26.9004 7.10159 26.814 7.1179C26.7291 7.13442 26.6442 7.15094 26.5567 7.16797C26.4926 7.17957 26.4284 7.19118 26.3623 7.20313C26.4018 7.24888 26.4018 7.24888 26.4422 7.29555C26.9238 7.85466 27.1411 8.15781 27.1123 8.90781C27.0953 9.09113 27.0711 9.27107 27.0442 9.4533C27.101 9.42377 27.1579 9.39424 27.2165 9.36381C28.0891 8.932 28.0891 8.932 28.5443 9.04418C28.7319 9.12307 28.9079 9.21065 29.0852 9.31054C29.2197 9.39575 29.2197 9.39575 29.3625 9.38512C29.3593 9.30205 29.3562 9.21899 29.3529 9.13341C29.3504 9.0227 29.3479 8.91198 29.3455 8.80126C29.3432 8.74672 29.3409 8.69218 29.3385 8.63599C29.3309 8.17063 29.4365 7.88692 29.7663 7.54433C29.828 7.49568 29.828 7.49568 29.891 7.44605C29.9328 7.41238 29.9746 7.37872 30.0177 7.34403C30.049 7.32004 30.0803 7.29604 30.1126 7.27132C29.8588 7.12979 29.6221 7.09218 29.3375 7.05024C28.999 6.95283 28.7969 6.79928 28.6045 6.50528C28.5649 6.42617 28.5254 6.34706 28.4846 6.26556C28.444 6.18575 28.4034 6.10593 28.3615 6.02371C28.3318 5.96288 28.3021 5.90206 28.2715 5.83939C28.249 5.83939 28.2265 5.83939 28.2033 5.83939Z" fill="black"/>
<path d="M4.55965 30.5657C4.74513 30.7114 4.80545 30.8466 4.88354 31.0686C4.89689 31.3357 4.8553 31.5518 4.70881 31.7803C4.47732 31.9287 4.27101 31.9687 3.99711 31.955C3.78023 31.8683 3.67943 31.7776 3.52832 31.6013C3.4234 31.339 3.43558 31.1324 3.5198 30.864C3.80453 30.5058 4.11534 30.4423 4.55965 30.5657Z" fill="black"/>
<path d="M10.2022 14.09C10.3901 14.2388 10.5046 14.354 10.6113 14.5673C10.6521 14.9266 10.5604 15.105 10.3385 15.3856C10.1018 15.504 9.84678 15.4948 9.58849 15.4538C9.40058 15.305 9.28602 15.1898 9.17936 14.9765C9.13854 14.6172 9.23023 14.4388 9.45211 14.1582C9.6889 14.0398 9.94387 14.049 10.2022 14.09Z" fill="black"/>
</svg>
