<svg width="38" height="30" viewBox="0 0 38 30" fill="none" xmlns="http://www.w3.org/2000/svg">
<path d="M30.4456 0.277956C30.5186 0.306832 30.5916 0.335707 30.6668 0.365457C30.9058 0.460396 31.1439 0.557353 31.3821 0.654463C31.5489 0.721458 31.7157 0.788362 31.8826 0.855179C32.2311 0.995106 32.5793 1.13602 32.9271 1.27767C33.3727 1.45906 33.8193 1.63809 34.2661 1.81641C34.6103 1.95404 34.9541 2.09283 35.2977 2.23198C35.4622 2.29845 35.6268 2.36458 35.7916 2.43036C36.0216 2.52241 36.251 2.61598 36.4802 2.70998C36.5481 2.73682 36.6161 2.76366 36.6861 2.79131C37.0585 2.94617 37.3312 3.07051 37.5228 3.44355C37.568 3.72272 37.5667 3.99693 37.5639 4.27924C37.5646 4.40528 37.5646 4.40528 37.5652 4.53387C37.5663 4.81192 37.5649 5.08989 37.5634 5.36794C37.5635 5.56218 37.5636 5.75641 37.5638 5.95065C37.5639 6.35846 37.5629 6.76625 37.561 7.17405C37.5587 7.69324 37.5589 8.21238 37.56 8.73157C37.5605 9.13332 37.5599 9.53506 37.5589 9.9368C37.5585 10.128 37.5585 10.3191 37.5588 10.5103C37.5612 13.206 36.9561 15.3751 35.1184 17.39C34.986 17.5191 34.986 17.5191 34.7762 17.6315C34.4566 17.976 34.522 18.3427 34.528 18.7959C34.5275 18.9415 34.5275 18.9415 34.527 19.09C34.5265 19.356 34.5277 19.6219 34.5296 19.8879C34.531 20.1668 34.53 20.4458 34.5291 20.7247C34.5274 21.3741 34.5286 22.0235 34.5303 22.6728C34.5324 23.4979 34.5334 24.323 34.5311 25.1481C34.5305 25.4254 34.5305 25.7027 34.5322 25.9801C34.534 26.29 34.5337 26.5998 34.5331 26.9097C34.5342 27.0006 34.5353 27.0916 34.5363 27.1853C34.5311 28.0087 34.2623 28.7114 33.6766 29.3033C33.1076 29.7212 32.5527 29.9781 31.839 29.979C31.7337 29.9795 31.6284 29.98 31.5199 29.9806C31.4036 29.9803 31.2873 29.9801 31.171 29.9798C31.047 29.9801 30.923 29.9805 30.799 29.9809C30.4585 29.9819 30.118 29.9819 29.7775 29.9817C29.4101 29.9817 29.0428 29.9826 28.6754 29.9834C27.9558 29.9847 27.2361 29.9852 26.5164 29.9853C25.9314 29.9854 25.3463 29.9857 24.7612 29.9862C23.1022 29.9877 21.4432 29.9884 19.7841 29.9883C19.6947 29.9883 19.6053 29.9883 19.5131 29.9883C19.4236 29.9883 19.334 29.9882 19.2418 29.9882C17.7908 29.9882 16.3399 29.9897 14.889 29.992C13.399 29.9944 11.9089 29.9955 10.4188 29.9954C9.58241 29.9953 8.74597 29.9958 7.90953 29.9975C7.19727 29.999 6.48503 29.9994 5.77277 29.9983C5.40952 29.9977 5.04628 29.9977 4.68303 29.9992C4.3501 30.0004 4.01721 30.0002 3.68428 29.9988C3.56423 29.9985 3.44417 29.9988 3.32412 29.9997C2.27021 30.0072 1.48386 29.8429 0.711057 29.0996C0.286347 28.6076 0.0331587 28.0336 0.0316519 27.3822C0.0312871 27.3088 0.0309215 27.2355 0.0305456 27.1599C0.0305607 27.0796 0.0305775 26.9994 0.030593 26.9167C0.0302922 26.8311 0.029989 26.7456 0.029679 26.6575C0.0287754 26.37 0.0284622 26.0824 0.0281506 25.7949C0.027638 25.5891 0.0270928 25.3833 0.0265198 25.1775C0.0249461 24.5593 0.0240788 23.941 0.0233506 23.3227C0.0229917 23.0314 0.0225529 22.74 0.0221244 22.4486C0.0207323 21.4796 0.019548 20.5107 0.0189552 19.5417C0.0187989 19.2903 0.0186407 19.0389 0.0184807 18.7875C0.0184411 18.7251 0.0184016 18.6626 0.0183608 18.5982C0.017682 17.5868 0.0156103 16.5753 0.0129515 15.5639C0.0102421 14.5248 0.00876984 13.4856 0.00850861 12.4465C0.0083317 11.8633 0.00761913 11.2802 0.00552423 10.697C0.00355708 10.1482 0.00327269 9.59938 0.0041132 9.05054C0.00415373 8.84941 0.00363636 8.64828 0.00251238 8.44715C0.00106048 8.17188 0.00164489 7.89668 0.00271966 7.62141C0.001822 7.54243 0.000924865 7.46344 0 7.38206C0.00781374 6.54917 0.27058 5.76436 0.860981 5.16207C1.80856 4.33318 3.0025 4.38965 4.18693 4.3938C4.34766 4.39346 4.50838 4.39303 4.66911 4.39249C5.10293 4.39138 5.53674 4.39181 5.97056 4.39259C6.42536 4.39321 6.88017 4.39263 7.33498 4.39225C8.09793 4.3918 8.86086 4.39239 9.62381 4.39356C10.5058 4.3949 11.3878 4.39446 12.2699 4.39311C13.0281 4.392 13.7864 4.39184 14.5446 4.39248C14.9971 4.39286 15.4496 4.39291 15.9021 4.3921C16.3269 4.39139 16.7518 4.39188 17.1766 4.3933C17.3326 4.39363 17.4885 4.39354 17.6445 4.39299C17.8571 4.39232 18.0698 4.39316 18.2825 4.39439C18.3443 4.39384 18.4061 4.39329 18.4698 4.39273C18.8345 4.39681 19.0647 4.44818 19.3556 4.67107C19.5656 4.92305 19.6018 5.04078 19.596 5.37178C19.5127 5.67692 19.4402 5.79053 19.1919 5.98042C18.8887 6.0815 18.6084 6.07371 18.2926 6.073C18.2253 6.07317 18.1579 6.07335 18.0885 6.07352C17.8619 6.07402 17.6354 6.07393 17.4089 6.07386C17.2468 6.07411 17.0847 6.0744 16.9226 6.07472C16.5731 6.07537 16.2236 6.07579 15.8741 6.07606C15.3215 6.07654 14.7689 6.07789 14.2164 6.07944C14.0273 6.07996 13.8382 6.08048 13.6491 6.08099C13.5544 6.08125 13.4597 6.08151 13.3621 6.08178C12.0754 6.08522 10.7887 6.08792 9.50201 6.08893C8.63444 6.08961 7.76688 6.09145 6.89932 6.0946C6.44009 6.09622 5.98088 6.09723 5.52164 6.09683C5.08967 6.09645 4.65773 6.09757 4.22576 6.09985C4.06721 6.10042 3.90867 6.10043 3.75012 6.09984C3.53364 6.09911 3.31727 6.10039 3.1008 6.10217C3.03807 6.10148 2.97535 6.10079 2.91073 6.10008C2.48825 6.10649 2.23909 6.1877 1.92483 6.47143C1.62626 6.96097 1.63528 7.4588 1.62306 8.02117C1.61887 8.15195 1.61887 8.15195 1.61459 8.28537C1.60789 8.49906 1.60221 8.71272 1.59749 8.92646C1.68687 8.92609 1.77625 8.92571 1.86834 8.92532C4.04226 8.91624 6.21618 8.90951 8.39012 8.90526C9.44141 8.90315 10.4927 8.90027 11.544 8.89559C12.4602 8.89152 13.3764 8.88888 14.2926 8.88796C14.7778 8.88743 15.263 8.88617 15.7482 8.8832C16.2048 8.88043 16.6614 8.87957 17.118 8.88018C17.2857 8.88007 17.4534 8.87925 17.621 8.87769C17.8499 8.87565 18.0786 8.87614 18.3075 8.87726C18.3739 8.87607 18.4402 8.87487 18.5086 8.87365C18.8386 8.878 19.0494 8.9095 19.3134 9.11622C19.5689 9.38851 19.6077 9.53763 19.6011 9.90848C19.4711 10.2009 19.3788 10.3022 19.1101 10.4813C18.8759 10.4968 18.6498 10.5027 18.4157 10.501C18.344 10.5011 18.2723 10.5013 18.1984 10.5014C17.9571 10.5017 17.7159 10.5008 17.4746 10.4999C17.302 10.4999 17.1295 10.4999 16.9569 10.5C16.4876 10.5 16.0182 10.4991 15.5489 10.4979C15.0587 10.4969 14.5685 10.4968 14.0784 10.4966C13.1498 10.4961 12.2212 10.4947 11.2926 10.4931C10.2356 10.4913 9.17858 10.4904 8.12158 10.4896C5.94688 10.4878 3.77219 10.485 1.59749 10.4813C1.60244 12.6815 1.60878 14.8817 1.61678 17.0819C1.62046 18.1034 1.62369 19.125 1.62584 20.1466C1.62772 21.0369 1.63045 21.9272 1.63421 22.8175C1.63617 23.289 1.6377 23.7605 1.63821 24.232C1.63871 24.6757 1.64034 25.1194 1.64285 25.5631C1.64357 25.726 1.64387 25.8889 1.64373 26.0518C1.64359 26.2742 1.64496 26.4965 1.6467 26.7189C1.6463 26.7834 1.6459 26.8479 1.64549 26.9143C1.6506 27.3099 1.72994 27.5701 1.92483 27.9121C1.92483 27.9661 1.92483 28.0201 1.92483 28.0757C1.98897 28.1011 2.0531 28.1264 2.11919 28.1525C2.334 28.2394 2.334 28.2394 2.49767 28.3212C2.65756 28.3292 2.81773 28.3318 2.97781 28.332C3.13221 28.3325 3.13221 28.3325 3.28972 28.333C3.40501 28.3329 3.5203 28.3328 3.63559 28.3327C3.75723 28.3329 3.87888 28.3332 4.00053 28.3335C4.33604 28.3341 4.67155 28.3343 5.00706 28.3343C5.36844 28.3345 5.72981 28.3351 6.09119 28.3357C6.88197 28.3368 7.67276 28.3373 8.46354 28.3376C8.95706 28.3379 9.45058 28.3382 9.94411 28.3386C11.3098 28.3396 12.6755 28.3404 14.0412 28.3407C14.1286 28.3407 14.2161 28.3407 14.3062 28.3407C14.4377 28.3408 14.4377 28.3408 14.5719 28.3408C14.7495 28.3408 14.9272 28.3409 15.1049 28.3409C15.193 28.3409 15.2811 28.3409 15.3719 28.341C16.8001 28.3413 18.2283 28.3427 19.6565 28.3446C21.1218 28.3466 22.5872 28.3476 24.0525 28.3477C24.8757 28.3477 25.6988 28.3482 26.5219 28.3497C27.2228 28.351 27.9237 28.3514 28.6246 28.3507C28.9823 28.3504 29.34 28.3505 29.6978 28.3516C30.0252 28.3526 30.3526 28.3526 30.68 28.3516C30.7985 28.3514 30.917 28.3517 31.0355 28.3524C31.1965 28.3533 31.3576 28.3525 31.5186 28.3517C31.6528 28.3518 31.6528 28.3518 31.7897 28.3518C32.1535 28.3074 32.432 28.1849 32.6793 27.9121C32.8322 27.6546 32.8687 27.4435 32.8712 27.1503C32.8724 27.0423 32.8724 27.0424 32.8736 26.9322C32.8741 26.8535 32.8746 26.7748 32.8751 26.6938C32.8759 26.6107 32.8767 26.5277 32.8775 26.4421C32.8801 26.1671 32.8821 25.8922 32.8842 25.6172C32.8859 25.4267 32.8876 25.2363 32.8893 25.0458C32.8938 24.5441 32.8979 24.0424 32.9018 23.5408C32.9059 23.029 32.9105 22.5172 32.915 22.0054C32.9238 21.001 32.9321 19.9966 32.9401 18.9921C32.6185 19.1795 32.297 19.3672 31.9756 19.555C31.8667 19.6186 31.7578 19.6822 31.6488 19.7457C31.4904 19.838 31.3321 19.9304 31.174 20.023C31.1221 20.0534 31.0702 20.0837 31.0168 20.1149C30.6222 20.3471 30.2383 20.5931 29.8587 20.8492C29.5142 21.0411 29.2254 21.0584 28.8484 20.9561C28.4614 20.7771 28.11 20.554 27.7538 20.3219C27.6526 20.2578 27.5512 20.1939 27.4497 20.1301C27.2468 20.0025 27.0444 19.8741 26.8423 19.7451C26.5183 19.5393 26.1887 19.3436 25.8579 19.1491C23.5781 17.8086 21.9964 16.1959 21.2205 13.6252C21.0521 12.8958 20.9678 12.1877 20.9685 11.4397C20.9679 11.3532 20.9674 11.2667 20.9668 11.1776C20.9653 10.8953 20.965 10.613 20.9648 10.3308C20.9643 10.1332 20.9637 9.93555 20.9631 9.73794C20.9622 9.32559 20.9618 8.91324 20.9619 8.50089C20.962 7.97235 20.9597 7.44386 20.9569 6.91533C20.9551 6.50808 20.9548 6.10084 20.9548 5.69359C20.9546 5.49864 20.9539 5.30368 20.9527 5.10874C20.9511 4.83688 20.9515 4.5651 20.9525 4.29324C20.9516 4.21285 20.9507 4.13245 20.9497 4.04962C20.9528 3.72275 20.9634 3.49991 21.1137 3.20613C21.3975 2.96941 21.6931 2.84503 22.0349 2.70998C22.1071 2.68038 22.1792 2.65079 22.2536 2.6203C22.4918 2.52301 22.7307 2.42748 22.9697 2.33207C23.1361 2.26483 23.3025 2.19753 23.4688 2.13017C23.8176 1.98927 24.1667 1.84927 24.516 1.70986C24.9625 1.53158 25.408 1.35097 25.8532 1.16966C26.1967 1.03013 26.5407 0.891945 26.8849 0.754143C27.0493 0.688112 27.2135 0.62165 27.3776 0.554744C27.6077 0.461102 27.8385 0.369317 28.0696 0.277956C28.17 0.236451 28.17 0.236451 28.2724 0.194108C29.0544 -0.109964 29.682 -0.037637 30.4456 0.277956ZM28.4558 1.88358C28.3599 1.92189 28.3599 1.92189 28.2621 1.96098C28.0511 2.04546 27.8405 2.13074 27.6298 2.21603C27.4835 2.27479 27.3372 2.3335 27.1909 2.39217C26.8059 2.54665 26.4212 2.70182 26.0366 2.85712C25.644 3.0155 25.2511 3.17324 24.8583 3.33103C24.0877 3.64069 23.3173 3.95107 22.5471 4.26189C22.5414 5.24084 22.5371 6.21977 22.5344 7.19873C22.5331 7.65343 22.5314 8.10812 22.5286 8.56282C22.5259 9.0027 22.5245 9.44257 22.5238 9.88245C22.5234 10.0492 22.5225 10.2159 22.5212 10.3826C22.5037 12.6572 22.9302 14.4893 24.5 16.2081C25.2042 16.9093 26.0263 17.3982 26.8792 17.8925C27.0509 17.9926 27.2224 18.0929 27.3938 18.1934C27.5048 18.2584 27.616 18.3232 27.7273 18.3878C28.1316 18.6237 28.5204 18.8778 28.9032 19.1474C29.1503 19.2643 29.2463 19.2443 29.5031 19.1558C29.6762 19.0681 29.846 18.9737 30.0132 18.8751C30.0616 18.8468 30.11 18.8185 30.1598 18.7893C30.3163 18.6973 30.4723 18.6044 30.6283 18.5113C30.7361 18.4474 30.8439 18.3834 30.9518 18.3195C31.2607 18.1358 31.5686 17.9505 31.8763 17.7646C31.9526 17.7186 32.0289 17.6726 32.1076 17.6252C33.9553 16.5025 35.2849 15.0449 35.8267 12.9012C35.9448 12.3207 35.9798 11.7641 35.9773 11.1739C35.9773 11.0612 35.9773 11.0612 35.9773 10.9462C35.9773 10.7 35.9766 10.4539 35.976 10.2077C35.9758 10.0362 35.9757 9.86462 35.9756 9.69309C35.9753 9.24321 35.9745 8.79334 35.9736 8.34346C35.9728 7.88376 35.9724 7.42406 35.972 6.96435C35.9711 6.06353 35.9697 5.16271 35.968 4.26189C35.1203 3.91979 34.2724 3.5783 33.4242 3.23758C33.0303 3.07936 32.6366 2.92093 32.243 2.76202C31.8633 2.60871 31.4834 2.45596 31.1033 2.30358C30.9582 2.24531 30.8132 2.18684 30.6683 2.12816C30.4655 2.04611 30.2625 1.96476 30.0594 1.88358C29.9993 1.85909 29.9393 1.83461 29.8774 1.80938C29.321 1.58863 28.991 1.66529 28.4558 1.88358Z" fill="black"/>
<path d="M32.6127 7.12612C32.9223 7.34822 33.0093 7.47129 33.0832 7.84728C33.0632 8.13463 32.9775 8.27389 32.7851 8.48456C32.733 8.54157 32.6809 8.59858 32.6273 8.65732C32.2879 9.01395 31.9418 9.36358 31.5933 9.71126C31.5119 9.79268 31.4306 9.87411 31.3492 9.95555C31.1801 10.1248 31.0108 10.2939 30.8414 10.4629C30.6242 10.6796 30.4074 10.8967 30.1907 11.114C30.0234 11.2815 29.8559 11.4489 29.6884 11.6162C29.6083 11.6963 29.5282 11.7764 29.4483 11.8566C29.337 11.968 29.2255 12.0791 29.114 12.1902C29.0507 12.2535 28.9874 12.3168 28.9221 12.382C28.6497 12.6362 28.4217 12.6474 28.06 12.6423C27.7133 12.5827 27.5281 12.3635 27.296 12.1135C27.2464 12.0631 27.1968 12.0126 27.1456 11.9606C26.9885 11.7999 26.8342 11.6368 26.6797 11.4736C26.5735 11.3644 26.4672 11.2554 26.3607 11.1466C25.5041 10.2659 25.5041 10.2659 25.4624 9.842C25.4675 9.56468 25.494 9.49793 25.6568 9.25381C25.9087 9.08584 26.0806 9.01881 26.3859 9.04156C26.7397 9.14206 26.961 9.40595 27.2116 9.66299C27.298 9.74868 27.3845 9.83424 27.4712 9.91968C27.7138 10.1597 27.9541 10.4019 28.1936 10.645C28.6387 10.2748 29.0473 9.88053 29.4525 9.46735C29.583 9.33541 29.7135 9.2035 29.8441 9.0716C30.0478 8.86534 30.2513 8.65889 30.4544 8.45201C30.6518 8.25116 30.85 8.05109 31.0482 7.85112C31.1088 7.78906 31.1693 7.72701 31.2317 7.66307C31.2888 7.60569 31.3459 7.5483 31.4047 7.48918C31.4544 7.43868 31.5041 7.38819 31.5553 7.33617C31.8977 7.0569 32.1914 6.99445 32.6127 7.12612Z" fill="black"/>
<path d="M5.64778 23.8877C5.711 23.8872 5.77422 23.8866 5.83936 23.8861C6.04905 23.8845 6.25873 23.8835 6.46843 23.8827C6.53999 23.8824 6.61156 23.882 6.68529 23.8817C7.06409 23.88 7.44288 23.8788 7.82167 23.878C8.21299 23.8771 8.60428 23.8743 8.99558 23.8711C9.29641 23.8689 9.59723 23.8683 9.89806 23.868C10.0423 23.8676 10.1866 23.8666 10.3308 23.8651C10.5328 23.8631 10.7347 23.8632 10.9367 23.8637C11.0259 23.8622 11.0259 23.8622 11.1169 23.8606C11.5124 23.8646 11.7132 23.9486 11.9907 24.2295C12.1199 24.488 12.1395 24.7702 12.0725 25.0479C11.8474 25.3354 11.7267 25.4461 11.3621 25.509C11.2439 25.5114 11.1256 25.5116 11.0074 25.51C10.9425 25.5107 10.8777 25.5114 10.8108 25.5122C10.5971 25.514 10.3836 25.5128 10.1698 25.5114C10.021 25.5117 9.87207 25.5121 9.72319 25.5126C9.41141 25.5132 9.09969 25.5123 8.78792 25.5104C8.38861 25.5081 7.9894 25.5094 7.59009 25.5119C7.28273 25.5133 6.97539 25.5129 6.66803 25.5118C6.52081 25.5115 6.3736 25.5119 6.22639 25.5128C6.02047 25.5139 5.81474 25.5123 5.60884 25.51C5.54821 25.5108 5.48758 25.5117 5.4251 25.5125C5.10138 25.5059 4.96497 25.4669 4.71052 25.2597C4.50163 24.9944 4.48805 24.875 4.50823 24.5514C4.56401 24.3027 4.69121 24.1586 4.87105 23.984C5.11879 23.8602 5.37593 23.8887 5.64778 23.8877Z" fill="black"/>
</svg>
