<svg width="512" height="512" viewBox="0 0 512 512" fill="none" xmlns="http://www.w3.org/2000/svg">
<path d="M361.144 385.549C360.273 385.549 359.411 385.376 358.609 385.038C357.806 384.701 357.079 384.207 356.469 383.585C353.533 380.598 350.289 377.93 346.793 375.624C345.427 374.634 344.496 373.156 344.193 371.497C343.891 369.838 344.24 368.126 345.169 366.718C346.097 365.31 347.533 364.315 349.177 363.94C350.821 363.565 352.547 363.838 353.994 364.704C358.251 367.522 362.201 370.778 365.779 374.419C366.682 375.34 367.292 376.507 367.534 377.773C367.776 379.039 367.639 380.349 367.14 381.538C366.641 382.726 365.802 383.741 364.728 384.455C363.654 385.168 362.394 385.549 361.104 385.549H361.144Z" fill="black" stroke="black" stroke-width="6.2905"/>
<path d="M379.606 485H131.341C129.604 485 127.939 484.31 126.711 483.082C125.483 481.855 124.794 480.189 124.794 478.453V424.439C124.814 405.432 132.374 387.21 145.814 373.769C159.254 360.329 177.477 352.77 196.484 352.749H314.201C315.937 352.749 317.603 353.439 318.831 354.666C320.058 355.894 320.748 357.559 320.748 359.296C320.748 361.032 320.058 362.698 318.831 363.925C317.603 365.153 315.937 365.843 314.201 365.843H196.484C180.949 365.86 166.055 372.039 155.07 383.025C144.084 394.01 137.905 408.904 137.888 424.439V471.906H373.059V424.439C373.072 419.866 372.54 415.308 371.475 410.861C371.248 410.018 371.192 409.139 371.31 408.275C371.427 407.411 371.716 406.579 372.16 405.828C372.604 405.077 373.193 404.422 373.894 403.902C374.594 403.382 375.391 403.007 376.238 402.799C377.085 402.592 377.966 402.555 378.827 402.693C379.688 402.83 380.514 403.138 381.254 403.599C381.995 404.059 382.636 404.663 383.14 405.375C383.644 406.087 384.001 406.893 384.189 407.744C385.502 413.203 386.161 418.799 386.154 424.413V478.453C386.154 480.189 385.464 481.855 384.236 483.082C383.008 484.31 381.343 485 379.606 485ZM255.461 327.831C241.89 327.831 228.624 323.806 217.341 316.267C206.057 308.728 197.263 298.012 192.07 285.474C186.877 272.937 185.518 259.141 188.165 245.831C190.813 232.521 197.348 220.296 206.943 210.7C216.539 201.104 228.765 194.569 242.075 191.922C255.384 189.274 269.18 190.633 281.718 195.826C294.255 201.02 304.971 209.814 312.511 221.097C320.05 232.381 324.074 245.647 324.074 259.217C324.055 277.409 316.82 294.85 303.957 307.713C291.093 320.576 273.652 327.811 255.461 327.831ZM255.461 203.698C244.48 203.698 233.746 206.954 224.616 213.054C215.486 219.155 208.369 227.826 204.167 237.971C199.965 248.116 198.866 259.279 201.008 270.048C203.15 280.818 208.438 290.711 216.202 298.475C223.967 306.24 233.86 311.527 244.629 313.67C255.399 315.812 266.562 314.712 276.707 310.51C286.852 306.308 295.523 299.192 301.623 290.062C307.724 280.932 310.98 270.198 310.98 259.217C310.964 244.497 305.11 230.385 294.701 219.976C284.293 209.568 270.18 203.713 255.461 203.698Z" fill="black" stroke="black" stroke-width="6.2905"/>
<path d="M319.242 485H191.705C189.969 485 188.303 484.31 187.076 483.082C185.848 481.855 185.158 480.189 185.158 478.453V441.082C185.158 439.346 185.848 437.68 187.076 436.453C188.303 435.225 189.969 434.535 191.705 434.535C193.441 434.535 195.107 435.225 196.334 436.453C197.562 437.68 198.252 439.346 198.252 441.082V471.906H312.695V441.082C312.695 439.346 313.385 437.68 314.613 436.453C315.841 435.225 317.506 434.535 319.242 434.535C320.979 434.535 322.644 435.225 323.872 436.453C325.1 437.68 325.789 439.346 325.789 441.082V478.453C325.789 480.189 325.1 481.855 323.872 483.082C322.644 484.31 320.979 485 319.242 485ZM455.428 210.677C454.368 210.676 453.323 210.418 452.384 209.924L418.555 192.142L384.733 209.924C383.651 210.494 382.432 210.75 381.212 210.663C379.993 210.576 378.822 210.149 377.833 209.431C376.843 208.713 376.075 207.732 375.614 206.6C375.154 205.467 375.019 204.228 375.226 203.023L381.688 165.358L354.328 138.659C353.453 137.807 352.834 136.727 352.54 135.541C352.247 134.355 352.291 133.111 352.667 131.949C353.044 130.787 353.738 129.754 354.672 128.965C355.605 128.177 356.74 127.666 357.949 127.49L395.771 121.99L412.682 87.7225C413.284 86.7002 414.143 85.8528 415.173 85.264C416.203 84.6753 417.369 84.3656 418.555 84.3656C419.742 84.3656 420.907 84.6753 421.937 85.264C422.967 85.8528 423.826 86.7002 424.428 87.7225L441.339 121.99L479.162 127.49C480.371 127.665 481.507 128.176 482.441 128.963C483.375 129.751 484.07 130.784 484.448 131.947C484.825 133.109 484.87 134.353 484.577 135.54C484.283 136.726 483.664 137.806 482.789 138.659L455.422 165.332L461.884 202.997C462.045 203.937 461.999 204.901 461.749 205.821C461.499 206.741 461.05 207.596 460.436 208.325C459.821 209.054 459.054 209.64 458.189 210.041C457.324 210.443 456.382 210.651 455.428 210.651V210.677ZM418.555 178.197C419.616 178.195 420.662 178.453 421.6 178.95L446.734 192.162L441.928 164.192C441.749 163.145 441.828 162.069 442.157 161.058C442.487 160.048 443.058 159.132 443.82 158.392L464.149 138.574L436.049 134.495C434.998 134.342 434.001 133.937 433.142 133.313C432.283 132.689 431.589 131.866 431.119 130.914L418.555 105.452L405.991 130.887C405.521 131.839 404.827 132.663 403.968 133.287C403.109 133.91 402.112 134.316 401.061 134.469L372.961 138.548L393.296 158.366C394.058 159.107 394.628 160.022 394.956 161.033C395.285 162.044 395.362 163.119 395.182 164.166L390.376 192.149L415.511 178.937C416.449 178.44 417.494 178.182 418.555 178.184V178.197ZM292.74 153.278C291.68 153.278 290.635 153.022 289.695 152.532L255.866 134.731L222.038 152.519C220.956 153.087 219.738 153.342 218.519 153.254C217.301 153.166 216.131 152.739 215.143 152.021C214.155 151.303 213.387 150.323 212.927 149.192C212.466 148.06 212.332 146.822 212.538 145.618L219 107.946L191.633 81.2736C190.758 80.421 190.138 79.3405 189.845 78.1543C189.552 76.9681 189.597 75.7234 189.974 74.5613C190.351 73.3991 191.046 72.3657 191.981 71.578C192.915 70.7904 194.051 70.2799 195.26 70.1043L233.083 64.6112L249.974 30.3569C250.576 29.3346 251.435 28.4872 252.465 27.8984C253.495 27.3097 254.66 27 255.847 27C257.033 27 258.199 27.3097 259.229 27.8984C260.259 28.4872 261.118 29.3346 261.72 30.3569L278.65 64.6243L316.473 70.1173C317.682 70.293 318.818 70.8035 319.752 71.5911C320.687 72.3788 321.382 73.4122 321.759 74.5744C322.136 75.7365 322.181 76.9812 321.888 78.1674C321.595 79.3536 320.975 80.4341 320.1 81.2867L292.733 107.96L299.195 145.632C299.355 146.571 299.308 147.534 299.058 148.453C298.807 149.373 298.359 150.226 297.744 150.955C297.129 151.683 296.363 152.268 295.499 152.669C294.634 153.071 293.693 153.279 292.74 153.278ZM255.866 120.805C256.927 120.804 257.972 121.06 258.911 121.551L284.019 134.763L279.213 106.781C279.034 105.735 279.113 104.661 279.441 103.651C279.77 102.642 280.339 101.727 281.099 100.987L301.434 81.1688L273.36 77.1162C272.309 76.963 271.311 76.5563 270.452 75.9312C269.593 75.3062 268.899 74.4815 268.43 73.5284L255.866 48.0471L243.303 73.5022C242.834 74.4553 242.14 75.28 241.281 75.905C240.422 76.5301 239.424 76.9368 238.373 77.09L210.273 81.1688L230.608 100.987C231.368 101.727 231.937 102.642 232.266 103.651C232.594 104.661 232.672 105.735 232.493 106.781L227.714 134.763L252.848 121.551C253.78 121.064 254.815 120.808 255.866 120.805ZM130.051 210.677C128.988 210.677 127.941 210.419 127 209.924L93.1778 192.142L59.349 209.911C58.2678 210.479 57.0491 210.734 55.8307 210.646C54.6123 210.558 53.4428 210.131 52.4545 209.413C51.4661 208.695 50.6984 207.715 50.238 206.583C49.7776 205.452 49.6429 204.214 49.8492 203.01L56.3112 165.345L28.9443 138.659C28.0804 137.805 27.4711 136.727 27.1847 135.547C26.8982 134.366 26.9458 133.129 27.3222 131.974C27.6986 130.819 28.3889 129.792 29.316 129.007C30.243 128.222 31.3702 127.71 32.5714 127.529L70.394 122.029L87.3051 87.7618C87.9071 86.7395 88.7656 85.8921 89.7956 85.3033C90.8256 84.7146 91.9914 84.4049 93.1778 84.4049C94.3642 84.4049 95.5301 84.7146 96.5601 85.3033C97.59 85.8921 98.4485 86.7395 99.0506 87.7618L115.962 122.029L153.784 127.529C154.993 127.705 156.128 128.217 157.061 129.005C157.995 129.793 158.689 130.826 159.066 131.988C159.442 133.15 159.486 134.395 159.193 135.58C158.899 136.766 158.28 137.846 157.405 138.698L130.044 165.371L136.506 203.036C136.668 203.976 136.622 204.94 136.371 205.86C136.121 206.781 135.673 207.635 135.058 208.364C134.443 209.093 133.677 209.679 132.812 210.081C131.947 210.482 131.005 210.69 130.051 210.69V210.677ZM93.1778 178.197C94.2389 178.195 95.2843 178.453 96.2222 178.95L121.357 192.162L116.551 164.192C116.371 163.145 116.448 162.07 116.777 161.059C117.105 160.049 117.675 159.133 118.437 158.392L138.772 138.574L110.672 134.495C109.621 134.342 108.623 133.937 107.765 133.313C106.906 132.689 106.212 131.866 105.742 130.914L93.1778 105.452L80.614 130.914C80.1441 131.866 79.4499 132.689 78.591 133.313C77.7322 133.937 76.7345 134.342 75.684 134.495L47.5839 138.574L67.8799 158.392C68.6483 159.129 69.2253 160.043 69.5607 161.054C69.8961 162.065 69.9799 163.142 69.8047 164.192L64.9992 192.149L90.1334 178.937C91.0714 178.44 92.1167 178.182 93.1778 178.184V178.197Z" fill="black" stroke="black" stroke-width="6.2905"/>
</svg>
