<?xml version="1.0" encoding="UTF-8"?>
<svg version="1.1" xmlns="http://www.w3.org/2000/svg" width="512" height="512">
<path d="M0 0 C1.52783615 -0.00461633 3.05566785 -0.01097414 4.58349037 -0.01890898 C8.75610555 -0.03552507 12.92835229 -0.02739137 17.10096836 -0.0149641 C21.6109364 -0.00588413 26.12084271 -0.01989791 30.63079834 -0.03088379 C39.45562868 -0.04864221 48.28032271 -0.04484097 57.10515833 -0.03323323 C64.279203 -0.02418863 71.45320956 -0.02297934 78.6272583 -0.02732849 C79.64947562 -0.02794142 80.67169294 -0.02855436 81.72488654 -0.02918586 C83.80169663 -0.0304648 85.87850671 -0.03176166 87.95531678 -0.03307623 C107.41582389 -0.04447418 126.87625554 -0.03138062 146.33675027 -0.00987476 C163.02385436 0.0079955 179.71084714 0.00489117 196.39794922 -0.0135498 C215.79025034 -0.03497036 235.18248538 -0.04337562 254.57479668 -0.03110075 C256.64383824 -0.02982659 258.71287981 -0.02856911 260.78192139 -0.02732849 C261.79984949 -0.02671139 262.81777759 -0.02609429 263.866552 -0.02545848 C271.02947939 -0.02200915 278.19236476 -0.02782496 285.35528564 -0.0372467 C294.08809136 -0.04848123 302.82075331 -0.04539607 311.55354261 -0.02412373 C316.00659819 -0.01363289 320.45941432 -0.00945785 324.91246796 -0.02272034 C328.99357114 -0.03469095 333.07421426 -0.02800537 337.15527606 -0.00681013 C338.62686485 -0.00236375 340.09849298 -0.00456589 341.5700562 -0.01431328 C354.74899169 -0.09487168 364.99299103 2.23693759 374.70458984 11.50793457 C383.68410178 20.91419559 386.15564718 30.34043815 385.90942383 43.02160645 C385.85490325 44.85084432 385.78175656 46.67951203 385.70458984 48.50793457 C386.80416016 48.46152832 387.90373047 48.41512207 389.03662109 48.36730957 C401.36688412 47.99980513 410.87471263 49.30881173 420.63818359 57.53527832 C429.21083865 65.71900384 433.76150702 74.6620755 434.20795441 86.60916138 C434.22981967 89.34253007 434.2306265 92.07047201 434.21252441 94.80334473 C434.21714074 96.33118088 434.22349855 97.85901258 434.23143339 99.3868351 C434.24804949 103.55945028 434.23991578 107.73169701 434.22748852 111.90431309 C434.21840854 116.41428112 434.23242233 120.92418744 434.2434082 125.43414307 C434.26116663 134.25897341 434.25736538 143.08366744 434.24575764 151.90850306 C434.23671305 159.08254773 434.23550376 166.25655428 434.23985291 173.43060303 C434.24046584 174.45282035 434.24107877 175.47503766 434.24171028 176.52823126 C434.24298922 178.60504136 434.24428607 180.68185144 434.24560064 182.75866151 C434.2569986 202.21916861 434.24390504 221.67960027 434.22239918 241.140095 C434.20452892 257.82719909 434.20763324 274.51419186 434.22607422 291.20129395 C434.24749478 310.59359506 434.25590004 329.98583011 434.24362516 349.3781414 C434.24235101 351.44718296 434.24109352 353.51622453 434.23985291 355.58526611 C434.23892725 357.11215826 434.23892725 357.11215826 434.2379829 358.66989672 C434.23453356 365.83282411 434.24034937 372.99570949 434.24977112 380.15863037 C434.26100564 388.89143608 434.25792049 397.62409803 434.23664814 406.35688734 C434.2261573 410.80994291 434.22198226 415.26275904 434.23524475 419.71581268 C434.24721537 423.79691587 434.24052978 427.87755899 434.21933454 431.95862079 C434.21488816 433.43020957 434.21709031 434.9018377 434.22683769 436.37340093 C434.3073961 449.55233642 431.97558682 459.79633576 422.70458984 469.50793457 C412.3088511 479.43203299 401.36848444 481.10833321 387.40917969 481.01586914 C385.88134354 481.02048547 384.35351184 481.02684328 382.82568932 481.03477812 C378.65307414 481.05139421 374.4808274 481.04326051 370.30821133 481.03083324 C365.79824329 481.02175327 361.28833697 481.03576705 356.77838135 481.04675293 C347.953551 481.06451135 339.12885698 481.06071011 330.30402136 481.04910237 C323.12997668 481.04005777 315.95597013 481.03884848 308.78192139 481.04319763 C307.75970407 481.04381056 306.73748675 481.0444235 305.68429315 481.045055 C303.60748306 481.04633394 301.53067298 481.0476308 299.45386291 481.04894537 C279.9933558 481.06034333 260.53292415 481.04724976 241.07242942 481.0257439 C224.38532533 481.00787364 207.69833255 481.01097797 191.01123047 481.02941895 C171.61892935 481.0508395 152.22669431 481.05924476 132.83438301 481.04696989 C130.76534145 481.04569573 128.69629988 481.04443825 126.6272583 481.04319763 C125.6093302 481.04258053 124.5914021 481.04196343 123.54262769 481.04132763 C116.3797003 481.03787829 109.21681493 481.0436941 102.05389404 481.05311584 C93.32108833 481.06435037 84.58842638 481.06126521 75.85563707 481.03999287 C71.4025815 481.02950203 66.94976537 481.02532699 62.49671173 481.03858948 C58.41560854 481.05056009 54.33496542 481.04387451 50.25390363 481.02267927 C48.78231484 481.01823289 47.31068671 481.02043504 45.83912349 481.03018242 C32.660188 481.11074082 22.41618866 478.77893155 12.70458984 469.50793457 C3.72507791 460.10167355 1.2535325 450.67543099 1.49975586 437.9942627 C1.55427644 436.16502482 1.62742312 434.33635711 1.70458984 432.50793457 C0.60501953 432.55434082 -0.49455078 432.60074707 -1.62744141 432.64855957 C-13.95770444 433.01606401 -23.46553294 431.70705741 -33.22900391 423.48059082 C-41.80165896 415.2968653 -46.35232733 406.35379364 -46.79877472 394.40670776 C-46.82063998 391.67333907 -46.82144681 388.94539714 -46.80334473 386.21252441 C-46.80796106 384.68468826 -46.81431887 383.15685656 -46.8222537 381.62903404 C-46.8388698 377.45641886 -46.83073609 373.28417213 -46.81830883 369.11155605 C-46.80922885 364.60158802 -46.82324264 360.0916817 -46.83422852 355.58172607 C-46.85198694 346.75689573 -46.84818569 337.9322017 -46.83657795 329.10736609 C-46.82753336 321.93332141 -46.82632407 314.75931486 -46.83067322 307.58526611 C-46.83128615 306.5630488 -46.83189908 305.54083148 -46.83253059 304.48763788 C-46.83380953 302.41082778 -46.83510638 300.3340177 -46.83642095 298.25720763 C-46.84781891 278.79670053 -46.83472535 259.33626887 -46.81321949 239.87577415 C-46.79534923 223.18867005 -46.79845356 206.50167728 -46.81689453 189.8145752 C-46.83831509 170.42227408 -46.84672035 151.03003904 -46.83444548 131.63772774 C-46.83317132 129.56868618 -46.83191384 127.49964461 -46.83067322 125.43060303 C-46.83005612 124.41267493 -46.82943901 123.39474683 -46.82880321 122.34597242 C-46.82535387 115.18304503 -46.83116969 108.02015965 -46.84059143 100.85723877 C-46.85182595 92.12443306 -46.8487408 83.39177111 -46.82746845 74.6589818 C-46.81697761 70.20592623 -46.81280258 65.7531101 -46.82606506 61.30005646 C-46.83803568 57.21895327 -46.8313501 53.13831015 -46.81015486 49.05724835 C-46.80570848 47.58565957 -46.80791062 46.11403144 -46.81765801 44.64246821 C-46.89821641 31.46353272 -44.56640713 21.21953338 -35.29541016 11.50793457 C-24.89967141 1.58383615 -13.95930476 -0.09246407 0 0 Z M-24.54541016 25.94543457 C-33.40897108 36.82238923 -30.29541016 51.14233242 -30.29541016 64.50793457 C101.70458984 64.50793457 233.70458984 64.50793457 369.70458984 64.50793457 C371.18854394 43.88340199 371.18854394 43.88340199 363.70458984 25.50793457 C356.470473 18.32548999 349.65578915 16.38603949 339.49412823 16.37930012 C337.64530136 16.37446345 337.64530136 16.37446345 335.75912446 16.36952907 C334.39953074 16.37100006 333.03993713 16.37256777 331.68034363 16.3742218 C330.2296492 16.3723529 328.77895528 16.37005189 327.32826215 16.36735648 C323.34583402 16.36124183 319.3634269 16.36137168 315.38099515 16.36255085 C311.08436152 16.36275494 306.78773462 16.35723531 302.49110413 16.35249329 C294.07471269 16.34418803 285.65832826 16.3414385 277.24193307 16.34088091 C270.40052326 16.34040569 263.55911576 16.33835068 256.71770668 16.33518028 C237.31993537 16.3263741 217.92216959 16.32176086 198.52439626 16.32251076 C196.95589799 16.32257069 196.95589799 16.32257069 195.35571289 16.32263184 C194.30877029 16.32267272 193.2618277 16.3227136 192.18315957 16.32275572 C175.21497962 16.32316219 158.24682187 16.31359223 141.27864834 16.29949347 C123.85475214 16.28513032 106.43086677 16.27822325 89.0069645 16.27908725 C79.22521135 16.27941923 69.44348145 16.27667135 59.66173363 16.26590919 C51.33356427 16.25680501 43.00542872 16.25462828 34.67725655 16.26141862 C30.42909223 16.26468421 26.18099278 16.26473906 21.93283463 16.25606537 C18.04112397 16.24820125 14.14952965 16.2496309 10.25782184 16.2583495 C8.85273543 16.25988468 7.44764035 16.25806765 6.04256418 16.25248943 C-6.00116833 16.20785602 -16.00213087 16.47577561 -24.54541016 25.94543457 Z M385.70458984 64.50793457 C385.70458984 80.34793457 385.70458984 96.18793457 385.70458984 112.50793457 C396.26458984 112.50793457 406.82458984 112.50793457 417.70458984 112.50793457 C417.74583984 108.73355957 417.78708984 104.95918457 417.82958984 101.07043457 C417.84779785 99.89940186 417.86600586 98.72836914 417.88476562 97.52185059 C417.93157766 88.59962687 417.56276288 80.63273961 411.70458984 73.50793457 C403.72091425 65.58128523 396.93676621 64.50793457 385.70458984 64.50793457 Z M-30.29541016 80.50793457 C-30.33666016 131.80230957 -30.37791016 183.09668457 -30.42041016 235.94543457 C-30.43861816 252.15209229 -30.45682617 268.35875 -30.47558594 285.05651855 C-30.48227409 299.56220203 -30.48227409 299.56220203 -30.48629761 314.06788635 C-30.48816369 320.5375056 -30.49550437 327.00709036 -30.50656128 333.47669983 C-30.5192952 340.93859438 -30.52508126 348.40045582 -30.52230006 355.86236132 C-30.52109561 359.67914183 -30.52300075 363.49584834 -30.53384042 367.31261528 C-30.54538391 371.40209869 -30.54139465 375.49142135 -30.53591919 379.58091736 C-30.54174452 380.76833558 -30.54756985 381.9557538 -30.5535717 383.1791544 C-30.51779875 393.10747109 -30.05043102 401.794021 -22.65478516 409.13684082 C-15.8369246 415.28773676 -9.1805747 416.63053666 -0.08494854 416.63656902 C1.76387833 416.64140569 1.76387833 416.64140569 3.65005523 416.64634007 C5.00964894 416.64486908 6.36924256 416.64330138 7.72883606 416.64164734 C9.17953049 416.64351624 10.63022441 416.64581726 12.08091754 416.64851266 C16.06334566 416.65462731 20.04575278 416.65449746 24.02818453 416.65331829 C28.32481817 416.6531142 32.62144507 416.65863383 36.91807556 416.66337585 C45.334467 416.67168111 53.75085143 416.67443064 62.16724662 416.67498823 C69.00865643 416.67546345 75.85006393 416.67751847 82.69147301 416.68068886 C102.08924432 416.68949504 121.4870101 416.69410828 140.88478342 416.69335838 C142.45328169 416.69329845 142.45328169 416.69329845 144.0534668 416.6932373 C145.10040939 416.69319642 146.14735199 416.69315554 147.22602012 416.69311342 C164.19420007 416.69270695 181.16235782 416.70227692 198.13053135 416.71637567 C215.55442754 416.73073882 232.97831292 416.73764589 250.40221518 416.7367819 C260.18396834 416.73644991 269.96569823 416.7391978 279.74744606 416.74995995 C288.07561542 416.75906413 296.40375096 416.76124086 304.73192314 416.75445052 C308.98008746 416.75118493 313.22818691 416.75113008 317.47634506 416.75980377 C321.36805571 416.76766789 325.25965004 416.76623824 329.15135785 416.75751964 C330.55644426 416.75598446 331.96153934 416.75780149 333.36661551 416.76337972 C347.97302416 416.93668533 347.97302416 416.93668533 360.70458984 410.50793457 C369.45479833 401.69477495 369.85788728 392.96212464 369.81811523 380.99475098 C369.81833427 379.26705475 369.81833427 379.26705475 369.81855774 377.50445557 C369.81786236 373.70611676 369.81008743 369.90782729 369.80224609 366.10949707 C369.80038059 363.47248359 369.79895731 360.83546976 369.79795837 358.19845581 C369.79485531 351.97252011 369.78665578 345.74660205 369.77660888 339.52067411 C369.76541587 332.4299831 369.75992927 325.33929122 369.75491345 318.24859357 C369.74447228 303.66836482 369.72689274 289.08814994 369.70458984 274.50793457 C364.67272882 278.70221759 360.04421249 283.09672562 355.51367188 287.82336426 C354.09953348 289.28711423 352.68505865 290.75053922 351.27029419 292.21368408 C350.15843435 293.36578495 350.15843435 293.36578495 349.0241127 294.54116058 C344.19953704 299.52630836 339.33645432 304.47397239 334.47976875 309.42780685 C330.2409515 313.75566305 326.01668039 318.09598367 321.82226562 322.46691895 C287.21718335 358.4847276 287.21718335 358.4847276 266.6730957 363.68615723 C261.1530628 365.21427884 255.91117116 367.49802349 250.60693359 369.64074707 C248.4478692 370.47858569 246.28706485 371.31195485 244.12451172 372.14074707 C240.8455734 373.39926434 237.56855288 374.6616602 234.29711914 375.9395752 C231.05101108 377.20695155 227.79865855 378.45688508 224.54443359 379.70324707 C223.57046127 380.08747833 222.59648895 380.47170959 221.59300232 380.86758423 C216.03225417 382.97229947 211.65770868 384.05407677 205.70458984 383.50793457 C203.52286071 382.10036739 202.95508373 381.15241089 202.02905273 378.76989746 C201.57628194 375.61344793 202.40500434 373.58431605 203.45068359 370.56652832 C203.66945663 369.93427841 203.88822968 369.3020285 204.1136322 368.65061951 C207.92254694 357.83493693 212.12181457 347.155244 216.26147461 336.46276855 C217.52271347 333.20495221 218.77717733 329.94457424 220.02979374 326.68343449 C221.24181404 323.53101757 222.45982365 320.38092546 223.67724609 317.23059082 C224.12213882 316.0721315 224.56703156 314.91367218 225.02540588 313.72010803 C225.66142982 312.08186317 225.66142982 312.08186317 226.31030273 310.41052246 C226.6771669 309.46093155 227.04403107 308.51134064 227.42201233 307.53297424 C227.84526291 306.53471115 228.26851349 305.53644806 228.70458984 304.50793457 C229.14522263 303.31845215 229.58585541 302.12896973 230.0398407 300.90344238 C233.16402338 294.80331955 238.73815238 290.50833753 243.78184319 286.01706123 C247.22537517 282.94940558 250.63181424 279.84077074 254.04559326 276.74009705 C254.77417557 276.08049323 255.50275788 275.42088941 256.25341845 274.7412976 C265.68902948 266.18602181 274.93151359 257.42432953 284.17970037 248.66748416 C293.14684687 240.17777985 302.15938514 231.76251735 311.39160156 223.56091309 C318.75298262 217.02061723 325.95052506 210.33882366 333.00975633 203.47307783 C337.36213614 199.2516264 341.78304108 195.19775853 346.45631742 191.3327626 C358.2811385 180.81026776 360.73520031 174.86065517 369.70458984 159.50793457 C369.70458984 133.43793457 369.70458984 107.36793457 369.70458984 80.50793457 C237.70458984 80.50793457 105.70458984 80.50793457 -30.29541016 80.50793457 Z M385.70458984 128.50793457 C382.65922083 144.04170321 382.65922083 144.04170321 387.06921387 158.68121338 C395.31451927 169.57430784 406.13008044 178.92688726 416.70458984 187.50793457 C417.03458984 187.50793457 417.36458984 187.50793457 417.70458984 187.50793457 C417.70458984 168.03793457 417.70458984 148.56793457 417.70458984 128.50793457 C407.14458984 128.50793457 396.58458984 128.50793457 385.70458984 128.50793457 Z M376.66333008 175.43566895 C375.78878174 176.3154541 374.9142334 177.19523926 374.01318359 178.10168457 C373.5484816 178.56780151 373.0837796 179.03391846 372.60499573 179.51416016 C371.11500803 181.00976467 369.6285265 182.50880152 368.14208984 184.00793457 C367.1351567 185.01988055 366.12799819 186.03160234 365.12060547 187.04309082 C362.6459758 189.52877178 360.17448016 192.01754331 357.70458984 194.50793457 C361.66831509 199.25879324 365.80253766 203.74406569 370.19677734 208.09777832 C370.78758087 208.6871669 371.3783844 209.27655548 371.98709106 209.88380432 C373.84889388 211.74007184 375.71416729 213.59280542 377.57958984 215.44543457 C378.85325995 216.71408129 380.12669956 217.98295947 381.39990234 219.2520752 C384.49881028 222.34004011 387.60083285 225.42484386 390.70458984 228.50793457 C394.47131141 225.32391369 398.19461575 222.14631551 401.66943359 218.64074707 C402.32363281 217.9833252 402.97783203 217.32590332 403.65185547 216.64855957 C404.30863281 215.98340332 404.96541016 215.31824707 405.64208984 214.63293457 C406.3259375 213.9445752 407.00978516 213.25621582 407.71435547 212.54699707 C409.38010578 210.86959816 411.04299345 209.18944511 412.70458984 207.50793457 C408.7450636 202.76751243 404.62211007 198.2767298 400.24755859 193.91809082 C399.65912674 193.32870224 399.07069489 192.73931366 398.46443176 192.13206482 C397.23459503 190.90155351 396.00351841 189.67228023 394.77124023 188.44421387 C392.87609665 186.55448709 390.98642707 184.65940186 389.09716797 182.76379395 C387.8976192 181.56490495 386.69776081 180.36632565 385.49755859 179.16809082 C384.93095016 178.59945816 384.36434174 178.0308255 383.78056335 177.44496155 C380.4424723 173.24073723 380.4424723 173.24073723 376.66333008 175.43566895 Z M342.99046135 209.97596741 C342.29911661 210.66915573 341.60777187 211.36234406 340.89547729 212.07653809 C340.10179749 212.86746857 339.30811768 213.65839905 338.49038696 214.47329712 C337.61860809 215.35226654 336.74682922 216.23123596 335.84863281 217.13684082 C334.93150513 218.05367645 334.01437744 218.97051208 333.06945801 219.91513062 C330.54862921 222.43538378 328.03402961 224.96177165 325.52046728 227.48926926 C322.89482267 230.12738626 320.26354222 232.75986942 317.63284302 235.39294434 C312.64941017 240.38260225 307.67109895 245.37733813 302.69458783 250.37389851 C297.02990212 256.06091134 291.35956046 261.74227027 285.68872619 267.42315102 C274.02102269 279.11177975 262.36047648 290.80752181 250.70458984 302.50793457 C251.64049488 303.61345347 252.57838842 304.7172891 253.51708984 305.82043457 C254.03916016 306.43531738 254.56123047 307.0502002 255.09912109 307.68371582 C256.57631454 309.36218136 258.10498115 310.94675491 259.70458984 312.50793457 C262.98657251 311.07144577 265.15541212 309.30451441 267.67828369 306.77474976 C268.45788452 305.99789825 269.23748535 305.22104675 270.04071045 304.4206543 C270.88659729 303.5675769 271.73248413 302.71449951 272.60400391 301.83557129 C273.5019165 300.93795074 274.3998291 300.0403302 275.32495117 299.11550903 C277.78367962 296.6573541 280.23619534 294.19308412 282.6876421 291.72767019 C285.25186438 289.15094049 287.82175629 286.57987813 290.39105225 284.00820923 C295.25400967 279.13903707 300.11184661 274.26478939 304.96786475 269.38869774 C310.49715402 263.83704928 316.03212732 258.29108269 321.56758547 252.74558616 C332.9529237 241.33934609 344.33110231 229.92599161 355.70458984 218.50793457 C354.7686848 217.40241567 353.83079127 216.29858004 352.89208984 215.19543457 C352.37001953 214.58055176 351.84794922 213.96566895 351.31005859 213.33215332 C349.1045108 210.8238889 349.1045108 210.8238889 346.70458984 208.50793457 C344.58162329 208.29110802 344.58162329 208.29110802 342.99046135 209.97596741 Z M396.89982605 241.425354 C383.01316012 255.93538449 382.61690459 272.66851539 382.59912109 291.64855957 C382.59814973 292.42820131 382.59717837 293.20784306 382.59617758 294.01111031 C382.60851855 303.76590454 382.88390403 313.50674694 383.25254905 323.25382471 C383.65671544 334.09073467 383.80567059 344.93213821 383.97435284 355.77477646 C383.99988714 357.38584392 384.02558067 358.99690887 384.05143738 360.60797119 C384.06389785 361.39502937 384.07635832 362.18208755 384.08919638 362.99299598 C384.16752817 367.62387496 384.28523455 372.25158208 384.44121039 376.88048792 C384.53686497 379.75639305 384.61727558 382.63263359 384.69632721 385.50903702 C384.75616536 387.45496574 384.83830864 389.40016959 384.92137146 391.34524536 C385.20576641 402.22819739 382.82372362 411.00531354 375.75146484 419.43762207 C366.73074039 428.56163726 357.35026438 431.8211566 344.72251838 431.92135161 C342.79496738 431.91408025 342.79496738 431.91408025 340.82847595 431.90666199 C339.43064522 431.91210814 338.03281908 431.91886248 336.63500029 431.92680389 C332.81294986 431.94476559 328.99109436 431.94427999 325.16901171 431.94067442 C321.04026528 431.94004906 316.9115834 431.95668482 312.78286743 431.97119141 C305.6359045 431.99395574 298.48899023 432.00585878 291.34199333 432.01032066 C281.0087329 432.01678754 270.67556037 432.0397344 260.34233541 432.06666396 C243.57613637 432.10991282 226.80994104 432.13989043 210.04370117 432.16149902 C193.75982848 432.18251441 177.4759861 432.2097944 161.19213867 432.2454834 C160.18788567 432.24768222 159.18363268 432.24988105 158.14894777 432.2521465 C153.11075123 432.2632163 148.07255498 432.27440908 143.03435886 432.28566301 C101.2577958 432.37882119 59.48121622 432.45043165 17.70458984 432.50793457 C17.6984668 433.77556641 17.69234375 435.04319824 17.68603516 436.34924316 C17.68259094 437.06228607 17.67914673 437.77532898 17.67559814 438.50997925 C17.7824186 445.87148287 20.07609866 451.90536118 25.34521484 457.13684082 C32.1630754 463.28773676 38.8194253 464.63053666 47.91505146 464.63656902 C49.76387833 464.64140569 49.76387833 464.64140569 51.65005523 464.64634007 C53.00964894 464.64486908 54.36924256 464.64330138 55.72883606 464.64164734 C57.17953049 464.64351624 58.63022441 464.64581726 60.08091754 464.64851266 C64.06334566 464.65462731 68.04575278 464.65449746 72.02818453 464.65331829 C76.32481817 464.6531142 80.62144507 464.65863383 84.91807556 464.66337585 C93.334467 464.67168111 101.75085143 464.67443064 110.16724662 464.67498823 C117.00865643 464.67546345 123.85006393 464.67751847 130.69147301 464.68068886 C150.08924432 464.68949504 169.4870101 464.69410828 188.88478342 464.69335838 C190.45328169 464.69329845 190.45328169 464.69329845 192.0534668 464.6932373 C193.10040939 464.69319642 194.14735199 464.69315554 195.22602012 464.69311342 C212.19420007 464.69270695 229.16235782 464.70227692 246.13053135 464.71637567 C263.55442754 464.73073882 280.97831292 464.73764589 298.40221518 464.7367819 C308.18396834 464.73644991 317.96569823 464.7391978 327.74744606 464.74995995 C336.07561542 464.75906413 344.40375096 464.76124086 352.73192314 464.75445052 C356.98008746 464.75118493 361.22818691 464.75113008 365.47634506 464.75980377 C369.36805571 464.76766789 373.25965004 464.76623824 377.15135785 464.75751964 C378.55644426 464.75598446 379.96153934 464.75780149 381.36661551 464.76337972 C395.97302416 464.93668533 395.97302416 464.93668533 408.70458984 458.50793457 C416.66707837 450.48816195 417.86407395 442.64090726 417.82484436 431.66213989 C417.82569879 430.78313314 417.82655321 429.90412638 417.82743353 428.99848306 C417.82907769 426.05971815 417.82358436 423.12101061 417.81811523 420.18225098 C417.81783311 418.07301841 417.8179916 415.96378574 417.81855774 413.85455322 C417.81884472 408.13194193 417.81296401 402.40935159 417.80598378 396.68674517 C417.79973373 390.70497271 417.79914513 384.72319978 417.79795837 378.74142456 C417.79484994 367.4155934 417.7866431 356.08977189 417.77660888 344.76394498 C417.76543263 331.86925198 417.75993348 318.97455852 417.75491345 306.07986188 C417.7444601 279.55588076 417.72687008 253.03190821 417.70458984 226.50793457 C411.18105459 226.50793457 401.30695722 237.25429754 396.89982605 241.425354 Z M366.11350918 231.97596741 C365.42124265 232.66915573 364.72897612 233.36234406 364.01573181 234.07653809 C363.22342667 234.86746857 362.43112152 235.65839905 361.61480713 236.47329712 C360.73943298 237.35226654 359.86405884 238.23123596 358.9621582 239.13684082 C358.04517654 240.05367645 357.12819489 240.97051208 356.1834259 241.91513062 C353.66065981 244.43760864 351.14099864 246.96316805 348.62186122 249.48926926 C345.99175702 252.12560544 343.3588392 254.75912849 340.72621155 257.39294434 C335.73767268 262.38459698 330.75168937 267.3787943 325.76660687 272.37389851 C320.09271923 278.05894585 314.41600724 283.74116936 308.73904979 289.42315102 C297.05773873 301.11492751 285.3800006 312.81026597 273.70458984 324.50793457 C275.21405496 327.68879975 276.78400809 329.80663363 279.32958984 332.25793457 C279.96123047 332.87152832 280.59287109 333.48512207 281.24365234 334.11730957 C281.72576172 334.57621582 282.20787109 335.03512207 282.70458984 335.50793457 C288.29023634 330.85701498 293.45110337 325.89805094 298.57739258 320.74865723 C299.43672897 319.88946686 300.29606537 319.03027649 301.18144226 318.14505005 C303.51748163 315.80843686 305.85129226 313.4696401 308.18410754 311.12981081 C310.62997 308.67766129 313.0786991 306.2283777 315.52711487 303.77877808 C320.15421938 299.14857595 324.77877069 294.51583256 329.40239149 289.88215196 C334.67011295 284.60322043 339.94070284 279.32715673 345.2115258 274.05132222 C356.04572345 263.20669575 366.87634516 252.35850522 377.70458984 241.50793457 C376.20445996 238.3545084 374.64939807 236.20766369 372.14208984 233.75793457 C371.21203125 232.83754395 371.21203125 232.83754395 370.26318359 231.89855957 C368.17755874 230.0198633 368.17755874 230.0198633 366.11350918 231.97596741 Z M240.70458984 318.50793457 C239.83686955 320.58565928 238.98585365 322.67036634 238.14208984 324.75793457 C237.66642578 325.91809082 237.19076172 327.07824707 236.70068359 328.27355957 C235.67795977 331.59440399 235.53916573 332.39676865 236.70458984 335.50793457 C238.84740227 338.34439582 241.39259394 340.79724676 243.89208984 343.32043457 C244.88305664 344.37907715 244.88305664 344.37907715 245.89404297 345.45910645 C249.67815222 349.49710868 249.67815222 349.49710868 254.85693359 350.58605957 C255.79666016 350.23027832 256.73638672 349.87449707 257.70458984 349.50793457 C258.61982422 349.18695801 259.53505859 348.86598145 260.47802734 348.53527832 C261.33654297 348.17562988 262.19505859 347.81598145 263.07958984 347.44543457 C263.95357422 347.08320801 264.82755859 346.72098145 265.72802734 346.34777832 C266.70642578 345.93205566 266.70642578 345.93205566 267.70458984 345.50793457 C262.60619241 339.34420036 257.05798226 333.71195756 251.39208984 328.07043457 C250.47363281 327.14811035 249.55517578 326.22578613 248.60888672 325.2755127 C247.73683594 324.40475098 246.86478516 323.53398926 245.96630859 322.63684082 C244.7746106 321.44683472 244.7746106 321.44683472 243.55883789 320.23278809 C242.00463452 318.39441825 242.00463452 318.39441825 240.70458984 318.50793457 Z M228.70458984 351.50793457 C226.34548632 355.77166267 226.34548632 355.77166267 225.70458984 360.50793457 C229.98338794 360.09207103 229.98338794 360.09207103 233.57958984 357.94543457 C233.95083984 357.47105957 234.32208984 356.99668457 234.70458984 356.50793457 C232.72458984 354.85793457 230.74458984 353.20793457 228.70458984 351.50793457 Z " fill="#000000" transform="translate(62.29541015625,15.4920654296875)"/>
<path d="M0 0 C1.14404297 -0.0112793 2.28808594 -0.02255859 3.46679688 -0.03417969 C5.34334961 -0.0220343 5.34334961 -0.0220343 7.2578125 -0.00964355 C8.59180465 -0.01506511 9.9257908 -0.02218797 11.25976562 -0.03088379 C14.87966598 -0.04911656 18.49911024 -0.04205017 22.11901855 -0.02936745 C25.9074832 -0.01923938 29.69590882 -0.02863258 33.484375 -0.03491211 C39.84642548 -0.04218911 46.20829022 -0.03259956 52.5703125 -0.0135498 C59.92541387 0.00821921 67.28007173 0.00116786 74.63516235 -0.02085543 C80.95036617 -0.03900805 87.26543648 -0.04156848 93.58065796 -0.03110075 C97.35234853 -0.02486499 101.12383064 -0.02403225 104.89550781 -0.0372467 C108.44153603 -0.04880278 111.98699253 -0.04078487 115.53295898 -0.01766968 C117.45490737 -0.00985857 119.37690412 -0.02174065 121.29882812 -0.03417969 C123.01489258 -0.01726074 123.01489258 -0.01726074 124.765625 0 C125.75965332 0.0015081 126.75368164 0.0030162 127.77783203 0.00457001 C131.14098838 0.65443811 132.32642311 1.80946784 134.3828125 4.50793457 C134.77737037 7.45578727 134.93013565 10.0297074 134.90039062 12.97668457 C134.9073999 13.82915771 134.91440918 14.68163086 134.92163086 15.55993652 C134.93922818 18.37626777 134.9275821 21.19159321 134.9140625 24.00793457 C134.91675692 25.96561882 134.92063892 27.92330177 134.92565918 29.88098145 C134.93155658 33.98332464 134.92298343 38.08531939 134.90429688 42.18762207 C134.88150725 47.44714085 134.89462903 52.70584321 134.91858673 57.96533203 C134.93303813 62.00767167 134.92844173 66.04981762 134.91807556 70.09216309 C134.91540646 72.03145443 134.91868447 73.97076334 134.92799377 75.91003418 C134.93814852 78.62022507 134.92267378 81.32909232 134.90039062 84.03918457 C134.90848755 84.84138428 134.91658447 85.64358398 134.92492676 86.47009277 C134.87366965 89.83365721 134.7744238 91.9940484 132.70214081 94.71337128 C129.82985428 96.93578195 128.36849854 97.010403 124.765625 97.01586914 C123.62158203 97.02714844 122.47753906 97.03842773 121.29882812 97.05004883 C120.04779297 97.0419519 118.79675781 97.03385498 117.5078125 97.0255127 C116.17382035 97.03093425 114.8398342 97.03805711 113.50585938 97.04675293 C109.88595902 97.0649857 106.26651476 97.05791931 102.64660645 97.04523659 C98.8581418 97.03510852 95.06971618 97.04450172 91.28125 97.05078125 C84.91919952 97.05805825 78.55733478 97.0484687 72.1953125 97.02941895 C64.84021113 97.00764993 57.48555327 97.01470128 50.13046265 97.03672457 C43.81525883 97.05487719 37.50018852 97.05743762 31.18496704 97.04696989 C27.41327647 97.04073413 23.64179436 97.03990139 19.87011719 97.05311584 C16.32408897 97.06467192 12.77863247 97.05665401 9.23266602 97.03353882 C7.31071763 97.02572771 5.38872088 97.03760979 3.46679688 97.05004883 C1.75073242 97.03312988 1.75073242 97.03312988 0 97.01586914 C-0.99402832 97.01436104 -1.98805664 97.01285294 -3.01220703 97.01129913 C-6.37536338 96.36143103 -7.56079811 95.2064013 -9.6171875 92.50793457 C-10.01174537 89.56008187 -10.16451065 86.98616174 -10.13476562 84.03918457 C-10.1417749 83.18671143 -10.14878418 82.33423828 -10.15600586 81.45593262 C-10.17360318 78.63960137 -10.1619571 75.82427593 -10.1484375 73.00793457 C-10.15113192 71.05025032 -10.15501392 69.09256737 -10.16003418 67.1348877 C-10.16593158 63.0325445 -10.15735843 58.93054975 -10.13867188 54.82824707 C-10.11588225 49.56872829 -10.12900403 44.31002593 -10.15296173 39.05053711 C-10.16741313 35.00819747 -10.16281673 30.96605152 -10.15245056 26.92370605 C-10.14978146 24.98441471 -10.15305947 23.0451058 -10.16236877 21.10583496 C-10.17252352 18.39564407 -10.15704878 15.68677682 -10.13476562 12.97668457 C-10.14286255 12.17448486 -10.15095947 11.37228516 -10.15930176 10.54577637 C-10.10804465 7.18221193 -10.0087988 5.02182074 -7.93651581 2.30249786 C-5.06422928 0.08008719 -3.60287354 0.00546614 0 0 Z M6.3828125 16.50793457 C6.3828125 37.62793457 6.3828125 58.74793457 6.3828125 80.50793457 C43.3428125 80.50793457 80.3028125 80.50793457 118.3828125 80.50793457 C118.3828125 59.38793457 118.3828125 38.26793457 118.3828125 16.50793457 C81.4228125 16.50793457 44.4628125 16.50793457 6.3828125 16.50793457 Z " fill="#000000" transform="translate(73.6171875,127.4920654296875)"/>
<path d="M0 0 C68.64 0 137.28 0 208 0 C208 5.28 208 10.56 208 16 C139.36 16 70.72 16 0 16 C0 10.72 0 5.44 0 0 Z " fill="#000000" transform="translate(64,288)"/>
<path d="M0 0 C68.64 0 137.28 0 208 0 C208 5.28 208 10.56 208 16 C139.36 16 70.72 16 0 16 C0 10.72 0 5.44 0 0 Z " fill="#000000" transform="translate(96,256)"/>
<path d="M0 0 C58.08 0 116.16 0 176 0 C176 5.28 176 10.56 176 16 C117.92 16 59.84 16 0 16 C0 10.72 0 5.44 0 0 Z " fill="#000000" transform="translate(64,384)"/>
<path d="M0 0 C58.08 0 116.16 0 176 0 C176 5.28 176 10.56 176 16 C117.92 16 59.84 16 0 16 C0 10.72 0 5.44 0 0 Z " fill="#000000" transform="translate(64,352)"/>
<path d="M0 0 C58.08 0 116.16 0 176 0 C176 5.28 176 10.56 176 16 C117.92 16 59.84 16 0 16 C0 10.72 0 5.44 0 0 Z " fill="#000000" transform="translate(64,320)"/>
<path d="M0 0 C47.52 0 95.04 0 144 0 C144 5.28 144 10.56 144 16 C96.48 16 48.96 16 0 16 C0 10.72 0 5.44 0 0 Z " fill="#000000" transform="translate(240,168)"/>
<path d="M0 0 C42.24 0 84.48 0 128 0 C128 5.28 128 10.56 128 16 C85.76 16 43.52 16 0 16 C0 10.72 0 5.44 0 0 Z " fill="#000000" transform="translate(272,136)"/>
<path d="M0 0 C36.96 0 73.92 0 112 0 C112 5.28 112 10.56 112 16 C75.04 16 38.08 16 0 16 C0 10.72 0 5.44 0 0 Z " fill="#000000" transform="translate(240,200)"/>
<path d="M0 0 C5.28 0 10.56 0 16 0 C16 5.28 16 10.56 16 16 C10.72 16 5.44 16 0 16 C0 10.72 0 5.44 0 0 Z " fill="#000000" transform="translate(64,256)"/>
<path d="M0 0 C5.28 0 10.56 0 16 0 C16 5.28 16 10.56 16 16 C10.72 16 5.44 16 0 16 C0 10.72 0 5.44 0 0 Z " fill="#000000" transform="translate(240,136)"/>
<path d="M0 0 C5.28 0 10.56 0 16 0 C16 5.28 16 10.56 16 16 C10.72 16 5.44 16 0 16 C0 10.72 0 5.44 0 0 Z " fill="#000000" transform="translate(128,48)"/>
<path d="M0 0 C5.28 0 10.56 0 16 0 C16 5.28 16 10.56 16 16 C10.72 16 5.44 16 0 16 C0 10.72 0 5.44 0 0 Z " fill="#000000" transform="translate(96,48)"/>
<path d="M0 0 C5.28 0 10.56 0 16 0 C16 5.28 16 10.56 16 16 C10.72 16 5.44 16 0 16 C0 10.72 0 5.44 0 0 Z " fill="#000000" transform="translate(64,48)"/>
</svg>
