<svg width="290" height="290" viewBox="0 0 290 290" fill="none" xmlns="http://www.w3.org/2000/svg">
<path d="M118.242 75.9898C118.645 76.6008 119.213 77.0841 119.881 77.3828L119.91 77.3963L140.973 87.3275V61.2991L117.612 51.4732V73.944C117.623 74.6719 117.842 75.3815 118.242 75.9898ZM118.242 75.9898L116.896 76.8753M145.001 54.196L121.039 44.144L143.106 33.8154L143.112 33.8125C143.702 33.5332 144.348 33.3882 145.001 33.3882C145.654 33.3882 146.299 33.5332 146.889 33.8125L146.895 33.8154L168.962 44.144L145.001 54.196ZM170.121 77.3828L170.092 77.396L149.028 87.3137V61.2991L172.39 51.4732V73.9711C172.373 74.6935 172.152 75.3966 171.753 75.9992C171.351 76.6059 170.785 77.0857 170.121 77.3828Z" stroke="black" stroke-width="3"/>
<path d="M56.1954 173.411L56.1661 173.398C55.7856 173.227 55.4614 172.952 55.2323 172.604C55.0048 172.258 54.8805 171.855 54.873 171.441V156.514L70.1838 162.954V180.007L56.1954 173.411ZM73.4798 157.149L57.9777 150.646L72.3655 143.911L72.3716 143.908C72.718 143.745 73.0966 143.66 73.4798 143.66C73.8629 143.66 74.2412 143.745 74.5876 143.908L74.5937 143.911L88.9816 150.646L73.4798 157.149ZM90.7934 173.398L90.7647 173.411L76.7755 179.997V162.954L92.0862 156.514V171.458C92.0759 171.868 91.9502 172.267 91.7237 172.609C91.4946 172.955 91.172 173.228 90.7934 173.398Z" stroke="black" stroke-width="3"/>
<path d="M126.959 210.477L126.93 210.463C126.549 210.293 126.225 210.018 125.996 209.669C125.769 209.324 125.644 208.921 125.637 208.507V193.58L140.947 200.02V217.073L126.959 210.477ZM144.243 194.215L128.741 187.712L143.129 180.977L143.136 180.974C143.482 180.81 143.86 180.725 144.243 180.725C144.627 180.725 145.005 180.81 145.351 180.974L145.358 180.977L159.746 187.712L144.243 194.215ZM161.557 210.463L161.528 210.477L147.539 217.063V200.02L162.85 193.58V208.524C162.84 208.934 162.714 209.333 162.487 209.675C162.259 210.021 161.936 210.294 161.557 210.463Z" stroke="black" stroke-width="3"/>
<path d="M103.371 247.543L103.342 247.529C102.961 247.359 102.637 247.084 102.408 246.735C102.181 246.39 102.056 245.987 102.049 245.573V230.646L117.36 237.086V254.138L103.371 247.543ZM120.656 231.281L105.153 224.778L119.541 218.043L119.548 218.04C119.894 217.876 120.272 217.791 120.656 217.791C121.039 217.791 121.417 217.876 121.763 218.04L121.77 218.043L136.157 224.778L120.656 231.281ZM137.969 247.529L137.941 247.543L123.952 254.129V237.086L139.262 230.646V245.59C139.252 246 139.126 246.399 138.899 246.741C138.671 247.087 138.348 247.36 137.969 247.529Z" stroke="black" stroke-width="3"/>
<path d="M56.1954 173.411L56.1661 173.398C55.7856 173.227 55.4614 172.952 55.2323 172.604C55.0048 172.258 54.8805 171.855 54.873 171.441V156.514L70.1838 162.954V180.007L56.1954 173.411ZM73.4798 157.149L57.9777 150.646L72.3655 143.911L72.3716 143.908C72.718 143.745 73.0966 143.66 73.4798 143.66C73.8629 143.66 74.2412 143.745 74.5876 143.908L74.5937 143.911L88.9816 150.646L73.4798 157.149ZM90.7934 173.398L90.7647 173.411L76.7755 179.997V162.954L92.0862 156.514V171.458C92.0759 171.868 91.9502 172.267 91.7237 172.609C91.4946 172.955 91.172 173.228 90.7934 173.398Z" stroke="black" stroke-width="3"/>
<path d="M126.959 210.477L126.93 210.463C126.549 210.293 126.225 210.018 125.996 209.669C125.769 209.324 125.644 208.921 125.637 208.507V193.58L140.947 200.02V217.073L126.959 210.477ZM144.243 194.215L128.741 187.712L143.129 180.977L143.136 180.974C143.482 180.81 143.86 180.725 144.243 180.725C144.627 180.725 145.005 180.81 145.351 180.974L145.358 180.977L159.746 187.712L144.243 194.215ZM161.557 210.463L161.528 210.477L147.539 217.063V200.02L162.85 193.58V208.524C162.84 208.934 162.714 209.333 162.487 209.675C162.259 210.021 161.936 210.294 161.557 210.463Z" stroke="black" stroke-width="3"/>
<path d="M197.721 173.411L197.691 173.398C197.311 173.227 196.987 172.952 196.758 172.604C196.53 172.258 196.406 171.855 196.398 171.441V156.514L211.709 162.954V180.007L197.721 173.411ZM215.005 157.149L199.503 150.646L213.891 143.911L213.897 143.908C214.243 143.745 214.622 143.66 215.005 143.66C215.388 143.66 215.767 143.745 216.113 143.908L216.119 143.911L230.507 150.646L215.005 157.149ZM232.319 173.398L232.29 173.411L218.301 179.997V162.954L233.612 156.514V171.458C233.601 171.868 233.476 172.267 233.249 172.609C233.02 172.955 232.697 173.228 232.319 173.398Z" stroke="black" stroke-width="3"/>
<path d="M79.7833 210.477L79.754 210.463C79.3735 210.293 79.0493 210.018 78.8202 209.669C78.593 209.324 78.4683 208.921 78.4609 208.507V193.58L93.7716 200.02V217.073L79.7833 210.477ZM97.0677 194.215L81.5656 187.712L95.9534 180.977L95.9599 180.974C96.3059 180.81 96.6845 180.725 97.0677 180.725C97.4508 180.725 97.8291 180.81 98.1755 180.974L98.1816 180.977L112.569 187.712L97.0677 194.215ZM114.381 210.463L114.353 210.477L100.363 217.063V200.02L115.674 193.58V208.524C115.664 208.934 115.538 209.333 115.312 209.675C115.082 210.021 114.76 210.294 114.381 210.463Z" stroke="black" stroke-width="3"/>
<path d="M150.545 247.543L150.516 247.529C150.135 247.359 149.811 247.084 149.582 246.735C149.355 246.39 149.23 245.987 149.223 245.573V230.646L164.533 237.086V254.138L150.545 247.543ZM167.829 231.281L152.328 224.778L166.715 218.043L166.722 218.04C167.068 217.876 167.446 217.791 167.829 217.791C168.212 217.791 168.591 217.876 168.937 218.04L168.944 218.043L183.331 224.778L167.829 231.281ZM185.143 247.529L185.114 247.543L171.125 254.129V237.086L186.436 230.646V245.59C186.425 246 186.3 246.399 186.073 246.741C185.844 247.087 185.522 247.36 185.143 247.529Z" stroke="black" stroke-width="3"/>
<path d="M150.545 173.411L150.516 173.398C150.135 173.227 149.811 172.952 149.582 172.604C149.355 172.258 149.23 171.855 149.223 171.441V156.514L164.533 162.954V180.007L150.545 173.411ZM167.829 157.149L152.328 150.646L166.715 143.911L166.722 143.908C167.068 143.745 167.446 143.66 167.829 143.66C168.212 143.66 168.591 143.745 168.937 143.908L168.944 143.911L183.331 150.646L167.829 157.149ZM185.143 173.398L185.114 173.411L171.125 179.997V162.954L186.436 156.514V171.458C186.425 171.868 186.3 172.267 186.073 172.609C185.844 172.955 185.522 173.228 185.143 173.398Z" stroke="black" stroke-width="3"/>
<path d="M103.371 173.411L103.342 173.398C102.961 173.227 102.637 172.952 102.408 172.604C102.181 172.258 102.056 171.855 102.049 171.441V156.514L117.36 162.954V180.007L103.371 173.411ZM120.656 157.149L105.153 150.646L119.541 143.911L119.548 143.908C119.894 143.745 120.272 143.66 120.656 143.66C121.039 143.66 121.417 143.745 121.763 143.908L121.77 143.911L136.157 150.646L120.656 157.149ZM137.969 173.398L137.941 173.411L123.952 179.997V162.954L139.262 156.514V171.458C139.252 171.868 139.126 172.267 138.899 172.609C138.671 172.955 138.348 173.228 137.969 173.398Z" stroke="black" stroke-width="3"/>
<path d="M174.127 210.477L174.098 210.463C173.717 210.293 173.393 210.018 173.164 209.669C172.936 209.324 172.812 208.921 172.805 208.507V193.58L188.115 200.02V217.073L174.127 210.477ZM191.411 194.215L175.909 187.712L190.297 180.977L190.303 180.974C190.65 180.81 191.028 180.725 191.411 180.725C191.795 180.725 192.173 180.81 192.519 180.974L192.525 180.977L206.913 187.712L191.411 194.215ZM208.725 210.463L208.696 210.477L194.707 217.063V200.02L210.018 193.58V208.524C210.008 208.934 209.882 209.333 209.655 209.675C209.426 210.021 209.104 210.294 208.725 210.463Z" stroke="black" stroke-width="3"/>
<path d="M142.312 104.814H145.266V121.865H142.312V104.814Z" fill="black" stroke="black" stroke-width="2"/>
<path d="M136.139 123.61H151.444L143.791 133.814L136.139 123.61Z" fill="black" stroke="black" stroke-width="2"/>
</svg>
