<svg width="300" height="300" viewBox="0 0 300 300" fill="none" xmlns="http://www.w3.org/2000/svg">
<path d="M251.629 200.428C240.151 193.806 226.162 195.583 216.737 203.874L202.423 195.61V154.774C202.423 150.547 200.155 146.617 196.482 144.517L159.753 123.44V105.377C171.69 101.339 180.278 90.087 180.278 76.816C180.278 60.153 166.748 46.6667 150.031 46.6667C133.314 46.6667 119.784 60.153 119.784 76.816C119.784 90.087 128.372 101.339 140.308 105.377V123.44L103.58 144.517C99.9066 146.617 97.6383 150.547 97.6383 154.774V195.583L83.3246 203.847C73.8993 195.556 59.8829 193.779 48.4323 200.401C33.9839 208.746 29.0686 227.159 37.3596 241.561C45.6776 255.962 64.0689 260.915 78.4636 252.597C89.9413 245.975 95.3966 232.946 92.9389 220.618L106.091 212.999L144.062 234.804C145.899 235.854 147.951 236.392 150.004 236.392C152.056 236.392 154.109 235.854 155.945 234.804L193.889 213.026L207.042 220.644C204.584 232.946 210.066 246.002 221.517 252.624C235.911 260.942 254.33 256.016 262.621 241.587C270.939 227.159 266.024 208.746 251.629 200.428ZM69.8753 237.684C68.4086 238.531 66.7883 239.08 65.1076 239.3C63.4266 239.521 61.7189 239.407 60.0823 238.967C58.4459 238.527 56.913 237.768 55.5716 236.735C54.2303 235.701 53.1073 234.414 52.2673 232.946C48.7023 226.782 50.8089 218.868 56.9933 215.314C58.4603 214.468 60.0806 213.918 61.7613 213.698C63.4419 213.478 65.1499 213.591 66.7863 214.032C68.4229 214.472 69.9559 215.231 71.2973 216.264C72.6386 217.297 73.7616 218.585 74.6016 220.052C78.1663 226.217 76.0599 234.131 69.8753 237.684ZM137.041 76.816C137.11 73.4347 138.506 70.2154 140.93 67.8484C143.353 65.4817 146.611 64.156 150.004 64.156C153.397 64.156 156.654 65.4817 159.078 67.8484C161.501 70.2154 162.898 73.4347 162.967 76.816C162.898 80.1974 161.501 83.4167 159.078 85.7837C156.654 88.1504 153.397 89.476 150.004 89.476C146.611 89.476 143.353 88.1504 140.93 85.7837C138.506 83.4167 137.11 80.1974 137.041 76.816ZM182.952 196.929L150.004 215.853L117.056 196.929V159.134L150.004 140.21L182.952 159.134V196.929ZM247.74 232.973C244.175 239.138 236.29 241.264 230.132 237.711C223.975 234.158 221.841 226.244 225.406 220.079C228.971 213.915 236.857 211.788 243.014 215.341C249.199 218.895 251.305 226.782 247.74 232.973Z" stroke="black" stroke-width="6"/>
</svg>
