<svg width="512" height="512" viewBox="0 0 512 512" fill="none" xmlns="http://www.w3.org/2000/svg">
<path d="M235.801 312.886C253.224 319.154 270.667 325 288.751 329.09C300.686 331.796 307.632 335.171 314.591 345.437C317.449 350.631 318.277 355.095 318.251 361C318.256 362.176 318.261 363.351 318.267 364.562C318 368.019 317.24 370.775 316.001 374C335.139 364.951 353.197 353.869 371.376 343.062C375.914 340.369 380.456 337.681 385.001 335C385.602 334.645 386.203 334.291 386.822 333.925C432.963 306.721 432.963 306.721 455.06 311.687C463.771 314.587 470.267 318.942 474.993 326.875C479.097 335.527 479.341 345.733 477.349 355.051C473.324 366.158 464.881 371.808 455.143 377.7C452.864 379.083 450.599 380.488 448.337 381.898C442.902 385.283 437.453 388.643 432.001 392C430.989 392.623 429.978 393.246 428.935 393.889C422.402 397.912 415.867 401.932 409.332 405.952C403.887 409.3 398.444 412.65 393.001 416C390.834 417.333 388.668 418.667 386.501 420C385.429 420.66 384.356 421.32 383.251 422C380.001 424 376.751 426 373.501 428C372.428 428.66 371.354 429.321 370.248 430.002C368.091 431.329 365.933 432.657 363.775 433.985C357.647 437.755 351.521 441.528 345.397 445.305C341.54 447.683 337.68 450.054 333.818 452.422C330.373 454.535 326.941 456.663 323.528 458.828C307.04 469.195 289.857 473.86 270.571 469.485C269.671 469.272 268.77 469.059 267.843 468.839C266.883 468.617 265.923 468.394 264.934 468.164C255.687 465.984 246.526 463.517 237.376 460.965C234.501 460.165 231.624 459.374 228.746 458.584C220.584 456.345 212.424 454.099 204.27 451.828C199.237 450.427 194.199 449.042 189.158 447.668C187.252 447.145 185.348 446.616 183.445 446.08C180.802 445.337 178.154 444.614 175.503 443.897C174.727 443.673 173.951 443.449 173.151 443.219C168.438 441.971 165.588 441.881 161.001 444C159.328 444.989 157.66 445.986 156.001 447C155.341 447 154.681 447 154.001 447C154.483 447.964 154.965 448.928 155.462 449.922C157.308 453.614 159.155 457.307 161.001 461C161.397 461.681 161.793 462.361 162.2 463.062C164.34 468.24 163.941 475.175 162.196 480.418C155.958 491.539 138.284 499.231 127.001 504C121.127 505.645 115.474 505.048 110.001 502.375C103.164 496.962 99.5598 489.983 95.4386 482.437C94.1894 480.178 92.9394 477.919 91.6886 475.66C91.0673 474.535 90.4459 473.41 89.8058 472.25C87.2246 467.601 84.5868 462.986 81.9386 458.375C77.7904 451.138 73.6658 443.888 69.5636 436.625C69.022 435.666 68.4803 434.707 67.9222 433.719C65.2178 428.93 62.5164 424.14 59.8175 419.348C58.7539 417.461 57.6901 415.574 56.6261 413.687C56.1038 412.761 55.5815 411.835 55.0433 410.88C52.019 405.529 48.9659 400.196 45.8839 394.879C45.5389 394.283 45.1938 393.687 44.8383 393.073C43.15 390.159 41.4581 387.248 39.7614 384.339C39.1547 383.293 38.548 382.248 37.923 381.172C37.3825 380.245 36.8421 379.317 36.2853 378.362C33.1258 372.55 33.3512 366.453 34.0011 360C35.6728 354.944 38.7051 351.99 43.1066 349.137C44.3012 348.362 44.3012 348.362 45.5199 347.572C46.7481 346.794 46.7481 346.794 48.0011 346C48.7716 345.511 49.542 345.023 50.3358 344.52C71.5678 331.29 71.5678 331.29 83.2511 333.875C88.7378 335.826 91.6311 339.423 95.0011 344C96.3311 345.669 97.6641 347.336 99.0011 349C99.6526 348.624 100.304 348.248 100.975 347.861C101.899 347.328 102.823 346.795 103.775 346.246C104.814 345.646 105.854 345.046 106.925 344.428C109.253 343.085 111.581 341.742 113.909 340.4C119.926 336.929 125.941 333.457 131.954 329.98C137.355 326.858 142.76 323.744 148.168 320.635C150.694 319.177 153.214 317.708 155.732 316.234C163.553 311.69 171.363 307.797 180.001 305C180.753 304.755 181.504 304.51 182.278 304.258C200.808 299.22 218.59 306.68 235.801 312.886ZM138.273 346.081C132.989 349.18 127.685 352.243 122.378 355.302C120.652 356.297 118.927 357.293 117.202 358.29C116.159 358.891 115.115 359.493 114.04 360.113C113.114 360.647 112.188 361.181 111.234 361.732C109.842 362.522 108.433 363.284 107.001 364C107.583 367.876 108.724 370.615 110.739 373.965C111.306 374.919 111.873 375.872 112.457 376.855C113.07 377.872 113.682 378.889 114.314 379.937C119.115 388.026 123.791 396.155 128.251 404.437C131.951 411.284 135.707 418.089 139.626 424.812C140.04 425.53 140.454 426.248 140.881 426.988C142.833 430.592 142.833 430.592 146.001 433C148.34 431.773 150.566 430.503 152.814 429.125C162.057 423.465 162.057 423.465 168.361 424.61C169.684 424.954 171.004 425.31 172.321 425.676C173.065 425.872 173.809 426.069 174.575 426.272C177.095 426.942 179.61 427.627 182.126 428.312C183.926 428.794 185.725 429.274 187.526 429.753C192.78 431.156 198.03 432.574 203.28 433.994C207.335 435.09 211.391 436.183 215.447 437.276C216.547 437.572 216.547 437.572 217.67 437.874C221.459 438.895 225.249 439.915 229.039 440.934C230.564 441.344 232.089 441.754 233.614 442.165C234.747 442.469 234.747 442.469 235.903 442.78C240.454 444.005 245.005 445.234 249.555 446.467C252.432 447.245 255.31 448.022 258.188 448.798C259.538 449.163 260.888 449.529 262.238 449.896C264.103 450.403 265.97 450.906 267.836 451.409C268.886 451.693 269.937 451.977 271.019 452.27C287.074 456.198 300.027 452.924 314.048 444.441C315.367 443.629 316.684 442.815 318.001 442C319.114 441.317 319.114 441.317 320.249 440.62C324.573 437.967 328.886 435.296 333.193 432.613C339.344 428.782 345.515 424.983 351.689 421.187C353.901 419.827 356.113 418.466 358.325 417.105C359.429 416.427 360.533 415.748 361.671 415.048C367.115 411.7 372.558 408.35 378.001 405C380.168 403.667 382.334 402.333 384.501 401C385.574 400.34 386.646 399.68 387.751 399C397.501 393 397.501 393 400.754 390.998C402.911 389.671 405.068 388.343 407.225 387.015C412.788 383.59 418.354 380.169 423.923 376.754C429.363 373.418 434.795 370.069 440.223 366.712C442.677 365.2 445.138 363.702 447.603 362.207C448.861 361.43 450.119 360.653 451.376 359.875C452.904 358.943 452.904 358.943 454.462 357.992C458.352 354.94 460.662 351.915 461.532 347C461.468 340.87 461.357 336.719 457.001 332C452.447 327.998 448.154 327.583 442.275 327.668C422.684 329.655 404.321 343.481 387.909 353.272C380.032 357.953 372.103 362.547 364.181 367.151C361.409 368.763 358.639 370.377 355.869 371.992C352.998 373.665 350.125 375.332 347.251 377C346.205 377.611 345.158 378.222 344.08 378.851C310.58 398.25 284.825 392.593 248.996 383.062C248.07 382.815 247.143 382.567 246.189 382.312C245.268 382.067 244.347 381.821 243.398 381.568C240.758 380.86 238.119 380.145 235.482 379.426C234.685 379.211 233.888 378.997 233.067 378.776C225.789 376.771 225.789 376.771 223.001 375C221.443 371.884 221.436 368.395 222.001 365C223.553 363.033 224.446 362.108 226.935 361.625C232.698 361.735 237.793 362.719 243.314 364.336C244.167 364.575 245.021 364.815 245.901 365.061C248.604 365.822 251.303 366.598 254.001 367.375C256.7 368.142 259.401 368.905 262.101 369.667C263.773 370.14 265.444 370.616 267.114 371.096C281.832 375.724 281.832 375.724 296.267 372.258C299.081 370.217 299.988 368.292 301.001 365C301.696 360.6 301.386 357.77 299.376 353.75C293.562 347.018 287.498 345.997 279.064 344.25C260.756 340.173 243.218 333.813 225.532 327.644C189.255 314.994 170.001 327.396 138.273 346.081ZM70.4347 353.062C69.31 353.694 68.1853 354.326 67.0265 354.976C65.8305 355.651 64.6345 356.325 63.4386 357C62.2388 357.675 61.039 358.349 59.839 359.023C56.892 360.68 53.9461 362.339 51.0011 364C51.4894 368.718 52.272 372.11 54.7394 376.16C55.3061 377.107 55.8728 378.054 56.4567 379.03C57.0695 380.031 57.6822 381.031 58.3136 382.062C59.6014 384.214 60.8865 386.368 62.1691 388.523C62.8154 389.607 63.4617 390.691 64.1276 391.808C66.9057 396.541 69.525 401.355 72.1261 406.187C76.4291 414.155 80.8476 422.045 85.361 429.895C89.2903 436.736 93.1552 443.612 97.0011 450.5C101.551 458.644 106.126 466.773 110.751 474.875C111.253 475.755 111.754 476.634 112.271 477.541C112.733 478.35 113.196 479.159 113.673 479.992C114.076 480.697 114.479 481.402 114.895 482.128C115.875 483.786 116.933 485.397 118.001 487C124.838 486.663 129.607 483.756 135.376 480.25C136.29 479.724 137.204 479.198 138.146 478.656C139.447 477.875 139.447 477.875 140.775 477.078C141.563 476.608 142.351 476.138 143.163 475.653C145.166 474.101 145.166 474.101 145.924 471.634C146.022 468.276 145.14 466.678 143.458 463.781C142.885 462.777 142.312 461.774 141.722 460.74C141.092 459.671 140.462 458.601 139.814 457.5C139.173 456.386 138.532 455.271 137.872 454.123C136.555 451.834 135.232 449.549 133.902 447.266C131.707 443.494 129.543 439.704 127.383 435.911C125.924 433.349 124.459 430.792 122.993 428.234C118.172 419.813 113.411 411.358 108.642 402.907C107.011 400.018 105.38 397.13 103.747 394.242C103.211 393.293 102.674 392.344 102.122 391.366C101.047 389.466 99.9721 387.566 98.8961 385.667C96.0551 380.65 93.2326 375.623 90.4347 370.582C89.5568 369.008 89.5568 369.008 88.6613 367.402C87.5399 365.391 86.4238 363.377 85.3136 361.359C84.807 360.453 84.3004 359.547 83.7784 358.613C83.3375 357.817 82.8966 357.021 82.4423 356.2C80.8651 353.792 79.1311 351.93 77.0011 350C74.7828 350 72.2715 352.029 70.4347 353.062Z" fill="black"/>
<path d="M302.313 7.37552C303.052 7.38679 303.79 7.39807 304.551 7.4097C316.213 7.92174 324.544 14.7849 333.308 21.8609C340.067 27.2163 346.391 28.24 354.813 28.5005C367.1 29.0631 379.047 30.2317 387.876 39.813C393.954 46.9749 396.036 55.2656 398.063 64.2505C398.545 66.3828 399.036 68.5131 399.536 70.6411C399.851 72.0415 399.851 72.0415 400.173 73.4702C401.05 76.1509 402.271 77.8026 404.001 80.0005C404.001 80.6605 404.001 81.3205 404.001 82.0005C404.593 82.2706 405.186 82.5406 405.796 82.8189C416.345 88.4725 424.32 99.9574 428.001 111.001C429.11 124.815 425.07 134.448 418.731 146.344C415.164 153.166 414.835 158.509 415.938 166.126C417.528 178.472 418.784 190.503 411.313 201.251C405.346 208.52 397.713 212.686 389.001 216.001C388.341 216.001 387.681 216.001 387.001 216.001C387.286 216.615 387.571 217.23 387.864 217.864C390.077 222.639 392.284 227.417 394.482 232.199C394.763 232.81 395.043 233.422 395.333 234.051C395.622 234.681 395.912 235.311 396.21 235.959C398.148 240.17 400.111 244.368 402.087 248.561C403.478 251.518 404.857 254.481 406.233 257.445C406.908 258.891 407.588 260.334 408.274 261.774C409.244 263.815 410.194 265.863 411.141 267.915C411.694 269.09 412.246 270.265 412.814 271.476C414.246 275.73 414.36 278.535 414.001 283.001C412.001 286.438 412.001 286.438 409.001 289.001C402.243 290.514 396.522 289.455 389.813 288.063C387.883 287.675 385.952 287.291 384.02 286.911C383.176 286.737 382.331 286.563 381.461 286.384C378.934 285.99 376.554 285.934 374.001 286.001C373.638 286.671 373.276 287.342 372.903 288.033C371.24 291.092 369.558 294.14 367.876 297.188C367.306 298.243 366.736 299.298 366.149 300.385C359.343 312.643 359.343 312.643 352.876 314.665C351.948 314.645 351.948 314.645 351.001 314.626C350.382 314.638 349.763 314.651 349.126 314.665C344.472 313.21 341.885 310.535 339.512 306.417C337.907 303.122 336.409 299.795 334.938 296.438C334.384 295.203 333.829 293.969 333.272 292.735C332.107 290.155 330.95 287.571 329.796 284.985C327.995 280.969 326.138 276.98 324.266 272.997C323.965 272.353 323.663 271.71 323.352 271.047C322.174 268.537 320.996 266.028 319.814 263.521C319.002 261.795 318.195 260.066 317.388 258.336C316.926 257.352 316.464 256.368 315.988 255.354C315.001 253.001 315.001 253.001 315.001 251.001C313.99 250.856 312.98 250.712 311.938 250.563C309.45 250.207 306.968 249.798 304.501 249.313C300.505 248.956 297.793 249.784 294.001 251.001C292.681 251.001 291.361 251.001 290.001 251.001C289.634 252.203 289.634 252.203 289.26 253.43C287.719 257.801 285.819 261.936 283.86 266.133C283.253 267.443 283.253 267.443 282.634 268.779C281.778 270.624 280.921 272.468 280.062 274.311C278.766 277.094 277.475 279.879 276.184 282.665C274.162 287.025 272.123 291.378 270.071 295.725C269.114 297.759 268.171 299.799 267.229 301.839C266.726 302.901 266.223 303.962 265.704 305.055C265.293 305.934 264.882 306.813 264.459 307.719C262.662 310.531 260.767 312.148 258.001 314.001C253.099 314.701 251.384 314.881 247.177 312.204C242.578 308.142 240.002 302.514 237.126 297.188C236.533 296.114 235.94 295.039 235.329 293.932C233.875 291.294 232.433 288.65 231.001 286.001C228.563 286.288 226.125 286.58 223.688 286.876C222.595 287.008 222.595 287.008 221.479 287.142C217.276 287.666 213.151 288.327 209.001 289.188C204.237 290.068 200.711 290.3 196.001 289.001C192.36 285.89 191.116 284.141 190.634 279.355C190.775 274.31 192.689 270.357 194.876 265.883C195.279 265.027 195.681 264.171 196.096 263.289C197.384 260.561 198.691 257.843 200.001 255.126C201.272 252.451 202.54 249.775 203.807 247.099C204.641 245.337 205.478 243.576 206.316 241.816C210.373 233.282 214.212 224.656 218.001 216.001C217.076 215.699 217.076 215.699 216.132 215.392C215.323 215.126 214.513 214.86 213.679 214.585C212.877 214.323 212.075 214.06 211.248 213.79C201.025 210.201 194.451 203.527 189.763 193.993C186.956 186.653 187.615 178.678 188.626 171.036C190.02 160.233 190.623 152.735 185.001 143.001C184.046 141.139 183.117 139.267 182.19 137.391C181.298 135.595 180.377 133.813 179.454 132.032C175.646 124.088 175.824 114.656 178.438 106.313C181.002 100.081 185.267 95.6873 190.001 91.0005C190.723 90.2658 191.445 89.531 192.188 88.774C194.962 85.9684 197.66 83.2716 200.751 80.813C205.173 75.2854 206.29 67.9443 207.927 61.1685C210.72 49.8218 214.013 41.6748 223.462 34.4732C231.023 30.0877 237.974 29.4189 246.563 28.938C258.57 28.2259 265.831 26.6116 275.376 19.1255C283.783 12.5486 291.305 7.19528 302.313 7.37552ZM285.626 32.8755C275.133 41.0835 266.844 44.8228 253.441 45.2901C240.611 45.4369 240.611 45.4369 229.985 51.7818C225.771 56.8859 224.867 63.0439 223.501 69.3755C220.989 80.9381 217.65 88.88 209.063 97.188C208.207 98.022 207.351 98.8561 206.47 99.7154C204.386 101.644 202.267 103.462 200.063 105.251C195.95 108.724 194.257 112.013 193.563 117.399C193.666 124.847 198.345 131.632 201.647 138.094C206.713 148.432 207.803 157.448 206.063 168.751C204.163 180.321 204.163 180.321 208.001 191.001C213.005 196.314 218.594 198.749 225.313 201.313C238.436 206.696 245.231 213.162 252.379 225.243C256.025 231.333 260.053 236.685 267.001 239.001C273.148 239.492 278.007 237.96 283.751 236.063C299.879 231.061 310.653 232.706 326.563 237.751C331.777 239.34 335.927 239.789 341.126 237.813C348.183 233.364 351.979 226.69 356.276 219.77C363.368 208.738 371.551 204.465 383.6 199.917C390.364 197.196 394.946 194.165 399.001 188.001C400.247 184.261 399.899 180.989 399.626 177.126C399.555 175.987 399.555 175.987 399.482 174.826C399.257 171.323 398.984 167.835 398.638 164.34C398.531 163.259 398.424 162.177 398.313 161.063C398.206 160.126 398.099 159.189 397.989 158.223C398.027 147.723 402.417 139.505 407.188 130.391C410.107 124.6 412.023 120.503 411.001 114.001C408.003 106.965 402.676 102.735 397.02 97.7818C386.581 88.3846 383.645 79.3106 380.723 65.774C379.136 58.9695 377.62 53.4947 372.001 49.0005C365.691 45.48 358.709 45.6438 351.666 45.3318C339.183 44.7751 331.335 41.8169 321.317 34.231C320.667 33.7411 320.016 33.2511 319.345 32.7464C318.063 31.7724 316.79 30.7855 315.529 29.784C304.217 21.1151 296.132 24.6348 285.626 32.8755ZM233.001 227.001C228.065 236.742 223.252 246.542 218.501 256.376C217.96 257.487 217.42 258.599 216.863 259.744C216.111 261.306 216.111 261.306 215.345 262.899C214.893 263.834 214.441 264.769 213.975 265.732C212.869 267.895 212.869 267.895 213.001 270.001C214.897 269.858 216.793 269.712 218.688 269.563C219.744 269.482 220.8 269.401 221.888 269.317C224.93 269.059 224.93 269.059 227.606 268.473C230.007 267.999 232.183 267.867 234.626 267.876C235.381 267.873 236.137 267.87 236.915 267.868C239.001 268.001 239.001 268.001 242.001 269.001C242.73 270.641 243.382 272.316 244.001 274.001C245.303 276.443 246.626 278.85 248.001 281.251C248.535 282.206 248.535 282.206 249.079 283.18C250.927 286.685 250.927 286.685 254.001 289.001C255.82 285.267 257.635 281.532 259.445 277.794C260.061 276.525 260.678 275.257 261.296 273.989C262.188 272.158 263.075 270.326 263.962 268.493C264.496 267.393 265.03 266.293 265.58 265.16C266.935 262.148 268.017 259.151 269.001 256.001C268.311 255.842 267.622 255.683 266.911 255.52C251.586 251.715 245.041 244.591 236.983 231.624C236.013 230.068 235.01 228.532 234.001 227.001C233.671 227.001 233.341 227.001 233.001 227.001ZM371.001 227.001C369.525 229.141 368.159 231.28 366.813 233.501C360.528 243.493 354.762 251.586 342.676 254.576C340.455 255.072 338.231 255.548 336.001 256.001C340.878 267.06 345.842 278.069 351.001 289.001C354.601 285.787 356.8 282.139 359.063 277.938C363.449 269.843 363.449 269.843 366.001 268.001C371.752 266.886 377.826 268.43 383.47 269.555C386.346 270.061 389.086 270.158 392.001 270.001C390.599 265.516 388.852 261.346 386.848 257.098C386.397 256.137 386.397 256.137 385.937 255.156C384.982 253.124 384.023 251.093 383.063 249.063C382.108 247.036 381.154 245.008 380.2 242.98C379.334 241.137 378.464 239.296 377.595 237.454C375.997 233.993 374.486 230.511 373.001 227.001C372.341 227.001 371.681 227.001 371.001 227.001Z" fill="black"/>
<path d="M337.999 59.9996C339.183 60.57 339.183 60.57 340.39 61.152C346.528 64.3393 351.782 68.4852 356.999 72.9996C357.69 73.5939 358.381 74.1881 359.093 74.8004C373.223 87.8928 381.364 107.174 382.319 126.218C383.037 149.903 375.985 170.338 359.999 188C343.245 204.565 322.912 211.312 299.716 211.312C281.041 211.076 264.12 204.228 249.999 192C249.195 191.391 248.39 190.783 247.562 190.156C233.149 178.028 224.374 157.955 222.78 139.462C221.394 116.014 227.868 95.7425 243.312 77.8746C267.711 51.6305 305.637 44.3328 337.999 59.9996ZM256.999 87.9996C244.224 102.568 238.776 118.83 239.844 138.026C241.043 153.265 249.229 168.417 260.434 178.671C276.068 191.94 292.98 195.35 312.999 194C329.05 191.881 342.653 181.904 352.749 169.687C363.559 155.002 367.405 137.912 364.69 119.956C361.307 103.131 351.103 88.8576 337.245 79.0074C311.129 62.8538 278.971 66.2307 256.999 87.9996Z" fill="black"/>
<path d="M346.355 94.5201C350.956 98.3662 353.613 101.552 354.301 107.684C354.328 114.122 354.057 118.699 349.488 123.633C348.332 124.792 347.16 125.935 345.972 127.062C344.11 128.892 342.41 130.779 340.715 132.763C337.218 136.792 333.565 140.629 329.816 144.422C329.157 145.09 328.498 145.757 327.819 146.444C326.436 147.841 325.052 149.236 323.667 150.629C322.261 152.046 320.86 153.468 319.464 154.894C317.424 156.976 315.372 159.044 313.316 161.11C312.702 161.742 312.087 162.375 311.453 163.026C306.861 167.596 301.963 171.215 295.496 172.497C294.817 172.477 294.137 172.458 293.438 172.438C292.415 172.436 292.415 172.436 291.371 172.434C284.242 171.13 279.969 167.559 275.043 162.54C274.414 161.912 273.785 161.284 273.137 160.638C271.817 159.316 270.502 157.99 269.192 156.659C267.188 154.626 265.167 152.613 263.143 150.602C261.858 149.312 260.575 148.02 259.293 146.727C258.39 145.828 258.39 145.828 257.469 144.912C252.818 140.155 250.716 136.364 250.688 129.563C250.821 124.035 251.633 120.373 255.652 116.344C261.258 111.319 265.517 110.627 273.004 110.735C281.447 111.483 286.508 118.172 292 124.001C296.236 122.365 299.001 119.2 302.086 116.004C303.276 114.794 304.466 113.584 305.656 112.374C307.517 110.469 309.376 108.562 311.231 106.653C313.031 104.805 314.839 102.967 316.648 101.129C317.196 100.561 317.743 99.9918 318.306 99.4057C326.096 91.5176 336.415 88.1074 346.355 94.5201ZM332.324 110.323C331.715 110.941 331.106 111.56 330.478 112.198C329.784 112.895 329.09 113.593 328.375 114.311C327.259 115.455 327.259 115.455 326.121 116.622C324.969 117.783 324.969 117.783 323.794 118.969C321.335 121.451 318.886 123.944 316.438 126.438C313.984 128.927 311.528 131.413 309.07 133.897C307.539 135.445 306.011 136.996 304.486 138.551C303.795 139.252 303.104 139.952 302.392 140.674C301.784 141.294 301.176 141.913 300.549 142.552C297.805 145.118 295.091 145.643 291.344 145.602C285.292 144.049 280.9 137.958 276.691 133.622C275.989 132.901 275.286 132.18 274.562 131.438C273.636 130.446 273.636 130.446 272.691 129.434C270.988 127.677 270.988 127.677 268 128.001C268.463 132.286 271.186 134.571 274.129 137.422C274.893 138.18 274.893 138.18 275.672 138.952C277.295 140.559 278.928 142.155 280.562 143.751C281.667 144.84 282.77 145.93 283.873 147.02C286.574 149.688 289.285 152.347 292 155.001C295.383 153.533 297.61 151.648 300.218 149.057C301.038 148.246 301.859 147.435 302.704 146.6C304.019 145.284 304.019 145.284 305.359 143.942C306.264 143.042 307.168 142.142 308.1 141.214C310.009 139.311 311.915 137.406 313.819 135.497C316.261 133.05 318.714 130.614 321.17 128.181C323.511 125.858 325.841 123.524 328.172 121.192C329.056 120.317 329.94 119.442 330.852 118.54C332.063 117.319 332.063 117.319 333.3 116.073C334.374 115 334.374 115 335.47 113.904C337.313 112.018 337.313 112.018 337 109.001C334.037 108.691 334.037 108.691 332.324 110.323Z" fill="black"/>
<path d="M73.0254 362.515C76.5087 363.37 77.9983 365.125 79.998 367.999C80.7104 371.799 80.3107 373.437 78.4355 376.812C75.2716 379.651 73.2065 379.924 68.998 379.999C65.6 378.897 65.0507 378.078 62.998 374.999C62.553 370.994 62.6549 368.671 64.498 365.062C67.3586 362.702 69.322 362.266 73.0254 362.515Z" fill="black"/>
</svg>
