<svg width="44" height="44" viewBox="0 0 44 44" fill="none" xmlns="http://www.w3.org/2000/svg">
<path d="M24.7651 41H19.499C18.878 41.002 18.275 40.7911 17.7907 40.4024C17.3064 40.0137 16.9699 39.4708 16.8374 38.8641L16.1692 35.8985C15.068 35.4296 14.0289 34.8265 13.0754 34.103L10.1906 35.0134C8.95239 35.395 7.60656 34.8709 6.9859 33.7657L4.36073 29.2247C4.05488 28.6856 3.93889 28.0593 4.03133 27.4464C4.12377 26.8335 4.4193 26.2693 4.87056 25.8443L7.10623 23.7892C6.97151 22.6002 6.97098 21.3999 7.10465 20.2108L4.88006 18.1652C4.42699 17.7431 4.12875 17.1811 4.03315 16.5693C3.93755 15.9575 4.05012 15.3313 4.35281 14.7911L6.99381 10.2232C7.60814 9.13068 8.95239 8.60184 10.1874 8.98659L13.0754 9.89701C14.0291 9.17381 15.0682 8.57078 16.1692 8.10151L16.8374 5.13435C16.9702 4.52794 17.3068 3.98536 17.7911 3.597C18.2754 3.20864 18.8782 2.99794 19.499 3.00002H24.7651C26.0508 3.00002 27.1449 3.87876 27.4267 5.13593L28.0949 8.10151C29.1961 8.57043 30.2352 9.17349 31.1887 9.89701L34.0735 8.98659C35.3085 8.60026 36.6559 9.12909 37.2782 10.2343L39.9034 14.7753C40.5319 15.8994 40.3198 17.2848 39.3935 18.1557L37.1579 20.2108C37.2921 21.3998 37.2921 22.6002 37.1579 23.7892L39.384 25.8348L39.3935 25.8443C40.3198 26.7152 40.5335 28.099 39.9113 29.2089L37.2703 33.7768C36.6544 34.8693 35.3101 35.3982 34.0767 35.0134L31.1871 34.1014C30.2334 34.8246 29.1943 35.4276 28.0933 35.8969L27.4251 38.8641C27.2932 39.4708 26.9571 40.0138 26.473 40.4026C25.9889 40.7913 25.386 41.0022 24.7651 41ZM13.3192 31.5934C13.5916 31.5934 13.8591 31.6868 14.0761 31.8642C15.1606 32.7587 16.3481 33.4475 17.6037 33.9114C17.7894 33.9803 17.9551 34.0944 18.0856 34.2434C18.216 34.3924 18.3073 34.5716 18.3511 34.7648L19.157 38.3432C19.1744 38.4221 19.218 38.4929 19.2806 38.544C19.3432 38.5952 19.4213 38.6237 19.5021 38.625H24.7683C24.8489 38.6235 24.9266 38.5951 24.9891 38.5443C25.0517 38.4935 25.0955 38.4233 25.1135 38.3447L25.9194 34.7664C25.9629 34.5731 26.054 34.3937 26.1846 34.2447C26.3151 34.0956 26.4808 33.9816 26.6667 33.913C27.949 33.433 29.1415 32.741 30.1944 31.8657C30.3469 31.7392 30.5287 31.6531 30.7232 31.6152C30.9177 31.5773 31.1186 31.5888 31.3075 31.6488L34.7924 32.7492C34.957 32.7999 35.1344 32.7429 35.212 32.602L37.8529 28.0357C37.8916 27.9613 37.9049 27.8764 37.8909 27.7939C37.8769 27.7113 37.8363 27.6355 37.7754 27.5781L35.1027 25.1207C34.9595 24.9894 34.8508 24.8247 34.7865 24.6413C34.7221 24.4579 34.704 24.2615 34.7338 24.0694C34.8383 23.3727 34.8921 22.6761 34.8921 22C34.8921 21.3239 34.8399 20.6288 34.7338 19.9306C34.7046 19.7385 34.723 19.5423 34.7873 19.359C34.8516 19.1757 34.9599 19.011 35.1027 18.8793L37.7817 16.4156C37.8422 16.3559 37.8812 16.2778 37.8927 16.1936C37.9041 16.1094 37.8874 16.0238 37.845 15.9501L35.2199 11.4107C35.1344 11.2603 34.9634 11.2017 34.7892 11.2523L31.309 12.3512C31.1202 12.4111 30.9193 12.4227 30.7248 12.3848C30.5303 12.3469 30.3485 12.2608 30.196 12.1343C29.1435 11.2585 27.9509 10.5664 26.6683 10.087C26.4826 10.0181 26.317 9.90404 26.1865 9.75502C26.056 9.606 25.9647 9.42678 25.921 9.23359L25.115 5.65526C25.0954 5.57673 25.0505 5.50682 24.9873 5.45621C24.9241 5.4056 24.8461 5.37708 24.7651 5.37501H19.499C19.4184 5.37651 19.3407 5.40491 19.2781 5.45569C19.2156 5.50648 19.1718 5.57673 19.1538 5.65526L18.3479 9.23518C18.3046 9.42831 18.2136 9.60755 18.0834 9.75659C17.9531 9.90564 17.7877 10.0198 17.6021 10.0886C16.3196 10.5679 15.127 11.2601 14.0745 12.1358C13.9217 12.262 13.7399 12.3479 13.5455 12.3858C13.3511 12.4236 13.1503 12.4123 12.9614 12.3528L9.47648 11.2523C9.31181 11.2017 9.13448 11.2603 9.05689 11.3996L6.4159 15.9643C6.37686 16.0393 6.36361 16.1251 6.37821 16.2084C6.39281 16.2917 6.43443 16.3678 6.49665 16.4251L9.16773 18.8793C9.31097 19.0106 9.41958 19.1753 9.48394 19.3587C9.54829 19.5421 9.56639 19.7385 9.53664 19.9306C9.43214 20.6272 9.37831 21.3239 9.37831 22C9.37831 22.6761 9.43056 23.3712 9.53664 24.0694C9.56583 24.2615 9.54746 24.4577 9.48314 24.641C9.41882 24.8243 9.31052 24.989 9.16773 25.1207L6.48873 27.5844C6.42824 27.6441 6.38923 27.7222 6.37777 27.8064C6.36631 27.8906 6.38306 27.9762 6.4254 28.0499L9.05056 32.5893C9.09218 32.6622 9.15822 32.7181 9.23701 32.7471C9.3158 32.776 9.40229 32.7762 9.48123 32.7477L12.9614 31.6488C13.077 31.6117 13.1978 31.593 13.3192 31.5934Z" fill="black"/>
<path d="M20.9466 28.3345C20.7679 28.3347 20.5914 28.2947 20.4304 28.2172C20.2693 28.1398 20.1278 28.027 20.0164 27.8873C19.905 27.7476 19.8266 27.5846 19.787 27.4103C19.7473 27.2361 19.7475 27.0551 19.7876 26.881L22.1626 16.5893C22.2417 16.2917 22.4334 16.0365 22.6972 15.8775C22.961 15.7185 23.2762 15.6682 23.5763 15.7372C23.8765 15.8063 24.1381 15.9892 24.3059 16.2474C24.4737 16.5057 24.5346 16.819 24.4758 17.1213L22.1008 27.413C22.041 27.6745 21.8943 27.908 21.6847 28.0754C21.475 28.2427 21.2148 28.3341 20.9466 28.3345ZM27.2783 26.7511C27.0375 26.7523 26.8021 26.6801 26.6033 26.5441C26.4046 26.4082 26.2519 26.215 26.1656 25.9902C26.0793 25.7654 26.0635 25.5196 26.1203 25.2856C26.1771 25.0516 26.3038 24.8404 26.4835 24.6801L29.4617 22.0012L26.4835 19.3222C26.3675 19.2178 26.2731 19.0916 26.2059 18.9507C26.1386 18.8099 26.0998 18.6572 26.0916 18.5014C26.0749 18.1866 26.184 17.8781 26.3948 17.6438C26.4992 17.5278 26.6254 17.4335 26.7662 17.3662C26.9071 17.299 27.0598 17.2601 27.2156 17.2519C27.5304 17.2353 27.8388 17.3444 28.0731 17.5552L32.0315 21.1177C32.1548 21.2294 32.2534 21.3658 32.3209 21.5179C32.3883 21.6701 32.4232 21.8347 32.4232 22.0012C32.4232 22.1676 32.3883 22.3322 32.3209 22.4844C32.2534 22.6365 32.1548 22.7729 32.0315 22.8846L28.0731 26.4471C27.8549 26.6433 27.5717 26.7516 27.2783 26.7511ZM16.9867 26.7511C16.6932 26.7516 16.41 26.6433 16.1918 26.4471L12.2335 22.8846C12.1101 22.7729 12.0116 22.6365 11.9441 22.4844C11.8766 22.3322 11.8418 22.1676 11.8418 22.0012C11.8418 21.8347 11.8766 21.6701 11.9441 21.5179C12.0116 21.3658 12.1101 21.2294 12.2335 21.1177L16.1918 17.5552C16.4279 17.3566 16.7319 17.2577 17.0397 17.2791C17.3474 17.3005 17.6347 17.4407 17.841 17.67C18.0473 17.8993 18.1565 18.1999 18.1453 18.5081C18.1342 18.8164 18.0038 19.1083 17.7815 19.3222L14.8032 22.0012L17.7815 24.6801C17.9604 24.8408 18.0862 25.0519 18.1425 25.2857C18.1988 25.5194 18.1828 25.7647 18.0967 25.9891C18.0105 26.2136 17.8583 26.4066 17.6601 26.5427C17.4619 26.6787 17.2271 26.7514 16.9867 26.7511Z" fill="black"/>
</svg>
