<svg width="48" height="48" viewBox="0 0 48 48" fill="none" xmlns="http://www.w3.org/2000/svg">
<g clip-path="url(#clip0_603_1231)">
<mask id="mask0_603_1231" style="mask-type:luminance" maskUnits="userSpaceOnUse" x="0" y="0" width="48" height="48">
<path d="M48 0H0V48H48V0Z" fill="white"/>
</mask>
<g mask="url(#mask0_603_1231)">
<path d="M3.54219 1.22818C1.93906 1.60318 0.523437 3.18755 0.139062 5.01568C-0.0671874 5.99068 -0.0671874 32.9063 0.139062 33.872C0.542187 35.7751 1.96719 37.3313 3.63594 37.6782C4.25469 37.8095 10.0109 37.8188 10.3484 37.6876C10.9203 37.472 11.0891 36.6376 10.6484 36.197L10.4047 35.9532L7.14219 35.9063C4.01094 35.8595 3.87031 35.8501 3.50469 35.6532C2.97969 35.372 2.38906 34.6876 2.13594 34.0407L1.92031 33.5157V24.5157V15.5157L22.2922 15.4876L42.6547 15.4688V20.2501V25.0313H42.3078C41.8766 25.0313 41.2016 25.3313 40.8641 25.6501L40.6109 25.8938L39.9734 25.6126C39.6172 25.4626 39.2328 25.3032 39.1203 25.2751C38.9609 25.2282 38.9047 25.1157 38.8578 24.722C38.7453 23.897 38.3422 23.3063 37.6484 22.9501C37.1984 22.7157 35.5578 22.6126 34.7328 22.772C33.7109 22.9595 33.0359 23.6813 32.9328 24.6845L32.8859 25.1813L32.0516 25.5376L31.2172 25.8938L30.9266 25.6407C30.4203 25.2282 30.0828 25.097 29.4828 25.097C29.0984 25.097 28.8078 25.1532 28.5453 25.2938C28.0391 25.5563 26.4828 27.1501 26.2953 27.5813C26.0047 28.2938 26.2109 29.3251 26.7641 29.9063L26.9984 30.1501L26.6328 30.9845L26.2672 31.8282L25.7703 31.8751C25.1891 31.9407 24.8047 32.1188 24.4578 32.5032C23.9609 33.0376 23.8672 33.3282 23.8297 34.6595L23.7922 35.9063H20.8859H17.9797L17.7078 36.1782C17.2484 36.6376 17.3797 37.3782 17.9703 37.6782C18.1109 37.7532 19.4328 37.7813 22.2359 37.7813H26.2953L26.6516 38.6251L27.0172 39.4782L26.7359 39.7876C26.1453 40.4626 26.0047 41.4376 26.3984 42.2063C26.6422 42.6845 28.1328 44.1282 28.6016 44.3438C29.1828 44.6063 29.8484 44.5876 30.4391 44.297C30.7016 44.1657 30.9828 43.9782 31.0672 43.8845C31.2172 43.7157 31.2547 43.7251 32.0516 44.0532L32.8859 44.3907L32.9891 45.0001C33.1203 45.7876 33.4578 46.2657 34.1141 46.6126C34.5828 46.8563 34.6766 46.8751 35.8297 46.8751C36.5047 46.8751 37.2172 46.8282 37.4141 46.772C38.2016 46.5282 38.7828 45.7688 38.8766 44.8501C38.9047 44.5688 38.9797 44.3438 39.0359 44.3438C39.0922 44.3438 39.4766 44.1938 39.8891 44.0157L40.6297 43.6876L40.9203 43.9688C41.5109 44.5407 42.5234 44.7001 43.2641 44.3438C43.7516 44.1095 45.3266 42.5157 45.5141 42.0657C45.8141 41.3345 45.6359 40.3595 45.0922 39.797L44.8109 39.5063L45.1391 38.7657C45.3172 38.3532 45.4672 37.9595 45.4672 37.8938C45.4672 37.8282 45.5984 37.7813 45.8047 37.7813C46.4141 37.7813 46.9016 37.5751 47.3422 37.1251C47.8953 36.572 47.9984 36.2063 47.9984 34.7063C47.9984 33.5532 47.9797 33.4595 47.7359 32.9907C47.3797 32.3063 46.8734 31.9595 46.1234 31.8845L45.5422 31.8282L45.3266 31.2563C45.2047 30.9376 45.0453 30.5532 44.9609 30.3938C44.8297 30.1407 44.8297 30.1032 44.9609 29.9907C45.0453 29.9251 45.2328 29.6532 45.3828 29.3907C45.8797 28.5282 45.7297 27.5907 44.9516 26.7282L44.6328 26.3813L44.6047 15.8345L44.5766 5.29693L44.3234 4.53755C43.8828 3.26255 42.9641 2.09068 42.0172 1.60318C41.0328 1.09693 42.0172 1.12505 22.2172 1.13443C11.9797 1.14381 3.72969 1.1813 3.54219 1.22818ZM40.8078 3.15005C41.3797 3.34693 41.9891 3.93755 42.3359 4.65005L42.6078 5.20318L42.6359 9.39381L42.6641 13.5938H22.2641H1.86406L1.89219 9.48756C1.92031 5.48443 1.92969 5.3813 2.13594 4.86568C2.48281 4.00318 3.17656 3.3188 3.93594 3.08443C4.06719 3.04693 12.3172 3.00943 22.2734 3.00943C38.6141 3.00005 40.4141 3.01881 40.8078 3.15005ZM36.9359 25.3313C36.9359 25.7907 36.9922 26.1188 37.1047 26.3438C37.2453 26.6438 37.3484 26.7001 38.1547 26.9626C38.6422 27.122 39.3922 27.4313 39.8141 27.6376C40.2453 27.8532 40.6859 28.0313 40.8078 28.0313C41.0703 28.0313 41.3516 27.8438 41.9328 27.2907L42.3734 26.8688L43.0766 27.5626C43.4609 27.947 43.7797 28.3032 43.7797 28.3595C43.7797 28.4157 43.5734 28.6688 43.3109 28.922C43.0578 29.1751 42.7953 29.522 42.7391 29.6907C42.6453 29.9813 42.6734 30.0845 43.1047 30.9657C43.3672 31.4907 43.6672 32.222 43.7703 32.5876C44.0516 33.5345 44.2391 33.6845 45.2609 33.7501L46.0766 33.797L46.1047 34.7251C46.1234 35.3251 46.0953 35.6907 46.0203 35.7751C45.9453 35.8688 45.6922 35.9063 45.1859 35.9063C44.2109 35.9063 44.0703 36.0188 43.7328 37.097C43.5922 37.5563 43.2922 38.2876 43.0578 38.7376C42.6734 39.4782 42.6453 39.572 42.7391 39.8626C42.7953 40.0407 43.0578 40.3876 43.3109 40.6407C43.5734 40.8938 43.7797 41.147 43.7797 41.2032C43.7797 41.3251 42.4484 42.6563 42.3172 42.6563C42.2703 42.6563 41.9984 42.422 41.7172 42.1407C41.0234 41.4376 40.8547 41.4188 39.8609 41.9345C39.4109 42.1688 38.6797 42.4688 38.2297 42.6001C37.1516 42.9282 37.0297 43.0782 37.0297 44.0626C37.0297 44.5688 36.9922 44.822 36.8984 44.897C36.8141 44.972 36.4484 45.0001 35.8484 44.9813L34.9203 44.9532L34.8734 44.1376C34.8078 43.1157 34.6578 42.9282 33.7109 42.647C33.3453 42.5345 32.6234 42.2345 32.1078 41.9813C31.2547 41.5501 31.1516 41.522 30.8422 41.6157C30.6641 41.672 30.3078 41.9251 30.0453 42.1876C29.7922 42.4407 29.5391 42.6563 29.4828 42.6563C29.4266 42.6563 29.0797 42.347 28.6953 41.9626C27.9359 41.2032 27.9172 41.1001 28.4891 40.697C28.8266 40.4532 29.1547 39.9376 29.1547 39.6563C29.1547 39.5345 28.9672 39.0751 28.7422 38.6345C28.5172 38.1938 28.2359 37.5095 28.1234 37.1251C27.8141 36.1032 27.6547 35.9626 26.6422 35.9063L25.8266 35.8595L25.7984 34.8001L25.7703 33.7501H26.4547C26.9141 33.7501 27.2422 33.6938 27.4672 33.5813C27.7672 33.4407 27.8234 33.3376 28.1234 32.4376C28.3109 31.8938 28.6203 31.1626 28.8078 30.8063C28.9953 30.4501 29.1547 30.0751 29.1547 29.9813C29.1547 29.7001 28.9203 29.3251 28.4609 28.8751C28.2266 28.6501 28.0297 28.4157 28.0297 28.3688C28.0297 28.2095 29.2766 27.0001 29.4359 27.0001C29.5203 27.0001 29.7547 27.1688 29.9516 27.3845C30.3828 27.8251 30.7391 28.0313 31.0672 28.0313C31.1891 28.0313 31.6578 27.8438 32.0891 27.6188C32.5297 27.3845 33.1953 27.1032 33.5797 27.0001C34.0484 26.8595 34.3484 26.7095 34.5266 26.522C34.7609 26.2688 34.7797 26.1845 34.7797 25.5188C34.7797 25.1157 34.8078 24.7501 34.8453 24.722C34.8734 24.6845 35.3609 24.6563 35.9234 24.6563H36.9359V25.3313Z" fill="white"/>
<path d="M7.96875 5.29692C7.3875 5.4563 6.6 5.96254 6.30938 6.35629C5.78438 7.06879 5.67188 7.41567 5.67188 8.3438C5.67188 9.08442 5.70938 9.30942 5.8875 9.66567C6.23438 10.3687 6.70313 10.8375 7.37813 11.175C7.93125 11.4469 8.1 11.4844 8.76562 11.4844C9.39375 11.4844 9.60938 11.4375 10.0781 11.2219C10.8 10.8844 11.4563 10.1906 11.7188 9.48755C12 8.7563 11.9531 7.65004 11.625 6.98442C10.9688 5.63441 9.38438 4.91255 7.96875 5.29692ZM9.58125 7.37817C10.1531 7.8938 10.1719 8.74692 9.62813 9.25317C9.19688 9.64692 8.74687 9.7313 8.27812 9.5063C7.40624 9.07505 7.24688 8.01567 7.95938 7.3688C8.34375 7.01255 9.1875 7.02192 9.58125 7.37817Z" fill="white"/>
<path d="M16.2113 5.27803C14.5894 5.7374 13.5956 7.2749 13.8863 8.87803C14.0831 9.94678 14.7206 10.7624 15.7425 11.2405C16.4831 11.5874 17.5331 11.5874 18.2925 11.2311C18.9675 10.9218 19.5488 10.3499 19.8675 9.66553C20.0738 9.2249 20.1113 9.00928 20.1113 8.34365C20.1113 7.65928 20.0738 7.47178 19.8488 7.0124C19.1925 5.67178 17.5706 4.89365 16.2113 5.27803ZM17.8144 7.39678C18.3769 7.80928 18.405 8.70928 17.8706 9.24365C17.4581 9.65615 17.0081 9.73115 16.4831 9.47803C15.9769 9.23428 15.7519 8.86865 15.7519 8.30615C15.7519 7.9499 15.8081 7.81865 16.0613 7.5374C16.5394 7.0124 17.2331 6.95615 17.8144 7.39678Z" fill="white"/>
<path d="M27.4381 5.2594C25.5162 5.7094 24.4287 7.8469 25.2068 9.61877C25.4693 10.2 26.1818 10.9219 26.8006 11.2219L27.3256 11.4844H32.2943C37.2631 11.4844 37.2631 11.4844 37.7224 11.2688C38.4349 10.95 38.9318 10.4813 39.2787 9.8344C40.0381 8.40002 39.6162 6.67502 38.2662 5.7469C37.4412 5.17502 37.1974 5.15627 32.2474 5.16565C29.8006 5.17502 27.6349 5.21252 27.4381 5.2594ZM37.2068 7.30315C37.7787 7.71565 37.9381 8.45627 37.5631 9.0094C37.1318 9.66565 37.1881 9.65627 32.4256 9.65627C30.0724 9.65627 28.0099 9.62815 27.8412 9.60002C27.4381 9.51565 26.9412 9.0094 26.8662 8.58752C26.7818 8.16565 27.0631 7.4719 27.3818 7.30315C27.8412 7.0594 28.2162 7.04065 32.4818 7.0594L36.8881 7.07815L37.2068 7.30315Z" fill="white"/>
<path d="M34.5012 29.2124C32.9262 29.6249 31.4543 30.8155 30.77 32.2593C30.2825 33.2624 30.1512 33.9655 30.2075 35.1843C30.245 35.9436 30.3106 36.2718 30.5168 36.7968C31.2012 38.5124 32.4106 39.6749 34.145 40.2843C35.0262 40.603 36.5637 40.6405 37.4543 40.3686C39.4043 39.7874 40.9137 38.278 41.495 36.328C41.7481 35.4749 41.7293 34.078 41.4575 33.1874C40.8575 31.2468 39.1887 29.653 37.295 29.203C36.5543 29.0343 35.1762 29.0343 34.5012 29.2124ZM37.5387 31.2936C39.9575 32.428 40.5387 35.5218 38.7106 37.453C36.8543 39.4218 33.6668 38.9343 32.4668 36.4968C32.1762 35.9061 32.12 35.6811 32.0825 35.0249C32.0356 34.0593 32.2043 33.4218 32.7106 32.6624C33.17 31.9686 33.8825 31.4249 34.6793 31.1436C35.57 30.8343 36.6762 30.8905 37.5387 31.2936Z" fill="white"/>
<path d="M14.8386 20.9063C14.7261 20.9532 14.5667 21.0938 14.4823 21.2157C14.3042 21.4876 12.4573 29.1188 12.4386 29.6532C12.4292 29.9532 12.4761 30.0657 12.7292 30.2907C13.2636 30.7688 14.0136 30.5719 14.2386 29.8782C14.4542 29.2126 16.1323 22.0594 16.1417 21.7876C16.1417 21.3938 15.9917 21.1219 15.6542 20.9532C15.3542 20.7938 15.148 20.7844 14.8386 20.9063Z" fill="white"/>
<path d="M8.56747 21.6844C8.17372 21.9094 5.52997 24.975 5.41747 25.3313C5.22997 25.9594 5.39872 26.2594 6.89872 27.9469C7.64872 28.7906 8.35184 29.5594 8.45497 29.6438C8.56747 29.7469 8.80184 29.8125 9.03622 29.8125C9.57997 29.8125 9.93622 29.4469 9.93622 28.9031C9.93622 28.5469 9.86122 28.4344 8.71747 27.1406C8.05184 26.3906 7.49872 25.7344 7.49872 25.6969C7.49872 25.6594 7.74247 25.3594 8.04247 25.0219C10.0018 22.8094 9.93622 22.8938 9.93622 22.4906C9.93622 21.7781 9.17684 21.3281 8.56747 21.6844Z" fill="white"/>
<path d="M18.955 21.7969C18.6268 22.0781 18.5331 22.4437 18.7018 22.8281C18.7675 22.9781 19.3393 23.6812 19.9581 24.375C20.5768 25.0687 21.0925 25.6687 21.0925 25.6969C21.0925 25.7344 20.5581 26.3531 19.9112 27.0844C18.505 28.6687 18.355 29.025 18.9081 29.5687C19.0862 29.7562 19.2456 29.8125 19.5362 29.8125C19.7425 29.8125 19.9862 29.7562 20.0706 29.6906C20.4831 29.3812 23.0706 26.3531 23.1643 26.0812C23.3612 25.4906 23.2112 25.1906 22.1425 23.9719C21.5893 23.3437 20.8675 22.5469 20.53 22.1906C19.9956 21.6469 19.8737 21.5625 19.5737 21.5625C19.3487 21.5625 19.1425 21.6375 18.955 21.7969Z" fill="white"/>
<path d="M13.676 36.0467C13.1323 36.3467 13.1041 37.1155 13.6198 37.5561C13.8635 37.7624 13.976 37.7905 14.2854 37.753C14.8104 37.678 15.0916 37.3405 15.0916 36.7967C15.0916 36.4592 15.0448 36.3561 14.801 36.1499C14.4823 35.878 14.0604 35.8405 13.676 36.0467Z" fill="white"/>
</g>
</g>
<defs>
<clipPath id="clip0_603_1231">
<rect width="48" height="48" fill="white"/>
</clipPath>
</defs>
</svg>
