<?xml version="1.0" encoding="UTF-8"?>
<svg version="1.1" xmlns="http://www.w3.org/2000/svg" width="512" height="512">
<path d="M0 0 C0.99604248 0.27287842 0.99604248 0.27287842 2.01220703 0.55126953 C23.21724369 6.46121624 41.7880677 18.38951703 58 33 C58.71542969 33.63164063 59.43085938 34.26328125 60.16796875 34.9140625 C83.38452034 56.64666955 97.65077323 89.57674266 100 121 C100.10672542 124.68907494 100.09588371 128.37231643 100.0625 132.0625 C100.05798828 133.02349609 100.05347656 133.98449219 100.04882812 134.97460938 C100.03717706 137.31647422 100.02082025 139.65820181 100 142 C100.58950439 142.17088135 101.17900879 142.3417627 101.78637695 142.51782227 C110.27586805 145.13310945 116.10886879 149.43505598 120.9296875 157.046875 C125.10500254 165.07786374 126.15609554 171.99105882 126.203125 180.9140625 C126.20882507 181.76495453 126.21452515 182.61584656 126.22039795 183.49252319 C126.22981287 185.28943656 126.23636792 187.08636691 126.24023438 188.88330078 C126.24989562 191.59569489 126.28093394 194.30731599 126.3125 197.01953125 C126.40099546 211.32470742 125.58110702 223.80154715 115.37109375 234.74609375 C111.12215095 238.69928647 106.37950737 240.926267 101 243 C100.97421875 244.07636719 100.9484375 245.15273437 100.921875 246.26171875 C100.35187129 262.83757923 96.66630374 277.44758488 84.1953125 289.18359375 C71.31812111 299.83820941 58.13385663 300.98946686 42 300 C40.84886719 299.80792969 39.69773437 299.61585938 38.51171875 299.41796875 C36.00880928 298.73549201 36.00880928 298.73549201 34.0625 300.0625 C32.47072163 302.96515467 33.27845604 304.80576504 34 308 C34.92473594 310.40814851 35.88308187 312.731858 36.94140625 315.078125 C37.3721067 316.05709747 37.3721067 316.05709747 37.81150818 317.05584717 C38.72207673 319.12347887 39.6415996 321.18695172 40.5625 323.25 C41.48583199 325.32779731 42.40714971 327.4064233 43.32420349 329.48699951 C43.89341304 330.77751363 44.46642401 332.0663591 45.04359436 333.35333252 C47 337.77625721 47 337.77625721 47 340 C47.67708008 340.24242432 48.35416016 340.48484863 49.05175781 340.73461914 C52.62383853 342.2677505 55.86613596 344.22009289 59.171875 346.24609375 C60.57273816 347.09209253 61.97378575 347.93778598 63.375 348.78320312 C65.56020703 350.10710376 67.74368645 351.43364196 69.92382812 352.76586914 C80.88922383 359.66229008 80.88922383 359.66229008 93 364 C93.95938477 364.22840576 94.91876953 364.45681152 95.90722656 364.69213867 C99.18272191 365.44658145 102.46538543 366.1614081 105.75 366.875 C127.55912725 371.8035648 145.64324175 379.76065507 158.3125 399.25 C165.96543652 412.34054931 168.21468213 424.9660101 168.29516602 439.94750977 C168.30665348 441.43198198 168.32705416 442.91641394 168.35668945 444.40063477 C168.64231506 458.74733794 165.99906585 470.36038396 156 481.16015625 C147.61450166 489.17130199 137.53076921 492.54412816 126.375 495 C125.26600342 495.24854736 124.15700684 495.49709473 123.0144043 495.75317383 C72.87258425 506.60277561 21.33452308 508.37523107 -29.78320312 508.31567383 C-34.07302393 508.31106286 -38.36255974 508.31791085 -42.65234375 508.33618164 C-199.35306395 508.99651424 -199.35306395 508.99651424 -230.25 481.5 C-240.01638472 471.10937213 -242.20436242 459.02379195 -242.24023438 445.31323242 C-242.24983295 443.1010012 -242.28082563 440.88974352 -242.3125 438.67773438 C-242.40319393 426.81341843 -241.03007506 415.63011369 -235.5 404.9375 C-235.15960693 404.27049072 -234.81921387 403.60348145 -234.46850586 402.91625977 C-226.65706628 388.38646081 -212.66176853 376.41110559 -196.94482422 371.33642578 C-189.75362491 369.22681568 -182.49373573 367.37518085 -175.09375 366.17578125 C-158.17450088 363.19811258 -145.11960397 354.25198838 -131 345 C-123.31146081 340 -123.31146081 340 -121 340 C-120.43539062 338.16695313 -120.43539062 338.16695313 -119.859375 336.296875 C-117.40219747 328.91377923 -113.97030082 321.92538215 -110.67578125 314.88671875 C-110.18980469 313.81550781 -109.70382813 312.74429687 -109.203125 311.640625 C-108.75614258 310.67672852 -108.30916016 309.71283203 -107.84863281 308.71972656 C-106.88148882 305.62019145 -106.97873683 304.05670635 -108 301 C-109.61556846 298.98630932 -111.19750082 297.20165731 -113 295.375 C-114.00371557 294.32130416 -115.00497481 293.26526367 -116.00390625 292.20703125 C-116.50680176 291.6754541 -117.00969727 291.14387695 -117.52783203 290.59619141 C-121.23178792 286.58019413 -124.59453222 282.26863585 -128 278 C-128.6909375 277.1646875 -129.381875 276.329375 -130.09375 275.46875 C-137.21314974 266.24854378 -140.66822499 254.58256644 -140 243 C-140.99 243.33 -141.98 243.66 -143 244 C-147.49517071 244.29077434 -151.99650085 244.27796396 -156.5 244.3125 C-157.72976562 244.34150391 -158.95953125 244.37050781 -160.2265625 244.40039062 C-171.69654756 244.47953596 -181.5253153 242.06581834 -190 234 C-198.34806981 224.85506898 -200.15151563 215.04135213 -200.16796875 202.98046875 C-200.17296135 201.69345818 -200.17296135 201.69345818 -200.17805481 200.38044739 C-200.18310003 198.57093844 -200.18546388 196.76142027 -200.18530273 194.9519043 C-200.18748473 192.2067097 -200.20565372 189.46192029 -200.22460938 186.71679688 C-200.22754483 184.95052219 -200.22952861 183.18424562 -200.23046875 181.41796875 C-200.23765427 180.60829147 -200.24483978 179.7986142 -200.25224304 178.96440125 C-200.20859433 167.88727306 -197.40524662 158.52322862 -189.8125 150.25 C-185.82954243 146.48636829 -179.67126094 142 -174 142 C-174.05220703 140.07414062 -174.05220703 140.07414062 -174.10546875 138.109375 C-174.83216008 99.43242782 -161.94891081 64.02341819 -134.92578125 35.9609375 C-117.92926223 18.6604157 -97.23309121 6.83175134 -74 0 C-73.29053223 -0.21172852 -72.58106445 -0.42345703 -71.85009766 -0.64160156 C-49.52010241 -6.9700215 -22.21858713 -6.4243337 0 0 Z M-113 41 C-113.78761719 41.65355469 -114.57523438 42.30710937 -115.38671875 42.98046875 C-138.78649641 63.14762406 -153.51810434 92.16721936 -156 123 C-156.19585651 129.00089472 -156.12248271 134.99834717 -156 141 C-150.72 141.33 -145.44 141.66 -140 142 C-139.84144531 140.46472656 -139.68289062 138.92945313 -139.51953125 137.34765625 C-136.56450132 110.42574392 -128.95171111 86.94927638 -111 66 C-110.32324219 65.17757812 -109.64648438 64.35515625 -108.94921875 63.5078125 C-94.02431213 45.99082886 -71.95082867 33.75189792 -49 31 C-19.46989583 29.58430776 7.1224346 35.28341082 30 55 C30.67417969 55.52980469 31.34835937 56.05960938 32.04296875 56.60546875 C49.20810357 70.48147594 60.48360027 93.45851097 64 115 C64.49417693 119.68058161 64.82040239 124.36620399 65.125 129.0625 C65.25455078 130.93325195 65.25455078 130.93325195 65.38671875 132.84179688 C65.59722367 135.89411817 65.79945407 138.9470082 66 142 C73.92 141.505 73.92 141.505 82 141 C82.74923399 109.7819172 75.33717174 81.34399862 55 57 C54.18015625 56.01644531 53.3603125 55.03289063 52.515625 54.01953125 C33.43588653 31.87385395 6.19309307 16.98198485 -23 14 C-56.48407826 11.73165969 -86.97951721 19.10528745 -113 41 Z M-88 68 C-88.72678955 68.67337402 -88.72678955 68.67337402 -89.46826172 69.36035156 C-104.51600521 83.45141108 -115.42989789 100.74670594 -120 121 C-119.67 121.66 -119.34 122.32 -119 123 C-118.12601562 122.25556641 -118.12601562 122.25556641 -117.234375 121.49609375 C-99.32146125 106.65316051 -77.33309596 97.93380668 -53.859375 98.59765625 C-51 99 -51 99 -48.0625 100.9375 C-47.381875 101.948125 -46.70125 102.95875 -46 104 C-30.81053157 125.69324634 -4.78969795 133.74043828 20.15234375 138.203125 C27.14126057 139.38164017 33.9035402 140.12586125 41 140.0625 C41.67933594 140.05798828 42.35867188 140.05347656 43.05859375 140.04882812 C44.70576874 140.0372283 46.35289726 140.01930199 48 140 C49.06364857 115.14213889 41.8577866 93.67001036 25.6875 74.6875 C11.41572498 59.65292321 -9.7349592 48.59233543 -30.65234375 47.76171875 C-52.3079625 47.30257454 -71.85172668 53.01813486 -88 68 Z M-114 142 C-114.67043839 142.56953903 -115.34087677 143.13907806 -116.03163147 143.72587585 C-122.46521118 150.13446213 -122.88580749 156.09504345 -122.99014378 164.71853161 C-122.98310114 167.76113032 -122.93614052 170.80156696 -122.88671875 173.84375 C-122.87939919 175.98025698 -122.87520438 178.11677673 -122.87397766 180.2532959 C-122.86324291 184.71873391 -122.82627402 189.18287844 -122.76831055 193.64794922 C-122.69475794 199.35056556 -122.66906962 205.05207211 -122.66089153 210.75511932 C-122.65227521 215.16317595 -122.62711152 219.57100647 -122.59613991 223.97895813 C-122.58163907 226.0807359 -122.57011554 228.18253654 -122.56171227 230.28434753 C-122.54566021 233.22967444 -122.50954264 236.17408311 -122.4675293 239.11914062 C-122.46574677 239.97449905 -122.46396423 240.82985748 -122.46212769 241.71113586 C-122.16625727 257.09326297 -114.28624849 266.69645228 -104.12988281 277.52783203 C-101.18980208 280.66667594 -98.42849706 283.88044061 -95.75 287.25 C-91.818847 292.12491355 -87.64743441 296.73444314 -83.375 301.3125 C-82.44252441 302.31748535 -82.44252441 302.31748535 -81.49121094 303.34277344 C-73.71984217 311.76331934 -73.71984217 311.76331934 -63.875 317.3125 C-63.06804687 317.61800781 -62.26109375 317.92351562 -61.4296875 318.23828125 C-54.33394336 320.46283126 -47.17454379 320.25684445 -39.81054688 320.29516602 C-38.28441036 320.30661526 -36.75831162 320.32695366 -35.23242188 320.35668945 C-19.87753059 320.65518267 -7.9689788 318.37381509 3.53125 307.63671875 C8.25087016 303.06285157 12.40924665 298.50582181 16 293 C11.29593201 291.13459373 7.05255964 289.63156995 2 289 C1.505 290.0725 1.01 291.145 0.5 292.25 C-1.61058192 295.91379185 -3.88310343 297.50012966 -7.609375 299.37109375 C-15.94203306 301.5631819 -24.03489664 298.77513311 -32.125 296.6875 C-33.37410156 296.37876953 -34.62320313 296.07003906 -35.91015625 295.75195312 C-46.13232941 293.16095406 -54.08983007 290.28740989 -60 281 C-62.97653405 274.73361252 -63.12100719 267.0356259 -61.27734375 260.3984375 C-58.12182931 252.75877096 -53.1861469 248.72615024 -46 245 C-36.57827756 241.85942585 -26.47394989 244.92957142 -17.1875 247.25 C-15.90423828 247.55035156 -14.62097656 247.85070312 -13.29882812 248.16015625 C0.5574726 251.54677161 0.5574726 251.54677161 4.8125 257.5625 C6.45579881 262.31941762 6.74183772 266.99699306 7 272 C10.059771 272.84357963 13.1232046 273.6730202 16.1875 274.5 C17.05181641 274.73847656 17.91613281 274.97695313 18.80664062 275.22265625 C19.64775391 275.44824219 20.48886719 275.67382812 21.35546875 275.90625 C22.12528076 276.11572266 22.89509277 276.32519531 23.68823242 276.54101562 C26.24006933 277.04766399 28.40616259 277.24429494 31 277 C33.09672394 275.07800306 34.74748002 273.3249589 36.5 271.125 C36.98194824 270.53654297 37.46389648 269.94808594 37.96044922 269.34179688 C45.39540354 260.02096449 48.16438698 251.86229205 48.11352539 240.07885742 C48.11374443 238.74639984 48.11374443 238.74639984 48.1139679 237.38702393 C48.11327293 234.45981376 48.1055 231.53266775 48.09765625 228.60546875 C48.09579059 226.57237279 48.09436739 224.53927638 48.09336853 222.50617981 C48.08955499 217.16161859 48.07973462 211.81708464 48.06866455 206.47253418 C48.05842543 201.01619842 48.05386555 195.55985823 48.04882812 190.10351562 C48.03811132 179.40233178 48.02104885 168.70116816 48 158 C47.30060806 157.94792389 46.60121613 157.89584778 45.88063049 157.8421936 C42.65057069 157.599361 39.42100167 157.35049221 36.19140625 157.1015625 C35.09171509 157.0197876 33.99202393 156.9380127 32.85900879 156.85375977 C2.55164713 154.4953407 -33.50797956 146.50668596 -54.32421875 122.296875 C-55.48025362 120.75549517 -56.60246021 119.18732249 -57.66796875 117.58203125 C-58.10753906 117.05996094 -58.54710937 116.53789063 -59 116 C-79.54009658 116 -99.77470208 127.96054836 -114 142 Z M-176 163 C-176.7425 163.598125 -177.485 164.19625 -178.25 164.8125 C-182.24826006 169.81032507 -182.30854446 176.08300448 -182.30078125 182.2421875 C-182.30506638 183.00999542 -182.3093515 183.77780334 -182.31376648 184.56887817 C-182.31947746 186.18409241 -182.32003405 187.79933234 -182.31567383 189.41455078 C-182.31251747 191.86145752 -182.33599988 194.30714882 -182.36132812 196.75390625 C-182.80039325 209.41566585 -182.80039325 209.41566585 -177.65405273 220.56176758 C-173.21464123 224.55603291 -168.73361367 226.25034344 -162.83984375 226.265625 C-161.88142578 226.26820313 -160.92300781 226.27078125 -159.93554688 226.2734375 C-158.45151367 226.26183594 -158.45151367 226.26183594 -156.9375 226.25 C-155.94427734 226.25773437 -154.95105469 226.26546875 -153.92773438 226.2734375 C-152.97060547 226.27085937 -152.01347656 226.26828125 -151.02734375 226.265625 C-149.72398071 226.26224121 -149.72398071 226.26224121 -148.39428711 226.25878906 C-145.77651884 225.9758448 -144.2053699 225.42604207 -142 224 C-139.7550152 220.6325228 -139.73597224 219.45203326 -139.69360352 215.50634766 C-139.67761612 214.38152985 -139.66162872 213.25671204 -139.64515686 212.09780884 C-139.63979416 210.88217255 -139.63443146 209.66653625 -139.62890625 208.4140625 C-139.61987778 207.16499115 -139.6108493 205.9159198 -139.60154724 204.6289978 C-139.58702654 201.98428942 -139.57735843 199.34001354 -139.57446289 196.6953125 C-139.56908126 193.31331453 -139.5314113 189.93251231 -139.48571873 186.55085182 C-139.4487459 183.31782655 -139.4474318 180.08477079 -139.44140625 176.8515625 C-139.42187393 175.63997467 -139.40234161 174.42838684 -139.38221741 173.18008423 C-139.36694643 166.56622237 -139.36694643 166.56622237 -142.17578125 160.73608398 C-145.34153679 158.7900529 -147.05465342 158.36837078 -150.74609375 158.37109375 C-151.83083984 158.36916016 -152.91558594 158.36722656 -154.03320312 158.36523438 C-155.71833008 158.40100586 -155.71833008 158.40100586 -157.4375 158.4375 C-158.55705078 158.42654297 -159.67660156 158.41558594 -160.83007812 158.40429688 C-167.18586924 158.46087662 -171.17409828 158.7423222 -176 163 Z M66 164 C65.2667195 168.27242537 65.32363486 172.49065384 65.37109375 176.81640625 C65.36868179 178.06501938 65.36626984 179.31363251 65.36378479 180.6000824 C65.36476374 183.2377677 65.37556596 185.87317999 65.40307617 188.51049805 C65.43719567 191.88578202 65.431125 195.2595467 65.4124136 198.63490391 C65.39928969 201.86215963 65.41756034 205.08918337 65.43359375 208.31640625 C65.42863388 209.52688126 65.42367401 210.73735626 65.41856384 211.98451233 C65.43440018 213.10925461 65.45023651 214.23399689 65.46655273 215.39282227 C65.47275131 216.38145767 65.47894989 217.37009308 65.4853363 218.38868713 C66.1401068 221.71087722 67.41535392 222.88443252 70 225 C73.81273115 226.90636558 78.43027218 226.27180083 82.625 226.3125 C83.59824219 226.34150391 84.57148438 226.37050781 85.57421875 226.40039062 C93.23612777 226.46741944 98.80173578 225.11409937 104.375 219.6875 C107.79286083 214.03488401 108.30890775 208.19804163 108.30078125 201.72265625 C108.30720894 200.56738686 108.30720894 200.56738686 108.31376648 199.38877869 C108.3194769 197.76936826 108.32003447 196.1499322 108.31567383 194.53051758 C108.31251302 192.07262843 108.33601593 189.61594402 108.36132812 187.15820312 C108.36360162 185.57552233 108.36430438 183.99283834 108.36328125 182.41015625 C108.372491 181.68594986 108.38170074 180.96174347 108.39118958 180.21559143 C108.33802992 174.26235482 107.21745825 168.60267371 103.24609375 163.94140625 C102.64925781 163.48636719 102.05242187 163.03132812 101.4375 162.5625 C100.83808594 162.08941406 100.23867188 161.61632812 99.62109375 161.12890625 C94.87546256 157.8241173 89.2812911 158.69378893 83.6875 158.625 C82.54603516 158.58761719 81.40457031 158.55023438 80.22851562 158.51171875 C78.57432617 158.49431641 78.57432617 158.49431641 76.88671875 158.4765625 C75.87826904 158.45674316 74.86981934 158.43692383 73.83081055 158.41650391 C69.61944662 159.28456426 68.39537198 160.39455311 66 164 Z M66 243 C65.5875 245.59875 65.175 248.1975 64.75 250.875 C63.08447249 260.57598344 60.70618866 268.49246458 54.3671875 276.2109375 C52.95766485 278.05539856 51.97253546 279.89747096 51 282 C59.52240062 282.61981095 65.57678522 280.18095837 72.25 274.875 C77.29042666 270.21688115 80.7996228 263.78963355 82 257 C82.06790675 254.75092848 82.08499984 252.49998395 82.0625 250.25 C82.041875 248.1875 82.02125 246.125 82 244 C76.72 243.67 71.44 243.34 66 243 Z M-45 266 C-45.83333333 269 -45.83333333 269 -45 272 C-40.62694724 278.35443593 -33.87025214 278.84813041 -26.6875 280.3125 C-25.46998047 280.57611328 -24.25246094 280.83972656 -22.99804688 281.11132812 C-20.00183537 281.75756982 -17.0030413 282.3864276 -14 283 C-13.49595192 280.89679937 -12.99689492 278.79240209 -12.5 276.6875 C-12.2215625 275.51574219 -11.943125 274.34398437 -11.65625 273.13671875 C-10.89760916 270.04470156 -10.89760916 270.04470156 -11 267 C-14.71624229 266.00319543 -18.43319697 265.0093519 -22.15234375 264.0234375 C-24.29272605 263.45411754 -26.43198352 262.88033333 -28.56640625 262.2890625 C-35.83542851 260.32599974 -40.17370115 259.47030155 -45 266 Z M-93 319 C-94.70600233 322.90886389 -96.38652672 326.82817765 -98.0625 330.75 C-98.54783203 331.86117188 -99.03316406 332.97234375 -99.53320312 334.1171875 C-99.98759766 335.18710937 -100.44199219 336.25703125 -100.91015625 337.359375 C-101.33433838 338.34389648 -101.75852051 339.32841797 -102.19555664 340.34277344 C-103.04940806 343.16320405 -103.09358449 344.31076801 -102 347 C-89.81216198 365.2521749 -69.4802702 378.10609484 -49 385 C-47.93394531 385.39703125 -46.86789063 385.7940625 -45.76953125 386.203125 C-32.82644547 390.25487359 -20.32623012 384.17920178 -8.82470703 378.2956543 C5.0710949 370.81954024 21.04258745 359.87548821 29 346 C29.06062383 340.11082754 25.78198907 334.42433517 23.4375 329.125 C23.01275391 328.15046875 22.58800781 327.1759375 22.15039062 326.171875 C21.10624496 323.77855235 20.05597786 321.38811986 19 319 C18.34 319 17.68 319 17 319 C15.88909921 320.14561644 14.77831003 321.29134126 13.66796875 322.4375 C-0.11224346 335.3463639 -16.0775651 337.37412004 -34.11083984 337.37060547 C-36.59934201 337.37495515 -39.08603151 337.41130258 -41.57421875 337.44921875 C-59.7581329 337.57865408 -76.34622485 333.91573325 -90 321 C-90.33 320.34 -90.66 319.68 -91 319 C-91.66 319 -92.32 319 -93 319 Z M42 358 C41.28457031 358.88300781 40.56914062 359.76601563 39.83203125 360.67578125 C24.29216712 379.5365582 5.6685089 391.95112656 -17 401 C-16.6596875 401.44988281 -16.319375 401.89976562 -15.96875 402.36328125 C-9.67311969 410.71838636 -3.41159817 419.03704053 2 428 C26.50759416 416.47080327 55.38007305 398.28089214 69 374 C60.14244564 368.37650878 51.31006751 362.85228095 42 358 Z M-127.7565918 364.24389648 C-128.9595121 364.95569615 -130.1652555 365.66274652 -131.3737793 366.36499023 C-133.11092097 367.3745482 -134.83883035 368.39994014 -136.56640625 369.42578125 C-137.60740479 370.03848877 -138.64840332 370.65119629 -139.72094727 371.2824707 C-140.47303467 371.84925537 -141.22512207 372.41604004 -142 373 C-142 377.38978718 -139.27639156 379.55243782 -136.5 382.6875 C-135.94900635 383.31744873 -135.3980127 383.94739746 -134.83032227 384.59643555 C-119.21735989 402.3182091 -98.49423877 419.7103765 -76 428 C-75.36384766 426.96552734 -75.36384766 426.96552734 -74.71484375 425.91015625 C-71.31650171 420.46534011 -67.80531283 415.26121687 -63.7734375 410.265625 C-61.4111679 407.24774754 -59.2139815 404.12828785 -57 401 C-57.52730713 400.77973145 -58.05461426 400.55946289 -58.59790039 400.33251953 C-80.39096841 391.13284133 -99.93294441 379.02061043 -114.4609375 359.94921875 C-114.96882813 359.30597656 -115.47671875 358.66273438 -116 358 C-119.71257419 358 -124.60948849 362.37477841 -127.7565918 364.24389648 Z M-209.74609375 400.58203125 C-221.2663725 412.94087448 -224.18821684 425.24209169 -224.375 441.6875 C-224.41238281 442.91662109 -224.44976562 444.14574219 -224.48828125 445.41210938 C-224.5728372 454.22002062 -223.22595493 460.90485244 -217.51269531 467.79321289 C-209.78345113 475.25859349 -197.82848108 476.95595742 -187.6875 479 C-186.42623291 479.25563721 -185.16496582 479.51127441 -183.86547852 479.7746582 C-163.86537424 483.74853818 -143.67619098 485.98406643 -123.375 487.6875 C-122.28733841 487.77890762 -122.28733841 487.77890762 -121.17770386 487.87216187 C-102.068744 489.45272482 -83.01255537 490.1608057 -63.83984375 490.16796875 C-61.75509114 490.17119914 -59.67033874 490.17456438 -57.58558655 490.17805481 C-53.23828611 490.18399256 -48.89100537 490.18590053 -44.54370117 490.18530273 C-40.16638009 490.18522192 -35.78916465 490.19210199 -31.41186523 490.20581055 C1.29975772 490.30658728 33.82944195 489.79361508 66.375 486.1875 C67.14654419 486.1045166 67.91808838 486.0215332 68.7130127 485.93603516 C83.93708069 484.28868638 98.96663195 481.92957941 114 479 C114.93328125 478.8246875 115.8665625 478.649375 116.828125 478.46875 C128.15270183 476.32445143 137.99147117 474.20310733 145.7109375 465.0390625 C150.4435431 457.55294092 150.48834957 451.11188054 150.4375 442.375 C150.45748047 441.18003906 150.47746094 439.98507812 150.49804688 438.75390625 C150.48981019 423.5489891 145.6449152 410.94165971 135.3125 399.75 C123.7265854 389.05866638 110.10241357 386.02499764 95 383 C94.16299561 382.80229004 93.32599121 382.60458008 92.46362305 382.40087891 C90.16564382 381.96090669 88.32174657 381.70763837 86 382 C83.45788235 384.06849117 82.0447166 385.54582783 80.1875 388.125 C79.16526089 389.42514697 78.1404527 390.72327751 77.11328125 392.01953125 C76.59975098 392.6842041 76.0862207 393.34887695 75.55712891 394.03369141 C61.75897494 411.45770082 44.32317286 425.47140749 25.125 436.5 C24.26994873 436.99218018 23.41489746 437.48436035 22.53393555 437.99145508 C5.20152632 447.69874332 5.20152632 447.69874332 -4 446 C-9.76215634 443.34054323 -11.93995738 439.25435889 -15 434 C-23.99450634 418.71352126 -23.99450634 418.71352126 -38 409 C-48.44639426 417.40156815 -55.71845918 427.40658171 -61.9140625 439.2265625 C-63.90214074 442.47328021 -66.65871908 444.32935954 -70 446 C-76.56056092 446.75309057 -81.60777043 445.47538525 -87.5 442.6875 C-88.27118164 442.33212158 -89.04236328 441.97674316 -89.83691406 441.6105957 C-116.55186786 428.88698685 -140.76050692 407.56744341 -158.17578125 383.8359375 C-158.77777344 383.23007812 -159.37976563 382.62421875 -160 382 C-177.56508478 382 -197.03412684 388.40057981 -209.74609375 400.58203125 Z " fill="#000000" transform="translate(293,4)"/>
</svg>
