<svg width="80" height="78" viewBox="0 0 80 78" fill="none" xmlns="http://www.w3.org/2000/svg">
<path d="M5.92969 1.04687C3.25781 1.67187 0.898438 4.31249 0.257812 7.35937C-0.0859375 8.98437 -0.0859375 53.8437 0.257812 55.4531C0.929688 58.625 3.30469 61.2187 6.08594 61.7969C7.11719 62.0156 16.7109 62.0312 17.2734 61.8125C18.2266 61.4531 18.5078 60.0625 17.7734 59.3281L17.3672 58.9219L11.9297 58.8437C6.71094 58.7656 6.47656 58.75 5.86719 58.4219C4.99219 57.9531 4.00781 56.8125 3.58594 55.7344L3.22656 54.8594V39.8594V24.8594L37.1797 24.8125L71.1172 24.7812V32.75V40.7187H70.5391C69.8203 40.7187 68.6953 41.2187 68.1328 41.75L67.7109 42.1562L66.6484 41.6875C66.0547 41.4375 65.4141 41.1719 65.2266 41.125C64.9609 41.0469 64.8672 40.8594 64.7891 40.2031C64.6016 38.8281 63.9297 37.8437 62.7734 37.25C62.0234 36.8594 59.2891 36.6875 57.9141 36.9531C56.2109 37.2656 55.0859 38.4687 54.9141 40.1406L54.8359 40.9687L53.4453 41.5625L52.0547 42.1562L51.5703 41.7344C50.7266 41.0469 50.1641 40.8281 49.1641 40.8281C48.5234 40.8281 48.0391 40.9219 47.6016 41.1562C46.7578 41.5937 44.1641 44.25 43.8516 44.9687C43.3672 46.1562 43.7109 47.875 44.6328 48.8437L45.0234 49.25L44.4141 50.6406L43.8047 52.0469L42.9766 52.125C42.0078 52.2344 41.3672 52.5312 40.7891 53.1719C39.9609 54.0625 39.8047 54.5469 39.7422 56.7656L39.6797 58.8437H34.8359H29.9922L29.5391 59.2969C28.7734 60.0625 28.9922 61.2969 29.9766 61.7969C30.2109 61.9219 32.4141 61.9687 37.0859 61.9687H43.8516L44.4453 63.375L45.0547 64.7969L44.5859 65.3125C43.6016 66.4375 43.3672 68.0625 44.0234 69.3437C44.4297 70.1406 46.9141 72.5469 47.6953 72.9062C48.6641 73.3437 49.7734 73.3125 50.7578 72.8281C51.1953 72.6094 51.6641 72.2969 51.8047 72.1406C52.0547 71.8594 52.1172 71.875 53.4453 72.4219L54.8359 72.9844L55.0078 74C55.2266 75.3125 55.7891 76.1094 56.8828 76.6875C57.6641 77.0937 57.8203 77.125 59.7422 77.125C60.8672 77.125 62.0547 77.0469 62.3828 76.9531C63.6953 76.5469 64.6641 75.2812 64.8203 73.75C64.8672 73.2812 64.9922 72.9062 65.0859 72.9062C65.1797 72.9062 65.8203 72.6562 66.5078 72.3594L67.7422 71.8125L68.2266 72.2812C69.2109 73.2344 70.8984 73.5 72.1328 72.9062C72.9453 72.5156 75.5703 69.8594 75.8828 69.1094C76.3828 67.8906 76.0859 66.2656 75.1797 65.3281L74.7109 64.8437L75.2578 63.6094C75.5547 62.9219 75.8047 62.2656 75.8047 62.1562C75.8047 62.0469 76.0234 61.9687 76.3672 61.9687C77.3828 61.9687 78.1953 61.625 78.9297 60.875C79.8516 59.9531 80.0234 59.3437 80.0234 56.8437C80.0234 54.9219 79.9922 54.7656 79.5859 53.9844C78.9922 52.8437 78.1484 52.2656 76.8984 52.1406L75.9297 52.0469L75.5703 51.0937C75.3672 50.5625 75.1016 49.9219 74.9609 49.6562C74.7422 49.2344 74.7422 49.1719 74.9609 48.9844C75.1016 48.875 75.4141 48.4219 75.6641 47.9844C76.4922 46.5469 76.2422 44.9844 74.9453 43.5469L74.4141 42.9687L74.3672 25.3906L74.3203 7.82812L73.8984 6.56249C73.1641 4.43749 71.6328 2.48437 70.0547 1.67187C68.4141 0.828117 70.0547 0.874992 37.0547 0.890617C19.9922 0.906242 6.24219 0.968742 5.92969 1.04687ZM68.0391 4.24999C68.9922 4.57812 70.0078 5.56249 70.5859 6.74999L71.0391 7.67187L71.0859 14.6562L71.1328 21.6562H37.1328H3.13281L3.17969 14.8125C3.22656 8.14062 3.24219 7.96874 3.58594 7.10937C4.16406 5.67187 5.32031 4.53124 6.58594 4.14062C6.80469 4.07812 20.5547 4.01562 37.1484 4.01562C64.3828 3.99999 67.3828 4.03124 68.0391 4.24999ZM61.5859 41.2187C61.5859 41.9844 61.6797 42.5312 61.8672 42.9062C62.1016 43.4062 62.2734 43.5 63.6172 43.9375C64.4297 44.2031 65.6797 44.7187 66.3828 45.0625C67.1016 45.4219 67.8359 45.7187 68.0391 45.7187C68.4766 45.7187 68.9453 45.4062 69.9141 44.4844L70.6484 43.7812L71.8203 44.9375C72.4609 45.5781 72.9922 46.1719 72.9922 46.2656C72.9922 46.3594 72.6484 46.7812 72.2109 47.2031C71.7891 47.625 71.3516 48.2031 71.2578 48.4844C71.1016 48.9687 71.1484 49.1406 71.8672 50.6094C72.3047 51.4844 72.8047 52.7031 72.9766 53.3125C73.4453 54.8906 73.7578 55.1406 75.4609 55.25L76.8203 55.3281L76.8672 56.875C76.8984 57.875 76.8516 58.4844 76.7266 58.625C76.6016 58.7812 76.1797 58.8437 75.3359 58.8437C73.7109 58.8437 73.4766 59.0312 72.9141 60.8281C72.6797 61.5937 72.1797 62.8125 71.7891 63.5625C71.1484 64.7969 71.1016 64.9531 71.2578 65.4375C71.3516 65.7344 71.7891 66.3125 72.2109 66.7344C72.6484 67.1562 72.9922 67.5781 72.9922 67.6719C72.9922 67.875 70.7734 70.0937 70.5547 70.0937C70.4766 70.0937 70.0234 69.7031 69.5547 69.2344C68.3984 68.0625 68.1172 68.0312 66.4609 68.8906C65.7109 69.2812 64.4922 69.7812 63.7422 70C61.9453 70.5469 61.7422 70.7969 61.7422 72.4375C61.7422 73.2812 61.6797 73.7031 61.5234 73.8281C61.3828 73.9531 60.7734 74 59.7734 73.9687L58.2266 73.9219L58.1484 72.5625C58.0391 70.8594 57.7891 70.5469 56.2109 70.0781C55.6016 69.8906 54.3984 69.3906 53.5391 68.9687C52.1172 68.25 51.9453 68.2031 51.4297 68.3594C51.1328 68.4531 50.5391 68.875 50.1016 69.3125C49.6797 69.7344 49.2578 70.0937 49.1641 70.0937C49.0703 70.0937 48.4922 69.5781 47.8516 68.9375C46.5859 67.6719 46.5547 67.5 47.5078 66.8281C48.0703 66.4219 48.6172 65.5625 48.6172 65.0937C48.6172 64.8906 48.3047 64.125 47.9297 63.3906C47.5547 62.6562 47.0859 61.5156 46.8984 60.875C46.3828 59.1719 46.1172 58.9375 44.4297 58.8437L43.0703 58.7656L43.0234 57L42.9766 55.25H44.1172C44.8828 55.25 45.4297 55.1562 45.8047 54.9687C46.3047 54.7344 46.3984 54.5625 46.8984 53.0625C47.2109 52.1562 47.7266 50.9375 48.0391 50.3437C48.3516 49.75 48.6172 49.125 48.6172 48.9687C48.6172 48.5 48.2266 47.875 47.4609 47.125C47.0703 46.75 46.7422 46.3594 46.7422 46.2812C46.7422 46.0156 48.8203 44 49.0859 44C49.2266 44 49.6172 44.2812 49.9453 44.6406C50.6641 45.375 51.2578 45.7187 51.8047 45.7187C52.0078 45.7187 52.7891 45.4062 53.5078 45.0312C54.2422 44.6406 55.3516 44.1719 55.9922 44C56.7734 43.7656 57.2734 43.5156 57.5703 43.2031C57.9609 42.7812 57.9922 42.6406 57.9922 41.5312C57.9922 40.8594 58.0391 40.25 58.1016 40.2031C58.1484 40.1406 58.9609 40.0937 59.8984 40.0937H61.5859V41.2187Z" fill="black"/>
<path d="M13.3047 7.82812C12.3359 8.09375 11.0234 8.9375 10.5391 9.59375C9.66406 10.7812 9.47656 11.3594 9.47656 12.9062C9.47656 14.1406 9.53906 14.5156 9.83594 15.1094C10.4141 16.2812 11.1953 17.0625 12.3203 17.625C13.2422 18.0781 13.5234 18.1406 14.6328 18.1406C15.6797 18.1406 16.0391 18.0625 16.8203 17.7031C18.0234 17.1406 19.1172 15.9844 19.5547 14.8125C20.0234 13.5937 19.9453 11.75 19.3984 10.6406C18.3047 8.39062 15.6641 7.1875 13.3047 7.82812ZM15.9922 11.2969C16.9453 12.1562 16.9766 13.5781 16.0703 14.4219C15.3516 15.0781 14.6016 15.2187 13.8203 14.8437C12.3672 14.125 12.1016 12.3594 13.2891 11.2812C13.9297 10.6875 15.3359 10.7031 15.9922 11.2969Z" fill="black"/>
<path d="M27.0409 7.79686C24.3378 8.56248 22.6815 11.125 23.1659 13.7969C23.494 15.5781 24.5565 16.9375 26.2596 17.7344C27.494 18.3125 29.244 18.3125 30.5096 17.7187C31.6346 17.2031 32.6034 16.25 33.1346 15.1094C33.4784 14.375 33.5409 14.0156 33.5409 12.9062C33.5409 11.7656 33.4784 11.4531 33.1034 10.6875C32.0096 8.45311 29.3065 7.15623 27.0409 7.79686ZM29.7128 11.3281C30.6503 12.0156 30.6971 13.5156 29.8065 14.4062C29.119 15.0937 28.369 15.2187 27.494 14.7969C26.6503 14.3906 26.2753 13.7812 26.2753 12.8437C26.2753 12.25 26.369 12.0312 26.7909 11.5625C27.5878 10.6875 28.744 10.5937 29.7128 11.3281Z" fill="black"/>
<path d="M45.7587 7.76562C42.5556 8.51562 40.7431 12.0781 42.04 15.0312C42.4775 16 43.665 17.2031 44.6962 17.7031L45.5712 18.1406H53.8525C62.1337 18.1406 62.1337 18.1406 62.8994 17.7812C64.0869 17.25 64.915 16.4687 65.4931 15.3906C66.7587 13 66.0556 10.125 63.8056 8.57812C62.4306 7.625 62.0244 7.59375 53.7744 7.60937C49.6962 7.625 46.0869 7.6875 45.7587 7.76562ZM62.04 11.1719C62.9931 11.8594 63.2587 13.0937 62.6337 14.0156C61.915 15.1094 62.0087 15.0937 54.0712 15.0937C50.1494 15.0937 46.7119 15.0469 46.4306 15C45.7587 14.8594 44.9306 14.0156 44.8056 13.3125C44.665 12.6094 45.1337 11.4531 45.665 11.1719C46.4306 10.7656 47.0556 10.7344 54.165 10.7656L61.5087 10.7969L62.04 11.1719Z" fill="black"/>
<path d="M57.5241 47.6875C54.8991 48.375 52.446 50.3594 51.3054 52.7656C50.4929 54.4375 50.2741 55.6094 50.3679 57.6406C50.4304 58.9062 50.5398 59.4531 50.8835 60.3281C52.0241 63.1875 54.0398 65.125 56.9304 66.1406C58.3991 66.6719 60.9616 66.7344 62.446 66.2812C65.696 65.3125 68.2116 62.7969 69.1804 59.5469C69.6023 58.125 69.571 55.7969 69.1179 54.3125C68.1179 51.0781 65.3366 48.4219 62.1804 47.6719C60.946 47.3906 58.6491 47.3906 57.5241 47.6875ZM62.5866 51.1562C66.6179 53.0469 67.5866 58.2031 64.5398 61.4219C61.446 64.7031 56.1335 63.8906 54.1335 59.8281C53.6491 58.8437 53.5554 58.4687 53.4929 57.375C53.4148 55.7656 53.696 54.7031 54.5398 53.4375C55.3054 52.2812 56.4929 51.375 57.821 50.9062C59.3054 50.3906 61.1491 50.4844 62.5866 51.1562Z" fill="black"/>
<path d="M24.7596 33.8437C24.5721 33.9218 24.3065 34.1562 24.1659 34.3593C23.869 34.8124 20.7909 47.5312 20.7596 48.4218C20.744 48.9218 20.8221 49.1093 21.244 49.4843C22.1346 50.2812 23.3846 49.9531 23.7596 48.7968C24.119 47.6874 26.9159 35.7656 26.9315 35.3124C26.9315 34.6562 26.6815 34.2031 26.119 33.9218C25.619 33.6562 25.2753 33.6406 24.7596 33.8437Z" fill="black"/>
<path d="M14.3065 35.1406C13.6502 35.5156 9.24396 40.625 9.05646 41.2188C8.74396 42.2656 9.02521 42.7656 11.5252 45.5781C12.7752 46.9844 13.9471 48.2656 14.119 48.4063C14.3065 48.5781 14.6971 48.6875 15.0877 48.6875C15.994 48.6875 16.5877 48.0781 16.5877 47.1719C16.5877 46.5781 16.4627 46.3906 14.5565 44.2344C13.4471 42.9844 12.5252 41.8906 12.5252 41.8281C12.5252 41.7656 12.9315 41.2656 13.4315 40.7031C16.6971 37.0156 16.5877 37.1563 16.5877 36.4844C16.5877 35.2969 15.3221 34.5469 14.3065 35.1406Z" fill="black"/>
<path d="M31.6189 35.3281C31.0721 35.7969 30.9158 36.4062 31.1971 37.0469C31.3064 37.2969 32.2596 38.4688 33.2908 39.625C34.3221 40.7812 35.1814 41.7812 35.1814 41.8281C35.1814 41.8906 34.2908 42.9219 33.2127 44.1406C30.8689 46.7812 30.6189 47.375 31.5408 48.2812C31.8377 48.5938 32.1033 48.6875 32.5877 48.6875C32.9314 48.6875 33.3377 48.5938 33.4783 48.4844C34.1658 47.9688 38.4783 42.9219 38.6346 42.4688C38.9627 41.4844 38.7127 40.9844 36.9314 38.9531C36.0096 37.9062 34.8064 36.5781 34.2439 35.9844C33.3533 35.0781 33.1502 34.9375 32.6502 34.9375C32.2752 34.9375 31.9314 35.0625 31.6189 35.3281Z" fill="black"/>
<path d="M22.8194 59.0781C21.9132 59.5781 21.8663 60.8593 22.7257 61.5937C23.1319 61.9374 23.3194 61.9843 23.835 61.9218C24.71 61.7968 25.1788 61.2343 25.1788 60.3281C25.1788 59.7656 25.1007 59.5937 24.6944 59.2499C24.1632 58.7968 23.46 58.7343 22.8194 59.0781Z" fill="black"/>
</svg>
