<svg width="300" height="300" viewBox="0 0 300 300" fill="none" xmlns="http://www.w3.org/2000/svg">
<mask id="mask0_368_601" style="mask-type:luminance" maskUnits="userSpaceOnUse" x="50" y="40" width="121" height="120">
<path d="M68.91 159.341V131.023H62.829C54.7943 131.023 50 126.22 50 118.185V52.019C50 45.2803 55.633 40 62.829 40H157.36C164.67 40 170.189 45.166 170.189 52.019V118.194C170.189 125.991 165.156 131.033 157.36 131.033H97.7037L68.91 159.341Z" fill="white"/>
</mask>
<g mask="url(#mask0_368_601)">
<path d="M68.9107 131.023H75.5773V124.357H68.9107V131.023ZM97.7043 131.033V124.366H94.9763L93.0307 126.279L97.7043 131.033ZM75.5773 159.341V131.023H62.244V159.341H75.5773ZM68.9107 124.357H62.8297V137.69H68.9107V124.357ZM62.8297 124.357C60.1433 124.357 58.792 123.58 58.1187 122.906C57.4443 122.23 56.6673 120.875 56.6673 118.185H43.334C43.334 123.529 44.954 128.593 48.6857 132.329C52.418 136.065 57.4813 137.69 62.8297 137.69V124.357ZM56.6673 118.185V52.019H43.334V118.185H56.6673ZM56.6673 52.019C56.6673 49.364 58.9003 46.6667 62.8297 46.6667V33.3334C52.367 33.3334 43.334 41.1967 43.334 52.019H56.6673ZM62.8297 46.6667H157.36V33.3334H62.8297V46.6667ZM157.36 46.6667C161.407 46.6667 163.523 49.2524 163.523 52.019H176.856C176.856 41.0797 167.935 33.3334 157.36 33.3334V46.6667ZM163.523 52.019V118.194H176.856V52.019H163.523ZM163.523 118.194C163.523 120.632 162.765 122.042 161.982 122.826C161.2 123.608 159.795 124.366 157.36 124.366V137.699C162.723 137.699 167.732 135.936 171.415 132.249C175.098 128.562 176.856 123.553 176.856 118.194H163.523ZM157.36 124.366H97.7043V137.699H157.36V124.366ZM93.0307 126.279L64.237 154.587L73.5843 164.095L102.378 135.787L93.0307 126.279Z" fill="black"/>
</g>
<mask id="mask1_368_601" style="mask-type:luminance" maskUnits="userSpaceOnUse" x="130" y="143" width="121" height="120">
<path d="M231.279 262.674V234.357H237.36C245.395 234.357 250.189 229.553 250.189 221.518V155.352C250.189 148.614 244.556 143.333 237.36 143.333H142.829C135.519 143.333 130 148.499 130 155.352V221.528C130 229.324 135.032 234.366 142.829 234.366H202.485L231.279 262.674Z" fill="white"/>
</mask>
<g mask="url(#mask1_368_601)">
<path d="M231.28 234.357H224.613V227.69H231.28V234.357ZM202.486 234.366V227.699H205.214L207.159 229.612L202.486 234.366ZM224.613 262.674V234.357H237.946V262.674H224.613ZM231.28 227.69H237.36V241.023H231.28V227.69ZM237.36 227.69C240.047 227.69 241.398 226.913 242.071 226.239C242.746 225.564 243.523 224.208 243.523 221.518H256.856C256.856 226.862 255.236 231.926 251.505 235.662C247.772 239.398 242.709 241.023 237.36 241.023V227.69ZM243.523 221.518V155.352H256.856V221.518H243.523ZM243.523 155.352C243.523 152.697 241.29 150 237.36 150V136.667C247.823 136.667 256.856 144.53 256.856 155.352H243.523ZM237.36 150H142.83V136.667H237.36V150ZM142.83 150C138.783 150 136.667 152.586 136.667 155.352H123.334C123.334 144.413 132.255 136.667 142.83 136.667V150ZM136.667 155.352V221.528H123.334V155.352H136.667ZM136.667 221.528C136.667 223.966 137.425 225.375 138.208 226.159C138.99 226.942 140.396 227.699 142.83 227.699V241.033C137.467 241.033 132.458 239.27 128.775 235.582C125.092 231.895 123.334 226.886 123.334 221.528H136.667ZM142.83 227.699H202.486V241.033H142.83V227.699ZM207.159 229.612L235.953 257.92L226.606 267.428L197.812 239.12L207.159 229.612Z" fill="black"/>
</g>
</svg>
