<svg width="512" height="512" viewBox="0 0 512 512" fill="none" xmlns="http://www.w3.org/2000/svg">
<path d="M392.999 57.0009C394.065 57.7576 395.131 58.5143 396.229 59.2939C406.422 66.7443 416.285 74.8496 424.999 84.0009C425.782 84.7846 426.566 85.5684 427.374 86.3759C428.24 87.2421 429.106 88.1084 429.999 89.0009C430.95 89.9 430.95 89.9 431.92 90.8173C473.472 130.821 495.516 191.656 497.284 248.403C498.186 298.371 485.674 348.562 456.999 390.001C455.952 391.513 455.952 391.513 454.885 393.056C448.452 402.074 441.494 410.581 434.022 418.755C432.424 420.528 430.915 422.318 429.436 424.188C426.897 427.118 424.21 429.541 421.26 432.044C419.71 433.385 418.193 434.766 416.706 436.177C402.184 449.932 385.646 460.702 367.999 470.001C367.161 470.444 366.324 470.887 365.461 471.344C309.374 500.599 242.236 504.624 182.151 486.098C146.715 474.672 112.816 455.116 86.9985 428.001C86.2148 427.217 85.431 426.433 84.6235 425.626C83.7573 424.76 82.891 423.893 81.9985 423.001C81.3643 422.401 80.7301 421.802 80.0766 421.184C38.5255 381.18 16.4809 320.346 14.7134 263.599C13.8113 213.631 26.3226 163.44 54.9985 122.001C55.6959 120.993 56.3933 119.985 57.1118 118.946C63.5448 109.927 70.5028 101.421 77.9751 93.247C79.5726 91.4736 81.0824 89.6841 82.561 87.8134C85.1 84.8838 87.7868 82.4608 90.7368 79.9579C92.2871 78.6165 93.8044 77.2362 95.2915 75.8251C109.813 62.0694 126.351 51.2996 143.999 42.0009C144.836 41.5576 145.673 41.1143 146.536 40.6576C222.796 0.880445 322.845 6.53141 392.999 57.0009ZM261.999 27.0009C261.999 56.0409 261.999 85.0809 261.999 115.001C268.269 115.661 274.539 116.321 280.999 117.001C284.429 117.622 287.656 118.24 290.999 119.126C291.813 119.337 292.628 119.548 293.468 119.765C315.29 125.719 333.517 136.965 350.999 151.001C355.043 149.384 357.765 146.516 360.777 143.481C361.343 142.919 361.909 142.356 362.493 141.776C364.359 139.918 366.218 138.054 368.077 136.188C369.371 134.895 370.666 133.603 371.961 132.31C374.671 129.603 377.377 126.893 380.081 124.18C383.553 120.696 387.035 117.221 390.519 113.748C393.192 111.082 395.861 108.412 398.528 105.739C399.81 104.456 401.094 103.173 402.379 101.893C404.17 100.107 405.955 98.3145 407.738 96.5204C408.274 95.9884 408.81 95.4564 409.362 94.9083C412.155 92.4207 412.155 92.4207 412.999 89.0009C410.578 86.4185 407.722 84.2535 404.999 82.0009C404.478 81.5642 403.958 81.1276 403.421 80.6777C370.315 52.9842 331.08 35.8423 288.499 29.1884C287.783 29.0764 287.068 28.9644 286.332 28.849C278.226 27.7127 270.227 27.4849 261.999 27.0009ZM98.9985 90.0009C119.129 110.131 139.259 130.261 159.999 151.001C163.978 148.348 167.641 145.749 171.374 142.813C195.091 125.04 220.76 118.079 249.999 115.001C249.999 85.9609 249.999 56.9209 249.999 27.0009C194.839 27.0009 137.891 51.1081 98.9985 90.0009ZM89.9985 99.0009C81.8028 106.305 75.4383 115.175 68.9985 124.001C68.5469 124.619 68.0952 125.236 67.6299 125.872C41.0295 162.736 30.5723 205.329 26.9985 250.001C56.0385 250.001 85.0785 250.001 114.999 250.001C115.659 243.731 116.319 237.461 116.999 231.001C117.62 227.57 118.238 224.343 119.124 221.001C119.335 220.186 119.546 219.371 119.763 218.532C124.729 200.329 133.33 183.562 144.92 168.72C147.087 165.885 149.048 162.988 150.999 160.001C149.635 157.961 149.635 157.961 147.999 156.001C147.339 156.001 146.679 156.001 145.999 156.001C145.999 155.341 145.999 154.681 145.999 154.001C144.506 152.527 144.506 152.527 142.624 151.063C140.16 149.081 138.794 147.694 136.999 145.001C136.339 145.001 135.679 145.001 134.999 145.001C134.999 144.341 134.999 143.681 134.999 143.001C133.165 140.834 133.165 140.834 130.999 139.001C130.339 139.001 129.679 139.001 128.999 139.001C128.999 138.341 128.999 137.681 128.999 137.001C128.339 137.001 127.679 137.001 126.999 137.001C126.669 136.011 126.339 135.021 125.999 134.001C124.338 132.356 124.338 132.356 122.311 130.751C118.969 127.928 116.196 124.984 113.424 121.614C111.853 119.753 111.853 119.753 109.061 117.563C105.821 114.853 103.278 111.933 100.612 108.673C98.9999 106.744 98.9999 106.744 95.9985 106.001C95.9985 105.341 95.9985 104.681 95.9985 104.001C95.3385 104.001 94.6785 104.001 93.9985 104.001C93.7098 103.362 93.421 102.722 93.1235 102.063C92.1703 99.8488 92.1703 99.8488 89.9985 99.0009ZM418.003 102.872C417.436 103.442 416.869 104.013 416.285 104.601C415.69 105.195 415.095 105.79 414.482 106.403C412.505 108.381 410.531 110.363 408.557 112.345C407.191 113.712 405.825 115.08 404.458 116.448C400.854 120.056 397.253 123.667 393.653 127.278C389.981 130.96 386.307 134.638 382.633 138.317C375.419 145.542 368.208 152.771 360.999 160.001C363.592 163.927 366.277 167.678 369.186 171.376C386.96 195.094 393.921 220.763 396.999 250.001C426.039 250.001 455.079 250.001 484.999 250.001C483.677 230.66 483.677 230.66 480.749 211.688C480.423 210.08 480.423 210.08 480.091 208.44C472.149 170.465 454.387 136.258 429.433 106.706C428.461 105.551 427.499 104.388 426.545 103.218C425.384 101.795 424.194 100.395 422.999 99.0009C420.832 99.0009 419.455 101.424 418.003 102.872ZM173.999 156.001C173.195 156.685 172.392 157.37 171.565 158.075C147.3 179.16 129.676 209.519 126.999 242.001C125.077 275.448 131.631 309.645 154.018 335.786C154.998 336.882 154.998 336.882 155.999 338.001C156.683 338.804 157.368 339.607 158.073 340.434C179.123 364.659 209.541 382.398 241.999 385.001C279.45 386.921 313.332 378.076 341.786 352.889C366.392 330.496 382.97 300.194 385.222 266.68C386.713 233.212 378.827 199.531 355.999 174.001C355.314 173.198 354.63 172.395 353.924 171.567C332.839 147.302 302.48 129.678 269.999 127.001C235.337 125.009 200.543 132.265 173.999 156.001ZM26.9985 262.001C28.2566 280.977 28.2566 280.977 30.9985 299.688C31.2065 300.736 31.4146 301.784 31.6289 302.863C40.3358 343.894 60.0121 381.706 88.9985 412.001C93.0545 410.385 95.7681 407.499 98.7768 404.45C99.3431 403.884 99.9094 403.318 100.493 402.734C102.359 400.867 104.218 398.993 106.077 397.118C107.371 395.82 108.666 394.523 109.961 393.226C113.365 389.814 116.763 386.396 120.16 382.977C123.628 379.488 127.103 376.004 130.577 372.52C137.39 365.686 144.196 358.845 150.999 352.001C148.405 348.075 145.72 344.324 142.811 340.626C125.037 316.908 118.076 291.239 114.999 262.001C85.9585 262.001 56.9185 262.001 26.9985 262.001ZM396.999 262.001C396.339 268.271 395.679 274.541 394.999 281.001C394.377 284.432 393.759 287.658 392.874 291.001C392.663 291.816 392.451 292.631 392.234 293.47C387.268 311.673 378.667 328.439 367.077 343.282C364.925 346.097 362.964 349.053 360.999 352.001C380.799 371.801 400.599 391.601 420.999 412.001C438.784 403.108 451.083 376.724 459.999 360.001C460.373 359.308 460.748 358.614 461.134 357.9C470.669 339.994 477.08 319.552 480.999 299.688C481.182 298.775 481.365 297.861 481.554 296.919C483.617 285.349 484.057 273.767 484.999 262.001C455.959 262.001 426.919 262.001 396.999 262.001ZM159.999 361.001C140.199 380.801 120.399 400.601 99.9985 421.001C108.891 438.787 135.276 451.085 151.999 460.001C152.692 460.376 153.385 460.75 154.099 461.136C172.006 470.671 192.447 477.082 212.311 481.001C213.225 481.184 214.139 481.367 215.08 481.556C226.65 483.619 238.232 484.06 249.999 485.001C249.999 455.961 249.999 426.921 249.999 397.001C243.729 396.341 237.459 395.681 230.999 395.001C227.044 394.225 223.296 393.438 219.436 392.376C218.477 392.117 217.518 391.858 216.53 391.592C198.545 386.521 181.398 377.879 167.147 365.727C164.635 363.628 164.635 363.628 159.999 361.001ZM344.811 365.938C320.5 385.423 292.815 394.433 261.999 397.001C261.999 426.041 261.999 455.081 261.999 485.001C280.974 483.743 280.974 483.743 299.686 481.001C300.734 480.793 301.782 480.585 302.861 480.371C344.497 471.535 382.366 451.453 412.999 422.001C411.635 419.961 411.635 419.961 409.999 418.001C409.339 418.001 408.679 418.001 407.999 418.001C407.009 416.021 407.009 416.021 405.999 414.001C405.339 414.001 404.679 414.001 403.999 414.001C403.596 413.042 403.596 413.042 403.186 412.063C402.112 409.67 402.112 409.67 398.999 409.001C398.298 407.685 397.635 406.349 396.999 405.001C393.947 401.485 390.5 398.351 386.874 395.438C384.368 393.314 382.447 391.162 380.413 388.602C378.157 386.047 375.525 383.947 372.928 381.747C371.127 380.117 369.633 378.461 368.124 376.563C367.422 375.718 366.721 374.872 365.999 374.001C365.339 374.001 364.679 374.001 363.999 374.001C363.999 373.341 363.999 372.681 363.999 372.001C362.165 369.834 362.165 369.834 359.999 368.001C359.339 368.001 358.679 368.001 357.999 368.001C357.504 366.516 357.504 366.516 356.999 365.001C355.123 362.792 355.123 362.792 352.999 361.001C349.597 361.001 347.343 363.849 344.811 365.938Z" fill="black"/>
<path d="M294.686 213.752C305.483 223.806 312.011 237.256 312.999 252.001C313.139 269.479 308.22 283.981 296.186 296.904C284.68 307.937 270.026 313.339 254.168 313.029C241.861 312.489 230.727 308.656 220.999 301.002C220.313 300.478 219.627 299.955 218.921 299.416C207.515 290.143 201.018 276.899 199.217 262.423C198.11 245.102 202.623 230.593 213.749 217.314C235.562 193.889 270.719 193.671 294.686 213.752ZM222.897 226.24C213.754 237.503 210.54 249.55 211.999 264.002C212.867 267.956 214.198 271.383 215.999 275.002C216.635 276.295 216.635 276.295 217.284 277.615C223.647 289.296 233.464 295.483 245.917 299.642C258.797 301.865 270.9 299.728 281.749 292.377C290.192 285.797 295.82 278.237 298.999 268.002C299.189 267.401 299.38 266.8 299.577 266.181C301.789 254.752 300.163 243.131 294.303 233.099C287.629 223.249 279.393 216.54 267.999 213.002C267.398 212.811 266.797 212.62 266.178 212.423C249.851 209.263 234.319 214.075 222.897 226.24Z" fill="black"/>
<path d="M95.2628 153.688C99.4883 155.888 101.964 158.769 104.001 163C106.185 170.558 104.156 177.209 101.911 184.485C101.044 187.834 100.827 190.562 101.001 194C104.326 192.218 104.326 192.218 105.251 188.438C106.117 186.736 106.117 186.736 107.001 185C110.501 183.875 110.501 183.875 114.001 184C116.117 185.549 116.889 186.47 117.435 189.051C117.446 195.547 115.707 198.861 111.439 203.813C108.049 206.613 103.768 206.451 99.5792 206.414C95.2182 205.714 92.7417 203.332 90.001 200C87.1513 195.54 87.4864 190.124 88.001 185C88.6734 182.424 89.4828 179.929 90.3331 177.406C91.3233 173.839 91.2055 170.681 91.001 167C88.1919 165.596 86.1129 165.751 83.001 166C80.52 166.903 80.52 166.903 79.001 169C78.5356 174.333 79.4418 177.658 81.876 182.375C86.0361 190.931 88.8208 199.522 86.001 209C83.6468 214.762 78.8004 218.349 73.5635 221.438C66.9224 222.896 61.2217 222.417 55.0831 219.406C51.0253 216.666 47.8677 212.701 46.3643 208.016C45.2389 201.772 45.5013 196.432 48.6807 190.852C53.1704 184.556 58.6456 181.902 66.001 180C65.8425 179.418 65.6839 178.835 65.5206 178.235C64.0843 172.058 64.6878 167.299 67.7315 161.824C73.9586 152.877 85.0933 150.596 95.2628 153.688ZM59.001 198C57.8389 200.394 57.8389 200.394 58.001 203C59.2608 205.851 60.3599 207.53 62.876 209.375C65.6995 210.206 67.2249 209.972 70.001 209C72.9621 206.839 73.87 205.685 74.5635 202.063C73.807 197.944 72.3083 196.499 69.001 194C64.4663 192.98 62.1336 194.781 59.001 198Z" fill="black"/>
<path d="M178.064 62.4986C183.361 67.0069 186.465 73.0842 190.001 78.9986C190.365 78.1903 190.729 77.3821 191.103 76.5493C194.622 69.0686 197.198 64.7795 204.376 60.6236C208.168 59.7208 211.341 59.7468 215.001 60.9986C222.204 65.5524 227.723 72.6665 230.126 80.8111C230.001 83.9986 230.001 83.9986 228.376 86.4361C225.556 88.2917 224.316 88.4218 221.001 87.9986C219.376 86.4595 219.376 86.4595 218.001 84.3736C217.504 83.6491 217.006 82.9246 216.494 82.1782C216.001 81.4589 215.509 80.7396 215.001 79.9986C213.374 77.9621 211.69 75.9852 210.001 73.9986C206.502 75.1649 206.285 75.6092 204.626 78.7486C200.885 86.5482 199.407 95.1424 197.547 103.539C197.367 104.35 197.187 105.162 197.001 105.999C196.831 106.777 196.66 107.555 196.483 108.357C195.23 113.771 195.23 113.771 193.001 115.999C189.564 116.374 189.564 116.374 186.001 115.999C182.136 112.538 181.947 107.479 181.126 102.624C178.427 87.343 178.427 87.343 171.001 73.9986C166.939 75.5233 165.248 78.0586 162.814 81.5611C159.006 86.9942 159.006 86.9942 158.001 87.9986C154.564 87.7486 154.564 87.7486 151.001 86.9986C148.892 83.8341 148.67 82.6787 149.341 79.022C151.759 71.6111 157.648 65.3201 164.001 60.9986C168.985 59.2829 173.391 60.2095 178.064 62.4986Z" fill="black"/>
<path d="M404.999 169.002C411.243 171.455 413.868 175.163 417.421 180.76C418.965 183.24 418.965 183.24 421.999 185.002C425.115 185.226 427.994 184.843 430.999 184.002C433.436 181.894 433.436 181.894 434.999 179.002C438.162 174.06 440.342 170.888 445.999 169.002C452.233 168.557 452.233 168.557 454.937 170.127C456.504 172.892 456.389 174.884 455.999 178.002C454.422 180.327 453.263 180.913 450.597 181.806C447.523 183.221 446.462 184.568 444.624 187.377C444.101 188.148 443.578 188.918 443.039 189.713C441.802 191.906 441.802 191.906 442.265 194.092C442.507 194.722 442.75 195.352 442.999 196.002C445.229 202.32 445.605 207.64 443.281 213.955C440.461 219.545 435.89 223.038 429.999 225.002C423.502 225.783 418.344 224.864 412.999 221.002C409.121 217.292 406.248 214.05 405.796 208.513C405.7 202.687 406.205 199.209 408.999 194.002C408.512 191.938 408.512 191.938 406.999 190.002C406.443 188.826 405.886 187.65 405.312 186.439C402.992 182.334 400.321 181.602 395.999 180.002C393.999 177.002 393.999 177.002 394.187 173.939C395.772 168.209 399.797 168.481 404.999 169.002ZM419.999 201.002C417.723 203.75 417.723 203.75 418.187 206.502C419.069 209.217 419.723 210.315 421.999 212.002C423.852 213.007 423.852 213.007 425.999 213.002C428.243 211.854 430.209 210.792 431.999 209.002C432.467 204.322 432.467 204.322 430.749 200.127C426.332 197.287 424.214 197.896 419.999 201.002Z" fill="black"/>
<path d="M325.064 57.0638C326.706 60.4565 326.173 62.4884 325.002 66.0013C322.505 67.8058 319.885 68.9437 317.002 70.0013C318.932 71.2011 320.871 72.3858 322.814 73.5638C323.893 74.2251 324.972 74.8864 326.084 75.5677C328.961 77.405 328.961 77.405 332.002 76.0013C333.197 74.1259 333.197 74.1259 334.252 71.9388C335.541 69.7591 335.541 69.7591 337.002 68.0013C340.688 67.3022 342.682 67.3002 346.002 69.0638C347.64 72.2377 346.819 74.6155 346.002 78.0013C344.439 80.8138 344.439 80.8138 343.002 83.0013C343.002 83.6613 343.002 84.3213 343.002 85.0013C343.977 85.5324 344.953 86.0635 345.959 86.6107C347.244 87.3237 348.529 88.0373 349.814 88.7513C350.457 89.0993 351.099 89.4474 351.761 89.806C355.265 91.7666 358.063 93.415 360.002 97.0013C359.877 100.126 359.877 100.126 359.002 103.001C355.902 105.068 354.822 105.358 351.244 104.759C347.022 103.332 343.34 100.845 339.576 98.4974C337.21 96.8338 337.21 96.8338 335.002 97.0013C334.221 98.2841 333.502 99.6039 332.814 100.939C330.76 104.382 330.414 104.873 326.377 106.126C323.002 106.001 323.002 106.001 320.002 104.001C319.064 101.876 319.064 101.876 319.002 99.0013C319.934 96.8596 321 94.8788 322.189 92.8685C323.319 90.84 323.319 90.84 322.002 88.0013C319.226 86.0884 319.226 86.0884 315.939 84.3138C314.282 83.3799 314.282 83.3799 312.591 82.4271C311.737 81.9566 310.882 81.486 310.002 81.0013C310.12 81.6046 310.239 82.2078 310.361 82.8294C311.404 89.2969 311.404 89.2969 309.502 92.6263C307.002 94.0013 307.002 94.0013 303.439 94.1888C300.002 93.0013 300.002 93.0013 298.424 89.8958C296.983 86.1627 295.856 82.3646 294.814 78.5013C294.47 77.2535 294.126 76.0057 293.771 74.72C292.99 70.9462 292.569 67.8352 293.002 64.0013C296.024 60.3206 301.311 59.5146 305.752 58.3138C306.525 58.0888 307.299 57.8639 308.095 57.6321C313.446 56.1552 319.876 54.3912 325.064 57.0638Z" fill="black"/>
<path d="M168.999 398C173.856 401.942 175.998 408.529 176.749 414.562C176.832 415.697 176.914 416.831 176.999 418C179.309 418 181.619 418 183.999 418C184.097 417.371 184.195 416.742 184.296 416.094C185.47 409.375 187.052 402.947 191.999 398C195.103 397.67 197.157 397.495 199.874 399.125C201.616 402.028 201.424 403.605 200.999 407C199.813 410.727 198.447 414.367 196.999 418C197.927 417.959 198.856 417.917 199.812 417.875C202.999 418 202.999 418 205.999 420C206.978 422.861 207.221 424.387 206.187 427.25C204.999 429 204.999 429 202.999 430C201 430.04 198.999 430.043 196.999 430C197.288 430.641 197.577 431.281 197.874 431.941C200.128 437.191 201.715 441.273 200.999 447C198.999 449 198.999 449 197.054 449.195C195.036 449.13 193.018 449.065 190.999 449C187.561 442.714 185.253 437.065 183.999 430C181.689 430 179.379 430 176.999 430C176.901 430.629 176.803 431.258 176.702 431.906C175.675 437.786 174.407 444.592 169.999 449C163.856 449.455 163.856 449.455 160.999 447.937C159.06 444.179 160.573 440.405 161.745 436.543C162.467 434.35 163.216 432.172 163.999 430C163.071 430.062 162.143 430.124 161.187 430.187C157.999 430 157.999 430 156.124 428.875C154.471 426.119 154.606 424.149 154.999 421C156.124 419.125 156.124 419.125 157.999 418C161.187 417.812 161.187 417.812 163.999 418C163.711 417.275 163.422 416.551 163.124 415.805C159.198 405.58 159.198 405.58 159.999 401C162.208 397.318 164.981 397.498 168.999 398Z" fill="black"/>
<path d="M343.333 388.601C346.674 390.352 349.096 392.693 351.689 395.374C352.174 395.857 352.66 396.339 353.16 396.835C355.644 399.358 357.777 401.645 359.001 404.999C358.847 408.172 358.428 409.542 356.251 411.874C354.001 412.999 354.001 412.999 351.564 412.999C348.225 411.697 346.445 409.575 344.001 406.999C343.341 406.999 342.681 406.999 342.001 406.999C341.107 408.528 340.221 410.062 339.387 411.625C335.195 419.397 335.195 419.397 331.873 421.074C328.879 421.238 326.665 420.57 324.388 418.613C323.001 416.999 323.001 416.999 321.001 413.999C318.507 416.956 316.527 419.866 314.689 423.249C312.747 426.373 312.208 426.915 308.626 428.374C303.654 427.86 301.365 425.526 298.001 421.999C297.439 422.887 297.439 422.887 296.865 423.792C291.036 432.793 291.036 432.793 287.001 435.999C284.035 436.565 282.747 436.462 280.189 434.874C278.375 432.01 278.61 430.392 279.001 426.999C280.486 423.63 282.348 420.523 284.251 417.374C284.743 416.529 285.234 415.683 285.74 414.812C290.602 406.592 290.602 406.592 294.001 403.999C297.501 403.937 297.501 403.937 301.001 404.999C303.314 407.562 303.314 407.562 305.001 409.999C305.661 409.999 306.321 409.999 307.001 409.999C308.68 407.281 310.239 404.534 311.728 401.708C313.497 398.606 314.582 397.159 317.962 395.874C321.73 396.029 323.05 396.996 325.876 399.437C327.048 400.425 327.048 400.425 328.244 401.433C328.824 401.95 329.404 402.467 330.001 402.999C330.271 402.272 330.54 401.545 330.818 400.796C331.978 398.055 333.303 395.731 334.939 393.249C335.443 392.471 335.947 391.692 336.466 390.89C338.585 388.281 340.072 387.76 343.333 388.601Z" fill="black"/>
<path d="M351.561 417.125C355.884 418.225 357.108 419.615 359.999 423C360.676 423.616 361.352 424.232 362.05 424.867C365.597 428.106 367.735 430.151 369.186 434.812C368.999 438 368.999 438 367.811 439.875C365.715 441.176 364.48 441.854 361.999 442C358.762 440.421 356.517 438.518 353.999 436C353.339 436 352.679 436 351.999 436C350.737 437.932 349.563 439.923 348.436 441.938C345.06 447.939 345.06 447.939 343.999 449C340.749 449.375 340.749 449.375 336.999 449C334.186 446.562 334.186 446.562 331.999 444C331.339 443.67 330.679 443.34 329.999 443C329.433 443.927 328.867 444.854 328.284 445.809C327.543 447.018 326.802 448.228 326.061 449.438C325.688 450.049 325.315 450.661 324.931 451.291C322.112 455.887 322.112 455.887 320.999 457C317.574 457.47 315.072 457.801 312.202 455.66C310.732 454.172 309.358 452.591 307.999 451C307.445 451.843 306.89 452.686 306.319 453.555C305.595 454.65 304.87 455.746 304.124 456.875C303.405 457.966 302.685 459.056 301.944 460.18C299.999 463 299.999 463 297.999 465C294.895 465.33 292.841 465.505 290.124 463.875C288.381 460.97 288.58 459.402 288.999 456C290.665 452.434 292.721 449.143 294.811 445.812C295.359 444.911 295.906 444.009 296.47 443.08C301.364 435.112 301.364 435.112 303.999 433C307.374 432.938 307.374 432.938 310.999 434C312.893 435.853 314.369 437.897 315.999 440C316.579 439.001 317.159 438.002 317.757 436.973C318.545 435.669 319.334 434.365 320.124 433.062C320.503 432.403 320.882 431.744 321.272 431.064C323.29 427.786 324.32 426.262 327.999 424.844C331.725 425.038 333.075 426.02 335.874 428.438C337.046 429.426 337.046 429.426 338.241 430.434C338.821 430.951 339.401 431.467 339.999 432C340.274 431.274 340.548 430.549 340.831 429.801C345.496 418.615 345.496 418.615 351.561 417.125Z" fill="black"/>
<path d="M102.874 293.439C110.666 299.921 110.666 299.921 111.499 305.127C110.999 308.002 110.999 308.002 109.374 309.939C105.957 311.468 104.561 311.235 100.999 310.002C98.9585 308.349 97.0655 306.576 95.1439 304.787C90.2263 300.694 84.3275 298.651 77.9993 298.002C78.4943 299.013 78.9893 300.023 79.4993 301.064C81.6608 306.18 81.525 310.24 79.9368 315.564C77.1194 320.563 73.4959 324.17 67.9993 326.002C61.7004 326.785 56.901 326.321 51.6947 322.537C48.0367 319.225 46.3206 316.271 45.6243 311.353C45.4065 306.383 45.583 301.885 48.4798 297.627C62.772 282.343 86.4324 281.148 102.874 293.439ZM57.9993 306.002C57.4912 308.906 57.6047 310.344 59.1243 312.877C61.9209 314.555 63.9363 313.751 66.9993 313.002C67.3293 310.692 67.6593 308.382 67.9993 306.002C63.8079 302.649 62.0733 302.064 57.9993 306.002Z" fill="black"/>
<path d="M110.999 319C116.422 321.615 119.731 325.344 122.311 330.75C123.574 336.722 123.111 341.886 119.811 347.125C114.854 353.188 106.297 356.568 98.9986 359C84.9721 359.922 73.9436 358.542 62.9986 349C62.0782 348.272 62.0782 348.272 61.1392 347.528C59.4361 346.063 59.4361 346.063 56.9986 343C56.9361 339.25 56.9361 339.25 57.9986 336C61.2504 333.833 62.2282 333.516 65.9986 334C67.9908 335.391 67.9908 335.391 69.8736 337.25C76.155 343.051 81.3697 345.609 89.9986 346C89.483 345.031 88.9673 344.062 88.4361 343.063C86.5076 338.557 86.8557 334.696 87.9986 330C92.3561 319.909 100.931 318.052 110.999 319ZM101.124 332.125C99.6417 334.595 99.6353 336.167 99.9986 339C101.884 341.316 101.884 341.316 104.999 341.25C108.114 341.316 108.114 341.316 109.999 339C109.675 335.404 109.675 335.404 108.999 332C104.928 330.85 104.928 330.85 101.124 332.125Z" fill="black"/>
<path d="M441.273 294.497C445.81 298.449 447.125 302.546 447.749 308.439C447.849 309.959 447.938 311.479 447.999 313.001C449.257 313.084 450.515 313.166 451.812 313.251C454.691 313.624 455.766 313.811 458.062 315.689C459.347 318.86 458.986 320.759 457.999 324.001C454.176 326.55 450.994 326.369 446.562 326.376C445.798 326.401 445.034 326.425 444.247 326.45C440.517 326.47 438.604 326.438 435.515 324.204C433.438 321.186 433.2 318.619 432.999 315.001C433.329 314.341 433.659 313.681 433.999 313.001C434.375 308.871 434.375 308.871 432.874 305.126C430.118 303.473 428.148 303.608 424.999 304.001C423.153 305.05 423.153 305.05 421.999 307.001C422.074 310.325 422.578 313.488 423.066 316.775C422.982 320.831 421.824 322.181 418.999 325.001C415.869 326.566 412.558 326.268 409.124 326.314C408.404 326.343 407.683 326.372 406.941 326.402C403.399 326.444 401.386 326.282 398.484 324.177C396.999 322.001 396.999 322.001 397.124 318.876C397.999 316.001 397.999 316.001 399.999 314.001C402.163 313.806 402.163 313.806 404.624 313.876C405.85 313.903 405.85 313.903 407.101 313.931C408.04 313.966 408.04 313.966 408.999 314.001C408.659 312.795 408.659 312.795 408.312 311.564C407.89 306.755 408.718 303.254 410.999 299.001C419.163 289.314 430.773 287.156 441.273 294.497Z" fill="black"/>
<path d="M405.435 334.595C407.102 334.576 407.102 334.576 408.803 334.556C410.003 334.559 411.203 334.562 412.439 334.565C414.287 334.557 414.287 334.557 416.171 334.549C419.445 334.541 422.719 334.548 425.992 334.56C428 334.561 430.007 334.549 432.014 334.532C435.865 334.502 439.714 334.498 443.564 334.503C444.764 334.492 445.964 334.48 447.201 334.469C448.868 334.483 448.868 334.483 450.568 334.497C451.547 334.497 452.526 334.498 453.535 334.498C456.002 334.999 456.002 334.999 457.849 336.835C459.487 339.91 458.998 341.727 458.002 344.999C454.664 347.224 453.558 347.259 449.66 347.289C448.569 347.302 447.478 347.315 446.353 347.328C445.175 347.33 443.997 347.333 442.783 347.335C441.574 347.341 440.364 347.348 439.118 347.355C436.559 347.365 434.001 347.37 431.442 347.369C427.517 347.374 423.594 347.41 419.67 347.448C417.187 347.454 414.704 347.458 412.221 347.46C411.042 347.474 409.864 347.489 408.65 347.503C407.559 347.497 406.468 347.491 405.344 347.485C404.382 347.488 403.421 347.49 402.43 347.493C400.002 346.999 400.002 346.999 398.191 345.129C396.716 342.488 396.543 340.981 397.002 337.999C399.413 334.684 401.468 334.617 405.435 334.595Z" fill="black"/>
<path d="M260.438 226.561C262 228.999 262 228.999 262 232.624C261 235.999 261 235.999 259.207 237.163C257.001 237.998 255.016 238.401 252.688 238.749C247.662 239.793 244.339 242.133 241 245.999C238.748 249.727 238.309 253.508 237.66 257.756C237 259.999 237 259.999 234 261.999C231 262.374 231 262.374 228 261.999C225.376 259.812 225.044 258.305 224.562 254.936C225.592 245.669 229.034 238.241 236 231.999C242.338 227.019 252.852 221.699 260.438 226.561Z" fill="black"/>
<path d="M296.249 319.312C299.999 320 299.999 320 301.546 321.59C303.165 323.998 304.585 326.465 305.999 329C306.624 330.021 307.249 331.042 307.893 332.094C314.627 343.174 314.627 343.174 313.499 348.25C311.999 350 311.999 350 308.686 351.062C304.999 351 304.999 351 302.604 349.055C299.29 345.475 296.985 341.304 294.624 337.062C294.161 336.277 293.698 335.491 293.221 334.682C291.174 331.03 289.978 328.81 290.085 324.559C291.426 320.804 292.325 320.142 296.249 319.312Z" fill="black"/>
<path d="M215.373 319.688C218.998 320 218.998 320 220.998 321.625C222.4 324.954 221.913 326.474 220.998 330C219.39 333.361 217.524 336.548 215.623 339.75C215.128 340.612 214.633 341.475 214.123 342.363C210.393 348.737 210.393 348.737 206.998 351C203.373 350.75 203.373 350.75 199.998 350C198.47 346.943 198.373 344.295 198.998 341C200.672 337.346 202.778 334.01 204.936 330.625C205.5 329.711 206.064 328.797 206.645 327.855C211.489 320.047 211.489 320.047 215.373 319.688Z" fill="black"/>
<path d="M190 291.002C192 293.002 192 293.002 192.688 296.252C192 300.002 192 300.002 190.41 301.549C188.003 303.168 185.53 304.583 183 306.002C182.002 306.639 181.005 307.275 179.977 307.932C169.893 314.256 169.893 314.256 164 313.002C162 311.939 162 311.939 161 310.002C161.062 306.639 161.062 306.639 162 303.002C164.625 300.744 164.625 300.744 168 298.877C168.587 298.546 169.174 298.216 169.78 297.875C171.512 296.904 173.256 295.952 175 295.002C175.875 294.457 176.751 293.911 177.652 293.35C182.05 290.636 184.822 289.108 190 291.002Z" fill="black"/>
<path d="M349 198.999C351.33 202.494 351.588 203.885 351 207.999C346.898 211.873 341.943 214.542 337.062 217.311C336.277 217.779 335.491 218.246 334.682 218.727C331.029 220.797 328.823 222.018 324.559 221.917C322 220.999 322 220.999 320 218.999C319.625 216.124 319.625 216.124 320 212.999C323.308 208.902 327.79 206.417 332.25 203.749C332.976 203.29 333.701 202.831 334.449 202.358C339.54 199.309 343.058 198.194 349 198.999Z" fill="black"/>
<path d="M308.625 161.252C310.296 161.623 310.296 161.623 312 162.002C313.516 165.035 313.576 167.727 313 171.002C311.505 174.458 309.595 177.611 307.625 180.814C307.117 181.672 306.609 182.53 306.086 183.414C302.365 189.637 302.365 189.637 300 192.002C296.562 192.377 296.562 192.377 293 192.002C291 190.377 291 190.377 290 188.002C290.243 181.931 293.357 177.336 296.375 172.252C296.87 171.389 297.365 170.527 297.875 169.638C303.01 160.864 303.01 160.864 308.625 161.252Z" fill="black"/>
<path d="M208.001 161C211.873 165.107 214.544 170.055 217.314 174.937C217.781 175.723 218.248 176.508 218.73 177.318C220.799 180.97 222.021 183.176 221.919 187.441C221.001 190 221.001 190 219.001 192C215.751 192.687 215.751 192.687 212.001 192C209.424 189.351 207.799 186.207 206.001 183C205.046 181.503 205.046 181.503 204.072 179.976C197.747 169.893 197.747 169.893 199.001 164C201.15 160.299 204.002 160.347 208.001 161Z" fill="black"/>
<path d="M330 290.999C333.361 292.608 336.547 294.473 339.75 296.374C340.612 296.869 341.474 297.364 342.363 297.874C348.737 301.605 348.737 301.605 351 304.999C350.75 308.624 350.75 308.624 350 311.999C346.943 313.528 344.294 313.624 341 312.999C337.346 311.325 334.01 309.22 330.625 307.062C329.254 306.216 329.254 306.216 327.855 305.353C321.265 301.265 321.265 301.265 320 299.999C319.418 293.716 319.418 293.716 321.625 290.999C324.954 289.598 326.474 290.084 330 290.999Z" fill="black"/>
<path d="M171 198.998C174.654 200.672 177.99 202.778 181.375 204.936C182.289 205.5 183.203 206.064 184.145 206.645C190.735 210.733 190.735 210.733 192 211.998C192.582 218.282 192.582 218.282 190.375 220.998C187.046 222.4 185.526 221.913 182 220.998C178.639 219.39 175.452 217.524 172.25 215.623C171.388 215.128 170.525 214.633 169.637 214.123C163.263 210.393 163.263 210.393 161 206.998C161.25 203.373 161.25 203.373 162 199.998C165.057 198.47 167.705 198.373 171 198.998Z" fill="black"/>
<path d="M258.999 330.999C260.659 332.128 260.659 332.128 261.999 333.999C262.653 338.636 262.462 343.321 262.436 347.999C262.456 349.295 262.476 350.592 262.497 351.928C262.496 353.168 262.496 354.409 262.495 355.686C262.497 356.824 262.499 357.963 262.501 359.135C261.999 361.999 261.999 361.999 260.163 363.905C257.108 365.449 255.232 364.912 251.999 363.999C248.692 360.692 249.702 356.514 249.677 352.016C249.68 350.711 249.683 349.406 249.686 348.061C249.67 346.76 249.654 345.459 249.638 344.118C249.637 342.873 249.636 341.629 249.636 340.346C249.633 339.202 249.63 338.057 249.627 336.878C249.999 333.999 249.999 333.999 251.334 332.125C253.937 330.364 255.947 330.617 258.999 330.999Z" fill="black"/>
<path d="M347.999 249.564C349.295 249.544 350.592 249.524 351.928 249.503C353.168 249.504 354.409 249.505 355.686 249.505C357.394 249.503 357.394 249.503 359.135 249.5C361.999 250.001 361.999 250.001 363.905 251.837C365.449 254.892 364.912 256.769 363.999 260.001C360.692 263.308 356.514 262.298 352.016 262.324C350.711 262.32 349.406 262.317 348.061 262.314C346.109 262.338 346.109 262.338 344.118 262.363C342.251 262.364 342.251 262.364 340.346 262.365C339.202 262.368 338.057 262.371 336.878 262.374C333.999 262.001 333.999 262.001 332.125 260.666C330.364 258.063 330.617 256.053 330.999 253.001C334.582 247.731 342.36 249.533 347.999 249.564Z" fill="black"/>
<path d="M159.982 249.677C161.287 249.68 162.592 249.683 163.937 249.686C165.238 249.67 166.539 249.654 167.88 249.638C169.747 249.637 169.747 249.637 171.652 249.636C172.796 249.633 173.941 249.63 175.12 249.627C177.999 249.999 177.999 249.999 179.872 251.334C181.634 253.937 181.381 255.947 180.999 258.999C179.87 260.659 179.87 260.659 177.999 261.999C173.362 262.653 168.677 262.462 163.999 262.436C162.702 262.456 161.406 262.476 160.069 262.497C158.829 262.496 157.589 262.496 156.312 262.495C154.604 262.498 154.604 262.498 152.862 262.501C149.999 261.999 149.999 261.999 148.093 260.163C146.549 257.108 147.086 255.232 147.999 251.999C151.306 248.692 155.483 249.702 159.982 249.677Z" fill="black"/>
<path d="M260.002 147.999C263.309 151.306 262.298 155.483 262.324 159.982C262.321 161.287 262.318 162.592 262.314 163.937C262.33 165.238 262.346 166.539 262.363 167.88C262.364 169.125 262.364 170.369 262.365 171.652C262.369 173.368 262.369 173.368 262.374 175.12C262.002 177.999 262.002 177.999 260.667 179.872C258.063 181.634 256.054 181.381 253.002 180.999C251.341 179.87 251.341 179.87 250.002 177.999C249.347 173.362 249.539 168.677 249.564 163.999C249.544 162.702 249.524 161.406 249.504 160.069C249.504 158.829 249.505 157.589 249.506 156.312C249.504 155.173 249.502 154.035 249.5 152.862C250.002 149.999 250.002 149.999 251.837 148.093C254.892 146.549 256.769 147.086 260.002 147.999Z" fill="black"/>
</svg>
