<svg width="90" height="90" viewBox="0 0 90 90" fill="none" xmlns="http://www.w3.org/2000/svg">
<path d="M59.1484 69.0744C61.8894 69.0744 64.1114 66.8524 64.1114 64.1114C64.1114 61.3704 61.8894 59.1484 59.1484 59.1484C56.4075 59.1484 54.1855 61.3704 54.1855 64.1114C54.1855 66.8524 56.4075 69.0744 59.1484 69.0744Z" stroke="black" stroke-width="2"/>
<path d="M78.4472 62.8187C76.914 58.9126 74.2682 55.5422 70.8377 53.1254C67.4073 50.7086 63.343 49.3517 59.1487 49.2227C54.9544 49.3517 50.8902 50.7086 47.4598 53.1254C44.0293 55.5422 41.3835 58.9126 39.8503 62.8187L39.2969 64.1115L39.8503 65.4044C41.3835 69.3105 44.0293 72.6809 47.4598 75.0977C50.8902 77.5144 54.9544 78.8714 59.1487 79.0004C63.343 78.8714 67.4073 77.5144 70.8377 75.0977C74.2682 72.6809 76.914 69.3105 78.4472 65.4044L79.0006 64.1115L78.4472 62.8187ZM59.1487 74.0375C57.1856 74.0375 55.2665 73.4553 53.6342 72.3646C52.0019 71.274 50.7297 69.7238 49.9784 67.91C49.2271 66.0963 49.0306 64.1005 49.4135 62.1751C49.7965 60.2497 50.7419 58.481 52.1301 57.0929C53.5182 55.7047 55.2869 54.7593 57.2123 54.3763C59.1377 53.9933 61.1335 54.1899 62.9472 54.9412C64.761 55.6925 66.3112 56.9647 67.4019 58.597C68.4925 60.2293 69.0747 62.1484 69.0747 64.1115C69.0714 66.7431 68.0246 69.2658 66.1638 71.1266C64.303 72.9874 61.7803 74.0342 59.1487 74.0375Z" stroke="black" stroke-width="2"/>
<path d="M24.4073 26.8887C25.7778 26.8887 26.8888 25.7777 26.8888 24.4073C26.8888 23.0368 25.7778 21.9258 24.4073 21.9258C23.0368 21.9258 21.9258 23.0368 21.9258 24.4073C21.9258 25.7777 23.0368 26.8887 24.4073 26.8887Z" stroke="black" stroke-width="2"/>
<path d="M24.4073 46.7403C25.7778 46.7403 26.8888 45.6293 26.8888 44.2588C26.8888 42.8883 25.7778 41.7773 24.4073 41.7773C23.0368 41.7773 21.9258 42.8883 21.9258 44.2588C21.9258 45.6293 23.0368 46.7403 24.4073 46.7403Z" stroke="black" stroke-width="2"/>
<path d="M24.4073 66.5919C25.7778 66.5919 26.8888 65.4809 26.8888 64.1104C26.8888 62.7399 25.7778 61.6289 24.4073 61.6289C23.0368 61.6289 21.9258 62.7399 21.9258 64.1104C21.9258 65.4809 23.0368 66.5919 24.4073 66.5919Z" stroke="black" stroke-width="2"/>
<path d="M16.963 56.6667H34.3333V51.7037H16.963V36.8148H56.6667V44.2593H61.6296V16.963C61.6296 15.6467 61.1067 14.3844 60.176 13.4536C59.2453 12.5229 57.9829 12 56.6667 12H16.963C15.6467 12 14.3844 12.5229 13.4536 13.4536C12.5229 14.3844 12 15.6467 12 16.963V71.5556C12 72.8718 12.5229 74.1342 13.4536 75.0649C14.3844 75.9956 15.6467 76.5185 16.963 76.5185H34.3333V71.5556H16.963V56.6667ZM16.963 16.963H56.6667V31.8519H16.963V16.963Z" stroke="black" stroke-width="2"/>
</svg>
