<svg width="300" height="300" viewBox="0 0 300 300" fill="none" xmlns="http://www.w3.org/2000/svg">
<path d="M197.16 230.248C206.297 230.248 213.704 222.841 213.704 213.705C213.704 204.568 206.297 197.161 197.16 197.161C188.024 197.161 180.617 204.568 180.617 213.705C180.617 222.841 188.024 230.248 197.16 230.248Z" stroke="black" stroke-width="6"/>
<path d="M261.489 209.394C256.379 196.374 247.559 185.139 236.124 177.083C224.69 169.027 211.142 164.504 197.161 164.074C183.18 164.504 169.633 169.027 158.198 177.083C146.763 185.139 137.944 196.374 132.833 209.394L130.988 213.704L132.833 218.013C137.944 231.033 146.763 242.268 158.198 250.324C169.633 258.38 183.18 262.903 197.161 263.333C211.142 262.903 224.69 258.38 236.124 250.324C247.559 242.268 256.379 231.033 261.489 218.013L263.334 213.704L261.489 209.394ZM197.161 246.79C190.617 246.79 184.22 244.849 178.779 241.214C173.338 237.578 169.098 232.411 166.593 226.365C164.089 220.319 163.434 213.667 164.71 207.249C165.987 200.831 169.138 194.935 173.766 190.308C178.393 185.681 184.288 182.529 190.706 181.253C197.124 179.976 203.777 180.631 209.823 183.136C215.869 185.64 221.036 189.881 224.672 195.322C228.307 200.763 230.248 207.16 230.248 213.704C230.237 222.475 226.747 230.885 220.545 237.087C214.342 243.29 205.933 246.779 197.161 246.79Z" stroke="black" stroke-width="6"/>
<path d="M81.3576 89.6306C85.9259 89.6306 89.6293 85.9273 89.6293 81.3593C89.6293 76.791 85.9259 73.0876 81.3576 73.0876C76.7893 73.0876 73.0859 76.791 73.0859 81.3593C73.0859 85.9273 76.7893 89.6306 81.3576 89.6306Z" stroke="black" stroke-width="6"/>
<path d="M81.3576 155.803C85.9259 155.803 89.6293 152.099 89.6293 147.531C89.6293 142.963 85.9259 139.259 81.3576 139.259C76.7893 139.259 73.0859 142.963 73.0859 147.531C73.0859 152.099 76.7893 155.803 81.3576 155.803Z" stroke="black" stroke-width="6"/>
<path d="M81.3576 221.976C85.9259 221.976 89.6293 218.273 89.6293 213.705C89.6293 209.136 85.9259 205.433 81.3576 205.433C76.7893 205.433 73.0859 209.136 73.0859 213.705C73.0859 218.273 76.7893 221.976 81.3576 221.976Z" stroke="black" stroke-width="6"/>
<path d="M56.5433 188.889H114.444V172.346H56.5433V122.716H188.889V147.531H205.432V56.5433C205.432 52.1557 203.689 47.948 200.587 44.8453C197.484 41.743 193.276 40 188.889 40H56.5433C52.1557 40 47.948 41.743 44.8453 44.8453C41.743 47.948 40 52.1557 40 56.5433V238.519C40 242.906 41.743 247.114 44.8453 250.216C47.948 253.319 52.1557 255.062 56.5433 255.062H114.444V238.519H56.5433V188.889ZM56.5433 56.5433H188.889V106.173H56.5433V56.5433Z" stroke="black" stroke-width="6"/>
</svg>
