<svg width="300" height="300" viewBox="0 0 300 300" fill="none" xmlns="http://www.w3.org/2000/svg">
<path d="M231.043 149.998C225.297 150.028 219.666 151.611 214.741 154.58L191.669 131.436L210.173 112.873C213.199 109.837 214.899 105.719 214.899 101.426C214.899 97.133 213.199 93.0153 210.173 89.9793L161.753 41.407C158.726 38.3716 154.622 36.6666 150.342 36.6666C146.062 36.6666 141.957 38.3716 138.931 41.407L90.5101 89.9793C87.4844 93.0153 85.7844 97.133 85.7844 101.426C85.7844 105.719 87.4844 109.837 90.5101 112.873L109.015 131.436L85.9424 154.58C79.1061 150.511 71.024 149.086 63.214 150.572C55.4044 152.057 48.4037 156.352 43.5271 162.649C38.6504 168.947 36.2334 176.813 36.7297 184.771C37.2261 192.73 40.6017 200.233 46.2224 205.871C51.8434 211.51 59.3227 214.896 67.2564 215.394C75.19 215.892 83.0321 213.467 89.3094 208.575C95.5871 203.683 99.8684 196.661 101.35 188.826C102.831 180.992 101.41 172.885 97.3534 166.027L120.426 142.882L138.931 161.445C139.93 162.425 141.053 163.269 142.272 163.955V198.57H118.061V263.333H182.622V198.57H158.412V163.947C159.63 163.263 160.753 162.422 161.753 161.445L180.258 142.882L203.33 166.027C199.756 172.177 198.308 179.339 199.211 186.4C200.114 193.461 203.318 200.025 208.324 205.07C213.33 210.116 219.858 213.361 226.892 214.3C233.926 215.24 241.073 213.822 247.221 210.266C253.369 206.71 258.173 201.216 260.886 194.638C263.6 188.061 264.071 180.768 262.225 173.894C260.38 167.02 256.322 160.951 250.683 156.629C245.044 152.308 238.139 149.977 231.043 149.998ZM85.7811 182.38C85.7811 185.582 84.8344 188.712 83.0607 191.375C81.2874 194.037 78.7667 196.113 75.8174 197.338C72.8681 198.563 69.6227 198.884 66.4921 198.259C63.3611 197.635 60.485 196.093 58.228 193.828C55.9707 191.564 54.4334 188.679 53.8107 185.538C53.1881 182.398 53.5077 179.142 54.729 176.184C55.9507 173.225 58.0194 170.697 60.6737 168.918C63.328 167.139 66.4487 166.189 69.6407 166.189C73.9201 166.193 78.0231 167.9 81.0491 170.936C84.0747 173.971 85.7767 178.087 85.7811 182.38ZM166.482 214.761V247.143H134.202V214.761H166.482ZM150.342 149.998L101.921 101.426L150.342 52.854L198.762 101.426L150.342 149.998ZM231.043 198.57C227.851 198.57 224.73 197.621 222.076 195.842C219.422 194.063 217.353 191.534 216.131 188.576C214.91 185.617 214.59 182.362 215.213 179.221C215.835 176.08 217.373 173.195 219.63 170.931C221.887 168.667 224.763 167.125 227.894 166.5C231.025 165.875 234.27 166.196 237.219 167.421C240.169 168.647 242.689 170.722 244.463 173.385C246.236 176.047 247.183 179.177 247.183 182.38C247.179 186.672 245.477 190.788 242.451 193.824C239.425 196.859 235.322 198.566 231.043 198.57Z" stroke="black" stroke-width="6"/>
</svg>
