<svg width="80" height="80" viewBox="0 0 80 80" fill="none" xmlns="http://www.w3.org/2000/svg">
<g clip-path="url(#clip0_43_868)">
<path d="M47.822 -0.0585611C47.928 -0.0584761 48.034 -0.0583911 48.1432 -0.0583036C53.1579 -0.0398845 57.5671 1.94632 61.1326 5.43949C62.0907 6.40824 62.8933 7.42069 63.5935 8.59378C63.6529 8.6926 63.7122 8.79142 63.7734 8.89324C65.4491 11.7356 66.2873 14.7441 66.3035 18.0457C66.3057 18.2251 66.308 18.4046 66.3104 18.5894C66.3176 19.1573 66.323 19.7251 66.3279 20.293C66.3659 24.6737 66.5312 28.279 69.3064 31.875C70.9549 34.0346 71.6458 36.346 71.406 39.0625C71.0419 41.5656 69.9146 43.9695 67.8509 45.518C67.0396 46.0841 66.2003 46.5942 65.3123 47.0313C65.4784 47.1021 65.6445 47.1729 65.8157 47.2459C66.4401 47.5124 67.064 47.78 67.6879 48.0479C67.9564 48.1631 68.225 48.2779 68.4938 48.3924C72.1763 49.9622 75.338 51.7419 77.0425 55.5716C77.9382 57.8363 77.8964 60.0215 77.8756 62.4313C77.8717 62.9681 77.8713 63.5048 77.8706 64.0416C77.8687 65.0542 77.8636 66.0668 77.8573 67.0794C77.8502 68.2338 77.8468 69.3882 77.8437 70.5427C77.8372 72.9139 77.8262 75.2851 77.8123 77.6563C77.9422 77.6508 78.0721 77.6454 78.2059 77.6398C78.3757 77.6356 78.5455 77.6313 78.7205 77.627C78.889 77.6216 79.0576 77.6161 79.2313 77.6105C79.6873 77.6563 79.6873 77.6563 79.9782 77.8714C80.212 78.2048 80.2186 78.4236 80.2146 78.8282C80.2158 78.949 80.217 79.0699 80.2183 79.1944C80.1364 79.6376 80.0591 79.7407 79.6873 80C79.2455 80.046 78.8381 80.0629 78.3961 80.059C78.1953 80.06 78.1953 80.06 77.9904 80.0611C77.5378 80.0628 77.0852 80.0612 76.6325 80.0596C76.3063 80.0601 75.9801 80.0608 75.654 80.0618C74.7545 80.0637 73.855 80.0628 72.9555 80.0613C71.9867 80.0602 71.0179 80.0619 70.0491 80.0632C68.2598 80.0651 66.4705 80.065 64.6812 80.0637C63.0285 80.0625 61.3757 80.0622 59.7229 80.0628C59.6134 80.0628 59.5039 80.0628 59.3911 80.0629C58.9466 80.063 58.5021 80.0632 58.0576 80.0633C53.8854 80.0648 49.7132 80.0634 45.5409 80.0609C41.8318 80.0587 38.1227 80.0589 34.4135 80.0611C30.2491 80.0637 26.0846 80.0647 21.9202 80.0632C21.4765 80.063 21.0328 80.0629 20.5891 80.0628C20.4799 80.0627 20.3706 80.0627 20.258 80.0626C18.606 80.0621 16.954 80.0627 15.302 80.0639C13.4242 80.0653 11.5464 80.0649 9.66851 80.0624C8.70961 80.0611 7.75072 80.0607 6.79182 80.0622C5.91516 80.0636 5.03854 80.0629 4.16189 80.0603C3.84361 80.0598 3.52534 80.0601 3.20706 80.0612C2.77663 80.0626 2.3463 80.0612 1.91587 80.059C1.7904 80.0601 1.66492 80.0612 1.53564 80.0623C0.701834 80.0538 0.701832 80.0538 0.313577 79.783C0.105174 79.4501 0.0935009 79.2193 0.0974121 78.8282C0.0962036 78.7073 0.0949951 78.5865 0.09375 78.4619C0.174324 78.0259 0.265335 77.9167 0.624756 77.6563C1.11191 77.5986 1.11191 77.5986 1.72513 77.5999C1.89418 77.5993 1.89418 77.5993 2.06664 77.5987C2.44526 77.5979 2.82378 77.6005 3.20238 77.6031C3.47339 77.6032 3.74439 77.6031 4.01539 77.6029C4.75205 77.6027 5.48868 77.6055 6.22533 77.6088C6.99482 77.6117 7.76432 77.612 8.53382 77.6125C9.9914 77.614 11.449 77.6178 12.9065 77.6225C14.5657 77.6278 16.225 77.6303 17.8842 77.6327C21.2977 77.6376 24.7112 77.6458 28.1248 77.6563C28.1151 77.5669 28.1054 77.4775 28.0955 77.3853C27.8597 75.2034 27.625 73.0213 27.3913 70.8391C27.2783 69.7837 27.165 68.7285 27.0508 67.6733C26.9406 66.6542 26.8313 65.635 26.7226 64.6157C26.6811 64.2276 26.6392 63.8396 26.597 63.4516C26.5378 62.9065 26.4797 62.3612 26.4219 61.8159C26.4043 61.657 26.3868 61.4981 26.3687 61.3344C26.0331 58.1234 26.0331 58.1234 26.8748 56.875C27.6394 56.0242 28.3873 55.5173 29.556 55.4333C29.7278 55.4349 29.8996 55.4366 30.0767 55.4383C30.2456 55.439 30.4146 55.4398 30.5887 55.4406C30.9062 55.4449 30.9062 55.4449 31.2302 55.4493C31.907 55.4557 32.5837 55.4621 33.281 55.4688C33.281 53.2516 33.281 51.0344 33.281 48.75C31.2542 49.615 31.2542 49.615 29.2295 50.4847C28.4294 50.8295 27.6285 51.1717 26.8247 51.5076C24.2069 52.6161 22.2162 53.9866 20.9958 56.6474C20.4818 57.9397 20.2892 59.0228 20.2876 60.4026C20.2868 60.5523 20.286 60.702 20.2852 60.8563C20.2835 61.1808 20.2822 61.5053 20.2811 61.8298C20.2793 62.3433 20.2762 62.8568 20.2728 63.3704C20.2632 64.8303 20.2547 66.2901 20.2495 67.75C20.2463 68.6435 20.2408 69.5369 20.2338 70.4304C20.2316 70.7708 20.2302 71.1112 20.2297 71.4516C20.229 71.9273 20.2253 72.403 20.2211 72.8788C20.2218 73.0897 20.2218 73.0897 20.2225 73.3048C20.2116 74.1217 20.138 74.7056 19.531 75.3125C18.4158 75.4039 18.4158 75.4039 17.953 75.0902C17.5032 74.4803 17.5686 73.9185 17.5751 73.1789C17.574 73.0258 17.5729 72.8728 17.5718 72.7151C17.5691 72.208 17.5709 71.701 17.573 71.1939C17.5726 70.8399 17.572 70.486 17.5712 70.132C17.5703 69.3886 17.5716 68.6452 17.5745 67.9017C17.5781 66.955 17.5761 66.0085 17.5723 65.0618C17.57 64.3296 17.5708 63.5974 17.5724 62.8652C17.5728 62.5166 17.5723 62.1681 17.5708 61.8195C17.5584 58.038 18.2313 54.8432 20.9373 52.0313C21.7804 51.2199 22.6823 50.5768 23.7162 50.0312C23.8169 49.9778 23.9177 49.9244 24.0215 49.8694C25.1098 49.3029 26.2307 48.8183 27.3624 48.3461C27.7122 48.2001 28.0612 48.0522 28.4101 47.9041C28.6333 47.81 28.8566 47.716 29.08 47.6221C29.1838 47.5782 29.2876 47.5342 29.3946 47.489C30.1197 47.1875 30.1197 47.1875 30.4685 47.1875C30.4685 47.0844 30.4685 46.9813 30.4685 46.875C30.3565 46.8575 30.2445 46.84 30.1292 46.8219C28.0961 46.3474 26.5616 44.7281 25.4703 43.0371C24.0827 40.6661 23.7198 38.0881 24.3491 35.4236C24.8774 33.7394 25.7541 32.3283 26.8375 30.9455C28.6362 28.4939 29.2344 25.8349 29.246 22.8296C29.2496 22.4634 29.2534 22.0972 29.2573 21.731C29.2627 21.1613 29.2673 20.5917 29.2694 20.022C29.2956 14.1199 30.7686 9.35665 34.8923 5.0391C36.9211 3.07943 39.3213 1.70297 41.9822 0.800814C42.1796 0.733686 42.1796 0.733686 42.3811 0.665201C44.1799 0.0860382 45.9386 -0.0611226 47.822 -0.0585611ZM35.9183 7.67398C35.0377 8.61299 34.3855 9.66596 33.7498 10.7813C33.6756 10.9098 33.6015 11.0383 33.5251 11.1707C32.4982 13.0769 31.8517 15.3887 31.868 17.5513C31.869 17.7179 31.87 17.8845 31.871 18.0562C31.8722 18.182 31.8735 18.3079 31.8748 18.4375C34.6575 18.533 37.1607 18.456 39.8435 17.6563C39.9643 17.622 40.0851 17.5877 40.2096 17.5524C43.2361 16.685 46.0295 15.2523 48.5935 13.4375C48.6836 13.374 48.7737 13.3104 48.8665 13.2449C51.5484 11.3258 53.8071 8.95863 55.7419 6.29886C55.8093 6.20691 55.8766 6.11497 55.946 6.02024C56.3275 5.48628 56.3275 5.48628 56.406 4.84378C49.1989 1.02715 41.7567 1.85712 35.9183 7.67398ZM58.4373 6.56253C58.3063 6.73374 58.1823 6.91031 58.0613 7.08866C57.9459 7.2565 57.9459 7.2565 57.8282 7.42774C57.7456 7.54828 57.663 7.66881 57.5779 7.793C56.8355 8.86128 56.0499 9.83486 55.156 10.7813C54.9861 10.9825 54.8168 11.1844 54.6482 11.3868C50.5198 16.0914 44.4695 19.1512 38.4104 20.4224C38.1647 20.4749 38.1647 20.4749 37.914 20.5284C37.5156 20.6133 37.1171 20.6976 36.7185 20.7813C36.7039 22.0419 36.6929 23.3026 36.6861 24.5633C36.6829 25.149 36.6785 25.7346 36.6714 26.3202C36.6645 26.8876 36.6608 27.4549 36.6592 28.0223C36.6575 28.3393 36.6527 28.6564 36.6477 28.9734C36.647 31.7519 37.3786 34.1629 39.3217 36.2061C41.1491 37.9878 43.3269 38.9482 45.8787 38.9643C46.0201 38.9657 46.1615 38.9671 46.3072 38.9685C46.6056 38.9708 46.9039 38.9722 47.2023 38.9728C47.6505 38.9746 48.0984 38.9823 48.5465 38.9902C51.517 39.0164 53.9302 38.3764 56.1423 36.2793C56.8372 35.5525 57.3561 34.8 57.8123 33.9063C57.9117 33.7138 57.9117 33.7138 58.0131 33.5175C58.4126 32.7247 58.4126 32.7247 58.281 31.875C58.1674 31.9639 58.0538 32.0527 57.9368 32.1442C57.1099 32.7792 56.3142 33.3465 55.3904 33.8379C54.656 34.249 54.3392 34.5569 54.0378 35.3345C53.7446 35.9808 53.1781 36.3229 52.5317 36.58C51.6567 36.8225 50.7753 36.7764 49.8728 36.7774C49.5838 36.7831 49.5838 36.7831 49.289 36.789C48.0626 36.7929 46.9619 36.7155 46.0033 35.8786C45.2054 35 45.087 34.0727 45.1041 32.9309C45.1703 32.3809 45.3493 31.982 45.629 31.5088C45.8069 31.2265 45.8069 31.2265 45.9373 30.7813C46.1814 30.625 46.1814 30.625 46.5623 30.4688C46.7345 30.3894 46.9067 30.3101 47.0841 30.2283C47.9852 29.8926 48.8934 29.9317 49.8435 29.9414C50.0212 29.9396 50.1988 29.9378 50.3818 29.9359C51.623 29.9403 52.6127 30.0124 53.574 30.8692C53.6835 30.9949 53.7931 31.1205 53.906 31.25C54.0091 31.3532 54.1123 31.4563 54.2185 31.5625C55.4305 31.4819 56.5227 30.4138 57.3142 29.5606C57.4825 29.3442 57.6482 29.1259 57.8123 28.9063C57.8953 28.7995 57.9783 28.6928 58.0639 28.5828C59.0294 27.1225 58.8542 25.5556 58.8083 23.877C58.8036 23.5762 58.7994 23.2754 58.7955 22.9746C58.7853 22.2433 58.7691 21.5124 58.7498 20.7813C58.6103 20.7357 58.6103 20.7357 58.4681 20.6893C56.6587 20.0966 55.0585 19.4393 53.4373 18.4375C53.3176 18.3866 53.198 18.3356 53.0747 18.2831C52.9881 18.2309 52.9015 18.1788 52.8123 18.125C52.6728 17.5075 52.5831 17.0938 52.783 16.4942C53.0661 16.1216 53.2779 16.0943 53.74 16.0157C54.5054 16.0236 55.0312 16.4817 55.6455 16.8946C58.1414 18.5268 60.8592 18.6955 63.7498 18.5938C63.921 14.4785 62.4345 10.7034 59.6873 7.65628C59.1587 7.09065 59.1587 7.09065 58.5935 6.56253C58.5419 6.56253 58.4904 6.56253 58.4373 6.56253ZM31.8748 20.9375C31.8671 21.1941 31.8594 21.4507 31.8516 21.7151C31.7014 26.3271 30.926 29.7986 28.1058 33.5182C26.9828 35.0313 26.403 36.7028 26.5623 38.5938C26.9233 40.7006 27.7603 42.4221 29.4919 43.7012C31.2825 44.903 33.337 45.3123 35.4685 45C37.1505 44.5312 38.6935 43.6108 39.6158 42.107C39.9921 41.4029 40.2029 40.7945 40.3123 40C40.1819 39.9148 40.0516 39.8296 39.9174 39.7419C37.7115 38.2751 36.0582 36.5688 35.0974 34.0528C35.0601 33.9553 35.0228 33.8578 34.9844 33.7573C34.3962 32.1067 34.3245 30.442 34.3101 28.7043C34.3071 28.479 34.3041 28.2538 34.3009 28.0285C34.2929 27.4416 34.2867 26.8547 34.2809 26.2677C34.2746 25.6664 34.2666 25.0651 34.2588 24.4638C34.2438 23.2884 34.2307 22.113 34.2185 20.9375C33.4451 20.9375 32.6716 20.9375 31.8748 20.9375ZM61.2498 21.0938C61.2475 21.39 61.2452 21.6862 61.2429 21.9914C61.2347 22.9786 61.2245 23.9659 61.2129 24.9531C61.206 25.5506 61.1998 26.1482 61.1956 26.7458C61.1915 27.3243 61.1852 27.9028 61.1774 28.4813C61.1748 28.7001 61.173 28.919 61.172 29.1379C61.1544 32.6951 60.1507 35.5698 57.6853 38.1641C56.9199 38.9092 56.0799 39.4696 55.156 40C55.5843 41.7995 56.3773 43.0798 57.9685 44.0625C59.8909 45.1597 61.7579 45.3341 63.8865 44.7559C65.8443 44.0584 67.2077 42.9331 68.1736 41.1035C68.9885 39.3672 69.226 37.5234 68.5868 35.6787C68.1949 34.7191 67.6678 33.9134 67.0426 33.0915C64.2875 29.4602 63.8968 25.5211 63.7498 21.0938C62.9248 21.0938 62.0998 21.0938 61.2498 21.0938ZM47.4998 32.9688C47.4729 33.5363 47.4729 33.5363 47.656 34.0625C48.353 34.5272 49.014 34.4265 49.8337 34.4239C50.0686 34.4276 50.0686 34.4276 50.3083 34.4315C50.4593 34.4316 50.6102 34.4317 50.7657 34.4318C50.9724 34.4325 50.9724 34.4325 51.1832 34.4332C51.642 34.3628 51.8568 34.2289 52.1873 33.9063C52.267 33.2685 52.2363 33.0423 51.8748 32.5C51.206 32.2771 50.5638 32.3024 49.863 32.295C49.7226 32.2904 49.5823 32.2859 49.4376 32.2812C48.6069 32.2732 48.0714 32.2931 47.4998 32.9688ZM42.656 41.0938C42.6105 41.2128 42.565 41.3319 42.5181 41.4545C42.1423 42.4011 41.7399 43.2441 41.1454 44.0723C40.9275 44.3686 40.9275 44.3686 40.7926 44.7071C40.5803 45.0777 40.3864 45.1444 39.9998 45.3125C39.8097 45.4475 39.621 45.5844 39.4333 45.7227C38.3111 46.4873 37.0257 46.971 35.781 47.5C35.781 48.3766 35.781 49.2532 35.781 50.1563C36.8845 50.5534 37.9791 50.8083 39.1306 51.0254C39.2945 51.058 39.4583 51.0905 39.6271 51.124C42.174 51.6114 44.6858 51.7786 47.2751 51.7676C47.4186 51.7673 47.5621 51.7669 47.7099 51.7666C51.7799 51.7513 55.8061 51.2938 59.6873 50C59.6873 49.175 59.6873 48.35 59.6873 47.5C59.4166 47.3647 59.1459 47.2293 58.8669 47.0899C58.6104 46.9606 58.6104 46.9606 58.3488 46.8286C58.008 46.6596 57.6651 46.4947 57.3197 46.3355C55.0809 45.2867 53.7709 43.7227 52.9234 41.4037C52.8684 41.2503 52.8684 41.2503 52.8123 41.0938C52.6715 41.1103 52.6715 41.1103 52.528 41.1272C51.5532 41.2344 50.5941 41.273 49.614 41.2708C49.4639 41.2709 49.3137 41.2711 49.159 41.2712C48.8439 41.2713 48.5288 41.2711 48.2136 41.2704C47.7354 41.2696 47.2572 41.2704 46.7789 41.2714C46.4707 41.2713 46.1625 41.2711 45.8542 41.2708C45.7134 41.2711 45.5726 41.2714 45.4275 41.2717C44.4953 41.2684 43.5817 41.2027 42.656 41.0938ZM62.1873 48.5938C62.1873 50.8625 62.1873 53.1313 62.1873 55.4688C63.9166 55.4892 63.9166 55.4892 65.646 55.5012C67.1867 55.5232 68.4174 55.6668 69.5994 56.7578C70.9347 59.1081 70.0418 62.3098 69.7648 64.8816C69.7264 65.2416 69.6881 65.6016 69.6498 65.9616C69.5499 66.9012 69.4493 67.8407 69.3485 68.7801C69.1866 70.2912 69.0256 71.8024 68.8646 73.3135C68.8084 73.8407 68.7519 74.3678 68.6953 74.8949C68.661 75.2154 68.6268 75.5358 68.5926 75.8563C68.5767 76.0032 68.5609 76.1501 68.5446 76.3014C68.5304 76.435 68.5161 76.5685 68.5015 76.7061C68.489 76.8224 68.4765 76.9387 68.4637 77.0585C68.4325 77.3479 68.4325 77.3479 68.4373 77.6563C70.7576 77.6563 73.0779 77.6563 75.4685 77.6563C75.4756 75.4123 75.4813 73.1684 75.4847 70.9245C75.4863 69.8823 75.4885 68.8402 75.4921 67.7981C75.4955 66.7911 75.4974 65.784 75.4982 64.777C75.4987 64.3942 75.4998 64.0113 75.5015 63.6285C75.5172 59.9467 75.4305 56.4731 72.7329 53.6459C71.047 52.0674 68.8337 51.2454 66.737 50.367C66.2045 50.1439 65.6731 49.918 65.142 49.6915C64.8041 49.5482 64.4662 49.4051 64.1282 49.2621C63.9692 49.1948 63.8102 49.1274 63.6464 49.058C63.5002 48.9968 63.354 48.9357 63.2033 48.8727C63.0746 48.8186 62.9459 48.7646 62.8133 48.7089C62.5065 48.5758 62.5065 48.5758 62.1873 48.5938ZM58.3591 52.8107C58.222 52.8436 58.085 52.8765 57.9437 52.9103C57.7972 52.9457 57.6507 52.9811 57.4998 53.0176C56.3266 53.2925 55.1566 53.5339 53.9646 53.711C53.8448 53.729 53.7249 53.7469 53.6014 53.7655C51.5341 54.0587 49.4768 54.1003 47.3923 54.1016C47.1681 54.1018 47.1681 54.1018 46.9393 54.1019C44.592 54.0993 42.3167 53.9987 39.9998 53.5938C39.8118 53.5612 39.6239 53.5285 39.4302 53.4949C38.2112 53.2802 36.9955 53.0513 35.781 52.8125C35.781 53.6891 35.781 54.5657 35.781 55.4688C43.6701 55.4688 51.5591 55.4688 59.6873 55.4688C59.6873 54.5407 59.6873 53.6125 59.6873 52.6563C59.1795 52.6563 58.8398 52.6924 58.3591 52.8107ZM28.7498 58.75C28.6746 59.2534 28.6746 59.2534 28.7549 59.8118C28.7652 59.9191 28.7754 60.0265 28.7859 60.1371C28.8093 60.3774 28.8348 60.6174 28.8619 60.8573C28.9084 61.2712 28.949 61.6855 28.9887 62.1002C29.0839 63.0819 29.1876 64.0626 29.2917 65.0434C29.3297 65.4037 29.3676 65.7641 29.4056 66.1245C29.4845 66.874 29.5639 67.6234 29.6435 68.3728C29.7458 69.3353 29.8469 70.2979 29.9477 71.2605C30.0255 72.0019 30.104 72.7433 30.1826 73.4846C30.2202 73.8399 30.2575 74.1952 30.2947 74.5505C30.3464 75.0438 30.3989 75.5371 30.4517 76.0303C30.467 76.1777 30.4823 76.3252 30.498 76.4771C30.5096 77.1191 30.5096 77.1191 30.781 77.6563C31.2334 77.6716 31.682 77.6766 32.1345 77.6751C32.2782 77.6752 32.4219 77.6753 32.5699 77.6755C33.0553 77.6757 33.5406 77.6749 34.026 77.674C34.3724 77.674 34.7188 77.674 35.0651 77.6741C36.0087 77.6741 36.9523 77.6732 37.8959 77.6721C38.8808 77.6712 39.8657 77.6711 40.8507 77.6709C42.5048 77.6704 44.159 77.6695 45.8132 77.6681C47.5173 77.6666 49.2214 77.6655 50.9255 77.6649C51.0829 77.6648 51.0829 77.6648 51.2436 77.6647C51.7701 77.6645 52.2967 77.6643 52.8233 77.6641C57.1946 77.6625 61.5659 77.6598 65.9373 77.6563C66.1362 76.4124 66.3126 75.1703 66.4455 73.9176C66.4625 73.7603 66.4796 73.603 66.4972 73.441C66.5526 72.929 66.6072 72.417 66.6617 71.9049C66.7002 71.5458 66.7387 71.1866 66.7771 70.8274C66.8572 70.0785 66.9368 69.3295 67.0162 68.5805C67.118 67.6212 67.2215 66.6621 67.3252 65.703C67.405 64.963 67.4837 64.223 67.5621 63.4828C67.5997 63.129 67.6378 62.7752 67.6763 62.4215C67.7299 61.9281 67.7818 61.4345 67.8334 60.9409C67.8496 60.7955 67.8657 60.6502 67.8823 60.5004C67.9922 59.4599 67.9922 59.4599 67.8123 58.4375C67.5331 58.1228 67.3015 57.985 66.8832 57.9256C66.4841 57.907 66.0874 57.9049 65.6878 57.9072C65.534 57.9062 65.3803 57.9053 65.2219 57.9043C64.7052 57.9017 64.1886 57.9024 63.672 57.9032C63.3022 57.902 62.9323 57.9007 62.5625 57.8992C61.6614 57.896 60.7603 57.8952 59.8592 57.8954C59.1269 57.8956 58.3945 57.8951 57.6621 57.8939C57.4512 57.8936 57.2403 57.8932 57.0294 57.8929C56.872 57.8927 56.872 57.8927 56.7114 57.8924C54.7259 57.8895 52.7404 57.8896 50.755 57.8907C48.9383 57.8916 47.1217 57.8883 45.3051 57.8831C43.44 57.8779 41.575 57.8755 39.7099 57.8762C38.6627 57.8766 37.6155 57.8757 36.5683 57.8719C35.5837 57.8684 34.5992 57.8687 33.6146 57.8718C33.2529 57.8724 32.8911 57.8716 32.5294 57.8693C32.0363 57.8665 31.5434 57.8685 31.0503 57.8717C30.9065 57.8697 30.7627 57.8678 30.6145 57.8658C29.731 57.8781 29.2966 57.9912 28.7498 58.75Z" fill="black"/>
<path d="M18.2822 0.624221C18.4478 0.680818 18.6133 0.737416 18.7839 0.795729C21.973 2.00496 24.8264 4.70263 26.2354 7.80943C27.6022 11.0535 27.9119 14.7705 26.7197 18.1242C26.6535 18.3109 26.5872 18.4976 26.5189 18.69C25.8548 20.3789 24.909 21.8653 23.5947 23.1242C23.689 23.1846 23.7832 23.2451 23.8804 23.3073C25.4465 24.3279 25.4465 24.3279 25.7822 24.9992C25.8677 25.8885 25.7187 26.3369 25.1572 27.0305C24.6787 27.2697 24.1768 27.2139 23.6515 27.2169C23.4666 27.2188 23.4666 27.2188 23.2779 27.2207C22.8678 27.2246 22.4576 27.2272 22.0475 27.2294C21.9067 27.2303 21.7659 27.2311 21.6208 27.232C20.8727 27.2361 20.1247 27.2392 19.3766 27.2414C18.7624 27.2435 18.1483 27.2478 17.5341 27.2542C16.7891 27.262 16.0442 27.2658 15.2991 27.2669C15.0176 27.268 14.7362 27.2703 14.4548 27.2741C12.0028 27.3052 9.50574 26.994 7.34472 25.7414C7.18261 25.6512 7.18261 25.6512 7.01723 25.5591C3.74552 23.6845 1.49229 20.5959 0.411125 17.0109C-0.224188 14.4931 -0.140237 11.4884 0.782219 9.06172C0.84063 8.89797 0.89904 8.73422 0.959221 8.5655C1.65837 6.74354 2.72427 5.30741 4.06347 3.90547C4.14786 3.8094 4.23226 3.71332 4.31921 3.61433C7.69282 -0.082193 13.7126 -0.977778 18.2822 0.624221ZM5.74316 5.73164C3.49022 8.02192 2.60839 10.7573 2.60839 13.9049C2.6487 16.8327 3.75265 19.393 5.81762 21.4604C8.2013 23.7366 10.8587 24.7757 14.1636 24.7325C14.3586 24.7318 14.5536 24.7312 14.7546 24.7305C15.3706 24.7279 15.9865 24.722 16.6025 24.716C17.0231 24.7134 17.4436 24.7115 17.8641 24.7096C18.8889 24.7045 19.9137 24.6967 20.9385 24.6867C20.8881 24.5689 20.8378 24.4511 20.7859 24.3297C20.5798 23.7829 20.5648 23.3929 20.626 22.8117C20.9398 22.1972 21.3539 21.7688 21.8467 21.298C23.7787 19.4092 24.8273 16.742 24.908 14.0729C24.9429 10.9716 24.0785 8.21262 21.9072 5.9487C17.3415 1.37748 10.406 1.2102 5.74316 5.73164Z" fill="black"/>
<path d="M50.9425 63.9061C51.9245 64.6447 52.5521 65.5127 52.8175 66.7186C52.9969 68.362 52.7754 69.5807 51.7823 70.8983C50.9043 71.859 49.6825 72.2831 48.4132 72.3826C47.0818 72.2953 45.9624 71.8825 45.005 70.9373C44.0611 69.8047 43.7029 68.8073 43.7745 67.3436C43.865 66.4995 44.0759 65.8656 44.5362 65.1561C44.62 65.0207 44.7038 64.8854 44.7901 64.7459C46.4282 63.1078 48.9211 62.6829 50.9425 63.9061ZM46.5675 66.7186C46.2274 67.3866 46.2167 67.8337 46.421 68.5545C46.7895 69.1727 47.0948 69.5543 47.7949 69.7813C48.3913 69.899 48.8078 69.872 49.3507 69.5897C49.8547 69.2141 50.0928 69.0188 50.3175 68.4373C50.4064 67.8208 50.3784 67.3362 50.1417 66.7576C49.599 66.1064 49.1378 65.817 48.296 65.6834C47.5207 65.7281 47.0323 66.1171 46.5675 66.7186Z" fill="black"/>
<path d="M18.4326 12.2461C19.0692 12.3787 19.2989 12.6058 19.6826 13.125C19.7803 13.5938 19.7803 13.5938 19.6826 14.0625C19.2989 14.5817 19.0692 14.8088 18.4326 14.9414C17.796 14.8088 17.5664 14.5817 17.1826 14.0625C17.085 13.5938 17.085 13.5938 17.1826 13.125C17.5664 12.6058 17.796 12.3787 18.4326 12.2461Z" fill="black"/>
<path d="M13.7451 12.2461C14.3817 12.3787 14.6114 12.6058 14.9951 13.125C15.0928 13.5938 15.0928 13.5938 14.9951 14.0625C14.6114 14.5817 14.3817 14.8088 13.7451 14.9414C13.1085 14.8088 12.8789 14.5817 12.4951 14.0625C12.3975 13.5938 12.3975 13.5938 12.4951 13.125C12.8789 12.6058 13.1085 12.3787 13.7451 12.2461Z" fill="black"/>
<path d="M9.05762 12.2461C9.69423 12.3787 9.92388 12.6058 10.3076 13.125C10.4053 13.5938 10.4053 13.5938 10.3076 14.0625C9.92388 14.5817 9.69423 14.8088 9.05762 14.9414C8.421 14.8088 8.19136 14.5817 7.80762 14.0625C7.70996 13.5938 7.70996 13.5938 7.80762 13.125C8.19136 12.6058 8.421 12.3787 9.05762 12.2461Z" fill="black"/>
</g>
<defs>
<clipPath id="clip0_43_868">
<rect width="80" height="80" fill="white"/>
</clipPath>
</defs>
</svg>
