<svg width="290" height="290" viewBox="0 0 290 290" fill="none" xmlns="http://www.w3.org/2000/svg">
<path d="M152.393 257.778L149.502 223.944H146.612C119.248 223.944 96.0277 214.64 76.9502 196.032C57.8727 177.424 48.334 154.774 48.334 128.083C48.334 101.393 57.8727 78.7431 76.9502 60.1347C96.0277 41.5264 119.248 32.2222 146.612 32.2222C160.294 32.2222 173.058 34.7108 184.905 39.6881C196.761 44.6729 207.17 51.5337 216.135 60.2701C225.091 69.0142 232.121 79.1642 237.224 90.7201C242.334 102.284 244.89 114.738 244.89 128.083C244.89 156.654 236.122 182.262 218.586 204.908C201.05 227.561 178.986 245.184 152.393 257.778ZM175.517 201.389V216.614C189.199 205.336 200.325 192.134 208.897 177.006C217.476 161.872 221.765 145.564 221.765 128.083C221.765 107.595 214.493 90.2538 199.948 76.059C185.395 61.8715 167.616 54.7778 146.612 54.7778C125.607 54.7778 107.833 61.8715 93.2875 76.059C78.7347 90.2538 71.4583 107.595 71.4583 128.083C71.4583 148.571 78.7347 165.913 93.2875 180.108C107.833 194.295 125.607 201.389 146.612 201.389H175.517Z" stroke="black" stroke-width="6"/>
<path d="M153.223 174.412C151.334 176.286 149.052 177.222 146.376 177.222C143.7 177.222 141.417 176.286 139.529 174.412C137.64 172.538 136.695 170.274 136.695 167.62C136.695 164.966 137.64 162.702 139.529 160.829C141.417 158.955 143.7 158.018 146.376 158.018C149.052 158.018 151.334 158.955 153.223 160.829C155.112 162.702 156.056 164.966 156.056 167.62C156.056 170.274 155.112 172.538 153.223 174.412Z" stroke="black" stroke-width="6"/>
<path d="M153.695 147.479H139.528C139.528 140.453 140.12 135.573 141.304 132.837C142.481 130.108 145.824 126.402 151.334 121.717C153.537 119.532 155.426 117.383 157 115.272C158.574 113.168 159.362 110.788 159.362 108.134C159.362 105.324 158.3 102.748 156.179 100.406C154.051 98.0638 150.862 96.8929 146.612 96.8929C142.361 96.8929 139.135 98.1792 136.931 100.752C134.727 103.331 133.232 105.948 132.445 108.603L119.223 103.45C121.112 97.9858 124.417 93.3394 129.139 89.5107C133.862 85.6889 139.686 83.7778 146.612 83.7778C154.01 83.7778 160.426 85.7668 165.859 89.745C171.287 93.7296 174 99.7033 174 107.666C174 111.413 173.056 114.926 171.167 118.205C169.278 121.484 166.917 124.528 164.084 127.338C159.047 132.334 156.056 135.769 155.111 137.643C154.167 139.516 153.695 142.795 153.695 147.479Z" stroke="black" stroke-width="6"/>
</svg>
