<svg width="50" height="50" viewBox="0 0 50 50" fill="none" xmlns="http://www.w3.org/2000/svg">
<g clip-path="url(#clip0_118_115)">
<path d="M9.65712 -0.0407586C9.79493 -0.0411665 9.93274 -0.0417016 10.0705 -0.0423524C10.4479 -0.0437614 10.8252 -0.0433502 11.2025 -0.0426291C11.61 -0.0421666 12.0175 -0.043389 12.425 -0.0443886C13.2227 -0.0460668 14.0204 -0.0461492 14.8182 -0.0456373C15.4666 -0.0452424 16.1151 -0.0453838 16.7635 -0.0459057C16.902 -0.0460153 16.902 -0.0460153 17.0433 -0.0461272C17.2309 -0.0462767 17.4185 -0.046427 17.6061 -0.0465779C19.3647 -0.0479181 21.1232 -0.0473872 22.8818 -0.0462668C24.4902 -0.0452968 26.0986 -0.0465607 27.707 -0.0488971C29.3591 -0.0512788 31.0113 -0.0522173 32.6634 -0.0515677C33.5907 -0.0512267 34.518 -0.0514449 35.4453 -0.0531547C36.2346 -0.0545922 37.024 -0.0546548 37.8133 -0.0529525C38.2159 -0.052121 38.6185 -0.0519126 39.0211 -0.0534068C39.39 -0.0547587 39.7588 -0.0542943 40.1276 -0.0524068C40.3236 -0.0518661 40.5196 -0.0532383 40.7156 -0.0546875C41.4251 -0.0489058 41.9609 0.0296164 42.5785 0.387726C42.6564 0.432415 42.7343 0.477104 42.8146 0.523147C43.6616 1.14575 44.0343 1.91082 44.2386 2.92679C44.2755 3.29599 44.2784 3.66104 44.2759 4.03186C44.2763 4.13777 44.2768 4.24367 44.2772 4.35279C44.2784 4.70482 44.2775 5.05681 44.2766 5.40884C44.277 5.66238 44.2775 5.91592 44.2781 6.16945C44.2794 6.78486 44.2791 7.40027 44.2783 8.01568C44.2776 8.51608 44.2775 9.01648 44.2779 9.51688C44.2779 9.58827 44.2779 9.65967 44.278 9.73323C44.2781 9.87829 44.2782 10.0234 44.2783 10.1684C44.2791 11.5265 44.2782 12.8846 44.2766 14.2428C44.2753 15.4066 44.2755 16.5705 44.2768 17.7344C44.2784 19.088 44.279 20.4416 44.2781 21.7952C44.278 21.9397 44.2779 22.0842 44.2779 22.2287C44.2778 22.2998 44.2778 22.3708 44.2777 22.4441C44.2775 22.9436 44.2779 23.4431 44.2786 23.9426C44.2795 24.6155 44.2788 25.2884 44.2771 25.9613C44.2768 26.208 44.2769 26.4547 44.2775 26.7013C44.2783 27.0386 44.2773 27.3758 44.2759 27.713C44.2765 27.8101 44.2772 27.9073 44.2778 28.0073C44.2686 29.1097 43.9561 30.0191 43.2007 30.8324C42.2799 31.6849 41.2414 31.7503 40.0421 31.7465C39.9249 31.7465 39.8077 31.7465 39.6869 31.7465C39.3667 31.7465 39.0465 31.746 38.7264 31.7453C38.3913 31.7447 38.0562 31.7446 37.7211 31.7445C37.0872 31.7442 36.4532 31.7434 35.8193 31.7424C35.0973 31.7413 34.3754 31.7408 33.6534 31.7403C32.1688 31.7393 30.6842 31.7375 29.1996 31.7354C29.1996 32.7989 29.1996 33.8623 29.1996 34.958C29.5326 34.9535 29.8655 34.949 30.2086 34.9443C30.5341 34.9413 30.8595 34.9389 31.185 34.9366C31.4098 34.9346 31.6345 34.932 31.8593 34.9286C32.1839 34.9238 32.5084 34.9216 32.8331 34.9199C32.9322 34.9179 33.0313 34.9159 33.1335 34.9138C34.2259 34.9134 35.0415 35.2377 35.8242 35.9968C36.5718 36.8132 36.7486 37.6487 36.7475 38.7313C36.7481 38.8221 36.7488 38.9128 36.7495 39.0064C36.7513 39.3045 36.7517 39.6026 36.7519 39.9007C36.7526 40.1094 36.7532 40.3181 36.7539 40.5268C36.7551 40.9636 36.7554 41.4004 36.7553 41.8372C36.7553 42.3947 36.758 42.9522 36.7613 43.5097C36.7635 43.9406 36.7639 44.3715 36.7638 44.8024C36.764 45.0078 36.7649 45.2133 36.7664 45.4187C36.7751 46.7156 36.779 47.88 35.9218 48.9374C35.2769 49.5879 34.5581 50.0151 33.628 50.0241C33.5589 50.0238 33.4897 50.0235 33.4185 50.0232C33.3437 50.0237 33.2688 50.0241 33.1917 50.0246C32.9418 50.0258 32.692 50.0256 32.4422 50.0255C32.2626 50.0261 32.0831 50.0267 31.9035 50.0275C31.4165 50.0292 30.9294 50.0296 30.4423 50.0298C30.1378 50.0299 29.8333 50.0303 29.5288 50.0308C28.4659 50.0327 27.403 50.0334 26.3402 50.0333C25.3503 50.0332 24.3605 50.0352 23.3706 50.0383C22.52 50.0409 21.6694 50.0419 20.8188 50.0418C20.3111 50.0418 19.8035 50.0423 19.2958 50.0444C18.8181 50.0463 18.3405 50.0463 17.8628 50.0449C17.6879 50.0447 17.513 50.0451 17.3381 50.0463C15.6518 50.057 15.6518 50.057 14.9418 49.6065C14.8639 49.5618 14.7859 49.5171 14.7056 49.4711C13.9343 48.904 13.5181 48.1811 13.2816 47.2627C13.2435 46.944 13.2414 46.6297 13.2437 46.3089C13.2432 46.2179 13.2427 46.127 13.2422 46.0333C13.2409 45.7352 13.2417 45.4372 13.2427 45.1391C13.2425 44.9303 13.2422 44.7215 13.2419 44.5127C13.2414 44.0761 13.2421 43.6395 13.2434 43.2029C13.2451 42.6453 13.2441 42.0876 13.2424 41.53C13.2413 41.0991 13.2417 40.6682 13.2424 40.2373C13.2426 40.0318 13.2424 39.8263 13.2417 39.6208C13.2409 39.3327 13.2421 39.0446 13.2437 38.7565C13.2431 38.6729 13.2425 38.5892 13.2419 38.503C13.2532 37.41 13.5973 36.6363 14.3345 35.8457C15.048 35.157 15.8896 34.9135 16.8673 34.9138C16.9664 34.9158 17.0655 34.9178 17.1677 34.9199C17.3247 34.9207 17.3247 34.9207 17.4849 34.9216C17.8152 34.9237 18.1454 34.9286 18.4757 34.9336C18.7013 34.9356 18.927 34.9374 19.1526 34.939C19.7022 34.9429 20.2516 34.9506 20.8012 34.958C20.8012 33.8946 20.8012 32.8311 20.8012 31.7354C20.4419 31.7364 20.0826 31.7374 19.7125 31.7385C18.5244 31.7417 17.3363 31.7439 16.1483 31.7455C15.4281 31.7465 14.7079 31.7479 13.9877 31.7501C13.3597 31.7521 12.7317 31.7533 12.1037 31.7538C11.7714 31.754 11.4391 31.7546 11.1069 31.756C10.7352 31.7575 10.3635 31.7576 9.99185 31.7576C9.88269 31.7583 9.77353 31.759 9.66107 31.7597C8.51721 31.7567 7.60329 31.5609 6.73407 30.7729C6.09342 30.0871 5.7511 29.2859 5.74898 28.345C5.74855 28.2547 5.74811 28.1643 5.74766 28.0713C5.74768 27.9728 5.7477 27.8744 5.74772 27.7731C5.74736 27.6679 5.747 27.5627 5.74663 27.4543C5.74555 27.1011 5.74518 26.748 5.7448 26.3948C5.74419 26.1418 5.74354 25.8889 5.74286 25.6359C5.74093 24.8763 5.73995 24.1166 5.73908 23.357C5.73865 22.9989 5.73812 22.6407 5.73761 22.2826C5.73595 21.0913 5.73454 19.9001 5.73383 18.7088C5.73364 18.3998 5.73346 18.0909 5.73326 17.7819C5.73322 17.7051 5.73317 17.6284 5.73312 17.5493C5.73231 16.3064 5.72984 15.0636 5.72666 13.8207C5.72343 12.5434 5.72168 11.266 5.72136 9.98866C5.72115 9.27202 5.72031 8.55539 5.7178 7.83876C5.71545 7.16417 5.71512 6.4896 5.71612 5.815C5.71617 5.56798 5.71555 5.32096 5.71421 5.07394C5.69881 2.07207 5.69881 2.07207 6.65549 0.960693C7.53554 0.0732194 8.44682 -0.0463486 9.65712 -0.0407586ZM7.77625 2.43851C7.09702 3.69246 7.5199 5.32701 7.5199 6.63773C19.057 6.63773 30.5941 6.63773 42.4808 6.63773C42.7561 4.21972 42.7561 4.21972 41.9498 2.16385C41.5472 1.82015 41.2833 1.73053 40.7534 1.72979C40.6394 1.72916 40.5255 1.72853 40.408 1.72788C40.2827 1.72818 40.1574 1.72849 40.0283 1.7288C39.8939 1.72843 39.7595 1.72798 39.6251 1.72746C39.2555 1.72626 38.8858 1.72629 38.5161 1.72652C38.1175 1.72656 37.719 1.72548 37.3204 1.72455C36.5394 1.72293 35.7584 1.72239 34.9774 1.72229C34.3426 1.72219 33.7078 1.72179 33.0731 1.72117C31.2739 1.71945 29.4747 1.71855 27.6755 1.7187C27.53 1.71871 27.53 1.71871 27.3815 1.71872C27.2843 1.71873 27.1872 1.71874 27.0871 1.71875C25.5126 1.71882 23.9382 1.71696 22.3637 1.7142C20.7476 1.7114 19.1314 1.71005 17.5153 1.71022C16.6078 1.71028 15.7002 1.70974 14.7927 1.70764C14.02 1.70587 13.2473 1.70544 12.4746 1.70677C12.0803 1.7074 11.686 1.70741 11.2918 1.70572C10.9308 1.70419 10.5698 1.70446 10.2087 1.70617C10.0165 1.70661 9.82417 1.70513 9.63189 1.70358C8.81804 1.70995 8.30474 1.77094 7.77625 2.43851ZM7.5199 8.39554C7.51386 11.6988 7.50782 15.002 7.50159 18.4053C7.49892 19.4484 7.49626 20.4916 7.49351 21.5664C7.49253 22.5011 7.49253 22.5011 7.49194 23.4359C7.49167 23.8523 7.49057 24.2688 7.48897 24.6853C7.48696 25.2167 7.48636 25.7481 7.48678 26.2795C7.48669 26.4744 7.48611 26.6693 7.48498 26.8642C7.48351 27.1279 7.48387 27.3914 7.48467 27.655C7.48382 27.731 7.48296 27.807 7.48209 27.8853C7.48661 28.4406 7.56591 29.0053 7.94084 29.4435C8.59853 30.0317 9.30406 30.0051 10.136 29.9997C10.2513 29.9998 10.3666 29.9998 10.4855 29.9998C10.8004 29.9997 11.1153 29.9987 11.4302 29.9974C11.7598 29.9961 12.0895 29.996 12.4191 29.9958C13.0426 29.9952 13.6662 29.9936 14.2898 29.9916C15.0696 29.9892 15.8495 29.9882 16.6294 29.9871C18.02 29.9852 19.4106 29.9813 20.8012 29.9776C20.8012 27.5284 20.8012 25.0791 20.8012 22.5557C20.3822 22.5235 19.9633 22.4912 19.5316 22.458C19.0241 22.2842 18.768 22.1625 18.5062 21.6951C18.3175 21.2356 18.255 20.8574 18.4498 20.3833C18.7371 19.8008 19.0671 19.3045 19.4767 18.802C19.5991 18.6483 19.7213 18.4945 19.8433 18.3405C19.9052 18.2624 19.9672 18.1843 20.031 18.1038C20.3246 17.7283 20.6057 17.3439 20.8866 16.9588C21.4485 16.1902 22.0218 15.4312 22.6018 14.6762C23.0021 14.154 23.3891 13.6276 23.753 13.0792C24.0327 12.7699 24.3501 12.6225 24.7589 12.5524C24.8754 12.5522 24.8754 12.5522 24.9943 12.552C25.0717 12.5501 25.1491 12.5483 25.2289 12.5463C26.0109 12.6921 26.3734 13.191 26.8009 13.8094C26.9206 13.9772 27.0405 14.1449 27.1606 14.3125C27.2535 14.443 27.2535 14.443 27.3483 14.5761C27.6636 15.0129 27.9924 15.4392 28.3207 15.8662C28.9958 16.7484 29.6602 17.6379 30.3147 18.5354C30.4162 18.6745 30.5178 18.8135 30.6197 18.9523C30.7573 19.1398 30.8941 19.3279 31.0306 19.5161C31.0703 19.5701 31.11 19.6241 31.151 19.6798C31.5329 20.2105 31.7081 20.6265 31.641 21.2862C31.4811 21.7336 31.2933 22.1301 30.8597 22.3604C30.3192 22.4955 29.7551 22.513 29.1996 22.5557C29.1996 25.0049 29.1996 27.4541 29.1996 29.9776C31.3828 29.9864 31.3828 29.9864 33.5659 29.9923C34.3468 29.9939 35.1277 29.996 35.9085 29.9997C36.5269 30.0026 37.1452 30.0045 37.7635 30.0051C38.0907 30.0055 38.4178 30.0066 38.745 30.0085C39.1109 30.0107 39.4767 30.011 39.8426 30.0108C39.9503 30.0119 40.058 30.0129 40.1689 30.014C40.8043 30.0115 41.4387 29.994 41.9456 29.5566C42.4513 28.9964 42.5097 28.4033 42.5043 27.6785C42.5045 27.5961 42.5047 27.5136 42.5048 27.4287C42.5052 27.1523 42.5041 26.8759 42.503 26.5995C42.503 26.398 42.503 26.1965 42.5031 25.995C42.5031 25.4557 42.502 24.9163 42.5006 24.3769C42.4995 23.8707 42.4995 23.3645 42.4993 22.8583C42.4983 21.378 42.4956 19.8978 42.493 18.4175C42.489 15.1103 42.485 11.803 42.4808 8.39554C30.9437 8.39554 19.4066 8.39554 7.5199 8.39554ZM24.9027 14.4502C24.7488 14.6152 24.7488 14.6152 24.5899 14.8336C24.5271 14.9166 24.4643 14.9995 24.3996 15.085C24.332 15.1756 24.2644 15.2663 24.1947 15.3596C24.1246 15.4527 24.0545 15.5457 23.9822 15.6416C23.4807 16.3085 22.9851 16.9798 22.4924 17.6532C21.9768 18.3563 21.4473 19.0486 20.9137 19.7382C20.8509 19.8199 20.7881 19.9016 20.7233 19.9857C20.6676 20.0578 20.6119 20.1299 20.5544 20.2041C20.4186 20.3959 20.3137 20.5849 20.2152 20.7979C20.2694 20.7983 20.3235 20.7987 20.3793 20.7991C20.6258 20.8023 20.8721 20.8092 21.1185 20.8162C21.2464 20.817 21.2464 20.817 21.3768 20.8179C21.4592 20.8207 21.5417 20.8236 21.6267 20.8265C21.7023 20.828 21.778 20.8296 21.856 20.8311C22.1768 20.9274 22.2775 21.1097 22.4613 21.3838C22.5109 21.6559 22.5109 21.6559 22.512 21.9579C22.5133 22.0728 22.5147 22.1876 22.5161 22.306C22.5156 22.4312 22.5151 22.5564 22.5146 22.6853C22.5155 22.8191 22.5165 22.9529 22.5177 23.0867C22.5204 23.4493 22.5207 23.8118 22.5206 24.1744C22.5209 24.5535 22.5234 24.9326 22.5257 25.3118C22.5297 26.0294 22.5317 26.7471 22.5329 27.4647C22.5345 28.2819 22.5382 29.099 22.5422 29.9161C22.5502 31.5968 22.5552 33.2774 22.559 34.958C24.1703 34.958 25.7816 34.958 27.4418 34.958C27.4427 34.5494 27.4436 34.1407 27.4445 33.7197C27.4478 32.3711 27.4532 31.0224 27.4597 29.6738C27.4636 28.8559 27.4668 28.0381 27.4682 27.2202C27.4695 26.5073 27.4721 25.7945 27.4764 25.0817C27.4786 24.7042 27.4801 24.3268 27.48 23.9493C27.48 23.594 27.4817 23.2387 27.4849 22.8834C27.4861 22.6909 27.4854 22.4985 27.4846 22.306C27.4867 22.1337 27.4867 22.1337 27.4888 21.9579C27.4893 21.8084 27.4893 21.8084 27.4898 21.6559C27.5527 21.311 27.6885 21.145 27.9301 20.8955C28.1447 20.8311 28.1447 20.8311 28.3741 20.8265C28.4565 20.8237 28.539 20.8208 28.624 20.8179C28.7092 20.8173 28.7944 20.8168 28.8822 20.8162C28.9689 20.8137 29.0557 20.8113 29.145 20.8088C29.3586 20.803 29.5719 20.7995 29.7855 20.7979C29.4919 20.2502 29.1468 19.7758 28.7601 19.2903C28.6367 19.1335 28.5133 18.9766 28.3901 18.8196C28.3288 18.7415 28.2674 18.6634 28.2042 18.583C27.9497 18.2564 27.7013 17.9255 27.454 17.5935C26.9104 16.8643 26.3593 16.1409 25.8065 15.4187C25.7107 15.2933 25.7107 15.2933 25.613 15.1655C25.556 15.091 25.4991 15.0166 25.4403 14.9399C25.3211 14.7804 25.2085 14.6159 25.098 14.4502C25.0336 14.4502 24.9691 14.4502 24.9027 14.4502ZM15.3995 37.3506C15.3276 37.4367 15.3276 37.4367 15.2542 37.5246C14.9753 37.9243 15.0236 38.3649 15.0221 38.831C15.0215 38.9174 15.0209 39.0038 15.0202 39.0929C15.0183 39.3792 15.0171 39.6655 15.0162 39.9519C15.0158 40.0497 15.0154 40.1476 15.015 40.2485C15.0129 40.7667 15.0115 41.2849 15.0106 41.8031C15.0095 42.3376 15.0062 42.872 15.0023 43.4065C14.9997 43.8181 14.9989 44.2297 14.9986 44.6413C14.9981 44.8383 14.997 45.0353 14.9951 45.2322C14.9928 45.5085 14.9929 45.7847 14.9935 46.061C14.9923 46.1417 14.991 46.2225 14.9897 46.3057C14.9947 46.8628 15.1189 47.285 15.4301 47.751C15.9083 48.2059 16.2633 48.2516 16.9093 48.2537C16.9808 48.254 17.0524 48.2544 17.1261 48.2547C17.3665 48.2558 17.6069 48.2562 17.8473 48.2566C18.0195 48.2572 18.1916 48.2578 18.3637 48.2585C18.9295 48.2606 19.4953 48.2616 20.0611 48.2626C20.2559 48.263 20.4506 48.2634 20.6454 48.2638C21.5603 48.2656 22.4753 48.267 23.3902 48.2678C24.4464 48.2688 25.5027 48.2714 26.5589 48.2753C27.3753 48.2782 28.1916 48.2797 29.0079 48.28C29.4955 48.2802 29.9831 48.2811 30.4707 48.2836C30.9295 48.2858 31.3883 48.2863 31.8471 48.2853C32.0154 48.2852 32.1836 48.2858 32.3518 48.2872C32.5818 48.2889 32.8118 48.2882 33.0419 48.2869C33.1705 48.2872 33.2991 48.2874 33.4316 48.2876C33.9921 48.2119 34.3526 48.0039 34.705 47.5496C34.9719 47.067 34.9763 46.6593 34.977 46.1211C34.9775 46.0343 34.978 45.9476 34.9785 45.8582C34.9799 45.571 34.9806 45.2837 34.9811 44.9964C34.9817 44.7968 34.9823 44.5972 34.9828 44.3976C34.9839 43.9788 34.9844 43.5601 34.9848 43.1413C34.9853 42.605 34.9876 42.0688 34.9904 41.5326C34.9922 41.1201 34.9928 40.7077 34.9929 40.2953C34.9932 40.0976 34.994 39.8999 34.9953 39.7022C34.9969 39.4255 34.9968 39.1488 34.9961 38.872C34.9975 38.7498 34.9975 38.7498 34.9988 38.6252C34.9948 38.0622 34.8954 37.6456 34.5005 37.2175C34.4431 37.1708 34.3857 37.1241 34.3265 37.076C34.2691 37.028 34.2117 36.98 34.1526 36.9306C33.7857 36.6746 33.4334 36.7031 33.0006 36.7021C32.9297 36.7018 32.8589 36.7016 32.786 36.7013C32.548 36.7004 32.3101 36.7003 32.0721 36.7001C31.9018 36.6997 31.7314 36.6992 31.5611 36.6986C31.0978 36.6974 30.6345 36.6967 30.1713 36.6963C29.8819 36.696 29.5925 36.6956 29.3032 36.6952C28.398 36.6938 27.4928 36.6929 26.5876 36.6925C25.5423 36.6921 24.4971 36.6904 23.4519 36.6875C22.6442 36.6854 21.8364 36.6844 21.0287 36.6843C20.5462 36.6842 20.0637 36.6836 19.5812 36.6819C19.1273 36.6803 18.6734 36.6801 18.2194 36.6809C18.0529 36.681 17.8864 36.6806 17.7199 36.6796C17.4923 36.6784 17.2649 36.6789 17.0374 36.68C16.9101 36.6798 16.7828 36.6797 16.6517 36.6795C16.1185 36.736 15.7369 36.9359 15.3995 37.3506Z" fill="black"/>
<path d="M29.6857 40.0398C30.063 40.2478 30.4149 40.4861 30.7663 40.7351C30.9309 40.8517 31.0968 40.9661 31.2631 41.0803C32.2325 41.7538 32.2325 41.7538 32.5177 42.0906C32.5933 42.6198 32.5933 42.6198 32.5177 42.8719C32.0639 43.3638 31.5415 43.7286 30.9925 44.1063C30.8273 44.2206 30.6641 44.3372 30.5007 44.454C29.6075 45.0699 29.6075 45.0699 29.1383 45.0825C28.8068 45.0203 28.8068 45.0203 28.5138 44.825C28.2964 44.4989 28.2437 44.3217 28.2731 43.9373C28.4025 43.4056 28.9398 43.1732 29.3683 42.9024C29.4625 42.8456 29.5566 42.7888 29.6537 42.7304C29.8909 42.5995 29.8909 42.5995 29.9787 42.3836C29.9097 42.3594 29.8407 42.3353 29.7696 42.3104C29.4552 42.1729 29.2052 42.0008 28.9289 41.7977C28.8347 41.7292 28.7405 41.6607 28.6435 41.5901C28.4162 41.407 28.4162 41.407 28.3185 41.2117C28.2615 40.5046 28.2615 40.5046 28.5016 40.1924C28.9043 39.8964 29.2146 39.8942 29.6857 40.0398Z" fill="black"/>
<path d="M21.2886 40.041C21.5266 40.1936 21.5266 40.1936 21.6792 40.4316C21.7442 40.8865 21.7682 41.0912 21.4961 41.4631C20.3145 42.3847 20.3145 42.3847 20.0191 42.3847C20.3816 42.7756 20.7898 43.0214 21.2436 43.2945C21.4839 43.4589 21.4839 43.4589 21.6792 43.7519C21.7329 44.2271 21.751 44.4255 21.4839 44.8261C21.1204 45.0685 20.831 45.0854 20.4097 45.0214C20.1598 44.8984 19.9644 44.7857 19.7421 44.6258C19.6534 44.5651 19.6534 44.5651 19.5629 44.5032C19.4391 44.4179 19.3159 44.3317 19.1932 44.2448C19.0055 44.1117 18.8161 43.9813 18.6263 43.8513C18.5058 43.7678 18.3854 43.6842 18.2651 43.6005C18.2087 43.5614 18.1524 43.5223 18.0943 43.4821C17.8283 43.2929 17.6636 43.1484 17.48 42.873C17.4274 42.5575 17.3998 42.391 17.48 42.0917C17.9721 41.5116 18.6873 41.1014 19.3172 40.6879C19.409 40.6266 19.5008 40.5653 19.5954 40.5022C20.5475 39.872 20.5475 39.872 21.2886 40.041Z" fill="black"/>
<path d="M26.062 39.1213C26.2695 39.1587 26.2695 39.1587 26.5137 39.3174C26.7259 39.6535 26.7964 39.9442 26.7163 40.3411C26.6459 40.5855 26.5674 40.8257 26.4854 41.0665C26.4415 41.2005 26.4415 41.2005 26.3966 41.3373C26.3025 41.6227 26.2067 41.9074 26.1108 42.1922C26.0485 42.381 25.9864 42.5699 25.9243 42.7589C25.7766 43.2065 25.6256 43.6529 25.4719 44.0986C25.4205 44.2478 25.3696 44.3972 25.3193 44.5468C25.2586 44.7268 25.1954 44.9059 25.132 45.0849C25.0988 45.18 25.0657 45.2751 25.0315 45.373C24.8689 45.6639 24.7154 45.7608 24.4141 45.897C24.0295 45.8903 23.8098 45.8578 23.4985 45.6285C23.3079 45.3645 23.2667 45.2468 23.2422 44.9205C23.3099 44.604 23.4137 44.3014 23.518 43.9954C23.5475 43.9057 23.5771 43.8159 23.6076 43.7235C23.7024 43.4365 23.7988 43.15 23.8953 42.8636C23.9584 42.6734 24.0214 42.4833 24.0843 42.2931C24.2048 41.9291 24.3264 41.5655 24.4489 41.2022C24.5453 40.9157 24.6391 40.6289 24.7275 40.3398C24.7596 40.2362 24.7918 40.1326 24.8249 40.0258C24.8502 39.9409 24.8755 39.856 24.9015 39.7685C25.1563 39.2016 25.4818 39.0927 26.062 39.1213Z" fill="black"/>
<path d="M36.6419 3.27794C36.7247 3.2767 36.8075 3.27546 36.8928 3.27418C36.9819 3.27447 37.071 3.27476 37.1629 3.27505C37.3007 3.27429 37.3007 3.27429 37.4412 3.2735C37.6355 3.27287 37.8299 3.27301 38.0242 3.27384C38.3215 3.27467 38.6186 3.27186 38.9159 3.26876C39.1047 3.2686 39.2934 3.26866 39.4822 3.26895C39.5711 3.26785 39.66 3.26676 39.7516 3.26562C40.3667 3.27241 40.3667 3.27241 40.6774 3.49819C40.8648 3.77545 40.9102 3.95882 40.9169 4.29396C40.8091 4.58893 40.7278 4.80344 40.4709 4.9925C40.1123 5.11734 39.7546 5.105 39.3792 5.10458C39.2964 5.105 39.2136 5.10542 39.1282 5.10585C38.9533 5.10641 38.7784 5.10646 38.6035 5.10604C38.3364 5.10573 38.0694 5.10802 37.8024 5.11049C37.6322 5.11072 37.462 5.11079 37.2918 5.11069C37.2122 5.11158 37.1327 5.11248 37.0507 5.11341C36.6019 5.10977 36.2962 5.08075 35.9364 4.78224C35.7851 4.42688 35.7138 4.20814 35.8083 3.83009C36.0321 3.44645 36.1877 3.28123 36.6419 3.27794Z" fill="black"/>
<path d="M14.6042 3.27935C14.6783 3.2774 14.7525 3.27545 14.8289 3.27344C15.1805 3.27375 15.3903 3.28926 15.6757 3.50251C15.872 3.77916 15.9157 3.95925 15.9225 4.29864C15.812 4.60109 15.7341 4.81419 15.4625 4.99711C15.1706 5.10519 14.9211 5.10933 14.6103 5.1104C14.4473 5.11286 14.4473 5.11286 14.2811 5.11536C13.9354 5.07602 13.7573 4.9949 13.4811 4.78692C13.2704 4.47088 13.261 4.41233 13.298 4.0545C13.3043 3.97897 13.3106 3.90343 13.3171 3.82561C13.3835 3.61504 13.3835 3.61504 13.5322 3.44376C13.8827 3.26741 14.2207 3.27577 14.6042 3.27935Z" fill="black"/>
<path d="M10.403 3.27628C10.4771 3.27559 10.5513 3.2749 10.6277 3.27418C10.9438 3.27778 11.1902 3.29726 11.4741 3.44146C11.7055 3.70531 11.7137 3.9326 11.7381 4.27344C11.7124 4.60617 11.5748 4.76216 11.3307 4.97916C11.0081 5.08669 10.7547 5.09657 10.4152 5.10123C10.3057 5.10375 10.1961 5.10627 10.0833 5.10886C9.73546 5.07349 9.55762 4.99212 9.27993 4.78385C9.10969 4.49753 9.08322 4.32984 9.09683 3.9965C9.30412 3.30057 9.74323 3.25892 10.403 3.27628Z" fill="black"/>
<path d="M18.7516 3.25963C18.8198 3.25774 18.888 3.25585 18.9583 3.25391C19.3389 3.2575 19.519 3.31002 19.8223 3.54382C20.1201 3.94104 20.0905 4.10453 20.0211 4.59019C19.8055 4.8801 19.6807 4.96409 19.3375 5.07848C19.1466 5.09262 18.9552 5.10003 18.7638 5.10289C18.6131 5.10667 18.6131 5.10667 18.4594 5.11052C18.0327 5.06397 17.7811 4.8893 17.482 4.59019C17.4044 3.91327 17.4044 3.91327 17.68 3.54306C18.0398 3.2674 18.3156 3.24756 18.7516 3.25963Z" fill="black"/>
</g>
<defs>
<clipPath id="clip0_118_115">
<rect width="50" height="50" fill="white"/>
</clipPath>
</defs>
</svg>
