<svg width="70" height="70" viewBox="0 0 70 70" fill="none" xmlns="http://www.w3.org/2000/svg">
<circle cx="35" cy="35" r="35" fill="#FFE8AF"/>
<path d="M47.4595 26.8543C47.5476 26.853 47.5476 26.853 47.6376 26.8516C47.9188 26.9262 48.0005 27.0152 48.172 27.2551C48.2273 27.5877 48.22 27.9186 48.2172 28.2551C48.2181 28.41 48.2181 28.41 48.2189 28.568C48.2201 28.8548 48.2197 29.1414 48.2186 29.4282C48.2178 29.7374 48.219 30.0466 48.22 30.3559C48.2216 30.9619 48.2212 31.5678 48.2202 32.1738C48.2194 32.6666 48.2193 33.1594 48.2197 33.6522C48.2197 33.7223 48.2198 33.7924 48.2198 33.8647C48.2199 34.0071 48.2201 34.1496 48.2202 34.292C48.2212 35.6287 48.22 36.9654 48.2181 38.3021C48.2165 39.4479 48.2168 40.5938 48.2184 41.7396C48.2203 43.0705 48.2211 44.4014 48.22 45.7324C48.2199 45.8745 48.2198 46.0166 48.2197 46.1587C48.2196 46.2636 48.2196 46.2636 48.2195 46.3706C48.2192 46.8622 48.2197 47.3539 48.2205 47.8455C48.2215 48.4455 48.2213 49.0455 48.2194 49.6455C48.2184 49.9514 48.2181 50.2572 48.2193 50.5631C48.2202 50.8955 48.219 51.2277 48.2172 51.5601C48.2184 51.7036 48.2184 51.7036 48.2196 51.85C48.2092 52.8636 47.8946 53.6848 47.1923 54.4205C46.0925 55.4704 44.9023 55.4523 43.4674 55.4464C43.2706 55.4469 43.0737 55.4475 42.8768 55.4483C42.3443 55.4499 41.8117 55.4493 41.2792 55.4481C40.7207 55.4472 40.1623 55.4481 39.6038 55.4486C38.6061 55.4493 37.6084 55.4482 36.6108 55.4464C35.7078 55.4448 34.8049 55.4451 33.902 55.4467C32.8512 55.4486 31.8004 55.4493 30.7495 55.4483C30.1941 55.4477 29.6387 55.4476 29.0833 55.4488C28.561 55.4499 28.0387 55.4491 27.5165 55.4471C27.3253 55.4466 27.1341 55.4467 26.9429 55.4475C25.5985 55.4526 24.522 55.3958 23.5005 54.4205C22.615 53.493 22.4667 52.5232 22.4859 51.2771C22.4866 51.1487 22.4871 51.0203 22.4875 50.8919C22.4888 50.5573 22.4923 50.2228 22.4963 49.8882C22.5006 49.485 22.5022 49.0817 22.5043 48.6785C22.5077 48.0689 22.5145 47.4594 22.5207 46.8499C21.3157 46.8499 20.1106 46.8499 18.869 46.8499C18.8102 47.0262 18.7514 47.2026 18.6909 47.3843C18.3808 47.8056 17.9664 48.1715 17.4439 48.2749C16.7412 48.342 16.0576 48.3789 15.4845 47.9187C15.0351 47.4907 14.718 47.1026 14.6529 46.4696C14.6446 45.7111 14.6724 45.1864 15.2058 44.6263C15.8207 44.0579 16.304 43.9569 17.1371 43.9726C17.8422 44.0349 18.2104 44.3662 18.6599 44.8904C18.7799 45.0685 18.7799 45.0685 18.869 45.4248C21.4849 45.4248 24.1008 45.4248 26.7959 45.4248C26.7959 44.1315 26.7959 42.8383 26.7959 41.5058C27.1522 41.1496 27.1522 41.1496 27.3303 41.1023C27.3891 41.1032 27.4479 41.1041 27.5085 41.105C27.5967 41.1037 27.5967 41.1037 27.6866 41.1023C27.9466 41.1713 28.0512 41.3 28.221 41.5058C28.2663 41.7356 28.2663 41.7356 28.2671 41.9985C28.2688 42.1465 28.2688 42.1465 28.2705 42.2975C28.2698 42.4037 28.2691 42.5098 28.2683 42.6192C28.2687 42.7285 28.269 42.8379 28.2694 42.9506C28.2696 43.1818 28.2689 43.413 28.2675 43.6441C28.2656 43.9984 28.2674 44.3525 28.2697 44.7067C28.2695 44.9312 28.269 45.1557 28.2683 45.3803C28.269 45.4864 28.2698 45.5925 28.2705 45.7019C28.2688 45.8499 28.2688 45.8499 28.2671 46.0009C28.2668 46.0877 28.2665 46.1744 28.2663 46.2638C28.2073 46.5632 28.1071 46.6685 27.8647 46.8499C27.6731 46.8927 27.6731 46.8927 27.4646 46.8903C27.3861 46.8903 27.3077 46.8902 27.2269 46.8902C27.1011 46.8875 27.1011 46.8875 26.9727 46.8846C26.8862 46.8841 26.7997 46.8836 26.7106 46.8831C26.4347 46.8811 26.1589 46.8767 25.883 46.8721C25.6958 46.8703 25.5086 46.8687 25.3215 46.8673C24.8628 46.8636 24.4044 46.8567 23.9458 46.8499C23.9458 47.7904 23.9458 48.7309 23.9458 49.7C31.4702 49.7 38.9945 49.7 46.7469 49.7C46.7328 42.3294 46.7328 42.3294 46.7148 34.9588C46.7132 33.5357 46.7132 33.5357 46.7129 32.8702C46.7126 32.4038 46.7113 31.9374 46.7093 31.471C46.7068 30.8769 46.7061 30.2827 46.7066 29.6885C46.7065 29.47 46.7058 29.2515 46.7044 29.0329C46.7027 28.7386 46.7031 28.4444 46.7041 28.1501C46.703 28.0638 46.702 27.9775 46.7009 27.8887C46.7061 27.3107 46.7061 27.3107 46.9166 27.024C47.118 26.889 47.2191 26.8506 47.4595 26.8543ZM16.3417 45.6586C16.1536 45.9335 16.1425 46.0775 16.197 46.4045C16.3306 46.6272 16.3306 46.6272 16.5533 46.7608C16.8803 46.8153 17.0243 46.8042 17.2992 46.6161C17.4873 46.3411 17.4984 46.1971 17.4439 45.8701C17.3103 45.6475 17.3103 45.6475 17.0877 45.5139C16.7606 45.4593 16.6167 45.4705 16.3417 45.6586ZM23.9458 51.1251C23.9458 51.9787 23.9949 52.684 24.5693 53.3517C25.2289 53.9192 26.0365 54.0027 26.8777 53.9978C26.9535 53.9981 27.0293 53.9984 27.1073 53.9987C27.359 53.9994 27.6106 53.9988 27.8623 53.9983C28.0436 53.9985 28.225 53.9988 28.4063 53.9992C28.8973 54 29.3882 53.9997 29.8792 53.9991C30.3938 53.9987 30.9083 53.9991 31.4229 53.9994C32.2869 53.9997 33.1509 53.9993 34.015 53.9984C35.0129 53.9975 36.0109 53.9978 37.0088 53.9988C37.8667 53.9996 38.7246 53.9997 39.5824 53.9992C40.0943 53.9989 40.6062 53.9989 41.1181 53.9995C41.5995 54 42.0808 53.9996 42.5621 53.9986C42.7384 53.9984 42.9148 53.9984 43.0911 53.9988C43.3324 53.9993 43.5737 53.9987 43.815 53.9978C43.9188 53.9984 43.9188 53.9984 44.0247 53.999C44.796 53.9936 45.5253 53.8663 46.1234 53.3517C46.6978 52.684 46.7469 51.9787 46.7469 51.1251C39.2225 51.1251 31.6982 51.1251 23.9458 51.1251Z" fill="black"/>
<path d="M27.2253 15.4521C27.4222 15.4517 27.6191 15.451 27.816 15.4503C28.3485 15.4486 28.881 15.4493 29.4136 15.4504C29.9721 15.4513 30.5305 15.4505 31.089 15.4499C32.0867 15.4492 33.0843 15.4503 34.082 15.4521C34.985 15.4537 35.8879 15.4534 36.7908 15.4518C37.8416 15.4499 38.8924 15.4492 39.9433 15.4502C40.4987 15.4508 41.0541 15.4509 41.6095 15.4497C42.1318 15.4487 42.6541 15.4494 43.1763 15.4514C43.3675 15.4519 43.5587 15.4518 43.7499 15.451C45.0943 15.4459 46.1708 15.5028 47.1923 16.478C48.0778 17.4055 48.2261 18.3753 48.2069 19.6214C48.2062 19.7498 48.2057 19.8782 48.2053 20.0066C48.204 20.3412 48.2005 20.6757 48.1965 21.0103C48.1922 21.4135 48.1906 21.8168 48.1885 22.22C48.1851 22.8296 48.1783 23.4391 48.1721 24.0487C49.3771 24.0487 50.5822 24.0487 51.8238 24.0487C51.8826 23.8723 51.9414 23.696 52.0019 23.5143C52.312 23.0929 52.7264 22.727 53.2489 22.6236C53.9516 22.5565 54.6352 22.5196 55.2083 22.9799C55.6577 23.4078 55.9748 23.7959 56.0399 24.4289C56.0482 25.1874 56.0204 25.7121 55.487 26.2722C54.8721 26.8406 54.3888 26.9416 53.5557 26.9259C52.8506 26.8636 52.4824 26.5324 52.0329 26.0081C51.9129 25.83 51.9129 25.83 51.8238 25.4737C49.2079 25.4737 46.592 25.4737 43.8969 25.4737C43.8969 26.767 43.8969 28.0602 43.8969 29.3927C43.5406 29.7489 43.5406 29.7489 43.3625 29.7963C43.3037 29.7953 43.2449 29.7944 43.1843 29.7935C43.0961 29.7949 43.0961 29.7949 43.0062 29.7963C42.7462 29.7272 42.6416 29.5985 42.4718 29.3927C42.4265 29.1629 42.4265 29.1629 42.4257 28.9C42.4246 28.8013 42.4234 28.7027 42.4223 28.601C42.423 28.4948 42.4237 28.3887 42.4245 28.2793C42.4241 28.17 42.4238 28.0606 42.4234 27.9479C42.4232 27.7168 42.4238 27.4856 42.4253 27.2544C42.4272 26.9001 42.4254 26.5461 42.4231 26.1918C42.4233 25.9673 42.4238 25.7428 42.4245 25.5183C42.4237 25.4121 42.423 25.306 42.4223 25.1966C42.424 25.0486 42.424 25.0486 42.4257 24.8976C42.426 24.8108 42.4263 24.7241 42.4265 24.6347C42.4855 24.3354 42.5857 24.23 42.8281 24.0487C43.0197 24.0058 43.0197 24.0058 43.2282 24.0082C43.3067 24.0082 43.3851 24.0083 43.4659 24.0083C43.5498 24.0101 43.6337 24.012 43.7201 24.0139C43.8066 24.0144 43.8931 24.0149 43.9822 24.0154C44.2581 24.0174 44.5339 24.0219 44.8098 24.0264C44.997 24.0282 45.1841 24.0298 45.3713 24.0313C45.83 24.0349 46.2884 24.0419 46.747 24.0487C46.747 23.1081 46.747 22.1676 46.747 21.1985C39.2226 21.1985 31.6983 21.1985 23.9459 21.1985C23.96 28.5691 23.96 28.5691 23.978 35.9397C23.9796 37.3628 23.9796 37.3628 23.9799 38.0283C23.9802 38.4947 23.9815 38.9611 23.9835 39.4275C23.986 40.0217 23.9867 40.6158 23.9862 41.21C23.9863 41.4285 23.987 41.647 23.9883 41.8656C23.9901 42.1599 23.9897 42.4541 23.9887 42.7484C23.9898 42.8347 23.9908 42.921 23.9919 43.0099C23.9867 43.5878 23.9867 43.5878 23.7762 43.8745C23.5748 44.0096 23.4736 44.0479 23.2333 44.0442C23.1746 44.0451 23.1158 44.046 23.0552 44.047C22.774 43.9723 22.6923 43.8833 22.5208 43.6434C22.4655 43.3108 22.4728 42.9799 22.4756 42.6434C22.475 42.5402 22.4745 42.4369 22.4739 42.3305C22.4727 42.0438 22.4731 41.7571 22.4742 41.4703C22.475 41.1611 22.4738 40.8519 22.4728 40.5426C22.4712 39.9367 22.4716 39.3307 22.4726 38.7247C22.4734 38.2319 22.4735 37.7391 22.4731 37.2463C22.4731 37.1762 22.473 37.1061 22.473 37.0338C22.4729 36.8914 22.4727 36.7489 22.4726 36.6065C22.4716 35.2698 22.4728 33.9331 22.4747 32.5964C22.4763 31.4506 22.476 30.3047 22.4744 29.1589C22.4725 27.828 22.4717 26.4971 22.4728 25.1662C22.4729 25.024 22.473 24.8819 22.4731 24.7398C22.4732 24.6699 22.4732 24.6 22.4733 24.5279C22.4736 24.0363 22.4731 23.5447 22.4722 23.053C22.4712 22.453 22.4715 21.853 22.4734 21.253C22.4744 20.9472 22.4747 20.6413 22.4735 20.3354C22.4726 20.0031 22.4738 19.6708 22.4756 19.3384C22.4748 19.2427 22.474 19.1471 22.4732 19.0485C22.4836 18.0349 22.7982 17.2137 23.5005 16.478C24.6002 15.4282 25.7905 15.4462 27.2253 15.4521ZM24.4323 17.7061C23.9816 18.3677 23.9459 18.984 23.9459 19.7735C31.4702 19.7735 38.9946 19.7735 46.747 19.7735C46.747 18.9362 46.7077 18.1935 46.1235 17.5468C45.4034 16.9853 44.7227 16.9097 43.8365 16.9114C43.7231 16.9111 43.7231 16.9111 43.6073 16.9108C43.3551 16.9102 43.1029 16.9103 42.8507 16.9104C42.6694 16.9101 42.4881 16.9098 42.3068 16.9095C41.8151 16.9087 41.3234 16.9085 40.8316 16.9084C40.5243 16.9084 40.2169 16.9082 39.9095 16.9079C38.8368 16.9071 37.764 16.9067 36.6913 16.9068C35.692 16.9069 34.6927 16.9059 33.6935 16.9045C32.8349 16.9034 31.9762 16.9029 31.1176 16.9029C30.6051 16.903 30.0926 16.9027 29.5801 16.9018C29.098 16.9009 28.616 16.9009 28.1339 16.9015C27.9573 16.9016 27.7807 16.9014 27.6041 16.9009C27.3624 16.9002 27.1207 16.9006 26.879 16.9013C26.8097 16.9008 26.7404 16.9004 26.6689 16.8999C25.8375 16.9051 24.9991 17.0472 24.4323 17.7061ZM53.3936 24.2825C53.2055 24.5574 53.1944 24.7014 53.2489 25.0284C53.3825 25.2511 53.3825 25.2511 53.6051 25.3847C53.9322 25.4392 54.0761 25.428 54.3511 25.2399C54.5392 24.965 54.5503 24.821 54.4958 24.494C54.3622 24.2713 54.3622 24.2713 54.1395 24.1377C53.8125 24.0832 53.6685 24.0943 53.3936 24.2825Z" fill="black"/>
<path d="M35.0614 27.5705C35.2281 27.5682 35.3949 27.5645 35.5615 27.5596C35.8027 27.5525 36.0437 27.5496 36.285 27.5475C36.3587 27.5445 36.4324 27.5416 36.5083 27.5386C36.9209 27.54 37.155 27.5984 37.4618 27.8811C37.5236 27.9377 37.5854 27.9944 37.649 28.0527C37.9696 28.3583 38.2855 28.6679 38.5983 28.9815C38.6703 29.0534 38.7424 29.1253 38.8166 29.1994C39.0526 29.435 39.2882 29.6708 39.5237 29.9067C39.6882 30.0711 39.8528 30.2356 40.0173 30.4C40.3608 30.7434 40.7042 31.087 41.0475 31.4307C41.4444 31.828 41.8416 32.2251 42.239 32.622C42.6221 33.0047 43.005 33.3876 43.3877 33.7706C43.5504 33.9334 43.7132 34.0961 43.876 34.2587C44.1027 34.4851 44.329 34.7118 44.5553 34.9386C44.623 35.0061 44.6907 35.0736 44.7604 35.1431C44.8217 35.2047 44.883 35.2662 44.9462 35.3296C45.0264 35.4099 45.0264 35.4099 45.1083 35.4919C45.3476 35.7527 45.3407 35.988 45.3597 36.3338C45.301 36.6194 45.2021 36.702 44.9655 36.8744C44.6681 36.9248 44.3744 36.9158 44.0735 36.9092C43.987 36.9087 43.9005 36.9082 43.8114 36.9077C43.5355 36.9057 43.2597 36.9012 42.9838 36.8967C42.7966 36.8949 42.6094 36.8933 42.4222 36.8918C41.9637 36.8879 41.5051 36.8818 41.0466 36.8744C41.0474 36.9495 41.0482 37.0246 41.049 37.102C41.0561 37.8097 41.0615 38.5173 41.065 39.225C41.0669 39.5889 41.0694 39.9527 41.0735 40.3165C41.0773 40.6676 41.0795 41.0187 41.0804 41.3698C41.081 41.5038 41.0823 41.6377 41.0842 41.7717C41.0868 41.9593 41.0872 42.1469 41.087 42.3346C41.0878 42.4414 41.0886 42.5482 41.0894 42.6582C41.0368 42.9933 40.951 43.0771 40.6903 43.2873C40.4806 43.3321 40.4806 43.3321 40.2441 43.3325C40.1542 43.3335 40.0643 43.3345 39.9717 43.3355C39.8245 43.3345 39.8245 43.3345 39.6744 43.3334C39.5707 43.334 39.4669 43.3346 39.3601 43.3353C39.0167 43.3368 38.6734 43.3358 38.33 43.3346C38.0918 43.3348 37.8535 43.3352 37.6152 43.3356C37.1157 43.3363 36.6161 43.3354 36.1166 43.3337C35.5392 43.3318 34.9619 43.3324 34.3845 43.3344C33.8886 43.336 33.3927 43.3362 32.8968 43.3353C32.6006 43.3347 32.3046 43.3348 32.0084 43.3358C31.6783 43.3367 31.3483 43.3353 31.0182 43.3334C30.9201 43.3341 30.822 43.3348 30.7209 43.3355C30.631 43.3345 30.5411 43.3335 30.4485 43.3325C30.3705 43.3324 30.2924 43.3322 30.2121 43.3321C29.9306 43.2719 29.8229 43.1535 29.646 42.931C29.6032 42.6582 29.6032 42.6582 29.6056 42.3346C29.6055 42.2755 29.6055 42.2163 29.6054 42.1554C29.6057 41.9607 29.6084 41.7661 29.6112 41.5713C29.6119 41.4361 29.6124 41.3008 29.6128 41.1655C29.6141 40.81 29.6176 40.4545 29.6216 40.0989C29.6252 39.736 29.6268 39.373 29.6286 39.01C29.6324 38.2981 29.6385 37.5863 29.646 36.8744C29.4707 36.8772 29.4707 36.8772 29.2919 36.8801C28.8584 36.8866 28.4248 36.8906 27.9912 36.894C27.8036 36.8958 27.6159 36.8982 27.4283 36.9013C27.1586 36.9056 26.8889 36.9077 26.6191 36.9092C26.4933 36.912 26.4933 36.912 26.3649 36.9148C25.7856 36.915 25.7856 36.915 25.497 36.715C25.3444 36.477 25.3047 36.2772 25.3196 35.9948C25.3825 35.7624 25.4772 35.6501 25.6397 35.4731C25.6965 35.4111 25.7532 35.3491 25.8117 35.2852C26.1171 34.964 26.427 34.648 26.7408 34.335C26.8128 34.263 26.8847 34.1909 26.9588 34.1166C27.1943 33.8807 27.4301 33.6451 27.666 33.4095C27.8305 33.245 27.9949 33.0805 28.1593 32.916C28.5027 32.5724 28.8463 32.2291 29.19 31.8858C29.5874 31.4889 29.9844 31.0917 30.3813 30.6943C30.764 30.3112 31.1469 29.9283 31.5299 29.5455C31.6927 29.3828 31.8554 29.2201 32.018 29.0573C32.2444 28.8306 32.4711 28.6043 32.6979 28.378C32.7654 28.3103 32.8329 28.2426 32.9025 28.1729C32.964 28.1116 33.0255 28.0503 33.089 27.9871C33.1425 27.9336 33.196 27.8801 33.2512 27.825C33.6807 27.431 34.5064 27.5765 35.0614 27.5705ZM32.6854 30.4168C32.5472 30.5588 32.4084 30.7003 32.2693 30.8415C31.9076 31.2107 31.5529 31.5859 31.1993 31.9628C30.8361 32.3474 30.4663 32.7256 30.0973 33.1046C29.5616 33.6565 29.0283 34.2105 28.5003 34.7697C28.4446 34.8285 28.3888 34.8873 28.3313 34.9479C28.0749 35.1675 28.0749 35.1675 27.9538 35.4494C28.6631 35.6318 29.4941 35.7431 30.1562 35.3604C30.9909 34.7759 31.6765 33.9713 32.3621 33.225C32.6332 32.9322 32.9101 32.6449 33.1866 32.3573C33.4966 32.0343 33.8058 31.7107 34.111 31.3832C34.157 31.3338 34.203 31.2844 34.2504 31.2336C34.3744 31.1003 34.498 30.9667 34.6217 30.8331C34.8724 30.5783 34.9521 30.5559 35.3129 30.5062C35.8993 30.5174 36.2449 30.9981 36.6292 31.3957C36.8271 31.6067 37.0236 31.819 37.2196 32.0318C37.4898 32.3234 37.7651 32.6102 38.0397 32.8976C38.2788 33.1483 38.5156 33.4005 38.7483 33.6571C39.8263 34.9285 39.8263 34.9285 41.2859 35.5802C41.7819 35.6007 42.2538 35.5489 42.7389 35.4494C42.3851 35.0305 42.0221 34.6229 41.6463 34.2237C41.5931 34.1671 41.54 34.1106 41.4853 34.0523C40.997 33.5339 40.5029 33.0211 40.0068 32.5102C39.6749 32.1682 39.3454 31.8244 39.0205 31.4758C38.7041 31.1364 38.3826 30.8028 38.0571 30.4723C37.9351 30.3466 37.815 30.2191 37.6969 30.0897C37.0885 29.4251 36.5526 28.9822 35.6323 28.8821C34.2596 28.8348 33.5725 29.453 32.6854 30.4168ZM33.153 34.0911C33.1036 34.1363 33.0541 34.1814 33.0031 34.2279C31.7517 35.3816 30.8729 36.4212 30.7844 38.1714C30.7706 38.5995 30.7841 39.0244 30.8095 39.4518C30.813 39.5121 30.8166 39.5725 30.8203 39.6346C30.868 40.3825 30.9551 41.1219 31.0711 41.8622C31.5414 41.8622 32.0116 41.8622 32.4962 41.8622C32.4975 41.7449 32.4988 41.6276 32.5001 41.5067C32.5053 41.0719 32.5121 40.6372 32.5195 40.2025C32.5225 40.0143 32.525 39.826 32.527 39.6378C32.53 39.3673 32.5347 39.097 32.5397 38.8266C32.5405 38.7001 32.5405 38.7001 32.5414 38.571C32.5431 38.4926 32.5449 38.4141 32.5467 38.3333C32.5477 38.2643 32.5487 38.1953 32.5497 38.1242C32.5959 37.8888 32.6552 37.8121 32.8524 37.6761C33.0721 37.6421 33.0721 37.6421 33.3364 37.6415C33.4354 37.6406 33.5343 37.6398 33.6363 37.6389C33.7432 37.6395 33.8501 37.64 33.9602 37.6406C34.0699 37.6403 34.1796 37.6401 34.2926 37.6398C34.5842 37.6396 34.8757 37.6406 35.1673 37.6421C35.3461 37.6426 35.5249 37.6421 35.7037 37.6412C36.0466 37.6396 36.3895 37.6398 36.7324 37.6406C36.8927 37.6398 36.8927 37.6398 37.0563 37.6389C37.2048 37.6402 37.2048 37.6402 37.3562 37.6415C37.487 37.6418 37.487 37.6418 37.6205 37.6421C37.8402 37.6761 37.8402 37.6761 38.0016 37.7874C38.1339 37.9823 38.1425 38.0987 38.1459 38.3333C38.1476 38.4118 38.1494 38.4902 38.1512 38.571C38.1518 38.6554 38.1524 38.7397 38.153 38.8266C38.1546 38.9132 38.1561 38.9998 38.1578 39.0891C38.1626 39.3658 38.1656 39.6426 38.1686 39.9194C38.1716 40.107 38.1746 40.2946 38.1778 40.4822C38.1854 40.9422 38.1913 41.4022 38.1964 41.8622C38.6667 41.8622 39.137 41.8622 39.6215 41.8622C39.747 41.0611 39.8352 40.2611 39.8831 39.4518C39.8867 39.3919 39.8903 39.332 39.8939 39.2703C39.9774 37.6725 39.7859 36.4506 38.6957 35.2312C38.329 34.8309 37.9405 34.4569 37.5396 34.0911C37.465 34.0229 37.465 34.0229 37.389 33.9533C35.4606 32.1996 35.0378 32.3661 33.153 34.0911ZM33.9212 39.0121C33.9212 39.9526 33.9212 40.8931 33.9212 41.8622C34.8618 41.8622 35.8023 41.8622 36.7714 41.8622C36.7714 40.9216 36.7714 39.9811 36.7714 39.0121C35.8308 39.0121 34.8903 39.0121 33.9212 39.0121Z" fill="black"/>
<path d="M34.5671 44.665C34.66 44.6645 34.66 44.6645 34.7548 44.6639C34.8853 44.6637 35.0159 44.6643 35.1464 44.6658C35.3459 44.6677 35.545 44.6659 35.7445 44.6636C35.8716 44.6638 35.9987 44.6643 36.1258 44.665C36.2987 44.6656 36.2987 44.6656 36.4751 44.6662C36.8169 44.7193 36.9221 44.7963 37.1278 45.0686C37.1751 45.2467 37.1751 45.2467 37.1723 45.4248C37.1733 45.4836 37.1742 45.5424 37.1751 45.603C37.1046 45.8685 36.9866 45.9678 36.7715 46.1374C36.4751 46.1835 36.4751 46.1835 36.1258 46.1847C36.0639 46.185 36.002 46.1854 35.9382 46.1857C35.8076 46.1859 35.6771 46.1853 35.5465 46.1838C35.3471 46.1819 35.1479 46.1838 34.9485 46.1861C34.8214 46.1858 34.6942 46.1854 34.5671 46.1847C34.4519 46.1843 34.3366 46.1839 34.2178 46.1835C33.8761 46.1303 33.7708 46.0534 33.5651 45.7811C33.5178 45.603 33.5178 45.603 33.5206 45.4248C33.5192 45.3366 33.5192 45.3366 33.5178 45.2467C33.6622 44.7032 34.0706 44.6667 34.5671 44.665Z" fill="black"/>
<path d="M39.6215 44.7121C39.8441 44.8457 39.8441 44.8457 39.9777 45.0684C40.0482 45.4265 40.0331 45.6886 39.8441 46.0036C39.5292 46.1925 39.2671 46.2076 38.9089 46.1372C38.6863 46.0036 38.6863 46.0036 38.5527 45.7809C38.4822 45.4228 38.4973 45.1606 38.6863 44.8457C39.0012 44.6567 39.2633 44.6416 39.6215 44.7121Z" fill="black"/>
<path d="M31.7838 44.7121C32.0065 44.8457 32.0065 44.8457 32.1401 45.0684C32.2105 45.4265 32.1954 45.6886 32.0065 46.0036C31.6916 46.1925 31.4294 46.2076 31.0713 46.1372C30.8486 46.0036 30.8486 46.0036 30.715 45.7809C30.6446 45.4228 30.6597 45.1606 30.8486 44.8457C31.1636 44.6567 31.4257 44.6416 31.7838 44.7121Z" fill="black"/>
</svg>
