<svg width="512" height="512" viewBox="0 0 512 512" fill="none" xmlns="http://www.w3.org/2000/svg">
<path d="M433.452 76H77.548C61.28 76 48 87.52 48 101.632V410.296C48 424.48 61.28 436 77.548 436H433.369C449.72 436 463 424.48 463 410.368V101.632C463 87.52 449.72 76 433.452 76ZM446.4 130.864H412.619C408.054 130.864 404.319 134.104 404.319 138.064C404.319 142.024 408.054 145.264 412.619 145.264H446.4V410.368C446.4 416.56 440.59 421.6 433.452 421.6H77.548C70.41 421.6 64.6 416.56 64.6 410.368V145.264H371.783C376.348 145.264 380.083 142.024 380.083 138.064C380.083 134.104 376.348 130.864 371.783 130.864H64.6V101.632C64.6 95.44 70.41 90.4 77.548 90.4H433.369C440.59 90.4 446.4 95.44 446.4 101.632V130.864Z" fill="#024D81"/>
<path d="M101.618 103.936C99.5431 103.216 97.3021 103.216 95.2271 103.936C94.2311 104.296 93.3181 104.8 92.5711 105.52C90.9941 106.816 90.1641 108.688 90.1641 110.56C90.1641 111.568 90.3301 112.504 90.7451 113.368C91.1601 114.232 91.7411 115.024 92.5711 115.672C93.3398 116.353 94.2565 116.894 95.268 117.265C96.2796 117.636 97.3659 117.829 98.4641 117.832C99.5486 117.821 100.62 117.624 101.617 117.254C102.614 116.883 103.517 116.346 104.274 115.672C105.104 115.024 105.685 114.232 106.1 113.368C106.515 112.504 106.764 111.568 106.764 110.56C106.764 108.688 105.851 106.816 104.274 105.52C103.527 104.8 102.614 104.296 101.618 103.936ZM132.162 103.936C130.087 103.216 127.846 103.216 125.771 103.936C124.775 104.296 123.862 104.8 123.115 105.52C121.926 106.512 121.114 107.794 120.788 109.197C120.461 110.599 120.636 112.055 121.289 113.368C121.704 114.232 122.285 115.024 123.115 115.672C124.692 117.04 126.767 117.832 128.925 117.832C130.087 117.832 131.166 117.616 132.162 117.256C133.158 116.896 134.071 116.32 134.818 115.672C135.648 115.024 136.229 114.232 136.644 113.368C137.059 112.504 137.225 111.568 137.225 110.56C137.225 108.688 136.395 106.816 134.818 105.52C134.071 104.8 133.158 104.296 132.162 103.936ZM162.706 103.936C160.631 103.216 158.39 103.216 156.315 103.936C155.319 104.296 154.406 104.8 153.659 105.52C152.47 106.512 151.658 107.794 151.332 109.197C151.005 110.599 151.18 112.055 151.833 113.368C152.248 114.232 152.829 115.024 153.659 115.672C155.236 117.04 157.311 117.832 159.469 117.832C160.631 117.832 161.71 117.616 162.706 117.256C163.702 116.896 164.615 116.32 165.362 115.672C166.192 115.024 166.773 114.232 167.188 113.368C167.603 112.504 167.769 111.568 167.769 110.56C167.769 108.688 166.939 106.816 165.362 105.52C164.615 104.8 163.702 104.296 162.706 103.936ZM221.636 293.152C223.618 293.986 225.9 294.106 227.984 293.486C230.068 292.865 231.784 291.555 232.758 289.84L293.182 182.704C294.026 181.001 294.082 179.081 293.339 177.343C292.595 175.604 291.11 174.181 289.19 173.366C287.269 172.552 285.062 172.409 283.024 172.968C280.986 173.527 279.274 174.745 278.242 176.368L217.818 283.504C217.336 284.355 217.053 285.28 216.985 286.226C216.916 287.172 217.063 288.12 217.418 289.016C217.772 289.913 218.328 290.739 219.052 291.449C219.775 292.159 220.654 292.738 221.636 293.152ZM184.535 279.112C186.195 280.552 188.27 281.2 190.428 281.2C192.586 281.2 194.661 280.48 196.321 279.112C197.091 278.446 197.701 277.655 198.117 276.784C198.534 275.913 198.748 274.979 198.748 274.036C198.748 273.094 198.534 272.16 198.117 271.289C197.701 270.418 197.091 269.627 196.321 268.96L155.07 233.176L196.321 197.392C197.09 196.726 197.699 195.935 198.115 195.064C198.531 194.193 198.745 193.259 198.745 192.316C198.745 191.374 198.531 190.44 198.115 189.569C197.699 188.698 197.09 187.907 196.321 187.24C195.553 186.574 194.64 186.045 193.636 185.684C192.632 185.324 191.556 185.138 190.47 185.138C189.383 185.138 188.307 185.324 187.303 185.684C186.299 186.045 185.386 186.574 184.618 187.24L137.557 228.064C136.788 228.731 136.177 229.522 135.761 230.393C135.344 231.264 135.13 232.198 135.13 233.14C135.13 234.083 135.344 235.017 135.761 235.888C136.177 236.759 136.788 237.55 137.557 238.216L184.535 279.112ZM314.762 279.112C316.422 280.552 318.497 281.2 320.655 281.2C322.813 281.2 324.888 280.48 326.548 279.112L373.609 238.288C375.186 236.92 376.016 235.12 376.016 233.176C376.016 231.232 375.103 229.432 373.609 228.064L326.548 187.24C325.78 186.574 324.867 186.045 323.863 185.684C322.859 185.324 321.783 185.138 320.697 185.138C318.502 185.138 316.397 185.894 314.845 187.24C313.293 188.587 312.421 190.413 312.421 192.316C312.421 194.22 313.293 196.046 314.845 197.392L356.096 233.176L314.845 268.96C311.525 271.768 311.525 276.304 314.762 279.112ZM390.873 329.8H120.127C115.562 329.8 111.827 333.04 111.827 337C111.827 340.96 115.562 344.2 120.127 344.2H390.873C395.438 344.2 399.173 340.96 399.173 337C399.173 333.04 395.438 329.8 390.873 329.8ZM258.073 380.056H120.127C115.562 380.056 111.827 383.296 111.827 387.256C111.827 391.216 115.562 394.456 120.127 394.456H258.073C262.638 394.456 266.373 391.216 266.373 387.256C266.373 383.296 262.638 380.056 258.073 380.056Z" fill="#024D81"/>
</svg>
