<svg width="512" height="512" viewBox="0 0 512 512" fill="none" xmlns="http://www.w3.org/2000/svg">
<mask id="mask0_270_3862" style="mask-type:luminance" maskUnits="userSpaceOnUse" x="56" y="56" width="400" height="400">
<path d="M56 56H456V456H56V56Z" fill="white"/>
<path d="M456 456V56.0004H56V456H456ZM67.7188 67.7192H444.281V444.281H67.7188V67.7192Z" fill="white"/>
</mask>
<g mask="url(#mask0_270_3862)">
<path d="M419.687 183.208C422.923 183.208 425.546 180.585 425.546 177.349C425.546 174.113 422.923 171.489 419.687 171.489H63.8125C60.5765 171.489 57.9531 174.113 57.9531 177.349C57.9531 180.585 60.5765 183.208 63.8125 183.208H419.687Z" fill="#024D81"/>
<path d="M141.772 125.555C141.772 132.533 136.059 138.244 129.052 138.244C122.072 138.244 116.354 132.537 116.354 125.555C116.354 118.573 122.072 112.867 129.052 112.867C136.059 112.867 141.772 118.578 141.772 125.555ZM153.491 125.555C153.491 112.081 142.507 101.149 129.052 101.149C115.615 101.149 104.635 112.086 104.635 125.555C104.635 139.025 115.615 149.962 129.052 149.962C142.507 149.962 153.491 139.029 153.491 125.555Z" fill="#024D81"/>
<path d="M372.924 125.555C372.924 132.52 367.202 138.244 360.226 138.244H290.335C283.359 138.244 277.637 132.52 277.637 125.555C277.637 118.591 283.36 112.867 290.335 112.867H360.226C367.201 112.868 372.924 118.591 372.924 125.555ZM384.643 125.555C384.643 112.113 373.667 101.149 360.226 101.149H290.335C276.894 101.149 265.918 112.113 265.918 125.555C265.918 138.998 276.894 149.962 290.335 149.962H360.226C373.667 149.962 384.643 138.998 384.643 125.555Z" fill="#024D81"/>
<path d="M210.29 125.555C210.29 132.533 204.577 138.244 197.57 138.244C190.589 138.244 184.871 132.537 184.871 125.555C184.871 118.573 190.589 112.867 197.57 112.867C204.577 112.867 210.29 118.578 210.29 125.555ZM222.009 125.555C222.009 112.081 211.025 101.149 197.57 101.149C184.133 101.149 173.152 112.086 173.152 125.555C173.152 139.025 184.133 149.962 197.57 149.962C211.025 149.962 222.009 139.029 222.009 125.555Z" fill="#024D81"/>
<path d="M165.89 308.567C169.037 309.319 172.199 307.377 172.951 304.23L188.586 238.802C189.338 235.655 187.396 232.494 184.248 231.742C181.101 230.99 177.94 232.931 177.188 236.079L161.552 301.506C160.8 304.654 162.742 307.815 165.89 308.567Z" fill="#024D81"/>
<path d="M214.999 301.334C217.416 303.486 221.12 303.272 223.272 300.856L245.378 276.04L245.648 275.724C248.345 272.415 248.259 267.497 245.393 264.289L245.394 264.288L223.272 239.453C221.12 237.037 217.416 236.823 214.999 238.976C212.583 241.128 212.369 244.832 214.521 247.248L234.926 270.155L214.521 293.061C212.369 295.478 212.583 299.182 214.999 301.334Z" fill="#024D81"/>
<path d="M126.87 300.856C129.023 303.272 132.727 303.486 135.143 301.334C137.559 299.182 137.773 295.478 135.621 293.061L115.216 270.155L135.621 247.248C137.774 244.832 137.559 241.128 135.143 238.976C132.727 236.823 129.023 237.037 126.87 239.453L104.748 264.288L104.749 264.289C101.795 267.595 101.794 272.716 104.749 276.022H104.748L126.87 300.856Z" fill="#024D81"/>
<path d="M366.438 429.029C366.438 431.177 364.648 432.953 362.532 432.953H348.248C346.13 432.953 344.341 431.177 344.341 429.029V419.933C344.341 417.195 342.445 414.822 339.775 414.218C332.028 412.465 324.733 409.385 318.16 405.271C315.846 403.823 312.839 404.164 310.909 406.094L304.532 412.468L304.386 412.607C302.849 413.993 300.453 413.931 299.009 412.48C299.005 412.476 299.001 412.472 298.998 412.468L288.9 402.375C287.409 400.886 287.391 398.37 288.91 396.842L295.292 390.485C297.235 388.549 297.575 385.524 296.111 383.205C291.926 376.579 288.896 369.292 287.148 361.653C286.538 358.99 284.168 357.101 281.435 357.101H272.378C270.238 357.101 268.471 355.324 268.471 353.2V338.924C268.471 336.798 270.239 335.022 272.378 335.022H281.414L281.669 335.017C284.295 334.903 286.539 333.046 287.127 330.463C288.856 322.866 291.845 315.612 295.972 309.003C297.415 306.693 297.075 303.692 295.152 301.763L288.729 295.322C288.723 295.316 288.717 295.309 288.711 295.303C287.214 293.816 287.196 291.317 288.722 289.792L298.798 279.721C300.327 278.194 302.831 278.211 304.321 279.709L304.34 279.728L310.695 286.059C312.634 287.99 315.653 288.322 317.966 286.857C324.602 282.653 331.898 279.594 339.548 277.807C342.199 277.188 344.075 274.824 344.075 272.101V263.094C344.075 260.936 345.851 259.17 347.981 259.169H362.243C364.391 259.169 366.172 260.954 366.172 263.094V271.969C366.172 274.714 368.078 277.091 370.758 277.688C378.63 279.442 386.005 282.542 392.658 286.715C394.968 288.165 397.974 287.828 399.907 285.903L406.306 279.529L406.326 279.509C407.815 278.012 410.32 277.995 411.848 279.522L421.923 289.593L422.062 289.738C423.447 291.273 423.385 293.663 421.936 295.104C421.929 295.11 421.923 295.117 421.917 295.123L415.539 301.519C413.609 303.455 413.274 306.468 414.731 308.781C418.933 315.446 421.972 322.778 423.719 330.462C424.325 333.129 426.697 335.022 429.432 335.022H438.401C440.558 335.022 442.329 336.815 442.329 338.924V353.2C442.329 355.307 440.558 357.1 438.401 357.101H429.388C426.657 357.101 424.287 358.988 423.677 361.651C421.925 369.29 418.9 376.58 414.727 383.215C413.272 385.53 413.612 388.544 415.546 390.478L421.923 396.852C423.449 398.377 423.432 400.876 421.936 402.364C421.93 402.369 421.924 402.374 421.919 402.38L411.848 412.468C410.32 413.995 407.815 413.977 406.326 412.48C406.32 412.474 406.313 412.468 406.307 412.461L399.907 406.086C397.972 404.159 394.963 403.824 392.652 405.277C385.992 409.466 378.671 412.497 370.999 414.241C368.331 414.848 366.438 417.219 366.438 419.955V429.029ZM378.157 424.491C383.957 422.815 389.554 420.497 394.842 417.583L398.037 420.764C404.027 426.766 413.738 426.836 419.844 421.037L420.132 420.757L430.213 410.659C436.222 404.67 436.294 394.957 430.49 388.852L430.208 388.564L427.037 385.395C429.933 380.14 432.24 374.581 433.916 368.819H438.401C447.007 368.819 454.048 361.803 454.048 353.2V338.924C454.048 330.32 447.007 323.303 438.401 323.303H433.968C432.287 317.49 429.962 311.882 427.037 306.585L430.196 303.416C436.317 297.333 436.3 287.394 430.208 281.305L420.132 271.233C414.048 265.153 404.123 265.129 398.037 271.226L394.84 274.409C389.526 271.481 383.852 269.117 377.891 267.415V263.094C377.891 254.476 370.858 247.451 362.243 247.451H347.981C339.349 247.451 332.356 254.494 332.356 263.094V267.592C326.581 269.294 321.011 271.628 315.748 274.552L312.61 271.425L312.609 271.426C306.618 265.424 296.907 265.352 290.802 271.151L290.514 271.432L280.437 281.504C274.346 287.593 274.329 297.533 280.45 303.615L283.666 306.842C280.809 312.064 278.533 317.584 276.878 323.303H272.378C263.756 323.303 256.752 330.336 256.752 338.924V353.2C256.752 361.786 263.756 368.819 272.378 368.819H276.907C278.584 374.582 280.894 380.142 283.797 385.394L280.622 388.557C280.616 388.563 280.61 388.569 280.604 388.575C274.549 394.661 274.531 404.583 280.615 410.664L290.713 420.757C296.703 426.766 306.419 426.839 312.528 421.038L312.816 420.757L315.992 417.582C321.21 420.451 326.782 422.782 332.622 424.471V429.029C332.622 437.637 339.646 444.672 348.248 444.672H362.532C371.132 444.672 378.157 437.637 378.157 429.029V424.491Z" fill="#024D81"/>
<path d="M389.801 346.073C389.801 365.057 374.4 380.453 355.4 380.453C336.375 380.452 320.977 365.054 320.977 346.073C320.977 327.068 336.377 311.671 355.4 311.671C374.398 311.671 389.801 327.066 389.801 346.073ZM401.52 346.073C401.52 320.592 380.869 299.952 355.4 299.952C329.911 299.952 309.258 320.59 309.258 346.073C309.258 371.537 329.914 392.171 355.4 392.171C380.866 392.171 401.52 371.535 401.52 346.073Z" fill="#024D81"/>
<path d="M57.9531 107.938V328.212C57.9533 349.534 72.7575 368.82 92.9111 368.82H139.151C142.387 368.82 145.01 366.197 145.01 362.961C145.01 359.725 142.387 357.102 139.151 357.102H92.9111C81.0898 357.102 69.672 345.093 69.6719 328.212V107.938C69.6719 91.0344 81.067 79.0474 92.9111 79.0474H390.588C402.43 79.0474 413.827 91.0537 413.827 107.938V279.075C413.827 282.311 416.451 284.934 419.687 284.934C422.923 284.934 425.546 282.311 425.546 279.075V107.938C425.546 86.6203 410.768 67.3287 390.588 67.3287H92.9111C72.7333 67.3287 57.9531 86.5958 57.9531 107.938ZM272.376 368.82C275.612 368.82 278.236 366.197 278.236 362.961C278.236 359.725 275.612 357.102 272.376 357.102H208.975C205.739 357.102 203.116 359.725 203.116 362.961C203.116 366.197 205.739 368.82 208.975 368.82H272.376Z" fill="#024D81"/>
<path d="M174.296 368.82C177.531 368.82 180.155 366.197 180.155 362.961C180.155 359.725 177.531 357.102 174.296 357.102H174.141C170.905 357.102 168.281 359.725 168.281 362.961C168.281 366.197 170.905 368.82 174.141 368.82H174.296Z" fill="#024D81"/>
</g>
</svg>
