<svg width="100" height="100" viewBox="0 0 100 100" fill="none" xmlns="http://www.w3.org/2000/svg">
<path d="M88.5404 49.9997C88.5404 46.4082 87.1126 42.9648 84.5731 40.4253C82.1922 38.0444 79.0171 36.6403 75.6701 36.4743L74.9987 36.458C70.7003 36.458 66.9292 38.1546 63.2393 41.0112C60.1062 43.4368 57.1925 46.5754 54.1654 49.9997C57.1925 53.424 60.1062 56.5625 63.2393 58.9881C66.9292 61.8448 70.7003 63.5413 74.9987 63.5413L75.6701 63.5251C79.0171 63.359 82.1922 61.9549 84.5731 59.5741C87.1126 57.0345 88.5404 53.5911 88.5404 49.9997ZM11.4733 50.6711C11.6393 54.0181 13.0435 57.1932 15.4243 59.5741C17.9639 62.1136 21.4072 63.5413 24.9987 63.5413C29.2971 63.5413 33.0682 61.8448 36.7581 58.9881C39.8906 56.563 42.8015 53.4232 45.828 49.9997C42.8015 46.5762 39.8906 43.4364 36.7581 41.0112C33.0682 38.1546 29.2971 36.458 24.9987 36.458C21.4072 36.458 17.9639 37.8857 15.4243 40.4253C12.8848 42.9648 11.457 46.4082 11.457 49.9997L11.4733 50.6711ZM94.7904 49.9997C94.7904 55.2488 92.7037 60.2813 88.992 63.993C85.2804 67.7047 80.2478 69.7913 74.9987 69.7913C68.8805 69.7913 63.7974 67.3212 59.4144 63.9279C56.0189 61.2991 52.9191 58.0083 49.9987 54.7238C47.0783 58.0083 43.9785 61.2991 40.583 63.9279C36.2 67.3212 31.1169 69.7913 24.9987 69.7913C19.7496 69.7913 14.717 67.7047 11.0054 63.993C7.52551 60.5131 5.47395 55.8723 5.23145 50.9803L5.20703 49.9997C5.20703 44.7506 7.29371 39.718 11.0054 36.0063C14.717 32.2947 19.7496 30.208 24.9987 30.208C31.1169 30.208 36.2 32.6782 40.583 36.0715C43.9777 38.6996 47.0789 41.9877 49.9987 45.2715C52.9185 41.9877 56.0197 38.6996 59.4144 36.0715C63.7974 32.6782 68.8805 30.208 74.9987 30.208C80.2478 30.208 85.2804 32.2947 88.992 36.0063C92.7037 39.718 94.7904 44.7506 94.7904 49.9997Z" fill="black"/>
</svg>
