<svg width="100" height="100" viewBox="0 0 100 100" fill="none" xmlns="http://www.w3.org/2000/svg">
<path d="M43.7691 22.5769C43.7691 19.9217 41.6166 17.7692 38.9614 17.7692H23.5769C20.9217 17.7692 18.7692 19.9217 18.7692 22.5769V37.9614C18.7692 40.6166 20.9217 42.7691 23.5769 42.7691H38.9614C41.6166 42.7691 43.7691 40.6166 43.7691 37.9614V22.5769ZM49.5383 37.9614C49.5383 43.8029 44.8029 48.5383 38.9614 48.5383H23.5769C17.7354 48.5383 13 43.8029 13 37.9614V22.5769C13 16.7354 17.7354 12 23.5769 12H38.9614C44.8029 12 49.5383 16.7354 49.5383 22.5769V37.9614Z" fill="black"/>
<path d="M28.3867 61.0377V45.6532C28.3867 44.06 29.6782 42.7686 31.2713 42.7686C32.8644 42.7686 34.1559 44.06 34.1559 45.6532V61.0377L34.1785 61.5147C34.2881 62.6147 34.7759 63.6484 35.5644 64.4369C36.466 65.3385 37.6885 65.8454 38.9636 65.8454H54.3482C55.9413 65.8454 57.2328 67.1369 57.2328 68.73C57.2328 70.3231 55.9413 71.6146 54.3482 71.6146H38.9636C36.1584 71.6146 33.469 70.4994 31.4854 68.5159C29.7495 66.78 28.6795 64.5036 28.4393 62.0819L28.3867 61.0377Z" fill="black"/>
<path d="M82.23 61.0388C82.23 58.3836 80.0776 56.2311 77.4224 56.2311H62.0378C59.3826 56.2311 57.2301 58.3836 57.2301 61.0388V76.4233C57.2301 79.0786 59.3826 81.231 62.0378 81.231H77.4224C80.0776 81.231 82.23 79.0786 82.23 76.4233V61.0388ZM87.9993 76.4233C87.9993 82.2648 83.2638 87.0002 77.4224 87.0002H62.0378C56.1964 87.0002 51.4609 82.2648 51.4609 76.4233V61.0388C51.4609 55.1973 56.1964 50.4619 62.0378 50.4619H77.4224C83.2638 50.4619 87.9993 55.1973 87.9993 61.0388V76.4233Z" fill="black"/>
</svg>
