<svg width="48" height="48" viewBox="0 0 48 48" fill="none" xmlns="http://www.w3.org/2000/svg">
<g clip-path="url(#clip0_603_1218)">
<mask id="mask0_603_1218" style="mask-type:luminance" maskUnits="userSpaceOnUse" x="0" y="0" width="48" height="48">
<path d="M48 0H0V48H48V0Z" fill="white"/>
</mask>
<g mask="url(#mask0_603_1218)">
<path d="M21.4391 8.23524C21.572 8.23389 21.572 8.23388 21.7075 8.2325C21.803 8.2321 21.8985 8.2317 21.9969 8.23129C22.0953 8.23076 22.1937 8.23022 22.295 8.22967C22.5032 8.22879 22.7114 8.22817 22.9196 8.22781C23.2379 8.2269 23.5562 8.22399 23.8745 8.22104C24.0767 8.22042 24.279 8.21993 24.4813 8.21957C24.5764 8.21841 24.6715 8.21726 24.7696 8.21606C25.6086 8.21871 25.6086 8.21871 25.9703 8.53158C26.3465 9.15056 26.9078 10.2358 26.9078 10.9691C26.9694 10.9807 27.0311 10.9923 27.0946 11.0042C28.0841 11.2188 29.025 11.6244 29.9149 12.1056C30.1941 12.2329 30.3631 12.1724 30.6578 12.0941C31.0175 11.9469 31.3661 11.7765 31.7152 11.6061C32.1563 11.3999 32.5077 11.2458 33.0015 11.3441C33.2873 11.5252 33.513 11.762 33.7515 12.0003C33.8527 12.0976 33.954 12.1946 34.0555 12.2915C34.3478 12.5718 34.6367 12.8554 34.9245 13.1405C35.0456 13.26 35.1671 13.3789 35.2892 13.4974C35.4671 13.6702 35.6435 13.8445 35.8195 14.0193C35.8741 14.0717 35.9287 14.1242 35.9849 14.1782C36.3029 14.4979 36.4627 14.7163 36.4703 15.1878C36.4252 15.3846 36.4252 15.3846 36.3458 15.5617C36.3172 15.6275 36.2886 15.6932 36.2592 15.761C36.2283 15.829 36.1974 15.897 36.1656 15.9671C36.1054 16.1102 36.0452 16.2533 35.9851 16.3963C35.8916 16.6123 35.7958 16.8144 35.6811 17.0204C35.5668 17.2463 35.5233 17.3705 35.5328 17.6253C35.6876 18.0105 35.8744 18.3658 36.0748 18.7287C36.407 19.3385 36.7515 20.1148 36.7515 20.8128C36.8598 20.8476 36.9681 20.8824 37.0797 20.9183C37.2517 20.9765 37.4235 21.0351 37.5953 21.0941C37.6551 21.1142 37.7148 21.1343 37.7764 21.1551C37.9764 21.223 38.1755 21.2931 38.3746 21.3636C38.4396 21.3854 38.5046 21.4072 38.5716 21.4296C39.0078 21.587 39.2368 21.7245 39.4703 22.1253C39.527 22.4836 39.5251 22.8384 39.5234 23.2005C39.524 23.3049 39.5246 23.4092 39.5252 23.5167C39.5258 23.7371 39.5255 23.9574 39.5243 24.1777C39.523 24.5148 39.5262 24.8516 39.5298 25.1887C39.5299 25.4029 39.5297 25.6172 39.5293 25.8314C39.5305 25.9321 39.5317 26.0328 39.533 26.1365C39.5243 26.8319 39.5243 26.8319 39.2614 27.195C39.0196 27.3628 38.8102 27.4833 38.535 27.5852C38.4489 27.6175 38.3629 27.6498 38.2743 27.6831C38.1855 27.715 38.0968 27.7468 38.0055 27.7796C37.8713 27.8301 37.8713 27.8301 37.7345 27.8816C37.0753 28.1253 37.0753 28.1253 36.7515 28.1253C36.7413 28.2187 36.731 28.3122 36.7204 28.4084C36.6653 28.7913 36.5447 29.1425 36.4058 29.5023C36.3815 29.5675 36.3572 29.6327 36.3321 29.6999C36.1726 30.1163 35.9816 30.4964 35.7613 30.8851C35.5351 31.3292 35.5351 31.3292 35.5972 31.805C35.6654 31.9554 35.7386 32.1035 35.814 32.2503C35.9027 32.4382 35.9891 32.6268 36.0744 32.8162C36.1342 32.9485 36.1958 33.0799 36.2592 33.2104C36.3882 33.4883 36.469 33.7236 36.4835 34.0305C36.32 34.4621 36.0399 34.7351 35.7203 35.0628C35.6765 35.1081 35.6327 35.1533 35.5876 35.1999C35.2778 35.5195 34.9648 35.8358 34.65 36.1505C34.4829 36.3179 34.3165 36.4859 34.1502 36.654C34.0433 36.7611 33.9365 36.8682 33.8295 36.9752C33.7802 37.0252 33.7309 37.0752 33.6801 37.1267C33.4411 37.3642 33.2292 37.5746 32.9078 37.6878C32.2242 37.6699 31.6575 37.3315 31.0604 37.0292C30.5896 36.7951 30.5896 36.7951 30.0777 36.7994C29.9907 36.8451 29.9037 36.8908 29.814 36.9378C29.7107 36.9858 29.6074 37.0338 29.5009 37.0832C29.3268 37.1679 29.1532 37.2536 28.9801 37.3405C28.6653 37.493 28.3834 37.6093 28.0365 37.6622C27.4731 37.7639 27.4731 37.7639 27.0015 38.0628C26.6158 38.6797 26.3895 39.3811 26.1704 40.0712C26.0469 40.3518 25.9242 40.4918 25.689 40.6878C25.4656 40.7355 25.4656 40.7355 25.215 40.7364C25.0737 40.7381 25.0737 40.7381 24.9296 40.7399C24.8284 40.7392 24.7273 40.7384 24.623 40.7376C24.5185 40.738 24.414 40.7384 24.3064 40.7387C24.0855 40.739 23.8646 40.7383 23.6437 40.7367C23.3058 40.7347 22.9682 40.7367 22.6303 40.7391C22.4156 40.7389 22.2009 40.7384 21.9863 40.7376C21.8853 40.7384 21.7843 40.7392 21.6803 40.7399C20.9862 40.7313 20.9862 40.7313 20.6204 40.5286C20.4237 40.2946 20.3165 40.0969 20.2087 39.8111C20.1721 39.7159 20.1356 39.6207 20.0979 39.5225C20.0616 39.4237 20.0253 39.3248 19.9879 39.223C19.9497 39.1234 19.9116 39.0238 19.8723 38.9212C19.5953 38.1893 19.5953 38.1893 19.5953 37.9691C19.5064 37.961 19.4174 37.9529 19.3258 37.9445C18.8569 37.8772 18.4373 37.6971 18.0015 37.5179C17.9206 37.4857 17.8396 37.4535 17.7562 37.4203C17.3872 37.2709 17.0396 37.1176 16.7004 36.9085C16.3878 36.7395 16.3552 36.7325 16.0387 36.8265C15.8189 36.9146 15.6049 37.0125 15.3903 37.1125C15.261 37.1726 15.1315 37.2323 15.0017 37.2915C14.8711 37.3515 14.7412 37.4133 14.6123 37.4768C14.551 37.5054 14.4897 37.5339 14.4266 37.5633C14.3455 37.6026 14.3455 37.6026 14.2629 37.6427C13.9363 37.7168 13.733 37.6844 13.4078 37.5941C13.1188 37.3889 12.8752 37.1447 12.6259 36.8935C12.5181 36.7871 12.5181 36.7871 12.4081 36.6786C12.2568 36.5286 12.1062 36.3778 11.9564 36.2263C11.7269 35.9952 11.4941 35.7678 11.2609 35.5406C11.1141 35.3941 10.9676 35.2474 10.8212 35.1006C10.7167 34.9991 10.7167 34.9991 10.61 34.8957C10.0847 34.3559 10.0847 34.3559 10.0714 33.9176C10.1201 33.6045 10.1727 33.3793 10.3144 33.0992C10.3529 33.0196 10.3914 32.9399 10.4311 32.8579C10.4717 32.7773 10.5124 32.6967 10.5543 32.6136C10.8638 32.0324 10.8638 32.0324 10.9718 31.3963C10.8458 31.0379 10.6891 30.7031 10.5191 30.3636C9.75155 28.7843 9.75155 28.7843 9.75155 28.1253C9.64923 28.107 9.64923 28.107 9.54484 28.0883C9.12586 27.9976 8.73772 27.8362 8.33944 27.68C8.25527 27.6486 8.1711 27.6172 8.08437 27.5848C8.0031 27.5529 7.92183 27.521 7.8381 27.4881C7.72769 27.4456 7.72769 27.4456 7.61505 27.4022C7.32519 27.2335 7.20122 27.1075 7.0328 26.8128C6.97891 26.4679 6.98249 26.1272 6.98629 25.7787C6.98615 25.6785 6.98602 25.5783 6.98588 25.4751C6.98603 25.2636 6.98711 25.052 6.98906 24.8406C6.99177 24.5171 6.99099 24.1938 6.98977 23.8703C6.99035 23.6646 6.99114 23.459 6.99215 23.2533C6.99187 23.1567 6.9916 23.0601 6.99131 22.9606C7.00288 22.081 7.00288 22.081 7.31405 21.7503C7.54922 21.6438 7.54922 21.6438 7.82784 21.572C8.94797 21.2773 8.94797 21.2773 9.83211 20.5862C10.0875 20.0784 10.2191 19.5408 10.3449 18.9889C10.4556 18.569 10.666 18.2192 10.8828 17.8447C10.9972 17.5579 10.9736 17.4503 10.8765 17.1566C10.7242 16.8035 10.5578 16.4572 10.3886 16.112C10.1587 15.6193 10.0319 15.2624 10.1265 14.7191C10.3037 14.4283 10.5405 14.2064 10.7828 13.9691C10.8791 13.871 10.9753 13.7728 11.0712 13.6743C11.3467 13.3929 11.6246 13.1141 11.9035 12.8362C12.0793 12.6609 12.2546 12.4851 12.4298 12.3092C12.5416 12.1976 12.6533 12.0859 12.7651 11.9743C12.8174 11.9218 12.8698 11.8693 12.9237 11.8151C13.3837 11.3579 13.3837 11.3579 13.7791 11.3115C14.3677 11.3199 14.8967 11.6505 15.4176 11.8961C15.5019 11.9345 15.5863 11.9729 15.6732 12.0124C15.787 12.0662 15.787 12.0662 15.903 12.121C16.2928 12.2375 16.6078 12.1036 16.9641 11.9373C17.032 11.9063 17.0999 11.8753 17.1699 11.8434C17.3174 11.7747 17.4646 11.7054 17.6117 11.6358C17.9581 11.4752 18.2775 11.3322 18.6556 11.2694C19.0544 11.1912 19.2732 11.1286 19.5953 10.8753C19.9505 10.2473 20.1541 9.54738 20.3505 8.85637C20.4428 8.61542 20.5182 8.50131 20.7203 8.34408C20.9887 8.25463 21.1603 8.23753 21.4391 8.23524ZM21.7515 9.84408C21.443 10.5763 21.443 10.5763 21.151 11.3152C21.1002 11.4484 21.1002 11.4484 21.0484 11.5843C20.9977 11.7208 20.9977 11.7208 20.9459 11.8601C20.6391 12.4047 19.9917 12.4966 19.4312 12.6683C18.6737 12.9083 17.9865 13.2017 17.2991 13.6004C16.9396 13.8065 16.6449 13.9642 16.2203 13.9691C15.939 13.8905 15.6779 13.778 15.4117 13.6585C15.3414 13.6284 15.271 13.5982 15.1986 13.5672C14.6737 13.3405 14.6737 13.3405 14.4396 13.2029C14.2574 13.1122 14.2574 13.1122 14.07 13.134C13.6413 13.3225 13.3287 13.7147 13.002 14.0415C12.8631 14.1798 12.7222 14.3156 12.5811 14.4514C12.4936 14.5383 12.4062 14.6252 12.3161 14.7147C12.2355 14.7941 12.155 14.8735 12.0719 14.9554C11.8822 15.1734 11.8822 15.1734 11.9198 15.4294C11.9914 15.6283 12.0627 15.822 12.151 16.014C12.1798 16.0781 12.2087 16.1421 12.2385 16.2081C12.2836 16.3063 12.2836 16.3063 12.3297 16.4066C12.812 17.4564 12.812 17.4564 12.6421 17.9315C12.5862 18.0489 12.5289 18.1655 12.4703 18.2816C12.4394 18.3445 12.4085 18.4074 12.3767 18.4722C12.3094 18.609 12.2419 18.7457 12.1741 18.8823C11.7908 19.6607 11.4828 20.4252 11.2707 21.2681C11.1721 21.6272 11.1066 21.8058 10.8238 22.0601C10.4187 22.2599 10.0079 22.4167 9.58163 22.5648C9.42078 22.6216 9.26001 22.6786 9.09933 22.7358C8.9935 22.7727 8.9935 22.7727 8.88553 22.8104C8.72065 22.8625 8.72065 22.8625 8.62655 22.9691C8.61826 23.1986 8.61574 23.4255 8.61739 23.655C8.61753 23.7235 8.61766 23.7921 8.61779 23.8627C8.61832 24.0824 8.6195 24.3021 8.62069 24.5218C8.62116 24.6704 8.62159 24.8191 8.62197 24.9677C8.62301 25.3327 8.62463 25.6978 8.62655 26.0628C8.69362 26.0799 8.76069 26.097 8.8298 26.1147C10.6899 26.6235 10.6899 26.6235 11.1428 27.2322C11.3966 27.7609 11.5214 28.3227 11.6502 28.8923C11.7554 29.2888 11.9298 29.6353 12.1246 29.9945C12.7799 31.2108 12.7799 31.2108 12.7135 31.6692C12.6796 31.7469 12.6458 31.8246 12.6109 31.9046C12.5748 31.9915 12.5387 32.0784 12.5014 32.1679C12.4165 32.3514 12.3303 32.5342 12.2429 32.7165C12.2 32.8063 12.1571 32.8961 12.1129 32.9886C12.0717 33.0696 12.0305 33.1506 11.988 33.234C11.8888 33.5249 11.9086 33.6456 12.0015 33.9378C12.1935 34.1814 12.1935 34.1814 12.4414 34.4143C12.4849 34.4573 12.5285 34.5003 12.5734 34.5447C12.712 34.6812 12.8518 34.8163 12.9918 34.9515C13.0863 35.0441 13.1807 35.1368 13.275 35.2296C13.5058 35.4563 13.7377 35.6817 13.9703 35.9066C14.2863 35.8045 14.5929 35.6999 14.8928 35.5572C14.9871 35.5137 14.9871 35.5137 15.0834 35.4693C15.2124 35.4093 15.3411 35.3485 15.4694 35.287C15.8917 35.0942 16.2169 34.9963 16.689 35.0628C16.9784 35.1841 17.2445 35.3385 17.5152 35.4964C18.2527 35.9072 18.9808 36.2008 19.7872 36.4453C19.8495 36.4654 19.9118 36.4855 19.9759 36.5063C20.1507 36.5606 20.3282 36.6057 20.5057 36.6504C20.9911 36.9553 21.0905 37.4073 21.2711 37.9339C21.343 38.1325 21.415 38.3309 21.4871 38.5294C21.5178 38.6174 21.5485 38.7055 21.5801 38.7962C21.6399 38.9952 21.6399 38.9952 21.7515 39.0941C21.9811 39.1024 22.2079 39.1049 22.4375 39.1032C22.506 39.1031 22.5745 39.103 22.6451 39.1028C22.8649 39.1023 23.0846 39.1011 23.3043 39.0999C23.4529 39.0995 23.6015 39.099 23.7501 39.0987C24.1152 39.0976 24.4802 39.096 24.8453 39.0941C24.8694 39.0302 24.8935 38.9664 24.9183 38.9006C25.0279 38.6113 25.1388 38.3224 25.2496 38.0335C25.2875 37.933 25.3254 37.8326 25.3644 37.729C25.4016 37.6327 25.4387 37.5363 25.477 37.437C25.5109 37.3481 25.5448 37.2593 25.5797 37.1677C25.6878 36.9404 25.7739 36.8115 25.9703 36.6566C26.1971 36.5858 26.4197 36.5255 26.65 36.4691C27.6125 36.2124 29.0997 35.7772 29.814 35.0628C30.4498 34.9869 30.9248 35.2248 31.4957 35.4847C31.5866 35.525 31.6776 35.5652 31.7713 35.6067C31.9944 35.7056 32.2169 35.8056 32.439 35.9066C32.9662 35.4683 33.4513 34.9993 33.9332 34.5121C34.0428 34.4018 34.0428 34.4018 34.1546 34.2894C34.3329 34.1099 34.5111 33.9302 34.689 33.7503C34.6507 33.6668 34.6507 33.6668 34.6116 33.5815C34.4953 33.3259 34.3812 33.0694 34.2672 32.8128C34.2068 32.6814 34.2068 32.6814 34.1452 32.5473C33.9096 32.0125 33.7591 31.6158 33.8453 31.0316C33.9646 30.7385 34.1184 30.4718 34.2789 30.1996C34.6939 29.4587 34.9896 28.7259 35.2369 27.9151C35.4907 27.0901 35.4907 27.0901 35.9078 26.8128C36.0612 26.7436 36.2173 26.68 36.3751 26.6213C36.4936 26.5767 36.4936 26.5767 36.6145 26.5311C36.7635 26.4763 36.7635 26.4763 36.9156 26.4203C37.2327 26.3023 37.5498 26.1844 37.8765 26.0628C37.8765 25.0419 37.8765 24.021 37.8765 22.9691C37.1448 22.6608 37.1448 22.6608 36.4055 22.3718C36.3167 22.3388 36.2278 22.3058 36.1363 22.2718C36.0453 22.2391 35.9543 22.2063 35.8606 22.1726C35.3568 21.8691 35.2578 21.2174 35.0933 20.6839C34.8035 19.7763 34.417 18.9065 33.9171 18.0934C33.6939 17.5126 33.9104 17.0276 34.1452 16.4928C34.1855 16.4044 34.2257 16.316 34.2672 16.2249C34.3074 16.134 34.3477 16.0431 34.3891 15.9494C34.488 15.7263 34.588 15.5037 34.689 15.2816C34.2675 14.781 33.8316 14.2989 33.3765 13.8285C33.2801 13.7244 33.2801 13.7244 33.1817 13.6183C32.8266 13.233 32.8266 13.233 32.342 13.1078C31.9466 13.2661 31.5669 13.4452 31.1879 13.6384C30.7933 13.8322 30.4486 13.9517 30.0015 13.9691C29.7745 13.8816 29.7745 13.8816 29.5562 13.7406C29.0829 13.4612 28.6027 13.2335 28.0972 13.0199C28.0208 12.9875 27.9444 12.9551 27.8657 12.9218C27.2955 12.6867 26.7315 12.516 26.1285 12.383C25.7938 12.2483 25.7451 12.1407 25.5953 11.8128C25.4607 11.4946 25.3335 11.174 25.2086 10.8519C25.1421 10.6814 25.0755 10.511 25.0086 10.3407C24.9795 10.2656 24.9503 10.1905 24.9203 10.1132C24.8591 9.93999 24.8591 9.93999 24.7515 9.84408C24.5288 9.8358 24.3089 9.83328 24.0861 9.83494C24.0197 9.83507 23.9532 9.83519 23.8848 9.83533C23.6717 9.83586 23.4587 9.83703 23.2457 9.83822C23.1016 9.83869 22.9575 9.83912 22.8134 9.83951C22.4594 9.84054 22.1055 9.84216 21.7515 9.84408Z" fill="white"/>
<path d="M29.7207 16.9683C31.5676 18.6125 32.9619 20.9139 33.1123 23.4338C33.1726 26.4996 32.5351 29.134 30.3769 31.4058C28.7582 33.0626 26.4096 34.3011 24.058 34.331C21.2567 34.3604 18.942 33.8235 16.7832 31.9683C16.6902 31.8956 16.6902 31.8956 16.5953 31.8214C14.8438 30.4096 13.6789 28.0274 13.4265 25.8117C13.1858 22.9331 13.8448 20.2905 15.7208 18.0509C19.2688 13.9295 25.568 13.4606 29.7207 16.9683ZM16.9663 19.0611C15.4191 20.888 14.8779 23.0438 15.0019 25.4058C15.2026 27.5416 16.3878 29.5555 18.0019 30.937C19.9861 32.3831 22.1662 33.0371 24.6146 32.6985C26.6359 32.3718 28.6089 31.2003 29.8398 29.5594C30.1018 29.1864 30.3361 28.8001 30.5644 28.4058C30.6117 28.3247 30.6589 28.2436 30.7076 28.16C31.6625 26.3926 31.8036 24.0818 31.2394 22.1692C30.4458 19.8687 28.9924 18.0849 26.8144 16.9683C23.4492 15.3807 19.4268 16.3031 16.9663 19.0611Z" fill="white"/>
<path d="M17.085 1.14611C17.2257 1.19333 17.3661 1.24143 17.5062 1.29031C17.5813 1.31611 17.6563 1.34192 17.7336 1.36851C17.891 1.42296 18.0483 1.47782 18.2054 1.53306C18.4453 1.617 18.686 1.6985 18.9268 1.77993C19.0802 1.83337 19.2337 1.88695 19.3871 1.9407C19.4587 1.96464 19.5303 1.98859 19.604 2.01326C20.035 2.16806 20.2825 2.31386 20.5311 2.71853C20.6098 3.07087 20.5882 3.27783 20.4041 3.59052C20.2238 3.84023 20.0344 4.07941 19.8397 4.31814C19.7017 4.49256 19.5639 4.66712 19.4263 4.84182C19.3587 4.92687 19.2911 5.01191 19.2215 5.09954C18.8877 5.52732 18.5813 5.9732 18.2734 6.41982C18.0936 6.65603 18.0936 6.65603 17.8124 6.84353C17.1651 6.90517 17.1651 6.90517 16.828 6.7029C16.6331 6.37808 16.6258 6.08395 16.6874 5.71853C16.8125 5.45815 16.977 5.24105 17.1561 5.0154C17.2008 4.95619 17.2456 4.89697 17.2916 4.83596C17.4011 4.69143 17.5128 4.54855 17.6249 4.40603C15.4136 4.8119 13.1494 5.99872 11.3436 7.31228C11.253 7.37742 11.1624 7.44255 11.069 7.50967C9.41718 8.72169 7.90119 10.0926 6.68121 11.7451C6.56337 11.9047 6.44357 12.0626 6.32361 12.2206C5.69008 13.0675 5.17387 13.9681 4.68738 14.906C4.65074 14.9762 4.61411 15.0464 4.57637 15.1188C2.2176 19.6967 1.63303 25.3707 3.17639 30.3045C3.26294 30.573 3.35187 30.84 3.44654 31.1058C3.63916 31.6579 3.79511 32.1922 3.56238 32.7595C3.32169 32.9476 3.12227 32.9824 2.82483 33.0291C2.50462 32.9822 2.37895 32.8589 2.15613 32.6248C2.0145 32.3415 1.92119 32.048 1.828 31.7459C1.8003 31.659 1.77259 31.5721 1.74405 31.4826C-0.100501 25.5432 0.508659 19.2666 3.33922 13.7434C3.66011 13.1392 4.0213 12.5649 4.40613 11.9998C4.46318 11.9153 4.46318 11.9153 4.52139 11.829C5.08699 10.997 5.70762 10.2209 6.37488 9.46853C6.42059 9.41689 6.4663 9.36526 6.5134 9.31206C9.09371 6.41572 12.3241 4.446 15.9374 3.09353C16.0148 3.06442 16.0921 3.03531 16.1718 3.00532C16.3436 2.94076 16.5155 2.87648 16.6874 2.81228C16.6162 2.79065 16.545 2.76901 16.4717 2.74673C16.3785 2.71615 16.2853 2.68558 16.1893 2.65407C16.0969 2.62471 16.0044 2.59534 15.9092 2.56509C15.6029 2.41039 15.5128 2.27925 15.3749 1.96853C15.3749 1.575 15.4103 1.38302 15.662 1.0779C16.1253 0.841293 16.6069 0.997453 17.085 1.14611Z" fill="white"/>
<path d="M28.4067 2.47864C28.513 2.50364 28.6192 2.52863 28.7286 2.55438C31.9276 3.33869 34.977 4.81314 37.5005 6.93763C37.5547 6.98243 37.6089 7.02724 37.6647 7.0734C38.8196 8.02844 39.853 9.04006 40.7817 10.2189C40.843 10.2926 40.9043 10.3663 40.9674 10.4423C41.8876 11.5553 42.6433 12.7858 43.313 14.0626C43.3507 14.1343 43.3884 14.206 43.4273 14.2799C44.6895 16.7162 45.4787 19.3941 45.7505 22.1251C45.7609 22.2257 45.7713 22.3262 45.782 22.4298C45.9942 24.8612 45.7606 27.2405 45.2817 29.6251C45.334 29.5778 45.3862 29.5304 45.44 29.4816C46.0978 28.9215 46.0978 28.9215 46.5298 28.9044C46.8755 28.9689 46.8755 28.9689 47.1099 29.1095C47.2691 29.3749 47.2954 29.5893 47.3003 29.8972C47.1828 30.3612 46.7856 30.6535 46.4243 30.9376C45.9151 31.3449 45.4232 31.7691 44.9352 32.2016C44.0252 33.0001 44.0252 33.0001 43.5357 33.0001C43.1424 32.8836 42.9551 32.7306 42.7537 32.3687C42.6573 32.1685 42.5675 31.9664 42.4795 31.7623C42.4467 31.6877 42.414 31.613 42.3802 31.536C42.3114 31.3783 42.243 31.2204 42.1751 31.0623C42.0714 30.8219 41.9654 30.5826 41.8591 30.3433C41.7923 30.1894 41.7257 30.0355 41.6592 29.8815C41.6276 29.8107 41.5959 29.7398 41.5633 29.6669C41.3628 29.1925 41.2957 28.8282 41.3442 28.3126C41.5731 27.9895 41.7033 27.8645 42.0942 27.7911C42.4489 27.8577 42.5837 27.9697 42.8442 28.2189C42.9642 28.4443 43.0628 28.6513 43.1548 28.8869C43.1795 28.9462 43.2042 29.0055 43.2297 29.0667C43.4067 29.4999 43.4067 29.4999 43.4067 29.7189C43.4686 29.7189 43.5305 29.7189 43.5942 29.7189C43.6045 29.6516 43.6148 29.5843 43.6254 29.5149C43.6402 29.4179 43.6551 29.3208 43.6704 29.2208C43.6873 29.1103 43.7043 28.9997 43.7217 28.8858C43.7643 28.6099 43.8085 28.3343 43.8535 28.0588C43.8659 27.9826 43.8782 27.9063 43.8909 27.8277C43.9151 27.6788 43.9395 27.53 43.9642 27.3812C44.8054 22.1692 43.3778 16.5998 40.2976 12.3337C39.6685 11.4838 38.9862 10.696 38.2505 9.93763C38.2022 9.8869 38.1539 9.83617 38.1041 9.78391C37.3642 9.00763 36.5884 8.31624 35.7192 7.68763C35.6573 7.64282 35.5954 7.59802 35.5316 7.55186C33.1467 5.85011 30.4225 4.6058 27.5458 4.02369C27.4687 4.00795 27.3916 3.99221 27.3122 3.97599C27.1675 3.9474 27.0225 3.9206 26.877 3.89597C26.5422 3.83145 26.3603 3.7653 26.1102 3.52857C25.9268 3.20699 25.9384 3.05196 26.0073 2.70057C26.063 2.53138 26.063 2.53138 26.2036 2.34388C26.8949 2.06736 27.7126 2.31496 28.4067 2.47864Z" fill="white"/>
<path d="M7.76338 37.6304C7.87541 37.6509 7.87541 37.6509 7.9897 37.6718C8.14607 37.7007 8.30236 37.7301 8.45858 37.7598C8.69692 37.8048 8.93561 37.8474 9.17439 37.89C9.32713 37.9186 9.47984 37.9472 9.63252 37.9761C9.70333 37.9885 9.77414 38.0009 9.84709 38.0137C10.2805 38.0989 10.5655 38.2138 10.8762 38.5313C10.9758 38.8535 10.9758 38.8535 10.9699 39.1875C10.8043 39.4502 10.6858 39.6108 10.4074 39.75C9.90037 39.7707 9.40929 39.72 8.90742 39.6563C12.0158 43.0252 17.0395 45.0996 21.5637 45.375C23.3808 45.4327 25.2156 45.474 27.0012 45.0938C27.0919 45.0751 27.1825 45.0565 27.276 45.0373C29.1779 44.6389 31.0065 44.0586 32.7197 43.1326C32.9207 43.0241 33.123 42.9181 33.3253 42.8119C34.2794 42.3039 35.1515 41.7299 36.0012 41.0625C36.0925 40.9911 36.1839 40.9197 36.278 40.8461C37.3037 40.0241 38.2289 39.1333 39.1125 38.1625C39.158 38.1129 39.2035 38.0633 39.2504 38.0122C39.3602 37.8925 39.4695 37.7723 39.5787 37.652C39.7512 37.5 39.7512 37.5 40.0734 37.4531C40.4685 37.5086 40.6218 37.5667 40.8762 37.875C40.9486 38.1982 40.9672 38.3195 40.8762 38.625C40.4093 39.3373 39.7784 39.9433 39.177 40.541C39.0903 40.6273 39.0036 40.7135 38.9144 40.8024C38.2596 41.4465 37.589 42.026 36.8449 42.5625C36.7418 42.6401 36.6388 42.7179 36.5358 42.7958C33.3707 45.1609 29.5922 46.5056 25.6887 46.9688C25.5882 46.9811 25.4878 46.9934 25.3843 47.0061C19.8855 47.5465 13.8913 45.9575 9.56367 42.4688C9.47654 42.3995 9.38941 42.3303 9.29963 42.2589C8.71291 41.7864 8.1499 41.2905 7.59492 40.7813C7.60604 40.8909 7.61716 41.0005 7.62861 41.1134C7.64093 41.2585 7.65313 41.4037 7.66523 41.5488C7.67285 41.6209 7.68046 41.693 7.68831 41.7673C7.7171 42.14 7.71726 42.3244 7.529 42.6577C7.29122 42.8631 7.20087 42.9055 6.8918 42.8965C6.82122 42.8966 6.75064 42.8967 6.67793 42.8969C6.37978 42.8207 6.2844 42.7129 6.09492 42.4688C6.01493 42.1957 5.98597 41.9205 5.95576 41.6382C5.94589 41.5573 5.93601 41.4763 5.92584 41.393C5.90526 41.2219 5.88545 41.0507 5.86636 40.8795C5.83734 40.6192 5.80614 40.3593 5.77449 40.0994C5.75471 39.9326 5.73505 39.7659 5.71553 39.5991C5.70191 39.4837 5.70191 39.4837 5.68802 39.3659C5.54689 38.0915 5.54689 38.0915 5.80781 37.6875C6.38047 37.3135 7.12027 37.5094 7.76338 37.6304Z" fill="white"/>
<path d="M26.4355 21.1881C26.6699 21.3422 26.6699 21.3422 26.9043 21.5455C26.9931 21.6214 27.0819 21.6973 27.1735 21.7755C27.2713 21.8609 27.369 21.9463 27.4668 22.0318C27.631 22.1733 27.7956 22.3144 27.9602 22.4554C28.0725 22.5518 28.1846 22.6483 28.2965 22.7451C28.7001 23.0932 29.1141 23.4245 29.5396 23.7457C29.7363 23.9245 29.8272 24.0271 29.9043 24.2818C29.8996 24.6917 29.8577 24.882 29.5916 25.1981C29.4981 25.2811 29.403 25.3623 29.3066 25.442C29.2561 25.4859 29.2055 25.5299 29.1534 25.5752C28.999 25.7085 28.8427 25.8392 28.6855 25.9693C28.5547 26.0786 28.5547 26.0786 28.4211 26.1901C28.2543 26.3275 28.0867 26.464 27.9183 26.5996C27.5267 26.9162 27.1425 27.2415 26.7574 27.566C26.3889 27.8641 26.1607 27.8853 25.6855 27.8443C25.3897 27.6497 25.3207 27.4971 25.1992 27.1646C25.2259 26.6309 25.4912 26.4155 25.873 26.0631C26.2226 25.7523 26.5801 25.4517 26.9417 25.1551C27.1803 24.9591 27.4172 24.7609 27.6543 24.5631C27.5382 24.2147 27.4021 24.1323 27.1152 23.9068C27.0231 23.8325 26.9311 23.7582 26.8362 23.6816C26.6794 23.5564 26.5219 23.4324 26.3628 23.3102C26.1942 23.1807 26.0278 23.0488 25.8613 22.9166C25.8081 22.877 25.7548 22.8374 25.6999 22.7966C25.4092 22.5626 25.2749 22.3795 25.219 22.0172C25.2168 21.6568 25.2168 21.6568 25.3809 21.3814C25.736 21.0559 25.9858 21.0728 26.4355 21.1881Z" fill="white"/>
<path d="M20.6426 21.0938C20.9555 21.2049 21.0931 21.2875 21.2812 21.5625C21.3406 21.877 21.3532 22.0925 21.1908 22.3773C20.8375 22.8186 20.3866 23.1602 19.9464 23.5104C19.6486 23.7501 19.3653 24.0028 19.0836 24.2611C18.9375 24.375 18.9375 24.375 18.75 24.375C19.4616 25.0943 20.2076 25.7646 21.0095 26.3818C21.2644 26.5958 21.2784 26.6932 21.3164 27.0293C21.2812 27.375 21.2812 27.375 21.0879 27.6504C20.7413 27.8938 20.5732 27.8859 20.1562 27.8438C19.9094 27.6954 19.9094 27.6953 19.6758 27.4862C19.5874 27.4091 19.4991 27.3321 19.4081 27.2527C19.362 27.2114 19.3159 27.1701 19.2684 27.1275C19.0737 26.9544 18.8744 26.7869 18.6749 26.6192C18.5213 26.4901 18.3685 26.3602 18.2157 26.2302C18.0059 26.0522 17.7947 25.8762 17.5822 25.7014C17.5044 25.6373 17.5044 25.6372 17.425 25.5718C17.2814 25.4537 17.1376 25.336 16.9937 25.2183C16.7064 24.9652 16.6931 24.8851 16.6406 24.4979C16.6472 24.1633 16.7176 24.01 16.9512 23.7715C17.0796 23.6574 17.2108 23.5463 17.3437 23.4375C17.4187 23.3751 17.4936 23.3128 17.5708 23.2485C17.741 23.1086 17.912 22.9697 18.0839 22.8318C18.2966 22.6598 18.5041 22.4829 18.7101 22.3029C18.7673 22.253 18.8245 22.2032 18.8835 22.1518C18.9945 22.0546 19.1052 21.957 19.2155 21.8589C20.0923 21.0938 20.0923 21.0938 20.6426 21.0938Z" fill="white"/>
<path d="M24.5637 20.2493C24.7923 20.3548 24.7923 20.3548 24.9387 20.5305C25.078 21.0307 24.9832 21.4056 24.849 21.8906C24.8285 21.9682 24.8081 22.0457 24.7869 22.1256C24.7196 22.3794 24.6505 22.6327 24.5813 22.886C24.534 23.0617 24.4867 23.2375 24.4396 23.4132C24.3425 23.774 24.2446 24.1345 24.1463 24.495C24.0294 24.9248 23.9155 25.3555 23.8032 25.7866C23.7219 26.098 23.6391 26.4091 23.5559 26.72C23.5171 26.8664 23.4788 27.0128 23.441 27.1595C23.3884 27.3631 23.3337 27.5661 23.2783 27.7691C23.2481 27.8834 23.2178 27.9978 23.1867 28.1156C23.0435 28.4534 22.9025 28.5859 22.595 28.7805C22.3137 28.8333 22.3137 28.8333 22.0325 28.7805C21.763 28.593 21.763 28.593 21.5637 28.3118C21.5308 27.7973 21.5886 27.3751 21.7228 26.8745C21.7397 26.8104 21.7566 26.7463 21.7741 26.6802C21.8296 26.4706 21.8865 26.2615 21.9435 26.0523C21.9828 25.9055 22.0221 25.7587 22.0613 25.6118C22.1434 25.3051 22.2261 24.9986 22.3093 24.6923C22.4157 24.3006 22.5206 23.9086 22.6252 23.5165C22.706 23.2136 22.7875 22.9109 22.8691 22.6083C22.908 22.4638 22.9468 22.3193 22.9854 22.1748C23.0395 21.9725 23.0944 21.7705 23.1496 21.5685C23.1806 21.4538 23.2116 21.339 23.2436 21.2208C23.3447 20.9065 23.4627 20.6297 23.6262 20.343C23.9256 20.1934 24.2381 20.2145 24.5637 20.2493Z" fill="white"/>
</g>
</g>
<defs>
<clipPath id="clip0_603_1218">
<rect width="48" height="48" fill="white"/>
</clipPath>
</defs>
</svg>
