<svg width="290" height="290" viewBox="0 0 290 290" fill="none" xmlns="http://www.w3.org/2000/svg">
<path d="M245.351 200.506C245.843 201.163 246.203 201.92 246.404 202.731C246.404 202.732 246.405 202.734 246.405 202.735L248.715 212.188L248.722 212.216L251.152 221.783C251.152 221.786 251.153 221.788 251.154 221.791C251.343 222.562 251.383 223.365 251.27 224.153C251.155 224.944 250.891 225.7 250.492 226.38C250.094 227.058 249.571 227.646 248.957 228.109C248.343 228.573 247.65 228.905 246.918 229.09L246.876 229.101L246.833 229.113L202.652 241.562L158.498 254.005C158.494 254.006 158.49 254.007 158.485 254.008C157.318 254.325 156.118 254.495 154.912 254.514L154.829 254.516L154.747 254.521C153.526 254.603 152.3 254.538 151.094 254.327L115.502 246.374L79.8586 238.411C78.5768 238.107 77.4155 237.374 76.5635 236.311C75.7154 235.252 75.2247 233.927 75.1793 232.54V182.788L75.1789 182.749C75.1619 181.367 75.6372 180.036 76.4997 179.002L76.5429 178.95L76.5838 178.897C77.4113 177.817 78.5587 177.068 79.8315 176.751L137.841 169.427L137.867 169.424L137.894 169.42L193.36 161.484L194.449 165.567L196.159 171.979C196.096 173.587 195.626 175.149 194.798 176.511C193.96 177.889 192.79 179.005 191.412 179.759L167.432 185.892L143.09 192.116L133.666 194.526L142.665 198.219L162.382 206.312L182.099 214.404L183.135 214.829L184.212 214.52L211.962 206.552L211.986 206.545L212.01 206.538L239.03 198.321L239.038 198.319C239.777 198.092 240.552 198.024 241.316 198.118C242.08 198.213 242.82 198.467 243.49 198.87L243.518 198.888L243.547 198.904C244.243 199.304 244.858 199.848 245.351 200.506ZM56.9289 173.561V241.815H38.666V173.561H56.9289Z" stroke="black" stroke-width="6"/>
<path d="M150.811 91.8256C150.811 91.8266 150.81 91.8275 150.809 91.8285H139.088H138.956L138.824 91.8504C138.77 91.8594 138.695 91.8646 138.563 91.7959C138.52 91.7544 138.495 91.7238 138.482 91.7054L138.48 91.6835C138.446 91.2955 138.416 90.9285 138.387 90.5796C138.257 88.9839 138.157 87.762 137.874 86.622C137.51 85.1511 136.86 83.8412 135.671 81.885C133.343 78.0573 129.781 75.8092 126.389 73.669C126.038 73.4473 125.688 73.2266 125.342 73.0056C121.831 70.7629 118.034 69.3019 113.962 68.6304C109.918 67.9634 105.973 68.0459 102.143 68.8908C98.312 69.7353 94.6989 71.319 91.3098 73.6255C87.8981 75.9471 85.0677 78.8697 82.825 82.3809C80.5824 85.8922 79.1214 89.6896 78.4499 93.7608C77.7826 97.806 77.8654 101.75 78.7099 105.581C79.5548 109.412 81.1385 113.024 83.445 116.414C85.7666 119.825 88.6888 122.656 92.2004 124.898C98.979 129.228 106.379 130.683 114.316 129.251L115.964 128.954L115.603 127.319L113.209 116.458L113.203 116.433C113.071 115.88 113.116 115.511 113.215 115.254C113.314 114.998 113.523 114.705 113.978 114.4L113.99 114.391C114.472 114.061 114.855 113.954 115.16 113.945C115.461 113.937 115.822 114.021 116.272 114.309L137.787 128.05C138.247 128.343 138.529 128.736 138.66 129.332C138.791 129.927 138.701 130.402 138.407 130.861L124.667 152.376C124.375 152.833 124.079 153.067 123.805 153.189C123.531 153.311 123.155 153.376 122.609 153.292C122.025 153.186 121.686 152.992 121.48 152.794C121.277 152.599 121.091 152.293 120.994 151.767L120.988 151.738L120.981 151.708L118.695 141.526L118.353 140.005L116.821 140.296C111.53 141.304 106.218 141.31 100.877 140.312C95.5409 139.315 90.6135 137.37 86.0827 134.477C81.2706 131.404 77.2828 127.534 74.108 122.86C70.9167 118.162 68.7575 113.22 67.6126 108.028C66.4678 102.836 66.3482 97.4435 67.2678 91.8394C68.1826 86.2634 70.173 81.0753 73.2463 76.2632C76.3197 71.4515 80.1896 67.4636 84.8634 64.2885C89.5614 61.0975 94.5034 58.9383 99.6956 57.7934C104.888 56.6483 110.28 56.5287 115.884 57.4483C121.46 58.3631 126.648 60.3535 131.46 63.4269C136.88 66.8888 141.916 71.0136 145.213 76.2165C148.676 81.6795 150.852 85.6734 150.852 91.436V91.5217L150.861 91.6071C150.873 91.7151 150.856 91.7624 150.811 91.8256ZM150.811 91.8256L150.815 91.8285" stroke="black" stroke-width="6"/>
<path d="M179.415 81.0827L179.429 81.0776C179.943 80.8888 180.215 80.6538 180.372 80.4289C180.529 80.2021 180.66 79.8544 180.663 79.2863L180.664 79.2599L180.913 68.142L180.95 66.4677L182.621 66.5698C190.672 67.0612 197.516 70.2296 203.074 76.0429C205.954 79.0543 208.121 82.497 209.568 86.3617C211.005 90.2013 211.687 94.0866 211.599 98.0087C211.511 101.931 210.656 105.781 209.049 109.553C207.431 113.349 205.111 116.691 202.099 119.571C199.088 122.45 195.645 124.618 191.781 126.064C187.941 127.501 184.056 128.183 180.134 128.095C176.212 128.007 172.361 127.152 168.59 125.545C164.794 123.927 161.451 121.607 158.572 118.596C155.279 115.153 152.911 111.167 151.481 106.655C150.05 102.139 149.701 97.5019 150.43 92.762L150.433 92.7404C150.428 92.7278 150.42 92.7101 150.407 92.6869C150.37 92.6676 150.32 92.6457 150.259 92.6231C150.108 92.5683 149.954 92.5358 149.849 92.5232H139.301H139.236L139.17 92.5178L139.078 92.51L138.995 92.5032C138.971 92.501 138.949 92.4994 138.928 92.4978C138.927 92.5049 138.926 92.5123 138.925 92.5197C138.193 98.7353 138.827 104.799 140.828 110.727C142.831 116.661 146.004 121.898 150.357 126.451C154.303 130.578 158.871 133.742 164.071 135.953C169.297 138.175 174.564 139.337 179.879 139.456C185.195 139.575 190.508 138.65 195.829 136.664C201.123 134.688 205.828 131.731 209.954 127.785C214.081 123.839 217.245 119.271 219.456 114.072C221.678 108.845 222.841 103.579 222.96 98.263C223.079 92.9476 222.153 87.6342 220.167 82.3136C218.191 77.0202 215.235 72.3151 211.289 68.188C207.573 64.3027 203.248 61.2454 198.3 59.0115C193.348 56.7753 188.187 55.5215 182.807 55.2457L181.249 55.1658L181.278 53.6068L181.472 43.1726L181.472 43.1427L181.474 43.1127C181.504 42.5781 181.396 42.2376 181.245 41.9998C181.091 41.7581 180.809 41.4894 180.267 41.2483C179.756 41.037 179.374 41.0112 179.08 41.0643C178.784 41.1178 178.442 41.2751 178.05 41.6498L159.599 59.2925C159.206 59.6691 159.005 60.1096 158.991 60.7189C158.978 61.3283 159.158 61.7771 159.535 62.1709L177.178 80.6219C177.547 81.008 177.878 81.1755 178.172 81.2387C178.47 81.3031 178.868 81.2893 179.415 81.0827Z" stroke="black" stroke-width="6"/>
</svg>
