<svg width="290" height="290" viewBox="0 0 290 290" fill="none" xmlns="http://www.w3.org/2000/svg">
<path d="M44.709 190.514H98.6812V244.486H44.709V190.514ZM214.744 114.326L180.911 80.4924C179.753 79.334 179.753 77.7493 180.911 76.5909L214.744 42.7576C215.903 41.5992 217.487 41.5992 218.646 42.7576L252.479 76.5909C253.638 77.7493 253.638 79.334 252.479 80.4924L218.646 114.326C217.487 115.484 215.903 115.484 214.744 114.326Z" stroke="black" stroke-width="6"/>
<path d="M104.722 78.5417C104.722 96.7824 89.9345 111.569 71.6938 111.569C53.4531 111.569 38.666 96.7824 38.666 78.5417C38.666 60.301 53.4531 45.5139 71.6938 45.5139C89.9345 45.5139 104.722 60.301 104.722 78.5417Z" stroke="black" stroke-width="6"/>
<path d="M249.722 217.5C249.722 235.741 234.934 250.528 216.694 250.528C198.453 250.528 183.666 235.741 183.666 217.5C183.666 199.259 198.453 184.472 216.694 184.472C234.934 184.472 249.722 199.259 249.722 217.5Z" stroke="black" stroke-width="6"/>
<path d="M68.875 148.222H74.5139V171.986H68.875V148.222Z" fill="black" stroke="black" stroke-width="2"/>
<path d="M83.3748 147.819H60.0137L71.6942 132.245L83.3748 147.819Z" fill="black" stroke="black" stroke-width="2"/>
<path d="M123.25 75.7222H147.014V81.3611H123.25V75.7222Z" fill="black" stroke="black" stroke-width="2"/>
<path d="M147.416 90.2222V66.8611L162.99 78.5416L147.416 90.2222Z" fill="black" stroke="black" stroke-width="2"/>
<path d="M213.875 130.097H219.514V153.861H213.875V130.097Z" fill="black" stroke="black" stroke-width="2"/>
<path d="M205.014 154.264H228.375L216.694 169.838L205.014 154.264Z" fill="black" stroke="black" stroke-width="2"/>
<path d="M107.13 161.111H101.314V144.707H107.178C108.827 144.707 110.248 145.035 111.439 145.692C112.63 146.344 113.545 147.281 114.186 148.504C114.832 149.727 115.155 151.19 115.155 152.893C115.155 154.602 114.832 156.07 114.186 157.299C113.545 158.527 112.624 159.469 111.423 160.126C110.226 160.783 108.795 161.111 107.13 161.111ZM104.783 158.14H106.985C108.011 158.14 108.873 157.958 109.572 157.595C110.277 157.226 110.806 156.658 111.158 155.889C111.516 155.115 111.695 154.116 111.695 152.893C111.695 151.681 111.516 150.69 111.158 149.921C110.806 149.152 110.28 148.586 109.58 148.224C108.881 147.86 108.019 147.679 106.993 147.679H104.783V158.14ZM123.267 161.351C122.002 161.351 120.912 161.095 119.999 160.582C119.091 160.065 118.392 159.333 117.901 158.388C117.409 157.437 117.164 156.313 117.164 155.016C117.164 153.75 117.409 152.64 117.901 151.684C118.392 150.728 119.083 149.983 119.975 149.449C120.872 148.915 121.924 148.648 123.131 148.648C123.943 148.648 124.698 148.779 125.398 149.04C126.103 149.297 126.717 149.684 127.24 150.202C127.769 150.72 128.18 151.371 128.474 152.156C128.767 152.936 128.914 153.849 128.914 154.895V155.833H118.525V153.718H125.702C125.702 153.227 125.596 152.792 125.382 152.412C125.168 152.033 124.872 151.737 124.493 151.523C124.119 151.305 123.684 151.195 123.187 151.195C122.669 151.195 122.21 151.315 121.809 151.555C121.414 151.791 121.105 152.108 120.88 152.509C120.656 152.904 120.541 153.344 120.536 153.83V155.841C120.536 156.45 120.648 156.975 120.872 157.418C121.102 157.862 121.425 158.204 121.841 158.444C122.258 158.684 122.752 158.804 123.323 158.804C123.702 158.804 124.049 158.751 124.365 158.644C124.679 158.537 124.949 158.377 125.173 158.163C125.398 157.95 125.569 157.688 125.686 157.378L128.842 157.587C128.682 158.345 128.353 159.007 127.857 159.573C127.365 160.134 126.73 160.572 125.951 160.887C125.176 161.197 124.282 161.351 123.267 161.351ZM142.281 148.808L137.979 161.111H134.134L129.833 148.808H133.438L135.993 157.611H136.121L138.668 148.808H142.281Z" fill="black"/>
<path d="M161.499 152.909C161.499 154.698 161.16 156.22 160.482 157.475C159.809 158.73 158.891 159.688 157.727 160.35C156.568 161.007 155.265 161.335 153.818 161.335C152.36 161.335 151.052 161.005 149.893 160.342C148.734 159.68 147.819 158.722 147.146 157.467C146.473 156.212 146.137 154.693 146.137 152.909C146.137 151.12 146.473 149.599 147.146 148.343C147.819 147.089 148.734 146.133 149.893 145.476C151.052 144.814 152.36 144.483 153.818 144.483C155.265 144.483 156.568 144.814 157.727 145.476C158.891 146.133 159.809 147.089 160.482 148.343C161.16 149.599 161.499 151.12 161.499 152.909ZM157.983 152.909C157.983 151.75 157.81 150.773 157.463 149.977C157.121 149.182 156.638 148.579 156.013 148.168C155.388 147.756 154.656 147.55 153.818 147.55C152.98 147.55 152.248 147.756 151.624 148.168C150.999 148.579 150.513 149.182 150.165 149.977C149.824 150.773 149.653 151.75 149.653 152.909C149.653 154.068 149.824 155.045 150.165 155.841C150.513 156.636 150.999 157.24 151.624 157.651C152.248 158.062 152.98 158.268 153.818 158.268C154.656 158.268 155.388 158.062 156.013 157.651C156.638 157.24 157.121 156.636 157.463 155.841C157.81 155.045 157.983 154.068 157.983 152.909ZM164.005 165.725V148.808H167.369V150.875H167.521C167.67 150.544 167.887 150.207 168.17 149.865C168.458 149.518 168.832 149.23 169.291 149C169.756 148.766 170.332 148.648 171.021 148.648C171.918 148.648 172.746 148.883 173.504 149.353C174.262 149.817 174.868 150.519 175.322 151.459C175.776 152.394 176.003 153.566 176.003 154.976C176.003 156.348 175.781 157.507 175.338 158.452C174.901 159.392 174.302 160.105 173.544 160.59C172.791 161.071 171.948 161.311 171.013 161.311C170.351 161.311 169.788 161.202 169.323 160.983C168.864 160.764 168.487 160.489 168.193 160.158C167.9 159.822 167.676 159.483 167.521 159.141H167.417V165.725H164.005ZM167.344 154.96C167.344 155.691 167.446 156.329 167.649 156.874C167.852 157.419 168.145 157.843 168.53 158.148C168.915 158.447 169.382 158.596 169.932 158.596C170.487 158.596 170.957 158.444 171.342 158.14C171.726 157.83 172.017 157.403 172.214 156.858C172.417 156.308 172.519 155.675 172.519 154.96C172.519 154.249 172.42 153.625 172.223 153.085C172.025 152.546 171.734 152.124 171.349 151.82C170.965 151.515 170.493 151.363 169.932 151.363C169.376 151.363 168.907 151.51 168.522 151.804C168.143 152.098 167.852 152.514 167.649 153.053C167.446 153.593 167.344 154.228 167.344 154.96ZM188.514 152.316L185.39 152.509C185.337 152.242 185.222 152.001 185.046 151.788C184.87 151.569 184.638 151.395 184.349 151.267C184.066 151.134 183.727 151.067 183.332 151.067C182.803 151.067 182.358 151.179 181.995 151.403C181.631 151.622 181.45 151.916 181.45 152.285C181.45 152.578 181.567 152.827 181.802 153.029C182.037 153.232 182.44 153.395 183.012 153.518L185.238 153.967C186.434 154.212 187.326 154.607 187.914 155.152C188.501 155.697 188.795 156.412 188.795 157.299C188.795 158.105 188.557 158.812 188.082 159.421C187.612 160.03 186.966 160.505 186.144 160.847C185.327 161.183 184.384 161.352 183.316 161.352C181.687 161.352 180.39 161.012 179.423 160.334C178.462 159.651 177.899 158.722 177.733 157.547L181.089 157.371C181.191 157.867 181.436 158.246 181.826 158.508C182.216 158.764 182.715 158.892 183.324 158.892C183.922 158.892 184.403 158.778 184.766 158.548C185.134 158.313 185.321 158.011 185.327 157.643C185.321 157.333 185.19 157.08 184.934 156.882C184.678 156.679 184.283 156.524 183.749 156.417L181.618 155.993C180.417 155.753 179.522 155.336 178.935 154.743C178.353 154.151 178.062 153.395 178.062 152.477C178.062 151.686 178.275 151.006 178.702 150.434C179.135 149.863 179.741 149.422 180.521 149.113C181.306 148.803 182.224 148.648 183.276 148.648C184.83 148.648 186.053 148.976 186.945 149.633C187.842 150.29 188.365 151.184 188.514 152.316Z" fill="black"/>
</svg>
