<svg width="300" height="300" viewBox="0 0 300 300" fill="none" xmlns="http://www.w3.org/2000/svg">
<g clip-path="url(#clip0_367_556)">
<mask id="mask0_367_556" style="mask-type:luminance" maskUnits="userSpaceOnUse" x="0" y="0" width="300" height="300">
<path d="M300 0H0V300H300V0Z" fill="white"/>
</mask>
<g mask="url(#mask0_367_556)">
<mask id="mask1_367_556" style="mask-type:luminance" maskUnits="userSpaceOnUse" x="73" y="116" width="47" height="48">
<path d="M99.1825 116.667C99.8685 116.667 100.482 117.094 100.713 117.733L102.361 122.299C102.951 122.446 103.457 122.593 103.886 122.747C104.355 122.915 104.96 123.17 105.706 123.517L109.542 121.487C109.855 121.321 110.214 121.262 110.564 121.317C110.914 121.372 111.237 121.539 111.484 121.793L114.857 125.281C115.305 125.746 115.431 126.425 115.179 127.017L113.38 131.233C113.679 131.782 113.917 132.251 114.099 132.643C114.295 133.07 114.538 133.658 114.827 134.416L119.02 136.213C119.65 136.481 120.04 137.111 119.998 137.785L119.69 142.627C119.669 142.942 119.556 143.243 119.365 143.494C119.174 143.745 118.914 143.934 118.616 144.039L114.645 145.45C114.531 145.999 114.412 146.468 114.286 146.864C114.083 147.477 113.851 148.08 113.59 148.67L115.585 153.08C115.726 153.39 115.764 153.737 115.694 154.07C115.623 154.403 115.448 154.704 115.193 154.931L111.4 158.319C111.15 158.541 110.838 158.681 110.506 158.721C110.174 158.761 109.838 158.699 109.542 158.542L105.632 156.471C105.02 156.794 104.389 157.08 103.742 157.327L102.034 157.966L100.517 162.166C100.405 162.474 100.202 162.74 99.9355 162.93C99.6689 163.121 99.3512 163.226 99.0239 163.232L94.5905 163.333C94.2545 163.342 93.9239 163.246 93.6445 163.059C93.3649 162.872 93.1502 162.604 93.0299 162.29L91.2425 157.56C90.6325 157.352 90.0289 157.126 89.4319 156.884C88.9435 156.672 88.4625 156.444 87.9899 156.2L83.5569 158.095C83.2645 158.219 82.9425 158.256 82.6299 158.201C82.3172 158.146 82.0272 158.001 81.7952 157.784L78.5145 154.707C78.2702 154.478 78.1039 154.179 78.0392 153.851C77.9742 153.524 78.0139 153.184 78.1529 152.88L80.0592 148.726C79.8055 148.234 79.5705 147.733 79.3545 147.224C79.1022 146.6 78.8689 145.969 78.6545 145.331L74.4779 144.06C74.1385 143.957 73.8425 143.745 73.6355 143.457C73.4289 143.169 73.3232 142.82 73.3349 142.466L73.4982 137.984C73.5095 137.691 73.6012 137.408 73.7622 137.163C73.9235 136.919 74.1485 136.723 74.4125 136.598L78.7945 134.493C78.9975 133.749 79.1749 133.17 79.3312 132.748C79.5512 132.184 79.7959 131.629 80.0639 131.086L78.1645 127.073C78.0205 126.768 77.9765 126.426 78.0395 126.095C78.1025 125.763 78.2689 125.461 78.5145 125.23L81.7905 122.136C82.0202 121.919 82.3075 121.774 82.6179 121.717C82.9282 121.659 83.2485 121.693 83.5405 121.814L87.9689 123.643C88.4589 123.317 88.9022 123.053 89.3035 122.841C89.7819 122.586 90.4212 122.32 91.2262 122.033L92.7662 117.738C92.8799 117.423 93.0879 117.152 93.3619 116.96C93.6359 116.768 93.9622 116.666 94.2965 116.667H99.1825ZM96.7232 133.044C92.8339 133.044 89.6815 136.159 89.6815 140.004C89.6815 143.85 92.8339 146.967 96.7232 146.967C100.611 146.967 103.763 143.85 103.763 140.004C103.763 136.159 100.613 133.044 96.7232 133.044Z" fill="white"/>
</mask>
<g mask="url(#mask1_367_556)">
<path d="M102.36 122.299L99.2243 123.43L99.828 125.104L101.554 125.534L102.36 122.299ZM105.706 123.517L104.299 126.539L105.801 127.238L107.265 126.463L105.706 123.517ZM111.483 121.793L113.879 119.476L113.873 119.47L111.483 121.793ZM114.857 125.281L117.256 122.967L117.253 122.964L114.857 125.281ZM115.179 127.017L118.245 128.325L118.246 128.322L115.179 127.017ZM113.38 131.233L110.314 129.925L109.68 131.41L110.453 132.828L113.38 131.233ZM114.098 132.643L117.128 131.252L117.122 131.239L114.098 132.643ZM114.826 134.416L111.712 135.604L112.215 136.924L113.514 137.48L114.826 134.416ZM119.019 136.213L117.706 139.277L117.713 139.28L119.019 136.213ZM119.997 137.785L123.324 137.997V137.993L119.997 137.785ZM119.689 142.627L123.015 142.85L123.016 142.839L119.689 142.627ZM118.616 144.039L117.512 140.893L117.499 140.898L118.616 144.039ZM114.644 145.45L113.528 142.31L111.764 142.937L111.381 144.77L114.644 145.45ZM114.285 146.864L117.449 147.914L117.462 147.873L114.285 146.864ZM113.59 148.67L110.539 147.327L109.94 148.689L110.553 150.044L113.59 148.67ZM115.585 153.08L112.548 154.454L112.55 154.459L115.585 153.08ZM115.193 154.931L112.978 152.439L112.972 152.444L115.193 154.931ZM111.399 158.319L113.614 160.809L113.619 160.805L111.399 158.319ZM105.631 156.471L107.192 153.525L105.632 152.698L104.071 153.525L105.631 156.471ZM103.741 157.327L104.91 160.449L104.928 160.442L103.741 157.327ZM102.033 157.966L100.865 154.844L99.4213 155.385L98.898 156.834L102.033 157.966ZM100.517 162.166L103.647 163.31L103.652 163.298L100.517 162.166ZM99.0233 163.232L98.9577 159.9L98.948 159.9L99.0233 163.232ZM94.59 163.333L94.5147 160L94.5027 160.001L94.59 163.333ZM93.0293 162.29L89.911 163.468L89.9173 163.484L93.0293 162.29ZM91.242 157.56L94.36 156.382L93.8053 154.914L92.32 154.406L91.242 157.56ZM89.4313 156.884L88.1073 159.943L88.1417 159.958L88.1763 159.972L89.4313 156.884ZM87.9893 156.2L89.5197 153.239L88.124 152.517L86.6793 153.135L87.9893 156.2ZM81.7947 157.784L79.514 160.215L79.5177 160.219L81.7947 157.784ZM78.514 154.707L80.7947 152.276L80.7893 152.271L78.514 154.707ZM78.1523 152.88L75.123 151.489L75.1207 151.494L78.1523 152.88ZM80.0587 148.726L83.088 150.117L83.765 148.642L83.0217 147.199L80.0587 148.726ZM79.354 147.224L76.2637 148.473L76.2743 148.499L76.2853 148.525L79.354 147.224ZM78.654 145.331L81.8137 144.269L81.2667 142.642L79.625 142.143L78.654 145.331ZM74.4773 144.06L75.4483 140.871L75.442 140.869L74.4773 144.06ZM73.3343 142.466L70.003 142.345L70.0027 142.357L73.3343 142.466ZM73.4977 137.984L70.1667 137.851L70.1663 137.862L73.4977 137.984ZM74.412 136.598L75.8437 139.608L75.8553 139.602L74.412 136.598ZM78.794 134.493L80.2373 137.498L81.6093 136.839L82.01 135.37L78.794 134.493ZM79.3307 132.748L76.2253 131.536L76.2147 131.563L76.2047 131.591L79.3307 132.748ZM80.0633 131.086L83.052 132.562L83.7657 131.117L83.0763 129.661L80.0633 131.086ZM78.514 125.23L80.7953 127.66L80.8027 127.653L78.514 125.23ZM87.9683 123.643L86.6957 126.724L88.3387 127.403L89.8173 126.417L87.9683 123.643ZM89.303 122.841L90.862 125.787L90.868 125.784L89.303 122.841ZM91.2257 122.033L92.345 125.173L93.831 124.643L94.3633 123.158L91.2257 122.033ZM92.7657 117.738L89.6313 116.603L89.6277 116.613L92.7657 117.738ZM94.296 116.667L94.2887 120H94.296V116.667ZM99.182 120C98.484 120 97.8307 119.566 97.5777 118.866L103.848 116.602C103.133 114.623 101.252 113.333 99.182 113.333V120ZM97.5777 118.866L99.2243 123.43L105.495 121.168L103.848 116.602L97.5777 118.866ZM101.554 125.534C102.081 125.665 102.472 125.781 102.76 125.885L105.011 119.61C104.441 119.405 103.819 119.228 103.165 119.065L101.554 125.534ZM102.76 125.885C103.096 126.005 103.6 126.214 104.299 126.539L107.113 120.495C106.318 120.125 105.613 119.825 105.011 119.61L102.76 125.885ZM107.265 126.463L111.101 124.433L107.982 118.541L104.147 120.571L107.265 126.463ZM111.101 124.433C110.777 124.605 110.407 124.666 110.045 124.609L111.082 118.024C110.019 117.857 108.933 118.038 107.982 118.541L111.101 124.433ZM110.045 124.609C109.682 124.552 109.348 124.379 109.093 124.116L113.873 119.47C113.123 118.698 112.144 118.191 111.082 118.024L110.045 124.609ZM109.087 124.11L112.461 127.599L117.253 122.964L113.879 119.476L109.087 124.11ZM112.458 127.596C111.98 127.1 111.838 126.355 112.111 125.713L118.246 128.322C119.023 126.494 118.63 124.391 117.256 122.967L112.458 127.596ZM112.113 125.709L110.314 129.925L116.446 132.542L118.245 128.325L112.113 125.709ZM110.453 132.828C110.727 133.332 110.931 133.735 111.075 134.046L117.122 131.239C116.902 130.766 116.63 130.232 116.307 129.639L110.453 132.828ZM111.069 134.033C111.222 134.367 111.436 134.88 111.712 135.604L117.941 133.228C117.638 132.435 117.367 131.772 117.128 131.252L111.069 134.033ZM113.514 137.48L117.706 139.277L120.332 133.149L116.139 131.352L113.514 137.48ZM117.713 139.28C117.057 139 116.623 138.327 116.67 137.578L123.324 137.993C123.454 135.895 122.242 133.962 120.326 133.146L117.713 139.28ZM116.67 137.574L116.362 142.415L123.016 142.839L123.324 137.997L116.67 137.574ZM116.363 142.404C116.386 142.068 116.506 141.745 116.711 141.476L122.018 145.511C122.603 144.741 122.951 143.815 123.015 142.85L116.363 142.404ZM116.711 141.476C116.915 141.208 117.194 141.005 117.512 140.893L119.719 147.184C120.633 146.863 121.432 146.282 122.018 145.511L116.711 141.476ZM117.499 140.898L113.528 142.31L115.761 148.591L119.732 147.179L117.499 140.898ZM111.381 144.77C111.282 145.244 111.19 145.597 111.108 145.855L117.462 147.873C117.632 147.338 117.778 146.753 117.908 146.131L111.381 144.77ZM111.121 145.815C110.951 146.328 110.757 146.832 110.539 147.327L116.641 150.013C116.943 149.327 117.213 148.626 117.449 147.914L111.121 145.815ZM110.553 150.044L112.548 154.454L118.622 151.706L116.627 147.296L110.553 150.044ZM112.55 154.459C112.396 154.121 112.355 153.742 112.432 153.379L118.954 154.761C119.172 153.731 119.055 152.659 118.619 151.701L112.55 154.459ZM112.432 153.379C112.509 153.016 112.7 152.686 112.978 152.439L117.408 157.422C118.194 156.723 118.736 155.79 118.954 154.761L112.432 153.379ZM112.972 152.444L109.179 155.832L113.619 160.805L117.413 157.417L112.972 152.444ZM109.184 155.828C109.442 155.598 109.764 155.453 110.106 155.412L110.904 162.031C111.911 161.909 112.856 161.483 113.614 160.809L109.184 155.828ZM110.106 155.412C110.449 155.371 110.796 155.435 111.101 155.596L107.981 161.488C108.877 161.962 109.898 162.152 110.904 162.031L110.106 155.412ZM111.101 155.596L107.192 153.525L104.07 159.416L107.981 161.488L111.101 155.596ZM104.071 153.525C103.58 153.785 103.074 154.014 102.555 154.212L104.928 160.442C105.702 160.147 106.458 159.804 107.191 159.416L104.071 153.525ZM102.573 154.205L100.865 154.844L103.202 161.088L104.91 160.449L102.573 154.205ZM98.898 156.834L97.3813 161.034L103.652 163.298L105.168 159.098L98.898 156.834ZM97.3857 161.022C97.504 160.698 97.7173 160.418 97.998 160.218L101.872 165.643C102.686 165.062 103.304 164.249 103.647 163.31L97.3857 161.022ZM97.998 160.218C98.2783 160.017 98.613 159.907 98.9577 159.9L99.089 166.565C100.088 166.545 101.059 166.224 101.872 165.643L97.998 160.218ZM98.948 159.9L94.5147 160L94.6657 166.665L99.0987 166.565L98.948 159.9ZM94.5027 160.001C94.8553 159.991 95.2023 160.092 95.496 160.288L91.792 165.831C92.6447 166.4 93.6527 166.692 94.6777 166.665L94.5027 160.001ZM95.496 160.288C95.7893 160.484 96.0147 160.766 96.141 161.095L89.9173 163.484C90.2847 164.441 90.9397 165.261 91.792 165.831L95.496 160.288ZM96.1473 161.111L94.36 156.382L88.1237 158.738L89.911 163.468L96.1473 161.111ZM92.32 154.406C91.7697 154.218 91.225 154.014 90.6863 153.795L88.1763 159.972C88.8317 160.238 89.4947 160.486 90.164 160.714L92.32 154.406ZM90.7553 153.824C90.337 153.643 89.9247 153.448 89.5197 153.239L86.459 159.161C86.9993 159.44 87.549 159.701 88.1073 159.943L90.7553 153.824ZM86.6793 153.135L82.2463 155.029L84.8643 161.16L89.2993 159.265L86.6793 153.135ZM82.2463 155.029C82.5487 154.9 82.8837 154.861 83.2077 154.918L82.051 161.484C83.0003 161.651 83.9777 161.539 84.8643 161.16L82.2463 155.029ZM83.2077 154.918C83.5313 154.975 83.8313 155.125 84.0717 155.35L79.5177 160.219C80.2217 160.877 81.1017 161.317 82.051 161.484L83.2077 154.918ZM84.0753 155.353L80.7947 152.276L76.2333 157.138L79.514 160.215L84.0753 155.353ZM80.7893 152.271C81.056 152.52 81.2377 152.846 81.3083 153.204L74.7687 154.499C74.9693 155.512 75.4837 156.437 76.2387 157.142L80.7893 152.271ZM81.3083 153.204C81.3793 153.562 81.3357 153.933 81.184 154.265L75.1207 151.494C74.691 152.434 74.568 153.485 74.7687 154.499L81.3083 153.204ZM81.182 154.27L83.088 150.117L77.029 147.336L75.123 151.489L81.182 154.27ZM83.0217 147.199C82.806 146.781 82.6063 146.355 82.4227 145.922L76.2853 148.525C76.5337 149.111 76.804 149.688 77.0957 150.253L83.0217 147.199ZM82.444 145.974C82.217 145.412 82.0067 144.844 81.8137 144.269L75.4943 146.393C75.73 147.094 75.9867 147.788 76.2637 148.473L82.444 145.974ZM79.625 142.143L75.4483 140.871L73.5067 147.248L77.683 148.52L79.625 142.143ZM75.442 140.869C75.8053 140.979 76.1223 141.206 76.3437 141.514L70.9267 145.4C71.5613 146.285 72.4707 146.935 73.513 147.25L75.442 140.869ZM76.3437 141.514C76.565 141.822 76.678 142.195 76.6657 142.575L70.0027 142.357C69.967 143.446 70.292 144.515 70.9267 145.4L76.3437 141.514ZM76.6653 142.587L76.8287 138.105L70.1663 137.862L70.003 142.345L76.6653 142.587ZM76.8283 138.116C76.8157 138.431 76.7173 138.736 76.544 138.999L70.9797 135.327C70.4837 136.079 70.2027 136.952 70.1667 137.851L76.8283 138.116ZM76.544 138.999C76.3703 139.262 76.1283 139.473 75.8437 139.608L72.9807 133.587C72.1673 133.974 71.4757 134.576 70.9797 135.327L76.544 138.999ZM75.8553 139.602L80.2373 137.498L77.3507 131.488L72.969 133.593L75.8553 139.602ZM82.01 135.37C82.2033 134.66 82.3507 134.191 82.4567 133.905L76.2047 131.591C75.998 132.149 75.7903 132.837 75.578 133.616L82.01 135.37ZM82.436 133.96C82.621 133.485 82.8267 133.019 83.052 132.562L77.0743 129.611C76.7637 130.24 76.4803 130.882 76.2253 131.536L82.436 133.96ZM83.0763 129.661L81.177 125.647L75.1507 128.498L77.0503 132.512L83.0763 129.661ZM81.177 125.647C81.3343 125.98 81.3823 126.355 81.314 126.716L74.7643 125.473C74.5697 126.497 74.705 127.556 75.1507 128.498L81.177 125.647ZM81.314 126.716C81.2453 127.078 81.0637 127.408 80.7953 127.66L76.2327 122.8C75.4727 123.513 74.9587 124.449 74.7643 125.473L81.314 126.716ZM80.8027 127.653L84.0787 124.559L79.5027 119.711L76.2253 122.807L80.8027 127.653ZM84.0787 124.559C83.841 124.783 83.542 124.936 83.2207 124.995L82.014 118.438C81.072 118.612 80.1997 119.054 79.5027 119.711L84.0787 124.559ZM83.2207 124.995C82.8993 125.054 82.5677 125.019 82.2657 124.894L84.814 118.734C83.9287 118.368 82.9563 118.265 82.014 118.438L83.2207 124.995ZM82.2657 124.894L86.6957 126.724L89.241 120.562L84.814 118.734L82.2657 124.894ZM89.8173 126.417C90.2247 126.145 90.5713 125.941 90.862 125.787L87.744 119.894C87.232 120.165 86.692 120.488 86.1193 120.87L89.8173 126.417ZM90.868 125.784C91.138 125.64 91.6037 125.437 92.345 125.173L90.106 118.894C89.2373 119.203 88.4247 119.532 87.738 119.897L90.868 125.784ZM94.3633 123.158L95.9033 118.863L89.6277 116.613L88.0877 120.908L94.3633 123.158ZM95.8997 118.873C95.7797 119.204 95.5607 119.489 95.2723 119.691L91.4503 114.229C90.614 114.814 89.979 115.643 89.6313 116.603L95.8997 118.873ZM95.2723 119.691C94.984 119.893 94.6403 120.001 94.2887 120L94.3037 113.333C93.283 113.331 92.2867 113.644 91.4503 114.229L95.2723 119.691ZM94.296 120H99.182V113.333H94.296V120ZM96.7227 129.711C91.0293 129.711 86.3477 134.281 86.3477 140.004H93.0143C93.0143 138.037 94.6373 136.377 96.7227 136.377V129.711ZM86.3477 140.004C86.3477 145.726 91.0277 150.3 96.7227 150.3V143.634C94.6387 143.634 93.0143 141.973 93.0143 140.004H86.3477ZM96.7227 150.3C102.416 150.3 107.095 145.725 107.095 140.004H100.429C100.429 141.974 98.8037 143.634 96.7227 143.634V150.3ZM107.095 140.004C107.095 134.283 102.418 129.711 96.7227 129.711V136.377C98.8067 136.377 100.429 138.035 100.429 140.004H107.095Z" fill="black"/>
</g>
<mask id="mask2_367_556" style="mask-type:luminance" maskUnits="userSpaceOnUse" x="176" y="133" width="48" height="47">
<path d="M202.517 133.333C203.203 133.333 203.816 133.76 204.047 134.4L205.695 138.966C206.285 139.113 206.791 139.26 207.22 139.414C207.689 139.582 208.294 139.836 209.04 140.184L212.876 138.154C213.189 137.988 213.547 137.928 213.898 137.983C214.248 138.038 214.571 138.206 214.818 138.46L218.191 141.948C218.639 142.412 218.765 143.091 218.513 143.684L216.714 147.9C217.013 148.448 217.251 148.917 217.433 149.309C217.629 149.736 217.871 150.324 218.161 151.083L222.354 152.879C222.984 153.148 223.373 153.778 223.331 154.452L223.024 159.294C223.003 159.608 222.889 159.91 222.698 160.161C222.508 160.412 222.248 160.601 221.95 160.705L217.979 162.117C217.865 162.665 217.745 163.134 217.619 163.531C217.416 164.144 217.184 164.746 216.924 165.337L218.919 169.747C219.06 170.057 219.098 170.404 219.028 170.736C218.957 171.069 218.782 171.371 218.527 171.597L214.734 174.985C214.484 175.207 214.172 175.348 213.84 175.388C213.508 175.428 213.171 175.366 212.876 175.209L208.966 173.137C208.354 173.461 207.722 173.747 207.075 173.994L205.368 174.633L203.851 178.833C203.739 179.14 203.536 179.407 203.27 179.597C203.003 179.787 202.685 179.893 202.358 179.899L197.924 179.999C197.588 180.008 197.258 179.913 196.979 179.726C196.699 179.539 196.484 179.27 196.364 178.956L194.577 174.227C193.967 174.018 193.363 173.793 192.766 173.55C192.278 173.339 191.797 173.111 191.324 172.867L186.891 174.761C186.598 174.886 186.277 174.923 185.964 174.868C185.651 174.813 185.361 174.668 185.129 174.451L181.849 171.373C181.604 171.145 181.438 170.846 181.373 170.518C181.308 170.19 181.348 169.85 181.487 169.546L183.393 165.393C183.14 164.901 182.904 164.4 182.688 163.89C182.436 163.267 182.203 162.636 181.988 161.998L177.812 160.726C177.473 160.624 177.177 160.412 176.97 160.124C176.763 159.836 176.657 159.487 176.669 159.133L176.832 154.65C176.844 154.358 176.935 154.074 177.096 153.83C177.258 153.586 177.483 153.39 177.747 153.264L182.128 151.16C182.331 150.415 182.509 149.837 182.665 149.414C182.885 148.85 183.13 148.296 183.398 147.753L181.499 143.74C181.355 143.435 181.311 143.092 181.374 142.761C181.437 142.43 181.603 142.127 181.849 141.897L185.124 138.803C185.354 138.586 185.641 138.44 185.952 138.383C186.262 138.326 186.583 138.36 186.875 138.481L191.303 140.31C191.793 139.983 192.236 139.72 192.638 139.507C193.116 139.253 193.755 138.987 194.56 138.7L196.1 134.404C196.214 134.09 196.422 133.818 196.696 133.627C196.97 133.435 197.296 133.333 197.631 133.333H202.517ZM200.057 149.711C196.168 149.711 193.016 152.826 193.016 156.671C193.016 160.516 196.168 163.634 200.057 163.634C203.945 163.634 207.097 160.516 207.097 156.671C207.097 152.826 203.947 149.711 200.057 149.711Z" fill="white"/>
</mask>
<g mask="url(#mask2_367_556)">
<path d="M205.694 138.966L202.558 140.097L203.162 141.771L204.888 142.2L205.694 138.966ZM209.04 140.184L207.633 143.206L209.135 143.905L210.599 143.13L209.04 140.184ZM214.817 138.46L217.213 136.142L217.207 136.136L214.817 138.46ZM218.191 141.948L220.59 139.633L220.587 139.63L218.191 141.948ZM218.513 143.684L221.579 144.992L221.58 144.988L218.513 143.684ZM216.714 147.9L213.648 146.592L213.014 148.077L213.787 149.495L216.714 147.9ZM217.432 149.309L220.462 147.919L220.456 147.906L217.432 149.309ZM218.16 151.083L215.046 152.271L215.549 153.59L216.848 154.147L218.16 151.083ZM222.353 152.879L221.04 155.943L221.047 155.946L222.353 152.879ZM223.331 154.452L226.658 154.664V154.659L223.331 154.452ZM223.023 159.294L226.349 159.516L226.35 159.505L223.023 159.294ZM221.95 160.705L220.846 157.56L220.833 157.565L221.95 160.705ZM217.978 162.117L216.862 158.976L215.098 159.603L214.715 161.437L217.978 162.117ZM217.619 163.531L220.783 164.581L220.796 164.54L217.619 163.531ZM216.924 165.337L213.873 163.994L213.274 165.355L213.887 166.711L216.924 165.337ZM218.919 169.747L215.882 171.121L215.884 171.126L218.919 169.747ZM218.527 171.597L216.312 169.106L216.306 169.111L218.527 171.597ZM214.733 174.985L216.948 177.476L216.953 177.471L214.733 174.985ZM208.965 173.137L210.526 170.192L208.966 169.365L207.405 170.191L208.965 173.137ZM207.075 173.994L208.244 177.115L208.262 177.109L207.075 173.994ZM205.367 174.633L204.199 171.511L202.755 172.051L202.232 173.501L205.367 174.633ZM203.851 178.833L206.981 179.977L206.986 179.965L203.851 178.833ZM202.357 179.899L202.292 176.566L202.282 176.567L202.357 179.899ZM197.924 179.999L197.849 176.667L197.837 176.667L197.924 179.999ZM196.363 178.956L193.245 180.135L193.251 180.151L196.363 178.956ZM194.576 174.227L197.694 173.049L197.139 171.58L195.654 171.073L194.576 174.227ZM192.765 173.55L191.441 176.609L191.476 176.624L191.51 176.638L192.765 173.55ZM191.323 172.867L192.854 169.905L191.458 169.184L190.013 169.801L191.323 172.867ZM185.129 174.451L182.848 176.882L182.852 176.885L185.129 174.451ZM181.848 171.373L184.129 168.942L184.123 168.937L181.848 171.373ZM181.486 169.546L178.457 168.156L178.455 168.161L181.486 169.546ZM183.393 165.393L186.422 166.783L187.099 165.308L186.356 163.866L183.393 165.393ZM182.688 163.89L179.598 165.14L179.608 165.166L179.619 165.192L182.688 163.89ZM181.988 161.998L185.148 160.936L184.601 159.309L182.959 158.809L181.988 161.998ZM177.811 160.726L178.782 157.538L178.776 157.536L177.811 160.726ZM176.668 159.133L173.337 159.011L173.337 159.024L176.668 159.133ZM176.832 154.65L173.501 154.518L173.5 154.529L176.832 154.65ZM177.746 153.264L179.178 156.275L179.189 156.269L177.746 153.264ZM182.128 151.16L183.571 154.165L184.943 153.505L185.344 152.037L182.128 151.16ZM182.665 149.414L179.559 148.203L179.549 148.23L179.539 148.257L182.665 149.414ZM183.397 147.753L186.386 149.229L187.1 147.784L186.41 146.327L183.397 147.753ZM181.848 141.897L184.129 144.327L184.137 144.32L181.848 141.897ZM191.302 140.31L190.03 143.391L191.673 144.069L193.151 143.083L191.302 140.31ZM192.637 139.507L194.196 142.454L194.202 142.45L192.637 139.507ZM194.56 138.7L195.679 141.84L197.165 141.31L197.697 139.825L194.56 138.7ZM196.1 134.404L192.965 133.269L192.962 133.279L196.1 134.404ZM197.63 133.333L197.623 136.667H197.63V133.333ZM202.516 136.667C201.818 136.667 201.165 136.233 200.912 135.532L207.182 133.269C206.467 131.29 204.586 130 202.516 130V136.667ZM200.912 135.532L202.558 140.097L208.829 137.835L207.182 133.269L200.912 135.532ZM204.888 142.2C205.415 142.332 205.806 142.448 206.094 142.552L208.345 136.276C207.775 136.072 207.153 135.894 206.499 135.731L204.888 142.2ZM206.094 142.552C206.43 142.672 206.934 142.881 207.633 143.206L210.447 137.162C209.652 136.792 208.947 136.492 208.345 136.276L206.094 142.552ZM210.599 143.13L214.435 141.1L211.316 135.208L207.481 137.238L210.599 143.13ZM214.435 141.1C214.111 141.272 213.741 141.333 213.379 141.276L214.416 134.691C213.353 134.523 212.267 134.704 211.316 135.208L214.435 141.1ZM213.379 141.276C213.016 141.219 212.682 141.046 212.427 140.783L217.207 136.136C216.457 135.365 215.478 134.858 214.416 134.691L213.379 141.276ZM212.421 140.777L215.795 144.265L220.587 139.63L217.213 136.142L212.421 140.777ZM215.792 144.262C215.314 143.767 215.172 143.021 215.445 142.38L221.58 144.988C222.357 143.161 221.964 141.058 220.59 139.633L215.792 144.262ZM215.447 142.376L213.648 146.592L219.78 149.208L221.579 144.992L215.447 142.376ZM213.787 149.495C214.061 149.999 214.265 150.402 214.409 150.713L220.456 147.906C220.236 147.433 219.964 146.898 219.641 146.306L213.787 149.495ZM214.403 150.7C214.556 151.034 214.77 151.547 215.046 152.271L221.275 149.895C220.972 149.102 220.701 148.439 220.462 147.919L214.403 150.7ZM216.848 154.147L221.04 155.943L223.666 149.816L219.473 148.019L216.848 154.147ZM221.047 155.946C220.391 155.667 219.957 154.994 220.004 154.245L226.658 154.659C226.788 152.562 225.576 150.629 223.66 149.813L221.047 155.946ZM220.004 154.24L219.696 159.082L226.35 159.505L226.658 154.664L220.004 154.24ZM219.697 159.071C219.72 158.734 219.84 158.412 220.045 158.143L225.352 162.178C225.937 161.408 226.285 160.482 226.349 159.516L219.697 159.071ZM220.045 158.143C220.249 157.875 220.528 157.672 220.846 157.56L223.053 163.851C223.967 163.53 224.766 162.949 225.352 162.178L220.045 158.143ZM220.833 157.565L216.862 158.976L219.095 165.258L223.066 163.846L220.833 157.565ZM214.715 161.437C214.616 161.911 214.524 162.264 214.442 162.522L220.796 164.54C220.966 164.005 221.112 163.42 221.242 162.797L214.715 161.437ZM214.455 162.481C214.285 162.994 214.091 163.499 213.873 163.994L219.975 166.68C220.277 165.993 220.547 165.293 220.783 164.581L214.455 162.481ZM213.887 166.711L215.882 171.121L221.956 168.373L219.961 163.963L213.887 166.711ZM215.884 171.126C215.73 170.788 215.689 170.409 215.766 170.046L222.288 171.427C222.506 170.398 222.389 169.326 221.953 168.368L215.884 171.126ZM215.766 170.046C215.843 169.682 216.034 169.353 216.312 169.106L220.742 174.088C221.528 173.389 222.07 172.457 222.288 171.427L215.766 170.046ZM216.306 169.111L212.513 172.499L216.953 177.471L220.747 174.083L216.306 169.111ZM212.518 172.494C212.776 172.265 213.098 172.12 213.44 172.079L214.238 178.697C215.245 178.576 216.19 178.15 216.948 177.476L212.518 172.494ZM213.44 172.079C213.783 172.037 214.13 172.102 214.435 172.263L211.315 178.155C212.211 178.629 213.232 178.819 214.238 178.697L213.44 172.079ZM214.435 172.263L210.526 170.192L207.404 176.083L211.315 178.155L214.435 172.263ZM207.405 170.191C206.914 170.451 206.408 170.681 205.889 170.878L208.262 177.109C209.036 176.814 209.792 176.471 210.525 176.083L207.405 170.191ZM205.907 170.872L204.199 171.511L206.536 177.755L208.244 177.115L205.907 170.872ZM202.232 173.501L200.715 177.701L206.986 179.965L208.502 175.765L202.232 173.501ZM200.72 177.689C200.838 177.365 201.051 177.085 201.332 176.884L205.206 182.31C206.02 181.729 206.638 180.916 206.981 179.977L200.72 177.689ZM201.332 176.884C201.612 176.684 201.947 176.573 202.292 176.566L202.423 183.232C203.422 183.212 204.393 182.891 205.206 182.31L201.332 176.884ZM202.282 176.567L197.849 176.667L198 183.332L202.433 183.232L202.282 176.567ZM197.837 176.667C198.189 176.658 198.536 176.758 198.83 176.954L195.126 182.497C195.979 183.067 196.987 183.359 198.012 183.332L197.837 176.667ZM198.83 176.954C199.123 177.15 199.349 177.433 199.475 177.762L193.251 180.151C193.619 181.108 194.274 181.928 195.126 182.497L198.83 176.954ZM199.481 177.778L197.694 173.049L191.458 175.405L193.245 180.135L199.481 177.778ZM195.654 171.073C195.104 170.885 194.559 170.681 194.02 170.462L191.51 176.638C192.166 176.905 192.829 177.152 193.498 177.381L195.654 171.073ZM194.089 170.491C193.671 170.31 193.259 170.115 192.854 169.905L189.793 175.828C190.333 176.107 190.883 176.368 191.441 176.609L194.089 170.491ZM190.013 169.801L185.58 171.696L188.198 177.827L192.633 175.932L190.013 169.801ZM185.58 171.696C185.883 171.567 186.218 171.528 186.542 171.585L185.385 178.15C186.334 178.318 187.312 178.205 188.198 177.827L185.58 171.696ZM186.542 171.585C186.865 171.642 187.165 171.792 187.406 172.016L182.852 176.885C183.556 177.544 184.436 177.983 185.385 178.15L186.542 171.585ZM187.409 172.02L184.129 168.942L179.567 173.804L182.848 176.882L187.409 172.02ZM184.123 168.937C184.39 169.186 184.572 169.513 184.642 169.871L178.103 171.165C178.303 172.179 178.818 173.104 179.573 173.809L184.123 168.937ZM184.642 169.871C184.713 170.229 184.67 170.6 184.518 170.932L178.455 168.161C178.025 169.101 177.902 170.152 178.103 171.165L184.642 169.871ZM184.516 170.937L186.422 166.783L180.363 164.002L178.457 168.156L184.516 170.937ZM186.356 163.866C186.14 163.448 185.94 163.022 185.757 162.589L179.619 165.192C179.868 165.778 180.138 166.354 180.43 166.92L186.356 163.866ZM185.778 162.64C185.551 162.079 185.341 161.51 185.148 160.936L178.828 163.06C179.064 163.761 179.321 164.455 179.598 165.14L185.778 162.64ZM182.959 158.809L178.782 157.538L176.841 163.915L181.017 165.187L182.959 158.809ZM178.776 157.536C179.139 157.645 179.456 157.872 179.678 158.181L174.261 162.067C174.895 162.952 175.805 163.602 176.847 163.917L178.776 157.536ZM179.678 158.181C179.899 158.489 180.012 158.862 180 159.241L173.337 159.024C173.301 160.112 173.626 161.182 174.261 162.067L179.678 158.181ZM179.999 159.254L180.163 154.772L173.5 154.529L173.337 159.011L179.999 159.254ZM180.162 154.783C180.15 155.098 180.051 155.403 179.878 155.666L174.314 151.994C173.818 152.746 173.537 153.618 173.501 154.518L180.162 154.783ZM179.878 155.666C179.704 155.929 179.462 156.139 179.178 156.275L176.315 150.254C175.501 150.641 174.81 151.242 174.314 151.994L179.878 155.666ZM179.189 156.269L183.571 154.165L180.685 148.155L176.303 150.26L179.189 156.269ZM185.344 152.037C185.537 151.327 185.685 150.858 185.791 150.572L179.539 148.257C179.332 148.816 179.124 149.504 178.912 150.283L185.344 152.037ZM185.77 150.626C185.955 150.152 186.161 149.686 186.386 149.229L180.408 146.277C180.098 146.907 179.814 147.549 179.559 148.203L185.77 150.626ZM186.41 146.327L184.511 142.314L178.485 145.165L180.384 149.179L186.41 146.327ZM184.511 142.314C184.668 142.647 184.716 143.021 184.648 143.383L178.098 142.139C177.904 143.163 178.039 144.223 178.485 145.165L184.511 142.314ZM184.648 143.383C184.579 143.745 184.398 144.075 184.129 144.327L179.567 139.466C178.807 140.18 178.293 141.115 178.098 142.139L184.648 143.383ZM184.137 144.32L187.413 141.226L182.837 136.378L179.559 139.473L184.137 144.32ZM187.413 141.226C187.175 141.45 186.876 141.602 186.555 141.662L185.348 135.105C184.406 135.278 183.534 135.72 182.837 136.378L187.413 141.226ZM186.555 141.662C186.233 141.721 185.902 141.686 185.6 141.561L188.148 135.4C187.263 135.034 186.29 134.932 185.348 135.105L186.555 141.662ZM185.6 141.561L190.03 143.391L192.575 137.229L188.148 135.4L185.6 141.561ZM193.151 143.083C193.559 142.812 193.905 142.607 194.196 142.454L191.078 136.561C190.566 136.832 190.026 137.155 189.453 137.536L193.151 143.083ZM194.202 142.45C194.472 142.307 194.938 142.104 195.679 141.84L193.44 135.56C192.571 135.87 191.759 136.199 191.072 136.564L194.202 142.45ZM197.697 139.825L199.237 135.529L192.962 133.279L191.422 137.575L197.697 139.825ZM199.234 135.539C199.114 135.87 198.895 136.156 198.606 136.358L194.784 130.896C193.948 131.481 193.313 132.31 192.965 133.269L199.234 135.539ZM198.606 136.358C198.318 136.56 197.974 136.667 197.623 136.667L197.638 130C196.617 129.998 195.621 130.31 194.784 130.896L198.606 136.358ZM197.63 136.667H202.516V130H197.63V136.667ZM200.057 146.377C194.363 146.377 189.682 150.948 189.682 156.671H196.348C196.348 154.703 197.971 153.044 200.057 153.044V146.377ZM189.682 156.671C189.682 162.393 194.362 166.967 200.057 166.967V160.3C197.973 160.3 196.348 158.64 196.348 156.671H189.682ZM200.057 166.967C205.75 166.967 210.429 162.392 210.429 156.671H203.763C203.763 158.641 202.138 160.3 200.057 160.3V166.967ZM210.429 156.671C210.429 150.95 205.752 146.377 200.057 146.377V153.044C202.141 153.044 203.763 154.702 203.763 156.671H210.429Z" fill="black"/>
</g>
<path d="M104.16 171.344L104.147 171.353C103.405 171.851 103.004 172.372 102.804 172.889C102.604 173.408 102.548 174.078 102.761 174.972L102.767 174.999L106.214 190.635L106.587 192.326L104.883 192.634C93.6159 194.666 83.1296 192.603 73.5093 186.459C68.5276 183.278 64.3843 179.264 61.0923 174.427C57.8156 169.612 55.5706 164.487 54.3733 159.057C53.1759 153.627 53.0573 148.033 54.0053 142.286C54.9576 136.513 57.0286 131.129 60.2103 126.148C63.3919 121.166 67.4053 117.023 72.2429 113.73C77.0576 110.454 82.1829 108.209 87.6126 107.011C93.0426 105.814 98.6369 105.696 104.383 106.643C110.157 107.596 115.54 109.667 120.522 112.848C121.02 113.167 121.521 113.483 122.023 113.8C126.922 116.894 131.919 120.049 135.185 125.421C136.888 128.222 137.782 130.039 138.282 132.059C138.675 133.645 138.814 135.338 139.002 137.633C139.044 138.139 139.088 138.675 139.138 139.246L139.141 139.283L139.142 139.32C139.145 139.374 139.161 139.562 139.521 139.884C139.867 140.084 140.139 140.115 140.391 140.073L140.526 140.051H140.664H157.717C157.853 140.012 157.96 139.935 158.078 139.767C158.233 139.543 158.296 139.317 158.263 139.01L158.254 138.922V138.833C158.254 130.336 155.026 124.448 150.034 116.571C145.212 108.964 137.872 102.964 130.032 97.9573C123.03 93.4853 115.478 90.5873 107.362 89.2557C99.2163 87.9193 91.3696 88.0917 83.8086 89.759C76.2476 91.4263 69.0559 94.57 62.2279 99.208C55.4246 103.829 49.7909 109.635 45.3189 116.637C40.8473 123.639 37.9493 131.192 36.6176 139.308C35.2809 147.453 35.4536 155.3 37.1209 162.861C38.7879 170.422 41.9316 177.614 46.5696 184.442C51.1913 191.245 56.9969 196.878 63.9989 201.35C70.5929 205.562 77.7659 208.392 85.5296 209.842C93.2989 211.294 101.028 211.286 108.728 209.82L110.312 209.518L110.666 211.092L113.958 225.752L113.965 225.782L113.97 225.812C114.131 226.678 114.452 227.25 114.86 227.642C115.271 228.037 115.888 228.363 116.829 228.532C117.718 228.671 118.394 228.573 118.925 228.337C119.458 228.1 119.975 227.667 120.451 226.922L140.234 195.946C140.752 195.134 140.909 194.271 140.684 193.251C140.459 192.232 139.955 191.515 139.142 190.996L108.167 171.213C107.428 170.742 106.781 170.571 106.196 170.587C105.606 170.604 104.934 170.813 104.16 171.344Z" stroke="black" stroke-width="6"/>
<path d="M198.951 124.537L198.965 124.531C199.804 124.223 200.318 123.812 200.634 123.357C200.952 122.9 201.165 122.263 201.171 121.343L201.171 121.316L201.53 105.309L201.568 103.577L203.297 103.683C214.725 104.38 224.423 108.871 232.312 117.121C236.397 121.393 239.47 126.275 241.521 131.755C243.562 137.209 244.528 142.721 244.404 148.28C244.279 153.839 243.068 159.301 240.784 164.659C238.49 170.042 235.201 174.781 230.929 178.866C226.657 182.951 221.775 186.024 216.295 188.075C210.841 190.117 205.329 191.083 199.77 190.958C194.211 190.834 188.748 189.622 183.391 187.339C178.008 185.044 173.269 181.756 169.184 177.483C164.511 172.597 161.155 166.946 159.126 160.545C157.096 154.142 156.6 147.566 157.635 140.84L157.641 140.803L157.648 140.767C157.658 140.715 157.686 140.536 157.433 140.158C157.358 140.103 157.209 140.016 156.967 139.927C156.687 139.825 156.397 139.765 156.189 139.744H140.967H140.9L140.832 139.738C140.775 139.734 140.724 139.729 140.676 139.725C140.562 139.716 140.468 139.708 140.366 139.702C140.232 139.694 140.138 139.694 140.07 139.699C140.067 139.7 140.063 139.7 140.06 139.7C139.905 139.861 139.815 140.048 139.778 140.308C138.712 149.356 139.634 158.185 142.547 166.813C145.461 175.448 150.08 183.071 156.413 189.695C162.155 195.699 168.805 200.306 176.374 203.524C183.97 206.754 191.634 208.447 199.375 208.62C207.115 208.794 214.847 207.445 222.58 204.559C230.285 201.682 237.135 197.378 243.14 191.636C249.145 185.895 253.751 179.244 256.97 171.676C260.199 164.08 261.893 156.416 262.066 148.675C262.239 140.934 260.891 133.203 258.004 125.469C255.128 117.764 250.824 110.915 245.082 104.91C239.675 99.2547 233.377 94.8047 226.179 91.5543C218.976 88.3013 211.465 86.4767 203.637 86.0753L202.026 85.9927L202.056 84.38L202.335 69.3573L202.335 69.3263L202.337 69.2957C202.386 68.4163 202.21 67.7847 201.906 67.3067C201.601 66.8253 201.078 66.3627 200.204 65.9753C199.374 65.6297 198.694 65.5643 198.122 65.6677C197.548 65.7717 196.943 66.07 196.304 66.681L169.74 92.082C169.044 92.748 168.687 93.5487 168.663 94.5927C168.64 95.6367 168.961 96.4527 169.627 97.149L195.027 123.713C195.633 124.346 196.221 124.666 196.793 124.789C197.37 124.913 198.073 124.868 198.951 124.537Z" stroke="black" stroke-width="6"/>
</g>
</g>
<defs>
<clipPath id="clip0_367_556">
<rect width="300" height="300" fill="white"/>
</clipPath>
</defs>
</svg>
