<svg width="100" height="100" viewBox="0 0 100 100" fill="none" xmlns="http://www.w3.org/2000/svg">
<path d="M59.155 72.5774C59.155 67.798 55.2806 63.9235 50.5012 63.9235C45.7218 63.9235 41.8474 67.798 41.8474 72.5774C41.8474 77.3568 45.7218 81.2312 50.5012 81.2312C55.2806 81.2312 59.155 77.3568 59.155 72.5774ZM64.9243 72.5774C64.9243 80.543 58.4668 87.0004 50.5012 87.0004C42.5356 87.0004 36.0781 80.543 36.0781 72.5774C36.0781 64.6117 42.5356 58.1543 50.5012 58.1543C58.4668 58.1543 64.9243 64.6117 64.9243 72.5774Z" fill="black"/>
<path d="M36.0769 26.4231C36.0769 21.6437 32.2025 17.7692 27.4231 17.7692C22.6437 17.7692 18.7692 21.6437 18.7692 26.4231C18.7692 31.2025 22.6437 35.0769 27.4231 35.0769C32.2025 35.0769 36.0769 31.2025 36.0769 26.4231ZM41.8462 26.4231C41.8462 34.3887 35.3887 40.8462 27.4231 40.8462C19.4574 40.8462 13 34.3887 13 26.4231C13 18.4574 19.4574 12 27.4231 12C35.3887 12 41.8462 18.4574 41.8462 26.4231Z" fill="black"/>
<path d="M82.2293 26.4231C82.2293 21.6437 78.3548 17.7692 73.5754 17.7692C68.796 17.7692 64.9216 21.6437 64.9216 26.4231C64.9216 31.2025 68.796 35.0769 73.5754 35.0769C78.3548 35.0769 82.2293 31.2025 82.2293 26.4231ZM87.9985 26.4231C87.9985 34.3887 81.5411 40.8462 73.5754 40.8462C65.6098 40.8462 59.1523 34.3887 59.1523 26.4231C59.1523 18.4574 65.6098 12 73.5754 12C81.5411 12 87.9985 18.4574 87.9985 26.4231Z" fill="black"/>
<path d="M24.5391 45.6541V37.9618C24.5391 36.3686 25.8305 35.0771 27.4237 35.0771C29.0168 35.0771 30.3083 36.3686 30.3083 37.9618V45.6541C30.3083 46.1524 30.4631 46.3422 30.5224 46.4015C30.5817 46.4608 30.7715 46.6156 31.2698 46.6156H69.7314C70.2297 46.6156 70.4195 46.4608 70.4788 46.4015C70.5381 46.3422 70.6929 46.1524 70.6929 45.6541V37.9618C70.6929 36.3686 71.9844 35.0771 73.5775 35.0771C75.1707 35.0771 76.4621 36.3686 76.4621 37.9618V45.6541C76.4621 47.4634 75.8447 49.1937 74.5578 50.4805C73.271 51.7674 71.5407 52.3848 69.7314 52.3848H31.2698C29.4605 52.3848 27.7302 51.7674 26.4434 50.4805C25.1565 49.1937 24.5391 47.4634 24.5391 45.6541Z" fill="black"/>
<path d="M47.6172 61.0383V49.4998C47.6172 47.9067 48.9087 46.6152 50.5018 46.6152C52.0949 46.6152 53.3864 47.9067 53.3864 49.4998V61.0383C53.3864 62.6314 52.0949 63.9229 50.5018 63.9229C48.9087 63.9229 47.6172 62.6314 47.6172 61.0383Z" fill="black"/>
</svg>
