<?xml version="1.0" encoding="UTF-8"?>
<svg version="1.1" xmlns="http://www.w3.org/2000/svg" width="512" height="512">
<path d="M0 0 C5.85535544 3.53839759 10.49562328 8.98428339 12.5625 15.5 C12.85344716 18.44178614 12.84097353 21.36928301 12.82992554 24.32356262 C12.83445665 25.21240463 12.83898776 26.10124665 12.84365618 27.01702327 C12.85631689 29.99553255 12.85467872 32.97385936 12.85302734 35.95239258 C12.85901156 38.08790828 12.86581686 40.22342181 12.87338257 42.3589325 C12.89106093 48.16065298 12.89573874 53.96231449 12.89701414 59.76405931 C12.89891304 64.60746722 12.90627051 69.45086139 12.91335833 74.29426402 C12.92964698 85.72198062 12.93452686 97.1496657 12.93310547 108.57739258 C12.93190399 120.3647548 12.95300606 132.15193393 12.9845928 143.93924981 C13.01074692 154.05999514 13.02147312 164.18068063 13.02019465 174.30145949 C13.01968475 180.34579667 13.02538347 186.38997116 13.04655075 192.43427467 C13.06591833 198.11998233 13.0660675 203.80537188 13.05151749 209.49109077 C13.04942645 211.57600112 13.05414779 213.66093131 13.0662384 215.74580765 C13.08169497 218.59607377 13.07237979 221.44524362 13.05697632 224.29548645 C13.06726344 225.11699985 13.07755057 225.93851325 13.08814943 226.78492099 C13.00856701 233.46662057 11.00064273 238.55021276 6.73828125 243.70703125 C1.3831189 248.32122774 -3.69700175 251.48127196 -10.94802856 251.50991821 C-17.70192266 250.96404309 -23.27596929 249.41491596 -29.4921875 246.7734375 C-30.41912415 246.39395966 -31.34606079 246.01448181 -32.30108643 245.62350464 C-35.31078243 244.38777419 -38.31142639 243.13150714 -41.3125 241.875 C-43.42239289 241.00467686 -45.53291584 240.13587969 -47.64404297 239.26855469 C-51.90294887 237.51697376 -56.15875946 235.75819231 -60.41210938 233.99316406 C-68.03103361 230.83494359 -75.67568445 227.74149928 -83.32363892 224.65441895 C-87.07028969 223.14090747 -90.81434726 221.62100981 -94.55859375 220.1015625 C-96.03758833 219.5016046 -97.51659221 218.90166965 -98.99560547 218.30175781 C-99.72720886 218.00499146 -100.45881226 217.7082251 -101.21258545 217.40246582 C-108.01647047 214.64268627 -114.82070483 211.88376815 -121.625 209.125 C-122.36867828 208.82347015 -123.11235657 208.52194031 -123.87857056 208.21127319 C-143.39462702 200.2986584 -162.91604507 192.39928448 -182.4375 184.5 C-182.71851563 185.10585938 -182.99953125 185.71171875 -183.2890625 186.3359375 C-185.61395671 190.7168606 -189.01278549 193.44768561 -193.4375 195.5 C-193.64347321 204.1684792 -193.17981696 212.43963559 -191.8125 221 C-191.5506189 222.67352539 -191.5506189 222.67352539 -191.28344727 224.38085938 C-189.3730364 235.91058679 -186.21517413 246.96978953 -182.60180664 258.06640625 C-179.48614879 267.90005651 -178.69307885 277.75097237 -183.1796875 287.3203125 C-187.87275889 295.45302627 -194.40502574 300.29876075 -203.25 303.3125 C-212.88169741 305.8750617 -221.53737443 305.03121895 -230.4375 300.5 C-245.12739348 291.37600042 -249.18957329 269.22698674 -252.88671875 253.55078125 C-257.16101791 234.39622611 -260.14987786 215.15635217 -259.4375 195.5 C-260.37335938 195.21640625 -261.30921875 194.9328125 -262.2734375 194.640625 C-266.11129191 193.25710218 -267.78324897 191.57334329 -270.4375 188.5 C-270.8603125 187.46746094 -271.283125 186.43492187 -271.71875 185.37109375 C-275.01541439 181.88970247 -276.02350395 182.03090455 -280.6796875 181.80078125 C-283.22383572 181.77549944 -285.76842571 181.78063534 -288.3125 181.8125 C-307.78790145 181.88291726 -324.82092989 178.82337624 -339.2578125 164.8125 C-351.77823264 151.52918687 -356.09111043 137.74669923 -355.75 119.75390625 C-355.0891457 104.33672617 -347.32229001 91.99604751 -336.4375 81.5 C-326.18731189 72.71900552 -313.9205749 68.30594211 -300.51171875 68.40234375 C-299.39033257 68.40446617 -299.39033257 68.40446617 -298.24629211 68.40663147 C-295.87248635 68.41220236 -293.49877697 68.4247494 -291.125 68.4375 C-289.50976699 68.44251877 -287.8945325 68.44708101 -286.27929688 68.45117188 C-282.33199445 68.46216225 -278.38476353 68.47940668 -274.4375 68.5 C-274.1485083 67.55672852 -273.8595166 66.61345703 -273.56176758 65.64160156 C-272.29066096 62.08967975 -270.96720504 60.67662212 -268.125 58.25 C-267.36574219 57.58484375 -266.60648437 56.9196875 -265.82421875 56.234375 C-261.42727608 53.03921535 -257.69606215 52.24801743 -252.30541992 52.20947266 C-251.09033249 52.19671295 -249.87524506 52.18395325 -248.62333679 52.17080688 C-247.31806534 52.16858124 -246.01279388 52.16635559 -244.66796875 52.1640625 C-243.30422325 52.15762835 -241.94047911 52.15089954 -240.57673645 52.14389038 C-237.72129113 52.13193638 -234.86596661 52.12820752 -232.01049805 52.12939453 C-228.3689689 52.12959743 -224.72822272 52.10231829 -221.08687878 52.06785011 C-218.27025363 52.04550275 -215.45381444 52.04155939 -212.63710976 52.04261398 C-210.6475152 52.039136 -208.65797869 52.01752042 -206.66850281 51.99551392 C-199.4447788 52.03181269 -194.55076902 52.54038962 -188.4375 56.5 C-186.68649117 58.320032 -185.44534118 60.11241312 -184.0546875 62.20703125 C-182.45567172 63.7856449 -182.45567172 63.7856449 -179.93969727 63.31860352 C-175.33367608 62.24199222 -171.14341322 60.51360563 -166.78515625 58.6953125 C-165.83400436 58.30453018 -164.88285248 57.91374786 -163.90287781 57.51112366 C-161.84465241 56.66471036 -159.78758862 55.81546803 -157.73156738 54.9637146 C-153.33186944 53.14108825 -148.92665228 51.33198352 -144.52175903 49.5219574 C-142.23523195 48.58220867 -139.94900081 47.64173959 -137.66305542 46.70057678 C-126.19149971 41.97912318 -114.69200691 37.32795226 -103.1875 32.6875 C-99.30456584 31.12009293 -95.4218176 29.55222557 -91.5390625 27.984375 C-90.6027449 27.6063826 -89.66642731 27.2283902 -88.70173645 26.83894348 C-81.69432422 24.00945392 -74.68992693 21.17259542 -67.68824768 18.32894897 C-63.79689256 16.74861173 -59.90447239 15.17108645 -56.00854492 13.60205078 C-49.34034607 10.9141296 -42.69263817 8.19692575 -36.08984375 5.3515625 C-11.99002386 -4.93174566 -11.99002386 -4.93174566 0 0 Z M-20.28515625 17.59765625 C-21.42799072 18.06147705 -22.5708252 18.52529785 -23.74829102 19.00317383 C-24.99891091 19.52282835 -26.24947887 20.04260785 -27.5 20.5625 C-28.82632646 21.10477609 -30.15307942 21.64601004 -31.48022461 22.1862793 C-34.32230295 23.34491899 -37.16195007 24.50926295 -40 25.67773438 C-44.44137215 27.50454628 -48.89137836 29.30956441 -53.34375 31.109375 C-54.85824054 31.72174903 -56.37272618 32.33413519 -57.88720703 32.9465332 C-58.64487366 33.25289703 -59.40254028 33.55926086 -60.1831665 33.87490845 C-64.11038356 35.46420071 -68.03565468 37.05828154 -71.9609375 38.65234375 C-80.42334297 42.088587 -88.88697422 45.52179644 -97.35134888 48.95318604 C-99.62420622 49.87467818 -101.89695055 50.79644862 -104.16967773 51.71826172 C-111.65282851 54.75293466 -119.13744367 57.78392405 -126.62513733 60.80737305 C-130.36244827 62.3164706 -134.09938172 63.82650193 -137.83633423 65.33648682 C-139.61475197 66.05473418 -141.39336829 66.77249008 -143.17221069 67.48968506 C-145.68042717 68.5009651 -148.18792157 69.51401885 -150.6953125 70.52734375 C-151.39841049 70.81025772 -152.10150848 71.09317169 -152.82591248 71.38465881 C-161.73918092 74.99118542 -170.5731742 78.76765229 -179.4375 82.5 C-179.4375 110.22 -179.4375 137.94 -179.4375 166.5 C-174.68774651 168.87487675 -170.27591131 171.06295285 -165.39453125 172.98828125 C-163.68994751 173.66467651 -163.68994751 173.66467651 -161.95092773 174.35473633 C-160.72962158 174.83579834 -159.50831543 175.31686035 -158.25 175.8125 C-155.54873212 176.88353852 -152.84860627 177.95744408 -150.1484375 179.03125 C-149.44329514 179.31132401 -148.73815277 179.59139801 -148.01164246 179.87995911 C-139.78334469 183.15109807 -131.57901847 186.48104558 -123.375 189.8125 C-121.80835888 190.44834641 -120.24170843 191.08416982 -118.67504883 191.7199707 C-115.5083502 193.00525486 -112.34178601 194.29086961 -109.17529297 195.57666016 C-102.19718402 198.40989755 -95.21726215 201.23866237 -88.23745728 204.06771851 C-85.94430241 204.99724266 -83.65121617 205.92693591 -81.3581543 206.85668945 C-74.23550295 209.74462726 -67.1125886 212.63191144 -59.98876953 215.51696777 C-56.68243595 216.8560361 -53.37624731 218.19546205 -50.07006836 219.53491211 C-48.51821948 220.16350711 -46.96630235 220.79193362 -45.41430664 221.42016602 C-43.95280435 222.01177646 -42.49145738 222.60377074 -41.03027344 223.19616699 C-39.61628617 223.7686834 -38.20158318 224.33943566 -36.78613281 224.9083252 C-33.09777012 226.39582452 -29.4364206 227.92822936 -25.79492188 229.52734375 C-24.64935822 230.0222229 -24.64935822 230.0222229 -23.48065186 230.52709961 C-22.02537349 231.15740521 -20.5751031 231.79945511 -19.13116455 232.45532227 C-14.81817932 234.3080603 -11.96822245 234.82770892 -7.4375 233.5 C-4.65508452 231.48514741 -4.03552072 229.81118337 -3.4375 226.5 C-3.33925595 223.76307199 -3.29400996 221.05163632 -3.29705811 218.31472778 C-3.29408698 217.4824988 -3.29111586 216.65026981 -3.2880547 215.79282176 C-3.27937286 213.00005462 -3.2778599 210.20733036 -3.27636719 207.41455078 C-3.27173871 205.41386829 -3.26671401 203.41318668 -3.26132202 201.4125061 C-3.24820035 195.97449734 -3.24175371 190.53650092 -3.23731136 185.09847879 C-3.23438075 181.70198176 -3.23027601 178.3054881 -3.22580719 174.90899277 C-3.21213395 164.2847362 -3.20246599 153.66048734 -3.1986053 143.03622258 C-3.19412239 130.76682415 -3.17656294 118.49753701 -3.1476047 106.22817242 C-3.12600268 96.74697011 -3.11590184 87.26579915 -3.11456418 77.78457248 C-3.11351525 72.12036734 -3.10758855 66.45626682 -3.08974457 60.79208755 C-3.07328913 55.46512496 -3.07109612 50.13834596 -3.07988358 44.81136703 C-3.08065526 42.85623432 -3.07629402 40.90109184 -3.06642532 38.94598389 C-3.05374244 36.27684957 -3.05956264 33.60836911 -3.07000732 30.9392395 C-3.06195092 30.16569158 -3.05389452 29.39214365 -3.04559398 28.59515488 C-3.08917582 23.83283554 -3.88723206 20.53553214 -6.4375 16.5 C-11.13515157 14.15117421 -15.69389058 15.70876165 -20.28515625 17.59765625 Z M-258.4375 73.5 C-259.77642476 77.51677429 -259.58492305 81.38525797 -259.58276367 85.57373047 C-259.58612228 86.50247986 -259.5894809 87.43122925 -259.59294128 88.38812256 C-259.60245573 91.46449107 -259.60439467 94.54080518 -259.60546875 97.6171875 C-259.60868106 99.75326561 -259.61204511 101.8893435 -259.61555481 104.02542114 C-259.62154736 108.50604767 -259.62339459 112.9866549 -259.62280273 117.46728516 C-259.62270112 123.20965526 -259.63635197 128.95190169 -259.65357494 134.69424248 C-259.66469184 139.107153 -259.66672203 143.5200336 -259.66619301 147.9329567 C-259.66737364 150.05005443 -259.67180009 152.16715293 -259.67952538 154.28423691 C-259.68931859 157.24540626 -259.68644975 160.20630682 -259.68041992 163.16748047 C-259.68603943 164.04246185 -259.69165894 164.91744324 -259.69744873 165.81893921 C-259.67511208 170.13396212 -259.55342072 173.61558647 -257.4375 177.5 C-252.89809592 181.72224551 -247.01330831 180.9320608 -241.1875 180.8984375 C-240.09663086 180.90130768 -239.00576172 180.90417786 -237.88183594 180.90713501 C-235.57877075 180.90917367 -233.27568817 180.90365773 -230.97265625 180.89111328 C-227.45012648 180.87505755 -223.92874414 180.89096948 -220.40625 180.91015625 C-218.16666414 180.90817378 -215.92707899 180.90433004 -213.6875 180.8984375 C-212.63530273 180.90451019 -211.58310547 180.91058289 -210.49902344 180.9168396 C-203.39562971 180.9823235 -203.39562971 180.9823235 -197.4375 177.5 C-194.9249916 172.87245611 -195.1482541 168.33946109 -195.1628418 163.21508789 C-195.1551754 161.82393517 -195.1551754 161.82393517 -195.14735413 160.40467834 C-195.13347272 157.34393837 -195.13441377 154.28342393 -195.13671875 151.22265625 C-195.13283114 149.09183163 -195.12849634 146.96100778 -195.12373352 144.83018494 C-195.11627451 140.36568692 -195.11656038 135.90126799 -195.12182617 131.43676758 C-195.12762158 125.71914077 -195.11068637 120.00183782 -195.0874815 114.28426456 C-195.07274142 109.88417166 -195.07187282 105.48415672 -195.07499123 101.0840435 C-195.0744782 98.97614335 -195.06924387 96.86823881 -195.05917931 94.76036263 C-195.04682657 91.81146386 -195.05359972 88.8631955 -195.06518555 85.91430664 C-195.05754181 85.04606262 -195.04989807 84.1778186 -195.04202271 83.28326416 C-195.0853174 78.29119669 -195.64287556 74.81670453 -198.4375 70.5 C-200.95967469 69.23891265 -202.73490491 69.35247644 -205.55810547 69.32299805 C-207.16019363 69.30374519 -207.16019363 69.30374519 -208.79464722 69.28410339 C-210.53211716 69.27302299 -210.53211716 69.27302299 -212.3046875 69.26171875 C-213.49095734 69.253647 -214.67722717 69.24557526 -215.89944458 69.23725891 C-218.41292861 69.22341043 -220.92643151 69.21269171 -223.43994141 69.20483398 C-227.2897485 69.18760184 -231.13870139 69.14371863 -234.98828125 69.09960938 C-237.427077 69.08948453 -239.86588007 69.08096778 -242.3046875 69.07421875 C-243.45895233 69.05671066 -244.61321716 69.03920258 -245.80245972 69.02116394 C-247.41400436 69.02555229 -247.41400436 69.02555229 -249.05810547 69.0300293 C-250.00249481 69.02416306 -250.94688416 69.01829681 -251.91989136 69.01225281 C-255.20747318 69.64917023 -256.37155077 70.91724389 -258.4375 73.5 Z M-328.4375 97.5 C-330.79992871 100.3380855 -332.67281907 103.26028181 -334.4375 106.5 C-335.05818359 107.60601562 -335.05818359 107.60601562 -335.69140625 108.734375 C-340.03722552 117.75914255 -339.93712007 128.9992771 -336.875 138.4375 C-332.27216608 149.17208121 -324.01325405 157.36606925 -313.25 161.875 C-301.07126106 166.52029014 -288.51622564 164.5 -275.4375 164.5 C-275.4375 138.43 -275.4375 112.36 -275.4375 85.5 C-304.92196488 83.94489299 -304.92196488 83.94489299 -328.4375 97.5 Z M-242.4375 197.5 C-242.4375 206.92905123 -242.1979386 215.38021832 -240.75 224.5625 C-240.56993408 225.72861816 -240.38986816 226.89473633 -240.2043457 228.09619141 C-237.86334693 242.72618374 -234.43679877 256.88661627 -229.9375 271 C-229.66510498 271.87897949 -229.39270996 272.75795898 -229.11206055 273.66357422 C-227.15190485 279.54461733 -224.74750202 283.18299859 -219.5625 286.8125 C-214.82187181 288.34623265 -210.78234143 287.89907914 -206.3125 285.875 C-202.23131706 283.59620719 -199.87202849 281.53218781 -197.4375 277.5 C-196.71536613 269.6350202 -198.77585097 263.2456721 -201.1875 255.8125 C-207.16485196 236.47732834 -209.86807515 217.64095228 -211.4375 197.5 C-221.6675 197.5 -231.8975 197.5 -242.4375 197.5 Z " fill="#000000" transform="translate(427.4375,104.5)"/>
</svg>
