<?xml version="1.0" encoding="UTF-8"?>
<svg version="1.1" xmlns="http://www.w3.org/2000/svg" width="512" height="512">
<path d="M0 0 C1.53929149 -0.02152516 3.07846239 -0.05556384 4.6171875 -0.10253906 C19.04121225 -0.53859619 19.04121225 -0.53859619 23.62280273 3.24487305 C27.53311504 7.41038877 27.13452148 10.48833638 27.13452148 16.4050293 C87.85452148 16.4050293 148.57452148 16.4050293 211.13452148 16.4050293 C211.13452148 13.7650293 211.13452148 11.1250293 211.13452148 8.4050293 C213.14955037 4.65290654 214.58918291 2.76858835 218.13452148 0.4050293 C220.68941812 0.18557448 223.13282609 0.07707677 225.68920898 0.0690918 C226.4277713 0.062435 227.16633362 0.0557782 227.92727661 0.04891968 C229.48900871 0.03880118 231.05078398 0.03410241 232.61254883 0.03442383 C234.99430179 0.0300572 237.37419095 -0.00624828 239.75561523 -0.04418945 C241.27514017 -0.05005928 242.79467388 -0.05402756 244.31420898 -0.0559082 C245.37694534 -0.07746475 245.37694534 -0.07746475 246.46115112 -0.09945679 C251.30794749 -0.05498676 253.71214142 1.00340544 257.13452148 4.4050293 C260.12819228 8.39659035 259.13452148 10.7849686 259.13452148 16.4050293 C319.85452148 16.4050293 380.57452148 16.4050293 443.13452148 16.4050293 C443.13452148 14.0950293 443.13452148 11.7850293 443.13452148 9.4050293 C444.96356923 5.26560546 447.3814678 2.89048468 451.13452148 0.4050293 C454.63623047 -0.12841797 454.63623047 -0.12841797 458.63061523 -0.16137695 C459.69736229 -0.17067482 459.69736229 -0.17067482 460.78565979 -0.18016052 C462.284176 -0.18723854 463.78277117 -0.18411984 465.28125 -0.17138672 C467.5626032 -0.15752792 469.83984297 -0.19160063 472.12084961 -0.22973633 C473.58243915 -0.23068777 475.04403377 -0.22882733 476.50561523 -0.22387695 C477.82489014 -0.22460205 479.14416504 -0.22532715 480.50341797 -0.22607422 C485.2075727 0.59153084 486.79385553 2.06436335 490.13452148 5.4050293 C492.37103556 9.87805745 491.48741545 16.30711913 491.53955078 21.27050781 C491.56107594 22.8097993 491.59511462 24.3489702 491.64208984 25.88769531 C492.07814697 40.31172006 492.07814697 40.31172006 488.29467773 44.89331055 C484.12916201 48.80362285 481.0512144 48.4050293 475.13452148 48.4050293 C475.13452148 81.0750293 475.13452148 113.7450293 475.13452148 147.4050293 C477.44452148 147.4050293 479.75452148 147.4050293 482.13452148 147.4050293 C485.39604548 148.52190819 488.29385935 150.2091848 490.31274414 153.08105469 C491.45664853 156.31599998 491.45944979 159.44776644 491.47045898 162.83862305 C491.47711578 163.55357437 491.48377258 164.2685257 491.4906311 165.00514221 C491.50073318 166.51381872 491.50544888 168.0225397 491.50512695 169.53125 C491.50950094 171.831726 491.54584347 174.130283 491.58374023 176.43041992 C491.58960896 177.89981444 491.59357798 179.36921802 491.59545898 180.83862305 C491.60983002 181.52210312 491.62420105 182.20558319 491.63900757 182.90977478 C491.5936385 187.68314251 490.46439347 190.02944092 487.13452148 193.4050293 C483.14296043 196.39870009 480.75458218 195.4050293 475.13452148 195.4050293 C475.13452148 228.4050293 475.13452148 261.4050293 475.13452148 295.4050293 C478.10452148 295.4050293 481.07452148 295.4050293 484.13452148 295.4050293 C487.22411875 297.50154173 489.45443022 299.04484678 491.13452148 302.4050293 C491.41745699 307.04230637 491.44824486 311.68034569 491.48461914 316.32543945 C491.50114579 317.87149137 491.52839293 319.41746791 491.56665039 320.96313477 C491.62168306 323.19937513 491.64333244 325.43382614 491.65795898 327.6706543 C491.68062836 328.35524719 491.70329773 329.03984009 491.72665405 329.74517822 C491.71036991 333.48063452 491.13098461 335.87694187 488.85180664 338.76342773 C482.98282703 344.46894071 477.69750218 343.74688799 469.7722168 343.72070312 C467.77313792 343.71755077 465.77407775 343.74186072 463.77514648 343.76635742 C462.50413086 343.76700195 461.23311523 343.76764648 459.92358398 343.76831055 C458.1864917 343.77278198 458.1864917 343.77278198 456.41430664 343.77734375 C451.98371035 343.27439159 448.64338936 341.75780739 445.32202148 338.7800293 C444.13452148 336.4050293 444.13452148 336.4050293 443.13452148 327.4050293 C389.67452148 327.4050293 336.21452148 327.4050293 281.13452148 327.4050293 C281.16932617 339.60729492 281.20413086 351.80956055 281.23999023 364.3815918 C281.25531476 372.10164578 281.26988038 379.82168876 281.28100586 387.54174805 C281.29881512 399.80138915 281.31976522 412.06096846 281.36083984 424.32055664 C281.39073841 433.24867021 281.4100956 442.17673371 281.41678697 451.10489595 C281.42069844 455.83244105 281.42989355 460.55984288 281.45171165 465.28734207 C281.472084 469.73766066 281.47835376 474.18777703 281.47384453 478.63813782 C281.47466939 480.27076186 281.48063063 481.90339271 281.49213791 483.53597641 C281.50709405 485.76744666 281.50346417 487.99815642 281.49528503 490.22964478 C281.49805041 491.47775248 281.50081579 492.72586018 281.50366497 494.01178932 C280.7009832 501.390199 276.53435573 505.6051658 271.00952148 510.1550293 C267.86268475 512.25292045 265.21596617 512.53123975 261.53979969 512.53925037 C260.59127654 512.54370822 259.64275339 512.54816606 258.66548711 512.55275899 C257.09927343 512.55248245 257.09927343 512.55248245 255.50141907 512.55220032 C253.83995158 512.55771535 253.83995158 512.55771535 252.1449191 512.5633418 C248.41399092 512.57440078 244.68309057 512.57822623 240.95214844 512.58203125 C238.2849155 512.58829421 235.61768556 512.5949279 232.95045471 512.60194397 C224.93232076 512.62170701 216.91418554 512.63177451 208.89603332 512.64067176 C205.1199854 512.64505503 201.34393888 512.65042175 197.56789207 512.65566063 C185.01507642 512.67267295 172.46226164 512.68716699 159.90943623 512.69440937 C156.65186372 512.69631926 153.39429123 512.69823959 150.13671875 512.70019531 C149.32706652 512.70067905 148.51741429 512.70116279 147.68322714 512.70166119 C134.56819653 512.70996101 121.45325713 512.73529706 108.33826635 512.76777599 C94.87290314 512.80085068 81.40758629 512.81885851 67.94218224 512.82205361 C60.38204968 512.82421836 52.82205014 512.83296177 45.26195717 512.85851479 C38.82319706 512.88022745 32.38460227 512.88826949 25.9458097 512.878548 C22.66169258 512.8740048 19.37798757 512.87807468 16.09390259 512.89530945 C12.52982743 512.91296722 8.96661749 512.90595117 5.40254211 512.89277649 C3.85305885 512.90923036 3.85305885 512.90923036 2.27227288 512.92601663 C-4.95616111 512.86151073 -10.66623294 511.56785082 -15.92407227 506.36987305 C-16.37911133 505.70084961 -16.83415039 505.03182617 -17.30297852 504.3425293 C-17.77606445 503.67092773 -18.24915039 502.99932617 -18.73657227 502.30737305 C-20.64488261 499.09163901 -20.99136296 496.45971834 -20.99690628 492.80472088 C-21.00074743 491.85496433 -21.00458857 490.90520778 -21.00854611 489.92667073 C-21.00767963 488.88116404 -21.00681315 487.83565734 -21.00592041 486.75846863 C-21.00889153 485.64941251 -21.01186265 484.54035638 -21.01492381 483.3976925 C-21.02363145 479.66209345 -21.0251208 475.92652638 -21.02661133 472.19091797 C-21.03123802 469.52044014 -21.03624171 466.84996525 -21.04165649 464.17948914 C-21.05524282 456.91090236 -21.06126497 449.6423211 -21.06566715 442.37372375 C-21.06842901 437.83598892 -21.07266625 433.29825623 -21.07717133 428.76052284 C-21.08936426 416.19912315 -21.09966361 403.63772517 -21.10304642 391.07631969 C-21.10326598 390.27224417 -21.10348555 389.46816864 -21.10371177 388.63972719 C-21.10393005 387.8337184 -21.10414832 387.0277096 -21.10437322 386.19727629 C-21.10481668 384.56397196 -21.10526325 382.93066762 -21.10571289 381.29736328 C-21.10593432 380.48718643 -21.10615575 379.67700958 -21.10638389 378.84228192 C-21.11033234 365.71298516 -21.12778768 352.58374389 -21.15107241 339.45446857 C-21.17478049 325.97781452 -21.18724802 312.50118831 -21.18841434 299.02451307 C-21.18933139 291.45664627 -21.19509136 283.88885176 -21.21323395 276.32100487 C-21.22862759 269.87708158 -21.23375977 263.43325293 -21.22549585 256.98931476 C-21.22158671 253.70146096 -21.22416078 250.41383785 -21.23655319 247.12599945 C-21.24920281 243.561348 -21.24343351 239.99718847 -21.23297119 236.43254089 C-21.2410276 235.39372636 -21.249084 234.35491184 -21.25738454 233.28461808 C-21.21020235 226.42850532 -20.18758727 222.11415617 -15.61547852 216.7800293 C-12.86547852 214.4050293 -12.86547852 214.4050293 -9.11547852 213.0300293 C-7.19900851 212.20365089 -7.19900851 212.20365089 -5.86547852 210.4050293 C-4.9305952 205.38618201 -4.82112096 200.49981193 -4.86547852 195.4050293 C-6.06172852 195.4875293 -7.25797852 195.5700293 -8.49047852 195.6550293 C-12.96294917 195.66295921 -15.40102947 194.29207017 -18.86547852 191.4050293 C-21.25576173 187.81960448 -21.17172631 185.21164363 -21.16625977 181.0690918 C-21.17054489 180.35272552 -21.17483002 179.63635925 -21.179245 178.89828491 C-21.1849837 177.38361669 -21.18549192 175.86892092 -21.18115234 174.35424805 C-21.17799919 172.04517122 -21.20143121 169.7373846 -21.22680664 167.4284668 C-21.22908049 165.95451007 -21.22978273 164.48054992 -21.22875977 163.0065918 C-21.23796951 162.31997467 -21.24717926 161.63335754 -21.25666809 160.92593384 C-21.21505643 156.57941539 -20.52832983 153.8574722 -17.86547852 150.4050293 C-13.00520587 147.20166778 -11.1076675 147.4050293 -4.86547852 147.4050293 C-4.86547852 114.7350293 -4.86547852 82.0650293 -4.86547852 48.4050293 C-7.17547852 48.4050293 -9.48547852 48.4050293 -11.86547852 48.4050293 C-16.00490235 46.57598155 -18.38002313 44.15808298 -20.86547852 40.4050293 C-21.39892578 36.90332031 -21.39892578 36.90332031 -21.43188477 32.90893555 C-21.43808334 32.19777084 -21.44428192 31.48660614 -21.45066833 30.75389099 C-21.45774635 29.25537478 -21.45462765 27.75677961 -21.44189453 26.25830078 C-21.42803573 23.97694759 -21.46210845 21.69970781 -21.50024414 19.41870117 C-21.50119559 17.95711163 -21.49933515 16.49551701 -21.49438477 15.03393555 C-21.49510986 13.71466064 -21.49583496 12.39538574 -21.49658203 11.03613281 C-20.67897698 6.33197808 -19.20614447 4.74569525 -15.86547852 1.4050293 C-11.39245036 -0.83148478 -4.96338869 0.05213533 0 0 Z M-5.86547852 15.4050293 C-5.86547852 21.0150293 -5.86547852 26.6250293 -5.86547852 32.4050293 C-0.25547852 32.4050293 5.35452148 32.4050293 11.13452148 32.4050293 C11.13452148 26.7950293 11.13452148 21.1850293 11.13452148 15.4050293 C5.52452148 15.4050293 -0.08547852 15.4050293 -5.86547852 15.4050293 Z M227.13452148 15.4050293 C227.13452148 21.0150293 227.13452148 26.6250293 227.13452148 32.4050293 C232.41452148 32.4050293 237.69452148 32.4050293 243.13452148 32.4050293 C243.13452148 26.7950293 243.13452148 21.1850293 243.13452148 15.4050293 C237.85452148 15.4050293 232.57452148 15.4050293 227.13452148 15.4050293 Z M459.13452148 15.4050293 C459.13452148 21.0150293 459.13452148 26.6250293 459.13452148 32.4050293 C464.41452148 32.4050293 469.69452148 32.4050293 475.13452148 32.4050293 C475.13452148 26.7950293 475.13452148 21.1850293 475.13452148 15.4050293 C469.85452148 15.4050293 464.57452148 15.4050293 459.13452148 15.4050293 Z M27.13452148 32.4050293 C26.47452148 35.3750293 25.81452148 38.3450293 25.13452148 41.4050293 C21.04888383 47.22396777 18.82583101 46.6958494 11.13452148 48.4050293 C11.13452148 81.0750293 11.13452148 113.7450293 11.13452148 147.4050293 C14.10452148 148.0650293 17.07452148 148.7250293 20.13452148 149.4050293 C23.33437453 152.0049099 24.8333548 153.50152925 26.13452148 157.4050293 C26.38371234 161.49828991 26.40525431 165.59160687 26.4296875 169.69189453 C26.44687166 171.70002122 26.49077572 173.70786104 26.53491211 175.71557617 C26.54329102 176.99110352 26.55166992 178.26663086 26.56030273 179.58081055 C26.57488525 180.74523682 26.58946777 181.90966309 26.60449219 183.109375 C26.03095168 187.13130918 24.65673653 189.25532385 22.13452148 192.4050293 C19.23359646 194.33897931 18.23777412 194.70634871 14.94702148 195.0300293 C13.68889648 195.1537793 12.43077148 195.2775293 11.13452148 195.4050293 C11.13452148 200.3550293 11.13452148 205.3050293 11.13452148 210.4050293 C21.03452148 210.4050293 30.93452148 210.4050293 41.13452148 210.4050293 C41.14386719 206.44825195 41.15321289 202.49147461 41.1628418 198.41479492 C41.19661485 185.33894453 41.25196516 172.26326007 41.31842422 159.18753815 C41.35819042 151.26003186 41.39059514 143.33262449 41.40551758 135.4050293 C41.41854671 128.49326845 41.44554334 121.58172547 41.48913455 114.67008734 C41.51172129 111.01223791 41.52743386 107.35465692 41.52640533 103.69673157 C41.5255178 99.60765412 41.55582085 95.51936599 41.58862305 91.43041992 C41.58359268 90.22488464 41.57856232 89.01934937 41.57337952 87.77728271 C41.65910653 80.86587964 42.35377831 76.25547397 46.13452148 70.4050293 C50.63752062 66.82100958 54.17370227 65.28027787 59.88097286 65.27918816 C61.35448362 65.27527654 61.35448362 65.27527654 62.85776228 65.27128589 C64.48059648 65.27463197 64.48059648 65.27463197 66.13621521 65.27804565 C67.28343443 65.27648566 68.43065366 65.27492567 69.6126371 65.27331841 C72.80199175 65.27001273 75.99130855 65.27121225 79.18066227 65.27430463 C82.61834806 65.27656172 86.05602862 65.27307755 89.49371338 65.27032471 C96.23041376 65.26587121 102.96710301 65.26684166 109.70380383 65.26973735 C115.17805117 65.27199321 120.65229538 65.2723031 126.12654305 65.27121353 C127.29401577 65.27098368 127.29401577 65.27098368 128.48507379 65.27074919 C130.06608327 65.27042947 131.64709274 65.27010526 133.22810221 65.2697766 C148.06390353 65.26692299 162.89969867 65.27020687 177.73549897 65.27557696 C190.47080449 65.28004402 203.2061009 65.27926965 215.94140625 65.2746582 C230.7215784 65.26930883 245.50174513 65.2671986 260.28191811 65.27027047 C261.85750679 65.27058902 263.43309547 65.27090339 265.00868416 65.27121353 C266.17158492 65.27144494 266.17158492 65.27144494 267.35797862 65.27168103 C272.82640131 65.27254516 278.29482057 65.27108552 283.76324272 65.26873398 C290.42642183 65.26593172 297.08958915 65.26668323 303.7527669 65.27201472 C307.15371239 65.2746461 310.55463822 65.27566631 313.95558357 65.27236557 C317.63902358 65.26964723 321.3224077 65.27304371 325.00584412 65.27804565 C326.08550286 65.27581493 327.16516161 65.27358421 328.27753729 65.27128589 C329.26248554 65.27389364 330.24743379 65.27650139 331.26222897 65.27918816 C332.11269517 65.27935051 332.96316137 65.27951286 333.83939928 65.27968013 C336.06617671 65.40129662 337.99782133 65.78482516 340.13452148 66.4050293 C341.35674371 73.73836263 341.35674371 73.73836263 340.32202148 76.8425293 C339.13452148 78.4050293 339.13452148 78.4050293 337.13452148 79.4050293 C335.60342803 79.50237479 334.06815285 79.53706504 332.53397274 79.54090118 C331.55873998 79.54575893 330.58350721 79.55061667 329.57872194 79.55562162 C328.49965517 79.55591761 327.4205884 79.5562136 326.30882263 79.55651855 C325.16850824 79.56075097 324.02819385 79.56498338 322.85332447 79.56934404 C319.67873062 79.58014348 316.50416306 79.58647426 313.32955515 79.59097886 C309.90962383 79.59691774 306.48971173 79.60858776 303.0697937 79.61961365 C297.14118899 79.63798096 291.21258386 79.65281916 285.28396416 79.66539001 C276.71101214 79.68365974 268.13808759 79.7083245 259.5651573 79.73476392 C245.65575174 79.77757948 231.74633862 79.81669016 217.83691406 79.8527832 C217.00392585 79.85494601 216.17093765 79.85710881 215.31270737 79.85933715 C208.55278774 79.87686109 201.79286766 79.89420613 195.03294754 79.91154003 C189.12255075 79.92670242 183.21215414 79.94193499 177.30175781 79.95727539 C176.4694769 79.95943426 175.63719598 79.96159313 174.77969443 79.96381742 C160.92227327 79.99988312 147.06486593 80.03983219 133.2074638 80.08257818 C124.65168242 80.10878025 116.09590532 80.13142798 107.54010297 80.14956176 C101.68259912 80.16219701 95.82511169 80.17831103 89.96762472 80.19721091 C86.58326603 80.20800292 83.19892334 80.21710909 79.8145504 80.22190666 C76.15408216 80.22790915 72.49368335 80.23993525 68.83323669 80.25354004 C67.21129045 80.25398402 67.21129045 80.25398402 65.55657762 80.25443697 C64.58395261 80.25929471 63.61132759 80.26415246 62.60922909 80.26915741 C61.34012122 80.27233136 61.34012122 80.27233136 60.04537481 80.27556944 C58.12507077 80.19524908 58.12507077 80.19524908 57.13452148 81.4050293 C57.03905218 82.80914247 57.0126362 84.21802739 57.01426697 85.62538147 C57.0128923 86.53548477 57.01151764 87.44558807 57.01010132 88.38327026 C57.01369659 89.38955475 57.01729187 90.39583923 57.02099609 91.43261719 C57.02085007 92.48614883 57.02070404 93.53968048 57.02055359 94.62513733 C57.02125323 98.1260073 57.02904801 101.62682481 57.03686523 105.12768555 C57.03872923 107.54764273 57.04015322 109.96760029 57.04115295 112.38755798 C57.04497957 118.77117954 57.05481107 125.15477851 57.06585693 131.53839111 C57.07606798 138.04666844 57.08064991 144.5549494 57.08569336 151.06323242 C57.09643321 163.84384104 57.11332037 176.62443397 57.13452148 189.4050293 C59.3535659 186.53826171 61.09462346 183.67044938 62.73388672 180.43115234 C69.17132182 167.72435712 77.2898851 156.70042742 87.13452148 146.4050293 C87.75584961 145.72053711 88.37717773 145.03604492 89.01733398 144.33081055 C102.6643329 129.79875522 123.68196064 118.58922271 143.74316406 117.22802734 C155.98853865 116.95867417 167.28162611 116.88538345 179.02514648 120.62768555 C182.30488378 121.44761987 183.981702 121.5745367 187.13452148 120.4050293 C188.94514671 118.82486486 188.94514671 118.82486486 190.44702148 116.7800293 C199.7498193 105.60070145 211.55050229 98.41661815 226.13452148 96.4050293 C242.2943306 95.13581568 257.73026741 97.33732381 270.90014648 107.54956055 C273.40913373 109.75431431 275.79002528 112.02692024 278.13452148 114.4050293 C278.70944336 114.96963867 279.28436523 115.53424805 279.87670898 116.1159668 C288.57645676 125.35663153 291.53827441 137.37066052 294.13452148 149.4050293 C295.08584961 149.29674805 295.08584961 149.29674805 296.05639648 149.1862793 C327.57673282 146.05166021 356.94834146 151.20598012 382.35717773 171.1237793 C393.40303907 180.19661055 401.73670827 189.81841 409.25390625 201.93505859 C410.19095271 203.43972089 411.15965164 204.92459238 412.13452148 206.4050293 C412.46452148 206.4050293 412.79452148 206.4050293 413.13452148 206.4050293 C413.15785051 190.12432627 413.17550067 173.84362863 413.18633366 157.56291294 C413.19149661 150.00401311 413.19853929 142.44512365 413.20996094 134.88623047 C413.21990781 128.30023264 413.22637492 121.71424232 413.22860998 115.12823719 C413.22991708 111.63889858 413.2330029 108.14958145 413.24025154 104.66024971 C413.24826546 100.77121697 413.24851262 96.88220552 413.24804688 92.99316406 C413.25164215 91.82791702 413.25523743 90.66266998 413.25894165 89.46211243 C413.25687965 87.88239655 413.25687965 87.88239655 413.254776 86.27076721 C413.25569779 85.34989602 413.25661959 84.42902483 413.25756931 83.48024845 C413.36556675 81.41473675 413.36556675 81.41473675 412.13452148 80.4050293 C410.67735576 80.29829115 409.21517477 80.2588363 407.75415039 80.24731445 C406.82293365 80.23705231 405.89171692 80.22679016 404.93228149 80.21621704 C403.91878632 80.20891571 402.90529114 80.20161438 401.86108398 80.1940918 C399.73607626 80.16602476 397.61107636 80.13736031 395.48608398 80.1081543 C392.1195496 80.06684713 388.75316147 80.02997958 385.38647461 80.00366211 C382.14853353 79.97612537 378.91126711 79.93025251 375.67358398 79.8815918 C374.66413727 79.87833893 373.65469055 79.87508606 372.61465454 79.87173462 C371.67713348 79.85516815 370.73961243 79.83860168 369.77368164 79.8215332 C368.53577377 79.80940292 368.53577377 79.80940292 367.27285767 79.79702759 C364.64402546 79.31511191 363.75390238 78.49289978 362.13452148 76.4050293 C361.70092773 74.4675293 361.70092773 74.4675293 361.69702148 72.4050293 C361.66801758 71.3840918 361.66801758 71.3840918 361.63842773 70.3425293 C362.35321319 67.55092625 363.71998205 66.89822278 366.13452148 65.4050293 C368.42193604 65.01734924 368.42193604 65.01734924 370.9597168 65.00097656 C372.39205658 64.9819503 372.39205658 64.9819503 373.85333252 64.96253967 C374.87940613 64.96547531 375.90547974 64.96841095 376.96264648 64.97143555 C378.55710602 64.96357277 378.55710602 64.96357277 380.18377686 64.95555115 C382.43313728 64.94912917 384.68253128 64.95047018 386.93188477 64.95898438 C390.35811999 64.96746396 393.78267099 64.93878289 397.20874023 64.90698242 C399.39754182 64.90536944 401.58634634 64.90594979 403.77514648 64.90893555 C404.79312317 64.89770157 405.81109985 64.88646759 406.85992432 64.87489319 C413.05525817 64.93496349 418.03026729 65.68890909 423.13452148 69.4050293 C427.44631661 74.82241292 428.28344132 79.04292465 428.2816925 85.77323914 C428.28536919 86.52969862 428.28904588 87.28615811 428.29283398 88.06554061 C428.30387357 90.60799093 428.30771514 93.15040039 428.31152344 95.69287109 C428.31778792 97.51282379 428.3244347 99.33277521 428.33143616 101.15272522 C428.35248193 107.13655709 428.36283945 113.12038924 428.37280273 119.10424805 C428.37685018 121.16416754 428.3809671 123.2240869 428.38515282 125.28400612 C428.40420611 134.96213335 428.4184365 144.64025294 428.42676479 154.31839532 C428.43653627 165.48924482 428.46285296 176.65989612 428.50326568 187.83067578 C428.53343056 196.46518646 428.54823405 205.09964034 428.5515458 213.73420268 C428.55389599 218.89103886 428.56285242 224.04766333 428.58800697 229.20444298 C428.61129893 234.05785832 428.61551635 238.91092274 428.60524559 243.7643795 C428.60475038 245.54290942 428.61106637 247.32145668 428.62480164 249.09993362 C428.64254629 251.53434081 428.63540259 253.96749207 428.62226868 256.40190125 C428.63872255 257.44945218 428.63872255 257.44945218 428.65550882 258.51816577 C428.58591267 263.88729744 427.01723825 267.9651041 424.13452148 272.4050293 C419.79157656 276.53612325 416.53728705 277.52497418 410.64863586 277.56324768 C409.50860107 277.5730365 408.36856628 277.58282532 407.19398499 277.59291077 C405.94242111 277.59866623 404.69085724 277.60442169 403.40136719 277.61035156 C401.42561203 277.62520096 401.42561203 277.62520096 399.40994263 277.64035034 C395.79661858 277.66739658 392.18328148 277.68840766 388.5699122 277.70835233 C384.79423913 277.73021361 381.0186063 277.75760161 377.2429657 277.78440857 C370.09260382 277.83433353 362.9422196 277.87927309 355.79181403 277.92243093 C347.65160679 277.97180499 339.51143992 278.02672249 331.37127173 278.08211052 C314.62572418 278.19592756 297.88013963 278.30203538 281.13452148 278.4050293 C281.13452148 289.2950293 281.13452148 300.1850293 281.13452148 311.4050293 C334.59452148 311.4050293 388.05452148 311.4050293 443.13452148 311.4050293 C443.79452148 308.1050293 444.45452148 304.8050293 445.13452148 301.4050293 C449.72510509 296.04934843 451.64734931 296.34092582 459.13452148 295.4050293 C459.13452148 262.4050293 459.13452148 229.4050293 459.13452148 195.4050293 C455.83452148 194.7450293 452.53452148 194.0850293 449.13452148 193.4050293 C446.0543291 190.39996355 444.22273242 187.93455354 443.97338867 183.61108398 C443.93608987 180.47191308 443.9033934 177.33299705 443.89428711 174.19360352 C443.88462392 172.17641289 443.85362118 170.16026014 443.82202148 168.14331055 C443.81686523 166.86327148 443.81170898 165.58323242 443.80639648 164.2644043 C443.79705078 163.09361328 443.78770508 161.92282227 443.77807617 160.71655273 C444.17950971 156.98707016 445.20475182 154.60270066 447.13452148 151.4050293 C451.24183986 148.09635616 453.48426384 148.21220896 459.13452148 147.4050293 C459.13452148 114.7350293 459.13452148 82.0650293 459.13452148 48.4050293 C456.16452148 47.7450293 453.19452148 47.0850293 450.13452148 46.4050293 C444.31558301 42.31939165 444.84370138 40.09633882 443.13452148 32.4050293 C382.41452148 32.4050293 321.69452148 32.4050293 259.13452148 32.4050293 C258.47452148 35.3750293 257.81452148 38.3450293 257.13452148 41.4050293 C254.53464088 44.60488234 253.03802153 46.10386261 249.13452148 47.4050293 C244.534561 47.66827164 239.92869346 47.63651931 235.32202148 47.6550293 C234.05036133 47.6756543 232.77870117 47.6962793 231.46850586 47.7175293 C230.2380957 47.72268555 229.00768555 47.7278418 227.73999023 47.7331543 C226.6174585 47.7425 225.49492676 47.7518457 224.33837891 47.76147461 C219.69159903 47.24449689 216.27746142 45.82385129 213.32202148 42.1550293 C212.13452148 39.4050293 212.13452148 39.4050293 211.13452148 32.4050293 C150.41452148 32.4050293 89.69452148 32.4050293 27.13452148 32.4050293 Z M201.34936523 126.8894043 C199.92604465 128.34138725 199.92604465 128.34138725 200.13452148 130.4050293 C202.04748713 131.91228794 202.04748713 131.91228794 204.50952148 133.4675293 C219.98534561 144.03904296 234.20383201 159.20750159 242.13452148 176.4050293 C245.5260994 175.81873902 247.131004 174.72918113 249.57202148 172.3425293 C257.90118693 164.78744986 268.24809103 159.63552557 278.13452148 154.4050293 C278.86278136 143.2383778 274.18212418 133.91161273 267.45874023 125.24487305 C260.58614902 117.60702542 249.91245925 111.86595929 239.63061523 111.16674805 C223.87003027 110.7349512 212.51701292 115.64578622 201.34936523 126.8894043 Z M103.13452148 152.4050293 C102.24249023 153.21584961 101.35045898 154.02666992 100.43139648 154.86206055 C85.11356236 169.47390511 73.9617558 188.43202223 67.13452148 208.4050293 C67.13452148 209.0650293 67.13452148 209.7250293 67.13452148 210.4050293 C68.45170166 210.41961182 69.76888184 210.43419434 71.12597656 210.44921875 C76.00711386 210.50713643 80.88778666 210.58436965 85.76855469 210.66748047 C87.88208484 210.70076057 89.99570454 210.72878282 92.109375 210.75146484 C95.14548954 210.78495402 98.18078123 210.83726694 101.21655273 210.89331055 C102.16351517 210.89970047 103.1104776 210.90609039 104.08613586 210.91267395 C104.96682236 210.93246811 105.84750885 210.95226227 106.75488281 210.97265625 C107.91737297 210.98931084 107.91737297 210.98931084 109.10334778 211.00630188 C111.65025898 211.5062706 112.54693383 212.38942871 114.13452148 214.4050293 C114.60327148 216.3425293 114.60327148 216.3425293 114.63452148 218.4050293 C114.66545898 219.0856543 114.69639648 219.7662793 114.72827148 220.4675293 C114.13452148 222.4050293 114.13452148 222.4050293 112.26675415 224.0020752 C107.66858967 226.06163283 103.4095916 225.8199809 98.42504883 225.78979492 C96.80721245 225.79785408 96.80721245 225.79785408 95.1566925 225.80607605 C92.8180864 225.81585041 90.47944405 225.81879924 88.14081955 225.8157196 C84.44287503 225.81124593 80.7454101 225.82522839 77.04751587 225.84411621 C68.53387826 225.88403648 60.02025156 225.89652308 51.50653839 225.90764618 C43.07647174 225.9189862 34.64663029 225.94192946 26.21666336 225.98503113 C22.56763921 225.99864986 18.91890674 225.99442219 15.26986694 225.98962402 C13.04164247 225.99896009 10.81342128 226.00912776 8.58520508 226.02026367 C7.56591415 226.01411545 6.54662323 226.00796722 5.4964447 226.00163269 C4.56557541 226.00983536 3.63470612 226.01803802 2.67562866 226.02648926 C1.46168962 226.02755802 1.46168962 226.02755802 0.22322655 226.02864838 C-2.40354788 226.50198843 -3.25512316 227.30960746 -4.86547852 229.4050293 C-5.79985638 232.20816289 -5.99149643 233.89262369 -5.99411297 236.78948784 C-5.99733741 237.69109355 -6.00056186 238.59269926 -6.00388402 239.52162635 C-6.00233542 240.51334189 -6.00078681 241.50505743 -5.99919128 242.52682495 C-6.00145684 243.57941691 -6.0037224 244.63200886 -6.00605661 245.71649754 C-6.01241167 249.26096053 -6.01156628 252.80538544 -6.01074219 256.34985352 C-6.01373274 258.88402354 -6.01713502 261.4181931 -6.0209198 263.95236206 C-6.02885387 270.13192726 -6.03197491 276.31147839 -6.03253218 282.4910482 C-6.03300706 287.51334224 -6.03506043 292.53563313 -6.0382328 297.55792618 C-6.04704109 311.79195734 -6.05165192 326.02598097 -6.05090233 340.26001488 C-6.05086237 341.02764991 -6.05082242 341.79528494 -6.05078125 342.58618164 C-6.05074037 343.3547522 -6.05069949 344.12332275 -6.05065737 344.91518332 C-6.05025087 357.37262424 -6.05982097 369.83003493 -6.07391962 382.28746711 C-6.08827636 395.0736787 -6.09519019 407.85987554 -6.09432584 420.6460954 C-6.09399362 427.82658547 -6.09675149 435.00704387 -6.10750389 442.1875267 C-6.11754939 448.93930768 -6.11728071 455.69101055 -6.10998726 462.44279861 C-6.1089384 464.9240402 -6.11132204 467.4052859 -6.11734772 469.88652039 C-6.12502807 473.26751541 -6.12044901 476.64827662 -6.11271667 480.02926636 C-6.11786024 481.01652045 -6.1230038 482.00377455 -6.12830323 483.02094543 C-6.23242842 489.51386587 -6.23242842 489.51386587 -3.86547852 495.4050293 C0.64028761 498.35963046 6.30413649 497.68249504 11.49682617 497.65899658 C12.55112698 497.66211656 13.60542778 497.66523654 14.69167709 497.66845107 C18.2299735 497.6764383 21.76809875 497.6701045 25.30639648 497.66381836 C27.84086203 497.66652789 30.37532678 497.67008861 32.90979004 497.67443848 C39.08241454 497.68262055 45.2549755 497.68141036 51.42760086 497.67561319 C56.44412892 497.67109681 61.46064334 497.6704837 66.47717285 497.67266083 C67.19109499 497.67296729 67.90501712 497.67327376 68.64057326 497.67358951 C70.09088294 497.67422896 71.54119262 497.67487739 72.99150229 497.6755347 C86.59172103 497.68123806 100.19191281 497.67467999 113.79212713 497.66393396 C125.46226167 497.65499844 137.13235642 497.65655048 148.80249023 497.66577148 C162.35397624 497.67647399 175.90543861 497.68068874 189.45692825 497.67454696 C190.90190887 497.67390986 192.34688949 497.67328112 193.79187012 497.67266083 C194.50283207 497.67235228 195.21379402 497.67204373 195.94630027 497.67172582 C200.95692242 497.66999883 205.96752958 497.67291409 210.97814941 497.67761993 C217.72175556 497.68381412 224.46527489 497.67940537 231.20887756 497.66783142 C233.68689346 497.66518224 236.16491567 497.66595431 238.64292908 497.67035675 C242.01944447 497.67580333 245.39571698 497.66898862 248.7722168 497.65899658 C250.25105158 497.66568875 250.25105158 497.66568875 251.75976181 497.67251611 C258.19273354 497.68334413 258.19273354 497.68334413 264.13452148 495.4050293 C265.31006987 493.05393252 265.26186311 491.66544289 265.26594925 489.04432774 C265.26979039 488.1225793 265.27363154 487.20083087 265.27758908 486.25115067 C265.27628936 484.72214321 265.27628936 484.72214321 265.27496338 483.1622467 C265.2779345 482.08459673 265.28090562 481.00694675 265.28396678 479.89664072 C265.29268471 476.26148974 265.29416462 472.62637157 265.2956543 468.99121094 C265.30028022 466.39483062 265.30530457 463.79845098 265.31069946 461.20207214 C265.32429298 454.13196841 265.33030889 447.06187035 265.33471012 439.99175572 C265.33747044 435.57984945 265.34170736 431.16794537 265.34621429 426.75604057 C265.35840756 414.54810378 265.36870724 402.34016875 265.37208939 390.13222599 C265.37230895 389.35060155 265.37252852 388.5689771 265.37275474 387.76366707 C265.37297302 386.98014338 265.37319129 386.19661969 265.37341619 385.38935286 C265.37385966 383.80156076 265.37430622 382.21376866 265.37475586 380.62597656 C265.37497729 379.8383722 265.37519872 379.05076783 265.37542686 378.23929667 C265.37937702 365.47003442 265.3968374 352.70082917 265.42011538 339.93158896 C265.4438048 326.83127511 265.45629011 313.7309899 265.4574573 300.63065428 C265.45837535 293.27134215 265.46416016 285.9121043 265.48227692 278.55281258 C265.49924798 271.63441434 265.50094863 264.71615957 265.49213791 257.79774666 C265.49136367 255.25277326 265.49576073 252.70779249 265.50559616 250.16283798 C265.51819845 246.69998572 265.51250285 243.23764329 265.50201416 239.77479553 C265.51007056 238.75768795 265.51812697 237.74058036 265.52642751 236.69265133 C265.51654274 235.30611706 265.51654274 235.30611706 265.50645828 233.891572 C265.50705537 233.09182597 265.50765246 232.29207994 265.50826764 231.46809918 C265.03911011 228.87836081 264.19855658 227.9917574 262.13452148 226.4050293 C259.82917256 225.95521022 259.82917256 225.95521022 257.21377563 226.02648926 C256.1987648 226.01828659 255.18375397 226.01008392 254.13798523 226.00163269 C253.02518692 226.00778091 251.91238861 226.01392914 250.76586914 226.02026367 C249.00698616 226.01220451 249.00698616 226.01220451 247.21257019 226.00398254 C243.9954768 225.99162512 240.77867957 225.99228533 237.56157732 225.99771309 C234.19394331 225.9994968 230.82641938 225.98208917 227.45883179 225.96594238 C218.8924104 225.92806784 210.32601375 225.91528785 201.75952148 225.9050293 C192.51825414 225.89395619 183.27711788 225.87858471 174.03594053 225.83431673 C170.6839567 225.81897676 167.33220188 225.81005306 163.98018265 225.8157196 C160.24061158 225.82023163 156.50148843 225.80687828 152.76196289 225.78979492 C151.65321304 225.79594315 150.5444632 225.80209137 149.40211487 225.8084259 C139.88640254 225.73195093 139.88640254 225.73195093 136.13452148 222.4050293 C134.92043413 219.32934132 135.00969189 217.82752945 135.94702148 214.6550293 C137.13452148 212.4050293 137.13452148 212.4050293 139.13452148 211.4050293 C140.4899181 211.30195746 141.85012233 211.25861589 143.2093811 211.24681091 C144.06195999 211.23702209 144.91453888 211.22723328 145.79295349 211.21714783 C146.73018753 211.21139236 147.66742157 211.2056369 148.63305664 211.19970703 C149.61845932 211.18980743 150.603862 211.17990784 151.61912537 211.16970825 C154.88725352 211.13803527 158.15539622 211.11331291 161.42358398 211.08862305 C163.68517441 211.06805853 165.94676095 211.04706219 168.20834351 211.02565002 C174.16940163 210.97037751 180.13049473 210.92099109 186.09161377 210.87280273 C192.17105229 210.82262549 198.25043982 210.76691974 204.32983398 210.71166992 C216.26468629 210.60402501 228.19958282 210.50259413 240.13452148 210.4050293 C239.35335476 208.17688105 238.56868022 205.9500721 237.78198242 203.72387695 C237.34529236 202.48368805 236.90860229 201.24349915 236.4586792 199.96572876 C234.75218654 195.37691926 232.7062223 191.08361284 230.38452148 186.7800293 C229.95405518 185.9744458 229.52358887 185.1688623 229.08007812 184.33886719 C215.66916231 159.80011065 195.37551795 141.26619665 168.37670898 133.2956543 C144.77729973 127.62101932 120.60450813 136.50505779 103.13452148 152.4050293 Z M-5.86547852 163.4050293 C-5.86547852 168.6850293 -5.86547852 173.9650293 -5.86547852 179.4050293 C-0.25547852 179.4050293 5.35452148 179.4050293 11.13452148 179.4050293 C11.13452148 174.1250293 11.13452148 168.8450293 11.13452148 163.4050293 C5.52452148 163.4050293 -0.08547852 163.4050293 -5.86547852 163.4050293 Z M260.13452148 183.4050293 C259.19737305 184.11143555 258.26022461 184.8178418 257.29467773 185.5456543 C253.90643081 188.18666733 253.90643081 188.18666733 251.13452148 191.4050293 C251.35942711 195.71374763 252.75574395 199.64709415 254.13452148 203.7175293 C254.48514648 204.76553711 254.83577148 205.81354492 255.19702148 206.89331055 C255.90098709 209.3098948 255.90098709 209.3098948 257.13452148 210.4050293 C258.48705977 210.51157498 259.84185518 210.58994412 261.19702148 210.6550293 C267.68954651 211.3166879 272.12788227 214.2399712 276.50952148 218.9675293 C285.75268981 232.83228179 280.5010293 238.96581855 281.13452148 262.4050293 C324.36452148 262.4050293 367.59452148 262.4050293 412.13452148 262.4050293 C412.13452148 255.2115446 411.72568498 250.08869611 410.07202148 243.3425293 C409.84869141 242.42785889 409.62536133 241.51318848 409.39526367 240.57080078 C402.62051397 214.15618994 385.86033774 189.91947077 362.3527832 175.76367188 C354.27033212 171.1025132 346.14209233 167.84393926 337.13452148 165.4050293 C336.23862305 165.16010742 335.34272461 164.91518555 334.41967773 164.6628418 C307.98462635 158.71597353 281.08997442 167.22105766 260.13452148 183.4050293 Z M459.13452148 163.4050293 C459.13452148 168.6850293 459.13452148 173.9650293 459.13452148 179.4050293 C464.41452148 179.4050293 469.69452148 179.4050293 475.13452148 179.4050293 C475.13452148 174.1250293 475.13452148 168.8450293 475.13452148 163.4050293 C469.85452148 163.4050293 464.57452148 163.4050293 459.13452148 163.4050293 Z M459.13452148 310.4050293 C459.13452148 316.0150293 459.13452148 321.6250293 459.13452148 327.4050293 C464.41452148 327.4050293 469.69452148 327.4050293 475.13452148 327.4050293 C475.13452148 321.7950293 475.13452148 316.1850293 475.13452148 310.4050293 C469.85452148 310.4050293 464.57452148 310.4050293 459.13452148 310.4050293 Z " fill="#000000" transform="translate(20.865478515625,-0.405029296875)"/>
<path d="M0 0 C2.5246509 1.65679533 3.56380317 2.43703304 5 5 C5.76574787 9.25070287 5.68975103 13.46722799 5.65942383 17.77661133 C5.66990753 19.07456635 5.68039124 20.37252136 5.69119263 21.70980835 C5.71931692 25.26122744 5.71687161 28.81204211 5.70889878 32.36353898 C5.70577205 36.07787357 5.73081287 39.79201621 5.75285339 43.50627136 C5.79029586 50.53620888 5.80244148 57.56595296 5.8054778 64.59598035 C5.81016843 72.6008739 5.84309182 80.60557366 5.87837565 88.61038172 C5.95031067 105.07357624 5.98682697 121.53665138 6 138 C6.65268042 137.34639779 7.30536083 136.69279558 7.97781944 136.01938725 C23.83983077 120.13520226 39.7047052 104.25388136 55.57260704 88.37558079 C63.246052 80.69697376 70.91855494 73.01742982 78.58886719 65.33569336 C85.27225744 58.64235355 91.95738808 51.95075784 98.6446377 45.2612738 C102.18726696 41.7173379 105.72900278 38.17251913 109.26865768 34.62561226 C112.59722157 31.29028389 115.92809944 27.95728449 119.26080132 24.626091 C120.48638343 23.40023275 121.71110256 22.17351104 122.93491173 20.9458828 C124.60034667 19.27550397 126.26880177 17.60820257 127.93807983 15.94166565 C128.42640458 15.45042806 128.91472934 14.95919047 129.41785181 14.45306689 C132.24397352 11.63955109 133.77969561 10.13558938 137.8125 9.6875 C141.8794044 10.08621612 143.35296205 10.88583771 146 14 C146.55516471 18.82313897 146.72689165 20.91516382 144.00097656 24.98340607 C143.06805319 25.94965711 142.11283016 26.89469423 141.140625 27.82141113 C140.35658295 28.61570628 140.35658295 28.61570628 139.55670166 29.4260478 C137.80623658 31.1896557 136.02878859 32.923202 134.25 34.65820312 C132.98721399 35.91873181 131.72618843 37.18102621 130.46679688 38.44494629 C127.04657206 41.86746585 123.60224904 45.26476465 120.15307617 48.65807533 C116.55131166 52.20981924 112.97219945 55.78424137 109.390625 59.35632324 C102.60667027 66.11541611 95.80258191 72.85385852 88.99102783 79.58512449 C81.23660963 87.25011424 73.50490369 94.93784097 65.77502441 102.62756443 C49.87516427 118.44381077 33.9469862 134.23128048 18 150 C19.00579495 150.00496522 19.00579495 150.00496522 20.03190899 150.01003075 C36.34860883 150.09125684 52.6652075 150.183348 68.98177624 150.28752708 C76.8723526 150.33764543 84.76291861 150.38408843 92.65356445 150.421875 C99.53117955 150.45481971 106.40871416 150.49466464 113.2862404 150.54279006 C116.92771797 150.56803043 120.56914232 150.58981895 124.21068382 150.60334396 C128.27623431 150.61857309 132.34152891 150.64920734 136.40698242 150.68115234 C138.21743797 150.68439262 138.21743797 150.68439262 140.06446838 150.68769836 C141.72815964 150.70444359 141.72815964 150.70444359 143.42546082 150.7215271 C144.86760594 150.72982324 144.86760594 150.72982324 146.33888531 150.73828697 C149.26985288 151.02653926 151.38243894 151.65465696 154 153 C156.48038907 156.7205836 156.46337203 158.59796571 156 163 C153.84233361 165.92204362 152.64924795 166.88974745 149.03582001 167.50336456 C147.29036266 167.50562672 147.29036266 167.50562672 145.50964355 167.50793457 C144.85976329 167.51417453 144.20988303 167.5204145 143.54030943 167.52684355 C141.36439364 167.54278852 139.18959581 167.53016481 137.01367188 167.51757812 C135.45308275 167.52299863 133.89249874 167.53012089 132.33192444 167.53881836 C128.0942971 167.55706337 123.85705902 167.54997947 119.61942482 167.53730202 C115.18633596 167.52718039 110.75328059 167.53656536 106.32019043 167.54284668 C98.87534598 167.55012554 91.43066021 167.54052917 83.98583984 167.52148438 C75.37653433 167.49971512 66.7676077 167.50676633 58.15831137 167.52879 C50.76881207 167.54693724 43.37942689 167.54950564 35.98991251 167.53903532 C31.57548213 167.53279665 27.16122988 167.53197495 22.74681091 167.54518127 C18.59672227 167.5567294 14.4471225 167.54873343 10.29708672 167.52560425 C8.77329254 167.52031154 7.24945727 167.52184057 5.7256794 167.53065491 C3.64668157 167.54157289 1.56925396 167.52789554 -0.50964355 167.50793457 C-1.67328178 167.50642647 -2.83692001 167.50491837 -4.03582001 167.50336456 C-7 167 -7 167 -9.3734808 165.37390137 C-11.5114904 162.25348083 -11.5055656 160.28135345 -11.5146637 156.50964355 C-11.52160922 155.85976329 -11.52855475 155.20988303 -11.53571075 154.54030943 C-11.5539957 152.36441366 -11.54371347 150.18960639 -11.53344727 148.01367188 C-11.54050501 146.45308109 -11.54924942 144.89249715 -11.55955505 143.33192444 C-11.58207406 139.09431258 -11.57910376 134.85707376 -11.57023358 130.61942482 C-11.56512724 127.08295319 -11.57241328 123.54655188 -11.57970566 120.01008749 C-11.59671227 111.6686092 -11.59313076 103.32731383 -11.57641602 94.98583984 C-11.55948775 86.37647632 -11.575337 77.76761955 -11.6076389 69.15831137 C-11.6343151 61.76880687 -11.64161634 54.37946033 -11.63312382 46.98991251 C-11.62818954 42.5754309 -11.63043718 38.16125436 -11.65091133 33.74681091 C-11.66923812 29.59664618 -11.66334731 25.44721194 -11.63871193 21.29708672 C-11.63369466 19.773288 -11.63721761 18.24943392 -11.64986038 16.7256794 C-11.6657489 14.64639404 -11.65088625 12.56952681 -11.62818909 10.49035645 C-11.62760278 9.32671822 -11.62701647 8.16307999 -11.62641239 6.96417999 C-11 4 -11 4 -8.64823818 1.62950897 C-5.36920801 -0.38813775 -3.78424845 -0.70954659 0 0 Z " fill="#000000" transform="translate(43,242)"/>
<path d="M0 0 C0.8822349 -0.00538554 1.7644698 -0.01077108 2.67343909 -0.01631981 C5.62362707 -0.03060397 8.57336665 -0.02349449 11.52357483 -0.01637268 C13.64115764 -0.02207599 15.75873737 -0.0290401 17.87631226 -0.03717041 C23.62422183 -0.05512095 29.3719789 -0.05392986 35.11990809 -0.04822803 C39.9187294 -0.04513899 44.71752129 -0.05122544 49.51633841 -0.05726677 C60.83713478 -0.07131656 72.1578557 -0.06974684 83.47865295 -0.05836487 C95.15757097 -0.04688231 106.83625939 -0.06096074 118.51514715 -0.08776134 C128.54333646 -0.10991229 138.57145366 -0.1165571 148.5996657 -0.11068493 C154.58861416 -0.10731283 160.57741542 -0.10974741 166.56634331 -0.12693596 C172.19790556 -0.14239329 177.82912744 -0.13846273 183.46067619 -0.11963081 C185.52665135 -0.11594165 187.59265166 -0.1190629 189.65860367 -0.1295166 C192.48072182 -0.14270552 195.30170968 -0.13119742 198.1237793 -0.11352539 C199.34772263 -0.1279329 199.34772263 -0.1279329 200.5963921 -0.14263147 C206.22300842 -0.07022446 209.48461442 1.17056012 214.12538147 4.38768005 C219.39021675 10.40463465 218.73626707 17.57305899 218.64686584 25.20310974 C218.62542796 27.38295242 218.64671646 29.55950068 218.67225647 31.73924255 C218.70610906 45.15256281 218.70610906 45.15256281 214.12538147 50.38768005 C208.64004506 54.1890161 204.72072863 54.96774172 198.13050842 54.89561462 C197.2474191 54.90185459 196.36432978 54.90809455 195.45448017 54.9145236 C192.50726618 54.93042723 189.56088226 54.91785959 186.61366272 54.90525818 C184.49593118 54.91068046 182.37820342 54.91780371 180.26048279 54.92649841 C174.51671461 54.94472196 168.77323407 54.93766808 163.02946091 54.92498207 C157.01626057 54.91484948 151.00308473 54.92424848 144.98988342 54.93052673 C134.89210085 54.93780236 124.79443533 54.92821758 114.69667053 54.90916443 C103.02510733 54.88739594 91.35382362 54.89444737 79.68226719 54.91647005 C69.6582961 54.93462638 59.63440912 54.9371812 49.6104269 54.92671537 C43.62485613 54.92048177 37.63941669 54.91964129 31.65385437 54.93286133 C26.02636771 54.94442247 20.39924115 54.93638886 14.77179337 54.9132843 C12.70743533 54.90799868 10.64304695 54.90950845 8.57870102 54.91833496 C5.75881079 54.92927964 2.94007158 54.91553962 0.12025452 54.89561462 C-0.69502559 54.90453751 -1.51030569 54.9134604 -2.35029125 54.92265368 C-7.9732327 54.84568486 -11.23660565 53.60244202 -15.87461853 50.38768005 C-21.11250758 44.38327066 -20.51897753 37.23937606 -20.45103455 29.62718201 C-20.43716785 27.4578949 -20.47128974 25.29293214 -20.50938416 23.12400818 C-20.5489447 16.43423371 -20.4757902 10.56214398 -16.53453064 4.86595154 C-11.44705378 0.33518637 -6.45934155 -0.04744717 0 0 Z M-3.87461853 16.38768005 C-3.87461853 23.64768005 -3.87461853 30.90768005 -3.87461853 38.38768005 C64.10538147 38.38768005 132.08538147 38.38768005 202.12538147 38.38768005 C202.12538147 31.12768005 202.12538147 23.86768005 202.12538147 16.38768005 C134.14538147 16.38768005 66.16538147 16.38768005 -3.87461853 16.38768005 Z " fill="#000000" transform="translate(51.87461853027344,425.61231994628906)"/>
<path d="M0 0 C1.54710159 0.54221443 1.54710159 0.54221443 3.12545776 1.09538269 C6.48220794 2.27560856 9.83077046 3.47743509 13.1796875 4.6796875 C15.52291813 5.50822489 17.86667455 6.33527666 20.2109375 7.16088867 C24.9353758 8.82697168 29.65684818 10.50106627 34.37597656 12.18212891 C40.278635 14.28284841 46.19056543 16.35543548 52.109375 18.41015625 C59.39869956 20.94082758 66.68069387 23.49119481 73.95651245 26.06044006 C78.85974112 27.78950766 83.77110133 29.49315864 88.68823242 31.18226624 C92.02126898 32.33101444 95.34878514 33.49518727 98.67529297 34.66268921 C100.23452793 35.20626562 101.79600019 35.74347578 103.35986328 36.27359009 C121.52884752 42.44073094 121.52884752 42.44073094 126.5234375 51.1015625 C127.98307923 57.84167282 128.42600684 65.15401884 125.0546875 71.3671875 C121.9297296 75.18304858 118.31599678 77.28180691 113.94921875 79.4140625 C112.89949638 79.93595909 112.89949638 79.93595909 111.8285675 80.46839905 C106.68936387 82.94855781 101.48283579 84.84080902 96.06640625 86.61328125 C80.09777807 92.07749328 68.15842789 97.44685388 60.27589417 113.06306458 C56.61634339 120.85617967 53.59249251 128.90142547 50.71533203 137.01025391 C44.53239115 154.28037379 44.53239115 154.28037379 35.9140625 158.63671875 C29.53305354 160.84643852 24.16240853 161.31722028 17.8515625 158.609375 C10.07004647 154.25749011 7.50915702 146.68622674 4.6015625 138.65625 C4.14393524 137.40465591 4.14393524 137.40465591 3.67706299 136.1277771 C3.0383884 134.37258055 2.40324727 132.6160946 1.77148438 130.85839844 C0.80801256 128.18890028 -0.17747745 125.52821571 -1.1640625 122.8671875 C-1.78522265 121.15153652 -2.4050587 119.43540544 -3.0234375 117.71875 C-3.31712219 116.93408356 -3.61080688 116.14941711 -3.91339111 115.3409729 C-5.71872604 110.22612926 -7.05218563 104.98020977 -5.9453125 99.5546875 C-4.04284945 97.143786 -3.07542005 96.59428545 -0.0703125 95.6796875 C3.87464951 95.52188902 5.10538108 95.91583439 8.0546875 98.5546875 C11.89811126 106.30132162 14.6281548 114.50102002 17.48339844 122.65014648 C18.31190039 125.01275625 19.14776147 127.37267386 19.984375 129.73242188 C20.51345638 131.23422163 21.04211783 132.73616941 21.5703125 134.23828125 C21.82024963 134.94343369 22.07018677 135.64858612 22.32769775 136.37510681 C24.0546875 141.32430873 24.0546875 141.32430873 24.0546875 143.5546875 C26.93599673 143.62614849 26.93599673 143.62614849 30.0546875 142.5546875 C31.68647116 140.08288013 32.77263557 138.02232535 33.89453125 135.328125 C34.22457657 134.58825348 34.55462189 133.84838196 34.89466858 133.08609009 C35.94912805 130.70959639 36.97109448 128.32068066 37.9921875 125.9296875 C38.67427599 124.37405276 39.35850119 122.81935303 40.04492188 121.265625 C41.40045333 118.1910993 42.74962777 115.1139229 44.09326172 112.03417969 C45.95681829 107.77360261 47.82553956 103.51649193 49.74609375 99.28125 C50.26502197 98.12447754 50.7839502 96.96770508 51.31860352 95.77587891 C54.23248199 90.36936609 57.36759385 86.41374015 63.0625 83.765625 C64.03711182 83.30446289 65.01172363 82.84330078 66.01586914 82.36816406 C67.58195923 81.65611816 67.58195923 81.65611816 69.1796875 80.9296875 C70.2617749 80.42405273 71.3438623 79.91841797 72.45874023 79.39746094 C75.98104346 77.76143085 79.5146202 76.15177908 83.0546875 74.5546875 C83.6797821 74.27250366 84.30487671 73.99031982 84.94891357 73.69958496 C93.2962385 69.93623545 101.66642839 66.22596497 110.0546875 62.5546875 C110.0546875 60.9046875 110.0546875 59.2546875 110.0546875 57.5546875 C102.73187548 54.54286938 95.33019929 51.83600417 87.8515625 49.23828125 C86.67910477 48.82877731 85.50664703 48.41927338 84.29866028 47.99736023 C80.46815037 46.6599534 76.63653161 45.3257648 72.8046875 43.9921875 C67.41228856 42.11463405 62.02040327 40.23561042 56.62890625 38.35546875 C55.94507811 38.11711555 55.26124996 37.87876236 54.55669975 37.63318634 C45.08246906 34.32967095 35.62427376 30.98407066 26.17950058 27.59728432 C21.84490621 26.04422891 17.50748253 24.49908068 13.17077637 22.95193481 C10.80813667 22.10606825 8.44703621 21.25588958 6.08752441 20.40133667 C2.81083549 19.21498846 -0.47082193 18.04350971 -3.75390625 16.875 C-4.7188652 16.52088547 -5.68382416 16.16677094 -6.67802429 15.80192566 C-7.56730118 15.48846695 -8.45657806 15.17500824 -9.37280273 14.85205078 C-10.14003159 14.57563751 -10.90726044 14.29922424 -11.69773865 14.01443481 C-14.38558493 13.46462858 -16.31299717 13.86387955 -18.9453125 14.5546875 C-18.34291748 20.77587265 -16.47099005 26.23226535 -14.34765625 32.08984375 C-13.6216157 34.13602191 -12.89570825 36.1822473 -12.16992188 38.22851562 C-11.02510427 41.43120009 -9.87721706 44.6327477 -8.72631836 47.83325195 C-7.61294944 50.93683623 -6.51104455 54.04431468 -5.41015625 57.15234375 C-4.88989113 58.58224388 -4.88989113 58.58224388 -4.3591156 60.04103088 C-2.73312017 64.64517346 -1.33744913 68.59947716 -1.9453125 73.5546875 C-3.4453125 76.4296875 -3.4453125 76.4296875 -5.9453125 78.5546875 C-8.75961363 79.2697968 -11.17749173 79.47369049 -13.9453125 78.5546875 C-18.11368326 74.29696775 -19.65549874 69.49777511 -21.51171875 63.9765625 C-21.83188461 63.05055237 -22.15205048 62.12454224 -22.48191833 61.17047119 C-23.50006323 58.21838049 -24.50406666 55.26170105 -25.5078125 52.3046875 C-26.18593057 50.33171536 -26.86495803 48.35905553 -27.54492188 46.38671875 C-29.35905456 41.11406587 -31.15896 35.836812 -32.9453125 30.5546875 C-33.23079453 29.71917862 -33.51627655 28.88366974 -33.81040955 28.02284241 C-34.21749901 26.82201271 -34.21749901 26.82201271 -34.6328125 25.59692383 C-34.87523682 24.88514481 -35.11766113 24.17336578 -35.36743164 23.4400177 C-37.04829359 17.95622334 -36.66069704 12.45174639 -34.3203125 7.2421875 C-31.67633043 2.61755455 -28.29340876 -0.07558968 -23.6953125 -2.7578125 C-15.28544848 -4.86027851 -7.94269308 -2.89332202 0 0 Z " fill="#000000" transform="translate(384.9453125,346.4453125)"/>
<path d="M0 0 C0.8245166 -0.00619858 1.6490332 -0.01239716 2.49853516 -0.01878357 C4.23664167 -0.02586735 5.97481624 -0.02273288 7.71289062 -0.01000977 C10.36715836 0.00386526 13.0179043 -0.03024175 15.671875 -0.06835938 C17.36458419 -0.06931058 19.05729778 -0.06745166 20.75 -0.0625 C21.53971191 -0.07575821 22.32942383 -0.08901642 23.14306641 -0.10267639 C27.35748466 -0.03170806 28.93914259 0.22472214 32.375 2.91821289 C34.375 5.56640625 34.375 5.56640625 35 8.56640625 C34.14252819 12.68227094 32.67139773 13.98224289 29.375 16.56640625 C26.49197214 17.27395587 23.70725056 17.24496079 20.75 17.1953125 C19.9254834 17.19772446 19.1009668 17.20013641 18.25146484 17.20262146 C16.51329728 17.20164471 14.77509796 17.18829192 13.03710938 17.16333008 C10.38303504 17.12901015 7.73229086 17.14268025 5.078125 17.16210938 C3.38540256 17.15521056 1.69268867 17.14553785 0 17.1328125 C-1.18456787 17.1402523 -1.18456787 17.1402523 -2.39306641 17.14784241 C-6.32355518 17.06421103 -8.22153906 16.82353949 -11.62255859 14.65600586 C-13.77189028 12.41312243 -14.30960775 11.6183231 -14.25 8.56640625 C-14.26289063 7.90640625 -14.27578125 7.24640625 -14.2890625 6.56640625 C-12.09808492 -0.03230271 -5.83027597 -0.03661767 0 0 Z " fill="#000000" transform="translate(235.625,241.43359375)"/>
<path d="M0 0 C0.87269531 -0.0038269 1.74539062 -0.00765381 2.64453125 -0.01159668 C4.48699092 -0.0143149 6.32948924 -0.00695994 8.171875 0.00976562 C10.99045934 0.03117752 13.80649485 0.00996199 16.625 -0.015625 C18.41667229 -0.01298171 20.20834299 -0.00785669 22 0 C22.84175781 -0.00809692 23.68351562 -0.01619385 24.55078125 -0.02453613 C28.36291401 0.03649075 30.37021548 0.07980724 33.53125 2.34570312 C35.6927383 5.5620667 35.54038687 7.74854194 35 11.53125 C32.78136971 14.43842073 31.48055071 15.37106643 28 16.53125 C25.47241252 16.63980454 22.97323018 16.69527072 20.4453125 16.69921875 C19.33746902 16.70421135 19.33746902 16.70421135 18.20724487 16.70930481 C16.64549379 16.71436412 15.08373192 16.71671344 13.52197266 16.71655273 C11.14076774 16.71873555 8.760029 16.73689119 6.37890625 16.75585938 C4.85937658 16.7587943 3.33984471 16.76077843 1.8203125 16.76171875 C1.11182159 16.76890427 0.40333069 16.77608978 -0.32662964 16.78349304 C-4.31315492 16.76520458 -7.47890056 16.46483661 -11 14.53125 C-13.48038907 10.8106664 -13.46337203 8.93328429 -13 4.53125 C-9.63453016 -0.51245547 -5.5319483 -0.05321217 0 0 Z " fill="#000000" transform="translate(235,306.46875)"/>
<path d="M0 0 C1.17443161 -0.00855011 1.17443161 -0.00855011 2.37258911 -0.01727295 C4.02848971 -0.02671345 5.68440901 -0.03325316 7.34033203 -0.03710938 C9.86654616 -0.04681252 12.39194558 -0.07784282 14.91796875 -0.109375 C16.52864101 -0.11590575 18.13931908 -0.12115594 19.75 -0.125 C20.8783577 -0.1435202 20.8783577 -0.1435202 22.0295105 -0.16241455 C26.5341988 -0.14339207 29.43426401 0.4012447 33.0078125 3.203125 C34.43443469 6.05636937 34.31815118 8.03767049 34.0078125 11.203125 C32.55078125 13.86303711 32.55078125 13.86303711 30.0078125 16.203125 C27.00939449 16.9392586 24.08266716 16.88046212 21.0078125 16.83203125 C20.13511719 16.83444321 19.26242188 16.83685516 18.36328125 16.83934021 C16.52078704 16.83836204 14.67826334 16.82497555 12.8359375 16.80004883 C10.01721266 16.76573942 7.20162313 16.77938975 4.3828125 16.79882812 C2.5911325 16.7919295 0.79946059 16.78225696 -0.9921875 16.76953125 C-1.83394531 16.77449112 -2.67570313 16.77945099 -3.54296875 16.78456116 C-7.35341174 16.70794596 -9.36778337 16.65056251 -12.52734375 14.38647461 C-14.66683352 11.1975651 -14.46124314 8.95557009 -13.9921875 5.203125 C-10.79985183 -0.5734824 -5.96991602 0.03354734 0 0 Z " fill="#000000" transform="translate(235.9921875,273.796875)"/>
</svg>
