<svg width="48" height="48" viewBox="0 0 48 48" fill="none" xmlns="http://www.w3.org/2000/svg">
<path d="M42.6153 1.62876C42.8299 2.01424 42.7985 2.38025 42.789 2.81391C42.7885 2.90494 42.788 2.99597 42.7874 3.08976C42.7853 3.38018 42.7806 3.67049 42.7758 3.96089C42.774 4.15791 42.7722 4.35493 42.7707 4.55195C42.7666 5.03466 42.7601 5.51728 42.7524 5.99995C42.8973 5.9975 42.8973 5.9975 43.0452 5.995C43.1732 5.99368 43.3012 5.9924 43.4292 5.99116C43.4927 5.98998 43.5562 5.9888 43.6217 5.98759C44.263 5.98291 44.6338 6.11273 45.0925 6.55036C45.6915 7.19703 45.7974 7.70654 45.781 8.5832C45.7158 9.32027 45.3729 9.70772 44.8241 10.1769C44.3688 10.4906 43.9683 10.5252 43.4262 10.5117C43.3613 10.5108 43.2963 10.51 43.2294 10.5091C43.0704 10.5069 42.9114 10.5035 42.7524 10.4999C42.7524 10.7474 42.7524 10.9949 42.7524 11.2499C42.8445 11.247 42.8445 11.247 42.9384 11.244C43.2202 11.2361 43.5019 11.2313 43.7836 11.2265C43.8802 11.2234 43.9768 11.2202 44.0763 11.217C44.8113 11.2076 45.311 11.3203 45.8689 11.8092C45.9446 11.9007 45.9446 11.9007 46.0219 11.9941C46.0739 12.0549 46.1259 12.1157 46.1794 12.1783C46.426 12.5361 46.5258 12.8619 46.5265 13.2946C46.5271 13.3832 46.5277 13.4719 46.5284 13.5632C46.5279 13.7081 46.5279 13.7081 46.5275 13.856C46.5279 13.9592 46.5283 14.0625 46.5288 14.1688C46.5299 14.5154 46.5298 14.862 46.5296 15.2086C46.5302 15.4569 46.5308 15.7051 46.5315 15.9533C46.5331 16.558 46.5336 17.1628 46.5337 17.7675C46.5338 18.2591 46.5342 18.7507 46.5348 19.2423C46.5364 20.6365 46.5373 22.0306 46.5372 23.4248C46.5372 23.5 46.5372 23.5751 46.5371 23.6525C46.5371 23.7278 46.5371 23.803 46.5371 23.8805C46.537 25.0997 46.5388 26.3189 46.5415 27.5382C46.5442 28.7904 46.5455 30.0426 46.5453 31.2948C46.5452 31.9977 46.5458 32.7006 46.5478 33.4035C46.5495 34.0019 46.5499 34.6004 46.5486 35.1989C46.548 35.5041 46.5482 35.8093 46.5496 36.1145C46.5511 36.4458 46.5502 36.777 46.5488 37.1082C46.5497 37.2042 46.5507 37.3002 46.5517 37.3991C46.545 38.0887 46.4022 38.5926 45.9432 39.1164C45.8822 39.1669 45.8211 39.2174 45.7583 39.2695C45.6975 39.3214 45.6367 39.3734 45.5741 39.4269C45.1223 39.7382 44.7095 39.7768 44.1725 39.7725C44.099 39.7727 44.0254 39.7728 43.9497 39.773C43.7037 39.7733 43.4577 39.7723 43.2117 39.7712C43.0352 39.7712 42.8587 39.7712 42.6822 39.7713C42.2033 39.7714 41.7243 39.7703 41.2453 39.769C40.7447 39.7678 40.2441 39.7677 39.7435 39.7674C38.7956 39.7669 37.8477 39.7653 36.8998 39.7634C35.8206 39.7614 34.7414 39.7603 33.6622 39.7594C31.4423 39.7574 29.2223 39.7541 27.0024 39.7499C27.0024 40.4924 27.0024 41.2349 27.0024 41.9999C27.5237 41.9934 27.5237 41.9934 28.0556 41.9868C28.392 41.9838 28.7283 41.9816 29.0646 41.9793C29.2985 41.9775 29.5324 41.9749 29.7663 41.9717C30.1023 41.9671 30.4383 41.965 30.7744 41.9633C30.8791 41.9614 30.9838 41.9594 31.0916 41.9575C31.1892 41.9574 31.2868 41.9574 31.3873 41.9574C31.4731 41.9565 31.5589 41.9557 31.6472 41.9548C31.9541 42.015 32.0642 42.1293 32.2524 42.3749C32.3 42.5599 32.3 42.5599 32.3009 42.7558C32.3027 42.8666 32.3027 42.8666 32.3045 42.9796C32.3034 43.0979 32.3034 43.0979 32.3022 43.2187C32.3026 43.3005 32.3029 43.3823 32.3033 43.4666C32.3035 43.6393 32.3029 43.8121 32.3013 43.9848C32.2993 44.249 32.3013 44.5131 32.3037 44.7773C32.3034 44.9453 32.3029 45.1132 32.3022 45.2812C32.303 45.3601 32.3037 45.439 32.3045 45.5203C32.3027 45.6311 32.3027 45.6311 32.3009 45.7441C32.3006 45.8087 32.3003 45.8734 32.3 45.94C32.2286 46.2173 32.1001 46.3225 31.8774 46.4999C31.5863 46.5471 31.5863 46.5471 31.2369 46.5476C31.1403 46.5484 31.1403 46.5484 31.0418 46.5493C30.8262 46.5508 30.6106 46.5496 30.395 46.5485C30.2404 46.549 30.0857 46.5496 29.9311 46.5505C29.5112 46.5522 29.0913 46.5515 28.6713 46.5503C28.2321 46.5494 27.7928 46.5502 27.3536 46.5508C26.6159 46.5515 25.8783 46.5506 25.1406 46.5488C24.2875 46.5468 23.4344 46.5475 22.5812 46.5495C21.849 46.5512 21.1169 46.5515 20.3847 46.5505C19.9473 46.5499 19.5099 46.5498 19.0724 46.5511C18.6612 46.5521 18.25 46.5514 17.8388 46.5492C17.6878 46.5487 17.5367 46.5489 17.3857 46.5497C17.1797 46.5507 16.9739 46.5494 16.7679 46.5476C16.5949 46.5473 16.5949 46.5473 16.4185 46.5471C16.073 46.4911 15.9628 46.3991 15.7524 46.1249C15.7048 45.94 15.7048 45.94 15.7039 45.7441C15.7021 45.6333 15.7021 45.6333 15.7003 45.5203C15.7011 45.4414 15.7018 45.3625 15.7026 45.2812C15.7022 45.1994 15.7019 45.1176 15.7015 45.0333C15.7013 44.8605 15.7019 44.6878 15.7035 44.5151C15.7055 44.2508 15.7035 43.9868 15.7011 43.7226C15.7014 43.5546 15.7019 43.3867 15.7026 43.2187C15.7018 43.1398 15.7011 43.0609 15.7003 42.9796C15.7021 42.8688 15.7021 42.8688 15.7039 42.7558C15.7042 42.6911 15.7045 42.6265 15.7048 42.5599C15.7756 42.2848 15.9051 42.1719 16.1274 41.9999C16.3576 41.9548 16.3576 41.9548 16.6175 41.9574C16.7638 41.9574 16.7638 41.9574 16.9132 41.9575C17.0702 41.9604 17.0702 41.9604 17.2304 41.9633C17.3381 41.9639 17.4458 41.9644 17.5567 41.9649C17.9006 41.967 18.2445 41.9717 18.5883 41.9765C18.8215 41.9784 19.0546 41.9801 19.2878 41.9816C19.8594 41.9854 20.4308 41.9928 21.0024 41.9999C21.0024 41.2574 21.0024 40.5149 21.0024 39.7499C20.6684 39.7512 20.6684 39.7512 20.3277 39.7525C18.2308 39.7601 16.134 39.7657 14.0372 39.7694C12.9592 39.7713 11.8811 39.7739 10.8031 39.7782C9.86343 39.782 8.92377 39.7844 7.98409 39.7852C7.48659 39.7857 6.98912 39.7869 6.49162 39.7896C6.02316 39.7921 5.55471 39.7929 5.08623 39.7924C4.91451 39.7925 4.74279 39.7932 4.57107 39.7946C4.33606 39.7965 4.10116 39.7961 3.86614 39.795C3.79866 39.7961 3.73116 39.7972 3.66163 39.7983C3.05952 39.7913 2.58394 39.5833 2.13596 39.1907C2.08544 39.1297 2.03492 39.0687 1.98287 39.0058C1.93091 38.945 1.87895 38.8842 1.82541 38.8216C1.57884 38.4637 1.47903 38.1379 1.47828 37.7053C1.47738 37.5723 1.47738 37.5723 1.47645 37.4367C1.47674 37.3401 1.47703 37.2435 1.47733 37.1439C1.47691 37.0407 1.47649 36.9374 1.47605 36.8311C1.47487 36.4845 1.47502 36.1379 1.47518 35.7913C1.47462 35.543 1.47398 35.2948 1.47327 35.0466C1.47171 34.4419 1.47119 33.8371 1.47108 33.2324C1.47099 32.7408 1.47062 32.2492 1.47002 31.7576C1.46837 30.3634 1.46751 28.9692 1.46765 27.5751C1.46765 27.4999 1.46765 27.4248 1.46766 27.3474C1.46767 27.2345 1.46767 27.2345 1.46768 27.1194C1.46776 25.9002 1.46598 24.6809 1.46333 23.4617C1.46064 22.2095 1.45933 20.9573 1.45949 19.7051C1.45956 19.0022 1.45905 18.2993 1.45703 17.5964C1.45533 16.998 1.45491 16.3995 1.45618 15.801C1.45679 15.4958 1.45661 15.1906 1.45519 14.8854C1.45374 14.5541 1.45461 14.2229 1.45606 13.8917C1.45509 13.7957 1.45413 13.6997 1.45312 13.6008C1.45978 12.9112 1.60264 12.4072 2.06161 11.8835C2.12264 11.833 2.18368 11.7825 2.24655 11.7304C2.30734 11.6785 2.36812 11.6265 2.43075 11.5729C2.8154 11.3079 3.14969 11.2265 3.61362 11.2316C3.70939 11.2322 3.80517 11.2328 3.90384 11.2335C4.05221 11.2358 4.0522 11.2358 4.20357 11.2382C4.3043 11.2391 4.40504 11.2399 4.50882 11.2408C4.75671 11.243 5.00454 11.2461 5.2524 11.2499C5.25157 11.1615 5.25074 11.0731 5.24988 10.982C5.24228 10.1488 5.23667 9.31563 5.23298 8.48242C5.23103 8.05406 5.22837 7.62572 5.22412 7.19737C5.22005 6.78402 5.2178 6.37069 5.21682 5.95732C5.21613 5.79958 5.21478 5.64185 5.21275 5.48412C5.21003 5.26324 5.20966 5.04247 5.20983 4.82157C5.20781 4.72366 5.20781 4.72366 5.20575 4.62377C5.20823 4.33218 5.22796 4.15817 5.40269 3.9207C5.70378 3.69191 5.89163 3.70279 6.26791 3.70233C6.33228 3.70174 6.39665 3.70116 6.46297 3.70056C6.67862 3.69906 6.89418 3.70025 7.10983 3.70143C7.26445 3.70092 7.41906 3.70025 7.57368 3.69943C7.99362 3.69772 8.41352 3.69839 8.83346 3.69958C9.27271 3.70052 9.71197 3.69965 10.1512 3.69906C10.8889 3.69837 11.6265 3.69927 12.3642 3.70106C13.2174 3.7031 14.0704 3.70244 14.9236 3.70037C15.6558 3.69867 16.3879 3.69843 17.1201 3.69941C17.5575 3.7 17.9949 3.70008 18.4324 3.69884C18.8436 3.69775 19.2548 3.6985 19.666 3.70067C19.817 3.70117 19.9681 3.70103 20.1191 3.7002C20.3251 3.69918 20.5309 3.70046 20.7369 3.70233C20.9099 3.70254 20.9099 3.70254 21.0863 3.70276C21.434 3.75912 21.5457 3.84401 21.7524 4.12495C21.7875 4.37068 21.8 4.57642 21.795 4.82157C21.795 4.89112 21.7951 4.96067 21.7951 5.03233C21.7949 5.26165 21.792 5.49086 21.789 5.72016C21.7883 5.87937 21.7878 6.03858 21.7874 6.19779C21.786 6.61641 21.7823 7.03498 21.7782 7.45358C21.7736 7.95605 21.7719 8.45854 21.7697 8.96102C21.7661 9.72403 21.7589 10.4869 21.7524 11.2499C23.2374 11.2499 24.7224 11.2499 26.2524 11.2499C26.2524 11.0024 26.2524 10.7549 26.2524 10.4999C26.1701 10.5029 26.1701 10.5029 26.0862 10.5059C25.837 10.5137 25.5877 10.5186 25.3383 10.5234C25.2521 10.5265 25.1658 10.5297 25.0769 10.5329C24.9518 10.5347 24.9518 10.5347 24.8242 10.5366C24.7476 10.5385 24.671 10.5405 24.5921 10.5425C24.279 10.4804 24.1828 10.3888 24.0024 10.1249C23.9476 9.84352 23.9498 9.5672 23.9526 9.2812C23.9522 9.19938 23.9519 9.11757 23.9515 9.03327C23.9513 8.86054 23.9519 8.68781 23.9535 8.51508C23.9555 8.25084 23.9535 7.98684 23.9511 7.7226C23.9514 7.55463 23.9519 7.38667 23.9526 7.2187C23.9518 7.13978 23.9511 7.06087 23.9503 6.97956C23.9559 6.62706 23.9625 6.43326 24.1651 6.137C24.4102 5.97878 24.5348 5.95591 24.8242 5.96333C24.9493 5.96514 24.9493 5.96514 25.0769 5.96699C25.2063 5.9717 25.2063 5.9717 25.3383 5.97651C25.4699 5.97905 25.4699 5.97905 25.6042 5.98164C25.8204 5.98605 26.0363 5.99221 26.2524 5.99995C26.2481 5.92309 26.2437 5.84623 26.2392 5.76704C26.2358 5.66601 26.2325 5.56498 26.229 5.46089C26.2246 5.36082 26.2203 5.26076 26.2158 5.15766C26.2615 4.80441 26.3527 4.71924 26.6274 4.49995C26.8503 4.46139 26.8503 4.46139 27.1019 4.47257C27.1973 4.4755 27.2928 4.47843 27.3911 4.48144C27.5469 4.48843 27.5469 4.48843 27.7059 4.49555C27.9319 4.50096 28.1579 4.5058 28.384 4.51016C28.5034 4.51263 28.6229 4.51511 28.746 4.51766C31.4794 4.55979 33.7718 4.0619 36.3459 3.11851C37.2789 2.78003 38.2283 2.49224 39.1774 2.20299C39.4754 2.11162 39.7725 2.01804 40.0696 1.92397C40.2512 1.86752 40.4328 1.81114 40.6145 1.75483C40.7359 1.71583 40.7359 1.71583 40.8597 1.67604C41.4393 1.49942 42.0556 1.32576 42.6153 1.62876ZM40.5711 3.48767C40.4899 3.51253 40.4088 3.53739 40.3251 3.56301C40.1926 3.60424 40.1926 3.60424 40.0575 3.64631C39.9649 3.67477 39.8724 3.70322 39.777 3.73254C39.4738 3.82587 39.1707 3.91975 38.8676 4.01362C38.6598 4.07769 38.4519 4.14173 38.244 4.20572C37.8238 4.3351 37.4037 4.46465 36.9836 4.59434C36.1239 4.85957 35.2633 5.12216 34.4028 5.38471C33.9407 5.52587 33.4785 5.66702 33.0024 5.81245C33.0024 7.4212 33.0024 9.02995 33.0024 10.6874C34.3359 11.1022 34.3359 11.1022 35.6697 11.516C36.214 11.6846 36.7582 11.8534 37.3022 12.0228C37.741 12.1594 38.1799 12.2955 38.6189 12.4313C38.7861 12.4831 38.9533 12.5351 39.1204 12.5872C39.355 12.6604 39.5898 12.733 39.8246 12.8054C39.8932 12.827 39.9619 12.8486 40.0326 12.8708C40.0974 12.8906 40.1622 12.9105 40.2289 12.9309C40.2843 12.9481 40.3397 12.9653 40.3968 12.9831C40.6778 13.0509 40.9662 13.0841 41.2524 13.1249C41.2524 9.90745 41.2524 6.68995 41.2524 3.37495C40.9863 3.37495 40.8219 3.41019 40.5711 3.48767ZM6.75241 5.24995C6.75241 8.71495 6.75241 12.1799 6.75241 15.7499C11.2074 15.7499 15.6624 15.7499 20.2524 15.7499C20.2524 12.2849 20.2524 8.81995 20.2524 5.24995C15.7974 5.24995 11.3424 5.24995 6.75241 5.24995ZM27.7524 5.99995C27.7524 7.48495 27.7524 8.96995 27.7524 10.4999C28.9899 10.4999 30.2274 10.4999 31.5024 10.4999C31.5024 9.01495 31.5024 7.52995 31.5024 5.99995C30.2649 5.99995 29.0274 5.99995 27.7524 5.99995ZM25.5024 7.49995C25.5024 7.99495 25.5024 8.48995 25.5024 8.99995C25.7499 8.99995 25.9974 8.99995 26.2524 8.99995C26.2524 8.50495 26.2524 8.00995 26.2524 7.49995C26.0049 7.49995 25.7574 7.49995 25.5024 7.49995ZM42.7524 7.49995C42.7524 7.99495 42.7524 8.48995 42.7524 8.99995C43.4823 9.01535 43.4823 9.01535 44.0649 8.7187C44.1981 8.45237 44.1881 8.26356 44.1586 7.9687C43.9494 7.70172 43.8258 7.60776 43.5024 7.49995C43.2549 7.49995 43.0074 7.49995 42.7524 7.49995ZM28.5024 11.9999C28.5024 13.2374 28.5024 14.4749 28.5024 15.7499C28.7808 15.7499 29.0593 15.7499 29.3462 15.7499C29.4133 15.2913 29.4801 14.8326 29.5464 14.3738C29.569 14.2178 29.5918 14.0619 29.6146 13.906C29.6475 13.6814 29.68 13.4568 29.7124 13.2322C29.7226 13.1629 29.7329 13.0935 29.7434 13.0221C29.7932 12.674 29.8149 12.3536 29.8149 11.9999C29.3818 11.9999 28.9487 11.9999 28.5024 11.9999ZM31.4087 11.9999C31.4008 12.0565 31.393 12.113 31.385 12.1712C31.3036 12.7598 31.2213 13.3484 31.1386 13.9369C31.1078 14.1564 31.0773 14.376 31.0469 14.5957C31.0033 14.9115 30.9588 15.2273 30.9143 15.543C30.8942 15.6901 30.8942 15.6901 30.8737 15.8402C30.854 15.9781 30.854 15.9781 30.8339 16.1188C30.8227 16.1994 30.8114 16.2799 30.7999 16.3629C30.7482 16.6143 30.6753 16.8308 30.5649 17.0624C30.1431 17.2733 29.5663 17.1775 29.097 17.1787C28.8844 17.1796 28.6719 17.1825 28.4594 17.1855C28.3244 17.1861 28.1895 17.1866 28.0545 17.187C27.9315 17.1878 27.8085 17.1887 27.6817 17.1896C27.3774 17.1562 27.3774 17.1562 27.2203 17.0391C27.065 16.8337 27.0593 16.7202 27.0556 16.4644C27.0537 16.3806 27.0519 16.2969 27.05 16.2107C27.0491 16.0792 27.0491 16.0792 27.0482 15.9451C27.0466 15.8643 27.0451 15.7835 27.0435 15.7003C27.038 15.3985 27.035 15.0967 27.0317 14.7949C27.022 14.12 27.0124 13.4452 27.0024 12.7499C25.2699 12.7499 23.5374 12.7499 21.7524 12.7499C21.7327 14.0948 21.7327 14.0948 21.716 15.4397C21.713 15.6082 21.7099 15.7767 21.7066 15.9451C21.706 16.0328 21.7055 16.1204 21.7049 16.2107C21.703 16.2944 21.7011 16.3781 21.6992 16.4644C21.6976 16.5733 21.6976 16.5733 21.696 16.6845C21.6466 16.9364 21.5843 17.0037 21.3774 17.1562C21.0976 17.1916 21.0976 17.1916 20.7475 17.1919C20.6832 17.1923 20.6188 17.1928 20.5525 17.1932C20.3364 17.1944 20.1203 17.1935 19.9041 17.1926C19.7494 17.193 19.5946 17.1935 19.4399 17.1941C19.0192 17.1954 18.5985 17.1949 18.1778 17.194C17.738 17.1933 17.2982 17.1939 16.8584 17.1944C16.1198 17.1949 15.3811 17.1942 14.6425 17.1929C13.7879 17.1913 12.9334 17.1918 12.0788 17.1934C11.3458 17.1947 10.6127 17.1948 9.87969 17.1941C9.44159 17.1937 9.00349 17.1936 8.56538 17.1945C8.15354 17.1953 7.74174 17.1948 7.3299 17.1932C7.17854 17.1928 7.02718 17.1929 6.87582 17.1935C6.66961 17.1943 6.46348 17.1933 6.25727 17.1919C6.08399 17.1918 6.08398 17.1918 5.9072 17.1916C5.6274 17.1562 5.6274 17.1562 5.44975 17.0252C5.31452 16.829 5.30903 16.7018 5.30563 16.4644C5.30377 16.3818 5.30192 16.2992 5.30001 16.2142C5.29941 16.1254 5.29881 16.0366 5.29819 15.9451C5.29567 15.8084 5.29566 15.8084 5.29308 15.6689C5.288 15.3776 5.28484 15.0862 5.28171 14.7949C5.2786 14.5974 5.27536 14.4 5.272 14.2025C5.26402 13.7183 5.25776 13.2342 5.2524 12.7499C5.01406 12.7423 4.77597 12.7368 4.53756 12.7324C4.47073 12.73 4.40391 12.7277 4.33505 12.7252C3.88652 12.7191 3.57053 12.7677 3.1899 13.0312C2.94603 13.4614 2.97672 13.9021 2.97987 14.382C2.9797 14.471 2.97954 14.56 2.97938 14.6517C2.97907 14.9511 2.9801 15.2504 2.98113 15.5497C2.98118 15.7676 2.98116 15.9854 2.98106 16.2032C2.98102 16.7871 2.9821 17.3709 2.98341 17.9548C2.98448 18.5024 2.98453 19.0501 2.98466 19.5978C2.98565 21.1999 2.98827 22.8021 2.99068 24.4042C2.99455 27.9833 2.99842 31.5624 3.0024 35.2499C16.8624 35.2499 30.7224 35.2499 45.0024 35.2499C45.0082 31.6728 45.014 28.0956 45.02 24.4101C45.0225 23.2797 45.0251 22.1493 45.0277 20.9847C45.0287 19.9733 45.0287 19.9733 45.0292 18.9619C45.0295 18.5107 45.0306 18.0595 45.0321 17.6083C45.034 17.033 45.0346 16.4578 45.0342 15.8826C45.0343 15.6713 45.0348 15.4599 45.0359 15.2486C45.0373 14.9635 45.037 14.6784 45.0362 14.3933C45.037 14.3103 45.0379 14.2274 45.0387 14.1419C45.0353 13.6712 44.9848 13.3444 44.7211 12.9374C44.3354 12.6942 43.9152 12.728 43.4731 12.7382C43.4037 12.7391 43.3342 12.7399 43.2627 12.7408C43.0926 12.743 42.9225 12.7463 42.7524 12.7499C42.751 12.8053 42.7497 12.8606 42.7483 12.9176C42.7413 13.1684 42.7322 13.4191 42.7231 13.6699C42.721 13.7569 42.7189 13.844 42.7167 13.9337C42.7134 14.0174 42.71 14.1011 42.7066 14.1873C42.7042 14.2644 42.7017 14.3415 42.6992 14.4209C42.6489 14.6741 42.5774 14.7464 42.3774 14.9062C41.8179 15.0128 41.2702 14.8615 40.7403 14.6899C40.6659 14.6669 40.5915 14.6438 40.5149 14.6201C40.2711 14.5444 40.0279 14.4669 39.7846 14.3895C39.6131 14.3358 39.4416 14.2823 39.27 14.2289C38.819 14.0882 38.3685 13.946 37.9181 13.8036C37.3754 13.6322 36.8321 13.4625 36.289 13.2925C35.8653 13.1599 35.4416 13.0271 35.0182 12.8934C34.6385 12.7737 34.2586 12.6549 33.8783 12.5369C33.7303 12.491 33.5824 12.4447 33.4346 12.3982C33.2191 12.3306 33.0033 12.2642 32.7873 12.1981C32.7238 12.178 32.6604 12.1579 32.5951 12.1371C32.1895 12.0149 31.8311 11.9815 31.4087 11.9999ZM3.0024 36.7499C2.97867 37.4819 2.97867 37.4819 3.28365 38.0624C3.66905 38.2679 4.00921 38.2735 4.44102 38.2738C4.50978 38.2741 4.57853 38.2744 4.64936 38.2747C4.88043 38.2755 5.11147 38.2749 5.34253 38.2744C5.50959 38.2747 5.67665 38.275 5.84371 38.2755C6.30333 38.2764 6.76294 38.2762 7.22256 38.2758C7.71804 38.2756 8.21349 38.2764 8.70896 38.2771C9.67983 38.2783 10.6507 38.2785 11.6216 38.2783C12.4105 38.2781 13.1994 38.2783 13.9883 38.2787C14.1005 38.2787 14.2127 38.2788 14.3283 38.2789C14.5561 38.279 14.784 38.2791 15.0119 38.2792C17.15 38.2802 19.288 38.28 21.4261 38.2794C23.3832 38.279 25.3404 38.28 27.2975 38.2818C29.3059 38.2836 31.3143 38.2844 33.3227 38.284C34.4507 38.2839 35.5788 38.2841 36.7068 38.2854C37.6671 38.2865 38.6273 38.2867 39.5876 38.2855C40.0777 38.285 40.5678 38.2849 41.0579 38.286C41.5064 38.287 41.9548 38.2867 42.4033 38.2854C42.5657 38.2852 42.7282 38.2854 42.8906 38.2861C43.1111 38.2871 43.3315 38.2863 43.552 38.2851C43.6746 38.2851 43.7971 38.2851 43.9234 38.2851C44.2821 38.2468 44.509 38.1571 44.8149 37.9687C45.0756 37.554 45.0024 37.2786 45.0024 36.7499C31.1424 36.7499 17.2824 36.7499 3.0024 36.7499ZM22.5024 39.7499C22.5024 40.4924 22.5024 41.2349 22.5024 41.9999C23.4924 41.9999 24.4824 41.9999 25.5024 41.9999C25.5024 41.2574 25.5024 40.5149 25.5024 39.7499C24.5124 39.7499 23.5224 39.7499 22.5024 39.7499ZM17.2524 43.4999C17.2524 43.9949 17.2524 44.4899 17.2524 44.9999C21.7074 44.9999 26.1624 44.9999 30.7524 44.9999C30.7524 44.5049 30.7524 44.0099 30.7524 43.4999C26.2974 43.4999 21.8424 43.4999 17.2524 43.4999Z" fill="white"/>
<path d="M5.68716 20.2025C5.81128 20.2016 5.81128 20.2016 5.93791 20.2007C6.21574 20.1992 6.4935 20.2004 6.77133 20.2016C6.97028 20.2011 7.16923 20.2004 7.36818 20.1996C7.90898 20.1979 8.44976 20.1985 8.99056 20.1997C9.55593 20.2007 10.1213 20.1998 10.6867 20.1992C11.6362 20.1985 12.5857 20.1994 13.5352 20.2012C14.6338 20.2032 15.7323 20.2026 16.8308 20.2005C17.7731 20.1988 18.7155 20.1986 19.6579 20.1996C20.2211 20.2001 20.7842 20.2002 21.3474 20.199C21.8768 20.1979 22.4062 20.1986 22.9356 20.2008C23.1302 20.2013 23.3248 20.2012 23.5193 20.2003C23.7844 20.1993 24.0494 20.2006 24.3145 20.2025C24.3919 20.2016 24.4694 20.2008 24.5492 20.1999C24.876 20.2044 25.0863 20.2236 25.361 20.4077C25.5336 20.6761 25.548 20.8334 25.5484 21.1517C25.5495 21.259 25.5506 21.3662 25.5516 21.4767C25.5509 21.594 25.5501 21.7113 25.5493 21.8321C25.5498 21.9572 25.5505 22.0822 25.5513 22.2073C25.553 22.5467 25.5524 22.886 25.5512 23.2254C25.5502 23.5805 25.5511 23.9357 25.5517 24.2909C25.5524 24.8873 25.5515 25.4837 25.5497 26.0802C25.5477 26.7697 25.5483 27.4592 25.5504 28.1487C25.5521 28.7408 25.5523 29.3328 25.5514 29.9249C25.5508 30.2785 25.5507 30.6321 25.5519 30.9857C25.553 31.3181 25.5523 31.6505 25.5501 31.9829C25.5494 32.1631 25.5505 32.3433 25.5516 32.5235C25.5506 32.6307 25.5495 32.738 25.5484 32.8485C25.5483 32.9417 25.5482 33.0349 25.548 33.1309C25.5008 33.3751 25.5008 33.3751 25.361 33.5925C25.0236 33.8186 24.707 33.8019 24.3145 33.7977C24.2317 33.7983 24.149 33.7989 24.0637 33.7995C23.7859 33.801 23.5081 33.7998 23.2303 33.7986C23.0314 33.7991 22.8324 33.7998 22.6335 33.8006C22.0927 33.8023 21.5519 33.8016 21.0111 33.8005C20.4457 33.7995 19.8803 33.8004 19.315 33.801C18.3654 33.8017 17.4159 33.8008 16.4664 33.799C15.3679 33.7969 14.2694 33.7976 13.1709 33.7997C12.2285 33.8014 11.2861 33.8016 10.3438 33.8006C9.78058 33.8 9.21741 33.8 8.65422 33.8012C8.12481 33.8023 7.59542 33.8015 7.066 33.7994C6.87145 33.7989 6.67688 33.799 6.48233 33.7998C6.21723 33.8009 5.95225 33.7996 5.68716 33.7977C5.60972 33.7985 5.53227 33.7994 5.45248 33.8002C5.1256 33.7957 4.9153 33.7765 4.64059 33.5925C4.46801 33.324 4.45368 33.1667 4.4532 32.8485C4.45214 32.7412 4.45109 32.634 4.45 32.5235C4.45076 32.4062 4.45152 32.2889 4.4523 32.1681C4.45179 32.043 4.45112 31.9179 4.45031 31.7929C4.4486 31.4535 4.44926 31.1142 4.45045 30.7748C4.4514 30.4196 4.45052 30.0645 4.44993 29.7093C4.44925 29.1129 4.45015 28.5164 4.45193 27.92C4.45397 27.2305 4.45331 26.541 4.45125 25.8514C4.44954 25.2594 4.4493 24.6673 4.45029 24.0753C4.45087 23.7217 4.45095 23.3681 4.44971 23.0145C4.44863 22.6821 4.44938 22.3497 4.45155 22.0173C4.45228 21.8371 4.45116 21.6569 4.45 21.4767C4.45105 21.3695 4.45211 21.2622 4.4532 21.1517C4.45334 21.0585 4.45348 20.9653 4.45363 20.8693C4.50082 20.6251 4.50082 20.6251 4.64059 20.4077C4.97805 20.1816 5.29467 20.1982 5.68716 20.2025ZM8.06332 21.7501C8.4043 22.0229 8.71279 22.2452 9.08285 22.4675C9.16124 22.5148 9.16124 22.5148 9.2412 22.5631C9.35295 22.6304 9.46479 22.6977 9.57671 22.7648C9.87333 22.9427 10.1693 23.1218 10.4653 23.3006C10.5246 23.3364 10.5838 23.3722 10.6449 23.409C11.1633 23.722 11.6793 24.0387 12.1942 24.3575C12.2721 24.4055 12.3501 24.4535 12.4304 24.5029C12.8336 24.752 13.232 25.0066 13.6264 25.2694C13.7077 25.3228 13.789 25.3763 13.8727 25.4313C14.0271 25.5331 14.1805 25.6364 14.3329 25.7412C14.4015 25.7862 14.4701 25.8312 14.5409 25.8777C14.6303 25.9382 14.6303 25.9382 14.7216 25.9999C14.914 26.0846 14.914 26.0846 15.1399 25.9949C15.3558 25.8853 15.5616 25.7717 15.7666 25.6429C15.8413 25.5963 15.916 25.5496 15.993 25.5016C16.0736 25.4508 16.1541 25.4 16.2371 25.3477C16.4145 25.237 16.5919 25.1263 16.7693 25.0156C16.8629 24.9571 16.9565 24.8985 17.0529 24.8382C17.5512 24.5275 18.0514 24.2199 18.5516 23.9122C18.6528 23.8499 18.7539 23.7876 18.8581 23.7233C19.3764 23.4044 19.8955 23.0872 20.4163 22.7725C20.5167 22.7119 20.617 22.6512 20.7203 22.5887C20.9119 22.473 21.1036 22.3576 21.2956 22.2425C21.3803 22.1913 21.465 22.1401 21.5523 22.0874C21.6272 22.0424 21.702 21.9975 21.7791 21.9512C21.8579 21.898 21.8579 21.898 21.9383 21.8438C21.9383 21.8129 21.9383 21.782 21.9383 21.7501C17.3596 21.7501 12.7808 21.7501 8.06332 21.7501ZM6.00082 22.4063C6.00082 25.6548 6.00082 28.9032 6.00082 32.2501C11.9408 32.2501 17.8808 32.2501 24.0008 32.2501C24.0008 29.0016 24.0008 25.7532 24.0008 22.4063C23.1941 22.8673 22.3996 23.3281 21.6161 23.8243C20.8617 24.2989 20.1047 24.7685 19.3426 25.2306C18.5543 25.7086 17.7688 26.1909 16.986 26.6779C16.8368 26.7705 16.6874 26.8627 16.5376 26.9543C16.3815 27.0514 16.2274 27.1515 16.0748 27.2539C15.3136 27.7496 15.3136 27.7496 14.8131 27.7059C14.4226 27.6025 14.1007 27.3878 13.7645 27.17C13.6831 27.1192 13.6017 27.0684 13.5179 27.0161C13.3466 26.9091 13.1757 26.8013 13.0053 26.6929C12.6854 26.4898 12.363 26.2912 12.0403 26.0925C11.7957 25.9418 11.5516 25.7902 11.3076 25.6385C10.6314 25.2186 9.95279 24.8027 9.27454 24.3862C8.74594 24.0611 8.21839 23.7344 7.69271 23.4046C7.58864 23.3394 7.48457 23.2741 7.37734 23.2068C7.17774 23.0814 6.97825 22.9559 6.7789 22.8301C6.69024 22.7744 6.60157 22.7186 6.51022 22.6612C6.43196 22.6119 6.3537 22.5625 6.27308 22.5116C6.11565 22.3984 6.11565 22.3984 6.00082 22.4063Z" fill="white"/>
<path d="M27.9592 18.7022C28.0791 18.7012 28.1989 18.7001 28.3224 18.699C28.4551 18.6997 28.5877 18.7005 28.7204 18.7013C28.8602 18.7008 29 18.7001 29.1399 18.6993C29.5195 18.6976 29.8991 18.6983 30.2788 18.6995C30.676 18.7004 31.0732 18.6995 31.4704 18.699C32.1375 18.6983 32.8045 18.6992 33.4716 18.701C34.2429 18.703 35.0142 18.7023 35.7855 18.7003C36.4477 18.6986 37.1098 18.6983 37.7719 18.6993C38.1674 18.6999 38.5629 18.7 38.9584 18.6987C39.3302 18.6977 39.702 18.6984 40.0738 18.7006C40.2104 18.7011 40.3469 18.7009 40.4834 18.7001C40.6696 18.6991 40.8558 18.7006 41.0421 18.7022C41.1984 18.7024 41.1984 18.7024 41.358 18.7027C41.6885 18.7609 41.7997 18.8604 42.0006 19.1248C42.0432 19.4084 42.0432 19.4084 42.0372 19.7357C42.036 19.8529 42.0348 19.9701 42.0336 20.0909C42.0289 20.274 42.0289 20.274 42.0241 20.4608C42.0224 20.5843 42.0207 20.7078 42.0189 20.835C42.0145 21.14 42.0083 21.4449 42.0006 21.7498C42.0775 21.7455 42.1543 21.7411 42.2335 21.7367C42.3346 21.7333 42.4356 21.7299 42.5397 21.7264C42.6398 21.7221 42.7398 21.7177 42.8429 21.7132C43.1256 21.7498 43.1256 21.7498 43.3278 21.8814C43.5933 22.2553 43.553 22.6084 43.5491 23.0565C43.5498 23.151 43.5505 23.2456 43.5511 23.343C43.5528 23.6557 43.5517 23.9684 43.5504 24.2811C43.5507 24.4983 43.551 24.7154 43.5515 24.9326C43.5521 25.3878 43.5513 25.843 43.5495 26.2982C43.5474 26.8821 43.5486 27.4659 43.5509 28.0497C43.5522 28.4982 43.5518 28.9466 43.5508 29.3951C43.5506 29.6104 43.5509 29.8257 43.5517 30.041C43.5527 30.3418 43.5512 30.6424 43.5491 30.9432C43.5499 31.0324 43.5507 31.1217 43.5514 31.2136C43.5504 31.2956 43.5493 31.3776 43.5482 31.4621C43.5481 31.5332 43.548 31.6043 43.5478 31.6775C43.4792 31.9644 43.3596 32.0741 43.1256 32.2498C42.8697 32.297 42.8697 32.297 42.5705 32.2975C42.457 32.2985 42.3434 32.2996 42.2264 32.3007C42.1009 32.2999 41.9753 32.2992 41.8497 32.2984C41.7173 32.2989 41.5848 32.2995 41.4524 32.3004C41.0929 32.3021 40.7334 32.3014 40.3739 32.3002C39.9977 32.2993 39.6215 32.3001 39.2453 32.3007C38.6136 32.3014 37.9819 32.3005 37.3501 32.2987C36.6197 32.2967 35.8893 32.2974 35.1588 32.2994C34.5318 32.3011 33.9047 32.3014 33.2776 32.3004C32.903 32.2998 32.5285 32.2997 32.154 32.301C31.8018 32.302 31.4497 32.3013 31.0976 32.2991C30.9684 32.2986 30.8391 32.2988 30.7099 32.2996C30.5335 32.3006 30.3571 32.2991 30.1807 32.2975C30.0326 32.2973 30.0326 32.2972 29.8816 32.297C29.5595 32.2376 29.4481 32.1317 29.2506 31.8748C29.2081 31.5913 29.2081 31.5913 29.214 31.264C29.2158 31.0882 29.2158 31.0882 29.2177 30.9088C29.2208 30.7867 29.224 30.6647 29.2272 30.5389C29.2289 30.4154 29.2306 30.2919 29.2323 30.1646C29.2367 29.8596 29.2429 29.5548 29.2506 29.2498C29.1684 29.2528 29.1684 29.2528 29.0845 29.2558C28.8352 29.2636 28.5859 29.2685 28.3366 29.2733C28.2503 29.2764 28.164 29.2796 28.0751 29.2828C27.95 29.2846 27.95 29.2846 27.8224 29.2865C27.7458 29.2884 27.6692 29.2904 27.5903 29.2924C27.2764 29.2302 27.1901 29.1349 27.0006 28.8748C26.9435 28.5648 26.9494 28.2577 26.9521 27.9432C26.9514 27.8487 26.9508 27.7541 26.9501 27.6567C26.9485 27.344 26.9496 27.0313 26.9508 26.7186C26.9506 26.5014 26.9502 26.2843 26.9497 26.0671C26.9492 25.6119 26.95 25.1567 26.9517 24.7015C26.9539 24.1176 26.9526 23.5338 26.9504 22.9499C26.949 22.5015 26.9495 22.053 26.9504 21.6046C26.9507 21.3893 26.9504 21.174 26.9495 20.9587C26.9486 20.6579 26.95 20.3572 26.9521 20.0565C26.9513 19.9673 26.9506 19.878 26.9498 19.7861C26.9509 19.7041 26.9519 19.6221 26.953 19.5376C26.9532 19.4665 26.9533 19.3954 26.9534 19.3222C27.0826 18.782 27.4599 18.7029 27.9592 18.7022ZM28.5006 20.2498C28.5006 22.7248 28.5006 25.1998 28.5006 27.7498C28.7481 27.7498 28.9956 27.7498 29.2506 27.7498C29.2512 27.68 29.2517 27.6102 29.2523 27.5382C29.2577 26.8802 29.2645 26.2222 29.2727 25.5642C29.2769 25.2259 29.2806 24.8876 29.2831 24.5493C29.2855 24.2229 29.2893 23.8965 29.2941 23.5701C29.2964 23.3848 29.2973 23.1996 29.2982 23.0143C29.3001 22.9017 29.3019 22.7891 29.3038 22.6731C29.3054 22.5242 29.3054 22.5242 29.307 22.3722C29.3507 22.0829 29.3974 22.0187 29.6256 21.8436C29.8301 21.8075 29.8301 21.8075 30.0723 21.8062C30.1642 21.805 30.2561 21.8039 30.3508 21.8027C30.4514 21.8028 30.5521 21.8029 30.6558 21.8031C30.815 21.8016 30.815 21.8016 30.9774 21.8002C31.3289 21.7973 31.6805 21.7965 32.032 21.7956C32.2754 21.794 32.5188 21.7923 32.7623 21.7905C33.338 21.7865 33.9137 21.7837 34.4894 21.7816C35.1449 21.779 35.8003 21.7749 36.4558 21.7707C37.804 21.762 39.1523 21.7553 40.5006 21.7498C40.5006 21.2548 40.5006 20.7598 40.5006 20.2498C36.5406 20.2498 32.5806 20.2498 28.5006 20.2498ZM30.7506 23.2498C30.7506 25.7248 30.7506 28.1998 30.7506 30.7498C34.4631 30.7498 38.1756 30.7498 42.0006 30.7498C42.0006 28.2748 42.0006 25.7998 42.0006 23.2498C38.2881 23.2498 34.5756 23.2498 30.7506 23.2498Z" fill="white"/>
<path d="M12.155 7.45596C12.6272 7.54989 13.0433 7.78441 13.4684 8.0028C13.6222 8.07983 13.6222 8.07983 13.7791 8.15842C13.9949 8.26687 14.2103 8.37604 14.4253 8.4859C14.7553 8.6543 15.0864 8.82026 15.4177 8.98589C15.6274 9.09164 15.837 9.19753 16.0465 9.30358C16.1457 9.35339 16.2449 9.40321 16.3471 9.45453C16.4385 9.50143 16.53 9.54834 16.6241 9.59666C16.7047 9.63767 16.7853 9.67868 16.8684 9.72094C17.0638 9.84374 17.0638 9.84374 17.2513 10.125C17.3016 10.653 17.3016 10.653 17.2513 10.875C17.0046 11.1542 16.7632 11.3307 16.4326 11.4991C16.3449 11.5441 16.2573 11.5891 16.167 11.6355C16.0728 11.6828 15.9787 11.7301 15.8817 11.7788C15.7841 11.8282 15.6865 11.8776 15.586 11.9285C15.3798 12.0326 15.1733 12.1363 14.9666 12.2396C14.6514 12.3976 14.3375 12.558 14.0235 12.7185C13.8227 12.8195 13.6218 12.9203 13.4208 13.021C13.3274 13.069 13.234 13.1171 13.1378 13.1666C12.6095 13.4273 12.2174 13.5947 11.6263 13.5C11.3765 13.3072 11.2653 13.1959 11.2037 12.8831C11.2034 12.7918 11.2031 12.7005 11.2028 12.6064C11.2016 12.5026 11.2004 12.3987 11.1992 12.2917C11.2 12.1799 11.2007 12.0682 11.2015 11.9531C11.2012 11.838 11.2008 11.7229 11.2004 11.6043C11.2002 11.3609 11.2009 11.1176 11.2024 10.8743C11.2044 10.5014 11.2025 10.1287 11.2001 9.75585C11.2003 9.51952 11.2008 9.28319 11.2015 9.04686C11.2008 8.93514 11.2 8.82341 11.1992 8.7083C11.2004 8.60443 11.2016 8.50056 11.2028 8.39354C11.2031 8.30224 11.2034 8.21094 11.2037 8.11687C11.3055 7.59974 11.6483 7.4283 12.155 7.45596ZM12.7513 9.56249C12.7513 10.1812 12.7513 10.8 12.7513 11.4375C13.219 11.2841 13.219 11.2841 13.6559 11.0881C13.7133 11.0591 13.7707 11.0301 13.8298 11.0002C13.8877 10.9705 13.9456 10.9408 14.0052 10.9101C14.0653 10.8797 14.1254 10.8492 14.1872 10.8179C14.3338 10.7435 14.4801 10.6687 14.6263 10.5937C14.6263 10.5319 14.6263 10.47 14.6263 10.4062C14.3493 10.265 14.0718 10.1246 13.7943 9.98436C13.7154 9.94412 13.6365 9.90388 13.5552 9.86241C13.4419 9.80531 13.4419 9.80531 13.3263 9.74706C13.2566 9.71171 13.1868 9.67636 13.115 9.63994C12.9423 9.54991 12.9423 9.54991 12.7513 9.56249Z" fill="white"/>
<path d="M35.25 24.75C36.9825 24.75 38.715 24.75 40.5 24.75C40.5 25.245 40.5 25.74 40.5 26.25C38.7675 26.25 37.035 26.25 35.25 26.25C35.25 25.755 35.25 25.26 35.25 24.75Z" fill="white"/>
<path d="M36.75 27.75C37.9875 27.75 39.225 27.75 40.5 27.75C40.5 28.245 40.5 28.74 40.5 29.25C39.2625 29.25 38.025 29.25 36.75 29.25C36.75 28.755 36.75 28.26 36.75 27.75Z" fill="white"/>
<path d="M32.25 27.75C33.24 27.75 34.23 27.75 35.25 27.75C35.25 28.245 35.25 28.74 35.25 29.25C34.26 29.25 33.27 29.25 32.25 29.25C32.25 28.755 32.25 28.26 32.25 27.75Z" fill="white"/>
<path d="M32.25 24.75C32.745 24.75 33.24 24.75 33.75 24.75C33.75 25.245 33.75 25.74 33.75 26.25C33.255 26.25 32.76 26.25 32.25 26.25C32.25 25.755 32.25 25.26 32.25 24.75Z" fill="white"/>
</svg>
