<?xml version="1.0" standalone="no"?>
<!DOCTYPE svg PUBLIC "-//W3C//DTD SVG 20010904//EN"
 "http://www.w3.org/TR/2001/REC-SVG-20010904/DTD/svg10.dtd">
<svg version="1.0" xmlns="http://www.w3.org/2000/svg"
 width="512.000000pt" height="512.000000pt" viewBox="0 0 512.000000 512.000000"
 preserveAspectRatio="xMidYMid meet">

<g transform="translate(0.000000,512.000000) scale(0.100000,-0.100000)"
fill="#000000" stroke="none">
<path d="M2397 4790 c-378 -60 -689 -278 -871 -611 -61 -112 -105 -249 -131
-410 l-5 -36 -143 -6 c-162 -6 -241 -25 -375 -87 -479 -225 -685 -797 -458
-1275 51 -108 145 -235 223 -303 67 -57 180 -132 238 -157 49 -21 175 -65 187
-65 4 0 8 50 8 111 0 107 -1 111 -22 117 -13 3 -63 26 -113 51 -74 36 -106 61
-180 135 -152 152 -219 313 -218 521 1 193 65 360 190 494 76 83 133 127 228
174 115 58 177 70 392 76 192 6 193 6 219 33 24 23 28 37 36 130 23 254 115
458 285 626 124 123 266 203 443 249 138 37 324 36 464 -1 232 -61 432 -202
565 -399 88 -129 142 -295 159 -480 8 -87 13 -102 36 -125 26 -27 27 -27 219
-33 199 -6 264 -17 363 -60 204 -90 368 -282 425 -496 30 -111 30 -270 0 -377
-37 -134 -93 -229 -196 -332 -74 -74 -106 -99 -180 -135 -49 -25 -100 -48
-112 -51 -22 -6 -23 -10 -23 -117 0 -61 4 -111 8 -111 11 0 138 44 187 65 71
31 203 123 268 187 259 259 349 626 240 973 -95 302 -339 539 -650 631 -70 21
-117 27 -230 31 l-143 6 -5 36 c-26 161 -70 298 -131 410 -164 300 -430 505
-759 587 -112 28 -335 40 -438 24z"/>
<path d="M1982 2443 c-504 -202 -564 -228 -577 -254 -13 -24 -15 -129 -15
-703 l0 -675 22 -25 c17 -18 178 -87 576 -246 303 -121 561 -220 572 -220 11
0 269 99 572 220 398 159 559 228 576 246 l22 25 0 674 c0 463 -3 682 -11 698
-6 13 -23 31 -37 39 -39 22 -1107 448 -1123 448 -8 -1 -267 -102 -577 -227z
m971 -154 c208 -84 375 -155 370 -159 -4 -4 -178 -75 -385 -158 l-378 -150
-377 150 c-208 83 -382 154 -386 158 -8 7 736 309 763 310 8 0 185 -68 393
-151z m-921 -486 l418 -167 0 -524 c0 -495 -1 -524 -17 -518 -10 4 -201 80
-425 169 l-408 162 0 523 c0 287 3 522 7 522 5 0 196 -75 425 -167z m1488
-355 l0 -523 -408 -162 c-224 -89 -415 -165 -424 -169 -17 -6 -18 23 -18 518
l0 524 413 166 c226 91 418 167 425 167 9 1 12 -110 12 -521z"/>
</g>
</svg>
