<?xml version="1.0" standalone="no"?>
<!DOCTYPE svg PUBLIC "-//W3C//DTD SVG 20010904//EN"
 "http://www.w3.org/TR/2001/REC-SVG-20010904/DTD/svg10.dtd">
<svg version="1.0" xmlns="http://www.w3.org/2000/svg"
 width="512.000000pt" height="512.000000pt" viewBox="0 0 512.000000 512.000000"
 preserveAspectRatio="xMidYMid meet">

<g transform="translate(0.000000,512.000000) scale(0.100000,-0.100000)"
fill="#000000" stroke="none">
<path d="M1257 4920 c-26 -21 -26 -23 -29 -162 l-3 -141 -51 -17 c-28 -10 -74
-29 -102 -42 l-51 -25 -83 84 c-90 92 -129 118 -162 109 -29 -7 -386 -368
-386 -390 0 -32 28 -71 113 -154 l84 -83 -25 -51 c-13 -28 -32 -74 -42 -102
l-17 -51 -141 -3 c-197 -4 -184 19 -180 -314 3 -231 5 -259 21 -275 15 -15 41
-19 158 -23 l141 -5 27 -70 c15 -38 35 -83 43 -100 l16 -30 -99 -101 c-68 -70
-99 -108 -99 -124 0 -17 51 -75 187 -212 158 -158 192 -188 217 -188 23 0 48
19 127 96 l98 97 53 -25 c29 -14 77 -34 106 -44 l52 -19 0 -137 c0 -193 -26
-178 304 -178 l265 0 20 26 c19 24 21 40 21 160 l0 132 38 13 c20 6 66 25 101
40 l64 29 98 -95 c139 -134 119 -139 346 88 227 227 222 207 88 346 l-95 98
29 64 c15 35 34 81 40 102 l13 37 132 0 c120 0 136 2 160 21 l26 20 0 265 c0
330 15 304 -179 304 l-139 0 -7 27 c-3 15 -22 62 -42 105 l-36 79 96 98 c78
79 97 104 97 127 0 25 -30 59 -188 217 -137 136 -195 187 -212 187 -16 0 -54
-31 -124 -99 l-101 -99 -30 16 c-16 8 -61 28 -100 43 l-70 27 -5 141 c-4 117
-8 143 -23 158 -16 16 -44 18 -275 21 -249 3 -259 2 -285 -18z m443 -253 c0
-156 -2 -153 105 -186 39 -13 111 -43 162 -67 110 -54 103 -56 223 62 l85 84
115 -115 114 -114 -92 -94 c-63 -65 -92 -102 -92 -118 0 -13 17 -57 39 -99 21
-41 51 -112 66 -158 16 -50 35 -88 48 -97 16 -11 51 -15 144 -15 l123 0 0
-165 0 -165 -128 0 c-87 0 -134 -4 -145 -12 -9 -7 -28 -49 -42 -93 -15 -43
-44 -114 -66 -157 -21 -43 -39 -88 -39 -101 0 -14 32 -54 92 -114 l93 -93
-118 -117 -117 -118 -93 93 c-60 60 -100 92 -114 92 -13 0 -58 -18 -101 -39
-43 -22 -114 -51 -157 -66 -44 -14 -86 -33 -92 -42 -9 -11 -13 -58 -13 -145
l0 -128 -165 0 -165 0 0 123 c0 93 -4 128 -15 144 -9 13 -47 32 -97 48 -46 15
-117 45 -158 66 -42 22 -86 39 -99 39 -16 0 -53 -29 -118 -92 l-94 -92 -114
114 -115 115 84 85 c118 120 116 113 62 223 -24 51 -54 124 -67 162 -33 107
-30 105 -186 105 l-133 0 0 164 0 164 136 4 c157 4 150 -1 184 111 12 39 42
110 66 158 27 55 41 95 38 106 -4 10 -47 59 -95 108 l-89 90 118 118 117 117
85 -86 c47 -47 95 -90 107 -95 18 -7 43 1 115 37 51 24 122 53 158 64 107 32
104 27 108 184 l4 136 164 0 164 0 0 -133z"/>
<path d="M1380 4174 c-267 -72 -450 -308 -450 -581 0 -109 14 -172 61 -270 70
-146 199 -259 356 -311 106 -35 255 -37 358 -5 193 61 347 215 408 408 34 110
30 253 -9 365 -17 47 -47 112 -68 143 -78 118 -224 220 -357 252 -80 19 -227
18 -299 -1z m289 -143 c84 -26 137 -60 199 -125 258 -272 106 -716 -266 -777
-139 -23 -284 23 -391 126 -103 98 -146 208 -139 359 3 80 8 101 41 169 58
123 160 211 292 253 62 20 193 17 264 -5z"/>
<path d="M3038 4403 c-23 -25 -23 -75 0 -97 10 -9 58 -30 106 -46 328 -111
647 -342 850 -616 l65 -88 -31 -38 c-158 -200 -19 -498 232 -498 97 0 155 23
221 89 70 71 93 131 87 234 -5 114 -61 202 -163 255 -42 22 -64 27 -137 28
l-87 2 -76 101 c-219 291 -517 513 -867 647 -120 46 -177 53 -200 27z m1319
-939 c53 -40 68 -71 68 -139 0 -49 -5 -70 -21 -91 -70 -94 -201 -99 -270 -9
-63 83 -32 209 61 251 41 20 129 13 162 -12z"/>
<path d="M3301 2854 c-19 -24 -21 -40 -21 -160 l0 -132 -37 -13 c-21 -6 -67
-25 -102 -40 l-64 -29 -98 95 c-139 134 -119 139 -346 -88 -227 -227 -222
-207 -88 -346 l95 -98 -29 -64 c-15 -35 -34 -81 -40 -101 l-13 -38 -132 0
c-120 0 -136 -2 -160 -21 l-26 -20 0 -265 c0 -330 -15 -304 178 -304 l137 0
19 -52 c10 -29 30 -77 44 -106 l25 -53 -97 -98 c-77 -79 -96 -104 -96 -127 0
-25 30 -59 188 -217 137 -136 195 -187 212 -187 16 0 54 31 124 99 l101 99 30
-16 c17 -8 62 -28 100 -43 l70 -27 5 -142 c7 -194 -18 -180 305 -180 326 0
303 -13 307 182 l3 141 51 17 c28 10 74 29 102 42 l51 25 83 -84 c90 -92 129
-118 162 -109 32 8 386 368 386 393 0 27 -44 84 -127 166 l-70 68 25 51 c13
28 32 74 42 102 l17 51 141 3 c197 4 184 -19 180 314 -3 231 -5 259 -21 275
-15 15 -41 19 -158 23 l-141 5 -27 70 c-15 39 -35 84 -43 100 l-16 30 99 101
c68 70 99 108 99 124 0 17 -51 75 -187 212 -158 158 -192 188 -217 188 -23 0
-48 -19 -127 -96 l-98 -97 -65 31 c-35 17 -82 36 -105 43 l-41 12 0 139 c0
193 26 178 -304 178 l-265 0 -20 -26z m449 -237 c0 -93 4 -128 15 -144 9 -13
47 -32 97 -48 46 -15 117 -45 158 -66 42 -22 86 -39 99 -39 16 0 53 29 118 92
l94 92 114 -114 115 -115 -84 -85 c-118 -120 -116 -113 -62 -223 24 -51 54
-123 67 -162 33 -107 30 -105 186 -105 l133 0 0 -164 0 -164 -136 -4 c-157 -4
-150 1 -184 -111 -12 -39 -42 -110 -66 -159 -35 -69 -42 -92 -35 -110 5 -13
48 -61 95 -108 l86 -85 -117 -117 -118 -118 -90 89 c-49 48 -98 91 -108 95
-11 3 -48 -10 -96 -34 -43 -21 -118 -52 -166 -69 -48 -16 -93 -35 -99 -41 -7
-7 -12 -65 -14 -146 l-4 -134 -161 2 -162 3 -3 131 c-3 153 -1 150 -107 184
-38 12 -111 42 -162 67 -110 53 -103 55 -223 -63 l-85 -84 -115 115 -114 114
92 94 c63 65 92 102 92 118 0 13 -17 57 -39 99 -21 41 -51 112 -66 158 -16 50
-35 88 -48 97 -16 11 -51 15 -144 15 l-123 0 0 165 0 165 126 0 c69 0 134 5
144 10 12 7 27 37 40 83 12 39 42 112 66 160 24 49 44 98 44 110 0 14 -33 55
-92 114 l-93 93 118 117 117 118 93 -93 c60 -60 100 -92 114 -92 13 0 58 18
101 39 43 22 114 51 157 66 44 14 86 33 93 42 8 11 12 58 12 145 l0 128 165 0
165 0 0 -123z"/>
<path d="M3483 2129 c-166 -28 -326 -139 -416 -291 -205 -346 -16 -793 378
-893 76 -19 214 -19 290 0 191 50 345 187 416 370 25 64 33 100 37 177 9 191
-46 337 -177 468 -142 142 -330 202 -528 169z m188 -139 c83 -16 174 -63 238
-125 103 -98 146 -208 139 -359 -3 -80 -8 -101 -41 -169 -48 -103 -121 -176
-224 -224 -68 -33 -89 -38 -169 -41 -145 -7 -239 27 -343 124 -112 103 -167
262 -143 407 45 261 289 435 543 387z"/>
<path d="M740 2083 c-63 -23 -151 -113 -173 -177 -53 -154 11 -312 156 -388
33 -18 61 -23 129 -24 l87 -2 78 -103 c130 -173 312 -342 498 -462 159 -102
445 -227 522 -227 53 0 84 78 45 114 -10 9 -58 30 -106 46 -342 115 -684 372
-884 662 l-30 44 29 34 c163 197 19 502 -236 499 -38 0 -90 -8 -115 -16z m213
-156 c92 -70 88 -200 -7 -271 -21 -16 -42 -21 -91 -21 -68 0 -99 15 -137 66
-57 76 -22 205 67 245 47 22 127 13 168 -19z"/>
</g>
</svg>
