<svg width="512" height="512" viewBox="0 0 512 512" fill="none" xmlns="http://www.w3.org/2000/svg">
<g clip-path="url(#clip0_3659_675)">
<path d="M256 0C205.368 0 155.873 15.0141 113.774 43.1438C71.6751 71.2734 38.863 111.255 19.487 158.033C0.110921 204.811 -4.95873 256.284 4.91908 305.943C14.7969 355.602 39.1785 401.217 74.9808 437.019C110.783 472.822 156.398 497.203 206.057 507.081C255.716 516.959 307.189 511.889 353.967 492.513C400.745 473.137 440.727 440.325 468.856 398.226C496.986 356.127 512 306.632 512 256C511.927 188.127 484.932 123.055 436.938 75.0618C388.945 27.0683 323.873 0.0734097 256 0ZM256 469.333C213.807 469.333 172.561 456.822 137.478 433.38C102.396 409.939 75.0525 376.621 58.9058 337.639C42.7591 298.658 38.5344 255.763 46.7659 214.381C54.9974 172.998 75.3155 134.986 105.151 105.151C134.986 75.3154 172.998 54.9973 214.381 46.7658C255.763 38.5343 298.658 42.759 337.639 58.9057C376.621 75.0524 409.939 102.396 433.38 137.478C456.822 172.561 469.333 213.807 469.333 256C469.271 312.56 446.775 366.787 406.781 406.781C366.787 446.775 312.561 469.271 256 469.333Z" fill="#024D81"/>
<path d="M255.996 128C250.338 128 244.912 130.248 240.911 134.248C236.911 138.249 234.663 143.675 234.663 149.333V241.6L162.748 286.656C157.939 289.66 154.52 294.452 153.244 299.977C151.968 305.502 152.939 311.308 155.943 316.117C158.947 320.927 163.739 324.345 169.264 325.622C174.789 326.898 180.595 325.927 185.404 322.923L267.324 271.723C270.419 269.783 272.965 267.082 274.717 263.877C276.469 260.672 277.368 257.071 277.33 253.419V149.333C277.33 143.675 275.082 138.249 271.081 134.248C267.08 130.248 261.654 128 255.996 128Z" fill="#024D81"/>
</g>
<defs>
<clipPath id="clip0_3659_675">
<rect width="512" height="512" fill="white"/>
</clipPath>
</defs>
</svg>
