<svg width="90" height="90" viewBox="0 0 90 90" fill="none" xmlns="http://www.w3.org/2000/svg">
<path d="M27.1776 11.0354C27.3771 11.0341 27.3771 11.0341 27.5806 11.0328C27.7258 11.0332 27.8709 11.0336 28.0205 11.0341C28.2529 11.0332 28.2529 11.0332 28.49 11.0322C28.9196 11.0309 29.3492 11.0307 29.7788 11.031C30.2423 11.031 30.7058 11.0296 31.1693 11.0283C32.0773 11.0261 32.9852 11.0254 33.8932 11.0253C34.6313 11.0251 35.3694 11.0246 36.1074 11.0238C38.2003 11.0214 40.2932 11.0202 42.3862 11.0204C42.499 11.0204 42.6118 11.0204 42.728 11.0205C42.841 11.0205 42.9539 11.0205 43.0703 11.0205C44.9009 11.0206 46.7314 11.0181 48.5619 11.0143C50.4417 11.0106 52.3216 11.0087 54.2015 11.009C55.2567 11.0091 56.312 11.0083 57.3673 11.0055C58.2658 11.0031 59.1643 11.0025 60.0628 11.0043C60.5211 11.0052 60.9794 11.0052 61.4376 11.0029C61.9349 11.0009 62.432 11.0021 62.9293 11.0041C63.0735 11.0028 63.2178 11.0014 63.3665 11C64.3735 11.0091 65.026 11.1998 65.8402 11.818C66.6408 12.6341 66.9961 13.486 67 14.6307C66.9259 15.562 66.5587 16.3054 65.9448 17.0049C65.0874 17.733 64.1769 17.9429 63.0744 17.9339C62.9447 17.9331 62.815 17.9323 62.6814 17.9314C62.5339 17.9298 62.5339 17.9298 62.3834 17.9282C62.3862 18.0334 62.389 18.1387 62.3918 18.2471C62.5941 27.1993 59.3442 34.7463 53.2187 41.1615C52.0196 42.4188 51.2618 43.4174 51.3037 45.2319C51.5051 46.4837 52.017 47.3047 52.9277 48.1832C53.4329 48.6771 53.9169 49.1796 54.3745 49.7181C54.5324 49.9008 54.695 50.0795 54.8609 50.255C56.302 51.7875 57.516 53.5648 58.5583 55.3883C58.6044 55.4682 58.6506 55.548 58.6981 55.6303C60.618 58.9836 61.7018 62.6603 62.2515 66.4681C62.2656 66.5597 62.2797 66.6514 62.2942 66.7458C62.4295 67.7495 62.3978 68.7633 62.3917 69.7739C62.391 69.9655 62.3904 70.1571 62.3899 70.3486C62.3884 70.8138 62.3862 71.279 62.3834 71.7442C62.4801 71.7424 62.5768 71.7405 62.6765 71.7387C62.8049 71.7373 62.9333 71.7358 63.0656 71.7344C63.1922 71.7326 63.3189 71.7308 63.4493 71.7289C64.4333 71.768 65.3668 72.1076 66.0767 72.7994C66.7451 73.5638 66.9486 74.4378 67 75.4374C66.9102 76.6384 66.3079 77.3645 65.4301 78.1394C64.9175 78.5097 64.4497 78.636 63.8224 78.637C63.6894 78.6379 63.5564 78.6387 63.4194 78.6396C63.2742 78.6392 63.1291 78.6388 62.9795 78.6383C62.8246 78.6389 62.6696 78.6395 62.51 78.6402C62.0804 78.6415 61.6508 78.6417 61.2212 78.6414C60.7577 78.6414 60.2942 78.6428 59.8307 78.6441C58.9227 78.6463 58.0148 78.647 57.1068 78.6471C56.3687 78.6473 55.6306 78.6478 54.8926 78.6486C52.7997 78.651 50.7068 78.6522 48.6138 78.652C48.501 78.652 48.3882 78.652 48.272 78.652C48.159 78.6519 48.0461 78.6519 47.9297 78.6519C46.0991 78.6518 44.2686 78.6543 42.4381 78.6581C40.5583 78.6618 38.6784 78.6637 36.7985 78.6634C35.7433 78.6634 34.688 78.6641 33.6327 78.6669C32.7342 78.6693 31.8357 78.6699 30.9372 78.6681C30.4789 78.6672 30.0206 78.6672 29.5624 78.6695C29.0651 78.6715 28.568 78.6703 28.0708 78.6683C27.9265 78.6697 27.7822 78.671 27.6335 78.6724C26.6265 78.6633 25.974 78.4726 25.1598 77.8544C24.3592 77.0383 24.0039 76.1864 24 75.0417C24.0741 74.1104 24.4413 73.367 25.0552 72.6675C25.9126 71.9394 26.8231 71.7295 27.9256 71.7385C28.0553 71.7393 28.185 71.7401 28.3186 71.741C28.4169 71.742 28.5153 71.7431 28.6166 71.7442C28.6138 71.639 28.611 71.5337 28.6082 71.4253C28.4104 62.6707 31.5068 55.1174 37.5035 48.8097C37.5913 48.7188 37.6792 48.6278 37.7697 48.5341C38.8227 47.435 39.6715 46.4453 39.704 44.8537C39.6032 43.304 39.0431 42.5052 37.9816 41.4068C33.0088 36.2108 29.7851 30.3848 28.7485 23.2043C28.7344 23.1127 28.7203 23.021 28.7058 22.9266C28.5705 21.9229 28.6022 20.9091 28.6083 19.8985C28.609 19.7069 28.6096 19.5153 28.6101 19.3238C28.6116 18.8586 28.6138 18.3934 28.6166 17.9282C28.4715 17.931 28.4715 17.931 28.3235 17.9337C28.1951 17.9351 28.0667 17.9366 27.9344 17.938C27.8078 17.9398 27.6811 17.9417 27.5507 17.9435C26.5667 17.9044 25.6332 17.5648 24.9233 16.873C24.2549 16.1086 24.0514 15.2346 24 14.235C24.0898 13.0341 24.6921 12.3079 25.5699 11.5331C26.0825 11.1627 26.5503 11.0364 27.1776 11.0354ZM26.6827 13.6827C26.4211 14.1101 26.4361 14.4042 26.5061 14.8945C26.7988 15.2779 26.9704 15.401 27.4294 15.554C27.6328 15.5662 27.8366 15.571 28.0404 15.5713C28.1666 15.5718 28.2927 15.5723 28.4228 15.5729C28.5617 15.5728 28.7006 15.5726 28.8438 15.5725C28.9911 15.5729 29.1385 15.5733 29.2903 15.5737C29.7867 15.5749 30.2831 15.5751 30.7795 15.5753C31.1343 15.5759 31.4891 15.5765 31.844 15.5772C32.8098 15.579 33.7756 15.5798 34.7414 15.5804C35.3444 15.5808 35.9474 15.5813 36.5503 15.5819C38.2194 15.5835 39.8885 15.5849 41.5576 15.5853C41.6644 15.5854 41.7713 15.5854 41.8814 15.5854C41.9884 15.5854 42.0956 15.5855 42.2059 15.5855C42.4229 15.5856 42.6399 15.5856 42.857 15.5857C42.9646 15.5857 43.0723 15.5857 43.1832 15.5858C44.9278 15.5863 46.6723 15.5886 48.4169 15.5917C50.2076 15.5948 51.9983 15.5964 53.789 15.5966C54.7946 15.5967 55.8002 15.5975 56.8058 15.5999C57.662 15.6019 58.5183 15.6026 59.3745 15.6015C59.8114 15.601 60.2482 15.6013 60.6851 15.6029C61.1588 15.6046 61.6323 15.6038 62.106 15.6025C62.3131 15.6041 62.3131 15.6041 62.5243 15.6057C63.2331 15.6008 63.7546 15.5691 64.362 15.1583C64.5659 14.7505 64.5326 14.4204 64.4939 13.9712C64.3289 13.6525 64.3289 13.6525 63.9663 13.4436C63.4797 13.3632 62.9965 13.3725 62.5043 13.3766C62.3534 13.3757 62.2025 13.3749 62.047 13.3741C61.6281 13.3723 61.2093 13.373 60.7904 13.3746C60.3386 13.3758 59.8869 13.3739 59.4352 13.3725C58.5502 13.3701 57.6653 13.3707 56.7803 13.3722C56.0612 13.3734 55.3421 13.3735 54.623 13.373C54.5208 13.3729 54.4185 13.3728 54.3131 13.3727C54.1053 13.3726 53.8976 13.3724 53.6898 13.3722C51.7408 13.3707 49.7918 13.3724 47.8428 13.3753C46.1698 13.3776 44.4968 13.3772 42.8238 13.3748C40.8819 13.372 38.9399 13.3708 36.998 13.3725C36.791 13.3726 36.584 13.3728 36.377 13.373C36.2751 13.373 36.1733 13.3731 36.0683 13.3732C35.3499 13.3737 34.6315 13.3729 33.9132 13.3717C33.0379 13.3702 32.1626 13.3706 31.2874 13.3734C30.8406 13.3748 30.3939 13.3753 29.9472 13.3736C29.4633 13.3721 28.9796 13.3739 28.4957 13.3766C28.3539 13.3754 28.2121 13.3742 28.066 13.373C27.3293 13.3707 27.3293 13.3707 26.6827 13.6827ZM30.9908 17.9282C30.9908 25.8845 33.1397 32.6892 38.6411 38.5049C38.8506 38.7379 39.0595 38.9714 39.2676 39.2056C39.604 39.5827 39.9464 39.9399 40.3146 40.2856C41.5929 41.5491 42.01 43.1005 42.0706 44.8439C42.0706 46.7865 41.2726 48.42 39.914 49.7823C39.705 49.9881 39.4952 50.1931 39.2852 50.3977C38.9099 50.7638 38.5592 51.1442 38.2207 51.5446C38.0401 51.7579 37.8552 51.9675 37.6683 52.1753C32.7237 57.7325 30.9908 64.4627 30.9908 71.7442C40.5669 71.7442 50.1429 71.7442 60.0092 71.7442C60.0092 63.7879 57.8603 56.9832 52.3589 51.1675C52.1494 50.9345 51.9405 50.701 51.7324 50.4668C51.396 50.0897 51.0536 49.7325 50.6854 49.3868C49.4071 48.1233 48.99 46.5719 48.9294 44.8285C48.9294 42.8859 49.7274 41.2524 51.086 39.8901C51.295 39.6843 51.5048 39.4793 51.7148 39.2747C52.0901 38.9086 52.4408 38.5282 52.7793 38.1278C52.9599 37.9145 53.1448 37.7049 53.3317 37.4971C58.2763 31.9399 60.0092 25.2097 60.0092 17.9282C50.4331 17.9282 40.8571 17.9282 30.9908 17.9282ZM26.638 74.5141C26.4341 74.9219 26.4674 75.252 26.5061 75.7012C26.6711 76.0199 26.6711 76.0199 27.0337 76.2288C27.5203 76.3092 28.0035 76.2999 28.4957 76.2958C28.6466 76.2967 28.7975 76.2975 28.953 76.2983C29.3719 76.3001 29.7907 76.2994 30.2096 76.2978C30.6614 76.2966 31.1131 76.2985 31.5648 76.2999C32.4498 76.3023 33.3347 76.3017 34.2197 76.3002C34.9388 76.299 35.6579 76.2989 36.377 76.2994C36.4792 76.2995 36.5815 76.2996 36.6869 76.2997C36.8947 76.2999 37.1024 76.3 37.3102 76.3002C39.2592 76.3017 41.2082 76.3 43.1572 76.2971C44.8302 76.2948 46.5032 76.2952 48.1762 76.2976C50.1181 76.3004 52.0601 76.3016 54.002 76.2999C54.209 76.2998 54.416 76.2996 54.623 76.2994C54.7249 76.2994 54.8267 76.2993 54.9317 76.2992C55.6501 76.2987 56.3685 76.2995 57.0869 76.3007C57.9621 76.3022 58.8374 76.3018 59.7126 76.299C60.1594 76.2976 60.6061 76.2971 61.0528 76.2988C61.5367 76.3003 62.0204 76.2985 62.5043 76.2958C62.717 76.2976 62.717 76.2976 62.934 76.2994C63.6707 76.3017 63.6707 76.3017 64.3173 75.9897C64.5789 75.5623 64.5639 75.2682 64.4939 74.7779C64.2012 74.3945 64.0296 74.2714 63.5706 74.1184C63.3672 74.1062 63.1634 74.1014 62.9596 74.1011C62.8335 74.1006 62.7073 74.1001 62.5772 74.0995C62.3688 74.0997 62.3688 74.0997 62.1562 74.0999C62.0089 74.0995 61.8615 74.0991 61.7097 74.0987C61.2133 74.0975 60.7169 74.0974 60.2205 74.0972C59.8657 74.0965 59.5109 74.0959 59.156 74.0952C58.1902 74.0934 57.2244 74.0926 56.2586 74.092C55.6556 74.0916 55.0526 74.0911 54.4497 74.0905C52.7806 74.0889 51.1115 74.0875 49.4424 74.0871C49.3356 74.087 49.2287 74.087 49.1187 74.087C49.0116 74.087 48.9045 74.0869 48.7941 74.0869C48.5771 74.0868 48.3601 74.0868 48.143 74.0867C48.0354 74.0867 47.9277 74.0867 47.8168 74.0866C46.0722 74.0861 44.3277 74.0838 42.5831 74.0807C40.7924 74.0776 39.0017 74.076 37.211 74.0758C36.2054 74.0757 35.1998 74.0749 34.1942 74.0725C33.338 74.0705 32.4817 74.0698 31.6255 74.0709C31.1886 74.0714 30.7518 74.0711 30.3149 74.0695C29.8412 74.0678 29.3677 74.0686 28.894 74.0699C28.756 74.0689 28.6179 74.0678 28.4757 74.0667C27.7669 74.0716 27.2454 74.1033 26.638 74.5141Z" fill="#024D81"/>
<path d="M43.5244 58.2378C43.6823 58.2374 43.8403 58.237 44.003 58.2366C44.3347 58.2364 44.6663 58.2371 44.9979 58.2387C45.5016 58.2409 46.005 58.2388 46.5086 58.2362C46.8329 58.2365 47.1572 58.237 47.4814 58.2378C47.6298 58.237 47.7783 58.2362 47.9312 58.2354C50.2311 58.2555 52.1923 59.0474 53.8204 60.663C53.95 60.7952 54.0793 60.9277 54.2084 61.0603C54.3089 61.1609 54.3089 61.1609 54.4115 61.2635C56.0575 62.9167 57.2766 64.6979 57.745 67.0123C57.763 67.099 57.781 67.1857 57.7996 67.2751C57.9194 67.9325 57.9117 68.4592 57.7698 69.1063C57.5586 69.3969 57.5586 69.3969 57.2421 69.6339C56.812 69.7003 56.812 69.7003 56.2909 69.7009C56.195 69.7017 56.099 69.7025 56.0001 69.7034C55.6785 69.7055 55.357 69.7038 55.0354 69.7022C54.8048 69.7029 54.5743 69.7038 54.3438 69.705C53.7175 69.7074 53.0913 69.7064 52.465 69.7048C51.8101 69.7034 51.1551 69.7047 50.5001 69.7055C49.4001 69.7065 48.3002 69.7052 47.2002 69.7027C45.928 69.6998 44.6558 69.7007 43.3835 69.7036C42.2918 69.706 41.2001 69.7064 40.1083 69.705C39.456 69.7042 38.8037 69.7041 38.1514 69.7058C37.5382 69.7073 36.925 69.7063 36.3118 69.7032C36.0866 69.7025 35.8613 69.7027 35.6361 69.7039C35.3289 69.7053 35.022 69.7035 34.7149 69.7009C34.4569 69.7006 34.4569 69.7006 34.1937 69.7003C33.7636 69.6339 33.7636 69.6339 33.4471 69.3969C33.0355 68.8302 33.0886 68.2079 33.1546 67.542C33.5701 65.364 34.4006 63.4662 36.0492 61.931C36.2899 61.7005 36.5004 61.4553 36.7149 61.2004C38.5505 59.1015 40.7543 58.2228 43.5244 58.2378ZM37.3683 63.9843C36.6259 64.8873 35.7422 66.039 35.7422 67.2597C42.1842 67.2597 48.6263 67.2597 55.2636 67.2597C54.9243 65.7328 54.3695 64.8737 53.3139 63.7478C53.0539 63.4694 52.8107 63.1836 52.5679 62.8904C51.5318 61.7111 50.3542 60.9374 48.8004 60.6646C48.583 60.6513 48.3652 60.6438 48.1474 60.6412C47.9577 60.6387 47.9577 60.6387 47.7642 60.6361C47.6287 60.6351 47.4932 60.6341 47.3536 60.6331C47.1416 60.6315 47.1416 60.6315 46.9252 60.6299C46.6258 60.6281 46.3265 60.6267 46.0271 60.6256C45.7235 60.6241 45.4198 60.6214 45.1162 60.6175C41.606 60.5724 39.7453 61.3119 37.3683 63.9843Z" fill="#024D81"/>
<path d="M44.1668 27.0871C46.6528 28.5748 49.5469 28.7961 52.3789 28.9062C54.3343 28.995 54.3343 28.995 54.9946 29.654C55.271 30.1831 55.2286 30.672 55.1394 31.2502C54.6782 32.3125 53.8904 33.089 53.0671 33.8785C52.8802 34.0618 52.6933 34.2452 52.5065 34.4287C52.1165 34.811 51.7242 35.1911 51.3318 35.5709C51.008 35.8844 50.6848 36.1986 50.3634 36.5146C50.1239 36.7499 49.8829 36.9837 49.6402 37.2158C47.833 38.9945 46.9758 41.0842 46.7709 43.5882C46.6956 44.0579 46.5848 44.3257 46.302 44.7042C45.8809 44.9147 45.4401 44.904 44.983 44.8361C44.6623 44.5894 44.5028 44.4033 44.3235 44.0447C44.298 43.8205 44.2731 43.5962 44.2517 43.3716C43.9635 40.4564 42.6614 38.5435 40.6153 36.5134C39.1562 35.0423 37.9749 33.3 36.937 31.514C36.8754 31.4152 36.8139 31.3164 36.7504 31.2147C36.4252 30.6538 36.3409 30.2249 36.4537 29.5824C36.8008 28.3511 37.498 27.3619 38.594 26.6903C40.5128 25.6909 42.3661 25.9961 44.1668 27.0871ZM39.3277 29.1975C39.0013 29.5876 39.0013 29.5876 38.9155 30.0631C39.8561 32.2089 41.6412 34.1467 43.3095 35.7678C44.0665 36.5041 44.6729 37.2912 45.1886 38.2127C45.2513 38.3091 45.314 38.4055 45.3787 38.5048C45.4657 38.5048 45.5528 38.5048 45.6425 38.5048C45.7799 38.3013 45.9071 38.0909 46.0299 37.8783C47.189 36.0209 48.9352 34.5379 50.4805 33.0052C50.5816 32.9048 50.6826 32.8045 50.7867 32.7011C50.902 32.5873 51.0173 32.4734 51.1361 32.3561C51.4407 32.0472 51.709 31.7254 51.9738 31.3821C51.8316 31.3683 51.8316 31.3683 51.6866 31.3542C48.3214 31.0203 45.2469 30.5977 42.3176 28.8281C41.2598 28.2082 40.2427 28.4217 39.3277 29.1975Z" fill="#024D81"/>
<path d="M46.0236 47.0784C46.4152 47.3696 46.5286 47.5382 46.6832 48.0017C46.7022 48.2596 46.7123 48.5181 46.7161 48.7766C46.7195 48.9123 46.7229 49.048 46.7264 49.1878C46.6768 49.6425 46.5593 49.8795 46.2874 50.2441C45.7928 50.5739 45.5543 50.5786 44.9684 50.5079C44.4858 50.1438 44.3262 49.9474 44.2213 49.3455C44.2196 49.1614 44.2214 48.9772 44.2265 48.7931C44.2239 48.701 44.2214 48.6088 44.2188 48.5139C44.2236 47.9999 44.2945 47.7566 44.6103 47.3469C45.1468 46.9447 45.3677 46.9847 46.0236 47.0784Z" fill="#024D81"/>
<path d="M46.029 52.7506C46.3997 53.0511 46.5367 53.2184 46.6886 53.6739C46.7553 54.4913 46.7891 55.2249 46.2928 55.9162C45.944 56.2027 45.7613 56.1799 45.3036 56.1635C44.7781 56.0322 44.6308 55.953 44.3143 55.5205C44.2373 55.145 44.2406 54.7814 44.2484 54.3993C44.2463 54.2992 44.2443 54.199 44.2422 54.0959C44.2456 53.604 44.2568 53.3552 44.5575 52.9525C45.0768 52.5837 45.4275 52.591 46.029 52.7506Z" fill="#024D81"/>
</svg>
