<svg width="300" height="300" viewBox="0 0 300 300" fill="none" xmlns="http://www.w3.org/2000/svg">
<path d="M261.861 56.2117H40.1058C39.4642 56.248 38.8435 56.4517 38.3042 56.8014C37.8268 57.225 37.4705 57.7677 37.2715 58.374V199.971C37.6445 201.801 38.4365 203.519 39.5848 204.992C40.8488 206.241 42.4162 207.138 44.1328 207.597H256.718C258.306 207.386 259.807 206.746 261.058 205.746C262.029 204.296 262.605 202.618 262.728 200.877V59.2164C262.686 58.3644 262.316 57.562 261.695 56.9767C260.825 56.474 259.837 56.2074 258.832 56.202H232.312" stroke="black" stroke-width="6" stroke-linecap="square" stroke-linejoin="round"/>
<path d="M113.457 246.667H189.643" stroke="black" stroke-width="6" stroke-linecap="square"/>
<path d="M132.504 242.858V208.574" stroke="black" stroke-width="6" stroke-linecap="square"/>
<path d="M170 246.667L170.597 208.574" stroke="black" stroke-width="6" stroke-linecap="square"/>
<path d="M93.334 90.9106L106.08 88.433L117.839 148.929L188.942 135.108C190.723 134.796 192.384 133.998 193.742 132.802C194.768 131.44 195.334 129.786 195.357 128.08L195.023 83.3333L109.616 99.935" stroke="black" stroke-width="6" stroke-linecap="round" stroke-linejoin="round"/>
<path d="M134.571 181.107C139.132 180.221 142.111 175.804 141.225 171.243C140.338 166.682 135.922 163.703 131.361 164.59C126.799 165.476 123.82 169.893 124.707 174.454C125.594 179.015 130.01 181.994 134.571 181.107Z" stroke="black" stroke-width="6" stroke-linecap="round" stroke-linejoin="round"/>
<path d="M186.347 171.043C190.908 170.156 193.887 165.74 193 161.179C192.113 156.618 187.697 153.639 183.136 154.525C178.575 155.412 175.596 159.828 176.482 164.39C177.369 168.951 181.785 171.93 186.347 171.043Z" stroke="black" stroke-width="6" stroke-linecap="round" stroke-linejoin="round"/>
<path d="M117.764 148.605L122.2 171.428" stroke="black" stroke-width="6" stroke-linecap="round"/>
<path d="M144.416 168.546L172.533 163.081" stroke="black" stroke-width="6" stroke-linecap="round"/>
<path d="M156.223 110.079L179.024 105.647" stroke="black" stroke-width="6" stroke-linecap="round"/>
</svg>
