<svg width="44" height="44" viewBox="0 0 44 44" fill="none" xmlns="http://www.w3.org/2000/svg">
<path d="M37.2637 28.063L34.743 25.5423V16.8961L36.3886 16.3028C36.5731 16.2364 36.7326 16.1147 36.8454 15.9543C36.9582 15.7939 37.0188 15.6027 37.0189 15.4066C37.0191 15.2106 36.9587 15.0192 36.8462 14.8587C36.7336 14.6982 36.5743 14.5763 36.3899 14.5096L21.3338 9.05696C21.1241 8.98101 20.8943 8.98101 20.6846 9.05696L5.62854 14.5096C5.44495 14.5761 5.28621 14.6974 5.1738 14.8571C5.06139 15.0168 5.00073 15.2072 5.00001 15.4024C4.99929 15.5977 5.05854 15.7885 5.16977 15.949C5.281 16.1095 5.43883 16.232 5.62193 16.2999L11.1785 18.3583V24.641C11.1785 24.836 11.2382 25.0264 11.3497 25.1863C11.4111 25.2742 11.992 26.0676 13.4795 26.8162C15.3586 27.7622 17.8232 28.2418 20.8048 28.2418C23.7843 28.2418 26.2614 27.7632 28.1673 26.8191C29.6694 26.0751 30.2697 25.29 30.3333 25.203C30.4523 25.0398 30.5164 24.8431 30.5164 24.6412V18.4198L32.8364 17.5833V25.5423L30.3157 28.063C30.137 28.2418 30.0366 28.4842 30.0366 28.7371C30.0366 28.9899 30.137 29.2323 30.3157 29.4111L32.8364 31.9318V34.0467C32.8364 34.5732 33.2633 35 33.7898 35C34.3162 35 34.7431 34.5732 34.7431 34.0467V31.9318L37.2637 29.4111C37.636 29.0389 37.636 28.4352 37.2637 28.063ZM21.0092 10.9672L33.2601 15.4039L20.8093 19.8927L8.7248 15.4161L21.0092 10.9672ZM28.6097 24.2611C25.3506 27.1936 15.6663 26.8574 13.0851 24.2706V19.0646L20.4737 21.8017C20.5909 21.8202 20.7016 21.9213 21.1281 21.8046L28.6097 19.1073L28.6097 24.2611ZM33.7897 30.1888L32.3379 28.7371L33.7897 27.2853L35.2414 28.7371L33.7897 30.1888Z" fill="black"/>
</svg>
