<svg width="40" height="40" viewBox="0 0 40 40" fill="none" xmlns="http://www.w3.org/2000/svg">
<g clip-path="url(#clip0_819_1140)">
<path d="M19.972 -0.025094C20.0515 -0.0249257 20.131 -0.0247573 20.213 -0.0245838C21.3543 -0.0207033 22.474 -0.00110199 23.595 0.233695C23.6712 0.249217 23.7473 0.264738 23.8258 0.28073C27.6056 1.0714 31.0422 2.78363 33.8294 5.46807C33.9067 5.54215 33.9067 5.54215 33.9855 5.61772C34.7268 6.33213 35.4096 7.05849 36.0169 7.88995C36.0839 7.97987 36.151 8.0698 36.218 8.15972C36.6897 8.79966 37.1084 9.46479 37.5013 10.1556C37.5297 10.2049 37.5582 10.2543 37.5876 10.3051C39.2755 13.2542 40.0385 16.5954 40.0257 19.97C40.0255 20.0495 40.0253 20.1291 40.0252 20.211C40.0213 21.3523 40.0017 22.472 39.7669 23.5931C39.7436 23.7073 39.7436 23.7073 39.7199 23.8239C38.9292 27.6037 37.217 31.0403 34.5325 33.8274C34.4831 33.879 34.4338 33.9305 34.3829 33.9835C33.6685 34.7248 32.9421 35.4076 32.1106 36.0149C32.0207 36.082 31.9308 36.149 31.8409 36.2161C31.2011 36.6877 30.5368 37.1083 29.845 37.4993C29.7898 37.5307 29.7345 37.5622 29.6776 37.5945C27.8701 38.6121 25.9036 39.2956 23.8733 39.7112C23.8172 39.7227 23.761 39.7343 23.7031 39.7461C22.5566 39.964 21.4218 40.0266 20.257 40.024C20.0273 40.0237 19.7977 40.0256 19.5681 40.0275C18.5233 40.031 17.5158 39.9369 16.4856 39.7649C16.3524 39.7429 16.3524 39.7429 16.2165 39.7204C12.8362 39.1132 9.62917 37.5517 7.03252 35.3118C6.97431 35.2623 6.9161 35.2127 6.85613 35.1617C5.80105 34.2389 4.8111 33.2428 3.98565 32.1087C3.91873 32.0189 3.8518 31.929 3.78484 31.8392C3.31297 31.1994 2.89239 30.535 2.50127 29.8431C2.46985 29.7878 2.43843 29.7326 2.40606 29.6756C1.38845 27.8682 0.704944 25.9017 0.289359 23.8714C0.277847 23.8152 0.266335 23.7591 0.254474 23.7012C0.0221411 22.4788 -0.0278678 21.27 -0.0231409 20.0286C-0.0229725 19.9491 -0.0228042 19.8696 -0.0226307 19.7876C-0.0187502 18.6463 0.000851132 17.5266 0.235648 16.4056C0.25117 16.3294 0.266691 16.2533 0.282683 16.1748C1.07336 12.3949 2.78558 8.95836 5.47002 6.1712C5.51941 6.11968 5.56879 6.06817 5.61967 6.0151C6.33408 5.27383 7.06044 4.59102 7.8919 3.9837C7.98182 3.91666 8.07175 3.84962 8.16167 3.78258C8.80149 3.3109 9.46576 2.89037 10.1575 2.49932C10.2128 2.4679 10.268 2.43648 10.325 2.40411C12.1324 1.38649 14.0989 0.702991 16.1292 0.287406C16.1854 0.275894 16.2415 0.264382 16.2994 0.252521C17.5218 0.0201879 18.7306 -0.0298209 19.972 -0.025094ZM8.36065 11.9524C8.65408 12.2948 8.94476 12.6279 9.25767 12.9507C9.29811 12.9926 9.33855 13.0345 9.38022 13.0777C9.5142 13.2166 9.64843 13.3552 9.78269 13.4937C9.82995 13.5426 9.87721 13.5915 9.9259 13.6418C10.8573 14.6051 11.7952 15.562 12.7353 16.5169C13.3328 17.1239 13.9282 17.7328 14.5189 18.3464C15.0358 18.8833 15.5563 19.4164 16.0812 19.9454C16.3583 20.2249 16.6334 20.5059 16.9043 20.7914C18.2185 22.263 18.2185 22.263 19.9938 22.9383C21.4018 22.8614 22.4682 21.4587 23.3684 20.5126C23.657 20.2115 23.9515 19.9161 24.2454 19.62C24.7996 19.0599 25.3484 18.4949 25.8954 17.9278C26.5188 17.282 27.1484 16.6423 27.7784 16.0029C28.7053 15.062 29.6298 14.1187 30.5485 13.1699C30.648 13.0672 30.7475 12.9646 30.8471 12.862C30.9824 12.7226 31.1173 12.583 31.2522 12.4433C31.3121 12.3817 31.3121 12.3817 31.3733 12.3187C31.56 12.1611 31.56 12.1611 31.6419 11.9524C23.9591 11.9524 16.2763 11.9524 8.36065 11.9524ZM7.34502 13.0462C7.34502 17.8415 7.34502 22.6368 7.34502 27.5774C7.79092 27.1971 7.79092 27.1971 8.21273 26.7973C8.29866 26.7115 8.29866 26.7115 8.38632 26.624C8.44718 26.5629 8.50804 26.5017 8.57074 26.4387C8.63635 26.3731 8.70197 26.3075 8.76957 26.2399C8.94787 26.0616 9.126 25.8831 9.30406 25.7045C9.49076 25.5173 9.67769 25.3303 9.86459 25.1433C10.2178 24.7899 10.5708 24.4362 10.9237 24.0825C11.3258 23.6796 11.7281 23.2768 12.1304 22.8741C12.9574 22.0463 13.7841 21.2182 14.6106 20.3899C14.4993 20.1367 14.3644 19.968 14.1692 19.7729C14.1099 19.7133 14.0507 19.6537 13.9896 19.5924C13.9246 19.5277 13.8595 19.4631 13.7925 19.3965C13.6897 19.2936 13.6897 19.2936 13.5849 19.1886C13.3974 19.0007 13.2094 18.8133 13.0213 18.6259C12.8247 18.43 12.6284 18.2336 12.4321 18.0373C12.1026 17.7078 11.7728 17.3787 11.4428 17.0498C11.0608 16.669 10.6792 16.2878 10.2979 15.9064C9.93132 15.5398 9.56454 15.1734 9.19763 14.8072C9.04129 14.6511 8.88502 14.495 8.72879 14.3388C8.51109 14.1212 8.29306 13.9039 8.07498 13.6867C8.00976 13.6214 7.94454 13.5562 7.87735 13.4889C7.8183 13.4302 7.75926 13.3715 7.69843 13.311C7.64685 13.2596 7.59527 13.2081 7.54213 13.1551C7.44043 13.0374 7.44043 13.0374 7.34502 13.0462ZM32.4575 13.1584C32.3781 13.2379 32.3781 13.2379 32.2971 13.3191C32.2366 13.3795 32.176 13.44 32.1135 13.5023C32.0466 13.5695 31.9797 13.6367 31.9107 13.706C31.8406 13.7761 31.7705 13.8462 31.6983 13.9184C31.5054 14.1113 31.3127 14.3044 31.1201 14.4976C30.919 14.6991 30.7177 14.9005 30.5164 15.1019C30.135 15.4836 29.7537 15.8654 29.3726 16.2474C28.9388 16.6821 28.5047 17.1166 28.0706 17.551C27.1775 18.445 26.2846 19.3393 25.3919 20.2337C25.5032 20.487 25.6381 20.6557 25.8333 20.8507C25.8926 20.9103 25.9519 20.9699 26.0129 21.0313C26.1105 21.1282 26.1105 21.1282 26.2101 21.2271C26.2786 21.2957 26.347 21.3644 26.4176 21.4351C26.6052 21.6229 26.7931 21.8104 26.9812 21.9977C27.1779 22.1937 27.3741 22.3901 27.5704 22.5864C27.8999 22.9158 28.2297 23.2449 28.5597 23.5738C28.9417 23.9546 29.3233 24.3358 29.7047 24.7172C30.0712 25.0838 30.438 25.4502 30.8049 25.8165C30.9613 25.9725 31.1175 26.1287 31.2738 26.2848C31.4915 26.5024 31.7095 26.7197 31.9276 26.937C31.9928 27.0022 32.058 27.0675 32.1252 27.1347C32.1842 27.1934 32.2433 27.2521 32.3041 27.3126C32.3557 27.3641 32.4073 27.4155 32.4604 27.4685C32.5621 27.5862 32.5621 27.5862 32.6575 27.5774C32.6575 22.7821 32.6575 17.9868 32.6575 13.0462C32.5614 13.0374 32.5614 13.0374 32.4575 13.1584ZM15.3648 21.579C15.3088 21.6348 15.2528 21.6905 15.1951 21.748C15.1333 21.81 15.0715 21.8719 15.0078 21.9358C14.9106 22.0328 14.9106 22.0328 14.8115 22.1317C14.6333 22.3096 14.4553 22.4876 14.2774 22.6658C14.0916 22.8518 13.9056 23.0376 13.7197 23.2234C13.4074 23.5356 13.0952 23.8479 12.7832 24.1603C12.4219 24.5221 12.0603 24.8835 11.6986 25.2448C11.3886 25.5545 11.0787 25.8643 10.769 26.1742C10.5838 26.3595 10.3985 26.5448 10.2131 26.73C10.0065 26.9363 9.80023 27.1429 9.594 27.3496C9.53203 27.4114 9.47005 27.4732 9.4062 27.5369C9.35044 27.5929 9.29468 27.6489 9.23723 27.7066C9.18836 27.7555 9.13949 27.8044 9.08914 27.8547C8.97687 27.9521 8.97687 27.9521 8.98565 28.0462C16.256 28.0462 23.5263 28.0462 31.0169 28.0462C30.6466 27.6109 30.6466 27.6109 30.2575 27.1992C30.2049 27.1466 30.1523 27.0939 30.0982 27.0396C30.0421 26.9839 29.9861 26.9281 29.9284 26.8707C29.8681 26.8104 29.8078 26.7501 29.7458 26.688C29.5481 26.4904 29.3502 26.2931 29.1523 26.0958C29.0146 25.9582 28.8768 25.8206 28.7392 25.683C28.3779 25.3221 28.0164 24.9614 27.6549 24.6007C27.2855 24.2322 26.9164 23.8634 26.5473 23.4946C25.8238 22.772 25.1001 22.0497 24.3763 21.3274C24.2903 21.4003 24.2045 21.4734 24.1187 21.5465C24.0469 21.6075 24.0469 21.6075 23.9738 21.6697C23.7455 21.8698 23.533 22.0845 23.3201 22.3006C23.2744 22.3466 23.2287 22.3926 23.1817 22.44C23.0377 22.5849 22.894 22.7301 22.7503 22.8753C22.5596 23.0681 22.3686 23.2606 22.1775 23.453C22.1121 23.5194 22.1121 23.5194 22.0453 23.5871C21.5225 24.1133 20.9559 24.012 20.2512 24.0196C20.1049 24.0217 19.9587 24.0249 19.8125 24.0292C18.441 24.0695 18.441 24.0695 18.0948 23.7759C17.999 23.6647 17.9057 23.5513 17.8138 23.4368C17.6897 23.3093 17.5627 23.185 17.4355 23.0606C17.2933 22.9212 17.1529 22.7804 17.0128 22.6389C16.9656 22.5912 16.9184 22.5435 16.8697 22.4943C16.8219 22.446 16.7741 22.3977 16.7249 22.348C16.534 22.155 16.3428 21.9622 16.1515 21.7696C16.1077 21.7252 16.0639 21.6808 16.0188 21.635C15.9155 21.531 15.8101 21.429 15.7044 21.3274C15.5579 21.3274 15.4623 21.4816 15.3648 21.579Z" fill="white"/>
</g>
<defs>
<clipPath id="clip0_819_1140">
<rect width="40" height="40" fill="white"/>
</clipPath>
</defs>
</svg>
