<?xml version="1.0" encoding="UTF-8"?>
<svg version="1.1" xmlns="http://www.w3.org/2000/svg" width="512" height="512">
<path d="M0 0 C1.11031586 -0.01409912 2.22063171 -0.02819824 3.36459351 -0.04272461 C5.17729233 -0.02754288 5.17729233 -0.02754288 7.02661133 -0.01205444 C8.30678131 -0.02081604 9.58695129 -0.02957764 10.90591431 -0.03860474 C14.41021602 -0.06136532 17.91378032 -0.05257598 21.41809464 -0.03670931 C25.08864552 -0.02403312 28.75913409 -0.03579517 32.4296875 -0.04364014 C38.59329543 -0.05273177 44.75660362 -0.04076184 50.92016602 -0.01693726 C58.04189799 0.01027348 65.16291424 0.00145894 72.28462887 -0.02606928 C78.40371538 -0.0487735 84.52258667 -0.05195414 90.6417017 -0.03887594 C94.29440604 -0.03108849 97.94677417 -0.03001993 101.59945679 -0.04655838 C105.67195894 -0.0637103 109.74323109 -0.0399266 113.81567383 -0.01205444 C115.02413971 -0.0221756 116.23260559 -0.03229675 117.47769165 -0.04272461 C126.56839403 0.07271183 126.56839403 0.07271183 129.66748047 3.019104 C131.5609678 5.84348564 132.09880106 7.26477565 132.04614258 10.63491821 C132.0590332 11.45991821 132.07192383 12.28491821 132.08520508 13.13491821 C131.0701471 16.95631294 129.59214921 18.25135497 126.42114258 20.63491821 C122.65396463 21.36550448 118.93965081 21.2664675 115.11328125 21.20254517 C113.97138336 21.2032753 112.82948547 21.20400543 111.65298462 21.20475769 C107.8812092 21.20127619 104.11067085 21.16238512 100.33911133 21.12319946 C97.72309545 21.11387342 95.10707083 21.10675633 92.49104309 21.10176086 C86.31091043 21.08623548 80.13122131 21.04522542 73.95128375 20.99501342 C66.9138796 20.93907871 59.876454 20.9116232 52.8388828 20.88653624 C38.36607419 20.83430792 23.89361459 20.74639148 9.42114258 20.63491821 C7.67772961 52.49920733 6.38473131 84.34552732 5.66703316 116.24819907 C5.5808083 120.0644377 5.49098427 123.88058365 5.39892578 127.69668579 C5.38066925 128.4559891 5.36241272 129.21529241 5.34360296 129.99760491 C5.08108817 140.60667799 4.62639816 151.19172692 4.01235397 161.78604276 C2.95307465 180.0658485 2.27991695 198.31832136 2.29223633 216.63101196 C2.29185362 217.34344997 2.29147091 218.05588798 2.2910766 218.78991503 C2.3285121 259.98693827 10.33333097 290.07948891 39.79322815 319.86198425 C55.84440731 335.50798745 73.17276693 349.6417464 91.42114258 362.63491821 C95.50516158 360.73949337 98.53528002 357.99310488 101.85864258 355.00991821 C123.61099062 336.00182618 147.3003525 329.79455755 175.42114258 326.63491821 C165.52114258 316.73491821 155.62114258 306.83491821 145.42114258 296.63491821 C141.74537256 298.47280322 139.15809288 300.38459877 135.98364258 302.94741821 C122.90945873 313.14168171 108.44558937 314.7709087 92.42114258 313.63491821 C80.02792637 311.53136618 67.93893032 304.44733253 60.00708008 294.65444946 C49.64578964 279.62508647 47.12692355 266.72577273 48.42114258 248.63491821 C51.45954096 232.21020466 63.03050575 220.59466715 74.84301758 209.71304321 C90.88369054 194.8326136 102.84928122 182.1093152 110.09945679 161.11273193 C113.11669683 152.42122164 116.86636816 144.0365502 120.51818848 135.59750366 C122.68195206 130.58141232 124.81151961 125.55084186 126.94458008 120.52163696 C127.83990819 118.41397598 128.73541902 116.30639261 129.63110352 114.19888306 C130.31335999 112.59348663 130.31335999 112.59348663 131.00939941 110.95565796 C133.47033683 105.16697564 135.93387282 99.37940014 138.39770508 93.59194946 C139.14642883 91.83302116 139.14642883 91.83302116 139.91027832 90.03855896 C142.39606336 84.1998832 144.88380785 78.36205405 147.37524414 72.52578735 C151.40321312 63.08780609 155.42769333 53.64959079 159.36645508 44.17398071 C159.9246849 42.83943715 160.48325908 41.50503756 161.04223633 40.17080688 C162.00035125 37.87833029 162.94928242 35.58197825 163.88598633 33.28067017 C166.06504954 28.09026265 167.87389832 24.07237544 172.42114258 20.63491821 C175.59596237 19.56334528 178.18306865 19.89282247 181.42114258 20.63491821 C183.27844238 21.89237976 183.27844238 21.89237976 185.09106445 23.56484985 C185.78296875 24.2009317 186.47487305 24.83701355 187.18774414 25.49237061 C191.30822826 29.44524048 195.36423689 33.45667567 199.38989258 37.50601196 C200.77126404 38.88950584 200.77126404 38.88950584 202.18054199 40.3009491 C204.60261812 42.72680299 207.02167336 45.15564673 209.44006348 47.58517456 C211.91888095 50.07430937 214.40061055 52.56053716 216.88208008 55.04702759 C221.73125182 59.90685279 226.57723121 64.76984999 231.42114258 69.63491821 C232.3271521 69.33073975 232.3271521 69.33073975 233.25146484 69.02041626 C234.05124756 68.75269409 234.85103027 68.48497192 235.67504883 68.20913696 C236.46468018 67.94447632 237.25431152 67.67981567 238.06787109 67.40713501 C250.3234215 63.38552427 262.53069296 63.35218204 274.41333008 69.07632446 C284.20851018 74.92358571 291.54595512 83.06863544 295.60864258 93.75991821 C298.38738759 107.01239445 296.67320702 117.8787249 292.42114258 130.63491821 C308.26114258 146.47491821 324.10114258 162.31491821 340.42114258 178.63491821 C340.55196982 166.68356678 340.55196982 166.68356678 340.62890625 154.73184204 C340.65536518 153.22684244 340.68364524 151.72187328 340.71411133 150.21694946 C340.70812927 149.05697449 340.70812927 149.05697449 340.70202637 147.87356567 C340.81307847 143.64200377 341.0737488 142.07060776 343.80908203 138.64004517 C346.64897228 136.4600266 347.89140092 135.954766 351.42114258 136.00991821 C352.24614258 135.99702759 353.07114258 135.98413696 353.92114258 135.97085571 C357.62710084 136.95525088 359.13787771 138.59465693 361.42114258 141.63491821 C361.60083008 144.98257446 361.60083008 144.98257446 361.29614258 148.69741821 C361.26934858 152.3463145 361.45895172 155.36123722 363.70922852 158.33999634 C367.26200891 161.78498863 371.32266244 164.54480877 375.4284668 167.28677368 C378.30567028 169.23334531 381.00148206 171.36396838 383.73364258 173.50991821 C384.7976325 174.32647631 385.86277351 175.14153632 386.92895508 175.95523071 C391.77028126 179.66270427 396.57852832 183.4128058 401.38793945 187.16152954 C405.38260784 190.27464802 409.38356298 193.37896657 413.39770508 196.46694946 C414.20763916 197.09182251 415.01757324 197.71669556 415.85205078 198.36050415 C417.39787925 199.55279666 418.94577745 200.74241233 420.49609375 201.92886353 C421.19968018 202.47252563 421.9032666 203.01618774 422.62817383 203.57632446 C423.24152588 204.04755737 423.85487793 204.51879028 424.48681641 205.00430298 C425.12514404 205.54240601 425.76347168 206.08050903 426.42114258 206.63491821 C427.27308166 207.27923263 428.12502073 207.92354704 429.00277615 208.58738613 C432.48869686 212.98020893 432.11468414 216.56572733 432.04933167 222.02604675 C432.05997325 223.61234018 432.05997325 223.61234018 432.07082981 225.23067993 C432.08845622 228.78058871 432.07027978 232.32940934 432.05224609 235.87930298 C432.05738331 238.42211914 432.06466308 240.96493174 432.07392883 243.50773621 C432.09055423 249.70288157 432.08378546 255.89762257 432.06584061 262.0927527 C432.05180974 267.13164574 432.04792286 272.17045323 432.05128288 277.20936394 C432.05199905 278.28554163 432.05199905 278.28554163 432.05272968 279.38346029 C432.05375604 280.84108387 432.0548114 282.29870743 432.05589544 283.75633096 C432.06446545 296.64992366 432.04778268 309.54336444 432.01806641 322.43692017 C431.98927034 334.93145137 431.98212509 347.42576335 431.99755859 359.9203186 C432.01435126 373.53379273 432.01832052 387.14716271 432.00084823 400.76063961 C431.99900394 402.21501377 431.99716921 403.66938794 431.99534416 405.12376213 C431.99443207 405.83926732 431.99351998 406.5547725 431.99258025 407.29195966 C431.98699063 412.31733902 431.99026769 417.34266733 431.99688911 422.3680439 C432.00546654 429.1470672 431.99235719 435.92572955 431.96504021 442.70471764 C431.95817533 445.18784782 431.95803792 447.67100747 431.96525574 450.15413666 C432.01368844 468.99312061 430.7485257 484.04126303 417.17114258 498.38491821 C404.23577847 510.62924451 389.92200718 513.24064166 372.734375 513.14285278 C370.9589013 513.14746823 369.18343143 513.15382545 367.40796947 513.16176176 C362.55546712 513.17838977 357.70328128 513.17023851 352.8507781 513.15781689 C347.60733539 513.14874191 342.36394594 513.16274825 337.12051392 513.17373657 C326.85903585 513.19150026 316.59767498 513.18769137 306.33619237 513.17608601 C297.99465681 513.16704351 289.65315404 513.16583123 281.31161499 513.17018127 C280.12330021 513.17079421 278.93498543 513.17140714 277.71066111 513.17203864 C275.29643829 513.17331758 272.88221547 513.17461443 270.46799266 513.17592901 C247.84279297 513.18732851 225.21765815 513.17423097 202.5924691 513.15272754 C183.18929912 513.13485715 163.78622488 513.13796144 144.38305664 513.15640259 C121.83746547 513.1778204 99.29193114 513.18622993 76.74633121 513.17395353 C74.34111087 513.17267937 71.93589052 513.17142189 69.53067017 513.17018127 C68.34733115 513.16956417 67.16399213 513.16894707 65.94479436 513.16831127 C57.61563798 513.16486111 49.28651773 513.17067952 40.95736694 513.18009949 C30.80352888 513.19133094 20.64981446 513.18825523 10.49599051 513.16697651 C5.31776994 513.15648163 0.13975535 513.15231772 -5.03846359 513.16557312 C-9.78324096 513.17753507 -14.52762233 513.17087189 -19.27236402 513.14966291 C-20.98418202 513.14521294 -22.69603381 513.14742682 -24.40782988 513.15716606 C-40.6678632 513.24254528 -54.2285863 509.83876417 -66.32885742 498.38491821 C-80.89984643 482.99158062 -81.1760475 466.58489438 -81.14404297 446.51651001 C-81.15438468 443.96454682 -81.16637597 441.41258986 -81.17988586 438.86064148 C-81.20763534 432.67155648 -81.2165395 426.48270336 -81.21531036 420.29356351 C-81.21447547 415.26290118 -81.22036645 410.23229015 -81.23093605 405.20163918 C-81.26355676 389.36773884 -81.27261505 373.53399682 -81.26384632 357.7000678 C-81.25785603 345.21853389 -81.28831861 332.73739176 -81.33546903 320.2559556 C-81.38357168 307.42195885 -81.4056452 294.58815086 -81.40015823 281.754062 C-81.39758339 274.55561824 -81.40554035 267.35755064 -81.44122887 260.15918541 C-81.47449676 253.39633235 -81.47142826 246.63444875 -81.44378471 239.87152672 C-81.43931991 237.38949784 -81.44682144 234.90741445 -81.46712875 232.42546463 C-81.49296827 229.03818205 -81.4757063 225.65375784 -81.44755554 222.26655579 C-81.46521695 221.28348456 -81.48287836 220.30041333 -81.50107497 219.28755206 C-81.40910839 214.17336967 -80.876201 211.34888859 -77.22134113 207.63279438 C-76.03204851 206.60403047 -74.81852097 205.60239246 -73.57885742 204.63491821 C-73.01682812 204.16957017 -72.45479882 203.70422213 -71.87573832 203.22477263 C-70.34598758 201.96789019 -68.78162055 200.76837389 -67.20385742 199.57241821 C-61.74293046 195.35936357 -56.38726313 191.03850248 -51.07885742 186.63491821 C-45.39709531 181.9290823 -39.66868545 177.29938067 -33.84350586 172.77236938 C-30.60047419 170.24548379 -27.3975739 167.67765897 -24.22338867 165.06460571 C-23.49192627 164.46333862 -22.76046387 163.86207153 -22.00683594 163.24258423 C-20.57808792 162.06496018 -19.1526679 160.88328431 -17.73095703 159.69717407 C-16.7662146 158.90258789 -16.7662146 158.90258789 -15.78198242 158.09194946 C-15.21125 157.61733276 -14.64051758 157.14271606 -14.05249023 156.65371704 C-12.57885742 155.63491821 -12.57885742 155.63491821 -10.57885742 155.63491821 C-10.58346639 154.86646733 -10.58807535 154.09801645 -10.59282398 153.30627918 C-10.70322807 134.61133819 -10.78597739 115.91646223 -10.83791828 97.22126484 C-10.86370396 88.18040067 -10.89886131 79.13975407 -10.95605469 70.09902954 C-11.00587867 62.21945288 -11.0381458 54.34003377 -11.0492999 46.46030396 C-11.05582042 42.28765656 -11.07115255 38.11545991 -11.10750771 33.94295692 C-11.14145164 30.01536115 -11.15191386 26.08840166 -11.14439583 22.16067314 C-11.14577112 20.71949938 -11.15571393 19.27830429 -11.1748848 17.83725739 C-11.19978971 15.8685853 -11.19079371 13.89957161 -11.18013 11.93077087 C-11.18473897 10.82922826 -11.18934793 9.72768564 -11.19409657 8.59276295 C-9.92268872 2.48029915 -5.98719007 0.01172867 0 0 Z M180.42114258 49.63491821 C179.02042633 52.53990909 177.65529301 55.46027769 176.29614258 58.38491821 C175.89782227 59.20991821 175.49950195 60.03491821 175.08911133 60.88491821 C174.72172852 61.68413696 174.3543457 62.48335571 173.97583008 63.30679321 C173.6302002 64.03994751 173.28457031 64.77310181 172.9284668 65.5284729 C172.24352383 68.37240355 172.90702706 69.14883756 174.42114258 71.63491821 C175.94300476 73.3360688 177.52567585 74.98339091 179.14138794 76.59567261 C179.62495597 77.08094949 180.108524 77.56622636 180.6067456 78.0662086 C182.22652458 79.68927894 183.85334276 81.30510266 185.48022461 82.92105103 C186.64349598 84.0837582 187.80632704 85.24690605 188.96875 86.41046143 C192.12522495 89.56751058 195.28783179 92.71835198 198.45156336 95.86812687 C201.75699552 99.1610631 205.05677109 102.45965764 208.35714722 105.75765991 C214.60754139 112.00183598 220.86301668 118.24089595 227.12032688 124.47814059 C234.24388769 131.57935272 241.36177558 138.68623945 248.47918916 145.793612 C263.12019693 160.41371029 277.76832544 175.02665636 292.42114258 189.63491821 C295.00767372 188.70557156 297.59012513 187.76685626 300.17114258 186.82241821 C300.90075195 186.56138306 301.63036133 186.3003479 302.38208008 186.03140259 C306.16192451 184.63973259 309.34622423 183.32951771 312.42114258 180.63491821 C295.36116201 163.55161316 278.29834603 146.47114471 261.23211765 129.39408112 C253.30866127 121.46546081 245.38614765 113.53590268 237.46582031 105.60415649 C230.56526005 98.69365231 223.66296428 91.78488719 216.7585482 84.87823534 C213.10025627 81.2186358 209.44286014 77.5581507 205.78753853 73.89558411 C202.35145176 70.45274172 198.91306055 67.01221828 195.47283936 63.57350731 C194.20652348 62.3069149 192.94107302 61.03945662 191.67652702 59.77109718 C189.95818702 58.04782708 188.23684247 56.32761728 186.5146637 54.60818481 C186.00786231 54.09847059 185.50106093 53.58875636 184.97890192 53.06359625 C183.03663176 50.67530391 183.03663176 50.67530391 180.42114258 49.63491821 Z M248.42114258 87.63491821 C257.00114258 96.21491821 265.58114258 104.79491821 274.42114258 113.63491821 C277.00173658 109.76402722 276.58255377 107.75187897 276.02661133 103.27163696 C274.582852 96.98429793 270.81802242 92.10434097 265.42114258 88.63491821 C260.33598502 85.94841988 253.09806748 82.95799331 248.42114258 87.63491821 Z M162.42114258 91.63491821 C148.56556217 123.55561483 134.93788426 155.56935926 121.42114258 187.63491821 C126.6087484 193.92004825 132.29541523 199.63802979 138.06958008 205.38101196 C139.09255564 206.40211869 140.11530786 207.42344921 141.1378479 208.44499207 C143.80867618 211.11203174 146.4824954 213.77605257 149.15698242 216.43942261 C151.89400994 219.16615672 154.62815159 221.89578127 157.36254883 224.62515259 C162.71261805 229.96454911 168.06585531 235.30075473 173.42114258 240.63491821 C187.48635071 235.11681705 201.38973061 229.27167466 215.24813843 223.25436401 C220.84374621 220.82483188 226.44315952 218.40409857 232.04223633 215.98257446 C233.12533585 215.51389954 234.20843536 215.04522461 235.32435608 214.56234741 C246.99360761 209.51597287 258.69442582 204.54630895 270.42114258 199.63491821 C270.72969684 196.6632183 270.72969684 196.6632183 269.06916046 194.9109993 C268.11133289 193.95537157 268.11133289 193.95537157 267.13415527 192.98043823 C266.405271 192.2459848 265.67638672 191.51153137 264.92541504 190.75482178 C263.70997009 189.55319901 263.70997009 189.55319901 262.4699707 188.32730103 C261.62450684 187.47979279 260.77904297 186.63228455 259.90795898 185.75909424 C257.58234611 183.43098291 255.25021861 181.10978299 252.91483498 178.79149723 C250.46846642 176.36016441 248.03020394 173.9207284 245.59094238 171.48226929 C241.486607 167.38163079 237.37667266 163.28667467 233.26293945 159.19546509 C228.00136508 153.96264259 222.74896996 148.72070845 217.49951935 143.47572708 C212.97189649 138.95210551 208.44002774 134.43274422 203.90749168 129.91404629 C202.45933032 128.46996142 201.01173881 127.0253072 199.56422424 125.58057404 C196.84788415 122.87115 194.12820148 120.16512767 191.4074707 117.46011353 C190.61336792 116.6671286 189.81926514 115.87414368 189.00109863 115.05712891 C184.83758195 110.9252504 180.59720542 106.94859206 176.13826752 103.13628769 C172.72854047 100.15499029 169.66220406 96.83732108 166.52270508 93.57632446 C164.65313749 91.40873035 164.65313749 91.40873035 162.42114258 91.63491821 Z M-17.57885742 187.25991821 C-18.50577393 187.99057495 -18.50577393 187.99057495 -19.45141602 188.73599243 C-25.15828645 193.25635611 -30.7587237 197.9021605 -36.36181641 202.54995728 C-42.29165569 207.44736614 -48.36232726 212.10727197 -54.57885742 216.63491821 C-49.95822483 222.17921869 -45.04282342 227.31710378 -39.93432617 232.41226196 C-39.12393387 233.22361099 -38.31354156 234.03496002 -37.47859192 234.87089539 C-35.77797186 236.57219223 -34.07610321 238.27224181 -32.37304688 239.97109985 C-29.75363455 242.58511487 -27.13965331 245.20447676 -24.52612305 247.82437134 C-22.87084501 249.47898932 -21.2152572 251.13329749 -19.55932617 252.78726196 C-18.77397995 253.57463242 -17.98863373 254.36200287 -17.17948914 255.17323303 C-16.45816299 255.89140701 -15.73683685 256.60958099 -14.99365234 257.34951782 C-14.35666916 257.98570541 -13.71968597 258.62189301 -13.06340027 259.27735901 C-11.79114256 260.74739161 -11.79114256 260.74739161 -10.57885742 260.63491821 C-10.57885742 234.89491821 -10.57885742 209.15491821 -10.57885742 182.63491821 C-12.96946633 182.63491821 -15.7031534 185.77330946 -17.57885742 187.25991821 Z M361.42114258 183.63491821 C361.42114258 209.04491821 361.42114258 234.45491821 361.42114258 260.63491821 C367.12720531 255.76842042 367.12720531 255.76842042 372.52050781 250.64907837 C373.24072617 249.92878448 373.96094452 249.2084906 374.70298767 248.46636963 C375.45431473 247.70988129 376.20564178 246.95339294 376.97973633 246.17398071 C377.76888931 245.38341278 378.5580423 244.59284485 379.37110901 243.77832031 C381.86932919 241.27454196 384.36403302 238.76729347 386.85864258 236.25991821 C388.56088465 234.55265573 390.26335631 232.84562212 391.96606445 231.13882446 C396.12041621 226.97349923 400.27189339 222.80532602 404.42114258 218.63491821 C402.57613759 214.54687145 400.29575513 212.75551555 396.67114258 210.07241821 C395.48821466 209.18654843 394.3059451 208.29979898 393.12426758 207.41226196 C392.51260742 206.95577271 391.90094727 206.49928345 391.27075195 206.02896118 C388.28390227 203.77778488 385.35433174 201.45529432 382.42114258 199.13491821 C377.6636455 195.38853127 372.89688899 191.6544477 368.10864258 187.94741821 C367.55112305 187.51300415 366.99360352 187.07859009 366.41918945 186.63101196 C364.16371085 184.53807031 364.16371085 184.53807031 361.42114258 183.63491821 Z M340.42114258 188.63491821 C339.92146973 189.37629028 339.42179688 190.11766235 338.90698242 190.88150024 C335.59866772 194.54592503 332.16473332 195.85981144 327.64770508 197.68960571 C326.75770813 198.06361008 325.86771118 198.43761444 324.95074463 198.82295227 C321.98775487 200.06484822 319.01703372 201.28705899 316.04614258 202.50991821 C313.94150172 203.38852095 311.83751012 204.26868034 309.73413086 205.15029907 C305.26809262 207.02115948 300.79949209 208.88571314 296.3293457 210.74673462 C286.08924347 215.01826536 275.89087581 219.38763063 265.68847656 223.74822998 C240.63127567 234.45254177 215.53188554 245.05694752 190.42114258 255.63491821 C191.72829152 258.52345426 193.11612512 260.57325783 195.37036133 262.7953186 C195.96437744 263.38595596 196.55839355 263.97659332 197.17041016 264.58512878 C198.12983521 265.5243644 198.12983521 265.5243644 199.10864258 266.48257446 C200.09610474 267.46223427 200.09610474 267.46223427 201.10351562 268.46168518 C203.20469451 270.54507303 205.31243944 272.62164853 207.42114258 274.69741821 C209.52896889 276.77761114 211.63531604 278.85924813 213.73876953 280.94386292 C215.04705425 282.23990898 216.35800316 283.53327241 217.671875 284.82365417 C218.26589111 285.41113937 218.85990723 285.99862457 219.47192383 286.60391235 C219.99439697 287.11813248 220.51687012 287.6323526 221.05517578 288.16215515 C224.37171431 291.73799275 225.18912501 294.41098556 225.02270508 299.13882446 C223.88961431 303.84041538 220.50147062 306.71154554 217.10961914 309.99331665 C215.05960399 311.98641987 213.04975702 314.01695017 211.03833008 316.04898071 C206.85492538 320.26700972 202.64545469 324.45789046 198.42114258 328.63491821 C199.3037532 330.98801351 199.3037532 330.98801351 202.42114258 331.64273071 C203.75376196 332.01767339 205.08715822 332.38986124 206.42114258 332.75991821 C226.7039333 338.77788909 241.68287486 349.84957422 257.42114258 363.63491821 C261.88280436 361.54393524 265.40905865 358.62969043 269.21899414 355.53994751 C269.9996373 354.90687431 270.78028046 354.27380112 271.58457947 353.62154388 C281.89977809 345.17630704 291.86307766 336.34933286 301.67114258 327.32241821 C302.61576355 326.45462738 303.56038452 325.58683655 304.53363037 324.69274902 C327.24927157 303.62191602 345.12491679 284.4259771 346.8973465 252.38098717 C347.16093616 244.93843595 346.90773876 237.56296249 346.42114258 230.13491821 C346.31882072 228.56932474 346.31882072 228.56932474 346.21443176 226.97210312 C345.30600205 214.08080076 343.70894178 201.35165788 341.42114258 188.63491821 C341.09114258 188.63491821 340.76114258 188.63491821 340.42114258 188.63491821 Z M101.75317383 212.09976196 C100.74452522 213.09986046 100.74452522 213.09986046 99.71549988 214.12016296 C98.28579339 215.54039346 96.85756024 216.96210838 95.43066406 218.38516235 C93.26730745 220.53890298 91.09352516 222.68172355 88.91918945 224.82437134 C87.52985373 226.20716821 86.14116223 227.59061271 84.75317383 228.97476196 C84.10919144 229.60639755 83.46520905 230.23803314 82.80171204 230.8888092 C74.6728452 239.05721739 69.16968882 247.07389719 69.04614258 258.88491821 C69.25521834 271.44176267 73.98582889 278.37353192 82.73364258 286.88491821 C91.02542539 292.28421865 99.56924812 294.2306476 109.42114258 292.63491821 C122.3274721 289.81892286 130.39252228 279.44401114 139.17114258 270.32241821 C140.75282605 268.70556821 142.33614669 267.09031806 143.92114258 265.47671509 C147.77356587 261.54771591 151.60523365 257.5993733 155.42114258 253.63491821 C153.91513488 250.10926993 151.87371463 247.83959543 149.17089844 245.14175415 C148.29336411 244.26114319 147.41582977 243.38053223 146.51170349 242.47323608 C145.55331159 241.52173996 144.59473483 240.57043001 143.63598633 239.61929321 C142.65438487 238.63888428 141.67315324 237.65810494 140.692276 236.67697144 C138.64005234 234.6263092 136.58451993 232.57904339 134.52636719 230.53433228 C131.88249013 227.90750064 129.2453001 225.27407776 126.61031246 222.63833237 C124.58695196 220.61524305 122.56100164 218.59476467 120.53415108 216.57517242 C119.56027605 215.60448808 118.587013 214.63318935 117.61436272 213.66127777 C116.25942293 212.30849413 114.90080247 210.9594 113.54199219 209.61050415 C112.38188881 208.45611847 112.38188881 208.45611847 111.198349 207.27841187 C107.307062 203.67989601 104.68775806 209.18424448 101.75317383 212.09976196 Z M-60.57885742 242.63491821 C-60.62559775 271.01625691 -60.66085626 299.39758983 -60.68248177 327.77895927 C-60.69279017 340.95719566 -60.70684222 354.13540812 -60.72973633 367.31362915 C-60.74968349 378.80102496 -60.76257703 390.28840344 -60.76703441 401.77581608 C-60.76963953 407.85713606 -60.77575373 413.93840646 -60.79031754 420.01971054 C-60.80392234 425.74713387 -60.80807418 431.47448733 -60.80507278 437.20192528 C-60.80562165 439.30050346 -60.80958175 441.39908406 -60.81726837 443.49764824 C-60.82727497 446.37127902 -60.82480552 449.24464883 -60.81936646 452.11828613 C-60.82519214 452.9412754 -60.83101782 453.76426466 -60.83702004 454.61219299 C-60.7816504 465.49638905 -58.80265961 475.48841059 -51.07885742 483.50991821 C-48.74151223 485.79414192 -46.5590148 487.28861905 -43.57885742 488.63491821 C-42.94979492 487.99425415 -42.32073242 487.35359009 -41.67260742 486.69351196 C-37.165607 482.13899798 -32.63173094 477.7061808 -27.76635742 473.53726196 C-25.03339004 471.1605564 -22.36799537 468.71302287 -19.70385742 466.25991821 C-16.01353624 462.86433822 -12.31180151 459.48376516 -8.57885742 456.13491821 C-4.89055311 452.82490152 -1.22815267 449.487824 2.42114258 446.13491821 C6.87449745 442.04325714 11.35774112 437.98668875 15.85864258 433.94741821 C18.72714667 431.35876818 21.57590908 428.74906675 24.42114258 426.13491821 C28.87449745 422.04325714 33.35774112 417.98668875 37.85864258 413.94741821 C40.72714667 411.35876818 43.57590908 408.74906675 46.42114258 406.13491821 C50.07043783 402.78201243 53.73283826 399.44493491 57.42114258 396.13491821 C58.21262695 395.41948853 59.00411133 394.70405884 59.81958008 393.96694946 C61.77031078 392.21832149 63.73371995 390.49064237 65.71020508 388.77163696 C66.8223796 387.78878506 67.9343615 386.80571515 69.04614258 385.82241821 C69.57981445 385.36609009 70.11348633 384.90976196 70.66333008 384.43960571 C72.34216342 382.9864783 72.34216342 382.9864783 74.42114258 380.63491821 C74.42114258 376.24213076 73.85057098 375.59732993 70.91860729 372.6113956 C70.39790234 372.10165989 69.87719739 371.59192419 69.3407135 371.06674194 C68.52097783 370.24082137 68.52097783 370.24082137 67.68468183 369.39821553 C65.8445952 367.54917374 63.9905264 365.71481918 62.13623047 363.8800354 C60.81682031 362.56011667 59.49828291 361.23932503 58.18055725 359.91772461 C54.5945786 356.32631486 50.99628591 352.74747611 47.39557576 349.17084408 C43.63622849 345.43274301 39.88777857 341.683746 36.13804626 337.93600464 C29.84033572 331.64474685 23.53526555 325.36094568 17.22509766 319.08218384 C9.11364349 311.01104656 1.01369296 302.92846885 -7.08243465 294.84196091 C-14.02921735 287.90346627 -20.98047014 280.96945523 -27.9328568 274.03657627 C-30.17450877 271.80100136 -32.41569137 269.56495655 -34.6568737 267.32891083 C-38.17133627 263.82320454 -41.68854628 260.32027735 -45.20795631 256.81953812 C-46.50328248 255.5303551 -47.79775871 254.24031749 -49.09134674 252.94939041 C-50.8490615 251.19563179 -52.60980838 249.444978 -54.3714447 247.69515991 C-54.88991893 247.17650132 -55.40839316 246.65784273 -55.94257873 246.12346721 C-57.92288451 243.69904751 -57.92288451 243.69904751 -60.57885742 242.63491821 Z M406.75869077 246.16828871 C406.2363256 246.69356673 405.71396042 247.21884475 405.17576599 247.76004028 C404.623632 248.31131985 404.071498 248.86259942 403.50263268 249.43058443 C401.63771136 251.29384771 399.7764061 253.16068287 397.91503906 255.02749634 C396.58507388 256.35774335 395.25488895 257.68777068 393.92449951 259.01759338 C390.30053029 262.64127445 386.67966308 266.26804114 383.05932117 269.89534569 C379.28010027 273.6807973 375.49806704 277.46343692 371.71632385 281.24636841 C364.54970398 288.41610244 357.38563807 295.58838286 350.2224732 302.76156855 C342.06979271 310.92540757 333.91428897 319.08642371 325.75854003 327.24719715 C308.97625132 344.03995216 292.19753336 360.83627117 275.42114258 377.63491821 C278.63220251 384.3250573 284.51713317 388.77898955 290.06176758 393.56069946 C293.01978615 396.16120916 295.90806883 398.8322284 298.79614258 401.50991821 C303.46040554 405.83256754 308.15808542 410.11308579 312.89379883 414.35757446 C315.75196461 416.93301596 318.58824519 419.53177585 321.42114258 422.13491821 C325.07041429 425.48784938 328.73283855 428.82490178 332.42114258 432.13491821 C336.62798585 435.91029038 340.79789111 439.7247227 344.96020508 443.54898071 C348.09781343 446.42914428 351.25135199 449.29023435 354.42114258 452.13491821 C358.10944748 455.44493543 361.77180023 458.78206322 365.42114258 462.13491821 C369.91285316 466.26077518 374.42735416 470.35984344 378.96801758 474.43179321 C380.69099586 475.97918136 382.40934786 477.53172879 384.12426758 479.08804321 C385.00598633 479.88726196 385.88770508 480.68648071 386.79614258 481.50991821 C387.58762695 482.22921509 388.37911133 482.94851196 389.19458008 483.68960571 C391.20676727 485.44762189 393.25995357 487.06583578 395.42114258 488.63491821 C405.37090469 480.4320609 409.48396019 474.29298478 411.42114258 461.63491821 C411.66532629 458.45739669 411.68420248 455.30402777 411.66165161 452.11828613 C411.66336046 451.21544392 411.66506931 450.3126017 411.66682994 449.38240063 C411.67009834 446.3869 411.6591652 443.39162833 411.64819336 440.39614868 C411.64762867 438.23706569 411.64794693 436.07798231 411.64907837 433.91889954 C411.64965063 428.07873495 411.63791673 422.23865303 411.62393045 416.3985076 C411.61140206 410.28730282 411.61025093 404.17609601 411.60787964 398.06488037 C411.60167107 386.50188186 411.58526867 374.93892131 411.56518066 363.37593949 C411.54280228 350.20788603 411.53182335 337.03983074 411.52178979 323.87176299 C411.5009019 296.79279371 411.46573803 269.71385809 411.42114258 242.63491821 C409.36055518 242.63491821 408.13597834 244.79680792 406.75869077 246.16828871 Z M167.81958008 271.04116821 C166.80666716 272.06740893 165.79906131 273.09890826 164.79614258 274.13491821 C164.28051758 274.65956665 163.76489258 275.18421509 163.23364258 275.72476196 C161.95829326 277.02372886 160.68912997 278.32876398 159.42114258 279.63491821 C164.80755182 286.18868918 170.77999385 292.10738457 176.79614258 298.07241821 C177.82892853 299.10017805 178.86148248 300.12817107 179.89379883 301.15640259 C182.40024545 303.65193419 184.90981337 306.14429903 187.42114258 308.63491821 C191.05417342 306.93905695 193.36663303 304.89691333 196.17114258 302.00991821 C196.97036133 301.19265259 197.76958008 300.37538696 198.59301758 299.53335571 C199.19629883 298.90687134 199.79958008 298.28038696 200.42114258 297.63491821 C195.49829393 291.66554561 190.14524022 286.17281877 184.67895508 280.70742798 C183.15521745 279.18146987 181.63969828 277.64763676 180.12426758 276.11343384 C179.15600588 275.14224364 178.18727329 274.17152263 177.21801758 273.20132446 C176.345 272.324198 175.47198242 271.44707153 174.57250977 270.54336548 C171.35035559 267.68503829 170.9990638 268.10038447 167.81958008 271.04116821 Z M96.45703125 388.93984985 C92.49338214 392.71836644 88.46032735 396.38418264 84.32299805 399.97158813 C81.46827557 402.46827931 78.6951236 405.04929392 75.92114258 407.63491821 C72.45912523 410.84738511 68.9946145 414.04598486 65.42114258 417.13491821 C61.31623204 420.68557922 57.34524675 424.37601513 53.36767578 428.06777954 C49.01511764 432.10330185 44.60241706 436.06320544 40.15161133 439.99038696 C39.58055664 440.53308228 39.00950195 441.07577759 38.42114258 441.63491821 C38.42114258 441.96491821 38.42114258 442.29491821 38.42114258 442.63491821 C39.08655563 442.63634323 39.75196869 442.63776825 40.43754578 442.63923645 C47.36470739 442.65892628 54.29098699 442.7131853 61.21777344 442.7875061 C63.80267 442.81069994 66.38766125 442.82508502 68.97265625 442.83047485 C72.68915921 442.83975362 76.40416986 442.8807253 80.12036133 442.92788696 C81.27573898 442.92395432 82.43111664 442.92002167 83.62150574 442.91596985 C92.56218181 443.07847155 92.56218181 443.07847155 95.6484375 446.05020142 C97.35131126 448.5330997 98.10584299 449.67377759 98.04614258 452.63491821 C98.06547852 453.59398071 98.06547852 453.59398071 98.08520508 454.57241821 C97.01244798 457.90427557 95.09901535 459.43521556 92.42114258 461.63491821 C89.70782891 462.08907919 87.63988714 462.24094666 84.94384766 462.15151978 C83.84030945 462.14556038 83.84030945 462.14556038 82.71447754 462.13948059 C81.1222262 462.12829274 79.53002225 462.10595771 77.93805885 462.07367706 C75.40983839 462.0249489 72.88356777 462.010981 70.35490417 462.00668335 C63.16887154 461.98880527 55.98401589 461.91318264 48.79882812 461.80337524 C44.39661023 461.73851978 39.99590029 461.71801087 35.59323692 461.72353363 C33.92389809 461.71660519 32.25453357 461.69274317 30.5857029 461.65097809 C19.19257649 461.34977329 19.19257649 461.34977329 9.52148438 467.00698853 C8.12392292 468.52180182 6.75278172 470.06184017 5.42114258 471.63491821 C4.35472435 472.6427071 3.27349407 473.63531524 2.17114258 474.60366821 C0.75673428 475.90556676 -0.6576708 477.20746879 -2.07202148 478.50942993 C-4.55401209 480.79002745 -7.04494438 483.05846949 -9.56323242 485.29898071 C-10.47588867 486.11109009 -11.38854492 486.92319946 -12.32885742 487.75991821 C-13.55862305 488.8465979 -13.55862305 488.8465979 -14.81323242 489.95523071 C-15.39588867 490.50952759 -15.97854492 491.06382446 -16.57885742 491.63491821 C-16.57885742 491.96491821 -16.57885742 492.29491821 -16.57885742 492.63491821 C110.14114258 492.63491821 236.86114258 492.63491821 367.42114258 492.63491821 C362.32762351 486.66938962 362.32762351 486.66938962 356.79614258 481.38491821 C352.96809293 478.00519871 349.17714678 474.59404784 345.42114258 471.13491821 C341.77228605 467.78153911 338.10944147 464.44493004 334.42114258 461.13491821 C330.2142993 457.35954604 326.04439405 453.54511373 321.88208008 449.72085571 C318.74447172 446.84069215 315.59093317 443.97960208 312.42114258 441.13491821 C308.2142993 437.35954604 304.04439405 433.54511373 299.88208008 429.72085571 C296.74447172 426.84069215 293.59093317 423.97960208 290.42114258 421.13491821 C286.2142993 417.35954604 282.04439405 413.54511373 277.88208008 409.72085571 C273.94284687 406.10484164 269.97170878 402.52594063 265.99145508 398.95523071 C263.07685758 396.3241199 260.18578664 393.66835463 257.29614258 391.00991821 C253.39746785 387.42514842 249.46677168 383.88679162 245.45239258 380.43179321 C243.94506203 379.09838542 242.47062143 377.72760257 241.01489258 376.33804321 C221.05896449 357.43860543 198.14787136 348.05832187 170.56567383 348.42398071 C139.4030508 349.35420827 117.81171143 368.57341945 96.45703125 388.93984985 Z " fill="#000000" transform="translate(80.578857421875,-0.634918212890625)"/>
<path d="M0 0 C3.20613573 1.89993229 5.39902918 3.33474007 6.69921875 6.9375 C7.54733076 11.75258754 6.7106343 13.88290653 4 18 C2.65877619 19.51199515 1.26624488 20.97945453 -0.16430664 22.40722656 C-0.99849625 23.2444928 -1.83268585 24.08175903 -2.69215393 24.94439697 C-3.5890947 25.83415222 -4.48603546 26.72390747 -5.41015625 27.640625 C-6.7950248 29.02480621 -6.7950248 29.02480621 -8.20787048 30.43695068 C-10.15576455 32.38328575 -12.10695673 34.32623002 -14.06079102 36.26660156 C-16.56665942 38.75542185 -19.06583532 41.25083355 -21.56281376 43.74856949 C-23.94663862 46.13205754 -26.33469463 48.51128117 -28.72265625 50.890625 C-29.62162125 51.78847717 -30.52058624 52.68632935 -31.4467926 53.61138916 C-32.27783005 54.43604675 -33.10886749 55.26070435 -33.96508789 56.11035156 C-34.69772354 56.83917542 -35.43035919 57.56799927 -36.18519592 58.31890869 C-39.27493533 61.1809995 -41.77418869 61.3310301 -45.9609375 61.29296875 C-49.13134567 60.83745033 -50.8192402 59.24684343 -53 57 C-54.8437602 53.3124796 -54.82546198 50.00269082 -54 46 C-52.57885742 43.93945313 -52.57885742 43.93945313 -50.54296875 41.78125 C-49.72570312 40.91242187 -48.9084375 40.04359375 -48.06640625 39.1484375 C-47.0463808 38.09690747 -46.02402348 37.04763698 -45 36 C-44.38825928 35.3719043 -43.77651855 34.74380859 -43.14624023 34.09667969 C-38.79829398 29.64467008 -34.41489948 25.22913045 -30.0144043 20.82910156 C-27.67012984 18.48261344 -25.33400738 16.12819899 -22.99804688 13.7734375 C-21.50309289 12.27555374 -20.00766725 10.77814053 -18.51171875 9.28125 C-17.46947395 8.22822693 -17.46947395 8.22822693 -16.40617371 7.15393066 C-15.75481949 6.50565308 -15.10346527 5.85737549 -14.43237305 5.18945312 C-13.86439499 4.62005005 -13.29641693 4.05064697 -12.71122742 3.46398926 C-8.68887116 0.02278309 -5.26608255 -0.63556169 0 0 Z " fill="#000000" transform="translate(436,0)"/>
<path d="M0 0 C1.14483856 -0.0159874 2.28967712 -0.03197479 3.46920776 -0.04844666 C4.70671783 -0.05380936 5.94422791 -0.05917206 7.21923828 -0.06469727 C8.49050568 -0.07372574 9.76177307 -0.08275421 11.07156372 -0.09205627 C13.76334799 -0.10657751 16.4547073 -0.11624523 19.14648438 -0.11914062 C22.58900748 -0.12452242 26.03035596 -0.16219297 29.47254753 -0.20788479 C32.76304124 -0.24485397 36.05356479 -0.24617154 39.34423828 -0.25219727 C41.19443069 -0.28149574 41.19443069 -0.28149574 43.08200073 -0.31138611 C52.59935581 -0.261137 52.59935581 -0.261137 55.66894531 2.66162109 C57.7329494 5.78880378 58.41455078 7.55012354 58.41455078 11.30639648 C56.96459648 15.65625939 56.26570403 17.73896099 52.41455078 20.30639648 C49.88552856 20.58055115 49.88552856 20.58055115 46.82910156 20.61279297 C45.684263 20.62878036 44.53942444 20.64476776 43.3598938 20.66123962 C42.12238373 20.66660233 40.88487366 20.67196503 39.60986328 20.67749023 C38.33859589 20.68651871 37.06732849 20.69554718 35.75753784 20.70484924 C33.06575357 20.71937047 30.37439426 20.7290382 27.68261719 20.73193359 C24.24009408 20.73731539 20.79874561 20.77498594 17.35655403 20.82067776 C14.06606032 20.85764694 10.77553678 20.8589645 7.48486328 20.86499023 C5.63467087 20.89428871 5.63467087 20.89428871 3.74710083 20.92417908 C-5.77025424 20.87392997 -5.77025424 20.87392997 -8.83984375 17.95117188 C-10.90384783 14.82398918 -11.58544922 13.06266943 -11.58544922 9.30639648 C-9.29767811 2.44308314 -7.25678961 0.07655086 0 0 Z " fill="#000000" transform="translate(121.58544921875,111.693603515625)"/>
<path d="M0 0 C0.98467255 -0.0159874 1.96934509 -0.03197479 2.9838562 -0.04844666 C4.04637604 -0.05380936 5.10889587 -0.05917206 6.20361328 -0.06469727 C7.84416183 -0.07823997 7.84416183 -0.07823997 9.51785278 -0.09205627 C11.8328375 -0.10657148 14.14786335 -0.11544865 16.46289062 -0.11914062 C20.0034708 -0.1310348 23.54230741 -0.18020882 27.08251953 -0.23071289 C29.33120894 -0.24017716 31.57990905 -0.24741217 33.82861328 -0.25219727 C34.88708466 -0.27172958 35.94555603 -0.2912619 37.03610229 -0.31138611 C44.38415604 -0.26632 44.38415604 -0.26632 48.29394531 2.66162109 C50.48536132 5.78607616 51.14892578 7.48538209 51.14892578 11.30639648 C49.69897148 15.65625939 49.00007903 17.73896099 45.14892578 20.30639648 C42.9236145 20.58055115 42.9236145 20.58055115 40.29785156 20.61279297 C39.31317902 20.62878036 38.32850647 20.64476776 37.31399536 20.66123962 C36.25147552 20.66660233 35.18895569 20.67196503 34.09423828 20.67749023 C32.45368973 20.69103294 32.45368973 20.69103294 30.77999878 20.70484924 C28.46501407 20.71936445 26.14998821 20.72824162 23.83496094 20.73193359 C20.29438076 20.74382777 16.75554415 20.79300179 13.21533203 20.84350586 C10.96664263 20.85297012 8.71794251 20.86020514 6.46923828 20.86499023 C5.41076691 20.88452255 4.35229553 20.90405487 3.26174927 20.92417908 C-4.08630448 20.87911297 -4.08630448 20.87911297 -7.99609375 17.95117188 C-10.18750975 14.82671681 -10.85107422 13.12741088 -10.85107422 9.30639648 C-8.73127637 2.94700292 -6.86496964 0.08429517 0 0 Z " fill="#000000" transform="translate(120.85107421875,55.693603515625)"/>
<path d="M0 0 C1.69479492 -0.00580078 1.69479492 -0.00580078 3.42382812 -0.01171875 C4.59494141 -0.00011719 5.76605469 0.01148437 6.97265625 0.0234375 C8.72352539 0.00603516 8.72352539 0.00603516 10.50976562 -0.01171875 C21.20744265 0.0248545 21.20744265 0.0248545 26.03515625 3.3984375 C28.66628543 6.74714736 28.39657023 10.27831814 28.03515625 14.3984375 C26.33675322 18.21984431 24.89893304 19.89396539 21.03515625 21.3984375 C16.5885037 21.85373922 12.12771614 21.76874468 7.66015625 21.7734375 C5.83097656 21.81017578 5.83097656 21.81017578 3.96484375 21.84765625 C-7.3501585 21.88471412 -7.3501585 21.88471412 -11.96484375 17.3984375 C-13.96751396 13.15277666 -14.18666494 11.18133581 -12.90234375 6.6484375 C-9.67882934 1.24125204 -6.14192853 0.02027836 0 0 Z " fill="#000000" transform="translate(414.96484375,76.6015625)"/>
<path d="M0 0 C3.28175318 2.52968474 4.69243777 4.07731331 6 8 C6.2588352 11.93311853 6.23140069 15.87177186 6.25 19.8125 C6.270625 20.89337891 6.29125 21.97425781 6.3125 23.08789062 C6.36260634 33.29079436 6.36260634 33.29079436 3 38 C-1.03395593 40.48243442 -3.05153614 41.15807731 -7.75 40.375 C-12.2079646 38.48893805 -12.2079646 38.48893805 -14 36 C-15.7032482 30.89025539 -15.26896051 25.53705176 -15.3125 20.1875 C-15.34150391 19.01123047 -15.37050781 17.83496094 -15.40039062 16.62304688 C-15.48020017 5.76281019 -15.48020017 5.76281019 -11 1 C-7.52468913 -0.73765543 -3.7911999 -0.59585352 0 0 Z " fill="#000000" transform="translate(359,0)"/>
<path d="M0 0 C2.87029869 1.79393668 4.49131638 2.98263276 6 6 C6.5811138 13.08958838 6.5811138 13.08958838 4.125 16.9375 C0.64240255 20.31766811 -2.03637499 20.40798732 -6.73828125 20.33984375 C-9 20 -9 20 -12 17.9375 C-14.40813237 14.40055558 -15 12.27436594 -15 8 C-12.09343948 0.29761462 -7.71725419 -1.13727956 0 0 Z " fill="#000000" transform="translate(214,442)"/>
<path d="M0 0 C3.125 1.875 3.125 1.875 5 5 C5.98876625 10.02622846 5.7769173 13.70513784 3.125 18.125 C-1.29486216 20.7769173 -4.97377154 20.98876625 -10 20 C-13.125 18.125 -13.125 18.125 -15 15 C-15.98876625 9.97377154 -15.7769173 6.29486216 -13.125 1.875 C-8.70513784 -0.7769173 -5.02622846 -0.98876625 0 0 Z " fill="#000000" transform="translate(203,56)"/>
</svg>
