<svg width="80" height="80" viewBox="0 0 80 80" fill="none" xmlns="http://www.w3.org/2000/svg">
<path d="M8.45665 4.50991C8.56692 4.50959 8.67718 4.50927 8.79079 4.50894C9.16025 4.50806 9.52971 4.50828 9.89918 4.5085C10.1668 4.5081 10.4343 4.50763 10.7019 4.5071C11.4373 4.50584 12.1727 4.50556 12.908 4.50544C13.7011 4.50515 14.4942 4.50397 15.2873 4.50292C17.0216 4.5008 18.7558 4.49986 20.4901 4.49917C21.5731 4.49874 22.6561 4.49807 23.7392 4.49737C26.7381 4.49546 29.7371 4.49386 32.7361 4.49333C32.928 4.49329 33.1199 4.49326 33.3177 4.49322C33.5101 4.49319 33.7024 4.49315 33.9006 4.49312C34.2905 4.49305 34.6803 4.49298 35.0701 4.49291C35.3602 4.49286 35.3602 4.49286 35.6561 4.49281C38.789 4.49219 41.9219 4.48946 45.0548 4.48582C48.2719 4.48212 51.4889 4.48017 54.706 4.47999C56.512 4.47984 58.318 4.47895 60.1241 4.47611C61.662 4.4737 63.2 4.4729 64.7379 4.47419C65.5223 4.4748 66.3067 4.47466 67.0911 4.47247C67.81 4.47047 68.5288 4.47067 69.2476 4.47256C69.5069 4.47286 69.7662 4.47239 70.0255 4.47102C72.6288 4.45819 74.7153 4.82888 76.6551 6.65264C78.1074 8.16094 78.6788 9.90226 78.6608 11.97C78.6622 12.2316 78.6622 12.2316 78.6637 12.4986C78.6662 13.0788 78.6642 13.6588 78.6623 14.239C78.6631 14.6567 78.6642 15.0744 78.6656 15.4922C78.6684 16.5063 78.6678 17.5205 78.666 18.5346C78.6645 19.3593 78.6644 20.184 78.665 21.0087C78.6651 21.1264 78.6652 21.244 78.6653 21.3653C78.6655 21.6043 78.6657 21.8434 78.6659 22.0825C78.6677 24.3209 78.6657 26.5593 78.6623 28.7977C78.6595 30.7157 78.66 32.6337 78.6629 34.5517C78.6662 36.7825 78.6675 39.0132 78.6656 41.2439C78.6654 41.4821 78.6652 41.7203 78.665 41.9584C78.6649 42.1341 78.6649 42.1342 78.6647 42.3134C78.6642 43.1365 78.6651 43.9596 78.6666 44.7827C78.6683 45.7867 78.6679 46.7906 78.6645 47.7946C78.6629 48.3062 78.6626 48.8178 78.6643 49.3294C78.666 49.8854 78.6639 50.4412 78.6608 50.9972C78.6629 51.2369 78.6629 51.2369 78.665 51.4814C78.6432 53.5037 77.7968 55.1184 76.4525 56.591C74.7779 58.1952 72.7507 58.4862 70.5351 58.4722C70.3444 58.4722 70.1537 58.4723 69.9572 58.4723C69.4385 58.4721 68.9198 58.4706 68.4011 58.4684C67.8575 58.4664 67.3139 58.4662 66.7702 58.4659C65.7426 58.4649 64.7151 58.4623 63.6875 58.4592C62.5168 58.4557 61.3462 58.454 60.1755 58.4524C57.7691 58.4492 55.3628 58.4434 52.9564 58.4367C52.9564 60.6023 52.9564 62.7679 52.9564 64.9992C53.5776 64.9919 54.1987 64.9847 54.8387 64.9772C55.3391 64.9732 55.8395 64.9698 56.3399 64.9669C56.8653 64.9636 57.3906 64.9589 57.916 64.952C58.5211 64.9444 59.1262 64.9409 59.7313 64.9382C59.9164 64.9349 60.1016 64.9317 60.2923 64.9284C62.2863 64.9279 63.8694 65.4547 65.2904 66.8614C66.75 68.4335 66.7346 70.0733 66.7357 72.1281C66.7376 72.3178 66.7395 72.5076 66.7415 72.7031C66.7418 72.8859 66.7421 73.0688 66.7424 73.2573C66.7431 73.4229 66.7437 73.5886 66.7444 73.7593C66.7037 74.2502 66.6359 74.5699 66.3939 74.9992C65.8204 75.4175 65.418 75.5266 64.7134 75.5269C64.4424 75.5288 64.4424 75.5288 64.1659 75.5306C63.9681 75.5296 63.7703 75.5285 63.5665 75.5275C63.3536 75.528 63.1408 75.5287 62.928 75.5297C62.3434 75.5316 61.7588 75.5307 61.1742 75.5292C60.5436 75.5282 59.9131 75.5298 59.2825 75.5311C58.0474 75.5332 56.8122 75.5327 55.577 75.5314C54.5733 75.5303 53.5695 75.5302 52.5658 75.5307C52.3517 75.5308 52.3517 75.5308 52.1332 75.5309C51.8431 75.531 51.5531 75.5312 51.2631 75.5313C48.5425 75.5327 45.822 75.5311 43.1014 75.5286C40.7663 75.5265 38.4312 75.5269 36.0961 75.5291C33.3853 75.5316 30.6746 75.5326 27.9639 75.5311C27.6749 75.531 27.386 75.5308 27.097 75.5307C26.9548 75.5306 26.8126 75.5305 26.6661 75.5304C25.6634 75.53 24.6607 75.5307 23.658 75.5318C22.4363 75.5331 21.2147 75.5328 19.993 75.5303C19.3694 75.5291 18.746 75.5286 18.1224 75.5301C17.5519 75.5315 16.9813 75.5308 16.4108 75.5283C16.1061 75.5275 15.8015 75.529 15.4969 75.5306C15.2259 75.5288 15.2259 75.5288 14.9494 75.5269C14.7935 75.5269 14.6375 75.5268 14.4769 75.5267C13.9722 75.4572 13.6784 75.298 13.2689 74.9992C12.9476 74.4264 12.9163 73.9229 12.9149 73.2737C12.9145 73.093 12.9141 72.9122 12.9137 72.7259C12.9149 72.5383 12.9161 72.3507 12.9173 72.1574C12.9155 71.8805 12.9155 71.8805 12.9137 71.598C12.9181 69.5978 13.1387 68.1798 14.5256 66.6868C15.6937 65.5683 17.071 64.9779 18.6887 64.9815C18.8669 64.9815 19.0452 64.9815 19.2289 64.9815C19.4205 64.9823 19.612 64.9831 19.8094 64.9839C20.0062 64.9842 20.203 64.9844 20.4058 64.9846C20.9278 64.9853 21.4497 64.9867 21.9717 64.9885C22.5048 64.9901 23.0379 64.9908 23.571 64.9916C24.6162 64.9932 25.6613 64.9962 26.7064 64.9992C26.7064 62.8336 26.7064 60.6679 26.7064 58.4367C26.1237 58.4392 25.5411 58.4416 24.9408 58.4441C23.0124 58.4519 21.0841 58.4571 19.1558 58.461C17.987 58.4634 16.8182 58.4667 15.6495 58.4721C14.6301 58.4767 13.6108 58.4798 12.5914 58.4808C12.0523 58.4814 11.5131 58.4828 10.974 58.4863C10.3704 58.4901 9.7668 58.4901 9.16318 58.4899C8.98673 58.4916 8.81028 58.4933 8.62848 58.495C6.54472 58.487 4.63508 57.9232 3.08336 56.4933C1.96432 55.3196 1.06403 53.7248 1.06043 52.0734C1.05974 51.9246 1.05904 51.7759 1.05832 51.6226C1.05835 51.4596 1.05838 51.2966 1.05841 51.1287C1.05783 50.9552 1.05726 50.7817 1.05667 50.6029C1.05494 50.0194 1.05434 49.4358 1.05375 48.8523C1.05277 48.4347 1.05173 48.0172 1.05064 47.5996C1.04755 46.345 1.04598 45.0904 1.04458 43.8358C1.0439 43.2446 1.04306 42.6534 1.04224 42.0622C1.03958 40.0962 1.03732 38.1303 1.03619 36.1644C1.03589 35.6543 1.03559 35.1443 1.03528 34.6342C1.03521 34.5075 1.03513 34.3807 1.03506 34.2501C1.03376 32.1977 1.0298 30.1453 1.02473 28.0928C1.01955 25.9844 1.01674 23.8761 1.01624 21.7677C1.01591 20.5844 1.01455 19.4011 1.01055 18.2178C1.00715 17.2098 1.0059 16.2019 1.00742 15.1939C1.00812 14.6801 1.0075 14.1663 1.0048 13.6525C1.00203 13.094 1.00314 12.5357 1.00519 11.9773C1.00348 11.8168 1.00177 11.6562 1 11.4908C1.01752 9.51004 1.82182 7.87078 3.17125 6.44451C4.66631 5.02813 6.42198 4.51193 8.45665 4.50991ZM4.5189 8.90545C3.51622 10.1476 3.53453 11.8901 3.54172 13.4138C3.54123 13.5755 3.54075 13.7372 3.54024 13.9038C3.53901 14.4407 3.53998 14.9777 3.54097 15.5146C3.54054 15.9016 3.53999 16.2885 3.53931 16.6754C3.53804 17.6144 3.53822 18.5534 3.53913 19.4923C3.53983 20.2559 3.53993 21.0195 3.53959 21.7832C3.53954 21.8921 3.53949 22.0011 3.53944 22.1134C3.53934 22.3349 3.53924 22.5563 3.53914 22.7778C3.53825 24.8507 3.53927 26.9237 3.54095 28.9967C3.54235 30.7726 3.5421 32.5485 3.54066 34.3244C3.53899 36.3903 3.53833 38.4562 3.53929 40.5222C3.53939 40.7428 3.53949 40.9634 3.53959 41.184C3.53963 41.2925 3.53968 41.401 3.53973 41.5128C3.54 42.2749 3.53955 43.0369 3.53881 43.799C3.53784 44.826 3.53854 45.853 3.54034 46.8801C3.54075 47.2563 3.54064 47.6325 3.53995 48.0087C3.53909 48.5236 3.54017 49.0384 3.54172 49.5533C3.54102 49.701 3.54033 49.8486 3.53961 50.0007C3.5492 51.6485 3.71086 53.0996 4.8314 54.3742C6.35749 55.8424 8.11024 55.8489 10.101 55.841C10.3678 55.8417 10.6346 55.8425 10.9014 55.8436C11.6325 55.8458 12.3635 55.8452 13.0946 55.844C13.8838 55.8433 14.6731 55.8452 15.4623 55.8468C17.0077 55.8495 18.5531 55.8496 20.0985 55.8488C21.3547 55.8482 22.6109 55.8484 23.8672 55.8493C24.1354 55.8494 24.1354 55.8494 24.4091 55.8496C24.7725 55.8498 25.1358 55.8501 25.4991 55.8503C28.9058 55.8525 32.3125 55.8516 35.7193 55.8498C38.8351 55.8483 41.9509 55.8503 45.0667 55.854C48.267 55.8579 51.4673 55.8594 54.6676 55.8583C56.4639 55.8578 58.2602 55.8581 60.0565 55.8609C61.5857 55.8632 63.1149 55.8633 64.6441 55.8605C65.4241 55.8592 66.204 55.8589 66.984 55.8613C67.6986 55.8634 68.4131 55.8627 69.1277 55.8597C69.3856 55.8591 69.6435 55.8595 69.9014 55.8612C71.7922 55.8723 73.4604 55.7279 74.8857 54.3492C76.0883 53.0101 76.1292 51.2803 76.1211 49.5523C76.1216 49.3905 76.1221 49.2287 76.1226 49.062C76.1238 48.5247 76.1228 47.9874 76.1218 47.45C76.1223 47.0628 76.1228 46.6757 76.1235 46.2885C76.1248 45.3489 76.1246 44.4094 76.1237 43.4699C76.123 42.7059 76.1229 41.9419 76.1232 41.1779C76.1233 41.0144 76.1233 41.0144 76.1234 40.8475C76.1235 40.626 76.1236 40.4044 76.1237 40.1829C76.1246 38.1092 76.1235 36.0354 76.1219 33.9617C76.1205 32.1848 76.1207 30.4079 76.1221 28.631C76.1238 26.5641 76.1245 24.4972 76.1235 22.4303C76.1234 22.2096 76.1233 21.989 76.1232 21.7683C76.1232 21.6598 76.1231 21.5513 76.1231 21.4394C76.1228 20.6768 76.1233 19.9142 76.124 19.1516C76.125 18.1242 76.1243 17.0968 76.1225 16.0694C76.1221 15.6929 76.1222 15.3164 76.1229 14.9398C76.1237 14.4249 76.1226 13.91 76.1211 13.395C76.1218 13.2469 76.1225 13.0989 76.1232 12.9463C76.1142 11.3974 75.9324 9.81695 74.8857 8.60698C73.3566 7.13412 71.5253 7.09552 69.5242 7.10733C69.2572 7.10661 68.9901 7.10562 68.723 7.10438C67.9926 7.10178 67.2623 7.10305 66.532 7.10499C65.743 7.10641 64.9539 7.10422 64.1649 7.10251C62.6206 7.09973 61.0763 7.10033 59.532 7.10214C58.2766 7.10355 57.0213 7.10374 55.766 7.10306C55.5872 7.10297 55.4084 7.10287 55.2242 7.10277C54.8609 7.10257 54.4977 7.10237 54.1344 7.10216C50.7298 7.10038 47.3251 7.10243 43.9205 7.10579C41.0005 7.10858 38.0804 7.1081 35.1604 7.10521C31.7678 7.10187 28.3752 7.10055 24.9825 7.10247C24.6206 7.10267 24.2587 7.10287 23.8968 7.10306C23.7188 7.10316 23.5407 7.10325 23.3573 7.10335C22.1037 7.10389 20.8502 7.10298 19.5967 7.10151C18.0687 7.09976 16.5406 7.10024 15.0126 7.10356C14.2333 7.1052 13.454 7.10585 12.6746 7.10378C11.9606 7.10191 11.2467 7.10295 10.5327 7.10627C10.275 7.10696 10.0173 7.10662 9.75961 7.1051C7.71266 7.09395 5.95832 7.30269 4.5189 8.90545ZM29.3627 58.4367C29.3627 60.6023 29.3627 62.7679 29.3627 64.9992C36.272 64.9992 43.1814 64.9992 50.3002 64.9992C50.3002 62.8336 50.3002 60.6679 50.3002 58.4367C43.3908 58.4367 36.4814 58.4367 29.3627 58.4367ZM16.3939 68.5929C15.2751 70.0274 15.6127 70.6646 15.6127 72.8117C31.597 72.8117 47.5814 72.8117 64.0502 72.8117C64.2598 70.1855 64.2598 70.1855 63.4252 68.7492C62.269 67.593 60.7924 67.483 59.2429 67.4776C59.0866 67.4778 58.9304 67.4781 58.7694 67.4783C58.6011 67.4779 58.4328 67.4776 58.2594 67.4772C57.6964 67.4762 57.1334 67.4764 56.5704 67.4765C56.1664 67.476 55.7624 67.4755 55.3583 67.4749C54.3753 67.4736 53.3922 67.4732 52.4091 67.4731C51.6097 67.473 50.8103 67.4727 50.011 67.4722C47.7427 67.4708 45.4744 67.4701 43.2061 67.4702C43.0228 67.4702 43.0228 67.4702 42.8358 67.4702C42.6523 67.4703 42.6523 67.4703 42.4651 67.4703C40.4828 67.4703 38.5006 67.4688 36.5183 67.4666C34.481 67.4644 32.4438 67.4633 30.4065 67.4634C29.2635 67.4635 28.1205 67.4631 26.9775 67.4614C25.9024 67.4598 24.8273 67.4599 23.7522 67.461C23.358 67.4612 22.9638 67.4608 22.5697 67.4598C22.0308 67.4586 21.4919 67.4594 20.953 67.4606C20.7977 67.4598 20.6425 67.459 20.4826 67.4581C18.9902 67.4655 17.5722 67.597 16.3939 68.5929Z" fill="black"/>
<path d="M8.37855 9.35407C8.48838 9.3537 8.5982 9.35333 8.71135 9.35296C9.08307 9.35191 9.45479 9.35198 9.82651 9.35205C10.0942 9.35153 10.3619 9.35095 10.6297 9.3503C11.3682 9.34874 12.1068 9.34816 12.8454 9.34774C13.6408 9.34713 14.4363 9.34564 15.2317 9.34427C17.1541 9.34118 19.0765 9.33961 20.9989 9.33822C21.9035 9.33754 22.808 9.3367 23.7126 9.33588C26.7182 9.33322 29.7239 9.33096 32.7295 9.32983C33.5099 9.32953 34.2903 9.32923 35.0707 9.32892C35.2646 9.32885 35.4586 9.32877 35.6584 9.32869C38.8021 9.32739 41.9458 9.32343 45.0895 9.31836C48.3147 9.3132 51.5398 9.31038 54.7649 9.30988C56.5767 9.30954 58.3885 9.30817 60.2003 9.30418C61.743 9.3008 63.2856 9.29953 64.8283 9.30105C65.6158 9.30177 66.4032 9.30146 67.1906 9.29843C67.9112 9.29569 68.6317 9.29582 69.3523 9.29826C69.6133 9.29864 69.8742 9.29795 70.1352 9.2961C70.4895 9.29375 70.8437 9.29524 71.198 9.2977C71.3949 9.29755 71.5918 9.29739 71.7947 9.29724C72.5535 9.40802 73.0386 9.75006 73.5483 10.3125C73.8519 10.8238 73.9096 11.3058 73.9106 11.8933C73.9112 12.0209 73.9118 12.1485 73.9124 12.2799C73.9123 12.4192 73.9122 12.5585 73.912 12.7021C73.9127 12.925 73.9127 12.925 73.9134 13.1525C73.9148 13.6519 73.915 14.1512 73.9153 14.6506C73.916 15.0081 73.9168 15.3656 73.9176 15.7231C73.9197 16.6951 73.9207 17.6671 73.9214 18.6392C73.9218 19.2461 73.9225 19.853 73.9232 20.4599C73.9251 22.1404 73.9267 23.8208 73.9272 25.5013C73.9272 25.6088 73.9273 25.7163 73.9273 25.827C73.9274 25.9348 73.9274 26.0426 73.9274 26.1536C73.9275 26.372 73.9276 26.5903 73.9276 26.8087C73.9277 26.917 73.9277 27.0253 73.9277 27.1369C73.9284 28.893 73.9311 30.6489 73.9347 32.405C73.9384 34.2079 73.9403 36.0108 73.9406 37.8137C73.9407 38.826 73.9416 39.8382 73.9444 40.8505C73.947 41.8022 73.9473 42.7539 73.946 43.7057C73.9458 44.0553 73.9465 44.405 73.9481 44.7546C73.9501 45.2313 73.9491 45.7078 73.9475 46.1844C73.9494 46.3929 73.9494 46.3929 73.9513 46.6055C73.9454 47.339 73.9165 47.8537 73.4213 48.4375C72.8609 48.8114 72.3535 48.7894 71.6918 48.7898C71.58 48.7903 71.4682 48.7908 71.353 48.7913C70.9764 48.7926 70.5998 48.7917 70.2232 48.7908C69.9512 48.7912 69.6793 48.7919 69.4073 48.7926C68.6584 48.7942 67.9096 48.7938 67.1607 48.7932C66.3537 48.7928 65.5466 48.7942 64.7396 48.7954C63.1579 48.7974 61.5763 48.7976 59.9947 48.7973C58.7095 48.797 57.4244 48.7973 56.1392 48.7979C55.8652 48.7981 55.8652 48.7981 55.5856 48.7982C55.2145 48.7984 54.8434 48.7986 54.4723 48.7988C50.9898 48.8005 47.5072 48.8002 44.0247 48.7992C40.8365 48.7984 37.6482 48.8002 34.46 48.8031C31.1888 48.8061 27.9175 48.8074 24.6463 48.8069C22.8088 48.8066 20.9712 48.8069 19.1337 48.8092C17.5695 48.811 16.0052 48.8112 14.441 48.8093C13.6425 48.8084 12.844 48.8083 12.0455 48.8101C11.315 48.8118 10.5846 48.8113 9.85414 48.8091C9.58939 48.8087 9.32463 48.8091 9.05988 48.8104C8.70087 48.8119 8.34199 48.8106 7.98299 48.8086C7.78333 48.8086 7.58366 48.8086 7.37794 48.8086C6.81095 48.7446 6.52244 48.6344 6.07759 48.2813C5.79169 47.8556 5.72595 47.5212 5.72533 47.0139C5.72396 46.8228 5.72396 46.8228 5.72257 46.6278C5.72316 46.4888 5.72375 46.3497 5.72435 46.2064C5.72376 46.0579 5.72316 45.9095 5.72254 45.7566C5.72093 45.258 5.72155 44.7593 5.72217 44.2607C5.72149 43.9037 5.72068 43.5467 5.71975 43.1897C5.71766 42.219 5.71757 41.2482 5.71797 40.2775C5.71813 39.4675 5.71737 38.6575 5.71662 37.8475C5.71479 35.8273 5.71492 33.807 5.71593 31.7868C5.71674 30.033 5.71498 28.2793 5.71201 26.5255C5.70898 24.7243 5.70773 22.9232 5.70828 21.122C5.70856 20.111 5.70814 19.0999 5.70598 18.0889C5.70401 17.1379 5.70431 16.187 5.70635 15.236C5.70672 14.887 5.70629 14.538 5.70501 14.189C5.70337 13.7124 5.70463 13.236 5.70662 12.7595C5.70489 12.5524 5.70489 12.5524 5.70312 12.3412C5.71053 11.4955 5.83139 10.9049 6.23384 10.1563C6.97292 9.47129 7.38324 9.35548 8.37855 9.35407ZM8.42134 12.0313C8.42134 23.2719 8.42134 34.5125 8.42134 46.0938C14.2995 46.0938 20.1776 46.0938 26.2338 46.0938C26.2854 43.2063 26.337 40.3188 26.3901 37.3438C26.921 36.8129 27.1086 36.8197 27.829 36.8139C27.9584 36.8154 28.0878 36.8168 28.2211 36.8183C28.3546 36.8182 28.4881 36.8181 28.6256 36.818C28.9078 36.8184 29.1899 36.8199 29.472 36.8225C29.9041 36.8262 30.336 36.8257 30.7681 36.8247C31.0422 36.8256 31.3162 36.8267 31.5903 36.828C31.7844 36.8278 31.7844 36.8278 31.9824 36.8276C32.5929 36.8352 32.9021 36.8414 33.4213 37.1875C33.5787 37.6595 33.6016 37.99 33.6097 38.484C33.6128 38.6529 33.6159 38.8218 33.6191 38.9958C33.623 39.269 33.623 39.269 33.627 39.5478C33.6303 39.7344 33.6335 39.921 33.6369 40.1133C33.6471 40.7103 33.6563 41.3073 33.6655 41.9043C33.6722 42.3087 33.679 42.7131 33.6859 43.1174C33.7027 44.1095 33.7185 45.1017 33.7338 46.0938C34.662 46.0938 35.5901 46.0938 36.5463 46.0938C36.5479 45.8857 36.5496 45.6777 36.5512 45.4633C36.5665 43.5044 36.5825 41.5455 36.5994 39.5866C36.608 38.5795 36.6163 37.5723 36.624 36.5652C36.6315 35.5936 36.6397 34.6221 36.6484 33.6505C36.6515 33.2795 36.6545 32.9084 36.6571 32.5374C36.6609 32.0185 36.6656 31.4996 36.6705 30.9807C36.6714 30.8266 36.6723 30.6726 36.6732 30.5138C36.6748 30.3723 36.6763 30.2307 36.6779 30.0849C36.6789 29.9622 36.6799 29.8395 36.6809 29.713C36.7026 29.3746 36.7659 29.0756 36.8588 28.75C37.5013 28.5715 38.1248 28.5657 38.7875 28.5621C38.9135 28.5612 39.0395 28.5603 39.1692 28.5594C39.435 28.5579 39.7009 28.5569 39.9667 28.5563C40.373 28.5547 40.7793 28.5499 41.1856 28.545C41.4442 28.5439 41.7028 28.5431 41.9614 28.5425C42.0826 28.5406 42.2039 28.5387 42.3289 28.5367C43.0111 28.5395 43.3985 28.5811 43.8901 29.0625C43.9694 29.3862 43.9694 29.3862 43.9712 29.7655C43.9734 29.9094 43.9755 30.0534 43.9778 30.2017C43.977 30.3593 43.9762 30.5168 43.9754 30.6792C43.977 30.8454 43.9786 31.0115 43.9803 31.1828C43.9849 31.7332 43.9851 32.2835 43.9853 32.8339C43.9876 33.2151 43.9903 33.5963 43.9931 33.9774C44 34.9815 44.0031 35.9856 44.0054 36.9898C44.0085 38.0141 44.015 39.0383 44.0213 40.0626C44.0331 42.073 44.0409 44.0834 44.0463 46.0938C45.026 46.0938 46.0057 46.0938 47.0151 46.0938C47.0174 45.6844 47.0196 45.2751 47.022 44.8534C47.0299 43.5025 47.0403 42.1517 47.0519 40.8009C47.0589 39.9817 47.065 39.1625 47.0692 38.3433C47.0733 37.553 47.0796 36.7628 47.0875 35.9726C47.0901 35.6708 47.0919 35.3689 47.0928 35.0671C47.0943 34.6451 47.0987 34.2231 47.1038 33.8011C47.1036 33.6757 47.1033 33.5503 47.1031 33.421C47.1175 32.5752 47.1175 32.5752 47.3904 32.1941C47.9663 31.8185 48.4834 31.8471 49.1519 31.8433C49.271 31.8424 49.3901 31.8415 49.5128 31.8406C49.7651 31.8391 50.0174 31.8381 50.2698 31.8375C50.6545 31.836 51.0392 31.8311 51.424 31.8262C51.6692 31.8252 51.9145 31.8244 52.1597 31.8238C52.2744 31.8218 52.389 31.8199 52.507 31.8179C53.2042 31.8209 53.6491 31.9122 54.2026 32.3438C54.4511 32.8408 54.387 33.3791 54.3909 33.9253C54.3925 34.0564 54.394 34.1875 54.3956 34.3226C54.4006 34.7571 54.4044 35.1917 54.4083 35.6263C54.4115 35.9271 54.4148 36.2279 54.4181 36.5287C54.4268 37.3214 54.4345 38.1141 54.442 38.9069C54.4498 39.7154 54.4585 40.5239 54.4672 41.3324C54.484 42.9195 54.4998 44.5067 54.5151 46.0938C55.4432 46.0938 56.3713 46.0938 57.3276 46.0938C57.3279 45.6618 57.3279 45.6618 57.3283 45.2211C57.3309 42.5104 57.3375 39.7996 57.3482 37.0889C57.3536 35.6952 57.3576 34.3015 57.3581 32.9078C57.3586 31.6931 57.3618 30.4784 57.3683 29.2637C57.3716 28.6205 57.3736 27.9773 57.3723 27.334C57.3711 26.7285 57.3736 26.1232 57.3788 25.5177C57.3801 25.2955 57.3801 25.0734 57.3786 24.8512C57.3768 24.5477 57.3803 24.2442 57.384 23.9407C57.3844 23.7708 57.3848 23.601 57.3853 23.4261C57.5179 22.8109 57.7785 22.5744 58.2651 22.1875C58.7357 22.1133 59.1153 22.0848 59.5841 22.0948C59.7098 22.0948 59.8355 22.0948 59.9651 22.0947C60.23 22.0956 60.4949 22.0983 60.7597 22.1029C61.1648 22.1094 61.5694 22.1093 61.9745 22.1082C62.2324 22.1098 62.4903 22.1119 62.7481 22.1143C62.8689 22.1143 62.9897 22.1144 63.1141 22.1144C63.6161 22.1254 63.9856 22.1544 64.4302 22.3972C64.891 22.8923 64.8485 23.4106 64.8523 24.0534C64.8546 24.3443 64.8546 24.3443 64.8569 24.641C64.8579 24.8562 64.8588 25.0715 64.8597 25.2867C64.8612 25.5131 64.8627 25.7394 64.8644 25.9658C64.8686 26.5807 64.8719 27.1957 64.875 27.8106C64.8784 28.4531 64.8827 29.0956 64.8869 29.7381C64.8947 30.955 64.9017 32.1718 64.9084 33.3887C64.9161 34.7739 64.9247 36.1592 64.9334 37.5445C64.9512 40.3942 64.9677 43.244 64.9838 46.0938C67.0463 46.0938 69.1088 46.0938 71.2338 46.0938C71.2338 34.8532 71.2338 23.6125 71.2338 12.0313C50.5057 12.0313 29.7776 12.0313 8.42134 12.0313ZM59.9838 24.6875C59.9838 31.7516 59.9838 38.8157 59.9838 46.0938C60.7573 46.0938 61.5307 46.0938 62.3276 46.0938C62.3276 39.0297 62.3276 31.9657 62.3276 24.6875C61.5542 24.6875 60.7807 24.6875 59.9838 24.6875ZM39.2026 31.0938C39.2026 36.0438 39.2026 40.9938 39.2026 46.0938C39.9245 46.0938 40.6463 46.0938 41.3901 46.0938C41.3901 41.1438 41.3901 36.1938 41.3901 31.0938C40.6682 31.0938 39.9463 31.0938 39.2026 31.0938ZM49.6713 34.375C49.6713 38.2422 49.6713 42.1094 49.6713 46.0938C50.3932 46.0938 51.1151 46.0938 51.8588 46.0938C51.8588 42.2266 51.8588 38.3594 51.8588 34.375C51.137 34.375 50.4151 34.375 49.6713 34.375ZM28.8901 39.375C28.8901 41.5922 28.8901 43.8094 28.8901 46.0938C29.612 46.0938 30.3338 46.0938 31.0776 46.0938C31.0776 43.8766 31.0776 41.6594 31.0776 39.375C30.3557 39.375 29.6338 39.375 28.8901 39.375Z" fill="black"/>
<path d="M21.6839 14.6199C21.8541 14.6148 22.0243 14.6096 22.1996 14.6044C23.4496 14.5959 23.4496 14.5959 24.0789 15.0472C24.3596 15.4695 24.3596 15.4695 24.4964 16.0457C24.5544 16.2165 24.6124 16.3873 24.6721 16.5633C25.4377 16.9235 26.0436 16.8955 26.8596 16.7195C26.9628 16.668 27.0659 16.6164 27.1721 16.5633C27.6679 16.4689 27.9809 16.476 28.4051 16.7635C28.7361 17.0502 29.0488 17.3485 29.3596 17.657C29.4759 17.7692 29.5921 17.8814 29.7118 17.997C30.7558 19.0186 30.7558 19.0186 30.7952 19.8055C30.7936 20.2606 30.7554 20.4954 30.5803 20.9285C30.4177 21.5416 30.4987 21.9181 30.7158 22.5069C30.9792 22.898 31.1643 22.9428 31.6155 23.0574C31.7345 23.0737 31.8536 23.09 31.9762 23.1069C32.5514 23.3929 32.7124 23.9589 32.9534 24.532C33.0881 24.4221 33.2229 24.3121 33.3617 24.1988C34.6182 23.1802 35.8977 22.2006 37.2053 21.2486C37.3229 21.1629 37.4404 21.0772 37.5615 20.9889C37.7361 20.8631 37.7361 20.8631 37.9142 20.7347C38.157 20.5516 38.3934 20.3596 38.6237 20.1611C38.7413 20.0608 38.8589 19.9606 38.98 19.8573C39.1347 19.7192 39.1347 19.7192 39.2926 19.5783C39.8347 19.289 40.328 19.2943 40.9221 19.3758C41.3424 19.5121 41.7156 19.6522 42.1142 19.8335C42.2242 19.8814 42.3342 19.9293 42.4475 19.9786C42.6817 20.0809 42.9155 20.1842 43.1489 20.2886C43.5135 20.4515 43.8792 20.6116 44.2453 20.771C45.3394 21.2487 46.429 21.7358 47.5164 22.2286C47.68 22.3019 47.8437 22.3752 48.0123 22.4508C48.3098 22.5846 48.6065 22.7205 48.9019 22.859C49.8822 23.3028 49.8822 23.3028 50.9221 23.1258C51.2897 22.8466 51.2897 22.8466 51.6057 22.4812C52.0286 22.0338 52.4462 21.602 52.9143 21.202C53.5824 20.6292 54.2256 20.0312 54.8685 19.4305C55.4133 18.9238 55.9717 18.4413 56.5471 17.9695C56.2909 17.9115 56.2909 17.9115 56.0296 17.8523C55.4534 17.657 55.4534 17.657 55.1507 17.3934C54.9124 16.8749 54.9142 16.5017 54.9846 15.9383C55.3529 15.4385 55.6368 15.2667 56.2346 15.157C56.934 15.1175 57.6339 15.1209 58.3343 15.118C58.5261 15.1147 58.718 15.1115 58.9156 15.1082C59.1006 15.1074 59.2856 15.1066 59.4762 15.1058C59.7292 15.1036 59.7292 15.1036 59.9874 15.1013C60.5246 15.1655 60.8082 15.2956 61.2346 15.6258C61.54 16.0694 61.5816 16.3662 61.5063 16.8929C61.4805 17.0773 61.4805 17.0773 61.4541 17.2655C61.4333 17.3947 61.4124 17.5239 61.3909 17.657C61.3702 17.787 61.3496 17.9171 61.3283 18.051C61.2602 18.4547 61.1849 18.8565 61.1077 19.2586C61.0838 19.3947 61.06 19.5309 61.0354 19.6712C60.8856 20.4479 60.7394 21.0029 60.1409 21.5633C59.6094 21.7056 59.2314 21.7656 58.6956 21.6316C58.3085 21.3137 58.167 20.9165 57.9534 20.4695C57.8842 20.5348 57.815 20.6001 57.7437 20.6673C57.4232 20.9695 57.1024 21.2713 56.7815 21.573C56.6728 21.6757 56.564 21.7783 56.4519 21.884C55.8125 22.485 55.1632 23.0712 54.5006 23.6464C53.9565 24.1235 53.4301 24.6196 52.9018 25.114C52.7363 25.2679 52.5697 25.4208 52.402 25.5723C52.196 25.7603 51.9965 25.9554 51.798 26.1513C51.2368 26.5038 50.7785 26.5035 50.1409 26.407C49.4528 26.1829 48.7984 25.8919 48.1377 25.5977C47.9457 25.5142 47.7535 25.4308 47.5613 25.3477C47.0578 25.1294 46.5556 24.9085 46.0535 24.6869C45.4443 24.4185 44.8337 24.1529 44.2233 23.8872C43.7482 23.6804 43.2734 23.473 42.7991 23.2642C42.628 23.1891 42.457 23.1141 42.2807 23.0367C42.1311 22.9708 41.9815 22.9049 41.8274 22.837C41.3716 22.6491 40.9298 22.4731 40.4534 22.3445C40.0065 22.5625 40.0065 22.5625 39.5843 22.95C39.4063 23.0968 39.228 23.2432 39.0496 23.3895C38.951 23.4716 38.8524 23.5538 38.7508 23.6385C38.1178 24.1557 37.4625 24.6441 36.8108 25.1375C36.5268 25.3537 36.2428 25.57 35.9588 25.7863C35.0441 26.4813 34.126 27.1718 33.2055 27.8591C32.8289 28.1403 32.4543 28.424 32.0812 28.7099C31.994 28.7764 31.9068 28.8428 31.817 28.9113C31.5838 29.0893 31.3512 29.2679 31.1187 29.4466C30.7659 29.6883 30.7659 29.6883 30.4534 29.6883C30.542 30.3336 30.542 30.3335 30.7659 30.9383C30.9077 31.9665 30.9077 31.9665 30.5602 32.5099C30.2769 32.835 29.9809 33.1373 29.6721 33.4383C29.5265 33.5921 29.5265 33.5921 29.378 33.7489C28.5569 34.6074 28.5569 34.6074 27.9534 34.8445C27.3998 34.8043 26.977 34.7531 26.4886 34.4832C25.8977 34.3285 25.5369 34.4983 24.9969 34.7585C24.5161 35.1173 24.3717 35.5296 24.1955 36.0909C24.002 36.5033 23.8411 36.5533 23.4221 36.7195C22.8542 36.7884 22.2849 36.7774 21.7132 36.7781C21.5586 36.7819 21.404 36.7858 21.2447 36.7897C20.5484 36.7925 20.1089 36.7915 19.4976 36.4375C19.2034 36.0945 19.2034 36.0945 19.0178 35.5477C18.6529 34.843 18.3044 34.699 17.5725 34.4447C16.9757 34.3419 16.6037 34.5718 16.0784 34.8445C15.3826 34.8741 15.0361 34.6358 14.5257 34.2C14.3118 34.0006 14.1003 33.7987 13.8909 33.5945C13.7862 33.494 13.6814 33.3935 13.5735 33.29C12.6523 32.3895 12.6523 32.3895 12.6116 31.6707C12.6409 31.0945 12.6409 31.0945 12.8069 30.6844C12.9897 30.2213 12.9388 30.0042 12.7971 29.532C12.7681 29.3999 12.7391 29.2678 12.7093 29.1316C12.4118 28.6272 12.0715 28.5041 11.5429 28.2808C11.1924 28.1045 11.0087 27.9665 10.7659 27.657C10.6649 27.014 10.6935 26.3637 10.6975 25.7137C10.6928 25.4452 10.6928 25.4452 10.6881 25.1714C10.6882 24.9993 10.6883 24.8272 10.6884 24.6498C10.6881 24.4924 10.6878 24.335 10.6875 24.1729C10.7871 23.6368 10.9668 23.459 11.3909 23.1258C11.5746 23.0581 11.7583 22.9904 11.9475 22.9207C12.5236 22.698 12.5236 22.698 12.7971 22.1395C12.9867 21.4404 12.965 20.9615 12.6409 20.3133C12.5538 19.7691 12.5318 19.3862 12.8411 18.9137C13.1265 18.5848 13.427 18.2778 13.7346 17.9695C13.836 17.8535 13.9373 17.7375 14.0416 17.618C14.9046 16.6611 14.9046 16.6611 15.6389 16.5437C16.2069 16.5624 16.5048 16.6606 17.0159 16.8758C17.4888 16.849 17.4888 16.849 17.9534 16.7195C18.0887 16.6937 18.2241 16.668 18.3635 16.6414C18.8855 16.3118 18.9964 15.8954 19.2046 15.3279C19.6521 14.3836 20.7997 14.6246 21.6839 14.6199ZM21.2346 17.3445C21.1734 17.5347 21.1122 17.7248 21.0491 17.9207C20.7147 18.604 20.3145 18.7734 19.6135 19.034C19.4415 19.0898 19.2695 19.1456 19.0923 19.203C18.5705 19.3615 18.5705 19.3615 18.0956 19.6413C17.5674 19.8774 17.3743 19.8502 16.8303 19.6883C16.4446 19.5618 16.4446 19.5618 16.0784 19.532C15.7832 19.7181 15.7832 19.7181 15.6096 20.0008C15.6543 20.3681 15.6543 20.3681 15.7659 20.782C15.8793 21.7269 15.5938 22.3509 15.1854 23.1801C15.0198 23.522 14.8923 23.8515 14.7698 24.2098C14.4259 24.8579 14.0775 25.0042 13.4221 25.3133C13.3172 25.6701 13.3172 25.6701 13.4221 26.0945C13.6802 26.2591 13.6802 26.2591 13.9983 26.407C14.839 26.8683 15.0094 27.5687 15.2959 28.4444C15.4385 28.9281 15.4385 28.9281 15.7659 29.3758C15.8003 30.086 15.7828 30.7142 15.6096 31.407C15.8713 31.6784 15.8713 31.6784 16.2346 31.8758C16.497 31.7765 16.7572 31.6716 17.0159 31.5633C18.3173 31.5898 19.7062 32.2407 20.7659 32.9695C21.0262 33.3179 21.1921 33.6731 21.3909 34.0633C21.6487 34.0633 21.9065 34.0633 22.1721 34.0633C22.2688 33.7781 22.2688 33.7781 22.3675 33.4871C22.8334 32.5385 23.7346 32.3669 24.6721 32.032C24.8397 31.9353 25.0073 31.8387 25.18 31.7391C25.9182 31.437 26.5819 31.6269 27.3284 31.8758C27.5887 31.6938 27.5887 31.6938 27.7971 31.407C27.7525 31.0397 27.7525 31.0397 27.6409 30.6258C27.5275 29.6809 27.8126 29.0566 28.2219 28.2277C28.3877 27.8847 28.5094 27.5585 28.6272 27.198C28.9895 26.5405 29.4573 26.3559 30.1409 26.0945C30.1409 25.8367 30.1409 25.5789 30.1409 25.3133C30.0484 25.2804 29.956 25.2476 29.8607 25.2138C29.2023 24.9249 28.8229 24.698 28.4783 24.0499C28.2871 23.5374 28.1191 23.0218 27.9534 22.5008C27.8673 22.3316 27.8673 22.3316 27.7794 22.159C27.4865 21.5602 27.5893 20.9336 27.7971 20.323C27.8487 20.2167 27.9003 20.1103 27.9534 20.0008C27.7689 19.7412 27.7689 19.7412 27.4846 19.532C27.1237 19.562 27.1237 19.562 26.7425 19.6883C26.1059 19.8357 25.7438 19.8652 25.1494 19.5381C24.8076 19.3551 24.8076 19.3551 24.3316 19.2134C22.9281 18.7539 22.9281 18.7539 22.5274 18.2662C22.3577 17.9207 22.3577 17.9207 22.1721 17.3445C21.8628 17.3445 21.5534 17.3445 21.2346 17.3445Z" fill="black"/>
<path d="M25.4241 20.9674C26.6043 21.9534 27.3857 23.3294 27.6409 24.8443C27.777 26.5484 27.4277 28.0044 26.3909 29.3756C26.0002 29.8053 26.0002 29.8053 25.6096 30.1568C25.4936 30.2632 25.3776 30.3695 25.258 30.4791C23.8086 31.5003 22.3528 31.6946 20.6096 31.5631C18.9061 31.1853 17.5447 30.1685 16.5471 28.7506C15.7575 27.3341 15.5791 25.7057 15.9538 24.1333C16.5654 22.2537 17.638 21.0637 19.3736 20.1391C21.3559 19.3364 23.7255 19.7542 25.4241 20.9674ZM19.2326 23.5553C18.622 24.4625 18.2927 25.2545 18.4685 26.3592C18.7962 27.4334 19.4744 28.2285 20.4534 28.7506C21.3409 29.0464 22.2879 29.0508 23.1487 28.6627C23.9577 28.1992 24.5007 27.562 24.8869 26.7193C25.0976 25.7082 25.0475 24.8017 24.5159 23.9068C23.8904 23.2297 23.1883 22.5737 22.2478 22.4481C20.9623 22.4297 20.1589 22.6496 19.2326 23.5553Z" fill="black"/>
</svg>
