<svg width="300" height="300" viewBox="0 0 300 300" fill="none" xmlns="http://www.w3.org/2000/svg">
<path d="M74.582 114.583H88.332V142.083H74.582V114.583ZM74.582 155.833H88.332V183.333H74.582V155.833ZM115.832 114.583H129.582V142.083H115.832V114.583ZM115.832 155.833H129.582V183.333H115.832V155.833ZM74.582 197.083H88.332V224.583H74.582V197.083ZM115.832 197.083H129.582V224.583H115.832V197.083Z" stroke="black" stroke-width="6"/>
<path d="M225.834 155.833C225.834 152.187 224.385 148.689 221.807 146.111C219.228 143.532 215.731 142.083 212.084 142.083H170.834V87.0833C170.834 83.4366 169.385 79.9393 166.807 77.3606C164.228 74.782 160.731 73.3333 157.084 73.3333H47.084C43.4373 73.3333 39.94 74.782 37.3613 77.3606C34.7827 79.9393 33.334 83.4366 33.334 87.0833V265.833H225.834V155.833ZM47.084 87.0833H157.084V252.083H47.084V87.0833ZM170.834 252.083V155.833H212.084V252.083H170.834Z" stroke="black" stroke-width="6"/>
<path d="M263.333 80.4764V69.5237H251.827C251.122 66.0957 249.761 62.836 247.819 59.924L255.978 51.7647L248.235 44.0214L240.075 52.1807C237.163 50.2387 233.904 48.8774 230.476 48.172V36.6667H219.523V48.172C216.095 48.8774 212.835 50.2387 209.923 52.1807L201.764 44.0214L194.021 51.7647L202.18 59.924C200.238 62.836 198.877 66.0957 198.171 69.5237H186.666V80.4764H198.171C198.883 83.9647 200.274 87.2064 202.18 90.076L194.021 98.2354L201.764 105.979L209.923 97.8194C212.835 99.7614 216.095 101.123 219.523 101.828V113.333H230.476V101.828C233.904 101.123 237.163 99.7614 240.075 97.8194L248.235 105.979L255.978 98.2354L247.819 90.076C249.761 87.164 251.122 83.9044 251.827 80.4764H263.333ZM224.999 91.4287C215.942 91.4287 208.571 84.0577 208.571 75C208.571 65.9424 215.942 58.5714 224.999 58.5714C234.057 58.5714 241.428 65.9424 241.428 75C241.428 84.0577 234.057 91.4287 224.999 91.4287Z" stroke="black" stroke-width="6"/>
</svg>
