<svg width="300" height="300" viewBox="0 0 300 300" fill="none" xmlns="http://www.w3.org/2000/svg">
<path d="M196.913 36.6666H103.086C94.0173 36.6666 86.666 44.0663 86.666 53.1943V246.806C86.666 255.934 94.0173 263.333 103.086 263.333H196.913C205.981 263.333 213.333 255.934 213.333 246.806V53.1943C213.333 44.0663 205.981 36.6666 196.913 36.6666Z" stroke="black" stroke-width="6" stroke-linecap="round" stroke-linejoin="round"/>
<path d="M86.666 226.667H213.333V246.667C213.333 255.871 205.871 263.333 196.666 263.333H103.333C94.128 263.333 86.666 255.871 86.666 246.667V226.667Z" stroke="black" stroke-width="6"/>
<g filter="url(#filter0_d_369_959)">
<path d="M150.001 250C153.683 250 156.667 247.015 156.667 243.333C156.667 239.652 153.683 236.667 150.001 236.667C146.319 236.667 143.334 239.652 143.334 243.333C143.334 247.015 146.319 250 150.001 250Z" fill="black"/>
<path d="M150 248.333C152.761 248.333 155 246.095 155 243.333C155 240.572 152.761 238.333 150 238.333C147.239 238.333 145 240.572 145 243.333C145 246.095 147.239 248.333 150 248.333Z" stroke="black" stroke-width="6"/>
</g>
<path d="M138.666 63.6667V61.642C139.106 62.25 139.333 62.957 139.333 63.6667V77.6667C139.333 78.3763 139.106 79.0833 138.666 79.6913V77.6667V63.6667ZM135.333 60C135.919 60 136.485 60.118 136.997 60.3333H135.333H120.666H119.002C119.514 60.118 120.08 60 120.666 60H135.333ZM117.333 61.642V63.6667V77.6667V79.6913C116.893 79.0833 116.666 78.3763 116.666 77.6667V63.6667C116.666 62.957 116.893 62.25 117.333 61.642ZM120.666 81.3333C120.08 81.3333 119.514 81.2153 119.002 81H120.666H135.333H136.997C136.485 81.2153 135.919 81.3333 135.333 81.3333H120.666ZM138.666 105.667V103.642C139.106 104.25 139.333 104.957 139.333 105.667V119.667C139.333 120.376 139.106 121.083 138.666 121.691V119.667V105.667ZM135.333 102C135.919 102 136.485 102.118 136.997 102.333H135.333H120.666H119.002C119.514 102.118 120.08 102 120.666 102H135.333ZM117.333 103.642V105.667V119.667V121.691C116.893 121.083 116.666 120.376 116.666 119.667V105.667C116.666 104.957 116.893 104.25 117.333 103.642ZM120.666 123.333C120.08 123.333 119.514 123.215 119.002 123H120.666H135.333H136.997C136.485 123.215 135.919 123.333 135.333 123.333H120.666ZM164.666 60.3333H163.002C163.514 60.118 164.08 60 164.666 60H179.333C179.919 60 180.485 60.118 180.997 60.3333H179.333H164.666ZM160.666 63.6667C160.666 62.957 160.893 62.25 161.333 61.642V63.6667V77.6667V79.6913C160.893 79.0833 160.666 78.3763 160.666 77.6667V63.6667ZM164.666 81.3333C164.08 81.3333 163.514 81.2153 163.002 81H164.666H179.333H180.997C180.485 81.2153 179.919 81.3333 179.333 81.3333H164.666ZM183.333 77.6667C183.333 78.3763 183.106 79.0833 182.666 79.6913V77.6667V63.6667V61.642C183.106 62.25 183.333 62.957 183.333 63.6667V77.6667ZM182.666 105.667V103.642C183.106 104.25 183.333 104.957 183.333 105.667V119.667C183.333 120.376 183.106 121.083 182.666 121.691V119.667V105.667ZM179.333 102C179.919 102 180.485 102.118 180.997 102.333H179.333H164.666H163.002C163.514 102.118 164.08 102 164.666 102H179.333ZM161.333 103.642V105.667V119.667V121.691C160.893 121.083 160.666 120.376 160.666 119.667V105.667C160.666 104.957 160.893 104.25 161.333 103.642ZM164.666 123.333C164.08 123.333 163.514 123.215 163.002 123H164.666H179.333H180.997C180.485 123.215 179.919 123.333 179.333 123.333H164.666Z" stroke="black" stroke-width="6"/>
<path d="M138.666 147.333V145.122C139.098 145.773 139.333 146.541 139.333 147.333V162C139.333 162.792 139.098 163.56 138.666 164.211V162V147.333ZM135.333 143.333C136.125 143.333 136.893 143.568 137.544 144H135.333H120.666H118.455C119.106 143.568 119.874 143.333 120.666 143.333H135.333ZM117.333 145.122V147.333V162V164.211C116.901 163.56 116.666 162.792 116.666 162V147.333C116.666 146.541 116.901 145.773 117.333 145.122ZM120.666 166C119.874 166 119.106 165.765 118.455 165.333H120.666H135.333H137.544C136.893 165.765 136.125 166 135.333 166H120.666ZM138.666 191.333V189.122C139.098 189.773 139.333 190.541 139.333 191.333V206C139.333 206.792 139.098 207.56 138.666 208.211V206V191.333ZM135.333 187.333C136.125 187.333 136.893 187.568 137.544 188H135.333H120.666H118.455C119.106 187.568 119.874 187.333 120.666 187.333H135.333ZM117.333 189.122V191.333V206V208.211C116.901 207.56 116.666 206.792 116.666 206V191.333C116.666 190.541 116.901 189.773 117.333 189.122ZM120.666 210C119.874 210 119.106 209.765 118.455 209.333H120.666H135.333H137.544C136.893 209.765 136.125 210 135.333 210H120.666ZM164.666 144H162.455C163.106 143.568 163.874 143.333 164.666 143.333H179.333C180.125 143.333 180.893 143.568 181.544 144H179.333H164.666ZM160.666 147.333C160.666 146.541 160.901 145.773 161.333 145.122V147.333V162V164.211C160.901 163.56 160.666 162.792 160.666 162V147.333ZM164.666 166C163.874 166 163.106 165.765 162.455 165.333H164.666H179.333H181.544C180.893 165.765 180.125 166 179.333 166H164.666ZM183.333 162C183.333 162.792 183.098 163.56 182.666 164.211V162V147.333V145.122C183.098 145.773 183.333 146.541 183.333 147.333V162ZM182.666 191.333V189.122C183.098 189.773 183.333 190.541 183.333 191.333V206C183.333 206.792 183.098 207.561 182.666 208.211V206V191.333ZM179.333 187.333C180.125 187.333 180.893 187.568 181.544 188H179.333H164.666H162.455C163.106 187.568 163.874 187.333 164.666 187.333H179.333ZM161.333 189.122V191.333V206V208.211C160.901 207.56 160.666 206.792 160.666 206V191.333C160.666 190.541 160.901 189.773 161.333 189.122ZM164.666 210C163.874 210 163.106 209.765 162.455 209.333H164.666H179.333H181.544C180.893 209.765 180.125 210 179.333 210H164.666Z" stroke="black" stroke-width="6"/>
<defs>
<filter id="filter0_d_369_959" x="138" y="235.333" width="24" height="24" filterUnits="userSpaceOnUse" color-interpolation-filters="sRGB">
<feFlood flood-opacity="0" result="BackgroundImageFix"/>
<feColorMatrix in="SourceAlpha" type="matrix" values="0 0 0 0 0 0 0 0 0 0 0 0 0 0 0 0 0 0 127 0" result="hardAlpha"/>
<feOffset dy="4"/>
<feGaussianBlur stdDeviation="2"/>
<feComposite in2="hardAlpha" operator="out"/>
<feColorMatrix type="matrix" values="0 0 0 0 0 0 0 0 0 0 0 0 0 0 0 0 0 0 0.25 0"/>
<feBlend mode="normal" in2="BackgroundImageFix" result="effect1_dropShadow_369_959"/>
<feBlend mode="normal" in="SourceGraphic" in2="effect1_dropShadow_369_959" result="shape"/>
</filter>
</defs>
</svg>
