<svg width="48" height="48" viewBox="0 0 48 48" fill="none" xmlns="http://www.w3.org/2000/svg">
<path d="M19.6131 1.85801C19.7048 1.85739 19.7965 1.85678 19.891 1.85614C20.1916 1.85431 20.4922 1.8532 20.7928 1.85226C20.8959 1.85188 20.999 1.8515 21.1052 1.85111C21.6498 1.84916 22.1944 1.84781 22.7389 1.84693C23.3012 1.84589 23.8635 1.84266 24.4258 1.83895C24.8588 1.8365 25.2918 1.83571 25.7248 1.83537C25.9322 1.83492 26.1396 1.83383 26.347 1.83209C26.6364 1.82981 26.9258 1.82989 27.2153 1.83054C27.3008 1.82934 27.3863 1.82814 27.4744 1.8269C27.8407 1.82992 28.0788 1.8526 28.4122 2.01379C28.6706 2.35073 28.6551 2.65933 28.6463 3.06671C28.6463 3.14906 28.6464 3.23141 28.6465 3.31626C28.6461 3.58821 28.6425 3.86 28.6388 4.13193C28.6379 4.32056 28.6373 4.5092 28.6368 4.69783C28.635 5.19414 28.6304 5.69038 28.6252 6.18666C28.6204 6.69314 28.6183 7.19964 28.6159 7.70615C28.6109 8.69983 28.6029 9.69347 28.593 10.6871C28.7012 10.6865 28.8094 10.6859 28.9209 10.6852C29.9403 10.6795 30.9597 10.6753 31.9791 10.6725C32.5032 10.6711 33.0273 10.6691 33.5514 10.6659C34.0571 10.6628 34.5629 10.6611 35.0686 10.6604C35.2616 10.6599 35.4546 10.6589 35.6476 10.6574C35.9178 10.6553 36.188 10.655 36.4582 10.6552C36.5381 10.6542 36.6179 10.6532 36.7002 10.6521C37.1371 10.6544 37.4261 10.6832 37.7805 10.9684C37.9153 11.2378 37.8858 11.468 37.8856 11.7692C37.8857 11.8648 37.8857 11.8648 37.8858 11.9623C37.886 12.1768 37.8855 12.3912 37.8849 12.6057C37.8849 12.7591 37.8849 12.9124 37.885 13.0658C37.885 13.483 37.8845 13.9002 37.8838 14.3174C37.8832 14.7531 37.8832 15.1887 37.883 15.6244C37.8828 16.4498 37.882 17.2752 37.8811 18.1006C37.88 19.0401 37.8795 19.9797 37.879 20.9192C37.878 22.8523 37.8764 24.7853 37.8743 26.7184C37.9499 26.7171 38.0256 26.7159 38.1035 26.7146C38.2036 26.7137 38.3037 26.7127 38.4068 26.7118C38.5056 26.7105 38.6044 26.7093 38.7063 26.7081C39.7699 26.7454 40.7355 27.3343 41.4536 28.0931C42.2027 29.0544 42.4712 30.1157 42.3743 31.3121C42.2139 32.242 41.7791 32.9844 41.2493 33.7496C41.3118 33.7691 41.3743 33.7885 41.4386 33.8086C42.867 34.286 43.9394 35.1189 44.6243 36.4683C44.9026 37.0872 45.1058 37.6266 45.1022 38.3097C45.1019 38.41 45.1016 38.5103 45.1013 38.6136C45.1005 38.7178 45.0997 38.822 45.0989 38.9293C45.0985 39.0349 45.0981 39.1405 45.0976 39.2494C45.0965 39.5099 45.095 39.7704 45.093 40.0308C45.1845 40.0276 45.276 40.0243 45.3703 40.021C45.4895 40.0184 45.6088 40.0159 45.7317 40.0133C45.8503 40.01 45.9688 40.0067 46.091 40.0034C46.4055 40.0308 46.4055 40.0308 46.5636 40.1403C46.7348 40.3791 46.7225 40.5462 46.7232 40.8387C46.7241 40.9466 46.725 41.0546 46.7259 41.1658C46.725 41.3407 46.725 41.3407 46.7242 41.5191C46.7244 41.6388 46.7247 41.7584 46.725 41.8816C46.7252 42.1348 46.7248 42.3879 46.7235 42.641C46.7219 42.9654 46.7228 43.2898 46.7245 43.6142C46.7257 43.9236 46.7248 44.2331 46.7242 44.5426C46.7247 44.6592 46.7253 44.7758 46.7259 44.8959C46.725 45.0038 46.7241 45.1118 46.7232 45.223C46.723 45.3181 46.7227 45.4132 46.7225 45.5112C46.6814 45.7859 46.6238 45.8657 46.4055 46.0308C46.1181 46.1746 45.8174 46.1375 45.502 46.1367C45.3893 46.1369 45.3893 46.1369 45.2744 46.1372C45.0199 46.1376 44.7655 46.1374 44.511 46.1371C44.3278 46.1373 44.1446 46.1375 43.9614 46.1378C43.4559 46.1384 42.9504 46.1383 42.4449 46.1382C41.9005 46.1382 41.3562 46.1387 40.8118 46.1392C39.7445 46.14 38.6772 46.1402 37.61 46.1403C36.7428 46.1403 35.8757 46.1405 35.0085 46.1408C34.7592 46.1409 34.5098 46.141 34.2605 46.141C34.1675 46.1411 34.1675 46.1411 34.0727 46.1411C32.3286 46.1417 30.5844 46.1421 28.8403 46.142C28.7745 46.142 28.7087 46.142 28.6409 46.142C28.3074 46.142 27.9739 46.142 27.6404 46.142C27.5741 46.142 27.5079 46.142 27.4396 46.142C27.3057 46.142 27.1717 46.142 27.0378 46.142C24.9533 46.1419 22.8688 46.1426 20.7843 46.1439C18.444 46.1453 16.1037 46.1461 13.7634 46.1461C12.5236 46.146 11.2839 46.1463 10.0441 46.1473C8.98867 46.1481 7.93322 46.1483 6.87778 46.1477C6.33888 46.1474 5.79999 46.1474 5.2611 46.1482C4.76829 46.1489 4.27549 46.1488 3.78269 46.148C3.60389 46.1479 3.4251 46.148 3.24631 46.1485C3.00425 46.1492 2.76222 46.1487 2.52016 46.1479C2.44991 46.1484 2.37965 46.1489 2.30727 46.1493C1.96319 46.147 1.69207 46.1396 1.40555 45.9371C1.28283 45.6917 1.29854 45.5085 1.29669 45.2336C1.29579 45.1257 1.29489 45.0177 1.29396 44.9065C1.29356 44.7894 1.29316 44.6724 1.29275 44.5517C1.29222 44.432 1.29168 44.3122 1.29113 44.1888C1.29025 43.9351 1.2896 43.6814 1.28927 43.4278C1.28876 43.1026 1.28651 42.7775 1.28384 42.4524C1.28167 42.1424 1.28149 41.8324 1.28103 41.5224C1.27988 41.4055 1.27872 41.2886 1.27753 41.1682C1.27781 41.06 1.27809 40.9517 1.27838 40.8402C1.27804 40.7448 1.2777 40.6494 1.27734 40.5511C1.3118 40.3121 1.3118 40.3121 1.43485 40.1402C1.69693 39.9591 1.95571 40.0047 2.26687 40.0133C2.38615 40.0158 2.50543 40.0183 2.62832 40.021C2.76555 40.0259 2.76555 40.0259 2.90555 40.0308C2.90358 39.9686 2.90162 39.9063 2.8996 39.8422C2.83673 37.5479 2.83673 37.5479 3.28055 36.6558C3.31342 36.583 3.34629 36.5101 3.38016 36.435C4.01909 35.1461 5.09276 34.3926 6.3743 33.8433C6.4998 33.7819 6.625 33.7197 6.7493 33.6559C6.67461 33.5654 6.67461 33.5654 6.59842 33.4731C5.81427 32.47 5.49551 31.4607 5.6243 30.1871C5.82556 28.9479 6.48459 28.052 7.48208 27.3204C8.15108 26.8848 8.79537 26.7037 9.59109 26.7125C9.69128 26.7133 9.79146 26.7142 9.89468 26.7151C9.97045 26.7161 10.0462 26.7172 10.1243 26.7184C10.124 26.6342 10.1238 26.5501 10.1235 26.4634C10.1173 24.4107 10.1126 22.3581 10.1097 20.3054C10.1083 19.3127 10.1063 18.3201 10.1031 17.3274C10.1003 16.4616 10.0985 15.5958 10.0978 14.73C10.0975 14.2721 10.0966 13.8142 10.0946 13.3563C10.0926 12.9241 10.0921 12.492 10.0925 12.0599C10.0924 11.9024 10.0919 11.7449 10.0908 11.5874C10.0729 8.86716 10.9181 6.4577 12.843 4.4996C14.7143 2.6874 17.041 1.86566 19.6131 1.85801ZM13.968 5.4371C13.8801 5.51161 13.8801 5.51161 13.7904 5.58762C12.4337 6.82361 11.6027 8.79576 11.5027 10.6074C11.487 11.0436 11.486 11.4797 11.4852 11.9161C11.4839 12.0826 11.4825 12.249 11.481 12.4155C11.4773 12.8635 11.4755 13.3114 11.4742 13.7594C11.4734 14.0397 11.4723 14.3199 11.471 14.6002C11.4672 15.4784 11.4644 16.3566 11.4634 17.2348C11.4621 18.2465 11.4571 19.2581 11.449 20.2698C11.4429 21.054 11.4401 21.8382 11.4397 22.6224C11.4394 23.09 11.4378 23.5576 11.4327 24.0252C11.4281 24.4642 11.4275 24.903 11.43 25.342C11.4302 25.5029 11.429 25.6638 11.4262 25.8247C11.3804 26.6702 11.3804 26.6702 11.7176 27.4036C11.9318 27.5472 12.1376 27.6492 12.3743 27.7496C13.2652 28.5562 13.622 29.5976 13.689 30.7749C13.6829 31.7438 13.3779 32.4897 12.843 33.2809C12.7485 33.4366 12.6546 33.5928 12.5618 33.7496C12.6657 33.7889 12.6657 33.7889 12.7716 33.8291C14.1477 34.3728 15.2593 35.1134 15.9368 36.4683C16.1458 36.2593 16.2414 36.0443 16.3646 35.7785C16.7176 35.0221 17.1092 34.4253 17.718 33.8433C17.7906 33.7665 17.7906 33.7665 17.8645 33.6881C18.6407 32.9281 19.8617 32.4619 20.9055 32.2496C20.8243 32.1587 20.7431 32.0678 20.6595 31.9742C19.7132 30.865 19.1551 29.667 19.195 28.1861C19.3046 27.0031 19.7244 25.7543 20.6243 24.9371C21.9321 23.8567 23.291 23.5966 24.9368 23.7184C25.712 23.8642 26.3439 24.2315 26.9993 24.6559C27.0612 24.6868 27.123 24.7177 27.1868 24.7496C27.1868 17.6649 27.1868 10.5802 27.1868 3.28085C20.0183 2.73389 20.0183 2.73389 13.968 5.4371ZM28.593 12.0934C28.5681 14.663 28.5681 14.663 28.546 17.2326C28.5376 18.281 28.5288 19.3295 28.5181 20.3779C28.5103 21.1416 28.5036 21.9053 28.4981 22.6691C28.4951 23.0731 28.4916 23.477 28.4869 23.881C28.4825 24.2621 28.4795 24.6432 28.4775 25.0244C28.4765 25.1634 28.475 25.3024 28.473 25.4415C28.4621 26.2153 28.5135 26.926 28.7164 27.6774C28.9871 28.7736 28.6693 30.019 28.1082 30.9726C27.8086 31.4022 27.4583 31.7816 27.093 32.1559C27.3841 32.3127 27.6735 32.4115 27.9895 32.5074C29.0217 32.8498 29.7925 33.3594 30.5618 34.1246C30.6136 34.1732 30.6655 34.2218 30.7189 34.2718C31.1331 34.6983 31.3672 35.233 31.6198 35.7643C31.7986 36.1446 31.7986 36.1446 32.0618 36.4683C32.0983 36.4037 32.1348 36.339 32.1724 36.2724C32.9683 34.9355 34.0189 34.3003 35.4368 33.7496C35.3005 33.5196 35.163 33.2921 35.0149 33.0695C34.426 32.1631 34.1663 31.1686 34.3623 30.0988C34.6018 29.0474 35.0067 28.2983 35.8118 27.5621C36.1366 27.3765 36.1366 27.3765 36.468 27.1871C36.468 22.2062 36.468 17.2252 36.468 12.0934C33.8693 12.0934 31.2705 12.0934 28.593 12.0934ZM21.2805 26.2496C20.6987 27.1393 20.3898 28.0292 20.5906 29.1017C20.8605 30.0942 21.3825 30.8084 22.218 31.4059C23.0494 31.8578 23.9092 32.0375 24.8449 31.8039C25.8107 31.467 26.5955 30.9244 27.0755 30.0055C27.5013 29.0696 27.608 28.2132 27.2509 27.2182C26.8422 26.2869 26.2709 25.6675 25.3528 25.2184C23.9037 24.6756 22.2755 25.0397 21.2805 26.2496ZM7.59305 29.0621C7.14662 29.7949 6.94203 30.4535 7.03055 31.3121C7.22602 32.0269 7.66721 32.6502 8.28958 33.0534C8.9846 33.4221 9.57623 33.5375 10.3473 33.3603C11.2333 33.0738 11.7744 32.545 12.2161 31.7457C12.4504 30.851 12.3683 30.1445 11.9348 29.3258C11.3944 28.6685 10.8354 28.1989 9.97452 28.0953C9.06412 28.0543 8.18835 28.3471 7.59305 29.0621ZM36.3743 28.9684C36.2786 29.067 36.2786 29.067 36.1809 29.1676C35.7973 29.7368 35.5258 30.435 35.6243 31.1246C35.8316 31.938 36.1655 32.5853 36.88 33.0527C37.6128 33.4478 38.2317 33.5473 39.044 33.3611C39.7654 33.1165 40.3534 32.617 40.7044 31.9416C41.036 31.1965 41.0671 30.6216 40.8157 29.8473C40.486 29.0248 39.995 28.574 39.1868 28.2184C38.1736 27.9002 37.0587 28.1431 36.3743 28.9684ZM18.3743 35.0621C17.1085 36.6309 17.1555 37.9186 17.1555 40.0308C21.6724 40.0308 26.1893 40.0308 30.843 40.0308C30.868 37.2264 30.868 37.2264 29.5273 34.9533C28.6291 34.1123 27.501 33.5575 26.2616 33.5455C26.1529 33.5443 26.0443 33.5431 25.9323 33.5419C25.8155 33.5412 25.6987 33.5405 25.5784 33.5398C25.4571 33.539 25.3358 33.5382 25.2108 33.5375C24.9539 33.5361 24.697 33.5351 24.4401 33.5344C24.1143 33.5334 23.7886 33.5302 23.4628 33.5264C23.1485 33.5234 22.8342 33.523 22.5198 33.5222C22.3469 33.5197 22.3469 33.5197 22.1705 33.5172C20.7412 33.5207 19.3715 34.0061 18.3743 35.0621ZM5.71805 35.8121C5.6407 35.8643 5.56336 35.9165 5.48367 35.9703C4.86932 36.5386 4.62366 37.1887 4.3118 37.9683C4.3118 38.649 4.3118 39.3296 4.3118 40.0308C7.86961 40.0308 11.4274 40.0308 15.093 40.0308C15.111 37.7804 15.111 37.7804 13.9615 36.0816C13.2922 35.4474 12.56 35.0561 11.6279 35.0455C11.5356 35.0443 11.4432 35.0431 11.348 35.0419C11.2486 35.0412 11.1492 35.0405 11.0468 35.0398C10.8921 35.0386 10.8921 35.0386 10.7342 35.0375C10.5157 35.0362 10.2972 35.0352 10.0786 35.0344C9.85634 35.0334 9.63405 35.0314 9.41176 35.0287C9.08957 35.0246 8.76744 35.0231 8.44522 35.0222C8.34713 35.0205 8.24905 35.0189 8.14799 35.0172C7.23732 35.0199 6.44862 35.2555 5.71805 35.8121ZM33.5395 36.6145C32.7826 37.6633 32.9055 38.7434 32.9055 40.0308C36.4634 40.0308 40.0212 40.0308 43.6868 40.0308C43.7161 37.749 43.7161 37.749 42.5618 35.9996C41.689 35.2607 40.6998 35.0034 39.5764 35.0123C39.4231 35.0118 39.4231 35.0118 39.2667 35.0112C39.0521 35.011 38.8375 35.0116 38.6229 35.0132C38.297 35.0152 37.9713 35.0132 37.6454 35.0108C37.4356 35.0111 37.2257 35.0116 37.0159 35.0123C36.9199 35.0115 36.8238 35.0108 36.7249 35.01C35.3701 35.0273 34.4071 35.607 33.5395 36.6145ZM2.6243 41.4371C2.6243 42.5199 2.6243 43.6027 2.6243 44.7183C16.7318 44.7183 30.8393 44.7183 45.3743 44.7183C45.3743 43.6355 45.3743 42.5527 45.3743 41.4371C31.2668 41.4371 17.1593 41.4371 2.6243 41.4371Z" fill="white"/>
<path d="M31.7545 14.3033C31.8157 14.3028 31.8768 14.3023 31.9398 14.3018C32.0689 14.3012 32.1981 14.3013 32.3272 14.3021C32.5244 14.3029 32.7214 14.3002 32.9185 14.2972C33.0442 14.2971 33.1699 14.2971 33.2955 14.2974C33.4666 14.2971 33.4666 14.2971 33.6412 14.2969C33.9921 14.3526 34.1023 14.4374 34.3125 14.7189C34.3803 15.0727 34.3481 15.2246 34.1569 15.5301C33.7345 15.9299 33.071 15.817 32.5312 15.8088C32.3525 15.8115 32.3525 15.8115 32.1702 15.8142C31.2005 15.8091 31.2005 15.8091 30.9023 15.5334C30.75 15.2814 30.75 15.2814 30.75 14.9416C30.9258 14.3482 31.1542 14.3081 31.7545 14.3033Z" fill="white"/>
<path d="M32.5273 18.2348C32.7067 18.2308 32.7067 18.2308 32.8897 18.2267C33.8676 18.2246 33.8676 18.2246 34.1621 18.4977C34.3145 18.7504 34.3145 18.7504 34.3203 19.0902C34.2089 19.4442 34.1601 19.51 33.8457 19.6879C33.4125 19.7497 32.9762 19.7356 32.5391 19.7348C32.4195 19.7374 32.2999 19.7401 32.1767 19.7428C31.1988 19.7449 31.1988 19.7449 30.9043 19.4718C30.752 19.2191 30.752 19.2191 30.7461 18.8793C31.0048 18.0575 31.8058 18.2333 32.5273 18.2348Z" fill="white"/>
<path d="M19.3493 18.2581C19.4291 18.2562 19.5088 18.2542 19.591 18.2522C20.0438 18.2494 20.3551 18.263 20.7204 18.5628C20.8536 18.8291 20.8436 19.0179 20.8141 19.3128C20.6239 19.5562 20.5105 19.673 20.2046 19.7363C20.1186 19.7367 20.0326 19.7371 19.944 19.7376C19.8496 19.7381 19.7553 19.7385 19.658 19.739C19.511 19.7369 19.511 19.7369 19.361 19.7346C19.263 19.7361 19.165 19.7375 19.064 19.739C18.9696 19.7386 18.8753 19.7381 18.778 19.7376C18.692 19.7372 18.606 19.7367 18.5175 19.7363C18.2118 19.6731 18.0989 19.5552 17.9079 19.3128C17.8607 18.9891 17.8689 18.8189 18.0309 18.5335C18.3838 18.1806 18.8839 18.2609 19.3493 18.2581Z" fill="white"/>
<path d="M23.5786 10.3532C23.6665 10.351 23.7543 10.3487 23.8448 10.3464C24.2824 10.3474 24.4976 10.3581 24.8589 10.6224C25.0317 10.8747 25.0317 10.8747 25.0317 11.2145C24.939 11.5274 24.9087 11.6239 24.6567 11.8122C24.3022 11.8722 23.9435 11.8556 23.5845 11.8532C23.4368 11.856 23.4368 11.856 23.2862 11.8589C23.144 11.8588 23.144 11.8588 22.9989 11.8587C22.869 11.859 22.869 11.859 22.7365 11.8592C22.4278 11.7977 22.3168 11.6829 22.1255 11.4372C22.0728 11.1091 22.0728 11.1091 22.1255 10.7809C22.5342 10.306 22.9965 10.3464 23.5786 10.3532Z" fill="white"/>
<path d="M23.5332 14.2974C23.6166 14.2971 23.7 14.2969 23.7859 14.2966C24.2377 14.3034 24.5829 14.317 24.9395 14.6255C25.0547 14.9916 25.0794 15.185 24.9127 15.5341C24.5084 15.8778 24.0932 15.8149 23.5801 15.8032C23.4821 15.8042 23.3841 15.8053 23.2831 15.8063C22.5626 15.7994 22.5626 15.7994 22.2868 15.5769C22.127 15.3755 22.127 15.3755 22.0742 15.1001C22.2235 14.2875 22.8476 14.2755 23.5332 14.2974Z" fill="white"/>
<path d="M19.3477 14.3206C19.4274 14.3187 19.5072 14.3167 19.5894 14.3147C20.0422 14.3119 20.3535 14.3255 20.7188 14.6253C20.8519 14.8916 20.842 15.0804 20.8125 15.3753C20.6217 15.6201 20.5093 15.736 20.2015 15.7973C20.1149 15.7971 20.0283 15.797 19.9391 15.7968C19.8443 15.7968 19.7495 15.7969 19.6518 15.797C19.5534 15.7951 19.4549 15.7932 19.3535 15.7913C19.2547 15.792 19.1559 15.7926 19.0541 15.7933C18.3312 15.7873 18.3312 15.7873 18.1154 15.6272C17.9256 15.3669 17.9173 15.1289 17.9062 14.8128C18.2129 14.2301 18.7688 14.3241 19.3477 14.3206Z" fill="white"/>
<path d="M23.5786 6.41571C23.6665 6.41347 23.7543 6.41124 23.8448 6.40894C24.2824 6.40987 24.4976 6.42061 24.8589 6.68488C25.0317 6.93719 25.0317 6.93719 25.0317 7.27704C24.939 7.58992 24.9087 7.68643 24.6567 7.87469C24.3022 7.93467 23.9435 7.91813 23.5845 7.91571C23.4368 7.91852 23.4368 7.91852 23.2862 7.92139C23.144 7.9213 23.144 7.9213 22.9989 7.9212C22.869 7.92146 22.869 7.92146 22.7365 7.92173C22.4278 7.86022 22.3168 7.74543 22.1255 7.49969C22.0728 7.17157 22.0728 7.17157 22.1255 6.84344C22.5342 6.3685 22.9965 6.4089 23.5786 6.41571Z" fill="white"/>
<path d="M19.3529 10.3595C19.4411 10.3568 19.5294 10.3542 19.6204 10.3514C20.0611 10.3502 20.2748 10.3552 20.6361 10.6257C20.8118 10.8751 20.8118 10.8751 20.8646 11.1622C20.7994 11.5026 20.7039 11.5971 20.4368 11.8126C20.081 11.8885 19.7218 11.8691 19.3587 11.8653C19.2607 11.8676 19.1627 11.8698 19.0617 11.8721C18.3491 11.8707 18.3491 11.8707 18.0257 11.5962C17.8607 11.2496 17.8914 11.0521 17.9993 10.6876C18.4036 10.3018 18.8233 10.358 19.3529 10.3595Z" fill="white"/>
<path d="M19.3529 6.42198C19.4411 6.41932 19.5294 6.41666 19.6204 6.41393C20.0611 6.41268 20.2748 6.41769 20.6361 6.68822C20.8118 6.93761 20.8118 6.93761 20.8646 7.22472C20.7994 7.56508 20.7039 7.65964 20.4368 7.87511C20.081 7.95098 19.7218 7.93165 19.3587 7.92784C19.2607 7.93008 19.1627 7.93231 19.0617 7.93462C18.3491 7.93325 18.3491 7.93325 18.0257 7.65868C17.8607 7.31211 17.8914 7.11458 17.9993 6.75011C18.4036 6.36429 18.8233 6.42054 19.3529 6.42198Z" fill="white"/>
<path d="M15.1758 10.3766C15.3021 10.3725 15.3021 10.3725 15.431 10.3683C15.8308 10.3645 16.0638 10.3703 16.4154 10.5747C16.5938 10.7809 16.5938 10.7809 16.6465 11.109C16.5852 11.4902 16.5163 11.5774 16.2188 11.8121C15.9827 11.8592 15.9827 11.8592 15.7203 11.8586C15.6255 11.8587 15.5307 11.8588 15.433 11.8588C15.3346 11.857 15.2362 11.8551 15.1348 11.8532C15.036 11.8538 14.9372 11.8545 14.8354 11.8552C14.1111 11.8492 14.1111 11.8492 13.8966 11.6858C13.7205 11.4494 13.6992 11.2604 13.6875 10.9684C13.8047 10.7047 13.8047 10.7047 13.9688 10.4996C14.37 10.3659 14.7554 10.3811 15.1758 10.3766Z" fill="white"/>
<path d="M23.5153 18.258C23.5898 18.256 23.6643 18.2541 23.7411 18.2521C24.2074 18.249 24.5415 18.2911 24.9391 18.5627C25.0362 18.8964 25.07 19.1105 24.9567 19.4416C24.8454 19.5939 24.8454 19.5939 24.6579 19.6877C24.303 19.7153 23.9473 19.7137 23.5915 19.7169C23.4926 19.7197 23.3938 19.7224 23.2919 19.7252C23.1967 19.726 23.1015 19.7268 23.0034 19.7276C22.8726 19.7296 22.8726 19.7296 22.7392 19.7317C22.4289 19.6742 22.3189 19.558 22.1266 19.3127C22.0794 18.989 22.0877 18.8188 22.2497 18.5334C22.5932 18.1898 23.0621 18.2609 23.5153 18.258Z" fill="white"/>
<path d="M15.1816 14.3086C15.2654 14.3063 15.3493 14.304 15.4356 14.3017C15.8335 14.2999 16.0655 14.3091 16.415 14.513C16.5938 14.7188 16.5938 14.7188 16.6465 15.0469C16.5852 15.4281 16.5163 15.5153 16.2188 15.75C15.9827 15.7971 15.9827 15.7971 15.7203 15.7965C15.6255 15.7966 15.5307 15.7967 15.433 15.7967C15.3346 15.7949 15.2362 15.793 15.1348 15.7911C15.036 15.7917 14.9372 15.7924 14.8354 15.7931C14.1114 15.7871 14.1114 15.7871 13.8963 15.6241C13.724 15.3914 13.705 15.192 13.6875 14.9063C13.7634 14.658 13.8212 14.5639 14.0433 14.4293C14.4103 14.2775 14.7895 14.3092 15.1816 14.3086Z" fill="white"/>
<path d="M15.1758 26.226C15.2803 26.2241 15.3849 26.2222 15.4926 26.2202C15.5927 26.2197 15.6929 26.2192 15.7961 26.2187C15.9344 26.2174 15.9344 26.2174 16.0755 26.2161C16.3125 26.2495 16.3125 26.2495 16.4831 26.3807C16.6581 26.618 16.6322 26.8199 16.6212 27.1053C16.5938 27.2807 16.5938 27.2807 16.4707 27.4624C16.0697 27.7148 15.6547 27.6729 15.1992 27.6733C15.1239 27.6745 15.0486 27.6756 14.9711 27.6768C14.5708 27.6778 14.2294 27.6776 13.875 27.4682C13.7344 27.1577 13.7344 27.1577 13.6875 26.812C14.0189 26.086 14.4453 26.2294 15.1758 26.226Z" fill="white"/>
<path d="M15.1884 18.252C15.2629 18.2505 15.3373 18.249 15.414 18.2475C15.8561 18.2471 16.1383 18.2828 16.5009 18.5626C16.6765 18.7381 16.6168 18.9842 16.6255 19.2181C16.5847 19.4674 16.5128 19.5343 16.3134 19.6876C16.0794 19.724 16.0794 19.724 15.8037 19.7249C15.7043 19.7253 15.605 19.7257 15.5026 19.726C15.399 19.7249 15.2953 19.7239 15.1884 19.7227C15.0848 19.7238 14.9811 19.7249 14.8742 19.726C14.7749 19.7257 14.6756 19.7253 14.5732 19.7249C14.4822 19.7246 14.3912 19.7243 14.2974 19.724C14.0258 19.6817 13.9445 19.6239 13.7822 19.4063C13.6875 19.1294 13.6806 18.9715 13.747 18.6856C14.0492 18.1774 14.6619 18.2499 15.1884 18.252Z" fill="white"/>
<path d="M15.1758 22.2885C15.2803 22.2866 15.3849 22.2847 15.4926 22.2827C15.5927 22.2822 15.6929 22.2817 15.7961 22.2812C15.9344 22.2799 15.9344 22.2799 16.0755 22.2786C16.3125 22.312 16.3125 22.312 16.4831 22.4432C16.6209 22.63 16.6315 22.7378 16.6289 22.9682C16.6296 23.032 16.6304 23.0958 16.6311 23.1616C16.5815 23.4027 16.5067 23.4743 16.3125 23.6245C16.0785 23.6609 16.0785 23.6609 15.8027 23.6618C15.7034 23.6622 15.6041 23.6626 15.5017 23.6629C15.398 23.6618 15.2943 23.6608 15.1875 23.6596C15.0838 23.6607 14.9801 23.6618 14.8733 23.6629C14.774 23.6626 14.6746 23.6622 14.5723 23.6618C14.4813 23.6615 14.3903 23.6612 14.2965 23.6609C14.0248 23.6186 13.9439 23.5606 13.7812 23.3432C13.6992 23.1206 13.6992 23.1206 13.6875 22.8745C14.0465 22.1565 14.4256 22.292 15.1758 22.2885Z" fill="white"/>
<path d="M32.9413 22.1955C33.0121 22.1936 33.0829 22.1916 33.1559 22.1897C33.5848 22.1867 33.8756 22.2134 34.2188 22.5002C34.3347 22.869 34.3605 23.0601 34.1865 23.4091C33.8035 23.7414 33.4374 23.6866 32.9473 23.6721C32.8574 23.6723 32.7675 23.6726 32.6749 23.6728C32.0196 23.6636 32.0197 23.6636 31.8054 23.502C31.612 23.2427 31.6048 23.0049 31.5938 22.6877C31.8857 22.1329 32.3794 22.1993 32.9413 22.1955Z" fill="white"/>
</svg>
