<?xml version="1.0" encoding="UTF-8"?>
<svg version="1.1" xmlns="http://www.w3.org/2000/svg" width="512" height="512">
<path d="M0 0 C4.14653336 4.24766832 6.5644038 7.77477278 7.5625 13.625 C8.75008911 13.5935791 8.75008911 13.5935791 9.96166992 13.56152344 C13.55765018 13.47824533 17.15342736 13.42630109 20.75 13.375 C21.99587891 13.34148437 23.24175781 13.30796875 24.52539062 13.2734375 C26.3284668 13.25410156 26.3284668 13.25410156 28.16796875 13.234375 C29.82542114 13.2029541 29.82542114 13.2029541 31.51635742 13.17089844 C35.35218833 13.74272223 36.82794022 14.90481691 39.5625 17.625 C40.16377258 20.30792236 40.16377258 20.30792236 40.13012695 23.40332031 C40.1297493 24.5642218 40.12937164 25.72512329 40.12898254 26.92120361 C40.10317612 28.16923767 40.07736969 29.41727173 40.05078125 30.703125 C40.04370651 31.98483582 40.03663177 33.26654663 40.02934265 34.58709717 C40.01029234 37.98731616 39.96121189 41.38645958 39.90582275 44.78625488 C39.85458578 48.25839691 39.83181933 51.73071353 39.80664062 55.203125 C39.75308875 62.01085726 39.66780171 68.81787693 39.5625 75.625 C40.1697139 75.61611755 40.7769278 75.60723511 41.40254211 75.5980835 C47.71252037 75.50970876 54.02232337 75.44930693 60.33276367 75.40527344 C62.68895608 75.38513643 65.04509839 75.35782484 67.40112305 75.32324219 C70.78446806 75.27481713 74.1671534 75.25205204 77.55078125 75.234375 C78.60711258 75.21372986 79.66344391 75.19308472 80.75178528 75.17181396 C81.73257553 75.17151184 82.71336578 75.17120972 83.72387695 75.17089844 C84.58769485 75.16201599 85.45151276 75.15313354 86.34150696 75.14398193 C88.5625 75.625 88.5625 75.625 90.33236694 77.50140381 C91.80060437 80.03604296 92.06814152 81.86737862 92.30078125 84.78125 C92.44217529 86.30008789 92.44217529 86.30008789 92.58642578 87.84960938 C92.68165527 88.93048828 92.77688477 90.01136719 92.875 91.125 C96.05845728 121.14911683 108.69263793 146.72200031 131.5625 166.625 C154.54836037 184.9904409 182.93865325 193.55367664 212.1953125 191.3515625 C228.29532919 189.53988334 242.48918113 184.50278751 256.5625 176.625 C257.56023437 176.06941406 258.55796875 175.51382813 259.5859375 174.94140625 C267.10149856 170.45145072 273.3775508 164.75521514 279.5625 158.625 C280.44164062 157.75875 281.32078125 156.8925 282.2265625 156 C300.05388422 137.45516997 308.09445311 113.32001798 310.4362793 88.1550293 C310.54109619 87.1112915 310.64591309 86.06755371 310.75390625 84.9921875 C310.83842041 84.05487793 310.92293457 83.11756836 311.01000977 82.15185547 C311.65784959 79.18891151 312.48415593 77.82392606 314.5625 75.625 C316.78349304 75.14398193 316.78349304 75.14398193 319.40112305 75.17089844 C320.3819133 75.17120056 321.36270355 75.17150269 322.37321472 75.17181396 C323.95771172 75.20278168 323.95771172 75.20278168 325.57421875 75.234375 C326.65758011 75.24003479 327.74094147 75.24569458 328.85713196 75.25152588 C332.3218683 75.27394034 335.78557553 75.32414782 339.25 75.375 C341.59699029 75.39505836 343.94399676 75.41331028 346.29101562 75.4296875 C352.048529 75.47382169 357.80544099 75.54078459 363.5625 75.625 C363.55139694 74.90725403 363.54029388 74.18950806 363.52885437 73.45001221 C363.42861966 66.68197693 363.35251865 59.91405274 363.30343914 53.14546585 C363.27735778 49.66566526 363.24198956 46.18647853 363.18530273 42.70703125 C363.12052181 38.70566967 363.09630788 34.70495161 363.07421875 30.703125 C363.04841232 29.45509094 363.0226059 28.20705688 362.99601746 26.92120361 C362.99545097 25.17985138 362.99545097 25.17985138 362.99487305 23.40332031 C362.98376999 22.38183899 362.97266693 21.36035767 362.96122742 20.30792236 C363.5625 17.625 363.5625 17.625 365.90759277 15.29223633 C369.17810762 13.23840894 371.11818143 13.1616006 374.95703125 13.234375 C376.15908203 13.24726563 377.36113281 13.26015625 378.59960938 13.2734375 C379.84548828 13.30695313 381.09136719 13.34046875 382.375 13.375 C383.64021484 13.39304688 384.90542969 13.41109375 386.20898438 13.4296875 C389.32759335 13.47676084 392.44465973 13.54250906 395.5625 13.625 C395.8409375 12.54476562 396.119375 11.46453125 396.40625 10.3515625 C398.17250768 4.65896173 400.94302545 1.22808537 406.0390625 -1.890625 C414.03643886 -5.99547304 421.21821619 -7.84676727 430.0625 -5.25 C438.26180407 -2.2106028 443.6856804 2.82144466 447.5625 10.625 C449.96596388 17.83539165 449.74120833 27.2022426 446.5625 34.125 C442.72199578 40.62681137 437.11941626 45.89431414 429.82421875 48.1875 C421.40144542 49.81677567 413.89655764 49.18057811 406.5625 44.625 C401.39374782 41.06635515 398.23714618 37.29524991 395.5625 31.625 C395.5625 30.635 395.5625 29.645 395.5625 28.625 C389.9525 28.625 384.3425 28.625 378.5625 28.625 C378.5625 44.135 378.5625 59.645 378.5625 75.625 C383.36425781 75.59019531 388.16601562 75.55539063 393.11328125 75.51953125 C396.15300693 75.5042049 399.19268506 75.48976326 402.23242188 75.47851562 C407.05861285 75.46057323 411.88463329 75.43933423 416.71069336 75.39868164 C420.6010392 75.36611571 424.4912022 75.34815289 428.38167381 75.34036827 C429.86687283 75.33481974 431.3520617 75.32398489 432.837183 75.30780983 C434.91552072 75.28607149 436.99310032 75.28303144 439.0715332 75.28442383 C440.25511917 75.27776199 441.43870514 75.27110016 442.65815735 75.26423645 C445.5625 75.625 445.5625 75.625 447.44293213 76.93212891 C449.33096136 79.78697156 449.00949959 82.98218575 448.99609375 86.29296875 C449.0013356 87.04661209 449.00657745 87.80025543 449.01197815 88.57673645 C449.01840049 90.1729713 449.01705855 91.76925345 449.00854492 93.36547852 C449.00008957 95.78685021 449.02869958 98.20581789 449.06054688 100.62695312 C449.10255597 109.63440238 448.91836416 116.47354421 442.8515625 123.6484375 C442.02785156 124.31746094 442.02785156 124.31746094 441.1875 125 C440.64351563 125.46148437 440.09953125 125.92296875 439.5390625 126.3984375 C434.67217929 129.41859823 429.46023826 129.96935199 423.875 130.5 C411.14345472 131.9539515 400.09779078 136.09547203 391.45703125 146.05078125 C382.59906904 158.19506632 380.3480614 169.82671821 381.5625 184.625 C383.55651722 194.28743773 389.2104675 201.73980615 395.3125 209.25 C399.80685634 214.96467826 401.18810917 220.36793365 400.5625 227.625 C398.29436876 240.81467623 384.548054 250.88031971 375.50561523 259.97705078 C374.16227273 261.33200342 372.82343279 262.69143411 371.48901367 264.05517578 C369.53242074 266.05454752 367.56280496 268.04023126 365.58984375 270.0234375 C365.00315414 270.62763519 364.41646454 271.23183289 363.81199646 271.8543396 C357.99196939 277.64454565 351.64304071 281.22652622 343.375 281.875 C334.65890622 281.30345287 329.60031748 278.09780018 323.16333008 272.40112305 C312.56869286 263.21594945 301.21529739 261.89160801 287.73730469 262.45019531 C282.87406589 262.84108878 278.8486877 264.38207259 274.5625 266.625 C273.62921875 267.11097656 272.6959375 267.59695313 271.734375 268.09765625 C262.01509119 273.71412763 255.04157497 281.89168361 251.5625 292.625 C250.41827388 296.99653057 249.71071191 301.38241532 249.17578125 305.8671875 C248.18730116 313.72061649 246.90937553 319.81312454 240.78515625 325.18359375 C235.99788554 328.75633489 232.51059519 329.74818385 226.6574707 329.80200195 C225.44223221 329.81483719 224.22699371 329.82767242 222.97492981 329.84089661 C221.65933578 329.84828354 220.34374176 329.85567047 218.98828125 329.86328125 C217.98135758 329.86939454 217.98135758 329.86939454 216.95409203 329.87563133 C213.39819016 329.89647792 209.84232667 329.91078342 206.28637695 329.92016602 C202.62914271 329.93120344 198.97252144 329.96557537 195.31550312 330.00533772 C192.49032022 330.03159885 189.66528099 330.03986637 186.8399868 330.04344749 C184.8415037 330.0506348 182.84311918 330.07703604 180.84480286 330.10383606 C172.61890199 330.08428655 166.98872596 329.36763894 160.5390625 323.9140625 C159.87003906 323.09035156 159.87003906 323.09035156 159.1875 322.25 C158.72601563 321.70601563 158.26453125 321.16203125 157.7890625 320.6015625 C154.76890177 315.73467929 154.21814801 310.52273826 153.6875 304.9375 C152.17057106 291.654492 147.50003818 279.88093414 136.75 271.25 C125.25875106 263.51464565 112.64678471 260.06501487 98.89453125 262.67578125 C89.37283164 265.38829357 81.76944267 270.06974505 74.64453125 276.890625 C70.32179143 280.49155648 65.53689516 281.41345766 60.0625 282 C44.55857597 280.33886528 34.72007113 267.01501224 24.21044922 256.56811523 C22.85549658 255.22477273 21.49606589 253.88593279 20.13232422 252.55151367 C18.13295248 250.59492074 16.14726874 248.62530496 14.1640625 246.65234375 C13.55986481 246.06565414 12.95566711 245.47896454 12.3331604 244.87449646 C6.54295435 239.05446939 2.96097378 232.70554071 2.3125 224.4375 C2.88404713 215.72140622 6.08969982 210.66281748 11.78637695 204.22583008 C20.97155055 193.63119286 22.29589199 182.27779739 21.73730469 168.79980469 C21.34641122 163.93656589 19.80542741 159.9111877 17.5625 155.625 C17.07652344 154.69171875 16.59054688 153.7584375 16.08984375 152.796875 C10.47337237 143.07759119 2.29581639 136.10407497 -8.4375 132.625 C-12.80903057 131.48077388 -17.19491532 130.77321191 -21.6796875 130.23828125 C-29.53311649 129.24980116 -35.62562454 127.97187553 -40.99609375 121.84765625 C-45.00826902 116.47156871 -45.60336314 112.27540937 -45.640625 105.78125 C-45.64632507 105.01574829 -45.65202515 104.25024658 -45.65789795 103.46154785 C-45.66733534 101.84433368 -45.67387692 100.22710039 -45.67773438 98.60986328 C-45.68746423 96.13410147 -45.71850798 93.65916164 -45.75 91.18359375 C-45.75652802 89.61198409 -45.76177928 88.04036851 -45.765625 86.46875 C-45.7779718 85.72806274 -45.7903186 84.98737549 -45.80303955 84.22424316 C-45.78098383 79.14728299 -45.78098383 79.14728299 -44.32090759 76.9271698 C-41.53178766 74.99879924 -39.31369829 75.26547168 -35.9465332 75.28442383 C-35.2926059 75.28398575 -34.63867859 75.28354767 -33.9649353 75.28309631 C-31.80574577 75.28518461 -29.64733495 75.30851612 -27.48828125 75.33203125 C-25.99041671 75.33762709 -24.49254668 75.34189725 -22.99467468 75.34489441 C-19.05391254 75.3563442 -15.11348255 75.38581222 -11.17285156 75.41900635 C-6.44388442 75.45510261 -1.71480616 75.46886778 3.01425934 75.48636627 C10.19723718 75.51544986 17.37948634 75.5729352 24.5625 75.625 C24.5625 60.115 24.5625 44.605 24.5625 28.625 C18.9525 28.625 13.3425 28.625 7.5625 28.625 C7.2325 30.275 6.9025 31.925 6.5625 33.625 C2.81424659 40.26620068 -2.3536957 44.63058395 -9.125 47.9375 C-17.84679256 49.74768336 -25.8015227 49.43125759 -33.4375 44.625 C-39.49979614 40.45379445 -43.74936872 35.91227479 -45.4375 28.625 C-46.50671344 19.34830051 -46.14533503 11.28325102 -40.4375 3.625 C-29.66614387 -8.14834274 -12.78782966 -10.00364397 0 0 Z M-28.8125 13.75 C-31.08467451 17.77000106 -31.1027183 21.10808564 -30.4375 25.625 C-29.07595797 29.1044963 -27.84676552 30.33266749 -24.8125 32.5 C-20.35695164 33.98518279 -16.90384134 34.17747159 -12.4375 32.625 C-9.10642655 30.26123213 -6.92622182 27.59504145 -5.93359375 23.59375 C-5.63162646 18.52849217 -7.1523767 15.34237637 -10.4375 11.625 C-17.51557416 7.20120365 -22.69482005 8.27628636 -28.8125 13.75 Z M413.5625 11.625 C410.2773767 15.34237637 408.75662646 18.52849217 409.05859375 23.59375 C410.05122182 27.59504145 412.23142655 30.26123213 415.5625 32.625 C420.02884134 34.17747159 423.48195164 33.98518279 427.9375 32.5 C430.97176552 30.33266749 432.20095797 29.1044963 433.5625 25.625 C434.19899848 21.79893693 434.42514172 18.30058392 432.61328125 14.78125 C430.082586 11.52407757 427.5348826 9.64355964 423.5625 8.625 C419.09211855 8.625 417.31470181 9.27987387 413.5625 11.625 Z M-31.4375 89.625 C-31.49166741 92.35443537 -31.53125225 95.08278564 -31.5625 97.8125 C-31.57925781 98.58142578 -31.59601562 99.35035156 -31.61328125 100.14257812 C-31.65700597 105.23650778 -31.44080431 109.36617219 -27.90625 113.3515625 C-24.09454792 115.31772528 -20.16162335 115.52138554 -15.9375 116 C0.34135727 118.16817665 13.87456789 124.86397761 24.5625 137.625 C35.79266191 153.6903705 39.24434355 171.26535061 35.875 190.5625 C33.17683442 199.91614067 28.89950681 208.31217875 22.25 215.4375 C19.82464199 218.04406292 18.61365163 219.48500606 17.375 222.875 C17.83527537 229.62570545 23.80004461 234.2006329 28.30078125 238.734375 C29.43836128 239.88549774 29.43836128 239.88549774 30.59892273 241.05987549 C32.20082831 242.67625751 33.80553359 244.28986908 35.4128418 245.90087891 C37.86818697 248.36815387 40.30425389 250.85346706 42.74023438 253.33984375 C44.3009306 254.9100008 45.86274274 256.4790496 47.42578125 258.046875 C48.15098465 258.79161072 48.87618805 259.53634644 49.62336731 260.3036499 C52.69109875 263.34438292 54.73829372 265.36674028 58.90893555 266.67358398 C64.09746101 266.57858752 67.31625152 263.06480818 71.0625 259.8125 C85.52946296 248.08778226 101.64298979 246.30351217 119.5625 247.625 C130.50991889 249.47168581 141.75987102 254.70072647 149.5625 262.625 C150.2225 262.625 150.8825 262.625 151.5625 262.625 C151.82417969 263.20121094 152.08585938 263.77742187 152.35546875 264.37109375 C153.6374807 266.7650125 155.12646712 268.61329803 156.875 270.6875 C164.91262526 280.96429737 166.94834974 292.07359957 169.08203125 304.69921875 C169.24058594 305.58222656 169.39914063 306.46523438 169.5625 307.375 C169.68625 308.13296875 169.81 308.8909375 169.9375 309.671875 C170.70731446 312.07754518 171.56542281 313.0902092 173.5625 314.625 C176.53070024 315.56471323 179.24069569 315.75599246 182.34350586 315.77026367 C183.28806137 315.77664352 184.23261688 315.78302338 185.20579529 315.78959656 C186.21940628 315.79070938 187.23301727 315.7918222 188.27734375 315.79296875 C189.84918175 315.79796135 189.84918175 315.79796135 191.45277405 315.80305481 C193.66764894 315.8081145 195.88253144 315.81046343 198.09741211 315.81030273 C201.48368896 315.81248947 204.86964014 315.8306562 208.25585938 315.84960938 C210.40885305 315.85254344 212.56184828 315.85452815 214.71484375 315.85546875 C215.72643051 315.86265427 216.73801727 315.86983978 217.78025818 315.87724304 C218.72796585 315.87416641 219.67567352 315.87108978 220.65209961 315.86791992 C221.89642006 315.87005745 221.89642006 315.87005745 223.1658783 315.87223816 C226.74032333 315.50349444 229.59221275 314.48552625 232.2890625 312.09375 C234.25522528 308.28204792 234.45888554 304.34912335 234.9375 300.125 C237.10567665 283.84614273 243.80147761 270.31293211 256.5625 259.625 C272.6278705 248.39483809 290.20285061 244.94315645 309.5 248.3125 C318.85364067 251.01066558 327.24967875 255.28799319 334.375 261.9375 C336.98156292 264.36285801 338.42250606 265.57384837 341.8125 266.8125 C348.56320545 266.35222463 353.1381329 260.38745539 357.671875 255.88671875 C358.43929016 255.12833206 359.20670532 254.36994537 359.99737549 253.58857727 C361.61375751 251.98667169 363.22736908 250.38196641 364.83837891 248.7746582 C367.30565387 246.31931303 369.79096706 243.88324611 372.27734375 241.44726562 C373.8475008 239.8865694 375.4165496 238.32475726 376.984375 236.76171875 C378.10147858 235.67391365 378.10147858 235.67391365 379.2411499 234.56413269 C382.28188292 231.49640125 384.30424028 229.44920628 385.61108398 225.27856445 C385.51608752 220.09003899 382.00230818 216.87124848 378.75 213.125 C367.03795287 198.67367113 365.21605705 182.53269122 366.5625 164.625 C369.38608226 148.45357432 379.08487195 134.76485676 392.203125 125.15234375 C401.97385319 118.82725315 412.31521336 117.01876 423.63671875 115.10546875 C424.96123047 114.86763672 424.96123047 114.86763672 426.3125 114.625 C427.07046875 114.50125 427.8284375 114.3775 428.609375 114.25 C431.01504518 113.48018554 432.0277092 112.62207719 433.5625 110.625 C434.42053608 107.86616807 434.68197537 105.39574911 434.66015625 102.515625 C434.65532227 101.38447266 434.65532227 101.38447266 434.65039062 100.23046875 C434.64201172 99.45316406 434.63363281 98.67585938 434.625 97.875 C434.61823242 96.68583984 434.61823242 96.68583984 434.61132812 95.47265625 C434.59958565 93.52340492 434.58165146 91.57419262 434.5625 89.625 C420.49832343 89.60166961 406.43414985 89.58408655 392.36995792 89.57318783 C385.84013767 89.5679583 379.31033037 89.56085939 372.78051758 89.54956055 C366.48468841 89.53873415 360.18887174 89.53272369 353.89303398 89.53012276 C351.48515056 89.52826806 349.07726786 89.5246466 346.66938972 89.51926994 C343.30960714 89.5120628 339.9498769 89.51100892 336.59008789 89.51147461 C335.58380341 89.50787933 334.57751892 89.50428406 333.54074097 89.50057983 C332.63063766 89.5019545 331.72053436 89.50332916 330.78285217 89.50474548 C329.98734483 89.50382369 329.19183748 89.5029019 328.37222385 89.50195217 C326.54111111 89.42721867 326.54111111 89.42721867 325.5625 90.625 C325.28490745 92.78595122 325.01246275 94.94768055 324.76513672 97.11230469 C320.83930677 130.21565167 304.63830135 159.64240882 278.5625 180.625 C250.9774786 201.49323785 217.62739824 209.93354312 183.375 205.5625 C151.45090401 200.90034651 121.87328172 183.82940621 102.32763672 157.99267578 C87.76037571 138.03345437 80.66535821 116.76728467 77.87207031 92.41235352 C77.7360529 90.60653322 77.7360529 90.60653322 76.5625 89.625 C75.15838683 89.5295307 73.74950191 89.50311471 72.34214783 89.50474548 C71.43204453 89.50337082 70.52194122 89.50199615 69.58425903 89.50057983 C68.57797455 89.50417511 67.57169006 89.50777039 66.53491211 89.51147461 C65.48138046 89.51132858 64.42784882 89.51118256 63.34239197 89.5110321 C59.841522 89.51173174 56.34070448 89.51952652 52.83984375 89.52734375 C50.41988657 89.52920775 47.99992901 89.53063174 45.57997131 89.53163147 C39.19634976 89.53545808 32.81275079 89.54528959 26.42913818 89.55633545 C19.92086086 89.56654649 13.4125799 89.57112843 6.90429688 89.57617188 C-5.87631175 89.58691173 -18.65690467 89.60379888 -31.4375 89.625 Z " fill="#000000" transform="translate(54.4375,173.375)"/>
<path d="M0 0 C12.59485841 10.68223047 21.79347738 26.66122423 23.6875 43.1875 C25.08936285 62.16995727 20.71282369 76.62851572 10.625 92.75 C3.27022785 104.54009276 -0.97958243 116.3251573 -2.3125 130.1875 C-1.44625 130.5278125 -1.44625 130.5278125 -0.5625 130.875 C3.24833774 133.09798868 5.30679664 136.04538992 6.6875 140.1875 C6.93886753 144.70760833 6.95830772 149.2299349 6.98266602 153.75610352 C6.99418126 155.24676001 7.0146263 156.73737541 7.04418945 158.2277832 C7.08702161 160.38781595 7.10305528 162.5466257 7.11328125 164.70703125 C7.12786377 165.99714111 7.14244629 167.28725098 7.1574707 168.61645508 C6.41368671 174.26805427 3.09879437 178.65846451 -1.3125 182.1875 C-5.40780523 183.6767019 -8.95783626 184.45141901 -13.3125 184.1875 C-13.250625 185.21875 -13.18875 186.25 -13.125 187.3125 C-13.38482345 192.68218454 -14.78708926 195.74237403 -18.6875 199.4375 C-23.70710483 202.78390322 -27.99843879 203.50429545 -33.95703125 203.5234375 C-34.68564865 203.5300943 -35.41426605 203.5367511 -36.16496277 203.54360962 C-37.70215342 203.55370182 -39.23938758 203.5584277 -40.77661133 203.55810547 C-43.10768312 203.56246759 -45.43684217 203.59878857 -47.76757812 203.63671875 C-55.44463396 203.69510195 -61.78789465 203.71663595 -68.3125 199.1875 C-72.93688572 194.32596629 -73.43687253 190.77924426 -73.3125 184.1875 C-73.90417969 184.15011719 -74.49585938 184.11273438 -75.10546875 184.07421875 C-81.7103917 183.5247064 -85.65990504 182.25302254 -90.0625 177.125 C-94.43189571 171.42051115 -93.53461812 165.60568888 -93.55273438 158.69433594 C-93.56240306 156.45990245 -93.59340702 154.22640358 -93.625 151.9921875 C-93.63153409 150.56250544 -93.63678296 149.13281682 -93.640625 147.703125 C-93.6499707 146.40665039 -93.65931641 145.11017578 -93.66894531 143.77441406 C-93.09345994 137.98329692 -90.75452177 133.91306664 -86.3125 130.1875 C-85.6525 130.1875 -84.9925 130.1875 -84.3125 130.1875 C-86.84578463 114.14336403 -92.05170163 101.10127608 -100.3125 87.1875 C-109.8107224 70.76792719 -113.30955108 53.59870149 -108.75 34.875 C-104.37824646 18.53770676 -94.11790364 3.81514206 -79.51318359 -4.88427734 C-53.22146671 -19.74826737 -24.29889726 -18.30738834 0 0 Z M-83.3125 18.1875 C-93.1617975 30.92366056 -96.19346612 44.37905247 -95.3125 60.1875 C-93.83689022 69.20372588 -88.9200302 76.80071391 -84.3203125 84.5390625 C-75.95993272 98.68739751 -72.26622079 112.10613128 -69.3125 128.1875 C-63.0425 128.1875 -56.7725 128.1875 -50.3125 128.1875 C-50.10881707 120.4684394 -49.94386146 112.75038487 -49.84619045 105.02928734 C-49.7992998 101.44347355 -49.73576312 97.85959949 -49.63354492 94.27490234 C-49.53543131 90.8123041 -49.48188124 87.35156517 -49.45860481 83.88768387 C-49.43398523 81.92957366 -49.36376992 79.97220795 -49.29283142 78.01522827 C-49.12666617 71.49693408 -49.12666617 71.49693408 -52.23991394 66.08457947 C-54.54142864 64.5268641 -56.78413035 63.33197483 -59.3125 62.1875 C-60.60904462 61.45484075 -61.90072025 60.71337317 -63.18359375 59.95703125 C-64.9837837 58.962138 -66.78950285 57.97868431 -68.59960938 57.00195312 C-71.71062944 55.27665754 -73.29802006 54.20921991 -75.3125 51.1875 C-75.63412076 48.0999407 -75.79974515 46.04734439 -74.25 43.3125 C-71.25533313 41.57366117 -68.62716855 41.53517503 -65.3125 42.1875 C-60.62872019 44.41537407 -56.324407 47.30408515 -51.96289062 50.09765625 C-46.93397568 53.36700109 -46.93397568 53.36700109 -41.1875 53.875 C-39.764375 53.0396875 -39.764375 53.0396875 -38.3125 52.1875 C-37.6738501 51.81608887 -37.0352002 51.44467773 -36.37719727 51.06201172 C-33.43575064 49.32020993 -30.54991648 47.4980461 -27.67773438 45.64453125 C-23.04970326 42.79203408 -19.91925033 41.50617338 -14.3125 42.1875 C-12.375 43.3125 -12.375 43.3125 -11.3125 45.1875 C-10.8125 48.0625 -10.8125 48.0625 -11.3125 51.1875 C-15.37308945 56.12293189 -20.53396272 58.86240655 -26.0625 61.9375 C-27.7871152 62.91029473 -29.51110846 63.88419316 -31.234375 64.859375 C-32.37277832 65.49504395 -32.37277832 65.49504395 -33.53417969 66.14355469 C-35.27274545 67.06380476 -35.27274545 67.06380476 -36.3125 68.1875 C-36.40636381 70.0593094 -36.42993804 71.9346806 -36.42602539 73.80883789 C-36.42594986 75.01000748 -36.42587433 76.21117706 -36.42579651 77.44874573 C-36.42063522 78.7560112 -36.41547394 80.06327667 -36.41015625 81.41015625 C-36.40829198 82.75394132 -36.40686812 84.09772707 -36.40586853 85.44151306 C-36.40204402 88.98432277 -36.39221432 92.5270917 -36.38116455 96.06988525 C-36.37094899 99.68265227 -36.3663706 103.29542584 -36.36132812 106.90820312 C-36.35059198 114.00132039 -36.33299572 121.09440325 -36.3125 128.1875 C-30.0425 128.1875 -23.7725 128.1875 -17.3125 128.1875 C-16.755625 125.155625 -16.19875 122.12375 -15.625 119 C-13.02750661 105.7658139 -8.31114424 94.81051897 -1.6015625 83.203125 C0.61145213 79.35878114 2.68763486 75.45901382 4.6875 71.5 C5.244375 70.40300781 5.80125 69.30601562 6.375 68.17578125 C10.91009931 57.85033193 9.65791158 44.50455433 5.6875 34.1875 C-0.05121354 20.09822252 -9.21445214 9.97718381 -23.28125 3.90625 C-45.19398015 -4.3404764 -67.41647275 0.96228276 -83.3125 18.1875 Z M-78.3125 144.1875 C-78.39976223 145.96821246 -78.41949041 147.7523314 -78.41015625 149.53515625 C-78.40693359 150.61474609 -78.40371094 151.69433594 -78.40039062 152.80664062 C-78.39201172 153.94294922 -78.38363281 155.07925781 -78.375 156.25 C-78.37048828 157.39017578 -78.36597656 158.53035156 -78.36132812 159.70507812 C-78.34949747 162.53260351 -78.3330141 165.3600264 -78.3125 168.1875 C-74.51497521 170.08626239 -69.78701886 169.48764369 -65.59765625 169.61328125 C-62.3125 170.1875 -62.3125 170.1875 -60.41015625 171.8125 C-58.98482779 174.8964847 -58.83163865 177.48774181 -58.6875 180.875 C-58.85774108 184.84920459 -58.85774108 184.84920459 -57.3125 188.1875 C-55.2519469 188.28743532 -53.1879741 188.31830906 -51.125 188.3203125 C-49.86945313 188.32160156 -48.61390625 188.32289063 -47.3203125 188.32421875 C-46.33466309 188.32107666 -46.33466309 188.32107666 -45.32910156 188.31787109 C-43.32088665 188.31252234 -41.31289541 188.31781691 -39.3046875 188.32421875 C-38.04914063 188.32292969 -36.79359375 188.32164062 -35.5 188.3203125 C-34.33855469 188.31918457 -33.17710937 188.31805664 -31.98046875 188.31689453 C-29.39186716 188.49087474 -29.39186716 188.49087474 -28.3125 187.1875 C-28.06658786 183.92233319 -27.92826894 180.65806998 -27.7890625 177.38671875 C-27.27324559 173.92398067 -26.97212215 172.45937436 -24.3125 170.1875 C-21.02734375 169.61328125 -21.02734375 169.61328125 -17.25 169.5 C-12.61634809 169.51558094 -12.61634809 169.51558094 -8.3125 168.1875 C-8.28363016 164.20834841 -8.26574594 160.22922347 -8.25 156.25 C-8.23743164 154.54553711 -8.23743164 154.54553711 -8.22460938 152.80664062 C-8.21977539 151.18725586 -8.21977539 151.18725586 -8.21484375 149.53515625 C-8.20698853 148.03480835 -8.20698853 148.03480835 -8.19897461 146.50415039 C-8.05068905 144.22542772 -8.05068905 144.22542772 -9.3125 143.1875 C-11.42387901 143.08801807 -13.53862286 143.05950362 -15.65234375 143.05810547 C-16.31412628 143.05635315 -16.97590881 143.05460083 -17.65774536 143.05279541 C-19.8551899 143.04837783 -22.05255458 143.05131453 -24.25 143.0546875 C-25.77075211 143.05401443 -27.29150412 143.05304439 -28.81225586 143.05178833 C-32.00342836 143.05031149 -35.19457292 143.05246548 -38.38574219 143.05712891 C-42.4851453 143.0628262 -46.58448296 143.05954712 -50.68388367 143.05355644 C-53.82532244 143.04995046 -56.96674558 143.05108958 -60.10818481 143.05368423 C-61.62012744 143.0543534 -63.13207146 143.05352543 -64.64401245 143.05120468 C-66.75359887 143.04867755 -68.86307787 143.05251956 -70.97265625 143.05810547 C-72.17543213 143.05890106 -73.37820801 143.05969666 -74.61743164 143.06051636 C-77.22997185 142.88062407 -77.22997185 142.88062407 -78.3125 144.1875 Z " fill="#000000" transform="translate(299.3125,138.8125)"/>
<path d="M0 0 C1.79244141 0.49306641 1.79244141 0.49306641 3.62109375 0.99609375 C18.62544071 5.50832712 31.91312143 13.0954745 44 23 C44.7321875 23.59167969 45.464375 24.18335937 46.21875 24.79296875 C52.72495921 30.1925891 52.72495921 30.1925891 53.4375 34.875 C53 38 53 38 50.9375 40.9375 C48 43 48 43 44.63671875 42.9140625 C40.41794148 41.85370387 38.88237706 40.52501094 35.875 37.4375 C18.31860363 20.66935 -6.86033689 11.80860525 -31 12 C-54.46093514 12.89900383 -77.02639203 20.79903365 -94.8046875 36.47265625 C-95.75601563 37.30667969 -96.70734375 38.14070313 -97.6875 39 C-98.53699219 39.78375 -99.38648438 40.5675 -100.26171875 41.375 C-103 43 -103 43 -106.7109375 42.85546875 C-110 42 -110 42 -111.9375 40.3125 C-113.3613395 37.2135552 -113.55153827 35.37817188 -113 32 C-111.39243345 30.01733459 -109.92484935 28.6374284 -108 27 C-107.30648437 26.3296875 -106.61296875 25.659375 -105.8984375 24.96875 C-79.07314991 -0.54585579 -35.48116554 -10.64866086 0 0 Z " fill="#000000" transform="translate(286,12)"/>
<path d="M0 0 C22.55429827 -0.60957563 43.46483179 6.81848847 60.10546875 22.23828125 C62.69195234 24.90067841 62.94325403 25.80568039 63.21875 29.59375 C62.96875 33.15625 62.96875 33.15625 61.84375 35.03125 C59.09808872 36.67864677 57.18278361 37.09322973 53.96875 37.15625 C50.96875433 35.55625231 48.62312364 33.69698989 46.01171875 31.5390625 C32.01971932 20.19419809 15.93647912 14.98951434 -2.03125 16.15625 C-17.7543966 18.40747843 -29.52836351 24.34183527 -41.69140625 34.34375 C-44.30374466 36.367331 -45.73270931 37.07378648 -49.03125 37.15625 C-51.3144338 36.0146581 -53.22137683 34.96612317 -55.03125 33.15625 C-55.47782301 29.96644281 -55.66911996 27.38683099 -54.1484375 24.453125 C-43.41350403 10.69698271 -23.71377116 2.97828752 -7.03125 0.40625 C-4.69005838 0.20784393 -2.34672328 0.12096512 0 0 Z " fill="#000000" transform="translate(252.03125,41.84375)"/>
<path d="M0 0 C3.76045595 3.46869643 3.76045595 3.46869643 4.671875 6.44140625 C4.77788946 9.31969891 4.28751989 11.67496022 3 14.25 C-0.34726754 15.92363377 -3.42240093 16.05576556 -7 15.25 C-9.11968295 13.93741076 -10.95671773 12.43290879 -12.8828125 10.8515625 C-20.07565804 5.41048008 -28.18702691 4.10757756 -37 5.25 C-42.49838833 6.66432532 -46.75237207 8.91002143 -51.125 12.5 C-53.90487606 14.72728406 -55.72604374 15.68837856 -59.3125 15.8125 C-63 15.25 -63 15.25 -65 14.25 C-66.72474231 10.80051538 -67.10497849 7.88992913 -66 4.25 C-59.93881626 -3.49010318 -50.14277878 -8.70410955 -40.5390625 -10.46875 C-25.39355211 -12.14640654 -11.99837831 -9.55011108 0 0 Z " fill="#000000" transform="translate(287,86.75)"/>
</svg>
