<svg width="300" height="300" viewBox="0 0 300 300" fill="none" xmlns="http://www.w3.org/2000/svg">
<path d="M266.666 166.19V133.81H232.15C230.034 123.674 225.95 114.036 220.124 105.428L244.602 81.3037L221.372 58.4104L196.894 82.5344C188.158 76.7924 178.379 72.7684 168.095 70.683V36.6667H135.237V70.683C124.953 72.7684 115.174 76.7924 106.438 82.5344L81.9597 58.4104L58.7297 81.3037L83.208 105.428C77.382 114.036 73.2983 123.674 71.1823 133.81H36.666V166.19H71.1823C73.318 176.504 77.491 186.089 83.208 194.572L58.7297 218.696L81.9597 241.59L106.438 217.466C115.174 223.208 124.953 227.232 135.237 229.317V263.333H168.095V229.317C178.379 227.232 188.158 223.208 196.894 217.466L221.372 241.59L244.602 218.696L220.124 194.572C225.95 185.964 230.034 176.326 232.15 166.19H266.666ZM151.666 198.571C124.493 198.571 102.38 176.779 102.38 150C102.38 123.221 124.493 101.429 151.666 101.429C178.839 101.429 200.952 123.221 200.952 150C200.952 176.779 178.839 198.571 151.666 198.571Z" stroke="black" stroke-width="6"/>
<path d="M266.666 183.333H126.666V266.667H266.666V183.333Z" fill="white"/>
<path d="M144.215 250V201.515H176.885V209.967H154.466V221.52H175.205V229.972H154.466V241.548H176.98V250H144.215ZM185.035 250V201.515H204.164C207.826 201.515 210.951 202.17 213.539 203.48C216.143 204.774 218.124 206.613 219.481 208.996C220.854 211.364 221.541 214.149 221.541 217.353C221.541 220.573 220.847 223.343 219.458 225.663C218.069 227.967 216.056 229.735 213.421 230.966C210.801 232.197 207.628 232.813 203.904 232.813H191.096V224.574H202.247C204.204 224.574 205.829 224.306 207.123 223.769C208.418 223.232 209.38 222.427 210.012 221.354C210.659 220.281 210.982 218.947 210.982 217.353C210.982 215.743 210.659 214.386 210.012 213.281C209.38 212.176 208.41 211.34 207.1 210.772C205.806 210.188 204.172 209.896 202.199 209.896H195.286V250H185.035ZM211.219 227.936L223.269 250H211.953L200.163 227.936H211.219ZM228.785 250V201.515H247.914C251.592 201.515 254.724 202.217 257.313 203.622C259.901 205.011 261.874 206.944 263.231 209.422C264.604 211.884 265.291 214.725 265.291 217.945C265.291 221.165 264.597 224.006 263.208 226.468C261.819 228.93 259.806 230.848 257.171 232.221C254.551 233.594 251.378 234.28 247.654 234.28H235.461V226.065H245.997C247.969 226.065 249.595 225.726 250.873 225.047C252.168 224.353 253.13 223.398 253.762 222.183C254.409 220.952 254.732 219.539 254.732 217.945C254.732 216.335 254.409 214.931 253.762 213.731C253.13 212.516 252.168 211.577 250.873 210.914C249.579 210.235 247.938 209.896 245.949 209.896H239.036V250H228.785Z" fill="black"/>
</svg>
