<svg width="512" height="512" viewBox="0 0 512 512" fill="none" xmlns="http://www.w3.org/2000/svg">
<path d="M444.045 33H66.9554C57.6883 33.0118 48.8041 36.6984 42.2513 43.2513C35.6984 49.8041 32.0118 58.6883 32 67.9554V445.045C32.0118 454.312 35.6984 463.196 42.2513 469.749C48.8041 476.302 57.6883 479.988 66.9554 480H444.045C453.312 479.988 462.196 476.302 468.749 469.749C475.302 463.196 478.988 454.312 479 445.045V67.9554C478.988 58.6883 475.302 49.8041 468.749 43.2513C462.196 36.6984 453.312 33.0118 444.045 33ZM46.9 67.9554C46.9079 62.6388 49.0234 57.5422 52.7828 53.7828C56.5422 50.0234 61.6388 47.9079 66.9554 47.9H444.045C449.361 47.9079 454.458 50.0234 458.217 53.7828C461.977 57.5422 464.092 62.6388 464.1 67.9554V114.771H46.9V67.9554ZM444.045 465.1H66.9554C61.6388 465.092 56.5422 462.977 52.7828 459.217C49.0234 455.458 46.9079 450.361 46.9 445.045V129.671H464.1V445.045C464.092 450.361 461.977 455.458 458.217 459.217C454.458 462.977 449.361 465.092 444.045 465.1Z" fill="white"/>
<path d="M93.5891 73.8867H78.8455C76.8696 73.8867 74.9747 74.6716 73.5776 76.0688C72.1804 77.4659 71.3955 79.3609 71.3955 81.3367C71.3955 83.3126 72.1804 85.2075 73.5776 86.6047C74.9747 88.0018 76.8696 88.7867 78.8455 88.7867H93.5891C95.5649 88.7867 97.4599 88.0018 98.857 86.6047C100.254 85.2075 101.039 83.3126 101.039 81.3367C101.039 79.3609 100.254 77.4659 98.857 76.0688C97.4599 74.6716 95.5649 73.8867 93.5891 73.8867ZM134.758 73.8867H120.014C118.038 73.8867 116.143 74.6716 114.746 76.0688C113.349 77.4659 112.564 79.3609 112.564 81.3367C112.564 83.3126 113.349 85.2075 114.746 86.6047C116.143 88.0018 118.038 88.7867 120.014 88.7867H134.758C136.734 88.7867 138.629 88.0018 140.026 86.6047C141.423 85.2075 142.208 83.3126 142.208 81.3367C142.208 79.3609 141.423 77.4659 140.026 76.0688C138.629 74.6716 136.734 73.8867 134.758 73.8867ZM175.934 73.8867H161.183C159.207 73.8867 157.312 74.6716 155.915 76.0688C154.518 77.4659 153.733 79.3609 153.733 81.3367C153.733 83.3126 154.518 85.2075 155.915 86.6047C157.312 88.0018 159.207 88.7867 161.183 88.7867H175.934C177.91 88.7867 179.805 88.0018 181.202 86.6047C182.599 85.2075 183.384 83.3126 183.384 81.3367C183.384 79.3609 182.599 77.4659 181.202 76.0688C179.805 74.6716 177.91 73.8867 175.934 73.8867ZM432.162 73.8867H290.835C288.859 73.8867 286.964 74.6716 285.567 76.0688C284.17 77.4659 283.385 79.3609 283.385 81.3367C283.385 83.3126 284.17 85.2075 285.567 86.6047C286.964 88.0018 288.859 88.7867 290.835 88.7867H432.162C434.138 88.7867 436.033 88.0018 437.43 86.6047C438.827 85.2075 439.612 83.3126 439.612 81.3367C439.612 79.3609 438.827 77.4659 437.43 76.0688C436.033 74.6716 434.138 73.8867 432.162 73.8867ZM255.5 160.851C183.809 160.851 125.483 219.177 125.483 290.868C125.483 362.559 183.809 420.878 255.5 420.878C327.191 420.878 385.517 362.559 385.517 290.868C385.517 219.177 327.191 160.851 255.5 160.851ZM255.5 405.978C192.026 405.978 140.383 354.335 140.383 290.868C140.383 227.401 192.026 175.751 255.5 175.751C318.974 175.751 370.617 227.394 370.617 290.868C370.617 354.342 318.974 405.978 255.5 405.978Z" fill="white"/>
<path d="M255.135 198.338C248.668 198.346 242.469 200.918 237.896 205.491C233.324 210.063 230.752 216.263 230.744 222.729V299.405C230.752 305.87 233.324 312.069 237.897 316.64C242.47 321.212 248.669 323.783 255.135 323.788H255.865C262.33 323.781 268.529 321.209 273.101 316.638C277.673 312.067 280.247 305.87 280.256 299.405V222.729C280.256 209.282 269.312 198.338 255.135 198.338ZM265.356 299.397C265.356 304.627 261.102 308.881 255.865 308.881H255.135C252.62 308.879 250.208 307.879 248.428 306.102C246.649 304.324 245.648 301.912 245.644 299.397V222.722C245.644 217.484 249.898 213.23 255.865 213.23C261.102 213.23 265.356 217.484 265.356 222.722V299.397ZM255.5 332.922C241.852 332.922 230.744 344.03 230.744 357.678C230.744 371.327 241.852 382.427 255.5 382.427C269.148 382.427 280.256 371.327 280.256 357.678C280.256 344.03 269.148 332.922 255.5 332.922ZM255.5 367.535C250.069 367.535 245.644 363.117 245.644 357.686C245.644 352.255 250.062 347.83 255.5 347.83C260.939 347.83 265.356 352.255 265.356 357.686C265.356 363.117 260.939 367.535 255.5 367.535Z" fill="white"/>
</svg>
