<svg width="65" height="65" viewBox="0 0 65 65" fill="none" xmlns="http://www.w3.org/2000/svg">
<path d="M7.94531 11.5573V35.2491C7.94531 36.4458 8.91533 37.4158 10.112 37.4158H34.2517C35.4483 37.4158 36.4183 36.4458 36.4183 35.2491V11.5573C36.4183 10.3606 35.4483 9.39062 34.2517 9.39062H10.112C8.91533 9.39062 7.94531 10.3606 7.94531 11.5573ZM56.3342 35.2491V27.5058C56.3342 26.3091 55.3642 25.3391 54.1675 25.3391H46.245C45.0484 25.3391 44.0783 26.3091 44.0783 27.5058V35.2491C44.0783 36.4458 45.0484 37.4158 46.245 37.4158H54.1675C55.3642 37.4158 56.3342 36.4458 56.3342 35.2491ZM56.3342 54.1684V46.425C56.3342 45.2284 55.3642 44.2583 54.1675 44.2583H46.245C45.0484 44.2583 44.0783 45.2284 44.0783 46.425V54.1684C44.0783 55.3651 45.0484 56.3351 46.245 56.3351H54.1675C55.3642 56.3351 56.3342 55.3651 56.3342 54.1684ZM36.4183 54.1684V46.425C36.4183 45.2284 35.4483 44.2583 34.2517 44.2583H26.3291C25.1325 44.2583 24.1624 45.2284 24.1624 46.425V54.1684C24.1624 55.3651 25.1325 56.3351 26.3291 56.3351H34.2517C35.4483 56.3351 36.4183 55.365 36.4183 54.1684Z" stroke="#024D81" stroke-width="2"/>
</svg>
