<svg width="42" height="42" viewBox="0 0 42 42" fill="none" xmlns="http://www.w3.org/2000/svg">
<path d="M20.9707 1.0003C21.0502 1.00047 21.1296 1.00064 21.2115 1.00081C22.3526 1.00469 23.4679 1.0292 24.5893 1.25877C24.6671 1.27386 24.7448 1.28894 24.8249 1.30449C27.8383 1.8999 30.6572 3.12661 33.0944 5.00414C33.1578 5.05252 33.2211 5.1009 33.2864 5.15075C34.618 6.19038 35.8946 7.40892 36.8964 8.77149C36.9976 8.90793 37.1014 9.04198 37.2058 9.17592C37.8195 9.97296 38.3177 10.828 38.7905 11.7146C38.8422 11.8114 38.8422 11.8114 38.8951 11.9102C39.7937 13.6192 40.3923 15.5146 40.7412 17.4107C40.7537 17.4731 40.7663 17.5356 40.7792 17.6C41.2065 19.7845 41.1974 22.411 40.7412 24.5893C40.7179 24.7034 40.7179 24.7034 40.6942 24.8198C40.2171 27.1007 39.4607 29.5783 38.076 31.4915C37.6253 32.057 37.6253 32.057 37.4765 32.7305C37.5578 32.9479 37.6582 33.1293 37.7761 33.3285C38.0235 34.2268 37.8679 35.2115 37.4494 36.0302C36.9121 36.924 36.1868 37.4587 35.2012 37.7761C34.3295 37.9841 33.532 37.8465 32.7043 37.542C32.4836 37.4387 32.4836 37.4387 32.3335 37.5275C32.2831 37.5616 32.2326 37.5958 32.1806 37.631C32.0941 37.6882 32.0941 37.6882 32.0059 37.7465C31.9434 37.7884 31.881 37.8304 31.8167 37.8736C29.6883 39.2556 27.3577 40.176 24.8721 40.6875C24.8167 40.699 24.7613 40.7105 24.7041 40.7224C23.4705 40.9579 22.2378 41.0046 20.9853 40.9997C20.9079 40.9995 20.8305 40.9993 20.7508 40.9992C19.6221 40.9952 18.52 40.9669 17.4107 40.7412C17.3328 40.7261 17.2549 40.711 17.1747 40.6955C13.9687 40.0619 11.0744 38.7066 8.51542 36.6837C8.43445 36.6203 8.35348 36.557 8.27006 36.4917C7.10039 35.5397 5.98333 34.4473 5.09851 33.2234C4.99994 33.0887 4.89805 32.9569 4.79535 32.8253C3.02073 30.5227 1.89779 27.7155 1.31729 24.8819C1.29961 24.7964 1.29961 24.7964 1.28157 24.7093C1.04498 23.4847 0.995563 22.2734 1.0003 21.0292C1.00047 20.9498 1.00064 20.8703 1.00081 20.7885C1.00469 19.6476 1.02854 18.5318 1.25877 17.4107C1.27427 17.3317 1.28977 17.2527 1.30575 17.1713C1.76418 14.8788 2.55746 12.286 3.98428 10.3878C4.39637 9.88715 4.39637 9.88715 4.51829 9.27986C4.43729 9.06192 4.3371 8.87392 4.22385 8.67148C3.97831 7.77165 4.13141 6.78971 4.5506 5.96974C5.08783 5.07595 5.81314 4.54127 6.79879 4.22385C7.67045 4.01583 8.46798 4.1535 9.29571 4.45794C9.41158 4.49656 9.41158 4.49656 9.52979 4.53597C9.72279 4.4219 9.90248 4.30334 10.0857 4.17508C12.2152 2.74891 14.6144 1.83233 17.1181 1.31729C17.1751 1.30549 17.2321 1.29369 17.2908 1.28153C18.5154 1.04508 19.7265 0.995563 20.9707 1.0003ZM11.0904 6.40865C11.1089 6.54323 11.1089 6.54323 11.1279 6.68053C11.2694 7.82406 11.2153 8.87601 10.514 9.84008C9.94722 10.5509 9.25235 10.9621 8.35936 11.1684C8.13931 11.187 7.92168 11.1868 7.701 11.183C7.64543 11.183 7.58985 11.1829 7.5326 11.1829C7.1524 11.1798 6.78508 11.1434 6.40865 11.0904C4.71488 13.8129 3.4562 16.8188 3.42498 20.0755C3.42421 20.1418 3.42345 20.2081 3.42267 20.2764C3.40908 21.7678 3.4298 23.2046 3.75568 24.6673C3.7776 24.7673 3.7776 24.7673 3.79995 24.8694C3.89776 25.3019 4.01472 25.7263 4.14582 26.1499C4.17398 26.2417 4.17398 26.2417 4.20271 26.3354C5.02537 28.9647 6.47469 31.3096 8.39114 33.2786C8.50167 33.3924 8.61076 33.5075 8.71964 33.6229C9.2321 34.1556 9.79779 34.6033 10.3881 35.0451C10.4324 35.0785 10.4766 35.1119 10.5223 35.1463C14.2113 37.915 18.8897 39.0815 23.453 38.4589C26.1512 38.0576 28.622 37.0678 30.9096 35.5913C30.891 35.4567 30.891 35.4567 30.8721 35.3194C30.7306 34.1759 30.7847 33.124 31.486 32.1599C32.0527 31.449 32.7476 31.0379 33.6406 30.8316C33.8606 30.813 34.0783 30.8132 34.299 30.8169C34.3545 30.817 34.4101 30.817 34.4674 30.8171C34.8476 30.8202 35.2149 30.8566 35.5913 30.9096C36.8068 28.9559 37.7617 26.9296 38.2443 24.6673C38.2671 24.5644 38.2671 24.5644 38.2903 24.4594C38.7768 22.1707 38.7526 19.6144 38.2443 17.3326C38.2297 17.266 38.2151 17.1993 38.2 17.1306C38.1022 16.6981 37.9852 16.2736 37.8541 15.8501C37.8354 15.7889 37.8166 15.7276 37.7973 15.6646C36.9746 13.0352 35.5253 10.6903 33.6088 8.72139C33.4983 8.6076 33.3892 8.49242 33.2803 8.37704C32.7679 7.84441 32.2022 7.39666 31.6119 6.95485C31.5676 6.92144 31.5233 6.88804 31.4777 6.85362C29.931 5.69284 28.225 4.81337 26.3839 4.22385C26.3315 4.20658 26.2791 4.1893 26.2251 4.1715C21.2104 2.52928 15.4292 3.43142 11.0904 6.40865ZM6.87682 6.87682C6.65693 7.13811 6.57219 7.36212 6.53057 7.701C6.58157 8.10175 6.69675 8.343 6.99386 8.61783C7.32675 8.84253 7.65416 8.88049 8.04725 8.82753C8.42151 8.64041 8.64041 8.42151 8.82753 8.04725C8.90154 7.63151 8.82733 7.3097 8.59345 6.95485C8.30852 6.69129 8.10511 6.57777 7.71563 6.54032C7.36407 6.56962 7.14611 6.6502 6.87682 6.87682ZM33.2992 33.6991C33.143 34.0115 33.1163 34.2347 33.1724 34.5769C33.3064 34.9437 33.4741 35.1395 33.7967 35.3572C34.114 35.463 34.4 35.4966 34.7229 35.3847C35.0872 35.2014 35.2992 34.9623 35.4353 34.5769C35.4854 34.1685 35.4238 33.908 35.2012 33.5626C34.8561 33.2434 34.5876 33.143 34.1133 33.1508C33.7445 33.2005 33.5326 33.4289 33.2992 33.6991Z" fill="black" stroke="#EDDDFF" stroke-width="0.8"/>
<path d="M29.6611 10.076C29.7305 10.1312 29.7305 10.1312 29.8012 10.1875C32.5678 12.416 34.4473 15.7399 34.8524 19.2849C35.193 23.029 34.2863 26.6974 31.9239 29.6611C31.8871 29.7074 31.8503 29.7536 31.8124 29.8013C29.5839 32.5678 26.26 34.4473 22.715 34.8525C18.9709 35.193 15.3025 34.2864 12.3388 31.924C12.2925 31.8872 12.2463 31.8504 12.1986 31.8124C9.45752 29.6044 7.56624 26.299 7.14774 22.7852C6.80072 19.0773 7.67093 15.3756 9.99791 12.4168C10.1735 12.2097 10.3531 12.0088 10.5383 11.8103C10.6856 11.6522 10.8247 11.4899 10.9635 11.3244C12.9841 9.02242 16.0597 7.63052 19.0492 7.18893C19.0986 7.18157 19.1481 7.17422 19.199 7.16664C22.9137 6.68022 26.7385 7.7464 29.6611 10.076ZM14.2115 11.7146C14.1456 11.7614 14.0797 11.8081 14.0118 11.8563C11.5227 13.7326 10.0654 16.4598 9.55931 19.4961C9.41234 20.8256 9.44272 22.2744 9.76383 23.5749C9.7768 23.629 9.78978 23.683 9.80315 23.7387C10.1121 24.9873 10.6418 26.1543 11.3244 27.2423C11.5683 27.0135 11.7749 26.7766 11.9779 26.5107C13.264 24.8916 14.9308 23.6794 16.8644 22.9507C16.837 22.9156 16.8095 22.8805 16.7812 22.8443C15.9379 21.7456 15.2334 20.5415 15.1478 19.1273C15.1437 19.0604 15.1395 18.9935 15.1353 18.9246C15.0833 17.2451 15.688 15.7056 16.8224 14.4733C17.8699 13.3974 19.3566 12.8304 20.843 12.7794C22.574 12.7613 24.0117 13.385 25.2543 14.5526C26.3726 15.7147 26.887 17.2645 26.8688 18.8615C26.7738 20.368 26.1914 21.7814 25.1354 22.8727C25.3514 23.0166 25.5659 23.1195 25.8023 23.2247C27.7243 24.0869 29.4043 25.5058 30.5974 27.2423C32.2778 25.2594 32.601 22.3077 32.4701 19.8295C32.1827 16.7798 30.5933 14.1183 28.3346 12.1047C24.2963 8.77479 18.4232 8.66427 14.2115 11.7146ZM18.425 16.2402C17.7793 17.0208 17.4025 17.9503 17.4886 18.9712C17.6861 20.0744 18.148 20.9139 19.0785 21.5754C19.9038 22.0812 20.7506 22.2618 21.7022 22.0875C22.6351 21.8601 23.3855 21.3883 23.9309 20.5867C24.4428 19.7031 24.6431 18.8123 24.4234 17.8057C24.1535 16.8063 23.5169 16.0632 22.6385 15.538C21.1825 14.8281 19.5873 15.1038 18.425 16.2402ZM14.5236 27.2423C14.4765 27.2843 14.4294 27.3263 14.3809 27.3697C14.0651 27.6633 13.8143 27.9959 13.5628 28.3444C13.5121 28.4144 13.5121 28.4144 13.4604 28.4859C13.2825 28.7384 13.141 28.9783 13.041 29.271C14.772 31.1709 17.5649 32.3388 20.1077 32.4863C20.3972 32.4938 20.686 32.4958 20.9755 32.4945C21.1296 32.494 21.1296 32.494 21.2868 32.4934C22.0711 32.484 22.8134 32.4241 23.5749 32.2361C23.6289 32.2231 23.683 32.2101 23.7387 32.1968C25.6847 31.7153 27.559 30.7177 28.9588 29.271C28.6764 28.4806 28.0425 27.8437 27.4763 27.2423C27.4343 27.1952 27.3922 27.1481 27.3489 27.0996C26.27 25.9394 24.7594 25.25 23.2628 24.8234C23.1728 24.7967 23.0829 24.7701 22.9903 24.7426C19.8983 23.9749 16.7743 25.1234 14.5236 27.2423Z" fill="black" stroke="#EDDDFF" stroke-width="0.8"/>
</svg>
