<svg width="30" height="30" viewBox="0 0 30 30" fill="none" xmlns="http://www.w3.org/2000/svg">
<path d="M17.3182 3.2614C17.8795 3.79244 18.2633 4.51688 18.2964 5.29433C18.3246 6.57465 17.9335 7.62344 17.051 8.5623C16.736 8.86741 16.3925 9.0468 15.9996 9.23087C15.817 9.31245 15.817 9.31245 15.6457 9.43274C15.7347 9.43889 15.7347 9.43889 15.8254 9.44516C16.0499 9.4609 16.2743 9.47778 16.4987 9.49497C16.5949 9.50219 16.6912 9.50913 16.7876 9.51574C18.1023 9.60652 19.303 9.91402 20.2304 10.9237C21.1022 11.975 21.3605 13.1579 21.4813 14.482C21.5795 15.5534 21.7139 16.6188 21.8607 17.6845C21.8682 17.7399 21.8757 17.7952 21.8834 17.8523C21.8974 17.9552 21.9116 18.0582 21.9262 18.161C22.0372 18.9837 22.0372 18.9837 21.8786 19.2765C21.7072 19.4209 21.6116 19.4523 21.3879 19.4523C21.2192 19.3718 21.1096 19.2911 20.9777 19.1593C20.9444 19.0053 20.918 18.855 20.8956 18.6993C20.8882 18.6506 20.8809 18.6019 20.8733 18.5517C20.7778 17.9035 20.6989 17.253 20.6199 16.6027C20.5933 16.3842 20.5663 16.1657 20.5393 15.9472C20.4544 15.2555 20.372 14.5643 20.315 13.8697C20.2305 12.891 19.8942 12.04 19.1613 11.3663C18.9747 11.2279 18.7835 11.1178 18.5754 11.0148C18.5331 10.9926 18.4908 10.9705 18.4472 10.9477C17.4412 10.4814 16.1526 10.5322 15.0671 10.5314C15.016 10.5313 14.9648 10.5313 14.9121 10.5312C14.221 10.5317 13.5359 10.5526 12.8479 10.6193C12.7447 10.6289 12.7447 10.6289 12.6394 10.6387C11.7154 10.7409 10.928 11.0647 10.3178 11.7843C9.7109 12.6248 9.58491 13.5261 9.4922 14.5324C9.4627 14.8504 9.43085 15.1682 9.39907 15.486C9.39254 15.5515 9.386 15.6171 9.37926 15.6846C9.31268 16.347 9.23981 17.0085 9.16034 17.6694C9.1456 17.793 9.13123 17.9167 9.11722 18.0404C9.09761 18.213 9.07674 18.3854 9.05552 18.5578C9.04997 18.6087 9.04442 18.6596 9.0387 18.712C9.00136 19.0011 8.95328 19.1863 8.73165 19.3937C8.49681 19.462 8.37699 19.4776 8.15304 19.3754C8.02853 19.2765 8.02853 19.2765 7.96993 19.1593C7.93977 18.6363 7.98997 18.1216 8.05348 17.6031C8.06216 17.5291 8.07085 17.455 8.0798 17.3786C8.10283 17.1827 8.12622 16.9868 8.14982 16.7909C8.19153 16.444 8.23233 16.0971 8.2732 15.7501C8.28223 15.6741 8.29125 15.5982 8.30055 15.5199C8.34693 15.1251 8.39025 14.7304 8.42805 14.3347C8.43189 14.2948 8.43573 14.2549 8.43968 14.2138C8.45789 14.0238 8.47556 13.8337 8.49245 13.6435C8.60785 12.4124 9.08643 11.2971 10.0441 10.4842C11.3237 9.52735 12.8723 9.49123 14.4152 9.43274C14.344 9.40816 14.344 9.40816 14.2713 9.38307C13.2114 8.99936 12.4588 8.36535 11.9639 7.34465C11.5603 6.43398 11.414 5.39895 11.7632 4.44197C12.1441 3.58932 12.7382 2.96382 13.6169 2.61389C14.8972 2.20119 16.278 2.39699 17.3182 3.2614ZM13.0635 4.23484C12.7032 4.70964 12.5288 5.26275 12.5988 5.85852C12.74 6.7488 13.1723 7.5707 13.9062 8.10706C14.374 8.39379 14.8184 8.4875 15.3573 8.37371C15.6419 8.28354 15.8737 8.14189 16.1145 7.9679C16.1511 7.94267 16.1877 7.91744 16.2255 7.89145C16.8436 7.41983 17.157 6.66329 17.2863 5.91712C17.3483 5.34056 17.2092 4.75882 16.8725 4.28382C16.4376 3.77831 15.8484 3.49249 15.1909 3.43787C14.3716 3.40243 13.6277 3.61097 13.0635 4.23484Z" fill="black"/>
<path d="M15.2945 17.0494C15.5514 17.3067 15.69 17.6461 15.8465 17.9693C15.8909 18.06 15.8909 18.06 15.9362 18.1524C15.9984 18.2798 16.0604 18.4072 16.1223 18.5347C16.2174 18.7305 16.3131 18.9259 16.4089 19.1214C16.4693 19.2452 16.5296 19.3689 16.59 19.4928C16.6187 19.5515 16.6474 19.6102 16.6771 19.6707C16.7033 19.7249 16.7295 19.779 16.7565 19.8349C16.7914 19.9065 16.7914 19.9065 16.8269 19.9796C16.8765 20.0963 16.8765 20.0963 16.8765 20.2135C16.9376 20.2168 16.9376 20.2168 16.9999 20.2203C17.5731 20.2576 18.138 20.3364 18.706 20.4203C18.87 20.4444 19.034 20.4678 19.1981 20.4912C19.3031 20.5066 19.4082 20.522 19.5132 20.5374C19.5619 20.5443 19.6105 20.5512 19.6606 20.5583C19.9439 20.6008 20.1928 20.6535 20.4397 20.8068C20.5328 20.9536 20.5481 21.0867 20.54 21.2588C20.4775 21.5166 20.2838 21.6739 20.0992 21.8541C20.0433 21.9112 19.9875 21.9683 19.9319 22.0256C19.6853 22.2775 19.4378 22.5267 19.169 22.755C19.1339 22.7879 19.0989 22.8209 19.0628 22.8548C18.9451 22.9526 18.8352 23.0216 18.7039 23.0983C18.4244 23.2845 18.2155 23.4617 18.107 23.7877C18.0927 24.4336 18.259 25.0758 18.4017 25.7022C18.4735 26.0179 18.5296 26.3353 18.5794 26.6552C18.5878 26.6997 18.5962 26.7442 18.6049 26.7901C18.6522 27.0738 18.6202 27.2406 18.4585 27.4791C18.2153 27.5984 18.0967 27.6115 17.8374 27.5302C17.5392 27.411 17.2625 27.2548 16.9827 27.0983C16.869 27.0358 16.7552 26.9734 16.6414 26.911C16.4661 26.8145 16.291 26.7177 16.1165 26.6197C15.9505 26.5267 15.7837 26.4352 15.6167 26.3439C15.5407 26.3004 15.5407 26.3004 15.4631 26.2561C15.19 26.1043 15.19 26.1043 14.8864 26.0946C14.8277 26.1261 14.769 26.1576 14.7085 26.1901C14.6663 26.2119 14.6242 26.2338 14.5807 26.2563C14.4253 26.338 14.2722 26.4231 14.1189 26.5087C14.0041 26.5719 13.8892 26.6351 13.7742 26.6982C13.7157 26.7304 13.6571 26.7626 13.5968 26.7958C13.3151 26.9505 13.0328 27.1041 12.7493 27.2557C12.6991 27.2832 12.6489 27.3107 12.5972 27.339C12.3202 27.4863 12.0944 27.5835 11.7789 27.5963C11.6133 27.5264 11.5201 27.4693 11.4169 27.3222C11.3482 27.1283 11.3778 26.982 11.4062 26.7787C11.4118 26.7381 11.4174 26.6974 11.4232 26.6555C11.5087 26.0583 11.6235 25.465 11.7361 24.8724C11.7654 24.7176 11.7937 24.5626 11.8219 24.4075C11.8311 24.3604 11.8403 24.3133 11.8498 24.2648C11.8946 24.0163 11.8946 24.0163 11.8554 23.7705C11.7654 23.653 11.671 23.5485 11.566 23.4442C11.5235 23.4018 11.4811 23.3595 11.4374 23.3159C11.393 23.2722 11.3485 23.2285 11.3028 23.1835C11.2597 23.1405 11.2167 23.0974 11.1723 23.0531C10.9308 22.8135 10.6833 22.5849 10.4257 22.3628C10.2458 22.2041 10.0765 22.0353 9.90752 21.8651C9.87379 21.8316 9.84007 21.7981 9.80532 21.7636C9.55043 21.5081 9.4887 21.3998 9.46875 21.0379C9.50812 20.8465 9.56639 20.7952 9.72807 20.6822C9.94123 20.6228 10.1572 20.5945 10.3763 20.5651C10.4722 20.551 10.4722 20.551 10.57 20.5367C10.7064 20.5168 10.843 20.4973 10.9795 20.4782C11.1963 20.4474 11.4128 20.4145 11.6292 20.381C11.7706 20.3593 11.9121 20.3377 12.0535 20.316C12.1202 20.3058 12.187 20.2955 12.2557 20.2849C12.3185 20.2755 12.3813 20.2662 12.446 20.2565C12.5287 20.244 12.5287 20.244 12.6131 20.2313C12.7854 20.2123 12.9532 20.2105 13.1265 20.2135C13.1426 20.1623 13.1586 20.111 13.1751 20.0582C13.2396 19.8738 13.3147 19.7074 13.4032 19.5335C13.4345 19.4715 13.4659 19.4096 13.4981 19.3457C13.5314 19.2804 13.5647 19.2151 13.5989 19.1478C13.8648 18.6224 14.1253 18.0956 14.3684 17.5592C14.4611 17.3585 14.5394 17.1935 14.7085 17.0494C14.9332 16.9746 15.0652 16.9931 15.2945 17.0494ZM14.9429 18.7487C14.9119 18.8134 14.8809 18.8782 14.8489 18.9449C14.7336 19.1852 14.6179 19.4253 14.502 19.6653C14.4519 19.7691 14.4019 19.8731 14.3521 19.9771C14.2804 20.1266 14.2083 20.2759 14.1361 20.4252C14.1139 20.4717 14.0918 20.5182 14.0689 20.5662C14.0478 20.6096 14.0267 20.653 14.005 20.6977C13.9867 20.7358 13.9683 20.7739 13.9494 20.8132C13.837 21.0033 13.7539 21.0817 13.5378 21.1374C13.4675 21.148 13.3972 21.1586 13.3247 21.1695C13.2673 21.1785 13.2673 21.1785 13.2088 21.1876C13.0862 21.2066 12.9636 21.2246 12.8409 21.2426C12.7606 21.2548 12.6803 21.2671 12.6001 21.2795C12.4422 21.3038 12.2843 21.3276 12.1264 21.3511C11.7955 21.4004 11.4649 21.4515 11.1343 21.5026C11.4645 21.9068 11.8365 22.2679 12.2073 22.6342C12.3354 22.7607 12.4634 22.8875 12.5912 23.0143C12.6205 23.0432 12.6499 23.0721 12.6801 23.1018C12.8855 23.3058 12.8855 23.3058 12.9507 23.4362C12.9439 23.9919 12.8415 24.539 12.742 25.0841C12.7149 25.2344 12.688 25.3847 12.6612 25.535C12.6493 25.6004 12.6374 25.6658 12.6251 25.7332C12.5946 25.8984 12.5946 25.8984 12.5992 26.0729C12.8542 25.9943 13.0826 25.8949 13.3188 25.771C13.3526 25.7534 13.3863 25.7357 13.4211 25.7176C13.5281 25.6617 13.6349 25.6055 13.7417 25.5492C13.8486 25.4932 13.9555 25.4373 14.0623 25.3814C14.1594 25.3307 14.2563 25.2797 14.3532 25.2288C14.4125 25.198 14.4717 25.1671 14.5328 25.1354C14.5945 25.1025 14.6563 25.0695 14.7199 25.0356C14.9476 24.9303 15.0519 24.9521 15.2945 25.0182C15.5203 25.1183 15.7366 25.2336 15.9537 25.3514C16.0107 25.3818 16.0677 25.4121 16.1265 25.4433C16.3602 25.568 16.5931 25.6941 16.8247 25.8229C16.8826 25.855 16.9405 25.8871 17.0001 25.9202C17.0524 25.9495 17.1046 25.9788 17.1584 26.009C17.2803 26.0816 17.2803 26.0816 17.4039 26.0729C17.3514 25.6805 17.2937 25.2896 17.2267 24.8994C17.2161 24.8375 17.2055 24.7757 17.1946 24.7119C17.1733 24.5882 17.1516 24.4645 17.1297 24.3409C17.1014 24.1763 17.0761 24.0116 17.0523 23.8463C17.0362 23.7383 17.0362 23.7383 17.0198 23.6282C17.0708 23.3271 17.25 23.1777 17.4624 22.9674C17.5177 22.9115 17.5729 22.8555 17.6281 22.7994C17.8145 22.6112 18.0027 22.4248 18.1912 22.2386C18.3195 22.1119 18.4475 21.985 18.5755 21.858C18.6197 21.8145 18.6197 21.8145 18.6648 21.7702C18.7339 21.7016 18.8015 21.6315 18.8687 21.5612C18.8687 21.5418 18.8687 21.5225 18.8687 21.5026C18.7992 21.4925 18.7298 21.4825 18.6582 21.4721C18.3999 21.4347 18.1417 21.3968 17.8834 21.3588C17.7718 21.3424 17.6601 21.3262 17.5484 21.31C17.3876 21.2868 17.2269 21.2631 17.0663 21.2393C16.9916 21.2287 16.9916 21.2287 16.9155 21.2179C16.3003 21.1257 16.3003 21.1257 16.0958 20.8507C15.8677 20.4557 15.6775 20.039 15.4812 19.6276C15.4403 19.5422 15.3993 19.4568 15.3582 19.3714C15.2586 19.164 15.1592 18.9564 15.0601 18.7487C15.0214 18.7487 14.9828 18.7487 14.9429 18.7487Z" fill="black"/>
<path d="M5.74097 19.3926C6.02987 19.5714 6.14122 19.7972 6.28044 20.0943C6.30214 20.1393 6.32383 20.1842 6.34618 20.2304C6.39167 20.3249 6.43681 20.4196 6.48161 20.5144C6.55041 20.6599 6.62023 20.8049 6.69025 20.9499C6.73437 21.0419 6.77844 21.1339 6.82243 21.2259C6.8433 21.2695 6.86417 21.313 6.88567 21.3578C7.03003 21.664 7.03003 21.664 7.03003 21.7949C7.06991 21.7976 7.10979 21.8003 7.15088 21.803C7.6205 21.8378 8.08444 21.8973 8.54938 21.9702C8.631 21.9829 8.7127 21.9951 8.79445 22.0069C8.91448 22.0242 9.03426 22.0427 9.15405 22.0616C9.22445 22.0723 9.29484 22.0829 9.36737 22.0939C9.57253 22.1531 9.65432 22.2134 9.78394 22.3809C9.85517 22.6213 9.86744 22.739 9.7583 22.9668C9.64148 23.1036 9.5345 23.2113 9.39941 23.3271C9.33722 23.3811 9.33722 23.3811 9.27377 23.4362C9.22943 23.4747 9.18509 23.5131 9.1394 23.5527C8.84867 23.8052 8.56583 24.0628 8.30009 24.3417C8.25986 24.3839 8.21963 24.4261 8.17817 24.4696C8.06276 24.6398 8.04436 24.7661 8.03345 24.97C8.06644 25.104 8.10378 25.2369 8.14331 25.3692C8.17639 25.5369 8.2052 25.7052 8.23358 25.8738C8.25348 25.991 8.27457 26.1081 8.29703 26.2249C8.47222 27.1537 8.47222 27.1537 8.28247 27.4529C8.10902 27.5579 7.99482 27.583 7.79175 27.5957C7.64226 27.5392 7.51659 27.4815 7.37793 27.4053C7.3384 27.3848 7.29887 27.3642 7.25814 27.3431C7.01374 27.2154 6.77277 27.0818 6.53175 26.948C6.47711 26.9182 6.42247 26.8883 6.36617 26.8576C6.25841 26.7987 6.15122 26.7387 6.04468 26.6776C5.97025 26.637 5.97025 26.637 5.89432 26.5955C5.85058 26.5709 5.80683 26.5462 5.76177 26.5209C5.46855 26.4392 5.18898 26.635 4.93393 26.7695C4.87109 26.8024 4.80825 26.8353 4.7435 26.8692C4.67869 26.9035 4.61389 26.9378 4.54712 26.9732C4.35714 27.0731 4.16711 27.1729 3.97697 27.2725C3.8723 27.3273 3.76776 27.3824 3.66341 27.4378C3.47851 27.5341 3.35989 27.5957 3.14819 27.5957C2.9574 27.5263 2.87243 27.4668 2.75269 27.3027C2.67837 27.0148 2.71076 26.7658 2.76527 26.4785C2.77316 26.4342 2.78105 26.3899 2.78917 26.3442C2.8143 26.2034 2.84021 26.0628 2.86621 25.9221C2.89189 25.7813 2.9174 25.6404 2.94262 25.4994C2.95831 25.412 2.97427 25.3246 2.99055 25.2373C3.04741 24.9241 3.04741 24.9241 3.04565 24.6074C2.93442 24.4584 2.93442 24.4584 2.78198 24.3218C2.72813 24.2705 2.67428 24.2192 2.61879 24.1664C2.45391 24.0162 2.28667 23.8695 2.11731 23.7244C1.95401 23.5783 1.7983 23.4254 1.64307 23.2708C1.61463 23.2426 1.5862 23.2144 1.55691 23.1854C1.3747 23.0024 1.29417 22.9167 1.26953 22.6555C1.29163 22.3947 1.33298 22.3246 1.52222 22.1465C1.69043 22.0864 1.85998 22.0651 2.03674 22.043C2.08658 22.0358 2.13641 22.0285 2.18776 22.0211C2.34663 21.9982 2.50567 21.9771 2.66479 21.9561C2.82384 21.9338 2.98284 21.9112 3.14183 21.8886C3.24066 21.8746 3.33952 21.861 3.43842 21.8477C3.4834 21.8416 3.52838 21.8355 3.57471 21.8292C3.61408 21.824 3.65345 21.8187 3.69401 21.8134C3.87025 21.7848 3.87025 21.7848 4.04175 21.7363C4.12229 21.6115 4.1858 21.496 4.24866 21.3626C4.26728 21.3248 4.2859 21.2869 4.30508 21.248C4.36457 21.1267 4.4229 21.0049 4.4812 20.8831C4.52042 20.8026 4.55971 20.7221 4.59908 20.6417C4.79888 20.2327 4.79888 20.2327 4.99413 19.8215C5.17359 19.4441 5.31954 19.349 5.74097 19.3926ZM5.50659 21.0918C5.48683 21.1353 5.46706 21.1787 5.4467 21.2235C5.35647 21.4205 5.26493 21.6169 5.17334 21.8132C5.14226 21.8816 5.11118 21.95 5.07915 22.0205C5.03299 22.1188 5.03299 22.1188 4.98589 22.2191C4.95796 22.2795 4.93004 22.3399 4.90127 22.4022C4.75223 22.6376 4.59985 22.7117 4.33201 22.7739C4.26727 22.7828 4.20252 22.7917 4.13582 22.8009C4.06539 22.8109 3.99495 22.8209 3.92239 22.8312C3.84939 22.8409 3.77638 22.8506 3.70117 22.8606C3.62704 22.871 3.5529 22.8814 3.47652 22.8921C3.29391 22.9176 3.11124 22.9425 2.92847 22.9668C3.16517 23.2518 3.41434 23.5173 3.6792 23.7761C4.09481 24.1826 4.09481 24.1826 4.10915 24.3726C4.11007 24.7532 4.07103 25.1179 4.01245 25.4937C4.00407 25.5497 3.99568 25.6058 3.98705 25.6635C3.9666 25.7998 3.94576 25.9361 3.92456 26.0723C4.14583 26.0103 4.33816 25.9254 4.53751 25.8134C4.58449 25.7871 4.63147 25.7608 4.67987 25.7336C4.77687 25.6787 4.87346 25.623 4.96964 25.5666C5.22514 25.4251 5.43058 25.3196 5.73127 25.3826C6.0146 25.4835 6.27191 25.6337 6.53198 25.783C6.59135 25.8162 6.65072 25.8495 6.71188 25.8838C6.8574 25.9655 7.00247 26.0478 7.14722 26.1309C7.22593 25.9735 7.19277 25.8919 7.16026 25.7198C7.1495 25.661 7.13874 25.6021 7.12765 25.5415C7.11598 25.4798 7.10431 25.4181 7.09229 25.3545C6.90397 24.3539 6.90397 24.3539 7.08862 24.0215C7.16673 23.9824 7.24486 23.9433 7.323 23.9043C7.43288 23.8113 7.43288 23.8113 7.53815 23.7027C7.59649 23.6441 7.59649 23.6441 7.65602 23.5844C7.69598 23.5438 7.73593 23.5031 7.7771 23.4612C7.81796 23.4203 7.85882 23.3794 7.90092 23.3373C8.09708 23.175 8.09708 23.175 8.2019 22.9668C8.15551 22.9606 8.10912 22.9545 8.06133 22.9481C7.85052 22.9196 7.63986 22.8901 7.4292 22.8606C7.3562 22.8509 7.2832 22.8412 7.20798 22.8312C7.13755 22.8212 7.06712 22.8112 6.99455 22.8009C6.92981 22.792 6.86506 22.7831 6.79836 22.7739C6.57186 22.7213 6.39566 22.6504 6.25526 22.459C6.23903 22.424 6.22279 22.389 6.20605 22.3529C6.18732 22.3139 6.16859 22.2748 6.14929 22.2345C6.12119 22.1728 6.12119 22.1728 6.09253 22.1099C6.05233 22.0255 6.01205 21.9411 5.97168 21.8567C5.94279 21.7956 5.94279 21.7956 5.91331 21.7333C5.80733 21.514 5.687 21.3026 5.56519 21.0918C5.54585 21.0918 5.52651 21.0918 5.50659 21.0918Z" fill="black"/>
<path d="M24.6091 19.3951C24.7982 19.4531 24.8425 19.5107 24.9463 19.6835C24.9821 19.7581 25.0174 19.8328 25.0522 19.9078C25.0726 19.9482 25.093 19.9885 25.1139 20.0301C25.2382 20.2791 25.3419 20.528 25.4345 20.7904C25.6499 21.4 25.6499 21.4 26.112 21.816C26.4813 21.9234 26.8566 21.9477 27.2393 21.964C27.5047 21.9775 27.7638 22.0153 28.0259 22.0575C28.0685 22.0626 28.1112 22.0677 28.1551 22.073C28.3655 22.1034 28.4656 22.1385 28.6191 22.2891C28.7465 22.5018 28.7563 22.6076 28.7107 22.8522C28.5967 23.0307 28.4505 23.1722 28.3005 23.3209C28.2447 23.3781 28.1889 23.4353 28.1332 23.4926C27.8405 23.7914 27.5434 24.0818 27.2237 24.352C27.1923 24.3792 27.161 24.4063 27.1287 24.4342C27.0975 24.4591 27.0664 24.4841 27.0343 24.5098C26.9411 24.6051 26.9411 24.6051 26.9431 24.7376C26.9492 24.7876 26.9553 24.8375 26.9616 24.889C26.9685 24.9463 26.9754 25.0037 26.9826 25.0628C27.0475 25.4938 27.1274 25.922 27.2083 26.3503C27.2215 26.4229 27.2346 26.4955 27.2481 26.5704C27.2603 26.6356 27.2726 26.7008 27.2851 26.7681C27.3123 27.0292 27.304 27.2284 27.1433 27.4408C26.9887 27.5567 26.9121 27.5938 26.7185 27.5983C26.4275 27.4846 26.1554 27.3453 25.8813 27.1961C25.8012 27.1534 25.7211 27.1107 25.6409 27.0681C25.5162 27.0016 25.3916 26.9348 25.2676 26.867C25.1467 26.8012 25.0252 26.7367 24.9035 26.6724C24.8665 26.6519 24.8296 26.6313 24.7916 26.6101C24.6281 26.5251 24.5286 26.4766 24.3456 26.5185C24.2972 26.5461 24.2488 26.5737 24.199 26.6022C24.1348 26.6347 24.0707 26.6671 24.0046 26.7006C23.9314 26.7392 23.8584 26.7779 23.7854 26.8166C23.7052 26.8587 23.625 26.9008 23.5447 26.9429C23.4194 27.0087 23.2941 27.0748 23.1691 27.1411C23.0476 27.2055 22.9258 27.2693 22.8039 27.333C22.7669 27.3528 22.7299 27.3727 22.6918 27.3931C22.4722 27.5072 22.2787 27.5803 22.031 27.5983C21.8623 27.5178 21.7527 27.4371 21.6209 27.3053C21.5831 26.9904 21.6228 26.751 21.7202 26.4489C22.0501 25.4935 22.0501 25.4935 21.9051 24.535C21.5421 23.9966 21.0132 23.56 20.4982 23.1714C20.2984 23.0149 20.2245 22.9476 20.1563 22.6941C20.156 22.4672 20.1816 22.3772 20.3318 22.2076C20.5957 22.1017 20.8631 22.0547 21.1432 22.0149C21.1862 22.0086 21.2292 22.0022 21.2736 21.9957C21.364 21.9825 21.4545 21.9694 21.5449 21.9564C21.683 21.9367 21.8209 21.9163 21.9588 21.8959C22.047 21.8831 22.1353 21.8702 22.2235 21.8575C22.2645 21.8514 22.3054 21.8454 22.3476 21.8391C22.5563 21.8096 22.7577 21.7908 22.9685 21.7975C22.9839 21.7482 22.9992 21.6989 23.015 21.6482C23.0903 21.4327 23.1812 21.2282 23.2791 21.0225C23.2977 20.9832 23.3164 20.944 23.3356 20.9035C23.3749 20.821 23.4144 20.7386 23.454 20.6562C23.514 20.5307 23.5731 20.4047 23.6322 20.2786C23.6707 20.1982 23.7092 20.1178 23.7479 20.0374C23.7652 20 23.7825 19.9625 23.8004 19.924C23.9812 19.5538 24.1829 19.3407 24.6091 19.3951ZM24.4334 21.0944C24.3393 21.2726 24.2453 21.4508 24.1514 21.629C24.1249 21.6792 24.0984 21.7293 24.0711 21.781C24.0453 21.8301 24.0194 21.8792 23.9928 21.9298C23.9546 22.0016 23.9546 22.0016 23.9157 22.0749C23.8595 22.1842 23.8084 22.2961 23.7588 22.4086C23.6524 22.5924 23.5675 22.64 23.3787 22.735C23.2002 22.7765 23.2002 22.7765 23.004 22.8034C22.9336 22.8134 22.8631 22.8234 22.7906 22.8337C22.7176 22.8435 22.6446 22.8532 22.5693 22.8632C22.4952 22.8735 22.4211 22.8839 22.3447 22.8946C22.1621 22.9201 21.9794 22.945 21.7966 22.9694C22.017 23.2318 22.243 23.4849 22.4851 23.7274C22.5274 23.7708 22.5274 23.7708 22.5705 23.815C22.6423 23.887 22.7173 23.9559 22.7927 24.024C22.8314 24.024 22.8701 24.024 22.9099 24.024C23.1927 24.6333 22.8995 25.4916 22.7927 26.1334C22.8939 26.0828 22.9952 26.0322 23.0964 25.9815C23.1824 25.9386 23.2685 25.8958 23.3546 25.8531C23.5412 25.7604 23.7261 25.6669 23.9085 25.5663C23.9816 25.5261 23.9816 25.5261 24.0562 25.4852C24.0973 25.4616 24.1385 25.4379 24.1809 25.4136C24.5007 25.3146 24.7474 25.4321 25.0314 25.577C25.1412 25.6361 25.2507 25.6959 25.3599 25.7562C25.47 25.8163 25.5802 25.8762 25.6906 25.9359C25.7389 25.9625 25.7873 25.9892 25.837 26.0166C25.9522 26.0834 25.9522 26.0834 26.074 26.0748C26.0445 25.78 26.0063 25.4911 25.9531 25.1996C25.8218 24.3921 25.8218 24.3921 25.9632 24.1447C26.071 24.0168 26.1868 23.9046 26.3084 23.7897C26.4092 23.6896 26.5094 23.5891 26.6096 23.4884C26.6794 23.4186 26.7495 23.3492 26.8199 23.2801C26.9044 23.1971 26.9874 23.1127 27.0701 23.028C27.0701 23.0086 27.0701 22.9893 27.0701 22.9694C27.0237 22.9632 26.9773 22.957 26.9295 22.9506C26.7187 22.9222 26.508 22.8927 26.2974 22.8632C26.2244 22.8535 26.1514 22.8437 26.0762 22.8337C26.0057 22.8237 25.9353 22.8137 25.8627 22.8034C25.798 22.7945 25.7332 22.7856 25.6665 22.7765C25.3987 22.7142 25.2463 22.6401 25.0973 22.4048C25.0693 22.3443 25.0414 22.2839 25.0127 22.2216C24.9819 22.1561 24.9511 22.0906 24.9194 22.023C24.8883 21.9547 24.8572 21.8863 24.8252 21.8158C24.793 21.7467 24.7608 21.6776 24.7276 21.6065C24.6483 21.4361 24.5698 21.2654 24.4919 21.0944C24.4726 21.0944 24.4533 21.0944 24.4334 21.0944Z" fill="black"/>
<path d="M11.7174 13.5929C11.8602 13.6844 11.8602 13.6844 11.9518 13.8272C12.012 14.1312 12.0105 14.4185 11.9885 14.7258C11.9854 14.7728 11.9824 14.8198 11.9792 14.8682C11.9691 15.0225 11.9583 15.1768 11.9474 15.331C11.94 15.4387 11.9326 15.5465 11.9252 15.6542C11.9096 15.8795 11.8936 16.1048 11.8774 16.3301C11.8568 16.6185 11.8375 16.907 11.8186 17.1956C11.8038 17.4179 11.788 17.6402 11.772 17.8624C11.7644 17.9688 11.7573 18.0752 11.7505 18.1816C11.7408 18.3303 11.7299 18.4789 11.7186 18.6275C11.7161 18.6713 11.7135 18.7151 11.7109 18.7602C11.6878 19.0393 11.6277 19.1992 11.4244 19.3937C11.1948 19.4605 11.071 19.4762 10.8495 19.3827C10.7142 19.2706 10.6687 19.2027 10.6041 19.0421C10.5955 18.9251 10.5955 18.9251 10.6041 18.7999C10.6071 18.7522 10.6101 18.7046 10.6131 18.6555C10.617 18.6039 10.6209 18.5523 10.6249 18.4992C10.6285 18.4447 10.6321 18.3902 10.6358 18.334C10.6478 18.155 10.6607 17.976 10.6737 17.797C10.6823 17.6733 10.6908 17.5496 10.6993 17.4259C10.7169 17.172 10.7349 16.9182 10.7532 16.6644C10.7747 16.3637 10.7948 16.063 10.8141 15.7621C10.8281 15.5465 10.8427 15.3308 10.8575 15.1152C10.8643 15.0139 10.8709 14.9125 10.8773 14.8111C10.8862 14.6703 10.8961 14.5296 10.9062 14.3889C10.9098 14.3274 10.9098 14.3274 10.9134 14.2646C10.9325 14.0176 10.9819 13.8501 11.1314 13.6515C11.3193 13.5576 11.5136 13.5646 11.7174 13.5929Z" fill="black"/>
<path d="M18.6337 13.5938C18.8077 13.7232 18.8581 13.7981 18.9267 14.004C18.9402 14.1324 18.951 14.2612 18.9603 14.39C18.9631 14.429 18.966 14.468 18.9689 14.5082C18.9784 14.6375 18.9875 14.7668 18.9965 14.8962C19.003 14.9868 19.0095 15.0774 19.016 15.1681C19.0296 15.3587 19.043 15.5493 19.0563 15.74C19.0732 15.9814 19.0906 16.2228 19.1081 16.4642C19.1217 16.6519 19.1349 16.8396 19.1481 17.0274C19.1543 17.1162 19.1607 17.205 19.1672 17.2938C19.1883 17.5838 19.2063 17.8737 19.2197 18.1642C19.2218 18.2092 19.2239 18.2542 19.226 18.3006C19.2316 18.4371 19.2352 18.5735 19.2382 18.7101C19.2399 18.7518 19.2417 18.7935 19.2434 18.8364C19.2456 19.0349 19.2342 19.1409 19.1139 19.3019C18.9313 19.4335 18.7991 19.4532 18.5751 19.4532C18.4103 19.3763 18.4103 19.3763 18.2822 19.2188C18.125 18.7305 18.1236 18.1946 18.0895 17.6862C18.0831 17.5952 18.0767 17.5042 18.0703 17.4132C18.0569 17.2233 18.0439 17.0334 18.031 16.8435C18.0146 16.6015 17.9976 16.3596 17.9805 16.1178C17.9673 15.9301 17.9543 15.7424 17.9413 15.5546C17.9352 15.4655 17.929 15.3764 17.9227 15.2872C17.8294 13.9534 17.8294 13.9534 17.9892 13.7037C18.2332 13.5512 18.3489 13.5532 18.6337 13.5938Z" fill="black"/>
</svg>
