<svg width="50" height="50" viewBox="0 0 50 50" fill="none" xmlns="http://www.w3.org/2000/svg">
<g clip-path="url(#clip0_892_527)">
<path d="M2.80273 0.107427C1.78711 0.351567 0.791016 1.19141 0.322266 2.19727C0.0488281 2.77344 0.0488281 2.8125 0.0195312 4.95118L-0.0195312 7.12891H0.722656H1.46484V5.26368C1.46484 3.05665 1.5332 2.76368 2.14844 2.14844C2.69531 1.5918 3.11523 1.46485 4.36523 1.46485H5.3418L5.39062 2.50977C5.42969 3.38868 5.47852 3.66211 5.70312 4.16016C6.04492 4.91211 6.78711 5.66407 7.56836 6.02539L8.1543 6.29883H11.9629H15.7715L16.4062 5.9961C17.2168 5.61524 17.8223 5 18.2031 4.19922C18.4668 3.64258 18.5059 3.4375 18.5352 2.50977L18.5742 1.46485H19.5703C20.1074 1.46485 20.7324 1.51368 20.9473 1.57227C21.4648 1.71875 22.207 2.46094 22.3535 2.97852C22.5 3.5254 22.5 27.2363 22.3535 27.7832C22.207 28.3008 21.4648 29.043 20.9473 29.1895C20.4004 29.3359 3.52539 29.3359 2.97852 29.1895C2.4707 29.0527 1.74805 28.3105 1.58203 27.7734C1.49414 27.4609 1.46484 25.1367 1.46484 17.9785V8.59375H0.732422H-1.86265e-09L0.0195312 18.2813L0.0488281 27.9785L0.322266 28.5645C0.683594 29.3359 1.43555 30.0879 2.1875 30.4395C2.76367 30.7031 2.83203 30.7129 4.70703 30.7422L6.63086 30.7715L6.66016 34.8926L6.68945 39.0137L6.96289 39.5996C7.32422 40.3711 8.07617 41.123 8.82812 41.4746L9.42383 41.748L16.3867 41.7773L23.3398 41.8066V42.998C23.3398 44.9414 22.9395 46.084 21.9141 47.1094C20.8301 48.1934 19.7949 48.5352 17.6074 48.5352H16.1133V49.2676V50H28.3203H40.5273V49.2676V48.5352H39.0332C37.3437 48.5352 36.7383 48.418 35.8008 47.9199C34.9805 47.4805 34.2676 46.7383 33.8477 45.8789C33.4082 44.9805 33.3008 44.4141 33.3008 42.959V41.8066L40.2637 41.7773L47.2168 41.748L47.8613 41.4355C48.6426 41.0547 49.3262 40.3516 49.6875 39.5703L49.9512 39.0137L49.9805 35.7617L50.0098 32.5195H49.2773H48.5352V35.459C48.5352 37.5 48.4961 38.5254 48.418 38.8086C48.2617 39.3359 47.5391 40.0586 47.0117 40.2148C46.4258 40.3906 10.2148 40.3906 9.62891 40.2148C9.0918 40.0488 8.34961 39.3262 8.21289 38.8184C8.14453 38.5645 8.10547 37.0703 8.10547 34.5898V30.7617H9.32617H10.5469V34.3262V37.8906H28.3203H46.0937V25.6836V13.4766H35.0098H23.9258V12.2559V11.0352H35.3809H46.8359L47.334 11.2793C47.8613 11.543 48.2812 12.041 48.4375 12.6074C48.4961 12.8125 48.5352 16.3965 48.5352 21.9922V31.0547H49.2676H50L49.9805 21.6992C49.9512 12.6465 49.9414 12.3438 49.7559 11.8848C49.4922 11.2305 48.9648 10.5762 48.4082 10.1856C47.4512 9.54102 48.1348 9.57032 35.4394 9.57032H23.9355L23.9062 6.17188L23.877 2.78321L23.5742 2.14844C23.1934 1.3379 22.5879 0.732427 21.7773 0.351567L21.1426 0.0488329L12.1582 0.0293016C7.12891 0.019536 3.00781 0.0585985 2.80273 0.107427ZM17.0898 2.2168C17.0898 2.63672 17.041 3.1543 16.9824 3.36915C16.8359 3.88672 16.0937 4.62891 15.5762 4.77539C15.0098 4.93164 8.89648 4.92188 8.35937 4.76563C7.83203 4.60938 7.10937 3.88672 6.95312 3.35938C6.89453 3.13477 6.83594 2.61719 6.83594 2.20704V1.46485H11.9629H17.0898V2.2168ZM44.6289 25.6836V36.4258H28.3203H12.0117V33.5938V30.7715L16.582 30.7422L21.1426 30.7129L21.7969 30.4004C22.5977 30.0195 23.1836 29.4336 23.5742 28.6133L23.877 27.9785L23.9062 21.4551L23.9355 14.9414H34.2773H44.6289V25.6836ZM31.8359 43.0078C31.8359 45.332 32.3145 46.6895 33.623 48.125L34.0137 48.5352H28.3203H22.627L23.0176 48.1152C24.3164 46.6992 24.8047 45.3223 24.8047 43.0176V41.7969H28.3203H31.8359V43.0078Z" fill="black"/>
<path d="M27.4034 21.7969C26.5831 22.8418 25.9874 23.7012 26.0167 23.7793C26.0753 23.9453 28.7999 27.4414 28.8682 27.4414C28.9366 27.4414 29.9815 26.6406 29.9815 26.5918C29.9815 26.5625 29.5225 25.957 28.9463 25.2344C28.3799 24.502 27.9014 23.8574 27.8721 23.7793C27.8428 23.7012 28.2823 23.0566 28.9073 22.2559C30.1182 20.7031 30.0987 20.8301 29.2686 20.2441L28.8585 19.9414L27.4034 21.7969Z" fill="black"/>
<path d="M38.8498 20.3892C38.5959 20.5846 38.3908 20.7896 38.3908 20.8385C38.381 20.8775 38.8302 21.4928 39.3869 22.1959C39.9337 22.899 40.422 23.5338 40.4611 23.6021C40.5197 23.6998 40.217 24.149 39.5041 25.067C38.9279 25.7994 38.4396 26.4537 38.4103 26.5221C38.3908 26.5904 38.6056 26.8248 38.9181 27.0592C39.3966 27.4205 39.4943 27.4596 39.592 27.3326C39.6505 27.2545 40.3048 26.4146 41.047 25.4576C41.9259 24.3346 42.3752 23.69 42.3263 23.6119C42.0236 23.1334 39.5138 20.0182 39.4162 20.0279C39.3576 20.0279 39.1037 20.1939 38.8498 20.3892Z" fill="black"/>
<path d="M33.7305 23.1265L30.9766 25.2456L31.2793 25.6558C31.8945 26.5151 31.6016 26.6323 34.5898 24.3179C36.0547 23.1851 37.2656 22.2183 37.2852 22.1694C37.3145 22.1011 36.5527 20.9878 36.4844 20.9976C36.4844 20.9976 35.2344 21.9546 33.7305 23.1265Z" fill="black"/>
<path d="M32.2949 29.7559C32.2559 29.7852 32.2266 30.1172 32.2266 30.4883V31.1523H32.959H33.6914V30.4199V29.6875H33.0273C32.6562 29.6875 32.3242 29.7168 32.2949 29.7559Z" fill="black"/>
<path d="M35.2246 29.7559C35.1855 29.7852 35.1562 30.1172 35.1562 30.4883V31.1523H35.8887H36.6211V30.4199V29.6875H35.957C35.5859 29.6875 35.2539 29.7168 35.2246 29.7559Z" fill="black"/>
<path d="M10.0101 8.84749C8.34995 9.21858 7.03159 9.94124 5.80113 11.1717C4.07261 12.91 3.26206 14.951 3.28159 17.5291C3.30113 18.9842 3.51597 19.8729 4.1898 21.2401C5.56675 24.033 8.34995 25.869 11.475 26.0448C13.9554 26.1815 16.2796 25.3026 18.0668 23.535C20.3714 21.2596 21.1722 18.2811 20.3617 15.078C19.6097 12.1092 17.4027 9.82405 14.4535 8.97444C13.4671 8.69124 11.0257 8.62288 10.0101 8.84749ZM13.8187 10.3026C15.85 10.8494 17.6175 12.324 18.516 14.2088C19.0335 15.283 19.1898 16.0057 19.18 17.285C19.18 18.6522 18.9945 19.4237 18.389 20.703C18.0179 21.4744 17.8128 21.7576 17.1 22.4705C16.3773 23.1834 16.1039 23.3885 15.3324 23.7596C14.0921 24.3455 13.2328 24.5408 11.8753 24.5311C9.83433 24.5213 8.23277 23.8573 6.83628 22.4608C5.87925 21.5037 5.43003 20.7323 5.01988 19.3846C4.68784 18.2713 4.63902 16.5428 4.92222 15.5272C5.67417 12.7537 7.94956 10.6639 10.7621 10.1561C11.4652 10.0389 13.1058 10.117 13.8187 10.3026Z" fill="black"/>
<path d="M13.1836 16.5621C11.6504 18.0269 10.3809 19.2379 10.3516 19.2379C10.3223 19.2379 9.77539 18.7789 9.13086 18.2125L7.95898 17.1969L7.5 17.7047C7.24609 17.9879 7.04102 18.2418 7.03125 18.2808C7.03125 18.398 10.3418 21.2105 10.4395 21.1715C10.625 21.1129 16.8945 15.0191 16.8945 14.9019C16.8945 14.8433 16.6895 14.5797 16.4355 14.3355L15.9668 13.8766L13.1836 16.5621Z" fill="black"/>
</g>
<defs>
<clipPath id="clip0_892_527">
<rect width="50" height="50" fill="white"/>
</clipPath>
</defs>
</svg>
