<svg width="300" height="300" viewBox="0 0 300 300" fill="none" xmlns="http://www.w3.org/2000/svg">
<path d="M101.721 171.833H135.513M101.721 126.777H191.832M101.721 81.722H146.777M236.887 149.305V78.8947C236.888 78.0057 236.713 77.125 236.373 76.3037C236.033 75.4824 235.534 74.736 234.905 74.1077L199.446 38.649C198.18 37.3814 196.462 36.6684 194.67 36.6667H63.4243C61.632 36.6667 59.913 37.3787 58.6453 38.646C57.378 39.9137 56.666 41.6327 56.666 43.425V255.185C56.666 256.977 57.378 258.696 58.6453 259.964C59.913 261.231 61.632 261.943 63.4243 261.943H135.513L236.887 149.305Z" stroke="black" stroke-width="6" stroke-linecap="round" stroke-linejoin="round"/>
<path d="M191.83 74.963V40.6534C191.831 39.866 192.066 39.0964 192.504 38.442C192.943 37.7874 193.565 37.2777 194.293 36.9764C195.02 36.675 195.821 36.596 196.593 36.7494C197.366 36.9027 198.076 37.2814 198.633 37.8377L235.714 74.918C236.276 75.4737 236.659 76.1837 236.816 76.958C236.972 77.7327 236.894 78.536 236.592 79.266C236.29 79.996 235.777 80.6194 235.119 81.0567C234.461 81.494 233.688 81.7254 232.898 81.7214H198.588C196.796 81.7214 195.077 81.0094 193.81 79.742C192.542 78.4744 191.83 76.7557 191.83 74.963Z" fill="black" stroke="black" stroke-width="6" stroke-linecap="round" stroke-linejoin="round"/>
<path d="M213.844 204.938L231.709 222.803M213.844 204.938L180.154 238.628C178.47 240.318 177.365 242.499 177 244.857L174.252 262.395L191.79 259.658C194.148 259.293 196.329 258.189 198.019 256.504L231.697 222.803L213.844 204.938ZM231.709 222.803L242.973 211.539C245.339 209.171 246.669 205.96 246.669 202.612C246.669 199.264 245.339 196.054 242.973 193.686C241.8 192.512 240.408 191.581 238.875 190.946C237.342 190.311 235.699 189.984 234.04 189.984C232.381 189.984 230.739 190.311 229.206 190.946C227.673 191.581 226.281 192.512 225.108 193.686L213.844 204.95L231.709 222.803Z" stroke="black" stroke-width="6" stroke-linecap="round" stroke-linejoin="round"/>
</svg>
