<svg width="70" height="70" viewBox="0 0 70 70" fill="none" xmlns="http://www.w3.org/2000/svg">
<circle cx="35" cy="35" r="35" fill="#FFE8AF"/>
<path d="M33.0845 17.7929C34.589 19.2197 35.6213 20.9834 35.6834 23.1004C35.6933 24.2253 35.5537 25.201 35.0765 26.2249C35.0329 26.3187 34.9893 26.4125 34.9443 26.5092C34.8942 26.6163 34.8942 26.6163 34.8431 26.7256C34.9756 26.7258 34.9756 26.7258 35.1108 26.726C37.2597 26.7289 39.4086 26.7337 41.5575 26.7404C42.5967 26.7436 43.6359 26.7462 44.6751 26.7474C45.5809 26.7484 46.4866 26.7506 47.3924 26.7541C47.872 26.7559 48.3516 26.7572 48.8312 26.7571C49.2827 26.757 49.7342 26.7585 50.1857 26.761C50.3513 26.7617 50.5169 26.7619 50.6825 26.7614C50.9089 26.7609 51.1353 26.7623 51.3617 26.7642C51.4269 26.7636 51.4922 26.763 51.5594 26.7624C52.0828 26.7702 52.4992 26.9228 52.898 27.2669C52.9338 27.3117 52.9696 27.3565 53.0065 27.4026C53.0435 27.4472 53.0805 27.4918 53.1187 27.5377C53.3172 27.8418 53.3976 28.1184 53.3973 28.4798C53.3976 28.5567 53.3979 28.6335 53.3983 28.7126C53.3978 28.7964 53.3973 28.8801 53.3968 28.9664C53.3971 29.1006 53.397 29.1006 53.3973 29.2375C53.3975 29.5379 53.3966 29.8382 53.3958 30.1386C53.3957 30.3536 53.3957 30.5687 53.3958 30.7838C53.3959 31.2471 53.3954 31.7105 53.3945 32.1738C53.3932 32.8437 53.3928 33.5136 53.3926 34.1835C53.3922 35.2704 53.3912 36.3573 53.3897 37.4442C53.3882 38.4999 53.387 39.5557 53.3864 40.6115C53.3863 40.6766 53.3863 40.7417 53.3862 40.8087C53.386 41.1352 53.3858 41.4617 53.3856 41.7882C53.384 44.4967 53.3811 47.2052 53.3775 49.9137C53.4607 49.9091 53.5439 49.9044 53.6295 49.8996C53.7394 49.8958 53.8493 49.8922 53.9593 49.8886C54.014 49.8853 54.0687 49.8819 54.1251 49.8785C54.2865 49.8745 54.2865 49.8745 54.5811 49.9137C54.7691 50.0971 54.8795 50.2224 54.9418 50.4782C54.9066 51.6957 54.4221 52.7852 53.5778 53.6622C52.4421 54.7002 51.1537 54.9809 49.6575 54.9798C49.5575 54.9801 49.4576 54.9803 49.3546 54.9805C49.0781 54.9811 48.8016 54.9813 48.5251 54.9814C48.2265 54.9815 47.9279 54.9822 47.6294 54.9827C46.9768 54.9838 46.3243 54.9843 45.6718 54.9846C45.264 54.9848 44.8562 54.9852 44.4484 54.9855C43.3183 54.9865 42.1882 54.9873 41.058 54.9876C40.9858 54.9876 40.9135 54.9876 40.839 54.9877C40.7303 54.9877 40.7303 54.9877 40.6195 54.9877C40.4727 54.9878 40.3259 54.9878 40.1791 54.9878C40.0699 54.9879 40.0699 54.9879 39.9584 54.9879C38.7794 54.9882 37.6003 54.9896 36.4213 54.9915C35.2094 54.9934 33.9975 54.9944 32.7856 54.9945C32.1058 54.9945 31.4259 54.995 30.746 54.9965C30.1669 54.9977 29.5879 54.9981 29.0088 54.9974C28.7137 54.9971 28.4186 54.9972 28.1235 54.9983C27.8026 54.9995 27.4818 54.9989 27.1609 54.998C27.069 54.9987 26.9771 54.9993 26.8824 55C25.4794 54.9915 24.237 54.6096 23.2178 53.6187C23.1619 53.561 23.1061 53.5034 23.0485 53.4441C23.0026 53.3989 22.9567 53.3537 22.9094 53.3071C22.2069 52.563 21.834 51.4925 21.8052 50.481C21.845 50.3149 21.845 50.3149 22.1659 49.9137C22.5631 49.9137 22.9603 49.9137 23.3695 49.9137C23.3695 43.8768 23.3695 37.8399 23.3695 31.62C22.8399 31.5141 22.3103 31.4082 21.7647 31.2991C19.1894 30.4406 16.9346 28.9161 15.6831 26.4404C15.4076 25.828 15.2251 25.2195 15.1052 24.5593C15.0946 24.5028 15.0841 24.4463 15.0732 24.3882C14.7925 22.5747 15.3394 20.7229 16.3639 19.2264C16.5006 19.0463 16.6429 18.8737 16.7901 18.7021C16.8436 18.638 16.8971 18.5738 16.9522 18.5078C18.7831 16.3832 21.4976 15.3314 24.232 15.0313C27.3999 14.8271 30.6981 15.6074 33.0845 17.7929ZM22.8078 16.616C22.7516 16.6293 22.6953 16.6427 22.6374 16.6564C20.946 17.0714 19.4784 17.88 18.2344 19.1033C18.1725 19.1641 18.1107 19.2249 18.047 19.2876C16.8601 20.5271 16.3344 22.086 16.3698 23.7798C16.437 25.4403 17.3831 26.9083 18.5541 28.0345C20.3414 29.6559 22.8577 30.5542 25.2647 30.4857C25.3442 30.4838 25.3442 30.4838 25.4253 30.4817C25.6883 30.4748 25.9499 30.4637 26.2124 30.4456C26.7773 30.4246 27.0998 30.4726 27.5461 30.8346C27.6806 30.9604 27.8131 31.0882 27.9429 31.2188C28.0252 31.2929 28.1078 31.3665 28.1911 31.4395C28.2867 31.5288 28.2867 31.5288 28.3842 31.62C28.7521 31.9588 29.1322 32.2775 29.5225 32.59C29.7081 32.7433 29.7081 32.7433 29.8435 32.884C29.944 33.0024 29.944 33.0024 30.1092 32.984C30.1194 32.9357 30.1296 32.8873 30.1401 32.8375C30.2463 32.3333 30.3547 31.8297 30.4643 31.3263C30.5049 31.1385 30.545 30.9505 30.5845 30.7625C30.6414 30.4919 30.7003 30.2218 30.7596 29.9517C30.7768 29.8678 30.7941 29.7838 30.8118 29.6974C30.9153 29.2358 31.0048 28.9535 31.393 28.6513C31.4564 28.5995 31.5198 28.5477 31.5851 28.4943C31.6492 28.4451 31.7132 28.396 31.7791 28.3454C33.2176 27.2006 34.1385 25.6791 34.3617 23.8372C34.5064 22.1933 33.8032 20.6875 32.8094 19.4258C31.2583 17.6376 28.8464 16.5592 26.4986 16.3753C25.2552 16.323 24.0217 16.3216 22.8078 16.616ZM33.4791 28.6513C33.38 28.7479 33.2782 28.8419 33.1732 28.9321C33.0912 29.0043 33.0912 29.0043 33.0074 29.0779C32.8373 29.2129 32.8373 29.2129 32.6646 29.3104C32.3732 29.4802 32.2229 29.6163 32.1085 29.9405C32.0854 30.0403 32.0624 30.1401 32.0387 30.2428C32.0256 30.2985 32.0126 30.3541 31.9991 30.4114C31.802 31.2678 31.6353 32.1319 31.4674 32.9945C31.4228 33.223 31.3767 33.4513 31.3303 33.6795C31.3172 33.7489 31.3041 33.8182 31.2905 33.8897C31.2105 34.2776 31.126 34.5453 30.8314 34.8294C30.5706 34.9247 30.5706 34.9247 30.2697 34.9097C29.7262 34.6439 29.2727 34.1081 28.8336 33.697C28.5957 33.4746 28.3522 33.2595 28.1055 33.0467C27.8272 32.8022 27.5569 32.5487 27.2856 32.2964C26.2997 31.4434 26.3139 31.7002 24.6532 31.7002C24.6532 37.7107 24.6532 43.7211 24.6532 49.9137C26.5331 49.9137 28.4131 49.9137 30.3499 49.9137C30.3668 48.8217 30.3668 48.8217 30.3811 47.7296C30.4123 45.8229 30.4123 45.8229 30.9116 45.0545C30.9513 44.9915 30.991 44.9285 31.032 44.8636C31.1523 44.6984 31.1523 44.6984 31.2877 44.5658C31.4117 44.4637 31.4117 44.4637 31.393 44.2972C31.4382 44.2756 31.4834 44.254 31.53 44.2317C31.7243 44.1314 31.9053 44.018 32.0901 43.9011C32.9942 43.3575 33.8959 43.329 34.9284 43.2893C35.0131 43.2858 35.0979 43.2823 35.1852 43.2788C35.3921 43.2703 35.599 43.2621 35.806 43.2542C35.7426 42.9484 35.6566 42.8522 35.4098 42.6574C33.8785 41.3345 32.9058 39.1312 32.7422 37.1361C32.6446 35.4428 33.0827 33.9371 34.2232 32.6433C35.2174 31.6391 36.5531 30.9866 37.9723 30.8979C38.0352 30.8937 38.0981 30.8894 38.1629 30.885C39.7099 30.8321 41.176 31.3859 42.3502 32.3823C43.4616 33.4292 44.0524 34.8674 44.1473 36.3774C44.1722 38.7355 43.1901 40.87 41.6118 42.585C41.4225 42.7728 41.4225 42.7728 41.198 42.948C41.1397 42.996 41.0814 43.0441 41.0213 43.0937C41.0213 43.1467 41.0213 43.1996 41.0213 43.2542C41.0713 43.2558 41.1213 43.2573 41.1729 43.259C44.3767 43.3658 44.3767 43.3658 45.4546 44.3787C46.0139 45.0144 46.3968 45.83 46.4135 46.6801C46.4151 46.7534 46.4168 46.8266 46.4184 46.9021C46.4198 46.978 46.4211 47.0539 46.4224 47.1321C46.4239 47.2027 46.4254 47.2733 46.427 47.346C46.4324 47.6085 46.4373 47.871 46.4422 48.1335C46.4538 48.721 46.4654 49.3084 46.4773 49.9137C48.3572 49.9137 50.2371 49.9137 52.174 49.9137C52.1811 47.1784 52.187 44.4432 52.1904 41.7079C52.1908 41.3852 52.1912 41.0625 52.1916 40.7398C52.1917 40.6756 52.1918 40.6113 52.1919 40.5451C52.1933 39.504 52.1958 38.4628 52.1988 37.4217C52.2018 36.3539 52.2036 35.2861 52.2042 34.2183C52.2047 33.559 52.206 32.8998 52.2087 32.2406C52.2103 31.7889 52.2109 31.3373 52.2104 30.8856C52.2102 30.6248 52.2107 30.3639 52.2123 30.1031C52.2139 29.8207 52.2135 29.5383 52.2126 29.2559C52.2135 29.1729 52.2145 29.0899 52.2154 29.0045C52.2148 28.9291 52.2142 28.8537 52.2135 28.776C52.2136 28.7108 52.2137 28.6456 52.2139 28.5784C52.1867 28.3982 52.1867 28.3982 52.031 28.2693C51.7474 28.1108 51.4514 28.136 51.1349 28.1377C51.0615 28.1372 50.9881 28.1366 50.9125 28.136C50.666 28.1345 50.4196 28.1347 50.1732 28.1349C49.9967 28.1342 49.8202 28.1334 49.6438 28.1325C49.164 28.1303 48.6843 28.1298 48.2045 28.1296C47.8043 28.1294 47.4041 28.1285 47.0039 28.1277C46.1139 28.1258 45.2239 28.1251 44.3339 28.1253C44.2805 28.1253 44.2271 28.1253 44.1721 28.1253C44.0919 28.1253 44.0919 28.1253 44.0101 28.1253C43.1434 28.1254 42.2767 28.1231 41.41 28.1197C40.5201 28.1163 39.6302 28.1146 38.7403 28.1148C38.2406 28.1149 37.741 28.1142 37.2414 28.1116C36.7716 28.1093 36.3019 28.1093 35.8321 28.111C35.6596 28.1113 35.487 28.1107 35.3145 28.1093C35.0791 28.1074 34.844 28.1085 34.6087 28.1104C34.5402 28.1091 34.4716 28.1079 34.401 28.1066C33.9036 28.1153 33.7545 28.2396 33.4791 28.6513ZM35.0337 33.671C34.4391 34.3806 34.0527 35.3083 33.9906 36.2285C33.9846 36.3128 33.9786 36.3971 33.9725 36.484C33.9666 36.5785 33.9666 36.5785 33.9605 36.6749C34.7577 37.0169 35.6388 36.7866 36.4209 36.479C37.4386 36.0011 38.1928 35.316 38.7151 34.3151C38.94 33.893 38.94 33.893 39.1686 33.813C39.4826 33.7913 39.6232 33.8397 39.8729 34.0371C39.9964 34.1907 40.1191 34.345 40.2409 34.5C40.8521 35.2296 41.7286 35.6234 42.626 35.8725C42.6789 35.8725 42.7319 35.8725 42.7865 35.8725C42.6309 34.6599 41.9887 33.7134 41.0398 32.9705C39.0871 31.6604 36.6456 31.9909 35.0337 33.671ZM39.4166 35.5516C39.3097 35.684 39.2047 35.8181 39.1006 35.9527C38.249 36.9953 36.9968 37.7733 35.6455 37.9586C35.1648 38.0021 34.6835 38.0233 34.2013 38.0389C34.5327 39.6686 35.5635 41.2923 36.933 42.2352C37.6091 42.6243 38.3306 42.8128 39.0956 42.6123C40.5374 42.1048 41.5207 40.8119 42.1701 39.4836C42.5208 38.7343 42.749 37.9859 42.7865 37.1563C42.7087 37.1405 42.6309 37.1248 42.5508 37.1086C41.447 36.8691 40.4337 36.4748 39.6175 35.6694C39.5153 35.5422 39.5153 35.5422 39.4166 35.5516ZM37.17 43.8158C37.1969 44.3361 37.2764 44.5731 37.6514 44.9391C38.1099 45.092 38.6044 45.0832 39.0555 44.914C39.3847 44.7006 39.3847 44.7006 39.5379 44.3565C39.5425 44.2922 39.5472 44.228 39.552 44.1618C39.5572 44.097 39.5625 44.0321 39.5679 43.9653C39.5709 43.916 39.5739 43.8666 39.577 43.8158C39.4504 43.8357 39.4504 43.8357 39.3213 43.8559C38.6043 43.9449 37.884 43.9126 37.17 43.8158ZM32.1954 45.5008C31.3417 46.8407 31.714 48.2976 31.714 49.9137C36.1357 49.9137 40.5575 49.9137 45.1133 49.9137C45.3578 47.3364 45.3578 47.3364 44.3742 45.235C43.8581 44.7481 43.3244 44.5963 42.6238 44.6025C42.5206 44.603 42.4175 44.6035 42.3112 44.6041C42.2038 44.6054 42.0965 44.6068 41.9891 44.6081C41.8796 44.6089 41.77 44.6097 41.6605 44.6103C41.3939 44.6122 41.1274 44.6149 40.8608 44.6182C40.8353 44.6725 40.8097 44.7268 40.7834 44.7828C40.7316 44.8902 40.7316 44.8902 40.6787 44.9999C40.628 45.1062 40.628 45.1062 40.5763 45.2146C40.2867 45.7256 39.7999 46.0554 39.2536 46.2501C38.4762 46.423 37.6223 46.4015 36.9293 45.9822C36.5273 45.7139 36.2769 45.4372 36.0683 44.9999C36.0337 44.9283 35.9992 44.8566 35.9636 44.7828C35.938 44.7284 35.9125 44.6741 35.8862 44.6182C35.5285 44.6088 35.1708 44.6031 34.8131 44.5981C34.7126 44.5954 34.6122 44.5927 34.5087 44.59C33.5781 44.5802 32.8184 44.7711 32.1954 45.5008ZM23.2892 51.1975C23.7446 52.3359 24.284 52.9288 25.37 53.4275C25.7155 53.5635 25.992 53.6146 26.3637 53.6153C26.4507 53.6157 26.5378 53.616 26.6274 53.6164C26.723 53.6164 26.8185 53.6164 26.917 53.6164C27.0185 53.6167 27.1201 53.617 27.2247 53.6173C27.5068 53.6181 27.7889 53.6184 28.0709 53.6186C28.3751 53.6189 28.6793 53.6196 28.9834 53.6203C29.7181 53.6219 30.4528 53.6227 31.1875 53.6235C31.5336 53.6238 31.8797 53.6242 32.2258 53.6247C33.3766 53.626 34.5274 53.6272 35.6781 53.6278C35.9767 53.6279 36.2753 53.6281 36.5739 53.6282C36.6852 53.6283 36.6852 53.6283 36.7988 53.6283C38.0006 53.629 39.2024 53.631 40.4042 53.6337C41.6385 53.6363 42.8727 53.6378 44.107 53.638C44.7998 53.6382 45.4927 53.6389 46.1855 53.6409C46.7756 53.6427 47.3658 53.6433 47.9559 53.6425C48.2568 53.6422 48.5577 53.6423 48.8586 53.6439C49.1854 53.6456 49.5121 53.6447 49.8389 53.6437C49.9804 53.645 49.9804 53.645 50.1247 53.6464C51.0969 53.6388 51.9442 53.3279 52.6532 52.6511C53.0544 52.2168 53.3144 51.771 53.4578 51.1975C43.5022 51.1975 33.5465 51.1975 23.2892 51.1975Z" fill="black"/>
<path d="M20.2954 22.7032C20.4349 22.7027 20.4349 22.7027 20.5773 22.7022C20.679 22.7022 20.7808 22.7023 20.8856 22.7023C20.9941 22.7021 21.1026 22.7018 21.2111 22.7015C21.5055 22.7008 21.7999 22.7006 22.0943 22.7006C22.2783 22.7005 22.4623 22.7003 22.6462 22.7001C23.2881 22.6994 23.9301 22.699 24.572 22.6991C25.1702 22.6992 25.7684 22.6983 26.3667 22.697C26.8805 22.696 27.3943 22.6956 27.9081 22.6956C28.2148 22.6956 28.5216 22.6954 28.8284 22.6946C29.1169 22.6938 29.4055 22.6938 29.694 22.6944C29.8502 22.6945 30.0064 22.6938 30.1626 22.6931C30.2558 22.6935 30.3491 22.6938 30.4452 22.6941C30.526 22.6941 30.6069 22.694 30.6902 22.694C30.9299 22.7156 31.0994 22.7638 31.3128 22.8744C31.5134 23.1754 31.5163 23.3204 31.4733 23.6768C31.3411 23.8889 31.2864 23.9641 31.0721 24.078C30.708 24.1387 30.3467 24.1311 29.9784 24.1273C29.8658 24.1276 29.7532 24.1281 29.6407 24.1287C29.3355 24.1298 29.0303 24.1285 28.7251 24.1266C28.4056 24.125 28.0861 24.1254 27.7666 24.1256C27.2302 24.1256 26.6938 24.124 26.1574 24.1215C25.5372 24.1185 24.917 24.1178 24.2969 24.1184C23.7001 24.1189 23.1034 24.118 22.5067 24.1164C22.2528 24.1158 21.9989 24.1156 21.745 24.1157C21.446 24.1158 21.1471 24.1146 20.8482 24.1125C20.6861 24.1117 20.5241 24.112 20.362 24.1124C20.2656 24.1115 20.1692 24.1106 20.0699 24.1096C19.9861 24.1093 19.9023 24.109 19.816 24.1087C19.5677 24.0736 19.4579 24.0083 19.2775 23.8373C19.192 23.6246 19.1781 23.4231 19.1972 23.1954C19.3267 22.9701 19.4116 22.8312 19.6617 22.7444C19.8756 22.7077 20.0782 22.7036 20.2954 22.7032Z" fill="black"/>
<path d="M22.9728 25.5105C23.0301 25.5102 23.0874 25.5099 23.1464 25.5097C23.336 25.5089 23.5255 25.5087 23.715 25.5087C23.8468 25.5084 23.9786 25.5081 24.1104 25.5078C24.3869 25.5074 24.6633 25.5072 24.9397 25.5073C25.2935 25.5073 25.6474 25.5062 26.0013 25.5048C26.2736 25.5039 26.5459 25.5037 26.8182 25.5038C26.9487 25.5037 27.0791 25.5033 27.2096 25.5027C27.3922 25.5019 27.5748 25.5022 27.7575 25.5026C27.9133 25.5025 27.9133 25.5025 28.0722 25.5023C28.335 25.5215 28.5122 25.5632 28.7454 25.6826C28.9155 25.8914 28.9057 26.0119 28.9009 26.2844C28.8086 26.6288 28.7235 26.6996 28.4245 26.8861C28.2134 26.9172 28.0361 26.9302 27.8255 26.9277C27.7666 26.9282 27.7077 26.9288 27.6471 26.9294C27.4532 26.9308 27.2594 26.9298 27.0655 26.9288C26.9303 26.929 26.7951 26.9293 26.6599 26.9297C26.3769 26.9302 26.0939 26.9295 25.8109 26.928C25.4486 26.9261 25.0863 26.9272 24.7239 26.9291C24.4449 26.9303 24.1658 26.9299 23.8868 26.9291C23.7532 26.9289 23.6196 26.9291 23.486 26.9299C23.2991 26.9307 23.1124 26.9294 22.9255 26.9277C22.8431 26.9286 22.8431 26.9286 22.759 26.9296C22.3824 26.923 22.1885 26.8331 21.9254 26.5652C21.8777 26.3843 21.8777 26.3843 21.8853 26.1991C21.8861 26.1378 21.8869 26.0765 21.8878 26.0133C21.9339 25.8044 21.9985 25.7324 22.1661 25.6024C22.4492 25.508 22.6739 25.5114 22.9728 25.5105Z" fill="black"/>
<path d="M22.7804 19.9455C22.8418 19.9451 22.9033 19.9446 22.9667 19.9442C23.1696 19.9432 23.3724 19.9445 23.5753 19.946C23.7164 19.9459 23.8575 19.9458 23.9986 19.9456C24.2941 19.9455 24.5895 19.9465 24.885 19.9483C25.264 19.9506 25.643 19.9504 26.022 19.9494C26.3132 19.9488 26.6044 19.9494 26.8957 19.9504C27.0354 19.9508 27.1752 19.9508 27.315 19.9505C27.5101 19.9503 27.7052 19.9516 27.9004 19.9533C27.9872 19.9528 27.9872 19.9528 28.0758 19.9523C28.4668 19.9581 28.4668 19.9581 28.6576 20.0981C28.8392 20.3642 28.8633 20.5463 28.8254 20.8684C28.6119 21.1452 28.492 21.2572 28.1442 21.3205C28.0354 21.3228 27.9267 21.323 27.8179 21.3214C27.7583 21.3221 27.6986 21.3229 27.6371 21.3236C27.4406 21.3253 27.2442 21.3242 27.0477 21.3228C26.9107 21.3231 26.7737 21.3235 26.6368 21.324C26.35 21.3246 26.0632 21.3237 25.7764 21.3218C25.4092 21.3196 25.0421 21.3209 24.6749 21.3233C24.3921 21.3247 24.1093 21.3243 23.8266 21.3232C23.6912 21.323 23.5558 21.3233 23.4204 21.3242C23.231 21.3252 23.0418 21.3237 22.8524 21.3214C22.7689 21.3227 22.7689 21.3227 22.6836 21.3239C22.3802 21.3173 22.2516 21.2739 22.0105 21.0836C21.8449 20.8684 21.8449 20.8684 21.7998 20.5825C21.8952 19.9993 22.2503 19.9384 22.7804 19.9455Z" fill="black"/>
</svg>
