<svg width="44" height="44" viewBox="0 0 44 44" fill="none" xmlns="http://www.w3.org/2000/svg">
<path d="M34.0714 22.9286C34.3177 22.9286 34.5539 22.8307 34.728 22.6566C34.9022 22.4825 35 22.2463 35 22C35 21.7537 34.9022 21.5175 34.728 21.3434C34.5539 21.1693 34.3177 21.0714 34.0714 21.0714H32.2143V19.2143H34.0714C34.3177 19.2143 34.5539 19.1165 34.728 18.9423C34.9022 18.7682 35 18.532 35 18.2857C35 18.0394 34.9022 17.8033 34.728 17.6291C34.5539 17.455 34.3177 17.3571 34.0714 17.3571H32.2143V14.5714C32.2143 13.0356 30.9644 11.7857 29.4286 11.7857H26.6429V9.92857C26.6429 9.6823 26.545 9.44611 26.3709 9.27197C26.1967 9.09783 25.9606 9 25.7143 9C25.468 9 25.2318 9.09783 25.0577 9.27197C24.8835 9.44611 24.7857 9.6823 24.7857 9.92857V11.7857H22.9286V9.92857C22.9286 9.6823 22.8307 9.44611 22.6566 9.27197C22.4825 9.09783 22.2463 9 22 9C21.7537 9 21.5175 9.09783 21.3434 9.27197C21.1693 9.44611 21.0714 9.6823 21.0714 9.92857V11.7857H19.2143V9.92857C19.2143 9.6823 19.1165 9.44611 18.9423 9.27197C18.7682 9.09783 18.532 9 18.2857 9C18.0394 9 17.8033 9.09783 17.6291 9.27197C17.455 9.44611 17.3571 9.6823 17.3571 9.92857V11.7857H14.5714C13.0356 11.7857 11.7857 13.0356 11.7857 14.5714V17.3571H9.92857C9.6823 17.3571 9.44611 17.455 9.27197 17.6291C9.09783 17.8033 9 18.0394 9 18.2857C9 18.532 9.09783 18.7682 9.27197 18.9423C9.44611 19.1165 9.6823 19.2143 9.92857 19.2143H11.7857V21.0714H9.92857C9.6823 21.0714 9.44611 21.1693 9.27197 21.3434C9.09783 21.5175 9 21.7537 9 22C9 22.2463 9.09783 22.4825 9.27197 22.6566C9.44611 22.8307 9.6823 22.9286 9.92857 22.9286H11.7857V24.7857H9.92857C9.6823 24.7857 9.44611 24.8835 9.27197 25.0577C9.09783 25.2318 9 25.468 9 25.7143C9 25.9606 9.09783 26.1967 9.27197 26.3709C9.44611 26.545 9.6823 26.6429 9.92857 26.6429H11.7857V29.4286C11.7857 30.9644 13.0356 32.2143 14.5714 32.2143H17.3571V34.0714C17.3571 34.3177 17.455 34.5539 17.6291 34.728C17.8033 34.9022 18.0394 35 18.2857 35C18.532 35 18.7682 34.9022 18.9423 34.728C19.1165 34.5539 19.2143 34.3177 19.2143 34.0714V32.2143H21.0714V34.0714C21.0714 34.3177 21.1693 34.5539 21.3434 34.728C21.5175 34.9022 21.7537 35 22 35C22.2463 35 22.4825 34.9022 22.6566 34.728C22.8307 34.5539 22.9286 34.3177 22.9286 34.0714V32.2143H24.7857V34.0714C24.7857 34.3177 24.8835 34.5539 25.0577 34.728C25.2318 34.9022 25.468 35 25.7143 35C25.9606 35 26.1967 34.9022 26.3709 34.728C26.545 34.5539 26.6429 34.3177 26.6429 34.0714V32.2143H29.4286C30.9644 32.2143 32.2143 30.9644 32.2143 29.4286V26.6429H34.0714C34.3177 26.6429 34.5539 26.545 34.728 26.3709C34.9022 26.1967 35 25.9606 35 25.7143C35 25.468 34.9022 25.2318 34.728 25.0577C34.5539 24.8835 34.3177 24.7857 34.0714 24.7857H32.2143V22.9286H34.0714ZM30.3571 29.4286C30.3571 29.9402 29.9402 30.3571 29.4286 30.3571H14.5714C14.0598 30.3571 13.6429 29.9402 13.6429 29.4286V14.5714C13.6429 14.0598 14.0598 13.6429 14.5714 13.6429H29.4286C29.9402 13.6429 30.3571 14.0598 30.3571 14.5714V29.4286ZM20.1429 20.1429C20.1429 20.6545 20.5598 21.0714 21.0714 21.0714H22.9286C24.4644 21.0714 25.7143 22.3213 25.7143 23.8571C25.7143 25.393 24.4644 26.6429 22.9286 26.6429V27.5714C22.9286 27.8177 22.8307 28.0539 22.6566 28.228C22.4825 28.4022 22.2463 28.5 22 28.5C21.7537 28.5 21.5175 28.4022 21.3434 28.228C21.1693 28.0539 21.0714 27.8177 21.0714 27.5714V26.6429H19.2143C18.968 26.6429 18.7318 26.545 18.5577 26.3709C18.3835 26.1967 18.2857 25.9606 18.2857 25.7143C18.2857 25.468 18.3835 25.2318 18.5577 25.0577C18.7318 24.8835 18.968 24.7857 19.2143 24.7857H22.9286C23.4402 24.7857 23.8571 24.3688 23.8571 23.8571C23.8571 23.3455 23.4402 22.9286 22.9286 22.9286H21.0714C19.5356 22.9286 18.2857 21.6787 18.2857 20.1429C18.2857 18.607 19.5356 17.3571 21.0714 17.3571V16.4286C21.0714 16.1823 21.1693 15.9461 21.3434 15.772C21.5175 15.5978 21.7537 15.5 22 15.5C22.2463 15.5 22.4825 15.5978 22.6566 15.772C22.8307 15.9461 22.9286 16.1823 22.9286 16.4286V17.3571H24.7857C25.032 17.3571 25.2682 17.455 25.4423 17.6291C25.6165 17.8033 25.7143 18.0394 25.7143 18.2857C25.7143 18.532 25.6165 18.7682 25.4423 18.9423C25.2682 19.1165 25.032 19.2143 24.7857 19.2143H21.0714C20.5598 19.2143 20.1429 19.6312 20.1429 20.1429Z" fill="black"/>
</svg>
