<svg width="512" height="512" viewBox="0 0 512 512" fill="none" xmlns="http://www.w3.org/2000/svg">
<path fill-rule="evenodd" clip-rule="evenodd" d="M98.2668 264.031C94.2079 285.297 75.4958 301.391 53.0551 301.391C27.6519 301.391 7.02734 280.768 7.02734 255.364C7.02734 229.96 27.6519 209.337 53.0551 209.337C75.9415 209.337 94.9488 226.076 98.4906 247.969H137.172V148.53L107.996 119.354C102.447 122.803 96.0425 124.626 89.5095 124.617C70.1329 124.617 54.4014 108.885 54.4014 89.5095C54.4014 70.1329 70.1329 54.4014 89.5095 54.4014C108.885 54.4014 124.617 70.1329 124.617 89.5095C124.617 96.291 122.689 102.626 119.354 107.996L144.148 132.79C146.573 130.208 149.642 127.738 153.368 125.45C171.446 114.35 206.702 106.236 247.969 105.296V84.6355C230.171 80.925 216.784 65.1353 216.784 46.2435C216.784 24.6 234.355 7.02734 256 7.02734C277.644 7.02734 295.216 24.6 295.216 46.2435C295.216 65.1353 281.829 80.925 264.031 84.6355V105.296C305.297 106.236 340.554 114.35 358.632 125.45C362.045 127.546 364.906 129.794 367.227 132.142L391.374 107.996C387.925 102.447 386.102 96.0425 386.111 89.5095C386.111 70.1329 401.843 54.4014 421.218 54.4014C440.595 54.4014 456.326 70.1329 456.326 89.5095C456.326 108.885 440.595 124.617 421.218 124.617C414.685 124.626 408.281 122.803 402.732 119.354L374.789 147.297C374.815 147.699 374.828 148.099 374.828 148.501V247.969H413.509C417.051 226.076 436.058 209.337 458.945 209.337C484.348 209.337 504.972 229.96 504.972 255.364C504.972 280.768 484.348 301.391 458.945 301.391C436.504 301.391 417.792 285.297 413.733 264.031H374.828V363.47L402.732 391.374C408.281 387.925 414.685 386.102 421.218 386.111C440.595 386.111 456.326 401.843 456.326 421.218C456.326 440.595 440.595 456.326 421.218 456.326C401.843 456.326 386.111 440.595 386.111 421.218C386.111 414.437 388.039 408.102 391.374 402.732L367.852 379.21C365.426 381.792 362.357 384.262 358.632 386.55C340.554 397.65 305.297 405.764 264.031 406.704V427.364C281.829 431.075 295.216 446.864 295.216 465.756C295.216 487.4 277.644 504.972 256 504.972C234.355 504.972 216.784 487.4 216.784 465.756C216.784 446.864 230.171 431.075 247.969 427.364V406.704C206.702 405.764 171.446 397.65 153.368 386.55C149.324 384.067 146.054 381.369 143.54 378.547L119.354 402.732C122.803 408.281 124.626 414.685 124.617 421.218C124.617 440.595 108.885 456.326 89.5095 456.326C70.1329 456.326 54.4014 440.595 54.4014 421.218C54.4014 401.843 70.1329 386.111 89.5095 386.111C96.291 386.111 102.626 388.039 107.996 391.374L137.172 362.198V264.031H98.2668ZM153.234 243.135V291.833C153.234 293.768 154.581 295.433 156.402 297.175C159.507 300.142 164.086 302.821 169.779 305.293C189.214 313.731 220.609 319.066 256 319.066C291.391 319.066 322.786 313.731 342.221 305.293C347.914 302.821 352.493 300.142 355.598 297.175C357.419 295.433 358.765 293.768 358.765 291.833V243.135L358.632 243.217C339.393 255.03 300.692 263.462 256 263.462C211.307 263.462 172.607 255.03 153.368 243.217L153.234 243.135ZM153.234 171.469V220.167C153.234 222.103 154.581 223.767 156.402 225.508C159.507 228.476 164.086 231.155 169.779 233.627C189.214 242.064 220.609 247.399 256 247.399C291.391 247.399 322.786 242.064 342.221 233.627C347.914 231.155 352.493 228.476 355.598 225.508C357.419 223.767 358.765 222.103 358.765 220.167V171.469L358.632 171.55C339.393 183.363 300.692 191.795 256 191.795C211.307 191.795 172.607 183.363 153.368 171.55L153.234 171.469ZM358.765 148.501C358.765 146.564 357.419 144.9 355.598 143.159C352.493 140.191 347.914 137.512 342.221 135.04C322.786 126.601 291.391 121.268 256 121.268C220.609 121.268 189.214 126.601 169.779 135.04C164.086 137.512 159.507 140.191 156.402 143.159C154.581 144.9 153.234 146.564 153.234 148.501C153.234 150.437 154.581 152.101 156.402 153.842C159.507 156.809 164.086 159.488 169.779 161.96C189.214 170.399 220.609 175.732 256 175.732C291.391 175.732 322.786 170.399 342.221 161.96C347.914 159.488 352.493 156.809 355.598 153.842C357.419 152.101 358.765 150.437 358.765 148.501ZM153.234 314.802V363.499C153.234 365.435 154.581 367.1 156.402 368.841C159.507 371.809 164.086 374.488 169.779 376.959C189.214 385.398 220.609 390.732 256 390.732C291.391 390.732 322.786 385.398 342.221 376.959C347.914 374.488 352.493 371.809 355.598 368.841C357.419 367.1 358.765 365.435 358.765 363.499V314.802L358.632 314.883C339.393 326.697 300.692 335.129 256 335.129C211.307 335.129 172.607 326.697 153.368 314.883L153.234 314.802ZM53.0551 225.399C36.5165 225.399 23.0901 238.826 23.0901 255.364C23.0901 271.902 36.5165 285.328 53.0551 285.328C69.5927 285.328 83.0202 271.902 83.0202 255.364C83.0202 238.826 69.5927 225.399 53.0551 225.399ZM244.905 370.963C240.471 370.963 236.873 367.364 236.873 362.932C236.873 358.498 240.471 354.9 244.905 354.9H267.095C271.529 354.9 275.127 358.498 275.127 362.932C275.127 367.364 271.529 370.963 267.095 370.963H244.905ZM458.945 225.399C442.407 225.399 428.98 238.826 428.98 255.364C428.98 271.902 442.407 285.328 458.945 285.328C475.483 285.328 488.91 271.902 488.91 255.364C488.91 238.826 475.483 225.399 458.945 225.399ZM89.5095 70.4642C78.9985 70.4642 70.4642 78.9985 70.4642 89.5095C70.4642 100.021 78.9985 108.554 89.5095 108.554C100.021 108.554 108.554 100.021 108.554 89.5095C108.554 78.9985 100.021 70.4642 89.5095 70.4642ZM256 23.0901C243.221 23.0901 232.846 33.4646 232.846 46.2435C232.846 59.0225 243.221 69.397 256 69.397C268.779 69.397 279.153 59.0225 279.153 46.2435C279.153 33.4646 268.779 23.0901 256 23.0901ZM421.218 402.174C410.707 402.174 402.174 410.707 402.174 421.218C402.174 431.729 410.707 440.264 421.218 440.264C431.729 440.264 440.264 431.729 440.264 421.218C440.264 410.707 431.729 402.174 421.218 402.174ZM256 442.603C243.221 442.603 232.846 452.977 232.846 465.756C232.846 478.535 243.221 488.91 256 488.91C268.779 488.91 279.153 478.535 279.153 465.756C279.153 452.977 268.779 442.603 256 442.603ZM89.5095 402.174C78.9985 402.174 70.4642 410.707 70.4642 421.218C70.4642 431.729 78.9985 440.264 89.5095 440.264C100.021 440.264 108.554 431.729 108.554 421.218C108.554 410.707 100.021 402.174 89.5095 402.174ZM421.218 70.4642C410.707 70.4642 402.174 78.9985 402.174 89.5095C402.174 100.021 410.707 108.554 421.218 108.554C431.729 108.554 440.264 100.021 440.264 89.5095C440.264 78.9985 431.729 70.4642 421.218 70.4642ZM244.905 299.296C240.471 299.296 236.873 295.697 236.873 291.265C236.873 286.832 240.471 283.233 244.905 283.233H267.095C271.529 283.233 275.127 286.832 275.127 291.265C275.127 295.697 271.529 299.296 267.095 299.296H244.905ZM244.905 227.629C240.471 227.629 236.873 224.031 236.873 219.598C236.873 215.165 240.471 211.566 244.905 211.566H267.095C271.529 211.566 275.127 215.165 275.127 219.598C275.127 224.031 271.529 227.629 267.095 227.629H244.905Z" fill="white"/>
</svg>
