<svg width="300" height="300" viewBox="0 0 300 300" fill="none" xmlns="http://www.w3.org/2000/svg">
<path d="M261.861 56.2117H40.1058C39.4642 56.248 38.8435 56.4517 38.3042 56.8014C37.8268 57.225 37.4705 57.7677 37.2715 58.374V199.971C37.6445 201.801 38.4365 203.519 39.5848 204.992C40.8488 206.241 42.4162 207.138 44.1328 207.597H256.718C258.306 207.386 259.807 206.746 261.058 205.746C262.029 204.296 262.605 202.618 262.728 200.877V59.2164C262.686 58.3644 262.316 57.562 261.695 56.9767C260.825 56.474 259.837 56.2074 258.832 56.202H232.312" stroke="black" stroke-width="6" stroke-linecap="square" stroke-linejoin="round"/>
<path d="M113.457 246.667H189.643" stroke="black" stroke-width="6" stroke-linecap="square"/>
<path d="M132.504 242.858V208.574" stroke="black" stroke-width="6" stroke-linecap="square"/>
<path d="M170 246.667L170.597 208.574" stroke="black" stroke-width="6" stroke-linecap="square"/>
<path d="M190.177 193.72C190.178 193.719 190.178 193.718 190.179 193.717M190.869 193.029L180.025 193.296L180.2 182.356L224.981 137.659L235.661 148.331L190.869 193.029Z" stroke="black" stroke-width="6"/>
<path d="M60 86.6667H140" stroke="black" stroke-width="6"/>
<path d="M60 103.333H116.667" stroke="black" stroke-width="6"/>
<path d="M60 153.333H116.667" stroke="black" stroke-width="6"/>
<path d="M60 136.667H96.6667" stroke="black" stroke-width="6"/>
<path d="M60 170H83.3333" stroke="black" stroke-width="6"/>
<path d="M60 120H133.333" stroke="black" stroke-width="6"/>
<path d="M174.999 78.3333H161.666V91.6666H174.999V78.3333Z" stroke="black" stroke-width="6"/>
<path d="M174.999 108.333H161.666V121.667H174.999V108.333Z" stroke="black" stroke-width="6"/>
<path d="M204.999 78.3333H191.666V91.6666H204.999V78.3333Z" stroke="black" stroke-width="6"/>
<path d="M204.999 108.333H191.666V121.667H204.999V108.333Z" stroke="black" stroke-width="6"/>
<path d="M234.999 78.3333H221.666V91.6666H234.999V78.3333Z" stroke="black" stroke-width="6"/>
<path d="M234.999 108.333H221.666V121.667H234.999V108.333Z" stroke="black" stroke-width="6"/>
</svg>
