<svg width="512" height="512" viewBox="0 0 512 512" fill="none" xmlns="http://www.w3.org/2000/svg">
<g clip-path="url(#clip0_250_443)">
<path d="M255.688 -0.312337C257.138 -0.309602 257.138 -0.309602 258.618 -0.306813C281.935 -0.232881 304.496 2.28343 326.879 9.16423C334.004 11.2336 337.645 11.0331 344.188 7.47673C347.238 5.87555 350.211 4.82894 353.5 3.81266C354.97 3.35827 354.97 3.35827 356.469 2.89469C365.958 0.49087 374.961 -0.358951 384.75 -0.312337C385.989 -0.306697 387.227 -0.301057 388.503 -0.295247C416.917 0.0818651 442.747 12.0659 462.703 32.2851C481.795 52.378 491.659 79.6567 491.258 107.188C490.72 115.138 489.336 123.12 486.25 130.5C483.499 138.202 487.402 144.632 490.625 151.625C505.495 184.937 512.227 219.4 512.25 255.75C512.251 257.192 512.251 257.192 512.252 258.663C512.236 272.993 511.736 286.897 509 301C508.839 301.899 508.678 302.797 508.512 303.723C499.701 352.409 476.258 397.431 442 433C441.368 433.66 440.736 434.319 440.085 434.998C430.94 444.486 421.643 453.226 411 461C409.849 461.858 408.698 462.716 407.547 463.574C399.357 469.612 390.855 474.995 382 480C381.293 480.402 380.586 480.805 379.857 481.219C356.738 494.235 331.588 502.969 305.625 508.313C304.915 508.46 304.204 508.607 303.472 508.759C287.83 511.746 272.193 512.375 256.313 512.313C255.345 512.311 254.378 512.309 253.381 512.307C239.048 512.262 225.102 511.753 211 509C210.103 508.839 209.206 508.678 208.282 508.512C159.594 499.702 114.57 476.259 79.0002 442C78.3408 441.368 77.6814 440.736 77.0021 440.085C67.5139 430.94 58.774 421.643 51.0002 411C50.1421 409.849 49.284 408.698 48.4259 407.547C42.3884 399.357 37.0056 390.855 32.0002 382C31.598 381.293 31.1958 380.586 30.7814 379.857C17.7649 356.738 9.03161 331.588 3.68766 305.625C3.46663 304.559 3.46663 304.559 3.24113 303.472C0.254722 287.83 -0.374647 272.193 -0.312337 256.313C-0.310515 255.345 -0.308692 254.378 -0.306814 253.381C-0.261386 239.048 0.247502 225.102 3.00016 211C3.24162 209.655 3.24162 209.655 3.48796 208.282C12.2979 159.594 35.7412 114.57 70.0002 79.0002C70.6323 78.3408 71.2644 77.6814 71.9157 77.0021C81.0601 67.5139 90.3575 58.774 101 51.0002C102.151 50.1421 103.302 49.284 104.453 48.4259C112.643 42.3884 121.146 37.0056 130 32.0002C130.707 31.598 131.415 31.1958 132.143 30.7814C155.263 17.7649 180.412 9.03161 206.375 3.68766C207.441 3.46663 207.441 3.46663 208.528 3.24113C224.171 0.254723 239.807 -0.374652 255.688 -0.312337ZM214 20.0002C212.96 20.2042 211.92 20.4082 210.848 20.6183C167.303 29.4364 128.195 48.8527 95.3791 78.8439C93.2251 80.7963 91.0299 82.6829 88.8127 84.5627C85.5116 87.4412 82.6479 90.5275 79.8244 93.8713C78.591 95.3107 77.321 96.7195 76.0197 98.0978C65.0195 109.779 55.8914 123.272 48.009 137.217C47.029 138.949 46.0266 140.668 45.0236 142.387C33.1596 163.203 25.8785 186.39 20.7502 209.688C20.5989 210.362 20.4476 211.037 20.2917 211.732C17.2974 226.23 16.6209 240.931 16.6877 255.688C16.6892 256.511 16.6906 257.335 16.6922 258.184C16.7563 277.993 19.2704 296.769 24.0002 316C27.5852 315.368 29.9055 313.88 32.8595 311.789C33.8018 311.127 34.7441 310.465 35.715 309.783C37.2174 308.715 37.2174 308.715 38.7502 307.625C40.8489 306.148 42.9478 304.672 45.047 303.195C46.5833 302.111 46.5833 302.111 48.1506 301.005C51.7475 298.474 55.3692 295.982 59.0002 293.5C65.5217 289.031 72.0127 284.519 78.5002 280C85.6056 275.051 92.7215 270.119 99.8634 265.223C105.761 261.175 111.631 257.088 117.5 253C124.606 248.051 131.721 243.119 138.863 238.223C144.761 234.175 150.631 230.088 156.5 226C163.606 221.051 170.721 216.119 177.863 211.223C183.761 207.175 189.631 203.088 195.5 199C202.606 194.051 209.721 189.119 216.863 184.223C222.761 180.175 228.631 176.088 234.5 172C240.988 167.482 247.48 162.971 254 158.5C260.804 153.831 267.593 149.14 274.375 144.438C275.394 143.734 276.412 143.03 277.461 142.305C278.41 141.646 279.359 140.987 280.336 140.309C281.613 139.424 281.613 139.424 282.916 138.521C285.077 137.026 285.077 137.026 287 135C286.651 133.903 286.301 132.806 285.942 131.676C285.482 130.222 285.022 128.767 284.563 127.313C284.218 126.231 284.218 126.231 283.865 125.127C276.2 100.799 282.423 75.3981 293.813 53.3127C297.602 46.6255 302.235 39.6569 307.77 34.2814C309.231 33.0558 309.231 33.0558 309 31.0002C309.578 30.7733 310.155 30.5464 310.75 30.3127C313.562 28.6721 315.03 26.5624 317 24.0002C313.19 23.1964 309.377 22.4096 305.563 21.6252C304.513 21.4034 303.463 21.1817 302.381 20.9533C287.049 17.8224 272.002 16.6139 256.375 16.6877C255.546 16.6898 254.718 16.692 253.864 16.6942C240.387 16.7502 227.257 17.3957 214 20.0002ZM319 46.0002C309.309 57.6039 302.865 70.3777 299 85.0002C298.66 86.228 298.66 86.228 298.313 87.4806C292.526 111.469 302.886 134.272 314.875 154.574C318.724 160.845 322.816 166.949 327 173C327.41 173.593 327.82 174.186 328.243 174.798C334.499 183.795 341.137 192.459 348 201C348.75 201.935 349.501 202.869 350.274 203.832C359.049 214.651 368.127 225.189 377.625 235.379C379.86 237.846 381.952 240.378 384 243C391.983 239.458 397.32 231.495 402.645 224.86C405.738 221.104 409.024 217.548 412.348 213.996C416.114 209.846 419.53 205.398 423 201C423.616 200.223 424.232 199.447 424.867 198.646C462.698 151.055 462.698 151.055 473.282 93.2135C470.49 71.2784 458.613 50.0903 441.375 36.3127C403.567 7.27226 351.973 11.0218 319 46.0002ZM293 152C280.681 160.362 268.403 168.781 256.189 177.297C250.806 181.05 245.414 184.79 240 188.5C233.479 192.97 226.988 197.482 220.5 202C213.395 206.949 206.279 211.881 199.137 216.778C193.239 220.825 187.37 224.912 181.5 229C174.395 233.949 167.279 238.881 160.137 243.778C154.239 247.825 148.37 251.912 142.5 256C135.395 260.949 128.279 265.881 121.137 270.777C115.239 274.825 109.37 278.912 103.5 283C96.3947 287.949 89.2788 292.881 82.1369 297.777C75.2426 302.509 68.3849 307.294 61.5236 312.074C55.0776 316.562 48.6186 321.03 42.1349 325.463C38.0529 328.258 34.0188 331.114 30.0002 334C33.8266 346.605 39.4126 358.611 46.0002 370C51.113 367.211 55.7017 364.111 60.3127 360.563C66.0917 356.172 71.9172 351.859 77.8127 347.625C85.0462 342.429 92.2269 337.166 99.3686 331.844C115.343 320 115.343 320 121 320C123.25 320.5 123.25 320.5 125 322C126.386 325.34 127.244 327.764 126.535 331.36C124.219 335.343 120.824 337.372 117.063 339.938C115.417 341.091 113.773 342.246 112.129 343.402C111.28 343.995 110.43 344.588 109.555 345.199C105.488 348.066 101.496 351.034 97.5002 354C90.5431 359.144 83.5487 364.232 76.528 369.288C69.3199 374.482 62.1554 379.734 55.0002 385C68.1829 408.77 89.4538 430.974 111.395 446.831C112.982 447.987 114.536 449.187 116.09 450.387C132.579 462.947 151.581 472.849 171 480C171.905 480.337 172.81 480.675 173.743 481.022C200.238 490.753 227.447 495.446 255.625 495.313C256.454 495.31 257.282 495.308 258.136 495.306C293.53 495.411 293.53 495.411 326 484C325.334 483.103 324.667 482.206 323.981 481.281C318.631 474.051 313.404 466.755 308.332 459.327C304.654 453.942 300.931 448.59 297.188 443.25C296.599 442.41 296.01 441.57 295.403 440.704C294.202 438.991 293 437.278 291.798 435.565C288.863 431.378 285.932 427.189 283 423C281.834 421.333 280.667 419.667 279.5 418C216.5 328 216.5 328 214.747 325.496C213.59 323.843 212.432 322.189 211.274 320.535C208.219 316.171 205.165 311.805 202.113 307.438C201.477 306.528 200.841 305.617 200.186 304.68C198.966 302.935 197.748 301.191 196.529 299.445C195.98 298.659 195.43 297.873 194.863 297.063C194.382 296.373 193.9 295.683 193.404 294.973C191.969 292.956 190.494 290.974 189 289C185.622 289.618 183.534 290.855 180.805 292.914C180.011 293.508 179.217 294.101 178.398 294.712C177.566 295.344 176.733 295.975 175.875 296.625C174.166 297.903 172.457 299.181 170.746 300.457C169.928 301.07 169.109 301.683 168.265 302.315C154.388 312.639 154.388 312.639 148 312C144.56 309.827 144.068 308.268 143.063 304.313C143.239 301.231 143.872 300.141 145.973 297.832C148.886 295.408 151.903 293.18 155 291C156.061 290.229 157.122 289.458 158.215 288.664C160.515 286.999 162.827 285.354 165.149 283.719C169.35 280.76 173.521 277.759 177.688 274.75C178.443 274.204 179.199 273.659 179.977 273.097C188.694 266.789 197.347 260.395 206 254C216.04 246.58 226.098 239.188 236.231 231.894C241.681 227.966 247.097 223.993 252.5 220C259.371 214.922 266.278 209.898 273.213 204.908C278.839 200.854 284.425 196.748 290 192.625C296.271 187.989 302.562 183.402 309 179C307.97 173.956 305.254 169.903 302.688 165.5C301.958 164.218 301.958 164.218 301.213 162.91C300.495 161.671 300.495 161.671 299.762 160.406C299.112 159.282 299.112 159.282 298.448 158.135C296.858 155.791 295.056 153.94 293 152ZM473 158C472.132 159.295 471.314 160.623 470.516 161.961C470 162.816 469.483 163.671 468.952 164.552C468.109 165.949 468.109 165.949 467.25 167.375C452.003 192.311 433.626 215.152 414.012 236.774C412.153 238.831 410.321 240.909 408.5 243C404.386 247.715 400.22 252.379 396 257C395.429 257.638 394.858 258.276 394.27 258.934C392.131 261.227 390.38 262.852 387.438 264C383.698 264 380.965 262.787 378.075 260.431C377.175 259.518 377.175 259.518 376.258 258.586C375.584 257.907 374.91 257.227 374.215 256.527C373.525 255.817 372.836 255.107 372.125 254.375C371.443 253.688 370.761 253.001 370.059 252.293C365.518 247.684 361.213 242.91 357 238C356.061 236.918 355.123 235.836 354.184 234.754C342.239 220.901 330.627 206.899 320 192C314.112 195.874 308.327 199.857 302.625 204C301.856 204.558 301.086 205.115 300.293 205.69C292.308 211.484 284.369 217.34 276.435 223.203C273.924 225.056 271.41 226.904 268.895 228.75C268.054 229.368 267.214 229.985 266.348 230.622C264.759 231.788 263.17 232.954 261.58 234.119C256.316 237.99 251.14 241.965 246 246C249.105 251.673 252.636 256.916 256.375 262.188C257.633 263.973 258.891 265.758 260.149 267.543C260.789 268.45 261.429 269.357 262.089 270.291C265.071 274.519 268.035 278.76 271 283C272.167 284.667 273.333 286.334 274.5 288C313 343 351.5 398 390 453C394.567 451.501 397.992 448.916 401.688 445.938C402.301 445.45 402.915 444.962 403.547 444.459C408.143 440.77 412.561 436.913 416.895 432.918C418.617 431.349 420.361 429.881 422.188 428.438C425.094 425.918 427.491 423.26 429.973 420.332C431.419 418.668 432.912 417.044 434.434 415.449C467.921 380.31 487.812 332.781 494 285C494.094 284.311 494.189 283.622 494.286 282.912C499.059 242.99 494.609 193.234 474 158C473.67 158 473.34 158 473 158ZM230 257C227.934 258.074 227.934 258.074 225.832 259.754C225.021 260.362 224.209 260.97 223.373 261.596C222.528 262.245 221.683 262.894 220.813 263.563C219.574 264.496 219.574 264.496 218.311 265.447C216.668 266.686 215.029 267.929 213.393 269.176C209.944 271.805 206.473 274.403 203 277C203.633 280.525 205.05 282.81 207.106 285.719C207.752 286.641 208.399 287.563 209.065 288.513C209.766 289.498 210.466 290.484 211.188 291.5C211.909 292.525 212.63 293.551 213.373 294.607C214.861 296.722 216.351 298.836 217.844 300.948C220.381 304.539 222.901 308.142 225.419 311.746C227.134 314.201 228.852 316.653 230.57 319.106C234.049 324.069 237.525 329.035 241 334C242.167 335.667 243.333 337.333 244.5 339C307.5 429 307.5 429 309.251 431.502C310.414 433.163 311.578 434.825 312.741 436.487C315.71 440.727 318.677 444.968 321.641 449.211C324.552 453.377 327.467 457.541 330.387 461.701C331.443 463.206 332.497 464.711 333.551 466.217C334.946 468.211 336.347 470.2 337.75 472.188C338.157 472.77 338.563 473.353 338.982 473.953C341.048 476.96 341.048 476.96 344 479C345.97 478.406 345.97 478.406 348.149 477.375C348.984 477.001 349.82 476.627 350.681 476.242C351.57 475.832 352.459 475.422 353.375 475C354.275 474.591 355.174 474.182 356.101 473.76C363 470.574 369.571 467.064 376 463C370.052 453.251 363.44 443.975 356.863 434.645C353.899 430.437 350.95 426.218 348 422C346.834 420.333 345.667 418.667 344.5 417C267.5 307 267.5 307 265.749 304.499C264.586 302.837 263.422 301.175 262.259 299.513C259.29 295.273 256.324 291.032 253.36 286.789C250.448 282.622 247.53 278.46 244.609 274.299C243.066 272.094 241.534 269.882 240.004 267.668C239.107 266.383 238.21 265.098 237.313 263.813C236.915 263.23 236.517 262.648 236.107 262.048C234.145 259.258 233.328 258.11 230 257Z" fill="white"/>
<path d="M177.897 94.5037C184.618 99.2883 184.618 99.2883 185.432 102.949C185.643 106.403 185.283 108.589 183.311 111.437C180.634 113.246 179.239 113.924 175.998 114C171.915 112.613 168.6 110.785 164.998 108.437C157.331 103.57 149.185 102.914 140.35 104.465C131.365 106.801 124.18 112.319 118.998 120C114.194 128.311 113.781 137.27 115.471 146.613C117.807 154.711 123.178 161.186 129.998 166C139.096 170.774 147.849 172.523 157.936 169.937C167.394 166.775 174.524 160.934 178.998 152C179.7 150.012 180.374 148.014 180.998 146C180.267 146.021 179.536 146.042 178.783 146.063C175.459 146.147 172.135 146.199 168.811 146.25C167.085 146.3 167.085 146.3 165.325 146.351C163.657 146.371 163.657 146.371 161.956 146.39C160.424 146.422 160.424 146.422 158.861 146.454C155.24 145.88 153.599 144.531 150.998 142C149.834 138.971 149.858 137.493 150.748 134.375C151.989 132.017 152.959 130.683 154.998 129C158.035 128.689 160.863 128.556 163.901 128.566C164.775 128.561 165.649 128.556 166.55 128.55C168.398 128.544 170.247 128.545 172.095 128.554C174.922 128.562 177.748 128.534 180.575 128.502C182.371 128.5 184.167 128.501 185.963 128.504C186.808 128.492 187.653 128.481 188.524 128.47C194.394 128.539 194.394 128.539 197.501 130.906C201.053 135.871 200.469 141.062 199.538 146.875C196.503 160.583 189.098 172.352 177.436 180.375C175.971 181.274 174.492 182.15 172.998 183C171.995 183.584 171.995 183.584 170.971 184.179C159.549 190.377 145.419 190.891 133.061 187.312C117.251 181.717 107.366 171.937 99.8579 157.117C95.0184 145.194 94.9098 129.423 99.7368 117.5C101.821 113.37 104.159 109.651 106.998 106C107.535 105.3 108.071 104.6 108.623 103.879C125.645 83.0352 155.829 80.0914 177.897 94.5037Z" fill="white"/>
<path d="M418.039 53.4407C427.259 60.8934 434.691 72.7448 436.754 84.4641C438.308 100.468 435.823 113.804 425.926 126.702C421.204 132.207 416.294 136.413 410 139.999C409.343 140.389 408.685 140.778 408.008 141.179C396.33 147.604 381.551 147.675 368.95 144.109C355.272 138.964 344.788 130.018 338.485 116.827C333.337 104.697 331.21 89.9715 335.965 77.2532C343.579 60.6754 353.864 50.5162 371 43.9993C387.43 39.4719 404.455 43.8377 418.039 53.4407ZM358.75 72.3743C351.693 81.0473 349.936 89.973 351 100.999C353.744 111.198 359.035 118.672 367.875 124.374C376.466 129.123 384.36 129.765 394 127.999C403.169 125.217 410.746 119.65 415.742 111.472C420.1 102.906 420.984 94.3922 419 84.9993C415.345 74.3059 408.726 67.4846 399 61.9993C383.998 56.0607 369.237 60.8626 358.75 72.3743Z" fill="white"/>
</g>
<defs>
<clipPath id="clip0_250_443">
<rect width="512" height="512" fill="white"/>
</clipPath>
</defs>
</svg>
