<svg width="44" height="44" viewBox="0 0 44 44" fill="none" xmlns="http://www.w3.org/2000/svg">
<path d="M21.7955 10.3875C20.4889 10.3875 19.4297 11.4466 19.4297 12.7532C19.4297 14.0598 20.4889 15.119 21.7955 15.119C23.102 15.119 24.1612 14.0598 24.1612 12.7532C24.1598 11.4473 23.1015 10.389 21.7955 10.3875ZM21.7955 13.6782C21.2846 13.6782 20.8705 13.2641 20.8705 12.7532C20.8705 12.2424 21.2846 11.8282 21.7955 11.8282C22.3063 11.8282 22.7204 12.2424 22.7204 12.7532C22.7199 13.2638 22.3061 13.6776 21.7955 13.6782Z" fill="black" stroke="black" stroke-width="0.5"/>
<path d="M36.5389 32.1734H34.6717V17.7655H35.957C36.3548 17.7655 36.6888 17.4743 36.6888 17.0765V13.7857C36.6876 13.6442 36.6451 13.5061 36.5665 13.3885C36.4879 13.2708 36.3766 13.1787 36.2462 13.1235L22.0803 7.05819C21.9904 7.0198 21.8937 7 21.796 7C21.6983 7 21.6016 7.0198 21.5117 7.05819L7.36097 13.1235C7.23277 13.1797 7.12406 13.2725 7.04853 13.3904C6.973 13.5082 6.93402 13.6458 6.93651 13.7857V17.0765C6.93419 17.1681 6.95059 17.2591 6.98473 17.3441C7.01886 17.4291 7.07 17.5062 7.13501 17.5707C7.20002 17.6353 7.27753 17.6858 7.36278 17.7193C7.44802 17.7528 7.53922 17.7685 7.63076 17.7655H8.95362V32.1734H6.7276C6.33059 32.1685 6.00483 32.4865 6 32.8836V36.3112C6 36.709 6.32951 37 6.7276 37H36.5375C36.9354 37 37.2651 36.709 37.2651 36.3112V32.885C37.2611 32.488 36.936 32.1693 36.5389 32.1734ZM8.3773 16.3247V14.2609L21.8126 8.50409L35.248 14.2609V16.3247H8.3773ZM33.2309 17.7655V32.1734H29.701V17.7655H33.2309ZM28.2602 17.7655V32.1734H24.8023V17.7655H28.2602ZM23.3615 17.7655V32.1734H19.9036V17.7655H23.3615ZM18.4628 17.7655V32.1734H15.0049V17.7655H18.4628ZM13.5641 17.7655V32.1734H10.3944V17.7655H13.5641ZM35.8243 35.5592H7.44079V33.6141H35.8243V35.5592Z" fill="black" stroke="black" stroke-width="0.5"/>
</svg>
