<svg width="44" height="44" viewBox="0 0 44 44" fill="none" xmlns="http://www.w3.org/2000/svg">
<mask id="mask0_1294_25" style="mask-type:luminance" maskUnits="userSpaceOnUse" x="8" y="8" width="28" height="28">
<path d="M35.5 35.5V8.5H8.5V35.5H35.5Z" fill="white" stroke="white"/>
<mask id="path-2-inside-1_1294_25" fill="white">
<path d="M36 36V8.00002H8V36H36ZM8.54688 8.5469H35.4531V35.4531H8.54688V8.5469Z"/>
</mask>
<path d="M36 36V8.00002H8V36H36ZM8.54688 8.5469H35.4531V35.4531H8.54688V8.5469Z" fill="white"/>
<path d="M36 36H37V37H36V36ZM36 8.00002V7.00002H37V8.00002H36ZM8 8.00002H7V7.00002H8V8.00002ZM8 36V37H7V36H8ZM8.54688 8.5469H7.54688V7.5469H8.54688V8.5469ZM35.4531 8.5469V7.5469H36.4531V8.5469H35.4531ZM35.4531 35.4531H36.4531V36.4531H35.4531V35.4531ZM8.54688 35.4531V36.4531H7.54688V35.4531H8.54688ZM36 36H35V8.00002H36H37V36H36ZM36 8.00002V9.00002H8V8.00002V7.00002H36V8.00002ZM8 8.00002H9V36H8H7V8.00002H8ZM8 36V35H36V36V37H8V36ZM8.54688 8.5469V7.5469H35.4531V8.5469V9.5469H8.54688V8.5469ZM35.4531 8.5469H36.4531V35.4531H35.4531H34.4531V8.5469H35.4531ZM35.4531 35.4531V36.4531H8.54688V35.4531V34.4531H35.4531V35.4531ZM8.54688 35.4531H7.54688V8.5469H8.54688H9.54688V35.4531H8.54688Z" fill="white" mask="url(#path-2-inside-1_1294_25)"/>
</mask>
<g mask="url(#mask0_1294_25)">
<path d="M8.54688 19.7345C8.54688 23.3962 10.0571 26.9045 12.6423 29.4897L15.1641 32.0115V35.4529H22.2734V29.2968H21.7265V34.906H15.711V31.7849L13.029 29.103C10.5423 26.6163 9.09376 23.2456 9.09375 19.7345V15.7777C10.6268 15.9158 11.8281 17.2042 11.8281 18.7732C11.8281 20.6089 12.208 22.0023 12.9202 23.2622C13.6272 24.513 14.6555 25.6197 15.9235 26.8877L16.8848 27.849L17.2715 27.4623L16.3102 26.501C15.0423 25.2331 14.0629 24.1724 13.3963 22.9931C12.7349 21.823 12.375 20.5239 12.375 18.7732C12.375 16.81 10.7835 15.2185 8.82031 15.2185H8.54688V19.7345Z" fill="black" stroke="black" stroke-miterlimit="10"/>
<path d="M22.2734 35.1794V27.9576C22.274 27.9542 22.2747 27.9496 22.2759 27.9439C22.2807 27.9207 22.2909 27.8789 22.3112 27.8167C22.3519 27.6921 22.4329 27.4868 22.592 27.1868C22.9105 26.586 23.5381 25.6122 24.7697 24.1541L24.8024 24.116C26.1898 22.5131 28.5555 22.2715 30.2143 23.4817L30.5366 23.04C28.6492 21.663 25.9634 21.939 24.3889 23.7579L24.3519 23.8012C23.1035 25.2792 22.4508 26.2855 22.1088 26.9306C22.0683 27.0069 22.0323 27.0783 21.9999 27.1449C21.9676 27.0783 21.9315 27.0069 21.8911 26.9306C21.5598 26.3056 20.9368 25.3417 19.7632 23.9384L19.6479 23.8012C18.0788 21.9435 15.3656 21.6521 13.4634 23.04L13.7857 23.4817C15.4576 22.262 17.8473 22.5169 19.2301 24.1541L19.3439 24.2894C20.5007 25.6727 21.0994 26.6047 21.4079 27.1868C21.5669 27.4868 21.6479 27.6921 21.6886 27.8167C21.709 27.8789 21.7191 27.9207 21.724 27.9439C21.7252 27.9496 21.7259 27.9542 21.7265 27.9576V35.1794H22.2734Z" fill="black" stroke="black" stroke-miterlimit="10"/>
<path d="M34.9062 19.7345C34.9062 23.2181 33.4802 26.5636 31.0291 29.0445L30.971 29.103L28.2891 31.7849V34.906H22V35.4529H28.836V32.0115L31.3577 29.4897L31.4181 29.4289C33.9664 26.8496 35.4531 23.3676 35.4531 19.7345V15.2185H35.1797C33.2164 15.2185 31.625 16.81 31.625 18.7732C31.625 20.5239 31.2651 21.823 30.6037 22.9931C29.9787 24.0987 29.0789 25.1001 27.9241 26.2657L27.6897 26.501L26.7285 27.4622L27.1152 27.8489L28.0764 26.8877L28.3114 26.6518C29.4717 25.4808 30.4169 24.4348 31.0798 23.2622C31.792 22.0023 32.1719 20.6089 32.1719 18.7732C32.1719 17.2042 33.3732 15.9158 34.9062 15.7777V19.7345Z" fill="black" stroke="black" stroke-miterlimit="10"/>
<path d="M28.289 12.723C28.289 13.9706 27.748 14.96 26.6559 16.1056C25.5828 17.2314 24.0253 18.4614 21.9994 20.2088C19.9096 18.4134 18.3804 17.1731 17.357 16.0581C16.318 14.9262 15.8374 13.9614 15.8374 12.723C15.8374 10.6685 17.3383 9.09354 19.2233 9.09354C20.4172 9.09354 21.2593 9.73108 21.8102 10.4787L22.0266 10.7724L22.2477 10.4824C22.7901 9.77137 23.6352 9.09354 24.9023 9.09354C26.7873 9.09355 28.289 10.6686 28.289 12.723ZM28.8359 12.723C28.8359 10.4002 27.1219 8.54667 24.9023 8.54666C23.5777 8.54666 22.6496 9.18312 22.0335 9.8817C21.4086 9.15424 20.4859 8.54667 19.2233 8.54666C17.0036 8.54666 15.2905 10.4003 15.2905 12.723C15.2905 14.1444 15.8593 15.2352 16.9541 16.4279C18.0353 17.6058 19.666 18.9205 21.8215 20.7768L22.0004 20.9309L22.1789 20.7764C24.2597 18.9747 25.9234 17.6667 27.0518 16.483C28.1926 15.2863 28.8359 14.1681 28.8359 12.723Z" fill="black" stroke="black" stroke-miterlimit="10"/>
</g>
</svg>
