<?xml version="1.0" standalone="no"?>
<!DOCTYPE svg PUBLIC "-//W3C//DTD SVG 20010904//EN"
 "http://www.w3.org/TR/2001/REC-SVG-20010904/DTD/svg10.dtd">
<svg version="1.0" xmlns="http://www.w3.org/2000/svg"
 width="512.000000pt" height="512.000000pt" viewBox="0 0 512.000000 512.000000"
 preserveAspectRatio="xMidYMid meet">

<g transform="translate(0.000000,512.000000) scale(0.100000,-0.100000)"
fill="#000000" stroke="none">
<path d="M1815 4985 c-263 -50 -450 -166 -564 -351 -25 -42 -40 -55 -79 -69
-173 -64 -311 -199 -367 -363 -53 -151 -55 -274 -9 -550 14 -84 24 -156 21
-158 -3 -3 -33 -12 -68 -20 -145 -34 -239 -133 -257 -271 -30 -224 116 -415
345 -455 l69 -11 39 -81 c21 -45 41 -84 43 -88 2 -5 -21 -8 -51 -8 -110 0
-188 -40 -234 -118 l-28 -47 -5 -404 -5 -403 -119 -44 c-164 -60 -238 -104
-327 -193 -88 -88 -126 -152 -168 -276 -42 -127 -51 -229 -51 -558 0 -320 4
-341 64 -378 30 -18 87 -19 1973 -17 l1942 3 31 30 c47 45 52 79 48 386 l-3
279 66 0 c85 0 215 23 304 53 86 30 209 91 235 117 43 43 11 120 -49 120 -15
0 -67 -20 -114 -44 -140 -71 -226 -91 -397 -91 -198 0 -303 30 -480 134 l-65
39 -249 11 c-137 6 -252 13 -254 16 -3 3 38 109 91 237 l96 233 -6 140 c-5
111 -2 158 11 225 66 324 313 583 641 671 113 30 297 31 417 1 155 -38 284
-109 396 -216 303 -289 358 -748 132 -1099 -27 -43 -50 -87 -50 -98 0 -54 52
-89 101 -69 31 13 80 83 132 186 163 327 135 728 -73 1028 -99 143 -226 254
-382 332 -391 197 -858 126 -1171 -178 -65 -62 -74 -68 -92 -57 -54 33 -85 43
-155 47 l-75 4 43 87 44 86 66 12 c141 26 263 118 320 240 23 50 27 71 27 153
0 82 -4 103 -26 151 -46 97 -143 172 -243 185 -24 4 -48 9 -54 13 -6 4 -1 65
15 171 31 207 28 410 -6 528 -112 385 -450 672 -916 777 -151 34 -392 43 -520
20z m480 -164 c421 -93 735 -360 815 -694 22 -93 27 -253 10 -370 -19 -128
-13 -123 -77 -56 -65 69 -132 104 -223 119 -88 14 -1503 13 -1589 -1 -92 -15
-164 -53 -226 -122 -61 -67 -55 -76 -81 103 -50 342 65 550 353 644 50 16 55
22 88 85 83 158 246 264 468 307 101 19 344 12 462 -15z m570 -1168 c56 -30
96 -74 155 -173 l52 -85 -5 -220 c-3 -188 -7 -230 -25 -290 -24 -78 -77 -194
-124 -272 l-32 -52 -379 -3 -379 -3 -19 -24 c-25 -30 -24 -62 2 -94 l20 -26
529 -3 c623 -3 585 4 531 -103 -86 -175 -114 -302 -110 -509 l3 -141 -112
-267 c-62 -146 -112 -276 -112 -288 0 -60 45 -80 180 -80 47 0 109 -3 138 -6
l52 -7 0 -163 0 -164 -1205 0 -1205 0 0 836 0 836 29 29 29 29 483 0 c482 0
483 0 506 22 28 26 30 67 4 99 l-19 24 -340 3 -340 3 -31 47 c-42 66 -107 208
-127 278 -13 45 -18 112 -22 286 l-4 228 44 76 c58 104 122 168 184 188 42 13
157 15 829 13 779 -2 780 -2 820 -24z m-2025 -524 c3 -112 9 -210 13 -216 12
-19 -21 -16 -68 6 -195 88 -196 365 -2 411 18 4 37 7 42 6 6 -2 12 -83 15
-207z m2446 196 c54 -16 106 -62 123 -108 31 -81 -4 -196 -80 -260 -40 -35
-113 -67 -124 -55 -3 3 -1 29 5 58 5 29 10 126 10 216 0 90 4 164 8 164 5 0
31 -7 58 -15z m-2616 -2270 l0 -375 -47 0 c-60 0 -111 -25 -140 -69 -20 -30
-23 -46 -23 -141 0 -70 5 -122 15 -150 8 -23 15 -44 15 -46 0 -2 -77 -4 -171
-4 l-171 0 4 318 c5 283 7 325 26 395 59 215 170 328 412 418 41 15 76 28 78
29 1 0 2 -169 2 -375z m2900 -90 c75 -45 180 -90 262 -110 l66 -17 6 -45 c3
-25 6 -153 6 -284 l0 -239 -173 0 -174 0 18 52 c27 77 26 218 -2 274 -25 52
-83 84 -152 84 l-47 0 0 160 0 160 66 0 c58 0 74 -4 124 -35z m-120 -503 c0
-85 -29 -147 -80 -174 -33 -17 -96 -18 -1340 -18 -1222 0 -1307 1 -1340 18
-59 29 -80 72 -80 163 l0 79 1420 0 1420 0 0 -68z"/>
<path d="M1459 3475 c-49 -16 -109 -67 -136 -118 -14 -25 -18 -63 -21 -180 -4
-143 -3 -150 22 -202 50 -100 123 -135 285 -135 127 0 183 16 235 66 49 47 67
86 73 156 6 56 7 58 42 68 46 13 96 13 142 0 l37 -10 4 -65 c3 -52 10 -73 34
-107 62 -89 126 -112 294 -106 126 4 170 19 221 75 58 62 64 85 64 248 0 163
-6 186 -64 248 -56 62 -92 72 -246 72 -136 0 -142 -1 -188 -28 -54 -32 -104
-94 -112 -141 l-6 -31 -110 0 -110 0 -9 35 c-19 72 -81 133 -157 156 -60 18
-234 17 -294 -1z m282 -164 c29 -29 29 -31 29 -146 0 -115 0 -117 -29 -146
-29 -28 -32 -29 -131 -29 -99 0 -102 1 -131 29 -29 29 -29 31 -29 146 0 115 0
117 29 146 29 28 32 29 131 29 99 0 102 -1 131 -29z m841 1 c22 -21 23 -31 23
-148 0 -125 0 -126 -28 -150 -25 -22 -37 -24 -123 -24 -99 0 -146 13 -158 45
-3 9 -6 69 -6 134 0 163 10 173 167 169 91 -3 105 -5 125 -26z"/>
<path d="M1873 2255 c-39 -17 -63 -52 -70 -105 -5 -36 -11 -44 -47 -62 -22
-11 -54 -30 -69 -40 -27 -20 -30 -20 -82 -4 -91 29 -125 5 -219 -160 -25 -44
-49 -94 -52 -111 -8 -41 19 -100 56 -121 30 -17 30 -17 30 -107 0 -89 0 -91
-29 -108 -31 -18 -61 -71 -61 -109 0 -31 128 -256 156 -275 36 -23 88 -27 127
-8 l35 17 68 -41 c37 -23 71 -41 76 -41 4 0 8 -15 8 -32 0 -43 31 -93 69 -113
41 -21 279 -22 320 -1 36 19 57 51 66 104 6 37 12 45 48 64 23 11 54 29 70 40
26 19 29 19 72 3 56 -22 103 -14 137 23 14 15 49 68 78 117 41 69 54 102 58
143 4 51 4 54 -38 93 l-43 41 0 85 c0 82 1 85 28 103 38 25 54 56 55 105 0 31
-13 63 -60 145 -74 127 -83 137 -132 150 -31 9 -46 7 -80 -8 l-42 -18 -51 33
c-27 19 -60 36 -72 39 -16 4 -23 16 -28 47 -9 53 -28 83 -68 107 -27 17 -50
20 -157 20 -84 -1 -136 -5 -157 -15z m235 -185 c4 -57 12 -65 91 -101 36 -16
89 -47 117 -69 58 -44 86 -48 139 -23 19 9 36 15 38 12 2 -2 19 -31 37 -63 32
-56 32 -60 15 -70 -69 -41 -72 -50 -60 -176 4 -44 3 -93 -3 -119 -13 -56 -3
-84 42 -113 20 -13 36 -26 36 -30 0 -4 -16 -34 -36 -68 l-37 -60 -34 20 c-50
29 -71 25 -138 -25 -33 -24 -85 -54 -115 -66 -79 -32 -90 -44 -90 -101 l0 -48
-80 0 -80 0 0 39 c0 61 -8 70 -88 107 -42 19 -99 53 -127 74 -58 45 -85 49
-133 20 -18 -11 -33 -20 -35 -20 -1 0 -18 30 -37 66 -34 64 -34 67 -16 78 60
35 61 38 60 211 -1 88 -2 163 -3 166 -1 4 -19 18 -41 30 l-39 24 36 63 c40 66
48 71 79 47 35 -27 75 -18 139 30 33 25 86 55 118 67 69 25 87 47 87 106 l0
43 78 -3 77 -3 3 -45z"/>
<path d="M1945 1837 c-94 -31 -158 -88 -197 -172 -33 -74 -31 -181 5 -252 33
-63 84 -115 146 -145 37 -19 62 -23 131 -23 72 0 93 4 136 27 64 34 128 104
148 165 67 197 -65 397 -268 409 -34 2 -79 -2 -101 -9z m151 -158 c56 -27 84
-72 84 -136 0 -89 -66 -153 -156 -153 -46 0 -94 28 -128 73 -31 43 -28 124 6
169 51 67 120 83 194 47z"/>
<path d="M4170 2147 c-21 -10 -46 -64 -142 -302 -64 -160 -117 -300 -118 -313
0 -30 42 -72 73 -72 49 0 66 30 182 324 63 159 115 295 115 302 0 18 -41 61
-65 68 -11 3 -31 0 -45 -7z"/>
<path d="M3651 2113 c-11 -10 -57 -79 -101 -153 -64 -105 -80 -140 -75 -159 8
-30 162 -293 178 -303 7 -4 26 -8 44 -8 35 0 73 37 73 72 0 11 -29 69 -65 129
-36 61 -65 114 -65 119 0 5 29 57 65 117 36 59 65 118 65 131 0 30 -43 72 -73
72 -14 0 -34 -8 -46 -17z"/>
<path d="M4465 2105 c-14 -13 -25 -34 -25 -47 0 -13 29 -72 65 -131 36 -60 65
-112 65 -115 0 -4 -29 -58 -65 -120 -36 -61 -65 -120 -65 -131 0 -10 9 -30 21
-45 27 -34 77 -36 106 -3 28 30 160 258 168 288 5 20 -12 54 -75 159 -44 74
-90 143 -101 153 -30 24 -66 21 -94 -8z"/>
</g>
</svg>
