<?xml version="1.0" standalone="no"?>
<!DOCTYPE svg PUBLIC "-//W3C//DTD SVG 20010904//EN"
 "http://www.w3.org/TR/2001/REC-SVG-20010904/DTD/svg10.dtd">
<svg version="1.0" xmlns="http://www.w3.org/2000/svg"
 width="512.000000pt" height="512.000000pt" viewBox="0 0 512.000000 512.000000"
 preserveAspectRatio="xMidYMid meet">

<g transform="translate(0.000000,512.000000) scale(0.100000,-0.100000)"
fill="#000000" stroke="none">
<path d="M320 4947 c-49 -16 -133 -102 -148 -153 -18 -60 -18 -3608 0 -3668
16 -55 99 -138 154 -154 31 -9 255 -12 898 -12 l856 0 0 -255 0 -256 25 -24
c23 -24 29 -25 160 -25 l135 0 0 -95 c0 -88 2 -98 25 -120 24 -25 26 -25 215
-25 189 0 191 0 215 25 23 22 25 32 25 120 l0 95 641 0 642 0 -7 -85 c-7 -89
5 -136 39 -149 9 -3 101 -6 204 -6 233 0 226 -4 237 143 l7 97 134 0 c129 0
135 1 158 25 l25 24 0 511 0 511 -25 24 c-23 24 -29 25 -160 25 l-135 0 0 40
0 40 125 0 c134 0 166 8 184 47 8 16 11 179 11 524 l0 500 -25 24 c-23 24 -29
25 -160 25 l-135 0 0 40 0 40 125 0 c134 0 166 8 184 47 8 16 11 179 11 524
l0 500 -25 24 -24 25 -296 0 -295 0 0 416 c0 293 -4 428 -12 456 -6 22 -31 62
-55 88 -78 87 106 80 -2017 79 -1341 -1 -1891 -4 -1916 -12z m3815 -172 c24
-23 25 -29 25 -160 l0 -135 -1920 0 -1920 0 0 135 c0 131 1 137 25 160 l24 25
1871 0 1871 0 24 -25z m25 -655 l0 -200 -1015 0 -1016 0 -24 -25 -25 -24 0
-508 c1 -384 4 -512 13 -524 25 -32 56 -39 181 -39 l126 0 0 -40 0 -40 -135 0
c-131 0 -137 -1 -160 -25 l-25 -24 0 -508 c1 -384 4 -512 13 -524 25 -32 56
-39 181 -39 l126 0 0 -40 0 -40 -135 0 c-131 0 -137 -1 -160 -25 -25 -24 -25
-27 -25 -200 l0 -175 -855 0 -856 0 -24 25 -25 24 0 1576 0 1575 1920 0 1920
0 0 -200z m640 -760 l0 -400 -1280 0 -1280 0 0 400 0 400 1280 0 1280 0 0
-400z m-2080 -600 l0 -40 -80 0 -80 0 0 40 0 40 80 0 80 0 0 -40z m1438 3 l-3
-38 -637 -3 -638 -2 0 40 0 40 641 0 640 0 -3 -37z m320 0 l-3 -38 -77 -3 -78
-3 0 41 0 40 81 0 80 0 -3 -37z m322 -603 l0 -400 -1280 0 -1280 0 0 400 0
400 1280 0 1280 0 0 -400z m-2080 -600 l0 -40 -80 0 -80 0 0 40 0 40 80 0 80
0 0 -40z m1440 0 l0 -40 -640 0 -640 0 0 40 0 40 640 0 640 0 0 -40z m320 0
l0 -40 -80 0 -80 0 0 40 0 40 80 0 80 0 0 -40z m320 -600 l0 -400 -1280 0
-1280 0 0 400 0 400 1280 0 1280 0 0 -400z m-2080 -600 l0 -40 -80 0 -80 0 0
40 0 40 80 0 80 0 0 -40z m1760 0 l0 -40 -80 0 -80 0 0 40 0 40 80 0 80 0 0
-40z"/>
<path d="M480 4640 l0 -80 80 0 80 0 0 80 0 80 -80 0 -80 0 0 -80z"/>
<path d="M800 4640 l0 -80 80 0 80 0 0 80 0 80 -80 0 -80 0 0 -80z"/>
<path d="M1120 4640 l0 -80 80 0 80 0 0 80 0 80 -80 0 -80 0 0 -80z"/>
<path d="M1311 3983 c-15 -13 -48 -97 -106 -273 -47 -140 -85 -265 -85 -278 0
-33 43 -72 78 -72 56 0 68 21 157 290 47 140 85 265 85 278 0 57 -83 92 -129
55z"/>
<path d="M793 3825 c-148 -99 -163 -115 -149 -170 9 -33 278 -215 319 -215 55
0 94 69 67 119 -5 10 -43 40 -84 67 -42 27 -76 51 -76 54 0 3 34 27 76 54 41
27 79 57 84 67 27 50 -12 119 -67 119 -19 0 -75 -31 -170 -95z"/>
<path d="M1545 3895 c-26 -25 -32 -63 -15 -94 5 -10 43 -40 84 -67 42 -27 76
-51 76 -54 0 -3 -34 -27 -76 -54 -41 -27 -79 -57 -84 -67 -27 -50 12 -119 67
-119 41 0 310 182 319 215 14 55 -1 71 -149 170 -155 104 -181 112 -222 70z"/>
<path d="M640 3120 l0 -80 240 0 240 0 0 80 0 80 -240 0 -240 0 0 -80z"/>
<path d="M1280 3120 l0 -80 80 0 80 0 0 80 0 80 -80 0 -80 0 0 -80z"/>
<path d="M800 2800 l0 -80 80 0 80 0 0 80 0 80 -80 0 -80 0 0 -80z"/>
<path d="M1120 2800 l0 -80 360 0 360 0 0 80 0 80 -360 0 -360 0 0 -80z"/>
<path d="M720 2480 l0 -80 160 0 160 0 0 80 0 80 -160 0 -160 0 0 -80z"/>
<path d="M1200 2480 l0 -80 80 0 80 0 0 80 0 80 -80 0 -80 0 0 -80z"/>
<path d="M1520 2480 l0 -80 160 0 160 0 0 80 0 80 -160 0 -160 0 0 -80z"/>
<path d="M720 2160 l0 -80 560 0 560 0 0 80 0 80 -560 0 -560 0 0 -80z"/>
<path d="M720 1840 l0 -80 560 0 560 0 0 80 0 80 -560 0 -560 0 0 -80z"/>
<path d="M640 1520 l0 -80 240 0 240 0 0 80 0 80 -240 0 -240 0 0 -80z"/>
<path d="M1280 1520 l0 -80 80 0 80 0 0 80 0 80 -80 0 -80 0 0 -80z"/>
<path d="M2425 3575 c-25 -24 -25 -26 -25 -212 1 -197 3 -208 47 -231 30 -16
831 -17 866 -1 41 19 47 48 47 240 0 178 0 180 -25 204 l-24 25 -431 0 -431 0
-24 -25z m775 -215 l0 -80 -320 0 -320 0 0 80 0 80 320 0 320 0 0 -80z"/>
<path d="M3520 3520 l0 -80 80 0 80 0 0 80 0 80 -80 0 -80 0 0 -80z"/>
<path d="M3840 3520 l0 -80 80 0 80 0 0 80 0 80 -80 0 -80 0 0 -80z"/>
<path d="M4160 3520 l0 -80 80 0 80 0 0 80 0 80 -80 0 -80 0 0 -80z"/>
<path d="M4480 3520 l0 -80 80 0 80 0 0 80 0 80 -80 0 -80 0 0 -80z"/>
<path d="M3520 3200 l0 -80 80 0 80 0 0 80 0 80 -80 0 -80 0 0 -80z"/>
<path d="M3840 3200 l0 -80 80 0 80 0 0 80 0 80 -80 0 -80 0 0 -80z"/>
<path d="M4160 3200 l0 -80 80 0 80 0 0 80 0 80 -80 0 -80 0 0 -80z"/>
<path d="M4480 3200 l0 -80 80 0 80 0 0 80 0 80 -80 0 -80 0 0 -80z"/>
<path d="M2425 2375 c-25 -24 -25 -26 -25 -212 1 -197 3 -208 47 -231 30 -16
831 -17 866 -1 41 19 47 48 47 240 0 178 0 180 -25 204 l-24 25 -431 0 -431 0
-24 -25z m775 -215 l0 -80 -320 0 -320 0 0 80 0 80 320 0 320 0 0 -80z"/>
<path d="M3520 2320 l0 -80 80 0 80 0 0 80 0 80 -80 0 -80 0 0 -80z"/>
<path d="M3840 2320 l0 -80 80 0 80 0 0 80 0 80 -80 0 -80 0 0 -80z"/>
<path d="M4160 2320 l0 -80 80 0 80 0 0 80 0 80 -80 0 -80 0 0 -80z"/>
<path d="M4480 2320 l0 -80 80 0 80 0 0 80 0 80 -80 0 -80 0 0 -80z"/>
<path d="M3520 2000 l0 -80 80 0 80 0 0 80 0 80 -80 0 -80 0 0 -80z"/>
<path d="M3840 2000 l0 -80 80 0 80 0 0 80 0 80 -80 0 -80 0 0 -80z"/>
<path d="M4160 2000 l0 -80 80 0 80 0 0 80 0 80 -80 0 -80 0 0 -80z"/>
<path d="M4480 2000 l0 -80 80 0 80 0 0 80 0 80 -80 0 -80 0 0 -80z"/>
<path d="M2425 1175 c-25 -24 -25 -26 -25 -215 0 -189 0 -191 25 -215 l24 -25
431 0 431 0 24 25 c25 24 25 26 25 215 0 189 0 191 -25 215 l-24 25 -431 0
-431 0 -24 -25z m775 -215 l0 -80 -320 0 -320 0 0 80 0 80 320 0 320 0 0 -80z"/>
<path d="M3520 1120 l0 -80 80 0 80 0 0 80 0 80 -80 0 -80 0 0 -80z"/>
<path d="M3840 1120 l0 -80 80 0 80 0 0 80 0 80 -80 0 -80 0 0 -80z"/>
<path d="M4160 1120 l0 -80 80 0 80 0 0 80 0 80 -80 0 -80 0 0 -80z"/>
<path d="M4480 1120 l0 -80 80 0 80 0 0 80 0 80 -80 0 -80 0 0 -80z"/>
<path d="M3520 800 l0 -80 80 0 80 0 0 80 0 80 -80 0 -80 0 0 -80z"/>
<path d="M3840 800 l0 -80 80 0 80 0 0 80 0 80 -80 0 -80 0 0 -80z"/>
<path d="M4160 800 l0 -80 80 0 80 0 0 80 0 80 -80 0 -80 0 0 -80z"/>
<path d="M4480 800 l0 -80 80 0 80 0 0 80 0 80 -80 0 -80 0 0 -80z"/>
</g>
</svg>
