<?xml version="1.0" encoding="UTF-8"?>
<svg version="1.1" xmlns="http://www.w3.org/2000/svg" width="512" height="512">
<path d="M0 0 C2.05271907 -0.00542721 4.10543423 -0.01255322 6.15814209 -0.02124023 C11.70773707 -0.03940513 17.25703309 -0.03243427 22.806633 -0.01972389 C28.62842077 -0.00956077 34.45018382 -0.01899875 40.27197266 -0.02526855 C50.04659598 -0.03253532 59.82109821 -0.02298271 69.59570312 -0.00390625 C80.87873604 0.01786053 92.16147978 0.01080848 103.44450569 -0.01121187 C113.15100127 -0.02939351 122.85741005 -0.03191067 132.56391716 -0.0214572 C138.35281994 -0.01523748 144.14158702 -0.01434471 149.93048096 -0.02760315 C155.37418328 -0.03920123 160.8175146 -0.03106358 166.26117706 -0.00802612 C168.25290564 -0.00276016 170.2446657 -0.00421637 172.23638153 -0.01307678 C186.87930782 -0.07218669 198.54333907 0.91630268 209.6484375 11.51757812 C219.6016967 21.9438635 221.24844163 32.91178332 221.15637207 46.90910339 C221.16098828 48.44732718 221.16734601 49.98554655 221.17528105 51.5237568 C221.1918982 55.72496612 221.18376301 59.92580955 221.17133617 64.12701976 C221.16225687 68.6676054 221.1762695 73.2081297 221.18725586 77.748703 C221.20501371 86.63268501 221.20121367 95.51653161 221.1896053 104.40051886 C221.18056218 111.62083257 221.17935077 118.84110841 221.18370056 126.06142616 C221.18431349 127.09006037 221.18492643 128.11869458 221.18555793 129.17849952 C221.18683686 131.26828081 221.18813371 133.35806209 221.1894483 135.44784335 C221.20084564 155.02843641 221.18775277 174.60895448 221.16624683 194.18953524 C221.14836863 210.98731556 221.15148756 227.78498533 221.16992188 244.58276367 C221.19132973 264.09918913 221.1997555 283.61554897 221.18747282 303.13198453 C221.18619864 305.21304881 221.18494116 307.29411309 221.18370056 309.37517738 C221.18277491 310.91099507 221.18277491 310.91099507 221.18183056 312.47783938 C221.178378 319.69026638 221.1842038 326.90265171 221.19361877 334.11507225 C221.20483882 342.90322613 221.20179822 351.6912371 221.1804958 360.47937461 C221.16998673 364.96243703 221.16586124 369.4452612 221.17909241 373.92832184 C221.1910246 378.03332314 221.18444035 382.13786566 221.1631822 386.24282543 C221.15871973 387.72647381 221.16097449 389.21016107 221.17068535 390.69378438 C221.22933047 400.39914892 220.78189408 406.86743948 214.1484375 414.33007812 C211.01950771 417.06789169 208.39680967 419.18157429 204.5859375 420.89257812 C201.18171825 422.77576324 200.11333453 423.93671871 198.6484375 427.51757812 C198.31601387 431.17423809 198.39091937 433.80940327 199.6484375 437.26757812 C201.85913412 444.45234213 201.4494545 451.60559055 198.04296875 458.32226562 C193.24466282 465.87590129 186.99568461 471.96548292 178.8984375 475.83007812 C172.12453326 477.26301941 165.9401918 477.14362538 159.3984375 474.83007812 C156.02663829 473.69363705 154.06139992 473.25956044 150.7109375 474.58007812 C146.6732316 477.13454512 145.27471342 479.17962503 143.2734375 483.45507812 C139.9624791 489.69496127 134.35189197 494.2830933 127.6484375 496.51757812 C124.09089785 496.79955213 120.52841677 496.79517128 116.9609375 496.83007812 C115.99220703 496.85908203 115.02347656 496.88808594 114.02539062 496.91796875 C106.05506996 496.98802566 100.80790692 495.32599539 94.8359375 490.01757812 C92.09812394 486.88864834 89.98444133 484.2659503 88.2734375 480.45507812 C86.13981608 476.5981471 83.83287643 475.2785507 79.7421875 473.85351562 C77.1802839 473.44246393 75.96135146 473.95607225 73.5859375 474.95507812 C66.68791702 477.40166667 59.82416283 477.69564314 52.9609375 474.95507812 C49.74173571 473.32529193 47.5700298 471.5043984 45.07699966 468.91853619 C40.13767701 464.5453236 35.87061738 464.54461194 29.47894287 464.66474915 C28.37393157 464.65750688 27.26892027 464.65026462 26.13042378 464.64280289 C22.43741833 464.62696177 18.74657144 464.66088384 15.05371094 464.69458008 C12.40202801 464.69324009 9.75048893 464.68910467 7.09883118 464.68139648 C1.39278749 464.67016122 -4.31274839 464.6839783 -10.0187149 464.71453285 C-18.28149446 464.75838704 -26.54386607 464.75963914 -34.80673656 464.74992301 C-48.23109816 464.73491637 -61.65526739 464.74813329 -75.07958984 464.78198242 C-75.88237471 464.78399956 -76.68515958 464.7860167 -77.51227126 464.78809496 C-79.13691135 464.79218702 -80.76155144 464.79628091 -82.38619153 464.80037664 C-83.19156632 464.80240347 -83.99694111 464.8044303 -84.82672119 464.80651855 C-85.63273748 464.80855203 -86.43875377 464.8105855 -87.2691948 464.81268059 C-96.21347153 464.83480607 -105.15775569 464.84970186 -114.10205078 464.86206055 C-114.90263996 464.86317423 -115.70322913 464.86428791 -116.52807859 464.86543534 C-129.89870327 464.88341793 -143.26929872 464.88531006 -156.63993239 464.87827271 C-164.87682949 464.8749078 -173.1134251 464.88738199 -181.35025731 464.92067411 C-186.99940897 464.94278761 -192.64847083 464.95111091 -198.29766497 464.94882146 C-201.55195074 464.94806818 -204.8058011 464.95612554 -208.06002617 464.97756767 C-211.59831959 465.00000349 -215.13579673 464.99761477 -218.6741333 464.98945618 C-219.68816923 465.00199143 -220.70220517 465.01452669 -221.74696946 465.0274418 C-235.01286967 464.92920802 -248.85562473 459.36590571 -258.66796875 450.33007812 C-271.5110166 436.50368786 -276.09510046 421.60584416 -275.7265625 403.12695312 C-275.16930614 391.3210791 -270.79730746 381.67900928 -263.3515625 372.51757812 C-262.72507812 371.68484375 -262.09859375 370.85210937 -261.453125 369.99414062 C-253.77029401 360.94039556 -241.79088671 355.11218291 -230.3515625 352.51757812 C-226.59701018 352.26518323 -222.86292746 352.28293701 -219.1015625 352.33007812 C-217.61269531 352.33104492 -217.61269531 352.33104492 -216.09375 352.33203125 C-208.77431095 352.37666198 -208.77431095 352.37666198 -205.3515625 353.51757812 C-205.10019531 352.66292969 -204.84882813 351.80828125 -204.58984375 350.92773438 C-197.99447301 332.76445787 -182.1916047 319.24341496 -165.2890625 311.02929688 C-156.2464512 307.03783173 -147.50962834 304.47186617 -137.6015625 304.51757812 C-133.77265305 304.28167375 -132.0097354 304.14692593 -129.2109375 301.47070312 C-127.92311531 299.59849104 -126.68495804 297.69150803 -125.48828125 295.75976562 C-112.32749163 275.79001172 -88.11195421 262.93699735 -65.3125 257.83789062 C-60.56444474 256.90363716 -56.19586641 256.48594593 -51.3515625 256.51757812 C-51.35524967 255.36812808 -51.35893684 254.21867804 -51.36273575 253.03439617 C-51.44945783 225.71905758 -51.51536986 198.40373403 -51.55582382 171.08828593 C-51.56082635 167.72267541 -51.56600367 164.35706517 -51.57128906 160.99145508 C-51.5723383 160.32145217 -51.57338755 159.65144926 -51.57446858 158.96114323 C-51.59185084 148.12739756 -51.62337643 137.29373722 -51.66017368 126.46004208 C-51.69764392 115.33502579 -51.71951198 104.21004419 -51.72791648 93.08496648 C-51.7331252 86.83978971 -51.7453435 80.59480616 -51.77448273 74.34969139 C-51.80170717 68.46708502 -51.80999317 62.58475079 -51.80399323 56.7020874 C-51.80509031 54.54747856 -51.81300199 52.39286026 -51.8283844 50.23830605 C-51.93110306 35.10382509 -51.33287621 23.02077605 -40.3515625 11.51757812 C-28.40011162 0.10834808 -15.61524809 -0.06946649 0 0 Z M-29.6015625 25.95507812 C-35.32708048 32.98117069 -35.50266347 40.72422436 -35.47181702 49.43930054 C-35.47267144 50.3264744 -35.47352587 51.21364825 -35.47440618 52.12770617 C-35.4760505 55.09410995 -35.47055678 58.06045692 -35.46508789 61.02685547 C-35.46480577 63.15579222 -35.46496425 65.28472907 -35.4655304 67.41366577 C-35.46581739 73.18999428 -35.45993648 78.96630203 -35.45295644 84.74262571 C-35.44670659 90.78045261 -35.44611781 96.81827998 -35.44493103 102.85610962 C-35.44182254 114.28818864 -35.43361562 125.72025809 -35.42358154 137.1523329 C-35.41240547 150.1679426 -35.40690618 163.18355276 -35.40188611 176.19916606 C-35.39143262 202.97197538 -35.37384248 229.74477622 -35.3515625 256.51757812 C-30.0715625 257.17757812 -24.7915625 257.83757812 -19.3515625 258.51757812 C-19.34936266 256.856065 -19.34936266 256.856065 -19.34711838 255.16098595 C-19.31053868 228.2204956 -19.25110915 201.28012972 -19.16765976 174.33974266 C-19.12783451 161.31161668 -19.0954597 148.2835514 -19.08056641 135.25537109 C-19.06756799 123.9012537 -19.04064958 112.54726969 -18.99694943 101.19322741 C-18.97429401 95.18020477 -18.95865427 89.16734691 -18.95967865 83.1542778 C-18.96042284 77.49567748 -18.94256874 71.83744197 -18.91039467 66.178936 C-18.90186953 64.10127424 -18.90016339 62.02357168 -18.90575981 59.94589996 C-18.91238178 57.10993873 -18.89452212 54.27514428 -18.87054443 51.43930054 C-18.88218506 50.20484886 -18.88218506 50.20484886 -18.89406085 48.94545877 C-18.81546814 43.69779466 -17.91002218 40.62201002 -14.3515625 36.51757812 C-10.35137208 33.25452758 -6.63375777 33.0879086 -1.65345764 33.12989807 C-0.88571107 33.12451253 -0.1179645 33.119127 0.67304713 33.11357826 C3.24174922 33.09928801 5.80993676 33.1064049 8.37866211 33.11352539 C10.22186192 33.10782238 12.0650582 33.10085838 13.9082489 33.09272766 C18.91237919 33.07477358 23.91633433 33.07596887 28.92048717 33.08167005 C33.09802216 33.08475863 37.27552335 33.07867312 41.45305353 33.0726313 C51.30816776 33.0585803 61.16319531 33.06015217 71.01831055 33.0715332 C81.1856934 33.08301538 91.35281252 33.06893833 101.52016062 33.04213673 C110.24981353 33.01998645 118.97938361 33.01334083 127.70906264 33.01921314 C132.92278932 33.02258548 138.13634692 33.02014922 143.35004997 33.00296211 C148.25276447 32.9875058 153.15508797 32.99143398 158.05778694 33.01026726 C159.85649668 33.01395677 161.6552353 33.01083414 163.45391846 33.00038147 C165.91084681 32.98719427 168.36647645 32.99869792 170.823349 33.01637268 C171.88926495 33.00196517 171.88926495 33.00196517 172.97671455 32.9872666 C177.9844725 33.06131292 180.84240683 34.30007225 184.6484375 37.51757812 C188.77551261 42.11811834 188.0509046 47.61951763 187.99333191 53.46038818 C187.99483536 55.13561125 187.99483536 55.13561125 187.99636918 56.84467721 C187.99628853 60.594854 187.97491396 64.34461327 187.95385742 68.09472656 C187.94977778 70.78034368 187.94693317 73.46593326 187.94580078 76.15155029 C187.94131459 81.93935224 187.92678258 87.72705776 187.9063015 93.51482391 C187.87469725 102.66666213 187.87294336 111.81839296 187.87580872 120.97027588 C187.87640837 124.10276412 187.87679003 127.23525235 187.87708759 130.36774063 C187.87720596 131.54198326 187.87720596 131.54198326 187.87732672 132.73994796 C187.87775792 141.64857653 187.87143288 150.55719657 187.86254883 159.46582031 C187.86174445 160.28006046 187.86094008 161.0943006 187.86011133 161.93321469 C187.84639307 175.12504679 187.81318775 188.31678052 187.77542707 201.5085623 C187.73739856 215.058796 187.73009467 228.60882968 187.74870759 242.15910363 C187.75901769 250.51346478 187.7440016 258.8670135 187.69626168 267.22124818 C187.66561906 272.94902141 187.66404047 278.67633997 187.68513586 284.40415451 C187.69637704 287.70706702 187.69028502 291.00834615 187.65779305 294.31115723 C187.62449439 297.89753564 187.6405159 301.48048589 187.66862488 305.0668335 C187.64716674 306.10332716 187.62570859 307.13982082 187.6036002 308.20772338 C187.73169795 315.27785241 189.66224369 318.66498474 194.73757154 323.5729754 C199.13013356 328.04308908 199.80501392 333.06976501 199.9609375 339.14257812 C199.85173497 343.31526411 199.07804725 346.5861513 197.6484375 350.51757812 C197.21068405 355.50796747 197.47730744 358.55366554 200.6484375 362.51757812 C201.96073215 363.22475913 203.29240071 363.89839604 204.6484375 364.51757812 C204.6942189 323.39509461 204.72945872 282.27261442 204.75056816 241.15011052 C204.75306956 236.29481647 204.75565821 231.43952248 204.75830078 226.58422852 C204.7588254 225.61763012 204.75935002 224.65103173 204.75989054 223.65514248 C204.76859228 208.00575421 204.78436098 192.35638064 204.80274309 176.7070011 C204.82144857 160.64835233 204.8325556 144.58971127 204.83661449 128.53105205 C204.8393582 118.62265108 204.84802293 108.71429167 204.86427043 98.80590349 C204.8748453 92.01062377 204.87803698 85.21536552 204.87544025 78.42007817 C204.87415975 74.5000439 204.87611776 70.58008223 204.88684845 66.66006088 C204.89660971 63.06788057 204.89705382 59.47582139 204.89023529 55.88363539 C204.88899552 53.97554923 204.89759549 52.06746441 204.90660012 50.15939909 C204.87494854 41.04616443 204.64369969 32.80911322 198.6484375 25.51757812 C190.88122747 17.80584817 183.50174797 16.36073983 172.69841003 16.38386536 C171.52418227 16.38046702 171.52418227 16.38046702 170.32623273 16.37700003 C167.71250914 16.37068805 165.09883778 16.3714876 162.48510742 16.37231445 C160.60722283 16.36932121 158.72933886 16.3659183 156.85145569 16.36213684 C151.75632457 16.35330934 146.66121025 16.35095925 141.56607223 16.35032105 C138.38093819 16.34960983 135.19580841 16.34747413 132.01067543 16.34482384 C120.89342605 16.33557448 109.77618865 16.33148843 98.65893555 16.33227539 C88.304785 16.33287604 77.95068657 16.32232566 67.59654921 16.30653173 C58.69954343 16.29344528 49.80255466 16.28809196 40.90553933 16.2887308 C35.59508545 16.28898547 30.2846779 16.28615152 24.97423363 16.27555275 C19.97803451 16.26585324 14.98192584 16.26580532 9.9857235 16.27306938 C8.15601977 16.27411292 6.32631036 16.27176605 4.49661636 16.26570892 C1.99077757 16.25795326 -0.51475164 16.26265726 -3.02058411 16.27033997 C-3.73733789 16.2651964 -4.45409167 16.26005284 -5.19256526 16.25475341 C-15.09322496 16.32141378 -22.79465972 18.41007746 -29.6015625 25.95507812 Z M-3.3515625 48.51757812 C-3.3515625 64.35757813 -3.3515625 80.19757813 -3.3515625 96.51757812 C54.7284375 96.51757812 112.8084375 96.51757812 172.6484375 96.51757812 C172.6484375 80.67757812 172.6484375 64.83757812 172.6484375 48.51757812 C114.5684375 48.51757812 56.4884375 48.51757812 -3.3515625 48.51757812 Z M-3.3515625 112.51757812 C-3.3515625 128.35757813 -3.3515625 144.19757813 -3.3515625 160.51757812 C54.7284375 160.51757812 112.8084375 160.51757812 172.6484375 160.51757812 C172.6484375 144.67757812 172.6484375 128.83757812 172.6484375 112.51757812 C114.5684375 112.51757812 56.4884375 112.51757812 -3.3515625 112.51757812 Z M-3.3515625 176.51757812 C-3.3515625 192.35757813 -3.3515625 208.19757813 -3.3515625 224.51757812 C54.7284375 224.51757812 112.8084375 224.51757812 172.6484375 224.51757812 C172.6484375 208.67757812 172.6484375 192.83757812 172.6484375 176.51757812 C114.5684375 176.51757812 56.4884375 176.51757812 -3.3515625 176.51757812 Z M-3.3515625 240.51757812 C-3.3515625 248.43757812 -3.3515625 256.35757813 -3.3515625 264.51757812 C-0.9796875 265.63132812 1.3921875 266.74507813 3.8359375 267.89257812 C21.59781735 276.60297498 34.94750225 290.01059089 45.6484375 306.51757812 C46.97719371 308.52066248 48.31301531 310.51892612 49.6484375 312.51757812 C50.7415625 312.02257812 51.8346875 311.52757812 52.9609375 311.01757812 C60.30035618 308.26692565 67.39211802 308.8789165 74.6484375 311.51757812 C79.67429607 311.95844291 82.63042809 311.64269655 86.6484375 308.51757812 C88.62981604 306.30757899 89.75991074 304.27943074 91.0234375 301.58007812 C94.31186333 295.38266021 99.14461715 291.82912445 105.6484375 289.51757812 C109.33289448 288.96799186 112.92912681 288.95677196 116.6484375 289.01757812 C118.06769531 288.994375 118.06769531 288.994375 119.515625 288.97070312 C127.19032035 289.01322221 132.3989851 290.87267501 138.3359375 295.70507812 C140.86074801 298.7757936 142.64064023 301.8982184 144.4375 305.43164062 C146.41482344 308.83773972 147.88449085 310.26292924 151.6484375 311.51757812 C156.55488334 311.79530147 160.04792927 311.11367282 164.6484375 309.51757812 C167.2884375 309.18757813 169.9284375 308.85757813 172.6484375 308.51757812 C172.6484375 286.07757813 172.6484375 263.63757813 172.6484375 240.51757812 C114.5684375 240.51757812 56.4884375 240.51757812 -3.3515625 240.51757812 Z M-109.109375 302.00976562 C-110.58372008 303.61546995 -110.58372008 303.61546995 -111.3515625 306.51757812 C-110.39636719 306.88109375 -109.44117188 307.24460937 -108.45703125 307.61914062 C-91.50917802 314.16277279 -75.31352066 322.5260137 -65.3515625 338.51757812 C-66.70677827 342.58322545 -69.39191421 343.65265662 -72.9140625 345.70507812 C-73.52958984 346.07310547 -74.14511719 346.44113281 -74.77929688 346.8203125 C-76.29872359 347.72725713 -77.82455283 348.62345981 -79.3515625 349.51757812 C-79.61839844 348.93621094 -79.88523438 348.35484375 -80.16015625 347.75585938 C-86.56545966 335.72228937 -99.7432162 327.93299306 -112.17578125 323.51367188 C-127.37461251 319.02557192 -142.85243741 319.97449469 -157.3515625 326.51757812 C-158.24230469 326.91589844 -159.13304687 327.31421875 -160.05078125 327.72460938 C-176.26941117 335.75294687 -186.69481132 349.34343056 -192.44140625 366.29101562 C-193.30771975 369.36215276 -193.89863661 372.36139978 -194.3515625 375.51757812 C-195.393125 375.08445312 -196.4346875 374.65132813 -197.5078125 374.20507812 C-210.2821045 369.14163846 -222.67714715 366.52984156 -235.89453125 372.19726562 C-246.16279245 377.71502761 -254.06773637 386.18048707 -257.69140625 397.36523438 C-260.07464539 408.74555382 -259.04457598 419.96741913 -252.84375 429.94335938 C-246.32330305 438.96583829 -238.16769915 444.78043334 -227.3515625 447.51757812 C-221.13843161 448.46663856 -215.10119296 448.65693852 -208.82263184 448.63783264 C-207.26879595 448.63911428 -207.26879595 448.63911428 -205.68356943 448.64042181 C-202.22587744 448.64206386 -198.76823437 448.63657613 -195.31054688 448.63110352 C-192.82663982 448.63082134 -190.34273269 448.63097997 -187.85882568 448.63154602 C-182.51799393 448.63177346 -177.1771773 448.6289441 -171.83634949 448.62330818 C-164.11450613 448.61516502 -156.39266867 448.61257508 -148.67082149 448.61132019 C-136.14122139 448.60913409 -123.61162781 448.602486 -111.08203125 448.59301758 C-98.91406283 448.58383202 -86.74609619 448.57675678 -74.578125 448.57250977 C-73.8275039 448.57224704 -73.0768828 448.57198432 -72.30351561 448.57171363 C-68.53769474 448.57040855 -64.77187386 448.56914485 -61.00605297 448.56790173 C-29.78788473 448.55754289 1.43027539 448.53986203 32.6484375 448.51757812 C32.78121094 447.67453125 32.91398437 446.83148438 33.05078125 445.96289062 C33.22738281 444.8671875 33.40398437 443.77148438 33.5859375 442.64257812 C33.84697266 441.00675781 33.84697266 441.00675781 34.11328125 439.33789062 C34.6484375 436.51757812 34.6484375 436.51757812 35.6484375 434.51757812 C36.02610127 429.51353315 35.76044184 426.51872656 32.6484375 422.51757812 C29.09504785 419.3317805 24.77722164 417.40457152 20.3984375 415.58007812 C18.08645107 414.17637208 17.66363771 413.02173863 16.6484375 410.51757812 C16.143125 409.54046875 15.6378125 408.56335938 15.1171875 407.55664062 C13.02937325 402.6719551 13.1720282 397.81868493 13.2109375 392.58007812 C13.19095703 391.62939453 13.17097656 390.67871094 13.15039062 389.69921875 C13.15571065 381.97985835 14.9748662 376.80225144 19.8359375 370.83007812 C22.90665298 368.30526762 26.02907777 366.52537539 29.5625 364.72851562 C32.96859909 362.75119218 34.39378862 361.28152478 35.6484375 357.51757812 C35.85135229 353.93275011 35.88204244 351.1599917 34.6484375 347.76757812 C32.69504353 341.41904771 32.67427979 335.17567189 35.6484375 329.20507812 C36.92934383 325.82759398 36.71120304 324.68049731 35.3828125 321.23242188 C24.11880462 299.68904293 5.33721625 284.69371461 -17.3515625 276.51757812 C-51.51388465 266.10620375 -84.42817714 277.56475148 -109.109375 302.00976562 Z M107.6484375 306.51757812 C105.72980255 309.01761761 104.16519638 311.54497909 102.6875 314.32617188 C99.29740304 320.63175222 94.94494066 323.98380404 88.453125 326.75976562 C81.0554206 328.75858826 72.66113269 328.58031502 65.6484375 325.51757812 C60.51321605 325.32379618 57.93608903 326.76166902 54.2734375 330.14257812 C50.8925284 333.80522965 49.45465556 336.38235667 49.6484375 341.51757812 C49.97070312 342.26523437 50.29296875 343.01289063 50.625 343.78320312 C53.1152023 350.43641538 52.6994651 358.3609802 50.48046875 365.02539062 C46.98545135 372.33887177 43.14362782 376.3622148 35.9609375 380.14257812 C31.64483067 382.27349942 31.64483067 382.27349942 29.0234375 386.14257812 C28.18992216 391.4215086 27.79169647 396.84291098 30.6484375 401.51757812 C33.14847699 403.43621308 35.67583847 405.00081924 38.45703125 406.47851562 C45.76870684 410.40952401 49.00905923 415.84962134 51.6484375 423.51757812 C53.28485596 430.45175418 52.06650625 435.84252566 50.04296875 442.51367188 C49.27153793 445.8960993 49.124497 447.67897221 51.0078125 450.69335938 C53.87030375 454.03904893 56.89141981 457.18488436 60.6484375 459.51757812 C64.10401104 459.70013673 67.54110739 459.07124318 70.6484375 457.51757812 C81.05136105 456.46664339 88.84005241 457.42161638 97.6484375 463.51757812 C101.54845505 466.82992179 103.66333131 471.19283432 105.75390625 475.78320312 C106.8732494 477.95345796 107.96422847 479.2544208 110.2734375 480.14257812 C115.55236798 480.97609346 120.97377036 481.37431916 125.6484375 478.51757812 C127.56707245 476.01753864 129.13167862 473.49017716 130.609375 470.70898438 C133.99947196 464.40340403 138.35193434 461.05135221 144.84375 458.27539062 C152.2414544 456.27656799 160.63574231 456.45484123 167.6484375 459.51757812 C172.78365895 459.71136007 175.36078597 458.27348723 179.0234375 454.89257812 C182.4043466 451.2299266 183.84221944 448.65279958 183.6484375 443.51757812 C183.04195171 441.82808199 182.37003174 440.16120946 181.6484375 438.51757812 C179.81583494 429.50728221 181.36075578 421.4654479 186.09765625 413.55664062 C190.12006967 408.26772424 195.74795008 405.32733404 201.6484375 402.51757812 C204.78922219 399.37679344 204.62516065 397.00639189 204.8359375 392.58007812 C204.76525407 389.11659029 204.49330233 386.53644785 202.6484375 383.51757812 C200.14839801 381.59894317 197.62103653 380.03433701 194.83984375 378.55664062 C187.52816816 374.62563224 184.28781577 369.18553491 181.6484375 361.51757812 C180.01201904 354.58340207 181.23036875 349.19263059 183.25390625 342.52148438 C184.02533707 339.13905695 184.172378 337.35618404 182.2890625 334.34179688 C179.42657125 330.99610732 176.40545519 327.85027189 172.6484375 325.51757812 C169.19286396 325.33501952 165.75576761 325.96391307 162.6484375 327.51757812 C152.24551395 328.56851286 144.45682259 327.61353987 135.6484375 321.51757812 C131.74841995 318.20523446 129.63354369 313.84232193 127.54296875 309.25195312 C126.4236256 307.08169829 125.33264653 305.78073545 123.0234375 304.89257812 C117.74450702 304.05906279 112.32310464 303.66083709 107.6484375 306.51757812 Z " fill="#000000" transform="translate(283.3515625,7.482421875)"/>
<path d="M0 0 C5.92984391 3.55790635 9.41212592 8.64679981 12.56152344 14.72436523 C13.14182312 15.84000351 13.7221228 16.95564178 14.32000732 18.10508728 C14.94086989 19.31565537 15.56073822 20.5267338 16.1796875 21.73828125 C16.65410152 22.66502498 16.65410152 22.66502498 17.13809967 23.6104908 C18.81200791 26.88424574 20.47751703 30.16213148 22.13720703 33.44311523 C23.50075925 36.13477429 24.88021479 38.81726486 26.27490234 41.49291992 C27.97137663 44.74754703 29.63898268 48.01552207 31.28778839 51.29454231 C31.91453319 52.529934 32.55064531 53.7606266 33.19689178 54.98592949 C37.76764699 63.67905133 39.85192716 71.19431477 38.4453125 81.0546875 C35.68583336 87.95164458 31.01861425 91.76803663 24.4453125 95.0546875 C21.1453125 95.0546875 17.8453125 95.0546875 14.4453125 95.0546875 C14.4453125 134.6546875 14.4453125 174.2546875 14.4453125 215.0546875 C9.1653125 215.0546875 3.8853125 215.0546875 -1.5546875 215.0546875 C-1.5546875 170.1746875 -1.5546875 125.2946875 -1.5546875 79.0546875 C4.7153125 78.7246875 10.9853125 78.3946875 17.4453125 78.0546875 C18.4353125 77.7246875 19.4253125 77.3946875 20.4453125 77.0546875 C20.69583214 72.52538806 20.12632774 69.67126222 18.09033203 65.63183594 C17.57624786 64.59766541 17.0621637 63.56349487 16.53250122 62.49798584 C15.68883499 60.84769379 15.68883499 60.84769379 14.828125 59.1640625 C14.25577118 58.0231012 13.68341736 56.88213989 13.09371948 55.706604 C11.88357699 53.2997488 10.6692808 50.89565151 9.44677734 48.49511719 C7.87996927 45.41821624 6.32724109 42.33448644 4.77951241 39.24795151 C3.3007684 36.3007698 1.81453853 33.35738182 0.328125 30.4140625 C-0.23027069 29.30577087 -0.78866638 28.19747925 -1.36398315 27.05560303 C-1.88437164 26.03404114 -2.40476013 25.01247925 -2.94091797 23.95996094 C-3.39836395 23.05872498 -3.85580994 22.15748901 -4.32711792 21.22894287 C-5.49219341 18.93844837 -5.49219341 18.93844837 -7.5546875 17.0546875 C-10.02608093 16.7965986 -10.02608093 16.7965986 -12.5546875 18.0546875 C-14.24062225 20.53605387 -15.5126074 22.80887555 -16.8046875 25.4921875 C-17.20800293 26.2968042 -17.61131836 27.1014209 -18.02685547 27.93041992 C-18.97434651 29.82420092 -19.91427472 31.72177542 -20.84863281 33.62207031 C-22.47658675 36.89754719 -24.1394902 40.15219823 -25.81567383 43.40312195 C-27.38667853 46.45285083 -28.94611432 49.50841449 -30.50378418 52.56497192 C-31.28565044 54.095731 -32.07087403 55.62478003 -32.85949707 57.15206909 C-33.98075914 59.3286175 -35.08583677 61.51269877 -36.1875 63.69921875 C-36.5276413 64.35175629 -36.86778259 65.00429382 -37.2182312 65.67660522 C-39.19186589 69.64108148 -39.92084886 72.63483957 -39.5546875 77.0546875 C-32.56898782 79.38325406 -24.9080838 78.66766664 -17.5546875 79.0546875 C-17.5546875 123.9346875 -17.5546875 168.8146875 -17.5546875 215.0546875 C-22.8346875 215.0546875 -28.1146875 215.0546875 -33.5546875 215.0546875 C-33.5546875 175.4546875 -33.5546875 135.8546875 -33.5546875 95.0546875 C-36.8546875 95.0546875 -40.1546875 95.0546875 -43.5546875 95.0546875 C-50.06641016 91.79882617 -54.70786877 87.92001469 -57.5546875 81.0546875 C-59.08593998 70.22793247 -56.16256911 62.23642539 -51.23828125 52.7734375 C-50.58045164 51.46360413 -49.92465315 50.15274894 -49.27076721 48.84094238 C-47.90505853 46.11590681 -46.5211182 43.40129796 -45.12182617 40.69335938 C-43.33868992 37.24082371 -41.59532389 33.77001992 -39.86415005 30.2911911 C-38.51681965 27.59091003 -37.15323638 24.89910907 -35.78428841 22.20973206 C-35.13571085 20.93283521 -34.49107728 19.65392635 -33.85067558 18.37290955 C-26.90634221 4.54615323 -16.99144142 -6.28735294 0 0 Z " fill="#000000" transform="translate(65.5546875,112.9453125)"/>
<path d="M0 0 C5.28 0 10.56 0 16 0 C16 44.88 16 89.76 16 136 C9.73 136.33 3.46 136.66 -3 137 C-3.99 137.33 -4.98 137.66 -6 138 C-6.25051964 142.52929944 -5.68101524 145.38342528 -3.64501953 149.42285156 C-2.87389328 150.97410736 -2.87389328 150.97410736 -2.08718872 152.55670166 C-1.52474457 153.65689636 -0.96230042 154.75709106 -0.3828125 155.890625 C0.18954132 157.0315863 0.76189514 158.17254761 1.35159302 159.3480835 C2.56173551 161.7549387 3.7760317 164.15903599 4.99853516 166.55957031 C6.56534323 169.63647126 8.11807141 172.72020106 9.66580009 175.80673599 C11.1445441 178.7539177 12.63077397 181.69730568 14.1171875 184.640625 C14.67558319 185.74891663 15.23397888 186.85720825 15.80929565 187.99908447 C16.32968414 189.02064636 16.85007263 190.04220825 17.38623047 191.09472656 C18.07239944 192.44658051 18.07239944 192.44658051 18.77243042 193.82574463 C19.93750591 196.11623913 19.93750591 196.11623913 22 198 C24.47139343 198.2580889 24.47139343 198.2580889 27 197 C28.68593475 194.51863363 29.9579199 192.24581195 31.25 189.5625 C31.65331543 188.7578833 32.05663086 187.9532666 32.47216797 187.12426758 C33.41965901 185.23048658 34.35958722 183.33291208 35.29394531 181.43261719 C36.92189925 178.15714031 38.5848027 174.90248927 40.26098633 171.65156555 C41.83199103 168.60183667 43.39142682 165.54627301 44.94909668 162.48971558 C45.73096294 160.9589565 46.51618653 159.42990747 47.30480957 157.90261841 C48.42607164 155.72607 49.53114927 153.54198873 50.6328125 151.35546875 C50.9729538 150.70293121 51.31309509 150.05039368 51.6635437 149.37808228 C53.63717839 145.41360602 54.36616136 142.41984793 54 138 C47.01430032 135.67143344 39.3533963 136.38702086 32 136 C32 91.12 32 46.24 32 0 C37.28 0 42.56 0 48 0 C48 39.6 48 79.2 48 120 C51.3 120 54.6 120 58 120 C64.51172266 123.25586133 69.15318127 127.13467281 72 134 C73.53125248 144.82675503 70.60788161 152.81826211 65.68359375 162.28125 C65.02576414 163.59108337 64.36996565 164.90193856 63.71607971 166.21374512 C62.35037103 168.93878069 60.9664307 171.65338954 59.56713867 174.36132812 C57.78400242 177.81386379 56.04063639 181.28466758 54.30946255 184.7634964 C52.96213215 187.46377747 51.59854888 190.15557843 50.22960091 192.84495544 C49.58102335 194.12185229 48.93638978 195.40076115 48.29598808 196.68177795 C43.98119907 205.27288858 40.01349684 212.02066531 31 216 C23.57968823 216.86813992 16.88125332 217.02397012 10.6484375 212.58203125 C6.8884689 208.97353058 4.26971083 204.93456659 1.88378906 200.33032227 C1.30348938 199.21468399 0.7231897 198.09904572 0.12530518 196.94960022 C-0.49555739 195.73903213 -1.11542572 194.5279537 -1.734375 193.31640625 C-2.05065102 192.6985771 -2.36692703 192.08074795 -2.69278717 191.4441967 C-4.36669541 188.17044176 -6.03220453 184.89255602 -7.69189453 181.61157227 C-9.05544675 178.91991321 -10.43490229 176.23742264 -11.82958984 173.56176758 C-13.52606413 170.30714047 -15.19367018 167.03916543 -16.84247589 163.76014519 C-17.46922069 162.5247535 -18.10533281 161.2940609 -18.75157928 160.06875801 C-23.32233449 151.37563617 -25.40661466 143.86037273 -24 134 C-21.24052086 127.10304292 -16.57330175 123.28665087 -10 120 C-6.7 120 -3.4 120 0 120 C0 80.4 0 40.8 0 0 Z " fill="#000000" transform="translate(144,24)"/>
<path d="M0 0 C2.44225447 1.66159248 4.74768159 3.38773224 7.0390625 5.25 C7.87179687 5.87648438 8.70453125 6.50296875 9.5625 7.1484375 C18.76036546 14.95356624 26.15845232 28.59050337 27.26025391 40.67626953 C27.73579386 51.65011278 27.93683722 62.18235196 23.0390625 72.25 C22.58015625 73.21164062 22.12125 74.17328125 21.6484375 75.1640625 C13.91897924 90.25684678 1.74462952 98.78970206 -14.12109375 104.359375 C-26.20509403 107.16217466 -40.75813646 106.70001132 -51.9609375 101.25 C-52.92257812 100.79109375 -53.88421875 100.3321875 -54.875 99.859375 C-69.95673947 92.13557311 -78.53387692 79.95237876 -84.06640625 64.078125 C-87.48632329 49.44267215 -85.88294958 33.26983294 -78.2109375 20.2890625 C-76.54934502 17.84680803 -74.82320526 15.54138091 -72.9609375 13.25 C-72.33445312 12.41726563 -71.70796875 11.58453125 -71.0625 10.7265625 C-54.23488249 -9.10375256 -21.90682862 -12.94757154 0 0 Z M-60.7734375 25.5 C-67.86771815 35.31650462 -69.11450278 45.46460626 -67.9609375 57.25 C-65.70335841 68.03027414 -59.21637602 76.36109065 -50.38671875 82.7421875 C-40.41077851 88.94301348 -29.1889132 89.97308289 -17.80859375 87.58984375 C-6.62384645 83.96617387 1.84161302 76.06122995 7.359375 65.79296875 C11.41050101 56.34506299 11.6392523 45.07439536 8.4765625 35.3125 C3.89997856 24.63913815 -4.35007565 16.38908394 -15.0234375 11.8125 C-32.44033139 6.16971951 -49.16703539 11.72509814 -60.7734375 25.5 Z " fill="#000000" transform="translate(428.9609375,350.75)"/>
<path d="M0 0 C12.75257463 7.44545617 23.03427549 18.82097126 29.36474609 32.09912109 C29.65969971 32.7169043 29.95465332 33.3346875 30.25854492 33.97119141 C32.14639048 38.17239157 32.96792644 41.88238043 33.42724609 46.41162109 C31.53339172 46.91906533 29.63705943 47.41726683 27.73974609 47.91162109 C26.68400391 48.19005859 25.62826172 48.46849609 24.54052734 48.75537109 C21.71581937 49.3507926 19.29887901 49.53948601 16.42724609 49.41162109 C16.17072266 48.61240234 15.91419922 47.81318359 15.64990234 46.98974609 C10.45347086 32.08281133 1.54309257 21.07362529 -12.70166016 13.81787109 C-25.37824522 8.46726341 -38.08543969 7.87377633 -51.57275391 9.41162109 C-52.08081838 7.68480673 -52.57885858 5.9550413 -53.07275391 4.22412109 C-53.49041016 2.77972656 -53.49041016 2.77972656 -53.91650391 1.30615234 C-54.53952998 -1.44183767 -54.69578202 -3.78436307 -54.57275391 -6.58837891 C-37.87469702 -13.72430065 -15.22574942 -8.28523686 0 0 Z " fill="#000000" transform="translate(276.57275390625,304.58837890625)"/>
<path d="M0 0 C5.82485779 3.51996782 10.54466582 8.98962934 12.5625 15.5 C13.36764105 23.33608208 13.68710392 31.11922577 8.5625 37.5 C3.75801361 42.54521222 -0.59927055 46.10562995 -7.70703125 46.8359375 C-16.22326573 46.92983204 -22.11345494 46.6177288 -28.40234375 40.62890625 C-34.7841668 33.72505269 -35.91792252 28.29832071 -35.7421875 18.9453125 C-35.04689797 11.08319245 -31.38995981 6.95041296 -25.53515625 1.9453125 C-18.47077988 -2.92213491 -7.84396301 -3.47595223 0 0 Z M-16.8125 17.125 C-18.92456506 20.21186432 -19.04945145 21.8282913 -18.4375 25.5 C-16.9375 28 -16.9375 28 -14.4375 29.5 C-10.7657913 30.11195145 -9.14936432 29.98706506 -6.0625 27.875 C-3.95043494 24.78813568 -3.82554855 23.1717087 -4.4375 19.5 C-5.9375 17 -5.9375 17 -8.4375 15.5 C-12.1092087 14.88804855 -13.72563568 15.01293494 -16.8125 17.125 Z " fill="#000000" transform="translate(411.4375,377.5)"/>
<path d="M0 0 C4.28296922 3.19665877 8.07652537 6.75368989 11.6875 10.6875 C10.39182828 14.57451516 8.60946949 15.49962435 5.3125 17.875 C3.84683594 18.94814453 3.84683594 18.94814453 2.3515625 20.04296875 C-0.3125 21.6875 -0.3125 21.6875 -3.3125 21.6875 C-4.6568255 20.02968683 -5.9886157 18.36168216 -7.3125 16.6875 C-15.92472923 10.36546549 -25.03095073 9.15860694 -35.3125 10.6875 C-42.80277503 13.08607122 -49.21180826 16.84872882 -53.3125 23.6875 C-55.13988099 27.29353182 -56.78338607 30.94590707 -58.3125 34.6875 C-64.0934725 34.05684845 -69.6568706 33.03594868 -75.3125 31.6875 C-71.86990997 18.04543515 -65.40730256 7.03338811 -53.625 -1 C-37.09821421 -10.4707577 -15.9917775 -10.613377 0 0 Z " fill="#000000" transform="translate(179.3125,351.3125)"/>
<path d="M0 0 C5.28 0 10.56 0 16 0 C16 5.28 16 10.56 16 16 C10.72 16 5.44 16 0 16 C0 10.72 0 5.44 0 0 Z " fill="#000000" transform="translate(424,264)"/>
<path d="M0 0 C5.28 0 10.56 0 16 0 C16 5.28 16 10.56 16 16 C10.72 16 5.44 16 0 16 C0 10.72 0 5.44 0 0 Z " fill="#000000" transform="translate(392,264)"/>
<path d="M0 0 C5.28 0 10.56 0 16 0 C16 5.28 16 10.56 16 16 C10.72 16 5.44 16 0 16 C0 10.72 0 5.44 0 0 Z " fill="#000000" transform="translate(328,200)"/>
<path d="M0 0 C5.28 0 10.56 0 16 0 C16 5.28 16 10.56 16 16 C10.72 16 5.44 16 0 16 C0 10.72 0 5.44 0 0 Z " fill="#000000" transform="translate(296,200)"/>
<path d="M0 0 C5.28 0 10.56 0 16 0 C16 5.28 16 10.56 16 16 C10.72 16 5.44 16 0 16 C0 10.72 0 5.44 0 0 Z " fill="#000000" transform="translate(424,136)"/>
<path d="M0 0 C5.28 0 10.56 0 16 0 C16 5.28 16 10.56 16 16 C10.72 16 5.44 16 0 16 C0 10.72 0 5.44 0 0 Z " fill="#000000" transform="translate(392,136)"/>
<path d="M0 0 C5.28 0 10.56 0 16 0 C16 5.28 16 10.56 16 16 C10.72 16 5.44 16 0 16 C0 10.72 0 5.44 0 0 Z " fill="#000000" transform="translate(328,72)"/>
<path d="M0 0 C5.28 0 10.56 0 16 0 C16 5.28 16 10.56 16 16 C10.72 16 5.44 16 0 16 C0 10.72 0 5.44 0 0 Z " fill="#000000" transform="translate(296,72)"/>
</svg>
