<?xml version="1.0" encoding="UTF-8"?>
<svg version="1.1" xmlns="http://www.w3.org/2000/svg" width="512" height="512">
<path d="M0 0 C0.89797269 -0.00367669 1.79594538 -0.00735338 2.72112936 -0.01114148 C5.74259437 -0.0221909 8.764025 -0.02602433 11.7855072 -0.02983093 C13.94703786 -0.03609473 16.10856743 -0.04274145 18.27009583 -0.04974365 C24.15262967 -0.06716328 30.03515538 -0.07770847 35.91770864 -0.08594918 C39.59313489 -0.09109827 43.26855861 -0.09717411 46.94398308 -0.10346031 C58.44390438 -0.12251678 69.94381924 -0.13674584 81.4437533 -0.14507228 C94.71720755 -0.15484137 107.99049489 -0.18115057 121.26389033 -0.22157317 C131.523047 -0.25174347 141.78215586 -0.26654211 152.04135603 -0.26985329 C158.16851573 -0.27220309 164.29549722 -0.28115445 170.42260933 -0.30631447 C176.19035881 -0.32961538 181.95781301 -0.3338201 187.72559738 -0.32355309 C189.83869726 -0.32305808 191.95181176 -0.32936802 194.06486702 -0.34310913 C207.4824357 -0.42545638 218.35043613 -0.39273676 228.62510681 9.27998352 C233.38887551 14.5388321 235.42820965 19.97489969 235.46368408 27.00939941 C235.47441704 28.47482178 235.47441704 28.47482178 235.48536682 29.96984863 C235.48805573 31.03536453 235.49074463 32.10088043 235.49351501 33.19868469 C235.50008621 34.32597992 235.50665741 35.45327515 235.51342773 36.61473083 C235.53315026 40.34820116 235.54482125 44.08163127 235.55479431 47.81513977 C235.55886984 49.09104792 235.56294537 50.36695606 235.56714439 51.68152809 C235.58585126 57.73903767 235.60041765 63.79652293 235.60875636 69.85405368 C235.61851873 76.82927948 235.64481614 83.8041871 235.68525726 90.77930087 C235.71914878 96.83412948 235.73090896 102.88880457 235.73496056 108.94373512 C235.73982665 111.51249155 235.7514412 114.08124458 235.76999855 116.64993858 C235.79438823 120.24977697 235.79342462 123.84878869 235.78648376 127.44868469 C235.80569885 129.03177681 235.80569885 129.03177681 235.82530212 130.64685059 C235.76198957 139.68305368 233.24626577 146.85803736 227.08995056 153.57685852 C222.52336497 157.62039907 217.3503095 160.27447328 211.31651306 161.14717102 C210.21935974 161.04275696 209.12220642 160.9383429 207.99180603 160.83076477 C200.94276853 160.3752301 196.25053609 160.99573553 190.67295837 165.58467102 C185.65791268 170.17992313 181.05039373 175.15053974 176.44151306 180.14717102 C174.80062551 181.8719989 173.15611901 183.59339158 171.50791931 185.31123352 C167.90925355 189.06488998 164.3474419 192.84993874 160.8160553 196.66694641 C158.70127828 198.75448013 157.47772406 199.12567622 154.50401306 199.52217102 C151.31651306 199.14717102 151.31651306 199.14717102 148.64781189 197.10542297 C145.7888794 193.47764153 145.66346914 190.86486065 145.82823181 186.44013977 C145.83326721 185.79645447 145.83830261 185.15276917 145.8434906 184.48957825 C145.8694879 182.10415068 145.93929571 179.71936224 146.00401306 177.33467102 C146.10713806 171.99279602 146.21026306 166.65092102 146.31651306 161.14717102 C125.85651306 161.14717102 105.39651306 161.14717102 84.31651306 161.14717102 C84.31651306 170.71717102 84.31651306 180.28717102 84.31651306 190.14717102 C78.90487065 195.55881343 78.90487065 195.55881343 73.81651306 197.20967102 C68.90074406 199.28330404 67.24839033 201.23351978 65.19151306 206.14717102 C64.50020193 208.12522914 63.8701181 210.12624389 63.31651306 212.14717102 C63.07288025 213.00568665 62.82924744 213.86420227 62.57823181 214.74873352 C62.25903349 217.67392415 62.87627433 218.95224759 64.25401306 221.52217102 C66.20393397 225.67605182 67.24591268 228.50017292 66.31651306 233.14717102 C64.37328902 236.19789687 61.8766649 238.60773239 59.31651306 241.14717102 C58.21917384 242.26730061 57.12290019 243.38847466 56.02745056 244.51045227 C45.70626161 255.00535994 45.70626161 255.00535994 41.25401306 255.45967102 C37.50108179 255.16181933 36.12514982 254.654637 32.94151306 252.95967102 C29.41338994 251.2673679 27.55385413 250.91658311 23.81651306 252.14717102 C22.31145727 252.80234391 20.81147534 253.46928295 19.31651306 254.14717102 C18.52760681 254.37275696 17.73870056 254.5983429 16.92588806 254.83076477 C12.86524908 256.12828683 10.86658095 257.13661373 8.78135681 260.96748352 C7.95027093 263.07696757 7.18062561 265.2120482 6.48448181 267.36982727 C5.12917667 270.59264317 4.32141623 271.42409922 1.31651306 273.14717102 C-3.09330003 273.72217508 -7.51298885 273.66230607 -11.95521545 273.64814758 C-14.11144116 273.64717532 -16.26410308 273.68880801 -18.41981506 273.73310852 C-19.79806289 273.73831637 -21.17632302 273.7410037 -22.55458069 273.74092102 C-23.80166809 273.74801086 -25.04875549 273.75510071 -26.33363342 273.7624054 C-30.56598867 272.98509068 -32.01672307 271.44884935 -34.68348694 268.14717102 C-35.66004944 265.64717102 -35.66004944 265.64717102 -36.30848694 263.14717102 C-37.51597986 259.79413284 -38.23047566 258.44640783 -41.23817444 256.45967102 C-44.02137524 255.21941178 -46.81137046 254.16085919 -49.68348694 253.14717102 C-50.40922913 252.77205383 -51.13497131 252.39693665 -51.88270569 252.01045227 C-54.51362147 250.74921065 -55.91523886 251.31025881 -58.68348694 252.14717102 C-59.77661194 252.66279602 -60.86973694 253.17842102 -61.99598694 253.70967102 C-66.16349532 255.33429293 -69.3486529 256.39978257 -73.68348694 255.14717102 C-77.59159916 252.26303829 -80.81296292 248.81458388 -84.12098694 245.27217102 C-85.48513733 243.86644836 -85.48513733 243.86644836 -86.87684631 242.43232727 C-94.548679 234.46828886 -94.548679 234.46828886 -94.99598694 230.08467102 C-94.65259052 225.7578761 -93.45844235 223.04717068 -91.46083069 219.26045227 C-90.50329574 216.65730449 -90.79502541 215.74568217 -91.68348694 213.14717102 C-91.91422913 212.16103821 -92.14497131 211.1749054 -92.38270569 210.15888977 C-93.93075945 204.95179984 -95.22880602 200.69993497 -100.05848694 197.84638977 C-102.52085536 196.58951933 -105.0348015 195.53750754 -107.60145569 194.51435852 C-110.68348694 193.14717102 -110.68348694 193.14717102 -112.68348694 190.14717102 C-112.68348694 182.88717102 -112.68348694 175.62717102 -112.68348694 168.14717102 C-131.49348694 168.14717102 -150.30348694 168.14717102 -169.68348694 168.14717102 C-169.52540768 178.82775534 -169.52540768 178.82775534 -169.32313538 189.50752258 C-169.31144804 190.85093412 -169.30125632 192.19435987 -169.29286194 193.53779602 C-169.27239807 194.22986145 -169.2519342 194.92192688 -169.23085022 195.63496399 C-169.22840913 199.01586872 -169.44013989 200.82336351 -171.4969635 203.56025696 C-174.6240746 205.82982174 -176.83553008 206.14717102 -180.68348694 206.14717102 C-186.12459665 203.16531994 -189.91120991 198.94685711 -194.05848694 194.39717102 C-195.48229118 192.88091196 -196.90678946 191.36530438 -198.33192444 189.85029602 C-201.19264829 186.78678346 -203.97535313 183.6719401 -206.72254944 180.50654602 C-214.29829879 171.56882683 -214.29829879 171.56882683 -224.93934631 167.90644836 C-226.95483363 167.89735666 -228.97015487 167.97064642 -230.98426819 168.04560852 C-238.31787751 168.24695366 -244.39921194 165.49340248 -250.05848694 160.95967102 C-255.36461958 155.90413602 -259.37331077 149.33438425 -259.81770802 141.90253258 C-259.8219815 141.07853273 -259.82625498 140.25453289 -259.83065796 139.40556335 C-259.83781326 138.45530273 -259.84496857 137.50504211 -259.8523407 136.52598572 C-259.85637405 134.97214676 -259.85637405 134.97214676 -259.86048889 133.38691711 C-259.86706009 132.29048889 -259.87363129 131.19406067 -259.88040161 130.06440735 C-259.90012349 126.43314037 -259.91179566 122.80191475 -259.92176819 119.17060852 C-259.92584372 117.92904621 -259.92991924 116.6874839 -259.93411827 115.40829849 C-259.95282592 109.51257362 -259.9673915 103.61686185 -259.97573024 97.72111452 C-259.98548736 90.93606623 -260.0117704 84.1513455 -260.05223113 77.36641252 C-260.08615255 71.4739144 -260.09788537 65.58152508 -260.10193443 59.68893814 C-260.10679623 57.19078477 -260.11839849 54.6926348 -260.13697243 52.19454575 C-260.16140224 48.69069857 -260.16039112 45.18769895 -260.15345764 41.68379211 C-260.1662677 40.66004486 -260.17907776 39.63629761 -260.192276 38.58152771 C-260.12318833 28.95855249 -257.39437698 20.99434635 -250.74989319 13.90498352 C-244.19474314 8.32876892 -236.91585626 6.02935373 -228.46128845 6.00672913 C-227.18287582 6.00101898 -225.9044632 5.99530884 -224.58731079 5.98942566 C-223.17259226 5.98818036 -221.75787362 5.98705525 -220.34315491 5.98603821 C-218.85141884 5.98140816 -217.35968395 5.97638324 -215.86795044 5.97099304 C-211.81599264 5.95788207 -207.7640514 5.95142622 -203.71207571 5.94698238 C-201.17788693 5.94404858 -198.64370265 5.93994311 -196.10951614 5.93547821 C-188.17308507 5.92180456 -180.23666431 5.91213817 -172.30022228 5.90827632 C-163.15339527 5.9038006 -154.00671807 5.88627477 -144.85993659 5.85727572 C-137.78119888 5.83561632 -130.70250317 5.82556971 -123.62373269 5.8242352 C-119.40026405 5.8231899 -115.17693626 5.8173413 -110.95350266 5.79941559 C-106.97586437 5.78286186 -102.99847167 5.78081455 -99.02081108 5.7895546 C-97.56724957 5.79032117 -96.11367446 5.7860327 -94.66014671 5.77609634 C-83.61844998 5.70509074 -73.48844738 6.32171014 -64.88432312 13.88624573 C-57.56836853 21.40194676 -55.92672939 30.24512245 -56.00370789 40.33180237 C-56.03432917 41.83798047 -56.06562482 43.34414498 -56.09754944 44.85029602 C-56.10876844 46.42496609 -56.11729581 47.9996574 -56.12327576 49.57435608 C-56.14596237 53.67819635 -56.20470384 57.78072084 -56.27149963 61.88404846 C-56.33336406 66.08746043 -56.36038404 70.29108929 -56.39051819 74.49482727 C-56.45447322 82.71287266 -56.55659898 90.92985725 -56.68348694 99.14717102 C-53.90196922 98.09485705 -51.13150311 97.0222637 -48.36317444 95.93623352 C-47.57644348 95.64111877 -46.78971252 95.34600403 -45.97914124 95.04194641 C-41.30085589 93.19066529 -41.30085589 93.19066529 -37.73817444 89.73310852 C-36.76341413 87.56616792 -36.76341413 87.56616792 -36.25379944 85.35810852 C-35.68348694 83.14717102 -35.68348694 83.14717102 -34.17089844 80.85009766 C-32.50577584 77.82423412 -32.31107301 76.11191995 -32.31459045 72.68940735 C-32.30770706 71.62092056 -32.30082367 70.55243378 -32.29373169 69.4515686 C-32.30296913 67.73274727 -32.30296913 67.73274727 -32.31239319 65.97920227 C-32.29500409 63.53453946 -32.27741978 61.08987803 -32.25965881 58.6452179 C-32.24960851 54.80526603 -32.24598438 50.96540695 -32.24769592 47.1254425 C-32.24410819 43.40975116 -32.21669177 39.69476694 -32.18739319 35.97920227 C-32.19557571 34.84344254 -32.20375824 33.7076828 -32.21218872 32.5375061 C-32.12488298 23.10493743 -30.07777654 14.76474647 -23.53114319 7.68232727 C-16.51674687 1.8542982 -8.88526458 -0.00194011 0 0 Z M-13.54017639 23.18305969 C-15.36213915 27.90662362 -15.04916978 32.55804474 -14.97645569 37.57295227 C-14.97221085 38.67567978 -14.967966 39.77840729 -14.96359253 40.91455078 C-14.94682599 44.42984125 -14.90917645 47.94455438 -14.87098694 51.45967102 C-14.85593753 53.84573044 -14.84224957 56.23179886 -14.82997131 58.61787415 C-14.79692906 64.46116944 -14.7467493 70.30412898 -14.68348694 76.14717102 C-11.93385354 76.42333507 -9.18715036 76.66881844 -6.43348694 76.89717102 C-5.65618225 76.97838196 -4.87887756 77.0595929 -4.07801819 77.14326477 C0.70006622 77.58369849 0.70006622 77.58369849 4.73838806 75.22529602 C5.51955994 74.19662415 5.51955994 74.19662415 6.31651306 73.14717102 C9.30013151 71.65536179 12.35072192 72.00278264 15.62261963 72.00672913 C16.7653276 72.00227244 16.7653276 72.00227244 17.93112057 71.99772573 C20.4975026 71.989017 23.06383811 71.98752865 25.63023376 71.98603821 C27.4647583 71.98141156 29.29928188 71.97638711 31.13380432 71.97099304 C36.12766363 71.95785201 41.12150948 71.95142073 46.11538339 71.94698238 C49.23346085 71.94405432 52.35153461 71.93995001 55.46961021 71.93547821 C65.21981836 71.9217986 74.97001808 71.9121343 84.72023517 71.90827632 C95.98560899 71.9037947 107.25086152 71.88624391 118.51619846 71.85727572 C127.2168844 71.83567702 135.91753617 71.825573 144.61824864 71.8242352 C149.81799837 71.82318584 155.01763416 71.81725034 160.21735573 71.79941559 C165.10846171 71.78296629 169.99936774 71.78076411 174.89049149 71.7895546 C176.68639981 71.79032667 178.48231875 71.78595995 180.27820015 71.77609634 C182.72885818 71.76342521 185.17880285 71.76922701 187.62945557 71.77967834 C188.34113445 71.77162194 189.05281334 71.76356554 189.78605825 71.755265 C194.11081477 71.79843837 196.91175567 72.42776076 200.31651306 75.14717102 C201.52180173 79.10740522 201.3685759 82.17271141 200.31651306 86.14717102 C196.74562167 87.33746815 193.49736796 87.30038643 189.78057861 87.3053894 C188.61904661 87.31279637 188.61904661 87.31279637 187.43404931 87.32035297 C184.83147757 87.33574807 182.22893054 87.34409404 179.62632751 87.35249329 C177.7638375 87.36207023 175.90134967 87.3720802 174.03886414 87.38249207 C168.97516763 87.40956711 163.91146177 87.4305626 158.84773278 87.45049405 C153.55859686 87.47233757 148.26948983 87.49973425 142.9803772 87.52655029 C132.96131575 87.5764993 122.94223829 87.62142994 112.92314547 87.66457266 C101.51819522 87.71392617 90.11327396 87.76885129 78.70835173 87.82425225 C55.24443254 87.93810619 31.78048556 88.0449378 8.31651306 88.14717102 C10.86621724 92.8208314 13.33021243 94.57158678 18.19151306 96.52217102 C18.80381775 96.79416321 19.41612244 97.0661554 20.04698181 97.34638977 C23.87217949 98.94363505 26.36881945 99.47441284 30.31651306 98.14717102 C31.43026306 97.63154602 32.54401306 97.11592102 33.69151306 96.58467102 C37.78343411 94.96201267 39.97056454 94.38472391 44.31651306 95.14717102 C47.26132036 97.21749172 49.79638342 99.58401477 52.31651306 102.14717102 C54.06635922 103.89701717 56.50560365 103.27945244 58.88337708 103.28520203 C60.09205444 103.29065536 61.30073181 103.2961087 62.54603577 103.30172729 C63.8977508 103.3028472 65.24946589 103.3038977 66.60118103 103.30488586 C68.01516377 103.30955162 69.429145 103.31469478 70.84312439 103.32028198 C73.89500158 103.33158179 76.94686888 103.34000683 79.99876022 103.34640121 C84.82201047 103.35705707 89.64518996 103.37729512 94.46839905 103.39952087 C108.18612939 103.46152729 121.90385599 103.51548054 135.62168884 103.54853821 C143.19258491 103.56686326 150.76336299 103.59577264 158.33417237 103.63654292 C162.34337014 103.65764928 166.35241899 103.67307527 170.36167526 103.67535019 C174.13247682 103.67749223 177.90296833 103.69331562 181.67367554 103.71973991 C183.05919817 103.72695151 184.4447583 103.72902489 185.83029556 103.72563744 C187.71877931 103.72175724 189.60727283 103.7379218 191.49568176 103.75517273 C193.08244374 103.76013795 193.08244374 103.76013795 194.70126152 103.76520348 C197.31651306 104.14717102 197.31651306 104.14717102 199.12953377 105.52323341 C200.76243523 107.75724887 201.11958897 109.39023375 201.31651306 112.14717102 C200.69151306 114.83467102 200.69151306 114.83467102 199.31651306 117.14717102 C195.75202336 118.9370433 192.81619535 119.402325 188.85586548 119.42564392 C187.23003792 119.44238914 187.23003792 119.44238914 185.57136536 119.45947266 C184.3924472 119.46163284 183.21352905 119.46379303 181.99888611 119.46601868 C180.74969894 119.4760643 179.50051178 119.48610992 178.21347046 119.49645996 C174.79648396 119.52202459 171.37966297 119.53889629 167.96261954 119.55188799 C164.38846362 119.56753762 160.81439144 119.59432199 157.24029541 119.61991882 C150.47604372 119.66667422 143.71177621 119.70343396 136.94744569 119.7365917 C129.24488521 119.77483601 121.54240892 119.8242401 113.83991945 119.87457585 C97.99884487 119.97784751 82.15772305 120.06712336 66.31651306 120.14717102 C65.44609063 122.03559616 64.59575832 123.93329004 63.75401306 125.83467102 C63.04051697 127.4182843 63.04051697 127.4182843 62.31260681 129.03388977 C60.84498194 133.62093692 61.9589018 136.70203301 63.87901306 140.95967102 C64.35338806 142.01154602 64.82776306 143.06342102 65.31651306 144.14717102 C66.46021362 144.15747849 67.60391418 144.16778595 68.78227234 144.17840576 C79.55329789 144.27610342 90.32426521 144.37883413 101.09519577 144.48651028 C106.63281518 144.54170717 112.1704399 144.59512208 117.70811462 144.64448547 C123.05087646 144.69217661 128.39357418 144.74452127 133.73625946 144.80011177 C135.77601274 144.82051377 137.81578359 144.83923041 139.85556793 144.85624504 C142.70947628 144.88033665 145.56326374 144.91038487 148.417099 144.94184875 C149.68592926 144.95048195 149.68592926 144.95048195 150.98039246 144.95928955 C154.58632498 145.00456633 157.84528897 145.1759199 161.31651306 146.14717102 C162.12303815 149.02884783 162.49166312 151.70748649 162.63291931 154.69404602 C162.69576111 155.96054993 162.69576111 155.96054993 162.75987244 157.25263977 C162.79918884 158.12533508 162.83850525 158.9980304 162.87901306 159.89717102 C162.94378845 161.22941711 162.94378845 161.22941711 163.00987244 162.58857727 C163.11564921 164.77463065 163.21773853 166.96079191 163.31651306 169.14717102 C168.91119523 164.50099126 174.03318778 159.51888876 179.12901306 154.33467102 C180.63320754 152.80504638 182.13960755 151.27758647 183.64854431 149.75263977 C184.30572449 149.08385803 184.96290466 148.41507629 185.63999939 147.72602844 C188.32755675 145.19502022 190.12267382 145.01545021 193.71104431 144.93623352 C194.58438416 144.90787415 195.457724 144.87951477 196.35752869 144.85029602 C198.19327066 144.79854854 200.02923666 144.7541794 201.86534119 144.71748352 C208.32211601 144.48976479 211.99562221 143.59700025 216.56651306 138.77217102 C220.08131816 133.49996337 219.46480795 127.54230399 219.46177673 121.41914368 C219.46513535 120.44454697 219.46849396 119.46995026 219.47195435 118.46582031 C219.48144455 115.24761171 219.48340647 112.02945524 219.48448181 108.81123352 C219.48769563 106.57070392 219.4910598 104.33017454 219.49456787 102.08964539 C219.50055424 97.3939719 219.50240826 92.6983168 219.5018158 88.00263977 C219.50171418 81.99148584 219.51536821 75.98045005 219.53258801 69.96932411 C219.54371671 65.34187785 219.54573474 60.71446007 219.54520607 56.0870018 C219.5463848 53.87107816 219.55080055 51.65515376 219.55853844 49.43924332 C219.56835615 46.3374076 219.56545318 43.23582742 219.55943298 40.13398743 C219.56505249 39.22258499 219.570672 38.31118256 219.57646179 37.37216187 C219.54433388 30.84448849 219.25730312 25.43630801 214.87901306 20.27217102 C210.47340407 16.61873917 206.29210447 16.99877836 200.83389282 17 C199.95759919 16.99632331 199.08130555 16.99264662 198.17845756 16.98885852 C195.2305737 16.97781076 192.28272508 16.97397601 189.33482361 16.97016907 C187.2259154 16.96390532 185.1170083 16.9572586 183.00810242 16.95025635 C177.27046072 16.93284029 171.53282736 16.92229326 165.79516578 16.91405082 C162.21223604 16.90890271 158.6293089 16.90282694 155.046381 16.89653969 C143.84120067 16.87748725 132.63602694 16.86325535 121.43083352 16.85492772 C108.48674041 16.84514941 95.54281803 16.8188145 82.5987851 16.77842683 C72.59956136 16.74829549 62.60038665 16.73346174 52.60111839 16.73014671 C46.62610893 16.72779313 40.65128188 16.71879244 34.67632103 16.69368553 C29.05632128 16.67045159 23.43662463 16.66615282 17.81658936 16.67644691 C15.75341091 16.6769435 13.69021778 16.67058716 11.62708473 16.65689087 C8.81105259 16.63924162 5.99611648 16.64624381 3.18008423 16.65942383 C1.95453851 16.64296996 1.95453851 16.64296996 0.7042343 16.62618369 C-5.48778584 16.6961853 -9.27589403 18.50720819 -13.54017639 23.18305969 Z M-239.68348694 27.14717102 C-243.44125711 32.2461174 -243.11555892 37.5483053 -243.08753967 43.63130188 C-243.09440292 44.67431961 -243.10126617 45.71733734 -243.1083374 46.79196167 C-243.12660535 50.23211872 -243.12276778 53.67181973 -243.11708069 57.11201477 C-243.12164244 59.50805815 -243.126948 61.90410022 -243.13296509 64.30014038 C-243.14189618 69.31943582 -243.13947291 74.33857215 -243.12953186 79.35786438 C-243.11804187 85.78504014 -243.1382548 92.21166651 -243.167449 98.6387701 C-243.18580855 103.58621704 -243.18551897 108.53353226 -243.17981148 113.48100471 C-243.17965824 115.85044183 -243.18570479 118.21988785 -243.19810295 120.58929253 C-243.213006 123.90442597 -243.20233983 127.21854363 -243.18519592 130.53364563 C-243.19486389 131.50893219 -243.20453186 132.48421875 -243.2144928 133.48905945 C-243.14879178 139.56655494 -242.26220088 143.18437772 -238.68348694 148.14717102 C-235.09778231 150.82330542 -232.65969409 151.30671315 -228.34754944 150.81513977 C-221.00871319 150.01185851 -214.44435349 149.78408265 -208.37586975 154.53681946 C-201.55910269 160.40442346 -195.54681565 167.1724052 -189.66688538 173.95991516 C-189.01236389 174.68170959 -188.35784241 175.40350403 -187.68348694 176.14717102 C-187.35348694 176.14717102 -187.02348694 176.14717102 -186.68348694 176.14717102 C-186.67414124 175.56225891 -186.66479553 174.9773468 -186.65516663 174.37471008 C-186.60135414 171.71468522 -186.51773245 169.0563988 -186.43348694 166.39717102 C-186.41930725 165.4767804 -186.40512756 164.55638977 -186.39051819 163.60810852 C-186.34217834 162.27392883 -186.34217834 162.27392883 -186.29286194 160.91279602 C-186.27191467 160.09585266 -186.25096741 159.2789093 -186.22938538 158.43721008 C-185.45957778 155.20787409 -184.32561114 154.16200569 -181.68348694 152.14717102 C-178.84615538 151.76987317 -176.39941626 151.63297859 -173.5660553 151.68061829 C-172.75099014 151.67831207 -171.93592499 151.67600586 -171.09616089 151.67362976 C-169.32936706 151.67100243 -167.5625417 151.67743543 -165.79580498 151.69188118 C-163.00090669 151.71375275 -160.20709151 151.71005671 -157.41213989 151.69940186 C-150.47318175 151.67772393 -143.53446438 151.6951442 -136.59553528 151.72090149 C-130.72867274 151.74226704 -124.86250365 151.74430513 -118.99565315 151.71798515 C-116.23929456 151.71362232 -113.48412864 151.7383056 -110.72790527 151.76351929 C-109.04243938 151.75825022 -107.35697719 151.75152891 -105.67152405 151.74311829 C-104.90313202 151.75802811 -104.13473999 151.77293793 -103.34306335 151.78829956 C-100.961313 151.81244872 -100.961313 151.81244872 -97.68348694 151.14717102 C-95.66876715 148.87875534 -95.66876715 148.87875534 -94.68348694 146.14717102 C-94.21426819 145.24998352 -93.74504944 144.35279602 -93.26161194 143.42842102 C-92.82333069 142.51060852 -92.38504944 141.59279602 -91.93348694 140.64717102 C-91.48489319 139.72935852 -91.03629944 138.81154602 -90.57411194 137.86592102 C-89.13465415 133.47178672 -90.35074297 130.86589799 -92.24598694 126.77217102 C-93.86864529 122.68024997 -94.44593405 120.49311954 -93.68348694 116.14717102 C-91.03324882 111.95328543 -87.5797566 108.7392341 -83.45814514 106.01655579 C-78.1574878 102.24917634 -74.40068123 98.3820441 -72.95817566 91.87568665 C-71.95837074 82.90898076 -72.20986369 73.93661382 -72.49940491 64.93629456 C-72.57844794 61.95740103 -72.58979053 58.97989782 -72.59927177 56.00009251 C-72.6123142 53.11623378 -72.65276586 50.23331524 -72.70289993 47.34988213 C-72.72621951 45.978913 -72.744503 44.60784797 -72.75748825 43.23674202 C-72.61758662 34.82887986 -72.61758662 34.82887986 -75.93006897 27.38911438 C-80.45507255 23.70467495 -84.11651883 22.89759236 -89.89427185 22.87974548 C-91.14473801 22.87121552 -92.39520416 22.86268555 -93.68356323 22.85389709 C-95.06163038 22.85459606 -96.43969742 22.85551908 -97.81776428 22.85664368 C-99.27510929 22.85065657 -100.73245113 22.8438506 -102.18978882 22.83628845 C-106.14233304 22.81864025 -110.09479062 22.81393359 -114.04737043 22.81265688 C-116.51839693 22.81123411 -118.98940148 22.80696215 -121.46042252 22.80166245 C-130.08557277 22.78316644 -138.71066126 22.77499134 -147.33583069 22.77656555 C-155.36852245 22.77776701 -163.40094554 22.75666288 -171.43356931 22.72507823 C-178.33649531 22.69890538 -185.23933361 22.68819867 -192.14230883 22.68947637 C-196.26230547 22.68998569 -200.38206325 22.68431937 -204.50201035 22.66312027 C-208.37795177 22.64372059 -212.25342689 22.64362488 -216.12938499 22.65815353 C-217.54873144 22.66024058 -218.96810721 22.65554686 -220.38740349 22.64343262 C-230.81568483 22.40688318 -230.81568483 22.40688318 -239.68348694 27.14717102 Z M-20.68348694 93.14717102 C-21.09598694 94.96217102 -21.50848694 96.77717102 -21.93348694 98.64717102 C-23.88268423 103.50296544 -25.53899422 105.39110223 -30.29286194 107.61982727 C-34.62522746 109.39426206 -39.04445905 110.88613191 -43.49159241 112.34443665 C-46.10442752 113.30133148 -48.32280826 114.68807995 -50.68348694 116.14717102 C-55.2447832 116.58858679 -58.28691492 116.51558546 -62.43348694 114.58467102 C-65.86602262 113.06643409 -66.37280097 112.89517672 -69.68348694 114.14717102 C-72.11045653 115.82150735 -74.03165561 117.7006442 -75.68348694 120.14717102 C-75.68348694 123.3544825 -75.19320162 125.24767452 -73.62098694 128.02217102 C-72.09868751 131.4727164 -71.99846257 134.50760678 -72.68348694 138.14717102 C-73.97983934 141.17777413 -75.47506869 144.02408539 -77.06239319 146.91279602 C-78.73702953 150.25399817 -79.73710479 153.51070191 -80.80848694 157.08467102 C-82.25597988 161.09533252 -83.05078301 162.73753047 -86.66395569 165.07685852 C-89.99598694 166.45967102 -89.99598694 166.45967102 -95.68348694 168.14717102 C-95.68348694 172.43717102 -95.68348694 176.72717102 -95.68348694 181.14717102 C-93.02286194 182.38467102 -93.02286194 182.38467102 -90.30848694 183.64717102 C-89.31075256 184.11123352 -88.31301819 184.57529602 -87.28504944 185.05342102 C-84.84656068 186.27635832 -84.84656068 186.27635832 -82.68348694 186.14717102 C-82.48045959 187.09463196 -82.48045959 187.09463196 -82.27333069 188.06123352 C-80.86167891 193.92761877 -78.84128201 199.02488515 -75.99598694 204.33467102 C-73.24763141 209.55816611 -71.62502986 213.21981138 -72.68348694 219.14717102 C-73.6677084 221.15498279 -74.66582767 223.15609854 -75.68348694 225.14717102 C-75.77638741 228.86319004 -74.3656453 230.81577174 -71.99598694 233.52217102 C-69.55779983 235.79703459 -69.09782729 236.14717102 -65.62098694 236.14717102 C-62.73087655 235.20355872 -62.73087655 235.20355872 -60.18348694 234.08467102 C-55.74487158 232.42019026 -52.57638611 232.78139302 -48.20301819 234.57295227 C-46.96235125 235.19195669 -45.72679854 235.82129517 -44.49598694 236.45967102 C-39.8098014 238.81667627 -35.63014268 240.53266134 -30.43348694 241.52217102 C-26.05358069 242.55388227 -26.05358069 242.55388227 -24.41395569 245.18232727 C-23.62098694 247.58467102 -23.62098694 247.58467102 -23.14833069 249.89326477 C-22.70446573 252.53409996 -22.70446573 252.53409996 -20.68348694 256.14717102 C-16.39348694 256.14717102 -12.10348694 256.14717102 -7.68348694 256.14717102 C-7.27098694 254.33217102 -6.85848694 252.51717102 -6.43348694 250.64717102 C-4.48428965 245.7913766 -2.82797965 243.90323981 1.92588806 241.67451477 C6.25750264 239.90038755 10.67618359 238.40951805 15.12193298 236.94966125 C17.73838118 235.99290686 19.9680968 234.63317453 22.31651306 233.14717102 C28.68878441 232.27254554 33.62459176 234.58179804 39.31651306 237.14717102 C42.21103836 234.65167218 44.93256247 232.14197516 47.31651306 229.14717102 C47.44699748 225.75457618 46.89927649 224.17557707 45.25401306 221.27217102 C43.73171363 217.82162564 43.6314887 214.78673526 44.31651306 211.14717102 C45.61286546 208.11656791 47.10809482 205.27025665 48.69541931 202.38154602 C50.37005565 199.04034387 51.37013092 195.78364013 52.44151306 192.20967102 C53.889006 188.19900952 54.68380914 186.55681157 58.29698181 184.21748352 C61.62901306 182.83467102 61.62901306 182.83467102 67.31651306 181.14717102 C67.31651306 176.85717102 67.31651306 172.56717102 67.31651306 168.14717102 C64.62495056 167.59029602 64.62495056 167.59029602 61.87901306 167.02217102 C56.75163567 164.98335587 54.94469568 163.01882241 52.58604431 158.02217102 C50.57977145 153.23044399 48.81585924 148.35758358 47.17930603 143.42793274 C46.32933252 140.92327699 46.32933252 140.92327699 44.31651306 138.14717102 C43.83265549 132.24410861 44.60830547 129.44583806 47.31651306 124.14717102 C47.40941354 120.431152 45.99867142 118.4785703 43.62901306 115.77217102 C41.16682026 113.46940078 40.71548543 113.14717102 37.19151306 113.14717102 C34.41864665 114.0150536 34.41864665 114.0150536 32.44151306 115.20967102 C28.99096769 116.73197045 25.9560773 116.83219539 22.31651306 116.14717102 C19.28590996 114.85081862 16.43959869 113.35558927 13.55088806 111.76826477 C10.20968591 110.09362843 6.95298218 109.09355316 3.37901306 108.02217102 C-0.63164844 106.57467808 -2.27384639 105.77987495 -4.61317444 102.16670227 C-5.99598694 98.83467102 -5.99598694 98.83467102 -7.68348694 93.14717102 C-11.97348694 93.14717102 -16.26348694 93.14717102 -20.68348694 93.14717102 Z " fill="#000000" transform="translate(267.68348693847656,26.852828979492188)"/>
<path d="M0 0 C13.40117085 10.45809604 23.80399505 25.74021475 25.953125 42.89453125 C27.27031235 61.67351418 24.17816507 78.61557568 12.67578125 93.92578125 C8.47588625 98.69284156 3.88917888 102.90367918 -1.046875 106.89453125 C-0.05429688 107.30703125 0.93828125 107.71953125 1.9609375 108.14453125 C14.91488288 113.61436719 27.20488226 119.67614788 37.953125 128.89453125 C38.76265625 129.58289063 39.5721875 130.27125 40.40625 130.98046875 C62.48530758 150.28271234 78.1183611 176.96427416 81.2265625 206.4921875 C81.27683594 207.71228516 81.27683594 207.71228516 81.328125 208.95703125 C81.37710938 209.77300781 81.42609375 210.58898437 81.4765625 211.4296875 C80.67287978 215.21419345 78.97847766 216.52742724 75.953125 218.89453125 C72.85285318 219.62259435 69.82695955 219.565547 66.65380859 219.52272034 C65.71384726 219.52981472 64.77388592 219.53690911 63.8054409 219.54421848 C60.65373297 219.56182972 57.50325314 219.54367724 54.3515625 219.52563477 C52.09295082 219.53077236 49.83434315 219.53805243 47.57574463 219.5473175 C41.43938656 219.56585974 35.30346201 219.55287476 29.16712189 219.53322721 C22.74991841 219.5168629 16.33274288 219.52565051 9.91552734 219.53074646 C-0.86174151 219.53526989 -11.63879489 219.51948633 -22.41601562 219.49145508 C-33.50332851 219.46261769 -44.59039427 219.45553412 -55.67773438 219.47094727 C-69.04031858 219.48949794 -82.40272328 219.48777153 -95.76531982 219.46873283 C-100.86890718 219.4618544 -105.97240269 219.46290296 -111.07598877 219.47027779 C-117.08428884 219.47793032 -123.09223227 219.46584776 -129.1004715 219.43842888 C-131.30756827 219.4315332 -133.51469828 219.43145968 -135.72179413 219.43864441 C-138.73078236 219.44731193 -141.73866312 219.43142817 -144.74755859 219.40919495 C-145.6245019 219.41743571 -146.5014452 219.42567648 -147.40496254 219.43416697 C-151.4740592 219.37853432 -153.5514412 219.20089645 -157.08877563 217.01348782 C-159.51371323 214.38934242 -159.69420894 213.24510546 -159.609375 209.70703125 C-158.26969004 179.191985 -140.97081528 150.72356685 -118.94726562 130.54492188 C-107.08686488 120.2447794 -92.4605417 111.32168502 -77.046875 107.89453125 C-77.046875 107.23453125 -77.046875 106.57453125 -77.046875 105.89453125 C-77.60375 105.64703125 -78.160625 105.39953125 -78.734375 105.14453125 C-91.29635796 98.35427019 -98.92723839 83.57029557 -102.921875 70.33203125 C-106.44667899 55.33519441 -105.40645668 39.98702621 -99.046875 25.89453125 C-98.64855469 25.00378906 -98.25023437 24.11304688 -97.83984375 23.1953125 C-90.27084443 7.90462511 -76.9504964 -3.23832194 -61.046875 -9.10546875 C-40.11603419 -15.9993568 -18.06138355 -12.48087915 0 0 Z M-69.046875 14.89453125 C-69.954375 15.51328125 -70.861875 16.13203125 -71.796875 16.76953125 C-80.3459416 24.84364971 -86.78658381 36.49508461 -87.3828125 48.34765625 C-87.55589245 57.53896264 -87.39133955 65.56876173 -83.046875 73.89453125 C-82.59957031 74.76464844 -82.15226562 75.63476562 -81.69140625 76.53125 C-74.98350491 88.56231165 -64.96213115 95.78820265 -51.953125 100.13671875 C-39.71317158 103.32831951 -27.51083666 101.9632167 -16.234375 96.20703125 C-3.76710225 88.73765198 4.42204826 78.52755774 8.29296875 64.41796875 C10.95604965 50.20436535 8.46857369 37.41863121 0.640625 25.20703125 C-7.47759912 14.08205746 -18.61334542 7.62417539 -32.046875 4.89453125 C-45.8798345 3.37476664 -57.69325749 7.08358386 -69.046875 14.89453125 Z M-116.125 151.6328125 C-126.92940512 164.34775267 -141.046875 184.39444955 -141.046875 201.89453125 C-73.726875 201.89453125 -6.406875 201.89453125 62.953125 201.89453125 C54.80276934 171.33069752 39.87506549 147.99129611 12.296875 131.70703125 C-30.12397661 108.71255094 -82.72845612 116.4522652 -116.125 151.6328125 Z " fill="#000000" transform="translate(166.046875,266.10546875)"/>
<path d="M0 0 C1.56663294 1.34648518 3.10971635 2.72097843 4.625 4.125 C5.32109375 4.76695312 6.0171875 5.40890625 6.734375 6.0703125 C11.12822069 10.54931024 14.11009667 15.45228205 16.9375 21 C17.26314941 21.63550781 17.58879883 22.27101563 17.92431641 22.92578125 C22.38112463 32.14068998 24.17151369 41.23866384 24.0625 51.4375 C24.05114014 52.94135254 24.05114014 52.94135254 24.03955078 54.47558594 C23.65299227 71.97511793 17.01966817 85.83448871 4.625 98.125 C2.01825671 100.53721021 -0.64604135 102.85332631 -3.375 105.125 C-1.56128906 105.83462891 -1.56128906 105.83462891 0.2890625 106.55859375 C32.77982733 119.56422749 57.73586378 142.8033217 71.625 175.125 C75.4576042 185.46537732 78.63178193 196.17513346 79 207.25 C79.04898438 208.26320313 79.09796875 209.27640625 79.1484375 210.3203125 C78.625 213.125 78.625 213.125 76.67349243 215.26812649 C72.4770047 217.82425778 69.15091861 217.68500715 64.32568359 217.6396637 C63.38572226 217.64660922 62.44576092 217.65355475 61.4773159 217.66071075 C58.32578217 217.67901583 55.1749982 217.66870651 52.0234375 217.65844727 C49.7648258 217.6655039 47.50621883 217.67424783 45.24761963 217.68455505 C39.11133478 217.70708607 32.97530739 217.70410073 26.83899689 217.69523358 C21.71942322 217.69012956 16.59989818 217.69741142 11.48032951 217.70470566 C-1.28516762 217.72268906 -14.05048431 217.71628188 -26.81596589 217.69853585 C-37.90246501 217.68383669 -48.98869318 217.69847043 -60.0751574 217.72730602 C-71.46025171 217.75669774 -82.84518611 217.76716482 -94.23032951 217.75812382 C-100.62166994 217.75318774 -107.01279967 217.7554474 -113.40411377 217.77591133 C-119.41245207 217.79422766 -125.42028555 217.78835882 -131.4285965 217.76371193 C-133.63570146 217.75869149 -135.84284462 217.76222555 -138.04991913 217.77486038 C-141.05909245 217.79072641 -144.06659025 217.77590031 -147.07568359 217.75318909 C-147.9526269 217.76502482 -148.8295702 217.77686054 -149.73308754 217.78905493 C-154.13348163 217.72140853 -155.84691613 217.54000634 -159.42129517 214.73100185 C-162.54956909 210.55826936 -161.93101893 207.12917041 -161.375 202.125 C-160.88524053 198.73927151 -160.18956954 195.44673881 -159.375 192.125 C-159.04387207 190.76749634 -159.04387207 190.76749634 -158.70605469 189.38256836 C-151.26657667 160.59360048 -131.83269875 133.00833329 -106.09960938 117.77832031 C-97.50977286 112.95128829 -88.71006183 108.34067683 -79.375 105.125 C-80.02726562 104.55652344 -80.67953125 103.98804688 -81.3515625 103.40234375 C-94.14737577 92.09748807 -105.33438749 77.83734397 -106.51538086 60.00537109 C-107.34857804 39.28140926 -103.55202044 22.80388165 -89.77734375 6.69140625 C-66.01486997 -18.69387062 -27.31342661 -20.95563052 0 0 Z M-78.265625 19.5 C-88.12893594 31.7743425 -90.79264265 44.83186269 -89.375 60.125 C-86.96413978 72.62682604 -79.7985272 83.8269913 -69.375 91.125 C-57.08755709 98.48292439 -45.7317612 101.52655834 -31.375 99.125 C-18.3882194 95.76964705 -7.39885974 88.74053456 -0.1875 77.375 C0.77928541 75.64100686 1.71732366 73.89065283 2.625 72.125 C3.04136719 71.32707031 3.45773437 70.52914062 3.88671875 69.70703125 C8.42705154 59.43154126 8.24811065 46.23636425 5.0625 35.5625 C2.76573577 29.78432474 -0.44244112 24.91704597 -4.375 20.125 C-4.94863281 19.41472656 -5.52226562 18.70445312 -6.11328125 17.97265625 C-13.91855838 9.26484172 -25.93379566 3.78726136 -37.51171875 2.87890625 C-53.49664232 2.29859549 -67.2409922 7.928045 -78.265625 19.5 Z M-119.80688477 151.83764648 C-131.68557786 165.60264663 -140.37064329 182.09885974 -143.375 200.125 C-76.055 200.125 -8.735 200.125 60.625 200.125 C57.73592449 187.36500456 57.73592449 187.36500456 52.8125 175.8125 C52.46413086 175.15209717 52.11576172 174.49169434 51.75683594 173.8112793 C50.73571123 171.90212916 49.68666883 170.01183498 48.625 168.125 C48.07972656 167.13757813 47.53445313 166.15015625 46.97265625 165.1328125 C33.55812415 142.50193928 9.99478832 126.09917037 -15.2902832 119.61230469 C-53.84333981 110.6004882 -93.25839824 122.38534813 -119.80688477 151.83764648 Z " fill="#000000" transform="translate(421.375,267.875)"/>
<path d="M0 0 C11.74169842 8.90323979 19.6728353 20.29056273 22 35 C22.9643231 50.89278651 20.18958965 63.90841352 9.96484375 76.5078125 C0.21414415 86.94867051 -11.95182836 92.8210953 -26.16870117 93.40039062 C-41.39840493 93.6565503 -54.00895681 88.69050725 -65.25 78.3125 C-75.42217835 67.49281133 -79.53565198 54.97715361 -79.41992188 40.4128418 C-78.92005981 26.01457135 -72.60152539 13.61422662 -62.1640625 3.78125 C-44.4246974 -10.82010467 -19.43307839 -12.29126882 0 0 Z M-54.71875 21.10546875 C-61.03543982 30.10055891 -63.18444857 37.94071051 -62 49 C-59.53913857 58.88515524 -53.92667195 66.47078304 -45.2734375 71.74609375 C-36.9583054 76.33227486 -28.63193284 77.6509875 -19.22265625 75.30859375 C-8.52299127 71.36834732 -2.338828 64.95724682 3.03515625 55.1015625 C6.21019992 48.10169877 6.13511618 40.04567048 4.0859375 32.7421875 C-0.08429605 22.0071992 -5.74287906 16.14499816 -16 11 C-29.53096383 5.58761447 -45.51534497 9.83129759 -54.71875 21.10546875 Z " fill="#000000" transform="translate(282,159)"/>
<path d="M0 0 C1.15880354 -0.01064158 1.15880354 -0.01064158 2.34101725 -0.02149814 C4.92621722 -0.03908175 7.50991438 -0.02097261 10.09509277 -0.00291443 C11.94976994 -0.00805313 13.80444224 -0.01533404 15.65910339 -0.02459717 C20.69429004 -0.04312563 25.72894778 -0.03016341 30.76411247 -0.01050687 C36.03220113 0.00586896 41.300256 -0.00293178 46.56835938 -0.00802612 C55.41540992 -0.01254827 64.26224912 0.00333031 73.10925293 0.03126526 C83.33915832 0.06331765 93.56868252 0.06330178 103.79861498 0.04605049 C113.63749505 0.03018946 123.4762353 0.03691625 133.31510925 0.0539875 C137.50322692 0.06086202 141.69123265 0.05982141 145.87934875 0.05244255 C150.81082115 0.04478424 155.74185947 0.05689111 160.67325783 0.08429146 C162.48366317 0.09118112 164.294109 0.09126704 166.10451317 0.08407593 C168.57496211 0.07539343 171.04406773 0.09131568 173.5144043 0.11352539 C174.23181872 0.10528462 174.94923314 0.09704386 175.68838739 0.08855337 C179.21918353 0.14719012 181.16764268 0.57151907 184.17862701 2.47676182 C186.84135981 5.23282093 187.25720215 6.81537379 187.25720215 10.62818909 C185.65308366 14.15724975 184.51560853 15.45591816 181.25720215 17.62818909 C178.72027449 17.82770132 176.29246641 17.91081729 173.75491333 17.90234375 C172.98408649 17.90758043 172.21325965 17.91281711 171.41907442 17.91821247 C168.82811835 17.93325157 166.23735908 17.93391848 163.6463623 17.93458557 C161.79198369 17.94220441 159.93760825 17.95063143 158.08323669 17.95980835 C153.03984498 17.98178691 147.9965139 17.99055671 142.9530797 17.99563479 C139.80366703 17.99927428 136.65427033 18.00551219 133.50486374 18.01263618 C122.52191213 18.03714196 111.53900783 18.0501851 100.55603027 18.0537262 C90.31138539 18.05736276 80.06703987 18.08726394 69.82248652 18.12913078 C61.03260124 18.16379606 52.24281535 18.17927398 43.45286214 18.17997223 C38.20051168 18.18076631 32.94846603 18.18956481 27.69618607 18.21796989 C22.75652793 18.2440862 17.81742871 18.24639181 12.87773323 18.23031425 C11.064079 18.22849465 9.25039311 18.23523649 7.43680763 18.25113297 C4.96169185 18.27150638 2.48854773 18.26109503 0.01345825 18.24291992 C-1.06470974 18.26271987 -1.06470974 18.26271987 -2.1646589 18.28291982 C-5.99715466 18.21857992 -7.64038056 17.70884024 -10.68850136 15.30851841 C-12.74279785 12.62818909 -12.74279785 12.62818909 -13.36779785 9.12818909 C-12.01418077 1.54793341 -7.00721793 -0.11560337 0 0 Z " fill="#000000" transform="translate(282.7427978515625,66.37181091308594)"/>
<path d="M0 0 C6.91443293 4.88281324 11.54613476 11.43248571 13.90234375 19.58984375 C15.26091361 28.14883386 14.9283401 34.8432512 10.52734375 42.52734375 C6.7322115 47.48739111 2.48905539 51.83403744 -2.34765625 55.77734375 C-6.55044308 59.24245899 -8.07564906 62.96578212 -9.41015625 68.21484375 C-10.47265625 71.52734375 -10.47265625 71.52734375 -12.22265625 73.46484375 C-15.85910247 75.18205446 -18.94339893 75.03709619 -22.72265625 73.77734375 C-24.97017919 72.17197022 -25.61721217 71.16496299 -26.47265625 68.52734375 C-27.35687988 61.15881351 -24.97539837 54.79091948 -20.51953125 48.98046875 C-17.46194007 45.53800596 -14.28651432 42.28760933 -10.921875 39.14453125 C-6.12888883 34.688508 -6.12888883 34.688508 -3.16015625 28.96484375 C-3.68905421 23.14696621 -5.81568149 19.10349047 -10.03515625 15.08984375 C-14.3395303 12.33062962 -18.47447735 11.90368506 -23.47265625 12.52734375 C-28.15198713 13.93198919 -30.87888933 15.74607149 -33.84765625 19.65234375 C-35.69412545 23.3613384 -36.27772595 27.20815481 -36.78515625 31.29296875 C-37.68811405 34.2275816 -38.82551434 35.03832643 -41.47265625 36.52734375 C-43.47265625 36.9609375 -43.47265625 36.9609375 -45.47265625 36.96484375 C-46.13265625 36.98417969 -46.79265625 37.00351563 -47.47265625 37.0234375 C-50.4479193 36.2854328 -51.62626166 34.93656477 -53.47265625 32.52734375 C-55.00334422 24.85139378 -53.41908545 17.19691546 -49.47265625 10.52734375 C-37.48358201 -6.14992246 -17.89253712 -10.65637677 0 0 Z " fill="#000000" transform="translate(129.47265625,65.47265625)"/>
<path d="M0 0 C2.9375 2.0625 2.9375 2.0625 5 5 C5.62601538 8.96476406 5.65946039 10.99762021 3.4375 14.375 C0.17160572 16.55226285 -2.07983866 17 -6 17 C-8.875 15.5 -8.875 15.5 -11 13 C-12.1659741 8.99196403 -12.43240501 6.94717289 -10.6875 3.125 C-7.63595781 -0.71768276 -4.73184339 -0.48120441 0 0 Z " fill="#000000" transform="translate(115,143)"/>
</svg>
