<?xml version="1.0" encoding="UTF-8"?>
<svg version="1.1" xmlns="http://www.w3.org/2000/svg" width="512" height="512">
<path d="M0 0 C2.08070557 -0.00270229 4.1614099 -0.0065908 6.24211121 -0.01159668 C10.57290844 -0.01745053 14.90337272 -0.00905837 19.23413086 0.00976562 C24.7593989 0.0326243 30.28389243 0.0193619 35.80913258 -0.00452423 C40.0944952 -0.01903302 44.37967646 -0.01435417 48.66504478 -0.00401306 C50.7018207 -0.00136352 52.7386136 -0.00455238 54.77536964 -0.01393127 C69.48861331 -0.06686856 80.84618118 0.4343159 91.9453125 11.1640625 C97.46982069 17.3984237 100.21322018 25.20311745 100.04296875 33.53125 C100.625625 33.53382812 101.20828125 33.53640625 101.80859375 33.5390625 C111.48205708 33.99535794 119.78864443 37.72589007 126.54296875 44.71875 C136.75441956 56.07227097 134.49507544 72.17600565 134.15649414 86.3059082 C133.41452117 97.94242775 133.41452117 97.94242775 137.02978516 108.57592773 C139.37177797 110.72536421 139.37177797 110.72536421 141.9074707 112.20556641 C145.88584633 114.67527941 146.55046678 118.45778733 147.59539795 122.85700989 C148.09179876 125.8230098 148.18473197 128.62414854 148.20410156 131.6315918 C148.21370911 132.84022385 148.22331665 134.0488559 148.23321533 135.29411316 C148.23959015 137.24260918 148.23959015 137.24260918 148.24609375 139.23046875 C148.24892113 139.89742075 148.2517485 140.56437275 148.25466156 141.25153542 C148.26961884 144.78382381 148.27886907 148.31607176 148.28320312 151.84838867 C148.28867064 155.47162772 148.3126717 159.09448774 148.34117508 162.71760845 C148.35993284 165.52571136 148.36501406 168.33372553 148.366539 171.14188576 C148.37098408 173.11918639 148.38956755 175.09643926 148.4085083 177.07365417 C148.38011368 188.65813467 146.59860447 197.39081052 138.66796875 206.15625 C131.637904 212.51678477 125.81903233 214.70281374 116.50488281 214.45117188 C107.65095872 214.17451325 107.65095872 214.17451325 99.984375 217.9453125 C97.7825938 221.04586 95.92211847 224.22764846 94.04296875 227.53125 C91.875 230.08203125 91.875 230.08203125 89.60546875 232.34375 C88.87585938 233.07722656 88.14625 233.81070313 87.39453125 234.56640625 C85.04296875 236.53125 85.04296875 236.53125 82.25390625 237.90234375 C78.9986548 239.52079975 77.21736035 240.58344675 75.04296875 243.53125 C72.95323245 253.1656112 73.98991855 263.61051668 78.04296875 272.53125 C80.6144664 275.10274765 82.32377004 274.77352388 85.82878113 274.79911804 C86.63809586 274.79499405 87.44741058 274.79087006 88.28125 274.78662109 C89.13354691 274.79024155 89.98584381 274.793862 90.8639679 274.79759216 C92.71970548 274.80449794 94.57546343 274.8069894 96.43121338 274.80564499 C99.37469211 274.80468121 102.31780412 274.8176074 105.26123047 274.83462524 C113.63196904 274.88092232 122.00267306 274.90547546 130.37353516 274.91210938 C135.49181707 274.91714407 140.60972113 274.94150176 145.72787476 274.97743607 C147.67334721 274.98719715 149.61887191 274.98958629 151.56436157 274.98426437 C164.53349054 274.95047711 175.29780469 275.12053988 185.28515625 284.4609375 C190.99018802 291.18019713 193.22025444 298.49687889 192.89453125 307.12890625 C192.85749065 308.66857561 192.82239869 310.20829285 192.7890625 311.74804688 C192.73386769 314.16269786 192.66874735 316.57475566 192.56982422 318.98803711 C192.14459441 329.79132314 192.67087897 336.09069867 200.04296875 344.53125 C213.36690542 365.42426434 220.03331572 390.36770266 220.25390625 415.01953125 C220.28193557 416.79493172 220.31059966 418.57032225 220.33984375 420.34570312 C220.38128172 423.10848111 220.41822687 425.87106509 220.44433594 428.6340332 C220.4718886 431.32540562 220.5177031 434.01596968 220.56640625 436.70703125 C220.57128555 437.94614006 220.57128555 437.94614006 220.57626343 439.21028137 C220.67106533 443.62508188 220.85739234 446.20517789 224.04296875 449.53125 C226.69445093 455.39242113 227.17688763 461.83724624 225.28515625 468 C222.11061096 475.49892588 218.47323216 479.88176579 211.1081897 483.45536602 C205.22280365 485.52112006 199.17255783 485.21392886 193.00621033 485.15943909 C191.49430853 485.16449094 189.98241274 485.17172469 188.47053057 485.18093723 C184.33732017 485.19979569 180.20470471 485.18766235 176.07150972 485.1702143 C171.60586443 485.15680901 167.14030438 485.17228864 162.67466736 485.18403625 C153.93522835 485.20239321 145.19601327 485.19391373 136.45658129 485.17594803 C129.35304765 485.16191019 122.2495747 485.15803178 115.14602852 485.1613903 C114.13419971 485.16186775 113.1223709 485.16234519 112.07988061 485.1628371 C110.02424552 485.16386345 107.96861044 485.16491881 105.91297538 485.16600286 C87.7455684 485.17456588 69.57826938 485.15790736 51.41088867 485.12817383 C33.78877224 485.09933316 16.1668113 485.09225543 -1.45532227 485.10766602 C-20.65386432 485.12443222 -39.85233258 485.12845842 -59.05087656 485.11095566 C-61.09855329 485.1091113 -63.14623003 485.10727657 -65.19390678 485.10545158 C-66.20135486 485.10453949 -67.20880293 485.1036274 -68.24677973 485.10268768 C-75.34100102 485.09708523 -82.43518626 485.10038671 -89.52940559 485.10699654 C-98.1759298 485.114733 -106.82230101 485.10796566 -115.46879441 485.0828215 C-119.87906055 485.07033427 -124.28908859 485.06417054 -128.69936371 485.07536316 C-132.73908617 485.08542171 -136.77833431 485.07691181 -140.81799918 485.05378198 C-142.27679297 485.04863309 -143.73562944 485.05016578 -145.19440449 485.05917663 C-154.40396625 485.11131755 -162.03715364 484.66263303 -169.296875 478.56640625 C-169.82410156 477.91542969 -170.35132813 477.26445312 -170.89453125 476.59375 C-171.43980469 475.94535156 -171.98507813 475.29695313 -172.546875 474.62890625 C-176.93318381 468.10412001 -176.68638167 461.15081675 -175.95703125 453.53125 C-174.86581439 450.17365967 -173.50370439 447.07792314 -170.95703125 444.53125 C-170.84558567 441.44587627 -170.7952743 438.37924782 -170.78125 435.29296875 C-170.75799013 433.33657851 -170.73387062 431.38019835 -170.70898438 429.42382812 C-170.67434875 426.35288373 -170.64481495 423.28229448 -170.63110352 420.21118164 C-170.48445008 392.71930215 -165.18393832 359.02306055 -145.62890625 337.94140625 C-141.19245289 332.1946499 -142.70129586 324.97186884 -143.26953125 318.15625 C-144.2017628 305.89080845 -144.13421796 295.93606466 -136.76171875 285.57421875 C-132.01153899 280.19685075 -125.25207439 276.02297959 -118.00230026 275.34972191 C-115.72241651 275.28160597 -113.45028747 275.27559912 -111.16943359 275.29174805 C-110.30691483 275.28973389 -109.44439606 275.28771973 -108.55574036 275.28564453 C-106.69132177 275.2821109 -104.82689116 275.28285141 -102.96247482 275.28742027 C-100.01192187 275.29302775 -97.06175988 275.28383279 -94.11123657 275.2702179 C-85.72550629 275.2331386 -77.3399116 275.21458064 -68.95410156 275.22583008 C-63.81821468 275.23167465 -58.68288164 275.21345798 -53.5471077 275.17994118 C-51.59108655 275.1719802 -49.63500516 275.17327358 -47.67899704 275.18396568 C-44.94732894 275.19826215 -42.21741078 275.18205691 -39.48583984 275.15893555 C-38.27322731 275.17658714 -38.27322731 275.17658714 -37.03611755 275.19459534 C-33.08941118 275.1289808 -31.36096637 274.92597677 -28.48648071 272.11701965 C-23.78584755 264.16987601 -24.4125134 252.4647152 -25.95703125 243.53125 C-28.60624397 239.34477651 -31.54633371 237.62367428 -35.95703125 235.53125 C-50.37009677 224.5773202 -60.72057546 206.01814273 -63.48046875 188.140625 C-63.72171179 185.59779296 -63.89864965 183.08411797 -63.95703125 180.53125 C-65.09140625 180.57765625 -66.22578125 180.6240625 -67.39453125 180.671875 C-83.98909195 181.15578336 -83.98909195 181.15578336 -90.65234375 174.953125 C-96.77094257 168.39114945 -98.42365865 161.97023067 -98.42578125 153.23046875 C-98.43720154 151.91584404 -98.43720154 151.91584404 -98.44885254 150.57466125 C-98.45961047 148.72826978 -98.46252425 146.88181768 -98.45800781 145.03540039 C-98.45703749 142.23673965 -98.49866515 139.44084251 -98.54296875 136.64257812 C-98.67075312 117.62172013 -98.67075312 117.62172013 -91.37231445 109.84204102 C-87.67645609 106.53125 -87.67645609 106.53125 -84.95703125 106.53125 C-84.96750488 105.45343262 -84.97797852 104.37561523 -84.98876953 103.26513672 C-85.02545491 99.19843985 -85.04810496 95.13175702 -85.06689453 91.06494141 C-85.07684312 89.31752041 -85.09040682 87.57011556 -85.10791016 85.82275391 C-85.34857991 61.14702586 -81.88348628 40.55758768 -64.32421875 21.875 C-45.91217368 3.6452524 -24.82878333 -0.11499392 0 0 Z M-55.95703125 36.53125 C-68.62765403 52.92315478 -69.3158796 70.56792054 -69.27270508 90.46337891 C-69.269509 93.55275642 -69.2932057 96.64120656 -69.31835938 99.73046875 C-69.32062944 101.70572797 -69.32133723 103.68098974 -69.3203125 105.65625 C-69.32952225 106.57398193 -69.33873199 107.49171387 -69.34822083 108.43725586 C-69.31348854 113.22486366 -69.25242941 116.7559081 -65.95703125 120.53125 C-63.98842805 121.72935956 -63.98842805 121.72935956 -61.7265625 122.33203125 C-60.92412109 122.58662109 -60.12167969 122.84121094 -59.29492188 123.10351562 C-58.04485352 123.46993164 -58.04485352 123.46993164 -56.76953125 123.84375 C-55.50206055 124.23916992 -55.50206055 124.23916992 -54.20898438 124.64257812 C-52.13003825 125.28857833 -50.04414241 125.91213752 -47.95703125 126.53125 C-47.94244873 125.52336426 -47.92786621 124.51547852 -47.9128418 123.47705078 C-47.8543262 119.69334613 -47.77710318 115.91020394 -47.69458008 112.12695312 C-47.66157876 110.49781508 -47.6334719 108.86856949 -47.6105957 107.23925781 C-47.42143791 94.11895152 -46.77988603 81.97993317 -37.39453125 71.84375 C-29.17649662 64.23445867 -20.00763161 62.2038248 -8.95703125 62.53125 C-3.37817495 63.36480377 2.03076945 64.72864152 7.4765625 66.1796875 C21.67406639 69.57527769 35.76975338 67.63100843 49.77001953 64.31030273 C60.65830074 61.74582838 70.58650227 61.7611265 80.82421875 66.9375 C88.979659 72.14519076 93.45079744 79.29406812 96.04296875 88.53125 C96.35858541 91.49604404 96.414018 94.44984828 96.45703125 97.4296875 C96.48608047 98.68212753 96.48608047 98.68212753 96.51571655 99.95986938 C96.57516489 102.60856126 96.62175769 105.25729743 96.66796875 107.90625 C96.70618057 109.70965364 96.74523414 111.51303966 96.78515625 113.31640625 C96.88083756 117.72120984 96.96499586 122.1260988 97.04296875 126.53125 C98.78243308 126.07742737 100.52043286 125.61798925 102.2578125 125.15625 C103.22581787 124.90101563 104.19382324 124.64578125 105.19116211 124.3828125 C110.38886608 122.83075433 114.95083728 121.16944721 118.04296875 116.53125 C118.36677616 114.10388707 118.36677616 114.10388707 118.34936523 111.3605957 C118.36535263 110.30552322 118.38134003 109.25045074 118.39781189 108.16340637 C118.40317459 107.02280258 118.40853729 105.88219879 118.4140625 104.70703125 C118.42309097 103.53166306 118.43211945 102.35629486 118.44142151 101.14530945 C118.45594278 98.6545975 118.46481538 96.16384725 118.46850586 93.6730957 C118.48036862 89.87580252 118.52951135 86.08015161 118.58007812 82.28320312 C118.58954614 79.86198709 118.59677936 77.44076107 118.6015625 75.01953125 C118.63086098 73.3238073 118.63086098 73.3238073 118.66075134 71.59382629 C118.62111327 64.61000579 117.65537764 59.90476774 113.04296875 54.53125 C108.50353814 50.32397285 103.89326094 49.80239029 97.9453125 49.12109375 C94.77325425 48.47643588 92.74878195 47.2616574 90.04296875 45.53125 C89.38296875 45.53125 88.72296875 45.53125 88.04296875 45.53125 C86.39986793 41.76054427 85.47445117 38.12141808 84.66796875 34.09375 C82.93797023 26.42985654 80.66296747 22.11432604 74.04296875 17.53125 C70.19248347 16.24775491 66.55245484 16.37557956 62.53930664 16.37011719 C61.67056915 16.36515228 60.80183167 16.36018738 59.9067688 16.35507202 C57.02637949 16.34044423 54.14604539 16.33364463 51.265625 16.328125 C49.25841776 16.32237065 47.25121052 16.31661296 45.2440033 16.31085205 C41.02814478 16.30033798 36.81230533 16.29449909 32.59643555 16.29101562 C27.22014128 16.28555356 21.84410317 16.26157644 16.46788883 16.23304367 C12.31633294 16.21431857 8.16483726 16.20920629 4.01324272 16.20767975 C2.0331019 16.20467101 0.05296168 16.19670331 -1.92713737 16.18349457 C-23.68711039 16.04879358 -40.79155171 20.0708887 -55.95703125 36.53125 Z M-28.73046875 85.51953125 C-32.01175688 90.90126178 -32.2382533 96.11754701 -32.23046875 102.21875 C-32.2507506 103.90365256 -32.27160124 105.58854836 -32.29296875 107.2734375 C-32.31557551 109.90663409 -32.33204969 112.5395623 -32.33789062 115.17285156 C-32.3474369 117.73029979 -32.3812251 120.28656777 -32.41796875 122.84375 C-32.41292328 123.62516357 -32.40787781 124.40657715 -32.40267944 125.21166992 C-32.51119739 131.27417282 -34.34678063 134.92099938 -38.70703125 139.28125 C-41.96929287 141.09361757 -45.32885698 141.66460109 -48.95703125 142.53125 C-49.05775203 147.34686535 -49.12934728 152.16183574 -49.17675781 156.97827148 C-49.19657146 158.60826323 -49.22363048 160.23818696 -49.25878906 161.86791992 C-49.68045035 181.95263903 -46.08152044 200.41514002 -32.51953125 215.96875 C-31.02052166 217.51109831 -29.50031347 219.03320192 -27.95703125 220.53125 C-27.27125 221.22605469 -26.58546875 221.92085937 -25.87890625 222.63671875 C-11.57885919 236.32768973 8.03679181 242.96694449 27.66796875 242.74609375 C43.29233878 241.75148686 57.07078938 236.08736831 70.04296875 227.53125 C70.04296875 227.20125 70.04296875 226.87125 70.04296875 226.53125 C69.19734375 226.50546875 68.35171875 226.4796875 67.48046875 226.453125 C59.05374722 226.03178892 52.63539165 225.31274779 46.66796875 219.03125 C42.33031407 212.35793511 42.07925678 206.44063384 43.04296875 198.53125 C45.04046804 193.13116638 47.80997092 189.97191477 52.88671875 187.3203125 C59.13538075 184.7160142 65.43278275 184.94691906 72.10546875 185.03125 C73.33330078 185.01578125 74.56113281 185.0003125 75.82617188 184.984375 C83.09044609 185.01566967 87.82221933 185.76743522 94.04296875 189.53125 C94.70296875 189.53125 95.36296875 189.53125 96.04296875 189.53125 C99.40579008 178.99440985 99.17162127 168.40388652 99.10546875 157.46875 C99.10044289 156.01627759 99.09588191 154.56380349 99.09179688 153.11132812 C99.08087917 149.58459985 99.06367461 146.05793598 99.04296875 142.53125 C97.79128906 142.23605469 96.53960937 141.94085938 95.25 141.63671875 C91.15616572 140.67123157 88.28128228 139.31770583 85.04296875 136.53125 C82.18476466 131.14448773 81.62362051 126.84971648 81.671875 120.81640625 C81.65449516 119.14387814 81.63691075 117.47135214 81.61914062 115.79882812 C81.60908104 113.19437761 81.60547116 110.59006483 81.60717773 107.9855957 C81.60358537 105.44962704 81.57616915 102.91468952 81.546875 100.37890625 C81.55505753 99.6109523 81.56324005 98.84299835 81.57167053 98.05177307 C81.48575983 91.73753011 79.72799899 86.29249289 75.25390625 81.69140625 C66.76717133 76.61742218 59.67351326 77.1317667 50.35546875 79.40625 C48.93425976 79.77621092 47.51366552 80.14854286 46.09375 80.5234375 C30.74050821 84.47440087 14.2765945 83.37244714 -0.95703125 79.53125 C-12.03643621 76.89329644 -20.85533391 76.08256799 -28.73046875 85.51953125 Z M-81.95703125 126.53125 C-82.08097546 131.13930521 -82.171528 135.74638281 -82.23168945 140.35571289 C-82.25677672 141.92229114 -82.2908554 143.48875299 -82.33422852 145.05493164 C-82.39514351 147.31165309 -82.42329624 149.56682294 -82.4453125 151.82421875 C-82.47111893 152.52024704 -82.49692535 153.21627533 -82.52351379 153.93339539 C-82.52575878 157.85861088 -82.07248736 159.39125903 -79.53979492 162.4621582 C-74.50177385 166.49819456 -71.9288708 165.53125 -64.95703125 165.53125 C-64.95703125 156.29125 -64.95703125 147.05125 -64.95703125 137.53125 C-68.91703125 135.55125 -72.87703125 133.57125 -76.95703125 131.53125 C-80.20703125 128.65625 -80.20703125 128.65625 -81.95703125 126.53125 Z M124.66015625 132.48828125 C122.04296875 134.53125 122.04296875 134.53125 115.04296875 137.53125 C115.04296875 146.77125 115.04296875 156.01125 115.04296875 165.53125 C123.25353522 165.79802479 123.25353522 165.79802479 129.79296875 162.09375 C132.6197629 158.56025732 132.15824831 154.77474304 132.140625 150.45703125 C132.13921005 149.7731987 132.1377951 149.08936615 132.13633728 148.3848114 C132.13074751 146.20441278 132.11819697 144.02411749 132.10546875 141.84375 C132.10045242 140.36393378 132.09588975 138.88411594 132.09179688 137.40429688 C132.08078146 133.77991443 132.06352387 130.1555923 132.04296875 126.53125 C129.48762421 126.53125 126.43704395 130.80054535 124.66015625 132.48828125 Z M121.91796875 180.03125 C118.01984375 180.27875 118.01984375 180.27875 114.04296875 180.53125 C112.72296875 186.47125 111.40296875 192.41125 110.04296875 198.53125 C119.31882125 199.15488795 119.31882125 199.15488795 127.04296875 194.53125 C131.29731403 190.62185164 131.61043044 187.06053965 131.96484375 181.54296875 C131.990625 180.87910156 132.01640625 180.21523437 132.04296875 179.53125 C128.6620582 179.53125 125.29097589 179.81573939 121.91796875 180.03125 Z M58.04296875 202.53125 C57.54296875 205.53125 57.54296875 205.53125 58.04296875 208.53125 C61.30152919 210.70362362 62.26939219 210.78727651 66.04296875 210.796875 C67.01234375 210.79945313 67.98171875 210.80203125 68.98046875 210.8046875 C69.99109375 210.79695312 71.00171875 210.78921875 72.04296875 210.78125 C73.05359375 210.78898438 74.06421875 210.79671875 75.10546875 210.8046875 C76.55953125 210.80082031 76.55953125 210.80082031 78.04296875 210.796875 C78.92984375 210.79461914 79.81671875 210.79236328 80.73046875 210.79003906 C83.3174782 210.67954362 83.3174782 210.67954362 86.04296875 208.53125 C85.78735552 206.1881287 85.45026103 203.85281597 85.04296875 201.53125 C81.17041179 199.59497152 76.36463835 200.34644397 72.10546875 200.34375 C71.09033203 200.33150391 70.07519531 200.31925781 69.02929688 200.30664062 C68.05541016 200.30470703 67.08152344 200.30277344 66.078125 200.30078125 C65.18488525 200.29667236 64.29164551 200.29256348 63.37133789 200.28833008 C60.76992681 200.37718022 60.76992681 200.37718022 58.04296875 202.53125 Z M-8.95703125 251.53125 C-9.01761719 252.76101563 -9.07820312 253.99078125 -9.140625 255.2578125 C-9.2250813 256.89063427 -9.30972672 258.52344627 -9.39453125 260.15625 C-9.43384766 260.96449219 -9.47316406 261.77273438 -9.51367188 262.60546875 C-9.55556641 263.39824219 -9.59746094 264.19101562 -9.640625 265.0078125 C-9.67728271 265.73049316 -9.71394043 266.45317383 -9.75170898 267.19775391 C-9.99772082 269.9936887 -10.49560651 272.76270157 -10.95703125 275.53125 C12.47296875 275.53125 35.90296875 275.53125 60.04296875 275.53125 C59.05296875 264.14625 59.05296875 264.14625 58.04296875 252.53125 C52.27153715 253.80473907 52.27153715 253.80473907 46.51171875 255.12890625 C27.78047676 259.55156061 9.16448168 257.63414604 -8.95703125 251.53125 Z M-124.70703125 297.09375 C-130.00411694 303.85443545 -127.91602845 314.89933117 -127.3984375 322.90625 C-127.33043442 324.07019287 -127.26243134 325.23413574 -127.19236755 326.43334961 C-126.97552025 330.13313752 -126.74845614 333.83219125 -126.51953125 337.53125 C-124.81637891 365.38193359 -124.81637891 365.38193359 -124.609375 376.03125 C-124.58178604 376.74869385 -124.55419708 377.4661377 -124.52577209 378.20532227 C-124.50133293 381.59352411 -124.74999886 383.25973742 -126.83129883 385.98925781 C-128.95703125 387.53125 -128.95703125 387.53125 -131.31640625 387.703125 C-132.1053125 387.56390625 -132.89421875 387.4246875 -133.70703125 387.28125 C-134.50625 387.15234375 -135.30546875 387.0234375 -136.12890625 386.890625 C-136.7321875 386.77203125 -137.33546875 386.6534375 -137.95703125 386.53125 C-139.39989276 381.95225148 -139.29789325 377.13340489 -139.47460938 372.375 C-139.65900103 368.64541783 -139.9107224 365.71255607 -141.95703125 362.53125 C-153.29866458 386.42273189 -155.33338421 410.37471949 -154.95703125 436.53125 C-149.01703125 436.53125 -143.07703125 436.53125 -136.95703125 436.53125 C-136.99183594 434.84515625 -137.02664062 433.1590625 -137.0625 431.421875 C-137.09063811 429.20834329 -137.11793825 426.99480081 -137.14453125 424.78125 C-137.16966797 423.67007813 -137.19480469 422.55890625 -137.22070312 421.4140625 C-137.23037109 420.34414063 -137.24003906 419.27421875 -137.25 418.171875 C-137.26571045 417.18735352 -137.2814209 416.20283203 -137.29760742 415.18847656 C-136.90262075 412.10673107 -136.08510966 410.7598165 -133.95703125 408.53125 C-132.01953125 408.03515625 -132.01953125 408.03515625 -129.95703125 408.09375 C-128.93609375 408.09568359 -128.93609375 408.09568359 -127.89453125 408.09765625 C-125.95703125 408.53125 -125.95703125 408.53125 -122.95703125 411.53125 C-121.96703125 423.90625 -121.96703125 423.90625 -120.95703125 436.53125 C-82.34703125 436.53125 -43.73703125 436.53125 -3.95703125 436.53125 C-6.71668295 426.01144028 -6.71668295 426.01144028 -11.76953125 417.84375 C-12.80787109 416.50763672 -12.80787109 416.50763672 -13.8671875 415.14453125 C-14.55683594 414.28214844 -15.24648437 413.41976562 -15.95703125 412.53125 C-26.00200523 399.44234451 -28.83012299 386.87289159 -27.95703125 370.53125 C-26.07374682 356.43253353 -18.776647 343.95144687 -7.70703125 335.21875 C-2.88200365 331.82889212 1.07567467 329.81145966 7.04296875 330.53125 C10.18873083 331.61796781 12.20130492 332.3775106 14.17944336 335.08911133 C15.49995048 338.82364137 15.38195766 342.48373421 15.421875 346.41796875 C15.43886948 347.27558304 15.45586395 348.13319733 15.47337341 349.01679993 C15.52642775 351.75070892 15.56678366 354.48460285 15.60546875 357.21875 C15.64935651 359.96353367 15.69598549 362.70819831 15.74827576 365.45283508 C15.78030631 367.15992791 15.80717331 368.86712658 15.82850647 370.5743866 C15.53096438 374.36140317 15.53096438 374.36140317 17.04296875 377.53125 C19.73951729 377.60444621 22.40988333 377.62367537 25.10546875 377.59375 C25.86408203 377.58923828 26.62269531 377.58472656 27.40429688 377.58007812 C29.28388746 377.5682568 31.16343774 377.55032078 33.04296875 377.53125 C33.05755127 376.41153809 33.07213379 375.29182617 33.0871582 374.13818359 C33.14531761 369.96696726 33.22254898 365.79628081 33.30541992 361.62548828 C33.33858648 359.82349271 33.366644 358.02139533 33.3894043 356.21923828 C33.42310307 353.62228177 33.47542524 351.02625134 33.53125 348.4296875 C33.53763992 347.6294516 33.54402985 346.8292157 33.5506134 346.00473022 C33.67737929 341.13538534 34.3981702 337.76889733 37.04296875 333.53125 C39.98909107 330.84507965 42.34850944 330.27616671 46.23046875 330.40625 C54.43420432 331.67571324 61.2407332 337.85975805 66.37890625 344.09375 C76.39294575 358.76220223 79.53507499 374.71274474 76.390625 392.1484375 C73.43679171 401.70719416 68.16416278 410.38965602 61.4609375 417.7578125 C56.82582698 423.55489287 55.08512343 429.23616721 54.04296875 436.53125 C92.32296875 436.53125 130.60296875 436.53125 170.04296875 436.53125 C170.62656372 432.44608521 171.1681766 428.65313646 171.39100647 424.58314514 C171.44286606 423.66267395 171.49472565 422.74220276 171.54815674 421.7938385 C171.60066589 420.80621017 171.65317505 419.81858185 171.70727539 418.80102539 C171.76594284 417.74305756 171.82461029 416.68508972 171.88505554 415.59506226 C172.07759255 412.10650972 172.26555741 408.61772926 172.453125 405.12890625 C172.58607169 402.68858561 172.71916627 400.24827303 172.85240173 397.80796814 C173.13098918 392.69134423 173.40721234 387.57459919 173.68188477 382.45776367 C174.03211368 375.93838248 174.38902876 369.41938748 174.74787235 362.9004755 C175.02460172 357.8567884 175.29727251 352.81288775 175.56881523 347.76891899 C175.69864107 345.36777951 175.82979306 342.96671131 175.96235847 340.56572151 C176.83526596 324.94398664 176.83526596 324.94398664 177.31030273 309.30639648 C177.33358139 308.12198471 177.35686005 306.93757294 177.38084412 305.7172699 C176.8543045 300.75222701 175.16816774 297.54667348 171.48046875 294.21875 C168.10561353 291.88231177 166.42991278 291.40570385 162.3755064 291.39982224 C161.38532345 291.39598109 160.39514051 291.39213995 159.37495202 291.3881824 C158.27915898 291.38904888 157.18336595 291.38991537 156.05436707 291.39080811 C154.89645717 291.38783698 153.73854728 291.38486586 152.54554921 291.3818047 C149.3216655 291.37460942 146.09781419 291.37194422 142.87392366 291.37120724 C139.40075033 291.36935952 135.92758863 291.3618136 132.454422 291.35507202 C124.85527511 291.34147641 117.25613349 291.33546204 109.65697646 291.33106136 C104.91405548 291.32830094 100.17113654 291.32406395 95.42821693 291.31955719 C82.30239966 291.30736278 69.17658404 291.2970639 56.05076122 291.2936821 C55.21028768 291.29346253 54.36981414 291.29324297 53.5038717 291.29301675 C52.66135997 291.29279847 51.81884823 291.29258019 50.95080584 291.2923553 C49.2434897 291.29191183 47.53617356 291.29146527 45.82885742 291.29101562 C44.98196538 291.2907942 44.13507334 291.29057277 43.26251791 291.29034463 C29.53756269 291.286396 15.81266055 291.2689408 2.08772584 291.2456561 C-11.99570829 291.22195562 -26.07911578 291.20948084 -40.16257018 291.20831418 C-48.07303264 291.20739667 -55.98342596 291.2016253 -63.8938694 291.18349457 C-70.62952885 291.16811112 -77.3650978 291.16296268 -84.10077146 291.17123267 C-87.53835032 291.17514549 -90.97574683 291.17417909 -94.41330338 291.16017532 C-98.13818713 291.1475455 -101.86259879 291.15328412 -105.58747864 291.16375732 C-107.22112994 291.15167272 -107.22112994 291.15167272 -108.8877843 291.13934398 C-116.00418106 291.18633361 -119.42527162 292.17211034 -124.70703125 297.09375 Z M49.04296875 349.53125 C49.03885986 350.45873047 49.03475098 351.38621094 49.03051758 352.34179688 C49.00338493 355.81651242 48.95414429 359.28950816 48.89038086 362.76367188 C48.86732832 364.26095876 48.85283529 365.75840486 48.84741211 367.25585938 C48.78052659 382.69097961 48.78052659 382.69097961 44.47729492 388.13256836 C38.79038044 393.67815697 32.0260301 393.01633016 24.54296875 392.96875 C23.42792969 392.98873047 22.31289062 393.00871094 21.1640625 393.02929688 C14.81820463 393.02551508 10.83184254 392.84519416 6.04296875 388.53125 C1.29486784 383.39816793 0.93687216 379.64696112 0.7265625 372.796875 C0.6637207 370.85361328 0.6637207 370.85361328 0.59960938 368.87109375 C0.55980204 367.50781524 0.52008969 366.14453394 0.48046875 364.78125 C0.43724601 363.40233125 0.39363054 362.02342474 0.34960938 360.64453125 C0.24352917 357.2735381 0.14147025 353.90247174 0.04296875 350.53125 C-4.32793002 353.85680095 -6.87741224 356.47620605 -9.26953125 361.53125 C-9.76066406 362.541875 -10.25179687 363.5525 -10.7578125 364.59375 C-14.22621002 373.08962927 -13.91064307 382.52626978 -10.98828125 391.14453125 C-8.69561016 396.45067532 -5.16052491 400.90324358 -1.7421875 405.52734375 C5.35345254 415.28700259 9.09522791 424.74028666 12.04296875 436.53125 C20.29296875 436.53125 28.54296875 436.53125 37.04296875 436.53125 C38.50558381 432.15259388 38.50558381 432.15259388 39.8671875 427.7421875 C42.91949382 417.71515407 47.52468904 409.0488011 54.625 401.3203125 C61.90462274 392.13555433 63.02639937 381.802244 62.04296875 370.53125 C60.43572562 362.64026715 56.54333074 356.35675654 51.04296875 350.53125 C50.38296875 350.20125 49.72296875 349.87125 49.04296875 349.53125 Z M190.04296875 361.53125 C189.5189928 370.27630964 188.99726317 379.02149961 188.47836304 387.76686192 C188.23732099 391.82812069 187.99551933 395.88933121 187.75195312 399.95043945 C187.51671904 403.87309749 187.28351761 407.79587166 187.05169678 411.71873283 C186.96311103 413.21180427 186.87380561 414.7048332 186.78375244 416.19781685 C186.6572872 418.29656316 186.53343306 420.39544908 186.41015625 422.49438477 C186.33909668 423.68685318 186.26803711 424.87932159 186.19482422 426.10792542 C186.04083632 429.57932195 186.04296875 433.05643977 186.04296875 436.53125 C191.98296875 436.53125 197.92296875 436.53125 204.04296875 436.53125 C204.52947816 410.34983611 203.72109274 385.22542685 191.04296875 361.53125 C190.71296875 361.53125 190.38296875 361.53125 190.04296875 361.53125 Z M-159.95703125 457.53125 C-160.7904894 461.07420504 -160.7904894 461.07420504 -159.95703125 464.53125 C-157.36993236 467.15862003 -155.6924042 468.40518204 -152.0323109 469.03264666 C-150.39801941 469.03362077 -150.39801941 469.03362077 -148.73071194 469.03461456 C-146.83844566 469.05026105 -146.83844566 469.05026105 -144.90795177 469.06622362 C-143.51052654 469.05757566 -142.1131036 469.04854904 -140.71568298 469.03918457 C-139.22928413 469.04379327 -137.74288983 469.05014598 -136.25650507 469.05809355 C-132.17083387 469.07481431 -128.08553569 469.0665282 -123.99986303 469.05414867 C-119.5942177 469.04511176 -115.18863727 469.05906109 -110.78300476 469.07006836 C-102.15220791 469.08787228 -93.52155006 469.0840054 -84.89074772 469.0724178 C-77.87811241 469.06339169 -70.86551611 469.0621559 -63.85287666 469.06651306 C-62.35693011 469.06743246 -62.35693011 469.06743246 -60.8307624 469.06837043 C-58.80491299 469.0696493 -56.77906358 469.07094616 -54.75321419 469.0722608 C-35.74885476 469.08367193 -16.74457246 469.07054422 2.25977432 469.04905933 C18.57564663 469.03118513 34.89140513 469.03429409 51.20727539 469.05273438 C70.14423686 469.07412694 89.08113072 469.08257614 108.01810259 469.07028532 C110.03627836 469.06901109 112.05445414 469.06775361 114.07262993 469.06651306 C115.06567184 469.06589596 116.05871375 469.06527886 117.08184784 469.06464306 C124.0886959 469.06118551 131.09550117 469.06702714 138.10234261 469.07643127 C146.63750113 469.0876346 155.17251246 469.08464629 163.70765407 469.0633083 C168.06461509 469.05277578 172.42133044 469.04871338 176.77828979 469.06190491 C180.76366624 469.07378918 184.74856838 469.06733245 188.73390155 469.0459947 C190.17862723 469.04151174 191.62339265 469.04383274 193.06809295 469.05349785 C195.02619823 469.06559686 196.98441513 469.05083874 198.94249058 469.03461456 C200.03185588 469.03396515 201.12122119 469.03331574 202.24359757 469.03264666 C205.73238216 468.40776885 206.89436464 467.29953895 209.04296875 464.53125 C209.95830793 461.39294424 210.31466127 459.42042552 209.35546875 456.28125 C207.72863211 454.11213448 206.56680652 453.52713501 204.04296875 452.53125 C201.17103166 452.22821903 201.17103166 452.22821903 197.95810795 452.27118778 C196.70268824 452.26412219 195.44726853 452.2570566 194.15380579 452.2497769 C192.75805954 452.25202832 191.3623136 452.25447483 189.96656799 452.25709534 C188.48587315 452.25264396 187.00518068 452.24733025 185.52449173 452.24122661 C181.44999888 452.22702444 177.37558224 452.22538374 173.30106819 452.22582352 C168.90902935 452.2241773 164.51702209 452.2111146 160.125 452.19963074 C150.51983603 452.17676824 140.91469414 452.16885908 131.30950665 452.16380429 C125.31460506 452.16054933 119.3197099 452.15402814 113.32481194 452.1468029 C96.73325717 452.12723689 80.14170838 452.11083217 63.55014133 452.10792637 C61.95718012 452.10764501 61.95718012 452.10764501 60.33203786 452.10735798 C58.1790841 452.10699172 56.02613034 452.10662802 53.87317658 452.10626686 C52.8044204 452.10608405 51.73566422 452.10590124 50.63452148 452.10571289 C49.56446434 452.10553234 48.49440719 452.10535179 47.39192408 452.10516577 C30.0425768 452.10162206 12.69335349 452.07458735 -4.65595078 452.037215 C-22.45945359 451.99917039 -40.26289483 451.97976918 -58.06643921 451.97946686 C-68.06612335 451.97888149 -78.06565956 451.97033822 -88.06530571 451.94146919 C-96.57777331 451.91700691 -105.09003899 451.90963757 -113.6025322 451.92471672 C-117.94752392 451.93190632 -122.29211652 451.93094045 -126.63706398 451.90830612 C-130.61272996 451.88779339 -134.58768802 451.89024331 -138.56334568 451.91118097 C-140.00341846 451.91469071 -141.44354153 451.90970326 -142.88354831 451.89547653 C-144.83773149 451.8774104 -146.79213991 451.89304407 -148.74632931 451.91042423 C-149.8328192 451.90960978 -150.9193091 451.90879532 -152.03872293 451.90795618 C-155.96558172 452.74665674 -157.47849958 454.43857325 -159.95703125 457.53125 Z " fill="#000000" transform="translate(175.95703125,27.46875)"/>
<path d="M0 0 C1.74092171 -0.01073296 1.74092171 -0.01073296 3.51701355 -0.02168274 C4.78667465 -0.02437164 6.05633575 -0.02706055 7.36447144 -0.02983093 C8.71827874 -0.03609917 10.07208433 -0.04274629 11.42588806 -0.04974365 C15.86878266 -0.07074832 20.31167745 -0.08114453 24.75460815 -0.09111023 C26.28731173 -0.09515951 27.82001514 -0.09927648 29.35271835 -0.10346031 C36.55658611 -0.12250623 43.76044367 -0.13673699 50.96433175 -0.14507228 C59.26336655 -0.15483465 67.56213393 -0.18113034 75.86107457 -0.22157317 C82.28588902 -0.25180165 88.71062713 -0.26654762 95.13551128 -0.26985329 C98.96780266 -0.27219663 102.79980816 -0.28106263 106.63202286 -0.30631447 C110.24201754 -0.32971782 113.85154063 -0.33377984 117.46159172 -0.32355309 C119.40390458 -0.32282728 121.34619415 -0.34183312 123.28840637 -0.36161804 C133.26716162 -0.30277415 141.4203739 1.62442783 148.8444519 8.57685852 C156.3481232 16.62079414 156.67279326 24.81649494 156.68429565 35.27217102 C156.70878784 36.45166321 156.73328003 37.6311554 156.7585144 38.84638977 C156.76238159 39.97947571 156.76624878 41.11256165 156.77023315 42.27998352 C156.77845093 43.31010559 156.7866687 44.34022766 156.7951355 45.40156555 C156.18151983 48.86926494 155.08458889 50.03770064 152.30929565 52.14717102 C148.51720008 52.68889896 146.33705592 52.84766594 143.1257019 50.65888977 C140.49268706 47.01796817 140.76247351 43.84633612 140.74679565 39.45967102 C140.65365496 28.42150057 140.65365496 28.42150057 135.30929565 19.14717102 C131.71776016 17.35140328 128.89922214 17.01886873 124.93971252 17.00672913 C123.825177 17.00101898 122.71064148 16.99530884 121.56233215 16.98942566 C120.33889603 16.9883078 119.1154599 16.98718994 117.85494995 16.98603821 C116.56692474 16.9810733 115.27889954 16.9761084 113.95184326 16.97099304 C110.41660734 16.95787623 106.8813904 16.95142544 103.34613395 16.94698238 C101.13678275 16.94405036 98.92743674 16.93994529 96.71808815 16.93547821 C89.8036154 16.92180487 82.88915449 16.91213754 75.97466916 16.90827632 C67.99654315 16.9037965 60.01858854 16.8862516 52.04051465 16.85727572 C45.87140575 16.83564875 39.70234505 16.82557149 33.53319865 16.8242352 C29.84974471 16.82318785 26.16645193 16.81729515 22.48303795 16.79941559 C18.37252807 16.779851 14.26237625 16.7842279 10.15182495 16.79072571 C8.93446152 16.78151093 7.71709808 16.77229614 6.46284485 16.76280212 C-1.61273394 16.66780411 -1.61273394 16.66780411 -8.69070435 20.14717102 C-11.62929923 24.50567265 -12.0719643 28.06234395 -12.09475708 33.25068665 C-12.10505196 34.27629951 -12.10505196 34.27629951 -12.11555481 35.32263184 C-12.13374792 37.5664438 -12.12999688 39.80955166 -12.1242981 42.05342102 C-12.12886306 43.62231166 -12.13416957 45.1912003 -12.1401825 46.76008606 C-12.1490985 50.04170375 -12.1467073 53.32307787 -12.13674927 56.60469055 C-12.12525288 60.80127882 -12.14548823 64.99702646 -12.1746664 69.19350433 C-12.19304731 72.43126221 -12.19273238 75.66881924 -12.18702888 78.90661621 C-12.18687595 80.45351339 -12.19289765 82.00042442 -12.20532036 83.54727173 C-12.22026798 85.71326378 -12.20952881 87.87771035 -12.19241333 90.0436554 C-12.19224716 91.27354187 -12.19208099 92.50342834 -12.19190979 93.77058411 C-11.59390164 97.79932428 -10.19861936 99.97768294 -7.69070435 103.14717102 C-5.97327696 104.38776427 -5.97327696 104.38776427 -4.06570435 104.89717102 C-3.37218872 105.12404602 -2.6786731 105.35092102 -1.96414185 105.58467102 C0.45136284 106.18232167 2.84846452 106.53372519 5.30929565 106.89717102 C10.96668474 107.94322139 14.67412901 110.74803171 18.30929565 115.14717102 C21.07248514 119.80678468 21.71320323 123.34254977 21.8210144 128.73310852 C21.83896561 129.43489227 21.85691681 130.13667603 21.87541199 130.85972595 C21.92918612 133.08048155 21.96330259 135.30102642 21.99679565 137.52217102 C22.02999803 139.03652306 22.06449036 140.55084741 22.10031128 142.06513977 C22.18489147 145.75894776 22.25185915 149.45282981 22.30929565 153.14717102 C22.78238159 152.33151672 23.25546753 151.51586243 23.7428894 150.67549133 C25.53655514 147.58727445 27.33368291 144.50112381 29.13302612 141.41621399 C29.90423194 140.09245473 30.67413571 138.76793588 31.44259644 137.44258118 C35.34866623 130.70780202 39.3075123 124.00725661 43.49679565 117.44404602 C44.08847534 116.51430969 44.68015503 115.58457336 45.2897644 114.62666321 C48.33803686 110.88412754 51.74705231 108.6679188 56.30929565 107.14717102 C58.56175788 107.03905238 60.81724623 106.99093303 63.07223511 106.97358704 C64.09719086 106.96355652 64.09719086 106.96355652 65.14285278 106.95332336 C66.6258854 106.93928337 68.10893949 106.92738597 69.59200478 106.91737556 C71.94211728 106.90094062 74.29207146 106.87770061 76.6421051 106.85247803 C83.3236499 106.78177966 90.0052599 106.7216704 96.6869812 106.67036438 C100.77540565 106.63849373 104.86364846 106.59719634 108.95192528 106.55016899 C110.50715034 106.53419558 112.06241721 106.52185259 113.61770058 106.5132618 C115.79804445 106.50104678 117.97796494 106.47687121 120.15817261 106.45014954 C121.3971077 106.43984207 122.63604279 106.42953461 123.91252136 106.41891479 C128.80621987 106.02741628 132.20948072 105.02202381 136.05929565 101.95967102 C140.93164748 95.86923124 140.64414961 88.63237666 140.61203003 81.1999054 C140.71905301 77.32981634 140.96712037 75.51992859 143.6257019 72.62373352 C147.29024574 70.60743429 149.33841087 71.04414747 153.30929565 72.14717102 C154.99093628 73.35395813 154.99093628 73.35395813 156.30929565 75.14717102 C156.98836632 79.30095156 156.8185585 83.5066568 156.80929565 87.70967102 C156.83765503 88.85242493 156.8660144 89.99517883 156.89523315 91.17256165 C156.9160243 100.26348982 154.99436789 106.77847231 149.09835815 113.76826477 C148.38421753 114.36767883 147.6700769 114.9670929 146.93429565 115.58467102 C145.87081909 116.51086243 145.87081909 116.51086243 144.78585815 117.45576477 C139.23398067 121.24750444 134.67983207 122.52091896 127.98458862 122.53193665 C127.28934082 122.53730942 126.59409302 122.54268219 125.8777771 122.54821777 C124.38118122 122.55793754 122.88452936 122.56095762 121.38790512 122.55786133 C119.01655213 122.55335464 116.6459341 122.56746097 114.2746582 122.58625793 C108.39016326 122.62911718 102.50568689 122.64029034 96.62106323 122.65248108 C91.63662119 122.66402024 86.65251738 122.68760029 81.66821671 122.72717285 C79.33658771 122.7407171 77.0054198 122.73657839 74.67376709 122.73176575 C73.24090999 122.7411074 71.80805796 122.75127649 70.37521362 122.7624054 C69.12835785 122.76445984 67.88150208 122.76651428 66.59686279 122.76863098 C63.00895657 123.18175294 61.16690009 123.97757725 58.30929565 126.14717102 C56.71968598 128.3799066 55.35632152 130.50604376 54.0163269 132.87763977 C53.4343454 133.87296471 53.4343454 133.87296471 52.84060669 134.88839722 C52.01567314 136.3022051 51.19613233 137.71917126 50.3815918 139.13899231 C49.11691645 141.34317492 47.83836262 143.53869899 46.55514526 145.73213196 C44.88293497 148.59085378 43.21467678 151.45181024 41.54953003 154.31465149 C38.88695499 158.88156353 36.16408653 163.40835442 33.37179565 167.89717102 C33.00223755 168.50198303 32.63267944 169.10679504 32.25192261 169.72993469 C29.55836097 174.03874161 27.23106557 177.50658105 22.30929565 179.14717102 C17.6197598 179.53155921 15.24486101 179.60612761 10.99679565 177.52217102 C7.52174339 174.4511946 5.635294 171.60475894 5.01281738 166.91212463 C4.86726254 164.25029824 4.81586379 161.60196902 4.7975769 158.93623352 C4.7796257 157.96809723 4.7616745 156.99996094 4.74317932 156.00248718 C4.6892177 152.92575875 4.65522576 149.84918422 4.62179565 146.77217102 C4.58861012 144.67970176 4.55411932 142.58725276 4.51828003 140.49482727 C4.4334992 135.37905313 4.36662038 130.26332351 4.30929565 125.14717102 C1.33512513 123.59437552 -1.11967309 122.79042112 -4.44070435 122.27217102 C-12.523538 120.70545436 -17.59748425 117.81594234 -23.05007935 111.63545227 C-29.19902179 102.30955623 -29.2832309 93.61874746 -29.22195435 82.77607727 C-29.2246541 81.08653541 -29.22854052 79.39699508 -29.23355103 77.7074585 C-29.23942502 74.17801523 -29.2309525 70.64897882 -29.21218872 67.11958313 C-29.18941773 62.61967032 -29.20252346 58.12071301 -29.22647858 53.6208353 C-29.24100876 50.13498886 -29.23629742 46.64936482 -29.22596741 43.16351128 C-29.22331909 41.50549643 -29.22650235 39.8474607 -29.23588562 38.18947029 C-29.28290495 27.54705837 -28.53239319 19.02269513 -22.56570435 9.89717102 C-15.92703712 3.5471415 -9.16656416 0.03884843 0 0 Z " fill="#000000" transform="translate(355.6907043457031,-0.1471710205078125)"/>
<path d="M0 0 C0.91266632 -0.00860046 1.82533264 -0.01720093 2.76565552 -0.02606201 C3.76984024 -0.03032196 4.77402496 -0.03458191 5.80863953 -0.03897095 C6.86403931 -0.04714844 7.91943909 -0.05532593 9.00682068 -0.06375122 C12.51066006 -0.08862965 16.01445889 -0.1051267 19.51835632 -0.11953735 C20.71283072 -0.12486103 21.90730511 -0.13018471 23.13797569 -0.13566971 C29.45901727 -0.1624107 35.78003903 -0.18178344 42.10112 -0.19619751 C48.63849008 -0.21285634 55.17535713 -0.25764247 61.71253681 -0.30856895 C66.73193967 -0.34218074 71.75122219 -0.35376829 76.77072716 -0.35942459 C79.18092383 -0.36615278 81.59111216 -0.38141519 84.00119972 -0.4053154 C87.37232929 -0.436841 90.7420895 -0.43702214 94.11332703 -0.42959595 C95.11143906 -0.44600128 96.10955109 -0.46240662 97.13790894 -0.47930908 C101.80327853 -0.43717717 103.95398331 -0.37396836 107.77487183 2.50286865 C109.65507507 5.15390015 109.65507507 5.15390015 110.28007507 8.15390015 C109.40852064 12.33736143 108.06919035 13.57843858 104.65507507 16.15390015 C101.15372933 16.89122582 97.71243516 16.82692493 94.14506531 16.78500366 C92.55889908 16.79573662 92.55889908 16.79573662 90.94068909 16.8066864 C87.44790861 16.82358519 83.95640933 16.80416379 80.46366882 16.7828064 C78.03658949 16.78363492 75.60951022 16.78609365 73.18243408 16.79011536 C68.09737751 16.79297411 63.01276122 16.77826264 57.92778015 16.75082397 C51.40495234 16.71672367 44.88291101 16.72276512 38.36004543 16.74148655 C33.34920682 16.75204661 28.33855172 16.74312792 23.32773018 16.72810173 C20.92233385 16.72291342 18.51691842 16.72340955 16.11152458 16.72964668 C12.75249265 16.73508734 9.39459326 16.71475964 6.03569031 16.68734741 C4.54019905 16.69713623 4.54019905 16.69713623 3.01449585 16.7071228 C-3.70096128 16.61377663 -3.70096128 16.61377663 -6.93511963 14.30415344 C-8.78714711 11.47941715 -9.27595413 9.533469 -9.34492493 6.15390015 C-7.02553503 1.18377894 -5.3334966 0.03736156 0 0 Z " fill="#000000" transform="translate(369.3449249267578,71.84609985351563)"/>
<path d="M0 0 C0.70587753 -0.00817749 1.41175507 -0.01635498 2.13902283 -0.02478027 C4.4789037 -0.04962755 6.81872399 -0.06614724 9.15869141 -0.08056641 C9.95724171 -0.08589008 10.75579201 -0.09121376 11.5785408 -0.09669876 C15.80414114 -0.12342572 20.02971196 -0.14280321 24.25537109 -0.15722656 C28.62269285 -0.17388604 32.98926167 -0.21867501 37.35629845 -0.26959801 C40.71231976 -0.30322837 44.06816128 -0.31479919 47.42433548 -0.32045364 C49.03433623 -0.3271764 50.64432473 -0.34242521 52.25416183 -0.36634445 C54.50730838 -0.39791556 56.75840971 -0.39804651 59.01171875 -0.390625 C60.9346022 -0.40275528 60.9346022 -0.40275528 62.89633179 -0.41513062 C66.13525391 0.19287109 66.13525391 0.19287109 68.55874634 2.59603882 C70.17898274 5.26490148 70.63143248 6.28806189 70.19775391 9.31787109 C70.12685547 9.98044922 70.05595703 10.64302734 69.98291016 11.32568359 C68.69211595 14.16899987 66.9098461 14.83546956 64.13525391 16.19287109 C60.91015625 16.58055115 60.91015625 16.58055115 57.22119141 16.59692383 C56.5457428 16.60378708 55.87029419 16.61065033 55.17437744 16.61772156 C52.95278609 16.63594838 50.73190361 16.63215877 48.51025391 16.62646484 C46.95995861 16.63102823 45.40966534 16.63633427 43.859375 16.64234924 C40.61466234 16.65127189 37.37019592 16.64886651 34.12548828 16.63891602 C29.97248851 16.62741947 25.82033815 16.64765174 21.66744995 16.67683315 C18.46747462 16.69519899 15.2677028 16.69490213 12.06768799 16.68919563 C10.53671069 16.6890425 9.00571952 16.69507988 7.47479248 16.70748711 C5.33242814 16.72240599 3.19163245 16.71171669 1.04931641 16.69458008 C-0.16804199 16.69441391 -1.38540039 16.69424774 -2.63964844 16.69407654 C-6.48201236 16.09694308 -8.13190977 14.90865851 -10.86474609 12.19287109 C-12.32771087 8.71832975 -11.97749728 7.47206451 -10.55224609 3.94287109 C-7.73032321 -0.65581805 -5.14301618 0.05165953 0 0 Z " fill="#000000" transform="translate(408.86474609375,36.80712890625)"/>
<path d="M0 0 C0.67289062 -0.02900391 1.34578125 -0.05800781 2.0390625 -0.08789062 C5.44701037 -0.13149626 7.2981591 0.07219114 10.07421875 2.11328125 C12.32150669 5.30024122 12.10090812 7.50523505 11.625 11.3125 C9.86484869 14.4975357 9.12609084 15.14546972 5.625 16.3125 C0.22817182 16.78145516 -4.66691269 17.18328961 -9.5625 14.6875 C-11.80904479 11.74375165 -12.375 10.01680594 -12.375 6.3125 C-9.4637345 0.07407392 -6.40610477 0.09099581 0 0 Z " fill="#000000" transform="translate(372.375,36.6875)"/>
</svg>
