<?xml version="1.0" encoding="UTF-8"?>
<svg version="1.1" xmlns="http://www.w3.org/2000/svg" width="512" height="512">
<path d="M0 0 C1.06235778 -0.00694553 2.12471556 -0.01389106 3.219266 -0.02104706 C6.76126727 -0.03927016 10.30259523 -0.02906535 13.84461975 -0.01878357 C16.39127095 -0.02584436 18.93791795 -0.03459005 21.48455811 -0.04489136 C27.6730723 -0.06504351 33.86133971 -0.06641745 40.049874 -0.05826581 C45.08200966 -0.05195391 50.11409177 -0.05311372 55.14622688 -0.05953789 C55.86371417 -0.06043954 56.58120145 -0.0613412 57.32043077 -0.06227018 C58.77821967 -0.06412147 60.23600855 -0.06598403 61.69379742 -0.06785773 C75.34953103 -0.08441875 89.00516118 -0.07573153 102.66088856 -0.05887216 C115.14051393 -0.04417706 127.61989848 -0.05880382 140.09949284 -0.08764232 C152.9300131 -0.11706977 165.76042235 -0.12799884 178.59097487 -0.11846012 C180.04356577 -0.11743762 181.49615669 -0.11644301 182.94874763 -0.11547661 C183.66335429 -0.11500022 184.37796095 -0.11452383 185.11422236 -0.114033 C190.13660525 -0.11187326 195.15888251 -0.12164941 200.18124199 -0.13624763 C206.94885988 -0.15564521 213.71596006 -0.1486348 220.48358345 -0.12404823 C222.96433922 -0.11904329 225.44512911 -0.12252176 227.92585754 -0.13519669 C231.31835263 -0.15115624 234.7093802 -0.13614668 238.10180664 -0.11352539 C239.07818571 -0.12536112 240.05456477 -0.13719685 241.06053108 -0.14939123 C249.31761143 -0.03790758 255.68965664 2.61108105 261.98939514 7.9521637 C269.6464135 17.18562701 270.41228084 24.4626526 270.38182068 36.08918762 C270.38635179 37.35739216 270.3908829 38.62559669 270.39555132 39.93223166 C270.40775425 43.44109528 270.40752407 46.94986335 270.40516257 50.45874333 C270.40475372 54.24756534 270.41580013 58.036357 270.42527771 61.82516479 C270.44187398 69.24412865 270.44738664 76.66306072 270.44850247 84.08204159 C270.44945362 90.11439391 270.4535673 96.14673577 270.45990372 102.17908478 C270.47751264 119.29198209 270.48674317 136.40485434 270.48524277 153.51776078 C270.48516286 154.43986863 270.48508294 155.36197647 270.48500061 156.31202698 C270.48491885 157.23526425 270.48483709 158.15850151 270.48475285 159.10971567 C270.48394012 174.0686582 270.50307533 189.02749999 270.53127734 203.98641339 C270.56002431 219.35599395 270.57381663 234.72552542 270.57208979 250.09513354 C270.5714265 258.72001828 270.57689204 267.34479742 270.59844589 275.9696579 C270.61668159 283.31366746 270.62098549 290.65752356 270.60742705 298.001546 C270.6009093 301.74575751 270.60073659 305.48967482 270.61813354 309.23385811 C270.63683236 313.30019502 270.62427874 317.36585454 270.60887146 321.4322052 C270.61915859 322.60547403 270.62944571 323.77874285 270.64004457 324.98756528 C270.56857001 333.54282919 269.11759334 341.83868944 263.92689514 348.8896637 C258.57484896 353.8849068 252.14940935 357.63190835 244.70987511 357.64888477 C243.8037694 357.65334262 242.8976637 357.65780046 241.96410024 357.66239339 C240.96733129 357.66220903 239.97056233 357.66202467 238.94358826 357.66183472 C237.88565146 357.6655114 236.82771466 357.66918809 235.73771918 357.6729762 C232.17495919 357.6840333 228.61222834 357.68786033 225.04945374 357.69166565 C222.50206916 357.69792879 219.9546855 357.70457545 217.40730286 357.71157837 C209.74956495 357.73082085 202.09183216 357.74140923 194.43407625 357.75030616 C190.82701274 357.75468995 187.21995069 357.76005657 183.61288834 357.76529503 C171.62024172 357.78230799 159.62759602 357.79680143 147.63493919 357.80404377 C144.52278517 357.80595364 141.41063116 357.80787397 138.29847717 357.80982971 C137.52497463 357.81031345 136.75147209 357.81079719 135.95453008 357.81129559 C123.42862685 357.81959314 110.9028192 357.84492506 98.3769577 357.87741039 C85.51388619 357.91049794 72.65086322 357.92849411 59.78774893 357.93168801 C52.56684228 357.93385167 45.34607496 357.94257903 38.12520981 357.96814919 C31.33067796 357.99215412 24.53643998 357.99567123 17.74185944 357.9853878 C15.24939007 357.98489183 12.75690846 357.99123027 10.26447678 358.00494385 C6.85838523 358.02263425 3.45319611 358.01556957 0.04710388 358.00241089 C-0.93628074 358.01338013 -1.91966537 358.02434938 -2.93284953 358.03565103 C-11.32299893 357.95754438 -18.83472022 355.56554834 -24.88560486 349.5146637 C-31.51737836 340.67874389 -32.18128654 332.72541003 -32.1530304 321.94013977 C-32.15756151 320.67193524 -32.16209262 319.4037307 -32.16676104 318.09709573 C-32.17896396 314.58823211 -32.17873379 311.07946404 -32.17637229 307.57058406 C-32.17596343 303.78176205 -32.18700984 299.99297039 -32.19648743 296.2041626 C-32.2130837 288.78519874 -32.21859636 281.36626667 -32.21971218 273.9472858 C-32.22066334 267.91493348 -32.22477702 261.88259162 -32.23111343 255.85024261 C-32.24872236 238.7373453 -32.25795289 221.62447305 -32.25645249 204.51156661 C-32.25637257 203.58945877 -32.25629266 202.66735092 -32.25621033 201.71730042 C-32.25612857 200.79406315 -32.2560468 199.87082588 -32.25596257 198.91961172 C-32.25514984 183.96066919 -32.27428505 169.0018274 -32.30248706 154.042914 C-32.33123403 138.67333344 -32.34502635 123.30380197 -32.34329951 107.93419385 C-32.34263622 99.30930911 -32.34810176 90.68452997 -32.36965561 82.05966949 C-32.38789131 74.71565993 -32.39219521 67.37180383 -32.37863676 60.0277814 C-32.37211901 56.28356988 -32.3719463 52.53965258 -32.38934326 48.79546928 C-32.40804208 44.72913237 -32.39548845 40.66347286 -32.38008118 36.59712219 C-32.3903683 35.42385337 -32.40065543 34.25058454 -32.41125429 33.04176211 C-32.32210437 22.3708179 -30.07169939 13.90044907 -22.37388611 6.26856995 C-15.19929979 1.21144396 -8.65810266 -0.07290895 0 0 Z M-13.88560486 21.5146637 C-15.84637867 24.68195238 -16.13662618 27.08771618 -16.14008045 30.78742123 C-16.14591265 31.86170437 -16.15174484 32.93598751 -16.15775377 34.04282469 C-16.15397444 35.22228385 -16.15019512 36.40174301 -16.14630127 37.61694336 C-16.15012682 38.8704838 -16.15395236 40.12402425 -16.15789384 41.41555077 C-16.16819979 44.89717483 -16.16598545 48.37869621 -16.16171324 51.86032879 C-16.15925072 55.61432013 -16.16825426 59.36828644 -16.17575073 63.12226868 C-16.18851287 70.47747053 -16.19028955 77.83263589 -16.18795047 85.18784695 C-16.18616888 91.16502083 -16.18791352 97.14218361 -16.19217491 103.11935616 C-16.1927701 103.96940648 -16.19336529 104.81945681 -16.19397851 105.69526624 C-16.19519024 107.42203045 -16.19640437 109.14879465 -16.19762089 110.87555886 C-16.20850221 127.07626682 -16.2063311 143.27695397 -16.20023604 159.47766311 C-16.19506604 174.30503563 -16.20632347 189.13234248 -16.22533426 203.95970201 C-16.24469667 219.17773601 -16.2529715 234.39573892 -16.24921101 249.61378533 C-16.24729658 258.16025425 -16.24981009 266.70666725 -16.26392555 275.25312614 C-16.27581997 282.52855898 -16.27726609 289.80390147 -16.26513539 297.0793355 C-16.25923308 300.79235504 -16.25818437 304.50520918 -16.27013779 308.21821785 C-16.28293733 312.24074407 -16.27256441 316.26287411 -16.25982666 320.28540039 C-16.26720095 321.46262883 -16.27457523 322.63985727 -16.28217298 323.8527593 C-16.27496643 324.92965019 -16.26775989 326.00654108 -16.26033497 327.11606503 C-16.26038998 328.04459126 -16.260445 328.9731175 -16.26050168 329.9297809 C-15.63307163 334.25585958 -13.60663893 336.84909378 -10.44810486 339.7646637 C-6.84341307 342.22640443 -3.87598615 342.63885937 0.42890644 342.64609146 C1.28946905 342.64993261 2.15003167 342.65377375 3.03667194 342.65773129 C3.97741901 342.65686481 4.91816609 342.65599833 5.88742065 342.65510559 C7.39196958 342.65956227 7.39196958 342.65956227 8.92691344 342.66410899 C12.29776534 342.67280091 15.66858174 342.67430466 19.03944397 342.67579651 C21.45229163 342.6804243 23.86513855 342.6854489 26.27798462 342.69084167 C32.83999112 342.70397063 39.40199024 342.71044819 45.96400666 342.71485233 C50.0620418 342.71761609 54.16007459 342.72185367 58.25810814 342.72635651 C69.60656619 342.73854759 80.95502236 342.74884747 92.30348682 342.7522316 C93.39268325 342.75256095 93.39268325 342.75256095 94.50388364 342.75289695 C95.23174023 342.75311523 95.95959682 342.75333351 96.70950967 342.7535584 C98.18439663 342.75400186 99.65928358 342.75444843 101.13417053 342.75489807 C101.86576359 342.7551195 102.59735664 342.75534093 103.35111918 342.75556907 C115.20577385 342.75951717 127.06036705 342.77697227 138.91499797 342.80025759 C151.08878445 342.82397664 163.26254009 342.83643369 175.43635005 342.83759952 C182.27038368 342.83851592 189.10433721 342.84425966 195.93834877 342.86241913 C202.36595042 342.87943866 208.79344059 342.88106859 215.2210598 342.87228012 C217.5805235 342.8715083 219.93999528 342.87587147 222.29943848 342.88573837 C225.51994729 342.89841665 228.73991384 342.89260312 231.9604187 342.88215637 C232.89447361 342.89021278 233.82852852 342.89826918 234.79088813 342.90656972 C241.40655366 342.85636599 246.28292775 341.89905729 251.48939514 337.5146637 C254.1526707 334.23678609 254.24077227 331.438465 254.24861622 327.36774731 C254.25307406 326.29607191 254.25753191 325.22439652 254.26212484 324.12024611 C254.26194047 322.93855623 254.26175611 321.75686634 254.26156616 320.53936768 C254.26708119 318.66139699 254.26708119 318.66139699 254.27270764 316.74548751 C254.28273064 313.26356448 254.2864449 309.78165868 254.28909695 306.29972327 C254.29299904 302.54706249 254.30257735 298.79441537 254.31130981 295.04176331 C254.3310755 285.97654075 254.34113994 276.91131708 254.3500376 267.84607837 C254.35441977 263.57864717 254.35978672 259.31121722 254.36502647 255.043787 C254.3820378 240.86107866 254.39653295 226.67837109 254.40377522 212.49565411 C254.40568515 208.81489753 254.40760548 205.13414095 254.40956116 201.4533844 C254.4100449 200.53853603 254.41052864 199.62368766 254.41102704 198.68111662 C254.41933102 183.85434371 254.44467456 169.02765139 254.47714183 154.20091369 C254.51019225 138.98404113 254.52822209 123.76720955 254.53141946 108.5503009 C254.53358628 100.00431529 254.54236016 91.45844724 254.56788063 82.91249657 C254.58955999 75.63596071 254.59765168 68.35957096 254.58791385 61.08300646 C254.58336125 57.36981447 254.58531066 53.65692412 254.60467529 49.94377327 C254.62548264 45.91927221 254.61534735 41.89544358 254.60214233 37.87091064 C254.61311158 36.69591293 254.62408083 35.52091521 254.63538247 34.3103115 C254.58581703 28.07484911 254.40956929 24.18858991 250.11439514 19.5146637 C247.23662089 16.99883293 245.49257594 16.13938164 241.67215157 16.13155365 C240.33858185 16.11796869 240.33858185 16.11796869 238.97807133 16.10410929 C238.00551455 16.10943721 237.03295777 16.11476514 236.03092957 16.12025452 C234.99452296 16.11416341 233.95811636 16.10807231 232.89030349 16.10179663 C229.40645934 16.0851055 225.92297824 16.08995126 222.43910217 16.09474182 C219.94581216 16.08740504 217.45252555 16.07881996 214.95924377 16.06907654 C208.88304866 16.04912455 202.80699707 16.04348224 196.73078193 16.04526442 C191.79193868 16.04657163 186.85312521 16.04277002 181.91428757 16.03533936 C180.49208923 16.03324017 179.0698909 16.03114257 177.64769256 16.02904654 C176.93983835 16.02800301 176.23198415 16.02695948 175.50267981 16.02588433 C162.11226292 16.00697787 148.72190079 16.00803332 135.33147608 16.01485366 C123.08163012 16.02042875 110.83199333 15.99960598 98.58219625 15.96649319 C86.00498459 15.93275918 73.42787313 15.91758753 60.85061538 15.92221022 C53.78909256 15.9244553 46.72776303 15.91920632 39.66627884 15.89431763 C33.02602081 15.87111298 26.38612566 15.87388374 19.74583435 15.89424515 C17.30693602 15.8976648 14.86800864 15.89252531 12.42914963 15.87826157 C9.10286313 15.86014821 5.77806849 15.87276101 2.451828 15.89320374 C1.48373266 15.88068589 0.51563732 15.86816804 -0.48179424 15.85527086 C-6.71669602 15.9375791 -9.63271512 16.86332212 -13.88560486 21.5146637 Z " fill="#000000" transform="translate(237.88560485839844,154.48533630371094)"/>
<path d="M0 0 C1.62526863 -0.0129007 1.62526863 -0.0129007 3.28337097 -0.02606201 C5.06702057 -0.03245193 5.06702057 -0.03245193 6.88670349 -0.03897095 C8.13904282 -0.04714844 9.39138214 -0.05532593 10.68167114 -0.06375122 C14.83782126 -0.08861971 18.99393494 -0.10528149 23.15013123 -0.11953735 C24.583465 -0.1248989 26.01679871 -0.13027642 27.45013237 -0.13566971 C33.41647374 -0.15729952 39.38281243 -0.17603257 45.34918308 -0.1872921 C53.88369448 -0.20350636 62.41774881 -0.23662086 70.95208794 -0.29369295 C76.96074749 -0.33249564 82.96928537 -0.35193722 88.97806686 -0.35721266 C92.56230268 -0.3608535 96.14605076 -0.37273697 99.73015022 -0.4053154 C103.73703412 -0.44121348 107.74294666 -0.43699916 111.74998474 -0.42959595 C112.92491486 -0.44600128 114.09984497 -0.46240662 115.31037903 -0.47930908 C123.76730821 -0.41554409 130.57333828 1.27993219 136.91323185 7.13062477 C143.75869831 14.36795708 145.888258 22.13809464 145.90493774 32.00918579 C145.91133522 33.72898903 145.91133522 33.72898903 145.91786194 35.48353577 C145.91740875 36.72730484 145.91695557 37.97107391 145.91648865 39.25253296 C145.91948367 40.58693027 145.92288699 41.92132672 145.92666626 43.25572205 C145.93547679 46.86956395 145.93784317 50.48338216 145.93848205 54.09723377 C145.93919437 56.35906277 145.94133216 58.6208858 145.94397926 60.88271332 C145.95322383 68.78512452 145.95731537 76.68751888 145.95652771 84.5899353 C145.95592757 91.9368858 145.96646921 99.28376273 145.98227137 106.63069463 C145.9953827 112.95364069 146.00071008 119.27656281 146.0000723 125.59952235 C145.99981831 129.36909115 146.00261421 133.13859456 146.01325035 136.90814972 C146.02299169 140.45733589 146.02296954 144.00639498 146.01573372 147.55558586 C146.01420361 149.46444699 146.0224928 151.37330827 146.03117371 153.28215027 C145.99166756 164.18712666 145.32298891 173.76839582 137.77122498 182.15390015 C129.23534459 189.2849487 121.51663868 190.45208638 110.66648865 190.42855835 C109.45111923 190.43366928 108.23574982 190.43878021 106.98355103 190.44404602 C103.66101141 190.45554224 100.33872177 190.458019 97.0161798 190.45548272 C94.23563553 190.45440996 91.45511404 190.45930435 88.67457467 190.46408814 C82.10968739 190.47517035 75.54485732 190.47562849 68.97996521 190.46957397 C62.22483895 190.46353939 55.46992126 190.47583492 48.71483058 190.49714404 C42.90059088 190.51480564 37.08641728 190.52075411 31.27215177 190.5175063 C27.80607353 190.51569999 24.34014396 190.51826366 20.87409019 190.53222084 C17.00402644 190.54722248 13.13422458 190.53778928 9.2641449 190.5262146 C8.1277356 190.53385834 6.99132629 190.54150208 5.82048035 190.54937744 C-4.53010816 190.48113482 -11.69889125 188.53840149 -19.27955627 181.34140015 C-25.21573702 174.67955402 -26.34793432 167.67106035 -26.3740387 158.94857788 C-26.37739731 158.24226227 -26.38075592 157.53594666 -26.38421631 156.80822754 C-26.39367855 154.48463155 -26.39566671 152.16110792 -26.39674377 149.8374939 C-26.39995849 148.21754426 -26.40332273 146.59759491 -26.40682983 144.97764587 C-26.41280843 141.5875786 -26.41467092 138.19753677 -26.41407776 134.8074646 C-26.41397594 130.46404897 -26.42765369 126.12079609 -26.44484997 121.77741909 C-26.45596536 118.43427276 -26.45799715 115.09116593 -26.45746803 111.74800301 C-26.45864786 110.14642842 -26.4630698 108.5448528 -26.4708004 106.94329643 C-26.48059563 104.70535699 -26.47772477 102.46777303 -26.47169495 100.22982788 C-26.47311996 98.95695419 -26.47454498 97.68408051 -26.47601318 96.37263489 C-26.24225658 93.32941328 -25.89846244 91.66510272 -24.22877502 89.15390015 C-21.55244477 87.07230995 -20.11123835 87.15802424 -16.66627502 87.27890015 C-13.22877502 88.15390015 -13.22877502 88.15390015 -11.53797913 89.77307129 C-9.7607073 93.00509603 -9.85005152 95.43975614 -9.8440094 99.12216187 C-9.83863663 99.8153653 -9.83326385 100.50856873 -9.82772827 101.22277832 C-9.81796348 102.72433565 -9.81500221 104.22594933 -9.81808472 105.72753525 C-9.82256976 108.10732599 -9.80854317 110.4863758 -9.78968811 112.86608887 C-9.75292652 117.92034724 -9.73920358 122.97452779 -9.72877502 128.02890015 C-9.71668314 133.88053657 -9.69506303 139.73181183 -9.64877319 145.58328629 C-9.63523642 147.92206384 -9.63936802 150.26038098 -9.6441803 152.59918213 C-9.63483507 154.04174376 -9.62466509 155.48430036 -9.61354065 156.92684937 C-9.61148621 158.18053314 -9.60943176 159.43421692 -9.60731506 160.72589111 C-9.07910036 165.50933429 -7.78927035 168.68321724 -4.26501465 172.00463867 C0.54045872 173.82358121 5.25611769 173.57010818 10.35105896 173.54208374 C11.52233337 173.5473407 12.69360779 173.55259766 13.90037537 173.55801392 C17.77282541 173.57121939 21.64486448 173.56247288 25.51731873 173.55233765 C28.20865206 173.5530057 30.89997807 173.55726522 33.59130859 173.56103516 C39.23278758 173.5664893 44.87414866 173.55931093 50.51560974 173.54501343 C57.02937386 173.52869538 63.54285612 173.53397047 70.05661339 173.55049264 C75.65678609 173.56412678 81.25687416 173.56601755 86.85705811 173.55817664 C90.19843657 173.55350961 93.53957668 173.55403317 96.88096428 173.5627861 C100.60816863 173.57040617 104.33483235 173.55878715 108.06199646 173.54208374 C109.71501518 173.55119278 109.71501518 173.55119278 111.40142822 173.56048584 C116.89746237 173.51486523 121.09830594 173.40154595 125.77122498 170.15390015 C128.74267897 165.69671915 128.89571132 161.74099908 128.91166687 156.47460938 C128.91737701 155.34194138 128.92308716 154.20927338 128.92897034 153.0422821 C128.9300882 151.8089061 128.93120605 150.57553009 128.93235779 149.30477905 C128.93732269 147.99856094 128.9422876 146.69234283 128.94740295 145.34654236 C128.96048843 141.7700367 128.96696409 138.19354978 128.97141361 134.61702394 C128.9743499 132.38051764 128.9784557 130.14401641 128.98291779 127.90751266 C128.9965811 120.90387739 129.00625408 113.90025376 129.01011968 106.89660609 C129.01460102 98.82286023 129.03215725 90.74928361 129.06112027 82.6755892 C129.08275661 76.42659493 129.09282496 70.17764821 129.0941608 63.92861688 C129.09520721 60.19988956 129.10108028 56.47132158 129.11898041 52.74263382 C129.13856592 48.58225521 129.13416437 44.42222996 129.12767029 40.2618103 C129.14149246 38.41781898 129.14149246 38.41781898 129.15559387 36.53657532 C129.12528175 30.34092551 129.00755329 25.52664874 125.77122498 20.15390015 C122.7362148 17.34250644 120.72202359 16.77641776 116.62306213 16.75949097 C115.58287933 16.74814117 114.54269653 16.73679138 113.47099304 16.72509766 C112.33530884 16.72802826 111.19962463 16.73095886 110.02952576 16.73397827 C108.82913666 16.72550873 107.62874756 16.71703918 106.39198303 16.70831299 C103.10256537 16.68892242 99.81349575 16.68316601 96.52403116 16.6850605 C93.77560038 16.68518025 91.02722259 16.67661416 88.27880657 16.66828299 C81.79268217 16.64905047 75.30668648 16.64616423 68.82054138 16.65292358 C62.1356938 16.65956205 55.45139833 16.63670824 48.76666272 16.59960985 C43.02212986 16.56888948 37.27777438 16.55755539 31.53316104 16.56144667 C28.10448444 16.56351209 24.67623733 16.55806813 21.2476387 16.53355408 C17.42188412 16.51143712 13.59746301 16.52103205 9.77171326 16.53866577 C8.64007751 16.52540253 7.50844177 16.51213928 6.34251404 16.49847412 C-0.24337198 16.51750909 -0.24337198 16.51750909 -5.91630554 19.50485229 C-9.80921178 23.96436841 -9.37612009 28.20358788 -9.40455627 33.8374939 C-9.42774874 35.58685496 -9.45186584 37.33620397 -9.4768219 39.08554077 C-9.51197377 41.84188991 -9.54130609 44.59779327 -9.55470276 47.3543396 C-9.57016748 50.01593766 -9.61035783 52.67623827 -9.65455627 55.3374939 C-9.65264786 56.16051498 -9.65073944 56.98353607 -9.64877319 57.83149719 C-9.72942634 61.60141016 -9.79279092 63.55156523 -12.04981995 66.66976929 C-15.29985381 68.88343381 -17.38946761 68.76010658 -21.22877502 68.15390015 C-23.91543367 66.16952248 -25.88616009 64.58389575 -26.68925476 61.23196411 C-26.87432926 58.90746017 -26.89562806 56.63393913 -26.85768127 54.30233765 C-26.86009323 53.447659 -26.86250519 52.59298035 -26.86499023 51.71240234 C-26.86401262 49.90525676 -26.85063927 48.09808092 -26.82569885 46.29110718 C-26.79163901 43.55810668 -26.80498081 40.82838947 -26.82447815 38.0953064 C-26.81475653 27.46963418 -26.02877341 18.73082042 -20.60377502 9.34140015 C-14.73500545 3.93595449 -8.04507923 0.04754382 0 0 Z " fill="#000000" transform="translate(30.228775024414063,154.84609985351563)"/>
<path d="M0 0 C0.83178916 -0.00175304 1.66357831 -0.00350607 2.5205732 -0.00531223 C5.33811382 -0.01000435 8.15560357 -0.00749853 10.97314644 -0.00507832 C13.00142399 -0.00694468 15.02970118 -0.00924467 17.0579778 -0.01194364 C22.65531504 -0.01808972 28.25263741 -0.01792476 33.84997725 -0.01674926 C39.8773438 -0.01654596 45.90470548 -0.02205724 51.93206978 -0.02680683 C63.74963844 -0.0351293 75.56720228 -0.03787532 87.38477312 -0.03841921 C96.98614247 -0.03887822 106.58751019 -0.04093377 116.18887901 -0.04411983 C118.94959962 -0.04501734 121.71032023 -0.04590715 124.47104084 -0.04679471 C125.50043837 -0.04712628 125.50043837 -0.04712628 126.5506318 -0.04746456 C145.86203706 -0.05362138 165.17344175 -0.05756485 184.48484802 -0.05712128 C185.57764954 -0.05709791 185.57764954 -0.05709791 186.69252785 -0.05707407 C190.38529659 -0.05699096 194.07806533 -0.05689192 197.77083407 -0.05678936 C198.50427092 -0.05676942 199.23770777 -0.05674947 199.99336997 -0.05672892 C201.47655894 -0.05668848 202.9597479 -0.05664669 204.44293686 -0.05660353 C227.52341707 -0.05599066 250.60388259 -0.06349848 273.6843586 -0.07717609 C299.596942 -0.09252559 325.50951576 -0.101143 351.422104 -0.10021287 C354.18345332 -0.10013824 356.94480264 -0.10008953 359.70615196 -0.10005856 C360.72607298 -0.10004107 360.72607298 -0.10004107 361.76659846 -0.10002324 C372.72471735 -0.09999242 383.68282352 -0.10638745 394.64093863 -0.11499082 C405.64792638 -0.12345401 416.6548992 -0.12429567 427.66188942 -0.1178815 C433.62885085 -0.11460382 439.59576605 -0.11460432 445.56272316 -0.12323475 C451.01916147 -0.13104589 456.47551647 -0.12972399 461.93195261 -0.12095062 C463.91176284 -0.11940366 465.89157912 -0.12127624 467.87138222 -0.12681069 C470.55135082 -0.13380948 473.23102216 -0.12862573 475.91098022 -0.12025452 C476.68923843 -0.1252227 477.46749664 -0.13019088 478.26933843 -0.13530961 C482.010408 -0.11040745 484.94862481 -0.04421279 488.08133125 2.12863445 C490.17812528 4.82451249 490.07643946 6.22157845 489.89383125 9.69113445 C488.80281735 14.30696251 488.80281735 14.30696251 486.08133125 16.12863445 C483.30566452 16.42459384 480.75403341 16.53451714 477.9771452 16.5117445 C476.71760045 16.51918377 476.71760045 16.51918377 475.43261036 16.52677333 C472.59405849 16.53981757 469.75597026 16.53131697 466.91740608 16.52304363 C464.87176329 16.52792836 462.82612325 16.53411621 460.78048795 16.54150152 C455.13976675 16.55797719 449.4991846 16.55556767 443.85844767 16.55012655 C437.78268486 16.54746572 431.70695991 16.56197025 425.63121223 16.57422161 C413.72085805 16.59531775 401.81055116 16.59983288 389.90018494 16.59803373 C380.22351013 16.5966621 370.54685013 16.60047123 360.87017822 16.60795879 C359.48127134 16.60900912 358.09236446 16.61005673 356.70345758 16.61110166 C356.01403945 16.611621 355.32462133 16.61214034 354.61431174 16.61267543 C353.92365131 16.61319557 353.23299088 16.61371571 352.52140135 16.61425161 C351.48371244 16.6150376 351.48371244 16.6150376 350.42506011 16.61583947 C330.96039917 16.6304285 311.49574368 16.6387027 292.03107738 16.63408947 C290.92977773 16.63383154 290.92977773 16.63383154 289.80622961 16.63356839 C286.08478548 16.63267947 282.36334137 16.63173466 278.64189727 16.63077039 C277.902771 16.63057935 277.16364474 16.63038832 276.40212071 16.6301915 C274.90742705 16.62980441 273.4127334 16.62941408 271.91803974 16.62902052 C248.65610475 16.62304934 225.39426921 16.63849165 202.13235664 16.67062664 C176.01356556 16.70667741 149.89483754 16.72603987 123.77601999 16.72108793 C120.99278002 16.72061793 118.20954004 16.72020769 115.42630005 16.71983624 C114.7409666 16.71973385 114.05563316 16.71963146 113.34953203 16.71952597 C102.9895704 16.71832956 92.62967675 16.73031887 82.26973343 16.74898052 C70.49198174 16.7701855 58.71434761 16.7736383 46.93658073 16.75468093 C40.92294579 16.74549056 34.90959588 16.74448082 28.89598274 16.76503658 C23.39687262 16.78362642 17.89828336 16.77937862 12.39919382 16.75649077 C10.40393545 16.75227452 8.40863808 16.75660533 6.4134208 16.77008671 C3.71209315 16.78710403 1.01261389 16.77366708 -1.68864155 16.75225353 C-2.47303129 16.76453106 -3.25742103 16.77680858 -4.06558016 16.78945816 C-7.88542267 16.72569558 -9.58022631 16.43940927 -12.4369517 13.81622076 C-14.45869753 10.14911279 -14.02297823 8.10414858 -12.91866875 4.12863445 C-9.40443418 -0.45514977 -5.37442934 -0.01410856 0 0 Z " fill="#000000" transform="translate(17.918668746948242,105.87136554718018)"/>
<path d="M0 0 C2.19543223 0.01400556 4.38670439 -0.02045699 6.58178711 -0.05834961 C7.98608502 -0.05929979 9.39038825 -0.05744741 10.79467773 -0.05249023 C12.05707275 -0.05321533 13.31946777 -0.05394043 14.62011719 -0.0546875 C17.86889648 0.57641602 17.86889648 0.57641602 20.27978516 2.92431641 C22.22331608 6.16791395 22.50204429 7.85667268 21.86889648 11.57641602 C20.00179738 13.87917158 18.51241907 15.25465472 15.86889648 16.57641602 C13.89564332 16.68299407 11.91914001 16.73187411 9.94311523 16.75219727 C8.75395508 16.77604492 7.56479492 16.79989258 6.33959961 16.82446289 C3.82935272 16.8672291 1.31888408 16.89858912 -1.19165039 16.91821289 C-2.38467773 16.94592773 -3.57770508 16.97364258 -4.80688477 17.00219727 C-5.89912354 17.01677979 -6.9913623 17.0313623 -8.11669922 17.04638672 C-11.83761562 17.70064358 -13.46868878 18.9326583 -16.13110352 21.57641602 C-18.63674423 25.26004044 -18.41358895 29.07694368 -18.38989258 33.37084961 C-18.39339722 34.15183517 -18.39690186 34.93282074 -18.4005127 35.73747253 C-18.40930777 38.31669023 -18.4034876 40.89563307 -18.39672852 43.47485352 C-18.39807608 45.27080335 -18.40001737 47.06675283 -18.40252686 48.86270142 C-18.40547533 52.62700879 -18.40119036 56.39122124 -18.3918457 60.15551758 C-18.38046776 64.97295912 -18.38700186 69.7901774 -18.39899063 74.6076107 C-18.4062307 78.31714549 -18.40391116 82.02662769 -18.39873505 85.73616409 C-18.39740364 87.51191866 -18.39902841 89.28767804 -18.40369415 91.06342697 C-18.40879285 93.55014361 -18.40100164 96.0365032 -18.38989258 98.52319336 C-18.39394104 99.25274734 -18.3979895 99.98230133 -18.40216064 100.73396301 C-18.36642535 105.06817543 -18.31419896 108.78691216 -16.13110352 112.57641602 C-9.91675473 116.24161965 -2.6514035 116.00048657 4.33618164 115.94873047 C5.44791245 115.95238113 6.55964325 115.9560318 7.70506287 115.95979309 C11.35618675 115.96785648 15.006861 115.95432478 18.65795898 115.93969727 C21.20665486 115.93917823 23.75535115 115.93969761 26.30404663 115.94120789 C31.63497417 115.94111836 36.96574589 115.93106864 42.29663086 115.91259766 C48.44573497 115.89141264 54.59465227 115.88792649 60.7437855 115.89415962 C66.6806347 115.89986764 72.61742802 115.89408582 78.5542717 115.88298607 C81.07162589 115.87914229 83.58898569 115.87798244 86.10634232 115.87957191 C89.62446989 115.87994341 93.14231528 115.86729897 96.66040039 115.85107422 C97.69642899 115.85355164 98.73245758 115.85602905 99.79988098 115.85858154 C109.34376485 115.91054946 109.34376485 115.91054946 117.24389648 111.20141602 C120.06689175 106.6411929 120.02156363 102.42553686 120.0300293 97.16503906 C120.0349942 96.42467407 120.03995911 95.68430908 120.04507446 94.92150879 C120.05965527 92.47704125 120.06649138 90.03263861 120.07202148 87.58813477 C120.07777645 85.88426208 120.08353414 84.1803894 120.08929443 82.47651672 C120.09979292 78.90475158 120.10564307 75.33300887 120.10913086 71.76123047 C120.11461211 67.19493855 120.13863705 62.62894533 120.16710281 58.062747 C120.18576984 54.5427617 120.19093696 51.02284776 120.19246674 47.50281715 C120.19548479 45.81997864 120.20348462 44.13714113 120.21665192 42.45435143 C120.23379732 40.09466503 120.23181177 37.73570078 120.2253418 35.37597656 C120.23916397 34.34314293 120.23916397 34.34314293 120.25326538 33.28944397 C120.20439512 27.57038614 119.06341385 22.92830756 115.08348083 18.66296387 C112.09245108 17.19546639 109.76462372 17.19760536 106.43554688 17.19165039 C105.13061783 17.18153931 103.82568878 17.17142822 102.48121643 17.16101074 C101.78645266 17.16256668 101.09168888 17.16412262 100.37587166 17.16572571 C98.19376021 17.17021288 96.01245589 17.15617931 93.83042908 17.1373291 C89.19743128 17.100583 84.56451854 17.08684423 79.93139648 17.07641602 C74.56458772 17.06432642 69.19817298 17.04273599 63.83154106 16.99641418 C61.68604327 16.982868 59.54104667 16.98701028 57.39552307 16.99182129 C55.43340126 16.97665466 55.43340126 16.97665466 53.43164062 16.96118164 C52.28232559 16.9591272 51.13301056 16.95707275 49.9488678 16.95495605 C46.51575118 16.53301313 44.62790688 15.62863232 41.86889648 13.57641602 C40.4422743 10.72317164 40.55855781 8.74187053 40.86889648 5.57641602 C42.46261597 2.91763306 42.46261597 2.91763306 44.86889648 0.57641602 C47.97805786 -0.0585022 47.97805786 -0.0585022 51.68188477 -0.07055664 C52.35890945 -0.07931824 53.03593414 -0.08807983 53.73347473 -0.09710693 C55.96937428 -0.11909062 58.20328961 -0.10454502 60.43920898 -0.08764648 C62.00137713 -0.09101734 63.56354271 -0.09587221 65.1257019 -0.10214233 C68.40265835 -0.10951413 71.67893339 -0.09880802 74.95581055 -0.07543945 C79.13212608 -0.04709182 83.30682502 -0.06326236 87.48307991 -0.09330177 C90.71249252 -0.11148857 93.94153091 -0.1055628 97.17095566 -0.09266281 C98.70895458 -0.08935268 100.24698869 -0.09333068 101.78494644 -0.10506058 C111.81835986 -0.1647433 120.33639148 0.44028521 127.99783325 7.55282593 C135.4489729 15.37486921 137.02098046 23.78682294 137.01416016 34.36669922 C137.01751877 35.12365082 137.02087738 35.88060242 137.02433777 36.66049194 C137.03379421 39.14941067 137.03578825 41.63826172 137.03686523 44.12719727 C137.04008168 45.86826098 137.04344604 47.60932442 137.04695129 49.35038757 C137.05292942 52.99596788 137.05479257 56.64152452 137.05419922 60.28710938 C137.05409771 64.94051722 137.06774385 69.5937721 137.08497143 74.24714375 C137.09613324 77.84269395 137.09811714 81.43820767 137.09758949 85.03377342 C137.09876354 86.7484407 137.10315276 88.4631091 137.11092186 90.17775917 C137.21215982 114.83006185 137.21215982 114.83006185 128.23217773 124.30297852 C120.48379439 131.37229006 113.46271601 132.0194247 103.28344727 131.98046875 C102.02891754 131.987332 100.77438782 131.99419525 99.48184204 132.00126648 C96.05595724 132.01639007 92.6306185 132.01803986 89.204741 132.01232409 C86.33715072 132.00922368 83.46960919 132.01533428 80.60202587 132.02136284 C73.83237994 132.035389 67.06286025 132.03386329 60.29321289 132.02246094 C53.32725997 132.01098664 46.36169237 132.02504785 39.39579022 132.05185741 C33.39892763 132.07406674 27.40218553 132.08063991 21.40528476 132.074781 C17.83075599 132.07142205 14.25647403 132.07375491 10.68198013 132.09103203 C6.69211975 132.10947657 2.70300103 132.09526061 -1.28686523 132.078125 C-3.04522705 132.09262695 -3.04522705 132.09262695 -4.83911133 132.10742188 C-13.83644298 132.02669811 -21.59188436 130.11563517 -28.13110352 123.57641602 C-33.59407058 116.29776894 -35.43247261 109.15312009 -35.42163086 100.15356445 C-35.42834808 99.34115799 -35.43506531 98.52875153 -35.44198608 97.69172668 C-35.4608835 95.02301811 -35.46488629 92.35456221 -35.46704102 89.68579102 C-35.47347539 87.81642558 -35.48020423 85.94706113 -35.48721313 84.07769775 C-35.4991658 80.16399809 -35.5028961 76.25038654 -35.50170898 72.33666992 C-35.50150608 67.34589365 -35.52878799 62.35568861 -35.5632534 57.36504745 C-35.58560092 53.50432796 -35.5895441 49.64374414 -35.58848953 45.78296661 C-35.59083446 43.94433884 -35.59959481 42.10570668 -35.61515427 40.26714325 C-35.78959471 17.52306607 -35.78959471 17.52306607 -27.44360352 8.13891602 C-19.66037001 0.42234832 -10.37578171 -0.09263044 0 0 Z " fill="#000000" transform="translate(39.131103515625,380.423583984375)"/>
<path d="M0 0 C2.5513117 2.22895799 4.99325396 4.52860043 7.41015625 6.90234375 C8.18359375 7.65128906 8.95703125 8.40023437 9.75390625 9.171875 C25.17559496 25.09529673 29.99085112 45.55438914 29.6796875 67.1484375 C29.06503711 85.48197511 21.77595 102.3879486 9.41015625 115.90234375 C8.81976563 116.58425781 8.229375 117.26617187 7.62109375 117.96875 C-6.41926846 133.23390976 -27.32702809 140.92290259 -47.66796875 141.8984375 C-68.80209771 141.91948743 -87.64460981 134.87442165 -103.58984375 120.90234375 C-104.27820313 120.309375 -104.9665625 119.71640625 -105.67578125 119.10546875 C-116.22059566 109.3525574 -126.00612577 93.62549119 -126.78125 79.0390625 C-126.58984375 76.90234375 -126.58984375 76.90234375 -125.08984375 73.77734375 C-122.58984375 71.90234375 -122.58984375 71.90234375 -119.15234375 71.27734375 C-115.76600568 71.87143815 -114.03240358 72.3658012 -111.765625 74.96484375 C-109.57374541 78.57671178 -108.32983492 82.60188042 -106.890625 86.55859375 C-100.73241009 102.38871975 -88.73124903 113.03122586 -73.73828125 120.28125 C-57.68293731 126.69865149 -40.60046496 125.9109064 -24.58984375 119.90234375 C-7.86983585 112.14095737 2.48713675 99.71107733 9.3671875 82.921875 C15.03209283 66.52123147 13.54301695 49.58779523 6.41015625 33.90234375 C0.59853956 22.82968459 -7.85418302 14.35100629 -18.58984375 7.90234375 C-19.19699219 7.51691406 -19.80414063 7.13148438 -20.4296875 6.734375 C-34.31777898 -1.19733589 -51.54568512 -1.96680361 -66.68603516 1.99731445 C-82.75398602 6.67322482 -95.9938195 17.28151801 -104.24609375 31.8203125 C-106.64118211 36.45199072 -108.69432221 40.95544014 -110.15234375 45.96484375 C-111.08233987 48.92685453 -111.50040509 49.8178739 -113.83984375 52.02734375 C-117.52191289 53.1989112 -119.88124358 52.93251047 -123.58984375 51.90234375 C-125.52734375 50.27734375 -125.52734375 50.27734375 -126.58984375 47.90234375 C-126.9750834 42.56775402 -126.03492642 38.44791654 -123.96484375 33.58984375 C-123.55552612 32.60818237 -123.55552612 32.60818237 -123.13793945 31.60668945 C-118.83291602 21.53687191 -113.15025515 13.81066789 -105.58984375 5.90234375 C-105.03683594 5.27457031 -104.48382813 4.64679688 -103.9140625 4 C-77.7905977 -24.58671955 -28.58625301 -23.15357144 0 0 Z " fill="#000000" transform="translate(406.58984375,226.09765625)"/>
<path d="M0 0 C1.1395665 -0.00426498 2.279133 -0.00852997 3.45323181 -0.01292419 C4.68922119 -0.01247101 5.92521057 -0.01201782 7.19865417 -0.0115509 C8.5115593 -0.01490952 9.82446442 -0.01826813 11.17715454 -0.02172852 C14.76820279 -0.03053812 18.35922719 -0.03290536 21.9502852 -0.0335443 C24.19736556 -0.03425658 26.44443992 -0.03639427 28.69151878 -0.03904152 C36.54090635 -0.04828518 44.39027697 -0.05237767 52.2396698 -0.05158997 C59.54006132 -0.05098957 66.84037885 -0.06153635 74.14075166 -0.07733363 C80.42206887 -0.09043821 86.70336199 -0.09577263 92.98469275 -0.09513456 C96.73019654 -0.09488041 100.47563455 -0.09768541 104.22112465 -0.10831261 C108.40248747 -0.11985327 112.583686 -0.11522894 116.76506042 -0.10920715 C118.60993546 -0.11763641 118.60993546 -0.11763641 120.49208069 -0.12623596 C132.09096044 -0.08385768 142.37362585 1.47704954 151.00016785 9.91886902 C156.65957381 16.86126374 159.98690465 25.6036461 159.5587616 34.59465027 C158.18722734 43.69156114 154.28995183 52.28104963 146.8478241 57.88761902 C137.35863682 63.92751583 128.76775922 64.43026194 117.75846863 64.40837097 C116.41392231 64.41272506 115.06937847 64.41791051 113.72483826 64.42385864 C110.09249674 64.43718552 106.46025968 64.43783436 102.8278985 64.43529534 C99.78638948 64.43422126 96.74490122 64.43912017 93.70339668 64.44390076 C86.52284479 64.45497427 79.34234522 64.45544562 72.16178894 64.4493866 C64.77499046 64.443349 57.38838257 64.45565726 50.0016166 64.47695667 C43.64040518 64.49461876 37.27925418 64.50056676 30.91801918 64.49731892 C27.12721498 64.49551314 23.33654673 64.49807123 19.54576492 64.51203346 C15.97843616 64.52468244 12.41140271 64.52260167 8.84407806 64.50962257 C6.92569191 64.50615984 5.00729643 64.51738266 3.08894348 64.52919006 C-7.86330105 64.46315386 -17.41211752 62.514298 -25.8240509 55.13371277 C-31.82256585 48.29697739 -35.54919851 39.3846862 -35.1053009 30.19230652 C-33.90466595 21.40432571 -30.58437091 13.05447016 -23.60920715 7.30949402 C-16.07475182 2.13190658 -9.17051873 0.01559146 0 0 Z M-15.1990509 22.25871277 C-18.34928553 26.28118978 -19.33871887 30.05681854 -18.8240509 35.13371277 C-17.48656285 39.77799645 -15.57582147 42.52289918 -11.8240509 45.57121277 C-7.50079569 47.82290819 -4.15703244 48.25935107 0.69702148 48.27415466 C1.81990067 48.27986481 2.94277985 48.28557495 4.09968567 48.29145813 C5.32730621 48.29257599 6.55492676 48.29369385 7.81974792 48.29484558 C9.76422569 48.30229294 9.76422569 48.30229294 11.74798584 48.30989075 C15.30182415 48.32299216 18.85564359 48.32945526 22.40950227 48.33390141 C24.63142986 48.33683572 26.85335232 48.3409412 29.07527733 48.34540558 C36.03192966 48.35907443 42.98857025 48.36874414 49.94523507 48.37260747 C57.96692103 48.37708716 65.9884365 48.39463338 74.01007062 48.42360806 C80.21658227 48.44524579 86.42304603 48.45531286 92.62959498 48.45664859 C96.33374542 48.4576951 100.03773546 48.46357006 103.74184608 48.4814682 C107.87599103 48.50105627 112.00978041 48.49665161 116.14396667 48.49015808 C117.36551453 48.49937286 118.58706238 48.50858765 119.84562683 48.51808167 C126.99484862 48.48288875 132.31646107 48.10136691 138.1368866 43.62590027 C141.56332395 39.70726749 143.10342324 36.51677692 143.34391785 31.27043152 C142.97942371 26.633727 140.77325966 23.84402803 137.8634491 20.38371277 C133.45723124 16.69478619 129.0620659 15.88492547 123.41436768 15.87301636 C121.72592491 15.86238914 121.72592491 15.86238914 120.00337219 15.85154724 C118.1727272 15.85526337 118.1727272 15.85526337 116.30509949 15.85905457 C115.00848892 15.85394363 113.71187836 15.8488327 112.37597656 15.84356689 C108.83049153 15.8302121 105.28511332 15.82959425 101.73960805 15.83213019 C98.77496152 15.83320223 95.81033641 15.82831062 92.84569448 15.82352477 C85.84939903 15.81244191 78.85315728 15.81198539 71.8568573 15.81803894 C64.64953883 15.82407935 57.44241555 15.81176331 50.23513037 15.79046887 C44.03706181 15.77283249 37.83905526 15.76685469 31.64096254 15.77010661 C27.94356153 15.77191627 24.24629978 15.76931511 20.54892159 15.75539207 C16.42455058 15.74044123 12.30057504 15.74980161 8.17619324 15.76139832 C6.95778748 15.75375458 5.73938171 15.74611084 4.48405457 15.73823547 C-3.11970416 15.78549962 -9.86134453 16.15426405 -15.1990509 22.25871277 Z " fill="#000000" transform="translate(294.8240509033203,396.8662872314453)"/>
<path d="M0 0 C3.22229703 0.65163335 4.15195198 1.76743383 6.10546875 4.42578125 C6.70951088 7.70014405 6.66262966 10.94359094 6.64453125 14.265625 C6.65632416 15.22473282 6.66811707 16.18384064 6.68026733 17.17201233 C6.71555911 20.23593347 6.72469875 23.29917341 6.73046875 26.36328125 C6.74682516 29.42361348 6.76890909 32.48364132 6.80209351 35.5438385 C6.82167727 37.44694696 6.8310634 39.3501946 6.82901001 41.25340271 C6.87563332 47.06630413 7.15268527 51.23629674 11.16796875 55.73828125 C15.21499486 58.06316859 18.53929184 58.24432263 23.10546875 57.42578125 C27.37950732 55.20139406 27.37950732 55.20139406 30.10546875 51.42578125 C30.20323063 49.97150931 30.24095656 48.51296026 30.24731445 47.05541992 C30.25434891 46.15075485 30.26138336 45.24608978 30.26863098 44.31401062 C30.27279526 43.33382462 30.27695953 42.35363861 30.28125 41.34375 C30.30444945 39.27668254 30.32856683 37.20962521 30.35351562 35.14257812 C30.38863327 31.87712844 30.41797381 28.61205109 30.43139648 25.34643555 C30.44687173 22.199246 30.48708182 19.05315056 30.53125 15.90625 C30.52934158 14.93213669 30.52743317 13.95802338 30.52546692 12.95439148 C30.60416247 8.59215902 30.69555648 6.09414721 33.01635742 2.31005859 C35.27371759 0.27402894 36.1136223 -0.2360574 39.10546875 -0.13671875 C39.76546875 -0.13800781 40.42546875 -0.13929687 41.10546875 -0.140625 C44.23232905 0.74491161 45.18136124 1.75083854 47.10546875 4.42578125 C47.72406329 8.09022821 47.665461 11.72865912 47.63671875 15.4375 C47.64054565 16.52029739 47.64437256 17.60309479 47.64831543 18.71870422 C47.65103721 21.01096525 47.64365756 23.3032572 47.62695312 25.59545898 C47.60565224 29.08323648 47.62669337 32.56892947 47.65234375 36.05664062 C47.64969849 38.28776493 47.64456943 40.51888794 47.63671875 42.75 C47.64481567 43.78468918 47.6529126 44.81937836 47.66125488 45.88542175 C47.56433123 53.4760071 46.10747035 59.69095699 41.28125 65.6953125 C33.04173252 72.51839301 26.39376377 75.17467839 15.5390625 74.80078125 C6.14524078 73.77483485 -0.00981495 69.72509281 -5.89453125 62.42578125 C-10.19128367 55.4955354 -10.06095297 48.2997027 -10.09765625 40.390625 C-10.10335632 39.43434708 -10.1090564 38.47806915 -10.1149292 37.49281311 C-10.12434395 35.47821142 -10.1308991 33.46359458 -10.13476562 31.44897461 C-10.14450996 28.37000913 -10.17558223 25.29170082 -10.20703125 22.21289062 C-10.21355842 20.25130603 -10.21881001 18.28971669 -10.22265625 16.328125 C-10.23500305 15.41030746 -10.24734985 14.49248993 -10.2600708 13.54685974 C-10.23106334 5.22312945 -8.85676433 0.48188774 0 0 Z " fill="#000000" transform="translate(176.89453125,-0.42578125)"/>
<path d="M0 0 C0.66 -0.00128906 1.32 -0.00257812 2 -0.00390625 C5.09340284 0.8721551 6.08219073 1.94090526 8 4.5625 C8.60847297 7.99354542 8.55709318 11.39785078 8.5390625 14.875 C8.55085541 15.88087158 8.56264832 16.88674316 8.57479858 17.9230957 C8.61010093 21.13638772 8.61923248 24.3490298 8.625 27.5625 C8.64134032 30.77577494 8.66338038 33.98875869 8.69662476 37.2019043 C8.71625639 39.2006887 8.72558946 41.19960656 8.72354126 43.19848633 C8.73050018 44.10622803 8.73745911 45.01396973 8.74462891 45.94921875 C8.74588776 46.74545654 8.74714661 47.54169434 8.7484436 48.36206055 C9.15854291 51.94932251 10.32580077 53.99045217 13.0625 56.3125 C17.12446075 58.04099393 20.6484274 58.27374122 25 57.5625 C29.27403857 55.33811281 29.27403857 55.33811281 32 51.5625 C32.09793678 50.0722903 32.13549674 48.5778836 32.1418457 47.08447266 C32.14888016 46.15655914 32.15591461 45.22864563 32.16316223 44.27261353 C32.16732651 43.26741669 32.17149078 42.26221985 32.17578125 41.2265625 C32.19897704 39.10936503 32.22309428 36.99217749 32.24804688 34.875 C32.28319559 31.52825252 32.31252255 28.18187072 32.32592773 24.83496094 C32.34137786 21.61087531 32.38156811 18.38786503 32.42578125 15.1640625 C32.42387283 14.16291412 32.42196442 13.16176575 32.41999817 12.13027954 C32.54248204 5.19152143 32.54248204 5.19152143 34.91088867 1.93530273 C37.1520922 0.46255674 38.33738516 -0.00520042 41 0 C41.99 -0.03287109 41.99 -0.03287109 43 -0.06640625 C46.30191872 0.97189241 47.20679708 2.61785271 49 5.5625 C49.58672112 9.13168391 49.53668973 12.65932786 49.49609375 16.26953125 C49.49754898 17.30889328 49.49900421 18.34825531 49.50050354 19.41911316 C49.49884574 21.61545618 49.48729782 23.81181096 49.46655273 26.00805664 C49.43769083 29.35288464 49.44592895 32.69611755 49.45898438 36.04101562 C49.45274361 38.17969514 49.44435004 40.31836968 49.43359375 42.45703125 C49.43652939 43.4499971 49.43946503 44.44296295 49.44248962 45.46601868 C49.32945323 53.88083583 47.61340611 60.61954133 41.8125 66.95703125 C34.4406506 73.4868375 26.9642228 74.93643835 17.390625 74.83984375 C9.39194145 74.18557355 2.25077753 70.67909723 -3 64.5625 C-6.37086561 59.23899883 -8.10044169 54.1804858 -8.17700195 47.87329102 C-8.18983719 46.94875626 -8.20267242 46.0242215 -8.21589661 45.07167053 C-8.22328354 44.07993332 -8.23067047 43.08819611 -8.23828125 42.06640625 C-8.246353 41.0407103 -8.25442474 40.01501434 -8.26274109 38.95823669 C-8.27655874 36.79045288 -8.28729124 34.62264753 -8.29516602 32.45483398 C-8.31241829 29.14069638 -8.35633034 25.82754646 -8.40039062 22.51367188 C-8.41051467 20.40625732 -8.41903168 18.29883431 -8.42578125 16.19140625 C-8.44328934 15.20169327 -8.46079742 14.21198029 -8.47883606 13.192276 C-8.46493323 8.78373841 -8.43034527 6.26970496 -6.09838867 2.4375 C-3.83500738 0.41507204 -2.98774072 -0.09920233 0 0 Z " fill="#000000" transform="translate(12,-0.5625)"/>
<path d="M0 0 C4.32642083 1.31744394 6.54852745 5.09364463 9.078125 8.6328125 C9.73554688 9.5196875 10.39296875 10.4065625 11.0703125 11.3203125 C16.078125 18.23873619 16.078125 18.23873619 16.078125 20.6328125 C19.89637612 17.03081631 22.86494535 13.3086858 25.765625 8.9453125 C29.85346284 2.85747466 29.85346284 2.85747466 32.078125 0.6328125 C39.0054993 -0.03757856 39.0054993 -0.03757856 42.578125 2.1953125 C44.64267317 5.55020328 44.40678464 7.73408756 44.078125 11.6328125 C42.609375 14.5546875 42.609375 14.5546875 40.578125 17.3828125 C39.85625 18.40375 39.134375 19.4246875 38.390625 20.4765625 C37.6275 21.518125 36.864375 22.5596875 36.078125 23.6328125 C35.315 24.695 34.551875 25.7571875 33.765625 26.8515625 C31.88527583 29.4571892 29.9897481 32.05008767 28.078125 34.6328125 C31.08452027 40.12401158 34.48492994 45.18020905 38.140625 50.2578125 C47.93442779 63.90471918 47.93442779 63.90471918 47.078125 70.6328125 C45.515625 73.0703125 45.515625 73.0703125 43.078125 74.6328125 C39.640625 75.1953125 39.640625 75.1953125 36.078125 74.6328125 C30.53953469 69.9390919 26.74319465 63.70686393 22.63085938 57.78710938 C22.07333984 56.99755859 21.51582031 56.20800781 20.94140625 55.39453125 C20.43907471 54.67225342 19.93674316 53.94997559 19.41918945 53.20581055 C18.97663818 52.68672119 18.53408691 52.16763184 18.078125 51.6328125 C17.418125 51.6328125 16.758125 51.6328125 16.078125 51.6328125 C14.85559365 53.03323589 14.85559365 53.03323589 13.6875 54.88671875 C13.22472656 55.57701172 12.76195312 56.26730469 12.28515625 56.97851562 C11.56392578 58.07583008 11.56392578 58.07583008 10.828125 59.1953125 C1.02244088 74.03965148 1.02244088 74.03965148 -2.92333984 75.2434082 C-6.64503649 75.48772745 -8.59407642 74.9114413 -11.421875 72.5078125 C-13.18797433 69.12278879 -13.28737758 67.41151989 -12.921875 63.6328125 C-11.50073242 60.90380859 -11.50073242 60.90380859 -9.52734375 58.15625 C-8.46483398 56.65578125 -8.46483398 56.65578125 -7.38085938 55.125 C-6.63126953 54.09632812 -5.88167969 53.06765625 -5.109375 52.0078125 C-4.37138672 50.97140625 -3.63339844 49.935 -2.87304688 48.8671875 C2.7570848 40.97990802 2.7570848 40.97990802 4.94018555 38.61962891 C6.37979428 36.63653554 6.37979428 36.63653554 5.46923828 34.17138672 C4.07050973 31.61891576 2.56771737 29.34272838 0.8203125 27.015625 C0.19511719 26.16097656 -0.43007812 25.30632813 -1.07421875 24.42578125 C-2.38836565 22.6484301 -3.71130214 20.87754406 -5.04296875 19.11328125 C-10.35228667 11.80335077 -10.35228667 11.80335077 -10.4453125 7.65234375 C-9.921875 4.6328125 -9.921875 4.6328125 -8.421875 2.1953125 C-5.60264277 0.43329236 -3.34179649 -0.18565536 0 0 Z " fill="#000000" transform="translate(244.921875,-0.6328125)"/>
<path d="M0 0 C0.71592316 -0.00700928 1.43184631 -0.01401855 2.16946411 -0.02124023 C4.53134168 -0.03881735 6.89201692 -0.02719963 9.25390625 -0.01367188 C10.89770741 -0.0163669 12.54150702 -0.02024941 14.18530273 -0.02526855 C17.62857253 -0.03116318 21.07142696 -0.02260216 24.51464844 -0.00390625 C28.92674318 0.01888371 33.33786467 0.00576037 37.74992371 -0.01819611 C41.14375126 -0.03265531 44.53734834 -0.02804763 47.93118286 -0.01768494 C49.55787267 -0.01501797 51.18458346 -0.0182864 52.81124878 -0.02760315 C55.08566653 -0.0377713 57.35851179 -0.02226664 59.6328125 0 C60.92646729 0.00318237 62.22012207 0.00636475 63.55297852 0.00964355 C66.81640625 0.51757812 66.81640625 0.51757812 69.23413086 2.33117676 C71.54703107 5.52716161 71.36554869 7.67358106 70.81640625 11.51757812 C68.59777596 14.42474885 67.29695696 15.35739455 63.81640625 16.51757812 C61.6503471 16.61715308 59.48132379 16.65587436 57.31298828 16.6628418 C56.65733887 16.66620041 56.00168945 16.66955902 55.32617188 16.67301941 C53.15883489 16.68251764 50.99157526 16.684472 48.82421875 16.68554688 C47.31590747 16.68876044 45.80759651 16.69212459 44.29928589 16.69563293 C41.13685382 16.70162152 37.97444906 16.70347313 34.81201172 16.70288086 C30.76457665 16.7027793 26.71731724 16.71642645 22.66992378 16.73365307 C19.55405883 16.74478566 16.43823616 16.74679967 13.32235336 16.74627113 C11.83045726 16.74744954 10.33856 16.75186353 8.8466835 16.7596035 C6.7572026 16.76942814 4.66810061 16.76651571 2.57861328 16.76049805 C1.39075226 16.76192307 0.20289124 16.76334808 -1.02096558 16.76481628 C-5.31861109 16.42884825 -8.12142372 15.57974815 -11.18359375 12.51757812 C-11.86965791 5.42824851 -11.86965791 5.42824851 -9.60375977 2.42053223 C-6.30505963 -0.17320511 -4.17053473 0.01025946 0 0 Z " fill="#000000" transform="translate(60.18359375,438.482421875)"/>
<path d="M0 0 C0.7734375 -0.00773438 1.546875 -0.01546875 2.34375 -0.0234375 C5.03550689 0.47395236 5.77776874 1.28525956 7.5 3.375 C9.06599432 12.64211831 4.34298569 20.69982734 0.625 28.9375 C-0.41221567 31.27948308 -1.44438062 33.62365309 -2.47654724 35.96786499 C-3.16587622 37.53177737 -3.85724847 39.09479075 -4.55067444 40.65689087 C-6.64156582 45.37583953 -8.64933783 50.11634867 -10.58203125 54.90234375 C-11.02885254 56.00827881 -11.47567383 57.11421387 -11.93603516 58.25366211 C-12.74996854 60.28373202 -13.55607151 62.31696503 -14.35302734 64.35375977 C-14.71477051 65.24764404 -15.07651367 66.14152832 -15.44921875 67.0625 C-15.75174561 67.82949219 -16.05427246 68.59648438 -16.3659668 69.38671875 C-17.74898506 71.8115413 -19.11645692 72.94092153 -21.5 74.375 C-25.38040089 74.86005011 -27.5761612 74.94351618 -30.9375 72.875 C-33.09064997 69.42996005 -32.92448594 66.29731651 -32.5 62.375 C-31.62742412 59.69606965 -30.73139023 57.32046399 -29.5703125 54.78125 C-29.26417023 54.07987915 -28.95802795 53.3785083 -28.64260864 52.65588379 C-27.6500924 50.38943484 -26.63787218 48.13241512 -25.625 45.875 C-24.93564007 44.31187371 -24.24782468 42.74806539 -23.56152344 41.18359375 C-22.52800169 38.8276323 -21.49366412 36.47209176 -20.45385742 34.11889648 C-16.9934263 26.27729319 -13.74124589 18.35515578 -10.55908203 10.39648438 C-10.19411621 9.50251953 -9.82915039 8.60855469 -9.453125 7.6875 C-9.14536133 6.92050781 -8.83759766 6.15351562 -8.52050781 5.36328125 C-6.43729616 1.30450717 -4.5517789 -0.04551779 0 0 Z " fill="#000000" transform="translate(143.5,-0.375)"/>
<path d="M0 0 C3.08883364 0.62464354 4.15352362 1.98531706 6.10546875 4.42578125 C6.61340332 7.38549805 6.61340332 7.38549805 6.62304688 10.875 C6.63565552 12.18315674 6.64826416 13.49131348 6.66125488 14.83911133 C6.65409508 16.26384012 6.64589109 17.68856399 6.63671875 19.11328125 C6.63941424 20.57772072 6.64329713 22.04215844 6.64831543 23.5065918 C6.65420794 26.57325305 6.64565621 29.63944774 6.62695312 32.70605469 C6.60416285 36.63391761 6.61728738 40.56068731 6.64124298 44.48851013 C6.65570816 47.51176162 6.65109186 50.53475458 6.64073181 53.55801392 C6.63806647 55.00607432 6.64132757 56.45415831 6.65065002 57.90219116 C6.66082534 59.92697695 6.64256207 61.95184519 6.62304688 63.9765625 C6.61827332 65.70386597 6.61827332 65.70386597 6.61340332 67.46606445 C5.99429247 71.07360153 5.0165067 72.26318447 2.10546875 74.42578125 C-1.64802587 74.89496808 -3.93301578 74.95714506 -7.26953125 73.11328125 C-10.3117987 69.95400351 -10.02933116 66.63704403 -10.05566406 62.47314453 C-10.06527161 61.24822296 -10.07487915 60.02330139 -10.08477783 58.76126099 C-10.0896258 57.4228738 -10.09390463 56.08448446 -10.09765625 54.74609375 C-10.10341042 53.37230427 -10.10916812 51.9985148 -10.1149292 50.62472534 C-10.12542932 47.74476752 -10.13127848 44.86483754 -10.13476562 41.98486328 C-10.14024915 38.30054369 -10.16427785 34.61659388 -10.19273758 30.93239021 C-10.21139151 28.09446142 -10.216571 25.25662124 -10.2181015 22.41863632 C-10.22112223 21.06069797 -10.22913122 19.70276096 -10.24228668 18.34488297 C-10.25940319 16.44239911 -10.25561402 14.53976223 -10.25097656 12.63720703 C-10.25462219 11.55593536 -10.25826782 10.4746637 -10.26202393 9.36062622 C-9.37254192 2.25710566 -6.64443384 0.36151704 0 0 Z " fill="#000000" transform="translate(85.89453125,-0.42578125)"/>
<path d="M0 0 C1.72187279 -0.01407143 1.72187279 -0.01407143 3.47853088 -0.02842712 C4.70885544 -0.01719315 5.93917999 -0.00595917 7.20678711 0.00561523 C8.47759628 0.00416 9.74840546 0.00270477 11.057724 0.00120544 C13.7421601 0.00286441 16.42517508 0.01233383 19.109375 0.03515625 C22.54498515 0.06356992 25.97970715 0.06079281 29.41538334 0.04806614 C32.70007502 0.03943011 35.98462323 0.0545564 39.26928711 0.06811523 C40.50163589 0.0651796 41.73398468 0.06224396 43.00367737 0.05921936 C44.72082191 0.07824562 44.72082191 0.07824562 46.47265625 0.09765625 C47.47905655 0.10305923 48.48545685 0.10846222 49.52235413 0.11402893 C52.57381157 0.56056182 53.94329471 1.40689826 56.17163086 3.50170898 C56.95678711 5.36889648 56.95678711 5.36889648 57.23413086 7.37670898 C57.34885742 8.03413086 57.46358398 8.69155273 57.58178711 9.36889648 C57.07487017 12.00486457 56.0200013 13.57435235 54.08692932 15.42138672 C49.60555825 17.94909979 43.9112588 17.18348651 38.91772461 17.13061523 C36.97821678 17.13423317 36.97821678 17.13423317 34.99952698 17.13792419 C32.26824359 17.14077675 29.53778274 17.1261347 26.80664062 17.09863281 C23.310305 17.06451477 19.81543612 17.07058332 16.31902981 17.08929539 C12.97678263 17.10241773 9.63496154 17.08414955 6.29272461 17.06811523 C5.03850204 17.0730751 3.78427948 17.07803497 2.49205017 17.08314514 C0.7448745 17.05939064 0.7448745 17.05939064 -1.03759766 17.03515625 C-2.06176285 17.02895767 -3.08592804 17.02275909 -4.14112854 17.01637268 C-7.51903828 16.36943116 -8.70745206 15.15261844 -10.82836914 12.50170898 C-11.39477539 10.50170898 -11.39477539 10.50170898 -11.39086914 8.50170898 C-11.4127832 7.84170898 -11.43469727 7.18170898 -11.45727539 6.50170898 C-9.79334014 1.21018818 -4.9939167 0.0008239 0 0 Z " fill="#000000" transform="translate(450.828369140625,57.498291015625)"/>
<path d="M0 0 C1.16478378 -0.01583633 2.32956757 -0.03167267 3.52964783 -0.04798889 C4.78387039 -0.04302902 6.03809296 -0.03806915 7.33032227 -0.03295898 C9.268395 -0.04225685 9.268395 -0.04225685 11.24562073 -0.05174255 C13.97854444 -0.06214113 16.71094732 -0.05759469 19.44384766 -0.04296875 C22.93913677 -0.02579013 26.43278053 -0.04926355 29.92788601 -0.08445835 C33.27046105 -0.11175532 36.61264094 -0.10169438 39.95532227 -0.09545898 C41.83361977 -0.1153463 41.83361977 -0.1153463 43.74986267 -0.13563538 C53.40199136 -0.03205846 53.40199136 -0.03205846 56.50976562 2.93945312 C58.24654844 5.59041095 58.82928331 6.57944791 58.33422852 9.65844727 C58.25430664 10.32102539 58.17438477 10.98360352 58.09204102 11.66625977 C56.77228301 14.45760634 54.93377364 15.16400938 52.20922852 16.53344727 C49.47766113 16.92112732 49.47766113 16.92112732 46.48852539 16.9375 C45.36385864 16.95018417 44.23919189 16.96286835 43.08044434 16.97593689 C41.87513062 16.97300125 40.66981689 16.97006561 39.42797852 16.96704102 C37.55861633 16.97490379 37.55861633 16.97490379 35.65148926 16.98292542 C32.34561703 16.99098492 29.04016052 16.98388615 25.73431396 16.97259521 C23.71092851 16.97094865 21.68810384 16.98293779 19.66479492 17 C15.77308843 17.03065271 11.88228628 17.03408546 7.99047852 17.02954102 C6.78516479 17.04077499 5.57985107 17.05200897 4.3380127 17.06358337 C-4.00315024 16.99400895 -4.00315024 16.99400895 -8.05029297 14.62744141 C-9.92983236 12.36614117 -10.44971531 11.43810847 -10.35327148 8.53344727 C-10.35456055 7.87344727 -10.35584961 7.21344727 -10.35717773 6.53344727 C-8.84488217 1.19347949 -5.09133533 0.0308144 0 0 Z " fill="#000000" transform="translate(449.790771484375,28.466552734375)"/>
<path d="M0 0 C1.18803223 -0.01583633 2.37606445 -0.03167267 3.60009766 -0.04798889 C4.87933105 -0.04302902 6.15856445 -0.03806915 7.4765625 -0.03295898 C8.79317871 -0.03915756 10.10979492 -0.04535614 11.46630859 -0.05174255 C14.2505036 -0.06214059 17.03418732 -0.0575943 19.81835938 -0.04296875 C23.38323636 -0.02577317 26.94650268 -0.04928505 30.51119995 -0.08445835 C33.91641611 -0.11171966 37.32124218 -0.10169731 40.7265625 -0.09545898 C42.0057959 -0.10871719 43.2850293 -0.1219754 44.60302734 -0.13563538 C45.79105957 -0.12310226 46.9790918 -0.11056915 48.203125 -0.09765625 C49.24807129 -0.09669449 50.29301758 -0.09573273 51.36962891 -0.09474182 C54.1015625 0.53344727 54.1015625 0.53344727 56.47412109 2.84632874 C58.1015625 5.53344727 58.1015625 5.53344727 58.0390625 9.15844727 C57.14367593 12.38183893 56.75049365 13.62621684 54.1015625 15.53344727 C51.53569312 16.81638196 49.68624701 16.67446656 46.81323242 16.69458008 C45.70835983 16.70418762 44.60348724 16.71379517 43.46513367 16.72369385 C41.66674797 16.73006866 41.66674797 16.73006866 39.83203125 16.73657227 C38.603741 16.74227234 37.37545074 16.74797241 36.10993958 16.75384521 C33.50648869 16.76330596 30.90302578 16.76983344 28.29956055 16.77368164 C24.31608102 16.78023521 20.33296814 16.81439396 16.34960938 16.84594727 C13.82291974 16.85247765 11.2962264 16.85772798 8.76953125 16.86157227 C6.98025459 16.88009247 6.98025459 16.88009247 5.15483093 16.89898682 C4.04050186 16.89598572 2.92617279 16.89298462 1.77807617 16.88989258 C0.3115284 16.89536102 0.3115284 16.89536102 -1.18464661 16.90093994 C-4.68948702 16.42632593 -7.38144695 15.05043782 -9.8984375 12.53344727 C-10.4925456 5.28532842 -10.4925456 5.28532842 -8.24047852 2.43519592 C-5.29273481 0.04161374 -3.76423338 0.02232928 0 0 Z " fill="#000000" transform="translate(449.8984375,-0.533447265625)"/>
<path d="M0 0 C1.05026367 -0.0038269 2.10052734 -0.00765381 3.18261719 -0.01159668 C5.40170247 -0.01431696 7.62081974 -0.00694777 9.83984375 0.00976562 C13.23770595 0.03117255 16.63345361 0.00996675 20.03125 -0.015625 C22.18750467 -0.01298175 24.34375802 -0.00785682 26.5 0 C27.51674805 -0.00809692 28.53349609 -0.01619385 29.58105469 -0.02453613 C36.60766406 0.06894095 36.60766406 0.06894095 39.86328125 2.41210938 C41.51902 4.94235802 42.17594002 6.494791 42.25 9.53125 C40.62844371 13.01759601 39.48546708 14.37427194 36.25 16.53125 C34.17654419 16.80540466 34.17654419 16.80540466 31.76611328 16.83764648 C30.40922897 16.86162758 30.40922897 16.86162758 29.02493286 16.88609314 C28.04990814 16.89145584 27.07488342 16.89681854 26.0703125 16.90234375 C24.56294022 16.91588646 24.56294022 16.91588646 23.02511597 16.92970276 C20.89844751 16.94421473 18.7717343 16.95309434 16.64501953 16.95678711 C13.39408984 16.96868016 10.14506005 17.01785472 6.89453125 17.06835938 C4.82813427 17.07782393 2.76172562 17.08505881 0.6953125 17.08984375 C-0.27566376 17.10937607 -1.24664001 17.12890839 -2.24703979 17.14903259 C-6.87810546 17.11813288 -9.05630538 17.04573565 -12.86767578 14.21899414 C-15.3347193 10.69633758 -15.43967172 8.7459105 -14.75 4.53125 C-11.29721138 -0.99420114 -5.83863766 -0.04649628 0 0 Z " fill="#000000" transform="translate(96.75,241.46875)"/>
<path d="M0 0 C1.05026367 -0.0038269 2.10052734 -0.00765381 3.18261719 -0.01159668 C5.40170247 -0.01431696 7.62081974 -0.00694777 9.83984375 0.00976562 C13.23770595 0.03117255 16.63345361 0.00996675 20.03125 -0.015625 C22.18750467 -0.01298175 24.34375802 -0.00785682 26.5 0 C27.51674805 -0.00809692 28.53349609 -0.01619385 29.58105469 -0.02453613 C36.60766406 0.06894095 36.60766406 0.06894095 39.86328125 2.41210938 C41.51902 4.94235802 42.17594002 6.494791 42.25 9.53125 C40.62844371 13.01759601 39.48546708 14.37427194 36.25 16.53125 C34.17654419 16.80540466 34.17654419 16.80540466 31.76611328 16.83764648 C30.40922897 16.86162758 30.40922897 16.86162758 29.02493286 16.88609314 C28.04990814 16.89145584 27.07488342 16.89681854 26.0703125 16.90234375 C24.56294022 16.91588646 24.56294022 16.91588646 23.02511597 16.92970276 C20.89844751 16.94421473 18.7717343 16.95309434 16.64501953 16.95678711 C13.39408984 16.96868016 10.14506005 17.01785472 6.89453125 17.06835938 C4.82813427 17.07782393 2.76172562 17.08505881 0.6953125 17.08984375 C-0.27566376 17.10937607 -1.24664001 17.12890839 -2.24703979 17.14903259 C-6.87810546 17.11813288 -9.05630538 17.04573565 -12.86767578 14.21899414 C-15.3347193 10.69633758 -15.43967172 8.7459105 -14.75 4.53125 C-11.29721138 -0.99420114 -5.83863766 -0.04649628 0 0 Z " fill="#000000" transform="translate(96.75,201.46875)"/>
<path d="M0 0 C1.05026367 -0.0038269 2.10052734 -0.00765381 3.18261719 -0.01159668 C5.40170247 -0.01431696 7.62081974 -0.00694777 9.83984375 0.00976562 C13.23770595 0.03117255 16.63345361 0.00996675 20.03125 -0.015625 C22.18750467 -0.01298175 24.34375802 -0.00785682 26.5 0 C27.51674805 -0.00809692 28.53349609 -0.01619385 29.58105469 -0.02453613 C36.60766406 0.06894095 36.60766406 0.06894095 39.86328125 2.41210938 C41.51902 4.94235802 42.17594002 6.494791 42.25 9.53125 C40.62844371 13.01759601 39.48546708 14.37427194 36.25 16.53125 C34.21450806 16.79194641 34.21450806 16.79194641 31.85791016 16.8059082 C30.53105698 16.82020622 30.53105698 16.82020622 29.17739868 16.83479309 C28.22424774 16.83388168 27.2710968 16.83297028 26.2890625 16.83203125 C24.81498428 16.83845894 24.81498428 16.83845894 23.31112671 16.84501648 C21.23151418 16.85076115 19.15188156 16.85125904 17.07226562 16.84692383 C13.89418096 16.84376904 10.71703169 16.86720364 7.5390625 16.89257812 C5.51823034 16.89485165 3.49739568 16.89555437 1.4765625 16.89453125 C0.05290878 16.90834587 0.05290878 16.90834587 -1.39950562 16.92243958 C-6.30388993 16.88814919 -9.81135399 16.8124551 -13.75 13.53125 C-15.29586876 10.43951248 -15.04359521 7.93695448 -14.75 4.53125 C-11.34608922 -1.00873813 -5.81050801 -0.04627227 0 0 Z " fill="#000000" transform="translate(96.75,281.46875)"/>
<path d="M0 0 C2.6875 1.5 2.6875 1.5 4 4 C4.58864156 6.8162459 4.64492017 9.18999067 4 12 C1.85292189 14.77042337 0.3160121 15.79296012 -3.16015625 16.33984375 C-6.75146483 16.48973142 -9.58114177 16.13961941 -13 15 C-15.5563597 12.4436403 -16.04477777 10.57434825 -16.2421875 7.0078125 C-16 5 -16 5 -14.25 2 C-9.54197418 -0.89724666 -5.39010748 -0.87070967 0 0 Z " fill="#000000" transform="translate(57,202)"/>
<path d="M0 0 C2.6875 1.5 2.6875 1.5 4 4 C4.58864156 6.8162459 4.64492017 9.18999067 4 12 C1.84156063 14.78508306 0.31299752 15.81776903 -3.1953125 16.3046875 C-7.37726841 16.42890401 -10.35272865 16.1867839 -14 14 C-16.0815902 11.32366974 -15.99587591 9.88246332 -15.875 6.4375 C-15 3 -15 3 -13.2890625 1.3125 C-9.12388973 -1.07572193 -4.64879994 -0.61372624 0 0 Z " fill="#000000" transform="translate(57,282)"/>
<path d="M0 0 C2.6875 1.5 2.6875 1.5 4 4 C4.58864156 6.8162459 4.64492017 9.18999067 4 12 C1.84156063 14.78508306 0.31299752 15.81776903 -3.1953125 16.3046875 C-7.37726841 16.42890401 -10.35272865 16.1867839 -14 14 C-16.0815902 11.32366974 -15.99587591 9.88246332 -15.875 6.4375 C-15 3 -15 3 -13.2890625 1.3125 C-9.12388973 -1.07572193 -4.64879994 -0.61372624 0 0 Z " fill="#000000" transform="translate(57,242)"/>
</svg>
