<?xml version="1.0" standalone="no"?>
<!DOCTYPE svg PUBLIC "-//W3C//DTD SVG 20010904//EN"
 "http://www.w3.org/TR/2001/REC-SVG-20010904/DTD/svg10.dtd">
<svg version="1.0" xmlns="http://www.w3.org/2000/svg"
 width="512.000000pt" height="512.000000pt" viewBox="0 0 512.000000 512.000000"
 preserveAspectRatio="xMidYMid meet">

<g transform="translate(0.000000,512.000000) scale(0.100000,-0.100000)"
fill="#000000" stroke="none">
<path d="M2445 5108 c-27 -5 -86 -27 -131 -48 -152 -73 -274 -232 -303 -394
-17 -92 -14 -478 4 -554 29 -121 111 -249 205 -319 l50 -37 0 -81 0 -81 -263
-87 c-180 -60 -279 -98 -313 -121 -49 -33 -115 -99 -145 -146 l-17 -25 -64 61
c-173 166 -424 202 -642 92 -123 -62 -237 -204 -280 -347 -23 -77 -23 -529 -1
-616 31 -116 118 -243 215 -310 l41 -28 -3 -80 -3 -80 -263 -88 c-284 -95
-333 -119 -408 -202 -87 -97 -124 -203 -124 -358 0 -82 3 -100 21 -123 26 -33
77 -36 105 -5 15 17 20 43 25 138 4 68 13 130 22 151 26 59 76 120 124 150 39
25 478 180 509 180 6 0 16 -11 22 -24 6 -14 28 -44 49 -67 109 -121 307 -121
416 0 21 23 43 53 49 67 6 13 16 24 22 24 32 0 470 -155 510 -180 25 -16 61
-50 79 -76 56 -80 58 -76 -56 -114 -134 -43 -209 -81 -268 -137 -97 -90 -141
-190 -154 -346 l-7 -87 -449 0 -449 0 0 109 c0 106 -1 110 -26 130 -31 24 -43
26 -78 10 -34 -16 -46 -57 -46 -160 l0 -89 -135 0 -135 0 0 24 c0 64 -91 97
-131 47 -28 -35 -27 -158 2 -195 l20 -26 715 0 714 0 0 -289 c0 -293 4 -332
38 -357 25 -20 2079 -20 2104 0 51 38 51 184 0 222 -44 34 -112 -1 -112 -56
l0 -30 -140 0 -140 0 0 235 c0 222 -1 236 -20 255 -30 30 -83 27 -109 -6 -20
-25 -21 -39 -21 -255 l0 -229 -510 0 -510 0 0 229 c0 216 -1 230 -21 255 -26
33 -79 36 -109 6 -19 -19 -20 -33 -20 -255 l0 -235 -141 0 -140 0 4 403 c4
434 5 442 60 523 56 84 94 105 349 189 128 43 238 80 245 82 6 3 21 -13 31
-34 26 -48 74 -94 132 -124 35 -18 61 -23 120 -23 59 0 85 5 120 23 58 30 106
76 132 124 10 21 25 37 31 34 7 -2 117 -39 245 -82 167 -55 245 -86 275 -109
48 -36 101 -110 118 -164 7 -21 14 -136 16 -270 l5 -232 25 -20 c45 -35 92
-20 113 34 5 15 10 56 10 92 l0 64 714 0 715 0 20 26 c29 37 30 160 2 195 -40
50 -131 17 -131 -47 l0 -24 -135 0 -135 0 0 89 c0 103 -12 144 -46 160 -35 16
-47 14 -78 -10 -25 -20 -26 -24 -26 -130 l0 -109 -449 0 -449 0 -7 88 c-13
155 -57 255 -154 345 -59 56 -134 94 -268 137 -114 38 -112 34 -56 114 18 26
54 60 79 76 40 25 478 180 510 180 6 0 16 -11 22 -24 20 -45 86 -109 137 -132
69 -33 171 -33 240 0 51 23 117 87 137 132 6 13 16 24 21 24 31 0 471 -155
510 -180 48 -30 98 -91 124 -150 9 -21 18 -83 22 -151 5 -95 10 -121 25 -138
28 -31 79 -28 105 5 18 23 21 41 21 123 0 155 -37 261 -124 358 -75 83 -124
107 -408 202 l-263 88 -3 80 -3 80 41 28 c97 67 184 194 215 310 21 83 22 525
0 608 -37 142 -155 291 -281 355 -218 110 -469 74 -642 -92 l-64 -61 -17 25
c-30 47 -96 113 -145 146 -33 22 -135 62 -312 121 l-264 88 0 80 0 81 50 37
c96 72 177 199 206 324 13 55 15 115 12 313 -4 233 -5 248 -29 311 -37 96 -71
149 -140 218 -127 128 -318 184 -504 149z m219 -153 c143 -37 262 -160 295
-305 17 -74 14 -445 -5 -515 -31 -120 -110 -215 -222 -268 -62 -30 -75 -32
-172 -32 -97 0 -110 2 -172 32 -74 35 -141 96 -181 164 -47 80 -57 144 -57
369 0 275 16 335 114 438 108 114 252 156 400 117z m34 -1365 c-4 -103 -16
-134 -66 -166 -35 -23 -109 -23 -144 0 -50 32 -62 63 -66 166 l-4 95 142 0
142 0 -4 -95z m-376 -205 c65 -97 182 -148 292 -125 88 18 150 66 211 164 9
14 37 7 240 -60 127 -41 249 -86 271 -99 49 -29 95 -79 126 -138 21 -38 23
-52 18 -142 -3 -55 -5 -189 -5 -298 l0 -197 -176 0 -177 0 -6 48 c-19 132 -82
249 -184 344 -329 303 -865 104 -928 -344 l-6 -48 -178 0 -177 0 5 145 c3 80
-1 208 -8 284 -12 140 -12 140 13 193 29 64 75 119 125 150 33 21 488 178 504
175 3 -1 21 -24 40 -52z m-1070 -139 c139 -66 220 -181 239 -341 17 -138 6
-415 -19 -487 -41 -115 -127 -205 -239 -249 -81 -32 -215 -32 -293 -1 -115 46
-209 145 -244 256 -15 46 -17 90 -14 308 3 249 3 254 29 309 47 99 137 181
242 220 80 29 223 22 299 -15z m2911 15 c108 -37 196 -117 246 -221 l26 -55 0
-275 0 -275 -30 -60 c-34 -70 -113 -153 -173 -184 -229 -117 -499 -12 -584
226 -16 47 -21 91 -25 228 -10 336 30 461 185 567 100 69 241 88 355 49z
m-1521 -392 c125 -26 233 -114 291 -237 l32 -67 3 -227 c4 -255 -5 -313 -61
-407 -41 -68 -95 -115 -177 -155 -60 -29 -73 -31 -170 -31 -97 0 -110 2 -170
31 -82 40 -136 87 -177 155 -56 94 -65 152 -61 407 l3 227 32 67 c85 181 268
276 455 237z m-642 -656 c0 -147 16 -228 61 -317 40 -78 89 -139 156 -190 l53
-41 0 -82 0 -81 -62 -21 c-34 -11 -62 -20 -64 -18 -1 1 -13 25 -27 52 -33 66
-104 145 -166 184 -30 20 -151 66 -313 120 l-263 88 -3 80 -3 80 41 28 c59 41
132 124 166 189 l29 56 198 0 197 0 0 -127z m1544 71 c34 -65 107 -148 166
-189 l41 -28 -3 -80 -3 -80 -263 -88 c-162 -54 -283 -100 -313 -120 -62 -39
-133 -118 -166 -184 -14 -27 -26 -51 -27 -52 -2 -2 -30 7 -64 18 l-62 21 0 81
0 82 53 41 c67 51 116 112 156 190 45 89 61 170 61 317 l0 127 198 0 197 0 29
-56z m-2459 -294 c33 0 77 4 98 9 l37 9 0 -97 c0 -108 -16 -148 -69 -176 -64
-32 -145 -11 -181 48 -16 26 -20 50 -20 128 l0 97 38 -9 c20 -5 64 -9 97 -9z
m2950 0 c33 0 77 4 98 9 l37 9 0 -97 c0 -108 -16 -148 -69 -176 -64 -32 -145
-11 -181 48 -16 26 -20 50 -20 128 l0 97 38 -9 c20 -5 64 -9 97 -9z m-1337
-491 c-3 -69 -8 -103 -21 -122 -54 -83 -172 -85 -231 -4 -16 22 -21 47 -24
125 l-4 97 142 0 142 0 -4 -96z"/>
</g>
</svg>
