<svg width="70" height="70" viewBox="0 0 70 70" fill="none" xmlns="http://www.w3.org/2000/svg">
<circle cx="35" cy="35" r="35" fill="#FFE8AF"/>
<path d="M22.7135 15.0302C22.8005 15.0298 22.8875 15.0295 22.9771 15.0291C23.0731 15.0291 23.1691 15.0291 23.2679 15.0291C23.4204 15.0287 23.4204 15.0287 23.5759 15.0283C23.8587 15.0275 24.1414 15.0272 24.4241 15.027C24.7288 15.0267 25.0335 15.0259 25.3382 15.0253C26.0744 15.0237 26.8105 15.0229 27.5467 15.0222C27.8933 15.0219 28.2399 15.0215 28.5865 15.0211C29.7385 15.0198 30.8906 15.0186 32.0426 15.0181C32.3417 15.0179 32.6407 15.0178 32.9397 15.0176C33.014 15.0176 33.0883 15.0175 33.1649 15.0175C34.3689 15.0168 35.5729 15.0149 36.777 15.0123C38.0129 15.0098 39.2488 15.0084 40.4847 15.0081C41.1787 15.0079 41.8727 15.0073 42.5668 15.0053C43.1578 15.0036 43.7488 15.0029 44.3398 15.0037C44.6414 15.0041 44.9429 15.0039 45.2444 15.0024C45.5714 15.0008 45.8984 15.0016 46.2255 15.0026C46.3206 15.0017 46.4157 15.0009 46.5136 15C47.1188 15.0046 47.5755 15.0667 48.0275 15.5057C48.0623 15.5564 48.0971 15.6072 48.1329 15.6595C48.1869 15.7353 48.1869 15.7353 48.242 15.8127C48.4719 16.2059 48.5161 16.5433 48.5138 16.9939C48.5141 17.057 48.5144 17.1201 48.5147 17.1852C48.5155 17.3976 48.5152 17.6101 48.5149 17.8225C48.5152 17.976 48.5157 18.1295 48.5161 18.283C48.5172 18.7056 48.5174 19.1281 48.5173 19.5506C48.5175 20.006 48.5185 20.4615 48.5194 20.9169C48.5212 21.913 48.5218 22.9092 48.5222 23.9054C48.5224 24.5272 48.5229 25.1491 48.5235 25.771C48.525 27.4923 48.5263 29.2137 48.5265 30.9351C48.5265 30.9901 48.5265 31.0452 48.5265 31.1019C48.5266 31.3251 48.5266 31.5482 48.5266 31.7713C48.5266 31.9393 48.5267 32.1072 48.5267 32.2752C48.5267 32.3307 48.5267 32.3862 48.5267 32.4434C48.5269 34.1869 48.5287 35.9304 48.5315 37.674C48.5347 39.6327 48.5365 41.5914 48.5365 43.5502C48.5366 44.5873 48.5372 45.6244 48.5395 46.6616C48.5414 47.5447 48.542 48.4278 48.5408 49.3109C48.5402 49.7615 48.5403 50.212 48.5421 50.6626C48.5437 51.0752 48.5435 51.4878 48.5419 51.9004C48.5416 52.0496 48.542 52.1987 48.5431 52.3479C48.5535 53.8474 48.5535 53.8474 48.1037 54.4136C47.7026 54.7841 47.3833 54.9688 46.8294 54.9698C46.7424 54.9702 46.6554 54.9705 46.5658 54.9709C46.4218 54.9709 46.4218 54.9709 46.275 54.9709C46.1733 54.9711 46.0717 54.9714 45.967 54.9717C45.6842 54.9725 45.4015 54.9728 45.1188 54.973C44.8141 54.9733 44.5094 54.974 44.2047 54.9747C43.4685 54.9763 42.7324 54.9771 41.9962 54.9778C41.6496 54.9781 41.303 54.9785 40.9564 54.9789C39.8043 54.9802 38.6523 54.9814 37.5002 54.9819C37.2012 54.9821 36.9022 54.9822 36.6032 54.9824C36.5289 54.9824 36.4546 54.9825 36.378 54.9825C35.174 54.9832 33.97 54.9851 32.7659 54.9877C31.53 54.9902 30.2941 54.9916 29.0582 54.9919C28.3641 54.9921 27.6701 54.9927 26.9761 54.9947C26.3851 54.9964 25.7941 54.9971 25.203 54.9963C24.9015 54.9959 24.6 54.9961 24.2985 54.9976C23.9715 54.9992 23.6445 54.9984 23.3174 54.9974C23.2223 54.9983 23.1272 54.9991 23.0293 55C22.4241 54.9954 21.9674 54.9333 21.5153 54.4943C21.4806 54.4436 21.4458 54.3928 21.41 54.3405C21.374 54.29 21.338 54.2394 21.3009 54.1873C21.099 53.8419 21.0298 53.5621 21.0293 53.1619C21.0288 53.0665 21.0283 52.9712 21.0278 52.8729C21.028 52.7673 21.0283 52.6617 21.0285 52.5562C21.0282 52.4438 21.0279 52.3315 21.0274 52.2191C21.0265 51.9104 21.0265 51.6016 21.0267 51.2928C21.0267 50.9599 21.0259 50.6269 21.0251 50.2939C21.0238 49.6417 21.0234 48.9894 21.0233 48.3371C21.0232 47.8071 21.0229 47.2772 21.0224 46.7472C21.0211 45.2453 21.0203 43.7434 21.0205 42.2416C21.0205 42.1606 21.0205 42.0796 21.0205 41.9962C21.0205 41.9151 21.0205 41.8341 21.0205 41.7505C21.0206 40.4356 21.0191 39.1207 21.0169 37.8058C21.0146 36.4564 21.0135 35.107 21.0137 33.7576C21.0137 32.9998 21.0133 32.2419 21.0116 31.484C21.0102 30.8389 21.0099 30.1939 21.0109 29.5488C21.0114 29.2196 21.0114 28.8903 21.0101 28.561C21.0089 28.2598 21.0091 27.9587 21.0105 27.6575C21.0107 27.5483 21.0104 27.4391 21.0095 27.3299C21.0084 27.1819 21.0094 27.0339 21.0106 26.8859C21.0105 26.8036 21.0105 26.7213 21.0105 26.6365C21.0595 26.3685 21.1494 26.278 21.3612 26.1118C21.6485 26.0202 21.7731 26.0078 22.0483 26.1362C22.2189 26.2678 22.2189 26.2678 22.2968 26.4237C22.3041 26.5314 22.3065 26.6394 22.3064 26.7473C22.3066 26.8155 22.3067 26.8837 22.3069 26.954C22.3067 27.0294 22.3064 27.1048 22.3062 27.1824C22.3063 27.2622 22.3063 27.3419 22.3064 27.424C22.3065 27.6929 22.3061 27.9618 22.3057 28.2307C22.3057 28.4227 22.3057 28.6148 22.3057 28.8068C22.3057 29.2212 22.3055 29.6356 22.3051 30.05C22.3044 30.6491 22.3042 31.2482 22.3041 31.8473C22.304 32.8193 22.3034 33.7912 22.3027 34.7632C22.302 35.7075 22.3014 36.6518 22.3011 37.5961C22.3011 37.6834 22.3011 37.6834 22.3011 37.7725C22.3009 38.0643 22.3009 38.3562 22.3008 38.648C22.2999 41.0705 22.2986 43.4929 22.2968 45.9153C22.3811 45.9146 22.4654 45.9139 22.5522 45.9132C23.3461 45.9069 24.14 45.9022 24.9339 45.8991C25.342 45.8975 25.7502 45.8953 26.1583 45.8918C26.5521 45.8884 26.9459 45.8865 27.3397 45.8857C27.4901 45.8851 27.6404 45.884 27.7907 45.8823C28.0011 45.8801 28.2114 45.8797 28.4218 45.8799C28.4841 45.8788 28.5464 45.8776 28.6106 45.8765C28.8893 45.8786 29.0472 45.8905 29.2724 46.0616C29.4143 46.2584 29.4638 46.3737 29.4697 46.617C29.3433 46.8888 29.2542 46.9946 29.0019 47.1627C28.7853 47.1771 28.5765 47.1824 28.3599 47.1804C28.2617 47.1805 28.2617 47.1805 28.1616 47.1805C27.9452 47.1804 27.7288 47.1792 27.5124 47.178C27.3624 47.1777 27.2124 47.1775 27.0624 47.1773C26.6675 47.1767 26.2726 47.1752 25.8776 47.1735C25.4747 47.1719 25.0718 47.1711 24.6689 47.1704C23.8782 47.1687 23.0875 47.166 22.2968 47.1627C22.3016 47.972 22.3076 48.7812 22.3152 49.5904C22.3187 49.9661 22.3218 50.3418 22.3238 50.7175C22.3259 51.08 22.329 51.4425 22.3329 51.8049C22.3342 51.9433 22.3351 52.0818 22.3356 52.2202C22.3364 52.4138 22.3386 52.6073 22.3411 52.8009C22.3409 52.8872 22.3409 52.8872 22.3407 52.9751C22.3461 53.2811 22.3461 53.2811 22.4792 53.5496C22.7311 53.7137 22.9513 53.7217 23.2429 53.7219C23.3262 53.7222 23.4095 53.7225 23.4954 53.7227C23.5873 53.7226 23.6792 53.7225 23.7738 53.7223C23.8712 53.7225 23.9685 53.7227 24.0688 53.7229C24.3396 53.7234 24.6103 53.7233 24.881 53.7233C25.1728 53.7232 25.4646 53.7237 25.7564 53.724C26.3282 53.7247 26.9001 53.7249 27.4719 53.7249C27.9367 53.725 28.4014 53.7251 28.8661 53.7254C30.183 53.7261 31.4998 53.7264 32.8167 53.7264C32.8877 53.7264 32.9588 53.7264 33.0319 53.7264C33.103 53.7264 33.1742 53.7264 33.2474 53.7264C34.4002 53.7263 35.553 53.7271 36.7057 53.7282C37.8887 53.7293 39.0716 53.7298 40.2546 53.7298C40.919 53.7297 41.5835 53.7299 42.2479 53.7308C42.8135 53.7315 43.3792 53.7317 43.9449 53.7311C44.2336 53.7309 44.5223 53.7309 44.811 53.7316C45.1237 53.7323 45.4365 53.7318 45.7493 53.7312C45.8866 53.7318 45.8866 53.7318 46.0266 53.7324C46.1522 53.7319 46.1522 53.7319 46.2804 53.7313C46.3526 53.7313 46.4248 53.7314 46.4992 53.7314C46.723 53.7097 46.8892 53.6561 47.0901 53.556C47.2088 53.3186 47.1821 53.0704 47.1841 52.8098C47.1849 52.7489 47.1856 52.6881 47.1864 52.6254C47.1889 52.4237 47.1908 52.2221 47.1928 52.0204C47.1944 51.8808 47.196 51.7412 47.1977 51.6016C47.202 51.2337 47.2058 50.8658 47.2096 50.498C47.2135 50.1227 47.2178 49.7475 47.2221 49.3723C47.2305 48.6358 47.2384 47.8993 47.2461 47.1627C47.1636 47.163 47.0812 47.1633 46.9963 47.1636C44.9922 47.1705 42.9881 47.1757 40.9839 47.1789C40.0148 47.1805 39.0456 47.1827 38.0764 47.1863C37.2318 47.1894 36.3872 47.1914 35.5426 47.1921C35.0953 47.1925 34.648 47.1935 34.2007 47.1957C33.7798 47.1978 33.3589 47.1985 32.938 47.198C32.7834 47.1981 32.6288 47.1987 32.4742 47.1999C32.2633 47.2015 32.0525 47.2011 31.8416 47.2002C31.7803 47.2012 31.7189 47.2021 31.6557 47.203C31.3699 47.1999 31.2001 47.172 30.9545 47.0212C30.7952 46.8509 30.7952 46.8509 30.7074 46.5829C30.7172 46.3051 30.7172 46.3051 30.8715 46.0958C31.1711 45.8661 31.4041 45.8617 31.7666 45.8684C31.8328 45.8681 31.8991 45.8677 31.9673 45.8674C32.1892 45.8668 32.4109 45.8689 32.6328 45.871C32.7919 45.8711 32.9509 45.8711 33.11 45.8709C33.5418 45.8707 33.9736 45.873 34.4055 45.8758C34.8568 45.8782 35.3081 45.8784 35.7594 45.8789C36.614 45.8801 37.4685 45.8833 38.3231 45.8872C39.2961 45.8916 40.269 45.8937 41.2419 45.8957C43.2433 45.8997 45.2447 45.9066 47.2461 45.9153C47.2415 42.1847 47.2357 38.454 47.2282 34.7234C47.2273 34.2834 47.2265 33.8433 47.2256 33.4033C47.2253 33.2719 47.2253 33.2719 47.2251 33.1378C47.2223 31.7177 47.2204 30.2976 47.2187 28.8775C47.217 27.4213 47.2145 25.965 47.2111 24.5087C47.209 23.6096 47.2076 22.7104 47.2071 21.8112C47.2067 21.1953 47.2055 20.5794 47.2035 19.9635C47.2024 19.6077 47.2017 19.2519 47.202 18.8961C47.2023 18.5708 47.2015 18.2454 47.1998 17.9201C47.1994 17.802 47.1994 17.684 47.1998 17.5659C47.2003 17.4061 47.1992 17.2463 47.1981 17.0866C47.1979 16.9976 47.1978 16.9086 47.1976 16.817C47.1857 16.6003 47.1857 16.6003 47.0639 16.4575C46.8158 16.2826 46.5931 16.2783 46.3 16.2781C46.2167 16.2778 46.1333 16.2775 46.0475 16.2773C45.9097 16.2775 45.9097 16.2775 45.7691 16.2777C45.623 16.2774 45.623 16.2774 45.4741 16.2771C45.2033 16.2766 44.9326 16.2767 44.6619 16.2767C44.3701 16.2768 44.0783 16.2763 43.7865 16.276C43.2147 16.2753 42.6428 16.2751 42.071 16.2751C41.6062 16.275 41.1415 16.2749 40.6768 16.2746C39.3599 16.2739 38.0431 16.2736 36.7262 16.2736C36.6552 16.2736 36.5841 16.2736 36.511 16.2736C36.4398 16.2736 36.3687 16.2736 36.2955 16.2736C35.1427 16.2737 33.9899 16.2729 32.8372 16.2718C31.6542 16.2707 30.4712 16.2702 29.2883 16.2702C28.6238 16.2703 27.9594 16.27 27.295 16.2692C26.7293 16.2685 26.1637 16.2683 25.598 16.2689C25.3093 16.2691 25.0206 16.2691 24.7319 16.2684C24.4191 16.2677 24.1064 16.2682 23.7936 16.2688C23.6563 16.2682 23.6563 16.2682 23.5163 16.2676C23.4325 16.2679 23.3488 16.2683 23.2625 16.2687C23.1903 16.2687 23.1181 16.2686 23.0437 16.2686C22.8199 16.2903 22.6537 16.3439 22.4528 16.444C22.3644 16.6207 22.3649 16.7165 22.3646 16.9126C22.3642 16.978 22.3639 17.0433 22.3636 17.1107C22.3637 17.1825 22.3637 17.2544 22.3637 17.3284C22.3635 17.404 22.3632 17.4795 22.3629 17.5574C22.3623 17.7219 22.3619 17.8863 22.3616 18.0508C22.3611 18.3109 22.3599 18.5711 22.3584 18.8312C22.3543 19.571 22.3506 20.3108 22.3494 21.0505C22.3486 21.5027 22.3463 21.9548 22.343 22.4069C22.3421 22.5794 22.3417 22.7519 22.3419 22.9245C22.342 23.1657 22.3403 23.4068 22.3382 23.6479C22.3387 23.7195 22.3392 23.791 22.3397 23.8647C22.3326 24.3474 22.3326 24.3474 22.1526 24.5947C21.9328 24.7438 21.7828 24.781 21.5172 24.7864C21.1612 24.6203 21.1612 24.6203 21.0494 24.3966C21.0414 24.2907 21.0382 24.1844 21.0374 24.0782C21.0367 24.0115 21.036 23.9449 21.0353 23.8762C21.035 23.8029 21.0347 23.7296 21.0343 23.6541C21.0337 23.577 21.0331 23.4999 21.0324 23.4204C21.0305 23.1643 21.0292 22.9082 21.0281 22.6521C21.0276 22.5646 21.0272 22.4771 21.0268 22.387C21.0247 21.9235 21.0232 21.4601 21.0221 20.9966C21.0208 20.5188 21.0173 20.041 21.0133 19.5632C21.0107 19.1951 21.0098 18.8271 21.0093 18.4591C21.0088 18.283 21.0076 18.107 21.0058 17.9309C21.0033 17.6837 21.0033 17.4365 21.0039 17.1893C21.0026 17.1172 21.0013 17.0452 21 16.9709C21.005 16.4422 21.1398 16.0254 21.4392 15.5864C21.836 15.2135 22.1626 15.0312 22.7135 15.0302Z" fill="black"/>
<path d="M41.2121 24.5696C41.4076 24.7426 41.5985 24.9193 41.7884 25.0984C41.8402 25.1452 41.8921 25.192 41.9455 25.2403C43.6707 26.8603 44.6909 29.3391 44.7727 31.6835C44.812 33.5906 44.5503 35.9654 43.2697 37.495C43.0445 37.6076 42.8958 37.6024 42.646 37.573C42.4218 37.4073 42.4218 37.4073 42.2562 37.1831C42.1886 36.7317 42.3801 36.4248 42.5826 36.038C43.6101 33.9823 43.7064 31.623 43.0108 29.4462C42.2474 27.1995 40.6065 25.4342 38.497 24.3772C38.0243 24.1519 37.5369 23.9915 37.0324 23.8509C36.9477 23.826 36.863 23.801 36.7757 23.7754C35.4379 23.4428 33.8328 23.4625 32.5104 23.8509C32.417 23.8765 32.3236 23.9021 32.2274 23.9286C30.0992 24.5699 28.2624 26.0276 27.1907 27.9801C26.0764 30.0976 25.7528 32.4494 26.429 34.7662C26.7944 35.9193 27.3873 36.9466 28.1443 37.8848C28.216 37.976 28.216 37.976 28.2892 38.0691C29.6296 39.6816 31.7684 40.6676 33.8237 40.91C36.2424 41.1327 38.502 40.4116 40.385 38.8984C40.4514 38.841 40.5178 38.7836 40.5863 38.7245C40.8832 38.5072 41.0377 38.535 41.3985 38.5865C41.5983 38.7473 41.5983 38.7473 41.7104 38.9764C41.7161 39.2965 41.6814 39.4605 41.4814 39.7122C41.4026 39.7781 41.3238 39.844 41.2426 39.912C41.1644 39.9802 41.1644 39.9802 41.0845 40.0499C39.0227 41.7893 36.3719 42.4318 33.7166 42.2364C31.7252 42.0366 29.8172 41.2102 28.3002 39.912C28.2608 39.8789 28.2213 39.8459 28.1807 39.8119C26.2744 38.2063 25.0581 35.8383 24.7917 33.3628C24.6641 30.393 25.3316 27.8061 27.3305 25.5467C27.4453 25.4228 27.5606 25.2993 27.6765 25.1763C27.7241 25.1237 27.7717 25.071 27.8208 25.0167C28.992 23.7708 30.6479 22.9721 32.2765 22.5255C32.368 22.499 32.4596 22.4726 32.5539 22.4454C35.5539 21.7323 38.8811 22.5876 41.2121 24.5696Z" fill="black"/>
<path d="M35.3174 25.9559C35.6054 26.1893 35.8683 26.4443 36.1344 26.7021C36.3107 26.8677 36.4979 27.0182 36.6867 27.1693C36.9803 27.4056 37.2621 27.6498 37.5394 27.9051C37.8184 28.1618 38.102 28.4077 38.3971 28.6457C38.7676 28.9447 39.1182 29.2606 39.4682 29.5832C39.6825 29.7753 39.9025 29.9567 40.127 30.1368C41.1837 31.001 41.1837 31.001 41.2623 31.4623C41.2708 31.8107 41.1702 32.0131 40.931 32.2712C40.6086 32.4407 40.3314 32.4436 39.971 32.4369C39.8732 32.4354 39.7754 32.434 39.6747 32.4326C39.6004 32.4308 39.5261 32.429 39.4496 32.4271C39.4503 32.4964 39.451 32.5657 39.4517 32.6371C39.458 33.2909 39.4627 33.9448 39.4658 34.5986C39.4674 34.9348 39.4696 35.2709 39.4731 35.607C39.4765 35.9316 39.4784 36.2561 39.4792 36.5807C39.4798 36.7043 39.4809 36.828 39.4826 36.9516C39.4849 37.1252 39.4852 37.2987 39.485 37.4723C39.4857 37.571 39.4864 37.6696 39.4871 37.7713C39.4424 38.0924 39.3403 38.2581 39.1378 38.5085C38.7602 38.7602 38.3212 38.6964 37.8793 38.6976C37.7113 38.6985 37.5436 38.7023 37.3757 38.7063C37.2682 38.707 37.1606 38.7076 37.0531 38.708C36.9558 38.709 36.8584 38.7101 36.7582 38.7111C36.3977 38.649 36.2738 38.5336 36.0191 38.2746C35.9417 38.0423 35.9317 37.8914 35.9323 37.6491C35.9323 37.5297 35.9323 37.5297 35.9323 37.4079C35.9327 37.3222 35.9331 37.2364 35.9335 37.148C35.9336 37.0601 35.9337 36.9722 35.9339 36.8816C35.9343 36.6004 35.9353 36.3191 35.9363 36.0379C35.9367 35.8474 35.937 35.6569 35.9373 35.4664C35.9381 34.9991 35.9397 34.5317 35.9411 34.0644C35.1693 34.0644 34.3974 34.0644 33.6021 34.0644C33.6049 34.3469 33.6076 34.6294 33.6104 34.9205C33.6122 35.1943 33.6136 35.4681 33.615 35.7418C33.6162 35.932 33.6178 36.1222 33.6198 36.3124C33.6226 36.5859 33.624 36.8593 33.625 37.1328C33.6262 37.2178 33.6274 37.3027 33.6286 37.3903C33.6288 37.9009 33.5993 38.1949 33.2318 38.5697C32.8704 38.7648 32.4244 38.7016 32.0216 38.6992C31.8536 38.6985 31.6857 38.7008 31.5176 38.7032C31.4102 38.7034 31.3027 38.7033 31.1952 38.7031C31.098 38.7032 31.0008 38.7034 30.9006 38.7035C30.5912 38.6572 30.4671 38.574 30.2496 38.3525C30.0638 38.0716 30.0748 37.8212 30.076 37.49C30.0759 37.4352 30.0759 37.3804 30.0759 37.3239C30.076 37.1434 30.0772 36.9628 30.0784 36.7823C30.0787 36.6568 30.0789 36.5314 30.0791 36.406C30.0797 36.0764 30.0812 35.7467 30.083 35.417C30.0846 35.0805 30.0853 34.7439 30.086 34.4073C30.0877 33.7473 30.0904 33.0872 30.0937 32.4271C29.9836 32.4312 29.9836 32.4312 29.8713 32.4353C29.7743 32.4374 29.6772 32.4396 29.5771 32.4417C29.4333 32.4458 29.4333 32.4458 29.2866 32.45C28.978 32.4252 28.7967 32.3541 28.5343 32.1932C28.3531 31.9757 28.3042 31.8234 28.2517 31.5451C28.39 30.7294 29.4375 30.0821 30.0449 29.5911C30.3999 29.3041 30.7357 29.0023 31.0696 28.6916C31.3901 28.3952 31.7249 28.12 32.0651 27.8463C32.285 27.6643 32.4955 27.4747 32.7055 27.2813C33.1205 26.8996 33.5519 26.5421 33.992 26.1898C34.0581 26.1333 34.1242 26.0768 34.1924 26.0186C34.5611 25.7448 34.9078 25.7548 35.3174 25.9559ZM33.1925 28.5705C32.9848 28.757 32.7719 28.9336 32.5545 29.1087C32.2015 29.3934 31.8678 29.6929 31.5364 30.0019C31.2003 30.3133 30.8493 30.6008 30.4899 30.8851C30.3214 31.0108 30.3214 31.0108 30.2496 31.1796C30.3032 31.1873 30.3567 31.1949 30.4119 31.2028C30.4822 31.2145 30.5524 31.2261 30.6248 31.2381C30.6945 31.249 30.7641 31.2598 30.8359 31.271C31.0821 31.3532 31.1348 31.4228 31.2632 31.6474C31.2942 31.904 31.2942 31.904 31.2969 32.2125C31.2977 32.2688 31.2985 32.3251 31.2993 32.3831C31.3016 32.5688 31.3023 32.7543 31.3031 32.94C31.3044 33.0689 31.3058 33.1978 31.3073 33.3267C31.311 33.6656 31.3133 34.0045 31.3154 34.3434C31.3177 34.6894 31.3213 35.0353 31.3248 35.3813C31.3315 36.0598 31.3368 36.7384 31.3411 37.417C31.6756 37.417 32.0101 37.417 32.3547 37.417C32.3558 37.2985 32.357 37.1801 32.3581 37.0581C32.3627 36.6186 32.3687 36.179 32.3751 35.7395C32.3777 35.5493 32.3799 35.3591 32.3817 35.1689C32.3843 34.8954 32.3884 34.622 32.3928 34.3486C32.3933 34.2636 32.3938 34.1786 32.3943 34.0911C32.4089 33.3353 32.4089 33.3353 32.6666 33.0508C32.8969 32.9114 33.0692 32.875 33.3369 32.8735C33.4426 32.8724 33.4426 32.8724 33.5506 32.8712C33.6262 32.8713 33.7018 32.8714 33.7797 32.8715C33.8579 32.8711 33.9362 32.8708 34.0168 32.8704C34.1821 32.87 34.3475 32.87 34.5128 32.8703C34.7656 32.8705 35.0182 32.8687 35.271 32.8667C35.4317 32.8666 35.5925 32.8665 35.7532 32.8666C35.8287 32.8659 35.9041 32.8651 35.9819 32.8644C36.6578 32.869 36.6578 32.869 36.9547 33.1288C37.1041 33.3708 37.1313 33.5589 37.1355 33.8411C37.137 33.9207 37.1386 34.0003 37.1402 34.0823C37.1411 34.1676 37.142 34.253 37.1429 34.3409C37.1444 34.4288 37.1459 34.5166 37.1475 34.607C37.1522 34.8875 37.1558 35.1679 37.1594 35.4483C37.1623 35.6384 37.1654 35.8286 37.1685 36.0187C37.176 36.4848 37.1825 36.9509 37.1886 37.417C37.5231 37.417 37.8575 37.417 38.2022 37.417C38.2023 37.3455 38.2024 37.2741 38.2025 37.2005C38.2039 36.5271 38.2071 35.8538 38.2125 35.1804C38.2151 34.8342 38.2171 34.4881 38.2174 34.1419C38.2177 33.8077 38.22 33.4736 38.2235 33.1394C38.2245 33.012 38.2248 32.8846 38.2245 32.7572C38.2241 32.5785 38.2261 32.4 38.2287 32.2213C38.2292 32.1197 38.2298 32.0181 38.2303 31.9134C38.2925 31.5814 38.41 31.4661 38.67 31.2576C38.8445 31.2025 38.8445 31.2025 39.0062 31.1943C39.1485 31.187 39.1485 31.187 39.2937 31.1796C38.6435 30.5222 37.9627 29.9038 37.2416 29.3249C37.0223 29.144 36.813 28.9552 36.6039 28.7627C36.2492 28.4365 35.8838 28.1281 35.5087 27.8259C35.3497 27.6973 35.1943 27.566 35.0397 27.4324C34.524 27.0225 33.5864 28.2079 33.1925 28.5705Z" fill="black"/>
<path d="M36.1749 48.644C36.7353 49.1465 36.9826 49.7039 37.0569 50.447C36.9989 51.1654 36.7129 51.7514 36.1749 52.2305C35.6706 52.605 35.0833 52.766 34.4596 52.6983C33.7868 52.5967 33.347 52.2665 32.9003 51.7627C32.5713 51.2757 32.4721 50.788 32.5105 50.2034C32.6704 49.4623 32.9799 48.9299 33.602 48.4881C34.4764 48.0432 35.3612 48.0911 36.1749 48.644ZM33.9626 49.833C33.8052 50.0995 33.7634 50.2837 33.7579 50.5932C33.8864 50.9573 34.0525 51.1709 34.3817 51.3729C34.6961 51.4586 34.8676 51.472 35.1759 51.3631C35.4903 51.1536 35.6623 50.9643 35.7802 50.6029C35.7866 50.2819 35.7066 50.0933 35.5512 49.8135C35.0456 49.2943 34.4823 49.3406 33.9626 49.833Z" fill="black"/>
<path d="M31.2373 17.3292C31.322 17.3285 31.4068 17.3278 31.494 17.3271C31.7744 17.3254 32.0546 17.3265 32.3349 17.3278C32.5295 17.3276 32.7241 17.3272 32.9187 17.3267C33.3266 17.3261 33.7346 17.3269 34.1425 17.3288C34.6139 17.3309 35.0853 17.3302 35.5567 17.3281C36.0104 17.3261 36.4642 17.3263 36.918 17.3274C37.1109 17.3277 37.3039 17.3274 37.4969 17.3265C37.7665 17.3255 38.0359 17.327 38.3055 17.3292C38.3855 17.3284 38.4655 17.3276 38.548 17.3268C39.0874 17.3349 39.0874 17.3349 39.3427 17.5631C39.475 17.8191 39.5027 17.953 39.4494 18.2372C39.2906 18.4615 39.1639 18.6051 38.8879 18.6632C38.6691 18.678 38.4534 18.6797 38.2342 18.6775C38.1511 18.6782 38.068 18.6789 37.9824 18.6796C37.708 18.6813 37.4336 18.6802 37.1591 18.6788C36.9683 18.6791 36.7775 18.6795 36.5867 18.68C36.1869 18.6806 35.7872 18.6797 35.3874 18.6779C34.8748 18.6757 34.3623 18.677 33.8497 18.6793C33.4557 18.6807 33.0618 18.6803 32.6678 18.6792C32.4788 18.679 32.2898 18.6793 32.1008 18.6802C31.8367 18.6812 31.5727 18.6797 31.3086 18.6775C31.2304 18.6783 31.1522 18.6791 31.0717 18.6799C30.7075 18.6744 30.5377 18.668 30.2395 18.4436C30.0934 18.2372 30.0934 18.2372 30.0496 18.0033C30.1809 17.3029 30.6332 17.3232 31.2373 17.3292Z" fill="black"/>
</svg>
