<svg width="177" height="152" viewBox="0 0 177 152" fill="none" xmlns="http://www.w3.org/2000/svg">
<circle cx="52.5" cy="52" r="52" fill="#C6E8FF"/>
<path d="M30.62 51.04C30.62 46.4267 31.4467 42.8133 33.1 40.2C34.78 37.5867 37.5533 36.28 41.42 36.28C45.2867 36.28 48.0467 37.5867 49.7 40.2C51.38 42.8133 52.22 46.4267 52.22 51.04C52.22 55.68 51.38 59.32 49.7 61.96C48.0467 64.6 45.2867 65.92 41.42 65.92C37.5533 65.92 34.78 64.6 33.1 61.96C31.4467 59.32 30.62 55.68 30.62 51.04ZM46.7 51.04C46.7 49.0667 46.5667 47.4133 46.3 46.08C46.06 44.72 45.5533 43.6133 44.78 42.76C44.0333 41.9067 42.9133 41.48 41.42 41.48C39.9267 41.48 38.7933 41.9067 38.02 42.76C37.2733 43.6133 36.7667 44.72 36.5 46.08C36.26 47.4133 36.14 49.0667 36.14 51.04C36.14 53.0667 36.26 54.7733 36.5 56.16C36.74 57.52 37.2467 58.6267 38.02 59.48C38.7933 60.3067 39.9267 60.72 41.42 60.72C42.9133 60.72 44.0467 60.3067 44.82 59.48C45.5933 58.6267 46.1 57.52 46.34 56.16C46.58 54.7733 46.7 53.0667 46.7 51.04ZM76.0794 41.68H63.1194V48.52C63.6794 47.8267 64.4794 47.2667 65.5194 46.84C66.5594 46.3867 67.666 46.16 68.8394 46.16C70.9727 46.16 72.7194 46.6267 74.0794 47.56C75.4394 48.4933 76.426 49.6933 77.0394 51.16C77.6527 52.6 77.9594 54.1467 77.9594 55.8C77.9594 58.8667 77.0794 61.3333 75.3194 63.2C73.586 65.0667 71.106 66 67.8794 66C64.8394 66 62.4127 65.24 60.5994 63.72C58.786 62.2 57.7594 60.2133 57.5194 57.76H62.9594C63.1994 58.8267 63.7327 59.68 64.5594 60.32C65.4127 60.96 66.4927 61.28 67.7994 61.28C69.3727 61.28 70.5594 60.7867 71.3594 59.8C72.1594 58.8133 72.5594 57.5067 72.5594 55.88C72.5594 54.2267 72.146 52.9733 71.3194 52.12C70.5194 51.24 69.3327 50.8 67.7594 50.8C66.6394 50.8 65.706 51.08 64.9594 51.64C64.2127 52.2 63.6794 52.9467 63.3594 53.88H57.9994V36.76H76.0794V41.68Z" fill="black"/>
<g clip-path="url(#clip0_34_1780)">
<path d="M89 69.5L84.5 72.5L83 78.5V96L89 92L95.5 89.5L100.5 84.5V72L103.5 70.5L106.5 67.5L104.5 62.5L97.5 59L91.5 62.5L89 69.5Z" fill="white"/>
<path d="M147.593 52.7825C149.858 54.2839 150.561 56.8183 151.287 59.3018C151.376 59.5961 151.464 59.8903 151.552 60.1844C151.74 60.8113 151.927 61.4386 152.112 62.0662C152.407 63.0647 152.706 64.0622 153.004 65.0596C153.363 66.2578 153.721 67.4562 154.078 68.6549C154.662 70.6169 155.252 72.5772 155.846 74.5362C155.886 74.6693 155.927 74.8024 155.968 74.9395C156.169 75.6009 156.37 76.2623 156.571 76.9236C156.932 78.1114 157.292 79.2994 157.652 80.4875C157.771 80.882 157.891 81.2766 158.011 81.6711C158.53 83.3833 159.048 85.0957 159.566 86.8082C159.929 88.007 160.292 89.2058 160.655 90.4045C160.695 90.5365 160.735 90.6685 160.776 90.8045C162.018 94.9055 163.267 99.0041 164.521 103.101C165.947 107.764 167.371 112.426 168.783 117.093C168.945 117.63 169.108 118.167 169.271 118.704C169.495 119.443 169.718 120.182 169.941 120.921C170.007 121.137 170.072 121.352 170.14 121.574C170.885 124.053 171.476 126.158 170.323 128.625C169.078 130.891 167.373 131.738 164.972 132.461C164.807 132.512 164.641 132.563 164.47 132.616C163.935 132.78 163.4 132.942 162.864 133.105C162.496 133.217 162.128 133.33 161.759 133.443C158.931 134.309 156.097 135.158 153.257 135.986C153.254 136.124 153.25 136.261 153.246 136.404C153.227 137.029 153.206 137.655 153.184 138.281C153.178 138.498 153.172 138.715 153.166 138.938C153.158 139.147 153.151 139.356 153.143 139.571C153.137 139.764 153.131 139.956 153.124 140.154C153.061 140.681 152.951 141.007 152.671 141.454C152.145 141.864 151.872 141.844 151.194 141.808C150.516 141.648 150.337 141.601 149.937 141.064C149.871 140.621 149.871 140.621 149.88 140.109C149.881 139.944 149.883 139.779 149.884 139.609C149.89 139.4 149.895 139.191 149.9 138.976C149.907 138.617 149.914 138.258 149.92 137.898C149.926 137.586 149.931 137.274 149.937 136.962C149.799 137.005 149.662 137.048 149.52 137.092C145.767 138.26 142.011 139.416 138.252 140.564C137.808 140.7 137.363 140.836 136.918 140.972C131.999 142.475 127.077 143.969 122.154 145.458C121.996 145.506 121.838 145.554 121.675 145.603C120.617 145.923 119.559 146.243 118.501 146.563C118.369 146.603 118.237 146.643 118.101 146.684C115.888 147.353 113.675 148.017 111.461 148.681C116.123 148.699 120.785 148.713 125.447 148.721C127.611 148.725 129.776 148.731 131.941 148.74C133.827 148.748 135.714 148.753 137.601 148.754C138.6 148.755 139.599 148.758 140.598 148.764C141.539 148.769 142.479 148.77 143.42 148.769C143.765 148.769 144.109 148.771 144.454 148.774C144.926 148.778 145.398 148.777 145.869 148.775C146.005 148.777 146.141 148.779 146.281 148.782C147.332 148.769 147.916 148.475 148.765 147.9C149.425 147.112 149.703 146.329 149.955 145.351C150.132 144.97 150.132 144.97 150.498 144.72C151.14 144.503 151.631 144.621 152.281 144.775C152.687 145.082 152.843 145.265 152.965 145.763C153.007 147.459 152.393 148.841 151.294 150.126C149.573 151.771 147.771 152.118 145.449 152.1C145.2 152.102 144.951 152.103 144.694 152.104C144.007 152.107 143.321 152.106 142.634 152.103C141.892 152.102 141.149 152.104 140.407 152.106C138.955 152.11 137.502 152.109 136.05 152.107C134.869 152.105 133.688 152.105 132.507 152.106C132.255 152.106 132.255 152.106 131.997 152.106C131.655 152.106 131.314 152.107 130.972 152.107C127.768 152.109 124.565 152.107 121.361 152.102C118.615 152.099 115.868 152.099 113.122 152.103C109.93 152.107 106.737 152.109 103.545 152.107C103.204 152.106 102.864 152.106 102.523 152.106C102.355 152.106 102.188 152.106 102.015 152.105C100.836 152.105 99.6575 152.106 98.4786 152.108C97.0413 152.11 95.6039 152.109 94.1666 152.105C93.4337 152.103 92.7009 152.102 91.9681 152.105C91.1725 152.108 90.3771 152.104 89.5816 152.1C89.3515 152.102 89.1215 152.104 88.8844 152.106C86.8287 152.086 85.2382 151.554 83.7353 150.128C82.3671 148.517 81.9441 146.773 81.9438 144.7C81.943 144.335 81.943 144.335 81.9422 143.963C81.9426 143.696 81.9431 143.428 81.9435 143.161C81.9433 142.875 81.943 142.589 81.9426 142.303C81.9418 141.518 81.9422 140.734 81.9428 139.95C81.9432 139.103 81.9426 138.256 81.942 137.41C81.9412 135.751 81.9413 134.093 81.9419 132.435C81.9424 131.086 81.9424 129.737 81.9422 128.389C81.9422 128.197 81.9421 128.005 81.9421 127.807C81.9421 127.417 81.942 127.027 81.9419 126.637C81.9414 122.978 81.942 119.32 81.9431 115.661C81.9439 112.525 81.9438 109.389 81.9429 106.253C81.9418 102.61 81.9414 98.9666 81.942 95.3232C81.9421 94.9341 81.9421 94.5451 81.9422 94.156C81.9422 93.9646 81.9423 93.7732 81.9423 93.576C81.9425 92.2305 81.9422 90.885 81.9417 89.5395C81.9412 87.8976 81.9413 86.2556 81.9424 84.6137C81.9429 83.7768 81.9431 82.9398 81.9424 82.1028C81.9418 81.335 81.9422 80.5672 81.9432 79.7993C81.9434 79.5232 81.9433 79.247 81.9428 78.9709C81.9327 72.5976 81.9327 72.5976 84.0634 70.356C85.21 69.3591 86.5552 68.9018 88.023 68.6028C88.0162 68.4444 88.0094 68.2861 88.0024 68.1229C87.9322 65.2487 88.7027 62.736 90.7002 60.6148C92.7878 58.7014 95.3745 57.7844 98.18 57.8186C100.945 58.0169 103.114 59.2125 105.015 61.1809C105.992 62.3418 105.992 62.3418 105.992 62.9387C109.289 62.0369 112.562 61.0696 115.828 60.0604C116.607 59.8196 117.387 59.5803 118.166 59.3413C120.415 58.6516 122.663 57.961 124.909 57.2632C125.99 56.9277 127.071 56.5948 128.153 56.2629C128.602 56.1245 129.051 55.985 129.5 55.8445C130.12 55.6503 130.742 55.4596 131.363 55.2697C131.544 55.2121 131.725 55.1545 131.912 55.0952C132.934 54.7874 133.66 54.6707 134.703 54.9309C135.22 55.2584 135.28 55.4878 135.46 56.0784C135.491 56.8592 135.406 57.0676 134.898 57.6653C134.244 57.9894 133.558 58.1922 132.86 58.4038C132.652 58.47 132.444 58.5362 132.229 58.6044C131.557 58.8163 130.884 59.0226 130.211 59.2278C129.997 59.2937 129.783 59.3595 129.563 59.4274C127.955 59.9232 126.342 60.4062 124.73 60.8879C123.794 61.168 122.86 61.4486 121.925 61.7293C121.642 61.8142 121.359 61.899 121.077 61.9837C118.795 62.6686 116.515 63.3616 114.237 64.0583C113.702 64.2219 113.167 64.3853 112.632 64.5486C112.278 64.6567 111.924 64.7647 111.57 64.8728C111.396 64.926 111.222 64.9792 111.042 65.034C110.171 65.3003 109.299 65.5671 108.427 65.8346C107.604 66.0874 106.781 66.3392 105.957 66.5903C105.652 66.6835 105.347 66.7771 105.042 66.8711C104.623 67 104.205 67.1276 103.786 67.2548C103.551 67.3269 103.315 67.399 103.073 67.4732C102.476 67.6262 102.476 67.6262 101.695 67.6262C101.697 67.8543 101.698 68.0825 101.7 68.3175C101.716 70.4726 101.728 72.6276 101.735 74.7827C101.739 75.8906 101.745 76.9983 101.754 78.1062C101.762 79.1763 101.767 80.2463 101.769 81.3164C101.77 81.7237 101.773 82.1309 101.778 82.5382C101.783 83.1108 101.784 83.6833 101.784 84.2559C101.786 84.4224 101.789 84.5889 101.792 84.7604C101.779 86.632 101.046 88.3493 99.7418 89.6965C98.0439 91.1093 96.3666 91.5813 94.1738 91.52C92.566 91.3653 91.4853 90.8615 90.3027 89.7629C90.1307 89.6043 89.9586 89.4457 89.7814 89.2822C89.6523 89.1611 89.5232 89.04 89.3902 88.9153C90.5017 92.6352 91.6194 96.3532 92.7456 100.069C92.7893 100.213 92.833 100.357 92.878 100.506C93.3204 101.965 93.7629 103.424 94.2058 104.883C94.374 105.437 94.5422 105.991 94.7103 106.545C94.8268 106.929 94.9436 107.314 95.0603 107.698C96.1535 111.301 96.1535 111.301 96.0308 112.548C95.7379 113.036 95.7379 113.036 95.2496 113.329C94.6814 113.429 94.2767 113.395 93.6871 113.329C90.3509 110.774 88.9366 99.2067 87.6591 94.9644C87.4124 94.1454 87.1657 93.3265 86.919 92.5076C86.4406 90.9196 85.9622 89.3315 85.484 87.7434C85.4661 95.2095 85.4523 102.676 85.4441 110.142C85.4431 111.023 85.4421 111.904 85.441 112.786C85.4408 112.961 85.4406 113.137 85.4404 113.317C85.437 116.159 85.4309 119 85.4237 121.842C85.4164 124.757 85.412 127.672 85.4105 130.588C85.4094 132.387 85.406 134.186 85.3997 135.985C85.3955 137.218 85.3943 138.452 85.3953 139.685C85.3958 140.397 85.395 141.109 85.3908 141.821C85.3863 142.593 85.3879 143.364 85.39 144.136C85.3877 144.361 85.3855 144.586 85.3831 144.817C85.3926 146.083 85.4967 146.877 86.2652 147.9C87.3387 148.722 88.2024 148.791 89.5267 148.77C89.8042 148.77 89.8042 148.77 90.0873 148.77C90.695 148.769 91.3025 148.763 91.9102 148.757C92.333 148.756 92.7558 148.755 93.1786 148.754C94.2886 148.751 95.3986 148.743 96.5086 148.735C97.6424 148.727 98.7762 148.723 99.91 148.719C102.133 148.711 104.355 148.697 106.578 148.681C106.444 148.603 106.311 148.526 106.173 148.446C105.91 148.291 105.91 148.291 105.642 148.133C105.468 148.031 105.294 147.93 105.115 147.825C102.755 146.305 102.222 143.087 101.465 140.558C101.37 140.243 101.275 139.929 101.179 139.614C100.926 138.777 100.674 137.939 100.422 137.102C100.161 136.234 99.8993 135.366 99.6373 134.498C99.3215 133.452 99.0058 132.405 98.6908 131.359C98.0991 129.394 97.5033 127.43 96.9013 125.467C96.6453 124.633 96.3905 123.797 96.1355 122.962C96.0014 122.524 95.8668 122.086 95.7316 121.649C95.5471 121.051 95.3645 120.452 95.1825 119.853C95.129 119.682 95.0755 119.51 95.0204 119.334C94.4318 117.381 94.4318 117.381 94.859 116.393C95.3588 115.972 95.7622 115.899 96.3955 115.788C97.0721 115.918 97.3467 116.333 97.7887 116.845C97.9975 117.333 98.1577 117.776 98.3021 118.282C98.3686 118.5 98.3686 118.5 98.4364 118.723C98.5856 119.215 98.7303 119.708 98.8751 120.202C98.9819 120.557 99.089 120.913 99.1965 121.268C99.4382 122.069 99.6782 122.871 99.917 123.673C100.373 125.204 100.837 126.732 101.3 128.26C101.472 128.826 101.644 129.391 101.815 129.957C101.858 130.098 101.901 130.238 101.945 130.383C102.277 131.479 102.609 132.575 102.94 133.671C103.253 134.709 103.568 135.745 103.883 136.782C104.123 137.57 104.36 138.359 104.596 139.149C104.753 139.672 104.911 140.194 105.07 140.717C105.18 141.08 105.287 141.443 105.395 141.806C105.822 143.204 106.168 144.277 107.322 145.226C108.422 145.808 109.345 145.817 110.519 145.462C110.751 145.393 110.983 145.324 111.222 145.253C111.474 145.176 111.727 145.098 111.979 145.02C112.248 144.939 112.516 144.858 112.785 144.778C113.501 144.563 114.216 144.345 114.931 144.126C115.64 143.91 116.35 143.697 117.059 143.484C118.711 142.986 120.361 142.484 122.011 141.981C122.848 141.725 123.685 141.471 124.522 141.216C125.745 140.844 126.968 140.472 128.19 140.099C131.154 139.197 134.119 138.296 137.083 137.396C138.193 137.059 139.303 136.722 140.413 136.384C143.41 135.474 146.407 134.563 149.404 133.654C150.638 133.28 151.872 132.906 153.106 132.531C153.944 132.277 154.783 132.023 155.621 131.769C157.252 131.275 158.882 130.78 160.511 130.28C161.341 130.026 162.173 129.777 163.005 129.529C163.393 129.411 163.781 129.293 164.17 129.175C164.338 129.126 164.506 129.077 164.68 129.027C165.829 128.672 166.731 128.214 167.393 127.16C167.79 125.374 167.338 123.807 166.798 122.1C166.721 121.85 166.644 121.599 166.568 121.349C166.403 120.812 166.237 120.276 166.07 119.74C165.801 118.879 165.535 118.017 165.27 117.154C164.947 116.102 164.623 115.049 164.297 113.997C163.74 112.197 163.19 110.395 162.645 108.591C162.606 108.463 162.567 108.335 162.527 108.203C162.371 107.685 162.214 107.167 162.058 106.65C161.617 105.189 161.174 103.728 160.731 102.267C160.69 102.132 160.649 101.997 160.607 101.857C159.526 98.2914 158.442 94.7264 157.359 91.1614C156.029 86.7849 154.7 82.4083 153.373 78.0308C153.135 77.2452 152.897 76.4597 152.659 75.6742C151.868 73.0669 151.079 70.4591 150.295 67.8498C149.978 66.7953 149.66 65.741 149.342 64.6868C149.083 63.8267 148.825 62.9664 148.567 62.1059C148.409 61.5766 148.249 61.0476 148.089 60.5187C147.98 60.1575 147.873 59.7959 147.765 59.4344C147.253 57.7451 146.883 56.5881 145.445 55.5168C144.288 54.9384 142.886 55.3552 141.722 55.7122C140.621 56.0492 139.756 56.2344 138.609 56.1028C138.181 55.7914 138.042 55.6198 137.945 55.0957C137.947 54.9446 137.948 54.7936 137.95 54.6379C137.948 54.4869 137.947 54.3358 137.945 54.1802C138.043 53.6527 138.205 53.5178 138.609 53.1731C141.247 51.8774 144.961 51.1652 147.593 52.7825ZM92.9241 63.0623C91.4964 64.6765 91.0891 66.2062 91.0913 68.3239C91.09 68.5064 91.0887 68.6888 91.0873 68.8768C91.0836 69.477 91.0828 70.0771 91.0824 70.6772C91.0812 71.0963 91.0798 71.5153 91.0785 71.9344C91.0761 72.8116 91.0754 73.6888 91.0756 74.566C91.0757 75.6879 91.0703 76.8098 91.0636 77.9317C91.0593 78.7968 91.0585 79.6619 91.0587 80.527C91.0582 80.9405 91.0565 81.3541 91.0535 81.7677C91.0496 82.3468 91.0508 82.9257 91.0531 83.5049C91.0509 83.6742 91.0487 83.8436 91.0465 84.0181C91.0593 85.2675 91.3391 86.3234 92.205 87.2606C93.1359 88.0824 93.9791 88.4296 95.2275 88.3896C96.5114 88.2021 97.355 87.4874 98.1541 86.5097C98.7048 85.6885 98.6002 84.7818 98.6014 83.8345C98.6023 83.6544 98.6033 83.4743 98.6043 83.2887C98.6072 82.6923 98.6085 82.0959 98.6096 81.4995C98.6107 81.0858 98.6118 80.672 98.6129 80.2582C98.615 79.3907 98.6161 78.5231 98.6168 77.6555C98.6179 76.5423 98.6226 75.429 98.6281 74.3157C98.6318 73.4612 98.6328 72.6067 98.6331 71.7522C98.6337 71.3417 98.6353 70.9311 98.6378 70.5206C98.6411 69.9473 98.6408 69.3741 98.6395 68.8008C98.6413 68.6303 98.6431 68.4598 98.645 68.2842C98.6639 67.4368 98.6639 67.4368 98.3098 66.6976C97.9717 66.3919 97.9717 66.3919 97.3858 66.4788C96.7549 66.6001 96.7549 66.6001 96.4215 67.2356C96.3819 67.7396 96.3647 68.223 96.3654 68.7271C96.3634 68.9545 96.3634 68.9545 96.3613 69.1864C96.3587 69.5153 96.3569 69.8443 96.3559 70.1733C96.3543 70.6937 96.3503 71.214 96.3457 71.7344C96.3362 72.839 96.3298 73.9435 96.3238 75.0481C96.3168 76.3279 96.3087 77.6077 96.2973 78.8875C96.2933 79.4006 96.2917 79.9138 96.2902 80.427C96.2876 80.741 96.285 81.055 96.2822 81.3691C96.2824 81.5121 96.2826 81.6552 96.2828 81.8026C96.274 82.5232 96.2463 82.8303 95.8355 83.4465C95.0699 83.6167 94.4351 83.7158 93.6871 83.4465C93.4442 82.6929 93.4601 81.9384 93.4572 81.1553C93.4559 81.0041 93.4546 80.8528 93.4533 80.6969C93.4495 80.1969 93.4472 79.697 93.4452 79.197C93.4444 79.0256 93.4436 78.8542 93.4428 78.6776C93.4388 77.7699 93.436 76.8622 93.4341 75.9545C93.432 75.0206 93.4253 74.0869 93.4175 73.153C93.4124 72.4318 93.4107 71.7107 93.41 70.9895C93.4091 70.6454 93.4068 70.3014 93.4032 69.9575C93.3625 65.8516 93.3625 65.8516 94.7247 64.4158C96.0294 63.6572 97.0482 63.3039 98.5699 63.5247C99.3334 63.7953 99.9494 64.1229 100.523 64.6965C100.984 64.6721 100.984 64.6721 101.487 64.55C101.744 64.4972 101.744 64.4972 102.005 64.4432C102.521 64.3184 102.521 64.3184 103.062 63.9153C101.899 62.3845 100.518 61.4014 98.6096 61.0298C96.3778 60.8003 94.5105 61.4914 92.9241 63.0623ZM86.2652 72.7043C85.5635 73.4294 85.2327 74.1596 85.2295 75.1701C85.2532 76.2594 85.5138 77.2155 85.8441 78.2479C85.9004 78.4315 85.9568 78.6152 86.0149 78.8044C86.1934 79.3842 86.3757 79.9627 86.5582 80.5413C86.6808 80.9369 86.8031 81.3326 86.9252 81.7284C87.2231 82.6926 87.5245 83.6558 87.8277 84.6184C87.8922 84.6184 87.9566 84.6184 88.023 84.6184C88.023 80.429 88.023 76.2395 88.023 71.9231C87.4037 71.9231 86.7614 72.3742 86.2652 72.7043Z" fill="black"/>
<path d="M118.102 74.2665C118.533 74.6274 118.762 74.9583 119.078 75.4383C119.078 75.6317 119.078 75.8251 119.078 76.0243C119.201 76.0056 119.324 75.987 119.451 75.9678C120.807 75.7921 121.883 75.7749 123.082 76.5248C123.519 77.2345 123.561 77.9491 123.375 78.7586C123.093 79.295 123.093 79.295 122.594 79.7352C121.984 79.8686 121.385 79.863 120.763 79.8573C119.575 79.8573 118.766 79.8994 117.711 80.5165C117.582 80.5165 117.453 80.5165 117.321 80.5165C117.108 81.4766 117.108 81.4766 117.35 82.404C117.671 82.8924 117.671 82.8924 118.178 83.0273C118.362 83.0487 118.547 83.0701 118.737 83.0921C118.944 83.1196 119.152 83.147 119.366 83.1753C119.707 83.2127 119.707 83.2127 120.055 83.2508C124.267 83.7131 124.267 83.7131 125.719 85.204C127.092 87.1643 127.455 88.8754 127.281 91.2586C127.027 92.5927 126.218 93.6042 125.193 94.4668C124.898 94.7602 124.898 94.7602 124.915 95.1817C124.93 95.3292 124.946 95.4768 124.962 95.6288C124.982 96.3362 124.957 96.5021 124.559 97.1302C123.863 97.5711 123.436 97.6508 122.625 97.6048C121.937 97.4479 121.632 97.0888 121.227 96.5321C121.105 96.1079 121.105 96.1079 121.031 95.7508C120.786 95.7669 120.54 95.7831 120.287 95.7997C118.884 95.7974 117.629 95.3522 116.515 94.5057C116.081 93.8978 115.953 93.569 115.953 92.8211C116.237 91.9716 116.373 91.5648 117.125 91.0633C117.934 90.9477 118.43 91.1085 119.139 91.4662C120.089 91.917 120.805 91.9145 121.813 91.6493C122.438 91.4104 122.84 91.2389 123.265 90.7215C123.477 89.8754 123.284 89.1481 122.936 88.3656C122.437 87.7417 121.885 87.591 121.107 87.4651C120.928 87.4488 120.75 87.4325 120.565 87.4157C120.366 87.3949 120.166 87.3742 119.961 87.3528C119.547 87.3122 119.134 87.2735 118.72 87.2368C117.049 87.0577 115.661 86.6249 114.415 85.4603C113.311 83.7389 112.977 82.175 113.219 80.1258C113.531 79.0601 114.127 78.3023 114.977 77.5868C115.106 77.5868 115.235 77.5868 115.367 77.5868C115.335 77.4861 115.303 77.3854 115.27 77.2816C115.094 76.424 115.06 75.7034 115.404 74.889C116.164 73.9717 116.993 73.9497 118.102 74.2665Z" fill="black"/>
<path d="M156.187 118.797C156.774 119.198 156.936 119.476 157.152 120.152C157.167 120.896 157.037 121.144 156.578 121.727C156.103 121.951 155.688 122.106 155.188 122.251C154.961 122.322 154.961 122.322 154.729 122.395C154.175 122.567 153.619 122.732 153.062 122.898C152.596 123.04 152.131 123.183 151.665 123.325C150.129 123.793 148.591 124.253 147.053 124.714C145.618 125.143 144.184 125.575 142.749 126.007C142.586 126.056 142.423 126.105 142.255 126.155C138.971 127.143 135.692 128.143 132.413 129.146C131.534 129.416 130.654 129.684 129.774 129.953C129.2 130.128 128.627 130.304 128.053 130.479C127.913 130.522 127.773 130.564 127.629 130.608C126.006 131.104 124.384 131.602 122.762 132.104C121.666 132.443 120.569 132.78 119.472 133.116C119.029 133.252 118.585 133.39 118.141 133.528C117.539 133.716 116.936 133.901 116.332 134.085C116.16 134.139 115.987 134.194 115.809 134.25C114.763 134.565 113.728 134.791 112.633 134.617C112.12 134.214 112.12 134.214 111.852 133.641C111.863 132.98 111.875 132.5 112.283 131.963C112.742 131.602 113.172 131.474 113.732 131.306C113.957 131.238 114.181 131.169 114.413 131.099C114.657 131.026 114.9 130.954 115.151 130.88C115.408 130.802 115.664 130.724 115.92 130.646C116.451 130.485 116.982 130.325 117.514 130.166C118.466 129.879 119.417 129.586 120.367 129.293C121.544 128.93 122.722 128.569 123.9 128.208C124.158 128.129 124.416 128.05 124.675 127.971C127.666 127.054 130.659 126.141 133.653 125.233C133.787 125.193 133.921 125.152 134.058 125.11C135.403 124.703 136.747 124.296 138.092 123.89C138.759 123.688 139.426 123.487 140.093 123.285C140.224 123.245 140.355 123.206 140.491 123.165C142.4 122.587 144.306 122.002 146.211 121.412C147.016 121.163 147.82 120.915 148.624 120.667C149.26 120.471 149.895 120.274 150.53 120.076C151.226 119.858 151.923 119.643 152.619 119.429C152.823 119.364 153.027 119.3 153.238 119.233C154.253 118.923 155.124 118.687 156.187 118.797Z" fill="black"/>
<path d="M154.344 111.092C154.734 111.755 154.732 112.179 154.624 112.936C153.958 113.9 152.87 114.09 151.804 114.41C151.591 114.476 151.377 114.542 151.158 114.61C150.556 114.795 149.953 114.979 149.351 115.161C148.814 115.324 148.279 115.488 147.743 115.652C145.911 116.215 144.077 116.771 142.243 117.326C141.395 117.583 140.546 117.841 139.697 118.098C137.805 118.672 135.912 119.246 134.019 119.819C133.246 120.053 132.474 120.287 131.701 120.521C131.483 120.587 131.483 120.587 131.261 120.655C130.55 120.87 129.839 121.086 129.128 121.301C127.915 121.669 126.703 122.036 125.49 122.403C124.847 122.597 124.203 122.792 123.56 122.987C123.436 123.024 123.312 123.062 123.184 123.1C121.416 123.636 119.65 124.177 117.885 124.723C117.258 124.916 116.631 125.109 116.004 125.303C115.434 125.479 114.865 125.656 114.296 125.834C113.958 125.939 113.62 126.043 113.282 126.147C113.058 126.218 113.058 126.218 112.829 126.29C111.777 126.611 110.924 126.837 109.922 126.315C109.418 125.721 109.398 125.408 109.396 124.654C109.557 124.086 109.839 123.864 110.288 123.482C110.881 123.237 110.881 123.237 111.589 123.025C111.719 122.986 111.849 122.946 111.983 122.905C112.417 122.774 112.852 122.646 113.287 122.518C113.596 122.425 113.905 122.332 114.215 122.238C114.877 122.039 115.54 121.841 116.204 121.644C117.257 121.331 118.309 121.015 119.361 120.699C120.795 120.268 122.23 119.838 123.665 119.409C126.153 118.666 128.637 117.913 131.121 117.158C132.026 116.884 132.93 116.61 133.835 116.337C136.515 115.527 139.193 114.71 141.868 113.881C142.804 113.592 143.741 113.303 144.678 113.015C145.575 112.739 146.471 112.46 147.367 112.18C147.92 112.008 148.474 111.837 149.028 111.667C149.406 111.551 149.783 111.432 150.16 111.313C153.191 110.389 153.191 110.389 154.344 111.092Z" fill="black"/>
<path d="M148.962 94.5799C149.567 95.0814 149.715 95.3833 149.841 96.1546C149.717 96.8812 149.528 97.0455 148.962 97.5096C148.491 97.7106 148.048 97.8722 147.562 98.0215C147.336 98.0937 147.336 98.0937 147.106 98.1674C146.554 98.3423 146 98.5122 145.446 98.6814C145.223 98.7499 145 98.8183 144.769 98.8888C142.982 99.4349 141.192 99.9721 139.402 100.508C138.128 100.89 136.855 101.273 135.582 101.656C135.254 101.754 134.927 101.853 134.599 101.951C131.424 102.906 128.252 103.868 125.081 104.835C124.385 105.047 123.688 105.259 122.991 105.471C120.419 106.253 117.848 107.037 115.279 107.83C114.256 108.146 113.233 108.46 112.209 108.774C111.732 108.921 111.256 109.068 110.78 109.216C110.129 109.419 109.478 109.619 108.827 109.818C108.637 109.878 108.448 109.937 108.253 109.999C107.271 110.297 106.435 110.5 105.407 110.4C104.883 110.027 104.678 109.751 104.443 109.155C104.425 108.402 104.577 108.091 105.017 107.47C105.688 107.124 106.397 106.933 107.123 106.729C107.339 106.664 107.556 106.599 107.779 106.532C108.245 106.392 108.711 106.255 109.179 106.119C109.888 105.911 110.594 105.697 111.301 105.48C112.679 105.057 114.058 104.64 115.438 104.224C116.138 104.013 116.837 103.801 117.537 103.59C118.706 103.236 119.875 102.883 121.044 102.53C123.402 101.817 125.759 101.103 128.117 100.389C128.917 100.146 129.718 99.9042 130.518 99.6623C133.208 98.8495 135.896 98.0309 138.58 97.1961C139.382 96.9469 140.184 96.6988 140.986 96.4508C141.62 96.2548 142.253 96.0578 142.885 95.8586C143.578 95.6408 144.271 95.4259 144.965 95.2116C145.167 95.1471 145.369 95.0826 145.577 95.0162C146.748 94.6581 147.736 94.4757 148.962 94.5799Z" fill="black"/>
<path d="M151.659 102.917C152.144 103.43 152.281 103.641 152.281 104.345C152.005 105.136 151.836 105.447 151.075 105.825C150.807 105.909 150.538 105.989 150.267 106.064C150.115 106.111 149.962 106.158 149.805 106.206C149.458 106.312 149.11 106.415 148.762 106.517C148.137 106.701 147.514 106.892 146.891 107.084C145.507 107.509 144.121 107.928 142.735 108.346C142.025 108.56 141.316 108.774 140.606 108.989C139.57 109.302 138.534 109.615 137.499 109.927C135.408 110.558 133.319 111.191 131.23 111.825C130.964 111.905 130.698 111.986 130.432 112.067C130.301 112.106 130.169 112.146 130.034 112.187C129.109 112.468 128.184 112.747 127.259 113.027C126.728 113.188 126.196 113.348 125.665 113.509C125.467 113.569 125.467 113.569 125.266 113.63C123.407 114.192 121.551 114.761 119.696 115.334C118.65 115.657 117.603 115.978 116.556 116.299C115.702 116.561 114.85 116.825 113.997 117.091C113.471 117.254 112.944 117.415 112.417 117.576C112.059 117.686 111.701 117.799 111.343 117.911C110.103 118.288 109.048 118.529 107.75 118.407C107.145 117.906 106.997 117.604 106.871 116.833C106.993 116.114 107.198 115.941 107.75 115.478C108.254 115.259 108.254 115.259 108.834 115.088C109.053 115.021 109.272 114.955 109.497 114.886C109.736 114.817 109.974 114.747 110.22 114.676C110.473 114.6 110.727 114.523 110.98 114.447C111.517 114.285 112.054 114.125 112.592 113.965C113.392 113.727 114.191 113.483 114.989 113.238C115.12 113.198 115.25 113.157 115.385 113.116C115.652 113.034 115.918 112.952 116.185 112.87C116.876 112.658 117.566 112.447 118.257 112.236C118.398 112.193 118.538 112.15 118.683 112.106C118.972 112.017 119.261 111.929 119.551 111.841C120.002 111.703 120.454 111.565 120.906 111.427C124.244 110.407 127.582 109.39 130.922 108.378C131.06 108.336 131.198 108.294 131.34 108.251C132.694 107.841 134.048 107.431 135.403 107.022C136.055 106.825 136.708 106.627 137.36 106.43C137.487 106.392 137.614 106.353 137.744 106.314C139.584 105.757 141.422 105.192 143.258 104.622C143.708 104.482 144.158 104.343 144.608 104.204C145.436 103.947 146.262 103.689 147.088 103.43C147.453 103.317 147.818 103.203 148.183 103.09C148.345 103.039 148.507 102.987 148.675 102.934C150.667 102.322 150.667 102.322 151.659 102.917Z" fill="black"/>
</g>
<defs>
<clipPath id="clip0_34_1780">
<rect width="100" height="100" fill="white" transform="translate(76.5 52)"/>
</clipPath>
</defs>
</svg>
