<svg width="184" height="152" viewBox="0 0 184 152" fill="none" xmlns="http://www.w3.org/2000/svg">
<circle cx="52" cy="52" r="52" fill="#C6E8FF"/>
<path d="M30.12 51.04C30.12 46.4267 30.9467 42.8133 32.6 40.2C34.28 37.5867 37.0533 36.28 40.92 36.28C44.7867 36.28 47.5467 37.5867 49.2 40.2C50.88 42.8133 51.72 46.4267 51.72 51.04C51.72 55.68 50.88 59.32 49.2 61.96C47.5467 64.6 44.7867 65.92 40.92 65.92C37.0533 65.92 34.28 64.6 32.6 61.96C30.9467 59.32 30.12 55.68 30.12 51.04ZM46.2 51.04C46.2 49.0667 46.0667 47.4133 45.8 46.08C45.56 44.72 45.0533 43.6133 44.28 42.76C43.5333 41.9067 42.4133 41.48 40.92 41.48C39.4267 41.48 38.2933 41.9067 37.52 42.76C36.7733 43.6133 36.2667 44.72 36 46.08C35.76 47.4133 35.64 49.0667 35.64 51.04C35.64 53.0667 35.76 54.7733 36 56.16C36.24 57.52 36.7467 58.6267 37.52 59.48C38.2933 60.3067 39.4267 60.72 40.92 60.72C42.4133 60.72 43.5467 60.3067 44.32 59.48C45.0933 58.6267 45.6 57.52 45.84 56.16C46.08 54.7733 46.2 53.0667 46.2 51.04ZM57.7394 59.68C60.2994 57.5467 62.3394 55.7733 63.8594 54.36C65.3794 52.92 66.646 51.4267 67.6594 49.88C68.6727 48.3333 69.1794 46.8133 69.1794 45.32C69.1794 43.96 68.8594 42.8933 68.2194 42.12C67.5794 41.3467 66.5927 40.96 65.2594 40.96C63.926 40.96 62.8994 41.4133 62.1794 42.32C61.4594 43.2 61.086 44.4133 61.0594 45.96H55.6194C55.726 42.76 56.6727 40.3333 58.4594 38.68C60.2727 37.0267 62.566 36.2 65.3394 36.2C68.3794 36.2 70.7127 37.0133 72.3394 38.64C73.966 40.24 74.7794 42.36 74.7794 45C74.7794 47.08 74.2194 49.0667 73.0994 50.96C71.9794 52.8533 70.6994 54.5067 69.2594 55.92C67.8194 57.3067 65.9394 58.9867 63.6194 60.96H75.4194V65.6H55.6594V61.44L57.7394 59.68Z" fill="black"/>
<g clip-path="url(#clip0_34_1739)">
<path d="M93.5 61.5H88L85.5 65V92L95 88.5L101.5 75.5L106.5 69.5V61.5H98.5V56L93.5 56.5V61.5Z" fill="white"/>
<path d="M95.8685 54.4933C96.277 54.4914 96.6854 54.4853 97.0939 54.4792C97.355 54.4779 97.6162 54.4769 97.8774 54.4761C98.2324 54.4734 98.2324 54.4734 98.5945 54.4706C99.3102 54.5485 99.6615 54.6615 100.21 55.1261C100.601 56.298 100.601 56.298 100.601 60.009C104.017 60.009 107.433 60.009 110.953 60.009C110.953 58.5265 110.953 57.0441 110.953 55.5168C112.149 54.3208 113.115 54.498 114.73 54.4933C115.125 54.4914 115.519 54.4853 115.913 54.4792C116.163 54.4782 116.413 54.4772 116.67 54.4761C117.013 54.4734 117.013 54.4734 117.362 54.4706C118.053 54.5479 118.41 54.7096 118.96 55.1261C119.866 56.4847 119.351 58.3761 119.351 60.009C122.767 60.009 126.183 60.009 129.703 60.009C129.703 58.6554 129.703 57.3019 129.703 55.9074C130.394 54.7544 130.394 54.7544 131.07 54.5402C131.902 54.4626 132.733 54.4676 133.568 54.4678C133.973 54.467 134.377 54.4599 134.782 54.4525C135.167 54.4513 135.167 54.4513 135.561 54.4502C135.795 54.4486 136.029 54.447 136.271 54.4453C137.064 54.5596 137.486 54.8156 138.101 55.3215C138.596 56.8051 138.296 58.4451 138.296 60.009C141.712 60.009 145.128 60.009 148.648 60.009C148.648 58.591 148.648 57.173 148.648 55.7121C149.429 54.7355 149.429 54.7355 150.015 54.5402C150.818 54.4959 151.621 54.4956 152.426 54.4933C152.82 54.4914 153.214 54.4853 153.609 54.4792C153.858 54.4782 154.108 54.4772 154.365 54.4761C154.708 54.4734 154.708 54.4734 155.058 54.4706C155.933 54.5686 156.433 54.903 157.046 55.5168C157.046 56.9992 157.046 58.4816 157.046 60.009C160.462 60.009 163.878 60.009 167.398 60.009C167.398 58.7843 167.398 57.5597 167.398 56.298C167.984 54.9308 167.984 54.9308 168.328 54.6537C169.287 54.4045 170.29 54.4754 171.274 54.4785C171.681 54.4792 172.087 54.4746 172.494 54.4696C172.752 54.4695 173.009 54.4694 173.275 54.4692C173.51 54.4687 173.746 54.4681 173.988 54.4675C174.686 54.5472 175.045 54.7042 175.601 55.1261C176.031 55.7712 176.039 55.961 176.03 56.7092C176.029 56.9012 176.027 57.0932 176.026 57.291C176.023 57.491 176.02 57.691 176.016 57.8971C176.014 58.0994 176.013 58.3017 176.011 58.5102C176.006 59.0098 176 59.5094 175.992 60.009C176.123 60.0038 176.255 59.9987 176.391 59.9935C176.998 59.9729 177.606 59.9604 178.213 59.9479C178.421 59.9397 178.628 59.9316 178.841 59.9231C180.304 59.9007 181.424 60.1275 182.632 60.9855C183.683 62.109 184.023 62.9547 184.026 64.5011C184.027 64.6418 184.027 64.7825 184.028 64.9274C184.029 65.4025 184.029 65.8775 184.03 66.3526C184.03 66.6952 184.031 67.0378 184.032 67.3804C184.035 68.3247 184.036 69.269 184.037 70.2133C184.038 71.2306 184.04 72.248 184.042 73.2653C184.047 75.7235 184.05 78.1818 184.052 80.64C184.053 81.3341 184.054 82.0281 184.055 82.7222C184.059 87.0302 184.064 91.3382 184.066 95.6461C184.067 96.6443 184.067 97.6424 184.068 98.6405C184.068 98.8886 184.068 99.1367 184.068 99.3923C184.071 103.413 184.077 107.433 184.085 111.453C184.094 115.579 184.098 119.704 184.099 123.83C184.1 126.147 184.102 128.464 184.109 130.781C184.114 132.754 184.116 134.727 184.114 136.7C184.113 137.707 184.114 138.714 184.119 139.721C184.123 140.643 184.123 141.564 184.119 142.486C184.119 142.82 184.12 143.153 184.123 143.487C184.14 145.584 183.998 146.903 182.486 148.449C180.887 149.525 179.287 149.547 177.405 149.538C177.134 149.539 176.863 149.54 176.592 149.541C175.852 149.544 175.112 149.543 174.372 149.542C173.572 149.541 172.773 149.543 171.973 149.545C170.408 149.548 168.844 149.549 167.279 149.548C166.007 149.547 164.736 149.547 163.464 149.548C163.283 149.548 163.102 149.548 162.916 149.549C162.548 149.549 162.18 149.549 161.812 149.549C158.365 149.552 154.918 149.551 151.471 149.549C148.316 149.547 145.161 149.549 142.006 149.554C138.766 149.559 135.527 149.561 132.287 149.559C130.468 149.559 128.649 149.559 126.83 149.563C125.283 149.565 123.735 149.566 122.188 149.562C121.398 149.561 120.609 149.56 119.819 149.563C119.096 149.566 118.374 149.565 117.651 149.561C117.266 149.56 116.88 149.563 116.494 149.566C116.265 149.564 116.036 149.562 115.801 149.56C115.603 149.56 115.406 149.56 115.202 149.56C114.512 149.435 114.184 149.167 113.687 148.681C113.442 147.96 113.425 147.653 113.748 146.96C114.078 146.532 114.078 146.532 114.468 146.337C115.048 146.337 115.628 146.337 116.226 146.337C116.226 134.027 116.226 121.716 116.226 109.032C111.908 109.032 107.589 109.032 103.14 109.032C103.14 121.343 103.14 133.653 103.14 146.337C105.074 146.337 107.007 146.337 109 146.337C109.781 147.118 109.781 147.118 109.878 147.516C109.847 148.583 109.847 148.583 109.524 149.059C108.94 149.427 108.436 149.487 107.764 149.49C107.592 149.491 107.419 149.492 107.242 149.493C107.053 149.493 106.864 149.493 106.67 149.494C106.471 149.495 106.271 149.495 106.066 149.496C105.406 149.499 104.745 149.501 104.085 149.502C103.626 149.503 103.166 149.504 102.707 149.505C101.744 149.507 100.78 149.508 99.8159 149.509C98.5832 149.51 97.3506 149.515 96.1179 149.52C95.1688 149.524 94.2198 149.525 93.2707 149.525C92.8164 149.526 92.3621 149.527 91.9079 149.53C91.2707 149.533 90.6337 149.533 89.9965 149.532C89.8102 149.533 89.6238 149.535 89.4318 149.537C87.9149 149.528 86.4474 149.288 85.2935 148.229C85.1711 148.121 85.0488 148.013 84.9227 147.902C84.1163 146.962 83.9262 146.117 83.9253 144.898C83.9243 144.756 83.9234 144.615 83.9225 144.469C83.9202 143.996 83.922 143.522 83.9238 143.048C83.923 142.705 83.9219 142.362 83.9206 142.019C83.9178 141.076 83.9186 140.133 83.9201 139.19C83.921 138.173 83.9186 137.156 83.9166 136.139C83.9132 134.147 83.913 132.154 83.9141 130.162C83.9148 128.543 83.9146 126.924 83.9135 125.304C83.9134 125.074 83.9132 124.844 83.9131 124.606C83.9128 124.139 83.9125 123.671 83.9122 123.203C83.9095 118.814 83.9106 114.425 83.9128 110.036C83.9147 106.019 83.9122 102.003 83.9075 97.9862C83.9028 93.8633 83.9009 89.7405 83.9022 85.6177C83.9029 83.3025 83.9024 80.9874 83.899 78.6722C83.8962 76.7013 83.896 74.7304 83.8994 72.7595C83.9011 71.7537 83.9015 70.748 83.8985 69.7423C83.8958 68.8216 83.8967 67.901 83.9005 66.9803C83.9013 66.6473 83.9007 66.3142 83.8986 65.9812C83.8789 62.5002 83.8789 62.5002 85.1645 61.1763C85.2917 61.0891 85.4188 61.002 85.5498 60.9123C85.6765 60.8221 85.8031 60.732 85.9336 60.6391C86.7781 60.1453 87.4613 59.9603 88.4406 59.9708C88.7531 59.9727 88.7531 59.9727 89.0719 59.9746C89.2873 59.9779 89.5027 59.9812 89.7246 59.9845C89.9438 59.9863 90.163 59.9881 90.3888 59.9899C90.9283 59.9945 91.4678 60.0009 92.0073 60.009C92.0033 59.8839 91.9992 59.7589 91.995 59.63C91.9787 59.0606 91.9685 58.4911 91.9585 57.9216C91.952 57.7248 91.9454 57.528 91.9387 57.3253C91.9194 55.8634 91.9194 55.8634 92.3644 55.0979C93.3366 54.2674 94.6576 54.4967 95.8685 54.4933ZM95.1323 57.6652C95.1323 60.2433 95.1323 62.8215 95.1323 65.4777C95.9058 65.4777 96.6792 65.4777 97.4761 65.4777C97.4761 62.8996 97.4761 60.3215 97.4761 57.6652C96.7027 57.6652 95.9292 57.6652 95.1323 57.6652ZM114.078 57.6652C114.078 60.2433 114.078 62.8215 114.078 65.4777C114.787 65.4777 115.496 65.4777 116.226 65.4777C116.226 62.8996 116.226 60.3215 116.226 57.6652C115.517 57.6652 114.808 57.6652 114.078 57.6652ZM132.828 57.6652C132.828 60.2433 132.828 62.8215 132.828 65.4777C133.601 65.4777 134.375 65.4777 135.171 65.4777C135.171 62.8996 135.171 60.3215 135.171 57.6652C134.398 57.6652 133.625 57.6652 132.828 57.6652ZM151.773 57.6652C151.773 60.2433 151.773 62.8215 151.773 65.4777C152.482 65.4777 153.191 65.4777 153.921 65.4777C153.921 62.8996 153.921 60.3215 153.921 57.6652C153.212 57.6652 152.503 57.6652 151.773 57.6652ZM170.523 57.6652C170.523 60.2433 170.523 62.8215 170.523 65.4777C171.296 65.4777 172.07 65.4777 172.867 65.4777C172.867 62.8996 172.867 60.3215 172.867 57.6652C172.093 57.6652 171.32 57.6652 170.523 57.6652ZM87.3961 63.491C86.983 64.1362 86.905 64.6443 86.9071 65.3924C86.9071 65.5722 86.9071 65.7521 86.9071 65.9373C86.9081 66.1308 86.9091 66.3243 86.9102 66.5237C86.9104 66.7223 86.9107 66.9209 86.911 67.1255C86.9121 67.7603 86.9145 68.3951 86.917 69.0299C86.918 69.4601 86.9189 69.8903 86.9197 70.3205C86.9218 71.3755 86.9251 72.4305 86.9292 73.4855C87.1599 73.4862 87.3907 73.4869 87.6284 73.4877C89.8011 73.4949 91.9738 73.5062 94.1464 73.5214C95.2635 73.5292 96.3805 73.5354 97.4976 73.5384C98.5753 73.5414 99.6529 73.5481 100.731 73.5575C101.142 73.5604 101.554 73.5619 101.965 73.5621C102.541 73.5625 103.116 73.5678 103.692 73.5742C103.948 73.5727 103.948 73.5727 104.209 73.5712C105.36 73.5911 105.36 73.5911 105.98 74.0415C106.371 74.6183 106.379 74.9513 106.265 75.634C105.484 76.4152 105.484 76.4152 103.14 76.6105C103.14 78.2218 103.14 79.8332 103.14 81.4933C103.842 81.5077 103.842 81.5077 104.558 81.5223C105.014 81.5329 105.469 81.5441 105.924 81.5553C106.239 81.5628 106.555 81.5696 106.87 81.5757C107.324 81.5847 107.779 81.596 108.233 81.6078C108.373 81.61 108.513 81.6123 108.658 81.6146C109.433 81.6373 110.078 81.6889 110.757 82.0793C111.295 82.7572 111.216 83.6038 111.229 84.4322C111.233 84.5828 111.236 84.7334 111.24 84.8886C111.252 85.3682 111.261 85.8477 111.27 86.3273C111.278 86.6531 111.285 86.9789 111.293 87.3046C111.312 88.1019 111.328 88.8991 111.343 89.6965C112.955 89.6965 114.566 89.6965 116.226 89.6965C116.226 85.3781 116.226 81.0597 116.226 76.6105C113.712 76.5138 113.712 76.5138 111.148 76.4152C110.367 75.634 110.367 75.634 110.269 75.048C110.39 74.3197 110.573 74.1326 111.148 73.6808C111.692 73.5825 111.692 73.5825 112.333 73.5816C112.7 73.5783 112.7 73.5783 113.074 73.5749C113.346 73.5763 113.617 73.5779 113.889 73.5795C114.177 73.5783 114.466 73.5768 114.754 73.575C115.547 73.5711 116.34 73.572 117.134 73.5736C117.989 73.5746 118.844 73.5711 119.699 73.5681C121.18 73.5635 122.662 73.5618 124.144 73.5621C126.286 73.5624 128.428 73.5584 130.571 73.5534C134.046 73.5454 137.522 73.5408 140.997 73.5384C144.374 73.5361 147.75 73.5322 151.127 73.526C151.335 73.5257 151.543 73.5253 151.758 73.5249C152.801 73.523 153.845 73.5211 154.889 73.5191C163.551 73.5029 172.213 73.4924 180.875 73.4855C180.894 72.1369 180.908 70.7883 180.917 69.4396C180.921 68.9807 180.927 68.5218 180.933 68.063C180.943 67.4037 180.947 66.7444 180.951 66.085C180.955 65.8797 180.959 65.6744 180.963 65.4629C180.983 64.358 180.983 64.358 180.508 63.3945C180.004 63.0778 179.713 63.0432 179.12 63.0577C178.846 63.0614 178.846 63.0614 178.567 63.0653C178.283 63.0751 178.283 63.0751 177.994 63.0851C177.706 63.0904 177.706 63.0904 177.412 63.0958C176.938 63.105 176.465 63.1178 175.992 63.134C175.989 63.3231 175.989 63.3231 175.986 63.516C175.976 64.0887 175.959 64.661 175.943 65.2336C175.94 65.432 175.937 65.6304 175.935 65.8348C175.928 66.0261 175.922 66.2174 175.915 66.4146C175.909 66.6785 175.909 66.6785 175.903 66.9477C175.758 67.6056 175.568 67.8265 175.015 68.2121C174.485 68.2875 174.036 68.3173 173.507 68.309C173.289 68.3094 173.289 68.3094 173.068 68.3098C172.762 68.3095 172.457 68.3073 172.151 68.3032C171.683 68.2975 171.216 68.2992 170.748 68.3017C170.451 68.3005 170.154 68.2989 169.857 68.2968C169.717 68.2973 169.577 68.2979 169.433 68.2985C168.876 68.2879 168.472 68.2774 168.001 67.9626C167.181 66.6636 167.457 64.2563 167.398 63.134C163.982 63.134 160.566 63.134 157.046 63.134C156.982 64.6164 156.918 66.0988 156.851 67.6261C156.219 68.2583 156.056 68.2824 155.206 68.2985C155.067 68.2979 154.927 68.2974 154.783 68.2968C154.638 68.2978 154.493 68.2988 154.344 68.2999C154.038 68.3011 153.733 68.3009 153.427 68.2992C152.959 68.2975 152.492 68.3031 152.025 68.3094C151.728 68.3097 151.43 68.3096 151.133 68.309C150.993 68.3112 150.854 68.3134 150.71 68.3156C149.698 68.3015 149.621 68.2089 148.843 67.4308C148.779 66.0129 148.714 64.5949 148.648 63.134C145.232 63.134 141.816 63.134 138.296 63.134C138.232 64.4875 138.168 65.841 138.101 67.2355C137.71 68.0168 137.71 68.0168 137.32 68.2121C136.828 68.2361 136.342 68.2489 135.85 68.2518C135.631 68.2534 135.631 68.2534 135.409 68.2551C135.101 68.257 134.793 68.2582 134.485 68.259C134.014 68.2609 133.543 68.267 133.072 68.2731C132.773 68.2744 132.474 68.2754 132.175 68.2762C131.964 68.2798 131.964 68.2798 131.748 68.2835C130.771 68.2791 130.771 68.2791 130.305 67.9395C129.269 66.405 129.83 65.8111 129.703 63.134C126.287 63.134 122.871 63.134 119.351 63.134C119.287 64.5519 119.222 65.9699 119.156 67.4308C118.285 68.3017 118.285 68.3017 117.289 68.3156C117.08 68.3123 117.08 68.3123 116.866 68.309C116.721 68.3093 116.576 68.3095 116.427 68.3098C116.122 68.3095 115.816 68.3073 115.511 68.3032C115.043 68.2975 114.576 68.2992 114.108 68.3017C113.811 68.3005 113.513 68.2989 113.216 68.2968C113.077 68.2973 112.937 68.2979 112.793 68.2985C111.943 68.2824 111.78 68.2583 111.148 67.6261C111.084 66.1437 111.019 64.6613 110.953 63.134C107.537 63.134 104.121 63.134 100.601 63.134C100.537 64.3586 100.472 65.5832 100.406 66.8449C100.015 67.8215 100.015 67.8215 99.6245 68.2121C99.1296 68.2559 98.6566 68.2762 98.1612 68.2777C97.9437 68.2796 97.9437 68.2796 97.7219 68.2816C97.4148 68.2836 97.1078 68.2845 96.8008 68.2845C96.3317 68.2853 95.863 68.2924 95.394 68.2998C95.0957 68.301 94.7974 68.3017 94.4991 68.3021C94.2891 68.3063 94.2891 68.3063 94.0749 68.3106C93.4255 68.3047 93.0443 68.2541 92.506 67.8793C92.1478 67.3497 92.0984 67.05 92.0836 66.4146C92.0773 66.2232 92.0711 66.0319 92.0646 65.8348C92.0618 65.6364 92.059 65.438 92.0562 65.2336C92.0504 65.0321 92.0446 64.8307 92.0386 64.6232C92.0248 64.1268 92.0145 63.6305 92.0073 63.134C91.3401 63.1112 90.6729 63.0974 90.0054 63.0851C89.8163 63.0786 89.6272 63.072 89.4324 63.0653C88.346 63.0309 88.346 63.0309 87.3961 63.491ZM86.9292 76.6105C86.9206 85.2776 86.9134 93.9447 86.9093 102.612C86.9088 103.634 86.9083 104.657 86.9078 105.68C86.9077 105.883 86.9076 106.087 86.9075 106.297C86.9058 109.596 86.9027 112.894 86.8991 116.193C86.8954 119.577 86.8933 122.961 86.8925 126.344C86.8919 128.433 86.8902 130.522 86.8871 132.611C86.885 134.042 86.8844 135.473 86.8849 136.905C86.8851 137.731 86.8847 138.557 86.8827 139.384C86.8808 140.14 86.8807 140.896 86.882 141.653C86.8822 141.927 86.8817 142.201 86.8804 142.474C86.8789 142.846 86.8799 143.218 86.8812 143.59C86.881 143.797 86.8809 144.003 86.8807 144.216C86.9328 144.816 87.0363 145.221 87.3198 145.751C90.7089 148.293 95.7789 146.337 100.015 146.337C100.015 131.32 100.015 116.302 100.015 100.829C97.8882 100.733 97.8882 100.733 95.7183 100.634C94.8433 99.759 94.8199 99.3855 94.818 98.2383C94.8148 98.0834 94.8116 97.9284 94.8082 97.7687C94.7988 97.2752 94.7946 96.7818 94.7906 96.2882C94.7851 95.9531 94.7792 95.6179 94.773 95.2827C94.7586 94.4623 94.7489 93.642 94.7417 92.8215C94.6226 92.8186 94.5035 92.8158 94.3807 92.8128C93.8377 92.7982 93.2949 92.7794 92.752 92.7604C92.5645 92.756 92.3771 92.7516 92.184 92.7471C90.3965 92.679 90.3965 92.679 89.6636 92.0402C89.4831 91.4986 89.4427 91.1705 89.4399 90.6113C89.4387 90.4418 89.4374 90.2723 89.4361 90.0977C89.4359 89.9152 89.4357 89.7327 89.4355 89.5446C89.4348 89.3566 89.4342 89.1685 89.4335 88.9747C89.4325 88.5769 89.4321 88.1791 89.4321 87.7813C89.4317 87.1727 89.4281 86.564 89.4244 85.9554C89.4238 85.569 89.4235 85.1825 89.4233 84.7961C89.4219 84.614 89.4205 84.4319 89.419 84.2443C89.4199 83.9891 89.4199 83.9891 89.4208 83.7288C89.4206 83.5796 89.4203 83.4305 89.42 83.2768C89.4777 82.7794 89.5701 82.4904 89.8589 82.0793C90.5071 81.7356 91.0617 81.6381 91.789 81.6264C92.0646 81.6205 92.0646 81.6205 92.3457 81.6146C92.5415 81.6124 92.7372 81.6101 92.9389 81.6078C93.1413 81.604 93.3436 81.6002 93.5521 81.5963C94.1969 81.5847 94.8416 81.5756 95.4864 81.5666C95.9242 81.5591 96.362 81.5515 96.7998 81.5437C97.8715 81.5246 98.9433 81.5091 100.015 81.4933C100.015 79.882 100.015 78.2707 100.015 76.6105C95.6968 76.6105 91.3784 76.6105 86.9292 76.6105ZM119.351 76.6105C119.351 83.5715 119.351 90.5324 119.351 97.7043C121.607 97.7687 123.863 97.8332 126.187 97.8996C126.968 98.2902 126.968 98.2902 127.207 98.7061C127.398 99.4109 127.428 100.09 127.44 100.815C127.444 100.961 127.447 101.107 127.451 101.257C127.463 101.721 127.472 102.184 127.481 102.648C127.488 102.964 127.496 103.279 127.504 103.595C127.523 104.365 127.538 105.136 127.554 105.907C129.166 105.907 130.777 105.907 132.437 105.907C132.437 96.2394 132.437 86.5715 132.437 76.6105C128.119 76.6105 123.8 76.6105 119.351 76.6105ZM135.562 76.6105C135.562 86.2785 135.562 95.9465 135.562 105.907C136.787 105.972 138.011 106.036 139.273 106.103C139.859 106.884 139.859 106.884 139.873 107.345C139.836 107.576 139.836 107.576 139.798 107.812C139.774 107.968 139.751 108.124 139.727 108.285C139.706 108.403 139.685 108.52 139.664 108.642C138.951 108.804 138.284 108.866 137.554 108.877C137.331 108.881 137.109 108.885 136.879 108.889C136.641 108.892 136.402 108.896 136.156 108.899C135.788 108.905 135.788 108.905 135.412 108.911C134.761 108.922 134.11 108.932 133.459 108.941C132.794 108.951 132.129 108.962 131.464 108.972C130.161 108.994 128.857 109.013 127.554 109.032C127.554 110.644 127.554 112.255 127.554 113.915C137.158 113.915 146.761 113.915 156.656 113.915C156.656 112.304 156.656 110.693 156.656 109.032C156.312 109.029 155.968 109.025 155.613 109.021C154.475 109.007 153.337 108.992 152.199 108.976C151.509 108.966 150.819 108.957 150.129 108.95C149.336 108.941 148.542 108.93 147.748 108.918C147.501 108.916 147.254 108.913 147 108.911C146.769 108.907 146.539 108.903 146.301 108.899C146.098 108.897 145.896 108.894 145.687 108.891C145.104 108.834 144.678 108.71 144.156 108.446C143.858 107.851 143.914 107.344 143.96 106.689C144.546 106.103 144.546 106.103 148.648 105.907C148.648 96.2394 148.648 86.5715 148.648 76.6105C144.33 76.6105 140.011 76.6105 135.562 76.6105ZM151.773 76.6105C151.773 86.2785 151.773 95.9465 151.773 105.907C154.093 105.972 156.414 106.036 158.804 106.103C159.585 106.884 159.585 106.884 159.681 107.322C159.68 107.482 159.678 107.642 159.677 107.806C159.678 108.079 159.678 108.079 159.679 108.357C159.676 108.552 159.672 108.747 159.669 108.948C159.668 109.149 159.667 109.35 159.667 109.558C159.665 109.983 159.661 110.408 159.655 110.833C159.647 111.484 159.643 112.136 159.641 112.787C159.638 113.2 159.635 113.613 159.632 114.026C159.631 114.221 159.629 114.416 159.628 114.618C159.624 114.89 159.624 114.89 159.62 115.167C159.618 115.326 159.616 115.486 159.614 115.65C159.585 116.064 159.585 116.064 159.39 116.65C156.924 117.266 154.314 116.968 151.773 117.04C151.773 126.708 151.773 136.376 151.773 146.337C156.091 146.337 160.41 146.337 164.859 146.337C164.859 144.661 164.859 142.986 164.859 141.259C163.407 141.203 163.407 141.203 161.955 141.148C161.774 141.141 161.593 141.133 161.407 141.125C161.221 141.118 161.036 141.111 160.846 141.104C160.367 141.064 160.367 141.064 159.781 140.868C159.47 140.141 159.541 139.295 159.524 138.515C159.52 138.365 159.516 138.214 159.511 138.059C159.499 137.579 159.487 137.1 159.476 136.62C159.467 136.295 159.459 135.969 159.45 135.643C159.429 134.846 159.409 134.048 159.39 133.251C159.27 133.247 159.15 133.243 159.026 133.239C158.48 133.221 157.934 133.199 157.388 133.178C157.199 133.172 157.01 133.166 156.815 133.16C156.633 133.152 156.45 133.144 156.262 133.137C156.094 133.131 155.927 133.124 155.754 133.118C155.239 133.049 154.932 132.967 154.507 132.665C153.986 131.801 154.06 130.854 154.065 129.876C154.064 129.702 154.064 129.528 154.064 129.348C154.063 128.981 154.064 128.614 154.066 128.247C154.068 127.687 154.066 127.126 154.063 126.566C154.064 126.208 154.064 125.851 154.065 125.494C154.064 125.243 154.064 125.243 154.062 124.987C154.071 123.927 154.112 123.1 154.898 122.314C158.122 121.508 161.537 121.994 164.859 121.923C164.859 106.97 164.859 92.0168 164.859 76.6105C160.541 76.6105 156.222 76.6105 151.773 76.6105ZM167.984 76.6105C167.984 91.5636 167.984 106.517 167.984 121.923C171.174 122.02 171.174 122.02 174.429 122.118C175.601 122.704 175.601 122.704 175.796 123.095C175.819 123.633 175.829 124.166 175.831 124.705C175.833 124.954 175.833 124.954 175.835 125.209C175.839 125.761 175.841 126.313 175.843 126.865C175.844 127.054 175.845 127.242 175.845 127.436C175.849 128.432 175.852 129.428 175.854 130.425C175.856 131.455 175.863 132.485 175.871 133.516C175.876 134.307 175.877 135.098 175.878 135.889C175.879 136.269 175.881 136.649 175.885 137.029C175.89 137.56 175.89 138.091 175.888 138.622C175.891 138.779 175.893 138.937 175.896 139.099C175.889 139.789 175.854 140.202 175.446 140.77C174.8 141.21 174.156 141.181 173.401 141.183C173.246 141.186 173.091 141.189 172.931 141.192C172.438 141.202 171.944 141.206 171.451 141.21C171.116 141.216 170.78 141.221 170.445 141.228C169.625 141.243 168.805 141.251 167.984 141.259C167.984 142.935 167.984 144.611 167.984 146.337C169.52 146.355 171.057 146.369 172.594 146.378C173.307 146.382 174.021 146.387 174.734 146.396C175.423 146.405 176.112 146.409 176.801 146.411C177.191 146.413 177.581 146.419 177.971 146.426C178.209 146.426 178.448 146.426 178.693 146.426C178.903 146.428 179.112 146.429 179.328 146.431C180.047 146.312 180.368 146.073 180.875 145.556C181.103 144.913 181.094 144.292 181.094 143.614C181.094 143.375 181.095 143.136 181.095 142.89C181.095 142.624 181.094 142.358 181.093 142.093C181.093 141.811 181.094 141.529 181.094 141.247C181.094 140.472 181.093 139.697 181.093 138.921C181.092 138.085 181.092 137.249 181.092 136.414C181.092 134.965 181.092 133.517 181.09 132.068C181.089 129.974 181.088 127.88 181.088 125.786C181.088 122.388 181.086 118.99 181.085 115.593C181.083 112.292 181.081 108.991 181.081 105.69C181.08 105.385 181.081 105.385 181.08 105.074C181.08 104.054 181.08 103.033 181.08 102.013C181.078 93.5455 181.074 85.078 181.07 76.6105C176.751 76.6105 172.433 76.6105 167.984 76.6105ZM92.398 84.6183C92.398 86.2941 92.398 87.9699 92.398 89.6965C97.6187 89.6965 102.839 89.6965 108.218 89.6965C108.218 88.0207 108.218 86.3449 108.218 84.6183C102.998 84.6183 97.7769 84.6183 92.398 84.6183ZM97.8667 92.8215C97.8667 94.4328 97.8667 96.0441 97.8667 97.7043C103.925 97.7043 109.984 97.7043 116.226 97.7043C116.226 96.0929 116.226 94.4816 116.226 92.8215C110.168 92.8215 104.109 92.8215 97.8667 92.8215ZM103.14 100.829C103.14 102.505 103.14 104.181 103.14 105.907C110.166 105.907 117.191 105.907 124.429 105.907C124.429 104.232 124.429 102.556 124.429 100.829C117.404 100.829 110.378 100.829 103.14 100.829ZM119.351 109.032C119.351 121.343 119.351 133.653 119.351 146.337C123.669 146.337 127.988 146.337 132.437 146.337C132.437 139.312 132.437 132.286 132.437 125.048C128.86 124.951 128.86 124.951 125.21 124.853C124.581 124.223 124.555 124.071 124.539 123.227C124.54 123.017 124.54 123.017 124.54 122.802C124.538 122.653 124.536 122.504 124.534 122.351C124.528 121.86 124.526 121.368 124.525 120.877C124.521 120.536 124.518 120.196 124.514 119.855C124.505 118.958 124.499 118.061 124.494 117.164C124.488 116.249 124.479 115.334 124.47 114.419C124.453 112.624 124.44 110.828 124.429 109.032C122.753 109.032 121.078 109.032 119.351 109.032ZM127.554 117.04C127.554 118.652 127.554 120.263 127.554 121.923C131.808 121.923 136.062 121.923 140.445 121.923C140.445 120.312 140.445 118.7 140.445 117.04C136.191 117.04 131.937 117.04 127.554 117.04ZM143.57 117.04C143.563 117.555 143.555 118.07 143.548 118.6C143.539 119.099 143.529 119.597 143.519 120.096C143.512 120.442 143.507 120.789 143.502 121.135C143.496 121.633 143.485 122.131 143.474 122.629C143.473 122.861 143.473 122.861 143.471 123.099C143.447 123.981 143.44 124.201 142.789 124.853C140.404 124.917 138.019 124.982 135.562 125.048C135.562 132.073 135.562 139.099 135.562 146.337C139.88 146.337 144.199 146.337 148.648 146.337C148.648 136.669 148.648 127.001 148.648 117.04C146.972 117.04 145.296 117.04 143.57 117.04ZM157.046 125.048C157.046 126.724 157.046 128.4 157.046 130.126C162.267 130.126 167.488 130.126 172.867 130.126C172.867 128.45 172.867 126.775 172.867 125.048C167.646 125.048 162.425 125.048 157.046 125.048ZM162.515 133.251C162.515 134.862 162.515 136.474 162.515 138.134C165.931 138.134 169.347 138.134 172.867 138.134C172.867 136.523 172.867 134.911 172.867 133.251C169.451 133.251 166.035 133.251 162.515 133.251Z" fill="black"/>
</g>
<defs>
<clipPath id="clip0_34_1739">
<rect width="100" height="100" fill="white" transform="translate(84 52)"/>
</clipPath>
</defs>
</svg>
