<svg width="165" height="152" viewBox="0 0 165 152" fill="none" xmlns="http://www.w3.org/2000/svg">
<circle cx="52" cy="52" r="52" fill="#C6E8FF"/>
<path d="M34.12 51.04C34.12 46.4267 34.9467 42.8133 36.6 40.2C38.28 37.5867 41.0533 36.28 44.92 36.28C48.7867 36.28 51.5467 37.5867 53.2 40.2C54.88 42.8133 55.72 46.4267 55.72 51.04C55.72 55.68 54.88 59.32 53.2 61.96C51.5467 64.6 48.7867 65.92 44.92 65.92C41.0533 65.92 38.28 64.6 36.6 61.96C34.9467 59.32 34.12 55.68 34.12 51.04ZM50.2 51.04C50.2 49.0667 50.0667 47.4133 49.8 46.08C49.56 44.72 49.0533 43.6133 48.28 42.76C47.5333 41.9067 46.4133 41.48 44.92 41.48C43.4267 41.48 42.2933 41.9067 41.52 42.76C40.7733 43.6133 40.2667 44.72 40 46.08C39.76 47.4133 39.64 49.0667 39.64 51.04C39.64 53.0667 39.76 54.7733 40 56.16C40.24 57.52 40.7467 58.6267 41.52 59.48C42.2933 60.3067 43.4267 60.72 44.92 60.72C46.4133 60.72 47.5467 60.3067 48.32 59.48C49.0933 58.6267 49.6 57.52 49.84 56.16C50.08 54.7733 50.2 53.0667 50.2 51.04ZM59.2994 42V36.84H68.9394V66H63.1794V42H59.2994Z" fill="black"/>
<path d="M113.809 57.3575L86.4277 102L88.2134 57.3575L91.7849 54.9766L113.809 57.3575Z" fill="white"/>
<path d="M83.4526 94.2617L72.7383 94.857V101.405L77.5002 99.6189L83.4526 94.2617Z" fill="white"/>
<path d="M98.0924 53.9312C98.5391 53.9711 98.9858 54.0109 99.4325 54.0505C100.634 54.1576 101.836 54.2667 103.037 54.3762C104.3 54.491 105.563 54.6041 106.827 54.7174C108.945 54.9077 111.064 55.0993 113.183 55.2918C115.357 55.4892 117.531 55.6855 119.705 55.8806C119.906 55.8986 119.906 55.8986 120.111 55.917C120.245 55.929 120.379 55.9411 120.517 55.9534C123.129 56.1878 125.741 56.4233 128.353 56.6593C129.102 56.7269 129.851 56.7942 130.6 56.8615C131.779 56.9675 132.958 57.0744 134.137 57.1818C134.568 57.221 134.999 57.2599 135.43 57.2985C141.927 57.8809 141.927 57.8809 143.204 59.2753C143.323 59.3967 143.443 59.5182 143.566 59.6433C143.941 60.028 144.308 60.4196 144.676 60.8118C144.927 61.0702 145.178 61.3281 145.43 61.5855C148.857 65.1219 148.857 65.1219 148.825 67.7743C148.768 69.9498 148.526 72.1194 148.326 74.2853C148.278 74.8132 148.231 75.3411 148.183 75.869C148.084 76.969 147.983 78.0688 147.882 79.1685C147.765 80.4386 147.65 81.7087 147.535 82.979C147.413 84.3374 147.289 85.6958 147.166 87.0542C147.13 87.4439 147.095 87.8336 147.06 88.2234C146.994 88.948 146.927 89.6724 146.86 90.3969C146.841 90.612 146.822 90.8271 146.802 91.0487C146.774 91.3443 146.774 91.3443 146.746 91.6458C146.73 91.8168 146.715 91.9877 146.699 92.1638C146.645 92.591 146.56 92.9901 146.446 93.4046C146.623 93.4 146.623 93.4 146.804 93.3953C147.343 93.3831 147.883 93.3755 148.423 93.368C148.609 93.3631 148.795 93.3582 148.986 93.3531C150.269 93.3397 151.123 93.4672 152.119 94.3415C152.229 94.4674 152.338 94.5933 152.452 94.723C152.563 94.8468 152.675 94.9707 152.79 95.0983C153.524 96.2259 153.531 97.4175 153.514 98.718C153.514 98.8929 153.513 99.0678 153.513 99.2479C153.511 99.6256 153.509 100.003 153.507 100.381C153.503 100.98 153.502 101.578 153.503 102.177C153.505 103.878 153.505 105.58 153.492 107.281C153.485 108.324 153.485 109.366 153.49 110.409C153.49 110.805 153.488 111.201 153.483 111.597C153.379 113.707 153.379 113.707 154.015 115.655C154.415 116.074 154.415 116.074 154.852 116.371C155.492 116.832 155.778 117.472 156.016 118.209C156.217 119.619 155.6 120.591 154.844 121.725C154.969 122.169 154.969 122.169 155.21 122.616C155.625 123.453 155.625 123.453 155.625 123.873C155.813 123.874 155.813 123.874 156.005 123.875C157.156 123.926 157.823 124.116 158.677 124.896C159.362 125.775 159.396 126.69 159.395 127.767C159.396 127.914 159.397 128.062 159.398 128.214C159.399 128.525 159.399 128.836 159.398 129.147C159.397 129.621 159.402 130.094 159.407 130.568C159.407 130.871 159.407 131.174 159.407 131.478C159.409 131.618 159.411 131.758 159.413 131.903C159.403 132.955 159.174 133.76 158.457 134.546C157.472 135.314 156.862 135.42 155.625 135.397C155.061 136.741 155.061 136.741 155.235 138.131C155.368 138.384 155.503 138.636 155.638 138.888C156.029 139.653 156.14 140.191 156.016 141.061C155.424 142.557 154.445 143.524 153.306 144.638C153.133 144.812 152.96 144.986 152.782 145.166C150.735 147.193 150.735 147.193 149.204 147.213C148.43 147.198 148.028 147.051 147.41 146.591C146.935 146.245 146.764 146.122 146.174 146.205C145.703 146.363 145.703 146.363 145.27 146.562C144.883 146.725 144.883 146.725 144.297 146.725C144.292 146.838 144.287 146.952 144.282 147.068C144.204 148.136 144.041 148.818 143.321 149.655C142.354 150.446 141.657 150.554 140.459 150.546C140.299 150.548 140.139 150.549 139.975 150.55C139.638 150.552 139.301 150.551 138.965 150.548C138.452 150.546 137.94 150.552 137.428 150.56C137.1 150.56 136.771 150.56 136.443 150.559C136.291 150.561 136.14 150.564 135.983 150.567C134.873 150.548 134.164 150.233 133.36 149.459C132.918 148.782 132.777 148.39 132.749 147.579C132.652 146.912 132.652 146.912 132.204 146.653C131.338 146.23 131.338 146.23 130.398 146.2C129.951 146.367 129.634 146.629 129.258 146.92C128.728 147.097 128.379 147.153 127.83 147.164C127.686 147.169 127.541 147.174 127.393 147.18C126.433 147.051 125.782 146.627 125.185 145.886C124.308 144.798 123.476 143.812 122.05 143.543C120.904 143.42 119.761 143.448 118.611 143.473C118.172 143.473 117.733 143.471 117.294 143.468C116.108 143.464 114.923 143.476 113.737 143.491C112.493 143.505 111.248 143.502 110.004 143.501C107.915 143.501 105.827 143.51 103.738 143.527C101.594 143.544 99.4498 143.557 97.3056 143.563C97.1735 143.563 97.0413 143.563 96.9052 143.564C95.4603 143.567 94.0155 143.57 92.5706 143.573C92.0596 143.574 91.5485 143.575 91.0375 143.576C90.6631 143.577 90.6631 143.577 90.2811 143.578C88.8022 143.581 87.3234 143.589 85.8445 143.599C84.9234 143.605 84.0023 143.61 83.0811 143.615C82.6557 143.617 82.2302 143.621 81.8047 143.625C74.7234 143.692 74.7234 143.692 72.1659 141.262C70.9392 139.786 70.6351 138.27 70.637 136.406C70.6364 136.23 70.6358 136.054 70.6352 135.873C70.6335 135.281 70.6333 134.69 70.633 134.099C70.6321 133.675 70.6311 133.252 70.63 132.828C70.6275 131.677 70.6262 130.526 70.6253 129.374C70.6248 128.655 70.624 127.936 70.6231 127.217C70.6204 124.969 70.6185 122.72 70.6178 120.471C70.6169 117.874 70.6135 115.276 70.6078 112.679C70.6036 110.672 70.6016 108.665 70.6014 106.658C70.6012 105.459 70.6 104.26 70.5965 103.061C70.5933 101.933 70.5929 100.806 70.5946 99.6781C70.5947 99.2641 70.5939 98.8501 70.592 98.4361C70.5895 97.8712 70.5906 97.3064 70.5927 96.7414C70.5911 96.5774 70.5895 96.4134 70.5879 96.2445C70.5974 95.1197 70.7972 94.2865 71.5861 93.4313C71.7009 93.3379 71.8157 93.2445 71.934 93.1483C72.0488 93.0523 72.1636 92.9564 72.2819 92.8576C72.9151 92.4158 73.4737 92.4041 74.2203 92.4059C74.4275 92.4059 74.6347 92.4059 74.8481 92.4059C75.0715 92.4069 75.2949 92.4079 75.5251 92.409C75.8685 92.4094 75.8685 92.4094 76.2189 92.4098C76.9512 92.4109 77.6836 92.4134 78.4159 92.4158C78.9119 92.4168 79.408 92.4177 79.904 92.4185C81.121 92.4207 82.338 92.4239 83.5551 92.428C83.5622 92.2547 83.5693 92.0813 83.5766 91.9027C83.722 88.7528 84.0273 85.6141 84.3095 82.4742C84.3694 81.8068 84.4289 81.1393 84.4885 80.4719C84.6291 78.8971 84.7703 77.3223 84.9119 75.7476C85.0574 74.1292 85.2018 72.5106 85.3456 70.8921C85.4698 69.4946 85.5947 68.0973 85.7203 66.6999C85.795 65.8687 85.8694 65.0374 85.943 64.2061C86.0122 63.4254 86.0823 62.6448 86.1532 61.8643C86.1789 61.5795 86.2042 61.2948 86.2292 61.01C86.691 55.7559 86.691 55.7559 88.1991 54.4268C90.6896 52.5786 95.182 53.6631 98.0924 53.9312ZM90.273 57.0873C89.8663 57.6539 89.856 58.2495 89.8005 58.9253C89.7862 59.0738 89.7718 59.2223 89.7571 59.3753C89.71 59.8708 89.6666 60.3665 89.6233 60.8623C89.5905 61.2149 89.5576 61.5674 89.5244 61.9199C89.4371 62.853 89.353 63.7863 89.2696 64.7198C89.1892 65.6113 89.1059 66.5026 89.0227 67.3938C88.8348 69.4139 88.6516 71.4344 88.4694 73.455C88.4156 74.0521 88.3617 74.6492 88.3077 75.2462C88.1186 77.3382 87.9299 79.4303 87.7416 81.5223C87.5671 83.4607 87.3916 85.3991 87.2157 87.3373C87.0632 89.0175 86.9115 90.6978 86.7603 92.3782C86.6706 93.3751 86.5806 94.3721 86.4898 95.369C86.405 96.3012 86.321 97.2335 86.2378 98.1659C86.2073 98.5061 86.1764 98.8463 86.1452 99.1865C86.1024 99.6531 86.0609 100.12 86.0196 100.586C86.0072 100.719 85.9948 100.851 85.9821 100.987C85.8842 102.117 85.8988 103.193 85.8988 104.342C95.3734 104.342 104.848 104.342 114.61 104.342C115.577 102.602 116.543 100.862 117.539 99.0687C120.274 94.1679 120.274 94.1679 121.641 93.5999C122.073 93.5488 122.073 93.5488 122.551 93.5455C122.732 93.5433 122.914 93.5412 123.102 93.5389C123.399 93.5383 123.399 93.5383 123.702 93.5376C123.912 93.5357 124.121 93.5337 124.337 93.5317C125.03 93.5257 125.724 93.5223 126.417 93.519C126.898 93.5154 127.378 93.5116 127.859 93.5076C129.124 93.4975 130.389 93.4898 131.654 93.4826C132.945 93.4747 134.236 93.4648 135.526 93.455C138.059 93.436 140.592 93.4195 143.125 93.4046C143.47 90.85 143.71 88.2898 143.939 85.7226C143.977 85.2905 144.016 84.8585 144.055 84.4265C144.136 83.5282 144.216 82.6298 144.296 81.7314C144.399 80.579 144.503 79.4266 144.606 78.2742C144.686 77.3854 144.766 76.4966 144.846 75.6077C144.884 75.1824 144.922 74.7572 144.96 74.3319C145.013 73.7407 145.066 73.1494 145.119 72.5582C145.134 72.3826 145.15 72.207 145.167 72.026C145.181 71.8654 145.195 71.7048 145.21 71.5393C145.222 71.3998 145.235 71.2604 145.247 71.1168C145.27 70.7993 145.274 70.4807 145.274 70.1624C145.055 70.1428 144.836 70.1233 144.611 70.1031C143.796 70.0293 142.982 69.9511 142.167 69.8715C141.815 69.8378 141.463 69.8052 141.111 69.7739C140.604 69.7285 140.097 69.6788 139.59 69.6284C139.355 69.6088 139.355 69.6088 139.116 69.5888C138.115 69.4837 137.483 69.2522 136.68 68.5999C135.558 67.0671 136.12 64.6797 136.289 62.8992C136.308 62.6947 136.327 62.4901 136.346 62.2793C136.391 61.782 136.438 61.2847 136.485 60.7874C134.99 60.6513 133.496 60.5153 132.002 60.3792C131.651 60.3474 131.651 60.3474 131.294 60.3148C128.42 60.0532 125.546 59.7918 122.672 59.531C122.401 59.5064 122.13 59.4818 121.859 59.4572C121.587 59.4325 121.314 59.4078 121.042 59.3831C120.84 59.3647 120.84 59.3647 120.633 59.346C119.946 59.2836 119.258 59.2212 118.571 59.1588C115.427 58.8735 112.282 58.5872 109.138 58.2984C107.321 58.1316 105.505 57.9655 103.688 57.8C102.634 57.7039 101.58 57.6075 100.527 57.5099C99.5429 57.4188 98.5588 57.3289 97.5746 57.2398C97.2189 57.2074 96.8631 57.1746 96.5075 57.1413C93.2717 56.5955 93.2717 56.5955 90.273 57.0873ZM139.61 61.178C139.539 62.0202 139.47 62.8625 139.402 63.7049C139.382 63.9455 139.362 64.186 139.341 64.4339C139.323 64.6624 139.304 64.8909 139.285 65.1263C139.268 65.338 139.251 65.5497 139.233 65.7678C139.228 65.929 139.224 66.0901 139.219 66.2562C139.53 66.5675 139.881 66.5166 140.312 66.556C140.497 66.573 140.682 66.59 140.873 66.6075C141.069 66.6245 141.264 66.6415 141.465 66.659C141.655 66.6768 141.844 66.6945 142.039 66.7128C143.188 66.8154 144.316 66.86 145.469 66.8421C144.82 66.0601 144.154 65.322 143.431 64.6082C142.746 63.9326 142.106 63.2332 141.477 62.5056C141.067 62.0339 140.663 61.5937 140.196 61.178C140.002 61.178 139.809 61.178 139.61 61.178ZM73.9847 95.7484C73.9671 101.203 73.9527 106.658 73.9443 112.113C73.9402 114.646 73.9347 117.178 73.9258 119.711C73.918 121.918 73.913 124.126 73.9112 126.333C73.9102 127.502 73.9078 128.671 73.9021 129.84C73.8968 130.94 73.8952 132.04 73.8964 133.14C73.8962 133.544 73.8946 133.948 73.8916 134.352C73.8877 134.903 73.8887 135.454 73.8908 136.005C73.8885 136.165 73.8862 136.325 73.8839 136.49C73.8947 137.519 74.0932 138.091 74.766 138.912C75.7852 139.878 76.71 140.107 78.0863 140.084C78.0867 139.829 78.0867 139.829 78.0872 139.57C78.0944 135.436 78.1059 131.302 78.1222 127.168C78.13 125.169 78.1363 123.169 78.1392 121.17C78.1418 119.428 78.147 117.685 78.1556 115.943C78.16 115.02 78.163 114.097 78.1628 113.175C78.1627 112.306 78.1662 111.437 78.1725 110.569C78.1741 110.25 78.1745 109.932 78.1734 109.613C78.1721 109.177 78.1756 108.742 78.1803 108.306C78.181 108.062 78.1817 107.819 78.1824 107.568C78.3349 106.512 78.7623 105.785 79.5634 105.062C80.3507 104.676 81.072 104.544 81.9353 104.419C82.375 104.388 82.375 104.388 82.5785 104.147C82.6374 103.695 82.6841 103.241 82.7257 102.786C82.7448 102.579 82.7448 102.579 82.7643 102.368C82.7912 102.074 82.8176 101.78 82.8436 101.486C82.883 101.042 82.9242 100.598 82.9657 100.155C82.9916 99.8682 83.0174 99.5818 83.0431 99.2953C83.0553 99.165 83.0675 99.0347 83.0801 98.9004C83.1721 97.8379 83.1644 96.827 83.1644 95.7484C80.1351 95.7484 77.1058 95.7484 73.9847 95.7484ZM122.618 96.7249C122.243 97.379 121.869 98.0332 121.495 98.6873C121.39 98.8711 121.285 99.0549 121.177 99.2442C120.267 100.835 119.372 102.434 118.483 104.037C116.725 107.191 116.725 107.191 116.172 107.467C115.717 107.488 115.261 107.496 114.805 107.498C114.663 107.499 114.521 107.5 114.374 107.501C113.895 107.504 113.416 107.506 112.937 107.507C112.594 107.509 112.251 107.511 111.909 107.513C110.977 107.518 110.045 107.522 109.112 107.526C108.139 107.531 107.166 107.536 106.192 107.541C104.348 107.551 102.504 107.56 100.66 107.568C98.1688 107.58 95.6776 107.593 93.1863 107.605C89.2597 107.626 85.3332 107.644 81.4066 107.662C81.4066 118.491 81.4066 129.319 81.4066 140.475C94.4906 140.475 107.575 140.475 121.055 140.475C121.184 139.895 121.313 139.315 121.446 138.717C121.603 138.532 121.76 138.346 121.922 138.156C122.29 137.575 122.29 137.575 122.122 137.01C121.715 135.905 121.715 135.905 120.832 135.199C120.532 135.143 120.229 135.099 119.925 135.064C119.235 134.972 118.836 134.679 118.321 134.225C117.619 132.867 117.639 131.589 117.648 130.087C117.649 129.649 117.644 129.212 117.637 128.774C117.63 127.308 117.638 126.087 118.516 124.85C118.886 124.54 118.886 124.54 119.261 124.386C119.463 124.297 119.463 124.297 119.67 124.205C120.078 124.069 120.078 124.069 120.811 123.959C121.585 123.617 121.651 123.403 121.971 122.64C122.164 122.073 122.164 122.073 122.227 121.53C121.933 120.93 121.933 120.93 121.446 120.553C121.252 119.971 121.205 119.54 121.189 118.93C121.178 118.659 121.178 118.659 121.167 118.382C121.397 116.821 122.912 115.702 123.973 114.645C124.147 114.467 124.322 114.289 124.502 114.106C124.671 113.937 124.841 113.767 125.015 113.592C125.169 113.438 125.323 113.284 125.481 113.125C126.335 112.407 127.143 112.265 128.227 112.285C128.953 112.391 129.427 112.735 130.039 113.131C130.895 113.455 131.528 113.193 132.343 112.852C132.888 112.464 132.943 112.231 133.055 111.581C133.073 111.41 133.092 111.238 133.112 111.062C133.181 110.446 133.35 110.087 133.75 109.616C134.714 109.017 135.478 108.941 136.576 108.945C136.81 108.943 136.81 108.943 137.049 108.942C137.377 108.941 137.706 108.941 138.034 108.942C138.534 108.944 139.034 108.939 139.534 108.932C139.854 108.932 140.175 108.932 140.495 108.933C140.717 108.929 140.717 108.929 140.944 108.926C141.952 108.939 142.517 109.155 143.321 109.811C143.816 110.431 143.922 110.913 144.016 111.679C144.134 112.286 144.209 112.483 144.721 112.846C145.717 113.292 145.717 113.292 146.768 113.167C147.107 112.996 147.438 112.811 147.764 112.618C148.38 112.358 148.669 112.32 149.317 112.333C149.554 112.337 149.554 112.337 149.794 112.34C149.914 112.344 150.033 112.347 150.157 112.35C150.166 110.399 150.173 108.448 150.177 106.498C150.179 105.592 150.182 104.686 150.186 103.78C150.19 102.907 150.193 102.033 150.194 101.159C150.194 100.825 150.196 100.492 150.198 100.158C150.201 99.6913 150.201 99.2246 150.201 98.7579C150.202 98.6194 150.204 98.4809 150.205 98.3382C150.202 97.6241 150.174 97.3368 149.766 96.7249C149.274 96.6374 149.274 96.6374 148.688 96.6545C148.459 96.6536 148.23 96.6528 147.995 96.652C147.742 96.6541 147.49 96.6562 147.23 96.6584C146.962 96.6586 146.694 96.6585 146.427 96.6581C145.699 96.658 144.972 96.6614 144.244 96.6655C143.484 96.6692 142.725 96.6695 141.965 96.6702C140.525 96.672 139.086 96.6768 137.646 96.6827C136.008 96.6893 134.369 96.6925 132.731 96.6954C129.36 96.7016 125.989 96.7119 122.618 96.7249ZM136.094 112.155C136.069 112.419 136.069 112.419 136.043 112.689C136.016 112.92 135.988 113.15 135.96 113.388C135.935 113.616 135.91 113.845 135.884 114.081C135.703 114.694 135.703 114.694 135.285 115.038C134.423 115.412 133.542 115.707 132.652 116.006C132.051 116.234 131.559 116.504 131.016 116.842C130.285 117.06 129.952 117.079 129.234 116.805C128.703 116.471 128.308 116.135 127.891 115.67C127.297 115.936 126.89 116.234 126.435 116.697C126.314 116.819 126.194 116.941 126.069 117.067C125.945 117.194 125.821 117.321 125.694 117.452C125.567 117.581 125.44 117.71 125.309 117.842C124.997 118.159 124.686 118.477 124.375 118.795C124.499 118.936 124.499 118.936 124.625 119.081C124.732 119.204 124.839 119.327 124.949 119.454C125.056 119.577 125.162 119.699 125.272 119.825C125.835 120.514 125.804 121.042 125.743 121.92C125.545 122.427 125.344 122.882 125.096 123.361C124.683 124.193 124.301 124.995 124.034 125.888C123.789 126.608 123.789 126.608 123.203 126.998C122.043 127.095 122.043 127.095 120.86 127.194C120.86 128.805 120.86 130.416 120.86 132.076C121.633 132.141 122.407 132.205 123.203 132.272C123.979 133.047 124.15 133.371 124.473 134.371C124.74 135.17 125.004 135.918 125.413 136.654C125.791 137.453 125.913 137.848 125.743 138.717C125.336 139.29 124.876 139.788 124.375 140.28C125.405 141.532 126.542 142.66 127.696 143.795C127.92 143.604 128.143 143.413 128.367 143.221C128.492 143.115 128.616 143.008 128.745 142.899C128.92 142.747 129.094 142.592 129.258 142.428C130.614 142.245 131.502 142.691 132.708 143.29C133.483 143.659 134.27 143.923 135.089 144.175C135.508 144.381 135.508 144.381 135.899 145.162C135.995 146.226 135.995 146.226 136.094 147.311C137.705 147.311 139.317 147.311 140.977 147.311C140.997 146.904 141.017 146.497 141.038 146.078C141.097 144.89 141.097 144.89 141.392 144.427C141.92 144.08 142.465 143.907 143.064 143.71C143.858 143.444 144.615 143.169 145.347 142.758C146.245 142.34 146.639 142.273 147.618 142.428C148.132 142.766 148.561 143.155 148.985 143.6C149.579 143.335 149.985 143.037 150.44 142.573C150.561 142.451 150.682 142.329 150.807 142.203C150.931 142.076 151.054 141.949 151.182 141.818C151.309 141.689 151.436 141.56 151.567 141.428C151.879 141.111 152.19 140.793 152.5 140.475C152.273 139.983 152.12 139.703 151.707 139.34C151.18 138.744 151.17 138.335 151.133 137.545C151.323 137.034 151.512 136.604 151.768 136.129C152.315 135.053 152.703 134.043 152.949 132.853C153.017 132.662 153.017 132.662 153.086 132.467C154.021 132.156 155.034 132.158 156.016 132.076C156.016 130.465 156.016 128.854 156.016 127.194C155.243 127.129 154.469 127.065 153.672 126.998C153.023 126.349 152.805 125.754 152.513 124.911C152.202 124.039 151.898 123.204 151.438 122.396C151.066 121.578 151.045 121.209 151.328 120.358C151.688 119.909 152.063 119.567 152.5 119.186C152.235 118.591 151.937 118.185 151.473 117.73C151.351 117.609 151.229 117.488 151.103 117.364C150.976 117.24 150.849 117.116 150.718 116.989C150.589 116.862 150.461 116.735 150.328 116.604C150.012 116.292 149.694 115.981 149.375 115.67C148.887 115.901 148.536 116.11 148.118 116.464C147.562 116.884 147.331 116.993 146.641 117.037C146.12 116.85 145.648 116.654 145.152 116.415C144.875 116.287 144.597 116.159 144.319 116.032C144.184 115.969 144.048 115.907 143.908 115.843C143.204 115.533 142.477 115.29 141.747 115.05C141.368 114.889 141.368 114.889 141.172 114.498C141.127 114.068 141.092 113.636 141.062 113.204C141.046 112.972 141.03 112.74 141.013 112.501C141.001 112.322 140.989 112.143 140.977 111.959C138.529 111.931 138.529 111.931 136.094 112.155Z" fill="black"/>
<path d="M145.004 121.557C147.197 123.347 148.488 125.975 148.789 128.76C149.066 131.544 148.083 134.142 146.408 136.316C144.753 138.249 142.538 139.512 139.999 139.892C136.752 140.089 134.064 139.452 131.552 137.304C129.723 135.568 128.31 133.283 128.234 130.695C128.157 127.373 128.843 124.739 131.174 122.253C135.073 118.587 140.738 118.509 145.004 121.557ZM133.164 125.049C131.75 126.949 131.375 128.754 131.601 131.103C132.122 133.106 133.18 134.57 134.921 135.669C136.597 136.595 138.3 136.878 140.183 136.438C141.943 135.851 143.459 134.814 144.492 133.252C145.562 131.069 145.685 129.333 144.933 127.032C144.247 125.314 142.915 124.003 141.245 123.23C138.345 122.055 135.33 122.797 133.164 125.049Z" fill="black"/>
<path d="M99.1741 80.7788C99.4285 80.7997 99.6829 80.8206 99.945 80.8422C100.236 80.8674 100.527 80.8928 100.818 80.9181C101.133 80.9446 101.447 80.9711 101.762 80.9975C102.7 81.0767 103.638 81.158 104.576 81.2398C105.28 81.3012 105.984 81.3623 106.689 81.4234C109.787 81.6926 112.886 81.9657 115.984 82.2419C117.643 82.3897 119.302 82.5367 120.961 82.6825C122.145 82.7867 123.329 82.8917 124.513 82.9976C125.214 83.0602 125.915 83.1224 126.616 83.1836C127.391 83.2513 128.166 83.321 128.942 83.3908C129.17 83.4104 129.397 83.43 129.632 83.4502C130.779 83.5552 131.872 83.673 132.969 84.0317C133.45 84.6721 133.562 85.0278 133.531 85.8261C133.273 86.6557 133.273 86.6557 132.774 86.9613C131.747 87.1297 130.836 87.1649 129.795 87.0715C129.661 87.06 129.528 87.0485 129.39 87.0366C128.947 86.998 128.504 86.9571 128.062 86.9161C127.742 86.8877 127.423 86.8595 127.104 86.8315C126.24 86.7551 125.376 86.6766 124.512 86.5977C123.606 86.5153 122.701 86.4345 121.795 86.3535C120.274 86.2172 118.754 86.0796 117.233 85.9411C115.477 85.7813 113.721 85.6235 111.965 85.4669C110.273 85.316 108.581 85.1636 106.889 85.0104C106.17 84.9454 105.451 84.8809 104.732 84.8168C103.885 84.7412 103.038 84.6643 102.191 84.5864C101.881 84.5581 101.571 84.5302 101.26 84.5028C100.836 84.4653 100.411 84.4261 99.9866 84.3865C99.7494 84.365 99.5121 84.3435 99.2677 84.3213C97.4881 84.0719 97.4881 84.0719 96.8489 83.4945C96.5692 82.9023 96.5487 82.5319 96.6413 81.8832C97.3564 80.7736 97.9095 80.6723 99.1741 80.7788Z" fill="black"/>
<path d="M103.751 72.1808C104.069 72.2088 104.387 72.2367 104.705 72.2646C105.563 72.3399 106.421 72.4165 107.279 72.4935C107.815 72.5416 108.352 72.5894 108.888 72.6372C110.761 72.804 112.634 72.9719 114.507 73.1407C116.251 73.2979 117.995 73.4525 119.74 73.606C121.24 73.7381 122.741 73.8721 124.241 74.0076C125.136 74.0883 126.031 74.1683 126.926 74.2464C127.766 74.3197 128.607 74.3954 129.447 74.4729C129.755 74.5009 130.063 74.5281 130.372 74.5543C130.793 74.5903 131.213 74.6294 131.634 74.6692C131.869 74.6903 132.105 74.7113 132.347 74.733C133.141 74.8837 133.719 75.1399 134.213 75.7908C134.386 76.3964 134.315 76.7876 134.14 77.3899C133.726 77.9194 133.506 78.1472 132.834 78.2562C132.536 78.246 132.536 78.246 132.231 78.2355C132.005 78.2283 131.779 78.2212 131.545 78.2138C130.282 78.1397 129.022 78.04 127.762 77.9233C127.464 77.8966 127.167 77.8699 126.869 77.8434C126.068 77.7718 125.268 77.6988 124.467 77.6255C123.626 77.5486 122.784 77.4731 121.942 77.3974C120.53 77.2702 119.119 77.1422 117.707 77.0137C115.72 76.8327 113.732 76.6532 111.745 76.474C110.196 76.3343 108.647 76.1942 107.098 76.054C106.933 76.0391 106.768 76.0242 106.598 76.0088C105.647 75.9227 104.696 75.8364 103.745 75.7498C103.458 75.7237 103.171 75.6977 102.884 75.6717C102.039 75.5952 101.195 75.5166 100.351 75.4368C100.168 75.4206 99.9862 75.4044 99.7984 75.3877C98.8361 75.2949 98.2601 75.2248 97.6163 74.4602C97.3886 73.6774 97.3365 73.2781 97.6773 72.5315C98.8063 71.1098 102.114 72.0333 103.751 72.1808Z" fill="black"/>
</svg>
