<svg width="180" height="152" viewBox="0 0 180 152" fill="none" xmlns="http://www.w3.org/2000/svg">
<circle cx="52.5" cy="52" r="52" fill="#C6E8FF"/>
<path d="M30.62 51.04C30.62 46.4267 31.4467 42.8133 33.1 40.2C34.78 37.5867 37.5533 36.28 41.42 36.28C45.2867 36.28 48.0467 37.5867 49.7 40.2C51.38 42.8133 52.22 46.4267 52.22 51.04C52.22 55.68 51.38 59.32 49.7 61.96C48.0467 64.6 45.2867 65.92 41.42 65.92C37.5533 65.92 34.78 64.6 33.1 61.96C31.4467 59.32 30.62 55.68 30.62 51.04ZM46.7 51.04C46.7 49.0667 46.5667 47.4133 46.3 46.08C46.06 44.72 45.5533 43.6133 44.78 42.76C44.0333 41.9067 42.9133 41.48 41.42 41.48C39.9267 41.48 38.7933 41.9067 38.02 42.76C37.2733 43.6133 36.7667 44.72 36.5 46.08C36.26 47.4133 36.14 49.0667 36.14 51.04C36.14 53.0667 36.26 54.7733 36.5 56.16C36.74 57.52 37.2467 58.6267 38.02 59.48C38.7933 60.3067 39.9267 60.72 41.42 60.72C42.9133 60.72 44.0467 60.3067 44.82 59.48C45.5933 58.6267 46.1 57.52 46.34 56.16C46.58 54.7733 46.7 53.0667 46.7 51.04ZM56.2394 60.32V55.92L69.3194 37.2H75.8394V55.44H79.3594V60.32H75.8394V66H70.2394V60.32H56.2394ZM70.5994 43.2L62.3994 55.44H70.5994V43.2Z" fill="black"/>
<g clip-path="url(#clip0_34_1765)">
<path d="M106 69.5H89L84.5 73.5V97L91.5 88L99.5 81L106 69.5Z" fill="white"/>
<path d="M151.826 56.5776C152.894 57.4117 153.903 58.2987 154.89 59.2265C155.017 59.339 155.145 59.4516 155.276 59.5675C157.199 61.3445 158.904 63.8637 159.968 66.2577C159.968 66.3866 159.968 66.5156 159.968 66.6484C160.122 66.6438 160.276 66.6393 160.434 66.6346C163.85 66.578 166.81 67.1475 169.343 69.5781C171.952 72.2969 172.35 75.5031 172.291 79.1331C172.289 79.3945 172.286 79.656 172.284 79.9175C172.279 80.4752 172.273 81.0328 172.266 81.5905C172.256 82.475 172.252 83.3596 172.249 84.2442C172.248 84.4694 172.248 84.4694 172.248 84.6993C172.246 85.0061 172.245 85.3129 172.244 85.6197C172.237 87.6748 172.227 89.7297 172.2 91.7847C172.181 93.1771 172.172 94.5693 172.174 95.9618C172.175 96.6962 172.171 97.4298 172.155 98.164C171.952 101.682 171.952 101.681 173.436 104.707C173.9 105.13 174.385 105.502 174.899 105.862C176.044 106.766 176.357 108.441 176.539 109.809C176.64 111.763 176.004 113.402 174.714 114.854C173.994 115.484 173.332 116.038 172.468 116.453C172.466 116.624 172.466 116.624 172.463 116.799C172.446 118 172.427 119.201 172.406 120.402C172.398 120.849 172.392 121.296 172.385 121.743C172.273 129.813 172.273 129.813 169.343 132.859C167.033 134.994 164.69 135.655 161.617 135.638C161.35 135.638 161.082 135.638 160.814 135.638C160.091 135.638 159.368 135.636 158.644 135.633C157.887 135.631 157.13 135.631 156.372 135.63C154.94 135.629 153.507 135.626 152.075 135.622C150.443 135.617 148.812 135.615 147.18 135.613C143.826 135.609 140.471 135.602 137.116 135.594C137.116 137.141 137.116 138.687 137.116 140.281C137.696 140.281 138.276 140.281 138.874 140.281C141.448 140.801 143.587 142.278 145.124 144.383C146.111 146.043 146.738 147.633 146.772 149.583C146.78 149.831 146.788 150.079 146.796 150.335C146.656 151.218 146.407 151.451 145.71 152C145.168 152.096 144.746 152.132 144.205 152.124C144.055 152.125 143.905 152.127 143.75 152.129C143.248 152.132 142.746 152.129 142.244 152.126C141.884 152.128 141.523 152.129 141.163 152.131C140.185 152.136 139.207 152.134 138.229 152.131C137.205 152.129 136.182 152.131 135.158 152.132C133.44 152.134 131.721 152.132 130.002 152.127C128.015 152.122 126.027 152.124 124.04 152.129C122.334 152.133 120.628 152.134 118.922 152.132C117.903 152.13 116.884 152.13 115.865 152.133C114.907 152.136 113.949 152.134 112.991 152.128C112.639 152.127 112.287 152.127 111.936 152.129C111.456 152.132 110.976 152.129 110.496 152.124C110.357 152.126 110.217 152.128 110.074 152.131C109.324 152.116 109.011 152.016 108.419 151.54C107.827 150.784 107.8 150.203 107.852 149.264C108.274 146.404 109.34 144.127 111.604 142.271C113.421 140.942 115.124 140.281 117.39 140.281C117.39 138.734 117.39 137.187 117.39 135.594C117.057 135.595 116.725 135.597 116.382 135.599C113.244 135.615 110.106 135.627 106.968 135.634C105.355 135.638 103.742 135.644 102.129 135.653C100.722 135.66 99.3153 135.665 97.9084 135.667C97.1643 135.668 96.4202 135.671 95.6761 135.676C94.9739 135.682 94.2718 135.683 93.5696 135.682C93.1926 135.682 92.8157 135.687 92.4387 135.691C89.7507 135.678 87.4576 134.822 85.4608 133.005C83.4118 130.87 82.5632 128.516 82.5719 125.616C82.571 125.399 82.5701 125.183 82.5692 124.96C82.5668 124.235 82.5671 123.511 82.5674 122.786C82.5662 122.267 82.5649 121.747 82.5634 121.227C82.5602 119.962 82.5591 118.697 82.5589 117.432C82.5587 116.403 82.5579 115.374 82.5567 114.346C82.5532 111.426 82.5514 108.506 82.5517 105.586C82.5517 105.429 82.5517 105.271 82.5518 105.109C82.5518 104.952 82.5518 104.794 82.5518 104.632C82.552 102.081 82.5482 99.5304 82.5427 96.9796C82.5371 94.3575 82.5344 91.7355 82.5348 89.1135C82.5349 87.6425 82.5338 86.1716 82.5296 84.7007C82.526 83.4481 82.5252 82.1954 82.5279 80.9427C82.5291 80.3044 82.5287 79.6661 82.5258 79.0277C82.5227 78.3337 82.5246 77.6397 82.5276 76.9457C82.5256 76.7467 82.5236 76.5478 82.5215 76.3428C82.5456 73.8053 83.5101 71.5512 85.2128 69.6803C87.8496 67.1493 90.877 66.6137 94.3841 66.6262C94.7017 66.6262 94.7017 66.6262 95.0257 66.6261C95.72 66.6262 96.4143 66.6278 97.1086 66.6293C97.5921 66.6297 98.0757 66.6299 98.5592 66.6301C99.8278 66.6309 101.096 66.6328 102.365 66.635C103.661 66.637 104.957 66.6378 106.254 66.6388C108.794 66.6409 111.334 66.6442 113.874 66.6484C113.961 66.3761 113.961 66.3761 114.05 66.0983C115.83 60.9344 121.07 56.6803 125.788 54.3437C134.045 50.4045 144.407 51.1505 151.826 56.5776ZM130.671 56.8827C130.448 56.9535 130.226 57.0242 129.997 57.0971C124.355 59.1072 120.063 63.1371 117.399 68.4718C115.256 73.0921 114.869 78.7939 116.413 83.6406C116.519 83.9744 116.519 83.9744 116.628 84.315C118.708 90.1556 122.928 94.4827 128.493 97.1268C133.286 99.2429 139.316 99.474 144.212 97.5833C144.989 97.2645 145.739 96.9048 146.491 96.5312C146.776 96.396 146.776 96.396 147.067 96.258C151.884 93.8283 155.579 89.2535 157.278 84.1764C157.697 82.8467 158.04 81.5103 158.21 80.1249C158.236 79.9119 158.262 79.6989 158.289 79.4795C158.837 73.6919 156.968 68.0355 153.277 63.5653C149.813 59.4715 144.984 56.8219 139.655 56.1015C136.612 55.8903 133.591 55.9525 130.671 56.8827ZM88.1211 72.6886C86.7516 74.4301 86.4992 76.2107 86.5069 78.3605C86.5067 78.5319 86.5066 78.7034 86.5064 78.88C86.5061 79.4538 86.5072 80.0275 86.5082 80.6013C86.5083 81.02 86.5083 81.4386 86.5082 81.8573C86.5081 82.9773 86.5092 84.0973 86.5106 85.2174C86.5117 86.2688 86.5118 87.3202 86.5119 88.3716C86.5129 91.4454 86.5157 94.5193 86.5182 97.5932C86.5222 104.461 86.5262 111.33 86.5304 118.406C113.472 118.406 140.413 118.406 168.171 118.406C168.171 117.826 168.171 117.246 168.171 116.648C168.053 116.612 167.934 116.576 167.812 116.539C165.186 115.63 163.317 113.177 161.411 111.241C160.611 110.428 159.807 109.618 159.003 108.808C157.985 107.78 156.968 106.751 155.953 105.72C155.129 104.882 154.302 104.047 153.473 103.214C153.158 102.897 152.845 102.578 152.532 102.258C152.097 101.814 151.658 101.373 151.218 100.933C151.09 100.8 150.961 100.667 150.829 100.53C150.501 100.206 150.195 99.911 149.812 99.6562C149.266 99.6286 149.266 99.6286 148.835 99.8515C148.712 99.901 148.59 99.9506 148.463 100.002C148.346 100.06 148.229 100.118 148.108 100.178C142.003 103.104 134.902 103.494 128.48 101.36C122.727 99.3305 117.839 95.365 114.889 90.0027C114.809 89.8597 114.73 89.7166 114.648 89.5692C114.454 89.221 114.262 88.8722 114.069 88.5234C113.819 88.5218 113.569 88.5202 113.311 88.5186C110.954 88.5035 108.598 88.4863 106.241 88.4672C105.029 88.4574 103.818 88.4484 102.606 88.441C101.437 88.4338 100.268 88.4247 99.0996 88.4144C98.6532 88.4107 98.2069 88.4078 97.7605 88.4055C97.1362 88.4022 96.5119 88.3966 95.8877 88.3903C95.7024 88.3899 95.5171 88.3895 95.3261 88.389C95.1558 88.3869 94.9855 88.3847 94.8099 88.3824C94.6623 88.3814 94.5147 88.3803 94.3626 88.3792C93.8837 88.3195 93.5784 88.195 93.171 87.9374C92.6494 87.1549 92.6423 86.5136 92.7804 85.5937C93.2098 85.0015 93.4542 84.8483 94.1476 84.6171C94.7269 84.5936 95.302 84.5809 95.8815 84.577C96.0588 84.5751 96.236 84.5731 96.4186 84.5712C97.0051 84.565 97.5917 84.5601 98.1782 84.5553C98.5846 84.5513 98.991 84.5472 99.3974 84.543C100.468 84.5322 101.538 84.5226 102.608 84.5132C103.7 84.5034 104.792 84.4925 105.884 84.4817C108.026 84.4607 110.169 84.4409 112.312 84.4218C112.266 84.0538 112.266 84.0538 112.22 83.6783C112.195 83.4713 112.195 83.4713 112.169 83.2601C112.099 82.7297 112.005 82.2044 111.913 81.6775C111.689 80.2334 111.661 78.8131 111.665 77.3539C111.662 77.1061 111.658 76.8582 111.655 76.6028C111.654 75.1668 111.773 73.8206 112.023 72.4091C112.065 72.1682 112.065 72.1682 112.107 71.9225C112.174 71.5315 112.243 71.1407 112.312 70.7499C109.748 70.7409 107.184 70.7339 104.62 70.7297C103.43 70.7277 102.239 70.7249 101.049 70.7205C99.8988 70.7162 98.7489 70.7139 97.599 70.7129C97.1613 70.7121 96.7235 70.7107 96.2857 70.7086C95.6706 70.7058 95.0554 70.7054 94.4403 70.7056C94.261 70.7042 94.0817 70.7028 93.897 70.7013C91.7236 70.7082 89.6886 71.0616 88.1211 72.6886ZM161.53 70.7499C161.57 70.9652 161.61 71.1805 161.652 71.4022C162.752 77.5049 162.318 83.3202 159.532 88.933C159.342 89.4048 159.225 89.7696 159.187 90.2812C159.493 90.7596 159.493 90.7596 159.968 91.1989C160.144 91.3747 160.319 91.5506 160.5 91.7318C160.694 91.921 160.889 92.1101 161.083 92.2992C161.28 92.4946 161.477 92.6902 161.674 92.8861C162.192 93.4009 162.714 93.912 163.236 94.4225C163.663 94.8409 164.087 95.2619 164.512 95.683C165.016 96.1835 165.521 96.6829 166.027 97.182C166.124 97.2778 166.221 97.3736 166.321 97.4724C166.595 97.7418 166.869 98.0104 167.144 98.2789C167.3 98.4321 167.456 98.5853 167.617 98.7431C167.919 99.0922 167.919 99.0922 168.171 99.0702C168.18 96.1754 168.187 93.2806 168.191 90.3858C168.193 89.0415 168.196 87.6973 168.2 86.353C168.205 85.0549 168.207 83.7569 168.208 82.4589C168.209 81.9644 168.21 81.4699 168.212 80.9755C168.215 80.2813 168.216 79.5871 168.215 78.8929C168.217 78.6899 168.218 78.4869 168.22 78.2777C168.214 76.1639 167.952 74.1842 166.498 72.5558C165.045 71.2111 163.47 70.8224 161.53 70.7499ZM156.452 93.6015C156.173 93.889 155.907 94.1883 155.647 94.4926C154.865 95.3828 154.046 96.1699 153.132 96.9218C153.393 97.5027 153.681 97.9099 154.13 98.3592C154.255 98.4849 154.38 98.6106 154.509 98.7401C154.646 98.8758 154.782 99.0115 154.923 99.1513C155.068 99.2958 155.212 99.4404 155.36 99.5894C155.837 100.067 156.316 100.543 156.794 101.02C157.125 101.351 157.457 101.682 157.788 102.013C158.482 102.707 159.177 103.4 159.873 104.093C160.765 104.983 161.657 105.874 162.548 106.765C163.232 107.449 163.917 108.132 164.601 108.815C164.93 109.144 165.259 109.472 165.588 109.801C166.047 110.259 166.506 110.717 166.966 111.174C167.102 111.311 167.239 111.448 167.38 111.589C167.505 111.713 167.63 111.837 167.758 111.965C167.867 112.073 167.976 112.182 168.088 112.293C168.718 112.867 169.381 112.829 170.199 112.825C171.038 112.689 171.54 112.204 172.077 111.57C172.306 111.113 172.339 110.786 172.37 110.276C172.384 110.117 172.398 109.957 172.413 109.793C172.063 108.383 170.473 107.203 169.465 106.196C169.329 106.058 169.192 105.921 169.051 105.779C168.604 105.331 168.157 104.883 167.709 104.435C167.397 104.122 167.085 103.809 166.772 103.496C166.12 102.843 165.468 102.19 164.816 101.538C163.978 100.7 163.141 99.8607 162.305 99.0211C161.661 98.3757 161.017 97.7312 160.373 97.087C160.064 96.7776 159.755 96.468 159.447 96.1581C159.018 95.727 158.587 95.2971 158.156 94.8676C158.028 94.7385 157.901 94.6095 157.769 94.4766C157.214 93.8293 157.214 93.8293 156.452 93.6015ZM86.5304 122.312C86.401 126.354 86.401 126.354 88.0929 129.734C89.6741 131.258 91.4902 131.711 93.6445 131.713C93.8896 131.713 94.1347 131.714 94.3872 131.714C94.6567 131.714 94.9261 131.714 95.1955 131.714C95.4837 131.714 95.7719 131.714 96.0601 131.715C96.8505 131.716 97.6409 131.716 98.4312 131.716C99.2843 131.716 100.137 131.717 100.99 131.718C102.661 131.719 104.332 131.72 106.002 131.72C107.36 131.72 108.718 131.721 110.076 131.721C113.928 131.723 117.779 131.724 121.63 131.724C121.838 131.724 122.046 131.724 122.259 131.724C122.467 131.724 122.675 131.724 122.889 131.724C126.258 131.724 129.626 131.725 132.994 131.728C136.453 131.731 139.913 131.732 143.372 131.732C145.314 131.732 147.256 131.733 149.198 131.735C150.851 131.736 152.504 131.737 154.157 131.736C155.001 131.735 155.844 131.735 156.687 131.737C157.46 131.738 158.232 131.738 159.005 131.736C159.284 131.736 159.562 131.736 159.841 131.737C162.232 131.746 164.279 131.642 166.218 130.125C168.385 127.876 168.171 125.371 168.171 122.312C141.23 122.312 114.288 122.312 86.5304 122.312ZM121.491 135.594C121.491 137.141 121.491 138.687 121.491 140.281C125.294 140.281 129.097 140.281 133.015 140.281C133.015 138.734 133.015 137.187 133.015 135.594C129.212 135.594 125.409 135.594 121.491 135.594ZM112.959 146.714C112.629 147.179 112.629 147.179 112.507 148.094C122.304 148.094 132.101 148.094 142.194 148.094C141.925 146.746 141.172 145.885 140.054 145.086C138.493 144.24 136.714 144.129 134.973 144.137C134.789 144.136 134.606 144.136 134.416 144.135C133.815 144.133 133.213 144.134 132.612 144.136C132.19 144.135 131.769 144.135 131.347 144.134C130.466 144.134 129.584 144.135 128.703 144.137C127.578 144.139 126.452 144.137 125.326 144.135C124.457 144.134 123.587 144.134 122.717 144.135C122.302 144.135 121.887 144.135 121.472 144.134C120.891 144.133 120.309 144.135 119.728 144.137C119.559 144.136 119.39 144.135 119.216 144.134C116.649 144.152 114.674 144.744 112.959 146.714Z" fill="black"/>
<path d="M146.883 63.1331C150.713 66.0492 153.32 69.8252 154.074 74.6222C154.68 79.1431 153.821 83.7767 151.113 87.5184C148.187 91.3221 144.245 93.8793 139.461 94.5784C136.653 94.755 133.928 94.7354 131.258 93.7971C131.049 93.7241 130.839 93.6511 130.624 93.5759C126.26 91.8972 122.991 88.5998 121.041 84.4115C119.313 80.5038 119.097 75.7651 120.516 71.7268C120.625 71.413 120.625 71.413 120.737 71.0928C122.416 66.7293 125.713 63.4599 129.901 61.5103C135.335 59.1071 142.008 59.7144 146.883 63.1331ZM132.625 64.8909C132.446 64.9619 132.267 65.0329 132.083 65.106C130.868 65.6226 129.78 66.2559 128.719 67.0393C128.545 67.1643 128.545 67.1643 128.368 67.2919C126.48 68.7683 125.281 70.8974 124.422 73.094C124.355 73.2546 124.289 73.4153 124.22 73.5808C123.295 76.2638 123.567 79.6756 124.617 82.2737C124.698 82.4731 124.778 82.6725 124.861 82.8779C126.365 86.1919 129.141 88.5937 132.517 89.8772C135.19 90.8035 138.566 90.9329 141.219 89.8909C141.379 89.8388 141.539 89.7867 141.704 89.733C143.089 89.2492 144.176 88.4496 145.32 87.5471C145.447 87.4527 145.574 87.3583 145.705 87.261C147.324 85.9918 148.421 84.1397 149.227 82.2737C149.313 82.0777 149.313 82.0777 149.402 81.8777C150.664 78.6227 150.3 75.0341 148.987 71.871C148.504 70.7972 147.827 69.8951 147.078 68.9924C146.984 68.8671 146.89 68.7417 146.794 68.6125C144.979 66.2802 141.938 64.8158 139.07 64.3049C136.93 64.162 134.636 64.0628 132.625 64.8909Z" fill="black"/>
<path d="M95.7567 103.141C96.0026 103.14 96.0026 103.14 96.2535 103.138C96.7963 103.135 97.3391 103.134 97.882 103.133C98.2593 103.132 98.6366 103.131 99.014 103.13C99.8055 103.128 100.597 103.126 101.389 103.126C102.402 103.125 103.415 103.12 104.429 103.114C105.208 103.111 105.988 103.11 106.768 103.11C107.141 103.109 107.515 103.107 107.888 103.105C108.411 103.101 108.934 103.102 109.458 103.103C109.611 103.101 109.765 103.1 109.923 103.098C110.862 103.105 111.495 103.249 112.313 103.759C112.827 104.413 112.774 105.102 112.704 105.907C112.468 106.436 112.283 106.766 111.81 107.102C111.105 107.358 110.408 107.33 109.668 107.328C109.499 107.329 109.331 107.33 109.158 107.331C108.603 107.334 108.047 107.333 107.492 107.333C107.106 107.334 106.719 107.335 106.333 107.336C105.524 107.337 104.714 107.337 103.904 107.336C102.867 107.335 101.83 107.338 100.793 107.343C99.9949 107.346 99.1972 107.346 98.3995 107.345C98.017 107.345 97.6346 107.346 97.2522 107.348C96.7173 107.351 96.1826 107.349 95.6478 107.347C95.49 107.349 95.3322 107.35 95.1696 107.352C94.2738 107.343 93.6841 107.253 92.977 106.688C92.4553 105.906 92.425 105.265 92.5864 104.345C93.4986 103.161 94.353 103.143 95.7567 103.141Z" fill="black"/>
<path d="M95.6312 93.7663C95.7818 93.7653 95.9324 93.7643 96.0875 93.7633C96.586 93.7605 97.0844 93.7591 97.5829 93.7581C97.9296 93.7569 98.2763 93.7558 98.6229 93.7547C99.3501 93.7526 100.077 93.7515 100.804 93.7508C101.735 93.7497 102.666 93.745 103.596 93.7395C104.313 93.7358 105.029 93.7348 105.745 93.7345C106.088 93.7339 106.431 93.7324 106.774 93.7298C107.255 93.7265 107.735 93.7268 108.216 93.7281C108.357 93.7263 108.498 93.7245 108.643 93.7227C109.553 93.7301 110.177 93.8961 110.946 94.3837C111.467 95.1654 111.499 95.8081 111.336 96.7274C110.91 97.2656 110.58 97.5938 109.969 97.8993C109.468 97.9205 108.972 97.93 108.47 97.9308C108.238 97.9322 108.238 97.9322 108.001 97.9337C107.488 97.9366 106.975 97.9379 106.462 97.939C106.106 97.9401 105.75 97.9412 105.393 97.9423C104.646 97.9444 103.898 97.9455 103.151 97.9462C102.193 97.9473 101.236 97.952 100.278 97.9575C99.542 97.9612 98.806 97.9622 98.0699 97.9625C97.7169 97.9631 97.3639 97.9646 97.0109 97.9672C96.5167 97.9705 96.0227 97.9702 95.5285 97.9689C95.3828 97.9707 95.2372 97.9725 95.0871 97.9744C94.2184 97.9674 93.6647 97.8532 92.977 97.3134C92.4553 96.5307 92.425 95.8898 92.5864 94.9696C93.4674 93.8267 94.2718 93.7683 95.6312 93.7663Z" fill="black"/>
<path d="M138.876 68.6008C141.086 69.0581 142.956 70.4533 144.261 72.2667C145.363 73.9859 146.194 75.9812 145.773 78.049C145.469 78.6557 145.31 78.9696 144.735 79.343C144.061 79.465 143.449 79.5084 142.782 79.343C141.903 78.6619 141.68 78.1315 141.525 77.0481C141.245 75.5825 140.863 74.4549 139.613 73.5645C138.744 73.0872 137.937 72.8487 136.959 72.7024C136.261 72.5916 135.938 72.5019 135.324 72.1164C134.89 71.3983 134.853 70.891 134.84 70.0656C135.357 68.1178 137.29 68.4319 138.876 68.6008Z" fill="black"/>
<path d="M119.734 103.369C120.338 103.771 120.645 104.047 120.804 104.766C120.859 105.63 120.797 105.995 120.247 106.689C119.502 107.257 119.112 107.365 118.172 107.275C117.384 106.896 117.07 106.642 116.695 105.847C116.589 104.952 116.736 104.529 117.195 103.759C117.968 103.053 118.768 103.057 119.734 103.369Z" fill="black"/>
</g>
<defs>
<clipPath id="clip0_34_1765">
<rect width="100" height="100" fill="white" transform="translate(79.5 52)"/>
</clipPath>
</defs>
</svg>
