<svg width="166" height="152" viewBox="0 0 166 152" fill="none" xmlns="http://www.w3.org/2000/svg">
<circle cx="52" cy="52" r="52" fill="#C6E8FF"/>
<path d="M30.12 51.04C30.12 46.4267 30.9467 42.8133 32.6 40.2C34.28 37.5867 37.0533 36.28 40.92 36.28C44.7867 36.28 47.5467 37.5867 49.2 40.2C50.88 42.8133 51.72 46.4267 51.72 51.04C51.72 55.68 50.88 59.32 49.2 61.96C47.5467 64.6 44.7867 65.92 40.92 65.92C37.0533 65.92 34.28 64.6 32.6 61.96C30.9467 59.32 30.12 55.68 30.12 51.04ZM46.2 51.04C46.2 49.0667 46.0667 47.4133 45.8 46.08C45.56 44.72 45.0533 43.6133 44.28 42.76C43.5333 41.9067 42.4133 41.48 40.92 41.48C39.4267 41.48 38.2933 41.9067 37.52 42.76C36.7733 43.6133 36.2667 44.72 36 46.08C35.76 47.4133 35.64 49.0667 35.64 51.04C35.64 53.0667 35.76 54.7733 36 56.16C36.24 57.52 36.7467 58.6267 37.52 59.48C38.2933 60.3067 39.4267 60.72 40.92 60.72C42.4133 60.72 43.5467 60.3067 44.32 59.48C45.0933 58.6267 45.6 57.52 45.84 56.16C46.08 54.7733 46.2 53.0667 46.2 51.04ZM56.0594 44.52C56.1927 41.8533 57.126 39.8 58.8594 38.36C60.6194 36.8933 62.926 36.16 65.7794 36.16C67.726 36.16 69.3927 36.5067 70.7794 37.2C72.166 37.8667 73.206 38.7867 73.8994 39.96C74.6194 41.1067 74.9794 42.4133 74.9794 43.88C74.9794 45.56 74.5394 46.9867 73.6594 48.16C72.806 49.3067 71.7794 50.08 70.5794 50.48V50.64C72.126 51.12 73.326 51.9733 74.1794 53.2C75.0594 54.4267 75.4994 56 75.4994 57.92C75.4994 59.52 75.126 60.9467 74.3794 62.2C73.6594 63.4533 72.5794 64.44 71.1394 65.16C69.726 65.8533 68.0194 66.2 66.0194 66.2C63.006 66.2 60.5527 65.44 58.6594 63.92C56.766 62.4 55.766 60.16 55.6594 57.2H61.0994C61.1527 58.5067 61.5927 59.56 62.4194 60.36C63.2727 61.1333 64.4327 61.52 65.8994 61.52C67.2594 61.52 68.2994 61.1467 69.0194 60.4C69.766 59.6267 70.1394 58.64 70.1394 57.44C70.1394 55.84 69.6327 54.6933 68.6194 54C67.606 53.3067 66.0327 52.96 63.8994 52.96H62.7394V48.36H63.8994C67.686 48.36 69.5794 47.0933 69.5794 44.56C69.5794 43.4133 69.2327 42.52 68.5394 41.88C67.8727 41.24 66.8994 40.92 65.6194 40.92C64.366 40.92 63.3927 41.2667 62.6994 41.96C62.0327 42.6267 61.646 43.48 61.5394 44.52H56.0594Z" fill="black"/>
<g clip-path="url(#clip0_34_1749)">
<path d="M114.077 54.5625H90.3586L88.4355 74.4343L93.5638 76.3574L96.1279 81.4856L104.461 76.3574L107.666 65.4599L114.077 54.5625Z" fill="white"/>
<path d="M93.0665 92.8797C95.3603 94.8935 97.0113 97.4226 97.2944 100.526C97.4883 103.787 97.0755 106.982 94.8302 109.538C94.2299 110.178 93.6002 110.783 92.954 111.376C93.131 111.509 93.308 111.641 93.4903 111.777C96.9485 114.402 98.7766 117.38 100.295 121.39C100.476 121.87 100.662 122.348 100.847 122.826C100.965 123.132 101.083 123.438 101.2 123.744C101.255 123.886 101.31 124.029 101.366 124.175C101.585 124.754 101.743 125.205 101.743 125.829C111.153 125.829 120.563 125.829 130.259 125.829C130.323 125.507 130.388 125.185 130.454 124.853C130.625 124.358 130.801 123.869 130.987 123.38C131.041 123.239 131.094 123.098 131.149 122.953C131.262 122.655 131.375 122.358 131.489 122.06C131.66 121.612 131.829 121.163 131.997 120.714C133.488 116.779 135.525 113.774 139.048 111.376C138.909 111.248 138.769 111.12 138.626 110.989C136.171 108.675 134.775 106.045 134.659 102.634C134.622 99.1721 135.552 96.2587 138.01 93.737C140.306 91.4955 143.098 90.3904 146.297 90.2656C149.62 90.3392 152.612 91.5273 154.999 93.8705C157.175 96.3238 158.308 99.4062 158.25 102.672C157.98 105.717 156.815 108.078 154.868 110.4C154.671 110.659 154.475 110.919 154.282 111.181C154.471 111.285 154.471 111.285 154.663 111.391C158.307 113.538 160.71 116.926 161.786 121.004C162.113 122.532 162.125 124.008 162.126 125.567C162.127 125.837 162.128 126.107 162.129 126.377C162.132 127.107 162.133 127.837 162.134 128.567C162.134 129.023 162.135 129.48 162.136 129.936C162.139 131.365 162.141 132.794 162.141 134.223C162.142 135.871 162.146 137.519 162.151 139.167C162.155 140.442 162.157 141.718 162.158 142.993C162.158 143.755 162.159 144.516 162.163 145.277C162.166 145.992 162.166 146.708 162.164 147.423C162.164 147.81 162.167 148.197 162.17 148.585C162.168 148.931 162.168 148.931 162.166 149.285C162.167 149.485 162.167 149.686 162.167 149.892C162.058 150.711 161.734 151.202 161.139 151.764C160.654 152.044 160.36 152.075 159.802 152.077C159.524 152.08 159.524 152.08 159.24 152.083C159.038 152.082 158.836 152.081 158.628 152.08C158.308 152.082 158.308 152.082 157.98 152.084C157.273 152.088 156.565 152.087 155.858 152.086C155.366 152.087 154.875 152.088 154.383 152.089C153.353 152.091 152.323 152.09 151.293 152.088C150.103 152.086 148.913 152.089 147.723 152.094C146.577 152.099 145.431 152.099 144.285 152.098C143.798 152.098 143.311 152.099 142.824 152.102C142.143 152.105 141.462 152.103 140.782 152.099C140.58 152.101 140.378 152.103 140.171 152.105C139.309 152.096 138.801 152.088 138.052 151.635C137.084 150.552 137.238 149.209 137.252 147.84C137.253 147.524 137.253 147.524 137.253 147.201C137.256 146.531 137.261 145.86 137.266 145.19C137.267 144.734 137.269 144.278 137.271 143.822C137.275 142.708 137.282 141.593 137.29 140.478C137.149 140.533 137.009 140.588 136.864 140.645C134.907 141.338 133.115 141.37 131.061 141.36C130.695 141.361 130.329 141.363 129.963 141.364C128.977 141.368 127.991 141.366 127.005 141.364C125.968 141.362 124.932 141.364 123.896 141.365C122.156 141.366 120.417 141.365 118.677 141.361C116.671 141.357 114.665 141.358 112.659 141.362C110.931 141.366 109.203 141.366 107.475 141.364C106.446 141.363 105.416 141.363 104.387 141.365C103.418 141.368 102.45 141.366 101.482 141.362C101.128 141.361 100.774 141.361 100.421 141.363C98.3669 141.372 96.647 141.239 94.7118 140.478C94.7132 140.607 94.7146 140.737 94.7161 140.871C94.7291 142.078 94.7376 143.285 94.744 144.492C94.7469 144.946 94.7509 145.401 94.756 145.856C94.7631 146.511 94.7664 147.166 94.769 147.821C94.772 148.023 94.7751 148.226 94.7782 148.434C94.7784 149.58 94.7075 150.416 94.1259 151.415C93.557 151.937 93.1871 152.075 92.4207 152.078C92.2356 152.08 92.0505 152.083 91.8598 152.085C91.6581 152.084 91.4564 152.084 91.2485 152.083C91.035 152.085 90.8215 152.086 90.6016 152.088C89.8949 152.093 89.1883 152.093 88.4816 152.093C87.9907 152.094 87.4998 152.096 87.0089 152.097C85.9795 152.1 84.95 152.1 83.9206 152.099C82.7321 152.098 81.5437 152.102 80.3553 152.109C79.2104 152.116 78.0656 152.117 76.9208 152.117C76.4344 152.117 75.948 152.119 75.4616 152.122C74.7813 152.127 74.1013 152.125 73.4209 152.121C73.22 152.124 73.0191 152.127 72.812 152.129C71.926 152.119 71.2788 152.104 70.5664 151.542C69.9082 150.808 69.8825 150.294 69.8797 149.342C69.8786 149.114 69.8774 148.886 69.8763 148.651C69.8761 148.4 69.8759 148.149 69.8756 147.891C69.8747 147.624 69.8737 147.357 69.8727 147.091C69.8701 146.365 69.8689 145.64 69.868 144.915C69.8674 144.461 69.8666 144.006 69.8658 143.552C69.8631 142.128 69.8612 140.705 69.8604 139.281C69.8596 137.643 69.8562 136.005 69.8505 134.367C69.8462 133.098 69.8443 131.829 69.844 130.56C69.8438 129.804 69.8427 129.048 69.8392 128.292C69.8359 127.578 69.8356 126.864 69.8373 126.15C69.8375 125.769 69.8348 125.387 69.832 125.005C69.8511 120.882 71.1901 116.987 74.0087 113.915C75.1581 112.864 76.3763 111.967 77.7196 111.181C77.5585 111.004 77.3973 110.826 77.2313 110.644C74.8074 107.779 73.5254 104.625 73.8134 100.829C74.3167 97.6502 75.6895 94.8437 78.2079 92.7681C82.6912 89.6718 88.6795 89.266 93.0665 92.8797ZM80.4471 96.9009C79.0122 98.4516 78.1827 100.349 78.2453 102.48C78.5189 104.741 79.4362 106.49 81.1986 107.922C82.8578 109.07 84.7 109.612 86.7131 109.344C89.1573 108.823 90.7175 107.432 92.1079 105.415C92.9832 103.787 93.014 101.799 92.6244 100.021C91.8801 97.7976 90.5177 96.4284 88.4549 95.3476C85.7079 94.1799 82.6039 94.9014 80.4471 96.9009ZM141.257 96.9841C139.682 98.8151 139.144 100.393 139.182 102.823C139.323 104.53 139.987 106.053 141.196 107.275C142.906 108.7 144.614 109.468 146.86 109.423C149.002 109.138 150.851 108.237 152.224 106.548C153.316 104.927 153.897 103.172 153.696 101.22C153.238 98.989 152.294 97.3081 150.406 96.0014C147.204 94.0988 144.021 94.6063 141.257 96.9841ZM78.3055 116.259C78.1429 116.381 77.9803 116.504 77.8127 116.63C75.8446 118.3 74.7667 120.786 74.3993 123.29C74.3483 124.112 74.3497 124.93 74.3549 125.753C74.3549 125.991 74.3548 126.23 74.3548 126.476C74.355 127.123 74.3569 127.771 74.3597 128.418C74.3621 129.097 74.3624 129.776 74.3628 130.455C74.364 131.738 74.3672 133.021 74.3712 134.304C74.376 135.91 74.3781 137.516 74.3802 139.121C74.384 141.982 74.3918 144.843 74.3993 147.704C79.62 147.704 84.8407 147.704 90.2196 147.704C90.2518 145.9 90.2841 144.095 90.3173 142.236C90.3386 141.385 90.3386 141.385 90.3604 140.517C90.3649 140.065 90.3689 139.612 90.3722 139.159C90.3802 138.927 90.3882 138.695 90.3964 138.455C90.4068 137.189 90.4068 137.189 89.8682 136.077C89.4813 135.693 89.0799 135.353 88.6571 135.009C88.318 134.331 88.3442 133.6 88.4618 132.861C88.8879 132.322 89.218 131.994 89.829 131.689C90.7018 131.595 91.3654 131.73 92.0888 132.234C92.8678 132.926 93.5679 133.661 94.2357 134.46C95.3033 135.721 96.7223 136.674 98.4004 136.814C98.5955 136.813 98.7907 136.812 98.9918 136.811C99.2146 136.811 99.4374 136.811 99.6669 136.811C99.9044 136.809 100.142 136.807 100.387 136.805C100.755 136.804 100.755 136.804 101.13 136.803C101.78 136.801 102.429 136.798 103.078 136.794C103.742 136.79 104.406 136.788 105.069 136.786C106.37 136.782 107.67 136.775 108.97 136.767C108.907 136.551 108.845 136.335 108.78 136.113C108.214 134.104 108.463 132.321 108.97 130.321C108.852 130.321 108.734 130.32 108.613 130.319C107.387 130.311 106.161 130.298 104.934 130.281C104.477 130.275 104.019 130.271 103.562 130.269C102.904 130.264 102.246 130.255 101.588 130.245C101.384 130.245 101.18 130.245 100.969 130.244C100.165 130.228 99.5576 130.201 98.8257 129.854C98.2173 129.085 97.9276 128.247 97.5995 127.329C97.5256 127.131 97.4518 126.933 97.3757 126.729C97.14 126.097 96.9082 125.463 96.6771 124.828C96.4464 124.198 96.2147 123.569 95.9807 122.94C95.8354 122.549 95.692 122.158 95.5508 121.766C94.4504 118.798 92.6848 116.365 89.829 114.892C85.8648 113.201 81.7138 113.489 78.3055 116.259ZM138.657 117.626C137.356 119.345 136.646 121.268 135.898 123.266C135.781 123.573 135.664 123.881 135.547 124.188C135.431 124.491 135.316 124.793 135.201 125.095C135.145 125.242 135.089 125.389 135.032 125.54C134.776 126.213 134.526 126.886 134.289 127.565C134.208 127.79 134.127 128.016 134.044 128.248C133.977 128.442 133.91 128.637 133.841 128.838C133.501 129.496 133.253 129.76 132.602 130.126C131.93 130.241 131.266 130.244 130.584 130.245C130.391 130.248 130.197 130.252 129.997 130.255C129.381 130.264 128.764 130.269 128.147 130.273C127.728 130.278 127.309 130.284 126.89 130.29C125.864 130.305 124.839 130.313 123.813 130.321C123.813 132.448 123.813 134.575 123.813 136.767C125.256 136.785 126.697 136.8 128.139 136.81C128.63 136.814 129.12 136.819 129.61 136.826C130.316 136.835 131.022 136.84 131.729 136.843C132.055 136.849 132.055 136.849 132.388 136.855C134.577 136.856 136.079 136.079 137.681 134.618C138.141 134.13 138.585 133.632 139.02 133.121C139.866 132.199 140.495 131.748 141.739 131.654C142.43 131.709 142.834 132.024 143.345 132.47C143.692 133.164 143.691 133.864 143.54 134.618C143.153 135.215 142.689 135.694 142.173 136.181C141.736 136.535 141.736 136.535 141.735 137.041C141.736 137.238 141.737 137.435 141.738 137.638C141.738 137.977 141.738 137.977 141.738 138.323C141.74 138.561 141.742 138.799 141.744 139.045C141.744 139.263 141.745 139.482 141.745 139.707C141.747 140.525 141.753 141.344 141.758 142.162C141.766 143.991 141.774 145.82 141.782 147.704C147.003 147.704 152.224 147.704 157.602 147.704C157.62 143.212 157.62 143.212 157.632 138.72C157.635 137.112 157.639 135.505 157.647 133.898C157.652 132.625 157.656 131.352 157.658 130.079C157.658 129.406 157.66 128.733 157.664 128.059C157.669 127.305 157.669 126.551 157.669 125.797C157.671 125.578 157.673 125.358 157.675 125.131C157.665 122.34 156.82 119.24 154.836 117.166C152.014 114.638 149.271 113.737 145.566 113.88C142.895 114.082 140.406 115.66 138.657 117.626ZM113.266 131.884C112.684 132.757 112.757 133.595 112.876 134.618C113.355 135.595 114.047 136.278 115.024 136.767C115.35 136.783 115.676 136.788 116.002 136.786C116.176 136.785 116.349 136.785 116.528 136.784C116.749 136.783 116.97 136.781 117.197 136.779C117.898 136.775 118.599 136.771 119.321 136.767C119.321 134.64 119.321 132.513 119.321 130.321C118.445 130.303 118.445 130.303 117.551 130.285C117.279 130.277 117.279 130.277 117.002 130.269C115.388 130.253 114.361 130.634 113.266 131.884Z" fill="black"/>
<path d="M91.6655 51.9682C91.9875 51.9652 91.9875 51.9652 92.3159 51.9622C92.5505 51.9611 92.7851 51.9599 93.0267 51.9588C93.2746 51.9569 93.5224 51.9549 93.7777 51.953C94.5992 51.9469 95.4207 51.9429 96.2422 51.9393C96.3822 51.9386 96.5223 51.938 96.6667 51.9373C97.9897 51.9313 99.3127 51.9261 100.636 51.9228C102.323 51.9185 104.011 51.9103 105.698 51.8967C106.887 51.8875 108.076 51.8827 109.265 51.8813C109.974 51.8804 110.683 51.8775 111.391 51.8697C112.184 51.861 112.977 51.8619 113.77 51.8634C114.001 51.8595 114.232 51.8556 114.471 51.8516C116.441 51.8686 118.109 52.4751 119.515 53.8916C120.724 55.4738 120.929 56.9699 120.901 58.9118C120.9 59.0926 120.898 59.2734 120.897 59.4597C120.893 59.9027 120.888 60.3456 120.882 60.7886C121.103 60.7869 121.324 60.7851 121.551 60.7833C123.637 60.7675 125.723 60.7558 127.809 60.7481C128.882 60.7441 129.954 60.7385 131.026 60.7297C132.062 60.7211 133.098 60.7165 134.134 60.7145C134.528 60.713 134.922 60.7102 135.317 60.706C137.909 60.6793 140.03 60.6744 142.023 62.5464C143.255 63.9477 143.567 65.2952 143.573 67.1147C143.574 67.2796 143.575 67.4445 143.577 67.6144C143.581 68.1597 143.583 68.705 143.585 69.2504C143.586 69.4371 143.586 69.6238 143.587 69.8162C143.591 70.8047 143.594 71.7932 143.596 72.7818C143.598 73.8001 143.605 74.8184 143.613 75.8368C143.618 76.6221 143.619 77.4075 143.62 78.1929C143.621 78.5681 143.623 78.9433 143.627 79.3186C143.632 79.8453 143.631 80.3719 143.63 80.8987C143.634 81.1284 143.634 81.1284 143.638 81.3628C143.622 83.0625 142.909 84.4074 141.765 85.6345C140.36 86.9428 138.831 87.4181 136.917 87.3892C136.776 87.3887 136.634 87.3881 136.489 87.3876C136.043 87.3854 135.598 87.3805 135.152 87.3755C134.848 87.3736 134.543 87.3718 134.239 87.3702C133.498 87.3659 132.756 87.3592 132.015 87.3511C132.018 87.488 132.021 87.6249 132.024 87.7659C132.036 88.3885 132.044 89.0111 132.051 89.6338C132.056 89.8492 132.061 90.0646 132.066 90.2865C132.069 90.599 132.069 90.599 132.072 90.9178C132.077 91.2047 132.077 91.2047 132.081 91.4974C131.979 92.3341 131.639 92.8456 130.989 93.3692C130.303 93.6658 129.827 93.6806 129.085 93.6011C128.203 93.1554 127.501 92.5179 126.766 91.8677C126.507 91.6411 126.249 91.4145 125.99 91.1879C125.791 91.0129 125.791 91.0129 125.588 90.8344C124.788 90.1335 123.982 89.4402 123.177 88.7455C122.726 88.3555 122.28 87.968 121.859 87.5464C121.282 87.5078 120.721 87.4923 120.144 87.493C119.79 87.489 119.437 87.485 119.083 87.4808C118.526 87.4764 117.969 87.4732 117.413 87.472C114.867 87.4631 112.566 87.4335 110.489 85.7581C109.368 84.6029 108.744 83.2909 108.754 81.6901C108.755 81.4163 108.755 81.4163 108.756 81.137C108.758 80.8533 108.758 80.8533 108.76 80.564C108.761 80.3719 108.762 80.1798 108.763 79.9819C108.765 79.5086 108.769 79.0353 108.773 78.562C105.032 78.2426 105.032 78.2426 101.702 79.5203C101.32 79.9303 100.963 80.3524 100.623 80.7978C100.225 81.2824 99.7441 81.6453 99.2512 82.0288C98.4235 82.6922 97.6317 83.383 96.8533 84.1033C96.2441 84.6063 95.8163 84.7976 95.0276 84.8853C94.1842 84.798 93.7935 84.5715 93.1477 84.0308C92.7386 83.3979 92.711 82.8928 92.7189 82.1479C92.7202 81.9389 92.7214 81.7299 92.7227 81.5146C92.726 81.2976 92.7293 81.0806 92.7326 80.857C92.7344 80.6369 92.7362 80.4169 92.738 80.1901C92.7426 79.6474 92.749 79.1047 92.757 78.562C92.5511 78.5666 92.3451 78.5711 92.133 78.5758C90.4517 78.5447 88.9383 77.9191 87.6789 76.8042C86.3055 75.1367 85.8914 73.5133 85.8927 71.3764C85.8921 71.2286 85.8914 71.0807 85.8907 70.9284C85.8889 70.4423 85.8885 69.9562 85.8883 69.4701C85.8877 69.13 85.887 68.79 85.8863 68.4499C85.8852 67.7379 85.8848 67.0259 85.8849 66.3139C85.8849 65.405 85.8823 64.4961 85.8789 63.5873C85.8767 62.885 85.8763 62.1828 85.8764 61.4805C85.8762 61.1456 85.8754 60.8107 85.8738 60.4758C85.8629 57.819 85.9402 55.7147 87.74 53.6231C88.9766 52.559 90.0217 51.98 91.6655 51.9682ZM90.8527 56.9678C90.3028 57.6552 90.3832 58.4392 90.3818 59.2725C90.3809 59.4158 90.3799 59.5591 90.3789 59.7068C90.376 60.1808 90.3747 60.6548 90.3736 61.1289C90.3725 61.4585 90.3714 61.7881 90.3702 62.1177C90.3682 62.809 90.3671 63.5002 90.3664 64.1914C90.3653 65.0765 90.3606 65.9616 90.3551 66.8467C90.3514 67.5276 90.3504 68.2085 90.3501 68.8895C90.3495 69.2158 90.3479 69.542 90.3454 69.8683C90.342 70.3251 90.3424 70.7817 90.3437 71.2385C90.3419 71.3729 90.3401 71.5072 90.3382 71.6457C90.3455 72.4864 90.4916 73.0071 90.9992 73.6792C91.5692 74.0705 92.0374 74.1183 92.7197 74.1233C92.8978 74.1273 93.0759 74.1313 93.2594 74.1355C93.6317 74.1405 94.0041 74.1441 94.3764 74.1461C95.7457 74.1809 95.7457 74.1809 96.4871 74.639C97.0614 75.2688 97.0957 75.6997 97.1638 76.5357C97.1801 76.7315 97.1965 76.9274 97.2134 77.1292C97.2252 77.2798 97.237 77.4304 97.2492 77.5855C98.4158 76.7632 99.4644 75.837 100.507 74.8656C101.299 74.1575 101.993 74.2241 103.012 74.2034C103.177 74.1993 103.341 74.1952 103.51 74.1911C104.035 74.1783 104.561 74.1668 105.086 74.1553C105.442 74.1469 105.798 74.1383 106.153 74.1297C107.027 74.1088 107.9 74.089 108.773 74.0698C108.774 73.8128 108.776 73.5558 108.778 73.2909C108.786 72.331 108.799 71.3712 108.813 70.4113C108.819 69.9971 108.823 69.5828 108.826 69.1685C108.83 68.5706 108.839 67.9729 108.849 67.3751C108.849 67.1919 108.849 67.0087 108.85 66.82C108.889 65.043 109.484 63.6055 110.709 62.3107C112.377 60.8773 114.298 60.8175 116.39 60.7886C116.416 60.2552 116.436 59.7232 116.451 59.1895C116.459 59.0393 116.467 58.8891 116.476 58.7344C116.494 57.8936 116.47 57.5711 115.934 56.8846C115.239 56.3602 114.75 56.272 113.903 56.2703C113.713 56.2695 113.523 56.2686 113.328 56.2678C113.119 56.2679 112.911 56.2679 112.697 56.268C112.477 56.2674 112.258 56.2667 112.031 56.2661C111.304 56.2642 110.576 56.2638 109.848 56.2636C109.344 56.263 108.839 56.2623 108.334 56.2616C107.275 56.2605 106.216 56.2601 105.157 56.2602C103.934 56.2603 102.71 56.2583 101.487 56.2552C100.309 56.2523 99.1319 56.2516 97.9544 56.2517C97.4537 56.2515 96.953 56.2506 96.4523 56.2491C95.7523 56.2472 95.0524 56.2478 94.3524 56.249C94.145 56.2479 93.9376 56.2468 93.7239 56.2456C93.5328 56.2465 93.3416 56.2473 93.1447 56.2481C92.9793 56.248 92.8139 56.2479 92.6435 56.2478C91.9495 56.3192 91.3926 56.5244 90.8527 56.9678ZM113.618 65.5824C113.135 66.2384 113.129 66.8057 113.142 67.5906C113.14 67.7437 113.139 67.8969 113.137 68.0547C113.134 68.5604 113.138 69.0658 113.142 69.5716C113.142 69.9233 113.141 70.275 113.141 70.6267C113.14 71.3636 113.143 72.1003 113.148 72.8372C113.155 73.7817 113.154 74.726 113.15 75.6705C113.148 76.3967 113.15 77.1229 113.153 77.849C113.154 78.1973 113.154 78.5455 113.152 78.8938C113.151 79.3806 113.155 79.867 113.161 80.3538C113.159 80.4977 113.158 80.6416 113.157 80.7898C113.169 81.4645 113.215 81.8187 113.638 82.3563C114.225 82.7984 114.546 82.8834 115.269 82.8866C115.441 82.888 115.614 82.8894 115.791 82.8908C115.978 82.8916 116.164 82.8924 116.356 82.8932C116.75 82.8978 117.144 82.9025 117.538 82.9074C118.16 82.9142 118.782 82.9199 119.404 82.9226C120.003 82.9256 120.603 82.9335 121.202 82.9421C121.387 82.9417 121.572 82.9413 121.763 82.9409C122.875 82.9615 123.515 83.0974 124.398 83.8355C124.529 83.9417 124.661 84.0478 124.797 84.1572C124.912 84.2595 125.027 84.3618 125.146 84.4672C125.274 84.5792 125.401 84.6913 125.533 84.8067C125.662 84.9212 125.791 85.0358 125.924 85.1538C126.185 85.3852 126.447 85.6161 126.709 85.8466C126.823 85.948 126.937 86.0494 127.055 86.1539C127.294 86.395 127.294 86.395 127.523 86.3745C127.528 86.2471 127.533 86.1197 127.538 85.9885C127.612 84.8425 127.737 84.124 128.499 83.2495C129.046 83.0673 129.375 83.03 129.94 83.0296C130.198 83.0285 130.198 83.0285 130.462 83.0274C130.74 83.0271 130.74 83.0271 131.024 83.0268C131.417 83.0232 131.81 83.0194 132.204 83.0153C132.823 83.0097 133.443 83.0054 134.063 83.0053C134.661 83.0046 135.259 82.9979 135.858 82.9901C136.042 82.9915 136.227 82.9929 136.416 82.9943C136.677 82.9895 136.677 82.9895 136.944 82.9846C137.095 82.9839 137.247 82.9832 137.404 82.9824C138.105 82.7982 138.607 82.4492 139.046 81.8823C139.164 81.318 139.205 80.9156 139.195 80.3527C139.196 80.2017 139.198 80.0507 139.2 79.8952C139.204 79.3977 139.2 78.9008 139.195 78.4033C139.195 78.0568 139.196 77.7102 139.197 77.3636C139.198 76.6379 139.194 75.9123 139.188 75.1866C139.18 74.2572 139.182 73.3281 139.187 72.3987C139.19 71.6832 139.188 70.9678 139.184 70.2523C139.183 69.9097 139.183 69.5671 139.185 69.2244C139.187 68.7451 139.182 68.2663 139.176 67.787C139.177 67.646 139.179 67.5049 139.181 67.3596C139.165 66.676 139.051 66.2656 138.692 65.6812C137.749 65.0744 136.887 65.146 135.787 65.1575C135.556 65.1561 135.325 65.1547 135.087 65.1533C134.455 65.1506 133.823 65.1522 133.191 65.156C132.529 65.1592 131.867 65.1575 131.205 65.1565C130.093 65.1556 128.981 65.1587 127.869 65.1642C126.585 65.1705 125.3 65.1705 124.016 65.1671C122.779 65.164 121.542 65.1653 120.305 65.1686C119.779 65.17 119.253 65.1698 118.728 65.1683C117.993 65.1673 117.259 65.1712 116.524 65.1766C116.306 65.1753 116.089 65.174 115.864 65.1727C115.007 65.1834 114.396 65.2059 113.618 65.5824Z" fill="black"/>
<path d="M91.6655 51.9682C91.9875 51.9652 91.9875 51.9652 92.3159 51.9622C92.5505 51.9611 92.7851 51.9599 93.0267 51.9588C93.2746 51.9569 93.5224 51.9549 93.7777 51.953C94.5992 51.9469 95.4207 51.9429 96.2422 51.9393C96.3822 51.9386 96.5223 51.938 96.6667 51.9373C97.9897 51.9313 99.3127 51.9261 100.636 51.9228C102.323 51.9185 104.011 51.9103 105.698 51.8967C106.887 51.8875 108.076 51.8827 109.265 51.8813C109.974 51.8804 110.683 51.8775 111.391 51.8697C112.184 51.861 112.977 51.8619 113.77 51.8634C114.001 51.8595 114.232 51.8556 114.471 51.8516C116.441 51.8686 118.109 52.4751 119.515 53.8916C121.145 56.0237 120.951 58.2193 120.882 60.7886C119.4 60.7886 117.917 60.7886 116.39 60.7886C116.341 59.1773 116.341 59.1773 116.332 58.6735C116.299 57.9543 116.272 57.5724 115.831 56.9831C115.187 56.5269 114.671 56.4671 113.903 56.4656C113.713 56.4648 113.523 56.4639 113.328 56.4631C113.015 56.4632 113.015 56.4632 112.697 56.4634C112.477 56.4627 112.258 56.462 112.031 56.4614C111.304 56.4595 110.576 56.4591 109.848 56.4589C109.344 56.4583 108.839 56.4576 108.334 56.4569C107.275 56.4558 106.216 56.4554 105.157 56.4555C103.934 56.4557 102.71 56.4536 101.487 56.4505C100.309 56.4476 99.1319 56.4469 97.9544 56.4471C97.4537 56.4468 96.953 56.446 96.4523 56.4445C95.7523 56.4425 95.0524 56.4431 94.3524 56.4443C94.145 56.4432 93.9376 56.4421 93.7239 56.441C93.5328 56.4418 93.3416 56.4426 93.1447 56.4434C92.9793 56.4433 92.8139 56.4432 92.6435 56.4431C91.8726 56.5224 91.3433 56.7029 90.8451 57.3037C90.5538 57.9876 90.5278 58.5898 90.5359 59.32C90.5352 59.4637 90.5345 59.6073 90.5337 59.7553C90.5321 60.2282 90.5348 60.701 90.5377 61.1739C90.5378 61.5034 90.5377 61.833 90.5374 62.1625C90.5374 62.8522 90.5394 63.5419 90.5429 64.2316C90.5474 65.1154 90.5475 65.9991 90.5462 66.8829C90.5455 67.563 90.5468 68.2431 90.5487 68.9232C90.5495 69.2491 90.5497 69.575 90.5494 69.9009C90.5493 70.3563 90.5518 70.8115 90.555 71.2669C90.5545 71.4013 90.554 71.5358 90.5535 71.6743C90.5613 72.3725 90.6021 72.8982 90.9992 73.4839C91.57 73.8698 92.0332 73.9214 92.7128 73.9211C92.89 73.9242 93.0673 73.9274 93.2499 73.9306C93.6197 73.9339 93.9894 73.9349 94.3592 73.9337C95.2433 73.9531 95.882 73.9699 96.5855 74.5421C97.2019 75.2058 97.28 75.5563 97.3591 76.438C97.3755 76.6158 97.3918 76.7935 97.4087 76.9767C97.4205 77.1131 97.4324 77.2496 97.4445 77.3902C97.6711 77.1779 97.6711 77.1779 97.9023 76.9614C98.1078 76.7706 98.3132 76.5799 98.5188 76.3892C98.6175 76.2965 98.7161 76.2039 98.8178 76.1084C99.0268 75.9152 99.2392 75.7257 99.4545 75.5396C99.7938 75.2483 99.7938 75.2483 100.082 74.9111C101.12 73.8925 102.249 73.951 103.622 73.9579C104.135 73.967 104.647 73.9817 105.159 73.9966C105.51 74.0025 105.86 74.0078 106.211 74.0126C107.065 74.0245 107.918 74.0474 108.773 74.0699C108.773 75.5523 108.773 77.0347 108.773 78.562C108.379 78.5489 107.986 78.5359 107.58 78.5224C104.45 78.3392 104.45 78.3392 101.702 79.5203C101.32 79.9303 100.963 80.3524 100.623 80.7978C100.225 81.2824 99.7441 81.6453 99.2512 82.0288C98.4235 82.6922 97.6317 83.383 96.8533 84.1033C96.2441 84.6063 95.8163 84.7976 95.0276 84.8853C94.1842 84.798 93.7935 84.5715 93.1477 84.0308C92.7386 83.3979 92.711 82.8928 92.7189 82.1479C92.7202 81.9389 92.7214 81.7299 92.7227 81.5146C92.726 81.2976 92.7293 81.0806 92.7326 80.857C92.7344 80.6369 92.7362 80.4169 92.738 80.1902C92.7426 79.6474 92.749 79.1047 92.757 78.562C92.5511 78.5666 92.3451 78.5711 92.133 78.5758C90.4517 78.5447 88.9383 77.9191 87.6789 76.8042C86.3055 75.1367 85.8914 73.5133 85.8927 71.3764C85.8921 71.2286 85.8914 71.0808 85.8907 70.9284C85.8889 70.4423 85.8885 69.9562 85.8883 69.4701C85.8877 69.13 85.887 68.79 85.8863 68.4499C85.8852 67.7379 85.8848 67.0259 85.8849 66.3139C85.8849 65.405 85.8823 64.4961 85.8789 63.5873C85.8767 62.885 85.8763 62.1828 85.8764 61.4805C85.8762 61.1456 85.8754 60.8107 85.8738 60.4758C85.8629 57.819 85.9402 55.7147 87.74 53.6231C88.9766 52.559 90.0217 51.98 91.6655 51.9682Z" fill="black"/>
<path d="M131.038 69.3815C131.743 69.8013 132.097 70.1932 132.405 70.944C132.479 71.7135 132.386 72.4197 131.973 73.0807C131.652 73.4565 131.314 73.7992 130.957 74.1415C130.831 74.2681 130.704 74.3948 130.574 74.5252C130.307 74.7908 130.038 75.0545 129.767 75.3164C129.354 75.7162 128.949 76.1223 128.544 76.5299C128.283 76.788 128.021 77.0458 127.759 77.3031C127.638 77.4237 127.518 77.5444 127.394 77.6687C126.621 78.4082 126.043 78.7649 124.983 78.9518C123.808 78.7768 123.076 77.9865 122.249 77.194C122.094 77.0467 121.939 76.8994 121.779 76.7477C119.961 74.9798 119.961 74.9798 119.832 73.776C119.928 72.8764 120.215 72.4237 120.809 71.7619C121.551 71.3906 122.222 71.3362 123.03 71.5299C123.485 71.8513 123.854 72.194 124.236 72.5981C124.615 72.9808 124.615 72.9808 125.374 72.8971C125.733 72.6395 125.733 72.6395 126.057 72.2769C126.182 72.1473 126.307 72.0178 126.436 71.8843C126.565 71.7472 126.694 71.6102 126.827 71.4689C129.111 69.0632 129.111 69.0632 131.038 69.3815Z" fill="black"/>
<path d="M127.914 109.423C128.679 109.749 128.963 110.039 129.281 110.791C129.472 111.628 129.401 112.306 129.021 113.078C128.66 113.65 128.276 114.198 127.878 114.746C127.68 115.029 127.68 115.029 127.479 115.318C125.895 117.562 125.895 117.562 124.985 118.017C123.654 118.15 123.654 118.15 123.066 117.813C122.522 117.365 122.11 116.999 121.998 116.289C121.927 114.949 122.367 114.197 123.141 113.134C123.248 112.982 123.355 112.829 123.465 112.671C123.772 112.236 124.084 111.806 124.399 111.377C124.546 111.175 124.693 110.973 124.845 110.765C125.791 109.515 126.334 109.27 127.914 109.423Z" fill="black"/>
<path d="M105.843 109.421C106.993 110.237 107.665 111.33 108.443 112.485C108.588 112.691 108.732 112.896 108.881 113.108C109.716 114.345 110.184 115.147 109.944 116.648C109.6 117.244 109.203 117.702 108.577 118.015C107.502 118.086 106.923 118.102 106.038 117.429C105.646 116.957 105.311 116.453 104.976 115.94C104.788 115.656 104.6 115.373 104.412 115.089C104.322 114.953 104.233 114.817 104.14 114.677C103.933 114.368 103.713 114.068 103.49 113.769C102.839 112.897 102.591 112.286 102.639 111.188C102.772 110.517 102.99 110.108 103.511 109.666C104.283 109.337 105.018 109.242 105.843 109.421Z" fill="black"/>
<path d="M116.781 106.101C117.481 106.421 117.717 106.627 118.148 107.273C118.191 107.8 118.212 108.307 118.214 108.834C118.215 108.987 118.216 109.14 118.218 109.298C118.22 109.621 118.22 109.945 118.22 110.268C118.221 110.761 118.228 111.255 118.236 111.748C118.237 112.063 118.238 112.377 118.238 112.692C118.241 112.839 118.244 112.986 118.247 113.137C118.238 114.107 118.056 114.599 117.367 115.281C116.728 115.728 116.181 115.764 115.414 115.672C114.699 115.273 114.306 114.987 113.851 114.305C113.806 113.778 113.782 113.271 113.779 112.744C113.777 112.591 113.775 112.438 113.773 112.28C113.77 111.957 113.769 111.633 113.768 111.31C113.766 110.816 113.756 110.323 113.746 109.83C113.744 109.515 113.743 109.201 113.742 108.886C113.738 108.739 113.734 108.592 113.73 108.441C113.737 107.654 113.818 107.315 114.322 106.696C115.126 106.061 115.773 105.991 116.781 106.101Z" fill="black"/>
</g>
<defs>
<clipPath id="clip0_34_1749">
<rect width="100" height="100" fill="white" transform="translate(66 52)"/>
</clipPath>
</defs>
</svg>
