<svg width="50" height="50" viewBox="0 0 50 50" fill="none" xmlns="http://www.w3.org/2000/svg">
<path d="M14.5773 0.681641C13.4933 0.837891 12.507 1.58984 12.0284 2.61523L11.7648 3.17188L11.7355 6.16992L11.7062 9.17773H9.87024C7.79016 9.17773 7.4093 9.25586 6.73547 9.83203C6.5011 10.0371 6.2179 10.418 6.09094 10.6816C5.85657 11.1797 5.85657 11.1992 5.85657 14.9492V18.709L6.11047 19.2168C6.60852 20.2324 7.33118 20.5938 8.9425 20.6719L10.0558 20.7305L10.8859 22.1562L11.7159 23.582L11.6964 24.4512L11.6671 25.3105L11.0909 25.4961C9.97766 25.8379 9.13782 26.5898 8.61047 27.7031C8.3761 28.2109 8.3468 28.3867 8.3468 29.2949C8.3468 30.2422 8.36633 30.3691 8.6593 30.9746C8.83508 31.3555 9.16711 31.834 9.44055 32.1074L9.9093 32.5762L9.07922 32.9766C8.62024 33.2012 7.99524 33.582 7.6925 33.8262C6.10071 35.0957 4.97766 37.3027 4.97766 39.168C4.97766 40.1836 4.81165 40.1348 8.56165 40.1348H11.7062L11.7355 43.5723C11.7648 46.8926 11.7745 47.0391 11.9796 47.4883C12.2823 48.1426 13.0831 48.9531 13.6984 49.2266L14.2062 49.4609H25.046H35.8859L36.4425 49.1875C37.1359 48.8457 37.8097 48.1133 38.0734 47.4004C38.2687 46.9023 38.2784 46.6582 38.2784 43.5039V40.1348H41.5011C44.5968 40.1348 44.7335 40.125 44.9191 39.9395C45.1632 39.6953 45.173 39.1484 44.9581 38.1035C44.4991 35.8379 43.0831 34.0215 40.964 32.957L40.1437 32.5469L40.5734 32.127C41.1398 31.5801 41.5597 30.7695 41.7062 29.9492C42.0675 27.9668 40.7589 25.9453 38.7667 25.4277L38.3273 25.3203V24.4512V23.582L39.1573 22.1562L39.9874 20.7305L41.0616 20.6719C41.6573 20.6426 42.3019 20.5645 42.507 20.4961C42.9952 20.3301 43.6984 19.7148 43.9718 19.1973C44.1769 18.8066 44.1866 18.6992 44.2159 15.0273L44.2452 11.2578L43.923 10.6328C43.5714 9.95898 42.9855 9.4707 42.3019 9.27539C42.1066 9.22656 41.1202 9.17773 40.1144 9.17773H38.2882L38.2589 6.07227C38.2296 3.03516 38.2296 2.9668 37.9952 2.53711C37.4777 1.53125 36.5499 0.867188 35.4366 0.681641C34.7042 0.564453 15.3781 0.564453 14.5773 0.681641ZM35.8859 1.94141C36.3839 2.16602 36.9698 2.81055 37.0968 3.28906C37.1652 3.51367 37.2042 4.77344 37.2042 6.41406V9.17773H35.3683C33.2589 9.17773 32.8781 9.25586 32.1945 9.86133C31.9503 10.0859 31.6671 10.4668 31.5304 10.7598C31.296 11.2773 31.296 11.2871 31.296 14.9395C31.296 18.4453 31.3058 18.6211 31.5011 19.041C31.8038 19.6953 32.1652 20.0762 32.7706 20.3691C33.2296 20.5938 33.464 20.6328 34.421 20.6816L35.5441 20.7305L36.3741 22.1562L37.2042 23.582L37.1847 24.4512L37.1554 25.3105L36.5988 25.4863C35.4562 25.8379 34.6359 26.5703 34.1085 27.6934C33.8644 28.2109 33.8351 28.377 33.8351 29.2949C33.8351 30.2422 33.8546 30.3691 34.1476 30.9746C34.3234 31.3555 34.6554 31.834 34.9288 32.1074L35.3976 32.5762L34.5675 32.9766C33.5421 33.4844 32.7804 34.0801 32.087 34.9199C31.1105 36.1113 30.4659 37.791 30.4659 39.168C30.4659 40.1836 30.2999 40.1348 34.0499 40.1348H37.2042V43.377C37.2042 46.4434 37.1847 46.6582 36.9991 47.0684C36.755 47.6152 36.4816 47.9082 35.9835 48.1719L35.5929 48.3867L25.339 48.416C18.132 48.4355 14.9386 48.416 14.587 48.3379C13.9913 48.2109 13.3761 47.7227 13.0538 47.127C12.8488 46.7363 12.839 46.6094 12.8097 43.4355L12.7706 40.1348H16.0031C19.1085 40.1348 19.2452 40.125 19.4308 39.9395C19.6749 39.6953 19.6847 39.1484 19.4698 38.1035C19.0011 35.8086 17.6046 34.0215 15.4562 32.9473L14.6554 32.5469L15.1339 32.0781C17.2823 29.959 16.2277 26.1895 13.2784 25.4277L12.839 25.3203V24.4512V23.582L13.6691 22.1562L14.4991 20.7305L15.6222 20.6719C16.3253 20.6426 16.882 20.5645 17.1163 20.4668C17.6046 20.252 18.2296 19.6855 18.4835 19.1973C18.6886 18.8066 18.6984 18.6797 18.7277 15.1348C18.7472 12.6543 18.7179 11.3457 18.6495 11.082C18.4835 10.4766 17.9659 9.85156 17.3702 9.51953L16.8429 9.22656L14.8214 9.19727L12.7902 9.16797V6.70703C12.7902 5.34961 12.839 3.98242 12.8878 3.66016C13.0148 2.88867 13.3761 2.38086 14.0499 2.0293L14.5675 1.75586H25.0363C34.9386 1.75586 35.5148 1.76562 35.8859 1.94141ZM16.9113 10.5254C17.1261 10.6523 17.3507 10.916 17.4777 11.1797C17.673 11.5898 17.6827 11.707 17.6534 15.0664C17.6241 18.416 17.6144 18.5527 17.4191 18.8164C16.9601 19.4414 16.6964 19.5293 15.3195 19.5293C14.2257 19.5293 14.0402 19.5488 13.8839 19.7051C13.7765 19.8125 13.3956 20.4277 13.0245 21.0723C12.6534 21.7266 12.3214 22.2637 12.2921 22.2637C12.2531 22.2637 11.9113 21.7168 11.5206 21.043C11.1398 20.3691 10.7491 19.7539 10.671 19.6758C10.5636 19.5586 10.2511 19.5293 9.30383 19.5293C7.88782 19.5293 7.49719 19.3926 7.13586 18.748C6.94055 18.3965 6.93079 18.2598 6.93079 14.9492C6.93079 11.3164 6.95032 11.1016 7.39954 10.7109C7.87805 10.2812 8.13196 10.2617 12.4484 10.2812C16.5304 10.3008 16.5499 10.3008 16.9113 10.5254ZM42.38 10.5156C42.5656 10.6328 42.8097 10.877 42.9171 11.0527C43.1027 11.3555 43.1124 11.5508 43.1124 14.9492V18.5234L42.839 18.875C42.3995 19.4512 42.1554 19.5293 40.8175 19.5293C40.1632 19.5293 39.5577 19.5684 39.4601 19.627C39.3624 19.6758 38.9523 20.291 38.5616 20.9941C38.1613 21.6875 37.8097 22.2637 37.7706 22.2637C37.7413 22.2637 37.4191 21.7461 37.0577 21.1113C36.0909 19.4316 36.2277 19.5293 34.7823 19.5293C33.7081 19.5293 33.5226 19.5 33.1808 19.3145C32.4288 18.8848 32.4191 18.8262 32.4191 14.9395C32.4191 11.3164 32.4386 11.1016 32.8878 10.7109C33.3663 10.2812 33.6202 10.2617 37.9366 10.2812C41.9601 10.3008 42.048 10.3008 42.38 10.5156ZM13.4835 26.668C14.0402 26.9121 14.6847 27.5664 14.9581 28.1914C15.2316 28.7969 15.2218 29.8027 14.9386 30.4375C14.1183 32.3125 11.6769 32.7715 10.2218 31.3164C9.26477 30.3594 9.11829 28.8359 9.88 27.6836C10.632 26.541 12.1749 26.1113 13.4835 26.668ZM38.9718 26.668C39.5187 26.9023 40.1632 27.5566 40.4366 28.1523C40.7101 28.7676 40.6906 29.8809 40.3878 30.5156C39.8995 31.5605 38.9132 32.166 37.7316 32.166C35.4366 32.1562 34.0988 29.6074 35.3683 27.6836C36.1202 26.541 37.6632 26.1113 38.9718 26.668ZM13.962 33.5527C16.0226 34.168 17.7804 35.9453 18.298 37.9473C18.3859 38.2793 18.4542 38.6406 18.4542 38.7578V38.9629H12.2531H6.06165L6.11047 38.6406C6.57922 35.9844 8.41516 34.0508 11.0812 33.4355C11.8038 33.2695 13.2101 33.3281 13.962 33.5527ZM39.4503 33.5527C41.5304 34.1777 43.2491 35.9258 43.796 37.9863C43.8741 38.2793 43.9425 38.6211 43.9425 38.7383V38.9629H37.7413H31.5499L31.5988 38.6406C32.0675 35.9746 33.8937 34.0605 36.5695 33.4355C37.2921 33.2695 38.6984 33.3281 39.4503 33.5527Z" fill="black"/>
<path d="M18.7469 4.20864C18.4246 4.33559 17.9852 4.76528 17.7996 5.11684C17.3992 5.88833 17.7899 7.0309 18.5809 7.41176C19.0008 7.61684 19.1082 7.61684 25.0555 7.61684C31.8328 7.61684 31.452 7.6559 32.0672 6.90395C32.5946 6.24965 32.4969 5.13637 31.8621 4.56997C31.3446 4.10122 31.3446 4.10122 24.9774 4.11098C21.2567 4.11098 18.9032 4.15004 18.7469 4.20864ZM31.1004 5.41958C31.4129 5.72231 31.4129 5.99575 31.1004 6.29848L30.866 6.54262H25.0653C19.3426 6.54262 19.2547 6.54262 19.0008 6.33754C18.8348 6.21059 18.7469 6.04458 18.7469 5.85903C18.7469 5.67348 18.8348 5.50747 19.0008 5.38051C19.2547 5.17544 19.3426 5.17544 25.0653 5.17544H30.866L31.1004 5.41958Z" fill="black"/>
<path d="M25.428 15.4379C24.7835 15.8188 24.2073 16.1996 24.1488 16.2875C23.9632 16.5219 23.9925 16.7563 24.2659 17.1859C24.4027 17.4008 24.5101 17.6156 24.5101 17.6742C24.5101 17.7328 23.807 17.7719 22.5277 17.7719C20.721 17.7719 20.5257 17.7914 20.3792 17.9477C20.2425 18.1039 20.2132 18.3676 20.2132 19.559C20.2132 21.5121 20.0472 21.3852 22.557 21.3852C23.6312 21.3852 24.5101 21.4145 24.5101 21.4535C24.5101 21.5024 24.3929 21.7074 24.2659 21.9223C23.9827 22.3715 23.9534 22.6742 24.178 22.8598C24.2659 22.9281 24.8226 23.2895 25.4183 23.6508C26.4632 24.2856 26.7659 24.4027 27.0101 24.2367C27.2347 24.1 29.7835 19.7738 29.7835 19.5492C29.7835 19.2563 27.2054 14.9789 26.9515 14.8422C26.8538 14.7836 26.7269 14.7445 26.678 14.7445C26.6292 14.7445 26.0628 15.057 25.428 15.4379ZM27.5863 17.8305L28.6214 19.5492L27.6741 21.1215C27.1566 21.9906 26.6683 22.7621 26.5999 22.8402C26.5023 22.9477 26.3948 22.9184 25.9359 22.6645C25.6331 22.4887 25.389 22.3129 25.389 22.2836C25.389 22.2445 25.5355 21.9711 25.721 21.6684C26.1995 20.8676 26.2288 20.7504 25.9359 20.4574L25.6917 20.2133H23.5335H21.3851V19.5297V18.8461H23.5823C25.6527 18.8461 25.7894 18.8363 25.9749 18.6508C26.2386 18.3871 26.2288 18.309 25.7796 17.5375C25.5648 17.1762 25.389 16.8442 25.389 16.8051C25.389 16.7465 26.3558 16.141 26.4827 16.1215C26.512 16.1117 27.0101 16.8832 27.5863 17.8305Z" fill="black"/>
<path d="M23.0137 25.9956C22.7402 26.2495 20.2109 30.4195 20.2109 30.6148C20.2109 30.7417 22.6621 34.8726 22.916 35.1753C22.9941 35.2632 23.1406 35.3511 23.248 35.3804C23.502 35.4488 25.8457 34.0425 25.9922 33.7398C26.0801 33.5542 26.041 33.4273 25.7773 32.9683L25.4746 32.4214H27.4766C29.166 32.4214 29.498 32.4019 29.625 32.2652C29.752 32.1382 29.7812 31.8452 29.7812 30.5659C29.7812 29.1304 29.7715 29.0034 29.5957 28.9058C29.4785 28.8472 28.6094 28.8081 27.4375 28.8081H25.4746L25.7773 28.2613C26.041 27.8023 26.0801 27.6753 25.9922 27.4898C25.8945 27.2847 23.5508 25.7808 23.3262 25.7808C23.2871 25.7808 23.1406 25.8784 23.0137 25.9956ZM24.3809 27.6558L24.7129 27.8511L24.4492 28.3101C24.3027 28.5542 24.127 28.8472 24.0488 28.9546C23.873 29.2085 23.8828 29.5406 24.0781 29.7261C24.2051 29.8628 24.5664 29.8824 26.4707 29.8824H28.707V30.6148V31.3472H26.4707C24.5664 31.3472 24.2051 31.3667 24.0781 31.5034C23.8438 31.7281 23.8828 32.0015 24.2539 32.607C24.4395 32.9097 24.6055 33.2124 24.625 33.2808C24.6445 33.3492 24.4102 33.5542 24.1172 33.7398C23.707 33.9937 23.5508 34.0425 23.4727 33.9546C23.1602 33.6128 21.4707 30.6441 21.5195 30.5171C21.5488 30.439 21.9492 29.7456 22.418 28.9839C23.6777 26.8941 23.502 27.1089 23.7949 27.3042C23.9414 27.3921 24.1953 27.5581 24.3809 27.6558Z" fill="black"/>
<path d="M23.4082 42.5779C22.0996 42.8318 21.5723 44.4334 22.4707 45.449C22.9688 46.0252 23.3789 46.1131 25.2051 46.074C27.002 46.035 27.2266 45.9764 27.6953 45.3514C27.9004 45.0877 27.9785 44.8631 28.0078 44.4432C28.0762 43.4764 27.5781 42.8025 26.6504 42.5877C26.1621 42.4705 23.9746 42.4607 23.4082 42.5779ZM26.7578 43.8475C26.8653 43.9549 26.9531 44.1502 26.9531 44.2869C26.9531 44.4236 26.8653 44.6189 26.7578 44.7264C26.5821 44.9022 26.4356 44.9217 25.0293 44.9217C23.3106 44.9217 23.1446 44.8631 23.1446 44.2772C23.1446 43.7205 23.3594 43.6522 25.0684 43.6522C26.4356 43.6522 26.5821 43.6717 26.7578 43.8475Z" fill="black"/>
<path d="M8.63971 12.125C8.24908 12.3496 8.19049 12.6816 8.49322 12.9844C8.67877 13.1699 8.81549 13.1797 12.4288 13.1797C15.6514 13.1797 16.1983 13.1602 16.3838 13.0234C16.628 12.8574 16.6671 12.5254 16.462 12.2422C16.3253 12.0664 16.1592 12.0566 12.5753 12.0371C9.88971 12.0176 8.77643 12.0371 8.63971 12.125Z" fill="black"/>
<path d="M8.49406 14.5508C8.24992 14.7949 8.24016 15.0586 8.47453 15.2637C8.64055 15.4102 9.06047 15.4297 12.5273 15.4297C16.2577 15.4297 16.4042 15.4199 16.5019 15.2441C16.6581 14.9414 16.6191 14.668 16.3847 14.5117C16.1991 14.375 15.6523 14.3555 12.4296 14.3555C8.81633 14.3555 8.67961 14.3652 8.49406 14.5508Z" fill="black"/>
<path d="M8.42494 16.9495C8.27845 17.1839 8.27845 17.2327 8.4054 17.4671L8.55189 17.721L12.3898 17.7503C15.8663 17.7698 16.257 17.7601 16.423 17.6136C16.6476 17.3987 16.6476 17.0667 16.423 16.8616C16.257 16.7151 15.837 16.6956 12.4191 16.6956H8.59095L8.42494 16.9495Z" fill="black"/>
<path d="M37.1638 11.5593C36.2165 11.9109 35.572 13.2195 36.1091 13.698C36.4606 14.0203 37.0075 13.7761 37.0075 13.3074C37.0075 12.9461 37.3786 12.5945 37.7497 12.5945C38.4431 12.5945 38.7556 13.4343 38.2184 13.8543C38.072 13.9715 37.8571 14.0593 37.7399 14.0593C37.3298 14.0593 37.2028 14.3425 37.2028 15.241C37.2028 16.1199 37.2321 16.2175 37.5544 16.3836C37.7009 16.4617 37.8181 16.4519 37.9938 16.3738C38.1989 16.2664 38.2282 16.1687 38.2575 15.6902C38.2868 15.1922 38.3161 15.114 38.5602 14.9968C38.9704 14.782 39.4294 14.2058 39.5563 13.7468C39.7614 12.9754 39.3415 12.0183 38.6384 11.6863C38.1501 11.4519 37.5934 11.4031 37.1638 11.5593Z" fill="black"/>
<path d="M37.4291 17.2033C37.1166 17.3595 36.9799 17.8185 37.1556 18.1603C37.3803 18.5997 37.8002 18.6779 38.2201 18.3458C38.5521 18.0822 38.5619 17.6525 38.2299 17.3302C37.976 17.0665 37.7709 17.0372 37.4291 17.2033Z" fill="black"/>
</svg>
