<svg width="484" height="316" viewBox="0 0 484 316" fill="none" xmlns="http://www.w3.org/2000/svg">
<path d="M49.6245 0.865519C50.6442 0.861541 50.6442 0.861541 51.6845 0.857483C53.979 0.849779 56.2734 0.849231 58.5679 0.848633C60.223 0.844619 61.878 0.840181 63.5331 0.835354C68.0943 0.823374 72.6555 0.817737 77.2167 0.813172C82.131 0.807222 87.0452 0.79561 91.9595 0.784882C103.834 0.760347 115.708 0.74573 127.582 0.732822C130.935 0.729111 134.288 0.725138 137.641 0.721069C158.452 0.695835 179.263 0.673777 200.074 0.661341C204.896 0.658411 209.718 0.65545 214.539 0.652436C215.738 0.65169 216.936 0.650944 218.171 0.650175C237.591 0.637518 257.011 0.60429 276.43 0.562634C296.36 0.520235 316.288 0.496648 336.218 0.491421C347.411 0.488004 358.604 0.476222 369.797 0.443318C379.328 0.415345 388.859 0.404306 398.39 0.415513C403.254 0.420707 408.118 0.417768 412.981 0.393048C417.435 0.370603 421.887 0.371258 426.34 0.390252C427.951 0.393058 429.561 0.387416 431.172 0.372439C446.194 0.241274 446.194 0.241274 451.524 4.42273C457.261 10.5661 457.573 17.0045 457.481 25.1009C457.484 26.1981 457.487 27.2952 457.491 28.4256C457.497 32.0908 457.475 35.7553 457.454 39.4205C457.452 42.0522 457.453 44.6839 457.455 47.3156C457.457 52.9757 457.445 58.6356 457.422 64.2957C457.39 72.4791 457.38 80.6624 457.374 88.8458C457.366 102.124 457.339 115.402 457.301 128.681C457.265 141.576 457.236 154.472 457.219 167.367C457.218 168.163 457.217 168.958 457.216 169.778C457.211 173.768 457.206 177.759 457.201 181.749C457.159 214.834 457.088 247.918 457 281.003C465.58 281.003 474.16 281.003 483 281.003C483.082 284.344 483.165 287.685 483.25 291.128C483.286 292.169 483.322 293.211 483.36 294.284C483.428 300.039 483.003 303.536 479 308.003C476.781 309.866 476.781 309.866 474.5 311.315C473.747 311.806 472.994 312.297 472.218 312.803C467.784 315.2 463.505 315.147 458.554 315.137C457.798 315.139 457.042 315.141 456.262 315.144C453.714 315.151 451.165 315.15 448.616 315.15C446.776 315.153 444.936 315.157 443.096 315.161C438.027 315.171 432.959 315.175 427.891 315.177C422.429 315.181 416.968 315.191 411.506 315.199C398.311 315.219 385.115 315.229 371.92 315.238C365.708 315.243 359.496 315.248 353.284 315.253C332.637 315.27 311.991 315.285 291.344 315.292C290.009 315.292 288.674 315.293 287.339 315.293C286.677 315.294 286.014 315.294 285.332 315.294C281.978 315.295 278.623 315.296 275.268 315.298C274.602 315.298 273.937 315.298 273.251 315.298C251.667 315.306 230.083 315.33 208.5 315.362C185.678 315.397 162.857 315.416 140.035 315.42C127.596 315.422 115.157 315.43 102.717 315.456C92.1243 315.478 81.5315 315.486 70.9386 315.476C65.5338 315.471 60.1293 315.473 54.7245 315.493C49.7748 315.51 44.8254 315.509 39.8757 315.494C38.0869 315.492 36.2981 315.496 34.5094 315.508C23.7952 315.574 14.3313 315.315 5.49951 308.503C2.63216 305.635 1.16048 303.691 0.772461 299.621C0.782935 298.762 0.793408 297.903 0.804199 297.018C0.809194 296.175 0.814189 295.333 0.819336 294.464C0.837544 293.405 0.855752 292.345 0.874512 291.253C0.936387 286.179 0.936387 286.179 0.999512 281.003C10.5695 281.003 20.1395 281.003 29.9995 281.003C29.9929 277.7 29.9862 274.398 29.9793 270.996C29.9196 240.708 29.8748 210.421 29.8463 180.133C29.8426 176.162 29.8387 172.192 29.8347 168.222C29.8339 167.431 29.8331 166.641 29.8323 165.827C29.8193 153.031 29.7956 140.236 29.7681 127.441C29.74 114.311 29.7233 101.18 29.7172 88.049C29.7131 79.9478 29.7001 71.8467 29.6758 63.7456C29.658 57.5316 29.6561 51.3178 29.6602 45.1038C29.6594 42.5561 29.6534 40.0083 29.6419 37.4607C29.627 33.9819 29.6306 30.5037 29.6388 27.025C29.63 26.0172 29.6213 25.0094 29.6123 23.9711C29.6547 17.3075 30.2784 11.2617 34.7183 5.94394C35.3061 5.4889 35.8939 5.03386 36.4995 4.56503C37.0873 4.09195 37.6751 3.61886 38.2808 3.13144C41.9701 0.708189 45.3381 0.873736 49.6245 0.865519ZM39.9995 15.0025C38.8691 17.8483 38.875 20.5415 38.8765 23.5865C38.8745 24.5071 38.8725 25.4277 38.8704 26.3762C38.8733 27.384 38.8763 28.3918 38.8793 29.4301C38.8784 30.5034 38.8776 31.5767 38.8767 32.6825C38.875 36.2908 38.8805 39.8991 38.886 43.5074C38.8863 46.0893 38.8861 48.6711 38.8855 51.2529C38.885 56.8176 38.8882 62.3822 38.8938 67.9468C38.9019 75.9923 38.9045 84.0378 38.9058 92.0833C38.908 105.136 38.9146 118.19 38.9241 131.243C38.9333 143.923 38.9403 156.603 38.9446 169.284C38.9448 170.073 38.9451 170.863 38.9454 171.676C38.9475 177.851 38.9494 184.025 38.9513 190.2C38.9608 220.467 38.9809 250.735 38.9995 281.003C91.1395 281.003 143.28 281.003 197 281.003C197.66 282.653 198.32 284.303 199 286.003C227.38 286.003 255.76 286.003 285 286.003C285.66 284.353 286.32 282.703 287 281.003C340.13 281.003 393.26 281.003 448 281.003C448.058 234.001 448.058 234.001 448.097 186.999C448.101 180.666 448.105 174.334 448.109 168.002C448.11 167.208 448.11 166.415 448.111 165.597C448.12 152.776 448.135 139.954 448.154 127.133C448.172 113.979 448.184 100.826 448.188 87.6726C448.19 79.553 448.199 71.4335 448.215 63.3139C448.227 57.093 448.228 50.8722 448.226 44.6513C448.226 42.0955 448.23 39.5397 448.238 36.9838C448.248 33.5038 448.245 30.024 448.24 26.544C448.246 25.5245 448.252 24.5051 448.258 23.4547C448.254 22.5237 448.25 21.5926 448.246 20.6333C448.247 19.4281 448.247 19.4281 448.248 18.1985C447.964 15.6857 447.358 14.1306 446 12.0025C442.38 9.58971 440.737 9.74944 436.429 9.74247C435.755 9.73867 435.081 9.73486 434.386 9.73094C432.112 9.72057 429.837 9.72454 427.563 9.72838C425.922 9.72393 424.281 9.71862 422.641 9.71251C418.119 9.69829 413.598 9.69667 409.076 9.69711C404.205 9.69546 399.334 9.6824 394.463 9.67091C383.806 9.64804 373.149 9.64014 362.492 9.63509C355.842 9.63183 349.191 9.62531 342.541 9.61809C324.139 9.59852 305.736 9.58211 287.334 9.57921C285.567 9.57893 285.567 9.57893 283.763 9.57864C281.375 9.57827 278.986 9.57791 276.597 9.57755C275.411 9.57737 274.226 9.57718 273.004 9.577C271.817 9.57682 270.629 9.57663 269.406 9.57645C250.159 9.57291 230.912 9.54587 211.664 9.5085C191.917 9.47046 172.17 9.45105 152.423 9.45075C141.33 9.45016 130.237 9.44161 119.144 9.41275C109.701 9.38829 100.257 9.38092 90.8129 9.396C85.992 9.40319 81.1714 9.40221 76.3506 9.37959C71.94 9.35909 67.5302 9.36152 63.1196 9.38246C61.5214 9.38598 59.9231 9.38098 58.3249 9.36676C56.1565 9.34871 53.9904 9.36131 51.8221 9.38171C50.6166 9.38089 49.4111 9.38008 48.169 9.37924C44.0441 10.1904 42.5714 11.7381 39.9995 15.0025ZM8.99951 290.003C8.66411 296.952 8.66411 296.952 11.9995 302.003C19.8274 307.492 28.6403 306.563 37.8016 306.517C39.6384 306.523 41.4751 306.53 43.3119 306.538C48.3521 306.557 53.3921 306.551 58.4324 306.54C63.8708 306.533 69.3091 306.549 74.7475 306.562C85.3986 306.584 96.0495 306.584 106.701 306.575C115.356 306.569 124.012 306.57 132.668 306.577C134.515 306.578 134.515 306.578 136.4 306.579C138.902 306.581 141.404 306.583 143.906 306.585C166.702 306.601 189.498 306.594 212.294 306.577C233.1 306.563 253.905 306.571 274.711 306.599C298.091 306.631 321.472 306.646 344.852 306.636C347.345 306.635 349.838 306.634 352.331 306.633C353.558 306.632 354.784 306.632 356.048 306.631C364.694 306.629 373.34 306.639 381.986 306.653C392.522 306.671 403.057 306.671 413.593 306.648C418.969 306.637 424.345 306.634 429.721 306.652C434.643 306.669 439.563 306.663 444.484 306.638C446.265 306.633 448.045 306.637 449.826 306.65C461.362 306.996 461.363 306.996 471.68 302.465C475.2 298.563 475.197 295.139 475 290.003C451.339 289.909 427.678 289.839 404.017 289.795C393.031 289.775 382.046 289.746 371.06 289.701C361.487 289.661 351.913 289.635 342.34 289.626C337.269 289.621 332.199 289.609 327.128 289.58C322.358 289.552 317.588 289.544 312.817 289.55C311.064 289.549 309.311 289.541 307.559 289.526C305.169 289.506 302.78 289.511 300.39 289.522C299.693 289.51 298.997 289.498 298.279 289.486C294.888 289.528 293.297 289.752 290.663 291.97C290.114 292.641 289.565 293.312 289 294.003C285.747 295.629 282.165 295.159 278.59 295.164C277.72 295.169 276.85 295.174 275.953 295.179C273.066 295.193 270.18 295.2 267.292 295.206C265.289 295.211 263.286 295.217 261.284 295.223C257.079 295.233 252.875 295.239 248.671 295.243C243.284 295.248 237.897 295.272 232.51 295.301C228.371 295.319 224.232 295.325 220.092 295.326C218.106 295.329 216.121 295.337 214.135 295.35C211.355 295.367 208.577 295.365 205.797 295.359C204.566 295.373 204.566 295.373 203.311 295.387C198.722 295.353 195.732 294.975 192 292.003C191.67 291.343 191.34 290.683 191 290.003C130.94 290.003 70.8795 290.003 8.99951 290.003Z" fill="white"/>
<path d="M50 26C177.71 26 305.42 26 437 26C437 105.86 437 185.72 437 268C309.29 268 181.58 268 50 268C50 188.14 50 108.28 50 26ZM59 35C59 108.92 59 182.84 59 259C180.77 259 302.54 259 428 259C428 185.08 428 111.16 428 35C306.23 35 184.46 35 59 35Z" fill="white"/>
<path d="M88 191C190.96 191 293.92 191 400 191C400 194.3 400 197.6 400 201C297.04 201 194.08 201 88 201C88 197.7 88 194.4 88 191Z" fill="white"/>
<path d="M88 164C190.96 164 293.92 164 400 164C400 167.3 400 170.6 400 174C297.04 174 194.08 174 88 174C88 170.7 88 167.4 88 164Z" fill="white"/>
<path d="M88 218C173.14 218 258.28 218 346 218C346 221.3 346 224.6 346 228C260.86 228 175.72 228 88 228C88 224.7 88 221.4 88 218Z" fill="white"/>
<path d="M244.999 72.003C250.939 72.003 256.879 72.003 262.999 72.003C264.992 76.6533 266.541 80.5216 267.788 85.3038C268.09 86.4453 268.391 87.5867 268.702 88.7628C269.006 89.9352 269.311 91.1076 269.624 92.3155C270.239 94.6663 270.856 97.0166 271.476 99.3663C271.745 100.401 272.013 101.435 272.291 102.5C272.907 104.974 272.907 104.974 273.999 107.003C274.19 106.298 274.381 105.593 274.578 104.867C275.462 101.619 276.356 98.3735 277.249 95.128C277.549 94.0194 277.85 92.9108 278.159 91.7687C280.036 84.9807 282.213 78.4731 284.999 72.003C287.812 71.9762 290.624 71.9563 293.437 71.9405C294.64 71.928 294.64 71.928 295.868 71.9151C297.912 71.9065 299.956 71.9508 301.999 72.003C303.712 73.7159 303.269 76.0035 303.388 78.349C303.448 79.4901 303.508 80.6312 303.57 81.8069C303.63 83.0485 303.691 84.2902 303.753 85.5694C303.851 87.4651 303.851 87.4651 303.95 89.399C304.123 92.7641 304.292 96.1293 304.458 99.4947C304.629 102.927 304.806 106.358 304.981 109.79C305.326 116.528 305.664 123.265 305.999 130.003C301.379 130.003 296.759 130.003 291.999 130.003C291.009 111.193 291.009 111.193 289.999 92.003C286.794 102.682 286.794 102.682 283.597 113.363C283.192 114.707 282.787 116.05 282.382 117.394C282.176 118.086 281.97 118.778 281.759 119.491C280.732 122.879 279.592 125.818 277.999 129.003C274.369 129.003 270.739 129.003 266.999 129.003C263.098 117.119 259.954 105.159 256.999 93.003C256.339 105.213 255.679 117.423 254.999 130.003C250.709 130.003 246.419 130.003 241.999 130.003C241.773 117.845 242.647 105.812 243.499 93.6905C243.644 91.5818 243.789 89.4731 243.933 87.3644C244.283 82.2436 244.64 77.1232 244.999 72.003Z" fill="white"/>
<path d="M139 72C143.62 72 148.24 72 153 72C153 79.26 153 86.52 153 94C159.6 94 166.2 94 173 94C173 86.74 173 79.48 173 72C177.62 72 182.24 72 187 72C187 91.14 187 110.28 187 130C182.38 130 177.76 130 173 130C173 122.41 173 114.82 173 107C166.4 107 159.8 107 153 107C153 114.59 153 122.18 153 130C148.38 130 143.76 130 139 130C139 110.86 139 91.72 139 72Z" fill="white"/>
<path d="M193 72C207.52 72 222.04 72 237 72C237 75.96 237 79.92 237 84C232.05 84 227.1 84 222 84C222 99.18 222 114.36 222 130C217.38 130 212.76 130 208 130C208 114.82 208 99.64 208 84C203.05 84 198.1 84 193 84C193 80.04 193 76.08 193 72Z" fill="white"/>
<path d="M315 72C319.29 72 323.58 72 328 72C328 87.51 328 103.02 328 119C335.59 119 343.18 119 351 119C351 122.63 351 126.26 351 130C339.12 130 327.24 130 315 130C315 110.86 315 91.72 315 72Z" fill="white"/>
<path d="M121 67C125 71.2286 125 71.2286 125 75C122.98 76.9102 122.98 76.9102 120.188 79.0625C116.101 82.2888 112.198 85.583 108.375 89.125C103.776 93.3605 99.011 97.2634 94 101C102.136 109.225 110.686 116.906 119.723 124.125C121.611 125.679 123.397 127.155 125 129C125 130.938 125 130.938 124 133C122.358 134.364 120.693 135.7 119 137C118.334 136.383 117.667 135.765 116.98 135.129C112.272 130.802 107.547 126.573 102.562 122.562C97.4458 118.435 92.6276 114.06 87.8242 109.578C84.9499 106.954 82.0068 104.469 79 102C86.9932 93.9196 95.3859 86.3859 104.254 79.2812C108.227 75.9809 111.953 72.4372 115.688 68.8711C118 67 118 67 121 67Z" fill="white"/>
<path d="M367 65C369.734 66.2694 371.923 67.6241 374.18 69.6172C374.772 70.1359 375.364 70.6546 375.974 71.189C376.602 71.7454 377.229 72.3017 377.875 72.875C379.217 74.0525 380.56 75.2296 381.902 76.4062C382.583 77.0044 383.263 77.6025 383.964 78.2188C387.1 80.9629 390.268 83.6692 393.438 86.375C398.32 90.5513 403.181 94.75 408 99C406.419 103.379 402.978 105.825 399.5 108.688C398.222 109.759 396.944 110.832 395.668 111.906C395.041 112.432 394.413 112.958 393.767 113.5C391.4 115.51 389.104 117.592 386.812 119.688C372.705 132.466 372.705 132.466 367 135C365.35 132.69 363.7 130.38 362 128C369.004 121.419 376.05 115.004 383.543 108.98C386.758 106.389 389.88 103.704 393 101C391.481 97.1605 389.222 95.3251 386 92.8125C381.304 89.0739 376.809 85.1924 372.371 81.1523C368.957 78.0528 365.481 75.0242 362 72C363.65 69.69 365.3 67.38 367 65Z" fill="white"/>
</svg>
