<svg width="300" height="300" viewBox="0 0 300 300" fill="none" xmlns="http://www.w3.org/2000/svg">
<path d="M196.482 36.6667H100.186C90.879 36.6667 83.334 44.0664 83.334 53.1944V246.806C83.334 255.934 90.879 263.333 100.186 263.333H196.482C205.789 263.333 213.334 255.934 213.334 246.806V53.1944C213.334 44.0664 205.789 36.6667 196.482 36.6667Z" stroke="black" stroke-width="6" stroke-linecap="round" stroke-linejoin="round"/>
<path d="M61.8074 72.6757C61.8074 72.6757 43.1701 90.8977 37.1348 108.894" stroke="black" stroke-width="6" stroke-linecap="round"/>
<path d="M36.6758 191.893C36.6758 191.893 47.4161 215.66 62.2715 227.465" stroke="black" stroke-width="6" stroke-linecap="round"/>
<path d="M237.461 72.6757C237.461 72.6757 256.098 90.8977 262.134 108.894" stroke="black" stroke-width="6" stroke-linecap="round"/>
<path d="M262.591 191.9C262.591 191.9 251.851 215.668 236.996 227.472" stroke="black" stroke-width="6" stroke-linecap="round"/>
<path d="M126.741 143.014L114.713 157.775L127.319 173.23" stroke="black" stroke-width="6" stroke-linecap="round" stroke-linejoin="round"/>
<path d="M176.924 143.013L188.952 157.773L176.346 173.228" stroke="black" stroke-width="6" stroke-linecap="round" stroke-linejoin="round"/>
<path d="M159.718 143.013L144.316 173.409" stroke="black" stroke-width="6" stroke-linecap="round"/>
<path d="M107.354 187.018C111.587 194.608 117.682 200.995 125.066 205.578C132.45 210.16 140.879 212.787 149.559 213.211C158.239 213.636 166.884 211.842 174.68 208.001C182.475 204.16 189.164 198.398 194.117 191.257" stroke="black" stroke-width="6" stroke-linecap="round"/>
<path d="M107.354 127.924C111.587 120.334 117.682 113.947 125.066 109.365C132.45 104.782 140.879 102.155 149.559 101.731C158.239 101.307 166.884 103.099 174.68 106.94C182.475 110.781 189.164 116.545 194.117 123.685" stroke="black" stroke-width="6" stroke-linecap="round"/>
</svg>
