<svg width="516" height="516" viewBox="0 0 516 516" fill="none" xmlns="http://www.w3.org/2000/svg">
<path d="M401.497 51.999V41.999H386.498V51.999H401.497ZM431.497 66.999V56.999H416.497V66.999H431.497ZM65.6172 153.398L55.0098 142.791L47.9395 149.862L58.5459 160.469L65.6172 153.398Z" fill="white" stroke="white" stroke-width="9" stroke-miterlimit="2.613"/>
<mask id="mask0_1203_21" style="mask-type:luminance" maskUnits="userSpaceOnUse" x="-3" y="-3" width="522" height="522">
<path d="M2 2.0015H513.999V514H2V2.0015Z" fill="white" stroke="white" stroke-width="9"/>
<path d="M513.998 514V2.00195H2V514H513.998ZM12 12.002H503.998V504H12V12.002Z" fill="white" stroke="white" stroke-width="9"/>
</mask>
<g mask="url(#mask0_1203_21)">
<path d="M265.559 483.784C302.513 520.739 362.955 520.739 399.909 483.784L429.234 454.46L429.593 454.092C437.017 446.278 436.896 433.839 429.234 426.176L354.987 351.93C347.202 344.146 334.488 344.145 326.703 351.93L297.378 381.254C287.816 390.816 272.233 390.965 262.483 381.702L262.023 381.254L134.745 253.976C125.031 244.261 125.031 228.336 134.745 218.622L164.071 189.296C171.857 181.51 171.857 168.799 164.07 161.013L89.8243 86.7666C82.0386 78.9808 69.3265 78.9806 61.5402 86.7656L32.215 116.092C-4.73848 153.045 -4.73816 213.486 32.215 250.44L132.977 351.202L140.048 344.132L39.2863 243.37C6.23789 210.321 6.23801 156.211 39.2863 123.163L68.6105 93.8379C72.492 89.957 78.8728 89.9569 82.7531 93.8369L156.999 168.084C160.881 171.965 160.88 178.344 157 182.225L127.674 211.551C114.054 225.17 114.054 247.427 127.674 261.047L254.951 388.325C268.571 401.943 290.83 401.945 304.449 388.325L333.775 359.001C337.654 355.122 344.037 355.121 347.917 359.001L422.162 433.247C426.042 437.126 426.043 443.508 422.162 447.39L392.838 476.713C359.789 509.762 305.679 509.762 272.63 476.713L171.868 375.951L164.797 383.022L265.559 483.784ZM161.262 365.346L150.655 354.737L143.584 361.809L154.191 372.416L161.262 365.346Z" fill="white" stroke="white" stroke-width="9" stroke-miterlimit="22.926"/>
<path d="M150.469 195.826L55.0098 100.368L47.9395 107.439L143.397 202.897L150.469 195.826ZM415.632 460.99L320.172 365.53L313.102 372.602L408.561 468.061L415.632 460.99Z" fill="white" stroke="white" stroke-width="9" stroke-miterlimit="22.926"/>
<path d="M501.498 152.004C501.498 227.942 439.938 289.504 363.998 289.504C288.06 289.504 226.498 227.942 226.498 152.004C226.498 116.635 239.851 84.398 261.793 60.0322L254.362 53.3408C230.831 79.4707 216.498 114.068 216.498 152.004C216.498 233.465 282.537 299.504 363.998 299.504C445.461 299.504 511.498 233.465 511.498 152.004C511.498 70.5421 445.461 4.50414 363.998 4.50391C326.064 4.50391 291.467 18.8371 265.336 42.3672L272.027 49.7979C296.394 27.8561 328.631 14.5039 363.998 14.5039C439.938 14.5041 501.498 76.0649 501.498 152.004Z" fill="white" stroke="white" stroke-width="9" stroke-miterlimit="22.926"/>
<path d="M412.012 203.551L386.978 178.518L429.405 136.09L379.907 86.5928L337.479 129.021L312.446 103.985L300.002 215.996L412.012 203.551ZM320.087 125.771L337.479 143.162L379.906 100.736L415.262 136.091L372.836 178.517L390.228 195.91L311.32 204.678L320.087 125.771Z" fill="white" stroke="white" stroke-width="9" stroke-miterlimit="22.926"/>
</g>
</svg>
