<svg width="65" height="65" viewBox="0 0 65 65" fill="none" xmlns="http://www.w3.org/2000/svg">
<path d="M14.0842 42.612V57.0564H7.94531V46.4036C7.94488 44.4016 8.68357 42.4697 10.0198 40.9788C11.2157 39.6446 12.8147 38.7475 14.5639 38.4175C14.3121 39.4974 14.1585 40.5987 14.1053 41.7078L14.1049 41.7167L14.1046 41.7257L14.0844 42.5951L14.0842 42.6036V42.612ZM32.5009 30.6953C35.6614 30.6953 38.6924 31.9508 40.9272 34.1856C43.162 36.4204 44.4175 39.4515 44.4175 42.612V57.0564H20.5842V42.612C20.5842 39.4515 21.8397 36.4204 24.0745 34.1856C26.3093 31.9508 29.3403 30.6953 32.5009 30.6953ZM57.0564 46.4037V57.0564H50.9175V42.612C50.9175 41.1702 50.7528 39.7666 50.4386 38.4188C52.1181 38.7363 53.6645 39.5776 54.8477 40.835C56.2662 42.3423 57.0561 44.334 57.0564 46.4037ZM16.0703 23.112C17.5548 23.112 18.9785 23.7017 20.0282 24.7513C21.0778 25.801 21.6675 27.2247 21.6675 28.7092C21.6675 30.1937 21.0778 31.6174 20.0282 32.667C18.9785 33.7167 17.5548 34.3064 16.0703 34.3064C14.5859 34.3064 13.1621 33.7167 12.1125 32.667C11.0628 31.6174 10.4731 30.1937 10.4731 28.7092C10.4731 27.2247 11.0628 25.801 12.1125 24.7513C13.1621 23.7017 14.5859 23.112 16.0703 23.112ZM48.9314 23.112C50.4159 23.112 51.8396 23.7017 52.8893 24.7513C53.9389 25.801 54.5286 27.2247 54.5286 28.7092C54.5286 30.1937 53.9389 31.6174 52.8893 32.667C51.8396 33.7167 50.4159 34.3064 48.9314 34.3064C47.447 34.3064 46.0232 33.7167 44.9736 32.667C43.9239 31.6174 43.3342 30.1937 43.3342 28.7092C43.3342 27.2247 43.9239 25.801 44.9736 24.7513C46.0232 23.7017 47.447 23.112 48.9314 23.112ZM32.5009 7.94531C34.9909 7.94531 37.379 8.93447 39.1398 10.6952C40.9006 12.456 41.8898 14.8441 41.8898 17.3342C41.8898 19.8243 40.9006 22.2124 39.1398 23.9732C37.379 25.7339 34.9909 26.7231 32.5009 26.7231C30.0108 26.7231 27.6227 25.7339 25.8619 23.9732C24.1011 22.2124 23.112 19.8243 23.112 17.3342C23.112 14.8441 24.1011 12.456 25.8619 10.6952C27.6227 8.93447 30.0108 7.94531 32.5009 7.94531Z" stroke="#024D81" stroke-width="2"/>
</svg>
