<svg width="512" height="512" viewBox="0 0 512 512" fill="none" xmlns="http://www.w3.org/2000/svg">
<path d="M490.027 133.355C476.437 125.803 459.84 126.293 445.227 135.509L341.333 213.355V170.667C341.333 163.052 339.296 155.577 335.432 149.016C331.568 142.455 326.019 137.048 319.36 133.355C305.771 125.803 289.152 126.293 274.56 135.509L170.667 213.355V42.6667C176.325 42.6667 181.751 40.4191 185.752 36.4183C189.752 32.4175 192 26.9913 192 21.3333C192 15.6754 189.752 10.2492 185.752 6.24839C181.751 2.24761 176.325 0 170.667 0L21.3333 0C15.6754 0 10.2492 2.24761 6.24839 6.24839C2.24761 10.2492 0 15.6754 0 21.3333C0 26.9913 2.24761 32.4175 6.24839 36.4183C10.2492 40.4191 15.6754 42.6667 21.3333 42.6667V405.333C21.3333 464.149 69.184 512 128 512H405.333C464.149 512 512 464.149 512 405.333V170.667C512 163.052 509.962 155.577 506.098 149.016C502.235 142.455 496.685 137.048 490.027 133.355ZM469.333 405.333C469.333 440.619 440.619 469.333 405.333 469.333H128C92.7147 469.333 64 440.619 64 405.333V42.6667H128V384C128 389.658 130.248 395.084 134.248 399.085C138.249 403.086 143.675 405.333 149.333 405.333C154.991 405.333 160.418 403.086 164.418 399.085C168.419 395.084 170.667 389.658 170.667 384V266.667L298.667 170.667V256C298.671 259.96 299.776 263.842 301.859 267.21C303.942 270.578 306.92 273.301 310.462 275.074C314.003 276.847 317.968 277.6 321.913 277.249C325.857 276.899 329.627 275.458 332.8 273.088L469.333 170.688V405.333ZM298.667 362.667V384C298.667 389.658 296.419 395.084 292.418 399.085C288.418 403.086 282.991 405.333 277.333 405.333H256C250.342 405.333 244.916 403.086 240.915 399.085C236.914 395.084 234.667 389.658 234.667 384V362.667C234.667 357.009 236.914 351.582 240.915 347.582C244.916 343.581 250.342 341.333 256 341.333H277.333C282.991 341.333 288.418 343.581 292.418 347.582C296.419 351.582 298.667 357.009 298.667 362.667ZM341.333 384V362.667C341.333 357.009 343.581 351.582 347.582 347.582C351.582 343.581 357.009 341.333 362.667 341.333H384C389.658 341.333 395.084 343.581 399.085 347.582C403.086 351.582 405.333 357.009 405.333 362.667V384C405.333 389.658 403.086 395.084 399.085 399.085C395.084 403.086 389.658 405.333 384 405.333H362.667C357.009 405.333 351.582 403.086 347.582 399.085C343.581 395.084 341.333 389.658 341.333 384Z" fill="#024D81"/>
</svg>
