<svg width="290" height="290" viewBox="0 0 290 290" fill="none" xmlns="http://www.w3.org/2000/svg">
<path d="M253.132 54.338H38.7692C38.1489 54.3731 37.5489 54.57 37.0275 54.908C36.5661 55.3175 36.2217 55.8421 36.0293 56.4282V193.306C36.3899 195.074 37.1555 196.735 38.2655 198.159C39.4874 199.366 41.0025 200.234 42.6619 200.677H248.161C249.696 200.473 251.147 199.855 252.356 198.888C253.295 197.486 253.852 195.864 253.97 194.181V57.2425C253.93 56.4189 253.573 55.6433 252.973 55.0775C252.131 54.5915 251.176 54.3338 250.205 54.3286H224.569" stroke="black" stroke-width="6" stroke-linecap="square" stroke-linejoin="round"/>
<path d="M109.676 238.444H183.322" stroke="black" stroke-width="6" stroke-linecap="square"/>
<path d="M128.09 234.762V201.622" stroke="black" stroke-width="6" stroke-linecap="square"/>
<path d="M164.336 238.444L164.913 201.622" stroke="black" stroke-width="6" stroke-linecap="square"/>
<path d="M163.338 134.407L141.777 123.627L163.338 112.847" stroke="black" stroke-width="6" stroke-linecap="square" stroke-linejoin="round"/>
<path d="M199.576 134.407L221.136 123.627L199.576 112.847" stroke="black" stroke-width="6" stroke-linecap="square" stroke-linejoin="round"/>
<path d="M174.988 145.187L187.925 102.066" stroke="black" stroke-width="6" stroke-linecap="square"/>
<path d="M35.4453 83.7778H109.556" stroke="black" stroke-width="6"/>
<path d="M35.4453 99.8889H87.9408" stroke="black" stroke-width="6"/>
<path d="M35.4453 148.222H87.9408" stroke="black" stroke-width="6"/>
<path d="M35.4453 132.111H69.413" stroke="black" stroke-width="6"/>
<path d="M35.4453 164.333H57.0609" stroke="black" stroke-width="6"/>
<path d="M35.4453 116H103.38" stroke="black" stroke-width="6"/>
<path d="M238.445 83.7778H122.445V164.333H238.445V83.7778Z" stroke="black" stroke-width="6"/>
</svg>
