<svg width="65" height="65" viewBox="0 0 65 65" fill="none" xmlns="http://www.w3.org/2000/svg">
<path d="M32.1485 8.66842C38.2222 8.62422 44.068 11.8232 47.3494 17.243C51.4657 24.0421 50.5724 32.754 45.1588 38.4956C44.503 39.191 43.809 39.8518 43.1121 40.5067C41.8102 41.73 41.01 43.1633 40.9686 45.0044C40.941 46.2377 40.2805 47.1018 39.0667 47.4367C38.8948 47.4855 25.7882 51.0076 25.7882 51.0076C25.0656 51.2012 24.316 50.7681 24.1223 50.0455L24.0927 49.934C23.899 49.2115 24.3319 48.4617 25.0546 48.2682C25.0546 48.2682 36.4773 45.0676 36.2827 45.2485C37.3243 44.9919 37.9273 44.4584 38.1792 43.383C38.7175 41.0838 40.2128 39.372 41.8539 37.7819C44.5732 35.1473 46.4065 32.0827 46.9002 28.2432C47.6391 22.4957 44.8514 16.5543 39.7268 13.6705C34.208 10.5648 28.6724 10.7694 23.5196 14.4476C16.347 19.5674 15.2959 29.4524 21.0427 36.1392C22.644 38.0023 24.2714 39.8431 26.0583 41.8906C30.7591 41.2037 30.7589 41.2037 30.7591 36.4231C30.7594 33.4513 30.7774 30.4792 30.7513 27.5077C30.7418 26.45 31.0878 25.6244 32.2179 25.6506C33.3342 25.6766 33.6602 26.5307 33.6565 27.5683C33.6399 32.1518 33.6298 36.7356 33.6599 41.3191C33.6673 42.4548 33.2393 43.0835 32.1127 43.3573C29.9153 43.8911 27.747 44.5444 25.5491 45.0763C23.9664 45.4592 23.7582 45.0032 23.1084 43.5444C22.4603 42.0891 21.4034 40.7252 20.2537 39.5992C15.352 34.7983 13.4151 29.0657 14.9712 22.4008C16.5434 15.6673 20.8669 11.2886 27.498 9.35114C29.0091 8.90943 30.5742 8.67962 32.1485 8.66842ZM32.2072 19.6825C33.4014 19.6952 33.9933 20.4009 34.0785 21.4961C33.9857 22.7579 33.2722 23.4691 32.164 23.4512C31.0606 23.4333 30.2576 22.6771 30.284 21.5256C30.3098 20.4053 31.0122 19.6695 32.2072 19.6825ZM38.5667 50.5798C39.1573 50.6043 39.6924 51.008 39.8529 51.6073C40.0506 52.3447 39.6089 53.1097 38.8715 53.3072L28.5198 56.081C27.7822 56.2785 27.0174 55.837 26.8197 55.0994C26.6221 54.362 27.0637 53.5971 27.8011 53.3995L38.1528 50.6257C38.2877 50.5895 38.4272 50.574 38.5667 50.5798Z" stroke="#024D81" stroke-width="2"/>
</svg>
