<svg width="44" height="44" viewBox="0 0 44 44" fill="none" xmlns="http://www.w3.org/2000/svg">
<path d="M21.8171 37C21.3953 36.9996 20.9806 36.8913 20.6125 36.6854L15.8368 34.0325C13.4624 32.7125 11.4839 30.7819 10.1061 28.4406C8.72831 26.0993 8.00118 23.4323 8 20.7157V13.3523C7.99993 12.7395 8.22709 12.1485 8.63754 11.6936C9.04798 11.2387 9.61256 10.9521 10.2221 10.8893C12.1222 10.6879 13.9923 10.2651 15.7942 9.62946C17.4464 9.04544 19.0313 8.28626 20.5218 7.36488C20.9117 7.12627 21.3599 7 21.8171 7C22.2742 7 22.7224 7.12627 23.1123 7.36488C24.603 8.286 26.1879 9.04517 27.8399 9.62946C29.6418 10.2651 31.5119 10.6879 33.4121 10.8893C34.0216 10.9521 34.5861 11.2387 34.9966 11.6936C35.407 12.1485 35.6342 12.7395 35.6341 13.3523V20.7157C35.6329 23.4323 34.9058 26.0993 33.528 28.4406C32.1502 30.7819 30.1717 32.7125 27.7974 34.0325L23.0216 36.6868C22.6534 36.8923 22.2387 37.0001 21.8171 37ZM21.8171 9.12496C21.7547 9.12441 21.6934 9.14108 21.6399 9.17315C20.0201 10.1743 18.298 10.9995 16.5028 11.6347C14.5447 12.3258 12.5124 12.7853 10.4474 13.0037C10.3597 13.0111 10.278 13.0512 10.2184 13.116C10.1588 13.1808 10.1257 13.2657 10.1257 13.3537V20.7171C10.1265 23.0547 10.752 25.3496 11.9374 27.3643C13.1229 29.379 14.8253 31.0402 16.8684 32.1761L21.6442 34.829C21.6965 34.8584 21.7556 34.8738 21.8156 34.8738C21.8757 34.8738 21.9348 34.8584 21.9871 34.829L26.7657 32.1761C28.8088 31.0402 30.5112 29.379 31.6967 27.3643C32.8822 25.3496 33.5077 23.0547 33.5084 20.7171V13.3523C33.5084 13.2642 33.4753 13.1794 33.4157 13.1146C33.3562 13.0498 33.2744 13.0097 33.1867 13.0022C31.1217 12.7838 29.0894 12.3244 27.1313 11.6333C25.3363 10.999 23.6141 10.1747 21.9942 9.17456C21.941 9.14173 21.8796 9.12454 21.8171 9.12496Z" fill="black" stroke="black" stroke-width="0.5"/>
<path d="M21.1103 25.157C20.85 25.1572 20.5987 25.0613 20.4046 24.8877L17.216 22.0535C17.0183 21.863 16.902 21.6034 16.8914 21.329C16.8808 21.0547 16.9768 20.7869 17.1592 20.5817C17.3417 20.3766 17.5964 20.25 17.8701 20.2285C18.1438 20.2069 18.4152 20.2922 18.6275 20.4663L21.0423 22.6118L25.6494 17.6986C25.7443 17.5944 25.8589 17.5101 25.9866 17.4507C26.1143 17.3912 26.2526 17.3577 26.3934 17.3521C26.5342 17.3466 26.6747 17.3691 26.8067 17.4183C26.9387 17.4675 27.0596 17.5425 27.1624 17.6389C27.2651 17.7353 27.3477 17.8511 27.4053 17.9797C27.4629 18.1083 27.4943 18.2471 27.4978 18.3879C27.5013 18.5288 27.4767 18.6689 27.4256 18.8002C27.3744 18.9315 27.2976 19.0512 27.1998 19.1526L21.8855 24.8211C21.7863 24.9273 21.6662 25.0119 21.5329 25.0697C21.3995 25.1275 21.2557 25.1572 21.1103 25.157Z" fill="black" stroke="black" stroke-width="0.5"/>
</svg>
