<svg width="456" height="480" viewBox="0 0 456 480" fill="none" xmlns="http://www.w3.org/2000/svg">
<path d="M232 48H184C181.878 48 179.843 47.1571 178.343 45.6569C176.843 44.1566 176 42.1217 176 40C176 37.8783 176.843 35.8434 178.343 34.3431C179.843 32.8429 181.878 32 184 32H232C234.122 32 236.157 32.8429 237.657 34.3431C239.157 35.8434 240 37.8783 240 40C240 42.1217 239.157 44.1566 237.657 45.6569C236.157 47.1571 234.122 48 232 48ZM296 480H120C109.395 479.987 99.2285 475.769 91.7298 468.27C84.2311 460.772 80.0127 450.605 80 440V328C80 325.878 80.8429 323.843 82.3431 322.343C83.8434 320.843 85.8783 320 88 320C90.1217 320 92.1566 320.843 93.6569 322.343C95.1571 323.843 96 325.878 96 328V440C96 453.232 106.768 464 120 464H296C309.232 464 320 453.232 320 440V168C320 165.878 320.843 163.843 322.343 162.343C323.843 160.843 325.878 160 328 160C330.122 160 332.157 160.843 333.657 162.343C335.157 163.843 336 165.878 336 168V440C336 462.048 318.064 480 296 480Z" fill="white"/>
<path d="M328.003 64C325.881 64 323.846 63.1571 322.346 61.6569C320.845 60.1566 320.003 58.1217 320.003 56V40C320.003 26.768 309.235 16 296.003 16H120.003C106.771 16 96.0026 26.768 96.0026 40V56C96.0026 58.1217 95.1598 60.1566 93.6595 61.6569C92.1592 63.1571 90.1244 64 88.0026 64C85.8809 64 83.8461 63.1571 82.3458 61.6569C80.8455 60.1566 80.0026 58.1217 80.0026 56V40C80.0026 17.952 97.9386 0 120.003 0H296.003C318.067 0 336.003 17.952 336.003 40V56C336.003 58.1217 335.16 60.1566 333.659 61.6569C332.159 63.1571 330.124 64 328.003 64ZM200.003 384H136.003C133.881 384 131.846 383.157 130.346 381.657C128.845 380.157 128.003 378.122 128.003 376C128.003 373.878 128.845 371.843 130.346 370.343C131.846 368.843 133.881 368 136.003 368H200.003C202.124 368 204.159 368.843 205.66 370.343C207.16 371.843 208.003 373.878 208.003 376C208.003 378.122 207.16 380.157 205.66 381.657C204.159 383.157 202.124 384 200.003 384ZM248.003 416H136.003C133.881 416 131.846 415.157 130.346 413.657C128.845 412.157 128.003 410.122 128.003 408C128.003 405.878 128.845 403.843 130.346 402.343C131.846 400.843 133.881 400 136.003 400H248.003C250.124 400 252.159 400.843 253.66 402.343C255.16 403.843 256.003 405.878 256.003 408C256.003 410.122 255.16 412.157 253.66 413.657C252.159 415.157 250.124 416 248.003 416ZM280.003 352H136.003C133.881 352 131.846 351.157 130.346 349.657C128.845 348.157 128.003 346.122 128.003 344C128.003 341.878 128.845 339.843 130.346 338.343C131.846 336.843 133.881 336 136.003 336H280.003C282.124 336 284.159 336.843 285.66 338.343C287.16 339.843 288.003 341.878 288.003 344C288.003 346.122 287.16 348.157 285.66 349.657C284.159 351.157 282.124 352 280.003 352ZM112.003 208C89.9386 208 72.0026 190.048 72.0026 168C72.0026 145.952 89.9386 128 112.003 128C134.067 128 152.003 145.952 152.003 168C152.003 190.048 134.067 208 112.003 208ZM112.003 144C98.7706 144 88.0026 154.768 88.0026 168C88.0026 181.232 98.7706 192 112.003 192C125.235 192 136.003 181.232 136.003 168C136.003 154.768 125.235 144 112.003 144ZM112.003 304C83.8783 303.971 56.8004 293.332 36.1786 274.208C35.1281 273.237 34.3572 272.002 33.9463 270.631C33.5355 269.261 33.4997 267.805 33.8426 266.416C36.8065 254.297 43.7581 243.526 53.5806 235.833C63.4031 228.141 75.5264 223.973 88.0026 224H136.003C148.477 223.977 160.598 228.144 170.422 235.832C180.246 243.521 187.203 254.285 190.179 266.4C190.522 267.789 190.486 269.245 190.075 270.615C189.664 271.986 188.893 273.221 187.843 274.192C167.219 293.325 140.135 303.971 112.003 304ZM50.7706 265.712C85.3626 294.528 138.643 294.528 173.235 265.712C170.388 258.143 165.297 251.624 158.643 247.029C151.989 242.434 144.089 239.981 136.003 240H88.0026C79.916 239.981 72.0167 242.434 65.3626 247.029C58.7085 251.624 53.6172 258.143 50.7706 265.712Z" fill="white"/>
<path d="M112 304C50.256 304 0 253.76 0 192C0 130.24 50.256 80 112 80C173.744 80 224 130.24 224 192C224 253.76 173.744 304 112 304ZM112 96C59.056 96 16 139.056 16 192C16 244.944 59.056 288 112 288C164.944 288 208 244.944 208 192C208 139.056 164.944 96 112 96ZM40 351.2C35.584 351.2 32 348.416 32 344V342.4C32 340.278 32.8429 338.243 34.3431 336.743C35.8434 335.243 37.8783 334.4 40 334.4C42.1217 334.4 44.1566 335.243 45.6569 336.743C47.1571 338.243 48 340.278 48 342.4C48 346.816 44.416 351.2 40 351.2ZM40 383.2C35.584 383.2 32 380.416 32 376V374.4C32 372.278 32.8429 370.243 34.3431 368.743C35.8434 367.243 37.8783 366.4 40 366.4C42.1217 366.4 44.1566 367.243 45.6569 368.743C47.1571 370.243 48 372.278 48 374.4C48 378.816 44.416 383.2 40 383.2ZM40 415.2C35.584 415.2 32 412.416 32 408V406.4C32 404.278 32.8429 402.243 34.3431 400.743C35.8434 399.243 37.8783 398.4 40 398.4C42.1217 398.4 44.1566 399.243 45.6569 400.743C47.1571 402.243 48 404.278 48 406.4C48 410.816 44.416 415.2 40 415.2ZM357.44 416H344C341.878 416 339.843 415.157 338.343 413.657C336.843 412.157 336 410.122 336 408C336 405.878 336.843 403.843 338.343 402.343C339.843 400.843 341.878 400 344 400H350.992L354.912 381.84C355.227 380.37 355.951 379.019 357.002 377.943C358.052 376.867 359.386 376.11 360.848 375.76C368.568 373.867 375.947 370.785 382.72 366.624C383.997 365.844 385.467 365.439 386.963 365.453C388.46 365.467 389.922 365.901 391.184 366.704L407.024 376.832L416.832 366.944L406.704 351.232C405.891 349.969 405.45 348.502 405.43 347C405.41 345.498 405.813 344.02 406.592 342.736C410.755 335.966 413.832 328.586 415.712 320.864C416.064 319.406 416.817 318.076 417.886 317.024C418.955 315.972 420.297 315.241 421.76 314.912L439.984 310.864V297.152L421.76 293.104C420.297 292.775 418.955 292.044 417.886 290.992C416.817 289.94 416.064 288.61 415.712 287.152C413.825 279.432 410.748 272.054 406.592 265.28C405.806 264.001 405.398 262.527 405.415 261.026C405.432 259.526 405.873 258.06 406.688 256.8L416.832 240.944L407.04 231.152L391.184 241.296C389.923 242.103 388.46 242.539 386.964 242.553C385.467 242.567 383.996 242.159 382.72 241.376C375.944 237.221 368.566 234.139 360.848 232.24C359.386 231.89 358.052 231.133 357.002 230.057C355.951 228.981 355.227 227.63 354.912 226.16L350.992 208H344C341.878 208 339.843 207.157 338.343 205.657C336.843 204.157 336 202.122 336 200C336 197.878 336.843 195.843 338.343 194.343C339.843 192.843 341.878 192 344 192H357.44C359.268 192.003 361.039 192.632 362.46 193.782C363.88 194.932 364.864 196.533 365.248 198.32L369.52 218.048C375.376 219.824 381.12 222.224 386.656 225.216L403.84 214.224C405.377 213.242 407.203 212.815 409.016 213.013C410.828 213.21 412.519 214.022 413.808 215.312L432.704 234.192C433.992 235.483 434.8 237.174 434.995 238.987C435.19 240.8 434.76 242.625 433.776 244.16L422.784 261.344C425.776 266.896 428.176 272.64 429.952 278.512L449.712 282.896C451.49 283.289 453.081 284.277 454.221 285.697C455.361 287.117 455.983 288.883 455.984 290.704V317.264C455.983 319.085 455.361 320.851 454.221 322.271C453.081 323.691 451.49 324.679 449.712 325.072L429.952 329.456C428.146 335.4 425.745 341.147 422.784 346.608L433.76 363.632C434.754 365.162 435.193 366.986 435.003 368.8C434.814 370.614 434.008 372.309 432.72 373.6L413.824 392.64C412.536 393.937 410.843 394.753 409.027 394.954C407.21 395.155 405.38 394.728 403.84 393.744L386.656 382.752C381.197 385.707 375.457 388.108 369.52 389.92L365.248 409.648C364.871 411.441 363.889 413.05 362.468 414.206C361.047 415.362 359.272 415.995 357.44 416Z" fill="white"/>
<path d="M360.848 348.288C359.028 348.286 357.264 347.663 355.846 346.523C354.428 345.383 353.441 343.794 353.047 342.017C352.654 340.241 352.878 338.383 353.682 336.751C354.487 335.119 355.823 333.81 357.472 333.04C362.996 330.455 367.671 326.352 370.952 321.21C374.233 316.068 375.983 310.099 376 304C375.992 298.723 374.681 293.53 372.183 288.882C369.685 284.234 366.077 280.275 361.681 277.357C357.284 274.44 352.235 272.653 346.981 272.157C341.728 271.66 336.433 272.469 331.568 274.512C330.594 274.97 329.537 275.227 328.461 275.267C327.385 275.308 326.312 275.13 325.307 274.746C324.301 274.361 323.383 273.778 322.608 273.03C321.833 272.283 321.217 271.387 320.797 270.395C320.377 269.404 320.161 268.338 320.163 267.261C320.164 266.185 320.383 265.12 320.806 264.129C321.229 263.139 321.848 262.245 322.625 261.5C323.402 260.754 324.321 260.173 325.328 259.792C332.626 256.728 340.567 255.513 348.447 256.256C356.326 256.999 363.901 259.676 370.497 264.05C377.094 268.424 382.508 274.359 386.259 281.328C390.01 288.297 391.982 296.085 392 304C391.98 313.145 389.357 322.095 384.438 329.804C379.52 337.513 372.508 343.664 364.224 347.536C363.167 348.031 362.015 348.288 360.848 348.288ZM384 144H288C270.352 144 256 129.648 256 112C256 94.352 270.352 80 288 80H384C401.648 80 416 94.352 416 112C416 129.648 401.648 144 384 144ZM288 96C283.88 96.1843 279.99 97.9505 277.14 100.931C274.29 103.911 272.7 107.876 272.7 112C272.7 116.124 274.29 120.089 277.14 123.069C279.99 126.049 283.88 127.816 288 128H384C388.12 127.816 392.01 126.049 394.86 123.069C397.71 120.089 399.3 116.124 399.3 112C399.3 107.876 397.71 103.911 394.86 100.931C392.01 97.9505 388.12 96.1843 384 96H288Z" fill="white"/>
</svg>
