<svg width="300" height="300" viewBox="0 0 300 300" fill="none" xmlns="http://www.w3.org/2000/svg">
<path fill-rule="evenodd" clip-rule="evenodd" d="M208.565 58.8507C215.455 54.6997 223.492 52.8131 231.527 53.4567C239.562 54.1004 247.19 57.2417 253.317 62.4377C259.444 67.6337 263.756 74.6191 265.627 82.3961C267.499 90.1731 266.832 98.3364 263.724 105.714C260.623 113.074 255.254 119.27 248.39 123.425C244.325 126.061 239.768 127.862 234.989 128.722C231.053 129.431 227.031 129.49 223.087 128.902L203.203 168.293C206.752 171.728 209.599 175.823 211.573 180.354C213.902 185.697 214.954 191.5 214.646 197.313C214.338 203.126 212.679 208.788 209.799 213.86C206.92 218.932 202.898 223.276 198.05 226.557C193.201 229.837 187.656 231.967 181.845 232.783C176.033 233.599 170.11 233.079 164.533 231.265C158.956 229.45 153.874 226.387 149.684 222.312C145.503 218.246 142.321 213.281 140.387 207.8C138.553 202.948 137.775 197.765 138.105 192.592C138.379 188.291 139.415 184.079 141.156 180.146L116.823 158.706C111.028 162.016 104.443 163.769 97.7257 163.771H97.7004L97.6747 163.771C95.53 163.738 93.3927 163.537 91.283 163.169L41.222 256.087L33.1406 220.315L70.033 151.869C66.6067 148.372 63.8884 144.244 62.0367 139.709C59.8504 134.353 58.932 128.572 59.354 122.809C59.7757 117.045 61.5264 111.456 64.469 106.469C67.4117 101.482 71.4677 97.2301 76.324 94.0371C81.18 90.8441 86.7084 88.7937 92.4854 88.0404C98.2624 87.2874 104.137 87.8511 109.661 89.6894C115.185 91.5277 120.214 94.5924 124.36 98.6514C128.497 102.701 131.646 107.634 133.566 113.075C135.4 117.928 136.178 123.111 135.848 128.283C135.573 132.584 134.538 136.796 132.797 140.729L157.13 162.17C162.923 158.86 169.507 157.107 176.223 157.104C178.057 157.099 179.887 157.229 181.7 157.492L201.594 118.08C196.509 113.114 192.915 106.819 191.254 99.8987C189.387 92.1204 190.059 83.9574 193.172 76.5817C196.285 69.2067 201.675 63.0017 208.565 58.8507ZM176.223 157.104C176.224 157.104 176.226 157.104 176.227 157.104L176.228 160.438L176.218 157.104C176.22 157.104 176.221 157.104 176.223 157.104ZM230.995 60.1021C224.345 59.5694 217.697 61.1317 212.006 64.5611C206.315 67.9897 201.875 73.1071 199.314 79.1741C196.754 85.2404 196.203 91.9497 197.737 98.3427C199.271 104.736 202.815 110.492 207.868 114.782L209.869 116.482L185.368 165.019L182.847 164.471C180.677 163.999 178.46 163.765 176.238 163.771H176.229C169.953 163.773 163.824 165.622 158.621 169.078L156.491 170.493L124.509 142.312L125.748 139.986C127.75 136.228 128.924 132.095 129.195 127.859C129.465 123.623 128.826 119.377 127.318 115.401L127.303 115.363L127.29 115.325C125.712 110.837 123.116 106.763 119.696 103.415C116.276 100.067 112.124 97.5351 107.556 96.0151C102.988 94.4947 98.1274 94.0281 93.347 94.6514C88.567 95.2744 83.997 96.9704 79.9867 99.6074C75.9764 102.244 72.6334 105.751 70.2107 109.857C67.788 113.962 66.3497 118.559 66.003 123.295C65.6564 128.031 66.4104 132.784 68.209 137.19C70.0077 141.596 72.8037 145.54 76.3864 148.718L78.3607 150.469L40.1934 221.281L43.8004 237.246L87.809 155.562L90.3054 156.162C92.7434 156.749 95.2404 157.065 97.7494 157.104C104.016 157.098 110.136 155.249 115.332 151.798L117.461 150.383L149.444 178.563L148.205 180.889C146.203 184.648 145.028 188.781 144.758 193.017C144.488 197.253 145.127 201.498 146.635 205.474L146.65 205.513L146.663 205.551C148.252 210.071 150.875 214.171 154.331 217.532C157.788 220.893 161.984 223.424 166.596 224.925C171.208 226.426 176.109 226.856 180.918 226.181C185.726 225.506 190.31 223.744 194.314 221.035C198.317 218.326 201.631 214.744 204.002 210.569C206.372 206.394 207.736 201.737 207.989 196.96C208.242 192.184 207.378 187.413 205.462 183.017C203.546 178.621 200.63 174.718 196.936 171.612L194.916 169.914L219.43 121.352L221.962 121.917C225.854 122.784 229.883 122.868 233.808 122.161C237.733 121.454 241.472 119.972 244.801 117.806L244.849 117.775L244.897 117.746C250.586 114.314 255.023 109.194 257.58 103.125C260.136 97.0577 260.684 90.3481 259.146 83.9557C257.607 77.5631 254.06 71.8091 249.005 67.5221C243.949 63.2344 237.645 60.6347 230.995 60.1021ZM228.563 77.5424C224.808 77.5424 221.215 79.0174 218.571 81.6307C215.929 84.2427 214.452 87.7774 214.452 91.4547C214.452 94.1977 215.274 96.8824 216.82 99.1694C218.366 101.457 220.568 103.245 223.151 104.303C225.734 105.361 228.579 105.638 231.324 105.098C234.068 104.559 236.584 103.227 238.555 101.279C240.526 99.3307 241.864 96.8531 242.405 94.1617C242.947 91.4704 242.669 88.6807 241.606 86.1434C240.543 83.6054 238.739 81.4301 236.418 79.8967C234.096 78.3631 231.363 77.5424 228.563 77.5424ZM213.884 76.8897C217.784 73.0347 223.065 70.8757 228.563 70.8757C232.664 70.8757 236.677 72.0777 240.093 74.3341C243.509 76.5907 246.178 79.8024 247.755 83.5671C249.332 87.3321 249.746 91.4771 248.941 95.4767C248.136 99.4761 246.151 103.144 243.242 106.02C240.334 108.895 236.633 110.849 232.61 111.64C228.587 112.431 224.416 112.025 220.624 110.472C216.832 108.92 213.584 106.287 211.297 102.903C209.009 99.5174 207.785 95.5334 207.785 91.4547C207.785 85.9844 209.983 80.7461 213.884 76.8897ZM97.725 112.034C93.97 112.034 90.3764 113.509 87.7327 116.122C85.0907 118.734 83.613 122.269 83.613 125.946C83.613 128.689 84.4357 131.374 85.9817 133.661C87.5277 135.948 89.729 137.737 92.312 138.795C94.8954 139.852 97.7404 140.13 100.485 139.59C103.23 139.05 105.746 137.719 107.717 135.77C109.688 133.822 111.025 131.345 111.567 128.653C112.109 125.962 111.831 123.172 110.768 120.635C109.704 118.097 107.901 115.922 105.58 114.388C103.258 112.855 100.524 112.034 97.725 112.034ZM83.046 111.381C86.9457 107.526 92.2264 105.367 97.725 105.367C101.826 105.367 105.838 106.569 109.254 108.826C112.671 111.082 115.339 114.294 116.917 118.058C118.494 121.823 118.907 125.969 118.103 129.968C117.298 133.968 115.313 137.636 112.404 140.511C109.496 143.386 105.795 145.34 101.771 146.131C97.7484 146.922 93.578 146.517 89.786 144.964C85.9934 143.411 82.746 140.779 80.4584 137.394C78.17 134.009 76.9464 130.025 76.9464 125.946C76.9464 120.476 79.145 115.237 83.046 111.381ZM176.228 181.017C173.428 181.017 170.695 181.838 168.373 183.371C166.052 184.905 164.249 187.08 163.185 189.618C162.122 192.155 161.844 194.945 162.386 197.636C162.927 200.328 164.265 202.805 166.236 204.753C168.207 206.702 170.723 208.033 173.468 208.573C176.213 209.113 179.057 208.835 181.641 207.778C184.224 206.72 186.425 204.931 187.971 202.644C189.517 200.357 190.34 197.672 190.34 194.929C190.34 191.252 188.862 187.717 186.22 185.105C183.577 182.492 179.983 181.017 176.228 181.017ZM164.699 177.809C168.115 175.552 172.127 174.35 176.228 174.35C181.726 174.35 187.007 176.509 190.907 180.364C194.808 184.221 197.006 189.459 197.006 194.929C197.006 199.008 195.783 202.992 193.495 206.377C191.207 209.762 187.959 212.394 184.167 213.947C180.375 215.5 176.205 215.906 172.181 215.114C168.158 214.323 164.457 212.37 161.549 209.494C158.64 206.619 156.655 202.951 155.85 198.951C155.045 194.952 155.459 190.807 157.036 187.042C158.614 183.277 161.282 180.065 164.699 177.809Z" fill="black"/>
</svg>
