<?xml version="1.0" encoding="UTF-8"?>
<svg version="1.1" xmlns="http://www.w3.org/2000/svg" width="512" height="512">
<path d="M0 0 C0.66 -0.0103125 1.32 -0.020625 2 -0.03125 C4.9487376 0.75200842 6.10341544 2.13514715 8 4.5 C8.390625 7.515625 8.390625 7.515625 8.25 10.75 C8.21390625 11.82765625 8.1778125 12.9053125 8.140625 14.015625 C8.09421875 14.83546875 8.0478125 15.6553125 8 16.5 C8.70899445 16.49631283 9.41798889 16.49262566 10.14846802 16.48882675 C27.41745609 16.40040441 44.6863865 16.33425577 61.95555115 16.29275131 C70.30687603 16.27214542 78.6580496 16.24406273 87.00927734 16.19824219 C94.29008971 16.15831379 101.57079246 16.13255284 108.85171127 16.12364602 C112.70525435 16.11844138 116.5584839 16.10625021 120.41192627 16.07707977 C124.0431796 16.04981548 127.67399193 16.04157698 131.30533791 16.04756927 C133.26478848 16.04595387 135.22419164 16.02448887 137.18351746 16.00231934 C145.3585509 16.04039578 150.92013204 16.9247847 157.2421875 22.46484375 C157.78101563 23.11582031 158.31984375 23.76679687 158.875 24.4375 C159.42929687 25.08589844 159.98359375 25.73429687 160.5546875 26.40234375 C164.35366986 31.91600193 164.29678539 36.97682996 164.29052734 43.45922852 C164.29724457 44.45815125 164.30396179 45.45707397 164.31088257 46.48626709 C164.32986073 49.78386422 164.3337862 53.08125794 164.3359375 56.37890625 C164.34236375 58.67146387 164.34909198 60.96402066 164.35610962 63.25657654 C164.36808064 68.05900984 164.37179043 72.86137119 164.37060547 77.66381836 C164.37040188 83.82338109 164.39774638 89.98248451 164.43214989 96.14193821 C164.45435953 100.87479278 164.45844489 105.60753558 164.45738602 110.34043694 C164.4597493 112.61188279 164.4686135 114.8833314 164.48405075 117.15472603 C164.50359744 120.32686987 164.49791773 123.49800674 164.48583984 126.67016602 C164.49707886 127.61105576 164.50831787 128.5519455 164.51989746 129.52134705 C164.45823214 135.87924169 164.45823214 135.87924169 162.09463501 139.0811615 C159.83271149 140.61331587 158.70661572 141.04229087 156 141 C155.01 141.01546875 155.01 141.01546875 154 141.03125 C150.93781379 140.21785679 149.90936442 139.04397076 148 136.5 C147.3979638 133.44246425 147.45682625 130.42068452 147.48583984 127.31274414 C147.47515221 125.91940102 147.47515221 125.91940102 147.46424866 124.49790955 C147.444947 121.42677627 147.45325154 118.35633018 147.4609375 115.28515625 C147.45103348 113.15049735 147.43909337 111.015847 147.42520142 108.88121033 C147.39279996 103.25904718 147.38244396 97.63707887 147.37835693 92.01483154 C147.36960984 83.01915836 147.33411789 74.02364562 147.2861824 65.02810478 C147.27358932 61.88554297 147.27435619 58.74318316 147.27645874 55.6006012 C147.26987781 53.67261601 147.26287143 51.74463222 147.25537109 49.81665039 C147.25949509 48.94324005 147.26361908 48.06982971 147.26786804 47.16995239 C147.284235 41.05988545 147.284235 41.05988545 145 35.5 C141.58066953 33.82518237 138.8120453 33.24977096 135.02586365 33.24831772 C134.04364114 33.24310222 133.06141863 33.23788673 132.0494318 33.23251319 C130.44219573 33.23920535 130.44219573 33.23920535 128.80249023 33.24603271 C127.65835128 33.24291273 126.51421232 33.23979275 125.33540249 33.23657823 C121.49308085 33.22858681 117.65091663 33.23492644 113.80859375 33.24121094 C111.05737988 33.23960202 108.30617275 33.23501344 105.55496216 33.23059082 C98.85294792 33.22169443 92.15097845 33.22361992 85.44896245 33.2294161 C80.00241939 33.23393162 74.55588888 33.23454597 69.10934448 33.23236847 C68.3343644 33.232062 67.55938432 33.23175554 66.76091999 33.23143978 C65.18659631 33.23080034 63.61227264 33.23015191 62.03794897 33.2294946 C47.27315833 33.22379059 32.50839253 33.23035032 17.74360597 33.24109533 C5.07287332 33.25003091 -7.59782269 33.24847889 -20.26855469 33.23925781 C-34.98026985 33.22855644 -49.69196325 33.22433992 -64.40368176 33.23048234 C-65.97223599 33.23111944 -67.54079024 33.23174818 -69.10934448 33.23236847 C-69.88111686 33.23267702 -70.65288923 33.23298557 -71.44804865 33.23330347 C-76.88847695 33.23503081 -82.32889146 33.23211447 -87.76931763 33.22740936 C-94.3987629 33.22180201 -101.0281608 33.2233139 -107.65760064 33.23397085 C-111.04049489 33.23922956 -114.42324466 33.24020562 -117.80614853 33.23467255 C-121.47167522 33.2292289 -125.13697791 33.23603714 -128.80249023 33.24603271 C-129.87398095 33.24157127 -130.94547167 33.23710983 -132.0494318 33.23251319 C-133.03165431 33.23772868 -134.01387682 33.24294418 -135.02586365 33.24831772 C-136.29481051 33.24880478 -136.29481051 33.24880478 -137.58939266 33.24930167 C-140.38212167 33.53973989 -142.48813809 34.25386175 -145 35.5 C-146.99642306 39.01665944 -147.28588762 42.24349749 -147.4140625 46.23828125 C-147.45273438 47.30498047 -147.49140625 48.37167969 -147.53125 49.47070312 C-147.5621875 50.57349609 -147.593125 51.67628906 -147.625 52.8125 C-147.66367188 53.93462891 -147.70234375 55.05675781 -147.7421875 56.21289062 C-147.83622011 58.97509852 -147.92187341 61.737304 -148 64.5 C-147.4126709 64.61609619 -146.8253418 64.73219238 -146.22021484 64.85180664 C-133.84916171 67.4245702 -124.99873452 73.69263443 -117 83.5 C-111.64242095 92.0935568 -108.61075908 100.68155336 -108.6875 110.8125 C-108.69269653 111.93072144 -108.69269653 111.93072144 -108.69799805 113.0715332 C-108.86126251 121.37998045 -110.97513479 128.21691057 -115 135.5 C-110.16205105 134.0106042 -105.72004859 132.05307205 -101.171875 129.8671875 C-100.42399719 129.51165802 -99.67611938 129.15612854 -98.90557861 128.78982544 C-96.5188139 127.65481555 -94.13422906 126.51532555 -91.75 125.375 C-85.51032589 122.39442976 -79.26177081 119.43387596 -73 116.5 C-71.78428314 115.92693115 -71.78428314 115.92693115 -70.54400635 115.34228516 C-68.13656552 114.21285521 -65.72198133 113.10034674 -63.3046875 111.9921875 C-62.58263123 111.6512204 -61.86057495 111.3102533 -61.11663818 110.95895386 C-53.63276794 107.57132609 -46.65718046 107.06955469 -38.60546875 109.10546875 C-31.90202285 111.83555284 -27.75629336 118.06377386 -24.5625 124.3125 C-23.04090592 132.93486645 -23.01335004 141.04693769 -28 148.5 C-34.00379897 154.34028634 -41.89632576 157.61403431 -49.375 161.125 C-50.65800425 161.73515029 -51.94071453 162.34591906 -53.22314453 162.95727539 C-63.85442717 168.01213909 -74.53909197 172.95483301 -85.2421875 177.85546875 C-88.79873496 179.48414075 -92.34708107 181.12739854 -95.8828125 182.80078125 C-96.59195801 183.13601807 -97.30110352 183.47125488 -98.03173828 183.81665039 C-99.83502424 184.6717685 -101.63636235 185.53099112 -103.4375 186.390625 C-106 187.5 -106 187.5 -108 187.5 C-108 203.67 -108 219.84 -108 236.5 C-76.49133169 236.41658543 -44.98272104 236.32609447 -13.47412362 236.21994839 C-9.75529165 236.20742933 -6.03645939 236.19499659 -2.31762695 236.18261719 C-1.57726604 236.18015119 -0.83690513 236.1776852 -0.07410904 236.17514448 C11.91790741 236.13540736 23.90993329 236.10266424 35.9019772 236.07250018 C48.20447474 236.04139976 60.50693218 236.00279641 72.80938464 235.95720994 C80.40228272 235.92931165 87.99515142 235.90728444 95.588087 235.89273749 C101.40773093 235.88096144 107.22730549 235.85875276 113.04690361 235.83261681 C115.43621519 235.82352835 117.82554247 235.81784786 120.21487045 235.81578636 C123.4712545 235.81247283 126.72736069 235.79701969 129.98368835 235.7784729 C131.40927481 235.781375 131.40927481 235.781375 132.86366099 235.78433573 C139.16902717 235.74902062 139.16902717 235.74902062 145 233.5 C147.51985042 229.39348914 147.27966451 224.95599491 147.2734375 220.27734375 C147.29371576 218.67121685 147.31456633 217.0650971 147.3359375 215.45898438 C147.35857612 212.94191415 147.37502866 210.42512654 147.38085938 207.90795898 C147.39037623 205.46807636 147.42412554 203.02944582 147.4609375 200.58984375 C147.45589203 199.83871811 147.45084656 199.08759247 147.44564819 198.31370544 C147.51208059 194.78600383 147.72301318 192.85879324 149.90869141 190.02758789 C152.17697431 188.37072983 153.22480293 187.95663755 156 188 C156.99 187.98453125 156.99 187.98453125 158 187.96875 C161.07643023 188.78592678 162.08820099 189.93364954 164 192.5 C164.60666813 195.66802488 164.56036472 198.7980137 164.53125 202.015625 C164.5350769 202.94542175 164.53890381 203.87521851 164.54284668 204.83319092 C164.54556676 206.80010053 164.53819882 208.76704625 164.52148438 210.73388672 C164.5001726 213.72576986 164.52123236 216.71522514 164.546875 219.70703125 C164.54422985 221.62240109 164.539101 223.53776943 164.53125 225.453125 C164.53934692 226.33985901 164.54744385 227.22659302 164.55578613 228.14019775 C164.45153383 235.14658563 162.68740723 240.43325696 158.03515625 245.7421875 C157.38417969 246.28101563 156.73320312 246.81984375 156.0625 247.375 C155.41410156 247.92929687 154.76570313 248.48359375 154.09765625 249.0546875 C149.73615633 252.0598178 145.99216241 252.74935495 140.74211121 252.74050903 C139.48152893 252.74325836 138.22094666 252.74600769 136.92216492 252.74884033 C135.53298854 252.74176298 134.14381314 252.73449337 132.75463867 252.72705078 C131.28593961 252.72648639 129.81723999 252.72680377 128.34854126 252.72793579 C124.36750977 252.72850922 120.386599 252.71675646 116.40559554 252.70278788 C112.24292219 252.69027895 108.08024601 252.68910989 103.91755676 252.68673706 C96.03764389 252.68052277 88.15778656 252.66411264 80.27789813 252.64403808 C69.6278793 252.61749581 58.97784527 252.60670602 48.3278017 252.59503365 C31.5518262 252.57623202 14.77596791 252.536386 -2 252.5 C-2 276.26 -2 300.02 -2 324.5 C-0.68 325.16 0.64 325.82 2 326.5 C3.72460079 327.97862855 5.40818146 329.50563763 7.0625 331.0625 C10.75363459 334.4953483 14.50410259 337.77938092 18.4375 340.9375 C22.9739673 344.59635769 27.258661 348.44868963 31.52148438 352.41601562 C34.73281228 355.3870119 38.02618789 358.19953832 41.4375 360.9375 C46.20715423 364.77381182 50.67728115 368.85151786 55.13745117 373.03637695 C59.57407275 377.17363136 64.18919329 380.99898777 68.953125 384.7578125 C71.99910547 387.35038367 71.98018116 388.25424643 72.3125 392.375 C72.25340627 395.32968653 72.06564964 396.39058393 70.5 399 C67.74551363 400.65269182 65.56414442 401.37300498 62.328125 401.19921875 C56.98097064 399.5932781 53.01864117 395.20528611 49 391.5 C47.63294922 390.25863281 47.63294922 390.25863281 46.23828125 388.9921875 C44.40277443 387.32164064 42.57208232 385.64578926 40.74609375 383.96484375 C38.08124834 381.57292703 35.35168175 379.30745116 32.5625 377.0625 C28.03216433 373.40858773 23.75181758 369.56285348 19.49609375 365.59936523 C15.30996012 361.72460255 10.94198567 358.11611533 6.47265625 354.5703125 C3.82238559 352.35128651 1.41056437 349.97524857 -1 347.5 C-1.01458252 348.13502441 -1.02916504 348.77004883 -1.04418945 349.42431641 C-1.11905089 352.32513081 -1.21558426 355.22484206 -1.3125 358.125 C-1.34633789 359.62353516 -1.34633789 359.62353516 -1.38085938 361.15234375 C-1.57843006 366.57655711 -1.79400543 370.90173079 -5 375.5 C-8.3125 377.0625 -8.3125 377.0625 -12 377.5 C-17.52272727 375.45454545 -17.52272727 375.45454545 -19 372.5 C-19.15344209 370.61527141 -19.24959571 368.72572126 -19.31640625 366.8359375 C-19.35830078 365.71445312 -19.40019531 364.59296875 -19.44335938 363.4375 C-19.48267578 362.261875 -19.52199219 361.08625 -19.5625 359.875 C-19.60568359 358.69164062 -19.64886719 357.50828125 -19.69335938 356.2890625 C-19.79967426 353.35949672 -19.90170642 350.42984412 -20 347.5 C-25.83338186 352.17491968 -31.52936264 356.90766567 -37 362 C-40.70859167 365.451655 -44.48505933 368.76522178 -48.4375 371.9375 C-52.62239279 375.30347852 -56.58298647 378.83190525 -60.5 382.5 C-66.13131461 387.77005415 -71.93378521 392.73007151 -78 397.5 C-78.67933594 398.0671875 -79.35867187 398.634375 -80.05859375 399.21875 C-83.26284699 401.3334282 -86.30224061 401.15923169 -90 400.5 C-92.5 399 -92.5 399 -94 396.5 C-94.77403846 391.08173077 -94.77403846 391.08173077 -94 388.5 C-91.81640625 386.07421875 -91.81640625 386.07421875 -89 383.5 C-88.10023438 382.64921875 -87.20046875 381.7984375 -86.2734375 380.921875 C-81.46953652 376.4934811 -76.65754792 372.15793383 -71.5625 368.0625 C-67.37762693 364.69653735 -63.41685602 361.16823983 -59.5 357.5 C-54.74041852 353.04252537 -49.83854566 348.86392035 -44.75 344.78125 C-40.24098255 341.04081507 -35.98402406 337.02863577 -31.75764465 332.97264099 C-30 331.5 -30 331.5 -27.54057312 330.04310608 C-23.1771605 327.2566248 -20.44264833 325.16451365 -19.07987976 320.0400238 C-18.74600839 315.72612024 -18.71521844 311.50873255 -18.8046875 307.1875 C-18.79950724 305.78578341 -18.78983632 304.38407609 -18.77563477 302.98242188 C-18.75449752 297.82155158 -18.81985149 292.66061892 -18.875 287.5 C-18.91625 275.95 -18.9575 264.4 -19 252.5 C-48.37 252.5 -77.74 252.5 -108 252.5 C-108 261.74 -108 270.98 -108 280.5 C-112 284.5 -112 284.5 -114 285.03125 C-114.66 285.0209375 -115.32 285.010625 -116 285 C-116.99 285.01546875 -116.99 285.01546875 -118 285.03125 C-121.09128393 284.21012771 -122.08593362 283.089901 -124 280.5 C-124.61448802 277.22485345 -124.55646561 273.97858206 -124.53344727 270.65429688 C-124.54637062 269.15613182 -124.54637062 269.15613182 -124.55955505 267.62770081 C-124.58226801 264.32445401 -124.57546647 261.02205185 -124.56640625 257.71875 C-124.57163923 255.42476142 -124.57791451 253.130775 -124.58518982 250.83679199 C-124.59560374 246.02829872 -124.59101776 241.2201012 -124.57641602 236.41162109 C-124.55922192 230.24402708 -124.58272693 224.07736408 -124.61790562 217.90987396 C-124.63984559 213.17268682 -124.6384464 208.43572364 -124.6301403 203.69850159 C-124.62931902 201.42427041 -124.63621601 199.15002308 -124.65091133 196.87583923 C-124.66829492 193.69854151 -124.6538654 190.52293229 -124.63110352 187.34570312 C-124.64864182 185.93201195 -124.64864182 185.93201195 -124.66653442 184.48976135 C-124.57348271 178.11881081 -124.57348271 178.11881081 -121.6862793 175.00340271 C-120.79980713 174.50727982 -119.91333496 174.01115692 -119 173.5 C-118.08153542 172.96693993 -118.08153542 172.96693993 -117.14451599 172.42311096 C-116.56500687 172.151436 -115.98549774 171.87976105 -115.38842773 171.59985352 C-114.71740524 171.28128387 -114.04638275 170.96271423 -113.35502625 170.63449097 C-112.63845352 170.30264801 -111.9218808 169.97080505 -111.18359375 169.62890625 C-110.42250809 169.26999298 -109.66142242 168.91107971 -108.87727356 168.54129028 C-106.40032641 167.37523074 -103.91901801 166.21879587 -101.4375 165.0625 C-99.72272426 164.25746561 -98.0082079 163.45187849 -96.29394531 162.64575195 C-84.85165957 157.27173687 -73.3906691 151.93581159 -61.90795898 146.64868164 C-51.29891577 142.56562418 -51.29891577 142.56562418 -42 136.5 C-41.71139618 133.25320705 -41.71923438 131.09272742 -43.125 128.125 C-44.92931942 126.2488472 -44.92931942 126.2488472 -47.68823242 126.21264648 C-51.65119811 126.55650278 -54.28644158 127.73454067 -57.86328125 129.47265625 C-58.52036072 129.78732346 -59.17744019 130.10199066 -59.85443115 130.42619324 C-61.27224263 131.10654931 -62.68757067 131.79210028 -64.10061646 132.4822998 C-67.88421732 134.33006724 -71.68591394 136.14006699 -75.484375 137.95703125 C-76.26615616 138.33242035 -77.04793732 138.70780945 -77.85340881 139.09457397 C-86.20329743 143.09705825 -94.62617456 146.93392519 -103.0625 150.75 C-104.4411862 151.37502825 -105.81984893 152.00010826 -107.19848633 152.62524414 C-109.70753558 153.76269372 -112.21920444 154.89355161 -114.73291016 156.02075195 C-116.74225042 156.93052573 -118.74398017 157.85762907 -120.73193359 158.81323242 C-124.88871977 160.78832994 -127.80693357 162.04398103 -132.5 161.3125 C-133.3353125 161.19519531 -134.170625 161.07789063 -135.03125 160.95703125 C-136.50078125 160.73080078 -136.50078125 160.73080078 -138 160.5 C-159.27451573 157.63758207 -192.0454639 156.91848497 -210.421875 170.1015625 C-216.32598959 175.33342642 -218.07969129 180.80040685 -219 188.5 C-219.36063849 194.73781196 -219.28205579 200.99269566 -219.265625 207.23828125 C-219.26697438 209.05047152 -219.26891719 210.86266143 -219.27142334 212.67485046 C-219.27435798 216.45457438 -219.27012817 220.23420322 -219.26074219 224.01391602 C-219.24930761 228.85370285 -219.25594287 233.6932688 -219.26788712 238.53304768 C-219.2751158 242.26740686 -219.27281385 246.00171368 -219.26763153 249.73607445 C-219.26629995 251.52102879 -219.2679255 253.30598792 -219.27259064 255.09093666 C-219.27767698 257.58199302 -219.26991794 260.07269101 -219.25878906 262.5637207 C-219.26283752 263.29679443 -219.26688599 264.02986816 -219.27105713 264.78515625 C-219.23807268 268.77618607 -218.90165295 271.95595093 -217 275.5 C-214.22899606 276.88550197 -212.0665294 276.6877467 -209 276.5 C-205.98040839 274.89070006 -205.98040839 274.89070006 -205.32136536 272.84692383 C-204.86953791 269.54723837 -204.85567485 266.27267188 -204.8581543 262.94921875 C-204.85467987 262.19428131 -204.85120544 261.43934387 -204.84762573 260.66152954 C-204.84028637 259.02571342 -204.83493131 257.38988747 -204.83133507 255.75405884 C-204.8241563 253.1649776 -204.80848087 250.5760844 -204.78999329 247.98706055 C-204.737578 240.62714145 -204.68951776 233.26732848 -204.67407227 225.90722656 C-204.66399984 221.40257927 -204.63470013 216.89840998 -204.59275246 212.39395142 C-204.58043256 210.67798474 -204.57532301 208.96195062 -204.57755089 207.24594116 C-204.57989988 204.84703359 -204.55777221 202.44950289 -204.5300293 200.05078125 C-204.53663071 199.34208893 -204.54323212 198.63339661 -204.55003357 197.90322876 C-204.48536634 194.50057265 -204.21625568 192.77639002 -202.09187317 190.0612793 C-199.82112597 188.36649653 -198.7968442 187.95629931 -196 188 C-195.01 187.98453125 -195.01 187.98453125 -194 187.96875 C-191.01757256 188.76095729 -189.90317083 190.08375813 -188 192.5 C-187.49777794 195.78097153 -187.49777794 195.78097153 -187.49447632 199.76068115 C-187.48534114 200.85990005 -187.48534114 200.85990005 -187.47602141 201.98132539 C-187.4603994 204.43806781 -187.47321809 206.89383834 -187.48583984 209.35058594 C-187.48037995 211.11157851 -187.47313908 212.87256633 -187.46424866 214.63354492 C-187.44889769 218.42700013 -187.44611536 222.22018481 -187.45301437 226.01366425 C-187.46379148 232.01477139 -187.44642869 238.0155955 -187.42520142 244.0166626 C-187.3949204 253.51265765 -187.3832451 263.00856907 -187.37962496 272.50460839 C-187.37298444 289.49779597 -187.34392223 306.49092508 -187.2945286 323.48404145 C-187.27805079 329.44626553 -187.27261017 335.40836798 -187.27611899 341.37061262 C-187.27655699 345.08577889 -187.26897693 348.80089952 -187.25944328 352.51605225 C-187.25676741 354.23490464 -187.25750042 355.95376635 -187.26195335 357.67261505 C-187.26762604 360.02565399 -187.26101282 362.37836434 -187.2515564 364.73138428 C-187.25122091 366.04619656 -187.25088543 367.36100883 -187.25053978 368.71566391 C-186.96911394 372.96652557 -186.28642831 376.43971284 -185 380.5 C-180.28410512 383.37554566 -175.22098778 382.48452912 -170 381.5 C-169.01 381.17 -168.02 380.84 -167 380.5 C-164.86556072 374.3026812 -164.71657105 368.42991175 -164.74462891 361.92480469 C-164.74100845 360.89618317 -164.737388 359.86756165 -164.73365784 358.80776978 C-164.72679367 356.58707309 -164.72425278 354.36635965 -164.72560501 352.14565277 C-164.72657347 348.63208151 -164.71359241 345.11881341 -164.69662476 341.60528564 C-164.65043164 331.62034388 -164.62572389 321.63543567 -164.61914062 311.65039062 C-164.61413579 305.53321517 -164.58994675 299.41636047 -164.55381393 293.29929352 C-164.54400038 290.96927055 -164.54169241 288.63920358 -164.54698563 286.30916595 C-164.55402912 283.05829823 -164.53683224 279.80839377 -164.51416016 276.55761719 C-164.52641884 275.11127396 -164.52641884 275.11127396 -164.53892517 273.63571167 C-164.4578891 267.12313597 -164.4578891 267.12313597 -162.09286499 263.90460205 C-159.83310163 262.38798809 -158.69721854 261.95785596 -156 262 C-155.01 261.98453125 -155.01 261.98453125 -154 261.96875 C-150.898656 262.7925445 -149.91503808 263.89384686 -148 266.5 C-147.39005 269.84602038 -147.45708052 273.16444208 -147.48583984 276.55761719 C-147.47871475 277.57922943 -147.47158966 278.60084167 -147.46424866 279.65341187 C-147.44493182 283.03476166 -147.45325591 286.41548812 -147.4609375 289.796875 C-147.45103276 292.14854854 -147.43909236 294.50021431 -147.42520142 296.85186768 C-147.39278575 303.04991949 -147.38244344 309.24779462 -147.37835693 315.44592285 C-147.36961479 325.35251821 -147.33402311 335.25896785 -147.2861824 345.16544342 C-147.2736189 348.62196804 -147.27435398 352.07830829 -147.27645874 355.53485107 C-147.26987496 357.66483704 -147.26286802 359.79482174 -147.25537109 361.92480469 C-147.25949509 362.88093658 -147.26361908 363.83706848 -147.26786804 364.82217407 C-147.23455706 370.37385886 -146.76053945 375.21204251 -145 380.5 C-140.28410512 383.37554566 -135.22098778 382.48452912 -130 381.5 C-129.01 381.17 -128.02 380.84 -127 380.5 C-125.15466856 374.93398151 -124.71864634 369.8092303 -124.7265625 363.984375 C-124.7062976 362.38801352 -124.68544734 360.79165937 -124.6640625 359.1953125 C-124.64138103 356.71119891 -124.62494712 354.22737689 -124.61914062 351.74316406 C-124.60963134 349.32305129 -124.57591157 346.90420417 -124.5390625 344.484375 C-124.54410797 343.74266052 -124.54915344 343.00094604 -124.55435181 342.23675537 C-124.48744319 338.73261348 -124.26561557 336.84314623 -122.09130859 334.03417969 C-119.82259315 332.3698547 -118.77940813 331.95657175 -116 332 C-115.01 331.98453125 -115.01 331.98453125 -114 331.96875 C-110.91755918 332.78752334 -109.91380008 333.92462431 -108 336.5 C-107.38085043 339.71583878 -107.41579518 342.89696785 -107.43359375 346.1640625 C-107.42739517 347.11131195 -107.42119659 348.0585614 -107.41481018 349.03451538 C-107.40770933 351.04008966 -107.41089065 353.04572285 -107.42358398 355.05126953 C-107.43735922 358.09390544 -107.40349234 361.13340939 -107.36523438 364.17578125 C-107.36428221 366.13020908 -107.36614723 368.0846407 -107.37109375 370.0390625 C-107.35783554 370.93734772 -107.34457733 371.83563293 -107.33091736 372.76113892 C-107.44946997 380.96456026 -110.2254372 388.05531338 -116.125 393.875 C-122.53877053 398.77228249 -130.40689391 401.23193103 -138.44921875 400.8984375 C-144.09302017 400.01686362 -149.43684015 397.80553469 -154.5078125 395.22265625 C-157.01930305 394.2362856 -157.01930305 394.2362856 -159.53515625 395.36328125 C-160.36917969 395.84152344 -161.20320313 396.31976563 -162.0625 396.8125 C-169.16756435 400.80841446 -175.7842987 401.70084108 -183.81640625 399.8515625 C-190.80107469 397.57838807 -197.37348263 394.27648975 -201.0303154 387.62630558 C-203.67976697 382.06696819 -204.56679755 377.61339553 -204.45410156 371.49194336 C-204.45468567 370.64206848 -204.45526978 369.7921936 -204.45587158 368.91656494 C-204.45311121 366.14055828 -204.42211783 363.36566003 -204.390625 360.58984375 C-204.3831553 358.65215135 -204.37746581 356.71445134 -204.37347412 354.77674866 C-204.35827522 349.70165786 -204.31904341 344.62703229 -204.2746582 339.55212402 C-204.23358103 334.36358939 -204.21543662 329.17497885 -204.1953125 323.98632812 C-204.15254319 313.82401548 -204.0843621 303.66204658 -204 293.5 C-204.99 293.83 -205.98 294.16 -207 294.5 C-214.27635717 295.31441796 -220.6867515 294.30698402 -227 290.5 C-231.10838024 286.79410433 -235.53282251 282.17902747 -236.25726891 276.47400475 C-236.26062059 275.75324572 -236.26397228 275.03248669 -236.26742554 274.28988647 C-236.28022049 273.04119278 -236.28022049 273.04119278 -236.29327393 271.76727295 C-236.29236755 270.86229065 -236.29146118 269.95730835 -236.29052734 269.02490234 C-236.29724457 268.06502411 -236.30396179 267.10514587 -236.31088257 266.11618042 C-236.32989546 262.93938022 -236.33378903 259.76279109 -236.3359375 256.5859375 C-236.34236522 254.37358514 -236.34909356 252.16123363 -236.35610962 249.94888306 C-236.3680921 245.30688508 -236.37178965 240.66496157 -236.37060547 236.02294922 C-236.37040271 230.09150372 -236.39765677 224.16053964 -236.43214989 218.22920799 C-236.45445808 213.65652298 -236.45844173 209.08395287 -236.45738602 204.51121902 C-236.45973792 202.32567314 -236.46853813 200.1401239 -236.48405075 197.95463181 C-236.50378109 194.88657392 -236.4978438 191.81954141 -236.48583984 188.75146484 C-236.49707886 187.85862793 -236.50831787 186.96579102 -236.51989746 186.04589844 C-236.42232354 176.16656815 -232.42706723 166.98245932 -226 159.5 C-218.25288678 152.00057424 -209.0973708 149.07190008 -199.00537109 146.09863281 C-196.31537183 145.2956284 -193.65745858 144.4041274 -191 143.5 C-191.58007812 142.77296875 -191.58007812 142.77296875 -192.171875 142.03125 C-201.62741468 129.86075338 -204.43780147 117.72631753 -203 102.5 C-200.58853631 90.38787557 -193.61191997 80.15058753 -184 72.5 C-177.72705724 68.544485 -171.36862029 65.60319877 -164 64.5 C-164.0314209 63.15421875 -164.0314209 63.15421875 -164.06347656 61.78125 C-164.13207616 58.41900141 -164.18200294 55.05750765 -164.21972656 51.69482422 C-164.23971295 50.24581083 -164.26691197 48.79687675 -164.30175781 47.34814453 C-164.52220504 37.94023473 -164.57853743 30.7248121 -158.03515625 23.2578125 C-157.38417969 22.71898438 -156.73320312 22.18015625 -156.0625 21.625 C-155.41410156 21.07070312 -154.76570313 20.51640625 -154.09765625 19.9453125 C-149.87198384 17.03376913 -146.211374 16.25029562 -141.12174988 16.25949097 C-139.94530914 16.25674164 -138.76886841 16.25399231 -137.55677795 16.25115967 C-136.27500168 16.25835022 -134.9932254 16.26554077 -133.67260742 16.27294922 C-132.30242928 16.27351367 -130.93225054 16.27319611 -129.56207275 16.27206421 C-125.84962411 16.27149101 -122.13730503 16.28324 -118.42488647 16.29721212 C-114.54248574 16.30972492 -110.66008196 16.31089042 -106.77766418 16.31326294 C-99.42898888 16.31947609 -92.08037316 16.33588468 -84.73172408 16.35596192 C-76.36418201 16.37832604 -67.99663707 16.38931564 -59.62907255 16.39935279 C-42.41934724 16.42025105 -25.20967993 16.45542383 -8 16.5 C-8.04640625 15.68015625 -8.0928125 14.8603125 -8.140625 14.015625 C-8.17671875 12.93796875 -8.2128125 11.8603125 -8.25 10.75 C-8.29640625 9.68265625 -8.3428125 8.6153125 -8.390625 7.515625 C-7.76151229 2.65887491 -4.94717258 -0.07729957 0 0 Z M-177 89.5 C-183.76117104 97.07743999 -186.60957177 104.05470074 -186.3515625 114.28125 C-185.8404214 118.96103076 -184.39677132 122.48698487 -182 126.5 C-181.649375 127.12519531 -181.29875 127.75039062 -180.9375 128.39453125 C-177.06086987 134.57291052 -171.23945189 138.20421924 -164.5625 140.875 C-154.7065381 142.60411612 -146.18175168 141.59213587 -137.8125 135.875 C-131.06174113 130.45822342 -126.75367485 123.08009263 -125.59375 114.4921875 C-125.30143078 104.77257334 -127.65938147 97.45613902 -134.12109375 90.078125 C-140.10560885 84.39439143 -146.4461537 81.20822987 -154.734375 80.44140625 C-163.33704155 80.66388901 -170.89466927 83.43564464 -177 89.5 Z " fill="#000000" transform="translate(292,55.5)"/>
<path d="M0 0 C0.65396381 -0.00623996 1.30792763 -0.01247993 1.98170853 -0.01890898 C4.17144147 -0.03485478 6.36006364 -0.02222988 8.54980469 -0.00964355 C10.12024586 -0.01506402 11.69068195 -0.02218626 13.2611084 -0.03088379 C17.52559358 -0.04912925 21.78969196 -0.0420447 26.05418396 -0.02936745 C30.51529998 -0.01924606 34.9763827 -0.02863072 39.4375 -0.03491211 C46.92942252 -0.04219104 54.42118735 -0.03259441 61.91308594 -0.0135498 C70.57692221 0.00821946 79.24038198 0.00116826 87.90420914 -0.02085543 C95.34041697 -0.03900247 102.7765114 -0.04157117 110.21273422 -0.03110075 C114.65510989 -0.02486197 119.09730853 -0.02404068 123.53967285 -0.0372467 C127.71602519 -0.04879453 131.89189172 -0.04079938 136.06819153 -0.01766968 C137.6016611 -0.01237682 139.1351715 -0.01390626 140.66862488 -0.02272034 C142.76075646 -0.03363768 144.8513275 -0.01996166 146.94335938 0 C148.11437195 0.0015081 149.28538452 0.0030162 150.49188232 0.00457001 C154.08917438 0.61224534 155.26270263 1.66274731 157.47167969 4.50793457 C158.00292969 6.50793457 158.00292969 6.50793457 157.97167969 8.50793457 C157.98714844 9.49793457 157.98714844 9.49793457 158.00292969 10.50793457 C157.21810175 13.46258094 155.84242519 14.60445759 153.47167969 16.50793457 C150.49188232 17.01129913 150.49188232 17.01129913 146.94335938 17.01586914 C146.28939556 17.0221091 145.63543175 17.02834907 144.96165085 17.03477812 C142.7719179 17.05072392 140.58329574 17.03809902 138.39355469 17.0255127 C136.82311351 17.03093316 135.25267742 17.0380554 133.68225098 17.04675293 C129.4177658 17.0649984 125.15366741 17.05791384 120.88917542 17.04523659 C116.4280594 17.0351152 111.96697668 17.04449987 107.50585938 17.05078125 C100.01393686 17.05806018 92.52217202 17.04846355 85.03027344 17.02941895 C76.36643716 17.00764968 67.70297739 17.01470089 59.03915024 17.03672457 C51.60294241 17.05487161 44.16684797 17.05744031 36.73062515 17.04696989 C32.28824949 17.04073111 27.84605084 17.03990982 23.40368652 17.05311584 C19.22733419 17.06466367 15.05146765 17.05666852 10.87516785 17.03353882 C9.34169827 17.02824596 7.80818787 17.0297754 6.2747345 17.03858948 C4.18260291 17.04950682 2.09203188 17.0358308 0 17.01586914 C-1.17101257 17.01436104 -2.34202515 17.01285294 -3.54852295 17.01129913 C-7.14581501 16.4036238 -8.31934325 15.35312183 -10.52832031 12.50793457 C-11.05957031 10.50793457 -11.05957031 10.50793457 -11.02832031 8.50793457 C-11.04378906 7.51793457 -11.04378906 7.51793457 -11.05957031 6.50793457 C-9.52954491 0.74783892 -5.33324865 0.00686849 0 0 Z " fill="#000000" transform="translate(218.5283203125,119.4920654296875)"/>
<path d="M0 0 C1.66145554 -0.01073296 1.66145554 -0.01073296 3.35647583 -0.02168274 C4.57729858 -0.02437164 5.79812134 -0.02706055 7.05593872 -0.02983093 C8.97794601 -0.03968773 8.97794601 -0.03968773 10.93878174 -0.04974365 C14.45947449 -0.06715653 17.98015367 -0.07770587 21.50087881 -0.08594918 C23.69965571 -0.09109803 25.89842838 -0.09717377 28.0972023 -0.10346031 C34.97429555 -0.12251197 41.85137805 -0.13674396 48.72849262 -0.14507228 C56.67160933 -0.15485001 64.61444776 -0.18118328 72.55746639 -0.22157317 C78.69425123 -0.2517097 84.83095619 -0.26653874 90.96781361 -0.26985329 C94.63450975 -0.27220634 98.3009086 -0.28119937 101.96752548 -0.30631447 C106.05707139 -0.33387412 110.14599345 -0.32977169 114.23562622 -0.32279968 C115.45240051 -0.33560974 116.6691748 -0.3484198 117.92282104 -0.36161804 C119.03609772 -0.35467422 120.14937439 -0.34773041 121.29638672 -0.34057617 C122.2635153 -0.34296453 123.23064388 -0.34535288 124.22707939 -0.34781361 C127.5117698 0.29025899 128.70203552 1.57898897 130.775177 4.14717102 C131.306427 6.14717102 131.306427 6.14717102 131.275177 8.14717102 C131.29064575 9.13717102 131.29064575 9.13717102 131.306427 10.14717102 C130.53155622 13.0643316 129.08311012 14.24079434 126.775177 16.14717102 C124.23266602 16.65053558 124.23266602 16.65053558 121.30984497 16.65510559 C120.19945862 16.66638489 119.08907227 16.67766418 117.94503784 16.68928528 C116.73140564 16.68118835 115.51777344 16.67309143 114.2673645 16.66474915 C112.34491913 16.67526306 112.34491913 16.67526306 110.38363647 16.68598938 C106.87116611 16.70421959 103.35916587 16.69715687 99.84668732 16.68447304 C96.17033118 16.67434362 92.4940152 16.68373854 88.81765747 16.6900177 C82.64391861 16.69729431 76.47037117 16.68770619 70.29666138 16.6686554 C63.15968167 16.64688643 56.02315904 16.65393781 48.88619041 16.67596102 C42.75782039 16.69411477 36.62958795 16.69667353 30.50119972 16.68620634 C26.8412896 16.67997119 23.1815943 16.67913613 19.521698 16.69235229 C15.44185327 16.70605591 11.3627961 16.68706174 7.2829895 16.66474915 C6.0693573 16.67284607 4.8557251 16.68094299 3.60531616 16.68928528 C1.93973663 16.67236633 1.93973663 16.67236633 0.24050903 16.65510559 C-0.72402191 16.65359749 -1.68855286 16.65208939 -2.68231201 16.65053558 C-5.96614447 16.00040471 -7.14362774 14.71282132 -9.224823 12.14717102 C-10.60231354 8.65752831 -10.33597129 7.42239536 -8.912323 3.89717102 C-6.37458855 -0.23839624 -4.60393313 0.02035942 0 0 Z " fill="#000000" transform="translate(277.2248229980469,215.8528289794922)"/>
<path d="M0 0 C1.04873795 -0.0071553 2.09747589 -0.01431061 3.17799377 -0.02168274 C4.33336136 -0.02437164 5.48872894 -0.02706055 6.67910767 -0.02983093 C7.89217087 -0.03640213 9.10523407 -0.04297333 10.35505676 -0.04974365 C13.68775805 -0.06609827 17.02039582 -0.07770524 20.35312223 -0.08594918 C22.43464247 -0.09109856 24.51615824 -0.09717427 26.59767532 -0.10346031 C33.10848829 -0.12251143 39.61928992 -0.13674348 46.1301254 -0.14507228 C53.64932539 -0.15484954 61.16823138 -0.18118176 68.68732774 -0.22157317 C74.49715152 -0.25171337 80.30689091 -0.26653908 86.11679137 -0.26985329 C89.58787488 -0.27220594 93.05864427 -0.28119367 96.52964401 -0.30631447 C100.40117608 -0.33388162 104.27231978 -0.32977046 108.14395142 -0.32279968 C109.29527054 -0.33560974 110.44658966 -0.3484198 111.63279724 -0.36161804 C112.68717484 -0.35467422 113.74155243 -0.34773041 114.82788086 -0.34057617 C115.74338903 -0.34296453 116.65889721 -0.34535288 117.60214806 -0.34781361 C120.8045048 0.3021507 122.00541304 1.65013448 124.04092407 4.14717102 C124.57217407 6.14717102 124.57217407 6.14717102 124.54092407 8.14717102 C124.55639282 9.13717102 124.55639282 9.13717102 124.57217407 10.14717102 C123.7996512 13.05549241 122.33370399 14.23958564 120.04092407 16.14717102 C117.60773468 16.65053558 117.60773468 16.65053558 114.84133911 16.65510559 C113.78985184 16.66638489 112.73836456 16.67766418 111.65501404 16.68928528 C109.93274849 16.67713989 109.93274849 16.67713989 108.1756897 16.66474915 C106.96233444 16.67175842 105.74897919 16.6787677 104.49885559 16.68598938 C101.17419924 16.7005784 97.85053859 16.69715946 94.52593803 16.68447304 C91.04577171 16.67434104 87.56564774 16.68373926 84.08547974 16.6900177 C78.24128588 16.69729357 72.39729425 16.68770817 66.5531311 16.6686554 C59.7978636 16.64688652 53.043079 16.65393795 46.2878232 16.67596102 C40.48641214 16.69411692 34.6851464 16.69667249 28.88371611 16.68620634 C25.41942143 16.67997236 21.95535368 16.67913287 18.49107361 16.69235229 C14.62924448 16.70605955 10.76795562 16.68705787 6.90615845 16.66474915 C5.75798141 16.67284607 4.60980438 16.68094299 3.42683411 16.68928528 C1.8496032 16.67236633 1.8496032 16.67236633 0.24050903 16.65510559 C-0.6724015 16.65359749 -1.58531204 16.65208939 -2.52588654 16.65053558 C-5.72662836 15.98838408 -6.91600991 14.64168622 -8.95907593 12.14717102 C-10.33656647 8.65752831 -10.07022422 7.42239536 -8.64657593 3.89717102 C-6.16205999 -0.15166977 -4.50239783 0.02103397 0 0 Z " fill="#000000" transform="translate(283.9590759277344,151.8528289794922)"/>
<path d="M0 0 C0.97301056 -0.0071553 1.94602112 -0.01431061 2.94851685 -0.02168274 C4.01972778 -0.02437164 5.09093872 -0.02706055 6.1946106 -0.02983093 C7.31989166 -0.03640213 8.44517273 -0.04297333 9.60455322 -0.04974365 C13.34046488 -0.06950769 17.07633633 -0.081145 20.81228638 -0.09111023 C22.72171209 -0.09722352 22.72171209 -0.09722352 24.66971207 -0.10346031 C30.70959831 -0.12217857 36.74946005 -0.13674277 42.78936756 -0.14507228 C49.76353303 -0.15484886 56.73738147 -0.18117952 63.7114352 -0.22157317 C69.75025904 -0.25535102 75.78892872 -0.26721546 81.82785416 -0.27127647 C84.39795204 -0.27616022 86.96804611 -0.28782455 89.53808212 -0.30631447 C93.12958052 -0.33055092 96.7202437 -0.32976906 100.3117981 -0.32279968 C101.37896057 -0.33560974 102.44612305 -0.3484198 103.54562378 -0.36161804 C110.74357317 -0.31054643 110.74357317 -0.31054643 114.0413208 2.05154419 C115.48484261 4.30691769 115.92412664 5.48939444 115.88259888 8.14717102 C115.89806763 9.13717102 115.89806763 9.13717102 115.91384888 10.14717102 C115.07778928 13.2946895 114.06206214 14.22350747 111.38259888 16.14717102 C107.71070101 16.76656977 104.05965271 16.69302784 100.34353638 16.66474915 C99.21796326 16.67175842 98.09239014 16.6787677 96.93270874 16.68598938 C93.2074221 16.70361262 89.48289342 16.69193047 85.75759888 16.67842102 C83.17214817 16.68111467 80.58669845 16.68499602 78.00125122 16.6900177 C72.58073355 16.69591866 67.16050142 16.68771115 61.74002075 16.6686554 C55.4755245 16.64688665 49.21154899 16.65393816 42.94706535 16.67596102 C36.91779261 16.69630764 30.88877441 16.69414472 24.85946655 16.68243408 C22.294972 16.67976227 19.73046419 16.68305244 17.16598511 16.69235229 C13.58418372 16.70249024 10.00338772 16.68705362 6.42166138 16.66474915 C4.8256308 16.67689453 4.8256308 16.67689453 3.19735718 16.68928528 C-3.96362323 16.60650792 -3.96362323 16.60650792 -7.24874878 14.29841614 C-9.04896405 11.46884124 -9.54888517 9.50445255 -9.61740112 6.14717102 C-7.22675756 1.0243634 -5.47355171 0.02757135 0 0 Z " fill="#000000" transform="translate(292.6174011230469,183.8528289794922)"/>
<path d="M0 0 C2.5 1.5 2.5 1.5 4 4 C4.791013 8.02098277 4.62153384 10.96411027 2.5 14.5 C-1.03588973 16.62153384 -3.97901723 16.791013 -8 16 C-10.5 14.5 -10.5 14.5 -12 12 C-12.791013 7.97901723 -12.62153384 5.03588973 -10.5 1.5 C-6.96411027 -0.62153384 -4.02098277 -0.791013 0 0 Z " fill="#000000" transform="translate(180,356)"/>
<path d="M0 0 C2.5 1.5 2.5 1.5 4 4 C4.791013 8.02098277 4.62153384 10.96411027 2.5 14.5 C-1.03588973 16.62153384 -3.97901723 16.791013 -8 16 C-10.5 14.5 -10.5 14.5 -12 12 C-12.791013 7.97901723 -12.62153384 5.03588973 -10.5 1.5 C-6.96411027 -0.62153384 -4.02098277 -0.791013 0 0 Z " fill="#000000" transform="translate(452,212)"/>
</svg>
