<svg width="512" height="512" viewBox="0 0 512 512" fill="none" xmlns="http://www.w3.org/2000/svg">
<path d="M444.455 45.4973C442.872 44.5196 441.049 44.0012 439.188 44H138.926C113.113 44 92.1105 64.7963 92.1105 90.2842L90.346 348.855H36.0831C30.5142 348.855 26 353.369 26 358.938V405.522C26.0353 439.729 53.7556 467.449 87.9634 467.488C88.6571 467.488 89.3538 467.418 90.0355 467.276H340.556C342.048 467.382 343.554 467.453 345.069 467.453C379.809 467.39 407.939 439.22 407.951 404.481V253.33H475.917C481.486 253.33 486 248.816 486 243.247V93.5693C485.878 69.5 468.252 49.101 444.455 45.4973ZM46.1661 405.525V369.025H282.188V404.485C282.175 420.283 288.121 435.504 298.837 447.11H86.585C86.1081 447.113 85.6362 447.15 85.1674 447.22C63.2327 445.728 46.1933 427.511 46.1661 405.525ZM387.785 93.5693V404.481C387.766 415.75 383.287 426.554 375.326 434.53C367.706 442.348 357.353 446.911 346.44 447.26C345.895 447.165 345.343 447.117 344.79 447.113H341.245C319.284 444.952 302.501 426.558 302.354 404.489V358.938C302.354 353.372 297.841 348.855 292.271 348.855H110.512L112.277 90.3558C112.423 75.7737 124.341 64.0562 138.926 64.1661H397.8C391.304 72.5907 387.782 82.931 387.785 93.5693ZM465.833 233.163H407.95V93.5693C408.213 77.7712 421.093 65.1079 436.891 65.1079C452.69 65.1079 465.569 77.7712 465.833 93.5693V233.163Z" fill="black" stroke="black" stroke-width="3"/>
<path d="M155.453 153.236H250.95C256.52 153.236 261.033 148.723 261.033 143.153C261.033 137.584 256.52 133.07 250.95 133.07H155.453C149.883 133.07 145.37 137.584 145.37 143.153C145.37 148.723 149.883 153.236 155.453 153.236ZM333.593 205.164H155.453C149.883 205.164 145.37 209.678 145.37 215.247C145.37 220.813 149.883 225.33 155.453 225.33H333.593C339.161 225.33 343.676 220.813 343.676 215.247C343.676 209.678 339.161 205.164 333.593 205.164ZM333.593 277.254H155.453C149.883 277.254 145.37 281.772 145.37 287.338C145.37 292.906 149.883 297.421 155.453 297.421H333.593C339.161 297.421 343.676 292.906 343.676 287.338C343.676 281.772 339.161 277.254 333.593 277.254Z" fill="black" stroke="black" stroke-width="3"/>
</svg>
