<svg width="326" height="300" viewBox="0 0 326 300" fill="none" xmlns="http://www.w3.org/2000/svg">
<path d="M296.434 1.06071C295.313 0.368092 294.021 0.000843684 292.704 0H79.9972C61.7107 0 46.8329 14.7321 46.8329 32.7879L45.5829 215.96H7.14286C3.19786 215.96 0 219.158 0 223.103V256.103C0.025 280.335 19.6621 299.972 43.895 300C44.3864 300 44.88 299.95 45.3629 299.85H222.832C223.889 299.925 224.956 299.975 226.029 299.975C250.639 299.931 270.566 279.975 270.575 255.366V148.29H318.722C322.667 148.29 325.865 145.092 325.865 141.147V35.115C325.779 18.0643 313.292 3.61357 296.434 1.06071ZM256.289 35.115V255.366C256.276 263.349 253.103 271.002 247.464 276.652C242.065 282.191 234.731 285.423 227.001 285.67C226.614 285.603 226.223 285.569 225.831 285.566H223.32C207.763 284.035 195.874 271.005 195.77 255.371V223.103C195.77 219.16 192.573 215.96 188.627 215.96H59.8686L61.1186 32.8386C61.2222 22.5086 69.665 14.2079 79.9972 14.2857H263.384C258.782 20.2537 256.288 27.5788 256.289 35.115Z" fill="black"/>
<path d="M91.7054 77.3795H159.355C163.301 77.3795 166.498 74.1823 166.498 70.2366C166.498 66.2916 163.301 63.0938 159.355 63.0938H91.7054C87.7596 63.0938 84.5625 66.2916 84.5625 70.2366C84.5625 74.1823 87.7596 77.3795 91.7054 77.3795ZM217.9 114.165H91.7054C87.7596 114.165 84.5625 117.363 84.5625 121.308C84.5625 125.251 87.7596 128.451 91.7054 128.451H154.803H217.9C221.845 128.451 225.043 125.251 225.043 121.308C225.043 117.363 221.845 114.165 217.9 114.165ZM217.9 165.234H91.7054C87.7596 165.234 84.5625 168.434 84.5625 172.377C84.5625 176.322 87.7596 179.52 91.7054 179.52H217.9C221.845 179.52 225.043 176.322 225.043 172.377C225.043 168.434 221.845 165.234 217.9 165.234Z" fill="black"/>
</svg>
