<svg width="200" height="200" viewBox="0 0 200 200" fill="none" xmlns="http://www.w3.org/2000/svg">
<path d="M101.563 0.390644C103.198 1.08446 104.701 1.97514 106.226 2.88088C106.657 3.12994 107.088 3.37901 107.533 3.63562C108.802 4.37065 110.065 5.11428 111.329 5.85939C111.974 6.23431 112.619 6.60872 113.265 6.98244C114.595 7.75471 115.919 8.53685 117.238 9.32753C117.733 9.62436 118.23 9.91996 118.727 10.2144C119.444 10.6399 120.16 11.0688 120.875 11.499C121.478 11.8608 121.478 11.8608 122.094 12.2299C123.047 12.8906 123.047 12.8906 123.829 14.0625C123.923 15.0932 123.923 15.0932 123.917 16.347C123.917 16.8162 123.917 17.2853 123.917 17.7687C123.913 18.2753 123.909 18.7819 123.905 19.3039C123.903 19.8277 123.902 20.3515 123.902 20.8753C123.899 22.2528 123.891 23.6302 123.882 25.0077C123.874 26.4138 123.871 27.8199 123.867 29.2259C123.858 31.984 123.845 34.742 123.829 37.5C124.377 37.6768 124.377 37.6768 124.936 37.8572C126.15 38.2736 127.143 38.7789 128.246 39.4303C128.632 39.6568 129.018 39.8834 129.415 40.1168C129.819 40.357 130.224 40.5972 130.64 40.8447C131.057 41.0887 131.473 41.3327 131.902 41.5841C133.745 42.6672 135.579 43.7596 137.383 44.9066C137.647 45.0725 137.911 45.2384 138.183 45.4093C138.657 45.7094 139.127 46.0151 139.593 46.3273C140.654 46.9975 141.263 47.2778 142.528 47.1708C143.777 46.8686 144.644 46.4649 145.742 45.8054C146.302 45.4728 146.302 45.4728 146.874 45.1334C147.467 44.7749 147.467 44.7749 148.072 44.4092C148.91 43.9132 149.749 43.4173 150.588 42.9215C151.832 42.1804 153.074 41.4371 154.314 40.6889C155.412 40.0272 156.514 39.3736 157.618 38.7207C157.946 38.5186 158.274 38.3166 158.613 38.1084C160.69 36.8862 162.04 36.3615 164.454 36.7188C165.57 37.1433 166.559 37.7128 167.579 38.3301C167.874 38.5017 168.17 38.6734 168.475 38.8502C169.126 39.2294 169.775 39.6116 170.423 39.9964C171.561 40.6698 172.704 41.3318 173.848 41.9922C185.372 48.6532 185.372 48.6532 186.719 50C186.834 51.1163 186.834 51.1163 186.858 52.5616C186.865 52.9562 186.865 52.9562 186.873 53.3587C186.889 54.2309 186.898 55.103 186.905 55.9754C186.909 56.2734 186.912 56.5714 186.915 56.8785C186.931 58.4566 186.943 60.0346 186.95 61.6127C186.959 63.2409 186.985 64.8683 187.016 66.4962C187.037 67.7496 187.043 69.0027 187.046 70.2562C187.05 70.8562 187.059 71.4561 187.074 72.0559C187.179 76.7228 187.179 76.7229 186.089 78.1948C185.285 78.815 184.51 79.2548 183.594 79.6875C182.968 80.0756 182.968 80.0756 182.328 80.4715C181.924 80.6987 181.519 80.9259 181.103 81.16C180.878 81.2871 180.654 81.4141 180.422 81.5451C179.715 81.9452 179.006 82.3424 178.296 82.7393C177.833 82.9997 177.37 83.2604 176.907 83.5213C176.677 83.6503 176.447 83.7794 176.21 83.9123C175.742 84.1782 175.278 84.4489 174.815 84.7241C173.578 85.4554 172.383 86.0582 171.032 86.5543C169.334 87.2421 167.89 87.9369 166.797 89.4531C165.604 92.7674 165.778 96.4056 165.845 99.8779C165.849 100.603 165.849 100.603 165.853 101.344C165.744 107.647 165.744 107.647 168.578 112.959C170.505 114.247 172.596 114.933 174.813 115.565C177.196 116.355 179.245 117.71 181.373 119.019C182.152 119.468 182.932 119.918 183.712 120.366C185.959 121.659 185.959 121.659 186.719 122.656C186.873 123.807 186.873 123.807 186.883 125.233C186.887 125.492 186.89 125.752 186.893 126.02C186.902 126.88 186.903 127.739 186.902 128.598C186.905 129.196 186.908 129.794 186.911 130.392C186.917 131.646 186.917 132.899 186.915 134.153C186.913 135.758 186.925 137.362 186.94 138.967C186.951 140.202 186.952 141.437 186.95 142.673C186.951 143.264 186.955 143.856 186.962 144.447C186.97 145.276 186.966 146.103 186.96 146.932C186.96 147.403 186.961 147.874 186.962 148.359C186.588 150.285 185.409 151.122 183.845 152.193C183.527 152.375 183.209 152.556 182.882 152.744C182.517 152.954 182.152 153.165 181.776 153.382C181.385 153.603 180.994 153.825 180.591 154.053C180.185 154.286 179.78 154.519 179.361 154.76C178.494 155.258 177.626 155.755 176.757 156.25C175.349 157.054 173.945 157.865 172.542 158.678C170.763 159.707 168.984 160.736 167.203 161.763C166.842 161.972 166.48 162.18 166.107 162.395C164.477 163.321 163.193 163.607 161.329 163.281C159.694 162.587 158.191 161.697 156.666 160.791C156.022 160.42 156.022 160.42 155.366 160.041C154.094 159.304 152.828 158.559 151.563 157.813C150.881 157.415 150.199 157.018 149.517 156.621C145.237 154.124 145.237 154.124 143.891 153.191C142.708 152.605 142.274 152.775 141.016 153.125C140.305 153.465 139.608 153.834 138.923 154.222C138.522 154.448 138.121 154.674 137.708 154.906C137.074 155.269 137.074 155.269 136.426 155.64C135.993 155.885 135.56 156.13 135.113 156.382C132.236 158.015 129.374 159.674 126.544 161.388C124.692 162.5 124.692 162.5 123.829 162.5C123.833 162.789 123.837 163.079 123.842 163.377C123.881 166.107 123.911 168.836 123.93 171.566C123.94 172.97 123.954 174.373 123.976 175.777C123.997 177.132 124.009 178.486 124.014 179.842C124.019 180.609 124.035 181.376 124.05 182.143C124.051 185.622 124.051 185.622 122.958 187.173C122.601 187.41 122.244 187.647 121.876 187.891C121.572 188.099 121.268 188.307 120.954 188.521C120.636 188.703 120.319 188.885 119.991 189.072C119.626 189.282 119.261 189.493 118.885 189.71C118.494 189.931 118.103 190.153 117.701 190.381C117.295 190.614 116.889 190.847 116.471 191.088C115.603 191.586 114.735 192.083 113.867 192.578C112.459 193.382 111.055 194.193 109.652 195.006C107.873 196.035 106.093 197.065 104.313 198.091C103.951 198.3 103.589 198.508 103.217 198.723C101.587 199.649 100.303 199.935 98.438 199.609C96.8032 198.916 95.3004 198.025 93.7749 197.119C93.3438 196.87 92.9126 196.621 92.4684 196.364C91.1993 195.629 89.9356 194.886 88.6724 194.141C88.0273 193.766 87.3819 193.391 86.7361 193.018C85.406 192.245 84.0824 191.463 82.7632 190.673C82.2677 190.376 81.7713 190.08 81.2744 189.786C80.5567 189.36 79.8413 188.931 79.1265 188.501C78.7242 188.26 78.3218 188.019 77.9073 187.77C76.9537 187.109 76.9537 187.109 76.1724 185.938C76.0785 184.907 76.0785 184.907 76.0837 183.653C76.0838 182.949 76.0838 182.949 76.0839 182.231C76.0879 181.725 76.092 181.218 76.0961 180.696C76.0976 180.172 76.0987 179.649 76.0995 179.125C76.1024 177.747 76.1101 176.37 76.1188 174.992C76.1268 173.586 76.1303 172.18 76.1343 170.774C76.1426 168.016 76.156 165.258 76.1724 162.5C75.8009 162.379 75.4295 162.257 75.0467 162.132C74.0802 161.804 73.3136 161.487 72.4493 160.967C72.2012 160.819 71.9531 160.671 71.6975 160.518C71.434 160.359 71.1705 160.199 70.899 160.034C70.6181 159.868 70.3372 159.701 70.0478 159.529C68.3288 158.508 66.6247 157.465 64.9251 156.412C64.3519 156.062 64.3519 156.062 63.767 155.704C63.0144 155.244 62.265 154.779 61.5194 154.308C60.9997 153.992 60.9997 153.992 60.4696 153.67C60.0113 153.385 60.0113 153.385 59.5438 153.094C58.2783 152.615 57.5475 152.772 56.2505 153.125C55.2368 153.585 55.2368 153.585 54.2593 154.195C53.8856 154.416 53.512 154.638 53.1271 154.867C52.7318 155.106 52.3365 155.345 51.9292 155.591C51.0906 156.087 50.2519 156.583 49.4131 157.079C48.1691 157.82 46.9267 158.563 45.6871 159.311C44.5891 159.973 43.4866 160.626 42.3833 161.279C42.055 161.481 41.7267 161.683 41.3884 161.892C39.484 163.012 37.7881 163.859 35.5474 163.281C33.9746 162.606 32.525 161.762 31.0552 160.889C30.6328 160.645 30.2104 160.4 29.7752 160.149C28.889 159.635 28.0046 159.119 27.1219 158.6C25.8037 157.825 24.48 157.062 23.1542 156.3C22.3209 155.82 21.4877 155.339 20.6548 154.858C20.2689 154.636 19.8829 154.413 19.4852 154.183C13.9541 150.954 13.9541 150.954 13.2818 149.609C13.2299 148.769 13.2032 147.926 13.1878 147.084C13.1828 146.824 13.1777 146.565 13.1725 146.298C13.1229 143.587 13.1008 140.875 13.0806 138.164C13.0702 136.877 13.0512 135.592 13.0246 134.306C12.9925 132.752 12.9759 131.199 12.9701 129.645C12.9653 129.054 12.9551 128.463 12.9394 127.872C12.8233 123.272 12.8233 123.272 13.9115 121.81C14.715 121.19 15.4917 120.748 16.4068 120.313C16.8245 120.054 17.2422 119.795 17.6726 119.529C18.0771 119.301 18.4817 119.074 18.8985 118.84C19.123 118.713 19.3474 118.586 19.5787 118.455C20.2862 118.055 20.9953 117.658 21.7046 117.261C22.1679 117 22.631 116.74 23.0939 116.479C23.324 116.35 23.554 116.221 23.791 116.088C24.2586 115.822 24.7235 115.551 25.1857 115.276C26.4233 114.545 27.6183 113.942 28.9692 113.446C30.6671 112.758 32.1111 112.063 33.2036 110.547C34.3974 107.233 34.2227 103.594 34.1558 100.122C34.1532 99.6384 34.1505 99.1548 34.1478 98.6565C34.2569 92.3527 34.2569 92.3527 31.4229 87.0407C29.4956 85.7532 27.4048 85.0674 25.1876 84.4351C22.8052 83.645 20.7561 82.2904 18.6285 80.9815C17.8492 80.5315 17.0695 80.0824 16.2893 79.6341C14.0413 78.3403 14.0413 78.3403 13.2818 77.3438C13.1198 76.1805 13.1198 76.1805 13.0991 74.7379C13.094 74.4747 13.0888 74.2116 13.0834 73.9406C13.0683 73.0704 13.0622 72.2005 13.0575 71.3303C13.0517 70.7245 13.0459 70.1187 13.04 69.513C13.0295 68.2425 13.0242 66.9721 13.0217 65.7016C13.0175 64.0764 12.9934 62.4522 12.9644 60.8273C12.9455 59.5756 12.9406 58.3242 12.9396 57.0724C12.9368 56.4735 12.9289 55.8747 12.9156 55.276C12.82 50.6199 12.82 50.6199 13.9162 49.1484C14.7185 48.5296 15.4923 48.0888 16.4068 47.6563C16.8122 47.4037 17.2177 47.1511 17.6354 46.8909C18.025 46.6711 18.4147 46.4514 18.8161 46.225C19.2579 45.9742 19.6996 45.7235 20.1547 45.4651C20.6224 45.2025 21.0902 44.94 21.5581 44.6778C22.5345 44.128 23.5104 43.5773 24.4863 43.0268C24.7287 42.8903 24.9712 42.7539 25.2209 42.6133C26.7523 41.7491 28.2676 40.8622 29.775 39.9567C30.1422 39.7385 30.5095 39.5202 30.8878 39.2954C31.5654 38.8916 32.24 38.4829 32.911 38.0682C34.4906 37.1359 35.9135 36.3598 37.8139 36.4964C39.8214 37.0164 41.5669 38.1589 43.3355 39.209C43.7644 39.4567 44.1933 39.7043 44.6352 39.9595C45.9067 40.6957 47.1727 41.4407 48.438 42.1875C49.1198 42.5852 49.8019 42.9825 50.4842 43.3792C54.7643 45.8757 54.7643 45.8757 56.1101 46.8094C57.2932 47.395 57.7269 47.2254 58.9849 46.875C59.6957 46.5351 60.393 46.1665 61.0784 45.7779C61.4792 45.5521 61.88 45.3264 62.2929 45.0937C62.7159 44.8517 63.1389 44.6097 63.5747 44.3604C64.2247 43.9928 64.2247 43.9928 64.8879 43.6178C67.7654 41.9855 70.6274 40.3265 73.4567 38.6117C75.3088 37.5 75.3088 37.5 76.1724 37.5C76.1681 37.2107 76.1637 36.9214 76.1593 36.6234C76.1201 33.8935 76.0904 31.1637 76.0712 28.4336C76.061 27.0301 76.0472 25.6268 76.0251 24.2234C76.0038 22.8684 75.9921 21.5136 75.9871 20.1583C75.9817 19.3912 75.9665 18.6242 75.9511 17.8572C75.95 14.3809 75.95 14.3809 77.0307 12.8336C77.5726 12.4751 77.5726 12.4751 78.1255 12.1094C78.4573 11.8874 78.789 11.6653 79.1308 11.4366C79.4864 11.2361 79.842 11.0357 80.2084 10.8292C80.6127 10.5989 81.017 10.3686 81.4336 10.1313C81.8647 9.88977 82.2957 9.64826 82.7398 9.39943C83.4182 9.01404 84.0966 8.62865 84.7747 8.24277C85.24 7.97818 85.7055 7.71398 86.1713 7.45017C88.6461 6.04783 91.1009 4.61181 93.5552 3.17385C94.3323 2.7189 95.1094 2.26417 95.8868 1.80971C96.2108 1.61994 96.5348 1.43017 96.8687 1.23465C98.4582 0.320219 99.7456 0.0729573 101.563 0.390644ZM97.4355 8.63497C96.7758 9.01829 96.7758 9.01829 96.1027 9.40935C95.636 9.68266 95.1693 9.95605 94.7027 10.2295C93.7992 10.7565 92.8952 11.2826 91.9912 11.8088C91.5596 12.0603 91.128 12.3117 90.6833 12.5708C89.1123 13.4785 87.5295 14.3632 85.938 15.2344C87.1667 16.201 88.4502 16.9847 89.8061 17.7612C90.2505 18.0165 90.6949 18.2718 91.1527 18.5349C91.6199 18.8019 92.087 19.069 92.5542 19.336C93.4694 19.8605 94.3844 20.3856 95.2993 20.9107C95.7046 21.1425 96.1099 21.3744 96.5275 21.6133C97.6568 22.2656 97.6568 22.2656 98.6586 22.9851C99.5885 23.5511 99.5885 23.5511 100.569 23.1962C100.897 23.018 101.225 22.8399 101.563 22.6563C102.095 22.3761 102.095 22.3761 102.638 22.0904C103.019 21.8753 103.401 21.6602 103.794 21.4386C104.427 21.0829 104.427 21.0829 105.073 20.7199C105.51 20.4727 105.947 20.2255 106.397 19.9707C106.831 19.7265 107.265 19.4823 107.712 19.2307C109.834 18.0362 111.951 16.8361 114.063 15.625C112.834 14.6584 111.551 13.8747 110.195 13.0982C109.751 12.8429 109.306 12.5876 108.848 12.3245C108.381 12.0575 107.914 11.7904 107.447 11.5235C106.532 10.9989 105.617 10.4738 104.702 9.94875C104.296 9.71687 103.891 9.48499 103.474 9.24608C102.731 8.81744 101.996 8.37669 101.269 7.92314C99.6609 7.00502 98.9446 7.75364 97.4355 8.63497ZM82.813 21.4844C81.4508 30.4344 81.4508 30.4344 83.6702 38.7575C85.8312 40.6187 88.3089 41.6211 90.9898 42.5207C92.5726 43.1126 93.924 43.9488 95.3369 44.8659C96.0599 45.3787 96.0599 45.3787 96.8755 45.3125C96.8755 40.0274 96.8755 34.7422 96.8755 29.2969C93.6742 27.4559 93.6742 27.4559 90.4722 25.6162C88.5866 24.5301 86.7084 23.4444 84.876 22.2702C83.7338 21.4163 83.7338 21.4163 82.813 21.4844ZM113.453 23.1934C112.915 23.5139 112.377 23.8343 111.84 24.1547C111.537 24.346 111.234 24.5372 110.922 24.7343C109.974 25.2729 109.071 25.6909 108.069 26.1095C104.841 27.4868 104.841 27.4868 102.78 30.157C102.297 32.6134 102.519 35.071 102.71 37.5488C102.744 38.3025 102.774 39.0563 102.801 39.8102C102.874 41.6478 102.988 43.4786 103.126 45.3125C104.531 44.7812 105.818 44.1535 107.125 43.4128C107.51 43.195 107.895 42.9772 108.291 42.7529C108.689 42.526 109.087 42.2992 109.498 42.0654C109.891 41.8431 110.285 41.6208 110.69 41.3918C111.818 40.7516 112.945 40.1108 114.063 39.4531C114.334 39.3263 114.606 39.1995 114.885 39.0688C116.544 38.24 116.544 38.24 117.459 36.7087C117.55 35.7264 117.54 34.7914 117.493 33.8059C117.489 33.4531 117.484 33.1004 117.48 32.737C117.462 31.6139 117.423 30.4927 117.383 29.3701C117.368 28.6075 117.353 27.8448 117.341 27.0821C117.306 25.2154 117.252 23.3502 117.188 21.4844C115.789 21.4844 114.627 22.4862 113.453 23.1934ZM75.7329 44.9463C75.1458 45.3009 74.5583 45.6549 73.9706 46.0083C73.6436 46.2057 73.3166 46.4031 72.9797 46.6065C71.0399 47.7645 69.0811 48.8897 67.1231 50.0167C66.4361 50.4122 65.7495 50.8084 65.063 51.2048C61.8226 53.0734 61.8226 53.0734 60.938 53.5156C60.938 60.2188 60.938 66.9219 60.938 73.8281C64.4732 76.257 64.4732 76.257 68.3599 77.3438C68.9742 76.6956 68.9742 76.6956 69.5562 75.8301C75.489 67.9484 84.2484 63.2745 93.8695 61.4777C105.371 60.2862 115.837 62.7454 124.914 70.0089C130.347 74.7561 130.347 74.7561 131.641 77.3438C134.335 76.912 134.335 76.912 139.063 73.8281C139.063 67.125 139.063 60.4219 139.063 53.5156C136.743 52.2266 134.422 50.9375 132.032 49.6094C130.343 48.6385 128.658 47.6649 126.978 46.6797C126.572 46.443 126.167 46.2064 125.749 45.9625C122.823 44.2514 122.823 44.2514 121.485 43.3594C119.457 43.4463 117.99 44.3158 116.309 45.3613C115.727 45.7128 115.144 46.0637 114.56 46.4142C114.077 46.7067 114.077 46.7067 113.584 47.0051C111.684 48.1475 109.772 49.2703 107.856 50.3855C107.189 50.7749 106.524 51.168 105.86 51.5612C101.534 54.0799 101.534 54.0799 99.6099 54.2969C98.5233 53.9323 97.7096 53.5796 96.729 53.0274C96.4601 52.8843 96.1912 52.7412 95.9141 52.5938C95.0557 52.1314 94.207 51.6547 93.3599 51.1719C93.0864 51.0162 92.8129 50.8605 92.5312 50.7C90.2703 49.4022 88.034 48.0638 85.8057 46.711C85.1936 46.3396 84.5809 45.9695 83.9673 45.6007C83.3895 45.2534 82.8134 44.9032 82.2394 44.5498C79.5334 42.9268 78.2642 43.3793 75.7329 44.9463ZM34.3465 45.0623C34.1114 45.1973 33.8762 45.3323 33.6339 45.4714C32.8792 45.9052 32.1259 46.3412 31.3726 46.7774C30.8724 47.0654 30.3722 47.3533 29.8719 47.641C28.942 48.176 28.0127 48.7121 27.0838 49.2489C25.7405 50.0239 24.3944 50.7939 23.0474 51.5625C24.2761 52.5291 25.5595 53.3128 26.9155 54.0894C27.3599 54.3447 27.8043 54.6 28.2621 54.863C28.7292 55.1301 29.1964 55.3971 29.6636 55.6641C30.5788 56.1887 31.4937 56.7137 32.4087 57.2388C32.814 57.4707 33.2193 57.7025 33.6369 57.9415C34.3791 58.3702 35.1122 58.8152 35.8343 59.2772C36.6887 59.877 36.6887 59.877 37.6119 59.5612C38.1369 59.2757 38.1369 59.2757 38.6724 58.9844C38.9115 58.8574 39.1506 58.7304 39.397 58.5995C40.2602 58.1359 41.1145 57.6584 41.9683 57.1778C42.2756 57.0059 42.583 56.834 42.8997 56.6569C45.6671 55.1062 48.423 53.5356 51.1724 51.9531C49.9437 50.9865 48.6603 50.2029 47.3043 49.4263C46.8599 49.171 46.4155 48.9157 45.9577 48.6527C45.4906 48.3856 45.0234 48.1186 44.5562 47.8516C43.641 47.327 42.7261 46.8019 41.8111 46.2769C41.4058 46.045 41.0005 45.8131 40.5829 45.5742C39.8409 45.1456 39.1057 44.7048 38.3786 44.2513C36.7161 43.3022 35.9079 44.1617 34.3465 45.0623ZM160.326 44.9631C159.666 45.3464 159.666 45.3464 158.993 45.7375C158.527 46.0108 158.06 46.2842 157.593 46.5576C156.69 47.0846 155.786 47.6108 154.882 48.1369C154.45 48.3884 154.019 48.6398 153.574 48.8989C152.003 49.8066 150.42 50.6913 148.829 51.5625C150.057 52.5291 151.341 53.3128 152.697 54.0894C153.141 54.3447 153.586 54.6 154.043 54.863C154.51 55.1301 154.978 55.3971 155.445 55.6641C156.36 56.1887 157.275 56.7137 158.19 57.2388C158.595 57.4707 159.001 57.7025 159.418 57.9415C160.547 58.5938 160.547 58.5938 161.549 59.3132C162.479 59.8793 162.479 59.8793 163.46 59.5244C163.788 59.3462 164.116 59.168 164.454 58.9844C164.986 58.7043 164.986 58.7043 165.528 58.4185C165.91 58.2034 166.291 57.9883 166.684 57.7667C167.317 57.411 167.317 57.411 167.963 57.0481C168.4 56.8008 168.837 56.5536 169.288 56.2988C169.722 56.0546 170.156 55.8104 170.603 55.5588C172.724 54.3644 174.842 53.1642 176.954 51.9531C175.725 50.9865 174.442 50.2029 173.086 49.4263C172.641 49.171 172.197 48.9157 171.739 48.6527C171.272 48.3856 170.805 48.1186 170.337 47.8516C169.422 47.327 168.507 46.8019 167.592 46.2769C167.187 46.045 166.782 45.8131 166.364 45.5742C165.622 45.1456 164.887 44.7048 164.16 44.2513C162.552 43.3332 161.835 44.0818 160.326 44.9631ZM19.9224 57.8125C18.5637 66.7587 18.5637 66.7587 20.7733 75.0857C22.9212 76.9482 25.3908 77.954 28.0639 78.8489C30.0244 79.5609 31.7967 80.5922 33.5943 81.6406C33.6814 79.4028 33.7451 77.1659 33.7874 74.9268C33.805 74.1658 33.829 73.405 33.8595 72.6444C34.2092 68.4887 34.2092 68.4887 32.9591 64.6859C32.0265 64.0512 31.1333 63.6794 30.0786 63.2813C29.3171 62.8492 28.5615 62.4066 27.8112 61.9553C27.0216 61.5088 26.2312 61.0638 25.44 60.6201C25.0371 60.3918 24.6343 60.1634 24.2193 59.9281C22.1353 58.7285 22.1353 58.7285 19.9224 57.8125ZM51.5264 58.9264C51.1236 59.1626 50.7207 59.3987 50.3057 59.642C49.8827 59.8923 49.4598 60.1426 49.024 60.4004C48.6131 60.6416 48.2022 60.8828 47.7788 61.1313C46.957 61.6145 46.1402 62.1064 45.3289 62.607C44.1412 63.2813 44.1412 63.2813 42.9733 63.6976C41.7027 64.201 41.0728 64.5339 40.2349 65.625C39.58 68.2657 39.8709 71.0885 39.9908 73.7793C40.0104 74.5402 40.0282 75.3011 40.0442 76.062C40.0871 77.9228 40.1545 79.7812 40.2349 81.6406C41.8295 81.0514 43.2566 80.2889 44.7301 79.4434C45.086 79.2397 45.086 79.2397 45.449 79.032C45.9477 78.7463 46.446 78.46 46.944 78.1731C47.7052 77.7346 48.4675 77.2979 49.23 76.8616C51.7982 75.4015 51.7982 75.4015 54.2974 73.8281C54.4675 73.1055 54.4675 73.1055 54.4304 72.2693C54.4304 71.9487 54.4303 71.6281 54.4302 71.2978C54.4241 70.9515 54.4181 70.6052 54.4118 70.2484C54.4094 69.7169 54.4094 69.7169 54.4068 69.1746C54.4002 68.0401 54.3855 66.9059 54.3706 65.7715C54.3648 65.0035 54.3594 64.2355 54.3546 63.4674C54.3417 61.5824 54.3214 59.6975 54.2974 57.8125C53.158 57.8125 52.5053 58.3501 51.5264 58.9264ZM145.704 57.8125C144.341 66.7625 144.341 66.7625 146.561 75.0857C148.722 76.9468 151.2 77.9493 153.88 78.8489C155.463 79.4407 156.815 80.2769 158.227 81.194C158.951 81.7068 158.951 81.7068 159.766 81.6406C161.128 72.6907 161.128 72.6907 158.909 64.3675C156.748 62.5063 154.27 61.5039 151.589 60.6043C150.007 60.0125 148.655 59.1762 147.242 58.2591C146.519 57.7464 146.519 57.7464 145.704 57.8125ZM176.294 59.5459C176.001 59.7206 175.707 59.8953 175.405 60.0753C174.793 60.4396 174.182 60.8047 173.572 61.1706C172.692 61.6979 171.81 62.2229 170.928 62.7472C170.397 63.0634 169.867 63.3798 169.336 63.6963C169.086 63.8453 168.836 63.9943 168.579 64.1479C167.428 64.7992 167.428 64.7992 166.407 65.625C166.372 66.8085 166.362 67.9831 166.369 69.1666C166.369 69.5215 166.37 69.8764 166.37 70.2421C166.372 71.3805 166.377 72.5189 166.382 73.6572C166.384 74.427 166.386 75.1969 166.388 75.9667C166.392 77.858 166.399 79.7493 166.407 81.6406C166.78 81.4329 167.154 81.2252 167.538 81.0111C172.125 78.4945 172.125 78.4945 174.547 77.7481C176.905 76.9071 178.791 76.0662 180.079 73.8281C181.328 68.7443 180.537 62.9672 180.079 57.8125C178.666 57.8125 177.482 58.8327 176.294 59.5459ZM75.3912 78.5156C69.2438 85.9192 67.0735 94.4679 67.5787 103.906C68.5459 112.079 72.791 119.856 79.1288 125.118C86.8608 131.101 95.7868 133.383 105.428 132.242C113.82 130.611 121.593 126.044 126.514 118.97C131.571 111.215 133.767 102.418 131.983 93.2373C129.679 84.1185 124.447 76.7359 116.407 71.875C102.841 63.9791 85.8959 67.029 75.3912 78.5156ZM54.891 80.8319C54.4677 81.0787 54.0445 81.3254 53.6085 81.5796C53.1671 81.8414 52.7258 82.1033 52.271 82.3731C51.8493 82.6198 51.4276 82.8665 50.9931 83.1207C50.3351 83.5062 49.6772 83.8922 49.0305 84.2964C47.7413 85.0926 46.4944 85.7101 45.0718 86.2375C43.1754 87.0081 41.4734 87.7672 40.2349 89.4531C39.1403 92.8969 39.6143 96.6933 39.8199 100.244C39.8532 101.242 39.8835 102.241 39.9107 103.239C39.9836 105.678 40.0944 108.112 40.2349 110.547C40.6647 110.794 40.6647 110.794 41.1032 111.047C43.4801 112.416 45.8557 113.787 48.2303 115.159C49.4122 115.842 50.5949 116.524 51.7797 117.202C53.0759 117.943 54.3704 118.688 55.6646 119.434C56.2654 119.775 56.2654 119.775 56.8784 120.124C57.2473 120.337 57.6161 120.551 57.9961 120.77C58.4822 121.049 58.4822 121.049 58.978 121.333C59.7662 121.875 59.7662 121.875 60.5474 123.047C60.6089 124.051 60.6089 124.051 60.5604 125.269C60.5454 125.726 60.5305 126.183 60.5151 126.653C60.4888 127.394 60.4888 127.394 60.462 128.151C60.4432 129.197 60.4262 130.244 60.4116 131.29C60.3883 132.942 60.3561 134.591 60.2836 136.241C59.7666 142.07 59.7666 142.07 61.5753 147.333C63.2088 148.703 65.0618 149.411 67.0683 150.071C68.3865 150.539 69.4743 151.208 70.6655 151.941C71.0605 152.172 71.4556 152.402 71.8626 152.64C72.437 152.977 72.437 152.977 73.023 153.32C73.6314 153.675 73.6314 153.675 74.2521 154.037C77.1782 155.749 77.1782 155.749 78.5162 156.641C80.8861 156.542 82.6332 155.307 84.5807 154.089C86.3542 152.993 88.1308 152.028 90.0198 151.143C94.3616 149.285 94.3616 149.285 97.2904 145.866C97.6837 143.532 97.3742 141.358 96.8755 139.063C96.5249 138.989 96.5249 138.989 96.1672 138.914C84.8794 136.524 74.506 132.239 67.8594 122.191C63.6611 115.331 61.1688 108.302 61.1822 100.171C61.1831 99.562 61.1831 99.562 61.1841 98.9408C61.2619 93.9726 62.3183 89.3603 64.1668 84.7534C64.4992 83.9992 64.4992 83.9992 64.4537 83.2031C63.5206 82.5602 62.5949 81.9722 61.6216 81.3965C61.2221 81.1503 61.2221 81.1503 60.8144 80.8991C60.5551 80.744 60.2958 80.5889 60.0286 80.4291C59.7913 80.2868 59.554 80.1445 59.3095 79.9978C57.5393 79.2298 56.41 79.9384 54.891 80.8319ZM139.972 80.4566C139.583 80.6945 139.583 80.6945 139.187 80.9372C138.92 81.1049 138.654 81.2726 138.379 81.4453C138.107 81.613 137.835 81.7807 137.554 81.9534C136.883 82.3669 136.215 82.7846 135.547 83.2031C135.709 83.6543 135.87 84.1055 136.036 84.5703C136.624 86.3334 137.098 88.1151 137.549 89.917C137.616 90.1814 137.683 90.4457 137.751 90.7181C140.208 100.681 138.551 111.136 133.483 120.021C127.734 129.228 119.49 135.202 108.985 137.891C107.04 138.329 105.086 138.696 103.126 139.063C103.126 141.641 103.126 144.219 103.126 146.875C103.782 147.253 104.438 147.63 105.114 148.019C105.538 148.264 105.963 148.509 106.401 148.761C107.329 149.296 108.257 149.83 109.187 150.363C111.26 151.555 113.329 152.752 115.366 154.007C115.666 154.19 115.966 154.374 116.276 154.563C116.822 154.898 117.365 155.238 117.904 155.583C119.278 156.438 119.278 156.438 120.849 156.552C121.999 156.214 122.926 155.744 123.969 155.153C124.37 154.927 124.771 154.701 125.184 154.469C125.607 154.227 126.03 153.985 126.465 153.735C127.115 153.367 127.115 153.367 127.778 152.992C130.903 151.218 134.009 149.413 137.096 147.575C137.742 147.194 138.392 146.82 139.063 146.484C139.064 146.195 139.064 145.906 139.065 145.608C139.072 142.878 139.088 140.148 139.115 137.418C139.128 136.015 139.138 134.611 139.139 133.208C139.141 131.853 139.152 130.498 139.17 129.143C139.177 128.376 139.175 127.609 139.173 126.842C139.23 123.357 139.23 123.357 140.36 121.791C140.705 121.561 141.051 121.331 141.407 121.094C141.762 120.849 141.762 120.849 142.125 120.6C142.35 120.482 142.575 120.363 142.806 120.241C143.069 120.099 143.332 119.957 143.603 119.811C144.026 119.588 144.026 119.588 144.459 119.36C145.082 119.024 145.704 118.686 146.326 118.347C146.662 118.164 146.998 117.982 147.344 117.793C149.396 116.657 151.418 115.468 153.443 114.282C153.846 114.047 154.249 113.811 154.664 113.568C155.715 112.953 156.765 112.338 157.813 111.719C158.151 111.556 158.488 111.394 158.836 111.226C159.85 110.638 159.85 110.638 160.001 109.605C159.997 109.233 159.992 108.861 159.988 108.478C159.988 108.055 159.988 107.633 159.987 107.198C159.977 106.743 159.967 106.287 159.957 105.818C159.954 105.352 159.951 104.885 159.949 104.404C159.938 102.912 159.913 101.419 159.888 99.9268C159.878 98.9159 159.87 97.905 159.862 96.8941C159.84 94.4136 159.807 91.9334 159.766 89.4531C159.493 89.2961 159.22 89.1391 158.939 88.9773C157.894 88.3755 156.849 87.7735 155.804 87.1713C155.105 86.7686 154.405 86.3664 153.706 85.9641C151.632 84.77 149.561 83.5719 147.512 82.3349C147.21 82.1533 146.908 81.9717 146.597 81.7846C146.047 81.4525 145.499 81.1176 144.953 80.7795C143.1 79.6623 141.865 79.2817 139.972 80.4566ZM34.3465 117.719C34.1114 117.854 33.8762 117.989 33.6339 118.128C32.8792 118.561 32.1259 118.997 31.3726 119.434C30.8724 119.722 30.3722 120.01 29.8719 120.297C28.942 120.832 28.0127 121.368 27.0838 121.905C25.7405 122.68 24.3944 123.45 23.0474 124.219C24.2761 125.185 25.5595 125.969 26.9155 126.746C27.3599 127.001 27.8043 127.256 28.2621 127.519C28.7292 127.786 29.1964 128.053 29.6636 128.32C30.5788 128.845 31.4937 129.37 32.4087 129.895C32.814 130.127 33.2193 130.359 33.6369 130.598C34.7661 131.25 34.7661 131.25 35.768 131.969C36.6978 132.536 36.6978 132.536 37.6776 132.181C38.0059 132.002 38.3342 131.824 38.6724 131.641C39.0291 131.454 39.3859 131.267 39.7534 131.075C40.1374 130.86 40.5214 130.645 40.917 130.423C41.3407 130.186 41.7644 129.949 42.201 129.704C42.6398 129.457 43.0787 129.21 43.5308 128.955C43.9681 128.711 44.4054 128.467 44.856 128.215C46.8843 127.076 48.8583 125.916 50.7818 124.609C49.7827 123.482 48.6455 122.825 47.3424 122.083C46.8968 121.827 46.4512 121.572 45.992 121.309C45.5216 121.042 45.0511 120.775 44.5806 120.508C44.1131 120.241 43.6456 119.974 43.1783 119.707C42.3158 119.214 41.4527 118.722 40.5891 118.23C39.8443 117.803 39.1067 117.362 38.3777 116.908C36.7162 115.958 35.9071 116.818 34.3465 117.719ZM160.312 117.619C159.871 117.875 159.429 118.13 158.974 118.394C158.628 118.596 158.628 118.596 158.274 118.802C157.581 119.207 156.886 119.609 156.191 120.011C153.841 121.375 151.512 122.761 149.219 124.219C150.253 125.399 151.474 126.072 152.83 126.845C153.184 127.048 153.184 127.048 153.546 127.255C154.045 127.539 154.545 127.823 155.045 128.106C155.807 128.538 156.567 128.972 157.326 129.408C159.317 130.543 159.317 130.543 161.329 131.641C161.656 131.822 161.984 132.003 162.321 132.19C163.736 132.532 164.343 132.026 165.571 131.285C166.007 131.027 166.443 130.769 166.892 130.503C167.349 130.223 167.806 129.943 168.262 129.663C168.712 129.393 169.163 129.124 169.614 128.855C170.487 128.334 171.358 127.811 172.227 127.286C173.783 126.357 175.361 125.473 176.954 124.609C175.614 123.488 174.27 122.583 172.742 121.739C172.317 121.503 171.891 121.266 171.453 121.023C171.012 120.78 170.572 120.538 170.118 120.288C169.243 119.804 168.368 119.319 167.493 118.834C166.914 118.514 166.914 118.514 166.322 118.188C165.594 117.78 164.875 117.354 164.166 116.914C162.552 115.987 161.832 116.737 160.312 117.619ZM19.9224 130.469C18.5637 139.415 18.5637 139.415 20.7733 147.742C22.8773 149.566 25.3049 150.619 27.949 151.439C29.9198 152.19 31.7427 153.287 33.5943 154.297C33.5943 148.883 33.5943 143.469 33.5943 137.891C30.5216 136.178 30.5216 136.178 27.448 134.467C25.6051 133.437 23.7753 132.406 21.9976 131.267C20.8462 130.4 20.8462 130.4 19.9224 130.469ZM51.5264 131.583C51.1236 131.819 50.7207 132.055 50.3057 132.298C49.8827 132.549 49.4598 132.799 49.024 133.057C48.6131 133.298 48.2022 133.539 47.7788 133.788C46.957 134.271 46.1402 134.763 45.3289 135.263C44.1412 135.938 44.1412 135.938 42.9733 136.354C41.7027 136.857 41.0728 137.19 40.2349 138.281C39.58 140.922 39.8709 143.745 39.9908 146.436C40.0104 147.196 40.0282 147.957 40.0442 148.718C40.0871 150.579 40.1545 152.437 40.2349 154.297C41.8295 153.708 43.2566 152.945 44.7301 152.1C45.086 151.896 45.086 151.896 45.449 151.688C45.9477 151.403 46.446 151.116 46.944 150.829C47.7052 150.391 48.4675 149.954 49.23 149.518C51.7982 148.058 51.7982 148.058 54.2974 146.484C54.4675 145.762 54.4675 145.762 54.4304 144.926C54.4304 144.605 54.4303 144.284 54.4302 143.954C54.4241 143.608 54.4181 143.261 54.4118 142.905C54.4094 142.373 54.4094 142.373 54.4068 141.831C54.4002 140.696 54.3855 139.562 54.3706 138.428C54.3648 137.66 54.3594 136.892 54.3546 136.124C54.3417 134.239 54.3214 132.354 54.2974 130.469C53.158 130.469 52.5053 131.006 51.5264 131.583ZM145.704 130.469C145.704 135.754 145.704 141.039 145.704 146.484C148.905 148.325 148.905 148.325 152.107 150.165C153.993 151.251 155.871 152.337 157.703 153.511C158.845 154.365 158.845 154.365 159.766 154.297C161.128 145.347 161.128 145.347 158.909 137.024C156.748 135.163 154.27 134.16 151.589 133.261C150.007 132.669 148.655 131.833 147.242 130.915C146.519 130.403 146.519 130.403 145.704 130.469ZM177.294 131.596C176.889 131.834 176.485 132.072 176.068 132.317C175.643 132.569 175.218 132.821 174.781 133.081C173.95 133.571 173.12 134.061 172.289 134.55C171.92 134.769 171.55 134.988 171.17 135.214C169.594 136.128 167.999 137.006 166.407 137.891C166.407 143.305 166.407 148.719 166.407 154.297C171.189 151.759 171.189 151.759 175.879 149.072C176.16 148.907 176.44 148.741 176.729 148.57C177.865 147.897 178.98 147.217 180.079 146.484C180.249 145.762 180.249 145.762 180.212 144.926C180.212 144.605 180.212 144.284 180.211 143.954C180.205 143.608 180.199 143.261 180.193 142.905C180.191 142.373 180.191 142.373 180.188 141.831C180.181 140.696 180.167 139.562 180.152 138.428C180.146 137.66 180.141 136.892 180.136 136.124C180.123 134.239 180.103 132.354 180.079 130.469C178.934 130.469 178.276 131.016 177.294 131.596ZM97.2234 154.047C96.9873 154.182 96.7512 154.317 96.508 154.456C96.0071 154.743 95.5067 155.03 95.0067 155.319C94.2483 155.756 93.4884 156.191 92.7282 156.625C90.5511 157.874 88.4049 159.136 86.3287 160.547C87.3623 161.727 88.5837 162.4 89.9389 163.173C90.2936 163.376 90.2936 163.376 90.6555 163.583C91.1547 163.868 91.6544 164.151 92.1546 164.435C92.9164 164.866 93.6761 165.301 94.4356 165.736C96.4265 166.871 96.4265 166.871 98.438 167.969C98.7652 168.15 99.0924 168.331 99.4296 168.518C100.848 168.86 101.462 168.352 102.694 167.613C103.132 167.355 103.569 167.097 104.02 166.831C104.479 166.551 104.938 166.271 105.396 165.991C105.85 165.721 106.304 165.452 106.758 165.183C109.082 163.799 111.385 162.381 113.672 160.938C112.522 159.685 111.377 158.884 109.89 158.067C109.463 157.831 109.036 157.595 108.597 157.351C108.153 157.108 107.709 156.866 107.252 156.616C106.373 156.132 105.495 155.647 104.616 155.162C104.227 154.949 103.838 154.736 103.438 154.517C102.707 154.109 101.985 153.683 101.275 153.242C99.607 152.284 98.7947 153.146 97.2234 154.047ZM82.813 166.797C82.813 172.082 82.813 177.367 82.813 182.813C86.0143 184.654 86.0143 184.654 89.2164 186.493C91.102 187.579 92.9802 188.665 94.8125 189.839C95.9547 190.693 95.9547 190.693 96.8755 190.625C98.2377 181.675 98.2377 181.675 96.0184 173.352C93.8573 171.491 91.3797 170.488 88.6987 169.589C87.116 168.997 85.7646 168.161 84.3517 167.244C83.6287 166.731 83.6287 166.731 82.813 166.797ZM114.417 167.911C114.014 168.147 113.611 168.383 113.196 168.626C112.773 168.877 112.35 169.127 111.915 169.385C111.504 169.626 111.093 169.867 110.669 170.116C109.848 170.599 109.031 171.091 108.219 171.591C107.032 172.266 107.032 172.266 105.864 172.682C104.593 173.185 103.963 173.518 103.126 174.609C102.471 177.25 102.762 180.073 102.881 182.764C102.901 183.525 102.919 184.285 102.935 185.046C102.978 186.907 103.045 188.766 103.126 190.625C104.72 190.036 106.147 189.273 107.621 188.428C107.977 188.224 107.977 188.224 108.34 188.016C108.838 187.731 109.337 187.444 109.835 187.157C110.596 186.719 111.358 186.282 112.121 185.846C114.689 184.386 114.689 184.386 117.188 182.813C117.358 182.09 117.358 182.09 117.321 181.254C117.321 180.933 117.321 180.612 117.321 180.282C117.315 179.936 117.309 179.59 117.302 179.233C117.3 178.701 117.3 178.701 117.297 178.159C117.291 177.024 117.276 175.89 117.261 174.756C117.255 173.988 117.25 173.22 117.245 172.452C117.232 170.567 117.212 168.682 117.188 166.797C116.049 166.797 115.396 167.334 114.417 167.911Z" fill="black"/>
<path d="M125.709 87.9456C125.99 88.1853 126.272 88.4249 126.562 88.6719C126.909 88.9448 127.257 89.2177 127.615 89.4989C128.921 90.5663 129.221 91.2915 129.467 92.9444C129.296 94.1406 129.296 94.1406 128.49 95.2637C127.045 96.3095 126.364 96.2783 124.609 96.0938C123.566 95.4346 123.566 95.4346 122.582 94.5313C114.999 87.9589 106.703 85.3712 96.7499 85.8549C88.9875 86.4669 82.1079 90.219 76.4458 95.4209C75.0878 96.2863 74.238 96.2761 72.6555 96.0938C71.508 95.2637 71.508 95.2637 70.7024 94.1406C70.4773 92.565 70.6579 91.5745 71.4836 90.2344C72.8356 88.9646 74.3122 87.8507 75.7805 86.7188C76.0927 86.4745 76.4049 86.2303 76.7265 85.9787C80.8477 82.9155 85.6684 80.9422 90.6242 79.6875C90.9636 79.5994 91.303 79.5113 91.6527 79.4205C103.618 76.8914 116.391 80.13 125.709 87.9456Z" fill="black"/>
<path d="M118.002 94.188C122.093 97.3606 122.093 97.3606 122.485 99.8047C122.266 101.172 122.266 101.172 121.436 102.319C120.312 103.125 120.312 103.125 119.214 103.394C117.387 103 116.276 101.937 114.844 100.781C109.196 96.6386 103.448 95.074 96.4844 95.7032C91.5734 96.5575 87.0053 98.7452 83.3939 102.194C82.5622 102.967 82.0705 103.12 80.9326 103.272C79.6875 103.125 79.6875 103.125 78.5645 102.319C77.7344 101.172 77.7344 101.172 77.4414 99.878C78.0221 97.023 80.0456 95.5336 82.3791 93.94C84.9916 92.2336 87.659 90.8429 90.625 89.8438C90.9941 89.7194 91.3632 89.595 91.7435 89.4669C100.777 86.9244 110.37 88.9419 118.002 94.188Z" fill="black"/>
<path d="M104.003 108.96C106.052 110.112 107.286 111.507 108.202 113.672C108.913 116.304 108.702 118.532 107.566 121.004C106.312 123.045 104.602 124.258 102.343 125C99.4632 125.342 96.9006 125.212 94.5305 123.438C92.6162 121.566 91.51 119.613 91.3398 116.937C91.4434 114.192 92.1938 112.126 94.1398 110.156C97.2506 107.87 100.461 107.438 104.003 108.96ZM99.218 114.844C98.6379 115.617 98.6379 115.617 98.0461 116.406C98.296 117.2 98.296 117.2 98.8273 117.969C99.7653 118.391 99.7653 118.391 100.78 118.359C101.497 117.838 101.497 117.838 101.952 117.188C101.708 116.202 101.708 116.202 101.171 115.234C100.176 114.885 100.176 114.885 99.218 114.844Z" fill="black"/>
<path d="M113.813 103.282C114.92 104.36 115.279 105.118 115.626 106.641C115.23 108.062 114.901 108.992 113.77 109.961C112.407 110.264 111.511 110.133 110.157 109.766C109.444 109.23 108.813 108.643 108.163 108.032C105.173 105.567 101.384 105.149 97.6571 105.469C95.053 106.072 92.968 107.134 90.9204 108.841C89.6366 109.842 88.9363 110.17 87.2812 110.083C85.4449 109.649 85.4449 109.649 84.7665 108.594C84.2256 107.013 84.4388 106.167 85.1571 104.688C92.488 96.1567 105.469 96.6508 113.813 103.282Z" fill="black"/>
</svg>
