<svg width="200" height="200" viewBox="0 0 200 200" fill="none" xmlns="http://www.w3.org/2000/svg">
<path d="M30.4034 44.8084C30.7329 44.8058 31.0623 44.8032 31.4017 44.8005C32.4805 44.7931 33.5593 44.7915 34.6381 44.7907C35.3919 44.7882 36.1456 44.7855 36.8993 44.7828C38.474 44.7781 40.0487 44.7767 41.6234 44.7771C43.6419 44.7772 45.6603 44.7665 47.6787 44.7531C49.233 44.7444 50.7871 44.7428 52.3414 44.7432C53.0858 44.7423 53.8303 44.7389 54.5747 44.7328C55.6136 44.7252 56.6519 44.7274 57.6907 44.7321C57.998 44.7277 58.3052 44.7233 58.6218 44.7188C59.9992 44.7347 60.7887 44.8116 61.9117 45.6402C62.7065 46.7794 62.7032 47.4682 62.5007 48.8281C62.1043 49.4768 62.1043 49.4768 61.3288 50C60.2324 50.113 59.2222 50.1548 58.1257 50.1441C57.7991 50.1456 57.4725 50.1471 57.1359 50.1486C56.4262 50.1511 55.7164 50.151 55.0067 50.1485C53.8816 50.145 52.7568 50.1489 51.6318 50.155C48.433 50.1707 45.2343 50.1711 42.0355 50.1703C40.0788 50.1702 38.1222 50.1777 36.1655 50.1895C35.0602 50.1937 33.9552 50.189 32.8499 50.1841C32.1667 50.1876 31.4835 50.1915 30.8003 50.196C30.4956 50.1922 30.1909 50.1884 29.8769 50.1845C27.7163 50.2125 26.0142 50.7219 24.2194 51.9531C22.6409 53.896 22.2221 55.4079 22.2045 57.8565C22.1988 58.4612 22.1988 58.4612 22.1929 59.0781C22.1907 59.5181 22.1884 59.9581 22.1861 60.4115C22.1822 60.8765 22.1784 61.3416 22.1744 61.8207C22.1642 63.0941 22.1556 64.3676 22.1478 65.641C22.1393 66.9725 22.1286 68.304 22.1181 69.6355C22.0986 72.156 22.0811 74.6766 22.0642 77.1972C22.0449 80.0671 22.0235 82.937 22.0018 85.8069C21.9574 91.7098 21.9156 97.6127 21.8757 103.516C22.1771 103.512 22.4784 103.509 22.7889 103.505C25.6392 103.474 28.4894 103.45 31.3398 103.435C32.8049 103.427 34.27 103.416 35.7351 103.398C37.1509 103.381 38.5666 103.371 39.9825 103.367C40.5207 103.365 41.0589 103.359 41.5971 103.35C45.1107 103.297 47.5795 103.439 50.3867 105.705C56.0092 112.422 53.1257 123.558 53.1257 130.859C79.8093 130.859 106.493 130.859 133.985 130.859C133.985 118.613 133.985 106.367 133.985 93.75C135.422 89.4402 136.552 87.4632 140.444 85.2066C142.472 84.2778 144.506 84.3208 146.701 84.3307C147.033 84.3306 147.365 84.3306 147.707 84.3305C148.799 84.3308 149.892 84.3338 150.985 84.3369C151.744 84.3376 152.503 84.3382 153.262 84.3385C155.258 84.34 157.253 84.3439 159.248 84.3482C161.285 84.3522 163.322 84.354 165.359 84.3559C169.354 84.3601 173.349 84.3668 177.344 84.375C177.32 80.6533 177.29 76.9316 177.252 73.21C177.235 71.4817 177.22 69.7535 177.209 68.0251C177.199 66.356 177.183 64.6869 177.163 63.0178C177.157 62.3823 177.152 61.7468 177.15 61.1112C177.146 60.2182 177.135 59.3256 177.123 58.4327C177.118 57.9252 177.114 57.4178 177.11 56.895C176.886 54.8491 176.362 53.2996 174.854 51.8311C172.765 50.4879 171.005 50.2768 168.553 50.2847C168.223 50.2827 167.893 50.2806 167.553 50.2785C166.839 50.2745 166.125 50.2722 165.411 50.2715C164.282 50.2701 163.152 50.2636 162.023 50.2556C158.813 50.234 155.602 50.2219 152.392 50.2124C150.427 50.2062 148.462 50.1944 146.497 50.1793C145.748 50.1747 144.998 50.1724 144.249 50.1724C143.204 50.1723 142.158 50.1652 141.113 50.1565C140.647 50.1592 140.647 50.1592 140.172 50.1619C138.092 50.1344 138.092 50.1344 137.112 49.4775C136.499 48.4628 136.599 47.6408 136.719 46.4844C137.501 45.3125 137.501 45.3125 138.673 44.9219C139.727 44.8803 140.772 44.8605 141.827 44.859C142.149 44.857 142.471 44.8551 142.802 44.8531C143.867 44.8474 144.933 44.8447 145.998 44.8426C146.74 44.8403 147.483 44.8381 148.225 44.8358C149.783 44.8317 151.341 44.8294 152.899 44.8281C154.888 44.8259 156.877 44.8165 158.866 44.8054C160.401 44.7981 161.935 44.7961 163.47 44.7955C164.202 44.7943 164.935 44.7912 165.668 44.7861C174.899 44.7258 174.899 44.7258 178.586 47.7341C180.976 50.0979 182.299 52.7663 182.517 56.1434C182.519 56.67 182.517 57.1966 182.511 57.7232C182.511 58.0131 182.511 58.3031 182.512 58.6018C182.511 59.5508 182.505 60.4997 182.499 61.4487C182.497 62.1104 182.496 62.7721 182.496 63.4338C182.493 65.1683 182.485 66.9028 182.476 68.6373C182.468 70.41 182.465 72.1828 182.461 73.9556C182.452 77.4287 182.439 80.9019 182.423 84.375C182.85 84.3691 183.278 84.3632 183.719 84.3571C186.219 84.3883 188.474 85.32 190.577 86.6455C193.22 89.3668 194.262 91.8941 194.246 95.7307C194.248 96.0416 194.249 96.3524 194.251 96.6727C194.256 97.7108 194.255 98.7488 194.255 99.787C194.257 100.533 194.26 101.278 194.263 102.024C194.27 104.048 194.271 106.071 194.272 108.094C194.273 109.359 194.274 110.623 194.276 111.888C194.284 116.301 194.287 120.714 194.286 125.127C194.286 129.239 194.294 133.351 194.306 137.462C194.316 140.994 194.321 144.526 194.32 148.059C194.32 150.167 194.322 152.276 194.33 154.385C194.338 156.368 194.338 158.351 194.332 160.335C194.332 161.061 194.333 161.788 194.338 162.515C194.344 163.51 194.34 164.504 194.334 165.498C194.34 165.927 194.34 165.927 194.347 166.364C194.305 169.495 192.817 172.027 190.626 174.219C188.397 175.697 186.445 176.606 183.752 176.62C183.393 176.623 183.035 176.626 182.665 176.628C182.275 176.63 181.884 176.631 181.482 176.632C180.861 176.636 180.861 176.636 180.228 176.639C178.858 176.647 177.489 176.652 176.119 176.656C175.651 176.657 175.183 176.659 174.7 176.66C172.222 176.669 169.743 176.674 167.265 176.678C164.708 176.682 162.151 176.696 159.594 176.711C157.625 176.721 155.656 176.725 153.687 176.726C152.745 176.728 151.803 176.732 150.86 176.74C149.539 176.749 148.219 176.749 146.898 176.746C146.317 176.754 146.317 176.754 145.726 176.761C142.047 176.734 139.3 175.514 136.613 173.019C134.271 170.402 133.922 167.493 133.947 164.092C133.947 163.832 133.948 163.573 133.948 163.306C133.95 162.346 133.956 161.385 133.961 160.425C133.969 158.274 133.977 156.123 133.985 153.906C128.7 153.906 123.415 153.906 117.969 153.906C118.614 156.098 119.258 158.289 119.923 160.547C119.923 160.934 119.923 161.32 119.923 161.719C120.692 161.698 120.692 161.698 121.477 161.678C122.155 161.667 122.833 161.656 123.511 161.646C124.018 161.631 124.018 161.631 124.535 161.616C126.441 161.594 127.761 161.619 129.298 162.891C130.164 164.624 129.796 166.968 129.81 168.872C129.822 169.355 129.833 169.838 129.845 170.336C129.848 170.802 129.851 171.268 129.855 171.748C129.863 172.388 129.863 172.388 129.872 173.041C129.64 174.53 129.184 175.11 128.126 176.172C127.054 176.418 127.054 176.418 125.801 176.42C125.325 176.425 124.849 176.431 124.358 176.437C123.832 176.433 123.306 176.429 122.78 176.425C122.225 176.427 121.67 176.431 121.115 176.435C119.608 176.444 118.101 176.44 116.594 176.434C115.017 176.429 113.44 176.434 111.863 176.437C109.214 176.441 106.565 176.436 103.916 176.427C100.854 176.416 97.7924 176.419 94.7307 176.43C92.1016 176.439 89.4726 176.44 86.8435 176.435C85.2734 176.432 83.7035 176.432 82.1334 176.438C80.6568 176.444 79.1806 176.44 77.704 176.429C77.1625 176.426 76.621 176.427 76.0794 176.431C71.4768 176.464 71.4768 176.464 70.1862 175.252C69.3923 173.998 69.2903 173.255 69.3 171.776C69.301 171.313 69.302 170.851 69.3031 170.374C69.3141 169.895 69.3252 169.415 69.3366 168.921C69.3356 168.44 69.3346 167.959 69.3336 167.463C69.3773 163.453 69.3773 163.453 70.7038 162.109C71.7841 161.749 72.4159 161.673 73.5282 161.681C73.8417 161.682 74.1551 161.683 74.4781 161.684C74.8036 161.688 75.1291 161.691 75.4646 161.694C75.7946 161.696 76.1247 161.698 76.4648 161.7C77.2788 161.704 78.0929 161.711 78.9069 161.719C79.0152 161.281 79.1235 160.844 79.235 160.393C79.3779 159.818 79.5208 159.242 79.6638 158.667C79.735 158.379 79.8063 158.09 79.8797 157.793C80.1734 156.613 80.4752 155.451 80.8601 154.297C71.7077 154.168 62.5554 154.039 53.1257 153.906C53.1257 158.289 53.1257 162.672 53.1257 167.188C51.7937 171.183 51.7937 171.183 50.6843 172.412C50.4728 172.657 50.2613 172.902 50.0434 173.154C47.8842 174.921 45.7535 175.173 43.0687 175.158C42.7381 175.161 42.4074 175.163 42.0667 175.166C40.9805 175.173 39.8946 175.172 38.8084 175.169C38.0491 175.171 37.2898 175.173 36.5305 175.176C34.9416 175.179 33.3527 175.178 31.7639 175.174C29.7328 175.17 27.7019 175.178 25.6709 175.189C24.1035 175.196 22.5362 175.196 20.9688 175.194C20.2202 175.194 19.4716 175.196 18.723 175.201C17.6741 175.207 16.6258 175.203 15.577 175.196C15.2711 175.2 14.9652 175.204 14.65 175.207C12.1305 175.174 10.1121 174.41 8.19465 172.755C8.02043 172.537 7.8462 172.319 7.6667 172.095C7.48643 171.878 7.30616 171.661 7.12043 171.437C6.02097 169.753 5.76168 168.291 5.7556 166.297C5.75226 165.802 5.74893 165.308 5.7455 164.798C5.74577 164.253 5.74613 163.708 5.74657 163.163C5.74423 162.587 5.74157 162.011 5.73862 161.434C5.73173 159.871 5.72989 158.308 5.72939 156.744C5.72883 155.767 5.72716 154.789 5.72509 153.812C5.71787 150.399 5.71468 146.986 5.71529 143.573C5.71576 140.396 5.70752 137.219 5.69518 134.042C5.68495 131.311 5.68077 128.58 5.68127 125.849C5.68147 124.219 5.67926 122.59 5.67098 120.96C5.66339 119.426 5.66337 117.893 5.66904 116.359C5.66985 115.798 5.66802 115.237 5.66329 114.676C5.63568 111.178 5.74016 108.59 8.10463 105.85C8.43168 105.589 8.43168 105.589 8.76533 105.322C9.09087 105.052 9.09087 105.052 9.42299 104.776C11.1234 103.666 12.5603 103.423 14.5759 103.467C14.9933 103.474 15.4107 103.481 15.8408 103.488C16.1566 103.497 16.4723 103.506 16.7976 103.516C16.7965 103.27 16.7954 103.024 16.7943 102.77C16.7684 96.7706 16.749 90.7712 16.7368 84.7716C16.7308 81.8703 16.7226 78.9689 16.7092 76.0676C16.6974 73.5374 16.6899 71.0072 16.6873 68.477C16.6858 67.1385 16.6822 65.8 16.6737 64.4616C16.6651 62.9637 16.664 61.4659 16.6645 59.968C16.6603 59.5291 16.6561 59.0902 16.6518 58.6381C16.6676 54.5742 17.3797 51.0186 20.3132 48.0469C23.3927 45.4806 26.4854 44.8038 30.4034 44.8084ZM140.765 91.211C139.222 93.1916 139.005 94.5863 139.008 97.0241C139.007 97.3201 139.006 97.6162 139.005 97.9212C139.001 98.9162 139.001 99.9111 139 100.906C138.998 101.618 138.996 102.33 138.994 103.043C138.989 104.98 138.987 106.917 138.985 108.854C138.984 110.064 138.982 111.273 138.98 112.483C138.975 116.267 138.971 120.052 138.97 123.836C138.968 128.206 138.961 132.576 138.95 136.947C138.942 140.323 138.938 143.7 138.937 147.077C138.937 149.095 138.934 151.112 138.927 153.129C138.921 155.027 138.92 156.925 138.923 158.823C138.924 159.519 138.922 160.215 138.918 160.911C138.913 161.863 138.916 162.813 138.92 163.765C138.916 164.04 138.913 164.315 138.91 164.598C138.931 166.656 139.414 168.261 140.835 169.783C142.331 170.927 143.137 171.531 145.008 171.542C145.353 171.545 145.699 171.547 146.055 171.55C146.435 171.551 146.815 171.552 147.206 171.554C147.806 171.557 147.806 171.557 148.417 171.561C149.744 171.569 151.071 171.574 152.398 171.577C152.851 171.579 153.303 171.581 153.77 171.582C156.166 171.59 158.563 171.596 160.959 171.6C163.435 171.604 165.911 171.617 168.386 171.633C170.289 171.643 172.192 171.646 174.095 171.648C175.008 171.65 175.92 171.654 176.833 171.662C178.111 171.671 179.389 171.671 180.667 171.668C181.232 171.675 181.232 171.675 181.807 171.683C184.174 171.665 185.568 171.313 187.501 169.922C189.383 167.594 189.502 165.66 189.506 162.739C189.507 162.309 189.507 162.309 189.509 161.87C189.511 160.911 189.511 159.951 189.511 158.992C189.512 158.304 189.513 157.615 189.515 156.926C189.518 155.057 189.519 153.188 189.519 151.319C189.519 150.151 189.52 148.983 189.521 147.815C189.525 143.739 189.526 139.663 189.526 135.587C189.526 131.789 189.53 127.991 189.536 124.193C189.541 120.931 189.543 117.669 189.543 114.407C189.543 112.459 189.544 110.511 189.548 108.564C189.552 106.731 189.552 104.899 189.549 103.067C189.549 102.396 189.55 101.724 189.552 101.053C189.555 100.134 189.553 99.2159 189.55 98.2975C189.551 97.7841 189.551 97.2706 189.551 96.7416C189.385 94.3066 188.885 92.3521 187.11 90.625C184.668 89.2528 182.468 89.3132 179.713 89.3799C179.088 89.3878 179.088 89.3878 178.451 89.3959C177.431 89.4096 176.411 89.4289 175.391 89.4531C174.363 91.9703 173.439 94.486 172.629 97.0825C172.266 98.0469 172.266 98.0469 171.485 98.8281C170.364 98.8966 169.282 98.9185 168.162 98.9044C167.833 98.9033 167.505 98.9022 167.167 98.9011C166.116 98.8967 165.065 98.8869 164.014 98.877C163.303 98.8731 162.591 98.8695 161.88 98.8663C160.133 98.8577 158.387 98.8442 156.641 98.8281C155.736 96.6295 154.892 94.448 154.224 92.1631C153.89 90.6918 153.89 90.6918 153.126 89.4531C151.607 89.343 150.083 89.3626 148.56 89.3555C148.135 89.3474 147.709 89.3394 147.27 89.3311C144.689 89.3185 142.758 89.3925 140.765 91.211ZM158.594 89.4531C159.01 92.0091 159.01 92.0091 160.157 94.1406C160.767 94.1746 161.379 94.1824 161.99 94.1788C162.358 94.1775 162.727 94.1763 163.107 94.175C163.689 94.1701 163.689 94.1701 164.283 94.1651C164.672 94.1633 165.062 94.1615 165.463 94.1597C166.429 94.1551 167.394 94.1487 168.36 94.1406C168.548 93.6528 168.735 93.1644 168.922 92.6758C169.026 92.4039 169.13 92.132 169.237 91.8518C169.585 90.9058 169.585 90.9058 169.923 89.4531C166.184 89.4531 162.446 89.4531 158.594 89.4531ZM11.3288 110.156C10.8069 111.2 10.8854 111.999 10.8807 113.169C10.8779 113.643 10.8751 114.118 10.8722 114.608C10.8711 115.137 10.8701 115.666 10.869 116.195C10.8666 116.75 10.864 117.305 10.8613 117.86C10.8545 119.37 10.8503 120.88 10.8471 122.39C10.8451 123.333 10.8427 124.276 10.8403 125.219C10.8328 128.17 10.8273 131.12 10.824 134.07C10.8202 137.477 10.8099 140.884 10.7941 144.291C10.7824 146.923 10.7766 149.556 10.7753 152.188C10.7744 153.761 10.7709 155.333 10.761 156.906C10.752 158.386 10.7503 159.865 10.7543 161.345C10.7545 161.888 10.752 162.43 10.7467 162.973C10.7398 163.715 10.7435 164.457 10.7477 165.198C10.7467 165.613 10.7458 166.028 10.7448 166.455C10.9868 167.86 11.5234 168.513 12.5007 169.531C13.6991 170.13 14.9581 169.99 16.2738 169.997C16.737 170.002 16.737 170.002 17.2095 170.007C18.2339 170.017 19.2582 170.023 20.2827 170.029C20.8073 170.032 20.8073 170.032 21.3425 170.035C23.1941 170.045 25.0457 170.053 26.8974 170.059C28.8091 170.065 30.7205 170.083 32.6321 170.103C34.1026 170.116 35.573 170.12 37.0435 170.122C37.7481 170.125 38.4527 170.131 39.1572 170.14C40.1447 170.153 41.1316 170.153 42.1191 170.15C42.409 170.156 42.6989 170.163 42.9975 170.169C44.5092 170.151 45.4901 169.931 46.6603 169.004C48.0668 167.543 48.0968 166.529 48.1024 164.578C48.1046 164.116 48.1069 163.654 48.1092 163.177C48.1096 162.67 48.1101 162.162 48.1105 161.639C48.1123 161.099 48.1143 160.56 48.1164 160.02C48.1215 158.553 48.124 157.087 48.1258 155.621C48.1269 154.704 48.1285 153.788 48.1303 152.872C48.1356 150.006 48.1394 147.139 48.1409 144.273C48.1426 140.964 48.1495 137.655 48.1608 134.346C48.1692 131.788 48.1732 129.23 48.1737 126.673C48.1741 125.145 48.1764 123.617 48.1834 122.09C48.1898 120.653 48.1907 119.216 48.1873 117.779C48.1868 117 48.1922 116.222 48.1977 115.444C48.1955 114.98 48.1934 114.515 48.1911 114.037C48.1917 113.634 48.1923 113.231 48.1928 112.816C47.9823 111.226 47.297 110.203 46.1982 109.062C44.9346 108.393 43.8992 108.481 42.4812 108.521C41.9877 108.531 41.4942 108.542 40.9858 108.553C40.4208 108.573 40.4208 108.573 39.8444 108.594C39.7657 108.826 39.687 109.059 39.6058 109.299C39.2483 110.35 38.8872 111.401 38.5261 112.451C38.4022 112.817 38.2783 113.183 38.1507 113.561C37.9694 114.085 37.9694 114.085 37.7845 114.621C37.674 114.944 37.5636 115.267 37.4498 115.6C37.1101 116.406 37.1101 116.406 36.3288 117.188C35.2783 117.28 34.2694 117.325 33.2175 117.332C32.9093 117.336 32.601 117.34 32.2835 117.343C31.631 117.349 30.9786 117.352 30.3261 117.354C29.327 117.358 28.3288 117.378 27.3299 117.397C26.6964 117.401 26.063 117.404 25.4295 117.406C25.1304 117.413 24.8313 117.421 24.5231 117.429C23.6778 117.422 23.6778 117.422 22.2663 117.188C21.372 116.123 20.9554 115.014 20.5665 113.69C20.4426 113.279 20.4426 113.279 20.3162 112.86C20.2347 112.58 20.1531 112.3 20.069 112.012C19.6588 110.159 19.6588 110.159 18.7507 108.594C17.8736 108.524 16.9936 108.489 16.114 108.472C15.6326 108.457 15.1512 108.442 14.6552 108.427C13.0621 108.62 12.4511 109.036 11.3288 110.156ZM24.2194 108.594C24.6062 109.883 24.9929 111.172 25.3913 112.5C27.9694 112.5 30.5476 112.5 33.2038 112.5C34.4526 110.082 34.4526 110.082 34.3757 108.594C31.0241 108.594 27.6726 108.594 24.2194 108.594ZM53.1257 135.938C53.1257 140.191 53.1257 144.445 53.1257 148.828C79.8093 148.828 106.493 148.828 133.985 148.828C133.985 144.574 133.985 140.32 133.985 135.938C107.301 135.938 80.6179 135.938 53.1257 135.938ZM86.3288 153.906C84.9735 157.758 84.9735 157.758 84.3757 161.719C94.3015 161.719 104.227 161.719 114.454 161.719C114.073 158.548 114.073 158.548 112.501 153.906C103.864 153.906 95.2272 153.906 86.3288 153.906ZM74.6101 166.797C74.6101 168.215 74.6101 169.633 74.6101 171.094C91.1101 171.094 107.61 171.094 124.61 171.094C124.61 169.676 124.61 168.258 124.61 166.797C108.11 166.797 91.6101 166.797 74.6101 166.797Z" fill="black"/>
<path d="M131.398 34.7244C133.114 36.1488 133.114 36.1488 133.594 37.1094C133.769 39.162 133.769 39.162 133.155 40.1856C132.064 40.8399 131.337 40.7595 130.078 40.625C128.945 39.8941 128.945 39.8941 127.759 38.8916C118.19 31.1286 106.631 27.8912 94.3622 28.9915C85.4412 30.0912 77.1874 33.8188 70.5569 39.8682C69.5315 40.625 69.5315 40.625 68.3108 40.8447C67.1878 40.625 67.1878 40.625 66.2356 40.0147C65.6253 39.0625 65.6253 39.0625 65.6573 37.7548C66.4843 34.4646 70.7447 32.2979 73.5354 30.5908C92.1075 19.6367 114.622 21.3639 131.398 34.7244Z" fill="black"/>
<path d="M123.863 45.9015C124.786 47.1039 124.798 47.7365 124.61 49.2188C124.195 49.9512 124.195 49.9512 123.438 50.3906C121.872 50.5435 120.988 50.5653 119.631 49.7315C119.284 49.4334 118.937 49.1353 118.58 48.8281C114.579 45.653 110.129 43.4863 105.079 42.5781C104.644 42.4895 104.209 42.4009 103.761 42.3096C94.7537 41.5331 86.3731 43.8799 79.4229 49.7055C78.5165 50.3906 78.5165 50.3906 77.1005 50.586C75.7822 50.3906 75.7822 50.3906 75.0009 49.7559C74.4248 48.3876 74.4603 47.89 75.0009 46.4844C79.3827 41.4074 86.7952 38.1045 93.3603 37.1094C93.6241 37.0666 93.888 37.0238 94.1598 36.9797C105.105 35.4818 115.625 38.6608 123.863 45.9015Z" fill="black"/>
<path d="M104.053 64.4287C106.395 65.7451 107.755 67.7949 108.594 70.3125C108.925 73.9732 108.474 76.3622 106.153 79.1992C103.672 81.229 101.636 81.9175 98.3967 81.7871C95.4795 81.4092 93.84 79.9586 91.9712 77.7725C90.3632 75.4388 90.3361 73.0621 90.6254 70.3125C91.4321 67.6525 93.1574 65.7424 95.5326 64.3311C98.2897 63.0641 101.302 63.2357 104.053 64.4287ZM96.4847 69.9219C95.5752 71.178 95.4908 72.3087 95.7035 73.8281C96.4166 74.9706 97.2146 75.9509 98.4379 76.5625C100.256 76.7241 101.271 76.4886 102.735 75.3906C103.694 73.9512 103.79 72.7657 103.516 71.0938C102.815 69.9961 102.337 69.3323 101.172 68.75C99.2306 68.6035 98.0271 68.688 96.4847 69.9219Z" fill="black"/>
<path d="M112.891 54.2969C113.137 54.458 113.384 54.6191 113.638 54.7852C114.847 55.6562 115.226 56.2229 115.649 57.666C115.625 58.9844 115.625 58.9844 115.21 59.7168C114.16 60.3264 113.32 60.4591 112.109 60.5469C111.15 60.0418 111.15 60.0418 110.229 59.3018C106.251 56.3343 101.89 55.0303 96.875 55.6396C93.7168 56.2882 90.4943 57.8101 88.002 59.8541C87.1094 60.5469 87.1094 60.5469 85.8887 60.5469C84.7656 60.1562 84.7656 60.1562 84.0088 59.4971C83.5938 58.5937 83.5938 58.5937 83.4961 57.4951C84.6822 54.4706 88.2272 53.0433 90.9805 51.6647C98.1844 48.7231 106.592 49.931 112.891 54.2969Z" fill="black"/>
<path d="M159.546 161.525C159.904 161.524 160.262 161.524 160.631 161.523C161.388 161.524 162.144 161.528 162.901 161.536C164.058 161.548 165.215 161.545 166.373 161.539C167.108 161.542 167.844 161.545 168.579 161.549C169.098 161.548 169.098 161.548 169.627 161.546C171.027 161.567 172.007 161.587 173.267 162.23C173.828 162.891 173.828 162.891 173.999 164.258C173.828 165.625 173.828 165.625 173.335 166.287C172.495 166.918 172.049 166.947 171.006 166.955C170.675 166.96 170.344 166.965 170.003 166.97C169.646 166.969 169.29 166.967 168.922 166.966C168.555 166.968 168.188 166.97 167.809 166.972C167.032 166.975 166.254 166.974 165.477 166.971C164.288 166.968 163.099 166.979 161.91 166.991C161.155 166.992 160.4 166.992 159.645 166.991C159.289 166.995 158.934 166.999 158.567 167.004C156.106 166.977 156.106 166.977 154.854 166.065C154.297 165.234 154.297 165.234 154.102 164.258C154.691 161.311 157.08 161.494 159.546 161.525Z" fill="black"/>
<path d="M28.398 162.326C29.2684 162.329 30.1378 162.318 31.0081 162.305C31.5643 162.305 32.1205 162.305 32.6767 162.306C33.1802 162.305 33.6837 162.305 34.2025 162.304C35.7656 162.532 36.4313 162.911 37.5 164.062C37.4731 165.623 37.4487 166.458 36.3281 167.578C35.3102 167.666 34.335 167.706 33.316 167.709C33.0174 167.712 32.7187 167.715 32.411 167.717C31.7786 167.721 31.1462 167.723 30.5138 167.723C29.5474 167.725 28.5816 167.739 27.6154 167.754C27.0009 167.756 26.3865 167.757 25.7721 167.758C25.3393 167.767 25.3393 167.767 24.8977 167.775C23.5408 167.763 22.7867 167.674 21.6803 166.86C21.0938 166.016 21.0938 166.016 21.0938 164.819C22.1906 161.597 25.568 162.309 28.398 162.326Z" fill="black"/>
<path d="M99.5361 139.697C99.9261 139.683 100.316 139.668 100.718 139.653C103.596 139.619 103.596 139.619 105.157 140.752C105.859 141.797 105.859 141.797 105.835 143.042C105.469 144.141 105.469 144.141 104.688 144.922C103.721 145.023 103.721 145.023 102.516 145.026C102.083 145.027 101.651 145.028 101.205 145.029C100.751 145.026 100.297 145.023 99.8291 145.02C99.3767 145.023 98.9242 145.026 98.4581 145.029C98.0248 145.028 97.5915 145.027 97.1451 145.026C96.5481 145.024 96.5481 145.024 95.939 145.023C94.9219 144.922 94.9219 144.922 93.75 144.141C93.4082 143.237 93.4082 143.237 93.3594 142.188C94.7414 139.292 96.6345 139.738 99.5361 139.697Z" fill="black"/>
</svg>
