<svg width="512" height="511" viewBox="0 0 512 511" fill="none" xmlns="http://www.w3.org/2000/svg">
<g clip-path="url(#clip0_444_670)">
<path d="M394.855 158.694C396.319 158.681 396.319 158.681 397.814 158.668C401.035 158.644 404.256 158.636 407.477 158.629C409.727 158.62 411.976 158.611 414.226 158.602C418.942 158.585 423.658 158.577 428.373 158.574C434.392 158.569 440.41 158.531 446.429 158.486C451.077 158.456 455.725 158.449 460.373 158.448C462.591 158.444 464.808 158.431 467.025 158.41C492.724 158.187 492.724 158.187 502.938 167.25C510.643 175.859 512.662 184.543 512.407 195.809C511.871 204.229 507.242 211.931 501.048 217.535C492.557 223.612 484.376 225.034 474.251 225.012C473.266 225.01 472.281 225.008 471.266 225.007C470.145 225.003 470.145 225.003 469.001 225C469.01 226.281 469.019 227.561 469.028 228.881C469.109 240.974 469.169 253.068 469.208 265.162C469.229 271.379 469.257 277.595 469.303 283.812C469.346 289.816 469.37 295.82 469.38 301.824C469.388 304.11 469.402 306.396 469.424 308.682C469.453 311.894 469.457 315.106 469.455 318.318C469.469 319.254 469.484 320.191 469.498 321.156C469.434 331.54 465.695 339.353 458.555 346.797C451.864 352.567 443.8 355.25 435.001 355C425.596 354.055 416.644 350.555 410.47 343.168C401.306 330.703 402.597 315.888 402.708 301.172C402.713 298.969 402.718 296.767 402.721 294.565C402.732 288.804 402.761 283.044 402.795 277.283C402.826 271.391 402.839 265.498 402.854 259.605C402.886 248.07 402.937 236.535 403.001 225C402.267 225.009 401.533 225.017 400.777 225.026C399.316 225.037 399.316 225.037 397.825 225.047C396.864 225.056 395.903 225.064 394.914 225.073C385.474 224.836 376.589 221.948 369.446 215.605C362.715 208.128 359.488 199.371 359.747 189.363C360.862 178.985 365.595 171.203 373.665 164.648C380.438 159.546 386.547 158.7 394.855 158.694ZM384.001 183C381.135 187.107 380.507 190.284 381.364 195.105C382.461 198.368 384.301 199.96 387.001 202C393.79 205.162 401.638 204.324 408.968 204.303C410.052 204.323 411.137 204.343 412.255 204.363C413.729 204.368 413.729 204.368 415.233 204.372C419.254 205.284 420.515 206.702 423.001 210C423.737 213.612 423.66 217.17 423.613 220.845C423.618 221.939 423.624 223.032 423.63 224.158C423.643 227.771 423.622 231.383 423.602 234.996C423.608 237.508 423.616 240.02 423.627 242.532C423.65 249.147 423.645 255.761 423.633 262.376C423.613 272.96 423.624 283.545 423.659 294.129C423.665 297.826 423.652 301.523 423.637 305.22C423.64 307.488 423.643 309.757 423.648 312.025C423.634 313.566 423.634 313.566 423.62 315.138C423.65 320.517 423.939 324.371 427.001 329C430.116 332.033 432.589 333.895 437.001 334C441.624 332.621 444.604 331.094 447.197 326.94C448.897 322.837 448.55 318.415 448.515 314.041C448.526 312.401 448.526 312.401 448.537 310.728C448.556 307.12 448.548 303.514 448.54 299.906C448.55 297.396 448.562 294.885 448.576 292.375C448.605 286.443 448.618 280.511 448.621 274.579C448.628 263.33 448.664 252.081 448.715 240.832C448.727 237.14 448.726 233.447 448.724 229.755C448.731 227.489 448.738 225.224 448.745 222.959C448.741 221.933 448.737 220.908 448.733 219.851C448.786 210.495 448.786 210.495 451.001 206C454.137 204.955 456.443 204.845 459.735 204.789C460.867 204.761 461.999 204.732 463.165 204.703C465.54 204.651 467.915 204.607 470.29 204.57C477.875 204.364 483.534 204.022 489.438 198.875C491.615 194.869 491.819 191.466 491.001 187C488.942 183.664 487.261 182.174 484.001 180C480.976 179.8 478.044 179.717 475.019 179.725C473.64 179.718 473.64 179.718 472.234 179.71C469.19 179.696 466.146 179.697 463.102 179.699C460.989 179.695 458.875 179.691 456.761 179.686C452.328 179.679 447.894 179.679 443.461 179.684C437.779 179.69 432.097 179.673 426.415 179.65C422.049 179.635 417.682 179.634 413.316 179.637C411.221 179.637 409.126 179.632 407.031 179.622C404.101 179.609 401.172 179.616 398.242 179.628C397.376 179.62 396.51 179.612 395.618 179.605C390.925 179.646 387.8 179.936 384.001 183Z" fill="black"/>
<path d="M223.011 169.879C244.761 169.195 265.621 176.88 281.999 191C282.984 191.785 283.969 192.57 284.983 193.379C301.339 207.595 310.346 229.692 311.897 250.904C313.126 276.14 304.207 297.402 287.956 316.387C273.6 331.821 252.759 341.379 231.757 342.281C206.337 342.918 184.105 335.88 165.276 318.318C150.836 304.315 140.379 283.119 139.796 262.875C139.434 235.751 146.737 213.965 165.562 194C181.043 178.872 201.629 171.166 223.011 169.879ZM177.284 212.336C163.808 228.046 159.7 245.852 160.999 266C163.036 282.151 172.488 296.811 184.687 307.25C200.102 318.871 217.987 323.307 237.041 320.723C253.788 317.767 268.143 308.008 278.312 294.563C288.63 279.606 293.163 262.934 289.874 244.813C287.553 233.428 283.09 224.153 275.999 215C275.356 214.16 274.713 213.319 274.05 212.453C263.17 199.439 246.512 192.665 229.999 191C209.649 190.17 191.308 197.623 177.284 212.336Z" fill="black"/>
<path d="M59.9031 165.285C67.8162 171.754 73.0139 179.999 74.4606 190.263C74.6387 193.803 74.6655 197.311 74.6318 200.856C74.637 202.199 74.6443 203.543 74.6535 204.886C74.6718 208.498 74.6592 212.109 74.6394 215.721C74.6229 219.522 74.6319 223.323 74.6369 227.124C74.6414 233.503 74.6257 239.882 74.5976 246.261C74.5656 253.61 74.5656 260.959 74.5828 268.309C74.5988 275.413 74.5919 282.518 74.5749 289.622C74.5681 292.631 74.569 295.639 74.5765 298.647C74.5842 302.195 74.5718 305.743 74.5446 309.292C74.5346 311.197 74.5438 313.102 74.5539 315.007C74.4248 326.764 71.4014 336.517 63.0007 345C54.2853 352.164 44.5808 355.675 33.2702 354.785C23.319 353.311 13.7198 349.041 7.41086 340.965C0.781317 331.515 -0.442368 323.834 -0.387475 312.459C-0.391546 311.101 -0.396891 309.744 -0.403405 308.386C-0.417018 304.719 -0.411806 301.052 -0.402268 297.384C-0.39464 293.535 -0.401726 289.686 -0.406426 285.836C-0.411875 279.374 -0.404717 272.911 -0.390405 266.449C-0.37408 258.991 -0.379368 251.534 -0.395883 244.077C-0.409524 237.659 -0.411407 231.241 -0.403569 224.823C-0.398907 220.996 -0.398226 217.17 -0.408177 213.344C-0.416883 209.745 -0.41076 206.147 -0.393495 202.548C-0.387676 200.608 -0.396514 198.668 -0.405877 196.728C-0.326732 185.791 2.41289 176.957 10.0085 168.859C24.028 155.67 44.0808 153.872 59.9031 165.285ZM24.2507 184.687C19.1596 191.36 19.7079 199.889 19.726 207.873C19.7209 209.04 19.7158 210.207 19.7106 211.409C19.6967 215.25 19.6976 219.092 19.6999 222.934C19.697 224.936 19.6941 226.938 19.6905 228.94C19.6795 235.228 19.679 241.517 19.685 247.806C19.6911 254.274 19.6788 260.741 19.6575 267.209C19.6398 272.781 19.6339 278.353 19.6371 283.926C19.6389 287.245 19.635 290.565 19.6224 293.884C19.61 297.589 19.6168 301.293 19.6284 304.998C19.6207 306.084 19.6131 307.171 19.6052 308.29C19.6586 316.037 20.3483 322.883 25.5007 328.938C29.7534 332.446 32.4837 333.632 38.0007 334C43.5704 333.04 46.3852 331.319 50.0007 327C52.5588 323.329 53.3771 320.892 53.3884 316.428C53.3983 315.319 53.4082 314.21 53.4184 313.068C53.4139 311.861 53.4094 310.654 53.4048 309.41C53.4151 307.493 53.4151 307.493 53.4256 305.536C53.4435 302.036 53.4423 298.536 53.4366 295.036C53.4335 292.111 53.4396 289.186 53.4457 286.261C53.4597 279.359 53.4581 272.458 53.4468 265.556C53.4353 258.442 53.4493 251.329 53.4762 244.215C53.4983 238.101 53.5049 231.988 53.4991 225.874C53.4957 222.225 53.4981 218.576 53.5153 214.927C53.5337 210.858 53.5196 206.789 53.5024 202.719C53.5169 200.912 53.5169 200.912 53.5317 199.068C53.4758 192.747 53.3203 188.768 49.0007 184C44.4781 179.919 41.2092 178.676 35.0554 178.789C30.3341 179.274 27.5635 181.45 24.2507 184.687Z" fill="black"/>
<path d="M351.999 368C355.622 370.013 356.787 371.531 358.499 375.312C359.089 379.663 358.15 382.302 355.999 386C354.117 388.107 352.353 389.905 350.249 391.75C349.681 392.259 349.114 392.769 348.529 393.294C311.935 425.527 263.803 442.275 215.118 439.608C183.165 437.439 147.396 428.447 122.171 407.48C120.006 404.745 119.894 401.367 119.999 398C121.675 393.811 123.892 391.815 127.999 390C134.443 388.908 139.145 392.516 144.499 395.625C146.485 396.739 148.473 397.848 150.464 398.953C151.422 399.485 152.379 400.017 153.366 400.564C187.17 418.993 231.176 422.552 267.994 412.154C291.845 405.119 313.11 394.259 331.999 378C334.015 376.328 336.036 374.661 338.062 373C338.96 372.257 339.859 371.515 340.784 370.75C344.61 367.727 347.122 367.587 351.999 368Z" fill="black"/>
<path d="M307.124 91.5625C308.097 92.0215 309.069 92.4806 310.071 92.9536C323.806 99.6132 323.806 99.6132 325.999 104C326.554 108.632 326.636 111.982 324.124 116C320.926 119.01 318.66 119.379 314.26 119.317C310.072 118.73 306.73 116.543 303.124 114.437C287.416 105.77 271.575 100.516 253.999 97C252.773 96.7525 251.547 96.505 250.284 96.25C216.948 90.7512 183.038 97.21 152.999 112C151.839 112.566 150.679 113.132 149.484 113.715C137.93 119.645 127.758 127.155 118.241 135.953C108.184 145.134 108.184 145.134 101.999 145C98.4395 143.744 96.5043 142.623 94.1242 139.687C92.7608 136.431 92.4987 134.503 92.9992 131C108.991 103.954 149.379 86.0919 178.365 78.6289C222.306 68.1384 266.298 72.289 307.124 91.5625Z" fill="black"/>
<path d="M139.488 333.262C144.933 334.862 148.857 339.292 153 343C177.077 362.673 206.054 371.246 237 369C261.552 366.488 284.987 356.476 302.668 339.129C306.976 335.196 310.279 333.429 316.066 333.637C319.14 334.214 320.866 335.801 323 338C324.741 341.483 324.577 345.199 324 349C321.937 351.625 321.937 351.625 319 354C318.06 355.04 317.122 356.081 316.187 357.125C291.924 381.283 256.055 391.281 222.772 391.247C191.146 390.912 162.102 379.305 138 359C137.156 358.304 136.313 357.608 135.445 356.891C134.638 356.205 133.831 355.519 133 354.813C132.278 354.2 131.556 353.588 130.812 352.957C127.76 349.661 126.983 346.952 127.062 342.5C128.848 335.832 132.679 332.868 139.488 333.262Z" fill="black"/>
<path d="M320.769 159.75C323.669 162.675 324.199 164.297 324.374 168.312C324.322 171.942 324.085 172.874 321.937 176C318.4 178.408 316.273 179 311.999 179C307.752 177.206 304.771 175.089 301.499 171.875C279.443 151.535 249.34 142.08 219.648 143.125C201.097 144.224 184.095 149.87 167.999 159C166.994 159.566 165.988 160.132 164.952 160.715C158.816 164.398 153.726 168.776 148.605 173.766C144.723 177.095 141.598 179 136.437 179C132.236 177.778 130.594 176.51 127.999 173C126.911 169.192 126.428 167.112 128.261 163.543C134.556 154.334 143.868 148.113 152.999 142C153.832 141.433 154.665 140.866 155.523 140.281C171.374 130.11 191.38 124.005 209.999 122C211.623 121.816 211.623 121.816 213.28 121.629C253.538 117.889 291.599 132.286 320.769 159.75Z" fill="black"/>
<path d="M246.47 224.543C255.451 231.084 260.737 239.097 263.001 250C263.941 261.231 262.079 270.991 255.001 280C252.563 282.625 252.563 282.625 250.001 285C249.279 285.681 248.557 286.361 247.813 287.063C238.919 293.19 228.571 295.072 217.938 293.438C206.874 290.738 198.857 284.437 192.692 274.996C187.882 266.274 187.107 256.676 189.001 247C192.65 235.391 198.494 228.11 209.001 222C221.053 216.38 235.306 217.566 246.47 224.543ZM211.626 246.688C209.265 251.501 208.088 255.954 209.665 261.215C212.167 266.676 215.335 269.756 220.813 272.313C224.816 273.176 228.142 273.361 232.001 272C235.902 269.438 239.05 266.545 241.501 262.563C242.614 256.859 242.819 252.839 239.938 247.75C237.249 243.923 234.492 241.437 230.001 240C222.235 238.678 216.869 240.755 211.626 246.688Z" fill="black"/>
<path d="M109.813 369.313C112.335 371.258 113.803 372.889 114.372 376.086C114.502 380.585 114.508 382.375 111.563 386C110.717 386.66 109.872 387.32 109.001 388C108.671 388.33 108.341 388.66 108.001 389C103.091 389.499 100.914 389.515 96.563 387.063C93.265 383.121 92.5949 380.079 93.0005 375C94.2078 372.014 95.1987 370.601 97.7505 368.688C102.088 367.362 105.696 367.391 109.813 369.313Z" fill="black"/>
<path d="M353 124C356.414 126.369 357.644 127.975 359 131.875C359 136.043 358.156 138.429 356 142C352.021 144.525 349.986 145.15 345.313 144.438C339.942 142.107 339.942 142.107 338 139C337.102 133.995 337.237 130.272 339.875 125.875C344.277 123.234 347.992 122.98 353 124Z" fill="black"/>
</g>
<defs>
<clipPath id="clip0_444_670">
<rect width="512" height="511" fill="white"/>
</clipPath>
</defs>
</svg>
