<svg width="300" height="300" viewBox="0 0 300 300" fill="none" xmlns="http://www.w3.org/2000/svg">
<path d="M202.588 100.164C206.811 105.333 210.732 110.742 214.333 116.363C224.907 116.348 235.281 119.246 244.316 124.74C257.539 133.029 269.551 154.051 259.75 179.416C255.693 189.288 248.126 197.309 238.506 201.933" stroke="black" stroke-width="6" stroke-linecap="round" stroke-linejoin="round"/>
<path d="M74.9947 126.942C74.7277 127.609 72.77 141.05 72.77 141.05C72.77 141.05 68.472 140.939 61.7493 141.05C57.7023 141.668 53.828 143.12 50.372 145.314C46.916 147.508 43.9533 150.397 41.6733 153.797C39.3927 157.197 37.844 161.033 37.125 165.063C36.406 169.094 36.533 173.23 37.497 177.209C38.4613 182.725 40.5633 187.981 43.6687 192.642C47.4353 198.997 52.9883 204.103 59.636 207.324" stroke="black" stroke-width="6" stroke-linecap="round" stroke-linejoin="round"/>
<path d="M88.4141 198.88L128.354 170.139" stroke="black" stroke-width="6" stroke-linecap="round"/>
<path d="M75.3321 220.959C82.7507 220.959 88.7644 214.945 88.7644 207.527C88.7644 200.109 82.7507 194.095 75.3321 194.095C67.9141 194.095 61.9004 200.109 61.9004 207.527C61.9004 214.945 67.9141 220.959 75.3321 220.959Z" stroke="black" stroke-width="6" stroke-linecap="round" stroke-linejoin="round"/>
<path d="M129.344 197.18L131.194 194.25L119.291 213.571" stroke="black" stroke-width="6" stroke-linecap="round" stroke-linejoin="round"/>
<path d="M112.764 233.358C118.163 233.358 122.541 228.98 122.541 223.58C122.541 218.18 118.163 213.803 112.764 213.803C107.364 213.803 102.986 218.18 102.986 223.58C102.986 228.98 107.364 233.358 112.764 233.358Z" stroke="black" stroke-width="6" stroke-linecap="round" stroke-linejoin="round"/>
<path d="M168.072 197.18L166.221 194.25L178.124 213.571" stroke="black" stroke-width="6" stroke-linecap="round" stroke-linejoin="round"/>
<path d="M184.654 233.358C179.254 233.358 174.877 228.98 174.877 223.58C174.877 218.18 179.254 213.803 184.654 213.803C190.054 213.803 194.431 218.18 194.431 223.58C194.431 228.98 190.054 233.358 184.654 233.358Z" stroke="black" stroke-width="6" stroke-linecap="round" stroke-linejoin="round"/>
<path d="M149.871 233.186L149.887 178.974" stroke="black" stroke-width="6" stroke-linecap="round"/>
<path d="M160.019 247.534C160.019 240.991 154.715 235.688 148.173 235.688C141.63 235.688 136.326 240.991 136.326 247.534C136.326 254.076 141.63 259.379 148.173 259.379C154.715 259.379 160.019 254.076 160.019 247.534Z" stroke="black" stroke-width="6" stroke-linecap="round" stroke-linejoin="round"/>
<path d="M208.401 196.12L166.148 168.752" stroke="black" stroke-width="6" stroke-linecap="round"/>
<path d="M234.838 200.477C232.814 192.928 225.052 188.448 217.503 190.472C209.953 192.497 205.474 200.258 207.498 207.807C209.522 215.357 217.283 219.836 224.833 217.812C232.383 215.788 236.862 208.027 234.838 200.477Z" stroke="black" stroke-width="6" stroke-linecap="round" stroke-linejoin="round"/>
<path d="M92.8262 111.641C102.902 96.8187 117.854 85.9967 135.082 81.0563C152.31 76.1163 170.725 77.3707 187.124 84.6007" stroke="black" stroke-width="6" stroke-linecap="round" stroke-linejoin="round"/>
<path d="M62.0332 94.7423C76.6582 71.8773 99.1235 55.1333 125.215 47.652C151.306 40.1703 179.23 42.465 203.75 54.1057" stroke="black" stroke-width="6" stroke-linecap="round" stroke-linejoin="round"/>
<path d="M123.305 128.701C128.719 121.922 136.108 116.994 144.448 114.603C152.789 112.211 161.667 112.474 169.851 115.355" stroke="black" stroke-width="6" stroke-linecap="round" stroke-linejoin="round"/>
</svg>
