<svg width="200" height="200" viewBox="0 0 200 200" fill="none" xmlns="http://www.w3.org/2000/svg">
<path d="M49.6094 35.9375C50.0187 36.2681 50.425 36.6026 50.8301 36.9385C51.0567 37.1243 51.2833 37.3101 51.5167 37.5015C52.6647 38.5838 53.6607 39.8177 54.6875 41.0156C48.3711 47.332 42.0547 53.6484 35.5469 60.1562C36.0625 61.3164 36.5781 62.4766 37.1094 63.6719C37.5183 65.3075 37.5436 66.7885 37.5244 68.457C37.5227 68.7481 37.5209 69.0391 37.5191 69.339C37.5145 70.0541 37.5075 70.7693 37.5 71.4844C37.9849 71.6401 38.4698 71.7959 38.9693 71.9563C41.2259 72.7093 43.4255 73.5908 45.6314 74.4797C46.06 74.6514 46.4885 74.8232 46.93 75.0001C48.2874 75.5444 49.6442 76.09 51.001 76.6357C51.9259 77.0069 52.8508 77.3779 53.7758 77.7489C56.0333 78.6544 58.2902 79.5611 60.5469 80.4688C60.3 82.0576 59.9727 83.4271 59.3506 84.9121C59.2091 85.2535 59.0676 85.5949 58.9218 85.9467C58.8136 86.2014 58.7053 86.4562 58.5938 86.7188C57.0008 86.4959 55.6241 86.1422 54.1379 85.5308C53.7352 85.3666 53.3325 85.2024 52.9176 85.0332C52.489 84.8558 52.0605 84.6783 51.619 84.4955C51.1742 84.314 50.7294 84.1325 50.2712 83.9455C48.8534 83.3666 47.4368 82.7847 46.0205 82.2021C44.6 81.6183 43.1792 81.0352 41.7573 80.4546C40.8731 80.0936 39.9897 79.7307 39.1071 79.3657C38.7081 79.2027 38.3091 79.0397 37.898 78.8718C37.3712 78.655 37.3712 78.655 36.8338 78.4338C35.9108 78.0614 35.9108 78.0614 34.7656 78.125C34.129 78.7512 34.129 78.7512 33.5205 79.5654C31.1885 82.3326 28.9004 83.2051 25.3906 84.375C25.3906 94.6875 25.3906 105 25.3906 115.625C26.8086 116.141 28.2266 116.656 29.6875 117.188C31.7047 118.401 33.4151 119.937 34.7656 121.875C36.2017 121.628 37.4716 121.231 38.8224 120.687C39.4382 120.441 39.4382 120.441 40.0665 120.189C40.7251 119.923 40.7251 119.923 41.3971 119.652C42.3289 119.279 43.2607 118.907 44.1925 118.534C45.4146 118.044 46.6364 117.553 47.8581 117.061C49.5203 116.393 51.1836 115.727 52.8473 115.062C53.288 114.884 53.7287 114.706 54.1827 114.522C54.5908 114.359 54.9989 114.196 55.4194 114.028C55.7787 113.884 56.1379 113.739 56.5081 113.59C57.4219 113.281 57.4219 113.281 58.5938 113.281C58.9227 114.028 59.2474 114.778 59.5703 115.527C59.7516 115.944 59.9329 116.361 60.1196 116.791C60.5469 117.969 60.5469 117.969 60.5469 119.531C57.6579 120.704 54.7684 121.876 51.8781 123.046C50.5362 123.589 49.1944 124.132 47.8531 124.677C46.5593 125.203 45.265 125.727 43.9704 126.25C43.4758 126.45 42.9815 126.651 42.4874 126.852C41.7967 127.133 41.1053 127.412 40.4139 127.691C39.8231 127.93 39.8231 127.93 39.2205 128.175C38.2813 128.516 38.2813 128.516 37.5 128.516C37.5181 128.917 37.5363 129.318 37.5549 129.732C37.6509 132.831 37.555 135.335 36.2793 138.228C35.8635 139.093 35.8635 139.093 35.9375 140.234C36.656 141.063 37.3798 141.824 38.1607 142.591C38.3969 142.827 38.6332 143.063 38.8765 143.307C39.6601 144.09 40.4477 144.868 41.2354 145.647C41.7786 146.188 42.3216 146.729 42.8643 147.271C44.2951 148.697 45.7294 150.12 47.1644 151.542C48.6275 152.993 50.0872 154.447 51.5472 155.901C54.4137 158.755 57.2838 161.605 60.1563 164.453C60.3919 164.345 60.6276 164.237 60.8704 164.125C61.1826 163.984 61.4948 163.842 61.8164 163.696C62.1246 163.556 62.4327 163.415 62.7502 163.271C64.6641 162.482 66.4041 162.452 68.457 162.476C68.7481 162.477 69.0391 162.479 69.339 162.481C70.0541 162.486 70.7693 162.493 71.4844 162.5C71.5644 162.255 71.6445 162.011 71.727 161.758C71.8849 161.28 71.8849 161.28 72.0459 160.791C72.1501 160.474 72.2544 160.157 72.3618 159.83C72.6563 158.984 72.6563 158.984 73.0469 158.203C75.2971 158.44 77.2344 159.28 79.2969 160.156C79.101 161.212 78.8953 162.136 78.4912 163.135C78.0533 164.078 78.0533 164.078 78.125 165.234C78.7393 165.844 78.7393 165.844 79.541 166.431C82.2484 168.701 83.414 171.246 84.375 174.609C94.6875 174.609 105 174.609 115.625 174.609C116.141 173.191 116.656 171.773 117.188 170.312C119.784 166.443 123.053 163.441 127.734 162.5C131.401 162.105 134.851 162.186 138.255 163.721C139.096 164.139 139.096 164.139 140.234 164.062C140.9 163.568 140.9 163.568 141.551 162.879C141.809 162.621 142.067 162.363 142.333 162.097C142.746 161.674 142.746 161.674 143.169 161.243C143.453 160.957 143.738 160.67 144.031 160.376C144.941 159.459 145.847 158.538 146.753 157.617C147.368 156.996 147.984 156.375 148.6 155.754C150.111 154.23 151.619 152.702 153.125 151.172C153.534 151.503 153.941 151.837 154.346 152.173C154.572 152.359 154.799 152.544 155.032 152.736C156.18 153.818 157.176 155.052 158.203 156.25C153.82 160.633 149.438 165.016 144.922 169.531C145.566 171.207 146.211 172.883 146.875 174.609C147.043 175.895 147.143 176.913 147.095 178.174C147.088 178.473 147.081 178.771 147.074 179.079C146.883 183.677 145.078 187.067 141.771 190.224C137.793 193.575 133.587 194.187 128.543 193.837C124.338 193.384 121.094 190.951 118.433 187.793C117.188 185.938 117.188 185.938 115.625 181.641C105.313 181.641 95 181.641 84.375 181.641C83.8594 183.059 83.3438 184.477 82.8125 185.938C80.2161 189.807 76.9474 192.809 72.2656 193.75C67.4152 194.273 63.1293 193.858 59.082 190.942C55.9237 188.281 53.491 185.037 53.0378 180.832C52.7993 177.392 52.9081 174.309 54.3457 171.12C54.7637 170.279 54.7637 170.279 54.6875 169.141C53.969 168.312 53.2452 167.551 52.4643 166.784C52.2281 166.548 51.9919 166.312 51.7485 166.068C50.965 165.285 50.1773 164.507 49.3897 163.728C48.8464 163.187 48.3034 162.646 47.7607 162.104C46.3299 160.678 44.8956 159.255 43.4606 157.833C41.9976 156.382 40.5378 154.928 39.0778 153.474C36.2113 150.62 33.3412 147.77 30.4688 144.922C30.2331 145.03 29.9974 145.138 29.7546 145.25C29.4424 145.391 29.1303 145.533 28.8086 145.679C28.5004 145.819 28.1923 145.96 27.8748 146.104C24.4203 147.529 19.5205 147.438 15.9912 146.265C11.8709 144.46 8.66496 141.254 6.86036 137.134C5.5722 133.169 5.61913 128.2 7.29676 124.37C9.92795 119.613 13.219 117.494 18.3594 115.625C18.3594 105.313 18.3594 95 18.3594 84.375C16.9414 83.8594 15.5234 83.3438 14.0625 82.8125C10.1934 80.2161 7.19081 76.9474 6.25001 72.2656C5.72733 67.4152 6.14248 63.1293 9.05762 59.082C11.7187 55.9237 14.9629 53.491 19.1683 53.0378C22.6078 52.7993 25.6906 52.9081 28.8803 54.3457C29.7213 54.7637 29.7213 54.7637 30.8594 54.6875C31.7637 53.9552 31.7637 53.9552 32.7136 52.9663C32.8967 52.7834 33.0797 52.6005 33.2683 52.4121C33.8735 51.8061 34.4744 51.1961 35.0754 50.5859C35.4938 50.1653 35.9125 49.7449 36.3315 49.3248C37.4342 48.2177 38.5332 47.1071 39.6316 45.9957C40.7528 44.8625 41.8773 43.7327 43.0016 42.6025C45.2074 40.3841 47.4096 38.162 49.6094 35.9375ZM14.2365 63.6337C12.6251 65.9724 12.6109 68.3396 12.8906 71.0938C13.5834 73.6893 15.4089 75.4585 17.5781 76.9531C19.9214 78.1018 22.6105 78.1636 25.1221 77.4933C27.5161 76.4365 29.3904 74.4498 30.5359 72.113C31.2805 69.7668 31.2752 66.991 30.2734 64.7217C28.9123 62.4014 26.7834 60.5795 24.2188 59.7656C19.7522 59.2358 17.1179 60.2631 14.2365 63.6337ZM14.2365 126.134C12.6251 128.472 12.6109 130.84 12.8906 133.594C13.5834 136.189 15.4089 137.958 17.5781 139.453C19.9214 140.602 22.6105 140.664 25.1221 139.993C27.5161 138.937 29.3904 136.95 30.5359 134.613C31.2805 132.267 31.2752 129.491 30.2734 127.222C28.9123 124.901 26.7834 123.08 24.2188 122.266C19.7522 121.736 17.1179 122.763 14.2365 126.134ZM61.1115 173.009C59.5001 175.347 59.4859 177.715 59.7656 180.469C60.4584 183.064 62.2839 184.833 64.4531 186.328C66.7964 187.477 69.4855 187.539 71.9971 186.868C74.3911 185.812 76.2654 183.825 77.4109 181.488C78.1555 179.142 78.1502 176.366 77.1484 174.097C75.7873 171.776 73.6584 169.955 71.0938 169.141C66.6272 168.611 63.9929 169.638 61.1115 173.009ZM123.611 173.009C122 175.347 121.986 177.715 122.266 180.469C122.958 183.064 124.784 184.833 126.953 186.328C129.296 187.477 131.985 187.539 134.497 186.868C136.891 185.812 138.765 183.825 139.911 181.488C140.656 179.142 140.65 176.366 139.648 174.097C138.287 171.776 136.158 169.955 133.594 169.141C129.127 168.611 126.493 169.638 123.611 173.009Z" fill="black"/>
<path d="M79.2703 9.77629C81.9954 12.3778 83.0362 14.6794 84.3743 18.3594C94.6868 18.3594 104.999 18.3594 115.624 18.3594C116.14 16.9414 116.656 15.5234 117.187 14.0625C119.783 10.1934 123.052 7.19079 127.734 6.24999C132.584 5.72731 136.87 6.14246 140.917 9.05761C144.076 11.7187 146.508 14.9629 146.962 19.1683C147.2 22.6077 147.091 25.6906 145.654 28.8803C145.236 29.7212 145.236 29.7212 145.312 30.8594C146.03 31.688 146.754 32.4493 147.535 33.2156C147.771 33.452 148.007 33.6884 148.251 33.9319C149.034 34.7147 149.822 35.4931 150.61 36.2717C151.153 36.8127 151.696 37.354 152.239 37.8956C153.669 39.3219 155.104 40.7447 156.539 42.1667C158.002 43.6178 159.462 45.0722 160.922 46.5263C163.788 49.3802 166.658 52.2303 169.531 55.0781C169.884 54.9157 169.884 54.9157 170.245 54.75C170.557 54.6086 170.869 54.4671 171.191 54.3213C171.499 54.1808 171.807 54.0403 172.125 53.8956C175.579 52.4714 180.479 52.5623 184.008 53.7353C188.128 55.5399 191.334 58.7459 193.139 62.8662C194.427 66.831 194.38 71.7998 192.703 75.6302C190.071 80.3866 186.78 82.5057 181.64 84.375C181.64 94.6875 181.64 105 181.64 115.625C183.058 116.141 184.476 116.656 185.937 117.187C189.806 119.784 192.809 123.053 193.749 127.734C194.272 132.585 193.857 136.871 190.942 140.918C188.281 144.076 185.036 146.509 180.831 146.962C177.392 147.201 174.309 147.092 171.119 145.654C170.278 145.236 170.278 145.236 169.14 145.312C168.472 145.818 168.472 145.818 167.829 146.509C167.586 146.756 167.343 147.002 167.093 147.256C166.842 147.517 166.591 147.778 166.332 148.047C166.077 148.308 165.821 148.569 165.558 148.837C164.926 149.483 164.298 150.131 163.671 150.781C163.262 150.451 162.856 150.116 162.451 149.78C162.224 149.594 161.997 149.409 161.764 149.217C160.616 148.135 159.62 146.901 158.593 145.703C160.527 143.77 162.46 141.836 164.452 139.844C163.937 138.684 163.421 137.523 162.89 136.328C162.481 134.692 162.456 133.211 162.475 131.543C162.477 131.252 162.478 130.961 162.48 130.661C162.485 129.946 162.492 129.231 162.499 128.516C162.024 128.363 161.549 128.209 161.059 128.052C160.367 127.818 159.675 127.581 158.984 127.344C158.538 127.193 158.092 127.042 157.633 126.886C157.177 126.723 156.72 126.56 156.249 126.392C155.814 126.239 155.379 126.086 154.931 125.929C153.906 125.391 153.906 125.391 153.504 124.712C153.52 123.404 153.973 122.396 154.467 121.191C154.744 120.506 154.744 120.506 155.027 119.806C155.173 119.457 155.318 119.109 155.468 118.75C158.098 119.466 160.567 120.387 163.059 121.489C164.065 121.945 164.065 121.945 165.234 121.875C165.843 121.261 165.843 121.261 166.43 120.459C168.701 117.752 171.245 116.586 174.609 115.625C174.609 105.312 174.609 95 174.609 84.375C173.191 83.8594 171.773 83.3437 170.312 82.8125C168.295 81.5989 166.584 80.0627 165.234 78.125C163.798 78.3722 162.528 78.7693 161.177 79.313C160.766 79.4772 160.356 79.6414 159.933 79.8106C159.494 79.988 159.055 80.1654 158.602 80.3482C157.67 80.7208 156.739 81.0933 155.807 81.4659C154.585 81.9562 153.363 82.4474 152.141 82.9389C150.479 83.6074 148.816 84.2731 147.152 84.938C146.711 85.1162 146.271 85.2945 145.817 85.4781C145.409 85.641 145 85.804 144.58 85.9719C144.221 86.1165 143.861 86.261 143.491 86.4099C142.577 86.7187 142.577 86.7187 141.406 86.7187C141.077 85.9715 140.752 85.2225 140.429 84.4726C140.248 84.0557 140.066 83.6388 139.88 83.2092C139.452 82.0312 139.452 82.0312 139.452 80.4687C142.341 79.2957 145.231 78.1242 148.121 76.9545C149.463 76.4113 150.805 75.8677 152.146 75.3229C153.44 74.7974 154.734 74.2733 156.029 73.7501C156.524 73.5499 157.018 73.3493 157.512 73.1482C158.203 72.8673 158.894 72.5881 159.585 72.3091C159.979 72.1495 160.373 71.9899 160.779 71.8254C161.718 71.4844 161.718 71.4844 162.499 71.4844C162.481 71.083 162.463 70.6817 162.444 70.2682C162.348 67.1694 162.444 64.6647 163.72 61.7721C164.136 60.9071 164.136 60.9071 164.062 59.7656C163.343 58.937 162.62 58.1757 161.839 57.4094C161.484 57.0548 161.484 57.0548 161.123 56.693C160.339 55.9103 159.552 55.1318 158.764 54.3533C158.221 53.8123 157.678 53.2709 157.135 52.7294C155.704 51.3031 154.27 49.8803 152.835 48.4583C151.372 47.0072 149.912 45.5528 148.452 44.0987C145.586 41.2448 142.716 38.3947 139.843 35.5469C139.607 35.6551 139.372 35.7634 139.129 35.8749C138.817 36.0164 138.505 36.1579 138.183 36.3037C137.875 36.4442 137.567 36.5847 137.249 36.7294C135.335 37.5184 133.595 37.548 131.542 37.5244C131.251 37.5226 130.96 37.5209 130.66 37.5191C129.945 37.5145 129.23 37.5075 128.515 37.5C128.449 37.7085 128.382 37.9169 128.314 38.1317C127.564 40.4364 126.702 42.6809 125.781 44.9219C123.53 44.685 121.593 43.8451 119.531 42.9687C119.757 41.2301 120.211 39.8073 120.922 38.208C121.679 36.5482 121.679 36.5482 121.874 34.7656C121.26 34.1564 121.26 34.1564 120.458 33.5693C117.751 31.2988 116.585 28.7542 115.624 25.3906C105.312 25.3906 94.9993 25.3906 84.3743 25.3906C83.8587 26.8086 83.3431 28.2266 82.8118 29.6875C81.5983 31.7047 80.062 33.4151 78.1243 34.7656C78.3054 35.8216 78.5269 36.7482 78.93 37.7441C79.2962 38.6719 79.2962 38.6719 79.2962 39.8437C78.549 40.1727 77.8 40.4974 77.0501 40.8203C76.4247 41.0922 76.4247 41.0922 75.7867 41.3696C74.6087 41.7969 74.6087 41.7969 73.0462 41.7969C72.784 41.228 72.524 40.6582 72.265 40.0879C72.1199 39.7706 71.9749 39.4534 71.8255 39.1266C71.4837 38.2812 71.4837 38.2812 71.4837 37.5C71.0824 37.5181 70.6811 37.5362 70.2676 37.5549C64.6162 37.7348 60.9534 36.4697 56.7514 32.5836C53.6625 29.3611 52.6457 25.0565 52.7337 20.7031C53.0312 16.544 55.0003 12.4799 58.0758 9.66796C64.4924 4.83668 73.0062 4.49832 79.2703 9.77629ZM61.1108 16.7587C59.4994 19.0974 59.4853 21.4646 59.765 24.2187C60.4577 26.8143 62.2832 28.5835 64.4525 30.0781C66.7958 31.2268 69.4848 31.2886 71.9964 30.6183C74.3905 29.5615 76.2648 27.5747 77.4102 25.238C78.1548 22.8918 78.1495 20.116 77.1478 17.8467C75.7866 15.5264 73.6577 13.7045 71.0931 12.8906C66.6265 12.3608 63.9922 13.3881 61.1108 16.7587ZM123.611 16.7587C121.999 19.0974 121.985 21.4646 122.265 24.2187C122.958 26.8143 124.783 28.5835 126.952 30.0781C129.296 31.2268 131.985 31.2886 134.496 30.6183C136.89 29.5615 138.765 27.5747 139.91 25.238C140.655 22.8918 140.649 20.116 139.648 17.8467C138.287 15.5264 136.158 13.7045 133.593 12.8906C129.127 12.3608 126.492 13.3881 123.611 16.7587ZM170.486 63.6337C168.874 65.9724 168.86 68.3396 169.14 71.0937C169.833 73.6893 171.658 75.4585 173.827 76.9531C176.171 78.1018 178.86 78.1636 181.371 77.4933C183.765 76.4365 185.64 74.4497 186.785 72.113C187.53 69.7668 187.525 66.991 186.523 64.7217C185.162 62.4014 183.033 60.5795 180.468 59.7656C176.002 59.2358 173.367 60.2631 170.486 63.6337ZM170.486 126.134C168.874 128.472 168.86 130.84 169.14 133.594C169.833 136.189 171.658 137.958 173.827 139.453C176.171 140.602 178.86 140.664 181.371 139.993C183.765 138.937 185.64 136.95 186.785 134.613C187.53 132.267 187.525 129.491 186.523 127.222C185.162 124.901 183.033 123.08 180.468 122.266C176.002 121.736 173.367 122.763 170.486 126.134Z" fill="black"/>
<path d="M79.7944 46.7615C80.2762 46.7589 80.7579 46.7563 81.2543 46.7536C82.5715 46.7474 83.8887 46.7449 85.206 46.7444C86.0306 46.7438 86.8552 46.7421 87.6799 46.7401C90.5616 46.7328 93.4433 46.7296 96.325 46.7303C99.0033 46.7307 101.681 46.7225 104.36 46.7101C106.665 46.6999 108.971 46.6957 111.277 46.6962C112.651 46.6964 114.025 46.6943 115.399 46.6859C116.934 46.6769 118.469 46.6805 120.004 46.6852C120.454 46.6808 120.904 46.6765 121.367 46.6719C125.09 46.7008 128.27 47.5265 131.043 50.116C133.217 52.5345 134.519 55.2011 134.376 58.5025C134.36 58.7837 134.343 59.0649 134.326 59.3546C134.298 59.9823 134.27 60.61 134.243 61.2378C134.228 61.5686 134.212 61.8994 134.196 62.2403C134.105 64.3959 134.07 66.5534 134.026 68.7105C133.984 70.5918 133.923 72.4683 133.817 74.3471C133.125 84.0034 133.125 84.0034 137.162 92.4099C139.187 94.6047 141.457 96.4939 143.787 98.3528C145.87 100.047 147.244 101.881 148.438 104.297C148.687 104.75 148.687 104.75 148.94 105.212C150.676 108.966 150.194 113.351 150.153 117.387C150.15 118.24 150.148 119.092 150.146 119.944C150.14 122.174 150.125 124.404 150.108 126.635C150.092 128.915 150.085 131.196 150.077 133.477C150.06 137.943 150.033 142.409 150 146.875C147.938 146.875 145.875 146.875 143.75 146.875C143.743 145.868 143.735 144.861 143.727 143.824C143.701 140.484 143.67 137.144 143.638 133.805C143.619 131.781 143.601 129.758 143.586 127.734C143.571 125.779 143.553 123.824 143.533 121.869C143.525 121.125 143.519 120.382 143.515 119.639C143.541 110.835 143.541 110.835 139.153 103.453C138.631 102.941 138.104 102.433 137.574 101.929C137.303 101.665 137.032 101.402 136.754 101.13C136.095 100.489 135.432 99.8523 134.766 99.2188C134.636 102.129 134.548 105.039 134.487 107.952C134.462 108.941 134.427 109.929 134.383 110.917C133.89 116.812 133.89 116.812 135.919 122.125C137.102 123.41 138.391 124.427 139.844 125.391C139.182 126.81 138.384 127.713 137.256 128.809C136.777 129.277 136.777 129.277 136.289 129.755C136.044 129.99 135.8 130.226 135.547 130.469C134.202 129.893 133.361 129.144 132.351 128.093C132.033 127.764 131.715 127.436 131.387 127.098C131.046 126.743 130.705 126.388 130.353 126.022C129.812 125.468 129.27 124.913 128.728 124.359C127.392 122.994 126.06 121.625 124.738 120.248C123.995 119.474 123.248 118.705 122.497 117.941C121.789 117.221 121.088 116.495 120.394 115.763C118.454 113.702 118.454 113.702 115.825 113.034C114.518 113.203 114.518 113.203 113.672 113.672C113.032 114.952 113.011 116.201 113.282 117.578C113.95 118.66 114.818 119.472 115.746 120.334C115.997 120.579 116.247 120.824 116.505 121.077C117.304 121.855 118.112 122.622 118.921 123.389C119.727 124.166 120.53 124.946 121.333 125.726C121.833 126.209 122.335 126.691 122.838 127.171C124.947 129.185 124.947 129.185 125.147 131.055C125.134 132.891 124.39 134.153 123.534 135.741C121.531 139.765 122.043 143.879 123.372 148.016C123.805 149.238 123.805 149.238 124.463 150.388C125.353 152.333 125.071 154.134 125 156.25C122.938 156.25 120.875 156.25 118.75 156.25C118.662 155.831 118.573 155.412 118.482 154.98C118.124 153.523 117.595 152.204 116.993 150.83C114.431 144.793 115.058 139.343 116.797 133.203C116.908 132.959 117.019 132.714 117.133 132.462C117.287 131.548 117.287 131.548 116.439 130.701C116.073 130.357 115.707 130.014 115.329 129.66C115.036 129.378 115.036 129.378 114.738 129.091C113.902 128.287 113.057 127.496 112.211 126.704C109.284 123.947 106.731 121.42 105.991 117.31C106.027 114.276 106.322 111.835 108.204 109.375C110.469 107.183 112.727 106.139 115.894 106.079C120.202 106.178 122.407 107.845 125.316 110.823C125.55 111.059 125.783 111.296 126.024 111.539C126.596 112.119 127.165 112.7 127.735 113.281C127.762 106.313 127.783 99.3457 127.796 92.3779C127.802 89.1424 127.81 85.907 127.823 82.6715C127.835 79.8504 127.843 77.0294 127.845 74.2084C127.847 72.7155 127.85 71.2228 127.859 69.7299C127.867 68.3227 127.869 66.9156 127.867 65.5084C127.868 64.75 127.874 63.9917 127.881 63.2334C127.87 60.2125 127.824 57.2259 125.684 54.9072C123.226 53.5107 120.76 53.3725 117.994 53.2715C117.652 53.2564 117.31 53.2413 116.958 53.2257C116.124 53.1892 115.289 53.1567 114.454 53.125C114.345 53.473 114.236 53.8209 114.124 54.1794C113.726 55.3167 113.282 56.2999 112.696 57.3487C112.531 57.6493 112.365 57.9499 112.195 58.2596C111.719 58.9844 111.719 58.9844 110.938 59.375C110.248 59.4184 109.557 59.4372 108.866 59.4442C108.433 59.4492 108 59.4542 107.554 59.4594C107.085 59.4622 106.615 59.4651 106.131 59.4681C105.651 59.4713 105.17 59.4744 104.675 59.4777C103.656 59.4831 102.638 59.4873 101.619 59.4903C100.574 59.4938 99.529 59.5019 98.484 59.5144C96.9803 59.531 95.477 59.5373 93.9733 59.5413C93.2713 59.5516 93.2713 59.5516 92.5552 59.5621C92.1199 59.5609 91.6845 59.5598 91.236 59.5586C90.8533 59.5609 90.4705 59.5632 90.0761 59.5655C88.7736 59.3206 88.3297 58.8233 87.5005 57.8125C86.9207 56.8329 86.9207 56.8329 86.4263 55.8106C86.2591 55.4712 86.0919 55.1318 85.9197 54.7821C85.5474 53.9063 85.5474 53.9063 85.5474 53.125C84.3831 53.1594 83.2199 53.2012 82.0562 53.2471C81.7316 53.2559 81.4071 53.2647 81.0727 53.2738C78.4017 53.3881 75.6835 53.6965 73.6577 55.5664C72.3779 57.819 72.1335 60.1392 72.022 62.6709C71.9736 63.6458 71.9253 64.6206 71.8755 65.625C69.813 65.625 67.7505 65.625 65.6255 65.625C65.583 64.1436 65.5522 62.6634 65.5278 61.1817C65.5147 60.7672 65.5017 60.3528 65.4882 59.9259C65.4421 56.1678 66.2539 53.0048 68.8665 50.2075C72.1786 47.2297 75.4682 46.7582 79.7944 46.7615Z" fill="black"/>
<path d="M65.6255 71.875C67.688 71.875 69.7505 71.875 71.8755 71.875C71.8789 73.214 71.8789 73.214 71.8824 74.58C71.9046 82.989 71.9331 91.3979 71.9676 99.8069C71.9851 104.13 72.0005 108.453 72.0108 112.776C72.0198 116.545 72.0329 120.314 72.0508 124.082C72.0601 126.077 72.0674 128.072 72.0699 130.067C72.0722 131.947 72.0801 133.826 72.092 135.705C72.0954 136.393 72.0969 137.081 72.0962 137.77C71.9004 143.38 71.9004 143.38 74.3169 148.218C76.6619 149.55 78.965 149.727 81.5914 149.734C81.9271 149.738 82.2628 149.742 82.6086 149.746C83.7098 149.758 84.8109 149.765 85.9121 149.771C86.6788 149.778 87.4456 149.786 88.2124 149.794C90.2243 149.814 92.2362 149.83 94.2482 149.844C96.3037 149.86 98.3593 149.88 100.415 149.899C104.443 149.937 108.472 149.97 112.5 150C112.5 152.063 112.5 154.125 112.5 156.25C107.672 156.286 102.843 156.314 98.0145 156.331C95.7721 156.339 93.5298 156.35 91.2874 156.368C89.1219 156.385 86.9565 156.394 84.7909 156.398C83.9663 156.401 83.1416 156.407 82.3171 156.415C81.1586 156.427 80.0005 156.428 78.842 156.427C78.504 156.433 78.166 156.439 77.8177 156.444C74.1694 156.42 70.9909 154.848 68.3599 152.344C66.2842 149.71 65.5048 147.091 65.5316 143.746C65.5309 143.438 65.5302 143.129 65.5295 142.812C65.5282 141.782 65.5325 140.753 65.5368 139.724C65.537 138.985 65.5369 138.246 65.5365 137.506C65.5362 135.502 65.5408 133.497 65.5463 131.493C65.5512 129.397 65.5516 127.301 65.5526 125.205C65.555 121.238 65.5614 117.27 65.5692 113.303C65.578 108.785 65.5823 104.268 65.5862 99.7502C65.5943 90.4585 65.6082 81.1667 65.6255 71.875Z" fill="black"/>
<path d="M118.146 83.7967C119.153 84.6171 120.135 85.4509 121.094 86.3281C120.494 87.7659 119.617 88.6671 118.506 89.7461C118.187 90.0583 117.867 90.3705 117.538 90.6921C117.294 90.9278 117.049 91.1635 116.797 91.4063C115.682 90.8879 114.774 90.297 113.818 89.5264C108.492 85.4895 102.626 84.5582 96.0938 85.1563C94.3031 85.4961 92.6919 86.0093 91.0156 86.7188C90.4877 86.9378 90.4877 86.9378 89.949 87.1613C87.624 88.2235 85.8142 89.6326 83.9844 91.4063C82.5466 90.8061 81.6454 89.9291 80.5664 88.8184C80.2542 88.4991 79.942 88.1799 79.6204 87.851C79.3847 87.6062 79.149 87.3615 78.9062 87.1094C80.2284 83.7238 84.8724 81.592 88.039 80.179C97.767 76.0671 109.682 77.38 118.146 83.7967Z" fill="black"/>
<path d="M109.155 92.2119C109.651 92.5866 109.651 92.5866 110.156 92.9688C110.462 93.1943 110.769 93.4199 111.084 93.6524C111.293 93.8135 111.503 93.9746 111.719 94.1406C111.119 95.5784 110.242 96.4796 109.131 97.5586C108.812 97.8708 108.492 98.183 108.163 98.5047C107.919 98.7403 107.674 98.976 107.422 99.2188C106.411 98.7287 105.497 98.2094 104.541 97.6074C102.059 96.3711 98.8888 96.3406 96.2738 97.2016C95.355 97.6424 95.355 97.6424 94.1406 98.4375C93.3672 98.8242 93.3672 98.8242 92.5781 99.2188C91.1602 97.8008 89.7422 96.3828 88.2812 94.9219C88.9956 92.7789 91.2131 91.9227 93.129 90.9073C98.2281 88.6927 104.501 89.2354 109.155 92.2119Z" fill="black"/>
<path d="M93.75 137.5C97.875 137.5 102 137.5 106.25 137.5C106.25 139.563 106.25 141.625 106.25 143.75C102.125 143.75 98 143.75 93.75 143.75C93.75 141.687 93.75 139.625 93.75 137.5Z" fill="black"/>
<path d="M96.875 109.375C98.9375 109.375 101 109.375 103.125 109.375C103.125 111.438 103.125 113.5 103.125 115.625C101.062 115.625 99 115.625 96.875 115.625C96.875 113.562 96.875 111.5 96.875 109.375Z" fill="black"/>
<path d="M84.375 109.375C86.4375 109.375 88.5 109.375 90.625 109.375C90.625 111.438 90.625 113.5 90.625 115.625C88.5625 115.625 86.5 115.625 84.375 115.625C84.375 113.562 84.375 111.5 84.375 109.375Z" fill="black"/>
</svg>
