<svg width="200" height="200" viewBox="0 0 200 200" fill="none" xmlns="http://www.w3.org/2000/svg">
<path d="M108.692 6.90919C110.369 8.25445 111.464 9.85001 112.5 11.7188C112.634 11.9499 112.767 12.181 112.905 12.4191C114.357 15.48 114.196 20.0457 113.111 23.1934C111.607 26.3438 108.772 29.5491 105.469 30.8594C104.116 31.0527 104.116 31.0527 102.735 31.25C102.735 38.8555 102.735 46.461 102.735 54.2969C103.895 54.6836 103.895 54.6836 105.078 55.0781C110.84 58.1547 115.063 62.796 118.36 68.3594C118.624 68.2511 118.887 68.1429 119.159 68.0313C119.508 67.8898 119.856 67.7483 120.215 67.6026C120.732 67.3918 120.732 67.3918 121.259 67.1768C125.248 65.6719 130.187 65.9373 134.124 67.4774C138.776 69.69 141.607 72.8877 143.36 77.7344C143.704 79.1014 143.794 80.3554 143.775 81.7627C143.771 82.1076 143.768 82.4526 143.764 82.8079C143.76 83.0673 143.755 83.3266 143.75 83.5938C144.218 83.6099 144.685 83.626 145.166 83.6426C150.399 84.2578 155.382 87.417 158.783 91.359C160.117 93.1472 161.106 94.8667 162.11 96.875C165.397 97.0684 165.397 97.0684 168.75 97.2656C168.879 96.3633 169.008 95.461 169.141 94.5313C170.949 90.9048 173.903 88.1863 177.645 86.6715C181.014 85.7547 185.056 85.8839 188.214 87.3993C191.611 89.3666 194.396 91.9226 195.519 95.8023C196.335 100.545 195.805 104.67 193.091 108.691C191.746 110.369 190.15 111.464 188.282 112.5C187.935 112.7 187.935 112.7 187.581 112.904C184.52 114.357 179.955 114.196 176.807 113.11C173.657 111.607 170.451 108.772 169.141 105.469C169.012 104.566 168.883 103.664 168.75 102.734C166.817 102.734 164.883 102.734 162.891 102.734C162.867 103.218 162.843 103.701 162.818 104.199C162.274 108.876 159.824 112.744 156.33 115.799C150.295 120.536 144.278 121.683 136.817 121.558C136.198 121.552 135.58 121.546 134.961 121.542C133.464 121.529 131.966 121.509 130.469 121.484C130.395 124.167 130.406 126.375 132.231 128.466C132.828 129.063 133.439 129.647 134.06 130.22C134.38 130.534 134.7 130.847 135.03 131.17C136.046 132.161 137.078 133.133 138.111 134.106C138.806 134.779 139.501 135.452 140.194 136.126C141.888 137.769 143.595 139.397 145.313 141.016C146.891 140.493 148.444 139.94 149.99 139.33C154.117 137.938 158.155 138.621 162.11 140.234C166.172 142.287 168.696 145.469 170.348 149.651C171.699 153.949 171.358 158.445 169.345 162.486C166.787 166.745 163.239 169.605 158.374 170.825C153.762 171.664 149.347 170.805 145.409 168.222C141.696 165.497 139.398 161.602 138.672 157.031C138.375 153.503 138.892 150.243 140.552 147.095C141.125 146.156 141.125 146.156 140.787 145.388C140.036 144.223 139.092 143.293 138.108 142.328C137.901 142.122 137.694 141.916 137.48 141.704C136.822 141.05 136.16 140.398 135.498 139.746C135.05 139.302 134.602 138.857 134.154 138.412C133.058 137.325 131.96 136.24 130.86 135.156C130.86 135.439 130.859 135.722 130.859 136.014C130.853 142.906 130.837 149.799 130.808 156.691C130.795 160.024 130.785 163.357 130.783 166.69C130.782 169.596 130.774 172.502 130.758 175.408C130.75 176.946 130.745 178.484 130.748 180.022C130.751 181.471 130.745 182.92 130.732 184.37C130.727 185.152 130.732 185.934 130.737 186.716C130.701 189.53 130.535 191.668 128.516 193.75C126.121 196.006 123.579 195.983 120.424 195.956C119.934 195.959 119.443 195.963 118.937 195.966C117.599 195.975 116.261 195.972 114.923 195.965C113.518 195.961 112.113 195.965 110.708 195.968C108.349 195.972 105.99 195.967 103.631 195.958C100.909 195.947 98.1884 195.951 95.467 195.961C93.1242 195.97 90.7814 195.971 88.4385 195.966C87.042 195.963 85.6456 195.963 84.2491 195.969C82.6914 195.976 81.1342 195.967 79.5765 195.956C79.1178 195.96 78.6591 195.964 78.1865 195.968C75.4726 195.933 73.5065 195.655 71.4847 193.75C69.0918 191.283 69.2523 188.447 69.274 185.178C69.2707 184.631 69.2666 184.084 69.2616 183.538C69.2507 182.061 69.2516 180.584 69.2547 179.107C69.2559 177.561 69.2461 176.015 69.2375 174.469C69.2229 171.544 69.2182 168.62 69.217 165.695C69.2151 162.364 69.2023 159.033 69.1885 155.702C69.1604 148.854 69.1476 142.005 69.141 135.156C65.7894 138.508 62.4379 141.859 58.9847 145.313C59.5132 146.898 60.059 148.439 60.6708 149.989C62.0625 154.117 61.3791 158.154 59.766 162.109C57.713 166.172 54.5317 168.696 50.3498 170.348C46.0517 171.699 41.5554 171.358 37.5141 169.345C33.2557 166.787 30.3956 163.239 29.1752 158.374C28.3363 153.76 29.1978 149.35 31.7768 145.409C34.2976 141.982 37.8108 139.503 42.0688 138.768C45.9194 138.357 49.441 138.725 52.9056 140.552C53.236 140.705 53.5663 140.858 53.9066 141.016C55.1226 140.56 55.9609 139.857 56.8953 138.971C57.1677 138.714 57.44 138.457 57.7206 138.192C58.9541 137.004 60.1838 135.812 61.4068 134.613C62.0517 133.985 62.7015 133.362 63.3561 132.744C67.8119 128.871 67.8119 128.871 69.759 123.579C69.711 122.403 69.711 122.403 69.5316 121.484C68.9711 121.497 68.9711 121.497 68.3992 121.509C66.9854 121.538 65.5717 121.556 64.1577 121.57C63.5508 121.578 62.944 121.589 62.3373 121.602C55.1532 121.76 48.7153 120.081 43.0942 115.337C39.4637 111.798 37.4347 107.771 37.1097 102.734C35.1761 102.734 33.2426 102.734 31.2504 102.734C31.1215 103.637 30.9926 104.539 30.8597 105.469C29.3114 108.825 26.3891 111.65 22.9984 113.086C19.3769 114.224 15.2876 114.274 11.8259 112.624C7.94793 110.378 5.48852 107.507 4.29724 103.125C3.86798 98.3533 4.44688 94.3792 7.51532 90.5533C8.75954 89.2705 10.1626 88.363 11.7191 87.5C11.9502 87.3666 12.1814 87.2331 12.4195 87.0957C15.385 85.6882 19.2865 85.8966 22.4171 86.644C26.5048 88.1566 29.0909 90.9392 30.9467 94.8197C31.2504 95.7031 31.2504 95.7031 31.2504 97.2656C34.6047 97.4463 34.6047 97.4463 37.891 96.875C38.8703 95.8887 39.2415 95.0234 39.7602 93.7409C41.4112 89.6955 45.7057 86.9351 49.5853 85.2104C51.6285 84.3886 53.7153 83.7052 55.8597 83.2031C55.8416 82.7963 55.8235 82.3894 55.8048 81.9702C55.6007 75.374 57.2256 70.3152 60.1566 64.4531C58.3519 62.6485 56.5472 60.8438 54.6879 58.9844C53.1025 59.5128 51.5611 60.0587 50.011 60.6705C45.8839 62.0621 41.8459 61.3788 37.891 59.7656C33.8287 57.7127 31.3043 54.5313 29.6528 50.3494C28.3013 46.0513 28.6426 41.5551 30.6553 37.5137C33.2138 33.2553 36.7616 30.3952 41.6263 29.1748C46.2384 28.3363 50.6542 29.1949 54.5917 31.778C58.3051 34.5032 60.6029 38.3978 61.3285 42.9688C61.6261 46.4972 61.1086 49.7571 59.4486 52.9053C58.8771 53.8427 58.8771 53.8427 59.209 54.6097C59.9778 55.7955 60.9531 56.738 61.9633 57.7149C62.1647 57.9128 62.3661 58.1106 62.5736 58.3145C63.0683 58.8 63.5653 59.2831 64.0629 59.7656C65.3564 59.1812 66.3696 58.4222 67.4808 57.544C75.0373 52.022 84.9904 50.323 94.141 51.5625C95.6879 51.9492 95.6879 51.9492 97.266 52.3438C97.266 45.3828 97.266 38.4219 97.266 31.25C96.3636 31.1211 95.4613 30.9922 94.5316 30.8594C91.2542 29.3476 88.466 26.457 86.9144 23.2178C85.6668 19.6476 85.7576 15.1991 87.4012 11.7859C89.0603 8.91223 90.83 7.08783 93.7504 5.46877C94.0971 5.26861 94.0971 5.26861 94.4507 5.06441C99.0438 2.88449 104.687 4.20663 108.692 6.90919ZM93.14 13.3789C91.9623 15.3964 91.503 17.2596 91.959 19.5694C92.747 22.0333 94.2778 23.8454 96.3383 25.3662C98.5991 26.078 101.024 26.2886 103.273 25.4242C105.453 24.1421 106.983 22.5435 107.959 20.1904C108.395 17.6182 108.196 15.6562 106.861 13.3789C105.309 11.2542 103.3 10.1622 100.754 9.58101C97.7218 9.34162 94.8874 10.9862 93.14 13.3789ZM36.7191 38.6719C34.9863 41.4475 34.4561 44.0098 34.766 47.2656C35.5921 50.2586 37.4129 52.845 40.0883 54.4434C42.794 55.7461 45.8342 56.0204 48.7354 55.1422C51.6495 53.8124 53.4342 51.8383 55.0541 49.1211C55.842 46.3401 55.9235 43.2586 54.7275 40.5762C52.9067 37.4769 50.6175 35.8828 47.266 34.7656C43.0816 34.3472 39.539 35.4565 36.7191 38.6719ZM67.1879 65.625C67.0056 65.8103 66.8233 65.9956 66.6355 66.1865C61.9276 71.2083 61.6094 76.7609 61.784 83.271C61.7949 83.9844 61.7949 83.9844 61.8061 84.7122C61.8172 85.1444 61.8283 85.5766 61.8398 86.0219C61.7191 87.1094 61.7191 87.1094 61.2207 87.8218C60.044 88.6246 58.6296 88.739 57.2513 88.9893C52.3056 89.9979 47.6387 91.9269 44.6766 96.2387C43.0041 99.1405 42.3754 102.014 43.2361 105.324C44.8938 109.829 47.9493 111.987 52.1122 114.163C56.3213 116.057 60.907 116.063 65.4362 116.034C66.0292 116.032 66.0292 116.032 66.6342 116.03C67.6 116.027 68.5658 116.022 69.5316 116.016C69.5322 115.768 69.5327 115.521 69.5333 115.266C69.541 112.68 69.5623 110.094 69.5912 107.509C69.6003 106.545 69.6059 105.581 69.608 104.617C69.6116 103.229 69.6277 101.84 69.6461 100.452C69.6445 100.023 69.643 99.5953 69.6414 99.1542C69.69 96.5786 69.9652 94.4455 71.8754 92.5781C74.3238 90.7293 76.5355 90.7907 79.5321 90.8073C80.0228 90.8039 80.5135 90.8005 81.019 90.7971C82.3588 90.7883 83.6985 90.7894 85.0383 90.7929C86.1595 90.7949 87.2806 90.792 88.4017 90.7892C91.048 90.7826 93.6942 90.7839 96.3405 90.7905C99.0647 90.7971 101.789 90.7909 104.513 90.7783C106.857 90.7678 109.202 90.765 111.546 90.7683C112.944 90.7702 114.342 90.7694 115.74 90.7614C117.299 90.7528 118.858 90.7602 120.418 90.7691C121.107 90.7623 121.107 90.7623 121.81 90.7553C124.525 90.7867 126.445 91.1299 128.516 92.9688C130.384 95.2902 130.313 97.5125 130.317 100.414C130.323 100.861 130.329 101.308 130.336 101.768C130.355 103.189 130.363 104.609 130.371 106.03C130.382 106.996 130.394 107.963 130.407 108.929C130.435 111.291 130.456 113.653 130.469 116.016C131.835 116.024 133.201 116.028 134.568 116.032C134.951 116.035 135.334 116.037 135.729 116.039C142.611 116.055 148.633 114.91 153.907 110.156C156.134 107.523 157.244 104.887 157.151 101.424C156.747 97.9239 154.917 95.2876 152.344 92.9688C148.712 90.2235 144.514 89.0254 140.038 88.5498C139.063 88.2813 139.063 88.2813 138.341 87.6862C137.676 86.2557 137.854 84.8857 137.94 83.3496C138.012 80.4197 137.863 78.1431 135.938 75.7813C133.473 73.1929 130.573 71.9518 127.007 71.8399C123.982 72.0031 121.72 72.9108 119.434 74.8779C117.939 76.1351 117.939 76.1351 116.797 76.1719C115.854 75.9522 115.854 75.9522 114.844 75.3906C114.33 74.4762 113.935 73.6461 113.55 72.6807C110.721 66.173 106.221 61.654 99.6828 58.9178C88.8566 54.8112 75.1279 56.7775 67.1879 65.625ZM175.391 95.3125C173.845 97.4074 173.871 99.841 174.219 102.344C175.068 104.552 176.586 106.109 178.516 107.422C180.645 108.306 182.561 108.438 184.766 107.813C186.815 106.833 188.59 105.594 189.589 103.508C190.403 101.038 190.503 98.7762 189.431 96.3852C188.331 94.3455 186.924 93.0499 184.766 92.1875C180.962 91.1818 178.011 92.5054 175.391 95.3125ZM12.598 93.5791C10.9445 95.3704 9.90403 97.4368 9.57068 99.8535C9.93785 102.332 10.6999 104.45 12.5004 106.25C14.5003 107.662 16.2815 108.305 18.7504 108.203C21.5847 107.656 23.6828 105.943 25.3666 103.662C26.0783 101.401 26.289 98.9767 25.4246 96.727C24.1204 94.5099 22.5129 92.9504 20.0687 92.0654C17.2804 91.4974 15.0254 92.1999 12.598 93.5791ZM75.391 97.2656C74.8698 98.8291 74.9439 100.331 74.9455 101.961C74.9443 102.326 74.9432 102.691 74.942 103.067C74.9386 104.295 74.938 105.523 74.9374 106.751C74.9356 107.629 74.9337 108.508 74.9315 109.386C74.9264 111.776 74.9239 114.165 74.9222 116.555C74.921 118.047 74.9194 119.539 74.9177 121.031C74.9129 125.162 74.9089 129.292 74.9076 133.422C74.9075 133.687 74.9074 133.951 74.9073 134.223C74.9072 134.488 74.9071 134.753 74.907 135.026C74.9069 135.563 74.9067 136.1 74.9065 136.637C74.9064 136.903 74.9064 137.17 74.9063 137.444C74.9047 141.761 74.8979 146.078 74.8888 150.395C74.8795 154.826 74.8748 159.257 74.8742 163.689C74.8738 166.177 74.8715 168.665 74.8645 171.154C74.8581 173.493 74.8572 175.833 74.8607 178.173C74.861 179.033 74.8593 179.892 74.8554 180.752C74.8505 181.924 74.8527 183.096 74.8568 184.268C74.8537 184.609 74.8505 184.951 74.8473 185.303C74.8622 187.123 74.9505 188.388 76.1722 189.844C77.3016 190.22 78.0181 190.285 79.1921 190.289C79.7622 190.293 79.7622 190.293 80.3438 190.296C80.7602 190.296 81.1767 190.297 81.6057 190.297C82.0447 190.299 82.4837 190.301 82.936 190.303C84.3913 190.309 85.8467 190.312 87.302 190.314C88.3116 190.316 89.3211 190.318 90.3307 190.32C92.1779 190.324 94.0251 190.327 95.8723 190.328C98.59 190.329 101.308 190.336 104.025 190.348C106.38 190.357 108.735 190.36 111.09 190.361C112.091 190.362 113.093 190.365 114.094 190.37C115.494 190.377 116.894 190.376 118.294 190.374C118.709 190.377 119.124 190.381 119.551 190.385C122.291 190.405 122.291 190.405 124.61 189.063C125.131 187.499 125.057 185.997 125.055 184.367C125.056 184.002 125.058 183.637 125.059 183.261C125.062 182.033 125.063 180.805 125.063 179.577C125.065 178.699 125.067 177.82 125.069 176.942C125.074 174.552 125.077 172.163 125.079 169.773C125.08 168.281 125.081 166.789 125.083 165.297C125.088 161.167 125.092 157.036 125.093 152.906C125.093 152.642 125.093 152.377 125.093 152.105C125.094 151.84 125.094 151.575 125.094 151.302C125.094 150.765 125.094 150.228 125.094 149.691C125.094 149.425 125.094 149.158 125.094 148.884C125.096 144.567 125.103 140.25 125.112 135.934C125.121 131.502 125.126 127.071 125.127 122.639C125.127 120.151 125.129 117.663 125.136 115.175C125.143 112.835 125.143 110.495 125.14 108.155C125.14 107.295 125.141 106.436 125.145 105.576C125.15 104.404 125.148 103.232 125.144 102.06C125.147 101.719 125.15 101.377 125.153 101.025C125.139 99.2056 125.05 97.9398 123.828 96.4844C122.699 96.1079 121.983 96.043 120.809 96.0389C120.429 96.0367 120.048 96.0344 119.657 96.0321C119.24 96.0317 118.824 96.0313 118.395 96.0308C117.737 96.0279 117.737 96.0279 117.065 96.0249C115.609 96.0192 114.154 96.0166 112.699 96.0144C111.689 96.0122 110.68 96.0099 109.67 96.0077C107.823 96.0041 105.976 96.0016 104.128 96.0004C101.411 95.9987 98.6932 95.9918 95.9756 95.9805C93.6207 95.9711 91.2658 95.968 88.9108 95.9674C87.9093 95.9662 86.9079 95.963 85.9065 95.9579C84.5065 95.9513 83.1068 95.952 81.7068 95.9545C81.292 95.9509 80.8771 95.9473 80.4497 95.9436C77.7099 95.9227 77.7099 95.9227 75.391 97.2656ZM36.4872 148.792C34.7595 151.364 34.3766 153.964 34.766 157.031C35.5238 159.724 37.0704 162.281 39.4764 163.783C42.2984 165.228 45.1017 165.832 48.2334 164.967C51.43 163.644 53.5824 161.701 55.0785 158.594C55.9257 155.869 55.8733 152.866 54.6879 150.269C53.1173 147.509 50.7395 145.39 47.6566 144.531C42.9927 143.987 39.4444 145.053 36.4872 148.792ZM146.9 147.998C144.634 150.873 144.191 153.437 144.532 157.031C145.024 159.608 146.504 161.554 148.438 163.281C151.192 165.035 153.79 165.543 157.032 165.234C159.723 164.492 162.287 162.922 163.784 160.524C165.228 157.702 165.832 154.899 164.968 151.767C163.644 148.57 161.701 146.418 158.594 144.922C154.183 143.55 150.017 144.646 146.9 147.998Z" fill="black"/>
<path d="M144.068 30.7109C153.147 30.7305 161.114 34.2845 167.623 40.6097C173.914 47.0382 177.132 55.4479 177.123 64.3631C176.953 65.625 176.953 65.625 176.454 66.3757C175.652 66.8782 175.163 66.966 174.219 66.9678C173.953 66.9753 173.687 66.9829 173.413 66.9907C172.657 66.7969 172.657 66.7969 172.007 66.2353C171.224 64.7346 171.137 63.2147 170.948 61.5478C169.972 54.2352 166.796 47.4312 160.894 42.7948C155.935 39.1846 150.648 36.8573 144.458 36.5478C142.996 36.4486 142.595 36.3388 141.309 35.498C140.625 34.375 140.625 34.375 140.65 32.9346C141.252 30.808 141.97 30.7529 144.068 30.7109Z" fill="black"/>
<path d="M144.287 39.7217C150.865 39.8422 156.481 42.3892 161.11 46.994C165.724 51.8544 167.911 57.5754 168.097 64.2242C167.944 65.4309 167.665 65.9506 166.797 66.7969C166.04 66.9907 166.04 66.9907 165.234 66.9678C164.836 66.967 164.836 66.967 164.429 66.9662C163.394 66.7347 163.1 66.5102 162.5 65.625C162.295 64.5993 162.141 63.608 162.012 62.5732C161.171 57.0867 158.643 52.2535 154.109 48.8907C150.667 46.7078 147.449 45.9793 143.413 45.6329C141.873 45.2304 141.426 44.7131 140.625 43.3594C140.726 40.3772 141.381 39.7313 144.287 39.7217Z" fill="black"/>
<path d="M146.094 48.8281C150.902 49.9206 154.48 52.461 157.13 56.6299C158.535 59.2361 159.333 62.274 158.984 65.2344C158.374 66.1865 158.374 66.1865 157.422 66.7969C155.702 66.9779 154.969 66.9845 153.516 66.0156C153.214 64.9384 153.214 64.9384 152.979 63.6231C152.24 60.1541 150.945 57.9119 148.047 55.8594C146.239 55.0397 144.372 54.6666 142.439 54.2496C141.406 53.9063 141.406 53.9063 140.625 52.7344C140.753 50.3491 140.753 50.3491 141.513 49.3393C142.86 48.3188 144.491 48.6351 146.094 48.8281Z" fill="black"/>
<path d="M96.08 97.9675C96.5424 97.9642 96.5424 97.9642 97.0141 97.9607C97.6665 97.9571 98.319 97.9545 98.9715 97.953C99.9703 97.9492 100.969 97.9371 101.968 97.9248C102.601 97.9222 103.235 97.9202 103.868 97.9187C104.167 97.9138 104.466 97.909 104.774 97.9041C106.835 97.9127 106.835 97.9127 107.795 98.5691C108.416 99.5573 108.523 100.406 108.594 101.562C108.216 102.637 108.055 103.004 107.031 103.516C105.991 103.564 104.961 103.589 103.92 103.595C103.458 103.598 103.458 103.598 102.986 103.602C102.333 103.605 101.681 103.608 101.029 103.609C100.03 103.613 99.0312 103.625 98.0324 103.638C97.3989 103.64 96.7654 103.642 96.1319 103.644C95.8328 103.649 95.5337 103.653 95.2255 103.658C93.1649 103.65 93.1649 103.65 92.205 102.993C91.5842 102.005 91.477 101.156 91.4062 100C92.2328 97.6475 93.881 97.9797 96.08 97.9675Z" fill="black"/>
</svg>
