<svg width="512" height="511" viewBox="0 0 512 511" fill="none" xmlns="http://www.w3.org/2000/svg">
<g clip-path="url(#clip0_440_1438)">
<path d="M394.853 158.693C396.318 158.681 396.318 158.681 397.812 158.668C401.033 158.644 404.254 158.635 407.475 158.629C409.725 158.62 411.974 158.611 414.224 158.601C418.94 158.585 423.656 158.577 428.371 158.574C434.39 158.569 440.408 158.531 446.427 158.486C451.075 158.456 455.723 158.449 460.371 158.448C462.589 158.443 464.806 158.431 467.023 158.41C492.722 158.186 492.722 158.186 502.936 167.25C510.641 175.859 512.661 184.542 512.405 195.808C511.869 204.229 507.24 211.93 501.046 217.535C492.555 223.611 484.374 225.034 474.249 225.012C473.264 225.01 472.279 225.008 471.264 225.006C470.143 225.003 470.143 225.003 468.999 225C469.008 226.281 469.017 227.561 469.026 228.881C469.107 240.974 469.167 253.068 469.206 265.162C469.227 271.378 469.255 277.595 469.301 283.812C469.344 289.816 469.368 295.82 469.378 301.824C469.386 304.11 469.4 306.396 469.422 308.682C469.451 311.894 469.455 315.106 469.453 318.318C469.467 319.254 469.482 320.191 469.497 321.156C469.432 331.54 465.693 339.353 458.554 346.797C451.863 352.567 443.798 355.25 434.999 355C425.594 354.055 416.642 350.555 410.468 343.168C401.305 330.703 402.595 315.888 402.706 301.172C402.711 298.969 402.716 296.767 402.719 294.564C402.73 288.804 402.76 283.044 402.793 277.283C402.824 271.391 402.837 265.498 402.852 259.605C402.884 248.07 402.936 236.535 402.999 225C402.265 225.009 401.531 225.017 400.775 225.026C399.314 225.036 399.314 225.036 397.823 225.047C396.862 225.055 395.902 225.064 394.912 225.073C385.472 224.836 376.587 221.948 369.444 215.605C362.713 208.128 359.486 199.371 359.745 189.363C360.86 178.985 365.593 171.203 373.663 164.648C380.436 159.546 386.545 158.7 394.853 158.693ZM383.999 183C381.133 187.107 380.505 190.283 381.362 195.105C382.459 198.368 384.299 199.96 386.999 202C393.788 205.162 401.637 204.324 408.966 204.303C410.05 204.323 411.135 204.343 412.253 204.363C413.727 204.368 413.727 204.368 415.232 204.372C419.252 205.284 420.513 206.702 422.999 210C423.735 213.612 423.658 217.169 423.611 220.845C423.616 221.939 423.622 223.032 423.628 224.158C423.641 227.771 423.62 231.383 423.6 234.996C423.606 237.508 423.614 240.02 423.625 242.532C423.648 249.147 423.643 255.761 423.631 262.376C423.611 272.96 423.622 283.544 423.657 294.129C423.663 297.826 423.65 301.523 423.635 305.22C423.638 307.488 423.641 309.757 423.646 312.025C423.632 313.566 423.632 313.566 423.618 315.138C423.648 320.517 423.937 324.371 426.999 329C430.114 332.033 432.587 333.895 436.999 334C441.622 332.621 444.602 331.093 447.195 326.94C448.895 322.837 448.548 318.415 448.513 314.041C448.524 312.401 448.524 312.401 448.535 310.728C448.554 307.12 448.546 303.513 448.538 299.906C448.548 297.396 448.56 294.885 448.574 292.375C448.603 286.443 448.616 280.511 448.619 274.579C448.626 263.33 448.662 252.081 448.713 240.832C448.725 237.139 448.724 233.447 448.722 229.754C448.729 227.489 448.736 225.224 448.743 222.959C448.739 221.933 448.735 220.908 448.731 219.851C448.784 210.495 448.784 210.495 450.999 206C454.135 204.955 456.441 204.845 459.733 204.789C460.865 204.761 461.997 204.732 463.163 204.703C465.538 204.651 467.913 204.607 470.288 204.57C477.873 204.364 483.532 204.022 489.436 198.875C491.613 194.869 491.817 191.466 490.999 187C488.94 183.664 487.26 182.174 483.999 180C480.974 179.799 478.042 179.717 475.017 179.725C473.638 179.718 473.638 179.718 472.232 179.71C469.188 179.696 466.144 179.697 463.1 179.699C460.987 179.695 458.873 179.691 456.759 179.686C452.326 179.679 447.892 179.679 443.459 179.684C437.777 179.69 432.095 179.673 426.413 179.65C422.047 179.635 417.68 179.634 413.314 179.637C411.219 179.637 409.124 179.632 407.029 179.622C404.099 179.609 401.17 179.616 398.24 179.628C397.374 179.62 396.508 179.612 395.616 179.604C390.923 179.645 387.799 179.936 383.999 183Z" fill="#024D81"/>
<path d="M223.013 169.878C244.763 169.194 265.623 176.879 282.001 190.999C282.986 191.784 283.971 192.569 284.985 193.378C301.341 207.594 310.347 229.691 311.899 250.903C313.128 276.139 304.209 297.401 287.958 316.386C273.602 331.82 252.761 341.378 231.759 342.28C206.339 342.917 184.107 335.879 165.278 318.317C150.838 304.314 140.381 283.118 139.798 262.874C139.436 235.75 146.739 213.964 165.564 193.999C181.045 178.871 201.631 171.165 223.013 169.878ZM177.286 212.335C163.81 228.045 159.702 245.851 161.001 265.999C163.038 282.15 172.49 296.81 184.689 307.249C200.104 318.87 217.989 323.306 237.043 320.722C253.79 317.766 268.145 308.007 278.314 294.562C288.632 279.605 293.165 262.933 289.876 244.812C287.555 233.427 283.092 224.152 276.001 214.999C275.358 214.159 274.715 213.318 274.052 212.452C263.172 199.438 246.514 192.664 230.001 190.999C209.651 190.169 191.31 197.622 177.286 212.335Z" fill="#024D81"/>
<path d="M59.9011 165.285C67.8143 171.754 73.012 179.999 74.4587 190.263C74.6368 193.803 74.6636 197.311 74.6299 200.855C74.635 202.199 74.6423 203.542 74.6515 204.886C74.6699 208.498 74.6572 212.109 74.6375 215.72C74.6209 219.521 74.6299 223.323 74.635 227.124C74.6395 233.503 74.6237 239.882 74.5957 246.261C74.5636 253.61 74.5637 260.959 74.5809 268.309C74.5968 275.413 74.59 282.518 74.573 289.622C74.5661 292.63 74.5671 295.638 74.5745 298.646C74.5822 302.195 74.5698 305.743 74.5427 309.292C74.5326 311.197 74.5419 313.102 74.552 315.007C74.4229 326.764 71.3994 336.516 62.9988 345C54.2833 352.163 44.5788 355.675 33.2683 354.785C23.317 353.311 13.7179 349.041 7.40891 340.964C0.779364 331.515 -0.444321 323.834 -0.389428 312.459C-0.3935 311.101 -0.398845 309.743 -0.405358 308.386C-0.418971 304.718 -0.413759 301.051 -0.404222 297.384C-0.396593 293.534 -0.403679 289.685 -0.40838 285.836C-0.413828 279.373 -0.40667 272.911 -0.392358 266.448C-0.376033 258.991 -0.381321 251.534 -0.397836 244.077C-0.411477 237.659 -0.41336 231.241 -0.405522 224.823C-0.40086 220.996 -0.400179 217.17 -0.410131 213.343C-0.418836 209.745 -0.412713 206.146 -0.395448 202.548C-0.389629 200.608 -0.398467 198.667 -0.40783 196.727C-0.328686 185.79 2.41094 176.957 10.0066 168.859C24.0261 155.67 44.0788 153.872 59.9011 165.285ZM24.2488 184.687C19.1576 191.36 19.7059 199.889 19.7241 207.872C19.719 209.039 19.7139 210.206 19.7086 211.408C19.6948 215.25 19.6957 219.092 19.698 222.933C19.6951 224.935 19.6922 226.937 19.6886 228.939C19.6775 235.228 19.677 241.517 19.6831 247.806C19.6891 254.273 19.6768 260.741 19.6555 267.209C19.6378 272.781 19.6319 278.353 19.6351 283.925C19.637 287.245 19.6331 290.564 19.6204 293.884C19.6081 297.589 19.6149 301.293 19.6264 304.997C19.6188 306.084 19.6112 307.17 19.6033 308.29C19.6566 316.037 20.3463 322.883 25.4988 328.937C29.7515 332.446 32.4817 333.632 37.9988 334C43.5685 333.039 46.3832 331.318 49.9988 327C52.5568 323.328 53.3751 320.891 53.3864 316.428C53.3963 315.319 53.4062 314.21 53.4165 313.067C53.4119 311.86 53.4074 310.654 53.4028 309.41C53.4131 307.492 53.4131 307.492 53.4236 305.536C53.4415 302.036 53.4404 298.536 53.4347 295.036C53.4316 292.111 53.4377 289.186 53.4437 286.261C53.4577 279.359 53.4562 272.457 53.4448 265.556C53.4333 258.442 53.4474 251.329 53.4742 244.215C53.4964 238.101 53.503 231.987 53.4971 225.873C53.4938 222.224 53.4962 218.576 53.5134 214.927C53.5317 210.857 53.5176 206.788 53.5005 202.719C53.515 200.911 53.515 200.911 53.5298 199.068C53.4738 192.746 53.3184 188.767 48.9988 184C44.4761 179.918 41.2073 178.676 35.0534 178.789C30.3321 179.273 27.5616 181.45 24.2488 184.687Z" fill="#024D81"/>
<path d="M351.999 368C355.622 370.013 356.787 371.531 358.499 375.312C359.089 379.663 358.15 382.302 355.999 386C354.117 388.107 352.353 389.905 350.249 391.75C349.681 392.259 349.114 392.769 348.529 393.294C311.935 425.527 263.803 442.275 215.118 439.608C183.165 437.439 147.396 428.447 122.171 407.48C120.006 404.745 119.894 401.367 119.999 398C121.675 393.811 123.892 391.815 127.999 390C134.443 388.908 139.145 392.516 144.499 395.625C146.485 396.738 148.473 397.848 150.464 398.953C151.422 399.485 152.379 400.016 153.366 400.564C187.17 418.993 231.176 422.552 267.994 412.154C291.845 405.119 313.11 394.259 331.999 378C334.015 376.328 336.036 374.661 338.062 373C338.96 372.257 339.859 371.515 340.784 370.75C344.61 367.727 347.122 367.587 351.999 368Z" fill="#024D81"/>
<path d="M307.126 91.5627C308.099 92.0218 309.071 92.4809 310.073 92.9538C323.808 99.6134 323.808 99.6134 326.001 104C326.556 108.632 326.638 111.982 324.126 116C320.928 119.011 318.662 119.38 314.262 119.317C310.073 118.73 306.731 116.543 303.126 114.438C287.418 105.771 271.577 100.516 254.001 97.0002C252.775 96.7527 251.549 96.5052 250.286 96.2502C216.95 90.7515 183.04 97.2103 153.001 112C151.841 112.566 150.681 113.132 149.486 113.715C137.932 119.645 127.759 127.155 118.243 135.953C108.186 145.135 108.186 145.135 102.001 145C98.4415 143.744 96.5063 142.623 94.1261 139.688C92.7628 136.431 92.5007 134.504 93.0011 131C108.993 103.954 149.38 86.0922 178.367 78.6291C222.308 68.1386 266.3 72.2893 307.126 91.5627Z" fill="#024D81"/>
<path d="M139.49 333.261C144.935 334.862 148.859 339.291 153.001 342.999C177.079 362.672 206.056 371.245 237.001 368.999C261.554 366.487 284.989 356.475 302.669 339.128C306.978 335.196 310.281 333.428 316.068 333.636C319.142 334.214 320.868 335.801 323.001 337.999C324.743 341.482 324.579 345.199 324.001 348.999C321.939 351.624 321.939 351.624 319.001 353.999C318.062 355.039 317.124 356.081 316.189 357.124C291.926 381.283 256.057 391.28 222.774 391.246C191.148 390.912 162.104 379.305 138.001 358.999C137.158 358.303 136.315 357.607 135.447 356.89C134.64 356.204 133.833 355.518 133.001 354.812C132.28 354.2 131.558 353.587 130.814 352.956C127.761 349.661 126.984 346.951 127.064 342.499C128.85 335.831 132.68 332.867 139.49 333.261Z" fill="#024D81"/>
<path d="M320.771 159.75C323.671 162.675 324.201 164.297 324.376 168.312C324.323 171.942 324.087 172.874 321.939 176C318.402 178.408 316.275 179 312.001 179C307.754 177.206 304.773 175.089 301.501 171.875C279.445 151.535 249.342 142.08 219.649 143.125C201.099 144.224 184.097 149.87 168.001 159C166.996 159.566 165.99 160.132 164.954 160.715C158.818 164.398 153.728 168.776 148.607 173.766C144.725 177.095 141.6 179 136.439 179C132.238 177.778 130.596 176.51 128.001 173C126.913 169.192 126.43 167.112 128.263 163.543C134.558 154.334 143.87 148.113 153.001 142C153.834 141.433 154.667 140.866 155.524 140.281C171.376 130.11 191.382 124.005 210.001 122C211.625 121.816 211.625 121.816 213.282 121.629C253.54 117.889 291.601 132.286 320.771 159.75Z" fill="#024D81"/>
<path d="M246.47 224.544C255.451 231.085 260.737 239.098 263.001 250.001C263.941 261.232 262.079 270.992 255.001 280.001C252.563 282.626 252.563 282.626 250.001 285.001C249.279 285.682 248.557 286.362 247.813 287.063C238.919 293.191 228.571 295.073 217.938 293.438C206.874 290.739 198.857 284.438 192.692 274.997C187.882 266.275 187.107 256.677 189.001 247.001C192.65 235.392 198.494 228.11 209.001 222.001C221.053 216.381 235.306 217.567 246.47 224.544ZM211.626 246.688C209.265 251.502 208.088 255.955 209.665 261.216C212.167 266.677 215.335 269.757 220.813 272.313C224.816 273.177 228.142 273.362 232.001 272.001C235.902 269.439 239.05 266.546 241.501 262.563C242.614 256.86 242.819 252.84 239.938 247.751C237.249 243.924 234.492 241.438 230.001 240.001C222.235 238.679 216.869 240.756 211.626 246.688Z" fill="#024D81"/>
<path d="M109.813 369.312C112.335 371.257 113.803 372.888 114.372 376.085C114.502 380.585 114.508 382.375 111.563 385.999C110.717 386.659 109.872 387.319 109.001 387.999C108.671 388.329 108.341 388.659 108.001 388.999C103.091 389.499 100.914 389.514 96.563 387.062C93.265 383.12 92.5949 380.079 93.0005 374.999C94.2078 372.013 95.1987 370.601 97.7505 368.687C102.088 367.362 105.696 367.391 109.813 369.312Z" fill="#024D81"/>
<path d="M353 124C356.414 126.369 357.644 127.975 359 131.875C359 136.043 358.156 138.429 356 142C352.021 144.526 349.986 145.151 345.313 144.438C339.942 142.107 339.942 142.107 338 139C337.102 133.995 337.237 130.272 339.875 125.875C344.277 123.234 347.992 122.981 353 124Z" fill="#024D81"/>
</g>
<defs>
<clipPath id="clip0_440_1438">
<rect width="512" height="511" fill="white"/>
</clipPath>
</defs>
</svg>
