<?xml version="1.0" encoding="UTF-8"?>
<svg version="1.1" xmlns="http://www.w3.org/2000/svg" width="512" height="512">
<path d="M0 0 C6.53839138 4.63272957 11.92566527 11.48806651 13.39453125 19.52734375 C14.26679639 27.67801805 12.89694064 34.81655592 7.9453125 41.4765625 C2.35527762 47.46857742 -4.56735128 52.18273368 -11.09375 57.09375 C-15.40667749 60.35181001 -19.61259207 63.72660119 -23.79296875 67.15234375 C-31.54825541 73.50007716 -39.41466955 79.69498278 -47.31445312 85.86132812 C-54.15496273 91.20425752 -60.94522658 96.59918987 -67.66796875 102.08984375 C-72.44939496 105.99413265 -77.25970023 109.84609492 -82.16796875 113.58984375 C-86.84229687 117.15618299 -91.4587525 120.78347224 -96.04296875 124.46484375 C-103.19090265 130.20367681 -110.37764833 135.88946107 -117.60546875 141.52734375 C-118.38792969 142.14738281 -119.17039062 142.76742187 -119.9765625 143.40625 C-128.36234377 149.92852432 -136.71774805 153.78820727 -147.60546875 153.52734375 C-151.46030089 153.01215954 -155.23999853 152.21639078 -159.04101562 151.3996582 C-160.13479774 151.17250028 -161.22857986 150.94534235 -162.3555069 150.71130085 C-165.77506693 149.99628735 -169.19068351 149.26480067 -172.60546875 148.52734375 C-173.64620544 148.3032571 -174.68694214 148.07917046 -175.75921631 147.8482933 C-181.98452394 146.50223161 -188.20300176 145.12662811 -194.41920471 143.73918724 C-197.80861909 142.98341851 -201.19901706 142.23221193 -204.58972168 141.48225403 C-214.20766541 139.35480239 -223.82494488 137.22446821 -233.43896484 135.0793457 C-239.37283425 133.75569452 -245.30868463 132.44127694 -251.2459259 131.1328373 C-253.48887504 130.63670924 -255.73107007 130.13715838 -257.97245789 129.63402367 C-261.0937102 128.93372506 -264.21735671 128.24524004 -267.34179688 127.55932617 C-268.25199081 127.35211441 -269.16218475 127.14490265 -270.09996033 126.93141174 C-277.81295568 125.26003763 -285.10483698 124.09269685 -292.29296875 127.96484375 C-293.29457031 128.50238281 -294.29617188 129.03992188 -295.328125 129.59375 C-299.65551344 132.1468576 -303.88885152 134.83137745 -308.0612793 137.63061523 C-312.4060616 140.52734375 -312.4060616 140.52734375 -314.60546875 140.52734375 C-314.5590625 141.10742188 -314.51265625 141.6875 -314.46484375 142.28515625 C-314.20287318 147.95494781 -314.76524729 151.06438368 -318.60546875 155.52734375 C-322.88470686 159.485639 -326.07520136 160.63385524 -331.80395508 160.68847656 C-332.62193069 160.69808411 -333.43990631 160.70769165 -334.28266907 160.71759033 C-335.15876328 160.72184021 -336.03485748 160.72609009 -336.9375 160.73046875 C-337.84747238 160.73616882 -338.75744476 160.7418689 -339.69499207 160.7477417 C-341.61899661 160.75717769 -343.54301721 160.76372011 -345.46704102 160.76757812 C-348.39693694 160.77727415 -351.32612825 160.80830682 -354.25585938 160.83984375 C-356.1289021 160.84637537 -358.00194983 160.85162522 -359.875 160.85546875 C-360.74502151 160.86781555 -361.61504303 160.88016235 -362.51142883 160.8928833 C-368.54468606 160.87100066 -373.64350331 160.13732675 -378.34765625 155.9921875 C-381.47537843 151.77515518 -382.72862601 149.71430938 -382.75263977 144.50579834 C-382.75979507 143.44312241 -382.76695038 142.38044647 -382.77432251 141.28556824 C-382.77701141 140.11464127 -382.77970032 138.94371429 -382.7824707 137.73730469 C-382.7890419 136.50794693 -382.7956131 135.27858917 -382.80238342 134.01197815 C-382.82215425 129.92855591 -382.83378754 125.84517299 -382.84375 121.76171875 C-382.84779749 120.35584748 -382.85191441 118.9499764 -382.85610008 117.54410553 C-382.87515466 110.93824778 -382.88938424 104.33240121 -382.89771205 97.72652125 C-382.90748124 90.10320192 -382.93379097 82.48017319 -382.97421294 74.85695624 C-383.00438742 68.96387479 -383.01918224 63.07087656 -383.02249306 57.17771935 C-383.02484239 53.65850706 -383.03378663 50.13960513 -383.05895424 46.62047577 C-383.08659564 42.69187658 -383.0823997 38.7636586 -383.07543945 34.83496094 C-383.08824951 33.67213089 -383.10105957 32.50930084 -383.11425781 31.31123352 C-383.07386204 25.06348033 -382.83852124 21.25483495 -378.60546875 16.52734375 C-374.33238915 12.57474512 -371.14396135 11.4209901 -365.42285156 11.36621094 C-364.60810364 11.35660339 -363.79335571 11.34699585 -362.95391846 11.33709717 C-362.0809613 11.33284729 -361.20800415 11.32859741 -360.30859375 11.32421875 C-359.40099304 11.31851868 -358.49339233 11.3128186 -357.55828857 11.3069458 C-355.63848023 11.29750892 -353.71865579 11.29096703 -351.79882812 11.28710938 C-348.87991617 11.27742486 -345.96171495 11.24639776 -343.04296875 11.21484375 C-341.17318124 11.20831094 -339.30338872 11.20306156 -337.43359375 11.19921875 C-336.56873352 11.18687195 -335.70387329 11.17452515 -334.81280518 11.1618042 C-329.07514548 11.18261661 -324.83353927 12.11338801 -319.60546875 14.52734375 C-316.29523707 17.92468679 -313.6450426 21.31120831 -313.55859375 26.15234375 C-313.5740625 26.93609375 -313.58953125 27.71984375 -313.60546875 28.52734375 C-309.24821166 25.9519534 -304.89240859 23.37412605 -300.5378418 20.79418945 C-299.06133522 19.91984706 -297.58445743 19.04613121 -296.10717773 18.1730957 C-288.24663311 13.52713799 -280.42042548 8.85648264 -272.75463867 3.89233398 C-265.13537446 -0.94684655 -257.88354751 -2.75109402 -248.95347595 -0.93261719 C-241.82693324 0.84865326 -234.94810764 3.01819837 -228.046875 5.52734375 C-226.96361435 5.91579468 -225.8803537 6.30424561 -224.76426697 6.70446777 C-221.23014869 7.9732245 -217.69902657 9.25009691 -214.16796875 10.52734375 C-211.69809718 11.4165172 -209.22804224 12.30518144 -206.7578125 13.19335938 C-202.92870491 14.57034029 -199.09983836 15.94797655 -195.27200317 17.32849121 C-186.32763091 20.55368172 -177.37344594 23.75036451 -168.4140625 26.93359375 C-164.80461414 28.21834442 -161.1953439 29.50359402 -157.58615112 30.7890625 C-155.27967082 31.60961175 -152.97264926 32.4286413 -150.66506958 33.24609375 C-147.44558141 34.38720341 -144.22842683 35.53467472 -141.01171875 36.68359375 C-140.07142319 37.01508423 -139.13112762 37.34657471 -138.16233826 37.68811035 C-132.75169172 39.62868726 -127.69704819 41.85705504 -122.60546875 44.52734375 C-121.94546875 44.85734375 -121.28546875 45.18734375 -120.60546875 45.52734375 C-117.89134107 44.25352348 -117.89134107 44.25352348 -114.8046875 42.36328125 C-114.22116013 42.02003311 -113.63763275 41.67678497 -113.03642273 41.32313538 C-111.11705218 40.19090898 -109.2049993 39.04691496 -107.29296875 37.90234375 C-105.96137877 37.11289266 -104.62950812 36.32391483 -103.29736328 35.53540039 C-94.97883286 30.59906918 -86.73235616 25.55219608 -78.52490234 20.43334961 C-71.78878891 16.23949965 -65.01607978 12.10881131 -58.20611572 8.03616333 C-56.47282503 6.9977094 -54.74390378 5.95197319 -53.01513672 4.90600586 C-36.1395862 -5.14689612 -18.3676126 -10.38169408 0 0 Z M-50.91796875 24.21484375 C-52.19154009 24.96641416 -53.46522386 25.71779407 -54.73901367 26.46899414 C-73.51582834 37.56304533 -92.1691339 48.87580915 -110.60546875 60.52734375 C-110.44691406 61.584375 -110.28835938 62.64140625 -110.125 63.73046875 C-108.7454198 73.81281425 -109.42005724 82.47146072 -115.37109375 91.08203125 C-120.81086082 97.61403501 -127.15636382 102.00681257 -135.8359375 102.8359375 C-137.14175781 102.87847656 -138.44757813 102.92101562 -139.79296875 102.96484375 C-141.06527344 103.02542969 -142.33757812 103.08601563 -143.6484375 103.1484375 C-150.18989124 102.73678674 -156.18479659 99.87750928 -162.20388794 97.47439575 C-166.61931195 95.73319423 -171.07288581 94.09300725 -175.51953125 92.43359375 C-177.45466664 91.70636631 -179.38955984 90.9784941 -181.32421875 90.25 C-184.28287208 89.13609057 -187.24184114 88.02308144 -190.20214844 86.91357422 C-223.07374262 74.59079601 -223.07374262 74.59079601 -224.60546875 71.52734375 C-224.95612518 67.74025426 -225.08586789 65.36282051 -223.16796875 62.02734375 C-219.31345243 59.77104151 -215.80845078 60.66942987 -211.60546875 61.52734375 C-207.59211195 62.76104672 -203.71006069 64.27645703 -199.80859375 65.82421875 C-198.6979657 66.25486633 -197.58733765 66.68551392 -196.4430542 67.12921143 C-192.90983282 68.50184006 -189.3826413 69.88925559 -185.85546875 71.27734375 C-183.50169012 72.19500634 -181.14752661 73.11168236 -178.79296875 74.02734375 C-174.43019425 75.72533348 -170.06984723 77.42927448 -165.71191406 79.13964844 C-164.71905396 79.52689087 -163.72619385 79.9141333 -162.70324707 80.31311035 C-160.5102947 81.17267993 -158.32146342 82.04279792 -156.13562012 82.92028809 C-154.99226196 83.37359497 -153.84890381 83.82690186 -152.67089844 84.29394531 C-151.6379364 84.70791565 -150.60497437 85.12188599 -149.54071045 85.54840088 C-143.76316908 87.4752892 -138.26856049 87.66349015 -132.73046875 84.96484375 C-128.60223831 81.74482401 -126.15352839 78.74719415 -125.26171875 73.5078125 C-125.0444474 68.77310763 -126.00236614 65.43199767 -128.60546875 61.52734375 C-132.63129756 57.79257811 -135.95707865 55.69344407 -141.203125 53.86328125 C-142.17235397 53.51872391 -142.17235397 53.51872391 -143.16116333 53.16720581 C-145.32615212 52.40049653 -147.496928 51.65172659 -149.66796875 50.90234375 C-151.22939844 50.3525868 -152.79033802 49.80143623 -154.35083008 49.24902344 C-157.82155219 48.02167884 -161.29444104 46.80071727 -164.76855469 45.58300781 C-174.64752021 42.1126145 -184.49540548 38.55466071 -194.34933472 35.01397705 C-197.693987 33.8128888 -201.03932614 32.61373947 -204.38500977 31.41552734 C-205.98900887 30.84087234 -205.98900887 30.84087234 -207.62541199 30.25460815 C-209.75472191 29.4924669 -211.88444842 28.73148843 -214.01460266 27.97171021 C-219.51043679 26.00870662 -224.99390386 24.01781868 -230.46337891 21.98242188 C-231.58521072 21.5685321 -232.70704254 21.15464233 -233.86286926 20.72821045 C-235.99136616 19.94199743 -238.11700059 19.14797121 -240.23905945 18.34454346 C-248.13812561 15.44001284 -255.53253703 12.96656644 -263.57226562 16.47949219 C-268.37163273 18.95294123 -272.89253632 21.84759232 -277.38616943 24.83448792 C-282.71494658 28.31345621 -287.94132833 31.18670154 -293.81640625 33.64575195 C-306.66135998 39.13049802 -306.66135998 39.13049802 -315.45890808 49.3992157 C-318.70558633 59.94060985 -317.33774957 71.71088735 -316.52807617 82.53466797 C-316.23846266 86.82193112 -316.11313633 91.11392568 -315.97265625 95.40820312 C-315.67469472 103.79411053 -315.19902851 112.15718009 -314.60546875 120.52734375 C-313.34841604 119.90025505 -312.091532 119.27282824 -310.8347168 118.64526367 C-310.13477097 118.29590256 -309.43482513 117.94654144 -308.71366882 117.58659363 C-306.78209516 116.61608841 -304.85845665 115.63193592 -302.9375 114.640625 C-301.77605469 114.04636719 -300.61460937 113.45210938 -299.41796875 112.83984375 C-297.66419922 111.93685547 -297.66419922 111.93685547 -295.875 111.015625 C-284.3263372 105.75870681 -271.8097505 109.22831062 -260.0078125 111.859375 C-258.38738749 112.211934 -256.76674581 112.56349845 -255.14590454 112.91413879 C-251.71581832 113.65844193 -248.28739841 114.40984625 -244.86013794 115.16705322 C-239.516757 116.34748132 -234.16963886 117.51032806 -228.82202148 118.67138672 C-213.05131645 122.10081073 -197.29341669 125.58460829 -181.55078125 129.140625 C-179.22797537 129.6624844 -176.90514133 130.18421853 -174.58227539 130.70581055 C-170.41085346 131.64280491 -166.24427014 132.59815451 -162.07983398 133.56567383 C-160.23563945 133.98313781 -158.39132775 134.40008463 -156.546875 134.81640625 C-155.74528961 135.00821976 -154.94370422 135.20003326 -154.11782837 135.3976593 C-147.46329414 136.8741713 -141.11096235 136.99716441 -135.10546875 133.27734375 C-128.21443221 128.86244419 -122.00609502 123.50728368 -115.72412109 118.28271484 C-112.26925861 115.42025099 -108.77956075 112.6009922 -105.29296875 109.77734375 C-100.89028371 106.20233818 -96.49281788 102.62116635 -92.10546875 99.02734375 C-91.24179687 98.3209375 -90.378125 97.61453125 -89.48828125 96.88671875 C-87.94405609 95.62288135 -86.40015729 94.35864176 -84.85839844 93.09179688 C-76.6525064 86.35200155 -68.36066626 79.75820053 -59.90087891 73.33959961 C-55.16388656 69.73928973 -50.48988342 66.07113864 -45.85546875 62.33984375 C-37.74381561 55.81201019 -29.49915151 49.46765653 -21.19140625 43.19140625 C-20.43134277 42.61511475 -19.6712793 42.03882324 -18.88818359 41.44506836 C-17.40405533 40.32014676 -15.91752514 39.19838462 -14.42822266 38.08032227 C-7.41149405 33.27948962 -7.41149405 33.27948962 -2.9765625 26.46484375 C-3.09761473 22.93296694 -3.41833327 20.86418761 -5.16796875 17.71484375 C-11.29604905 12.21528451 -16.92682217 12.16763953 -24.91015625 12.03125 C-34.47302332 13.31505985 -42.7686355 19.37770239 -50.91796875 24.21484375 Z M-366.60546875 28.52734375 C-366.60546875 66.47734375 -366.60546875 104.42734375 -366.60546875 143.52734375 C-354.72546875 143.52734375 -342.84546875 143.52734375 -330.60546875 143.52734375 C-330.60546875 105.57734375 -330.60546875 67.62734375 -330.60546875 28.52734375 C-342.48546875 28.52734375 -354.36546875 28.52734375 -366.60546875 28.52734375 Z " fill="#000000" transform="translate(440.60546875,344.47265625)"/>
<path d="M0 0 C30.77543581 -0.68688503 57.06384519 10.12775651 79.33984375 31.1171875 C80.01789063 31.71917969 80.6959375 32.32117188 81.39453125 32.94140625 C98.22078905 48.5175204 108.99739956 73.73482238 110.56274414 96.33544922 C111.73278853 130.99201252 102.65806164 156.99657477 79.67578125 183 C76.05592832 186.83383438 71.98252228 189.95593953 67.77734375 193.1171875 C60.56601244 198.55473927 55.28179131 203.45478636 52.33984375 212.1171875 C52.33984375 213.4371875 52.33984375 214.7571875 52.33984375 216.1171875 C53.08234375 216.6946875 53.82484375 217.2721875 54.58984375 217.8671875 C59.11189123 221.56704453 61.24512375 226.38907402 62.21484375 232.1171875 C62.7735189 239.06656131 60.67814159 244.6943152 56.33984375 250.1171875 C52.4847698 253.80464954 49.39312707 255.56882771 44.33984375 257.1171875 C44.26636719 258.76654297 44.26636719 258.76654297 44.19140625 260.44921875 C43.09891713 282.98308305 43.09891713 282.98308305 39.19335938 287.72129822 C35.75124112 290.61139427 34.22801546 290.74456995 29.79296875 290.74829102 C28.48811523 290.76082413 27.18326172 290.77335724 25.83886719 290.78627014 C24.42251586 290.77400147 23.00617411 290.76058139 21.58984375 290.74609375 C20.12922997 290.74692297 18.6686163 290.74938435 17.20800781 290.75340271 C14.15140592 290.75625698 11.09553831 290.74159743 8.0390625 290.71411133 C4.12810316 290.68002779 0.21845626 290.68604949 -3.69256592 290.7047739 C-6.70730458 290.71536075 -9.72173973 290.70639108 -12.7364502 290.69138908 C-14.17809141 290.68621908 -15.61976447 290.68667473 -17.06140137 290.69293404 C-19.07873652 290.69840548 -21.09608724 290.67511641 -23.11328125 290.65063477 C-24.25958008 290.64443619 -25.40587891 290.63823761 -26.58691406 290.6318512 C-30.30855979 290.00860193 -31.98261466 288.72474581 -34.66015625 286.1171875 C-35.515625 284.171875 -35.515625 284.171875 -35.84765625 281.9921875 C-35.98300781 281.13625 -36.11835938 280.2803125 -36.2578125 279.3984375 C-37.12684868 272.31115214 -37.93280629 265.22045622 -38.66015625 258.1171875 C-39.57667969 257.82972656 -40.49320312 257.54226563 -41.4375 257.24609375 C-48.10737495 254.90961634 -52.56535481 251.20391353 -55.77734375 244.84375 C-57.98260042 238.03282454 -57.96782701 230.05946765 -54.97265625 223.4921875 C-53.07173254 220.31716798 -50.75259985 218.17881657 -47.66015625 216.1171875 C-47.99140101 209.82353697 -50.78820504 204.93577384 -54.66015625 200.1171875 C-58.30461493 196.95251793 -62.14655416 194.13786774 -66.05126953 191.30664062 C-87.04717872 175.78432354 -99.2290093 151.67837768 -103.26538086 126.27368164 C-103.90312863 121.17446032 -104.00100135 116.12629539 -103.97265625 110.9921875 C-103.9670166 109.90687744 -103.96137695 108.82156738 -103.95556641 107.70336914 C-103.50869893 77.72121634 -91.88036723 52.13350818 -71.41015625 30.4296875 C-51.96388325 11.91106356 -26.88227209 0.86069174 0 0 Z M-62.84765625 44.8671875 C-80.02722949 62.95285638 -89.09669603 86.01682525 -88.875 110.9453125 C-88.41863361 122.92989077 -85.56196341 134.18688915 -80.66015625 145.1171875 C-80.08974609 146.42236328 -80.08974609 146.42236328 -79.5078125 147.75390625 C-76.37421887 154.47477879 -72.22858567 160.2973684 -67.66015625 166.1171875 C-67.06589844 166.87902344 -66.47164062 167.64085937 -65.859375 168.42578125 C-61.38515564 173.80059295 -56.25965448 177.93094192 -50.74389648 182.1652832 C-39.01120195 191.18370952 -34.51249264 198.56017833 -29.66015625 213.1171875 C-8.87015625 213.1171875 11.91984375 213.1171875 33.33984375 213.1171875 C34.65984375 208.8271875 35.97984375 204.5371875 37.33984375 200.1171875 C42.21391897 191.38919234 48.80766055 185.75982905 56.71484375 179.8046875 C75.40758847 165.34549124 88.05324845 144.66680735 91.33984375 121.1171875 C94.40139712 95.64712168 88.01665798 71.97590601 72.14672852 51.74975586 C56.69604626 32.5522328 35.02545892 20.86687932 10.58984375 17.7421875 C-17.43498641 14.76234726 -42.6159681 25.89490163 -62.84765625 44.8671875 Z M-39.56455994 230.4940033 C-41.10231877 232.77227479 -41.52906976 234.36437121 -41.66015625 237.1171875 C-39.909021 240.82979977 -39.909021 240.82979977 -36.66015625 243.1171875 C-34.2709383 243.23065671 -31.91016016 243.28497111 -29.52001953 243.29418945 C-28.41731216 243.30404625 -28.41731216 243.30404625 -27.29232788 243.31410217 C-24.85504052 243.3338432 -22.41781475 243.3454987 -19.98046875 243.35546875 C-19.14882076 243.35954428 -18.31717278 243.3636198 -17.46032333 243.36781883 C-13.05965167 243.38868171 -8.65901122 243.4029832 -4.25830078 243.41235352 C0.29049774 243.42342634 4.8388082 243.45783531 9.38743401 243.49752522 C12.88242513 243.52364818 16.37729913 243.53204142 19.8723793 243.53563499 C21.54934109 243.54051116 23.22629729 243.55215441 24.90316391 243.57067299 C27.24947764 243.59497658 29.59451737 243.59411631 31.94091797 243.5871582 C32.6340509 243.59996826 33.32718384 243.61277832 34.0413208 243.62597656 C37.37382321 243.58993722 39.08313111 243.31167395 41.77102661 241.27531433 C43.56479029 239.1458069 43.56479029 239.1458069 43.83984375 236.1171875 C43.21204265 232.3503809 42.3665344 231.4082172 39.33984375 229.1171875 C36.70744107 228.72730699 34.49407656 228.57921447 31.86499023 228.61547852 C31.11820007 228.61007553 30.37140991 228.60467255 29.60198975 228.59910583 C27.13790034 228.5866163 24.67497875 228.60310837 22.2109375 228.62109375 C20.49748168 228.62093878 18.7840255 228.61945017 17.0705719 228.61668396 C13.48186727 228.61529993 9.8935623 228.62785973 6.30493164 228.65063477 C1.70229958 228.67904105 -2.89966951 228.67627643 -7.50235081 228.66354465 C-11.03937964 228.65659444 -14.57625486 228.66436883 -18.11326408 228.67680168 C-19.81055042 228.68132108 -21.50785322 228.68164872 -23.20514107 228.67773628 C-25.57533794 228.67482989 -27.94461638 228.6913017 -30.31469727 228.71313477 C-31.01763412 228.70863312 -31.72057098 228.70413147 -32.44480896 228.69949341 C-35.30778442 228.74337342 -37.20438648 228.78768225 -39.56455994 230.4940033 Z M-21.66015625 260.1171875 C-21.33015625 264.7371875 -21.00015625 269.3571875 -20.66015625 274.1171875 C-5.15015625 274.1171875 10.35984375 274.1171875 26.33984375 274.1171875 C26.66984375 269.4971875 26.99984375 264.8771875 27.33984375 260.1171875 C11.16984375 260.1171875 -5.00015625 260.1171875 -21.66015625 260.1171875 Z " fill="#000000" transform="translate(301.66015625,68.8828125)"/>
<path d="M0 0 C14.35501532 1.62872957 27.35417909 7.76662438 38.14746094 17.24365234 C38.82421875 17.82630859 39.50097656 18.40896484 40.19824219 19.00927734 C51.56249896 29.51293992 59.36836767 45.378445 60.38574219 60.87255859 C60.41023438 62.17064453 60.43472656 63.46873047 60.45996094 64.80615234 C60.51603516 66.75714844 60.51603516 66.75714844 60.57324219 68.74755859 C60.14746094 72.24365234 60.14746094 72.24365234 58.37792969 74.67724609 C56.02962966 76.3264025 54.97493504 76.78783163 52.14746094 76.74365234 C51.15746094 76.75912109 51.15746094 76.75912109 50.14746094 76.77490234 C47.08032362 75.96019399 46.01653062 74.81562003 44.14746094 72.24365234 C43.42050285 69.36015332 43.18634219 66.44858727 42.89746094 63.49365234 C40.9910599 48.86107748 35.00439874 36.45207297 23.14746094 27.24365234 C19.60556601 24.89739709 16.02347261 22.97720289 12.14746094 21.24365234 C11.45523437 20.92783203 10.76300781 20.61201172 10.04980469 20.28662109 C6.39395607 18.85668416 2.87706774 18.17715529 -1.01660156 17.79833984 C-1.76925293 17.72454102 -2.5219043 17.65074219 -3.29736328 17.57470703 C-4.80489256 17.43995224 -6.31464331 17.32767468 -7.82568359 17.24072266 C-11.75901524 16.91526756 -13.71595712 16.3529896 -16.82910156 13.86083984 C-18.85253906 11.24365234 -18.85253906 11.24365234 -19.47753906 8.24365234 C-17.4011807 -1.7228678 -8.10150114 -0.64530029 0 0 Z " fill="#000000" transform="translate(310.8525390625,108.75634765625)"/>
<path d="M0 0 C2.58455285 1.89533875 2.96275506 2.88826517 4 6 C4.12021476 8.44309185 4.18801823 10.85686712 4.203125 13.30078125 C4.20882507 14.01477585 4.21452515 14.72877045 4.22039795 15.46440125 C4.22983651 16.97486902 4.23637739 18.48535727 4.24023438 19.99584961 C4.24992129 22.29382786 4.28094606 24.59090414 4.3125 26.88867188 C4.31903256 28.35936971 4.32428204 29.83007392 4.328125 31.30078125 C4.3404718 31.98223709 4.3528186 32.66369293 4.36553955 33.36579895 C4.34433032 37.96332648 3.42459073 41.09933083 1 45 C-2.13871188 46.56935594 -4.53855822 46.35201103 -8 46 C-11.73915325 43.22918983 -12.8825041 41.74493331 -13.61523438 37.09936523 C-13.63459382 35.58588161 -13.62593052 34.07185906 -13.59375 32.55859375 C-13.59379028 31.75390152 -13.59383057 30.94920929 -13.59387207 30.12013245 C-13.58852696 28.42481646 -13.57098713 26.72950027 -13.54199219 25.03442383 C-13.50007439 22.44210025 -13.500931 19.85237159 -13.5078125 17.25976562 C-13.49732119 15.60935698 -13.4843834 13.9589617 -13.46875 12.30859375 C-13.46854858 11.53559433 -13.46834717 10.76259491 -13.46813965 9.96617126 C-13.39756439 6.75350076 -13.2123354 4.38877931 -11.65820312 1.54321289 C-8.02440657 -1.83859335 -4.53542019 -0.97187576 0 0 Z " fill="#000000" transform="translate(308,8)"/>
<path d="M0 0 C2.59932628 0.70268224 3.84995064 1.74923788 5.8293457 3.56591797 C6.86841064 4.51640015 6.86841064 4.51640015 7.9284668 5.48608398 C11.69232885 9.06774261 15.39556038 12.70280855 19.05981445 16.38623047 C19.82616211 17.14871094 20.59250977 17.91119141 21.38208008 18.69677734 C22.10975586 19.42574219 22.83743164 20.15470703 23.5871582 20.90576172 C24.24321045 21.56294189 24.8992627 22.22012207 25.57519531 22.8972168 C27.87103145 25.38506701 28.11414137 26.48546117 28.43481445 29.94873047 C28.12231445 33.57373047 28.12231445 33.57373047 26.49731445 35.94873047 C23.55953383 37.95879089 21.68266485 38.50107026 18.12231445 38.57373047 C14.02293617 36.52361766 11.07405392 33.77080689 7.85668945 30.53857422 C7.37782288 30.05924942 6.8989563 29.57992462 6.40557861 29.08607483 C5.40154812 28.07904016 4.3999319 27.06959316 3.40063477 26.05786133 C1.86830914 24.50717717 0.32802895 22.96474683 -1.21362305 21.42333984 C-9.76109645 12.83289277 -9.76109645 12.83289277 -10.19018555 8.19873047 C-9.87768555 4.57373047 -9.87768555 4.57373047 -8.37768555 2.13623047 C-5.55563581 0.37244939 -3.33693111 -0.17842913 0 0 Z " fill="#000000" transform="translate(194.877685546875,51.42626953125)"/>
<path d="M0 0 C3.27155869 2.36665948 4.70646942 3.89926032 5.75 7.8125 C3.88265605 15.74871179 -5.18323895 22.33753259 -10.8125 27.9375 C-11.57498047 28.70384766 -12.33746094 29.47019531 -13.12304688 30.25976562 C-13.85201172 30.98744141 -14.58097656 31.71511719 -15.33203125 32.46484375 C-15.98921143 33.120896 -16.6463916 33.77694824 -17.32348633 34.45288086 C-20.34441113 37.24064851 -22.94975527 37.35100489 -27.0234375 37.26953125 C-29 37 -29 37 -31.5 35.5 C-33.5660156 32.05664067 -33.67098942 28.87730216 -33 25 C-30.9362793 22.01220703 -30.9362793 22.01220703 -28.07421875 19.2578125 C-27.57082474 18.76336639 -27.06743073 18.26892029 -26.54878235 17.75949097 C-24.94623918 16.19486489 -23.31784583 14.66057791 -21.6875 13.125 C-20.60304713 12.07213313 -19.52034459 11.01746025 -18.43945312 9.9609375 C-7.27302549 -0.87777894 -7.27302549 -0.87777894 0 0 Z " fill="#000000" transform="translate(416,54)"/>
<path d="M0 0 C3.59021261 2.94291233 5.17520132 6.07495907 6.98046875 10.3046875 C7.23878983 10.90628693 7.4971109 11.50788635 7.76325989 12.12771606 C8.30475114 13.3948526 8.84151688 14.66401788 9.3737793 15.93505859 C10.18419616 17.86712353 11.01170799 19.7911613 11.84179688 21.71484375 C17.8146945 35.75959012 17.8146945 35.75959012 16 40.75 C13.2341044 43.86163255 11.08848811 44.4360706 7 45 C0.44800938 42.01999814 -1.27963199 36.25565458 -4 30 C-4.35094727 29.20094238 -4.70189453 28.40188477 -5.06347656 27.57861328 C-6.21101937 24.93649251 -7.32889083 22.28367411 -8.4375 19.625 C-8.80399658 18.76914307 -9.17049316 17.91328613 -9.5480957 17.03149414 C-11.44752949 12.34646887 -12.6911124 9.01184221 -11 4 C-7.58901615 0.2966461 -5.00128785 -0.85128304 0 0 Z " fill="#000000" transform="translate(247,18)"/>
<path d="M0 0 C2.4375 1.5 2.4375 1.5 4 4 C5.07734654 11.61509048 2.02705643 17.94424887 -0.90722656 24.82885742 C-1.75222014 26.81772556 -2.56871726 28.81667453 -3.3828125 30.81835938 C-3.9150141 32.09444048 -4.44881329 33.36985672 -4.984375 34.64453125 C-5.46616211 35.79284424 -5.94794922 36.94115723 -6.44433594 38.12426758 C-8.03393581 41.06273225 -9.10685558 42.38956644 -12 44 C-15.88040089 44.48505011 -18.0761612 44.56851618 -21.4375 42.5 C-23.66840208 38.93055666 -23.63615128 36.04440049 -23 32 C-21.5940312 27.6227998 -19.8936828 23.39655506 -18.09277344 19.17114258 C-17.24777986 17.18227444 -16.43128274 15.18332547 -15.6171875 13.18164062 C-15.0849859 11.90555952 -14.55118671 10.63014328 -14.015625 9.35546875 C-13.53383789 8.20715576 -13.05205078 7.05884277 -12.55566406 5.87573242 C-9.51116785 0.24781013 -6.28607411 -0.78575926 0 0 Z " fill="#000000" transform="translate(366,20)"/>
</svg>
