<svg width="60" height="60" viewBox="0 0 60 60" fill="none" xmlns="http://www.w3.org/2000/svg">
<g clip-path="url(#clip0_97_4908)">
<path d="M14.7016 24.825C20.1766 24.825 25.3516 26.25 29.8516 28.65L45.9016 9.375H14.1016V47.625V24.825H14.7016Z" fill="#E9478B"/>
<path d="M29.8516 28.6504L14.1016 47.6254V50.6254H45.8266C44.0266 41.1754 38.0266 33.1504 29.8516 28.6504Z" fill="#3EBEB0"/>
<path d="M29.8516 28.6504L14.1016 47.6254V50.6254H19.7266L35.0266 32.1754C35.0266 32.1754 33.9766 31.3504 32.5516 30.3004C31.5016 29.5504 29.8516 28.6504 29.8516 28.6504Z" fill="#37A595"/>
<path d="M14.7016 24.8242H14.1016V47.6242L29.8516 28.6492C25.3516 26.2492 20.1766 24.8242 14.7016 24.8242Z" fill="#353535"/>
</g>
<defs>
<clipPath id="clip0_97_4908">
<rect width="60" height="60" fill="white"/>
</clipPath>
</defs>
</svg>
