<svg width="70" height="70" viewBox="0 0 70 70" fill="none" xmlns="http://www.w3.org/2000/svg">
<circle cx="35" cy="35" r="35" fill="#FFE8AF"/>
<path d="M34.8125 15C35.107 15.0982 35.1256 15.1793 35.2706 15.4471C35.3135 15.5253 35.3565 15.6035 35.4007 15.684C35.4467 15.7693 35.4927 15.8545 35.54 15.9424C35.639 16.1225 35.7381 16.3026 35.8373 16.4825C35.8626 16.5285 35.8878 16.5745 35.9139 16.6219C36.1626 17.0737 36.4214 17.5192 36.6826 17.9639C36.7738 18.1194 36.8649 18.2749 36.9561 18.4305C37.0017 18.5083 37.0473 18.5862 37.0943 18.6664C37.3363 19.0807 37.5759 19.4964 37.8154 19.9121C37.8636 19.9957 37.9118 20.0793 37.9614 20.1654C38.0596 20.3357 38.1577 20.506 38.2558 20.6763C38.4633 21.0365 38.671 21.3968 38.8787 21.7569C38.9768 21.9271 39.0749 22.0972 39.173 22.2674C39.2181 22.3456 39.2631 22.4237 39.3096 22.5043C39.3533 22.5802 39.397 22.6561 39.442 22.7343C39.5384 22.9003 39.6357 23.0657 39.7338 23.2307C39.809 23.3575 39.809 23.3575 39.8857 23.4869C39.9316 23.5636 39.9774 23.6402 40.0246 23.7192C40.125 23.9062 40.125 23.9062 40.125 24.0625C44.3016 24.0625 48.4781 24.0625 52.7812 24.0625C52.4439 24.7371 52.1103 25.3897 51.7266 26.0352C51.6304 26.1985 51.5343 26.3619 51.4382 26.5253C51.3646 26.6502 51.3646 26.6502 51.2895 26.7776C51.0439 27.1961 50.8017 27.6166 50.5596 28.0371C50.511 28.1214 50.4624 28.2057 50.4123 28.2926C50.3137 28.4638 50.2151 28.6349 50.1165 28.8061C49.8235 29.3146 49.5301 29.823 49.2367 30.3313C48.9903 30.7582 48.7442 31.1853 48.4984 31.6125C48.4492 31.6981 48.3999 31.7836 48.3492 31.8717C48.2514 32.0416 48.1537 32.2116 48.0562 32.3816C47.8167 32.7979 47.5737 33.2114 47.3229 33.6209C47.2751 33.6995 47.2273 33.7781 47.1781 33.859C47.0877 34.0072 46.9964 34.1548 46.904 34.3017C46.864 34.3675 46.8239 34.4333 46.7827 34.501C46.7472 34.5581 46.7117 34.6151 46.6751 34.6739C46.5735 34.9364 46.6404 35.1273 46.7507 35.3781C46.7761 35.423 46.8014 35.4679 46.8276 35.5142C46.8569 35.5667 46.8862 35.6192 46.9164 35.6732C46.9488 35.7298 46.9813 35.7864 47.0146 35.8447C47.049 35.9057 47.0834 35.9666 47.1188 36.0294C47.4971 36.6969 47.8854 37.3586 48.2732 38.0206C48.5653 38.5198 48.8548 39.0204 49.1436 39.5215C49.1922 39.6058 49.2408 39.6902 49.2909 39.7771C49.3895 39.9482 49.4881 40.1193 49.5866 40.2905C49.7823 40.6301 49.9782 40.9696 50.1741 41.3091C50.2713 41.4776 50.3686 41.6461 50.4657 41.8147C50.7155 42.2477 50.9655 42.6806 51.2157 43.1134C52.0953 44.6351 52.0953 44.6351 52.5029 45.3564C52.532 45.4076 52.561 45.4588 52.5909 45.5115C52.7812 45.85 52.7812 45.85 52.7812 45.9375C48.6047 45.9375 44.4281 45.9375 40.125 45.9375C40.0734 46.0922 40.0219 46.2469 39.9688 46.4062C39.8634 46.5987 39.7556 46.7855 39.6416 46.9727C39.5707 47.0911 39.4999 47.2096 39.4292 47.3282C39.3905 47.3929 39.3519 47.4576 39.312 47.5243C39.0798 47.9161 38.8532 48.3113 38.626 48.7061C38.5762 48.7924 38.5264 48.8788 38.4752 48.9678C38.3729 49.1453 38.2706 49.3229 38.1684 49.5004C37.874 50.0115 37.5792 50.5223 37.2843 51.0331C37.034 51.4669 36.7839 51.9008 36.5343 52.3349C36.0204 53.2281 35.5047 54.1198 34.9688 55C34.6742 54.9018 34.6557 54.8207 34.5107 54.5529C34.4677 54.4747 34.4248 54.3965 34.3805 54.316C34.3346 54.2307 34.2886 54.1455 34.2412 54.0576C34.1423 53.8775 34.0432 53.6974 33.944 53.5175C33.9061 53.4485 33.9061 53.4485 33.8674 53.3781C33.6187 52.9263 33.3598 52.4808 33.0986 52.0361C33.0075 51.8806 32.9163 51.7251 32.8252 51.5695C32.7796 51.4917 32.734 51.4138 32.687 51.3336C32.445 50.9193 32.2054 50.5036 31.9658 50.0879C31.9176 50.0043 31.8695 49.9207 31.8198 49.8346C31.7217 49.6643 31.6236 49.494 31.5255 49.3237C31.3179 48.9635 31.1103 48.6032 30.9026 48.2431C30.8044 48.0729 30.7063 47.9028 30.6083 47.7326C30.5632 47.6544 30.5181 47.5763 30.4717 47.4957C30.4061 47.3819 30.4061 47.3819 30.3392 47.2657C30.2429 47.0997 30.1455 46.9343 30.0475 46.7693C29.9973 46.6848 29.9472 46.6002 29.8955 46.5131C29.8497 46.4364 29.8039 46.3598 29.7567 46.2808C29.6562 46.0938 29.6562 46.0938 29.6562 45.9375C25.4797 45.9375 21.3031 45.9375 17 45.9375C17.3373 45.2629 17.6709 44.6103 18.0547 43.9648C18.1509 43.8015 18.247 43.6381 18.3431 43.4747C18.3921 43.3915 18.4412 43.3082 18.4917 43.2224C18.7374 42.8039 18.9795 42.3834 19.2217 41.9629C19.2703 41.8786 19.3189 41.7943 19.3689 41.7074C19.4676 41.5362 19.5662 41.3651 19.6648 41.1939C19.9578 40.6854 20.2512 40.177 20.5446 39.6687C20.7909 39.2418 21.0371 38.8147 21.2828 38.3875C21.3321 38.3019 21.3813 38.2164 21.4321 38.1283C21.5299 37.9584 21.6275 37.7884 21.725 37.6184C21.9645 37.2021 22.2075 36.7886 22.4584 36.3791C22.53 36.2612 22.53 36.2612 22.6031 36.141C22.6935 35.9928 22.7849 35.8452 22.8773 35.6983C22.9173 35.6325 22.9573 35.5667 22.9985 35.499C23.034 35.4419 23.0695 35.3849 23.1061 35.3261C23.2077 35.0636 23.1409 34.8727 23.0305 34.6219C23.0052 34.577 22.9798 34.5321 22.9537 34.4858C22.9243 34.4333 22.895 34.3808 22.8648 34.3268C22.8324 34.2702 22.8 34.2136 22.7666 34.1553C22.715 34.0639 22.715 34.0639 22.6624 33.9706C22.2842 33.3031 21.8958 32.6414 21.5081 31.9794C21.2159 31.4802 20.9265 30.9796 20.6377 30.4785C20.5648 30.352 20.5648 30.352 20.4904 30.2229C20.3918 30.0518 20.2932 29.8807 20.1946 29.7095C19.9989 29.3699 19.803 29.0304 19.6071 28.6909C19.5099 28.5224 19.4127 28.3539 19.3155 28.1853C19.0657 27.7523 18.8158 27.3194 18.5656 26.8866C17.686 25.3649 17.686 25.3649 17.2783 24.6436C17.2493 24.5924 17.2202 24.5412 17.1903 24.4885C17 24.15 17 24.15 17 24.0625C21.1766 24.0625 25.3531 24.0625 29.6562 24.0625C29.7078 23.9078 29.7594 23.7531 29.8125 23.5938C29.9178 23.4013 30.0256 23.2145 30.1396 23.0273C30.2105 22.9089 30.2813 22.7904 30.3521 22.6718C30.4101 22.5747 30.4101 22.5747 30.4692 22.4757C30.7015 22.0839 30.9281 21.6887 31.1553 21.2939C31.205 21.2076 31.2548 21.1212 31.3061 21.0322C31.4084 20.8547 31.5106 20.6771 31.6128 20.4996C31.9072 19.9885 32.2021 19.4777 32.4969 18.9669C32.7472 18.5331 32.9973 18.0992 33.2469 17.6651C33.7609 16.7718 34.2765 15.8802 34.8125 15ZM34.8125 17.5C34.7808 17.5556 34.749 17.6113 34.7164 17.6686C33.8639 19.1627 33.0067 20.654 32.1452 22.143C32.0366 22.3307 31.9281 22.5184 31.8196 22.7061C31.743 22.8387 31.6663 22.9712 31.5895 23.1037C31.5432 23.1838 31.4969 23.264 31.4492 23.3466C31.4083 23.4171 31.3675 23.4876 31.3255 23.5603C31.2328 23.725 31.147 23.8935 31.0625 24.0625C33.5891 24.0625 36.1156 24.0625 38.7188 24.0625C38.3498 23.3846 38.3498 23.3846 37.972 22.7121C37.9231 22.6266 37.8742 22.5411 37.8239 22.453C37.7728 22.3638 37.7216 22.2745 37.6689 22.1826C37.6142 22.087 37.5594 21.9913 37.5047 21.8956C37.0389 21.0821 36.5712 20.2696 36.1016 19.4583C35.9226 19.1489 35.7452 18.8387 35.5693 18.5275C35.5295 18.4575 35.4897 18.3876 35.4487 18.3154C35.3748 18.1853 35.3013 18.055 35.2284 17.9243C35.1462 17.7803 35.0581 17.6397 34.9688 17.5C34.9172 17.5 34.8656 17.5 34.8125 17.5ZM19.1875 25.3125C19.3041 25.6041 19.4181 25.8461 19.5742 26.1142C19.6205 26.1941 19.6668 26.274 19.7145 26.3564C19.7646 26.4421 19.8146 26.5279 19.8662 26.6162C19.9189 26.707 19.9716 26.7978 20.0243 26.8886C20.1337 27.0771 20.2432 27.2656 20.3528 27.454C20.6035 27.8854 20.8524 28.3177 21.1016 28.75C21.1991 28.9191 21.2967 29.0881 21.3942 29.2572C21.5907 29.5977 21.787 29.9383 21.9832 30.2789C22.1777 30.6166 22.3726 30.9541 22.5676 31.2915C22.7435 31.5956 22.9186 31.9001 23.0928 32.2052C23.218 32.4241 23.3439 32.6427 23.4697 32.8613C23.5161 32.9429 23.5624 33.0245 23.6101 33.1086C23.6529 33.1827 23.6957 33.2568 23.7398 33.3331C23.7961 33.4316 23.7961 33.4316 23.8536 33.532C23.8864 33.5782 23.9193 33.6243 23.9531 33.6719C24.0047 33.6719 24.0563 33.6719 24.1094 33.6719C24.1531 33.5921 24.1968 33.5124 24.2418 33.4302C24.6678 32.6564 25.1065 31.8909 25.5528 31.1287C25.8924 30.5486 26.2298 29.9672 26.5654 29.3848C26.6136 29.3012 26.6617 29.2177 26.7114 29.1316C26.8095 28.9613 26.9076 28.7909 27.0058 28.6206C27.2133 28.2603 27.421 27.9001 27.6287 27.5399C27.7268 27.3698 27.8249 27.1996 27.923 27.0295C27.9906 26.9122 27.9906 26.9122 28.0596 26.7926C28.1033 26.7168 28.147 26.641 28.192 26.5629C28.3845 26.2309 28.5794 25.9004 28.7746 25.57C28.8814 25.4135 28.8814 25.4135 28.875 25.3125C25.6781 25.3125 22.4812 25.3125 19.1875 25.3125ZM29.9747 25.8437C29.947 25.9004 29.9192 25.9572 29.8906 26.0156C29.848 26.0866 29.8054 26.1575 29.7615 26.2306C29.7284 26.2903 29.6953 26.35 29.6611 26.4114C29.6225 26.4806 29.5838 26.5497 29.544 26.6209C29.5037 26.6935 29.4634 26.766 29.4219 26.8408C29.0662 27.4757 28.7057 28.1074 28.3379 28.7354C27.8079 29.6408 27.2832 30.5491 26.7595 31.4582C26.5538 31.8152 26.3478 32.172 26.1417 32.5288C26.0414 32.7027 25.9412 32.8766 25.8413 33.0507C25.6383 33.404 25.4351 33.7565 25.2224 34.104C25.192 34.1544 25.1616 34.2048 25.1303 34.2567C25.0546 34.3817 24.9776 34.506 24.9004 34.6301C24.7893 34.9001 24.8239 35.0304 24.8906 35.3125C24.9865 35.524 24.9865 35.524 25.1134 35.7312C25.16 35.8109 25.2066 35.8905 25.2545 35.9726C25.3053 36.0577 25.356 36.1428 25.4082 36.2305C25.4613 36.3209 25.5144 36.4113 25.5674 36.5018C25.6774 36.6896 25.7878 36.8772 25.8984 37.0647C26.1516 37.4944 26.3997 37.927 26.6484 38.3594C26.7461 38.5287 26.8437 38.6979 26.9414 38.8672C27.5273 39.8828 27.5273 39.8828 27.6739 40.1369C27.7712 40.3055 27.8685 40.4741 27.9658 40.6426C28.2161 41.0763 28.4661 41.5102 28.7157 41.9443C29.3504 43.0487 29.3504 43.0487 29.998 44.1455C30.0406 44.2167 30.0406 44.2167 30.0841 44.2893C30.2058 44.5003 30.2058 44.5003 30.3594 44.6875C30.4759 44.6965 30.5928 44.7001 30.7097 44.7016C30.7853 44.7027 30.861 44.7039 30.939 44.705C31.0227 44.7059 31.1065 44.7067 31.1927 44.7075C31.2804 44.7087 31.368 44.7098 31.4583 44.711C32.2676 44.7208 33.077 44.7263 33.8863 44.7303C34.4846 44.7334 35.0828 44.7387 35.6811 44.7471C36.1524 44.7535 36.6237 44.756 37.095 44.7573C37.2955 44.7584 37.4959 44.7607 37.6964 44.7642C37.977 44.769 38.2573 44.7693 38.538 44.7686C38.6209 44.771 38.7039 44.7734 38.7893 44.7759C39.2276 44.773 39.2276 44.773 39.5759 44.5331C39.6964 44.3547 39.7962 44.1776 39.8906 43.9844C39.9332 43.9134 39.9758 43.8425 40.0197 43.7694C40.0528 43.7097 40.086 43.65 40.1201 43.5886C40.1588 43.5194 40.1974 43.4503 40.2373 43.3791C40.2776 43.3065 40.3179 43.234 40.3594 43.1592C40.715 42.5243 41.0756 41.8926 41.4434 41.2646C41.9733 40.3592 42.4981 39.4509 43.0217 38.5418C43.2275 38.1848 43.4335 37.828 43.6396 37.4712C43.7399 37.2973 43.84 37.1234 43.94 36.9493C44.1429 36.596 44.3462 36.2435 44.5589 35.896C44.5893 35.8456 44.6196 35.7952 44.6509 35.7433C44.7266 35.6183 44.8037 35.494 44.8809 35.3699C44.9919 35.0999 44.9574 34.9696 44.8906 34.6875C44.7948 34.476 44.7948 34.476 44.6678 34.2688C44.6213 34.1891 44.5747 34.1095 44.5267 34.0274C44.4506 33.8998 44.4506 33.8998 44.373 33.7695C44.3199 33.6791 44.2669 33.5887 44.2139 33.4982C44.1039 33.3104 43.9935 33.1228 43.8829 32.9353C43.6297 32.5056 43.3815 32.073 43.1328 31.6406C43.0352 31.4713 42.9375 31.3021 42.8398 31.1328C42.2539 30.1172 42.2539 30.1172 42.1073 29.8631C42.01 29.6945 41.9128 29.5259 41.8155 29.3574C41.5652 28.9237 41.3152 28.4898 41.0656 28.0557C40.4308 26.9513 40.4308 26.9513 39.7832 25.8545C39.7548 25.807 39.7264 25.7596 39.6972 25.7107C39.5755 25.4997 39.5755 25.4997 39.4219 25.3125C39.3054 25.3035 39.1884 25.2999 39.0716 25.2984C38.9959 25.2972 38.9202 25.2961 38.8422 25.295C38.7585 25.2941 38.6748 25.2933 38.5885 25.2925C38.5009 25.2913 38.4132 25.2902 38.3229 25.289C37.5136 25.2792 36.7043 25.2737 35.8949 25.2697C35.2966 25.2666 34.6984 25.2613 34.1002 25.2529C33.6288 25.2465 33.1576 25.244 32.6862 25.2427C32.4858 25.2416 32.2853 25.2393 32.0849 25.2358C31.8042 25.231 31.5239 25.2307 31.2433 25.2314C31.1603 25.229 31.0774 25.2266 30.9919 25.2241C30.4404 25.2319 30.2411 25.358 29.9747 25.8437ZM40.9062 25.3125C41.5748 26.5382 42.2552 27.7533 42.9607 28.9581C43.4007 29.7098 43.8346 30.465 44.2693 31.2197C44.4306 31.4995 44.5921 31.7791 44.7536 32.0587C44.8348 32.1994 44.9161 32.34 44.9973 32.4807C45.0748 32.6148 45.1523 32.7489 45.2298 32.883C45.2764 32.9636 45.323 33.0443 45.371 33.1274C45.4328 33.2345 45.4328 33.2345 45.4959 33.3437C45.5573 33.4516 45.6164 33.5608 45.6719 33.6719C45.7234 33.6719 45.775 33.6719 45.8281 33.6719C45.8575 33.621 45.8869 33.5701 45.9171 33.5176C48.4648 29.1016 48.4648 29.1016 48.6116 28.8472C48.7084 28.6794 48.8052 28.5116 48.9019 28.3438C49.1313 27.946 49.3609 27.5483 49.5915 27.1512C49.7008 26.9629 49.81 26.7746 49.9191 26.5863C49.9965 26.4529 50.0741 26.3196 50.1517 26.1864C50.1983 26.106 50.2449 26.0255 50.2928 25.9427C50.3341 25.8717 50.3753 25.8008 50.4178 25.7277C50.5244 25.5432 50.5244 25.5432 50.5938 25.3125C47.3969 25.3125 44.2 25.3125 40.9062 25.3125ZM23.9531 36.3281C23.9238 36.379 23.8944 36.4299 23.8641 36.4824C21.3164 40.8984 21.3164 40.8984 21.1697 41.1528C21.0729 41.3206 20.9761 41.4884 20.8794 41.6562C20.65 42.054 20.4203 42.4517 20.1897 42.8488C20.0804 43.0371 19.9713 43.2254 19.8621 43.4137C19.7848 43.5471 19.7072 43.6804 19.6295 43.8136C19.583 43.894 19.5364 43.9745 19.4884 44.0573C19.4266 44.1637 19.4266 44.1637 19.3635 44.2723C19.2569 44.4568 19.2569 44.4568 19.1875 44.6875C22.3844 44.6875 25.5813 44.6875 28.875 44.6875C28.2064 43.4618 27.5261 42.2467 26.8206 41.0419C26.3806 40.2902 25.9467 39.535 25.5119 38.7803C25.3507 38.5005 25.1892 38.2209 25.0276 37.9413C24.9464 37.8006 24.8652 37.66 24.7839 37.5193C24.7065 37.3852 24.629 37.2511 24.5514 37.117C24.5049 37.0364 24.4583 36.9557 24.4103 36.8726C24.3484 36.7655 24.3484 36.7655 24.2853 36.6563C24.224 36.5484 24.1649 36.4392 24.1094 36.3281C24.0578 36.3281 24.0062 36.3281 23.9531 36.3281ZM45.6719 36.3281C45.6282 36.4079 45.5845 36.4876 45.5394 36.5698C45.1135 37.3436 44.6748 38.1091 44.2285 38.8713C43.8888 39.4514 43.5515 40.0328 43.2158 40.6152C43.1677 40.6988 43.1195 40.7823 43.0699 40.8684C42.9717 41.0387 42.8736 41.2091 42.7755 41.3794C42.5679 41.7397 42.3603 42.0999 42.1526 42.4601C42.0544 42.6302 41.9563 42.8004 41.8583 42.9705C41.8132 43.0487 41.7681 43.1269 41.7217 43.2074C41.678 43.2832 41.6343 43.359 41.5892 43.4371C41.3968 43.7691 41.2018 44.0996 41.0067 44.43C40.8999 44.5865 40.8999 44.5865 40.9062 44.6875C44.1031 44.6875 47.3 44.6875 50.5938 44.6875C50.4771 44.3959 50.3632 44.1539 50.2071 43.8858C50.1376 43.7659 50.1376 43.7659 50.0667 43.6436C50.0167 43.5579 49.9666 43.4721 49.915 43.3838C49.8623 43.293 49.8096 43.2022 49.757 43.1114C49.6476 42.9229 49.5381 42.7344 49.4285 42.546C49.1777 42.1146 48.9288 41.6823 48.6797 41.25C48.5821 41.0809 48.4846 40.9119 48.387 40.7428C48.1906 40.4023 47.9943 40.0617 47.798 39.7211C47.6035 39.3834 47.4087 39.0459 47.2136 38.7085C47.0378 38.4044 46.8627 38.0999 46.6885 37.7948C46.5632 37.5759 46.4373 37.3573 46.3115 37.1387C46.2652 37.0571 46.2189 36.9755 46.1711 36.8914C46.1283 36.8173 46.0855 36.7432 46.0414 36.6669C46.0039 36.6012 45.9664 36.5356 45.9277 36.468C45.8948 36.4218 45.862 36.3757 45.8281 36.3281C45.7766 36.3281 45.725 36.3281 45.6719 36.3281ZM31.0625 45.9375C31.4314 46.6154 31.4314 46.6154 31.8093 47.2879C31.8581 47.3734 31.907 47.4589 31.9574 47.547C32.0085 47.6362 32.0596 47.7255 32.1123 47.8174C32.1671 47.913 32.2218 48.0087 32.2765 48.1044C32.7423 48.9179 33.2101 49.7304 33.6797 50.5417C33.8587 50.8511 34.036 51.1613 34.2119 51.4725C34.2517 51.5425 34.2915 51.6124 34.3325 51.6846C34.4064 51.8147 34.4799 51.945 34.5529 52.0757C34.635 52.2197 34.7231 52.3603 34.8125 52.5C34.8641 52.5 34.9156 52.5 34.9688 52.5C35.0005 52.4444 35.0322 52.3887 35.0649 52.3314C35.9173 50.8373 36.7746 49.346 37.636 47.857C37.7446 47.6693 37.8531 47.4816 37.9616 47.2939C38.0382 47.1613 38.115 47.0288 38.1917 46.8963C38.2381 46.8162 38.2844 46.736 38.3321 46.6534C38.3729 46.5829 38.4137 46.5124 38.4558 46.4397C38.5484 46.275 38.6342 46.1065 38.7188 45.9375C36.1922 45.9375 33.6656 45.9375 31.0625 45.9375Z" fill="black"/>
<path d="M39.5491 31.1693C40.393 31.8934 41.1565 32.6396 41.8434 33.5155C41.9049 33.5922 41.9663 33.6688 42.0296 33.7478C42.0874 33.8226 42.1452 33.8974 42.2048 33.9745C42.2573 34.042 42.3099 34.1094 42.3641 34.179C42.4684 34.3749 42.4684 34.3749 42.4678 34.565C42.3663 34.8275 42.2134 35.0318 42.0388 35.2489C42.0034 35.2937 41.968 35.3385 41.9315 35.3846C41.6059 35.7928 41.2659 36.184 40.9059 36.5624C40.8644 36.6065 40.8228 36.6506 40.7799 36.6961C40.0968 37.4168 39.3911 38.0455 38.5622 38.5936C38.4444 38.6717 38.4444 38.6717 38.3242 38.7514C36.8577 39.661 35.1047 40.0771 33.4059 39.6874C32.5001 39.45 31.6877 39.114 30.9059 38.5936C30.8591 38.5629 30.8123 38.5322 30.7641 38.5005C29.4769 37.6394 28.3562 36.4904 27.4001 35.2782C27.3573 35.2252 27.3145 35.1721 27.2705 35.1175C27.0927 34.8811 27.0021 34.7486 26.9902 34.4481C27.1001 34.1604 27.2594 33.9406 27.4538 33.7059C27.4918 33.6588 27.5299 33.6118 27.5691 33.5632C27.9823 33.0581 28.4244 32.5813 28.8747 32.1093C28.9496 32.0268 28.9496 32.0268 29.0261 31.9426C32.0235 28.7445 36.1763 28.3826 39.5491 31.1693ZM29.1384 33.6669C29.0801 33.7292 29.0801 33.7292 29.0207 33.7927C28.8091 34.0245 28.6351 34.2559 28.4841 34.5311C29.8378 36.3282 31.7391 38.1604 34.0454 38.5465C35.5782 38.7542 37.0362 38.1713 38.2558 37.2722C39.2585 36.4964 40.2623 35.5788 40.9841 34.5311C39.7207 32.7413 37.8085 30.9754 35.605 30.5028C32.9431 30.1329 30.8518 31.8284 29.1384 33.6669Z" fill="black"/>
<path d="M37.0779 31.7967C37.7121 32.3942 38.2311 33.1989 38.276 34.0901C38.2951 35.1095 38.1455 35.8736 37.5467 36.7186C37.4766 36.8201 37.4766 36.8201 37.4051 36.9237C36.7928 37.5884 35.9406 37.9959 35.0393 38.0653C34.1111 38.0856 33.3001 37.9006 32.5467 37.3436C32.479 37.2969 32.4113 37.2501 32.3416 37.202C31.7611 36.6673 31.2808 35.8767 31.2035 35.0786C31.161 33.9734 31.2633 33.0633 32.0099 32.1867C33.3686 30.74 35.5076 30.503 37.0779 31.7967ZM33.0316 32.9426C32.5153 33.4998 32.4195 34.0562 32.4356 34.8061C32.4852 35.2151 32.6347 35.5183 32.8592 35.8592C32.9059 35.9317 32.9526 36.0042 33.0008 36.0789C33.4825 36.5607 34.0371 36.7992 34.7146 36.826C35.3066 36.815 35.747 36.6393 36.2381 36.3182C36.842 35.6868 37.0307 35.0991 37.0212 34.2436C36.968 33.5976 36.6216 33.0784 36.1404 32.6561C35.0832 31.94 33.9479 32.0903 33.0316 32.9426Z" fill="black"/>
<path d="M26.2188 18.5938C26.4699 18.7038 26.6345 18.8362 26.8242 19.0332C26.8961 19.1072 26.8961 19.1072 26.9695 19.1827C27.0053 19.2204 27.0412 19.2581 27.0781 19.2969C27.3293 19.1868 27.4939 19.0544 27.6836 18.8574C27.7315 18.8081 27.7795 18.7587 27.8289 18.7079C27.8647 18.6702 27.9006 18.6326 27.9375 18.5938C28.1211 18.7485 28.303 18.9051 28.4844 19.0625C28.5488 19.1173 28.6133 19.1721 28.6797 19.2285C28.7969 19.375 28.7969 19.375 28.7825 19.5221C28.7038 19.7263 28.5989 19.8307 28.4404 19.9805C28.3654 20.0524 28.3654 20.0524 28.2888 20.1257C28.2502 20.1616 28.2116 20.1974 28.1719 20.2344C28.3012 20.5271 28.4685 20.6877 28.7075 20.8936C28.7969 21.0156 28.7969 21.0156 28.7938 21.1633C28.6904 21.3903 28.5419 21.5272 28.3623 21.6992C28.2978 21.7617 28.2332 21.8241 28.1667 21.8884C28.1168 21.9356 28.067 21.9827 28.0156 22.0312C27.7644 21.9212 27.5999 21.7888 27.4102 21.5918C27.3622 21.5424 27.3143 21.4931 27.2649 21.4423C27.229 21.4046 27.1932 21.3669 27.1562 21.3281C27.0699 21.4012 26.9836 21.4745 26.8975 21.5479C26.8254 21.609 26.8254 21.609 26.7519 21.6714C26.6208 21.7869 26.497 21.9063 26.375 22.0312C26.1053 21.9158 25.9336 21.7627 25.7305 21.5527C25.6753 21.4961 25.6201 21.4395 25.5632 21.3812C25.5217 21.3379 25.4802 21.2946 25.4375 21.25C25.5475 20.9988 25.68 20.8342 25.877 20.6445C25.951 20.5726 25.951 20.5726 26.0265 20.4993C26.0642 20.4634 26.1018 20.4276 26.1406 20.3906C26.0675 20.3043 25.9942 20.218 25.9209 20.1318C25.8801 20.0838 25.8393 20.0358 25.7973 19.9863C25.6763 19.8416 25.6763 19.8416 25.5342 19.7281C25.4375 19.6094 25.4375 19.6094 25.4396 19.4617C25.544 19.2353 25.6925 19.0977 25.8721 18.9258C25.9366 18.8633 26.0012 18.8009 26.0677 18.7366C26.1175 18.6894 26.1674 18.6423 26.2188 18.5938Z" fill="black"/>
<path d="M18.7853 33.0588C19.0051 33.1455 19.1228 33.2719 19.2852 33.4424C19.3403 33.4997 19.3955 33.557 19.4524 33.616C19.4939 33.6602 19.5354 33.7044 19.5781 33.75C19.6645 33.6769 19.7507 33.6036 19.8369 33.5303C19.885 33.4895 19.933 33.4487 19.9825 33.4067C20.1136 33.2913 20.2374 33.1718 20.3594 33.0469C20.6291 33.1623 20.8008 33.3155 21.0039 33.5254C21.0591 33.582 21.1143 33.6386 21.1711 33.6969C21.2126 33.7402 21.2541 33.7835 21.2969 33.8281C21.1868 34.0793 21.0544 34.2439 20.8574 34.4336C20.8081 34.4815 20.7587 34.5295 20.7079 34.5789C20.6702 34.6147 20.6326 34.6506 20.5938 34.6875C20.6669 34.7739 20.7401 34.8601 20.8135 34.9463C20.8747 35.0183 20.8747 35.0183 20.9371 35.0919C21.0525 35.223 21.1719 35.3468 21.2969 35.4688C21.1815 35.7384 21.0283 35.9101 20.8184 36.1133C20.7618 36.1685 20.7052 36.2237 20.6469 36.2805C20.6035 36.322 20.5602 36.3635 20.5156 36.4062C20.2644 36.2962 20.0999 36.1638 19.9102 35.9668C19.8622 35.9174 19.8143 35.8681 19.7649 35.8173C19.729 35.7796 19.6932 35.7419 19.6562 35.7031C19.5699 35.7762 19.4836 35.8495 19.3975 35.9229C19.3254 35.984 19.3254 35.984 19.2519 36.0464C19.1072 36.1674 19.1072 36.1674 18.9937 36.3095C18.875 36.4062 18.875 36.4062 18.7273 36.4041C18.5009 36.2997 18.3634 36.1512 18.1914 35.9717C18.129 35.9071 18.0665 35.8426 18.0022 35.7761C17.9315 35.7013 17.9315 35.7013 17.8594 35.625C17.8896 35.5901 17.9198 35.5551 17.9509 35.5191C17.9916 35.4719 18.0323 35.4246 18.0742 35.376C18.1141 35.3298 18.154 35.2835 18.1951 35.2359C18.3469 35.0559 18.4935 34.8714 18.6406 34.6875C18.3828 34.4297 18.125 34.1719 17.8594 33.9062C18.0145 33.7229 18.1707 33.5408 18.3281 33.3594C18.3829 33.2949 18.4377 33.2305 18.4941 33.1641C18.6406 33.0469 18.6406 33.0469 18.7853 33.0588Z" fill="black"/>
<path d="M41.531 18.5938C41.6174 18.6669 41.7036 18.7401 41.7898 18.8135C41.8379 18.8543 41.8859 18.8951 41.9354 18.9371C42.0665 19.0525 42.1903 19.1719 42.3123 19.2969C42.5635 19.1868 42.728 19.0544 42.9177 18.8574C42.9657 18.8081 43.0136 18.7587 43.063 18.7079C43.0989 18.6702 43.1347 18.6326 43.1717 18.5938C43.5253 18.8811 43.8275 19.1727 44.1092 19.5312C43.8771 19.7633 43.6451 19.9953 43.406 20.2344C43.5425 20.5073 43.6337 20.6359 43.8455 20.8398C43.8948 20.8878 43.9442 20.9357 43.995 20.9851C44.0327 21.021 44.0703 21.0568 44.1092 21.0938C43.9937 21.3634 43.8406 21.5351 43.6306 21.7383C43.574 21.7935 43.5174 21.8487 43.4591 21.9055C43.4158 21.947 43.3725 21.9885 43.3279 22.0312C43.0767 21.9212 42.9121 21.7888 42.7224 21.5918C42.6745 21.5424 42.6266 21.4931 42.5772 21.4423C42.5413 21.4046 42.5055 21.3669 42.4685 21.3281C42.2173 21.4382 42.0528 21.5706 41.8631 21.7676C41.8151 21.8169 41.7672 21.8663 41.7178 21.9171C41.6819 21.9548 41.6461 21.9924 41.6092 22.0312C41.4255 21.8765 41.2437 21.7199 41.0623 21.5625C40.9656 21.4803 40.9656 21.4803 40.867 21.3965C40.7498 21.25 40.7498 21.25 40.7641 21.1029C40.8429 20.8987 40.9478 20.7943 41.1062 20.6445C41.1813 20.5726 41.1813 20.5726 41.2579 20.4993C41.2965 20.4634 41.335 20.4276 41.3748 20.3906C41.2455 20.0979 41.0781 19.9373 40.8392 19.7314C40.7498 19.6094 40.7498 19.6094 40.7528 19.4617C40.8562 19.2347 41.0048 19.0978 41.1843 18.9258C41.2489 18.8633 41.3135 18.8009 41.38 18.7366C41.4298 18.6894 41.4797 18.6423 41.531 18.5938Z" fill="black"/>
<path d="M49.8122 33.2043C50.0162 33.3046 50.1443 33.4343 50.3008 33.5986C50.356 33.6559 50.4112 33.7132 50.468 33.7723C50.5095 33.8165 50.551 33.8607 50.5938 33.9062C50.6801 33.8331 50.7664 33.7599 50.8525 33.6865C50.9006 33.6457 50.9486 33.6049 50.9981 33.5629C51.1292 33.4475 51.253 33.3281 51.375 33.2031C51.6447 33.3185 51.8164 33.4717 52.0195 33.6816C52.0747 33.7382 52.1299 33.7948 52.1868 33.8531C52.2283 33.8965 52.2698 33.9398 52.3125 33.9844C52.2025 34.2356 52.07 34.4001 51.873 34.5898C51.8237 34.6378 51.7744 34.6857 51.7235 34.7351C51.6858 34.771 51.6482 34.8068 51.6094 34.8438C51.6825 34.9301 51.7558 35.0164 51.8291 35.1025C51.8903 35.1746 51.8903 35.1746 51.9527 35.2481C52.0681 35.3792 52.1875 35.503 52.3125 35.625C52.1971 35.8947 52.0439 36.0664 51.834 36.2695C51.7774 36.3247 51.7208 36.3799 51.6625 36.4368C51.6192 36.4783 51.5759 36.5198 51.5312 36.5625C51.2801 36.4525 51.1155 36.32 50.9258 36.123C50.8778 36.0737 50.8299 36.0244 50.7805 35.9735C50.7447 35.9358 50.7088 35.8982 50.6719 35.8594C50.5855 35.9325 50.4993 36.0058 50.4131 36.0791C50.341 36.1403 50.341 36.1403 50.2675 36.2027C50.1364 36.3181 50.0126 36.4375 49.8906 36.5625C49.6209 36.4471 49.4492 36.2939 49.2461 36.084C49.1909 36.0274 49.1357 35.9708 49.0789 35.9125C49.0374 35.8692 48.9959 35.8259 48.9531 35.7812C49.0632 35.5301 49.1956 35.3655 49.3926 35.1758C49.4666 35.1039 49.4666 35.1039 49.5421 35.0305C49.5798 34.9947 49.6174 34.9588 49.6562 34.9219C49.5831 34.8355 49.5099 34.7493 49.4365 34.6631C49.3957 34.615 49.3549 34.567 49.3129 34.5175C49.1919 34.3729 49.1919 34.3729 49.0499 34.2593C48.9531 34.1406 48.9531 34.1406 48.9589 33.9908C49.0511 33.7835 49.17 33.6527 49.3291 33.4912C49.4096 33.4071 49.4096 33.4071 49.4918 33.3212C49.6562 33.2031 49.6562 33.2031 49.8122 33.2043Z" fill="black"/>
<path d="M41.5312 48.125C41.7824 48.235 41.947 48.3675 42.1367 48.5645C42.2086 48.6385 42.2086 48.6385 42.282 48.714C42.3178 48.7517 42.3537 48.7893 42.3906 48.8281C42.477 48.755 42.5632 48.6817 42.6494 48.6084C42.6975 48.5676 42.7455 48.5268 42.795 48.4848C42.9261 48.3694 43.0499 48.25 43.1719 48.125C43.4416 48.2404 43.6133 48.3936 43.8164 48.6035C43.8716 48.6601 43.9268 48.7167 43.9836 48.775C44.0251 48.8183 44.0666 48.8616 44.1094 48.9062C43.9993 49.1574 43.8669 49.322 43.6699 49.5117C43.6206 49.5597 43.5712 49.6076 43.5204 49.657C43.4827 49.6928 43.4451 49.7287 43.4062 49.7656C43.4794 49.852 43.5526 49.9382 43.626 50.0244C43.6872 50.0965 43.6872 50.0965 43.7496 50.17C43.865 50.3011 43.9844 50.4249 44.1094 50.5469C43.994 50.8166 43.8408 50.9883 43.6309 51.1914C43.5743 51.2466 43.5177 51.3018 43.4594 51.3586C43.416 51.4001 43.3727 51.4416 43.3281 51.4844C43.0769 51.3743 42.9124 51.2419 42.7227 51.0449C42.6747 50.9956 42.6268 50.9462 42.5774 50.8954C42.5415 50.8577 42.5057 50.8201 42.4688 50.7812C42.3824 50.8544 42.2961 50.9276 42.21 51.001C42.1379 51.0622 42.1379 51.0622 42.0644 51.1246C41.9333 51.24 41.8095 51.3594 41.6875 51.4844C41.4178 51.369 41.2461 51.2158 41.043 51.0059C40.9878 50.9493 40.9326 50.8927 40.8757 50.8344C40.8342 50.791 40.7927 50.7477 40.75 50.7031C40.86 50.4519 40.9925 50.2874 41.1895 50.0977C41.2635 50.0258 41.2635 50.0258 41.339 49.9524C41.3767 49.9165 41.4143 49.8807 41.4531 49.8438C41.38 49.7574 41.3067 49.6711 41.2334 49.585C41.1926 49.5369 41.1518 49.4889 41.1098 49.4394C40.9944 49.3083 40.875 49.1845 40.75 49.0625C40.8654 48.7928 41.0186 48.6211 41.2285 48.418C41.2851 48.3628 41.3417 48.3076 41.4 48.2507C41.4433 48.2092 41.4866 48.1677 41.5312 48.125Z" fill="black"/>
<path d="M26.2188 48.125C26.4699 48.235 26.6345 48.3675 26.8242 48.5645C26.8961 48.6385 26.8961 48.6385 26.9695 48.714C27.0053 48.7517 27.0412 48.7893 27.0781 48.8281C27.1645 48.755 27.2507 48.6817 27.3369 48.6084C27.385 48.5676 27.433 48.5268 27.4825 48.4848C27.6136 48.3694 27.7374 48.25 27.8594 48.125C28.1291 48.2404 28.3008 48.3936 28.5039 48.6035C28.5591 48.6601 28.6143 48.7167 28.6711 48.775C28.7126 48.8183 28.7541 48.8616 28.7969 48.9062C28.6868 49.1574 28.5544 49.322 28.3574 49.5117C28.3081 49.5597 28.2587 49.6076 28.2079 49.657C28.1702 49.6928 28.1326 49.7287 28.0938 49.7656C28.1669 49.852 28.2401 49.9382 28.3135 50.0244C28.3747 50.0965 28.3747 50.0965 28.4371 50.17C28.5525 50.3011 28.6719 50.4249 28.7969 50.5469C28.6815 50.8166 28.5283 50.9883 28.3184 51.1914C28.2618 51.2466 28.2052 51.3018 28.1469 51.3586C28.1035 51.4001 28.0602 51.4416 28.0156 51.4844C27.7644 51.3743 27.5999 51.2419 27.4102 51.0449C27.3622 50.9956 27.3143 50.9462 27.2649 50.8954C27.229 50.8577 27.1932 50.8201 27.1562 50.7812C27.0699 50.8544 26.9836 50.9276 26.8975 51.001C26.8254 51.0622 26.8254 51.0622 26.7519 51.1246C26.6208 51.24 26.497 51.3594 26.375 51.4844C26.1053 51.369 25.9336 51.2158 25.7305 51.0059C25.6753 50.9493 25.6201 50.8927 25.5632 50.8344C25.5217 50.791 25.4802 50.7477 25.4375 50.7031C25.5475 50.4519 25.68 50.2874 25.877 50.0977C25.951 50.0258 25.951 50.0258 26.0265 49.9524C26.0642 49.9165 26.1018 49.8807 26.1406 49.8438C26.0675 49.7574 25.9942 49.6711 25.9209 49.585C25.8801 49.5369 25.8393 49.4889 25.7973 49.4394C25.6819 49.3083 25.5625 49.1845 25.4375 49.0625C25.5529 48.7928 25.7061 48.6211 25.916 48.418C25.9726 48.3628 26.0292 48.3076 26.0875 48.2507C26.1308 48.2092 26.1741 48.1677 26.2188 48.125Z" fill="black"/>
<path d="M34.1094 33.2812C34.5219 33.2812 34.9344 33.2812 35.3594 33.2812C35.3594 33.4875 35.3594 33.6937 35.3594 33.9062C35.5398 33.9062 35.7203 33.9062 35.9062 33.9062C35.9062 34.3188 35.9062 34.7313 35.9062 35.1562C35.7258 35.1562 35.5453 35.1562 35.3594 35.1562C35.3594 35.3367 35.3594 35.5172 35.3594 35.7031C34.9469 35.7031 34.5344 35.7031 34.1094 35.7031C34.1094 35.5227 34.1094 35.3422 34.1094 35.1562C33.9031 35.1562 33.6969 35.1562 33.4844 35.1562C33.4844 34.7437 33.4844 34.3312 33.4844 33.9062C33.6906 33.9062 33.8969 33.9062 34.1094 33.9062C34.1094 33.7 34.1094 33.4938 34.1094 33.2812Z" fill="black"/>
<path d="M34.1094 47.9688C34.5219 47.9688 34.9344 47.9688 35.3594 47.9688C35.3594 48.3813 35.3594 48.7937 35.3594 49.2188C34.9469 49.2188 34.5344 49.2188 34.1094 49.2188C34.1094 48.8062 34.1094 48.3938 34.1094 47.9688Z" fill="black"/>
<path d="M45.2031 41.4844C45.6156 41.4844 46.0281 41.4844 46.4531 41.4844C46.4531 41.8969 46.4531 42.3094 46.4531 42.7344C46.0406 42.7344 45.6281 42.7344 45.2031 42.7344C45.2031 42.3219 45.2031 41.9094 45.2031 41.4844Z" fill="black"/>
<path d="M23.0156 41.4844C23.4281 41.4844 23.8406 41.4844 24.2656 41.4844C24.2656 41.8969 24.2656 42.3094 24.2656 42.7344C23.8531 42.7344 23.4406 42.7344 23.0156 42.7344C23.0156 42.3219 23.0156 41.9094 23.0156 41.4844Z" fill="black"/>
<path d="M45.2031 27.4219C45.6156 27.4219 46.0281 27.4219 46.4531 27.4219C46.4531 27.8344 46.4531 28.2469 46.4531 28.6719C46.0406 28.6719 45.6281 28.6719 45.2031 28.6719C45.2031 28.2594 45.2031 27.8469 45.2031 27.4219Z" fill="black"/>
<path d="M23.0156 27.4219C23.4281 27.4219 23.8406 27.4219 24.2656 27.4219C24.2656 27.8344 24.2656 28.2469 24.2656 28.6719C23.8531 28.6719 23.4406 28.6719 23.0156 28.6719C23.0156 28.2594 23.0156 27.8469 23.0156 27.4219Z" fill="black"/>
<path d="M34.1094 21.0156C34.5219 21.0156 34.9344 21.0156 35.3594 21.0156C35.3594 21.4281 35.3594 21.8406 35.3594 22.2656C34.9469 22.2656 34.5344 22.2656 34.1094 22.2656C34.1094 21.8531 34.1094 21.4406 34.1094 21.0156Z" fill="black"/>
</svg>
