<svg width="512" height="512" viewBox="0 0 512 512" fill="none" xmlns="http://www.w3.org/2000/svg">
<path fill-rule="evenodd" clip-rule="evenodd" d="M325.824 321.888C323.605 318.777 320.673 316.242 317.275 314.494C313.877 312.746 310.11 311.836 306.288 311.84H256.928C254.806 311.837 252.771 310.998 251.264 309.504L249.168 307.488C247.476 305.856 245.557 304.477 243.472 303.392L243.456 303.376C227.408 295.184 210.272 293.104 191.856 297.888C182.191 300.396 173.374 305.446 166.32 312.512L149.168 329.664L144.432 317.04C144.063 316.033 143.494 315.112 142.76 314.331C142.025 313.55 141.141 312.925 140.159 312.495C139.177 312.064 138.118 311.837 137.046 311.826C135.974 311.815 134.91 312.021 133.92 312.432L87.28 331.456C85.3773 332.231 83.8459 333.709 83.0029 335.582C82.1599 337.456 82.0701 339.582 82.752 341.52L125.712 463.248C126.075 464.281 126.646 465.228 127.39 466.031C128.134 466.834 129.035 467.476 130.036 467.917C131.038 468.358 132.12 468.588 133.215 468.594C134.309 468.6 135.393 468.382 136.4 467.952L185.024 447.2C186.917 446.392 188.426 444.885 189.237 442.992C190.047 441.1 190.097 438.968 189.376 437.04L181.44 415.84H240C242.122 415.84 244.157 414.997 245.657 413.497C247.157 411.997 248 409.962 248 407.84C248 405.718 247.157 403.683 245.657 402.183C244.157 400.683 242.122 399.84 240 399.84H175.84L155.6 345.856L177.632 323.808C182.672 318.768 188.976 315.168 195.872 313.376C210.256 309.632 223.616 311.216 236.144 317.616C236.862 317.997 237.52 318.482 238.096 319.056L238.608 319.52C239.024 319.872 239.472 320.336 239.952 320.816C242.182 323.044 244.829 324.812 247.741 326.017C250.654 327.222 253.776 327.841 256.928 327.84H306.288C308.41 327.84 310.445 328.683 311.945 330.183C313.445 331.683 314.288 333.718 314.288 335.84V343.84C314.288 345.962 313.445 347.997 311.945 349.497C310.445 350.997 308.41 351.84 306.288 351.84H250.288C248.166 351.84 246.131 352.683 244.631 354.183C243.131 355.683 242.288 357.718 242.288 359.84C242.288 361.962 243.131 363.997 244.631 365.497C246.131 366.997 248.166 367.84 250.288 367.84H306.288C312.653 367.84 318.758 365.311 323.259 360.811C327.759 356.31 330.288 350.205 330.288 343.84V339.408L396.368 279.936C397.891 278.565 399.881 277.831 401.929 277.885C403.978 277.938 405.927 278.776 407.376 280.224L411.36 284.224C412.669 285.531 413.485 287.251 413.669 289.092C413.853 290.933 413.393 292.78 412.368 294.32L353.888 382.032C350.234 387.509 345.285 392 339.48 395.106C333.674 398.213 327.192 399.839 320.608 399.84H272C269.878 399.84 267.843 400.683 266.343 402.183C264.843 403.683 264 405.718 264 407.84C264 409.962 264.843 411.997 266.343 413.497C267.843 414.997 269.878 415.84 272 415.84H320.608C329.827 415.839 338.904 413.561 347.032 409.21C355.159 404.859 362.087 398.568 367.2 390.896L425.68 303.184C428.753 298.568 430.133 293.029 429.585 287.511C429.037 281.992 426.594 276.833 422.672 272.912L418.688 268.912C414.341 264.567 408.493 262.055 402.348 261.894C396.204 261.733 390.232 263.936 385.664 268.048L325.824 321.888ZM132.336 330.352L171.712 435.488L137.968 449.888L100.384 343.392L132.336 330.352ZM111.984 136H104C89.1518 136.013 74.9153 141.917 64.4161 152.416C53.9168 162.915 48.0127 177.152 48 192V224C48 226.122 48.8429 228.157 50.3431 229.657C51.8434 231.157 53.8783 232 56 232H96C98.1217 232 100.157 231.157 101.657 229.657C103.157 228.157 104 226.122 104 224C104 221.878 103.157 219.843 101.657 218.343C100.157 216.843 98.1217 216 96 216H64V192C64 181.391 68.2143 171.217 75.7157 163.716C83.2172 156.214 93.3913 152 104 152H120C130.609 152 140.783 156.214 148.284 163.716C155.786 171.217 160 181.391 160 192V216H128C125.878 216 123.843 216.843 122.343 218.343C120.843 219.843 120 221.878 120 224C120 226.122 120.843 228.157 122.343 229.657C123.843 231.157 125.878 232 128 232H168C170.122 232 172.157 231.157 173.657 229.657C175.157 228.157 176 226.122 176 224V192C175.992 177.151 170.089 162.912 159.589 152.411C149.088 141.911 134.85 136.009 120 136H111.984H112.016C129.776 136 144.992 123.296 148.16 105.84L152.72 80.784C153.799 74.822 153.557 68.6958 152.01 62.8376C150.464 56.9794 147.65 51.532 143.769 46.8798C139.887 42.2276 135.031 38.4839 129.545 35.9128C124.059 33.3418 118.075 32.0061 112.016 32H111.984C105.922 31.9977 99.9344 33.3278 94.4438 35.8961C88.9532 38.4645 84.0942 42.2083 80.2108 46.8625C76.3275 51.5168 73.5146 56.9678 71.9713 62.8296C70.4279 68.6915 70.192 74.8209 71.28 80.784L75.84 105.84C77.3799 114.304 81.8413 121.958 88.4464 127.47C95.0515 132.982 103.381 136 111.984 136ZM416 232H456C458.122 232 460.157 231.157 461.657 229.657C463.157 228.157 464 226.122 464 224V192C463.992 177.151 458.089 162.912 447.589 152.411C437.088 141.911 422.85 136.009 408 136H392C377.152 136.013 362.915 141.917 352.416 152.416C341.917 162.915 336.013 177.152 336 192V224C336 226.122 336.843 228.157 338.343 229.657C339.843 231.157 341.878 232 344 232H384C386.122 232 388.157 231.157 389.657 229.657C391.157 228.157 392 226.122 392 224C392 221.878 391.157 219.843 389.657 218.343C388.157 216.843 386.122 216 384 216H352V192C352 181.391 356.214 171.217 363.716 163.716C371.217 156.214 381.391 152 392 152H408C418.609 152 428.783 156.214 436.284 163.716C443.786 171.217 448 181.391 448 192V216H416C413.878 216 411.843 216.843 410.343 218.343C408.843 219.843 408 221.878 408 224C408 226.122 408.843 228.157 410.343 229.657C411.843 231.157 413.878 232 416 232ZM272 232H312C314.122 232 316.157 231.157 317.657 229.657C319.157 228.157 320 226.122 320 224V192C319.992 177.151 314.089 162.912 303.589 152.411C293.088 141.911 278.85 136.009 264 136H248C233.152 136.013 218.915 141.917 208.416 152.416C197.917 162.915 192.013 177.152 192 192V224C192 226.122 192.843 228.157 194.343 229.657C195.843 231.157 197.878 232 200 232H240C242.122 232 244.157 231.157 245.657 229.657C247.157 228.157 248 226.122 248 224C248 221.878 247.157 219.843 245.657 218.343C244.157 216.843 242.122 216 240 216H208V192C208 181.391 212.214 171.217 219.716 163.716C227.217 156.214 237.391 152 248 152H264C274.609 152 284.783 156.214 292.284 163.716C299.786 171.217 304 181.391 304 192V216H272C269.878 216 267.843 216.843 266.343 218.343C264.843 219.843 264 221.878 264 224C264 226.122 264.843 228.157 266.343 229.657C267.843 231.157 269.878 232 272 232ZM442.096 80.784C443.19 74.8201 442.958 68.6886 441.417 62.8243C439.876 56.96 437.064 51.5067 433.179 46.851C429.294 42.1954 424.433 38.4515 418.94 35.885C413.446 33.3184 407.455 31.9921 401.392 32C395.329 31.9921 389.322 33.3184 383.828 35.885C378.335 38.4515 373.474 42.1954 369.589 46.851C365.704 51.5067 362.892 56.96 361.351 62.8243C359.81 68.6886 359.578 74.8201 360.672 80.784L365.216 105.84C366.759 114.302 371.221 121.955 377.826 127.466C384.43 132.977 392.758 135.997 401.36 136H401.408C419.152 136 434.368 123.296 437.552 105.84L442.096 80.784ZM298.096 80.784C299.19 74.8201 298.958 68.6886 297.417 62.8243C295.876 56.96 293.064 51.5067 289.179 46.851C285.294 42.1954 280.433 38.4515 274.94 35.885C269.446 33.3184 263.455 31.9921 257.392 32C251.329 31.9921 245.322 33.3184 239.828 35.885C234.335 38.4515 229.474 42.1954 225.589 46.851C221.704 51.5067 218.892 56.96 217.351 62.8243C215.81 68.6886 215.578 74.8201 216.672 80.784L221.216 105.84C222.759 114.302 227.221 121.955 233.826 127.466C240.43 132.977 248.758 135.997 257.36 136H257.408C275.152 136 290.368 123.296 293.552 105.84L298.096 80.784ZM426.352 77.92L421.808 102.976C420.939 107.753 418.421 112.074 414.693 115.185C410.965 118.296 406.263 120 401.408 120H401.36C396.504 120 391.803 118.296 388.075 115.185C384.347 112.074 381.829 107.753 380.96 102.976L376.416 77.92C375.742 74.2622 375.881 70.5007 376.825 66.9029C377.768 63.3051 379.493 59.9593 381.875 57.1032C384.258 54.247 387.24 51.9507 390.611 50.3774C393.981 48.8041 397.657 47.9924 401.376 48C405.09 48.0093 408.773 48.8322 412.135 50.4109C415.497 51.9895 418.472 54.2856 420.851 57.1376C423.231 59.9897 424.956 63.3283 425.906 66.9188C426.857 70.5093 427.009 74.2644 426.352 77.92ZM136.976 77.92L132.416 102.976C131.547 107.753 129.029 112.074 125.301 115.185C121.573 118.296 116.871 120 112.016 120H111.984C107.129 120 102.427 118.296 98.6991 115.185C94.9712 112.074 92.4532 107.753 91.584 102.976L87.024 77.92C86.3526 74.2626 86.4942 70.5022 87.4389 66.9056C88.3836 63.309 90.1081 59.9644 92.4902 57.1089C94.8723 54.2535 97.8535 51.9572 101.222 50.383C104.591 48.8088 108.265 47.9953 111.984 48H112.016C115.734 47.9981 119.406 48.8135 122.774 50.3886C126.141 51.9637 129.121 54.26 131.503 57.1147C133.884 59.9695 135.609 63.3129 136.555 66.9083C137.501 70.5036 137.644 74.2629 136.976 77.92ZM282.352 77.92L277.808 102.976C276.939 107.753 274.421 112.074 270.693 115.185C266.965 118.296 262.263 120 257.408 120H257.36C252.504 120 247.803 118.296 244.075 115.185C240.347 112.074 237.829 107.753 236.96 102.976L232.416 77.92C231.742 74.2622 231.881 70.5007 232.825 66.9029C233.768 63.3051 235.493 59.9593 237.875 57.1032C240.258 54.247 243.24 51.9507 246.611 50.3774C249.981 48.8041 253.657 47.9924 257.376 48C261.09 48.0093 264.773 48.8322 268.135 50.4109C271.497 51.9895 274.472 54.2856 276.851 57.1376C279.231 59.9897 280.956 63.3283 281.906 66.9188C282.857 70.5093 283.009 74.2644 282.352 77.92Z" fill="white"/>
</svg>
