<svg width="65" height="65" viewBox="0 0 65 65" fill="none" xmlns="http://www.w3.org/2000/svg">
<path fill-rule="evenodd" clip-rule="evenodd" d="M62 15.1618C57.0013 12.3898 51.9987 11 47 11C42.0013 11 36.9987 12.3898 32 15.1618V53C36.9987 50.4533 42.0013 49.1818 47 49.1818C51.9987 49.1818 57.0013 50.4533 62 53V15.1618Z" stroke="#024D81" stroke-width="2" stroke-linecap="round" stroke-linejoin="round"/>
<path d="M55 20.0993C52.455 19.3665 49.91 19 47.3613 19C44.8126 19 42.2713 19.3665 39.7226 20.0993M55 27.7328C52.455 27 49.91 26.6336 47.3613 26.6336C44.8126 26.6336 42.2713 27 39.7226 27.7328M55 35.3664C52.455 34.6336 49.91 34.2672 47.3613 34.2672C44.8126 34.2672 42.2713 34.6336 39.7226 35.3664M55 43C52.455 42.2672 49.91 41.9007 47.3613 41.9007C44.8126 41.9007 42.2713 42.2672 39.7226 43M25.2774 20.0993C22.7287 19.3665 20.1874 19 17.6387 19C15.09 19 12.5487 19.3665 10 20.0993M25.2774 27.7328C22.7287 27 20.1874 26.6336 17.6387 26.6336C15.09 26.6336 12.5487 27 10 27.7328M25.2774 35.3664C22.7324 34.6336 20.1874 34.2672 17.6387 34.2672C15.09 34.2672 12.5487 34.6336 10 35.3664M25.2774 43C22.7324 42.2672 20.1874 41.9007 17.6387 41.9007C15.09 41.9007 12.5487 42.2672 10 43" stroke="#024D81" stroke-width="2" stroke-linecap="round" stroke-linejoin="round"/>
<path fill-rule="evenodd" clip-rule="evenodd" d="M33 15.1618C28.0013 12.3898 22.9987 11 18 11C13.0013 11 7.99871 12.3898 3 15.1618V53C7.99871 50.4533 13.0013 49.1818 18 49.1818C22.9987 49.1818 28.0013 50.4533 33 53V15.1618Z" stroke="#024D81" stroke-width="2" stroke-linecap="round" stroke-linejoin="round"/>
</svg>
