<svg width="70" height="70" viewBox="0 0 70 70" fill="none" xmlns="http://www.w3.org/2000/svg">
<circle cx="35" cy="35" r="35" fill="#FFE8AF"/>
<path d="M27.7386 14.5325C27.807 14.5322 27.8754 14.5319 27.9458 14.5316C28.1754 14.5307 28.405 14.5304 28.6346 14.5301C28.799 14.5297 28.9635 14.5291 29.1279 14.5286C29.6685 14.5269 30.2091 14.5261 30.7497 14.5254C30.9359 14.525 31.1221 14.5247 31.3083 14.5244C32.1834 14.5229 33.0585 14.5218 33.9336 14.5212C34.9429 14.5204 35.9522 14.5183 36.9615 14.5152C37.7421 14.5128 38.5227 14.5117 39.3033 14.5114C39.7692 14.5112 40.2352 14.5105 40.7012 14.5086C41.1399 14.5068 41.5787 14.5064 42.0174 14.5072C42.178 14.5073 42.3385 14.5068 42.4991 14.5057C43.8095 14.4974 44.7311 14.6331 45.715 15.56C46.4036 16.2691 46.6519 17.1055 46.6473 18.0743C46.6473 18.1382 46.6473 18.2022 46.6474 18.2681C46.6473 18.4786 46.6467 18.6891 46.6461 18.8996C46.6459 19.0459 46.6458 19.1922 46.6458 19.3384C46.6455 19.7229 46.6447 20.1073 46.6438 20.4917C46.643 20.8842 46.6427 21.2767 46.6423 21.6692C46.6414 22.4389 46.6401 23.2086 46.6385 23.9783C47.4104 23.9783 48.1823 23.9783 48.9776 23.9783C48.9776 27.4518 48.9776 30.9254 48.9776 34.5042C48.2057 34.5042 47.4338 34.5042 46.6385 34.5042C46.6392 34.7159 46.6399 34.9276 46.6406 35.1456C46.6469 37.1407 46.6516 39.1357 46.6546 41.1308C46.6562 42.1564 46.6584 43.1821 46.662 44.2078C46.6651 45.102 46.6671 45.9962 46.6678 46.8904C46.6682 47.3637 46.6692 47.8369 46.6714 48.3102C46.6736 48.7561 46.6742 49.2021 46.6737 49.6481C46.6738 49.8113 46.6744 49.9744 46.6756 50.1376C46.6851 51.4857 46.555 52.5577 45.6005 53.5873C44.9375 54.2168 44.0926 54.5014 43.1915 54.4947C43.1228 54.4951 43.054 54.4956 42.9832 54.496C42.7546 54.4971 42.526 54.4966 42.2975 54.496C42.1328 54.4964 41.9682 54.497 41.8036 54.4976C41.3577 54.499 40.9118 54.4989 40.4658 54.4985C40.093 54.4982 39.7203 54.4987 39.3475 54.4992C38.4677 54.5003 37.588 54.5002 36.7082 54.4993C35.8018 54.4984 34.8955 54.4995 33.9891 54.5016C33.2098 54.5033 32.4304 54.5038 31.6511 54.5034C31.1862 54.5031 30.7212 54.5033 30.2562 54.5046C29.8189 54.5058 29.3815 54.5055 28.9442 54.5041C28.7841 54.5038 28.624 54.504 28.464 54.5048C27.1686 54.5109 26.2142 54.3343 25.2211 53.4411C24.5637 52.7516 24.3133 51.8288 24.3203 50.9008C24.3201 50.8025 24.3201 50.8025 24.3199 50.7023C24.3197 50.4844 24.3205 50.2666 24.3214 50.0487C24.3214 49.8919 24.3214 49.7351 24.3213 49.5783C24.3213 49.1537 24.3222 48.7291 24.3233 48.3045C24.3243 47.8604 24.3244 47.4163 24.3245 46.9721C24.325 46.1316 24.3263 45.291 24.3279 44.4505C24.3296 43.4934 24.3305 42.5362 24.3312 41.5791C24.3329 39.6107 24.3357 37.6422 24.3391 35.6738C24.7508 35.6738 25.1625 35.6738 25.5866 35.6738C25.5866 39.9192 25.5866 44.1647 25.5866 48.5388C30.604 48.5388 35.6213 48.5388 40.7907 48.5388C40.7907 48.9247 40.7907 49.3107 40.7907 49.7083C35.7734 49.7083 30.756 49.7083 25.5866 49.7083C25.5838 51.3665 25.5838 51.3665 26.3471 52.6752C26.9417 53.1912 27.6572 53.229 28.4162 53.2274C28.4792 53.2276 28.5422 53.2278 28.607 53.2279C28.8169 53.2284 29.0267 53.2284 29.2365 53.2283C29.3874 53.2285 29.5383 53.2288 29.6893 53.2291C30.0984 53.2298 30.5076 53.23 30.9168 53.23C31.1727 53.2301 31.4285 53.2302 31.6844 53.2304C32.5776 53.2312 33.4708 53.2315 34.3639 53.2314C35.1956 53.2314 36.0272 53.2322 36.8588 53.2334C37.5736 53.2345 38.2885 53.2349 39.0033 53.2348C39.4299 53.2348 39.8564 53.235 40.283 53.2359C40.6843 53.2366 41.0856 53.2366 41.487 53.236C41.6339 53.236 41.7808 53.2361 41.9277 53.2366C43.449 53.2642 43.449 53.2642 44.7456 52.5491C45.4946 51.7558 45.3437 50.7486 45.391 49.7083C44.2331 49.7083 43.0752 49.7083 41.8823 49.7083C41.8823 49.3224 41.8823 48.9364 41.8823 48.5388C43.0402 48.5388 44.198 48.5388 45.391 48.5388C45.391 43.9074 45.391 39.276 45.391 34.5042C37.6719 34.5042 29.9529 34.5042 22 34.5042C22 31.0307 22 27.5571 22 23.9783C22.7719 23.9783 23.5438 23.9783 24.3391 23.9783C24.3375 23.7852 24.3358 23.5921 24.3341 23.3932C24.329 22.7518 24.3255 22.1104 24.3229 21.469C24.3213 21.0805 24.3191 20.692 24.3156 20.3035C24.3122 19.9279 24.3103 19.5523 24.3095 19.1767C24.3089 19.0341 24.3078 18.8915 24.3061 18.7489C24.2932 17.6152 24.3757 16.6319 25.1188 15.7135C25.1747 15.6417 25.1747 15.6417 25.2318 15.5685C25.8638 14.8489 26.8111 14.5323 27.7386 14.5325ZM25.9408 16.6918C24.6461 18.7502 25.5866 21.5466 25.5866 23.9783C32.122 23.9783 38.6575 23.9783 45.391 23.9783C45.9387 20.0933 45.9387 20.0933 44.6478 16.2727C44.0453 15.7427 43.3369 15.7014 42.5613 15.7031C42.4669 15.7028 42.4669 15.7028 42.3705 15.7025C42.1607 15.702 41.9509 15.7021 41.741 15.7022C41.5901 15.7019 41.4392 15.7017 41.2883 15.7014C40.8791 15.7007 40.4699 15.7005 40.0607 15.7004C39.8049 15.7004 39.549 15.7002 39.2932 15.7C38.4 15.6993 37.5068 15.699 36.6136 15.699C35.782 15.6991 34.9504 15.6983 34.1187 15.697C33.4039 15.696 32.6891 15.6956 31.9743 15.6956C31.5477 15.6957 31.1211 15.6954 30.6946 15.6946C30.2933 15.6939 29.8919 15.6939 29.4906 15.6944C29.3437 15.6945 29.1968 15.6943 29.0499 15.6938C27.7884 15.6901 26.8389 15.7104 25.9408 16.6918ZM23.2475 25.1478C23.2475 27.8495 23.2475 30.5511 23.2475 33.3347C31.3268 33.3347 39.406 33.3347 47.73 33.3347C47.73 30.633 47.73 27.9314 47.73 25.1478C39.6508 25.1478 31.5716 25.1478 23.2475 25.1478Z" fill="black"/>
<path d="M28.8099 42.6407C28.9246 42.6397 28.9246 42.6397 29.0415 42.6386C29.2918 42.6369 29.5419 42.638 29.7922 42.6394C29.9675 42.6391 30.1428 42.6387 30.3181 42.6382C30.6846 42.6377 31.0511 42.6385 31.4176 42.6403C31.8858 42.6425 32.354 42.6413 32.8222 42.6389C33.184 42.6375 33.5457 42.638 33.9075 42.639C34.08 42.6392 34.2526 42.6389 34.4252 42.638C34.667 42.637 34.9087 42.6385 35.1505 42.6407C35.2208 42.6399 35.2911 42.6391 35.3636 42.6383C35.956 42.648 36.4921 42.83 36.9121 43.2616C36.9458 43.3194 36.9794 43.3772 37.0141 43.4367C37.0496 43.4947 37.0851 43.5527 37.1216 43.6125C37.3442 44.0716 37.3693 44.5966 37.217 45.082C37.0051 45.5527 36.7318 45.8846 36.2685 46.1218C35.8318 46.2729 35.4448 46.3005 34.9848 46.2992C34.9128 46.2996 34.8409 46.3 34.7668 46.3004C34.5301 46.3015 34.2934 46.3014 34.0567 46.3012C33.8914 46.3015 33.726 46.3018 33.5607 46.3022C33.2145 46.3028 32.8683 46.3028 32.5221 46.3024C32.0797 46.3019 31.6373 46.3032 31.1948 46.305C30.8534 46.3062 30.512 46.3063 30.1706 46.306C30.0075 46.3061 29.8444 46.3065 29.6814 46.3073C29.4528 46.3082 29.2243 46.3077 28.9957 46.3068C28.9291 46.3074 28.8625 46.308 28.7939 46.3086C28.1568 46.3031 27.5807 46.1621 27.1077 45.7155C26.7504 45.2916 26.6283 44.8313 26.653 44.2834C26.715 43.8197 26.8815 43.406 27.224 43.081C27.7506 42.7498 28.1936 42.6338 28.8099 42.6407ZM28.0372 44.0798C27.9011 44.2553 27.9011 44.2553 27.9209 44.5283C27.978 44.7988 27.978 44.7988 28.1603 44.9281C28.4768 45.0666 28.7483 45.063 29.0901 45.0605C29.1595 45.0609 29.2289 45.0613 29.3004 45.0617C29.5293 45.0628 29.7582 45.0621 29.9871 45.0613C30.1464 45.0615 30.3058 45.0617 30.4651 45.062C30.7988 45.0623 31.1326 45.0618 31.4663 45.0607C31.8939 45.0594 32.3215 45.0602 32.7492 45.0616C33.0781 45.0624 33.4071 45.0621 33.736 45.0615C33.8937 45.0614 34.0514 45.0616 34.209 45.0621C34.4295 45.0627 34.6498 45.0618 34.8703 45.0605C34.9678 45.0612 34.9678 45.0612 35.0674 45.0619C35.4243 45.058 35.6718 45.0361 35.9567 44.7963C36.054 44.5308 36.054 44.5308 36.0346 44.2505C35.9287 44.0651 35.9287 44.0651 35.7227 43.9387C35.4837 43.8923 35.248 43.8961 35.0052 43.8983C34.9326 43.8978 34.8601 43.8972 34.7853 43.8966C34.5455 43.8953 34.3057 43.8962 34.0659 43.8972C33.8993 43.897 33.7326 43.8967 33.566 43.8963C33.2168 43.8959 32.8676 43.8965 32.5184 43.898C32.0705 43.8998 31.6227 43.8988 31.1749 43.8969C30.8308 43.8958 30.4868 43.8961 30.1427 43.8969C29.9776 43.8971 29.8124 43.8969 29.6473 43.8962C29.4166 43.8954 29.1859 43.8966 28.9552 43.8983C28.8868 43.8977 28.8184 43.897 28.748 43.8964C28.4473 43.9006 28.2879 43.9033 28.0372 44.0798Z" fill="black"/>
<path d="M41.0929 41.9647C41.3722 42.0741 41.3722 42.0741 41.6679 41.9647C41.711 41.9416 41.7541 41.9185 41.7986 41.8947C42.2576 41.7201 42.8671 41.7537 43.315 41.9501C43.7284 42.1971 44.0379 42.5623 44.2555 42.9881C44.3872 43.7343 44.2978 44.2226 43.9095 44.874C43.7308 45.0989 43.5326 45.2969 43.3257 45.4959C43.2709 45.5502 43.216 45.6045 43.1595 45.6604C42.9865 45.8313 42.8121 46.0008 42.6377 46.1702C42.5191 46.2868 42.4007 46.4034 42.2824 46.5202C41.9941 46.8042 41.7047 47.0869 41.4145 47.369C41.1942 47.2684 41.0315 47.1622 40.8587 46.993C40.7904 46.9266 40.7904 46.9266 40.7207 46.8588C40.6723 46.8109 40.624 46.7629 40.5742 46.7136C40.5237 46.6637 40.4731 46.6139 40.421 46.5625C40.3142 46.4568 40.2076 46.3509 40.1011 46.2448C39.9397 46.0843 39.7769 45.9253 39.614 45.7664C38.4793 44.6458 38.4793 44.6458 38.3274 43.8524C38.3503 43.235 38.4314 42.778 38.861 42.3156C39.4873 41.7465 40.3036 41.6525 41.0929 41.9647ZM39.7479 43.2512C39.6075 43.4943 39.5859 43.5862 39.6212 43.8604C39.7408 44.0446 39.7408 44.0446 39.9136 44.2161C39.9766 44.2827 40.0396 44.3494 40.1046 44.418C40.4867 44.8066 40.8703 45.1933 41.2586 45.5757C41.517 45.463 41.6872 45.3222 41.8854 45.1228C41.9725 45.0354 41.9725 45.0354 42.0614 44.9463C42.1213 44.8855 42.1812 44.8246 42.2429 44.7619C42.3034 44.7013 42.364 44.6408 42.4263 44.5784C42.7634 44.2397 42.7634 44.2397 43.0519 43.8604C43.0377 43.596 43.0211 43.3916 42.8813 43.1635C42.6515 43.0288 42.5361 43.0309 42.2722 43.0807C42.044 43.2427 41.8464 43.4293 41.6484 43.6265C41.6037 43.671 41.559 43.7155 41.5129 43.7614C41.4642 43.8104 41.4642 43.8104 41.4145 43.8604C41.1661 43.7515 41.006 43.6229 40.82 43.4267C40.604 43.1998 40.4956 43.093 40.1767 43.0514C39.9215 43.058 39.9215 43.058 39.7479 43.2512Z" fill="black"/>
<path d="M37.672 26.3172C37.7366 26.4507 37.7366 26.4507 37.8005 26.6264C37.8247 26.692 37.849 26.7576 37.8739 26.8252C37.8996 26.8967 37.9254 26.9682 37.9519 27.0418C37.9788 27.115 38.0058 27.1882 38.0335 27.2636C38.1198 27.4986 38.2054 27.7339 38.2909 27.9692C38.3762 28.2031 38.4617 28.4369 38.5475 28.6706C38.6009 28.8162 38.654 28.9619 38.7068 29.1078C38.837 29.4636 38.9751 29.8032 39.1535 30.1377C39.1686 30.097 39.1837 30.0562 39.1992 30.0141C39.3572 29.5878 39.5153 29.1615 39.6736 28.7353C39.7326 28.5764 39.7915 28.4176 39.8503 28.2587C39.9352 28.0296 40.0202 27.8007 40.1052 27.5718C40.1313 27.5012 40.1574 27.4307 40.1843 27.3581C40.2092 27.291 40.2342 27.2239 40.2599 27.1548C40.2815 27.0964 40.3032 27.0381 40.3255 26.978C40.4228 26.7294 40.5297 26.4846 40.6349 26.2393C41.0208 26.3679 41.4068 26.4966 41.8044 26.6291C41.7509 26.9503 41.7071 27.1808 41.5962 27.4738C41.5696 27.5447 41.543 27.6155 41.5156 27.6885C41.4868 27.7641 41.458 27.8396 41.4283 27.9174C41.3984 27.9969 41.3684 28.0763 41.3376 28.1582C41.2418 28.4121 41.1455 28.6658 41.0491 28.9195C40.9858 29.0871 40.9225 29.2547 40.8592 29.4223C40.7369 29.7462 40.6144 30.0699 40.4916 30.3935C40.3855 30.6736 40.2801 30.954 40.176 31.2349C40.1542 31.2936 40.1324 31.3524 40.1099 31.4129C40.0702 31.52 40.0307 31.6271 39.9914 31.7343C39.8638 32.0784 39.8638 32.0784 39.7772 32.165C39.554 32.1707 39.3327 32.1722 39.1096 32.1698C39.0467 32.1695 38.9839 32.1691 38.9191 32.1688C38.7633 32.1679 38.6075 32.1665 38.4517 32.165C38.4344 32.1192 38.417 32.0735 38.3992 32.0264C38.2158 31.5431 38.0323 31.0597 37.8488 30.5764C37.7806 30.397 37.7125 30.2175 37.6444 30.038C37.5782 29.8636 37.512 29.6892 37.4458 29.5148C37.3806 29.343 37.3154 29.1711 37.2503 28.9992C37.1024 28.6095 36.953 28.2208 36.7973 27.8342C36.7713 27.7691 36.7452 27.7039 36.7184 27.6368C36.6703 27.5172 36.6216 27.3979 36.5723 27.2789C36.4159 26.8889 36.4159 26.8889 36.5025 26.6291C36.7263 26.5182 36.7263 26.5182 37.0044 26.4147C37.096 26.3797 37.1875 26.3447 37.2819 26.3087C37.5161 26.2393 37.5161 26.2393 37.672 26.3172Z" fill="black"/>
<path d="M42.8179 26.3174C43.7956 26.3174 44.7734 26.3174 45.7807 26.3174C45.7807 26.7033 45.7807 27.0893 45.7807 27.4869C45.1889 27.4869 44.5971 27.4869 43.9874 27.4869C43.9874 27.8729 43.9874 28.2588 43.9874 28.6565C44.3734 28.6565 44.7593 28.6565 45.157 28.6565C45.157 29.0424 45.157 29.4284 45.157 29.826C44.771 29.826 44.3851 29.826 43.9874 29.826C43.9874 30.212 43.9874 30.5979 43.9874 30.9956C44.5792 30.9956 45.171 30.9956 45.7807 30.9956C45.7807 31.3815 45.7807 31.7675 45.7807 32.1651C44.803 32.1651 43.8252 32.1651 42.8179 32.1651C42.8179 30.2354 42.8179 28.3056 42.8179 26.3174Z" fill="black"/>
<path d="M36.3853 17.0782C36.8323 17.3477 37.1185 17.8001 37.282 18.2867C37.3721 18.9042 37.2615 19.4186 36.8921 19.9241C36.458 20.3396 36.1055 20.4816 35.5033 20.4893C35.3626 20.4924 35.3626 20.4924 35.2191 20.4954C34.7679 20.4536 34.4031 20.2419 34.0852 19.9241C33.7326 19.4048 33.5869 18.9102 33.6954 18.2867C33.8768 17.7098 34.184 17.3368 34.709 17.0392C35.2151 16.8705 35.8915 16.8605 36.3853 17.0782ZM35.0696 18.3403C34.931 18.5117 34.931 18.5117 34.9039 18.7155C34.9565 18.9783 35.0371 19.0677 35.2548 19.2223C35.54 19.2699 35.6684 19.2571 35.9126 19.1005C36.0605 18.9084 36.0605 18.9084 36.0296 18.6278C35.9818 18.3448 35.9818 18.3448 35.7226 18.2087C35.4377 18.1723 35.3063 18.1721 35.0696 18.3403Z" fill="black"/>
<path d="M27.8818 27.6089C28.3201 27.8702 28.6275 28.2499 28.7833 28.7346C28.8486 29.3274 28.8493 29.8869 28.4714 30.3719C28.1315 30.732 27.8008 30.9665 27.2979 31.0219C26.6771 31.0293 26.2209 30.9948 25.7623 30.5525C25.3032 30.0406 25.2256 29.6334 25.2451 28.9459C25.2974 28.4337 25.526 28.1445 25.8984 27.8087C26.467 27.406 27.2348 27.3179 27.8818 27.6089ZM26.605 28.8174C26.4743 29.0558 26.4937 29.2484 26.5222 29.5143C26.5937 29.6767 26.5937 29.6767 26.7561 29.7482C27.0219 29.7767 27.2146 29.7961 27.453 29.6653C27.5837 29.427 27.5643 29.2343 27.5358 28.9685C27.4643 28.806 27.4643 28.806 27.3019 28.7346C27.0361 28.7061 26.8434 28.6867 26.605 28.8174Z" fill="black"/>
<path d="M29.9529 26.3174C30.3388 26.3174 30.7248 26.3174 31.1224 26.3174C31.1224 27.8612 31.1224 29.405 31.1224 30.9956C31.7142 30.9956 32.306 30.9956 32.9157 30.9956C32.9157 31.3815 32.9157 31.7675 32.9157 32.1651C31.938 32.1651 30.9603 32.1651 29.9529 32.1651C29.9529 30.2354 29.9529 28.3056 29.9529 26.3174Z" fill="black"/>
<path d="M26.6782 40.3521C28.6337 40.3521 30.5892 40.3521 32.6039 40.3521C32.6039 40.7637 32.6039 41.1754 32.6039 41.5996C30.6484 41.5996 28.693 41.5996 26.6782 41.5996C26.6782 41.1879 26.6782 40.7762 26.6782 40.3521Z" fill="black"/>
<path d="M34.0073 26.3174C34.419 26.3174 34.8307 26.3174 35.2548 26.3174C35.2548 28.2471 35.2548 30.1769 35.2548 32.1651C34.8432 32.1651 34.4315 32.1651 34.0073 32.1651C34.0073 30.2354 34.0073 28.3056 34.0073 26.3174Z" fill="black"/>
<path d="M26.6782 38.0127C28.0419 38.0127 29.4056 38.0127 30.8106 38.0127C30.8106 38.4244 30.8106 38.8361 30.8106 39.2602C29.4469 39.2602 28.0832 39.2602 26.6782 39.2602C26.6782 38.8485 26.6782 38.4369 26.6782 38.0127Z" fill="black"/>
<path d="M29.0173 20.3916C30.2009 20.3916 31.3845 20.3916 32.6039 20.3916C32.6039 20.8033 32.6039 21.215 32.6039 21.6391C31.4204 21.6391 30.2368 21.6391 29.0173 21.6391C29.0173 21.2274 29.0173 20.8158 29.0173 20.3916Z" fill="black"/>
<path d="M26.6782 20.3916C27.0899 20.3916 27.5016 20.3916 27.9257 20.3916C27.9257 20.8033 27.9257 21.215 27.9257 21.6391C27.5141 21.6391 27.1024 21.6391 26.6782 21.6391C26.6782 21.2274 26.6782 20.8158 26.6782 20.3916Z" fill="black"/>
</svg>
