<svg width="26" height="26" viewBox="0 0 26 26" fill="none" xmlns="http://www.w3.org/2000/svg">
<g clip-path="url(#clip0_134_281)">
<path d="M12.4522 -0.0119589C12.4915 -0.0124539 12.5308 -0.0129489 12.5713 -0.013459C13.4272 -0.0220166 14.248 -0.0154141 15.0815 0.203266C15.1198 0.212774 15.1581 0.222283 15.1976 0.232079C17.3224 0.766166 19.2548 2.1833 20.3852 4.06165C20.502 4.26208 20.6118 4.46584 20.7182 4.67202C20.7425 4.71912 20.7425 4.71912 20.7674 4.76718C21.2943 5.80347 21.6355 6.97969 21.6426 8.14676C21.6429 8.18642 21.6433 8.22608 21.6437 8.26694C21.6552 9.9129 21.6552 9.9129 21.4799 10.6134C21.4701 10.6546 21.4603 10.6957 21.4502 10.7381C20.9047 12.9752 19.5172 14.8678 18.1069 16.6433C17.9769 16.8071 17.8493 16.9727 17.7221 17.1388C17.4289 17.5212 17.1307 17.8997 16.8322 18.2779C16.7803 18.3437 16.7285 18.4094 16.6766 18.4752C16.6279 18.5371 16.579 18.5989 16.5302 18.6608C16.4316 18.7858 16.3378 18.9106 16.2495 19.0431C16.4636 19.1089 16.6774 19.1614 16.8967 19.207C17.9858 19.4332 19.0313 19.718 20.0073 20.2619C20.0549 20.2873 20.1026 20.3128 20.1517 20.339C20.7678 20.6842 21.3839 21.2392 21.611 21.9253C21.7127 22.4707 21.6576 22.9922 21.3639 23.4645C21.2893 23.5706 21.2095 23.6678 21.1245 23.7658C21.0804 23.8188 21.0804 23.8188 21.0354 23.8729C19.5337 25.5304 16.5653 25.8713 14.4721 26.0001C14.2531 26.0075 14.0343 26.0096 13.8151 26.0105C13.7546 26.0108 13.6942 26.0112 13.6319 26.0115C13.438 26.0124 13.2441 26.0127 13.0502 26.0128C12.951 26.0129 12.951 26.0129 12.8497 26.0129C11.9075 26.0122 10.986 25.9969 10.0541 25.8478C9.9961 25.8391 9.93805 25.8304 9.87824 25.8214C8.05031 25.5432 5.91988 25.0724 4.69672 23.5595C4.36921 23.0779 4.30992 22.6088 4.36664 22.0392C4.45033 21.6819 4.63634 21.3994 4.87446 21.1251C4.91854 21.0721 4.91854 21.0721 4.96352 21.018C6.10745 19.7555 8.1084 19.3829 9.69868 19.0939C9.69868 18.8838 9.6135 18.8258 9.47651 18.6686C9.42919 18.6134 9.38199 18.5581 9.33488 18.5028C9.3107 18.4744 9.28653 18.446 9.26163 18.4168C9.13185 18.2616 9.01009 18.1004 8.88744 17.9396C8.86608 17.9116 8.84471 17.8836 8.8227 17.8547C8.80044 17.8255 8.77819 17.7963 8.75525 17.7663C8.61793 17.587 8.47901 17.409 8.34028 17.2309C8.31022 17.1922 8.28016 17.1535 8.24919 17.1137C8.09719 16.9182 7.94483 16.7231 7.7918 16.5284C6.14181 14.4261 4.383 12.0015 4.35454 9.21495C4.35405 9.17458 4.35355 9.13421 4.35304 9.09261C4.34456 8.22611 4.34751 7.39438 4.56977 6.55092C4.57957 6.51019 4.58937 6.46946 4.59947 6.42749C4.91361 5.13225 5.57687 3.94598 6.44868 2.94545C6.51191 2.87201 6.51191 2.87201 6.57642 2.79708C8.01296 1.15984 10.2545 0.0109885 12.4522 -0.0119589ZM7.51508 3.3517C6.01269 4.87961 5.40173 6.9001 5.41424 8.99856C5.43066 10.3117 5.83153 11.4979 6.44868 12.6447C6.46634 12.678 6.48401 12.7113 6.50221 12.7456C7.26531 14.1771 8.32355 15.4532 9.3258 16.7223C9.44188 16.8694 9.55756 17.0168 9.67329 17.1642C9.81341 17.3426 9.9536 17.521 10.094 17.6992C10.3793 18.0614 10.6627 18.425 10.9428 18.7912C10.9981 18.8635 11.0535 18.9358 11.1089 19.008C11.7339 19.8237 12.3463 20.6481 12.9487 21.4806C13.1443 21.4154 13.2033 21.3015 13.3137 21.1378C13.54 20.8116 13.7768 20.4945 14.0183 20.1793C14.0891 20.0868 14.1599 19.9943 14.2307 19.9018C14.2639 19.8585 14.2971 19.8152 14.3313 19.7705C14.4406 19.6272 14.5486 19.4829 14.6562 19.3383C14.9307 18.9711 15.2136 18.6105 15.4957 18.2491C15.6187 18.0913 15.7415 17.9333 15.8642 17.7753C16.1018 17.4694 16.34 17.1639 16.5795 16.8595C16.648 16.7724 16.7165 16.6853 16.7849 16.5981C16.8368 16.5322 16.8886 16.4662 16.9405 16.4002C18.3676 14.5838 19.8367 12.6869 20.4135 10.4103C20.4226 10.3753 20.4317 10.3404 20.4411 10.3043C20.895 8.47347 20.5121 6.36412 19.5548 4.76103C19.2867 4.33005 18.9843 3.93429 18.6366 3.56415C18.5346 3.45327 18.5346 3.45327 18.4309 3.32235C17.4298 2.08355 15.5709 1.27381 14.0284 1.08222C13.9737 1.07705 13.9191 1.07188 13.8627 1.06655C13.8306 1.06322 13.7984 1.05989 13.7653 1.05646C11.4205 0.824811 9.17803 1.71126 7.51508 3.3517ZM5.8393 21.6837C5.5523 21.9821 5.41274 22.1508 5.41936 22.5712C5.43998 22.7643 5.50936 22.8582 5.63618 23.004C5.66105 23.0346 5.68593 23.0652 5.71155 23.0967C6.99654 24.5437 9.78457 24.8021 11.5776 24.9337C14.1762 25.0783 17.9992 25.1193 20.093 23.2738C20.3456 23.0351 20.5698 22.8226 20.5881 22.4645C20.5841 22.1578 20.4702 22.0001 20.2612 21.7853C20.2188 21.7408 20.2188 21.7408 20.1755 21.6954C19.1044 20.6729 17.368 20.3489 15.9618 20.1287C15.8838 20.1161 15.8061 20.1016 15.7288 20.0851C15.6095 20.0595 15.6095 20.0595 15.437 20.0587C15.3107 20.1442 15.3107 20.1442 15.2211 20.2841C15.1638 20.3616 15.1638 20.3616 15.1053 20.4408C15.0851 20.4693 15.065 20.4978 15.0442 20.5272C14.9775 20.6208 14.9085 20.7122 14.8387 20.8034C14.5317 21.2055 14.2357 21.6155 13.9404 22.0262C13.3199 22.8876 13.3199 22.8876 13.1449 22.9267C12.9585 22.9375 12.8083 22.9462 12.6509 22.8366C12.5541 22.7285 12.4725 22.6158 12.3901 22.4962C12.3539 22.4463 12.3177 22.3963 12.2804 22.3449C12.1953 22.2273 12.1113 22.1091 12.0279 21.9904C11.8357 21.7183 11.6372 21.4509 11.439 21.1831C11.2932 20.9861 11.1481 20.7888 11.0053 20.5896C10.9797 20.554 10.954 20.5184 10.9276 20.4817C10.8795 20.4149 10.8317 20.3478 10.7841 20.2805C10.7295 20.2048 10.6714 20.1314 10.6127 20.0587C9.11501 20.0587 6.95477 20.647 5.8393 21.6837Z" fill="black"/>
<path d="M15.1195 5.70199C15.3051 5.85423 15.4725 6.02108 15.639 6.19373C15.6727 6.22588 15.7064 6.25802 15.7411 6.29113C16.4015 6.96332 16.5784 7.8911 16.5707 8.79449C16.5469 9.79623 16.1493 10.5838 15.4359 11.2719C15.4037 11.3056 15.3716 11.3393 15.3385 11.374C14.6663 12.0343 13.7385 12.2113 12.8351 12.2036C11.8334 12.1798 11.0458 11.7822 10.3577 11.0687C10.324 11.0366 10.2903 11.0045 10.2556 10.9713C9.59526 10.2991 9.41833 9.37137 9.42602 8.46798C9.44978 7.46623 9.8474 6.6787 10.5609 5.99061C10.593 5.9569 10.6251 5.92319 10.6583 5.88845C11.7975 4.76937 13.8762 4.77731 15.1195 5.70199ZM11.932 6.34608C11.8884 6.3682 11.8449 6.39033 11.8 6.41313C11.3024 6.68784 10.9694 7.06068 10.7132 7.56483C10.6921 7.60469 10.671 7.64456 10.6493 7.68563C10.4187 8.20093 10.4117 8.91662 10.5926 9.45008C10.6301 9.53386 10.6703 9.61649 10.7132 9.69764C10.7464 9.76294 10.7464 9.76294 10.7803 9.82955C11.1317 10.4661 11.6696 10.8528 12.3531 11.0812C13.0151 11.2656 13.6565 11.1412 14.2544 10.8174C14.8728 10.429 15.2645 9.89647 15.4629 9.19585C15.5795 8.66718 15.5328 8.04319 15.2835 7.56483C15.2614 7.52123 15.2393 7.47764 15.2165 7.43272C14.9414 6.93526 14.569 6.60234 14.0648 6.34608C14.0249 6.325 13.985 6.30392 13.944 6.2822C13.3438 6.01357 12.5108 6.04002 11.932 6.34608Z" fill="black"/>
<path d="M15.2862 2.38503C16.899 2.93942 18.2377 4.18752 18.9897 5.70664C19.39 6.56343 19.609 7.46846 19.628 8.41213C19.6296 8.46014 19.6312 8.50816 19.6328 8.55762C19.6328 8.78843 19.6272 8.90149 19.49 9.09351C19.2999 9.223 19.1854 9.22619 18.9617 9.21452C18.773 9.17578 18.6943 9.09158 18.587 8.93582C18.5311 8.73412 18.5221 8.52696 18.506 8.31913C18.3903 6.86823 17.8467 5.63857 16.8097 4.61941C16.771 4.58085 16.7324 4.5423 16.6926 4.50257C16.1965 4.03456 15.5745 3.72888 14.9601 3.44549C14.6057 3.27862 14.6057 3.27862 14.5245 3.09597C14.4975 2.85284 14.4877 2.74741 14.6197 2.54055C14.8198 2.34638 15.0194 2.34281 15.2862 2.38503Z" fill="black"/>
<path d="M13.3047 2.03031C13.4634 2.12553 13.4634 2.12553 13.5586 2.28422C13.6088 2.53946 13.598 2.72628 13.4634 2.95072C13.2398 3.08484 13.0512 3.09772 12.7969 3.04594C12.6235 2.92563 12.5611 2.84408 12.4922 2.64604C12.4922 2.44148 12.5481 2.31099 12.6445 2.13187C12.8608 1.98768 13.051 1.99274 13.3047 2.03031Z" fill="black"/>
</g>
<defs>
<clipPath id="clip0_134_281">
<rect width="26" height="26" fill="white"/>
</clipPath>
</defs>
</svg>
