<?xml version="1.0" encoding="UTF-8"?>
<svg version="1.1" xmlns="http://www.w3.org/2000/svg" width="512" height="512">
<path d="M0 0 C8.90747702 5.95528464 13.98316714 15.34402565 16.42578125 25.55859375 C17.78803754 39.18115662 15.10101053 50.64879916 6.33642578 61.40380859 C3.0533066 65.29821769 -0.32687761 69.10477872 -3.70898438 72.91308594 C-5.80948731 75.30818771 -7.82182107 77.76867472 -9.82421875 80.24609375 C-13.23308863 84.45557894 -16.72570943 88.58120346 -20.26171875 92.68359375 C-23.81629367 96.80823675 -27.32964173 100.95567279 -30.76171875 105.18359375 C-35.14884777 110.58435547 -39.67395287 115.85827075 -44.2109375 121.1328125 C-50.45599196 128.39390378 -56.65803025 135.68912804 -62.69921875 143.12109375 C-67.1108493 148.53929954 -71.65495517 153.83630225 -76.2109375 159.1328125 C-82.45599196 166.39390378 -88.65803025 173.68912804 -94.69921875 181.12109375 C-99.10443487 186.53142156 -103.64157843 191.82097178 -108.19140625 197.109375 C-111.23000505 200.64215712 -114.2502111 204.19020211 -117.26171875 207.74609375 C-117.70628418 208.26993652 -118.15084961 208.7937793 -118.60888672 209.33349609 C-120.59107158 211.67621591 -122.50693334 214.01751285 -124.32421875 216.4921875 C-126.26171875 218.68359375 -126.26171875 218.68359375 -130.26171875 219.68359375 C-130.26171875 275.78359375 -130.26171875 331.88359375 -130.26171875 389.68359375 C-119.70171875 389.68359375 -109.14171875 389.68359375 -98.26171875 389.68359375 C-94.26171875 394.68359375 -94.26171875 394.68359375 -93.76171875 397.68359375 C-94.4000965 401.51386026 -95.46988881 402.99243345 -98.26171875 405.68359375 C-101.65332031 406.2512207 -101.65332031 406.2512207 -105.65234375 406.171875 C-106.3569574 406.16480026 -107.06157104 406.15772552 -107.78753662 406.1504364 C-110.03002766 406.12252732 -112.26998746 406.05980662 -114.51171875 405.99609375 C-116.03512009 405.97100586 -117.55856072 405.94819353 -119.08203125 405.92773438 C-122.80941124 405.87271588 -126.53531781 405.78647179 -130.26171875 405.68359375 C-130.24077148 406.5964917 -130.21982422 407.50938965 -130.19824219 408.44995117 C-130.12989158 411.8512591 -130.07983546 415.25183274 -130.04199219 418.65356445 C-130.0219305 420.12308296 -129.99467397 421.59252216 -129.95996094 423.06176758 C-129.91119734 425.17939862 -129.88869714 427.29597062 -129.87109375 429.4140625 C-129.85014648 430.68660889 -129.82919922 431.95915527 -129.80761719 433.27026367 C-130.34271969 437.29245079 -131.32184307 438.92495656 -134.26171875 441.68359375 C-139.59007696 442.52936489 -139.59007696 442.52936489 -142.26171875 441.68359375 C-143.91171875 440.03359375 -145.56171875 438.38359375 -147.26171875 436.68359375 C-147.26171875 426.45359375 -147.26171875 416.22359375 -147.26171875 405.68359375 C-212.93171875 405.68359375 -278.60171875 405.68359375 -346.26171875 405.68359375 C-346.26171875 416.24359375 -346.26171875 426.80359375 -346.26171875 437.68359375 C-350.26171875 441.68359375 -350.26171875 441.68359375 -352.48046875 442.25 C-353.6096875 442.24806641 -353.6096875 442.24806641 -354.76171875 442.24609375 C-355.51453125 442.26800781 -356.26734375 442.28992188 -357.04296875 442.3125 C-360.40658623 441.35908026 -361.38661003 439.58219527 -363.26171875 436.68359375 C-363.71582031 433.27026367 -363.71582031 433.27026367 -363.65234375 429.4140625 C-363.64668396 428.73305984 -363.64102417 428.05205719 -363.63519287 427.35041809 C-363.61292356 425.1899073 -363.56275193 423.03109729 -363.51171875 420.87109375 C-363.49164122 419.4004147 -363.47339264 417.92970946 -363.45703125 416.45898438 C-363.41309201 412.86664125 -363.34413331 409.27528369 -363.26171875 405.68359375 C-364.17985352 405.6993042 -365.09798828 405.71501465 -366.04394531 405.73120117 C-369.45822824 405.78240245 -372.87210179 405.81997854 -376.28662109 405.84838867 C-377.76292366 405.86345298 -379.23918163 405.88390857 -380.71533203 405.90991211 C-382.84028133 405.94640114 -384.96463776 405.96334308 -387.08984375 405.9765625 C-388.36762695 405.99227295 -389.64541016 406.0079834 -390.96191406 406.02416992 C-394.47127007 405.66196575 -395.85237609 405.21603351 -398.26171875 402.68359375 C-399.36545253 398.71015214 -399.67715458 396.59359603 -397.94921875 392.80859375 C-396.26171875 390.68359375 -396.26171875 390.68359375 -394.26171875 389.68359375 C-384.03171875 389.68359375 -373.80171875 389.68359375 -363.26171875 389.68359375 C-363.26171875 324.01359375 -363.26171875 258.34359375 -363.26171875 190.68359375 C-372.50171875 190.68359375 -381.74171875 190.68359375 -391.26171875 190.68359375 C-397.62535511 188.1381392 -397.62535511 188.1381392 -399.26171875 184.68359375 C-399.40360689 181.8742086 -399.25405696 179.32440637 -398.26171875 176.68359375 C-395.81434997 174.22986234 -394.45204229 173.70323723 -390.96191406 173.34301758 C-389.68413086 173.35872803 -388.40634766 173.37443848 -387.08984375 173.390625 C-386.06621735 173.39699226 -386.06621735 173.39699226 -385.02191162 173.40348816 C-382.85143871 173.42022403 -380.68190896 173.45786416 -378.51171875 173.49609375 C-377.03647178 173.51114729 -375.5612102 173.52483453 -374.0859375 173.53710938 C-370.47756031 173.57010998 -366.86973165 173.62185608 -363.26171875 173.68359375 C-363.2774292 172.80098877 -363.29313965 171.91838379 -363.30932617 171.0090332 C-363.36059873 167.71958489 -363.39813792 164.43056414 -363.42651367 161.14086914 C-363.44155635 159.71990234 -363.46199579 158.29898162 -363.48803711 156.87817383 C-363.52462222 154.83012489 -363.54148972 152.78269225 -363.5546875 150.734375 C-363.57039795 149.50372314 -363.5861084 148.27307129 -363.60229492 147.00512695 C-363.23309034 143.40438984 -362.43090038 141.54825832 -360.26171875 138.68359375 C-357.12300687 137.11423781 -354.72316053 137.33158272 -351.26171875 137.68359375 C-346.26171875 142.68359375 -346.26171875 142.68359375 -346.26171875 173.68359375 C-294.78171875 173.68359375 -243.30171875 173.68359375 -190.26171875 173.68359375 C-189.93171875 171.70359375 -189.60171875 169.72359375 -189.26171875 167.68359375 C-188.2734375 165.83984375 -188.2734375 165.83984375 -186.94921875 164.18359375 C-186.41296875 163.50941406 -185.87671875 162.83523437 -185.32421875 162.140625 C-181.67615977 157.79473655 -177.98318888 153.48858817 -174.2734375 149.1953125 C-171.71921515 146.23100491 -169.22646607 143.22299983 -166.76171875 140.18359375 C-162.82793305 135.33762586 -158.77724116 130.60260847 -154.703125 125.875 C-151.67213591 122.35041472 -148.69179294 118.79310543 -145.76171875 115.18359375 C-141.82793305 110.33762586 -137.77724116 105.60260847 -133.703125 100.875 C-130.67213591 97.35041472 -127.69179294 93.79310543 -124.76171875 90.18359375 C-120.37458973 84.78283203 -115.84948463 79.50891675 -111.3125 74.234375 C-105.06744554 66.97328372 -98.86540725 59.67805946 -92.82421875 52.24609375 C-88.4125882 46.82788796 -83.86848233 41.53088525 -79.3125 36.234375 C-76.3867264 32.83259374 -73.47496837 29.41923388 -70.57421875 25.99609375 C-69.89516479 25.19546509 -69.89516479 25.19546509 -69.20239258 24.37866211 C-66.27541994 20.9158471 -63.41629976 17.4042287 -60.57421875 13.87109375 C-44.5299704 -5.63145548 -22.96188011 -13.36468669 0 0 Z M-45.26171875 22.68359375 C-41.57482857 27.64182538 -37.26556433 31.25762744 -32.44921875 35.10546875 C-28.21699716 38.49660326 -24.13201544 42.05944717 -20.03344727 45.60986328 C-17.17830094 48.07464959 -14.32232562 50.47273768 -11.26171875 52.68359375 C-6.71962839 51.16956363 -4.56350469 47.65498498 -2.26171875 43.68359375 C0.57218486 36.85646234 0.11780696 30.16525387 -2.57421875 23.37109375 C-3.13109375 22.48421875 -3.68796875 21.59734375 -4.26171875 20.68359375 C-4.77734375 19.83796875 -5.29296875 18.99234375 -5.82421875 18.12109375 C-11.06570309 12.87960941 -16.98564972 10.38341012 -24.38671875 10.12109375 C-34.34567659 10.61840406 -39.3053492 15.01476796 -45.26171875 22.68359375 Z M-57.26171875 36.68359375 C-59.90171875 39.98359375 -62.54171875 43.28359375 -65.26171875 46.68359375 C-63.10830442 50.99042241 -60.56739998 53.25749938 -56.94921875 56.24609375 C-56.32982422 56.76623047 -55.71042969 57.28636719 -55.07226562 57.82226562 C-53.78118158 58.90625192 -52.48801865 59.98776659 -51.19287109 61.06689453 C-49.3351674 62.62210488 -47.49311638 64.19370205 -45.65625 65.7734375 C-45.08495361 66.26320068 -44.51365723 66.75296387 -43.92504883 67.25756836 C-42.84923813 68.17989484 -41.77476313 69.10378256 -40.7019043 70.02954102 C-37.36522808 72.86964608 -33.93938793 75.31937785 -30.26171875 77.68359375 C-27.29171875 74.05359375 -24.32171875 70.42359375 -21.26171875 66.68359375 C-25.25826992 62.66088364 -25.25826992 62.66088364 -29.42578125 58.88671875 C-29.98523438 58.4071875 -30.5446875 57.92765625 -31.12109375 57.43359375 C-31.70375 56.93859375 -32.28640625 56.44359375 -32.88671875 55.93359375 C-33.49773437 55.4128125 -34.10875 54.89203125 -34.73828125 54.35546875 C-45.57450733 44.95429533 -45.57450733 44.95429533 -57.26171875 36.68359375 Z M-78.26171875 61.68359375 C-80.1511418 63.7064592 -81.93253814 65.74469309 -83.69921875 67.87109375 C-84.23200439 68.50313721 -84.76479004 69.13518066 -85.3137207 69.78637695 C-86.4230475 71.10303615 -87.53003031 72.42167348 -88.63476562 73.7421875 C-90.1431229 75.54207601 -91.66064091 77.3335513 -93.18359375 79.12109375 C-97.40668546 84.0805649 -101.59030303 89.0662406 -105.69921875 94.12109375 C-110.1108493 99.53929954 -114.65495517 104.83630225 -119.2109375 110.1328125 C-125.45599196 117.39390378 -131.65803025 124.68912804 -137.69921875 132.12109375 C-142.10326907 137.52998977 -146.63928486 142.81811414 -151.1875 148.10546875 C-154.24635176 151.66195605 -157.29000983 155.23106637 -160.32421875 158.80859375 C-160.77716309 159.34081543 -161.23010742 159.87303711 -161.69677734 160.42138672 C-166.23853682 165.00791923 -166.23853682 165.00791923 -168.26171875 170.68359375 C-166.64714796 172.11940849 -164.969528 173.48504158 -163.26171875 174.80859375 C-161.86953125 175.89527344 -161.86953125 175.89527344 -160.44921875 177.00390625 C-159.72734375 177.55820313 -159.00546875 178.1125 -158.26171875 178.68359375 C-153.29362647 174.98937128 -149.67342978 170.66827606 -145.81640625 165.84375 C-143.04588178 162.38659831 -140.15768558 159.03575886 -137.26171875 155.68359375 C-132.94170047 150.6710431 -128.71072644 145.59819454 -124.5390625 140.4609375 C-121.51751931 136.77600232 -118.43135924 133.14791054 -115.34521484 129.51708984 C-112.46614032 126.123859 -109.62960383 122.70082655 -106.82421875 119.24609375 C-102.86663687 114.3823035 -98.79629429 109.62478144 -94.70336914 104.87524414 C-90.93551691 100.49389522 -87.26646408 96.04109989 -83.62890625 91.55078125 C-81.82420488 89.36488884 -79.99967537 87.20885642 -78.14453125 85.06640625 C-77.60505859 84.44314453 -77.06558594 83.81988281 -76.50976562 83.17773438 C-75.45456532 81.9625398 -74.39613968 80.75013582 -73.33398438 79.54101562 C-70.61183373 76.40674656 -68.27526895 73.3408584 -66.26171875 69.68359375 C-67.88189717 68.34440569 -69.50801218 67.01239685 -71.13671875 65.68359375 C-72.49410156 64.56984375 -72.49410156 64.56984375 -73.87890625 63.43359375 C-76.03764715 61.48628164 -76.03764715 61.48628164 -78.26171875 61.68359375 Z M-54.26171875 81.68359375 C-55.63663174 83.19146536 -56.93536337 84.76899136 -58.19921875 86.37109375 C-59.00488281 87.37785156 -59.81054688 88.38460937 -60.640625 89.421875 C-61.06875488 89.9576416 -61.49688477 90.4934082 -61.93798828 91.04541016 C-64.12664122 93.75397917 -66.38100862 96.40583363 -68.63671875 99.05859375 C-69.09602783 99.60008057 -69.55533691 100.14156738 -70.02856445 100.69946289 C-71.91028718 102.91731263 -73.79408377 105.13339701 -75.67773438 107.34960938 C-80.41575537 112.92645013 -85.14014664 118.50942159 -89.76171875 124.18359375 C-95.30363973 130.98773161 -100.99480798 137.66335253 -106.67773438 144.34960938 C-112.16323554 150.80626428 -117.59780562 157.29520677 -122.9453125 163.8671875 C-125.5395911 167.0214453 -128.17776548 170.13563718 -130.82421875 173.24609375 C-135.41221401 178.64029395 -139.87908581 184.12053818 -144.26171875 189.68359375 C-141.09219028 192.94368018 -137.86233886 195.90597252 -134.26171875 198.68359375 C-129.95415316 197.10517137 -127.53058279 193.79843762 -124.69921875 190.37109375 C-124.17545654 189.74807373 -123.65169434 189.12505371 -123.11206055 188.4831543 C-122.0242187 187.18857179 -120.93903488 185.89175134 -119.85644531 184.59277344 C-118.36299111 182.80483531 -116.85854974 181.02711481 -115.34765625 179.25390625 C-111.12127994 174.2923796 -106.93546444 169.30381326 -102.82421875 164.24609375 C-98.4125882 158.82788796 -93.86848233 153.53088525 -89.3125 148.234375 C-83.06744554 140.97328372 -76.86540725 133.67805946 -70.82421875 126.24609375 C-67.36897436 121.99966639 -63.83466307 117.83070114 -60.26171875 113.68359375 C-55.16245123 107.7630383 -50.13729495 101.79100342 -45.26171875 95.68359375 C-44.68550781 94.96429688 -44.10929687 94.245 -43.515625 93.50390625 C-42.07262588 91.77748323 -42.07262588 91.77748323 -42.26171875 89.68359375 C-44.4343653 87.63903316 -44.4343653 87.63903316 -47.13671875 85.55859375 C-48.49410156 84.47191406 -48.49410156 84.47191406 -49.87890625 83.36328125 C-52.04827686 81.49154141 -52.04827686 81.49154141 -54.26171875 81.68359375 Z M-176.26171875 186.68359375 C-177.58724275 190.1428069 -177.58724275 190.1428069 -177.26171875 193.68359375 C-174.364456 197.19987519 -170.81681832 199.85822514 -167.26171875 202.68359375 C-166.30265625 203.5446875 -165.34359375 204.40578125 -164.35546875 205.29296875 C-163.41703125 206.123125 -162.47859375 206.95328125 -161.51171875 207.80859375 C-160.650625 208.57429688 -159.78953125 209.34 -158.90234375 210.12890625 C-156.31156003 211.97583761 -156.31156003 211.97583761 -153.05859375 211.55078125 C-150.15655546 210.88908358 -150.15655546 210.88908358 -148.26171875 208.68359375 C-149.04933594 208.01714844 -149.83695313 207.35070312 -150.6484375 206.6640625 C-151.16881592 206.22360596 -151.68919434 205.78314941 -152.2253418 205.3293457 C-153.3838168 204.34937528 -154.54284263 203.37005568 -155.70239258 202.39135742 C-158.79780701 199.77710848 -161.88304245 197.1524143 -164.94921875 194.50390625 C-165.53614502 193.99964111 -166.12307129 193.49537598 -166.7277832 192.97583008 C-167.86251361 192.00042219 -168.993953 191.02117072 -170.12182617 190.0378418 C-172.80877615 187.47062305 -172.80877615 187.47062305 -176.26171875 186.68359375 Z M-346.26171875 190.68359375 C-346.26171875 212.13359375 -346.26171875 233.58359375 -346.26171875 255.68359375 C-324.15171875 255.68359375 -302.04171875 255.68359375 -279.26171875 255.68359375 C-275.52791929 244.33346007 -275.52791929 244.33346007 -271.796875 232.98242188 C-270.27673244 228.35559446 -268.75626127 223.72887678 -267.23388672 219.1027832 C-266.00714913 215.37498468 -264.78184085 211.64671921 -263.55754089 207.91811943 C-263.08916065 206.49252885 -262.62025726 205.06711005 -262.15083313 203.64186287 C-261.49567229 201.6523945 -260.84233989 199.66233475 -260.18945312 197.67211914 C-259.81639038 196.53738663 -259.44332764 195.40265411 -259.05895996 194.23353577 C-258.21198441 191.9697982 -258.21198441 191.9697982 -258.26171875 190.68359375 C-287.30171875 190.68359375 -316.34171875 190.68359375 -346.26171875 190.68359375 Z M-234.26171875 190.68359375 C-232.57002155 198.3194982 -232.57002155 198.3194982 -230.39819336 205.73828125 C-230.04119858 206.83551514 -229.6842038 207.93274902 -229.31639099 209.06323242 C-228.93612259 210.21670166 -228.55585419 211.3701709 -228.1640625 212.55859375 C-227.76973526 213.76427002 -227.37540802 214.96994629 -226.96913147 216.2121582 C-226.13991726 218.74419022 -225.30908498 221.27561567 -224.4753418 223.80615234 C-223.40546407 227.05393319 -222.34219985 230.30383396 -221.2809515 233.55444336 C-220.26594887 236.66102001 -219.24611683 239.7660085 -218.2265625 242.87109375 C-217.84426987 244.04075684 -217.46197723 245.21041992 -217.06809998 246.41552734 C-216.71425735 247.48754395 -216.36041473 248.55956055 -215.99584961 249.6640625 C-215.68433456 250.61176514 -215.37281952 251.55946777 -215.05186462 252.53588867 C-214.45003174 254.63510504 -214.45003174 254.63510504 -213.26171875 255.68359375 C-211.20615214 255.77773062 -209.14731694 255.80102373 -207.08959961 255.79711914 C-206.44571793 255.79726517 -205.80183624 255.79741119 -205.13844299 255.79756165 C-203.00111572 255.7968626 -200.86387462 255.78907066 -198.7265625 255.78125 C-197.2482559 255.77938579 -195.76994868 255.7779619 -194.29164124 255.77696228 C-190.39373073 255.77313734 -186.49585726 255.76330727 -182.59796143 255.7522583 C-178.62325542 255.74204367 -174.64854346 255.73746455 -170.67382812 255.73242188 C-162.86977279 255.72168497 -155.06575567 255.70408837 -147.26171875 255.68359375 C-147.26171875 246.44359375 -147.26171875 237.20359375 -147.26171875 227.68359375 C-158.20093065 231.88546116 -158.20093065 231.88546116 -168.94140625 236.48828125 C-170.46186386 237.16100608 -171.98270824 237.83285733 -173.50390625 238.50390625 C-175.837854 239.53605834 -178.16897937 240.5731872 -180.49414062 241.625 C-182.78242543 242.6576814 -185.07940671 243.66836797 -187.37890625 244.67578125 C-188.06757782 244.99336395 -188.75624939 245.31094666 -189.46578979 245.63815308 C-194.1242091 247.64980964 -197.35014821 247.96450685 -202.26171875 246.68359375 C-204.26171875 244.62109375 -204.26171875 244.62109375 -205.26171875 241.68359375 C-204.75479854 235.55477303 -203.43358584 229.71429748 -201.9765625 223.75 C-201.756017 222.83145737 -201.5354715 221.91291473 -201.3082428 220.96653748 C-200.6093129 218.05872228 -199.9045224 215.15236887 -199.19921875 212.24609375 C-198.49147575 209.31456418 -197.78494957 206.38274653 -197.07948303 203.45066833 C-196.64147109 201.63181743 -196.20192614 199.81333491 -195.76072693 197.99525452 C-194.72170362 194.37735405 -194.72170362 194.37735405 -194.26171875 190.68359375 C-207.46171875 190.68359375 -220.66171875 190.68359375 -234.26171875 190.68359375 Z M-247.26171875 209.68359375 C-247.45328552 210.27304276 -247.64485229 210.86249176 -247.84222412 211.46980286 C-249.85183785 217.65208288 -251.86413372 223.83348536 -253.87792969 230.0144043 C-254.62730413 232.31561639 -255.37601393 234.61704504 -256.12402344 236.91870117 C-257.20459506 240.24325988 -258.28762232 243.56701037 -259.37109375 246.890625 C-259.70042908 247.90566605 -260.0297644 248.92070709 -260.36907959 249.96650696 C-261.31937242 252.87705911 -262.28648346 255.78131151 -263.26171875 258.68359375 C-263.76983093 260.22290054 -263.76983093 260.22290054 -264.28820801 261.79330444 C-264.62783569 262.7840799 -264.96746338 263.77485535 -265.31738281 264.7956543 C-265.61872131 265.68697556 -265.92005981 266.57829681 -266.23052979 267.49662781 C-267.26171875 269.68359375 -267.26171875 269.68359375 -270.26171875 271.68359375 C-273.01420593 271.96206665 -273.01420593 271.96206665 -276.38549805 272.00244141 C-277.64657883 272.0223111 -278.90765961 272.04218079 -280.20695496 272.06265259 C-281.58328069 272.07452897 -282.95960828 272.08619183 -284.3359375 272.09765625 C-285.74413694 272.11636664 -287.15232515 272.13593996 -288.5605011 272.15634155 C-292.26430648 272.20768268 -295.96814821 272.2472976 -299.67211914 272.28448486 C-303.45272835 272.32451222 -307.23318607 272.37561031 -311.01367188 272.42578125 C-318.42958359 272.52256392 -325.84556855 272.60696101 -333.26171875 272.68359375 C-330.80316285 275.17307701 -328.41680347 277.42912922 -325.56640625 279.4609375 C-324.8592749 279.96802246 -324.15214355 280.47510742 -323.42358398 280.99755859 C-322.66891846 281.5333252 -321.91425293 282.0690918 -321.13671875 282.62109375 C-319.52080224 283.77860243 -317.90491777 284.93615584 -316.2890625 286.09375 C-315.46003418 286.68559082 -314.63100586 287.27743164 -313.77685547 287.88720703 C-285.17265142 308.31719474 -285.17265142 308.31719474 -282.26171875 312.68359375 C-282.5381886 319.75016309 -284.85574145 326.11666479 -287.11328125 332.76953125 C-287.68071548 334.47672836 -287.68071548 334.47672836 -288.25961304 336.21841431 C-289.46160648 339.83420303 -290.67297928 343.44673224 -291.88671875 347.05859375 C-293.49150652 351.83447747 -295.08666726 356.61341269 -296.67578125 361.39453125 C-297.04965973 362.49654877 -297.42353821 363.59856628 -297.80874634 364.73397827 C-298.14594696 365.74908478 -298.48314758 366.76419128 -298.83056641 367.81005859 C-299.13177399 368.70526215 -299.43298157 369.6004657 -299.74331665 370.52279663 C-300.51428821 372.7147353 -300.51428821 372.7147353 -299.26171875 374.68359375 C-298.81070801 374.35786377 -298.35969727 374.03213379 -297.89501953 373.6965332 C-296.52198553 372.70489754 -295.14893722 371.71328169 -293.77587891 370.72167969 C-292.16347152 369.55710832 -290.55116929 368.39239135 -288.93896484 367.22753906 C-284.78853618 364.22906939 -280.63665281 361.23267566 -276.48046875 358.2421875 C-275.71645752 357.69159668 -274.95244629 357.14100586 -274.1652832 356.57373047 C-272.6499942 355.48300814 -271.13290912 354.39477655 -269.61401367 353.30908203 C-266.26603724 350.90591746 -262.96713225 348.48260264 -259.78125 345.8671875 C-258.76417969 345.04347656 -257.74710937 344.21976563 -256.69921875 343.37109375 C-255.85230469 342.65308594 -255.00539063 341.93507813 -254.1328125 341.1953125 C-250.04984287 339.045504 -246.77563796 338.71097103 -242.26171875 339.68359375 C-238.95377209 341.35417434 -236.19487109 343.54233786 -233.32421875 345.87109375 C-231.65974518 347.16000563 -229.99435738 348.44773762 -228.328125 349.734375 C-227.48910645 350.39260254 -226.65008789 351.05083008 -225.78564453 351.72900391 C-221.85159349 354.77562923 -217.80924338 357.66547934 -213.76171875 360.55859375 C-212.28475006 361.62183181 -210.808174 362.68561555 -209.33203125 363.75 C-208.64270508 364.2464502 -207.95337891 364.74290039 -207.24316406 365.25439453 C-202.90556649 368.38306582 -198.58329408 371.53284169 -194.26171875 374.68359375 C-193.00688793 372.71000219 -193.00688793 372.71000219 -193.78684998 370.49156189 C-194.09107376 369.58160965 -194.39529755 368.67165741 -194.70874023 367.73413086 C-195.04916855 366.70223129 -195.38959686 365.67033173 -195.74034119 364.60716248 C-196.30586449 362.92603111 -196.30586449 362.92603111 -196.8828125 361.2109375 C-197.66111734 358.84320085 -198.43910183 356.47535888 -199.21679688 354.10742188 C-200.45416082 350.36886235 -201.69565235 346.63176777 -202.94360352 342.89672852 C-204.14324784 339.29684021 -205.32638078 335.69183689 -206.5078125 332.0859375 C-206.8828038 330.97935287 -207.2577951 329.87276825 -207.64414978 328.73265076 C-209.68684757 322.4664875 -210.84281841 317.28188671 -210.26171875 310.68359375 C-208.56640625 308.40625 -208.56640625 308.40625 -206.13671875 306.74609375 C-205.21632812 306.09125 -204.2959375 305.43640625 -203.34765625 304.76171875 C-202.32929688 304.0759375 -201.3109375 303.39015625 -200.26171875 302.68359375 C-198.66122398 301.53187295 -197.06083982 300.3799883 -195.46386719 299.22338867 C-193.71358887 297.96139081 -191.95391092 296.71360752 -190.19140625 295.46875 C-185.73640995 292.31818578 -181.31054568 289.12771735 -176.88671875 285.93359375 C-176.15001953 285.40290283 -175.41332031 284.87221191 -174.65429688 284.32543945 C-172.51912135 282.78398327 -170.38885674 281.2361206 -168.26171875 279.68359375 C-167.49698242 279.12607422 -166.73224609 278.56855469 -165.94433594 277.99414062 C-165.21118164 277.45337891 -164.47802734 276.91261719 -163.72265625 276.35546875 C-163.0579834 275.8665918 -162.39331055 275.37771484 -161.70849609 274.87402344 C-161.23105957 274.48118164 -160.75362305 274.08833984 -160.26171875 273.68359375 C-160.26171875 273.35359375 -160.26171875 273.02359375 -160.26171875 272.68359375 C-161.43229828 272.67812531 -161.43229828 272.67812531 -162.62652588 272.67254639 C-169.98363146 272.63466801 -177.34023056 272.57781803 -184.69701004 272.49969101 C-188.4791766 272.46019369 -192.26110958 272.42801664 -196.04345703 272.41259766 C-199.6941951 272.39744535 -203.34429109 272.36302679 -206.99474335 272.31528473 C-208.3869239 272.30045591 -209.77919612 272.29255187 -211.17145538 272.2917099 C-213.1225504 272.28934341 -215.07355611 272.2599982 -217.02441406 272.22949219 C-218.13471985 272.22060974 -219.24502563 272.21172729 -220.38897705 272.20257568 C-223.99516724 271.55109088 -225.07667886 270.59316454 -227.26171875 267.68359375 C-228.46405029 265.00067139 -228.46405029 265.00067139 -229.45996094 261.90527344 C-229.8400531 260.74437195 -230.22014526 259.58347046 -230.61175537 258.38739014 C-231.00671204 257.13935608 -231.4016687 255.89132202 -231.80859375 254.60546875 C-232.22779791 253.31046659 -232.64808176 252.01581347 -233.06939697 250.72149658 C-234.17174649 247.32518295 -235.25942002 243.92434433 -236.34405518 240.52233887 C-237.45488201 237.04718428 -238.57959183 233.5765316 -239.703125 230.10546875 C-241.90289418 223.30250769 -244.08718311 216.49466676 -246.26171875 209.68359375 C-246.59171875 209.68359375 -246.92171875 209.68359375 -247.26171875 209.68359375 Z M-182.26171875 212.68359375 C-183.25171875 216.64359375 -184.24171875 220.60359375 -185.26171875 224.68359375 C-183.83859375 224.20921875 -182.41546875 223.73484375 -180.94921875 223.24609375 C-177.10546875 221.96484375 -177.10546875 221.96484375 -173.26171875 220.68359375 C-174.60775357 216.6454893 -176.91508598 215.21064299 -180.26171875 212.68359375 C-180.92171875 212.68359375 -181.58171875 212.68359375 -182.26171875 212.68359375 Z M-346.26171875 285.68359375 C-346.26171875 320.00359375 -346.26171875 354.32359375 -346.26171875 389.68359375 C-338.67171875 389.68359375 -331.08171875 389.68359375 -323.26171875 389.68359375 C-321.45318177 384.86082847 -319.69518059 380.10382095 -318.08520508 375.22338867 C-317.68501663 374.01241013 -317.28482819 372.80143158 -316.87251282 371.55375671 C-316.44609043 370.25724726 -316.01984017 368.96068118 -315.59375 367.6640625 C-315.14965088 366.31504226 -314.70553333 364.96602808 -314.26139832 363.61701965 C-313.33649337 360.80604758 -312.4130741 357.99459214 -311.49047852 355.18286133 C-310.30765811 351.57907844 -309.11914836 347.97719878 -307.9293108 344.37572765 C-307.01270197 341.59808036 -306.10006939 338.81913867 -305.18854332 336.03981972 C-304.7518205 334.71046445 -304.31362932 333.38159063 -303.87394142 332.05321312 C-303.26179114 330.20246347 -302.65577333 328.34968884 -302.05004883 326.49682617 C-301.70379959 325.4439592 -301.35755035 324.39109222 -301.00080872 323.30632019 C-300.12609973 320.65648356 -300.12609973 320.65648356 -300.26171875 317.68359375 C-302.65827355 315.77801049 -305.0352657 314.06891273 -307.57421875 312.37109375 C-309.13284395 311.30141967 -310.690083 310.22972366 -312.24609375 309.15625 C-313.06529297 308.59309082 -313.88449219 308.02993164 -314.72851562 307.44970703 C-318.98536558 304.48189163 -323.15432043 301.39684071 -327.32421875 298.30859375 C-328.09612549 297.73842529 -328.86803223 297.16825684 -329.66333008 296.58081055 C-330.78130981 295.75383667 -330.78130981 295.75383667 -331.921875 294.91015625 C-332.64133301 294.3780957 -333.36079102 293.84603516 -334.10205078 293.29785156 C-335.585659 292.18891899 -337.06017743 291.06775301 -338.52685547 289.93652344 C-339.24244629 289.38641602 -339.95803711 288.83630859 -340.6953125 288.26953125 C-341.3339624 287.77243652 -341.9726123 287.2753418 -342.63061523 286.76318359 C-344.21367851 285.49961642 -344.21367851 285.49961642 -346.26171875 285.68359375 Z M-154.19921875 289.87109375 C-154.81458496 290.31380615 -155.42995117 290.75651855 -156.06396484 291.21264648 C-157.41141674 292.18268476 -158.7580571 293.15385103 -160.10400391 294.12597656 C-162.32483168 295.72915388 -164.54889191 297.32776756 -166.7734375 298.92578125 C-173.65015998 303.87084011 -180.51870072 308.82829927 -187.32421875 313.87109375 C-188.26394531 314.56589844 -189.20367187 315.26070313 -190.171875 315.9765625 C-192.34922039 317.51709761 -192.34922039 317.51709761 -193.26171875 319.68359375 C-192.7380802 322.02888237 -192.7380802 322.02888237 -191.80224609 324.72143555 C-191.45793549 325.77401047 -191.11362488 326.82658539 -190.75888062 327.91105652 C-190.37567657 329.05673599 -189.99247253 330.20241547 -189.59765625 331.3828125 C-189.20857086 332.56518997 -188.81948547 333.74756744 -188.41860962 334.96577454 C-187.37697362 338.1265038 -186.32889921 341.28495007 -185.27770996 344.44250488 C-184.22919052 347.59724848 -183.18928182 350.75482678 -182.1484375 353.91210938 C-179.86254151 360.83916552 -177.56483045 367.76224457 -175.26171875 374.68359375 C-174.96575806 375.57322815 -174.66979736 376.46286255 -174.36486816 377.37945557 C-172.99969747 381.48169313 -171.63142391 385.58286422 -170.26171875 389.68359375 C-162.67171875 389.68359375 -155.08171875 389.68359375 -147.26171875 389.68359375 C-147.26171875 355.36359375 -147.26171875 321.04359375 -147.26171875 285.68359375 C-149.6269633 285.68359375 -152.28349453 288.48495549 -154.19921875 289.87109375 Z M-247.26171875 357.68359375 C-249.88778218 359.28193376 -252.29702103 360.9236689 -254.76171875 362.74609375 C-255.87329346 363.5496228 -255.87329346 363.5496228 -257.00732422 364.36938477 C-259.43418584 366.12915058 -261.84873326 367.90485709 -264.26171875 369.68359375 C-265.96219763 370.93104678 -267.66271869 372.17844231 -269.36328125 373.42578125 C-273.30919564 376.32493645 -277.2449048 379.23757566 -281.17675781 382.15576172 C-283.20495528 383.64199822 -285.25674524 385.08907392 -287.31640625 386.53125 C-288.77433594 387.59666016 -288.77433594 387.59666016 -290.26171875 388.68359375 C-290.26171875 389.01359375 -290.26171875 389.34359375 -290.26171875 389.68359375 C-261.55171875 389.68359375 -232.84171875 389.68359375 -203.26171875 389.68359375 C-207.49475288 385.41893452 -207.49475288 385.41893452 -212.0546875 381.80859375 C-212.75907959 381.30424805 -213.46347168 380.79990234 -214.18920898 380.28027344 C-214.93501221 379.75336914 -215.68081543 379.22646484 -216.44921875 378.68359375 C-218.04837861 377.5432513 -219.64733052 376.4026172 -221.24609375 375.26171875 C-222.06787109 374.67712891 -222.88964844 374.09253906 -223.73632812 373.49023438 C-226.28226934 371.66889205 -228.81304143 369.82825392 -231.33984375 367.98046875 C-232.15428955 367.38621094 -232.96873535 366.79195313 -233.80786133 366.1796875 C-235.37724973 365.03376959 -236.94485884 363.88541005 -238.51049805 362.734375 C-239.57651245 361.95900391 -239.57651245 361.95900391 -240.6640625 361.16796875 C-241.28788818 360.71131836 -241.91171387 360.25466797 -242.55444336 359.78417969 C-244.3835254 358.50508702 -244.3835254 358.50508702 -247.26171875 357.68359375 Z " fill="#000000" transform="translate(447.26171875,38.31640625)"/>
</svg>
