<svg width="512" height="512" viewBox="0 0 512 512" fill="none" xmlns="http://www.w3.org/2000/svg">
<g clip-path="url(#clip0_179_358)">
<path d="M89.7975 23.8684C91.5465 23.8626 91.5465 23.8626 93.3308 23.8567C95.2461 23.858 95.2461 23.858 97.2 23.8594C98.5734 23.8568 99.9469 23.8538 101.32 23.8504C105.094 23.8423 108.868 23.8405 112.641 23.8398C116.712 23.8379 120.782 23.8304 124.853 23.8236C133.754 23.8101 142.655 23.804 151.556 23.7996C157.116 23.7969 162.676 23.7926 168.235 23.7881C183.635 23.7759 199.034 23.7656 214.433 23.7622C215.419 23.762 216.404 23.7618 217.419 23.7616C218.407 23.7614 219.395 23.7611 220.413 23.7609C222.414 23.7605 224.416 23.76 226.418 23.7596C227.411 23.7594 228.404 23.7591 229.427 23.7589C245.507 23.755 261.587 23.7375 277.667 23.7142C294.184 23.6905 310.7 23.678 327.217 23.6769C336.487 23.676 345.758 23.6702 355.028 23.6521C362.924 23.6366 370.82 23.6316 378.716 23.6398C382.742 23.6437 386.767 23.6428 390.793 23.6287C394.485 23.6159 398.177 23.6172 401.869 23.6293C403.823 23.6322 405.778 23.6204 407.732 23.6079C423.319 23.6946 437.56 28.0563 449 38.9998C463.333 55.6106 464.275 73.0361 465 93.9998C465.658 93.7832 466.316 93.5667 466.994 93.3436C475.794 90.5543 482.652 90.2196 491.25 94.0623C498.776 98.2142 503.078 103.987 506 112C507.83 123.545 505.073 131.77 499.343 141.652C497.854 144.254 496.439 146.888 495.031 149.535C489.052 160.753 482.879 171.859 476.577 182.898C475.596 184.62 474.625 186.349 473.668 188.084C472.575 189.994 471.42 191.869 470.198 193.699C464.057 203.516 464.02 211.99 464.145 223.277C464.14 225.191 464.132 227.104 464.122 229.018C464.102 234.179 464.124 239.34 464.154 244.501C464.177 249.922 464.159 255.343 464.145 260.764C464.124 271.027 464.137 281.289 464.163 291.553C464.209 309.925 464.193 328.297 464.172 346.669C464.166 353.108 464.173 359.546 464.191 365.985C464.201 369.998 464.204 374.012 464.204 378.026C464.206 379.877 464.212 381.728 464.221 383.579C464.346 408.985 464.346 408.985 458.25 420.312C457.892 420.996 457.535 421.68 457.168 422.384C450.639 434.567 440.799 441.849 428 447C421.599 448.845 415.514 449.283 408.882 449.24C407.412 449.243 407.412 449.243 405.913 449.245C402.652 449.249 399.391 449.238 396.13 449.227C393.784 449.226 391.438 449.227 389.092 449.228C382.737 449.228 376.383 449.217 370.028 449.203C364.055 449.191 358.083 449.189 352.11 449.187C340.285 449.183 328.461 449.17 316.636 449.151C305.154 449.132 293.672 449.118 282.19 449.11C281.481 449.109 280.773 449.109 280.043 449.108C276.488 449.105 272.933 449.103 269.378 449.1C239.919 449.08 210.459 449.044 181 449C181.02 449.958 181.041 450.915 181.063 451.902C181.136 455.488 181.182 459.073 181.219 462.659C181.239 464.205 181.266 465.751 181.301 467.297C181.678 484.467 181.678 484.467 175.289 492.023C174.739 492.469 174.19 492.915 173.625 493.375C173.081 493.836 172.537 494.298 171.976 494.773C165.656 498.695 159.063 498.29 151.879 498.274C150.053 498.282 150.053 498.282 148.191 498.29C144.865 498.301 141.538 498.304 138.212 498.301C135.428 498.3 132.645 498.305 129.862 498.31C123.293 498.321 116.723 498.322 110.153 498.315C103.39 498.309 96.6274 498.322 89.8643 498.343C84.045 498.361 78.2257 498.367 72.4064 498.363C68.9364 498.362 65.4666 498.364 61.9967 498.378C58.124 498.393 54.2516 498.384 50.3789 498.372C49.2389 498.38 48.0989 498.387 46.9244 498.395C39.3309 498.345 33.8146 497.341 27.2495 493.312C21.317 487.215 20.4111 480.814 20.482 472.58C20.475 471.567 20.468 470.555 20.4607 469.512C20.4432 466.185 20.4548 462.858 20.4683 459.531C20.4656 457.208 20.4617 454.884 20.4567 452.56C20.4508 447.699 20.4593 442.837 20.4781 437.975C20.5009 431.754 20.4877 425.534 20.4638 419.313C20.4493 414.518 20.4539 409.722 20.4643 404.926C20.4669 402.633 20.4637 400.34 20.4544 398.047C20.4442 394.837 20.4598 391.629 20.482 388.42C20.4739 387.479 20.4658 386.539 20.4574 385.57C20.5465 378.6 22.0855 373.109 26.9292 367.941C27.5712 367.486 28.2131 367.031 28.8745 366.562C29.5113 366.089 30.1481 365.616 30.8042 365.129C33.4985 363.743 36.0188 363.447 38.9995 363C38.998 362.376 38.9965 361.752 38.9949 361.109C38.9054 324.108 38.8368 287.106 38.7953 250.104C38.7903 245.659 38.7851 241.213 38.7798 236.767C38.7788 235.882 38.7777 234.997 38.7766 234.085C38.7592 219.766 38.7277 205.448 38.6909 191.129C38.6535 176.43 38.6313 161.731 38.6232 147.032C38.6177 137.966 38.6004 128.901 38.5679 119.835C38.5467 113.613 38.5404 107.391 38.5455 101.169C38.5481 97.5831 38.5443 93.9971 38.5227 90.4108C38.4995 86.5131 38.5076 82.6159 38.5185 78.7181C38.5069 77.5975 38.4952 76.4768 38.4832 75.3222C38.5903 61.0911 44.1114 49.0151 53.812 38.6873C63.4832 29.5927 76.4759 23.8849 89.7975 23.8684ZM55.9995 48.9998C48.2854 59.0788 46.5408 70.0193 46.6388 82.446C46.6362 83.6519 46.6337 84.8578 46.631 86.1002C46.627 89.4162 46.6362 92.7317 46.6513 96.0476C46.6644 99.6351 46.6599 103.222 46.6576 106.81C46.6561 113.015 46.6654 119.22 46.6824 125.425C46.7068 134.397 46.7146 143.368 46.7183 152.339C46.7249 166.897 46.7448 181.455 46.7732 196.013C46.8008 210.149 46.822 224.285 46.8348 238.421C46.8355 239.293 46.8363 240.166 46.8371 241.064C46.8411 245.441 46.8448 249.817 46.8486 254.193C46.8796 290.462 46.9327 326.731 46.9995 363C51.9495 363 56.8995 363 61.9995 363C62.0019 361.798 62.0043 360.596 62.0068 359.358C62.0642 330.804 62.1369 302.251 62.2285 273.698C62.2398 270.181 62.2509 266.663 62.262 263.146C62.2642 262.446 62.2664 261.746 62.2687 261.025C62.304 249.699 62.3289 238.373 62.3499 227.047C62.3717 215.419 62.405 203.791 62.4482 192.163C62.4722 185.635 62.4909 179.107 62.4972 172.578C62.5032 166.43 62.5232 160.283 62.5538 154.135C62.5626 151.882 62.5663 149.628 62.5646 147.375C62.5629 144.291 62.5796 141.208 62.6008 138.124C62.596 137.239 62.5911 136.353 62.5861 135.441C62.6718 127.849 63.8549 119.455 69.1245 113.625C69.6427 113.019 70.161 112.413 70.6949 111.789C78.4827 105.743 86.2628 105.424 95.8463 105.485C97.2412 105.48 98.636 105.473 100.031 105.464C103.845 105.446 107.659 105.452 111.473 105.462C115.594 105.469 119.715 105.453 123.835 105.44C131.901 105.419 139.966 105.419 148.031 105.427C154.588 105.433 161.145 105.432 167.702 105.426C168.636 105.425 169.57 105.424 170.532 105.423C172.429 105.421 174.327 105.419 176.224 105.417C194.009 105.401 211.793 105.409 229.578 105.426C245.841 105.441 262.103 105.426 278.365 105.398C295.074 105.368 311.783 105.357 328.492 105.367C330.382 105.368 332.273 105.369 334.164 105.37C335.094 105.37 336.024 105.371 336.983 105.371C343.529 105.373 350.075 105.363 356.621 105.349C364.603 105.331 372.584 105.332 380.566 105.354C384.636 105.365 388.706 105.369 392.776 105.35C396.506 105.333 400.236 105.34 403.966 105.364C405.945 105.371 407.925 105.354 409.904 105.336C419.246 105.433 426.641 107.372 433.375 114.125C436.802 118.516 438.38 123.732 440 129C441.001 127.668 442.001 126.334 443 125C443.713 124.05 443.713 124.05 444.442 123.082C453.341 110.693 456.162 99.7704 456 84.8123C455.996 84.0608 455.992 83.3092 455.988 82.5349C455.832 69.3773 453.226 58.5281 445 47.9998C444.521 47.3836 444.043 46.7675 443.55 46.1326C436.1 37.6876 424.899 33.5294 414 31.9998C409.494 31.7285 405.001 31.7295 400.488 31.7458C399.142 31.7435 397.796 31.7404 396.449 31.7364C392.774 31.7281 389.099 31.7322 385.424 31.7384C381.452 31.7429 377.479 31.7359 373.506 31.7304C365.733 31.7215 357.96 31.7234 350.187 31.7292C343.867 31.7338 337.548 31.7344 331.229 31.7322C330.328 31.7319 329.428 31.7316 328.5 31.7313C326.67 31.7306 324.841 31.73 323.011 31.7293C305.868 31.7236 288.726 31.7302 271.583 31.7409C256.884 31.7498 242.186 31.7483 227.487 31.7391C210.404 31.7284 193.321 31.7242 176.238 31.7303C174.416 31.7309 172.593 31.7316 170.77 31.7322C169.874 31.7325 168.977 31.7328 168.053 31.7331C161.744 31.7348 155.434 31.7319 149.125 31.7272C141.433 31.7216 133.74 31.7232 126.048 31.7338C122.126 31.739 118.204 31.7411 114.281 31.7345C110.686 31.7285 107.092 31.7319 103.497 31.7424C101.59 31.7457 99.683 31.7392 97.7762 31.7323C81.0495 31.8082 67.5193 36.3096 55.9995 48.9998ZM462.079 107.263C460.083 109.89 458.539 112.452 457.003 115.367C456.176 116.924 456.176 116.924 455.332 118.512C454.748 119.622 454.164 120.731 453.562 121.875C452.301 124.246 451.039 126.616 449.773 128.984C449.454 129.581 449.136 130.178 448.807 130.792C445.862 136.292 442.787 141.712 439.687 147.125C434.619 156.01 429.726 164.983 424.912 174.008C424.142 175.452 423.37 176.896 422.596 178.339C421.512 180.362 420.435 182.39 419.359 184.418C419.034 185.024 418.708 185.63 418.373 186.255C416.809 189.222 415.822 191.709 415 195C426.22 200.94 437.44 206.88 449 213C451.805 210.194 453.176 208.107 455.003 204.652C455.574 203.581 456.144 202.511 456.732 201.408C457.638 199.69 457.638 199.69 458.562 197.937C459.831 195.552 461.103 193.169 462.375 190.785C462.689 190.195 463.003 189.605 463.326 188.997C465.852 184.259 468.437 179.558 471.062 174.875C475.557 166.843 479.929 158.748 484.298 150.647C487.961 143.87 491.717 137.16 495.609 130.512C498.431 125.414 498.6 120.703 498 115C495.985 108.346 492.048 104.448 486.171 100.894C477.19 97.1953 468.118 100.145 462.079 107.263ZM74.6245 119.5C72.2488 123.155 70.7488 125.779 70.7534 130.193C70.7495 131.027 70.7455 131.86 70.7414 132.719C70.7472 133.63 70.753 134.54 70.759 135.478C70.7573 136.449 70.7556 137.421 70.7539 138.421C70.7506 141.684 70.7616 144.947 70.7725 148.21C70.7731 150.545 70.7727 152.881 70.7716 155.216C70.771 161.565 70.7828 167.914 70.7968 174.263C70.808 180.223 70.81 186.183 70.8121 192.143C70.8164 203.948 70.8297 215.754 70.8487 227.559C70.867 239.027 70.8812 250.494 70.8897 261.962C70.8902 262.669 70.8907 263.376 70.8913 264.104C70.8939 267.65 70.8964 271.197 70.8989 274.743C70.9196 304.162 70.9554 333.581 70.9995 363C81.2295 363 91.4595 363 102 363C102.66 359.7 103.32 356.4 104 353C106.449 349.862 108.399 348.212 112.382 347.683C113.287 347.602 114.192 347.521 115.125 347.437C116.035 347.354 116.945 347.27 117.882 347.183C118.581 347.123 119.28 347.062 120 347C120.495 343.04 120.495 343.04 121 339C124.75 337.875 124.75 337.875 127 339C127.593 341.648 127.742 344.292 128 347C128.819 347.086 129.639 347.173 130.484 347.262C139.24 348.403 139.24 348.403 142.625 351.062C143.86 353.701 144.487 355.859 145.085 358.683C145.259 359.492 145.432 360.301 145.61 361.134C145.739 361.75 145.867 362.366 146 363C147.278 363.026 148.557 363.051 149.875 363.078C151.583 363.134 153.291 363.192 155 363.25C155.839 363.264 156.678 363.278 157.543 363.293C162.891 363.5 166.53 364.477 171.191 367.087C173.764 368.386 176.144 368.607 179 368.75C179.948 368.807 180.897 368.863 181.875 368.922C182.576 368.947 183.277 368.973 184 369C184.33 370.65 184.66 372.3 185 374C183.35 374.66 181.7 375.32 180 376C180.33 389.53 180.66 403.06 181 417C210.928 417.09 240.857 417.162 270.786 417.204C274.321 417.209 277.855 417.214 281.39 417.22C282.094 417.221 282.798 417.222 283.523 417.223C294.911 417.24 306.3 417.272 317.688 417.308C329.377 417.346 341.066 417.368 352.755 417.376C359.319 417.381 365.883 417.394 372.447 417.423C378.626 417.45 384.805 417.458 390.984 417.452C393.251 417.453 395.518 417.461 397.785 417.477C400.883 417.497 403.98 417.492 407.078 417.481C407.973 417.492 408.868 417.504 409.79 417.516C416.275 417.455 421.569 416.012 426.527 411.659C432.065 405.613 432.293 398.498 432.227 390.76C432.227 389.412 432.227 389.412 432.227 388.038C432.226 385.089 432.211 382.14 432.195 379.191C432.191 377.139 432.188 375.086 432.186 373.033C432.179 367.646 432.159 362.259 432.137 356.871C432.116 351.368 432.107 345.865 432.097 340.361C432.076 329.574 432.042 318.787 432 308C428.031 308.758 424.066 309.53 420.101 310.305C418.989 310.517 417.878 310.729 416.732 310.948C404.878 313.277 394.053 317.198 383 322C382.67 325.63 382.34 329.26 382 333C379.69 333 377.38 333 375 333C374.67 331.02 374.34 329.04 374 327C372.112 326.845 372.112 326.845 370.187 326.687C367.801 326.492 366.345 326.222 364.324 324.922C362.341 322.045 362.097 318.947 361.625 315.562C358.921 298.632 354.434 282.974 347.347 267.359C345.079 261.706 345.059 256.549 347.375 250.875C350.937 244.615 357.472 241.242 363.73 238.101C370.533 235.034 370.533 235.034 375.078 229.562C375.296 227.29 375.211 225.265 375 223C375.33 222.34 375.66 221.68 376 221C377.65 221 379.3 221 381 221C381.66 222.65 382.32 224.3 383 226C383.77 225.578 384.541 225.157 385.335 224.722C386.338 224.175 387.341 223.627 388.375 223.062C389.372 222.517 390.37 221.972 391.398 221.41C392.92 220.585 394.451 219.774 396 219C395.706 218.427 395.412 217.855 395.109 217.265C392.256 211.439 389.968 206.219 392.082 199.789C393.767 196.504 395.914 194.943 399 193C400.249 192.871 401.498 192.742 402.785 192.609C405.816 191.889 406.831 191.214 408.782 188.728C410.594 185.581 412.224 182.39 413.812 179.125C414.714 177.344 415.615 175.563 416.521 173.784C417.13 172.585 417.735 171.385 418.337 170.183C420.201 166.478 422.195 162.899 424.347 159.355C430.43 149.301 434.095 142.044 432 130C431.846 129.105 431.693 128.211 431.535 127.289C430.086 121.588 426.955 118.084 422 115C418.264 113.249 415.335 112.748 411.222 112.743C409.479 112.733 409.479 112.733 407.702 112.723C405.794 112.728 405.794 112.728 403.848 112.732C402.48 112.729 401.112 112.724 399.744 112.719C395.985 112.706 392.227 112.707 388.468 112.709C384.414 112.709 380.36 112.698 376.306 112.689C368.364 112.672 360.422 112.667 352.48 112.666C346.024 112.665 339.568 112.661 333.112 112.654C314.81 112.637 296.508 112.627 278.206 112.629C276.726 112.629 276.726 112.629 275.216 112.629C273.734 112.629 273.734 112.629 272.222 112.629C256.21 112.63 240.199 112.611 224.187 112.583C207.747 112.554 191.307 112.54 174.868 112.542C165.638 112.543 156.408 112.537 147.178 112.516C139.319 112.498 131.46 112.493 123.602 112.507C119.592 112.513 115.584 112.513 111.575 112.496C107.902 112.48 104.231 112.483 100.558 112.501C98.605 112.505 96.6516 112.49 94.6984 112.474C86.5052 112.539 80.5158 113.299 74.6245 119.5ZM400.062 201.062C398.767 203.119 398.767 203.119 398.687 206.312C400.135 210.381 400.465 210.637 404 212.64C404.902 213.155 405.805 213.67 406.735 214.2C407.812 214.794 408.889 215.388 410 216C410.626 216.348 411.252 216.697 411.898 217.056C416.247 219.474 420.618 221.849 425.006 224.198C426.555 225.031 428.102 225.87 429.645 226.714C431.898 227.947 434.16 229.161 436.425 230.371C437.112 230.751 437.798 231.131 438.506 231.523C441.433 233.064 443.51 234.023 446.852 233.867C449.207 233.107 449.207 233.107 450.937 230.75C452.268 228.084 452.268 228.084 451.402 225.539C449.591 222.261 447.924 221.395 444.625 219.625C444.044 219.31 443.463 218.996 442.865 218.672C441.46 217.913 440.052 217.162 438.641 216.415C436.048 215.026 433.473 213.604 430.902 212.174C428.405 210.788 425.902 209.414 423.397 208.042C422.137 207.35 420.878 206.654 419.622 205.954C417.828 204.957 416.024 203.977 414.218 203C413.166 202.422 412.113 201.845 411.029 201.25C407.2 199.67 403.807 199.009 400.062 201.062ZM398.125 226.437C392.702 229.777 387.24 233.042 381.734 236.242C381.092 236.616 380.449 236.99 379.788 237.375C377.166 238.9 374.543 240.426 371.917 241.944C370.044 243.028 368.174 244.117 366.304 245.207C365.211 245.841 364.118 246.475 362.991 247.128C356.306 251.224 356.306 251.224 353 258C353.465 262.893 355.166 266.866 357.25 271.25C364.147 286.465 367.13 302.627 370 319C373.86 317.797 377.489 316.356 381.149 314.639C394.44 308.461 408.788 303.993 423.406 302.519C427.742 301.651 430.173 300.104 432.824 296.562C434.558 291.309 434.133 286.477 433.812 281C433.752 279.833 433.691 278.666 433.629 277.464C433.496 274.961 433.356 272.459 433.21 269.956C433.029 266.563 432.896 263.174 432.791 259.778C432.701 257.037 432.582 254.298 432.457 251.559C432.376 249.59 432.326 247.62 432.276 245.65C432.169 239.492 432.169 239.492 429.493 234.202C427.479 232.782 427.479 232.782 424 232C421.042 232.867 420.118 233.819 418.416 236.411C417.917 237.403 417.419 238.395 416.906 239.418C416.35 240.508 415.795 241.598 415.222 242.721C414.654 243.865 414.085 245.009 413.5 246.187C412.365 248.431 411.23 250.675 410.093 252.918C409.562 253.974 409.032 255.031 408.485 256.12C407.25 258.515 405.958 260.837 404.582 263.152C402.764 265.806 402.764 265.806 403.187 268.375C403.455 269.241 403.723 270.107 404 271C404.888 275.545 405.371 278.945 403.812 283.375C401.54 286.666 399.656 288.696 395.632 289.433C389.973 289.442 386.297 289.082 382 285C379.657 280.417 379.898 276.959 381 272C381.957 269.127 382.772 268.176 385.187 266.312C388 265 388 265 391.3 265.058C395.588 263.831 395.893 263.235 398.062 259.547C399.067 257.628 400.045 255.694 401 253.75C401.771 252.255 401.771 252.255 402.557 250.729C403.582 248.741 404.597 246.748 405.603 244.75C407.405 241.202 409.321 237.73 411.25 234.25C413.33 230.805 413.33 230.805 414 227C412.906 226.34 411.813 225.68 410.687 225C409.765 224.443 409.765 224.443 408.824 223.875C404.451 221.777 401.876 224.103 398.125 226.437ZM452 240C449.117 240.961 447.301 241.106 444.312 241.062C443.1 241.049 443.1 241.049 441.863 241.035C440.94 241.018 440.94 241.018 440 241C439.903 250.562 439.924 260.077 440.5 269.625C440.874 275.92 441.108 282.193 441.125 288.5C441.131 289.568 441.131 289.568 441.138 290.659C441.129 293.718 440.975 296.074 440 299C439.908 300.424 439.871 301.852 439.868 303.279C439.864 304.153 439.86 305.026 439.856 305.925C439.857 306.881 439.857 307.836 439.858 308.82C439.854 309.829 439.851 310.837 439.847 311.876C439.84 314.07 439.834 316.263 439.831 318.457C439.824 321.934 439.808 325.411 439.79 328.888C439.737 338.775 439.689 348.662 439.674 358.549C439.664 364.596 439.634 370.642 439.592 376.689C439.58 378.989 439.575 381.289 439.577 383.589C439.579 386.817 439.557 390.045 439.53 393.273C439.536 394.215 439.543 395.156 439.55 396.125C439.445 403.579 437.794 410.456 433.105 416.402C432.472 416.909 431.839 417.415 431.187 417.937C430.562 418.462 429.937 418.987 429.293 419.527C422.817 423.686 417.637 424.439 410.084 424.399C409.102 424.405 408.121 424.412 407.109 424.419C403.828 424.437 400.547 424.435 397.265 424.432C394.91 424.441 392.554 424.452 390.198 424.463C383.808 424.491 377.419 424.5 371.029 424.506C365.026 424.514 359.023 424.536 353.02 424.559C341.133 424.602 329.247 424.632 317.36 424.653C305.815 424.674 294.271 424.702 282.727 424.737C281.659 424.741 281.659 424.741 280.569 424.744C276.997 424.755 273.425 424.766 269.852 424.778C240.235 424.871 210.617 424.942 181 425C181 430.28 181 435.56 181 441C210.75 441.068 240.5 441.121 270.251 441.153C273.766 441.157 277.282 441.161 280.798 441.165C281.498 441.165 282.198 441.166 282.919 441.167C294.238 441.18 305.556 441.204 316.875 441.231C328.497 441.259 340.12 441.276 351.742 441.282C358.266 441.286 364.791 441.295 371.315 441.317C377.461 441.337 383.606 441.344 389.751 441.339C392.002 441.34 394.254 441.346 396.505 441.357C399.589 441.372 402.672 441.369 405.755 441.361C406.638 441.369 407.52 441.378 408.429 441.387C421.013 441.298 432.901 437.119 442.187 428.562C450.171 420.188 455.129 409.824 455.12 398.217C455.121 397.536 455.121 396.854 455.122 396.152C455.124 393.871 455.119 391.589 455.113 389.307C455.113 387.671 455.113 386.035 455.113 384.399C455.114 379.958 455.108 375.516 455.101 371.074C455.095 366.432 455.094 361.79 455.093 357.149C455.09 348.358 455.082 339.568 455.072 330.778C455.06 320.771 455.055 310.764 455.05 300.757C455.039 280.171 455.022 259.585 455 239C453.776 238.925 453.776 238.925 452 240ZM389.312 273.187C387.55 275.62 387.548 277.062 388 280C390.769 282.315 390.769 282.315 393.625 281.687C395.935 281.226 395.935 281.226 397 280C397.333 277.042 397.333 277.042 397 274C393.209 271.463 393.209 271.463 389.312 273.187ZM111.185 356.21C109.539 358.337 109.539 358.337 110 363C118.91 363 127.82 363 137 363C137 361.02 137 359.04 137 357C134.013 354.013 131.234 354.707 127.15 354.678C125.621 354.682 125.621 354.682 124.062 354.687C123.047 354.671 122.032 354.655 120.986 354.638C120.012 354.638 119.038 354.637 118.035 354.637C117.141 354.634 116.248 354.631 115.328 354.628C112.968 354.839 112.968 354.839 111.185 356.21ZM32.9995 374C28.7304 379.455 28.4245 384.033 28.4978 390.803C28.4924 391.762 28.487 392.72 28.4815 393.708C28.469 396.86 28.4854 400.012 28.5035 403.164C28.5033 405.362 28.5018 407.559 28.499 409.757C28.4977 414.355 28.5102 418.953 28.533 423.551C28.5614 429.443 28.5586 435.335 28.5459 441.228C28.5389 445.763 28.5467 450.297 28.5592 454.832C28.5637 457.005 28.564 459.178 28.5601 461.351C28.5572 464.386 28.5737 467.42 28.5955 470.455C28.591 471.352 28.5865 472.249 28.5819 473.173C28.6562 479.402 29.8719 482.479 33.9231 487.279C38.8249 490.021 43.6984 489.564 49.222 489.533C50.4615 489.542 51.7011 489.55 52.9782 489.559C56.3711 489.578 59.763 489.579 63.1558 489.57C65.9913 489.565 68.8267 489.572 71.6622 489.579C78.3531 489.596 85.0438 489.593 91.7346 489.576C98.6303 489.559 105.525 489.575 112.421 489.607C118.348 489.634 124.275 489.641 130.202 489.633C133.739 489.628 137.276 489.63 140.813 489.651C144.758 489.673 148.703 489.654 152.648 489.631C154.399 489.648 154.399 489.648 156.186 489.666C162.829 489.668 162.829 489.668 168.647 486.835C173.334 481.187 173.295 475.723 173.274 468.709C173.279 467.793 173.284 466.877 173.29 465.933C173.304 462.915 173.303 459.897 173.3 456.879C173.304 454.774 173.309 452.67 173.313 450.565C173.321 446.158 173.32 441.751 173.315 437.343C173.309 431.703 173.326 426.063 173.35 420.423C173.364 416.078 173.365 411.733 173.362 407.388C173.363 405.308 173.368 403.229 173.378 401.15C173.39 398.24 173.383 395.33 173.372 392.42C173.38 391.566 173.387 390.713 173.395 389.833C173.348 384.476 172.529 380.75 170 376C165.549 371.663 162.019 370.88 155.972 370.859C154.959 370.854 153.945 370.848 152.901 370.842C151.795 370.841 150.689 370.84 149.549 370.839C147.795 370.831 147.795 370.831 146.005 370.824C142.132 370.809 138.259 370.802 134.386 370.797C133.05 370.794 131.714 370.791 130.379 370.788C124.102 370.774 117.826 370.765 111.549 370.761C104.315 370.756 97.0807 370.739 89.8464 370.71C84.2471 370.688 78.6478 370.678 73.0485 370.677C69.7076 370.676 66.367 370.668 63.0261 370.652C59.2966 370.635 55.5676 370.637 51.8382 370.643C50.7382 370.634 49.6382 370.625 48.5049 370.615C42.6039 370.648 38.0468 370.788 32.9995 374Z" fill="white"/>
<path d="M119.301 385.406C126.936 390.847 132.496 397.506 134.313 406.813C135.063 410.131 135.389 411.547 138.152 413.594C139.895 414.411 141.658 415.186 143.438 415.918C151.612 419.37 155.471 426.16 159 434C161.806 442.23 160.943 453.042 157.254 460.793C151.956 470.118 144.914 476.468 134.445 479.531C126.192 481.113 117.667 480.556 110 477C108.531 475.939 107.091 474.834 105.688 473.688C103.814 472.129 103.814 472.129 102 471C99.3492 471.14 99.3492 471.14 97 473C87.3817 479.283 78.829 481.512 67.2852 479.535C57.4769 476.981 50.0379 470.567 44.7774 462.012C40.6659 453.951 39.7318 443.92 42.1524 435.184C45.2189 427.284 49.9064 420.721 57 416C58.6111 415.34 60.2366 414.714 61.875 414.125C65.0969 412.887 65.0969 412.887 66.836 410.074C67.1179 408.534 67.36 406.986 67.5664 405.434C68.8857 398.029 74.1695 391.508 80 387C92.1255 379.777 106.792 377.761 119.301 385.406ZM79 400C76.9758 403.417 75 406.957 75 411C75.8946 411.147 76.7892 411.294 77.7109 411.445C85.0695 412.811 90.7611 414.478 96.9141 418.793C99.1754 420.334 99.1754 420.334 103 420C105.195 418.793 105.195 418.793 107.438 417.188C113.285 413.491 119.253 412.206 126 411C125.202 404.757 123.177 400.688 119 396C105.354 385.685 90.3113 386.879 79 400ZM56 428C50.1937 435.626 49.0567 442.481 50 452C52.5612 460.43 57.6165 465.111 64.75 469.813C72.8714 472.78 79.6809 472.501 87.6289 469.153C94.4568 465.834 97.6368 460.641 101 454C103.249 446.917 102.358 440.153 99.3945 433.43C95.6314 426.873 90.2779 422.171 83 420C72.8131 417.577 63.3973 420.636 56 428ZM106 428C106.217 428.548 106.433 429.096 106.656 429.66C110.519 440.658 110.282 452.167 106 463C112.733 468.669 119.022 472.491 128.063 471.938C134.898 470.961 141.108 467.892 146 463C150.666 455.85 152.976 449.581 152 441C149.557 432.469 145.831 426.624 138.156 422.07C126.382 416.226 115.431 419.86 106 428Z" fill="white"/>
<path d="M315.895 242.047C317.613 243.641 319.349 245.115 321.188 246.563C328.508 252.907 338.06 262.284 339.438 272.125C338.035 284.551 322.504 297.604 313.223 305.27C312.489 305.841 311.756 306.412 311 307C310.495 307.401 309.989 307.803 309.468 308.216C291.431 322.438 269.625 333.69 246 332C218.735 328.574 197.624 313.817 178.5 294.813C177.369 293.69 177.369 293.69 176.216 292.545C163.674 279.839 163.674 279.839 162.617 271.371C163.924 263.277 171.067 257.232 176.482 251.585C177.474 250.55 178.46 249.509 179.439 248.462C197.341 229.342 221.084 213.736 247.823 212.055C274.2 211.392 297.125 224.532 315.895 242.047ZM186 254C185.215 254.745 184.43 255.49 183.621 256.258C176.003 263.289 176.003 263.289 171.441 272.285C172.343 276.668 175.355 279.141 178.438 282.25C179.083 282.917 179.728 283.584 180.393 284.271C181.679 285.596 182.969 286.916 184.266 288.231C185.669 289.662 187.043 291.124 188.406 292.594C202.682 307.748 224.411 322.307 245.664 323.336C273.055 323.841 293.573 311.54 313 293C315.306 290.765 317.596 288.513 319.875 286.25C320.423 285.707 320.971 285.164 321.535 284.605C327.406 279.151 327.406 279.151 330.578 272.07C329.799 267.933 327.637 265.746 324.75 262.875C324.207 262.315 323.664 261.755 323.105 261.179C321.971 260.014 320.831 258.856 319.685 257.704C318.104 256.105 316.56 254.48 315.023 252.84C299.24 236.208 277.037 221.382 253.565 220.716C226.043 220.385 204.996 235.579 186 254Z" fill="white"/>
<path d="M273.257 240.684C275.772 242.584 277.889 244.661 279.999 247C281.268 248.269 281.268 248.269 282.562 249.563C289.246 257.876 289.949 268.791 288.999 279C287.479 289.289 281.369 297.833 273.124 304C263.955 309.811 254.761 311.102 243.999 310C233.811 307.52 225.581 302.153 218.999 294C213.104 283.632 211.019 272.505 214.124 260.813C217.517 250.995 224.32 242.758 233.402 237.649C246.565 231.559 261.204 232.576 273.257 240.684ZM229.999 251C224.365 256.941 221.259 263.499 220.871 271.731C221.31 281.17 225.11 289.107 232.035 295.531C238.712 300.522 246.719 302.818 254.999 302C264.949 299.71 272.117 294.298 277.999 286C281.446 278.591 282.129 271.208 279.749 263.375C276.51 254.657 270.717 248.67 262.687 244.125C250.37 240.367 239.484 242.005 229.999 251Z" fill="white"/>
<path d="M251.653 61.877C253.444 61.8784 253.444 61.8784 255.27 61.8798C255.933 61.879 256.595 61.8781 257.278 61.8773C259.513 61.8756 261.749 61.8811 263.985 61.8866C265.581 61.8869 267.177 61.8867 268.773 61.8861C273.12 61.8858 277.467 61.8917 281.814 61.8987C286.352 61.9049 290.889 61.9055 295.427 61.9067C304.026 61.9098 312.625 61.9181 321.224 61.9281C331.011 61.9392 340.798 61.9447 350.585 61.9498C370.723 61.9602 390.862 61.9778 411 62.0001C412.125 64.3126 412.125 64.3126 413 67.0001C412.34 67.9901 411.68 68.9801 411 70.0001C408.229 70.3748 408.229 70.3748 404.623 70.3743C403.961 70.3783 403.299 70.3823 402.617 70.3864C400.389 70.396 398.162 70.3841 395.934 70.3724C394.341 70.3748 392.747 70.3786 391.154 70.3835C386.82 70.3929 382.485 70.3834 378.151 70.3701C373.622 70.3588 369.093 70.3629 364.564 70.3649C356.958 70.3658 349.351 70.3547 341.745 70.3363C332.942 70.3151 324.138 70.3116 315.335 70.3178C306.878 70.3235 298.422 70.3179 289.965 70.3067C286.361 70.302 282.757 70.3011 279.152 70.3033C274.91 70.3051 270.668 70.2971 266.427 70.2812C264.867 70.2769 263.306 70.2761 261.746 70.2789C259.623 70.2821 257.5 70.2731 255.377 70.2608C254.187 70.2587 252.997 70.2567 251.771 70.2546C249 70.0001 249 70.0001 247 68.0001C247.724 62.0593 247.724 62.0593 251.653 61.877Z" fill="white"/>
<path d="M124.062 233.938C125.517 233.968 125.517 233.968 127 234C128.478 236.957 128.06 239.742 128 243C129.196 242.938 130.393 242.876 131.625 242.812C135.773 242.82 138.474 243.704 142 246C147.004 251.349 146.214 257.909 146.25 264.812C146.271 265.785 146.291 266.758 146.312 267.76C146.344 273.639 145.883 277.835 143 283C139.439 286.307 136.869 287.228 132.125 287.25C130.749 287.186 129.373 287.11 128 287C128.021 288.114 128.041 289.227 128.062 290.375C128 294 128 294 127 296C125 296.043 123 296.041 121 296C120 295 120 295 119.902 293.152C119.935 291.102 119.967 289.051 120 287C119.13 287.052 119.13 287.052 118.242 287.105C113.05 287.285 109.421 287.053 105 284C102.134 280.134 101.616 277.331 101.602 272.562C101.598 271.338 101.594 270.113 101.59 268.852C101.607 266.945 101.607 266.945 101.625 265C101.613 263.729 101.602 262.458 101.59 261.148C101.594 259.924 101.598 258.699 101.602 257.438C101.605 256.322 101.608 255.207 101.612 254.059C102.048 250.626 102.951 248.764 105 246C109.908 242.611 114.268 242.656 120 243C119.979 241.701 119.959 240.401 119.938 239.062C119.916 237.708 119.929 236.352 120 235C121 234 121 234 124.062 233.938ZM110 254C109.689 256.294 109.689 256.294 109.734 258.938C109.732 259.915 109.729 260.892 109.727 261.898C109.734 262.922 109.742 263.945 109.75 265C109.742 266.024 109.735 267.047 109.727 268.102C109.729 269.079 109.732 270.056 109.734 271.062C109.737 271.961 109.739 272.859 109.741 273.785C109.792 276.205 109.792 276.205 112 278C114.507 278.295 114.507 278.295 117.41 278.23C119.018 278.228 119.018 278.228 120.658 278.225C121.782 278.212 122.905 278.2 124.062 278.188C125.19 278.187 126.317 278.186 127.479 278.186C132.596 278.649 132.596 278.649 137 277C137.099 275.231 137.131 273.459 137.133 271.688C137.134 270.612 137.135 269.537 137.137 268.43C137.131 266.732 137.131 266.732 137.125 265C137.131 263.302 137.131 263.302 137.137 261.57C137.135 259.958 137.135 259.958 137.133 258.312C137.132 257.319 137.131 256.325 137.129 255.301C137.258 253.036 137.258 253.036 136 252C132.027 251.747 128.042 251.815 124.062 251.812C122.939 251.8 121.816 251.788 120.658 251.775C119.586 251.773 118.514 251.772 117.41 251.77C116.422 251.765 115.433 251.761 114.414 251.757C111.817 251.761 111.817 251.761 110 254Z" fill="white"/>
<path d="M255.375 346.688C257.204 346.663 257.204 346.663 259.07 346.639C260.841 346.638 260.841 346.638 262.648 346.637C263.723 346.634 264.797 346.631 265.904 346.628C269.521 347.063 271.902 348.104 275 350C278.618 355.789 278.326 361.321 278 368C279.299 367.979 280.599 367.959 281.938 367.938C283.292 367.916 284.648 367.929 286 368C287 369 287 369 287.125 372C287 375 287 375 286 376C283.329 376.141 280.676 376.043 278 376C277.917 377.217 277.835 378.434 277.75 379.688C277.247 383.795 275.97 386.03 273 389C268.725 391.138 263.105 390.309 258.361 390.35C256.961 390.367 255.56 390.394 254.16 390.432C241.041 390.789 241.041 390.789 237.102 387.777C234.977 384.97 234.228 383.654 234.125 380.188C234.067 379.002 234.067 379.002 234.008 377.793C234.005 377.201 234.003 376.61 234 376C231.36 376 228.72 376 226 376C224.875 373.688 224.875 373.688 224 371C224.99 369.515 224.99 369.515 226 368C227.945 367.707 227.945 367.707 230.125 367.813C231.404 367.874 232.683 367.936 234 368C233.954 367.131 233.907 366.262 233.859 365.367C233.528 354.776 233.528 354.776 235.75 351.313C241.345 345.562 247.801 346.668 255.375 346.688ZM243.208 356.224C241.635 358.537 241.627 359.996 241.637 362.781C241.637 363.706 241.638 364.63 241.639 365.582C241.655 366.545 241.671 367.508 241.688 368.5C241.684 369.463 241.681 370.426 241.678 371.418C241.595 377.036 241.595 377.036 244 382C246.502 382.433 246.502 382.433 249.41 382.328C250.482 382.323 251.554 382.318 252.658 382.313C253.782 382.292 254.905 382.271 256.062 382.25C257.19 382.245 258.317 382.24 259.479 382.234C264.597 382.67 264.597 382.67 269 381C269.253 377.027 269.185 373.042 269.188 369.063C269.206 367.377 269.206 367.377 269.225 365.658C269.227 364.586 269.228 363.515 269.23 362.41C269.235 361.422 269.239 360.433 269.243 359.414C269.239 356.817 269.239 356.817 267 355C263.374 354.547 259.714 354.676 256.062 354.688C255.047 354.671 254.032 354.655 252.986 354.639C252.012 354.638 251.039 354.637 250.035 354.637C249.142 354.634 248.249 354.631 247.328 354.628C244.967 354.836 244.967 354.836 243.208 356.224Z" fill="white"/>
<path d="M253.844 139.554C255.928 139.562 258.009 139.533 260.092 139.502C262.071 139.503 262.071 139.503 264.09 139.504C265.295 139.502 266.5 139.5 267.742 139.498C271.618 140.095 273.248 141.255 276 144C278.047 148.386 278.192 152.202 278 157C279.114 156.959 280.227 156.917 281.375 156.875C285 157 285 157 287 159C287.188 161.562 287.188 161.562 287 164C286 165 286 165 284.152 165.097C282.102 165.065 280.051 165.032 278 165C278.062 166.175 278.124 167.351 278.188 168.562C278.172 172.962 277.199 176.133 275 180C269.23 184.359 262.995 183.476 256.062 183.437C254.8 183.457 253.537 183.477 252.236 183.498C240.539 183.492 240.539 183.492 236 179C233.833 175.953 233.778 173.432 233.875 169.75C233.893 168.858 233.911 167.966 233.93 167.047C233.964 166.033 233.964 166.033 234 165C231.36 165 228.72 165 226 165C225.34 163.35 224.68 161.7 224 160C225.062 158.5 225.062 158.5 227 157C230.688 156.812 230.688 156.812 234 157C233.965 156.408 233.93 155.816 233.895 155.207C233.726 150.274 233.728 146.973 237 143C241.761 138.465 247.637 139.515 253.844 139.554ZM244 148C241.085 152.372 241.67 156.358 241.688 161.5C241.671 162.463 241.655 163.426 241.639 164.418C241.638 165.342 241.637 166.266 241.637 167.219C241.634 168.064 241.631 168.908 241.628 169.779C241.848 172.043 241.848 172.043 243.208 173.776C245.593 175.404 247.16 175.373 250.035 175.363C251.496 175.362 251.496 175.362 252.986 175.361C254.001 175.345 255.017 175.329 256.062 175.312C257.082 175.316 258.101 175.319 259.15 175.322C264.624 175.639 264.624 175.639 269 173C269.295 170.493 269.295 170.493 269.23 167.59C269.229 166.518 269.227 165.446 269.225 164.342C269.212 163.218 269.2 162.095 269.188 160.937C269.187 159.81 269.186 158.683 269.186 157.521C269.649 152.403 269.649 152.403 268 148C264.028 147.72 260.043 147.768 256.062 147.75C254.939 147.729 253.816 147.709 252.658 147.687C251.05 147.68 251.05 147.68 249.41 147.672C247.927 147.658 247.927 147.658 246.414 147.643C245.219 147.82 245.219 147.82 244 148Z" fill="white"/>
<path d="M121.844 139.554C123.927 139.563 126.008 139.534 128.091 139.502C130.07 139.503 130.07 139.503 132.089 139.504C133.294 139.502 134.499 139.5 135.741 139.499C139.617 140.095 141.248 141.256 143.999 144C146.046 148.386 146.191 152.203 145.999 157C147.113 156.959 148.227 156.918 149.374 156.875C152.999 157 152.999 157 154.999 159C155.187 161.563 155.187 161.563 154.999 164C153.999 165 153.999 165 152.151 165.098C150.101 165.065 148.05 165.033 145.999 165C146.061 166.011 146.123 167.021 146.187 168.063C145.948 173.073 144.654 176.931 141.499 180.875C138.569 183.073 135.825 183.114 132.312 183.063C131.099 183.049 131.099 183.049 129.862 183.035C129.248 183.024 128.633 183.012 127.999 183C128.061 184.279 128.123 185.558 128.187 186.875C128.292 189.055 128.292 189.055 127.999 191C124.999 193 124.999 193 122.874 192.688C120.999 192 120.999 192 119.999 191C119.858 188.33 119.957 185.676 119.999 183C119.347 183.047 118.695 183.093 118.023 183.141C112.131 183.384 108.583 183.126 103.999 179C100.661 173.841 101.671 167.474 101.687 161.563C101.662 159.721 101.662 159.721 101.638 157.842C101.637 156.658 101.637 155.474 101.636 154.254C101.631 152.635 101.631 152.635 101.627 150.983C102.16 146.712 103.772 144.242 106.763 141.215C111.314 138.743 116.783 139.523 121.844 139.554ZM109.999 150C109.546 153.627 109.675 157.286 109.687 160.938C109.671 161.953 109.654 162.968 109.638 164.014C109.637 164.988 109.637 165.962 109.636 166.965C109.633 167.858 109.63 168.752 109.627 169.672C109.836 172.03 109.836 172.03 111.207 173.792C113.592 175.4 115.17 175.373 118.034 175.363C119.495 175.363 119.495 175.363 120.985 175.362C122.001 175.345 123.016 175.329 124.062 175.313C125.081 175.316 126.1 175.319 127.15 175.322C132.623 175.64 132.623 175.64 136.999 173C137.277 170.476 137.277 170.476 137.194 167.555C137.188 166.479 137.182 165.402 137.175 164.293C137.158 163.165 137.141 162.037 137.124 160.875C137.115 159.74 137.106 158.604 137.097 157.434C137.073 154.622 137.04 151.811 136.999 149C132.996 146.999 127.9 147.815 123.499 147.813C122.428 147.8 121.357 147.788 120.253 147.776C119.231 147.774 118.209 147.772 117.155 147.77C116.215 147.766 115.275 147.762 114.306 147.757C111.804 147.776 111.804 147.776 109.999 150Z" fill="white"/>
<path d="M369.715 139.734C370.367 139.732 371.019 139.731 371.691 139.729C373.069 139.727 374.446 139.731 375.824 139.739C377.927 139.75 380.028 139.739 382.131 139.727C383.471 139.728 384.812 139.73 386.152 139.734C387.369 139.737 388.586 139.739 389.84 139.741C392.927 139.994 394.529 140.18 397 142C401.515 147.789 400.475 154.495 400.438 161.5C400.467 163.478 400.467 163.478 400.498 165.496C400.497 166.766 400.497 168.036 400.496 169.344C400.499 171.079 400.499 171.079 400.502 172.85C399.899 176.635 398.635 178.271 396 181C393.036 182.98 390.777 183.229 387.25 183.125C386.451 183.107 385.652 183.089 384.828 183.07C384.225 183.047 383.622 183.024 383 183C383.062 184.093 383.124 185.186 383.188 186.312C383 190 383 190 381.812 192C380 193 380 193 377.375 192.812C375 192 375 192 374 190C373.96 187.667 373.957 185.333 374 183C373.112 183.052 373.112 183.052 372.207 183.105C367.275 183.274 363.973 183.272 360 180C356.995 176.756 356.656 174.623 356.812 170.25C356.84 169.265 356.867 168.28 356.895 167.266C356.929 166.518 356.964 165.77 357 165C356.362 165.012 355.724 165.023 355.066 165.035C353.827 165.049 353.827 165.049 352.562 165.062C351.327 165.08 351.327 165.08 350.066 165.098C348 165 348 165 347 164C346.812 161.562 346.812 161.562 347 159C349 157 349 157 350.945 156.805C352.964 156.87 354.982 156.935 357 157C356.965 156.336 356.93 155.672 356.895 154.988C356.619 146.007 356.619 146.007 360 142C363.636 139.576 365.388 139.742 369.715 139.734ZM365 150C364.546 153.815 364.676 157.662 364.688 161.5C364.671 162.571 364.655 163.642 364.639 164.746C364.638 165.768 364.637 166.791 364.637 167.844C364.634 168.784 364.631 169.724 364.628 170.693C364.751 171.455 364.873 172.216 365 173C368.208 175.139 369.088 175.256 372.781 175.266C373.706 175.268 374.63 175.271 375.582 175.273C377.026 175.262 377.026 175.262 378.5 175.25C379.463 175.258 380.426 175.265 381.418 175.273C382.342 175.271 383.266 175.268 384.219 175.266C385.486 175.262 385.486 175.262 386.779 175.259C389.287 175.137 389.287 175.137 392 173C392.449 170.614 392.449 170.614 392.363 167.844C392.363 166.822 392.362 165.799 392.361 164.746C392.345 163.675 392.329 162.604 392.312 161.5C392.316 160.429 392.319 159.358 392.322 158.254C392.671 152.568 392.671 152.568 390 148C387.608 147.689 387.608 147.689 384.844 147.734C383.822 147.732 382.799 147.729 381.746 147.727C380.139 147.738 380.139 147.738 378.5 147.75C377.429 147.742 376.358 147.735 375.254 147.727C373.721 147.73 373.721 147.73 372.156 147.734C370.746 147.738 370.746 147.738 369.307 147.741C366.805 147.779 366.805 147.779 365 150Z" fill="white"/>
<path d="M379.625 337.188C382 338 382 338 383 340C383.04 342.333 383.043 344.667 383 347C383.58 346.954 384.16 346.907 384.758 346.859C390.412 346.598 393.529 347.183 398 351C401.152 355.727 400.334 360.78 400.316 366.342C400.313 368.361 400.336 370.379 400.361 372.398C400.362 373.677 400.363 374.956 400.363 376.273C400.366 377.443 400.369 378.613 400.372 379.818C399.96 383.344 399.127 385.183 397 388C392.146 391.236 386.485 390.411 380.804 390.426C378.639 390.437 376.477 390.487 374.312 390.537C372.93 390.547 371.547 390.554 370.164 390.559C368.911 390.572 367.657 390.586 366.366 390.599C362.122 389.844 360.686 388.29 358 385C356.522 382.043 356.94 379.258 357 376C355.721 376.041 354.442 376.083 353.125 376.125C350.945 376.195 350.945 376.195 349 376C348.34 375.34 347.68 374.68 347 374C347.556 369.444 347.556 369.444 349 368C351.671 367.859 354.324 367.958 357 368C356.913 366.588 356.913 366.588 356.824 365.148C356.41 353.707 356.41 353.707 359.312 350.188C362.856 347.303 365.261 346.873 369.688 346.938C370.9 346.951 370.9 346.951 372.137 346.965C373.059 346.982 373.059 346.982 374 347C373.938 345.907 373.876 344.814 373.812 343.688C374 340 374 340 375.188 338C377 337 377 337 379.625 337.188ZM365 357C364.551 359.386 364.551 359.386 364.637 362.156C364.637 363.178 364.638 364.201 364.639 365.254C364.655 366.325 364.671 367.396 364.688 368.5C364.684 369.571 364.681 370.642 364.678 371.746C364.329 377.432 364.329 377.432 367 382C369.392 382.311 369.392 382.311 372.156 382.266C373.178 382.268 374.201 382.271 375.254 382.273C376.861 382.262 376.861 382.262 378.5 382.25C379.571 382.258 380.642 382.265 381.746 382.273C383.279 382.27 383.279 382.27 384.844 382.266C385.784 382.263 386.724 382.261 387.693 382.259C390.195 382.221 390.195 382.221 392 380C392.454 376.185 392.324 372.338 392.312 368.5C392.329 367.429 392.345 366.358 392.361 365.254C392.362 364.232 392.363 363.209 392.363 362.156C392.366 361.216 392.369 360.276 392.372 359.307C392.249 358.545 392.127 357.784 392 357C388.792 354.861 387.912 354.744 384.219 354.734C383.294 354.732 382.37 354.729 381.418 354.727C379.974 354.738 379.974 354.738 378.5 354.75C377.537 354.742 376.574 354.735 375.582 354.727C374.658 354.729 373.734 354.732 372.781 354.734C371.936 354.737 371.091 354.739 370.221 354.741C367.713 354.863 367.713 354.863 365 357Z" fill="white"/>
<path d="M490.446 14.0819C493.001 14.9999 493.001 14.9999 494.555 17.5116C494.991 18.5596 495.427 19.6076 495.876 20.6874C499.563 28.6495 503.983 32.4801 512.001 35.9999C512.001 38.9699 512.001 41.9399 512.001 44.9999C510.565 45.8156 509.127 46.6273 507.688 47.4374C506.487 48.1161 506.487 48.1161 505.262 48.8085C503.001 49.9999 503.001 49.9999 500.001 50.9999C498.68 53.1616 497.835 55.4114 496.887 57.7616C496.491 58.7271 496.096 59.6926 495.688 60.6874C495.106 62.1473 495.106 62.1473 494.512 63.6366C493.001 65.9999 493.001 65.9999 490.52 66.9569C488.001 66.9999 488.001 66.9999 485.001 64.9999C483.903 62.7577 483.903 62.7577 482.938 60.1249C481.153 54.24 481.153 54.24 477.231 49.8944C476.127 49.4516 476.127 49.4516 475.001 48.9999C473.102 48.2347 471.207 47.4636 469.313 46.6874C468.34 46.2994 467.367 45.9114 466.364 45.5116C464.001 43.9999 464.001 43.9999 463.043 41.5194C463.001 38.9999 463.001 38.9999 465.001 35.9999C467.243 34.9023 467.243 34.9023 469.876 33.9374C475.761 32.1564 475.761 32.1564 480.094 28.2304C480.393 27.4943 480.692 26.7583 481.001 25.9999C481.403 25.0885 481.805 24.1772 482.219 23.2382C483.076 21.2811 483.93 19.3228 484.782 17.3632C486.351 14.3205 487.049 13.968 490.446 14.0819ZM489.001 28.9999C488.625 29.531 488.25 30.0621 487.864 30.6093C484.909 34.6876 482.163 38.0618 478.001 40.9999C478.532 41.375 479.063 41.7501 479.61 42.1366C483.688 45.0912 487.062 47.8376 490.001 51.9999C490.376 51.4688 490.751 50.9377 491.137 50.3905C494.092 46.3122 496.838 42.938 501.001 39.9999C500.469 39.6248 499.938 39.2497 499.391 38.8632C495.313 35.9086 491.939 33.1622 489.001 28.9999Z" fill="white"/>
<path d="M477.374 455C481.899 458.448 486.177 462.534 487.999 468C488.694 475.261 488.915 481.41 484.425 487.418C480.455 491.823 476.329 494.572 470.386 495.336C464.091 495.427 459.06 494.989 453.999 491C448.191 484.697 446.573 479.612 446.655 471.078C447.337 464.977 450.628 461.019 455.124 457.063C461.408 452.555 470.133 452.855 477.374 455ZM456.062 468.188C454.504 472.309 454.74 475.797 455.999 480C458.488 483.162 461.075 485.879 464.999 487C470.693 486.819 473.896 486.223 477.999 482C480.524 478.514 480.434 475.203 479.999 471C477.746 466.66 475.545 463.903 470.999 462C464.268 461.144 460.493 463.184 456.062 468.188Z" fill="white"/>
<path d="M21.0007 137C23.5007 136.688 23.5007 136.688 26.0007 137C28.6241 139.623 28.2458 141.493 28.2718 145.065C28.2677 145.915 28.2637 146.765 28.2595 147.641C28.263 148.535 28.2665 149.429 28.2701 150.351C28.279 153.317 28.2731 156.284 28.2664 159.25C28.2677 161.305 28.2696 163.36 28.2722 165.415C28.2751 169.726 28.2708 174.037 28.2615 178.348C28.2501 183.883 28.2566 189.418 28.2686 194.953C28.2758 199.198 28.2736 203.443 28.2684 207.687C28.267 209.729 28.2687 211.77 28.2733 213.812C28.2784 216.661 28.2707 219.51 28.2595 222.359C28.2636 223.209 28.2676 224.059 28.2718 224.935C28.2293 230.771 28.2293 230.771 26.0007 233C23.5007 233.312 23.5007 233.312 21.0007 233C18.4213 229.131 18.72 225.931 18.7419 221.445C18.7384 220.572 18.7349 219.698 18.7313 218.799C18.7225 215.907 18.7284 213.016 18.7351 210.125C18.7338 208.119 18.7318 206.112 18.7293 204.106C18.7264 199.899 18.7307 195.693 18.74 191.486C18.7514 186.089 18.7448 180.692 18.7328 175.295C18.7256 171.151 18.7279 167.008 18.7331 162.864C18.7344 160.874 18.7328 158.883 18.7281 156.893C18.7231 154.114 18.7308 151.334 18.7419 148.555C18.7379 147.729 18.7338 146.903 18.7297 146.051C18.7585 142.178 18.8019 140.298 21.0007 137Z" fill="white"/>
<path d="M29.2114 18.5236C33.7327 22.2551 37.6077 28.1031 38.2036 34.0158C38.3489 40.9452 36.7581 45.53 32.688 51.2501C27.9471 56.1013 24.3163 57.1981 17.6255 57.4376C12.0259 57.3034 7.4518 56.5524 3.00045 53.0001C-1.37577 48.1748 -0.589211 42.8306 -0.62455 36.6251C-0.669667 35.5011 -0.714784 34.377 -0.761268 33.2189C-0.827674 25.1933 -0.827674 25.1933 1.42721 21.9445C9.10075 15.087 20.0877 13.3047 29.2114 18.5236ZM6.62545 29.1251C4.34694 33.1563 3.95894 36.4792 5.00045 41.0001C7.32564 44.9216 9.64434 47.5481 14.0005 49.0001C18.1149 49.3883 20.4996 49.2409 24.2505 47.4376C27.5788 44.4875 28.753 42.2563 30.0005 38.0001C30.0005 32.5711 27.7214 29.8076 24.0005 26.0001C17.7806 21.724 11.8156 24.4813 6.62545 29.1251Z" fill="white"/>
<path d="M259.25 255.062C263.305 257.919 266.766 261.532 269 266C269.732 272.8 269.799 278.736 265.605 284.375C261.349 288.683 256.87 290.212 250.875 290.437C245.694 290.184 242.103 289.093 238.34 285.347C233.719 280.181 232.683 276.401 232.793 269.496C233.237 264.147 235.638 261.141 239.5 257.687C245.198 252.926 252.354 252.808 259.25 255.062ZM243 266C241.047 268.547 240.987 269.706 241.125 272.937C242.177 276.62 243.138 278.432 246 281C248.749 282.061 251.074 282.37 254 282C258.136 279.593 259.668 278.094 261.062 273.5C260.992 269.545 260.515 268.017 258 265C252.154 260.653 248.551 261.656 243 266Z" fill="white"/>
<path d="M323.361 461.741C324.108 461.737 324.855 461.734 325.624 461.73C328.093 461.722 330.562 461.727 333.031 461.734C334.746 461.733 336.461 461.731 338.176 461.728C341.77 461.725 345.365 461.73 348.959 461.739C353.57 461.75 358.18 461.744 362.79 461.732C366.332 461.725 369.873 461.727 373.414 461.732C375.114 461.733 376.814 461.732 378.514 461.727C380.889 461.722 383.264 461.73 385.639 461.741C386.695 461.735 386.695 461.735 387.774 461.729C391.413 461.76 392.881 461.92 396 464C395.67 465.98 395.34 467.96 395 470C391.434 471.188 388.588 471.127 384.822 471.129C384.095 471.131 383.368 471.133 382.619 471.134C380.215 471.139 377.81 471.136 375.406 471.133C373.736 471.133 372.066 471.134 370.396 471.135C366.896 471.137 363.395 471.135 359.895 471.13C355.406 471.124 350.917 471.128 346.427 471.134C342.979 471.137 339.53 471.136 336.081 471.134C334.426 471.133 332.771 471.134 331.115 471.136C328.803 471.139 326.49 471.135 324.178 471.129C322.861 471.128 321.544 471.128 320.188 471.127C317 471 317 471 314 470C313.67 468.02 313.34 466.04 313 464C316.604 461.597 319.201 461.717 323.361 461.741Z" fill="white"/>
<path d="M148.999 53.0001C152.792 57.7645 154.378 61.6728 154.277 67.8087C153.584 73.2854 151.202 77.0428 146.937 80.4376C142.385 82.8589 139.135 83.3424 133.999 83.0001C128.827 81.3057 125.4 79.2753 121.999 75.0001C119.853 69.8303 119.497 65.3462 120.999 60.0001C123.566 55.2344 126.731 51.3073 131.874 49.2501C138.607 48.458 143.439 49.0472 148.999 53.0001ZM131.062 60.1251C128.812 62.8338 128.812 62.8338 128.437 66.0001C129.157 69.8426 130.008 71.4577 132.999 74.0001C138.13 74.9135 138.13 74.9135 142.663 72.8555C145.112 70.2638 145.991 68.4262 146.062 64.8751C144.824 61.526 143.955 60.0223 140.999 58.0001C136.555 57.2728 134.737 57.4668 131.062 60.1251Z" fill="white"/>
<path d="M182.626 50.1248C187.439 52.7986 190.013 55.934 192.376 60.8748C193.465 66.3225 192.888 70.3523 190.251 75.2498C187.121 79.0749 184.085 82.4016 179.001 82.9998C173.064 83.5706 168.814 82.4213 164.001 78.9998C160.209 74.2353 158.622 70.3271 158.723 64.1912C159.416 58.7145 161.798 54.9571 166.063 51.5623C171.792 48.5151 176.402 48.1934 182.626 50.1248ZM169.001 60.6248C166.748 63.7942 166.748 63.7942 166.938 67.1248C168.176 70.4738 169.045 71.9776 172.001 73.9998C175.458 74.7499 175.458 74.7499 179.001 73.9998C182.382 71.5538 183.77 70.1068 184.626 65.9998C183.77 61.8927 182.382 60.4458 179.001 57.9998C174.199 57.0566 172.71 57.3789 169.001 60.6248Z" fill="white"/>
<path d="M106.188 50.6873C110.331 52.9436 112.885 55.769 115 59.9998C115.505 65.5302 115.739 70.4101 113.375 75.4998C109.137 79.9616 104.993 82.7064 98.813 83.3123C92.8624 82.8245 88.6751 80.7602 84.5629 76.4373C81.4223 71.5379 81.3906 66.6521 82.0004 60.9998C83.7643 55.6578 87.1446 52.686 92.0004 49.9998C97.1037 48.2987 101.319 48.4346 106.188 50.6873ZM92.6254 59.6248C90.6154 62.5625 90.0731 64.4394 90.0004 67.9998C91.3699 71.5441 92.4527 72.7077 95.8129 74.4998C99.8983 75.1406 101.59 74.2478 105 71.9998C107.346 68.4815 107.58 67.142 107 62.9998C105.064 59.9794 105.064 59.9794 102 57.9998C98.0024 57.3685 95.9931 57.3206 92.6254 59.6248Z" fill="white"/>
<path d="M310.102 367.902C311.313 367.906 312.525 367.909 313.773 367.912C315.044 367.92 316.315 367.929 317.625 367.937C318.904 367.942 320.183 367.946 321.5 367.951C324.667 367.963 327.833 367.979 331 368C332.125 370.312 332.125 370.312 333 373C332.01 374.485 332.01 374.485 331 376C328.219 376.356 328.219 376.356 324.715 376.328C323.463 376.323 322.21 376.318 320.92 376.312C319.606 376.292 318.292 376.271 316.938 376.25C315.619 376.245 314.301 376.24 312.943 376.234C303.154 376.154 303.154 376.154 302 375C301.959 373 301.957 370.999 302 369C304.766 367.617 307.01 367.888 310.102 367.902Z" fill="white"/>
<path d="M313.271 156.678C314.481 156.681 315.691 156.684 316.938 156.688C318.746 156.663 318.746 156.663 320.592 156.639C322.323 156.638 322.323 156.638 324.09 156.637C325.151 156.634 326.211 156.631 327.304 156.628C330 157 330 157 331.885 158.39C333 160 333 160 332.75 162.125C332 164 332 164 331 165C328.939 165.1 326.875 165.131 324.812 165.133C323.557 165.134 322.301 165.135 321.008 165.137C320.351 165.135 319.694 165.133 319.017 165.13C317.008 165.125 315 165.13 312.992 165.137C311.737 165.136 310.481 165.134 309.188 165.133C308.026 165.132 306.865 165.131 305.668 165.129C303 165 303 165 302 164C301.812 161.563 301.812 161.563 302 159C305.202 155.798 308.906 156.705 313.271 156.678Z" fill="white"/>
<path d="M124.063 304.938C125.517 304.968 125.517 304.968 127 305C128.827 308.653 128.185 312.978 128.188 317C128.2 317.928 128.212 318.856 128.225 319.812C128.228 321.143 128.228 321.143 128.231 322.5C128.235 323.315 128.239 324.129 128.243 324.969C128 327 128 327 126 329C123.438 329.188 123.438 329.188 121 329C119.347 327.346 119.87 325.397 119.868 323.125C119.866 322.14 119.865 321.155 119.864 320.141C119.868 319.104 119.871 318.068 119.875 317C119.87 315.445 119.87 315.445 119.864 313.859C119.865 312.875 119.866 311.89 119.868 310.875C119.869 309.965 119.87 309.055 119.871 308.117C120.079 304.716 120.579 305.009 124.063 304.938Z" fill="white"/>
<path d="M123.438 200.812C126 201 126 201 128 203C128.243 205.031 128.243 205.031 128.231 207.5C128.229 208.387 128.227 209.274 128.225 210.188C128.213 211.116 128.201 212.044 128.188 213C128.187 213.928 128.187 214.856 128.186 215.812C128.141 222.719 128.141 222.719 127 225C125.001 225.043 123 225.041 121 225C119.347 223.346 119.87 221.397 119.868 219.125C119.866 218.14 119.865 217.155 119.864 216.141C119.868 215.104 119.871 214.068 119.875 213C119.87 211.445 119.87 211.445 119.864 209.859C119.865 208.875 119.866 207.89 119.868 206.875C119.869 205.965 119.87 205.055 119.871 204.117C120.058 201.059 120.371 201.048 123.438 200.812Z" fill="white"/>
<path d="M204.938 367.813C206.336 367.794 206.336 367.794 207.764 367.776C209.101 367.773 209.101 367.773 210.465 367.77C211.286 367.766 212.107 367.762 212.953 367.757C215 368 215 368 217 370C216.444 374.556 216.444 374.556 215 376C211.695 376.251 208.376 376.185 205.062 376.188C204.13 376.2 203.197 376.212 202.236 376.225C201.345 376.227 200.454 376.229 199.535 376.231C198.714 376.235 197.893 376.239 197.047 376.243C195 376 195 376 193 374C193.956 366.157 198.089 367.817 204.938 367.813Z" fill="white"/>
<path d="M205.5 156.813C206.38 156.8 207.261 156.788 208.168 156.776C209.01 156.774 209.851 156.772 210.719 156.77C211.492 156.766 212.264 156.761 213.061 156.757C215 157 215 157 217 159C217.188 161.563 217.188 161.563 217 164C216 165 216 165 213.959 165.114C213.084 165.108 212.21 165.103 211.309 165.098C210.364 165.095 209.42 165.091 208.447 165.088C207.454 165.08 206.461 165.071 205.438 165.063C204.44 165.058 203.443 165.054 202.416 165.049C199.944 165.037 197.472 165.021 195 165C193.938 163.188 193.938 163.188 193 161C193.33 160.01 193.66 159.02 194 158C197.536 156.232 201.606 156.815 205.5 156.813Z" fill="white"/>
<path d="M174.5 156.813C175.38 156.8 176.261 156.788 177.168 156.776C178.01 156.774 178.851 156.772 179.719 156.77C180.492 156.766 181.264 156.761 182.061 156.757C184 157 184 157 186 159C186.188 161.563 186.188 161.563 186 164C185 165 185 165 182.959 165.114C182.084 165.108 181.21 165.103 180.309 165.098C179.364 165.095 178.42 165.091 177.447 165.088C176.454 165.08 175.461 165.071 174.438 165.063C173.44 165.058 172.443 165.054 171.416 165.049C168.944 165.037 166.472 165.021 164 165C162.938 163.188 162.938 163.188 162 161C162.33 160.01 162.66 159.02 163 158C166.536 156.232 170.606 156.815 174.5 156.813Z" fill="white"/>
<path d="M379.625 196.188C382 197 382 197 383 199C383.123 201.31 383.176 203.624 383.188 205.938C383.202 207.184 383.216 208.431 383.231 209.715C383 213 383 213 381 216C378.5 216.313 378.5 216.313 376 216C373.526 213.526 373.714 212.025 373.678 208.639C373.681 207.954 373.684 207.268 373.688 206.563C373.672 205.881 373.655 205.2 373.639 204.498C373.636 201.542 373.662 199.496 375.356 197.016C377 196 377 196 379.625 196.188Z" fill="white"/>
<path d="M25.1869 115.125C26.9994 116 26.9994 116 27.9994 118C28.1205 119.643 28.1748 121.291 28.1869 122.938C28.201 123.813 28.2152 124.688 28.2298 125.59C27.9994 128 27.9994 128 25.9994 131C23.0294 130.505 23.0294 130.505 19.9994 130C18.7645 126.295 18.4349 122.851 18.9994 119C21.7787 114.93 21.7787 114.93 25.1869 115.125Z" fill="white"/>
<path d="M291 461.812C292.052 461.791 292.052 461.791 293.125 461.77C295 462 295 462 297 464C297.312 466.5 297.312 466.5 297 469C293.509 471.327 292.108 471.503 288 471C285.562 469.25 285.562 469.25 284 467C284.125 464.812 284.125 464.812 285 463C287.229 461.886 288.531 461.835 291 461.812Z" fill="white"/>
</g>
<defs>
<clipPath id="clip0_179_358">
<rect width="512" height="512" fill="white"/>
</clipPath>
</defs>
</svg>
