<svg width="70" height="70" viewBox="0 0 70 70" fill="none" xmlns="http://www.w3.org/2000/svg">
<circle cx="35" cy="35" r="35" fill="#FFE8AF"/>
<path d="M37.1334 31.4429C37.2255 31.4837 37.3175 31.5245 37.4124 31.5665C38.8331 32.2619 39.7667 33.407 40.3169 34.8845C40.7529 36.3007 40.5898 37.9269 39.9243 39.2349C39.5941 39.8483 39.1778 40.3313 38.6821 40.8213C38.6026 40.9009 38.5231 40.9806 38.4411 41.0626C38.3475 41.1561 38.3475 41.1561 38.2519 41.2515C38.3229 41.2596 38.3939 41.2677 38.467 41.276C38.8261 41.3494 39.1266 41.4769 39.4565 41.6333C39.5204 41.6636 39.5843 41.6939 39.6501 41.7251C40.6488 42.215 41.4943 42.8943 42.2958 43.6606C42.3537 43.7131 42.4116 43.7656 42.4713 43.8196C43.7844 45.0516 45.0696 47.2493 45.1459 49.0812C45.1424 49.138 45.1388 49.1948 45.1352 49.2533C45.5304 49.0064 45.8564 48.7345 46.1838 48.4036C46.2321 48.3549 46.2805 48.3061 46.3303 48.2559C49.0969 45.4131 50.6901 41.4709 50.6595 37.5152C50.6579 37.3029 50.6577 37.0906 50.6578 36.8782C50.6573 36.7409 50.6568 36.6035 50.6562 36.4662C50.6561 36.3727 50.6561 36.3727 50.656 36.2774C50.6522 35.8639 50.6123 35.4662 50.5558 35.0566C50.4929 34.3109 50.4929 34.3109 50.6794 33.9703C50.9996 33.7985 51.3184 33.7793 51.6743 33.852C51.94 34.0365 51.9868 34.2574 52.0453 34.5661C52.0553 34.6271 52.0653 34.6882 52.0756 34.7511C52.0864 34.8155 52.0973 34.8799 52.1085 34.9462C52.228 35.7215 52.2301 36.4948 52.2228 37.2775C52.2222 37.3909 52.2222 37.3909 52.2217 37.5067C52.2154 38.6015 52.178 39.6644 51.9324 40.7353C51.9176 40.8042 51.9029 40.8731 51.8877 40.9442C51.244 43.9233 49.8772 46.6441 47.8098 48.8856C47.6431 49.0674 47.4832 49.2533 47.3238 49.4415C47.0214 49.7865 46.6931 50.0799 46.3398 50.3718C46.2977 50.4077 46.2556 50.4436 46.2122 50.4806C44.0257 52.3443 41.4373 53.591 38.6337 54.206C38.5363 54.2278 38.5363 54.2278 38.4369 54.25C37.9988 54.3375 37.5399 54.3921 37.1441 54.1415C36.9608 53.846 36.9416 53.5753 37.0043 53.2381C37.315 52.7592 38.0624 52.6956 38.5853 52.582C40.4133 52.1614 42.2188 51.4608 43.7585 50.3718C43.6653 48.1294 42.5642 45.9952 40.9461 44.4673C39.1501 42.9152 36.8407 42.0871 34.4628 42.2141C32.5527 42.3638 30.7702 43.0165 29.3037 44.2629C29.2299 44.3228 29.1562 44.3827 29.0802 44.4444C27.4777 45.8017 26.4399 47.8593 26.2062 49.9416C26.1938 50.0136 26.1814 50.0856 26.1686 50.1597C26.1869 50.3968 26.1869 50.3968 26.4311 50.556C26.5361 50.6184 26.6423 50.6788 26.7494 50.7375C26.8069 50.7703 26.8644 50.8031 26.9237 50.8369C28.5233 51.7321 30.1475 52.3634 31.9487 52.7101C32.6697 52.8576 32.6697 52.8576 32.9174 53.2112C33.0161 53.5204 33.0307 53.6644 32.9013 53.964C32.7361 54.169 32.6429 54.2356 32.4012 54.3297C29.0315 54.4319 25.3581 51.9824 22.9851 49.7964C22.9134 49.7306 22.9134 49.7306 22.8404 49.6634C21.7206 48.6116 20.7657 47.3179 20.0113 45.9837C19.9807 45.9306 19.9502 45.8775 19.9187 45.8228C18.6217 43.5525 17.7712 40.8661 17.7567 38.2374C17.7563 38.1656 17.7558 38.0937 17.7553 38.0197C17.7545 37.8685 17.7539 37.7172 17.7536 37.5659C17.7527 37.3396 17.7501 37.1133 17.7473 36.8869C17.7428 36.164 17.7674 35.4612 17.8885 34.7474C17.8985 34.6866 17.9086 34.6258 17.9189 34.5631C17.9778 34.2555 18.0261 34.0361 18.2905 33.852C18.6463 33.7793 18.9651 33.7985 19.2853 33.9703C19.5237 34.4057 19.4312 34.8946 19.3658 35.3718C19.3204 35.7324 19.3077 36.0878 19.3055 36.451C19.3049 36.5163 19.3043 36.5816 19.3036 36.6488C19.2802 38.6209 19.2802 38.6209 19.5811 40.5632C19.5982 40.6367 19.6153 40.7103 19.6329 40.786C20.3812 43.9514 22.0403 46.9096 24.4854 49.0812C24.6721 49.191 24.6721 49.191 24.8296 49.2533C24.8308 49.2062 24.832 49.159 24.8333 49.1105C24.9582 47.0336 26.2734 45.109 27.6689 43.6606C27.719 43.6051 27.7692 43.5495 27.8208 43.4923C28.6533 42.5946 29.7516 42.0099 30.8524 41.5096C30.907 41.4844 30.9616 41.4592 31.0178 41.4333C31.2651 41.3224 31.4386 41.2515 31.7128 41.2515C31.6504 41.1892 31.5879 41.1268 31.5236 41.0626C31.4441 40.983 31.3646 40.9033 31.2826 40.8213C31.2146 40.7541 31.1466 40.6869 31.0766 40.6176C29.9911 39.4918 29.422 38.1897 29.4381 36.6161C29.4388 36.5254 29.4396 36.4348 29.4403 36.3414C29.4552 35.6539 29.5311 35.0853 29.8199 34.4543C29.8607 34.3622 29.9016 34.2702 29.9436 34.1753C30.6389 32.7546 31.784 31.821 33.2616 31.2708C34.4588 30.9007 35.9877 30.9184 37.1334 31.4429ZM31.85 33.9434C31.0031 34.9729 30.8124 36.0827 30.9385 37.3797C31.1398 38.4465 31.8081 39.3885 32.6862 40.0174C33.7258 40.6801 34.8508 40.8202 36.0559 40.5928C37.1764 40.2569 38.0908 39.4748 38.6573 38.4616C39.1414 37.4947 39.2027 36.3087 38.8919 35.2717C38.4663 34.1883 37.6624 33.3233 36.6172 32.8195C36.0881 32.6017 35.6122 32.5163 35.0415 32.5237C34.9346 32.5248 34.9346 32.5248 34.8256 32.5259C33.6243 32.5588 32.6711 33.0758 31.85 33.9434Z" fill="black"/>
<path d="M35.1515 14.5391C35.4156 14.5989 35.4938 14.7141 35.6708 14.9229C35.8342 15.2011 35.976 15.4892 36.1185 15.7786C36.16 15.8617 36.2016 15.9449 36.2443 16.0305C36.3317 16.2058 36.4188 16.3813 36.5055 16.5569C36.6388 16.8265 36.7731 17.0956 36.9076 17.3646C36.9924 17.535 37.0771 17.7054 37.1617 17.8758C37.2021 17.9567 37.2424 18.0375 37.2839 18.1208C37.3207 18.1955 37.3575 18.2701 37.3954 18.3471C37.428 18.4129 37.4606 18.4787 37.4942 18.5466C37.5637 18.7087 37.5637 18.7087 37.5637 18.8808C37.6163 18.8877 37.6688 18.8947 37.723 18.9019C38.2717 18.9749 38.8202 19.049 39.3687 19.1239C39.5732 19.1517 39.7777 19.1791 39.9823 19.2062C40.2769 19.2454 40.5714 19.2856 40.8659 19.3261C40.9569 19.3379 41.0478 19.3498 41.1416 19.362C41.6241 19.4295 42.036 19.511 42.468 19.7412C42.6104 20.0259 42.6184 20.2961 42.5541 20.6016C42.3882 20.8663 42.1748 21.0727 41.9518 21.2899C41.8897 21.354 41.8276 21.4181 41.7636 21.4842C41.4728 21.782 41.1772 22.0689 40.8601 22.3385C40.8064 22.3892 40.7526 22.4399 40.6971 22.4921C40.5201 22.6406 40.3579 22.7442 40.1601 22.8598C39.7491 23.1336 39.442 23.3904 39.2845 23.8711C39.2245 24.8078 39.5097 25.7867 39.7188 26.6924C40.1056 28.3736 40.1056 28.3736 39.833 28.8454C39.5801 29.0783 39.4534 29.1008 39.1124 29.1196C38.8547 29.0258 38.8547 29.0258 38.5586 28.8669C38.5027 28.8378 38.4469 28.8088 38.3894 28.7788C38.1195 28.638 37.8515 28.4938 37.5837 28.3492C37.2332 28.1598 36.8818 27.9721 36.5296 27.7858C36.3499 27.69 36.1713 27.5922 35.9926 27.4943C35.8798 27.4343 35.7669 27.3745 35.654 27.3148C35.6027 27.2859 35.5514 27.2571 35.4985 27.2274C35.2347 27.0907 35.0973 27.0487 34.8032 27.1098C34.5603 27.223 34.3199 27.3364 34.0828 27.461C33.9948 27.507 33.9068 27.553 33.8162 27.6004C33.6775 27.6736 33.6775 27.6736 33.5359 27.7483C33.3929 27.8229 33.3929 27.8229 33.2469 27.8989C32.8135 28.1254 32.382 28.3541 31.9559 28.5943C31.8904 28.6307 31.8249 28.6671 31.7574 28.7047C31.6383 28.7713 31.5199 28.8391 31.4024 28.9086C31.0143 29.1244 30.7643 29.1461 30.3363 29.0336C30.1212 28.8776 30.1212 28.8776 29.9921 28.6034C29.9655 27.5831 30.2553 26.5186 30.4408 25.5196C30.4844 25.284 30.5266 25.0481 30.5685 24.8122C30.5823 24.74 30.5961 24.6679 30.6103 24.5936C30.6221 24.5263 30.6339 24.459 30.6461 24.3897C30.6569 24.3309 30.6677 24.2721 30.6789 24.2116C30.6816 23.9195 30.5451 23.7409 30.3576 23.5274C30.2682 23.4385 30.2682 23.4385 30.177 23.3478C30.1108 23.2818 30.0445 23.2157 29.9763 23.1477C29.907 23.0794 29.8377 23.0111 29.7663 22.9408C29.6989 22.8735 29.6316 22.8063 29.5623 22.737C29.1934 22.3709 28.8167 22.0196 28.4231 21.6804C28.223 21.5059 28.0339 21.322 27.8465 21.134C27.7818 21.0695 27.7172 21.0051 27.6505 20.9387C27.3968 20.6661 27.3945 20.4592 27.3743 20.0914C27.432 19.8108 27.5184 19.7349 27.7551 19.5691C28.0644 19.4815 28.3779 19.4401 28.6961 19.397C28.8357 19.3764 28.8357 19.3764 28.9781 19.3554C29.2872 19.3103 29.5966 19.2675 29.9061 19.2249C30.0212 19.2088 30.1363 19.1926 30.2513 19.1764C30.9676 19.0754 31.6843 18.9769 32.4013 18.8808C32.4213 18.8128 32.4414 18.7448 32.4621 18.6748C32.6046 18.2772 32.788 17.9073 32.9763 17.5297C33.0156 17.4506 33.0548 17.3715 33.0953 17.29C33.178 17.1236 33.261 16.9573 33.3441 16.7911C33.4714 16.5362 33.5975 16.2808 33.7236 16.0253C33.8043 15.8635 33.885 15.7017 33.9658 15.54C34.0223 15.4252 34.0223 15.4252 34.0799 15.308C34.1155 15.2374 34.1511 15.1667 34.1878 15.0939C34.2188 15.0316 34.2498 14.9694 34.2817 14.9052C34.5029 14.5584 34.7691 14.5553 35.1515 14.5391ZM34.9825 16.9879C34.9605 17.0297 34.9385 17.0716 34.9158 17.1147C34.8847 17.1739 34.8536 17.2331 34.8215 17.294C34.7866 17.3604 34.7518 17.4267 34.7158 17.4951C34.6385 17.6419 34.5611 17.7887 34.4835 17.9355C34.2878 18.3059 34.0938 18.677 33.9046 19.0508C33.8706 19.1173 33.8365 19.1838 33.8014 19.2523C33.7367 19.3788 33.6728 19.5056 33.6097 19.6329C33.4434 19.9554 33.3447 20.1317 33.0036 20.2574C32.775 20.2987 32.5503 20.3333 32.3203 20.3623C32.2217 20.3756 32.2217 20.3756 32.121 20.3892C31.8406 20.4272 31.56 20.4637 31.2793 20.5003C31.0741 20.5272 30.8691 20.555 30.664 20.5828C30.5688 20.5947 30.5688 20.5947 30.4717 20.6069C30.1678 20.6483 29.9937 20.6866 29.734 20.8597C30.0079 21.1361 30.2823 21.412 30.5568 21.6878C30.6338 21.7656 30.7108 21.8433 30.7902 21.9234C31.1204 22.2548 31.4485 22.5825 31.8067 22.8837C32.1336 23.1618 32.1336 23.1618 32.1591 23.4473C32.168 24.1508 32.0569 24.8158 31.928 25.5059C31.8874 25.7281 31.8472 25.9504 31.807 26.1727C31.789 26.2699 31.771 26.367 31.7524 26.4671C31.706 26.7118 31.706 26.7118 31.7129 26.9686C32.2429 26.8245 32.6993 26.5513 33.1756 26.2856C33.4212 26.1497 33.6668 26.0139 33.913 25.8793C34.0756 25.7897 34.2364 25.6966 34.3963 25.6024C34.8302 25.4294 35.2011 25.4575 35.627 25.6216C35.7252 25.6746 35.8234 25.7276 35.9246 25.7822C36.0047 25.8245 36.0047 25.8245 36.0864 25.8677C36.2551 25.9573 36.4227 26.0488 36.5904 26.1404C36.7591 26.231 36.9281 26.3212 37.0972 26.4113C37.2501 26.493 37.4025 26.5757 37.5549 26.6585C37.7842 26.7771 38.0105 26.8782 38.252 26.9686C38.175 26.3462 38.0924 25.7281 37.9753 25.1119C37.6782 23.5351 37.6782 23.5351 37.9136 23.0988C38.0443 22.9371 38.1815 22.8032 38.3381 22.6666C38.386 22.6243 38.4339 22.582 38.4833 22.5385C38.592 22.444 38.7014 22.3503 38.8113 22.2572C39.3055 21.814 39.7647 21.3319 40.231 20.8597C39.925 20.6557 39.6595 20.6292 39.304 20.5858C39.1696 20.5679 39.0351 20.5501 38.9007 20.5322C38.6893 20.5049 38.4778 20.4779 38.2663 20.4512C38.0618 20.4252 37.8575 20.398 37.6531 20.3707C37.5589 20.3594 37.5589 20.3594 37.4627 20.3478C37.0947 20.2981 36.8188 20.2387 36.5312 19.9993C36.403 19.7926 36.297 19.5993 36.1941 19.3809C36.1646 19.3207 36.135 19.2606 36.1046 19.1986C36.0108 19.0072 35.9188 18.815 35.8268 18.6226C35.7335 18.4305 35.6399 18.2385 35.5462 18.0466C35.4881 17.9274 35.4303 17.808 35.3729 17.6884C35.2544 17.4426 35.1342 17.2154 34.9825 16.9879Z" fill="black"/>
<path d="M47.5413 20.0459C47.7997 20.1044 47.8869 20.2294 48.0606 20.4297C48.1918 20.6458 48.303 20.8703 48.4142 21.0972C48.4621 21.1933 48.4621 21.1933 48.5111 21.2913C48.5782 21.426 48.645 21.561 48.7115 21.6961C48.8136 21.9034 48.9168 22.1102 49.0202 22.3169C49.0853 22.4481 49.1504 22.5792 49.2154 22.7105C49.2464 22.7725 49.2773 22.8345 49.3091 22.8984C49.5233 23.3351 49.5233 23.3351 49.5233 23.5272C49.6305 23.541 49.7377 23.5549 49.8482 23.5691C50.2469 23.6209 50.6453 23.6746 51.0436 23.7288C51.2159 23.752 51.3882 23.7747 51.5606 23.7969C51.8088 23.8289 52.0566 23.8627 52.3045 23.8969C52.4197 23.9112 52.4197 23.9112 52.5373 23.9257C53.2941 24.0336 53.2941 24.0336 53.5672 24.3876C53.6388 24.6625 53.6397 24.887 53.5672 25.162C53.4068 25.3853 53.2048 25.5316 52.9844 25.6933C52.8633 25.7918 52.7428 25.8909 52.6228 25.9907C52.5606 26.0422 52.4983 26.0937 52.4342 26.1468C51.4051 26.9815 51.4051 26.9815 50.9144 28.1549C50.9121 28.9043 51.1125 29.6522 51.3576 30.3563C51.5009 30.771 51.5345 31.0959 51.5022 31.529C51.3248 31.7871 51.3248 31.7871 51.072 31.9592C50.5563 32.0164 50.2425 31.883 49.8049 31.6422C49.7438 31.61 49.6826 31.5777 49.6196 31.5445C49.4256 31.4419 49.2324 31.3377 49.0393 31.2332C48.8455 31.1293 48.6515 31.0258 48.4572 30.9229C48.3366 30.859 48.2164 30.7944 48.0966 30.7292C47.6695 30.4996 47.6695 30.4996 47.2002 30.4104C46.9873 30.4833 46.9873 30.4833 46.7804 30.6098C46.7016 30.654 46.6228 30.6983 46.5416 30.7439C46.4178 30.8158 46.4178 30.8158 46.2914 30.889C46.1209 30.9847 45.9504 31.0803 45.7799 31.1757C45.6982 31.2219 45.6165 31.2682 45.5324 31.3158C44.1885 32.075 44.1885 32.075 43.6725 31.9592C43.4198 31.7871 43.4198 31.7871 43.2423 31.529C43.2054 31.0344 43.2833 30.6539 43.446 30.1866C43.8783 28.8657 43.8783 28.8657 43.6591 27.5481C43.2428 26.9389 42.6866 26.458 42.1217 25.9907C42.0612 25.9404 42.0007 25.8901 41.9384 25.8382C41.8225 25.744 41.7044 25.6525 41.584 25.5641C41.3528 25.3831 41.2028 25.2584 41.1264 24.9688C41.106 24.6301 41.1307 24.448 41.3404 24.1763C41.7022 23.9963 42.0416 23.9463 42.4401 23.8969C42.5595 23.8804 42.5595 23.8804 42.6813 23.8636C42.9345 23.8291 43.1878 23.7964 43.4413 23.7638C43.6134 23.7406 43.7856 23.7173 43.9577 23.6939C44.3787 23.6369 44.7999 23.5816 45.2213 23.5272C45.2543 23.4194 45.2543 23.4194 45.288 23.3095C45.4036 22.9818 45.5475 22.6747 45.7022 22.3643C45.7319 22.3043 45.7616 22.2443 45.7922 22.1826C45.8547 22.0567 45.9174 21.9308 45.9803 21.8051C46.0764 21.6125 46.1714 21.4194 46.2664 21.2263C46.3274 21.1037 46.3885 20.9811 46.4497 20.8586C46.4779 20.8009 46.5062 20.7431 46.5353 20.6837C46.789 20.1812 46.9776 20.0698 47.5413 20.0459ZM47.3723 22.4947C47.3485 22.5406 47.3247 22.5865 47.3001 22.6338C47.19 22.8457 47.0795 23.0574 46.969 23.2691C46.9315 23.3413 46.8941 23.4135 46.8555 23.4879C46.7799 23.6325 46.7031 23.7765 46.6253 23.92C46.5518 24.0559 46.4803 24.1929 46.4115 24.3312C46.2242 24.6788 46.143 24.7954 45.759 24.9354C45.6375 24.9531 45.5156 24.9675 45.3933 24.9791C45.3295 24.9877 45.2656 24.9963 45.1998 25.0051C45.0695 25.0225 44.9391 25.0386 44.8086 25.0535C44.527 25.0868 44.2482 25.1329 43.9683 25.1781C43.8124 25.2016 43.6564 25.2249 43.5004 25.248C43.8892 25.7256 44.3165 26.156 44.756 26.5864C45.0903 26.9156 45.2342 27.0671 45.2428 27.5335C45.2407 28.051 45.1515 28.5425 45.0474 29.0476C44.9849 29.3619 44.9565 29.5879 45.0492 29.8942C45.1069 29.8634 45.1646 29.8326 45.224 29.8008C45.4863 29.6611 45.749 29.5222 46.0118 29.3833C46.1025 29.3348 46.1933 29.2863 46.2869 29.2363C46.3748 29.19 46.4627 29.1437 46.5532 29.096C46.6339 29.0532 46.7145 29.0104 46.7976 28.9663C47.1105 28.8244 47.3294 28.735 47.6648 28.8408C47.735 28.8756 47.8052 28.9105 47.8774 28.9464C47.9941 29.0033 47.9941 29.0033 48.1132 29.0614C48.1935 29.1019 48.2737 29.1425 48.3564 29.1844C48.4762 29.2433 48.4762 29.2433 48.5985 29.3033C48.8214 29.4131 49.0434 29.5243 49.2652 29.6361C49.3701 29.6885 49.4751 29.741 49.5801 29.7934C49.6465 29.8266 49.713 29.8599 49.7814 29.8942C49.7547 29.6737 49.7278 29.4532 49.7008 29.2328C49.6933 29.1707 49.6858 29.1087 49.6781 29.0447C49.6706 28.984 49.6631 28.9233 49.6554 28.8607C49.6486 28.8053 49.6419 28.7499 49.6349 28.6928C49.6163 28.565 49.593 28.4379 49.5671 28.3114C49.4623 27.7758 49.3686 27.2878 49.685 26.8114C49.9078 26.572 50.1394 26.3527 50.3837 26.1353C50.5451 25.9845 50.7064 25.8336 50.8677 25.6826C50.9398 25.6175 51.0119 25.5524 51.0862 25.4854C51.1383 25.4354 51.1904 25.3855 51.2441 25.334C51.2441 25.3057 51.2441 25.2773 51.2441 25.248C51.176 25.2389 51.1079 25.2299 51.0377 25.2205C50.7281 25.1787 50.4188 25.1354 50.1095 25.0921C50.0023 25.0778 49.8951 25.0635 49.7846 25.0489C49.6812 25.0342 49.5778 25.0195 49.4712 25.0043C49.3761 24.9913 49.2811 24.9782 49.1831 24.9647C48.81 24.8781 48.5736 24.7695 48.3578 24.4467C48.3215 24.3704 48.2852 24.2941 48.2478 24.2155C48.2073 24.1321 48.1667 24.0487 48.125 23.9628C48.0638 23.8323 48.0638 23.8323 48.0015 23.6993C47.9188 23.5271 47.836 23.355 47.7531 23.183C47.7171 23.1067 47.6811 23.0304 47.644 22.9518C47.5418 22.7374 47.5418 22.7374 47.3723 22.4947Z" fill="black"/>
<path d="M22.7616 20.0459C23.0199 20.1044 23.1071 20.2294 23.2808 20.4297C23.4121 20.6458 23.5232 20.8703 23.6344 21.0972C23.6824 21.1933 23.6824 21.1933 23.7313 21.2913C23.7984 21.426 23.8652 21.561 23.9317 21.6961C24.0338 21.9034 24.137 22.1102 24.2404 22.3169C24.3055 22.4481 24.3706 22.5792 24.4357 22.7105C24.4666 22.7725 24.4975 22.8345 24.5293 22.8984C24.7435 23.3351 24.7435 23.3351 24.7435 23.5272C24.8507 23.541 24.9579 23.5549 25.0684 23.5691C25.4671 23.6209 25.8655 23.6746 26.2638 23.7288C26.4361 23.752 26.6084 23.7747 26.7808 23.7969C27.029 23.8289 27.2768 23.8627 27.5247 23.8969C27.64 23.9112 27.64 23.9112 27.7575 23.9257C28.5143 24.0336 28.5143 24.0336 28.7874 24.3876C28.859 24.6625 28.8599 24.887 28.7874 25.162C28.627 25.3853 28.4251 25.5316 28.2046 25.6933C28.0835 25.7918 27.963 25.8909 27.843 25.9907C27.7808 26.0422 27.7185 26.0937 27.6544 26.1468C26.6254 26.9815 26.6254 26.9815 26.1346 28.1549C26.1323 28.9043 26.3328 29.6522 26.5779 30.3563C26.7211 30.771 26.7548 31.0959 26.7225 31.529C26.545 31.7871 26.545 31.7871 26.2922 31.9592C25.7765 32.0164 25.4627 31.883 25.0252 31.6422C24.964 31.61 24.9029 31.5777 24.8399 31.5445C24.6458 31.4419 24.4526 31.3377 24.2595 31.2332C24.0657 31.1293 23.8717 31.0258 23.6774 30.9229C23.5568 30.859 23.4366 30.7944 23.3168 30.7292C22.8897 30.4996 22.8897 30.4996 22.4204 30.4104C22.2076 30.4833 22.2076 30.4833 22.0006 30.6098C21.9218 30.654 21.843 30.6983 21.7619 30.7439C21.638 30.8158 21.638 30.8158 21.5116 30.889C21.3411 30.9847 21.1706 31.0803 21.0001 31.1757C20.9184 31.2219 20.8368 31.2682 20.7526 31.3158C19.4087 32.075 19.4087 32.075 18.8927 31.9592C18.64 31.7871 18.64 31.7871 18.4625 31.529C18.4257 31.0344 18.5035 30.6539 18.6662 30.1866C19.0985 28.8657 19.0985 28.8657 18.8793 27.5481C18.4631 26.9389 17.9068 26.458 17.342 25.9907C17.2814 25.9404 17.2209 25.8901 17.1586 25.8382C17.0427 25.744 16.9247 25.6525 16.8042 25.5641C16.573 25.3831 16.423 25.2584 16.3466 24.9688C16.3262 24.6301 16.351 24.448 16.5606 24.1763C16.9224 23.9963 17.2618 23.9463 17.6603 23.8969C17.7797 23.8804 17.7797 23.8804 17.9015 23.8636C18.1547 23.8291 18.4081 23.7964 18.6615 23.7638C18.8337 23.7406 19.0058 23.7173 19.1779 23.6939C19.5989 23.6369 20.0201 23.5816 20.4415 23.5272C20.4745 23.4194 20.4745 23.4194 20.5082 23.3095C20.6238 22.9818 20.7678 22.6747 20.9224 22.3643C20.9521 22.3043 20.9818 22.2443 21.0124 22.1826C21.075 22.0567 21.1377 21.9308 21.2005 21.8051C21.2966 21.6125 21.3916 21.4194 21.4866 21.2263C21.5476 21.1037 21.6087 20.9811 21.6699 20.8586C21.6982 20.8009 21.7264 20.7431 21.7555 20.6837C22.0092 20.1812 22.1978 20.0698 22.7616 20.0459ZM22.5925 22.4947C22.5687 22.5406 22.5449 22.5865 22.5203 22.6338C22.4102 22.8457 22.2997 23.0574 22.1892 23.2691C22.1517 23.3413 22.1143 23.4135 22.0757 23.4879C22.0001 23.6325 21.9233 23.7765 21.8456 23.92C21.772 24.0559 21.7005 24.1929 21.6317 24.3312C21.4444 24.6788 21.3632 24.7954 20.9792 24.9354C20.8577 24.9531 20.7358 24.9675 20.6136 24.9791C20.5497 24.9877 20.4858 24.9963 20.42 25.0051C20.2897 25.0225 20.1593 25.0386 20.0288 25.0535C19.7472 25.0868 19.4684 25.1329 19.1885 25.1781C19.0326 25.2016 18.8766 25.2249 18.7207 25.248C19.1094 25.7256 19.5367 26.156 19.9762 26.5864C20.3105 26.9156 20.4544 27.0671 20.463 27.5335C20.4609 28.051 20.3717 28.5425 20.2676 29.0476C20.2051 29.3619 20.1767 29.5879 20.2694 29.8942C20.3271 29.8634 20.3848 29.8326 20.4442 29.8008C20.7065 29.6611 20.9692 29.5222 21.232 29.3833C21.3228 29.3348 21.4135 29.2863 21.5071 29.2363C21.595 29.19 21.6829 29.1437 21.7734 29.096C21.8541 29.0532 21.9347 29.0104 22.0178 28.9663C22.3307 28.8244 22.5496 28.735 22.885 28.8408C22.9552 28.8756 23.0254 28.9105 23.0976 28.9464C23.2144 29.0033 23.2144 29.0033 23.3334 29.0614C23.4137 29.1019 23.4939 29.1425 23.5766 29.1844C23.6965 29.2433 23.6965 29.2433 23.8187 29.3033C24.0416 29.4131 24.2636 29.5243 24.4854 29.6361C24.5904 29.6885 24.6953 29.741 24.8003 29.7934C24.8668 29.8266 24.9332 29.8599 25.0016 29.8942C24.9749 29.6737 24.948 29.4532 24.921 29.2328C24.9135 29.1707 24.906 29.1087 24.8983 29.0447C24.8908 28.984 24.8833 28.9233 24.8756 28.8607C24.8688 28.8053 24.8621 28.7499 24.8551 28.6928C24.8365 28.565 24.8132 28.4379 24.7874 28.3114C24.6825 27.7758 24.5888 27.2878 24.9052 26.8114C25.128 26.572 25.3596 26.3527 25.6039 26.1353C25.7653 25.9845 25.9267 25.8336 26.0879 25.6826C26.16 25.6175 26.2321 25.5524 26.3064 25.4854C26.3585 25.4354 26.4106 25.3855 26.4643 25.334C26.4643 25.3057 26.4643 25.2773 26.4643 25.248C26.3962 25.2389 26.3281 25.2299 26.2579 25.2205C25.9483 25.1787 25.639 25.1354 25.3297 25.0921C25.2225 25.0778 25.1153 25.0635 25.0048 25.0489C24.9014 25.0342 24.798 25.0195 24.6914 25.0043C24.5963 24.9913 24.5013 24.9782 24.4033 24.9647C24.0303 24.8781 23.7938 24.7695 23.578 24.4467C23.5417 24.3704 23.5054 24.2941 23.468 24.2155C23.4275 24.1321 23.387 24.0487 23.3452 23.9628C23.284 23.8323 23.284 23.8323 23.2217 23.6993C23.139 23.5271 23.0562 23.355 22.9733 23.183C22.9373 23.1067 22.9013 23.0304 22.8642 22.9518C22.762 22.7374 22.762 22.7374 22.5925 22.4947Z" fill="black"/>
<path d="M35.3265 53.1248C35.5416 53.2539 35.5416 53.2539 35.6707 53.469C35.7387 53.815 35.7242 54.0682 35.5416 54.3724C35.2374 54.555 34.9842 54.5695 34.6382 54.5015C34.4231 54.3724 34.4231 54.3724 34.294 54.1573C34.226 53.8114 34.2405 53.5581 34.4231 53.2539C34.7273 53.0714 34.9805 53.0568 35.3265 53.1248Z" fill="black"/>
</svg>
