<svg width="300" height="300" viewBox="0 0 300 300" fill="none" xmlns="http://www.w3.org/2000/svg">
<path d="M143.334 116.667H156.667V120H143.334V116.667ZM143.334 76.6666H156.667V80H143.334V76.6666ZM143.334 136.667H156.667V140H143.334V136.667Z" stroke="black" stroke-width="6"/>
<path d="M236.833 152.887V156.22H240.166C241.888 156.22 243.541 156.905 244.76 158.127C245.98 159.349 246.666 161.007 246.666 162.738V182.44C246.666 184.17 245.98 185.829 244.76 187.051C243.541 188.272 241.888 188.958 240.166 188.958H236.833V192.291V228.405C205.359 229.21 175.18 241.166 151.669 262.149C128.179 241.128 97.9844 229.165 66.4994 228.401V192.291V188.958H63.166C61.444 188.958 59.7913 188.272 58.572 187.051C57.3523 185.829 56.666 184.17 56.666 182.44V162.738C56.666 161.007 57.3523 159.349 58.572 158.127C59.7913 156.905 61.444 156.22 63.166 156.22H66.4994V152.887V126.71C94.5157 127.448 121.52 137.548 143.19 155.456L144.115 156.22H145.314H158.018H159.217L160.142 155.456C181.812 137.548 208.816 127.448 236.833 126.71V152.887Z" stroke="black" stroke-width="6"/>
<path d="M126.667 73.3333C126.667 77.0153 123.683 80 120.001 80C116.319 80 113.334 77.0153 113.334 73.3333C113.334 69.6513 116.319 66.6666 120.001 66.6666C123.683 66.6666 126.667 69.6513 126.667 73.3333Z" stroke="black" stroke-width="6"/>
<path d="M186.667 73.3333C186.667 77.0153 183.683 80 180.001 80C176.319 80 173.334 77.0153 173.334 73.3333C173.334 69.6513 176.319 66.6666 180.001 66.6666C183.683 66.6666 186.667 69.6513 186.667 73.3333Z" stroke="black" stroke-width="6"/>
<path d="M110.001 50C106.466 50.0036 103.075 51.409 100.576 53.9083C98.0763 56.4073 96.671 59.7956 96.6673 63.33V83.3333C96.671 86.8676 98.0763 90.2593 100.576 92.7586C103.075 95.2576 106.463 96.663 109.997 96.6666H190.001C193.535 96.663 196.927 95.2576 199.426 92.7583C201.925 90.2593 203.33 86.871 203.334 83.3366V63.3333C203.33 59.799 201.925 56.4073 199.426 53.9083C196.927 51.409 193.538 50.0036 190.004 50H110.001ZM189.997 110H110.004C102.933 109.993 96.1533 107.181 91.1533 102.181C86.1537 97.181 83.3413 90.402 83.334 83.3316V63.335C83.3413 56.2646 86.1537 49.4856 91.1533 44.486C96.153 39.4863 102.932 36.674 110.002 36.6666H189.999C197.069 36.674 203.848 39.4863 208.848 44.486C213.848 49.486 216.66 56.2656 216.667 63.3366V83.33C216.66 90.401 213.848 97.1806 208.848 102.181C203.848 107.181 197.068 109.993 189.997 110Z" stroke="black" stroke-width="6"/>
</svg>
