<svg width="300" height="300" viewBox="0 0 300 300" fill="none" xmlns="http://www.w3.org/2000/svg">
<path d="M176.995 206.157L224.82 253.674L224.826 253.681C233.257 262.106 247.074 262.106 255.505 253.681L255.552 253.634L255.601 253.589C265.758 244.22 265.516 230.541 257.168 222.199L257.161 222.192L209.612 174.391C209.61 174.39 209.609 174.389 209.608 174.388C205.931 170.716 200.906 169.468 196.98 170.775L195.135 171.39L193.692 170.086L182.075 159.591L179.817 157.551L181.644 155.117C182.497 153.98 182.967 152.462 182.967 150.985C182.967 149.479 182.491 148.407 181.952 147.865C181.951 147.864 181.95 147.863 181.95 147.862L178.639 144.563L178.612 144.536L178.587 144.51C178.094 143.996 177.501 143.587 176.846 143.307C176.19 143.028 175.485 142.884 174.772 142.884C174.059 142.884 173.353 143.028 172.698 143.307C172.042 143.587 171.45 143.996 170.957 144.51L170.933 144.535L170.908 144.559L165.104 150.36L162.748 152.714L160.391 150.36L79.381 69.4046L78.198 68.2223L78.4387 66.567L80.0423 55.54L48.8273 37.5023L40.8347 45.49L58.8847 76.6836L69.92 75.0663L71.5757 74.8233L72.7597 76.0066L153.77 156.97L156.177 159.376L153.722 161.733L146.838 168.339C144.623 170.573 144.631 173.805 146.86 176.033L146.863 176.036L150.454 179.633M176.995 206.157C176.995 206.156 176.996 206.157 176.995 206.157ZM176.995 206.157C173.585 202.748 172.728 197.682 173.503 193.033L173.786 191.339L172.57 190.126L162.059 179.631L159.342 176.918L157.038 179.989C155.881 181.531 152.909 182.085 150.454 179.633M150.454 179.633C150.453 179.633 150.454 179.634 150.454 179.633ZM225.369 101.173L199.672 75.5016C198.521 74.3923 197.605 73.063 196.977 71.5926C196.345 70.111 196.019 68.5166 196.019 66.9053C196.019 65.2943 196.345 63.7 196.977 62.218C197.605 60.7476 198.521 59.4183 199.672 58.3086L221.035 36.9746C220.871 36.9586 220.704 36.9433 220.536 36.929C212.565 36.268 202.991 38.585 193.919 42.445C184.903 46.2813 176.778 51.4736 171.696 56.1766C165.713 62.1763 163.289 68.9593 163.469 76.1493C163.651 83.4723 166.549 91.4413 171.646 99.5316L173.065 101.784L171.183 103.666L154.614 120.231L163.761 130.511C171.903 125.291 182.607 125.955 190.096 132.504L190.178 132.576L190.255 132.653L192.333 134.724L197.72 129.34L199.543 127.518L201.765 128.824C209.419 133.321 216.986 135.744 223.955 135.679C230.83 135.614 237.333 133.132 243.065 127.403L243.109 127.36L243.154 127.318C248.892 121.994 255.097 112.499 259.094 102.222C262.178 94.2936 263.756 86.3963 263.14 79.8813L242.56 101.134L242.541 101.154L242.522 101.173C237.681 106.01 230.21 106.01 225.369 101.173ZM225.369 101.173C225.37 101.173 225.369 101.173 225.369 101.173ZM93.7637 178.264L123.486 148.571L134.012 159.083C128.704 167.259 129.313 178.28 136.733 185.84L137.581 186.944L120.851 203.663L119.444 205.069L120.013 206.974C121.15 210.789 121.811 214.827 121.811 219.01C121.811 241.923 103.841 259.885 80.9057 259.885C57.9707 259.885 40 241.923 40 219.01C40 196.096 57.9707 178.134 80.9057 178.135L80.9347 178.134C84.2133 178.105 87.4847 178.45 90.6853 179.16L92.4703 179.557L93.7637 178.264ZM249.715 235.166L197.463 182.959C197.461 182.957 197.458 182.954 197.456 182.952C195.695 181.179 193.617 180.866 192.06 180.866C190.696 180.866 188.231 181.104 186.386 182.947C183.314 186.017 183.314 190.941 186.386 194.011L238.632 246.23C241.703 249.299 246.644 249.3 249.715 246.231C252.788 243.16 252.788 238.237 249.715 235.166ZM89.3497 193.708L87.993 192.352L86.139 192.843L63.1877 198.926L61.3167 199.422L60.82 201.293L54.7327 224.22L54.24 226.076L55.5983 227.433L72.471 244.294L73.8277 245.65L75.6813 245.158L98.6237 239.075L100.495 238.579L100.991 236.709L107.078 213.782L107.571 211.927L106.214 210.569L89.3497 193.708Z" stroke="black" stroke-width="6"/>
</svg>
