<svg width="262" height="262" viewBox="0 0 262 262" fill="none" xmlns="http://www.w3.org/2000/svg">
<path fill-rule="evenodd" clip-rule="evenodd" d="M160.635 113.8C161.227 114.39 161.696 115.091 162.016 115.863C162.337 116.634 162.501 117.462 162.501 118.297C162.501 119.133 162.337 119.96 162.016 120.731C161.696 121.503 161.227 122.204 160.635 122.794L122.526 160.903C121.936 161.495 121.235 161.964 120.463 162.284C119.692 162.604 118.865 162.769 118.029 162.769C117.194 162.769 116.367 162.604 115.595 162.284C114.823 161.964 114.122 161.495 113.532 160.903L94.4778 141.848C93.8871 141.258 93.4187 140.557 93.0991 139.785C92.7797 139.014 92.6152 138.187 92.6152 137.352C92.6152 136.517 92.7797 135.689 93.0991 134.918C93.4187 134.146 93.8871 133.445 94.4778 132.855C95.0684 132.264 95.7694 131.796 96.5409 131.476C97.3126 131.157 98.1396 130.992 98.9746 130.992C99.8098 130.992 100.637 131.157 101.408 131.476C102.18 131.796 102.881 132.264 103.472 132.855L118.029 147.425L151.641 113.8C152.232 113.209 152.933 112.739 153.704 112.419C154.476 112.099 155.303 111.934 156.138 111.934C156.974 111.934 157.801 112.099 158.573 112.419C159.344 112.739 160.045 113.209 160.635 113.8Z" stroke="black" stroke-width="6"/>
<path d="M85.0809 78.1808C97.7775 67.2324 113.971 61.186 130.736 61.1333C164.907 61.1333 193.273 86.5394 196.36 119.3C216.583 122.159 232.36 139.092 232.36 159.874C232.36 182.689 213.331 200.867 190.275 200.867H77.1418C50.8081 200.867 29.1113 180.11 29.1113 154.094C29.1113 131.699 45.1935 113.152 66.4839 108.452C68.3004 97.4896 75.3505 86.5648 85.0809 78.1808ZM93.3761 87.797C83.7599 96.0923 78.7295 106.09 78.7295 113.915V119.606L73.0767 120.228C55.3305 122.171 41.8143 136.742 41.8143 154.094C41.8143 172.73 57.4391 188.164 77.1418 188.164H190.275C206.7 188.164 219.657 175.309 219.657 159.874C219.657 144.427 206.7 131.572 190.275 131.572H183.924V125.22C183.936 97.0194 160.309 73.8362 130.736 73.8362C117.015 73.8912 103.765 78.8468 93.3761 87.8099V87.797Z" stroke="black" stroke-width="6"/>
</svg>
