<svg width="300" height="300" viewBox="0 0 300 300" fill="none" xmlns="http://www.w3.org/2000/svg">
<path d="M185.334 155.185H137.334C135.212 155.185 133.177 156.024 131.677 157.517C130.177 159.011 129.334 161.036 129.334 163.148V187.037H113.334V131.296C113.334 129.184 112.491 127.159 110.991 125.666C109.491 124.172 107.456 123.333 105.334 123.333H41.334C39.2123 123.333 37.1773 124.172 35.677 125.666C34.177 127.159 33.334 129.184 33.334 131.296V258.704C33.334 260.816 34.177 262.841 35.677 264.334C37.1773 265.828 39.2123 266.667 41.334 266.667H185.334C187.456 266.667 189.491 265.828 190.991 264.334C192.491 262.841 193.334 260.816 193.334 258.704V163.148C193.334 161.036 192.491 159.011 190.991 157.517C189.491 156.024 187.456 155.185 185.334 155.185ZM81.334 147.222H97.334V163.148H81.334V147.222ZM65.334 226.852H49.334V210.926H65.334V226.852ZM65.334 195H49.334V179.074H65.334V195ZM65.334 163.148H49.334V147.222H65.334V163.148ZM97.334 226.852H81.334V210.926H97.334V226.852ZM97.334 195H81.334V179.074H97.334V195ZM169.334 226.852H153.334V210.926H169.334V226.852ZM169.334 195H153.334V179.074H169.334V195Z" stroke="black" stroke-width="6"/>
<path d="M256.4 129.375L263.333 123.343L257.252 112.908L248.434 115.863C246.488 114.235 244.299 112.968 241.867 112.063L240.043 103.016H227.881L226.056 112.003C223.624 112.908 221.435 114.175 219.489 115.803L210.671 112.848L204.59 123.283L211.523 129.314C211.036 132.33 211.036 133.898 211.523 136.914L204.59 142.946L210.671 153.381L219.489 150.425C221.435 152.054 223.624 153.321 226.056 154.225L227.881 163.333H240.043L241.867 154.346C244.299 153.441 246.488 152.175 248.434 150.546L257.252 153.502L263.333 143.067L256.4 137.035C256.887 133.959 256.887 132.39 256.4 129.375ZM233.962 145.238C227.272 145.238 221.8 139.81 221.8 133.175C221.8 126.54 227.272 121.111 233.962 121.111C240.651 121.111 246.124 126.54 246.124 133.175C246.124 139.81 240.651 145.238 233.962 145.238ZM185.314 60.7937V93.4254L199.665 107.66L205.989 96.8634L197.476 88.4794V60.7937H185.314ZM246.124 90.9524C246.124 76.555 240.357 62.747 230.094 52.5667C219.83 42.386 205.91 36.6667 191.395 36.6667C174.186 36.6667 158.862 44.6287 148.828 56.9334V42.6984H136.666V78.889H173.152V66.8254H156.49C160.412 61.2474 165.633 56.6897 171.709 53.5397C177.786 50.3894 184.538 48.7397 191.395 48.73C214.867 48.73 233.962 67.67 233.962 90.9524H246.124ZM184.462 132.632C166.28 129.676 151.929 115.14 149.314 96.984H137.031C140.071 124.127 163.24 145.238 191.395 145.238H191.82L184.462 132.632Z" stroke="black" stroke-width="6"/>
</svg>
