<svg width="44" height="44" viewBox="0 0 44 44" fill="none" xmlns="http://www.w3.org/2000/svg">
<mask id="mask0_1294_74" style="mask-type:luminance" maskUnits="userSpaceOnUse" x="8" y="8" width="28" height="28">
<path d="M35.5 35.5V8.5H8.5V35.5H35.5Z" fill="white" stroke="white"/>
<mask id="path-2-inside-1_1294_74" fill="white">
<path d="M36 36V8.00002H8V36H36ZM8.54688 8.5469H35.4531V35.4531H8.54688V8.5469Z"/>
</mask>
<path d="M36 36V8.00002H8V36H36ZM8.54688 8.5469H35.4531V35.4531H8.54688V8.5469Z" fill="white"/>
<path d="M36 36H37V37H36V36ZM36 8.00002V7.00002H37V8.00002H36ZM8 8.00002H7V7.00002H8V8.00002ZM8 36V37H7V36H8ZM8.54688 8.5469H7.54688V7.5469H8.54688V8.5469ZM35.4531 8.5469V7.5469H36.4531V8.5469H35.4531ZM35.4531 35.4531H36.4531V36.4531H35.4531V35.4531ZM8.54688 35.4531V36.4531H7.54688V35.4531H8.54688ZM36 36H35V8.00002H36H37V36H36ZM36 8.00002V9.00002H8V8.00002V7.00002H36V8.00002ZM8 8.00002H9V36H8H7V8.00002H8ZM8 36V35H36V36V37H8V36ZM8.54688 8.5469V7.5469H35.4531V8.5469V9.5469H8.54688V8.5469ZM35.4531 8.5469H36.4531V35.4531H35.4531H34.4531V8.5469H35.4531ZM35.4531 35.4531V36.4531H8.54688V35.4531V34.4531H35.4531V35.4531ZM8.54688 35.4531H7.54688V8.5469H8.54688H9.54688V35.4531H8.54688Z" fill="white" mask="url(#path-2-inside-1_1294_74)"/>
</mask>
<g mask="url(#mask0_1294_74)">
<path d="M24.3625 33.4221C24.3625 34.2416 23.6981 34.906 22.8786 34.906H21.1214C20.3019 34.906 19.6375 34.2416 19.6375 33.4221V32.2109C19.6375 32.0862 19.5531 31.9773 19.4324 31.9461C18.5024 31.7061 17.6109 31.3361 16.7843 30.847C16.6769 30.7834 16.54 30.8007 16.4517 30.889L15.5936 31.747C15.4559 31.8849 15.2923 31.9942 15.1122 32.0688C14.9322 32.1434 14.7392 32.1818 14.5443 32.1818H14.5442C14.3494 32.1818 14.1565 32.1434 13.9765 32.0688C13.7965 31.9942 13.633 31.8849 13.4953 31.747L12.2528 30.5046L12.2527 30.5045C12.1148 30.3668 12.0055 30.2032 11.9309 30.0233C11.8564 29.8433 11.8179 29.6504 11.8179 29.4556V29.4554C11.8179 29.2605 11.8563 29.0675 11.9309 28.8875C12.0008 28.7187 12.1013 28.5643 12.2272 28.4322L12.2527 28.406L13.1108 27.548C13.1991 27.4597 13.2163 27.3228 13.1528 27.2154C12.6637 26.3888 12.2937 25.4973 12.0536 24.5674C12.0224 24.4466 11.9135 24.3622 11.7888 24.3622H10.5776C9.75816 24.3622 9.09375 23.6978 9.09375 22.8784V21.1211C9.09376 20.3017 9.75817 19.6373 10.5776 19.6373H11.7888L11.8005 19.637C11.9202 19.6319 12.0234 19.5491 12.0536 19.4322C12.2937 18.5022 12.6637 17.6107 13.1528 16.784C13.2163 16.6766 13.1991 16.5397 13.1108 16.4514L12.2528 15.5935L12.2527 15.5934C12.1148 15.4557 12.0055 15.2921 11.9309 15.112C11.8563 14.932 11.8179 14.7389 11.8179 14.544L11.8184 14.5075C11.8229 14.3251 11.861 14.145 11.9309 13.9762C12.0009 13.8075 12.1013 13.6532 12.2272 13.5212L12.2527 13.495L13.4953 12.2524L13.5214 12.2269C13.6535 12.1011 13.8078 12.0006 13.9765 11.9307C14.1565 11.8561 14.3494 11.8177 14.5442 11.8177H14.5443L14.5808 11.8181C14.7633 11.8226 14.9434 11.8607 15.1122 11.9306C15.2923 12.0052 15.4559 12.1146 15.5936 12.2524L15.5937 12.2525L16.4517 13.1106L16.4601 13.1186C16.5485 13.1998 16.6802 13.2141 16.7843 13.1525C17.6109 12.6635 18.5024 12.2934 19.4324 12.0533C19.5531 12.0222 19.6375 11.9133 19.6375 11.7886V10.5774C19.6375 9.7579 20.3019 9.09354 21.1214 9.09354H22.8786C23.6981 9.09354 24.3625 9.75791 24.3625 10.5774V11.7886C24.3625 11.9132 24.4468 12.0222 24.5676 12.0533C25.4976 12.2934 26.3891 12.6635 27.2157 13.1525L27.2259 13.1583C27.3317 13.215 27.4628 13.196 27.5483 13.1105L28.4063 12.2524L28.4324 12.2269C28.5646 12.101 28.7189 12.0006 28.8877 11.9306C29.0678 11.856 29.2608 11.8177 29.4557 11.8177L29.4922 11.8181C29.6746 11.8226 29.8548 11.8607 30.0235 11.9307C30.2035 12.0053 30.367 12.1146 30.5047 12.2524L30.5048 12.2525L31.7472 13.4949L31.7473 13.495L31.7728 13.5212C31.8986 13.6532 31.9991 13.8075 32.069 13.9762C32.1436 14.1562 32.182 14.3492 32.182 14.544V14.5441L32.1816 14.5806C32.1771 14.763 32.139 14.9432 32.0691 15.112C31.9945 15.2921 31.8851 15.4557 31.7473 15.5934L30.8892 16.4515C30.8009 16.5398 30.7836 16.6766 30.8472 16.784C31.3363 17.6107 31.7063 18.5022 31.9464 19.4322L31.9496 19.4434C31.9844 19.5581 32.0904 19.6373 32.2112 19.6373H33.4223C34.2418 19.6373 34.9062 20.3017 34.9062 21.1211V22.8784C34.9062 23.6978 34.2418 24.3622 33.4223 24.3622H32.2112C32.0865 24.3622 31.9776 24.4466 31.9465 24.5673C31.7063 25.4973 31.3363 26.3888 30.8472 27.2154C30.7836 27.3228 30.8009 27.4597 30.8892 27.548L31.7472 28.406L31.7473 28.4061L31.7728 28.4322C31.8987 28.5643 31.9992 28.7187 32.0691 28.8875C32.1437 29.0675 32.182 29.2605 32.182 29.4554V29.4556L32.1816 29.492C32.1771 29.6744 32.139 29.8545 32.069 30.0233C31.9944 30.2032 31.8851 30.3667 31.7473 30.5044L31.7472 30.5046L30.5047 31.747C30.367 31.8849 30.2035 31.9942 30.0235 32.0688C29.8435 32.1434 29.6506 32.1818 29.4558 32.1818H29.4557C29.2608 32.1818 29.0678 32.1434 28.8877 32.0688C28.7077 31.9942 28.5441 31.8849 28.4063 31.747L28.4062 31.7469L27.5483 30.889C27.4601 30.8007 27.3232 30.7834 27.2157 30.847C26.4149 31.3208 25.5533 31.6828 24.6547 31.9232L24.5676 31.9461C24.4469 31.9773 24.3625 32.0862 24.3625 32.2109V33.4221ZM24.9094 32.4205C25.7469 32.1866 26.553 31.852 27.31 31.4241L28.0195 32.1336C28.2081 32.3223 28.432 32.472 28.6784 32.5741C28.9248 32.6762 29.189 32.7287 29.4558 32.7286C29.7225 32.7287 29.9865 32.6761 30.2329 32.574C30.4792 32.4719 30.7031 32.3222 30.8916 32.1336L32.1338 30.8914L32.1687 30.8556C32.341 30.6748 32.4785 30.4636 32.5743 30.2327C32.6763 29.9863 32.7289 29.7223 32.7289 29.4556L32.7283 29.4056C32.7222 29.1559 32.67 28.9092 32.5743 28.6782C32.4722 28.4318 32.3225 28.2079 32.1339 28.0194L32.1339 28.0193L31.4243 27.3098C31.8522 26.5527 32.1868 25.7466 32.4208 24.9091H33.4223C34.5438 24.9091 35.4531 23.9999 35.4531 22.8784V21.1211C35.4531 19.9996 34.5438 19.0904 33.4223 19.0904H32.4208C32.1868 18.2529 31.8522 17.4468 31.4243 16.6898L32.1339 15.9802C32.3226 15.7916 32.4722 15.5677 32.5743 15.3213C32.6764 15.0749 32.7289 14.8108 32.7289 14.544L32.7283 14.494C32.7221 14.2444 32.67 13.9978 32.5743 13.7669C32.4722 13.5205 32.3225 13.2968 32.1339 13.1083L32.1339 13.1083L30.8915 11.8659L30.8916 11.8659C30.7031 11.6772 30.4792 11.5276 30.2329 11.4255C29.9865 11.3234 29.7225 11.2709 29.4558 11.2709C29.189 11.2708 28.9249 11.3233 28.6784 11.4254C28.432 11.5275 28.2081 11.6772 28.0195 11.8659L27.31 12.5754C26.553 12.1475 25.7469 11.813 24.9094 11.579V10.5774C24.9094 9.45586 24.0001 8.54666 22.8786 8.54666H21.1214C19.9999 8.54666 19.0906 9.45587 19.0906 10.5774V11.579C18.2531 11.813 17.447 12.1475 16.6899 12.5754L15.9804 11.8659L15.9805 11.8659C15.7919 11.6772 15.568 11.5275 15.3216 11.4254C15.0751 11.3233 14.811 11.2708 14.5443 11.2709C14.2776 11.2709 14.0135 11.3233 13.7671 11.4255C13.5208 11.5275 13.297 11.6772 13.1085 11.8658L11.8661 13.1082C11.6775 13.2967 11.5278 13.5205 11.4257 13.7669C11.33 13.9978 11.2778 14.2444 11.2717 14.494L11.2711 14.544C11.271 14.8107 11.3235 15.0749 11.4256 15.3213C11.5277 15.5678 11.6774 15.7917 11.8661 15.9802L12.5757 16.6898C12.1478 17.4468 11.8132 18.2529 11.5792 19.0904H10.5776C9.45615 19.0904 8.54688 19.9996 8.54688 21.1211V22.8784C8.54688 23.9999 9.45614 24.9091 10.5776 24.9091H11.5792C11.8132 25.7466 12.1477 26.5527 12.5757 27.3098L11.8661 28.0193C11.6774 28.2078 11.5278 28.4318 11.4257 28.6782C11.3236 28.9246 11.271 29.1888 11.2711 29.4556C11.2711 29.7222 11.3236 29.9863 11.4257 30.2327C11.5278 30.479 11.6775 30.7028 11.8661 30.8913L13.1085 32.1336C13.297 32.3223 13.5208 32.4719 13.7671 32.574C14.0134 32.6761 14.2775 32.7287 14.5441 32.7286H14.5443C14.811 32.7287 15.0751 32.6762 15.3216 32.5741C15.568 32.472 15.7919 32.3223 15.9805 32.1336L16.69 31.4241C17.447 31.852 18.2531 32.1866 19.0906 32.4205V33.4221C19.0906 34.5436 19.9998 35.4529 21.1214 35.4529H22.8786C24.0001 35.4529 24.9094 34.5436 24.9094 33.4221V32.4205Z" fill="black" stroke="black" stroke-miterlimit="10" stroke-linecap="round" stroke-linejoin="round"/>
<path d="M26.9984 21.9999C26.9984 24.7584 24.7585 26.9983 21.9999 26.9983C19.2413 26.9983 17.0015 24.7584 17.0015 21.9999C17.0015 19.2412 19.2413 17.0014 21.9999 17.0014C24.7585 17.0014 26.9984 19.2412 26.9984 21.9999ZM27.5452 21.9999C27.5452 18.9392 25.0606 16.4545 21.9999 16.4545C18.9392 16.4545 16.4546 18.9392 16.4546 21.9999C16.4546 25.0605 18.9392 27.5452 21.9999 27.5452C25.0605 27.5452 27.5452 25.0605 27.5452 21.9999Z" fill="black" stroke="black" stroke-miterlimit="10" stroke-linecap="round" stroke-linejoin="round"/>
</g>
</svg>
