<svg width="44" height="44" viewBox="0 0 44 44" fill="none" xmlns="http://www.w3.org/2000/svg">
<path d="M30.3924 36.9999H12.2371C10.8486 36.9984 9.51738 36.4462 8.53555 35.4644C7.55372 34.4825 7.00148 33.1513 7 31.7628V17.7972C7.00148 16.4087 7.55372 15.0774 8.53555 14.0956C9.51738 13.1138 10.8486 12.5615 12.2371 12.5601H30.3924C31.781 12.5615 33.1122 13.1138 34.094 14.0956C35.0758 15.0774 35.6281 16.4087 35.6296 17.7972V31.7628C35.6281 33.1513 35.0758 34.4825 34.094 35.4644C33.1122 36.4462 31.781 36.9984 30.3924 36.9999ZM12.2371 14.6549C11.404 14.6556 10.6051 14.9869 10.016 15.5761C9.42688 16.1652 9.09559 16.964 9.09485 17.7972V31.7628C9.09559 32.596 9.42688 33.3948 10.016 33.9839C10.6051 34.573 11.404 34.9043 12.2371 34.9051H30.3924C31.2256 34.9043 32.0244 34.573 32.6135 33.9839C33.2027 33.3948 33.534 32.596 33.5347 31.7628V17.7972C33.534 16.964 33.2027 16.1652 32.6135 15.5761C32.0244 14.9869 31.2256 14.6556 30.3924 14.6549H12.2371Z" fill="black" stroke="black" stroke-width="0.5"/>
<path d="M19.918 29.6778C19.5969 29.678 19.2789 29.6149 18.9822 29.492C18.6855 29.3692 18.416 29.189 18.189 28.9619C17.962 28.7348 17.782 28.4651 17.6593 28.1684C17.5366 27.8716 17.4737 27.5535 17.474 27.2324V22.3263C17.474 21.9097 17.5806 21.4999 17.7835 21.1361C17.9864 20.7722 18.279 20.4662 18.6334 20.2472C18.9879 20.0282 19.3924 19.9035 19.8086 19.8848C20.2248 19.8662 20.6389 19.9543 21.0115 20.1407L25.2166 22.2439C25.5994 22.4353 25.9253 22.7238 26.1616 23.0807C26.398 23.4376 26.5364 23.8502 26.5631 24.2774C26.5899 24.7046 26.5039 25.1313 26.3139 25.5149C26.1239 25.8984 25.8366 26.2253 25.4805 26.4629L21.2741 29.2658C20.8727 29.5342 20.4008 29.6775 19.918 29.6778ZM19.918 21.9758C19.8533 21.9761 19.7899 21.9945 19.7351 22.0288C19.6837 22.0595 19.6413 22.1031 19.6121 22.1553C19.583 22.2075 19.568 22.2665 19.5689 22.3263V27.2324C19.5673 27.296 19.5838 27.3588 19.6164 27.4134C19.649 27.4681 19.6965 27.5123 19.7532 27.5411C19.8084 27.5729 19.8717 27.5882 19.9354 27.5849C19.999 27.5817 20.0604 27.5602 20.1121 27.5229L24.3172 24.72C24.3679 24.686 24.4088 24.6393 24.4359 24.5845C24.463 24.5298 24.4753 24.4689 24.4716 24.408C24.468 24.347 24.4484 24.2881 24.415 24.237C24.3815 24.1859 24.3353 24.1444 24.2809 24.1167L20.0744 22.0149C20.026 21.99 19.9725 21.9766 19.918 21.9758ZM21.3146 14.655C21.177 14.6553 21.0407 14.6283 20.9137 14.5756C20.7866 14.5228 20.6713 14.4454 20.5744 14.3477L14.9881 8.76147C14.8031 8.56292 14.7024 8.3003 14.7072 8.02895C14.712 7.75759 14.8219 7.49869 15.0138 7.30678C15.2057 7.11488 15.4646 7.00495 15.736 7.00016C16.0073 6.99538 16.2699 7.0961 16.4685 7.28112L21.3146 12.1258L26.1607 7.28112C26.3592 7.0961 26.6218 6.99538 26.8932 7.00016C27.1645 7.00495 27.4234 7.11488 27.6154 7.30678C27.8073 7.49869 27.9172 7.75759 27.922 8.02895C27.9268 8.3003 27.826 8.56292 27.641 8.76147L22.0548 14.3477C21.9579 14.4454 21.8425 14.5228 21.7155 14.5756C21.5884 14.6283 21.4522 14.6553 21.3146 14.655Z" fill="black" stroke="black" stroke-width="0.5"/>
</svg>
