<svg width="65" height="65" viewBox="0 0 65 65" fill="none" xmlns="http://www.w3.org/2000/svg">
<path d="M25.2828 38.9987C25.2799 38.9986 25.2735 38.9983 25.2642 38.9977C25.2431 38.9962 25.2084 38.9931 25.1651 38.9861C25.0749 38.9717 24.9663 38.9442 24.8668 38.8966C24.7694 38.8499 24.6985 38.7927 24.651 38.7245C24.6078 38.6624 24.5547 38.5498 24.5547 38.3366C24.5547 37.84 24.8364 36.6445 25.9572 35.5705C27.0587 34.5149 29.0317 33.5219 32.4991 33.5219C35.9666 33.5219 37.9396 34.5149 39.0411 35.5705C40.1618 36.6445 40.4436 37.84 40.4436 38.3366C40.4436 38.5498 40.3905 38.6624 40.3472 38.7245C40.2998 38.7927 40.2289 38.8499 40.1315 38.8966C40.032 38.9442 39.9234 38.9717 39.8332 38.9861C39.7898 38.9931 39.7552 38.9962 39.7341 38.9977C39.7248 38.9983 39.7184 38.9986 39.7154 38.9987H25.2828ZM25.2839 38.9988C25.2851 38.9988 25.285 38.9988 25.2839 38.9988ZM35.0635 29.6776C34.3885 30.3246 33.4665 30.6931 32.4991 30.6931C31.5317 30.6931 30.6098 30.3246 29.9347 29.6776C29.2607 29.0317 28.888 28.1623 28.888 27.2626C28.888 26.3629 29.2607 25.4935 29.9347 24.8475C30.6098 24.2006 31.5317 23.832 32.4991 23.832C33.4665 23.832 34.3885 24.2006 35.0635 24.8475C35.7376 25.4935 36.1102 26.3629 36.1102 27.2626C36.1102 28.1623 35.7376 29.0317 35.0635 29.6776Z" stroke="#024D81" stroke-width="2"/>
<path d="M56.3327 56.3346L43.6216 43.6235M56.3327 56.3346V43.6235M56.3327 56.3346H43.6216M8.66602 43.6235V56.3346M8.66602 56.3346H21.3771M8.66602 56.3346L21.3771 43.6235M56.3327 21.3791V8.66797M56.3327 8.66797H43.6216M56.3327 8.66797L43.6216 21.3791M8.66602 21.3791V8.66797M8.66602 8.66797H21.3771M8.66602 8.66797L21.3771 21.3791" stroke="#024D81" stroke-width="2" stroke-linecap="round" stroke-linejoin="round"/>
</svg>
