<svg width="100" height="100" viewBox="0 0 100 100" fill="none" xmlns="http://www.w3.org/2000/svg">
<path d="M44.198 58.9237C44.8271 57.7567 46.2505 57.2332 47.5014 57.7522C48.8338 58.3062 49.4669 59.8348 48.9147 61.168L47.5763 64.3862C47.0229 65.7199 45.4943 66.3554 44.1605 65.8029C42.8264 65.2493 42.1937 63.7179 42.7472 62.3838L44.0822 59.1655L44.198 58.9237Z" fill="black"/>
<path d="M44.162 35.1975C45.4132 34.6787 46.8367 35.2013 47.4654 36.369L47.5778 36.6108L48.9162 39.8291C49.4689 41.1627 48.8362 42.6945 47.5029 43.2483C46.1687 43.8019 44.6373 43.1657 44.0837 41.8315L42.7487 38.6133L42.6568 38.3613C42.2757 37.0921 42.9116 35.7164 44.162 35.1975Z" fill="black"/>
<path d="M53.5083 57.7491C54.7598 57.2326 56.1812 57.7595 56.8083 58.9274L56.9241 59.1692L58.2556 62.3909C58.8068 63.7252 58.1728 65.2545 56.8389 65.8067C55.5043 66.3584 53.9719 65.7244 53.4198 64.3899L52.0882 61.1649L51.9997 60.9129C51.6202 59.6432 52.2572 58.2664 53.5083 57.7491Z" fill="black"/>
<path d="M53.5417 36.369C54.1708 35.202 55.5942 34.6785 56.8451 35.1975C58.1776 35.7516 58.8107 37.2801 58.2584 38.6133L56.9201 41.8316C56.3667 43.1652 54.8381 43.8007 53.5043 43.2483C52.1702 42.6947 51.5375 41.1632 52.091 39.8291L53.426 36.6108L53.5417 36.369Z" fill="black"/>
<path d="M62.6426 42.652C63.9119 42.2707 65.2908 42.9067 65.8097 44.1573C66.3275 45.4074 65.804 46.8315 64.6382 47.4606L64.393 47.573L61.1748 48.9114L60.9228 49C59.6541 49.3809 58.2785 48.7474 57.759 47.4981C57.2054 46.1639 57.8381 44.6326 59.1723 44.0789L62.3906 42.744L62.6426 42.652Z" fill="black"/>
<path d="M57.7591 53.5019C58.2779 52.2514 59.6536 51.6156 60.9228 51.9966L61.1748 52.0886L64.3931 53.4235L64.6383 53.5393C65.8038 54.169 66.3285 55.5926 65.8098 56.8427C65.2561 58.176 63.7243 58.8087 62.3906 58.256L59.1724 56.9176L58.9306 56.8052C57.7629 56.1766 57.2402 54.7531 57.7591 53.5019Z" fill="black"/>
<path d="M47.8925 26.0873V26.0838C47.894 24.3419 47.3144 22.6489 46.2476 21.2718C45.1805 19.8947 43.6849 18.9094 41.9975 18.4758C40.31 18.0424 38.5255 18.1853 36.9266 18.8777C35.5278 19.4836 34.3407 20.4819 33.5041 21.7452L33.1669 22.3037C32.4771 23.5593 32.143 24.9794 32.2031 26.4108C32.2552 27.6444 31.4374 28.7493 30.2415 29.0569C28.5759 29.4854 27.0287 30.2853 25.719 31.3999C24.4092 32.5145 23.3706 33.9144 22.6812 35.49C21.9922 37.0653 21.6711 38.7781 21.7413 40.4961C21.8117 42.2139 22.2711 43.8933 23.0865 45.4069L23.2023 45.6487C23.7098 46.8734 23.2161 48.3065 22.024 48.9487C20.7528 49.6335 19.1677 49.1602 18.4822 47.8896L18.0599 47.0484C17.1306 45.0613 16.6036 42.9054 16.5138 40.7073C16.4113 38.1961 16.8822 35.6947 17.8896 33.3922C18.8972 31.0893 20.4161 29.0445 22.3304 27.4154C23.74 26.2161 25.338 25.2673 27.054 24.599C27.2124 23.2104 27.5878 21.8529 28.1778 20.5805L28.5796 19.7836C29.9767 17.2385 32.1817 15.2299 34.8459 14.0759C37.5107 12.9216 40.4857 12.6894 43.2984 13.4118C46.1108 14.1343 48.6034 15.7719 50.382 18.0672C50.426 18.1239 50.4616 18.1869 50.5046 18.2443C51.2175 17.293 52.0586 16.4388 53.0077 15.7105C54.5987 14.4898 56.4489 13.6499 58.4157 13.2585C60.3825 12.8673 62.4145 12.9339 64.3516 13.4527C66.289 13.9718 68.0812 14.9329 69.5893 16.2554C71.0972 17.5778 72.2817 19.2282 73.0493 21.0811C73.8169 22.9344 74.1478 24.9404 74.0165 26.942C73.8852 28.9436 73.2963 30.8888 72.2933 32.6259C71.571 33.8763 69.9716 34.3046 68.7209 33.5829C67.4701 32.8606 67.0419 31.2613 67.7639 30.0104C68.3658 28.9682 68.7204 27.7991 68.7992 26.5981C68.8777 25.3976 68.6772 24.1951 68.2169 23.0836C67.7563 21.9717 67.0477 20.979 66.1429 20.1854C65.2381 19.392 64.1619 18.818 62.9995 18.5065C61.837 18.195 60.6178 18.1559 59.4373 18.3907C58.257 18.6255 57.1467 19.1292 56.1919 19.8619C55.2371 20.5946 54.4628 21.5376 53.9306 22.617C53.5317 23.4263 53.2773 24.2963 53.1745 25.1882L53.1234 26.0873L53.1098 26.3563C52.9748 27.6746 51.8583 28.7033 50.5046 28.7027C49.1509 28.7018 48.0396 27.6715 47.9061 26.3529L47.8925 26.0873Z" fill="black"/>
<path d="M71.8015 23.9346L72.0638 23.9891L72.9696 24.2513C75.059 24.9174 76.9991 25.9932 78.6739 27.4184C80.5878 29.0473 82.1074 31.0893 83.1148 33.3918C84.1224 35.6946 84.5933 38.1988 84.4906 40.7103C84.3877 43.2213 83.7141 45.6767 82.5222 47.8892L82.3826 48.1174C81.6392 49.215 80.1692 49.594 78.977 48.9518C77.7057 48.2665 77.2295 46.6781 77.9145 45.4066L78.204 44.831C78.8393 43.472 79.2016 41.999 79.2631 40.4958C79.3333 38.7777 79.0123 37.065 78.3232 35.4896C77.6338 33.914 76.5918 32.5141 75.282 31.3995C74.136 30.4246 72.8088 29.6892 71.3793 29.2336L70.7629 29.0565L70.5074 28.9748C69.2635 28.5169 68.5429 27.1837 68.8796 25.8723C69.2168 24.5612 70.4913 23.7364 71.8015 23.9346Z" fill="black"/>
<path d="M74.2459 43.5645C74.7556 42.3095 76.1301 41.6659 77.4028 42.0389L77.6548 42.124L78.3155 42.4101C81.5769 43.9027 84.2737 46.417 85.9882 49.5822C87.817 52.9587 88.4142 56.8673 87.6808 60.6366C86.947 64.406 84.9281 67.8062 81.9662 70.2504C79.0042 72.6947 75.2834 74.0325 71.4431 74.0374C69.9987 74.0393 68.8262 72.8697 68.8242 71.4254C68.8224 69.9809 69.9918 68.8084 71.4363 68.8065C74.0638 68.8031 76.609 67.8872 78.6356 66.2149C80.662 64.5427 82.043 62.2176 82.5452 59.6387C83.0472 57.0596 82.6387 54.3855 81.3873 52.075C80.2922 50.0531 78.6128 48.418 76.5787 47.3788L75.6864 46.9735L75.4446 46.8577C74.2731 46.2375 73.7366 44.8192 74.2459 43.5645Z" fill="black"/>
<path d="M23.0489 67.0284C24.4804 67.2169 25.4878 68.5288 25.2999 69.9606L25.2148 70.9346C25.1142 73.2125 25.7044 75.4771 26.9176 77.4256C28.3035 79.6511 30.418 81.3282 32.9011 82.1695C35.3851 83.0107 38.0861 82.9625 40.5398 82.0367C42.9931 81.1108 45.0509 79.364 46.3599 77.0918V77.0884L46.5744 76.7615C47.0974 76.0412 47.798 75.6126 48.393 75.3686C49.0869 75.0843 49.8218 74.9702 50.4942 74.9702C51.1666 74.9702 51.9015 75.0843 52.5954 75.3686C53.1904 75.6126 53.891 76.0412 54.414 76.7615L54.6286 77.0884V77.0918L55.1564 77.9194C56.4605 79.788 58.3025 81.2268 60.4486 82.0367C62.9018 82.9623 65.6003 83.0102 68.0839 82.1695C70.5676 81.3287 72.6844 79.6512 74.0708 77.4256C75.2838 75.4781 75.8733 73.2149 75.7736 70.938L75.6885 69.964L75.6646 69.695C75.6269 68.3703 76.6006 67.2075 77.943 67.0318C79.2854 66.8567 80.5237 67.7306 80.8275 69.0207L80.8751 69.2829L80.9535 69.9981C81.2637 73.5642 80.4077 77.1417 78.5083 80.1909C76.4821 83.4434 73.3925 85.8956 69.7628 87.1246C66.133 88.3534 62.1883 88.2832 58.6028 86.9305C55.2555 85.6674 52.4138 83.3574 50.4942 80.3543C48.5745 83.3579 45.7334 85.6707 42.3856 86.9339C38.7999 88.2866 34.8555 88.3536 31.2256 87.1246C27.5955 85.8952 24.5027 83.4443 22.4767 80.1909C20.4508 76.9371 19.6148 73.0799 20.1133 69.2795L20.161 69.0173C20.4649 67.7264 21.7058 66.8522 23.0489 67.0284Z" fill="black"/>
<path d="M23.6141 42.0251C24.8866 41.6557 26.2566 42.3031 26.7642 43.5576C27.305 44.8968 26.6593 46.4221 25.3203 46.9632L24.4246 47.3719C22.3865 48.4088 20.7008 50.0416 19.6024 52.0647C18.347 54.3771 17.9351 57.0559 18.4377 59.6386C18.9404 62.2211 20.3267 64.5488 22.3575 66.2216C24.3884 67.8944 26.9392 68.8079 29.5704 68.8064C31.0147 68.8058 32.1851 69.9775 32.1859 71.4219C32.1859 72.8654 31.0174 74.036 29.5738 74.0373C25.7282 74.0395 22.002 72.7021 19.0336 70.2572C16.0653 67.8121 14.0401 64.4113 13.3055 60.6365C12.571 56.8616 13.17 52.9481 15.0049 49.5684C16.8399 46.1887 19.7961 43.5537 23.3621 42.1137L23.6141 42.0251Z" fill="black"/>
<path d="M29.4835 23.9115C30.8356 23.8551 31.9909 24.8345 32.1807 26.1455L32.2046 26.4146L32.2386 26.888C32.3357 27.8297 32.6053 28.7452 33.0287 29.592L33.2535 30.0108L33.3727 30.2492C33.9163 31.458 33.4688 32.9057 32.2965 33.5833C31.1236 34.2612 29.6428 33.927 28.8671 32.8511L28.7241 32.6263L28.3495 31.9316C27.6436 30.5199 27.1966 28.9926 27.035 27.4226L26.9805 26.6325V26.3669C27.0583 25.0431 28.1302 23.9685 29.4835 23.9115Z" fill="black"/>
<path d="M35.2005 44.1581C35.7193 42.9077 37.095 42.2718 38.3642 42.6529L38.6162 42.7448L41.8345 44.0798L42.0797 44.1956C43.2452 44.8253 43.7699 46.2488 43.2512 47.499C42.6975 48.8323 41.1657 49.465 39.832 48.9123L36.6138 47.5739L36.372 47.4615C35.2043 46.8328 34.6816 45.4093 35.2005 44.1581Z" fill="black"/>
<path d="M40.084 51.9967C41.3533 51.6154 42.7322 52.2514 43.2511 53.502C43.7689 54.7521 43.2454 56.1763 42.0796 56.8054L41.8344 56.9178L38.6162 58.2561L38.3642 58.3447C37.0955 58.7257 35.7199 58.0921 35.2004 56.8428C34.6468 55.5087 35.2795 53.9773 36.6137 53.4237L39.832 52.0887L40.084 51.9967Z" fill="black"/>
<path d="M58.3495 50.4982C58.3495 46.1648 54.8365 42.6518 50.5031 42.6518C46.1697 42.6518 42.6567 46.1648 42.6567 50.4982C42.6567 54.8317 46.1697 58.3446 50.5031 58.3446C54.8365 58.3446 58.3495 54.8317 58.3495 50.4982ZM63.5804 50.4982C63.5804 57.7206 57.7255 63.5755 50.5031 63.5755C43.2807 63.5755 37.4258 57.7206 37.4258 50.4982C37.4258 43.2758 43.2807 37.4209 50.5031 37.4209C57.7255 37.4209 63.5804 43.2758 63.5804 50.4982Z" fill="black"/>
</svg>
