<svg width="100" height="100" viewBox="0 0 100 100" fill="none" xmlns="http://www.w3.org/2000/svg">
<path d="M50.8831 42.5236C50.8831 40.1154 48.9309 38.1632 46.5227 38.1632H25.5929C23.1847 38.1632 21.2325 40.1154 21.2325 42.5236V77.4072C21.2325 79.8154 23.1847 81.7677 25.5929 81.7677H46.5227C48.9309 81.7677 50.8831 79.8154 50.8831 77.4072V42.5236ZM56.1156 77.4072C56.1156 82.7053 51.8207 87.0002 46.5227 87.0002H25.5929C20.2949 87.0002 16 82.7053 16 77.4072V42.5236C16 37.2256 20.2949 32.9307 25.5929 32.9307H46.5227C51.8207 32.9307 56.1156 37.2256 56.1156 42.5236V77.4072Z" fill="black" stroke="black" stroke-linecap="round" stroke-linejoin="round"/>
<path d="M78.7895 77.4067V21.593C78.7895 20.4365 78.3298 19.3278 77.5121 18.51C76.6944 17.6923 75.5856 17.2325 74.4292 17.2325H32.5694C31.413 17.2325 30.3042 17.6923 29.4865 18.51C28.6688 19.3278 28.209 20.4365 28.209 21.593C28.209 23.0379 27.0377 24.2093 25.5928 24.2093C24.1479 24.2093 22.9766 23.0379 22.9766 21.593C22.9766 19.0488 23.988 16.6095 25.787 14.8104C27.586 13.0114 30.0252 12 32.5694 12H74.4292C76.9733 12 79.4126 13.0114 81.2116 14.8104C83.0106 16.6095 84.022 19.0488 84.022 21.593V77.4067C84.022 79.9509 83.0106 82.3902 81.2116 84.1893C79.4126 85.9883 76.9733 86.9997 74.4292 86.9997H66.0558C64.6116 86.999 63.4396 85.8279 63.4396 84.3834C63.4396 82.939 64.6116 81.7679 66.0558 81.7672H74.4292C75.5856 81.7672 76.6943 81.3074 77.5121 80.4897C78.3298 79.6719 78.7895 78.5632 78.7895 77.4067Z" fill="black" stroke="black" stroke-linecap="round" stroke-linejoin="round"/>
<path d="M36.0917 67.8145L36.3608 67.8281C37.6797 67.9624 38.7079 69.0764 38.7079 70.4307C38.7079 71.7851 37.6797 72.899 36.3608 73.0334L36.0917 73.047H36.0576C34.6127 73.047 33.4414 71.8756 33.4414 70.4307C33.4414 68.9858 34.6127 67.8145 36.0576 67.8145H36.0917Z" fill="black" stroke="black" stroke-linecap="round" stroke-linejoin="round"/>
</svg>
