<?xml version="1.0" encoding="UTF-8"?>
<svg version="1.1" xmlns="http://www.w3.org/2000/svg" width="512" height="512">
<path d="M0 0 C0.87826049 -0.00367669 1.75652098 -0.00735338 2.66139543 -0.01114148 C5.61609687 -0.02218965 8.57076316 -0.0260241 11.52548218 -0.02983093 C13.63937492 -0.03609478 15.75326656 -0.04274151 17.86715698 -0.04974365 C23.61946246 -0.06716185 29.37175963 -0.07770791 35.12408495 -0.08594918 C38.7177587 -0.09109818 42.31142985 -0.097174 45.90510178 -0.10346031 C57.14819776 -0.1225157 68.39128716 -0.13674543 79.6343962 -0.14507228 C92.61354949 -0.15484339 105.59253217 -0.18115831 118.57162535 -0.22157317 C128.60231821 -0.25173537 138.63296218 -0.26654131 148.66369951 -0.26985329 C154.65501302 -0.27220386 160.64614434 -0.28116533 166.63740921 -0.30631447 C172.27629578 -0.32960147 177.91488029 -0.33382571 183.55380249 -0.32355309 C185.62055847 -0.32305775 187.68732934 -0.32937733 189.75403976 -0.34310913 C192.5821549 -0.3608445 195.40918799 -0.35371363 198.23730469 -0.34057617 C199.45557904 -0.35703004 199.45557904 -0.35703004 200.69846499 -0.37381631 C209.51617984 -0.27535755 216.41613729 3.34336888 222.77694702 9.29951477 C227.62285391 14.49705209 229.3135519 20.26495186 230.49960327 27.14717102 C231.10546265 27.00279602 231.71132202 26.85842102 232.33554077 26.70967102 C245.85264653 23.71511221 259.81823797 24.94786661 271.99960327 31.95967102 C277.48916038 35.61319383 282.82110926 39.62943001 286.49960327 45.14717102 C291.21717487 44.50801154 291.21717487 44.50801154 295.89413452 43.63154602 C307.21137952 41.52759043 318.52620827 43.79835434 328.31210327 49.83467102 C337.96806676 56.90389933 344.69433113 66.1005742 346.6524353 77.99555969 C348.49780785 91.53831519 345.66887782 102.17230952 337.90194702 113.47138977 C329.88295046 123.42404508 318.78676796 127.61127543 306.49960327 129.14717102 C281.08960327 129.14717102 255.67960327 129.14717102 229.49960327 129.14717102 C229.49960327 188.54717102 229.49960327 247.94717102 229.49960327 309.14717102 C263.36594205 308.98893804 263.36594205 308.98893804 297.23202515 308.78681946 C303.79745483 308.76875305 303.79745483 308.76875305 306.8757019 308.76539612 C309.01538423 308.75927309 311.15505315 308.74524474 313.29464722 308.72486877 C316.54484864 308.69547633 319.7942102 308.6915507 323.04452515 308.69306946 C323.99004997 308.67867702 324.9355748 308.66428459 325.90975189 308.64945602 C332.55500197 308.69086384 338.11776799 309.93358012 343.06008148 314.63001633 C347.22420119 319.40689879 347.65089637 323.29161035 347.66073608 329.36909485 C347.66570099 330.10116653 347.67066589 330.83323822 347.67578125 331.5874939 C347.6903876 334.00973959 347.69720262 336.43191977 347.70272827 338.85420227 C347.70848137 340.53947959 347.71423908 342.22475689 347.72000122 343.91003418 C347.73050713 347.44489344 347.73635235 350.97972999 347.73983765 354.51460266 C347.74531885 359.03730403 347.76934049 363.55970381 347.7978096 368.08231068 C347.81646269 371.56451282 347.82164302 375.04664273 347.82317352 378.52889061 C347.826195 380.19580927 347.83420647 381.86272682 347.8473587 383.52959633 C347.86447398 385.86564991 347.86252581 388.20097221 347.85604858 390.5370636 C347.86526337 391.22143494 347.87447815 391.90580627 347.88397217 392.61091614 C347.83746315 397.98396871 346.37801885 401.87880588 342.95663452 406.01045227 C342.41393921 406.48869446 341.8712439 406.96693665 341.31210327 407.45967102 C340.78229858 407.95080383 340.2524939 408.44193665 339.70663452 408.94795227 C336.39242407 410.74877105 333.24422518 410.81664884 329.49960327 411.14717102 C329.54600952 412.32795227 329.59241577 413.50873352 329.64022827 414.72529602 C329.67775276 416.28256236 329.7141522 417.8398561 329.74960327 419.39717102 C329.79987671 420.56312805 329.79987671 420.56312805 329.85116577 421.75263977 C329.91405146 425.43145268 329.85744008 427.55550026 327.92147827 430.75654602 C325.28397012 432.27098618 323.53819951 432.74010545 320.52890015 432.10420227 C315.74780682 429.84940369 312.30275069 425.45293788 308.74960327 421.64717102 C307.07163608 419.88263193 305.38953491 418.12201198 303.70272827 416.36592102 C302.96699585 415.58152649 302.23126343 414.79713196 301.47323608 413.9889679 C299.54111054 411.92986243 299.54111054 411.92986243 296.49960327 411.14717102 C296.51531372 411.84278137 296.53102417 412.53839172 296.54721069 413.25508118 C296.6098319 416.42736073 296.64868004 419.59950988 296.68710327 422.77217102 C296.72480835 424.41379211 296.72480835 424.41379211 296.76327515 426.08857727 C296.82531307 432.91274876 296.60659574 437.77890873 291.78085327 443.01045227 C291.19304077 443.48869446 290.60522827 443.96693665 289.99960327 444.45967102 C289.41179077 444.95080383 288.82397827 445.44193665 288.21835327 445.94795227 C284.94853937 448.22939061 282.05703478 448.26968252 278.20199585 448.26069641 C277.12110184 448.26062088 276.04020782 448.26054535 274.92655945 448.26046753 C273.76085922 448.25530624 272.595159 448.25014496 271.39413452 448.24482727 C270.19979294 448.24341232 269.00545135 448.24199738 267.7749176 448.24053955 C263.95395419 448.23493452 260.13304902 448.22238113 256.31210327 448.20967102 C253.72421349 448.20465667 251.1363228 448.20009365 248.5484314 448.19599915 C242.19880209 448.18496345 235.84920684 448.16822038 229.49960327 448.14717102 C229.52055054 448.88765686 229.5414978 449.6281427 229.56307983 450.3910675 C229.64690227 453.78879384 229.69847251 457.18630174 229.74960327 460.58467102 C229.7831189 461.74933899 229.81663452 462.91400696 229.85116577 464.1139679 C229.96904038 474.57533952 227.55255481 481.72242604 220.43710327 489.42060852 C214.13563686 495.03602818 207.20099575 496.29617363 198.99920654 496.29434204 C197.6818158 496.29985707 197.6818158 496.29985707 196.33781111 496.30548352 C193.38310967 496.31653169 190.42844338 496.32036614 187.47372437 496.32417297 C185.35983162 496.33043682 183.24593999 496.33708355 181.13204956 496.34408569 C175.37974408 496.36150389 169.62744692 496.37204995 163.87512159 496.38029122 C160.28144785 496.38544022 156.68777669 496.39151604 153.09410477 496.39780235 C141.85100878 496.41685774 130.60791938 496.43108748 119.36481035 496.43941432 C106.38565706 496.44918543 93.40667437 496.47550035 80.42758119 496.51591522 C70.39688833 496.54607741 60.36624437 496.56088335 50.33550704 496.56419533 C44.34419353 496.56654591 38.3530622 496.57550737 32.36179733 496.60065651 C26.72291077 496.62394351 21.08432625 496.62816775 15.44540405 496.61789513 C13.37864807 496.6173998 11.3118772 496.62371937 9.24516678 496.63745117 C6.41705165 496.65518654 3.59001855 496.64805567 0.76190186 496.63491821 C-0.45637249 496.65137208 -0.45637249 496.65137208 -1.69925845 496.66815835 C-10.52293634 496.56963301 -17.38776682 492.94246094 -23.77383423 487.01435852 C-29.4761269 480.84762573 -30.59414183 474.52737901 -31.06289673 466.39717102 C-31.10608032 465.69978821 -31.14926392 465.0024054 -31.1937561 464.28388977 C-31.29929269 462.5718518 -31.40029583 460.85953541 -31.50039673 459.14717102 C-32.4878186 459.65248352 -33.47524048 460.15779602 -34.49258423 460.67842102 C-35.78674849 461.33488115 -37.08102518 461.99111969 -38.37539673 462.64717102 C-39.35186157 463.1479718 -39.35186157 463.1479718 -40.34805298 463.65888977 C-45.27383423 466.14717102 -45.27383423 466.14717102 -47.50039673 466.14717102 C-47.68215454 467.33955383 -47.86391235 468.53193665 -48.05117798 469.76045227 C-48.30444599 471.32696184 -48.55838744 472.89336264 -48.81289673 474.45967102 C-48.93084595 475.24535461 -49.04879517 476.03103821 -49.1703186 476.8405304 C-49.2960022 477.59785461 -49.42168579 478.35517883 -49.55117798 479.13545227 C-49.66115112 479.83194885 -49.77112427 480.52844543 -49.88442993 481.24604797 C-50.68304781 483.71090624 -51.35311485 484.6699046 -53.50039673 486.14717102 C-56.45547485 486.51948547 -56.45547485 486.51948547 -60.03164673 486.51045227 C-61.31684204 486.50980774 -62.60203735 486.50916321 -63.92617798 486.50849915 C-64.92898804 486.49605164 -64.92898804 486.49605164 -65.95205688 486.48335266 C-67.99331124 486.45975294 -70.03325928 486.46279449 -72.07461548 486.46943665 C-82.09995623 486.41413136 -82.09995623 486.41413136 -85.50039673 484.14717102 C-86.20889325 481.6309879 -86.7468562 479.27156216 -87.18789673 476.70967102 C-87.31744751 476.02840149 -87.44699829 475.34713196 -87.58047485 474.6452179 C-88.11287305 471.76914085 -88.50039673 469.07759657 -88.50039673 466.14717102 C-89.75852173 465.77592102 -91.01664673 465.40467102 -92.31289673 465.02217102 C-99.29486763 462.68750567 -106.43086332 459.53405419 -111.50039673 454.08467102 C-114.26149629 451.84337172 -114.26149629 451.84337172 -116.98867798 452.47138977 C-119.85635245 453.28449249 -122.6713624 454.20939126 -125.50039673 455.14717102 C-128.03555298 455.79951477 -128.03555298 455.79951477 -130.37539673 456.20967102 C-131.0534436 456.34502258 -131.73149048 456.48037415 -132.43008423 456.61982727 C-137.06436208 455.56181289 -139.75189882 449.85084084 -142.17617798 446.05342102 C-143.06085236 444.58813811 -143.93969712 443.11932088 -144.81289673 441.64717102 C-145.26729126 440.91369446 -145.72168579 440.1802179 -146.18984985 439.42451477 C-148.68387723 435.23154844 -150.30860365 432.1760141 -149.50039673 427.14717102 C-147.46993501 424.6860053 -145.52064727 422.72122826 -142.72183228 421.1464386 C-139.10476425 418.84528061 -137.70120446 417.0494539 -136.75698853 412.80683899 C-136.46925758 409.34848061 -136.33606167 405.98241252 -136.36807251 402.51704407 C-136.37536315 400.34467608 -136.28699759 398.19021116 -136.19180298 396.0202179 C-136.09304315 390.25339084 -136.11791324 385.80068192 -139.99356079 381.16523743 C-142.7345024 378.92196274 -145.4765434 376.98443003 -148.50039673 375.14717102 C-149.50039673 374.14717102 -149.50039673 374.14717102 -149.72036743 371.40180969 C-149.48195373 367.87429243 -148.74665236 366.10064582 -146.98086548 363.07295227 C-146.45299438 362.15836243 -145.92512329 361.24377258 -145.3812561 360.3014679 C-144.54304321 358.89477844 -144.54304321 358.89477844 -143.68789673 357.45967102 C-142.86708618 356.03557922 -142.86708618 356.03557922 -142.0296936 354.5827179 C-137.12966997 346.19031379 -137.12966997 346.19031379 -134.50039673 344.14717102 C-129.09671227 344.33350497 -124.59185378 345.65807455 -119.57852173 347.62373352 C-117.04342265 348.26227351 -115.92591491 348.11645075 -113.50039673 347.14717102 C-111.81715841 345.96974722 -110.17518006 344.73252628 -108.56289673 343.45967102 C-104.31187276 340.19273335 -100.55466611 338.38087013 -95.50039673 336.64717102 C-91.27689202 334.92971008 -91.27689202 334.92971008 -88.68692017 331.37617493 C-87.70976543 327.8522164 -87.30181082 324.36433259 -86.99258423 320.72920227 C-86.50039673 317.14717102 -86.50039673 317.14717102 -85.37783813 315.44599915 C-82.5907827 313.51789318 -80.32972745 313.77540114 -76.96914673 313.78388977 C-75.68395142 313.7845343 -74.3987561 313.78517883 -73.07461548 313.7858429 C-72.07180542 313.79829041 -72.07180542 313.79829041 -71.04873657 313.81098938 C-69.00748221 313.8345891 -66.96753418 313.83154755 -64.92617798 313.8249054 C-54.90083723 313.88021069 -54.90083723 313.88021069 -51.50039673 316.14717102 C-50.79190021 318.66335414 -50.25393725 321.02277988 -49.81289673 323.58467102 C-49.68334595 324.26594055 -49.55379517 324.94721008 -49.4203186 325.64912415 C-48.8879204 328.52520119 -48.50039673 331.21674547 -48.50039673 334.14717102 C-47.94352173 334.31732727 -47.38664673 334.48748352 -46.81289673 334.66279602 C-46.04977173 334.90513977 -45.28664673 335.14748352 -44.50039673 335.39717102 C-43.75789673 335.62920227 -43.01539673 335.86123352 -42.25039673 336.10029602 C-39.84092951 337.01753638 -37.62588593 338.0516113 -35.32852173 339.21260071 C-34.25199341 339.75530609 -34.25199341 339.75530609 -33.15371704 340.30897522 C-32.60812134 340.58557983 -32.06252563 340.86218445 -31.50039673 341.14717102 C-31.4995011 340.13980576 -31.4995011 340.13980576 -31.49858737 339.11208969 C-31.46268982 299.30488201 -31.40604532 259.49775217 -31.32247578 219.69061476 C-31.31245838 214.91042744 -31.30261424 210.13023978 -31.2928772 205.35005188 C-31.28996514 203.9225839 -31.28996514 203.9225839 -31.28699425 202.46627819 C-31.25597708 187.05939595 -31.23899438 171.65252861 -31.2272025 156.24562103 C-31.21478949 140.43553159 -31.18728466 124.62552029 -31.14578366 108.81548017 C-31.12065261 99.06061239 -31.10727917 89.3058742 -31.10896716 79.55097359 C-31.10899692 72.86076126 -31.09436122 66.17068091 -31.06823245 59.48052002 C-31.05359149 55.62118971 -31.04537917 51.76213004 -31.05459404 47.90277672 C-31.06442395 43.71490568 -31.04335242 39.5277491 -31.01937866 35.3399353 C-31.02713908 34.12493837 -31.0348995 32.90994144 -31.04289508 31.65812641 C-30.94001844 21.51098199 -28.34234181 14.34362885 -21.43789673 6.87373352 C-15.13643032 1.25831386 -8.20178921 -0.00183159 0 0 Z M-15.50039673 20.14717102 C-19.54128253 26.03801786 -18.90971887 32.22809542 -18.86116028 39.09306335 C-18.86246914 40.42642928 -18.86509704 41.75979444 -18.86892778 43.0931555 C-18.875629 46.75100537 -18.86364523 50.40859121 -18.84859359 54.06640744 C-18.83563219 58.01316895 -18.84002276 61.9599157 -18.84230042 65.9066925 C-18.84387308 72.74271036 -18.83446455 79.57864228 -18.8175869 86.41463852 C-18.7932006 96.29831437 -18.78539201 106.18194869 -18.78162292 116.06565137 C-18.77505786 132.10147444 -18.7550952 148.13725172 -18.72671509 164.17304993 C-18.69917594 179.74987051 -18.67794165 195.32667866 -18.66519165 210.90351868 C-18.66440348 211.86375491 -18.66361531 212.82399115 -18.66280326 213.81332545 C-18.65888813 218.63057251 -18.65509701 223.44781966 -18.65136755 228.26506686 C-18.62026993 268.22580031 -18.56743262 308.18648264 -18.50039673 348.14717102 C-17.82171036 347.93432465 -17.14302399 347.72147827 -16.44377136 347.50218201 C-15.54923752 347.22663483 -14.65470367 346.95108765 -13.73306274 346.66719055 C-12.84812637 346.39246918 -11.96319 346.1177478 -11.05143738 345.83470154 C-7.24455666 344.80870978 -5.19835383 344.65741 -1.50039673 346.14717102 C1.15165291 349.2561485 3.01723056 352.67813076 4.93710327 356.27217102 C5.47786499 357.21060852 6.01862671 358.14904602 6.57577515 359.11592102 C11.79088177 368.53080378 11.79088177 368.53080378 10.49960327 374.14717102 C8.02449081 376.76039549 5.56031109 378.76065286 2.67733765 380.87568665 C0.75392376 382.34339591 0.75392376 382.34339591 -1.50039673 385.14717102 C-1.50005882 388.68631545 -1.50005882 388.68631545 -0.94058228 391.0214386 C-0.20351365 394.58087095 -0.35585573 398.15057342 -0.37539673 401.77217102 C-0.36959595 402.85885071 -0.36959595 402.85885071 -0.36367798 403.96748352 C-0.37122937 408.13585091 -0.68434198 412.04099079 -1.50039673 416.14717102 C-0.71793579 416.78525696 0.06452515 417.4233429 0.87069702 418.08076477 C1.88261108 418.90705383 2.89452515 419.7333429 3.93710327 420.58467102 C4.94643921 421.40838196 5.95577515 422.2320929 6.99569702 423.08076477 C10.47211932 425.94976227 10.47211932 425.94976227 10.90585327 429.06513977 C10.82743358 434.54751635 7.7165558 438.87022417 4.99960327 443.45967102 C3.96497791 445.24548015 2.93355495 447.03314973 1.90585327 448.82295227 C1.44501343 449.60581604 0.98417358 450.38867981 0.5093689 451.19526672 C-0.65355684 453.07696278 -0.65355684 453.07696278 -0.50039673 455.14717102 C-7.07355151 455.51234629 -12.29525199 454.28336839 -18.50039673 452.14717102 C-18.60941178 454.98156239 -18.68817577 457.81167305 -18.75039673 460.64717102 C-18.78391235 461.4386554 -18.81742798 462.23013977 -18.85195923 463.04560852 C-18.94870928 468.94736157 -17.81530729 473.22480827 -14.50039673 478.14717102 C-12.8424358 480.00148838 -12.8424358 480.00148838 -11.00039673 481.08467102 C-10.43320923 481.46494446 -9.86602173 481.8452179 -9.28164673 482.23701477 C-4.81249932 484.52059229 -0.15510957 484.29303091 4.7540741 484.28761292 C5.59376462 484.29058404 6.43345515 484.29355516 7.29859084 484.29661632 C10.11666299 484.30529876 12.93469263 484.30681118 15.7527771 484.30830383 C17.77154125 484.3129323 19.79030452 484.317957 21.80906677 484.323349 C27.29672788 484.33647157 32.78437675 484.34291759 38.2720511 484.34735966 C41.70004774 484.35029039 45.12804104 484.35439518 48.556036 484.35886383 C59.28014066 484.3725379 70.00423768 484.38220521 80.72835046 484.38606572 C93.11036946 484.39054749 105.49227813 484.40810136 117.87426358 484.43706632 C127.44380349 484.45867569 137.01331234 484.46876959 146.58287638 484.47010684 C152.299092 484.47115533 158.01520388 484.47707258 163.73139381 484.49492645 C169.10842631 484.51139437 174.48527695 484.51356879 179.86232567 484.50478745 C181.83477643 484.50401641 183.80723691 484.50836853 185.77966309 484.5182457 C188.47471924 484.53094908 191.16912974 484.52509714 193.86418152 484.5146637 C194.6425985 484.5227201 195.42101548 484.53077651 196.22302085 484.53907704 C202.62541531 484.48120614 207.24376043 483.04412977 212.24960327 478.83467102 C217.70847135 472.31435637 217.89308672 466.95869287 217.68710327 458.77217102 C217.67356812 457.74994446 217.66003296 456.7277179 217.64608765 455.67451477 C217.61090544 453.16485053 217.56167866 450.65629012 217.49960327 448.14717102 C211.40169332 446.90136146 205.50275469 446.12442994 199.49960327 448.14717102 C192.77994646 452.77357959 187.43506596 459.10219428 182.18515015 465.289505 C179.88401944 467.82561502 178.95328784 468.11881573 175.49960327 468.33467102 C172.49960327 468.14717102 172.49960327 468.14717102 170.49960327 466.14717102 C170.18075562 464.26777649 170.18075562 464.26777649 170.08554077 462.01435852 C170.0468689 461.20869446 170.00819702 460.4030304 169.96835327 459.57295227 C169.93741577 458.73119446 169.90647827 457.88943665 169.87460327 457.02217102 C169.8359314 456.17267883 169.79725952 455.32318665 169.75741577 454.44795227 C169.66303833 452.34805418 169.58022741 450.24764212 169.49960327 448.14717102 C168.87021851 448.04533508 168.24083374 447.94349915 167.59237671 447.83857727 C161.79974868 446.84890766 158.52842882 445.46376982 154.49960327 441.14717102 C151.9189286 436.09928723 151.12213536 432.40573807 151.11141968 426.65473938 C151.10353424 425.5850164 151.10353424 425.5850164 151.0954895 424.49368286 C151.08238424 422.15789797 151.09099236 419.82280547 151.10116577 417.48701477 C151.09914252 415.8522936 151.096229 414.21757332 151.09246826 412.58285522 C151.08805795 409.16597351 151.0944349 405.74932791 151.10848999 402.33247375 C151.12559485 397.96228496 151.11572449 393.59264845 151.0977726 389.22247982 C151.08691126 385.85005563 151.09039161 382.47776153 151.09815598 379.10533333 C151.10015079 377.49425249 151.09772406 375.88315966 151.09071732 374.27209282 C151.08306231 372.01781465 151.09476187 369.76442076 151.11141968 367.51020813 C151.11380646 366.23004318 151.11619324 364.94987823 151.11865234 363.63092041 C151.53382246 359.83424075 152.63667346 357.45016166 154.49960327 354.14717102 C154.82960327 353.15717102 155.15960327 352.16717102 155.49960327 351.14717102 C157.62460327 350.08467102 157.62460327 350.08467102 160.49960327 349.14717102 C161.54189087 348.80637512 162.58417847 348.46557922 163.65805054 348.11445618 C167.82964434 347.06406821 171.56383525 346.80081468 175.83944702 346.73310852 C176.98988243 346.7040593 176.98988243 346.7040593 178.16355896 346.67442322 C180.58796433 346.61514544 183.01241855 346.56845191 185.43710327 346.52217102 C187.09141965 346.4839434 188.74571714 346.44488896 190.3999939 346.40498352 C194.43304172 346.30948739 198.46618254 346.22526795 202.49960327 346.14717102 C202.51362183 345.1649054 202.51362183 345.1649054 202.52792358 344.16279602 C202.58205587 341.15686197 202.66561716 338.15241327 202.74960327 335.14717102 C202.76378296 334.11721008 202.77796265 333.08724915 202.79257202 332.02607727 C202.99532572 325.65961129 203.67105075 320.39955862 207.49960327 315.14717102 C210.95092472 312.34297235 213.17118865 311.22927468 217.49960327 310.14717102 C217.49960327 250.41717102 217.49960327 190.68717102 217.49960327 129.14717102 C207.92960327 128.81717102 198.35960327 128.48717102 188.49960327 128.14717102 C177.3468102 125.91661241 168.61656292 123.1579939 161.80038452 113.81904602 C155.6899084 104.17248324 154.08269748 94.85470119 155.92929077 83.50654602 C158.08999879 75.02376638 162.73319786 67.74867221 169.93710327 62.70967102 C176.34762674 58.91481265 180.98542894 57.09782057 188.4624939 57.10127258 C195.07070511 57.252113 195.07070511 57.252113 200.62069702 54.14717102 C202.10629779 51.59731075 202.10629779 51.59731075 203.28475952 48.85420227 C205.74827373 43.36476387 209.77760422 39.14906138 214.93710327 36.14717102 C217.91003087 34.29171792 217.91003087 34.29171792 218.12460327 30.39717102 C217.67294852 25.0074243 215.79685024 20.30050692 211.81600952 16.56904602 C206.12730484 12.31169284 201.25747274 11.99898999 194.24513245 12.00672913 C193.40544192 12.003758 192.5657514 12.00078688 191.7006157 11.99772573 C188.88254356 11.98904328 186.06451391 11.98753086 183.24642944 11.98603821 C181.2276653 11.98140974 179.20890202 11.97638504 177.19013977 11.97099304 C171.70247866 11.95787047 166.21482979 11.95142445 160.72715545 11.94698238 C157.2991588 11.94405165 153.87116551 11.93994686 150.44317055 11.93547821 C139.71906588 11.92180415 128.99496886 11.91213683 118.27085608 11.90827632 C105.88883708 11.90379455 93.50692841 11.88624068 81.12494296 11.85727572 C71.55540305 11.83566635 61.98589421 11.82557245 52.41633016 11.8242352 C46.70011455 11.82318672 40.98400267 11.81726946 35.26781273 11.79941559 C29.89078023 11.78294767 24.51392959 11.78077325 19.13688087 11.7895546 C17.16443012 11.79032563 15.19196963 11.78597352 13.21954346 11.77609634 C10.5244873 11.76339296 7.83007681 11.7692449 5.13502502 11.77967834 C4.35660804 11.77162194 3.57819106 11.76356554 2.77618569 11.755265 C-4.9203314 11.8248334 -10.42761151 14.0880109 -15.50039673 20.14717102 Z M213.39804077 54.55732727 C210.08933797 59.07105146 207.77545789 64.05236011 205.49960327 69.14717102 C201.60205034 69.22212396 198.25908076 69.08704039 194.49960327 68.14717102 C186.7558694 67.55149918 181.22025451 69.48282456 175.24960327 74.33467102 C169.61331977 79.66029323 167.31320313 84.35617461 166.99960327 92.14717102 C167.2597727 99.26145917 169.3215963 103.69691318 173.99960327 108.95967102 C181.79646639 115.78192625 188.17436563 116.44440322 198.32894897 116.42182922 C199.51505768 116.42694016 200.70116638 116.43205109 201.92321777 116.43731689 C205.16514695 116.44881129 208.40691704 116.45129013 211.64886117 116.4487536 C214.3623018 116.44768065 217.0757191 116.45257569 219.78915471 116.45735902 C226.19582929 116.46844039 232.60244524 116.46889985 239.00912476 116.46284485 C245.60065831 116.4568105 252.19197812 116.46910537 258.78347522 116.49041492 C264.45758902 116.50807874 270.13163509 116.51402463 275.80577534 116.51077718 C279.18801799 116.5089712 282.57010827 116.51153113 285.95232582 116.52549171 C289.72907462 116.5378644 293.50533269 116.53105843 297.28207397 116.51948547 C298.39043106 116.52712921 299.49878815 116.53477295 300.64073181 116.54264832 C310.91770215 116.47324434 318.88605457 114.22760472 326.49960327 107.14717102 C332.50748786 100.63992979 335.17153663 92.56279941 334.84335327 83.75654602 C333.70192727 75.092085 330.13688823 67.86405123 323.49960327 62.14717102 C315.38659118 56.65170168 308.26158803 55.24044867 298.49960327 56.14717102 C295.5520966 57.02036511 292.75651536 58.09519992 289.89804077 59.22138977 C286.66855824 60.46794899 284.88148147 61.14636231 281.49960327 60.14717102 C279.61739352 58.09929 278.02967387 55.92746186 276.40975952 53.66670227 C270.36713569 45.69637022 262.37995199 40.08731222 252.49960327 38.14717102 C235.71273592 36.84271381 224.28407793 41.97169142 213.39804077 54.55732727 Z M215.49960327 325.14717102 C215.08726952 327.46489071 215.08726952 327.46489071 215.20663452 330.03388977 C215.21630249 330.97168274 215.22597046 331.90947571 215.2359314 332.87568665 C215.26106812 333.85215149 215.28620483 334.82861633 215.31210327 335.83467102 C215.32563843 336.82273743 215.33917358 337.81080383 215.3531189 338.82881165 C215.38848124 341.26881333 215.43783294 343.70771821 215.49960327 346.14717102 C216.28141464 346.15303726 217.06322601 346.1589035 217.86872864 346.16494751 C225.2683558 346.22306319 232.66765347 346.29524633 240.06698513 346.38288593 C243.87026756 346.42744609 247.67344641 346.46673285 251.47689819 346.49360657 C255.15350276 346.51978411 258.82970562 346.56028585 262.50605965 346.61035728 C263.90248649 346.62692907 265.29898266 346.63850327 266.6954937 346.64478493 C284.27532346 346.73179585 284.27532346 346.73179585 291.43710327 352.52217102 C295.57404581 357.78737062 295.82107761 362.49232983 295.91366577 368.94795227 C295.93303192 369.78432724 295.95239807 370.62070221 295.97235107 371.48242188 C296.03190519 374.14140272 296.07843501 376.80042742 296.12460327 379.45967102 C296.16280533 381.26763211 296.20185836 383.07557544 296.24179077 384.88349915 C296.33758672 389.304578 296.42170658 393.72574203 296.49960327 398.14717102 C297.11412354 398.26390167 297.7286438 398.38063232 298.36178589 398.50090027 C299.16974609 398.66502411 299.9777063 398.82914795 300.81015015 398.99824524 C301.61029541 399.15622589 302.41044067 399.31420654 303.23483276 399.47697449 C306.73565032 400.51294514 308.59495125 402.60118096 310.99960327 405.27217102 C312.49499659 406.90141128 313.99365646 408.5276806 315.49960327 410.14717102 C315.82960327 410.14717102 316.15960327 410.14717102 316.49960327 410.14717102 C316.58210327 408.88904602 316.66460327 407.63092102 316.74960327 406.33467102 C316.93561786 403.49794859 317.18214264 402.4711998 319.19882202 400.41279602 C322.7051762 398.48400357 326.01078714 398.73106823 329.94100952 398.65107727 C332.56661881 398.37865156 332.56661881 398.37865156 334.13525391 396.53022766 C335.93844894 393.38065614 335.88050281 391.13708315 335.88778687 387.51435852 C335.89304382 386.85695679 335.89830078 386.19955505 335.90371704 385.52223206 C335.91689035 383.35530133 335.90818912 381.18910886 335.89804077 379.02217102 C335.90006229 377.51289225 335.90297438 376.00361442 335.90673828 374.49433899 C335.91115799 371.33359971 335.90474217 368.17311504 335.89071655 365.0124054 C335.87362459 360.96364576 335.88346771 356.91548275 335.90143394 352.866745 C335.91228148 349.75088517 335.90882105 346.63516648 335.90105057 343.51930237 C335.89905123 342.02658518 335.9014985 340.53385512 335.90848923 339.04115295 C335.91612001 336.95375187 335.90447834 334.86731305 335.88778687 332.77998352 C335.8842067 330.99938538 335.8842067 330.99938538 335.8805542 329.18281555 C335.45290031 325.77501393 334.84983095 324.59527573 332.49960327 322.14717102 C330.31478017 321.55080193 330.31478017 321.55080193 327.83114624 321.64596558 C326.87214417 321.63613144 325.91314209 321.6262973 324.92507935 321.61616516 C323.87459412 321.62583313 322.82410889 321.6355011 321.74179077 321.64546204 C320.63426453 321.64005905 319.52673828 321.63465607 318.38565063 321.62908936 C314.71503188 321.61655504 311.04519025 321.63312519 307.37460327 321.65107727 C304.83016926 321.65092239 302.285735 321.64943529 299.74130249 321.64666748 C294.40476176 321.64528137 289.06849669 321.65744501 283.73202515 321.68061829 C277.56132104 321.7072286 271.3909929 321.70897546 265.22025108 321.69722992 C259.28551772 321.68645256 253.35089918 321.69273933 247.41616821 321.7067852 C244.88992713 321.71131062 242.36367498 321.71162704 239.83743286 321.7077198 C236.31052765 321.70481867 232.78424274 321.72126282 229.25741577 321.74311829 C228.20693054 321.73861664 227.15644531 321.73411499 226.0741272 321.72947693 C224.63562408 321.74433388 224.63562408 321.74433388 223.1680603 321.75949097 C222.33404694 321.76192086 221.50003357 321.76435076 220.64074707 321.76685429 C217.99795862 322.23627473 217.10709767 323.03235216 215.49960327 325.14717102 Z M-75.50039673 326.14717102 C-75.73822876 327.82746399 -75.73822876 327.82746399 -75.98086548 329.54170227 C-76.21539408 331.01454186 -76.45113476 332.4871888 -76.68789673 333.95967102 C-76.78908813 334.6976593 -76.89027954 335.43564758 -76.99453735 336.19599915 C-77.58163431 339.70271339 -77.97459666 341.71127459 -80.76211548 344.02217102 C-83.53919118 345.1631094 -86.31251409 346.28457872 -89.12539673 347.33467102 C-96.71424474 350.42261164 -102.93266031 355.03822068 -109.08242798 360.39717102 C-111.50039673 362.14717102 -111.50039673 362.14717102 -115.25039673 362.08467102 C-119.8080931 361.24967321 -124.16020373 359.74460316 -128.50039673 358.14717102 C-129.53651944 359.55269401 -130.55384598 360.97208796 -131.56289673 362.39717102 C-132.13137329 363.18607727 -132.69984985 363.97498352 -133.28555298 364.78779602 C-134.68176023 367.01600699 -134.68176023 367.01600699 -134.39883423 369.24092102 C-133.30041008 371.57149053 -132.04762549 372.76317396 -130.06289673 374.39717102 C-129.13670532 375.1783429 -129.13670532 375.1783429 -128.19180298 375.97529602 C-126.5693517 377.33700638 -126.5693517 377.33700638 -124.50039673 377.14717102 C-124.33903411 386.05797335 -124.33903411 386.05797335 -125.00039673 390.52217102 C-126.14573406 398.82586669 -125.68625171 407.07382029 -124.08242798 415.28779602 C-123.77503274 417.90733807 -123.7257956 419.61132597 -124.50039673 422.14717102 C-127.50823905 425.31831126 -130.85281828 427.75670443 -134.50039673 430.14717102 C-133.86973916 433.36569933 -132.72018978 435.65518171 -130.93789673 438.39717102 C-130.25533813 439.4567804 -130.25533813 439.4567804 -129.55899048 440.53779602 C-129.20965454 441.06888977 -128.8603186 441.59998352 -128.50039673 442.14717102 C-127.21455688 441.69664368 -127.21455688 441.69664368 -125.90274048 441.23701477 C-113.68977748 437.17520633 -113.68977748 437.17520633 -108.50039673 439.14717102 C-106.68418665 440.74893702 -105.0678056 442.4648807 -103.42617798 444.24482727 C-98.06048874 449.545214 -91.66696311 452.12277607 -84.56289673 454.27217102 C-78.94442647 456.29244352 -78.94442647 456.29244352 -77.04336548 459.95185852 C-76.27772257 463.03706001 -75.81974426 465.98731125 -75.50039673 469.14717102 C-75.00539673 471.62217102 -75.00539673 471.62217102 -74.50039673 474.14717102 C-70.21039673 474.14717102 -65.92039673 474.14717102 -61.50039673 474.14717102 C-61.38824829 473.03857727 -61.27609985 471.92998352 -61.16055298 470.78779602 C-59.72354439 459.3429552 -59.72354439 459.3429552 -56.75430298 456.44013977 C-54.37186545 455.48279332 -51.97359605 454.8365398 -49.50039673 454.14717102 C-42.51640615 450.88444815 -36.44821059 447.28431639 -30.68789673 442.14717102 C-26.1480265 438.28401083 -26.1480265 438.28401083 -23.35586548 437.69404602 C-21.22220424 437.91288307 -19.51100556 438.40206304 -17.50039673 439.14717102 C-16.67797485 439.40111633 -15.85555298 439.65506165 -15.00820923 439.91670227 C-12.82176368 440.60805499 -10.65841725 441.3716324 -8.50039673 442.14717102 C-5.53039673 437.19717102 -5.53039673 437.19717102 -2.50039673 432.14717102 C-4.82238058 428.98927298 -7.14500131 426.61539028 -10.25039673 424.27217102 C-13.16618432 421.85480866 -13.45053802 421.50864668 -14.00039673 417.52217102 C-13.50039673 414.14717102 -13.50039673 414.14717102 -12.97744751 412.20942688 C-12.46625068 409.99956012 -12.37102358 408.04236598 -12.36758423 405.77607727 C-12.36629517 404.95429993 -12.3650061 404.13252258 -12.36367798 403.2858429 C-12.36754517 402.43570618 -12.37141235 401.58556946 -12.37539673 400.70967102 C-12.37152954 399.86340149 -12.36766235 399.01713196 -12.36367798 398.1452179 C-12.37015207 394.01151258 -12.47591639 390.17779075 -13.50039673 386.14717102 C-14.18789673 382.89717102 -14.18789673 382.89717102 -13.50039673 379.14717102 C-11.00680441 376.64498011 -8.40229608 374.49511648 -5.59024048 372.35810852 C-3.19756806 370.3469149 -3.19756806 370.3469149 -3.56289673 367.61201477 C-4.41779058 365.36435635 -5.3156266 363.38663155 -6.56289673 361.33467102 C-7.52195923 359.75685852 -7.52195923 359.75685852 -8.50039673 358.14717102 C-9.35762329 358.44752258 -10.21484985 358.74787415 -11.09805298 359.05732727 C-23.31101597 363.11913571 -23.31101597 363.11913571 -28.50039673 361.14717102 C-30.28383992 359.53943652 -31.88047315 357.81800649 -33.50430298 356.04951477 C-37.99908274 351.76584013 -43.88797413 348.96803977 -49.76992798 347.11982727 C-53.06247877 346.06477774 -55.67004515 345.14401749 -58.50039673 343.14717102 C-60.42801379 338.89012376 -60.99930237 334.76313435 -61.50039673 330.14717102 C-61.99539673 328.16717102 -61.99539673 328.16717102 -62.50039673 326.14717102 C-66.79039673 326.14717102 -71.08039673 326.14717102 -75.50039673 326.14717102 Z M163.49960327 362.14717102 C163.03445129 365.29710431 163.03445129 365.29710431 163.09555054 368.9577179 C163.08868729 369.64584061 163.08182404 370.33396332 163.07475281 371.04293823 C163.05645151 373.31747571 163.06032633 375.59132572 163.06600952 377.86592102 C163.06144962 379.44628627 163.05614463 381.02664953 163.05012512 382.60700989 C163.04118777 385.91914425 163.04362449 389.23103757 163.05355835 392.54316711 C163.06505516 396.7905786 163.04482964 401.03715962 163.01564121 405.28446198 C162.99730868 408.54783931 162.9975656 411.81101648 163.00327873 415.07443237 C163.00343228 416.64055548 162.99736054 418.20669188 162.98498726 419.77276611 C162.97013176 421.96125141 162.98071118 424.14818782 162.99789429 426.33662415 C162.99806046 427.58222107 162.99822662 428.82781799 162.99839783 430.11116028 C163.21477095 433.21125829 163.21477095 433.21125829 165.32881165 435.04084778 C168.31751861 436.56401377 170.91339649 436.66786068 174.24960327 436.83467102 C175.42007202 436.90041321 176.59054077 436.9661554 177.79647827 437.03388977 C178.68850952 437.07127258 179.58054077 437.1086554 180.49960327 437.14717102 C180.82960327 440.44717102 181.15960327 443.74717102 181.49960327 447.14717102 C182.55147827 446.23967102 183.60335327 445.33217102 184.68710327 444.39717102 C185.95149345 443.30632459 187.22303245 442.22373751 188.49960327 441.14717102 C189.19303329 440.46232132 189.88646332 439.77747162 190.60090637 439.0718689 C194.36680061 436.57136302 197.53013748 436.59430777 201.89828491 436.64888 C202.73139694 436.64336121 203.56450897 436.63784241 204.42286682 436.63215637 C206.2261679 436.62285181 208.02953468 436.62271845 209.83284187 436.63075066 C212.68689415 436.64338489 215.53998 436.63208809 218.39399719 436.61471558 C223.42142434 436.58801959 228.44861437 436.58241986 233.47610474 436.58381653 C241.52658388 436.58604565 249.57677018 436.57197759 257.62713432 436.52823067 C260.43911463 436.51838087 263.25063585 436.52711454 266.06260681 436.53692627 C267.78517967 436.53078301 269.50775002 436.5238716 271.23031616 436.5160675 C272.01224335 436.52378677 272.79417053 436.53150604 273.59979248 436.53945923 C276.80217271 436.50948222 279.11416139 436.35691426 281.95393372 434.81161499 C284.96405891 431.57018171 284.63540186 428.12286788 284.66073608 423.91914368 C284.67034363 422.63415985 284.67995117 421.34917603 284.68984985 420.0252533 C284.69469775 418.62058184 284.6989766 417.21590833 284.70272827 415.81123352 C284.70848205 414.37018329 284.71423976 412.92913308 284.72000122 411.48808289 C284.73050255 408.46688989 284.73635094 405.44572344 284.73983765 402.42451477 C284.74532165 398.55860034 284.76935094 394.69303824 284.7978096 390.82723427 C284.81645893 387.85033654 284.82164278 384.87352332 284.82317352 381.89657211 C284.82619524 380.47164864 284.8342076 379.04672649 284.8473587 377.6218605 C284.86446577 375.62597402 284.86068741 373.62994183 284.85604858 371.63398743 C284.85969421 370.49942108 284.86333984 369.36485474 284.86709595 368.19590759 C284.41996812 364.48651408 283.16042209 361.80798984 280.49960327 359.14717102 C279.02641706 359.04500076 277.5483708 359.01198449 276.07165527 359.00672913 C275.11540253 359.00101898 274.15914978 358.99530884 273.17391968 358.98942566 C271.58740601 358.98774887 271.58740601 358.98774887 269.96884155 358.98603821 C268.86160736 358.9810733 267.75437317 358.9761084 266.61358643 358.97099304 C262.93235667 358.95632768 259.25117 358.94956227 255.56991577 358.94404602 C253.02262368 358.93829832 250.4753316 358.93254055 247.92803955 358.92677307 C243.26424202 358.91759756 238.60045753 358.91130221 233.93665326 358.90827632 C227.06666513 358.90379498 220.19687591 358.88624634 213.32694829 358.85727572 C207.38264785 358.83307623 201.4383971 358.82533304 195.49404526 358.82360077 C192.96220695 358.82056537 190.43036966 358.81250722 187.89856339 358.79941559 C184.36193876 358.78243334 180.82580247 358.78421632 177.28915405 358.79072571 C176.23552673 358.78151093 175.18189941 358.77229614 174.09634399 358.76280212 C172.6535054 358.77115585 172.6535054 358.77115585 171.18151855 358.77967834 C169.92660205 358.7774785 169.92660205 358.7774785 168.64633369 358.77523422 C165.97801268 359.23754042 165.09537075 359.98756167 163.49960327 362.14717102 Z " fill="#000000" transform="translate(156.50039672851563,7.8528289794921875)"/>
<path d="M0 0 C1.83231422 -0.01902626 1.83231422 -0.01902626 3.7016449 -0.03843689 C5.01319046 -0.03550125 6.32473602 -0.03256561 7.67602539 -0.02954102 C9.04456338 -0.034106 10.41309908 -0.03941252 11.78163147 -0.04542542 C14.64553152 -0.05434441 17.50915254 -0.05194768 20.37304688 -0.04199219 C24.03275055 -0.03050638 27.69148875 -0.0507126 31.35106564 -0.07990932 C34.17621419 -0.09830713 37.00113291 -0.09797182 39.82632637 -0.0922718 C41.82817324 -0.09204502 43.82999862 -0.10891078 45.83177185 -0.12608337 C57.0734264 -0.03997425 57.0734264 -0.03997425 61.83618164 4.40405273 C65.56931758 8.39464632 65.95902946 12.68597462 65.96760941 17.99219894 C65.97145055 18.88835316 65.9752917 19.78450738 65.97924924 20.70781779 C65.97838276 21.68319727 65.97751627 22.65857675 65.97662354 23.66351318 C65.97959466 24.70682462 65.98256578 25.75013606 65.98562694 26.82506299 C65.99430903 30.3263359 65.99582178 33.8275746 65.99731445 37.32885742 C66.00194295 39.83712843 66.00696765 42.34539873 66.01235962 44.85366821 C66.02548207 51.67194106 66.03196504 58.49020266 66.03637028 65.30848598 C66.03913535 69.56785392 66.04337318 73.82721959 66.04787445 78.086586 C66.06006474 89.88544446 66.07036468 101.68430112 66.07374954 113.48316574 C66.07407889 114.61531897 66.07407889 114.61531897 66.07441489 115.77034397 C66.07474231 116.90516455 66.07474231 116.90516455 66.07507634 118.0629108 C66.0755198 119.59589561 66.07596637 121.12888042 66.07641602 122.66186523 C66.07663745 123.42227431 66.07685888 124.18268339 66.07708701 124.96613517 C66.08103428 137.28496398 66.09848717 149.60373361 66.12177554 161.92253956 C66.14550628 174.57775254 66.15795217 187.23293585 66.15911746 199.88817143 C66.16003323 206.99053119 66.16576078 214.09281381 66.18393707 221.19515228 C66.20097583 227.8764109 66.20257783 234.55749833 66.19379807 241.23878098 C66.1930272 243.68932105 66.19737692 246.13986897 66.20725632 248.59038925 C66.21996463 251.93931963 66.21410459 255.2877308 66.20367432 258.63665771 C66.21575892 260.0863426 66.21575892 260.0863426 66.22808766 261.56531405 C66.17656671 268.65321082 65.44984532 275.5108021 60.54931641 280.93554688 C54.63540534 283.27443668 48.71068755 282.95621711 42.42602539 282.90014648 C41.01168239 282.90030162 39.59733897 282.90179301 38.18299866 282.90455627 C35.22662438 282.90593703 32.27073716 282.89343592 29.31445312 282.87060547 C25.5326054 282.84219502 21.75156465 282.84496921 17.96965694 282.85769558 C15.0518967 282.86466266 12.13432174 282.8568523 9.21658516 282.84443855 C7.82239048 282.83993584 6.42817583 282.83957691 5.03397942 282.84350395 C3.08381735 282.8464266 1.13365944 282.82771175 -0.81640625 282.80810547 C-1.92415909 282.80270248 -3.03191193 282.7972995 -4.17323303 282.79173279 C-8.49979603 282.23086527 -10.99816236 280.80653881 -13.78276253 277.45618248 C-15.83227192 272.92677212 -15.58068994 268.70029709 -15.55149841 263.7827301 C-15.55688395 262.70055 -15.56226949 261.61836989 -15.56781822 260.50339645 C-15.58214635 256.87063882 -15.57498192 253.23824307 -15.56787109 249.60546875 C-15.57357209 247.00365912 -15.5805353 244.40185199 -15.58866882 241.80004883 C-15.60586655 235.46264868 -15.60669484 229.12534763 -15.60145592 222.7879302 C-15.59741481 217.63696518 -15.59885707 212.48602946 -15.60420418 207.33506584 C-15.6049526 206.6020049 -15.60570102 205.86894396 -15.60647212 205.11366905 C-15.6080036 203.6244661 -15.60954194 202.13526316 -15.61108709 200.64606022 C-15.62481564 186.68002561 -15.61937195 172.71404701 -15.60790188 158.74801367 C-15.59796898 145.97123968 -15.61091047 133.1946105 -15.63483607 120.41785885 C-15.65921866 107.29821253 -15.66883703 94.17863367 -15.66218334 81.05896515 C-15.65868926 73.6934427 -15.6609356 66.32803164 -15.67843437 58.96252632 C-15.69468269 52.03745931 -15.6899878 45.11267364 -15.67112923 38.18761444 C-15.6674334 35.64390301 -15.67058055 33.10017121 -15.68101501 30.5564785 C-15.6941579 27.08811641 -15.68273568 23.62068077 -15.6650238 20.15235901 C-15.67462881 19.14214536 -15.68423382 18.13193171 -15.69412988 17.09110552 C-15.63219525 11.20980796 -15.05521631 7.89735715 -11.16381836 3.40405273 C-7.44397143 0.49434069 -4.66882967 0.02352646 0 0 Z M-3.16381836 13.40405273 C-3.18660801 45.99991674 -3.20431616 78.59577845 -3.21488369 111.1916486 C-3.21613447 115.03580611 -3.21742878 118.87996361 -3.21875 122.72412109 C-3.21901231 123.48945616 -3.21927462 124.25479124 -3.21954488 125.04331828 C-3.22390173 137.45190943 -3.23178937 149.86049597 -3.24097116 162.26908439 C-3.25030727 174.99189854 -3.25587388 187.71471028 -3.25790685 200.43752772 C-3.25928217 208.2945472 -3.26363322 216.15155365 -3.27173483 224.00856913 C-3.27762243 230.02310729 -3.27827743 236.03763414 -3.27692604 242.05217552 C-3.27720257 244.52703176 -3.27921034 247.00188847 -3.28302383 249.47674179 C-3.28795408 252.83952924 -3.28681913 256.20225962 -3.28407288 259.56504822 C-3.28698572 260.55821814 -3.28989856 261.55138806 -3.29289967 262.57465404 C-3.29090862 263.46839436 -3.28891757 264.36213467 -3.28686619 265.28295803 C-3.28724591 266.06024555 -3.28762563 266.83753306 -3.28801686 267.63837475 C-3.35588113 269.43057275 -3.35588113 269.43057275 -2.16381836 270.40405273 C-0.48126601 270.50280443 1.20542192 270.53204178 2.89086914 270.53344727 C3.96868652 270.53659943 5.04650391 270.53975159 6.15698242 270.54299927 C7.32986816 270.54097504 8.50275391 270.53895081 9.71118164 270.53686523 C10.90598145 270.53782196 12.10078125 270.53877869 13.33178711 270.5397644 C15.86385145 270.54044644 18.39591752 270.53859051 20.92797852 270.53442383 C24.81929424 270.52907594 28.71049453 270.53436806 32.60180664 270.54077148 C35.0549319 270.54011071 37.50805708 270.53882955 39.96118164 270.53686523 C41.13406738 270.53888947 42.30695313 270.5409137 43.51538086 270.54299927 C44.59319824 270.53984711 45.67101562 270.53669495 46.78149414 270.53344727 C48.21259521 270.53225388 48.21259521 270.53225388 49.67260742 270.53103638 C51.81606053 270.64566121 51.81606053 270.64566121 52.83618164 269.40405273 C52.90844666 267.55117772 52.91999384 265.69571396 52.89868164 263.84155273 C52.87805664 262.04717773 52.85743164 260.25280273 52.83618164 258.40405273 C47.55618164 258.07405273 42.27618164 257.74405273 36.83618164 257.40405273 C36.83618164 249.40405273 36.83618164 249.40405273 38.83618164 247.40405273 C41.20127525 247.10345331 43.58060045 246.90890262 45.96118164 246.77905273 C47.88317383 246.6669043 47.88317383 246.6669043 49.84399414 246.55249023 C50.83141602 246.50350586 51.81883789 246.45452148 52.83618164 246.40405273 C52.83618164 242.44405273 52.83618164 238.48405273 52.83618164 234.40405273 C49.80883789 234.17618815 46.78149414 233.94832357 43.75415039 233.72045898 C40.83618164 233.40405273 40.83618164 233.40405273 37.83618164 232.40405273 C36.45493146 229.64155238 36.64538858 227.45674174 36.83618164 224.40405273 C39.6941148 221.54611958 41.98283748 221.99605333 45.96118164 221.77905273 C47.88317383 221.6669043 47.88317383 221.6669043 49.84399414 221.55249023 C50.83141602 221.50350586 51.81883789 221.45452148 52.83618164 221.40405273 C52.83618164 217.77405273 52.83618164 214.14405273 52.83618164 210.40405273 C52.00473633 210.3434668 51.17329102 210.28288086 50.31665039 210.22045898 C49.2299707 210.13666992 48.14329102 210.05288086 47.02368164 209.96655273 C45.40526367 209.84473633 45.40526367 209.84473633 43.75415039 209.72045898 C40.83618164 209.40405273 40.83618164 209.40405273 37.83618164 208.40405273 C36.45493146 205.64155238 36.64538858 203.45674174 36.83618164 200.40405273 C39.6941148 197.54611958 41.98283748 197.99605333 45.96118164 197.77905273 C47.88317383 197.6669043 47.88317383 197.6669043 49.84399414 197.55249023 C50.83141602 197.50350586 51.81883789 197.45452148 52.83618164 197.40405273 C52.83618164 193.44405273 52.83618164 189.48405273 52.83618164 185.40405273 C51.93254883 185.36666992 51.02891602 185.32928711 50.09790039 185.29077148 C48.9184082 185.2250293 47.73891602 185.15928711 46.52368164 185.09155273 C45.35192383 185.03354492 44.18016602 184.97553711 42.97290039 184.91577148 C39.83618164 184.40405273 39.83618164 184.40405273 37.94165039 183.05249023 C36.20749061 180.46657 36.45110798 178.42046304 36.83618164 175.40405273 C40.35774128 173.05634631 42.34390007 173.02735659 46.52368164 172.77905273 C47.70317383 172.70428711 48.88266602 172.62952148 50.09790039 172.55249023 C51.0015332 172.50350586 51.90516602 172.45452148 52.83618164 172.40405273 C52.83618164 168.44405273 52.83618164 164.48405273 52.83618164 160.40405273 C51.48073242 160.33057617 51.48073242 160.33057617 50.09790039 160.25561523 C48.9184082 160.18084961 47.73891602 160.10608398 46.52368164 160.02905273 C45.35192383 159.95944336 44.18016602 159.88983398 42.97290039 159.81811523 C39.83618164 159.40405273 39.83618164 159.40405273 36.83618164 157.40405273 C36.45110798 154.38764243 36.20749061 152.34153547 37.94165039 149.75561523 C40.72008723 147.77347266 43.15055054 147.88353942 46.52368164 147.71655273 C47.70317383 147.65081055 48.88266602 147.58506836 50.09790039 147.51733398 C51.45334961 147.46125977 51.45334961 147.46125977 52.83618164 147.40405273 C52.83618164 143.77405273 52.83618164 140.14405273 52.83618164 136.40405273 C51.48073242 136.33057617 51.48073242 136.33057617 50.09790039 136.25561523 C48.9184082 136.18084961 47.73891602 136.10608398 46.52368164 136.02905273 C45.35192383 135.95944336 44.18016602 135.88983398 42.97290039 135.81811523 C39.83618164 135.40405273 39.83618164 135.40405273 36.83618164 133.40405273 C36.45110798 130.38764243 36.20749061 128.34153547 37.94165039 125.75561523 C40.72008723 123.77347266 43.15055054 123.88353942 46.52368164 123.71655273 C47.70317383 123.65081055 48.88266602 123.58506836 50.09790039 123.51733398 C51.45334961 123.46125977 51.45334961 123.46125977 52.83618164 123.40405273 C52.83618164 119.44405273 52.83618164 115.48405273 52.83618164 111.40405273 C51.35504883 111.33057617 51.35504883 111.33057617 49.84399414 111.25561523 C48.56266602 111.18084961 47.28133789 111.10608398 45.96118164 111.02905273 C44.68500977 110.95944336 43.40883789 110.88983398 42.09399414 110.81811523 C38.83618164 110.40405273 38.83618164 110.40405273 36.83618164 108.40405273 C36.50284831 103.0707194 36.50284831 103.0707194 37.83618164 100.40405273 C40.99863706 99.34990093 43.70566382 99.09129601 47.02368164 98.84155273 C48.94180664 98.69717773 50.85993164 98.55280273 52.83618164 98.40405273 C52.83618164 94.44405273 52.83618164 90.48405273 52.83618164 86.40405273 C51.35504883 86.33057617 51.35504883 86.33057617 49.84399414 86.25561523 C48.56266602 86.18084961 47.28133789 86.10608398 45.96118164 86.02905273 C44.68500977 85.95944336 43.40883789 85.88983398 42.09399414 85.81811523 C38.83618164 85.40405273 38.83618164 85.40405273 36.83618164 83.40405273 C36.83618164 80.76405273 36.83618164 78.12405273 36.83618164 75.40405273 C44.75618164 74.90905273 44.75618164 74.90905273 52.83618164 74.40405273 C52.83618164 70.44405273 52.83618164 66.48405273 52.83618164 62.40405273 C51.84875977 62.35506836 50.86133789 62.30608398 49.84399414 62.25561523 C48.56266602 62.18084961 47.28133789 62.10608398 45.96118164 62.02905273 C44.68500977 61.95944336 43.40883789 61.88983398 42.09399414 61.81811523 C38.83618164 61.40405273 38.83618164 61.40405273 36.83618164 59.40405273 C36.83618164 56.76405273 36.83618164 54.12405273 36.83618164 51.40405273 C44.75618164 50.90905273 44.75618164 50.90905273 52.83618164 50.40405273 C52.83618164 46.11405273 52.83618164 41.82405273 52.83618164 37.40405273 C51.35504883 37.33057617 51.35504883 37.33057617 49.84399414 37.25561523 C48.56266602 37.18084961 47.28133789 37.10608398 45.96118164 37.02905273 C44.68500977 36.95944336 43.40883789 36.88983398 42.09399414 36.81811523 C38.83618164 36.40405273 38.83618164 36.40405273 36.83618164 34.40405273 C36.58618164 31.40405273 36.58618164 31.40405273 36.83618164 28.40405273 C39.6941148 25.54611958 41.98283748 25.99605333 45.96118164 25.77905273 C47.24250977 25.70428711 48.52383789 25.62952148 49.84399414 25.55249023 C50.83141602 25.50350586 51.81883789 25.45452148 52.83618164 25.40405273 C52.83618164 21.44405273 52.83618164 17.48405273 52.83618164 13.40405273 C50.34143193 12.15667788 48.6584056 12.27708947 45.86743164 12.2746582 C44.31572266 12.26992996 44.31572266 12.26992996 42.73266602 12.2651062 C41.61182617 12.26713043 40.49098633 12.26915466 39.33618164 12.27124023 C38.18956055 12.27028351 37.04293945 12.26932678 35.86157227 12.26834106 C33.43383733 12.26765963 31.00610059 12.26951138 28.57836914 12.27368164 C24.85176521 12.27903037 21.1252818 12.27373539 17.39868164 12.26733398 C15.04451471 12.26799477 12.69034785 12.26927595 10.33618164 12.27124023 C9.2153418 12.269216 8.09450195 12.26719177 6.93969727 12.2651062 C5.90522461 12.26825836 4.87075195 12.27141052 3.80493164 12.2746582 C2.89163086 12.2754538 1.97833008 12.27624939 1.03735352 12.27706909 C-1.20720086 12.26117806 -1.20720086 12.26117806 -3.16381836 13.40405273 Z " fill="#000000" transform="translate(23.163818359375,6.595947265625)"/>
<path d="M0 0 C18.6611954 14.77850195 29.85582198 35.53511587 33 59 C34.81155336 85.4040967 27.74308953 108.50316592 10.25 128.6875 C-5.17658354 145.00498046 -26.48155853 155.35181191 -49.05859375 156.203125 C-75.02941706 156.67053474 -97.51436479 148.74481089 -116.4765625 130.64453125 C-134.00944401 112.27028855 -141.65498814 89.48961139 -141.2734375 64.375 C-140.60546648 45.90990002 -133.76657136 28.19039693 -122 14 C-121.31164062 13.14921875 -120.62328125 12.2984375 -119.9140625 11.421875 C-89.78954016 -24.03153397 -36.33261015 -27.18624657 0 0 Z M-108 18 C-109.10601562 19.05960938 -109.10601562 19.05960938 -110.234375 20.140625 C-122.83042678 32.9319644 -128.30908627 51.4538347 -128.5 69 C-128.28800498 88.48366732 -121.61772057 106.57381798 -107.703125 120.390625 C-106.81109375 121.25171875 -105.9190625 122.1128125 -105 123 C-104.29359375 123.73734375 -103.5871875 124.4746875 -102.859375 125.234375 C-90.0680356 137.83042678 -71.5461653 143.30908627 -54 143.5 C-34.51633268 143.28800498 -16.42618202 136.61772057 -2.609375 122.703125 C-1.74828125 121.81109375 -0.8871875 120.9190625 0 120 C0.73734375 119.29359375 1.4746875 118.5871875 2.234375 117.859375 C14.83042678 105.0680356 20.30908627 86.5461653 20.5 69 C20.28800498 49.51633268 13.61772057 31.42618202 -0.296875 17.609375 C-1.18890625 16.74828125 -2.0809375 15.8871875 -3 15 C-3.70640625 14.26265625 -4.4128125 13.5253125 -5.140625 12.765625 C-17.9319644 0.16957322 -36.4538347 -5.30908627 -54 -5.5 C-75.38254553 -5.26734395 -93.26999359 2.7407718 -108 18 Z " fill="#000000" transform="translate(310,187)"/>
<path d="M0 0 C9.51913028 7.78685039 16.61187101 19.62125351 18.375 31.875 C19.589732 49.17585786 16.52417673 62.70761433 5.625 76.5625 C-3.39361133 86.54655014 -16.036676 92.20106029 -29.29296875 93.1328125 C-44.36969925 93.72085995 -57.29874593 89.4767985 -68.8125 79.625 C-79.08538218 70.00512273 -84.76517594 57.99237424 -85.84765625 43.99609375 C-86.27570606 29.72156325 -81.67717222 16.48812314 -72.4375 5.5625 C-52.72936269 -15.00394815 -22.73031764 -16.24149192 0 0 Z M-64.37109375 15.9375 C-71.39573327 25.7474704 -73.96589009 35.87540193 -72.625 47.875 C-69.94651889 59.50683087 -63.43823723 68.90544982 -53.4140625 75.28125 C-44.45457638 80.26840732 -34.42832827 82.07975502 -24.37890625 79.75390625 C-12.79392078 76.05657046 -3.49815638 69.75308926 2.3125 58.875 C7.30264389 47.75902431 7.60453759 37.29157138 3.375 25.875 C-2.25616193 14.16900883 -9.71691175 7.8800921 -21.625 2.875 C-36.87340598 -2.28116202 -54.27020385 4.0062475 -64.37109375 15.9375 Z " fill="#000000" transform="translate(485.625,180.125)"/>
<path d="M0 0 C5.17981667 4.13942614 8.70545567 9.11065048 10.015625 15.7109375 C10.75696066 24.093733 9.02196835 30.31461132 5.015625 37.7109375 C5.90378906 37.95714844 6.79195313 38.20335937 7.70703125 38.45703125 C16.08706565 41.63293567 23.39870161 50.15932079 28.015625 57.7109375 C29.62075915 61.30780823 30.90892723 64.93269511 32.015625 68.7109375 C32.20769531 69.35289062 32.39976562 69.99484375 32.59765625 70.65625 C33.15126685 73.37773764 33.2627731 75.99770148 33.328125 78.7734375 C33.38419922 80.33771484 33.38419922 80.33771484 33.44140625 81.93359375 C33.015625 84.7109375 33.015625 84.7109375 31.19140625 86.59375 C28.12909234 88.16614099 26.26600774 87.62952393 23.015625 86.7109375 C20.23785326 83.93316576 20.33655178 81.5659029 19.703125 77.7109375 C17.60318577 66.40927485 13.65546792 58.47601365 4.015625 51.7109375 C-4.8185574 46.83446881 -13.95750033 45.08219171 -23.93359375 47.39453125 C-34.22610903 50.85407962 -41.92514752 56.85542844 -46.94921875 66.578125 C-49.03575539 71.58166062 -49.66426356 76.7108566 -50.26171875 82.07421875 C-50.984375 84.7109375 -50.984375 84.7109375 -52.85546875 86.578125 C-55.88500723 88.190173 -57.75007546 87.62497867 -60.984375 86.7109375 C-63.60749908 84.08781342 -63.28274939 82.86476279 -63.296875 79.2109375 C-63.18995614 73.25199288 -62.14873707 68.24417619 -59.984375 62.7109375 C-59.72914063 62.03546875 -59.47390625 61.36 -59.2109375 60.6640625 C-55.32322017 51.74727962 -47.37020057 43.57723028 -38.984375 38.7109375 C-36.75390625 38.05859375 -36.75390625 38.05859375 -34.984375 37.7109375 C-35.26152344 37.17984375 -35.53867188 36.64875 -35.82421875 36.1015625 C-36.18644531 35.39515625 -36.54867187 34.68875 -36.921875 33.9609375 C-37.28152344 33.26484375 -37.64117187 32.56875 -38.01171875 31.8515625 C-40.87717069 25.54526666 -41.03321667 18.08332441 -38.859375 11.5234375 C-35.92661349 4.77126565 -31.55179228 0.50311817 -24.9140625 -2.5625 C-16.46693736 -5.74299651 -7.59660344 -4.93480144 0 0 Z M-26.359375 14.4609375 C-27.80836908 19.67731617 -27.68491157 23.35990269 -25.234375 28.0859375 C-21.8381961 32.04814621 -20.32659319 32.58104542 -15.109375 33.0859375 C-10.79651534 32.97328818 -8.28158429 31.53711689 -4.984375 28.7109375 C-2.6050783 25.6827417 -2.62162054 22.46324371 -2.734375 18.671875 C-3.2507518 14.62154446 -5.11025692 12.43520676 -8.171875 9.8984375 C-15.30893088 6.88501391 -21.51192353 8.29145382 -26.359375 14.4609375 Z " fill="#000000" transform="translate(270.984375,214.2890625)"/>
<path d="M0 0 C5.72661475 7.10257481 7.99090396 14.31354556 7.62890625 23.421875 C6.54412948 31.87642383 2.69941985 38.81515531 -3.75 44.375 C-11.57029922 49.73977865 -20.04327731 51.37049196 -29.375 49.8125 C-38.10430755 47.47010978 -45.27129513 41.3309644 -49.78125 33.609375 C-53.21692186 26.0381722 -52.95000379 16.7903662 -50.1875 9.0625 C-46.03018844 0.13948982 -39.9702069 -5.24036709 -30.75 -8.625 C-20.04631546 -11.75376933 -7.56093959 -7.94539414 0 0 Z M-36.1875 9.9375 C-39.32810018 14.83683628 -39.35989857 19.72270058 -38.75 25.375 C-36.98615206 30.71693947 -33.60587731 33.68877 -28.75 36.375 C-23.64675799 38.07608067 -19.43126566 37.94021247 -14.5625 35.6875 C-10.03283417 33.21198495 -7.39663626 30.31490878 -5.75 25.375 C-4.97290326 19.12492193 -5.41117626 14.26378228 -9.1328125 9.0703125 C-12.87227606 5.15019852 -16.96535318 3.62994955 -22.25 2.875 C-27.9919804 3.69528291 -32.18311932 5.72776646 -36.1875 9.9375 Z " fill="#000000" transform="translate(110.75,387.625)"/>
<path d="M0 0 C2 3 2 3 2.04174805 6.22094727 C0.64027924 11.30492562 -1.96611823 13.83172914 -5.66796875 17.46484375 C-6.34040115 18.14301651 -7.01283356 18.82118927 -7.7056427 19.51991272 C-9.12655359 20.94489502 -10.55502388 22.36237452 -11.99047852 23.77270508 C-14.18404082 25.93409156 -16.34370253 28.12568108 -18.50195312 30.32226562 C-19.88870487 31.70505331 -21.27731629 33.08597902 -22.66796875 34.46484375 C-23.31195114 35.12097153 -23.95593353 35.7770993 -24.61943054 36.45310974 C-29.18606169 40.87975096 -29.18606169 40.87975096 -33.32324219 41.4909668 C-38.08409303 40.61773886 -40.70301182 37.34437816 -44 34 C-44.80244141 33.23042969 -44.80244141 33.23042969 -45.62109375 32.4453125 C-48.17854604 29.76469679 -49.00251333 27.98517137 -49.625 24.3125 C-49 21 -49 21 -46.875 18.9375 C-43.0982803 17.70596097 -41.53615926 18.26953909 -38 20 C-35.625 22.125 -35.625 22.125 -34 24 C-31.09778672 22.68729086 -29.03287708 21.28101018 -26.79296875 19.0234375 C-26.2093457 18.43844482 -25.62572266 17.85345215 -25.02441406 17.25073242 C-24.41823242 16.63174072 -23.81205078 16.01274902 -23.1875 15.375 C-22.25309082 14.4320105 -22.25309082 14.4320105 -21.29980469 13.4699707 C-17.45269452 9.56196305 -13.73177049 5.58299062 -10.234375 1.35546875 C-7.18517503 -1.99286159 -4.09881983 -0.87831854 0 0 Z " fill="#000000" transform="translate(476,201)"/>
<path d="M0 0 C0.98178223 -0.00430527 0.98178223 -0.00430527 1.98339844 -0.00869751 C3.36524319 -0.01073618 4.74711693 -0.00521996 6.12890625 0.00732422 C8.2428445 0.02338314 10.35487113 0.00747149 12.46875 -0.01171875 C13.81250422 -0.00973628 15.15625724 -0.00589252 16.5 0 C17.72203125 0.00338379 18.9440625 0.00676758 20.203125 0.01025391 C23.25 0.3984375 23.25 0.3984375 25.18359375 1.70068359 C26.25 3.3984375 26.25 3.3984375 26.0625 6.9609375 C25.25 10.3984375 25.25 10.3984375 23.25 12.3984375 C18.99325776 12.82003744 14.72175575 12.77003226 10.4465332 12.76904297 C8.32356467 12.77341471 6.20267832 12.80972188 4.08007812 12.84765625 C2.73177795 12.85352483 1.38346789 12.85749395 0.03515625 12.859375 C-1.19323975 12.86759277 -2.42163574 12.87581055 -3.68725586 12.88427734 C-6.75 12.3984375 -6.75 12.3984375 -8.65063477 10.52978516 C-10.01225312 7.89000541 -10.20109347 6.33054505 -9.75 3.3984375 C-7.20395352 -0.36307531 -4.28724197 0.01187132 0 0 Z " fill="#000000" transform="translate(247.75,454.6015625)"/>
<path d="M0 0 C1.04450317 0.0002417 1.04450317 0.0002417 2.11010742 0.00048828 C4.23307596 -0.00388346 6.35396231 -0.04019063 8.4765625 -0.078125 C9.82486268 -0.08399358 11.17317274 -0.0879627 12.52148438 -0.08984375 C13.74988037 -0.09806152 14.97827637 -0.1062793 16.24389648 -0.11474609 C19.30664062 0.37109375 19.30664062 0.37109375 21.20727539 2.23974609 C22.56889374 4.87952584 22.75773409 6.4389862 22.30664062 9.37109375 C21.20507812 10.99853516 21.20507812 10.99853516 19.30664062 12.37109375 C16.25976562 12.75927734 16.25976562 12.75927734 12.55664062 12.76953125 C11.5748584 12.77383652 11.5748584 12.77383652 10.57324219 12.77822876 C9.19139743 12.78026743 7.80952369 12.77475121 6.42773438 12.76220703 C4.31379612 12.74614811 2.20176949 12.76205976 0.08789062 12.78125 C-1.25586359 12.77926753 -2.59961662 12.77542377 -3.94335938 12.76953125 C-5.16539062 12.76614746 -6.38742188 12.76276367 -7.64648438 12.75927734 C-10.69335938 12.37109375 -10.69335938 12.37109375 -12.62695312 11.06884766 C-13.69335938 9.37109375 -13.69335938 9.37109375 -13.50585938 5.80859375 C-11.76249548 -1.56717659 -6.38352833 0.04658367 0 0 Z " fill="#000000" transform="translate(251.693359375,44.62890625)"/>
</svg>
