<svg width="300" height="300" viewBox="0 0 300 300" fill="none" xmlns="http://www.w3.org/2000/svg">
<path d="M195.514 175.956C195.514 175.956 195.228 109.31 195.514 64.0617C195.836 49.9327 195.61 38.8393 177.158 36.6703C159.554 36.7067 104.705 36.881 84.6393 36.6703C64.5739 36.459 58.7659 45.5484 60.2089 64.0617C60.2089 92.2554 60.2089 222.14 60.2089 241.314C60.2089 261.689 74.4569 263.715 84.6393 263.284H168.534H172.682C171.83 242.987 177.211 222.912 188.11 205.732C178.592 196.262 170.165 187.54 159.102 175.961C157.387 173.483 156.604 170.483 156.89 167.487C157.176 164.492 158.513 161.693 160.668 159.58C162.821 157.468 165.654 156.178 168.669 155.937C171.684 155.695 174.687 156.517 177.154 158.259C187.055 166.922 216.667 197.239 216.667 197.239" stroke="black" stroke-width="6" stroke-linecap="round" stroke-linejoin="round"/>
<path d="M63.334 66.6666H193.334" stroke="black" stroke-width="6" stroke-linecap="round"/>
<path d="M63.334 230H133.334" stroke="black" stroke-width="6" stroke-linecap="round"/>
<path d="M63.334 213.333H133.334" stroke="black" stroke-width="6" stroke-linecap="round"/>
<path d="M63.334 196.667H133.334" stroke="black" stroke-width="6" stroke-linecap="round"/>
<path d="M220 136.667C220 136.667 237.358 151.624 239.187 158.206C241.016 164.787 239.187 263.333 239.187 263.333" stroke="black" stroke-width="6" stroke-linecap="round" stroke-linejoin="round"/>
<path d="M90.8247 93.3334H115.841C116.944 93.3334 118.001 93.7717 118.781 94.5517C119.561 95.3314 119.999 96.3894 119.999 97.4924V122.508C119.999 123.611 119.561 124.669 118.781 125.449C118.001 126.229 116.944 126.667 115.841 126.667H90.8247C89.7237 126.667 88.668 126.23 87.8887 125.453C87.109 124.676 86.6693 123.622 86.666 122.521V97.4924C86.666 96.3894 87.104 95.3314 87.884 94.5517C88.664 93.7717 89.7217 93.3334 90.8247 93.3334Z" stroke="black" stroke-width="6"/>
<path d="M128.334 56.6666C131.095 56.6666 133.334 54.428 133.334 51.6666C133.334 48.9052 131.095 46.6666 128.334 46.6666C125.573 46.6666 123.334 48.9052 123.334 51.6666C123.334 54.428 125.573 56.6666 128.334 56.6666Z" fill="black"/>
</svg>
