<svg width="48" height="48" viewBox="0 0 48 48" fill="none" xmlns="http://www.w3.org/2000/svg">
<path d="M16.6795 1.45157C16.8572 1.45106 17.0349 1.45039 17.2125 1.44957C17.6925 1.44787 18.1725 1.44852 18.6525 1.44972C19.1562 1.45067 19.66 1.44978 20.1637 1.4492C21.0095 1.44852 21.8552 1.44941 22.701 1.4512C23.6769 1.45324 24.6529 1.45258 25.6289 1.45051C26.4688 1.44881 27.3087 1.44857 28.1486 1.44955C28.6494 1.45014 29.1502 1.45022 29.651 1.44898C30.122 1.44789 30.5929 1.44865 31.0638 1.45081C31.236 1.45131 31.4082 1.45117 31.5804 1.45034C32.9096 1.44452 33.9662 1.5714 34.9718 2.53134C35.9206 3.52528 36.0589 4.58443 36.0456 5.90897C36.0455 6.05783 36.0455 6.20669 36.0458 6.35554C36.0459 6.75664 36.0437 7.15769 36.041 7.55877C36.0387 7.97904 36.0385 8.39932 36.038 8.8196C36.0369 9.61411 36.0338 10.4086 36.03 11.2031C36.0258 12.1082 36.0238 13.0133 36.0219 13.9184C36.018 15.7789 36.0114 17.6395 36.003 19.5001C36.1205 19.4947 36.2379 19.4892 36.359 19.4836C36.5138 19.4792 36.6685 19.4749 36.8233 19.4708C36.9393 19.4649 36.9393 19.4649 37.0577 19.4589C37.6345 19.4473 37.6345 19.4473 37.9274 19.7236C38.0538 19.948 38.1323 20.1232 38.1842 20.3739C38.1999 20.4472 38.2156 20.5206 38.2318 20.5962C38.2465 20.6714 38.2613 20.7467 38.2765 20.8243C38.2926 20.9003 38.3088 20.9763 38.3255 21.0547C38.3885 21.3569 38.4405 21.6278 38.4405 21.9376C38.5159 21.9453 38.5913 21.9531 38.669 21.961C39.0295 22.0369 39.3109 22.1686 39.6362 22.3368C39.9131 22.4283 40.0388 22.4069 40.3155 22.3126C40.5911 22.1384 40.8559 21.9571 41.1184 21.7642C41.5563 21.4628 41.8467 21.4067 42.378 21.4688C42.5692 21.5663 42.5692 21.5663 42.7179 21.7149C42.7783 21.7742 42.8387 21.8334 42.901 21.8944C42.9759 21.9705 43.0508 22.0466 43.128 22.1251C43.2386 22.2296 43.3495 22.3338 43.4605 22.4378C43.5803 22.5522 43.6999 22.6667 43.8194 22.7813C43.8775 22.8358 43.9356 22.8903 43.9954 22.9464C44.3561 23.3006 44.5502 23.5766 44.628 24.0938C44.5874 24.2857 44.5874 24.2857 44.4932 24.4454C44.4582 24.5074 44.4232 24.5694 44.387 24.6333C44.2862 24.7917 44.1827 24.9484 44.078 25.1042C44.0178 25.1943 43.9576 25.2843 43.8956 25.377C43.8077 25.5023 43.8077 25.5023 43.718 25.6301C43.5706 25.9279 43.5871 26.0331 43.6905 26.3438C43.7827 26.5875 43.8845 26.8257 43.9868 27.0653C44.0655 27.2813 44.0655 27.2813 44.0655 27.5626C44.1199 27.5725 44.1742 27.5824 44.2302 27.5926C44.4782 27.6382 44.726 27.6854 44.9737 27.7325C45.0592 27.748 45.1447 27.7636 45.2328 27.7796C46.146 27.9556 46.146 27.9556 46.503 28.3126C46.5148 28.5593 46.5207 28.8033 46.5221 29.0501C46.5226 29.1243 46.5231 29.1984 46.5237 29.2747C46.5246 29.4319 46.5252 29.589 46.5255 29.7462C46.5264 29.9867 46.5294 30.2272 46.5323 30.4677C46.5329 30.6202 46.5334 30.7727 46.5338 30.9251C46.5349 30.9972 46.5361 31.0693 46.5373 31.1436C46.5352 31.6368 46.5352 31.6368 46.3887 31.8677C46.1843 31.9915 46.0034 32.0458 45.7702 32.0988C45.6832 32.1191 45.5961 32.1393 45.5064 32.1602C45.4157 32.1802 45.325 32.2002 45.2315 32.2208C45.1405 32.2419 45.0494 32.263 44.9556 32.2847C44.2869 32.4376 44.2869 32.4376 44.0655 32.4376C44.0578 32.513 44.05 32.5884 44.0421 32.6661C43.9662 33.0265 43.8345 33.3079 43.6663 33.6333C43.5748 33.9102 43.5969 34.0355 43.6905 34.3126C43.8261 34.5378 43.9634 34.753 44.1124 34.9688C44.6231 35.7088 44.6231 35.7088 44.628 36.0938C44.4533 36.5016 44.2507 36.787 43.9362 37.0976C43.8576 37.1758 43.779 37.2539 43.698 37.3344C43.6163 37.4142 43.5345 37.494 43.4503 37.5763C43.3682 37.6579 43.286 37.7395 43.2014 37.8236C42.4976 38.5188 42.4976 38.5188 42.0393 38.5669C41.5521 38.5608 41.2462 38.3325 40.8604 38.0567C40.4106 37.7099 40.4106 37.7099 39.8779 37.5997C39.7697 37.6432 39.7697 37.6432 39.6593 37.6876C39.54 37.7327 39.54 37.7327 39.4183 37.7788C39.2581 37.8471 39.098 37.9155 38.9378 37.9839C38.7218 38.0626 38.7218 38.0626 38.4405 38.0626C38.4251 38.1665 38.4251 38.1665 38.4094 38.2724C38.1407 39.9914 38.1407 39.9914 37.848 40.3855C37.5905 40.5729 37.3587 40.5501 37.0496 40.5385C36.8468 40.5001 36.8468 40.5001 36.6065 40.3067C36.2952 39.6704 36.5394 38.9456 36.6827 38.2852C36.7115 38.1413 36.7115 38.1413 36.7409 37.9945C36.9389 37.0731 36.9389 37.0731 37.3155 36.7501C37.5571 36.6392 37.7797 36.5504 38.0304 36.4688C38.5626 36.2847 39.0554 36.083 39.5457 35.8016C39.8333 35.6868 40.0061 35.6764 40.3155 35.7188C40.5933 35.8517 40.8451 36.0166 41.1007 36.1876C41.1697 36.2323 41.2387 36.277 41.3098 36.3231C41.4791 36.433 41.6474 36.5445 41.8155 36.6563C41.9214 36.5689 42.0267 36.4809 42.1319 36.3927C42.1907 36.3437 42.2494 36.2948 42.3099 36.2444C42.4926 36.0861 42.4926 36.0861 42.6593 35.8126C42.5916 35.7108 42.5239 35.6091 42.4542 35.5042C42.3662 35.3688 42.2783 35.2333 42.1905 35.0977C42.1458 35.0309 42.1011 34.9641 42.055 34.8952C41.8032 34.5031 41.6376 34.2298 41.7218 33.7501C41.8135 33.5192 41.9079 33.3078 42.0206 33.088C42.2542 32.6198 42.4411 32.1643 42.6007 31.6642C42.7887 31.168 42.7887 31.168 43.0203 30.9969C43.2445 30.9179 43.4555 30.8797 43.6905 30.8438C43.9114 30.7919 44.1321 30.7391 44.3526 30.6856C44.5381 30.6442 44.7236 30.6031 44.9093 30.5626C44.9093 30.1913 44.9093 29.8201 44.9093 29.4376C44.7918 29.4127 44.6743 29.3878 44.5533 29.3622C44.3985 29.3287 44.2437 29.2953 44.089 29.2618C43.9729 29.2373 43.9729 29.2373 43.8546 29.2124C43.7422 29.1879 43.7422 29.1879 43.6275 29.1629C43.5588 29.1482 43.4901 29.1335 43.4192 29.1183C42.9036 28.9728 42.9036 28.9728 42.7413 28.6936C42.7007 28.5844 42.7007 28.5844 42.6593 28.473C42.6283 28.3924 42.5974 28.3118 42.5655 28.2287C42.5346 28.1443 42.5036 28.0598 42.4718 27.9727C42.4096 27.8073 42.3471 27.6421 42.2843 27.4769C42.2386 27.3559 42.2386 27.3559 42.192 27.2325C42.1019 27.0126 41.9988 26.8084 41.8858 26.5995C41.7218 26.2741 41.6531 26.0568 41.7218 25.6876C41.8562 25.4106 42.0195 25.1581 42.1905 24.9024C42.2352 24.8334 42.2799 24.7644 42.326 24.6933C42.436 24.524 42.5475 24.3557 42.6593 24.1876C42.5718 24.0818 42.4838 23.9764 42.3956 23.8712C42.3466 23.8125 42.2977 23.7537 42.2473 23.6932C42.0891 23.5105 42.0891 23.5105 41.8155 23.3438C41.7138 23.4115 41.612 23.4792 41.5072 23.5489C41.3717 23.6369 41.2362 23.7248 41.1007 23.8126C41.0338 23.8573 40.967 23.902 40.8982 23.9481C40.506 24.2 40.232 24.3694 39.753 24.2813C39.4837 24.1797 39.2299 24.0546 38.9737 23.9239C38.5418 23.7102 38.1266 23.505 37.6612 23.3731C37.2624 23.2312 37.1696 23.1295 36.9405 22.7813C36.8424 22.4649 36.8424 22.4649 36.7765 22.1251C36.7537 22.0129 36.731 21.9008 36.7076 21.7852C36.6665 21.516 36.649 21.2714 36.6593 21.0001C36.4427 21.0001 36.2261 21.0001 36.003 21.0001C36.003 22.4851 36.003 23.9701 36.003 25.5001C36.3124 25.5001 36.6218 25.5001 36.9405 25.5001C38.1024 25.7249 39.1294 26.4477 39.8145 27.4044C40.5706 28.5904 40.6912 29.9026 40.4415 31.276C40.1314 32.3078 39.4317 33.2539 38.5284 33.8438C38.196 33.957 38.0236 33.9525 37.6905 33.8438C37.4679 33.6915 37.4679 33.6915 37.3155 33.4688C37.2449 33.0453 37.2727 32.8737 37.5206 32.5196C37.6807 32.3483 37.8485 32.1891 38.0186 32.0274C38.6924 31.32 38.8598 30.6714 38.8419 29.7071C38.7881 28.9661 38.5111 28.3598 37.9718 27.8438C37.4972 27.4862 37.0875 27.2816 36.5006 27.18C36.4075 27.1637 36.3144 27.1474 36.2184 27.1306C36.1473 27.1185 36.0763 27.1063 36.003 27.0938C36.0034 27.1779 36.0037 27.262 36.0041 27.3486C36.0124 29.3972 36.0186 31.4458 36.0224 33.4944C36.0244 34.4851 36.027 35.4758 36.0313 36.4665C36.035 37.3302 36.0375 38.194 36.0383 39.0578C36.0388 39.5149 36.0399 39.972 36.0427 40.4291C36.0452 40.8599 36.046 41.2907 36.0454 41.7216C36.0455 41.8791 36.0463 42.0367 36.0477 42.1942C36.0589 43.4795 35.8911 44.5058 34.9718 45.4688C33.89 46.5016 32.7425 46.5555 31.3265 46.5486C31.1488 46.5491 30.9712 46.5498 30.7935 46.5506C30.3135 46.5523 29.8336 46.5517 29.3536 46.5505C28.8498 46.5495 28.3461 46.5504 27.8423 46.551C26.9966 46.5517 26.1508 46.5508 25.3051 46.549C24.3291 46.5469 23.3531 46.5476 22.3771 46.5497C21.5372 46.5514 20.6973 46.5516 19.8574 46.5506C19.3566 46.55 18.8558 46.55 18.355 46.5512C17.8841 46.5523 17.4132 46.5515 16.9422 46.5494C16.77 46.5489 16.5978 46.549 16.4256 46.5498C15.0964 46.5557 14.0398 46.4288 13.0343 45.4688C12.0854 44.4749 11.9471 43.4158 11.9604 42.0912C11.9606 41.9424 11.9605 41.7935 11.9603 41.6446C11.9602 41.2435 11.9624 40.8425 11.965 40.4414C11.9674 40.0211 11.9676 39.6009 11.968 39.1806C11.9692 38.3861 11.9722 37.5916 11.976 36.7971C11.9802 35.892 11.9823 34.9869 11.9841 34.0818C11.9881 32.2212 11.9946 30.3607 12.003 28.5001C11.8856 28.5055 11.7681 28.511 11.6471 28.5166C11.4923 28.521 11.3375 28.5252 11.1827 28.5294C11.1054 28.5333 11.028 28.5372 10.9483 28.5413C10.3715 28.5529 10.3715 28.5529 10.0786 28.2766C9.95223 28.0521 9.87372 27.877 9.82187 27.6263C9.80616 27.553 9.79044 27.4796 9.77426 27.404C9.75951 27.3287 9.74477 27.2534 9.72958 27.1759C9.70529 27.0618 9.70529 27.0618 9.68051 26.9455C9.61757 26.6433 9.56552 26.3724 9.56552 26.0626C9.49011 26.0549 9.4147 26.0471 9.337 26.0392C8.97657 25.9633 8.69516 25.8316 8.36984 25.6634C8.09293 25.5719 7.96724 25.5933 7.69052 25.6876C7.41493 25.8618 7.15016 26.0431 6.8876 26.236C6.44973 26.5374 6.15937 26.5934 5.62802 26.5313C5.43686 26.4339 5.43686 26.4339 5.28817 26.2852C5.22775 26.226 5.16733 26.1668 5.10507 26.1058C5.03014 26.0297 4.95522 25.9535 4.87802 25.8751C4.76742 25.7706 4.65656 25.6664 4.5455 25.5623C4.42574 25.448 4.30611 25.3335 4.18661 25.2188C4.12853 25.1644 4.07045 25.1099 4.0106 25.0538C3.64996 24.6995 3.45586 24.4236 3.37802 23.9063C3.41867 23.7144 3.41867 23.7144 3.51278 23.5548C3.54783 23.4928 3.58288 23.4308 3.61899 23.3669C3.71981 23.2085 3.8233 23.0518 3.92807 22.896C4.01834 22.7609 4.01834 22.7609 4.11044 22.6231C4.19836 22.4979 4.19836 22.4979 4.28805 22.3701C4.4354 22.0723 4.41894 21.9671 4.31552 21.6563C4.22331 21.4127 4.12156 21.1745 4.01925 20.9349C3.94052 20.7188 3.94052 20.7188 3.94052 20.4376C3.88617 20.4277 3.83183 20.4178 3.77584 20.4076C3.52781 20.3619 3.28007 20.3148 3.03232 20.2677C2.94681 20.2521 2.86131 20.2366 2.77322 20.2206C1.86005 20.0446 1.86005 20.0446 1.50302 19.6876C1.49123 19.4409 1.48533 19.1968 1.48398 18.95C1.48344 18.8759 1.48291 18.8018 1.48236 18.7255C1.48147 18.5683 1.48086 18.4112 1.4805 18.254C1.47959 18.0135 1.47668 17.773 1.47372 17.5324C1.47311 17.38 1.47262 17.2275 1.47226 17.075C1.4711 17.003 1.46994 16.9309 1.46875 16.8566C1.47081 16.3633 1.47081 16.3633 1.61735 16.1324C1.82175 16.0086 2.00258 15.9544 2.23581 15.9013C2.32288 15.8811 2.40995 15.8609 2.49966 15.84C2.59036 15.82 2.68106 15.8 2.7745 15.7794C2.86556 15.7583 2.95662 15.7372 3.05044 15.7155C3.71918 15.5626 3.71918 15.5626 3.94052 15.5626C3.95212 15.4495 3.95212 15.4495 3.96396 15.3341C4.03984 14.9736 4.17152 14.6922 4.33969 14.3669C4.43121 14.0899 4.4091 13.9647 4.31552 13.6876C4.17996 13.4623 4.04261 13.2472 3.89364 13.0313C3.38296 12.2914 3.38296 12.2914 3.37802 11.9063C3.64286 11.2931 4.05975 10.8951 4.52646 10.4298C4.60465 10.3489 4.68284 10.2681 4.76339 10.1848C5.51684 9.42897 5.51684 9.42897 6.09677 9.37509C6.33627 9.43954 6.33627 9.43954 6.5538 9.56259C6.6729 9.62821 6.6729 9.62821 6.7944 9.69516C7.10086 9.88511 7.39383 10.0905 7.68063 10.3089C7.94531 10.4395 8.06807 10.399 8.34677 10.3126C8.59043 10.2204 8.82863 10.1186 9.0682 10.0163C9.28427 9.93759 9.28427 9.93759 9.56552 9.93759C9.57579 9.86834 9.58606 9.7991 9.59665 9.72775C9.8653 8.00879 9.8653 8.00879 10.158 7.61471C10.4155 7.42729 10.6473 7.45006 10.9564 7.46164C11.1593 7.50009 11.1593 7.50009 11.3995 7.69345C11.7138 8.33569 11.461 9.05665 11.3116 9.72079C11.2908 9.81753 11.27 9.91427 11.2486 10.0139C11.0562 10.886 11.0562 10.886 10.878 11.1563C10.6965 11.2618 10.6965 11.2618 10.4759 11.3438C10.355 11.3902 10.355 11.3902 10.2317 11.4376C10.1472 11.4685 10.0627 11.4995 9.97567 11.5313C9.81027 11.5935 9.64499 11.656 9.47983 11.7188C9.39919 11.7493 9.31855 11.7797 9.23547 11.8111C9.0155 11.9012 8.81131 12.0043 8.60238 12.1173C8.27704 12.2813 8.05969 12.35 7.69052 12.2813C7.41352 12.1469 7.16099 11.9836 6.90536 11.8126C6.83636 11.7679 6.76735 11.7232 6.69626 11.6771C6.52693 11.5671 6.35862 11.4556 6.19052 11.3438C6.08468 11.4313 5.9793 11.5193 5.87411 11.6075C5.81538 11.6565 5.75665 11.7054 5.69613 11.7558C5.51345 11.9141 5.51345 11.9141 5.34677 12.1876C5.41444 12.2893 5.48212 12.3911 5.55185 12.4959C5.6398 12.6314 5.72769 12.7669 5.81552 12.9024C5.86023 12.9693 5.90495 13.0361 5.95102 13.1049C6.20286 13.4971 6.3684 13.7703 6.28427 14.2501C6.19251 14.4809 6.09809 14.6924 5.98544 14.9122C5.75245 15.3802 5.56246 15.8377 5.3995 16.336C5.21073 16.8309 5.21073 16.8309 5.00985 17.0033C4.8084 17.0861 4.62465 17.1215 4.40927 17.1563C4.17489 17.2091 3.94052 17.2618 3.70614 17.3145C3.50313 17.3561 3.30005 17.3973 3.09677 17.4376C3.09677 17.8088 3.09677 18.1801 3.09677 18.5626C3.21423 18.5875 3.3317 18.6124 3.45273 18.638C3.60752 18.6715 3.7623 18.7049 3.91708 18.7384C3.99443 18.7547 4.07177 18.771 4.15146 18.7878C4.22638 18.8041 4.30131 18.8204 4.37851 18.8372C4.44724 18.852 4.51597 18.8667 4.58679 18.8819C5.10248 19.0274 5.10248 19.0274 5.26474 19.3066C5.29181 19.3794 5.31888 19.4522 5.34677 19.5272C5.39317 19.6481 5.39317 19.6481 5.44052 19.7715C5.47146 19.8559 5.50239 19.9404 5.53427 20.0274C5.59645 20.1928 5.65894 20.3581 5.72177 20.5233C5.75222 20.6039 5.78268 20.6846 5.81405 20.7676C5.90415 20.9876 6.00724 21.1918 6.12021 21.4007C6.28427 21.7261 6.35295 21.9434 6.28427 22.3126C6.14983 22.5896 5.98655 22.8421 5.81552 23.0977C5.74845 23.2013 5.74845 23.2013 5.68002 23.3069C5.57007 23.4762 5.45857 23.6445 5.34677 23.8126C5.43421 23.9184 5.52221 24.0238 5.61044 24.129C5.65938 24.1877 5.70833 24.2465 5.75876 24.307C5.91698 24.4897 5.91698 24.4897 6.19052 24.6563C6.29227 24.5887 6.39403 24.521 6.49887 24.4513C6.63432 24.3633 6.76982 24.2754 6.90536 24.1876C7.00561 24.1205 7.00561 24.1205 7.10788 24.0521C7.50003 23.8003 7.77335 23.6343 8.25302 23.7188C8.48765 23.8126 8.70319 23.909 8.92685 24.0235C9.43462 24.2744 9.93335 24.4831 10.4777 24.6454C10.7685 24.7885 10.8909 24.9466 11.0655 25.2188C11.1637 25.5352 11.1637 25.5352 11.2296 25.8751C11.2523 25.9872 11.275 26.0994 11.2984 26.2149C11.3396 26.4841 11.357 26.7288 11.3468 27.0001C11.5633 27.0001 11.7799 27.0001 12.003 27.0001C12.003 25.5151 12.003 24.0301 12.003 22.5001C11.6936 22.5001 11.3843 22.5001 11.0655 22.5001C9.90361 22.2753 8.87666 21.5524 8.19149 20.5958C7.43543 19.4098 7.31484 18.0976 7.56454 16.7242C7.88112 15.6708 8.58086 14.8441 9.41903 14.1563C9.79009 14.0115 10.0214 14.0625 10.4093 14.1563C10.6849 14.3717 10.6918 14.5377 10.7608 14.8829C10.7516 15.1606 10.7126 15.2575 10.5213 15.4637C10.3728 15.5873 10.2228 15.7092 10.0716 15.8296C9.58636 16.265 9.21662 16.8971 9.16818 17.5522C9.15054 18.4647 9.25892 19.1249 9.76474 19.8985C10.2884 20.3994 10.7895 20.6962 11.5055 20.8202C11.5986 20.8365 11.6917 20.8528 11.7876 20.8696C11.8587 20.8817 11.9298 20.8938 12.003 20.9063C12.0027 20.8223 12.0023 20.7382 12.002 20.6515C11.9937 18.603 11.9875 16.5544 11.9836 14.5058C11.9817 13.5151 11.979 12.5244 11.9747 11.5337C11.971 10.6699 11.9686 9.80618 11.9677 8.94241C11.9672 8.4853 11.9661 8.02821 11.9634 7.57111C11.9608 7.14026 11.96 6.70945 11.9606 6.2786C11.9605 6.12106 11.9598 5.96351 11.9583 5.80596C11.9471 4.52071 12.115 3.49435 13.0343 2.53134C14.1161 1.49863 15.2635 1.44473 16.6795 1.45157ZM14.1941 3.7164C13.5967 4.37849 13.4915 5.02204 13.491 5.9026C13.4908 5.96631 13.4906 6.03002 13.4905 6.09566C13.49 6.30901 13.4903 6.52235 13.4905 6.7357C13.4903 6.89026 13.4901 7.04483 13.4898 7.19939C13.4893 7.62405 13.4893 8.04871 13.4894 8.47337C13.4894 8.93139 13.4889 9.38942 13.4884 9.84744C13.4877 10.7448 13.4874 11.6421 13.4874 12.5394C13.4873 13.2687 13.4871 13.9981 13.4868 14.7274C13.486 16.795 13.4856 18.8626 13.4856 20.9301C13.4856 21.0416 13.4856 21.1531 13.4856 21.2679C13.4856 21.3795 13.4857 21.4911 13.4857 21.6061C13.4857 23.4151 13.4848 25.2241 13.4835 27.0331C13.4821 28.8904 13.4815 30.7476 13.4816 32.6048C13.4816 33.6476 13.4813 34.6904 13.4803 35.7332C13.4795 36.621 13.4793 37.5089 13.4799 38.3967C13.4802 38.8496 13.4802 39.3026 13.4794 39.7555C13.4787 40.1703 13.4788 40.5851 13.4796 40.9999C13.4798 41.1498 13.4796 41.2997 13.4791 41.4496C13.4479 42.8929 13.4479 42.8929 14.0655 44.1563C14.7791 44.8648 15.4441 45.0113 16.4414 45.0126C16.5086 45.0128 16.5759 45.0131 16.6452 45.0133C16.8695 45.0139 17.0938 45.0138 17.3181 45.0137C17.4794 45.014 17.6407 45.0143 17.802 45.0147C18.2393 45.0155 18.6767 45.0157 19.1141 45.0158C19.3876 45.0158 19.6611 45.016 19.9345 45.0163C20.8892 45.0172 21.844 45.0175 22.7987 45.0175C23.6876 45.0174 24.5765 45.0184 25.4654 45.0199C26.2294 45.0211 26.9934 45.0216 27.7575 45.0215C28.2134 45.0215 28.6693 45.0218 29.1253 45.0228C29.5543 45.0237 29.9832 45.0237 30.4122 45.023C30.5693 45.0229 30.7263 45.0231 30.8833 45.0237C32.3613 45.0619 32.3613 45.0619 33.6593 44.4376C34.356 43.7359 34.5145 43.0798 34.5151 42.0976C34.5153 42.002 34.5153 42.002 34.5156 41.9045C34.516 41.6912 34.5158 41.4778 34.5156 41.2645C34.5157 41.1099 34.5159 40.9554 34.5162 40.8008C34.5168 40.3761 34.5168 39.9515 34.5166 39.5268C34.5166 39.0688 34.5171 38.6108 34.5176 38.1527C34.5184 37.2554 34.5186 36.3581 34.5187 35.4608C34.5187 34.7314 34.5189 34.0021 34.5192 33.2728C34.52 31.2052 34.5205 29.1376 34.5204 27.0701C34.5204 26.9586 34.5204 26.8471 34.5204 26.7323C34.5204 26.5649 34.5204 26.5649 34.5204 26.3941C34.5203 24.5851 34.5212 22.776 34.5226 20.967C34.5239 19.1098 34.5246 17.2526 34.5245 15.3953C34.5244 14.3525 34.5247 13.3097 34.5257 12.267C34.5266 11.3791 34.5268 10.4913 34.5261 9.60351C34.5258 9.15057 34.5258 8.69762 34.5266 8.24468C34.5274 7.82987 34.5272 7.41507 34.5264 7.00026C34.5263 6.85036 34.5264 6.70047 34.527 6.55057C34.5581 5.10723 34.5581 5.10723 33.9405 3.84384C33.227 3.1354 32.5619 2.98886 31.5646 2.98755C31.4638 2.98723 31.4638 2.98723 31.3608 2.98691C31.1365 2.98632 30.9122 2.98639 30.6879 2.98647C30.5266 2.98619 30.3653 2.98587 30.2041 2.98552C29.7667 2.98469 29.3293 2.98447 28.8919 2.98441C28.6185 2.98434 28.345 2.98414 28.0715 2.98389C27.1168 2.98303 26.1621 2.98264 25.2074 2.98272C24.3185 2.98277 23.4296 2.98178 22.5407 2.9803C21.7766 2.97908 21.0126 2.97857 20.2486 2.97863C19.7926 2.97866 19.3367 2.97839 18.8808 2.9774C18.4518 2.97649 18.0228 2.97649 17.5938 2.97717C17.4368 2.97726 17.2797 2.97704 17.1227 2.97648C15.5298 2.93823 15.5298 2.93823 14.1941 3.7164Z" fill="white"/>
<path d="M27.9297 20.1976C28.7025 20.4013 29.4531 21.468 30.0097 22.0265C30.185 22.2023 30.3608 22.3776 30.5367 22.5529C30.6483 22.6646 30.7599 22.7764 30.8716 22.8882C30.9241 22.9405 30.9766 22.9928 31.0307 23.0468C31.348 23.366 31.4865 23.5134 31.5487 23.9644C31.528 24.8405 30.3149 25.6695 29.7249 26.2575C29.5491 26.4328 29.3738 26.6086 29.1985 26.7845C29.0868 26.8961 28.975 27.0078 28.8633 27.1194C28.8109 27.1719 28.7586 27.2244 28.7046 27.2785C28.2399 27.7405 28.2399 27.7405 27.7635 27.7789C27.4865 27.7734 27.3871 27.7558 27.1424 27.609C26.9836 27.3442 26.9313 27.1328 26.9484 26.8232C27.0133 26.582 27.1074 26.4672 27.2757 26.2833C27.3648 26.1859 27.3648 26.1859 27.4557 26.0865C27.8275 25.6971 28.2071 25.3159 28.5897 24.9371C28.6717 24.8555 28.7537 24.774 28.8382 24.6899C29.0383 24.4908 29.2387 24.292 29.4393 24.0934C29.2914 23.7286 29.0422 23.4861 28.7651 23.2166C28.7177 23.1698 28.6704 23.1229 28.6216 23.0746C28.4707 22.9254 28.3193 22.7769 28.1678 22.6285C28.0161 22.4793 27.8644 22.33 27.7131 22.1804C27.619 22.0875 27.5247 21.9949 27.4301 21.9025C27.1113 21.5882 27.0093 21.468 26.9725 21.0113C26.978 20.7343 26.9956 20.6349 27.1424 20.3902C27.4079 20.2309 27.6192 20.1784 27.9297 20.1976Z" fill="white"/>
<path d="M20.625 20.2496C20.8594 20.3902 20.8594 20.3902 21 20.6246C21.0687 20.9992 21.1024 21.2259 20.8829 21.5446C20.8053 21.6294 20.8053 21.6294 20.7261 21.7159C20.6667 21.7808 20.6073 21.8457 20.5461 21.9126C20.1743 22.302 19.7947 22.6833 19.4121 23.0621C19.3301 23.1437 19.2481 23.2252 19.1636 23.3093C18.9635 23.5083 18.7631 23.7072 18.5625 23.9058C18.7104 24.2706 18.9596 24.513 19.2367 24.7825C19.2841 24.8294 19.3314 24.8763 19.3802 24.9246C19.5311 25.0738 19.6825 25.2223 19.834 25.3707C19.9857 25.5199 20.1374 25.6692 20.2887 25.8187C20.3828 25.9117 20.4771 26.0043 20.5717 26.0967C20.8905 26.4109 20.9925 26.5312 21.0293 26.9879C21.0238 27.2649 21.0062 27.3643 20.8594 27.609C20.5939 27.7683 20.3826 27.8208 20.0721 27.8015C19.2993 27.5978 18.5487 26.5312 17.9921 25.9727C17.8168 25.7969 17.641 25.6216 17.4651 25.4463C17.3535 25.3346 17.2419 25.2228 17.1302 25.111C17.0777 25.0587 17.0252 25.0064 16.9711 24.9524C16.6538 24.6332 16.5153 24.4858 16.4531 24.0347C16.4738 23.1587 17.6869 22.3297 18.2769 21.7417C18.4527 21.5664 18.628 21.3906 18.8033 21.2147C18.915 21.1031 19.0268 20.9914 19.1385 20.8798C19.1909 20.8273 19.2432 20.7748 19.2972 20.7206C19.7273 20.2931 20.0114 20.1659 20.625 20.2496Z" fill="white"/>
<path d="M24.9446 20.2157C25.1234 20.2505 25.1234 20.2505 25.3577 20.3852C25.7735 21.0956 25.3725 22.0927 25.1834 22.8304C25.1506 22.9607 25.1179 23.091 25.0852 23.2214C25.0168 23.493 24.9477 23.7644 24.8781 24.0357C24.7891 24.3828 24.7022 24.7304 24.6159 25.0781C24.5489 25.3468 24.4808 25.6151 24.4122 25.8833C24.3797 26.0113 24.3475 26.1395 24.3158 26.2678C24.2713 26.4469 24.225 26.6255 24.1786 26.8041C24.1528 26.9056 24.127 27.0072 24.1004 27.1118C23.9869 27.405 23.8645 27.5518 23.6234 27.7505C23.2629 27.8462 22.9594 27.7999 22.639 27.6157C22.2232 26.9054 22.6242 25.9082 22.8133 25.1705C22.8461 25.0402 22.8788 24.9099 22.9115 24.7796C22.9799 24.5079 23.049 24.2365 23.1186 23.9652C23.2076 23.6181 23.2945 23.2706 23.3808 22.9228C23.4478 22.6542 23.516 22.3859 23.5845 22.1176C23.6171 21.9896 23.6492 21.8614 23.6809 21.7331C23.7254 21.554 23.7717 21.3754 23.8181 21.1968C23.8439 21.0953 23.8697 20.9937 23.8963 20.8891C24.1057 20.3481 24.3909 20.1816 24.9446 20.2157Z" fill="white"/>
<path d="M21.8965 4.45207C22.0004 4.45089 22.1042 4.4497 22.2112 4.44849C22.323 4.44925 22.4347 4.45 22.5498 4.45079C22.6649 4.45043 22.78 4.45007 22.8986 4.4497C23.142 4.44944 23.3853 4.45014 23.6287 4.4517C24.0015 4.45371 24.3742 4.45172 24.7471 4.44932C24.9834 4.44957 25.2197 4.45005 25.4561 4.45079C25.5678 4.45003 25.6795 4.44927 25.7946 4.44849C25.9504 4.45026 25.9504 4.45026 26.1094 4.45207C26.2007 4.45237 26.292 4.45267 26.386 4.45297C26.6956 4.51391 26.8075 4.63328 27.0029 4.87559C27.0527 5.06309 27.0527 5.06309 27.0498 5.25059C27.0513 5.3434 27.0513 5.3434 27.0527 5.43809C26.98 5.71177 26.8446 5.82187 26.6279 6.00059C26.386 6.04821 26.386 6.04821 26.1094 6.04911C26.0055 6.0503 25.9016 6.05148 25.7946 6.0527C25.6829 6.05194 25.5712 6.05118 25.4561 6.0504C25.2834 6.05093 25.2834 6.05093 25.1072 6.05148C24.8639 6.05174 24.6205 6.05105 24.3772 6.04948C24.0043 6.04747 23.6316 6.04946 23.2588 6.05186C23.0225 6.05161 22.7861 6.05113 22.5498 6.0504C22.4381 6.05116 22.3264 6.05191 22.2112 6.0527C22.0554 6.05092 22.0554 6.05092 21.8965 6.04911C21.8052 6.04882 21.7139 6.04852 21.6198 6.04821C21.3103 5.98728 21.1983 5.8679 21.0029 5.62559C20.9531 5.43809 20.9531 5.43809 20.9561 5.25059C20.9546 5.15778 20.9546 5.15778 20.9531 5.06309C21.083 4.57396 21.4318 4.45359 21.8965 4.45207Z" fill="white"/>
<path d="M8.53179 38.8121C8.80132 38.9469 8.80132 38.9469 9.00054 39.1871C9.08602 39.5922 9.07562 39.9154 8.84819 40.2652C8.57222 40.4396 8.38997 40.493 8.06304 40.4996C7.84485 40.393 7.67225 40.2963 7.50054 40.1246C7.46012 39.8076 7.45624 39.5038 7.50054 39.1871C7.79934 38.818 8.06652 38.7346 8.53179 38.8121Z" fill="white"/>
<path d="M8.53179 35.8121C8.80132 35.9469 8.80132 35.9469 9.00054 36.1871C9.08602 36.5922 9.07562 36.9154 8.84819 37.2652C8.57222 37.4396 8.38997 37.493 8.06304 37.4996C7.84485 37.393 7.67225 37.2963 7.50054 37.1246C7.46012 36.8076 7.45624 36.5038 7.50054 36.1871C7.79934 35.818 8.06652 35.7346 8.53179 35.8121Z" fill="white"/>
<path d="M8.53179 32.8121C8.80132 32.9469 8.80132 32.9469 9.00054 33.1871C9.08602 33.5922 9.07562 33.9154 8.84819 34.2652C8.57222 34.4396 8.38997 34.493 8.06304 34.4996C7.84485 34.393 7.67225 34.2963 7.50054 34.1246C7.46012 33.8076 7.45624 33.5038 7.50054 33.1871C7.79934 32.818 8.06652 32.7346 8.53179 32.8121Z" fill="white"/>
<path d="M40.1272 13.5001C40.3615 13.6408 40.3615 13.6408 40.5022 13.8751C40.5572 14.3081 40.5559 14.5176 40.3615 14.9064C40.0764 15.1345 39.9194 15.1434 39.5647 15.1378C39.3147 15.0792 39.184 14.994 39.0022 14.8126C38.9077 14.3965 38.9309 13.9998 39.1428 13.629C39.4762 13.4457 39.7554 13.427 40.1272 13.5001Z" fill="white"/>
<path d="M40.1272 10.5001C40.3615 10.6408 40.3615 10.6408 40.5022 10.8751C40.5572 11.3081 40.5559 11.5176 40.3615 11.9064C40.0764 12.1345 39.9194 12.1434 39.5647 12.1378C39.3147 12.0792 39.184 11.994 39.0022 11.8126C38.9077 11.3965 38.9309 10.9998 39.1428 10.629C39.4762 10.4457 39.7554 10.427 40.1272 10.5001Z" fill="white"/>
<path d="M40.1272 7.50013C40.3615 7.64076 40.3615 7.64076 40.5022 7.87513C40.5572 8.30815 40.5559 8.51761 40.3615 8.90638C40.0764 9.13452 39.9194 9.14337 39.5647 9.13783C39.3147 9.07923 39.184 8.99402 39.0022 8.81263C38.9077 8.39654 38.9309 7.99978 39.1428 7.62904C39.4762 7.44568 39.7554 7.42699 40.1272 7.50013Z" fill="white"/>
</svg>
