<?xml version="1.0" encoding="UTF-8"?>
<svg version="1.1" xmlns="http://www.w3.org/2000/svg" width="512" height="512">
<path d="M0 0 C0.84114039 -0.00538554 1.68228077 -0.01077108 2.54891026 -0.01631981 C5.34225869 -0.03052495 8.13512823 -0.0235142 10.92849731 -0.01637268 C12.94151182 -0.02208017 14.95452309 -0.02904589 16.9675293 -0.03717041 C22.41802121 -0.05507569 27.86835189 -0.05393827 33.31886435 -0.04822803 C37.87638283 -0.04513216 42.43387053 -0.05123311 46.99138463 -0.05726677 C57.74714107 -0.07130196 68.50281808 -0.06975925 79.25857544 -0.05836487 C90.33820191 -0.04688643 101.41758625 -0.06095713 112.49718082 -0.08776134 C122.02528581 -0.10994529 131.55331494 -0.11654958 141.08144391 -0.11068493 C146.76531151 -0.10732041 152.44902394 -0.10969691 158.13286972 -0.12693596 C163.47968088 -0.14244575 168.82613443 -0.13840468 174.17293167 -0.11963081 C176.12918786 -0.11595602 178.08547078 -0.11902085 180.04170227 -0.1295166 C192.30425277 -0.19025851 203.00372822 0.16853948 213.3586731 7.63768005 C214.09472778 8.1584613 214.83078247 8.67924255 215.58914185 9.21580505 C216.11121216 9.6025238 216.63328247 9.98924255 217.1711731 10.38768005 C213.97290324 15.50491182 210.21283123 19.91460898 206.1711731 24.38768005 C203.38905304 23.29169337 200.69820299 22.1557968 198.01053333 20.83811188 C193.98952556 19.12186046 190.12936062 18.96258334 185.8039093 18.99327087 C184.98827351 18.98717977 184.17263773 18.98108867 183.3322857 18.97481298 C180.61331741 18.95823278 177.89481999 18.96295165 175.17581177 18.96775818 C173.22058121 18.9604149 171.265355 18.95182792 169.31013489 18.9420929 C164.00835569 18.91989406 158.706732 18.91694545 153.40491271 18.91884041 C148.97414979 18.9189602 144.54341972 18.91039245 140.11266595 18.90206289 C129.65615316 18.88283421 119.1997202 18.87994287 108.74319458 18.88670349 C97.96801193 18.89334218 87.19317177 18.87048546 76.41805857 18.83338976 C67.15667126 18.8026662 57.89539397 18.79133568 48.63395673 18.79522657 C43.10709999 18.79729152 37.58050974 18.791854 32.0537014 18.76733398 C26.85377832 18.74502603 21.65441085 18.74697859 16.45448494 18.76726151 C14.5510197 18.7706645 12.64751677 18.76561322 10.74410248 18.75127792 C-3.32079156 18.48529031 -3.32079156 18.48529031 -15.8288269 24.38768005 C-23.60886979 32.16772294 -23.44515024 40.31826677 -24.8288269 51.38768005 C20.3811731 51.38768005 65.5911731 51.38768005 112.1711731 51.38768005 C112.1711731 57.32768005 112.1711731 63.26768005 112.1711731 69.38768005 C66.9611731 69.38768005 21.7511731 69.38768005 -24.8288269 69.38768005 C-24.8288269 83.90768005 -24.8288269 98.42768005 -24.8288269 113.38768005 C-19.3838269 112.39768005 -19.3838269 112.39768005 -13.8288269 111.38768005 C-12.1788269 111.38768005 -10.5288269 111.38768005 -8.8288269 111.38768005 C-8.8288269 102.80768005 -8.8288269 94.22768005 -8.8288269 85.38768005 C-2.8888269 85.38768005 3.0511731 85.38768005 9.1711731 85.38768005 C9.1711731 93.96768005 9.1711731 102.54768005 9.1711731 111.38768005 C13.1311731 111.71768005 17.0911731 112.04768005 21.1711731 112.38768005 C48.71655224 117.83269686 75.03295594 133.77998153 91.27908325 156.93357849 C102.46384726 173.63098726 111.1711731 192.95709213 111.1711731 213.38768005 C119.7511731 213.38768005 128.3311731 213.38768005 137.1711731 213.38768005 C137.1711731 219.32768005 137.1711731 225.26768005 137.1711731 231.38768005 C128.5911731 231.38768005 120.0111731 231.38768005 111.1711731 231.38768005 C110.8411731 235.34768005 110.5111731 239.30768005 110.1711731 243.38768005 C104.41140439 272.27122609 88.04529961 297.83530389 63.86477661 314.79856873 C47.13123924 325.94598792 29.0930907 331.57659663 9.1711731 333.38768005 C9.1711731 341.96768005 9.1711731 350.54768005 9.1711731 359.38768005 C3.2311731 359.38768005 -2.7088269 359.38768005 -8.8288269 359.38768005 C-8.8288269 350.80768005 -8.8288269 342.22768005 -8.8288269 333.38768005 C-12.0153894 333.04736755 -12.0153894 333.04736755 -15.2663269 332.70018005 C-43.75948479 329.08806028 -69.69168585 314.01100523 -87.5788269 291.57518005 C-101.39464132 273.62221915 -108.57918036 253.88414549 -110.8288269 231.38768005 C-119.4088269 231.38768005 -127.9888269 231.38768005 -136.8288269 231.38768005 C-136.8288269 225.44768005 -136.8288269 219.50768005 -136.8288269 213.38768005 C-128.2488269 213.38768005 -119.6688269 213.38768005 -110.8288269 213.38768005 C-110.6019519 211.26330505 -110.3750769 209.13893005 -110.1413269 206.95018005 C-106.56217879 178.7171095 -91.80668961 153.79404045 -70.3366394 135.32518005 C-63.54344835 130.076858 -56.28355939 125.5637017 -48.59616089 121.75169373 C-47.25436012 121.08504951 -47.25436012 121.08504951 -45.88545227 120.40493774 C-45.2067659 120.06924271 -44.52807953 119.73354767 -43.8288269 119.38768005 C-43.82002754 117.90548981 -43.82002754 117.90548981 -43.81105042 116.39335632 C-43.75359882 107.03747106 -43.68072196 97.68181324 -43.59311199 88.32616043 C-43.54856684 83.51742001 -43.50927664 78.70876123 -43.48239136 73.89988708 C-43.4561991 69.25073635 -43.41568665 64.60190249 -43.36564064 59.95294952 C-43.34907882 58.1877769 -43.33749854 56.42254961 -43.331213 54.65731049 C-43.26911463 38.8067453 -41.79309876 24.36264637 -30.68429565 12.08299255 C-21.90302358 4.05968291 -11.80256863 -0.09238402 0 0 Z M-62.8288269 153.38768005 C-63.94837769 154.36607849 -63.94837769 154.36607849 -65.09054565 155.36424255 C-81.41694433 170.57942037 -90.10460113 191.59387386 -92.8288269 213.38768005 C-87.2188269 213.38768005 -81.6088269 213.38768005 -75.8288269 213.38768005 C-75.8288269 219.32768005 -75.8288269 225.26768005 -75.8288269 231.38768005 C-81.4388269 231.38768005 -87.0488269 231.38768005 -92.8288269 231.38768005 C-88.76903816 256.64858777 -79.29611831 275.50383329 -60.8288269 293.38768005 C-60.4988269 293.38768005 -60.1688269 293.38768005 -59.8288269 293.38768005 C-59.73085815 292.3718988 -59.6328894 291.35611755 -59.5319519 290.30955505 C-57.56077394 271.50190126 -51.6098529 255.96189657 -36.8288269 243.38768005 C-34.21791067 241.51912449 -31.64110661 239.95005767 -28.8288269 238.38768005 C-30.27563266 235.22905957 -32.08456078 232.69412069 -34.2038269 229.95018005 C-40.64383862 220.79433876 -43.06323712 210.48249961 -41.8288269 199.38768005 C-39.69700506 187.94639157 -35.0517454 177.68528418 -25.4694519 170.6572113 C-14.06523676 163.48530581 -2.19867297 160.931491 11.12039185 163.5400238 C20.81150998 166.23269043 29.88494012 171.24255907 35.16824341 180.04978943 C41.93756779 192.25419455 44.69912123 205.01406975 41.1086731 218.82518005 C38.94319635 224.87608159 35.07032282 230.58736498 30.4524231 235.0478363 C28.94079744 236.31961514 28.94079744 236.31961514 29.1711731 238.38768005 C30.95528369 239.77105739 30.95528369 239.77105739 33.2336731 241.13768005 C46.80638891 249.9737517 55.23725851 262.17778599 58.8352356 278.1650238 C59.59716999 283.20619441 59.8765375 288.30133928 60.1711731 293.38768005 C78.6210448 278.47076251 89.41877443 258.78678392 93.1711731 235.38768005 C93.1711731 234.06768005 93.1711731 232.74768005 93.1711731 231.38768005 C87.8911731 231.38768005 82.6111731 231.38768005 77.1711731 231.38768005 C77.1711731 225.44768005 77.1711731 219.50768005 77.1711731 213.38768005 C82.4511731 213.38768005 87.7311731 213.38768005 93.1711731 213.38768005 C92.01138787 188.64559527 78.44844736 167.25126801 60.72146606 150.78269958 C46.77939858 138.23703445 27.78598477 130.51585046 9.1711731 129.38768005 C9.1711731 134.99768005 9.1711731 140.60768005 9.1711731 146.38768005 C3.2311731 146.38768005 -2.7088269 146.38768005 -8.8288269 146.38768005 C-8.8288269 140.77768005 -8.8288269 135.16768005 -8.8288269 129.38768005 C-28.36499308 129.38768005 -48.58328787 140.71958572 -62.8288269 153.38768005 Z M-13.8288269 184.38768005 C-14.7157019 184.94455505 -15.6025769 185.50143005 -16.5163269 186.07518005 C-21.77512175 191.3339749 -24.50911627 197.67903671 -25.1413269 205.01268005 C-25.01283106 211.91290679 -22.31832714 218.16818452 -17.7038269 223.26268005 C-12.74815716 227.75143445 -6.52918938 230.46806139 0.1711731 230.88768005 C7.03955809 230.49758922 14.39657605 227.29869416 19.1711731 222.38768005 C24.54485834 214.84002528 26.15809403 208.70103735 25.1711731 199.38768005 C22.51805318 190.85724517 17.49807984 185.93291931 9.9836731 181.51268005 C1.43270878 178.98944468 -6.3732475 179.38826116 -13.8288269 184.38768005 Z M-30.8288269 262.38768005 C-31.6538269 263.23330505 -32.4788269 264.07893005 -33.3288269 264.95018005 C-40.73692635 273.97587084 -42.00085443 285.07402192 -41.8913269 296.26268005 C-41.88681519 297.14182068 -41.88230347 298.0209613 -41.87765503 298.92674255 C-41.86595027 301.08041808 -41.84801759 303.23405822 -41.8288269 305.38768005 C-31.42528247 311.3605385 -20.67190461 313.90729534 -8.8288269 315.38768005 C-8.8288269 309.77768005 -8.8288269 304.16768005 -8.8288269 298.38768005 C-2.8888269 298.38768005 3.0511731 298.38768005 9.1711731 298.38768005 C9.1711731 303.99768005 9.1711731 309.60768005 9.1711731 315.38768005 C19.03345842 314.16874591 27.94585225 312.05387478 37.1711731 308.38768005 C38.12894653 308.06670349 39.08671997 307.74572693 40.07351685 307.4150238 C42.65780374 304.91736105 42.5685794 303.96525754 42.80007935 300.45018005 C42.8101229 298.42925045 42.78624225 296.40795078 42.7336731 294.38768005 C42.71852661 293.34490906 42.70338013 292.30213806 42.68777466 291.22776794 C42.39618144 281.21875251 40.36770074 273.40671583 34.1711731 265.38768005 C33.77543091 264.83725037 33.37968872 264.28682068 32.97195435 263.7197113 C26.02678024 254.70491512 16.25068929 250.06005986 5.1711731 248.38768005 C-8.36954917 246.71081042 -21.80147209 252.38439499 -30.8288269 262.38768005 Z " fill="#000000" transform="translate(162.82882690429688,-0.3876800537109375)"/>
<path d="M0 0 C5.94 0 11.88 0 18 0 C18 23.43 18 46.86 18 71 C27.30849799 63.3967687 27.30849799 63.3967687 36.1875 55.375 C37.3885945 54.24792116 38.59041069 53.12161089 39.79296875 51.99609375 C40.35161621 51.47257324 40.91026367 50.94905273 41.48583984 50.40966797 C45.60232783 46.5772588 49.88944343 42.94484569 54.171875 39.30078125 C55.36486315 38.28418244 56.55756205 37.26724412 57.75 36.25 C58.35368408 35.73518066 58.95736816 35.22036133 59.5793457 34.68994141 C63.52486141 31.30897275 67.38103424 27.84881737 71.1875 24.3125 C75.83249475 20.01433153 80.60675851 15.94957594 85.55078125 12 C87.6304014 10.30180938 89.55588953 8.53463584 91.5 6.6875 C96.57274379 2.3203177 103.45179007 -0.13114505 110.125 -0.4375 C118.91873525 0.55534108 126.6043285 3.63146952 132.32592773 10.61938477 C136.2884449 16.18099775 136.73960839 20.85631478 136.5625 27.5625 C136.57345703 28.46935547 136.58441406 29.37621094 136.59570312 30.31054688 C136.49351324 39.70520381 132.45283533 44.86783957 126.4375 51.6875 C125.65403198 52.58879639 125.65403198 52.58879639 124.85473633 53.50830078 C120.4682689 58.52990384 115.97035545 63.44722382 111.4453125 68.34375 C107.28495473 72.86298847 103.27314465 77.50178609 99.29296875 82.1796875 C93.4655094 89.02119707 87.54343269 95.74252108 81.4453125 102.34375 C77.28495473 106.86298847 73.27314465 111.50178609 69.29296875 116.1796875 C63.4655094 123.02119707 57.54343269 129.74252108 51.4453125 136.34375 C47.28495473 140.86298847 43.27314465 145.50178609 39.29296875 150.1796875 C33.47778388 157.00678669 27.5701796 163.71368928 21.484375 170.30078125 C12.83819581 179.25426895 12.83819581 179.25426895 8.875 190.6875 C6.02644858 206.41804783 -2.39558804 219.80851912 -15.171875 229.375 C-25.62276376 236.17557833 -36.62191586 240.06481244 -49.09765625 240.19287109 C-50.14008987 240.20513733 -50.14008987 240.20513733 -51.20358276 240.21765137 C-53.48988 240.24234712 -55.7761161 240.25897502 -58.0625 240.2734375 C-58.84601837 240.27876118 -59.62953674 240.28408485 -60.4367981 240.28956985 C-64.57927469 240.31622485 -68.72172185 240.33562924 -72.86425781 240.35009766 C-76.28835599 240.36346476 -79.71186215 240.39137813 -83.13574219 240.43212891 C-87.27831478 240.48142237 -91.42034856 240.50621303 -95.5632019 240.51332474 C-97.13888442 240.52003599 -98.71455495 240.53525501 -100.29006958 240.55921555 C-102.49480007 240.59084943 -104.69744577 240.59090891 -106.90234375 240.58349609 C-108.15523193 240.59158295 -109.40812012 240.5996698 -110.69897461 240.60800171 C-114.88906374 239.83624716 -116.35790114 238.26491993 -119 235 C-119.89807628 232.21068073 -119.71113168 229.83296361 -119 227 C-116.96870299 224.4147129 -114.76968494 222.61473743 -112.21484375 220.57421875 C-106.38111362 215.78089909 -104.0461513 211.5618798 -103 204 C-102.91483638 202.0976825 -102.86900351 200.19326102 -102.859375 198.2890625 C-102.55262168 177.24167378 -99.79017291 161.23386744 -84.9375 145.3125 C-75.81810804 136.56839166 -64.51441275 130.05507948 -51.7421875 128.7734375 C-44.11066146 127.8160776 -39.73041736 122.5533594 -34.4921875 117.41650391 C-32.31158866 115.34650481 -29.9801967 113.49183973 -27.625 111.625 C-22.57409125 107.5608824 -17.83430564 103.22577651 -13.12158203 98.77978516 C-12.57228027 98.26206543 -12.02297852 97.7443457 -11.45703125 97.2109375 C-10.93823898 96.69968826 -10.41944672 96.18843903 -9.88493347 95.66169739 C-8 94 -8 94 -5.93986511 92.84828186 C-2.75568204 90.85839514 -0.45927165 88.92208651 0.44492149 85.13796997 C1.15962 79.21146144 0.9156075 73.23996197 0.78125 67.28515625 C0.76631747 65.34462317 0.75493523 63.40405981 0.74694824 61.46348572 C0.71649357 56.37128513 0.63798884 51.28092831 0.54931641 46.18945312 C0.46728041 40.98788391 0.43089892 35.7860149 0.390625 30.58398438 C0.30498642 20.38838506 0.16434294 10.19463474 0 0 Z M97.8125 25.625 C94.19900331 28.99986955 90.55218984 32.22872832 86.6875 35.3125 C80.94021553 39.94820366 75.59031566 44.95767901 70.20703125 50.00390625 C65.5360668 54.38116714 60.70252459 58.5514289 55.828125 62.69921875 C48.98481521 68.53018213 42.26016783 74.45408334 35.65625 80.5546875 C31.13701153 84.71504527 26.49821391 88.72685535 21.8203125 92.70703125 C14.97880293 98.5344906 8.25747892 104.45656731 1.65625 110.5546875 C-1.8387159 113.77211199 -5.39915317 116.90203006 -9 120 C-9.52916016 120.45552246 -10.05832031 120.91104492 -10.60351562 121.38037109 C-16.70232145 126.62767698 -22.80838523 131.86227711 -29 137 C-23.61359076 143.55377097 -17.64114873 149.47246635 -11.625 155.4375 C-10.59221405 156.46525983 -9.55966009 157.49325285 -8.52734375 158.52148438 C-6.02089713 161.01701598 -3.5113292 163.50938082 -1 166 C2.62813516 164.312782 4.66913551 162.4080612 7.3125 159.375 C8.1065625 158.47007812 8.900625 157.56515625 9.71875 156.6328125 C10.84796875 155.32957031 10.84796875 155.32957031 12 154 C12.5671875 153.35804688 13.134375 152.71609375 13.71875 152.0546875 C16.41574665 149.00073541 19.07477283 145.91569356 21.71484375 142.8125 C27.53879498 135.97278765 33.45905144 129.25478985 39.5546875 122.65625 C43.71504527 118.13701153 47.72685535 113.49821391 51.70703125 108.8203125 C57.5344906 101.97880293 63.45656731 95.25747892 69.5546875 88.65625 C73.71504527 84.13701153 77.72685535 79.49821391 81.70703125 74.8203125 C87.53089274 67.98302686 93.44958091 61.26599646 99.54296875 54.66796875 C112.22451411 42.53887644 112.22451411 42.53887644 119.375 27.6875 C119.31314691 23.89261737 119.31314691 23.89261737 116.8125 21.125 C109.27298082 15.4284744 103.92755333 19.79673434 97.8125 25.625 Z M-74.74609375 161.1328125 C-80.19750435 168.93607854 -84.04129851 177.07553769 -84.2109375 186.65625 C-84.23929687 187.76226562 -84.26765625 188.86828125 -84.296875 190.0078125 C-84.34825592 192.30453945 -84.39272421 194.60143328 -84.4296875 196.8984375 C-84.67387593 205.70957017 -86.21570823 213.64712469 -89 222 C-82.97180865 222.09983628 -76.94411212 222.17192045 -70.9152832 222.21972656 C-68.86995038 222.2396826 -66.82467342 222.26685738 -64.77954102 222.30175781 C-48.06749448 222.57954299 -33.72486971 221.96575915 -20.84765625 210 C-14.2938393 203.16547953 -9.68662447 194.97337063 -8.72947693 185.4425354 C-9.27772623 180.49242775 -13.09354654 177.55152083 -16.53125 174.24609375 C-17.70705627 173.06660912 -17.70705627 173.06660912 -18.90661621 171.86329651 C-20.56607953 170.21016207 -22.23786476 168.5693171 -23.92089844 166.94018555 C-26.49344994 164.44385599 -29.01758308 161.90521795 -31.5390625 159.35742188 C-33.15877699 157.75509751 -34.78108999 156.15539472 -36.40625 154.55859375 C-37.53794617 153.4197599 -37.53794617 153.4197599 -38.69250488 152.25791931 C-43.07358648 148.03169036 -43.07358648 148.03169036 -48.85009766 146.47460938 C-58.83150906 148.13946733 -68.31125108 153.27280333 -74.74609375 161.1328125 Z " fill="#000000" transform="translate(376,170)"/>
<path d="M0 0 C0.79703701 -0.00709439 1.59407401 -0.01418877 2.41526365 -0.02149814 C5.08336471 -0.0390865 7.75001059 -0.02096987 10.41809082 -0.00291443 C12.33188033 -0.00805294 14.2456651 -0.0153337 16.15943909 -0.02459717 C21.35577189 -0.043128 26.55159228 -0.03016185 31.74790382 -0.01050687 C37.1841556 0.00586697 42.62037459 -0.0029315 48.05664062 -0.00802612 C57.1861592 -0.01254849 66.31547299 0.0033317 75.44494629 0.03126526 C86.00203747 0.06331772 96.55875927 0.06330184 107.11587667 0.04605049 C117.2687096 0.03019043 127.42140702 0.03691564 137.57423401 0.0539875 C141.89632267 0.0608627 146.21830286 0.05982072 150.54039001 0.05244255 C155.62944615 0.04478524 160.71808158 0.05688791 165.80706596 0.08429146 C167.67552377 0.09118216 169.54402082 0.09126593 171.41247749 0.08407593 C173.96173487 0.07539603 176.50968952 0.09131164 179.05883789 0.11352539 C179.799598 0.10528462 180.54035811 0.09704386 181.3035655 0.08855337 C184.82055871 0.14518174 186.93497541 0.57261652 189.98789787 2.36902046 C192.31084091 4.93961358 192.6563971 5.88473567 192.66433716 9.28955078 C192.67843628 10.22179474 192.6925354 11.1540387 192.70706177 12.11453247 C192.69694061 13.13022812 192.68681946 14.14592377 192.6763916 15.19239807 C192.6851532 16.26759705 192.69391479 17.34279602 192.70294189 18.45057678 C192.72496909 22.00888793 192.71036908 25.56595879 192.69348145 29.12428284 C192.69684884 31.59523762 192.70170081 34.06619079 192.70797729 36.53713989 C192.71535339 41.7181219 192.70461955 46.89867313 192.68127441 52.0796051 C192.65280205 58.72241012 192.6691776 65.36420448 192.69913673 72.00697231 C192.71720196 77.11051044 192.71145476 82.21380887 192.69849777 87.3173542 C192.69516089 89.76658815 192.69926067 92.21584383 192.71089554 94.66505241 C192.72358888 98.08881654 192.70424483 101.51094345 192.6763916 104.93458557 C192.68651276 105.94825699 192.69663391 106.96192841 192.70706177 108.00631714 C192.69296265 108.94138092 192.67886353 109.8764447 192.66433716 110.83984375 C192.66245203 111.64859168 192.6605669 112.45733961 192.65862465 113.29059505 C191.68241705 116.91735342 189.99701267 118.38087579 187.02941895 120.62818909 C184.17184645 121.12124327 181.91053617 121.30604526 179.05883789 121.2631073 C178.26180089 121.27090725 177.46476388 121.27870721 176.64357424 121.28674352 C173.97549359 121.30667152 171.30883805 121.29089652 168.64074707 121.27516174 C166.72695585 121.28193752 164.81317114 121.29084043 162.8993988 121.30171204 C157.70308145 121.32451656 152.50726015 121.31566417 147.31093407 121.29981661 C141.8746748 121.28716367 136.43845819 121.29889604 131.00219727 121.30674744 C121.87268442 121.31584574 112.74337376 121.30385125 103.6138916 121.28004456 C93.05674998 121.25283303 82.50009114 121.26164705 71.94296122 121.28917658 C62.88124408 121.3118614 53.81967235 121.31507077 44.757936 121.30198324 C39.34469278 121.29418531 33.93167654 121.29315662 28.51844788 121.30966568 C23.42932583 121.32410196 18.34082664 121.31410389 13.25177193 121.2851944 C11.38331194 121.27857911 9.5147996 121.2804888 7.6463604 121.29150772 C5.0968644 121.30515767 2.54936827 121.28805589 0 121.2631073 C-0.74076011 121.27426091 -1.48152022 121.28541452 -2.24472761 121.29690611 C-6.07017853 121.22421032 -7.84851785 120.72074093 -10.92905998 118.38498497 C-13.05856439 115.50937959 -13.59725326 114.38425858 -13.60549927 110.88453674 C-13.61959839 109.95933228 -13.63369751 109.03412781 -13.64822388 108.08088684 C-13.63304214 106.57676239 -13.63304214 106.57676239 -13.61755371 105.04225159 C-13.62631531 103.97666016 -13.6350769 102.91106873 -13.644104 101.81318665 C-13.66610066 98.29277259 -13.65154305 94.77361579 -13.63464355 91.25318909 C-13.63801158 88.80608377 -13.64286408 86.35898008 -13.6491394 83.91188049 C-13.65651115 78.7839515 -13.64579472 73.65645807 -13.62243652 68.52857971 C-13.5939495 61.95418123 -13.61035172 55.38080329 -13.64029884 48.80644226 C-13.65836309 43.75351771 -13.65261759 38.70083527 -13.63965988 33.64790344 C-13.6363235 31.22378926 -13.64042102 28.79965312 -13.65205765 26.37556458 C-13.66475107 22.98782596 -13.64540765 19.6017419 -13.61755371 16.21412659 C-13.62767487 15.21137695 -13.63779602 14.20862732 -13.64822388 13.17549133 C-13.63412476 12.25028687 -13.62002563 11.3250824 -13.60549927 10.37184143 C-13.60361414 9.57176666 -13.60172901 8.77169189 -13.59978676 7.94737244 C-11.70494033 0.96317591 -6.41393326 -0.10248064 0 0 Z M5.02941895 18.62818909 C5.02941895 46.34818909 5.02941895 74.06818909 5.02941895 102.62818909 C60.79941895 102.62818909 116.56941895 102.62818909 174.02941895 102.62818909 C174.02941895 74.90818909 174.02941895 47.18818909 174.02941895 18.62818909 C118.25941895 18.62818909 62.48941895 18.62818909 5.02941895 18.62818909 Z " fill="#000000" transform="translate(303.9705810546875,33.37181091308594)"/>
<path d="M0 0 C5.94 0 11.88 0 18 0 C18 14.19 18 28.38 18 43 C22.57359375 42.94199219 27.1471875 42.88398438 31.859375 42.82421875 C34.75784799 42.79866911 37.65618204 42.77459981 40.5546875 42.75585938 C45.15491589 42.7259754 49.75464645 42.69063445 54.35449219 42.62280273 C58.06333109 42.56845289 61.77163618 42.53857376 65.48084259 42.52561378 C66.89549413 42.51637896 68.31011661 42.49834473 69.72454071 42.47134972 C71.70636979 42.43503172 73.6887367 42.4329574 75.67089844 42.43237305 C76.79896912 42.42126999 77.92703979 42.41016693 79.08929443 42.39872742 C82 43 82 43 84.36322021 45.06793213 C86.34831142 48.62395244 86.56438184 51.51305021 86.51757812 55.48071289 C86.5245874 56.21628922 86.53159668 56.95186554 86.53881836 57.70973206 C86.55636447 60.13109547 86.54478983 62.55128183 86.53125 64.97265625 C86.53394562 66.65986861 86.53782863 68.34707945 86.54284668 70.0342865 C86.54873686 73.56573313 86.54019345 77.0967744 86.52148438 80.62817383 C86.49867726 85.15345237 86.51183156 89.67778287 86.53577423 94.20302677 C86.55023046 97.68520753 86.54562741 101.16716358 86.53526306 104.64935112 C86.53259618 106.31790721 86.53586421 107.98648374 86.54518127 109.65501595 C86.55534638 111.98678754 86.53984945 114.31702433 86.51757812 116.64868164 C86.52567505 117.33710144 86.53377197 118.02552124 86.54211426 118.73480225 C86.48358946 122.04388292 86.19760477 123.74325795 84.15515137 126.3969574 C80.12665378 129.39343057 76.2235477 129.14388486 71.42178345 129.13371277 C70.6427895 129.13597833 69.86379555 129.13824388 69.06119573 129.14057809 C66.44263768 129.14692424 63.82413131 129.14608833 61.20556641 129.14526367 C59.33148634 129.14825478 57.45740688 129.1516572 55.58332825 129.15544128 C50.48622201 129.16429046 45.38913255 129.16661979 40.29201937 129.16725707 C36.03994168 129.16820556 31.78786793 129.17188318 27.53579175 129.17542917 C17.50530447 129.18357724 7.47482616 129.18601308 -2.55566406 129.18530273 C-12.90926355 129.18470187 -23.26281095 129.19525469 -33.61639726 129.2110464 C-42.49969204 129.2241137 -51.38296978 129.22948697 -60.26627409 129.22884732 C-65.57440942 129.2285921 -70.88249847 129.23145702 -76.19062424 129.24202538 C-81.18266733 129.25169271 -86.17461978 129.25179491 -91.16666603 129.24450874 C-92.99965993 129.2434612 -94.83265943 129.24583585 -96.66564369 129.2518692 C-99.16647504 129.2595681 -101.66699175 129.2549583 -104.16781616 129.24723816 C-104.89437672 129.25238172 -105.62093728 129.25752529 -106.36951482 129.26282471 C-110.33764165 129.23572686 -113.4940886 128.92419443 -117 127 C-119.39629532 123.40555701 -119.29588101 120.80657808 -119.29052734 116.65454102 C-119.29724457 115.90950317 -119.30396179 115.16446533 -119.31088257 114.39685059 C-119.32989017 111.93246809 -119.333788 109.46835749 -119.3359375 107.00390625 C-119.34236308 105.29141629 -119.34909126 103.57892745 -119.35610962 101.86643982 C-119.36808897 98.27608698 -119.37178973 94.68583041 -119.37060547 91.09545898 C-119.37040214 86.49396802 -119.39771517 81.89309373 -119.43214989 77.291749 C-119.4543821 73.75470644 -119.45844416 70.21781322 -119.45738602 66.68070793 C-119.45974711 64.98422048 -119.46859922 63.28772923 -119.48405075 61.5913105 C-119.5036389 59.21871805 -119.49790225 56.84746739 -119.48583984 54.47485352 C-119.49707886 53.77394089 -119.50831787 53.07302826 -119.51989746 52.35087585 C-119.48084224 49.32918304 -119.12033519 47.21865184 -117.6578064 44.561203 C-113.31583188 42.01071488 -108.92951104 42.47893389 -103.98925781 42.54589844 C-102.86701309 42.54531433 -101.74476837 42.54473022 -100.58851624 42.54412842 C-96.87640532 42.54691675 -93.16509577 42.57804576 -89.453125 42.609375 C-86.88051797 42.61683468 -84.30790527 42.6225289 -81.73529053 42.62652588 C-75.65435021 42.64024172 -69.57374096 42.67177184 -63.49292541 42.71192384 C-56.56918407 42.75664838 -49.64542892 42.77863024 -42.72157907 42.79870558 C-28.48087269 42.84050509 -14.24050551 42.91385455 0 43 C0 28.81 0 14.62 0 0 Z M-101 61 C-101 77.5 -101 94 -101 111 C-45.23 111 10.54 111 68 111 C68 94.5 68 78 68 61 C12.23 61 -43.54 61 -101 61 Z " fill="#000000" transform="translate(120,341)"/>
<path d="M0 0 C5.94 0 11.88 0 18 0 C18.06802442 10.61459999 18.12295885 21.22905303 18.15543652 31.84382248 C18.17103134 36.77373158 18.19215547 41.70348262 18.22631836 46.63330078 C18.25913384 51.39900496 18.27689941 56.16455799 18.28463173 60.93036652 C18.29013568 62.74026109 18.30088252 64.55014825 18.31719017 66.35997772 C18.4556446 82.37601757 17.31289746 96.05175227 5.82421875 108.32421875 C-3.06217757 116.62739735 -12.50796158 120.31578811 -24.58831787 120.26742554 C-25.42774941 120.27195665 -26.26718094 120.27648776 -27.1320498 120.28115618 C-29.9315144 120.29376831 -32.73078366 120.29218187 -35.53027344 120.29052734 C-37.54299163 120.29651462 -39.55570752 120.30332062 -41.56842041 120.31088257 C-47.02726038 120.32853034 -52.48603763 120.33323746 -57.94490337 120.33451414 C-61.35837898 120.33593708 -64.77183871 120.34020943 -68.18531036 120.34550858 C-80.10239166 120.3640054 -92.01942826 120.37217969 -103.93652344 120.37060547 C-115.0308671 120.36940444 -126.1250161 120.39050017 -137.21931052 120.4220928 C-146.75585967 120.44827813 -156.29234533 120.4589718 -165.82893014 120.45769465 C-171.51954511 120.45718565 -177.20998706 120.46283477 -182.9005661 120.48405075 C-188.25554307 120.50347084 -193.61018267 120.50353169 -198.96517181 120.48901749 C-200.92465713 120.48693292 -202.88416378 120.49160915 -204.84361267 120.5037384 C-220.47946715 120.59421685 -231.81746225 118.67661391 -244 108 C-246.32274106 105.52740468 -248.54906302 103.08666311 -250 100 C-248.65686779 95.97060336 -246.80961157 95.36983313 -243.1875 93.25 C-242.12917969 92.61578125 -241.07085937 91.9815625 -239.98046875 91.328125 C-237 90 -237 90 -234.76171875 90.15234375 C-231.96988208 91.49564432 -230.1514159 93.79735991 -228 96 C-222.16719727 100.19961796 -218.1703757 101.14929439 -211.11375427 101.15390015 C-209.89542714 101.16047353 -209.89542714 101.16047353 -208.65248734 101.1671797 C-205.92123598 101.18057177 -203.19001689 101.18674754 -200.45874023 101.19287109 C-198.50410313 101.20077188 -196.54946748 101.20904082 -194.59483337 101.21765137 C-188.16610102 101.24387907 -181.73736213 101.25918198 -175.30859375 101.2734375 C-173.09517983 101.27879729 -170.88176596 101.2841748 -168.66835213 101.28956985 C-159.4593878 101.31120166 -150.25042523 101.32993731 -141.04144192 101.34119225 C-127.84758589 101.35742349 -114.65402474 101.39057805 -101.46027988 101.44759309 C-92.18200822 101.486319 -82.90381533 101.50582822 -73.62546498 101.51111281 C-68.08510576 101.51476324 -62.54506099 101.52675172 -57.00478935 101.55921555 C-51.78854287 101.58934172 -46.57280035 101.59559161 -41.35648537 101.58383179 C-39.44655858 101.58361142 -37.5366081 101.59188583 -35.62676239 101.60948563 C-21.49239981 101.97230708 -21.49239981 101.97230708 -9 96 C2.89782627 83.46275524 -0.60932465 70.27973963 0 52 C-50.82 52 -101.64 52 -154 52 C-154 46.06 -154 40.12 -154 34 C-103.18 34 -52.36 34 0 34 C0 22.78 0 11.56 0 0 Z " fill="#000000" transform="translate(376,392)"/>
<path d="M0 0 C0.90138702 -0.0071553 1.80277405 -0.01431061 2.73147583 -0.02168274 C5.70488476 -0.03856355 8.67678483 -0.01917224 11.65014648 0.00219727 C13.71850204 0.00136858 15.78685754 -0.00109077 17.85520935 -0.00511169 C22.18704076 -0.00796918 26.51835497 0.00672835 30.85009766 0.03417969 C36.4044224 0.0682834 41.9578236 0.06223656 47.51219273 0.04351711 C51.78187264 0.03295303 56.05133734 0.04187926 60.32099724 0.05690193 C62.36913349 0.0620871 64.41729218 0.0615979 66.46542549 0.05535698 C69.32640116 0.04991116 72.18605044 0.07025887 75.046875 0.09765625 C76.31794853 0.08786743 76.31794853 0.08786743 77.61470032 0.07788086 C83.35793964 0.17147796 83.35793964 0.17147796 86.45323181 2.53944397 C89.20493092 6.36248316 89.09992281 8.85946778 89.13574219 13.57177734 C89.14231339 14.28580215 89.14888458 14.99982697 89.15565491 15.73548889 C89.17539665 18.10303855 89.18705256 20.47052474 89.19702148 22.83813477 C89.20109701 23.64646948 89.20517254 24.45480419 89.20937157 25.2876339 C89.23023633 29.56626506 89.24453611 33.84486411 89.25390625 38.12353516 C89.26496993 42.54220577 89.29936777 46.96037268 89.33907795 51.37886524 C89.36522843 54.77696161 89.37359668 58.1749377 89.37718773 61.57312584 C89.38205801 63.20181364 89.39368463 64.83049592 89.41222572 66.45908546 C89.43658436 68.74054439 89.43565885 71.02069683 89.42871094 73.30224609 C89.43457718 74.59971268 89.44044342 75.89717926 89.44648743 77.23396301 C88.87787462 81.19432941 87.7528042 82.82528055 84.95874023 85.63110352 C81.68350601 87.26872063 78.05766283 86.78742165 74.45751953 86.79223633 C73.13776627 86.79968369 73.13776627 86.79968369 71.79135132 86.80728149 C68.87187933 86.82192244 65.9524617 86.82870863 63.03295898 86.83422852 C61.00755308 86.83997875 58.9821472 86.84573649 56.95674133 86.85150146 C52.7055333 86.86201721 48.45434421 86.867856 44.203125 86.87133789 C38.75549141 86.87682127 33.30810795 86.90084361 27.86055279 86.92930984 C23.6749651 86.94793398 19.48943765 86.95314173 15.30381203 86.95467377 C13.29555711 86.95770175 11.28730329 86.96573517 9.27908897 86.97885895 C6.46858078 86.99591327 3.65868348 86.99404057 0.84814453 86.98754883 C0.01834579 86.99676361 -0.81145294 87.00597839 -1.66639709 87.01547241 C-6.27677325 86.98211285 -9.29485971 86.62298245 -13.04125977 83.63110352 C-14.50875801 80.69610702 -14.21441732 77.72587485 -14.23413086 74.50683594 C-14.24230835 73.77330399 -14.25048584 73.03977203 -14.25891113 72.28401184 C-14.28376498 69.85154031 -14.30028107 67.41912714 -14.31469727 64.98657227 C-14.32002094 64.15617243 -14.32534462 63.32577259 -14.33082962 62.47020912 C-14.35756124 58.07487536 -14.37693602 53.67957001 -14.39135742 49.28417969 C-14.40800511 44.74433452 -14.45278318 40.20521532 -14.50372887 35.66564465 C-14.53738577 32.17490302 -14.54893308 28.68433405 -14.5545845 25.19344521 C-14.5613014 23.52007817 -14.576535 21.84672267 -14.60047531 20.17351341 C-14.63209844 17.82959221 -14.63216903 15.48763322 -14.62475586 13.14355469 C-14.64116119 12.45401703 -14.65756653 11.76447937 -14.67446899 11.05404663 C-14.62864974 7.50979398 -14.05970073 5.6585124 -12.06987 2.70101929 C-7.94456538 -0.11843665 -4.89077066 -0.06764455 0 0 Z M3.95874023 18.63110352 C3.95874023 35.13110352 3.95874023 51.63110352 3.95874023 68.63110352 C26.06874023 68.63110352 48.17874023 68.63110352 70.95874023 68.63110352 C70.95874023 52.13110352 70.95874023 35.63110352 70.95874023 18.63110352 C48.84874023 18.63110352 26.73874023 18.63110352 3.95874023 18.63110352 Z " fill="#000000" transform="translate(15.041259765625,33.368896484375)"/>
<path d="M0 0 C45.21 0 90.42 0 137 0 C137 5.94 137 11.88 137 18 C91.79 18 46.58 18 0 18 C0 12.06 0 6.12 0 0 Z " fill="#000000" transform="translate(325,102)"/>
<path d="M0 0 C28.38 0 56.76 0 86 0 C86 5.94 86 11.88 86 18 C57.62 18 29.24 18 0 18 C0 12.06 0 6.12 0 0 Z " fill="#000000" transform="translate(376,68)"/>
<path d="M0 0 C25.74 0 51.48 0 78 0 C78 5.94 78 11.88 78 18 C52.26 18 26.52 18 0 18 C0 12.06 0 6.12 0 0 Z " fill="#000000" transform="translate(94,418)"/>
<path d="M0 0 C14.19 0 28.38 0 43 0 C43 5.94 43 11.88 43 18 C28.81 18 14.62 18 0 18 C0 12.06 0 6.12 0 0 Z " fill="#000000" transform="translate(35,418)"/>
<path d="M0 0 C11.55 0 23.1 0 35 0 C35 5.94 35 11.88 35 18 C23.45 18 11.9 18 0 18 C0 12.06 0 6.12 0 0 Z " fill="#000000" transform="translate(325,68)"/>
<path d="M0 0 C11.55 0 23.1 0 35 0 C35 5.94 35 11.88 35 18 C23.45 18 11.9 18 0 18 C0 12.06 0 6.12 0 0 Z " fill="#000000" transform="translate(35,68)"/>
<path d="M0 0 C5.94 0 11.88 0 18 0 C18 5.94 18 11.88 18 18 C12.06 18 6.12 18 0 18 C0 12.06 0 6.12 0 0 Z " fill="#000000" transform="translate(248,460)"/>
</svg>
