<svg width="300" height="300" viewBox="0 0 300 300" fill="none" xmlns="http://www.w3.org/2000/svg">
<path d="M69.047 214.762C72.249 214.762 75.3794 215.711 78.042 217.49C80.7044 219.27 82.7797 221.798 84.005 224.757C85.2304 227.715 85.551 230.97 84.9264 234.111C84.3017 237.252 82.7597 240.136 80.4954 242.401C78.231 244.665 75.3464 246.207 72.2057 246.832C69.065 247.456 65.8097 247.136 62.851 245.91C59.8927 244.685 57.364 242.61 55.585 239.947C53.806 237.285 52.8564 234.155 52.8564 230.952C52.8564 226.658 54.5624 222.54 57.5987 219.504C60.635 216.468 64.753 214.762 69.047 214.762ZM69.047 198.571C62.6427 198.571 56.382 200.471 51.057 204.029C45.732 207.587 41.5817 212.644 39.131 218.561C36.68 224.478 36.0387 230.988 37.2884 237.27C38.5377 243.551 41.6217 249.321 46.1504 253.849C50.6787 258.378 56.4484 261.462 62.7297 262.711C69.011 263.961 75.5217 263.319 81.4387 260.868C87.3554 258.418 92.4127 254.267 95.9707 248.942C99.5287 243.617 101.428 237.357 101.428 230.952C101.428 222.364 98.0164 214.128 91.9437 208.056C85.871 201.983 77.635 198.571 69.047 198.571ZM149.999 52.857C153.202 52.857 156.332 53.8066 158.994 55.5856C161.657 57.3646 163.732 59.8933 164.957 62.8516C166.183 65.8103 166.503 69.0656 165.879 72.2063C165.254 75.347 163.712 78.2316 161.448 80.496C159.183 82.7603 156.299 84.3023 153.158 84.927C150.017 85.5516 146.762 85.231 143.804 84.0056C140.845 82.7803 138.316 80.705 136.537 78.0426C134.758 75.38 133.809 72.2496 133.809 69.0476C133.809 64.7536 135.515 60.6356 138.551 57.5993C141.587 54.563 145.705 52.857 149.999 52.857ZM149.999 36.6666C143.595 36.6666 137.334 38.5656 132.009 42.124C126.684 45.682 122.534 50.739 120.083 56.656C117.632 62.5726 116.991 69.0836 118.241 75.3646C119.49 81.646 122.574 87.416 127.103 91.9443C131.631 96.473 137.401 99.557 143.682 100.806C149.963 102.056 156.474 101.415 162.391 98.9636C168.308 96.513 173.365 92.3626 176.923 87.0376C180.481 81.7123 182.38 75.452 182.38 69.0476C182.38 60.4596 178.969 52.2233 172.896 46.1506C166.824 40.0783 158.587 36.6666 149.999 36.6666ZM230.952 52.857C234.154 52.857 237.284 53.8066 239.947 55.5856C242.609 57.3646 244.684 59.8933 245.91 62.8516C247.135 65.8103 247.456 69.0656 246.831 72.2063C246.206 75.347 244.664 78.2316 242.4 80.496C240.136 82.7603 237.251 84.3023 234.11 84.927C230.97 85.5516 227.714 85.231 224.756 84.0056C221.797 82.7803 219.269 80.705 217.49 78.0426C215.711 75.38 214.761 72.2496 214.761 69.0476C214.761 64.7536 216.467 60.6356 219.503 57.5993C222.54 54.563 226.658 52.857 230.952 52.857ZM230.952 36.6666C224.547 36.6666 218.287 38.5656 212.962 42.124C207.637 45.682 203.486 50.739 201.036 56.656C198.585 62.5726 197.944 69.0836 199.193 75.3646C200.442 81.646 203.526 87.416 208.055 91.9443C212.583 96.473 218.353 99.557 224.635 100.806C230.916 102.056 237.427 101.415 243.343 98.9636C249.26 96.513 254.317 92.3626 257.875 87.0376C261.434 81.7123 263.333 75.452 263.333 69.0476C263.333 60.4596 259.921 52.2233 253.848 46.1506C247.776 40.0783 239.54 36.6666 230.952 36.6666ZM166.19 214.762V247.143H133.809V214.762H166.19ZM182.38 198.571H117.618V263.333H182.38V198.571Z" stroke="black" stroke-width="6"/>
<path d="M239.047 199.629V158.039C239.047 153.747 237.341 149.631 234.305 146.596C231.268 143.561 227.15 141.856 222.856 141.856H77.1424V101.399H101.428V36.6666H36.666V101.399H60.9517V141.856C60.9517 146.148 62.6573 150.264 65.6937 153.299C68.73 156.334 72.8484 158.039 77.1424 158.039H222.856V199.629C215.225 201.599 208.575 206.282 204.152 212.802C199.728 219.322 197.836 227.231 198.829 235.046C199.822 242.861 203.632 250.045 209.546 255.253C215.46 260.46 223.07 263.333 230.952 263.333C238.833 263.333 246.444 260.46 252.357 255.253C258.271 250.045 262.081 242.861 263.074 235.046C264.068 227.231 262.175 219.322 257.752 212.802C253.328 206.282 246.678 201.599 239.047 199.629ZM52.8563 52.8496H85.2374V85.2156H52.8563V52.8496ZM230.952 247.045C227.749 247.045 224.619 246.096 221.957 244.318C219.294 242.54 217.219 240.012 215.994 237.055C214.768 234.098 214.448 230.844 215.072 227.705C215.697 224.566 217.239 221.682 219.503 219.419C221.768 217.156 224.652 215.615 227.793 214.99C230.934 214.366 234.189 214.686 237.147 215.911C240.106 217.136 242.634 219.21 244.414 221.872C246.193 224.533 247.142 227.662 247.142 230.862C247.142 235.154 245.436 239.271 242.4 242.305C239.364 245.34 235.246 247.045 230.952 247.045Z" stroke="black" stroke-width="6"/>
</svg>
