<svg width="70" height="70" viewBox="0 0 70 70" fill="none" xmlns="http://www.w3.org/2000/svg">
<circle cx="35" cy="35" r="35" fill="#FFE8AF"/>
<path d="M34.429 14.7253C34.6664 14.7261 34.9038 14.7253 35.1412 14.7243C37.0848 14.7228 37.0848 14.7228 37.6192 15.0619C37.8067 15.3767 37.8274 15.6336 37.7554 15.9914C37.6158 16.2148 37.5232 16.3411 37.2883 16.4585C36.7558 16.4849 36.2222 16.4543 35.6906 16.4228C31.5137 16.1895 27.2635 17.3733 23.8962 19.8844C23.8492 19.9193 23.8022 19.9542 23.7538 19.9902C23.0605 20.5094 22.4183 21.0755 21.794 21.6752C21.7242 21.7418 21.6543 21.8085 21.5823 21.8771C18.3153 25.0635 16.4285 29.7433 16.3413 34.281C16.3281 39.2979 18.1693 43.9134 21.6383 47.5249C21.7049 47.5948 21.7716 47.6646 21.8402 47.7366C25.0974 51.0762 29.8019 52.8821 34.422 52.9727C38.6282 53.0112 42.8312 51.6092 46.0865 48.9264C46.1297 48.8911 46.1729 48.8558 46.2174 48.8195C47.2282 47.9892 48.1732 47.0881 48.9674 46.0456C49.0012 46.0013 49.035 45.9571 49.0698 45.9115C52.0401 42.0026 53.4089 37.1515 52.7671 32.2704C52.3542 29.3581 51.3132 26.6844 49.6681 24.2446C49.6167 24.1675 49.5653 24.0904 49.5124 24.011C49.5023 24.1054 49.5023 24.1054 49.492 24.2017C49.4423 24.5796 49.4023 24.8734 49.1961 25.1984C48.8813 25.3859 48.6244 25.4066 48.2666 25.3346C48.0431 25.195 47.9169 25.1024 47.7995 24.8675C47.7905 24.7547 47.7863 24.6415 47.7844 24.5284C47.7826 24.4232 47.7826 24.4232 47.7807 24.3157C47.7772 23.9942 47.774 23.6727 47.7722 23.3512C47.7709 23.1817 47.7688 23.0122 47.7658 22.8428C47.7615 22.5983 47.7598 22.354 47.7587 22.1095C47.7569 22.0341 47.7552 21.9586 47.7534 21.8809C47.7544 21.5394 47.7611 21.2842 47.9723 21.0057C48.357 20.6734 48.7751 20.7276 49.2612 20.725C49.3267 20.7246 49.3923 20.7242 49.4598 20.7237C49.5982 20.723 49.7365 20.7225 49.8749 20.7222C50.0854 20.7214 50.2958 20.719 50.5063 20.7165C50.6412 20.716 50.776 20.7156 50.9108 20.7153C50.9732 20.7144 51.0356 20.7134 51.0999 20.7124C51.5104 20.714 51.7965 20.7785 52.1597 20.9744C52.3526 21.2398 52.3932 21.391 52.3932 21.719C52.2961 22.053 52.2038 22.1661 51.9261 22.3759C51.6695 22.4227 51.4218 22.4129 51.1621 22.4003C51.0933 22.3985 51.0245 22.3968 50.9536 22.3949C50.7846 22.3904 50.6156 22.3834 50.4467 22.3759C50.5357 22.4989 50.5357 22.4989 50.6265 22.6244C51.1493 23.3525 51.6401 24.0875 52.0818 24.8675C52.124 24.9408 52.124 24.9408 52.1671 25.0155C53.33 27.047 54.0679 29.3311 54.4176 31.6413C54.4314 31.7285 54.4452 31.8156 54.4595 31.9053C54.5904 32.818 54.6012 33.7229 54.5977 34.6438C54.5975 34.7233 54.5973 34.8028 54.5972 34.8847C54.5933 36.0248 54.5691 37.1391 54.3398 38.2595C54.3247 38.3371 54.3096 38.4147 54.2941 38.4946C53.662 41.6938 52.3096 44.582 50.291 47.1356C50.2278 47.2164 50.1645 47.2972 50.0994 47.3804C49.1133 48.5921 47.9804 49.7285 46.7094 50.6393C46.6047 50.7164 46.4999 50.7934 46.3952 50.8705C43.9577 52.6457 41.1891 53.8307 38.2226 54.3766C38.1603 54.3892 38.0979 54.4017 38.0337 54.4146C35.8484 54.842 33.2394 54.8243 31.0594 54.3766C30.9806 54.3612 30.9018 54.3457 30.8205 54.3298C27.621 53.69 24.7452 52.332 22.1833 50.3279C22.1413 50.2953 22.0994 50.2626 22.0561 50.229C20.7916 49.2353 19.6182 48.0525 18.6796 46.7463C18.6123 46.6552 18.545 46.5642 18.4776 46.4732C17.2986 44.8672 16.3578 43.1069 15.7209 41.2182C15.6887 41.123 15.6887 41.123 15.6559 41.0259C15.4038 40.2651 15.2066 39.4958 15.0396 38.7121C15.0241 38.6401 15.0087 38.5681 14.9927 38.4939C14.7363 37.232 14.6795 35.9914 14.6844 34.7071C14.6845 34.6278 14.6847 34.5485 14.6849 34.4669C14.6887 33.3282 14.7132 32.2153 14.9423 31.0963C14.9649 30.9799 14.9649 30.9799 14.9879 30.8612C15.5819 27.8551 16.8053 25.0402 18.6796 22.6095C18.7547 22.512 18.7547 22.512 18.8314 22.4124C19.9294 21.0145 21.2027 19.6762 22.6505 18.6386C22.6927 18.6081 22.7348 18.5776 22.7783 18.5462C24.415 17.3664 26.1874 16.4031 28.1007 15.7578C28.1959 15.7256 28.1959 15.7256 28.293 15.6928C29.0538 15.4407 29.8232 15.2435 30.6069 15.0765C30.6789 15.061 30.7509 15.0456 30.825 15.0296C32.027 14.7854 33.2051 14.7201 34.429 14.7253Z" fill="black"/>
<path d="M37.5997 20.0403C37.6697 20.0558 37.7397 20.0713 37.8118 20.0872C40.0008 20.5824 41.9619 21.4901 43.7507 22.8433C43.8254 22.8989 43.9 22.9545 43.977 23.0118C47.1072 25.4537 48.9645 29.084 49.4826 32.9822C49.8737 36.908 48.8149 40.8983 46.3329 43.9885C43.7522 47.1159 40.1839 49.1249 36.1292 49.5356C35.6421 49.5767 35.1538 49.5764 34.6653 49.5738C34.6078 49.5737 34.5503 49.5735 34.491 49.5733C30.3215 49.5539 26.6438 47.8189 23.7274 44.8934C21.1083 42.196 19.7273 38.4308 19.7453 34.7024C19.7454 34.641 19.7456 34.5795 19.7457 34.5162C19.7494 33.5659 19.7969 32.6499 20.0032 31.7194C20.0226 31.6264 20.0226 31.6264 20.0424 31.5315C20.3327 30.1616 20.8138 28.8787 21.4582 27.6366C21.4934 27.5689 21.5285 27.5011 21.5647 27.4313C22.0466 26.5322 22.0466 26.5322 22.4169 26.347C22.9581 26.3027 22.9581 26.3027 23.2636 26.4687C23.4785 26.7152 23.5415 26.8786 23.5848 27.2035C23.4469 27.6358 23.2591 27.9999 23.0252 28.386C22.3129 29.6146 21.9128 30.9559 21.6383 32.3423C21.6191 32.4356 21.5999 32.529 21.5802 32.6251C21.0134 35.9948 21.9478 39.6066 23.8914 42.3863C24.3147 42.9754 24.7909 43.5037 25.2977 44.0214C25.351 44.0786 25.4043 44.1358 25.4592 44.1947C27.0254 45.843 29.2844 46.9545 31.4633 47.5105C31.5224 47.5257 31.5814 47.5409 31.6422 47.5565C32.6232 47.792 33.6103 47.8666 34.6167 47.8609C34.6978 47.8606 34.6978 47.8606 34.7806 47.8604C38.3139 47.8429 41.4452 46.4396 43.9843 44.0214C44.0402 43.9696 44.0961 43.9178 44.1537 43.8644C46.3866 41.7344 47.7332 38.3889 47.8256 35.3381C47.8279 35.1343 47.8289 34.9306 47.8286 34.7268C47.8286 34.6462 47.8286 34.6462 47.8286 34.5641C47.8255 33.5424 47.7182 32.56 47.488 31.5637C47.4743 31.5039 47.4605 31.4442 47.4463 31.3826C46.8834 29.0454 45.6223 27.0578 43.9843 25.3348C43.9361 25.2816 43.8879 25.2284 43.8383 25.1736C41.5755 22.7593 38.1852 21.6082 34.9594 21.4245C32.4337 21.3644 29.7855 22.076 27.6573 23.4455C27.3681 23.6043 27.0975 23.6079 26.7771 23.544C26.5625 23.3742 26.4317 23.2426 26.3099 22.999C26.2626 22.5826 26.364 22.3892 26.6214 22.0647C26.8004 21.9278 26.9913 21.8235 27.1907 21.7192C27.246 21.6894 27.3013 21.6596 27.3582 21.6289C27.5271 21.5389 27.6968 21.4511 27.8671 21.3639C27.9153 21.3389 27.9634 21.3139 28.013 21.2881C30.849 19.8295 34.4767 19.3285 37.5997 20.0403Z" fill="black"/>
<path d="M42.0377 26.7363C42.2575 26.8339 42.3852 26.9141 42.5292 27.1061C42.61 27.3706 42.6196 27.5495 42.5827 27.8263C42.3218 28.2596 41.9631 28.6238 41.6051 28.9773C41.5564 29.026 41.5078 29.0747 41.4576 29.1249C41.2988 29.2837 41.1393 29.4419 40.9799 29.6001C40.8688 29.7109 40.7578 29.8217 40.6467 29.9326C40.356 30.2227 40.0648 30.5124 39.7735 30.8019C39.4757 31.0981 39.1784 31.3948 38.881 31.6914C38.2986 32.2721 37.7157 32.8523 37.1325 33.4323C37.149 33.4895 37.1655 33.5468 37.1826 33.6058C37.204 33.6817 37.2254 33.7576 37.2475 33.8359C37.2688 33.9108 37.2901 33.9857 37.3121 34.0629C37.4763 34.7501 37.3628 35.4139 37.0321 36.0342C36.5855 36.7471 36.0295 37.1376 35.2298 37.3837C34.2841 37.476 33.52 37.3123 32.7723 36.7024C32.2775 36.2429 31.9517 35.6152 31.9 34.9378C31.8988 34.8617 31.8976 34.7856 31.8964 34.7072C31.8944 34.6324 31.8924 34.5575 31.8903 34.4803C31.9136 34.235 31.9618 34.0388 32.0342 33.8047C32.0664 33.7 32.0664 33.7 32.0992 33.5931C32.1158 33.54 32.1324 33.487 32.1494 33.4323C32.1177 33.4011 32.0861 33.37 32.0534 33.3379C31.7231 33.0127 31.3935 32.6867 31.0645 32.3602C30.9417 32.2385 30.8186 32.1171 30.6954 31.9959C30.518 31.8213 30.3414 31.646 30.1649 31.4705C30.1099 31.4168 30.0549 31.363 29.9982 31.3075C29.7155 31.0249 29.4901 30.777 29.3464 30.3957C29.3464 30.0581 29.3885 29.8991 29.5897 29.6268C29.8649 29.4235 30.0166 29.3776 30.3586 29.3835C30.8223 29.6038 31.1455 29.9057 31.5019 30.2704C31.5564 30.3253 31.611 30.3801 31.6671 30.4366C31.8398 30.6106 32.0117 30.7854 32.1835 30.9602C32.301 31.0789 32.4185 31.1975 32.5361 31.316C32.8231 31.6056 33.1094 31.8958 33.3952 32.1865C33.4525 32.17 33.5098 32.1535 33.5689 32.1364C33.6828 32.1043 33.6828 32.1043 33.7991 32.0715C33.8741 32.0502 33.949 32.0288 34.0263 32.0069C34.5377 31.8844 34.9803 31.9285 35.4828 32.0715C35.5588 32.0929 35.6348 32.1144 35.7131 32.1364C35.7704 32.1529 35.8277 32.1695 35.8867 32.1865C35.9512 32.1217 36.0157 32.0568 36.0822 31.99C36.69 31.379 37.2984 30.7683 37.9071 30.1581C38.22 29.8444 38.5328 29.5305 38.8452 29.2163C39.1468 28.913 39.4487 28.6101 39.7509 28.3075C39.8661 28.192 39.9812 28.0764 40.0961 27.9606C40.2572 27.7985 40.4187 27.6368 40.5803 27.4752C40.6277 27.4273 40.6751 27.3793 40.7239 27.33C41.1325 26.9233 41.4309 26.6712 42.0377 26.7363ZM33.7602 33.987C33.5813 34.2917 33.5354 34.5599 33.5509 34.9116C33.675 35.2771 33.8405 35.4946 34.1738 35.6902C34.5216 35.7841 34.7897 35.7969 35.1325 35.6805C35.4145 35.4837 35.6053 35.3224 35.6976 34.9807C35.7608 34.5802 35.7364 34.3199 35.4974 33.9773C35.2235 33.6792 34.9713 33.6071 34.5795 33.5804C34.2246 33.5961 34.014 33.7538 33.7602 33.987Z" fill="black"/>
<path d="M35.0303 22.8432C35.2732 23.0438 35.3977 23.1667 35.4975 23.4661C35.509 23.67 35.5155 23.8704 35.5169 24.0744C35.5186 24.1288 35.5202 24.1833 35.5218 24.2394C35.5246 24.6121 35.4663 24.8656 35.2639 25.179C34.9555 25.3688 34.7921 25.4225 34.4318 25.3737C34.1274 25.2358 34.0335 25.1542 33.8624 24.8676C33.815 24.5942 33.8154 24.3269 33.8186 24.05C33.8158 23.9406 33.8158 23.9406 33.813 23.8289C33.8138 23.4649 33.8199 23.2885 34.0452 22.9916C34.394 22.7409 34.6186 22.7438 35.0303 22.8432Z" fill="black"/>
<path d="M35.1081 44.099C35.3739 44.3361 35.4414 44.5255 35.4637 44.8703C35.4652 45.0155 35.465 45.1607 35.4634 45.3058C35.4652 45.3788 35.4671 45.4518 35.469 45.527C35.4682 45.8878 35.4609 46.0675 35.2413 46.364C34.9575 46.5639 34.7523 46.625 34.4074 46.5905C34.144 46.4637 33.9894 46.3717 33.8511 46.1115C33.7665 45.83 33.7588 45.563 33.7602 45.2718C33.7589 45.218 33.7576 45.1643 33.7563 45.1089C33.756 44.7403 33.8189 44.487 34.0181 44.1769C34.4238 43.9272 34.6734 43.9022 35.1081 44.099Z" fill="black"/>
<path d="M45.2691 33.8557C45.3421 33.8539 45.4151 33.852 45.4902 33.8501C45.851 33.8509 46.0308 33.8581 46.3272 34.0777C46.5272 34.3615 46.5883 34.5668 46.5538 34.9117C46.427 35.1751 46.335 35.3296 46.0748 35.468C45.7933 35.5526 45.5262 35.5603 45.2351 35.5589C45.1544 35.5608 45.1544 35.5608 45.0722 35.5627C44.7036 35.5631 44.4503 35.5002 44.1401 35.301C43.9503 34.9926 43.8966 34.8292 43.9455 34.4689C44.2261 33.8491 44.6565 33.8486 45.2691 33.8557Z" fill="black"/>
<path d="M24.0471 33.7973C24.1008 33.796 24.1546 33.7948 24.2099 33.7935C24.5786 33.7931 24.8318 33.856 25.142 34.0552C25.3318 34.3636 25.3855 34.527 25.3366 34.8873C25.1988 35.1917 25.1171 35.2856 24.8305 35.4567C24.5572 35.504 24.2899 35.5037 24.013 35.5005C23.9036 35.5032 23.9036 35.5032 23.7919 35.5061C23.4311 35.5053 23.2513 35.498 22.9549 35.2784C22.7549 34.9946 22.6939 34.7894 22.7283 34.4445C22.8551 34.1811 22.9472 34.0265 23.2073 33.8882C23.4889 33.8036 23.7559 33.7959 24.0471 33.7973Z" fill="black"/>
<path d="M40.6216 15.6898C40.8286 15.9619 40.8698 16.118 40.8698 16.4587C40.7518 16.7713 40.6825 16.895 40.4026 17.0816C40.045 17.1392 39.7778 17.1291 39.4683 16.9356C39.2318 16.6843 39.2036 16.502 39.2073 16.1555C39.2568 15.8594 39.4068 15.7268 39.624 15.5244C39.9776 15.3533 40.3219 15.4634 40.6216 15.6898Z" fill="black"/>
<path d="M25.0643 23.933C25.3249 24.1177 25.4269 24.2457 25.5314 24.5462C25.5314 24.8707 25.4657 25.0565 25.2978 25.3345C24.988 25.5312 24.8296 25.5798 24.4657 25.5243C24.0529 25.3452 24.0529 25.3452 23.8964 25.1009C23.8304 24.7378 23.8453 24.4819 24.0423 24.1666C24.3484 23.8786 24.6587 23.8714 25.0643 23.933Z" fill="black"/>
</svg>
