<svg width="512" height="512" viewBox="0 0 512 512" fill="none" xmlns="http://www.w3.org/2000/svg">
<path fill-rule="evenodd" clip-rule="evenodd" d="M456 184.8C456 211.199 437.632 232.6 414.974 232.6C395.859 232.6 379.796 217.367 375.242 196.75H317.963C307.936 196.75 299.378 205.197 297.729 216.721L296.043 228.508C294.442 239.7 289.583 249.441 282.712 256.5C289.583 263.559 294.442 273.3 296.043 284.492L297.729 296.28C299.378 307.803 307.936 316.25 317.963 316.25H334.216C338.77 295.633 354.833 280.4 373.949 280.4C396.607 280.4 414.974 301.8 414.974 328.2C414.974 354.6 396.607 376 373.949 376C354.833 376 338.77 360.767 334.216 340.15H317.963C297.908 340.15 280.793 323.257 277.496 300.208L275.809 288.42C274.161 276.897 265.603 268.45 255.576 268.45H238.843C233.722 288.049 218.085 302.308 199.589 302.308C181.095 302.308 165.458 288.049 160.336 268.45H136.279C131.158 288.049 115.521 302.308 97.0256 302.308C74.3678 302.308 56 280.907 56 254.508C56 228.109 74.3678 206.709 97.0256 206.709C116.753 206.709 133.228 222.931 137.159 244.55H159.456C163.388 222.931 179.863 206.709 199.589 206.709C219.317 206.709 235.792 222.931 239.724 244.55H255.576C265.603 244.55 274.161 236.103 275.809 224.579L277.496 212.792C280.793 189.743 297.908 172.85 317.963 172.85H375.242C379.796 152.234 395.859 137 414.974 137C437.632 137 456 158.401 456 184.8ZM435.487 184.8C435.487 197.999 426.303 208.7 414.974 208.7C403.646 208.7 394.461 197.999 394.461 184.8C394.461 171.6 403.646 160.9 414.974 160.9C426.303 160.9 435.487 171.6 435.487 184.8ZM97.0256 278.408C108.355 278.408 117.538 267.708 117.538 254.508C117.538 241.309 108.355 230.609 97.0256 230.609C85.6967 230.609 76.5128 241.309 76.5128 254.508C76.5128 267.708 85.6967 278.408 97.0256 278.408ZM199.589 278.408C210.919 278.408 220.102 267.708 220.102 254.508C220.102 241.309 210.919 230.609 199.589 230.609C188.261 230.609 179.077 241.309 179.077 254.508C179.077 267.708 188.261 278.408 199.589 278.408ZM373.949 352.1C385.278 352.1 394.461 341.4 394.461 328.2C394.461 315 385.278 304.3 373.949 304.3C362.62 304.3 353.436 315 353.436 328.2C353.436 341.4 362.62 352.1 373.949 352.1Z" fill="#024D81"/>
</svg>
