<svg width="300" height="300" viewBox="0 0 300 300" fill="none" xmlns="http://www.w3.org/2000/svg">
<path d="M149.061 152.399C153.893 152.399 157.809 148.482 157.809 143.65C157.809 138.818 153.893 134.902 149.061 134.902C144.229 134.902 140.312 138.818 140.312 143.65C140.312 148.482 144.229 152.399 149.061 152.399Z" fill="black"/>
<path d="M124.564 161.044L122.628 160.549C108.249 156.917 100 150.742 100 143.63C100 136.514 108.253 130.343 122.628 126.712L124.564 126.222L125.108 128.138C126.562 133.155 128.424 138.045 130.676 142.758L131.093 143.63L130.676 144.503C128.422 149.222 126.554 154.114 125.108 159.133L124.564 161.044ZM121.736 131.172C110.812 134.25 104.102 138.945 104.102 143.63C104.102 148.306 110.807 153.006 121.736 156.079C123.074 151.825 124.692 147.664 126.564 143.63C124.678 139.59 123.065 135.428 121.736 131.172ZM173.551 161.044L173.012 159.123C171.555 154.104 169.691 149.213 167.439 144.498L167.023 143.63L167.439 142.753C169.694 138.043 171.551 133.147 173.012 128.128L173.551 126.217L175.487 126.707C189.872 130.338 198.115 136.509 198.115 143.63C198.115 150.747 189.867 156.917 175.487 160.549L173.551 161.044ZM171.542 143.63C173.502 147.875 175.134 152.05 176.379 156.079C187.308 153.006 194.018 148.306 194.018 143.63C194.018 138.945 187.313 134.254 176.379 131.172C175.042 135.426 173.426 139.588 171.542 143.63Z" fill="black"/>
<path d="M121.706 131.152L121.167 129.241C117.119 114.988 118.344 104.779 124.534 101.221C130.587 97.7167 140.326 101.858 150.525 112.322L151.917 113.753L150.525 115.179C146.902 118.947 143.591 123.002 140.624 127.305L140.071 128.099L139.11 128.177C133.893 128.587 128.718 129.421 123.637 130.672L121.706 131.152ZM129.46 104.054C128.362 104.054 127.391 104.294 126.573 104.765C122.515 107.102 121.799 115.243 124.593 126.231C128.96 125.266 133.366 124.575 137.806 124.188C140.377 120.541 143.181 117.066 146.202 113.783C139.816 107.573 133.787 104.054 129.46 104.054ZM168.654 187.294C162.831 187.294 155.352 182.903 147.589 174.934L146.202 173.508L147.589 172.086C151.212 168.313 154.525 164.253 157.494 159.946L158.043 159.162L158.994 159.069C164.213 158.666 169.389 157.835 174.472 156.584L176.408 156.094L176.952 158.01C180.98 172.253 179.76 182.477 173.58 186.035C172.079 186.885 170.379 187.32 168.654 187.294ZM151.917 173.473C158.298 179.683 164.331 183.207 168.654 183.207C169.757 183.207 170.727 182.962 171.541 182.496C175.604 180.153 176.324 171.998 173.521 161.01C169.159 161.98 164.748 162.676 160.298 163.063C157.738 166.715 154.938 170.193 151.917 173.473Z" fill="black"/>
<path d="M176.409 131.152L174.473 130.667C169.39 129.412 164.214 128.578 158.995 128.172L158.044 128.089L157.495 127.295C154.53 122.99 151.217 118.934 147.59 115.169L146.203 113.743L147.59 112.322C157.784 101.863 167.518 97.7213 173.581 101.221C179.766 104.784 180.996 114.993 176.953 129.241L176.409 131.152ZM160.299 124.187C164.974 124.604 169.405 125.305 173.522 126.231C176.32 115.243 175.605 107.102 171.542 104.759C167.503 102.422 159.902 105.999 151.918 113.782C154.937 117.066 157.74 120.536 160.299 124.187ZM129.461 187.294C127.736 187.319 126.036 186.884 124.535 186.035C118.345 182.476 117.12 172.258 121.163 158.01L121.692 156.094L123.628 156.584C128.353 157.775 133.558 158.613 139.106 159.069L140.057 159.162L140.611 159.946C143.571 164.249 146.884 168.312 150.511 172.086L151.903 173.507L150.511 174.934C142.753 182.908 135.273 187.294 129.461 187.294ZM124.594 161.014C121.8 172.003 122.516 180.158 126.574 182.501C130.617 184.804 138.195 181.251 146.203 173.473C143.184 170.189 140.379 166.713 137.807 163.068C133.362 162.675 128.948 161.989 124.594 161.014Z" fill="black"/>
<path d="M149.058 163.588C145.691 163.588 142.236 163.446 138.766 163.157L137.805 163.073L137.252 162.279C135.295 159.465 133.454 156.573 131.733 153.609C130.025 150.637 128.437 147.598 126.974 144.498L126.562 143.63L126.974 142.753C128.439 139.656 130.023 136.617 131.733 133.647C133.434 130.726 135.291 127.805 137.252 124.972L137.805 124.188L138.766 124.1C145.612 123.526 152.495 123.526 159.341 124.1L160.292 124.193L160.846 124.977C164.766 130.607 168.209 136.555 171.138 142.758L171.545 143.635L171.138 144.503C168.217 150.71 164.774 156.659 160.846 162.284L160.292 163.078L159.341 163.161C155.881 163.441 152.421 163.588 149.058 163.588ZM140.07 159.157C146.123 159.613 151.994 159.613 158.042 159.157C161.419 154.213 164.42 149.023 167.021 143.63C164.429 138.233 161.427 133.042 158.042 128.104C152.06 127.643 146.052 127.643 140.07 128.104C136.682 133.041 133.68 138.232 131.091 143.63C133.698 149.02 136.699 154.21 140.07 159.157Z" fill="black"/>
<path d="M196.482 36.6667H100.186C90.879 36.6667 83.334 44.0664 83.334 53.1944V246.806C83.334 255.934 90.879 263.333 100.186 263.333H196.482C205.789 263.333 213.334 255.934 213.334 246.806V53.1944C213.334 44.0664 205.789 36.6667 196.482 36.6667Z" stroke="black" stroke-width="6" stroke-linecap="round" stroke-linejoin="round"/>
<path d="M83.334 226.667H213.334V246.667C213.334 255.871 205.872 263.333 196.667 263.333H100.001C90.796 263.333 83.334 255.871 83.334 246.667V226.667Z" stroke="black" stroke-width="6"/>
<g filter="url(#filter0_d_369_996)">
<path d="M150.001 250C153.683 250 156.667 247.015 156.667 243.333C156.667 239.651 153.683 236.667 150.001 236.667C146.319 236.667 143.334 239.651 143.334 243.333C143.334 247.015 146.319 250 150.001 250Z" fill="black"/>
<path d="M150 248.333C152.761 248.333 155 246.095 155 243.333C155 240.572 152.761 238.333 150 238.333C147.239 238.333 145 240.572 145 243.333C145 246.095 147.239 248.333 150 248.333Z" stroke="black" stroke-width="6"/>
</g>
<defs>
<filter id="filter0_d_369_996" x="138" y="235.333" width="24" height="24" filterUnits="userSpaceOnUse" color-interpolation-filters="sRGB">
<feFlood flood-opacity="0" result="BackgroundImageFix"/>
<feColorMatrix in="SourceAlpha" type="matrix" values="0 0 0 0 0 0 0 0 0 0 0 0 0 0 0 0 0 0 127 0" result="hardAlpha"/>
<feOffset dy="4"/>
<feGaussianBlur stdDeviation="2"/>
<feComposite in2="hardAlpha" operator="out"/>
<feColorMatrix type="matrix" values="0 0 0 0 0 0 0 0 0 0 0 0 0 0 0 0 0 0 0.25 0"/>
<feBlend mode="normal" in2="BackgroundImageFix" result="effect1_dropShadow_369_996"/>
<feBlend mode="normal" in="SourceGraphic" in2="effect1_dropShadow_369_996" result="shape"/>
</filter>
</defs>
</svg>
