<svg width="300" height="300" viewBox="0 0 300 300" fill="none" xmlns="http://www.w3.org/2000/svg">
<mask id="mask0_368_618" style="mask-type:luminance" maskUnits="userSpaceOnUse" x="33" y="33" width="231" height="231">
<path d="M251.834 159.833C254.884 159.833 257.809 158.622 259.966 156.465C262.122 154.308 263.334 151.383 263.334 148.333C263.334 145.283 262.122 142.358 259.966 140.202C257.809 138.045 254.884 136.833 251.834 136.833H228.834V113.833H251.834C254.884 113.833 257.809 112.622 259.966 110.465C262.122 108.308 263.334 105.383 263.334 102.333C263.334 99.2834 262.122 96.3584 259.966 94.2017C257.809 92.045 254.884 90.8334 251.834 90.8334H226.764C225.047 86.0104 222.278 81.6297 218.658 78.0097C215.038 74.3897 210.657 71.6204 205.834 69.9034V44.8334C205.834 41.7834 204.622 38.8584 202.466 36.7017C200.309 34.545 197.384 33.3334 194.334 33.3334C191.284 33.3334 188.359 34.545 186.202 36.7017C184.046 38.8584 182.834 41.7834 182.834 44.8334V67.8334H159.834V44.8334C159.834 41.7834 158.622 38.8584 156.466 36.7017C154.309 34.545 151.384 33.3334 148.334 33.3334C145.284 33.3334 142.359 34.545 140.202 36.7017C138.046 38.8584 136.834 41.7834 136.834 44.8334V67.8334H113.834V44.8334C113.834 41.7834 112.622 38.8584 110.466 36.7017C108.309 34.545 105.384 33.3334 102.334 33.3334C99.284 33.3334 96.359 34.545 94.2023 36.7017C92.0456 38.8584 90.834 41.7834 90.834 44.8334V69.9034C86.011 71.6204 81.6303 74.3897 78.0103 78.0097C74.3903 81.6297 71.621 86.0104 69.904 90.8334H44.834C41.784 90.8334 38.859 92.045 36.7023 94.2017C34.5457 96.3584 33.334 99.2834 33.334 102.333C33.334 105.383 34.5457 108.308 36.7023 110.465C38.859 112.622 41.784 113.833 44.834 113.833H67.834V136.833H44.834C41.784 136.833 38.859 138.045 36.7023 140.202C34.5457 142.358 33.334 145.283 33.334 148.333C33.334 151.383 34.5457 154.308 36.7023 156.465C38.859 158.622 41.784 159.833 44.834 159.833H67.834V182.833H44.834C41.784 182.833 38.859 184.045 36.7023 186.202C34.5457 188.358 33.334 191.283 33.334 194.333C33.334 197.383 34.5457 200.308 36.7023 202.465C38.859 204.622 41.784 205.833 44.834 205.833H69.904C71.621 210.656 74.3903 215.037 78.0103 218.657C81.6303 222.277 86.011 225.046 90.834 226.763V251.833C90.834 254.883 92.0456 257.808 94.2023 259.965C96.359 262.122 99.284 263.333 102.334 263.333C105.384 263.333 108.309 262.122 110.466 259.965C112.622 257.808 113.834 254.883 113.834 251.833V228.833H136.834V251.833C136.834 254.883 138.046 257.808 140.202 259.965C142.359 262.122 145.284 263.333 148.334 263.333C151.384 263.333 154.309 262.122 156.466 259.965C158.622 257.808 159.834 254.883 159.834 251.833V228.833H182.834V251.833C182.834 254.883 184.046 257.808 186.202 259.965C188.359 262.122 191.284 263.333 194.334 263.333C197.384 263.333 200.309 262.122 202.466 259.965C204.622 257.808 205.834 254.883 205.834 251.833V226.763C210.657 225.046 215.038 222.277 218.658 218.657C222.278 215.037 225.047 210.656 226.764 205.833H251.834C254.884 205.833 257.809 204.622 259.966 202.465C262.122 200.308 263.334 197.383 263.334 194.333C263.334 191.283 262.122 188.358 259.966 186.202C257.809 184.045 254.884 182.833 251.834 182.833H228.834V159.833H251.834ZM205.834 194.333C205.834 197.383 204.622 200.308 202.466 202.465C200.309 204.622 197.384 205.833 194.334 205.833H102.334C99.284 205.833 96.359 204.622 94.2023 202.465C92.0456 200.308 90.834 197.383 90.834 194.333V102.333C90.834 99.2834 92.0456 96.3584 94.2023 94.2017C96.359 92.045 99.284 90.8334 102.334 90.8334H194.334C197.384 90.8334 200.309 92.045 202.466 94.2017C204.622 96.3584 205.834 99.2834 205.834 102.333V194.333Z" fill="white"/>
</mask>
<g mask="url(#mask0_368_618)">
<path d="M251.834 159.833C254.884 159.833 257.809 158.622 259.966 156.465C262.122 154.308 263.334 151.383 263.334 148.333C263.334 145.283 262.122 142.358 259.966 140.202C257.809 138.045 254.884 136.833 251.834 136.833H228.834V113.833H251.834C254.884 113.833 257.809 112.622 259.966 110.465C262.122 108.308 263.334 105.383 263.334 102.333C263.334 99.2834 262.122 96.3584 259.966 94.2017C257.809 92.045 254.884 90.8334 251.834 90.8334H226.764C225.047 86.0104 222.278 81.6297 218.658 78.0097C215.038 74.3897 210.657 71.6204 205.834 69.9034V44.8334C205.834 41.7834 204.622 38.8584 202.466 36.7017C200.309 34.545 197.384 33.3334 194.334 33.3334C191.284 33.3334 188.359 34.545 186.202 36.7017C184.046 38.8584 182.834 41.7834 182.834 44.8334V67.8334H159.834V44.8334C159.834 41.7834 158.622 38.8584 156.466 36.7017C154.309 34.545 151.384 33.3334 148.334 33.3334C145.284 33.3334 142.359 34.545 140.202 36.7017C138.046 38.8584 136.834 41.7834 136.834 44.8334V67.8334H113.834V44.8334C113.834 41.7834 112.622 38.8584 110.466 36.7017C108.309 34.545 105.384 33.3334 102.334 33.3334C99.284 33.3334 96.359 34.545 94.2023 36.7017C92.0456 38.8584 90.834 41.7834 90.834 44.8334V69.9034C86.011 71.6204 81.6303 74.3897 78.0103 78.0097C74.3903 81.6297 71.621 86.0104 69.904 90.8334H44.834C41.784 90.8334 38.859 92.045 36.7023 94.2017C34.5457 96.3584 33.334 99.2834 33.334 102.333C33.334 105.383 34.5457 108.308 36.7023 110.465C38.859 112.622 41.784 113.833 44.834 113.833H67.834V136.833H44.834C41.784 136.833 38.859 138.045 36.7023 140.202C34.5457 142.358 33.334 145.283 33.334 148.333C33.334 151.383 34.5457 154.308 36.7023 156.465C38.859 158.622 41.784 159.833 44.834 159.833H67.834V182.833H44.834C41.784 182.833 38.859 184.045 36.7023 186.202C34.5457 188.358 33.334 191.283 33.334 194.333C33.334 197.383 34.5457 200.308 36.7023 202.465C38.859 204.622 41.784 205.833 44.834 205.833H69.904C71.621 210.656 74.3903 215.037 78.0103 218.657C81.6303 222.277 86.011 225.046 90.834 226.763V251.833C90.834 254.883 92.0456 257.808 94.2023 259.965C96.359 262.122 99.284 263.333 102.334 263.333C105.384 263.333 108.309 262.122 110.466 259.965C112.622 257.808 113.834 254.883 113.834 251.833V228.833H136.834V251.833C136.834 254.883 138.046 257.808 140.202 259.965C142.359 262.122 145.284 263.333 148.334 263.333C151.384 263.333 154.309 262.122 156.466 259.965C158.622 257.808 159.834 254.883 159.834 251.833V228.833H182.834V251.833C182.834 254.883 184.046 257.808 186.202 259.965C188.359 262.122 191.284 263.333 194.334 263.333C197.384 263.333 200.309 262.122 202.466 259.965C204.622 257.808 205.834 254.883 205.834 251.833V226.763C210.657 225.046 215.038 222.277 218.658 218.657C222.278 215.037 225.047 210.656 226.764 205.833H251.834C254.884 205.833 257.809 204.622 259.966 202.465C262.122 200.308 263.334 197.383 263.334 194.333C263.334 191.283 262.122 188.358 259.966 186.202C257.809 184.045 254.884 182.833 251.834 182.833H228.834V159.833H251.834ZM205.834 194.333C205.834 197.383 204.622 200.308 202.466 202.465C200.309 204.622 197.384 205.833 194.334 205.833H102.334C99.284 205.833 96.359 204.622 94.2023 202.465C92.0456 200.308 90.834 197.383 90.834 194.333V102.333C90.834 99.2834 92.0456 96.3584 94.2023 94.2017C96.359 92.045 99.284 90.8334 102.334 90.8334H194.334C197.384 90.8334 200.309 92.045 202.466 94.2017C204.622 96.3584 205.834 99.2834 205.834 102.333V194.333Z" stroke="black" stroke-width="10"/>
</g>
<path d="M150.001 106.667C124.334 106.667 103.334 123.241 103.334 143.704C103.451 148.624 104.662 153.457 106.881 157.859C109.099 162.26 112.27 166.122 116.167 169.167C116.167 171.944 114.207 179.213 103.334 190C114.394 189.491 124.987 185.37 133.527 178.426C138.847 179.954 144.447 180.741 150.001 180.741C175.667 180.741 196.667 164.167 196.667 143.704C196.667 123.241 175.667 106.667 150.001 106.667ZM150.001 171.481C129.374 171.481 112.667 159.028 112.667 143.704C112.667 128.38 129.374 115.926 150.001 115.926C170.627 115.926 187.334 128.38 187.334 143.704C187.334 159.028 170.627 171.481 150.001 171.481ZM173.334 148.333V139.074H164.001V148.333H173.334ZM154.667 148.333V139.074H145.334V148.333H154.667ZM136.001 148.333V139.074H126.667V148.333H136.001Z" stroke="black" stroke-width="4"/>
</svg>
