<svg width="50" height="50" viewBox="0 0 50 50" fill="none" xmlns="http://www.w3.org/2000/svg">
<g clip-path="url(#clip0_892_543)">
<path d="M1.61914 0.194532C1.05273 0.419142 0.554688 0.868361 0.261719 1.41524L0.046875 1.80586V24.9992V48.1926L0.261719 48.5832C0.505859 49.0422 0.984375 49.5109 1.46289 49.7648C1.79492 49.9406 2.43945 49.9504 18.9922 49.9797C37.8887 49.9992 36.6582 50.0383 37.4199 49.4133C37.6152 49.2473 37.8887 48.8957 38.0254 48.6125L38.2793 48.1047V43.4562V38.798L38.0547 38.593C37.7324 38.2902 37.2051 38.3098 36.9023 38.632L36.668 38.8859L36.6484 43.2414C36.6289 45.6437 36.5996 47.7043 36.5703 47.8215C36.4434 48.3684 37.4004 48.3391 19.0898 48.3391H2.22461L1.94141 48.0559L1.6582 47.7727V25.009V2.25508L1.89258 1.98164L2.12695 1.7082L19.0117 1.67891C30.916 1.66914 35.9648 1.68867 36.1406 1.7668C36.2871 1.81563 36.4434 1.96211 36.5117 2.0793C36.5898 2.23555 36.6289 4.56953 36.6484 10.3703L36.668 18.4367L36.9023 18.6906C37.2148 19.0227 37.7617 19.0422 38.0645 18.7199L38.2793 18.4953V10.1945V1.89375L38.0254 1.37617C37.7227 0.78047 37.0879 0.262892 36.4531 0.106642C36.1699 0.0285168 30.7012 -0.000780106 19.0703 -0.000780106C2.56641 0.00898552 2.08789 0.00898552 1.61914 0.194532Z" fill="black"/>
<path d="M8.04297 5.07812C7.55469 5.27344 7.51562 5.46875 7.51562 7.54883C7.51562 9.47266 7.51562 9.48242 7.75977 9.7168L7.99414 9.96094H19.166H30.3379L30.5332 9.73633C30.8262 9.41406 30.8652 9.20898 30.7188 8.84766C30.6309 8.62305 30.4844 8.48633 30.2695 8.4082C30.0352 8.33008 27.0566 8.30078 19.5664 8.30078H9.17578V7.4707V6.64062H19.752H30.3379L30.5332 6.41602C30.8262 6.09375 30.8652 5.88867 30.7188 5.52734C30.6309 5.30273 30.4844 5.16602 30.2695 5.08789C29.8789 4.96094 8.375 4.94141 8.04297 5.07812Z" fill="black"/>
<path d="M46.4349 10.2644C45.9173 10.5183 45.5365 10.8894 45.2045 11.4851C44.9408 11.9441 44.9017 11.9734 44.5892 11.9344C44.4134 11.9148 44.1693 11.9441 44.0619 12.0027C43.9545 12.0613 43.4271 12.8621 42.89 13.7898C41.5423 16.1043 41.7377 15.8992 41.0931 15.5867C40.5756 15.3328 40.5365 15.3328 40.2045 15.4695C39.9603 15.5672 39.8236 15.6941 39.7748 15.8894C39.6283 16.4461 39.7552 16.6804 40.3998 17.0808L40.8197 17.3445L37.2943 23.4383L33.7689 29.5418L32.8998 31.8758C32.4115 33.1551 31.7572 34.7078 31.4447 35.323C30.9173 36.3191 30.8588 36.4851 30.8588 37.0222C30.8588 37.4031 30.9271 37.7742 31.0638 38.0867L31.2689 38.5652L30.4095 39.6199C29.9408 40.1961 29.5306 40.7136 29.4916 40.7527C29.4525 40.8015 29.2767 40.4793 29.1009 40.0496C28.6127 38.8289 27.9388 38.3406 26.9818 38.5261C26.6205 38.5945 25.9759 39.1511 25.722 39.5906C25.6439 39.7371 25.5853 39.366 25.4584 37.95C25.2826 35.9187 25.1947 35.6551 24.5306 35.2058C23.8959 34.7761 22.9486 34.9226 22.4408 35.5281C22.0697 35.9676 19.9603 42.325 20.058 42.7058C20.1361 43.0476 20.6634 43.3797 20.9955 43.3113C21.1322 43.282 21.3275 43.155 21.4349 43.0379C21.5423 42.9109 22.0502 41.534 22.6068 39.8152C23.1439 38.1648 23.6029 36.8172 23.6322 36.8172C23.6713 36.8172 23.7494 37.5496 23.8177 38.448C23.8861 39.366 24.0033 40.2351 24.0814 40.4304C24.6185 41.7097 26.1908 41.8855 26.9818 40.7527C27.1478 40.5183 27.3138 40.3328 27.3431 40.3328C27.3822 40.3328 27.5287 40.6453 27.6849 41.0261C28.017 41.8855 28.3002 42.2273 28.8568 42.4324C29.3646 42.6277 29.8724 42.5691 30.3314 42.2566C30.4974 42.1492 31.0931 41.4754 31.6498 40.7722L32.6556 39.4929L33.2123 39.532C33.6517 39.5613 33.8763 39.5222 34.2963 39.3367C34.9408 39.034 35.2045 38.7605 35.9662 37.5691C36.2982 37.0515 37.2357 35.8211 38.0463 34.8347L39.5209 33.0574L43.0658 26.9051C45.0091 23.5164 46.6205 20.7429 46.6302 20.7234C46.6986 20.6453 47.4603 21.114 47.597 21.3093C47.9193 21.7586 47.8119 22.0125 46.0345 25.0984C45.0873 26.739 44.2963 28.2136 44.267 28.3894C44.2181 28.6433 44.267 28.7605 44.5209 29.0144C44.7845 29.2683 44.8822 29.3074 45.1361 29.2586C45.3021 29.2293 45.4974 29.1511 45.5658 29.0926C45.7611 28.9265 49.2181 22.9011 49.3256 22.5398C49.6478 21.4168 49.1791 20.3426 48.0756 19.6297L47.4701 19.239L48.5345 17.3836C49.6771 15.4207 49.7943 15.0496 49.4232 14.7078C49.2377 14.532 49.2377 14.5222 49.5697 13.9168C49.9896 13.1551 50.0775 12.5301 49.8724 11.8074C49.5502 10.7234 48.6322 10.0594 47.4701 10.0594C47.0306 10.0691 46.6986 10.1277 46.4349 10.2644ZM48.0463 11.9148C48.3588 12.2273 48.3881 12.5398 48.1439 13.0476C48.017 13.2918 47.8705 13.5164 47.8021 13.5359C47.7142 13.575 46.6498 13.0379 46.3959 12.8328C46.3275 12.7742 46.8744 11.9246 47.0502 11.8269C47.3334 11.6609 47.8314 11.7 48.0463 11.9148ZM46.2298 14.659C46.9818 15.0984 47.6263 15.4695 47.6459 15.489C47.6752 15.5183 46.1615 18.2039 46.0345 18.3504C46.015 18.3797 43.3295 16.866 43.1732 16.739C43.1341 16.7097 44.7552 13.8679 44.8138 13.8679C44.8334 13.8679 45.4681 14.2293 46.2298 14.659ZM44.2084 19.2683C44.7064 19.5418 45.1166 19.8152 45.1166 19.864C45.1166 19.9324 38.9447 30.6746 38.5834 31.241C38.515 31.3386 38.1927 31.1922 37.099 30.5574C36.3275 30.1179 35.683 29.7468 35.6634 29.7273C35.6439 29.7176 39.765 22.5203 42.0599 18.5847L42.3041 18.1746L42.8021 18.4578C43.0853 18.6238 43.7201 18.9851 44.2084 19.2683ZM36.5521 32.1492C37.0209 32.4226 37.431 32.6765 37.4603 32.7254C37.4896 32.7742 37.0404 33.3797 36.4642 34.0828L35.4095 35.3426L34.8724 35.0398C34.5697 34.864 34.2084 34.659 34.0619 34.5711C33.9056 34.4929 33.7884 34.3953 33.7884 34.366C33.7884 34.2976 34.8627 31.4363 34.931 31.3191C34.9506 31.2801 35.1361 31.3386 35.3314 31.4558C35.5365 31.573 36.0736 31.8855 36.5521 32.1492ZM33.847 36.3875C34.1888 36.5828 34.472 36.7586 34.472 36.7781C34.472 36.9441 34.0423 37.6082 33.8666 37.7351C33.349 38.1062 32.6068 37.7351 32.5873 37.1101C32.5873 36.7586 32.9486 36.0359 33.1244 36.0359C33.1732 36.0359 33.5052 36.1922 33.847 36.3875Z" fill="black"/>
<path d="M10.2841 11.9344C9.99113 12.2664 9.95207 12.4715 10.0986 12.8426C10.206 13.0965 10.3329 13.1941 10.6161 13.282C10.8798 13.3601 13.4286 13.3797 19.415 13.3601L27.8525 13.3308L28.0868 13.0574C28.3896 12.6961 28.3896 12.2664 28.0771 11.9637L27.8427 11.7195H19.1611H10.4794L10.2841 11.9344Z" fill="black"/>
<path d="M13.873 17.5879C13.5312 17.7246 13.3848 17.9688 13.375 18.3789C13.375 18.6523 13.4336 18.7793 13.6289 18.9355C13.8926 19.1406 13.9316 19.1406 23.3555 19.1406H32.8184L33.0527 18.8965C33.3848 18.5742 33.3848 18.0859 33.043 17.7637L32.7891 17.5293L23.4531 17.5098C17.584 17.5 14.0195 17.5293 13.873 17.5879Z" fill="black"/>
<path d="M6.47461 22.5273C6.18164 22.5859 5.85938 23.0059 5.85938 23.3477C5.85938 23.4941 5.9668 23.748 6.09375 23.8945L6.32812 24.168H14.9707H23.6133L23.8672 23.9336C24.2188 23.6016 24.2188 23.0742 23.8672 22.7422L23.6133 22.5078L15.1562 22.498C10.498 22.4883 6.5918 22.498 6.47461 22.5273Z" fill="black"/>
<path d="M26.5131 22.5273C25.8783 22.6934 25.6537 23.4844 26.1322 23.9336L26.3861 24.168H29.6088H32.8314L33.0658 23.8945C33.3686 23.543 33.3686 23.1328 33.0658 22.7812L32.8314 22.5078L29.765 22.4883C28.0853 22.4883 26.6205 22.498 26.5131 22.5273Z" fill="black"/>
<path d="M6.29504 26.7773C5.79699 27.0605 5.69933 27.6855 6.09972 28.0762L6.3341 28.3203H10.8165H15.2989L15.5626 28.0664C15.9044 27.7148 15.8946 27.3145 15.5333 26.9434L15.2501 26.6602H10.8653C7.75988 26.6699 6.43176 26.6992 6.29504 26.7773Z" fill="black"/>
<path d="M17.964 26.7871C17.4367 27.0508 17.3683 27.7539 17.8371 28.125C18.0715 28.3105 18.2472 28.3203 21.2746 28.3203C24.3507 28.3203 24.4777 28.3105 24.6828 28.125C25.132 27.7051 25.0441 27.0605 24.507 26.7871C24.1554 26.6113 18.3156 26.6113 17.964 26.7871Z" fill="black"/>
<path d="M8.98352 32.6641C6.3175 33.2305 4.24719 35.2324 3.55383 37.8887C3.29993 38.8652 3.31946 40.4766 3.5929 41.4531C4.29602 43.8945 6.11243 45.7012 8.54407 46.4043C9.13977 46.5703 9.57922 46.6191 10.3995 46.6289C11.7277 46.6289 12.2745 46.502 13.5538 45.877C14.4034 45.4766 14.6964 45.2715 15.3214 44.6465C16.6007 43.377 17.3429 41.8145 17.4503 40.1445C17.4991 39.3242 17.4991 39.2949 17.2355 39.0312C16.6495 38.4551 15.8195 38.8945 15.8195 39.7734C15.8097 40.9941 15.1945 42.4297 14.257 43.3574C13.173 44.4414 11.9425 44.959 10.4484 44.959C7.39172 44.9785 5.01868 42.6055 5.03821 39.5488C5.03821 38.0547 5.55579 36.8242 6.63977 35.7402C7.9386 34.4414 9.82336 33.9043 11.6202 34.334C12.1866 34.4609 12.4894 34.5977 13.7882 35.2715C14.1105 35.4473 14.1691 35.4473 14.4913 35.3105C14.8624 35.1543 14.9796 34.9004 14.921 34.4121C14.8624 33.8555 13.2902 32.9668 11.8253 32.6543C11.0245 32.4883 9.8136 32.4883 8.98352 32.6641Z" fill="black"/>
<path d="M13.4766 37.1781C13.3984 37.2074 12.6172 37.9203 11.7383 38.7503L10.1465 40.264L9.14062 39.2777C8.31055 38.4574 8.08594 38.2816 7.8418 38.2816C7.42188 38.2816 7.03125 38.6917 7.03125 39.1312C7.03125 39.4242 7.1582 39.5999 8.06641 40.5277C8.63281 41.1136 9.24805 41.6605 9.44336 41.7484C9.83398 41.9339 10.4688 41.9632 10.8789 41.7972C11.2598 41.6605 14.248 38.7113 14.4141 38.3109C14.5996 37.8714 14.4336 37.4222 14.0039 37.2464C13.8281 37.1683 13.6621 37.1097 13.6523 37.1195C13.6328 37.1195 13.5547 37.1488 13.4766 37.1781Z" fill="black"/>
</g>
<defs>
<clipPath id="clip0_892_543">
<rect width="50" height="50" fill="white"/>
</clipPath>
</defs>
</svg>
