<svg width="300" height="300" viewBox="0 0 300 300" fill="none" xmlns="http://www.w3.org/2000/svg">
<path d="M199.803 190.704L189.107 180.008C199.036 170.079 204.614 156.612 204.614 142.57C204.614 128.528 199.036 115.061 189.107 105.132L199.803 94.4287C206.125 100.75 211.139 108.255 214.56 116.514C217.982 124.774 219.742 133.626 219.742 142.566C219.742 151.506 217.982 160.359 214.56 168.618C211.139 176.878 206.125 184.382 199.803 190.704Z" stroke="black" stroke-width="6"/>
<path d="M178.412 169.305L167.716 158.609C171.963 154.35 174.348 148.58 174.348 142.566C174.348 136.551 171.963 130.782 167.716 126.522L178.412 115.827C185.493 122.924 189.469 132.54 189.469 142.566C189.469 152.591 185.493 162.207 178.412 169.305ZM159.229 225.77H144.101V142.566C144.101 140.56 144.898 138.636 146.317 137.217C147.735 135.799 149.659 135.002 151.665 135.002C153.671 135.002 155.595 135.799 157.014 137.217C158.432 138.636 159.229 140.56 159.229 142.566V225.77ZM124.919 169.305C117.838 162.207 113.861 152.591 113.861 142.566C113.861 132.54 117.838 122.924 124.919 115.827L135.614 126.522C131.368 130.782 128.983 136.551 128.983 142.566C128.983 148.58 131.368 154.35 135.614 158.609L124.919 169.305Z" stroke="black" stroke-width="6"/>
<path d="M103.529 190.704C97.2078 184.382 92.1932 176.878 88.7718 168.618C85.3508 160.359 83.5898 151.506 83.5898 142.566C83.5898 133.626 85.3508 124.774 88.7718 116.514C92.1932 108.255 97.2078 100.75 103.529 94.4287L114.225 105.132C104.299 115.061 98.7222 128.526 98.7222 142.566C98.7222 156.606 104.299 170.072 114.225 180.001L103.529 190.704Z" stroke="black" stroke-width="6"/>
<path d="M151.667 263.59C150.327 263.592 149.012 263.237 147.854 262.562L57.0857 209.613C55.9437 208.947 54.9963 207.993 54.338 206.846C53.6797 205.699 53.3337 204.4 53.334 203.078V97.1813C53.3337 95.859 53.6797 94.56 54.338 93.4133C54.9963 92.2663 55.9437 91.3123 57.0857 90.646L147.854 37.6976C149.011 37.0223 150.327 36.6666 151.667 36.6666C153.006 36.6666 154.322 37.0223 155.479 37.6976L246.248 90.646L238.623 103.717L151.667 52.992L68.462 101.523V198.736L151.667 247.275L234.871 198.736V142.566H249.999V203.078C250 204.4 249.654 205.699 248.995 206.846C248.337 207.993 247.39 208.947 246.248 209.613L155.479 262.562C154.322 263.237 153.006 263.592 151.667 263.59Z" stroke="black" stroke-width="6"/>
</svg>
