<svg width="313" height="301" viewBox="0 0 313 301" fill="none" xmlns="http://www.w3.org/2000/svg">
<path d="M141.383 47.5071C142.296 47.7947 143.208 48.0821 144.121 48.3692C146.053 48.9774 147.985 49.5871 149.916 50.1979C152.959 51.1603 156.003 52.1193 159.047 53.0775C159.554 53.2371 160.061 53.3968 160.584 53.5613C161.607 53.8832 162.63 54.2051 163.653 54.527C165.182 55.0083 166.711 55.4899 168.24 55.9715C176.367 58.5308 184.502 61.0634 192.645 63.5757C195.02 64.3088 197.396 65.042 199.771 65.7753C200.65 66.0465 200.65 66.0465 201.547 66.3232C206.314 67.7956 211.079 69.2772 215.843 70.761C216.583 70.9914 217.323 71.2218 218.085 71.4592C221.048 72.3819 224.011 73.3046 226.974 74.229C233.784 76.3538 240.593 78.4775 247.439 80.4942C247.905 80.6322 248.371 80.7701 248.852 80.9122C250.918 81.5228 252.985 82.1271 255.057 82.7176C256.092 83.0211 256.092 83.0211 257.147 83.3308C257.728 83.497 258.309 83.6633 258.908 83.8346C260.769 84.582 262.063 85.4826 263.527 86.8181C264.325 90.9312 262.527 93.8247 261.101 97.9627C266.305 100.285 271.508 102.608 276.87 105.001C276.87 157.651 276.87 210.301 276.87 264.546C278.871 264.546 280.872 264.546 282.934 264.546C284.868 265.792 284.868 265.792 285.967 267.478C286.043 269.311 286.043 269.311 285.36 270.998C282.952 272.807 281.083 272.978 278.08 272.979C277.658 272.981 277.235 272.984 276.8 272.987C275.381 272.993 273.963 272.987 272.544 272.981C271.518 272.983 270.492 272.986 269.465 272.989C266.643 272.997 263.821 272.993 260.998 272.987C257.956 272.983 254.913 272.99 251.87 272.994C245.908 273.002 239.946 273.001 233.985 272.995C229.14 272.991 224.296 272.991 219.452 272.993C218.763 272.993 218.074 272.993 217.364 272.994C215.965 272.994 214.566 272.995 213.167 272.995C200.039 273 186.911 272.995 173.783 272.985C162.512 272.977 151.242 272.979 139.971 272.987C126.891 272.996 113.811 273 100.731 272.994C99.3365 272.994 97.9424 272.993 96.5482 272.993C95.8622 272.993 95.1762 272.992 94.4695 272.992C89.6296 272.99 84.7898 272.993 79.95 272.997C74.0539 273.002 68.1577 273.001 62.2616 272.991C59.2519 272.987 56.2423 272.985 53.2326 272.991C50.4792 272.996 47.7261 272.993 44.9728 272.984C43.9749 272.982 42.9771 272.983 41.9793 272.987C40.626 272.992 39.2733 272.987 37.92 272.979C36.7912 272.978 36.7912 272.978 35.6396 272.978C33.4868 272.737 32.3429 272.277 30.6396 270.998C29.9574 269.311 29.9574 269.311 30.0332 267.478C31.1324 265.792 31.1324 265.792 33.0656 264.546C35.0669 264.546 37.0683 264.546 39.1303 264.546C39.1303 211.896 39.1303 159.246 39.1303 105.001C44.3339 102.872 49.5375 100.743 54.8988 98.5493C53.6979 94.7747 53.6979 94.7747 52.4728 90.924C52.076 87.3049 52.076 87.3049 53.2239 85.8967C54.4807 84.9105 55.5557 84.5159 57.0955 84.0364C57.9522 83.7652 57.9522 83.7652 58.8263 83.4886C59.4472 83.2982 60.068 83.1077 60.7077 82.9115C61.355 82.7082 62.0024 82.5049 62.6694 82.2955C64.7777 81.6348 66.8884 80.9819 68.9994 80.3293C70.4398 79.8803 71.8802 79.4309 73.3204 78.9812C76.173 78.0909 79.0266 77.2034 81.8808 76.3176C85.2724 75.2631 88.6571 74.1897 92.0384 73.105C93.3268 72.6938 94.6153 72.2831 95.9039 71.8726C97.0651 71.5012 98.2247 71.1253 99.3843 70.7494C100.065 70.534 100.747 70.3185 101.448 70.0965C102.026 69.9112 102.603 69.7259 103.198 69.5349C104.63 69.2213 104.63 69.2213 106.449 69.8079C106.18 73.0586 105.616 76.0354 103.417 78.6062C99.0619 81.3483 93.6307 82.3703 88.672 83.6653C87.306 84.0492 85.941 84.4364 84.5771 84.827C81.9502 85.5743 79.3189 86.3019 76.6807 87.0111C72.8018 88.0586 68.9704 89.2265 65.1421 90.4345C63.3895 90.924 63.3895 90.924 61.57 90.924C63.1427 95.8185 64.7288 100.709 66.3318 105.594C67.0758 107.863 67.8154 110.133 68.5444 112.407C69.2493 114.605 69.9663 116.799 70.6915 118.99C70.9648 119.823 71.2339 120.658 71.4985 121.493C73.0394 126.349 74.622 130.235 78.5514 133.743C79.0044 134.185 79.4574 134.627 79.9241 135.083C80.5006 135.599 80.5006 135.599 81.0887 136.126C81.7248 136.698 81.7248 136.698 82.3739 137.283C82.8011 137.663 83.2284 138.043 83.6686 138.435C84.1122 138.834 84.5559 139.232 85.013 139.643C86.0917 140.611 87.1724 141.577 88.255 142.541C89.3674 140.927 89.8868 139.756 90.4902 137.936C90.6861 137.349 90.8818 136.763 91.0836 136.159C91.2947 135.518 91.5058 134.876 91.7233 134.215C92.0598 133.203 92.0598 133.203 92.4031 132.171C93.0174 130.321 93.629 128.47 94.2395 126.62C94.754 125.061 95.2708 123.503 95.7876 121.945C99.1988 111.66 102.569 101.362 105.924 91.0591C109.397 80.3962 112.872 69.7341 116.428 59.0965C116.822 57.9154 117.214 56.7338 117.605 55.5516C118.139 53.9379 118.679 52.3262 119.221 50.7149C119.376 50.2431 119.531 49.7713 119.69 49.2852C121.11 45.1045 121.11 45.1045 122.824 43.4127C128.183 41.685 136.116 45.8352 141.383 47.5071ZM127.676 52.2111C126.243 55.3044 125.1 58.4178 124.047 61.6487C123.872 62.1788 123.697 62.7089 123.517 63.2551C122.93 65.0355 122.347 66.8168 121.763 68.5981C121.343 69.8755 120.922 71.1529 120.501 72.4302C119.569 75.2599 118.638 78.0899 117.707 80.9201C115.263 88.3559 112.807 95.7883 110.352 103.221C109.463 105.913 108.574 108.605 107.686 111.297C107.119 113.015 106.552 114.733 105.985 116.45C105.569 117.713 105.153 118.977 104.736 120.24C103.277 124.664 101.798 129.082 100.296 133.493C99.8295 134.868 99.3633 136.243 98.8971 137.618C98.4545 138.919 98.0071 140.217 97.5595 141.516C97.2906 142.308 97.022 143.101 96.7536 143.893C96.5173 144.583 96.281 145.272 96.0375 145.982C95.567 147.696 95.3469 148.996 95.5328 150.753C98.6751 154.968 103.425 158.033 107.716 161.072C111.141 163.504 114.293 166.093 117.366 168.936C117.941 169.469 118.517 170.001 119.11 170.549C120.954 172.439 122.548 174.401 124.037 176.562C124.502 176.029 124.502 176.029 124.975 175.485C132.095 167.549 141.669 159.429 152.937 158.203C154.591 158.123 156.23 158.104 157.886 158.122C158.47 158.126 159.053 158.131 159.654 158.135C172.829 158.429 181.938 165.976 190.75 174.802C191.55 175.576 192.351 176.35 193.176 177.148C194.377 175.213 195.577 173.277 196.815 171.283C195.414 169.734 194.013 168.186 192.569 166.59C193.407 166.796 194.245 167.001 195.109 167.213C198.122 167.868 198.122 167.868 201.06 167.177C202.405 166.109 203.634 164.991 204.699 163.657C204.699 163.27 204.699 162.883 204.699 162.484C198.154 160.43 191.609 158.377 185.064 156.325C184.578 156.173 184.091 156.02 183.59 155.863C168.674 151.187 153.752 146.535 138.812 141.931C137.228 141.442 135.644 140.95 134.06 140.458C132.359 139.929 130.655 139.41 128.947 138.904C128.286 138.703 127.625 138.502 126.944 138.296C126.399 138.134 125.855 137.973 125.293 137.807C124.037 137.262 124.037 137.262 122.824 135.502C123.052 133.633 123.052 133.633 123.431 131.983C126.531 130.467 128.509 130.987 131.653 131.942C132.254 132.137 132.854 132.331 133.473 132.531C134.442 132.83 134.442 132.83 135.43 133.135C137.587 133.805 139.739 134.488 141.89 135.173C143.405 135.646 144.919 136.118 146.434 136.59C149.719 137.614 153.002 138.646 156.284 139.682C161.475 141.32 166.672 142.937 171.87 144.553C175.788 145.771 179.704 146.992 183.62 148.213C184.583 148.513 185.546 148.814 186.509 149.114C189.273 149.975 192.036 150.839 194.798 151.705C195.641 151.97 196.484 152.233 197.328 152.496C208.845 156.086 208.845 156.086 210.764 158.378C211.014 158.13 211.264 157.881 211.522 157.624C213.75 155.436 216.042 153.369 218.446 151.365C221.393 148.868 224.258 146.282 227.138 143.714C225.635 142.261 224.437 141.979 222.413 141.35C221.676 141.119 220.939 140.888 220.18 140.65C219.371 140.4 218.561 140.151 217.752 139.902C216.923 139.643 216.093 139.385 215.263 139.126C213.521 138.584 211.779 138.043 210.035 137.505C207.812 136.818 205.589 136.127 203.367 135.434C201.652 134.9 199.936 134.367 198.219 133.834C197.401 133.58 196.582 133.326 195.763 133.071C191.691 131.805 187.641 130.569 183.472 129.637C182.909 124.261 184.605 119.562 186.327 114.535C186.622 113.654 186.917 112.772 187.211 111.89C187.826 110.053 188.447 108.218 189.073 106.384C189.874 104.035 190.662 101.682 191.446 99.3274C192.052 97.511 192.664 95.6964 193.277 93.8824C193.57 93.015 193.861 92.1471 194.151 91.2788C194.556 90.0685 194.969 88.8607 195.383 87.6534C195.616 86.9664 195.849 86.2794 196.089 85.5716C196.773 83.9809 197.177 83.0976 198.634 82.1256C203.577 82.1699 208.114 83.8262 212.765 85.315C213.595 85.5763 214.424 85.837 215.254 86.0973C217.423 86.7792 219.59 87.4671 221.756 88.1564C224.394 88.9943 227.033 89.8255 229.672 90.6573C231.724 91.3041 233.776 91.9519 235.826 92.6033C236.561 92.8363 237.296 93.0692 238.053 93.3092C238.7 93.5145 239.346 93.7198 240.011 93.9314C241.376 94.3465 242.728 94.7158 244.12 95.0299C244.436 99.7076 243.311 103.412 241.775 107.824C241.415 108.888 241.415 108.888 241.049 109.973C240.415 111.847 239.774 113.719 239.13 115.59C238.225 118.222 237.332 120.857 236.439 123.492C235.964 124.891 235.486 126.289 235.005 127.685C233.79 131.248 232.753 134.757 231.99 138.435C240.025 134.081 242.931 128.467 245.409 120.289C245.707 119.357 246.008 118.426 246.311 117.496C246.919 115.615 247.517 113.732 248.106 111.846C248.916 109.264 249.771 106.698 250.644 104.135C250.903 103.373 251.162 102.611 251.421 101.849C251.663 101.135 251.906 100.421 252.156 99.6857C252.604 98.3602 253.05 97.0336 253.492 95.7058C253.765 94.8891 253.765 94.8891 254.044 94.056C254.51 92.6377 254.51 92.6377 254.43 90.924C234.286 84.6105 214.142 78.2975 193.97 72.0679C192.762 71.6949 191.555 71.3219 190.347 70.9489C189.75 70.7644 189.152 70.5799 188.537 70.3898C182.987 68.6743 177.44 66.9473 171.894 65.2197C155.175 60.0052 155.175 60.0052 138.434 54.8627C137.616 54.6136 136.798 54.3638 135.981 54.113C134.896 53.7805 133.811 53.4516 132.725 53.123C131.844 52.8552 131.844 52.8552 130.945 52.582C129.452 52.136 129.452 52.136 127.676 52.2111ZM202.879 90.3374C201.443 93.9628 200.144 97.6194 198.892 101.308C198.693 101.895 198.494 102.481 198.288 103.086C197.87 104.318 197.453 105.55 197.036 106.783C196.396 108.671 195.752 110.557 195.108 112.443C194.701 113.644 194.295 114.845 193.889 116.045C193.696 116.609 193.502 117.172 193.303 117.752C193.127 118.277 192.951 118.802 192.769 119.343C192.613 119.803 192.457 120.263 192.296 120.737C191.864 122.172 191.864 122.172 191.963 124.358C202.57 127.648 213.177 130.939 224.106 134.329C225.52 132.962 225.796 132.029 226.403 130.197C226.61 129.581 226.816 128.964 227.028 128.329C227.248 127.66 227.467 126.992 227.693 126.303C227.92 125.619 228.147 124.935 228.381 124.23C228.861 122.781 229.339 121.332 229.816 119.882C230.547 117.659 231.285 115.438 232.023 113.217C232.488 111.811 232.953 110.405 233.416 109C233.638 108.332 233.86 107.665 234.088 106.978C234.291 106.359 234.493 105.741 234.702 105.104C234.971 104.286 234.971 104.286 235.246 103.453C235.708 102.024 235.708 102.024 235.629 100.309C235.126 100.153 234.624 99.9966 234.105 99.8356C231.745 99.102 229.385 98.3676 227.025 97.6328C226.6 97.5005 226.175 97.3682 225.737 97.232C219.735 95.3633 213.742 93.47 207.775 91.5001C205.381 90.65 205.381 90.65 202.879 90.3374ZM258.069 105.588C257.443 107.407 256.825 109.228 256.212 111.05C255.944 111.826 255.944 111.826 255.67 112.616C255.421 113.362 255.421 113.362 255.167 114.123C255.011 114.581 254.856 115.038 254.695 115.51C254.296 116.838 254.296 116.838 255.036 118.492C255.33 118.201 255.624 117.91 255.927 117.61C258.455 115.133 261.036 112.783 263.79 110.542C264.81 109.732 264.81 109.732 265.347 108.521C262.945 107.553 260.543 106.585 258.069 105.588ZM53.9132 107.348C53.1698 107.674 53.1698 107.674 52.4113 108.008C52.0313 108.177 51.6514 108.346 51.2599 108.521C52.0762 110.303 52.9606 111.456 54.4486 112.764C54.8278 113.101 55.207 113.437 55.5976 113.784C55.9924 114.128 56.3872 114.472 56.794 114.826C57.1935 115.179 57.593 115.532 58.0046 115.896C58.9881 116.765 59.9744 117.63 60.9635 118.492C61.6047 116.616 61.5408 115.579 60.8332 113.736C60.584 113.072 60.584 113.072 60.3298 112.395C60.1512 111.939 59.9725 111.483 59.7885 111.014C59.6122 110.549 59.4359 110.084 59.2543 109.605C58.8191 108.459 58.3759 107.317 57.9312 106.175C56.3511 106.175 55.3473 106.714 53.9132 107.348ZM47.621 117.319C47.621 163.775 47.621 210.23 47.621 258.093C50.0725 255.722 52.4609 253.323 54.823 250.871C55.3915 250.282 55.3915 250.282 55.9715 249.68C58.1278 247.438 60.2508 245.176 62.3163 242.854C63.7587 241.262 65.2423 239.707 66.7251 238.15C68.5681 236.215 70.4013 234.273 72.1834 232.285C73.9655 230.296 75.7987 228.355 77.6417 226.419C79.8518 224.097 82.0321 221.755 84.1708 219.371C86.3113 217.003 88.5015 214.677 90.681 212.342C91.5908 211.364 92.5006 210.387 93.4101 209.409C97.049 205.499 100.688 201.588 104.327 197.678C104.775 197.195 105.224 196.713 105.687 196.216C106.611 195.222 107.537 194.23 108.463 193.237C111.256 190.243 114.025 187.231 116.76 184.187C114.281 175.369 107.128 170.173 100.427 164.193C98.4721 162.446 96.5294 160.686 94.5852 158.928C93.8327 158.249 93.0801 157.57 92.3274 156.891C90.0597 154.846 87.7928 152.799 85.5259 150.753C84.7678 150.069 84.0097 149.384 83.2516 148.7C78.703 144.594 78.703 144.594 77.5656 143.567C76.8085 142.884 76.0514 142.201 75.2942 141.517C73.3833 139.793 71.4728 138.067 69.5632 136.341C65.0028 132.219 60.4351 128.106 55.8393 124.021C55.1991 123.452 54.5595 122.882 53.9203 122.312C52.9844 121.477 52.0466 120.644 51.1083 119.812C50.5673 119.331 50.0263 118.85 49.4689 118.355C48.4242 117.255 48.4242 117.255 47.621 117.319ZM264.399 120.289C264.05 120.602 263.701 120.916 263.341 121.24C262.188 122.277 261.038 123.317 259.888 124.358C259.5 124.709 259.112 125.06 258.712 125.422C256.685 127.257 254.66 129.094 252.637 130.931C249.17 134.079 245.692 137.215 242.215 140.351C240.322 142.058 238.431 143.766 236.539 145.474C235.781 146.158 235.023 146.843 234.265 147.527C233.889 147.866 233.514 148.204 233.127 148.553C231.99 149.58 230.853 150.606 229.716 151.633C229.341 151.972 228.965 152.311 228.579 152.66C227.821 153.343 227.064 154.026 226.307 154.71C224.396 156.435 222.486 158.16 220.576 159.886C220.194 160.231 219.812 160.576 219.419 160.932C218.657 161.62 217.895 162.31 217.133 162.999C215.306 164.65 213.472 166.293 211.621 167.919C205.897 172.95 201.49 176.834 199.24 184.187C199.475 184.429 199.71 184.671 199.953 184.92C207.821 193.029 207.821 193.029 210.903 196.493C212.346 198.085 213.829 199.64 215.312 201.197C217.496 203.49 219.645 205.807 221.756 208.163C223.224 209.772 224.726 211.35 226.229 212.928C228.439 215.25 230.619 217.592 232.758 219.976C234.898 222.345 237.089 224.671 239.268 227.006C240.178 227.983 241.088 228.961 241.997 229.939C242.447 230.422 242.898 230.906 243.362 231.405C248.365 236.782 253.369 242.159 258.372 247.535C258.818 248.014 259.263 248.493 259.722 248.986C260.681 250.016 261.638 251.047 262.594 252.079C263.077 252.6 263.56 253.121 264.058 253.658C264.494 254.129 264.93 254.6 265.38 255.085C266.351 256.113 267.361 257.108 268.379 258.093C268.379 211.638 268.379 165.182 268.379 117.319C266.972 117.319 265.424 119.361 264.399 120.289ZM139.806 171.283C139.18 171.742 138.555 172.202 137.91 172.676C136.18 174.204 134.683 175.796 133.165 177.517C131.673 179.185 130.132 180.807 128.586 182.427C126.743 184.363 124.91 186.304 123.128 188.293C121.061 190.599 118.925 192.84 116.788 195.084C115.24 196.713 113.709 198.352 112.211 200.024C110.145 202.33 108.008 204.571 105.871 206.815C104.323 208.444 102.792 210.083 101.294 211.755C99.2282 214.061 97.0914 216.302 94.9547 218.546C93.4067 220.175 91.8758 221.815 90.3777 223.486C88.3116 225.792 86.1748 228.033 84.0381 230.278C82.4901 231.906 80.9592 233.546 79.4611 235.218C77.679 237.206 75.8458 239.147 74.0028 241.083C71.7927 243.405 69.6124 245.747 67.4737 248.131C66.2514 249.484 65.0115 250.82 63.7685 252.154C63.0825 252.892 63.0825 252.892 62.3826 253.644C61.4217 254.671 60.4566 255.694 59.4876 256.714C58.7735 257.469 58.7735 257.469 58.0449 258.24C57.6157 258.691 57.1865 259.141 56.7443 259.606C55.3931 261.155 54.2417 262.859 53.0793 264.546C122.327 264.546 191.575 264.546 262.921 264.546C260.186 260.945 260.186 260.945 257.218 257.635C256.869 257.277 256.519 256.919 256.159 256.551C255.801 256.189 255.443 255.827 255.074 255.454C254.32 254.682 253.567 253.91 252.814 253.137C252.461 252.775 252.107 252.412 251.743 252.039C250.3 250.547 248.913 249.012 247.534 247.464C245.423 245.109 243.247 242.81 241.087 240.497C240.178 239.519 239.268 238.542 238.358 237.564C237.908 237.08 237.458 236.596 236.994 236.097C189.234 184.773 189.234 184.773 187.879 183.316C186.939 182.307 185.997 181.299 185.055 180.292C184.582 179.787 184.11 179.282 183.624 178.761C183.169 178.277 182.715 177.792 182.247 177.293C181.301 176.254 180.429 175.208 179.568 174.105C174.681 168.918 167.935 165.749 160.71 165.277C152.752 165.133 146.22 166.443 139.806 171.283Z" fill="black"/>
<path d="M122.415 279.072C123.064 279.069 123.713 279.067 124.381 279.064C125.454 279.065 125.454 279.065 126.548 279.065C127.299 279.063 128.049 279.061 128.822 279.059C130.885 279.055 132.947 279.053 135.009 279.053C136.729 279.052 138.449 279.05 140.169 279.048C144.226 279.043 148.283 279.042 152.34 279.042C156.529 279.043 160.717 279.037 164.906 279.028C168.499 279.02 172.093 279.017 175.686 279.018C177.833 279.018 179.981 279.016 182.128 279.01C184.522 279.004 186.916 279.006 189.31 279.01C190.024 279.006 190.738 279.003 191.473 279C192.124 279.002 192.774 279.005 193.445 279.007C194.011 279.007 194.577 279.007 195.161 279.006C196.586 279.148 196.586 279.148 198.397 280.284C198.925 281.598 198.925 281.598 199 283.125C197.676 285.736 197.676 285.736 195.983 286.533C195.015 286.585 194.045 286.6 193.076 286.598C192.472 286.598 191.868 286.598 191.246 286.598C190.593 286.595 189.939 286.592 189.265 286.589C188.597 286.588 187.929 286.587 187.241 286.586C185.101 286.583 182.962 286.576 180.822 286.569C179.374 286.566 177.926 286.563 176.478 286.561C172.923 286.555 169.368 286.545 165.812 286.533C165.812 287.471 165.812 288.408 165.812 289.374C166.33 289.365 166.847 289.356 167.38 289.347C169.306 289.318 171.231 289.296 173.156 289.28C173.988 289.272 174.821 289.26 175.653 289.245C176.851 289.225 178.049 289.216 179.248 289.207C179.968 289.199 180.689 289.19 181.431 289.18C183.478 289.391 184.319 289.677 185.725 291.078C186.163 294.378 186.163 294.378 185.102 296.018C183.243 297.179 181.298 296.996 179.14 296.98C178.412 296.985 178.412 296.985 177.668 296.989C176.061 296.997 174.453 296.992 172.846 296.986C171.73 296.987 170.614 296.989 169.498 296.991C167.159 296.993 164.819 296.99 162.48 296.982C159.479 296.972 156.478 296.978 153.476 296.988C151.172 296.994 148.867 296.992 146.563 296.988C145.456 296.986 144.349 296.988 143.243 296.992C141.697 296.996 140.152 296.99 138.606 296.98C137.917 296.985 137.917 296.985 137.215 296.991C134.145 296.956 134.145 296.956 132.644 296.018C131.569 294.356 131.772 292.959 132.021 291.078C133.379 289.758 134.202 289.4 136.149 289.18C136.794 289.189 137.438 289.198 138.102 289.207C138.803 289.213 139.503 289.218 140.224 289.224C140.952 289.238 141.68 289.253 142.43 289.267C143.536 289.279 143.536 289.279 144.665 289.291C146.485 289.311 148.304 289.339 150.124 289.374C150.124 288.437 150.124 287.499 150.124 286.533C149.565 286.539 149.565 286.539 148.994 286.545C145.118 286.582 141.242 286.608 137.366 286.627C135.919 286.635 134.472 286.647 133.025 286.662C130.946 286.683 128.868 286.692 126.788 286.7C126.141 286.709 125.494 286.717 124.826 286.726C124.223 286.727 123.619 286.727 122.997 286.727C122.466 286.731 121.935 286.734 121.389 286.738C119.646 286.49 118.827 285.941 117.539 284.829C116.778 283.293 116.9 282.667 117.426 281.03C118.626 278.829 119.977 279.076 122.415 279.072Z" fill="#0192FF"/>
<path d="M127.119 218.144C127.684 218.139 128.249 218.134 128.831 218.129C129.759 218.13 129.759 218.13 130.706 218.131C131.359 218.127 132.011 218.123 132.684 218.119C134.847 218.108 137.009 218.106 139.172 218.105C140.672 218.101 142.172 218.097 143.672 218.093C146.819 218.086 149.965 218.084 153.112 218.085C156.748 218.086 160.384 218.074 164.021 218.056C167.52 218.039 171.018 218.035 174.517 218.036C176.006 218.034 177.494 218.029 178.983 218.02C181.062 218.009 183.142 218.013 185.221 218.019C185.839 218.013 186.456 218.007 187.093 218C191.233 218.035 191.233 218.035 193.248 219.324C194.044 220.575 194.044 220.575 193.969 222.641C193.443 224.564 193.443 224.564 192.242 225.704C191.03 225.85 191.03 225.85 189.51 225.856C188.935 225.861 188.359 225.866 187.767 225.871C187.133 225.87 186.5 225.87 185.848 225.869C184.85 225.875 184.85 225.875 183.832 225.881C181.624 225.892 179.416 225.894 177.208 225.895C175.679 225.899 174.15 225.903 172.62 225.907C169.411 225.914 166.202 225.916 162.993 225.915C159.282 225.914 155.571 225.926 151.86 225.944C148.292 225.961 144.724 225.965 141.157 225.964C139.637 225.966 138.118 225.971 136.599 225.98C134.477 225.991 132.356 225.987 130.235 225.981C129.603 225.987 128.971 225.993 128.32 226C127.455 225.993 127.455 225.993 126.572 225.986C126.07 225.986 125.568 225.987 125.051 225.987C123.763 225.704 123.763 225.704 122.682 224.676C121.592 222.784 122.006 221.47 122.562 219.436C124.469 218.23 124.936 218.152 127.119 218.144Z" fill="#0192FF"/>
<path d="M129.254 89.4708C130.763 89.8542 132.262 90.2752 133.75 90.7284C134.17 90.8553 134.59 90.9822 135.023 91.1129C136.397 91.5289 137.768 91.9508 139.14 92.3733C140.101 92.6672 141.063 92.9608 142.025 93.2543C144.033 93.8683 146.04 94.4854 148.047 95.1047C150.613 95.8964 153.183 96.6785 155.754 97.458C157.738 98.0611 159.72 98.6701 161.701 99.2807C162.648 99.5715 163.595 99.8603 164.543 100.147C165.869 100.549 167.191 100.958 168.513 101.37C169.265 101.601 170.017 101.832 170.792 102.07C172.831 102.876 174.219 103.705 175.797 105.181C176.116 107.065 176.178 108.113 175.079 109.727C173.67 110.616 172.639 110.811 170.961 111C169.24 110.648 169.24 110.648 167.331 110.044C166.613 109.82 165.894 109.597 165.153 109.366C164.371 109.115 163.59 108.864 162.808 108.613C161.996 108.358 161.183 108.103 160.37 107.849C158.226 107.177 156.085 106.497 153.945 105.815C151.381 104.999 148.813 104.194 146.246 103.386C144.191 102.74 142.137 102.092 140.085 101.438C136.799 100.394 133.515 99.3549 130.195 98.4176C129.737 98.2876 129.279 98.1575 128.808 98.0235C127.685 97.7096 126.559 97.4065 125.433 97.1047C123.601 96.3679 122.921 95.8073 122 94.1258C122.076 92.0165 122.076 92.0165 122.604 90.0527C124.973 88.5328 126.603 88.9622 129.254 89.4708Z" fill="black"/>
<path d="M150.144 65.0015C151.09 65.2973 152.035 65.5931 152.981 65.8887C154.952 66.5055 156.921 67.1248 158.89 67.7457C161.413 68.541 163.939 69.3283 166.465 70.1135C168.414 70.7205 170.361 71.3324 172.308 71.9457C173.239 72.2382 174.17 72.529 175.102 72.8181C176.401 73.2215 177.698 73.6317 178.994 74.0437C179.731 74.2753 180.469 74.5069 181.229 74.7455C182.899 75.4078 183.79 75.8102 184.836 77.2142C185.157 79.3079 185.081 80.3373 183.932 82.1495C181.753 83.4724 180.013 82.9814 177.608 82.4785C174.632 81.6662 171.7 80.7342 168.764 79.7961C167.906 79.5254 167.048 79.255 166.19 78.985C163.94 78.2759 161.692 77.5617 159.444 76.8465C157.169 76.1235 154.892 75.4056 152.615 74.6871C144.455 72.1099 144.455 72.1099 140.421 70.8178C139.205 70.4322 137.986 70.0548 136.763 69.6907C136.281 69.5453 135.799 69.3998 135.302 69.2499C134.9 69.133 134.499 69.0161 134.085 68.8957C132.812 68.3428 132.102 67.7385 131.229 66.6854C130.842 63.6723 130.842 63.6723 132.058 62.1156C136.566 58.9165 145.245 63.4588 150.144 65.0015Z" fill="black"/>
<path d="M134.355 75.5978C135.038 75.8116 135.721 76.0254 136.424 76.2457C136.996 76.4219 136.996 76.4219 137.579 76.6017C138.827 76.988 140.073 77.3828 141.318 77.7776C142.194 78.0505 143.071 78.3228 143.947 78.5946C146.249 79.31 148.549 80.0324 150.848 80.7566C153.627 81.6304 156.409 82.496 159.191 83.3627C161.358 84.0383 163.525 84.7151 165.691 85.3958C169.559 86.6094 173.422 87.8001 177.352 88.821C179.296 89.5054 180.106 90.4281 181 92.175C180.962 94.0473 180.962 94.0473 180.384 95.6992C178.031 97.1956 177.039 97.0931 174.227 96.874C172.04 96.3662 169.923 95.692 167.791 95.004C167.172 94.8095 166.552 94.615 165.914 94.4146C163.911 93.7841 161.912 93.145 159.912 92.5054C158.543 92.072 157.173 91.639 155.804 91.2065C153.112 90.3554 150.421 89.5009 147.731 88.6436C144.629 87.6558 141.522 86.6818 138.413 85.7163C137.628 85.4716 136.844 85.2269 136.06 84.9819C134.681 84.5514 133.302 84.1227 131.922 83.6962C131.33 83.5095 130.739 83.3228 130.129 83.1305C129.631 82.975 129.133 82.8195 128.62 82.6593C127.433 82.1898 127.433 82.1898 126.202 81.015C125.866 77.4881 125.866 77.4881 126.856 75.7654C129.204 74.537 131.838 75.0223 134.355 75.5978Z" fill="#0192FF"/>
<path d="M120.526 102C125.069 102.108 129.368 103.791 133.637 105.171C134.587 105.472 135.537 105.772 136.488 106.072C138.977 106.859 141.463 107.655 143.948 108.453C145.976 109.103 148.007 109.746 150.038 110.389C154.239 111.718 158.438 113.053 162.634 114.398C163.375 114.636 164.117 114.873 164.881 115.118C169.701 116.726 169.701 116.726 170.708 118.013C171.196 119.666 171.04 120.612 170.481 122.237C169.682 123.208 169.682 123.208 168.662 124C163.494 123.984 158.662 122.139 153.802 120.589C152.896 120.303 151.99 120.019 151.083 119.734C149.191 119.14 147.301 118.542 145.411 117.941C142.998 117.174 140.584 116.413 138.168 115.655C136.299 115.068 134.431 114.478 132.563 113.888C131.673 113.607 130.783 113.326 129.892 113.046C128.646 112.653 127.4 112.257 126.155 111.861C125.448 111.637 124.742 111.413 124.014 111.182C118.223 109.197 118.223 109.197 117.124 108.133C116.959 104.761 116.959 104.761 117.124 103.431C118.337 102.256 118.337 102.256 120.526 102Z" fill="#0192FF"/>
<path d="M145.22 204.017C146.167 204.008 146.167 204.008 147.133 204C147.814 204.004 148.495 204.007 149.196 204.011C149.896 204.009 150.596 204.007 151.317 204.006C152.797 204.004 154.277 204.008 155.757 204.015C158.026 204.024 160.295 204.015 162.564 204.004C164 204.005 165.437 204.007 166.873 204.011C167.895 204.005 167.895 204.005 168.937 204C169.568 204.005 170.2 204.011 170.85 204.017C171.684 204.019 171.684 204.019 172.535 204.021C173.952 204.241 173.952 204.241 175.047 204.996C176.3 206.652 176.047 208.069 175.788 210.024C174.025 211.668 172.727 211.977 170.29 211.983C169.686 211.989 169.081 211.994 168.458 212C167.809 211.996 167.16 211.993 166.491 211.989C165.485 211.992 165.485 211.992 164.46 211.994C163.044 211.996 161.628 211.992 160.212 211.985C158.043 211.976 155.875 211.985 153.707 211.996C152.331 211.995 150.955 211.993 149.579 211.989C148.605 211.995 148.605 211.995 147.612 212C147.007 211.995 146.402 211.989 145.779 211.983C145.248 211.982 144.717 211.981 144.17 211.979C142.397 211.708 141.555 211.212 140.282 210.024C139.826 206.579 139.826 206.579 141.023 204.996C142.485 203.988 143.417 204.021 145.22 204.017Z" fill="black"/>
<path d="M194.064 43.9876C194.878 45.0338 194.878 45.0338 195.375 46.3145C195.564 46.7921 195.754 47.2697 195.949 47.7618C196.141 48.2998 196.334 48.8378 196.532 49.392C196.763 50.0105 196.993 50.629 197.231 51.2663C199 56.1846 199 56.1846 199 59C197.143 58.6225 195.295 58.2156 193.447 57.799C192.747 57.6504 192.047 57.5018 191.326 57.3486C189.745 56.598 189.745 56.598 188.896 54.7215C188.769 54.1517 188.642 53.582 188.511 52.995C188.15 53.1235 187.788 53.252 187.416 53.3844C181.398 55.0203 176.154 52.924 170.617 50.593C170.413 50.1967 170.21 49.8004 170 49.392C172.827 48.4154 175.659 47.4532 178.496 46.5039C179.46 46.1792 180.422 45.8507 181.383 45.5181C182.767 45.0398 184.156 44.5758 185.546 44.1142C185.972 43.9636 186.399 43.8129 186.838 43.6576C189.669 42.7378 191.365 42.7254 194.064 43.9876Z" fill="black"/>
<path d="M126.703 144.768C127.618 145.045 128.532 145.329 129.443 145.618C129.929 145.768 130.414 145.918 130.914 146.072C131.933 146.388 132.951 146.706 133.967 147.028C135.529 147.521 137.094 148.002 138.66 148.483C139.651 148.791 140.642 149.101 141.632 149.411C142.102 149.555 142.571 149.699 143.055 149.848C146.331 150.893 146.331 150.893 147 152.17C145.775 152.624 144.55 153.077 143.325 153.529C142.301 153.908 142.301 153.908 141.257 154.294C140.578 154.537 139.899 154.781 139.199 155.032C138.642 155.256 138.085 155.48 137.511 155.711C135.162 156.283 134.022 155.95 131.745 155.202C131.031 154.971 130.317 154.74 129.582 154.502C128.844 154.252 128.107 154.001 127.348 153.744C126.601 153.502 125.855 153.261 125.086 153.013C119.582 151.202 119.582 151.202 118.197 149.88C117.869 146.443 117.869 146.443 118.834 144.764C121.299 143.475 124.109 144.055 126.703 144.768Z" fill="black"/>
<path d="M208.346 279.007C208.757 279.005 209.169 279.003 209.594 279.002C210.463 279.001 211.333 279.004 212.202 279.011C213.533 279.02 214.862 279.011 216.193 279C217.038 279.001 217.884 279.003 218.729 279.007C219.498 279.009 220.268 279.011 221.06 279.013C222.97 279.237 222.97 279.237 224.132 279.993C225.271 281.675 225.049 283.097 224.796 285.026C223.393 286.425 222.531 286.742 220.504 286.987C219.437 286.99 219.437 286.99 218.349 286.993C217.572 286.995 216.794 286.998 215.993 287C215.388 286.995 215.388 286.995 214.772 286.989C213.541 286.98 212.312 286.989 211.082 287C210.304 286.998 209.527 286.996 208.726 286.993C208.015 286.991 207.304 286.989 206.571 286.987C204.544 286.742 203.681 286.425 202.279 285.026C201.833 281.632 201.833 281.632 202.943 279.993C204.711 278.843 206.224 279.012 208.346 279.007Z" fill="#0192FF"/>
<path d="M97.3456 279.007C97.7574 279.005 98.1692 279.003 98.5936 279.002C99.4632 279.001 100.333 279.004 101.202 279.011C102.533 279.02 103.862 279.011 105.193 279C106.038 279.001 106.884 279.003 107.729 279.007C108.498 279.009 109.268 279.011 110.06 279.013C111.97 279.237 111.97 279.237 113.132 279.993C114.271 281.675 114.049 283.097 113.796 285.026C112.393 286.425 111.531 286.742 109.504 286.987C108.437 286.99 108.437 286.99 107.349 286.993C106.572 286.995 105.794 286.998 104.993 287C104.388 286.995 104.388 286.995 103.772 286.989C102.541 286.98 101.312 286.989 100.082 287C99.3043 286.998 98.5269 286.996 97.7259 286.993C97.0148 286.991 96.3037 286.989 95.571 286.987C93.5442 286.742 92.6815 286.425 91.2789 285.026C90.8329 281.632 90.8329 281.632 91.9433 279.993C93.711 278.843 95.224 279.012 97.3456 279.007Z" fill="#0192FF"/>
<path d="M295.484 264.025C296.087 264.017 296.691 264.009 297.313 264C298.99 264.134 299.932 264.378 301.324 265.308C302.136 266.95 302.051 268.185 301.904 270C301.315 270.978 301.315 270.978 300.163 271.759C298.561 271.934 297.119 272.005 295.52 271.979C294.889 271.99 294.889 271.99 294.246 272C291.204 271.983 291.204 271.983 289.727 270.976C288.804 269.454 288.956 268.222 289.135 266.481C290.877 263.841 292.53 264.044 295.484 264.025Z" fill="black"/>
<path d="M20.9823 264.025C21.6326 264.017 22.2828 264.009 22.9527 264C24.7587 264.134 25.7727 264.378 27.272 265.308C28.1467 266.95 28.055 268.185 27.8971 270C27.2623 270.978 27.2623 270.978 26.0219 271.759C24.296 271.934 22.7431 272.005 21.0214 271.979C20.3421 271.99 20.3421 271.99 19.6492 272C16.3741 271.983 16.3741 271.983 14.7829 270.976C13.7888 269.454 13.9524 268.222 14.1457 266.481C16.0213 263.841 17.8017 264.044 20.9823 264.025Z" fill="black"/>
<path d="M238.411 21.2233C240.394 22.6802 241.213 23.6961 242 26.0451C242 28.3594 241.422 29.6094 240.206 31.5503C237.999 33.0441 236.187 33.2519 233.626 32.7652C231.472 31.2289 230.776 30.1909 230 27.6397C230.046 24.9704 230.767 23.8577 232.43 21.8308C234.36 20.8508 236.325 20.866 238.411 21.2233ZM235.421 24.2606C234.424 24.9681 234.424 24.9681 233.626 26.0831C233.764 27.6957 233.764 27.6957 234.224 29.1204C235.67 29.2218 235.67 29.2218 237.215 29.1204C237.61 28.7195 238.004 28.3186 238.411 27.9055C238.403 26.6558 238.403 26.6558 237.813 25.4756C236.627 24.6954 236.627 24.6954 235.421 24.2606Z" fill="#00D1FF"/>
<path d="M9.05556 47C9.86222 47.8067 10.6689 48.6133 11.5 49.4444C11.9033 48.6378 12.3067 47.8311 12.7222 47C13.5289 47.2017 14.3356 47.4033 15.1667 47.6111C14.7633 48.6194 14.36 49.6278 13.9444 50.6667C14.9528 50.8683 15.9611 51.07 17 51.2778C17 52.0844 17 52.8911 17 53.7222C15.9917 53.9239 14.9833 54.1256 13.9444 54.3333C14.3478 55.14 14.7511 55.9467 15.1667 56.7778C13.9567 57.3828 13.9567 57.3828 12.7222 58C12.3189 57.1933 11.9156 56.3867 11.5 55.5556C10.6933 56.3622 9.88667 57.1689 9.05556 58C8.45056 57.395 7.84556 56.79 7.22222 56.1667C7.62556 55.5617 8.02889 54.9567 8.44444 54.3333C7.63778 54.1317 6.83111 53.93 6 53.7222C6 52.9156 6 52.1089 6 51.2778C6.80667 51.0761 7.61333 50.8744 8.44444 50.6667C8.04111 49.86 7.63778 49.0533 7.22222 48.2222C7.82722 47.8189 8.43222 47.4156 9.05556 47Z" fill="#0192FF"/>
<path d="M291.056 126C291.459 126 291.862 126 292.278 126C292.681 126.776 293.084 127.553 293.5 128.353C294.307 127.576 295.113 126.8 295.944 126C296.348 126.194 296.751 126.388 297.167 126.588C296.857 127.864 296.556 128.941 295.944 130.118C296.953 130.118 297.961 130.118 299 130.118C299 130.894 299 131.671 299 132.471C297.992 132.471 296.983 132.471 295.944 132.471C296.348 133.441 296.751 134.412 297.167 135.412C296.36 135.606 295.553 135.8 294.722 136C294.521 135.224 294.319 134.447 294.111 133.647C293.708 133.647 293.304 133.647 292.889 133.647C292.687 134.424 292.486 135.2 292.278 136C291.471 135.806 290.664 135.612 289.833 135.412C290.237 134.441 290.64 133.471 291.056 132.471C290.047 132.471 289.039 132.471 288 132.471C288 131.694 288 130.918 288 130.118C289.008 129.924 290.017 129.729 291.056 129.529C290.652 128.753 290.249 127.976 289.833 127.176C290.237 126.788 290.64 126.4 291.056 126Z" fill="#0192FF"/>
<path d="M311.625 264.523C312.839 265.73 312.839 265.73 313 266.861C312.997 267.284 312.994 267.707 312.991 268.143C312.994 268.566 312.997 268.989 313 269.425C312.839 270.556 312.839 270.556 311.625 271.762C307.292 272.172 307.292 272.172 305.516 270.782C304.738 268.823 304.913 267.725 305.554 265.73C307.452 263.565 308.954 263.773 311.625 264.523Z" fill="black"/>
<path d="M9.20819 264.554C10.3654 265.578 10.3654 265.578 11 266.982C10.8684 269.212 10.7792 270.242 9.20819 271.839C8.08831 272 8.08831 272 6.81911 271.991C6.40027 271.994 5.98143 271.997 5.54991 272C4.43002 271.839 4.43002 271.839 3.23548 270.625C2.82949 266.292 2.82949 266.292 4.20605 264.516C6.14585 263.738 7.233 263.913 9.20819 264.554Z" fill="black"/>
<path d="M161.8 3C162.394 3 162.988 3 163.6 3C163.798 3.594 163.996 4.188 164.2 4.8C164.596 4.206 164.992 3.612 165.4 3C166.192 3.396 166.984 3.792 167.8 4.2C167.206 5.091 167.206 5.091 166.6 6C167.392 6.198 168.184 6.396 169 6.6C169 7.194 169 7.788 169 8.4C168.208 8.598 167.416 8.796 166.6 9C166.996 9.792 167.392 10.584 167.8 11.4C167.008 11.598 166.216 11.796 165.4 12C165.004 11.406 164.608 10.812 164.2 10.2C163.606 10.794 163.012 11.388 162.4 12C162.004 11.802 161.608 11.604 161.2 11.4C161.398 10.608 161.596 9.816 161.8 9C161.206 8.802 160.612 8.604 160 8.4C160 7.806 160 7.212 160 6.6C160.792 6.6 161.584 6.6 162.4 6.6C162.004 5.61 161.608 4.62 161.2 3.6C161.398 3.402 161.596 3.204 161.8 3Z" fill="#0192FF"/>
<path d="M299.686 32.0115C301.687 32.5785 301.687 32.5785 302.873 34.3927C303.064 36.2598 303.162 37.5011 302.243 39.1549C300.438 40.2239 298.981 40.0579 296.943 39.8352C295.794 39.1549 295.794 39.1549 295.164 38.021C294.844 35.8344 294.913 34.7911 296.09 32.9186C297.536 31.9738 297.536 31.9738 299.686 32.0115ZM298.722 34.3927C298.331 35.1909 297.939 35.9891 297.536 36.8116C298.319 37.0111 299.101 37.2107 299.908 37.4163C300.104 36.6181 300.299 35.8198 300.501 34.9974C299.914 34.7978 299.327 34.5983 298.722 34.3927Z" fill="#00D1FF"/>
<path d="M20.7628 109.005C22.7954 109.57 22.7954 109.57 24 111.378C23.7273 115.267 23.7273 115.267 22.1932 116.802C18.548 117.134 18.548 117.134 16.8103 116.124C15.8513 114.431 15.8975 113.29 16.1704 111.378C17.5642 109.202 18.1554 108.96 20.7628 109.005ZM18.5795 111.981C18.7783 112.776 18.977 113.572 19.1818 114.391C19.9768 114.193 20.7718 113.994 21.5909 113.789C21.1934 112.993 20.7959 112.198 20.3863 111.378C19.6494 111.333 19.6494 111.333 18.5795 111.981Z" fill="#00D1FF"/>
<path d="M65.8675 25.58C67.0829 27.3856 67.0829 27.3856 66.931 29.5299C66.4752 31.5989 66.4752 31.5989 65.2598 32.8026C61.6108 33.1312 61.6108 33.1312 59.8284 32.1631C58.7979 30.3018 58.9211 28.8572 59.1828 26.7838C61.0728 24.3876 63.095 24.8681 65.8675 25.58ZM62.2213 27.3856C62.0207 28.1801 61.8202 28.9746 61.6136 29.7932C62.4157 29.9918 63.2179 30.1904 64.0444 30.3951C64.2449 29.6006 64.4455 28.8061 64.6521 27.9875C63.8499 27.7889 63.0478 27.5903 62.2213 27.3856Z" fill="#00D1FF"/>
<path d="M273.257 64C275.028 64.2921 275.028 64.2921 276.158 64.9128C277.223 66.6913 277.058 68.1262 276.836 70.134C276.158 71.2659 276.158 71.2659 275.028 71.8866C272.57 72.1348 271.694 72.0694 269.603 70.7182C269.038 69.0752 269.038 69.0752 269 67.2131C270.185 65.0991 270.779 64.3921 273.257 64ZM272.617 66.6289C272.02 67.4964 272.02 67.4964 271.411 68.3815C271.61 68.767 271.809 69.1526 272.014 69.5498C272.809 69.3571 273.605 69.1643 274.425 68.9657C274.226 68.1945 274.027 67.4234 273.822 66.6289C273.424 66.6289 273.026 66.6289 272.617 66.6289Z" fill="#00D1FF"/>
<path d="M97.2727 58C98.7427 58 100.213 58 101.727 58C101.727 58.594 101.727 59.188 101.727 59.8C102.147 59.998 102.567 60.196 103 60.4C102.576 61.6 102.152 62.8 101.727 64C100.257 64 98.7873 64 97.2727 64C96.8485 62.8 96.4242 61.6 96 60.4C96.42 60.202 96.84 60.004 97.2727 59.8C97.2727 59.206 97.2727 58.612 97.2727 58Z" fill="#0192FF"/>
</svg>
