<svg width="512" height="512" viewBox="0 0 512 512" fill="none" xmlns="http://www.w3.org/2000/svg">
<g clip-path="url(#clip0_1256_50)">
<path d="M469.333 0H42.6667C31.3549 0.0135497 20.5104 4.51313 12.5117 12.5117C4.51313 20.5104 0.0135497 31.3549 0 42.6667L0 418.133C0.0135497 429.445 4.51313 440.29 12.5117 448.288C20.5104 456.287 31.3549 460.786 42.6667 460.8H43.3493C45.4097 475 52.5085 487.986 63.3497 497.386C74.1909 506.785 88.0512 511.973 102.4 512H409.6C423.949 511.973 437.809 506.785 448.65 497.386C459.492 487.986 466.59 475 468.651 460.8H469.333C480.645 460.786 491.49 456.287 499.488 448.288C507.487 440.29 511.986 429.445 512 418.133V42.6667C511.986 31.3549 507.487 20.5104 499.488 12.5117C491.49 4.51313 480.645 0.0135497 469.333 0ZM42.6667 17.0667H469.333C476.123 17.0667 482.634 19.7638 487.435 24.5647C492.236 29.3657 494.933 35.8771 494.933 42.6667V68.2667H17.0667V42.6667C17.0667 35.8771 19.7638 29.3657 24.5647 24.5647C29.3657 19.7638 35.8771 17.0667 42.6667 17.0667ZM102.4 494.933C91.0883 494.92 80.2437 490.42 72.2451 482.422C64.2465 474.423 59.7469 463.578 59.7333 452.267V145.067C59.7333 142.803 60.6324 140.633 62.2327 139.033C63.833 137.432 66.0035 136.533 68.2667 136.533H341.333C343.597 136.533 345.767 137.432 347.367 139.033C348.968 140.633 349.867 142.803 349.867 145.067V452.267C349.856 460.214 351.436 468.084 354.514 475.412C357.591 482.739 362.104 489.377 367.787 494.933H102.4ZM409.6 494.933C398.288 494.92 387.444 490.42 379.445 482.422C371.446 474.423 366.947 463.578 366.933 452.267V290.133H443.733C445.997 290.133 448.167 291.032 449.767 292.633C451.368 294.233 452.267 296.404 452.267 298.667V452.267C452.253 463.578 447.754 474.423 439.755 482.422C431.756 490.42 420.912 494.92 409.6 494.933ZM469.333 443.733V298.667C469.333 291.877 466.636 285.366 461.835 280.565C457.034 275.764 450.523 273.067 443.733 273.067H366.933V145.067C366.933 138.277 364.236 131.766 359.435 126.965C354.634 122.164 348.123 119.467 341.333 119.467H68.2667C61.4771 119.467 54.9657 122.164 50.1647 126.965C45.3638 131.766 42.6667 138.277 42.6667 145.067V443.733C35.8771 443.733 29.3657 441.036 24.5647 436.235C19.7638 431.434 17.0667 424.923 17.0667 418.133V85.3333H494.933V418.133C494.933 424.923 492.236 431.434 487.435 436.235C482.634 441.036 476.123 443.733 469.333 443.733Z" fill="white"/>
<path d="M93.8666 358.4H162.133C166.66 358.4 171.001 356.602 174.201 353.402C177.402 350.201 179.2 345.86 179.2 341.334V290.134C179.2 285.607 177.402 281.266 174.201 278.066C171.001 274.865 166.66 273.067 162.133 273.067H93.8666C89.3403 273.067 84.9993 274.865 81.7987 278.066C78.5981 281.266 76.8 285.607 76.8 290.134V341.334C76.8 345.86 78.5981 350.201 81.7987 353.402C84.9993 356.602 89.3403 358.4 93.8666 358.4ZM93.8666 290.134H162.133V341.334H93.8666V290.134ZM315.733 384H247.467C242.94 384 238.599 385.799 235.399 388.999C232.198 392.2 230.4 396.541 230.4 401.067V452.267C230.4 456.794 232.198 461.134 235.399 464.335C238.599 467.536 242.94 469.334 247.467 469.334H315.733C320.26 469.334 324.601 467.536 327.801 464.335C331.002 461.134 332.8 456.794 332.8 452.267V401.067C332.8 396.541 331.002 392.2 327.801 388.999C324.601 385.799 320.26 384 315.733 384ZM315.733 452.267H247.467V401.067H315.733V452.267ZM42.6666 51.2005H51.2C53.4631 51.2005 55.6336 50.3014 57.2339 48.7011C58.8343 47.1008 59.7333 44.9303 59.7333 42.6671C59.7333 40.4039 58.8343 38.2335 57.2339 36.6331C55.6336 35.0328 53.4631 34.1338 51.2 34.1338H42.6666C40.4035 34.1338 38.233 35.0328 36.6327 36.6331C35.0323 38.2335 34.1333 40.4039 34.1333 42.6671C34.1333 44.9303 35.0323 47.1008 36.6327 48.7011C38.233 50.3014 40.4035 51.2005 42.6666 51.2005ZM85.3333 51.2005H93.8666C96.1298 51.2005 98.3003 50.3014 99.9006 48.7011C101.501 47.1008 102.4 44.9303 102.4 42.6671C102.4 40.4039 101.501 38.2335 99.9006 36.6331C98.3003 35.0328 96.1298 34.1338 93.8666 34.1338H85.3333C83.0701 34.1338 80.8996 35.0328 79.2993 36.6331C77.699 38.2335 76.8 40.4039 76.8 42.6671C76.8 44.9303 77.699 47.1008 79.2993 48.7011C80.8996 50.3014 83.0701 51.2005 85.3333 51.2005ZM128 51.2005H136.533C138.796 51.2005 140.967 50.3014 142.567 48.7011C144.168 47.1008 145.067 44.9303 145.067 42.6671C145.067 40.4039 144.168 38.2335 142.567 36.6331C140.967 35.0328 138.796 34.1338 136.533 34.1338H128C125.737 34.1338 123.566 35.0328 121.966 36.6331C120.366 38.2335 119.467 40.4039 119.467 42.6671C119.467 44.9303 120.366 47.1008 121.966 48.7011C123.566 50.3014 125.737 51.2005 128 51.2005ZM401.067 51.2005H469.333C471.597 51.2005 473.767 50.3014 475.367 48.7011C476.968 47.1008 477.867 44.9303 477.867 42.6671C477.867 40.4039 476.968 38.2335 475.367 36.6331C473.767 35.0328 471.597 34.1338 469.333 34.1338H401.067C398.803 34.1338 396.633 35.0328 395.033 36.6331C393.432 38.2335 392.533 40.4039 392.533 42.6671C392.533 44.9303 393.432 47.1008 395.033 48.7011C396.633 50.3014 398.803 51.2005 401.067 51.2005ZM85.3333 247.467C87.5965 247.467 89.767 246.568 91.3673 244.968C92.9676 243.367 93.8666 241.197 93.8666 238.934V206.814L111.829 242.748C112.538 244.167 113.628 245.36 114.977 246.193C116.326 247.027 117.881 247.468 119.467 247.467C120.124 247.465 120.779 247.391 121.421 247.245C123.294 246.805 124.963 245.744 126.157 244.235C127.352 242.726 128.001 240.858 128 238.934V170.667C128 168.404 127.101 166.233 125.501 164.633C123.9 163.033 121.73 162.134 119.467 162.134C117.203 162.134 115.033 163.033 113.433 164.633C111.832 166.233 110.933 168.404 110.933 170.667V202.787L93.0133 166.853C92.168 165.107 90.753 163.701 89.0016 162.867C87.2502 162.033 85.2669 161.82 83.3785 162.265C81.4902 162.709 79.8096 163.783 78.6138 165.311C77.4179 166.838 76.7782 168.727 76.8 170.667V238.934C76.8 241.197 77.699 243.367 79.2993 244.968C80.8996 246.568 83.0701 247.467 85.3333 247.467ZM210.987 247.134C212.767 247.644 214.664 247.561 216.393 246.897C218.122 246.234 219.588 245.026 220.57 243.456L234.667 220.903L248.764 243.456C249.746 245.028 251.213 246.237 252.942 246.901C254.672 247.565 256.571 247.647 258.352 247.136C260.134 246.626 261.7 245.549 262.815 244.069C263.93 242.589 264.533 240.787 264.533 238.934V170.667C264.533 168.404 263.634 166.233 262.034 164.633C260.434 163.033 258.263 162.134 256 162.134C253.737 162.134 251.566 163.033 249.966 164.633C248.366 166.233 247.467 168.404 247.467 170.667V209.187L241.903 200.278C241.084 199.116 239.997 198.167 238.735 197.513C237.473 196.858 236.071 196.517 234.65 196.517C233.228 196.517 231.827 196.858 230.564 197.513C229.302 198.167 228.216 199.116 227.396 200.278L221.867 209.187V170.667C221.867 168.404 220.968 166.233 219.367 164.633C217.767 163.033 215.596 162.134 213.333 162.134C211.07 162.134 208.9 163.033 207.299 164.633C205.699 166.233 204.8 168.404 204.8 170.667V238.934C204.801 240.787 205.405 242.59 206.521 244.069C207.637 245.549 209.205 246.625 210.987 247.134ZM153.6 247.467H179.2C181.463 247.467 183.634 246.568 185.234 244.968C186.834 243.367 187.733 241.197 187.733 238.934C187.733 236.671 186.834 234.5 185.234 232.9C183.634 231.3 181.463 230.4 179.2 230.4H162.133V213.334H170.667C172.93 213.334 175.1 212.435 176.701 210.834C178.301 209.234 179.2 207.064 179.2 204.8C179.2 202.537 178.301 200.367 176.701 198.766C175.1 197.166 172.93 196.267 170.667 196.267H162.133V179.2H179.2C181.463 179.2 183.634 178.301 185.234 176.701C186.834 175.101 187.733 172.93 187.733 170.667C187.733 168.404 186.834 166.233 185.234 164.633C183.634 163.033 181.463 162.134 179.2 162.134H153.6C151.337 162.134 149.166 163.033 147.566 164.633C145.966 166.233 145.067 168.404 145.067 170.667V238.934C145.067 241.197 145.966 243.367 147.566 244.968C149.166 246.568 151.337 247.467 153.6 247.467ZM307.2 196.267C305.702 196.266 304.232 195.87 302.935 195.12C301.639 194.37 300.563 193.293 299.815 191.995C299.067 190.698 298.674 189.226 298.675 187.729C298.676 186.231 299.071 184.76 299.82 183.464C300.57 182.167 301.647 181.09 302.944 180.342C304.242 179.594 305.713 179.2 307.21 179.2C308.708 179.201 310.179 179.595 311.476 180.344C312.773 181.093 313.85 182.17 314.598 183.467C315.766 185.354 317.622 186.712 319.773 187.253C321.925 187.794 324.203 187.476 326.124 186.367C328.045 185.257 329.458 183.442 330.064 181.308C330.67 179.174 330.421 176.887 329.37 174.934C327.123 171.042 323.891 167.81 319.999 165.563C316.108 163.317 311.693 162.134 307.199 162.134C302.705 162.134 298.291 163.317 294.399 165.564C290.507 167.811 287.276 171.042 285.029 174.934C282.782 178.826 281.599 183.24 281.599 187.734C281.599 192.228 282.782 196.643 285.029 200.534C287.276 204.426 290.508 207.658 294.4 209.904C298.292 212.151 302.706 213.334 307.2 213.334C308.698 213.335 310.168 213.731 311.465 214.481C312.761 215.231 313.837 216.308 314.585 217.606C315.333 218.903 315.726 220.375 315.725 221.872C315.724 223.37 315.329 224.841 314.58 226.137C313.83 227.434 312.753 228.51 311.456 229.259C310.158 230.007 308.687 230.401 307.19 230.4C305.692 230.4 304.221 230.006 302.924 229.257C301.627 228.508 300.55 227.431 299.802 226.134C298.634 224.247 296.778 222.889 294.627 222.348C292.475 221.807 290.197 222.125 288.276 223.234C286.355 224.344 284.942 226.159 284.336 228.293C283.73 230.427 283.979 232.713 285.03 234.667C287.277 238.559 290.509 241.791 294.401 244.037C298.292 246.284 302.707 247.467 307.201 247.467C311.695 247.467 316.109 246.284 320.001 244.037C323.893 241.79 327.124 238.559 329.371 234.667C331.618 230.775 332.801 226.36 332.801 221.867C332.801 217.373 331.618 212.958 329.371 209.067C327.124 205.175 323.892 201.943 320 199.697C316.108 197.45 311.694 196.267 307.2 196.267ZM324.267 273.067H204.8C202.537 273.067 200.366 273.966 198.766 275.566C197.166 277.167 196.267 279.337 196.267 281.6C196.267 283.864 197.166 286.034 198.766 287.634C200.366 289.235 202.537 290.134 204.8 290.134H324.267C326.53 290.134 328.7 289.235 330.301 287.634C331.901 286.034 332.8 283.864 332.8 281.6C332.8 279.337 331.901 277.167 330.301 275.566C328.7 273.966 326.53 273.067 324.267 273.067ZM324.267 307.2H204.8C202.537 307.2 200.366 308.1 198.766 309.7C197.166 311.3 196.267 313.471 196.267 315.734C196.267 317.997 197.166 320.167 198.766 321.768C200.366 323.368 202.537 324.267 204.8 324.267H324.267C326.53 324.267 328.7 323.368 330.301 321.768C331.901 320.167 332.8 317.997 332.8 315.734C332.8 313.471 331.901 311.3 330.301 309.7C328.7 308.1 326.53 307.2 324.267 307.2ZM256 358.4C258.263 358.4 260.434 357.501 262.034 355.901C263.634 354.301 264.533 352.13 264.533 349.867C264.533 347.604 263.634 345.433 262.034 343.833C260.434 342.233 258.263 341.334 256 341.334H204.8C202.537 341.334 200.366 342.233 198.766 343.833C197.166 345.433 196.267 347.604 196.267 349.867C196.267 352.13 197.166 354.301 198.766 355.901C200.366 357.501 202.537 358.4 204.8 358.4H256ZM204.8 384H85.3333C83.0701 384 80.8996 384.9 79.2993 386.5C77.699 388.1 76.8 390.271 76.8 392.534C76.8 394.797 77.699 396.967 79.2993 398.568C80.8996 400.168 83.0701 401.067 85.3333 401.067H204.8C207.063 401.067 209.234 400.168 210.834 398.568C212.434 396.967 213.333 394.797 213.333 392.534C213.333 390.271 212.434 388.1 210.834 386.5C209.234 384.9 207.063 384 204.8 384ZM204.8 418.134H85.3333C83.0701 418.134 80.8996 419.033 79.2993 420.633C77.699 422.233 76.8 424.404 76.8 426.667C76.8 428.93 77.699 431.101 79.2993 432.701C80.8996 434.301 83.0701 435.2 85.3333 435.2H204.8C207.063 435.2 209.234 434.301 210.834 432.701C212.434 431.101 213.333 428.93 213.333 426.667C213.333 424.404 212.434 422.233 210.834 420.633C209.234 419.033 207.063 418.134 204.8 418.134ZM136.533 452.267H93.8666C91.6035 452.267 89.433 453.166 87.8327 454.766C86.2324 456.367 85.3333 458.537 85.3333 460.8C85.3333 463.064 86.2324 465.234 87.8327 466.834C89.433 468.435 91.6035 469.334 93.8666 469.334H136.533C138.796 469.334 140.967 468.435 142.567 466.834C144.168 465.234 145.067 463.064 145.067 460.8C145.067 458.537 144.168 456.367 142.567 454.766C140.967 453.166 138.796 452.267 136.533 452.267Z" fill="white"/>
</g>
<defs>
<clipPath id="clip0_1256_50">
<rect width="512" height="512" fill="white"/>
</clipPath>
</defs>
</svg>
