<svg width="80" height="80" viewBox="0 0 80 80" fill="none" xmlns="http://www.w3.org/2000/svg">
<g clip-path="url(#clip0_43_802)">
<path d="M10.1234 2.49913C10.8061 2.79004 11.437 3.15929 12.0765 3.53429C12.262 3.64058 12.4476 3.74665 12.6334 3.85251C13.1107 4.12552 13.5862 4.40177 14.0611 4.67908C14.5093 4.9403 14.959 5.199 15.4084 5.45811C16.3059 5.97737 17.2019 6.49881 18.0921 7.03038C18.2787 7.14149 18.2787 7.14149 18.4691 7.25484C18.6393 7.35824 18.6393 7.35824 18.813 7.46373C18.9119 7.52363 19.0109 7.58352 19.1128 7.64523C19.3421 7.81163 19.3421 7.81163 19.4984 8.12413C19.4984 9.56788 19.4984 11.0116 19.4984 12.4991C31.0484 12.4991 42.5984 12.4991 54.4984 12.4991C54.4984 11.0554 54.4984 9.61163 54.4984 8.12413C55.102 7.52056 55.4375 7.21311 56.147 6.83079C56.4001 6.69263 56.4001 6.69263 56.6584 6.55167C56.8383 6.45506 57.0181 6.35844 57.2035 6.2589C57.5827 6.05252 57.9613 5.84509 58.34 5.63756C58.436 5.58506 58.532 5.53257 58.6309 5.47848C59.7922 4.84163 60.9329 4.17028 62.074 3.49801C62.2196 3.41229 62.3653 3.32658 62.5154 3.23827C62.6423 3.16317 62.7693 3.08808 62.9002 3.01072C63.655 2.57917 64.2387 2.32412 65.1234 2.49913C65.8061 2.79004 66.437 3.15929 67.0765 3.53429C67.262 3.64058 67.4476 3.74665 67.6334 3.85251C68.1107 4.12552 68.5862 4.40177 69.0611 4.67908C69.5093 4.9403 69.959 5.199 70.4084 5.45811C71.3059 5.97737 72.2019 6.49881 73.0921 7.03038C73.2165 7.10445 73.341 7.17852 73.4691 7.25484C73.5826 7.32377 73.6961 7.39271 73.813 7.46373C73.9119 7.52363 74.0109 7.58352 74.1128 7.64523C74.3421 7.81163 74.3421 7.81163 74.4984 8.12413C74.5168 8.47572 74.5249 8.82787 74.5285 9.17992C74.5298 9.28844 74.5311 9.39696 74.5324 9.50877C74.5363 9.86855 74.5389 10.2283 74.5411 10.5881C74.542 10.711 74.5428 10.8338 74.5436 10.9604C74.5478 11.6107 74.5508 12.261 74.5531 12.9113C74.5557 13.5828 74.5627 14.2542 74.5707 14.9257C74.5759 15.4422 74.5777 15.9586 74.5786 16.4751C74.5797 16.7226 74.582 16.9701 74.5858 17.2176C74.5907 17.5644 74.5907 17.9109 74.5896 18.2577C74.5908 18.4549 74.5921 18.652 74.5934 18.8552C74.4727 19.5147 74.2279 19.7359 73.7171 20.1554C73.2957 20.427 73.2957 20.427 72.8389 20.673C72.6684 20.7659 72.498 20.8588 72.3225 20.9546C72.1414 21.0518 71.9603 21.149 71.7738 21.2491C71.3945 21.4552 71.0159 21.6624 70.6373 21.8699C70.5421 21.9219 70.4468 21.974 70.3487 22.0277C69.2478 22.6322 68.1708 23.2764 67.0967 23.927C66.9642 24.0067 66.8316 24.0864 66.6951 24.1684C66.5795 24.2386 66.464 24.3088 66.345 24.3811C66.0609 24.5304 66.0609 24.5304 65.7484 24.5304C65.7484 34.7398 65.7484 44.9491 65.7484 55.4679C66.0062 55.571 66.264 55.6741 66.5296 55.7804C66.7983 55.92 67.0645 56.0644 67.3286 56.2125C67.5606 56.3423 67.5606 56.3423 67.7973 56.4748C67.9623 56.5679 68.1273 56.661 68.2972 56.7569C68.4677 56.853 68.6383 56.949 68.8139 57.048C69.3551 57.3536 69.8957 57.6605 70.4359 57.9679C70.526 58.0191 70.6161 58.0702 70.7089 58.1229C71.319 58.4696 71.9276 58.8187 72.5355 59.1691C72.6964 59.2608 72.8573 59.3526 73.0231 59.4472C73.1713 59.5333 73.3196 59.6193 73.4724 59.708C73.603 59.7833 73.7336 59.8585 73.8682 59.9361C74.1859 60.1554 74.1859 60.1554 74.4984 60.6241C74.5412 61.1023 74.5412 61.1023 74.5463 61.6977C74.5476 61.8062 74.5489 61.9147 74.5502 62.0266C74.554 62.3855 74.5554 62.7444 74.5564 63.1034C74.5578 63.3531 74.5592 63.6028 74.5607 63.8524C74.5632 64.376 74.5644 64.8995 74.5649 65.4231C74.5657 66.0934 74.5716 66.7635 74.5788 67.4338C74.5834 67.9496 74.5845 68.4654 74.5847 68.9812C74.5853 69.2283 74.5873 69.4753 74.5906 69.7224C74.5948 70.0684 74.594 70.4141 74.592 70.7602C74.5928 70.9569 74.5936 71.1536 74.5944 71.3562C74.4724 72.0142 74.2267 72.2363 73.7171 72.6554C73.3007 72.9245 73.3007 72.9245 72.8498 73.1675C72.6811 73.2596 72.5123 73.3517 72.3384 73.4466C72.1585 73.5432 71.9786 73.6398 71.7933 73.7394C71.4141 73.9457 71.0354 74.1532 70.6568 74.3607C70.5128 74.4394 70.5128 74.4394 70.3659 74.5198C69.2046 75.1566 68.0639 75.828 66.9228 76.5003C66.7772 76.586 66.6315 76.6717 66.4814 76.76C66.291 76.8726 66.291 76.8726 66.0966 76.9875C65.3418 77.4191 64.7581 77.6741 63.8734 77.4991C63.1907 77.2082 62.5598 76.839 61.9203 76.464C61.7348 76.3577 61.5492 76.2516 61.3634 76.1458C60.886 75.8727 60.4106 75.5965 59.9357 75.3192C59.4875 75.058 59.0378 74.7993 58.5884 74.5401C57.6909 74.0209 56.7949 73.4995 55.9046 72.9679C55.7802 72.8938 55.6558 72.8197 55.5277 72.7434C55.4142 72.6745 55.3007 72.6056 55.1838 72.5345C55.0849 72.4746 54.9859 72.4147 54.8839 72.353C54.6546 72.1866 54.6546 72.1866 54.4984 71.8741C54.4984 70.4304 54.4984 68.9866 54.4984 67.4991C42.9484 67.4991 31.3984 67.4991 19.4984 67.4991C19.4984 68.9429 19.4984 70.3866 19.4984 71.8741C18.8948 72.4777 18.5593 72.7852 17.8498 73.1675C17.6811 73.2596 17.5123 73.3517 17.3384 73.4466C17.1585 73.5432 16.9786 73.6398 16.7933 73.7394C16.4141 73.9457 16.0354 74.1532 15.6568 74.3607C15.5128 74.4394 15.5128 74.4394 15.3659 74.5198C14.2046 75.1566 13.0639 75.828 11.9228 76.5003C11.7043 76.6288 11.7043 76.6288 11.4814 76.76C11.3544 76.8351 11.2275 76.9102 11.0966 76.9875C10.3418 77.4191 9.75811 77.6741 8.8734 77.4991C8.1907 77.2082 7.5598 76.839 6.92027 76.464C6.73479 76.3577 6.54917 76.2516 6.36344 76.1458C5.88604 75.8727 5.41061 75.5965 4.9357 75.3192C4.48748 75.058 4.03781 74.7993 3.58836 74.5401C2.69089 74.0209 1.79488 73.4995 0.904645 72.9679C0.780246 72.8938 0.655846 72.8197 0.527677 72.7434C0.414204 72.6745 0.300732 72.6056 0.18382 72.5345C0.0848621 72.4746 -0.0140961 72.4147 -0.116053 72.353C-0.345355 72.1866 -0.345355 72.1866 -0.501605 71.8741C-0.520008 71.5225 -0.528146 71.1704 -0.531741 70.8183C-0.533018 70.7098 -0.534296 70.6013 -0.535613 70.4895C-0.539495 70.1297 -0.542076 69.7699 -0.544329 69.4101C-0.545577 69.2259 -0.545576 69.2259 -0.546849 69.0379C-0.551026 68.3876 -0.554054 67.7373 -0.556307 67.087C-0.558908 66.4154 -0.565905 65.744 -0.573866 65.0726C-0.579126 64.5561 -0.580929 64.0396 -0.581812 63.5231C-0.582861 63.2756 -0.585241 63.0281 -0.588983 62.7806C-0.593927 62.4338 -0.593934 62.0874 -0.592776 61.7406C-0.594039 61.5434 -0.595303 61.3462 -0.596605 61.1431C-0.47588 60.4836 -0.231062 60.2624 0.279645 59.8429C0.701055 59.5713 0.701055 59.5713 1.15794 59.3253C1.32835 59.2324 1.49876 59.1394 1.67434 59.0437C1.8554 58.9465 2.03646 58.8493 2.223 58.7491C2.60227 58.543 2.98094 58.3358 3.35948 58.1284C3.45473 58.0763 3.54998 58.0242 3.64811 57.9706C4.74896 57.3661 5.82599 56.7219 6.90009 56.0712C7.09891 55.9517 7.09891 55.9517 7.30174 55.8298C7.41726 55.7596 7.53279 55.6895 7.65182 55.6171C7.9359 55.4679 7.9359 55.4679 8.2484 55.4679C8.2484 45.2585 8.2484 35.0491 8.2484 24.5304C7.99058 24.4273 7.73277 24.3241 7.46715 24.2179C7.1985 24.0782 6.93229 23.9338 6.6682 23.7858C6.51352 23.6992 6.35885 23.6127 6.19948 23.5235C5.95202 23.3838 5.95202 23.3838 5.69957 23.2413C5.52906 23.1453 5.35854 23.0492 5.18287 22.9503C4.64166 22.6446 4.10114 22.3377 3.5609 22.0304C3.47081 21.9792 3.38072 21.928 3.2879 21.8753C2.67783 21.5287 2.06923 21.1796 1.46129 20.8292C1.30039 20.7374 1.1395 20.6456 0.97373 20.551C0.75131 20.422 0.75131 20.422 0.524396 20.2903C0.328488 20.1774 0.328488 20.1774 0.128622 20.0622C-0.189105 19.8429 -0.189105 19.8429 -0.501605 19.3741C-0.544441 18.8959 -0.544441 18.8959 -0.549479 18.3006C-0.55078 18.1921 -0.55208 18.0835 -0.55342 17.9717C-0.557186 17.6127 -0.558556 17.2538 -0.559588 16.8949C-0.560989 16.6452 -0.562414 16.3955 -0.563863 16.1458C-0.56644 15.6223 -0.567643 15.0987 -0.568095 14.5752C-0.568936 13.9049 -0.574823 13.2347 -0.581961 12.5645C-0.586613 12.0487 -0.587739 11.5329 -0.587895 11.017C-0.588552 10.77 -0.590496 10.5229 -0.593758 10.2759C-0.597964 9.92983 -0.59721 9.58414 -0.595255 9.2381C-0.596048 9.04139 -0.59684 8.84469 -0.597656 8.64202C-0.475621 7.98403 -0.229934 7.76193 0.279645 7.34288C0.696096 7.07375 0.696096 7.07375 1.14696 6.83079C1.31573 6.73868 1.4845 6.64657 1.65839 6.55167C1.92821 6.40675 1.92821 6.40675 2.20347 6.2589C2.5827 6.05252 2.96135 5.84509 3.33995 5.63756C3.43596 5.58506 3.53198 5.53257 3.6309 5.47848C4.79217 4.84163 5.9329 4.17028 7.07396 3.49801C7.21963 3.41229 7.36529 3.32658 7.51536 3.23827C7.64234 3.16317 7.76932 3.08808 7.90015 3.01072C8.65502 2.57917 9.23868 2.32412 10.1234 2.49913ZM8.52305 5.75169C8.35628 5.84545 8.18951 5.93921 8.01768 6.03581C7.84245 6.13521 7.66722 6.23461 7.48668 6.33702C7.31749 6.43219 7.1483 6.52736 6.97398 6.62541C6.63279 6.81779 6.29206 7.01099 5.9518 7.20502C5.59843 7.40647 5.24449 7.60636 4.88948 7.80484C4.71812 7.90195 4.54677 7.99905 4.37022 8.09911C4.2147 8.18651 4.05919 8.27391 3.89895 8.36396C3.78739 8.4395 3.67584 8.51505 3.5609 8.59288C3.5609 8.696 3.5609 8.79913 3.5609 8.90538C3.72366 8.99619 3.72366 8.99619 3.88972 9.08883C4.3922 9.36929 4.89451 9.65003 5.39683 9.93077C5.65273 10.0735 5.65273 10.0735 5.9138 10.2192C6.084 10.3143 6.25419 10.4095 6.42955 10.5076C6.68711 10.6505 6.68711 10.6505 6.94987 10.7963C7.29868 10.9963 7.64279 11.2047 7.98198 11.4206C8.14482 11.5233 8.30767 11.6261 8.47545 11.7319C8.61991 11.8266 8.76438 11.9212 8.91322 12.0187C9.34135 12.2314 9.34135 12.2314 9.81116 12.0889C10.2722 11.8775 10.706 11.6514 11.1421 11.3926C11.3019 11.2984 11.4617 11.2042 11.6264 11.1072C11.791 11.009 11.9557 10.9108 12.1253 10.8097C12.4518 10.6165 12.7783 10.4234 13.105 10.2305C13.2608 10.1383 13.4166 10.0461 13.5771 9.95114C14.1911 9.59224 14.8117 9.2462 15.4359 8.90538C15.4359 8.80225 15.4359 8.69913 15.4359 8.59288C15.3274 8.53234 15.2189 8.4718 15.1071 8.40943C14.6046 8.12897 14.1023 7.84823 13.6 7.56749C13.3441 7.42474 13.3441 7.42474 13.083 7.2791C12.0539 6.70365 11.0336 6.11667 10.0225 5.51003C9.38336 5.16533 9.12575 5.41162 8.52305 5.75169ZM63.5231 5.75169C63.3563 5.84545 63.1895 5.93921 63.0177 6.03581C62.8425 6.13521 62.6672 6.23461 62.4867 6.33702C62.3175 6.43219 62.1483 6.52736 61.974 6.62541C61.6328 6.81779 61.2921 7.01099 60.9518 7.20502C60.5984 7.40647 60.2445 7.60636 59.8895 7.80484C59.7181 7.90195 59.5468 7.99905 59.3702 8.09911C59.2147 8.18651 59.0592 8.27391 58.899 8.36396C58.7874 8.4395 58.6758 8.51505 58.5609 8.59288C58.5609 8.696 58.5609 8.79913 58.5609 8.90538C58.7237 8.99619 58.7237 8.99619 58.8897 9.08883C59.3922 9.36929 59.8945 9.65003 60.3968 9.93077C60.6527 10.0735 60.6527 10.0735 60.9138 10.2192C61.084 10.3143 61.2542 10.4095 61.4296 10.5076C61.6871 10.6505 61.6871 10.6505 61.9499 10.7963C62.2987 10.9963 62.6428 11.2047 62.982 11.4206C63.1448 11.5233 63.3077 11.6261 63.4754 11.7319C63.6199 11.8266 63.7644 11.9212 63.9132 12.0187C64.3413 12.2314 64.3413 12.2314 64.8112 12.0889C65.2722 11.8775 65.706 11.6514 66.1421 11.3926C66.3019 11.2984 66.4617 11.2042 66.6264 11.1072C66.791 11.009 66.9557 10.9108 67.1254 10.8097C67.4518 10.6165 67.7783 10.4234 68.105 10.2305C68.2608 10.1383 68.4166 10.0461 68.5771 9.95114C69.1911 9.59224 69.8117 9.2462 70.4359 8.90538C70.4359 8.80225 70.4359 8.69913 70.4359 8.59288C70.3274 8.53234 70.2189 8.4718 70.1071 8.40943C69.6046 8.12897 69.1023 7.84823 68.6 7.56749C68.3441 7.42474 68.3441 7.42474 68.083 7.2791C67.0539 6.70365 66.0336 6.11667 65.0225 5.51003C64.3834 5.16533 64.1258 5.41162 63.5231 5.75169ZM1.9984 11.0929C1.9984 13.3616 1.9984 15.6304 1.9984 17.9679C3.32633 18.7261 3.32633 18.7261 4.65522 19.4826C5.54133 19.9864 6.42355 20.4935 7.29197 21.0276C7.42565 21.1088 7.55933 21.19 7.69706 21.2737C7.94163 21.423 8.18468 21.5749 8.42589 21.7297C8.53449 21.7955 8.6431 21.8613 8.75499 21.9291C8.84661 21.9868 8.93823 22.0445 9.03262 22.104C9.63404 22.2645 10.1548 21.9388 10.6832 21.6651C10.8165 21.5861 10.9498 21.507 11.0871 21.4255C11.2399 21.3356 11.3927 21.2457 11.5501 21.153C11.7865 21.0121 11.7865 21.0121 12.0277 20.8683C12.3359 20.6861 12.6441 20.504 12.9524 20.322C13.1162 20.2206 13.2801 20.1192 13.4489 20.0147C13.889 19.7525 14.3379 19.5517 14.8102 19.354C16.2316 18.758 16.2316 18.758 17.1514 17.5974C17.3673 16.542 17.2696 15.4884 17.1839 14.423C17.169 14.0996 17.1555 13.7762 17.1434 13.4528C17.1108 12.6645 17.0598 11.8794 16.9984 11.0929C16.4236 11.3096 15.8983 11.569 15.3633 11.8705C15.2006 11.9619 15.038 12.0533 14.8704 12.1475C14.6993 12.2442 14.5282 12.3409 14.3519 12.4405C14.1767 12.5387 14.0015 12.6368 13.8209 12.7379C13.0786 13.1544 12.338 13.5716 11.6114 14.0152C11.5141 14.0739 11.4168 14.1326 11.3166 14.1931C11.0719 14.342 10.8292 14.494 10.5867 14.6463C9.97742 14.9048 9.51398 14.9876 8.8734 14.8429C8.16313 14.5338 7.49981 14.1499 6.83238 13.7589C6.64392 13.6511 6.45533 13.5436 6.26662 13.4363C5.15324 12.8005 4.04527 12.1529 2.95752 11.4741C2.51185 11.1797 2.51185 11.1797 1.9984 11.0929ZM56.9984 11.0929C56.9984 13.3616 56.9984 15.6304 56.9984 17.9679C58.3263 18.7261 58.3263 18.7261 59.6552 19.4826C60.5413 19.9864 61.4235 20.4935 62.292 21.0276C62.4257 21.1088 62.5593 21.19 62.6971 21.2737C62.9416 21.423 63.1847 21.5749 63.4259 21.7297C63.5345 21.7955 63.6431 21.8613 63.755 21.9291C63.8466 21.9868 63.9382 22.0445 64.0326 22.104C64.634 22.2645 65.1548 21.9388 65.6832 21.6651C65.8165 21.5861 65.9498 21.507 66.0871 21.4255C66.2399 21.3356 66.3927 21.2457 66.5501 21.153C66.7865 21.0121 66.7865 21.0121 67.0277 20.8683C67.3359 20.6861 67.6441 20.504 67.9524 20.322C68.1162 20.2206 68.2801 20.1192 68.4489 20.0147C68.889 19.7525 69.3379 19.5517 69.8102 19.354C71.2317 18.758 71.2316 18.758 72.1514 17.5974C72.3673 16.542 72.2696 15.4884 72.1839 14.423C72.169 14.0996 72.1555 13.7762 72.1434 13.4528C72.1108 12.6645 72.0598 11.8794 71.9984 11.0929C71.4236 11.3096 70.8983 11.569 70.3633 11.8705C70.2006 11.9619 70.038 12.0533 69.8704 12.1475C69.6993 12.2442 69.5282 12.3409 69.3519 12.4405C69.1767 12.5387 69.0015 12.6368 68.8209 12.7379C68.0786 13.1544 67.338 13.5716 66.6114 14.0152C66.5141 14.0739 66.4168 14.1326 66.3166 14.1931C66.0719 14.342 65.8292 14.494 65.5867 14.6463C64.9774 14.9048 64.514 14.9876 63.8734 14.8429C63.1631 14.5338 62.4998 14.1499 61.8324 13.7589C61.6439 13.6511 61.4553 13.5436 61.2666 13.4363C60.1532 12.8005 59.0453 12.1529 57.9575 11.4741C57.5119 11.1797 57.5119 11.1797 56.9984 11.0929ZM19.4984 14.9991C19.4468 16.4429 19.3953 17.8866 19.3421 19.3741C18.8213 19.895 18.4901 20.1576 17.8651 20.496C17.6937 20.5898 17.5223 20.6837 17.3457 20.7804C17.1666 20.8771 16.9876 20.9737 16.8031 21.0733C16.148 21.4249 16.148 21.4249 15.5043 21.7963C14.8732 22.1701 14.2673 22.424 13.5672 22.6447C12.43 23.0614 11.4798 23.5378 10.7484 24.5304C9.98404 26.4838 10.3026 28.9506 10.3682 30.9994C10.3917 31.8605 10.3938 32.7217 10.3983 33.5831C10.4099 35.2115 10.4406 36.839 10.4783 38.4669C10.5204 40.3214 10.5409 42.1759 10.5597 44.0308C10.5988 47.8437 10.6647 51.6557 10.7484 55.4679C11.3475 55.8103 11.9465 56.1527 12.5456 56.495C12.7489 56.6112 12.9521 56.7273 13.1553 56.8435C14.6656 57.7067 14.6656 57.7067 16.1771 58.5677C16.5912 58.8033 17.0047 59.04 17.4183 59.2765C17.591 59.3744 17.7637 59.4723 17.9417 59.5731C18.1047 59.6666 18.2678 59.76 18.4358 59.8563C18.5773 59.937 18.7188 60.0176 18.8647 60.1007C19.1859 60.3116 19.1859 60.3116 19.3421 60.6241C19.4195 62.7898 19.4195 62.7898 19.4984 64.9991C31.0484 64.9991 42.5984 64.9991 54.4984 64.9991C54.55 63.5554 54.6015 62.1116 54.6546 60.6241C55.1755 60.1033 55.5067 59.8407 56.1317 59.5023C56.3888 59.3615 56.3888 59.3615 56.6511 59.2179C56.8302 59.1212 57.0092 59.0245 57.1937 58.9249C57.8488 58.5734 57.8488 58.5734 58.4925 58.2019C59.1236 57.8282 59.7295 57.5742 60.4296 57.3535C61.5668 56.9369 62.517 56.4605 63.2484 55.4679C64.0128 53.5145 63.6942 51.0477 63.6286 48.9989C63.6051 48.1378 63.603 47.2766 63.5985 46.4152C63.5869 44.7868 63.5562 43.1593 63.5185 41.5313C63.4764 39.6768 63.4559 37.8223 63.4371 35.9675C63.398 32.1546 63.3321 28.3425 63.2484 24.5304C62.6493 24.188 62.0503 23.8456 61.4512 23.5032C61.2479 23.3871 61.0447 23.2709 60.8415 23.1548C59.3312 22.2915 59.3312 22.2915 57.8197 21.4306C57.4056 21.195 56.9921 20.9583 56.5785 20.7218C56.4058 20.6239 56.233 20.526 56.0551 20.4252C55.8921 20.3317 55.729 20.2382 55.561 20.142C55.4195 20.0613 55.278 19.9807 55.1321 19.8976C54.8109 19.6866 54.8109 19.6866 54.6546 19.3741C54.6031 17.9304 54.5515 16.4866 54.4984 14.9991C42.9484 14.9991 31.3984 14.9991 19.4984 14.9991ZM8.52305 58.2517C8.35628 58.3455 8.18951 58.4392 8.01768 58.5358C7.84245 58.6352 7.66722 58.7346 7.48668 58.837C7.31749 58.9322 7.1483 59.0274 6.97398 59.1254C6.63279 59.3178 6.29206 59.511 5.9518 59.705C5.59843 59.9065 5.24449 60.1064 4.88948 60.3048C4.71812 60.4019 4.54677 60.4991 4.37022 60.5991C4.2147 60.6865 4.05919 60.7739 3.89895 60.864C3.78739 60.9395 3.67584 61.015 3.5609 61.0929C3.5609 61.196 3.5609 61.2991 3.5609 61.4054C3.72366 61.4962 3.72366 61.4962 3.88972 61.5888C4.3922 61.8693 4.89451 62.15 5.39683 62.4308C5.65273 62.5735 5.65273 62.5735 5.9138 62.7192C6.084 62.8143 6.25419 62.9095 6.42955 63.0076C6.68711 63.1505 6.68711 63.1505 6.94987 63.2963C7.29868 63.4963 7.64279 63.7047 7.98198 63.9206C8.14482 64.0233 8.30767 64.1261 8.47545 64.2319C8.61991 64.3266 8.76438 64.4212 8.91322 64.5187C9.34135 64.7314 9.34135 64.7314 9.81116 64.5889C10.2722 64.3775 10.706 64.1514 11.1421 63.8926C11.3019 63.7984 11.4617 63.7042 11.6264 63.6072C11.791 63.509 11.9557 63.4108 12.1253 63.3097C12.4518 63.1165 12.7783 62.9234 13.105 62.7305C13.2608 62.6383 13.4166 62.5461 13.5771 62.4511C14.1911 62.0922 14.8117 61.7462 15.4359 61.4054C15.4359 61.3023 15.4359 61.1991 15.4359 61.0929C15.3274 61.0323 15.2189 60.9718 15.1071 60.9094C14.6046 60.629 14.1023 60.3482 13.6 60.0675C13.3441 59.9247 13.3441 59.9247 13.083 59.7791C12.0539 59.2037 11.0336 58.6167 10.0225 58.01C9.38336 57.6653 9.12575 57.9116 8.52305 58.2517ZM63.5231 58.2517C63.3563 58.3455 63.1895 58.4392 63.0177 58.5358C62.8425 58.6352 62.6672 58.7346 62.4867 58.837C62.3175 58.9322 62.1483 59.0274 61.974 59.1254C61.6328 59.3178 61.2921 59.511 60.9518 59.705C60.5984 59.9065 60.2445 60.1064 59.8895 60.3048C59.7181 60.4019 59.5468 60.4991 59.3702 60.5991C59.2147 60.6865 59.0592 60.7739 58.899 60.864C58.7874 60.9395 58.6758 61.015 58.5609 61.0929C58.5609 61.196 58.5609 61.2991 58.5609 61.4054C58.7237 61.4962 58.7237 61.4962 58.8897 61.5888C59.3922 61.8693 59.8945 62.15 60.3968 62.4308C60.6527 62.5735 60.6527 62.5735 60.9138 62.7192C61.084 62.8143 61.2542 62.9095 61.4296 63.0076C61.6871 63.1505 61.6871 63.1505 61.9499 63.2963C62.2987 63.4963 62.6428 63.7047 62.982 63.9206C63.1448 64.0233 63.3077 64.1261 63.4754 64.2319C63.6199 64.3266 63.7644 64.4212 63.9132 64.5187C64.3413 64.7314 64.3413 64.7314 64.8112 64.5889C65.2722 64.3775 65.706 64.1514 66.1421 63.8926C66.3019 63.7984 66.4617 63.7042 66.6264 63.6072C66.791 63.509 66.9557 63.4108 67.1254 63.3097C67.4518 63.1165 67.7783 62.9234 68.105 62.7305C68.2608 62.6383 68.4166 62.5461 68.5771 62.4511C69.1911 62.0922 69.8117 61.7462 70.4359 61.4054C70.4359 61.3023 70.4359 61.1991 70.4359 61.0929C70.3274 61.0323 70.2189 60.9718 70.1071 60.9094C69.6046 60.629 69.1023 60.3482 68.6 60.0675C68.3441 59.9247 68.3441 59.9247 68.083 59.7791C67.0539 59.2037 66.0336 58.6167 65.0225 58.01C64.3834 57.6653 64.1258 57.9116 63.5231 58.2517ZM1.9984 63.5929C1.9984 65.8616 1.9984 68.1304 1.9984 70.4679C3.32633 71.2261 3.32633 71.2261 4.65522 71.9826C5.54133 72.4864 6.42355 72.9935 7.29197 73.5276C7.42565 73.6088 7.55933 73.69 7.69706 73.7737C7.94163 73.923 8.18468 74.0749 8.42589 74.2297C8.53449 74.2955 8.6431 74.3613 8.75499 74.4291C8.84661 74.4868 8.93823 74.5445 9.03262 74.604C9.63404 74.7645 10.1548 74.4388 10.6832 74.1651C10.8165 74.0861 10.9498 74.007 11.0871 73.9255C11.2399 73.8356 11.3927 73.7457 11.5501 73.653C11.7865 73.5121 11.7865 73.5121 12.0277 73.3683C12.3359 73.1861 12.6441 73.004 12.9524 72.822C13.1162 72.7206 13.2801 72.6192 13.4489 72.5147C13.889 72.2525 14.3379 72.0517 14.8102 71.854C16.2316 71.258 16.2316 71.258 17.1514 70.0974C17.3673 69.042 17.2696 67.9884 17.1839 66.923C17.169 66.5996 17.1555 66.2762 17.1434 65.9528C17.1108 65.1645 17.0598 64.3794 16.9984 63.5929C16.4236 63.8097 15.8983 64.069 15.3633 64.3705C15.2006 64.4619 15.038 64.5533 14.8704 64.6475C14.6993 64.7442 14.5282 64.8409 14.3519 64.9405C14.1767 65.0387 14.0015 65.1368 13.8209 65.2379C13.0786 65.6544 12.338 66.0716 11.6114 66.5152C11.5141 66.5739 11.4168 66.6326 11.3166 66.6931C11.0719 66.8419 10.8292 66.994 10.5867 67.1463C9.97742 67.4048 9.51398 67.4876 8.8734 67.3429C8.16313 67.0338 7.49981 66.6499 6.83238 66.2589C6.64392 66.1511 6.45533 66.0436 6.26662 65.9363C5.15324 65.3005 4.04527 64.6529 2.95752 63.9741C2.51185 63.6797 2.51185 63.6797 1.9984 63.5929ZM56.9984 63.5929C56.9984 65.8616 56.9984 68.1304 56.9984 70.4679C58.3263 71.2261 58.3263 71.2261 59.6552 71.9826C60.5413 72.4864 61.4235 72.9935 62.292 73.5276C62.4257 73.6088 62.5593 73.69 62.6971 73.7737C62.9416 73.923 63.1847 74.0749 63.4259 74.2297C63.5345 74.2955 63.6431 74.3613 63.755 74.4291C63.8466 74.4868 63.9382 74.5445 64.0326 74.604C64.634 74.7645 65.1548 74.4388 65.6832 74.1651C65.8165 74.0861 65.9498 74.007 66.0871 73.9255C66.2399 73.8356 66.3927 73.7457 66.5501 73.653C66.7865 73.5121 66.7865 73.5121 67.0277 73.3683C67.3359 73.1861 67.6441 73.004 67.9524 72.822C68.1162 72.7206 68.2801 72.6192 68.4489 72.5147C68.889 72.2525 69.3379 72.0517 69.8102 71.854C71.2317 71.258 71.2316 71.258 72.1514 70.0974C72.3673 69.042 72.2696 67.9884 72.1839 66.923C72.169 66.5996 72.1555 66.2762 72.1434 65.9528C72.1108 65.1645 72.0598 64.3794 71.9984 63.5929C71.4236 63.8097 70.8983 64.069 70.3633 64.3705C70.2006 64.4619 70.038 64.5533 69.8704 64.6475C69.6993 64.7442 69.5282 64.8409 69.3519 64.9405C69.1767 65.0387 69.0015 65.1368 68.8209 65.2379C68.0786 65.6544 67.338 66.0716 66.6114 66.5152C66.5141 66.5739 66.4168 66.6326 66.3166 66.6931C66.0719 66.8419 65.8292 66.994 65.5867 67.1463C64.9774 67.4048 64.514 67.4876 63.8734 67.3429C63.1631 67.0338 62.4998 66.6499 61.8324 66.2589C61.6439 66.1511 61.4553 66.0436 61.2666 65.9363C60.1532 65.3005 59.0453 64.6529 57.9575 63.9741C57.5119 63.6797 57.5119 63.6797 56.9984 63.5929Z" fill="black"/>
<path d="M36.9721 17.4313C37.1432 17.4267 37.1432 17.4267 37.3178 17.4219C39.0017 17.4233 40.4484 18.2533 41.8842 19.0524C42.0464 19.1415 42.2085 19.2305 42.3756 19.3223C43.6173 20.0062 44.8522 20.7021 46.0846 21.4025C47.0776 21.9667 48.0742 22.5238 49.0734 23.0768C49.7822 23.4692 50.49 23.8633 51.1976 24.2577C51.5128 24.433 51.8282 24.6077 52.1441 24.7816C54.3696 26.008 56.1451 27.0786 56.9328 29.6622C57.0131 30.0574 57.023 30.424 57.0254 30.8274C57.0268 30.9952 57.0281 31.1629 57.0295 31.3358C57.0305 31.6107 57.0305 31.6107 57.0315 31.8912C57.0328 32.0848 57.0341 32.2785 57.0354 32.4781C57.0393 33.12 57.0419 33.762 57.0441 34.404C57.0449 34.6257 57.0458 34.8473 57.0466 35.069C57.05 35.992 57.0529 36.915 57.0547 37.838C57.0572 39.1568 57.0624 40.4756 57.0713 41.7943C57.0774 42.7236 57.0804 43.6529 57.0812 44.5823C57.0818 45.1362 57.0837 45.69 57.0888 46.2439C57.0944 46.8636 57.0937 47.4831 57.0925 48.1027C57.0951 48.2835 57.0977 48.4642 57.1003 48.6505C57.0864 50.4782 56.4399 52.1413 55.1264 53.4372C54.6812 53.7914 54.2127 54.0797 53.7167 54.3574C53.4805 54.49 53.2456 54.6248 53.0113 54.7606C52.5591 55.0223 52.1048 55.28 51.6498 55.5368C51.5019 55.622 51.3539 55.7071 51.2015 55.7949C50.3891 56.2439 49.8102 56.5469 48.8764 56.4059C48.4071 56.0849 48.2775 55.8628 48.1049 55.322C48.093 54.739 48.2302 54.5326 48.5639 54.0622C48.8471 53.8412 48.8471 53.8412 49.1889 53.652C49.3246 53.5745 49.4604 53.4969 49.6003 53.417C49.7739 53.3206 49.9475 53.2241 50.1264 53.1247C50.5071 52.9123 50.8873 52.699 51.2665 52.4839C51.5313 52.3338 51.797 52.1852 52.0636 52.0382C53.1125 51.4441 53.7151 50.8153 54.1889 49.6872C54.3643 48.7612 54.3683 47.8523 54.3678 46.9138C54.3684 46.7483 54.3689 46.5828 54.3694 46.4122C54.3709 45.8669 54.3712 45.3216 54.3714 44.7763C54.3719 44.3959 54.3724 44.0155 54.3729 43.6351C54.3739 42.8383 54.3742 42.0416 54.3741 41.2449C54.3741 40.2258 54.3762 39.2068 54.3789 38.1877C54.3806 37.4022 54.3809 36.6167 54.3809 35.8312C54.381 35.4555 54.3817 35.0799 54.3829 34.7043C54.3845 34.1782 54.384 33.6521 54.3831 33.126C54.384 32.972 54.3848 32.8181 54.3857 32.6595C54.3795 31.2754 54.2324 30.1894 53.4076 29.0622C53.4076 28.9591 53.4076 28.8559 53.4076 28.7497C53.3217 28.7076 53.2358 28.6656 53.1474 28.6222C52.7416 28.4164 52.3446 28.1977 51.9471 27.9764C51.7805 27.8837 51.6139 27.7911 51.4423 27.6956C51.2626 27.5955 51.083 27.4954 50.8979 27.3923C50.7085 27.2869 50.519 27.1815 50.3296 27.0761C49.9361 26.8572 49.5426 26.6382 49.1491 26.4191C48.0774 25.8226 47.005 25.2271 45.9325 24.6318C45.0272 24.1292 44.1226 23.6255 43.219 23.1198C42.3372 22.6263 41.4533 22.1368 40.5678 21.65C40.1907 21.4415 39.8159 21.2294 39.4416 21.0159C38.3232 20.3928 37.3473 20.019 36.0639 20.3122C35.3296 20.5907 34.6577 20.948 33.9737 21.3321C33.503 21.5964 33.0294 21.8552 32.5556 22.114C31.6813 22.5923 30.8096 23.075 29.9386 23.5593C29.1498 23.9976 28.3597 24.4332 27.5689 24.868C26.7253 25.3319 25.8828 25.7979 25.0405 26.2643C24.5078 26.5587 23.9739 26.851 23.44 27.1432C23.1134 27.3238 22.7868 27.5045 22.4604 27.6852C22.3116 27.7659 22.1629 27.8467 22.0097 27.9298C20.9242 28.5349 20.3031 29.1473 19.8139 30.3122C19.6384 31.2382 19.6345 32.1471 19.6349 33.0856C19.6344 33.2511 19.6339 33.4166 19.6333 33.5872C19.6319 34.1325 19.6315 34.6778 19.6314 35.2231C19.6309 35.6035 19.6304 35.9839 19.6298 36.3643C19.6289 37.1611 19.6286 37.9578 19.6287 38.7545C19.6287 39.7736 19.6266 40.7926 19.6239 41.8117C19.6221 42.5972 19.6218 43.3827 19.6219 44.1682C19.6217 44.5439 19.621 44.9195 19.6198 45.2951C19.6183 45.8212 19.6187 46.3473 19.6197 46.8734C19.6184 47.1043 19.6184 47.1043 19.617 47.3399C19.6235 48.7789 19.7808 50.1305 20.7514 51.2497C21.0723 51.4833 21.0723 51.4833 21.4405 51.6879C21.5797 51.7686 21.7189 51.8492 21.8623 51.9323C22.0113 52.0164 22.1603 52.1005 22.3139 52.1872C22.4639 52.272 22.6139 52.3568 22.7685 52.4442C23.2637 52.7218 23.7603 52.9968 24.2572 53.2712C24.4424 53.3737 24.6275 53.4762 24.8127 53.5788C25.1959 53.7911 25.5791 54.0032 25.9625 54.2153C26.8563 54.71 27.7491 55.2065 28.642 55.7028C28.9893 55.8957 29.3366 56.0886 29.6839 56.2814C30.3316 56.6413 30.9792 57.0015 31.6265 57.3622C32.0131 57.5777 32.3999 57.7929 32.7866 58.0082C33.0586 58.1597 33.3305 58.3114 33.6023 58.4631C33.7679 58.5553 33.9335 58.6474 34.104 58.7424C34.249 58.8232 34.394 58.904 34.5434 58.9873C35.5496 59.5324 36.4435 60.016 37.6154 59.7837C38.7883 59.4018 39.8494 58.8024 40.9272 58.2126C41.1222 58.107 41.3173 58.0015 41.5125 57.8961C42.2604 57.4912 43.007 57.0867 43.7366 56.6495C44.3887 56.2984 44.7104 56.3104 45.4389 56.4059C45.9177 56.7252 46.036 56.9436 46.2104 57.4899C46.2225 58.0826 46.1027 58.2765 45.7514 58.7497C45.3169 59.0505 45.3169 59.0505 44.7913 59.3344C44.6966 59.3862 44.6018 59.438 44.5042 59.4913C44.2015 59.6562 43.8974 59.8182 43.5932 59.9802C43.3954 60.0876 43.1978 60.1952 43.0002 60.303C38.9089 62.5256 38.9089 62.5256 37.0697 62.5485C36.9528 62.5531 36.8359 62.5576 36.7154 62.5623C34.9233 62.582 33.4373 61.6759 31.9233 60.8102C31.7387 60.706 31.554 60.6019 31.3693 60.498C30.9872 60.2829 30.6054 60.0671 30.2239 59.8509C29.3415 59.3515 28.4544 58.8606 27.5678 58.3688C27.3966 58.2736 27.2254 58.1784 27.049 58.0802C26.1098 57.558 25.1692 57.0387 24.2267 56.5225C23.922 56.3554 23.6174 56.1882 23.3127 56.0211C23.0271 55.8646 22.7412 55.7088 22.4552 55.553C17.9001 53.0541 17.9001 53.0541 17.0696 50.3366C16.9899 49.943 16.9802 49.5785 16.9784 49.1768C16.9773 49.0102 16.9761 48.8435 16.975 48.6718C16.9746 48.4897 16.9741 48.3077 16.9737 48.1201C16.9727 47.9277 16.9717 47.7353 16.9706 47.537C16.9675 46.8994 16.9657 46.2617 16.9641 45.6241C16.9635 45.4039 16.9629 45.1838 16.9622 44.9637C16.9592 43.9288 16.957 42.8938 16.9557 41.8589C16.9542 40.6676 16.9501 39.4763 16.9438 38.2851C16.939 37.3623 16.9367 36.4395 16.9362 35.5166C16.9358 34.9665 16.9345 34.4164 16.9305 33.8662C16.9262 33.2511 16.9269 32.636 16.9279 32.0208C16.9259 31.841 16.9239 31.6611 16.9219 31.4758C16.9339 29.5998 17.4975 28.1024 18.8244 26.7691C19.6695 25.9983 20.5793 25.4756 21.5912 24.9509C21.9284 24.7722 22.2655 24.5933 22.6026 24.4144C22.7672 24.3276 22.9317 24.2408 23.1013 24.1514C23.719 23.8236 24.3306 23.4856 24.9408 23.1442C25.0501 23.0833 25.1595 23.0224 25.2721 22.9596C25.5073 22.8285 25.7424 22.6974 25.9774 22.5661C28.1994 21.3257 30.4228 20.0876 32.6557 18.8669C32.8077 18.783 32.9597 18.6992 33.1163 18.6128C34.4196 17.9035 35.4733 17.417 36.9721 17.4313Z" fill="black"/>
<path d="M23.547 33.6523C24.5324 33.9478 25.2318 35.2569 25.8181 36.0358C25.9264 36.1787 26.0346 36.3217 26.1462 36.4689C27.225 37.8969 28.2871 39.3372 29.3435 40.7819C29.345 40.5911 29.3464 40.4003 29.3479 40.2037C29.3542 39.4955 29.3644 38.7873 29.3759 38.0791C29.3803 37.7727 29.3836 37.4663 29.3858 37.1598C29.3892 36.7191 29.3965 36.2786 29.4045 35.838C29.4048 35.6327 29.4048 35.6327 29.4051 35.4232C29.428 34.4713 29.428 34.4713 29.7987 33.9769C30.1518 33.7318 30.3242 33.6658 30.7497 33.6725C30.8529 33.6709 30.956 33.6693 31.0622 33.6676C31.5266 33.791 31.7023 34.0007 31.9997 34.3756C32.0791 34.8737 32.0791 34.8737 32.0806 35.4694C32.0817 35.5782 32.0828 35.687 32.0839 35.7991C32.0867 36.158 32.0849 36.5167 32.0828 36.8756C32.0832 37.1254 32.0838 37.3753 32.0846 37.6251C32.0855 38.1484 32.0841 38.6717 32.0812 39.1949C32.0777 39.8654 32.0797 40.5357 32.0835 41.2062C32.0857 41.722 32.085 42.2378 32.0834 42.7536C32.083 43.0008 32.0835 43.248 32.0849 43.4952C32.0865 43.8408 32.0841 44.1862 32.0806 44.5319C32.0801 44.7284 32.0796 44.925 32.0791 45.1276C31.9997 45.6256 31.9997 45.6256 31.7206 46.001C31.3045 46.3013 30.96 46.3317 30.4525 46.3489C29.4671 46.0534 28.7677 44.7444 28.1814 43.9655C28.0731 43.8225 27.9649 43.6796 27.8533 43.5323C26.7745 42.1043 25.7124 40.664 24.656 39.2194C24.6545 39.4102 24.6531 39.6009 24.6516 39.7975C24.6453 40.5058 24.6351 41.2139 24.6236 41.9221C24.6192 42.2285 24.6158 42.535 24.6137 42.8414C24.6103 43.2821 24.603 43.7226 24.595 44.1632C24.5947 44.3686 24.5947 44.3686 24.5944 44.5781C24.5715 45.5299 24.5715 45.5299 24.2008 46.0243C23.8477 46.2694 23.6753 46.3354 23.2497 46.3287C23.1466 46.3303 23.0435 46.332 22.9372 46.3336C22.4728 46.2103 22.2972 46.0005 21.9997 45.6256C21.9204 45.1276 21.9204 45.1276 21.9189 44.5319C21.9178 44.423 21.9167 44.3142 21.9156 44.2021C21.9128 43.8432 21.9146 43.4845 21.9167 43.1256C21.9163 42.8758 21.9157 42.6259 21.9149 42.3761C21.914 41.8528 21.9153 41.3296 21.9183 40.8063C21.9218 40.1358 21.9198 39.4655 21.916 38.795C21.9138 38.2792 21.9145 37.7634 21.9161 37.2476C21.9165 37.0004 21.916 36.7532 21.9146 36.506C21.913 36.1604 21.9154 35.815 21.9189 35.4694C21.9194 35.2728 21.9199 35.0762 21.9204 34.8737C21.9997 34.3756 21.9997 34.3756 22.2788 34.0002C22.695 33.6999 23.0395 33.6695 23.547 33.6523Z" fill="black"/>
<path d="M35.7595 33.67C35.9441 33.6671 35.9441 33.6671 36.1324 33.6641C36.264 33.6653 36.3955 33.6666 36.531 33.6679C36.6674 33.6673 36.8037 33.6667 36.9442 33.6661C37.2321 33.6657 37.52 33.6668 37.8079 33.6694C38.2483 33.6728 38.6883 33.6695 39.1287 33.6655C39.4086 33.6659 39.6885 33.6667 39.9685 33.6679C40.1 33.6666 40.2315 33.6654 40.3671 33.6641C41.279 33.6787 41.279 33.6787 41.7699 34.0491C42.0187 34.4029 42.0846 34.5729 42.0779 35.0009C42.0795 35.104 42.0811 35.2072 42.0828 35.3134C41.9601 35.7753 41.7458 35.954 41.3747 36.2509C40.9022 36.3219 40.9022 36.3219 40.3567 36.3119C40.1613 36.3099 39.9659 36.3079 39.7646 36.3058C39.4595 36.298 39.4595 36.298 39.1482 36.29C38.9423 36.2871 38.7365 36.2843 38.5244 36.2814C38.0161 36.2741 37.5079 36.2628 36.9997 36.2509C36.9997 37.0759 36.9997 37.9009 36.9997 38.7509C37.3083 38.7437 37.6169 38.7364 37.9348 38.7289C38.3393 38.7231 38.7437 38.7174 39.1482 38.7118C39.3516 38.7066 39.555 38.7014 39.7646 38.696C39.96 38.694 40.1554 38.6919 40.3567 38.6899C40.5367 38.6866 40.7167 38.6833 40.9022 38.68C41.4734 38.7657 41.651 38.9253 41.9997 39.3759C42.0828 39.6884 42.0828 39.6884 42.0779 40.0009C42.0795 40.104 42.0811 40.2072 42.0828 40.3134C41.9601 40.7753 41.7458 40.954 41.3747 41.2509C40.9022 41.3219 40.9022 41.3219 40.3567 41.3119C40.1613 41.3099 39.9659 41.3079 39.7646 41.3058C39.4595 41.298 39.4595 41.298 39.1482 41.29C38.9423 41.2871 38.7365 41.2843 38.5244 41.2814C38.0161 41.2741 37.508 41.2638 36.9997 41.2509C37.003 41.3802 37.0063 41.5094 37.0097 41.6426C37.0227 42.2282 37.0308 42.8137 37.0388 43.3993C37.044 43.6028 37.0493 43.8062 37.0547 44.0158C37.0567 44.2112 37.0587 44.4065 37.0608 44.6078C37.0641 44.7879 37.0673 44.9679 37.0707 45.1533C36.9849 45.7246 36.8253 45.9021 36.3747 46.2509C36.0622 46.3339 36.0622 46.3339 35.7497 46.329C35.6466 46.3306 35.5435 46.3323 35.4372 46.3339C34.9728 46.2106 34.7972 46.0008 34.4997 45.6259C34.4204 45.1279 34.4204 45.1279 34.4189 44.5322C34.4178 44.4233 34.4167 44.3145 34.4156 44.2024C34.4128 43.8435 34.4146 43.4848 34.4167 43.1259C34.4163 42.8761 34.4157 42.6262 34.4149 42.3764C34.414 41.8531 34.4153 41.3299 34.4183 40.8066C34.4218 40.1361 34.4198 39.4658 34.416 38.7953C34.4138 38.2795 34.4145 37.7637 34.4161 37.2479C34.4165 37.0007 34.416 36.7535 34.4146 36.5063C34.413 36.1607 34.4154 35.8153 34.4189 35.4697C34.4194 35.2731 34.4199 35.0765 34.4204 34.874C34.4997 34.3759 34.4997 34.3759 34.7776 34.0001C35.1497 33.733 35.3091 33.6721 35.7595 33.67Z" fill="black"/>
<path d="M46.5322 33.6679C46.6686 33.6673 46.8049 33.6667 46.9454 33.6661C47.2333 33.6657 47.5212 33.6668 47.8091 33.6694C48.2495 33.6728 48.6895 33.6695 49.1299 33.6655C49.4098 33.6659 49.6898 33.6667 49.9697 33.6679C50.1013 33.6666 50.2328 33.6654 50.3683 33.6641C51.2802 33.6787 51.2802 33.6787 51.7712 34.0491C52.02 34.4029 52.0858 34.5729 52.0791 35.0009C52.0807 35.104 52.0823 35.2072 52.084 35.3134C51.9616 35.7741 51.7455 35.9546 51.376 36.2509C50.9048 36.3119 50.9048 36.3119 50.3994 36.29C50.231 36.2843 50.0626 36.2787 49.8892 36.2729C49.7611 36.2656 49.633 36.2584 49.501 36.2509C49.5024 36.367 49.5038 36.483 49.5052 36.6026C49.5177 37.6969 49.5272 38.7912 49.5334 39.8856C49.5366 40.4482 49.541 41.0107 49.5481 41.5733C49.5549 42.1164 49.5587 42.6593 49.5603 43.2024C49.562 43.5102 49.5669 43.818 49.5718 44.1257C49.5718 44.3134 49.5719 44.501 49.5719 44.6944C49.5733 44.8595 49.5747 45.0247 49.5761 45.1948C49.4822 45.7337 49.2991 45.9158 48.876 46.2509C48.5635 46.3339 48.5635 46.3339 48.251 46.329C48.1479 46.3306 48.0447 46.3323 47.9385 46.3339C47.4799 46.2121 47.2983 45.9914 47.001 45.6259C46.9258 45.1948 46.9258 45.1948 46.93 44.6944C46.9301 44.4129 46.9301 44.4129 46.9302 44.1257C46.9334 43.9239 46.9366 43.722 46.9399 43.5141C46.9411 43.3048 46.942 43.0955 46.9426 42.8862C46.945 42.3364 46.9511 41.7868 46.9581 41.2371C46.9645 40.6757 46.9673 40.1143 46.9705 39.5529C46.9772 38.4522 46.9878 37.3516 47.001 36.2509C46.8729 36.2582 46.7448 36.2654 46.6128 36.2729C46.3602 36.2813 46.3602 36.2813 46.1025 36.29C45.8524 36.3008 45.8524 36.3008 45.5972 36.3119C45.0215 36.2374 44.8522 36.077 44.501 35.6259C44.418 35.3134 44.418 35.3134 44.4229 35.0009C44.4204 34.8462 44.4204 34.8462 44.418 34.6884C44.7056 33.6057 45.6026 33.659 46.5322 33.6679Z" fill="black"/>
<path d="M43.25 70C44.9 70 46.55 70 48.25 70C48.25 71.65 48.25 73.3 48.25 75C46.6 75 44.95 75 43.25 75C43.25 73.35 43.25 71.7 43.25 70Z" fill="black"/>
<path d="M24.5 5C26.15 5 27.8 5 29.5 5C29.5 6.65 29.5 8.3 29.5 10C27.85 10 26.2 10 24.5 10C24.5 8.35 24.5 6.7 24.5 5Z" fill="black"/>
</g>
<defs>
<clipPath id="clip0_43_802">
<rect width="80" height="80" fill="white"/>
</clipPath>
</defs>
</svg>
