<svg width="100" height="100" viewBox="0 0 100 100" fill="none" xmlns="http://www.w3.org/2000/svg">
<path d="M21.9821 33.1442C23.0039 32.1224 24.6215 32.0574 25.7176 32.9516L25.9284 33.1442L48.2544 55.4696L48.447 55.6803C49.3412 56.7764 49.2762 58.394 48.2544 59.4158C47.2326 60.4375 45.615 60.5025 44.5189 59.6083L44.3081 59.4158L21.9821 37.0904L21.7895 36.8796C20.8953 35.7835 20.9603 34.166 21.9821 33.1442Z" fill="black" stroke="black" stroke-linecap="round" stroke-linejoin="round"/>
<path d="M47.678 22.4051C48.533 21.1227 50.2656 20.7762 51.548 21.6311C52.8304 22.486 53.1769 24.2186 52.322 25.501L44.88 36.6637L44.5311 37.0888L22.2051 59.4142C21.1152 60.504 19.3487 60.504 18.2588 59.4142C17.1689 58.3244 17.1689 56.5578 18.2588 55.468L40.3886 33.3388L47.678 22.4051Z" fill="black" stroke="black" stroke-linecap="round" stroke-linejoin="round"/>
<path d="M57.4428 21.1621C58.9841 21.1621 60.2336 22.4115 60.2336 23.9528C60.2336 25.494 58.9841 26.7435 57.4428 26.7435H12.7908C11.2495 26.7435 10 25.494 10 23.9528C10 22.4115 11.2495 21.1621 12.7908 21.1621H57.4428Z" fill="black" stroke="black" stroke-linecap="round" stroke-linejoin="round"/>
<path d="M35.1211 10C36.6624 10 37.9119 11.2494 37.9119 12.7907C37.9119 14.3319 36.6624 15.5813 35.1211 15.5813H31.4001C29.8588 15.5813 28.6094 14.3319 28.6094 12.7907C28.6094 11.2494 29.8588 10 31.4001 10H35.1211Z" fill="black" stroke="black" stroke-linecap="round" stroke-linejoin="round"/>
<path d="M68.6066 47.21C69.6637 47.21 70.6303 47.8088 71.1031 48.7543L89.7081 85.9633L89.8207 86.2249C90.3217 87.5472 89.7502 89.0599 88.4581 89.7059C87.1662 90.351 85.614 89.9005 84.857 88.7067L84.7152 88.456L68.6066 56.2397L52.498 88.456C51.809 89.834 50.1335 90.3941 48.7552 89.7059C47.3771 89.0169 46.817 87.3415 47.5052 85.9633L66.1102 48.7543L66.3101 48.4163C66.8261 47.6681 67.6813 47.21 68.6066 47.21Z" fill="black" stroke="black" stroke-linecap="round" stroke-linejoin="round"/>
<path d="M79.7691 69.5342C81.3104 69.5342 82.5599 70.7836 82.5599 72.3249C82.5599 73.8661 81.3104 75.1155 79.7691 75.1155H57.4431C55.9018 75.1155 54.6523 73.8661 54.6523 72.3249C54.6523 70.7836 55.9018 69.5342 57.4431 69.5342H79.7691Z" fill="black" stroke="black" stroke-linecap="round" stroke-linejoin="round"/>
</svg>
