<svg width="16" height="16" viewBox="0 0 16 16" fill="none" xmlns="http://www.w3.org/2000/svg">
<g clip-path="url(#clip0_464_2743)">
<path d="M8.00506 16.0101C7.79233 16.0097 7.58354 15.9528 7.40006 15.8451L5.46806 14.6851C5.18006 14.5221 5.32106 14.4631 5.41606 14.4301C5.72285 14.3344 6.01621 14.1999 6.28906 14.0301C6.31213 14.0193 6.3376 14.0146 6.363 14.0166C6.38841 14.0185 6.41288 14.027 6.43406 14.0411L7.91706 14.9351C7.94467 14.9502 7.97561 14.9581 8.00706 14.9581C8.03851 14.9581 8.06945 14.9502 8.09706 14.9351L13.8811 11.5471C13.9081 11.5303 13.9304 11.5069 13.9458 11.4791C13.9612 11.4513 13.9692 11.4199 13.9691 11.3881V4.60811C13.9691 4.57578 13.961 4.54396 13.9455 4.51563C13.9299 4.48729 13.9074 4.46338 13.8801 4.44611L8.10006 1.06111C8.07297 1.04559 8.04229 1.03742 8.01106 1.03742C7.97983 1.03742 7.94915 1.04559 7.92206 1.06111L2.13806 4.44811C2.1103 4.46483 2.08734 4.48844 2.07139 4.51665C2.05545 4.54486 2.04707 4.57671 2.04706 4.60911V11.3861C2.04696 11.418 2.05534 11.4493 2.07133 11.4769C2.08732 11.5045 2.11035 11.5273 2.13806 11.5431L3.72306 12.4721C4.58306 12.9081 5.10906 12.3941 5.10906 11.8781V5.18711C5.10893 5.16496 5.11318 5.14301 5.12156 5.12251C5.12994 5.10202 5.1423 5.08338 5.15791 5.06767C5.17353 5.05196 5.19209 5.0395 5.21254 5.03099C5.23299 5.02249 5.25491 5.01811 5.27706 5.01811H6.01006C6.03212 5.01824 6.05394 5.02272 6.07428 5.03128C6.09461 5.03984 6.11305 5.05233 6.12856 5.06802C6.14407 5.08372 6.15633 5.10231 6.16466 5.12274C6.17298 5.14318 6.17719 5.16505 6.17706 5.18711V11.8771C6.2097 12.1151 6.18892 12.3573 6.11622 12.5863C6.04353 12.8152 5.92074 13.025 5.75679 13.2006C5.59284 13.3761 5.39184 13.5129 5.16841 13.6011C4.94497 13.6892 4.7047 13.7265 4.46506 13.7101C3.99457 13.7183 3.53172 13.5905 3.13206 13.3421L1.61506 12.4561C1.42967 12.3456 1.27622 12.1887 1.16979 12.001C1.06337 11.8132 1.00763 11.6009 1.00806 11.3851V4.60811C1.00751 4.39239 1.0632 4.18024 1.16965 3.99261C1.27609 3.80497 1.42961 3.64832 1.61506 3.53811L7.40006 0.146111C7.58599 0.0426064 7.79526 -0.0117187 8.00806 -0.0117188C8.22086 -0.0117188 8.43013 0.0426064 8.61606 0.146111L14.4001 3.53811C14.5856 3.64835 14.7392 3.80497 14.8458 3.99258C14.9524 4.1802 15.0083 4.39233 15.0081 4.60811V11.3841C15.0081 11.6 14.9521 11.8122 14.8455 11.9999C14.7389 12.1876 14.5854 12.3445 14.4001 12.4551L8.61606 15.8451C8.43141 15.9535 8.22114 16.0104 8.00706 16.0101H8.00506ZM9.79206 11.3411C7.26006 11.3411 6.73006 10.1611 6.73006 9.17211C6.72938 9.14951 6.7333 9.127 6.74157 9.10596C6.74985 9.08492 6.76231 9.06577 6.77821 9.04969C6.79411 9.03361 6.8131 9.02092 6.83405 9.0124C6.85499 9.00387 6.87745 8.99969 6.90006 9.00011H7.64506C7.68541 9.00018 7.72439 9.01476 7.75487 9.04121C7.78535 9.06765 7.8053 9.10417 7.81106 9.14411C7.92406 9.91711 8.26006 10.3071 9.79106 10.3071C11.0091 10.3071 11.5281 10.0271 11.5281 9.37111C11.5281 8.99211 11.3821 8.71211 9.48706 8.52311C7.90506 8.36411 6.92506 8.00911 6.92506 6.72311C6.92506 5.53811 7.90906 4.83211 9.55806 4.83211C11.4111 4.83211 12.3281 5.48511 12.4441 6.88611C12.446 6.90964 12.4431 6.9333 12.4355 6.95566C12.4279 6.97802 12.4159 6.99859 12.4001 7.01611C12.3845 7.03332 12.3655 7.0471 12.3444 7.05657C12.3232 7.06604 12.3003 7.07099 12.2771 7.07111H11.5271C11.4889 7.07077 11.4521 7.05739 11.4226 7.03319C11.3931 7.009 11.3728 6.97544 11.3651 6.93811C11.1851 6.12511 10.7461 5.86511 9.55906 5.86511C8.22806 5.86511 8.07406 6.33511 8.07406 6.68811C8.07406 7.11611 8.25706 7.24011 10.0531 7.48111C11.8311 7.71911 12.6761 8.05711 12.6761 9.32511C12.6761 10.5931 11.6261 11.3371 9.79306 11.3371L9.79206 11.3411Z" fill="black"/>
</g>
<defs>
<clipPath id="clip0_464_2743">
<rect width="16" height="16" fill="white"/>
</clipPath>
</defs>
</svg>
