<svg width="16" height="16" viewBox="0 0 16 16" fill="none" xmlns="http://www.w3.org/2000/svg">
<g clip-path="url(#clip0_464_2748)">
<path d="M14.2394 12.4389L14.4644 12.3163L14.4961 12.062L15.4961 4.06202L15.5415 3.69923L15.2095 3.54602L8.70953 0.54602L8.5 0.449315L8.29047 0.54602L1.79047 3.54602L1.45851 3.69923L1.50386 4.06202L2.50386 12.062L2.53564 12.3163L2.76057 12.4389L8.26057 15.4389L8.5 15.5695L8.73943 15.4389L14.2394 12.4389ZM7.007 8.71H6.66566L6.54134 9.0279L5.96566 10.5H5.76451L8.50261 4.24148L11.236 10.5H11.0335L10.4532 9.02677L10.3285 8.71H9.988H7.007ZM8.96888 5.41094L8.506 4.2777L8.04312 5.41094L7.01912 7.91794L6.73767 8.607H7.482H9.53H10.2743L9.99288 7.91794L8.96888 5.41094Z" stroke="black"/>
</g>
<defs>
<clipPath id="clip0_464_2748">
<rect width="16" height="16" fill="white"/>
</clipPath>
</defs>
</svg>
