<svg width="70" height="70" viewBox="0 0 70 70" fill="none" xmlns="http://www.w3.org/2000/svg">
<circle cx="35" cy="35" r="35" fill="#FFE8AF"/>
<path d="M35.6711 23.3705C35.7389 23.3704 35.8067 23.3702 35.8766 23.37C36.1029 23.3696 36.3292 23.3697 36.5555 23.3697C36.7181 23.3695 36.8808 23.3693 37.0434 23.369C37.4388 23.3685 37.8343 23.3683 38.2297 23.3682C38.5514 23.3682 38.8731 23.3681 39.1948 23.3679C40.1083 23.3673 41.0218 23.3669 41.9353 23.367C42.009 23.367 42.009 23.367 42.0843 23.367C42.1335 23.367 42.1828 23.367 42.2335 23.367C43.031 23.367 43.8285 23.3664 44.6259 23.3654C45.4462 23.3644 46.2664 23.364 47.0867 23.364C47.5466 23.364 48.0066 23.3639 48.4665 23.3631C48.8993 23.3625 49.3321 23.3625 49.765 23.363C49.9233 23.363 50.0817 23.3629 50.2401 23.3625C51.6903 23.3589 52.8636 23.4105 53.9889 24.4286C54.5211 25.0168 54.9769 25.7329 54.9788 26.5524C54.9791 26.614 54.9794 26.6756 54.9797 26.739C54.9797 26.8401 54.9797 26.8401 54.9797 26.9433C54.9799 27.0151 54.9802 27.0869 54.9805 27.1609C54.9812 27.4023 54.9815 27.6438 54.9817 27.8852C54.9822 28.058 54.9826 28.2308 54.9831 28.4036C54.9844 28.9228 54.9851 29.442 54.9857 29.9612C54.986 30.2059 54.9864 30.4506 54.9868 30.6953C54.9879 31.5092 54.9889 32.3231 54.9894 33.137C54.9895 33.3481 54.9897 33.5593 54.9898 33.7704C54.9898 33.8229 54.9899 33.8754 54.9899 33.9294C54.9905 34.7788 54.9922 35.6282 54.9944 36.4776C54.9967 37.3503 54.9979 38.2231 54.9981 39.0958C54.9983 39.5855 54.9989 40.0752 55.0006 40.565C55.0022 41.0259 55.0025 41.4869 55.0018 41.9479C55.0017 42.1168 55.0022 42.2856 55.0031 42.4545C55.01 43.774 54.8958 44.8199 53.9463 45.826C53.0527 46.5673 52.143 46.7918 50.9984 46.7908C50.8959 46.7911 50.8959 46.7911 50.7914 46.7914C50.5634 46.792 50.3353 46.7921 50.1073 46.7922C49.9434 46.7925 49.7795 46.7928 49.6157 46.7932C49.171 46.7941 48.7264 46.7945 48.2818 46.7948C48.0038 46.795 47.7257 46.7953 47.4477 46.7956C46.6766 46.7965 45.9056 46.7972 45.1345 46.7974C45.0606 46.7974 45.0606 46.7974 44.9852 46.7974C44.9111 46.7975 44.9111 46.7975 44.8356 46.7975C44.7355 46.7975 44.6354 46.7975 44.5354 46.7976C44.4857 46.7976 44.4361 46.7976 44.385 46.7976C43.5814 46.7979 42.7778 46.7991 41.9741 46.8007C41.1475 46.8023 40.3209 46.8031 39.4942 46.8032C39.0307 46.8033 38.5672 46.8037 38.1038 46.8049C37.6675 46.806 37.2313 46.8062 36.795 46.8056C36.6355 46.8055 36.4759 46.8058 36.3163 46.8065C34.9235 46.8121 33.6717 46.7409 32.6088 45.7224C31.9706 45.0199 31.6266 44.162 31.6286 43.2143C31.6286 43.0893 31.6286 43.0893 31.6286 42.9619C31.629 42.873 31.6293 42.784 31.6297 42.6924C31.6298 42.5997 31.6299 42.507 31.63 42.4142C31.6302 42.1713 31.6309 41.9284 31.6316 41.6854C31.6323 41.4371 31.6327 41.1887 31.633 40.9404C31.6337 40.4539 31.6349 39.9675 31.6363 39.481C31.5722 39.4601 31.5081 39.4392 31.4421 39.4176C31.2479 39.3517 31.0776 39.276 30.8965 39.1809C30.8039 39.1325 30.8039 39.1325 30.7094 39.0831C30.6438 39.0484 30.5782 39.0136 30.5106 38.9778C30.4069 38.9233 30.4069 38.9233 30.3011 38.8678C29.7716 38.5885 29.246 38.3025 28.7213 38.0143C28.2746 37.7695 27.8244 37.5322 27.3722 37.2978C27.1105 37.1616 26.849 37.0251 26.5876 36.8884C26.4833 36.8339 26.4833 36.8339 26.377 36.7784C26.1695 36.6695 25.9628 36.5595 25.7561 36.4492C25.6612 36.3997 25.6612 36.3997 25.5645 36.3491C25.1545 36.1285 24.8505 35.9049 24.6773 35.4557C24.652 35.284 24.652 35.284 24.6474 35.0975C24.6447 35.0366 24.642 34.9757 24.6392 34.913C24.7126 34.5122 24.9112 34.2369 25.2388 34C25.328 33.9522 25.4181 33.9059 25.5088 33.8609C25.5603 33.8337 25.6119 33.8066 25.665 33.7786C25.7863 33.7148 25.908 33.6516 26.03 33.5889C26.2797 33.46 26.5279 33.3284 26.776 33.1965C27.1737 32.9851 27.5717 32.7745 27.97 32.5643C28.5152 32.2765 29.059 31.9861 29.6023 31.6947C29.6805 31.6528 29.7587 31.6109 29.8392 31.5678C30.1656 31.3928 30.4918 31.2175 30.8174 31.0409C30.8905 31.0015 30.8905 31.0015 30.9651 30.9612C31.0868 30.8954 31.2083 30.8293 31.3298 30.7632C31.4999 30.6798 31.4999 30.6798 31.6363 30.6798C31.6357 30.6043 31.6357 30.6043 31.635 30.5273C31.6308 30.0497 31.6277 29.572 31.6257 29.0944C31.6247 28.8489 31.6232 28.6034 31.6209 28.3579C31.6186 28.1204 31.6174 27.8828 31.6169 27.6452C31.6164 27.5119 31.6148 27.3786 31.6131 27.2453C31.6129 26.1383 31.9179 25.1621 32.6954 24.3521C33.5532 23.5715 34.5473 23.3686 35.6711 23.3705ZM33.3889 25.4477C32.9935 25.9431 32.8561 26.4831 32.8558 27.1074C32.8557 27.1515 32.8556 27.1956 32.8554 27.241C32.8551 27.3362 32.855 27.4315 32.855 27.5267C32.8547 27.7294 32.8533 27.9321 32.8519 28.1349C32.8493 28.5118 32.8472 28.8887 32.8473 29.2656C32.8474 29.5284 32.8458 29.7911 32.8431 30.0538C32.8424 30.1537 32.8423 30.2536 32.8428 30.3534C32.8435 30.4933 32.842 30.6329 32.8401 30.7727C32.8398 30.8521 32.8396 30.9315 32.8393 31.0134C32.7731 31.339 32.5718 31.4891 32.3034 31.6677C32.2523 31.695 32.2012 31.7223 32.1486 31.7504C32.09 31.782 32.0315 31.8136 31.9712 31.8462C31.9085 31.8792 31.8459 31.9123 31.7813 31.9463C31.7153 31.9817 31.6493 32.0171 31.5813 32.0535C31.0471 32.3391 30.5097 32.6185 29.972 32.8972C29.4642 33.161 28.9617 33.4337 28.4605 33.7097C27.8882 34.0237 27.3086 34.323 26.7264 34.6181C26.6578 34.6533 26.5892 34.6884 26.5186 34.7246C26.4273 34.7709 26.4273 34.7709 26.3342 34.8182C26.1881 34.904 26.0859 34.9888 25.9736 35.1145C26.9462 35.6408 27.921 36.1627 28.8988 36.6795C30.3087 37.425 30.3087 37.425 31.0023 37.7953C31.1202 37.8583 31.2382 37.921 31.3562 37.9837C32.553 38.6238 32.553 38.6238 32.7962 38.867C32.8138 39.0549 32.8138 39.0549 32.8147 39.2975C32.815 39.3417 32.8154 39.3859 32.8158 39.4314C32.8165 39.5275 32.8169 39.6236 32.817 39.7197C32.8172 39.8724 32.8184 40.0251 32.8198 40.1777C32.8235 40.6119 32.8256 41.046 32.8273 41.4802C32.8284 41.7458 32.8305 42.0114 32.8331 42.277C32.8339 42.3777 32.8343 42.4784 32.8343 42.5792C32.8344 43.4992 32.9528 44.2242 33.5872 44.9223C34.1661 45.467 34.8885 45.5633 35.649 45.5632C35.7509 45.5635 35.7509 45.5635 35.8549 45.5639C36.0827 45.5647 36.3106 45.5649 36.5385 45.5652C36.7018 45.5656 36.8651 45.5661 37.0284 45.5666C37.5186 45.5679 38.0088 45.5686 38.499 45.5692C38.7302 45.5695 38.9614 45.5699 39.1926 45.5702C39.9616 45.5714 40.7307 45.5724 41.4997 45.5729C41.6992 45.573 41.8986 45.5731 42.098 45.5733C42.1724 45.5733 42.1724 45.5733 42.2482 45.5734C43.0503 45.5739 43.8524 45.5757 44.6546 45.5779C45.4791 45.5801 46.3037 45.5814 47.1282 45.5816C47.5908 45.5817 48.0533 45.5823 48.5158 45.5841C48.9513 45.5856 49.3867 45.5859 49.8222 45.5852C49.9816 45.5852 50.1409 45.5856 50.3003 45.5866C51.7785 45.6095 51.7785 45.6095 53.0636 44.9431C53.597 44.3763 53.7623 43.768 53.7598 43.0111C53.7603 42.9055 53.7603 42.9055 53.7608 42.7979C53.7616 42.5622 53.7615 42.3265 53.7614 42.0908C53.7618 41.9218 53.7623 41.7528 53.7628 41.5838C53.7639 41.1724 53.7643 40.7609 53.7644 40.3495C53.7644 40.0149 53.7647 39.6804 53.7652 39.3458C53.7664 38.3965 53.767 37.4471 53.7669 36.4978C53.7669 36.4467 53.7669 36.3955 53.7669 36.3428C53.7669 36.266 53.7669 36.266 53.7669 36.1876C53.7668 35.358 53.7681 34.5284 53.77 33.6988C53.772 32.8463 53.7729 31.9937 53.7728 31.1412C53.7728 30.6628 53.7731 30.1845 53.7746 29.7061C53.776 29.2561 53.7759 28.8061 53.775 28.3561C53.7748 28.1911 53.7751 28.0262 53.776 27.8612C53.777 27.6356 53.7764 27.41 53.7753 27.1844C53.7764 27.0871 53.7764 27.0871 53.7775 26.9877C53.7711 26.3668 53.5674 25.7437 53.1276 25.29C52.4224 24.7112 51.7711 24.5973 50.8796 24.5981C50.8124 24.5979 50.7451 24.5977 50.6758 24.5975C50.451 24.5969 50.2263 24.5968 50.0015 24.5967C49.8401 24.5964 49.6787 24.5961 49.5173 24.5957C49.0335 24.5947 48.5497 24.5943 48.0659 24.594C47.8377 24.5938 47.6094 24.5935 47.3812 24.5933C46.6219 24.5924 45.8626 24.5917 45.1034 24.5915C45.0306 24.5915 45.0306 24.5915 44.9563 24.5915C44.9076 24.5914 44.859 24.5914 44.8089 24.5914C44.7103 24.5914 44.6117 24.5913 44.5132 24.5913C44.4643 24.5913 44.4154 24.5913 44.365 24.5913C43.5732 24.591 42.7814 24.5898 41.9896 24.5882C41.1755 24.5866 40.3613 24.5858 39.5472 24.5857C39.0906 24.5856 38.6339 24.5852 38.1773 24.584C37.7476 24.5829 37.318 24.5827 36.8883 24.5833C36.731 24.5834 36.5736 24.5831 36.4163 24.5824C34.749 24.5662 34.749 24.5662 33.3889 25.4477Z" fill="black"/>
<path d="M23.4696 17.0163C23.5321 17.016 23.5946 17.0157 23.659 17.0154C23.8678 17.0145 24.0765 17.0146 24.2853 17.0147C24.4353 17.0143 24.5853 17.0138 24.7352 17.0133C25.1422 17.0121 25.5492 17.0118 25.9562 17.0117C26.2106 17.0116 26.4651 17.0113 26.7195 17.011C27.5621 17.0098 28.4046 17.0091 29.2471 17.0092C29.2924 17.0092 29.3378 17.0092 29.3846 17.0093C29.43 17.0093 29.4754 17.0093 29.5222 17.0093C30.2577 17.0093 30.9933 17.008 31.7288 17.0061C32.4853 17.0041 33.2418 17.0032 33.9983 17.0033C34.4225 17.0033 34.8467 17.003 35.2709 17.0015C35.6701 17.0002 36.0693 17.0002 36.4686 17.0012C36.6146 17.0013 36.7607 17.001 36.9068 17.0002C38.1459 16.9936 39.1589 17.1734 40.0961 18.0579C40.8454 18.9612 41.0624 19.874 41.0683 21.0343C41.0704 21.139 41.0704 21.139 41.0726 21.2459C41.0759 21.8788 41.0759 21.8788 40.8466 22.1515C40.6741 22.324 40.5483 22.3119 40.3122 22.3261C40.0616 22.2615 39.9739 22.1561 39.8232 21.9468C39.7764 21.6953 39.7792 21.4473 39.7806 21.1921C39.762 20.3103 39.7115 19.5464 39.0727 18.8766C38.6298 18.5388 38.1881 18.3236 37.6272 18.3282C37.5657 18.3286 37.5042 18.3289 37.4409 18.3293C37.3706 18.3301 37.3706 18.3301 37.2988 18.3308C37.2426 18.4454 37.2426 18.4454 37.1853 18.5623C37.0453 18.8472 36.9046 19.1316 36.7637 19.416C36.703 19.5389 36.6425 19.6618 36.5821 19.7849C36.4951 19.9623 36.4073 20.1393 36.3194 20.3163C36.2928 20.3709 36.2662 20.4255 36.2388 20.4818C36.0233 20.9129 35.7942 21.2931 35.3544 21.5247C35.3044 21.5518 35.2545 21.579 35.203 21.607C34.924 21.7269 34.653 21.7507 34.3517 21.7522C34.2467 21.7529 34.2467 21.7529 34.1396 21.7537C34.0635 21.7538 33.9875 21.754 33.9091 21.7542C33.788 21.7549 33.788 21.7549 33.6646 21.7556C33.3976 21.7569 33.1306 21.7577 32.8636 21.7584C32.7713 21.7587 32.6791 21.759 32.5868 21.7592C32.1532 21.7605 31.7195 21.7615 31.2858 21.7621C30.7869 21.7627 30.2879 21.7645 29.789 21.7673C29.4023 21.7694 29.0156 21.7704 28.6288 21.7706C28.3984 21.7708 28.1679 21.7714 27.9375 21.7731C27.6798 21.7747 27.4222 21.7747 27.1646 21.7742C27.0893 21.7751 27.0141 21.776 26.9366 21.7769C26.3371 21.7729 25.7638 21.6694 25.3036 21.26C25.0337 20.9581 24.8596 20.6062 24.6813 20.2454C24.6464 20.1767 24.6115 20.108 24.5755 20.0371C24.472 19.8327 24.3697 19.6276 24.2677 19.4225C24.2097 19.3073 24.1517 19.1922 24.0936 19.0771C23.9686 18.8288 23.8448 18.5801 23.7218 18.3308C23.0757 18.2813 22.5694 18.4104 22.0631 18.8255C21.646 19.219 21.3592 19.6913 21.3167 20.272C21.3166 20.3594 21.3165 20.4467 21.3164 20.5367C21.3161 20.5858 21.3159 20.6349 21.3157 20.6855C21.315 20.8501 21.3154 21.0147 21.3157 21.1793C21.3154 21.2985 21.3151 21.4177 21.3147 21.5369C21.3139 21.8645 21.3139 22.1921 21.3141 22.5196C21.3141 22.8729 21.3134 23.2262 21.3127 23.5795C21.3116 24.2717 21.3112 24.9638 21.3111 25.656C21.3111 26.2186 21.3108 26.7812 21.3104 27.3438C21.3092 28.9388 21.3085 30.5337 21.3086 32.1286C21.3086 32.2146 21.3086 32.3006 21.3086 32.3892C21.3086 32.4753 21.3087 32.5614 21.3087 32.6501C21.3087 34.0455 21.3074 35.441 21.3055 36.8364C21.3035 38.269 21.3026 39.7016 21.3027 41.1343C21.3027 41.9386 21.3024 42.743 21.3009 43.5474C21.2997 44.2323 21.2994 44.9172 21.3003 45.602C21.3007 45.9514 21.3007 46.3008 21.2996 46.6502C21.2985 46.9702 21.2987 47.2902 21.2999 47.6103C21.3001 47.7259 21.2998 47.8415 21.2991 47.9571C21.294 48.7806 21.3651 49.4495 21.953 50.0728C22.4594 50.5339 22.9775 50.6908 23.6515 50.6883C23.7123 50.6886 23.7732 50.6889 23.8359 50.6892C24.0396 50.69 24.2432 50.6899 24.4468 50.6898C24.593 50.6902 24.7391 50.6907 24.8853 50.6912C25.2821 50.6924 25.6789 50.6927 26.0757 50.6928C26.3238 50.6929 26.5718 50.6932 26.8198 50.6936C27.6855 50.6948 28.5511 50.6954 29.4167 50.6953C30.223 50.6952 31.0293 50.6966 31.8357 50.6988C32.5284 50.7006 33.2211 50.7013 33.9138 50.7012C34.3273 50.7012 34.7408 50.7016 35.1544 50.703C35.5435 50.7044 35.9325 50.7044 36.3216 50.7034C36.4641 50.7032 36.6067 50.7035 36.7492 50.7044C37.7431 50.7295 37.7431 50.7295 38.6634 50.3971C38.7087 50.3713 38.7541 50.3456 38.8009 50.319C39.2833 50.0289 39.5352 49.5611 39.6697 49.0283C39.7116 48.8383 39.7501 48.6479 39.7878 48.4569C39.8312 48.2548 39.8707 48.1029 40.0023 47.941C40.2419 47.8401 40.4545 47.8276 40.7101 47.8727C40.8764 47.9708 40.8764 47.9708 40.983 48.1456C41.1532 48.8489 40.9526 49.6104 40.6078 50.2353C40.0524 51.1133 39.3309 51.6477 38.3278 51.9356C38.0805 51.989 37.8277 51.9764 37.5757 51.9763C37.5133 51.9766 37.451 51.9768 37.3868 51.9771C37.1774 51.9779 36.968 51.9781 36.7586 51.9784C36.6087 51.9788 36.4587 51.9793 36.3088 51.9797C35.8158 51.9812 35.3229 51.9819 34.8299 51.9826C34.6601 51.9828 34.4903 51.9831 34.3205 51.9834C33.5685 51.9846 32.8164 51.9856 32.0643 51.9861C31.9267 51.9862 31.7891 51.9863 31.6516 51.9864C31.5833 51.9865 31.5833 51.9865 31.5136 51.9865C30.7767 51.9871 30.0398 51.9888 29.3029 51.9911C28.5455 51.9933 27.7881 51.9945 27.0307 51.9948C26.6058 51.9949 26.1809 51.9955 25.756 51.9972C25.356 51.9988 24.9559 51.9991 24.5559 51.9984C24.4094 51.9984 24.263 51.9988 24.1166 51.9998C22.9089 52.0071 21.9225 51.8579 21.0099 50.9941C20.1745 50.1115 19.9963 49.135 20.003 47.9623C20.0027 47.8412 20.0022 47.7201 20.0017 47.5989C20.0006 47.2679 20.0011 46.9368 20.002 46.6058C20.0026 46.248 20.0016 45.8903 20.0009 45.5325C19.9997 44.8324 19.9999 44.1323 20.0007 43.4322C20.0013 42.8631 20.0014 42.294 20.0011 41.7249C20.0011 41.6438 20.001 41.5628 20.001 41.4792C20.0009 41.3145 20.0008 41.1498 20.0007 40.9851C19.9999 39.4415 20.0008 37.8978 20.0023 36.3542C20.0035 35.0304 20.0033 33.7066 20.0021 32.3828C20.0006 30.8446 20 29.3064 20.0009 27.7682C20.0009 27.6041 20.001 27.44 20.0011 27.2759C20.0012 27.1952 20.0012 27.1145 20.0012 27.0313C20.0015 26.463 20.0011 25.8947 20.0004 25.3265C19.9997 24.6337 19.9999 23.941 20.0013 23.2482C20.002 22.8949 20.0023 22.5417 20.0014 22.1884C20.0006 21.8646 20.0011 21.541 20.0025 21.2172C20.0028 21.1005 20.0027 20.9837 20.002 20.8669C19.9961 19.7357 20.2461 18.8256 21.0269 17.9769C21.6941 17.336 22.5507 17.0129 23.4696 17.0163ZM25.1546 18.2626C25.2911 18.6721 25.4591 19.0407 25.6492 19.4267C25.681 19.4936 25.7127 19.5605 25.7454 19.6294C25.7933 19.7266 25.7933 19.7266 25.8422 19.8257C25.8706 19.8842 25.899 19.9427 25.9283 20.0029C26.0747 20.2228 26.2182 20.389 26.4509 20.5141C26.7131 20.5636 26.9711 20.5593 27.2372 20.556C27.3159 20.5564 27.3946 20.5568 27.4757 20.5572C27.7355 20.558 27.9951 20.5563 28.2549 20.5546C28.4355 20.5545 28.6161 20.5545 28.7968 20.5546C29.1751 20.5546 29.5534 20.5532 29.9318 20.551C30.3688 20.5485 30.8058 20.5479 31.2428 20.5484C31.6638 20.5488 32.0849 20.5481 32.5059 20.5468C32.6848 20.5463 32.8637 20.5461 33.0426 20.5461C33.2925 20.546 33.5424 20.5446 33.7923 20.5427C33.9033 20.543 33.9033 20.543 34.0167 20.5433C34.4999 20.5439 34.4999 20.5439 34.9109 20.3094C35.044 20.111 35.044 20.111 35.1532 19.8763C35.1739 19.8345 35.1946 19.7927 35.216 19.7497C35.2593 19.6618 35.3023 19.5736 35.3447 19.4853C35.4099 19.3497 35.4764 19.2149 35.5432 19.0801C35.7676 18.6875 35.7676 18.6875 35.8661 18.2626C32.3313 18.2626 28.7965 18.2626 25.1546 18.2626Z" fill="black"/>
<path d="M45.2812 27.2002C45.3619 27.2283 45.4427 27.2565 45.5259 27.2855C47.0035 27.8596 48.0396 28.9784 48.7181 30.3855C49.0577 31.1578 49.1773 31.9201 49.1994 32.7571C49.2471 33.8764 49.575 34.8997 49.9376 35.9502C49.9821 36.0807 50.0264 36.2112 50.0706 36.3417C50.2474 36.8623 50.4245 37.3827 50.6059 37.9017C50.65 38.0297 50.6941 38.1578 50.7382 38.2859C50.7693 38.3734 50.7693 38.3734 50.8011 38.4626C50.9286 38.8359 51.0154 39.1784 50.8963 39.5691C50.6795 39.9846 50.4398 40.2149 49.9888 40.3678C49.8053 40.3842 49.8053 40.3842 49.6056 40.3833C49.5305 40.3833 49.4554 40.3833 49.378 40.3833C49.2576 40.3822 49.2576 40.3822 49.1347 40.3811C49.0518 40.3809 48.969 40.3808 48.8837 40.3806C48.6196 40.3798 48.3554 40.3781 48.0913 40.3763C47.912 40.3757 47.7328 40.375 47.5536 40.3745C47.1145 40.373 46.6754 40.3707 46.2364 40.3678C46.2369 40.4098 46.2374 40.4517 46.238 40.4949C46.2384 40.5501 46.2388 40.6052 46.2392 40.662C46.2397 40.7166 46.2403 40.7713 46.2408 40.8275C46.2248 41.3841 45.9105 41.8725 45.5541 42.2781C45.5199 42.3195 45.4857 42.3608 45.4504 42.4034C45.0532 42.846 44.4471 43.1929 43.8468 43.2454C42.8284 43.2746 42.0555 43.176 41.2559 42.4828C40.6901 41.8802 40.3624 41.1993 40.3689 40.3678C40.3013 40.3685 40.3013 40.3685 40.2323 40.3692C39.7619 40.3737 39.2915 40.3768 38.8211 40.3791C38.6457 40.3801 38.4702 40.3815 38.2948 40.3833C38.0423 40.3857 37.7898 40.3869 37.5373 40.3878C37.4592 40.3889 37.381 40.3899 37.3005 40.391C36.8239 40.3911 36.4462 40.3727 36.0734 40.0459C36.0415 40.0058 36.0097 39.9657 35.9769 39.9243C35.944 39.8842 35.9111 39.8441 35.8772 39.8028C35.6706 39.4977 35.693 39.151 35.7296 38.7986C35.8113 38.4713 35.9227 38.1554 36.0358 37.8379C36.0675 37.7462 36.0991 37.6544 36.1307 37.5626C36.2135 37.3223 36.2975 37.0824 36.3818 36.8426C36.5162 36.4598 36.6491 36.0764 36.7816 35.6929C36.8275 35.5606 36.874 35.4286 36.9207 35.2965C37.2133 34.4553 37.3869 33.6624 37.4309 32.7734C37.5461 30.9826 38.1472 29.4664 39.5125 28.2442C40.1074 27.7451 40.8011 27.3938 41.5288 27.132C41.5931 27.1087 41.6574 27.0855 41.7236 27.0616C42.8387 26.7366 44.1934 26.8143 45.2812 27.2002ZM39.8914 29.6563C39.8508 29.6946 39.8103 29.7328 39.7685 29.7723C39.5177 30.0298 39.3601 30.3416 39.1963 30.6584C39.1735 30.7017 39.1508 30.7451 39.1273 30.7897C38.7632 31.5265 38.6956 32.2923 38.6635 33.1016C38.5833 34.4934 38.0831 35.8114 37.6296 37.1164C37.5237 37.4217 37.4189 37.7274 37.3139 38.0331C37.2583 38.1948 37.2025 38.3564 37.1465 38.518C37.1217 38.5899 37.0968 38.6617 37.0712 38.7358C37.0382 38.8309 37.0382 38.8309 37.0045 38.9279C36.9541 39.0572 36.9541 39.0572 36.9576 39.1397C41.1453 39.1397 45.3331 39.1397 49.6477 39.1397C49.5359 38.6299 49.5359 38.6299 49.3863 38.1392C49.3623 38.07 49.3384 38.0007 49.3138 37.9293C49.2883 37.8564 49.2627 37.7835 49.2365 37.7083C49.1819 37.5499 49.1273 37.3915 49.0727 37.233C48.9873 36.9863 48.9016 36.7396 48.8158 36.493C48.4176 35.3472 48.078 34.2945 48.0145 33.0762C47.9135 31.5749 47.5293 30.271 46.3728 29.247C44.3651 27.5761 41.689 27.8423 39.8914 29.6563ZM41.597 40.3678C41.738 41.0024 41.8708 41.4432 42.4285 41.8006C42.8868 42.0609 43.4337 42.0994 43.9431 41.961C44.3647 41.7672 44.7361 41.4336 44.9358 41.0117C45.0285 40.7529 45.0285 40.7529 45.0083 40.3678C43.8826 40.3678 42.7568 40.3678 41.597 40.3678Z" fill="black"/>
<path d="M26.0794 48.409C26.1601 48.4086 26.2407 48.4082 26.3238 48.4078C26.4127 48.4077 26.5016 48.4076 26.5933 48.4076C26.6875 48.4072 26.7817 48.4069 26.876 48.4065C27.1324 48.4056 27.3888 48.4052 27.6452 48.4049C27.8054 48.4047 27.9656 48.4044 28.1257 48.4041C28.6267 48.4032 29.1277 48.4025 29.6287 48.4023C30.2073 48.402 30.7858 48.4008 31.3643 48.3988C31.8113 48.3973 32.2584 48.3966 32.7054 48.3965C32.9724 48.3965 33.2395 48.3961 33.5065 48.3948C33.7578 48.3937 34.0091 48.3936 34.2603 48.3942C34.3964 48.3942 34.5325 48.3933 34.6686 48.3923C34.7498 48.3927 34.831 48.3931 34.9147 48.3935C34.9851 48.3934 35.0556 48.3933 35.1282 48.3932C35.3533 48.423 35.4793 48.4889 35.6611 48.6232C35.8207 48.8626 35.8257 48.9556 35.7976 49.2373C35.6431 49.5533 35.6431 49.5533 35.4564 49.6466C35.3267 49.6539 35.1967 49.6567 35.0668 49.6576C34.9838 49.6583 34.9009 49.659 34.8154 49.6597C34.723 49.6601 34.6306 49.6605 34.5382 49.6609C34.4413 49.6615 34.3444 49.6622 34.2474 49.6629C33.9287 49.665 33.6099 49.6664 33.2911 49.6677C33.2368 49.6679 33.1826 49.6681 33.1268 49.6684C32.6156 49.6705 32.1045 49.6723 31.5933 49.6734C30.9392 49.6749 30.2851 49.6778 29.631 49.6825C29.1712 49.6858 28.7115 49.6874 28.2517 49.6879C27.977 49.6883 27.7023 49.6893 27.4277 49.692C27.1692 49.6945 26.9108 49.6951 26.6524 49.6942C26.5575 49.6942 26.4627 49.6949 26.3679 49.6963C25.6574 49.7067 25.6574 49.7067 25.43 49.561C25.2584 49.3699 25.2227 49.2462 25.2183 48.99C25.2955 48.7446 25.3639 48.6442 25.5637 48.4868C25.7435 48.3968 25.8779 48.4096 26.0794 48.409Z" fill="black"/>
</svg>
