<svg width="50" height="50" viewBox="0 0 50 50" fill="none" xmlns="http://www.w3.org/2000/svg">
<path d="M10.3027 0.917969C9.94141 1.07422 9.61914 1.42578 9.48242 1.78711C9.4043 1.97266 9.375 5.07812 9.375 11.582V21.0938H10.1562H10.9375V11.7188V2.34375H22.2559H33.584L33.6133 4.58008C33.6426 7.04102 33.6523 7.07031 34.3164 7.55859C34.5605 7.75391 34.7363 7.76367 36.8262 7.79297L39.0625 7.82227V14.0723V20.3125H39.8438H40.625V13.5059V6.68945L37.666 3.74023L34.7168 0.78125H22.6562C12.8223 0.791016 10.5371 0.810547 10.3027 0.917969ZM36.5723 4.88281L37.9395 6.25H36.543H35.1562V4.88281C35.1562 4.13086 35.166 3.51562 35.1855 3.51562C35.1953 3.51562 35.8203 4.13086 36.5723 4.88281Z" fill="black"/>
<path d="M23.6779 5.57584C18.8244 6.47428 16.0119 11.3571 17.6916 15.986C19.3712 20.6247 25.0939 22.5387 29.215 19.8337C30.924 18.7204 32.0275 17.1676 32.5939 15.0876C32.8185 14.2868 32.8185 12.2751 32.5939 11.4743C32.0177 9.38443 30.924 7.84147 29.2345 6.73795C27.6623 5.71256 25.465 5.25357 23.6779 5.57584ZM26.3146 7.1774C29.1173 7.76334 31.2462 10.3903 31.2462 13.2809C31.2462 15.5856 29.8498 17.8512 27.8087 18.8376C25.9142 19.7555 24.0783 19.7555 22.1837 18.8376C20.5626 18.0563 19.2736 16.3962 18.8927 14.5895C17.9552 10.1755 21.881 6.24967 26.3146 7.1774Z" fill="black"/>
<path d="M25.6816 12.3536L23.4844 14.5509L22.8008 13.8673L22.1074 13.1837L21.5508 13.7501L20.9844 14.3165L22.0586 15.3614C23.6113 16.8751 23.2598 17.0021 26.4336 13.8478C27.8496 12.4415 28.9922 11.2599 28.9922 11.2306C28.9824 11.2013 28.7285 10.9571 28.4258 10.6739L27.8691 10.1661L25.6816 12.3536Z" fill="black"/>
<path d="M37.4979 24.0737C35.8084 24.9038 34.3729 25.6558 34.3045 25.7437C34.119 25.9976 34.1483 26.4175 34.3729 26.8569C34.4803 27.0718 34.5682 27.2671 34.5682 27.2964C34.5682 27.394 33.4061 27.3452 32.5565 27.1987C31.5506 27.0229 30.2518 26.6421 28.4647 25.978C26.9022 25.4019 26.033 25.2456 24.8221 25.3237C22.6932 25.4702 20.7694 26.5151 19.0213 28.5073L18.4256 29.1909L17.8201 28.9663C17.4881 28.8491 17.0096 28.6245 16.7557 28.478C16.326 28.2241 16.3065 28.2046 16.4529 27.9995C16.6483 27.7163 16.6385 27.3159 16.4334 27.062C16.2869 26.896 10.7596 23.6538 10.5252 23.605C10.4178 23.5757 9.66584 24.8452 9.74396 24.9233C9.78302 24.9526 10.9158 25.6069 12.2537 26.3784C13.6014 27.1401 14.7049 27.7749 14.7244 27.7944C14.783 27.8237 8.79669 38.0386 8.7088 38.0679C8.65021 38.0874 7.52716 37.4819 6.2088 36.73C4.89044 35.978 3.7674 35.3433 3.7088 35.3335C3.60138 35.3042 2.84943 36.5737 2.92755 36.6519C2.95685 36.6714 4.29474 37.4429 5.91584 38.3706C9.12873 40.2163 9.12873 40.2065 9.61701 39.6304C9.89044 39.3081 9.85138 39.2983 10.6912 39.9331C11.0135 40.1675 11.2869 40.3726 11.3065 40.3823C11.3162 40.3921 11.2186 40.5972 11.0819 40.8315C10.7791 41.3589 10.7596 42.1499 11.0233 42.7261C11.326 43.4097 12.2244 44.0444 13.0545 44.1909C13.3768 44.2397 13.4842 44.3081 13.5721 44.5327C13.7088 44.8647 14.3826 45.5093 14.8514 45.7632C15.0858 45.8901 15.408 45.9487 15.9158 45.9487C16.619 45.9585 16.658 45.978 17.0389 46.3198C17.4979 46.7495 18.0643 47.0425 18.6307 47.1304C18.8553 47.1694 19.0408 47.2476 19.0408 47.3159C19.0408 47.5796 19.6268 48.2144 20.1736 48.5366C20.6619 48.8296 20.8279 48.8784 21.3358 48.8784C22.0389 48.8686 22.6151 48.605 23.0154 48.0972C23.1619 47.9116 23.3279 47.7554 23.367 47.7554C23.4158 47.7554 23.9627 48.0581 24.5877 48.439C26.2283 49.4155 26.8436 49.4936 27.8494 48.8882C28.2596 48.644 28.4158 48.4683 28.66 47.9995L28.9529 47.4136H29.5877C30.6033 47.4038 31.4822 46.7983 31.7361 45.9292L31.8533 45.5581H32.4979C32.9764 45.5483 33.2596 45.4897 33.5623 45.3335C34.0213 45.0894 34.5194 44.5327 34.6658 44.0835L34.7733 43.771L35.2811 43.9663C37.4197 44.7866 39.3143 42.2769 37.9666 40.4214L37.6736 40.021L38.0447 39.4839C38.3768 38.9956 39.4901 37.8921 39.6463 37.8921C39.6854 37.8921 39.8123 38.1167 39.9393 38.3901C40.2029 38.9468 40.4471 39.1616 40.8182 39.1616C40.9549 39.1616 42.3319 38.5464 43.8748 37.7944C45.4276 37.0522 46.824 36.3784 46.9803 36.3101C47.1365 36.2417 47.2635 36.1538 47.2635 36.105C47.2635 36.0366 46.6971 34.8647 46.6287 34.7866C46.6092 34.7671 45.408 35.3042 43.9627 35.978C42.5076 36.6519 41.2869 37.2085 41.2381 37.2085C41.199 37.1987 40.7596 36.3784 40.2713 35.3726C39.7733 34.3667 38.6014 31.9741 37.6541 30.0503L35.9354 26.5542L36.9412 26.0854C37.4881 25.8218 38.7186 25.2358 39.6756 24.7769L41.4139 23.937L41.0623 23.2437C40.8768 22.8726 40.6815 22.5601 40.6424 22.5698C40.6033 22.5698 39.1873 23.2534 37.4979 24.0737ZM28.074 27.4624C31.0233 28.5562 32.2244 28.8296 34.0506 28.8394L35.3397 28.8491L37.1561 32.5503L38.9725 36.2417L38.0545 37.1108C37.5467 37.5894 36.9705 38.2241 36.7654 38.5171L36.3944 39.0542L36.033 38.8394C35.8377 38.7222 34.5486 37.9214 33.1717 37.062L30.6619 35.4995L30.9256 35.3042C31.2967 35.0405 32.7127 33.6343 32.7127 33.5269C32.7127 33.4878 32.41 33.2827 32.0584 33.0776L31.4041 32.7065L30.9549 33.1851C30.4959 33.6831 29.783 34.2104 29.3436 34.3765C29.0994 34.4644 28.8455 34.3276 26.3455 32.7651C24.8319 31.8179 23.5135 31.0561 23.3865 31.0561C22.9861 31.0561 22.8494 31.1636 22.3709 31.8765C21.7752 32.7554 20.7596 33.7026 20.0272 34.0835C19.3143 34.4448 18.3182 34.6304 17.9471 34.4839C17.576 34.3472 17.5955 34.1421 18.0936 32.9019C18.7381 31.3101 19.4022 30.314 20.701 29.0054C21.6287 28.0679 21.951 27.8042 22.5565 27.5112C23.6795 26.9644 24.1971 26.8569 25.4861 26.896C26.5701 26.9253 26.658 26.9448 28.074 27.4624ZM17.2147 31.144C16.5018 32.3257 15.9451 34.1811 16.1209 34.7964C16.4139 35.8804 17.869 36.3979 19.4803 35.9878C20.5838 35.7046 21.4529 35.187 22.4197 34.23C22.908 33.7515 23.367 33.2534 23.4451 33.1265C23.5819 32.9019 23.6014 32.9116 30.076 36.9644C33.6502 39.2007 36.6483 41.1245 36.7557 41.2417C37.1268 41.6811 36.7557 42.5796 36.1893 42.5796C36.0819 42.5796 35.0858 42.0425 33.9822 41.3784C32.8787 40.7241 31.7752 40.0601 31.5213 39.9136L31.0721 39.6499L30.7108 40.2847C30.5154 40.6362 30.3787 40.9585 30.408 41.0073C30.4373 41.0464 31.0233 41.4077 31.7069 41.8081C32.3904 42.2085 33.035 42.6089 33.1229 42.6968C33.367 42.9409 33.3475 43.5073 33.1033 43.7515C32.7322 44.1226 32.4002 44.0151 30.5936 42.9214C29.6561 42.355 28.8846 41.896 28.8651 41.896C28.8162 41.896 28.1229 43.0679 28.1229 43.1558C28.1229 43.1948 28.6014 43.5269 29.1873 43.8784C30.3983 44.6206 30.5936 44.8843 30.3299 45.3921C29.9881 46.0464 29.6463 45.9683 27.6639 44.7769C26.7166 44.2104 25.9354 43.7612 25.9256 43.771C25.8475 43.8589 25.1932 44.9819 25.1932 45.0308C25.1932 45.0601 25.6522 45.3628 26.2088 45.7046C27.3123 46.3686 27.5272 46.6323 27.3514 47.1011C27.2928 47.2378 27.1365 47.4331 26.9901 47.521C26.6678 47.7358 26.4822 47.6772 25.2029 46.8862L24.2361 46.2905L24.1971 45.6069C24.1483 44.6499 23.8358 44.2202 22.8299 43.7124C22.1463 43.3706 22.0682 43.3022 22.0682 43.0483C22.0682 42.6089 21.8338 42.1694 21.3846 41.769C20.8963 41.3198 20.2811 41.0269 19.8514 41.0171C19.5779 41.0171 19.4998 40.9585 19.3338 40.6362C19.119 40.1968 18.5916 39.7378 17.9861 39.4351C17.6346 39.269 17.4393 39.2397 16.8924 39.2788C16.2576 39.3276 16.2186 39.3179 16.033 39.0737C15.9256 38.937 15.5838 38.6636 15.2713 38.478C14.783 38.1851 14.617 38.1362 14.1092 38.1362C13.4549 38.146 12.8397 38.3999 12.5174 38.8198C12.41 38.9565 12.2928 39.064 12.244 39.064C12.1658 39.064 10.7401 38.0093 10.7401 37.9507C10.7401 37.9214 11.8143 36.0464 13.1326 33.771L15.5154 29.6401L16.5311 30.1186L17.5369 30.6069L17.2147 31.144ZM14.6365 39.9038C14.8221 40.0601 14.9393 40.2456 14.9393 40.3921C14.9393 40.7144 13.7088 42.5503 13.4451 42.6186C13.074 42.7163 12.4002 42.2085 12.4002 41.8374C12.4002 41.6421 12.8201 40.9585 13.5428 39.9624C13.8358 39.5718 14.2166 39.5425 14.6365 39.9038ZM17.3123 40.8315C17.6736 41.0171 17.9666 41.3296 17.9666 41.5347C17.9666 41.7983 16.3065 44.2397 16.033 44.3667C15.8475 44.4546 15.7401 44.4155 15.3983 44.1811C15.1736 44.0249 14.9783 43.8003 14.9588 43.6831C14.9393 43.5464 15.2127 43.0483 15.7205 42.2866C16.7947 40.6753 16.8729 40.6069 17.3123 40.8315ZM20.1834 42.8335C20.6522 43.1851 20.6131 43.4585 19.9686 44.3765C19.2557 45.4116 19.1483 45.5093 18.8358 45.5093C18.4744 45.5093 17.9666 45.0698 17.9666 44.7573C17.9666 44.5522 18.7283 43.3218 19.2166 42.7456C19.4217 42.5112 19.8026 42.5405 20.1834 42.8335ZM22.2244 45.1284C22.5955 45.353 22.7322 45.7046 22.5858 46.0269C22.5272 46.144 22.3026 46.4761 22.0779 46.7495C21.6092 47.3452 21.4139 47.3843 20.867 47.0229C20.408 46.7104 20.3983 46.437 20.8182 45.8218C21.4627 44.855 21.6385 44.7671 22.2244 45.1284Z" fill="black"/>
<path d="M42.4121 33.5742L41.7188 33.9355L42.0703 34.6387L42.4316 35.332L43.1836 34.9512L43.9453 34.5703L43.6914 34.0039C43.5547 33.7012 43.418 33.3887 43.3887 33.3203C43.3105 33.1445 43.1836 33.1738 42.4121 33.5742Z" fill="black"/>
</svg>
