<svg width="80" height="80" viewBox="0 0 80 80" fill="none" xmlns="http://www.w3.org/2000/svg">
<g clip-path="url(#clip0_43_786)">
<path d="M24.7966 2.41919C25.0927 2.41835 25.3888 2.41723 25.6849 2.41588C26.4849 2.41304 27.2848 2.41413 28.0848 2.41611C28.9244 2.4177 29.764 2.41623 30.6036 2.41525C32.0132 2.41411 33.4227 2.4156 34.8323 2.41858C36.459 2.42199 38.0856 2.42088 39.7122 2.41744C41.1121 2.4146 42.5119 2.41421 43.9118 2.41584C44.7464 2.41681 45.5811 2.41695 46.4157 2.41488C47.2006 2.41307 47.9855 2.41434 48.7704 2.41794C49.0574 2.41876 49.3445 2.41854 49.6315 2.41715C51.8468 2.40745 53.6077 2.61892 55.2837 4.21882C56.8651 5.87539 57.0956 7.64063 57.0734 9.8482C57.0732 10.0963 57.0733 10.3444 57.0736 10.5925C57.0738 11.261 57.0702 11.9294 57.0658 12.5979C57.0619 13.2983 57.0615 13.9988 57.0608 14.6993C57.0588 16.0234 57.0537 17.3476 57.0474 18.6718C57.0404 20.1802 57.037 21.6887 57.0339 23.1972C57.0273 26.2982 57.0164 29.3991 57.0024 32.5001C57.1982 32.491 57.394 32.4819 57.5957 32.4726C57.8536 32.4653 58.1116 32.4582 58.3696 32.4512C58.563 32.4414 58.563 32.4414 58.7602 32.4314C59.7216 32.412 59.7216 32.412 60.2097 32.8725C60.4204 33.2467 60.5512 33.5386 60.6377 33.9564C60.6639 34.0786 60.69 34.2009 60.717 34.3269C60.7416 34.4523 60.7662 34.5778 60.7915 34.7071C60.8185 34.8338 60.8455 34.9605 60.8733 35.091C60.9782 35.5947 61.0649 36.0463 61.0649 36.5626C61.1906 36.5755 61.3163 36.5884 61.4458 36.6016C62.0465 36.7281 62.5155 36.9476 63.0577 37.2279C63.5192 37.3804 63.7287 37.3447 64.1899 37.1876C64.6492 36.8973 65.0905 36.5951 65.5281 36.2736C66.2579 35.7712 66.7418 35.6778 67.6274 35.7813C67.946 35.9437 67.946 35.9437 68.1938 36.1915C68.2945 36.2902 68.3952 36.3889 68.499 36.4905C68.6239 36.6174 68.7488 36.7443 68.8774 36.8751C69.0617 37.0493 69.2465 37.223 69.4316 37.3963C69.6312 37.5869 69.8306 37.7778 70.0298 37.9688C70.1266 38.0596 70.2234 38.1503 70.3231 38.2439C70.9242 38.8343 71.2477 39.2942 71.3774 40.1563C71.3097 40.4761 71.3097 40.4761 71.1528 40.7423C71.0944 40.8456 71.036 40.9489 70.9758 41.0554C70.8078 41.3194 70.6353 41.5806 70.4607 41.8403C70.3604 41.9903 70.2601 42.1404 70.1567 42.295C70.0102 42.5038 70.0102 42.5038 69.8607 42.7167C69.6151 43.2131 69.6425 43.3884 69.8149 43.9063C69.9686 44.3124 70.1382 44.7094 70.3087 45.1087C70.4399 45.4688 70.4399 45.4688 70.4399 45.9376C70.5305 45.954 70.6211 45.9705 70.7144 45.9875C71.1278 46.0637 71.5407 46.1422 71.9536 46.2208C72.0961 46.2467 72.2386 46.2725 72.3854 46.2992C73.9074 46.5925 73.9074 46.5925 74.5024 47.1876C74.5221 47.5987 74.5319 48.0055 74.5341 48.4168C74.535 48.5403 74.5359 48.6639 74.5368 48.7911C74.5383 49.053 74.5394 49.3149 74.5399 49.5769C74.5415 49.9778 74.5463 50.3786 74.5512 50.7795C74.5523 51.0336 74.5531 51.2877 74.5537 51.5418C74.5556 51.6619 74.5575 51.7821 74.5595 51.9058C74.5561 52.728 74.5561 52.728 74.3119 53.1128C73.9712 53.3192 73.6698 53.4095 73.2811 53.498C73.136 53.5317 72.9909 53.5655 72.8413 53.6002C72.6902 53.6336 72.539 53.6669 72.3833 53.7012C72.2315 53.7364 72.0797 53.7715 71.9234 53.8077C70.8088 54.0626 70.8088 54.0626 70.4399 54.0626C70.427 54.1883 70.4141 54.3139 70.4008 54.4434C70.2744 55.0442 70.0549 55.5132 69.7746 56.0554C69.6221 56.517 69.659 56.7258 69.8149 57.1876C70.0409 57.563 70.2698 57.9216 70.518 58.2813C71.3692 59.5146 71.3692 59.5146 71.3774 60.1563C71.0863 60.8359 70.7486 61.3116 70.2245 61.8293C70.0934 61.9595 69.9624 62.0897 69.8274 62.2239C69.6912 62.3569 69.5549 62.49 69.4145 62.627C69.2777 62.7631 69.1408 62.8991 68.9998 63.0393C67.8267 64.1979 67.8267 64.1979 67.0628 64.278C66.2509 64.2679 65.741 63.8873 65.0981 63.4278C64.3483 62.8498 64.3483 62.8498 63.4605 62.6661C63.2802 62.7386 63.2802 62.7386 63.0962 62.8126C62.8974 62.8878 62.8974 62.8878 62.6946 62.9646C62.4276 63.0784 62.1607 63.1924 61.8938 63.3063C61.5337 63.4376 61.5337 63.4376 61.0649 63.4376C61.0392 63.6107 61.0392 63.6107 61.013 63.7873C60.5653 66.6522 60.5653 66.6522 60.0774 67.309C59.6482 67.6214 59.2619 67.5835 58.7468 67.5642C58.4087 67.5001 58.4087 67.5001 58.0083 67.1778C57.4893 66.1173 57.8964 64.9092 58.1352 63.8087C58.1833 63.5688 58.1833 63.5688 58.2323 63.324C58.5622 61.7884 58.5622 61.7884 59.1899 61.2501C59.5926 61.0652 59.9635 60.9172 60.3813 60.7813C61.2684 60.4744 62.0898 60.1383 62.907 59.6693C63.3863 59.4779 63.6742 59.4607 64.1899 59.5313C64.6528 59.7527 65.0726 60.0276 65.4985 60.3126C65.6135 60.3871 65.7285 60.4616 65.847 60.5384C66.1292 60.7216 66.4097 60.9075 66.6899 61.0938C66.8663 60.9481 67.0419 60.8014 67.2173 60.6544C67.3151 60.5728 67.413 60.4912 67.5139 60.4072C67.8184 60.1435 67.8184 60.1435 68.0962 59.6876C67.9834 59.518 67.8706 59.3484 67.7544 59.1737C67.6078 58.9479 67.4613 58.7221 67.3149 58.4962C67.2404 58.3848 67.1659 58.2734 67.0891 58.1586C66.6693 57.505 66.3934 57.0497 66.5337 56.2501C66.6866 55.8653 66.8439 55.5129 67.0317 55.1466C67.4211 54.3662 67.7325 53.6071 67.9985 52.7735C68.3119 51.9465 68.3119 51.9465 68.698 51.6614C69.0715 51.5297 69.4232 51.466 69.8149 51.4063C70.1831 51.3198 70.5509 51.2318 70.9184 51.1426C71.2275 51.0736 71.5367 51.005 71.8462 50.9376C71.8462 50.3188 71.8462 49.7001 71.8462 49.0626C71.6504 49.0211 71.4546 48.9796 71.2529 48.9368C70.9949 48.8811 70.7369 48.8254 70.479 48.7696C70.2856 48.7288 70.2856 48.7288 70.0883 48.6872C69.901 48.6464 69.901 48.6464 69.7099 48.6048C69.5954 48.5803 69.4808 48.5557 69.3628 48.5304C68.5033 48.288 68.5033 48.288 68.2329 47.8226C68.1652 47.6406 68.1652 47.6406 68.0962 47.4549C68.0446 47.3206 67.993 47.1862 67.9399 47.0478C67.8884 46.907 67.8368 46.7662 67.7837 46.6212C67.68 46.3455 67.5759 46.07 67.4712 45.7947C67.395 45.5932 67.395 45.5932 67.3174 45.3875C67.1672 45.0209 66.9954 44.6805 66.8071 44.3323C66.5337 43.7901 66.4192 43.4279 66.5337 42.8126C66.7577 42.3509 67.0299 41.93 67.3149 41.504C67.3894 41.389 67.464 41.274 67.5407 41.1555C67.724 40.8733 67.9098 40.5927 68.0962 40.3126C67.9504 40.1362 67.8038 39.9605 67.6567 39.7852C67.5751 39.6873 67.4936 39.5895 67.4095 39.4886C67.1458 39.1841 67.1458 39.1841 66.6899 38.9063C66.5203 39.0191 66.3507 39.1319 66.176 39.2481C65.9502 39.3947 65.7244 39.5412 65.4985 39.6876C65.3871 39.7621 65.2757 39.8366 65.161 39.9134C64.5073 40.3332 64.0508 40.6156 63.2524 40.4688C62.8036 40.2995 62.3806 40.091 61.9536 39.8731C61.2337 39.5169 60.5417 39.1749 59.7661 38.9552C59.1015 38.7186 58.9467 38.549 58.5649 37.9688C58.4013 37.4415 58.4013 37.4415 58.2915 36.8751C58.2536 36.6882 58.2157 36.5012 58.1767 36.3087C58.1082 35.86 58.079 35.4523 58.0962 35.0001C57.7352 35.0001 57.3743 35.0001 57.0024 35.0001C57.0024 37.4751 57.0024 39.9501 57.0024 42.5001C57.518 42.5001 58.0337 42.5001 58.5649 42.5001C60.5014 42.8748 62.213 44.0795 63.355 45.6739C64.6151 47.6505 64.816 49.8376 64.3999 52.1265C63.8831 53.8462 62.7169 55.4231 61.2114 56.4063C60.6574 56.5949 60.3701 56.5874 59.8149 56.4063C59.4438 56.1524 59.4438 56.1524 59.1899 55.7813C59.0723 55.0754 59.1186 54.7894 59.5317 54.1993C59.7985 53.9137 60.0782 53.6484 60.3618 53.379C61.4846 52.2 61.7638 51.1189 61.7339 49.5118C61.6442 48.2768 61.1826 47.2662 60.2837 46.4063C59.4927 45.8102 58.81 45.4693 57.8317 45.2999C57.6765 45.2727 57.5213 45.2456 57.3614 45.2176C57.243 45.1973 57.1245 45.1771 57.0024 45.1563C57.003 45.2965 57.0036 45.4366 57.0042 45.581C57.018 48.9953 57.0283 52.4096 57.0348 55.8239C57.038 57.4751 57.0424 59.1262 57.0496 60.7774C57.0558 62.217 57.0598 63.6566 57.0612 65.0962C57.062 65.8581 57.0639 66.6199 57.0685 67.3817C57.0728 68.0998 57.074 68.8178 57.0731 69.5359C57.0733 69.7985 57.0745 70.061 57.0769 70.3236C57.0956 72.4657 56.8159 74.1763 55.2837 75.7813C53.4807 77.5025 51.5682 77.5923 49.2082 77.5809C48.9121 77.5818 48.616 77.5829 48.3199 77.5843C47.5199 77.5871 46.72 77.586 45.92 77.584C45.0804 77.5824 44.2409 77.5839 43.4013 77.5849C41.9917 77.586 40.5821 77.5845 39.1725 77.5816C37.5459 77.5782 35.9193 77.5793 34.2926 77.5827C32.8928 77.5855 31.4929 77.5859 30.093 77.5843C29.2584 77.5833 28.4238 77.5832 27.5891 77.5853C26.8042 77.5871 26.0193 77.5858 25.2344 77.5822C24.9474 77.5814 24.6604 77.5816 24.3734 77.583C22.1581 77.5927 20.3971 77.3812 18.7212 75.7813C17.1398 74.1247 16.9093 72.3595 16.9315 70.1519C16.9316 69.9038 16.9315 69.6557 16.9312 69.4076C16.931 68.7392 16.9347 68.0707 16.9391 67.4023C16.943 66.7018 16.9433 66.0014 16.9441 65.3009C16.946 63.9767 16.9511 62.6525 16.9574 61.3284C16.9644 59.8199 16.9678 58.3114 16.971 56.803C16.9775 53.702 16.9885 50.601 17.0024 47.5001C16.8066 47.5091 16.6109 47.5182 16.4092 47.5275C16.1512 47.5349 15.8932 47.542 15.6352 47.5489C15.5063 47.5554 15.3774 47.562 15.2446 47.5687C14.2833 47.5881 14.2833 47.5881 13.7951 47.1276C13.5844 46.7535 13.4536 46.4616 13.3672 46.0438C13.341 45.9215 13.3148 45.7993 13.2878 45.6733C13.2633 45.5478 13.2387 45.4223 13.2134 45.293C13.1729 45.103 13.1729 45.103 13.1316 44.9091C13.0267 44.4054 12.9399 43.9538 12.9399 43.4376C12.8142 43.4247 12.6886 43.4118 12.5591 43.3985C11.9583 43.272 11.4893 43.0526 10.9471 42.7723C10.4856 42.6198 10.2761 42.6554 9.81493 42.8126C9.35561 43.1029 8.91432 43.4051 8.47673 43.7266C7.74695 44.229 7.26301 44.3223 6.37743 44.2188C6.05882 44.0565 6.05882 44.0565 5.81102 43.8087C5.71031 43.71 5.6096 43.6113 5.50585 43.5096C5.38097 43.3827 5.25609 43.2558 5.12743 43.1251C4.9431 42.9509 4.75833 42.7772 4.57323 42.6038C4.37363 42.4132 4.17425 42.2224 3.97508 42.0313C3.87828 41.9406 3.78147 41.8498 3.68173 41.7563C3.08067 41.1658 2.75716 40.706 2.62743 39.8438C2.69518 39.524 2.69518 39.524 2.85204 39.2579C2.91045 39.1546 2.96886 39.0512 3.02904 38.9448C3.19708 38.6808 3.36957 38.4196 3.54418 38.1599C3.69463 37.9348 3.69463 37.9348 3.84813 37.7052C3.99466 37.4964 3.99466 37.4964 4.14415 37.2834C4.38973 36.787 4.3623 36.6117 4.18993 36.0938C4.03625 35.6877 3.86667 35.2907 3.69615 34.8914C3.56493 34.5313 3.56493 34.5313 3.56493 34.0626C3.47435 34.0461 3.38378 34.0296 3.29046 34.0126C2.87708 33.9365 2.46418 33.858 2.05126 33.7794C1.90875 33.7535 1.76625 33.7276 1.61943 33.7009C0.0974712 33.4076 0.0974712 33.4076 -0.497572 32.8126C-0.517226 32.4015 -0.527048 31.9947 -0.52931 31.5833C-0.530201 31.4598 -0.531092 31.3363 -0.532009 31.209C-0.533488 30.9471 -0.534507 30.6852 -0.535109 30.4233C-0.536624 30.0223 -0.541469 29.6215 -0.5464 29.2207C-0.54742 28.9665 -0.548241 28.7124 -0.548841 28.4583C-0.550771 28.3382 -0.5527 28.2181 -0.554688 28.0943C-0.551248 27.2722 -0.551248 27.2722 -0.307028 26.8873C0.0336499 26.681 0.335036 26.5906 0.723741 26.5021C0.868862 26.4684 1.01398 26.4347 1.1635 26.3999C1.31466 26.3666 1.46582 26.3332 1.62157 26.2989C1.77334 26.2638 1.9251 26.2286 2.08147 26.1924C3.19602 25.9376 3.19602 25.9376 3.56493 25.9376C3.58426 25.749 3.58426 25.749 3.60399 25.5567C3.73046 24.956 3.94993 24.487 4.23021 23.9448C4.38274 23.4832 4.34589 23.2744 4.18993 22.8126C3.96399 22.4372 3.73508 22.0785 3.4868 21.7188C2.63566 20.4856 2.63566 20.4856 2.62743 19.8438C3.06882 18.8218 3.76365 18.1584 4.54149 17.3829C4.67181 17.2481 4.80212 17.1134 4.93639 16.9746C6.19213 15.7149 6.19213 15.7149 7.15868 15.6251C7.55785 15.7325 7.55785 15.7325 7.92039 15.9376C8.11889 16.0469 8.11889 16.0469 8.3214 16.1585C8.83216 16.4751 9.32045 16.8174 9.79845 17.1815C10.2396 17.3992 10.4442 17.3315 10.9087 17.1876C11.3148 17.0339 11.7118 16.8643 12.1111 16.6938C12.4712 16.5626 12.4712 16.5626 12.9399 16.5626C12.957 16.4472 12.9742 16.3317 12.9918 16.2128C13.4396 13.3479 13.4396 13.3479 13.9275 12.6911C14.3566 12.3787 14.7429 12.4167 15.258 12.436C15.5962 12.5001 15.5962 12.5001 15.9966 12.8223C16.5204 13.8927 16.099 15.0943 15.8501 16.2012C15.8154 16.3625 15.7808 16.5237 15.7451 16.6898C15.4244 18.1433 15.4244 18.1433 15.1274 18.5938C14.8249 18.7696 14.8249 18.7696 14.4573 18.9063C14.2557 18.9837 14.2557 18.9837 14.0502 19.0626C13.9094 19.1141 13.7686 19.1657 13.6235 19.2188C13.3478 19.3224 13.0724 19.4266 12.7971 19.5313C12.6627 19.5821 12.5283 19.6328 12.3898 19.6851C12.0232 19.8353 11.6829 20.0071 11.3347 20.1954C10.7925 20.4688 10.4302 20.5833 9.81493 20.4688C9.35326 20.2448 8.93238 19.9726 8.50633 19.6876C8.39132 19.613 8.27632 19.5385 8.15782 19.4617C7.87562 19.2785 7.5951 19.0927 7.31493 18.9063C7.13853 19.0521 6.96289 19.1987 6.78758 19.3458C6.68969 19.4273 6.59181 19.5089 6.49095 19.593C6.18647 19.8567 6.18647 19.8567 5.90868 20.3126C6.02147 20.4822 6.13426 20.6518 6.25047 20.8265C6.39707 21.0522 6.54355 21.2781 6.68993 21.504C6.76445 21.6154 6.83897 21.7267 6.91576 21.8415C7.3355 22.4951 7.6114 22.9505 7.47118 23.7501C7.31824 24.1348 7.16088 24.4872 6.97313 24.8536C6.58481 25.6335 6.26816 26.396 5.99657 27.2266C5.68195 28.0515 5.68195 28.0515 5.34715 28.3387C5.0114 28.4767 4.70515 28.5357 4.34618 28.5938C3.95555 28.6817 3.56493 28.7696 3.1743 28.8575C2.83595 28.9268 2.49747 28.9955 2.15868 29.0626C2.15868 29.6813 2.15868 30.3001 2.15868 30.9376C2.35445 30.9791 2.55023 31.0206 2.75194 31.0633C3.00992 31.119 3.2679 31.1748 3.52586 31.2305C3.65477 31.2577 3.78368 31.2849 3.91649 31.3129C4.04137 31.3401 4.16625 31.3673 4.29491 31.3953C4.40946 31.4199 4.52402 31.4444 4.64205 31.4697C5.50153 31.7122 5.50153 31.7122 5.77196 32.1776C5.81708 32.2989 5.86219 32.4202 5.90868 32.5452C5.98602 32.7468 5.98602 32.7468 6.06493 32.9523C6.11649 33.0931 6.16805 33.2339 6.22118 33.379C6.32481 33.6546 6.42897 33.9301 6.53368 34.2054C6.58443 34.3398 6.63519 34.4742 6.68749 34.6126C6.83765 34.9793 7.00947 35.3196 7.19774 35.6678C7.47118 36.21 7.58565 36.5723 7.47118 37.1876C7.24711 37.6492 6.97499 38.0701 6.68993 38.4962C6.57814 38.6687 6.57814 38.6687 6.4641 38.8447C6.28085 39.1269 6.09501 39.4074 5.90868 39.6876C6.05442 39.864 6.20108 40.0396 6.34813 40.2149C6.4297 40.3128 6.51128 40.4107 6.59532 40.5115C6.85903 40.816 6.85903 40.816 7.31493 41.0938C7.48452 40.981 7.65411 40.8682 7.82884 40.752C8.0546 40.6054 8.28043 40.459 8.50633 40.3126C8.67341 40.2008 8.67341 40.2008 8.84386 40.0867C9.49745 39.667 9.95298 39.3904 10.7524 39.5313C11.1435 39.6876 11.5027 39.8483 11.8755 40.0391C12.7218 40.4572 13.553 40.8051 14.4603 41.0755C14.9449 41.314 15.149 41.5776 15.4399 42.0313C15.6035 42.5587 15.6035 42.5587 15.7134 43.1251C15.7512 43.312 15.7891 43.4989 15.8281 43.6915C15.8967 44.1402 15.9258 44.5479 15.9087 45.0001C16.2696 45.0001 16.6306 45.0001 17.0024 45.0001C17.0024 42.5251 17.0024 40.0501 17.0024 37.5001C16.4868 37.5001 15.9712 37.5001 15.4399 37.5001C13.5034 37.1253 11.7918 35.9207 10.6499 34.3262C9.38978 32.3496 9.18879 30.1625 9.60497 27.8736C10.1326 26.1179 11.2988 24.74 12.6958 23.5938C13.3142 23.3525 13.6997 23.4374 14.3462 23.5938C14.8056 23.9528 14.817 24.2294 14.9321 24.8048C14.9167 25.2677 14.8517 25.4291 14.5329 25.7728C14.2853 25.9787 14.0353 26.1819 13.7834 26.3825C12.9747 27.1083 12.3584 28.1617 12.2777 29.2536C12.2483 30.7744 12.4289 31.8748 13.272 33.1641C14.1447 33.9989 14.9798 34.4936 16.1732 34.7002C16.3284 34.7274 16.4835 34.7546 16.6434 34.7826C16.7619 34.8028 16.8804 34.823 17.0024 34.8438C17.0018 34.7037 17.0013 34.5635 17.0007 34.4191C16.9869 31.0048 16.9765 27.5905 16.97 24.1762C16.9668 22.525 16.9624 20.8739 16.9553 19.2227C16.949 17.7831 16.945 16.3436 16.9436 14.9039C16.9428 14.1421 16.9409 13.3803 16.9363 12.6184C16.9321 11.9004 16.9308 11.1823 16.9317 10.4643C16.9316 10.2017 16.9303 9.9391 16.9279 9.67653C16.9092 7.53444 17.189 5.82383 18.7212 4.21882C20.5242 2.49763 22.4366 2.4078 24.7966 2.41919ZM20.6542 6.19391C19.6586 7.29741 19.4832 8.36999 19.4823 9.83758C19.4821 9.94377 19.4818 10.0499 19.4815 10.1594C19.4808 10.5149 19.4812 10.8705 19.4815 11.2261C19.4812 11.4837 19.4809 11.7413 19.4805 11.9989C19.4795 12.7067 19.4795 13.4144 19.4797 14.1222C19.4797 14.8856 19.4789 15.6489 19.4781 16.4123C19.4768 17.9079 19.4764 19.4034 19.4763 20.8989C19.4762 22.1145 19.4759 23.3301 19.4754 24.5456C19.4741 27.9916 19.4733 31.4375 19.4735 34.8834C19.4735 35.0692 19.4735 35.255 19.4735 35.4464C19.4735 35.6324 19.4735 35.8185 19.4735 36.0101C19.4736 39.0251 19.4721 42.0401 19.4699 45.0552C19.4676 48.1506 19.4665 51.2459 19.4667 54.3413C19.4667 56.0793 19.4663 57.8173 19.4646 59.5553C19.4632 61.035 19.4628 62.5147 19.4639 63.9944C19.4644 64.7493 19.4644 65.5042 19.4631 66.2591C19.4618 66.9504 19.4621 67.6418 19.4634 68.3331C19.4637 68.5829 19.4634 68.8328 19.4625 69.0826C19.4106 71.4882 19.4106 71.4882 20.4399 73.5938C21.6292 74.7746 22.7376 75.0188 24.3997 75.021C24.5118 75.0213 24.6239 75.0217 24.7394 75.022C25.1133 75.023 25.4871 75.0229 25.861 75.0228C26.1297 75.0232 26.3985 75.0238 26.6673 75.0244C27.3963 75.0257 28.1253 75.0261 28.8542 75.0262C29.31 75.0263 29.7658 75.0266 30.2216 75.0271C31.8128 75.0285 33.404 75.0292 34.9952 75.029C36.4767 75.0289 37.9582 75.0306 39.4397 75.0331C40.7131 75.0351 41.9864 75.0359 43.2598 75.0358C44.0197 75.0358 44.7796 75.0362 45.5395 75.0379C46.2545 75.0394 46.9695 75.0394 47.6845 75.0383C47.9462 75.0381 48.2079 75.0385 48.4696 75.0394C50.9329 75.103 50.9329 75.103 53.0962 74.0626C54.2573 72.893 54.5216 71.7997 54.5225 70.1626C54.5229 70.0033 54.5229 70.0033 54.5233 69.8408C54.5241 69.4852 54.5237 69.1296 54.5233 68.774C54.5236 68.5164 54.524 68.2588 54.5244 68.0012C54.5253 67.2935 54.5253 66.5857 54.5251 65.8779C54.5251 65.1146 54.526 64.3512 54.5267 63.5878C54.528 62.0923 54.5284 60.5967 54.5285 59.1012C54.5286 57.8856 54.5289 56.6701 54.5294 55.4545C54.5308 52.0086 54.5315 48.5626 54.5314 45.1167C54.5314 44.9309 54.5314 44.7451 54.5314 44.5537C54.5314 44.2747 54.5314 44.2747 54.5314 43.99C54.5313 40.975 54.5328 37.96 54.535 34.945C54.5372 31.8496 54.5383 28.7542 54.5382 25.6588C54.5381 23.9208 54.5386 22.1828 54.5402 20.4448C54.5417 18.9652 54.542 17.4855 54.5409 16.0058C54.5404 15.2509 54.5404 14.496 54.5418 13.741C54.543 13.0497 54.5428 12.3584 54.5414 11.667C54.5412 11.4172 54.5415 11.1674 54.5423 10.9175C54.5943 8.51197 54.5943 8.51197 53.5649 6.40632C52.3757 5.22558 51.2672 4.98135 49.6051 4.97917C49.437 4.97864 49.437 4.97864 49.2654 4.9781C48.8916 4.97712 48.5177 4.97724 48.1439 4.97737C47.8751 4.9769 47.6063 4.97637 47.3375 4.97578C46.6086 4.9744 45.8796 4.97403 45.1506 4.97393C44.6948 4.97382 44.239 4.97349 43.7832 4.97307C42.192 4.97163 40.6009 4.97099 39.0097 4.97111C37.5282 4.97121 36.0467 4.96956 34.5652 4.96709C33.2918 4.96505 32.0184 4.96421 30.745 4.96431C29.9851 4.96435 29.2252 4.96391 28.4653 4.96225C27.7503 4.96073 27.0354 4.96073 26.3204 4.96186C26.0587 4.96202 25.797 4.96166 25.5353 4.96071C22.8803 4.89697 22.8803 4.89697 20.6542 6.19391Z" fill="#2B2323"/>
<path d="M43.5468 33.6626C44.835 34.0021 46.0859 35.7799 47.0136 36.7107C47.3057 37.0037 47.5987 37.2959 47.8918 37.588C48.0779 37.7742 48.264 37.9604 48.45 38.1468C48.5375 38.234 48.6251 38.3212 48.7153 38.4111C49.2441 38.9431 49.4748 39.1888 49.5785 39.9406C49.544 41.4007 47.5222 42.7824 46.5389 43.7623C46.2458 44.0545 45.9537 44.3475 45.6616 44.6406C45.4754 44.8267 45.2891 45.0128 45.1028 45.1988C45.0156 45.2863 44.9283 45.3739 44.8385 45.4641C44.0638 46.234 44.0638 46.234 43.2699 46.298C42.8083 46.2888 42.6425 46.2594 42.2348 46.0148C41.97 45.5736 41.8828 45.2212 41.9114 44.7051C42.0195 44.3031 42.1764 44.1118 42.4569 43.8053C42.6054 43.643 42.6054 43.643 42.7568 43.4774C43.3766 42.8284 44.0092 42.1931 44.6469 41.5617C44.7835 41.4257 44.9202 41.2898 45.061 41.1497C45.3946 40.8179 45.7286 40.4865 46.0629 40.1554C45.8163 39.5475 45.4011 39.1434 44.9392 38.6942C44.8603 38.6161 44.7813 38.538 44.7 38.4575C44.4486 38.2089 44.1963 37.9614 43.9438 37.714C43.6908 37.4654 43.4381 37.2166 43.1859 36.9672C43.0291 36.8124 42.8719 36.6579 42.7143 36.504C42.1829 35.9802 42.0129 35.7798 41.9516 35.0187C41.9608 34.557 41.9901 34.3913 42.2348 33.9835C42.6772 33.7181 43.0293 33.6305 43.5468 33.6626Z" fill="#2B2323"/>
<path d="M31.375 33.7494C31.7656 33.9838 31.7656 33.9838 32 34.3744C32.1145 34.9988 32.1707 35.3766 31.8048 35.9077C31.6755 36.0491 31.6755 36.0491 31.5435 36.1932C31.4445 36.3014 31.3455 36.4097 31.2436 36.5211C30.6238 37.1702 29.9912 37.8055 29.3535 38.4369C29.2169 38.5728 29.0802 38.7088 28.9394 38.8489C28.6058 39.1807 28.2718 39.5121 27.9375 39.8431C28.1841 40.451 28.5993 40.8552 29.0612 41.3043C29.1401 41.3825 29.2191 41.4606 29.3004 41.5411C29.5518 41.7897 29.8041 42.0372 30.0566 42.2845C30.3096 42.5332 30.5623 42.782 30.8145 43.0313C30.9713 43.1862 31.1285 43.3406 31.2861 43.4946C31.8175 44.0183 31.9874 44.2188 32.0488 44.9799C32.0396 45.4415 32.0103 45.6073 31.7656 46.015C31.3232 46.2805 30.9711 46.3681 30.4536 46.336C29.1654 45.9965 27.9145 44.2187 26.9868 43.2878C26.6947 42.9948 26.4017 42.7027 26.1086 42.4106C25.9225 42.2244 25.7364 42.0381 25.5504 41.8518C25.4629 41.7646 25.3753 41.6773 25.2851 41.5875C24.7563 41.0554 24.5256 40.8097 24.4219 40.058C24.4564 38.5979 26.4782 37.2162 27.4615 36.2362C27.7546 35.9441 28.0467 35.6511 28.3388 35.358C28.525 35.1719 28.7113 34.9858 28.8976 34.7998C28.9848 34.7122 29.0721 34.6247 29.1619 34.5345C29.8788 33.822 30.3523 33.6099 31.375 33.7494Z" fill="#2B2323"/>
<path d="M38.5757 33.6926C38.8736 33.7506 38.8736 33.7506 39.2642 33.9752C39.9572 35.1591 39.2888 36.8211 38.9737 38.0505C38.919 38.2677 38.8645 38.4849 38.81 38.7021C38.696 39.1548 38.5808 39.6072 38.4648 40.0593C38.3164 40.6378 38.1716 41.2171 38.0278 41.7967C37.9162 42.2444 37.8026 42.6916 37.6883 43.1386C37.6341 43.3521 37.5805 43.5657 37.5276 43.7795C37.4535 44.078 37.3763 44.3757 37.299 44.6733C37.256 44.8426 37.213 45.0118 37.1686 45.1862C36.9795 45.6748 36.7754 45.9194 36.3736 46.2506C35.7729 46.4102 35.2669 46.333 34.7329 46.026C34.0399 44.8421 34.7083 43.1801 35.0235 41.9507C35.0781 41.7335 35.1327 41.5163 35.1871 41.2991C35.3011 40.8464 35.4163 40.3941 35.5323 39.9419C35.6807 39.3634 35.8255 38.7841 35.9694 38.2045C36.0809 37.7568 36.1946 37.3096 36.3088 36.8626C36.3631 36.6491 36.4166 36.4355 36.4695 36.2217C36.5436 35.9232 36.6208 35.6255 36.6981 35.3279C36.7411 35.1586 36.7842 34.9894 36.8285 34.815C37.1775 33.9134 37.6529 33.6358 38.5757 33.6926Z" fill="#2B2323"/>
<path d="M33.4941 7.42003C33.6673 7.41806 33.8404 7.41609 34.0187 7.41406C34.2049 7.41533 34.3912 7.41659 34.583 7.4179C34.7749 7.4173 34.9667 7.4167 35.1644 7.41608C35.5699 7.41566 35.9755 7.41681 36.3811 7.41942C37.0025 7.42277 37.6237 7.41945 38.2451 7.41545C38.639 7.41587 39.0329 7.41667 39.4268 7.4179C39.613 7.41663 39.7992 7.41537 39.991 7.41406C40.2507 7.41702 40.2507 7.41702 40.5156 7.42003C40.6678 7.42053 40.82 7.42103 40.9767 7.42154C41.4926 7.5231 41.6792 7.72206 42.0049 8.1259C42.0879 8.4384 42.0879 8.4384 42.083 8.7509C42.0854 8.90559 42.0854 8.90559 42.0879 9.0634C41.9667 9.51953 41.741 9.70303 41.3799 10.0009C40.9767 10.0803 40.9767 10.0803 40.5156 10.0818C40.3425 10.0837 40.1694 10.0857 39.991 10.0877C39.8048 10.0865 39.6186 10.0852 39.4268 10.0839C39.139 10.0848 39.139 10.0848 38.8454 10.0857C38.4398 10.0861 38.0342 10.085 37.6287 10.0824C37.0072 10.079 36.3861 10.0824 35.7646 10.0864C35.3708 10.0859 34.9769 10.0851 34.583 10.0839C34.3968 10.0852 34.2106 10.0864 34.0187 10.0877C33.7591 10.0848 33.7591 10.0848 33.4941 10.0818C33.342 10.0813 33.1898 10.0808 33.033 10.0803C32.5172 9.97871 32.3305 9.77975 32.0049 9.3759C31.9219 9.0634 31.9219 9.0634 31.9268 8.7509C31.9243 8.59622 31.9243 8.59622 31.9219 8.4384C32.1384 7.62319 32.7197 7.42256 33.4941 7.42003Z" fill="#2B2323"/>
<path d="M11.217 64.6867C11.6663 64.9113 11.6663 64.9113 11.9983 65.3117C12.1408 65.9869 12.1234 66.5255 11.7444 67.1086C11.2844 67.3991 10.9807 67.4881 10.4358 67.4992C10.0721 67.3214 9.78448 67.1604 9.49829 66.8742C9.43092 66.3458 9.42446 65.8395 9.49829 65.3117C9.9963 64.6965 10.4416 64.5575 11.217 64.6867Z" fill="#2B2323"/>
<path d="M11.217 59.6867C11.6663 59.9113 11.6663 59.9113 11.9983 60.3117C12.1408 60.9869 12.1234 61.5255 11.7444 62.1086C11.2844 62.3991 10.9807 62.4881 10.4358 62.4992C10.0721 62.3214 9.78448 62.1604 9.49829 61.8742C9.43092 61.3458 9.42446 60.8395 9.49829 60.3117C9.9963 59.6965 10.4416 59.5575 11.217 59.6867Z" fill="#2B2323"/>
<path d="M11.217 54.6867C11.6663 54.9113 11.6663 54.9113 11.9983 55.3117C12.1408 55.9869 12.1234 56.5255 11.7444 57.1086C11.2844 57.3991 10.9807 57.4881 10.4358 57.4992C10.0721 57.3214 9.78448 57.1604 9.49829 56.8742C9.43092 56.3458 9.42446 55.8395 9.49829 55.3117C9.9963 54.6965 10.4416 54.5575 11.217 54.6867Z" fill="#2B2323"/>
<path d="M63.8773 22.5001C64.2679 22.7345 64.2679 22.7345 64.5023 23.1251C64.594 23.8468 64.5919 24.1959 64.2679 24.8439C63.7927 25.2241 63.5309 25.2389 62.9398 25.2296C62.5231 25.132 62.3053 24.9899 62.0023 24.6876C61.8449 23.9942 61.8836 23.3329 62.2367 22.715C62.7923 22.4094 63.2577 22.3782 63.8773 22.5001Z" fill="#2B2323"/>
<path d="M63.8773 17.5001C64.2679 17.7345 64.2679 17.7345 64.5023 18.1251C64.594 18.8468 64.5919 19.1959 64.2679 19.8439C63.7927 20.2241 63.5309 20.2389 62.9398 20.2296C62.5231 20.132 62.3053 19.9899 62.0023 19.6876C61.8449 18.9942 61.8836 18.3329 62.2367 17.715C62.7923 17.4094 63.2577 17.3782 63.8773 17.5001Z" fill="#2B2323"/>
<path d="M63.8773 12.5001C64.2679 12.7345 64.2679 12.7345 64.5023 13.1251C64.594 13.8468 64.5919 14.1959 64.2679 14.8439C63.7927 15.2241 63.5309 15.2389 62.9398 15.2296C62.5231 15.132 62.3053 14.9899 62.0023 14.6876C61.8449 13.9942 61.8836 13.3329 62.2367 12.715C62.7923 12.4094 63.2577 12.3782 63.8773 12.5001Z" fill="#2B2323"/>
</g>
<defs>
<clipPath id="clip0_43_786">
<rect width="80" height="80" fill="white"/>
</clipPath>
</defs>
</svg>
