<svg width="512" height="508" viewBox="0 0 512 508" fill="none" xmlns="http://www.w3.org/2000/svg">
<path d="M91.2647 376.211C71.5179 376.211 55.4533 392.275 55.4533 412.022C57.2534 459.461 125.273 459.459 127.066 412.022C127.066 392.275 111.006 376.211 91.2647 376.211ZM91.2647 427.833C82.5464 427.833 75.4541 420.739 75.4541 412.021C76.2491 391.08 106.274 391.076 107.065 412.021C107.065 420.739 99.9771 427.833 91.2647 427.833Z" fill="white"/>
<path d="M176.052 402.057C183.173 394.726 184.573 383.422 179.46 374.573L167.797 354.357C162.685 345.506 152.193 341.069 142.29 343.57L131.627 346.251C130.877 346.443 130.082 346.334 129.411 345.947C128.74 345.561 128.246 344.928 128.035 344.183L125.028 333.615C122.243 323.778 113.154 316.909 102.925 316.909H79.5943C69.3839 316.909 60.2975 323.771 57.4954 333.603L54.4862 344.18C54.2763 344.926 53.7826 345.561 53.1109 345.947C52.4393 346.334 51.6429 346.443 50.8921 346.25L40.2387 343.572C30.3172 341.073 19.8268 345.51 14.7326 354.358L3.06213 374.567C-2.05308 383.422 -0.653027 394.725 6.46126 402.051L14.1246 409.955C14.6653 410.507 14.9678 411.25 14.9672 412.023C14.9667 412.796 14.6631 413.538 14.1216 414.09L6.46726 421.984C-0.653027 429.317 -2.05308 440.621 3.06113 449.473L14.7256 469.672C19.8268 478.533 30.3182 482.971 40.2307 480.472L50.8921 477.792C51.6423 477.599 52.4382 477.707 53.1097 478.093C53.7811 478.48 54.2748 479.113 54.4852 479.859L57.4914 490.427C60.2745 500.258 69.3638 507.123 79.5943 507.123H102.925C113.155 507.123 122.244 500.257 125.024 490.438L128.033 479.862C128.243 479.115 128.736 478.48 129.408 478.093C130.08 477.706 130.877 477.597 131.628 477.791L142.282 480.469C152.19 482.97 162.684 478.533 167.8 469.679L179.458 449.473C184.573 440.619 183.173 429.315 176.062 421.993L168.412 414.094L168.406 414.088C167.864 413.534 167.562 412.79 167.563 412.016C167.564 411.242 167.87 410.499 168.413 409.947L176.052 402.057ZM154.043 428.01L161.704 435.919C162.152 436.385 162.436 436.984 162.514 437.625C162.592 438.267 162.459 438.916 162.136 439.476L150.478 459.682C150.151 460.242 149.652 460.68 149.054 460.932C148.457 461.183 147.794 461.234 147.165 461.076L136.506 458.396C124.391 455.351 112.221 462.373 108.797 474.387L105.783 484.98C105.604 485.599 105.228 486.143 104.713 486.53C104.197 486.917 103.57 487.126 102.925 487.125H79.5943C78.9478 487.125 78.319 486.914 77.8027 486.526C77.2863 486.137 76.9106 485.59 76.7321 484.969L73.721 474.384C70.3489 462.548 57.9574 455.395 46.0149 458.397L35.3475 461.079C34.7214 461.236 34.0612 461.184 33.4669 460.933C32.8726 460.681 32.3763 460.243 32.0533 459.684L20.3808 439.471C20.0585 438.91 19.9271 438.26 20.0064 437.618C20.0858 436.977 20.3716 436.378 20.8209 435.913L28.4792 428.016C37.1815 419.046 37.1805 404.996 28.4812 396.031L20.8149 388.125C20.3671 387.66 20.0827 387.062 20.0044 386.421C19.9262 385.78 20.0583 385.131 20.3808 384.572L32.0573 364.349C32.3814 363.791 32.8785 363.355 33.4732 363.106C34.0679 362.856 34.7277 362.808 35.3525 362.968L46.0109 365.647C58.1224 368.7 70.2979 361.673 73.72 349.656L76.7291 339.081C76.9074 338.458 77.2828 337.91 77.799 337.518C78.3152 337.127 78.9444 336.913 79.5923 336.91H102.923C104.247 336.91 105.422 337.796 105.785 339.076L108.796 349.659C112.219 361.674 124.389 368.699 136.504 365.648L147.171 362.966C147.798 362.809 148.459 362.86 149.054 363.111C149.65 363.362 150.148 363.799 150.474 364.357L162.138 384.574C162.46 385.135 162.591 385.787 162.511 386.429C162.431 387.072 162.143 387.671 161.693 388.136L154.049 396.029C145.351 404.993 145.348 419.039 154.043 428.01ZM299.865 418.183C302.942 414.262 302.594 408.477 299.071 404.95L271.646 377.523C267.741 373.62 261.409 373.619 257.504 377.523C253.598 381.429 253.597 387.761 257.504 391.667L267.858 402.021H217.579C212.056 402.021 207.579 406.5 207.579 412.022C207.579 417.544 212.056 422.022 217.579 422.022H267.857L257.504 432.376C253.598 436.281 253.597 442.613 257.504 446.519C261.357 450.37 267.793 450.372 271.646 446.519L299.071 419.094C299.354 418.807 299.619 418.503 299.865 418.183ZM301.843 91.7227C301.49 89.6953 300.523 87.8253 299.072 86.3655L271.647 58.9394C267.742 55.0362 261.41 55.0352 257.505 58.9394C253.599 62.8445 253.598 69.1768 257.505 73.083L267.859 83.4374H217.579C212.056 83.4374 207.579 87.9156 207.579 93.4378C207.579 98.96 212.056 103.438 217.579 103.438H267.857L257.504 113.792C253.598 117.697 253.597 124.029 257.504 127.935C261.357 131.786 267.793 131.788 271.646 127.935L299.071 100.51C301.357 98.223 302.394 94.9049 301.843 91.7227ZM92.7308 210.302C87.2076 210.302 82.7304 214.78 82.7304 220.302V261.809L72.377 251.455C68.4718 247.551 62.1395 247.551 58.2334 251.455C54.3282 255.36 54.3282 261.693 58.2334 265.599L85.6585 293.024C89.5187 296.884 95.9359 296.848 99.8011 293.024L127.226 265.599C131.131 261.694 131.132 255.361 127.226 251.455C123.321 247.552 116.989 247.551 113.084 251.455L102.729 261.81V220.302C102.731 214.78 98.254 210.302 92.7308 210.302ZM417.068 210.302C411.545 210.302 407.068 214.78 407.068 220.302V261.809L396.714 251.455C392.809 247.551 386.477 247.551 382.571 251.455C378.666 255.36 378.666 261.693 382.571 265.599L409.996 293.024C413.856 296.884 420.273 296.848 424.138 293.024L451.564 265.599C455.469 261.694 455.47 255.361 451.564 251.455C447.658 247.552 441.326 247.551 437.421 251.455L427.067 261.81V220.302C427.069 214.78 422.591 210.302 417.068 210.302ZM478.008 322.589H357.264C338.52 322.589 323.271 337.838 323.271 356.582V467.46C323.271 486.204 338.52 501.453 357.264 501.453H446.436C459.691 500.961 459.681 481.939 446.436 481.452H357.264C349.549 481.452 343.272 475.175 343.272 467.46V356.582C343.272 348.866 349.548 342.59 357.264 342.59H478.008C485.722 342.59 491.999 348.866 491.999 356.582V436.566C492.491 449.82 511.513 449.81 512 436.566V356.582C512 337.838 496.751 322.589 478.008 322.589ZM10.6584 188.633H171.862C177.385 188.633 181.862 184.155 181.862 178.632V148.691C181.862 117.609 159.155 91.7447 129.46 86.7805C135.461 78.7962 139.021 68.8798 139.021 58.1463V48.3249C136.612 -14.9656 45.8849 -14.9166 43.4988 48.3249V58.1463C43.4988 68.8798 47.0599 78.7962 53.0592 86.7805C23.365 91.7447 0.657027 117.61 0.657027 148.691V178.632C0.658027 184.156 5.13521 188.633 10.6584 188.633ZM63.4996 48.3249C64.8997 11.5384 117.633 11.5664 119.02 48.3249V58.1463C117.62 94.9329 64.8867 94.9049 63.4996 58.1463V48.3249ZM20.6588 148.691C20.6588 125.1 39.8516 105.907 63.4436 105.907H119.078C142.669 105.907 161.863 125.1 161.863 148.691V168.632H141.744V147.032C141.252 133.777 122.23 133.787 121.743 147.032V168.632H61.0535V147.032C60.5615 133.777 41.5397 133.787 41.0527 147.032V168.632H20.6588V148.691ZM419.698 185.169C470.594 185.169 512 143.763 512 92.8668C507.36 -29.4172 332.018 -29.3832 327.395 92.8678C327.395 143.762 368.802 185.169 419.698 185.169ZM419.698 20.5648C459.565 20.5648 491.999 53.0001 491.999 92.8668C488.364 188.652 351.016 188.626 347.396 92.8658C347.396 52.9991 379.831 20.5648 419.698 20.5648Z" fill="white"/>
<path d="M401.391 121.256C405.298 125.161 411.629 125.161 415.535 121.256L458.173 78.6183C462.078 74.7131 462.078 68.3809 458.173 64.4747C454.268 60.5706 447.935 60.5706 444.029 64.4747L408.464 100.04L394.904 86.4806C390.999 82.5765 384.667 82.5765 380.761 86.4806C376.855 90.3858 376.855 96.7181 380.761 100.624L401.391 121.256ZM451.101 375.73H381.213C367.958 376.223 367.968 395.244 381.213 395.731H451.101C464.355 395.239 464.345 376.218 451.101 375.73ZM381.213 426.694C367.958 427.186 367.968 446.207 381.213 446.694H417.636C430.891 446.202 430.881 427.181 417.636 426.694H381.213ZM503.792 480.994C500.346 472.727 488.153 473.025 485.145 481.455C482.093 490.006 491.588 497.983 499.476 493.515C503.832 491.049 505.686 485.618 503.792 480.994Z" fill="white"/>
</svg>
