<svg width="298" height="175" viewBox="0 0 298 175" fill="none" xmlns="http://www.w3.org/2000/svg">
<path d="M169.935 15.7757C176.025 21.1052 180.961 27.2474 184.717 34.4386C184.717 34.6838 184.717 34.929 184.717 35.1816C184.967 35.1758 185.217 35.17 185.474 35.164C201.252 34.8469 215.93 38.5174 228.593 48.185C228.935 48.4436 229.278 48.7022 229.631 48.9687C234.711 52.9573 239.14 57.6764 242.722 63.0459C243.503 63.245 243.503 63.245 244.417 63.2651C244.764 63.2872 245.112 63.3094 245.469 63.3322C246.031 63.3629 246.031 63.3629 246.603 63.3942C257.966 64.2106 268.944 67.7802 277.674 75.3062C278.176 75.7372 278.176 75.7372 278.688 76.177C279.606 76.9857 280.502 77.8121 281.393 78.6499C281.639 78.8721 281.885 79.0944 282.139 79.3233C291.041 87.6777 296.56 101.066 297.069 113.135C297.237 128.904 294.5 143.538 283.995 155.927C283.825 156.128 283.655 156.33 283.48 156.538C274.967 166.492 262.462 172.883 249.415 174.132C248.311 174.18 247.208 174.183 246.103 174.18C245.781 174.181 245.459 174.182 245.127 174.183C244.049 174.185 242.972 174.184 241.894 174.184C241.113 174.185 240.332 174.186 239.551 174.187C237.406 174.19 235.261 174.191 233.115 174.191C230.801 174.192 228.487 174.194 226.173 174.197C220.848 174.202 215.524 174.204 210.199 174.206C207.566 174.207 204.933 174.208 202.299 174.21C193.278 174.215 184.257 174.219 175.235 174.22C174.669 174.22 174.103 174.22 173.537 174.22C172.97 174.22 172.402 174.22 171.835 174.22C170.697 174.22 169.559 174.221 168.42 174.221C168.138 174.221 167.856 174.221 167.565 174.221C158.421 174.222 149.278 174.228 140.134 174.237C130.458 174.246 120.782 174.251 111.106 174.252C110.043 174.252 108.979 174.252 107.916 174.252C107.523 174.252 107.523 174.252 107.122 174.252C102.92 174.252 98.717 174.256 94.5145 174.262C90.2844 174.267 86.0544 174.268 81.8244 174.265C79.5357 174.264 77.247 174.264 74.9583 174.269C72.8585 174.274 70.7588 174.274 68.6591 174.269C67.9039 174.268 67.1487 174.27 66.3935 174.273C51.383 174.333 37.5299 169.897 25.5736 160.757C25.228 160.495 24.8824 160.233 24.5263 159.963C11.1901 149.469 3.10095 134.088 0.544762 117.451C-1.24599 100.539 2.72359 83.2475 13.3032 69.7334C13.5323 69.4288 13.7614 69.1242 13.9975 68.8103C19.7792 61.3925 26.8809 55.4289 35.2411 51.1572C35.4946 51.027 35.7481 50.8968 36.0093 50.7626C45.7719 45.8111 56.2774 43.5684 67.2185 43.7267C67.3182 43.4781 67.4179 43.2296 67.5206 42.9735C72.5789 30.5877 79.8084 19.4801 91.0156 11.7757C91.2343 11.6251 91.4529 11.4745 91.6781 11.3194C115.7 -4.9545 147.961 -3.06128 169.935 15.7757ZM93.2466 26.6366C92.9183 26.9383 92.59 27.24 92.2517 27.5509C84.3039 35.1834 77.8853 47.0762 77.5542 58.2335C77.468 64.5645 78.2821 70.3029 79.8607 76.4208C79.309 76.2351 79.309 76.2351 78.7462 76.0456C77.3842 75.5875 76.0217 75.1309 74.6591 74.6747C74.0689 74.4769 73.4789 74.2787 72.8889 74.0801C72.042 73.795 71.1946 73.5114 70.3471 73.228C70.0826 73.1386 69.818 73.0492 69.5454 72.9571C68.2249 72.4934 68.2249 72.4934 66.8467 72.334C65.6287 67.1152 65.0767 62.087 64.9875 56.73C54.0478 56.1513 43.2241 60.433 34.4975 66.7612C34.0136 67.1081 34.0136 67.1081 33.52 67.4621C22.3421 75.9444 15.2336 88.5861 13.3032 102.427C11.5444 115.668 15.2556 129.235 23.087 139.998C32.3753 151.969 44.872 159.304 59.919 161.276C63.2538 161.664 66.5839 161.654 69.9367 161.641C70.7025 161.643 71.4682 161.644 72.234 161.647C74.3147 161.651 76.3953 161.649 78.476 161.645C80.7291 161.643 82.9821 161.647 85.2351 161.65C89.3854 161.655 93.5357 161.654 97.686 161.651C101.521 161.648 105.355 161.648 109.19 161.649C109.445 161.649 109.7 161.649 109.963 161.649C111 161.649 112.036 161.65 113.072 161.65C122.774 161.654 132.476 161.651 142.177 161.645C150.783 161.639 159.389 161.64 167.995 161.645C177.681 161.651 187.368 161.653 197.055 161.65C198.089 161.65 199.123 161.649 200.156 161.649C200.411 161.649 200.665 161.649 200.928 161.649C204.759 161.647 208.591 161.649 212.422 161.652C216.781 161.655 221.14 161.654 225.499 161.648C227.72 161.645 229.942 161.644 232.164 161.648C234.201 161.651 236.238 161.649 238.276 161.643C239.009 161.642 239.742 161.643 240.476 161.645C252.824 161.688 263.412 158.388 272.469 149.611C280.71 141.407 284.424 129.603 284.507 118.194C284.413 106.519 280.242 95.9767 272.19 87.4968C266.867 82.3854 260.296 78.9019 253.133 77.1638C252.855 77.0938 252.576 77.0239 252.289 76.9518C248.916 76.217 245.527 76.3385 242.095 76.3743C241.469 76.3781 240.842 76.3815 240.216 76.3845C238.696 76.3926 237.177 76.4054 235.657 76.4208C235.462 76.0722 235.266 75.7237 235.065 75.3646C234.801 74.8981 234.537 74.4317 234.273 73.9652C234.145 73.7366 234.017 73.508 233.885 73.2724C231.739 69.489 228.968 66.2043 225.99 63.0459C225.767 62.7993 225.544 62.5526 225.314 62.2985C216.757 53.1936 203.723 48.2895 191.41 47.8135C182.025 47.7171 172.938 49.7272 165.91 56.2308C165.01 56.73 165.01 56.73 163.972 56.4501C162.838 56.0098 161.737 55.5363 160.635 55.0204C160.243 54.8384 159.851 54.6565 159.447 54.469C158.626 54.085 157.805 53.7009 156.983 53.3166C156.593 53.1356 156.203 52.9546 155.801 52.7681C155.445 52.6016 155.09 52.4351 154.723 52.2636C153.897 51.8524 153.897 51.8524 153.111 51.9002C153.97 50.2464 155.121 49.1181 156.527 47.9296C156.871 47.6392 156.871 47.6392 157.221 47.3429C161.61 43.7165 166.518 41.192 171.703 38.8969C171.512 37.1651 170.735 35.9954 169.727 34.6244C169.48 34.2847 169.48 34.2847 169.227 33.9382C161.036 22.9243 149.155 15.7124 135.611 13.4591C120.052 11.3596 104.788 16.0035 93.2466 26.6366Z" fill="#F80000"/>
<path d="M59.8957 92.1275C60.0519 92.1265 60.208 92.1255 60.3689 92.1245C60.8796 92.1216 61.3903 92.1202 61.901 92.119C62.0775 92.1185 62.254 92.1179 62.4358 92.1173C63.3705 92.1143 64.3051 92.1124 65.2397 92.1116C66.1958 92.1105 67.1518 92.1056 68.1078 92.0999C68.8512 92.0961 69.5946 92.0951 70.338 92.0948C70.69 92.0942 71.042 92.0926 71.3939 92.0899C74.2561 92.0697 77.1931 92.1457 79.746 93.5946C79.8817 93.6671 80.0175 93.7395 80.1574 93.8141C80.5003 93.9976 80.8407 94.1859 81.1807 94.3749C81.38 94.4746 81.38 94.4746 81.5834 94.5763C81.5834 94.7092 81.5834 94.8421 81.5834 94.979C81.6955 95.0247 81.8077 95.0704 81.9232 95.1174C82.5288 95.4612 82.919 95.8787 83.3957 96.3885C83.5062 96.5004 83.6168 96.6123 83.7307 96.7276C86.1364 99.2763 86.9066 102.636 86.8188 106.054C86.5997 109.671 85.0474 112.687 82.3889 115.115C81.7446 115.64 81.0869 116.097 80.3752 116.525C80.253 116.602 80.1307 116.68 80.0048 116.76C77.3673 118.266 74.2704 118.257 71.3328 118.243C70.9343 118.243 70.5358 118.244 70.1373 118.245C69.3074 118.246 68.4775 118.244 67.6476 118.241C66.5929 118.236 65.5384 118.239 64.4837 118.244C63.6624 118.246 62.8411 118.246 62.0198 118.243C61.6313 118.243 61.2428 118.244 60.8543 118.245C56.4796 118.262 52.8197 117.464 49.5668 114.31C48.9801 113.601 48.464 112.861 47.9559 112.095C47.8064 111.904 47.6569 111.713 47.5029 111.516C45.9322 108.711 45.6706 104.848 46.3576 101.737C47.4864 98.0803 49.7754 95.2749 53.1622 93.4633C55.3367 92.4285 57.5087 92.1313 59.8957 92.1275ZM52.6675 100.366C51.3919 101.99 51.0311 103.867 51.0849 105.893C51.276 107.468 51.894 108.973 52.7886 110.283C52.9215 110.283 53.0544 110.283 53.1913 110.283C53.2329 110.395 53.2744 110.507 53.3172 110.622C54.2179 112.137 55.9609 112.689 57.5576 113.213C58.2388 113.344 58.917 113.336 59.6081 113.339C59.8465 113.341 59.8465 113.341 60.0897 113.343C60.6154 113.347 61.141 113.349 61.6666 113.351C61.9372 113.352 61.9372 113.352 62.2133 113.353C63.1694 113.358 64.1255 113.361 65.0816 113.362C66.0633 113.365 67.0448 113.372 68.0265 113.38C68.7861 113.385 69.5457 113.387 70.3054 113.387C70.6668 113.388 71.0283 113.391 71.3898 113.394C74.164 113.421 76.8408 113.321 78.9657 111.289C80.6431 109.626 81.7319 107.578 81.7981 105.164C81.7587 104.709 81.6855 104.284 81.5834 103.839C81.5266 103.59 81.5266 103.59 81.4686 103.336C81.1554 102.154 80.6794 101.208 79.9725 100.214C79.8604 100.044 79.7482 99.8739 79.6327 99.6984C77.856 97.8257 75.7433 97.0595 73.2024 96.9657C72.8137 96.9646 72.8137 96.9646 72.4172 96.9634C72.273 96.9627 72.1287 96.962 71.9801 96.9613C71.5071 96.9594 71.0342 96.959 70.5612 96.9588C70.2294 96.9582 69.8977 96.9575 69.5659 96.9568C68.8718 96.9556 68.1777 96.9552 67.4836 96.9553C66.5987 96.9553 65.7139 96.9526 64.8291 96.9491C64.1441 96.9469 63.4591 96.9465 62.7741 96.9466C62.4481 96.9463 62.1221 96.9455 61.7962 96.9439C57.9729 96.9272 55.3372 97.4426 52.6675 100.366Z" fill="#EA232A"/>
<path d="M230.391 92.1008C230.806 92.102 231.221 92.1028 231.636 92.1034C232.716 92.1057 233.796 92.1116 234.876 92.1184C235.983 92.1246 237.09 92.1273 238.197 92.1303C240.36 92.1368 242.524 92.147 244.687 92.1598C244.352 93.039 243.908 93.794 243.391 94.5762C243.231 94.8194 243.072 95.0627 242.913 95.3061C242.843 95.4125 242.773 95.519 242.7 95.6286C242.449 96.0004 242.449 96.0004 242.244 96.5035C241.868 96.9925 241.868 96.9925 241.237 97.1185C240.846 97.1187 240.846 97.1187 240.448 97.1189C240.304 97.1204 240.16 97.1218 240.012 97.1234C239.536 97.1271 239.06 97.1239 238.583 97.1207C238.251 97.1224 237.918 97.1245 237.586 97.1271C236.709 97.1328 235.832 97.1329 234.955 97.1315C233.557 97.1301 232.159 97.1364 230.761 97.1441C230.275 97.1459 229.789 97.1448 229.304 97.1434C226.992 97.1443 224.916 97.3943 222.738 98.2007C222.738 98.3336 222.738 98.4665 222.738 98.6034C222.556 98.7239 222.373 98.8443 222.185 98.9684C221.431 99.4755 220.93 100.005 220.523 100.818C220.39 100.818 220.258 100.818 220.121 100.818C219.921 101.416 219.722 102.014 219.517 102.631C227.358 102.697 235.199 102.764 243.277 102.832C242.37 104.647 242.37 104.647 241.88 105.362C241.741 105.568 241.741 105.568 241.598 105.778C241.488 105.935 241.377 106.093 241.264 106.255C241.204 106.37 241.144 106.486 241.082 106.605C240.747 107.186 240.494 107.593 239.834 107.793C239.297 107.839 238.777 107.839 238.239 107.825C237.935 107.825 237.935 107.825 237.625 107.825C236.957 107.824 236.29 107.813 235.622 107.802C235.158 107.8 234.694 107.798 234.231 107.796C233.012 107.791 231.793 107.777 230.573 107.762C229.329 107.747 228.084 107.741 226.84 107.734C224.399 107.718 221.958 107.694 219.517 107.665C219.701 108.05 219.887 108.434 220.073 108.817C220.229 109.138 220.229 109.138 220.387 109.465C221.409 111.327 223.072 112.326 225.068 112.909C226.01 113.139 226.915 113.163 227.881 113.166C228.065 113.168 228.25 113.17 228.441 113.172C229.046 113.178 229.652 113.181 230.258 113.185C230.68 113.189 231.102 113.193 231.524 113.197C232.631 113.207 233.738 113.215 234.845 113.222C235.976 113.231 237.107 113.241 238.239 113.251C240.455 113.27 242.672 113.287 244.888 113.303C244.73 114.254 244.348 114.926 243.818 115.719C243.7 115.901 243.7 115.901 243.58 116.087C243.349 116.439 243.119 116.787 242.875 117.129C242.769 117.3 242.664 117.471 242.556 117.647C242.002 118.203 241.698 118.255 240.927 118.268C240.776 118.265 240.625 118.262 240.47 118.259C240.309 118.261 240.149 118.262 239.983 118.263C239.452 118.265 238.921 118.26 238.39 118.255C238.018 118.255 237.647 118.255 237.276 118.255C236.496 118.255 235.716 118.251 234.937 118.245C233.945 118.237 232.953 118.236 231.961 118.237C231.192 118.238 230.424 118.235 229.656 118.232C229.291 118.231 228.926 118.23 228.561 118.23C225.858 118.228 223.239 118.129 220.8 116.827C220.573 116.708 220.347 116.59 220.113 116.468C219.61 116.176 219.147 115.901 218.711 115.518C218.711 115.385 218.711 115.252 218.711 115.115C218.599 115.069 218.487 115.024 218.371 114.977C217.772 114.637 217.358 114.216 216.899 113.706C216.899 113.573 216.899 113.44 216.899 113.303C216.766 113.303 216.633 113.303 216.496 113.303C216.039 112.666 215.671 111.972 215.288 111.289C215.21 111.157 215.132 111.025 215.051 110.889C213.491 108.076 213.476 104.429 214.286 101.377C215.35 97.8479 217.826 95.1778 221.014 93.4309C223.988 92.0219 227.167 92.0747 230.391 92.1008Z" fill="#EA2229"/>
<path d="M90.0927 92.1331C90.2781 92.1322 90.4636 92.1314 90.6546 92.1305C90.9623 92.1306 90.9623 92.1306 91.2762 92.1308C91.5984 92.1297 91.5984 92.1297 91.9271 92.1287C92.642 92.1268 93.3568 92.1264 94.0717 92.1262C94.5677 92.1255 95.0637 92.1249 95.5597 92.1242C96.6023 92.1229 97.6449 92.1226 98.6875 92.1227C100.021 92.1227 101.354 92.12 102.687 92.1165C103.713 92.1143 104.739 92.1139 105.765 92.114C106.256 92.1137 106.747 92.1128 107.239 92.1113C107.928 92.1093 108.618 92.1099 109.308 92.1111C109.509 92.11 109.71 92.1088 109.918 92.1077C111.675 92.1155 113.295 92.3194 114.869 93.1417C115.161 93.2904 115.161 93.2904 115.459 93.4421C116.029 93.7795 116.529 94.1329 117.021 94.5764C117.021 94.7093 117.021 94.8422 117.021 94.9791C117.154 94.9791 117.287 94.9791 117.424 94.9791C119.111 97.1903 119.842 99.4553 119.639 102.228C119.192 104.788 117.936 106.878 115.851 108.42C113.832 109.753 111.726 109.865 109.37 110.081C109.501 110.178 109.631 110.275 109.766 110.375C110.018 110.566 110.018 110.566 110.276 110.761C110.444 110.887 110.612 111.013 110.786 111.143C110.982 111.315 110.982 111.315 111.182 111.491C111.182 111.624 111.182 111.757 111.182 111.894C111.292 111.942 111.403 111.99 111.516 112.04C112.1 112.358 112.572 112.751 113.082 113.177C113.919 113.873 113.919 113.873 114.776 114.544C114.919 114.666 115.062 114.788 115.209 114.914C115.209 115.047 115.209 115.18 115.209 115.317C115.351 115.362 115.493 115.408 115.639 115.455C116.345 115.778 116.817 116.201 117.386 116.726C117.583 116.905 117.779 117.083 117.982 117.267C118.431 117.733 118.431 117.733 118.431 118.136C117.388 118.156 116.346 118.17 115.303 118.18C114.949 118.184 114.594 118.19 114.24 118.196C113.729 118.206 113.219 118.211 112.709 118.214C112.551 118.219 112.393 118.223 112.231 118.227C111.473 118.227 111.038 118.173 110.397 117.756C110.257 117.615 110.118 117.475 109.974 117.33C109.828 117.185 109.683 117.04 109.533 116.89C109.346 116.703 109.16 116.516 108.967 116.323C107.972 115.397 106.956 114.506 105.896 113.655C104.875 112.83 103.921 111.948 102.966 111.048C102.094 110.232 101.189 109.472 100.256 108.725C99.5135 108.111 98.8082 107.461 98.1051 106.802C97.6884 106.414 97.2777 106.047 96.8153 105.713C96.7055 105.626 96.5957 105.539 96.4825 105.45C96.4825 105.317 96.4825 105.184 96.4825 105.047C96.6656 105.046 96.8487 105.046 97.0374 105.045C98.7675 105.037 100.498 105.026 102.228 105.01C103.117 105.002 104.006 104.996 104.896 104.993C105.755 104.99 106.614 104.983 107.473 104.973C107.8 104.97 108.127 104.968 108.453 104.968C110.844 104.991 110.844 104.991 112.994 104.04C113.888 103.123 114.222 102.298 114.265 101.033C114.238 99.8627 113.894 99.1784 113.17 98.2638C111.409 96.8471 109.127 97.0983 106.99 97.091C106.664 97.0879 106.338 97.0845 106.012 97.0809C104.812 97.0693 103.611 97.0627 102.41 97.0556C99.7231 97.0349 97.036 97.0141 94.2676 96.9927C94.2676 103.97 94.2676 110.947 94.2676 118.136C92.5399 118.136 90.8122 118.136 89.0321 118.136C89.0276 114.779 89.0239 111.422 89.0217 108.064C89.0207 106.506 89.0192 104.947 89.0169 103.389C89.0149 102.031 89.0136 100.673 89.0132 99.3145C89.0129 98.595 89.0123 97.8755 89.0108 97.156C89.0092 96.3541 89.0092 95.5522 89.0093 94.7502C89.0085 94.51 89.0078 94.2697 89.0071 94.0221C89.0074 93.805 89.0076 93.5878 89.0079 93.3641C89.0077 93.1742 89.0075 92.9843 89.0074 92.7887C89.0521 92.0177 89.4129 92.1345 90.0927 92.1331Z" fill="#EA2027"/>
<path d="M140.581 92.7639C141.443 93.679 142.135 94.6603 142.783 95.734C142.96 96.0206 143.136 96.3072 143.312 96.5938C143.396 96.7317 143.481 96.8697 143.568 97.0119C144.349 98.2849 145.164 99.5366 145.977 100.789C147.189 102.658 148.387 104.537 149.57 106.424C149.758 106.722 149.947 107.019 150.138 107.315C150.277 107.532 150.277 107.532 150.418 107.752C150.501 107.881 150.584 108.009 150.67 108.142C150.85 108.47 150.85 108.47 150.85 108.873C150.983 108.873 151.116 108.873 151.253 108.873C151.551 109.324 151.551 109.324 151.895 109.943C153.068 112.011 154.375 113.988 155.714 115.952C155.862 116.17 156.009 116.388 156.161 116.613C156.3 116.816 156.439 117.019 156.581 117.229C156.891 117.733 156.891 117.733 156.891 118.136C151.446 118.615 151.446 118.615 150.189 117.859C149.55 117.174 149.24 116.383 148.973 115.496C148.829 115.092 148.644 114.788 148.399 114.437C148.031 113.907 148.031 113.907 148.031 113.504C147.867 113.512 147.703 113.52 147.534 113.529C145.979 113.602 144.425 113.657 142.869 113.692C142.069 113.711 141.271 113.736 140.471 113.778C135.307 114.038 135.307 114.038 134.035 113.153C133.276 112.322 132.825 111.392 132.488 110.323C132.298 109.764 132.298 109.764 131.721 108.873C135.974 108.806 140.227 108.74 144.608 108.672C143.612 107.077 142.615 105.482 141.588 103.839C140.241 101.599 140.241 101.599 139.673 100.641C139.364 100.122 139.044 99.6179 138.702 99.121C138.366 98.6034 138.366 98.6034 138.366 98.2007C138.233 98.2007 138.1 98.2007 137.963 98.2007C137.898 98.3958 137.898 98.3958 137.83 98.5948C137.459 99.4384 136.965 100.184 136.466 100.957C136.247 101.299 136.029 101.641 135.81 101.983C135.7 102.157 135.589 102.331 135.475 102.51C134.96 103.325 134.461 104.148 133.961 104.972C133.318 106.031 132.664 107.076 131.966 108.101C131.584 108.677 131.25 109.275 130.916 109.88C130.783 109.88 130.65 109.88 130.513 109.88C130.49 109.993 130.468 110.106 130.444 110.223C130.293 110.749 130.068 111.167 129.796 111.642C129.704 111.803 129.612 111.964 129.518 112.129C129.448 112.251 129.377 112.372 129.305 112.497C129.172 112.497 129.039 112.497 128.902 112.497C128.847 112.644 128.792 112.79 128.735 112.941C128.35 113.861 127.818 114.691 127.304 115.543C127.195 115.726 127.087 115.908 126.975 116.096C126.87 116.271 126.765 116.446 126.656 116.627C126.561 116.786 126.465 116.945 126.367 117.109C125.856 117.869 125.856 117.869 125.479 118.136C124.856 118.204 124.856 118.204 124.098 118.195C123.965 118.194 123.832 118.193 123.695 118.192C123.27 118.189 122.845 118.181 122.421 118.173C122.132 118.17 121.844 118.168 121.556 118.165C120.85 118.158 120.144 118.148 119.438 118.136C119.677 117.502 119.934 116.938 120.308 116.374C120.398 116.236 120.489 116.098 120.582 115.956C120.678 115.812 120.774 115.667 120.873 115.518C121.074 115.211 121.275 114.904 121.476 114.597C121.575 114.446 121.674 114.294 121.776 114.139C122.161 113.543 122.53 112.94 122.899 112.334C123.406 111.503 123.928 110.687 124.472 109.88C125.007 109.085 125.522 108.282 126.02 107.463C126.716 106.321 127.44 105.198 128.172 104.078C128.989 102.827 129.799 101.571 130.588 100.302C130.671 100.17 130.754 100.037 130.839 99.9005C130.995 99.6488 131.152 99.3969 131.308 99.1451C131.841 98.2883 132.382 97.4373 132.929 96.5898C133.02 96.4468 133.111 96.3037 133.205 96.1563C133.517 95.6657 133.833 95.1775 134.15 94.6895C134.25 94.5319 134.349 94.3744 134.452 94.2121C135.15 93.1456 135.778 92.4399 137.007 91.9962C138.266 91.9104 139.578 91.9282 140.581 92.7639Z" fill="#EA232A"/>
<path d="M170.464 92.1201C170.875 92.1209 171.287 92.1214 171.698 92.1218C172.773 92.1234 173.848 92.1273 174.923 92.1318C176.023 92.1359 177.123 92.1378 178.223 92.1398C180.376 92.1441 182.528 92.1509 184.681 92.1595C184.528 92.8285 184.302 93.3107 183.938 93.8962C183.842 94.0525 183.746 94.2087 183.646 94.3697C183.523 94.5706 183.399 94.7715 183.271 94.9785C183.181 95.222 183.181 95.222 183.09 95.4705C182.814 96.1052 182.567 96.5132 182.063 96.9921C180.935 97.2921 179.828 97.2453 178.668 97.2187C178.332 97.2184 177.995 97.2191 177.659 97.2207C176.773 97.2226 175.889 97.2129 175.003 97.2003C173.76 97.1847 172.517 97.1851 171.273 97.1836C170.612 97.1827 169.951 97.1776 169.29 97.1688C166.213 97.1376 163.678 97.5364 161.346 99.7074C159.698 101.669 159.132 103.937 159.309 106.456C159.55 107.653 160.099 108.668 160.721 109.709C160.92 110.081 160.92 110.081 160.92 110.483C161.1 110.565 161.1 110.565 161.283 110.649C161.719 110.883 162.002 111.123 162.355 111.465C163.967 112.886 165.944 113.129 168.007 113.142C168.284 113.145 168.284 113.145 168.567 113.149C169.176 113.155 169.785 113.16 170.394 113.165C170.817 113.169 171.24 113.173 171.663 113.178C172.775 113.189 173.887 113.199 174.999 113.208C176.134 113.218 177.269 113.23 178.404 113.241C180.631 113.262 182.857 113.283 185.084 113.302C184.909 114.104 184.563 114.681 184.127 115.379C183.923 115.708 183.923 115.708 183.715 116.044C183.642 116.155 183.569 116.266 183.494 116.38C183.344 116.614 183.2 116.852 183.065 117.095C182.825 117.489 182.595 117.812 182.264 118.135C181.652 118.278 181.253 118.322 180.642 118.305C180.482 118.306 180.321 118.307 180.156 118.308C179.625 118.31 179.095 118.302 178.565 118.294C178.194 118.293 177.823 118.292 177.452 118.292C176.674 118.291 175.895 118.285 175.117 118.275C174.126 118.262 173.136 118.258 172.145 118.258C171.378 118.257 170.611 118.253 169.844 118.247C169.479 118.245 169.114 118.243 168.75 118.242C164.401 118.223 160.885 117.508 157.698 114.309C157.52 114.151 157.341 113.994 157.157 113.831C154.497 110.811 153.818 107.323 154.018 103.42C154.344 99.9738 156.311 96.9944 158.932 94.8251C162.406 92.1874 166.293 92.0975 170.464 92.1201Z" fill="#EA242B"/>
<path d="M187.097 92.1598C188.825 92.1598 190.552 92.1598 192.332 92.1598C192.332 99.137 192.332 106.114 192.332 113.303C199.841 113.303 207.35 113.303 215.086 113.303C214.9 114.236 214.738 114.617 214.23 115.379C213.719 116.13 213.719 116.13 213.295 116.929C213.063 117.408 212.845 117.757 212.469 118.136C211.719 118.375 210.992 118.348 210.211 118.331C209.983 118.333 209.755 118.334 209.52 118.336C208.766 118.339 208.013 118.33 207.259 118.321C206.735 118.32 206.211 118.32 205.687 118.32C204.589 118.319 203.491 118.312 202.393 118.301C201.126 118.289 199.858 118.284 198.59 118.285C197.369 118.285 196.147 118.281 194.926 118.275C194.407 118.272 193.888 118.271 193.369 118.27C192.644 118.268 191.918 118.261 191.193 118.253C190.871 118.253 190.871 118.253 190.543 118.254C189.373 118.233 188.592 118.17 187.701 117.33C186.905 116.246 187.016 115.074 187.028 113.785C187.028 113.551 187.028 113.317 187.028 113.076C187.028 112.305 187.033 111.534 187.038 110.762C187.039 110.227 187.04 109.691 187.04 109.156C187.042 107.891 187.047 106.627 187.053 105.363C187.06 103.923 187.063 102.483 187.066 101.043C187.073 98.0817 187.084 95.1207 187.097 92.1598Z" fill="#EA232A"/>
<path d="M251.004 92.3737C251.821 92.9771 252.254 93.6315 252.408 94.6256C252.452 95.7681 252.213 96.6143 251.47 97.5123C250.809 98.0665 249.954 98.1266 249.116 98.2006C247.993 98.0348 247.415 97.6692 246.7 96.791C246.188 95.9766 246.26 95.1868 246.376 94.2622C246.598 93.3713 247.091 92.8151 247.88 92.3335C248.882 91.9287 249.995 92.056 251.004 92.3737ZM248.311 93.3679C249.042 93.4343 249.773 93.5008 250.526 93.5692C250.54 94.1808 250.539 94.7208 250.4 95.3186C250.261 95.8383 250.261 95.8383 250.727 96.3883C250.86 96.3883 250.993 96.3883 251.13 96.3883C251.496 95.8491 251.532 95.5546 251.52 94.8907C251.297 94.0428 250.992 93.7198 250.324 93.1665C249.588 92.7986 248.897 92.782 248.311 93.3679ZM247.908 93.5692C247.352 94.3257 247.187 94.8499 247.304 95.7842C247.569 96.3554 247.569 96.3554 247.908 96.791C247.974 96.791 248.041 96.791 248.109 96.791C248.109 95.7278 248.109 94.6647 248.109 93.5692C248.043 93.5692 247.976 93.5692 247.908 93.5692ZM248.915 94.1733C248.915 94.3727 248.915 94.572 248.915 94.7774C249.181 94.711 249.446 94.6445 249.72 94.5761C249.72 94.4432 249.72 94.3103 249.72 94.1733C249.454 94.1733 249.189 94.1733 248.915 94.1733ZM248.915 95.5829C248.915 95.9816 248.915 96.3803 248.915 96.791C248.715 96.8575 248.516 96.9239 248.311 96.9924C248.917 97.2958 249.455 97.2295 250.123 97.1938C250.256 97.0609 250.389 96.928 250.526 96.791C250.326 96.7246 250.127 96.6581 249.922 96.5897C249.718 96.2555 249.516 95.92 249.317 95.5829C249.185 95.5829 249.052 95.5829 248.915 95.5829Z" fill="#EF6065"/>
<path d="M89.6073 92.135C89.8543 92.1353 89.8543 92.1353 90.1062 92.1356C90.3888 92.1352 90.3888 92.1352 90.677 92.1348C90.8853 92.1355 91.0935 92.1362 91.3081 92.137C91.5262 92.1369 91.7442 92.1369 91.9688 92.1369C92.6934 92.137 93.4179 92.1386 94.1425 92.1402C94.6433 92.1405 95.1441 92.1408 95.645 92.141C96.8309 92.1417 98.0169 92.1433 99.2028 92.1453C100.685 92.1478 102.167 92.1489 103.649 92.15C106.294 92.1521 108.94 92.1556 111.585 92.1598C111.518 92.2927 111.452 92.4256 111.383 92.5625C104.14 92.5625 96.8973 92.5625 89.4349 92.5625C89.4349 101.002 89.4349 109.441 89.4349 118.136C89.302 118.136 89.1691 118.136 89.0321 118.136C89.0274 114.778 89.0239 111.421 89.0217 108.064C89.0207 106.506 89.0192 104.947 89.0169 103.388C89.0149 102.03 89.0136 100.672 89.0132 99.3143C89.0129 98.5948 89.0123 97.8753 89.0108 97.1558C89.0092 96.3539 89.0092 95.552 89.0093 94.75C89.0085 94.5098 89.0078 94.2695 89.0071 94.0219C89.0074 93.8048 89.0076 93.5876 89.0079 93.3639C89.0077 93.174 89.0075 92.9841 89.0074 92.7885C89.0388 92.2464 89.0646 92.171 89.6073 92.135Z" fill="#F28286"/>
<path d="M219.113 107.262C226.157 107.262 233.201 107.262 240.458 107.262C240.391 107.395 240.325 107.528 240.256 107.665C233.412 107.665 226.568 107.665 219.516 107.665C219.45 107.864 219.383 108.064 219.315 108.269C219.248 107.937 219.182 107.604 219.113 107.262Z" fill="#F06A6E"/>
<path d="M248.108 93.5691C248.64 93.5691 249.171 93.5691 249.719 93.5691C249.453 93.6355 249.187 93.702 248.914 93.7705C248.914 94.1027 248.914 94.4349 248.914 94.7773C249.641 94.6452 249.641 94.6452 250.323 94.3745C250.39 95.1055 250.456 95.8364 250.525 96.5895C250.259 96.5895 249.993 96.5895 249.719 96.5895C249.661 96.4608 249.603 96.332 249.543 96.1994C249.351 95.7535 249.351 95.7535 248.914 95.5827C248.914 95.915 248.914 96.2472 248.914 96.5895C248.648 96.5895 248.382 96.5895 248.108 96.5895C248.108 95.5928 248.108 94.596 248.108 93.5691Z" fill="#EA2B31"/>
<path d="M248.714 92.3607C250.715 92.203 250.715 92.203 251.546 92.8137C252.113 93.6184 252.393 94.1341 252.364 95.1294C252.36 95.2903 252.357 95.4513 252.353 95.6171C252.348 95.7386 252.344 95.86 252.339 95.9852C252.206 95.9852 252.073 95.9852 251.936 95.9852C251.87 96.1181 251.803 96.251 251.735 96.3879C251.412 96.0647 251.439 95.6614 251.37 95.2175C251.208 94.3683 251.053 93.8905 250.325 93.3675C250.192 93.301 250.059 93.2346 249.922 93.1661C249.922 93.0332 249.922 92.9003 249.922 92.7634C249.457 92.7634 248.992 92.7634 248.513 92.7634C248.579 92.6305 248.646 92.4976 248.714 92.3607Z" fill="#ED474D"/>
<path d="M249.342 92.1471C249.525 92.1489 249.709 92.1507 249.897 92.1526C250.038 92.155 250.179 92.1573 250.324 92.1597C250.324 92.2261 250.324 92.2926 250.324 92.3611C249.792 92.4275 249.26 92.494 248.713 92.5624C249.311 92.6621 249.311 92.6621 249.921 92.7638C249.921 92.8302 249.921 92.8967 249.921 92.9651C249.522 93.0316 249.124 93.098 248.713 93.1665C249.61 93.3659 249.61 93.3659 250.525 93.5692C250.651 94.1481 250.651 94.1481 250.726 94.7774C250.593 94.9103 250.461 95.0432 250.324 95.1801C250.257 94.9808 250.191 94.7814 250.122 94.576C249.724 94.7754 249.724 94.7754 249.317 94.9788C249.317 94.8459 249.317 94.713 249.317 94.576C249.45 94.576 249.583 94.576 249.72 94.576C249.72 94.4431 249.72 94.3102 249.72 94.1733C249.454 94.1733 249.188 94.1733 248.914 94.1733C248.914 94.0404 248.914 93.9075 248.914 93.7706C248.436 93.7033 248.436 93.7033 247.907 93.7706C247.536 94.1533 247.536 94.1533 247.303 94.576C247.41 93.8066 247.605 93.3554 248.109 92.7638C248.042 92.6309 247.976 92.498 247.907 92.3611C248.416 92.1069 248.776 92.1398 249.342 92.1471Z" fill="#F0696E"/>
<path d="M251.331 95.5826C251.464 95.782 251.597 95.9813 251.734 96.1867C251.867 96.1203 251.999 96.0538 252.136 95.9854C252.072 96.5639 251.967 96.9436 251.646 97.4327C250.873 97.979 250.04 98.0664 249.116 98.2004C249.116 98.0675 249.116 97.9346 249.116 97.7976C249.515 97.7976 249.913 97.7976 250.324 97.7976C250.191 97.3989 250.058 97.0002 249.921 96.5895C250.121 96.5895 250.32 96.5895 250.526 96.5895C250.592 96.4566 250.658 96.3237 250.727 96.1867C250.86 96.2532 250.993 96.3196 251.13 96.3881C251.196 96.1223 251.262 95.8565 251.331 95.5826Z" fill="#EF6267"/>
<path d="M219.718 94.1733C219.851 94.2398 219.984 94.3062 220.121 94.3747C219.978 94.5172 219.835 94.6597 219.688 94.8065C219.309 95.1851 218.934 95.5667 218.56 95.9502C218.371 96.1424 218.183 96.3346 217.994 96.5268C217.853 96.6734 217.853 96.6734 217.708 96.8229C217.206 97.3316 216.761 97.7309 216.094 97.9992C216.827 96.3616 218.261 95.1613 219.718 94.1733Z" fill="#EE565B"/>
<path d="M247.958 92.6134C248.132 92.6881 248.132 92.6881 248.31 92.7644C248.189 92.9264 248.069 93.0883 247.945 93.2552C247.418 94.0366 247.164 94.8871 246.9 95.7848C246.834 95.7848 246.767 95.7848 246.699 95.7848C246.677 95.3991 246.662 95.0131 246.649 94.627C246.639 94.4121 246.63 94.1972 246.62 93.9757C246.699 93.3685 246.699 93.3685 247.077 92.884C247.504 92.563 247.504 92.563 247.958 92.6134Z" fill="#EB363C"/>
<path d="M250.526 93.5691C250.652 94.148 250.652 94.148 250.728 94.7773C250.595 94.9102 250.462 95.0431 250.325 95.18C250.258 94.9806 250.192 94.7813 250.123 94.5759C249.725 94.7753 249.725 94.7753 249.318 94.9786C249.318 94.8457 249.318 94.7128 249.318 94.5759C249.451 94.5759 249.584 94.5759 249.721 94.5759C249.721 94.443 249.721 94.3101 249.721 94.1732C249.455 94.1732 249.189 94.1732 248.915 94.1732C248.915 94.0403 248.915 93.9074 248.915 93.7705C249.498 93.6041 249.899 93.5691 250.526 93.5691Z" fill="#EF5F64"/>
<path d="M251.532 93.9716C251.797 94.038 252.063 94.1045 252.337 94.1729C252.337 94.771 252.337 95.369 252.337 95.9852C252.204 95.9852 252.071 95.9852 251.934 95.9852C251.868 96.1181 251.801 96.251 251.733 96.3879C251.532 96.1865 251.532 96.1865 251.512 95.6824C251.514 95.4791 251.517 95.2759 251.519 95.0665C251.521 94.8627 251.523 94.6589 251.525 94.449C251.527 94.2914 251.529 94.1339 251.532 93.9716Z" fill="#EB3339"/>
<path d="M248.108 97.1937C248.906 97.1937 249.703 97.1937 250.525 97.1937C250.458 97.3931 250.392 97.5924 250.323 97.7978C249.034 98.0456 249.034 98.0456 248.423 97.8104C248.319 97.7398 248.215 97.6692 248.108 97.5965C248.108 97.4636 248.108 97.3307 248.108 97.1937Z" fill="#EA2A31"/>
<path d="M50.7749 94.9783C50.9078 95.0447 51.0407 95.1112 51.1776 95.1796C50.8896 95.5123 50.5998 95.8434 50.3092 96.1739C50.148 96.3584 49.9868 96.543 49.8207 96.7331C49.3653 97.1933 49.3653 97.1933 48.7612 97.3946C49.0587 96.6995 49.4535 96.257 49.9946 95.7334C50.1405 95.5911 50.2863 95.4489 50.4366 95.3023C50.5482 95.1954 50.6599 95.0885 50.7749 94.9783Z" fill="#EF6166"/>
<line x1="47.0171" y1="125.154" x2="252.275" y2="125.154" stroke="black" stroke-width="0.3"/>
<path d="M114.84 140.834C114.84 139.967 114.987 139.12 115.28 138.294C115.587 137.454 116.027 136.694 116.6 136.014C117.173 135.32 117.88 134.774 118.72 134.374C119.56 133.96 120.513 133.754 121.58 133.754C122.847 133.754 123.927 134.047 124.82 134.634C125.727 135.207 126.393 135.947 126.82 136.854L125.72 137.534C125.413 136.907 125.027 136.414 124.56 136.054C124.093 135.68 123.593 135.414 123.06 135.254C122.54 135.094 122.02 135.014 121.5 135.014C120.647 135.014 119.893 135.187 119.24 135.534C118.587 135.867 118.033 136.32 117.58 136.894C117.14 137.454 116.807 138.087 116.58 138.794C116.353 139.487 116.24 140.194 116.24 140.914C116.24 141.7 116.373 142.454 116.64 143.174C116.907 143.894 117.28 144.534 117.76 145.094C118.24 145.64 118.8 146.08 119.44 146.414C120.093 146.734 120.8 146.894 121.56 146.894C122.093 146.894 122.64 146.8 123.2 146.614C123.76 146.427 124.28 146.14 124.76 145.754C125.253 145.367 125.647 144.867 125.94 144.254L127.1 144.854C126.807 145.56 126.353 146.16 125.74 146.654C125.127 147.147 124.44 147.52 123.68 147.774C122.933 148.027 122.2 148.154 121.48 148.154C120.507 148.154 119.613 147.947 118.8 147.534C117.987 147.107 117.28 146.547 116.68 145.854C116.093 145.147 115.64 144.36 115.32 143.494C115 142.614 114.84 141.727 114.84 140.834ZM129.491 148.034V133.834H130.891V146.794H139.091V148.034H129.491ZM146.285 148.134C145.285 148.134 144.378 147.934 143.565 147.534C142.752 147.134 142.052 146.594 141.465 145.914C140.878 145.22 140.425 144.447 140.105 143.594C139.785 142.727 139.625 141.84 139.625 140.934C139.625 139.987 139.792 139.087 140.125 138.234C140.458 137.367 140.925 136.6 141.525 135.934C142.138 135.254 142.852 134.72 143.665 134.334C144.478 133.934 145.358 133.734 146.305 133.734C147.305 133.734 148.212 133.94 149.025 134.354C149.838 134.767 150.532 135.32 151.105 136.014C151.692 136.707 152.145 137.48 152.465 138.334C152.785 139.187 152.945 140.06 152.945 140.954C152.945 141.9 152.778 142.807 152.445 143.674C152.112 144.527 151.645 145.294 151.045 145.974C150.445 146.64 149.738 147.167 148.925 147.554C148.112 147.94 147.232 148.134 146.285 148.134ZM141.025 140.934C141.025 141.707 141.152 142.454 141.405 143.174C141.658 143.88 142.018 144.514 142.485 145.074C142.952 145.62 143.505 146.06 144.145 146.394C144.798 146.714 145.512 146.874 146.285 146.874C147.098 146.874 147.825 146.707 148.465 146.374C149.118 146.027 149.672 145.574 150.125 145.014C150.592 144.44 150.945 143.8 151.185 143.094C151.425 142.387 151.545 141.667 151.545 140.934C151.545 140.16 151.418 139.42 151.165 138.714C150.912 138.007 150.545 137.374 150.065 136.814C149.598 136.254 149.045 135.814 148.405 135.494C147.765 135.174 147.058 135.014 146.285 135.014C145.485 135.014 144.758 135.18 144.105 135.514C143.465 135.847 142.912 136.3 142.445 136.874C141.992 137.434 141.638 138.067 141.385 138.774C141.145 139.48 141.025 140.2 141.025 140.934ZM161.365 148.134C160.245 148.134 159.298 147.934 158.525 147.534C157.751 147.134 157.138 146.6 156.685 145.934C156.231 145.254 155.898 144.487 155.685 143.634C155.485 142.78 155.385 141.9 155.385 140.994V133.834H156.765V140.994C156.765 141.727 156.838 142.447 156.985 143.154C157.145 143.86 157.398 144.494 157.745 145.054C158.091 145.614 158.558 146.06 159.145 146.394C159.731 146.714 160.465 146.874 161.345 146.874C162.251 146.874 162.998 146.707 163.585 146.374C164.185 146.027 164.651 145.574 164.985 145.014C165.331 144.454 165.578 143.827 165.725 143.134C165.871 142.427 165.945 141.714 165.945 140.994V133.834H167.345V140.994C167.345 141.94 167.238 142.847 167.025 143.714C166.811 144.58 166.465 145.34 165.985 145.994C165.518 146.647 164.905 147.167 164.145 147.554C163.385 147.94 162.458 148.134 161.365 148.134ZM170.682 148.034V133.834H175.502C177.009 133.834 178.262 134.154 179.262 134.794C180.276 135.42 181.036 136.274 181.542 137.354C182.049 138.42 182.302 139.607 182.302 140.914C182.302 142.354 182.022 143.607 181.462 144.674C180.916 145.74 180.129 146.567 179.102 147.154C178.089 147.74 176.889 148.034 175.502 148.034H170.682ZM180.902 140.914C180.902 139.78 180.689 138.774 180.262 137.894C179.849 137.014 179.242 136.327 178.442 135.834C177.642 135.327 176.662 135.074 175.502 135.074H172.082V146.794H175.502C176.676 146.794 177.662 146.534 178.462 146.014C179.262 145.494 179.869 144.794 180.282 143.914C180.696 143.02 180.902 142.02 180.902 140.914Z" fill="black"/>
</svg>
