<svg width="512" height="512" viewBox="0 0 512 512" fill="none" xmlns="http://www.w3.org/2000/svg">
<g clip-path="url(#clip0_250_452)">
<path d="M119.981 16.8592C120.959 16.8535 121.937 16.8477 122.945 16.8419C124.538 16.8402 124.538 16.8402 126.163 16.8385C127.854 16.831 127.854 16.831 129.58 16.8234C133.308 16.8088 137.036 16.802 140.764 16.7965C143.358 16.7907 145.953 16.785 148.547 16.7792C153.293 16.77 158.038 16.7637 162.784 16.7607C169.751 16.7562 176.717 16.7387 183.684 16.7097C189.734 16.6854 195.784 16.6778 201.834 16.676C204.4 16.673 206.966 16.665 209.532 16.6518C213.126 16.6347 216.721 16.6367 220.316 16.6432C221.369 16.6339 222.423 16.6247 223.509 16.6152C233.156 16.6695 241.343 18.6985 248.557 25.4605C254.403 31.6712 257.122 38.52 256.998 46.9996C257.6 46.9929 258.202 46.9863 258.822 46.9794C265.134 46.9126 271.445 46.8676 277.756 46.8348C280.106 46.8198 282.456 46.7994 284.806 46.7733C288.2 46.7366 291.593 46.7198 294.987 46.7066C296.023 46.6912 297.06 46.6757 298.129 46.6597C312.7 46.6564 325.156 51.513 335.74 61.5504C344.69 71.2585 349.139 84.1943 349.112 97.2804C349.112 98.5012 349.112 99.722 349.112 100.98C349.104 102.935 349.104 102.935 349.096 104.929C349.094 106.288 349.093 107.647 349.092 109.006C349.088 112.567 349.078 116.128 349.067 119.689C349.057 123.329 349.052 126.969 349.047 130.609C349.036 137.739 349.019 144.869 348.998 152C349.892 151.691 349.892 151.691 350.805 151.377C351.598 151.107 352.392 150.837 353.209 150.559C353.991 150.292 354.773 150.024 355.578 149.749C359.472 148.543 363.409 147.898 367.436 147.312C368.3 147.186 369.164 147.06 370.054 146.931C397.595 143.218 424.807 148.411 448.998 162C449.941 162.515 450.883 163.031 451.854 163.562C458.067 167.107 463.552 171.378 468.998 176C469.823 176.689 470.648 177.379 471.498 178.089C490.905 194.858 503.614 217.334 509.998 242C510.185 242.665 510.372 243.331 510.565 244.016C512.56 252.192 512.37 260.546 512.369 268.91C512.373 271.532 512.41 274.153 512.448 276.775C512.637 305.127 502.051 331.353 483.998 353C483.279 353.872 482.56 354.745 481.819 355.644C460.852 380.029 430.316 395.04 398.358 397.832C388.111 398.56 378.219 398.109 368.061 396.687C366.784 396.511 366.784 396.511 365.481 396.331C361.1 395.664 356.926 394.742 352.688 393.44C351.804 393.17 350.921 392.901 350.011 392.622C349.347 392.417 348.683 392.211 347.998 392C348.003 392.702 348.007 393.404 348.012 394.128C348.052 400.79 348.082 407.453 348.102 414.116C348.112 417.541 348.126 420.965 348.149 424.389C348.175 428.339 348.185 432.288 348.194 436.238C348.204 437.45 348.214 438.662 348.225 439.91C348.227 454.772 345.327 469.31 334.717 480.484C322.563 491.201 309.994 495.321 294.012 495.26C292.939 495.264 291.866 495.268 290.76 495.272C287.182 495.282 283.603 495.278 280.024 495.274C277.451 495.279 274.878 495.284 272.306 495.29C266.052 495.302 259.799 495.304 253.546 495.302C248.46 495.3 243.374 495.302 238.288 495.306C237.2 495.307 237.2 495.307 236.09 495.308C234.617 495.309 233.143 495.31 231.669 495.312C217.864 495.322 204.059 495.32 190.254 495.314C177.644 495.309 165.033 495.32 152.422 495.339C139.454 495.359 126.485 495.367 113.517 495.363C106.244 495.361 98.9713 495.364 91.6985 495.378C84.8571 495.391 78.0159 495.389 71.1745 495.376C68.6688 495.373 66.1631 495.376 63.6574 495.384C60.2265 495.395 56.7961 495.386 53.3653 495.374C52.3831 495.381 51.4008 495.389 50.3888 495.396C35.6949 495.283 23.0176 490.643 12.3264 480.523C1.73224 469.04 -0.456415 457.98 -0.389381 442.793C-0.393559 441.25 -0.399038 439.708 -0.405701 438.165C-0.420125 433.942 -0.415917 429.72 -0.408531 425.497C-0.403794 420.937 -0.416317 416.376 -0.426552 411.816C-0.443735 402.888 -0.444581 393.96 -0.439339 385.032C-0.435295 377.774 -0.436741 370.516 -0.442085 363.258C-0.442834 362.224 -0.443588 361.191 -0.444359 360.126C-0.44589 358.026 -0.447422 355.926 -0.448967 353.826C-0.46269 334.141 -0.457259 314.455 -0.445786 294.77C-0.435854 276.768 -0.448791 258.767 -0.472717 240.766C-0.497112 222.273 -0.506719 203.78 -0.500069 185.287C-0.496577 174.908 -0.498803 164.53 -0.516319 154.151C-0.531046 145.315 -0.531667 136.48 -0.514244 127.645C-0.505735 123.139 -0.503584 118.634 -0.518898 114.128C-0.532759 109.999 -0.527965 105.87 -0.508659 101.741C-0.504903 100.252 -0.507811 98.7624 -0.518272 97.2733C-0.614409 82.5334 2.94553 71.6873 13.0295 60.8082C24.4556 49.8996 37.2635 46.6499 52.596 46.8043C54.2083 46.8085 54.2083 46.8085 55.8531 46.8129C59.2558 46.824 62.6582 46.8491 66.0608 46.8746C68.3805 46.8846 70.7001 46.8938 73.0198 46.9019C78.6794 46.9239 84.3388 46.9573 89.9983 46.9996C89.9861 45.898 89.9738 44.7964 89.9612 43.6615C90.034 36.4766 92.8434 30.8095 97.7483 25.6246C104.305 19.5812 111.069 16.8905 119.981 16.8592ZM108.655 39.4059C106.195 44.742 106.418 49.6954 106.498 55.4996C106.483 56.6146 106.467 57.7297 106.451 58.8785C106.481 64.9784 106.529 69.4108 110.998 73.9996C116.524 77.6597 121.671 77.4252 128.065 77.3878C129.17 77.393 130.274 77.3983 131.413 77.4037C135.057 77.4169 138.701 77.4082 142.346 77.398C144.881 77.4001 147.417 77.403 149.952 77.4067C155.262 77.4112 160.572 77.405 165.882 77.3907C172.015 77.3744 178.147 77.3797 184.28 77.3962C190.19 77.4115 196.099 77.4098 202.009 77.4011C204.519 77.399 207.03 77.4015 209.541 77.4085C213.048 77.4161 216.554 77.4045 220.061 77.3878C221.1 77.3939 222.138 77.3999 223.208 77.4062C229.801 77.3479 233.179 76.3648 238.28 72.0855C241.035 67.1388 240.575 62.1863 240.498 56.6246C240.514 55.5134 240.529 54.4023 240.545 53.2574C240.514 46.6794 240.197 42.1925 235.998 36.9996C230.542 33.3267 225.377 33.5739 219.039 33.6114C217.946 33.6062 216.853 33.6009 215.726 33.5955C212.119 33.5823 208.512 33.591 204.905 33.6012C202.394 33.5991 199.883 33.5962 197.373 33.5925C192.114 33.588 186.855 33.5942 181.596 33.6085C175.526 33.6248 169.456 33.6195 163.386 33.603C157.534 33.5877 151.682 33.5894 145.83 33.5982C143.346 33.6002 140.861 33.5977 138.376 33.5907C134.903 33.5831 131.43 33.5947 127.957 33.6114C126.419 33.6023 126.419 33.6023 124.849 33.593C118.135 33.6528 113.531 34.3994 108.655 39.4059ZM23.9983 73.9996C16.4233 84.1838 15.7014 93.0757 15.7309 105.434C15.7271 106.917 15.7225 108.401 15.7171 109.884C15.7049 113.951 15.7052 118.019 15.7075 122.086C15.7079 126.476 15.6969 130.866 15.6874 135.256C15.6708 143.854 15.6653 152.453 15.6642 161.051C15.6632 168.041 15.6591 175.031 15.6528 182.021C15.6352 201.845 15.6259 221.67 15.6274 241.494C15.6275 242.563 15.6276 243.631 15.6277 244.732C15.6278 245.802 15.6279 246.872 15.6279 247.974C15.6288 265.309 15.6096 282.644 15.5814 299.98C15.5527 317.786 15.5389 335.592 15.5406 353.397C15.5413 363.392 15.5358 373.386 15.5143 383.38C15.496 391.89 15.4917 400.399 15.5053 408.909C15.5118 413.248 15.5119 417.588 15.4946 421.927C15.4788 425.905 15.4817 429.882 15.4991 433.86C15.5022 435.294 15.4986 436.728 15.4874 438.162C15.4017 449.946 16.865 459.645 25.2913 468.355C25.8546 468.898 26.4179 469.44 26.9983 470C28.112 471.113 28.112 471.113 29.2483 472.25C37.0427 477.21 45.0386 478.591 54.1244 478.501C55.1885 478.506 56.2525 478.512 57.3489 478.518C60.8847 478.531 64.4198 478.516 67.9556 478.501C70.5025 478.505 73.0495 478.511 75.5964 478.518C81.778 478.53 87.9593 478.524 94.1408 478.509C101.349 478.492 108.557 478.495 115.765 478.499C128.631 478.505 141.497 478.491 154.363 478.466C166.83 478.442 179.297 478.435 191.764 478.446C205.362 478.457 218.959 478.459 232.556 478.445C234.008 478.443 235.459 478.442 236.911 478.44C237.625 478.439 238.339 478.438 239.074 478.438C244.092 478.433 249.109 478.435 254.126 478.439C260.886 478.445 267.645 478.434 274.404 478.412C276.882 478.407 279.359 478.406 281.837 478.411C285.224 478.417 288.612 478.404 291.999 478.387C292.974 478.393 293.949 478.399 294.954 478.405C305.018 478.313 313.596 476.068 320.998 469C328.071 461.109 331.132 453.068 331.112 442.465C331.112 440.514 331.112 440.514 331.112 438.523C331.106 437.113 331.101 435.703 331.096 434.293C331.094 432.842 331.093 431.392 331.092 429.942C331.088 426.136 331.078 422.331 331.067 418.525C331.057 414.637 331.052 410.749 331.047 406.861C331.036 399.24 331.019 391.62 330.998 384C329.909 383.398 328.819 382.797 327.696 382.178C326.247 381.373 324.798 380.567 323.35 379.761C322.634 379.367 321.918 378.973 321.18 378.567C306.238 370.232 291.871 356.707 282.998 342C282.345 340.932 281.691 339.865 281.018 338.765C263.381 309.326 257.595 275.274 265.571 241.774C270.547 222.353 279.444 203.883 292.998 189C293.496 188.453 293.993 187.906 294.506 187.343C304.299 176.723 315.094 168.331 327.741 161.349C328.541 160.907 329.342 160.465 330.166 160.009C330.771 159.676 331.375 159.343 331.998 159C332.068 150.437 332.121 141.874 332.154 133.311C332.169 129.333 332.19 125.357 332.225 121.379C332.257 117.534 332.275 113.69 332.283 109.845C332.288 108.385 332.299 106.925 332.315 105.465C332.461 91.8739 330.794 82.4403 321.44 72.3121C313.659 64.8482 303.803 63.3932 293.424 63.609C292.374 63.6146 291.324 63.6203 290.243 63.6261C286.932 63.6483 283.622 63.6984 280.311 63.7496C278.048 63.7697 275.786 63.7879 273.524 63.8043C268.015 63.8481 262.507 63.9148 256.998 63.9996C256.873 64.7436 256.749 65.4877 256.62 66.2542C256.45 67.2363 256.279 68.2183 256.104 69.2301C255.855 70.6864 255.855 70.6864 255.601 72.1722C254.234 78.5862 251.431 83.5876 246.177 87.5887C238.379 92.6378 230.136 93.5849 221.06 93.5013C219.353 93.5094 219.353 93.5094 217.612 93.5177C213.883 93.5301 210.156 93.5137 206.428 93.4957C203.82 93.4959 201.211 93.4973 198.603 93.5001C193.151 93.5028 187.7 93.4894 182.248 93.4662C175.966 93.4395 169.684 93.4378 163.402 93.4495C157.328 93.4604 151.255 93.454 145.181 93.44C142.61 93.4355 140.038 93.4351 137.467 93.4391C133.87 93.442 130.274 93.4254 126.677 93.4037C125.624 93.4082 124.57 93.4127 123.484 93.4173C113.865 93.321 105.534 91.3187 98.4045 84.4684C92.6632 78.2767 91.1384 72.2271 89.9983 63.9996C83.3456 63.8976 76.6931 63.8279 70.0398 63.7799C67.78 63.7599 65.5202 63.7326 63.2605 63.6978C59.9985 63.6489 56.7372 63.6265 53.4749 63.609C52.4765 63.5883 51.4782 63.5677 50.4496 63.5464C40.4301 63.5433 31.1665 66.7852 23.9983 73.9996ZM355.936 167.437C354.864 167.745 354.864 167.745 353.77 168.059C349.777 169.271 346.54 170.839 342.998 173C341.719 173.489 340.432 173.956 339.139 174.406C334.945 175.923 331.425 177.997 327.748 180.5C327.104 180.936 326.459 181.373 325.794 181.822C300.42 199.414 284.975 224.967 279.342 255.045C274.502 282.601 281.827 311.952 297.811 334.75C317.028 359.747 343.003 376.379 374.498 380.75C375.996 380.863 377.497 380.942 378.998 381C380.13 381.051 381.262 381.103 382.428 381.156C413.661 381.898 441.354 370.689 464.022 349.427C484 330.03 495.686 302.65 496.291 274.845C496.533 243.797 485.011 216.104 463.373 193.875C443.036 173.697 415.487 162.966 386.936 162.75C376.242 162.844 366.186 164.489 355.936 167.437Z" fill="white"/>
<path d="M384.844 188.554C386.928 188.562 389.009 188.534 391.092 188.502C393.071 188.503 393.071 188.503 395.09 188.504C396.295 188.502 397.5 188.5 398.742 188.498C402.621 189.095 404.27 190.223 407 193C407.926 196.094 407.926 196.094 408.312 199.5C408.453 200.624 408.594 201.748 408.738 202.906C409 206 409 206 409 210C412.1 210.958 414.764 211.379 418 211C420.624 209.31 420.624 209.31 423.062 207.062C428.503 202.317 428.503 202.317 432 201.937C437.943 202.596 442.051 207.963 446 212C446.773 212.75 447.547 213.5 448.344 214.273C455.727 221.469 455.727 221.469 456.625 226.5C456.575 231.906 453.075 235.209 449.652 239.094C447.324 243.188 448.072 245.455 449 250C450.771 250.147 450.771 250.147 452.578 250.297C454.136 250.447 455.693 250.598 457.25 250.75C458.027 250.812 458.805 250.874 459.605 250.937C460.36 251.015 461.114 251.092 461.891 251.172C462.582 251.235 463.273 251.297 463.985 251.362C466.944 252.298 468.156 253.507 470 256C470.518 259.328 470.518 259.328 470.531 263.25C470.535 263.945 470.539 264.64 470.543 265.356C470.546 266.822 470.538 268.288 470.521 269.754C470.5 271.993 470.521 274.229 470.547 276.469C470.544 277.896 470.539 279.323 470.531 280.75C470.527 282.044 470.522 283.338 470.518 284.672C470 288 470 288 468.224 290.401C465.91 292.064 464.69 292.573 461.891 292.828C461.137 292.905 460.382 292.983 459.605 293.062C458.828 293.124 458.051 293.186 457.25 293.25C456.061 293.366 456.061 293.366 454.848 293.484C452.9 293.672 450.95 293.838 449 294C447.698 299.678 447.698 299.678 449.652 304.906C450.406 305.762 451.161 306.618 451.938 307.5C457.355 314.459 457.355 314.459 456.848 318.972C454.813 323.838 450.707 327.373 447 331C446.25 331.773 445.5 332.547 444.727 333.344C437.571 340.686 437.571 340.686 432.562 341.687C427.994 341.662 425.35 339.17 422 336.375C418.169 333.039 418.169 333.039 413.453 331.847C411.012 332.428 411.012 332.428 408 334C407.87 335.663 407.87 335.663 407.738 337.359C407.598 338.823 407.456 340.286 407.312 341.75C407.259 342.479 407.206 343.209 407.15 343.961C406.777 347.528 406.392 349.593 403.872 352.208C398.949 355.28 393.742 354.629 388.08 354.576C386.005 354.562 383.934 354.596 381.859 354.635C380.545 354.633 379.23 354.631 377.875 354.629C376.077 354.63 376.077 354.63 374.242 354.631C370.073 353.819 368.592 352.304 366 349C365.476 346.204 365.212 343.975 365.188 341.187C365.162 340.494 365.137 339.802 365.111 339.088C365.053 337.392 365.023 335.696 365 334C361.819 332.582 361.819 332.582 358 332C354.813 333.71 354.813 333.71 352 336.375C346.871 340.89 346.871 340.89 342.355 341.461C338.886 340.984 337.754 340.64 335.312 338.25C334.658 337.622 334.003 336.994 333.328 336.347C332.176 335.185 332.176 335.185 331 334C329.954 332.977 328.907 331.955 327.859 330.933C318.151 321.399 318.151 321.399 317.648 316.75C318.185 311.028 321.526 308.241 325.227 304.062C327.438 301.011 327.438 301.011 326.273 297.125C325.853 296.094 325.433 295.062 325 294C323.355 293.87 323.355 293.87 321.676 293.738C320.221 293.597 318.767 293.455 317.312 293.312C316.591 293.259 315.87 293.205 315.127 293.15C314.421 293.076 313.715 293.002 312.988 292.926C312.344 292.868 311.7 292.81 311.036 292.751C307.766 291.545 306.155 289.7 304 287C303.353 283.758 303.353 283.758 303.336 280.125C303.329 278.81 303.323 277.495 303.316 276.14C303.327 275.46 303.337 274.78 303.348 274.08C303.375 272.004 303.348 269.934 303.316 267.859C303.326 265.887 303.326 265.887 303.336 263.875C303.342 262.676 303.347 261.477 303.353 260.242C304.182 256.088 305.722 254.604 309 252C312.48 251.109 312.48 251.109 316.188 250.75C320.751 250.422 320.751 250.422 325 249C326.566 246.308 326.566 246.308 327 243C325.268 239.903 325.268 239.903 322.625 237.062C318.112 231.888 318.112 231.888 317.539 227.351C318.016 223.885 318.361 222.753 320.75 220.312C321.378 219.657 322.006 219.003 322.652 218.328C323.427 217.56 324.202 216.791 325 216C326.023 214.954 327.045 213.907 328.066 212.859C337.6 203.152 337.6 203.152 342.242 202.648C348.002 203.187 350.881 206.549 355.133 210.226C356.079 210.812 357.025 211.397 358 212C360.7 211.38 360.7 211.38 363 210C363.99 210 364.98 210 366 210C365.959 208.7 365.918 207.401 365.875 206.062C365.89 201.311 366.12 196.417 368 192C372.678 187.419 378.696 188.515 384.844 188.554ZM383 206C382.867 206.892 382.734 207.784 382.598 208.703C382.421 209.873 382.244 211.044 382.062 212.25C381.888 213.41 381.714 214.57 381.535 215.765C381.359 216.833 381.182 217.9 381 219C380.859 220.152 380.859 220.152 380.715 221.328C380 223 380 223 378.031 223.906C376.778 224.2 376.778 224.2 375.5 224.5C371.887 225.431 368.717 226.528 365.375 228.187C361.17 230.076 357.551 231.336 353 230C349.735 227.944 346.854 225.59 344 223C341.378 224.049 340.206 224.649 338.75 227.125C338.502 227.744 338.255 228.362 338 229C338.494 229.58 338.987 230.16 339.496 230.758C340.137 231.539 340.777 232.32 341.438 233.125C342.076 233.891 342.714 234.656 343.371 235.445C345.314 238.492 345.883 240.385 346 244C344.855 247.437 344.855 247.437 343.188 251C340.846 256.044 340.846 256.044 339.113 261.312C338 264 338 264 335.77 265.305C332.75 266.063 329.765 266.651 326.688 267.125C325.085 267.376 325.085 267.376 323.449 267.633C322.641 267.754 321.833 267.875 321 268C321 270.64 321 273.28 321 276C322.048 276.182 323.096 276.363 324.176 276.551C325.555 276.804 326.934 277.058 328.312 277.312C329.348 277.489 329.348 277.489 330.404 277.67C333.153 278.188 335.511 278.672 337.855 280.242C339.425 282.653 340.169 285.061 341 287.812C342.075 291.262 343.097 294.18 344.812 297.375C346.421 300.931 346.305 302.303 345 306C342.834 309.147 340.475 312.092 338 315C339.049 317.622 339.649 318.794 342.125 320.25C342.744 320.497 343.363 320.745 344 321C344.835 320.242 344.835 320.242 345.688 319.469C349.377 316.328 351.996 314.197 356.812 313.25C361.506 313.682 365.733 315.764 369.973 317.711C373.589 319.325 373.589 319.325 380 321C380.66 326.28 381.32 331.56 382 337C384.64 337 387.28 337 390 337C390.121 336.336 390.242 335.672 390.367 334.988C392.336 324.615 392.336 324.615 394 322C396.938 320.5 396.938 320.5 398.812 319.824C401.452 318.83 403.911 317.565 406.438 316.312C415.071 312.466 415.071 312.466 420 314C423.558 316.068 426.794 318.425 430 321C432.622 319.951 433.794 319.351 435.25 316.875C435.498 316.256 435.745 315.637 436 315C435.495 314.443 434.989 313.886 434.469 313.312C431.301 309.592 429.191 306.988 428.25 302.125C428.675 297.598 430.71 293.655 432.703 289.625C433.794 287.417 434.699 285.239 435.562 282.937C437.193 279.605 437.667 279.284 441 278C443.072 277.565 445.157 277.193 447.25 276.875C448.328 276.707 449.405 276.54 450.516 276.367C451.335 276.246 452.155 276.125 453 276C453 273.36 453 270.72 453 268C451.952 267.83 450.904 267.66 449.824 267.484C448.445 267.24 447.066 266.995 445.688 266.75C444.997 266.64 444.307 266.531 443.596 266.418C440.515 265.852 438.41 265.391 436.113 263.199C434.917 260.837 434.163 258.625 433.5 256.062C432.673 253.067 432.006 251.009 430.312 248.375C428.38 244.877 428.013 241.814 429 238C431.043 234.726 433.41 231.854 436 229C434.951 226.378 434.351 225.206 431.875 223.75C431.256 223.502 430.637 223.255 430 223C429.443 223.505 428.886 224.01 428.312 224.531C424.592 227.699 421.988 229.809 417.125 230.75C412.598 230.325 408.654 228.29 404.625 226.293C402.414 225.204 400.251 224.334 397.938 223.5C395 222 395 222 393.625 219.875C392.91 216.586 392.522 213.341 392.246 209.988C392.104 207.929 392.104 207.929 391 206C388.36 206 385.72 206 383 206Z" fill="white"/>
<path d="M405 242C413.277 247.814 417.833 254.5 421 264C421.855 276.345 421.045 285.464 412.875 295.312C406.944 301.547 399.782 305.516 391.152 306.238C380.174 306.491 371.524 304.177 363.008 297.05C356.124 290.02 353.064 281.788 352.688 272.125C352.948 262.128 356.627 253.29 363.781 246.246C375.502 236.663 391.617 234.644 405 242ZM374.25 260.875C370.478 266.114 369.554 269.443 370.461 275.789C371.814 281.34 375.434 284.838 380 288C385.309 289.769 390.074 289.698 395.188 287.5C399.641 284.987 402.21 281.777 404 277C405.019 271.736 404.583 267.351 402 262.625C399.091 258.577 395.765 256.4 391 255C383.979 253.853 379.109 255.795 374.25 260.875Z" fill="white"/>
<path d="M115.936 155.125C122.922 161.109 127.33 169.341 128.249 178.488C128.69 188.223 126.138 195.891 119.874 203.375C113.546 209.964 105.749 214.043 96.5538 214.292C84.5614 214.404 75.8031 211.56 66.9989 203C60.0243 194.358 59.0563 184.828 59.9989 174C61.8867 165.397 67.1301 158.539 74.202 153.398C87.3631 145.529 103.367 146.144 115.936 155.125ZM80.0614 172.125C76.6917 176.822 76.3064 180.296 76.9989 186C79.7007 191.303 83.2939 195.098 88.9989 197C94.6194 197.599 99.6551 197.616 104.46 194.394C108.519 190.716 110.752 186.787 111.499 181.375C110.704 176.01 109.065 173.042 105.186 169.25C96.3766 163.031 87.1237 163.773 80.0614 172.125Z" fill="white"/>
<path d="M112.001 252C112.643 252.351 113.285 252.701 113.946 253.062C120.918 257.409 125.275 264.852 127.528 272.625C129.449 282.277 127.633 290.856 122.645 299.293C117.172 307.114 109.978 311.593 100.657 313.473C90.2699 314.903 80.6911 312.693 72.1298 306.687C65.8927 301.751 62.1152 295.647 60.0009 288C59.1759 279.28 59.2474 271.523 64.0009 264C64.425 263.304 64.8491 262.608 65.286 261.891C75.4078 246.891 96.5189 243.12 112.001 252ZM79.6884 271.625C76.5528 276.038 76.3546 279.677 77.0009 285C79.5327 289.97 82.7347 293.707 88.0048 295.793C93.0809 297.25 96.994 297.115 101.919 295.191C106.414 292.619 109.377 288.871 111.001 284C111.562 278.164 110.504 274.555 107.001 270C101.809 265.188 97.5965 264.646 90.7274 264.719C85.5986 265.248 82.9729 267.897 79.6884 271.625Z" fill="white"/>
<path d="M118.555 367.391C125.427 375.043 128.547 383.907 128.309 394.098C127.346 403.158 123.48 409.773 117 416C116.237 416.743 115.474 417.485 114.688 418.25C105.358 424.326 95.8987 425.307 85.0004 424C81.5776 423.154 78.9394 421.926 76.0004 420C75.3069 419.576 74.6134 419.152 73.8988 418.715C66.7733 413.925 62.2409 407.27 60.0004 399C58.9214 387.709 60.0122 378.599 67.2504 369.688C73.612 362.945 81.3249 359.015 90.5981 358.036C100.966 357.884 110.706 360.443 118.555 367.391ZM84.0004 378C79.8486 381.926 76.8763 385.421 76.6879 391.25C76.7477 395.91 77.9132 398.413 81.0004 402C86.2801 406.652 89.3234 407.302 96.2426 407.211C101.42 406.815 104.478 404.798 107.813 401C111.046 396.566 111.367 393.411 111 388C109.239 383.108 106.553 379.558 102 377C95.61 374.646 89.8482 374.169 84.0004 378Z" fill="white"/>
<path d="M160.066 156.726C161.139 156.716 162.211 156.706 163.316 156.695C164.498 156.695 165.68 156.694 166.898 156.693C168.138 156.685 169.379 156.677 170.657 156.668C174.067 156.648 177.476 156.637 180.885 156.632C183.015 156.629 185.145 156.622 187.274 156.615C194.704 156.591 202.134 156.578 209.564 156.574C216.489 156.571 223.415 156.541 230.34 156.499C236.285 156.464 242.23 156.449 248.175 156.448C251.726 156.447 255.276 156.438 258.827 156.41C262.79 156.379 266.752 156.388 270.714 156.4C272.478 156.378 272.478 156.378 274.277 156.355C283.13 156.435 283.13 156.435 286.241 159.346C288.382 162.576 288.567 164.193 288 168C287.14 170.58 286.56 171.65 284.249 173.092C281.604 174.16 279.62 174.257 276.769 174.267C275.711 174.276 274.652 174.284 273.562 174.293C272.406 174.292 271.25 174.291 270.059 174.29C268.227 174.3 268.227 174.3 266.357 174.311C263.01 174.326 259.663 174.333 256.316 174.334C254.224 174.336 252.132 174.34 250.04 174.345C242.74 174.364 235.44 174.372 228.14 174.37C221.338 174.369 214.537 174.39 207.735 174.422C201.892 174.448 196.049 174.459 190.206 174.457C186.718 174.457 183.229 174.463 179.741 174.484C175.851 174.507 171.961 174.498 168.071 174.486C166.34 174.502 166.34 174.502 164.574 174.52C156.792 174.458 156.792 174.458 152.808 172.153C150.459 169.355 150 167.646 150 164C152.487 158.789 154.281 156.754 160.066 156.726Z" fill="white"/>
<path d="M162.277 356.618C163.841 356.606 163.841 356.606 165.437 356.593C166.571 356.599 167.704 356.605 168.872 356.611C170.676 356.603 170.676 356.603 172.515 356.595C175.805 356.584 179.094 356.587 182.383 356.596C185.829 356.604 189.275 356.597 192.722 356.592C198.509 356.587 204.296 356.594 210.082 356.608C216.768 356.624 223.453 356.619 230.138 356.603C235.883 356.589 241.629 356.587 247.374 356.595C250.803 356.6 254.232 356.6 257.661 356.59C261.484 356.583 265.307 356.594 269.13 356.611C270.831 356.602 270.831 356.602 272.566 356.593C273.609 356.601 274.652 356.609 275.726 356.618C277.081 356.62 277.081 356.62 278.464 356.622C281.592 357.087 283.451 358.151 286.001 359.999C288.347 363.517 288.581 364.857 288.001 368.999C286.24 371.655 286.24 371.655 283.001 373.999C278.922 374.752 274.885 374.672 270.747 374.63C268.883 374.641 268.883 374.641 266.981 374.652C263.58 374.666 260.18 374.658 256.779 374.638C253.218 374.621 249.656 374.63 246.095 374.635C240.115 374.64 234.136 374.624 228.156 374.596C221.245 374.564 214.334 374.564 207.422 374.581C200.77 374.597 194.118 374.59 187.465 374.573C184.636 374.566 181.806 374.568 178.977 374.575C175.026 374.584 171.076 374.56 167.126 374.533C165.951 374.539 164.777 374.546 163.567 374.552C162.491 374.54 161.416 374.527 160.308 374.514C159.374 374.511 158.441 374.508 157.479 374.505C154.244 373.845 153.056 372.527 151.001 369.999C149.938 367.038 149.897 365.436 150.626 362.374C153.294 357.766 157.168 356.625 162.277 356.618Z" fill="white"/>
<path d="M163.238 256.71C164.338 256.7 164.338 256.7 165.461 256.689C167.888 256.67 170.315 256.667 172.742 256.664C174.43 256.658 176.118 256.651 177.805 256.644C181.344 256.632 184.883 256.629 188.422 256.63C192.954 256.63 197.486 256.603 202.017 256.568C205.504 256.546 208.99 256.542 212.477 256.543C214.147 256.541 215.818 256.532 217.488 256.516C219.827 256.497 222.165 256.502 224.503 256.515C225.191 256.503 225.879 256.492 226.588 256.48C230.049 256.526 231.946 256.966 234.906 258.816C237.791 261.825 238 263.879 238 268C236.654 270.948 235.914 272.543 233 274C230.586 274.114 228.199 274.168 225.784 274.177C225.041 274.184 224.297 274.191 223.532 274.197C221.067 274.217 218.602 274.229 216.137 274.239C215.295 274.243 214.454 274.247 213.587 274.251C209.133 274.272 204.68 274.286 200.226 274.296C195.626 274.307 191.026 274.341 186.426 274.381C182.889 274.407 179.352 274.415 175.815 274.419C174.119 274.424 172.423 274.435 170.728 274.454C168.353 274.478 165.979 274.477 163.604 274.47C162.556 274.49 162.556 274.49 161.486 274.509C157.978 274.472 156.078 274.05 153.087 272.155C150.416 269.398 150 267.819 150 264C152.933 257.548 156.616 256.701 163.238 256.71Z" fill="white"/>
<path d="M162.32 397.693C163.625 397.677 164.93 397.661 166.274 397.645C167.701 397.638 169.128 397.633 170.555 397.628C172.018 397.619 173.482 397.61 174.945 397.601C178.013 397.585 181.081 397.577 184.15 397.574C188.077 397.569 192.002 397.531 195.929 397.485C198.952 397.455 201.975 397.448 204.998 397.447C206.446 397.443 207.893 397.431 209.34 397.41C211.367 397.383 213.394 397.391 215.421 397.4C216.574 397.395 217.726 397.39 218.913 397.385C222.97 398.193 224.461 399.8 227 402.999C227.625 406.499 227.625 406.499 227 409.999C224.466 413.187 222.966 414.802 218.927 415.628C217.207 415.629 217.207 415.629 215.453 415.631C213.496 415.649 213.496 415.649 211.499 415.669C210.083 415.656 208.666 415.643 207.25 415.628C205.789 415.629 204.329 415.632 202.868 415.636C199.811 415.639 196.756 415.624 193.699 415.596C189.788 415.562 185.879 415.568 181.968 415.587C178.953 415.598 175.938 415.589 172.924 415.574C171.482 415.569 170.04 415.569 168.599 415.575C166.581 415.581 164.564 415.557 162.547 415.533C161.4 415.527 160.254 415.521 159.073 415.514C155.331 414.887 153.664 413.659 151 410.999C149.763 407.367 149.655 405.758 151.25 402.249C154.575 397.975 157.155 397.741 162.32 397.693Z" fill="white"/>
<path d="M161.405 297.808C162.062 297.8 162.719 297.791 163.396 297.783C165.574 297.758 167.751 297.742 169.929 297.727C170.672 297.722 171.415 297.716 172.181 297.711C176.115 297.684 180.049 297.665 183.983 297.65C188.048 297.634 192.111 297.589 196.176 297.538C199.3 297.504 202.424 297.493 205.549 297.487C207.047 297.481 208.546 297.465 210.044 297.441C212.141 297.41 214.237 297.41 216.334 297.417C218.124 297.405 218.124 297.405 219.95 297.393C222.999 298.001 222.999 298.001 225.384 300.314C227.501 303.836 227.587 305.958 226.999 310.001C224.78 312.908 223.48 313.84 219.999 315.001C217.986 315.105 215.97 315.149 213.955 315.162C212.71 315.171 211.465 315.181 210.182 315.191C208.822 315.196 207.461 315.2 206.101 315.204C204.704 315.209 203.308 315.215 201.912 315.221C198.985 315.231 196.058 315.237 193.131 315.241C189.386 315.246 185.641 315.27 181.897 315.299C179.012 315.317 176.128 315.323 173.244 315.324C171.864 315.327 170.483 315.335 169.103 315.348C167.17 315.365 165.236 315.362 163.302 315.357C161.654 315.362 161.654 315.362 159.972 315.368C156.566 314.947 154.713 314.079 151.999 312.001C150.114 307.839 149.648 305.949 151.249 301.626C154.116 297.326 156.458 297.861 161.405 297.808Z" fill="white"/>
<path d="M161.298 187.693C161.944 187.685 162.59 187.676 163.255 187.668C165.395 187.644 167.535 187.635 169.676 187.628C171.163 187.619 172.65 187.61 174.138 187.601C177.259 187.585 180.38 187.577 183.502 187.574C187.497 187.569 191.491 187.531 195.486 187.485C198.56 187.455 201.633 187.448 204.707 187.447C206.18 187.443 207.652 187.431 209.124 187.41C211.188 187.383 213.25 187.388 215.314 187.4C217.073 187.393 217.073 187.393 218.869 187.385C222.96 188.188 224.45 189.765 227 192.999C227.562 196.562 227.562 196.562 227 199.999C225.133 202.364 223.679 203.66 221 204.999C218.995 205.106 216.986 205.148 214.977 205.161C213.712 205.17 212.447 205.18 211.144 205.19C209.756 205.195 208.368 205.199 206.98 205.203C205.56 205.208 204.14 205.214 202.72 205.22C199.74 205.23 196.76 205.236 193.78 205.24C189.967 205.245 186.154 205.269 182.341 205.298C179.406 205.316 176.471 205.322 173.536 205.323C172.131 205.326 170.725 205.334 169.32 205.347C167.35 205.364 165.381 205.361 163.411 205.356C161.731 205.361 161.731 205.361 160.018 205.367C156.583 204.949 154.73 204.102 152 201.999C150.5 198.624 150.5 198.624 150 194.999C152.65 189.038 154.938 187.751 161.298 187.693Z" fill="white"/>
</g>
<defs>
<clipPath id="clip0_250_452">
<rect width="512" height="512" fill="white"/>
</clipPath>
</defs>
</svg>
