<svg width="120" height="120" viewBox="0 0 120 120" fill="none" xmlns="http://www.w3.org/2000/svg">
<path d="M36.8051 54.8764C38.829 56.8036 39.9755 59.3298 40.0918 62.1265C40.0312 64.971 38.9891 67.5857 37.0257 69.6704C35.6387 70.8934 34.0602 71.568 32.3428 72.189C32.7892 72.2194 32.7892 72.2194 33.2446 72.2504C39.1311 72.707 43.3599 74.805 47.2494 79.3018C47.4117 79.4935 47.4117 79.4935 47.5772 79.689C47.8624 79.5924 48.1476 79.4957 48.4414 79.3961C49.3722 79.0873 50.3045 78.784 51.2393 78.4879C51.484 78.4099 51.7287 78.332 51.9809 78.2517C53.6086 77.8121 55.2061 77.7738 56.8799 77.7664C57.1195 77.7651 57.3591 77.7638 57.6059 77.7624C58.112 77.7602 58.618 77.7586 59.1241 77.7577C59.8884 77.7555 60.6525 77.7482 61.4168 77.7408C64.9986 77.7223 68.0093 78.0341 71.3095 79.5032C71.9302 79.7452 71.9302 79.7452 72.4612 79.5389C72.9281 79.1918 73.2576 78.8387 73.6221 78.3853C76.708 74.7927 80.6229 72.7857 85.339 72.3163C86.1116 72.258 86.881 72.2132 87.6553 72.189C87.3875 72.0907 87.3875 72.0907 87.1142 71.9904C84.0503 70.8008 82.043 69.1586 80.668 66.1539C79.6876 63.6396 79.6762 61.0866 80.6772 58.5779C82.0215 55.713 83.7918 54.0208 86.7032 52.7799C89.3194 51.899 92.0415 52.2042 94.5108 53.3658C97.0856 54.7608 98.7757 56.7066 99.7183 59.5062C100.433 62.3507 99.9849 64.9995 98.5986 67.5583C97.0723 70.0469 95.0338 71.216 92.3428 72.189C92.7892 72.2194 92.7892 72.2194 93.2446 72.2504C98.1684 72.6324 102.135 74.0248 105.702 77.5797C105.866 77.738 106.03 77.8963 106.198 78.0594C110.041 82.0368 110.653 87.2121 110.672 92.5009C110.673 92.7992 110.674 93.0975 110.676 93.4048C110.678 94.0316 110.68 94.6583 110.68 95.2851C110.682 96.0827 110.687 96.8803 110.694 97.678C110.699 98.4474 110.7 99.2169 110.701 99.9863C110.704 100.27 110.707 100.553 110.71 100.845C110.701 104.369 110.701 104.369 109.581 105.615C108.705 106.367 108.124 106.672 106.993 106.67C106.771 106.671 106.55 106.671 106.322 106.671C106.078 106.67 105.834 106.67 105.583 106.669C105.327 106.669 105.071 106.669 104.807 106.669C103.957 106.669 103.108 106.667 102.258 106.665C101.67 106.665 101.082 106.664 100.494 106.664C99.1032 106.663 97.7121 106.661 96.3209 106.659C94.582 106.656 92.843 106.655 91.1041 106.654C88.0014 106.651 84.8987 106.647 81.7959 106.642C81.8068 106.942 81.8177 107.242 81.8289 107.55C81.8377 107.951 81.8462 108.351 81.8545 108.752C81.8624 108.948 81.8702 109.145 81.8783 109.348C81.9002 110.756 81.6589 111.797 80.8584 112.97C79.7618 114.013 78.9509 114.171 77.4685 114.177C77.314 114.178 77.1595 114.178 77.0003 114.179C76.4816 114.182 75.9629 114.183 75.4442 114.184C75.0727 114.185 74.7012 114.187 74.3297 114.188C73.1087 114.193 71.8878 114.196 70.6668 114.198C70.2464 114.199 69.826 114.2 69.4056 114.201C67.4305 114.205 65.4554 114.209 63.4803 114.211C61.2008 114.213 58.9213 114.219 56.6418 114.229C54.8796 114.236 53.1175 114.239 51.3553 114.24C50.3029 114.24 49.2507 114.243 48.1983 114.248C47.208 114.254 46.2177 114.255 45.2273 114.252C44.8644 114.252 44.5015 114.254 44.1386 114.257C40.7103 114.286 40.7103 114.286 39.3741 113.205C38.5696 112.167 38.1705 111.361 38.1793 110.053C38.1804 109.755 38.1804 109.755 38.1816 109.451C38.1845 109.141 38.1845 109.141 38.1875 108.825C38.1886 108.616 38.1897 108.406 38.1907 108.191C38.1935 107.675 38.1974 107.158 38.2022 106.642C38.0012 106.643 38.0012 106.643 37.7962 106.645C34.5332 106.666 31.2703 106.681 28.0073 106.691C26.4294 106.696 24.8514 106.702 23.2735 106.713C21.7508 106.723 20.2281 106.729 18.7054 106.731C18.1243 106.733 17.5433 106.736 16.9623 106.741C16.1486 106.748 15.3352 106.749 14.5215 106.749C14.1609 106.754 14.1609 106.754 13.793 106.759C12.4337 106.751 11.6111 106.638 10.5459 105.705C9.53384 104.419 9.34619 103.386 9.34002 101.784C9.33777 101.387 9.33777 101.387 9.33549 100.982C9.33522 100.697 9.33496 100.412 9.33469 100.119C9.33391 99.8227 9.33313 99.5263 9.33233 99.2209C9.33114 98.5927 9.33049 97.9644 9.33063 97.3361C9.33065 96.6991 9.32904 96.062 9.32583 95.425C9.29252 88.7337 9.38959 82.5568 14.3728 77.4973C14.5795 77.2924 14.7861 77.0876 14.9991 76.8765C15.1477 76.72 15.2964 76.5635 15.4495 76.4023C18.6253 73.2968 23.3823 72.3226 27.6553 72.189C27.4768 72.1235 27.2982 72.0579 27.1142 71.9904C24.0503 70.8008 22.043 69.1586 20.668 66.1539C19.6876 63.6396 19.6762 61.0866 20.6772 58.5779C22.023 55.71 23.801 53.9945 26.7325 52.7799C30.2658 51.5856 33.9861 52.5053 36.8051 54.8764ZM25.4077 57.7905C24.0921 59.2284 23.3822 60.8505 23.4366 62.814C23.8441 65.0436 24.8794 66.6566 26.7178 67.9703C28.3546 68.8493 29.8898 69.1224 31.6836 68.6295C33.7102 67.931 35.0443 66.7062 36.0489 64.8355C36.6835 62.8982 36.6398 61.4294 35.8584 59.5328C34.9251 57.7995 33.5078 56.6292 31.6397 56.0172C29.3378 55.4621 27.1003 56.1229 25.4077 57.7905ZM85.4077 57.7905C84.0921 59.2284 83.3822 60.8505 83.4366 62.814C83.8441 65.0436 84.8794 66.6566 86.7178 67.9703C88.3546 68.8493 89.8898 69.1224 91.6836 68.6295C93.7129 67.9301 95.0564 66.7031 96.0489 64.8209C96.6781 62.9333 96.7106 61.3165 95.8575 59.5008C94.87 57.7897 93.5279 56.6357 91.6397 56.0172C89.3378 55.4621 87.1003 56.1229 85.4077 57.7905ZM18.2803 78.7515C18.1099 78.8793 17.9395 79.0071 17.764 79.1388C14.8573 81.4963 13.3288 85.0085 12.9383 88.6652C12.8413 89.9289 12.8515 91.1948 12.8503 92.4616C12.8495 92.7592 12.8488 93.0568 12.848 93.3635C12.8468 93.9889 12.8461 94.6143 12.8463 95.2397C12.8463 96.0417 12.8431 96.8437 12.839 97.6458C12.8358 98.4128 12.8359 99.1799 12.8357 99.9469C12.834 100.235 12.8323 100.524 12.8306 100.821C12.8313 101.086 12.832 101.351 12.8328 101.625C12.8324 101.859 12.8321 102.093 12.8317 102.334C12.835 102.936 12.835 102.936 13.3584 103.361C13.8208 103.431 13.8208 103.431 14.358 103.417C14.5677 103.418 14.7773 103.419 14.9934 103.419C15.224 103.418 15.4546 103.416 15.6922 103.414C15.9346 103.414 16.177 103.414 16.4267 103.414C17.2308 103.414 18.0348 103.41 18.8388 103.407C19.3951 103.406 19.9515 103.405 20.5078 103.405C21.9743 103.403 23.4408 103.398 24.9072 103.393C26.4028 103.388 27.8983 103.386 29.3939 103.384C32.33 103.379 35.2661 103.371 38.2022 103.361C38.2056 103.111 38.209 102.861 38.2125 102.603C38.2264 101.656 38.2444 100.709 38.2637 99.7618C38.2714 99.3554 38.278 98.9491 38.2834 98.5427C38.3664 92.4458 39.5394 87.5294 43.8693 83.0234C44.4119 82.3702 44.4119 82.3702 44.5303 81.564C42.8962 78.8837 39.5263 76.9517 36.5616 76.1734C34.6542 75.7799 32.688 75.8685 30.7491 75.857C30.2728 75.8531 29.7965 75.8468 29.3202 75.8378C25.1635 75.7598 21.7062 76.1598 18.2803 78.7515ZM76.0098 80.8023C75.4098 81.4728 75.4098 81.4728 75.5053 82.0346C75.7361 82.5819 75.9926 82.8396 76.4346 83.234C80.0893 86.7541 81.531 91.6383 81.6357 96.586C81.6406 96.7811 81.6455 96.9761 81.6505 97.177C81.6657 97.793 81.6796 98.409 81.6934 99.025C81.7035 99.4455 81.7138 99.8661 81.7241 100.287C81.749 101.311 81.7728 102.336 81.7959 103.361C85.0271 103.372 88.2582 103.38 91.4893 103.385C92.9895 103.388 94.4897 103.391 95.9899 103.396C97.4366 103.401 98.8833 103.404 100.33 103.405C100.883 103.406 101.436 103.408 101.989 103.41C102.761 103.414 103.534 103.414 104.306 103.414C104.652 103.417 104.652 103.417 105.005 103.419C105.214 103.419 105.424 103.418 105.64 103.417C105.914 103.418 105.914 103.418 106.194 103.419C106.696 103.4 106.696 103.4 107.108 102.892C107.18 102.318 107.18 102.318 107.169 101.643C107.171 101.251 107.171 101.251 107.174 100.851C107.173 100.566 107.172 100.281 107.171 99.9881C107.171 99.5482 107.171 99.5482 107.172 99.0994C107.172 98.476 107.172 97.8526 107.17 97.2292C107.167 96.5955 107.167 95.9618 107.17 95.3281C107.172 94.4107 107.172 93.4934 107.171 92.576C107.172 92.1576 107.172 92.1576 107.174 91.7307C107.152 87.7293 106.493 84.3399 104.062 81.0953C103.964 80.9566 103.867 80.8179 103.767 80.6751C101.798 78.0987 98.5121 76.5287 95.3897 75.939C94.5921 75.8729 93.7984 75.8677 92.9983 75.8686C92.7736 75.8675 92.5488 75.8665 92.3172 75.8655C91.8437 75.8642 91.3701 75.864 90.8966 75.8651C90.1802 75.8658 89.464 75.8603 88.7475 75.8544C83.6643 75.8375 79.5864 76.9627 76.0098 80.8023ZM44.9698 86.8036C42.2224 90.149 41.5639 94.1027 41.618 98.299C41.6192 98.6504 41.6199 99.0018 41.6204 99.3532C41.6221 100.08 41.6269 100.807 41.6342 101.534C41.6436 102.467 41.6477 103.4 41.65 104.333C41.6523 105.227 41.657 106.121 41.662 107.015C41.6628 107.185 41.6636 107.355 41.6644 107.53C41.6671 108.008 41.6717 108.485 41.6763 108.962C41.6786 109.233 41.6809 109.505 41.6833 109.784C41.6492 110.376 41.6492 110.376 41.9522 110.627C42.4173 110.65 42.8833 110.656 43.3491 110.656C43.6527 110.657 43.9564 110.658 44.2693 110.658C44.609 110.658 44.9487 110.657 45.2884 110.657C45.6436 110.657 45.9989 110.658 46.3541 110.658C47.3216 110.659 48.2891 110.659 49.2566 110.658C50.2669 110.657 51.2771 110.658 52.2873 110.658C53.9842 110.659 55.6811 110.658 57.3779 110.657C59.3426 110.656 61.3072 110.656 63.2719 110.658C64.9556 110.659 66.6393 110.659 68.323 110.658C69.33 110.658 70.3369 110.658 71.3439 110.658C72.2904 110.659 73.2368 110.659 74.1833 110.657C74.5317 110.657 74.88 110.657 75.2284 110.658C75.7019 110.658 76.1755 110.657 76.6491 110.656C76.9147 110.656 77.1804 110.656 77.4541 110.656C78.0313 110.694 78.0313 110.694 78.2803 110.392C78.3073 109.916 78.3177 109.439 78.3218 108.962C78.3248 108.655 78.3278 108.348 78.3309 108.032C78.3328 107.693 78.3346 107.354 78.3362 107.015C78.3371 106.844 78.3381 106.673 78.3391 106.497C78.344 105.588 78.3473 104.68 78.3495 103.771C78.3521 102.842 78.3601 101.913 78.3695 100.984C78.3757 100.263 78.3775 99.5419 78.3784 98.8205C78.3795 98.4788 78.3822 98.1372 78.3866 97.7956C78.4414 93.2539 77.3455 89.1849 74.1165 85.8313C73.9437 85.6606 73.7709 85.4899 73.5928 85.314C73.449 85.1651 73.3052 85.0162 73.157 84.8627C69.6842 81.5161 65.2659 81.2097 60.721 81.238C60.0005 81.2418 59.2803 81.238 58.5599 81.2335C52.9215 81.227 48.7999 82.558 44.9698 86.8036Z" fill="#024D81"/>
<path d="M94.2182 5.85855C94.8589 6.18757 95.0963 6.38641 95.3282 7.07088C95.4102 7.94914 95.1873 8.55329 94.9003 9.38608C94.8479 9.54049 94.7956 9.6949 94.7416 9.85398C94.5746 10.3444 94.4038 10.8334 94.2328 11.3224C94.1186 11.6557 94.0046 11.9891 93.8909 12.3226C93.6123 13.1377 93.3303 13.9516 93.0463 14.7648C93.2401 14.7934 93.4339 14.8219 93.6335 14.8514C95.2156 15.089 96.7858 15.3468 98.349 15.6877C98.5306 15.7244 98.7122 15.7611 98.8993 15.7989C99.8166 15.9984 100.42 16.1373 101.015 16.8742C101.249 17.6652 101.249 17.6652 101.249 18.5148C100.234 19.8411 98.6971 20.5384 97.2651 21.342C96.9927 21.496 96.7203 21.6501 96.4481 21.8044C96.0329 22.0396 95.6176 22.2747 95.2018 22.5091C94.3111 23.0123 93.4302 23.5297 92.5538 24.0574C92.2247 24.2532 92.2247 24.2532 91.8891 24.4529C91.4802 24.6966 91.0729 24.9432 90.6678 25.1932C88.1942 26.65 85.9329 25.7926 83.2794 25.1917C82.8285 25.0903 82.377 24.9918 81.9254 24.8933C81.5254 24.8031 81.5254 24.8031 81.1173 24.711C80.1302 24.5719 79.5032 24.6504 78.6762 25.2091C78.5457 25.3203 78.4152 25.4315 78.2807 25.5461C78.3402 25.6772 78.3997 25.8083 78.461 25.9434C80.7015 31.1626 80.4158 36.796 78.3539 42.0109C76.0381 47.0583 72.0272 50.6467 66.9043 52.6823C62.055 54.39 56.392 54.2635 51.7123 52.0806C46.6419 49.5775 42.8691 45.7058 41.0151 40.3117C39.3751 35.0543 39.6267 29.3107 42.1869 24.3742C43.3013 22.4656 44.6242 20.7925 46.1713 19.2179C46.3148 19.0714 46.4583 18.9249 46.6062 18.7739C50.3202 15.2658 55.545 13.6899 60.5568 13.7295C66.2588 13.9014 71.0778 16.3321 75.037 20.3797C76.1713 21.6393 76.1713 21.6393 76.1713 22.2648C77.2462 21.7745 77.692 21.5695 78.2266 20.4902C78.3307 20.1588 78.4287 19.8255 78.5215 19.4908C78.5771 19.3133 78.6328 19.1359 78.6901 18.9531C78.9265 18.1993 79.1488 17.4415 79.3715 16.6835C80.5256 12.81 80.5256 12.81 81.9768 11.9748C82.2355 11.8477 82.2355 11.8477 82.4994 11.7179C82.8961 11.4833 83.2925 11.2483 83.6887 11.013C84.1265 10.768 84.565 10.5246 85.0043 10.2824C85.4811 10.0174 85.9578 9.75221 86.4344 9.48679C86.7957 9.28574 86.7957 9.28574 87.1643 9.08064C87.8773 8.67827 88.583 8.26554 89.2872 7.848C89.5081 7.71797 89.7291 7.58794 89.9567 7.45398C90.3764 7.2063 90.7949 6.95638 91.2118 6.70393C92.2417 6.10058 92.9855 5.6663 94.2182 5.85855ZM89.9994 11.4836C89.6088 11.7129 89.6088 11.7129 89.2103 11.9468C88.9584 12.0945 88.9584 12.0945 88.7014 12.2452C88.3346 12.4611 87.9684 12.6782 87.6029 12.8963C86.8311 13.3559 86.0684 13.8011 85.2616 14.1972C83.9937 14.8302 83.5213 15.3425 83.0414 16.6984C82.7296 17.6282 82.7296 17.6282 82.9682 18.5148C83.7913 18.0674 84.6128 17.6172 85.433 17.1644C85.7119 17.0109 85.9913 16.8582 86.2711 16.7062C86.6742 16.4871 87.0757 16.265 87.4772 16.0429C87.719 15.9103 87.9608 15.7778 88.2099 15.6412C89.1729 15.0057 89.5832 14.3051 89.9408 13.2267C90.0025 13.0476 90.0641 12.8684 90.1276 12.6838C90.2864 12.1463 90.2864 12.1463 89.9994 11.4836ZM48.2807 22.2648C48.1178 22.4228 47.955 22.5808 47.7872 22.7436C44.7111 25.9149 43.4309 30.1128 43.4828 34.4504C43.6549 38.9356 45.6701 42.9196 48.8566 46.0301C52.8557 49.5436 57.3792 50.483 62.5776 50.1554C66.424 49.7205 70.2394 47.3198 72.6584 44.377C75.5804 40.6533 76.9085 36.347 76.4057 31.6398C76.0446 29.1974 76.0446 29.1974 74.7651 27.1867C72.3287 28.5789 72.3287 28.5789 69.8432 29.9992C69.9592 31.0433 69.9592 31.0433 70.0776 32.1086C70.2807 35.2947 69.8321 38.0476 67.7338 40.5461C65.6759 42.6879 63.5103 43.8025 60.5241 43.8943C57.41 43.9338 54.9005 43.0963 52.558 40.9855C50.4689 38.7581 49.7931 35.9211 49.8499 32.9655C50.0782 30.2259 51.1883 27.9213 53.2062 26.0441C55.6645 24.1084 58.2959 23.4162 61.4057 23.6711C63.7355 24.0735 65.6818 25.0142 67.3346 26.7088C67.7277 26.9974 67.7277 26.9974 68.2383 26.9441C69.2202 26.6114 70.0788 26.1128 70.9711 25.59C71.1559 25.4871 71.3406 25.3843 71.531 25.2783C71.7927 25.1258 71.7927 25.1258 72.0597 24.9702C72.2191 24.8784 72.3786 24.7866 72.5429 24.692C72.7148 24.5347 72.7148 24.5347 72.8901 24.3742C72.9871 23.4321 72.9871 23.4321 72.4167 22.8388C68.9476 19.4085 64.9949 17.3869 60.0434 17.2404C55.4824 17.2863 51.4588 18.9964 48.2807 22.2648ZM89.2917 18.7473C89.033 18.8933 88.7742 19.0392 88.5076 19.1895C88.241 19.3439 87.9743 19.4983 87.6996 19.6574C87.4259 19.8117 87.152 19.9659 86.8779 20.1197C85.5508 20.7586 85.5508 20.7586 84.6088 21.7961C85.7721 22.3777 86.8324 22.6941 88.1244 22.4992C89.2705 22.0409 90.3221 21.4501 91.3764 20.8146C91.5149 20.7313 91.6534 20.6479 91.7961 20.5621C93.3363 19.7509 93.3363 19.7509 94.4526 18.5148C94.0916 18.4349 93.7302 18.3572 93.3686 18.2804C93.1674 18.2369 92.9662 18.1934 92.7588 18.1486C91.3652 17.9288 90.5271 18.0452 89.2917 18.7473ZM54.0522 30.2336C53.1132 31.967 52.8634 33.8795 53.3719 35.7926C54.2046 38.0311 55.543 39.257 57.6557 40.3117C59.4944 40.9209 61.5063 40.6828 63.2377 39.8878C64.9601 38.948 65.9326 37.5772 66.6352 35.7707C66.8365 34.7093 66.9301 33.6538 66.7963 32.5773C66.6416 32.4226 66.4869 32.2679 66.3276 32.1086C66.1716 32.1996 66.0157 32.2907 65.855 32.3845C65.1447 32.7977 64.4325 33.2076 63.7201 33.6173C63.4748 33.7607 63.2295 33.9041 62.9767 34.0518C62.7381 34.1885 62.4994 34.3252 62.2535 34.466C62.035 34.5925 61.8165 34.7189 61.5914 34.8491C60.8894 35.1777 60.3009 35.3189 59.5307 35.3898C58.974 35.1701 58.974 35.1701 58.5932 34.6867C58.3504 33.5472 58.3504 33.5472 58.5932 32.8117C59.1902 32.1802 59.9461 31.8205 60.7026 31.4054C61.0456 31.2039 61.388 31.0012 61.7298 30.7975C62.712 30.2128 63.6985 29.6359 64.6869 29.0617C63.3606 27.6462 61.9579 26.9246 59.9994 26.8351C57.4574 26.9586 55.5917 28.2889 54.0522 30.2336Z" fill="#024D81"/>
<path d="M66.3156 58.4329C68.5998 60.3002 70.2243 62.6163 70.5472 65.6234C70.8164 68.6009 70.0313 71.4426 68.2035 73.8265C66.2589 75.9876 63.6184 77.3886 60.7035 77.5765C57.5391 77.6037 54.7983 76.692 52.4628 74.5297C50.2943 72.2599 49.3294 69.4634 49.3958 66.3613C49.6341 63.3125 50.8697 60.9355 53.0725 58.8366C56.8789 55.7974 62.3429 55.5079 66.3156 58.4329ZM54.6097 62.3422C53.3121 64.0367 52.7368 65.8337 52.9691 67.9672C53.4787 70.2176 54.6537 71.7536 56.4847 73.1234C58.1779 74.0818 60.0764 74.2986 61.9486 73.7826C63.9298 73.0826 65.4566 71.8128 66.4063 69.9246C67.1796 67.9736 67.3278 66.2606 66.5866 64.2794C65.5975 62.245 64.1618 61.111 62.1683 60.1596C59.3115 59.5552 56.6029 60.1303 54.6097 62.3422Z" fill="#024D81"/>
</svg>
