<svg width="120" height="120" viewBox="0 0 120 120" fill="none" xmlns="http://www.w3.org/2000/svg">
<path d="M72.6713 20.8599C73.1451 21.241 73.6036 21.6329 74.0629 22.0318C74.2379 22.1832 74.4128 22.3345 74.593 22.4905C77.8765 25.5546 80.4532 30.4377 80.6592 34.9607C80.7045 37.1717 80.7045 37.1717 80.6802 38.2337C80.6311 39.5736 80.6311 39.5736 81.2082 40.7165C81.6352 41.0207 81.6352 41.0207 82.0917 41.2606C82.6602 41.5727 82.9339 41.9831 83.2768 42.525C83.3871 42.6939 83.4973 42.8627 83.611 43.0368C84.6137 44.9274 84.7406 47.3371 84.206 49.4061C83.9854 49.9241 83.738 50.3841 83.4379 50.8599C83.3557 51.0056 83.2736 51.1512 83.1889 51.3012C82.1897 52.9041 80.5556 53.9028 78.7504 54.3756C78.1251 54.4071 77.5278 54.4206 76.9047 54.4049C76.7434 54.4027 76.5821 54.4006 76.4158 54.3984C76.0221 54.393 75.6284 54.3846 75.2348 54.3756C75.1711 54.5475 75.1073 54.7194 75.0416 54.8965C74.3297 56.578 73.1168 58.423 71.602 59.4668C70.3042 60.3297 70.3042 60.3297 69.6409 61.6833C69.5867 62.3815 69.5702 63.0518 69.6098 63.7506C69.7673 63.7724 69.9248 63.7941 70.0871 63.8166C70.9607 64.0283 71.7217 64.4024 72.5203 64.8034C72.684 64.8847 72.8477 64.9659 73.0163 65.0496C73.3608 65.2211 73.7049 65.3933 74.0487 65.5662C74.5752 65.8304 75.1033 66.0911 75.6317 66.3516C75.9667 66.5189 76.3017 66.6864 76.6365 66.8542C76.7944 66.9319 76.9524 67.0095 77.1151 67.0895C77.8816 67.4786 78.2636 67.7078 78.7504 68.4381C78.769 68.9846 78.771 69.5322 78.7504 70.0787C78.9145 70.1337 79.0785 70.1887 79.2476 70.2453C80.3164 70.7239 81.1589 71.4841 82.0692 72.2119C82.7313 72.7436 82.7313 72.7436 83.6723 72.6568C84.168 72.4067 84.168 72.4067 84.6391 72.0709C85.5017 71.4849 85.5017 71.4849 86.016 71.4849C85.5644 70.7048 85.0736 69.9992 84.5219 69.2877C82.41 66.2297 82.1387 62.9157 82.5004 59.2974C82.6933 58.2804 82.986 57.4139 83.4379 56.4849C83.5455 56.2595 83.653 56.0342 83.7638 55.802C85.4405 52.5281 87.9644 50.4205 91.4506 49.19C94.7485 48.164 98.6186 48.4156 101.719 49.9224C102.555 50.4126 103.314 50.9486 104.063 51.5631C104.294 51.7449 104.526 51.9268 104.764 52.1142C107.021 54.0108 108.502 56.9962 108.816 59.9C109.078 63.5927 108.651 66.8096 106.324 69.8095C105.913 70.3451 105.573 70.9011 105.235 71.4849C105.404 71.546 105.573 71.607 105.747 71.6699C109.916 73.4624 113.094 77.7783 114.83 81.8286C115.69 84.1573 116.282 86.4351 116.306 88.9175C116.308 89.1068 116.31 89.2962 116.312 89.4913C116.315 89.8918 116.318 90.2923 116.32 90.6928C116.322 91.0975 116.327 91.5023 116.334 91.907C116.4 95.7266 115.832 98.8066 113.213 101.771C111.237 103.68 108.601 105.033 105.839 105.027C105.534 105.027 105.229 105.027 104.915 105.027C104.584 105.026 104.252 105.025 103.92 105.023C103.58 105.023 103.24 105.023 102.899 105.022C102.006 105.022 101.112 105.019 100.218 105.017C99.3049 105.014 98.3922 105.013 97.4794 105.012C95.6895 105.009 93.8997 105.005 92.1098 105.001C92.1118 105.27 92.1139 105.54 92.116 105.818C92.1176 106.178 92.1192 106.537 92.1208 106.897C92.123 107.162 92.123 107.162 92.1252 107.433C92.1339 110.111 91.8084 112.507 89.9711 114.551C87.8973 116.447 85.5247 116.419 82.8591 116.3C81.2175 116.164 79.6524 115.678 78.0784 115.217C77.6989 115.111 77.3192 115.005 76.9394 114.9C75.9544 114.626 74.9713 114.346 73.9887 114.064C72.4056 113.61 70.8201 113.165 69.2339 112.723C68.6835 112.568 68.1343 112.41 67.5852 112.251C67.2491 112.156 66.9129 112.061 66.5768 111.967C66.2847 111.883 65.9926 111.799 65.6917 111.713C64.9242 111.563 64.4855 111.55 63.7504 111.797C63.1203 112.323 63.1203 112.323 62.5346 112.969C61.242 114.334 61.242 114.334 60.0883 114.493C58.9513 114.482 58.405 113.935 57.6072 113.18C57.1879 112.735 57.1879 112.735 56.6459 112.017C56.0774 111.508 56.0774 111.508 55.5147 111.587C53.7847 111.933 52.0894 112.38 50.3933 112.863C49.721 113.053 49.0475 113.24 48.3741 113.426C47.1277 113.772 45.8819 114.119 44.6382 114.474C34.7596 117.287 34.7596 117.287 31.4085 115.623C29.8223 114.577 28.7928 113.204 28.2334 111.387C28.1014 110.743 28.0992 110.144 28.1025 109.487C28.1037 109.095 28.1037 109.095 28.1048 108.695C28.1078 108.287 28.1078 108.287 28.1108 107.872C28.1118 107.596 28.1129 107.321 28.114 107.038C28.1167 106.359 28.1206 105.68 28.1254 105.001C27.9384 105.003 27.7514 105.006 27.5587 105.008C25.7833 105.032 24.0081 105.05 22.2327 105.061C21.3202 105.067 20.4079 105.076 19.4955 105.089C18.6125 105.102 17.7297 105.109 16.8467 105.112C16.5123 105.114 16.1779 105.118 15.8436 105.124C12.306 105.189 9.42808 104.178 6.80645 101.765C4.76466 99.6163 3.68046 96.8215 3.67168 93.8833C3.67012 93.6968 3.66856 93.5104 3.66695 93.3183C3.66459 92.9245 3.66348 92.5308 3.66355 92.137C3.66254 91.5475 3.65404 90.9585 3.64513 90.3691C3.60613 84.7583 5.4741 79.4966 9.41387 75.429C12.4274 72.3969 12.4274 72.3969 14.2973 71.4849C14.452 71.4849 14.6067 71.4849 14.766 71.4849C14.3144 70.7048 13.8236 69.9992 13.2719 69.2877C11.1188 66.1699 10.6989 62.4517 11.3441 58.7614C11.8124 56.738 12.7507 55.0367 14.0629 53.4381C14.3357 53.0909 14.3357 53.0909 14.6141 52.7368C16.5107 50.4796 19.4961 48.9993 22.3998 48.6854C26.3769 48.4032 29.6527 48.9946 32.8129 51.5631C33.0081 51.7099 33.2033 51.8567 33.4043 52.008C35.566 53.8424 37.2732 57.021 37.556 59.8548C37.7493 63.5964 37.4414 66.7568 35.0743 69.8095C34.6633 70.3451 34.3228 70.9011 33.9848 71.4849C34.1491 71.5429 34.3135 71.6009 34.4828 71.6607C35.2434 71.9914 35.884 72.4175 36.5629 72.8912C37.6892 72.3988 38.6374 71.6153 39.6199 70.8889C40.7325 70.0787 40.7325 70.0787 41.2504 70.0787C41.1972 69.953 41.1441 69.8273 41.0893 69.6978C40.9774 68.8477 41.2613 68.4516 41.7192 67.7349C42.2725 67.3144 42.872 67.0242 43.498 66.726C43.6717 66.6396 43.8453 66.5531 44.0243 66.4641C44.3903 66.2829 44.7574 66.1037 45.1253 65.9265C45.6884 65.6551 46.2479 65.3773 46.8072 65.0982C47.1639 64.9227 47.5208 64.7475 47.8779 64.5727C48.0452 64.49 48.2124 64.4072 48.3848 64.322C49.2057 63.9291 49.6985 63.7506 50.6254 63.7506C50.6254 62.8224 50.6254 61.8943 50.6254 60.9381C50.2387 60.7834 49.852 60.6287 49.4535 60.4693C49.0668 60.1773 49.0668 60.1773 48.7303 59.8477C48.6048 59.7248 48.4793 59.6019 48.35 59.4753C48.1567 59.2785 48.1567 59.2785 47.9594 59.0777C47.759 58.8757 47.759 58.8757 47.5546 58.6696C44.766 55.7833 44.766 55.7833 44.766 54.3756C44.5394 54.3864 44.3129 54.3973 44.0794 54.4085C41.755 54.473 39.9236 54.2736 38.0278 52.8228C36.2249 51.1137 35.4818 49.1001 35.391 46.6412C35.5474 44.4242 36.4736 42.6239 37.9692 41.0162C38.1326 40.9134 38.2961 40.8106 38.4645 40.7046C38.9587 40.3432 38.9587 40.3432 39.0412 39.7334C39.05 39.5056 39.0588 39.2779 39.0678 39.0432C39.081 38.7897 39.0942 38.5362 39.1077 38.275C39.1187 38.005 39.1297 37.7349 39.141 37.4566C39.4678 32.0605 40.9676 27.5416 44.5317 23.4381C44.683 23.2631 44.8344 23.0882 44.9903 22.908C52.0201 15.375 64.5995 14.6447 72.6713 20.8599ZM47.7322 25.8938C44.3557 29.8162 43.0416 34.261 43.1254 39.3756C45.3194 39.4553 47.2522 39.1824 48.9848 37.7349C49.9734 36.6703 50.5504 35.5515 51.0942 34.2193C51.8664 33.8332 52.6032 33.8655 53.4379 33.9849C53.9112 34.1585 54.3798 34.3454 54.8442 34.5416C58.6092 36.0694 62.1639 35.7631 65.8781 34.2321C66.8165 33.8934 67.4532 33.839 68.4379 33.9849C69.0859 34.4927 69.3436 35.0715 69.6684 35.816C70.4127 37.3446 71.4763 38.3901 73.0842 39.0185C74.2454 39.2979 75.4516 39.3237 76.641 39.3756C76.846 34.0864 75.7122 29.9345 72.1385 25.8999C69.5905 23.1912 66.0021 21.0814 62.2156 20.8184C56.7139 20.6935 51.6459 21.5907 47.7322 25.8938ZM53.4379 38.2037C53.2977 38.4188 53.1575 38.6339 53.0131 38.8555C51.4618 41.1382 49.4056 42.1385 46.8754 43.1256C46.7644 48.2189 47.2964 52.3884 50.8653 56.3018C53.5856 58.9312 56.8746 59.8647 60.5501 59.8519C64.1311 59.7802 66.9493 58.3135 69.5338 55.8953C71.6318 53.6528 72.9285 50.7955 72.9139 47.7206C72.9132 47.4389 72.9124 47.1571 72.9116 46.8669C72.9097 46.5749 72.9077 46.2829 72.9057 45.982C72.9046 45.6855 72.9036 45.3889 72.9025 45.0834C72.8997 44.3527 72.8959 43.6219 72.891 42.8912C72.6812 42.8229 72.4713 42.7546 72.255 42.6843C69.6795 41.825 68.0146 40.4915 66.5629 38.2037C66.2588 38.3052 66.2588 38.3052 65.9486 38.4088C61.8813 39.6077 57.4449 39.6631 53.4379 38.2037ZM40.5473 44.2974C39.6247 45.3171 39.4601 46.1532 39.5201 47.4853C39.7082 48.6639 40.3202 49.271 41.2211 49.9957C41.9663 50.3981 42.5303 50.5089 43.3598 50.6256C43.3272 49.6343 43.2924 48.6431 43.2573 47.6519C43.248 47.3711 43.2388 47.0903 43.2293 46.8009C43.2195 46.5298 43.2097 46.2586 43.1996 45.9793C43.191 45.7301 43.1824 45.4809 43.1735 45.2242C43.129 44.5829 43.0333 43.9861 42.891 43.3599C41.7561 43.3599 41.4259 43.6018 40.5473 44.2974ZM76.8754 43.3599C76.7981 45.7576 76.7207 48.1552 76.641 50.6256C78.8012 50.1207 78.8012 50.1207 80.1896 48.5491C80.5619 47.6218 80.5151 46.6838 80.391 45.7037C79.8437 44.5669 79.1584 43.9495 78.0473 43.3599C77.6606 43.3599 77.2739 43.3599 76.8754 43.3599ZM16.7674 56.4492C15.1916 58.6529 15.004 61.1262 15.2348 63.7506C15.7495 66.2746 17.2918 68.2351 19.3537 69.7253C21.6919 71.1786 24.322 71.42 26.9892 70.8615C29.6144 70.011 31.5799 68.1605 32.888 65.7611C33.8898 63.4493 33.9373 60.6159 33.0619 58.2574C31.9518 55.984 30.1977 54.2477 27.891 53.2037C23.609 51.7427 19.621 53.0549 16.7674 56.4492ZM88.433 55.9283C86.574 58.1967 86.1727 60.6461 86.4197 63.4933C86.728 65.8214 88.0482 67.6112 89.766 69.1412C92.143 70.8903 94.5973 71.302 97.5004 71.0162C100.025 70.4962 101.983 68.9619 103.475 66.8972C104.926 64.5635 105.184 61.9153 104.603 59.2535C103.822 56.8892 102.198 54.8041 99.9916 53.6047C95.8263 51.7033 91.5746 52.6719 88.433 55.9283ZM54.3754 63.0474C54.0399 64.2777 53.9225 65.3616 54.3754 66.5631C55.0266 67.5122 55.7883 68.3151 56.602 69.1265C56.8095 69.3361 57.0169 69.5457 57.2307 69.7617C58.4471 70.9471 58.4471 70.9471 60.0004 71.5161C61.4187 71.3284 62.4433 70.0918 63.3989 69.1265C63.6106 68.9154 63.8223 68.7043 64.0404 68.4868C65.0642 67.3967 65.8837 66.5151 65.9509 64.9761C65.9045 64.3135 65.8001 63.6878 65.6254 63.0474C65.4877 63.0813 65.3499 63.1151 65.2079 63.15C61.7636 63.8626 57.7991 63.8883 54.3754 63.0474ZM48.1205 69.024C47.9784 69.1022 47.8362 69.1805 47.6898 69.2611C47.3395 69.4542 46.9902 69.6491 46.641 69.8443C47.7704 71.2058 48.9877 72.4531 50.2446 73.6968C50.4394 73.8907 50.6343 74.0845 50.8351 74.2842C51.3115 74.7579 51.7885 75.231 52.266 75.7037C53.0654 75.3274 53.5827 74.9056 54.1996 74.2681C54.448 74.0134 54.448 74.0134 54.7013 73.7536C54.8258 73.6237 54.9503 73.4938 55.0785 73.3599C54.5265 72.0841 53.4854 71.221 52.5151 70.2545C52.2253 69.959 52.2253 69.959 51.9296 69.6575C51.6507 69.3784 51.6507 69.3784 51.3661 69.0936C51.111 68.8374 51.111 68.8374 50.8507 68.5761C49.8794 67.7891 49.057 68.4984 48.1205 69.024ZM69.0997 68.634C68.907 68.8304 68.7143 69.0267 68.5157 69.2291C68.3065 69.4406 68.0973 69.6521 67.8817 69.8699C67.6618 70.0957 67.4419 70.3216 67.2221 70.5474C66.9996 70.7734 66.777 70.9993 66.5542 71.2249C66.0086 71.7788 65.4648 72.3343 64.9223 72.8912C65.2985 73.6905 65.7204 74.2079 66.3578 74.8248C66.6125 75.0731 66.6125 75.0731 66.8724 75.3265C67.0023 75.451 67.1322 75.5754 67.266 75.7037C68.1715 75.3323 68.74 74.7522 69.423 74.0612C69.5361 73.9474 69.6493 73.8337 69.7658 73.7164C70.1251 73.3545 70.4827 72.9911 70.8403 72.6275C71.0843 72.3811 71.3284 72.1348 71.5727 71.8887C72.1696 71.2866 72.7651 70.683 73.3598 70.0787C72.7806 69.4731 72.2389 69.1194 71.4848 68.7457C71.2818 68.6433 71.0787 68.5408 70.8696 68.4353C70.0755 68.1049 69.7683 68.07 69.0997 68.634ZM37.4418 78.1051C34.8389 80.8758 33.3807 84.189 32.5199 87.8472C32.4817 88.0052 32.4434 88.1631 32.4039 88.3258C31.7683 91.2439 31.8386 94.3525 31.836 97.3239C31.8353 97.6497 31.8345 97.9756 31.8337 98.3015C31.8323 98.9765 31.8318 99.6514 31.832 100.326C31.832 101.186 31.8288 102.045 31.8248 102.904C31.8222 103.574 31.8217 104.244 31.8218 104.914C31.8214 105.383 31.8189 105.852 31.8163 106.321C31.8209 108.154 31.8306 109.894 32.7104 111.548C33.5709 112.277 34.2726 112.45 35.391 112.501C37.7219 112.164 40.0082 111.533 42.2749 110.908C42.5799 110.825 42.8849 110.742 43.1899 110.659C43.9796 110.444 44.769 110.228 45.5583 110.011C46.3689 109.788 47.18 109.567 47.991 109.346C49.5726 108.915 51.1538 108.481 52.7348 108.047C52.7321 107.742 52.7321 107.742 52.7294 107.431C52.728 107.161 52.7266 106.891 52.7252 106.613C52.7234 106.347 52.7216 106.081 52.7198 105.806C52.7423 104.599 52.9049 103.424 53.0864 102.232C53.1199 102 53.1534 101.768 53.188 101.528C53.2694 100.967 53.3527 100.405 53.4379 99.8443C51.8475 99.996 50.3626 100.367 48.8227 100.785C48.2916 100.925 47.7605 101.065 47.2293 101.205C46.3981 101.426 45.5674 101.647 44.7375 101.872C43.9322 102.09 43.1257 102.302 42.3188 102.513C41.9482 102.616 41.9482 102.616 41.57 102.72C40.1987 103.075 39.2807 103.252 37.9692 102.657C37.5259 101.992 37.502 101.562 37.4858 100.767C37.7348 100.079 37.7348 100.079 38.5595 99.6903C39.0119 99.4635 39.0119 99.4635 39.3754 99.1412C39.5345 98.4039 39.579 97.9025 39.5539 97.1673C39.5549 96.8794 39.5549 96.8794 39.5559 96.5858C39.5572 95.9724 39.5477 95.3599 39.5365 94.7467C39.5291 94.1369 39.5242 93.5274 39.5247 92.9176C39.5247 92.5388 39.52 92.1599 39.5099 91.7812C39.504 90.2508 39.9517 89.0501 40.9565 87.8857C42.37 86.7562 43.7044 86.121 45.5772 86.3082C47.301 86.6007 48.5413 87.213 49.6385 88.6282C51.0517 90.7935 51.7187 93.4182 52.5004 95.8599C53.39 95.6331 53.39 95.6331 54.141 95.1568C54.2194 94.7532 54.2842 94.347 54.3435 93.9402C54.3818 93.6805 54.42 93.4208 54.4595 93.1532C54.5 92.8702 54.5406 92.5873 54.5823 92.2958C54.6242 92.007 54.666 91.7183 54.7091 91.4207C54.7975 90.8082 54.8854 90.1957 54.9727 89.583C55.0845 88.7986 55.1989 88.0145 55.314 87.2305C55.4233 86.4827 55.53 85.7344 55.637 84.9862C55.6785 84.7047 55.72 84.4232 55.7627 84.1331C55.7995 83.8712 55.8363 83.6092 55.8742 83.3394C55.9074 83.109 55.9405 82.8786 55.9746 82.6412C56.0154 82.0414 55.9956 81.6531 55.7817 81.0943C55.2006 80.4546 55.2006 80.4546 54.6098 79.9224C54.4551 79.9998 54.3004 80.0771 54.141 80.1568C53.2487 80.4543 52.4814 80.6077 51.5629 80.3912C49.6345 79.106 48.0175 77.0902 46.3985 75.4387C46.0245 75.0576 45.6489 74.6779 45.2732 74.2984C45.1585 74.1805 45.0438 74.0626 44.9256 73.9411C44.6468 73.6603 44.3558 73.3916 44.0629 73.1256C41.8473 73.1256 38.9237 76.6258 37.4418 78.1051ZM75.5614 73.3627C75.44 73.4875 75.3186 73.6122 75.1935 73.7407C74.9847 73.9507 74.9847 73.9507 74.7717 74.165C74.6242 74.3193 74.4767 74.4736 74.3248 74.6325C74.1711 74.7884 74.0175 74.9442 73.8592 75.1048C73.3677 75.6045 72.8803 76.108 72.393 76.6119C71.9033 77.1133 71.4128 77.6139 70.9218 78.114C70.6161 78.4258 70.3114 78.7385 70.0078 79.0522C69.87 79.1937 69.7323 79.3352 69.5905 79.481C69.4694 79.6061 69.3484 79.7312 69.2237 79.8601C68.557 80.4841 67.928 80.4386 67.0417 80.4306C66.4295 80.3802 65.9381 80.196 65.391 79.9224C64.7762 80.3865 64.3899 80.6903 63.9848 81.3287C63.8879 82.218 64.0472 83.0453 64.2045 83.9215C64.2423 84.167 64.28 84.4125 64.3189 84.6654C64.3975 85.1752 64.4793 85.6845 64.564 86.1932C64.6837 86.9281 64.7891 87.6633 64.8884 88.4011C65.0566 90.4331 65.0566 90.4331 65.6254 92.3443C66.574 92.3687 67.336 92.272 68.2035 91.8756C68.6914 91.2185 69.0459 90.5868 69.4091 89.8592C70.1435 88.3958 71.0246 87.4213 72.4882 86.6845C74.0341 86.2003 76.2125 86.1748 77.7104 86.8511C79.0086 87.6487 79.9237 88.7912 80.391 90.2349C80.4674 90.9219 80.4782 91.6068 80.4881 92.2976C80.4926 92.4936 80.4972 92.6897 80.5018 92.8916C80.5158 93.5148 80.5267 94.138 80.5375 94.7613C80.5465 95.185 80.5556 95.6088 80.565 96.0325C80.5874 97.0687 80.6072 98.1049 80.6254 99.1412C80.9662 99.3007 80.9662 99.3007 81.3139 99.4634C82.0317 99.8443 82.0317 99.8443 82.266 100.313C82.3739 102.012 82.3739 102.012 81.9877 102.642C81.433 102.967 81.035 103.067 80.391 103.126C80.014 103.017 80.014 103.017 79.6293 102.906C78.5735 102.888 78.4754 103.052 77.7397 103.755C77.5626 103.929 77.3856 104.102 77.2032 104.28C76.3353 105.031 75.3782 105.359 74.2973 105.704C73.2961 106.016 73.2961 106.016 72.3802 106.506C71.5812 106.953 70.7698 107.171 69.8881 107.388C69.6445 107.451 69.6445 107.451 69.396 107.514C68.999 107.615 68.6013 107.714 68.2035 107.813C68.2035 107.968 68.2035 108.122 68.2035 108.282C70.096 108.799 71.9887 109.314 73.882 109.828C74.7612 110.067 75.6404 110.306 76.5192 110.546C77.3684 110.778 78.2179 111.009 79.0676 111.239C79.3907 111.327 79.7136 111.415 80.0364 111.504C83.5278 112.59 83.5278 112.59 86.9535 111.797C88.512 110.083 88.1629 107.665 88.1648 105.49C88.1655 105.169 88.1663 104.847 88.1672 104.526C88.1685 103.851 88.169 103.176 88.1689 102.501C88.1688 101.82 88.1704 101.139 88.1737 100.458C88.2418 88.375 88.2418 88.375 82.5004 78.0474C82.2417 77.7606 82.2417 77.7606 81.9777 77.4679C80.8833 76.3128 79.7155 75.3281 78.4282 74.4C78.2887 74.2992 78.1492 74.1985 78.0055 74.0946C76.8517 73.1947 76.8517 73.1947 75.5614 73.3627ZM11.7778 78.7213C8.7925 82.3421 7.64614 86.221 7.62218 90.8317C7.61763 91.3596 7.60306 91.8866 7.58831 92.4143C7.54956 95.0727 8.10041 97.1075 9.93206 99.1412C12.2579 101.233 15.1098 101.323 18.1004 101.296C18.3884 101.296 18.6764 101.295 18.9731 101.294C19.8853 101.292 20.7973 101.286 21.7094 101.28C22.331 101.278 22.9527 101.275 23.5743 101.273C25.0914 101.268 26.6084 101.26 28.1254 101.251C28.1263 101.117 28.1271 100.984 28.128 100.846C28.138 99.4311 28.1543 98.0163 28.1741 96.6014C28.1806 96.0764 28.1856 95.5515 28.1889 95.0265C28.2337 88.3633 29.3287 82.3057 33.4639 76.8975C33.6057 76.6546 33.6057 76.6546 33.7504 76.4068C33.3682 75.2602 32.2911 74.9093 31.2574 74.3899C29.9393 73.8433 29.2115 74.0856 27.8791 74.5428C26.7382 74.8665 25.5973 74.8434 24.4194 74.8394C24.091 74.8451 24.091 74.8451 23.7561 74.8509C22.399 74.8518 21.2676 74.6726 19.9885 74.2143C17.0395 73.3806 13.6057 76.7349 11.7778 78.7213ZM87.935 74.8834C87.795 74.9616 87.6549 75.0399 87.5106 75.1205C87.1674 75.3127 86.826 75.5079 86.4848 75.7037C86.4848 76.7962 86.8389 77.2537 87.4369 78.106C92.081 85.0676 91.9282 93.1934 92.1098 101.251C93.9027 101.262 95.6956 101.271 97.4885 101.276C98.0977 101.279 98.7069 101.282 99.3161 101.286C100.195 101.292 101.073 101.294 101.952 101.296C102.357 101.3 102.357 101.3 102.77 101.304C105.616 101.304 108.084 100.971 110.215 98.9654C112.309 96.7366 112.596 94.0996 112.544 91.1285C112.413 88.4546 112.128 85.933 111.094 83.4381C111.015 83.2447 110.936 83.0513 110.855 82.8521C109.117 79.0188 105.991 76.0345 102.188 74.2974C100.887 73.9391 100.062 74.1861 98.8289 74.5952C97.7659 74.8858 96.7207 74.8679 95.6254 74.8541C95.4097 74.8568 95.194 74.8595 94.9717 74.8623C93.6301 74.8566 92.5047 74.665 91.24 74.2138C89.8958 73.8361 89.1243 74.2106 87.935 74.8834ZM57.4223 76.6412C57.7685 77.4503 58.2281 77.9653 58.8578 78.5748C59.1125 78.8231 59.1125 78.8231 59.3724 79.0765C59.5023 79.201 59.6322 79.3254 59.766 79.4537C60.5811 79.0985 61.1619 78.6152 61.8168 78.0181C62.0041 77.8483 62.1915 77.6786 62.3845 77.5036C62.5258 77.3737 62.6672 77.2438 62.8129 77.1099C62.5886 76.8461 62.3639 76.5824 62.1391 76.3189C61.9515 76.0987 61.9515 76.0987 61.7601 75.874C61.0941 75.0976 61.0941 75.0976 60.0737 74.8687C58.8008 74.885 58.1829 75.7094 57.4223 76.6412ZM59.5317 84.3756C59.1282 87.1093 58.7267 89.8434 58.3277 92.5778C58.1424 93.8475 57.9564 95.117 57.7689 96.3864C57.588 97.611 57.4088 98.8358 57.2309 100.061C57.1627 100.529 57.0938 100.996 57.0243 101.464C56.9271 102.118 56.8322 102.772 56.7379 103.427C56.7085 103.62 56.6792 103.814 56.649 104.014C56.5263 104.881 56.4474 105.572 56.7192 106.407C57.0218 106.805 57.0218 106.805 57.4086 107.165C57.5453 107.299 57.682 107.434 57.8228 107.572C57.9662 107.71 58.1096 107.847 58.2573 107.989C58.4015 108.13 58.5458 108.271 58.6944 108.416C59.0501 108.764 59.4078 109.109 59.766 109.454C61.3224 108.698 62.7303 107.76 63.516 106.172C63.6063 105.348 63.468 104.592 63.322 103.779C63.2854 103.539 63.2488 103.299 63.2111 103.051C63.1288 102.513 63.0435 101.975 62.9556 101.437C62.8028 100.484 62.6644 99.5298 62.5301 98.5739C62.3295 97.1502 62.126 95.7271 61.918 94.3045C61.8917 94.1249 61.8655 93.9454 61.8385 93.7604C61.785 93.3951 61.7316 93.0298 61.6782 92.6645C61.541 91.7262 61.4045 90.7879 61.268 89.8495C61.0023 88.0248 60.736 86.2001 60.4692 84.3756C60.1598 84.3756 59.8504 84.3756 59.5317 84.3756ZM43.7885 90.6064C43.2103 91.3699 43.2521 91.8514 43.2682 92.8021C43.2696 92.9568 43.2709 93.1115 43.2723 93.271C43.2775 93.763 43.2892 94.2547 43.3012 94.7467C43.3059 95.0811 43.3102 95.4156 43.314 95.7501C43.3235 96.5682 43.3419 97.3855 43.3598 98.2037C44.984 97.817 46.6082 97.4302 48.2817 97.0318C48.5096 96.1202 48.5378 95.9518 48.2643 95.1293C48.2043 94.9484 48.1443 94.7674 48.0825 94.5809C48.0177 94.3939 47.9529 94.2069 47.8862 94.0142C47.8259 93.829 47.7656 93.6438 47.7035 93.453C47.0911 91.5533 47.0911 91.5533 45.7035 90.2349C44.8881 90.1463 44.4617 90.1149 43.7885 90.6064ZM72.891 91.4068C72.1172 92.5649 72.1172 92.5649 72.0707 93.897C72.3224 94.2955 72.5878 94.6854 72.8617 95.0689C74.0574 96.9679 74.4743 99.051 74.766 101.251C75.7337 100.571 76.1946 100.001 76.641 98.9068C76.7095 98.2885 76.7453 97.7274 76.7427 97.1105C76.7445 96.8594 76.7445 96.8594 76.7464 96.6031C76.7479 96.2513 76.7476 95.8995 76.7456 95.5477C76.7436 95.0101 76.7504 94.4731 76.7578 93.9355C76.7582 93.5925 76.758 93.2495 76.7573 92.9064C76.7599 92.7465 76.7626 92.5866 76.7653 92.4218C76.7539 91.6443 76.6863 91.2329 76.2154 90.6035C74.8705 89.635 73.7995 90.2282 72.891 91.4068ZM67.0024 96.0943C66.8326 96.1378 66.6628 96.1813 66.4879 96.2261C66.3579 96.26 66.228 96.2938 66.0942 96.3287C66.2167 97.3175 66.3417 98.3059 66.469 99.2941C66.5119 99.6303 66.5542 99.9665 66.5958 100.303C66.6557 100.787 66.718 101.27 66.7808 101.753C66.8176 102.044 66.8545 102.335 66.8924 102.635C66.99 103.396 66.99 103.396 67.5004 104.063C68.0043 103.925 68.5071 103.783 69.0092 103.638C69.2893 103.559 69.5694 103.481 69.8579 103.399C70.0854 103.309 70.3129 103.219 70.5473 103.126C71.1227 101.399 70.8039 99.7591 70.1445 98.1011C69.7129 97.238 69.1815 96.4824 68.4379 95.8599C67.9199 95.8599 67.5035 95.965 67.0024 96.0943Z" fill="#024D81"/>
<path d="M101.25 3.60291C101.4 3.59988 101.55 3.59686 101.704 3.59375C102.457 3.83618 102.829 4.34335 103.359 4.92126C103.595 5.16863 103.83 5.41582 104.066 5.66284C105.425 7.11194 106.733 8.57788 107.975 10.1297C108.598 10.8801 109.255 11.5921 109.922 12.3041C110.964 13.4172 111.942 14.5632 112.896 15.7538C113.628 16.6351 114.402 17.4732 115.186 18.3082C116.08 19.2659 116.332 19.756 116.318 21.0996C116.25 21.5619 116.25 21.5619 115.825 22.1332C114.969 22.7447 114.282 22.7618 113.259 22.7567C112.997 22.7559 112.735 22.7551 112.465 22.7544C112.191 22.7524 111.918 22.7504 111.636 22.7484C111.359 22.7474 111.083 22.7463 110.798 22.7452C110.116 22.7424 109.433 22.7386 108.75 22.7338C108.754 22.8638 108.757 22.9937 108.761 23.1277C108.776 23.719 108.785 24.3103 108.794 24.9017C108.8 25.1063 108.806 25.3108 108.812 25.5215C108.829 27.0351 108.829 27.0351 108.438 27.7856C107.857 28.2888 107.399 28.3284 106.641 28.3588C105.906 28.1418 105.543 27.9639 105 27.4213C104.582 26.2092 104.713 24.8629 104.707 23.598C104.702 23.3365 104.697 23.075 104.692 22.8056C104.685 21.3542 104.732 20.2518 105.469 18.9838C106.212 18.6121 107.024 18.6606 107.842 18.6176C108.019 18.6074 108.195 18.5973 108.377 18.5869C108.814 18.562 109.251 18.5384 109.688 18.515C109.56 18.3757 109.432 18.2365 109.3 18.093C108.36 17.0591 107.443 16.0162 106.567 14.9261C105.641 13.7797 104.661 12.6956 103.652 11.6222C102.898 10.8182 102.183 9.99294 101.484 9.14002C100.641 9.49052 100.165 9.96667 99.5654 10.6488C99.3799 10.8597 99.1944 11.0706 99.0033 11.2878C98.4677 11.917 97.9454 12.5545 97.4268 13.1976C96.4883 14.3595 95.4937 15.4562 94.4702 16.5428C93.8765 17.1751 93.3142 17.8068 92.8125 18.515C93.0723 18.5211 93.3322 18.5271 93.5999 18.5333C93.9429 18.5465 94.2859 18.56 94.6289 18.5736C94.7999 18.5769 94.9709 18.5803 95.1471 18.5837C95.8962 18.6177 96.4485 18.6742 97.081 19.0915C97.7088 19.9836 97.6301 20.7895 97.6163 21.8558C97.6166 22.0661 97.617 22.2764 97.6173 22.493C97.6169 22.9369 97.6142 23.3807 97.6093 23.8246C97.6026 24.5046 97.6045 25.1843 97.6076 25.8644C97.6061 26.2958 97.6041 26.7271 97.6016 27.1585C97.6023 27.3621 97.603 27.5658 97.6037 27.7756C97.5992 28.0595 97.5992 28.0595 97.5947 28.3492C97.5934 28.5155 97.5922 28.6819 97.5909 28.8532C97.4715 29.4353 97.263 29.6393 96.7969 29.9994C95.9049 30.2307 95.3657 30.3129 94.4971 29.9847C93.8159 29.3814 93.7304 29.0171 93.5156 28.1244C93.4607 27.1957 93.4714 26.2711 93.4863 25.3412C93.4884 25.0904 93.4906 24.8397 93.4927 24.5813C93.4982 23.9654 93.5059 23.3496 93.5156 22.7338C93.3526 22.7374 93.1896 22.7411 93.0216 22.7449C92.2781 22.7596 91.5346 22.7687 90.791 22.7777C90.5345 22.7836 90.278 22.7895 90.0137 22.7956C87.5636 22.8178 87.5636 22.8178 86.4844 22.0306C86.1182 21.2543 86.1182 21.2543 86.0156 20.39C86.463 19.2739 87.0935 18.5137 87.9199 17.6508C88.7625 16.7582 89.5696 15.8563 90.3369 14.8969C91.2378 13.7768 92.196 12.7279 93.1777 11.6797C93.9083 10.8953 94.6021 10.0939 95.2734 9.2572C96.3909 7.86648 97.5891 6.55412 98.8179 5.2615C99.133 4.92933 99.4427 4.59209 99.7522 4.25476C100.316 3.74591 100.509 3.58796 101.25 3.60291Z" fill="#024D81"/>
<path d="M19.687 3.74885C20.2427 4.24324 20.2427 4.24324 20.8589 4.92073C21.0941 5.16823 21.3298 5.41541 21.5657 5.6623C22.9245 7.1114 24.2321 8.57734 25.474 10.1292C26.0978 10.8796 26.7545 11.5916 27.4214 12.3035C28.4649 13.4177 29.4448 14.5634 30.3968 15.7578C30.7951 16.2351 31.1949 16.6849 31.6236 17.1329C31.7407 17.2559 31.8577 17.3788 31.9783 17.5055C32.3097 17.8503 32.6445 18.1916 32.9795 18.5328C33.5841 19.3058 33.8101 19.8963 33.9839 20.8582C33.5045 22.1526 33.5045 22.1526 32.812 22.4988C32.3357 22.5188 31.8587 22.524 31.3819 22.5217C31.0979 22.521 30.8139 22.5202 30.5213 22.5194C30.2234 22.5175 29.9256 22.5155 29.6186 22.5135C29.3189 22.5124 29.0192 22.5114 28.7104 22.5103C27.9682 22.5075 27.2261 22.5037 26.4839 22.4988C26.4961 22.9058 26.4961 22.9058 26.5086 23.321C26.5152 23.6817 26.5216 24.0424 26.5278 24.4031C26.5337 24.5814 26.5396 24.7597 26.5457 24.9433C26.5606 26.1021 26.4265 26.8857 25.7807 27.8895C25.0473 28.2562 24.2313 28.2872 23.437 28.1238C22.7187 27.5847 22.518 27.3054 22.3782 26.4063C22.3771 26.103 22.3761 25.7997 22.375 25.4871C22.3736 25.2428 22.3736 25.2428 22.3723 24.9934C22.3716 24.6499 22.3733 24.3063 22.3773 23.9628C22.3823 23.4379 22.3773 22.9138 22.3713 22.389C22.3719 22.0545 22.3731 21.72 22.375 21.3856C22.376 21.0822 22.3771 20.7789 22.3782 20.4664C22.4995 19.6863 22.4995 19.6863 22.919 19.1203C23.6845 18.5713 24.461 18.5907 25.3706 18.5731C25.5452 18.5661 25.7198 18.5592 25.8998 18.552C26.3287 18.5355 26.7578 18.5245 27.187 18.5145C27.0592 18.3752 26.9314 18.2359 26.7997 18.0924C25.8591 17.0585 24.9421 16.0156 24.0669 14.9256C23.1403 13.7791 22.1607 12.6951 21.1516 11.6216C20.3973 10.8177 19.6825 9.99241 18.9839 9.13948C18.1408 9.48998 17.6641 9.96613 17.0649 10.6483C16.8794 10.8591 16.6939 11.07 16.5028 11.2873C15.9672 11.9164 15.4449 12.554 14.9263 13.1971C13.9878 14.359 12.9932 15.4557 11.9697 16.5423C11.376 17.1746 10.8137 17.8062 10.312 18.5145C10.5718 18.5205 10.8316 18.5266 11.0993 18.5328C11.4424 18.546 11.7854 18.5594 12.1284 18.5731C12.2994 18.5764 12.4704 18.5797 12.6466 18.5831C13.4613 18.6202 13.9718 18.6828 14.6369 19.17C15.5691 20.4976 15.286 22.2522 15.2902 23.8088C15.2924 24.3258 15.2997 24.8425 15.3071 25.3594C15.3086 25.6916 15.3099 26.0238 15.3108 26.356C15.3141 26.8054 15.3141 26.8054 15.3174 27.264C15.2204 28.2628 14.9909 28.878 14.5307 29.7645C13.7973 30.1312 12.9813 30.1622 12.187 29.9988C11.5094 29.4775 11.2717 29.2093 11.1431 28.3525C11.1504 27.9475 11.1504 27.9475 11.1579 27.5343C11.161 27.2412 11.164 26.9481 11.1671 26.6462C11.1749 26.341 11.1828 26.0359 11.1909 25.7215C11.1951 25.4127 11.1994 25.104 11.2037 24.7858C11.2148 24.0233 11.2302 23.2612 11.2495 22.4988C10.9587 22.5062 10.9587 22.5062 10.662 22.5137C9.78361 22.5332 8.90531 22.5454 8.02684 22.5574C7.72169 22.5653 7.41655 22.5732 7.10215 22.5812C6.80909 22.5843 6.51603 22.5873 6.21409 22.5904C5.94407 22.5953 5.67404 22.6002 5.39584 22.6053C4.53188 22.4756 4.26697 22.2535 3.74949 21.5613C3.56504 20.7526 3.51985 20.454 3.74949 19.6863C4.35717 18.7399 5.09705 17.9329 5.85887 17.1082C6.07227 16.8751 6.28558 16.642 6.49882 16.4088C6.82461 16.0534 7.151 15.6987 7.47924 15.3455C8.17617 14.5932 8.83521 13.821 9.47703 13.0213C10.2659 12.0405 11.0929 11.1122 11.9526 10.1942C13.0094 9.0654 14.0047 7.90375 14.9748 6.69868C17.7561 3.28265 17.7561 3.28265 19.687 3.74885Z" fill="#024D81"/>
<path d="M71.25 6.79725C71.8359 7.28065 71.8359 7.28065 72.1875 7.96912C72.1863 9.14687 72.0844 9.80964 71.2802 10.6855C71.0057 10.9514 70.7269 11.2129 70.4443 11.4701C70.304 11.605 70.1637 11.7399 70.0191 11.8789C69.0144 12.834 68.4871 13.2143 67.0248 13.1904C66.5625 13.1254 66.5625 13.1254 65.9912 12.7445C65.5307 12.0445 65.3906 11.6231 65.3906 10.7816C66.0065 9.72603 66.7652 8.86571 67.6318 8.01307C67.7447 7.89841 67.8575 7.78376 67.9738 7.66563C69.0636 6.5818 69.7509 6.42904 71.25 6.79725Z" fill="#024D81"/>
<path d="M51.0947 6.7954C51.716 7.21458 52.2012 7.72401 52.7061 8.27489C52.9055 8.47951 52.9055 8.47951 53.1089 8.68825C53.7389 9.34733 54.2587 9.92728 54.6104 10.7798C54.5765 11.5915 54.457 12.0629 54.0098 12.7427C53.3581 13.1771 52.8508 13.2998 52.0661 13.259C51.0502 12.9851 50.4073 12.2132 49.6885 11.4829C49.532 11.3482 49.3755 11.2134 49.2142 11.0746C48.4612 10.4076 47.9588 9.8843 47.7695 8.87548C47.8199 7.83465 48.0031 7.5005 48.751 6.7954C49.5299 6.40595 50.29 6.55105 51.0947 6.7954Z" fill="#024D81"/>
<path d="M59.9993 3.63232C60.154 3.62991 60.3086 3.62749 60.468 3.625C61.1519 3.80666 61.4273 4.14585 61.8743 4.68701C61.9956 5.29492 61.9956 5.29492 61.9988 5.97607C62 6.22261 62.0012 6.46914 62.0024 6.72314C61.9988 6.97935 61.9952 7.23555 61.9915 7.49951C61.9951 7.75571 61.9987 8.01191 62.0024 8.27588C62.0012 8.52241 62 8.76895 61.9988 9.02295C61.9977 9.24773 61.9967 9.47251 61.9956 9.7041C61.8409 10.4791 61.5435 10.7595 60.9368 11.2495C60.468 11.374 60.468 11.374 59.9993 11.3667C59.7672 11.3703 59.7672 11.3703 59.5305 11.374C58.8466 11.1924 58.5712 10.8532 58.1243 10.312C58.003 9.7041 58.003 9.7041 57.9998 9.02295C57.9985 8.77642 57.9973 8.52988 57.9961 8.27588C57.9997 8.01968 58.0033 7.76348 58.0071 7.49951C58.0035 7.24331 57.9998 6.98711 57.9961 6.72314C57.9979 6.35334 57.9979 6.35334 57.9998 5.97607C58.0008 5.75129 58.0019 5.52651 58.003 5.29492C58.2172 4.22107 58.9037 3.61521 59.9993 3.63232Z" fill="#024D81"/>
<path d="M19.6868 39.3758C20.2581 39.6688 20.2581 39.6688 20.6243 40.079C21.0371 41.384 21.0557 42.7912 20.5364 44.0633C20.1555 44.7665 20.1555 44.7665 19.6868 45.0008C18.0099 45.1361 18.0099 45.1361 17.2899 44.6447C16.7194 43.8467 16.7365 43.1329 16.7571 42.1883C16.7535 42.0216 16.7498 41.8548 16.7461 41.683C16.7521 40.8748 16.815 40.3956 17.2917 39.7338C18.093 39.1823 18.749 39.216 19.6868 39.3758Z" fill="#024D81"/>
<path d="M14.0618 33.7508C14.6331 34.0438 14.6331 34.0438 14.9993 34.454C15.4121 35.759 15.4307 37.1662 14.9114 38.4383C14.5305 39.1415 14.5305 39.1415 14.0618 39.3758C12.3849 39.5111 12.3849 39.5111 11.6649 39.0197C11.0944 38.2217 11.1115 37.5079 11.1321 36.5633C11.1285 36.3966 11.1248 36.2298 11.1211 36.058C11.1271 35.2498 11.19 34.7706 11.6667 34.1088C12.468 33.5573 13.124 33.591 14.0618 33.7508Z" fill="#024D81"/>
<path d="M25.3118 31.8758C25.8831 32.1688 25.8831 32.1688 26.2493 32.579C26.6621 33.884 26.6807 35.2912 26.1614 36.5633C25.7805 37.2665 25.7805 37.2665 25.3118 37.5008C23.6349 37.6361 23.6349 37.6361 22.9149 37.1447C22.3444 36.3467 22.3615 35.6329 22.3821 34.6883C22.3785 34.5216 22.3748 34.3548 22.3711 34.183C22.3771 33.3748 22.44 32.8956 22.9167 32.2338C23.718 31.6823 24.374 31.716 25.3118 31.8758Z" fill="#024D81"/>
<path d="M101.249 39.2573C101.404 39.2549 101.559 39.2525 101.718 39.25C102.432 39.4397 102.692 39.7133 103.124 40.312C103.218 40.9754 103.256 41.5269 103.241 42.187C103.245 42.3538 103.249 42.5206 103.252 42.6924C103.246 43.5002 103.184 43.9794 102.707 44.6406C102.159 45.0189 101.906 45.127 101.249 45.1167C101.095 45.1191 100.94 45.1215 100.781 45.124C100.066 44.9343 99.8063 44.6607 99.3743 44.062C99.2803 43.3986 99.2427 42.8471 99.2571 42.187C99.2535 42.0202 99.2498 41.8535 99.2461 41.6816C99.2521 40.8738 99.3147 40.3946 99.7917 39.7334C100.34 39.3551 100.592 39.2471 101.249 39.2573Z" fill="#024D81"/>
<path d="M95.6243 33.6323C95.779 33.6299 95.9336 33.6275 96.093 33.625C96.8074 33.8147 97.0673 34.0883 97.4993 34.687C97.5933 35.3504 97.6308 35.9019 97.6165 36.562C97.6201 36.7288 97.6237 36.8956 97.6274 37.0674C97.6214 37.8752 97.5589 38.3544 97.0818 39.0156C96.5337 39.3939 96.2812 39.502 95.6243 39.4917C95.4696 39.4941 95.3149 39.4965 95.1555 39.499C94.4412 39.3093 94.1813 39.0357 93.7493 38.437C93.6553 37.7736 93.6177 37.2221 93.6321 36.562C93.6285 36.3952 93.6248 36.2285 93.6211 36.0566C93.6271 35.2488 93.6897 34.7696 94.1667 34.1084C94.7148 33.7301 94.9673 33.6221 95.6243 33.6323Z" fill="#024D81"/>
<path d="M106.874 31.7573C107.029 31.7549 107.184 31.7525 107.343 31.75C108.057 31.9397 108.317 32.2133 108.749 32.812C108.843 33.4754 108.881 34.0269 108.866 34.687C108.87 34.8538 108.874 35.0206 108.877 35.1924C108.871 36.0002 108.809 36.4794 108.332 37.1406C107.784 37.5189 107.531 37.627 106.874 37.6167C106.72 37.6191 106.565 37.6215 106.406 37.624C105.691 37.4343 105.431 37.1607 104.999 36.562C104.905 35.8986 104.868 35.3471 104.882 34.687C104.878 34.5202 104.875 34.3535 104.871 34.1816C104.877 33.3738 104.94 32.8946 105.417 32.2334C105.965 31.8551 106.217 31.7471 106.874 31.7573Z" fill="#024D81"/>
</svg>
