<?xml version="1.0" encoding="UTF-8"?>
<svg version="1.1" xmlns="http://www.w3.org/2000/svg" width="512" height="512">
<path d="M0 0 C3.4387207 1.09130859 3.4387207 1.09130859 6.92578125 2.6484375 C7.5750206 2.93266068 8.22425995 3.21688385 8.89317322 3.50971985 C11.03891444 4.45189154 13.17533264 5.41355875 15.3125 6.375 C17.61746295 7.39262994 19.9248066 8.40471469 22.23245239 9.41624451 C23.8695843 10.13390842 25.50602469 10.85315161 27.14181519 11.5738678 C33.60357496 14.41371026 40.102723 17.15616372 46.62109375 19.86328125 C47.59053421 20.26615356 48.55997467 20.66902588 49.55879211 21.08410645 C53.40124181 22.67932405 57.2445178 24.2724897 61.09024048 25.85980225 C63.77539565 26.96890539 66.45815906 28.08363046 69.140625 29.19921875 C69.93403793 29.52473221 70.72745087 29.85024567 71.54490662 30.18562317 C83.89340167 35.33480931 83.89340167 35.33480931 86.21539307 38.8289032 C87.14870756 41.41149077 87.02239251 43.04773093 86.625 45.75 C86.51414062 46.54921875 86.40328125 47.3484375 86.2890625 48.171875 C86.19367188 48.77515625 86.09828125 49.3784375 86 50 C86.56296783 50.10609085 87.12593567 50.2121817 87.70596313 50.32148743 C93.58063358 51.43038728 99.45281677 52.55180327 105.32373047 53.68041992 C107.51322483 54.09963312 109.70332738 54.51568297 111.89404297 54.9284668 C115.04821491 55.52336396 118.20000322 56.12971412 121.3515625 56.73828125 C122.32678864 56.91966141 123.30201477 57.10104156 124.30679321 57.28791809 C129.2844345 58.26105859 133.62431054 59.29160064 138 62 C139.60682055 65.2136411 139.46150508 68.51460341 139 72 C137.625 74.5 137.625 74.5 135 76 C128.26704108 76.66678554 121.79894023 75.63563134 115.23046875 74.25 C114.34643875 74.07243164 113.46240875 73.89486328 112.55158997 73.71191406 C109.76162987 73.15033507 106.97449397 72.5761028 104.1875 72 C101.38235304 71.42562309 98.57669907 70.85409653 95.76985168 70.28808594 C94.03252468 69.93722375 92.2962017 69.58134143 90.56108093 69.21972656 C86.64725621 68.42441486 83.01897872 67.77234765 79 68 C78.81589066 68.5317131 78.63178131 69.06342621 78.4420929 69.61125183 C68.69312635 97.76387018 58.90867468 125.90315801 49 154 C49.91531494 154.29221436 50.83062988 154.58442871 51.77368164 154.88549805 C54.23920688 155.73719103 56.35123404 156.59166894 58.62109375 157.83203125 C59.55985352 158.31639648 59.55985352 158.31639648 60.51757812 158.81054688 C61.80257878 159.4811525 63.07876818 160.16890596 64.34570312 160.87304688 C66.49231066 162.02182464 66.49231066 162.02182464 70 163 C73.58768214 161.78908654 73.58768214 161.78908654 77 160 C86.73995084 158.76863947 94.54677678 159.8584252 102.37109375 165.80078125 C111.28308886 173.33719748 114.68590987 179.54243182 117 191 C117.61746094 190.96519531 118.23492187 190.93039062 118.87109375 190.89453125 C128.07906475 190.60021254 134.13745879 192.07535665 141.1875 198.1875 C149.23179262 205.9569876 152.8883077 211.88583001 155 223 C155.7734375 223.02578125 156.546875 223.0515625 157.34375 223.078125 C169.2581117 223.72692688 175.50407127 227.49860933 183.5703125 236.12109375 C188.41272594 241.85880871 190.37052909 247.60371686 191 255 C191.68964844 255.02578125 192.37929687 255.0515625 193.08984375 255.078125 C205.19999455 255.80905317 212.26899335 259.99487056 220.37890625 268.7734375 C225.45037326 274.68926394 227.74371368 281.88443059 227.40625 289.66015625 C226.73439528 293.52978101 225.34540734 297.08477564 223.875 300.71484375 C222.88080399 302.90346815 222.88080399 302.90346815 223 305 C227.89472125 307.60357513 231.39099603 308.49117125 236.9140625 307.65234375 C240.20446071 306.62332408 241.92099569 304.66372427 244 302 C245.5942762 298.81144759 245.39070446 295.47075793 245 292 C244.01642648 289.99187074 243.01691264 287.99145391 242 286 C241.37594818 281.55363077 241.46289297 279.76497062 244.0625 276.0625 C247.76320282 273.46413419 249.54225568 273.63264557 254 274 C257.04199219 275.17749023 257.04199219 275.17749023 260.046875 276.80859375 C261.13871094 277.39060547 262.23054688 277.97261719 263.35546875 278.57226562 C264.47566406 279.18779297 265.59585937 279.80332031 266.75 280.4375 C268.99395859 281.64607929 271.23871319 282.85318216 273.484375 284.05859375 C274.47147461 284.59798584 275.45857422 285.13737793 276.47558594 285.69311523 C280.82153078 287.94300331 284.12702548 288.41296394 289 288 C292.64450372 286.17774814 294.59278629 284.57798075 296.9375 281.25 C298.37797369 276.8438452 298.09363987 274.52037815 297 270 C294.49196236 267.11481126 291.73920617 265.00247799 288.55859375 262.90625 C287.72779297 262.35066406 286.89699219 261.79507812 286.04101562 261.22265625 C284.30262079 260.07242051 282.56303189 258.9239874 280.82226562 257.77734375 C279.99275391 257.22175781 279.16324219 256.66617187 278.30859375 256.09375 C277.55376709 255.59552734 276.79894043 255.09730469 276.02124023 254.58398438 C272.82754352 252.08118158 271.16496825 250.10764395 270.5625 246.0625 C271.12021203 242.15851579 272.06775149 240.63150507 275 238 C280.71802508 236.52760098 283.64741071 237.30104532 288.75390625 240.12109375 C289.37667953 240.45867203 289.99945282 240.79625031 290.64109802 241.14405823 C292.62481363 242.22484463 294.59329741 243.33053461 296.5625 244.4375 C297.85651079 245.14684685 299.1514278 245.85454319 300.44726562 246.56054688 C305.63131402 249.39858443 310.78989917 252.27243955 315.87451172 255.28564453 C316.49929916 255.65279068 317.12408661 256.01993683 317.76780701 256.39820862 C319.48133325 257.40866805 321.18805625 258.43063911 322.89428711 259.45336914 C327.57622674 261.78495373 330.60730325 262.43221623 335.625 260.875 C339.27629045 258.84650531 340.95003152 257.62686732 343 254 C344.30444683 249.41749524 344.70545404 246.38702552 342.5 242.05078125 C339.41595834 238.28728667 336.12482568 236.12822 332 233.625 C330.476257 232.66845523 328.95282142 231.71142058 327.4296875 230.75390625 C326.68041992 230.28871582 325.93115234 229.82352539 325.15917969 229.34423828 C322.12251162 227.45370296 319.11872938 225.52050149 316.125 223.5625 C315.19945312 222.96566406 314.27390625 222.36882812 313.3203125 221.75390625 C309.94158192 219.19994997 308.19191226 217.28855373 307.5625 213.0625 C308.13043165 209.08697847 308.89492773 207.57493798 312 205 C320.4508357 203.91277351 326.05030508 206.97469802 333.41015625 210.87109375 C335.1932145 211.78322459 336.97627956 212.69534239 338.75973415 213.60669804 C341.24019585 214.87955048 343.71215746 216.16843492 346.184021 217.45788574 C350.51166376 219.71472255 354.84496235 221.96030989 359.18955994 224.18434143 C361.49648742 225.36732113 363.79741696 226.56209217 366.09132385 227.77012634 C371.82908084 230.71950078 376.50006185 232.88961236 383 233 C386.89316622 231.72723412 388.66496599 230.37911743 391.375 227.3125 C393.35702597 223.27221629 393.83227656 220.40929499 393 216 C388.93293042 206.75666005 376.29517533 202.47270127 367.8125 197.9375 C346.78749691 186.60221024 326.26124708 174.65177781 306 162 C304.96133789 161.35208496 303.92267578 160.70416992 302.85253906 160.03662109 C298.81141022 157.51490058 294.77086141 154.99232295 290.73608398 152.46044922 C285.80910842 149.3697083 280.87006337 146.30224628 275.90234375 143.27734375 C274.93014893 142.68332764 273.9579541 142.08931152 272.95629883 141.47729492 C271.11436005 140.35358044 269.2692945 139.23496989 267.4206543 138.12231445 C266.6037915 137.62304443 265.78692871 137.12377441 264.9453125 136.609375 C263.87047607 135.9592041 263.87047607 135.9592041 262.77392578 135.29589844 C261 134 261 134 259 131 C258.34246575 124.09589041 258.34246575 124.09589041 260.5 120.5 C264.03251727 118.38048964 267.04019835 118.26709724 271 119 C274.83629545 120.72599584 278.28968279 122.96157794 281.8125 125.25 C283.33363403 126.20737061 283.33363403 126.20737061 284.88549805 127.18408203 C287.93408625 129.10686487 290.96756071 131.05188133 294 133 C295.60292829 134.01497921 297.2069951 135.02816393 298.8125 136.0390625 C301.06891574 137.46033667 303.32457746 138.88265878 305.57666016 140.31079102 C321.80954535 150.60427817 338.09527392 160.83917559 355 170 C355.96309082 170.52255371 356.92618164 171.04510742 357.91845703 171.58349609 C362.22392628 173.91794444 366.52964878 176.25181046 370.84228516 178.57299805 C371.82632324 179.10320557 372.81036133 179.63341309 373.82421875 180.1796875 C374.70166748 180.65132324 375.57911621 181.12295898 376.4831543 181.60888672 C378.24830324 182.58452147 379.98528758 183.61204963 381.69848633 184.67626953 C383.84644287 186.16619102 383.84644287 186.16619102 386 186 C386.16435547 184.35451172 386.16435547 184.35451172 386.33203125 182.67578125 C386.49155666 181.22128484 386.65174813 179.76686137 386.8125 178.3125 C386.91788086 177.2306543 386.91788086 177.2306543 387.02539062 176.12695312 C387.52389426 171.76006128 388.19584012 168.54209669 391 165 C393.15625 163.41796875 393.15625 163.41796875 395.5 162.1875 C396.2734375 161.76855469 397.046875 161.34960938 397.84375 160.91796875 C400 160 400 160 403 160 C397.00939924 142.66340932 391.01028941 125.32977534 385 108 C384.62788391 106.92703674 384.25576782 105.85407349 383.87237549 104.74859619 C381.86802025 98.97120405 379.86012844 93.19506417 377.84649658 87.42089844 C377.2407915 85.68280588 376.63609468 83.94436162 376.03240967 82.20556641 C375.20016045 79.80924368 374.36428719 77.41421776 373.52734375 75.01953125 C373.28339371 74.31476151 373.03944366 73.60999176 372.7881012 72.88386536 C371.83296647 69.6912837 371.83296647 69.6912837 370 67 C369.28980713 67.21205078 368.57961426 67.42410156 367.84790039 67.64257812 C364.58968475 68.60766112 361.32628267 69.5539231 358.0625 70.5 C356.94552734 70.83386719 355.82855469 71.16773438 354.67773438 71.51171875 C341.26429004 75.36660891 341.26429004 75.36660891 336 74 C334.14718649 72.64236931 332.59081002 71.11992797 330.9453125 69.51904297 C327.06974253 66.4927131 322.23170185 65.97821058 317.5 65.0625 C315.77305908 64.70418091 315.77305908 64.70418091 314.01123047 64.33862305 C310.0133522 63.52520758 306.00912242 62.75554564 302 62 C300.84860535 61.78186646 300.84860535 61.78186646 299.6739502 61.55932617 C283.37274565 58.47783487 267.040114 55.47720701 250.625 53.0625 C249.84914551 52.94624268 249.07329102 52.82998535 248.27392578 52.71020508 C239.62909024 51.51617239 233.02873177 51.17174668 225.3125 55.625 C224.24334351 56.21692139 224.24334351 56.21692139 223.15258789 56.82080078 C209.48597257 64.52643006 196.20944022 73.15053381 183.43579102 82.25756836 C180.52365081 84.3286682 177.75902829 86.12295034 174.5625 87.75390625 C168.46215812 90.9760231 165.56127698 93.88313762 163.50097656 100.37524414 C162.53472804 103.8835486 161.68220691 107.41665369 160.82177734 110.95214844 C158.9466307 117.90679215 156.33359445 124.64526965 153.89379883 131.41748047 C153.51892334 132.47596191 153.14404785 133.53444336 152.7578125 134.625 C152.4189502 135.56601563 152.08008789 136.50703125 151.73095703 137.4765625 C150.81451363 140.202481 150.81451363 140.202481 151 144 C158.91994691 147.56955353 164.58209668 149.35698311 173.0625 146.4375 C182.18662199 142.42067776 184.9656739 135.51898062 188.625 126.58984375 C190.1910523 122.50120153 191.63047556 118.38320381 192.9453125 114.20703125 C194.28713662 111.39914003 195.32262671 110.62203114 198 109 C200.83268277 108.19349859 203.58066797 107.51510621 206.45703125 106.921875 C207.27821945 106.74617981 208.09940765 106.57048462 208.94548035 106.38946533 C210.68010125 106.0214353 212.41584298 105.65865401 214.15258789 105.30078125 C216.79624753 104.75336536 219.43408864 104.18255988 222.07226562 103.609375 C223.76272114 103.25378064 225.45346814 102.8995686 227.14453125 102.546875 C227.92705765 102.37613464 228.70958405 102.20539429 229.51582336 102.02947998 C234.2845232 101.06879351 238.17129435 100.9070562 243 102 C245.23918419 103.8057937 245.84945187 105.08353828 246.3125 107.90234375 C246.62811733 113.19879712 246.62811733 113.19879712 244.42651367 116.00708008 C241.37789124 118.51094414 238.45779226 119.16070372 234.6796875 119.88671875 C233.9798172 120.0340596 233.2799469 120.18140045 232.55886841 120.33320618 C230.33357773 120.79886615 228.10476469 121.24381005 225.875 121.6875 C223.63916344 122.14615162 221.40424563 122.60899169 219.16970825 123.07392883 C217.78171552 123.36123061 216.3927936 123.6440867 215.00289917 123.92204285 C211.39852139 124.6428612 211.39852139 124.6428612 208 126 C207.03765618 128.44906075 206.16058474 130.88681518 205.3125 133.375 C201.11479695 145.03485359 195.49325128 155.75337436 184 161.5 C172.08487232 166.639859 161.67008096 167.57126669 149.22265625 163.40234375 C142.31963052 160.39848164 134.84136322 155.62335768 131 149 C130.4550116 142.05954187 133.37223283 135.18175266 135.625 128.75 C136.35032235 126.62632324 137.07558152 124.50262489 137.80078125 122.37890625 C138.16768066 121.31559082 138.53458008 120.25227539 138.91259766 119.15673828 C140.5711124 114.34205584 142.19402212 109.51575444 143.8125 104.6875 C144.10866211 103.81818848 144.40482422 102.94887695 144.70996094 102.05322266 C146.21096116 97.59944927 147.427833 93.23538239 148.375 88.625 C149.41187868 84.66364066 150.76195292 83.00435522 154.04638672 80.58935547 C154.85718689 79.98943787 155.66798706 79.38952026 156.50335693 78.77142334 C160.26062064 76.10556184 164.04485933 73.49371992 167.8828125 70.9453125 C168.70014862 70.39946503 169.51748474 69.85361755 170.35958862 69.29122925 C172.07778552 68.14508933 173.79713013 67.00066822 175.51757812 65.85791016 C178.10111821 64.140872 180.67968452 62.4165568 183.2578125 60.69140625 C225.25545416 32.67348307 251.56648687 33.5011878 300.1605835 43.11051941 C303.50370075 43.77803756 306.84570455 44.45089853 310.1875 45.125 C311.82190033 45.45139969 311.82190033 45.45139969 313.48931885 45.78439331 C316.61351337 46.41134909 319.7348122 47.05100277 322.85546875 47.6953125 C324.25968834 47.97643135 324.25968834 47.97643135 325.692276 48.26322937 C331.4473226 49.4731086 336.71209624 50.71209624 341 55 C346.66639024 54.61197545 352.01877355 53.37378434 357.5 51.9375 C358.22703125 51.75123047 358.9540625 51.56496094 359.703125 51.37304688 C361.46987724 50.91973545 363.23510775 50.4604998 365 50 C364.66871094 49.23816406 364.33742188 48.47632813 363.99609375 47.69140625 C362.72660424 44.26129539 362.89127599 42.47400188 364 39 C367.49539388 35.74801341 370.99015065 33.95502805 375.40063477 32.19433594 C376.02272827 31.94325577 376.64482178 31.6921756 377.2857666 31.43348694 C379.33448112 30.60895947 381.38780867 29.79665525 383.44140625 28.984375 C384.8888032 28.40465672 386.33589571 27.8241778 387.78269958 27.24298096 C391.59753559 25.71288747 395.4163966 24.19310307 399.23620605 22.67547607 C403.79944541 20.86006971 408.35750282 19.03169836 412.91647911 17.20561981 C416.58895349 15.73545411 420.26291003 14.26925327 423.94058228 12.81213379 C430.09632727 10.37176755 436.23993872 7.92005212 442.33154297 5.32226562 C443.24926987 4.93613098 444.16699677 4.54999634 445.11253357 4.15216064 C446.72808129 3.46897737 448.337856 2.77185107 449.93934631 2.05633545 C455.08393837 -0.102081 458.52583392 -0.20617847 464 1 C466.84610137 3.31245736 466.9706247 4.7980448 467.5 8.4375 C466.85615557 13.02489157 465.5033303 14.03613525 462 17 C459.45347539 18.28968032 457.04015694 19.38454708 454.39575195 20.41333008 C453.27293823 20.86796631 453.27293823 20.86796631 452.12744141 21.33178711 C449.66918219 22.32348867 447.20405658 23.29668577 444.73828125 24.26953125 C443.02344886 24.95638799 441.30903283 25.64428507 439.59501648 26.33317566 C436.01131023 27.77053658 432.42442401 29.19951977 428.8347168 30.62182617 C424.22654469 32.4477442 419.62421512 34.28784921 415.02386189 36.13336658 C410.63890107 37.89184974 406.25123887 39.64354241 401.86328125 41.39453125 C401.02357599 41.73021433 400.18387074 42.06589741 399.31871986 42.4117527 C396.95263879 43.35613762 394.58470496 44.29569868 392.21606445 45.23364258 C391.51110336 45.51566025 390.80614227 45.79767792 390.07981873 46.08824158 C385.22970818 48 385.22970818 48 383 48 C390.07049609 68.25667976 397.14369867 88.51241338 404.21990967 108.76709747 C404.73721108 110.24780244 405.25450446 111.72851022 405.77178955 113.20922089 C408.95008687 122.30692914 412.12956325 131.40422386 415.3109436 140.50085449 C416.22523182 143.11521375 417.13909272 145.72972176 418.05258179 148.34436035 C419.32960895 151.9994613 420.60809346 155.65405153 421.88671875 159.30859375 C422.44782349 160.91549324 422.44782349 160.91549324 423.02026367 162.55485535 C424.94882847 168.06276916 426.92614094 173.54507039 429 179 C429.77601563 178.69707031 430.55203125 178.39414062 431.3515625 178.08203125 C434.26243408 176.95311327 437.17763566 175.83642429 440.09619141 174.72753906 C441.96740874 174.01245473 443.83337796 173.28368549 445.69921875 172.5546875 C457.32315468 168.15644147 457.32315468 168.15644147 464 169 C467.06458538 171.04305692 467.82153128 172.44079802 468.9375 175.9375 C469.01686625 179.8264463 468.60340099 181.09031655 466 184 C459.19819908 187.69286173 451.63720031 190.21492069 444.42529297 193.00146484 C443.13933058 193.5014345 441.85578131 194.0076548 440.57470703 194.52001953 C426.31437176 200.21906196 426.31437176 200.21906196 419 199 C414.75976928 195.49689548 413.42185945 190.27558246 411.75 185.1875 C411.481875 184.39923828 411.21375 183.61097656 410.9375 182.79882812 C410.28251673 180.8689667 409.63998468 178.93488703 409 177 C407.68 177 406.36 177 405 177 C404.95101563 177.68964844 404.90203125 178.37929688 404.8515625 179.08984375 C404.47366229 183.8396584 404.01717886 188.14063494 402.5625 192.6875 C401.88618134 195.44668409 401.72579246 196.49728618 403.1015625 199.01953125 C404.17605807 200.36132744 405.27476676 201.68402467 406.39453125 202.98828125 C411.78782835 209.74630559 411.92260463 218.73756298 411 227 C410.07356475 230.29731256 408.75210547 233.06637604 407 236 C406.649375 236.62519531 406.29875 237.25039063 405.9375 237.89453125 C402.06086987 244.07291052 396.23945189 247.70421924 389.5625 250.375 C379.68724033 252.1075017 371.85034382 250.56407865 363 246 C362.85304688 246.89460937 362.70609375 247.78921875 362.5546875 248.7109375 C360.7101938 258.65424262 358.2220217 266.96997214 350.0625 273.4375 C341.98103978 278.85575174 334.25565052 280.96042201 324.6875 279.1875 C321.50581087 278.50607544 318.8614047 277.55183733 316 276 C315.92523438 276.76183594 315.85046875 277.52367187 315.7734375 278.30859375 C314.56858529 287.77022729 311.67513443 294.24250031 304.25 300.375 C297.08087941 305.28162246 288.59690228 307.19654313 280 306 C274.04750979 304.34337244 268.42879939 301.93448616 263 299 C262.92523438 299.6290625 262.85046875 300.258125 262.7734375 300.90625 C261.51221675 309.11654976 258.18858057 314.29410035 252.0625 319.8125 C244.6442743 325.11123264 236.94622273 326.78350677 228 326 C220.79643803 324.54322871 214.43528116 321.46409815 208 318 C207.01 318.78375 206.02 319.5675 205 320.375 C198.54147637 324.9714896 191.47417071 325.85215517 183.69140625 324.640625 C173.62930892 322.31739504 165.89908721 314.20921926 160 306 C158.1785394 302.52266613 157.77671378 299.90750883 158 296 C156.989375 296.33 155.97875 296.66 154.9375 297 C146.97251724 299.19394735 140.25765949 297.7234083 133 294 C124.10333109 287.46315675 118.46186049 280.38558148 115 270 C114.319375 270.165 113.63875 270.33 112.9375 270.5 C105.87484144 271.70215465 99.4843237 271.06338392 93 268 C89.33849626 265.29836028 86.16679731 262.25977754 83 259 C82.08154297 258.09507812 82.08154297 258.09507812 81.14453125 257.171875 C75.39353372 251.09427761 73.61668782 244.28653209 73.796875 236.04296875 C74.00504232 233.94928594 74.43586608 232.02451286 75 230 C74.39414063 229.81566406 73.78828125 229.63132812 73.1640625 229.44140625 C62.97435522 225.91419988 54.38187949 218.40010707 49 209 C45.94304316 201.32598421 45.51315641 192.63456113 48.75 184.9375 C50.32384513 181.68363765 52.37712441 179.47409903 55 177 C53.37829621 175.99466333 51.75252763 174.99588093 50.125 174 C49.22007813 173.443125 48.31515625 172.88625 47.3828125 172.3125 C45.16142533 170.83917671 45.16142533 170.83917671 43 171 C42.74831055 171.74161377 42.49662109 172.48322754 42.23730469 173.24731445 C41.08847048 176.60720698 39.9195197 179.95975466 38.75 183.3125 C38.35425781 184.47974609 37.95851562 185.64699219 37.55078125 186.84960938 C37.15761719 187.96787109 36.76445313 189.08613281 36.359375 190.23828125 C36.00327148 191.26993408 35.64716797 192.30158691 35.28027344 193.36450195 C33.8264393 196.35728217 32.97523946 197.51904125 30 199 C24.58166821 199.56430777 20.050388 198.35399255 14.984375 196.5859375 C14.24672913 196.333815 13.50908325 196.0816925 12.74908447 195.82192993 C11.20083989 195.28793014 9.65460644 194.74806677 8.11035156 194.20263672 C5.75042087 193.37514757 3.38029537 192.58363278 1.0078125 191.79296875 C-0.5007519 191.26777982 -2.00859256 190.74050637 -3.515625 190.2109375 C-4.57502289 189.86366104 -4.57502289 189.86366104 -5.65582275 189.5093689 C-9.24456419 188.20129061 -10.8520522 187.22477388 -12.97558594 183.99853516 C-14.18628604 180.45472709 -14.10748362 178.55976876 -13 175 C-11.32569496 172.44448178 -10.2605161 172.06486023 -7.27880859 171.32250977 C-3.57741892 170.95843413 -1.25419358 171.51721494 2.2734375 172.65234375 C3.42714844 173.01650391 4.58085938 173.38066406 5.76953125 173.75585938 C6.95933594 174.14580078 8.14914063 174.53574219 9.375 174.9375 C11.19451172 175.51661133 11.19451172 175.51661133 13.05078125 176.10742188 C16.03780708 177.05997736 19.02041249 178.02447556 22 179 C22.23904053 177.78256104 22.47808105 176.56512207 22.72436523 175.31079102 C24.12198479 169.0456288 26.27292551 163.07210713 28.41015625 157.02734375 C28.85484344 155.7581148 29.29909199 154.4887321 29.74293518 153.21920776 C30.93092137 149.82541186 32.12526941 146.43388776 33.32093048 143.04278946 C34.56513629 139.51053348 35.80336379 135.97618234 37.04248047 132.44213867 C43.89076251 112.92185502 50.78212325 93.41646179 57.71899414 73.92749023 C60.90174283 64.97963174 64.0626514 56.03217223 67 47 C66.36924561 46.91476074 65.73849121 46.82952148 65.08862305 46.74169922 C60.7065868 45.68940089 56.7169862 43.90537401 52.58203125 42.1328125 C51.65947037 41.74185394 50.73690948 41.35089539 49.78639221 40.9480896 C46.7931027 39.6783575 43.80271916 38.40194408 40.8125 37.125 C38.76594241 36.25419376 36.7192298 35.38375173 34.67236328 34.51367188 C31.62164781 33.21673967 28.5711139 31.91939679 25.52142334 30.62005615 C19.80744729 28.18672393 14.08521975 25.775587 8.34765625 23.3984375 C6.53914185 22.64602783 6.53914185 22.64602783 4.6940918 21.87841797 C2.5402734 20.98393774 0.38429859 20.09462578 -1.77416992 19.21142578 C-2.70720947 18.82196777 -3.64024902 18.43250977 -4.6015625 18.03125 C-5.38869629 17.70705078 -6.17583008 17.38285156 -6.98681641 17.04882812 C-9.13225543 15.93109758 -10.46716004 14.86545392 -12 13 C-13.22143743 8.67799062 -13.1942299 5.94961382 -11 2 C-7.26309873 -0.49126751 -4.32536883 -0.47641889 0 0 Z M75.32202148 180.34082031 C73.70258082 181.87030582 72.1558255 183.44447558 70.625 185.0625 C70.09261719 185.60455078 69.56023437 186.14660156 69.01171875 186.70507812 C65.91583008 189.89155895 64.20677633 191.70764792 63.5 196.125 C64.21037417 201.63039983 67.15138978 204.20907773 71 208 C71.50273438 208.55300781 72.00546875 209.10601562 72.5234375 209.67578125 C75.12801691 212.01163421 77.60219612 211.9424101 81 212 C85.58038873 209.37282881 89.16124694 206.12141603 92.8125 202.375 C93.30169922 201.88515625 93.79089844 201.3953125 94.29492188 200.890625 C97.31427607 197.83368548 98.81474825 196.15782341 99.5 191.875 C98.70423584 185.70782773 94.63334452 182.08533728 89.87890625 178.3203125 C84.70001622 174.68109248 80.00225952 176.60098803 75.32202148 180.34082031 Z M101.625 223.125 C100.81933594 223.92292969 100.01367188 224.72085938 99.18359375 225.54296875 C98.41402344 226.31511719 97.64445312 227.08726562 96.8515625 227.8828125 C96.15885254 228.57777832 95.46614258 229.27274414 94.75244141 229.98876953 C92.02868707 233.11475005 91.017729 235.07809201 90.9375 239.25 C92.55111113 244.94509812 95.93450209 248.89453923 100.80859375 252.2421875 C103.67107575 253.68299136 105.64064627 254.06804033 108.78515625 253.47265625 C113.06812995 251.51071082 115.68004153 248.71228041 118.875 245.3125 C120.10602155 244.03707936 121.3390794 242.76362082 122.57421875 241.4921875 C123.16251465 240.8847168 123.75081055 240.27724609 124.35693359 239.65136719 C126.37176986 237.62635195 128.4952824 235.76773733 130.6875 233.9375 C134.4575919 230.70829923 136.68668865 228.10366191 137.4375 223.0625 C136.49785975 216.48501825 132.01061568 212.81242497 127 209 C117.09004746 204.04502373 107.81874378 216.87003306 101.625 223.125 Z M141.6875 252.125 C140.95982422 252.85332031 140.23214844 253.58164062 139.48242188 254.33203125 C134.62760187 258.96081972 134.62760187 258.96081972 132.5 265.125 C133.29615034 271.29516512 137.36425578 274.87758424 142.0859375 278.6796875 C144.50712111 280.34981007 146.05237065 280.8596367 149 281 C155.24364712 278.71346256 159.27741621 274.09630305 163.8125 269.4375 C164.58787109 268.65697266 165.36324219 267.87644531 166.16210938 267.07226562 C172.10278657 261.29024867 172.10278657 261.29024867 173.55078125 253.30078125 C172.41416117 248.55277257 168.57250478 245.1422396 165 242 C155.10247792 236.22948897 148.26490152 245.43388544 141.6875 252.125 Z M181.25 281.3125 C180.66089844 281.86873047 180.07179687 282.42496094 179.46484375 282.99804688 C176.71713668 285.71101282 175.16922817 287.45000846 174.015625 291.19921875 C173.98836952 296.08476323 176.42639767 299.30476657 179.6171875 302.7421875 C182.30386007 305.2378078 184.54813221 306.83054958 188 308.125 C195.792773 307.80030112 200.68747747 301.63708236 205.86328125 296.4375 C208.79628919 293.09161892 209.97661003 291.21627838 210.0625 286.75 C208.27567961 280.4435751 204.27021931 276.39705804 198.75 273 C191.09654666 270.21692606 186.30599759 276.30763048 181.25 281.3125 Z " fill="#DC143C" transform="translate(29,112)"/>
</svg>
