<?xml version="1.0" encoding="UTF-8"?>
<svg version="1.1" xmlns="http://www.w3.org/2000/svg" width="512" height="512">
<path d="M0 0 C1.17084672 0.19257668 1.17084672 0.19257668 2.36534691 0.38904381 C5.84767923 1.11518794 9.28441349 1.91224928 12.71577454 2.85139465 C13.46168854 3.04994049 14.20760254 3.24848633 14.97612 3.45304871 C17.40977299 4.10309771 19.84058258 4.76307033 22.27119446 5.4243927 C23.97505503 5.88440175 25.67896931 6.3442119 27.38293457 6.80383301 C30.93872474 7.76492152 34.49296332 8.73152427 38.04634094 9.70149231 C42.59661492 10.94262453 47.15170436 12.16498385 51.70828724 13.38271809 C55.22211849 14.32486632 58.73252609 15.2792964 62.24208641 16.23721886 C63.92060997 16.69328379 65.60033028 17.14496798 67.28124428 17.59214211 C69.62771765 18.2178304 71.96888627 18.86052118 74.30952454 19.50764465 C75.00101089 19.68805801 75.69249725 19.86847137 76.40493774 20.05435181 C80.50240717 21.21088105 83.04730377 22.50140628 85.68916321 25.87361145 C86.43916321 28.62361145 86.43916321 28.62361145 86.68916321 30.87361145 C87.24152649 30.79320618 87.79388977 30.7128009 88.36299133 30.62995911 C90.02323692 30.38890025 91.68365358 30.14901825 93.3441925 29.9099884 C95.2550652 29.63368011 97.16538342 29.35351214 99.07514954 29.06965637 C103.47902596 28.42524963 107.85343037 27.82059378 112.29463196 27.5103302 C120.38684743 26.90634875 125.23383294 25.54917685 131.26728821 19.9712677 C141.40975513 11.18658264 156.46818184 7.25120072 169.68916321 7.87361145 C180.82851585 9.06906218 191.65326644 11.51385921 202.55635071 14.00642395 C204.32985211 14.40761222 206.10346467 14.80830939 207.87718201 15.20854187 C212.49771249 16.25250789 217.11672376 17.30304424 221.73542786 18.35505676 C226.46778741 19.43169766 231.20158463 20.50197886 235.93525696 21.5728302 C245.18795984 23.6669438 254.43906691 25.76801623 263.68916321 27.87361145 C263.9286972 27.08414627 264.1682312 26.29468109 264.4150238 25.48129272 C265.68916321 22.87361145 265.68916321 22.87361145 267.64128113 21.79730225 C268.44453827 21.58392715 269.24779541 21.37055206 270.07539368 21.15071106 C270.99611664 20.89455521 271.9168396 20.63839935 272.86546326 20.3744812 C273.87720612 20.11509262 274.88894897 19.85570404 275.93135071 19.5884552 C276.99215851 19.29849167 278.05296631 19.00852814 279.1459198 18.70977783 C281.44901196 18.08080026 283.75435619 17.4600252 286.06159973 16.84645081 C290.96722285 15.53086163 295.85105451 14.14202592 300.73731995 12.75657654 C305.80369977 11.32408209 310.876812 9.91633713 315.95039368 8.50959778 C318.55969666 7.78573891 321.16764309 7.05724567 323.77461243 6.32502747 C327.60049602 5.25048054 331.42980657 4.18849863 335.25947571 3.1275177 C336.42189789 2.79949661 337.58432007 2.47147552 338.78196716 2.1335144 C339.86525299 1.83577621 340.94853882 1.53803802 342.06465149 1.23127747 C343.48162827 0.83659019 343.48162827 0.83659019 344.92723083 0.43392944 C349.39104851 -0.47165296 352.34686268 -0.95202377 356.33454132 1.50075626 C359.34907298 4.53863132 359.31700931 5.94705081 359.32408142 10.17414856 C359.33818054 11.4696463 359.35227966 12.76514404 359.36680603 14.09989929 C359.35708471 15.53358809 359.34684388 16.96727344 359.33613586 18.4009552 C359.34291177 19.91228794 359.35181475 21.42361243 359.36268616 22.93492126 C359.3854899 27.03833362 359.3766391 31.14111777 359.36079073 35.24454117 C359.34813714 39.53750052 359.35987033 43.83040586 359.36772156 48.12336731 C359.37681973 55.33285689 359.36482592 62.54209043 359.34101868 69.75154114 C359.31380693 78.08826815 359.32262098 86.4243838 359.3501507 94.761096 C359.37283611 101.91707183 359.37604469 109.07286355 359.36295736 116.22886372 C359.35515965 120.50360448 359.35412983 124.77805782 359.3706398 129.05278015 C359.38507723 133.07165538 359.37507717 137.08974198 359.34616852 141.10853195 C359.33955366 142.58394434 359.34146234 144.05942304 359.35248184 145.53480911 C359.36612944 147.54754018 359.34598552 149.56041619 359.32408142 151.57307434 C359.32219629 152.69984085 359.32031116 153.82660736 359.31836891 154.98751831 C358.68916321 157.87361145 358.68916321 157.87361145 356.28893757 160.20843792 C353.86261587 161.76251382 351.9376049 162.68474692 349.1776886 163.44514465 C348.31651932 163.68831924 347.45535004 163.93149384 346.56808472 164.18203735 C345.65026718 164.42701462 344.73244965 164.67199188 343.78681946 164.9243927 C342.83149826 165.18745712 341.87617706 165.45052155 340.89190674 165.72155762 C338.87715519 166.27282444 336.86070995 166.81793373 334.84272766 167.35725403 C331.76084747 168.18364873 328.68698331 169.03597821 325.61299133 169.89118958 C323.65052794 170.42466476 321.68764991 170.95661742 319.72431946 171.4868927 C318.80852615 171.74199112 317.89273285 171.99708954 316.94918823 172.25991821 C312.23384464 173.50058412 308.4856783 174.39101387 303.68916321 172.87361145 C301.31416321 170.49861145 301.31416321 170.49861145 299.68916321 167.87361145 C299.68916321 166.88361145 299.68916321 165.89361145 299.68916321 164.87361145 C296.38916321 164.87361145 293.08916321 164.87361145 289.68916321 164.87361145 C289.64791321 165.65736145 289.60666321 166.44111145 289.56416321 167.24861145 C287.48547646 175.86031369 282.67974136 181.83123847 275.30244446 186.60017395 C271.34731653 188.52748591 268.06599978 188.80301731 263.68916321 188.87361145 C263.64791321 190.17298645 263.60666321 191.47236145 263.56416321 192.81111145 C262.74710242 200.02848175 258.5731122 205.32148031 253.43916321 210.24861145 C246.48111938 215.7538769 238.25762531 216.36584225 229.68916321 215.87361145 C229.42103821 216.51427551 229.15291321 217.15493958 228.87666321 217.8150177 C225.34071028 225.61970328 220.85617576 231.27919606 212.87666321 234.81111145 C205.00187956 237.28163181 197.76381642 236.52791208 190.46650696 232.8462677 C189.87998352 232.52529114 189.29346008 232.20431458 188.68916321 231.87361145 C188.02916321 231.54361145 187.36916321 231.21361145 186.68916321 230.87361145 C186.50353821 231.69861145 186.31791321 232.52361145 186.12666321 233.37361145 C183.23240916 240.42049087 178.40204705 245.09766526 171.48603821 248.1822052 C164.99200338 250.68099686 158.56304015 250.81651418 151.93916321 248.56111145 C145.43633539 245.6631121 140.14896646 240.99365655 134.69746399 236.50788879 C131.05703421 233.54544812 127.3373686 230.68464551 123.62666321 227.81111145 C122.0836806 226.61191053 120.54071161 225.41269208 118.99775696 224.2134552 C114.3751029 220.62682604 109.73644714 217.06142538 105.09541321 213.49861145 C100.16061785 209.70261502 95.25371189 205.87063106 90.34150696 202.04548645 C84.953214 197.85155285 79.54905878 193.67965398 74.12666321 189.52986145 C71.42011765 187.44940836 68.74042392 185.33661181 66.06416321 183.21736145 C65.25785461 182.58185364 64.45154602 181.94634583 63.62080383 181.2915802 C62.03230821 180.0386463 60.44749514 178.78102553 58.86689758 177.5181427 C53.73930628 173.34418598 53.73930628 173.34418598 47.68916321 170.87361145 C46.98791321 171.36861145 46.28666321 171.86361145 45.56416321 172.37361145 C37.87596545 176.38484506 23.87112469 169.9156109 15.75312805 167.66999817 C13.30138237 166.9950932 10.84515232 166.33854946 8.38838196 165.6822052 C6.81385654 165.24972638 5.2396264 164.81617079 3.66572571 164.38142395 C2.93858368 164.18960541 2.21144165 163.99778687 1.46226501 163.80015564 C-2.97492831 162.54680594 -6.04629028 161.14019433 -9.31083679 157.87361145 C-9.9400425 154.98751831 -9.9400425 154.98751831 -9.945755 151.57307434 C-9.95985413 150.2775766 -9.97395325 148.98207886 -9.98847961 147.64732361 C-9.97875829 146.21363481 -9.96851746 144.77994947 -9.95780945 143.3462677 C-9.96458535 141.83493496 -9.97348833 140.32361047 -9.98435974 138.81230164 C-10.00716348 134.70888929 -9.99831269 130.60610513 -9.98246431 126.50268173 C-9.96981072 122.20972238 -9.98154391 117.91681704 -9.98939514 113.62385559 C-9.99849331 106.41436601 -9.98649951 99.20513247 -9.96269226 91.99568176 C-9.93548051 83.65895475 -9.94429457 75.3228391 -9.97182429 66.9861269 C-9.99450969 59.83015107 -9.99771828 52.67435935 -9.98463094 45.51835918 C-9.97683324 41.24361842 -9.97580342 36.96916508 -9.99231339 32.69444275 C-10.00675082 28.67556752 -9.99675075 24.65748092 -9.9678421 20.63869095 C-9.96122725 19.16327856 -9.96313593 17.68779986 -9.97415543 16.21241379 C-9.98780302 14.19968272 -9.9676591 12.18680671 -9.945755 10.17414856 C-9.94386988 9.04738205 -9.94198475 7.92061554 -9.9400425 6.75970459 C-9.31083679 3.87361145 -9.31083679 3.87361145 -7.0405817 1.4719286 C-4.16309236 -0.2128957 -3.20490857 -0.55185123 0 0 Z M6.68916321 19.87361145 C6.68916321 61.78361145 6.68916321 103.69361145 6.68916321 146.87361145 C20.99027742 151.76581195 20.99027742 151.76581195 35.68916321 153.87361145 C35.97207214 152.84806656 36.25498108 151.82252167 36.54646301 150.76589966 C40.64155579 135.92118835 44.73664856 121.07647705 48.83174133 106.23176575 C49.1002037 105.25857958 49.36866608 104.28539341 49.64526367 103.28271675 C50.18415271 101.32926429 50.72306256 99.37581756 51.26199341 97.42237663 C52.58740854 92.6180992 53.91247362 87.81372579 55.23677063 83.00914001 C57.56851545 74.55079307 59.90379248 66.09350235 62.25556946 57.64070129 C62.63849238 56.26199243 63.02134822 54.88326493 63.40412903 53.5045166 C64.094293 51.02037074 64.78646287 48.53678093 65.48103333 46.05386353 C65.77723572 44.98657516 66.07343811 43.9192868 66.37861633 42.81965637 C66.63421326 41.90359116 66.88981018 40.98752594 67.15315247 40.04370117 C67.76909418 37.92255458 67.76909418 37.92255458 67.68916321 35.87361145 C60.17996767 33.78294167 52.6696341 31.69641649 45.15781689 29.6151886 C41.66989205 28.64868192 38.18237671 27.68074708 34.695755 26.70954895 C31.33154796 25.77250594 27.96632112 24.83921389 24.60035133 23.90852356 C22.69020038 23.37931 20.78112811 22.84620807 18.87207031 22.31306458 C17.71109329 21.99273254 16.55011627 21.67240051 15.35395813 21.34236145 C14.3302562 21.05812317 13.30655426 20.77388489 12.25183105 20.48103333 C9.64158858 19.75829301 9.64158858 19.75829301 6.68916321 19.87361145 Z M334.02436829 21.34236145 C332.28290276 21.8228595 332.28290276 21.8228595 330.5062561 22.31306458 C329.25306076 22.66304504 327.99986542 23.01302551 326.70869446 23.37361145 C325.41270069 23.73267076 324.11661272 24.09139019 322.82043457 24.44978333 C319.41153139 25.39332808 316.00392778 26.34148526 312.59657288 27.29060364 C309.11844275 28.25855804 305.63910527 29.22215174 302.15986633 30.18611145 C295.33510963 32.07767492 288.51171608 33.97411302 281.68916321 35.87361145 C284.4455217 47.09407498 287.37812847 58.25682638 290.42744446 69.4009552 C290.87590777 71.0445217 291.3242436 72.68812299 291.77246094 74.33175659 C292.7067799 77.75655907 293.64221834 81.18105295 294.5785675 84.6053009 C295.75676266 88.91410581 296.9327574 93.22350724 298.10800362 97.53311729 C303.23513519 116.33215975 308.39403479 135.12106373 313.68916321 153.87361145 C324.00910022 152.79126362 324.00910022 152.79126362 342.68916321 146.87361145 C342.68916321 104.96361145 342.68916321 63.05361145 342.68916321 19.87361145 C339.48455504 19.87361145 337.10972276 20.48569036 334.02436829 21.34236145 Z M142.68916321 32.87361145 C141.96342102 33.38150208 141.23767883 33.8893927 140.48994446 34.41267395 C133.66192333 39.82265928 129.57345261 46.86713696 125.23603821 54.26130676 C123.42773879 57.31509523 121.5753452 60.3401168 119.72041321 63.36579895 C118.33435697 65.63884657 116.94893988 67.91228406 115.56416321 70.18611145 C114.88788879 71.29011292 114.21161438 72.39411438 113.5148468 73.53157043 C112.88916809 74.56870178 112.26348938 75.60583313 111.61885071 76.6743927 C111.0540802 77.60420959 110.48930969 78.53402649 109.90742493 79.49201965 C108.46145895 81.87290333 108.46145895 81.87290333 108.68916321 84.87361145 C116.51645832 88.87422895 124.94787582 89.96523537 133.50166321 87.6587677 C144.31058282 83.77913763 151.13960948 76.71959387 156.68916321 66.87361145 C155.84031555 66.25872864 155.84031555 66.25872864 154.97431946 65.63142395 C154.2408429 65.09259583 153.50736633 64.5537677 152.75166321 63.99861145 C152.02076477 63.46493958 151.28986633 62.9312677 150.53681946 62.38142395 C148.68916321 60.87361145 148.68916321 60.87361145 147.68916321 58.87361145 C147.33396417 55.03746188 147.14191727 52.72731511 149.25166321 49.43611145 C152.62138183 47.27603541 154.73202158 47.49455894 158.68916321 47.87361145 C161.58369446 49.56892395 161.58369446 49.56892395 164.50166321 51.99861145 C165.63268116 52.91848812 166.76422223 53.83772185 167.89619446 54.75642395 C168.50157043 55.25690247 169.10694641 55.75738098 169.73066711 56.27302551 C173.32678699 59.21196367 177.01593377 62.03213671 180.68916321 64.87361145 C182.24153778 66.08157059 183.79362534 67.28989869 185.34541321 68.49861145 C188.95062543 71.3026654 192.56629085 74.09241651 196.18916321 76.87361145 C202.15905492 81.45655862 208.09870814 86.07771632 214.03681946 90.70173645 C218.41060398 94.10603574 222.79275028 97.49858739 227.18916321 100.87361145 C233.15905492 105.45655862 239.09870814 110.07771632 245.03681946 114.70173645 C250.42881232 118.89854985 255.83627524 123.07381659 261.26338196 127.22517395 C263.93305678 129.27703958 266.57292861 131.36432638 269.20869446 133.45954895 C270.0014679 134.08603333 270.79424133 134.7125177 271.61103821 135.35798645 C273.16122231 136.58394904 274.70708552 137.81540294 276.24775696 139.05329895 C284.59080694 145.69431002 284.59080694 145.69431002 294.68916321 147.87361145 C292.10430049 137.37931877 289.39288144 126.93058508 286.53681946 116.50642395 C286.15081221 115.09271445 285.76494627 113.67896635 285.37921143 112.2651825 C284.57771357 109.32887546 283.77513948 106.3928658 282.97163391 103.45710754 C281.75640549 99.01704166 280.54395904 94.57621883 279.33174133 90.1353302 C277.79774668 84.51599322 276.25904749 78.89796871 274.71699524 73.28083801 C273.49074091 68.81237435 272.27530408 64.34147313 271.07929993 59.86482239 C270.84883469 59.01064728 270.61836945 58.15647217 270.38092041 57.27641296 C269.97555208 55.77308701 269.57514511 54.26840899 269.18112183 52.7620697 C268.37586265 49.79705156 267.9021297 48.08657794 265.68916321 45.87361145 C263.10029867 45.14191107 260.54966388 44.51112464 257.92573547 43.93415833 C257.12381271 43.75176102 256.32188995 43.56936371 255.4956665 43.38143921 C252.83385561 42.7779487 250.16980284 42.18505798 247.50556946 41.59236145 C245.65134912 41.17460293 243.79726044 40.75625962 241.94329834 40.33735657 C238.04780831 39.45873765 234.15127943 38.58494198 230.25386047 37.71492004 C225.28298471 36.60521321 220.31400885 35.48728236 215.34570408 34.36612701 C210.58716114 33.29272679 205.82763783 32.22370376 201.06806946 31.15486145 C199.72139789 30.8518235 199.72139789 30.8518235 198.34752083 30.54266357 C169.7238158 23.37157742 169.7238158 23.37157742 142.68916321 32.87361145 Z M109.68916321 44.87361145 C96.32416321 46.35861145 96.32416321 46.35861145 82.68916321 47.87361145 C80.58081789 52.79308386 78.86297034 57.33988517 77.50019836 62.45100403 C77.30296677 63.17413788 77.10573517 63.89727173 76.90252686 64.64231873 C76.25628813 67.01631821 75.61724609 69.39219107 74.97822571 71.7681427 C74.52412675 73.44150073 74.06955892 75.11473159 73.61454773 76.7878418 C72.4184974 81.19047395 71.2284653 85.59471019 70.03981018 89.99934387 C68.61003206 95.2932149 67.17324515 100.58518676 65.73750877 105.87744427 C64.61676621 110.00914893 63.49697818 114.14110303 62.38047791 118.2739563 C62.17358023 119.03882701 61.96668255 119.80369772 61.75351524 120.59174633 C61.34667001 122.09688868 60.94076714 123.60228612 60.53586769 125.10795307 C59.47062409 129.05420339 58.37282817 132.98828761 57.23231506 136.91349792 C56.99543661 137.73733066 56.75855816 138.56116339 56.51450157 139.40996075 C56.05878552 140.99017152 55.59618502 142.56841801 55.12574196 144.14430714 C53.83393889 148.49242479 53.83393889 148.49242479 54.68916321 152.87361145 C56.44202124 154.38326414 58.26960848 155.80665132 60.12666321 157.18611145 C61.31347173 158.07722589 62.49963317 158.96920258 63.68525696 159.8618927 C64.64987854 160.58433167 64.64987854 160.58433167 65.63398743 161.32136536 C69.35200609 164.12953389 73.01682522 167.00613757 76.68916321 169.87361145 C81.84415068 173.88901319 87.00601148 177.89462629 92.18916321 181.87361145 C98.15905492 186.45655862 104.09870814 191.07771632 110.03681946 195.70173645 C115.4337428 199.90238745 120.84870613 204.07827349 126.27510071 208.24079895 C129.67961167 210.8591811 133.06242468 213.50504901 136.445755 216.15071106 C139.50335283 218.53633707 142.57276294 220.90653974 145.64179993 223.27742004 C147.45692101 224.69254784 149.24975676 226.13040857 151.03681946 227.5806427 C156.22837877 231.7512903 156.22837877 231.7512903 162.56416321 233.18611145 C166.35274691 231.5949063 168.24056092 230.18642631 170.68916321 226.87361145 C172.10826002 223.5234386 172.10826002 223.5234386 171.68916321 219.87361145 C168.32063152 214.5686921 163.36122669 210.84212565 158.31416321 207.24861145 C152.36927991 202.90082966 146.53895902 198.44559448 140.81416321 193.81111145 C140.13047668 193.26309875 139.44679016 192.71508606 138.74238586 192.15046692 C138.10865051 191.63500305 137.47491516 191.11953918 136.82197571 190.5884552 C136.26397278 190.1359137 135.70596985 189.68337219 135.13105774 189.21711731 C133.68916321 187.87361145 133.68916321 187.87361145 131.68916321 184.87361145 C131.71260071 182.6118927 131.71260071 182.6118927 132.06416321 180.18611145 C132.17502258 179.37786926 132.28588196 178.56962708 132.40010071 177.7368927 C132.49549133 177.12200989 132.59088196 176.50712708 132.68916321 175.87361145 C136.2993769 174.67020689 138.89240402 174.55788947 142.68916321 174.87361145 C145.54072571 176.49079895 145.54072571 176.49079895 148.31416321 178.74861145 C148.82575989 179.1557135 149.33735657 179.56281555 149.86445618 179.98225403 C150.9438677 180.84128706 152.01820362 181.70673308 153.08760071 182.57820129 C155.62106824 184.62737488 158.22175392 186.58734529 160.81416321 188.56111145 C165.34136845 192.04410967 169.85033864 195.55061309 174.3573761 199.05964661 C175.90734963 200.26541598 177.45861334 201.46952877 179.01118469 202.67195129 C182.53033238 205.39952511 186.03295385 208.13993089 189.48213196 210.9556427 C190.06027649 211.42034973 190.63842102 211.88505676 191.23408508 212.36384583 C192.76171719 213.59358059 194.27863547 214.83659203 195.79463196 216.0806427 C199.21629434 218.20013397 201.68036779 218.75184897 205.68916321 218.87361145 C209.27167097 216.50780444 212.52552215 214.14029532 213.68916321 209.87361145 C213.91601403 206.54646608 213.37515445 204.66214777 211.17353821 202.13142395 C205.14632899 196.58731165 198.3976637 191.83580987 191.82588196 186.9634552 C187.94111447 184.07594424 184.11545442 181.11990481 180.31416321 178.12361145 C179.74318909 177.67421204 179.17221497 177.22481262 178.5839386 176.76179504 C175.92733719 174.66409296 173.28942835 172.54772942 170.66572571 170.4087677 C169.31607727 169.30855286 169.31607727 169.30855286 167.93916321 168.18611145 C167.16056946 167.54286926 166.38197571 166.89962708 165.57978821 166.2368927 C163.80726947 164.67865195 163.80726947 164.67865195 161.68916321 164.87361145 C161.46552951 163.45927939 161.26089845 162.04193527 161.06416321 160.62361145 C160.94814758 159.8347052 160.83213196 159.04579895 160.71260071 158.23298645 C160.68558032 155.51293356 161.21581888 154.13875306 162.68916321 151.87361145 C165.86856212 150.28391199 168.16327699 150.51207388 171.68916321 150.87361145 C174.48038443 152.31393185 176.82255128 154.20708021 179.25166321 156.18611145 C179.94856262 156.73154602 180.64546204 157.27698059 181.36347961 157.83894348 C183.4838749 159.50280124 185.58653905 161.18738835 187.68916321 162.87361145 C188.86067648 163.79370262 190.03375276 164.71180863 191.20869446 165.6275177 C193.47530992 167.39584589 195.73534421 169.17202032 197.98994446 170.9556427 C203.74173949 175.50083337 209.53453456 179.99342469 215.32978821 184.48298645 C218.08570993 186.61949117 220.82531851 188.77372862 223.54853821 190.95173645 C224.43013611 191.64964294 224.43013611 191.64964294 225.32954407 192.36164856 C226.88749147 193.59567756 228.43898242 194.83784567 229.98994446 196.0806427 C232.73380135 197.90326254 234.41766332 198.69066573 237.68916321 198.87361145 C241.11096196 197.75586957 243.93932489 195.85166143 246.12666321 192.99861145 C246.91431484 190.02303863 247.11990468 187.95033623 246.68916321 184.87361145 C243.34726584 179.50270496 238.38525893 176.24919305 233.32978821 172.5572052 C229.06656587 169.44076585 224.91238315 166.18742501 220.75166321 162.93611145 C219.20362724 161.72889922 217.65545163 160.52186604 216.10713196 159.3150177 C215.35995911 158.73252258 214.61278625 158.15002747 213.8429718 157.54988098 C210.75728388 155.14834695 207.66303287 152.75810282 204.56416321 150.37361145 C203.54580383 149.58986145 202.52744446 148.80611145 201.47822571 147.99861145 C198.3751186 145.63433937 195.24165156 143.31490555 192.07978821 141.02986145 C189.66599958 139.02289113 189.6697081 137.66349628 189.37666321 134.49861145 C189.68916321 130.87361145 189.68916321 130.87361145 191.25166321 128.43611145 C194.67510404 126.24159809 196.65721519 126.42378306 200.68916321 126.87361145 C203.45862161 128.29554564 205.78018741 130.16376673 208.18916321 132.12361145 C208.8820343 132.6650177 209.5749054 133.20642395 210.28877258 133.76423645 C212.43681121 135.44989074 214.56458514 137.1585191 216.68916321 138.87361145 C217.95961326 139.88971586 219.23043213 140.90535934 220.50166321 141.92048645 C222.3491472 143.39842489 224.19493467 144.87826905 226.03608704 146.36408997 C231.8753019 151.06596465 237.8553763 155.56603631 243.88056946 160.0259552 C246.34164942 161.85083762 248.76259801 163.71232006 251.15400696 165.6275177 C251.69065979 166.05073303 252.22731262 166.47394836 252.78022766 166.9099884 C254.2078722 168.03951586 255.62475945 169.18260326 257.04072571 170.32673645 C260.23369044 172.19165391 262.04716318 172.35921145 265.68916321 171.87361145 C268.67740372 170.2322718 271.15099739 167.94994309 272.68916321 164.87361145 C273.61255895 161.67643435 273.61255895 161.67643435 272.68916321 157.87361145 C269.82035344 154.35279946 266.26155822 151.64510349 262.68916321 148.87361145 C261.77239807 148.15794006 261.77239807 148.15794006 260.83711243 147.42781067 C257.33437055 144.70519723 253.80798698 142.01538216 250.26728821 139.34236145 C245.62321062 135.83438868 241.02764237 132.26635321 236.43916321 128.68611145 C231.36749198 124.73315955 226.28996058 120.788922 221.18916321 116.87361145 C216.0060052 112.89462146 210.84476459 108.88823227 205.68916321 104.87361145 C198.37634818 99.17983884 191.04136071 93.51642303 183.68916321 87.87361145 C181.25122364 85.9991827 178.81394068 84.12390099 176.37666321 82.24861145 C175.27641435 81.40224226 174.17615507 80.55588661 173.07588196 79.70954895 C172.28826477 79.10368958 171.50064758 78.4978302 170.68916321 77.87361145 C167.46288041 80.98902543 164.69380187 84.12272202 162.06416321 87.74861145 C154.37309677 97.42725686 143.51400618 102.42061067 131.46260071 104.40486145 C117.82534651 105.83693588 103.88116221 103.2017684 93.00166321 94.43611145 C90.80777934 92.29730416 89.68650788 90.86792146 88.37666321 88.06111145 C89.45505075 77.06155855 99.22402763 65.31381659 105.08369446 56.09236145 C105.45905334 55.49721741 105.83441223 54.90207336 106.22114563 54.28889465 C107.25803487 52.6498361 108.30534078 51.01738087 109.35322571 49.3853302 C109.79408508 48.55646301 110.23494446 47.72759583 110.68916321 46.87361145 C110.19416321 45.88361145 110.19416321 45.88361145 109.68916321 44.87361145 Z " fill="#000000" transform="translate(81.31083679199219,131.1263885498047)"/>
</svg>
