<svg width="70" height="70" viewBox="0 0 70 70" fill="none" xmlns="http://www.w3.org/2000/svg">
<circle cx="35" cy="35" r="35" fill="#FFE8AF"/>
<path d="M46.4456 20.278C46.5186 20.3068 46.5916 20.3357 46.6668 20.3655C46.9058 20.4604 47.1439 20.5574 47.3821 20.6545C47.5489 20.7215 47.7157 20.7884 47.8826 20.8552C48.2311 20.9951 48.5793 21.136 48.9271 21.2777C49.3727 21.4591 49.8193 21.6381 50.2661 21.8164C50.6103 21.954 50.9541 22.0928 51.2977 22.232C51.4622 22.2985 51.6268 22.3646 51.7916 22.4304C52.0216 22.5224 52.251 22.616 52.4802 22.71C52.5481 22.7368 52.6161 22.7637 52.6861 22.7913C53.0585 22.9462 53.3312 23.0705 53.5228 23.4435C53.568 23.7227 53.5667 23.9969 53.5639 24.2792C53.5646 24.4053 53.5646 24.4053 53.5652 24.5339C53.5663 24.8119 53.5649 25.0899 53.5634 25.3679C53.5635 25.5622 53.5636 25.7564 53.5638 25.9506C53.5639 26.3585 53.5629 26.7662 53.561 27.1741C53.5587 27.6932 53.5589 28.2124 53.56 28.7316C53.5605 29.1333 53.5599 29.5351 53.5589 29.9368C53.5585 30.128 53.5585 30.3191 53.5588 30.5103C53.5612 33.206 52.9561 35.3751 51.1184 37.39C50.986 37.5191 50.986 37.5191 50.7762 37.6315C50.4566 37.976 50.522 38.3427 50.528 38.7959C50.5275 38.9415 50.5275 38.9415 50.527 39.09C50.5265 39.356 50.5277 39.6219 50.5296 39.8879C50.531 40.1668 50.53 40.4458 50.5291 40.7247C50.5274 41.3741 50.5286 42.0235 50.5303 42.6728C50.5324 43.4979 50.5334 44.323 50.5311 45.1481C50.5305 45.4254 50.5305 45.7027 50.5322 45.9801C50.534 46.29 50.5337 46.5998 50.5331 46.9097C50.5342 47.0006 50.5353 47.0916 50.5363 47.1853C50.5311 48.0087 50.2623 48.7114 49.6766 49.3033C49.1076 49.7212 48.5527 49.9781 47.839 49.979C47.7337 49.9795 47.6284 49.98 47.5199 49.9806C47.4036 49.9803 47.2873 49.9801 47.171 49.9798C47.047 49.9801 46.923 49.9805 46.799 49.9809C46.4585 49.9819 46.118 49.9819 45.7775 49.9817C45.4101 49.9817 45.0428 49.9826 44.6754 49.9834C43.9558 49.9847 43.2361 49.9852 42.5164 49.9853C41.9314 49.9854 41.3463 49.9857 40.7612 49.9862C39.1022 49.9877 37.4432 49.9884 35.7841 49.9883C35.6947 49.9883 35.6053 49.9883 35.5131 49.9883C35.4236 49.9883 35.334 49.9882 35.2418 49.9882C33.7908 49.9882 32.3399 49.9897 30.889 49.992C29.399 49.9944 27.9089 49.9955 26.4188 49.9954C25.5824 49.9953 24.746 49.9958 23.9095 49.9975C23.1973 49.999 22.485 49.9994 21.7728 49.9983C21.4095 49.9977 21.0463 49.9977 20.683 49.9992C20.3501 50.0004 20.0172 50.0002 19.6843 49.9988C19.5642 49.9985 19.4442 49.9988 19.3241 49.9997C18.2702 50.0072 17.4839 49.8429 16.7111 49.0996C16.2863 48.6076 16.0332 48.0336 16.0317 47.3822C16.0313 47.3088 16.0309 47.2355 16.0305 47.1599C16.0306 47.0796 16.0306 46.9994 16.0306 46.9167C16.0303 46.8311 16.03 46.7456 16.0297 46.6575C16.0288 46.37 16.0285 46.0824 16.0282 45.7949C16.0276 45.5891 16.0271 45.3833 16.0265 45.1775C16.0249 44.5593 16.0241 43.941 16.0234 43.3227C16.023 43.0314 16.0226 42.74 16.0221 42.4486C16.0207 41.4796 16.0195 40.5107 16.019 39.5417C16.0188 39.2903 16.0186 39.0389 16.0185 38.7875C16.0184 38.7251 16.0184 38.6626 16.0184 38.5982C16.0177 37.5868 16.0156 36.5753 16.013 35.5639C16.0102 34.5248 16.0088 33.4856 16.0085 32.4465C16.0083 31.8633 16.0076 31.2802 16.0055 30.697C16.0036 30.1482 16.0033 29.5994 16.0041 29.0505C16.0042 28.8494 16.0036 28.6483 16.0025 28.4472C16.0011 28.1719 16.0016 27.8967 16.0027 27.6214C16.0018 27.5424 16.0009 27.4634 16 27.3821C16.0078 26.5492 16.2706 25.7644 16.861 25.1621C17.8086 24.3332 19.0025 24.3897 20.1869 24.3938C20.3477 24.3935 20.5084 24.393 20.6691 24.3925C21.1029 24.3914 21.5367 24.3918 21.9706 24.3926C22.4254 24.3932 22.8802 24.3926 23.335 24.3922C24.0979 24.3918 24.8609 24.3924 25.6238 24.3936C26.5058 24.3949 27.3878 24.3945 28.2699 24.3931C29.0281 24.392 29.7864 24.3918 30.5446 24.3925C30.9971 24.3929 31.4496 24.3929 31.9021 24.3921C32.3269 24.3914 32.7518 24.3919 33.1766 24.3933C33.3326 24.3936 33.4885 24.3935 33.6445 24.393C33.8571 24.3923 34.0698 24.3932 34.2825 24.3944C34.3443 24.3938 34.4061 24.3933 34.4698 24.3927C34.8345 24.3968 35.0647 24.4482 35.3556 24.6711C35.5656 24.9231 35.6018 25.0408 35.596 25.3718C35.5127 25.6769 35.4402 25.7905 35.1919 25.9804C34.8887 26.0815 34.6084 26.0737 34.2926 26.073C34.2253 26.0732 34.1579 26.0733 34.0885 26.0735C33.8619 26.074 33.6354 26.0739 33.4089 26.0739C33.2468 26.0741 33.0847 26.0744 32.9226 26.0747C32.5731 26.0754 32.2236 26.0758 31.8741 26.0761C31.3215 26.0765 30.7689 26.0779 30.2164 26.0794C30.0273 26.08 29.8382 26.0805 29.6491 26.081C29.5544 26.0813 29.4597 26.0815 29.3621 26.0818C28.0754 26.0852 26.7887 26.0879 25.502 26.0889C24.6344 26.0896 23.7669 26.0915 22.8993 26.0946C22.4401 26.0962 21.9809 26.0972 21.5216 26.0968C21.0897 26.0964 20.6577 26.0976 20.2258 26.0999C20.0672 26.1004 19.9087 26.1004 19.7501 26.0998C19.5336 26.0991 19.3173 26.1004 19.1008 26.1022C19.0381 26.1015 18.9754 26.1008 18.9107 26.1001C18.4883 26.1065 18.2391 26.1877 17.9248 26.4714C17.6263 26.961 17.6353 27.4588 17.6231 28.0212C17.6189 28.1519 17.6189 28.1519 17.6146 28.2854C17.6079 28.4991 17.6022 28.7127 17.5975 28.9265C17.6869 28.9261 17.7763 28.9257 17.8683 28.9253C20.0423 28.9162 22.2162 28.9095 24.3901 28.9053C25.4414 28.9032 26.4927 28.9003 27.544 28.8956C28.4602 28.8915 29.3764 28.8889 30.2926 28.888C30.7778 28.8874 31.263 28.8862 31.7482 28.8832C32.2048 28.8804 32.6614 28.8796 33.118 28.8802C33.2857 28.8801 33.4534 28.8793 33.621 28.8777C33.8499 28.8757 34.0786 28.8761 34.3075 28.8773C34.3739 28.8761 34.4402 28.8749 34.5086 28.8736C34.8386 28.878 35.0494 28.9095 35.3134 29.1162C35.5689 29.3885 35.6077 29.5376 35.6011 29.9085C35.4711 30.2009 35.3788 30.3022 35.1101 30.4813C34.8759 30.4968 34.6498 30.5027 34.4157 30.501C34.344 30.5011 34.2723 30.5013 34.1984 30.5014C33.9571 30.5017 33.7159 30.5008 33.4746 30.4999C33.302 30.4999 33.1295 30.4999 32.9569 30.5C32.4876 30.5 32.0182 30.4991 31.5489 30.4979C31.0587 30.4969 30.5685 30.4968 30.0784 30.4966C29.1498 30.4961 28.2212 30.4947 27.2926 30.4931C26.2356 30.4913 25.1786 30.4904 24.1216 30.4896C21.9469 30.4878 19.7722 30.485 17.5975 30.4813C17.6024 32.6815 17.6088 34.8817 17.6168 37.0819C17.6205 38.1034 17.6237 39.125 17.6258 40.1466C17.6277 41.0369 17.6305 41.9272 17.6342 42.8175C17.6362 43.289 17.6377 43.7605 17.6382 44.232C17.6387 44.6757 17.6403 45.1194 17.6429 45.5631C17.6436 45.726 17.6439 45.8889 17.6437 46.0518C17.6436 46.2742 17.645 46.4965 17.6467 46.7189C17.6463 46.7834 17.6459 46.8479 17.6455 46.9143C17.6506 47.3099 17.7299 47.5701 17.9248 47.9121C17.9248 47.9661 17.9248 48.0201 17.9248 48.0757C17.989 48.1011 18.0531 48.1264 18.1192 48.1525C18.334 48.2394 18.334 48.2394 18.4977 48.3212C18.6576 48.3292 18.8177 48.3318 18.9778 48.332C19.1322 48.3325 19.1322 48.3325 19.2897 48.333C19.405 48.3329 19.5203 48.3328 19.6356 48.3327C19.7572 48.3329 19.8789 48.3332 20.0005 48.3335C20.336 48.3341 20.6715 48.3343 21.0071 48.3343C21.3684 48.3345 21.7298 48.3351 22.0912 48.3357C22.882 48.3368 23.6728 48.3373 24.4635 48.3376C24.9571 48.3379 25.4506 48.3382 25.9441 48.3386C27.3098 48.3396 28.6755 48.3404 30.0412 48.3407C30.1286 48.3407 30.2161 48.3407 30.3062 48.3407C30.4377 48.3408 30.4377 48.3408 30.5719 48.3408C30.7495 48.3408 30.9272 48.3409 31.1049 48.3409C31.193 48.3409 31.2811 48.3409 31.3719 48.341C32.8001 48.3413 34.2283 48.3427 35.6565 48.3446C37.1218 48.3466 38.5872 48.3476 40.0525 48.3477C40.8757 48.3477 41.6988 48.3482 42.5219 48.3497C43.2228 48.351 43.9237 48.3514 44.6246 48.3507C44.9823 48.3504 45.34 48.3505 45.6978 48.3516C46.0252 48.3526 46.3526 48.3526 46.68 48.3516C46.7985 48.3514 46.917 48.3517 47.0355 48.3524C47.1965 48.3533 47.3576 48.3525 47.5186 48.3517C47.6528 48.3518 47.6528 48.3518 47.7897 48.3518C48.1535 48.3074 48.432 48.1849 48.6793 47.9121C48.8322 47.6546 48.8687 47.4435 48.8712 47.1503C48.8724 47.0423 48.8724 47.0424 48.8736 46.9322C48.8741 46.8535 48.8746 46.7748 48.8751 46.6938C48.8759 46.6107 48.8767 46.5277 48.8775 46.4421C48.8801 46.1671 48.8821 45.8922 48.8842 45.6172C48.8859 45.4267 48.8876 45.2363 48.8893 45.0458C48.8938 44.5441 48.8979 44.0424 48.9018 43.5408C48.9059 43.029 48.9105 42.5172 48.915 42.0054C48.9238 41.001 48.9321 39.9966 48.9401 38.9921C48.6185 39.1795 48.297 39.3672 47.9756 39.555C47.8667 39.6186 47.7578 39.6822 47.6488 39.7457C47.4904 39.838 47.3321 39.9304 47.174 40.023C47.1221 40.0534 47.0702 40.0837 47.0168 40.1149C46.6222 40.3471 46.2383 40.5931 45.8587 40.8492C45.5142 41.0411 45.2254 41.0584 44.8484 40.9561C44.4614 40.7771 44.11 40.554 43.7538 40.3219C43.6526 40.2578 43.5512 40.1939 43.4497 40.1301C43.2468 40.0025 43.0444 39.8741 42.8423 39.7451C42.5183 39.5393 42.1887 39.3436 41.8579 39.1491C39.5781 37.8086 37.9964 36.1959 37.2205 33.6252C37.0521 32.8958 36.9678 32.1877 36.9685 31.4397C36.9679 31.3532 36.9674 31.2667 36.9668 31.1776C36.9653 30.8953 36.965 30.613 36.9648 30.3308C36.9643 30.1332 36.9637 29.9355 36.9631 29.7379C36.9622 29.3256 36.9618 28.9132 36.9619 28.5009C36.962 27.9724 36.9597 27.4439 36.9569 26.9153C36.9551 26.5081 36.9548 26.1008 36.9548 25.6936C36.9546 25.4986 36.9539 25.3037 36.9527 25.1087C36.9511 24.8369 36.9515 24.5651 36.9525 24.2932C36.9516 24.2128 36.9507 24.1325 36.9497 24.0496C36.9528 23.7228 36.9634 23.4999 37.1137 23.2061C37.3975 22.9694 37.6931 22.845 38.0349 22.71C38.1071 22.6804 38.1792 22.6508 38.2536 22.6203C38.4918 22.523 38.7307 22.4275 38.9697 22.3321C39.1361 22.2648 39.3025 22.1975 39.4688 22.1302C39.8176 21.9893 40.1667 21.8493 40.516 21.7099C40.9625 21.5316 41.408 21.351 41.8532 21.1697C42.1967 21.0301 42.5407 20.8919 42.8849 20.7541C43.0493 20.6881 43.2135 20.6217 43.3776 20.5547C43.6077 20.4611 43.8385 20.3693 44.0696 20.278C44.17 20.2365 44.17 20.2365 44.2724 20.1941C45.0544 19.89 45.682 19.9624 46.4456 20.278ZM44.4558 21.8836C44.3599 21.9219 44.3599 21.9219 44.2621 21.961C44.0511 22.0455 43.8405 22.1307 43.6298 22.216C43.4835 22.2748 43.3372 22.3335 43.1909 22.3922C42.8059 22.5467 42.4212 22.7018 42.0366 22.8571C41.644 23.0155 41.2511 23.1732 40.8583 23.331C40.0877 23.6407 39.3173 23.9511 38.5471 24.2619C38.5414 25.2408 38.5371 26.2198 38.5344 27.1987C38.5331 27.6534 38.5314 28.1081 38.5286 28.5628C38.5259 29.0027 38.5245 29.4426 38.5238 29.8825C38.5234 30.0492 38.5225 30.2159 38.5212 30.3826C38.5037 32.6572 38.9302 34.4893 40.5 36.2081C41.2042 36.9093 42.0263 37.3982 42.8792 37.8925C43.0509 37.9926 43.2224 38.0929 43.3938 38.1934C43.5048 38.2584 43.616 38.3232 43.7273 38.3878C44.1316 38.6237 44.5204 38.8778 44.9032 39.1474C45.1503 39.2643 45.2463 39.2443 45.5031 39.1558C45.6762 39.0681 45.846 38.9737 46.0132 38.8751C46.0616 38.8468 46.11 38.8185 46.1598 38.7893C46.3163 38.6973 46.4723 38.6044 46.6283 38.5113C46.7361 38.4474 46.8439 38.3834 46.9518 38.3195C47.2607 38.1358 47.5686 37.9505 47.8763 37.7646C47.9526 37.7186 48.0289 37.6726 48.1076 37.6252C49.9553 36.5025 51.2849 35.0449 51.8267 32.9012C51.9448 32.3207 51.9798 31.7641 51.9773 31.1739C51.9773 31.0612 51.9773 31.0612 51.9773 30.9462C51.9773 30.7 51.9766 30.4539 51.976 30.2077C51.9758 30.0362 51.9757 29.8646 51.9756 29.6931C51.9753 29.2432 51.9745 28.7933 51.9736 28.3435C51.9728 27.8838 51.9724 27.4241 51.972 26.9644C51.9711 26.0635 51.9697 25.1627 51.968 24.2619C51.1203 23.9198 50.2724 23.5783 49.4242 23.2376C49.0303 23.0794 48.6366 22.9209 48.243 22.762C47.8633 22.6087 47.4834 22.456 47.1033 22.3036C46.9582 22.2453 46.8132 22.1868 46.6683 22.1282C46.4655 22.0461 46.2625 21.9648 46.0594 21.8836C45.9993 21.8591 45.9393 21.8346 45.8774 21.8094C45.321 21.5886 44.991 21.6653 44.4558 21.8836Z" fill="black"/>
<path d="M48.6127 27.1262C48.9223 27.3483 49.0093 27.4714 49.0832 27.8473C49.0632 28.1347 48.9775 28.274 48.7851 28.4846C48.733 28.5416 48.6809 28.5986 48.6273 28.6574C48.2879 29.014 47.9418 29.3636 47.5933 29.7113C47.5119 29.7927 47.4306 29.8742 47.3492 29.9556C47.1801 30.1249 47.0108 30.294 46.8414 30.463C46.6242 30.6797 46.4074 30.8968 46.1907 31.114C46.0234 31.2816 45.8559 31.449 45.6884 31.6163C45.6083 31.6964 45.5282 31.7765 45.4483 31.8566C45.337 31.968 45.2255 32.0792 45.114 32.1903C45.0507 32.2536 44.9874 32.3168 44.9221 32.382C44.6497 32.6363 44.4217 32.6474 44.06 32.6424C43.7133 32.5828 43.5281 32.3636 43.296 32.1136C43.2464 32.0631 43.1968 32.0127 43.1456 31.9607C42.9885 31.8 42.8342 31.6369 42.6797 31.4736C42.5735 31.3645 42.4672 31.2555 42.3607 31.1466C41.5041 30.266 41.5041 30.266 41.4624 29.8421C41.4675 29.5647 41.494 29.498 41.6568 29.2539C41.9087 29.0859 42.0806 29.0189 42.3859 29.0416C42.7397 29.1421 42.961 29.406 43.2116 29.663C43.298 29.7487 43.3845 29.8343 43.4712 29.9197C43.7138 30.1598 43.9541 30.4019 44.1936 30.6451C44.6387 30.2748 45.0473 29.8806 45.4525 29.4674C45.583 29.3355 45.7135 29.2036 45.8441 29.0717C46.0478 28.8654 46.2513 28.6589 46.4544 28.4521C46.6518 28.2512 46.85 28.0512 47.0482 27.8512C47.1088 27.7891 47.1693 27.7271 47.2317 27.6631C47.2888 27.6057 47.3459 27.5484 47.4047 27.4892C47.4544 27.4387 47.5041 27.3883 47.5553 27.3362C47.8977 27.057 48.1914 26.9945 48.6127 27.1262Z" fill="black"/>
<path d="M21.6475 43.8877C21.7108 43.8872 21.774 43.8867 21.8391 43.8861C22.0488 43.8845 22.2585 43.8835 22.4682 43.8827C22.5397 43.8824 22.6113 43.8821 22.685 43.8817C23.0638 43.88 23.4426 43.8788 23.8214 43.8781C24.2127 43.8772 24.604 43.8744 24.9953 43.8711C25.2962 43.869 25.597 43.8683 25.8978 43.868C26.0421 43.8676 26.1863 43.8666 26.3305 43.8651C26.5325 43.8631 26.7344 43.8632 26.9364 43.8638C27.0256 43.8622 27.0256 43.8622 27.1167 43.8606C27.5122 43.8647 27.7129 43.9487 27.9904 44.2296C28.1196 44.488 28.1393 44.7702 28.0722 45.0479C27.8471 45.3355 27.7265 45.4461 27.3619 45.509C27.2436 45.5115 27.1254 45.5116 27.0071 45.51C26.9423 45.5107 26.8774 45.5115 26.8106 45.5122C26.5969 45.514 26.3833 45.5128 26.1696 45.5114C26.0207 45.5117 25.8718 45.5121 25.7229 45.5126C25.4112 45.5132 25.0994 45.5123 24.7877 45.5104C24.3884 45.5081 23.9892 45.5094 23.5898 45.5119C23.2825 45.5134 22.9751 45.5129 22.6678 45.5118C22.5206 45.5116 22.3734 45.5119 22.2261 45.5129C22.0202 45.5139 21.8145 45.5123 21.6086 45.51C21.548 45.5109 21.4873 45.5117 21.4249 45.5125C21.1011 45.5059 20.9647 45.4669 20.7103 45.2597C20.5014 44.9945 20.4878 44.8751 20.508 44.5515C20.5638 44.3027 20.691 44.1586 20.8708 43.9841C21.1185 43.8602 21.3757 43.8887 21.6475 43.8877Z" fill="black"/>
</svg>
