<svg width="50" height="50" viewBox="0 0 50 50" fill="none" xmlns="http://www.w3.org/2000/svg">
<g clip-path="url(#clip0_892_511)">
<path d="M1.06641 2.22834C0.646484 2.44319 0.490234 2.59944 0.265625 3.02913L-0.0078125 3.55647L0.0214844 7.72639L0.0507812 11.8963L0.34375 12.3162C0.509766 12.5408 0.832031 12.8338 1.06641 12.9608C1.48633 13.1854 1.55469 13.1854 4.28906 13.1854H7.08203L8.17578 14.4354C9.92383 16.4178 10.0508 16.5252 10.6855 16.5838C11.125 16.6229 11.291 16.5838 11.584 16.408C12.1406 16.0565 12.3066 15.5877 12.3066 14.2791V13.1854H13.0195C13.957 13.1854 14.4844 12.9217 14.8945 12.2576L15.1875 11.7889L15.2168 7.79475C15.2363 5.15803 15.207 3.68342 15.1387 3.41975C15.002 2.9217 14.5234 2.36506 14.0156 2.14045C13.6543 1.97444 13.2148 1.95491 7.60938 1.95491H1.58398L1.06641 2.22834ZM13.5762 3.70295C13.7324 3.99592 13.7129 11.2518 13.5469 11.4471C13.459 11.5643 13.2051 11.6131 12.5703 11.6424C11.6328 11.6912 11.3691 11.8182 10.9688 12.4041C10.7734 12.6873 10.7441 12.8436 10.7441 13.7811C10.7441 14.367 10.7148 14.8455 10.6758 14.8358C10.627 14.8358 10.0508 14.2108 9.37695 13.4588C8.70312 12.6971 8.0293 11.9842 7.88281 11.8768C7.61914 11.6815 7.47266 11.6717 4.70898 11.6424C2.84375 11.6229 1.76953 11.574 1.69141 11.5057C1.51562 11.3592 1.50586 3.81038 1.68164 3.63459C1.76953 3.5467 3.22461 3.51741 7.63867 3.51741C13.3027 3.51741 13.4785 3.52717 13.5762 3.70295Z" fill="black"/>
<path d="M4.05664 5.41992C3.90039 5.56641 3.8125 5.77148 3.8125 5.95703C3.8125 6.14258 3.90039 6.34766 4.05664 6.49414L4.29102 6.73828H7.57227C9.48633 6.73828 10.9316 6.69922 11.0293 6.64062C11.127 6.5918 11.2637 6.41602 11.332 6.25C11.4883 5.87891 11.332 5.44922 10.9805 5.2832C10.8145 5.21484 9.70117 5.17578 7.51367 5.17578H4.29102L4.05664 5.41992Z" fill="black"/>
<path d="M6.59559 8.51562C6.09754 8.79883 6.00965 9.33594 6.40027 9.7168L6.63465 9.96094H8.77332C11.1659 9.96094 11.2733 9.93164 11.3905 9.30664C11.4393 9.04297 11.4003 8.94531 11.1561 8.69141L10.8632 8.39844H8.82215C7.47449 8.4082 6.72254 8.4375 6.59559 8.51562Z" fill="black"/>
<path d="M35.9863 2.13995C35.4883 2.36456 35 2.91144 34.873 3.38995C34.8047 3.62433 34.7656 5.24542 34.7656 7.67706V11.5833L35.0195 12.1009C35.4102 12.8724 35.8594 13.1263 36.8848 13.1751L37.6953 13.2044V14.2982C37.6953 15.2357 37.7246 15.4505 37.9199 15.8216C38.2129 16.388 38.6523 16.6321 39.3359 16.5735C39.9512 16.5345 39.9316 16.5442 41.6309 14.6497L42.9004 13.2337L45.8008 13.1849L48.7109 13.136L49.1309 12.8431C49.3555 12.6771 49.6387 12.3743 49.7461 12.1595C49.9414 11.7884 49.9512 11.6126 49.9805 7.71612C50 4.26886 49.9805 3.60479 49.8535 3.27276C49.668 2.76495 49.2871 2.36456 48.7891 2.13995C48.4082 1.97394 48.0371 1.9544 42.3828 1.9544C36.7773 1.9544 36.3477 1.97394 35.9863 2.13995ZM48.3203 3.63409C48.4961 3.80987 48.4863 11.3587 48.3105 11.5052C48.2324 11.5735 47.1582 11.6224 45.293 11.6419C42.5293 11.6712 42.3828 11.681 42.1191 11.8763C41.9727 11.9837 41.2988 12.6966 40.625 13.4583C39.9512 14.2103 39.375 14.8353 39.3359 14.8353C39.2871 14.845 39.2578 14.3665 39.2578 13.7806C39.2578 12.8431 39.2285 12.6868 39.043 12.4036C38.6426 11.8177 38.3691 11.6907 37.4316 11.6419C36.9531 11.6224 36.5137 11.554 36.4551 11.5052C36.2891 11.3782 36.2695 3.99542 36.4258 3.70245C36.5234 3.52667 36.6992 3.5169 42.3633 3.5169C46.7773 3.5169 48.2324 3.5462 48.3203 3.63409Z" fill="black"/>
<path d="M38.9964 5.29297C38.6741 5.44922 38.5276 5.88867 38.6741 6.25C38.7425 6.41602 38.8792 6.5918 38.9768 6.64062C39.0745 6.69922 40.5198 6.73828 42.4339 6.73828H45.7151L45.9495 6.49414C46.2425 6.21094 46.262 5.77148 46.0081 5.45898L45.8225 5.22461L42.512 5.20508C40.3245 5.19531 39.1429 5.22461 38.9964 5.29297Z" fill="black"/>
<path d="M38.8504 8.69141C38.6062 8.94531 38.5672 9.04297 38.616 9.30664C38.7332 9.93164 38.8406 9.96094 41.2332 9.96094H43.3719L43.6062 9.7168C43.8699 9.46289 43.909 9.21875 43.743 8.85742C43.5574 8.44727 43.284 8.39844 41.1551 8.39844H39.1433L38.8504 8.69141Z" fill="black"/>
<path d="M28.4224 12.9491C26.186 13.5448 24.4673 15.2733 23.9204 17.4803C23.7349 18.2323 23.7642 19.7362 23.9692 20.4588C24.2817 21.5233 24.7895 22.3534 25.6294 23.1932C26.8794 24.4335 28.1392 24.951 29.8872 24.9413C31.8208 24.9413 33.4712 24.1503 34.6138 22.6854C35.5024 21.5526 35.9419 20.3026 35.9419 18.8475C35.9419 17.1678 35.3755 15.8202 34.145 14.5995C33.2368 13.701 32.5044 13.2713 31.3911 12.9881C30.4927 12.7538 29.2036 12.744 28.4224 12.9491ZM31.186 14.5506C33.022 15.1171 34.2427 16.6893 34.3599 18.6327C34.4966 20.9764 32.8755 22.9686 30.5122 23.3592C28.1392 23.7596 25.7954 22.0213 25.3852 19.5702C25.0239 17.3338 26.4692 15.1171 28.7153 14.4921C29.3989 14.2967 30.4634 14.326 31.186 14.5506Z" fill="black"/>
<path d="M9.49336 18.8483C6.32929 19.4245 4.03437 21.9733 3.83906 25.1472C3.70234 27.3444 4.7082 29.5808 6.41718 30.8796L7.02265 31.3288L6.28047 31.4948C5.40156 31.6901 4.3957 32.0905 3.63398 32.5398C2.91133 32.9597 1.50508 34.3659 1.08515 35.0886C0.196482 36.6023 0.0695286 37.6081 0.118357 42.6862C0.147654 46.114 0.157419 46.2507 0.362497 46.6315C0.606638 47.0905 1.08515 47.5593 1.56367 47.8132C1.88593 47.989 2.33515 47.9987 10.3918 48.028C19.8156 48.0573 19.4055 48.0769 20.1965 47.4128C20.8703 46.8269 20.9973 46.4362 20.9973 44.8933V43.5554L31.9641 43.5358C42.7844 43.5065 42.9211 43.5065 43.2629 43.3112C43.8879 42.9401 43.9953 42.6081 43.9953 41.114C43.9953 39.9714 43.966 39.7468 43.8 39.4538C43.507 38.9558 42.8918 38.6726 42.0812 38.6726H41.4172L41.3879 35.5671C41.3488 33.0183 41.3195 32.3737 41.173 31.8952C40.9387 31.0554 40.5969 30.2546 40.2258 29.6198C39.8254 28.9655 38.6437 27.6765 37.9894 27.198C37.2863 26.6804 36.0852 26.114 35.1574 25.8601C34.3469 25.6355 34.2297 25.6355 29.8352 25.6355C25.4992 25.6452 25.3137 25.6452 24.5617 25.8601C21.4562 26.7194 19.1125 29.1804 18.4973 32.2273L18.3215 33.0769L17.6184 32.6179C16.8664 32.1296 15.675 31.6511 14.718 31.446L14.1613 31.3386L14.7375 30.8991C15.8312 30.0788 16.7883 28.6433 17.1398 27.2956C17.5598 25.6648 17.3937 24.1315 16.632 22.5593C15.8117 20.8601 14.1027 19.4636 12.3156 18.9948C11.5441 18.7995 10.1867 18.7312 9.49336 18.8483ZM11.6516 20.4597C13.0578 20.7526 14.4348 21.7487 15.1184 22.9694C16.3098 25.0593 15.8801 27.7644 14.1223 29.3757C12.0324 31.28 8.92695 31.2116 6.925 29.2097C4.85468 27.1394 4.85468 23.9362 6.925 21.8855C8.21406 20.5964 9.90351 20.0886 11.6516 20.4597ZM27.8918 27.5593C27.8625 27.7937 27.7258 29.2487 27.5793 30.8015C27.3742 33.0476 27.3449 33.6726 27.4426 33.8776C27.7648 34.6003 29.259 37.1394 29.4348 37.2663C29.6789 37.4323 30.0891 37.4421 30.3039 37.2761C30.4406 37.1784 32.1984 34.1804 32.3449 33.78C32.3742 33.6921 32.2766 32.2858 32.1203 30.655C31.9641 29.0241 31.8371 27.5593 31.8371 27.403V27.1198L33.0383 27.1784C34.4152 27.2468 35.1281 27.403 36.0852 27.8815C37.4621 28.5554 38.4484 29.5612 39.1711 31.0066C39.7668 32.2175 39.8449 32.7448 39.8449 35.9089V38.6726H37.8918H35.9387V36.4265V34.1706L35.6945 33.9362C35.4113 33.6433 34.9719 33.6237 34.6594 33.8776C34.425 34.0632 34.425 34.0827 34.3957 36.3679L34.3664 38.6726H29.8254H25.2941V36.4069C25.2941 34.2194 25.2844 34.1413 25.0793 33.9167C24.8547 33.6823 24.4348 33.6237 24.1223 33.7898C23.8 33.9655 23.7316 34.4343 23.7316 36.5827V38.6726H22.3742H21.0266L20.968 37.862C20.9094 36.9733 20.5871 35.9577 20.0988 35.1276C19.8059 34.6296 19.8059 34.6003 19.8644 33.7116C19.9523 32.53 20.1281 31.8659 20.6262 30.8601C20.9484 30.196 21.2023 29.864 21.8762 29.1901C22.5793 28.4773 22.8625 28.2722 23.634 27.9011C24.1418 27.6569 24.8059 27.4128 25.0988 27.3542C25.3918 27.2956 25.7238 27.2273 25.8312 27.2077C25.9387 27.1882 26.4562 27.1687 26.9934 27.1589L27.9504 27.1491L27.8918 27.5593ZM30.5187 30.2644L30.8019 33.3308L30.3723 34.1511C30.1281 34.5905 29.9035 34.9616 29.8644 34.9616C29.8254 34.9616 29.6008 34.6003 29.3566 34.1511L28.9172 33.3405L29.2004 30.2741C29.3664 28.5847 29.4934 27.1882 29.4934 27.1687C29.4934 27.1491 29.6594 27.1491 29.8644 27.1687L30.2258 27.198L30.5187 30.2644ZM14.9426 33.0964C16.1535 33.4577 16.9543 33.9362 17.8234 34.8151C18.2531 35.2448 18.7316 35.821 18.8684 36.0944C19.4055 37.1003 19.4348 37.3835 19.4348 41.8073C19.4348 44.0534 19.4055 45.9577 19.3762 46.0456C19.2004 46.4851 19.259 46.4851 10.5773 46.4851C2.71601 46.4851 2.38398 46.4753 2.09101 46.2995C1.88593 46.1726 1.76875 46.0065 1.71992 45.8015C1.62226 45.2937 1.65156 38.7898 1.75898 37.8913C2.00312 35.8894 3.41914 34.1999 5.58711 33.3308C6.71015 32.8718 7.29609 32.823 10.8898 32.8523C14.0051 32.8718 14.259 32.8913 14.9426 33.0964ZM42.4328 41.114V41.944H31.7394H21.0461L21.0168 41.2214C20.9973 40.821 21.007 40.4401 21.0363 40.362C21.0852 40.2546 22.882 40.2351 31.759 40.2546L42.4328 40.2839V41.114Z" fill="black"/>
</g>
<defs>
<clipPath id="clip0_892_511">
<rect width="50" height="50" fill="white"/>
</clipPath>
</defs>
</svg>
