<svg width="512" height="512" viewBox="0 0 512 512" fill="none" xmlns="http://www.w3.org/2000/svg">
<path d="M71.8088 46.1152C72.4607 46.1125 73.1125 46.1098 73.7841 46.107C75.961 46.1 78.1376 46.105 80.3145 46.11C81.894 46.1074 83.4734 46.1041 85.0528 46.1002C89.3876 46.0915 93.7223 46.0934 98.0571 46.097C102.734 46.099 107.411 46.0914 112.088 46.0851C121.249 46.0744 130.41 46.0729 139.571 46.0748C147.016 46.0763 154.462 46.0749 161.908 46.0713C162.967 46.0708 164.027 46.0703 165.118 46.0697C167.271 46.0687 169.423 46.0677 171.575 46.0667C186.028 46.0601 200.48 46.0568 214.932 46.0602C215.498 46.0603 216.063 46.0605 216.645 46.0606C219.508 46.0613 222.372 46.062 225.236 46.0627C225.804 46.0629 226.373 46.063 226.959 46.0631C228.109 46.0634 229.259 46.0637 230.409 46.064C248.305 46.0685 266.2 46.0619 284.096 46.0463C304.207 46.0288 324.319 46.0198 344.431 46.0232C355.077 46.0248 365.724 46.0227 376.37 46.0107C385.434 46.0007 394.497 45.9995 403.56 46.0097C408.184 46.0147 412.808 46.0156 417.432 46.0055C421.666 45.9964 425.9 45.9989 430.135 46.0108C431.665 46.013 433.195 46.011 434.725 46.0043C445.74 45.9591 455.261 46.5036 464.005 53.9215C465.997 56.0251 467.625 58.1569 469.066 60.6696C469.48 61.3855 469.48 61.3855 469.903 62.1159C472.937 68.0145 472.916 73.4936 472.874 80.026C472.879 81.2118 472.884 82.3976 472.892 83.5834C472.907 86.8263 472.902 90.069 472.893 93.3119C472.887 96.8155 472.901 100.319 472.912 103.823C472.93 110.681 472.93 117.538 472.923 124.396C472.918 129.973 472.919 135.549 472.924 141.125C472.925 141.919 472.926 142.714 472.927 143.532C472.928 145.146 472.93 146.76 472.931 148.374C472.945 163.501 472.938 178.629 472.924 193.756C472.911 207.585 472.924 221.413 472.948 235.241C472.973 249.452 472.982 263.662 472.974 277.872C472.973 279.481 472.972 281.09 472.971 282.698C472.971 283.49 472.971 284.281 472.97 285.097C472.968 290.662 472.977 296.227 472.989 301.793C473.004 308.581 473.004 315.369 472.984 322.158C472.975 325.619 472.972 329.079 472.988 332.54C473.002 335.714 472.997 338.887 472.976 342.06C472.97 343.74 472.985 345.421 473 347.101C472.908 356.072 470.821 363.39 464.796 370.188C457.313 377.07 448.304 378.784 438.418 378.777C437.824 378.778 437.23 378.778 436.618 378.779C434.643 378.78 432.668 378.776 430.693 378.771C429.271 378.771 427.849 378.771 426.427 378.772C422.577 378.772 418.728 378.767 414.879 378.761C410.852 378.756 406.825 378.755 402.798 378.754C395.177 378.752 387.557 378.745 379.936 378.736C371.258 378.727 362.58 378.722 353.902 378.718C336.056 378.709 318.209 378.694 300.362 378.675C300.876 381.37 301.399 384.062 301.924 386.755C302.068 387.512 302.213 388.269 302.361 389.048C304.174 398.287 307.101 408.094 315.035 413.892C322.613 418.619 329.627 419.973 338.449 420.156C339.383 420.176 340.316 420.196 341.278 420.217C343.204 420.253 345.131 420.28 347.057 420.296C354.132 420.473 359.552 421.582 365.102 426.123C370.583 432.822 372.863 438.265 372.061 447C370.601 453.079 367.793 457.605 362.783 461.34C357.219 464.258 352.181 465.207 345.961 465.143C344.76 465.151 344.76 465.151 343.535 465.159C340.876 465.172 338.218 465.161 335.56 465.151C333.644 465.155 331.728 465.161 329.813 465.169C324.626 465.184 319.44 465.178 314.253 465.167C308.818 465.159 303.382 465.167 297.946 465.172C288.235 465.179 278.523 465.168 268.812 465.151C260.02 465.136 251.227 465.139 242.435 465.154C232.207 465.172 221.979 465.179 211.751 465.169C206.343 465.164 200.935 465.163 195.528 465.174C190.443 465.184 185.358 465.177 180.274 465.158C178.411 465.153 176.548 465.154 174.686 465.162C172.136 465.171 169.588 465.159 167.039 465.143C165.942 465.154 165.942 465.154 164.823 465.165C158.092 465.08 152.055 463.199 146.948 458.704C142.171 453.397 140.275 447.114 140.556 440.035C141.543 434.061 144.684 428.865 149.373 425.069C153.712 422.246 157.311 420.768 162.497 420.644C163.433 420.616 164.368 420.588 165.332 420.56C167.281 420.509 169.229 420.46 171.178 420.415C181.956 420.086 191.223 419.319 199.72 412.205C206.56 404.072 209.719 395.923 211.467 385.529C211.581 384.868 211.695 384.207 211.812 383.526C212.09 381.909 212.364 380.293 212.637 378.675C211.533 378.678 211.533 378.678 210.408 378.68C192.49 378.717 174.572 378.745 156.654 378.763C147.988 378.772 139.323 378.783 130.658 378.803C123.104 378.82 115.549 378.83 107.995 378.834C103.996 378.836 99.9983 378.842 96.0001 378.854C92.2324 378.865 88.4647 378.869 84.6969 378.866C83.3185 378.867 81.94 378.87 80.5616 378.877C68.4063 378.931 57.3501 378.305 47.8873 369.766C41.0512 362.195 39.9387 353.669 40.0294 343.814C40.0251 342.625 40.019 341.435 40.0113 340.245C39.9954 337.003 40.0056 333.761 40.0203 330.519C40.0316 327.012 40.0185 323.505 40.0087 319.998C39.9932 313.14 40.0003 306.282 40.0155 299.423C40.0273 293.848 40.0306 288.273 40.0278 282.698C40.0274 281.904 40.0269 281.109 40.0265 280.29C40.0257 278.675 40.0248 277.061 40.0239 275.446C40.0166 261.184 40.0307 246.923 40.0558 232.661C40.0801 218.831 40.0861 205.001 40.0731 191.171C40.0589 176.097 40.0555 161.022 40.0703 145.948C40.0719 144.341 40.0734 142.733 40.0749 141.125C40.0757 140.334 40.0765 139.543 40.0773 138.728C40.082 133.16 40.0792 127.592 40.0736 122.024C40.0671 115.239 40.0728 108.453 40.094 101.667C40.1046 98.207 40.1098 94.7467 40.1003 91.2862C40.0918 88.116 40.099 84.9461 40.1185 81.7759C40.1249 80.0914 40.1148 78.4069 40.1041 76.7225C40.1926 67.1223 43.0433 59.9633 49.838 53.078C56.5767 47.9332 63.4072 46.0628 71.8088 46.1152ZM57.9041 67.0487C56.0226 69.9838 55.6373 72.1869 55.6388 75.5958C55.6371 76.4148 55.6354 77.2337 55.6337 78.0775C55.6362 78.9792 55.6386 79.881 55.6412 80.8101C55.6404 81.7664 55.6397 82.7227 55.639 83.708C55.6376 86.9291 55.6422 90.1502 55.6468 93.3714C55.6475 95.6737 55.647 97.9761 55.6465 100.278C55.646 105.244 55.6487 110.209 55.6534 115.175C55.6603 122.354 55.6625 129.533 55.6635 136.712C55.6654 148.36 55.671 160.007 55.679 171.654C55.6867 182.97 55.6927 194.285 55.6963 205.601C55.6965 206.298 55.6967 206.995 55.6969 207.714C55.698 211.211 55.6991 214.709 55.7001 218.207C55.7089 247.235 55.7238 276.262 55.7426 305.29C60.1964 305.29 64.6501 305.29 69.2389 305.29C69.2424 304.127 69.246 302.964 69.2497 301.766C69.3345 274.185 69.4237 246.603 69.5182 219.022C69.5298 215.629 69.5414 212.237 69.5529 208.844C69.5552 208.169 69.5575 207.493 69.5599 206.798C69.5971 195.852 69.6314 184.906 69.6645 173.96C69.6986 162.735 69.7359 151.509 69.7761 140.283C69.8008 133.353 69.823 126.422 69.8421 119.492C69.8554 114.743 69.8718 109.995 69.8906 105.247C69.9014 102.505 69.9103 99.7626 69.9166 97.0204C69.9235 94.0514 69.9356 91.0825 69.9489 88.1135C69.9497 87.2413 69.9506 86.3691 69.9514 85.4704C69.9583 84.2817 69.9583 84.2817 69.9654 83.0689C69.9688 82.0403 69.9688 82.0403 69.9722 80.9908C70.0824 79.227 70.0824 79.227 70.9259 76.6965C74.4313 75.8519 77.7147 75.7473 81.3153 75.7468C81.9313 75.7456 82.5473 75.7443 83.1819 75.7431C85.252 75.74 87.3221 75.7429 89.3922 75.7458C90.889 75.7449 92.3857 75.7435 93.8825 75.7418C98.0003 75.7383 102.118 75.7401 106.236 75.7427C110.675 75.7446 115.114 75.7416 119.553 75.7393C128.251 75.7356 136.949 75.7364 145.647 75.7388C152.714 75.7407 159.782 75.741 166.849 75.7401C167.854 75.7399 168.859 75.7398 169.894 75.7397C171.935 75.7394 173.976 75.7391 176.018 75.7389C195.17 75.7365 214.322 75.7392 233.474 75.7438C249.916 75.7475 266.359 75.7469 282.802 75.743C301.884 75.7385 320.967 75.7367 340.049 75.7393C342.083 75.7395 344.116 75.7398 346.15 75.7401C347.151 75.7402 348.152 75.7403 349.183 75.7405C356.244 75.7412 363.305 75.74 370.366 75.738C378.968 75.7356 387.57 75.7362 396.172 75.7407C400.563 75.743 404.954 75.7438 409.345 75.741C413.361 75.7385 417.378 75.7399 421.395 75.7444C422.851 75.7453 424.307 75.7449 425.763 75.7428C427.736 75.7403 429.71 75.7429 431.684 75.7468C432.782 75.7469 433.88 75.7471 435.011 75.7472C437.482 75.839 439.676 76.119 442.073 76.6965C442.873 79.0961 443.026 80.5812 443.034 83.0689C443.038 83.8614 443.043 84.6539 443.048 85.4704C443.049 86.7788 443.049 86.7788 443.05 88.1135C443.054 89.0388 443.059 89.9641 443.063 90.9175C443.076 94.0337 443.083 97.1499 443.09 100.266C443.098 102.494 443.106 104.721 443.115 106.949C443.134 111.753 443.149 116.557 443.162 121.36C443.181 128.306 443.205 135.252 443.23 142.197C443.27 153.466 443.307 164.734 443.341 176.002C443.374 186.95 443.409 197.897 443.446 208.844C443.449 209.519 443.451 210.193 443.453 210.888C443.465 214.273 443.476 217.657 443.488 221.041C443.584 249.124 443.674 277.207 443.76 305.29C448.214 305.29 452.668 305.29 457.257 305.29C457.334 275.624 457.393 245.958 457.429 216.293C457.433 212.79 457.437 209.288 457.442 205.786C457.443 205.089 457.444 204.392 457.445 203.673C457.459 192.383 457.486 181.094 457.517 169.804C457.548 158.22 457.567 146.636 457.574 135.052C457.579 127.903 457.593 120.755 457.621 113.607C457.639 108.705 457.644 103.804 457.64 98.9024C457.637 96.0742 457.643 93.2465 457.659 90.4183C457.676 87.3506 457.672 84.2836 457.662 81.2158C457.672 80.3239 457.682 79.432 457.692 78.513C457.649 73.226 457.041 70.0255 453.883 65.7307C449.255 62.1418 445.776 61.3881 440.07 61.3999C439.428 61.398 438.787 61.396 438.125 61.3939C435.957 61.3883 433.79 61.3887 431.622 61.389C430.058 61.3862 428.495 61.3831 426.932 61.3796C422.623 61.3712 418.314 61.368 414.005 61.3658C409.363 61.3625 404.721 61.3544 400.079 61.3471C388.862 61.3304 377.644 61.3219 366.427 61.3144C361.148 61.3107 355.869 61.3062 350.59 61.3018C333.046 61.2874 315.502 61.2752 297.958 61.2691C296.824 61.2687 295.689 61.2683 294.554 61.2679C293.71 61.2676 293.71 61.2676 292.849 61.2673C289.998 61.2662 287.147 61.2652 284.295 61.2642C283.73 61.264 283.164 61.2638 282.581 61.2636C264.235 61.2569 245.888 61.2372 227.542 61.2097C208.148 61.1808 188.754 61.1642 169.361 61.1614C158.788 61.1596 148.215 61.1522 137.642 61.1306C128.639 61.1124 119.636 61.1055 110.633 61.1137C106.038 61.1176 101.444 61.1159 96.849 61.0996C92.6432 61.0848 88.4376 61.0855 84.2318 61.0987C82.7099 61.1007 81.188 61.097 79.6662 61.087C77.597 61.0743 75.5288 61.0824 73.4597 61.0956C72.8691 61.087 72.2786 61.0784 71.6702 61.0695C66.1177 61.147 61.701 63.0571 57.9041 67.0487ZM84.4222 90.1927C84.4222 161.175 84.4222 232.157 84.4222 305.29C197.993 305.29 311.564 305.29 428.577 305.29C428.577 234.308 428.577 163.326 428.577 90.1927C315.006 90.1927 201.435 90.1927 84.4222 90.1927ZM55.7426 320.473C53.0223 349.743 53.0223 349.743 59.1167 359.275C63.8585 363.412 69.5946 363.618 75.5857 363.603C76.2206 363.605 76.8555 363.606 77.5097 363.608C79.6442 363.613 81.7787 363.612 83.9132 363.611C85.4563 363.613 86.9994 363.615 88.5424 363.618C92.7884 363.625 97.0343 363.627 101.28 363.627C105.857 363.629 110.434 363.635 115.011 363.641C125.022 363.652 135.033 363.657 145.043 363.661C151.293 363.663 157.542 363.667 163.791 363.671C181.089 363.681 198.388 363.69 215.687 363.693C217.347 363.693 217.347 363.693 219.042 363.693C220.152 363.693 221.262 363.693 222.405 363.694C224.654 363.694 226.904 363.694 229.153 363.695C229.71 363.695 230.268 363.695 230.843 363.695C248.364 363.698 265.885 363.71 283.406 363.729C303.091 363.751 322.775 363.764 342.459 363.765C352.882 363.765 363.304 363.77 373.727 363.785C382.601 363.798 391.475 363.803 400.349 363.796C404.877 363.793 409.405 363.793 413.933 363.805C418.079 363.816 422.225 363.815 426.371 363.805C427.87 363.803 429.369 363.806 430.868 363.813C443.111 364.145 443.111 364.145 453.83 358.906C462.85 347.698 457.257 337.999 457.257 320.473C324.757 320.473 192.257 320.473 55.7426 320.473ZM227.82 378.675C226.985 383.964 226.15 389.253 225.289 394.702C222.56 404.255 218.986 412.593 213.48 420.851C241.873 420.851 270.266 420.851 299.519 420.851C297.292 416.954 295.065 413.057 292.771 409.042C288.362 399.05 286.718 389.444 285.179 378.675C266.251 378.675 247.322 378.675 227.82 378.675ZM156.965 439.409C155.982 441.858 155.982 441.858 156.121 444.47C157.614 446.787 158.705 448.292 161.182 449.531C163.659 449.619 166.116 449.656 168.594 449.655C169.371 449.658 170.148 449.661 170.948 449.664C173.568 449.674 176.187 449.677 178.806 449.68C180.678 449.685 182.55 449.691 184.421 449.697C189.517 449.712 194.613 449.721 199.709 449.728C202.89 449.732 206.071 449.737 209.253 449.742C218.058 449.756 226.864 449.769 235.669 449.775C237.955 449.777 240.24 449.778 242.526 449.78C243.094 449.78 243.662 449.781 244.247 449.781C253.452 449.788 262.656 449.809 271.86 449.837C281.308 449.865 290.755 449.88 300.202 449.883C305.507 449.885 310.812 449.892 316.118 449.913C321.108 449.933 326.097 449.937 331.087 449.928C332.92 449.928 334.753 449.933 336.586 449.944C339.086 449.959 341.584 449.953 344.084 449.942C345.176 449.956 345.176 449.956 346.291 449.97C349.674 449.934 351.41 449.78 354.36 447.976C356.49 445.662 356.813 444.219 356.878 441.096C355.933 438.261 355.237 437.752 352.661 436.035C350.107 435.867 347.631 435.8 345.078 435.809C344.292 435.805 343.507 435.801 342.698 435.797C340.056 435.787 337.414 435.788 334.772 435.79C332.883 435.784 330.993 435.779 329.103 435.772C323.962 435.757 318.821 435.753 313.68 435.752C309.393 435.751 305.106 435.745 300.819 435.739C291.286 435.726 281.753 435.721 272.22 435.722C271.648 435.722 271.076 435.722 270.486 435.722C269.913 435.722 269.341 435.722 268.75 435.722C259.463 435.723 250.177 435.707 240.89 435.683C231.358 435.659 221.826 435.647 212.294 435.649C206.941 435.649 201.588 435.644 196.235 435.626C191.203 435.61 186.17 435.61 181.137 435.622C179.287 435.624 177.438 435.62 175.588 435.61C173.068 435.597 170.549 435.604 168.029 435.618C166.924 435.604 166.924 435.604 165.796 435.591C161.71 435.638 159.455 435.817 156.965 439.409Z" fill="white"/>
<path d="M143.582 103.578C144.295 103.575 145.009 103.572 145.744 103.568C146.92 103.569 146.92 103.569 148.12 103.571C148.953 103.568 149.785 103.566 150.643 103.563C153.447 103.556 156.25 103.554 159.053 103.553C161.058 103.549 163.063 103.545 165.067 103.54C170.522 103.529 175.977 103.524 181.432 103.52C184.837 103.518 188.243 103.514 191.648 103.51C201.075 103.5 210.503 103.491 219.93 103.489C220.533 103.488 221.137 103.488 221.758 103.488C222.665 103.488 222.665 103.488 223.591 103.487C224.817 103.487 226.042 103.487 227.268 103.486C228.18 103.486 228.18 103.486 229.11 103.486C238.963 103.482 248.817 103.468 258.67 103.448C268.785 103.428 278.899 103.418 289.013 103.417C294.693 103.416 300.373 103.411 306.053 103.396C311.393 103.382 316.734 103.38 322.075 103.387C324.037 103.388 326 103.384 327.962 103.376C330.637 103.365 333.311 103.37 335.986 103.379C336.766 103.372 337.546 103.365 338.35 103.358C343.474 103.398 346.409 104.185 350.13 107.907C350.338 109.748 350.338 109.748 350.333 112.08C350.336 113.404 350.336 113.404 350.34 114.754C350.334 115.726 350.328 116.698 350.321 117.7C350.322 118.72 350.322 119.741 350.322 120.792C350.321 123.594 350.313 126.396 350.301 129.199C350.291 132.126 350.289 135.053 350.287 137.98C350.282 143.524 350.268 149.069 350.251 154.613C350.233 160.925 350.223 167.236 350.215 173.548C350.197 186.533 350.168 199.518 350.13 212.503C350.651 212.617 351.172 212.732 351.708 212.85C352.392 213.002 353.075 213.153 353.779 213.308C354.457 213.458 355.134 213.608 355.832 213.762C359.387 214.567 362.872 215.588 366.368 216.615C367.103 216.82 367.838 217.026 368.595 217.238C372.638 218.427 375.778 219.544 378.81 222.625C379.87 225.674 379.892 227.105 378.661 230.098C376.988 232.979 375.144 234.977 372.747 237.281C371.987 238.018 371.227 238.755 370.444 239.515C369.864 240.065 369.284 240.615 368.687 241.182C371.324 244.364 373.983 247.379 376.981 250.224C377.532 250.749 378.082 251.274 378.65 251.815C379.784 252.889 380.927 253.954 382.077 255.011C384.759 257.594 386.236 259.208 387.36 262.824C387.142 268.165 383.55 271.27 379.913 274.857C379.453 275.317 378.992 275.777 378.518 276.251C377.549 277.217 376.579 278.181 375.606 279.143C374.115 280.619 372.631 282.102 371.147 283.585C370.203 284.525 369.259 285.464 368.315 286.403C367.87 286.846 367.426 287.29 366.968 287.747C364.361 290.32 362.958 291.63 359.303 292.215C354.526 291.599 352.602 289.236 349.286 285.889C348.269 284.881 347.251 283.874 346.232 282.867C343.296 279.955 340.383 277.022 337.477 274.079C334.463 275.482 332.717 277.099 330.465 279.562C327.225 282.866 325.242 284.599 320.607 285.045C317.123 284.253 315.767 282.92 313.859 279.984C312.952 277.628 312.952 277.628 312.135 274.946C311.839 273.979 311.543 273.012 311.238 272.015C310.937 271.009 310.636 270.002 310.327 268.966C310.016 267.956 309.706 266.946 309.386 265.906C307.111 258.405 307.111 258.405 307.111 255.522C305.805 255.527 305.805 255.527 304.472 255.531C283.304 255.606 262.135 255.662 240.967 255.697C230.73 255.714 220.493 255.738 210.257 255.777C201.336 255.81 192.416 255.832 183.495 255.839C178.77 255.844 174.045 255.854 169.32 255.879C164.875 255.902 160.43 255.909 155.985 255.904C154.352 255.905 152.718 255.911 151.085 255.924C148.858 255.941 146.633 255.937 144.406 255.928C143.756 255.938 143.106 255.947 142.437 255.958C139.543 255.925 137.87 255.745 135.502 254.02C133.043 250.511 133.239 247.396 133.233 243.177C133.231 242.615 133.23 242.054 133.228 241.476C133.222 239.596 133.223 237.716 133.224 235.836C133.221 234.488 133.218 233.14 133.215 231.792C133.208 228.13 133.206 224.468 133.205 220.807C133.204 217.75 133.201 214.694 133.198 211.638C133.191 204.428 133.189 197.218 133.19 190.008C133.19 182.568 133.181 175.129 133.168 167.69C133.157 161.303 133.153 154.917 133.153 148.53C133.153 144.716 133.151 140.901 133.142 137.087C133.134 133.5 133.134 129.913 133.14 126.325C133.141 125.009 133.139 123.693 133.134 122.377C133.127 120.579 133.131 118.782 133.138 116.985C133.137 115.979 133.137 114.974 133.136 113.937C133.398 110.62 134.126 108.168 136.246 105.587C138.555 103.739 140.743 103.583 143.582 103.578ZM148.529 118.872C148.529 125.831 148.529 132.79 148.529 139.96C210.047 139.96 271.565 139.96 334.947 139.96C334.947 133.001 334.947 126.042 334.947 118.872C273.429 118.872 211.911 118.872 148.529 118.872ZM148.529 155.144C148.529 183.258 148.529 211.372 148.529 240.339C199.191 240.339 249.853 240.339 302.05 240.339C300.999 235.611 299.974 231.266 298.507 226.707C298.162 225.61 297.818 224.512 297.474 223.414C296.942 221.722 296.405 220.032 295.858 218.345C292.003 206.423 292.003 206.423 293.614 200.693C295.354 198.954 295.354 198.954 297.832 198.163C302.53 198.543 306.761 199.509 311.239 200.934C311.842 201.12 312.444 201.306 313.064 201.498C314.965 202.085 316.864 202.68 318.762 203.277C320.675 203.875 322.589 204.472 324.504 205.065C325.69 205.432 326.875 205.803 328.058 206.177C330.458 206.922 332.417 207.442 334.947 207.442C334.947 190.183 334.947 172.925 334.947 155.144C273.429 155.144 211.911 155.144 148.529 155.144ZM311.328 216.72C313.311 225.222 315.777 233.569 318.282 241.929C318.979 244.263 319.669 246.599 320.358 248.935C320.802 250.422 321.246 251.908 321.691 253.393C321.896 254.091 322.1 254.789 322.311 255.507C323.379 259.228 323.379 259.228 325.668 262.27C326.057 261.844 326.447 261.418 326.848 260.978C329.818 258.02 332.247 255.901 336.528 255.522C342.292 255.971 345.492 259.975 349.286 263.957C350.148 264.817 351.012 265.673 351.88 266.527C354.128 268.745 356.351 270.984 358.565 273.236C361.776 270.53 364.93 267.831 367.844 264.801C366.651 262.081 365.221 260.3 363.099 258.234C362.503 257.647 361.907 257.061 361.293 256.456C360.671 255.852 360.049 255.248 359.409 254.626C358.177 253.423 356.946 252.218 355.718 251.011C354.9 250.215 354.9 250.215 354.064 249.403C351.071 246.263 350.474 244.04 350.522 239.858C351.357 236.067 354.119 233.643 356.878 231.06C354.942 229.124 353.755 228.796 351.155 228.02C350.316 227.767 349.477 227.514 348.613 227.253C347.704 226.985 346.796 226.717 345.86 226.44C344.93 226.162 344 225.884 343.042 225.597C341.075 225.008 339.106 224.423 337.137 223.84C334.114 222.944 331.093 222.041 328.073 221.136C326.165 220.566 324.256 219.997 322.347 219.429C321.438 219.157 320.53 218.886 319.593 218.606C318.755 218.358 317.916 218.11 317.052 217.855C316.311 217.635 315.571 217.416 314.808 217.189C313.052 216.649 313.052 216.649 311.328 216.72Z" fill="white"/>
<path d="M174.569 182.844C175.155 182.839 175.741 182.835 176.345 182.831C178.283 182.818 180.22 182.813 182.158 182.808C183.506 182.803 184.854 182.798 186.202 182.794C189.028 182.785 191.855 182.78 194.681 182.777C198.299 182.772 201.917 182.752 205.536 182.728C208.32 182.712 211.105 182.708 213.889 182.706C215.223 182.704 216.557 182.697 217.891 182.686C219.758 182.672 221.625 182.673 223.493 182.679C224.555 182.676 225.617 182.673 226.711 182.669C229.73 183.004 231.303 183.718 233.724 185.51C236.17 188.603 235.654 192.531 235.636 196.291C235.637 197.009 235.639 197.726 235.64 198.465C235.642 199.98 235.639 201.494 235.631 203.008C235.622 205.324 235.631 207.64 235.642 209.955C235.641 211.428 235.639 212.901 235.636 214.374C235.639 215.066 235.642 215.757 235.646 216.47C235.595 222.637 235.595 222.637 233.724 225.155C230.715 227.161 228.564 227.097 225.089 227.101C224.16 227.111 224.16 227.111 223.213 227.122C221.166 227.142 219.119 227.15 217.072 227.155C215.648 227.163 214.224 227.171 212.801 227.178C209.816 227.192 206.83 227.199 203.845 227.201C200.022 227.206 196.2 227.238 192.378 227.276C189.437 227.301 186.496 227.307 183.555 227.308C182.146 227.312 180.737 227.322 179.328 227.34C177.355 227.362 175.383 227.358 173.41 227.348C172.83 227.36 172.25 227.373 171.652 227.386C168.498 227.338 167.139 226.883 164.616 224.932C162.865 222.619 162.34 221.768 162.337 218.947C162.321 217.9 162.321 217.9 162.305 216.832C162.316 216.089 162.327 215.347 162.339 214.582C162.337 213.809 162.335 213.037 162.332 212.241C162.333 210.613 162.345 208.984 162.366 207.356C162.395 204.863 162.383 202.373 162.367 199.881C162.372 198.297 162.381 196.712 162.391 195.128C162.387 194.384 162.383 193.639 162.379 192.873C162.477 187.732 162.477 187.732 164.428 185.067C167.771 182.776 170.615 182.865 174.569 182.844ZM178.052 198.163C178.052 202.616 178.052 207.07 178.052 211.659C191.97 211.659 205.888 211.659 220.228 211.659C220.228 207.205 220.228 202.751 220.228 198.163C206.31 198.163 192.392 198.163 178.052 198.163Z" fill="white"/>
<path d="M238.318 333.641C239.216 333.633 240.114 333.625 241.039 333.617C242.481 333.625 242.481 333.625 243.952 333.633C244.947 333.63 245.942 333.628 246.968 333.625C249.069 333.624 251.171 333.628 253.272 333.639C256.488 333.652 259.703 333.639 262.918 333.623C264.961 333.624 267.004 333.628 269.047 333.633C270.008 333.628 270.97 333.622 271.96 333.617C272.858 333.625 273.756 333.633 274.681 333.641C275.468 333.643 276.255 333.645 277.066 333.647C280.607 334.163 282.82 335.719 285.126 338.397C286.39 341.668 285.635 343.432 284.336 346.622C283.303 348.043 283.303 348.043 281.805 349.152C279.602 349.479 279.602 349.479 276.925 349.493C275.923 349.504 274.921 349.514 273.888 349.525C272.805 349.523 271.722 349.52 270.605 349.518C269.494 349.522 268.382 349.527 267.236 349.531C264.883 349.539 262.53 349.537 260.176 349.528C257.163 349.519 254.15 349.536 251.137 349.56C248.26 349.58 245.383 349.574 242.506 349.571C240.883 349.585 240.883 349.585 239.228 349.599C238.223 349.591 237.218 349.583 236.183 349.575C235.299 349.575 234.415 349.575 233.504 349.575C230.599 349.043 229.622 348.074 227.82 345.778C226.868 342.796 226.711 341.352 227.925 338.45C230.845 334.849 233.74 333.653 238.318 333.641Z" fill="white"/>
</svg>
