<?xml version="1.0" encoding="UTF-8"?>
<svg version="1.1" xmlns="http://www.w3.org/2000/svg" width="512" height="512">
<path d="M0 0 C1.23588867 0.00563965 2.47177734 0.0112793 3.74511719 0.01708984 C28.58744741 0.34645127 52.5478243 8.75172917 71.3125 25.3125 C72.14265625 26.01117188 72.9728125 26.70984375 73.828125 27.4296875 C95.169848 45.82546714 107.95061994 72.31984747 110.3125 100.3125 C112.05663251 129.19587728 103.79838794 156.91929294 85.3125 179.3125 C84.70019531 180.08851563 84.08789062 180.86453125 83.45703125 181.6640625 C74.23821993 192.78953629 62.01936553 200.71817879 49.3125 207.3125 C47.92804688 208.03566406 47.92804688 208.03566406 46.515625 208.7734375 C38.756059 212.56139132 29.01449464 216.3125 20.3125 216.3125 C20.40337891 216.8701001 20.49425781 217.4277002 20.58789062 218.00219727 C24.01173352 239.36829379 22.86792943 258.04317366 19.3125 279.3125 C19.92780075 279.4915387 20.5431015 279.67057739 21.17704773 279.8550415 C27.58890045 281.72322551 33.99582412 283.60763092 40.40014648 285.50146484 C42.78987407 286.20582267 45.18082148 286.90605571 47.57299805 287.60205078 C51.01420981 288.60404017 54.45074066 289.62085363 57.88671875 290.640625 C59.48854256 291.10181732 59.48854256 291.10181732 61.12272644 291.57232666 C70.6240969 294.42094486 70.6240969 294.42094486 74.3125 298.3125 C75.53345876 301.82275643 75.50922395 303.68109922 74.4050293 307.22509766 C71.38667594 311.67849826 67.72263591 312.87171245 62.83203125 314.8359375 C61.44004768 315.42249619 61.44004768 315.42249619 60.01994324 316.02090454 C57.06246452 317.26206645 54.09431819 318.47497434 51.125 319.6875 C49.11446709 320.52550526 47.10469098 321.36532869 45.09570312 322.20703125 C40.17654621 324.26334344 35.24834464 326.29659835 30.3125 328.3125 C30.08674064 330.62418878 30.08674064 330.62418878 32.57568359 332.77099609 C33.61604821 333.79744932 34.66152106 334.81874042 35.7109375 335.8359375 C36.26109528 336.37852203 36.81125305 336.92110657 37.37808228 337.48013306 C39.73817366 339.80746107 42.10974643 342.12296302 44.48046875 344.43945312 C46.20722555 346.12999759 47.92793271 347.82653437 49.6484375 349.5234375 C50.45322037 350.30332535 50.45322037 350.30332535 51.27426147 351.09896851 C55.03621882 354.81125605 56.97653888 357.3713913 57.875 362.5625 C57.04445178 368.09948812 54.20663671 370.44931827 50.3125 374.3125 C49.2112845 375.43656513 48.11110653 376.56164721 47.01171875 377.6875 C41.59824337 383.19603913 36.17073152 388.63164284 30.23828125 393.5859375 C26.89674183 396.58180043 23.91729791 399.95247302 20.90234375 403.2734375 C17.46798778 405.97741008 15.6979711 406.58166119 11.3125 406.3125 C8.21271291 404.42771318 5.83664119 401.89723367 3.3125 399.3125 C2.42304688 398.43996582 1.53359375 397.56743164 0.6171875 396.66845703 C-2.34392609 393.76309109 -5.26682281 390.82092114 -8.1875 387.875 C-9.21070139 386.8467702 -10.23413733 385.81877374 -11.2578125 384.79101562 C-13.73707999 382.30085662 -16.21317538 379.80757167 -18.6875 377.3125 C-20.26079079 379.67243619 -21.31791982 381.5975709 -22.39575195 384.16967773 C-22.71981522 384.9373497 -23.04387848 385.70502167 -23.37776184 386.49595642 C-23.72360825 387.32100174 -24.06945465 388.14604706 -24.42578125 388.99609375 C-25.17056668 390.74572264 -25.91603063 392.49506284 -26.66210938 394.24414062 C-27.8337171 396.99770118 -29.00113936 399.75272086 -30.15698242 402.51293945 C-31.2756362 405.17954499 -32.41167642 407.83817201 -33.55078125 410.49609375 C-33.89055496 411.31911484 -34.23032867 412.14213593 -34.58039856 412.99009705 C-36.56949014 417.58724549 -38.26510677 420.61034617 -42.6875 423.3125 C-45.6875 423.875 -45.6875 423.875 -48.6875 423.3125 C-53.80884472 419.29113937 -55.19567636 414.96321032 -56.94921875 408.953125 C-57.22594925 408.04931091 -57.50267975 407.14549683 -57.78779602 406.21429443 C-58.66507008 403.33462692 -59.51986023 400.44880768 -60.375 397.5625 C-60.96021183 395.63760174 -61.54678724 393.71311749 -62.13476562 391.7890625 C-64.59628281 383.66915381 -66.93079099 375.61808231 -68.6875 367.3125 C-69.30753906 367.50585938 -69.92757813 367.69921875 -70.56640625 367.8984375 C-100.99530382 376.84550782 -133.59735241 372.50322641 -161.6875 358.3125 C-162.46480469 357.92449219 -163.24210938 357.53648437 -164.04296875 357.13671875 C-164.58566406 356.86472656 -165.12835938 356.59273438 -165.6875 356.3125 C-165.65269531 357.42625 -165.61789063 358.54 -165.58203125 359.6875 C-165.03490822 384.85238221 -172.12827407 406.91942716 -188.6875 426.3125 C-189.32429687 427.14136719 -189.96109375 427.97023438 -190.6171875 428.82421875 C-203.2155265 443.965996 -224.92571938 454.64981321 -244.38183594 457.1015625 C-271.12501195 459.5482063 -295.66410879 453.99210356 -317.0625 437.3125 C-318.62060065 435.99840859 -320.16334751 434.66581928 -321.6875 433.3125 C-322.37199219 432.71050781 -323.05648437 432.10851562 -323.76171875 431.48828125 C-339.9128947 416.35250339 -350.11247254 393.97514953 -351.02734375 371.953125 C-351.68599414 343.10132893 -343.23690448 318.81659208 -323.24609375 297.73828125 C-305.22502348 280.72662843 -281.32319303 271.62878831 -256.609375 271.90136719 C-246.6352547 272.23631899 -237.23613073 274.52546311 -227.6875 277.3125 C-227.89246094 276.36890625 -228.09742188 275.4253125 -228.30859375 274.453125 C-229.99805982 266.40188956 -231.32027541 258.55210167 -231.6875 250.3125 C-231.72875 249.46945312 -231.77 248.62640625 -231.8125 247.7578125 C-232.56535949 216.7964658 -221.87139847 184.22210845 -200.625 161.375 C-199.12007845 159.80656365 -197.60154618 158.25417428 -196.06884766 156.71289062 C-194.82625373 155.45316656 -193.61960933 154.1582223 -192.41796875 152.859375 C-171.87687154 131.06065959 -141.0574545 119.52374881 -111.5546875 118.390625 C-110.60851562 118.36484375 -109.66234375 118.3390625 -108.6875 118.3125 C-108.71106567 117.43851563 -108.71106567 117.43851563 -108.73510742 116.546875 C-109.53117529 82.36634077 -99.65454763 55.14138672 -76 30.25 C-55.51079875 10.32906627 -28.44026954 -0.13587352 0 0 Z M-69.2265625 47.578125 C-85.25752822 65.39030914 -93.41354879 89.34456919 -92.99609375 113.1640625 C-91.60710451 136.87485799 -82.00361046 157.25474816 -65.6875 174.3125 C-64.76710938 175.34503906 -64.76710938 175.34503906 -63.828125 176.3984375 C-48.60551198 192.85707466 -25.03092477 201.16351625 -3.1328125 202.53515625 C21.32551534 203.12980904 45.06019947 195.05219487 63.1875 178.4375 C82.83454472 159.66431332 93.10892234 136.91478501 94.26953125 109.85058594 C94.70124212 84.35020977 83.47780668 60.97828437 66.1875 42.6875 C48.85713266 25.93722864 25.5395133 16.36594267 1.40722656 16.2734375 C-26.19321479 16.78813105 -50.01096547 27.64676075 -69.2265625 47.578125 Z M-188.3515625 172.12109375 C-208.20944716 194.77629653 -216.2164463 223.61877418 -214.90332031 253.32470703 C-214.33680634 261.16746488 -212.74380737 268.73726259 -210.6875 276.3125 C-210.34847656 277.58222656 -210.00945312 278.85195313 -209.66015625 280.16015625 C-207.34631883 287.33222881 -204.48163508 290.96616082 -198.375 295.30078125 C-187.82887512 303.19504624 -181.10094528 314.48560945 -175.3125 326.0625 C-167.8872404 339.91535216 -150.97036643 346.84687142 -136.46875 351.28125 C-117.30424914 356.50793205 -95.97588716 358.0725937 -76.6875 352.3125 C-76.0275 351.6525 -75.3675 350.9925 -74.6875 350.3125 C-76.9975 342.7225 -79.3075 335.1325 -81.6875 327.3125 C-84.03875 327.6425 -86.39 327.9725 -88.8125 328.3125 C-114.17781023 331.54946859 -137.12656429 326.71148685 -157.6875 311.3125 C-176.03600128 296.73746942 -186.43892655 276.4040441 -189.4375 253.375 C-189.54155631 252.02226792 -189.6260154 250.66783444 -189.6875 249.3125 C-189.72746094 248.64863281 -189.76742187 247.98476563 -189.80859375 247.30078125 C-190.52301515 224.56537073 -181.96929097 202.980972 -166.6875 186.3125 C-147.75465348 166.55216893 -123.04846644 160.98918911 -96.6875 160.3125 C-98.68135939 154.26651722 -100.74547924 148.24946466 -102.875 142.25 C-103.14763672 141.47978516 -103.42027344 140.70957031 -103.70117188 139.91601562 C-104.36254826 138.04791742 -105.02491657 136.18017043 -105.6875 134.3125 C-137.86993719 133.49937991 -166.70626783 149.30149424 -188.3515625 172.12109375 Z M-155.6875 198.3125 C-170.39835436 214.99332963 -174.97209066 233.4969954 -173.6875 255.3125 C-171.89957537 271.74016397 -163.31668855 285.09679371 -151.6875 296.3125 C-151.05457031 296.97636719 -150.42164063 297.64023437 -149.76953125 298.32421875 C-136.75113172 311.11271277 -118.99261567 314.53515295 -101.51513672 314.64257812 C-96.19625585 314.58598425 -91.71916043 314.05449554 -86.6875 312.3125 C-88.59822224 304.14850499 -90.92272439 296.2278982 -93.6875 288.3125 C-95.00363281 288.35890625 -96.31976563 288.4053125 -97.67578125 288.453125 C-116.19935541 288.91502435 -116.19935541 288.91502435 -124.6875 284.3125 C-125.863125 283.67634766 -125.863125 283.67634766 -127.0625 283.02734375 C-137.28719092 276.82689773 -144.33377564 267.54634171 -147.296875 255.921875 C-149.25231663 242.85952489 -147.51513389 230.51084671 -140.0625 219.4375 C-132.43112221 209.74663763 -121.99266065 204.17189181 -109.8125 202.4375 C-97.48866176 201.63419735 -86.23306909 204.98105279 -76.6015625 212.6171875 C-68.43655339 219.84905271 -62.86146366 228.32540423 -61.6875 239.3125 C-61.47525339 244.97867847 -61.57037907 250.64514829 -61.6875 256.3125 C-58.06399379 257.48384222 -54.43846001 258.64877802 -50.8125 259.8125 C-49.77996094 260.14636719 -48.74742187 260.48023438 -47.68359375 260.82421875 C-46.69746094 261.14003906 -45.71132813 261.45585937 -44.6953125 261.78125 C-43.78410645 262.07451172 -42.87290039 262.36777344 -41.93408203 262.66992188 C-39.7564637 263.4041657 -39.7564637 263.4041657 -37.6875 263.3125 C-32.98607665 245.05323208 -35.16130743 226.51807657 -44.58203125 210.046875 C-47.47775645 206.28619293 -50.54301439 204.64302338 -54.80078125 202.6796875 C-63.71377814 198.45837639 -70.95689126 191.43931626 -78.05859375 184.73046875 C-99.3313835 165.16455961 -138.39085009 180.29372356 -155.6875 198.3125 Z M-24.6875 215.3125 C-24.0275 217.58125 -23.3675 219.85 -22.6875 222.1875 C-18.86812504 237.01363279 -19.89201515 253.2249416 -21.6875 268.3125 C-18.06399379 269.48384222 -14.43846001 270.64877802 -10.8125 271.8125 C-9.77996094 272.14636719 -8.74742187 272.48023438 -7.68359375 272.82421875 C-6.20439453 273.29794922 -6.20439453 273.29794922 -4.6953125 273.78125 C-3.78410645 274.07451172 -2.87290039 274.36777344 -1.93408203 274.66992188 C0.2435363 275.4041657 0.2435363 275.4041657 2.3125 275.3125 C2.79475331 273.1256784 3.27315583 270.93800745 3.75 268.75 C4.01683594 267.53183594 4.28367187 266.31367188 4.55859375 265.05859375 C7.67579232 249.56950863 7.32637146 233.35411437 2.3125 218.3125 C-11.0525 216.8275 -11.0525 216.8275 -24.6875 215.3125 Z M-126.8125 228.8125 C-131.73653118 236.03680853 -132.57867831 242.66807037 -131.6875 251.3125 C-129.81560238 258.2044867 -125.76101143 264.76945397 -119.62890625 268.59765625 C-114.48467337 271.23112593 -110.33123998 272.43770151 -104.5 272.375 C-103.41332031 272.36597656 -102.32664062 272.35695313 -101.20703125 272.34765625 C-99.95986328 272.33025391 -99.95986328 272.33025391 -98.6875 272.3125 C-98.98785156 271.3225 -99.28820312 270.3325 -99.59765625 269.3125 C-103.50707248 255.94094259 -103.50707248 255.94094259 -101.6875 249.3125 C-99.6875 247.3125 -99.6875 247.3125 -95.875 246.9375 C-89.50746607 247.04154467 -83.65050347 249.24802894 -77.6875 251.3125 C-77.06460345 242.48121108 -77.37316446 235.63418746 -82.6875 228.3125 C-87.9962205 222.32462549 -93.54042779 219.02899585 -101.4375 217.9296875 C-111.62164202 217.31969983 -120.30677209 220.85207516 -126.8125 228.8125 Z M-82.6875 266.3125 C-80.99471121 274.792982 -78.4346683 282.97606396 -75.8828125 291.2265625 C-75.40179044 292.79084586 -74.92107923 294.35522483 -74.44065857 295.91969299 C-73.16435945 300.07290767 -71.88384465 304.22481099 -70.60246658 308.37646103 C-69.28576927 312.64513922 -67.97301867 316.91503063 -66.65991211 321.18481445 C-64.35844149 328.6665995 -62.0538842 336.14742877 -59.74775791 343.62777996 C-57.66071094 350.3980188 -55.5775327 357.16944096 -53.49609375 363.94140625 C-50.8961706 372.39934537 -48.29367034 380.85648359 -45.6875 389.3125 C-45.0275 389.3125 -44.3675 389.3125 -43.6875 389.3125 C-43.28958252 388.35883545 -42.89166504 387.4051709 -42.48168945 386.42260742 C-40.99724415 382.87670765 -39.49213395 379.33989567 -37.98071289 375.80541992 C-37.33020629 374.2762355 -36.68528303 372.74466315 -36.04614258 371.21069336 C-35.12488121 369.00238619 -34.18368838 366.80352817 -33.23828125 364.60546875 C-32.95785477 363.92099167 -32.67742828 363.23651459 -32.38850403 362.53129578 C-31.06859879 359.51136761 -29.85170787 357.4537157 -27.34057617 355.29418945 C-23.7854599 353.97872773 -22.28425705 354.03575446 -18.6875 355.3125 C-15.97992385 357.36578288 -13.67228835 359.74563614 -11.3203125 362.19140625 C-10.64072479 362.8780687 -9.96113708 363.56473114 -9.26095581 364.27220154 C-7.09942571 366.46165336 -4.95595609 368.66786501 -2.8125 370.875 C-1.34751295 372.36507245 0.11862055 373.85401868 1.5859375 375.34179688 C5.17487771 378.98577742 8.74772174 382.64488552 12.3125 386.3125 C16.24338136 382.99650925 20.08965018 379.66110835 23.71484375 376.0078125 C24.45927734 375.26015625 25.20371094 374.5125 25.97070312 373.7421875 C26.72287109 372.98164063 27.47503906 372.22109375 28.25 371.4375 C29.41885742 370.261875 29.41885742 370.261875 30.61132812 369.0625 C32.51404085 367.14811419 34.41436171 365.23141966 36.3125 363.3125 C35.03620463 360.51173613 33.72117105 358.47665401 31.53100586 356.31982422 C30.97380356 355.76600067 30.41660126 355.21217712 29.84251404 354.64157104 C29.24350784 354.05602448 28.64450165 353.47047791 28.02734375 352.8671875 C27.41105606 352.25610138 26.79476837 351.64501526 26.1598053 351.01541138 C24.19456676 349.06795618 22.22276236 347.12733091 20.25 345.1875 C18.27455725 343.23966399 16.30058649 341.29039254 14.32948303 339.33816528 C13.10356939 338.12452071 11.87499271 336.91355915 10.64353943 335.70553589 C5.44947828 330.57270019 5.44947828 330.57270019 5 326.4375 C5.39634194 322.47408055 6.28648534 321.82992032 9.3125 319.3125 C11.69726742 318.05553913 14.02031186 316.92974512 16.484375 315.859375 C17.1667926 315.55429016 17.84921021 315.24920532 18.55230713 314.93487549 C20.71863889 313.96874574 22.89036 313.01548852 25.0625 312.0625 C26.53813547 311.40709377 28.01340034 310.75085248 29.48828125 310.09375 C33.09213611 308.49030188 36.70087699 306.89836886 40.3125 305.3125 C40.3125 304.6525 40.3125 303.9925 40.3125 303.3125 C-11.20113264 287.43285589 -11.20113264 287.43285589 -62.8125 271.875 C-63.79944855 271.58091248 -64.78639709 271.28682495 -65.80325317 270.98382568 C-68.51668457 270.17601877 -71.23078385 269.37051731 -73.9453125 268.56640625 C-74.73015518 268.33318161 -75.51499786 268.09995697 -76.32362366 267.85966492 C-79.45429522 266.77912955 -79.45429522 266.77912955 -82.6875 266.3125 Z M-292.6875 296.3125 C-293.67105469 296.80492187 -294.65460938 297.29734375 -295.66796875 297.8046875 C-313.87422398 307.64972591 -326.16466854 323.72234744 -332.68359375 343.3046875 C-338.47821133 364.20967151 -335.2251379 384.80277507 -325.09863281 403.73095703 C-315.23269925 421.08339312 -297.71975997 433.83192761 -278.625 439.25 C-256.24359725 444.72745837 -235.04369452 440.05435847 -215.56640625 428.24609375 C-198.80697803 416.98976137 -188.44137053 399.69366445 -183.6875 380.3125 C-180.14878937 360.017643 -184.00908152 340.23438781 -194.96484375 322.75 C-198.15487839 318.23620949 -201.81685316 314.24787338 -205.6875 310.3125 C-206.72003906 309.260625 -206.72003906 309.260625 -207.7734375 308.1875 C-220.16914899 296.39083776 -237.49611072 288.83240089 -254.6875 288.3125 C-255.326875 288.26222656 -255.96625 288.21195312 -256.625 288.16015625 C-268.91977529 287.57801727 -281.7927276 290.79730401 -292.6875 296.3125 Z " fill="#000000" transform="translate(376.6875,25.6875)"/>
<path d="M0 0 C9.15691856 8.16888882 14.35418965 19.91168705 15.21484375 32.0234375 C15.57733261 44.23206241 12.95727547 53.96297058 6 64 C5.38125 64.9075 4.7625 65.815 4.125 66.75 C-4.40149627 75.77805488 -15.68267471 81.3276157 -28.03125 82.21875 C-40.17350616 82.5656716 -50.06093255 80.0300721 -60 73 C-60.95519531 72.33871094 -60.95519531 72.33871094 -61.9296875 71.6640625 C-70.92101392 64.75073152 -75.95081206 53.93708592 -78 43 C-79.33712468 29.02222246 -76.65297338 16.35121239 -68 5 C-49.91227159 -14.89968011 -21.02509006 -16.43534328 0 0 Z M-56.53125 17.94921875 C-60.89377922 24.40424019 -62.67474583 31.17294841 -62 39 C-60.09168178 48.76609912 -55.45107238 56.03303811 -47.26171875 61.7421875 C-40.01520376 65.77220102 -32.03537365 67.14997292 -24 65 C-14.37770955 61.35352998 -8.26778431 56.88043811 -3.6875 47.6875 C-0.15564733 38.9172272 -0.30362968 30.7183355 -4 22 C-8.52640009 14.21948525 -15.29536555 8.11761666 -24.0625 5.625 C-37.25358181 3.53117749 -48.15105798 7.28157635 -56.53125 17.94921875 Z " fill="#000000" transform="translate(220,46)"/>
<path d="M0 0 C4.09134968 0.85236452 5.42217583 2.36493761 8 5.625 C8.36771245 8.4637401 8.48630804 10.64320151 8.3125 13.4375 C8.28994141 14.13037109 8.26738281 14.82324219 8.24414062 15.53710938 C8.18562661 17.23401573 8.0959548 18.92979861 8 20.625 C9.18078125 20.56699219 10.3615625 20.50898437 11.578125 20.44921875 C13.13537711 20.40231357 14.69267201 20.35681421 16.25 20.3125 C17.02730469 20.27060547 17.80460937 20.22871094 18.60546875 20.18554688 C24.39063962 20.06193211 24.39063962 20.06193211 27.51953125 22.953125 C29.31261858 26.18919818 29.54332504 27.97696045 29 31.625 C27.22015595 34.7609157 26.47691793 35.46602736 23 36.625 C20.84833576 36.74108277 18.69361199 36.80352261 16.5390625 36.8359375 C14.62480469 36.87847656 14.62480469 36.87847656 12.671875 36.921875 C10.64876699 36.96308283 8.62589785 36.99998829 6.60253906 37.02636719 C4.64365378 37.05409177 2.68507087 37.10105423 0.7265625 37.1484375 C-1.02793213 37.1781665 -1.02793213 37.1781665 -2.81787109 37.20849609 C-6.89072718 37.7415859 -9.76352102 39.03524131 -12.3125 42.3125 C-13.34543797 45.78692773 -13.55898754 49.06587678 -13 52.625 C-11.06419415 56.18688275 -9.68753556 57.34437324 -5.9375 58.875 C-2.85856672 59.60525982 0.15862472 59.76376958 3.3125 59.9375 C11.305008 60.59531959 17.48074046 63.60853005 22.9375 69.5 C28.35294832 76.31709377 30.52197073 83.51319729 29.78515625 92.140625 C28.40269723 100.72503723 24.59514597 106.92861303 17.84765625 112.37109375 C15.03441613 114.28029054 12.18726265 115.45416882 9 116.625 C8.96132813 118.17960937 8.96132813 118.17960937 8.921875 119.765625 C8.86558049 121.13545801 8.80823345 122.50524805 8.75 123.875 C8.73582031 124.55691406 8.72164063 125.23882812 8.70703125 125.94140625 C8.5414478 129.35242532 8.23900241 131.31384592 6.13671875 134.05078125 C3.33873846 136.11218172 1.46954545 136.55419295 -2 136.625 C-6.56521739 134.49456522 -6.56521739 134.49456522 -8 131.625 C-8.0716735 129.07342345 -8.09308442 126.55027029 -8.0625 124 C-8.05798828 123.29359375 -8.05347656 122.5871875 -8.04882812 121.859375 C-8.03703875 120.11454725 -8.01910324 118.369763 -8 116.625 C-9.16917969 116.67140625 -10.33835937 116.7178125 -11.54296875 116.765625 C-13.0911202 116.80315594 -14.63929939 116.83955469 -16.1875 116.875 C-16.95642578 116.90851563 -17.72535156 116.94203125 -18.51757812 116.9765625 C-22.48064092 117.04459791 -24.5117637 116.91960332 -27.984375 114.82421875 C-30.78353468 111.77009685 -31.07204358 109.73148419 -31 105.625 C-28.91374661 102.19758371 -27.8255689 100.90018963 -24 99.625 C-21.77488546 99.53203165 -19.54735057 99.49327722 -17.3203125 99.484375 C-15.98566001 99.4660476 -14.65102411 99.44647734 -13.31640625 99.42578125 C-11.22058019 99.39682931 -9.12582415 99.37500019 -7.02978516 99.37451172 C-5.00067128 99.37116571 -2.97399999 99.33656405 -0.9453125 99.296875 C0.87202393 99.28285645 0.87202393 99.28285645 2.72607422 99.26855469 C6.87627746 98.45275038 8.34858314 96.84270939 11 93.625 C12.87934042 89.86631916 12.28604066 85.79516635 11.3125 81.8125 C9.54936209 78.87393682 8.26515611 78.63937517 5 77.625 C3.0100697 77.40725687 1.0189377 77.19373186 -0.97729492 77.04443359 C-10.21362459 76.3363796 -17.1188976 74.57911034 -23.828125 67.76953125 C-29.04472781 61.42604094 -31.65430999 54.09395796 -31.26953125 45.87109375 C-30.17387187 36.74059892 -25.89964333 30.65812611 -19 24.625 C-15.573684 22.55858616 -12.07253585 20.625 -8 20.625 C-8.05800781 19.60019531 -8.11601562 18.57539062 -8.17578125 17.51953125 C-8.22269957 16.15889989 -8.26819752 14.79821904 -8.3125 13.4375 C-8.35439453 12.76396484 -8.39628906 12.09042969 -8.43945312 11.39648438 C-8.53581607 7.44560348 -8.1466151 5.81041775 -5.66796875 2.67578125 C-3 0.625 -3 0.625 0 0 Z " fill="#000000" transform="translate(378,66.375)"/>
<path d="M0 0 C2.4107226 2.33917147 2.96569729 3.64691081 3.29296875 7.015625 C3.25816406 8.08296875 3.22335938 9.1503125 3.1875 10.25 C3.14689453 11.86648438 3.14689453 11.86648438 3.10546875 13.515625 C3.07066406 14.33546875 3.03585938 15.1553125 3 16 C3.88042969 15.94199219 4.76085937 15.88398438 5.66796875 15.82421875 C15.08599701 15.4583686 15.08599701 15.4583686 19.375 18 C21.26508728 21.48939191 21.31460517 23.29990061 20.78515625 27.1328125 C19.69542366 29.72431587 18.39006169 30.53689296 16 32 C13.31445312 32.41650391 13.31445312 32.41650391 10.28125 32.4765625 C9.18425781 32.5075 8.08726562 32.5384375 6.95703125 32.5703125 C5.81621094 32.58835937 4.67539063 32.60640625 3.5 32.625 C1.23949904 32.67608477 -1.02092707 32.73062877 -3.28125 32.7890625 C-4.78268555 32.81540771 -4.78268555 32.81540771 -6.31445312 32.84228516 C-8.7363047 32.98451389 -10.74408116 33.10783966 -13 34 C-14.19754817 37.59264452 -14.33094958 40.22717474 -14 44 C-11.65430353 47.33271681 -10.19881672 47.95658492 -6.171875 48.8359375 C-4.69897747 49.0241226 -3.22492955 49.20346691 -1.75 49.375 C7.1396791 50.68462347 12.25911098 53.29729824 17.875 60.4375 C21.5388739 66.06284174 22.92395892 72.34029612 22 79 C20.09571066 87.01335177 15.92800108 92.52542257 9 97 C6.21484375 97.71484375 6.21484375 97.71484375 4 98 C4.04640625 98.80824219 4.0928125 99.61648438 4.140625 100.44921875 C4.43162233 109.06481828 4.43162233 109.06481828 2.5 113.25 C-0.51651356 115.36155949 -2.39453746 115.55936433 -6 115.56640625 C-8.96082992 114.72788996 -10.16457762 113.4485834 -12 111 C-12.390625 107.984375 -12.390625 107.984375 -12.25 104.75 C-12.21390625 103.67234375 -12.1778125 102.5946875 -12.140625 101.484375 C-12.09421875 100.66453125 -12.0478125 99.8446875 -12 99 C-12.95261719 99.04640625 -13.90523437 99.0928125 -14.88671875 99.140625 C-16.14097656 99.17671875 -17.39523438 99.2128125 -18.6875 99.25 C-19.92886719 99.29640625 -21.17023438 99.3428125 -22.44921875 99.390625 C-26.59631712 98.93439856 -28.17979698 98.03224836 -31 95 C-31.62890625 93 -31.62890625 93 -31.5625 91 C-31.56378906 90.34 -31.56507812 89.68 -31.56640625 89 C-30.74148797 86.08718511 -29.33121676 84.90243678 -27 83 C-24.23852539 82.51757812 -24.23852539 82.51757812 -21.09765625 82.53125 C-19.39125977 82.50998047 -19.39125977 82.50998047 -17.65039062 82.48828125 C-15.26236975 82.49608099 -12.87434892 82.50389345 -10.48632812 82.51171875 C-9.34744141 82.49753906 -8.20855469 82.48335938 -7.03515625 82.46875 C-5.47873413 82.47551758 -5.47873413 82.47551758 -3.89086914 82.48242188 C-0.2757365 81.8791365 1.3968648 80.52839841 4 78 C4.85917455 75.05506618 4.3985621 73.13867651 4 70 C2.18836733 67.32568511 1.12238923 67.04079641 -2 66 C-3.70686804 65.87408351 -5.41561705 65.77272565 -7.125 65.6875 C-14.83601015 64.99574711 -20.50851204 62.96452379 -25.875 57.25 C-30.45919809 51.49582096 -32.64996987 45.75968846 -32.34375 38.359375 C-31.1682642 30.29126789 -27.53593745 23.88161303 -21 19 C-18.67968665 17.73601608 -16.50896241 16.87045635 -14 16 C-13.97421875 15.26394531 -13.9484375 14.52789062 -13.921875 13.76953125 C-13.35146444 3.95587676 -13.35146444 3.95587676 -9 0 C-5.8168485 -1.59157575 -3.38676935 -0.77242108 0 0 Z " fill="#000000" transform="translate(123,333)"/>
<path d="M0 0 C4.84381866 3.61195269 7.9315955 7.56374927 10.75 12.875 C11.08902344 13.47699219 11.42804688 14.07898438 11.77734375 14.69921875 C15.39236104 22.3790481 14.9601213 32.80636982 12.625 40.8125 C8.96556355 49.90979062 1.88831943 57.27939574 -7.0625 61.1875 C-16.64984391 64.64879183 -26.49984088 64.88493937 -35.921875 60.68359375 C-45.08316826 55.58935947 -51.57539827 48.09625901 -54.83203125 38.0859375 C-57.01926458 26.51608645 -55.11402771 16.31542121 -48.5625 6.625 C-36.49138236 -8.38807344 -15.71757006 -10.11085477 0 0 Z M-32.25 13.875 C-36.69802034 18.43707214 -38.5441466 22.39492267 -38.625 28.75 C-38.52331319 33.98051534 -37.90763243 36.92860711 -34.25 40.875 C-29.3227012 45.58359363 -25.4193966 47.26542823 -18.66015625 47.14453125 C-13.76562388 46.59716864 -10.00082327 44.79960226 -6.67578125 41.14453125 C-2.92598655 35.76158814 -1.48509533 30.23336305 -2.625 23.73828125 C-4.28400987 18.29465512 -7.46109992 14.864375 -12.25 11.875 C-20.03384105 8.97255079 -25.22250611 9.87592889 -32.25 13.875 Z " fill="#000000" transform="translate(102.25,176.125)"/>
<path d="M0 0 C6.96599237 7.44229954 10.1874028 16.33473461 10.0390625 26.421875 C9.25672655 36.50531617 4.73062914 43.73990773 -2.609375 50.453125 C-10.11216301 56.54810511 -18.73882933 57.88208711 -28.171875 57.140625 C-38.0534979 55.38190479 -45.39053926 50.33085063 -51.171875 42.140625 C-55.80612425 34.29684503 -57.14887431 25.49868282 -55.609375 16.515625 C-53.35032053 8.2173649 -48.39984464 0.83659713 -41.171875 -3.859375 C-27.50455699 -11.40917234 -12.04040765 -10.30797489 0 0 Z M-37.171875 15.140625 C-39.70022373 19.43438215 -39.81516224 23.26648708 -39.171875 28.140625 C-37.50224536 33.45596492 -34.10122623 36.57689295 -29.31640625 39.2578125 C-25.15651327 40.97026389 -21.55111029 41.05161529 -17.25390625 39.40625 C-12.61204375 36.99129382 -9.49785335 33.7925817 -7.171875 29.140625 C-6.40729594 23.39176475 -6.32881478 18.51347446 -9.734375 13.640625 C-13.42898494 9.38833809 -17.0638455 7.60682942 -22.671875 6.765625 C-28.89430468 7.69898945 -33.13420655 10.41078481 -37.171875 15.140625 Z " fill="#000000" transform="translate(284.171875,429.859375)"/>
</svg>
