<svg width="65" height="65" viewBox="0 0 65 65" fill="none" xmlns="http://www.w3.org/2000/svg">
<path d="M44.0549 33.739V30.5405H40.695C40.489 29.5394 40.0915 28.5875 39.5243 27.7372L41.9072 25.3543L39.6459 23.0931L37.2631 25.4759C36.4127 24.9087 35.4608 24.5112 34.4597 24.3052V20.9453H31.2612V24.3052C30.2601 24.5112 29.3082 24.9087 28.4579 25.4759L26.075 23.0931L23.8138 25.3543L26.1966 27.7372C25.6294 28.5875 25.2319 29.5394 25.0259 30.5405H21.666V33.739H25.0259C25.2339 34.7577 25.64 35.7044 26.1966 36.5424L23.8138 38.9252L26.075 41.1865L28.4579 38.8036C29.3082 39.3708 30.2601 39.7683 31.2612 39.9743V43.3342H34.4597V39.9743C35.4608 39.7683 36.4127 39.3708 37.2631 38.8036L39.6459 41.1865L41.9072 38.9252L39.5243 36.5424C40.0915 35.692 40.489 34.7401 40.695 33.739H44.0549ZM32.8605 36.9374C30.2154 36.9374 28.0628 34.7848 28.0628 32.1398C28.0628 29.4947 30.2154 27.3421 32.8605 27.3421C35.5055 27.3421 37.6581 29.4947 37.6581 32.1398C37.6581 34.7848 35.5055 36.9374 32.8605 36.9374Z" stroke="#024D81" stroke-width="2"/>
<path d="M19.3922 45.6094H12.2422V52.7594" stroke="#024D81" stroke-width="2" stroke-linecap="round" stroke-linejoin="round"/>
<path d="M52.7574 52.7594H45.6074V45.6094" stroke="#024D81" stroke-width="2" stroke-linecap="round" stroke-linejoin="round"/>
<path d="M45.6074 19.3922H52.7574V12.2422" stroke="#024D81" stroke-width="2" stroke-linecap="round" stroke-linejoin="round"/>
<path d="M12.2422 12.2422H19.3922V19.3922" stroke="#024D81" stroke-width="2" stroke-linecap="round" stroke-linejoin="round"/>
<path d="M19.391 12.5938C12.9295 16.8569 8.66602 24.1813 8.66602 32.5017C8.66602 33.7167 8.75694 34.9105 8.93237 36.0767" stroke="#024D81" stroke-width="2" stroke-linecap="round" stroke-linejoin="round"/>
<path d="M36.0747 56.0681C34.9085 56.2434 33.7148 56.3344 32.4997 56.3344C24.1794 56.3344 16.8549 52.0709 12.5918 45.6094" stroke="#024D81" stroke-width="2" stroke-linecap="round" stroke-linejoin="round"/>
<path d="M56.0661 28.9258C56.2415 30.092 56.3324 31.2857 56.3324 32.5008C56.3324 40.8211 52.0689 48.1456 45.6074 52.4088" stroke="#024D81" stroke-width="2" stroke-linecap="round" stroke-linejoin="round"/>
<path d="M28.9258 8.93432C30.092 8.7589 31.2857 8.66797 32.5008 8.66797C40.8211 8.66797 48.1456 12.9315 52.4088 19.393" stroke="#024D81" stroke-width="2" stroke-linecap="round" stroke-linejoin="round"/>
</svg>
