<svg width="44" height="44" viewBox="0 0 44 44" fill="none" xmlns="http://www.w3.org/2000/svg">
<path d="M42.0039 22C42.0039 33.0457 33.0496 42 22.0039 42C15.8708 42 10.3815 39.2379 6.71464 34.894L8.50564 33.3822C11.7462 37.2211 16.5901 39.6562 22.0039 39.6562C31.7552 39.6562 39.6601 31.7513 39.6601 22H42.0039ZM22.0039 2C28.0552 2 33.4797 4.68891 37.1455 8.93307L35.3718 10.465C32.1323 6.71436 27.3456 4.34376 22.0039 4.34376C12.2526 4.34376 4.34767 12.2487 4.34767 22H2.00391C2.00391 10.9543 10.9582 2 22.0039 2Z" fill="black"/>
<path d="M7.38347 32.0901C7.38345 31.2508 6.70295 30.5703 5.86357 30.5703C5.02421 30.5703 4.34377 31.2508 4.34376 32.0901C4.34376 32.9295 5.0242 33.61 5.86357 33.61C6.70296 33.61 7.38347 32.9295 7.38347 32.0901ZM9.72715 32.0901C9.72715 34.2239 7.99738 35.9537 5.86357 35.9537C3.72978 35.9537 2 34.2239 2 32.0901C2.00001 29.9564 3.72979 28.2266 5.86357 28.2266C7.99737 28.2266 9.72714 29.9563 9.72715 32.0901Z" fill="black"/>
<path d="M39.696 11.5901C39.696 10.7508 39.0155 10.0703 38.1761 10.0703C37.3367 10.0703 36.6563 10.7508 36.6563 11.5901C36.6563 12.4295 37.3367 13.11 38.1761 13.11C39.0155 13.11 39.696 12.4295 39.696 11.5901ZM42.0396 11.5901C42.0396 13.7239 40.3099 15.4537 38.1761 15.4537C36.0423 15.4537 34.3125 13.7239 34.3125 11.5901C34.3125 9.45635 36.0423 7.72657 38.1761 7.72656C40.3099 7.72656 42.0396 9.45635 42.0396 11.5901Z" fill="black"/>
<path d="M31.4091 16.5672V27.428L22.0035 32.8585L12.5977 27.428V16.5672L22.0035 11.1367L31.4091 16.5672ZM14.9414 17.9203V26.0748L22.0034 30.1521L29.0654 26.0748V17.9203L22.0034 13.843L14.9414 17.9203Z" fill="black"/>
<path d="M30.8233 18.2602L23.1753 22.6758V31.5069H20.8316V22.6758L13.1836 18.2602L14.3555 16.2305L22.0034 20.646L29.6513 16.2305L30.8233 18.2602Z" fill="black"/>
</svg>
