<svg width="512" height="512" viewBox="0 0 512 512" fill="none" xmlns="http://www.w3.org/2000/svg">
<path d="M239.788 16.0002C243.953 17.8555 247.78 20.1823 251.663 22.5627C252.811 23.2481 253.959 23.9317 255.109 24.6135C257.493 26.0296 259.872 27.4536 262.248 28.8835C267.717 32.1654 273.256 35.3261 278.788 38.5002C280.955 39.7496 283.122 40.9996 285.288 42.2502C286.897 43.1783 286.897 43.1783 288.538 44.1252C317.788 61.0002 347.038 77.8752 376.288 94.7502C377.361 95.3691 378.434 95.988 379.539 96.6257C381.703 97.8739 383.866 99.1223 386.03 100.371C391.494 103.524 396.96 106.675 402.429 109.821C408.888 113.537 415.341 117.264 421.788 121C422.864 121.623 423.94 122.246 425.049 122.888C428.153 124.69 431.253 126.5 434.351 128.313C435.292 128.858 436.232 129.404 437.202 129.966C438.057 130.468 438.911 130.971 439.792 131.488C440.543 131.927 441.294 132.366 442.068 132.818C443.788 134 443.788 134 444.788 136C444.841 138.023 444.825 140.048 444.778 142.071C444.739 144.015 444.739 144.015 444.699 145.998C444.674 147.052 444.674 147.052 444.649 148.127C444.559 151.976 444.487 155.826 444.413 159.675C444.389 160.909 444.389 160.909 444.364 162.168C444.144 173.668 444.059 185.17 443.966 196.671C443.887 206.023 443.762 215.37 443.53 224.719C443.327 232.887 443.216 241.051 443.208 249.222C443.2 253.538 443.151 257.844 442.991 262.157C442.429 277.922 441.995 291.417 453.158 303.591C457.914 308.473 463.057 312.869 468.422 317.064C470.941 319.125 471.617 319.951 472.132 323.102C472.554 329.916 472.554 329.916 470.191 333.262C468.226 335.313 468.226 335.313 466.222 337.113C464.471 338.972 464.471 338.972 465.074 341.731C465.31 342.48 465.545 343.229 465.788 344C466.441 343.965 467.093 343.931 467.765 343.895C473.196 343.727 477.19 343.747 481.788 347C485.316 351.445 485.227 355.417 485.187 360.844C485.19 361.691 485.193 362.537 485.196 363.41C485.198 365.195 485.192 366.98 485.18 368.765C485.164 371.491 485.179 374.216 485.199 376.942C485.197 378.68 485.193 380.418 485.187 382.156C485.193 382.968 485.199 383.78 485.205 384.616C485.148 389.245 484.743 392.221 481.788 396C477.207 400.134 473.666 400.384 467.765 400.141C467.113 400.094 466.46 400.048 465.788 400C464.977 402.312 464.977 402.312 464.788 405C466.2 406.98 466.2 406.98 468.226 408.688C471.099 411.757 472.397 413.763 472.663 418C472.276 421.834 471.49 423.839 468.878 426.66C468.246 427.346 467.614 428.032 466.963 428.739C462.847 433.019 458.684 437.248 454.476 441.438C453.57 442.347 452.665 443.257 451.732 444.194C450.435 445.488 450.435 445.488 449.113 446.809C448.33 447.591 447.547 448.372 446.74 449.178C443.326 452.366 440.616 452.333 436.105 452.289C431.699 451.739 428.902 448.923 425.601 446.188C425.003 445.796 424.405 445.404 423.788 445C422.798 445.33 421.808 445.66 420.788 446C420.714 446.881 420.639 447.761 420.562 448.668C419.354 459.337 419.354 459.337 415.788 462.25C411.129 464.968 407.813 465.189 402.492 465.238C401.665 465.247 400.839 465.255 399.987 465.263C398.236 465.277 396.484 465.287 394.732 465.295C392.063 465.313 389.395 465.356 386.726 465.401C385.023 465.411 383.32 465.419 381.617 465.426C380.823 465.443 380.029 465.461 379.211 465.479C373.942 465.459 370.966 464.492 366.788 461C363.593 456.262 363.147 451.563 362.788 446C360.953 445.237 360.953 445.237 358.788 445C357.107 446.151 357.107 446.151 355.726 447.875C352.685 451.344 350.689 451.926 345.976 452.313C340.456 452.242 337.312 449.443 333.413 445.75C332.877 445.173 332.341 444.595 331.788 444C325.607 445.629 320.478 448.943 315.038 452.188C312.875 453.464 310.711 454.74 308.546 456.016C307.43 456.675 306.314 457.335 305.164 458.014C299.767 461.189 294.341 464.314 288.913 467.438C286.749 468.685 284.585 469.932 282.421 471.18C279.038 473.129 275.655 475.077 272.272 477.025C269.915 478.381 267.558 479.739 265.202 481.096C262.998 482.366 260.794 483.634 258.59 484.902C257.583 485.482 256.576 486.063 255.538 486.66C254.084 487.492 254.084 487.492 252.601 488.341C250.741 489.438 248.906 490.58 247.101 491.765C238.974 497.057 238.974 497.057 233.96 496.618C228.8 495.15 224.33 492.155 219.788 489.375C218.636 488.687 217.482 488.001 216.328 487.317C213.958 485.909 211.594 484.493 209.234 483.07C204.119 479.989 198.951 476.999 193.788 474C191.804 472.842 189.82 471.683 187.835 470.524C171.905 461.232 155.906 452.061 139.886 442.924C130.801 437.74 121.75 432.498 112.721 427.216C105.466 422.974 98.1947 418.76 90.9135 414.563C89.836 413.941 88.7585 413.32 87.6483 412.68C82.1471 409.509 76.6441 406.342 71.14 403.176C60.5245 397.067 49.9185 390.942 39.351 384.75C37.9651 383.945 37.9651 383.945 36.5512 383.123C35.7026 382.623 34.8541 382.124 33.9799 381.61C33.2394 381.176 32.4989 380.743 31.736 380.296C29.7586 378.98 28.313 377.822 26.7885 376C26.409 374.094 26.409 374.094 26.4026 371.897C26.3929 371.058 26.3832 370.219 26.3732 369.355C26.3779 368.433 26.3825 367.511 26.3873 366.562C26.3805 365.583 26.3737 364.604 26.3667 363.595C26.3477 360.299 26.3502 357.004 26.3527 353.708C26.3437 351.351 26.3335 348.994 26.3221 346.637C26.2956 340.224 26.2886 333.811 26.2867 327.398C26.2852 323.394 26.2784 319.39 26.2702 315.387C26.2438 302.149 26.2299 288.911 26.2322 275.673C26.2323 274.959 26.2324 274.245 26.2326 273.509C26.2327 272.795 26.2328 272.08 26.2329 271.344C26.2341 259.759 26.2054 248.175 26.1631 236.59C26.1201 224.699 26.0993 212.808 26.1019 200.917C26.1029 194.239 26.0941 187.562 26.0624 180.884C26.0334 174.605 26.0331 168.326 26.0549 162.047C26.0581 159.74 26.0509 157.433 26.0329 155.126C26.0098 151.981 26.0236 148.838 26.0468 145.693C26.0313 144.775 26.0159 143.858 26 142.913C26.0986 136.883 26.0985 136.883 28.0728 134.357C31.2684 131.632 35.002 129.555 38.6557 127.504C40.3362 126.554 40.3362 126.554 42.0507 125.584C42.639 125.255 43.2273 124.926 43.8335 124.587C46.344 123.182 48.8469 121.764 51.3503 120.346C52.6345 119.619 53.919 118.893 55.2039 118.167C61.1392 114.812 67.0312 111.385 72.9135 107.938C84.4166 101.207 95.9577 94.5436 107.506 87.8913C112.935 84.7634 118.362 81.6316 123.788 78.5002C125.955 77.2502 128.122 76.0002 130.288 74.7502C131.361 74.1314 132.433 73.5127 133.538 72.8752C169.288 52.2502 169.288 52.2502 172.541 50.374C174.7 49.1281 176.859 47.8822 179.019 46.6362C184.546 43.4467 190.075 40.259 195.605 37.0744C196.725 36.4287 197.846 35.7829 199 35.1176C201.209 33.8452 203.42 32.5748 205.632 31.3066C210.435 28.5461 215.213 25.763 219.917 22.8361C220.687 22.3628 221.456 21.8895 222.249 21.4018C223.631 20.5471 225.004 19.6784 226.365 18.7919C230.793 16.065 234.701 14.7693 239.788 16.0002ZM229.062 33.5353C228.126 34.0896 227.191 34.6438 226.226 35.2148C225.216 35.8246 224.205 36.4344 223.163 37.0627C220.982 38.3577 218.799 39.652 216.617 40.9455C215.488 41.6174 214.359 42.2893 213.197 42.9816C207.796 46.1804 202.355 49.3089 196.913 52.4377C194.728 53.6967 192.544 54.9558 190.359 56.215C189.274 56.8401 188.189 57.4651 187.071 58.1091C181.642 61.237 176.215 64.3688 170.788 67.5002C168.622 68.7502 166.455 70.0002 164.288 71.2502C163.216 71.8689 162.143 72.4877 161.038 73.1252C99.2885 108.75 99.2885 108.75 96.0336 110.628C93.883 111.869 91.7326 113.11 89.5824 114.351C84.5247 117.27 79.4655 120.187 74.4009 123.095C72.0192 124.462 69.6384 125.831 67.2577 127.2C65.5852 128.161 63.9115 129.12 62.2377 130.078C57.3123 132.911 52.4558 135.757 47.7885 139C50.7182 141.288 53.7285 143.2 56.9525 145.047C57.9802 145.638 59.0079 146.228 60.0668 146.837C61.7234 147.784 61.7234 147.784 63.4135 148.75C65.1559 149.75 66.8983 150.75 68.6405 151.75C69.8464 152.442 71.0524 153.134 72.2587 153.826C76.538 156.279 80.8097 158.745 85.0775 161.219C86.2564 161.902 87.4353 162.584 88.6142 163.267C90.8547 164.565 93.0946 165.863 95.3339 167.163C96.3553 167.754 97.3767 168.345 98.4291 168.953C99.7676 169.729 99.7676 169.729 101.133 170.521C102.009 171.009 102.886 171.497 103.788 172C104.778 172.609 105.768 173.217 106.788 173.844C109.707 175.321 109.707 175.321 112.444 174.202C113.336 173.653 114.228 173.105 115.148 172.539C116.167 171.93 117.187 171.321 118.238 170.694C119.327 170.011 120.416 169.328 121.538 168.625C122.694 167.925 123.852 167.228 125.011 166.533C127.419 165.087 129.82 163.63 132.216 162.165C137.679 158.838 143.238 155.678 148.788 152.5C150.953 151.252 153.117 150.004 155.281 148.754C159.639 146.239 163.999 143.727 168.359 141.215C178.811 135.193 189.251 129.153 199.663 123.063C208.933 117.641 218.247 112.298 227.577 106.981C236.687 101.788 245.762 96.5365 254.814 91.2409C262.477 86.7588 270.16 82.3097 277.851 77.8752C278.94 77.2473 280.029 76.6195 281.15 75.9726C286.357 72.9718 291.568 69.9771 296.788 67.0002C296.788 66.3402 296.788 65.6802 296.788 65.0002C295.786 64.4426 295.786 64.4426 294.763 63.8737C272.267 51.3491 272.267 51.3491 262.788 45.7502C262.129 45.3612 261.469 44.9722 260.79 44.5715C257.217 42.4574 253.661 40.3181 250.113 38.1643C249.337 37.6979 248.562 37.2316 247.763 36.7512C246.277 35.857 244.795 34.9556 243.318 34.0461C237.698 30.6759 234.683 30.1651 229.062 33.5353ZM298.913 80.3127C297.767 81.0179 296.619 81.7197 295.468 82.4182C293.08 83.8719 290.701 85.34 288.328 86.819C282.897 90.1873 277.337 93.3316 271.788 96.5002C269.621 97.7491 267.455 98.9991 265.288 100.25C174.288 152.75 174.288 152.75 171.033 154.628C168.883 155.868 166.734 157.109 164.585 158.351C159.521 161.276 154.453 164.195 149.375 167.095C146.983 168.461 144.593 169.83 142.203 171.2C140.52 172.162 138.835 173.12 137.15 174.078C136.127 174.665 135.104 175.251 134.05 175.856C133.153 176.368 132.255 176.88 131.33 177.407C128.641 179.093 126.228 180.974 123.788 183C130.526 187.67 137.503 191.767 144.663 195.75C146.703 196.89 148.742 198.03 150.781 199.172C151.671 199.668 152.562 200.164 153.479 200.675C155.29 201.714 157.051 202.842 158.788 204C162.612 203.663 165.348 202.316 168.613 200.367C169.545 199.816 170.478 199.265 171.438 198.698C172.441 198.096 173.443 197.495 174.476 196.875C176.649 195.589 178.822 194.304 180.995 193.02C182.118 192.354 183.24 191.688 184.396 191.003C189.795 187.815 195.229 184.689 200.663 181.563C202.848 180.304 205.033 179.045 207.218 177.785C208.303 177.16 209.388 176.535 210.506 175.891C215.935 172.763 221.362 169.632 226.788 166.5C228.955 165.25 231.122 164 233.288 162.75C234.361 162.131 235.433 161.513 236.538 160.875C272.288 140.25 272.288 140.25 275.539 138.375C277.704 137.126 279.869 135.877 282.034 134.627C287.475 131.488 292.916 128.35 298.359 125.215C310.246 118.365 322.119 111.491 333.963 104.566C338.891 101.686 343.826 98.8211 348.788 96.0002C345.671 93.5534 342.422 91.5469 338.992 89.5666C337.868 88.9176 336.743 88.2685 335.585 87.5998C335.002 87.2649 334.419 86.93 333.818 86.5849C332.056 85.5727 330.297 84.5553 328.538 83.5373C326.294 82.2448 324.04 80.9693 321.775 79.7128C318.788 78.0002 318.788 78.0002 316.595 76.4145C309.926 71.8977 304.952 76.4225 298.913 80.3127ZM356.16 106.535C355.221 107.09 354.282 107.644 353.314 108.215C352.295 108.825 351.276 109.434 350.226 110.063C348.035 111.358 345.844 112.652 343.652 113.946C342.517 114.617 341.382 115.289 340.213 115.982C334.801 119.171 329.358 122.305 323.913 125.438C321.729 126.697 319.544 127.956 317.359 129.215C316.274 129.84 315.189 130.465 314.071 131.109C308.642 134.237 303.215 137.369 297.788 140.5C295.622 141.75 293.455 143 291.288 144.25C290.216 144.869 289.143 145.488 288.038 146.125C252.288 166.75 252.288 166.75 249.038 168.625C246.873 169.875 244.708 171.124 242.543 172.373C237.102 175.512 231.661 178.65 226.218 181.785C215.355 188.045 204.499 194.317 193.663 200.625C192.686 201.193 191.709 201.761 190.702 202.346C185.337 205.474 180.036 208.679 174.788 212C177.051 214.475 179.341 216.025 182.269 217.645C183.174 218.15 184.08 218.655 185.012 219.176C185.99 219.716 186.968 220.256 187.976 220.813C190.057 221.975 192.138 223.139 194.218 224.305C195.297 224.909 196.375 225.513 197.487 226.136C202.888 229.186 208.246 232.308 213.601 235.438C214.571 236.004 215.541 236.57 216.541 237.154C217.475 237.7 218.409 238.246 219.37 238.809C220.272 239.332 221.174 239.855 222.103 240.394C223.939 241.492 225.748 242.634 227.532 243.813C228.404 244.381 229.277 244.95 230.175 245.535C230.944 246.056 231.714 246.577 232.506 247.114C234.797 248.265 234.797 248.265 237.285 247.313C238.111 246.88 238.937 246.447 239.788 246C240.547 245.605 241.305 245.209 242.087 244.802C242.871 244.357 243.656 243.912 244.464 243.453C245.362 242.946 246.259 242.438 247.184 241.915C248.147 241.365 249.109 240.816 250.101 240.25C251.116 239.674 252.13 239.097 253.176 238.504C262.367 233.27 271.5 227.94 280.628 222.598C290.228 216.983 299.87 211.442 309.506 205.891C314.935 202.763 320.362 199.632 325.788 196.5C327.955 195.25 330.122 194 332.288 192.75C333.361 192.131 334.433 191.513 335.538 190.875C347.455 184 359.372 177.125 371.288 170.25C372.362 169.631 373.437 169.011 374.543 168.372C376.694 167.131 378.845 165.89 380.997 164.649C386.048 161.735 391.099 158.821 396.15 155.906C397.939 154.873 399.728 153.841 401.517 152.809C403.762 151.513 406.007 150.218 408.251 148.922C413.424 145.937 418.6 142.958 423.788 140C420.948 136.931 418.19 134.901 414.527 132.899C413.498 132.331 412.47 131.763 411.411 131.178C410.319 130.583 409.226 129.988 408.101 129.375C405.829 128.121 403.558 126.866 401.288 125.61C399.622 124.688 399.622 124.688 397.921 123.748C393.777 121.436 389.681 119.048 385.601 116.625C384.934 116.231 384.267 115.836 383.58 115.43C382.288 114.665 380.996 113.9 379.704 113.135C379.072 112.76 378.44 112.386 377.788 112C376.788 111.408 376.788 111.408 375.767 110.803C373.82 109.654 371.868 108.513 369.913 107.375C368.247 106.397 368.247 106.397 366.546 105.399C362.118 103.153 360.191 104.134 356.16 106.535ZM40.7885 152C40.4848 180.155 40.2555 208.309 40.1149 236.466C40.0479 249.539 39.9565 262.611 39.8078 275.684C39.6782 287.079 39.5943 298.472 39.5653 309.867C39.5484 315.901 39.5085 321.933 39.414 327.967C39.3257 333.647 39.2985 339.325 39.3181 345.006C39.3145 347.09 39.2887 349.173 39.2388 351.256C38.5643 361.427 38.5643 361.427 42.0307 370.591C45.523 373.651 49.5025 375.268 53.7885 377C55.9651 378.223 58.1279 379.47 60.2689 380.754C62.5035 382.026 64.7392 383.295 66.976 384.563C69.4466 385.968 71.9163 387.375 74.3861 388.781C75.0062 389.134 75.6263 389.487 76.2652 389.851C82.4948 393.398 88.706 396.977 94.9135 400.563C95.9772 401.177 97.0409 401.791 98.1369 402.424C100.282 403.663 102.426 404.902 104.571 406.141C109.975 409.263 115.382 412.382 120.788 415.5C122.955 416.75 125.122 418 127.288 419.25C128.361 419.869 129.433 420.488 130.538 421.125C148.413 431.438 148.413 431.438 166.288 441.75C167.362 442.369 168.435 442.989 169.541 443.627C171.699 444.872 173.857 446.117 176.014 447.362C181.566 450.566 187.119 453.766 192.675 456.961C194.942 458.266 197.209 459.57 199.476 460.875C201.101 461.81 201.101 461.81 202.759 462.764C209.428 466.61 216.062 470.505 222.604 474.564C225.482 476.443 225.482 476.443 228.788 477C229.092 448.845 229.321 420.691 229.462 392.535C229.529 379.461 229.62 366.389 229.769 353.316C229.899 341.922 229.983 330.528 230.012 319.133C230.029 313.099 230.068 307.067 230.163 301.034C230.251 295.353 230.278 289.675 230.259 283.994C230.262 281.911 230.288 279.827 230.338 277.744C231.023 267.543 231.023 267.543 227.502 258.384C224.006 255.357 220.085 253.676 215.788 252C214.53 251.299 213.282 250.577 212.06 249.814C211.082 249.262 210.104 248.71 209.097 248.141C207.977 247.505 206.856 246.87 205.702 246.215C203.981 245.242 203.981 245.242 202.226 244.25C192.61 238.799 183.067 233.252 173.653 227.454C172.901 226.995 172.149 226.536 171.374 226.063C170.725 225.662 170.076 225.261 169.407 224.848C167.798 223.846 167.798 223.846 165.788 224C165.78 225.415 165.78 225.415 165.771 226.859C165.713 235.746 165.641 244.633 165.553 253.52C165.508 258.09 165.469 262.659 165.442 267.228C165.416 271.637 165.376 276.046 165.325 280.455C165.309 282.137 165.297 283.82 165.291 285.502C165.281 287.858 165.253 290.214 165.221 292.57C165.223 293.614 165.223 293.614 165.225 294.679C165.166 297.706 164.922 299.762 163.433 302.426C161.788 304 161.788 304 159.038 304.625C152.143 303.299 147.908 297.146 143.546 292.012C141.292 289.431 138.871 287.058 136.406 284.68C134.831 283.045 133.594 281.352 132.288 279.5C130.016 276.663 130.016 276.663 126.726 276.875C122.307 277.932 118.011 279.588 113.753 281.16C110.571 282.062 108.079 282.288 104.788 282C103.798 281.34 102.808 280.68 101.788 280C101.552 277.024 101.507 274.259 101.594 271.287C101.608 270.384 101.622 269.482 101.636 268.552C101.667 266.586 101.703 264.621 101.745 262.655C101.825 258.472 101.851 254.289 101.879 250.106C101.933 242.313 102.007 234.522 102.183 226.73C102.302 221.313 102.349 215.9 102.347 210.481C102.36 208.42 102.4 206.359 102.468 204.299C103.22 193.697 103.22 193.697 99.3457 184.281C95.8163 181.358 91.9291 179.5 87.6979 177.807C84.7017 176.541 82.0158 174.873 79.2338 173.192C77.1278 171.981 75.021 170.771 72.9135 169.563C60.3011 162.319 60.3011 162.319 54.4057 158.813C53.6153 158.343 52.8249 157.873 52.0106 157.389C50.5673 156.527 49.126 155.663 47.6874 154.793C44.4635 152.696 44.4635 152.696 40.7885 152ZM424.257 154.535C422.844 155.367 422.844 155.367 421.402 156.215C420.375 156.825 419.347 157.434 418.288 158.063C416.088 159.358 413.888 160.652 411.687 161.945C410.834 162.448 410.834 162.448 409.963 162.961C403.968 166.49 397.942 169.966 391.913 173.438C390.296 174.37 390.296 174.37 388.646 175.321C386.454 176.584 384.263 177.846 382.071 179.109C376.642 182.237 371.215 185.369 365.788 188.5C363.622 189.75 361.455 191 359.288 192.25C358.216 192.869 357.143 193.488 356.038 194.125C294.288 229.75 294.288 229.75 291.034 231.628C288.883 232.869 286.733 234.11 284.582 235.351C279.525 238.27 274.466 241.187 269.401 244.095C267.019 245.462 264.638 246.831 262.258 248.2C260.585 249.161 258.911 250.12 257.238 251.078C256.218 251.665 255.198 252.251 254.148 252.856C253.255 253.368 252.363 253.88 251.444 254.407C250.129 255.196 250.129 255.196 248.788 256C247.759 256.513 246.729 257.026 245.668 257.555C242.404 259.808 242.404 259.808 242.05 263.881C242.025 265.494 242.033 267.107 242.067 268.719C242.062 269.609 242.057 270.498 242.051 271.415C242.042 274.402 242.075 277.387 242.107 280.374C242.109 282.513 242.108 284.651 242.105 286.79C242.103 292.602 242.138 298.413 242.18 304.224C242.218 310.296 242.221 316.367 242.228 322.438C242.247 333.938 242.296 345.437 242.356 356.936C242.423 370.027 242.456 383.117 242.487 396.208C242.549 423.139 242.655 450.069 242.788 477C246.166 475.674 249.306 474.245 252.464 472.453C253.362 471.946 254.259 471.438 255.184 470.915C256.628 470.091 256.628 470.091 258.101 469.25C259.116 468.674 260.13 468.097 261.176 467.504C270.333 462.289 279.433 456.98 288.527 451.656C295.431 447.618 302.358 443.619 309.288 439.625C310.161 439.122 310.161 439.122 311.05 438.61C314.296 436.739 317.542 434.869 320.788 433C320.379 432.541 319.969 432.082 319.546 431.61C319.007 430.996 318.469 430.382 317.913 429.75C317.38 429.147 316.846 428.544 316.296 427.922C313.269 424.064 312.344 421.014 312.464 416.028C313.194 411.464 316.449 408.005 319.788 405C319.227 402.465 319.227 402.465 317.788 400C315.091 399.142 315.091 399.142 311.976 399C305.192 398.146 305.192 398.146 302.601 395.563C299.502 391.182 299.615 387.213 299.585 382.043C299.58 381.263 299.574 380.482 299.568 379.678C299.559 378.026 299.552 376.374 299.548 374.723C299.539 372.207 299.508 369.693 299.476 367.178C299.469 365.571 299.464 363.963 299.46 362.356C299.448 361.609 299.436 360.861 299.423 360.092C299.443 355.308 300.265 352.065 302.788 348C307.094 344.216 312.301 344.309 317.788 344C318.448 342.35 319.108 340.7 319.788 339C319.367 338.518 318.945 338.036 318.511 337.539C317.963 336.908 317.415 336.276 316.851 335.625C316.306 334.999 315.76 334.372 315.199 333.727C312.687 330.651 312.587 328.193 312.363 324.266C313.409 318.696 318.044 314.496 321.921 310.637C322.638 309.921 322.638 309.921 323.37 309.19C324.371 308.192 325.374 307.196 326.38 306.203C327.922 304.68 329.455 303.148 330.988 301.615C340.149 292.5 340.149 292.5 348.101 292.5C352.811 293.376 355.648 296.561 358.788 300C361.323 299.438 361.323 299.438 363.788 298C364.647 295.303 364.647 295.303 364.788 292.188C365.632 285.423 365.632 285.423 368.288 282.813C372.582 279.7 375.926 279.839 381.085 279.832C382.325 279.827 382.325 279.827 383.59 279.822C385.341 279.817 387.093 279.815 388.845 279.815C391.514 279.813 394.182 279.795 396.851 279.776C398.554 279.773 400.257 279.771 401.96 279.77C402.754 279.763 403.548 279.755 404.366 279.748C408.865 279.766 412.611 280.115 416.788 282C419.343 286.865 419.382 292.591 419.788 298C421.438 298.66 423.088 299.32 424.788 300C428.435 297.358 430.459 295.682 431.342 291.178C431.528 287.535 431.53 283.932 431.47 280.284C431.468 278.884 431.469 277.484 431.472 276.084C431.474 272.295 431.439 268.507 431.397 264.718C431.359 260.754 431.356 256.79 431.349 252.826C431.33 245.325 431.281 237.825 431.221 230.324C431.153 221.782 431.12 213.24 431.09 204.699C431.028 187.132 430.922 169.566 430.788 152C428.031 152 426.63 153.13 424.257 154.535ZM114.788 194C114.788 217.76 114.788 241.52 114.788 266C120.845 264.705 120.845 264.705 126.788 263C130.09 262.556 132.616 262.297 135.554 264.059C139.514 267.35 142.84 271.208 146.113 275.168C148.02 277.367 148.02 277.367 151.788 280C151.788 258.55 151.788 237.1 151.788 215C133.33 204.426 133.33 204.426 114.788 194ZM377.788 293C377.458 297.29 377.128 301.58 376.788 306C374.351 308.563 374.351 308.563 370.788 310C369.993 310.365 369.198 310.73 368.378 311.106C359.357 315.093 359.357 315.093 354.788 314C351.903 311.878 349.326 309.525 346.788 307C343.53 308.427 341.386 310.167 338.898 312.695C338.189 313.411 337.48 314.126 336.749 314.863C335.655 315.983 335.655 315.983 334.538 317.125C333.793 317.879 333.048 318.633 332.281 319.41C330.445 321.269 328.615 323.133 326.788 325C328.086 327.886 328.929 329.12 331.413 331.25C333.944 334.181 334.517 335.75 334.296 339.606C333.41 343.787 331.648 347.585 329.882 351.461C328.657 353.846 328.657 353.846 328.788 356C323.508 356.66 318.228 357.32 312.788 358C312.788 367.24 312.788 376.48 312.788 386C317.078 386.33 321.368 386.66 325.788 387C330.724 391.935 333.892 399.296 334.538 406.313C333.497 411.435 330.744 413.771 326.788 417C328.215 420.259 329.955 422.403 332.484 424.891C333.199 425.6 333.915 426.309 334.652 427.039C335.771 428.134 335.771 428.134 336.913 429.25C337.668 429.995 338.422 430.74 339.199 431.508C341.057 433.343 342.921 435.174 344.788 437C347.642 435.692 349.234 434.584 351.601 432.375C355.513 429.46 356.999 429.582 361.788 430C364.377 430.867 366.704 431.748 369.163 432.875C369.791 433.145 370.419 433.414 371.066 433.692C375.649 435.721 375.649 435.721 376.788 438C377.283 444.435 377.283 444.435 377.788 451C387.028 451 396.268 451 405.788 451C406.118 447.04 406.448 443.08 406.788 439C412.426 433.363 418.806 430.784 426.601 429.25C431.326 430.362 433.737 433.364 436.788 437C440.047 435.574 442.191 433.833 444.679 431.305C445.388 430.589 446.097 429.874 446.828 429.137C447.557 428.391 448.287 427.644 449.038 426.875C449.784 426.121 450.529 425.367 451.296 424.59C453.132 422.731 454.962 420.868 456.788 419C455.479 416.149 454.344 414.513 452.163 412.125C449.378 408.461 449.338 407.471 449.788 403C450.663 400.481 451.565 398.162 452.663 395.75C453.068 394.814 453.068 394.814 453.48 393.86C454.678 391.148 455.675 389.114 457.788 387C462.078 386.67 466.368 386.34 470.788 386C470.788 376.76 470.788 367.52 470.788 358C466.828 357.67 462.868 357.34 458.788 357C455.185 353.396 453.896 351.63 452.038 347.125C451.61 346.117 451.183 345.109 450.742 344.07C449.716 340.765 449.36 338.435 449.788 335C451.32 332.77 451.32 332.77 453.288 330.813C456.335 327.991 456.335 327.991 456.788 324C455.104 321.899 455.104 321.899 452.851 319.77C452.039 318.967 451.227 318.165 450.39 317.338C449.531 316.505 448.673 315.671 447.788 314.813C446.501 313.545 446.501 313.545 445.187 312.252C443.061 310.161 440.928 308.078 438.788 306C438.083 306.615 438.083 306.615 437.363 307.242C436.74 307.781 436.117 308.32 435.476 308.875C434.861 309.409 434.246 309.943 433.613 310.492C429.764 313.673 427.747 314.457 422.788 314C420.265 313.149 417.952 312.269 415.538 311.188C414.915 310.927 414.291 310.666 413.648 310.397C410.287 308.93 408.872 308.126 406.788 305C406.293 299.06 406.293 299.06 405.788 293C396.548 293 387.308 293 377.788 293Z" fill="white"/>
<path d="M416.614 338.214C424.984 344.475 431.106 353.608 433.001 363.999C433.816 377.328 432.113 388.072 424.001 398.999C416.642 407.133 406.336 412.416 395.376 413.183C383.07 413.473 372.38 410.437 363.251 401.874C354.628 392.687 350.439 382.147 350.751 369.605C351.8 358.662 356.545 347.491 365.016 340.284C380.681 328.333 400.13 327.682 416.614 338.214ZM371.001 354.999C365.885 362.286 364.112 368.037 365.001 376.999C366.818 384.685 370.698 390.275 377.001 394.999C383.562 398.851 390.478 400.34 398.001 398.999C406.429 396.043 412.612 391.985 417.02 384.198C420.128 377.343 420.199 368.883 417.938 361.749C414.505 354.049 408.775 348.991 401.001 345.999C389.8 342.266 378.384 345.928 371.001 354.999Z" fill="white"/>
<path d="M64.9995 311C69.1293 312.864 72.9447 315.209 76.812 317.562C78.5296 318.583 80.2473 319.604 81.9659 320.623C83.1548 321.329 84.3425 322.037 85.529 322.748C89.7934 325.299 94.093 327.782 98.4175 330.23C99.6163 330.911 100.815 331.592 102.014 332.273C104.306 333.574 106.601 334.869 108.897 336.162C109.931 336.753 110.965 337.344 112.031 337.953C112.944 338.47 113.857 338.987 114.798 339.52C117 341 117 341 119 344C119.459 347.599 119.412 349.356 117.437 352.437C114.66 354.217 113.307 354.179 110.116 353.626C105.582 352.284 101.612 349.7 97.562 347.312C96.5715 346.74 95.581 346.168 94.5606 345.578C91.367 343.73 88.1832 341.865 84.9995 340C82.7774 338.708 80.5547 337.418 78.3315 336.128C72.5453 332.767 66.7628 329.4 60.9995 326C60.0935 325.486 59.1874 324.972 58.2539 324.443C55.9995 323 55.9995 323 54.9995 321C54.55 314.819 54.55 314.819 56.062 312.062C59.1064 310.393 61.6716 310.34 64.9995 311Z" fill="white"/>
<path d="M65 342.999C67.5952 344.176 67.5952 344.176 70.2109 345.667C71.1975 346.224 72.184 346.781 73.2004 347.355C74.248 347.96 75.2956 348.564 76.375 349.187C77.4632 349.806 78.5514 350.425 79.6726 351.063C82.5406 352.699 85.4034 354.344 88.2625 355.996C89.9902 356.993 91.7195 357.988 93.4487 358.983C96.7399 360.879 100.027 362.781 103.312 364.687C104.326 365.274 105.339 365.861 106.382 366.467C107.325 367.017 108.267 367.568 109.238 368.136C110.064 368.617 110.889 369.099 111.74 369.595C117.73 373.315 117.73 373.315 118.938 376.374C119.018 379.746 117.948 381.302 116 383.999C115 384.999 115 384.999 112.113 385.44C106.392 385.337 101.905 381.857 97.1875 378.937C95.0621 377.654 92.9357 376.373 90.8086 375.093C89.7024 374.422 88.5962 373.752 87.4565 373.062C83.9352 370.945 80.3663 368.918 76.7852 366.905C75.598 366.235 74.4109 365.564 73.2239 364.894C70.9461 363.61 68.6648 362.333 66.3796 361.063C65.3417 360.474 64.3038 359.884 63.2344 359.276C62.3188 358.763 61.4033 358.25 60.46 357.721C57.6713 355.769 55.8955 353.821 54 350.999C54 347.456 54.3526 345.742 56.6875 343.062C59.8525 341.607 61.6344 342.223 65 342.999Z" fill="white"/>
</svg>
