<?xml version="1.0" encoding="UTF-8"?>
<svg version="1.1" xmlns="http://www.w3.org/2000/svg" width="512" height="512">
<path d="M0 0 C3.88333165 2.12597406 6.87768235 5.03146621 9.83203125 8.28125 C10.3425 8.82265625 10.85296875 9.3640625 11.37890625 9.921875 C16.02004717 14.98880867 19.83110636 20.51812314 23.62109375 26.23046875 C27.58495225 31.76756566 27.58495225 31.76756566 33.28125 35.21875 C36.519961 35.29810586 38.64724934 34.51248262 41.64453125 33.28125 C42.78019531 32.82105469 43.91585937 32.36085937 45.0859375 31.88671875 C48.41221845 30.4783893 51.70682713 29.00231268 55.00219727 27.5234375 C64.74737071 23.16733696 73.06859514 19.78325118 83.83203125 22.28125 C88.98291181 24.80809707 92.20758883 28.26283872 94.83203125 33.28125 C97.53115599 41.58018223 98.55110268 50.06986416 99.39453125 58.71875 C99.61835343 60.98894637 99.84857983 63.25852263 100.0859375 65.52734375 C100.23011108 67.00738892 100.23011108 67.00738892 100.37719727 68.51733398 C100.86012948 71.45199617 101.37765925 73.67852718 102.83203125 76.28125 C106.57620375 78.42113413 110.47318273 78.74658844 114.71484375 79.2109375 C116.06123853 79.36814215 117.4075914 79.52570608 118.75390625 79.68359375 C120.84616692 79.92099611 122.93871334 80.15427167 125.03222656 80.38037109 C146.8683131 82.76917885 146.8683131 82.76917885 153.39453125 89.59375 C157.52056003 95.22232105 158.31935722 100.70987706 157.4296875 107.5 C155.93465721 114.45726513 152.90608727 120.93137613 149.98046875 127.38671875 C149.66609863 128.08587402 149.35172852 128.7850293 149.02783203 129.50537109 C148.4150224 130.85848767 147.79161912 132.20687629 147.15576172 133.54931641 C145.04394693 138.17683204 143.81111873 142.15245444 143.83203125 147.28125 C145.83323592 150.1476769 145.83323592 150.1476769 148.83203125 152.28125 C149.755 153.01085937 150.67796875 153.74046875 151.62890625 154.4921875 C152.6034375 155.20632812 153.57796875 155.92046875 154.58203125 156.65625 C155.63003906 157.43226563 156.67804688 158.20828125 157.7578125 159.0078125 C158.77230469 159.75804687 159.78679687 160.50828125 160.83203125 161.28125 C177.29567368 173.67217728 177.29567368 173.67217728 179.83203125 181.28125 C180.50051909 188.77708086 180.42778913 194.19497605 175.83203125 200.28125 C173.58203125 202.78125 173.58203125 202.78125 170.83203125 205.28125 C170.30222656 205.78011719 169.77242188 206.27898437 169.2265625 206.79296875 C164.40997451 211.19876032 159.21816852 214.95485597 153.84399414 218.64135742 C148.34455398 222.42687103 148.34455398 222.42687103 143.83203125 227.28125 C143.51118953 234.72642322 147.17720735 241.10581338 150.26953125 247.71875 C159.56153364 267.67097536 159.56153364 267.67097536 156.83203125 279.28125 C153.57443272 285.56376144 149.09636734 289.2921844 142.40234375 291.62109375 C133.99887939 293.77943034 125.46373691 294.32884308 116.83203125 294.28125 C117.30809814 295.40877686 117.78416504 296.53630371 118.2746582 297.69799805 C118.59448669 298.45548843 118.91431519 299.21297882 119.24383545 299.99342346 C119.97621129 301.727994 120.70859269 303.46256219 121.440979 305.1971283 C123.54077724 310.17026465 125.64046951 315.1434457 127.73999023 320.11669922 C132.0550729 330.33778414 136.37134655 340.55836135 140.69140625 350.77734375 C149.54515927 371.72407783 158.36637267 392.68397817 167.13500977 413.66650391 C167.49611343 414.53039734 167.8572171 415.39429077 168.22926331 416.28436279 C168.89741556 417.88306713 169.56527701 419.48189305 170.23277283 421.08087158 C170.53236404 421.79781189 170.83195526 422.5147522 171.140625 423.25341797 C171.42332748 423.93068436 171.70602997 424.60795074 171.99729919 425.30574036 C172.82335142 427.26070797 173.67480727 429.20330507 174.52758789 431.14672852 C176.39698558 435.63881103 176.54362246 439.49777578 175.83203125 444.28125 C173.61960686 448.70609878 170.88403509 451.47601657 166.83203125 454.28125 C160.6608362 456.33831502 155.01918431 455.0607759 148.9296875 453.3125 C148.20712265 453.1127356 147.4845578 452.91297119 146.74009705 452.70715332 C144.45580734 452.07356578 142.17522625 451.42764374 139.89453125 450.78125 C138.33681787 450.3468331 136.77887695 449.91323121 135.22070312 449.48046875 C131.4217838 448.4234661 127.62613749 447.35539503 123.83203125 446.28125 C123.5791333 446.98628662 123.32623535 447.69132324 123.06567383 448.41772461 C120.92942 453.37638702 117.72634394 457.67198994 114.69262695 462.11987305 C113.52468123 463.83618205 112.37045277 465.56117328 111.21679688 467.28710938 C110.46826696 468.39118073 109.7189437 469.49471473 108.96875 470.59765625 C108.29545654 471.59224854 107.62216309 472.58684082 106.9284668 473.61157227 C104.34138096 476.90606203 101.59011345 479.4022089 97.83203125 481.28125 C92.6829694 481.79447348 88.22648779 481.90100846 83.45703125 479.78125 C76.84723604 473.48620694 73.83538338 464.961412 70.45703125 456.65625 C69.31528672 453.88632484 68.1672867 451.11900145 67.01953125 448.3515625 C66.70327789 447.58734985 66.38702454 446.82313721 66.06118774 446.0357666 C61.277985 434.49852383 56.35691838 423.01926994 51.45703125 411.53125 C50.45708357 409.18523374 49.45716486 406.83920513 48.45727539 404.49316406 C40.60689917 386.07860397 32.73249746 367.67437398 24.83203125 349.28125 C24.17203125 349.28125 23.51203125 349.28125 22.83203125 349.28125 C21.14709388 351.45824873 19.570085 353.63636719 18.01953125 355.90625 C9.20424984 368.68240671 9.20424984 368.68240671 4.20703125 372.09375 C3.63726562 372.49207031 3.0675 372.89039063 2.48046875 373.30078125 C-2.55776324 376.29745478 -8.51770579 375.69395181 -14.16796875 375.28125 C-17.54296875 374.09375 -17.54296875 374.09375 -20.16796875 372.28125 C-21.09609375 371.641875 -22.02421875 371.0025 -22.98046875 370.34375 C-27.86834129 366.1118814 -31.42280329 360.49969746 -35.16796875 355.28125 C-36.00328125 354.12496094 -36.00328125 354.12496094 -36.85546875 352.9453125 C-37.9680089 351.39660605 -39.06968754 349.84010074 -40.16796875 348.28125 C-44.61153539 356.80290829 -48.46311869 365.47143681 -52.14422607 374.34103394 C-53.8626751 378.48003117 -55.59645164 382.61261611 -57.328125 386.74609375 C-57.7041687 387.64459549 -58.0802124 388.54309723 -58.46765137 389.46882629 C-63.11481421 400.56178456 -67.82669216 411.62721462 -72.54055786 422.69195557 C-74.00184112 426.12220605 -75.46176319 429.55303359 -76.92163086 432.98388672 C-78.76272809 437.31010927 -80.6125972 441.63243539 -82.46777344 445.95263672 C-84.30534616 450.23740383 -86.10250464 454.5364742 -87.87597656 458.84814453 C-88.74668413 460.93134046 -89.61744992 463.01451206 -90.48828125 465.09765625 C-90.87208954 466.05236313 -91.25589783 467.00707001 -91.65133667 467.9907074 C-94.30406407 474.27524264 -96.90714153 478.15083639 -103.16796875 481.28125 C-108.16460293 481.77928053 -112.67677022 481.89527292 -117.35546875 479.96875 C-126.39198025 471.33386123 -134.57370642 458.46977466 -140.16796875 447.28125 C-148.5321401 448.8237425 -156.67687548 450.96121748 -164.86523438 453.24609375 C-176.84448278 456.47770495 -176.84448278 456.47770495 -183.29296875 454.15625 C-187.23089193 451.58803923 -190.03909458 448.53899835 -192.16796875 444.28125 C-194.1997767 434.30704643 -188.73461908 425.15936728 -184.79296875 416.34375 C-184.01725492 414.57148024 -183.243699 412.7982646 -182.47216797 411.02416992 C-181.2653597 408.25008965 -180.05715348 405.47670573 -178.84231567 402.70613098 C-174.92136642 393.76207318 -171.14698849 384.75970017 -167.39578247 375.7434082 C-165.54237799 371.29035481 -163.68143907 366.84045538 -161.8203125 362.390625 C-161.25926064 361.04883179 -161.25926064 361.04883179 -160.68687439 359.67993164 C-155.30709648 346.82250908 -149.87610268 333.98663011 -144.44775391 321.1496582 C-140.66490998 312.2029329 -136.88704909 303.2547263 -133.16796875 294.28125 C-134.2559375 294.24386719 -135.34390625 294.20648438 -136.46484375 294.16796875 C-161.50937584 293.12480383 -161.50937584 293.12480383 -170.41796875 283.96875 C-173.98843521 278.48553366 -174.59744345 273.4110914 -173.765625 267.0625 C-172.27059471 260.10523487 -169.24202477 253.63112387 -166.31640625 247.17578125 C-165.84485107 246.12704834 -165.84485107 246.12704834 -165.36376953 245.05712891 C-164.7509599 243.70401233 -164.12755662 242.35562371 -163.49169922 241.01318359 C-161.36723483 236.35794951 -159.98436581 232.44763278 -160.16796875 227.28125 C-163.84950433 221.6406089 -170.24223265 217.87361525 -175.73046875 214.15625 C-189.52775007 204.7140787 -189.52775007 204.7140787 -192.98046875 199.65625 C-193.57794922 198.80160156 -193.57794922 198.80160156 -194.1875 197.9296875 C-197.17981063 192.89879075 -196.69460717 186.92066974 -196.16796875 181.28125 C-194.51327768 176.29019815 -190.99692721 172.76212133 -187.16796875 169.28125 C-186.6265625 168.77078125 -186.08515625 168.2603125 -185.52734375 167.734375 C-180.46041008 163.09323408 -174.93109561 159.28217489 -169.21875 155.4921875 C-163.68165309 151.528329 -163.68165309 151.528329 -160.23046875 145.83203125 C-160.15111289 142.59332025 -160.93673613 140.46603191 -162.16796875 137.46875 C-162.62816406 136.33308594 -163.08835938 135.19742188 -163.5625 134.02734375 C-164.97082945 130.7010628 -166.44690607 127.40645412 -167.92578125 124.11108398 C-172.28188179 114.36591054 -175.66596757 106.04468611 -173.16796875 95.28125 C-170.64112168 90.13036944 -167.18638003 86.90569242 -162.16796875 84.28125 C-153.86903652 81.58212526 -145.37935459 80.56217857 -136.73046875 79.71875 C-134.46027238 79.49492782 -132.19069612 79.26470142 -129.921875 79.02734375 C-128.93517822 78.93122803 -127.94848145 78.8351123 -126.93188477 78.73608398 C-123.99722258 78.25315177 -121.77069157 77.735622 -119.16796875 76.28125 C-116.97453284 72.47112632 -116.6932298 68.46709933 -116.23828125 64.14453125 C-116.08111865 62.74800299 -115.92355348 61.35151998 -115.765625 59.95507812 C-115.52783607 57.78153103 -115.29441682 55.60771174 -115.06884766 53.43286133 C-112.86933958 32.50413645 -112.86933958 32.50413645 -105.85546875 25.78125 C-100.24397271 21.58451673 -94.76282977 20.79084652 -87.94921875 21.68359375 C-80.99195362 23.17862404 -74.51784262 26.20719398 -68.0625 29.1328125 C-67.01376709 29.60436768 -67.01376709 29.60436768 -65.94384766 30.08544922 C-64.59073108 30.69825885 -63.24234246 31.32166213 -61.89990234 31.95751953 C-57.24466826 34.08198392 -53.33435153 35.46485294 -48.16796875 35.28125 C-42.52732765 31.59971442 -38.760334 25.2069861 -35.04296875 19.71875 C-25.60079745 5.92146868 -25.60079745 5.92146868 -20.54296875 2.46875 C-19.68832031 1.87126953 -19.68832031 1.87126953 -18.81640625 1.26171875 C-13.55133876 -1.86987353 -5.7240938 -1.89771758 0 0 Z M-11.87451172 16.51147461 C-16.17064763 20.998985 -19.81137806 25.70360626 -23.29296875 30.84375 C-32.95721203 44.96553184 -32.95721203 44.96553184 -38.29296875 48.09375 C-38.95554688 48.49207031 -39.618125 48.89039063 -40.30078125 49.30078125 C-46.67797518 52.64947513 -53.25455371 51.74758287 -59.91796875 49.84375 C-67.1107263 47.49161602 -74.01249029 44.44484687 -80.92089844 41.36743164 C-82.21882324 40.79303345 -82.21882324 40.79303345 -83.54296875 40.20703125 C-84.31382812 39.86067627 -85.0846875 39.51432129 -85.87890625 39.1574707 C-88.3146994 38.22508359 -90.58418216 37.63499566 -93.16796875 37.28125 C-96.17664076 39.06416675 -96.78997621 41.75008354 -97.68383789 44.99804688 C-98.96338588 51.0325062 -99.29505249 57.27874388 -99.84765625 63.4140625 C-100.75176446 72.22911755 -102.2023571 83.06867745 -109.16796875 89.28125 C-119.7686916 95.46319104 -132.48594866 95.87998978 -144.41796875 97.13671875 C-145.48789063 97.25660156 -146.5578125 97.37648438 -147.66015625 97.5 C-148.6229248 97.60248047 -149.58569336 97.70496094 -150.57763672 97.81054688 C-153.17246996 98.28206794 -154.97209378 98.82606943 -157.16796875 100.28125 C-158.46970424 104.18645647 -157.5801935 105.63367716 -156.16796875 109.46875 C-155.94520264 110.07662354 -155.72243652 110.68449707 -155.49291992 111.31079102 C-153.41487802 116.86657389 -151.0479022 122.29360191 -148.58007812 127.6862793 C-145.04133972 135.50701153 -142.05166017 144.01959471 -144.92578125 152.5234375 C-148.62799398 160.24852706 -153.86677472 164.74171679 -160.79296875 169.53125 C-171.35893395 176.46421199 -171.35893395 176.46421199 -180.16796875 185.28125 C-180.16796875 188.54412312 -179.48639514 189.90732446 -177.375 192.38671875 C-171.29634274 197.67207653 -164.97674669 202.43063296 -158.3671875 207.01953125 C-150.05936376 212.89282789 -150.05936376 212.89282789 -147.41796875 217.34375 C-147.010625 218.01535156 -146.60328125 218.68695313 -146.18359375 219.37890625 C-143.24265457 224.88751156 -143.40803402 230.88208251 -144.74609375 236.8671875 C-147.24484784 244.79505274 -150.71516602 252.39316202 -154.08178711 259.98364258 C-154.46471924 260.85400146 -154.84765137 261.72436035 -155.2421875 262.62109375 C-155.58854248 263.39831787 -155.93489746 264.17554199 -156.29174805 264.97631836 C-157.21981922 267.41764461 -157.81339328 269.69385901 -158.16796875 272.28125 C-156.385052 275.28992201 -153.69913521 275.90325746 -150.45117188 276.79711914 C-144.41671255 278.07666713 -138.17047487 278.40833374 -132.03515625 278.9609375 C-123.2201012 279.86504571 -112.3805413 281.31563835 -106.16796875 288.28125 C-102.7337029 294.46868657 -101.35789795 300.50058952 -100.54296875 307.46875 C-100.42308594 308.38205078 -100.30320312 309.29535156 -100.1796875 310.23632812 C-99.73089038 313.66504157 -99.31147243 317.09695888 -98.89550781 320.52978516 C-98.6609313 322.44792736 -98.41487943 324.36465647 -98.16796875 326.28125 C-98.04421875 327.333125 -97.92046875 328.385 -97.79296875 329.46875 C-97.10614578 332.55945335 -95.9328092 334.67235542 -94.16796875 337.28125 C-86.76147217 335.93322167 -80.43317964 333.40708232 -73.60546875 330.28125 C-53.07603665 320.91929399 -53.07603665 320.91929399 -43.1015625 323.8984375 C-33.95797738 327.94237143 -28.50185811 336.04687383 -22.96069336 343.97241211 C-20.23037235 347.85494014 -17.42377445 351.59488729 -14.35546875 355.21875 C-13.66839844 356.03214844 -12.98132813 356.84554688 -12.2734375 357.68359375 C-10.27653138 359.53036997 -10.27653138 359.53036997 -7.66796875 359.296875 C0.74331096 355.87979262 6.50453752 344.776891 11.5703125 337.48046875 C17.44543562 329.17006143 17.44543562 329.17006143 21.83203125 326.53125 C22.82203125 325.92023438 22.82203125 325.92023438 23.83203125 325.296875 C31.45543874 321.42561338 39.18225933 323.29514267 46.9140625 325.796875 C52.70884894 327.89517191 58.28916715 330.5537813 63.85253906 333.19506836 C68.16252607 335.21532164 72.00829224 336.95116522 76.83203125 337.28125 C78.76484827 336.43690917 78.76484827 336.43690917 79.83203125 334.28125 C82.11140635 326.56368075 82.75694272 318.73218694 83.51171875 310.74414062 C84.44334161 302.06840277 85.99248856 291.38138267 92.83203125 285.28125 C99.01925383 281.84710293 105.05143695 280.4706021 112.01953125 279.65625 C112.93210693 279.53709229 113.84468262 279.41793457 114.78491211 279.29516602 C117.46596959 278.94566807 120.14863064 278.61219933 122.83203125 278.28125 C125.52133966 277.93856322 128.20785143 277.58204318 130.89453125 277.21875 C131.95800781 277.08339844 133.02148438 276.94804687 134.1171875 276.80859375 C136.74461537 276.29823006 138.6091934 275.76485309 140.83203125 274.28125 C142.13376674 270.37604353 141.244256 268.92882284 139.83203125 265.09375 C139.49788208 264.1819397 139.49788208 264.1819397 139.15698242 263.25170898 C137.07894052 257.69592611 134.7119647 252.26889809 132.24414062 246.8762207 C128.70540222 239.05548847 125.71572267 230.54290529 128.58984375 222.0390625 C132.29205648 214.31397294 137.53083722 209.82078321 144.45703125 205.03125 C155.02299645 198.09828801 155.02299645 198.09828801 163.83203125 189.28125 C163.83203125 186.01837688 163.15045764 184.65517554 161.0390625 182.17578125 C154.96040524 176.89042347 148.64080919 172.13186704 142.03125 167.54296875 C133.72342626 161.66967211 133.72342626 161.66967211 131.08203125 157.21875 C130.47101563 156.21134766 130.47101563 156.21134766 129.84765625 155.18359375 C126.90671707 149.67498844 127.07209652 143.68041749 128.41015625 137.6953125 C130.90891034 129.76744726 134.37922852 122.16933798 137.74584961 114.57885742 C138.12878174 113.70849854 138.51171387 112.83813965 138.90625 111.94140625 C139.25260498 111.16418213 139.59895996 110.38695801 139.95581055 109.58618164 C140.88388172 107.14485539 141.47745578 104.86864099 141.83203125 102.28125 C140.0491145 99.27257799 137.36319771 98.65924254 134.11523438 97.76538086 C128.08077505 96.48583287 121.83453737 96.15416626 115.69921875 95.6015625 C106.8841637 94.69745429 96.0446038 93.24686165 89.83203125 86.28125 C83.65009021 75.68052715 83.23329147 62.96327009 81.9765625 51.03125 C81.85667969 49.96132812 81.73679687 48.89140625 81.61328125 47.7890625 C81.51080078 46.82629395 81.40832031 45.86352539 81.30273438 44.87158203 C80.8360247 42.3032264 80.19947573 40.49478694 78.83203125 38.28125 C77.10901934 37.20881024 77.10901934 37.20881024 74.83203125 37.28125 C71.62861873 38.23696419 71.62861873 38.23696419 68.14453125 39.78125 C67.49822754 40.05026123 66.85192383 40.31927246 66.18603516 40.59643555 C64.0636589 41.48130786 61.94794006 42.38103384 59.83203125 43.28125 C57.53989523 44.24550761 55.24606867 45.20541744 52.94995117 46.16015625 C51.48305173 46.77073897 50.01826291 47.38642378 48.5559082 48.0078125 C41.66916716 50.88983097 33.98854336 53.06158423 26.6484375 50.52734375 C18.89285358 46.78882976 14.40059229 41.62617155 9.58203125 34.65625 C2.53294937 24.2419797 2.53294937 24.2419797 -6.16796875 15.28125 C-9.97779751 14.89139767 -9.97779751 14.89139767 -11.87451172 16.51147461 Z M-118.16796875 300.28125 C-118.61897949 301.35866455 -119.06999023 302.4360791 -119.53466797 303.54614258 C-119.83767319 304.26998642 -120.14067841 304.99383026 -120.4528656 305.73960876 C-121.14660697 307.39688384 -121.84034251 309.05416136 -122.53407288 310.71144104 C-124.52461563 315.46670045 -126.51526983 320.22191316 -128.50610352 324.97705078 C-132.20529572 333.81291095 -135.90424584 342.6488695 -139.59863281 351.48674011 C-141.06818557 355.00220413 -142.53822105 358.51746617 -144.00836182 362.03268433 C-144.74058749 363.78369153 -145.47264278 365.53476999 -146.20452881 367.28591919 C-150.59252894 377.78341046 -155.00559202 388.26976909 -159.453125 398.7421875 C-160.33278993 400.81590683 -161.21242885 402.88963719 -162.09204102 404.96337891 C-163.77414209 408.92856596 -165.46162174 412.89140558 -167.15209961 416.85302734 C-167.91799886 418.6571447 -168.68371485 420.46133986 -169.44921875 422.265625 C-169.97135704 423.48298843 -169.97135704 423.48298843 -170.50404358 424.72494507 C-172.39375315 429.19271019 -173.94084169 433.5866303 -175.16796875 438.28125 C-173.3561424 437.8583474 -171.5443799 437.43516967 -169.73291016 437.01074219 C-168.17821651 436.64674515 -166.62319767 436.28413457 -165.06787109 435.92285156 C-160.61380771 434.88188122 -156.20308468 433.74723183 -151.79296875 432.53125 C-145.02690388 430.84902783 -138.47366872 429.88268463 -131.91796875 432.65625 C-127.9510748 436.44283059 -125.15578353 440.69847743 -122.16796875 445.28125 C-120.61396894 447.64494072 -119.05629438 450.00611208 -117.49462891 452.36474609 C-116.40940478 454.00599808 -115.32956335 455.65082301 -114.25537109 457.29931641 C-113.75602051 458.05776855 -113.25666992 458.8162207 -112.7421875 459.59765625 C-112.07062622 460.62548218 -112.07062622 460.62548218 -111.38549805 461.67407227 C-110.2434975 463.42802646 -110.2434975 463.42802646 -108.16796875 464.28125 C-95.9080089 435.71103469 -83.66412225 407.13410057 -71.48046875 378.53125 C-70.99424042 377.39016785 -70.50801208 376.24908569 -70.00704956 375.07342529 C-68.61869859 371.81482371 -67.2310754 368.55591333 -65.84375 365.296875 C-65.44259979 364.35528534 -65.04144958 363.41369568 -64.62814331 362.443573 C-63.86471663 360.64901207 -63.10292616 358.85375402 -62.34292603 357.05773926 C-61.48773506 355.03687554 -60.62824942 353.01782761 -59.76620483 350.99987793 C-59.30734894 349.91678345 -58.84849304 348.83368896 -58.37573242 347.71777344 C-57.95386154 346.72662537 -57.53199066 345.73547729 -57.09733582 344.71429443 C-56.04902506 342.40394395 -56.04902506 342.40394395 -56.16796875 340.28125 C-62.05566298 342.06858575 -67.5701111 344.31814136 -73.16796875 346.84375 C-82.26282831 350.88416388 -90.13414695 353.62304487 -100.16796875 351.28125 C-105.04331426 348.84357724 -107.66902432 346.10679786 -110.16796875 341.28125 C-112.7895906 332.89419816 -113.88726626 324.43516866 -114.73046875 315.71875 C-114.9533454 313.42503085 -115.18346935 311.13200087 -115.421875 308.83984375 C-115.51799072 307.84267334 -115.61410645 306.84550293 -115.71313477 305.81811523 C-116.03574454 303.04716578 -116.03574454 303.04716578 -118.16796875 300.28125 Z M100.83203125 300.28125 C98.83506854 308.42271336 97.94332192 316.5314945 97.15234375 324.8671875 C95.22600797 342.7295738 95.22600797 342.7295738 88.95703125 348.34375 C82.08793596 352.60258908 76.64551474 352.89266386 68.83203125 351.28125 C60.23373267 348.71021194 51.9468053 345.0433318 43.87109375 341.1640625 C41.89646433 340.14881287 41.89646433 340.14881287 39.83203125 340.28125 C41.76714408 346.35673293 43.97044726 352.2424572 46.47265625 358.10546875 C47.00536133 359.36509933 47.00536133 359.36509933 47.54882812 360.650177 C48.72318664 363.42447908 49.90252316 366.19663381 51.08203125 368.96875 C51.91528299 370.93373447 52.74828516 372.89882479 53.58105469 374.86401367 C55.84261705 380.19767787 58.10909409 385.52924002 60.37695312 390.86022949 C61.87324203 394.37814027 63.36839083 397.89653381 64.86328125 401.41503906 C67.93410668 408.64216629 71.00740863 415.86823746 74.08203125 423.09375 C74.56885376 424.23806488 75.05567627 425.38237976 75.55725098 426.56137085 C80.91980001 439.16236356 86.30484132 451.7514708 91.83203125 464.28125 C94.94151779 461.36801195 97.24267712 458.35974596 99.546875 454.78125 C100.57651367 453.2034375 100.57651367 453.2034375 101.62695312 451.59375 C103.05418744 449.38719631 104.47867328 447.17886239 105.90039062 444.96875 C106.93196289 443.3909375 106.93196289 443.3909375 107.984375 441.78125 C108.60304443 440.8221875 109.22171387 439.863125 109.85913086 438.875 C112.37018156 435.57374983 115.11394666 433.1402923 118.83203125 431.28125 C127.46846963 430.38509065 135.10485645 432.35984287 143.33203125 434.78125 C145.633241 435.44055678 147.93528753 436.09695201 150.23828125 436.75 C151.24181641 437.04326172 152.24535156 437.33652344 153.27929688 437.63867188 C155.87817752 438.40330326 155.87817752 438.40330326 158.83203125 438.28125 C156.90752962 432.25490541 154.73448896 426.40282682 152.26953125 420.578125 C151.92615219 419.75937897 151.58277313 418.94063293 151.22898865 418.09707642 C150.09983923 415.40712316 148.96596108 412.71919118 147.83203125 410.03125 C147.02846195 408.11941486 146.22516324 406.20746596 145.42211914 404.29541016 C139.33452992 389.81015975 133.21153096 375.33979375 127.09042358 360.86868286 C118.56747106 340.71571136 110.18211559 320.50636218 101.83203125 300.28125 C101.50203125 300.28125 101.17203125 300.28125 100.83203125 300.28125 Z " fill="#A25303" transform="translate(264.16796875,15.71875)"/>
<path d="M0 0 C1.56675785 1.32335995 3.10956484 2.67492307 4.65087891 4.02783203 C5.87484375 5.10097656 5.87484375 5.10097656 7.12353516 6.19580078 C27.86504257 25.69354937 39.61760067 53.76815861 40.93603516 81.98486328 C41.80895303 114.11447631 30.67659653 142.2061884 8.88134766 165.72705078 C-11.5318375 186.78373389 -39.60434249 198.58753643 -68.82226562 199.38134766 C-101.23260733 199.65691385 -129.16298675 187.50539181 -152.34912109 165.02783203 C-172.88671792 144.56729936 -183.48015557 115.72150495 -183.72412109 87.02783203 C-183.44641905 54.36628501 -170.15034419 26.90740248 -147.27490234 3.94580078 C-107.07640347 -33.7263599 -42.22242058 -34.52170156 0 0 Z M-143.59912109 23.34033203 C-160.58494243 43.41448452 -169.20567487 68.7297171 -167.34912109 95.02783203 C-165.43489234 114.59550372 -158.06860978 132.9742516 -145.34912109 148.02783203 C-144.69298828 148.82962891 -144.03685547 149.63142578 -143.36083984 150.45751953 C-127.6482239 168.89901759 -104.53299257 180.89051651 -80.34912109 183.02783203 C-53.22381979 184.94392295 -27.92299262 176.59452928 -7.30737305 158.88085938 C12.14409237 141.41176405 23.33586742 117.33688657 24.87353516 91.25048828 C25.49930746 63.58046965 15.4711404 39.14978308 -3.34912109 19.02783203 C-21.03716158 0.83977626 -45.98635466 -8.7167293 -71.09912109 -9.28466797 C-99.18577944 -9.11549161 -124.47849826 3.01049984 -143.59912109 23.34033203 Z " fill="#A25303" transform="translate(327.34912109375,115.97216796875)"/>
<path d="M0 0 C0.82886719 -0.06058594 1.65773438 -0.12117187 2.51171875 -0.18359375 C6.99066594 0.80964559 9.53187273 2.79873751 12.3125 6.4375 C14.56047455 11.22101062 16.16224993 16.15952335 17.75 21.1875 C18.19787898 22.54102496 18.64773344 23.89389792 19.09960938 25.24609375 C22.3125 34.96821243 22.3125 34.96821243 22.3125 37.4375 C23.28598389 37.42178955 24.25946777 37.4060791 25.26245117 37.38989258 C28.88720367 37.33543761 32.51192026 37.30109374 36.13696289 37.27270508 C37.70343107 37.25765378 39.26985736 37.23720793 40.83618164 37.21118164 C43.09271606 37.17463567 45.34869153 37.15773739 47.60546875 37.14453125 C48.30149704 37.12904739 48.99752533 37.11356354 49.71464539 37.09761047 C55.46467678 37.09563728 58.51142765 38.68645743 62.5625 42.625 C64.8143047 46.24397184 65.49713381 49.19092229 65.3125 53.4375 C61.82564976 64.82787745 46.5819703 72.0331674 37.3125 78.4375 C38.00338569 85.54097258 40.418817 91.8571536 42.87304688 98.5234375 C44.86081716 104.18631932 46.20692309 109.4104644 45.3125 115.4375 C43.12123223 119.82003554 40.89575461 122.60419816 36.3125 124.4375 C30.72474962 125.65664554 26.87880631 124.53934238 22.0625 121.5625 C17.12882001 118.16668077 12.38018449 114.49853425 7.72753906 110.72705078 C3.93991165 107.45963591 3.93991165 107.45963591 -0.6875 106.4375 C-3.06502005 107.85083686 -5.13464699 109.26161555 -7.3125 110.9375 C-8.55960027 111.86367936 -9.80699824 112.78945799 -11.0546875 113.71484375 C-11.66795898 114.17616699 -12.28123047 114.63749023 -12.91308594 115.11279297 C-15.38622396 116.95913954 -17.90714287 118.73317629 -20.4375 120.5 C-21.21609375 121.04785156 -21.9946875 121.59570312 -22.796875 122.16015625 C-26.97997962 124.9863447 -30.7402766 125.03716344 -35.6875 124.4375 C-40.07003554 122.24623223 -42.85419816 120.02075461 -44.6875 115.4375 C-45.33256795 107.57081769 -43.35561956 101.47584968 -40.6875 94.125 C-39.93218912 92.00579162 -39.18196129 89.88476281 -38.4375 87.76171875 C-38.10234375 86.83447998 -37.7671875 85.90724121 -37.421875 84.9519043 C-36.50059713 82.23414449 -36.50059713 82.23414449 -36.6875 78.4375 C-38.80579894 76.63860317 -40.81865785 75.14267073 -43.125 73.625 C-44.41364393 72.74086971 -45.70140397 71.85544975 -46.98828125 70.96875 C-47.62072754 70.53820312 -48.25317383 70.10765625 -48.90478516 69.6640625 C-62.54248513 60.28090656 -62.54248513 60.28090656 -64.24609375 54.5625 C-65.14469115 49.67116571 -64.48235814 46.67797443 -61.6875 42.4375 C-59.32004428 39.70012933 -58.14620295 38.59040098 -54.6875 37.4375 C-52.17381945 37.3528183 -49.68880626 37.32148115 -47.17578125 37.33984375 C-46.44755661 37.3412587 -45.71933197 37.34267365 -44.96903992 37.34413147 C-42.64598461 37.34972341 -40.32302612 37.36227438 -38 37.375 C-36.42382952 37.38001604 -34.84765752 37.38457877 -33.27148438 37.38867188 C-29.41011902 37.3996902 -25.54882592 37.41694926 -21.6875 37.4375 C-21.51009277 36.76380371 -21.33268555 36.09010742 -21.14990234 35.39599609 C-19.40627567 28.87580668 -17.49084312 22.45034402 -15.3125 16.0625 C-15.0340625 15.20011719 -14.755625 14.33773437 -14.46875 13.44921875 C-11.88677148 5.90100225 -8.59499373 0.4343565 0 0 Z M-0.6875 23.4375 C-0.90889648 24.14358398 -1.13029297 24.84966797 -1.35839844 25.57714844 C-2.37205548 28.78477702 -3.40453459 31.98603984 -4.4375 35.1875 C-4.95957031 36.85425781 -4.95957031 36.85425781 -5.4921875 38.5546875 C-5.84023437 39.62460938 -6.18828125 40.69453125 -6.546875 41.796875 C-6.86108398 42.78139648 -7.17529297 43.76591797 -7.49902344 44.78027344 C-8.82278803 47.73998048 -10.20563641 49.37105057 -12.6875 51.4375 C-15.86259982 52.49586661 -18.33032383 52.63993789 -21.66796875 52.75390625 C-22.83134766 52.79580078 -23.99472656 52.83769531 -25.19335938 52.88085938 C-26.40830078 52.92017578 -27.62324219 52.95949219 -28.875 53 C-30.10154297 53.04318359 -31.32808594 53.08636719 -32.59179688 53.13085938 C-35.62358381 53.2370309 -38.65545315 53.33907952 -41.6875 53.4375 C-37.46174316 57.94443838 -32.84403722 61.23620184 -27.68359375 64.59960938 C-23.63252946 67.36565865 -21.30330897 69.63135289 -19.6875 74.4375 C-19.0436765 80.88237231 -20.50755408 85.74859818 -22.75 91.75 C-23.33239936 93.3264289 -23.90699768 94.90576823 -24.47265625 96.48828125 C-24.72926025 97.17575439 -24.98586426 97.86322754 -25.25024414 98.5715332 C-25.90875565 100.64761832 -25.90875565 100.64761832 -24.6875 103.4375 C-24.1527002 103.04892822 -23.61790039 102.66035645 -23.06689453 102.26000977 C-20.64986243 100.50515305 -18.23120422 98.75255123 -15.8125 97 C-14.54986328 96.08250977 -14.54986328 96.08250977 -13.26171875 95.14648438 C-12.45605469 94.56318359 -11.65039062 93.97988281 -10.8203125 93.37890625 C-10.07668457 92.83951416 -9.33305664 92.30012207 -8.56689453 91.74438477 C-4.94253209 89.2240922 -2.05187752 88.80521978 2.32421875 88.82421875 C8.50411702 90.0925116 13.38455742 94.69301504 18.3125 98.4375 C20.9464702 100.16715359 23.61952706 101.80059488 26.3125 103.4375 C25.27204613 98.23523063 23.97806305 93.37206781 22.1875 88.375 C20.14897564 82.36631585 19.16163668 77.81023413 21.26953125 71.6328125 C24.16735312 67.10046395 28.02810108 64.67053037 32.4375 61.6875 C34.08839878 60.55044028 35.73696428 59.409983 37.3828125 58.265625 C38.11258301 57.7696582 38.84235352 57.27369141 39.59423828 56.76269531 C41.44586996 55.53337457 41.44586996 55.53337457 42.3125 53.4375 C41.55106689 53.42291748 40.78963379 53.40833496 40.00512695 53.39331055 C36.54458112 53.31869459 33.08498555 53.22207741 29.625 53.125 C28.42681641 53.10244141 27.22863281 53.07988281 25.99414062 53.05664062 C24.83720703 53.02119141 23.68027344 52.98574219 22.48828125 52.94921875 C21.42520752 52.92303467 20.36213379 52.89685059 19.2668457 52.86987305 C15.03809096 52.25098827 12.46743842 50.7113267 9.60961914 47.55932617 C8.19017874 45.237407 7.3655747 43.08598902 6.55859375 40.48828125 C6.26146484 39.55822266 5.96433594 38.62816406 5.65820312 37.66992188 C5.20864258 36.22456055 5.20864258 36.22456055 4.75 34.75 C4.15144724 32.82726046 3.54631889 30.90655147 2.93359375 28.98828125 C2.53805298 27.71464722 2.53805298 27.71464722 2.13452148 26.4152832 C1.48874905 24.25300375 1.48874905 24.25300375 -0.6875 23.4375 Z " fill="#A25303" transform="translate(255.6875,140.5625)"/>
</svg>
