<svg width="300" height="300" viewBox="0 0 300 300" fill="none" xmlns="http://www.w3.org/2000/svg">
<path d="M261.861 56.2117H40.1058C39.4642 56.248 38.8435 56.4517 38.3042 56.8014C37.8268 57.225 37.4705 57.7677 37.2715 58.374V199.971C37.6445 201.801 38.4365 203.519 39.5848 204.992C40.8488 206.241 42.4162 207.138 44.1328 207.597H256.718C258.306 207.386 259.807 206.746 261.058 205.746C262.029 204.296 262.605 202.618 262.728 200.877V59.2164C262.686 58.3644 262.316 57.562 261.695 56.9767C260.825 56.474 259.837 56.2074 258.832 56.202H232.312" stroke="black" stroke-width="6" stroke-linecap="square" stroke-linejoin="round"/>
<path d="M113.457 246.667H189.643" stroke="black" stroke-width="6" stroke-linecap="square"/>
<path d="M132.504 242.858V208.574" stroke="black" stroke-width="6" stroke-linecap="square"/>
<path d="M170 246.667L170.597 208.574" stroke="black" stroke-width="6" stroke-linecap="square"/>
<path d="M78.667 119.717L53.334 123.417L71.6673 141.342L67.333 166.667L90.0007 154.717V96.6667L78.667 119.717Z" fill="black"/>
<path d="M94.7832 153.333V104.848H112.965C116.69 104.848 119.815 105.543 122.34 106.932C124.881 108.321 126.799 110.23 128.093 112.661C129.403 115.076 130.058 117.822 130.058 120.9C130.058 124.009 129.403 126.771 128.093 129.186C126.783 131.6 124.849 133.502 122.293 134.891C119.736 136.264 116.587 136.951 112.847 136.951H100.796V129.73H111.663C113.841 129.73 115.624 129.351 117.013 128.594C118.402 127.836 119.428 126.795 120.091 125.469C120.77 124.143 121.109 122.62 121.109 120.9C121.109 119.179 120.77 117.664 120.091 116.354C119.428 115.044 118.394 114.026 116.99 113.3C115.601 112.558 113.809 112.187 111.616 112.187H103.566V153.333H94.7832ZM147.89 153.333L134.207 104.848H143.653L152.389 140.478H152.838L162.166 104.848H170.76L180.111 140.502H180.537L189.273 104.848H198.719L185.035 153.333H176.371L166.664 119.313H166.285L156.555 153.333H147.89ZM206.478 153.333H197.103L214.172 104.848H225.015L242.108 153.333H232.733L219.783 114.792H219.404L206.478 153.333ZM206.786 134.323H232.354V141.378H206.786V134.323Z" fill="black"/>
</svg>
