<?xml version="1.0" encoding="UTF-8"?>
<svg version="1.1" xmlns="http://www.w3.org/2000/svg" width="512" height="512">
<path d="M0 0 C1.53692001 -0.01073296 1.53692001 -0.01073296 3.10488892 -0.02168274 C4.22853348 -0.02437164 5.35217804 -0.02706055 6.50987244 -0.02983093 C7.69393677 -0.03640213 8.8780011 -0.04297333 10.09794617 -0.04974365 C14.02683365 -0.06949566 17.95570775 -0.08114844 21.8846283 -0.09111023 C23.2399542 -0.09515924 24.5952799 -0.09927621 25.95060539 -0.10346031 C32.32260388 -0.12251286 38.69459081 -0.13674045 45.0666123 -0.14507228 C52.40519452 -0.1548277 59.74347374 -0.18110216 67.08194929 -0.22157317 C72.76365022 -0.25182361 78.44526478 -0.2665498 84.12704462 -0.26985329 C87.51558951 -0.27219479 90.90381077 -0.28103559 94.29226875 -0.30631447 C98.08119242 -0.33072153 101.86933134 -0.32973704 105.65830994 -0.32279968 C107.32252235 -0.34201477 107.32252235 -0.34201477 109.02035522 -0.36161804 C120.07338693 -0.28812728 127.83587417 3.03598688 135.83384705 10.63154602 C141.68049478 17.30750549 144.18645686 24.64685952 144.18414307 33.39044189 C144.18781975 34.13338944 144.19149644 34.87633698 144.19528455 35.64179808 C144.20632255 38.1383063 144.21016536 40.6347729 144.213974 43.13130188 C144.22023839 44.91833631 144.22688516 46.70536943 144.23388672 48.49240112 C144.25129454 53.35183667 144.26184715 58.21126239 144.27009225 63.07072139 C144.27524118 66.10487397 144.28131685 69.13902349 144.28760338 72.1731739 C144.3066519 81.66121162 144.3208857 91.14924155 144.32921535 100.63729471 C144.33899796 111.59990387 144.36534558 122.56231167 144.40571624 133.52484983 C144.43583395 141.99284507 144.45067994 150.46078243 144.45399636 158.92883021 C144.45635113 163.98940719 144.46536734 169.04976895 144.49045753 174.11028862 C144.51366842 178.86848371 144.51799978 183.62632079 144.50769615 188.38455772 C144.50719903 190.13251687 144.51357113 191.88049322 144.5272522 193.6283989 C144.54486549 196.01167155 144.53791838 198.39364447 144.52471924 200.7769165 C144.54117311 201.8185988 144.54117311 201.8185988 144.55795938 202.88132519 C144.51372875 206.18071099 144.2200288 207.90170653 142.22523785 210.57656193 C139.02564574 212.87304184 136.87540691 212.69551886 133.03697205 212.14717102 C130.12980132 209.92854073 129.19715562 208.62772173 128.03697205 205.14717102 C127.94108479 202.81696557 127.9079502 200.4840471 127.90567017 198.15187073 C127.9024966 197.07737643 127.9024966 197.07737643 127.89925891 195.98117518 C127.89325498 193.57457781 127.89425935 191.16803281 127.89512634 188.76142883 C127.89209508 187.03837495 127.88857371 185.31532186 127.88459778 183.5922699 C127.87670541 179.87799744 127.87156257 176.16373461 127.86830711 172.44945526 C127.86239948 166.57479917 127.84586112 160.70020374 127.82696533 154.82557678 C127.82062781 152.81465534 127.81430219 150.80373386 127.80798817 148.79281235 C127.80482236 147.78567483 127.80165654 146.77853732 127.7983948 145.74088049 C127.75631376 132.06251937 127.72334497 118.38418631 127.71104431 104.70576477 C127.702664 95.48162804 127.68017383 86.25764129 127.64168864 77.03357959 C127.62192595 72.15234853 127.6095241 67.27134168 127.61452293 62.39006805 C127.61916948 57.79677478 127.60536364 53.20390634 127.57751083 48.6106987 C127.57059901 46.92691568 127.57047242 45.24308874 127.57771111 43.5593071 C127.58661201 41.25583653 127.57088767 38.95376326 127.54922485 36.65040588 C127.5468365 35.36287037 127.54444815 34.07533485 127.54198742 32.74878311 C126.7727017 27.26247733 124.5804541 23.57771536 120.47447205 19.77217102 C116.99353811 17.4515484 114.36623535 17.0205136 110.28153992 17 C109.30307602 16.9928447 108.32461212 16.98568939 107.3164978 16.97831726 C105.7081179 16.97428391 105.7081179 16.97428391 104.06724548 16.97016907 C102.9368837 16.96359787 101.80652191 16.95702667 100.64190674 16.95025635 C96.8933862 16.93051201 93.14490573 16.91885838 89.39634705 16.90888977 C88.11702553 16.90481424 86.83770401 16.90073872 85.51961517 16.89653969 C79.44715808 16.87782636 73.37472109 16.86326154 67.30224109 16.85492772 C60.30151568 16.84516042 53.30110689 16.81885242 46.300493 16.77842683 C40.23017813 16.744581 34.15999596 16.73277885 28.08959198 16.72872353 C25.51080935 16.72385019 22.93203029 16.71221511 20.35330963 16.69368553 C16.74337524 16.6693578 13.13426788 16.67024804 9.52427673 16.67720032 C8.46012039 16.66439026 7.39596405 16.6515802 6.29956055 16.63838196 C-0.7867471 16.68809791 -5.45529172 17.6122518 -10.61897278 22.81594849 C-13.24806996 26.84018668 -15.47844799 30.94144552 -17.41615295 35.34638977 C-17.7176828 36.0153125 -18.01921265 36.68423523 -18.32987976 37.37342834 C-18.96877653 38.79346829 -19.60422325 40.21506496 -20.23640442 41.6381073 C-21.22568268 43.86313329 -22.22605783 46.08287896 -23.22914124 48.30171204 C-26.09145391 54.64604147 -28.9205983 61.00009717 -31.62709045 67.41279602 C-36.69985179 79.35661637 -42.42899328 90.59704496 -54.96302795 96.14717102 C-60.71882798 98.14055127 -65.8363972 98.4297374 -71.90026855 98.39872742 C-72.88474112 98.40169756 -73.86921369 98.40466769 -74.88351876 98.40772784 C-78.17367198 98.41535043 -81.46364576 98.40888091 -84.75379944 98.40254211 C-87.11620708 98.40529279 -89.4786138 98.40897316 -91.84101868 98.41351318 C-96.92430305 98.42161951 -102.00754346 98.42379507 -107.09083366 98.42156601 C-114.44905467 98.41897199 -121.80720591 98.43012551 -129.16540671 98.44611581 C-141.11625081 98.47205728 -153.06709497 98.49208684 -165.01795959 98.50556946 C-165.73264076 98.50637983 -166.44732193 98.5071902 -167.1836601 98.50802512 C-177.3267546 98.51924766 -187.46984361 98.52452832 -197.61294348 98.52741225 C-198.68451044 98.52771823 -198.68451044 98.52771823 -199.77772522 98.5280304 C-200.84798069 98.5283303 -200.84798069 98.5283303 -201.93985748 98.52863626 C-213.84597004 98.53237163 -225.7519993 98.55147213 -237.65807015 98.58312476 C-245.64833757 98.60369729 -253.63835874 98.60570404 -261.62864864 98.59484458 C-266.60031924 98.59223814 -271.57184041 98.60623818 -276.54347229 98.62492561 C-278.84768186 98.63024943 -281.15191893 98.62874762 -283.45611763 98.61989021 C-286.60403712 98.60876608 -289.75094585 98.62220495 -292.89880371 98.64164734 C-293.80844468 98.63252268 -294.71808565 98.62339803 -295.6552915 98.61399686 C-303.15896455 98.70404864 -308.39294952 100.68883513 -313.83802795 105.89717102 C-318.22554074 112.6074847 -318.25417425 119.66317873 -318.21699524 127.43244934 C-318.22011522 128.44227765 -318.2232352 129.45210595 -318.22644973 130.49253511 C-318.234401 133.86249989 -318.22811722 137.23228316 -318.22181702 140.60224915 C-318.22452815 143.02391668 -318.22808977 145.44558339 -318.23243713 147.86724854 C-318.24060325 153.75370736 -318.23941743 159.64011937 -318.23361185 165.52657688 C-318.22908803 170.31226766 -318.22848557 175.09794416 -318.23065948 179.88363647 C-318.23096595 180.565757 -318.23127242 181.24787752 -318.23158817 181.95066836 C-318.23222765 183.33654925 -318.23287607 184.72243012 -318.23353335 186.108311 C-318.2392312 199.09201176 -318.23268732 212.07568423 -318.22193262 225.05938035 C-318.2129976 236.19070885 -318.2145498 247.32199562 -318.22377014 258.45332336 C-318.23448242 271.3917845 -318.23868193 284.33022087 -318.23254561 297.26868582 C-318.23190854 298.64935906 -318.2312798 300.03003231 -318.23065948 301.41070557 C-318.23019666 302.42958002 -318.23019666 302.42958002 -318.22972448 303.4690378 C-318.22800041 308.24685117 -318.23090642 313.02464879 -318.23561859 317.80245972 C-318.24182594 324.23749555 -318.23738222 330.67247122 -318.22583008 337.10750008 C-318.22318725 339.46815421 -318.22394214 341.82881498 -318.22835541 344.18946648 C-318.23382707 347.41369778 -318.22695683 350.63767739 -318.21699524 353.8618927 C-318.22145668 354.79419724 -318.22591813 355.72650178 -318.23051476 356.68705797 C-318.18296534 364.63151201 -317.35371223 371.90532606 -311.96302795 378.14717102 C-306.10291149 382.22301945 -300.62575839 382.71581846 -293.65756226 382.63250732 C-292.13964475 382.63846746 -292.13964475 382.63846746 -290.59106225 382.644548 C-287.21388043 382.65311177 -283.8374691 382.63333672 -280.46034241 382.61372375 C-278.03380733 382.61427267 -275.60727209 382.61664847 -273.18074036 382.62071228 C-267.9626384 382.62588423 -262.74469226 382.61924889 -257.52662086 382.60246086 C-249.97681105 382.57862963 -242.42718781 382.58165069 -234.87735607 382.5920893 C-222.619686 382.60877584 -210.36206194 382.61136764 -198.10438538 382.60151672 C-197.00511595 382.60064231 -197.00511595 382.60064231 -195.88363906 382.59975023 C-187.70237637 382.59301791 -179.52111766 382.58394063 -171.33985901 382.57344055 C-168.37009185 382.56970022 -165.4003246 382.56604072 -162.43055725 382.56245422 C-161.69769815 382.56156331 -160.96483904 382.5606724 -160.20977209 382.55975448 C-147.99289815 382.54546691 -135.7761131 382.55057793 -123.55924767 382.57037693 C-116.02709253 382.58170468 -108.49532267 382.57591716 -100.96320846 382.54809809 C-95.19651737 382.52810783 -89.43007217 382.53354115 -83.66337585 382.54840469 C-81.29661317 382.55026536 -78.92982603 382.54350934 -76.56311607 382.52760124 C-73.3374209 382.50709895 -70.11322088 382.5171308 -66.88754272 382.53485107 C-65.94649966 382.52144934 -65.0054566 382.5080476 -64.03589708 382.49423975 C-59.47535897 382.55205848 -57.57629493 382.67057773 -53.86838055 385.55214024 C-51.96302795 388.14717102 -51.96302795 388.14717102 -51.5528717 390.27998352 C-51.66759827 390.9374054 -51.78232483 391.59482727 -51.90052795 392.27217102 C-51.99205139 392.93474915 -52.08357483 393.59732727 -52.1778717 394.27998352 C-53.33036942 397.02074923 -54.32036893 397.69758604 -56.96302795 399.14717102 C-60.23612677 399.60289996 -63.4917583 399.55145506 -66.79179382 399.52812195 C-67.80087685 399.53280192 -68.80995988 399.53748189 -69.84962118 399.54230368 C-73.24123432 399.55429855 -76.63244675 399.54477854 -80.02406311 399.53535461 C-82.45174903 399.53941846 -84.8794331 399.54475929 -87.30711365 399.55128479 C-93.22422257 399.5635659 -99.14122694 399.56173756 -105.05833299 399.55304687 C-109.87032799 399.54627218 -114.68229101 399.54535268 -119.4942894 399.54861832 C-120.1791498 399.54907802 -120.8640102 399.54953771 -121.56962394 399.55001134 C-122.9609765 399.55097054 -124.35232905 399.55194318 -125.74368159 399.55292912 C-138.79754208 399.56148796 -151.85133943 399.55164316 -164.90518956 399.53552802 C-176.09393434 399.52214236 -187.28258567 399.52443747 -198.47132874 399.5382843 C-211.46911863 399.55436247 -224.46685302 399.560645 -237.46465147 399.55144751 C-238.85272494 399.5504919 -240.24079843 399.54954878 -241.62887192 399.54861832 C-242.31178419 399.54815549 -242.99469647 399.54769266 -243.69830305 399.54721581 C-248.49868215 399.54463128 -253.29902593 399.5489857 -258.09939957 399.55605698 C-264.57217194 399.56538215 -271.04480988 399.55867967 -277.51756668 399.54137421 C-279.89027617 399.53741564 -282.26300051 399.53853258 -284.63570404 399.5451622 C-287.88145421 399.55339306 -291.1266454 399.54303673 -294.37236023 399.52812195 C-295.30545851 399.53481411 -296.2385568 399.54150628 -297.19993079 399.54840124 C-307.32069025 399.45856255 -316.20194567 396.77072918 -323.96302795 390.14717102 C-332.72293388 380.96202695 -334.41216954 372.525284 -334.35070801 360.17991638 C-334.35609355 358.88156699 -334.36147908 357.5832176 -334.36702782 356.24552429 C-334.38144601 352.65713213 -334.37724916 349.06897036 -334.36986101 345.48056579 C-334.36512259 341.60451986 -334.37764516 337.72852329 -334.38787842 333.85249329 C-334.40505882 326.26487148 -334.40590798 318.67733251 -334.40066551 311.0896963 C-334.39662102 304.92100904 -334.3980707 298.75234622 -334.40341377 292.58366013 C-334.40416219 291.7050664 -334.40491062 290.82647267 -334.40568172 289.9212549 C-334.40721323 288.13627847 -334.40875157 286.35130206 -334.41029669 284.56632565 C-334.42401909 267.83370341 -334.41858596 251.10112794 -334.40711147 234.36850677 C-334.39718029 219.06945637 -334.41011824 203.77052692 -334.43404566 188.47149517 C-334.45844387 172.75270853 -334.4680427 157.03397822 -334.46139294 141.31517303 C-334.4579022 132.49416389 -334.46012312 123.67324776 -334.47764397 114.85225296 C-334.492375 107.34280998 -334.49298968 99.83352551 -334.47557306 92.32408561 C-334.46706788 88.49493803 -334.46490143 84.66607349 -334.48022461 80.83694077 C-334.49665114 76.68052936 -334.48190819 72.52479915 -334.4642334 68.36839294 C-334.47383841 67.16565676 -334.48344341 65.96292057 -334.49333948 64.72373784 C-334.40577712 54.70712247 -331.89379891 45.64784622 -324.96302795 38.14717102 C-315.16508322 29.21313109 -304.78054519 28.00105176 -291.95329285 27.98895264 C-290.84152361 27.98401466 -289.72975437 27.97907668 -288.58429515 27.97398907 C-284.85783909 27.95862727 -281.13140024 27.95025697 -277.40492249 27.94184875 C-274.73411815 27.9322692 -272.06331788 27.92230214 -269.39251709 27.91184998 C-263.6418695 27.89011754 -257.89121958 27.87196127 -252.14055252 27.85624504 C-243.82608961 27.83351693 -235.51165191 27.8053782 -227.19721042 27.77592576 C-213.70705136 27.72828589 -200.21688199 27.68501195 -186.72669983 27.64448547 C-173.62350156 27.6051122 -160.52031245 27.56368158 -147.41712952 27.51948547 C-146.60923006 27.5167612 -145.8013306 27.51403693 -144.96894933 27.5112301 C-140.91588972 27.49755032 -136.86283024 27.48383011 -132.80977082 27.47008979 C-99.1942088 27.35618165 -65.57862764 27.24935979 -31.96302795 27.14717102 C-31.49614563 26.18367737 -31.02926331 25.22018372 -30.54823303 24.22749329 C-29.92245205 22.95188537 -29.29637863 21.67642089 -28.6700592 20.40107727 C-28.36394714 19.7673822 -28.05783508 19.13368713 -27.7424469 18.48078918 C-23.20686249 9.28687518 -17.26928176 5.08443224 -7.96302795 1.14717102 C-5.01094376 0.16314296 -3.07861345 0.01476106 0 0 Z M-313.83802795 50.83467102 C-314.39232483 51.45728821 -314.9466217 52.0799054 -315.51771545 52.72138977 C-319.82357401 59.94824967 -319.20910273 68.0165344 -319.08802795 76.14717102 C-319.07900452 77.30346008 -319.06998108 78.45974915 -319.0606842 79.65107727 C-319.03727718 82.48332749 -319.00448791 85.31513721 -318.96302795 88.14717102 C-318.29916077 87.87002258 -317.63529358 87.59287415 -316.9513092 87.30732727 C-315.62679749 86.76398743 -315.62679749 86.76398743 -314.27552795 86.20967102 C-312.97035217 85.67019836 -312.97035217 85.67019836 -311.6388092 85.11982727 C-305.84640801 83.01426829 -300.39048179 83.00420696 -294.29753113 83.01586914 C-292.82845253 83.01269557 -292.82845253 83.01269557 -291.32969558 83.00945789 C-288.04486417 83.00346192 -284.76007121 83.00445775 -281.47523499 83.00532532 C-279.12135249 83.0022936 -276.76747057 82.99877211 -274.41358948 82.99479675 C-269.34282999 82.98690905 -264.27207754 82.98176335 -259.20131302 82.97850609 C-251.18419249 82.97259695 -243.1671081 82.95609837 -235.15000916 82.93716431 C-232.40571029 82.93080796 -229.66141132 82.92449948 -226.91711235 82.91818714 C-226.23132334 82.91660338 -225.54553434 82.91501962 -224.83896384 82.91338786 C-217.03640882 82.89545925 -209.23385083 82.87922856 -201.43128967 82.86421204 C-200.36166388 82.86214823 -200.36166388 82.86214823 -199.27042948 82.86004273 C-187.71332906 82.83810986 -176.15623961 82.82735527 -164.59912206 82.81984129 C-152.72810058 82.81176755 -140.8571729 82.7884703 -128.98620498 82.75188762 C-122.3232203 82.73185041 -115.66036039 82.7197292 -108.99733353 82.72472191 C-102.73131769 82.72936007 -96.46561413 82.71560798 -90.19966125 82.68770981 C-87.89987589 82.68078453 -85.60005834 82.68068576 -83.3002739 82.68791008 C-80.16064038 82.69677674 -77.02204151 82.68113911 -73.88249207 82.65942383 C-72.51745141 82.67208763 -72.51745141 82.67208763 -71.12483418 82.68500727 C-63.94612991 82.5931964 -59.70625467 80.75976789 -54.4200592 75.72529602 C-50.56094264 70.70196787 -48.22908632 64.6370482 -45.65052795 58.89717102 C-45.1007428 57.70092102 -44.55095764 56.50467102 -43.98451233 55.27217102 C-41.17165293 49.91394935 -41.17165293 49.91394935 -39.96302795 44.14717102 C-73.20409283 44.07849018 -106.44514005 44.02563477 -139.68626013 43.99397503 C-143.611524 43.99022295 -147.53678773 43.98633998 -151.46205139 43.9823761 C-152.24349398 43.98158917 -153.02493657 43.98080224 -153.83005923 43.97999146 C-166.47966872 43.96694092 -179.12923727 43.94328902 -191.77882248 43.91571263 C-204.76044101 43.88764864 -217.74203812 43.87099266 -230.72368574 43.86490554 C-238.73274152 43.86079116 -246.74168157 43.84780063 -254.75070173 43.82342162 C-260.89415256 43.80567496 -267.03751534 43.80380792 -273.18098831 43.80784798 C-275.69967486 43.8070224 -278.21836577 43.80105173 -280.73702621 43.7895546 C-284.17633144 43.77462451 -287.61514189 43.77821977 -291.05445862 43.78640747 C-292.05058434 43.77766895 -293.04671006 43.76893042 -294.07302141 43.75992709 C-301.60185684 43.80835687 -308.68130301 44.75269638 -313.83802795 50.83467102 Z " fill="#FD5800" transform="translate(333.96302795410156,36.85282897949219)"/>
<path d="M0 0 C0.80419373 -0.00807175 1.60838745 -0.01614349 2.43695068 -0.02445984 C4.1417017 -0.03830173 5.84648045 -0.04902342 7.55126953 -0.05688477 C10.14800244 -0.07406085 12.74344976 -0.11793959 15.33984375 -0.16210938 C16.99738648 -0.1722398 18.65494003 -0.18075481 20.3125 -0.1875 C21.08458801 -0.20500809 21.85667603 -0.22251617 22.65216064 -0.24055481 C29.34162326 -0.21388692 32.88735952 2.25000476 37.671875 6.92578125 C39.81934677 9.54384097 40.13057853 11.40517744 40.421875 14.73828125 C40.69535657 17.10093244 40.69535657 17.10093244 41.921875 19.23828125 C46.24031505 22.16823104 51.72310585 25.56387025 57.109375 25.015625 C59.02221164 24.19524894 60.757483 23.2379948 62.546875 22.17578125 C67.22002323 19.81314869 71.78804652 19.03690569 76.921875 20.23828125 C84.01836027 23.57005285 89.30160466 29.16667222 94.734375 34.67578125 C95.57935547 35.50916016 96.42433594 36.34253906 97.29492188 37.20117188 C102.85609473 42.78884754 107.34736111 47.39821226 107.359375 55.67578125 C107.22854914 61.0251053 105.8767762 63.85070068 102.921875 68.23828125 C101.66081671 71.12160548 101.940901 72.30528586 102.8203125 75.40234375 C105.20565711 81.86688747 105.20565711 81.86688747 110.046875 86.28515625 C111.56008941 86.50583335 113.08126682 86.6769882 114.60546875 86.80078125 C118.98114701 87.62721627 122.05587012 90.98052031 124.921875 94.23828125 C127.49156788 98.0391281 127.24502736 102.08927558 127.2578125 106.51171875 C127.2677977 107.7137645 127.2677977 107.7137645 127.27798462 108.94009399 C127.28809376 110.63289094 127.29280218 112.32572759 127.29248047 114.01855469 C127.29684858 116.59767937 127.3331699 119.17508472 127.37109375 121.75390625 C127.37696348 123.40233793 127.38093183 125.05077769 127.3828125 126.69921875 C127.39718353 127.46503265 127.41155457 128.23084656 127.42636108 129.01986694 C127.37007918 135.67319901 124.88363356 139.2309004 120.234375 143.98828125 C117.61631528 146.13575302 115.75497881 146.44698478 112.421875 146.73828125 C110.05922381 147.01176282 110.05922381 147.01176282 107.921875 148.23828125 C104.97726719 152.57832569 101.60257757 158.05090865 102.14453125 163.4609375 C102.98785995 165.53392127 102.98785995 165.53392127 104.984375 168.30078125 C107.72140102 172.96274865 107.90174661 177.99308618 106.921875 183.23828125 C103.82087093 190.24330422 98.48958804 195.15098506 93.109375 200.48828125 C92.23216797 201.38546875 91.35496094 202.28265625 90.45117188 203.20703125 C84.83480919 208.81919321 79.87651876 213.65991708 71.484375 213.67578125 C67.2991919 213.54722614 64.33055378 212.30750846 60.74609375 210.2109375 C57.42070853 208.43787343 55.71345789 208.03671107 51.9765625 208.98828125 C45.33518407 211.31035423 45.33518407 211.31035423 41.359375 216.67578125 C41.215 217.85140625 41.070625 219.02703125 40.921875 220.23828125 C38.63968505 226.12392901 34.5792233 230.4096071 28.921875 233.23828125 C26.29326631 233.3615323 23.69220415 233.42666834 21.0625 233.44140625 C20.28050232 233.44710632 19.49850464 233.4528064 18.69281006 233.4586792 C17.03512933 233.46813373 15.37742978 233.47466498 13.71972656 233.47851562 C11.19562441 233.48819022 8.67234739 233.51919536 6.1484375 233.55078125 C4.53646316 233.5573146 2.924483 233.56256377 1.3125 233.56640625 C0.56228577 233.57875305 -0.18792847 233.59109985 -0.96087646 233.6038208 C-6.42895229 233.58083208 -10.59026939 232.50271293 -14.6875 228.7734375 C-17.83714947 224.70693801 -19.89226953 221.94195638 -20.453125 216.80078125 C-22.77116501 211.71892431 -26.09996459 210.9667964 -31.1328125 208.98828125 C-35.63635214 207.84149132 -37.8999201 209.03970857 -41.765625 211.30078125 C-46.17749195 213.53536321 -50.20874591 214.28612232 -55.078125 213.23828125 C-62.72508529 210.25670597 -67.69712392 205.22012663 -73.390625 199.42578125 C-74.28330078 198.54857422 -75.17597656 197.67136719 -76.09570312 196.76757812 C-81.67513178 191.15456375 -86.49981914 186.16208202 -86.515625 177.80078125 C-86.38706989 173.61559815 -85.14735221 170.64696003 -83.05078125 167.0625 C-81.27771718 163.73711478 -80.87655482 162.02986414 -81.828125 158.29296875 C-84.12485399 151.67846493 -84.12485399 151.67846493 -89.453125 147.73828125 C-90.649375 147.57328125 -91.845625 147.40828125 -93.078125 147.23828125 C-98.41198007 145.00444451 -101.71432937 141.88823403 -105.078125 137.23828125 C-106.28529027 133.61678543 -106.25932784 130.27214473 -106.28125 126.5 C-106.28695007 125.74161331 -106.29265015 124.98322662 -106.29852295 124.20185852 C-106.30796356 122.59723298 -106.31450321 120.99258813 -106.31835938 119.38793945 C-106.32804827 116.9451267 -106.3590724 114.50316164 -106.390625 112.06054688 C-106.39715727 110.49870289 -106.40240686 108.93685291 -106.40625 107.375 C-106.4185968 106.6497966 -106.4309436 105.9245932 -106.44366455 105.17741394 C-106.41956454 99.63170115 -105.09997577 95.68964435 -101.5703125 91.41015625 C-98.20971531 88.45542828 -95.86498867 86.99721086 -91.390625 86.36328125 C-88.04940869 85.81677757 -88.04940869 85.81677757 -85.6875 83.5234375 C-84.65775469 81.46010455 -83.84074905 79.41301687 -83.078125 77.23828125 C-82.4284375 75.87703125 -82.4284375 75.87703125 -81.765625 74.48828125 C-80.95744083 71.84331489 -81.24279272 70.83655318 -82.078125 68.23828125 C-82.74074938 66.9955279 -83.42956233 65.76646905 -84.140625 64.55078125 C-86.37520696 60.1389143 -87.12596607 56.10766034 -86.078125 51.23828125 C-83.09654972 43.59132096 -78.05997038 38.61928233 -72.265625 32.92578125 C-71.38841797 32.03310547 -70.51121094 31.14042969 -69.60742188 30.22070312 C-63.74138637 24.38976731 -58.8063706 19.85363227 -50.140625 19.73828125 C-45.3949248 19.84646591 -42.62801656 21.31006003 -38.96484375 24.2421875 C-36.30874887 25.64447362 -34.91916446 25.06406531 -32.078125 24.23828125 C-31.21832031 23.99851562 -30.35851562 23.75875 -29.47265625 23.51171875 C-26.83881099 22.59525217 -24.47569594 21.66818392 -22.078125 20.23828125 C-20.5640372 16.93941338 -20.5640372 16.93941338 -20.078125 13.23828125 C-16.13332467 3.89428451 -9.95125321 0.09422027 0 0 Z M-3.078125 16.23828125 C-3.39128662 17.18678955 -3.70444824 18.13529785 -4.02709961 19.11254883 C-4.81433429 21.45377196 -5.63853301 23.67500919 -6.640625 25.92578125 C-8.09762397 29.15082095 -8.09762397 29.15082095 -9.078125 32.23828125 C-10.88989258 33.31787109 -10.88989258 33.31787109 -13.078125 34.23828125 C-13.72612061 34.52525879 -14.37411621 34.81223633 -15.04174805 35.10791016 C-17.2765392 36.04295807 -19.51969923 36.95531455 -21.765625 37.86328125 C-22.53068359 38.188125 -23.29574219 38.51296875 -24.08398438 38.84765625 C-30.232078 41.31310913 -36.1328274 42.56989661 -42.56640625 40.3984375 C-43.16839844 40.03621094 -43.77039063 39.67398438 -44.390625 39.30078125 C-48.02140578 37.1607804 -48.02140578 37.1607804 -52.078125 36.23828125 C-54.32671484 37.71052201 -54.32671484 37.71052201 -56.44140625 39.9375 C-57.24513672 40.73478516 -58.04886719 41.53207031 -58.87695312 42.35351562 C-59.70646484 43.20236328 -60.53597656 44.05121094 -61.390625 44.92578125 C-62.23947266 45.75529297 -63.08832031 46.58480469 -63.96289062 47.43945312 C-64.76017578 48.24318359 -65.55746094 49.04691406 -66.37890625 49.875 C-67.11278564 50.61451904 -67.84666504 51.35403809 -68.6027832 52.1159668 C-70.30545924 54.09392891 -70.30545924 54.09392891 -69.93823242 56.31958008 C-69.0221595 58.50914749 -69.0221595 58.50914749 -67.015625 61.30078125 C-64.20799296 66.24013392 -64.08059904 70.70299015 -65.078125 76.23828125 C-66.75892377 81.47353611 -68.95921022 86.51608771 -71.27246094 91.49951172 C-71.90123686 92.85652449 -72.48672088 94.23362083 -73.0546875 95.6171875 C-75.3616855 99.27140189 -79.81601485 99.7936043 -83.765625 100.80078125 C-87.2155912 101.46424729 -87.2155912 101.46424729 -90.078125 103.23828125 C-90.16570503 105.23793107 -90.18509076 107.24064235 -90.17578125 109.2421875 C-90.17255859 110.45712891 -90.16933594 111.67207031 -90.16601562 112.92382812 C-90.15763672 114.20322266 -90.14925781 115.48261719 -90.140625 116.80078125 C-90.13385742 118.72567383 -90.13385742 118.72567383 -90.12695312 120.68945312 C-90.11512045 123.87244147 -90.09863568 127.05533887 -90.078125 130.23828125 C-89.46251709 130.43526611 -88.84690918 130.63225098 -88.21264648 130.83520508 C-87.40384033 131.09841553 -86.59503418 131.36162598 -85.76171875 131.6328125 C-84.96048584 131.89167236 -84.15925293 132.15053223 -83.33374023 132.41723633 C-80.69149034 133.37901643 -78.4448129 134.73220713 -76.078125 136.23828125 C-75.418125 136.23828125 -74.758125 136.23828125 -74.078125 136.23828125 C-62.64689742 158.35020127 -62.64689742 158.35020127 -65.078125 168.23828125 C-66.24457977 170.5246876 -67.48326289 172.47833232 -69.08203125 174.484375 C-70.26895016 176.17409947 -70.26895016 176.17409947 -69.87011719 178.08886719 C-68.21306199 182.58600465 -64.10005803 185.72730774 -60.765625 189.05078125 C-59.60643555 190.25250977 -59.60643555 190.25250977 -58.42382812 191.47851562 C-57.67423828 192.23068359 -56.92464844 192.98285156 -56.15234375 193.7578125 C-55.46744873 194.44979736 -54.78255371 195.14178223 -54.0769043 195.85473633 C-52.18590762 197.48432094 -52.18590762 197.48432094 -49.93530273 197.01660156 C-47.99762554 196.20454492 -46.25917172 195.24788132 -44.453125 194.17578125 C-38.8508934 191.41051154 -34.04619312 190.93203458 -28.03564453 192.91064453 C-23.55951937 194.57611125 -19.17185307 196.43772149 -14.83300781 198.43261719 C-13.46822977 199.05918474 -12.08487499 199.64535092 -10.6953125 200.21484375 C-7.0453955 202.52469461 -6.52241348 206.97769448 -5.515625 210.92578125 C-4.85215896 214.37574745 -4.85215896 214.37574745 -3.078125 217.23828125 C-1.07847518 217.32586128 0.9242361 217.34524701 2.92578125 217.3359375 C4.14072266 217.33271484 5.35566406 217.32949219 6.60742188 217.32617188 C7.88681641 217.31779297 9.16621094 217.30941406 10.484375 217.30078125 C12.40926758 217.29401367 12.40926758 217.29401367 14.37304688 217.28710938 C17.55603522 217.2752767 20.73893262 217.25879193 23.921875 217.23828125 C24.11885986 216.62629883 24.31584473 216.01431641 24.51879883 215.38378906 C24.78200928 214.57780273 25.04521973 213.77181641 25.31640625 212.94140625 C25.57526611 212.14379883 25.83412598 211.34619141 26.10083008 210.52441406 C28.56115401 203.67384217 32.64491459 200.37676146 38.921875 197.23828125 C53.31285244 190.62424616 53.31285244 190.62424616 60.921875 192.23828125 C63.09524701 193.10763005 65.07789289 194.08425398 67.09765625 195.265625 C69.17446183 196.37295817 70.56430346 197.01110969 72.921875 197.23828125 C75.17046484 195.76604049 75.17046484 195.76604049 77.28515625 193.5390625 C78.08888672 192.74177734 78.89261719 191.94449219 79.72070312 191.12304688 C80.55021484 190.27419922 81.37972656 189.42535156 82.234375 188.55078125 C83.08322266 187.72126953 83.93207031 186.89175781 84.80664062 186.03710938 C85.60392578 185.23337891 86.40121094 184.42964844 87.22265625 183.6015625 C87.95653564 182.86204346 88.69041504 182.12252441 89.4465332 181.3605957 C91.16950498 179.37030054 91.16950498 179.37030054 90.71386719 177.07958984 C89.60279758 174.49645576 88.20984325 172.13323204 86.76171875 169.7265625 C84.20865551 162.16237047 86.46635466 155.51186763 89.546875 148.48828125 C89.87816406 147.66457031 90.20945312 146.84085938 90.55078125 145.9921875 C92.84389432 140.61851499 95.02571251 137.48151932 99.921875 134.23828125 C102.625 133.19921875 102.625 133.19921875 105.171875 132.61328125 C109.32315895 131.71162545 109.32315895 131.71162545 111.921875 128.23828125 C112.22988479 125.77063086 112.22988479 125.77063086 112.1875 123.01953125 C112.19007813 122.00503906 112.19265625 120.99054688 112.1953125 119.9453125 C112.18757812 118.88699219 112.17984375 117.82867187 112.171875 116.73828125 C112.17960938 115.67996094 112.18734375 114.62164062 112.1953125 113.53125 C112.19273437 112.51675781 112.19015625 111.50226563 112.1875 110.45703125 C112.18411621 109.06387695 112.18411621 109.06387695 112.18066406 107.64257812 C112.08112645 104.97614892 112.08112645 104.97614892 109.921875 102.23828125 C107.51863196 101.3824501 105.10978333 100.84899636 102.625 100.27734375 C97.12198974 98.16202478 94.11084952 95.10308823 91.5859375 89.91015625 C90.88893822 88.27681076 90.20951794 86.63586428 89.546875 84.98828125 C89.19238281 84.18003906 88.83789062 83.37179687 88.47265625 82.5390625 C85.88367129 76.29151193 84.54451004 70.31912535 86.76171875 63.75 C87.12394531 63.14800781 87.48617187 62.54601562 87.859375 61.92578125 C89.99937585 58.29500047 89.99937585 58.29500047 90.921875 54.23828125 C89.44963424 51.98969141 89.44963424 51.98969141 87.22265625 49.875 C86.42537109 49.07126953 85.62808594 48.26753906 84.80664062 47.43945312 C83.95779297 46.60994141 83.10894531 45.78042969 82.234375 44.92578125 C81.40486328 44.07693359 80.57535156 43.22808594 79.72070312 42.35351562 C78.91697266 41.55623047 78.11324219 40.75894531 77.28515625 39.9375 C76.54563721 39.20362061 75.80611816 38.46974121 75.04418945 37.71362305 C73.05389429 35.99065127 73.05389429 35.99065127 70.76318359 36.44628906 C68.18004951 37.55735867 65.81682579 38.950313 63.41015625 40.3984375 C55.84596422 42.95150074 49.19546138 40.69380159 42.171875 37.61328125 C41.34816406 37.28199219 40.52445313 36.95070313 39.67578125 36.609375 C33.36593573 33.91676781 29.47167678 31.06367226 26.8125 24.5 C26.60109375 23.65050781 26.3896875 22.80101562 26.171875 21.92578125 C25.56001362 18.80160842 25.56001362 18.80160842 23.921875 16.23828125 C21.92222518 16.15070122 19.9195139 16.13131549 17.91796875 16.140625 C16.09555664 16.14545898 16.09555664 16.14545898 14.23632812 16.15039062 C12.95693359 16.15876953 11.67753906 16.16714844 10.359375 16.17578125 C8.43448242 16.18254883 8.43448242 16.18254883 6.47070312 16.18945312 C3.28771478 16.2012858 0.10481738 16.21777057 -3.078125 16.23828125 Z " fill="#FD5800" transform="translate(385.078125,241.76171875)"/>
<path d="M0 0 C10.99029871 8.44376608 18.87114548 20.08211152 21 34 C22.08287587 51.04198097 18.65311254 64.64970156 7.8125 78.1875 C-0.56517481 87.32174897 -13.19175505 93.49832559 -25.56640625 94.203125 C-41.47243927 94.38970603 -55.1558189 91.14089799 -67.15625 79.9765625 C-78.29571456 68.03467889 -82.51919371 54.85811226 -82.24609375 38.77734375 C-81.3740747 25.39254334 -75.8350269 13.2093393 -66 4 C-47.19127529 -11.66848545 -20.47853535 -14.33497475 0 0 Z M-58.78515625 20.1015625 C-64.87557863 28.57128993 -67.05379883 37.65496079 -66 48 C-64.32236847 57.92976501 -59.20412363 65.95668687 -51.125 71.9375 C-42.3724309 77.51808541 -34.37766182 79.08977833 -24 78 C-14.28063408 75.84583974 -6.39583073 70.74953565 -0.625 62.625 C5.01733864 53.31514124 6.72949986 43.80333866 4.34375 33.0390625 C0.95960395 22.62406128 -5.33571545 15.11060471 -15 10 C-30.25728508 2.56840727 -48.03442093 7.4453358 -58.78515625 20.1015625 Z " fill="#FD5800" transform="translate(426,316)"/>
<path d="M0 0 C1.27608124 -0.01226624 1.27608124 -0.01226624 2.57794189 -0.02478027 C5.39456479 -0.04960346 8.21113748 -0.06614052 11.02783203 -0.08056641 C12.4706423 -0.08855192 12.4706423 -0.08855192 13.94260025 -0.09669876 C19.03171237 -0.12341424 24.12080007 -0.14279612 29.20996094 -0.15722656 C34.4682939 -0.17389001 39.72600202 -0.21868656 44.98409843 -0.26959801 C49.02642548 -0.30323119 53.06860328 -0.31479953 57.11105728 -0.32045364 C59.04956983 -0.32717467 60.98807227 -0.34241879 62.92644882 -0.36634445 C65.63898699 -0.39792121 68.34982672 -0.39804454 71.0625 -0.390625 C71.86267548 -0.40703033 72.66285095 -0.42343567 73.48727417 -0.44033813 C77.5425246 -0.39493534 79.42735731 0.01010739 82.65896606 2.5418396 C84.66064453 5.19287109 84.66064453 5.19287109 85.28564453 8.19287109 C84.42796732 12.3097217 82.95835467 13.60822557 79.66064453 16.19287109 C76.58763779 16.68727167 74.0710297 16.87835847 71.00244141 16.83984375 C69.71129173 16.85298615 69.71129173 16.85298615 68.39405823 16.86639404 C65.55532071 16.88835921 62.71814724 16.87384584 59.87939453 16.85693359 C57.90311383 16.86030256 55.92683514 16.86515586 53.95056152 16.87142944 C49.81124113 16.87879686 45.67246069 16.86809935 41.53320312 16.84472656 C36.22993746 16.816239 30.92793696 16.83264365 25.62471771 16.86258888 C21.54456059 16.8806653 17.46470293 16.87490222 13.38453674 16.86194992 C11.42932485 16.85861687 9.47408568 16.86269944 7.51890564 16.87434769 C4.78482152 16.88706206 2.0527798 16.86767198 -0.68115234 16.83984375 C-1.48753647 16.8499649 -2.29392059 16.86008606 -3.1247406 16.87051392 C-7.18491484 16.79403518 -9.10976435 16.37205264 -12.34924316 13.84384155 C-14.33935547 11.19287109 -14.33935547 11.19287109 -14.83935547 8.13037109 C-14.29190739 4.91411362 -13.63178637 3.48530199 -11.33935547 1.19287109 C-7.53988979 -0.07361747 -3.96019488 0.02097703 0 0 Z " fill="#FD5800" transform="translate(68.33935546875,174.80712890625)"/>
<path d="M0 0 C0.81985382 -0.0049649 1.63970764 -0.00992981 2.48440552 -0.01504517 C5.19884071 -0.02965944 7.91321746 -0.03646777 10.62768555 -0.04199219 C12.51474509 -0.0477445 14.40180462 -0.05350222 16.28886414 -0.05926514 C20.24742912 -0.06977321 24.20597381 -0.07561706 28.16455078 -0.07910156 C33.23204532 -0.08458411 38.29927088 -0.10860784 43.3666811 -0.13707352 C47.26579059 -0.15571617 51.16483553 -0.16090638 55.06398582 -0.16243744 C56.93186093 -0.16546111 58.79973498 -0.17348 60.6675663 -0.18662262 C63.28379274 -0.20371621 65.89936506 -0.20179479 68.515625 -0.1953125 C69.66841698 -0.20913467 69.66841698 -0.20913467 70.84449768 -0.22323608 C75.61424919 -0.186297 78.91084334 0.60645672 82.9519043 3.16113281 C84.49777305 6.25287033 84.24549951 8.75542834 83.9519043 12.16113281 C82.47888184 14.35435486 82.47888184 14.35435486 79.9519043 16.16113281 C76.9165983 16.56078396 74.2432939 16.71843971 71.20776367 16.69458008 C70.32602982 16.70319565 69.44429596 16.71181122 68.5358429 16.72068787 C65.62214785 16.7433852 62.70941158 16.73660249 59.7956543 16.72753906 C57.77070835 16.73277274 55.74576484 16.73904828 53.7208252 16.74632263 C49.47725959 16.75673362 45.23402917 16.7521549 40.99047852 16.73754883 C35.54924836 16.72035454 30.10907351 16.74386084 24.66796112 16.77903843 C20.48664334 16.80098542 16.30557916 16.79957757 12.1242218 16.79127312 C10.11793357 16.79045222 8.11162698 16.79734189 6.10539246 16.81204414 C3.30161404 16.82944148 0.49974601 16.81498847 -2.30395508 16.79223633 C-3.134207 16.80392853 -3.96445892 16.81562073 -4.81987 16.82766724 C-8.75391664 16.7626282 -10.63715201 16.53380316 -13.59851074 13.84825134 C-15.57701836 10.18066053 -15.14762245 8.11942912 -14.0480957 4.16113281 C-10.54264377 -0.61902891 -5.41343167 0.00781235 0 0 Z " fill="#FD5800" transform="translate(69.048095703125,211.8388671875)"/>
</svg>
