<svg width="36" height="36" viewBox="0 0 36 36" fill="none" xmlns="http://www.w3.org/2000/svg">
<path d="M26.0973 1.81513C26.7753 2.52934 26.813 3.48739 26.9276 4.41587C26.9459 4.55799 26.9642 4.70011 26.9827 4.84221C27.0307 5.21425 27.0777 5.58643 27.1244 5.95865C27.1996 6.55637 27.2765 7.15387 27.3533 7.75139C27.38 7.96006 27.4062 8.16877 27.4324 8.37749C27.4486 8.50458 27.4647 8.63167 27.4809 8.75877C27.488 8.81699 27.4952 8.87521 27.5027 8.93519C27.535 9.22231 27.535 9.22231 27.6321 9.49155C27.6818 9.41547 27.6818 9.41547 27.7325 9.33785C28.0462 8.85741 28.3607 8.3775 28.6759 7.89803C28.8695 7.60333 29.062 7.30794 29.2537 7.01198C29.3771 6.82183 29.5012 6.63219 29.6256 6.44265C29.6846 6.35227 29.7433 6.26167 29.8017 6.17086C30.2392 5.49085 30.7086 4.82256 31.5037 4.54304C32.2106 4.39357 32.9906 4.418 33.6161 4.80094C34.2395 5.23838 34.6236 5.76504 34.7713 6.51975C34.8865 7.45696 34.5449 8.14376 34.038 8.90296C33.989 8.97713 33.989 8.97713 33.9391 9.05279C33.8336 9.21242 33.7278 9.37176 33.6219 9.5311C33.5484 9.64225 33.4749 9.75342 33.4015 9.86461C33.2559 10.085 33.1102 10.3053 32.9645 10.5255C32.7087 10.9122 32.4553 11.3003 32.2024 11.6888C32.1613 11.752 32.1201 11.8152 32.0777 11.8804C31.9963 12.0053 31.915 12.1302 31.8337 12.2552C31.6589 12.5236 31.4839 12.7918 31.3088 13.06C30.9015 13.6843 30.4945 14.3087 30.0889 14.9341C29.8777 15.2593 29.6656 15.5839 29.4526 15.9078C29.4041 15.9817 29.3557 16.0555 29.3058 16.1316C29.2112 16.2756 29.1165 16.4195 29.0215 16.5633C28.9788 16.6283 28.9362 16.6934 28.8923 16.7604C28.8543 16.8181 28.8163 16.8758 28.7771 16.9352C28.6093 17.2142 28.6171 17.3933 28.6588 17.708C28.6699 17.794 28.6811 17.8799 28.6925 17.9685C28.7054 18.0639 28.7183 18.1593 28.7312 18.2547C28.7444 18.3551 28.7575 18.4555 28.7706 18.5558C28.799 18.7721 28.8276 18.9884 28.8565 19.2047C28.9022 19.5468 28.9472 19.889 28.992 20.2312C29.0794 20.8962 29.1674 21.5612 29.2555 22.2261C29.3675 23.0715 29.4791 23.9169 29.5902 24.7623C29.6349 25.1023 29.6799 25.4422 29.7251 25.7821C29.7533 25.994 29.7812 26.2059 29.809 26.4178C29.8219 26.5158 29.835 26.6138 29.8481 26.7117C29.8661 26.8459 29.8837 26.9801 29.9013 27.1144C29.9162 27.2268 29.9162 27.2268 29.9314 27.3416C29.9936 27.9918 29.9082 28.5956 29.552 29.1554C29.0095 29.8121 28.3176 30.0293 27.4947 30.1147C27.4216 30.121 27.3485 30.1273 27.2732 30.1338C26.1433 30.2345 25.1049 30.4748 24.0231 30.8089C23.8789 30.8527 23.7347 30.8964 23.5905 30.9401C23.2871 31.0321 22.9839 31.1245 22.6808 31.2174C22.2251 31.3568 21.769 31.4946 21.3127 31.632C20.6982 31.8171 20.0838 32.0026 19.4695 32.1885C18.8245 32.3836 18.1795 32.5784 17.5344 32.773C17.4531 32.7975 17.3717 32.822 17.2879 32.8473C16.9644 32.9449 16.6408 33.0424 16.3173 33.14C15.4635 33.3974 14.61 33.6555 13.7572 33.9162C13.4005 34.0253 13.0435 34.1333 12.6864 34.2411C12.5336 34.2875 12.3808 34.3343 12.2283 34.3816C10.456 34.9302 10.456 34.9302 9.53408 34.5497C8.81634 34.1688 8.48414 33.5776 8.24078 32.8232C8.20037 32.6893 8.16065 32.5553 8.12151 32.4211C8.08736 32.3071 8.08736 32.3071 8.05252 32.1907C7.98864 31.977 7.92535 31.7631 7.86226 31.5491C7.79183 31.3108 7.72059 31.0727 7.64943 30.8346C7.53571 30.454 7.42224 30.0732 7.30902 29.6924C7.0426 28.7964 6.77432 27.901 6.5057 27.0057C6.47105 26.8902 6.47105 26.8902 6.4357 26.7724C6.34006 26.4536 6.24441 26.1349 6.14875 25.8161C6.0003 25.3215 5.85193 24.8268 5.70362 24.3321C5.04886 22.1482 4.39171 19.965 3.73221 17.7824C3.56514 17.2295 3.39818 16.6766 3.23129 16.1236C3.20843 16.0479 3.18556 15.9721 3.16201 15.8941C3.07219 15.5965 2.98239 15.2989 2.89259 15.0014C2.66153 14.2357 2.43023 13.4701 2.19798 12.7048C2.06582 12.2692 1.93424 11.8334 1.80295 11.3975C1.7529 11.2317 1.70262 11.066 1.65209 10.9004C1.58553 10.6822 1.51976 10.4637 1.45418 10.2452C1.43556 10.1849 1.41693 10.1245 1.39773 10.0624C1.18593 9.34898 1.10595 8.66386 1.41903 7.96995C1.98622 6.93756 3.08561 6.70968 4.14858 6.39863C4.27255 6.36192 4.27255 6.36192 4.39903 6.32447C4.57168 6.27343 4.74438 6.22257 4.91713 6.17188C5.18261 6.09395 5.4479 6.01542 5.71317 5.93679C5.88157 5.88709 6.04998 5.83742 6.21841 5.78779C6.29786 5.76428 6.37732 5.74078 6.45919 5.71656C6.53224 5.69517 6.6053 5.67378 6.68057 5.65175C6.74495 5.63282 6.80933 5.6139 6.87567 5.5944C7.03057 5.55405 7.03057 5.55405 7.1712 5.55405C7.14799 5.48444 7.12479 5.41483 7.10088 5.34312C7.14875 4.71172 7.39365 4.17465 7.85235 3.73911C8.48889 3.23895 9.22984 3.15821 10.0103 3.06005C10.1257 3.04484 10.2411 3.02955 10.3564 3.01418C10.6688 2.97281 10.9814 2.93258 11.294 2.89256C11.6249 2.84998 11.9557 2.80634 12.2866 2.76281C12.9161 2.68015 13.5457 2.59844 14.1754 2.51707C14.8793 2.42607 15.583 2.33405 16.2868 2.24191C17.1658 2.12683 18.0449 2.01192 18.9241 1.89824C18.9886 1.88989 19.0532 1.88155 19.1196 1.87295C19.1835 1.86469 19.2473 1.85643 19.3131 1.84793C19.4399 1.83152 19.5667 1.81512 19.6936 1.79872C19.7552 1.79074 19.8169 1.78277 19.8805 1.77455C20.6472 1.67533 21.4135 1.57387 22.1795 1.46899C22.3331 1.44815 22.4867 1.42733 22.6403 1.40651C22.9034 1.37087 23.1663 1.33422 23.4291 1.29686C24.4229 1.15975 25.2856 1.13332 26.0973 1.81513ZM22.6544 2.56203C22.5134 2.58054 22.3724 2.59902 22.2315 2.61746C21.8501 2.66746 21.4687 2.71803 21.0874 2.76871C20.6876 2.82178 20.2877 2.87436 19.8877 2.92701C19.2163 3.01548 18.5448 3.10431 17.8734 3.19337C17.0982 3.29618 16.323 3.39852 15.5477 3.50058C14.8006 3.59893 14.0535 3.69756 13.3064 3.79633C12.9891 3.83829 12.6718 3.88017 12.3544 3.92198C11.9804 3.97127 11.6064 4.02081 11.2325 4.07053C11.0956 4.08869 10.9587 4.10677 10.8218 4.12477C9.50625 4.20598 9.50625 4.20598 8.43682 4.85093C8.09932 5.41645 8.32687 6.24798 8.41003 6.8644C8.42244 6.95915 8.43481 7.0539 8.44714 7.14866C8.4809 7.40709 8.51527 7.66542 8.54974 7.92375C8.58692 8.20314 8.62352 8.48261 8.66018 8.76207C8.72374 9.24583 8.78766 9.72954 8.85183 10.2132C8.94476 10.9137 9.03713 11.6142 9.12937 12.3147C9.27926 13.453 9.4296 14.5912 9.58022 15.7294C9.72614 16.832 9.87185 17.9347 10.0173 19.0374C10.0262 19.1053 10.0352 19.1732 10.0444 19.2431C10.0893 19.5838 10.1342 19.9245 10.1792 20.2652C10.4538 22.3482 10.7288 24.4312 11.0042 26.5142C11.0258 26.6773 11.0474 26.8404 11.0689 27.0035C11.1024 27.2567 11.1359 27.5099 11.1694 27.7631C11.187 27.8966 11.2047 28.03 11.2223 28.1635C11.2438 28.3259 11.2654 28.4883 11.2872 28.6506C11.3104 28.8278 11.3329 29.005 11.3546 29.1823C11.3605 29.2298 11.3665 29.2773 11.3726 29.3262C11.3892 29.4589 11.4055 29.5917 11.4217 29.7246C11.4896 30.126 11.6224 30.4017 11.9217 30.6864C12.4111 31.0001 13.0302 30.8667 13.5786 30.7932C13.64 30.7853 13.7015 30.7775 13.7647 30.7693C13.9688 30.743 14.1728 30.7161 14.3768 30.6892C14.5237 30.6701 14.6707 30.651 14.8176 30.632C15.2156 30.5804 15.6134 30.5282 16.0113 30.476C16.3436 30.4323 16.676 30.3889 17.0084 30.3455C17.7923 30.243 18.5762 30.1402 19.3601 30.037C20.1686 29.9306 20.9773 29.8251 21.7861 29.72C22.4809 29.6296 23.1756 29.5387 23.8702 29.4473C24.285 29.3928 24.6997 29.3384 25.1145 29.2847C25.5043 29.2342 25.8941 29.183 26.2837 29.1311C26.4267 29.1123 26.5697 29.0936 26.7128 29.0753C26.9081 29.0502 27.1032 29.0242 27.2983 28.9979C27.355 28.9909 27.4116 28.9838 27.4699 28.9766C27.8846 28.9192 28.267 28.8194 28.533 28.4715C28.9493 27.9125 28.7439 27.1368 28.6561 26.4832C28.6453 26.4003 28.6346 26.3173 28.6235 26.2318C28.5943 26.0068 28.5646 25.7818 28.5346 25.5568C28.5096 25.3686 28.4849 25.1804 28.4602 24.9921C28.402 24.5485 28.3433 24.105 28.2842 23.6615C28.2233 23.2039 28.1632 22.7462 28.1035 22.2884C28.0522 21.8946 28.0003 21.5009 27.948 21.1072C27.9169 20.8723 27.8859 20.6375 27.8553 20.4025C27.8213 20.1415 27.7864 19.8807 27.7514 19.6198C27.7414 19.5417 27.7313 19.4636 27.721 19.3832C27.7114 19.3126 27.7017 19.2421 27.6918 19.1694C27.6795 19.0769 27.6795 19.0769 27.667 18.9825C27.6555 18.9365 27.644 18.8905 27.6321 18.8431C27.5857 18.8199 27.5393 18.7967 27.4915 18.7728C27.4654 18.8141 27.4392 18.8555 27.4123 18.8981C26.9362 19.6504 26.4595 20.4018 25.9614 21.1398C25.8566 21.2951 25.7546 21.4513 25.6532 21.6089C25.2352 22.2563 24.7769 22.6943 24.1791 23.1753C23.9764 23.3427 23.7825 23.5166 23.5892 23.6947C23.2149 24.0389 22.8258 24.3613 22.429 24.6791C22.3713 24.7294 22.3135 24.7798 22.2541 24.8318C21.9334 25.0651 21.5381 25.1168 21.1461 25.0902C20.8002 25.0194 20.4896 24.8703 20.2493 24.6087C19.9939 24.1642 19.8936 23.7445 20.0081 23.2358C20.0617 23.0375 20.1194 22.8409 20.179 22.6444C20.1991 22.5762 20.2193 22.508 20.24 22.4377C20.2894 22.2706 20.3395 22.1037 20.3899 21.9369C19.6571 21.9773 18.9346 22.061 18.2076 22.1579C18.0125 22.1838 17.8173 22.2094 17.6222 22.235C17.2088 22.2891 16.7955 22.3437 16.3821 22.3983C15.9008 22.4619 15.4193 22.5253 14.9379 22.5883C14.7462 22.6135 14.5545 22.639 14.3628 22.6645C14.2452 22.6799 14.1275 22.6953 14.0099 22.7107C13.9571 22.7179 13.9043 22.725 13.8498 22.7323C13.0803 22.832 13.0803 22.832 12.8006 22.6356C12.6556 22.4291 12.6556 22.4291 12.6468 22.1742C12.7259 21.9369 12.7259 21.9369 12.8626 21.8236C13.163 21.687 13.4562 21.6536 13.7819 21.6127C13.8526 21.6032 13.9233 21.5937 13.9962 21.5839C14.2295 21.5527 14.463 21.5226 14.6966 21.4925C14.859 21.4709 15.0214 21.4493 15.1839 21.4277C15.6114 21.3708 16.0391 21.3149 16.4668 21.2592C16.9015 21.2025 17.3361 21.1449 17.7707 21.0873C18.2592 21.0227 18.7477 20.9581 19.2363 20.8942C19.3107 20.8844 19.3851 20.8747 19.4618 20.8647C19.6003 20.8465 19.7388 20.8284 19.8773 20.8104C20.1899 20.7695 20.5012 20.7258 20.8118 20.6712C20.8333 20.5937 20.8548 20.5163 20.8769 20.4364C21.1059 19.6592 21.4285 19.038 21.8914 18.3765C22.0683 18.1224 22.2405 17.8652 22.4127 17.6078C22.5016 17.475 22.5909 17.3425 22.6807 17.2103C22.7414 17.1203 22.7414 17.1203 22.8034 17.0285C22.8397 16.9749 22.876 16.9214 22.9134 16.8663C23.0034 16.7392 23.0034 16.7392 22.9915 16.5931C22.9245 16.6021 22.9245 16.6021 22.8562 16.6113C22.3874 16.6744 21.9185 16.7371 21.4496 16.7995C21.275 16.8228 21.1005 16.8462 20.9261 16.8697C20.6739 16.9036 20.4216 16.9372 20.1694 16.9708C20.0926 16.9812 20.0158 16.9916 19.9367 17.0023C19.5481 17.0536 19.1592 17.0993 18.769 17.1364C18.6588 17.1471 18.6588 17.1471 18.5465 17.158C18.3411 17.1555 18.2385 17.1291 18.0696 17.015C17.9624 16.8005 17.9828 16.6183 17.9993 16.3822C18.1454 16.189 18.2711 16.1382 18.5058 16.0971C18.5685 16.0861 18.6312 16.0751 18.6959 16.0638C19.0855 16.0044 19.4758 15.951 19.8667 15.9007C20.0237 15.8805 20.1807 15.86 20.3376 15.8395C20.67 15.796 21.0024 15.7529 21.3348 15.7098C21.722 15.6596 22.1091 15.6093 22.4963 15.5586C22.6507 15.5384 22.8053 15.5185 22.9598 15.4986C23.0542 15.4863 23.1486 15.474 23.2429 15.4616C23.3253 15.451 23.4076 15.4403 23.4925 15.4293C23.8033 15.3845 23.8033 15.3845 24.0216 15.1749C24.0632 15.1083 24.1047 15.0418 24.1475 14.9732C24.194 14.8995 24.2405 14.8258 24.2884 14.7499C24.3127 14.7108 24.337 14.6716 24.362 14.6313C24.4631 14.4686 24.5655 14.3066 24.6677 14.1447C24.7186 14.0641 24.7694 13.9835 24.8201 13.9029C25.0089 13.6028 25.202 13.3059 25.3997 13.0116C25.4262 12.9718 25.4526 12.932 25.4799 12.8909C25.6376 12.6545 25.7995 12.4216 25.9639 12.1898C26.003 12.1336 26.0421 12.0774 26.0824 12.0195C26.1583 11.9106 26.2352 11.8024 26.3133 11.695C26.3477 11.6452 26.3821 11.5954 26.4176 11.5441C26.4485 11.5007 26.4793 11.4573 26.5112 11.4127C26.6882 10.9766 26.5519 10.4145 26.4904 9.96067C26.4812 9.89017 26.4719 9.81967 26.4624 9.74703C26.4318 9.51533 26.4007 9.28371 26.3695 9.0521C26.348 8.89031 26.3264 8.72851 26.3048 8.56671C26.2596 8.22814 26.2141 7.8896 26.1685 7.55109C26.1101 7.11806 26.0526 6.68491 25.9954 6.25172C25.9512 5.91772 25.9063 5.58381 25.8613 5.24991C25.8399 5.09027 25.8187 4.93059 25.7977 4.77089C25.7682 4.54736 25.7379 4.32395 25.7074 4.10056C25.6989 4.03509 25.6905 3.96962 25.6818 3.90216C25.5823 3.18122 25.5823 3.18122 25.1712 2.60532C24.4947 2.14025 23.4216 2.45942 22.6544 2.56203ZM31.3105 6.06164C31.2745 6.11828 31.2385 6.17492 31.2013 6.23328C31.1646 6.29039 31.1278 6.3475 31.09 6.40633C31.049 6.47172 31.049 6.47172 31.0071 6.53843C31.056 6.57103 31.105 6.60364 31.1553 6.63724C32.6946 7.66343 32.6946 7.66343 32.9224 7.82115C33.0979 7.95726 33.0979 7.95726 33.2571 7.94468C33.5564 7.50226 33.692 7.14499 33.6087 6.60874C33.4624 6.20069 33.2117 5.94439 32.8528 5.70786C32.3007 5.50613 31.684 5.56983 31.3105 6.06164ZM6.64389 6.85463C6.56644 6.87765 6.48899 6.90067 6.40919 6.9244C6.32584 6.94966 6.24249 6.97492 6.15661 7.00095C6.07061 7.02682 5.98461 7.05268 5.89601 7.07933C5.71402 7.13422 5.5321 7.18928 5.35024 7.24461C5.11815 7.31517 4.88578 7.38473 4.65331 7.45403C4.43058 7.52063 4.20816 7.58824 3.98571 7.65574C3.86111 7.69278 3.86111 7.69278 3.73399 7.73057C3.23353 7.88419 2.85697 8.01571 2.5042 8.41489C2.27609 8.87989 2.38569 9.36116 2.53608 9.83779C2.55183 9.8902 2.56758 9.9426 2.58381 9.99659C2.63637 10.1707 2.69018 10.3445 2.74398 10.5182C2.78218 10.6439 2.82029 10.7696 2.85834 10.8953C2.94057 11.1665 3.02336 11.4375 3.10656 11.7084C3.24045 12.1443 3.37312 12.5806 3.50561 13.0169C3.64569 13.4781 3.78586 13.9392 3.92645 14.4002C4.255 15.4775 4.58125 16.5555 4.90554 17.6341C4.92793 17.7085 4.95032 17.783 4.97339 17.8597C5.08652 18.236 5.1996 18.6124 5.31267 18.9887C5.51724 19.6695 5.7222 20.3502 5.92712 21.0309C6.04052 21.4076 6.15389 21.7843 6.26726 22.161C6.28963 22.2353 6.312 22.3096 6.33505 22.3862C6.51605 22.9876 6.69698 23.589 6.8779 24.1904C7.05465 24.778 7.23144 25.3655 7.40824 25.953C7.51094 26.2943 7.61362 26.6356 7.71625 26.9769C7.92138 27.659 8.1268 28.341 8.33278 29.0228C8.45798 29.4374 8.58249 29.8523 8.70674 30.2672C8.79664 30.5671 8.88695 30.8669 8.97734 31.1666C9.02073 31.3109 9.06396 31.4551 9.10701 31.5995C9.16675 31.7996 9.22709 31.9996 9.28756 32.1996C9.30511 32.2589 9.32266 32.3183 9.34075 32.3794C9.49555 32.8874 9.67455 33.2271 10.1243 33.5384C10.6282 33.6924 11.0819 33.498 11.5682 33.3475C11.6641 33.3187 11.76 33.2899 11.8559 33.2612C12.0618 33.1995 12.2674 33.1372 12.4729 33.0744C12.8 32.9746 13.1276 32.8764 13.4553 32.7784C14.079 32.5918 14.7021 32.4038 15.3252 32.2154C15.6204 32.1262 15.9157 32.0371 16.2109 31.948C16.7836 31.7752 17.3563 31.6022 17.929 31.4291C17.929 31.4059 17.929 31.3826 17.929 31.3587C17.3002 31.3865 16.6809 31.4595 16.0575 31.5436C15.9364 31.5599 15.9364 31.5599 15.813 31.5765C15.4755 31.6221 15.1381 31.668 14.8008 31.7148C11.9336 32.1111 11.9336 32.1111 11.0867 31.4818C10.3641 30.7423 10.322 29.7359 10.1951 28.7503C10.1825 28.6546 10.1698 28.5589 10.1572 28.4632C10.1228 28.2034 10.0889 27.9434 10.0552 27.6835C10.0185 27.402 9.98138 27.1206 9.94431 26.8392C9.88029 26.3526 9.81656 25.866 9.75303 25.3794C9.66117 24.6759 9.56888 23.9724 9.47647 23.2689C9.32653 22.1273 9.17695 20.9856 9.02759 19.844C8.88258 18.7355 8.7374 17.627 8.59198 16.5186C8.57852 16.416 8.57852 16.416 8.56479 16.3113C8.51975 15.968 8.47472 15.6248 8.42968 15.2815C8.05655 12.4375 7.68399 9.59346 7.31182 6.74937C7.05169 6.74937 6.88926 6.78112 6.64389 6.85463ZM30.304 7.5228C30.13 7.83605 30.13 7.83605 29.9524 8.15562C29.996 8.18323 30.0395 8.21084 30.0844 8.23928C30.2851 8.36659 30.4857 8.49401 30.6863 8.62144C30.7548 8.66485 30.8233 8.70827 30.8938 8.753C31.3101 9.01753 31.7232 9.28615 32.1321 9.56187C32.3019 9.35819 32.4405 9.16826 32.554 8.92905C32.5051 8.89645 32.4562 8.86384 32.4058 8.83025C30.8665 7.80405 30.8665 7.80405 30.6387 7.64633C30.4632 7.51022 30.4632 7.51022 30.304 7.5228ZM29.2493 9.13999C29.1522 9.24817 29.1522 9.24817 29.0689 9.39515C29.0351 9.44996 29.0014 9.50477 28.9666 9.56125C28.913 9.65074 28.913 9.65074 28.8582 9.74204C28.7818 9.86635 28.7052 9.99058 28.6286 10.1148C28.5907 10.1765 28.5527 10.2383 28.5137 10.302C28.3699 10.5334 28.2197 10.76 28.0672 10.9857C27.7733 11.4227 27.4845 11.8628 27.1971 12.3041C27.1521 12.3731 27.1072 12.4421 27.0609 12.5132C26.9688 12.6546 26.8767 12.7961 26.7846 12.9375C26.5663 13.2729 26.3478 13.608 26.1292 13.9432C26.0861 14.0093 26.043 14.0755 25.9986 14.1436C25.6142 14.7328 25.2292 15.3217 24.8441 15.9104C24.6015 16.2813 24.3591 16.6523 24.1173 17.0238C24.0725 17.0927 24.0276 17.1616 23.9814 17.2326C23.8938 17.3671 23.8064 17.5017 23.7191 17.6364C23.5123 17.9545 23.303 18.2703 23.0874 18.5825C23.0275 18.6698 23.0275 18.6698 22.9663 18.7589C22.8915 18.8677 22.8159 18.9759 22.7394 19.0836C22.7066 19.1314 22.6738 19.1792 22.6399 19.2285C22.6109 19.2697 22.5819 19.311 22.5521 19.3535C22.488 19.476 22.488 19.476 22.5108 19.621C22.5837 19.7897 22.6527 19.8381 22.8083 19.9341C22.8578 19.9652 22.9072 19.9964 22.9582 20.0285C23.0112 20.0608 23.0643 20.093 23.1189 20.1263C23.2277 20.1945 23.3365 20.2627 23.4452 20.3309C23.4992 20.3645 23.5532 20.398 23.6088 20.4326C23.8293 20.571 24.0454 20.7152 24.2615 20.8602C24.3291 20.9054 24.3966 20.9507 24.4661 20.9973C24.5132 21.0289 24.5602 21.0605 24.6087 21.0931C24.8015 20.8581 24.9762 20.619 25.1418 20.3642C25.1894 20.2912 25.237 20.2182 25.286 20.1429C25.3371 20.0642 25.3882 19.9854 25.4393 19.9066C25.4928 19.8243 25.5464 19.7421 25.5999 19.6598C25.7093 19.4918 25.8186 19.3238 25.9278 19.1557C26.1556 18.8051 26.3841 18.455 26.6126 18.1048C26.699 17.9723 26.7855 17.8397 26.8719 17.7071C27.2107 17.1876 27.5503 16.6686 27.8898 16.1495C28.2574 15.5873 28.6245 15.0247 28.9914 14.462C29.2748 14.0272 29.5587 13.5927 29.8429 13.1584C29.9938 12.9276 30.1447 12.6967 30.2955 12.4658C30.4844 12.1767 30.674 11.888 30.864 11.5996C30.9484 11.4711 31.0327 11.3427 31.117 11.2142C31.156 11.1554 31.195 11.0965 31.2351 11.0359C31.2877 10.9556 31.2877 10.9556 31.3414 10.8736C31.3721 10.8271 31.4028 10.7805 31.4344 10.7326C31.5108 10.6183 31.5108 10.6183 31.4993 10.4759C31.3757 10.376 31.3757 10.376 31.214 10.2771C31.1534 10.2382 31.0928 10.1993 31.0303 10.1592C30.934 10.0985 30.934 10.0985 30.8357 10.0365C30.7113 9.95704 30.5869 9.87758 30.4625 9.79807C30.3703 9.73968 30.3703 9.73968 30.2763 9.68011C30.0448 9.5307 29.8185 9.37409 29.5932 9.21559C29.4552 9.12261 29.4552 9.12261 29.2493 9.13999ZM21.9368 20.7416C21.8876 20.876 21.8394 21.0108 21.7918 21.1459C21.7649 21.2209 21.738 21.2959 21.7102 21.3733C21.6387 21.6303 21.6387 21.6303 21.7259 21.8666C21.9083 21.981 21.9083 21.981 22.1302 22.0731C22.4604 22.2276 22.6902 22.3594 22.9212 22.64C23.1453 22.539 23.3165 22.4148 23.5013 22.2533C23.5509 22.2105 23.6006 22.1677 23.6518 22.1236C23.7813 22.0174 23.7813 22.0174 23.7649 21.8666C23.6058 21.7391 23.6058 21.7391 23.4007 21.6067C23.3252 21.5564 23.2497 21.5061 23.172 21.4543C23.1323 21.4282 23.0926 21.4022 23.0517 21.3753C22.9306 21.2957 22.8101 21.2152 22.6897 21.1346C22.3399 20.8629 22.3399 20.8629 21.9368 20.7416ZM21.2337 22.9212C21.1925 23.0437 21.1533 23.1669 21.115 23.2904C21.093 23.3589 21.071 23.4274 21.0483 23.498C21.0016 23.6983 21.0016 23.6983 21.1225 23.8606C21.1592 23.8986 21.1959 23.9367 21.2337 23.9759C21.61 23.9531 21.8161 23.73 22.0774 23.4837C21.8166 23.1319 21.8166 23.1319 21.4446 22.9212C21.375 22.9212 21.3054 22.9212 21.2337 22.9212Z" fill="white"/>
<path d="M24.2581 10.5506C24.4343 10.8094 24.449 10.9419 24.3987 11.2493C24.2424 11.4619 24.1409 11.5243 23.8839 11.5925C23.7845 11.6072 23.6849 11.6206 23.5851 11.6329C23.5278 11.641 23.4705 11.649 23.4115 11.6574C23.2782 11.6759 23.1447 11.6939 23.0113 11.7113C22.7579 11.7446 22.5048 11.7794 22.2517 11.8143C21.6694 11.8943 21.0868 11.9719 20.5042 12.0491C20.329 12.0724 20.1539 12.0956 19.9788 12.1189C19.429 12.1918 18.8793 12.2646 18.3296 12.3372C17.6978 12.4207 17.0661 12.5047 16.4345 12.5891C15.9435 12.6548 15.4524 12.7199 14.9613 12.7846C14.669 12.8231 14.3767 12.8619 14.0845 12.9012C13.8106 12.938 13.5365 12.9742 13.2624 13.0099C13.1621 13.0231 13.0619 13.0365 12.9617 13.0501C12.8245 13.0688 12.6872 13.0865 12.55 13.1042C12.435 13.1194 12.435 13.1194 12.3178 13.135C12.0119 13.1524 11.7079 13.1664 11.4656 12.9631C11.3612 12.7298 11.3638 12.5569 11.3909 12.304C11.494 12.1238 11.5551 12.0391 11.753 11.9698C11.8124 11.9614 11.8719 11.953 11.9331 11.9443C12.0023 11.9339 12.0716 11.9235 12.1429 11.9129C12.2196 11.9027 12.2963 11.8926 12.3753 11.8821C12.4566 11.8704 12.5379 11.8587 12.6217 11.8466C12.9056 11.8064 13.1897 11.7683 13.474 11.7306C13.5826 11.716 13.6913 11.7015 13.7999 11.6869C14.0928 11.6476 14.3856 11.6086 14.6785 11.5697C14.9237 11.5371 15.1688 11.5043 15.414 11.4716C15.9923 11.3944 16.5707 11.3175 17.1492 11.2406C17.7448 11.1615 18.3405 11.0819 18.9361 11.0022C19.4488 10.9335 19.9616 10.8652 20.4744 10.7971C20.7801 10.7564 21.0858 10.7157 21.3914 10.6747C21.6786 10.6362 21.9659 10.598 22.2531 10.5601C22.3582 10.5461 22.4633 10.5321 22.5684 10.5179C23.9412 10.3327 23.9412 10.3327 24.2581 10.5506Z" fill="white"/>
<path d="M23.6183 5.70058C23.7999 5.9592 23.814 6.0894 23.7633 6.39931C23.6498 6.59016 23.5535 6.66142 23.3389 6.71891C22.8821 6.80613 22.4246 6.87481 21.9635 6.93509C21.8461 6.95072 21.8461 6.95072 21.7263 6.96666C21.4697 7.00074 21.213 7.03445 20.9563 7.06811C20.777 7.09172 20.5977 7.11533 20.4185 7.13895C20.0438 7.18823 19.6691 7.23731 19.2944 7.28627C18.8619 7.34278 18.4295 7.39994 17.9972 7.45739C17.5798 7.51281 17.1623 7.56756 16.7448 7.62205C16.5677 7.64526 16.3906 7.66867 16.2136 7.69228C15.9665 7.7252 15.7192 7.75733 15.472 7.78927C15.3625 7.80411 15.3625 7.80411 15.2508 7.81925C14.4412 7.92194 14.4412 7.92194 14.1041 7.69131C13.9451 7.45884 13.9554 7.30817 13.9899 7.03213C14.0921 6.85618 14.1541 6.76822 14.3468 6.69661C14.4023 6.68784 14.4578 6.67907 14.5151 6.67003C14.6091 6.6545 14.6091 6.6545 14.705 6.63865C14.8035 6.62459 14.8035 6.62459 14.9039 6.61025C14.9668 6.60077 15.0298 6.59129 15.0946 6.58153C15.3001 6.55176 15.5058 6.52436 15.7117 6.49747C15.7892 6.48716 15.8667 6.47685 15.9466 6.46623C16.2006 6.43252 16.4546 6.39915 16.7087 6.36581C16.8862 6.34237 17.0638 6.31893 17.2413 6.29547C17.6124 6.2465 17.9835 6.1977 18.3546 6.14903C18.7826 6.09289 19.2106 6.03634 19.6386 5.9796C20.052 5.9248 20.4654 5.87036 20.8788 5.81606C21.0541 5.793 21.2293 5.76985 21.4045 5.74659C21.6493 5.71414 21.8942 5.68209 22.139 5.65015C22.2111 5.64051 22.2832 5.63087 22.3574 5.62093C23.3265 5.49572 23.3265 5.49572 23.6183 5.70058Z" fill="white"/>
<path d="M18.4704 26.1213C18.58 26.3301 18.5992 26.4861 18.6069 26.719C18.5371 26.9412 18.4022 27.013 18.2112 27.1408C18.0294 27.1859 17.8667 27.2165 17.6824 27.2378C17.6057 27.2481 17.6057 27.2481 17.5274 27.2585C17.3614 27.2805 17.1952 27.3008 17.029 27.321C16.9146 27.3357 16.8002 27.3505 16.6858 27.3654C16.4575 27.3949 16.2292 27.4238 16.0007 27.4521C15.7176 27.4874 15.4349 27.5252 15.1523 27.5641C15.003 27.5842 14.8537 27.6042 14.7043 27.6242C14.6373 27.6335 14.5702 27.6428 14.5011 27.6524C13.7412 27.7498 13.7412 27.7498 13.4035 27.5188C13.2434 27.2847 13.2496 27.1373 13.2893 26.8596C13.4034 26.6676 13.5001 26.597 13.716 26.5397C14.1502 26.4572 14.5845 26.3893 15.0227 26.3317C15.0916 26.3225 15.1606 26.3134 15.2316 26.3039C15.3764 26.2848 15.5213 26.2658 15.6661 26.2469C15.8857 26.2181 16.1052 26.1885 16.3247 26.1589C16.4663 26.1403 16.608 26.1217 16.7497 26.1032C16.8465 26.09 16.8465 26.09 16.9453 26.0766C18.1206 25.9261 18.1206 25.9261 18.4704 26.1213Z" fill="white"/>
<path d="M15.3287 16.668C15.5049 16.9269 15.5196 17.0594 15.4693 17.3668C15.3771 17.5294 15.3771 17.5294 15.1881 17.648C14.6632 17.775 14.1191 17.8338 13.5841 17.9029C13.514 17.9123 13.4439 17.9218 13.3716 17.9315C12.4656 18.0496 12.4656 18.0496 12.1778 17.8897C11.9754 17.6642 11.9484 17.5274 11.9537 17.2261C12.046 17.0284 12.046 17.0284 12.235 16.8746C12.7252 16.7319 13.2503 16.685 13.7555 16.6197C13.8593 16.6056 13.8593 16.6056 13.9653 16.5911C15.017 16.4537 15.017 16.4537 15.3287 16.668Z" fill="white"/>
</svg>
