<svg width="90" height="90" viewBox="0 0 90 90" fill="none" xmlns="http://www.w3.org/2000/svg">
<path d="M44.8799 11.0141C44.8694 11.0985 44.8589 11.1828 44.848 11.2697C44.8254 12.0828 45.0154 12.559 45.5533 13.1444C45.9403 13.5367 46.3383 13.9154 46.7409 14.2915C46.9064 14.4508 47.0716 14.6104 47.2364 14.7704C47.6386 15.1593 48.0447 15.5437 48.4531 15.926C48.0017 16.4825 47.5326 16.9836 47.0072 17.4708C46.8909 17.5805 46.7746 17.6901 46.6549 17.803C46.4144 18.0287 46.1714 18.2517 45.9259 18.472C45.2861 19.0844 44.9417 19.4888 44.8659 20.3925C44.8647 20.6295 44.8672 20.8667 44.8799 21.1034C44.7975 21.1087 44.7151 21.114 44.6303 21.1194C38.7404 21.5118 33.2253 23.3443 28.8663 27.4756C28.6877 27.6284 28.5085 27.7805 28.3287 27.932C24.2821 31.4959 21.791 37.1877 21.2514 42.4831C21.1904 43.0079 21.1904 43.0079 21.0581 43.1406C20.7006 43.1286 20.3475 43.1091 19.9911 43.0825C19.8907 43.0756 19.7903 43.0687 19.6868 43.0615C19.438 43.0443 19.1893 43.0262 18.9406 43.0079C19.3859 37.6078 21.3431 32.3985 24.896 28.2722C24.9847 28.1686 25.0735 28.0651 25.1649 27.9584C25.4665 27.6147 25.7749 27.2787 26.0871 26.9446C26.148 26.8791 26.2088 26.8135 26.2715 26.746C30.1159 22.6373 35.1622 20.3139 40.6108 19.2376C40.7307 19.2135 40.8507 19.1894 40.9743 19.1646C41.3066 19.1121 41.3066 19.1121 41.8329 19.1199C42.6881 19.0217 43.3273 18.1065 43.8873 17.5108C44.0225 17.3705 44.158 17.2304 44.2936 17.0905C44.6239 16.749 44.9512 16.4047 45.2769 16.0588C45.205 15.9756 45.205 15.9756 45.1317 15.8908C44.7745 15.4754 44.4269 15.0574 44.093 14.6229C43.3587 13.7087 43.3587 13.7087 42.3372 13.2024C41.6566 13.1679 41.0069 13.3034 40.3461 13.4548C39.9809 13.5369 39.6161 13.6013 39.247 13.6625C34.0769 14.5664 29.079 16.8276 25.0284 20.1742C24.9557 20.2336 24.883 20.2931 24.8081 20.3543C23.0431 21.805 21.3831 23.394 19.9993 25.2188C19.9449 25.2891 19.8905 25.3594 19.8344 25.4319C15.8204 30.6292 13.8904 36.55 13.1175 43.0079C12.839 43.0115 12.5606 43.014 12.2821 43.0162C12.127 43.0177 11.9719 43.0192 11.8122 43.0208C11.397 43.0079 11.397 43.0079 11 42.8751C11.2135 35.5941 14.2518 28.466 18.9406 22.962C19.067 22.8129 19.067 22.8129 19.196 22.6607C20.7599 20.8691 22.4458 19.1871 24.3667 17.7846C24.5189 17.6709 24.671 17.5571 24.8231 17.4434C25.9071 16.6415 27.0326 15.9269 28.2046 15.2623C28.2982 15.2089 28.3918 15.1555 28.4882 15.1005C31.966 13.1364 35.7818 11.9003 39.7185 11.2796C39.8147 11.2641 39.9109 11.2485 40.01 11.2325C41.6305 10.9793 43.2431 10.9843 44.8799 11.0141Z" fill="#024D81"/>
<path d="M15.7955 41.2812C16.3217 41.4902 16.6463 41.8585 17.0192 42.2689C17.1552 42.4134 17.2914 42.5577 17.4278 42.7018C17.6405 42.9277 17.8519 43.1544 18.0601 43.3845C19.0391 44.4863 19.0391 44.4863 20.4125 44.9127C20.6436 44.9092 20.875 44.9011 21.1052 44.8799C21.1131 45.0043 21.1131 45.0043 21.1212 45.1312C21.5136 51.0642 23.3441 56.6152 27.4769 61.007C27.6296 61.1869 27.7818 61.3674 27.9332 61.5484C31.3256 65.4279 36.5126 67.7127 41.4872 68.5471C42.0406 68.6437 42.5903 68.7579 43.1406 68.8706C43.0968 69.5743 43.053 70.278 43.0079 71.0031C36.9699 70.4936 31.3935 68.0681 27.0096 63.8608C26.8793 63.736 26.7484 63.6119 26.6168 63.4885C24.9419 61.9166 23.5566 60.0801 22.4326 58.0748C22.3805 57.9824 22.3283 57.8901 22.2746 57.7949C21.4109 56.2524 20.718 54.6939 20.176 53.01C20.1447 52.9134 20.1135 52.8168 20.0812 52.7173C19.9903 52.4299 19.9036 52.1416 19.8193 51.8522C19.7909 51.7554 19.7625 51.6586 19.7332 51.5589C19.5777 50.9864 19.4922 50.4451 19.4563 49.8524C19.2829 47.5653 18.3158 46.4746 16.6811 45.009C16.4753 44.8316 16.2689 44.6549 16.061 44.48C14.9531 44.9928 13.9034 45.9691 13.2733 47.0124C13.0522 47.829 13.2557 48.6346 13.4508 49.4392C13.5389 49.8115 13.6049 50.1823 13.6664 50.56C14.5572 55.761 16.8366 60.8011 20.176 64.8721C20.2354 64.9453 20.2949 65.0186 20.3561 65.094C21.8067 66.8714 23.3956 68.5433 25.2203 69.9368C25.3257 70.0191 25.3257 70.0191 25.4333 70.103C28.4731 72.4675 31.904 74.2552 35.5742 75.4014C35.6725 75.4326 35.7707 75.4638 35.8719 75.4959C38.2358 76.2366 40.686 76.5858 43.1406 76.8675C43.0968 77.5712 43.053 78.2749 43.0079 79C33.7586 78.6713 25.6439 74.1816 19.3795 67.5378C18.9588 67.0645 18.567 66.5766 18.1849 66.0717C18.1295 65.9997 18.0742 65.9276 18.0172 65.8535C16.9973 64.5213 16.1023 63.1272 15.2645 61.6734C15.2122 61.5831 15.1598 61.4928 15.1059 61.3998C13.1136 57.922 11.9137 54.0246 11.2822 50.0778C11.2666 49.986 11.2511 49.8941 11.2351 49.7994C10.9628 48.1638 10.9886 46.5329 11.0167 44.8799C11.129 44.8957 11.129 44.8957 11.2435 44.9119C12.0155 44.936 12.4516 44.7145 13.0014 44.2016C13.3941 43.8111 13.7746 43.4103 14.1528 43.0056C14.3127 42.839 14.4729 42.6726 14.6334 42.5066C15.0241 42.1012 15.4107 41.6923 15.7955 41.2812Z" fill="#024D81"/>
<path d="M47.1327 11C54.4171 11.2108 61.5407 14.252 67.0442 18.9406C67.1436 19.0249 67.243 19.1091 67.3454 19.196C69.1369 20.7599 70.8188 22.4458 72.2211 24.3667C72.3348 24.5189 72.4486 24.671 72.5623 24.8231C73.3643 25.9073 74.0773 27.0332 74.7433 28.2046C74.7959 28.2961 74.8486 28.3876 74.9029 28.4818C76.8873 31.9585 78.0779 35.7852 78.7256 39.7185C78.7492 39.8562 78.7492 39.8562 78.7733 39.9967C79.0453 41.6201 79.0192 43.2392 78.991 44.8799C78.9162 44.8694 78.8414 44.8589 78.7643 44.848C77.9922 44.8241 77.5562 45.0441 77.0064 45.5533C76.6137 45.9411 76.2331 46.339 75.855 46.7409C75.695 46.9064 75.5348 47.0716 75.3743 47.2364C74.9837 47.639 74.597 48.045 74.2123 48.4531C73.6558 48.0023 73.1571 47.5343 72.6723 47.0072C72.5633 46.8909 72.4543 46.7746 72.342 46.6549C72.1177 46.4146 71.8965 46.1716 71.6782 45.9259C71.04 45.2564 70.621 44.9388 69.6793 44.8659C69.4204 44.8646 69.1612 44.8672 68.9026 44.8799C68.8973 44.7975 68.892 44.7151 68.8866 44.6303C68.4941 38.7391 66.6637 33.2272 62.5309 28.8663C62.3781 28.6877 62.226 28.5085 62.0746 28.3287C58.4958 24.2649 52.7091 21.7103 47.3768 21.2247C47.1327 21.1904 47.1327 21.1904 46.8672 21.0581C46.911 20.3593 46.9548 19.6605 46.9999 18.9406C53.0495 19.4844 58.5948 21.8364 62.9982 26.0326C63.1284 26.1565 63.2594 26.2797 63.391 26.4022C67.552 30.2799 69.8862 35.5384 70.8174 41.062C70.9952 41.9401 71.1686 42.4581 71.8239 43.0927C71.8884 43.156 71.9528 43.2193 72.0192 43.2846C72.2233 43.4843 72.4295 43.6817 72.636 43.879C72.7756 44.0149 72.9151 44.151 73.0544 44.2872C73.3944 44.6189 73.7364 44.9484 74.0795 45.2769C74.1638 45.2037 74.1638 45.2037 74.2498 45.1291C74.6534 44.7811 75.0582 44.4442 75.4863 44.1266C76.0564 43.6745 76.6428 43.2031 76.7967 42.4628C76.8256 41.7475 76.6955 41.0589 76.5484 40.3612C76.4699 39.9878 76.4055 39.6141 76.3434 39.2377C75.4245 33.9953 73.1161 28.9787 69.699 24.896C69.6368 24.8206 69.5746 24.7451 69.5105 24.6673C68.0937 22.9518 66.5625 21.3506 64.7875 19.9993C64.717 19.9447 64.6465 19.8901 64.5739 19.8338C60.0294 16.324 54.6785 14.1344 48.9911 13.3822C48.7914 13.3548 48.5918 13.3274 48.3922 13.3C47.9284 13.2368 47.4643 13.1763 46.9999 13.1175C46.9963 12.839 46.9938 12.5606 46.9916 12.2821C46.9901 12.127 46.9886 11.9719 46.987 11.8122C46.9999 11.397 46.9999 11.397 47.1327 11Z" fill="#024D81"/>
<path d="M68.8706 46.8594C69.2306 46.8714 69.5862 46.8909 69.9452 46.9174C70.0463 46.9244 70.1474 46.9313 70.2516 46.9384C70.5021 46.9557 70.7526 46.9738 71.0031 46.9921C70.5017 53.0284 68.0668 58.6072 63.8608 62.9894C63.736 63.1197 63.6119 63.2506 63.4885 63.3822C61.9166 65.057 60.0801 66.4422 58.0748 67.5661C57.9824 67.6182 57.8901 67.6704 57.7949 67.7241C56.2526 68.5877 54.694 69.2816 53.01 69.8226C52.9127 69.8539 52.8154 69.8851 52.7152 69.9173C52.4256 70.0081 52.1353 70.0948 51.8438 70.1793C51.7466 70.2078 51.6494 70.2363 51.5492 70.2656C50.9908 70.4179 50.4653 70.5047 49.8868 70.5376C47.4257 70.7206 46.2593 72.0302 44.7128 73.7983C44.636 73.888 44.5591 73.9777 44.48 74.0701C44.5537 74.1544 44.5537 74.1544 44.6289 74.2404C44.9793 74.644 45.3186 75.0487 45.6384 75.4768C46.0938 76.0468 46.5685 76.6332 47.3141 76.7871C48.0345 76.8161 48.7279 76.6859 49.4306 76.5388C49.8066 76.4603 50.1829 76.3959 50.562 76.3339C55.7643 75.4284 60.7963 73.1658 64.8721 69.8226C64.9453 69.7631 65.0186 69.7037 65.094 69.6425C66.8714 68.1919 68.5433 66.6032 69.9368 64.7786C69.9917 64.7083 70.0465 64.638 70.103 64.5656C72.4675 61.526 74.2552 58.0953 75.4014 54.4253C75.4326 54.3271 75.4638 54.2289 75.4959 54.1277C76.2366 51.7639 76.5858 49.3138 76.8675 46.8594C77.5712 46.9032 78.2749 46.947 79 46.9921C78.6024 56.2586 74.2106 64.3136 67.5378 70.619C67.066 71.0424 66.5784 71.4327 66.0717 71.8136C65.9874 71.8775 65.9032 71.9414 65.8164 72.0073C61.141 75.5344 55.846 77.7248 50.0778 78.7158C49.9774 78.7335 49.877 78.7511 49.7736 78.7693C48.1499 79.0446 46.5214 79.0093 44.8799 78.9813C44.8904 78.9065 44.901 78.8316 44.9119 78.7545C44.936 77.9825 44.7145 77.5466 44.2016 76.9968C43.8111 76.6041 43.4103 76.2235 43.0056 75.8454C42.839 75.6855 42.6726 75.5253 42.5066 75.3648C42.1012 74.9742 41.6923 74.5876 41.2812 74.2028C41.7353 73.6464 42.2066 73.1477 42.7375 72.6629C42.9131 72.4994 42.9131 72.4994 43.0923 72.3326C43.3342 72.1084 43.5789 71.8872 43.8264 71.669C44.5006 71.0307 44.8205 70.6118 44.8939 69.6701C44.8952 69.4112 44.8926 69.1521 44.8799 68.8934C45.0043 68.8855 45.0043 68.8855 45.1312 68.8775C51.0642 68.485 56.6152 66.6547 61.007 62.5221C61.1869 62.3694 61.3674 62.2173 61.5484 62.0659C65.6237 58.5024 68.1325 52.8115 68.6759 47.5168C68.7373 46.9921 68.7373 46.9921 68.8706 46.8594Z" fill="#024D81"/>
<path d="M40.2266 30.6562C40.7761 30.7426 41.2344 30.9233 41.7409 31.1507C41.9046 31.2229 42.0683 31.2951 42.232 31.3673C42.4872 31.4807 42.7423 31.5945 42.9969 31.7092C43.2445 31.8204 43.4929 31.9297 43.7414 32.0388C43.8888 32.1048 44.0362 32.1707 44.1881 32.2386C45.0107 32.5202 45.5752 32.359 46.3416 32.0051C46.428 31.9668 46.5144 31.9285 46.6034 31.889C46.8773 31.7672 47.1504 31.6435 47.4233 31.5195C47.6978 31.3958 47.9725 31.2725 48.2476 31.1501C48.4182 31.074 48.5885 30.9972 48.7584 30.9195C49.1288 30.7536 49.3778 30.6562 49.7891 30.6562C49.9502 30.9523 50.0843 31.2398 50.2166 31.5486C51.2384 33.8682 51.2384 33.8682 53.1891 35.3241C54.2792 35.6572 55.411 35.8208 56.5441 35.9236C56.9609 35.9688 56.9609 35.9688 57.2266 36.1016C57.1065 38.4228 57.1065 38.4228 57.019 39.2891C57.01 39.4015 57.0009 39.514 56.9915 39.6299C56.9609 39.9531 56.9609 39.9531 56.9013 40.2805C56.8285 40.8786 56.8813 41.173 57.2447 41.6672C57.5567 42.0172 57.8898 42.3448 58.2242 42.6731C58.6355 43.0932 58.9893 43.561 59.3552 44.0205C59.605 44.3213 59.8674 44.5956 60.1484 44.8672C59.9409 45.3559 59.639 45.686 59.2769 46.0708C58.6954 46.6986 58.1482 47.3449 57.6131 48.0132C57.3594 48.3203 57.3594 48.3203 57.1464 48.5015C56.902 48.7878 56.9156 48.9426 56.9277 49.3148C56.9313 49.4327 56.9349 49.5506 56.9386 49.6721C56.9756 50.294 57.0305 50.913 57.0938 51.5327C57.1737 52.3248 57.2442 53.1019 57.2266 53.8984C56.9556 53.974 56.6844 54.0484 56.4131 54.1226C56.3254 54.1486 56.2377 54.1746 56.1474 54.2014C55.6024 54.3566 55.0973 54.4467 54.5309 54.4774C53.5008 54.566 52.6713 54.6794 51.9656 55.4945C51.2829 56.4483 50.7532 57.5025 50.2457 58.5571C50.0547 58.9453 50.0547 58.9453 49.7891 59.3438C49.2381 59.2564 48.7713 59.0764 48.2607 58.854C48.18 58.8191 48.0994 58.7843 48.0163 58.7483C47.7602 58.6375 47.5046 58.5258 47.249 58.4141C46.9924 58.3025 46.7357 58.1911 46.4789 58.0798C46.2466 57.979 46.0144 57.8778 45.7823 57.7765C45.1887 57.5032 45.1887 57.5032 44.5666 57.64C44.3852 57.7181 44.2045 57.7976 44.0242 57.8781C43.9284 57.9196 43.8326 57.9611 43.734 58.0038C43.4276 58.1366 43.122 58.271 42.8164 58.4058C42.5108 58.5398 42.205 58.6735 41.8989 58.8063C41.7083 58.8891 41.518 58.9726 41.3282 59.0569C40.938 59.2268 40.657 59.3438 40.2266 59.3438C39.9926 59.0251 39.9926 59.0251 39.7368 58.5827C39.6912 58.5047 39.6455 58.4266 39.5985 58.3463C39.4523 58.0957 39.3081 57.844 39.1641 57.5923C39.067 57.4251 38.9698 57.2579 38.8725 57.0909C38.6927 56.7818 38.5138 56.4723 38.3355 56.1624C38.2583 56.0289 38.1811 55.8954 38.1016 55.7578C38.0473 55.6368 37.993 55.5157 37.9371 55.391C37.5938 54.9549 37.1768 54.9033 36.6567 54.8011C36.5547 54.7788 36.4527 54.7565 36.3477 54.7335C36.0225 54.6628 35.6966 54.596 35.3706 54.5293C35.0443 54.4599 34.7182 54.3897 34.3921 54.3194C34.1893 54.276 33.9864 54.2332 33.7833 54.1913C33.0828 54.0453 33.0828 54.0453 32.7891 53.8984C32.9091 51.5772 32.9091 51.5772 32.9966 50.7109C33.0102 50.5422 33.0102 50.5422 33.0241 50.3701C33.0547 50.0469 33.0547 50.0469 33.1143 49.7195C33.1871 49.1214 33.1343 48.827 32.7709 48.3328C32.4589 47.9828 32.1258 47.6552 31.7914 47.3269C31.3801 46.9068 31.0263 46.439 30.6604 45.9795C30.4106 45.6787 30.1482 45.4044 29.8672 45.1328C30.0747 44.6441 30.3766 44.314 30.7388 43.9292C31.3203 43.3014 31.8674 42.6551 32.4026 41.9868C32.6562 41.6797 32.6562 41.6797 32.8692 41.4985C33.1136 41.2122 33.1 41.0574 33.0879 40.6852C33.0843 40.5673 33.0807 40.4494 33.077 40.3279C33.04 39.706 32.9852 39.087 32.9219 38.4673C32.842 37.6752 32.7714 36.8981 32.7891 36.1016C33.06 36.026 33.3312 35.9516 33.6025 35.8774C33.6902 35.8514 33.7779 35.8254 33.8682 35.7986C34.4132 35.6434 34.9183 35.5533 35.4847 35.5226C36.5149 35.434 37.3443 35.3206 38.0501 34.5055C38.7328 33.5517 39.2625 32.4975 39.7699 31.4429C39.9609 31.0547 39.9609 31.0547 40.2266 30.6562ZM41.1562 33.3125C40.8542 33.7712 40.5766 34.245 40.2951 34.7165C40.1528 34.9546 40.0093 35.1919 39.8657 35.4292C39.7765 35.5781 39.6872 35.7271 39.5952 35.8806C39.5126 36.0183 39.43 36.156 39.3448 36.2979C39.143 36.6083 39.143 36.6083 39.1641 36.8984C39.0331 36.918 39.0331 36.918 38.8995 36.9379C37.6466 37.1348 36.4153 37.4125 35.1797 37.6953C35.0494 38.1172 35.0468 38.4518 35.092 38.8896C35.1106 39.0794 35.1106 39.0794 35.1296 39.273C35.1434 39.4043 35.1572 39.5356 35.1714 39.6709C35.2215 40.1632 35.2689 40.6555 35.3125 41.1484C35.326 41.2962 35.3396 41.4439 35.3535 41.5962C35.2977 42.0713 35.1108 42.2763 34.7979 42.6343C34.6902 42.7589 34.5825 42.8835 34.4715 43.012C34.2961 43.2071 34.2961 43.2071 34.1172 43.4062C34.0555 43.4752 33.9938 43.5442 33.9302 43.6153C33.5535 44.0361 33.1729 44.4529 32.7891 44.8672C32.9893 45.3289 33.26 45.6463 33.6025 46.0127C33.708 46.1307 33.8135 46.2486 33.9221 46.3701C34.1306 46.5968 34.3459 46.8174 34.5696 47.029C35.0584 47.5325 35.2973 47.862 35.3535 48.575C35.3369 49.0618 35.2812 49.5418 35.2161 50.0242C35.159 50.4763 35.1335 50.9286 35.105 51.3833C35.0858 51.6462 35.0665 51.909 35.0469 52.1719C35.5039 52.3663 35.9449 52.5036 36.43 52.6087C36.5639 52.6378 36.6978 52.6669 36.8357 52.6969C36.974 52.7263 37.1124 52.7558 37.2549 52.7861C37.3942 52.8166 37.5336 52.8471 37.6772 52.8785C38.4143 53.0442 38.4143 53.0442 39.1641 53.1016C39.2173 53.2441 39.2173 53.2441 39.2716 53.3896C39.4325 53.7723 39.6208 54.1133 39.8333 54.4696C39.9104 54.5993 39.9874 54.729 40.0668 54.8626C40.1469 54.9964 40.227 55.1302 40.3096 55.2681C40.4313 55.4726 40.4313 55.4726 40.5555 55.6813C40.7553 56.0169 40.9556 56.3523 41.1562 56.6875C42.2787 56.2694 42.2787 56.2694 43.3788 55.7972C43.4597 55.7603 43.5405 55.7233 43.6239 55.6852C43.8518 55.58 44.0786 55.4724 44.3054 55.3646C45.3635 55.0303 46.3026 55.6009 47.2573 56.0317C47.3988 56.0945 47.5403 56.1572 47.6861 56.2219C48.0334 56.3761 48.3802 56.5313 48.7266 56.6875C49.2636 56.0657 49.6684 55.3734 50.0879 54.6704C50.1983 54.4882 50.1983 54.4882 50.311 54.3023C50.3805 54.1863 50.45 54.0703 50.5216 53.9508C50.585 53.8452 50.6484 53.7395 50.7137 53.6306C50.8721 53.3775 50.8721 53.3775 50.8516 53.1016C51.0673 53.0792 51.0673 53.0792 51.2874 53.0564C52.0169 52.9652 52.7263 52.7959 53.4414 52.6284C53.576 52.5973 53.7105 52.5663 53.8492 52.5343C54.1782 52.4582 54.5071 52.3817 54.8359 52.3047C54.9662 51.8828 54.9688 51.5482 54.9236 51.1104C54.9112 50.9839 54.8988 50.8574 54.886 50.727C54.8722 50.5957 54.8584 50.4644 54.8442 50.3291C54.7941 49.8368 54.7467 49.3445 54.7031 48.8516C54.6828 48.6299 54.6828 48.6299 54.6621 48.4038C54.7179 47.9287 54.9048 47.7237 55.2178 47.3657C55.3255 47.2411 55.4331 47.1165 55.5441 46.988C55.661 46.8579 55.778 46.7278 55.8984 46.5938C55.991 46.4903 55.991 46.4903 56.0854 46.3847C56.4621 45.9639 56.8427 45.5471 57.2266 45.1328C57.0263 44.6711 56.7556 44.3537 56.4131 43.9873C56.2549 43.8104 56.2549 43.8104 56.0935 43.6299C55.885 43.4032 55.6697 43.1826 55.446 42.971C54.9572 42.4675 54.7183 42.138 54.6621 41.425C54.6788 40.9382 54.7344 40.4582 54.7995 39.9758C54.8566 39.5237 54.8821 39.0714 54.9106 38.6167C54.9299 38.3538 54.9492 38.091 54.9688 37.8281C54.2738 37.5347 53.5695 37.3784 52.8354 37.2139C52.7035 37.1834 52.5716 37.1529 52.4357 37.1215C52.3086 37.0928 52.1815 37.064 52.0505 37.0344C51.9351 37.0082 51.8197 36.9821 51.7008 36.9552C51.3495 36.8829 51.3495 36.8829 50.8516 36.8984C50.8161 36.8034 50.7806 36.7083 50.744 36.6104C50.5831 36.2277 50.3949 35.8867 50.1823 35.5304C50.1053 35.4007 50.0282 35.271 49.9489 35.1374C49.8687 35.0036 49.7886 34.8698 49.7061 34.7319C49.6249 34.5956 49.5438 34.4592 49.4601 34.3187C49.2603 33.9831 49.06 33.6477 48.8594 33.3125C47.7352 33.732 47.7352 33.732 46.6322 34.2028C46.5507 34.2397 46.4692 34.2767 46.3853 34.3148C46.1553 34.4201 45.9262 34.5277 45.6973 34.6354C44.9725 34.8714 44.3858 34.6277 43.7061 34.3371C43.5655 34.2776 43.4249 34.2181 43.28 34.1568C43.1352 34.0946 42.9904 34.0324 42.8413 33.9683C42.5514 33.8448 42.2614 33.7215 41.9713 33.5984C41.8435 33.5436 41.7157 33.4888 41.5841 33.4323C41.3216 33.3042 41.3216 33.3042 41.1562 33.3125Z" fill="#024D81"/>
<path d="M49.6867 38.1894C50.1606 38.5662 50.5976 38.9677 51.0264 39.3948C51.1398 39.5036 51.1398 39.5036 51.2556 39.6145C52.7223 41.1508 53.2384 43.2917 53.2264 45.3473C53.1569 47.7744 52.0832 49.6642 50.3565 51.3149C48.4213 52.9608 46.1222 53.3864 43.6583 53.19C41.5119 52.8799 39.7918 51.6586 38.4153 50.0409C36.9734 48.099 36.5247 45.7656 36.8669 43.3982C37.2201 41.6285 38.1151 40.2534 39.3714 38.993C39.4439 38.9174 39.5164 38.8418 39.5912 38.7638C42.2526 36.224 46.7403 36.1872 49.6867 38.1894ZM40.4012 41.0439C39.1783 42.4962 38.8121 44.091 38.9695 45.9575C39.3026 47.7142 40.2128 49.0562 41.6488 50.1095C43.1361 51.0169 44.677 51.2856 46.3967 50.9596C48.0625 50.5015 49.3909 49.5114 50.2943 48.0314C51.1088 46.4835 51.2844 44.8771 50.817 43.1784C50.263 41.5844 49.1625 40.331 47.6689 39.5455C45.0749 38.366 42.3402 38.9969 40.4012 41.0439Z" fill="#024D81"/>
<path d="M42.9357 40.75C43.6144 40.75 44.293 40.75 44.9922 40.75C44.9922 41.4513 44.9922 42.1525 44.9922 42.875C44.356 42.875 43.7198 42.875 43.0643 42.875C43.0643 43.5763 43.0643 44.2775 43.0643 45C42.3856 45 41.707 45 41.0078 45C41.0078 44.2549 41.0078 43.5098 41.0078 42.7422C41.644 42.7422 42.2802 42.7422 42.9357 42.7422C42.9357 42.0848 42.9357 41.4273 42.9357 40.75Z" fill="#024D81"/>
</svg>
