<svg width="44" height="44" viewBox="0 0 44 44" fill="none" xmlns="http://www.w3.org/2000/svg">
<path d="M21.1699 9.77443C14.4287 9.77443 8.94429 15.2586 8.94429 22C8.94429 28.7415 14.4287 34.2256 21.1699 34.2256C27.9111 34.2256 33.3955 28.7412 33.3955 22C33.3955 15.2588 27.9111 9.77443 21.1699 9.77443ZM21.1699 31.7257C19.2463 31.7257 17.366 31.1553 15.7666 30.0867C14.1672 29.018 12.9206 27.499 12.1845 25.7219C11.4484 23.9448 11.2558 21.9892 11.6311 20.1026C12.0063 18.216 12.9326 16.4831 14.2928 15.1229C15.6529 13.7628 17.3859 12.8365 19.2725 12.4612C21.1591 12.0859 23.1146 12.2785 24.8917 13.0147C26.6689 13.7508 28.1878 14.9973 29.2565 16.5967C30.3252 18.1961 30.8956 20.0765 30.8956 22C30.8927 24.5785 29.8671 27.0506 28.0438 28.8739C26.2205 30.6972 23.7484 31.7228 21.1699 31.7257ZM40.1987 26.3259L38.9192 22.1681C38.8805 22.0594 38.8805 21.9408 38.9192 21.8321L40.1988 17.6743C40.3894 17.0705 40.3866 16.4222 40.1909 15.8199C39.9953 15.2177 39.6164 14.6916 39.1073 14.3151L35.6281 11.7036C35.5329 11.6384 35.4631 11.5424 35.4305 11.4317L34.0219 7.31546C33.8212 6.71487 33.4379 6.19197 32.9256 5.81976C32.4132 5.44755 31.7975 5.24462 31.1642 5.2393L26.8143 5.17141C26.6991 5.17462 26.5863 5.13795 26.4949 5.06759L22.936 2.56574C22.4206 2.19779 21.8031 2 21.1698 2C20.5365 2 19.9191 2.19779 19.4036 2.56574L15.8449 5.06759C15.7535 5.13794 15.6407 5.17462 15.5253 5.17141L11.1755 5.2393C10.5423 5.24462 9.92652 5.44755 9.4142 5.81976C8.90188 6.19197 8.51858 6.71487 8.31783 7.31546L6.90921 11.4315C6.87658 11.5421 6.80684 11.6381 6.71172 11.7033L3.23256 14.3148C2.72342 14.6913 2.34456 15.2174 2.14887 15.8196C1.95319 16.4219 1.95045 17.0702 2.14105 17.674L3.4206 21.832C3.45918 21.9406 3.45918 22.0593 3.4206 22.1679L2.14097 26.3258C1.95037 26.9297 1.95311 27.578 2.14879 28.1802C2.34448 28.7824 2.72334 29.3085 3.23249 29.685L6.71172 32.2965C6.80686 32.3617 6.87661 32.4577 6.90921 32.5683L8.31783 36.6846C8.51858 37.2852 8.90188 37.8081 9.4142 38.1803C9.92652 38.5525 10.5423 38.7554 11.1755 38.7608L15.5252 38.8286C15.6405 38.8254 15.7534 38.8621 15.8448 38.9324L19.4038 41.4343C19.9192 41.8022 20.5366 42 21.1699 42C21.8031 42 22.4206 41.8022 22.936 41.4343L26.4948 38.9325C26.5862 38.8621 26.6991 38.8254 26.8144 38.8286L31.1642 38.7608C31.7975 38.7555 32.4133 38.5525 32.9256 38.1803C33.4379 37.8081 33.8212 37.2851 34.0219 36.6845L35.4305 32.5686C35.4631 32.458 35.5329 32.362 35.628 32.2968L39.1071 29.6853C39.6163 29.3088 39.9952 28.7827 40.1909 28.1804C40.3867 27.5781 40.3894 26.9298 40.1987 26.3259ZM37.6067 27.686L34.1276 30.2975C33.6308 30.663 33.2597 31.1737 33.0657 31.7592L31.657 35.8751C31.6224 35.9885 31.5519 36.0875 31.456 36.1571C31.3602 36.2268 31.2442 36.2633 31.1257 36.2612L26.7758 36.329C26.1591 36.3328 25.5588 36.5279 25.0577 36.8873L21.4984 39.3892C21.4038 39.4606 21.2884 39.4992 21.1699 39.4992C21.0513 39.4992 20.936 39.4606 20.8414 39.3892L17.2824 36.8872C16.7813 36.5277 16.181 36.3327 15.5643 36.3289L11.2145 36.2611C11.096 36.2632 10.9801 36.2267 10.8842 36.1571C10.7883 36.0874 10.7178 35.9884 10.6833 35.875L9.27466 31.7591C9.08057 31.1736 8.70949 30.6629 8.21267 30.2974L4.73305 27.686C4.63583 27.6181 4.56341 27.5203 4.52675 27.4075C4.4901 27.2947 4.49121 27.1731 4.52993 27.061L5.80957 22.9032C5.99659 22.3155 5.99659 21.6842 5.80957 21.0965L4.52993 16.9387C4.49121 16.8267 4.4901 16.705 4.52675 16.5922C4.56341 16.4794 4.63583 16.3817 4.73305 16.3138L8.21228 13.7022C8.70902 13.3367 9.08004 12.826 9.27412 12.2406L10.6828 8.12465C10.7173 8.01129 10.7879 7.91228 10.8837 7.84261C10.9796 7.77294 11.0956 7.73642 11.214 7.73857L15.5637 7.67069C16.1806 7.66711 16.7811 7.47204 17.2824 7.11243L20.8418 4.61089C20.9364 4.53945 21.0517 4.50081 21.1702 4.50081C21.2887 4.50081 21.404 4.53945 21.4986 4.61089L25.0572 7.11274C25.5583 7.47226 26.1587 7.66732 26.7754 7.671L31.1253 7.73889C31.2437 7.73674 31.3597 7.77327 31.4556 7.84294C31.5514 7.9126 31.622 8.01161 31.6565 8.12496L33.0651 12.2408C33.2592 12.8263 33.6302 13.337 34.127 13.7026L37.6067 16.3141C37.7039 16.382 37.7764 16.4797 37.813 16.5925C37.8497 16.7053 37.8486 16.827 37.8098 16.9391L36.5302 21.0969C36.3431 21.6845 36.3431 22.3158 36.5302 22.9035L37.8098 27.0612C37.8485 27.1733 37.8496 27.2949 37.8129 27.4076C37.7763 27.5204 37.7039 27.6181 37.6067 27.686ZM27.9509 17.5795C28.0618 17.7005 28.1478 17.8422 28.2039 17.9964C28.2601 18.1507 28.2853 18.3145 28.2781 18.4785C28.271 18.6424 28.2316 18.8034 28.1623 18.9522C28.0929 19.101 27.9949 19.2346 27.8739 19.3455L20.0707 26.4974C19.8401 26.7086 19.5388 26.8256 19.2262 26.8255C19.2025 26.8255 19.1788 26.8249 19.1551 26.8235C18.9884 26.814 18.8253 26.7712 18.6754 26.6977C18.5255 26.6241 18.3919 26.5212 18.2824 26.3952L14.3673 21.8875C14.2592 21.7637 14.1765 21.6197 14.1241 21.4638C14.0716 21.308 14.0505 21.1433 14.0618 20.9793C14.0731 20.8152 14.1167 20.655 14.19 20.5078C14.2633 20.3606 14.365 20.2294 14.4891 20.1215C14.6133 20.0137 14.7575 19.9314 14.9135 19.8794C15.0695 19.8274 15.2342 19.8067 15.3983 19.8185C15.5623 19.8303 15.7224 19.8743 15.8693 19.9481C16.0163 20.0218 16.1473 20.1238 16.2548 20.2483L19.328 23.7872L26.1848 17.5028C26.4292 17.2788 26.7525 17.161 27.0837 17.1754C27.4149 17.1898 27.7268 17.3351 27.9509 17.5795Z" fill="black"/>
</svg>
