<?xml version="1.0" encoding="UTF-8"?>
<svg version="1.1" xmlns="http://www.w3.org/2000/svg" width="512" height="512">
<path d="M0 0 C8.73629542 4.22552382 16.58567115 10.05069993 24.5390625 15.56640625 C25.36146423 16.13547699 26.18386597 16.70454773 27.03118896 17.29086304 C27.86136536 17.86583527 28.69154175 18.4408075 29.546875 19.03320312 C30.38283203 19.61207275 31.21878906 20.19094238 32.08007812 20.78735352 C33.78668684 21.97775566 35.48685541 23.17744059 37.18066406 24.38598633 C50.74569416 34.19937217 50.74569416 34.19937217 67 35 C69.13173281 34.8546944 71.26272221 34.75938966 73.39730835 34.66563416 C75.71261844 34.56172331 78.02458506 34.42898664 80.33789062 34.28759766 C104.92959629 32.79881959 104.92959629 32.79881959 115.5 32.625 C116.22074707 32.59921875 116.94149414 32.5734375 117.68408203 32.546875 C122.52198825 32.52771023 124.57353913 33.66627718 128 37 C129.82096107 39.80764263 131.28810659 42.76209499 132.765625 45.76171875 C133.20332214 46.62577835 133.64101929 47.48983795 134.09197998 48.38008118 C135.48914119 51.14376519 136.87001213 53.91520725 138.25 56.6875 C139.16163801 58.50121564 140.07438875 60.31437243 140.98828125 62.12695312 C141.4360643 63.01730255 141.88384735 63.90765198 142.34519958 64.82498169 C143.25264514 66.62041727 144.16647455 68.41264015 145.08656311 70.20162964 C147.20287437 74.33085218 149.21565111 78.43366604 150.95483398 82.73681641 C156.60894587 96.07609718 165.69743531 100.34039691 178.5625 106 C180.41179719 106.85312208 182.25882661 107.71117772 184.10351562 108.57421875 C186.81802856 109.84292929 189.53308053 111.10967098 192.25527954 112.36181641 C197.98593462 115.0068868 203.61697108 117.77858279 209.15234375 120.8125 C209.80779678 121.16135254 210.46324982 121.51020508 211.13856506 121.86962891 C214.99625237 124.03948312 217.34234523 125.85716538 219 130 C219.24392499 132.65377327 219.33069892 135.03797783 219.25 137.6796875 C219.23831787 138.42185516 219.22663574 139.16402283 219.21459961 139.92868042 C219.04616965 148.33794315 218.53427811 156.73253081 218 165.125 C217.66760723 170.37078252 217.35383126 175.61606714 217.10482788 180.86654663 C217.03555038 182.27647984 216.95855854 183.68605747 216.8734436 185.09512329 C216.35826027 194.00711723 216.72855268 199.79302603 222.1875 206.9375 C223.36296622 208.62300998 224.53736322 210.30926592 225.7109375 211.99609375 C226.71012207 213.39190674 226.71012207 213.39190674 227.72949219 214.81591797 C231.86232957 220.61166691 235.89346454 226.47308281 239.86929321 232.37747192 C241.28690151 234.46235224 242.73708639 236.52155264 244.19018555 238.58178711 C245.0828808 239.89714741 245.97398112 241.21359192 246.86328125 242.53125 C247.49050583 243.39309654 247.49050583 243.39309654 248.13040161 244.27235413 C251.78128683 249.82175206 252.05700818 255.52810553 251 262 C249.56792794 265.60696282 247.58120929 268.59906025 245.33984375 271.75390625 C244.75715225 272.62087631 244.17446075 273.48784637 243.57411194 274.38108826 C241.72066272 277.12657434 239.83065227 279.84428252 237.9375 282.5625 C236.69338925 284.3882224 235.45182921 286.21568569 234.21289062 288.04492188 C231.85063466 291.52538613 229.48304983 295.00204936 227.10668945 298.47290039 C226.57202057 299.25384064 226.03735168 300.03478088 225.48648071 300.83938599 C224.19584089 302.71534339 222.89266243 304.58175523 221.58666992 306.44702148 C217.87175965 311.92338889 216.11687763 315.28295 216.4375 321.9375 C216.46392578 322.69691895 216.49035156 323.45633789 216.51757812 324.23876953 C216.6349996 327.16267514 216.81828868 330.07936462 217 333 C217.16189331 335.92554811 217.31658752 338.85147977 217.47265625 341.77734375 C217.72776701 346.52574876 217.99036877 351.27326766 218.28686523 356.01928711 C218.55573862 360.34484253 218.78687283 364.67137676 219 369 C219.10054688 370.87220215 219.10054688 370.87220215 219.203125 372.78222656 C219.35416959 377.53878267 219.3757296 381.07859227 217.56640625 385.515625 C214.06378018 388.90629498 210.34089835 390.73242161 205.9375 392.75 C204.12408423 393.61788077 202.31160544 394.48772168 200.5 395.359375 C199.58089844 395.79701172 198.66179687 396.23464844 197.71484375 396.68554688 C192.76448915 399.08237324 187.89772844 401.64250068 183.08227539 404.29956055 C179.17494107 406.43616292 175.40892848 408.26985423 171.18359375 409.69140625 C155.48080525 415.47295979 150.52157294 428.09888153 143.90234375 442.421875 C143.23933046 443.88022724 142.57769133 445.33920506 141.91748047 446.79882812 C139.15099252 452.90622783 136.13290347 458.88342404 133.125 464.875 C132.64297119 465.86580566 132.16094238 466.85661133 131.66430664 467.87744141 C131.22078857 468.78155762 130.77727051 469.68567383 130.3203125 470.6171875 C129.94148926 471.39690918 129.56266602 472.17663086 129.17236328 472.97998047 C127.21226051 476.35730041 125.73098112 477.75633963 122 479 C119.50683711 479.13154111 117.05674755 479.18966844 114.5625 479.1875 C113.7669873 479.18814453 112.97147461 479.18878906 112.15185547 479.18945312 C101.41544521 479.10360867 90.69560695 478.38001295 79.98266602 477.71166992 C76.3215648 477.48371271 72.65972125 477.29254918 68.99588013 477.11471558 C67.13965852 477.00802704 65.2869563 476.84431142 63.43530273 476.67602539 C54.27202506 476.10703469 49.11679334 479.15607487 41.8125 484.4375 C40.70661782 485.20369253 39.59849231 485.96665606 38.48828125 486.7265625 C36.17172118 488.3157453 33.86547018 489.9184709 31.56494141 491.53076172 C26.20419584 495.2679915 20.71704577 498.81301433 15.23641968 502.37088013 C13.52178461 503.4858344 11.81073773 504.60608331 10.10083008 505.72827148 C9.06724365 506.40575439 8.03365723 507.0832373 6.96875 507.78125 C6.05544922 508.38001953 5.14214844 508.97878906 4.20117188 509.59570312 C-0.23503318 512.42589961 -3.79678543 512.84553477 -9 512 C-12.68880951 510.33326555 -15.8842295 508.07502478 -19.1875 505.75 C-20.16001709 505.09700928 -21.13253418 504.44401855 -22.13452148 503.77124023 C-27.38173191 500.23768925 -32.55766784 496.61105669 -37.7118988 492.94406128 C-40.33550979 491.08643053 -42.97632282 489.25414093 -45.61929321 487.42419434 C-47.5212146 486.09143058 -49.39375401 484.72339725 -51.26831055 483.35253906 C-59.56077916 477.47909694 -65.76909812 475.94979695 -76 477 C-77.38875279 477.0829351 -78.77806445 477.15689128 -80.16772461 477.22290039 C-83.13683887 477.36441428 -86.10318125 477.52617144 -89.06982422 477.71264648 C-112.79792758 479.20233298 -112.79792758 479.20233298 -123.375 479.4375 C-124.09131592 479.47166016 -124.80763184 479.50582031 -125.5456543 479.54101562 C-129.93348812 479.58001378 -132.26678682 478.42883755 -135.52713013 475.56782532 C-138.09661113 472.8326907 -139.58163327 469.67404951 -141.171875 466.3046875 C-141.53625168 465.56315933 -141.90062836 464.82163116 -142.27604675 464.05763245 C-143.04889326 462.48090288 -143.81537614 460.90104031 -144.57589722 459.31832886 C-145.75741984 456.85955918 -146.95527953 454.40942482 -148.15844727 451.96118164 C-149.73327076 448.75604722 -151.30328221 445.54864012 -152.86962891 442.33935547 C-155.48327193 436.99911365 -158.17637532 431.70297552 -160.9375 426.4375 C-161.31938477 425.69677246 -161.70126953 424.95604492 -162.09472656 424.19287109 C-165.0681815 418.54385583 -167.4986252 416.05121915 -173.21826172 413.27612305 C-174.28301727 412.75515549 -175.34777283 412.23418793 -176.4447937 411.69743347 C-178.16981613 410.86300468 -178.16981613 410.86300468 -179.9296875 410.01171875 C-181.73657675 409.12420138 -183.54345788 408.23666703 -185.34985542 407.3481493 C-189.79958327 405.1614256 -194.2552998 402.9870969 -198.71630859 400.82348633 C-201.82512316 399.31490655 -204.92682149 397.79246407 -208.02460098 396.26136208 C-209.77039665 395.40356752 -211.52380349 394.56131918 -213.27731323 393.71940613 C-223.61107779 388.60178639 -223.61107779 388.60178639 -227 383 C-228.85270096 377.27215962 -227.81551248 370.84796632 -227.44140625 364.91796875 C-227.33940163 363.16484123 -227.33940163 363.16484123 -227.2353363 361.376297 C-227.01736434 357.64629357 -226.79042827 353.91690716 -226.5625 350.1875 C-226.33955274 346.46873976 -226.11855019 342.74988133 -225.90037537 339.03083801 C-225.76436399 336.72001516 -225.62540855 334.40936309 -225.48304749 332.09892273 C-225.30217917 329.06661195 -225.14814099 326.03405559 -225 323 C-224.91199883 321.74168365 -224.91199883 321.74168365 -224.82221985 320.45794678 C-224.57210471 314.97105262 -225.62136245 311.98798246 -228.84765625 307.3671875 C-229.45330917 306.48016647 -229.45330917 306.48016647 -230.07119751 305.57522583 C-231.38333998 303.66175897 -232.72277581 301.7692277 -234.0625 299.875 C-234.97544553 298.54981519 -235.88598831 297.22297206 -236.79418945 295.89453125 C-238.63121335 293.21106368 -240.47698316 290.53402092 -242.33105469 287.86230469 C-246.19097191 282.29018468 -249.95335563 276.65711969 -253.6875 271 C-254.6302478 269.60563721 -254.6302478 269.60563721 -255.59204102 268.18310547 C-261.13971 259.79005701 -261.13971 259.79005701 -261 255 C-259.27942009 249.924577 -256.63164049 245.56788179 -253.6875 241.125 C-253.24108154 240.43519043 -252.79466309 239.74538086 -252.3347168 239.03466797 C-249.26534079 234.32603849 -246.09953134 229.69150464 -242.87986755 225.08499146 C-240.85284084 222.1772677 -238.84606582 219.25581098 -236.84024048 216.33343506 C-235.82834272 214.87067976 -234.80708067 213.41435478 -233.7762146 211.96490479 C-225.63016377 200.60064154 -225.63016377 200.60064154 -225 187 C-225.11748754 185.00636358 -225.23366459 183.01257752 -225.3296814 181.01779175 C-225.43906024 178.79247566 -225.57256389 176.56977377 -225.71264648 174.34619141 C-226.46375304 162.28671403 -227.20932331 150.20674467 -227.4375 138.125 C-227.47166016 137.26608154 -227.50582031 136.40716309 -227.54101562 135.5222168 C-227.54681641 134.73371338 -227.55261719 133.94520996 -227.55859375 133.1328125 C-227.57204834 132.47168457 -227.58550293 131.81055664 -227.59936523 131.12939453 C-226.28965299 126.47631504 -223.53791396 123.8787551 -219.46382141 121.55084229 C-216.23282826 119.99332517 -212.96840315 118.53814877 -209.68359375 117.09765625 C-207.83468354 116.24869627 -205.99070519 115.38955496 -204.14652348 114.5303793 C-199.63644413 112.42993518 -195.11975555 110.35085697 -190.55639648 108.3684082 C-174.37513275 101.30589813 -163.23670279 94.7851125 -156.22973633 77.7331543 C-155.85829498 76.76630707 -155.48685364 75.79945984 -155.10415649 74.80331421 C-153.43561494 70.56709744 -151.37507936 66.55091161 -149.3203125 62.4921875 C-148.60908829 61.04177859 -147.90069606 59.58997713 -147.1953125 58.13671875 C-146.68339355 57.08556885 -146.68339355 57.08556885 -146.16113281 56.01318359 C-145.45568543 54.5574088 -144.75434438 53.09963859 -144.05664062 51.64013672 C-143.01164647 49.45925866 -141.9489014 47.28781503 -140.8828125 45.1171875 C-140.42794968 44.14856277 -140.42794968 44.14856277 -139.96389771 43.16036987 C-137.64581313 38.49528765 -135.20646434 35.92657791 -131 33 C-127.88916089 32.55999012 -125.40417888 32.43296721 -122.3125 32.5625 C-121.43400391 32.57990234 -120.55550781 32.59730469 -119.65039062 32.61523438 C-108.20690648 32.91456092 -96.76279336 33.68620639 -85.34062195 34.42947388 C-83.21411442 34.56085568 -81.08738563 34.67119867 -78.95947266 34.77709961 C-76.48611822 34.91633827 -74.01451986 35.10893177 -71.55224609 35.38110352 C-62.34863434 36.09020219 -56.66639148 32.5045975 -49.51010132 27.30651855 C-47.58954982 25.91175499 -45.64601231 24.55633196 -43.69262695 23.20800781 C-41.04666466 21.37688572 -38.41095827 19.5325678 -35.78466797 17.67333984 C-30.30043889 13.79312883 -24.76381306 9.99697541 -19.1875 6.25 C-17.83035889 5.29468384 -17.83035889 5.29468384 -16.44580078 4.32006836 C-11.00003057 0.65790338 -6.56821167 -1.95727332 0 0 Z M-8.90209961 26.58276367 C-9.7306395 27.14722702 -10.55917938 27.71169037 -11.41282654 28.29325867 C-12.31686722 28.91191299 -13.2209079 29.53056732 -14.15234375 30.16796875 C-16.06300055 31.46701825 -17.97381302 32.76583881 -19.88476562 34.06445312 C-22.90128937 36.11791848 -25.9165433 38.17317255 -28.92895508 40.23266602 C-31.83303849 42.21661529 -34.74230694 44.19276582 -37.65234375 46.16796875 C-38.53816635 46.77650192 -39.42398895 47.3850351 -40.33665466 48.01200867 C-49.85358463 54.45604237 -57.12504698 58.92945291 -68.8125 57.9375 C-69.84624756 57.87312744 -70.87999512 57.80875488 -71.94506836 57.74243164 C-74.2824125 57.59652685 -76.61907861 57.43948593 -78.95507812 57.2734375 C-83.58694475 56.95000094 -88.22255123 56.70880114 -92.859375 56.46875 C-94.12396797 56.40307579 -94.12396797 56.40307579 -95.41410828 56.33607483 C-97.11602519 56.24769088 -98.81794475 56.15935765 -100.51986694 56.07107544 C-104.6087462 55.85626904 -108.6969693 55.62989594 -112.78515625 55.40234375 C-113.5151886 55.36173828 -114.24522095 55.32113281 -114.99737549 55.27929688 C-116.66492847 55.18640378 -118.33246618 55.09323641 -120 55 C-124.89222202 64.15481785 -129.6967059 73.33898654 -134.2734375 82.65625 C-135.02869831 84.18832805 -135.78398822 85.72039176 -136.53930664 87.25244141 C-137.67453592 89.55620236 -138.80594677 91.86148127 -139.92623901 94.17254639 C-140.9900963 96.36691326 -142.06626192 98.55487454 -143.14453125 100.7421875 C-143.4588913 101.39989136 -143.77325134 102.05759521 -144.09713745 102.73522949 C-148.57061341 111.73395877 -155.13067518 114.90544815 -163.828125 119.140625 C-164.97287292 119.70827576 -166.11762085 120.27592651 -167.29705811 120.86077881 C-170.3246948 122.36026493 -173.35624525 123.85114991 -176.39025879 125.33764648 C-180.68042784 127.44232147 -184.9626194 129.56319568 -189.24578857 131.68206787 C-191.52452897 132.8081828 -193.80481119 133.93118394 -196.08673096 135.05084229 C-197.11159607 135.55516785 -198.13646118 136.05949341 -199.19238281 136.57910156 C-200.09885559 137.02368713 -201.00532837 137.46827271 -201.93927002 137.92633057 C-203.93518676 138.83506331 -203.93518676 138.83506331 -205 140 C-204.94482949 142.75295094 -204.82518115 145.47556587 -204.66015625 148.22265625 C-204.5641123 149.96441809 -204.46842335 151.70619953 -204.37304688 153.44799805 C-204.29558228 154.82343277 -204.29558228 154.82343277 -204.21655273 156.22665405 C-204.06232429 159.06573458 -203.92537292 161.90509465 -203.79492188 164.74536133 C-203.75192963 165.68078262 -203.70893738 166.61620392 -203.66464233 167.57997131 C-203.62191193 168.51006516 -203.57918152 169.440159 -203.53515625 170.3984375 C-203.25959909 176.37704251 -202.91235597 182.32735884 -202.37109375 188.2890625 C-201.24273833 203.32139749 -205.82640785 212.01587804 -214.71728516 223.92333984 C-218.67004286 229.25089628 -222.43370968 234.70760448 -226.19003296 240.17468262 C-227.48353492 242.03877188 -228.8033736 243.88170315 -230.12817383 245.72363281 C-230.92995734 246.86861011 -231.73101827 248.01409386 -232.53125 249.16015625 C-233.24861328 250.16699463 -233.96597656 251.17383301 -234.70507812 252.21118164 C-236.28287544 254.87905715 -236.28287544 254.87905715 -235.47827148 257.46166992 C-233.69018748 260.531977 -231.81466021 263.51703131 -229.81640625 266.453125 C-229.40448532 267.06572174 -228.99256439 267.67831848 -228.56816101 268.30947876 C-227.68952287 269.61581481 -226.80912886 270.92097132 -225.92712402 272.22503662 C-224.55087531 274.26724986 -223.18829626 276.3179858 -221.82910156 278.37158203 C-216.24822845 286.79776958 -216.24822845 286.79776958 -210.23046875 294.9140625 C-202.18091713 305.37472399 -201.79819565 314.03594633 -202.72802734 326.9765625 C-203.076709 331.86529496 -203.27611481 336.76002793 -203.48828125 341.65625 C-203.9348794 351.77410802 -204.45115395 361.88721961 -205 372 C-202.5836621 373.29228537 -200.16698829 374.58393224 -197.75 375.875 C-196.88713379 376.33616211 -196.02426758 376.79732422 -195.13525391 377.27246094 C-189.90659104 380.03138923 -184.63444519 382.67788234 -179.30505371 385.23544312 C-176.0574473 386.79430243 -172.81759804 388.36901042 -169.57727051 389.94293213 C-167.94956487 390.72753502 -166.31796624 391.50411509 -164.68249512 392.2723999 C-162.34310691 393.37231298 -160.01878306 394.49974003 -157.6953125 395.6328125 C-156.99385101 395.9535675 -156.29238953 396.27432251 -155.56967163 396.60479736 C-150.12856555 399.30877762 -147.74862833 402.66730475 -145 408 C-144.60248535 408.75251038 -144.2049707 409.50502075 -143.79541016 410.28033447 C-142.51930744 412.74692908 -141.28485448 415.23093 -140.05859375 417.72265625 C-139.60903824 418.62696884 -139.15948273 419.53128143 -138.69630432 420.46299744 C-137.27283656 423.32759938 -135.85478961 426.19483701 -134.4375 429.0625 C-133.01593783 431.93337509 -131.59316341 434.80363303 -130.16798401 437.67271423 C-129.28529664 439.45020636 -128.40474882 441.22876317 -127.52671814 443.00856018 C-125.16511367 447.7699464 -122.68694277 452.41393951 -120 457 C-119.32650009 456.96241577 -118.65300018 456.92483154 -117.95909119 456.8861084 C-110.93485025 456.49450587 -103.91046328 456.10560706 -96.88598633 455.71826172 C-94.26615639 455.57344456 -91.64636417 455.42794335 -89.02661133 455.28173828 C-85.25611985 455.07143198 -81.48549857 454.86360442 -77.71484375 454.65625 C-76.54791489 454.59062866 -75.38098602 454.52500732 -74.17869568 454.45739746 C-72.02688376 454.33996952 -69.87451748 454.23212114 -67.72164917 454.13598633 C-65.58762973 454.02936073 -63.45715777 453.85137146 -61.33032227 453.64648438 C-52.52267597 454.5814211 -44.74293587 460.95413355 -37.6171875 465.83203125 C-36.67690704 466.46864182 -35.73662659 467.10525238 -34.76785278 467.76115417 C-31.7996841 469.77261498 -28.83728521 471.7923874 -25.875 473.8125 C-23.84933568 475.18740508 -21.82329741 476.56175938 -19.796875 477.93554688 C-14.86024466 481.28401287 -9.92830892 484.63930017 -5 488 C2.01447691 484.17027262 2.01447691 484.17027262 8.76953125 479.90625 C9.58607178 479.35678711 10.4026123 478.80732422 11.24389648 478.24121094 C12.51535522 477.37931152 12.51535522 477.37931152 13.8125 476.5 C15.65314189 475.26487367 17.49430173 474.03051891 19.3359375 472.796875 C20.26889648 472.17103516 21.20185547 471.54519531 22.16308594 470.90039062 C26.74296101 467.83242612 31.33281834 464.78060386 35.9375 461.75 C36.75903564 461.20150391 37.58057129 460.65300781 38.42700195 460.08789062 C39.20261475 459.57935547 39.97822754 459.07082031 40.77734375 458.546875 C41.45015381 458.10182617 42.12296387 457.65677734 42.81616211 457.19824219 C47.63753671 454.55281944 51.82016658 453.75378492 57.28076172 454.04833984 C59.11198074 454.13865982 59.11198074 454.13865982 60.98019409 454.23080444 C62.28352692 454.30674835 63.58685974 454.38269226 64.9296875 454.4609375 C66.28869506 454.53205925 67.64775623 454.60216306 69.00686646 454.67129517 C72.56826745 454.85517118 76.12877511 455.05279241 79.68927002 455.25335693 C83.32886388 455.45591231 86.96913776 455.64536073 90.609375 455.8359375 C97.74029988 456.21118643 104.87036299 456.60097135 112 457 C112.26007339 456.47541199 112.52014679 455.95082397 112.7881012 455.41033936 C115.5253519 449.89117583 118.26849451 444.37496875 121.01489258 438.86035156 C122.03557555 436.80900259 123.05481418 434.75693424 124.07250977 432.70410156 C127.34006599 426.11444964 130.64503871 419.54559059 134 413 C134.52342987 411.96676605 134.52342987 411.96676605 135.05743408 410.91265869 C138.62179362 403.95049848 141.4964594 399.49857751 148.75 396.375 C150.39941227 395.58406082 152.0477498 394.79087849 153.6953125 393.99609375 C154.65211914 393.54733887 155.60892578 393.09858398 156.59472656 392.63623047 C163.20318532 389.46087267 169.69457126 386.05110444 176.20715332 382.68463135 C178.61163406 381.44439419 181.01956183 380.21112153 183.42871094 378.97998047 C184.18411163 378.5932164 184.93951233 378.20645233 185.71780396 377.80796814 C187.15648401 377.071436 188.59581245 376.33616867 190.03585815 375.60231018 C193.22499649 374.10442979 193.22499649 374.10442979 196 372 C196.10402566 369.51849083 196.14058669 367.07156227 196.125 364.58984375 C196.12234131 363.83066147 196.11968262 363.07147919 196.11694336 362.28929138 C196.04741409 353.69676141 195.53692435 345.13617285 195 336.5625 C194.71920329 332.00614941 194.44394007 327.44998096 194.20703125 322.89111328 C194.08465506 320.59107589 193.94382298 318.29168603 193.76171875 315.99560547 C193.21414597 305.85964225 200.13425943 298.11762057 205.6484375 290.109375 C206.91343261 288.24785244 208.17773583 286.38585956 209.44140625 284.5234375 C211.41646458 281.61984013 213.39590486 278.71963444 215.38720703 275.82714844 C217.32124577 273.01357014 219.23620795 270.18780439 221.1484375 267.359375 C222.05135025 266.06238678 222.05135025 266.06238678 222.97250366 264.73919678 C223.51702179 263.92775208 224.06153992 263.11630737 224.62255859 262.28027344 C225.10711517 261.57239685 225.59167175 260.86452026 226.09091187 260.13519287 C227.29838039 257.29918822 226.94680646 255.90650888 226 253 C224.81720598 250.71686483 224.81720598 250.71686483 223.27197266 248.48852539 C222.70112946 247.62735611 222.13028625 246.76618683 221.54214478 245.87892151 C220.92237762 244.96110397 220.30261047 244.04328644 219.6640625 243.09765625 C218.7113295 241.66467445 218.7113295 241.66467445 217.73934937 240.20274353 C215.70875404 237.15090084 213.66754127 234.1063577 211.625 231.0625 C209.59120301 228.02118905 207.55974867 224.97836444 205.53207397 221.93296814 C204.27056156 220.0393634 203.00527595 218.14826547 201.73574829 216.26002502 C193.53830701 203.98374558 193.53830701 203.98374558 193.890625 196.921875 C193.94033447 195.76985596 193.99004395 194.61783691 194.04125977 193.4309082 C194.11014404 192.2162085 194.17902832 191.00150879 194.25 189.75 C194.30792725 188.49598389 194.36585449 187.24196777 194.42553711 185.94995117 C194.78475696 178.36831641 195.2240568 170.79005339 195.69213867 163.21435547 C196.14367511 155.47870287 196.08824001 147.74551191 196 140 C194.34081098 139.11834816 192.68120494 138.23747719 191.02026367 137.35913086 C189.42667289 136.51605379 187.83444566 135.67039557 186.2434082 134.82250977 C181.0305928 132.06289437 175.78442304 129.38694503 170.48893738 126.79034424 C167.33980994 125.24349696 164.20004045 123.67810584 161.06045532 122.11199951 C159.4880163 121.33371732 157.91133918 120.56393549 156.33041382 119.80303955 C154.06678851 118.71221981 151.82006622 117.59172078 149.57421875 116.46484375 C148.89979736 116.14925003 148.22537598 115.83365631 147.53051758 115.50849915 C138.30940083 110.78315599 134.53693559 100.50390172 130.1640625 91.62109375 C129.37773941 90.04208031 129.37773941 90.04208031 128.57553101 88.4311676 C126.91964586 85.10274475 125.27220173 81.77022729 123.625 78.4375 C122.49665134 76.16573859 121.36775042 73.8942514 120.23828125 71.62304688 C117.48579583 66.08518489 114.74020891 60.54394595 112 55 C111.32063385 55.03980484 110.6412677 55.07960968 109.9413147 55.12062073 C102.8359052 55.53538544 95.72992945 55.93914312 88.62353516 56.33666992 C85.97550563 56.48535391 83.32784537 56.6385246 80.68017578 56.79370117 C76.86268206 57.01695062 73.04473423 57.23010961 69.2265625 57.44140625 C68.05324371 57.51218887 66.87992493 57.5829715 65.67105103 57.65589905 C46.95403833 58.6605339 46.95403833 58.6605339 39.0234375 52.6953125 C37.73098802 51.78038098 36.43765239 50.86670031 35.14355469 49.95410156 C34.47191284 49.47154907 33.800271 48.98899658 33.10827637 48.49182129 C29.44039062 45.89641676 25.67301688 43.45291929 21.9140625 40.9921875 C20.37215868 39.97692257 18.83049254 38.96129659 17.2890625 37.9453125 C16.52368164 37.44161133 15.75830078 36.93791016 14.96972656 36.41894531 C13.38086758 35.37272039 11.79267134 34.32548842 10.20507812 33.27734375 C7.88034037 31.74260204 5.55369037 30.21080187 3.2265625 28.6796875 C2.15651474 27.97209793 2.15651474 27.97209793 1.06484985 27.25021362 C-4.00257104 23.67035185 -4.00257104 23.67035185 -8.90209961 26.58276367 Z " fill="#000000" transform="translate(261,0)"/>
<path d="M0 0 C1.82305147 1.80939565 3.56414018 3.65424534 5.2734375 5.5703125 C6.1190625 6.4159375 6.9646875 7.2615625 7.8359375 8.1328125 C9.0425 9.339375 9.0425 9.339375 10.2734375 10.5703125 C10.78841797 11.06063965 11.30339844 11.5509668 11.83398438 12.05615234 C16.18030876 16.25570812 19.77880162 20.66662022 23.2109375 25.6328125 C23.72744873 26.37523193 24.24395996 27.11765137 24.77612305 27.88256836 C49.40245459 63.72325802 59.00330195 106.42055299 51.80078125 149.39013672 C46.16226163 179.34216175 32.39861489 210.94665671 9.2734375 231.5703125 C8.4484375 232.3953125 7.6234375 233.2203125 6.7734375 234.0703125 C5.9484375 234.8953125 5.1234375 235.7203125 4.2734375 236.5703125 C3.74878906 237.14136719 3.22414063 237.71242188 2.68359375 238.30078125 C-23.11096618 265.62229187 -64.50505938 279.49299517 -101.2421875 280.76171875 C-145.80110462 281.66415326 -186.3115104 265.19689012 -218.56176758 234.71411133 C-247.26473712 206.89431008 -264.78980002 167.03787661 -265.9296875 127.1171875 C-266.56828503 79.77962009 -250.10632421 38.92664462 -217.14550781 5.01367188 C-193.46416049 -19.07513152 -159.13388174 -34.68876373 -125.7265625 -38.4296875 C-124.7571875 -38.54054688 -123.7878125 -38.65140625 -122.7890625 -38.765625 C-78.67954089 -43.10618963 -33.29577374 -29.67044594 0 0 Z M-205.18261719 24.97851562 C-209.01796007 28.93272745 -212.42172856 33.17054368 -215.7265625 37.5703125 C-216.57541016 38.64345703 -216.57541016 38.64345703 -217.44140625 39.73828125 C-233.69340857 61.34388433 -242.78053467 88.62908508 -243.7265625 115.5703125 C-243.76652344 116.32183594 -243.80648437 117.07335937 -243.84765625 117.84765625 C-244.79350586 150.39601035 -233.03585205 183.9820716 -211.7265625 208.5703125 C-211.25992188 209.11381348 -210.79328125 209.65731445 -210.3125 210.21728516 C-187.9963901 235.95688919 -156.02548415 254.36745811 -121.7265625 257.5703125 C-121.08106445 257.63589355 -120.43556641 257.70147461 -119.77050781 257.76904297 C-81.84465077 261.44868056 -46.06027138 249.41405767 -16.7265625 225.5703125 C10.42565464 202.93161837 26.83476453 170.39557474 31.2734375 135.5703125 C33.19424268 96.48483736 24.24182987 60.63897734 -1.7265625 30.5703125 C-2.38398438 29.79171875 -3.04140625 29.013125 -3.71875 28.2109375 C-27.0741425 1.12958744 -62.3123732 -14.50725468 -97.6015625 -17.1796875 C-138.13055133 -19.52532802 -176.66367427 -3.38864108 -205.18261719 24.97851562 Z " fill="#000000" transform="translate(362.7265625,135.4296875)"/>
<path d="M0 0 C3.30381513 2.40903187 4.6612769 4.02617109 6 7.875 C6 14.79740184 2.9977058 18.24271411 -1.6875 23 C-5.36044046 26.5292167 -9.13351366 29.9129644 -13.00390625 33.22265625 C-15.26132626 35.23268777 -17.37735713 37.34832953 -19.5 39.5 C-22.22829407 42.26560408 -24.98516834 44.91287031 -27.9375 47.4375 C-31.1103592 50.15619248 -34.06338382 53.02751675 -37 56 C-40.52106323 59.56400302 -44.13186008 62.90304168 -47.9375 66.15625 C-51.29035849 69.15350228 -54.39893756 72.39159634 -57.55859375 75.58984375 C-60.27155727 78.26808134 -63.10535913 80.74594521 -66.00390625 83.21875 C-68.27190733 85.24264138 -70.37812204 87.38621492 -72.5 89.5625 C-83.26539507 100.47715531 -83.26539507 100.47715531 -90.125 101.4375 C-97.9581653 100.55311037 -103.33018603 93.8916003 -108.375 88.25 C-113.32246287 82.8198095 -118.40767092 77.56354959 -123.6484375 72.41796875 C-124.52216507 71.55738358 -124.52216507 71.55738358 -125.4135437 70.67941284 C-127.77461711 68.3550886 -130.13595236 66.03150706 -132.51727295 63.72790527 C-134.20271234 62.09698033 -135.87550129 60.45391297 -137.546875 58.80859375 C-138.05253998 58.32674118 -138.55820496 57.84488861 -139.07919312 57.34843445 C-143.51203142 52.94843443 -145.95323716 48.7122447 -146.0625 42.375 C-144.67650503 37.97242775 -142.82587625 36.50153447 -139 34 C-135.60253196 32.60616696 -134.28758098 32.9029406 -130.77954102 34.08691406 C-126.34045627 36.07069304 -123.31753309 39.15905905 -119.96484375 42.609375 C-119.32309708 43.25440979 -118.6813504 43.89944458 -118.02015686 44.56402588 C-115.98304119 46.61680369 -113.96050011 48.68332066 -111.9375 50.75 C-110.57574198 52.12326127 -109.21311925 53.49566563 -107.84960938 54.8671875 C-106.53307938 56.19715015 -105.21729925 57.52785559 -103.90234375 58.859375 C-103.29905746 59.47004822 -102.69577118 60.08072144 -102.07420349 60.7098999 C-98.20225991 64.66788817 -94.56434833 68.76248751 -91 73 C-87.12050284 71.20467891 -84.73038706 68.89932945 -81.75 65.8125 C-78.57798145 62.56464372 -75.39690527 59.38257414 -71.9375 56.4375 C-67.87944887 52.97695333 -64.18379833 49.1982349 -60.4375 45.40625 C-57.74716094 42.75040247 -54.93426475 40.29864568 -52.0625 37.84375 C-49.61075311 35.65203687 -47.31114427 33.33932896 -45 31 C-41.47893677 27.43599698 -37.86813992 24.09695832 -34.0625 20.84375 C-31.61075311 18.65203687 -29.31114427 16.33932896 -27 14 C-22.82733612 9.78887839 -18.59262265 5.75098818 -14 2 C-13.195625 1.34 -12.39125 0.68 -11.5625 0 C-7.57588447 -1.5557524 -4.07103203 -1.20213446 0 0 Z " fill="#000000" transform="translate(327,206)"/>
</svg>
