<svg width="100" height="100" viewBox="0 0 100 100" fill="none" xmlns="http://www.w3.org/2000/svg">
<path d="M76.7581 26.0745C76.7581 25.775 76.5771 25.0719 75.2872 24.0554C74.0268 23.0626 72.0418 22.0532 69.356 21.1579C64.0094 19.3758 56.4562 18.2298 47.994 18.2298C39.5317 18.2298 31.9786 19.3758 26.632 21.1579C23.9462 22.0532 21.9611 23.0626 20.7007 24.0554C19.4109 25.0719 19.2298 25.775 19.2298 26.0745C19.2298 26.374 19.4109 27.0771 20.7007 28.0936C21.9611 29.0864 23.9462 30.0958 26.632 30.9911C31.9786 32.7732 39.5317 33.9192 47.994 33.9192C56.4562 33.9192 64.0094 32.7732 69.356 30.9911C72.0418 30.0958 74.0268 29.0864 75.2872 28.0936C76.5771 27.0771 76.7581 26.374 76.7581 26.0745ZM81.988 26.0745C81.988 28.6633 80.4111 30.7135 78.5252 32.1998C76.6101 33.7089 74.0016 34.9548 71.0107 35.9519C65.0004 37.9553 56.8619 39.149 47.994 39.149C39.126 39.149 30.9876 37.9553 24.9772 35.9519C21.9864 34.9548 19.3778 33.7089 17.4627 32.1998C15.5768 30.7135 14 28.6633 14 26.0745C14 23.4857 15.5768 21.4355 17.4627 19.9492C19.3778 18.4401 21.9864 17.1942 24.9772 16.1971C30.9876 14.1937 39.126 13 47.994 13C56.8619 13 65.0004 14.1937 71.0107 16.1971C74.0016 17.1942 76.6101 18.4401 78.5252 19.9492C80.4111 21.4355 81.988 23.4857 81.988 26.0745Z" fill="black"/>
<path d="M14.0004 26.0749C14.0004 24.6308 15.1713 23.4601 16.6153 23.46C18.0595 23.46 19.2303 24.6307 19.2303 26.0749V74.917C19.2268 75.2366 19.47 76.193 21.5081 77.5148C23.4588 78.7799 26.4825 79.9747 30.4322 80.9094C34.3503 81.8366 38.9278 82.4474 43.7758 82.6731C48.621 82.8987 53.5534 82.7311 58.1477 82.1896C59.5816 82.0206 60.8826 83.0473 61.052 84.4811C61.221 85.9153 60.1947 87.2163 58.7605 87.3854C53.8699 87.9618 48.649 88.1344 43.5307 87.8961C38.416 87.6579 33.5113 87.0135 29.2269 85.9996C24.9733 84.993 21.3099 83.6211 18.6617 81.9036C16.1017 80.2434 13.9653 77.8898 14.0004 74.8557V26.0749Z" fill="black"/>
<path d="M76.7578 36.5345V26.0749C76.7578 24.6307 77.9286 23.46 79.3727 23.46C80.8169 23.46 81.9877 24.6307 81.9877 26.0749V36.5345C81.9877 37.9786 80.8169 39.1494 79.3727 39.1494C77.9286 39.1494 76.7578 37.9786 76.7578 36.5345Z" fill="black"/>
<path d="M77.2772 48.9149C78.07 47.8524 79.5548 47.5413 80.7161 48.2374C81.8771 48.934 82.3046 50.3915 81.741 51.5911L81.615 51.826L73.5319 65.2989H82.8578L83.2085 65.3227C84.0117 65.4313 84.7263 65.9099 85.1322 66.6268C85.5959 67.4461 85.5856 68.4512 85.1016 69.2587L74.6419 86.6914C73.8991 87.9294 72.2914 88.3324 71.0532 87.5902C69.8151 86.8474 69.4121 85.2398 70.1543 84.0016L78.2374 70.5287H68.9115C67.9694 70.5287 67.1013 70.0206 66.6371 69.2008C66.1734 68.3815 66.1837 67.3764 66.6677 66.5689L77.1274 49.1362L77.2772 48.9149Z" fill="black"/>
<path d="M16.6081 47.8662C17.9613 47.8627 19.0781 48.8877 19.2162 50.2053L19.2298 50.4743L19.2435 50.6207C19.3181 51.0281 19.7197 51.8753 21.4089 52.9939C23.263 54.2213 26.1375 55.3928 29.9108 56.3272C33.6537 57.254 38.0444 57.8886 42.7301 58.1624C47.4123 58.4359 52.2225 58.3416 56.7649 57.8866C58.201 57.7434 59.4804 58.7898 59.6249 60.2257C59.7688 61.6623 58.7223 62.9447 57.2858 63.0892C52.4618 63.5723 47.3747 63.6712 42.4237 63.382C37.4767 63.0929 32.7621 62.4208 28.6545 61.4038C24.5775 60.3942 21.0693 59.0394 18.525 57.3554C16.2126 55.8246 14.2651 53.7147 14.0238 51.0327L14 50.4879L14.0136 50.2224C14.1432 48.9031 15.254 47.8704 16.6081 47.8662Z" fill="black"/>
</svg>
