<svg width="400" height="400" viewBox="0 0 400 400" fill="none" xmlns="http://www.w3.org/2000/svg">
<path d="M336.043 83.9958C335.453 73.1624 326.836 64.5476 316.003 63.9563C294.143 62.762 251.368 63.9238 210.465 85.0798C189.614 95.8653 167.562 114.152 149.963 135.249C149.746 135.509 149.535 135.771 149.32 136.031L109.381 139.116C102.806 139.624 96.9508 143.071 93.3144 148.57L66.0664 189.783C63.3088 193.954 62.8704 199.173 64.8929 203.745C66.9159 208.318 71.0729 211.504 76.0134 212.27L109.663 217.482C109.543 218.135 109.424 218.789 109.315 219.443C108.195 226.144 110.415 233.033 115.255 237.873L162.125 284.744C166.138 288.757 171.56 290.969 177.116 290.969C178.269 290.969 179.419 290.873 180.556 290.683C181.21 290.574 181.863 290.455 182.518 290.336L187.73 323.986C188.495 328.926 191.682 333.083 196.253 335.106C198.116 335.933 200.133 336.362 202.172 336.363C205.033 336.361 207.831 335.516 210.215 333.933L251.429 306.684C256.929 303.048 260.374 297.193 260.882 290.619L263.966 250.68C264.227 250.464 264.489 250.253 264.749 250.037C285.847 232.438 304.134 210.386 314.919 189.534C336.076 148.63 337.235 105.853 336.043 83.9958ZM242.616 293.354L203.193 319.419L198.113 286.625C214.775 281.726 231.257 273.881 246.96 263.369L244.95 289.387C244.892 290.183 244.65 290.955 244.245 291.643C243.841 292.331 243.283 292.916 242.616 293.354ZM173.425 273.444L126.554 226.573C125.358 225.377 124.805 223.696 125.076 222.078C126.47 213.745 128.635 205.813 131.315 198.341L201.643 268.668C192.668 271.883 184.63 273.801 177.921 274.923C176.3 275.192 174.621 274.641 173.425 273.444ZM110.612 155.049L136.629 153.039C126.117 168.742 118.271 185.224 113.373 201.886L80.5789 196.807L106.644 157.383C107.083 156.716 107.668 156.159 108.356 155.753C109.043 155.349 109.815 155.108 110.612 155.049ZM254.514 237.765C241.606 248.532 229.076 256.319 217.527 261.954L138.042 182.469C145.423 167.393 154.433 154.838 162.233 145.485C178.52 125.961 198.776 109.117 217.808 99.2735C255.347 79.8559 294.898 78.8103 315.133 79.9119C316.424 79.9808 317.645 80.5249 318.56 81.4397C319.474 82.3543 320.019 83.575 320.087 84.8668C321.191 105.102 320.143 144.653 300.725 182.193C290.883 201.223 274.039 221.479 254.514 237.765Z" fill="#024D81"/>
<path d="M250.454 189.448C260.683 189.447 270.914 185.553 278.702 177.766C286.248 170.221 290.403 160.189 290.403 149.518C290.403 138.848 286.247 128.815 278.702 121.27C263.125 105.693 237.782 105.694 222.206 121.27C214.66 128.815 210.505 138.848 210.505 149.518C210.505 160.189 214.661 170.221 222.206 177.766C229.994 185.554 240.222 189.449 250.454 189.448ZM233.504 132.569C238.177 127.896 244.315 125.56 250.453 125.56C256.592 125.56 262.729 127.896 267.402 132.569C271.929 137.096 274.422 143.115 274.422 149.517C274.422 155.92 271.929 161.939 267.402 166.466C258.057 175.813 242.85 175.812 233.504 166.466C228.977 161.939 226.484 155.92 226.484 149.518C226.484 143.116 228.977 137.096 233.504 132.569ZM71.7863 288.362C73.8312 288.362 75.8761 287.582 77.4358 286.022L103.523 259.935C106.643 256.814 106.643 251.756 103.523 248.635C100.403 245.515 95.3435 245.515 92.2226 248.635L66.1369 274.722C63.0165 277.843 63.0165 282.901 66.1369 286.022C66.8779 286.764 67.7584 287.353 68.728 287.755C69.6975 288.157 70.7369 288.363 71.7863 288.362ZM127.429 272.543C124.309 269.422 119.25 269.422 116.129 272.543L65.9765 322.695C62.8561 325.816 62.8561 330.874 65.9765 333.995C67.5367 335.555 69.581 336.335 71.626 336.335C73.6709 336.335 75.7158 335.555 77.2755 333.994L127.428 283.842C130.549 280.722 130.549 275.663 127.429 272.543ZM140.036 296.449L113.95 322.535C110.829 325.655 110.829 330.714 113.95 333.834C115.51 335.395 117.554 336.175 119.599 336.175C121.644 336.175 123.689 335.395 125.249 333.834L151.335 307.748C154.455 304.628 154.455 299.569 151.335 296.449C148.215 293.328 143.156 293.328 140.036 296.449Z" fill="#024D81"/>
</svg>
