<svg width="512" height="512" viewBox="0 0 512 512" fill="none" xmlns="http://www.w3.org/2000/svg">
<path d="M221 88.0039H291C292.856 88.0039 294.637 87.2664 295.95 85.9537C297.262 84.6409 298 82.8604 298 81.0039C298 79.1474 297.262 77.3669 295.95 76.0542C294.637 74.7414 292.856 74.0039 291 74.0039H221C219.143 74.0039 217.363 74.7414 216.05 76.0542C214.737 77.3669 214 79.1474 214 81.0039C214 82.8604 214.737 84.6409 216.05 85.9537C217.363 87.2664 219.143 88.0039 221 88.0039ZM249 438.004H263C264.857 438.004 266.637 437.266 267.95 435.954C269.262 434.641 270 432.86 270 431.004C270 429.147 269.262 427.367 267.95 426.054C266.637 424.741 264.857 424.004 263 424.004H249C247.143 424.004 245.363 424.741 244.05 426.054C242.737 427.367 242 429.147 242 431.004C242 432.86 242.737 434.641 244.05 435.954C245.363 437.266 247.143 438.004 249 438.004ZM67 270.004C65.1435 270.004 63.363 269.266 62.0503 267.954C60.7375 266.641 60 264.86 60 263.004V249.004C60 247.147 60.7375 245.367 62.0503 244.054C63.363 242.741 65.1435 242.004 67 242.004C68.8565 242.004 70.637 242.741 71.9497 244.054C73.2625 245.367 74 247.147 74 249.004V263.004C74 264.86 73.2625 266.641 71.9497 267.954C70.637 269.266 68.8565 270.004 67 270.004ZM95 284.004C93.1435 284.004 91.363 283.266 90.0503 281.954C88.7375 280.641 88 278.86 88 277.004V235.004C88 233.147 88.7375 231.367 90.0503 230.054C91.363 228.741 93.1435 228.004 95 228.004C96.8565 228.004 98.637 228.741 99.9497 230.054C101.262 231.367 102 233.147 102 235.004V277.004C102 278.86 101.262 280.641 99.9497 281.954C98.637 283.266 96.8565 284.004 95 284.004ZM123 312.004C121.143 312.004 119.363 311.266 118.05 309.954C116.737 308.641 116 306.86 116 305.004V207.004C116 205.147 116.737 203.367 118.05 202.054C119.363 200.741 121.143 200.004 123 200.004C124.857 200.004 126.637 200.741 127.95 202.054C129.262 203.367 130 205.147 130 207.004V305.004C130 306.86 129.262 308.641 127.95 309.954C126.637 311.266 124.857 312.004 123 312.004ZM151 340.004C149.143 340.004 147.363 339.266 146.05 337.954C144.737 336.641 144 334.86 144 333.004V179.004C144 177.147 144.737 175.367 146.05 174.054C147.363 172.741 149.143 172.004 151 172.004C152.857 172.004 154.637 172.741 155.95 174.054C157.263 175.367 158 177.147 158 179.004V333.004C158 334.86 157.263 336.641 155.95 337.954C154.637 339.266 152.857 340.004 151 340.004ZM445 270.004C443.143 270.004 441.363 269.266 440.05 267.954C438.737 266.641 438 264.86 438 263.004V249.004C438 247.147 438.737 245.367 440.05 244.054C441.363 242.741 443.143 242.004 445 242.004C446.856 242.004 448.637 242.741 449.95 244.054C451.262 245.367 452 247.147 452 249.004V263.004C452 264.86 451.262 266.641 449.95 267.954C448.637 269.266 446.856 270.004 445 270.004ZM417 284.004C415.143 284.004 413.363 283.266 412.05 281.954C410.737 280.641 410 278.86 410 277.004V235.004C410 233.147 410.737 231.367 412.05 230.054C413.363 228.741 415.143 228.004 417 228.004C418.856 228.004 420.637 228.741 421.95 230.054C423.262 231.367 424 233.147 424 235.004V277.004C424 278.86 423.262 280.641 421.95 281.954C420.637 283.266 418.856 284.004 417 284.004ZM389 312.004C387.143 312.004 385.363 311.266 384.05 309.954C382.737 308.641 382 306.86 382 305.004V207.004C382 205.147 382.737 203.367 384.05 202.054C385.363 200.741 387.143 200.004 389 200.004C390.856 200.004 392.637 200.741 393.95 202.054C395.262 203.367 396 205.147 396 207.004V305.004C396 306.86 395.262 308.641 393.95 309.954C392.637 311.266 390.856 312.004 389 312.004ZM361 340.004C359.143 340.004 357.363 339.266 356.05 337.954C354.737 336.641 354 334.86 354 333.004V179.004C354 177.147 354.737 175.367 356.05 174.054C357.363 172.741 359.143 172.004 361 172.004C362.856 172.004 364.637 172.741 365.95 174.054C367.262 175.367 368 177.147 368 179.004V333.004C368 334.86 367.262 336.641 365.95 337.954C364.637 339.266 362.856 340.004 361 340.004Z" fill="#024D81"/>
<path d="M333 466H179C169.721 465.989 160.825 462.298 154.264 455.736C147.702 449.175 144.011 440.279 144 431V361C144 359.143 144.737 357.363 146.05 356.05C147.363 354.737 149.143 354 151 354C152.857 354 154.637 354.737 155.95 356.05C157.263 357.363 158 359.143 158 361V431C158 442.578 167.422 452 179 452H333C344.578 452 354 442.578 354 431V361C354 359.143 354.738 357.363 356.05 356.05C357.363 354.737 359.144 354 361 354C362.857 354 364.637 354.737 365.95 356.05C367.263 357.363 368 359.143 368 361V431C368 450.292 352.306 466 333 466ZM361 158C359.144 158 357.363 157.263 356.05 155.95C354.738 154.637 354 152.857 354 151V81C354 69.422 344.578 60 333 60H179C167.422 60 158 69.422 158 81V151C158 152.857 157.263 154.637 155.95 155.95C154.637 157.263 152.857 158 151 158C149.143 158 147.363 157.263 146.05 155.95C144.737 154.637 144 152.857 144 151V81C144 61.708 159.694 46 179 46H333C352.306 46 368 61.708 368 81V151C368 152.857 367.263 154.637 365.95 155.95C364.637 157.263 362.857 158 361 158ZM256 312C217.402 312 186 280.598 186 242C186 240.143 186.737 238.363 188.05 237.05C189.363 235.737 191.143 235 193 235C194.857 235 196.637 235.737 197.95 237.05C199.263 238.363 200 240.143 200 242C200 272.884 225.116 298 256 298C286.884 298 312 272.884 312 242C312 240.143 312.738 238.363 314.05 237.05C315.363 235.737 317.144 235 319 235C320.857 235 322.637 235.737 323.95 237.05C325.263 238.363 326 240.143 326 242C326 280.598 294.598 312 256 312Z" fill="#024D81"/>
<path d="M255.996 283.996C232.84 283.996 213.996 265.152 213.996 241.996V185.996C213.996 162.84 232.84 143.996 255.996 143.996C279.152 143.996 297.996 162.84 297.996 185.996V241.996C297.996 265.152 279.152 283.996 255.996 283.996ZM255.996 157.996C240.554 157.996 227.996 170.554 227.996 185.996V241.996C227.996 257.438 240.554 269.996 255.996 269.996C271.438 269.996 283.996 257.438 283.996 241.996V185.996C283.996 170.554 271.438 157.996 255.996 157.996ZM304.996 367.996H206.996C205.14 367.996 203.359 367.259 202.046 365.946C200.734 364.633 199.996 362.853 199.996 360.996C199.996 359.14 200.734 357.359 202.046 356.046C203.359 354.734 205.14 353.996 206.996 353.996H227.996C239.574 353.996 248.996 344.574 248.996 332.996V304.996C248.996 303.14 249.734 301.359 251.046 300.046C252.359 298.734 254.14 297.996 255.996 297.996C257.853 297.996 259.633 298.734 260.946 300.046C262.259 301.359 262.996 303.14 262.996 304.996V332.996C262.996 344.574 272.418 353.996 283.996 353.996H304.996C306.853 353.996 308.633 354.734 309.946 356.046C311.259 357.359 311.996 359.14 311.996 360.996C311.996 362.853 311.259 364.633 309.946 365.946C308.633 367.259 306.853 367.996 304.996 367.996Z" fill="#024D81"/>
</svg>
