<svg width="70" height="70" viewBox="0 0 70 70" fill="none" xmlns="http://www.w3.org/2000/svg">
<circle cx="35" cy="35" r="35" fill="#FFE8AF"/>
<path d="M23.6886 18.0341C23.7363 18.0339 23.784 18.0338 23.8331 18.0336C23.9941 18.0331 24.1552 18.033 24.3162 18.033C24.4323 18.0327 24.5484 18.0324 24.6646 18.0321C24.9847 18.0313 25.3047 18.0309 25.6248 18.0306C25.9697 18.0302 26.3145 18.0294 26.6594 18.0286C27.4927 18.027 28.3261 18.026 29.1594 18.0251C29.3947 18.0248 29.63 18.0246 29.8654 18.0243C31.3262 18.0226 32.7871 18.0211 34.2479 18.0202C34.5864 18.02 34.9249 18.0198 35.2634 18.0196C35.3475 18.0195 35.4316 18.0195 35.5183 18.0194C36.8812 18.0186 38.2441 18.0163 39.607 18.0135C41.0058 18.0106 42.4046 18.009 43.8034 18.0086C44.589 18.0084 45.3745 18.0076 46.1601 18.0053C46.8291 18.0034 47.4981 18.0027 48.1672 18.0034C48.5085 18.0038 48.8498 18.0036 49.1911 18.0019C49.5038 18.0004 49.8164 18.0004 50.1291 18.0017C50.242 18.0019 50.3549 18.0015 50.4679 18.0005C51.0944 17.9952 51.5966 18.0261 52.1358 18.3844C52.1977 18.4224 52.2596 18.4603 52.3233 18.4995C52.7539 18.942 52.9641 19.4249 52.9645 20.0347C52.9648 20.0851 52.9651 20.1355 52.9654 20.1874C52.9664 20.3566 52.9668 20.5259 52.9672 20.6952C52.9677 20.8164 52.9683 20.9376 52.9689 21.0588C52.9707 21.4573 52.9717 21.8558 52.9727 22.2543C52.9731 22.3915 52.9734 22.5288 52.9738 22.666C52.9753 23.2371 52.9765 23.8082 52.9773 24.3793C52.9784 25.1972 52.9807 26.0152 52.9846 26.8331C52.9872 27.4084 52.9885 27.9838 52.9889 28.5591C52.9891 28.9026 52.99 29.246 52.9922 29.5895C52.9942 29.913 52.9947 30.2364 52.9939 30.5598C52.9938 30.6782 52.9944 30.7965 52.9956 30.9149C53.0018 31.5566 52.9855 32.0849 52.6131 32.6355C52.5751 32.6974 52.5372 32.7593 52.498 32.823C52.2066 33.1066 51.8397 33.3252 51.4539 33.4538C51.3133 33.4491 51.1728 33.4397 51.0326 33.4277C48.273 33.1184 48.273 33.1184 45.8101 34.0832C45.2115 34.6273 44.6987 35.264 44.2462 35.9331C44.127 36.084 44.007 36.1693 43.8183 36.2113C43.5245 36.2275 43.325 36.2047 43.0981 36.01C42.8698 35.8026 42.7023 35.578 42.5301 35.325C41.989 34.5432 41.3222 33.6595 40.3403 33.458C38.8736 33.2164 37.3138 33.3467 35.8391 33.4538C35.8399 33.5042 35.8408 33.5546 35.8416 33.6065C35.8423 33.6733 35.8429 33.74 35.8436 33.8087C35.8445 33.8746 35.8453 33.9405 35.8462 34.0084C35.8354 34.3042 35.757 34.5638 35.6644 34.8431C35.6488 34.8927 35.6333 34.9424 35.6173 34.9936C35.4051 35.6651 35.1759 36.3316 34.9526 36.9995C35.0244 36.9989 35.0962 36.9983 35.1702 36.9977C35.8493 36.9921 36.5284 36.988 37.2075 36.9854C37.5566 36.9839 37.9057 36.982 38.2547 36.9789C38.5921 36.9759 38.9294 36.9743 39.2668 36.9736C39.395 36.9731 39.5232 36.9721 39.6514 36.9706C40.6741 36.9593 41.461 37.0527 42.2271 37.7922C42.7557 38.3616 42.8815 38.9928 42.8783 39.7469C42.8561 40.099 42.7718 40.4172 42.6578 40.7498C42.7007 40.7681 42.7436 40.7863 42.7878 40.8052C43.4195 41.0944 43.8696 41.4846 44.1598 42.125C44.4262 42.9006 44.4155 43.6362 44.0769 44.3807C43.773 44.9399 43.3576 45.2456 42.7942 45.5229C42.8089 45.5652 42.8237 45.6074 42.8389 45.651C43.0917 46.4551 43.1212 47.2848 42.726 48.0458C42.3893 48.6028 41.931 48.9714 41.3622 49.2732C41.3762 49.3103 41.3902 49.3475 41.4046 49.3858C41.6811 50.1599 41.7019 50.8503 41.3452 51.6086C41.0011 52.2389 40.5554 52.6299 39.8794 52.8913C39.6438 52.9592 39.4508 52.9728 39.2059 52.9735C39.1161 52.9741 39.0263 52.9747 38.9338 52.9753C38.835 52.9752 38.7363 52.9752 38.6375 52.9751C38.5329 52.9755 38.4282 52.976 38.3235 52.9765C38.0396 52.9777 37.7557 52.978 37.4717 52.9781C37.2937 52.9782 37.1157 52.9785 36.9377 52.9788C36.315 52.9801 35.6923 52.9806 35.0695 52.9805C34.4922 52.9805 33.9148 52.9819 33.3375 52.9841C32.8398 52.9858 32.342 52.9866 31.8443 52.9865C31.548 52.9864 31.2517 52.9868 30.9553 52.9883C29.4823 52.995 28.0921 52.9781 26.702 52.4183C26.5902 52.3735 26.4779 52.3296 26.3653 52.2867C26.3183 52.2677 26.2713 52.2488 26.2228 52.2292C26.0426 52.197 25.967 52.2432 25.8156 52.3416C25.7664 52.395 25.7171 52.4485 25.6664 52.5035C25.0865 53.0448 24.3934 52.9966 23.6466 52.9939C23.5284 52.9943 23.4101 52.9947 23.2919 52.9952C23.0448 52.9959 22.7977 52.9956 22.5506 52.9946C22.2355 52.9934 21.9205 52.995 21.6054 52.9974C21.3614 52.9989 21.1174 52.9988 20.8734 52.9982C20.7573 52.9982 20.6412 52.9986 20.5251 52.9997C19.7738 53.0052 19.201 52.9503 18.6005 52.4567C18.218 51.9867 18.0322 51.6174 18.0318 51.0063C18.0315 50.9532 18.0312 50.9 18.0308 50.8452C18.0299 50.6665 18.0295 50.4878 18.0291 50.3091C18.0286 50.1812 18.028 50.0533 18.0274 49.9254C18.0256 49.5048 18.0246 49.0841 18.0236 48.6635C18.0232 48.5186 18.0229 48.3738 18.0225 48.2289C18.021 47.6263 18.0197 47.0236 18.019 46.4209C18.0179 45.5576 18.0156 44.6943 18.0117 43.8309C18.0091 43.2238 18.0078 42.6166 18.0074 42.0094C18.0071 41.6469 18.0063 41.2844 18.0041 40.9218C18.0021 40.5805 18.0016 40.2392 18.0024 39.8978C18.0024 39.7728 18.0019 39.6479 18.0007 39.5229C17.9938 38.7664 18.0296 38.1754 18.5315 37.5708C18.6037 37.5095 18.6037 37.5095 18.6772 37.447C18.7248 37.4049 18.7723 37.3628 18.8213 37.3194C19.2195 37.0577 19.6059 36.9688 20.0765 36.9719C20.152 36.9712 20.152 36.9712 20.229 36.9705C20.3935 36.9693 20.558 36.9695 20.7226 36.9699C20.838 36.9696 20.9535 36.9692 21.069 36.9688C21.3103 36.9682 21.5517 36.9684 21.793 36.9691C22.101 36.9699 22.4089 36.9685 22.7169 36.9665C22.9552 36.9652 23.1935 36.9653 23.4317 36.9656C23.5452 36.9657 23.6587 36.9652 23.7722 36.9644C24.6334 36.9589 25.1928 37.084 25.8838 37.6132C28.2187 36.4239 29.2634 35.1754 30.1412 32.6994C30.1911 32.5597 30.241 32.42 30.291 32.2803C30.3156 32.2117 30.3401 32.1431 30.3654 32.0723C30.4144 31.9354 30.4635 31.7986 30.5126 31.6617C30.6287 31.3379 30.7438 31.0137 30.8559 30.6885C30.8969 30.5719 30.9379 30.4553 30.9789 30.3387C31.0054 30.2598 31.0054 30.2598 31.0324 30.1792C31.1462 29.8597 31.2679 29.6449 31.5433 29.4307C32.0062 29.3112 32.5007 29.4864 32.9369 29.6395C32.9996 29.6612 33.0624 29.6829 33.127 29.7052C34.3191 30.1329 35.0753 30.9001 35.6345 32.0218C35.7373 32.0211 35.7373 32.0211 35.8422 32.0203C36.4902 32.0159 37.1382 32.0147 37.7863 32.0167C38.1194 32.0176 38.4524 32.0174 38.7855 32.0146C39.1074 32.0119 39.4292 32.0122 39.7511 32.0146C39.8735 32.015 39.9959 32.0143 40.1183 32.0125C41.1956 31.9979 41.1956 31.9979 41.6199 32.3745C41.7183 32.482 41.8145 32.5916 41.9077 32.7037C41.9848 32.78 42.0627 32.8555 42.1416 32.9299C42.2103 32.9986 42.2789 33.0675 42.3472 33.1365C42.4025 33.192 42.4025 33.192 42.459 33.2486C42.5737 33.3637 42.6882 33.479 42.8027 33.5944C42.8817 33.6737 42.9607 33.7531 43.0397 33.8324C43.2308 34.0242 43.4217 34.2162 43.6124 34.4084C43.9353 34.1392 44.2394 33.8583 44.5343 33.559C44.5741 33.5188 44.614 33.4787 44.6551 33.4374C44.7807 33.3109 44.9062 33.1842 45.0316 33.0574C45.198 32.8892 45.3647 32.7211 45.5315 32.5532C45.5886 32.4953 45.5886 32.4953 45.6469 32.4361C45.957 32.124 46.0816 32.0815 46.5195 32.0782C46.5659 32.0777 46.6124 32.0773 46.6603 32.0768C46.7614 32.0758 46.8625 32.075 46.9636 32.0743C47.1238 32.0732 47.2841 32.0716 47.4443 32.0699C47.9 32.0651 48.3558 32.061 48.8115 32.0575C49.0902 32.0553 49.3689 32.0525 49.6476 32.0493C49.7536 32.0482 49.8596 32.0474 49.9655 32.0468C50.1144 32.046 50.2632 32.0443 50.412 32.0425C50.5388 32.0414 50.5388 32.0414 50.6682 32.0404C50.9342 32.0198 51.1411 31.9949 51.3857 31.8855C51.5078 31.5608 51.5392 31.269 51.5394 30.9242C51.5396 30.8779 51.5399 30.8317 51.5401 30.784C51.5406 30.6301 51.5402 30.4763 51.5398 30.3225C51.5399 30.2117 51.5402 30.1009 51.5405 29.99C51.5411 29.69 51.5409 29.3899 51.5404 29.0898C51.5401 28.7753 51.5404 28.4609 51.5406 28.1464C51.5409 27.6184 51.5405 27.0904 51.5399 26.5623C51.5392 25.9524 51.5394 25.3425 51.5401 24.7326C51.5408 24.2083 51.5408 23.684 51.5405 23.1598C51.5403 22.8469 51.5403 22.5341 51.5407 22.2212C51.5411 21.927 51.5408 21.6329 51.54 21.3387C51.5399 21.2309 51.5399 21.1231 51.5402 21.0154C51.5406 20.8679 51.5401 20.7205 51.5394 20.573C51.5394 20.4906 51.5393 20.4082 51.5393 20.3233C51.5199 20.0591 51.4943 19.8547 51.3857 19.6118C51.0619 19.4901 50.7711 19.4583 50.4272 19.4582C50.381 19.458 50.3347 19.4578 50.2871 19.4576C50.1327 19.4571 49.9784 19.4576 49.824 19.4581C49.712 19.4579 49.5999 19.4577 49.4879 19.4574C49.1805 19.4569 48.8731 19.4571 48.5657 19.4576C48.234 19.4579 47.9023 19.4574 47.5706 19.457C46.921 19.4564 46.2713 19.4566 45.6217 19.4569C45.0938 19.4573 44.5658 19.4573 44.0379 19.4571C43.9628 19.4571 43.8877 19.4571 43.8103 19.4571C43.6577 19.457 43.5051 19.457 43.3525 19.457C41.9214 19.4566 40.4902 19.457 39.0591 19.4577C37.8309 19.4584 36.6027 19.4582 35.3746 19.4576C33.9486 19.4569 32.5226 19.4566 31.0966 19.457C30.9446 19.4571 30.7925 19.4571 30.6405 19.4571C30.5283 19.4572 30.5283 19.4572 30.4138 19.4572C29.8865 19.4573 29.3591 19.4571 28.8318 19.4568C28.1892 19.4564 27.5466 19.4565 26.904 19.4573C26.5761 19.4576 26.2482 19.4578 25.9203 19.4573C25.6201 19.4569 25.32 19.4571 25.0199 19.4578C24.9113 19.458 24.8027 19.4579 24.6941 19.4576C24.5464 19.4572 24.3988 19.4576 24.2512 19.4582C24.1692 19.4583 24.0872 19.4583 24.0027 19.4583C23.7471 19.4771 23.5327 19.5216 23.2927 19.6118C23.1511 19.9285 23.1392 20.2294 23.139 20.573C23.1387 20.6193 23.1385 20.6656 23.1383 20.7133C23.1378 20.8671 23.1382 21.0209 23.1386 21.1747C23.1384 21.2856 23.1382 21.3964 23.1379 21.5072C23.1373 21.8073 23.1375 22.1073 23.138 22.4074C23.1383 22.7219 23.138 23.0363 23.1378 23.3508C23.1375 23.8788 23.1378 24.4069 23.1385 24.9349C23.1392 25.5448 23.139 26.1547 23.1382 26.7647C23.1376 27.2889 23.1375 27.8132 23.1379 28.3374C23.1381 28.6503 23.1381 28.9632 23.1377 29.276C23.1373 29.5702 23.1376 29.8644 23.1384 30.1585C23.1385 30.2663 23.1385 30.3741 23.1382 30.4819C23.1378 30.6293 23.1383 30.7768 23.139 30.9242C23.139 31.0067 23.1391 31.0891 23.1391 31.174C23.1579 31.4298 23.2035 31.6449 23.2927 31.8855C23.7406 32.1046 24.2854 32.044 24.7741 32.0425C25.2853 32.0528 25.2853 32.0528 25.5545 32.2421C25.6856 32.4407 25.7255 32.5367 25.7218 32.7719C25.7231 32.8563 25.7231 32.8563 25.7245 32.9424C25.6584 33.1912 25.5352 33.2912 25.3383 33.4538C25.1163 33.4979 25.1163 33.4979 24.8665 33.499C24.8217 33.4994 24.7769 33.4997 24.7307 33.5C24.6361 33.5003 24.5415 33.4996 24.4469 33.4982C24.3042 33.4964 24.1618 33.4982 24.0191 33.5004C23.4507 33.5018 23.023 33.4255 22.5426 33.1128C22.4807 33.0748 22.4188 33.0369 22.3551 32.9978C21.9245 32.5552 21.7143 32.0723 21.7139 31.4625C21.7134 31.3869 21.7134 31.3869 21.7129 31.3099C21.712 31.1406 21.7116 30.9713 21.7112 30.802C21.7107 30.6808 21.7101 30.5597 21.7095 30.4385C21.7077 30.04 21.7067 29.6414 21.7057 29.2429C21.7053 29.1057 21.705 28.9684 21.7046 28.8312C21.7031 28.2601 21.7019 27.689 21.7011 27.118C21.7 26.3 21.6977 25.4821 21.6938 24.6641C21.6912 24.0888 21.6899 23.5135 21.6895 22.9381C21.6892 22.5947 21.6884 22.2512 21.6862 21.9077C21.6842 21.5843 21.6837 21.2609 21.6845 20.9374C21.6846 20.8191 21.684 20.7007 21.6828 20.5823C21.6766 19.9407 21.6929 19.4123 22.0653 18.8617C22.1033 18.7998 22.1412 18.738 22.1803 18.6742C22.614 18.2523 23.0889 18.0352 23.6886 18.0341ZM32.2934 30.999C32.2775 31.0436 32.2616 31.0881 32.2452 31.1341C32.0936 31.5594 31.9412 31.9846 31.7882 32.4094C31.7096 32.6277 31.6312 32.8461 31.5534 33.0647C30.6878 35.4935 29.6964 37.2301 27.3711 38.4698C27.281 38.5186 27.1909 38.5675 27.1009 38.6164C26.5191 38.932 26.5191 38.932 26.2929 39.0451C26.2929 42.8929 26.2929 46.7407 26.2929 50.7051C28.2232 51.4772 29.7742 51.6136 31.8155 51.6121C32.0165 51.612 32.2175 51.6124 32.4185 51.6127C32.8926 51.6134 33.3666 51.6135 33.8407 51.6131C34.3277 51.6126 34.8148 51.6135 35.3018 51.6149C35.7229 51.6161 36.144 51.6165 36.5651 51.6163C36.8154 51.6162 37.0656 51.6164 37.3159 51.6173C37.5942 51.6183 37.8725 51.6177 38.1508 51.6169C38.2734 51.6177 38.2734 51.6177 38.3985 51.6185C38.9461 51.6151 39.4289 51.5816 39.8579 51.2165C40.1314 50.885 40.1647 50.697 40.1564 50.2773C40.1161 49.9299 39.9381 49.7508 39.6874 49.5246C39.4668 49.3719 39.2979 49.3329 39.0359 49.3306C38.9797 49.3299 38.9235 49.3292 38.8656 49.3285C38.805 49.328 38.7445 49.3275 38.6822 49.327C38.5539 49.3251 38.4256 49.3231 38.2973 49.3211C38.0951 49.3183 37.893 49.3158 37.6908 49.314C37.4956 49.3121 37.3005 49.309 37.1053 49.3057C37.0451 49.3054 36.9849 49.3052 36.9228 49.305C36.5982 49.2985 36.3741 49.2816 36.1118 49.0686C35.992 48.8671 35.9739 48.7533 35.9882 48.5188C36.0453 48.3126 36.1006 48.1991 36.2482 48.0458C36.4691 47.9722 36.6314 47.9682 36.8638 47.9669C36.9485 47.9662 37.0332 47.9655 37.1204 47.9647C37.1656 47.9645 37.2109 47.9643 37.2575 47.964C37.3994 47.9632 37.5413 47.9619 37.6832 47.9604C38.0866 47.9562 38.4901 47.9525 38.8936 47.9502C39.1405 47.9488 39.3874 47.9464 39.6344 47.9434C39.7282 47.9424 39.8221 47.9418 39.916 47.9416C40.0477 47.9413 40.1793 47.9396 40.311 47.9378C40.3858 47.9373 40.4606 47.9367 40.5376 47.9362C40.8678 47.8943 41.1432 47.7652 41.3495 47.5003C41.5887 47.1721 41.6155 46.8725 41.5668 46.4775C41.3941 46.1385 41.1585 45.8983 40.8167 45.7274C40.6849 45.7203 40.5528 45.7175 40.4208 45.7167C40.3377 45.716 40.2546 45.7153 40.169 45.7146C40.1244 45.7143 40.0799 45.7141 40.034 45.7139C39.8943 45.713 39.7547 45.7117 39.6151 45.7102C39.218 45.706 38.821 45.7024 38.4239 45.7001C38.181 45.6986 37.9381 45.6962 37.6952 45.6932C37.5583 45.6918 37.4213 45.6914 37.2843 45.6911C36.4913 45.6804 36.4913 45.6804 36.1118 45.4547C35.9682 45.2392 35.9744 45.1258 35.9968 44.8666C36.0436 44.6364 36.0436 44.6364 36.1118 44.4319C36.3593 44.3494 36.5865 44.3533 36.8442 44.3529C36.8979 44.3526 36.9516 44.3522 37.0069 44.3519C37.1236 44.3512 37.2402 44.3506 37.3568 44.3501C37.5418 44.3493 37.7267 44.348 37.9116 44.3465C38.4374 44.3423 38.9631 44.3386 39.4889 44.3363C39.8106 44.3349 40.1323 44.3325 40.4539 44.3295C40.5762 44.3285 40.6985 44.3279 40.8208 44.3277C40.9925 44.3273 41.1641 44.3258 41.3358 44.3239C41.3858 44.3241 41.4358 44.3243 41.4873 44.3245C41.9385 44.3173 42.3119 44.2199 42.6493 43.912C42.849 43.5948 42.9668 43.2983 42.9071 42.9195C42.7951 42.5661 42.6203 42.3881 42.3169 42.1817C42.0242 42.0327 41.7512 42.0261 41.4294 42.0279C41.3753 42.0277 41.3213 42.0274 41.2656 42.0272C41.1487 42.0267 41.0317 42.0265 40.9148 42.0266C40.7296 42.0267 40.5445 42.0258 40.3593 42.0246C39.833 42.0215 39.3068 42.0198 38.7804 42.0194C38.4582 42.019 38.1359 42.0174 37.8137 42.0149C37.691 42.0142 37.5684 42.0141 37.4457 42.0144C37.2741 42.0149 37.1027 42.0137 36.9311 42.0122C36.8806 42.0128 36.8301 42.0133 36.778 42.0139C36.5341 42.01 36.3934 41.9826 36.1842 41.853C35.989 41.6466 35.9755 41.5084 35.9755 41.2271C36.0569 40.9873 36.1043 40.8568 36.333 40.7395C36.541 40.6754 36.7112 40.664 36.9287 40.6631C37.0093 40.6624 37.0899 40.6617 37.1729 40.661C37.2593 40.6608 37.3458 40.6607 37.4348 40.6605C37.5714 40.6593 37.7079 40.658 37.8444 40.6566C38.1803 40.6536 38.5162 40.6519 38.8521 40.6505C39.0408 40.6496 39.2295 40.6482 39.4183 40.6462C39.5958 40.6444 39.7733 40.6435 39.9508 40.6435C40.0316 40.6426 40.1124 40.6417 40.1956 40.6407C40.3017 40.6402 40.3017 40.6402 40.41 40.6397C40.7358 40.5973 41.0097 40.4655 41.2131 40.2043C41.438 39.8959 41.4688 39.623 41.4304 39.2497C41.3037 38.8906 41.1165 38.7182 40.8167 38.4996C40.6301 38.4374 40.5205 38.4227 40.3284 38.422C40.2707 38.4216 40.2129 38.4213 40.1535 38.4209C40.0588 38.4208 40.0588 38.4208 39.9622 38.4207C39.8955 38.4203 39.8289 38.42 39.7602 38.4196C39.6153 38.4189 39.4704 38.4183 39.3255 38.4178C39.0963 38.417 38.867 38.4157 38.6378 38.4142C37.9859 38.41 37.334 38.4063 36.6822 38.404C36.2836 38.4026 35.885 38.4002 35.4864 38.3972C35.3344 38.3962 35.1825 38.3956 35.0305 38.3954C34.818 38.3951 34.6055 38.3935 34.3929 38.3916C34.2987 38.3919 34.2987 38.3919 34.2025 38.3923C33.8744 38.388 33.6497 38.3737 33.3843 38.1587C33.2668 37.9901 33.2405 37.8769 33.2663 37.673C33.3512 37.2548 33.4658 36.8559 33.6041 36.4524C33.6249 36.3904 33.6458 36.3285 33.6672 36.2647C33.7331 36.0691 33.7995 35.8737 33.8659 35.6784C33.9325 35.4815 33.999 35.2846 34.0653 35.0877C34.1065 34.9658 34.1478 34.8439 34.1892 34.7221C34.2079 34.6669 34.2265 34.6118 34.2458 34.555C34.2622 34.5068 34.2785 34.4586 34.2954 34.4089C34.496 33.7778 34.5061 33.0494 34.2204 32.4451C33.7856 31.6845 33.2581 31.2831 32.4297 30.999C32.3847 30.999 32.3397 30.999 32.2934 30.999ZM19.4742 38.7042C19.3856 38.9528 19.3972 39.2014 19.3969 39.463C19.3967 39.512 19.3966 39.561 19.3964 39.6115C19.396 39.7757 19.396 39.9399 19.3961 40.1041C19.3959 40.2218 19.3956 40.3396 19.3954 40.4573C19.3948 40.7771 19.3946 41.0969 19.3946 41.4167C19.3945 41.6836 19.3943 41.9505 19.394 42.2174C19.3935 42.8469 19.3933 43.4765 19.3934 44.1061C19.3934 44.7558 19.3927 45.4055 19.3916 46.0552C19.3907 46.6129 19.3903 47.1705 19.3904 47.7282C19.3904 48.0613 19.3902 48.3945 19.3895 48.7276C19.3888 49.0409 19.3888 49.3541 19.3893 49.6674C19.3894 49.7823 19.3892 49.8973 19.3888 50.0123C19.3883 50.1692 19.3886 50.3261 19.3891 50.4831C19.3891 50.5709 19.3891 50.6587 19.389 50.7492C19.4094 51.0232 19.466 51.2216 19.6361 51.4381C19.8739 51.621 20.15 51.6004 20.4396 51.6014C20.5244 51.6019 20.6093 51.6023 20.6968 51.6027C20.7892 51.6029 20.8816 51.6029 20.974 51.603C21.0691 51.6032 21.1642 51.6034 21.2593 51.6037C21.4585 51.6041 21.6577 51.6042 21.8569 51.6042C22.1117 51.6042 22.3665 51.6051 22.6213 51.6063C22.8177 51.607 23.014 51.6072 23.2104 51.6071C23.3043 51.6072 23.3983 51.6075 23.4922 51.608C23.6237 51.6087 23.7552 51.6084 23.8867 51.6081C23.9615 51.6082 24.0362 51.6083 24.1132 51.6084C24.3732 51.5867 24.5701 51.523 24.7757 51.3614C24.9716 51.1067 24.9379 50.8006 24.9383 50.4917C24.9384 50.4427 24.9386 50.3937 24.9387 50.3433C24.9392 50.1791 24.9391 50.0149 24.939 49.8506C24.9393 49.7329 24.9395 49.6152 24.9397 49.4975C24.9403 49.1777 24.9405 48.8579 24.9405 48.5381C24.9406 48.2712 24.9409 48.0043 24.9411 47.7374C24.9417 47.1078 24.9418 46.4782 24.9418 45.8486C24.9417 45.1989 24.9425 44.5492 24.9435 43.8995C24.9444 43.3419 24.9448 42.7842 24.9447 42.2265C24.9447 41.8934 24.9449 41.5603 24.9456 41.2271C24.9463 40.9139 24.9463 40.6007 24.9458 40.2874C24.9457 40.1724 24.9459 40.0574 24.9463 39.9425C24.9468 39.7855 24.9465 39.6286 24.946 39.4717C24.946 39.3838 24.9461 39.296 24.9461 39.2055C24.9243 38.9123 24.8807 38.725 24.6719 38.5136C24.4808 38.4102 24.3521 38.408 24.1354 38.4114C24.0624 38.4121 23.9895 38.4128 23.9143 38.4134C23.8386 38.4152 23.7628 38.4169 23.6847 38.4186C23.6079 38.4196 23.5311 38.4205 23.4519 38.4214C23.2624 38.4238 23.073 38.4272 22.8835 38.4314C22.8834 38.475 22.8832 38.5186 22.883 38.5636C22.879 39.625 22.8739 40.6863 22.8675 41.7477C22.8644 42.261 22.8617 42.7742 22.8599 43.2875C22.8583 43.7349 22.8561 44.1823 22.8529 44.6297C22.8513 44.8665 22.85 45.1034 22.8496 45.3403C22.8491 45.6047 22.847 45.8692 22.8448 46.1337C22.8449 46.2122 22.845 46.2906 22.8451 46.3715C22.8443 46.4437 22.8434 46.5159 22.8425 46.5902C22.8421 46.684 22.8421 46.684 22.8416 46.7797C22.8032 47.0357 22.6967 47.2257 22.4957 47.3895C22.2536 47.4549 22.0337 47.427 21.7925 47.3639C21.6123 47.236 21.5912 47.1691 21.5198 46.9548C21.5129 46.8389 21.5098 46.7227 21.509 46.6066C21.5083 46.5346 21.5077 46.4626 21.507 46.3884C21.5064 46.27 21.5064 46.27 21.5058 46.1492C21.5051 46.066 21.5044 45.9828 21.5037 45.8972C21.502 45.6691 21.5005 45.441 21.4991 45.2129C21.4976 44.9746 21.4957 44.7363 21.4939 44.4979C21.4905 44.0466 21.4874 43.5952 21.4845 43.1439C21.4811 42.6301 21.4774 42.1162 21.4736 41.6024C21.4659 40.5454 21.4586 39.4884 21.4516 38.4314C21.186 38.4235 20.9204 38.4186 20.6547 38.4144C20.5795 38.4121 20.5043 38.4098 20.4268 38.4074C19.8869 38.3887 19.8869 38.3887 19.4742 38.7042Z" fill="black"/>
<path d="M38.2294 22.1661C38.463 22.3678 38.5252 22.5289 38.6356 22.8101C38.8475 23.3518 38.8475 23.3518 39.2751 23.7162C39.5841 23.8048 39.8884 23.8359 40.2079 23.8601C40.5692 23.892 40.7493 24.0113 41.021 24.2485C41.2295 24.5377 41.2704 24.8143 41.2573 25.1637C41.1681 25.6586 40.8233 25.9525 40.4457 26.2515C40.197 26.4596 40.197 26.4596 40.1037 26.7578C40.1215 26.951 40.1547 27.1291 40.2028 27.3169C40.2912 27.8178 40.3649 28.2377 40.0664 28.6807C39.8544 28.9146 39.6659 29.0652 39.3632 29.1622C38.7872 29.1525 38.3355 28.9191 37.8533 28.6199C37.6377 28.5259 37.5601 28.5369 37.3389 28.6125C37.1388 28.709 36.9438 28.8108 36.749 28.9174C36.4174 29.0916 36.1139 29.187 35.7381 29.1343C35.3599 29.0084 35.1775 28.8749 34.9524 28.5443C34.856 28.3515 34.8726 28.1884 34.8714 27.9732C34.8705 27.8868 34.8697 27.8004 34.8688 27.7114C34.8836 27.463 34.9381 27.2822 35.0163 27.0484C35.0707 26.8479 35.0707 26.8479 35.0206 26.635C34.8037 26.3289 34.52 26.0868 34.2396 25.8405C33.9647 25.5951 33.8742 25.4096 33.8401 25.0412C33.8739 24.6491 33.9786 24.404 34.2577 24.1249C34.6438 23.86 35.0348 23.8096 35.4894 23.7627C35.5428 23.7568 35.5962 23.7509 35.6513 23.7448C35.782 23.7305 35.9127 23.7167 36.0434 23.703C36.0611 23.6448 36.0789 23.5866 36.0972 23.5267C36.1831 23.2844 36.2885 23.0685 36.4099 22.8421C36.4498 22.7667 36.4897 22.6913 36.5308 22.6136C36.6901 22.3534 36.8352 22.182 37.1088 22.0452C37.5086 21.9638 37.8599 21.9896 38.2294 22.1661ZM37.4753 23.9076C37.4505 23.9635 37.4257 24.0194 37.4002 24.077C37.0445 24.8394 37.0445 24.8394 36.6571 24.9985C36.3408 25.0789 36.0235 25.1451 35.7024 25.2031C35.7288 25.2328 35.7552 25.2625 35.7824 25.2931C36.218 25.7914 36.4838 26.1588 36.4525 26.8396C36.4345 27.0225 36.4103 27.2031 36.3843 27.3851C36.6057 27.3149 36.8104 27.2404 37.0193 27.1379C37.3937 26.9983 37.6952 26.9661 38.0704 27.1209C38.19 27.1816 38.3085 27.2447 38.4254 27.3105C38.5598 27.3957 38.5598 27.3957 38.7027 27.3851C38.6954 27.3168 38.6881 27.2485 38.6806 27.1781C38.5866 26.1945 38.5866 26.1945 38.9568 25.7406C39.0403 25.644 39.1255 25.5488 39.2125 25.4553C39.3217 25.3438 39.3217 25.3438 39.3846 25.2031C39.3105 25.189 39.2365 25.1748 39.1603 25.1602C38.2081 24.962 38.2081 24.962 37.9553 24.586C37.9319 24.5421 37.9085 24.4982 37.8844 24.4531C37.843 24.3778 37.843 24.3778 37.8008 24.301C37.7336 24.1719 37.6721 24.0399 37.6117 23.9076C37.5667 23.9076 37.5217 23.9076 37.4753 23.9076Z" fill="black"/>
<path d="M29.4848 22.1518C29.8052 22.408 29.9855 22.7387 30.1625 23.1021C30.184 23.145 30.2055 23.1878 30.2277 23.232C30.3841 23.5484 30.3841 23.5484 30.3841 23.703C30.4614 23.7105 30.5388 23.718 30.6185 23.7257C30.7222 23.7365 30.8259 23.7475 30.9296 23.7584C30.9803 23.7632 31.031 23.768 31.0833 23.7729C31.618 23.8311 32.077 23.9493 32.4297 24.3849C32.5859 24.6601 32.6183 24.9607 32.5661 25.2713C32.4434 25.5927 32.2787 25.7686 32.0247 25.9865C31.6254 26.3266 31.6254 26.3266 31.4298 26.7951C31.4498 27.022 31.4899 27.232 31.5432 27.4533C31.6634 28.2669 31.6634 28.2669 31.4069 28.6807C31.1249 28.9758 30.856 29.1257 30.4523 29.158C29.9852 29.1026 29.6342 28.8784 29.235 28.6373C28.979 28.5264 28.8755 28.5309 28.6112 28.6125C28.4637 28.6871 28.3188 28.7671 28.1765 28.8511C27.7797 29.07 27.499 29.2177 27.0394 29.1319C26.6695 29.0218 26.4099 28.8159 26.2247 28.4761C26.0962 28.0367 26.1707 27.6115 26.2606 27.171C26.3335 26.7841 26.3335 26.7841 26.2004 26.4321C26.1592 26.395 26.118 26.3579 26.0755 26.3197C26.0319 26.2794 25.9883 26.2392 25.9434 26.1977C25.8427 26.1125 25.7381 26.0319 25.6323 25.9532C25.3758 25.7314 25.2314 25.5073 25.1731 25.1762C25.1522 24.7992 25.226 24.544 25.4282 24.2275C25.7345 23.9191 26.129 23.8578 26.54 23.7925C26.6168 23.7793 26.6168 23.7793 26.695 23.7657C26.9289 23.7266 27.1461 23.703 27.3838 23.703C27.4026 23.644 27.4213 23.5849 27.4406 23.524C27.6354 22.9611 27.8691 22.3771 28.4066 22.0665C28.7633 21.9448 29.1457 22.001 29.4848 22.1518ZM28.8158 23.9076C28.7472 24.0296 28.6791 24.1518 28.6112 24.2741C28.5732 24.3421 28.5353 24.4102 28.4961 24.4802C28.3964 24.6448 28.3964 24.6448 28.4066 24.794C27.9757 25.026 27.5194 25.1146 27.0429 25.2031C27.0693 25.2328 27.0956 25.2626 27.1228 25.2932C27.596 25.8343 27.8289 26.2177 27.7812 26.9518C27.7657 27.0966 27.7457 27.241 27.7248 27.3851C27.947 27.3147 28.1535 27.2393 28.364 27.1379C28.7328 26.9981 28.9902 26.9792 29.3533 27.1209C29.4861 27.1819 29.6179 27.245 29.7485 27.3105C29.8982 27.3948 29.8982 27.3948 30.0431 27.3851C30.035 27.3127 30.027 27.2403 30.0186 27.1656C29.9266 26.2212 29.9266 26.2212 30.1529 25.8634C30.329 25.6501 30.5194 25.4562 30.725 25.2713C30.4711 25.102 30.2584 25.0859 29.9606 25.0436C29.6334 24.9662 29.4754 24.8654 29.2917 24.5801C29.2514 24.5002 29.2111 24.4203 29.1695 24.338C29.1483 24.2967 29.127 24.2553 29.1052 24.2127C29.0533 24.1114 29.0026 24.0096 28.9521 23.9076C28.9071 23.9076 28.8621 23.9076 28.8158 23.9076Z" fill="black"/>
<path d="M46.8895 22.1661C47.1228 22.3678 47.1851 22.5291 47.2955 22.8101C47.5079 23.3522 47.5079 23.3522 47.9361 23.7173C48.2464 23.8078 48.553 23.8413 48.8743 23.8668C49.2747 23.8997 49.5037 24.0627 49.7746 24.355C49.9289 24.6813 49.9509 24.9847 49.8854 25.3394C49.731 25.6709 49.571 25.8683 49.2907 26.0977C49.0985 26.2582 48.9221 26.4175 48.7944 26.635C48.7624 26.9966 48.8423 27.3085 48.9308 27.6578C48.984 28.1015 48.9258 28.4506 48.6581 28.817C48.3762 29.0613 48.1442 29.1517 47.7716 29.1579C47.3015 29.0742 46.9158 28.8697 46.5131 28.6199C46.2975 28.5258 46.2199 28.5368 45.9988 28.6124C45.7986 28.7089 45.6036 28.8108 45.4088 28.9174C45.0773 29.0915 44.7737 29.187 44.398 29.1342C44.0201 29.0085 43.8343 28.8773 43.6122 28.5442C43.5464 28.3468 43.5328 28.2172 43.5312 28.0115C43.5305 27.9447 43.5297 27.8779 43.5289 27.8091C43.544 27.5896 43.544 27.5896 43.6082 27.3616C43.6799 27.0951 43.7162 26.91 43.6804 26.635C43.5204 26.3932 43.3111 26.205 43.0903 26.0192C42.7674 25.7471 42.6324 25.5461 42.5212 25.1349C42.5041 24.7524 42.6166 24.4723 42.8622 24.1803C43.2183 23.8823 43.5593 23.8404 44.0128 23.7882C44.0793 23.7797 44.1457 23.7711 44.2142 23.7623C44.3771 23.7416 44.5401 23.7218 44.7032 23.703C44.7211 23.6448 44.7389 23.5866 44.7573 23.5266C44.8426 23.2853 44.946 23.0683 45.0655 22.8421C45.1241 22.729 45.1241 22.729 45.184 22.6136C45.5895 21.9846 46.2294 21.8512 46.8895 22.1661ZM46.2033 23.8393C46.1736 23.9002 46.1439 23.961 46.1133 24.0236C46.0727 24.1035 46.0321 24.1833 45.9902 24.2655C45.9507 24.3446 45.9111 24.4237 45.8704 24.5052C45.6562 24.8324 45.4415 24.9628 45.0681 25.0699C44.9843 25.0857 44.9004 25.1015 44.814 25.1178C44.7291 25.1344 44.6442 25.1509 44.5567 25.1679C44.4926 25.1795 44.4284 25.1911 44.3623 25.2031C44.4018 25.2488 44.4018 25.2488 44.4422 25.2955C44.9238 25.8546 45.1411 26.1577 45.1123 26.9077C45.0953 27.0911 45.0711 27.271 45.0442 27.4532C45.101 27.4237 45.1579 27.3942 45.2165 27.3637C46.0891 26.9319 46.0891 26.9319 46.5443 27.0441C46.7319 27.123 46.9079 27.2106 47.0852 27.3105C47.2197 27.3957 47.2197 27.3957 47.3625 27.3851C47.3593 27.302 47.3562 27.2189 47.3529 27.1333C47.3504 27.0226 47.3479 26.9119 47.3455 26.8012C47.3432 26.7467 47.3409 26.6921 47.3385 26.6359C47.3309 26.1706 47.4365 25.8869 47.7663 25.5443C47.828 25.4956 47.828 25.4956 47.891 25.446C47.9328 25.4123 47.9746 25.3787 48.0177 25.344C48.049 25.32 48.0803 25.296 48.1126 25.2713C47.8588 25.1297 47.6221 25.0921 47.3375 25.0502C46.999 24.9528 46.7969 24.7992 46.6045 24.5052C46.5649 24.4261 46.5254 24.347 46.4846 24.2655C46.444 24.1857 46.4034 24.1059 46.3615 24.0236C46.3318 23.9628 46.3021 23.902 46.2715 23.8393C46.249 23.8393 46.2265 23.8393 46.2033 23.8393Z" fill="black"/>
<path d="M22.5596 48.5658C22.7451 48.7115 22.8054 48.8467 22.8835 49.0686C22.8969 49.3358 22.8553 49.5518 22.7088 49.7803C22.4773 49.9287 22.271 49.9687 21.9971 49.9551C21.7802 49.8683 21.6794 49.7777 21.5283 49.6014C21.4234 49.3391 21.4356 49.1325 21.5198 48.8641C21.8045 48.5059 22.1153 48.4423 22.5596 48.5658Z" fill="black"/>
<path d="M28.2022 32.0901C28.3901 32.2388 28.5046 32.3541 28.6113 32.5674C28.6521 32.9267 28.5604 33.105 28.3385 33.3856C28.1018 33.504 27.8468 33.4949 27.5885 33.4538C27.4006 33.3051 27.286 33.1898 27.1794 32.9765C27.1385 32.6172 27.2302 32.4389 27.4521 32.1583C27.6889 32.0399 27.9439 32.049 28.2022 32.0901Z" fill="black"/>
</svg>
