<svg width="44" height="44" viewBox="0 0 44 44" fill="none" xmlns="http://www.w3.org/2000/svg">
<path d="M35.2422 27.7293V24.9414C35.2422 22.0476 34.3091 19.297 32.5438 16.9871C30.9768 14.9368 28.8102 13.3643 26.3913 12.508C26.3239 11.1137 25.1686 10 23.7578 10H20.2422C18.8314 10 17.6761 11.1137 17.6087 12.508C15.1898 13.3643 13.0232 14.9368 11.4562 16.9871C9.69092 19.297 8.75781 22.0476 8.75781 24.9414V27.7293C7.73482 28.0921 7 29.069 7 30.2148C7 31.6687 8.18283 32.8516 9.63672 32.8516H34.3633C35.8172 32.8516 37 31.6687 37 30.2148C37 29.069 36.2652 28.0921 35.2422 27.7293ZM10.5156 24.9414C10.5156 21.772 11.8695 18.805 14.0898 16.6882V19.668C14.0898 20.1534 14.4834 20.5469 14.9688 20.5469C15.4541 20.5469 15.8477 20.1534 15.8477 19.668V15.3096C16.4059 14.953 16.994 14.6456 17.6055 14.3909V21.4258C17.6055 21.9112 17.999 22.3047 18.4844 22.3047C18.9698 22.3047 19.3633 21.9112 19.3633 21.4258V12.6367C19.3633 12.1521 19.7576 11.7578 20.2422 11.7578H23.7578C24.2424 11.7578 24.6367 12.1521 24.6367 12.6367V21.4258C24.6367 21.9112 25.0302 22.3047 25.5156 22.3047C26.001 22.3047 26.3945 21.9112 26.3945 21.4258V14.3909C27.006 14.6457 27.5941 14.9531 28.1523 15.3096V19.668C28.1523 20.1534 28.5459 20.5469 29.0312 20.5469C29.5166 20.5469 29.9102 20.1534 29.9102 19.668V16.6882C32.1305 18.805 33.4844 21.772 33.4844 24.9414V27.5781H10.5156V24.9414ZM34.3633 31.0938H9.63672C9.15209 31.0938 8.75781 30.6995 8.75781 30.2148C8.75781 29.7302 9.15209 29.3359 9.63672 29.3359H34.3633C34.8479 29.3359 35.2422 29.7302 35.2422 30.2148C35.2422 30.6995 34.8479 31.0938 34.3633 31.0938Z" fill="black" stroke="black" stroke-width="0.3"/>
</svg>
