<svg width="190" height="190" viewBox="0 0 190 190" fill="none" xmlns="http://www.w3.org/2000/svg">
<path d="M163.748 140.269C163.426 139.124 162.672 138.15 161.645 137.551C160.617 136.952 159.398 136.775 158.243 137.057L146.82 140.131C153.071 130.917 156.861 120.257 157.83 109.164C158.767 98.7864 157.25 88.3337 153.401 78.6509C149.551 68.9678 143.478 60.3262 135.672 53.4242C134.769 52.6777 133.616 52.3046 132.447 52.3815C131.279 52.4583 130.184 52.9789 129.387 53.8369C128.585 54.7499 128.178 55.944 128.255 57.1566C128.333 58.3694 128.888 59.5018 129.8 60.3055C136.526 66.243 141.76 73.6817 145.075 82.0189C148.391 90.3561 149.696 99.3571 148.884 108.293C148.099 117.704 144.942 126.764 139.709 134.626L138.562 123.111C138.649 122.433 138.583 121.745 138.369 121.096C138.155 120.447 137.8 119.854 137.328 119.36C136.856 118.866 136.279 118.484 135.641 118.241C135.002 117.999 134.317 117.902 133.636 117.958C132.955 118.014 132.295 118.221 131.705 118.564C131.114 118.908 130.608 119.379 130.223 119.943C129.838 120.507 129.583 121.15 129.478 121.825C129.373 122.5 129.42 123.19 129.616 123.845L131.91 153.39L160.583 145.774C161.719 145.442 162.682 144.683 163.272 143.657C163.862 142.632 164.033 141.417 163.748 140.269Z" stroke="black" stroke-width="6"/>
<path d="M29.8812 98.0623C30.4909 98.4544 31.1806 98.7052 31.8997 98.7964C33.0971 98.9534 34.308 98.6321 35.2698 97.9021C36.2319 97.1721 36.8671 96.0922 37.0379 94.8967C38.9337 80.9005 46.0466 68.1369 56.9526 59.1619C67.8586 50.1872 81.7525 45.6635 95.852 46.4967L85.5755 53.516C84.8484 54.0638 84.3008 54.8154 84.0021 55.6754C83.7036 56.5355 83.6675 57.4648 83.8987 58.3454C84.1298 59.2257 84.6179 60.0176 85.3004 60.6199C85.983 61.2224 86.8293 61.6081 87.7318 61.728C88.7652 61.8224 89.8003 61.5635 90.6679 60.994L115.12 44.203L94.2005 23.1916C93.8281 22.6209 93.3334 22.1406 92.7524 21.7851C92.1715 21.4298 91.5185 21.2082 90.841 21.1366C90.1638 21.0649 89.479 21.1448 88.8363 21.3709C88.1937 21.5968 87.6096 21.9631 87.1261 22.4432C86.6429 22.923 86.2724 23.5044 86.0416 24.1454C85.8111 24.7863 85.726 25.4705 85.793 26.1484C85.8597 26.8263 86.0765 27.4807 86.4278 28.0644C86.7791 28.6479 87.2557 29.1462 87.8234 29.5224L95.6225 37.3214C79.3401 36.5429 63.3575 41.8971 50.8298 52.3268C38.302 62.7567 30.1398 77.5043 27.9544 93.6581C27.8368 94.4986 27.9546 95.3552 28.2947 96.1328C28.6348 96.9103 29.1841 97.5783 29.8812 98.0623Z" stroke="black" stroke-width="6"/>
<path d="M109.799 157.013C102.635 159.302 95.0783 160.098 87.5947 159.353C78.4806 158.46 69.721 155.362 62.072 150.326C54.4228 145.291 48.1142 138.469 43.6907 130.451L55.114 134.717C56.167 134.9 57.2506 134.709 58.178 134.178C59.1054 133.647 59.8184 132.809 60.1935 131.808C60.5689 130.807 60.583 129.707 60.2334 128.697C59.884 127.687 59.1928 126.831 58.2796 126.276L37.2221 118.477L30.4781 116.046L25.3859 145.177C25.2092 146.341 25.4871 147.529 26.1618 148.494C26.8365 149.459 27.8561 150.127 29.0101 150.361H29.7901C30.8698 150.381 31.9219 150.019 32.7611 149.339C33.6003 148.66 34.1728 147.706 34.3778 146.645L36.3046 135.635C41.4933 144.724 48.7815 152.441 57.5605 158.139C66.3394 163.837 76.3543 167.352 86.769 168.391C95.4761 169.254 104.268 168.317 112.598 165.638C113.658 165.199 114.516 164.378 115 163.338C115.485 162.297 115.563 161.113 115.217 160.018C114.871 158.924 114.128 157.998 113.133 157.425C112.139 156.852 110.965 156.672 109.845 156.922L109.799 157.013Z" stroke="black" stroke-width="6"/>
<path d="M111.037 79.3445H74.3357C73.1189 79.3445 71.952 79.8279 71.0918 80.6882C70.2313 81.5487 69.748 82.7155 69.748 83.9321V120.634C69.748 121.85 70.2313 123.017 71.0918 123.878C71.952 124.738 73.1189 125.221 74.3357 125.221H111.037C112.254 125.221 113.421 124.738 114.281 123.878C115.141 123.017 115.625 121.85 115.625 120.634V83.9321C115.625 82.7155 115.141 81.5487 114.281 80.6882C113.421 79.8279 112.254 79.3445 111.037 79.3445ZM106.449 116.046H78.9234V88.5198H106.449V116.046Z" stroke="black" stroke-width="6"/>
</svg>
