<svg width="182" height="152" viewBox="0 0 182 152" fill="none" xmlns="http://www.w3.org/2000/svg">
<circle cx="52" cy="52" r="52" fill="#C6E8FF"/>
<path d="M30.12 51.04C30.12 46.4267 30.9467 42.8133 32.6 40.2C34.28 37.5867 37.0533 36.28 40.92 36.28C44.7867 36.28 47.5467 37.5867 49.2 40.2C50.88 42.8133 51.72 46.4267 51.72 51.04C51.72 55.68 50.88 59.32 49.2 61.96C47.5467 64.6 44.7867 65.92 40.92 65.92C37.0533 65.92 34.28 64.6 32.6 61.96C30.9467 59.32 30.12 55.68 30.12 51.04ZM46.2 51.04C46.2 49.0667 46.0667 47.4133 45.8 46.08C45.56 44.72 45.0533 43.6133 44.28 42.76C43.5333 41.9067 42.4133 41.48 40.92 41.48C39.4267 41.48 38.2933 41.9067 37.52 42.76C36.7733 43.6133 36.2667 44.72 36 46.08C35.76 47.4133 35.64 49.0667 35.64 51.04C35.64 53.0667 35.76 54.7733 36 56.16C36.24 57.52 36.7467 58.6267 37.52 59.48C38.2933 60.3067 39.4267 60.72 40.92 60.72C42.4133 60.72 43.5467 60.3067 44.32 59.48C45.0933 58.6267 45.6 57.52 45.84 56.16C46.08 54.7733 46.2 53.0667 46.2 51.04ZM57.7394 59.68C60.2994 57.5467 62.3394 55.7733 63.8594 54.36C65.3794 52.92 66.646 51.4267 67.6594 49.88C68.6727 48.3333 69.1794 46.8133 69.1794 45.32C69.1794 43.96 68.8594 42.8933 68.2194 42.12C67.5794 41.3467 66.5927 40.96 65.2594 40.96C63.926 40.96 62.8994 41.4133 62.1794 42.32C61.4594 43.2 61.086 44.4133 61.0594 45.96H55.6194C55.726 42.76 56.6727 40.3333 58.4594 38.68C60.2727 37.0267 62.566 36.2 65.3394 36.2C68.3794 36.2 70.7127 37.0133 72.3394 38.64C73.966 40.24 74.7794 42.36 74.7794 45C74.7794 47.08 74.2194 49.0667 73.0994 50.96C71.9794 52.8533 70.6994 54.5067 69.2594 55.92C67.8194 57.3067 65.9394 58.9867 63.6194 60.96H75.4194V65.6H55.6594V61.44L57.7394 59.68Z" fill="black"/>
<g clip-path="url(#clip0_66_1077)">
<mask id="mask0_66_1077" style="mask-type:luminance" maskUnits="userSpaceOnUse" x="82" y="52" width="100" height="100">
<path d="M182 52H82V152H182V52Z" fill="white"/>
</mask>
<g mask="url(#mask0_66_1077)">
<mask id="mask1_66_1077" style="mask-type:luminance" maskUnits="userSpaceOnUse" x="82" y="52" width="100" height="100">
<path d="M182 52H82V152H182V52Z" fill="white"/>
</mask>
<g mask="url(#mask1_66_1077)">
<path d="M172.5 60H92.5L84.5 63.5L83 77.5V137L90 143.5L172.5 145L180 138L181 82L180 64.5L172.5 60Z" fill="white"/>
<path d="M92.5705 57.8307C92.7087 57.8303 92.8469 57.8298 92.9893 57.8293C93.4536 57.828 93.9179 57.8281 94.3822 57.8282C94.718 57.8276 95.0537 57.8268 95.3895 57.826C96.3132 57.8241 97.237 57.8233 98.1607 57.8228C99.1566 57.8221 100.153 57.8202 101.148 57.8185C103.554 57.8146 105.96 57.8127 108.365 57.8109C109.498 57.8101 110.631 57.809 111.765 57.808C115.531 57.8047 119.298 57.8018 123.065 57.8004C124.042 57.8001 125.02 57.7997 125.997 57.7993C126.362 57.7992 126.362 57.7992 126.733 57.799C130.668 57.7974 134.603 57.7924 138.538 57.7861C142.579 57.7796 146.619 57.7761 150.66 57.7755C152.928 57.7751 155.197 57.7734 157.465 57.7684C159.397 57.7641 161.329 57.7626 163.261 57.7645C164.246 57.7653 165.231 57.765 166.217 57.7612C167.12 57.7577 168.023 57.7579 168.926 57.761C169.252 57.7614 169.577 57.7606 169.903 57.7583C173.514 57.7341 176.461 58.6744 179.1 61.1834C181.418 63.6211 182.093 66.4632 182.078 69.7284C182.079 70.0183 182.08 70.3082 182.082 70.5981C182.085 71.3905 182.084 72.1828 182.082 72.9753C182.081 73.8313 182.084 74.6876 182.086 75.5438C182.089 77.2197 182.089 78.8955 182.088 80.5713C182.087 81.9341 182.088 83.2968 182.089 84.6593C182.089 84.8534 182.089 85.0476 182.089 85.2476C182.09 85.642 182.09 86.0366 182.09 86.4309C182.093 90.1278 182.092 93.8249 182.09 97.5218C182.088 100.901 182.09 104.28 182.095 107.659C182.1 111.132 182.101 114.605 182.1 118.078C182.099 120.027 182.1 121.975 182.103 123.923C182.106 125.582 182.106 127.241 182.103 128.9C182.101 129.746 182.101 130.591 182.104 131.437C182.106 132.213 182.106 132.988 182.102 133.764C182.101 134.043 182.102 134.322 182.104 134.601C182.127 138.021 181.101 140.659 178.762 143.146C176.751 145.084 174.228 146.161 171.436 146.164C171.228 146.165 171.228 146.165 171.017 146.166C170.553 146.167 170.089 146.167 169.625 146.167C169.289 146.168 168.953 146.168 168.618 146.169C167.694 146.171 166.771 146.172 165.848 146.172C164.852 146.173 163.857 146.175 162.861 146.177C160.456 146.181 158.052 146.182 155.647 146.184C154.514 146.185 153.381 146.186 152.249 146.187C148.483 146.191 144.717 146.193 140.951 146.195C139.973 146.195 138.996 146.196 138.019 146.196C137.776 146.196 137.533 146.196 137.283 146.196C133.349 146.198 129.416 146.203 125.482 146.209C121.443 146.216 117.403 146.219 113.364 146.22C111.096 146.22 108.829 146.222 106.561 146.227C104.63 146.231 102.698 146.233 100.767 146.231C99.782 146.23 98.7971 146.23 97.8122 146.234C96.9092 146.237 96.0062 146.237 95.1031 146.234C94.7778 146.234 94.4525 146.234 94.1272 146.237C90.5238 146.261 87.6784 145.421 84.995 142.897C83.2042 141.04 81.9816 138.575 81.976 135.968C81.975 135.723 81.974 135.478 81.973 135.226C81.9729 134.954 81.9728 134.682 81.9727 134.41C81.9719 134.122 81.971 133.833 81.9701 133.544C81.9678 132.75 81.9666 131.956 81.9658 131.162C81.9646 130.305 81.9623 129.449 81.9602 128.593C81.9554 126.524 81.9526 124.455 81.9501 122.386C81.9493 121.802 81.9486 121.217 81.9478 120.633C81.9428 117.001 81.9385 113.37 81.9361 109.739C81.9355 108.897 81.935 108.056 81.9344 107.215C81.9342 107.006 81.9341 106.797 81.9339 106.582C81.9315 103.197 81.925 99.8134 81.9168 96.4293C81.9085 92.9534 81.9039 89.4776 81.9029 86.0016C81.9022 84.0507 81.9 82.0997 81.8935 80.1488C81.888 78.4866 81.8859 76.8245 81.8881 75.1622C81.8891 74.3149 81.8886 73.4678 81.8837 72.6205C81.8793 71.8429 81.8795 71.0655 81.8832 70.288C81.8837 70.0085 81.8826 69.729 81.8797 69.4496C81.8474 66.1906 82.8304 63.3159 85.1033 60.9209C87.175 58.98 89.717 57.8348 92.5705 57.8307ZM86.9222 64.3633C83.646 68.8329 85.3231 76.5711 85.3231 80.9038C116.132 80.9038 146.94 80.9038 178.682 80.9038C179.595 71.628 179.595 71.628 176.191 63.3341C174.688 61.965 173.04 61.3246 171.007 61.3223C170.87 61.3216 170.732 61.321 170.591 61.3202C170.131 61.3184 169.672 61.3194 169.213 61.3203C168.88 61.3196 168.546 61.3187 168.213 61.3177C167.298 61.3153 166.384 61.3153 165.469 61.3158C164.482 61.3158 163.496 61.3137 162.509 61.3118C160.576 61.3086 158.642 61.3075 156.709 61.3073C155.138 61.3071 153.567 61.3063 151.995 61.3051C147.54 61.3016 143.084 61.2998 138.628 61.3001C138.388 61.3002 138.148 61.3002 137.901 61.3002C137.54 61.3002 137.54 61.3002 137.172 61.3002C133.274 61.3004 129.377 61.2967 125.48 61.2911C121.478 61.2855 117.476 61.2828 113.473 61.2832C111.227 61.2833 108.98 61.2822 106.733 61.278C104.82 61.2745 102.907 61.2736 100.994 61.2763C100.019 61.2776 99.043 61.2776 98.0673 61.2742C97.1733 61.2711 96.2794 61.2717 95.3855 61.2751C95.0628 61.2757 94.7401 61.275 94.4174 61.2728C91.3099 61.2532 88.9761 61.8951 86.9222 64.3633ZM85.3231 84.4195C85.315 92.7541 85.3069 101.089 85.2986 109.676C85.2951 112.307 85.2915 114.939 85.2879 117.65C85.2866 120.009 85.2866 120.009 85.2858 122.368C85.2854 123.419 85.284 124.47 85.2818 125.521C85.2791 126.862 85.2783 128.202 85.2789 129.543C85.2788 130.035 85.278 130.527 85.2765 131.018C85.2745 131.684 85.275 132.349 85.2761 133.014C85.2749 133.206 85.2738 133.397 85.2726 133.594C85.2837 136.182 85.7986 138.584 87.5936 140.547C90.0894 142.825 93.1526 142.877 96.3527 142.868C96.6737 142.868 96.9947 142.869 97.3157 142.869C98.1922 142.871 99.0686 142.87 99.9451 142.869C100.893 142.868 101.84 142.869 102.787 142.871C104.641 142.872 106.495 142.872 108.349 142.871C109.856 142.87 111.363 142.87 112.87 142.87C113.085 142.87 113.299 142.87 113.521 142.87C113.957 142.871 114.393 142.871 114.83 142.871C118.918 142.872 123.006 142.871 127.094 142.868C130.599 142.867 134.105 142.867 137.61 142.869C141.684 142.871 145.758 142.872 149.832 142.871C150.266 142.87 150.701 142.87 151.136 142.87C151.35 142.87 151.563 142.87 151.784 142.87C153.288 142.87 154.793 142.87 156.298 142.871C158.132 142.872 159.967 142.872 161.801 142.87C162.737 142.869 163.672 142.868 164.607 142.87C165.465 142.871 166.322 142.87 167.179 142.868C167.488 142.868 167.797 142.868 168.107 142.869C171.166 142.878 174.042 142.71 176.412 140.547C178.37 138.406 178.746 135.807 178.729 133.014C178.73 132.806 178.73 132.597 178.73 132.382C178.731 131.686 178.729 130.991 178.727 130.295C178.727 129.787 178.727 129.278 178.727 128.769C178.727 127.548 178.725 126.327 178.723 125.106C178.72 123.692 178.72 122.278 178.719 120.864C178.717 117.135 178.712 113.405 178.707 109.676C178.699 101.341 178.691 93.0066 178.682 84.4195C147.874 84.4195 117.065 84.4195 85.3231 84.4195Z" fill="black"/>
<path d="M135.714 93.9892C136.202 94.2457 136.202 94.2457 136.495 94.7705C136.704 96.5301 136.279 98.2525 135.913 99.9621C135.85 100.263 135.788 100.564 135.725 100.865C135.557 101.676 135.385 102.486 135.213 103.297C135.033 104.147 134.855 104.998 134.677 105.848C134.377 107.275 134.076 108.702 133.774 110.128C133.425 111.777 133.078 113.425 132.733 115.074C132.401 116.663 132.067 118.252 131.731 119.841C131.589 120.516 131.447 121.191 131.306 121.867C131.139 122.661 130.972 123.455 130.802 124.249C130.74 124.54 130.679 124.832 130.619 125.123C130.536 125.521 130.451 125.918 130.365 126.316C130.318 126.538 130.271 126.761 130.223 126.99C129.958 127.9 129.671 128.422 128.878 128.95C128.041 129.059 127.648 129.041 126.937 128.572C126.173 127.437 126.531 126.126 126.775 124.848C126.886 124.305 127.001 123.762 127.117 123.22C127.179 122.92 127.242 122.619 127.304 122.319C127.474 121.507 127.645 120.695 127.817 119.884C127.997 119.033 128.175 118.182 128.353 117.331C128.653 115.903 128.954 114.474 129.256 113.047C129.605 111.397 129.951 109.747 130.297 108.097C130.629 106.507 130.964 104.917 131.299 103.327C131.441 102.652 131.583 101.977 131.724 101.301C131.89 100.505 132.059 99.7098 132.228 98.9148C132.289 98.6236 132.351 98.3321 132.411 98.0405C132.494 97.6417 132.579 97.2432 132.665 96.8451C132.712 96.6221 132.759 96.3994 132.807 96.1698C133.268 94.5223 133.918 93.7182 135.714 93.9892Z" fill="black"/>
<path d="M143.333 100.634C144.703 101.427 145.881 102.648 147.069 103.687C147.743 104.275 148.423 104.855 149.106 105.431C150.23 106.379 151.35 107.33 152.463 108.291C152.856 108.631 153.252 108.962 153.654 109.291C154.783 110.23 154.783 110.23 155.112 110.997C154.97 112.337 154.27 112.977 153.269 113.793C153.079 113.941 152.889 114.09 152.694 114.243C152.157 114.669 151.65 115.112 151.145 115.575C150.326 116.321 149.479 117.022 148.617 117.719C148.041 118.194 147.477 118.68 146.914 119.171C146.418 119.604 145.919 120.035 145.42 120.465C145.133 120.713 144.85 120.965 144.568 121.217C143.895 121.79 143.392 122.196 142.49 122.252C141.77 122.118 141.77 122.118 141.294 121.813C140.887 121.179 140.807 120.721 140.793 119.97C141.224 119.026 141.932 118.46 142.71 117.809C142.904 117.644 142.904 117.644 143.102 117.475C143.371 117.247 143.641 117.019 143.911 116.791C144.287 116.472 144.662 116.151 145.035 115.829C146.718 114.375 148.43 112.96 150.168 111.571C149.86 110.73 149.214 110.256 148.545 109.704C148.423 109.601 148.301 109.498 148.175 109.392C147.922 109.179 147.668 108.967 147.414 108.755C146.865 108.297 146.319 107.834 145.774 107.372C145.566 107.196 145.359 107.02 145.151 106.845C145.047 106.756 144.942 106.668 144.835 106.577C144.605 106.382 144.374 106.189 144.143 105.995C143.775 105.686 143.407 105.375 143.039 105.065C142.927 104.971 142.815 104.877 142.699 104.781C140.877 103.235 140.877 103.235 140.684 102.184C140.82 101.473 141.066 101.142 141.575 100.634C142.299 100.392 142.597 100.425 143.333 100.634Z" fill="black"/>
<path d="M122.43 100.633C122.973 101.121 123.172 101.452 123.345 102.159C122.922 104.12 120.381 105.644 118.914 106.883C118.692 107.071 118.47 107.26 118.249 107.448C117.387 108.18 116.524 108.909 115.653 109.629C115.534 109.727 115.416 109.825 115.295 109.926C115.067 110.116 114.839 110.304 114.609 110.491C114.344 110.712 114.089 110.945 113.836 111.18C113.836 111.309 113.836 111.438 113.836 111.571C114.123 111.831 114.422 112.076 114.727 112.315C115.64 113.045 116.532 113.793 117.412 114.561C117.662 114.778 117.911 114.996 118.161 115.213C118.285 115.321 118.41 115.429 118.538 115.541C119.149 116.071 119.764 116.598 120.379 117.125C120.54 117.263 120.54 117.263 120.705 117.404C120.809 117.493 120.913 117.582 121.02 117.673C121.121 117.761 121.223 117.848 121.327 117.939C121.556 118.133 121.789 118.323 122.024 118.511C122.148 118.611 122.271 118.711 122.398 118.815C122.511 118.904 122.624 118.994 122.741 119.086C123.266 119.653 123.223 120.192 123.211 120.946C122.999 121.617 122.841 121.713 122.234 122.117C121.261 122.229 120.871 122.246 120.039 121.709C119.836 121.528 119.636 121.342 119.439 121.153C119.218 120.953 118.996 120.754 118.774 120.554C118.666 120.454 118.558 120.355 118.446 120.252C118.006 119.854 117.546 119.485 117.083 119.115C115.971 118.209 114.89 117.27 113.809 116.327C113.306 115.89 112.801 115.455 112.294 115.023C112.172 114.918 112.049 114.814 111.923 114.707C111.692 114.51 111.461 114.314 111.23 114.118C109.176 112.37 109.176 112.37 108.953 111.18C109.192 110.278 109.724 109.773 110.406 109.178C110.511 109.084 110.616 108.99 110.724 108.894C111.548 108.162 112.398 107.464 113.256 106.772C113.936 106.215 114.601 105.641 115.264 105.064C115.387 104.957 115.511 104.85 115.638 104.74C116.139 104.304 116.639 103.869 117.138 103.431C120.923 100.111 120.923 100.111 122.43 100.633Z" fill="black"/>
<path d="M112.859 66.4508C114.266 67.4824 115.2 68.5335 115.536 70.2685C115.732 71.9028 115.335 73.2912 114.422 74.6539C113.348 75.8689 111.993 76.4779 110.384 76.6062C108.81 76.6089 107.449 76.0493 106.316 74.9568C105.341 73.8487 104.916 72.7425 104.803 71.297C104.92 69.5012 105.481 68.2613 106.805 67.0367C108.561 65.6459 110.866 65.4162 112.859 66.4508ZM108.758 69.9664C108.417 70.539 108.364 70.8744 108.392 71.5411C108.591 72.2123 108.786 72.4777 109.344 72.8962C110.021 73.1635 110.261 73.1158 110.943 72.8352C111.585 72.4496 111.832 72.29 112.041 71.5655C112.086 70.8131 111.952 70.5533 111.492 69.9664C111.064 69.5527 110.824 69.3979 110.235 69.3072C109.606 69.3993 109.258 69.5744 108.758 69.9664Z" fill="black"/>
<path d="M129.852 67.2308C131.004 68.3499 131.535 69.5969 131.658 71.1737C131.54 72.9707 130.979 74.2076 129.656 75.4339C128.442 76.4162 127.104 76.7416 125.555 76.6057C123.88 76.2035 122.674 75.4797 121.649 74.0668C120.894 72.638 120.678 71.1917 121.093 69.6257C121.68 68.0512 122.69 66.9956 124.188 66.2543C126.091 65.4785 128.297 65.9187 129.852 67.2308ZM125.164 69.7699C124.717 70.2494 124.443 70.6736 124.383 71.3324C124.576 71.9933 124.793 72.4901 125.359 72.8949C126.091 73.1224 126.442 73.123 127.166 72.8582C127.829 72.4273 127.829 72.4273 128.094 71.723C128.067 70.9649 128.01 70.5073 127.557 69.892C126.713 69.2828 126.071 69.2685 125.164 69.7699Z" fill="black"/>
<path d="M96.7976 66.3885C97.9516 67.0645 98.7672 68.0073 99.2566 69.2541C99.6802 70.9436 99.5706 72.5525 98.6844 74.0592C97.8684 75.2469 96.845 75.9625 95.48 76.4121C93.8221 76.6248 92.3469 76.5002 90.9642 75.5377C89.8148 74.614 89.1371 73.5625 88.8394 72.1151C88.6524 70.3676 89.0872 69.0167 90.0479 67.5619C91.9259 65.7673 94.4143 65.2944 96.7976 66.3885ZM92.5503 70.162C92.2717 70.7193 92.2944 71.1062 92.355 71.7245C92.7066 72.2518 92.9573 72.6116 93.5269 72.8965C94.3654 72.9912 94.7614 72.9867 95.4678 72.5057C95.9157 71.8542 96.0187 71.5097 95.9645 70.7357C95.7947 70.051 95.4643 69.769 94.8941 69.3807C93.8262 69.2091 93.3092 69.4031 92.5503 70.162Z" fill="black"/>
</g>
</g>
</g>
<defs>
<clipPath id="clip0_66_1077">
<rect width="100" height="100" fill="white" transform="translate(82 52)"/>
</clipPath>
</defs>
</svg>
