<?xml version="1.0" encoding="UTF-8"?>
<svg version="1.1" xmlns="http://www.w3.org/2000/svg" width="512" height="512">
<path d="M0 0 C1.53742447 1.31416811 3.05941582 2.64668933 4.5625 4 C5.24570312 4.59039062 5.92890625 5.18078125 6.6328125 5.7890625 C17.36841566 15.68265757 25.84390306 30.66557977 28.5625 45 C28.58876226 46.66645974 28.59399495 48.33363094 28.5625 50 C29.45710938 49.45730469 30.35171875 48.91460937 31.2734375 48.35546875 C47.43331803 38.72501407 63.32635233 35.46381434 81.98046875 39.90625 C96.61977729 44.37626788 108.31070461 52.97358334 116.12890625 66.19140625 C123.24744841 80.13754197 125.3035301 96.94353435 120.9375 112.125 C118.8665354 117.86453047 115.97044446 122.9562422 112.5625 128 C111.9025 128.99 111.2425 129.98 110.5625 131 C111.1618335 131.1556543 111.76116699 131.31130859 112.37866211 131.47167969 C119.08547877 133.33248555 124.99546793 135.98031573 131.125 139.25 C132.00607422 139.70246094 132.88714844 140.15492188 133.79492188 140.62109375 C150.03333304 149.17771779 160.60297161 160.60300055 166.6159668 178.05810547 C167.92853184 182.74994592 167.8867603 187.40293673 167.8984375 192.24609375 C167.9050943 193.21603775 167.9117511 194.18598175 167.91860962 195.18531799 C167.92869539 197.22842524 167.93342791 199.27156515 167.93310547 201.31469727 C167.93748177 204.42454664 167.97385378 207.53297903 168.01171875 210.64257812 C168.0175873 212.63541185 168.02155644 214.62825227 168.0234375 216.62109375 C168.03780853 217.54216415 168.05217957 218.46323456 168.06698608 219.41221619 C168.01489547 226.84271693 166.02909527 231.88048245 161.4375 237.6875 C154.51071335 243.25904578 146.14066062 246.08225431 137.6875 248.5 C136.67244385 248.79334229 135.6573877 249.08668457 134.61157227 249.38891602 C120.40095054 253.33828329 104.42098184 257.71165443 89.5625 257 C89.17771484 257.88171875 89.17771484 257.88171875 88.78515625 258.78125 C85.08259472 265.5002754 77.69425271 269.73528168 70.5625 272 C69.5725 272 68.5825 272 67.5625 272 C67.57297363 272.63389648 67.58344727 273.26779297 67.59423828 273.92089844 C67.99726245 302.01015254 67.99726245 302.01015254 64.21875 309.75390625 C59.93389003 313.37713343 55.24907772 312.78284594 49.8125 312.8125 C48.19408203 312.85020508 48.19408203 312.85020508 46.54296875 312.88867188 C43.88244623 312.94753299 41.22356849 312.9838204 38.5625 313 C37.49279188 315.67866434 37.49279188 315.67866434 37.5625 319 C39.78581041 322.14597454 42.89161498 324.48227806 45.8046875 326.96875 C48.98321405 329.85451753 50.92108097 331.85803462 51.56640625 336.203125 C51.56161707 340.85821105 50.25182687 343.38176914 47.5625 347 C47.04816406 347.71542969 46.53382813 348.43085938 46.00390625 349.16796875 C37.17002604 360.81349255 25.79850505 373.34679534 12.5625 380 C8.32406939 380.41350543 5.83325988 380.07675644 2.328125 377.55859375 C-0.9983174 374.6221988 -3.92744737 371.26049182 -6.875 367.94921875 C-9.3422073 365.6316324 -9.3422073 365.6316324 -12.75 366.20703125 C-13.636875 366.46871094 -14.52375 366.73039062 -15.4375 367 C-15.44160889 367.67579102 -15.44571777 368.35158203 -15.44995117 369.04785156 C-15.48288945 372.116118 -15.5535326 375.18239926 -15.625 378.25 C-15.63370117 379.84521484 -15.63370117 379.84521484 -15.64257812 381.47265625 C-15.86024474 389.16354336 -15.86024474 389.16354336 -18.23828125 392.609375 C-27.71898019 396.73041141 -38.28481237 396.31153144 -48.4375 396.25 C-49.71367187 396.25773437 -50.98984375 396.26546875 -52.3046875 396.2734375 C-61.25592215 396.25513232 -70.31167604 396.22807488 -78.63671875 392.609375 C-81.66194112 388.22575561 -81.22165595 383.44640856 -81.25 378.25 C-81.27513672 377.17105469 -81.30027344 376.09210938 -81.32617188 374.98046875 C-81.38503299 372.31994623 -81.4213204 369.66106849 -81.4375 367 C-84.13161081 365.97851217 -84.13161081 365.97851217 -87.4375 366 C-89.80151682 367.89181498 -91.58974561 369.57486171 -93.5625 371.8125 C-100.71641089 379.64215815 -100.71641089 379.64215815 -106.2890625 380.375 C-110.23892553 379.90454485 -112.70613148 378.32380347 -115.8125 376 C-116.70618286 375.34318237 -116.70618286 375.34318237 -117.61791992 374.6730957 C-128.74467308 366.20812116 -142.97020658 354.2031056 -148.4375 341 C-148.84708646 336.94887626 -148.53340295 333.51608956 -146.10668945 330.15893555 C-144.41210479 328.43870963 -142.6613365 326.86544531 -140.8125 325.3125 C-137.35252968 322.4144926 -137.35252968 322.4144926 -134.4375 319 C-134.368286 315.68142623 -134.368286 315.68142623 -135.4375 313 C-136.11329102 312.99589111 -136.78908203 312.99178223 -137.48535156 312.98754883 C-140.553618 312.95461055 -143.61989926 312.8839674 -146.6875 312.8125 C-147.75097656 312.80669922 -148.81445312 312.80089844 -149.91015625 312.79492188 C-157.7601585 312.572752 -157.7601585 312.572752 -161.09375 309.75390625 C-166.56810613 298.53465895 -164.6379682 284.13295207 -164.4375 272 C-165.33597656 271.87882812 -166.23445313 271.75765625 -167.16015625 271.6328125 C-174.94877832 270.12893077 -181.58294061 265.19697774 -186.4375 259 C-186.4375 258.34 -186.4375 257.68 -186.4375 257 C-187.28497803 256.9582666 -188.13245605 256.9165332 -189.00561523 256.87353516 C-197.69573091 256.36119274 -205.97731332 255.1807671 -214.5 253.375 C-216.37594849 252.98066772 -216.37594849 252.98066772 -218.28979492 252.57836914 C-226.06514862 250.88414218 -233.69020249 248.92556944 -241.25 246.4375 C-242.07185791 246.16921387 -242.89371582 245.90092773 -243.74047852 245.62451172 C-250.44024055 243.28996843 -257.7985756 240.36601938 -261.375 233.875 C-261.75527344 233.21242188 -262.13554687 232.54984375 -262.52734375 231.8671875 C-264.05680186 228.72950092 -264.56972005 226.16064924 -264.61450195 222.71899414 C-264.63375481 221.42603172 -264.63375481 221.42603172 -264.65339661 220.10694885 C-264.66447701 218.71016151 -264.66447701 218.71016151 -264.67578125 217.28515625 C-264.683853 216.31903915 -264.69192474 215.35292206 -264.70024109 214.35752869 C-264.71408039 212.30729971 -264.72480323 210.25704771 -264.73266602 208.20678711 C-264.74413356 206.1266395 -264.76450141 204.04652009 -264.79418945 201.96655273 C-265.1101711 179.8248891 -265.1101711 179.8248891 -260.4375 170 C-260.05940186 169.18144531 -259.68130371 168.36289063 -259.29174805 167.51953125 C-250.1276998 148.65452075 -229.68834708 138.40577824 -210.80078125 131.7109375 C-210.02089844 131.47632813 -209.24101562 131.24171875 -208.4375 131 C-209.50508 128.06415499 -210.72340276 125.51396531 -212.3125 122.8125 C-219.7701398 110.04792552 -221.51013819 95.59945025 -218.68359375 81.14453125 C-217.74706916 78.01176467 -216.68943899 75.01938227 -215.4375 72 C-215.13714844 71.25621094 -214.83679688 70.51242188 -214.52734375 69.74609375 C-208.22278396 55.7996433 -196.47898566 46.42075249 -182.4375 41 C-166.16669162 35.99495786 -149.91248376 36.86637987 -134.6875 44.625 C-132.59668706 45.73603737 -130.51135524 46.85762211 -128.4375 48 C-127.7775 48.33 -127.1175 48.66 -126.4375 49 C-126.22996094 48.07960938 -126.02242187 47.15921875 -125.80859375 46.2109375 C-122.4459395 32.39450876 -117.09711132 20.67641251 -107.4375 10 C-106.77234375 9.24203125 -106.1071875 8.4840625 -105.421875 7.703125 C-77.9196402 -21.83631238 -31.48616383 -24.45714255 0 0 Z M-86.4375 14 C-87.19675781 14.57234375 -87.95601562 15.1446875 -88.73828125 15.734375 C-99.63615475 24.54301887 -107.2938931 38.16399182 -109.4375 52 C-110.81060791 69.55829759 -108.37542506 84.7119194 -97.4375 99 C-96.79167969 99.85078125 -96.14585937 100.7015625 -95.48046875 101.578125 C-86.04412161 112.99277869 -71.82516632 121.70341942 -56.93701172 123.26171875 C-45.91227246 123.99035949 -35.70666956 123.39901224 -25.4375 119 C-24.5609375 118.63777344 -23.684375 118.27554688 -22.78125 117.90234375 C-6.5860409 110.52952479 4.11350918 97.23484279 10.5625 81 C15.05310275 67.8608909 13.95112602 51.60300362 8.5625 39 C8.211875 38.13503906 7.86125 37.27007812 7.5 36.37890625 C0.18042673 20.08777268 -13.68815212 9.29298204 -30.03515625 3 C-49.69844588 -3.48171829 -70.44495446 1.24882466 -86.4375 14 Z M-195.7109375 71.625 C-202.47919468 80.93518182 -203.21263593 90.82231526 -202.4375 102 C-200.3405563 112.40458052 -194.06364535 121.66857363 -185.5625 127.9375 C-176.52224162 133.69290114 -167.21012953 137.12603479 -156.390625 135.55859375 C-144.85218446 132.99612282 -135.07063998 127.4118378 -128.1875 117.6875 C-122.58718022 108.74192253 -120.35235667 98.55361671 -122 88.0625 C-124.73846699 76.400729 -130.96184911 67.23495488 -140.7734375 60.578125 C-144.51640533 58.36088306 -148.23520309 57.0547934 -152.4375 56 C-153.241875 55.773125 -154.04625 55.54625 -154.875 55.3125 C-171.24420011 53.31625608 -185.11155864 59.12533409 -195.7109375 71.625 Z M35.5625 67 C28.00859132 76.43249854 23.9171977 87.56760259 24.74609375 99.68359375 C26.10206142 109.53882272 31.05836237 119.3463313 38.5625 126 C48.4337356 133.02951626 58.6746458 137.15536597 70.875 135.4375 C82.81998672 132.94128258 92.57134558 126.75017956 99.3125 116.6875 C105.55780643 106.23187464 107.56033237 96.04103801 104.87109375 83.87109375 C101.42731295 73.51093309 94.40372257 64.44285193 84.55859375 59.48828125 C67.75284487 52.29170903 49.21665547 53.71487576 35.5625 67 Z M-108.4375 114 C-108.1075 114.66 -107.7775 115.32 -107.4375 116 C-107.1075 115.34 -106.7775 114.68 -106.4375 114 C-107.0975 114 -107.7575 114 -108.4375 114 Z M9.5625 114 C10.2225 114.66 10.8825 115.32 11.5625 116 C11.5625 115.34 11.5625 114.68 11.5625 114 C10.9025 114 10.2425 114 9.5625 114 Z M-162.4375 166 C-171.49144224 178.50397075 -174.75245633 192.03140984 -174.73828125 207.265625 C-174.74256638 208.30265564 -174.7468515 209.33968628 -174.75126648 210.40814209 C-174.75697093 212.58295973 -174.75753899 214.75779644 -174.75317383 216.93261719 C-174.74999533 220.2548855 -174.77358598 223.57627772 -174.79882812 226.8984375 C-174.8010997 229.02083222 -174.80180527 231.14322931 -174.80078125 233.265625 C-174.809991 234.25322815 -174.81920074 235.2408313 -174.82868958 236.25836182 C-174.79288619 241.59407867 -174.46439256 245.40547185 -171.4375 250 C-168.59806336 252.6938245 -166.34775991 254.42070224 -162.4375 255 C-161.81101562 253.54207031 -161.81101562 253.54207031 -161.171875 252.0546875 C-159.5847825 249.67404875 -158.77490546 249.07991182 -155.95117188 248.41113281 C-152.85198505 248.18328175 -149.79499378 248.11746668 -146.6875 248.125 C-145.60855469 248.104375 -144.52960938 248.08375 -143.41796875 248.0625 C-140.75704234 248.01540396 -138.09875802 247.99555822 -135.4375 248 C-133.87058483 245.20217324 -133.87058483 245.20217324 -133.47265625 242.09375 C-134.9269819 238.93780446 -137.37245556 236.83401223 -139.875 234.5 C-147.02869152 227.77681232 -147.02869152 227.77681232 -147.8515625 222.1875 C-147.30337245 217.9674709 -145.32423158 215.29619789 -142.8125 212 C-142.38582031 211.40960938 -141.95914063 210.81921875 -141.51953125 210.2109375 C-139.24192451 207.12427046 -136.85784917 204.3579059 -134.1015625 201.6875 C-131.20283226 199.39396147 -131.20283226 199.39396147 -131.4375 197 C-130.86386719 196.74734375 -130.29023438 196.4946875 -129.69921875 196.234375 C-127.16168387 194.84946823 -125.35498138 193.22845244 -123.25 191.25 C-112.55620084 181.61150997 -112.55620084 181.61150997 -106.25 180.375 C-98.9393358 181.99959205 -94.7938147 187.66542211 -90 193.05078125 C-87.54202983 195.35210052 -87.54202983 195.35210052 -84.1875 194.85546875 C-81.55184584 194.26939698 -81.55184584 194.26939698 -80.4375 193 C-80.32857328 191.32804047 -80.2816946 189.65194743 -80.26171875 187.9765625 C-80.23787109 186.955625 -80.21402344 185.9346875 -80.18945312 184.8828125 C-80.14664285 182.71894782 -80.11530638 180.55482434 -80.09570312 178.390625 C-80.06798828 177.36710937 -80.04027344 176.34359375 -80.01171875 175.2890625 C-79.99713623 174.34756348 -79.98255371 173.40606445 -79.9675293 172.43603516 C-79.4375 170 -79.4375 170 -77.73364258 168.24267578 C-69.24995623 163.6512921 -57.77927745 164.69338317 -48.4375 164.75 C-47.16132813 164.74226563 -45.88515625 164.73453125 -44.5703125 164.7265625 C-25.56978278 164.76541839 -25.56978278 164.76541839 -19.14355469 168.24047852 C-16.84297344 170.61315869 -16.90040886 172.05337415 -16.828125 175.32421875 C-16.79589844 176.35224609 -16.76367188 177.38027344 -16.73046875 178.43945312 C-16.71628906 179.51130859 -16.70210937 180.58316406 -16.6875 181.6875 C-16.65785156 182.77095703 -16.62820313 183.85441406 -16.59765625 184.97070312 C-16.52691156 187.64721059 -16.47423844 190.32284479 -16.4375 193 C-14.24183208 194.33308409 -12.96617329 195.05297979 -10.37158203 194.79296875 C-7.01193273 193.41552102 -4.76767009 190.59256404 -2.3125 188 C4.27689923 181.14196818 4.27689923 181.14196818 8.74609375 180.6484375 C13.56166128 181.09204147 15.88446574 182.73364572 19.625 185.625 C20.21087891 186.05167969 20.79675781 186.47835937 21.40039062 186.91796875 C24.46481973 189.19673401 27.21261564 191.59279448 29.87109375 194.3359375 C32.16824634 197.23449576 32.16824634 197.23449576 34.5625 197 C34.81515625 197.57363281 35.0678125 198.14726562 35.328125 198.73828125 C36.71303177 201.27581613 38.33404756 203.08251862 40.3125 205.1875 C49.95099003 215.88129916 49.95099003 215.88129916 51.1875 222.1875 C49.56290795 229.4981642 43.89707789 233.6436853 38.51171875 238.4375 C36.21039948 240.89547017 36.21039948 240.89547017 36.70703125 244.25 C37.29310302 246.88565416 37.29310302 246.88565416 38.5625 248 C40.22347814 248.08461551 41.88765145 248.10819778 43.55078125 248.10546875 C44.56720703 248.12029297 45.58363281 248.13511719 46.63085938 248.15039062 C48.78176663 248.17499462 50.93298461 248.18041672 53.08398438 248.16601562 C60.7756796 248.3263605 60.7756796 248.3263605 63.18505859 250.38916016 C64.29296875 252.05078125 64.29296875 252.05078125 65.5625 255 C70.66729164 253.13478767 73.50488741 251.70401937 76.5625 247 C77.49836247 244.1924126 77.70360069 242.41658791 77.73950195 239.50708008 C77.75233719 238.59795364 77.76517242 237.68882721 77.77839661 236.75215149 C77.78578354 235.76788681 77.79317047 234.78362213 77.80078125 233.76953125 C77.81288887 232.23470345 77.81288887 232.23470345 77.82524109 230.66886902 C77.83908717 228.49418836 77.84980697 226.31948592 77.85766602 224.14477539 C77.86910128 221.94646729 77.889416 219.74818504 77.91918945 217.55004883 C78.21274136 195.86820672 76.30901607 177.98839404 61.00390625 161.38671875 C55.63298347 156.13610464 50.1295766 151.8245121 43.625 148.0625 C42.88628662 147.63356445 42.14757324 147.20462891 41.38647461 146.76269531 C31.07575997 140.89093492 20.33318207 136.47472134 9.125 132.625 C8.4038501 132.37395508 7.6827002 132.12291016 6.93969727 131.86425781 C0.81722582 129.84525723 -5.35823016 127.96479315 -11.6328125 130.07421875 C-12.59960938 130.60660156 -13.56640625 131.13898438 -14.5625 131.6875 C-32.54451021 140.55449124 -53.92688468 142.35668297 -73.19921875 136.2890625 C-77.58572881 134.5429246 -81.74346606 132.49634414 -85.8515625 130.171875 C-106.20087167 120.95013368 -149.95800608 150.7497481 -162.4375 166 Z M88.9375 146.375 C84.4953417 148.65418878 80.44302266 150.00581946 75.5625 151 C77.05758238 153.53257894 78.57934349 156.02526523 80.2109375 158.47265625 C92.66841808 177.15887712 94.00980614 195.63861096 94.25 217.4375 C94.28325022 219.53712962 94.31774668 221.6367399 94.35351562 223.73632812 C94.4375237 228.82411016 94.50474182 233.91185505 94.5625 239 C103.28865591 238.55776627 111.47007132 237.38584991 119.9375 235.25 C121.01660645 234.98340576 122.09571289 234.71681152 123.20751953 234.44213867 C138.27541381 231.66697563 138.27541381 231.66697563 150.5625 224 C152.32971509 218.56200264 151.74696672 212.64797358 151.75 207 C151.76224609 205.83082031 151.77449219 204.66164063 151.78710938 203.45703125 C151.81039267 189.47153157 150.25998903 176.30751339 140.390625 165.640625 C130.26714086 156.55544692 102.41966302 139.1539034 88.9375 146.375 Z M-237.4375 166 C-248.08543414 178.09903382 -248.61669481 191.24815519 -248.625 206.6875 C-248.63724609 207.89728516 -248.64949219 209.10707031 -248.66210938 210.35351562 C-248.66404297 211.51947266 -248.66597656 212.68542969 -248.66796875 213.88671875 C-248.67207764 214.94076904 -248.67618652 215.99481934 -248.68041992 217.08081055 C-248.42668594 220.12995349 -247.80904707 222.2745897 -246.4375 225 C-242.49847473 228.05475429 -237.82840594 229.40260379 -233.125 230.875 C-232.31192383 231.13039551 -231.49884766 231.38579102 -230.66113281 231.64892578 C-223.74461304 233.74464425 -216.75688106 235.3837982 -209.6875 236.875 C-208.67647217 237.0901123 -207.66544434 237.30522461 -206.6237793 237.52685547 C-201.44698368 238.57320603 -196.74245498 239.09230981 -191.4375 239 C-191.42291748 237.71536865 -191.40833496 236.4307373 -191.39331055 235.10717773 C-191.33466066 230.27049036 -191.25744149 225.43423668 -191.17504883 220.59790039 C-191.14210938 218.51789469 -191.11398475 216.43780625 -191.09106445 214.35766602 C-190.92149774 199.36724703 -190.69850058 184.53060756 -184.1875 170.6875 C-183.89029053 170.0279834 -183.59308105 169.3684668 -183.28686523 168.68896484 C-180.95037232 163.67790717 -178.1035831 159.20437149 -174.72265625 154.8203125 C-173.24524933 153.09907105 -173.24524933 153.09907105 -173.4375 151 C-174.24574219 150.74605469 -175.05398437 150.49210938 -175.88671875 150.23046875 C-176.95535156 149.88628906 -178.02398437 149.54210937 -179.125 149.1875 C-180.70861328 148.68283203 -180.70861328 148.68283203 -182.32421875 148.16796875 C-185.29571098 147.05319312 -187.74005866 145.64869882 -190.4375 144 C-205.37007974 144 -226.72839267 156.25632138 -237.4375 166 Z M-64.4375 182 C-64.4468457 182.65073486 -64.45619141 183.30146973 -64.46582031 183.97192383 C-64.51949493 186.91955506 -64.6031455 189.86559393 -64.6875 192.8125 C-64.70167969 193.83666016 -64.71585937 194.86082031 -64.73046875 195.91601562 C-64.76269531 196.89892578 -64.79492188 197.88183594 -64.828125 198.89453125 C-64.84907227 199.80050049 -64.87001953 200.70646973 -64.89160156 201.63989258 C-65.4375 204 -65.4375 204 -67.3046875 205.73681641 C-73.91788917 209.65356382 -81.80514333 212.94726115 -89.4375 214 C-94.46652733 212.04197707 -97.67655017 209.14111565 -101.3125 205.3125 C-101.81007812 204.80138672 -102.30765625 204.29027344 -102.8203125 203.76367188 C-104.03308176 202.51591888 -105.23630719 201.25890136 -106.4375 200 C-115.38150852 203.91813217 -122.25742248 212.69784136 -128.4375 220 C-126.88438626 223.83866179 -124.45241392 226.02983962 -121.4375 228.8125 C-114.63145627 235.56922458 -114.63145627 235.56922458 -114.4375 241 C-115.43607452 244.50095471 -116.91278353 247.70133455 -118.4375 251 C-119.15417764 252.83008754 -119.86282225 254.6633459 -120.5625 256.5 C-121.6506212 259.34170495 -122.26532673 260.82782673 -124.4375 263 C-126.68408203 263.31884766 -126.68408203 263.31884766 -129.4453125 263.4140625 C-130.43144531 263.45273437 -131.41757813 263.49140625 -132.43359375 263.53125 C-133.46613281 263.5621875 -134.49867188 263.593125 -135.5625 263.625 C-136.60277344 263.66367187 -137.64304687 263.70234375 -138.71484375 263.7421875 C-141.28888311 263.83664766 -143.86291155 263.92221214 -146.4375 264 C-147.83636325 266.7977265 -147.56724597 269.12388892 -147.5703125 272.25 C-147.57160156 273.4978125 -147.57289063 274.745625 -147.57421875 276.03125 C-147.57035156 277.3409375 -147.56648438 278.650625 -147.5625 280 C-147.56636719 281.3096875 -147.57023437 282.619375 -147.57421875 283.96875 C-147.57292969 285.2165625 -147.57164062 286.464375 -147.5703125 287.75 C-147.56918457 288.89984375 -147.56805664 290.0496875 -147.56689453 291.234375 C-147.62644568 293.95954475 -147.62644568 293.95954475 -146.4375 296 C-145.78676514 296.0093457 -145.13603027 296.01869141 -144.46557617 296.02832031 C-141.51794494 296.08199493 -138.57190607 296.1656455 -135.625 296.25 C-134.60083984 296.26417969 -133.57667969 296.27835937 -132.52148438 296.29296875 C-131.53857422 296.32519531 -130.55566406 296.35742188 -129.54296875 296.390625 C-128.63699951 296.41157227 -127.73103027 296.43251953 -126.79760742 296.45410156 C-124.4375 297 -124.4375 297 -122.70068359 298.8605957 C-121.1580302 301.47332699 -120.00739261 304.12249266 -118.875 306.9375 C-118.46121094 307.95714844 -118.04742187 308.97679687 -117.62109375 310.02734375 C-117.23050781 311.00832031 -116.83992188 311.98929688 -116.4375 313 C-116.05851562 313.89203125 -115.67953125 314.7840625 -115.2890625 315.703125 C-114.05693049 319.02649025 -114.31087891 320.62013674 -115.4375 324 C-117.5463619 326.89099474 -119.94047172 329.44206859 -122.4375 332 C-123.03046875 332.6084375 -123.6234375 333.216875 -124.234375 333.84375 C-125.62100741 335.24358844 -127.02715577 336.62405441 -128.4375 338 C-124.51936783 346.94400852 -115.73965864 353.81992248 -108.4375 360 C-103.53958197 358.00916034 -100.52586016 354.0908683 -96.97265625 350.3125 C-93.74205985 347.36563857 -91.20940276 345.95781184 -86.8125 346.0625 C-81.75578176 347.46714396 -77.15256578 349.71941922 -72.4375 352 C-71.77492188 352.31710937 -71.11234375 352.63421875 -70.4296875 352.9609375 C-66.61556604 354.82193396 -66.61556604 354.82193396 -65.4375 356 C-65.28035346 357.63256758 -65.18664586 359.27135338 -65.12109375 360.91015625 C-65.07919922 361.89951172 -65.03730469 362.88886719 -64.99414062 363.90820312 C-64.95482422 364.94912109 -64.91550781 365.99003906 -64.875 367.0625 C-64.83181641 368.10728516 -64.78863281 369.15207031 -64.74414062 370.22851562 C-64.63768775 372.81886884 -64.5356724 375.40932186 -64.4375 378 C-56.57728498 381.93010751 -42.79747573 380.17013657 -34.4375 379 C-33.7775 378.67 -33.1175 378.34 -32.4375 378 C-32.4281543 377.34926514 -32.41880859 376.69853027 -32.40917969 376.02807617 C-32.35550507 373.08044494 -32.2718545 370.13440607 -32.1875 367.1875 C-32.17332031 366.16333984 -32.15914063 365.13917969 -32.14453125 364.08398438 C-32.11230469 363.10107422 -32.08007812 362.11816406 -32.046875 361.10546875 C-32.02592773 360.19949951 -32.00498047 359.29353027 -31.98339844 358.36010742 C-31.4375 356 -31.4375 356 -29.5769043 354.26318359 C-26.96417301 352.7205302 -24.31500734 351.56989261 -21.5 350.4375 C-20.48035156 350.02371094 -19.46070313 349.60992187 -18.41015625 349.18359375 C-17.42917969 348.79300781 -16.44820312 348.40242187 -15.4375 348 C-14.54546875 347.62101563 -13.6534375 347.24203125 -12.734375 346.8515625 C-9.41100975 345.61943049 -7.81736326 345.87337891 -4.4375 347 C-1.54650526 349.1088619 1.00456859 351.50297172 3.5625 354 C4.1709375 354.59296875 4.779375 355.1859375 5.40625 355.796875 C6.80608844 357.18350741 8.18655441 358.58965577 9.5625 360 C18.50650852 356.08186783 25.38242248 347.30215864 31.5625 340 C29.99637807 336.15588253 27.54155879 333.84049791 24.5625 331 C18.85802858 325.56085283 18.85802858 325.56085283 17.5625 322 C17.69833322 315.34417212 20.67493637 309.8902755 23.5625 304 C23.87960937 303.33871094 24.19671875 302.67742187 24.5234375 301.99609375 C26.37940141 298.18309859 26.37940141 298.18309859 27.5625 297 C29.19506758 296.84285346 30.83385338 296.74914586 32.47265625 296.68359375 C33.46201172 296.64169922 34.45136719 296.59980469 35.47070312 296.55664062 C36.51162109 296.51732422 37.55253906 296.47800781 38.625 296.4375 C39.66978516 296.39431641 40.71457031 296.35113281 41.79101562 296.30664062 C44.38136884 296.20018775 46.97182186 296.0981724 49.5625 296 C50.96136325 293.2022735 50.69224597 290.87611108 50.6953125 287.75 C50.69724609 285.87828125 50.69724609 285.87828125 50.69921875 283.96875 C50.69535156 282.6590625 50.69148437 281.349375 50.6875 280 C50.69136719 278.6903125 50.69523438 277.380625 50.69921875 276.03125 C50.69792969 274.7834375 50.69664062 273.535625 50.6953125 272.25 C50.69362061 270.52523437 50.69362061 270.52523437 50.69189453 268.765625 C50.75144568 266.04045525 50.75144568 266.04045525 49.5625 264 C48.91176514 263.9906543 48.26103027 263.98130859 47.59057617 263.97167969 C44.64294494 263.91800507 41.69690607 263.8343545 38.75 263.75 C37.72583984 263.73582031 36.70167969 263.72164063 35.64648438 263.70703125 C34.66357422 263.67480469 33.68066406 263.64257812 32.66796875 263.609375 C31.76199951 263.58842773 30.85603027 263.56748047 29.92260742 263.54589844 C27.5625 263 27.5625 263 25.82568359 261.15527344 C24.19356022 258.37050631 23.10860725 255.53042484 22 252.5 C20.38476601 248.0551323 20.38476601 248.0551323 18.4140625 243.765625 C16.97392872 240.77965954 17.54175749 239.1222712 18.5625 236 C20.66859228 233.1070161 23.06553738 230.55786415 25.5625 228 C26.15546875 227.3915625 26.7484375 226.783125 27.359375 226.15625 C28.74600741 224.75641156 30.15215577 223.37594559 31.5625 222 C27.64436783 213.05599148 18.86465864 206.18007752 11.5625 200 C7.72383821 201.55311374 5.53266038 203.98508608 2.75 207 C-4.00672458 213.80604373 -4.00672458 213.80604373 -9.4375 214 C-12.93845471 213.00142548 -16.13883455 211.52471647 -19.4375 210 C-21.26758754 209.28332236 -23.1008459 208.57467775 -24.9375 207.875 C-27.77920495 206.7868788 -29.26532673 206.17217327 -31.4375 204 C-31.75634766 201.75341797 -31.75634766 201.75341797 -31.8515625 198.9921875 C-31.89023437 198.00605469 -31.92890625 197.01992188 -31.96875 196.00390625 C-31.9996875 194.97136719 -32.030625 193.93882812 -32.0625 192.875 C-32.10117187 191.83472656 -32.13984375 190.79445313 -32.1796875 189.72265625 C-32.27414766 187.14861689 -32.35971214 184.57458845 -32.4375 182 C-35.41659485 180.51045257 -38.53732305 180.57663068 -41.8125 180.375 C-42.88201904 180.30853271 -42.88201904 180.30853271 -43.97314453 180.24072266 C-54.48480245 179.46849701 -54.48480245 179.46849701 -64.4375 182 Z " fill="#000000" transform="translate(304.4375,66)"/>
<path d="M0 0 C12.74373412 8.19819838 21.36131987 20.0471358 24.625 35.0625 C26.11762549 52.76812651 22.623421 65.63618428 12.4375 80.1875 C4.71515443 88.8689904 -7.72921116 96.24933757 -19.47460938 97.23950195 C-36.41916132 97.70219588 -50.70261321 95.36899278 -63.87890625 83.6484375 C-75.98163457 70.81891348 -79.90155435 57.20527703 -79.65234375 40.1328125 C-79.20590476 28.09006511 -73.19486343 15.38271599 -64.375 7.0625 C-45.6451687 -8.69185643 -21.55735825 -12.3412687 0 0 Z M-55.375 23.0625 C-62.51707432 32.27861933 -63.22683 41.80064361 -62.375 53.0625 C-60.56342444 62.13253603 -54.40451904 69.16485094 -47.22265625 74.73046875 C-37.92196079 80.81787211 -27.22652967 81.63070097 -16.4609375 79.48046875 C-7.42936132 76.34092084 -0.12871279 69.20939033 4.6875 61.08203125 C8.78011549 52.26585537 9.40739262 40.95020479 6.1875 31.6875 C1.64168758 22.16217575 -6.40810511 14.84925795 -16.12890625 10.9609375 C-31.63473208 6.66931302 -44.69490921 11.54773071 -55.375 23.0625 Z " fill="#000000" transform="translate(283.375,300.9375)"/>
</svg>
