<svg width="176" height="152" viewBox="0 0 176 152" fill="none" xmlns="http://www.w3.org/2000/svg">
<circle cx="52" cy="52" r="52" fill="#C6E8FF"/>
<path d="M34.12 51.04C34.12 46.4267 34.9467 42.8133 36.6 40.2C38.28 37.5867 41.0533 36.28 44.92 36.28C48.7867 36.28 51.5467 37.5867 53.2 40.2C54.88 42.8133 55.72 46.4267 55.72 51.04C55.72 55.68 54.88 59.32 53.2 61.96C51.5467 64.6 48.7867 65.92 44.92 65.92C41.0533 65.92 38.28 64.6 36.6 61.96C34.9467 59.32 34.12 55.68 34.12 51.04ZM50.2 51.04C50.2 49.0667 50.0667 47.4133 49.8 46.08C49.56 44.72 49.0533 43.6133 48.28 42.76C47.5333 41.9067 46.4133 41.48 44.92 41.48C43.4267 41.48 42.2933 41.9067 41.52 42.76C40.7733 43.6133 40.2667 44.72 40 46.08C39.76 47.4133 39.64 49.0667 39.64 51.04C39.64 53.0667 39.76 54.7733 40 56.16C40.24 57.52 40.7467 58.6267 41.52 59.48C42.2933 60.3067 43.4267 60.72 44.92 60.72C46.4133 60.72 47.5467 60.3067 48.32 59.48C49.0933 58.6267 49.6 57.52 49.84 56.16C50.08 54.7733 50.2 53.0667 50.2 51.04ZM59.2994 42V36.84H68.9394V66H63.1794V42H59.2994Z" fill="black"/>
<g clip-path="url(#clip0_66_1051)">
<mask id="mask0_66_1051" style="mask-type:luminance" maskUnits="userSpaceOnUse" x="76" y="51" width="100" height="101">
<path d="M176 51.9766H76V151.977H176V51.9766Z" fill="white"/>
</mask>
<g mask="url(#mask0_66_1051)">
<mask id="mask1_66_1051" style="mask-type:luminance" maskUnits="userSpaceOnUse" x="76" y="51" width="100" height="101">
<path d="M176 51.9766H76V151.977H176V51.9766Z" fill="white"/>
</mask>
<g mask="url(#mask1_66_1051)">
<path d="M106.5 61.4883L103.5 55.9883H84L78 61.4883V81.9883V99.4883L81.5 101.488L93 90.9883L102.5 74.9883L106.5 61.4883Z" fill="white"/>
<path d="M83.3789 54.535C80.0391 55.3163 77.0898 58.6171 76.2891 62.4257C75.8594 64.4569 75.8594 120.531 76.2891 122.543C77.1289 126.508 80.0977 129.75 83.5742 130.473C84.8633 130.746 96.8554 130.765 97.5585 130.492C98.75 130.043 99.1016 128.305 98.1835 127.387L97.6758 126.879L90.8789 126.781C84.3555 126.684 84.0625 126.664 83.3008 126.254C82.207 125.668 80.9766 124.242 80.4492 122.894L80 121.801V103.051V84.3007L122.441 84.2422L164.863 84.203V94.164V104.125H164.141C163.242 104.125 161.836 104.75 161.133 105.414L160.605 105.922L159.277 105.336C158.535 105.023 157.734 104.691 157.5 104.633C157.168 104.535 157.051 104.301 156.953 103.48C156.719 101.762 155.879 100.531 154.434 99.789C153.496 99.3007 150.078 99.0859 148.359 99.418C146.23 99.8086 144.824 101.312 144.609 103.402L144.512 104.437L142.774 105.18L141.035 105.922L140.43 105.394C139.375 104.535 138.672 104.262 137.422 104.262C136.621 104.262 136.016 104.379 135.469 104.672C134.414 105.219 131.172 108.539 130.781 109.437C130.176 110.922 130.605 113.07 131.758 114.281L132.246 114.789L131.484 116.527L130.723 118.285L129.687 118.383C128.477 118.519 127.676 118.89 126.953 119.691C125.918 120.805 125.723 121.41 125.645 124.184L125.566 126.781H119.512H113.457L112.891 127.348C111.934 128.305 112.207 129.848 113.437 130.473C113.73 130.629 116.484 130.687 122.324 130.687H130.781L131.524 132.445L132.285 134.223L131.699 134.867C130.469 136.273 130.176 138.305 130.996 139.906C131.504 140.902 134.609 143.91 135.586 144.359C136.797 144.906 138.184 144.867 139.414 144.262C139.961 143.988 140.547 143.598 140.723 143.402C141.035 143.051 141.113 143.07 142.774 143.754L144.512 144.457L144.727 145.727C145 147.367 145.703 148.363 147.07 149.086C148.047 149.594 148.242 149.633 150.645 149.633C152.051 149.633 153.535 149.535 153.945 149.418C155.586 148.91 156.797 147.328 156.992 145.414C157.051 144.828 157.207 144.359 157.324 144.359C157.441 144.359 158.242 144.047 159.102 143.676L160.645 142.992L161.25 143.578C162.48 144.769 164.59 145.102 166.133 144.359C167.149 143.871 170.43 140.551 170.82 139.613C171.445 138.09 171.074 136.059 169.941 134.887L169.355 134.281L170.039 132.738C170.41 131.879 170.723 131.059 170.723 130.922C170.723 130.785 170.996 130.687 171.426 130.687C172.695 130.687 173.711 130.258 174.629 129.32C175.781 128.168 175.996 127.406 175.996 124.281C175.996 121.879 175.957 121.684 175.449 120.707C174.707 119.281 173.652 118.559 172.09 118.402L170.879 118.285L170.43 117.094C170.176 116.43 169.844 115.629 169.668 115.297C169.395 114.769 169.395 114.691 169.668 114.457C169.844 114.32 170.234 113.754 170.547 113.207C171.582 111.41 171.27 109.457 169.649 107.66L168.984 106.937L168.926 84.9649L168.867 63.0116L168.34 61.4296C167.422 58.7733 165.508 56.3319 163.535 55.3163C161.484 54.2616 163.535 54.3202 122.285 54.3397C100.957 54.3593 83.7695 54.4374 83.3789 54.535ZM161.016 58.5389C162.207 58.9491 163.477 60.1796 164.199 61.6639L164.766 62.8163L164.824 71.5468L164.883 80.2967H122.383H79.8828L79.9414 71.7421C80 63.4022 80.0195 63.1874 80.4492 62.1132C81.1719 60.3163 82.6172 58.8905 84.1992 58.4022C84.4727 58.3241 101.66 58.246 122.402 58.246C156.445 58.2264 160.195 58.2655 161.016 58.5389ZM152.949 104.75C152.949 105.707 153.066 106.39 153.301 106.859C153.594 107.484 153.809 107.602 155.488 108.148C156.504 108.48 158.066 109.125 158.945 109.555C159.844 110.004 160.762 110.375 161.016 110.375C161.562 110.375 162.149 109.984 163.359 108.832L164.277 107.953L165.742 109.398C166.543 110.199 167.207 110.941 167.207 111.059C167.207 111.176 166.777 111.703 166.23 112.23C165.703 112.758 165.156 113.48 165.039 113.832C164.844 114.437 164.902 114.652 165.801 116.488C166.348 117.582 166.973 119.105 167.187 119.867C167.774 121.84 168.164 122.152 170.293 122.289L171.992 122.387L172.051 124.32C172.09 125.57 172.031 126.332 171.875 126.508C171.719 126.703 171.191 126.781 170.137 126.781C168.105 126.781 167.812 127.015 167.109 129.262C166.816 130.219 166.191 131.742 165.703 132.68C164.902 134.223 164.844 134.418 165.039 135.023C165.156 135.394 165.703 136.117 166.23 136.644C166.777 137.172 167.207 137.699 167.207 137.816C167.207 138.07 164.434 140.844 164.16 140.844C164.062 140.844 163.496 140.355 162.91 139.769C161.465 138.305 161.113 138.265 159.043 139.34C158.105 139.828 156.582 140.453 155.645 140.727C153.399 141.41 153.145 141.723 153.145 143.773C153.145 144.828 153.066 145.355 152.871 145.512C152.695 145.668 151.934 145.727 150.684 145.687L148.75 145.629L148.652 143.93C148.516 141.801 148.203 141.41 146.23 140.824C145.469 140.59 143.965 139.965 142.891 139.437C141.113 138.539 140.899 138.48 140.254 138.676C139.883 138.793 139.141 139.32 138.594 139.867C138.066 140.394 137.539 140.844 137.422 140.844C137.305 140.844 136.582 140.199 135.781 139.398C134.199 137.816 134.16 137.602 135.352 136.762C136.055 136.254 136.738 135.18 136.738 134.594C136.738 134.34 136.348 133.383 135.879 132.465C135.41 131.547 134.824 130.121 134.59 129.32C133.945 127.191 133.613 126.898 131.504 126.781L129.805 126.684L129.746 124.477L129.687 122.289H131.113C132.07 122.289 132.754 122.172 133.223 121.937C133.848 121.644 133.965 121.43 134.59 119.555C134.98 118.422 135.625 116.898 136.016 116.156C136.406 115.414 136.738 114.633 136.738 114.437C136.738 113.852 136.25 113.07 135.293 112.133C134.805 111.664 134.395 111.176 134.395 111.078C134.395 110.746 136.992 108.227 137.324 108.227C137.5 108.227 137.988 108.578 138.399 109.027C139.297 109.945 140.039 110.375 140.723 110.375C140.977 110.375 141.953 109.984 142.852 109.515C143.77 109.027 145.156 108.441 145.957 108.227C146.934 107.934 147.559 107.621 147.93 107.23C148.418 106.703 148.457 106.527 148.457 105.14C148.457 104.301 148.516 103.539 148.594 103.48C148.652 103.402 149.668 103.344 150.84 103.344H152.949V104.75Z" fill="black"/>
<path d="M92.6016 63.0111C91.3906 63.3431 89.75 64.3978 89.1445 65.2181C88.0508 66.7025 87.8164 67.4252 87.8164 69.3588C87.8164 70.9017 87.8945 71.3705 88.2656 72.1127C88.9883 73.5773 89.9648 74.554 91.3711 75.2571C92.5234 75.8236 92.875 75.9017 94.2617 75.9017C95.5703 75.9017 96.0195 75.804 96.996 75.3548C98.5 74.6517 99.8673 73.2063 100.414 71.7416C101 70.2181 100.902 67.9134 100.219 66.5267C98.8517 63.7142 95.5508 62.2103 92.6016 63.0111ZM95.9609 67.347C97.1523 68.4213 97.1914 70.1986 96.0586 71.2533C95.1602 72.0736 94.2226 72.2494 93.2461 71.7806C91.4297 70.8822 91.0977 68.6752 92.582 67.3275C93.3828 66.5853 95.1406 66.6048 95.9609 67.347Z" fill="black"/>
<path d="M109.773 62.9742C106.394 63.9312 104.323 67.1343 104.929 70.4742C105.339 72.7007 106.667 74.3999 108.796 75.396C110.339 76.1187 112.527 76.1187 114.109 75.3764C115.515 74.732 116.726 73.5406 117.39 72.1148C117.82 71.1968 117.898 70.7476 117.898 69.3609C117.898 67.9351 117.82 67.5445 117.351 66.5874C115.984 63.7945 112.605 62.1734 109.773 62.9742ZM113.113 67.3882C114.285 68.2476 114.343 70.1226 113.23 71.2359C112.37 72.0952 111.433 72.2515 110.339 71.7242C109.285 71.2163 108.816 70.4546 108.816 69.2827C108.816 68.5406 108.933 68.2671 109.46 67.6812C110.456 66.5874 111.902 66.4702 113.113 67.3882Z" fill="black"/>
<path d="M133.161 62.9327C129.157 63.8702 126.892 68.3234 128.513 72.0148C129.06 73.2257 130.544 74.7296 131.833 75.3546L132.927 75.9015H143.278C153.63 75.9015 153.63 75.9015 154.587 75.4523C156.071 74.7882 157.107 73.8117 157.829 72.464C159.411 69.4757 158.532 65.882 155.72 63.9484C154.001 62.757 153.493 62.7179 143.181 62.7374C138.083 62.757 133.571 62.8351 133.161 62.9327ZM153.513 67.1906C154.704 68.0499 155.036 69.5929 154.255 70.7452C153.357 72.1124 153.474 72.0929 143.552 72.0929C138.65 72.0929 134.353 72.0343 134.001 71.9757C133.161 71.7999 132.126 70.7452 131.97 69.8663C131.794 68.9874 132.38 67.5421 133.044 67.1906C134.001 66.6827 134.782 66.6437 143.669 66.6827L152.849 66.7218L153.513 67.1906Z" fill="black"/>
<path d="M147.877 112.835C144.596 113.695 141.529 116.175 140.103 119.183C139.088 121.273 138.814 122.738 138.932 125.277C139.01 126.859 139.146 127.543 139.576 128.636C141.002 132.21 143.521 134.632 147.135 135.902C148.971 136.566 152.174 136.644 154.029 136.078C158.092 134.867 161.236 131.722 162.447 127.66C162.974 125.882 162.935 122.972 162.369 121.117C161.119 117.074 157.642 113.753 153.697 112.816C152.154 112.464 149.283 112.464 147.877 112.835ZM154.205 117.171C159.244 119.535 160.455 125.98 156.646 130.003C152.779 134.105 146.138 133.089 143.638 128.011C143.033 126.781 142.916 126.312 142.838 124.945C142.74 122.933 143.092 121.605 144.146 120.023C145.103 118.578 146.588 117.445 148.248 116.859C150.103 116.214 152.408 116.332 154.205 117.171Z" fill="black"/>
<path d="M106.912 95.5325C106.678 95.6302 106.346 95.9231 106.17 96.1771C105.799 96.7435 101.951 112.642 101.912 113.755C101.893 114.38 101.991 114.615 102.518 115.083C103.631 116.079 105.194 115.669 105.662 114.224C106.112 112.837 109.608 97.9348 109.627 97.3685C109.627 96.5481 109.315 95.9817 108.612 95.6302C107.987 95.2981 107.557 95.2785 106.912 95.5325Z" fill="black"/>
<path d="M93.8479 97.1505C93.0276 97.6192 87.5198 104.006 87.2854 104.748C86.8948 106.057 87.2464 106.682 90.3714 110.197C91.9339 111.955 93.3987 113.557 93.6135 113.733C93.8479 113.947 94.3362 114.084 94.8245 114.084C95.9573 114.084 96.6995 113.322 96.6995 112.189C96.6995 111.447 96.5432 111.213 94.1604 108.518C92.7737 106.955 91.6214 105.588 91.6214 105.51C91.6214 105.432 92.1292 104.807 92.7542 104.104C96.8361 99.4942 96.6995 99.6701 96.6995 98.8301C96.6995 97.3457 95.1174 96.4082 93.8479 97.1505Z" fill="black"/>
<path d="M115.49 97.3868C114.806 97.9726 114.611 98.7343 114.962 99.5351C115.099 99.8476 116.29 101.312 117.579 102.758C118.868 104.203 119.943 105.453 119.943 105.512C119.943 105.59 118.829 106.879 117.482 108.402C114.552 111.703 114.24 112.445 115.392 113.578C115.763 113.969 116.095 114.086 116.7 114.086C117.13 114.086 117.638 113.969 117.814 113.832C118.673 113.187 124.064 106.879 124.259 106.312C124.669 105.082 124.357 104.457 122.13 101.918C120.978 100.609 119.474 98.9493 118.771 98.207C117.657 97.0743 117.403 96.8984 116.778 96.8984C116.31 96.8984 115.88 97.0547 115.49 97.3868Z" fill="black"/>
<path d="M104.491 127.075C103.358 127.7 103.3 129.302 104.374 130.219C104.882 130.649 105.116 130.708 105.761 130.63C106.854 130.473 107.44 129.77 107.44 128.637C107.44 127.934 107.343 127.719 106.835 127.29C106.171 126.723 105.292 126.645 104.491 127.075Z" fill="black"/>
</g>
</g>
</g>
<defs>
<clipPath id="clip0_66_1051">
<rect width="100" height="100" fill="white" transform="translate(76 51.9766)"/>
</clipPath>
</defs>
</svg>
