<svg width="166" height="154" viewBox="0 0 166 154" fill="none" xmlns="http://www.w3.org/2000/svg">
<circle cx="52" cy="52" r="52" fill="#C6E8FF"/>
<path d="M30.12 51.04C30.12 46.4267 30.9467 42.8133 32.6 40.2C34.28 37.5867 37.0533 36.28 40.92 36.28C44.7867 36.28 47.5467 37.5867 49.2 40.2C50.88 42.8133 51.72 46.4267 51.72 51.04C51.72 55.68 50.88 59.32 49.2 61.96C47.5467 64.6 44.7867 65.92 40.92 65.92C37.0533 65.92 34.28 64.6 32.6 61.96C30.9467 59.32 30.12 55.68 30.12 51.04ZM46.2 51.04C46.2 49.0667 46.0667 47.4133 45.8 46.08C45.56 44.72 45.0533 43.6133 44.28 42.76C43.5333 41.9067 42.4133 41.48 40.92 41.48C39.4267 41.48 38.2933 41.9067 37.52 42.76C36.7733 43.6133 36.2667 44.72 36 46.08C35.76 47.4133 35.64 49.0667 35.64 51.04C35.64 53.0667 35.76 54.7733 36 56.16C36.24 57.52 36.7467 58.6267 37.52 59.48C38.2933 60.3067 39.4267 60.72 40.92 60.72C42.4133 60.72 43.5467 60.3067 44.32 59.48C45.0933 58.6267 45.6 57.52 45.84 56.16C46.08 54.7733 46.2 53.0667 46.2 51.04ZM56.0594 44.52C56.1927 41.8533 57.126 39.8 58.8594 38.36C60.6194 36.8933 62.926 36.16 65.7794 36.16C67.726 36.16 69.3927 36.5067 70.7794 37.2C72.166 37.8667 73.206 38.7867 73.8994 39.96C74.6194 41.1067 74.9794 42.4133 74.9794 43.88C74.9794 45.56 74.5394 46.9867 73.6594 48.16C72.806 49.3067 71.7794 50.08 70.5794 50.48V50.64C72.126 51.12 73.326 51.9733 74.1794 53.2C75.0594 54.4267 75.4994 56 75.4994 57.92C75.4994 59.52 75.126 60.9467 74.3794 62.2C73.6594 63.4533 72.5794 64.44 71.1394 65.16C69.726 65.8533 68.0194 66.2 66.0194 66.2C63.006 66.2 60.5527 65.44 58.6594 63.92C56.766 62.4 55.766 60.16 55.6594 57.2H61.0994C61.1527 58.5067 61.5927 59.56 62.4194 60.36C63.2727 61.1333 64.4327 61.52 65.8994 61.52C67.2594 61.52 68.2994 61.1467 69.0194 60.4C69.766 59.6267 70.1394 58.64 70.1394 57.44C70.1394 55.84 69.6327 54.6933 68.6194 54C67.606 53.3067 66.0327 52.96 63.8994 52.96H62.7394V48.36H63.8994C67.686 48.36 69.5794 47.0933 69.5794 44.56C69.5794 43.4133 69.2327 42.52 68.5394 41.88C67.8727 41.24 66.8994 40.92 65.6194 40.92C64.366 40.92 63.3927 41.2667 62.6994 41.96C62.0327 42.6267 61.646 43.48 61.5394 44.52H56.0594Z" fill="black"/>
<path d="M117 59H99.5L93.5 61.5L92 71H88.5L86.5 76.5L82 78L79 75.5L75 79L77.5 82L75 88L70.5 89V93L74 94.5L76.5 98L75 104.5L79 108L92.5 94.5L108.5 75.5L117 59Z" fill="white"/>
<path d="M100.75 57.026C101.12 57.0249 101.49 57.0235 101.86 57.0218C102.86 57.0182 103.86 57.0196 104.86 57.0221C105.909 57.0241 106.959 57.0222 108.008 57.021C109.77 57.0196 111.532 57.0215 113.294 57.0252C115.328 57.0294 117.361 57.0281 119.394 57.0237C121.144 57.0202 122.894 57.0197 124.644 57.0217C125.687 57.023 126.73 57.0231 127.774 57.0206C128.755 57.0183 129.736 57.0199 130.717 57.0244C131.076 57.0254 131.434 57.0251 131.793 57.0234C134.562 57.0113 136.764 57.2756 138.859 59.2755C140.835 61.3462 141.123 63.5527 141.096 66.3122C141.095 66.6223 141.095 66.9325 141.096 67.2426C141.096 68.0782 141.092 68.9137 141.086 69.7493C141.081 70.6249 141.081 71.5004 141.08 72.376C141.078 74.0312 141.071 75.6864 141.063 77.3416C141.054 79.2273 141.05 81.1129 141.046 82.9985C141.038 86.8746 141.024 90.7508 141.007 94.6271C141.252 94.6158 141.496 94.6044 141.749 94.5927C142.071 94.5835 142.393 94.5746 142.716 94.566C142.958 94.5537 142.958 94.5537 143.204 94.5412C144.406 94.5171 144.406 94.5171 145.016 95.0927C145.279 95.5602 145.443 95.9252 145.551 96.4475C145.584 96.6002 145.616 96.7531 145.65 96.9106C145.681 97.0673 145.712 97.2241 145.743 97.3858C145.777 97.5441 145.811 97.7025 145.845 97.8658C145.977 98.4954 146.085 99.0598 146.085 99.7052C146.242 99.7212 146.399 99.7375 146.561 99.7539C147.312 99.9121 147.898 100.186 148.576 100.537C149.153 100.727 149.415 100.683 149.991 100.486C150.565 100.124 151.117 99.7458 151.664 99.3439C152.576 98.716 153.181 98.5991 154.288 98.7285C154.686 98.9316 154.686 98.9316 154.996 99.2412C155.122 99.3648 155.248 99.4881 155.378 99.6152C155.534 99.7737 155.69 99.9323 155.851 100.096C156.081 100.314 156.312 100.531 156.543 100.747C156.793 100.986 157.042 101.224 157.291 101.463C157.412 101.576 157.533 101.69 157.658 101.807C158.409 102.545 158.814 103.12 158.976 104.197C158.891 104.597 158.891 104.597 158.695 104.93C158.622 105.059 158.549 105.188 158.474 105.321C158.264 105.651 158.048 105.978 157.83 106.302C157.704 106.49 157.579 106.677 157.45 106.871C157.267 107.132 157.267 107.132 157.08 107.398C156.773 108.018 156.807 108.237 157.023 108.885C157.215 109.392 157.427 109.889 157.64 110.388C157.804 110.838 157.804 110.838 157.804 111.424C157.917 111.445 158.03 111.465 158.147 111.486C158.664 111.581 159.18 111.68 159.696 111.778C159.874 111.81 160.052 111.843 160.236 111.876C162.138 112.243 162.138 112.243 162.882 112.986C162.906 113.5 162.919 114.009 162.922 114.523C162.923 114.677 162.924 114.832 162.925 114.991C162.927 115.318 162.928 115.646 162.929 115.973C162.931 116.474 162.937 116.975 162.943 117.476C162.944 117.794 162.945 118.112 162.946 118.429C162.948 118.579 162.951 118.73 162.953 118.884C162.949 119.912 162.949 119.912 162.644 120.393C162.218 120.651 161.841 120.764 161.355 120.874C161.174 120.917 160.993 120.959 160.806 121.002C160.617 121.044 160.428 121.086 160.233 121.129C160.043 121.172 159.854 121.216 159.658 121.262C158.265 121.58 158.265 121.58 157.804 121.58C157.788 121.737 157.771 121.894 157.755 122.056C157.597 122.807 157.323 123.393 156.972 124.071C156.781 124.648 156.828 124.909 157.023 125.486C157.305 125.956 157.591 126.404 157.901 126.854C158.965 128.395 158.965 128.395 158.976 129.197C158.612 130.047 158.19 130.641 157.534 131.289C157.371 131.451 157.207 131.614 157.038 131.782C156.868 131.948 156.698 132.114 156.522 132.286C156.351 132.456 156.18 132.626 156.004 132.801C154.537 134.249 154.537 134.249 153.583 134.35C152.568 134.337 151.93 133.861 151.126 133.287C150.189 132.564 150.189 132.564 149.08 132.335C148.854 132.425 148.854 132.425 148.624 132.518C148.376 132.612 148.376 132.612 148.122 132.708C147.788 132.85 147.455 132.992 147.121 133.135C146.671 133.299 146.671 133.299 146.085 133.299C146.053 133.515 146.053 133.515 146.02 133.736C145.46 137.317 145.46 137.317 144.851 138.138C144.314 138.529 143.831 138.481 143.187 138.457C142.765 138.377 142.765 138.377 142.264 137.974C141.616 136.649 142.124 135.139 142.423 133.763C142.483 133.463 142.483 133.463 142.544 133.157C142.957 131.237 142.957 131.237 143.741 130.565C144.245 130.334 144.708 130.149 145.231 129.979C146.339 129.595 147.366 129.175 148.388 128.589C148.987 128.349 149.347 128.328 149.991 128.416C150.57 128.693 151.095 129.036 151.627 129.393C151.771 129.486 151.915 129.579 152.063 129.675C152.415 129.904 152.766 130.136 153.116 130.369C153.337 130.187 153.556 130.004 153.775 129.82C153.898 129.718 154.02 129.616 154.146 129.511C154.527 129.181 154.527 129.181 154.874 128.611C154.733 128.399 154.592 128.187 154.447 127.969C154.264 127.687 154.08 127.405 153.898 127.122C153.804 126.983 153.711 126.844 153.615 126.7C153.091 125.883 152.746 125.314 152.921 124.315C153.112 123.834 153.309 123.393 153.544 122.935C154.03 121.96 154.42 121.011 154.752 119.969C155.144 118.935 155.144 118.935 155.626 118.579C156.093 118.414 156.533 118.335 157.023 118.26C157.483 118.152 157.943 118.042 158.402 117.93C158.788 117.844 159.175 117.758 159.562 117.674C159.562 116.9 159.562 116.127 159.562 115.33C159.317 115.278 159.072 115.226 158.82 115.173C158.498 115.103 158.175 115.034 157.853 114.964C157.611 114.913 157.611 114.913 157.364 114.861C157.13 114.81 157.13 114.81 156.891 114.758C156.748 114.727 156.605 114.697 156.457 114.665C155.383 114.362 155.383 114.362 155.045 113.78C154.96 113.553 154.96 113.553 154.874 113.321C154.81 113.153 154.745 112.985 154.679 112.812C154.614 112.636 154.55 112.46 154.484 112.278C154.354 111.934 154.224 111.59 154.093 111.245C153.998 110.993 153.998 110.993 153.901 110.736C153.713 110.278 153.498 109.853 153.263 109.417C152.921 108.74 152.778 108.287 152.921 107.518C153.201 106.941 153.541 106.415 153.898 105.882C153.991 105.738 154.084 105.594 154.18 105.446C154.409 105.094 154.641 104.743 154.874 104.393C154.692 104.172 154.509 103.953 154.325 103.734C154.223 103.611 154.121 103.489 154.016 103.363C153.686 102.982 153.686 102.982 153.116 102.635C152.904 102.776 152.692 102.917 152.474 103.062C152.192 103.245 151.909 103.429 151.627 103.611C151.488 103.705 151.349 103.798 151.205 103.894C150.388 104.419 149.817 104.771 148.819 104.588C148.258 104.376 147.73 104.116 147.196 103.843C146.296 103.398 145.431 102.971 144.461 102.696C143.631 102.4 143.437 102.188 142.96 101.463C142.756 100.804 142.756 100.804 142.618 100.096C142.571 99.8621 142.524 99.6285 142.475 99.3877C142.389 98.8269 142.353 98.3173 142.374 97.7521C141.923 97.7521 141.472 97.7521 141.007 97.7521C141.007 100.846 141.007 103.94 141.007 107.127C141.651 107.127 142.296 107.127 142.96 107.127C145.381 107.595 147.52 109.101 148.948 111.094C150.523 113.565 150.774 116.299 150.254 119.16C149.608 121.31 148.15 123.281 146.268 124.51C145.576 124.746 145.216 124.736 144.523 124.51C144.059 124.192 144.059 124.192 143.741 123.729C143.594 122.846 143.652 122.489 144.169 121.751C144.502 121.394 144.852 121.062 145.206 120.726C146.61 119.252 146.959 117.901 146.921 115.892C146.809 114.348 146.232 113.085 145.109 112.01C144.12 111.265 143.266 110.839 142.044 110.627C141.85 110.593 141.656 110.559 141.456 110.524C141.308 110.499 141.16 110.473 141.007 110.447C141.008 110.622 141.008 110.798 141.009 110.978C141.026 115.246 141.039 119.514 141.047 123.782C141.051 125.846 141.057 127.91 141.066 129.974C141.074 131.773 141.079 133.573 141.08 135.372C141.081 136.325 141.084 137.277 141.09 138.229C141.095 139.127 141.096 140.024 141.095 140.922C141.095 141.25 141.097 141.578 141.1 141.906C141.123 144.584 140.774 146.722 138.859 148.729C136.605 150.88 134.214 150.992 131.264 150.978C130.894 150.979 130.524 150.981 130.154 150.982C129.154 150.986 128.154 150.985 127.154 150.982C126.104 150.98 125.055 150.982 124.005 150.983C122.244 150.985 120.481 150.983 118.72 150.979C116.686 150.975 114.653 150.976 112.62 150.98C110.87 150.984 109.12 150.984 107.37 150.982C106.327 150.981 105.284 150.981 104.24 150.984C103.259 150.986 102.278 150.984 101.297 150.98C100.938 150.979 100.579 150.979 100.221 150.981C97.4515 150.993 95.2502 150.729 93.1554 148.729C91.1786 146.658 90.8904 144.451 90.9182 141.692C90.9186 141.382 90.9184 141.072 90.9179 140.761C90.9177 139.926 90.9223 139.09 90.9277 138.255C90.9327 137.379 90.9332 136.504 90.934 135.628C90.9365 133.973 90.9427 132.318 90.9507 130.662C90.9594 128.777 90.9638 126.891 90.9675 125.006C90.9759 121.129 90.9894 117.253 91.0069 113.377C90.7623 113.388 90.5175 113.4 90.2654 113.411C89.9429 113.421 89.6204 113.429 89.2979 113.438C89.1369 113.446 88.9757 113.454 88.8096 113.463C87.6079 113.487 87.6079 113.487 86.9977 112.911C86.7345 112.444 86.5709 112.079 86.4629 111.557C86.4302 111.404 86.3974 111.251 86.3637 111.094C86.333 110.937 86.3023 110.78 86.2706 110.618C86.22 110.381 86.22 110.381 86.1684 110.138C86.0373 109.509 85.9288 108.944 85.9288 108.299C85.7717 108.283 85.6146 108.267 85.4527 108.25C84.7018 108.092 84.1156 107.818 83.4378 107.467C82.8609 107.277 82.5991 107.321 82.0226 107.518C81.4484 107.881 80.8968 108.258 80.3498 108.66C79.4376 109.288 78.8327 109.405 77.7257 109.275C77.3274 109.072 77.3274 109.072 77.0177 108.763C76.8918 108.639 76.7659 108.516 76.6362 108.389C76.4801 108.23 76.324 108.072 76.1632 107.908C75.9328 107.691 75.7018 107.474 75.4704 107.257C75.2209 107.019 74.9717 106.78 74.7228 106.541C74.6018 106.428 74.4808 106.314 74.3561 106.197C73.6047 105.459 73.2004 104.884 73.0382 103.807C73.1229 103.407 73.1229 103.407 73.3189 103.074C73.392 102.945 73.465 102.816 73.5402 102.683C73.7503 102.353 73.9659 102.026 74.1841 101.702C74.3722 101.42 74.3722 101.42 74.5641 101.133C74.7472 100.872 74.7472 100.872 74.9341 100.606C75.2411 99.9858 75.2068 99.7666 74.9913 99.1191C74.7992 98.6116 74.5872 98.1154 74.3741 97.6162C74.2101 97.166 74.2101 97.166 74.2101 96.5802C74.0968 96.5596 73.9836 96.5389 73.867 96.5177C73.3503 96.4225 72.8341 96.3243 72.318 96.2262C72.1398 96.1937 71.9617 96.1614 71.7782 96.1281C69.8758 95.7614 69.8758 95.7614 69.1319 95.0177C69.1074 94.5037 69.0951 93.9952 69.0923 93.481C69.0912 93.3266 69.09 93.1723 69.0889 93.0133C69.087 92.6858 69.0858 92.3585 69.085 92.031C69.0831 91.53 69.0771 91.0289 69.0709 90.5277C69.0696 90.2102 69.0686 89.8925 69.0679 89.5748C69.0654 89.4248 69.063 89.2746 69.0605 89.1198C69.0648 88.0921 69.0648 88.0921 69.3701 87.611C69.796 87.3531 70.1727 87.2402 70.6586 87.1296C70.84 87.0875 71.0214 87.0454 71.2083 87.0019C71.3972 86.9602 71.5862 86.9185 71.7809 86.8756C71.9706 86.8316 72.1603 86.7877 72.3557 86.7425C73.7489 86.4239 73.7489 86.4239 74.2101 86.4239C74.2342 86.1883 74.2342 86.1883 74.2589 85.9479C74.417 85.1968 74.6913 84.6106 75.0417 83.9329C75.2323 83.3558 75.1863 83.095 74.9913 82.5177C74.7089 82.0483 74.4228 81.6002 74.1124 81.1504C73.0485 79.6089 73.0485 79.6089 73.0382 78.8066C73.5899 77.5291 74.4585 76.7 75.4308 75.7306C75.5937 75.5621 75.7566 75.3937 75.9244 75.2202C77.4941 73.6455 77.4941 73.6455 78.7023 73.5333C79.2012 73.6676 79.2012 73.6676 79.6544 73.9239C79.9025 74.0606 79.9025 74.0606 80.1557 74.2001C80.7941 74.5958 81.4045 75.0237 82.002 75.4787C82.5534 75.7508 82.8091 75.6664 83.3898 75.4864C83.8974 75.2944 84.3936 75.0823 84.8927 74.8691C85.3429 74.7052 85.3429 74.7052 85.9288 74.7052C85.9502 74.5609 85.9716 74.4166 85.9937 74.268C86.5534 70.6868 86.5534 70.6868 87.1632 69.8658C87.6996 69.4754 88.1825 69.5228 88.8265 69.5469C89.2492 69.627 89.2492 69.627 89.7496 70.0299C90.4044 71.3679 89.8777 72.8699 89.5665 74.2535C89.5232 74.455 89.4798 74.6566 89.4352 74.8641C89.0344 76.681 89.0344 76.681 88.6632 77.2441C88.285 77.4639 88.285 77.4639 87.8254 77.6348C87.5736 77.7314 87.5736 77.7314 87.3167 77.8302C87.1407 77.8946 86.9646 77.9591 86.7833 78.0254C86.4387 78.155 86.0944 78.2852 85.7503 78.416C85.5823 78.4796 85.4143 78.5429 85.2412 78.6083C84.7829 78.796 84.3575 79.0108 83.9223 79.2462C83.2445 79.5879 82.7917 79.731 82.0226 79.5879C81.4455 79.3079 80.9194 78.9677 80.3868 78.6114C80.2431 78.5183 80.0993 78.4252 79.9512 78.3291C79.5984 78.1 79.2478 77.8677 78.8976 77.6348C78.6771 77.8171 78.4575 78.0004 78.2384 78.1841C78.116 78.2862 77.9937 78.3881 77.8676 78.4931C77.487 78.8229 77.487 78.8229 77.1398 79.3927C77.2807 79.6046 77.4217 79.8166 77.567 80.035C77.7502 80.3173 77.9333 80.5996 78.1163 80.8819C78.2095 81.0212 78.3026 81.1604 78.3986 81.3037C78.9233 82.1208 79.2682 82.69 79.0929 83.6896C78.9017 84.1704 78.705 84.611 78.4703 85.0689C77.9849 86.0439 77.5891 86.9971 77.2496 88.0352C76.8563 89.0662 76.8563 89.0662 76.4378 89.4254C76.0182 89.5979 75.6353 89.6716 75.1866 89.7441C74.6983 89.8541 74.2101 89.9639 73.7218 90.0737C73.2988 90.1604 72.8758 90.2462 72.4523 90.3302C72.4523 91.1035 72.4523 91.8771 72.4523 92.6739C72.697 92.7258 72.9417 92.7777 73.1938 92.831C73.5163 92.9008 73.8388 92.9704 74.1612 93.0402C74.3224 93.0741 74.4835 93.1081 74.6495 93.1431C74.8056 93.1771 74.9617 93.211 75.1225 93.246C75.2657 93.2769 75.4089 93.3075 75.5565 93.3391C76.6308 93.6423 76.6308 93.6423 76.9689 94.2239C77.0253 94.3756 77.0817 94.5273 77.1398 94.6835C77.2364 94.9354 77.2364 94.9354 77.3351 95.1925C77.3995 95.3683 77.464 95.5443 77.5304 95.7256C77.6599 96.0702 77.7901 96.4146 77.921 96.7587C77.9844 96.9266 78.0479 97.0948 78.1133 97.2677C78.301 97.726 78.5157 98.1514 78.7511 98.5866C79.0929 99.2646 79.236 99.7173 79.0929 100.486C78.8128 101.064 78.4726 101.59 78.1163 102.122C77.9766 102.338 77.9766 102.338 77.834 102.558C77.605 102.911 77.3727 103.261 77.1398 103.611C77.3219 103.832 77.5053 104.051 77.6891 104.271C77.791 104.393 77.893 104.515 77.9981 104.641C78.3277 105.022 78.3277 105.022 78.8976 105.369C79.1095 105.228 79.3215 105.087 79.54 104.942C79.8222 104.759 80.1044 104.576 80.3868 104.393C80.5957 104.253 80.5957 104.253 80.8087 104.11C81.6257 103.586 82.1951 103.24 83.1944 103.416C83.6833 103.611 84.1323 103.812 84.5983 104.051C85.6561 104.574 86.6951 105.008 87.8292 105.346C88.435 105.645 88.69 105.974 89.0538 106.541C89.2584 107.2 89.2584 107.2 89.3957 107.908C89.4429 108.142 89.4902 108.376 89.539 108.616C89.6248 109.177 89.6611 109.687 89.6398 110.252C90.0909 110.252 90.5421 110.252 91.0069 110.252C91.0069 107.158 91.0069 104.065 91.0069 100.877C90.3623 100.877 89.7179 100.877 89.0538 100.877C86.6332 100.409 84.4937 98.9027 83.0663 96.9098C81.4911 94.4389 81.2399 91.7052 81.7601 88.8439C82.4197 86.6493 83.8774 84.9271 85.6236 83.4941C86.3967 83.1925 86.8786 83.2987 87.6867 83.4941C88.2609 83.9429 88.2752 84.2887 88.419 85.0079C88.3998 85.5864 88.3186 85.7883 87.92 86.2179C87.6107 86.4754 87.2982 86.7294 86.9832 86.9802C85.9722 87.8873 85.2019 89.2041 85.101 90.5689C85.0643 92.47 85.2901 93.8454 86.3439 95.4571C87.4348 96.5006 88.4788 97.1189 89.9704 97.3773C90.1644 97.4112 90.3584 97.4452 90.5582 97.4802C90.7063 97.5054 90.8544 97.5306 91.0069 97.5566C91.0063 97.3816 91.0054 97.2064 91.0048 97.0258C90.9875 92.7581 90.9746 88.4902 90.9665 84.2223C90.9625 82.1583 90.9569 80.0944 90.9479 78.0304C90.9402 76.2308 90.9352 74.4314 90.9334 72.6319C90.9323 71.6796 90.93 70.7273 90.9244 69.775C90.919 68.8774 90.9173 67.9799 90.9186 67.0823C90.9184 66.7541 90.9169 66.4258 90.9138 66.0976C90.8904 63.42 91.2402 61.2817 93.1554 59.2755C95.4092 57.124 97.7996 57.0117 100.75 57.026ZM95.5717 61.7444C94.3271 63.1237 94.1079 64.4644 94.1069 66.2989C94.1065 66.4317 94.1061 66.5644 94.1059 66.7011C94.1048 67.1456 94.1054 67.5901 94.1059 68.0346C94.1054 68.3566 94.105 68.6786 94.1044 69.0006C94.1034 69.8853 94.1034 70.77 94.1036 71.6547C94.1036 72.6089 94.1025 73.5631 94.1015 74.5174C94.1 76.3869 94.0994 78.2562 94.0994 80.1256C94.0992 81.645 94.0988 83.1646 94.0982 84.6839C94.0965 88.9914 94.0957 93.2989 94.0957 97.6062C94.0957 97.8385 94.0957 98.0708 94.0957 98.31C94.0957 98.5425 94.0959 98.775 94.0959 99.0146C94.0959 102.783 94.094 106.552 94.0913 110.321C94.0884 114.19 94.0871 118.059 94.0873 121.929C94.0873 124.101 94.0867 126.274 94.0846 128.446C94.0829 130.296 94.0825 132.145 94.0838 133.995C94.0844 134.939 94.0844 135.882 94.0827 136.826C94.0813 137.69 94.0815 138.554 94.0832 139.418C94.0836 139.731 94.0832 140.043 94.0821 140.355C94.0171 143.362 94.0171 143.362 95.3038 145.994C96.7904 147.47 98.1759 147.775 100.254 147.778C100.394 147.779 100.534 147.779 100.678 147.78C101.145 147.781 101.613 147.781 102.08 147.78C102.416 147.781 102.752 147.782 103.088 147.782C103.999 147.784 104.91 147.785 105.822 147.785C106.391 147.785 106.961 147.785 107.531 147.786C109.52 147.788 111.509 147.788 113.498 147.788C115.35 147.788 117.202 147.79 119.054 147.793C120.645 147.796 122.237 147.797 123.829 147.797C124.779 147.797 125.728 147.797 126.678 147.799C127.572 147.801 128.466 147.801 129.359 147.8C129.687 147.8 130.014 147.8 130.341 147.801C133.42 147.881 133.42 147.881 136.124 146.58C137.576 145.118 137.906 143.751 137.907 141.705C137.908 141.506 137.908 141.506 137.908 141.303C137.909 140.859 137.909 140.414 137.908 139.97C137.908 139.647 137.909 139.326 137.909 139.004C137.911 138.119 137.911 137.234 137.91 136.349C137.91 135.395 137.911 134.441 137.912 133.487C137.914 131.617 137.914 129.748 137.915 127.879C137.915 126.359 137.915 124.84 137.916 123.32C137.917 119.013 137.918 114.705 137.918 110.398C137.918 110.166 137.918 109.933 137.918 109.694C137.918 109.345 137.918 109.345 137.918 108.99C137.918 105.221 137.92 101.452 137.923 97.6831C137.925 93.8139 137.927 89.9448 137.927 86.0754C137.926 83.9029 137.927 81.7304 137.929 79.5581C137.931 77.7083 137.931 75.8587 137.93 74.0092C137.929 73.0655 137.929 72.1219 137.931 71.1783C137.933 70.3141 137.932 69.4499 137.931 68.5857C137.93 68.2734 137.931 67.9612 137.932 67.6489C137.997 64.6419 137.997 64.6419 136.71 62.0099C135.224 60.5339 133.838 60.2286 131.76 60.2259C131.55 60.2252 131.55 60.2252 131.336 60.2246C130.868 60.2234 130.401 60.2235 129.934 60.2237C129.598 60.2231 129.262 60.2224 128.926 60.2217C128.015 60.22 127.103 60.2195 126.192 60.2194C125.623 60.2192 125.053 60.2188 124.483 60.2183C122.494 60.2165 120.505 60.2157 118.516 60.2159C116.664 60.216 114.812 60.2139 112.96 60.2108C111.369 60.2083 109.777 60.2072 108.185 60.2073C107.235 60.2074 106.285 60.2068 105.336 60.2048C104.442 60.2029 103.548 60.2029 102.654 60.2043C102.327 60.2045 102 60.204 101.673 60.2029C98.3544 60.1232 98.3544 60.1232 95.5717 61.7444Z" fill="black"/>
<path d="M124.188 96.0782C125.798 96.5026 127.361 98.7248 128.521 99.8884C128.886 100.255 129.252 100.62 129.619 100.985C129.851 101.218 130.084 101.451 130.316 101.684C130.426 101.793 130.535 101.902 130.648 102.014C131.309 102.679 131.598 102.986 131.727 103.926C131.684 105.751 129.157 107.478 127.928 108.703C127.561 109.068 127.196 109.434 126.831 109.801C126.598 110.033 126.365 110.266 126.133 110.499C126.023 110.608 125.914 110.717 125.802 110.83C124.834 111.793 124.834 111.793 123.841 111.873C123.264 111.861 123.057 111.824 122.547 111.519C122.216 110.967 122.108 110.527 122.143 109.882C122.278 109.379 122.474 109.14 122.825 108.757C123.011 108.554 123.011 108.554 123.2 108.347C123.975 107.535 124.765 106.741 125.563 105.952C125.733 105.782 125.904 105.612 126.08 105.437C126.497 105.022 126.915 104.608 127.333 104.194C127.024 103.434 126.505 102.929 125.928 102.368C125.829 102.27 125.731 102.173 125.629 102.072C125.315 101.761 124.999 101.452 124.684 101.143C124.368 100.832 124.051 100.521 123.736 100.209C123.54 100.015 123.344 99.8226 123.147 99.6301C122.483 98.9753 122.27 98.7248 122.193 97.7734C122.205 97.1963 122.241 96.9892 122.547 96.4794C123.1 96.1476 123.541 96.0382 124.188 96.0782Z" fill="black"/>
<path d="M108.969 96.1873C109.457 96.4802 109.457 96.4802 109.75 96.9685C109.893 97.7489 109.963 98.2212 109.506 98.8852C109.344 99.0618 109.344 99.0618 109.179 99.242C109.056 99.3773 108.932 99.5125 108.804 99.6518C108.03 100.463 107.239 101.257 106.442 102.047C106.271 102.217 106.1 102.386 105.924 102.562C105.507 102.976 105.09 103.391 104.672 103.804C104.98 104.564 105.499 105.069 106.077 105.631C106.175 105.729 106.274 105.826 106.375 105.927C106.69 106.238 107.005 106.547 107.321 106.856C107.637 107.167 107.953 107.478 108.268 107.79C108.464 107.983 108.661 108.176 108.858 108.369C109.522 109.023 109.734 109.274 109.811 110.225C109.8 110.802 109.763 111.01 109.457 111.519C108.904 111.851 108.464 111.961 107.817 111.92C106.207 111.496 104.643 109.274 103.484 108.11C103.118 107.744 102.752 107.379 102.386 107.014C102.153 106.781 101.921 106.548 101.688 106.315C101.579 106.206 101.469 106.097 101.357 105.985C100.695 105.32 100.407 105.013 100.277 104.073C100.32 102.248 102.848 100.521 104.077 99.2958C104.443 98.9306 104.808 98.5643 105.174 98.1979C105.406 97.9654 105.639 97.7327 105.872 97.5002C105.981 97.3908 106.09 97.2814 106.203 97.1685C107.099 96.2779 107.69 96.0129 108.969 96.1873Z" fill="black"/>
<path d="M117.968 96.1143C118.34 96.1868 118.34 96.1868 118.828 96.4674C119.694 97.9474 118.859 100.025 118.465 101.562C118.397 101.833 118.329 102.105 118.26 102.376C118.118 102.942 117.974 103.507 117.829 104.073C117.644 104.796 117.463 105.52 117.283 106.244C117.143 106.804 117.001 107.363 116.858 107.922C116.791 108.188 116.724 108.456 116.658 108.723C116.565 109.096 116.468 109.468 116.372 109.84C116.318 110.052 116.264 110.263 116.209 110.481C115.972 111.092 115.717 111.398 115.215 111.812C114.464 112.011 113.832 111.915 113.164 111.531C112.298 110.051 113.133 107.974 113.527 106.437C113.596 106.165 113.664 105.894 113.732 105.622C113.874 105.056 114.018 104.491 114.163 103.926C114.349 103.203 114.53 102.479 114.71 101.754C114.849 101.195 114.991 100.636 115.134 100.077C115.202 99.8099 115.269 99.5429 115.335 99.2756C115.428 98.9024 115.524 98.5304 115.621 98.1583C115.674 97.9468 115.728 97.7351 115.784 97.5172C116.22 96.3901 116.814 96.0433 117.968 96.1143Z" fill="black"/>
<path d="M111.618 63.277C111.834 63.2745 112.05 63.2721 112.273 63.2695C112.506 63.2711 112.739 63.2727 112.979 63.2743C113.219 63.2736 113.458 63.2728 113.705 63.2721C114.213 63.2715 114.719 63.273 115.227 63.2762C116.003 63.2804 116.78 63.2763 117.557 63.2713C118.049 63.2718 118.541 63.2728 119.034 63.2743C119.266 63.2727 119.499 63.2712 119.739 63.2695C120.063 63.2732 120.063 63.2732 120.395 63.277C120.585 63.2776 120.775 63.2782 120.971 63.2789C121.616 63.4058 121.849 63.6545 122.256 64.1593C122.36 64.5499 122.36 64.5499 122.354 64.9406C122.357 65.1339 122.357 65.1339 122.36 65.3312C122.208 65.9014 121.926 66.1307 121.475 66.5031C120.971 66.6023 120.971 66.6023 120.395 66.6042C120.178 66.6066 119.962 66.6091 119.739 66.6116C119.506 66.6101 119.273 66.6085 119.034 66.6068C118.674 66.6079 118.674 66.6079 118.307 66.6091C117.8 66.6096 117.293 66.6082 116.786 66.6049C116.009 66.6007 115.233 66.6049 114.456 66.6099C113.964 66.6094 113.471 66.6084 112.979 66.6068C112.746 66.6084 112.513 66.61 112.273 66.6116C111.949 66.6079 111.949 66.6079 111.618 66.6042C111.428 66.6036 111.237 66.6029 111.041 66.6023C110.397 66.4753 110.163 66.2266 109.756 65.7218C109.652 65.3312 109.652 65.3312 109.659 64.9406C109.655 64.7472 109.655 64.7472 109.652 64.5499C109.923 63.5309 110.65 63.2802 111.618 63.277Z" fill="black"/>
<path d="M83.7752 134.86C84.3367 135.141 84.3367 135.141 84.7518 135.641C84.9299 136.485 84.9082 137.158 84.4344 137.887C83.8594 138.25 83.4797 138.362 82.7986 138.375C82.3441 138.153 81.9845 137.952 81.6268 137.594C81.5426 136.934 81.5345 136.301 81.6268 135.641C82.2493 134.872 82.8059 134.698 83.7752 134.86Z" fill="black"/>
<path d="M83.7752 128.61C84.3367 128.891 84.3367 128.891 84.7518 129.391C84.9299 130.235 84.9082 130.908 84.4344 131.637C83.8594 132 83.4797 132.112 82.7986 132.125C82.3441 131.903 81.9845 131.702 81.6268 131.344C81.5426 130.684 81.5345 130.051 81.6268 129.391C82.2493 128.622 82.8059 128.448 83.7752 128.61Z" fill="black"/>
<path d="M83.7752 122.36C84.3367 122.641 84.3367 122.641 84.7518 123.141C84.9299 123.985 84.9082 124.658 84.4344 125.387C83.8594 125.75 83.4797 125.862 82.7986 125.875C82.3441 125.653 81.9845 125.452 81.6268 125.094C81.5426 124.434 81.5345 123.801 81.6268 123.141C82.2493 122.372 82.8059 122.198 83.7752 122.36Z" fill="black"/>
<path d="M149.599 82.1261C150.087 82.4192 150.087 82.4192 150.38 82.9073C150.495 83.8094 150.492 84.2459 150.087 85.0559C149.493 85.5311 149.166 85.5496 148.427 85.538C147.906 85.4159 147.634 85.2384 147.255 84.8605C147.058 83.9936 147.106 83.1671 147.548 82.3946C148.242 82.0128 148.824 81.9738 149.599 82.1261Z" fill="black"/>
<path d="M149.599 75.8761C150.087 76.1692 150.087 76.1692 150.38 76.6573C150.495 77.5594 150.492 77.9959 150.087 78.8059C149.493 79.2811 149.166 79.2996 148.427 79.288C147.906 79.1659 147.634 78.9884 147.255 78.6105C147.058 77.7436 147.106 76.9171 147.548 76.1446C148.242 75.7628 148.824 75.7238 149.599 75.8761Z" fill="black"/>
<path d="M149.599 69.6261C150.087 69.9191 150.087 69.9191 150.38 70.4074C150.495 71.3095 150.492 71.7459 150.087 72.5558C149.493 73.0311 149.166 73.0496 148.427 73.038C147.906 72.9159 147.634 72.7384 147.255 72.3605C147.058 71.4937 147.106 70.6671 147.548 69.8947C148.242 69.5127 148.824 69.4738 149.599 69.6261Z" fill="black"/>
</svg>
