<svg width="165" height="154" viewBox="0 0 165 154" fill="none" xmlns="http://www.w3.org/2000/svg">
<circle cx="52.5" cy="52" r="52" fill="#C6E8FF"/>
<path d="M30.62 51.04C30.62 46.4267 31.4467 42.8133 33.1 40.2C34.78 37.5867 37.5533 36.28 41.42 36.28C45.2867 36.28 48.0467 37.5867 49.7 40.2C51.38 42.8133 52.22 46.4267 52.22 51.04C52.22 55.68 51.38 59.32 49.7 61.96C48.0467 64.6 45.2867 65.92 41.42 65.92C37.5533 65.92 34.78 64.6 33.1 61.96C31.4467 59.32 30.62 55.68 30.62 51.04ZM46.7 51.04C46.7 49.0667 46.5667 47.4133 46.3 46.08C46.06 44.72 45.5533 43.6133 44.78 42.76C44.0333 41.9067 42.9133 41.48 41.42 41.48C39.9267 41.48 38.7933 41.9067 38.02 42.76C37.2733 43.6133 36.7667 44.72 36.5 46.08C36.26 47.4133 36.14 49.0667 36.14 51.04C36.14 53.0667 36.26 54.7733 36.5 56.16C36.74 57.52 37.2467 58.6267 38.02 59.48C38.7933 60.3067 39.9267 60.72 41.42 60.72C42.9133 60.72 44.0467 60.3067 44.82 59.48C45.5933 58.6267 46.1 57.52 46.34 56.16C46.58 54.7733 46.7 53.0667 46.7 51.04ZM76.0794 41.68H63.1194V48.52C63.6794 47.8267 64.4794 47.2667 65.5194 46.84C66.5594 46.3867 67.666 46.16 68.8394 46.16C70.9727 46.16 72.7194 46.6267 74.0794 47.56C75.4394 48.4933 76.426 49.6933 77.0394 51.16C77.6527 52.6 77.9594 54.1467 77.9594 55.8C77.9594 58.8667 77.0794 61.3333 75.3194 63.2C73.586 65.0667 71.106 66 67.8794 66C64.8394 66 62.4127 65.24 60.5994 63.72C58.786 62.2 57.7594 60.2133 57.5194 57.76H62.9594C63.1994 58.8267 63.7327 59.68 64.5594 60.32C65.4127 60.96 66.4927 61.28 67.7994 61.28C69.3727 61.28 70.5594 60.7867 71.3594 59.8C72.1594 58.8133 72.5594 57.5067 72.5594 55.88C72.5594 54.2267 72.146 52.9733 71.3194 52.12C70.5194 51.24 69.3327 50.8 67.7594 50.8C66.6394 50.8 65.706 51.08 64.9594 51.64C64.2127 52.2 63.6794 52.9467 63.3594 53.88H57.9994V36.76H76.0794V41.68Z" fill="black"/>
<g clip-path="url(#clip0_66_1135)">
<path d="M111.484 94.6235C112.341 95.2529 112.627 96.1553 112.997 97.1137C113.059 97.2686 113.121 97.4234 113.184 97.5829C113.335 97.9629 113.484 98.3439 113.632 98.7251C114.663 98.7895 115.694 98.854 116.757 98.9204C116.878 98.5457 116.878 98.5457 117.001 98.1635C117.233 97.4767 117.469 96.7921 117.721 96.1128C117.78 95.9541 117.838 95.7955 117.898 95.6321C118.177 95.1106 118.38 94.8993 118.905 94.6235C120.186 94.4839 121.137 94.9064 122.301 95.4078C122.493 95.4883 122.684 95.5688 122.881 95.6518C123.284 95.822 123.686 95.9935 124.088 96.1661C124.702 96.4296 125.319 96.6884 125.936 96.9466C126.327 97.1129 126.719 97.2795 127.111 97.4464C127.387 97.5621 127.387 97.5621 127.668 97.6801C129.311 98.3913 129.311 98.3913 129.843 99.1157C130.099 100.499 129.501 101.554 128.908 102.774C128.655 103.455 128.61 103.719 128.866 104.389C129.141 104.8 129.141 104.8 129.501 105.146C129.615 105.266 129.729 105.387 129.846 105.511C130.222 105.802 130.222 105.802 130.69 105.728C131.293 105.534 131.871 105.304 132.455 105.061C134.186 104.391 134.186 104.391 135.116 104.584C136.074 105.358 136.432 106.215 136.858 107.331C136.925 107.501 136.992 107.67 137.061 107.845C137.274 108.385 137.483 108.926 137.692 109.467C137.835 109.831 137.977 110.195 138.12 110.558C138.439 111.368 138.755 112.179 139.069 112.991C139.194 113.311 139.324 113.629 139.455 113.946C139.728 114.663 139.581 115.171 139.413 115.913C138.781 116.529 137.964 116.805 137.155 117.121C137.024 117.174 136.892 117.228 136.757 117.282C136.181 117.51 135.741 117.67 135.116 117.67C135.116 118.702 135.116 119.733 135.116 120.795C135.358 120.868 135.6 120.94 135.849 121.015C138.876 122.045 138.876 122.045 139.621 123.151C139.609 123.918 139.49 124.315 139.211 125.017C139.122 125.243 139.033 125.468 138.941 125.7C138.838 125.953 138.735 126.206 138.632 126.459C138.577 126.595 138.522 126.73 138.466 126.869C138.103 127.758 137.734 128.644 137.36 129.529C137.23 129.837 137.102 130.146 136.974 130.455C136.787 130.909 136.596 131.361 136.404 131.813C136.32 132.019 136.32 132.019 136.235 132.23C135.871 133.074 135.505 133.583 134.726 134.077C133.684 134.25 132.962 133.85 132.065 133.381C131.177 132.885 131.177 132.885 130.195 132.716C129.714 132.974 129.389 133.304 129.013 133.698C128.875 133.841 128.737 133.985 128.595 134.132C128.491 134.243 128.387 134.353 128.28 134.467C128.363 134.679 128.445 134.891 128.53 135.11C128.638 135.392 128.746 135.674 128.854 135.957C128.908 136.096 128.963 136.235 129.019 136.378C129.794 138.415 129.794 138.415 129.428 139.289C128.682 140.209 127.554 140.572 126.486 141.011C126.334 141.074 126.181 141.138 126.024 141.203C125.54 141.404 125.055 141.604 124.569 141.804C124.243 141.939 123.917 142.074 123.591 142.209C122.746 142.559 121.9 142.909 121.054 143.256C120.868 143.333 120.683 143.41 120.491 143.489C119.788 143.757 119.266 143.718 118.515 143.647C117.657 143.018 117.371 142.115 117.001 141.157C116.909 140.924 116.909 140.924 116.814 140.687C116.663 140.307 116.515 139.927 116.366 139.545C115.4 139.545 114.433 139.545 113.437 139.545C113.333 139.792 113.229 140.039 113.122 140.294C112.983 140.618 112.844 140.942 112.704 141.267C112.636 141.429 112.568 141.592 112.498 141.76C112.43 141.917 112.362 142.073 112.292 142.235C112.231 142.379 112.17 142.523 112.106 142.672C111.815 143.159 111.596 143.377 111.093 143.647C109.825 143.826 108.837 143.354 107.697 142.863C107.506 142.782 107.314 142.702 107.117 142.619C106.715 142.448 106.312 142.277 105.91 142.104C105.296 141.841 104.68 141.582 104.063 141.324C103.671 141.157 103.279 140.991 102.888 140.824C102.704 140.747 102.52 140.67 102.33 140.59C100.687 139.879 100.687 139.879 100.155 139.155C99.8992 137.771 100.497 136.716 101.09 135.496C101.341 134.821 101.378 134.548 101.132 133.881C100.38 133.007 100.38 133.007 99.3742 132.514C98.8323 132.711 98.3486 132.918 97.8361 133.173C96.0623 134.049 96.0623 134.049 95.0773 133.881C94.0375 133.253 93.7476 132.436 93.3355 131.349C93.2685 131.179 93.2014 131.009 93.1323 130.834C92.9194 130.292 92.7104 129.749 92.5016 129.206C92.3591 128.841 92.2163 128.477 92.0732 128.112C91.7547 127.3 91.4389 126.486 91.125 125.671C91.0004 125.351 90.8715 125.032 90.7416 124.714C90.4712 124.018 90.5142 123.493 90.5851 122.748C91.2145 121.891 92.1169 121.605 93.0754 121.235C93.3076 121.142 93.3076 121.142 93.5446 121.048C93.9246 120.897 94.3055 120.748 94.6867 120.6C94.7511 119.569 94.8156 118.538 94.882 117.475C94.5194 117.366 94.5194 117.366 94.1496 117.255C91.1348 116.249 91.1348 116.249 90.3898 115.131C90.3034 113.78 90.8576 112.552 91.3885 111.343C91.4687 111.156 91.549 110.969 91.6316 110.776C91.8007 110.384 91.971 109.993 92.1424 109.601C92.4044 109.002 92.6613 108.402 92.9178 107.8C93.0832 107.418 93.2489 107.037 93.4149 106.655C93.4914 106.476 93.5679 106.296 93.6468 106.111C93.7204 105.945 93.794 105.779 93.8698 105.607C93.9652 105.388 93.9652 105.388 94.0625 105.165C94.3422 104.704 94.6191 104.474 95.0773 104.194C96.3118 104.023 97.2017 104.457 98.2878 104.975C98.53 105.087 98.53 105.087 98.7772 105.201C99.1726 105.384 99.5668 105.569 99.9601 105.756C100.012 105.637 100.063 105.518 100.117 105.395C100.351 104.975 100.351 104.975 100.973 104.511C101.155 104.342 101.336 104.173 101.523 103.998C101.457 102.89 100.982 101.927 100.557 100.916C100.337 100.245 100.239 99.8148 100.351 99.1157C101.116 98.1727 101.957 97.804 103.055 97.3739C103.303 97.2733 103.303 97.2733 103.556 97.1707C104.082 96.9581 104.609 96.749 105.136 96.54C105.49 96.3974 105.845 96.2546 106.199 96.1116C106.988 95.7933 107.778 95.4771 108.57 95.1634C108.886 95.0375 109.201 94.909 109.515 94.7799C110.213 94.5108 110.737 94.5524 111.484 94.6235ZM107.469 99.2094C107.216 99.3095 106.963 99.4084 106.709 99.506C106.344 99.6467 105.981 99.7916 105.618 99.9366C105.399 100.023 105.181 100.108 104.955 100.197C104.431 100.431 104.431 100.431 104.27 100.874C104.251 101.462 104.483 101.871 104.733 102.399C105.125 103.3 105.416 103.98 105.234 104.975C104.746 105.787 104.014 106.338 103.3 106.946C102.75 107.446 102.279 107.997 101.805 108.569C101.347 109.076 101.127 109.077 100.424 109.125C99.526 109.114 98.8203 108.85 98.007 108.491C97.808 108.407 97.808 108.407 97.6049 108.321C97.2822 108.185 96.9608 108.045 96.6398 107.905C96.3 108.672 95.9627 109.44 95.6277 110.209C95.5134 110.471 95.3984 110.732 95.2827 110.993C95.1166 111.368 94.9529 111.744 94.7897 112.12C94.6905 112.346 94.5913 112.572 94.489 112.805C94.2313 113.376 94.2313 113.376 94.4914 113.959C95.0066 114.211 95.5102 114.433 96.0417 114.643C96.3289 114.757 96.6156 114.873 96.9015 114.991C97.0291 115.041 97.1568 115.092 97.2883 115.144C97.6164 115.327 97.6164 115.327 98.007 115.913C98.0873 116.801 98.0796 117.692 98.0794 118.584C98.0802 119.023 98.0873 119.462 98.0947 119.901C98.0959 120.18 98.0967 120.46 98.097 120.74C98.0986 120.994 98.1002 121.248 98.1019 121.509C97.991 122.273 97.8344 122.487 97.2257 122.944C96.8681 123.14 96.8681 123.14 96.5086 123.276C96.3789 123.327 96.2493 123.377 96.1157 123.429C95.9825 123.478 95.8493 123.528 95.7121 123.579C95.5078 123.657 95.5078 123.657 95.2993 123.737C94.9656 123.865 94.6309 123.991 94.2961 124.116C94.4236 124.875 94.6487 125.542 94.9377 126.256C95.0252 126.473 95.1127 126.69 95.2028 126.914C95.2943 127.138 95.3858 127.363 95.4801 127.595C95.6185 127.937 95.6185 127.937 95.7598 128.287C95.9872 128.85 96.2155 129.413 96.4445 129.975C96.7208 129.885 96.997 129.794 97.273 129.703C97.4268 129.653 97.5806 129.603 97.7391 129.551C98.1714 129.4 98.5881 129.229 99.008 129.047C99.81 128.758 100.305 128.694 101.132 128.998C101.775 129.602 102.324 130.276 102.89 130.952C103.175 131.257 103.463 131.558 103.757 131.855C103.881 131.982 104.006 132.11 104.134 132.241C104.432 132.557 104.432 132.557 104.843 132.514C105.26 133.765 105.003 134.74 104.452 135.895C104.031 136.711 104.031 136.711 103.866 137.592C104.574 137.9 105.283 138.206 105.993 138.51C106.353 138.665 106.712 138.821 107.071 138.977C107.297 139.074 107.524 139.171 107.757 139.271C107.966 139.361 108.175 139.451 108.39 139.543C108.969 139.784 108.969 139.784 109.726 139.741C109.82 139.52 109.914 139.299 110.011 139.071C110.136 138.781 110.26 138.492 110.385 138.203C110.478 137.984 110.478 137.984 110.573 137.761C110.663 137.551 110.663 137.551 110.756 137.337C110.811 137.209 110.866 137.08 110.923 136.947C111.093 136.616 111.093 136.616 111.484 136.225C111.976 136.172 112.446 136.142 112.94 136.132C113.085 136.129 113.229 136.126 113.378 136.122C113.684 136.117 113.99 136.113 114.297 136.11C114.764 136.103 115.23 136.086 115.697 136.069C117.864 136.024 117.864 136.024 118.537 136.544C118.8 136.954 118.958 137.323 119.101 137.788C119.226 138.071 119.226 138.071 119.353 138.361C119.411 138.522 119.469 138.683 119.528 138.85C119.733 139.537 119.733 139.537 120.273 139.936C121.047 139.692 121.793 139.374 122.544 139.065C122.92 138.911 123.296 138.762 123.673 138.612C123.909 138.516 124.144 138.42 124.387 138.322C124.605 138.233 124.822 138.145 125.046 138.054C125.607 137.829 125.607 137.829 125.741 137.202C125.547 136.667 125.547 136.667 125.265 136.091C124.827 135.073 124.572 134.394 124.765 133.295C125.18 132.844 125.18 132.844 125.741 132.319C125.952 132.11 126.162 131.899 126.372 131.689C127.008 131.052 127.644 130.416 128.28 129.78C128.38 129.675 128.479 129.569 128.582 129.461C128.994 129.074 129.281 129.032 129.843 128.998C130.459 129.186 130.459 129.186 131.112 129.462C131.863 129.776 132.553 130.041 133.359 130.17C133.986 128.831 134.602 127.487 135.19 126.13C135.288 125.904 135.386 125.677 135.487 125.444C135.726 124.934 135.726 124.934 135.702 124.506C135.484 124.414 135.265 124.323 135.039 124.228C134.752 124.105 134.464 123.982 134.176 123.859C134.032 123.799 133.888 123.739 133.74 123.677C133.601 123.617 133.461 123.557 133.318 123.495C133.19 123.441 133.062 123.387 132.931 123.331C132.505 123.1 132.271 122.954 131.991 122.553C131.933 122.055 131.909 121.605 131.914 121.107C131.913 120.895 131.913 120.895 131.912 120.68C131.911 120.382 131.913 120.085 131.915 119.787C131.918 119.332 131.915 118.877 131.911 118.422C131.912 118.133 131.912 117.844 131.914 117.554C131.912 117.418 131.911 117.282 131.91 117.142C131.918 116.593 131.924 116.205 132.243 115.747C132.594 115.511 132.929 115.331 133.318 115.166C133.457 115.106 133.596 115.046 133.74 114.984C133.884 114.924 134.028 114.864 134.176 114.802C134.323 114.739 134.469 114.677 134.62 114.612C134.98 114.458 135.341 114.306 135.702 114.155C135.289 112.858 134.81 111.595 134.298 110.334C134.227 110.156 134.155 109.977 134.081 109.793C133.906 109.359 133.73 108.925 133.554 108.491C132.774 108.598 132.123 108.768 131.405 109.089C130.068 109.633 130.068 109.633 129.257 109.467C128.39 108.877 127.767 108.14 127.098 107.339C126.683 106.89 126.233 106.536 125.754 106.159C125.009 105.505 125.009 105.505 124.814 104.952C124.749 103.833 125.217 102.918 125.723 101.944C125.989 101.429 125.989 101.429 125.937 100.678C125.229 100.366 124.52 100.056 123.81 99.7495C123.45 99.5933 123.091 99.4348 122.732 99.2763C122.506 99.1787 122.279 99.0812 122.046 98.9806C121.837 98.8896 121.628 98.7986 121.413 98.7048C120.847 98.526 120.607 98.4607 120.077 98.7251C119.815 99.2435 119.598 99.7351 119.394 100.275C119.284 100.563 119.172 100.85 119.058 101.135C118.986 101.327 118.986 101.327 118.912 101.522C118.637 101.969 118.425 102.071 117.929 102.241C117.333 102.291 117.333 102.291 116.641 102.293C116.392 102.293 116.142 102.294 115.885 102.294C115.756 102.293 115.626 102.292 115.493 102.292C115.098 102.29 114.704 102.292 114.309 102.294C114.059 102.294 113.81 102.293 113.553 102.293C113.324 102.292 113.096 102.292 112.861 102.291C112.276 102.242 111.957 102.191 111.484 101.85C111.251 101.483 111.251 101.483 111.065 101.043C110.997 100.886 110.93 100.728 110.859 100.566C110.791 100.402 110.724 100.237 110.653 100.068C110.582 99.9019 110.511 99.736 110.438 99.5651C110.264 99.1558 110.091 98.7456 109.921 98.3344C109.133 98.3344 108.194 98.9202 107.469 99.2094Z" fill="black"/>
<path d="M90.9759 139.547C93.8929 142.081 95.9712 145.761 96.2929 149.644C96.3234 150.201 96.3394 150.757 96.347 151.315C96.3525 151.58 96.3525 151.58 96.358 151.851C96.3564 152.018 96.3548 152.184 96.3531 152.356C96.3522 152.504 96.3513 152.651 96.3504 152.804C96.2055 153.399 95.9427 153.618 95.4681 154.001C94.9105 154.099 94.9105 154.099 94.2523 154.1C94.0026 154.102 93.7529 154.104 93.4956 154.106C93.2192 154.105 92.9429 154.103 92.6666 154.102C92.3752 154.103 92.0839 154.104 91.7926 154.106C91.0016 154.109 90.2108 154.108 89.4198 154.105C88.5923 154.104 87.7648 154.105 86.9373 154.107C85.5476 154.108 84.1579 154.106 82.7682 154.102C81.1613 154.098 79.5544 154.1 77.9474 154.104C76.568 154.107 75.1886 154.108 73.8092 154.106C72.9853 154.105 72.1613 154.104 71.3373 154.107C70.5627 154.109 69.7881 154.108 69.0135 154.103C68.7291 154.102 68.4447 154.102 68.1603 154.104C67.7723 154.106 67.3843 154.103 66.9963 154.1C66.6706 154.099 66.6706 154.099 66.3382 154.099C65.6528 153.978 65.4227 153.761 64.9993 153.219C64.8983 152.804 64.8983 152.804 64.8956 152.356C64.8939 152.189 64.8923 152.023 64.8906 151.851C64.8943 151.674 64.8979 151.497 64.9017 151.315C64.9043 151.132 64.907 150.948 64.9097 150.759C65.0224 146.907 66.4926 143.552 69.1009 140.719C69.2061 140.596 69.3114 140.473 69.4198 140.346C75.0282 134.16 84.8376 134.648 90.9759 139.547ZM71.64 143.063C71.5158 143.183 71.3917 143.303 71.2638 143.426C69.3585 145.403 68.3197 148.175 68.3197 150.876C76.4408 150.876 84.5618 150.876 92.929 150.876C92.929 147.803 91.5965 144.919 89.4752 142.69C86.7324 140.215 83.5641 138.99 79.8736 139.097C76.6364 139.278 73.8812 140.794 71.64 143.063Z" fill="black"/>
<path d="M125.351 75.8756C128.268 78.4095 130.346 82.0895 130.668 85.9718C130.698 86.5294 130.714 87.0848 130.722 87.6431C130.727 87.9085 130.727 87.9085 130.733 88.1791C130.731 88.3457 130.73 88.5122 130.728 88.6838C130.727 88.8316 130.726 88.9795 130.725 89.1318C130.581 89.7276 130.318 89.9463 129.843 90.3287C129.286 90.427 129.286 90.427 128.627 90.4279C128.378 90.4301 128.128 90.4323 127.871 90.4346C127.594 90.433 127.318 90.4314 127.042 90.4298C126.75 90.4308 126.459 90.4322 126.168 90.4339C125.377 90.4375 124.586 90.4361 123.795 90.4336C122.967 90.4316 122.14 90.4335 121.312 90.4347C119.923 90.4361 118.533 90.4343 117.143 90.4305C115.536 90.4263 113.929 90.4277 112.322 90.432C110.943 90.4355 109.564 90.436 108.184 90.434C107.36 90.4327 106.536 90.4326 105.712 90.4352C104.938 90.4374 104.163 90.4359 103.388 90.4313C103.104 90.4303 102.82 90.4306 102.535 90.4323C102.147 90.4345 101.759 90.4313 101.371 90.4279C101.046 90.4274 101.046 90.4274 100.713 90.427C100.028 90.3062 99.7977 90.0888 99.3743 89.5474C99.2733 89.1318 99.2733 89.1318 99.2706 88.6838C99.2689 88.5173 99.2673 88.3508 99.2656 88.1792C99.2693 88.0023 99.2729 87.8254 99.2767 87.6431C99.2793 87.4598 99.282 87.2765 99.2847 87.0876C99.3974 83.2354 100.868 79.8803 103.476 77.0474C103.581 76.9243 103.686 76.8012 103.795 76.6744C109.403 70.4882 119.213 70.9765 125.351 75.8756ZM105.633 79.5888C104.875 80.4854 104.337 81.4875 103.805 82.5284C103.739 82.6574 103.673 82.7865 103.605 82.9194C102.878 84.4053 102.695 85.5237 102.695 87.2037C110.816 87.2037 118.937 87.2037 127.304 87.2037C127.304 84.1314 125.972 81.2474 123.85 79.0181C120.965 76.4154 117.68 75.2717 113.82 75.4569C110.634 75.6899 107.826 77.3302 105.633 79.5888Z" fill="black"/>
<path d="M122.422 108.491C123.137 109.026 123.76 109.605 124.376 110.249C124.499 110.369 124.622 110.488 124.749 110.611C127.061 112.999 127.975 116.468 127.931 119.706C127.707 123.652 126.024 126.616 123.135 129.217C120.116 131.703 116.64 132.186 112.852 131.929C109.521 131.457 106.48 129.414 104.477 126.754C102.388 123.645 101.627 120.155 102.342 116.475C103.12 113.249 104.83 110.322 107.637 108.453C112.374 105.58 117.7 105.564 122.422 108.491ZM107.425 113.167C105.607 115.399 105.217 118.016 105.43 120.796C105.848 123.361 107.332 125.585 109.414 127.115C111.876 128.673 114.493 129.211 117.357 128.584C120.027 127.837 121.98 126.292 123.445 123.964C124.691 121.69 125.021 118.948 124.351 116.426C124.239 116.121 124.117 115.82 123.985 115.522C123.909 115.349 123.832 115.175 123.754 114.996C122.561 112.57 120.533 110.8 117.991 109.895C113.905 108.678 110.24 110.111 107.425 113.167Z" fill="black"/>
<path d="M159.531 139.546C159.718 139.692 159.718 139.692 159.908 139.84C162.624 142.037 164.534 145.659 164.999 149.117C165.061 149.845 165.087 150.571 165.097 151.302C165.102 151.568 165.102 151.568 165.108 151.84C165.106 152.008 165.105 152.175 165.103 152.348C165.102 152.497 165.101 152.646 165.1 152.8C164.956 153.398 164.695 153.616 164.218 154C163.661 154.098 163.661 154.098 163.002 154.099C162.753 154.101 162.503 154.103 162.246 154.105C161.969 154.104 161.693 154.102 161.417 154.101C161.125 154.102 160.834 154.103 160.543 154.105C159.752 154.108 158.961 154.107 158.17 154.105C157.342 154.103 156.515 154.104 155.687 154.106C154.298 154.107 152.908 154.105 151.518 154.101C149.911 154.097 148.304 154.099 146.697 154.103C145.318 154.106 143.939 154.107 142.559 154.105C141.735 154.104 140.911 154.103 140.087 154.106C139.313 154.108 138.538 154.107 137.763 154.102C137.479 154.101 137.195 154.101 136.91 154.103C136.522 154.105 136.134 154.102 135.746 154.099C135.421 154.098 135.421 154.098 135.088 154.098C134.403 153.977 134.173 153.76 133.749 153.218C133.648 152.8 133.648 152.8 133.646 152.348C133.644 152.18 133.642 152.013 133.641 151.84C133.644 151.663 133.648 151.485 133.652 151.302C133.654 151.118 133.657 150.934 133.66 150.745C133.758 147.377 135.062 144.064 137.265 141.5C137.362 141.375 137.459 141.25 137.559 141.122C139.81 138.339 143.332 136.57 146.835 136.031C147.011 136.003 147.186 135.976 147.366 135.948C151.678 135.421 156.221 136.704 159.531 139.546ZM139.741 142.99C137.865 145.441 137.07 147.808 137.07 150.875C145.255 150.875 153.441 150.875 161.874 150.875C161.571 146.937 160.407 144.197 157.577 141.5C152.118 136.981 144.431 137.677 139.741 142.99Z" fill="black"/>
<path d="M87.0098 120.087C89.1411 122.507 89.775 124.789 89.6432 127.979C89.4745 130.178 88.2073 132.068 86.6314 133.552C84.5068 135.225 82.1121 135.849 79.4537 135.639C77.8126 135.392 76.5076 134.837 75.1568 133.881C74.9702 133.752 74.9702 133.752 74.7799 133.62C73.1042 132.332 72.0503 130.261 71.6412 128.217C71.3737 125.493 71.8295 122.96 73.5943 120.795C73.702 120.661 73.8098 120.527 73.9208 120.389C75.3816 118.756 77.4994 117.763 79.6619 117.504C82.5131 117.36 84.8737 118.2 87.0098 120.087ZM75.938 123.139C74.9188 124.609 74.5826 126.176 74.876 127.937C75.3308 129.652 76.5277 131.037 78.0338 131.934C79.3865 132.557 81.0806 132.547 82.5047 132.191C84.228 131.498 85.3384 130.338 86.1118 128.673C86.7406 127.062 86.5834 125.488 85.899 123.92C85.0052 122.431 83.9145 121.554 82.3101 120.93C79.6371 120.423 77.749 121.098 75.938 123.139Z" fill="black"/>
<path d="M120.054 55.3537C122.104 56.8139 123.438 58.7651 123.985 61.2253C124.179 64.4007 123.775 66.743 121.641 69.2331C120.11 70.909 117.859 71.8381 115.625 72.0094C113.321 72.0841 111.413 71.5401 109.532 70.2096C109.345 70.0805 109.345 70.0805 109.155 69.9487C107.479 68.6603 106.425 66.5891 106.016 64.5456C105.749 61.8213 106.205 59.2884 107.969 57.1237C108.077 56.9895 108.185 56.8553 108.296 56.7171C111.259 53.4061 116.414 53.0557 120.054 55.3537ZM110.704 58.8815C109.645 60.3042 108.988 61.7676 109.141 63.569C109.511 65.4632 110.415 66.903 112.008 68.0101C113.441 68.7885 114.88 68.9852 116.46 68.6044C118.186 68.0709 119.382 67.1204 120.3 65.529C120.965 64.0544 121.05 62.6566 120.53 61.1276C119.847 59.393 118.996 58.4103 117.344 57.5143C115.028 56.5878 112.46 57.114 110.704 58.8815Z" fill="black"/>
<path d="M149.351 117.587C149.522 117.589 149.694 117.59 149.87 117.592C152.225 117.651 154.008 118.541 155.76 120.09C157.939 122.564 158.521 124.719 158.394 127.961C158.225 130.204 156.967 132.037 155.381 133.554C154.446 134.343 153.448 134.828 152.305 135.251C152.177 135.299 152.049 135.347 151.918 135.396C149.567 136.125 147.025 135.657 144.881 134.559C142.651 133.229 141.287 131.325 140.513 128.842C140.128 126.941 140.242 124.934 140.977 123.141C141.027 123.01 141.077 122.879 141.128 122.744C142.047 120.625 143.952 118.978 146.055 118.094C147.164 117.684 148.174 117.573 149.351 117.587ZM144.883 122.946C143.869 124.234 143.452 125.486 143.528 127.121C143.738 128.846 144.468 130.17 145.826 131.253C147.146 132.145 148.535 132.662 150.135 132.437C152.036 132.036 153.292 131.204 154.404 129.613C155.291 128.101 155.446 126.598 155.027 124.911C154.516 123.358 153.53 122.163 152.102 121.37C149.463 120.119 146.812 120.837 144.883 122.946Z" fill="black"/>
<path d="M130.039 147.944C130.528 148.237 130.528 148.237 130.821 148.725C130.927 149.268 130.963 149.751 130.821 150.287C130.169 151.214 129.124 151.477 128.098 151.838C127.909 151.905 127.719 151.973 127.523 152.043C123.463 153.452 119.411 154.082 115.122 154.072C114.864 154.071 114.864 154.071 114.601 154.071C109.919 154.058 104.284 153.551 100.156 151.069C99.7817 150.516 99.7657 150.292 99.778 149.604C99.9611 148.92 99.9611 148.92 100.376 148.432C101.187 148.009 101.826 148.191 102.688 148.449C103.104 148.589 103.516 148.736 103.928 148.884C111.471 151.48 120.034 151.47 127.417 148.311C128.345 147.93 129.053 147.874 130.039 147.944Z" fill="black"/>
<path d="M139.768 89.7773C140.733 89.7956 141.253 90.2404 141.904 90.9004C146.394 95.6469 149.606 101.515 151.218 107.832C151.269 108.028 151.32 108.225 151.372 108.428C152.006 111.04 152.006 111.04 151.426 112.202C150.833 112.676 150.503 112.701 149.766 112.703C149.2 112.543 148.96 112.264 148.594 111.811C148.43 111.366 148.43 111.366 148.325 110.847C147.609 107.703 146.697 104.747 145.273 101.85C145.213 101.724 145.152 101.598 145.089 101.468C143.504 98.2089 141.348 95.1978 138.675 92.7406C138.24 92.2545 138.264 91.7361 138.242 91.1079C138.662 90.2297 138.815 89.9804 139.768 89.7773Z" fill="black"/>
<path d="M91.1719 89.936C91.7298 90.386 91.7606 90.731 91.9043 91.4374C91.871 92.2257 91.5722 92.5484 91.0132 93.0854C90.8533 93.2312 90.6934 93.3769 90.5287 93.5271C89.5163 94.5045 88.6953 95.6491 87.8516 96.7719C87.6642 97.0193 87.6642 97.0193 87.4731 97.2716C84.3844 101.512 82.5919 106.469 81.5695 111.581C81.3606 112.125 81.1271 112.305 80.625 112.592C79.9284 112.667 79.4424 112.67 78.7939 112.397C78.3162 111.809 78.2925 111.178 78.2812 110.444C78.369 109.775 78.5266 109.131 78.6963 108.478C78.7418 108.298 78.7873 108.117 78.8342 107.93C79.8713 103.891 81.4453 100.063 83.75 96.5766C83.8268 96.4604 83.9035 96.3442 83.9826 96.2244C84.9936 94.7138 86.102 93.3445 87.3534 92.0272C87.9053 91.4415 88.4248 90.8341 88.938 90.2145C89.603 89.5549 90.333 89.7412 91.1719 89.936Z" fill="black"/>
</g>
<defs>
<clipPath id="clip0_66_1135">
<rect width="100" height="100" fill="white" transform="translate(65 54)"/>
</clipPath>
</defs>
</svg>
