<svg width="178" height="152" viewBox="0 0 178 152" fill="none" xmlns="http://www.w3.org/2000/svg">
<circle cx="52.5" cy="52" r="52" fill="#C6E8FF"/>
<path d="M30.62 51.04C30.62 46.4267 31.4467 42.8133 33.1 40.2C34.78 37.5867 37.5533 36.28 41.42 36.28C45.2867 36.28 48.0467 37.5867 49.7 40.2C51.38 42.8133 52.22 46.4267 52.22 51.04C52.22 55.68 51.38 59.32 49.7 61.96C48.0467 64.6 45.2867 65.92 41.42 65.92C37.5533 65.92 34.78 64.6 33.1 61.96C31.4467 59.32 30.62 55.68 30.62 51.04ZM46.7 51.04C46.7 49.0667 46.5667 47.4133 46.3 46.08C46.06 44.72 45.5533 43.6133 44.78 42.76C44.0333 41.9067 42.9133 41.48 41.42 41.48C39.9267 41.48 38.7933 41.9067 38.02 42.76C37.2733 43.6133 36.7667 44.72 36.5 46.08C36.26 47.4133 36.14 49.0667 36.14 51.04C36.14 53.0667 36.26 54.7733 36.5 56.16C36.74 57.52 37.2467 58.6267 38.02 59.48C38.7933 60.3067 39.9267 60.72 41.42 60.72C42.9133 60.72 44.0467 60.3067 44.82 59.48C45.5933 58.6267 46.1 57.52 46.34 56.16C46.58 54.7733 46.7 53.0667 46.7 51.04ZM56.2394 60.32V55.92L69.3194 37.2H75.8394V55.44H79.3594V60.32H75.8394V66H70.2394V60.32H56.2394ZM70.5994 43.2L62.3994 55.44H70.5994V43.2Z" fill="black"/>
<path d="M171 55H101.5H95L92 58V68.5H85L82 71.5V136.5L85 139.5H121V147.5L122.5 148.5H135L145 147.5L146 140.5H159.5L163.5 137.5V127L174 125.5V74.5V61.5L171 55Z" fill="white"/>
<path d="M96.4642 54.12C96.5925 54.1195 96.7207 54.1191 96.8529 54.1186C97.2845 54.1173 97.7161 54.1174 98.1478 54.1175C98.4596 54.1168 98.7715 54.1161 99.0833 54.1153C99.9419 54.1133 100.8 54.1126 101.659 54.1121C102.584 54.1113 103.51 54.1094 104.435 54.1078C106.67 54.1039 108.906 54.1019 111.141 54.1002C112.194 54.0993 113.246 54.0983 114.299 54.0973C117.798 54.0939 121.296 54.0911 124.795 54.0897C125.703 54.0893 126.611 54.0889 127.519 54.0886C127.745 54.0885 127.97 54.0884 128.203 54.0883C131.859 54.0867 135.515 54.0817 139.171 54.0754C142.925 54.0689 146.678 54.0654 150.432 54.0648C152.539 54.0643 154.647 54.0626 156.754 54.0576C158.549 54.0534 160.344 54.0518 162.139 54.0537C163.054 54.0546 163.97 54.0542 164.885 54.0505C165.724 54.047 166.563 54.0472 167.402 54.0502C167.705 54.0507 168.007 54.0499 168.31 54.0475C170.314 54.0332 171.863 54.2463 173.571 55.3425C175.338 57.2326 175.297 59.3656 175.294 61.8077C175.295 62.0717 175.295 62.3357 175.296 62.5998C175.297 63.3233 175.297 64.0469 175.296 64.7704C175.296 65.5516 175.298 66.3327 175.299 67.1138C175.3 68.6435 175.301 70.1731 175.301 71.7027C175.301 72.9463 175.301 74.1899 175.302 75.4334C175.304 78.9605 175.305 82.4876 175.304 86.0147C175.304 86.2997 175.304 86.2997 175.304 86.5907C175.304 86.7809 175.304 86.9711 175.304 87.1674C175.304 90.2513 175.306 93.3355 175.309 96.4195C175.312 99.5876 175.313 102.756 175.313 105.924C175.313 107.702 175.313 109.48 175.315 111.258C175.317 112.772 175.318 114.286 175.316 115.8C175.316 116.572 175.316 117.344 175.317 118.116C175.319 118.823 175.319 119.531 175.317 120.238C175.316 120.614 175.318 120.989 175.319 121.364C175.311 123.465 175.2 125.4 173.706 126.998C172.35 128.016 171.297 128.391 169.613 128.384C169.484 128.384 169.355 128.383 169.223 128.383C168.813 128.382 168.403 128.38 167.993 128.377C167.714 128.376 167.435 128.375 167.157 128.374C166.475 128.372 165.794 128.369 165.112 128.365C165.114 128.591 165.116 128.818 165.118 129.051C165.125 129.899 165.13 130.747 165.133 131.596C165.135 131.961 165.138 132.327 165.141 132.692C165.146 133.221 165.148 133.749 165.15 134.278C165.153 134.519 165.153 134.519 165.156 134.765C165.156 136.647 164.939 138.251 163.604 139.657C161.765 141.411 159.717 141.337 157.329 141.313C157.012 141.312 156.695 141.311 156.378 141.31C155.548 141.308 154.719 141.302 153.89 141.296C153.041 141.29 152.193 141.287 151.344 141.284C149.684 141.278 148.023 141.268 146.362 141.256C146.366 141.488 146.37 141.721 146.374 141.96C146.388 142.824 146.397 143.687 146.405 144.551C146.409 144.924 146.414 145.298 146.421 145.671C146.43 146.208 146.435 146.746 146.438 147.283C146.444 147.533 146.444 147.533 146.45 147.788C146.45 147.945 146.45 148.101 146.451 148.262C146.452 148.399 146.454 148.536 146.456 148.678C146.318 149.252 146.031 149.477 145.581 149.849C145.096 149.948 145.096 149.948 144.543 149.948C144.228 149.952 144.228 149.952 143.906 149.955C143.561 149.953 143.561 149.953 143.209 149.951C142.845 149.952 142.845 149.952 142.474 149.954C141.809 149.957 141.144 149.957 140.479 149.954C139.783 149.952 139.087 149.954 138.39 149.955C137.221 149.957 136.053 149.955 134.884 149.951C133.532 149.947 132.181 149.948 130.83 149.953C129.669 149.956 128.509 149.957 127.348 149.955C126.655 149.953 125.962 149.953 125.269 149.956C124.497 149.958 123.724 149.955 122.952 149.951C122.722 149.952 122.492 149.954 122.256 149.955C122.045 149.953 121.835 149.951 121.618 149.948C121.436 149.948 121.253 149.948 121.065 149.948C120.391 149.811 120.182 149.643 119.799 149.068C119.694 148.471 119.709 147.887 119.723 147.283C119.724 147.111 119.725 146.938 119.726 146.761C119.731 146.211 119.741 145.662 119.751 145.113C119.754 144.74 119.758 144.367 119.761 143.994C119.77 143.081 119.783 142.169 119.799 141.256C119.623 141.256 119.447 141.257 119.265 141.258C114.973 141.275 110.681 141.288 106.389 141.296C104.313 141.3 102.237 141.306 100.161 141.314C98.3514 141.322 96.5416 141.327 94.7318 141.329C93.774 141.33 92.8163 141.332 91.8585 141.338C90.9558 141.343 90.0531 141.345 89.1504 141.344C88.8203 141.344 88.4902 141.346 88.1601 141.349C86.0313 141.367 83.9792 141.342 82.3116 139.839C80.65 137.975 80.7078 135.976 80.7108 133.594C80.7104 133.33 80.71 133.066 80.7094 132.802C80.7082 132.078 80.7083 131.355 80.7085 130.631C80.7085 129.85 80.7074 129.069 80.7065 128.288C80.7049 126.758 80.7044 125.229 80.7043 123.699C80.7042 122.456 80.7038 121.212 80.7032 119.968C80.7014 116.441 80.7005 112.914 80.7007 109.387C80.7007 109.197 80.7007 109.007 80.7007 108.811C80.7007 108.621 80.7007 108.431 80.7007 108.234C80.7008 105.15 80.6989 102.066 80.6962 98.9822C80.6934 95.8143 80.692 92.6461 80.6922 89.478C80.6923 87.6999 80.6917 85.922 80.6896 84.1438C80.6878 82.6299 80.6874 81.1161 80.6887 79.6022C80.6894 78.8303 80.6894 78.0582 80.6877 77.2863C80.6862 76.5786 80.6864 75.8711 80.6881 75.1636C80.6886 74.7882 80.6871 74.4128 80.6855 74.0374C80.6941 71.8811 80.8501 70.0822 82.2994 68.404C83.4742 67.3216 84.6847 66.9855 86.2774 66.9987C86.4101 66.9992 86.5428 66.9998 86.6796 67.0004C87.0994 67.0025 87.5192 67.0074 87.939 67.0124C88.2254 67.0144 88.5118 67.0162 88.7981 67.0178C89.4965 67.0221 90.1948 67.0288 90.8931 67.0368C90.8901 66.6868 90.8901 66.6868 90.8869 66.3296C90.8798 65.4571 90.8754 64.5846 90.8717 63.7121C90.8697 63.3357 90.8671 62.9593 90.8637 62.5829C90.8589 62.0394 90.8567 61.4959 90.855 60.9524C90.853 60.7863 90.851 60.6202 90.8489 60.4491C90.8485 58.5713 91.1519 56.9315 92.4556 55.5134C93.7726 54.5225 94.8265 54.1225 96.4642 54.12ZM94.0548 58.0403C93.6046 58.8221 93.6033 59.6499 93.6053 60.5345C93.6054 60.7534 93.6054 60.9723 93.6054 61.1979C93.6064 61.4321 93.6074 61.6663 93.6084 61.9076C93.6087 62.149 93.609 62.3904 93.6093 62.6391C93.6102 63.2783 93.6119 63.9176 93.6141 64.5569C93.6161 65.2102 93.617 65.8636 93.618 66.5169C93.62 67.797 93.6238 69.0771 93.6275 70.3571C96.399 70.3571 99.1704 70.3571 102.026 70.3571C102.059 68.73 102.059 68.73 102.084 67.1027C102.09 66.8989 102.096 66.6952 102.102 66.4852C102.106 66.2776 102.11 66.07 102.115 65.856C102.249 65.128 102.47 64.8131 103.003 64.3025C103.845 63.9562 104.563 63.8619 105.469 63.8582C105.723 63.8563 105.976 63.8545 106.238 63.8526C106.512 63.8526 106.786 63.8528 107.061 63.8531C107.345 63.8523 107.629 63.8515 107.913 63.8506C108.507 63.8491 109.101 63.8492 109.695 63.8502C110.454 63.8513 111.213 63.848 111.971 63.8435C112.558 63.8406 113.144 63.8404 113.73 63.841C114.01 63.8409 114.289 63.8399 114.569 63.8379C117.711 63.8185 117.711 63.8185 119.065 65.0391C119.281 65.2533 119.494 65.4697 119.706 65.688C119.82 65.8028 119.934 65.9176 120.052 66.0359C120.413 66.4003 120.771 66.7674 121.13 67.1345C121.374 67.3811 121.619 67.6275 121.864 67.8738C122.096 68.1094 122.329 68.3451 122.562 68.581C122.671 68.6915 122.78 68.802 122.893 68.9158C123.344 69.3788 123.736 69.8172 124.096 70.3571C124.466 70.4447 124.466 70.4447 124.898 70.4292C125.067 70.4304 125.235 70.4316 125.409 70.4328C125.689 70.4302 125.689 70.4302 125.975 70.4276C126.172 70.4281 126.369 70.4286 126.573 70.4291C127.238 70.4301 127.904 70.4269 128.569 70.4237C129.044 70.4235 129.52 70.4236 129.995 70.4239C131.021 70.4241 132.046 70.4224 133.072 70.4191C134.555 70.4143 136.038 70.4128 137.52 70.4121C139.926 70.4108 142.331 70.4069 144.737 70.4013C147.074 70.396 149.411 70.3918 151.749 70.3893C151.893 70.3892 152.037 70.389 152.185 70.3889C152.907 70.3881 153.63 70.3874 154.352 70.3866C160.348 70.3806 166.343 70.3702 172.339 70.3571C172.361 68.824 172.379 67.2909 172.389 65.7577C172.394 65.0456 172.401 64.3337 172.412 63.6217C172.423 62.9341 172.429 62.2465 172.431 61.5588C172.434 61.1699 172.441 60.7811 172.449 60.3923C172.488 58.9613 172.488 58.9613 171.893 57.7115C171.011 56.9803 170.468 56.8317 169.316 56.8303C169.126 56.8293 169.126 56.8293 168.931 56.8283C168.503 56.8264 168.075 56.8274 167.647 56.8283C167.338 56.8276 167.029 56.8267 166.72 56.8257C165.869 56.8233 165.018 56.8233 164.166 56.8238C163.249 56.8239 162.332 56.8217 161.414 56.8199C159.617 56.8166 157.819 56.8156 156.021 56.8153C154.56 56.8151 153.099 56.8143 151.639 56.8131C147.499 56.8097 143.359 56.8079 139.219 56.8082C138.996 56.8082 138.773 56.8082 138.543 56.8082C138.207 56.8082 138.207 56.8082 137.865 56.8082C134.241 56.8084 130.617 56.8047 126.993 56.7992C123.274 56.7936 119.555 56.7908 115.837 56.7912C113.748 56.7913 111.659 56.7902 109.57 56.7861C107.792 56.7825 106.014 56.7816 104.236 56.7843C103.328 56.7856 102.421 56.7856 101.513 56.7822C100.682 56.7791 99.8519 56.7797 99.0213 56.7831C98.7206 56.7837 98.4199 56.783 98.1192 56.7808C97.7107 56.7781 97.3024 56.7801 96.894 56.7834C96.667 56.7833 96.44 56.7832 96.2062 56.7831C95.2887 56.9261 94.682 57.3698 94.0548 58.0403ZM104.76 66.4509C104.758 66.5798 104.755 66.7087 104.752 66.8416C104.737 67.4317 104.718 68.0216 104.699 68.6115C104.695 68.8143 104.69 69.0171 104.686 69.2261C104.645 70.3901 104.569 71.2942 103.979 72.3103C103.399 72.8449 103.013 72.9705 102.231 72.9807C102.039 72.9845 101.848 72.9884 101.65 72.9924C101.445 72.9936 101.24 72.9949 101.028 72.9961C100.817 72.9997 100.605 73.0032 100.388 73.0068C99.7131 73.0174 99.0385 73.0241 98.3638 73.0305C97.9063 73.037 97.4488 73.0436 96.9913 73.0507C95.8701 73.0674 94.7488 73.0807 93.6275 73.0916C93.6186 79.438 93.6117 85.7845 93.6076 92.1307C93.6071 92.8801 93.6066 93.6295 93.606 94.3786C93.6059 94.5278 93.6058 94.677 93.6057 94.8307C93.604 97.2459 93.601 99.6611 93.5974 102.076C93.5937 104.555 93.5915 107.033 93.5908 109.511C93.5902 111.041 93.5885 112.57 93.5854 114.099C93.583 115.271 93.5828 116.444 93.5833 117.617C93.5832 118.098 93.5824 118.579 93.5809 119.06C93.579 119.716 93.5795 120.373 93.5805 121.029C93.5794 121.219 93.5783 121.41 93.5771 121.606C93.5717 123.308 93.5717 123.308 94.2989 124.799C95.1395 125.408 95.5465 125.655 96.5767 125.654C96.893 125.654 96.893 125.654 97.2158 125.655C97.4481 125.654 97.6805 125.653 97.9199 125.653C98.2858 125.653 98.2858 125.653 98.659 125.653C99.3288 125.653 99.9985 125.652 100.669 125.65C101.368 125.649 102.068 125.649 102.767 125.649C104.093 125.648 105.418 125.647 106.743 125.645C108.252 125.642 109.761 125.641 111.269 125.64C114.373 125.638 117.477 125.635 120.581 125.631C120.182 125.232 119.931 125.121 119.421 124.91C118.778 124.593 118.629 124.461 118.225 123.824C117.753 121.937 118.658 120.587 119.555 118.978C119.689 118.733 119.823 118.489 119.956 118.244C120.356 117.514 120.76 116.787 121.167 116.06C121.279 115.86 121.391 115.659 121.506 115.452C122.021 114.535 122.54 113.62 123.06 112.706C123.764 111.469 124.456 110.225 125.146 108.98C125.268 108.761 125.39 108.541 125.515 108.315C126.016 107.413 126.516 106.51 127.016 105.607C127.75 104.279 128.487 102.952 129.227 101.628C129.551 101.046 129.872 100.463 130.192 99.8791C130.382 99.5395 130.571 99.1999 130.761 98.8605C130.844 98.7072 130.927 98.5536 131.013 98.3955C131.368 97.7678 131.585 97.3849 132.218 97.0166C132.892 96.8782 133.392 96.9457 134.057 97.1149C134.712 97.668 135.089 98.2772 135.495 99.0261C135.619 99.252 135.742 99.4778 135.869 99.7105C136.002 99.9561 136.134 100.202 136.267 100.447C136.406 100.703 136.545 100.958 136.684 101.213C136.971 101.739 137.258 102.264 137.544 102.79C138.169 103.938 138.805 105.08 139.44 106.221C139.683 106.657 139.925 107.093 140.168 107.529C140.287 107.744 140.407 107.959 140.53 108.181C140.895 108.837 141.26 109.494 141.625 110.151C141.746 110.368 141.867 110.586 141.992 110.811C142.235 111.249 142.478 111.686 142.721 112.124C143.349 113.255 143.978 114.386 144.61 115.515C145.226 116.616 145.839 117.719 146.447 118.825C146.635 119.168 146.825 119.509 147.016 119.85C148.221 122.007 148.221 122.007 148.144 123.006C147.662 124.479 147.662 124.479 146.909 124.887C146.47 125.084 146.031 125.266 145.581 125.435C145.581 125.5 145.581 125.564 145.581 125.631C148.82 125.649 152.059 125.663 155.299 125.671C156.803 125.675 158.307 125.681 159.811 125.689C161.122 125.697 162.433 125.702 163.745 125.704C164.439 125.705 165.133 125.707 165.827 125.713C166.602 125.719 167.377 125.72 168.153 125.719C168.497 125.723 168.497 125.723 168.848 125.728C170.071 125.722 170.836 125.693 171.753 124.849C172.254 124.279 172.412 123.934 172.411 123.176C172.412 122.997 172.413 122.818 172.414 122.633C172.412 122.437 172.411 122.241 172.409 122.039C172.409 121.83 172.41 121.621 172.41 121.406C172.411 120.704 172.408 120.002 172.405 119.3C172.405 118.798 172.405 118.295 172.405 117.793C172.406 116.71 172.404 115.628 172.4 114.545C172.396 112.979 172.394 111.414 172.393 109.849C172.392 107.309 172.388 104.769 172.383 102.23C172.377 99.7624 172.373 97.2953 172.371 94.8282C172.37 94.6761 172.37 94.5241 172.37 94.3674C172.369 93.6045 172.369 92.8418 172.368 92.0788C172.362 85.7497 172.351 79.4207 172.339 73.0916C171.961 73.0911 171.961 73.0911 171.576 73.0907C165.605 73.0836 159.634 73.0726 153.663 73.0568C152.928 73.0549 152.193 73.0528 151.458 73.0509C151.238 73.0505 151.238 73.0505 151.014 73.0499C148.645 73.0438 146.276 73.0405 143.907 73.0382C141.476 73.0357 139.045 73.0303 136.614 73.0222C135.114 73.0174 133.614 73.0147 132.114 73.0151C130.964 73.0151 129.814 73.0109 128.664 73.0053C128.192 73.0036 127.72 73.0034 127.248 73.0045C126.604 73.0057 125.961 73.0022 125.317 72.9976C125.13 72.9991 124.942 73.0005 124.749 73.0022C122.853 72.9776 121.944 71.9677 120.666 70.6646C120.272 70.2485 119.891 69.8276 119.519 69.3928C119.417 69.2771 119.315 69.1615 119.21 69.0423C118.928 68.72 118.654 68.3914 118.384 68.0593C117.448 66.9968 116.813 66.3253 115.337 66.207C114.844 66.2073 114.351 66.2192 113.858 66.2411C113.594 66.2451 113.33 66.2482 113.066 66.2503C112.378 66.2584 111.691 66.2795 111.004 66.3034C110.3 66.3255 109.595 66.3352 108.89 66.346C107.513 66.3689 106.137 66.4054 104.76 66.4509ZM84.2525 70.3571C83.6933 71.0587 83.5931 71.5903 83.5918 72.4755C83.59 72.7053 83.5882 72.9351 83.5864 73.172C83.5874 73.4236 83.5885 73.6753 83.5895 73.9347C83.5886 74.2053 83.5874 74.4761 83.5859 74.7468C83.5827 75.4905 83.5832 76.2343 83.5843 76.978C83.5848 77.7801 83.5819 78.5824 83.5795 79.3845C83.5754 80.9559 83.5745 82.5274 83.5749 84.0988C83.5752 85.3759 83.5744 86.653 83.573 87.9301C83.5725 88.2978 83.5721 88.6655 83.5717 89.0332C83.5715 89.2161 83.5713 89.3993 83.5711 89.5878C83.5674 93.0495 83.5676 96.5113 83.569 99.9732C83.57 103.141 83.566 106.309 83.5595 109.477C83.5529 112.729 83.55 115.981 83.5509 119.233C83.5513 121.059 83.5503 122.885 83.5454 124.711C83.5413 126.266 83.5406 127.82 83.5443 129.375C83.5461 130.168 83.5463 130.961 83.5423 131.754C83.5386 132.481 83.5395 133.207 83.5439 133.933C83.5452 134.32 83.5415 134.707 83.5378 135.094C83.5226 136.476 83.5226 136.476 84.1014 137.684C85.0755 138.487 85.7845 138.57 87.0347 138.568C87.1751 138.568 87.3155 138.569 87.4602 138.569C87.9295 138.57 88.3988 138.568 88.8682 138.566C89.205 138.566 89.5419 138.566 89.8788 138.566C90.7927 138.566 91.7067 138.564 92.6206 138.561C93.5759 138.558 94.5313 138.558 95.4866 138.558C97.2954 138.557 99.1042 138.553 100.913 138.549C102.973 138.545 105.032 138.543 107.091 138.541C111.327 138.537 115.563 138.53 119.799 138.521C119.804 138.289 119.804 138.289 119.808 138.053C119.823 137.35 119.841 136.648 119.86 135.946C119.867 135.581 119.867 135.581 119.874 135.208C119.881 134.973 119.888 134.739 119.895 134.497C119.903 134.173 119.903 134.173 119.91 133.843C120.026 133.03 120.344 132.513 120.913 131.932C121.541 131.587 122.175 131.526 122.876 131.453C123.012 131.437 123.148 131.421 123.288 131.405C123.623 131.366 123.957 131.33 124.292 131.295C124.304 131.065 124.316 130.836 124.328 130.599C124.335 130.47 124.342 130.341 124.349 130.207C124.268 129.535 123.978 128.981 123.706 128.365C123.56 128.365 123.415 128.364 123.266 128.364C119.728 128.357 116.19 128.345 112.653 128.329C110.942 128.321 109.231 128.315 107.521 128.312C106.029 128.309 104.537 128.304 103.045 128.296C102.256 128.291 101.467 128.288 100.678 128.288C99.9333 128.289 99.1892 128.285 98.445 128.279C98.1731 128.277 97.9012 128.277 97.6292 128.278C95.7385 128.284 94.3259 128.018 92.6876 127.071C91.1462 125.397 91.0595 123.461 91.0575 121.302C91.0566 121.082 91.0556 120.862 91.0546 120.634C91.0516 119.896 91.05 119.157 91.0483 118.419C91.0466 117.889 91.0445 117.36 91.0425 116.831C91.0382 115.691 91.0347 114.551 91.0316 113.411C91.0272 111.763 91.0217 110.115 91.0159 108.467C91.0066 105.794 90.9982 103.12 90.9903 100.446C90.9826 97.8488 90.9745 95.2518 90.9659 92.6547C90.9653 92.4945 90.9648 92.3345 90.9642 92.1695C90.9616 91.3661 90.9589 90.5628 90.9562 89.7595C90.934 83.0968 90.9131 76.4341 90.8931 69.7712C90.0061 69.7542 89.1191 69.7438 88.232 69.7346C87.981 69.7297 87.73 69.7248 87.4714 69.7197C87.2284 69.7178 86.9854 69.7159 86.7351 69.714C86.5122 69.7109 86.2892 69.7078 86.0594 69.7047C85.3213 69.782 84.8747 69.9538 84.2525 70.3571ZM131.518 102.974C130.016 105.674 128.517 108.374 127.026 111.08C125.991 112.957 124.954 114.833 123.913 116.707C123.792 116.925 123.671 117.143 123.547 117.368C123.022 118.314 122.494 119.258 121.953 120.195C121.826 120.417 121.826 120.417 121.696 120.642C121.544 120.907 121.39 121.171 121.235 121.433C121.07 121.719 120.921 122.014 120.776 122.31C121.033 122.825 121.374 122.911 121.881 123.142C124.094 124.152 125.211 125.367 126.353 127.536C126.763 128.741 126.858 130.033 127.026 131.295C131.022 131.295 135.018 131.295 139.135 131.295C139.329 129.844 139.329 129.844 139.526 128.365C140.572 125.825 141.897 124.237 144.409 123.092C144.733 122.959 145.058 122.828 145.385 122.701C145.107 121.967 144.775 121.283 144.405 120.591C144.287 120.37 144.169 120.15 144.048 119.923C143.92 119.685 143.792 119.447 143.664 119.21C143.599 119.088 143.534 118.966 143.466 118.841C142.5 117.043 141.512 115.258 140.502 113.485C139.626 111.946 138.768 110.397 137.915 108.846C136.834 106.883 135.748 104.923 134.643 102.974C134.579 102.974 134.514 102.974 134.448 102.974C134.409 103.791 134.381 104.607 134.362 105.424C134.354 105.702 134.344 105.979 134.33 106.257C134.183 107.841 134.183 107.841 134.786 109.214C135.194 109.474 135.194 109.474 135.625 109.634C136.405 109.991 136.65 110.799 136.938 111.568C137.092 112.799 136.978 113.793 136.401 114.888C135.653 115.798 134.904 116.376 133.712 116.513C132.451 116.561 131.345 116.502 130.346 115.67C129.399 114.514 129.075 113.451 129.174 111.959C129.439 110.864 129.859 110.151 130.737 109.42C130.907 109.342 131.076 109.264 131.251 109.184C131.778 108.867 131.778 108.867 131.824 108.229C131.819 107.987 131.814 107.744 131.809 107.495C131.807 107.301 131.807 107.301 131.805 107.103C131.799 106.691 131.787 106.279 131.775 105.867C131.77 105.588 131.765 105.308 131.761 105.029C131.75 104.344 131.734 103.659 131.714 102.974C131.649 102.974 131.585 102.974 131.518 102.974ZM132.019 111.788C131.662 112.334 131.662 112.334 131.726 112.972C131.866 113.579 131.866 113.579 132.495 113.912C133.072 114.026 133.072 114.026 133.667 113.912C134.169 113.508 134.169 113.508 134.448 112.935C134.434 112.37 134.328 112.074 134.021 111.605C133.267 111.111 132.676 111.214 132.019 111.788ZM142.456 128.365C141.909 129.508 141.909 129.508 141.833 130.599C141.845 130.828 141.857 131.058 141.87 131.295C142.025 131.302 142.181 131.309 142.341 131.317C143.668 131.399 144.683 131.495 145.739 132.369C146.24 133.002 146.203 133.686 146.228 134.459C146.236 134.695 146.245 134.931 146.253 135.174C146.261 135.42 146.269 135.667 146.276 135.921C146.285 136.17 146.293 136.419 146.302 136.675C146.323 137.291 146.343 137.906 146.362 138.521C148.15 138.535 149.938 138.545 151.725 138.552C152.556 138.555 153.386 138.559 154.216 138.565C155.018 138.572 155.819 138.575 156.621 138.577C156.926 138.578 157.232 138.58 157.537 138.583C157.966 138.587 158.394 138.588 158.823 138.588C159.189 138.59 159.189 138.59 159.562 138.592C160.536 138.489 161.172 138.171 161.853 137.471C163.32 135.189 162.378 129.078 162.378 128.365C155.803 128.365 149.229 128.365 142.456 128.365ZM122.534 134.029C122.534 138.347 122.534 142.666 122.534 147.115C129.495 147.115 136.456 147.115 143.628 147.115C143.628 142.797 143.628 138.478 143.628 134.029C136.667 134.029 129.706 134.029 122.534 134.029Z" fill="black"/>
<path d="M131.07 82.1728C131.23 82.1721 131.39 82.1713 131.555 82.1705C131.893 82.1701 132.23 82.1715 132.568 82.1748C133.082 82.179 133.596 82.1748 134.111 82.1698C134.44 82.1703 134.769 82.1713 135.098 82.1728C135.327 82.1705 135.327 82.1705 135.56 82.168C136.579 82.1855 137.156 82.3907 137.967 83.0578C138.882 84.2482 138.553 85.1078 138.553 86.7688C144.353 86.7688 150.154 86.7688 156.131 86.7688C156.421 85.8986 156.421 85.8986 156.717 85.0109C157.346 83.9723 158.201 83.2228 159.337 82.7892C160.882 82.4155 162.453 82.5107 163.9 83.1761C164.904 83.8065 165.792 84.8303 166.201 85.9546C166.536 87.6026 166.47 89.1871 165.612 90.6513C164.721 91.8755 163.67 92.529 162.185 92.8234C160.594 93.0294 159.154 92.7098 157.866 91.7271C157.07 90.9832 156.89 90.6105 156.521 89.5032C152.783 89.5676 149.045 89.6321 145.193 89.6984C146.031 90.214 146.869 90.7296 147.732 91.2609C148.404 91.7707 149.047 92.2767 149.685 92.8234C149.848 92.9598 150.011 93.0963 150.178 93.2369C153.886 96.4426 156.388 100.828 157.693 105.519C157.693 105.712 157.693 105.905 157.693 106.105C157.879 106.098 158.065 106.091 158.257 106.084C158.502 106.079 158.747 106.074 158.999 106.068C159.242 106.061 159.484 106.054 159.734 106.048C160.712 106.128 161.188 106.457 161.844 107.167C162.636 108.327 162.424 109.749 162.428 111.103C162.429 111.533 162.435 111.964 162.442 112.395C162.443 112.672 162.444 112.948 162.445 113.225C162.447 113.475 162.448 113.725 162.45 113.982C162.349 115.025 162.084 115.791 161.307 116.529C160.458 117.081 159.699 117.076 158.721 117.082C158.573 117.083 158.425 117.084 158.272 117.085C157.959 117.087 157.645 117.088 157.332 117.089C156.855 117.091 156.378 117.097 155.901 117.103C155.596 117.105 155.29 117.105 154.985 117.106C154.844 117.109 154.702 117.111 154.556 117.114C153.63 117.11 152.994 116.977 152.224 116.456C151.4 115.525 151.327 114.773 151.339 113.588C151.339 113.427 151.338 113.267 151.337 113.102C151.337 112.764 151.338 112.427 151.341 112.089C151.345 111.575 151.341 111.061 151.336 110.547C151.337 110.218 151.338 109.888 151.339 109.559C151.338 109.407 151.336 109.254 151.335 109.097C151.352 108.08 151.553 107.497 152.224 106.691C153.099 106.108 153.732 106.083 154.763 106.105C152.849 100.249 149.379 95.1615 143.787 92.2903C142.138 91.4755 140.527 90.7671 138.748 90.2844C138.711 90.4113 138.674 90.5384 138.636 90.6692C138.368 91.5721 138.151 92.2271 137.381 92.8234C136.381 93.3236 134.8 93.0801 133.687 93.0871C133.319 93.0905 132.95 93.0957 132.582 93.1032C132.051 93.114 131.519 93.1182 130.987 93.1211C130.824 93.1255 130.66 93.1298 130.492 93.1344C129.69 93.1315 129.143 93.0794 128.495 92.5828C128.013 92.0501 127.841 91.7984 127.737 91.1023C127.712 90.948 127.686 90.7936 127.659 90.6346C127.637 90.4613 127.637 90.4613 127.615 90.2844C121.446 92.1242 116.589 95.5913 113.426 101.288C112.588 102.845 111.936 104.418 111.404 106.105C111.638 106.093 111.871 106.08 112.112 106.068C112.928 106.072 113.452 106.223 114.138 106.691C114.928 107.645 115.034 108.331 115.017 109.517C115.017 109.673 115.017 109.829 115.018 109.989C115.017 110.318 115.015 110.646 115.011 110.974C115.005 111.474 115.007 111.974 115.009 112.474C115.008 112.795 115.007 113.115 115.004 113.435C115.005 113.583 115.005 113.732 115.006 113.885C114.99 114.81 114.882 115.481 114.334 116.261C113.36 116.979 112.589 117.158 111.379 117.139C111.158 117.14 111.158 117.14 110.933 117.14C110.625 117.14 110.316 117.137 110.007 117.133C109.537 117.128 109.067 117.129 108.597 117.132C108.295 117.131 107.994 117.129 107.692 117.127C107.553 117.128 107.414 117.128 107.271 117.129C106.359 117.112 105.734 116.934 104.959 116.456C104.063 115.487 103.949 114.717 103.936 113.439C103.934 113.296 103.933 113.153 103.931 113.006C103.928 112.703 103.926 112.401 103.925 112.098C103.922 111.791 103.918 111.483 103.913 111.176C103.853 107.99 103.853 107.99 104.763 106.691C105.811 105.831 107.19 106.053 108.474 106.105C108.501 105.972 108.527 105.839 108.554 105.702C108.954 103.901 109.639 102.293 110.428 100.636C110.516 100.449 110.604 100.262 110.695 100.069C112.947 95.6373 116.704 92.139 120.974 89.6984C117.301 89.6984 113.627 89.6984 109.842 89.6984C109.584 90.1496 109.326 90.6009 109.06 91.0657C108.102 92.194 106.904 92.698 105.458 92.8853C103.869 92.9626 102.46 92.5032 101.272 91.4319C100.201 90.2442 99.7417 88.8348 99.8188 87.2463C100.009 85.774 100.524 84.6417 101.638 83.6438C103.113 82.5936 104.559 82.5259 106.326 82.6671C107.64 82.9628 108.443 83.7169 109.328 84.6967C109.646 85.2063 109.646 85.2063 110.037 86.7688C115.838 86.7688 121.638 86.7688 127.615 86.7688C127.615 85.9309 127.615 85.093 127.615 84.2296C128.156 82.5173 129.442 82.1559 131.07 82.1728ZM130.349 85.0109C130.349 86.8157 130.349 88.6203 130.349 90.4796C132.154 90.4796 133.959 90.4796 135.818 90.4796C135.818 88.6751 135.818 86.8703 135.818 85.0109C134.013 85.0109 132.209 85.0109 130.349 85.0109ZM103.201 85.9876C102.69 86.7801 102.478 87.3921 102.615 88.3313C103.058 89.1682 103.475 89.7501 104.373 90.089C105.344 90.1476 105.953 90.038 106.717 89.4178C107.344 88.6144 107.41 87.9661 107.303 86.964C106.986 86.2526 106.637 85.7523 105.935 85.4015C104.905 85.2605 104.011 85.2732 103.201 85.9876ZM159.06 86.3782C158.715 87.0684 158.74 87.7751 158.865 88.5265C159.226 89.2726 159.678 89.764 160.465 90.0486C161.275 90.1871 161.704 90.133 162.454 89.7717C163.308 88.9998 163.308 88.9998 163.578 87.9123C163.531 87.0628 163.43 86.6626 162.881 85.9876C162.12 85.3936 161.634 85.3253 160.687 85.3313C159.922 85.4496 159.587 85.8253 159.06 86.3782ZM106.717 108.839C106.717 110.644 106.717 112.448 106.717 114.308C108.521 114.308 110.326 114.308 112.185 114.308C112.185 112.503 112.185 110.698 112.185 108.839C110.381 108.839 108.576 108.839 106.717 108.839ZM153.982 108.839C153.972 110.987 153.972 110.987 154.08 113.112C154.128 113.704 154.128 113.704 154.178 114.308C155.982 114.308 157.787 114.308 159.646 114.308C159.65 113.877 159.654 113.446 159.658 113.002C159.661 112.759 159.663 112.517 159.665 112.267C159.641 111.122 159.539 109.981 159.451 108.839C157.646 108.839 155.842 108.839 153.982 108.839Z" fill="black"/>
<path d="M150.538 60.3013C151.516 60.8735 152.043 61.711 152.346 62.7893C152.565 64.1265 152.198 65.1049 151.478 66.2218C150.624 67.0756 149.894 67.2744 148.707 67.3082C147.593 67.2738 146.852 67.138 146.041 66.3263C145.109 65.289 144.915 64.4961 144.928 63.1059C145.065 61.978 145.675 61.2619 146.485 60.5089C147.649 59.7432 149.274 59.7545 150.538 60.3013ZM147.962 62.9747C147.677 63.3303 147.677 63.3303 147.779 63.8414C147.882 64.2918 147.882 64.2918 148.121 64.5006C148.593 64.5983 148.593 64.5983 149.098 64.5006C149.461 64.0301 149.461 64.0301 149.684 63.524C149.444 63.1178 149.444 63.1178 149.098 62.7428C148.355 62.6714 148.355 62.6714 147.962 62.9747Z" fill="black"/>
<path d="M158.472 60.0081C159.611 60.3849 160.296 61.1804 160.865 62.2053C161.21 63.4716 161.124 64.5633 160.479 65.7126C159.953 66.4517 159.341 66.945 158.472 67.2346C157.13 67.3738 155.996 67.3853 154.883 66.5594C154 65.7194 153.655 64.7833 153.57 63.5763C153.615 62.541 153.978 61.8044 154.639 61.0212C155.896 59.9743 156.859 59.8156 158.472 60.0081ZM156.91 62.7424C156.571 63.0696 156.571 63.0696 156.324 63.5237C156.462 64.0577 156.462 64.0577 156.714 64.5003C157.284 64.5328 157.284 64.5328 157.886 64.5003C158.015 64.3713 158.144 64.2424 158.277 64.1096C158.214 63.5043 158.214 63.5043 158.082 62.9378C157.502 62.8411 157.502 62.8411 156.91 62.7424Z" fill="black"/>
<path d="M167.704 60.2146C168.486 60.7785 169.161 61.4821 169.596 62.3508C169.733 63.7394 169.792 64.9953 168.917 66.1419C167.993 67.1043 167.276 67.2837 165.97 67.3313C164.754 67.2895 164.111 67.05 163.262 66.1602C162.374 65.1566 162.31 64.3675 162.329 63.0771C162.41 62.0031 162.864 61.422 163.639 60.7273C164.788 59.7667 166.314 59.7688 167.704 60.2146ZM165.103 63.1321C165.038 63.6204 165.038 63.6204 165.103 64.1086C165.46 64.5479 165.46 64.5479 165.982 64.5481C166.504 64.5479 166.504 64.5479 166.861 64.1086C166.926 63.6204 166.926 63.6204 166.861 63.1321C166.504 62.6928 166.504 62.6928 165.982 62.6926C165.46 62.6928 165.46 62.6928 165.103 63.1321Z" fill="black"/>
</svg>
