<svg width="300" height="313" viewBox="0 0 300 313" fill="none" xmlns="http://www.w3.org/2000/svg">
<path d="M235.907 310V313H238.907V310H235.907ZM235.907 262.276V259.276H232.907V262.276H235.907ZM289.773 254.822L287.626 252.726L287.626 252.726L289.773 254.822ZM289.773 10.4544L287.626 12.5497L287.626 12.5498L289.773 10.4544ZM10.2268 10.4544L12.3737 12.5498L12.3738 12.5497L10.2268 10.4544ZM10.2268 254.822L12.3738 252.726L12.3737 252.726L10.2268 254.822ZM64.0927 262.276H67.0927V259.276H64.0927V262.276ZM64.0927 310H61.0927V313H64.0927V310ZM72.9938 310V313H75.9938V310H72.9938ZM72.9938 262.276V259.276H69.9938V262.276H72.9938ZM227.006 262.276H230.006V259.276H227.006V262.276ZM227.006 310H224.006V313H227.006V310ZM45.5456 129.247V126.247H42.5456V129.247H45.5456ZM118.237 129.247H121.237V126.247H118.237V129.247ZM118.237 143.459V146.459H121.237V143.459H118.237ZM45.5456 143.459H42.5456V146.459H45.5456V143.459ZM45.5456 91.9419V88.9419H42.5456V91.9419H45.5456ZM156.809 91.9419H159.809V88.9419H156.809V91.9419ZM156.809 106.153V109.153H159.809V106.153H156.809ZM45.5456 106.153H42.5456V109.153H45.5456V106.153ZM45.5456 54.6367V51.6367H42.5456V54.6367H45.5456ZM156.809 54.6367H159.809V51.6367H156.809V54.6367ZM156.809 68.8482V71.8482H159.809V68.8482H156.809ZM45.5456 68.8482H42.5456V71.8482H45.5456V68.8482ZM48.0379 204.072L49.9203 201.736L47.2429 199.579L45.4683 202.524L48.0379 204.072ZM95.3024 242.159L97.2069 239.841L97.1959 239.832L97.1848 239.823L95.3024 242.159ZM100.267 244.678L99.5031 247.579L99.5037 247.579L100.267 244.678ZM114.91 239.025L112.482 237.263L112.401 237.376L112.33 237.495L114.91 239.025ZM159.225 177.974L161.653 179.737L163.55 177.123L160.804 175.424L159.225 177.974ZM148.664 171.437L150.243 168.886L147.873 167.419L146.236 169.675L148.664 171.437ZM104.159 232.752L106.575 234.531L106.581 234.522L106.587 234.514L104.159 232.752ZM103.714 233.356L101.832 235.692L104.272 237.658L106.13 235.135L103.714 233.356ZM56.4432 195.269L54.5456 197.593L54.5532 197.599L54.5609 197.605L56.4432 195.269ZM51.4862 192.765L50.7242 195.667L50.7247 195.667L51.4862 192.765ZM40.6256 194.49L42.271 196.999L42.2711 196.998L40.6256 194.49ZM36.8609 198.38L39.4093 199.963L39.4218 199.942L39.434 199.922L36.8609 198.38ZM3.80865 245.905C2.93441 247.312 3.36666 249.162 4.77409 250.036C6.18152 250.91 8.03119 250.478 8.90543 249.071L3.80865 245.905ZM187.962 50.1956V47.1956H184.962V50.1956H187.962ZM272.522 50.1956H275.522V47.1956H272.522V50.1956ZM272.522 99.0477V102.048H275.522V99.0477H272.522ZM187.962 99.0477H184.962V102.048H187.962V99.0477ZM187.962 165.664V162.664H184.962V165.664H187.962ZM272.522 165.664H275.522V162.664H272.522V165.664ZM272.522 214.516V217.516H275.522V214.516H272.522ZM187.962 214.516H184.962V217.516H187.962V214.516ZM187.962 121.253V118.253H184.962V121.253H187.962ZM272.522 121.253H275.522V118.253H272.522V121.253ZM272.522 143.459V146.459H275.522V143.459H272.522ZM187.962 143.459H184.962V146.459H187.962V143.459ZM238.907 310V262.276H232.907V310H238.907ZM235.907 265.276H272.185V259.276H235.907V265.276ZM272.185 265.276C279.625 265.276 286.72 262.246 291.92 256.917L287.626 252.726C283.539 256.915 277.985 259.276 272.185 259.276V265.276ZM291.92 256.917C297.115 251.595 300 244.416 300 236.969H294C294 242.871 291.712 248.54 287.626 252.726L291.92 256.917ZM300 236.969V28.3072H294V236.969H300ZM300 28.3072C300 20.8603 297.115 13.6812 291.92 8.35898L287.626 12.5498C291.712 16.736 294 22.4049 294 28.3072H300ZM291.92 8.35906C286.72 3.03015 279.625 0 272.185 0V6C277.985 6 283.539 8.36134 287.626 12.5497L291.92 8.35906ZM272.185 0H27.8148V6H272.185V0ZM27.8148 0C20.3753 0 13.2804 3.03015 8.07976 8.35906L12.3738 12.5497C16.4613 8.36134 22.0148 6 27.8148 6V0ZM8.07983 8.35898C2.88534 13.6812 0 20.8604 0 28.3072H6C6 22.4049 8.28795 16.736 12.3737 12.5498L8.07983 8.35898ZM0 28.3072V236.969H6V28.3072H0ZM0 236.969C0 244.416 2.88534 251.595 8.07983 256.917L12.3737 252.726C8.28795 248.54 6 242.871 6 236.969H0ZM8.07976 256.917C13.2804 262.246 20.3753 265.276 27.8148 265.276V259.276C22.0148 259.276 16.4613 256.915 12.3738 252.726L8.07976 256.917ZM27.8148 265.276H64.0927V259.276H27.8148V265.276ZM61.0927 262.276V310H67.0927V262.276H61.0927ZM64.0927 313H72.9938V307H64.0927V313ZM75.9938 310V262.276H69.9938V310H75.9938ZM72.9938 265.276H227.006V259.276H72.9938V265.276ZM224.006 262.276V310H230.006V262.276H224.006ZM227.006 313H235.907V307H227.006V313ZM45.5456 132.247H118.237V126.247H45.5456V132.247ZM115.237 129.247V143.459H121.237V129.247H115.237ZM118.237 140.459H45.5456V146.459H118.237V140.459ZM48.5456 143.459V129.247H42.5456V143.459H48.5456ZM45.5456 94.9419H156.809V88.9419H45.5456V94.9419ZM153.809 91.9419V106.153H159.809V91.9419H153.809ZM156.809 103.153H45.5456V109.153H156.809V103.153ZM48.5456 106.153V91.9419H42.5456V106.153H48.5456ZM45.5456 57.6367H156.809V51.6367H45.5456V57.6367ZM153.809 54.6367V68.8482H159.809V54.6367H153.809ZM156.809 65.8482H45.5456V71.8482H156.809V65.8482ZM48.5456 68.8482V54.6367H42.5456V68.8482H48.5456ZM17.8883 259.923L50.6075 205.62L45.4683 202.524L12.7491 256.826L17.8883 259.923ZM46.1555 206.408L93.4201 244.495L97.1848 239.823L49.9203 201.736L46.1555 206.408ZM93.398 244.477C95.1704 245.933 97.2595 246.988 99.5031 247.579L101.032 241.777C99.5974 241.399 98.2917 240.732 97.2069 239.841L93.398 244.477ZM99.5037 247.579C101.748 248.17 104.103 248.285 106.398 247.918L105.452 241.994C103.978 242.229 102.465 242.154 101.031 241.777L99.5037 247.579ZM106.398 247.918C108.694 247.552 110.884 246.71 112.804 245.442L109.499 240.435C108.308 241.221 106.925 241.758 105.452 241.994L106.398 247.918ZM112.804 245.442C114.726 244.174 116.333 242.508 117.491 240.555L112.33 237.495C111.651 238.64 110.689 239.649 109.499 240.435L112.804 245.442ZM117.338 240.788L161.653 179.737L156.797 176.212L112.482 237.263L117.338 240.788ZM160.804 175.424L150.243 168.886L147.085 173.988L157.646 180.525L160.804 175.424ZM146.236 169.675L101.731 230.99L106.587 234.514L151.092 173.199L146.236 169.675ZM101.743 230.973L101.298 231.578L106.13 235.135L106.575 234.531L101.743 230.973ZM105.596 231.02L58.3254 192.933L54.5609 197.605L101.832 235.692L105.596 231.02ZM58.3408 192.945C56.5699 191.499 54.4861 190.451 52.2477 189.863L50.7247 195.667C52.1553 196.042 53.4592 196.705 54.5456 197.593L58.3408 192.945ZM52.2481 189.864C50.0091 189.276 47.6614 189.161 45.373 189.524L46.3137 195.45C47.7851 195.216 49.2933 195.291 50.7242 195.667L52.2481 189.864ZM45.373 189.524C43.0837 189.888 40.8987 190.723 38.98 191.982L42.2711 196.998C43.4625 196.217 44.8432 195.683 46.3137 195.45L45.373 189.524ZM38.9802 191.982C37.0612 193.24 35.452 194.895 34.2877 196.837L39.434 199.922C40.1167 198.783 41.0808 197.779 42.271 196.999L38.9802 191.982ZM34.3125 196.797L3.80865 245.905L8.90543 249.071L39.4093 199.963L34.3125 196.797ZM187.962 53.1956H272.522V47.1956H187.962V53.1956ZM269.522 50.1956V99.0477H275.522V50.1956H269.522ZM272.522 96.0477H187.962V102.048H272.522V96.0477ZM190.962 99.0477V50.1956H184.962V99.0477H190.962ZM187.962 168.664H272.522V162.664H187.962V168.664ZM269.522 165.664V214.516H275.522V165.664H269.522ZM272.522 211.516H187.962V217.516H272.522V211.516ZM190.962 214.516V165.664H184.962V214.516H190.962ZM187.962 124.253H272.522V118.253H187.962V124.253ZM269.522 121.253V143.459H275.522V121.253H269.522ZM272.522 140.459H187.962V146.459H272.522V140.459ZM190.962 143.459V121.253H184.962V143.459H190.962Z" fill="black"/>
</svg>
