<svg width="512" height="512" viewBox="0 0 512 512" fill="none" xmlns="http://www.w3.org/2000/svg">
<path d="M46.57 51.4838C47.7799 51.4789 48.9899 51.474 50.2365 51.4689C51.5816 51.4683 52.9266 51.4678 54.2717 51.4674C55.6988 51.4635 57.126 51.4592 58.5531 51.4545C62.4804 51.4428 66.4077 51.4373 70.335 51.4329C74.5688 51.4271 78.8027 51.4158 83.0365 51.4054C93.2651 51.3815 103.494 51.3673 113.722 51.3547C116.612 51.3511 119.502 51.3472 122.392 51.3433C140.34 51.3187 158.289 51.2973 176.238 51.2852C180.395 51.2823 184.553 51.2794 188.71 51.2765C189.744 51.2758 190.777 51.275 191.842 51.2743C208.573 51.262 225.304 51.2297 242.035 51.1891C259.217 51.1478 276.399 51.1249 293.582 51.1198C303.227 51.1165 312.872 51.1051 322.517 51.073C330.733 51.0457 338.949 51.0351 347.166 51.046C351.355 51.051 355.544 51.0483 359.733 51.0241C363.575 51.0021 367.417 51.003 371.259 51.0214C372.642 51.0241 374.025 51.0187 375.408 51.0041C387.38 50.8848 398.157 53.3733 407.465 61.2788C417.854 71.707 421.547 82.2581 421.6 96.681C421.589 99.4922 421.559 102.303 421.528 105.114C421.521 107.084 421.515 109.053 421.512 111.023C421.497 116.176 421.459 121.328 421.415 126.48C421.375 131.75 421.358 137.021 421.338 142.291C421.297 152.609 421.23 162.926 421.148 173.243C422.445 173.234 422.445 173.234 423.768 173.224C431.928 173.165 440.088 173.121 448.248 173.092C452.443 173.077 456.638 173.056 460.833 173.023C464.883 172.991 468.933 172.974 472.984 172.966C474.527 172.961 476.07 172.95 477.613 172.935C479.779 172.913 481.945 172.911 484.111 172.912C485.343 172.905 486.574 172.899 487.843 172.892C493.479 173.481 497.159 175.771 500.752 180.054C501.321 180.717 501.889 181.379 502.474 182.061C504.687 185.085 504.949 187.636 504.955 191.266C504.959 192.173 504.962 193.08 504.966 194.015C504.965 195.013 504.964 196.011 504.964 197.04C504.968 198.629 504.968 198.629 504.972 200.25C504.981 203.817 504.982 207.385 504.984 210.952C504.988 213.503 504.993 216.053 504.998 218.604C505.012 225.546 505.017 232.487 505.022 239.429C505.024 243.763 505.029 248.097 505.033 252.43C505.045 264.427 505.055 276.424 505.058 288.421C505.058 289.189 505.059 289.957 505.059 290.748C505.059 291.518 505.059 292.288 505.059 293.081C505.06 294.641 505.06 296.201 505.061 297.761C505.061 298.534 505.061 299.308 505.061 300.105C505.065 312.644 505.082 325.183 505.105 337.722C505.128 350.593 505.14 363.464 505.141 376.335C505.142 383.563 505.148 390.791 505.165 398.018C505.182 404.815 505.183 411.612 505.175 418.41C505.174 420.907 505.178 423.404 505.188 425.901C505.2 429.305 505.195 432.709 505.185 436.114C505.192 437.106 505.2 438.097 505.208 439.119C505.164 445.371 504.442 449.774 500.023 454.523C499.36 455.079 498.698 455.634 498.016 456.207C497.354 456.775 496.691 457.343 496.009 457.928C492.545 460.463 489.508 460.406 485.352 460.418C484.129 460.423 482.905 460.429 481.644 460.435C480.286 460.436 478.927 460.437 477.568 460.438C476.139 460.442 474.71 460.447 473.282 460.453C469.397 460.465 465.513 460.472 461.629 460.476C459.202 460.479 456.776 460.483 454.349 460.487C446.756 460.5 439.162 460.51 431.569 460.514C422.804 460.518 414.04 460.535 405.275 460.563C398.5 460.584 391.725 460.594 384.95 460.595C380.903 460.596 376.857 460.602 372.811 460.619C369.004 460.636 365.197 460.638 361.39 460.629C359.994 460.628 358.599 460.633 357.203 460.642C355.294 460.655 353.386 460.647 351.477 460.639C350.41 460.64 349.342 460.642 348.243 460.643C342.825 459.987 339.16 457.587 335.706 453.47C335.138 452.808 334.569 452.146 333.984 451.463C331.351 447.866 331.513 444.66 331.521 440.343C331.521 439.707 331.521 439.071 331.52 438.415C331.521 436.314 331.529 434.214 331.536 432.113C331.538 430.656 331.539 429.198 331.54 427.741C331.544 423.907 331.554 420.072 331.564 416.238C331.576 411.637 331.581 407.035 331.586 402.434C331.596 395.445 331.614 388.456 331.631 381.467C314.292 381.467 296.953 381.467 279.089 381.467C279.089 384.999 279.089 388.531 279.089 392.17C278.807 395.094 278.498 398.015 278.116 400.928C278.812 400.905 279.508 400.882 280.225 400.859C291.867 400.648 302.827 401.043 312.171 408.712C318.912 415.752 321.477 423.259 321.398 432.97C321.122 441.031 318.203 446.533 312.84 452.375C306.744 458.031 300.075 460.393 291.849 460.437C291.163 460.442 290.478 460.447 289.771 460.452C287.468 460.468 285.165 460.476 282.861 460.484C281.212 460.493 279.562 460.503 277.913 460.513C272.488 460.544 267.064 460.563 261.639 460.581C260.716 460.585 259.792 460.588 258.84 460.591C250.124 460.621 241.407 460.647 232.691 460.664C221.554 460.685 210.419 460.726 199.282 460.793C191.446 460.839 183.61 460.863 175.773 460.87C171.097 460.875 166.421 460.889 161.745 460.928C157.339 460.964 152.933 460.972 148.527 460.959C146.917 460.959 145.307 460.969 143.698 460.99C133.109 461.12 123.969 460.046 115.634 452.749C114.085 451.139 112.917 449.524 111.731 447.632C111.133 446.725 111.133 446.725 110.522 445.8C106.45 438.413 106.544 428.7 108.481 420.631C111.408 413.333 116.824 406.765 124.103 403.596C132.459 400.882 140.969 400.65 149.679 400.928C149.518 399.703 149.357 398.479 149.192 397.218C148.786 393.627 148.653 390.117 148.675 386.503C148.679 385.556 148.684 384.608 148.688 383.631C148.697 382.56 148.697 382.56 148.706 381.467C148.156 381.472 147.606 381.476 147.039 381.481C133.604 381.589 120.169 381.669 106.734 381.719C100.237 381.744 93.7399 381.779 87.2427 381.834C80.9653 381.887 74.6882 381.916 68.4106 381.929C66.023 381.938 63.6354 381.955 61.248 381.982C45.1773 382.152 32.2458 382.027 19.5081 370.985C11.0099 362.457 6.26034 352.24 6.12106 340.156C6.12908 339.17 6.1371 338.183 6.14536 337.166C6.1386 336.088 6.13184 335.011 6.12488 333.9C6.10719 330.317 6.11707 326.733 6.12708 323.15C6.12021 320.569 6.11183 317.989 6.10168 315.408C6.08069 309.143 6.08073 302.878 6.08867 296.613C6.09481 291.518 6.09368 286.423 6.08743 281.327C6.08655 280.6 6.08567 279.873 6.08477 279.124C6.08297 277.647 6.08116 276.17 6.07933 274.693C6.06323 260.861 6.07167 247.03 6.08808 233.198C6.10237 220.563 6.08814 207.928 6.06008 195.293C6.03144 182.296 6.02082 169.3 6.0301 156.303C6.03109 154.831 6.03206 153.359 6.033 151.887C6.03346 151.163 6.03393 150.439 6.0344 149.693C6.0365 144.609 6.027 139.525 6.01279 134.44C5.99569 128.237 5.99593 122.034 6.018 115.831C6.0288 112.671 6.02936 109.511 6.01381 106.35C5.99825 102.914 6.01292 99.4785 6.0349 96.0421C6.02338 95.0574 6.01187 94.0727 6 93.0582C6.15233 81.2723 11.2839 71.5895 19.2915 63.2058C26.9656 55.86 35.9117 51.5069 46.57 51.4838ZM27.7483 75.2126C21.43 83.2859 20.1084 91.8726 20.1513 101.935C20.1504 102.658 20.1496 103.381 20.1487 104.126C20.1471 106.541 20.1525 108.955 20.1578 111.37C20.1581 113.134 20.158 114.898 20.1574 116.662C20.1572 121.377 20.1629 126.092 20.1697 130.807C20.1753 135.235 20.1755 139.662 20.1762 144.09C20.1813 157.031 20.1949 169.972 20.2075 182.913C20.2275 211.831 20.2476 240.749 20.2683 270.544C123.018 270.544 225.768 270.544 331.631 270.544C331.952 242.93 332.273 215.316 332.604 186.865C335.905 180.265 335.905 180.265 338.929 177.804C339.501 177.326 340.073 176.849 340.662 176.356C344.077 173.974 347.27 174.072 351.301 174.017C352.548 173.997 353.794 173.978 355.079 173.958C356.439 173.941 357.8 173.925 359.161 173.908C360.553 173.888 361.945 173.868 363.337 173.847C366.998 173.794 370.66 173.745 374.321 173.698C378.058 173.65 381.795 173.595 385.533 173.542C392.864 173.437 400.195 173.338 407.526 173.243C407.571 163.135 407.606 153.027 407.627 142.919C407.637 138.225 407.651 133.531 407.673 128.836C407.694 124.3 407.706 119.764 407.711 115.228C407.714 113.504 407.721 111.779 407.732 110.054C408.024 90.6288 408.024 90.6288 398.94 73.985C389.129 64.791 377.876 65.0938 365.097 65.1092C363.741 65.1074 362.386 65.1051 361.03 65.1025C357.315 65.0966 353.599 65.0967 349.884 65.0978C345.873 65.098 341.862 65.0926 337.851 65.088C329.997 65.08 322.142 65.0773 314.288 65.0767C307.902 65.0763 301.517 65.0743 295.131 65.0712C277.022 65.0626 258.912 65.0581 240.802 65.0589C239.338 65.0589 239.338 65.0589 237.845 65.059C236.379 65.059 236.379 65.059 234.884 65.0591C219.048 65.0595 203.211 65.0502 187.375 65.0365C171.109 65.0225 154.842 65.0158 138.576 65.0166C129.446 65.0169 120.316 65.0143 111.186 65.0038C103.413 64.9949 95.6394 64.9928 87.8662 64.9994C83.902 65.0026 79.9379 65.0027 75.9738 64.9942C72.3407 64.9865 68.7078 64.988 65.0748 64.9964C63.1467 64.9986 61.2186 64.9913 59.2905 64.9835C47.4759 65.0291 36.197 66.0863 27.7483 75.2126ZM347.199 188.811C343.989 195.965 343.989 195.965 345.253 214.11C393.417 214.11 441.581 214.11 491.205 214.11C492.47 195.965 492.47 195.965 489.259 188.811C485.804 186.835 482.746 186.621 478.818 186.618C477.705 186.613 476.592 186.607 475.445 186.602C474.232 186.606 473.02 186.61 471.771 186.614C470.488 186.61 469.204 186.607 467.882 186.603C464.368 186.594 460.854 186.598 457.34 186.604C453.659 186.609 449.978 186.604 446.298 186.601C440.118 186.598 433.937 186.602 427.757 186.612C420.615 186.622 413.474 186.619 406.332 186.608C400.197 186.599 394.061 186.598 387.925 186.603C384.263 186.606 380.6 186.607 376.937 186.6C372.854 186.594 368.77 186.603 364.687 186.614C362.869 186.608 362.869 186.608 361.014 186.602C359.9 186.607 358.787 186.613 357.641 186.618C356.193 186.619 356.193 186.619 354.716 186.621C351.769 186.893 349.775 187.338 347.199 188.811ZM345.253 227.732C345.253 286.813 345.253 345.894 345.253 406.766C393.417 406.766 441.581 406.766 491.205 406.766C491.205 347.684 491.205 288.603 491.205 227.732C443.041 227.732 394.877 227.732 345.253 227.732ZM20.2683 284.166C16.0311 321.322 16.0311 321.322 28.8543 359.031C38.2251 367.85 48.7098 367.994 60.99 367.962C62.1481 367.963 63.3061 367.964 64.4993 367.965C67.7012 367.966 70.903 367.963 74.1048 367.958C77.5623 367.954 81.0198 367.955 84.4773 367.956C90.4635 367.957 96.4497 367.954 102.436 367.948C111.091 367.94 119.746 367.938 128.401 367.936C142.444 367.934 156.487 367.928 170.53 367.919C184.169 367.91 197.809 367.903 211.448 367.899C212.289 367.898 213.13 367.898 213.997 367.898C218.216 367.897 222.436 367.895 226.655 367.894C261.647 367.884 296.639 367.866 331.631 367.845C331.631 340.231 331.631 312.617 331.631 284.166C228.881 284.166 126.132 284.166 20.2683 284.166ZM163.301 381.467C163.301 389.174 163.301 396.88 163.301 404.82C158.244 412.404 158.244 412.404 152.852 414.113C149.95 414.689 147.099 414.778 144.145 414.915C134.739 415.442 134.739 415.442 126.695 419.863C122.734 424.464 122.088 427.593 122.164 433.485C122.564 437.147 123.877 439.087 126.326 441.794C131.938 446.211 136.406 446.778 143.392 446.796C144.018 446.799 144.643 446.801 145.288 446.804C147.377 446.813 149.466 446.814 151.555 446.816C153.056 446.82 154.557 446.825 156.059 446.83C160.132 446.843 164.205 446.849 168.278 446.854C170.825 446.857 173.372 446.861 175.919 446.865C183.896 446.878 191.872 446.888 199.848 446.891C209.043 446.896 218.237 446.913 227.432 446.941C234.547 446.962 241.663 446.972 248.779 446.973C253.025 446.974 257.271 446.98 261.517 446.997C265.513 447.013 269.509 447.015 273.506 447.007C274.968 447.006 276.429 447.01 277.891 447.02C286.829 447.076 294.725 446.904 302.38 441.855C305.652 438.583 306.626 435.815 306.698 431.212C306.581 426.526 305.709 423.907 302.441 420.388C296.624 416.101 291.111 415.481 284.075 415.158C277.245 414.68 272.323 414.081 267.534 408.833C262.057 400.778 264.494 391.007 264.494 381.467C231.1 381.467 197.706 381.467 163.301 381.467ZM345.253 420.388C344.049 437.71 344.049 437.71 347.199 444.713C350.655 446.689 353.712 446.903 357.641 446.906C358.754 446.912 359.867 446.917 361.014 446.923C362.226 446.919 363.438 446.915 364.687 446.911C365.971 446.914 367.254 446.918 368.577 446.921C372.091 446.93 375.605 446.927 379.119 446.92C382.799 446.915 386.48 446.92 390.16 446.923C396.341 446.927 402.521 446.922 408.701 446.913C415.843 446.902 422.984 446.906 430.126 446.916C436.262 446.925 442.397 446.926 448.533 446.921C452.196 446.918 455.858 446.918 459.521 446.924C463.605 446.931 467.688 446.922 471.771 446.911C473.59 446.917 473.59 446.917 475.445 446.923C476.558 446.917 477.671 446.912 478.818 446.906C479.783 446.905 480.748 446.905 481.742 446.904C484.689 446.632 486.683 446.186 489.259 444.713C492.409 437.71 492.409 437.71 491.205 420.388C443.041 420.388 394.877 420.388 345.253 420.388Z" fill="white"/>
<path d="M175.11 305.202C175.929 305.194 176.747 305.186 177.59 305.177C178.485 305.183 179.38 305.189 180.302 305.195C181.719 305.187 181.719 305.187 183.165 305.18C186.294 305.167 189.423 305.175 192.552 305.185C194.722 305.183 196.893 305.18 199.063 305.177C203.614 305.172 208.165 305.179 212.716 305.192C218.557 305.209 224.397 305.199 230.238 305.182C234.72 305.171 239.203 305.175 243.685 305.182C245.839 305.184 247.993 305.182 250.147 305.175C253.154 305.168 256.161 305.179 259.169 305.195C260.064 305.189 260.958 305.183 261.88 305.177C262.699 305.185 263.517 305.194 264.361 305.202C265.427 305.204 265.427 305.204 266.515 305.205C268.967 305.687 269.824 306.502 271.305 308.492C271.595 311.181 271.714 313.647 271.693 316.337C271.695 317.103 271.698 317.87 271.701 318.659C271.703 320.279 271.698 321.898 271.685 323.517C271.67 325.997 271.685 328.475 271.704 330.955C271.702 332.528 271.698 334.102 271.693 335.675C271.698 336.417 271.704 337.159 271.71 337.924C271.642 343.067 271.642 343.067 270.073 345.175C267.999 346.729 266.933 346.806 264.361 346.81C263.542 346.818 262.724 346.826 261.88 346.835C260.985 346.829 260.091 346.823 259.169 346.817C258.224 346.822 257.279 346.827 256.306 346.832C253.177 346.845 250.048 346.837 246.919 346.827C244.748 346.829 242.578 346.832 240.408 346.835C235.857 346.84 231.306 346.833 226.755 346.82C220.914 346.803 215.073 346.813 209.233 346.83C204.75 346.841 200.268 346.837 195.786 346.83C193.632 346.828 191.478 346.83 189.324 346.837C186.316 346.844 183.309 346.833 180.302 346.817C178.96 346.826 178.96 346.826 177.59 346.835C176.363 346.822 176.363 346.822 175.11 346.81C174.399 346.809 173.688 346.808 172.955 346.807C170.504 346.325 169.646 345.51 168.166 343.52C167.876 340.831 167.757 338.365 167.778 335.675C167.774 334.526 167.774 334.526 167.77 333.353C167.768 331.733 167.773 330.114 167.785 328.495C167.801 326.015 167.785 323.537 167.767 321.057C167.769 319.484 167.772 317.91 167.778 316.337C167.772 315.595 167.766 314.853 167.76 314.088C167.829 308.945 167.829 308.945 169.397 306.837C171.471 305.283 172.538 305.206 175.11 305.202ZM181.788 319.195C181.788 323.69 181.788 328.186 181.788 332.817C206.833 332.817 231.878 332.817 257.683 332.817C257.683 328.322 257.683 323.826 257.683 319.195C232.637 319.195 207.592 319.195 181.788 319.195Z" fill="white"/>
<path d="M64.5429 224.442C65.3976 224.438 66.2523 224.433 67.1329 224.428C70.0082 224.417 72.883 224.426 75.7583 224.435C77.815 224.431 79.8717 224.426 81.9285 224.42C87.5232 224.406 93.1177 224.412 98.7124 224.421C104.559 224.428 110.405 224.421 116.251 224.417C126.07 224.411 135.889 224.418 145.708 224.432C157.071 224.448 168.434 224.443 179.797 224.427C189.541 224.414 199.286 224.412 209.03 224.42C214.855 224.424 220.68 224.425 226.505 224.415C231.98 224.407 237.456 224.412 242.931 224.429C244.944 224.433 246.958 224.432 248.971 224.426C251.712 224.418 254.452 224.428 257.193 224.442C257.997 224.436 258.8 224.429 259.628 224.423C265.06 224.479 265.06 224.479 267.128 226.178C268.693 228.112 268.779 229.16 268.751 231.624C268.758 232.286 268.766 232.948 268.773 233.631C268.269 236.083 267.385 236.859 265.467 238.435C262.64 238.722 260.021 238.829 257.193 238.806C256.339 238.81 255.484 238.815 254.603 238.82C251.728 238.831 248.853 238.822 245.978 238.813C243.921 238.817 241.864 238.822 239.808 238.828C234.213 238.842 228.619 238.836 223.024 238.827C217.178 238.82 211.331 238.827 205.485 238.831C195.666 238.837 185.847 238.829 176.028 238.816C164.665 238.8 153.302 238.805 141.939 238.821C132.195 238.834 122.451 238.836 112.706 238.828C106.881 238.824 101.056 238.823 95.2314 238.833C89.756 238.841 84.2807 238.836 78.8052 238.819C76.7918 238.815 74.7784 238.816 72.765 238.822C70.0241 238.83 67.2838 238.82 64.5429 238.806C63.7394 238.812 62.936 238.819 62.1081 238.825C56.6762 238.769 56.6762 238.769 54.6082 237.07C53.0428 235.136 52.9577 234.088 52.9857 231.624C52.9782 230.962 52.9706 230.299 52.9629 229.617C54.1805 223.696 59.6148 224.402 64.5429 224.442Z" fill="white"/>
<path d="M64.5429 190.387C65.3976 190.382 66.2523 190.378 67.1329 190.373C70.0082 190.361 72.883 190.371 75.7583 190.38C77.815 190.376 79.8717 190.371 81.9285 190.364C87.5232 190.351 93.1177 190.356 98.7124 190.365C104.559 190.373 110.405 190.366 116.251 190.361C126.07 190.356 135.889 190.363 145.708 190.377C157.071 190.393 168.434 190.388 179.797 190.372C189.541 190.358 199.286 190.356 209.03 190.364C214.855 190.369 220.68 190.369 226.505 190.36C231.98 190.351 237.456 190.357 242.931 190.374C244.944 190.378 246.958 190.377 248.971 190.37C251.712 190.362 254.452 190.372 257.193 190.387C257.997 190.38 258.8 190.374 259.628 190.367C265.06 190.424 265.06 190.424 267.128 192.122C268.693 194.057 268.779 195.104 268.751 197.569C268.758 198.231 268.766 198.893 268.773 199.575C268.269 202.027 267.385 202.804 265.467 204.38C262.64 204.667 260.021 204.773 257.193 204.75C256.339 204.755 255.484 204.759 254.603 204.764C251.728 204.776 248.853 204.767 245.978 204.757C243.921 204.761 241.864 204.766 239.808 204.773C234.213 204.786 228.619 204.781 223.024 204.772C217.178 204.764 211.331 204.771 205.485 204.776C195.666 204.781 185.847 204.774 176.028 204.76C164.665 204.744 153.302 204.749 141.939 204.766C132.195 204.779 122.451 204.781 112.706 204.773C106.881 204.768 101.056 204.768 95.2314 204.777C89.756 204.786 84.2807 204.78 78.8052 204.763C76.7918 204.759 74.7784 204.76 72.765 204.767C70.0241 204.775 67.2838 204.765 64.5429 204.75C63.7394 204.757 62.936 204.763 62.1081 204.77C56.6762 204.714 56.6762 204.714 54.6082 203.015C53.0428 201.08 52.9577 200.033 52.9857 197.569C52.9782 196.906 52.9706 196.244 52.9629 195.562C54.1805 189.641 59.6148 190.347 64.5429 190.387Z" fill="white"/>
<path d="M64.5429 156.331C65.3976 156.327 66.2523 156.322 67.1329 156.318C70.0082 156.306 72.883 156.315 75.7583 156.324C77.815 156.32 79.8717 156.315 81.9285 156.309C87.5232 156.296 93.1177 156.301 98.7124 156.31C104.559 156.317 110.405 156.311 116.251 156.306C126.07 156.301 135.889 156.308 145.708 156.322C157.071 156.337 168.434 156.332 179.797 156.316C189.541 156.303 199.286 156.301 209.03 156.309C214.855 156.313 220.68 156.314 226.505 156.304C231.98 156.296 237.456 156.302 242.931 156.319C244.944 156.322 246.958 156.321 248.971 156.315C251.712 156.307 254.452 156.317 257.193 156.331C257.997 156.325 258.8 156.318 259.628 156.312C265.06 156.368 265.06 156.368 267.128 158.067C268.693 160.001 268.779 161.049 268.751 163.513C268.758 164.175 268.766 164.838 268.773 165.52C268.269 167.972 267.385 168.748 265.467 170.324C262.64 170.611 260.021 170.718 257.193 170.695C256.339 170.699 255.484 170.704 254.603 170.709C251.728 170.72 248.853 170.711 245.978 170.702C243.921 170.706 241.864 170.711 239.808 170.717C234.213 170.731 228.619 170.726 223.024 170.716C217.178 170.709 211.331 170.716 205.485 170.72C195.666 170.726 185.847 170.719 176.028 170.705C164.665 170.689 153.302 170.694 141.939 170.71C132.195 170.723 122.451 170.725 112.706 170.718C106.881 170.713 101.056 170.712 95.2314 170.722C89.756 170.73 84.2807 170.725 78.8052 170.708C76.7918 170.704 74.7784 170.705 72.765 170.711C70.0241 170.719 67.2838 170.709 64.5429 170.695C63.7394 170.701 62.936 170.708 62.1081 170.715C56.6762 170.658 56.6762 170.658 54.6082 168.96C53.0428 167.025 52.9577 165.977 52.9857 163.513C52.9782 162.851 52.9706 162.189 52.9629 161.506C54.1805 155.585 59.6148 156.291 64.5429 156.331Z" fill="white"/>
<path d="M183.291 413.199C184.037 413.194 184.782 413.189 185.55 413.183C188.016 413.17 190.481 413.179 192.947 413.189C194.659 413.187 196.371 413.184 198.084 413.18C201.673 413.176 205.262 413.182 208.851 413.196C213.455 413.213 218.058 413.203 222.662 413.185C226.198 413.175 229.734 413.178 233.27 413.186C234.967 413.188 236.665 413.185 238.363 413.179C240.734 413.171 243.105 413.182 245.476 413.199C246.18 413.193 246.884 413.187 247.609 413.181C250.462 413.217 252.356 413.243 254.712 414.942C255.989 416.878 256.128 418.078 256.101 420.388C256.113 421.381 256.113 421.381 256.124 422.394C255.594 424.972 254.965 425.651 252.818 427.199C250.293 427.487 248.001 427.597 245.476 427.576C244.731 427.581 243.985 427.587 243.217 427.592C240.751 427.605 238.286 427.596 235.82 427.586C234.108 427.588 232.396 427.591 230.684 427.595C227.094 427.599 223.505 427.593 219.916 427.579C215.312 427.562 210.709 427.572 206.105 427.59C202.569 427.6 199.034 427.597 195.498 427.589C193.8 427.587 192.102 427.59 190.405 427.596C188.033 427.604 185.663 427.593 183.291 427.576C182.587 427.582 181.884 427.588 181.159 427.594C178.305 427.558 176.412 427.532 174.056 425.833C172.778 423.897 172.64 422.697 172.666 420.388C172.658 419.725 172.651 419.063 172.643 418.381C173.802 412.747 178.472 413.158 183.291 413.199Z" fill="white"/>
<path d="M409.654 425.838C410.335 425.835 411.015 425.832 411.715 425.83C413.151 425.828 414.588 425.833 416.024 425.845C418.221 425.861 420.418 425.845 422.615 425.827C424.011 425.829 425.408 425.832 426.804 425.838C428.074 425.841 429.345 425.845 430.654 425.848C433.797 426.226 433.797 426.226 435.67 427.592C436.975 429.528 437.108 430.713 437.081 433.037C437.092 434.03 437.092 434.03 437.104 435.044C436.577 437.607 435.921 438.299 433.797 439.848C430.654 440.226 430.654 440.226 426.804 440.236C426.124 440.238 425.444 440.241 424.743 440.244C423.307 440.246 421.871 440.241 420.435 440.228C418.237 440.213 416.041 440.228 413.843 440.247C412.447 440.245 411.051 440.241 409.654 440.236C408.384 440.232 407.113 440.229 405.804 440.226C402.661 439.848 402.661 439.848 400.789 438.482C399.484 436.545 399.351 435.361 399.377 433.037C399.37 432.375 399.362 431.712 399.354 431.03C400.492 425.497 404.794 425.851 409.654 425.838Z" fill="white"/>
</svg>
