<?xml version="1.0" encoding="UTF-8"?>
<svg version="1.1" xmlns="http://www.w3.org/2000/svg" width="512" height="512">
<path d="M0 0 C3.15817587 1.9239047 6.22995371 3.940314 9.29321289 6.01196289 C10.40559507 6.74709123 11.51896691 7.48072412 12.63330078 8.21289062 C15.82189077 10.31842202 18.99567384 12.44485765 22.16821289 14.57446289 C23.70469806 15.5894169 25.24228283 16.60271045 26.78149414 17.61352539 C30.26368961 19.90515348 33.71779673 22.23527098 37.16821289 24.57446289 C38.6802832 25.57413086 38.6802832 25.57413086 40.22290039 26.59399414 C41.13297852 27.20629883 42.04305664 27.81860352 42.98071289 28.44946289 C43.7502832 28.96250977 44.51985352 29.47555664 45.31274414 30.00415039 C48.07660669 32.3432509 48.9829228 34.39250714 49.53930664 37.94165039 C49.65704499 42.38800446 49.49260345 44.99055989 47.29321289 48.94946289 C43.7525317 52.54116254 38.91301319 54.14682386 34.16821289 55.57446289 C33.50821289 55.57446289 32.84821289 55.57446289 32.16821289 55.57446289 C32.30098633 56.54383789 32.43375977 57.51321289 32.57055664 58.51196289 C39.12596416 107.70230346 32.82978572 159.58949864 9.1550293 203.71850586 C8.16749722 205.5758089 7.21731391 207.44843473 6.27368164 209.32836914 C-4.4515748 230.44895873 -19.48123672 248.59665354 -35.83178711 265.57446289 C-36.96100586 266.76555664 -36.96100586 266.76555664 -38.11303711 267.98071289 C-43.29330314 273.33082371 -48.9977174 277.95807219 -54.83178711 282.57446289 C-56.28004883 283.7481543 -56.28004883 283.7481543 -57.75756836 284.94555664 C-66.96466203 292.25741629 -76.75172182 298.53515105 -86.83178711 304.57446289 C-87.4627832 304.95344727 -88.0937793 305.33243164 -88.74389648 305.72290039 C-122.3976551 325.59393212 -162.1577716 334.22011993 -200.83178711 335.57446289 C-201.90557617 335.61700195 -202.97936523 335.65954102 -204.08569336 335.70336914 C-258.5658957 336.79152232 -314.89716512 317.36859269 -356.83178711 282.57446289 C-357.42411133 282.08365234 -358.01643555 281.5928418 -358.62670898 281.0871582 C-371.53216801 270.31022702 -383.53605293 258.90859982 -393.83178711 245.57446289 C-394.60006836 244.63473633 -395.36834961 243.69500977 -396.15991211 242.72680664 C-402.3310993 234.88335719 -402.3310993 234.88335719 -402.83178711 230.32446289 C-401.34287868 224.74105629 -398.44284119 222.86093233 -393.83178711 219.57446289 C-393.19337891 219.11458984 -392.5549707 218.6547168 -391.8972168 218.1809082 C-387.58062739 215.07620078 -383.23406511 212.01759622 -378.859375 208.99536133 C-376.89505636 207.61880089 -374.97048411 206.19683477 -373.04272461 204.76977539 C-369.9617242 202.66330066 -367.79891697 201.45421763 -363.99584961 201.71118164 C-358.6892257 203.82808396 -355.2940382 209.21322698 -351.83178711 213.57446289 C-350.31179426 215.4501443 -348.79099087 217.32516924 -347.26928711 219.19946289 C-346.53323242 220.10696289 -345.79717773 221.01446289 -345.03881836 221.94946289 C-315.87064274 256.64152309 -269.02198543 277.69190061 -224.50610352 282.37158203 C-197.06434497 284.45338789 -169.82626092 281.83565194 -143.83178711 272.57446289 C-143.00485352 272.28055664 -142.17791992 271.98665039 -141.32592773 271.68383789 C-117.44872142 263.02123883 -96.2467255 250.07018639 -77.83178711 232.57446289 C-76.46247493 231.40112566 -75.08786924 230.23392323 -73.70678711 229.07446289 C-40.80607813 200.24463271 -21.46774013 153.51328442 -17.83178711 110.57446289 C-17.71541009 107.58191085 -17.71387187 104.596243 -17.73413086 101.60180664 C-17.73554581 100.79328751 -17.73696075 99.98476837 -17.73841858 99.15174866 C-17.74395297 96.60511348 -17.75649251 94.05857086 -17.76928711 91.51196289 C-17.77431061 89.77042771 -17.77887202 88.02889114 -17.78295898 86.28735352 C-17.79390077 82.04968841 -17.81111885 77.81209127 -17.83178711 73.57446289 C-18.50870605 73.73043945 -19.185625 73.88641602 -19.88305664 74.04711914 C-20.77621582 74.24176758 -21.669375 74.43641602 -22.58959961 74.63696289 C-23.47276855 74.83418945 -24.3559375 75.03141602 -25.26586914 75.23461914 C-29.45229283 75.78909124 -31.27795655 74.84891445 -34.83178711 72.57446289 C-38.5239235 68.59831601 -39.21060394 65.55472241 -39.1060791 60.19076538 C-38.57931543 55.16629094 -36.88195694 50.50991908 -35.25366211 45.75024414 C-34.70189301 44.09269356 -34.70189301 44.09269356 -34.13897705 42.4016571 C-33.36190856 40.07744364 -32.57823507 37.75542915 -31.78833008 35.43554688 C-30.58382804 31.89296551 -29.40359151 28.34297058 -28.22631836 24.79125977 C-27.46602535 22.52710863 -26.70435314 20.26342007 -25.94116211 18.00024414 C-25.589953 16.9438826 -25.2387439 15.88752106 -24.87689209 14.79914856 C-20.710261 2.64964174 -20.710261 2.64964174 -15.14428711 -1.36303711 C-9.61489913 -3.13661439 -5.11391915 -2.57437485 0 0 Z M-6.83178711 17.57446289 C-11.12178711 29.78446289 -15.41178711 41.99446289 -19.83178711 54.57446289 C-19.17178711 54.90446289 -18.51178711 55.23446289 -17.83178711 55.57446289 C-16.34678711 55.07946289 -16.34678711 55.07946289 -14.83178711 54.57446289 C-12.89428711 54.37133789 -12.89428711 54.37133789 -10.83178711 54.32446289 C-9.81084961 54.28579102 -9.81084961 54.28579102 -8.76928711 54.24633789 C-6.18263559 54.68439984 -5.38844247 55.48357078 -3.83178711 57.57446289 C-3.13647461 59.73852539 -3.13647461 59.73852539 -2.70678711 62.19946289 C-2.55983398 62.99610352 -2.41288086 63.79274414 -2.26147461 64.61352539 C-0.87179991 74.18964743 -0.58932216 83.60355737 -0.58178711 93.26196289 C-0.58111237 94.03969055 -0.58043762 94.81741821 -0.57974243 95.61871338 C-0.59741656 108.47986284 -1.31586444 120.9304657 -3.83178711 133.57446289 C-3.99807617 134.43072266 -4.16436523 135.28698242 -4.33569336 136.16918945 C-12.12445231 175.04086607 -31.14539894 209.61052945 -58.45043945 238.13012695 C-59.6768675 239.41247907 -60.89008198 240.7074395 -62.10131836 242.00415039 C-91.23663392 272.38271689 -132.06189911 290.10281359 -172.83178711 297.57446289 C-173.5359375 297.70723633 -174.24008789 297.84000977 -174.96557617 297.97680664 C-223.61705542 306.71101068 -279.02276318 294.12176052 -319.59619141 266.32275391 C-321.3529927 265.08858957 -323.09539646 263.83715746 -324.83178711 262.57446289 C-325.39446289 262.16728027 -325.95713867 261.76009766 -326.53686523 261.34057617 C-334.81216284 255.29711578 -342.44348622 248.66683718 -349.83178711 241.57446289 C-350.32485352 241.10331055 -350.81791992 240.6321582 -351.32592773 240.14672852 C-357.02618292 234.6705987 -362.37694698 229.13454393 -366.83178711 222.57446289 C-371.76233538 225.29129561 -376.29463073 228.24104187 -380.83178711 231.57446289 C-380.35146322 235.86671894 -377.62316173 238.34475606 -374.76928711 241.32446289 C-374.23907959 241.88520508 -373.70887207 242.44594727 -373.16259766 243.02368164 C-371.39446928 244.88256801 -369.61303455 246.72815135 -367.83178711 248.57446289 C-367.21787109 249.22092773 -366.60395508 249.86739258 -365.97143555 250.53344727 C-347.04689431 270.4222343 -324.83626659 286.1818894 -299.83178711 297.57446289 C-299.11619629 297.90397949 -298.40060547 298.23349609 -297.66333008 298.57299805 C-241.67206372 324.0745746 -180.38829259 323.77720126 -123.08764648 302.81030273 C-116.09693935 300.15681147 -109.39508386 297.15474712 -102.83178711 293.57446289 C-102.14938965 293.20385742 -101.46699219 292.83325195 -100.76391602 292.45141602 C-71.6885359 276.43830862 -45.39717208 254.48962726 -25.83178711 227.57446289 C-25.20401367 226.73012695 -24.57624023 225.88579102 -23.92944336 225.01586914 C-15.22222621 212.99161688 -8.17450759 199.96697263 -1.83178711 186.57446289 C-1.3200293 185.51614258 -0.80827148 184.45782227 -0.28100586 183.36743164 C14.88911636 150.20578981 20.3513919 112.44053118 17.29321289 76.26196289 C17.206604 75.17689453 17.11999512 74.09182617 17.03076172 72.97387695 C16.42855247 65.73442686 15.54688573 58.61050522 14.24243164 51.46508789 C14.14910162 47.83012929 14.85970997 46.36108671 17.16821289 43.57446289 C19.64868164 42.21118164 19.64868164 42.21118164 22.35571289 41.26196289 C23.25676758 40.93583008 24.15782227 40.60969727 25.08618164 40.27368164 C25.77325195 40.04293945 26.46032227 39.81219727 27.16821289 39.57446289 C23.30517817 36.37847971 19.2877076 33.57442981 15.10571289 30.82446289 C13.77746026 29.9470519 12.44933715 29.06944482 11.12133789 28.19165039 C10.46069336 27.755625 9.80004883 27.31959961 9.11938477 26.87036133 C7.26775828 25.64057737 5.42696932 24.39644656 3.59008789 23.14477539 C2.52274414 22.42032227 1.45540039 21.69586914 0.35571289 20.94946289 C-1.07708008 19.97106445 -1.07708008 19.97106445 -2.53881836 18.97290039 C-4.66874258 17.40090122 -4.66874258 17.40090122 -6.83178711 17.57446289 Z " fill="#9900FA" transform="translate(461.831787109375,161.425537109375)"/>
<path d="M0 0 C54.51339539 -1.15219858 110.83776095 18.33323632 152.76953125 53.125 C153.36185547 53.61581055 153.95417969 54.10662109 154.56445312 54.61230469 C167.46991215 65.38923587 179.47379708 76.79086307 189.76953125 90.125 C190.5378125 91.06472656 191.30609375 92.00445312 192.09765625 92.97265625 C198.26884344 100.8161057 198.26884344 100.8161057 198.76953125 105.375 C197.28062282 110.9584066 194.38058533 112.83853056 189.76953125 116.125 C189.13112305 116.58487305 188.49271484 117.04474609 187.83496094 117.51855469 C183.51837153 120.62326211 179.17180925 123.68186667 174.79711914 126.70410156 C172.8328005 128.080662 170.90822825 129.50262812 168.98046875 130.9296875 C165.89946834 133.03616223 163.73666111 134.24524526 159.93359375 133.98828125 C154.62696984 131.87137893 151.23178234 126.48623591 147.76953125 122.125 C146.2495384 120.24931859 144.72873501 118.37429365 143.20703125 116.5 C142.47097656 115.5925 141.73492187 114.685 140.9765625 113.75 C121.18127401 90.20586926 92.47343266 73.29071007 63.76953125 63.125 C63.08084961 62.87669434 62.39216797 62.62838867 61.68261719 62.37255859 C42.59722733 55.59259366 22.69450581 52.89233447 2.51953125 52.875 C1.45756531 52.87398788 1.45756531 52.87398788 0.37414551 52.87295532 C-11.70945727 52.89117095 -23.37477543 53.70041354 -35.23046875 56.125 C-36.02710938 56.2806543 -36.82375 56.43630859 -37.64453125 56.59667969 C-70.25850923 63.16404422 -101.08355926 79.31217391 -125.23046875 102.125 C-126.55988823 103.25462233 -127.89310593 104.37979312 -129.23046875 105.5 C-162.42192828 134.63398652 -182.56362917 181.62304974 -186.23046875 225.125 C-186.34668255 228.11755661 -186.34838398 231.10322064 -186.328125 234.09765625 C-186.32671005 234.90617538 -186.3252951 235.71469452 -186.32383728 236.54771423 C-186.31830289 239.09434942 -186.30576335 241.64089203 -186.29296875 244.1875 C-186.28794525 245.92903518 -186.28338384 247.67057175 -186.27929688 249.41210938 C-186.26835509 253.64977448 -186.25113701 257.88737163 -186.23046875 262.125 C-185.5535498 261.96902344 -184.87663086 261.81304687 -184.17919922 261.65234375 C-183.28604004 261.45769531 -182.39288086 261.26304687 -181.47265625 261.0625 C-180.5894873 260.86527344 -179.70631836 260.66804688 -178.79638672 260.46484375 C-174.60996303 259.91037165 -172.78429931 260.85054844 -169.23046875 263.125 C-165.53833236 267.10114688 -164.85165191 270.14474048 -164.95617676 275.50869751 C-165.48294043 280.53317195 -167.18029892 285.18954381 -168.80859375 289.94921875 C-169.17643982 291.05425247 -169.54428589 292.15928619 -169.92327881 293.29780579 C-170.7003473 295.62201925 -171.48402079 297.94403374 -172.27392578 300.26391602 C-173.47842782 303.80649738 -174.65866434 307.35649231 -175.8359375 310.90820312 C-176.59623051 313.17235426 -177.35790272 315.43604282 -178.12109375 317.69921875 C-178.47230286 318.75558029 -178.82351196 319.81194183 -179.18536377 320.90031433 C-183.35199486 333.04982115 -183.35199486 333.04982115 -188.91796875 337.0625 C-194.44735673 338.83607728 -198.94833671 338.27383774 -204.06225586 335.69946289 C-207.22043173 333.77555819 -210.29220957 331.75914889 -213.35546875 329.6875 C-214.46785093 328.95237166 -215.58122277 328.21873877 -216.69555664 327.48657227 C-219.88414663 325.38104087 -223.0579297 323.25460524 -226.23046875 321.125 C-227.76695392 320.11004599 -229.30453869 319.09675244 -230.84375 318.0859375 C-234.32594547 315.79430941 -237.78005259 313.46419191 -241.23046875 311.125 C-242.74253906 310.12533203 -242.74253906 310.12533203 -244.28515625 309.10546875 C-245.19523438 308.49316406 -246.1053125 307.88085938 -247.04296875 307.25 C-247.81253906 306.73695313 -248.58210937 306.22390625 -249.375 305.6953125 C-252.13886255 303.35621199 -253.04517866 301.30695575 -253.6015625 297.7578125 C-253.71930085 293.31145844 -253.5548593 290.708903 -251.35546875 286.75 C-247.81478756 283.15830035 -242.97526905 281.55263903 -238.23046875 280.125 C-237.57046875 280.125 -236.91046875 280.125 -236.23046875 280.125 C-236.36324219 279.14402344 -236.49601562 278.16304688 -236.6328125 277.15234375 C-243.13822114 227.9498107 -236.90599662 176.135976 -213.21728516 131.98095703 C-212.22975307 130.12365399 -211.27956977 128.25102816 -210.3359375 126.37109375 C-200.08935078 106.19311907 -185.86341485 88.37974044 -170.23046875 72.125 C-169.52639893 71.38805908 -169.52639893 71.38805908 -168.80810547 70.63623047 C-162.3559545 63.91288577 -155.6076332 57.81457781 -148.23046875 52.125 C-147.68438965 51.70250977 -147.13831055 51.28001953 -146.57568359 50.84472656 C-131.8311306 39.51422246 -116.08727936 29.96868608 -99.23046875 22.125 C-98.11800781 21.60421875 -97.00554687 21.0834375 -95.859375 20.546875 C-65.28989121 6.86442054 -33.24019324 1.28619853 0 0 Z M-142.23046875 70.125 C-143.01164062 70.7953125 -143.7928125 71.465625 -144.59765625 72.15625 C-157.05190691 83.09965714 -168.40217543 94.77027586 -178.23046875 108.125 C-178.86210937 108.97320312 -179.49375 109.82140625 -180.14453125 110.6953125 C-188.83877654 122.7243368 -195.88904633 135.73523107 -202.23046875 149.125 C-202.99810547 150.71248047 -202.99810547 150.71248047 -203.78125 152.33203125 C-212.2860611 170.92341078 -217.22614573 190.9733404 -220.23046875 211.125 C-220.41609375 212.31480469 -220.60171875 213.50460938 -220.79296875 214.73046875 C-223.71550239 237.40619848 -222.58013784 260.9764397 -218.40234375 283.41796875 C-218.19811594 286.63455676 -218.60600302 288.34429689 -220.23046875 291.125 C-222.32421875 292.41796875 -222.32421875 292.41796875 -224.73046875 293.3125 C-228.31140179 294.67473615 -228.31140179 294.67473615 -231.23046875 297.125 C-229.65072266 298.14207031 -229.65072266 298.14207031 -228.0390625 299.1796875 C-226.5818956 300.11958139 -225.12487531 301.05970261 -223.66796875 302 C-222.90669678 302.49089111 -222.1454248 302.98178223 -221.36108398 303.48754883 C-217.49573213 305.98691617 -213.64639209 308.50539158 -209.83203125 311.08203125 C-208.8102478 311.77159912 -208.8102478 311.77159912 -207.76782227 312.47509766 C-206.46871083 313.35487667 -205.17223702 314.23856532 -203.87866211 315.12646484 C-200.82875564 317.39159736 -200.82875564 317.39159736 -197.23046875 318.125 C-190.79546875 299.81 -190.79546875 299.81 -184.23046875 281.125 C-184.89046875 280.795 -185.55046875 280.465 -186.23046875 280.125 C-187.22046875 280.455 -188.21046875 280.785 -189.23046875 281.125 C-191.16796875 281.328125 -191.16796875 281.328125 -193.23046875 281.375 C-193.91109375 281.40078125 -194.59171875 281.4265625 -195.29296875 281.453125 C-197.87962027 281.01506305 -198.67381339 280.21589211 -200.23046875 278.125 C-200.92578125 275.9609375 -200.92578125 275.9609375 -201.35546875 273.5 C-201.50242187 272.70335937 -201.649375 271.90671875 -201.80078125 271.0859375 C-203.19045595 261.50981546 -203.4729337 252.09590552 -203.48046875 242.4375 C-203.48148087 241.27090851 -203.48148087 241.27090851 -203.48251343 240.08074951 C-203.4648393 227.21960005 -202.74639142 214.76899719 -200.23046875 202.125 C-200.06417969 201.26874023 -199.89789063 200.41248047 -199.7265625 199.53027344 C-191.93780355 160.65859682 -172.91685692 126.08893344 -145.61181641 97.56933594 C-144.38538836 96.28698382 -143.17217388 94.99202339 -141.9609375 93.6953125 C-127.86533622 78.99822916 -110.16829968 67.54448657 -92.23046875 58.125 C-91.57626953 57.78082031 -90.92207031 57.43664062 -90.24804688 57.08203125 C-72.08417619 47.68506346 -52.3696892 41.50765167 -32.23046875 38.125 C-30.99039063 37.90070312 -29.7503125 37.67640625 -28.47265625 37.4453125 C-6.06049532 34.0857894 18.57772143 34.73759413 40.76953125 39.125 C41.62724121 39.29128906 42.48495117 39.45757812 43.36865234 39.62890625 C71.16129411 45.19878064 97.85687047 56.36321039 120.76953125 73.125 C121.32930664 73.53073242 121.88908203 73.93646484 122.46582031 74.35449219 C130.74459108 80.39938503 138.37855564 87.03005812 145.76953125 94.125 C146.26259766 94.59615234 146.75566406 95.06730469 147.26367188 95.55273438 C152.96392706 101.02886419 158.31469112 106.56491896 162.76953125 113.125 C167.70007952 110.40816728 172.23237487 107.45842102 176.76953125 104.125 C176.28920736 99.83274395 173.56090587 97.35470683 170.70703125 94.375 C169.91171997 93.53388672 169.91171997 93.53388672 169.1003418 92.67578125 C167.33221342 90.81689488 165.55077869 88.97131154 163.76953125 87.125 C163.15561523 86.47853516 162.54169922 85.83207031 161.90917969 85.16601562 C142.98463845 65.27722859 120.77401073 49.51757349 95.76953125 38.125 C95.05394043 37.7954834 94.33834961 37.4659668 93.60107422 37.12646484 C16.2545439 1.89849819 -77.71154997 14.30298876 -142.23046875 70.125 Z " fill="#9900FA" transform="translate(254.23046875,14.875)"/>
<path d="M0 0 C3.58114129 2.78250609 6.81957796 5.77048054 10 9 C10.72058594 9.721875 11.44117188 10.44375 12.18359375 11.1875 C24.74293372 24.48283154 30.64475336 42.43849486 30.23828125 60.55859375 C28.8099237 81.18782325 19.3457959 98.3376062 4 112 C0.74886469 114.46669123 -2.57763653 116.77796442 -6 119 C-5.01902344 119.3403125 -4.03804687 119.680625 -3.02734375 120.03125 C15.87749873 126.75244696 31.32676419 136.18691939 46 150 C46.60328125 150.53882813 47.2065625 151.07765625 47.828125 151.6328125 C68.04880441 170.43615457 79.44001294 199.95784653 81.19921875 227.0703125 C81.02725457 232.98950065 78.80877102 236.2532783 74.7890625 240.50390625 C70.86013006 243.78945456 66.23720488 243.14545837 61.39675903 243.14044189 C60.06288424 243.14489858 60.06288424 243.14489858 58.70206249 243.1494453 C55.71038249 243.15814471 52.71874244 243.15964159 49.72705078 243.16113281 C47.58696405 243.16576006 45.44687815 243.17078459 43.30679321 243.17617798 C37.48450709 243.18931185 31.6622325 243.19574871 25.83993387 243.20018864 C22.20474879 243.2031174 18.56956688 243.2072218 14.93438339 243.21169281 C3.56742051 243.22536952 -7.79953515 243.23503568 -19.16650569 243.2388947 C-32.30074875 243.24337788 -45.43488786 243.26093717 -58.56909931 243.2898953 C-68.71352982 243.31148757 -78.85793104 243.32159765 -89.00238431 243.32293582 C-95.06507492 243.32398549 -101.12766784 243.32992777 -107.19033432 243.34775543 C-112.89155069 243.36419397 -118.59259549 243.36641214 -124.29382706 243.35761642 C-126.38805856 243.35684382 -128.48229912 243.36121801 -130.57650757 243.37107468 C-133.43214179 243.38372851 -136.28716231 243.37795313 -139.14279175 243.36749268 C-139.97440791 243.37554908 -140.80602407 243.38360548 -141.66284072 243.39190602 C-147.94462677 243.33796885 -151.09866725 241.77169643 -155.75 237.4375 C-159.78458901 232.16444537 -159.30838294 226.30515917 -158.58984375 219.984375 C-154.3659507 188.73728454 -138.52627307 159.9838122 -113.7265625 140.34765625 C-102.38390803 131.74977349 -85.60913559 120 -71 120 C-71 119.34 -71 118.68 -71 118 C-71.73734375 117.73316406 -72.4746875 117.46632812 -73.234375 117.19140625 C-87.64904683 110.98169593 -97.10783181 96.85858102 -103.31640625 83.078125 C-109.93461617 66.17848935 -109.9833427 46.98456511 -102.75 30.25 C-101.8654659 28.48354105 -100.94835957 26.73302969 -100 25 C-99.51917969 24.10925781 -99.03835937 23.21851563 -98.54296875 22.30078125 C-88.73162137 5.56658536 -73.7120202 -5.06404236 -55 -10 C-36.07088946 -14.22774231 -16.11771884 -10.64021283 0 0 Z M-60 10 C-60.78503906 10.350625 -61.57007813 10.70125 -62.37890625 11.0625 C-75.0474398 17.40778289 -83.81127156 28.09129043 -88.375 41.375 C-92.56148109 54.88095203 -91.49336857 68.01621362 -85.6796875 80.93359375 C-84.25463201 83.42938766 -82.7290912 85.70524324 -81 88 C-80.41347656 88.77859375 -79.82695312 89.5571875 -79.22265625 90.359375 C-71.24729412 100.07985727 -59.49846357 107.05053119 -47 109 C-30.0605656 110.14303706 -16.67774506 106.22044182 -3.375 95.4375 C7.27863494 85.46268074 12.61850995 71.93439949 13.5 57.5 C12.57185172 41.38115814 5.73341339 27.95624061 -6 17 C-21.63051035 5.38306567 -42.04032762 1.78986406 -60 10 Z M-100 152 C-100.52787109 152.40589355 -101.05574219 152.81178711 -101.59960938 153.22998047 C-122.33264696 169.37525622 -136.57448151 191.95630125 -141 218 C-141.33 220.97 -141.66 223.94 -142 227 C-74.02 227 -6.04 227 64 227 C60.81205867 204.68441069 54.47793022 186.44328943 40 169 C39.30261719 168.13890625 38.60523438 167.2778125 37.88671875 166.390625 C21.34771798 146.91874841 -3.66789515 134.53034162 -29 132 C-54.36001094 130.03365328 -79.69683545 136.32393787 -100 152 Z " fill="#9900FA" transform="translate(295,119)"/>
</svg>
