<?xml version="1.0" encoding="UTF-8"?>
<svg version="1.1" xmlns="http://www.w3.org/2000/svg" width="512" height="512">
<path d="M0 0 C0.92039062 0.41894531 1.84078125 0.83789062 2.7890625 1.26953125 C21.40647175 10.57823588 34.86218874 27.19103805 42.31640625 46.390625 C49.78083809 69.19708094 47.12759471 89.0193399 36.61279297 110.11376953 C28.89218781 124.99763439 19.30377686 138.79950097 9 152 C8.35804688 152.82371094 7.71609375 153.64742187 7.0546875 154.49609375 C-1.02249674 164.71520336 -9.49114477 174.57627382 -18.34765625 184.125 C-21.69160432 187.74966241 -24.96070345 191.43826594 -28.22265625 195.13671875 C-30.41789379 197.43809965 -31.34158649 197.9667416 -34.52394676 198.12749195 C-36.13490699 198.12937787 -36.13490699 198.12937787 -37.77841187 198.13130188 C-39.00911407 198.13531006 -40.23981628 198.13931824 -41.5078125 198.14344788 C-42.87939455 198.14297273 -44.25097659 198.14243661 -45.62255859 198.1418457 C-47.06149401 198.14487668 -48.50042846 198.14839796 -49.93936157 198.15237427 C-53.04413332 198.1602724 -56.14889354 198.1654118 -59.25367355 198.16866493 C-64.17188782 198.17457587 -69.09002973 198.19112011 -74.00820923 198.21000671 C-75.69285388 198.2163447 -77.37749858 198.22267031 -79.06214333 198.22898388 C-80.3280077 198.2337326 -80.3280077 198.2337326 -81.61944509 198.23857725 C-93.07033956 198.28061028 -104.52120157 198.31358889 -115.97216797 198.32592773 C-123.69333481 198.33433312 -131.4143236 198.35692042 -139.13540137 198.3952834 C-143.21813042 198.41497148 -147.30059374 198.42747317 -151.38337326 198.42244911 C-155.23307665 198.41777016 -159.08227853 198.431783 -162.93188095 198.45946121 C-164.33620049 198.46632056 -165.74057249 198.46655693 -167.14488983 198.45926094 C-178.97716435 198.40405284 -189.25587577 199.96914306 -198.4765625 207.828125 C-200 209 -200 209 -202 209 C-202 209.66 -202 210.32 -202 211 C-201.34 211.185625 -200.68 211.37125 -200 211.5625 C-190.47485245 216.1266332 -183.51035403 225.2079598 -180 235 C-176.81832377 248.45583906 -180.04059591 259.46403127 -187 271 C-187.66 271.99 -188.32 272.98 -189 274 C-188.4121875 274.28101563 -187.824375 274.56203125 -187.21875 274.8515625 C-185.18101414 275.90630606 -183.38654669 277.07593057 -181.5 278.375 C-173.45818759 283.47468592 -163.73300338 286.09563482 -154.25439453 286.15771484 C-153.1219632 286.16797699 -151.98953186 286.17823914 -150.82278442 286.18881226 C-149.60509369 286.19611359 -148.38740295 286.20341492 -147.1328125 286.2109375 C-144.52863979 286.23902839 -141.92447321 286.26769297 -139.3203125 286.296875 C-135.23506043 286.33904272 -131.14984473 286.37586814 -127.06445312 286.40136719 C-96.37771042 286.60376053 -71.53147728 290.50131963 -49 313 C-48.33097656 313.65742188 -47.66195313 314.31484375 -46.97265625 314.9921875 C-36.92374909 325.61076059 -30.12994218 340.61989285 -28.3125 355.0625 C-27.74808937 357.96595852 -27.27998395 358.78217666 -24.90625 360.62890625 C-23.15495428 361.63906628 -21.38438907 362.6164314 -19.59765625 363.5625 C-11.42559416 368.08478398 -7.43217155 375.54626203 -4 384 C-1.19252434 394.99169258 -2.77180982 406.78140589 -8.5078125 416.57421875 C-15.53795673 426.20388143 -24.20802076 431.90894195 -36 434 C-38.45912221 433.9948065 -40.91880529 433.93256903 -43.375 433.8125 C-47.97953815 433.57732161 -47.97953815 433.57732161 -52.0859375 435.296875 C-53.78103116 437.05156412 -53.78103116 437.05156412 -55.32421875 439.00390625 C-65.776237 451.45374617 -85.18135815 457.83380391 -100.88574219 459.38342285 C-104.78247291 459.54978636 -108.66229486 459.60573742 -112.5625 459.609375 C-113.97454669 459.62441482 -115.38657618 459.6411537 -116.79858398 459.65948486 C-120.45459961 459.702522 -124.1103785 459.72301281 -127.76660156 459.73822021 C-131.52162322 459.75802561 -135.27639737 459.79996598 -139.03125 459.83984375 C-146.35409903 459.91445294 -153.67684202 459.96515898 -161 460 C-161.38526855 461.00994019 -161.38526855 461.00994019 -161.77832031 462.0402832 C-162.12475586 462.93062256 -162.47119141 463.82096191 -162.828125 464.73828125 C-163.1674707 465.61782471 -163.50681641 466.49736816 -163.85644531 467.40356445 C-167.76708461 476.28265262 -175.19947836 483.64933181 -184.125 487.375 C-194.70777442 491.14995307 -204.45243414 490.67841134 -215 487 C-224.51452794 482.33982305 -232.24159129 473.91625349 -236 464 C-236.33 462.68 -236.66 461.36 -237 460 C-278.91 459.67 -320.82 459.34 -364 459 C-364.33 459.66 -364.66 460.32 -365 461 C-368.76121354 457.28593764 -372.51106516 453.56071122 -376.2421875 449.81640625 C-376.87237793 449.18420166 -377.50256836 448.55199707 -378.15185547 447.90063477 C-381.24721158 444.71736563 -384.14646913 441.39915106 -387 438 C-387.86496094 437.01257813 -388.72992188 436.02515625 -389.62109375 435.0078125 C-397.50925156 425.98903184 -404.87151291 416.62845315 -412 407 C-412.51594727 406.30503418 -413.03189453 405.61006836 -413.56347656 404.89404297 C-431.51094285 380.55955773 -448.57257699 353.42162075 -444 322 C-440.01598297 299.70308652 -427.42538663 280.0443323 -409.04296875 266.8828125 C-389.82733962 254.32512639 -367.17765413 249.73529963 -344.5625 254.1875 C-322.51734008 259.73117124 -304.35282703 271.93297689 -291.875 291.0625 C-281.38920139 308.71084215 -276.62719887 329.41780138 -281.5625 349.625 C-283.93461446 357.47951885 -287.21423998 364.74257426 -291 372 C-291.33660645 372.64582031 -291.67321289 373.29164063 -292.02001953 373.95703125 C-302.09880175 393.03287852 -315.03849228 410.2132843 -329.06640625 426.5390625 C-333.10745417 431.30653048 -337.04245028 436.16299479 -341 441 C-306.68 441 -272.36 441 -237 441 C-235.68 438.03 -234.36 435.06 -233 432 C-227.20194538 422.0033541 -219.02836056 415.97935898 -208.046875 412.35546875 C-196.95557172 410.4293073 -187.21270116 412.31839931 -177.625 418 C-176.75875 418.66 -175.8925 419.32 -175 420 C-173.79537109 420.88558594 -173.79537109 420.88558594 -172.56640625 421.7890625 C-169.85334599 424.1263412 -168.201463 426.34416948 -166.3125 429.375 C-165.44044922 430.74785156 -165.44044922 430.74785156 -164.55078125 432.1484375 C-162.97510143 435.04578326 -162.00289609 437.86632253 -161 441 C-153.43616186 441.09352406 -145.87238518 441.1641761 -138.30809689 441.20724869 C-134.79397296 441.22794294 -131.28025043 441.25591769 -127.76635742 441.30175781 C-106.47822756 441.9603087 -106.47822756 441.9603087 -86 437 C-85.26112549 436.7014209 -84.52225098 436.4028418 -83.76098633 436.09521484 C-77.61211112 433.31194623 -71.90612767 429.62577751 -67 425 C-67.86625 424.0925 -68.7325 423.185 -69.625 422.25 C-77.19784934 413.45398259 -80.40991049 403.9079608 -80.26953125 392.51171875 C-79.48455983 382.28433746 -75.3315453 374.11012279 -68 367 C-61.26123902 361.58857073 -54.43084156 358.71225989 -46 357 C-49.16585596 345.28633294 -53.19104211 335.39633928 -61.6796875 326.55859375 C-63 325 -63 325 -63 323 C-63.58007812 322.73703125 -64.16015625 322.4740625 -64.7578125 322.203125 C-67.10831396 320.94188032 -68.8592045 319.49127082 -70.875 317.75 C-90.50084525 302.38229083 -116.08195745 304.5541295 -139.53979492 304.56420898 C-168.29909718 304.53754873 -168.29909718 304.53754873 -180 300 C-181.12571411 299.57666382 -181.12571411 299.57666382 -182.27416992 299.14477539 C-188.65212579 296.51056252 -194.15549683 293.05216946 -199.3125 288.5 C-202.43065697 285.77689118 -202.43065697 285.77689118 -206.296875 284.71875 C-208.58350124 285.00260705 -210.75743071 285.47607231 -213 286 C-224.03580024 287.03027219 -234.20055045 283.6334312 -243 277 C-250.63849484 270.07621813 -255.46301171 261.13050023 -256.23828125 250.8359375 C-256.49546156 238.84321351 -254.07012752 230.40473211 -246.203125 221.2265625 C-239.71323017 214.66762624 -231.73907278 210.30205646 -222.4375 209.8125 C-221.633125 209.874375 -220.82875 209.93625 -220 210 C-219.6596875 208.700625 -219.6596875 208.700625 -219.3125 207.375 C-217.82691878 203.55493401 -215.76787298 200.93845949 -213 198 C-212.50943115 197.47599609 -212.0188623 196.95199219 -211.51342773 196.41210938 C-202.80515454 187.41099159 -191.23735454 182.04760602 -178.65960693 181.48101807 C-176.37186885 181.4521332 -174.08379746 181.4442065 -171.79589844 181.45410156 C-170.53593552 181.44376389 -169.2759726 181.43342621 -167.97782898 181.42277527 C-164.56326952 181.39519677 -161.14907439 181.39150425 -157.73441982 181.39249516 C-154.15092991 181.38934149 -150.5675983 181.36367293 -146.98419189 181.34051514 C-140.21660214 181.30013777 -133.44910828 181.27965772 -126.68141675 181.26654124 C-118.96898695 181.25060886 -111.25671894 181.21216743 -103.54438353 181.17194796 C-87.69630393 181.08979937 -71.84825684 181.03555138 -56 181 C-56.7589859 180.17594162 -57.5179718 179.35188324 -58.29995728 178.50285339 C-59.30369505 177.41104208 -60.30738517 176.31918695 -61.31103516 175.22729492 C-61.81035049 174.6854229 -62.30966583 174.14355087 -62.82411194 173.58525848 C-66.17411808 169.93821558 -69.34998418 166.23698065 -72.375 162.3125 C-72.817229 161.73910889 -73.25945801 161.16571777 -73.71508789 160.57495117 C-74.65702521 159.3523463 -75.59686771 158.12812482 -76.53466797 156.90234375 C-78.06030719 154.92170716 -79.6083451 152.9601825 -81.16015625 151 C-101.43653505 125.21053483 -121.63587489 95.38112407 -117.5390625 61.1484375 C-113.56037537 38.91459763 -102.34420867 20.44482374 -84 7 C-58.56234517 -9.79788331 -27.84834148 -12.75468658 0 0 Z M-87.25 32.6875 C-97.01384775 45.59903584 -103.44755104 61.95664114 -101.6328125 78.30859375 C-96.52598009 106.08093544 -76.82590565 131.00642471 -59 152 C-58.10618689 153.06721955 -57.21298885 154.13495443 -56.3203125 155.203125 C-46.52602205 166.93470494 -46.52602205 166.93470494 -36 178 C-30.70488952 172.96459521 -25.97033968 167.66117174 -21.40234375 161.9609375 C-19.35109622 159.43273323 -17.24692795 156.96499876 -15.11035156 154.5090332 C-7.82439261 146.09199843 -1.37359676 137.11877128 5 128 C5.46325684 127.34209473 5.92651367 126.68418945 6.40380859 126.00634766 C20.33955168 106.1208578 31.95372883 85.74780873 28.55859375 60.75 C24.69303036 42.46758697 13.42781731 28.06161999 -2 18 C-30.2545425 0.71122673 -65.99995321 7.85506985 -87.25 32.6875 Z M-234.375 233.1875 C-238.32822509 238.35201969 -240.35837475 243.96799593 -240.0625 250.5 C-239.05115601 256.65413576 -235.80030856 261.78088756 -230.9296875 265.640625 C-225.0700293 269.40291477 -219.96129515 270.9210329 -213 270 C-205.62803886 267.6312317 -200.81199265 263.72373611 -197 257 C-194.97485478 250.92456434 -194.89953511 243.54764469 -197.5 237.625 C-200.52554963 232.45680134 -205.33257541 229.50470105 -210.4375 226.625 C-219.41845192 224.43452392 -227.93028127 226.34495913 -234.375 233.1875 Z M-412.64453125 293.1796875 C-424.16655664 306.97554543 -428.40537304 323.12648666 -427.21875 340.86279297 C-426.69450216 345.98474113 -425.14034217 350.35049964 -423 355 C-422.73155273 355.59312988 -422.46310547 356.18625977 -422.18652344 356.79736328 C-412.24439783 378.50378702 -398.1254807 398.09871033 -382.5234375 416.078125 C-380.06330395 418.92670069 -377.68035995 421.82452116 -375.3125 424.75 C-371.34525848 429.62669942 -367.22094569 434.34200816 -363 439 C-353.80622307 435.17786802 -347.0862286 423.55901789 -341 416 C-340.06297447 414.85508027 -339.12545162 413.71056742 -338.1875 412.56640625 C-322.0491538 392.77715087 -302.51503477 368.56545779 -297 343 C-296.731875 341.783125 -296.46375 340.56625 -296.1875 339.3125 C-294.64698226 323.02234428 -301.07816038 306.57697981 -311 294 C-322.61645681 280.3148591 -338.17715313 272.02578857 -356 270 C-378.22847091 268.39683705 -397.42865925 277.35905111 -412.64453125 293.1796875 Z M-59.5234375 382.125 C-63.73657778 387.4750194 -64.55668488 392.65985737 -64.34765625 399.28515625 C-63.60575792 405.07863197 -61.26887676 408.73112324 -57.1875 412.8125 C-50.59950026 417.33367629 -44.91153538 419.09295936 -37 418 C-30.02163926 415.9250184 -25.47469144 411.34425761 -21.9296875 405.12109375 C-19.51897041 399.74584617 -19.44230701 394.6532004 -21 389 C-24.03560393 382.40541215 -28.38935506 377.99753941 -35 375 C-44.69974893 372.10122446 -52.86361924 374.82656903 -59.5234375 382.125 Z M-217.66015625 438.99609375 C-221.16919397 444.24430468 -221.84696998 449.83071249 -221 456 C-218.73473594 462.83252618 -214.54239017 467.71495779 -208.3125 471.3125 C-202.91583902 473.80248482 -197.42547057 474.11791099 -191.76171875 472.26953125 C-185.20177886 469.24281699 -180.74499842 464.72610882 -177.73046875 458.16796875 C-175.87006382 452.64644611 -176.48146567 447.68174875 -178.5625 442.3125 C-181.54533707 436.31542758 -185.91119826 432.66549938 -192.0625 430.125 C-202.18322271 426.8933352 -211.26370988 430.82369286 -217.66015625 438.99609375 Z " fill="#000000" transform="translate(455,15)"/>
<path d="M0 0 C6.41798896 5.25217448 10.48518435 11.47569616 12.7109375 19.45703125 C13.65920286 29.96184102 12.75885903 38.46888558 6.6484375 47.14453125 C0.22872809 54.81065606 -7.18764262 58.22025155 -17.0546875 59.33203125 C-27.26197301 59.72651571 -35.43381323 56.60713222 -43.10546875 49.859375 C-50.00897624 42.54061893 -51.8976074 34.12992521 -51.75952148 24.28930664 C-51.32872766 14.6199957 -47.28735728 7.97170403 -40.2890625 1.45703125 C-28.43348718 -7.73804095 -12.53914605 -8.45215476 0 0 Z M-30.0390625 14.14453125 C-33.35839171 17.55606405 -35.17588599 20.85849851 -35.38671875 25.69921875 C-35.02769553 30.9006771 -33.81200307 34.47054587 -30.2890625 38.45703125 C-26.29347059 41.71232314 -22.43941242 43.14019113 -17.2734375 42.83984375 C-12.31039747 41.88240689 -9.17156912 39.47888102 -5.9140625 35.70703125 C-3.26979151 30.41848928 -2.70990306 26.5564842 -4.2890625 20.83203125 C-7.43844665 15.5174455 -10.78182718 12.1733842 -16.7890625 10.45703125 C-21.91535646 10.45703125 -25.66696491 11.46165318 -30.0390625 14.14453125 Z " fill="#000000" transform="translate(438.2890625,55.54296875)"/>
<path d="M0 0 C6.76823395 5.69507253 10.46202331 12.85871765 11.37890625 21.62109375 C11.72173543 32.60268652 9.75080053 41.06002773 2.12890625 49.17578125 C-5.46371321 55.68175059 -13.4669787 58.35728858 -23.31640625 58.2109375 C-32.45812478 57.49237447 -39.56872442 53.85330182 -45.72265625 47.11328125 C-52.97686844 38.04106011 -54.07518114 29.54597928 -53 18 C-51.37429239 10.79076089 -47.68419966 4.73176691 -42 0 C-27.92448259 -8.67203019 -14.02978686 -9.31935191 0 0 Z M-33.25 15.375 C-36.40700513 20.11050769 -37.4845207 23.21732196 -36.53515625 29.01171875 C-35.32231724 33.51781406 -32.76387998 36.30887049 -29.375 39.375 C-24.25291567 41.84118875 -19.39951884 42.03211198 -13.94140625 40.375 C-9.63852081 38.30221217 -7.52440484 35.42227029 -5.65625 31.08203125 C-4.24872545 26.61649206 -4.55757372 23.22896189 -6.125 18.875 C-8.92015826 14.58909067 -12.04775717 11.65074761 -17 10 C-23.82384943 9.55253446 -28.31704556 10.16799253 -33.25 15.375 Z " fill="#000000" transform="translate(114,318)"/>
</svg>
