<svg width="270" height="270" viewBox="0 0 270 270" fill="none" xmlns="http://www.w3.org/2000/svg">
<path d="M67.6416 113.65L67.1046 115.1L65.6118 115.504C46.8909 120.571 33 138.097 33 159C33 183.932 52.701 204 76.8516 204H193.148C217.299 204 237 183.932 237 159C237 138.052 223.067 120.526 204.299 115.481L202.803 115.079L202.265 113.626C191.939 85.7373 165.661 66 134.953 66C104.247 66 77.9679 85.7598 67.6416 113.65Z" stroke="black" stroke-width="6"/>
<path d="M87.4646 151.913C87.2942 150.195 86.5628 148.859 85.2701 147.908C83.9774 146.956 82.2233 146.48 80.0072 146.48C78.5015 146.48 77.2304 146.693 76.1933 147.119C75.1565 147.531 74.3609 148.106 73.8071 148.845C73.2671 149.584 72.9974 150.422 72.9974 151.359C72.9689 152.14 73.1324 152.822 73.4873 153.405C73.8566 153.987 74.3609 154.492 75.0002 154.918C75.6395 155.329 76.3781 155.692 77.216 156.004C78.0542 156.303 78.9491 156.558 79.9007 156.771L83.8211 157.709C85.7246 158.135 87.4718 158.703 89.0627 159.413C90.6536 160.123 92.0315 160.997 93.1961 162.034C94.361 163.071 95.2631 164.293 95.9021 165.699C96.5555 167.105 96.8894 168.717 96.9035 170.536C96.8894 173.206 96.2075 175.521 94.8581 177.481C93.5228 179.428 91.5911 180.94 89.0627 182.02C86.5484 183.085 83.5157 183.618 79.9646 183.618C76.442 183.618 73.3739 183.078 70.76 181.999C68.1608 180.919 66.1295 179.321 64.6664 177.205C63.2174 175.074 62.4575 172.439 62.3867 169.3H71.3141C71.4137 170.763 71.8325 171.984 72.5711 172.964C73.3241 173.93 74.3255 174.662 75.5756 175.159C76.8398 175.642 78.2672 175.883 79.8581 175.883C81.4208 175.883 82.7771 175.656 83.9279 175.202C85.0925 174.747 85.9946 174.115 86.6336 173.305C87.2729 172.496 87.5924 171.565 87.5924 170.514C87.5924 169.534 87.3014 168.71 86.7188 168.043C86.1509 167.375 85.3127 166.807 84.2048 166.338C83.111 165.869 81.7688 165.443 80.1779 165.06L75.4262 163.867C71.7473 162.972 68.8424 161.572 66.7118 159.669C64.5812 157.765 63.5228 155.202 63.5372 151.977C63.5228 149.335 64.226 147.027 65.6465 145.053C67.0811 143.078 69.0485 141.537 71.5484 140.429C74.0486 139.321 76.8893 138.767 80.0711 138.767C83.3099 138.767 86.1365 139.321 88.5512 140.429C90.9803 141.537 92.8694 143.078 94.2188 145.053C95.5685 147.027 96.2645 149.314 96.3071 151.913H87.4646ZM112.271 183.618C110.183 183.618 108.322 183.256 106.689 182.531C105.055 181.792 103.763 180.706 102.811 179.271C101.873 177.822 101.405 176.018 101.405 173.859C101.405 172.041 101.739 170.514 102.406 169.278C103.074 168.043 103.983 167.048 105.133 166.295C106.284 165.543 107.591 164.974 109.054 164.591C110.531 164.207 112.079 163.937 113.699 163.781C115.602 163.582 117.136 163.398 118.301 163.227C119.466 163.042 120.311 162.773 120.837 162.418C121.362 162.062 121.625 161.537 121.625 160.841V160.713C121.625 159.364 121.199 158.32 120.346 157.581C119.509 156.842 118.315 156.473 116.767 156.473C115.133 156.473 113.834 156.835 112.868 157.56C111.902 158.27 111.263 159.165 110.95 160.244L102.555 159.562C102.982 157.574 103.819 155.855 105.07 154.406C106.319 152.943 107.932 151.821 109.906 151.04C111.895 150.244 114.196 149.847 116.809 149.847C118.628 149.847 120.368 150.06 122.03 150.486C123.706 150.912 125.19 151.572 126.483 152.467C127.79 153.362 128.819 154.513 129.572 155.919C130.325 157.311 130.702 158.98 130.702 160.926V183H122.094V178.462H121.838C121.312 179.484 120.609 180.386 119.728 181.168C118.848 181.935 117.79 182.538 116.554 182.979C115.318 183.405 113.89 183.618 112.271 183.618ZM114.871 177.354C116.206 177.354 117.385 177.091 118.408 176.565C119.43 176.026 120.233 175.301 120.815 174.392C121.398 173.483 121.689 172.453 121.689 171.303V167.83C121.405 168.014 121.014 168.185 120.517 168.341C120.034 168.483 119.487 168.618 118.876 168.746C118.266 168.859 117.655 168.966 117.044 169.065C116.433 169.15 115.879 169.229 115.382 169.3C114.317 169.456 113.386 169.705 112.591 170.045C111.795 170.386 111.178 170.848 110.737 171.43C110.297 171.999 110.077 172.709 110.077 173.561C110.077 174.797 110.524 175.741 111.419 176.395C112.328 177.034 113.479 177.354 114.871 177.354ZM147.076 183.618C144.988 183.618 143.127 183.256 141.493 182.531C139.86 181.792 138.567 180.706 137.616 179.271C136.678 177.822 136.21 176.018 136.21 173.859C136.21 172.041 136.543 170.514 137.211 169.278C137.878 168.043 138.787 167.048 139.938 166.295C141.089 165.543 142.396 164.974 143.859 164.591C145.336 164.207 146.884 163.937 148.504 163.781C150.407 163.582 151.941 163.398 153.106 163.227C154.27 163.042 155.116 162.773 155.641 162.418C156.167 162.062 156.43 161.537 156.43 160.841V160.713C156.43 159.364 156.004 158.32 155.151 157.581C154.313 156.842 153.12 156.473 151.572 156.473C149.938 156.473 148.638 156.835 147.673 157.56C146.707 158.27 146.067 159.165 145.755 160.244L137.36 159.562C137.786 157.574 138.624 155.855 139.874 154.406C141.124 152.943 142.736 151.821 144.711 151.04C146.699 150.244 149.001 149.847 151.614 149.847C153.433 149.847 155.173 150.06 156.835 150.486C158.511 150.912 159.995 151.572 161.287 152.467C162.594 153.362 163.624 154.513 164.377 155.919C165.13 157.311 165.506 158.98 165.506 160.926V183H156.898V178.462H156.643C156.117 179.484 155.414 180.386 154.533 181.168C153.652 181.935 152.594 182.538 151.359 182.979C150.123 183.405 148.695 183.618 147.076 183.618ZM149.675 177.354C151.011 177.354 152.19 177.091 153.212 176.565C154.235 176.026 155.038 175.301 155.62 174.392C156.202 173.483 156.493 172.453 156.493 171.303V167.83C156.209 168.014 155.819 168.185 155.322 168.341C154.839 168.483 154.292 168.618 153.681 168.746C153.07 168.859 152.459 168.966 151.849 169.065C151.238 169.15 150.684 169.229 150.187 169.3C149.121 169.456 148.191 169.705 147.395 170.045C146.6 170.386 145.982 170.848 145.542 171.43C145.102 171.999 144.881 172.709 144.881 173.561C144.881 174.797 145.329 175.741 146.224 176.395C147.133 177.034 148.283 177.354 149.675 177.354ZM196.39 151.913C196.22 150.195 195.489 148.859 194.196 147.908C192.903 146.956 191.149 146.48 188.933 146.48C187.427 146.48 186.156 146.693 185.119 147.119C184.082 147.531 183.287 148.106 182.733 148.845C182.193 149.584 181.923 150.422 181.923 151.359C181.895 152.14 182.058 152.822 182.413 153.405C182.782 153.987 183.287 154.492 183.926 154.918C184.565 155.329 185.304 155.692 186.142 156.004C186.98 156.303 187.875 156.558 188.827 156.771L192.747 157.709C194.65 158.135 196.398 158.703 197.989 159.413C199.579 160.123 200.957 160.997 202.122 162.034C203.287 163.071 204.189 164.293 204.828 165.699C205.481 167.105 205.815 168.717 205.829 170.536C205.815 173.206 205.133 175.521 203.784 177.481C202.449 179.428 200.517 180.94 197.989 182.02C195.474 183.085 192.442 183.618 188.89 183.618C185.368 183.618 182.3 183.078 179.686 181.999C177.087 180.919 175.055 179.321 173.592 177.205C172.143 175.074 171.383 172.439 171.312 169.3H180.24C180.339 170.763 180.758 171.984 181.497 172.964C182.25 173.93 183.251 174.662 184.501 175.159C185.766 175.642 187.193 175.883 188.784 175.883C190.346 175.883 191.703 175.656 192.853 175.202C194.018 174.747 194.92 174.115 195.559 173.305C196.199 172.496 196.518 171.565 196.518 170.514C196.518 169.534 196.227 168.71 195.645 168.043C195.076 167.375 194.239 166.807 193.131 166.338C192.037 165.869 190.694 165.443 189.103 165.06L184.352 163.867C180.673 162.972 177.768 161.572 175.638 159.669C173.507 157.765 172.449 155.202 172.463 151.977C172.449 149.335 173.152 147.027 174.572 145.053C176.007 143.078 177.974 141.537 180.474 140.429C182.974 139.321 185.815 138.767 188.997 138.767C192.236 138.767 195.062 139.321 197.477 140.429C199.906 141.537 201.795 143.078 203.145 145.053C204.494 147.027 205.19 149.314 205.233 151.913H196.39Z" fill="black"/>
</svg>
