<svg width="300" height="300" viewBox="0 0 300 300" fill="none" xmlns="http://www.w3.org/2000/svg">
<path d="M226.959 104.212C215.094 72.251 184.861 49.524 149.447 49.524C114.033 49.524 83.8 72.2243 71.9347 104.185C49.7327 110.138 33.334 130.801 33.334 155.354C33.334 184.59 56.5203 208.269 85.121 208.269H95.5097C96.6493 208.269 97.582 207.317 97.582 206.153V190.278C97.582 189.114 96.6493 188.161 95.5097 188.161H85.121C76.3907 188.161 68.1783 184.616 62.0643 178.187C55.9763 171.784 52.738 163.159 53.023 154.216C53.256 147.232 55.5876 140.67 59.8103 135.141C64.137 129.505 70.199 125.404 76.9347 123.579L86.7533 120.959L90.3543 111.276C92.5823 105.243 95.691 99.608 99.603 94.5017C103.465 89.4407 108.039 84.9917 113.178 81.2993C123.825 73.6533 136.364 69.6053 149.447 69.6053C162.53 69.6053 175.068 73.6533 185.716 81.2993C190.871 85.0033 195.431 89.4483 199.291 94.5017C203.203 99.608 206.312 105.27 208.54 111.276L212.115 120.933L221.907 123.579C235.949 127.441 245.767 140.485 245.767 155.354C245.767 164.112 242.425 172.366 236.363 178.557C233.39 181.611 229.854 184.033 225.958 185.681C222.063 187.33 217.886 188.173 213.669 188.161H203.281C202.141 188.161 201.208 189.114 201.208 190.278V206.153C201.208 207.317 202.141 208.269 203.281 208.269H213.669C242.27 208.269 265.456 184.59 265.456 155.354C265.456 130.828 249.109 110.191 226.959 104.212Z" stroke="black" stroke-width="6"/>
<path d="M190.001 230.476V219.524H178.495C177.79 216.096 176.429 212.836 174.487 209.924L182.646 201.765L174.903 194.021L166.743 202.181C163.831 200.239 160.572 198.877 157.144 198.172V186.667H146.191V198.172C142.763 198.877 139.503 200.239 136.591 202.181L128.432 194.021L120.689 201.765L128.848 209.924C126.906 212.836 125.545 216.096 124.839 219.524H113.334V230.476H124.839C125.551 233.965 126.942 237.206 128.848 240.076L120.689 248.235L128.432 255.979L136.591 247.819C139.503 249.761 142.763 251.123 146.191 251.828V263.333H157.144V251.828C160.572 251.123 163.831 249.761 166.743 247.819L174.903 255.979L182.646 248.235L174.487 240.076C176.429 237.164 177.79 233.904 178.495 230.476H190.001ZM151.667 241.429C142.61 241.429 135.239 234.058 135.239 225C135.239 215.942 142.61 208.571 151.667 208.571C160.725 208.571 168.096 215.942 168.096 225C168.096 234.058 160.725 241.429 151.667 241.429Z" stroke="black" stroke-width="6"/>
<path d="M115.572 144.976C115.395 143.408 114.666 142.192 113.384 141.33C112.103 140.458 110.49 140.021 108.545 140.021C107.153 140.021 105.949 140.242 104.933 140.684C103.916 141.115 103.126 141.712 102.563 142.474C102.011 143.225 101.734 144.081 101.734 145.043C101.734 145.849 101.922 146.545 102.298 147.131C102.684 147.716 103.187 148.208 103.806 148.606C104.436 148.992 105.109 149.318 105.828 149.583C106.546 149.837 107.236 150.047 107.899 150.213L111.213 151.075C112.296 151.34 113.407 151.699 114.544 152.152C115.682 152.605 116.737 153.202 117.71 153.942C118.682 154.682 119.466 155.599 120.063 156.693C120.671 157.786 120.974 159.096 120.974 160.62C120.974 162.543 120.477 164.25 119.483 165.741C118.5 167.232 117.069 168.409 115.191 169.271C113.324 170.133 111.064 170.563 108.413 170.563C105.872 170.563 103.673 170.16 101.817 169.354C99.9611 168.547 98.5084 167.404 97.4587 165.923C96.4094 164.432 95.8294 162.664 95.7188 160.62H100.856C100.955 161.847 101.353 162.869 102.049 163.686C102.756 164.493 103.657 165.095 104.75 165.492C105.855 165.879 107.065 166.072 108.38 166.072C109.827 166.072 111.114 165.846 112.241 165.393C113.379 164.929 114.274 164.288 114.926 163.471C115.577 162.642 115.903 161.675 115.903 160.571C115.903 159.565 115.616 158.742 115.042 158.101C114.478 157.461 113.71 156.93 112.738 156.51C111.777 156.091 110.689 155.72 109.473 155.4L105.463 154.306C102.745 153.566 100.591 152.478 99.0001 151.042C97.4201 149.605 96.6301 147.705 96.6301 145.341C96.6301 143.385 97.1604 141.679 98.2211 140.22C99.2818 138.762 100.718 137.629 102.53 136.823C104.342 136.005 106.386 135.597 108.661 135.597C110.959 135.597 112.987 136 114.743 136.806C116.511 137.613 117.903 138.723 118.919 140.137C119.936 141.54 120.466 143.153 120.51 144.976H115.572ZM134.104 170.563C132.491 170.563 131.032 170.265 129.729 169.669C128.425 169.061 127.392 168.183 126.63 167.034C125.878 165.885 125.503 164.476 125.503 162.808C125.503 161.372 125.779 160.189 126.331 159.261C126.884 158.333 127.629 157.599 128.568 157.057C129.508 156.516 130.557 156.107 131.717 155.831C132.877 155.555 134.059 155.345 135.264 155.201C136.788 155.024 138.026 154.881 138.976 154.77C139.926 154.649 140.616 154.455 141.047 154.19C141.478 153.925 141.693 153.494 141.693 152.898V152.782C141.693 151.334 141.285 150.213 140.467 149.418C139.661 148.622 138.456 148.224 136.854 148.224C135.186 148.224 133.872 148.595 132.91 149.335C131.96 150.064 131.303 150.876 130.938 151.771L126.282 150.71C126.834 149.164 127.64 147.915 128.701 146.965C129.773 146.004 131.005 145.308 132.397 144.877C133.789 144.435 135.253 144.214 136.788 144.214C137.805 144.214 138.882 144.336 140.02 144.579C141.169 144.811 142.24 145.241 143.235 145.871C144.24 146.501 145.063 147.401 145.704 148.572C146.345 149.732 146.665 151.241 146.665 153.097V170H141.826V166.52H141.627C141.307 167.161 140.826 167.79 140.185 168.409C139.545 169.028 138.722 169.542 137.716 169.95C136.711 170.359 135.507 170.563 134.104 170.563ZM135.181 166.586C136.551 166.586 137.722 166.315 138.694 165.774C139.677 165.233 140.423 164.526 140.931 163.653C141.45 162.769 141.71 161.824 141.71 160.819V157.538C141.533 157.715 141.191 157.88 140.683 158.035C140.185 158.179 139.616 158.306 138.976 158.416C138.335 158.516 137.711 158.61 137.103 158.698C136.495 158.775 135.987 158.842 135.578 158.897C134.617 159.018 133.739 159.223 132.943 159.51C132.159 159.797 131.529 160.211 131.054 160.753C130.59 161.283 130.358 161.99 130.358 162.874C130.358 164.1 130.811 165.028 131.717 165.658C132.623 166.277 133.778 166.586 135.181 166.586ZM160.673 170.563C159.06 170.563 157.601 170.265 156.298 169.669C154.994 169.061 153.961 168.183 153.199 167.034C152.447 165.885 152.072 164.476 152.072 162.808C152.072 161.372 152.348 160.189 152.9 159.261C153.453 158.333 154.198 157.599 155.137 157.057C156.077 156.516 157.126 156.107 158.286 155.831C159.446 155.555 160.628 155.345 161.833 155.201C163.357 155.024 164.595 154.881 165.545 154.77C166.495 154.649 167.185 154.455 167.616 154.19C168.047 153.925 168.262 153.494 168.262 152.898V152.782C168.262 151.334 167.854 150.213 167.036 149.418C166.23 148.622 165.025 148.224 163.423 148.224C161.755 148.224 160.441 148.595 159.479 149.335C158.529 150.064 157.872 150.876 157.507 151.771L152.851 150.71C153.403 149.164 154.209 147.915 155.27 146.965C156.342 146.004 157.574 145.308 158.966 144.877C160.358 144.435 161.822 144.214 163.357 144.214C164.374 144.214 165.451 144.336 166.589 144.579C167.738 144.811 168.809 145.241 169.804 145.871C170.809 146.501 171.632 147.401 172.273 148.572C172.914 149.732 173.234 151.241 173.234 153.097V170H168.395V166.52H168.196C167.876 167.161 167.395 167.79 166.754 168.409C166.114 169.028 165.291 169.542 164.285 169.95C163.28 170.359 162.076 170.563 160.673 170.563ZM161.75 166.586C163.12 166.586 164.291 166.315 165.263 165.774C166.246 165.233 166.992 164.526 167.5 163.653C168.019 162.769 168.279 161.824 168.279 160.819V157.538C168.102 157.715 167.76 157.88 167.252 158.035C166.754 158.179 166.185 158.306 165.545 158.416C164.904 158.516 164.28 158.61 163.672 158.698C163.064 158.775 162.556 158.842 162.147 158.897C161.186 159.018 160.308 159.223 159.512 159.51C158.728 159.797 158.098 160.211 157.623 160.753C157.159 161.283 156.927 161.99 156.927 162.874C156.927 164.1 157.38 165.028 158.286 165.658C159.192 166.277 160.347 166.586 161.75 166.586ZM198.742 144.976C198.566 143.408 197.837 142.192 196.555 141.33C195.273 140.458 193.66 140.021 191.716 140.021C190.324 140.021 189.12 140.242 188.103 140.684C187.087 141.115 186.297 141.712 185.733 142.474C185.181 143.225 184.905 144.081 184.905 145.043C184.905 145.849 185.093 146.545 185.468 147.131C185.855 147.716 186.358 148.208 186.976 148.606C187.606 148.992 188.28 149.318 188.998 149.583C189.716 149.837 190.407 150.047 191.07 150.213L194.384 151.075C195.467 151.34 196.577 151.699 197.715 152.152C198.853 152.605 199.908 153.202 200.88 153.942C201.852 154.682 202.637 155.599 203.233 156.693C203.841 157.786 204.145 159.096 204.145 160.62C204.145 162.543 203.648 164.25 202.653 165.741C201.67 167.232 200.239 168.409 198.361 169.271C196.494 170.133 194.235 170.563 191.583 170.563C189.042 170.563 186.844 170.16 184.988 169.354C183.132 168.547 181.679 167.404 180.629 165.923C179.58 164.432 179 162.664 178.889 160.62H184.027C184.126 161.847 184.524 162.869 185.22 163.686C185.927 164.493 186.827 165.095 187.921 165.492C189.026 165.879 190.236 166.072 191.55 166.072C192.998 166.072 194.285 165.846 195.412 165.393C196.549 164.929 197.444 164.288 198.096 163.471C198.748 162.642 199.074 161.675 199.074 160.571C199.074 159.565 198.787 158.742 198.212 158.101C197.649 157.461 196.881 156.93 195.909 156.51C194.948 156.091 193.859 155.72 192.644 155.4L188.634 154.306C185.916 153.566 183.761 152.478 182.171 151.042C180.591 149.605 179.801 147.705 179.801 145.341C179.801 143.385 180.331 141.679 181.392 140.22C182.452 138.762 183.888 137.629 185.7 136.823C187.512 136.005 189.556 135.597 191.832 135.597C194.13 135.597 196.157 136 197.914 136.806C199.682 137.613 201.074 138.723 202.09 140.137C203.106 141.54 203.637 143.153 203.681 144.976H198.742Z" fill="black"/>
</svg>
