<svg width="622" height="622" viewBox="0 0 622 622" fill="none" xmlns="http://www.w3.org/2000/svg">
<path d="M271.732 138.6L275.677 141.904L280.418 139.901C297.782 132.564 314.354 126.477 332.411 126.477C362.206 126.477 389.366 137.351 412.299 154.2L415.689 156.691L419.716 155.477C433.106 151.443 445.504 147.953 458.744 147.953C535.105 147.953 597.711 211.569 597.711 289.868C597.711 368.167 535.105 431.782 458.744 431.782C452.347 431.782 446.464 430.672 439.709 429.397C438.113 429.096 436.467 428.786 434.755 428.478L429.604 427.554L426.495 431.762C408.798 455.7 383.696 472.481 353.467 472.481C352.927 472.481 352.756 472.466 352.646 472.456C352.508 472.445 352.442 472.437 352.14 472.409C352.006 472.397 351.857 472.382 351.69 472.369C351.532 472.355 351.357 472.342 351.163 472.328L347.312 472.062L344.596 474.806C319.194 500.47 285.958 517.689 248.189 517.689C211.416 517.689 178.796 501.346 153.566 476.78L151.166 474.442L147.816 474.393C80.2186 473.389 25 417.088 25 347.597C25 321.437 34.1288 297.865 47.7577 277.423L49.6552 274.576L49.0294 271.211C47.4545 262.743 46.0556 255.085 46.0556 246.914C46.0556 168.616 108.661 105 185.022 105C218.016 105 247.579 118.366 271.732 138.6Z" stroke="black" stroke-width="20"/>
<path d="M190.331 256.005C189.784 256.005 189.347 256.445 189.347 257.105V337.319C189.347 337.951 189.784 338.501 190.331 338.501H199.621C200.25 338.501 200.578 337.951 200.578 337.319V257.077C200.578 256.527 200.14 256.005 199.594 256.005H190.331ZM352.451 256.005C345.839 256.005 340.702 257.82 337.095 261.587C333.46 265.244 330.892 271.487 329.608 278.774L328.979 283.503H320.781C320.781 283.503 319.689 283.833 319.579 284.878L318.213 292.523C318.077 293.183 318.404 293.706 319.36 293.706H327.367L319.36 338.611C318.895 341.681 318.145 344.701 317.119 347.631C316.606 349.485 315.775 351.235 314.661 352.801C313.705 354.066 312.857 354.945 311.382 355.358C308.375 356.366 305.108 356.259 302.173 355.055C302.173 355.055 301.353 354.725 300.916 355.688C299.988 358.113 299.095 360.552 298.238 363.003C298.02 363.745 298.347 364.295 298.785 364.488C299.882 364.913 301.017 365.235 302.173 365.45C304.086 366 305.807 366 307.31 366C310.726 366 313.705 365.45 316.273 364.625C318.844 363.626 321.146 362.034 322.995 359.978C325.038 357.563 326.63 354.796 327.695 351.811C328.979 348.511 329.936 344.303 330.783 339.464L338.898 293.706H350.867C350.867 293.706 351.932 293.706 352.151 292.523L353.408 285.016C353.517 284.246 353.217 283.503 352.232 283.503H340.729C340.811 283.283 341.548 276.189 342.969 272.339C343.497 270.889 344.336 269.574 345.429 268.489C346.282 267.591 347.342 266.92 348.516 266.537C351.386 265.717 354.435 265.794 357.26 266.757C358.435 267.059 358.545 266.757 358.873 266.207L361.524 258.59C361.851 257.737 361.222 257.407 360.977 257.297C359.807 256.889 358.598 256.604 357.37 256.445C355.751 256.119 354.102 255.971 352.451 256.005ZM101.715 283.503C89.8829 283.503 81.6583 290.158 81.6583 299.618V299.838C81.6583 309.737 90.7305 313.037 99.2826 315.292L100.649 315.732C106.852 317.437 112.18 318.949 112.18 323.019V323.129C112.18 326.897 108.655 329.592 103.108 329.592C100.977 329.592 94.0369 329.592 86.5766 325.192C85.8303 324.867 85.1172 324.471 84.4453 324.009C84.0084 323.789 83.1608 323.459 82.7239 324.559L80.1558 331.076C79.745 332.066 80.2642 332.259 80.3737 332.479C81.6583 333.249 82.8333 333.771 84.0084 334.404C90.4021 337.539 96.4955 338.501 102.808 338.501C115.706 338.501 123.711 332.176 123.711 321.864V321.754C123.711 312.185 114.64 308.747 106.224 306.273L105.131 305.943C98.7362 304.018 93.1892 302.395 93.1892 298.518V298.243C93.1892 294.888 96.386 292.523 101.387 292.523C106.962 292.523 113.465 294.146 117.727 296.373C117.727 296.373 119.012 297.033 119.449 295.96C119.777 295.328 121.908 289.938 122.126 289.416C122.318 288.756 121.908 288.316 121.471 288.123C115.801 285.036 109.446 283.447 103 283.503H101.715ZM155.41 283.503C152.158 283.523 148.913 283.808 145.709 284.356C145.709 284.356 137.702 285.758 134.396 288.206C134.396 288.206 133.74 288.563 134.178 289.526L136.746 295.96C137.046 296.813 137.921 296.51 137.921 296.51C137.921 296.51 138.113 296.4 138.467 296.29C145.49 292.633 154.343 292.853 154.343 292.853C158.305 292.853 161.284 293.486 163.415 294.998C165.328 296.373 166.421 298.655 166.421 303.165V304.54C163.306 304.128 160.409 303.798 160.409 303.798C158.934 303.688 157.021 303.688 154.671 303.688C151.649 303.66 148.636 304.03 145.709 304.788C143.002 305.423 140.429 306.541 138.113 308.087C135.964 309.516 134.185 311.439 132.92 313.697C131.523 316.066 130.813 318.781 130.871 321.534C130.871 324.559 131.418 327.117 132.456 329.262C133.615 331.406 135.263 333.244 137.265 334.624C139.542 336.035 142.035 337.057 144.643 337.649C147.512 338.199 150.819 338.501 154.343 338.501C158.087 338.501 161.83 338.171 165.437 337.649C169.072 337.099 173.362 336.246 174.619 335.916C175.794 335.696 177.078 335.366 177.078 335.366C178.034 335.174 177.925 334.321 177.925 334.321V303.248C177.925 296.373 176.013 291.341 172.187 288.233C168.333 285.126 162.678 283.503 155.41 283.503ZM237.384 283.503C233.3 283.379 229.233 284.109 225.444 285.648C222.296 287.026 219.476 289.063 217.172 291.623C214.868 294.184 213.132 297.209 212.082 300.498C211.016 303.798 210.497 307.455 210.497 311.332C210.497 315.292 211.126 318.949 212.191 322.167C213.284 325.494 215.088 328.409 217.546 330.774C219.897 333.249 222.876 335.174 226.619 336.466C230.252 337.841 234.734 338.501 239.844 338.501C250.419 338.391 255.856 336.246 258.206 335.064C258.535 334.844 258.945 334.514 258.535 333.441L256.075 327.227C255.748 326.264 254.709 326.567 254.709 326.567C252.004 327.557 248.397 329.152 239.735 329.152C234.078 329.152 229.898 327.639 227.357 325.192C224.597 322.717 223.312 319.059 223.093 313.917H259.491C259.491 313.917 260.447 313.917 260.557 313.037C260.557 312.625 261.841 305.943 259.464 298.325C258.544 295.346 256.943 292.624 254.791 290.378C252.875 288.302 250.548 286.653 247.96 285.538C244.606 284.154 241.01 283.462 237.384 283.503ZM289.384 283.503C277.635 283.503 269.3 290.158 269.3 299.618V299.838C269.3 309.737 278.482 313.037 286.926 315.292L288.401 315.732C294.604 317.437 299.932 318.949 299.932 323.019V323.129C299.932 326.897 296.408 329.592 290.751 329.592C288.62 329.592 281.679 329.592 274.219 325.192C273.372 324.752 272.716 324.422 272.088 324.009C271.87 323.899 270.804 323.459 270.366 324.559L267.907 331.076C267.498 332.066 268.016 332.259 268.125 332.479C269.3 333.249 270.476 333.771 271.76 334.404C277.614 337.251 284.059 338.655 290.56 338.501C303.348 338.501 311.464 332.176 311.464 321.864V321.754C311.464 312.185 302.392 308.747 293.975 306.273L292.8 305.943C286.379 304.018 280.832 302.395 280.832 298.518V298.243C280.832 294.888 284.139 292.523 289.03 292.523C294.604 292.523 301.217 294.146 305.479 296.373C305.479 296.373 306.764 297.033 307.201 295.96C308.027 293.752 308.92 291.569 309.879 289.416C310.07 288.756 309.66 288.316 309.114 288.123C303.451 285.041 297.106 283.451 290.669 283.503H289.384ZM378.738 283.503C374.339 283.503 370.377 284.246 367.071 285.648C363.961 286.986 361.188 289.006 358.955 291.561C356.685 294.06 354.979 297.025 353.954 300.25C351.927 307.311 351.927 314.804 353.954 321.864C354.965 325.122 356.674 328.118 358.959 330.641C361.243 333.163 364.05 335.152 367.18 336.466C370.854 337.899 374.772 338.59 378.711 338.501C383.083 338.501 386.909 337.869 390.242 336.356C393.41 335.061 396.255 333.08 398.576 330.554C400.78 328.042 402.411 325.076 403.359 321.864C404.451 318.51 404.998 314.88 404.998 311.002C404.998 307.235 404.451 303.578 403.359 300.278C402.415 297.056 400.783 294.081 398.576 291.561C396.261 289 393.417 286.982 390.242 285.648C386.579 284.167 382.658 283.438 378.711 283.503H378.738ZM473.939 283.503C469.431 283.503 465.386 284.246 461.862 285.648C458.618 286.955 455.704 288.975 453.336 291.561C450.932 294.001 449.134 296.978 448.089 300.25C446.826 303.689 446.214 307.336 446.287 311.002C446.287 319.389 448.637 326.127 453.446 331.076C458.227 336.026 465.278 338.501 474.677 338.501C480.224 338.501 485.881 337.401 489.924 335.916C489.924 335.916 490.69 335.614 490.362 334.734L487.684 327.969C487.383 327.007 486.318 327.337 486.318 327.337C484.745 327.994 483.09 328.428 481.4 328.629C479.42 328.939 477.418 329.077 475.415 329.042C470.196 329.042 466.015 327.667 463.147 324.752C460.141 321.947 458.446 317.327 458.446 311.002C458.556 305.42 459.949 301.103 462.599 297.803C465.278 294.558 469.24 292.963 474.568 292.963C478.94 292.963 482.356 293.513 485.881 294.448C485.881 294.448 486.837 294.778 487.164 293.816C488.122 291.341 488.859 289.636 489.843 286.941C490.143 286.088 489.405 285.758 489.187 285.648C486.803 284.96 484.386 284.391 481.946 283.943C479.289 283.615 476.615 283.468 473.939 283.503ZM518.534 283.503C514.45 283.379 510.383 284.109 506.594 285.648C503.417 286.995 500.569 289.02 498.247 291.584C495.926 294.148 494.186 297.19 493.149 300.498C492.144 304.02 491.638 307.668 491.646 311.332C491.646 315.292 492.192 318.949 493.34 322.167C494.354 325.429 496.156 328.387 498.587 330.774C501.047 333.249 504.052 335.174 507.659 336.466C511.402 337.841 515.857 338.501 520.884 338.501C531.459 338.391 537.006 336.246 539.247 335.064C539.684 334.844 540.094 334.514 539.574 333.441L537.116 327.227C536.787 326.264 535.749 326.567 535.749 326.567C533.154 327.557 529.438 329.152 520.775 329.152C515.228 329.152 511.075 327.639 508.396 325.192C505.746 322.717 504.461 319.059 504.134 313.917H540.531C540.531 313.917 541.488 313.917 541.707 313.037C541.707 312.625 542.881 305.943 540.531 298.325C539.603 295.343 537.994 292.621 535.831 290.378C533.916 288.302 531.589 286.653 529 285.538C525.684 284.154 522.124 283.462 518.534 283.503ZM439.564 283.503C436.319 283.207 433.051 283.727 430.055 285.016C427.688 285.999 425.568 287.502 423.852 289.416V285.126C423.852 284.466 423.552 284.026 422.896 284.026H413.605C412.976 284.026 412.458 284.466 412.458 285.126V337.429C412.458 337.979 413.004 338.501 413.632 338.501H423.114C423.77 338.501 424.289 337.951 424.289 337.401V311.332C424.289 307.757 424.726 304.238 425.464 301.983C426.089 300.02 427.187 298.244 428.661 296.813C430.003 295.655 431.565 294.785 433.252 294.256C436.136 293.388 439.202 293.35 442.105 294.146C442.761 294.146 443.198 293.706 443.39 293.046C444.046 291.561 445.74 286.721 446.068 285.758C446.124 285.645 446.157 285.521 446.165 285.394C446.173 285.268 446.157 285.141 446.116 285.021C446.076 284.901 446.011 284.79 445.928 284.694C445.845 284.599 445.744 284.522 445.631 284.466C443.632 284.008 441.605 283.687 439.564 283.503ZM236.538 292.523C241.346 292.523 244.544 294.256 246.785 297.473C248.263 299.868 249.11 302.603 249.244 305.42H223.203C223.589 302.566 224.617 299.839 226.209 297.445C228.313 294.256 231.729 292.523 236.538 292.523ZM517.715 292.523C522.496 292.523 525.584 294.256 527.934 297.473C529.424 299.856 530.238 302.605 530.284 305.42H504.325C504.726 302.587 505.712 299.87 507.221 297.445C509.462 294.256 512.878 292.523 517.688 292.523H517.715ZM378.711 292.743C383.52 292.743 386.909 294.256 389.176 297.473C391.527 300.69 392.702 305.2 392.702 311.002C392.702 316.915 391.527 321.424 389.286 324.752C386.936 327.859 383.52 329.482 378.711 329.482C373.902 329.482 370.514 327.859 368.355 324.752C366.005 321.424 364.939 316.915 364.939 311.002C364.939 305.228 366.032 300.69 368.246 297.473C370.486 294.366 373.902 292.743 378.711 292.743ZM156.475 312.267C161.721 312.405 166.421 313.147 166.421 313.147V328.629C166.421 328.629 161.721 329.454 156.584 329.812C149.124 330.114 145.818 327.749 145.927 327.749C144.424 326.677 144.315 326.374 143.768 325.714C142.967 324.395 142.594 322.857 142.702 321.314C142.702 318.29 143.796 316.145 145.927 314.77C145.927 314.77 149.015 312.185 156.475 312.295V312.267Z" fill="black"/>
</svg>
