<svg width="180" height="180" viewBox="0 0 180 180" fill="none" xmlns="http://www.w3.org/2000/svg">
<path d="M80.5906 47.9788L81.5276 48.7636L82.6534 48.2878C86.7768 46.5456 90.712 45.1 95 45.1C102.075 45.1 108.525 47.6824 113.971 51.6834L114.776 52.2748L115.732 51.9866C118.912 51.0286 121.856 50.2 125 50.2C143.133 50.2 158 65.3066 158 83.9C158 102.493 143.133 117.6 125 117.6C123.481 117.6 122.084 117.336 120.48 117.034C120.101 116.962 119.71 116.888 119.303 116.815L118.08 116.596L117.342 117.595C113.139 123.28 107.178 127.265 100 127.265C99.8718 127.265 99.8312 127.261 99.8052 127.259C99.7724 127.256 99.7566 127.254 99.685 127.248C99.6532 127.245 99.6178 127.241 99.578 127.238C99.5406 127.235 99.499 127.232 99.453 127.228L98.5384 127.165L97.8936 127.817C91.8614 133.911 83.9688 138 75 138C66.2676 138 58.5214 134.119 52.5302 128.285L51.9602 127.73L51.1648 127.719C35.1126 127.48 22 114.111 22 97.6088C22 91.3966 24.1678 85.7992 27.4042 80.9448L27.8548 80.2686L27.7062 79.4696C27.3322 77.4588 27 75.6402 27 73.7C27 55.1066 41.8668 40 60 40C67.835 40 74.8552 43.174 80.5906 47.9788Z" stroke="black" stroke-width="6"/>
<path d="M97.8797 68.4158L97.7067 68.5884L99.7099 70.5916L99.8847 70.4174L99.8961 70.4058L99.9079 70.3944C100.93 69.4078 102.298 68.8618 103.718 68.874C105.139 68.8864 106.497 69.456 107.502 70.4604C108.506 71.4648 109.076 72.8234 109.088 74.2438C109.1 75.6642 108.554 77.0324 107.568 78.0542L107.556 78.0666L107.543 78.079L97.7051 87.917L99.7083 89.9202L109.546 80.0824C111.093 78.535 111.962 76.4366 111.962 74.2488C111.962 72.0612 111.093 69.963 109.547 68.4158M97.8797 68.4158H109.547M97.8797 68.4158C99.4269 66.869 101.525 66 103.713 66C105.901 66 107.999 66.8692 109.547 68.4158M80.1823 105.44L80.1939 105.428L80.2055 105.417L80.3801 105.242L82.3835 107.246L82.2117 107.417L82.1987 107.43L82.1859 107.443C81.4247 108.231 80.5143 108.86 79.5077 109.292C78.5009 109.725 77.4183 109.952 76.3227 109.962C75.2271 109.971 74.1407 109.763 73.1265 109.348C72.1125 108.933 71.1913 108.32 70.4165 107.545C69.6419 106.771 69.0293 105.849 68.6143 104.835C68.1995 103.821 67.9907 102.735 68.0003 101.639C68.0097 100.544 68.2373 99.461 68.6697 98.4544C69.1023 97.4478 69.7307 96.5372 70.5189 95.7762L70.5313 95.764L70.5437 95.7518L80.3817 85.9138L82.3849 87.917L72.5469 97.755L72.5347 97.7674L72.5225 97.7798C71.5357 98.8014 70.9897 100.17 71.0021 101.59C71.0145 103.01 71.5841 104.369 72.5885 105.374C73.5929 106.378 74.9515 106.948 76.3719 106.96C77.7921 106.972 79.1605 106.426 80.1823 105.44ZM72.5259 78.0508L72.5373 78.0624L72.5487 78.074L72.7231 78.2488L70.7199 80.252L70.5715 80.1032C69.1179 78.543 68.3247 76.48 68.3589 74.3472C68.3931 72.2044 69.2597 70.1592 70.7751 68.644C72.2907 67.129 74.3361 66.2628 76.4787 66.229C78.6115 66.1954 80.6741 66.989 82.2339 68.4426L92.0481 78.2538L90.0455 80.2564L80.2109 70.4158L80.1983 70.4034L80.1857 70.391C79.1639 69.4042 77.7957 68.8582 76.3753 68.8706C74.9549 68.883 73.5963 69.4526 72.5919 70.457C71.5875 71.4614 71.0179 72.82 71.0055 74.2404C70.9931 75.6608 71.5391 77.029 72.5259 78.0508Z" stroke="black" stroke-width="4"/>
<path d="M97.8641 107.405L88.0391 97.5802L90.0423 95.577L99.8803 105.415L99.8927 105.427L99.9051 105.439C100.927 106.426 102.295 106.972 103.715 106.96C105.136 106.947 106.494 106.378 107.499 105.373C108.503 104.369 109.073 103.01 109.085 101.59C109.097 100.17 108.551 98.8014 107.565 97.7798L107.553 97.768L107.542 97.7564L107.368 97.5818L109.371 95.5784L109.53 95.738C111.026 97.293 111.854 99.3724 111.835 101.531C111.816 103.694 110.949 105.764 109.419 107.293C107.889 108.823 105.819 109.691 103.656 109.71C101.498 109.729 99.4191 108.901 97.8641 107.405Z" stroke="black" stroke-width="4"/>
</svg>
