<svg width="180" height="180" viewBox="0 0 180 180" fill="none" xmlns="http://www.w3.org/2000/svg">
<path d="M80.5906 47.9788L81.5276 48.7636L82.6534 48.2878C86.7768 46.5456 90.712 45.1 95 45.1C102.075 45.1 108.525 47.6824 113.971 51.6834L114.776 52.2748L115.732 51.9866C118.912 51.0286 121.856 50.2 125 50.2C143.133 50.2 158 65.3066 158 83.9C158 102.493 143.133 117.6 125 117.6C123.481 117.6 122.084 117.336 120.48 117.034C120.101 116.962 119.71 116.888 119.303 116.815L118.08 116.596L117.342 117.595C113.139 123.28 107.178 127.265 100 127.265C99.8718 127.265 99.8312 127.261 99.8052 127.259C99.7724 127.256 99.7566 127.254 99.685 127.248C99.6532 127.245 99.6178 127.241 99.578 127.238C99.5406 127.235 99.499 127.232 99.453 127.228L98.5384 127.165L97.8936 127.817C91.8614 133.911 83.9688 138 75 138C66.2676 138 58.5214 134.119 52.5302 128.285L51.9602 127.73L51.1648 127.719C35.1126 127.48 22 114.111 22 97.6088C22 91.3966 24.1678 85.7992 27.4042 80.9448L27.8548 80.2686L27.7062 79.4696C27.3322 77.4588 27 75.6402 27 73.7C27 55.1066 41.8668 40 60 40C67.835 40 74.8552 43.174 80.5906 47.9788Z" stroke="black" stroke-width="6"/>
<mask id="mask0_423_571" style="mask-type:luminance" maskUnits="userSpaceOnUse" x="91" y="84" width="25" height="8">
<path d="M115.998 88.143C115.998 90.1956 110.595 91.8572 103.927 91.8572C97.2591 91.8572 91.8555 90.1956 91.8555 88.143V84.4288C91.8555 86.4794 97.2591 88.143 103.927 88.143C110.595 88.143 115.998 86.4814 115.998 84.4288" fill="white"/>
</mask>
<g mask="url(#mask0_423_571)">
<path d="M111.998 88.143C111.998 86.7642 112.895 86.2104 112.696 86.355C112.584 86.4364 112.165 86.6766 111.287 86.9468C109.579 87.472 106.976 87.8572 103.927 87.8572V95.8572C107.545 95.8572 110.978 95.4118 113.639 94.593C114.945 94.1912 116.294 93.6312 117.403 92.8236C118.426 92.0794 119.998 90.5482 119.998 88.143H111.998ZM103.927 87.8572C100.877 87.8572 98.2747 87.472 96.5669 86.9468C95.6887 86.6766 95.2695 86.4364 95.1575 86.355C94.9587 86.2104 95.8555 86.7642 95.8555 88.143H87.8555C87.8555 90.5482 89.4279 92.0794 90.4505 92.8236C91.5603 93.6312 92.9087 94.1912 94.2147 94.593C96.8759 95.4118 100.309 95.8572 103.927 95.8572V87.8572ZM95.8555 88.143V84.4288H87.8555V88.143H95.8555ZM87.8555 84.4288C87.8555 86.8344 89.4293 88.3656 90.4509 89.1088C91.5603 89.9158 92.9083 90.476 94.2143 90.878C96.8753 91.6968 100.308 92.143 103.927 92.143V84.143C100.878 84.143 98.2751 83.7574 96.5673 83.2318C95.6891 82.9614 95.2695 82.7212 95.1573 82.6396C94.9573 82.4942 95.8555 83.0482 95.8555 84.4288H87.8555ZM103.927 92.143C107.545 92.143 110.978 91.6974 113.639 90.8788C114.945 90.477 116.294 89.9168 117.403 89.1094C118.426 88.3652 119.998 86.8338 119.998 84.4288H111.998C111.998 83.05 112.895 82.496 112.696 82.6406C112.584 82.7222 112.165 82.9622 111.287 83.2324C109.579 83.7578 106.976 84.143 103.927 84.143V92.143Z" fill="black"/>
</g>
<path d="M93.8563 80.4284V77.507C94.1635 77.6236 94.4801 77.7314 94.8027 77.8314C97.2267 78.5816 100.453 79.0168 103.928 79.0168C107.403 79.0168 110.629 78.5816 113.053 77.8314C113.376 77.7314 113.692 77.6236 113.999 77.507V80.4284C113.967 80.4562 113.925 80.49 113.871 80.5298C113.508 80.7944 112.855 81.1164 111.87 81.4216C109.924 82.0242 107.114 82.4286 103.928 82.4286C100.742 82.4286 97.9321 82.0242 95.9857 81.4216C95.0003 81.1164 94.3477 80.7944 93.9851 80.5298C93.9307 80.49 93.8885 80.4562 93.8563 80.4284ZM114.092 80.3344C114.092 80.3344 114.089 80.34 114.079 80.351C114.087 80.3398 114.092 80.3344 114.092 80.3344ZM93.7637 80.3344C93.7637 80.3344 93.7691 80.3398 93.7763 80.351C93.7667 80.34 93.7637 80.3344 93.7637 80.3344Z" stroke="black" stroke-width="3"/>
<path d="M114.05 68.2326C114.05 68.2326 114.047 68.2282 114.042 68.2194M114.05 70.4262C114.05 70.4262 114.048 70.4306 114.042 70.4392M94.1153 70.425C94.1157 70.425 94.1187 70.4294 94.1233 70.4382M94.1155 68.2316C94.1151 68.2316 94.1173 68.2272 94.1235 68.2184M104.083 66C107.218 66 109.972 66.4292 111.874 67.0668C112.834 67.3892 113.468 67.7286 113.821 68.008C113.908 68.0774 113.964 68.1312 113.999 68.1686V70.4898C113.964 70.5274 113.908 70.5812 113.82 70.6508C113.468 70.9302 112.835 71.2694 111.874 71.5916C109.972 72.229 107.218 72.6576 104.083 72.6576C100.948 72.6576 98.1933 72.2286 96.2919 71.5908C95.3309 71.2686 94.6973 70.9292 94.3449 70.6496C94.2573 70.5802 94.2009 70.5266 94.1659 70.489V68.1678C94.2009 68.1302 94.2573 68.0764 94.3449 68.007C94.6973 67.7276 95.3307 67.3882 96.2917 67.066C98.1929 66.4286 100.948 66 104.083 66Z" stroke="black" stroke-width="3"/>
<path d="M66.0009 104.571V101.65C66.3081 101.767 66.6247 101.875 66.9473 101.974C69.3713 102.725 72.5975 103.16 76.0723 103.16C79.5471 103.16 82.7735 102.725 85.1973 101.974C85.5199 101.875 85.8365 101.767 86.1437 101.65V104.571C86.1115 104.599 86.0695 104.633 86.0151 104.673C85.6525 104.937 84.9997 105.26 84.0145 105.565C82.0681 106.167 79.2587 106.572 76.0723 106.572C72.8859 106.572 70.0765 106.167 68.1301 105.565C67.1449 105.26 66.4921 104.937 66.1297 104.673C66.0753 104.633 66.0331 104.599 66.0009 104.571ZM86.2365 104.477C86.2365 104.477 86.2335 104.483 86.2239 104.494C86.2309 104.483 86.2365 104.477 86.2365 104.477ZM65.9083 104.477C65.9083 104.477 65.9137 104.483 65.9209 104.494C65.9111 104.483 65.9083 104.477 65.9083 104.477Z" stroke="black" stroke-width="3"/>
<path d="M85.5315 92.4202C85.5315 92.4202 85.5283 92.416 85.5247 92.4078M85.5311 94.7626C85.5311 94.7626 85.5297 94.7666 85.5243 94.7748M65.9629 94.7614C65.9629 94.7614 65.9659 94.7656 65.9697 94.7738M65.9631 92.419C65.9631 92.419 65.9645 92.415 65.9699 92.4068M101 103.273L96.9121 107.538L96.6709 107.286L100.876 102.898L104.119 99.5144H99.4321H95.9007V99.0574H104.715V108.429H104.444V104.657V99.6792L101 103.273ZM75.7471 90.143C78.8287 90.143 81.5331 90.5806 83.3965 91.2288C84.3375 91.5562 84.9563 91.9002 85.3003 92.1832C85.4009 92.2658 85.4603 92.3274 85.4935 92.367V94.8154C85.4603 94.855 85.4009 94.9166 85.3003 94.9996C84.9563 95.2824 84.3377 95.6264 83.3967 95.9536C81.5333 96.6014 78.8291 97.0386 75.7471 97.0386C72.6655 97.0386 69.9613 96.601 68.0979 95.9528C67.1567 95.6254 66.5381 95.2814 66.1939 94.9984C66.0933 94.9158 66.0341 94.8542 66.0007 94.8146V92.3662C66.0339 92.3266 66.0933 92.265 66.1941 92.182C66.5381 91.8992 67.1565 91.5552 68.0977 91.228C69.9609 90.5802 72.6651 90.143 75.7471 90.143Z" stroke="black" stroke-width="3"/>
</svg>
