<svg width="180" height="180" viewBox="0 0 180 180" fill="none" xmlns="http://www.w3.org/2000/svg">
<path fill-rule="evenodd" clip-rule="evenodd" d="M112.731 73.282C113.138 73.6874 113.46 74.1688 113.68 74.699C113.9 75.2292 114.013 75.7974 114.013 76.3714C114.013 76.9454 113.9 77.5138 113.68 78.0438C113.46 78.574 113.138 79.0556 112.731 79.461L86.5496 105.643C86.1442 106.049 85.6626 106.372 85.1326 106.592C84.6024 106.812 84.034 106.925 83.4602 106.925C82.8862 106.925 82.3178 106.812 81.7876 106.592C81.2576 106.372 80.776 106.049 80.3706 105.643L67.2796 92.5518C66.874 92.1462 66.5522 91.6644 66.3326 91.1344C66.113 90.6044 66 90.0362 66 89.4624C66 88.8886 66.113 88.3204 66.3326 87.7904C66.5522 87.2602 66.874 86.7786 67.2796 86.373C67.6854 85.9672 68.167 85.6454 68.6972 85.4258C69.2272 85.2062 69.7954 85.0932 70.3692 85.0932C70.943 85.0932 71.511 85.2062 72.0412 85.4258C72.5712 85.6454 73.053 85.9672 73.4586 86.373L83.4602 96.3832L106.553 73.282C106.958 72.8756 107.439 72.5532 107.97 72.3332C108.5 72.1132 109.068 72 109.642 72C110.216 72 110.784 72.1132 111.314 72.3332C111.845 72.5532 112.326 72.8756 112.731 73.282Z" stroke="black" stroke-width="4"/>
<path d="M80.621 51.6724L81.5374 52.41L82.6274 51.9676C86.749 50.2942 90.6954 48.9 95 48.9C102.097 48.9 108.557 51.3888 114.002 55.2322L114.787 55.7868L115.711 55.5194C118.89 54.5992 121.843 53.8 125 53.8C143.209 53.8 158 68.353 158 86.1C158 103.847 143.209 118.4 125 118.4C123.473 118.4 122.068 118.145 120.463 117.854C120.084 117.786 119.695 117.715 119.29 117.645L118.101 117.44L117.365 118.396C113.177 123.84 107.213 127.686 100 127.686C99.87 127.686 99.8272 127.682 99.7986 127.68C99.7652 127.677 99.7486 127.675 99.6778 127.669C99.6572 127.667 99.635 127.665 99.611 127.663C99.564 127.659 99.5102 127.655 99.4476 127.651L98.5602 127.592L97.922 128.211C91.8974 134.059 83.9964 138 75 138C66.2406 138 58.4858 134.26 52.5014 128.661L51.9368 128.133L51.1636 128.122C35.038 127.892 22 115.01 22 99.2712C22 93.3424 24.153 87.99 27.3832 83.3348L27.8638 82.6422L27.7036 81.8146C27.329 79.8806 27 78.1472 27 76.3C27 58.553 41.7912 44 60 44C67.859 44 74.889 47.059 80.621 51.6724Z" stroke="black" stroke-width="6"/>
</svg>
