<svg width="180" height="180" viewBox="0 0 180 180" fill="none" xmlns="http://www.w3.org/2000/svg">
<path d="M130.951 126.483L130.104 127.824L131.216 128.954L147.798 145.808L142.489 151.169L125.71 134.497L124.581 133.376L123.235 134.223C119.518 136.562 115.102 137.921 110.417 137.921C96.9562 137.921 86.1666 127.054 86.1666 113.414C86.1666 99.7734 96.9562 88.906 110.417 88.906C123.877 88.906 134.667 99.7734 134.667 113.414C134.667 118.222 133.314 122.741 130.951 126.483ZM130.913 63.9066L131.207 65.4026L132.728 65.515C146.858 66.5576 158 78.3012 158 92.7966C158 100.263 155.051 107.043 150.307 111.954C150.135 107.164 149.117 102.439 147.297 98.0022C145.293 93.1156 142.355 88.6742 138.649 84.9322C134.943 81.19 130.543 78.2206 125.699 76.1944C120.854 74.168 115.661 73.1248 110.417 73.1248C99.8238 73.1248 89.6688 77.3744 82.1844 84.9322C74.7008 92.4892 70.5 102.735 70.5 113.414C70.5 115.702 70.7004 117.981 71.0734 120.25H55C46.2542 120.25 37.8626 116.741 31.6724 110.49C25.4814 104.239 22 95.7556 22 86.906C22 69.6634 34.8844 55.5586 51.4284 53.727L52.4926 53.6092L52.9846 52.6582C56.5208 45.824 61.8412 40.1008 68.3668 36.1076C74.892 32.1144 82.3738 30.0028 90.0008 30C99.6458 29.9952 108.997 33.3692 116.458 39.5506C123.919 45.7322 129.03 54.3394 130.913 63.9066ZM110.417 96.6872C106.012 96.6872 101.792 98.4542 98.6836 101.593C95.5758 104.732 93.8334 108.984 93.8334 113.414C93.8334 117.844 95.5758 122.096 98.6836 125.234C101.792 128.373 106.012 130.14 110.417 130.14C114.821 130.14 119.041 128.373 122.15 125.234C125.258 122.096 127 117.844 127 113.414C127 108.984 125.258 104.732 122.15 101.593C119.041 98.4542 114.821 96.6872 110.417 96.6872Z" stroke="black" stroke-width="6"/>
</svg>
