<svg width="180" height="180" viewBox="0 0 180 180" fill="none" xmlns="http://www.w3.org/2000/svg">
<path d="M80.5906 49.9788L81.5276 50.7636L82.6534 50.2878C86.7768 48.5456 90.712 47.1 95 47.1C102.075 47.1 108.525 49.6824 113.971 53.6834L114.776 54.2748L115.732 53.9866C118.912 53.0286 121.856 52.2 125 52.2C143.133 52.2 158 67.3066 158 85.9C158 104.493 143.133 119.6 125 119.6C123.481 119.6 122.084 119.336 120.48 119.034C120.101 118.962 119.71 118.888 119.303 118.815L118.08 118.596L117.342 119.595C113.139 125.28 107.178 129.265 100 129.265C99.8718 129.265 99.8312 129.261 99.8052 129.259C99.7724 129.256 99.7566 129.254 99.685 129.248C99.6532 129.245 99.6178 129.241 99.578 129.238C99.5406 129.235 99.499 129.232 99.453 129.228L98.5384 129.165L97.8936 129.817C91.8614 135.911 83.9688 140 75 140C66.2676 140 58.5214 136.119 52.5302 130.285L51.9602 129.73L51.1648 129.719C35.1126 129.48 22 116.111 22 99.6088C22 93.3966 24.1678 87.7992 27.4042 82.9448L27.8548 82.2686L27.7062 81.4696C27.3322 79.4588 27 77.6402 27 75.7C27 57.1066 41.8668 42 60 42C67.835 42 74.8552 45.174 80.5906 49.9788Z" stroke="black" stroke-width="6"/>
<path d="M65.9706 78.001C65.8618 78.001 65.7748 78.089 65.7748 78.221V94.2638C65.7748 94.3902 65.8618 94.5002 65.9706 94.5002H67.8206C67.9458 94.5002 68.0112 94.3902 68.0112 94.2638V78.2154C68.0112 78.1054 67.924 78.001 67.8152 78.001H65.9706ZM98.2544 78.001C96.9376 78.001 95.9146 78.364 95.1964 79.1174C94.4726 79.8488 93.9612 81.0974 93.7054 82.5548L93.5802 83.5006H91.9478C91.9478 83.5006 91.7302 83.5666 91.7084 83.7756L91.4364 85.3046C91.4092 85.4366 91.4744 85.5412 91.6648 85.5412H93.2592L91.6648 94.5222C91.5722 95.1362 91.4228 95.7402 91.2186 96.3262C91.1164 96.697 90.9508 97.047 90.729 97.3602C90.5386 97.6132 90.3698 97.789 90.076 97.8716C89.4772 98.0732 88.8268 98.0518 88.2422 97.811C88.2422 97.811 88.079 97.745 87.992 97.9376C87.8072 98.4226 87.6294 98.9104 87.4586 99.4006C87.4152 99.549 87.4804 99.659 87.5676 99.6976C87.786 99.7826 88.012 99.847 88.2422 99.89C88.6232 100 88.966 100 89.2652 100C89.9454 100 90.5386 99.89 91.05 99.725C91.562 99.5252 92.0204 99.2068 92.3886 98.7956C92.7954 98.3126 93.1124 97.7592 93.3246 97.1622C93.5802 96.5022 93.7708 95.6606 93.9394 94.6928L95.5554 85.5412H97.9388C97.9388 85.5412 98.151 85.5412 98.1946 85.3046L98.4448 83.8032C98.4666 83.6492 98.4068 83.5006 98.2108 83.5006H95.92C95.9364 83.4566 96.0832 82.0378 96.3662 81.2678C96.4712 80.9778 96.6384 80.7148 96.856 80.4978C97.0258 80.3182 97.237 80.184 97.4708 80.1074C98.0422 79.9434 98.6494 79.9588 99.212 80.1514C99.446 80.2118 99.4678 80.1514 99.5332 80.0414L100.061 78.518C100.126 78.3474 100.001 78.2814 99.9522 78.2594C99.7192 78.1778 99.4784 78.1208 99.2338 78.089C98.9114 78.0238 98.583 77.9942 98.2544 78.001ZM48.3242 83.5006C45.968 83.5006 44.3302 84.8316 44.3302 86.7236V86.7676C44.3302 88.7474 46.1368 89.4074 47.8398 89.8584L48.112 89.9464C49.3472 90.2874 50.4082 90.5898 50.4082 91.4038V91.4258C50.4082 92.1794 49.7062 92.7184 48.6016 92.7184C48.1772 92.7184 46.7952 92.7184 45.3096 91.8384C45.161 91.7734 45.019 91.6942 44.8852 91.6018C44.7982 91.5578 44.6294 91.4918 44.5424 91.7118L44.031 93.0152C43.9492 93.2132 44.0526 93.2518 44.0744 93.2958C44.3302 93.4498 44.5642 93.5542 44.7982 93.6808C46.0714 94.3078 47.2848 94.5002 48.5418 94.5002C51.1102 94.5002 52.7044 93.2352 52.7044 91.1728V91.1508C52.7044 89.237 50.898 88.5494 49.222 88.0546L49.0044 87.9886C47.731 87.6036 46.6264 87.279 46.6264 86.5036V86.4486C46.6264 85.7776 47.263 85.3046 48.2588 85.3046C49.369 85.3046 50.664 85.6292 51.5128 86.0746C51.5128 86.0746 51.7686 86.2066 51.8556 85.992C51.921 85.8656 52.3454 84.7876 52.3888 84.6832C52.427 84.5512 52.3454 84.4632 52.2582 84.4246C51.1292 83.8072 49.8636 83.4894 48.58 83.5006H48.3242ZM59.0166 83.5006C58.3692 83.5046 57.723 83.5616 57.0848 83.6712C57.0848 83.6712 55.4904 83.9516 54.832 84.4412C54.832 84.4412 54.7014 84.5126 54.7886 84.7052L55.3 85.992C55.3598 86.1626 55.534 86.102 55.534 86.102C55.534 86.102 55.5722 86.08 55.6428 86.058C57.0412 85.3266 58.8042 85.3706 58.8042 85.3706C59.5932 85.3706 60.1864 85.4972 60.6108 85.7996C60.9918 86.0746 61.2094 86.531 61.2094 87.433V87.708C60.589 87.6256 60.0122 87.5596 60.0122 87.5596C59.7184 87.5376 59.3376 87.5376 58.8696 87.5376C58.2678 87.532 57.6678 87.606 57.0848 87.7576C56.5458 87.8846 56.0334 88.1082 55.5722 88.4174C55.1444 88.7032 54.79 89.0878 54.5382 89.5394C54.26 90.0132 54.1186 90.5562 54.1302 91.1068C54.1302 91.7118 54.239 92.2234 54.4458 92.6524C54.6766 93.0812 55.0048 93.4488 55.4034 93.7248C55.8568 94.007 56.3532 94.2114 56.8726 94.3298C57.444 94.4398 58.1024 94.5002 58.8042 94.5002C59.5498 94.5002 60.2952 94.4342 61.0134 94.3298C61.7372 94.2198 62.5916 94.0492 62.8418 93.9832C63.0758 93.9392 63.3316 93.8732 63.3316 93.8732C63.522 93.8348 63.5002 93.6642 63.5002 93.6642V87.4496C63.5002 86.0746 63.1194 85.0682 62.3576 84.4466C61.5902 83.8252 60.464 83.5006 59.0166 83.5006ZM75.3406 83.5006C74.5272 83.4758 73.7174 83.6218 72.9628 83.9296C72.336 84.2052 71.7744 84.6126 71.3156 85.1246C70.8568 85.6368 70.5112 86.2418 70.302 86.8996C70.0898 87.5596 69.9864 88.291 69.9864 89.0664C69.9864 89.8584 70.1116 90.5898 70.3238 91.2334C70.5414 91.8988 70.9006 92.4818 71.3902 92.9548C71.8582 93.4498 72.4514 93.8348 73.1968 94.0932C73.9204 94.3682 74.8128 94.5002 75.8304 94.5002C77.9362 94.4782 79.019 94.0492 79.487 93.8128C79.5524 93.7688 79.634 93.7028 79.5524 93.4882L79.0626 92.2454C78.9974 92.0528 78.7906 92.1134 78.7906 92.1134C78.2518 92.3114 77.5336 92.6304 75.8086 92.6304C74.6822 92.6304 73.8498 92.3278 73.3438 91.8384C72.7942 91.3434 72.5384 90.6118 72.4948 89.5834H79.7428C79.7428 89.5834 79.9332 89.5834 79.955 89.4074C79.955 89.325 80.2108 87.9886 79.7374 86.465C79.5542 85.8692 79.2354 85.3248 78.8068 84.8756C78.4254 84.4604 77.962 84.1306 77.4466 83.9076C76.7786 83.6308 76.0626 83.4924 75.3406 83.5006ZM85.6956 83.5006C83.3558 83.5006 81.6962 84.8316 81.6962 86.7236V86.7676C81.6962 88.7474 83.5246 89.4074 85.206 89.8584L85.4998 89.9464C86.735 90.2874 87.796 90.5898 87.796 91.4038V91.4258C87.796 92.1794 87.0942 92.7184 85.9678 92.7184C85.5434 92.7184 84.1612 92.7184 82.6756 91.8384C82.507 91.7504 82.3764 91.6844 82.2512 91.6018C82.2078 91.5798 81.9956 91.4918 81.9084 91.7118L81.4188 93.0152C81.3372 93.2132 81.4404 93.2518 81.4622 93.2958C81.6962 93.4498 81.9302 93.5542 82.186 93.6808C83.3518 94.2502 84.6352 94.531 85.9296 94.5002C88.4762 94.5002 90.0924 93.2352 90.0924 91.1728V91.1508C90.0924 89.237 88.2858 88.5494 86.6098 88.0546L86.3758 87.9886C85.0972 87.6036 83.9926 87.279 83.9926 86.5036V86.4486C83.9926 85.7776 84.651 85.3046 85.625 85.3046C86.735 85.3046 88.0518 85.6292 88.9006 86.0746C88.9006 86.0746 89.1564 86.2066 89.2434 85.992C89.408 85.5504 89.5858 85.1138 89.7768 84.6832C89.8148 84.5512 89.7332 84.4632 89.6244 84.4246C88.4968 83.8082 87.2332 83.4902 85.9514 83.5006H85.6956ZM103.489 83.5006C102.613 83.5006 101.824 83.6492 101.166 83.9296C100.546 84.1972 99.9942 84.6012 99.5494 85.1122C99.0974 85.612 98.7578 86.205 98.5536 86.85C98.15 88.2622 98.15 89.7608 98.5536 91.1728C98.755 91.8244 99.0952 92.4236 99.5502 92.9282C100.005 93.4326 100.564 93.8304 101.187 94.0932C101.919 94.3798 102.699 94.518 103.484 94.5002C104.354 94.5002 105.116 94.3738 105.78 94.0712C106.411 93.8122 106.977 93.416 107.439 92.9108C107.878 92.4084 108.203 91.8152 108.392 91.1728C108.609 90.502 108.718 89.776 108.718 89.0004C108.718 88.247 108.609 87.5156 108.392 86.8556C108.204 86.2112 107.879 85.6162 107.439 85.1122C106.978 84.6 106.412 84.1964 105.78 83.9296C105.05 83.6334 104.27 83.4876 103.484 83.5006H103.489ZM122.447 83.5006C121.549 83.5006 120.744 83.6492 120.042 83.9296C119.396 84.191 118.816 84.595 118.344 85.1122C117.865 85.6002 117.507 86.1956 117.299 86.85C117.048 87.5378 116.926 88.2672 116.94 89.0004C116.94 90.6778 117.408 92.0254 118.366 93.0152C119.318 94.0052 120.722 94.5002 122.594 94.5002C123.698 94.5002 124.825 94.2802 125.63 93.9832C125.63 93.9832 125.782 93.9228 125.717 93.7468L125.184 92.3938C125.124 92.2014 124.912 92.2674 124.912 92.2674C124.599 92.3988 124.269 92.4856 123.932 92.5258C123.538 92.5878 123.14 92.6154 122.741 92.6084C121.701 92.6084 120.869 92.3334 120.298 91.7504C119.699 91.1894 119.362 90.2654 119.362 89.0004C119.383 87.884 119.661 87.0206 120.189 86.3606C120.722 85.7116 121.511 85.3926 122.572 85.3926C123.443 85.3926 124.123 85.5026 124.825 85.6896C124.825 85.6896 125.015 85.7556 125.08 85.5632C125.271 85.0682 125.418 84.7272 125.614 84.1882C125.674 84.0176 125.527 83.9516 125.483 83.9296C125.008 83.792 124.527 83.6782 124.041 83.5886C123.512 83.523 122.98 83.4936 122.447 83.5006ZM131.327 83.5006C130.514 83.4758 129.704 83.6218 128.949 83.9296C128.317 84.199 127.75 84.604 127.287 85.1168C126.825 85.6296 126.479 86.238 126.272 86.8996C126.072 87.604 125.971 88.3336 125.973 89.0664C125.973 89.8584 126.082 90.5898 126.31 91.2334C126.512 91.8858 126.871 92.4774 127.355 92.9548C127.845 93.4498 128.443 93.8348 129.162 94.0932C129.907 94.3682 130.794 94.5002 131.795 94.5002C133.901 94.4782 135.006 94.0492 135.452 93.8128C135.539 93.7688 135.62 93.7028 135.517 93.4882L135.027 92.2454C134.962 92.0528 134.755 92.1134 134.755 92.1134C134.238 92.3114 133.498 92.6304 131.773 92.6304C130.669 92.6304 129.842 92.3278 129.308 91.8384C128.781 91.3434 128.525 90.6118 128.46 89.5834H135.708C135.708 89.5834 135.898 89.5834 135.942 89.4074C135.942 89.325 136.175 87.9886 135.708 86.465C135.523 85.8686 135.202 85.3242 134.772 84.8756C134.39 84.4604 133.927 84.1306 133.411 83.9076C132.751 83.6308 132.042 83.4924 131.327 83.5006ZM115.602 83.5006C114.955 83.4414 114.305 83.5454 113.708 83.8032C113.237 83.9998 112.814 84.3004 112.473 84.6832V83.8252C112.473 83.6932 112.413 83.6052 112.282 83.6052H110.432C110.307 83.6052 110.204 83.6932 110.204 83.8252V94.2858C110.204 94.3958 110.313 94.5002 110.438 94.5002H112.326C112.456 94.5002 112.56 94.3902 112.56 94.2802V89.0664C112.56 88.3514 112.647 87.6476 112.794 87.1966C112.918 86.804 113.137 86.4488 113.43 86.1626C113.698 85.931 114.009 85.757 114.345 85.6512C114.919 85.4776 115.529 85.47 116.108 85.6292C116.238 85.6292 116.325 85.5412 116.363 85.4092C116.494 85.1122 116.831 84.1442 116.897 83.9516C116.908 83.929 116.914 83.9042 116.916 83.8788C116.918 83.8536 116.914 83.8282 116.906 83.8042C116.898 83.7802 116.885 83.758 116.869 83.7388C116.852 83.7198 116.832 83.7044 116.81 83.6932C116.412 83.6016 116.008 83.5374 115.602 83.5006ZM75.172 85.3046C76.1296 85.3046 76.7664 85.6512 77.2126 86.2946C77.507 86.7736 77.6756 87.3206 77.7022 87.884H72.5166C72.5934 87.3132 72.7982 86.7678 73.1152 86.289C73.5342 85.6512 74.2144 85.3046 75.172 85.3046ZM131.164 85.3046C132.116 85.3046 132.731 85.6512 133.199 86.2946C133.496 86.7712 133.658 87.321 133.667 87.884H128.498C128.577 87.3174 128.774 86.774 129.074 86.289C129.521 85.6512 130.201 85.3046 131.159 85.3046H131.164ZM103.484 85.3486C104.441 85.3486 105.116 85.6512 105.568 86.2946C106.036 86.938 106.27 87.84 106.27 89.0004C106.27 90.183 106.036 91.0848 105.589 91.7504C105.121 92.3718 104.441 92.6964 103.484 92.6964C102.526 92.6964 101.851 92.3718 101.421 91.7504C100.953 91.0848 100.741 90.183 100.741 89.0004C100.741 87.8456 100.959 86.938 101.4 86.2946C101.846 85.6732 102.526 85.3486 103.484 85.3486ZM59.2288 89.2534C60.2734 89.281 61.2094 89.4294 61.2094 89.4294V92.5258C61.2094 92.5258 60.2734 92.6908 59.2504 92.7624C57.765 92.8228 57.1066 92.3498 57.1284 92.3498C56.829 92.1354 56.8074 92.0748 56.6984 91.9428C56.5388 91.679 56.4646 91.3714 56.4862 91.0628C56.4862 90.458 56.704 90.029 57.1284 89.754C57.1284 89.754 57.7432 89.237 59.2288 89.259V89.2534Z" fill="black"/>
</svg>
