<svg width="180" height="180" viewBox="0 0 180 180" fill="none" xmlns="http://www.w3.org/2000/svg">
<path d="M80.5906 47.9788L81.5276 48.7636L82.6534 48.2878C86.7768 46.5456 90.712 45.1 95 45.1C102.075 45.1 108.525 47.6824 113.971 51.6834L114.776 52.2748L115.732 51.9866C118.912 51.0286 121.856 50.2 125 50.2C143.133 50.2 158 65.3066 158 83.9C158 102.493 143.133 117.6 125 117.6C123.481 117.6 122.084 117.336 120.48 117.034C120.101 116.962 119.71 116.888 119.303 116.815L118.08 116.596L117.342 117.595C113.139 123.28 107.178 127.265 100 127.265C99.8718 127.265 99.8312 127.261 99.8052 127.259C99.7724 127.256 99.7566 127.254 99.685 127.248C99.6532 127.245 99.6178 127.241 99.578 127.238C99.5406 127.235 99.499 127.232 99.453 127.228L98.5384 127.165L97.8936 127.817C91.8614 133.911 83.9688 138 75 138C66.2676 138 58.5214 134.119 52.5302 128.285L51.9602 127.73L51.1648 127.719C35.1126 127.48 22 114.111 22 97.6088C22 91.3966 24.1678 85.7992 27.4042 80.9448L27.8548 80.2686L27.7062 79.4696C27.3322 77.4588 27 75.6402 27 73.7C27 55.1066 41.8668 40 60 40C67.835 40 74.8552 43.174 80.5906 47.9788Z" stroke="black" stroke-width="6"/>
<path d="M78.1 74.7002H71.3C68.7858 74.7002 66.3104 75.3198 64.0926 76.5042C61.8748 77.6886 59.9832 79.4012 58.5848 81.4906C57.1864 83.5802 56.3246 85.982 56.0754 88.4838C55.8262 90.9856 56.1972 93.5102 57.156 95.8344C58.1146 98.1586 59.6312 100.211 61.5718 101.809C63.5122 103.408 65.8168 104.504 68.2816 105C70.7464 105.496 73.2954 105.377 75.7032 104.653C78.111 103.93 80.3034 102.624 82.0866 100.852C84.8746 98.0806 90.0002 90.0004 90.0002 90.0004C90.0002 90.0004 95.1104 81.9558 97.8746 79.1882C99.653 77.4076 101.843 76.0932 104.251 75.3614C106.659 74.6296 109.21 74.503 111.678 74.9928C114.147 75.4826 116.456 76.5736 118.402 78.1694C120.348 79.765 121.87 81.8162 122.834 84.1408C123.798 86.4654 124.173 88.992 123.927 91.4964C123.681 94.0008 122.821 96.406 121.423 98.4986C120.025 100.591 118.133 102.307 115.914 103.493C113.695 104.68 111.217 105.301 108.7 105.301H101.9" stroke="black" stroke-width="6" stroke-linecap="round" stroke-linejoin="round"/>
<path d="M108.701 98.5002L101.901 105.3L108.701 112.1M71.3008 67.9L78.1008 74.7L71.3008 81.5" stroke="black" stroke-width="6" stroke-linecap="round" stroke-linejoin="round"/>
</svg>
