<svg width="180" height="180" viewBox="0 0 180 180" fill="none" xmlns="http://www.w3.org/2000/svg">
<path d="M80.5906 47.9788L81.5276 48.7636L82.6534 48.2878C86.7768 46.5456 90.712 45.1 95 45.1C102.075 45.1 108.525 47.6824 113.971 51.6834L114.776 52.2748L115.732 51.9866C118.912 51.0286 121.856 50.2 125 50.2C143.133 50.2 158 65.3066 158 83.9C158 102.493 143.133 117.6 125 117.6C123.481 117.6 122.084 117.336 120.48 117.034C120.101 116.962 119.71 116.888 119.303 116.815L118.08 116.596L117.342 117.595C113.139 123.28 107.178 127.265 100 127.265C99.8718 127.265 99.8312 127.261 99.8052 127.259C99.7724 127.256 99.7566 127.254 99.685 127.248C99.6532 127.245 99.6178 127.241 99.578 127.238C99.5406 127.235 99.499 127.232 99.453 127.228L98.5384 127.165L97.8936 127.817C91.8614 133.911 83.9688 138 75 138C66.2676 138 58.5214 134.119 52.5302 128.285L51.9602 127.73L51.1648 127.719C35.1126 127.48 22 114.111 22 97.6088C22 91.3966 24.1678 85.7992 27.4042 80.9448L27.8548 80.2686L27.7062 79.4696C27.3322 77.4588 27 75.6402 27 73.7C27 55.1066 41.8668 40 60 40C67.835 40 74.8552 43.174 80.5906 47.9788Z" stroke="black" stroke-width="6"/>
<path d="M113.407 64.757C115.063 66.456 115.993 68.733 116 71.1056V71.1172C115.994 73.4492 115.096 75.6908 113.491 77.3824C112.254 78.6858 110.67 79.5866 108.942 79.9896L105.053 99.4518C105.86 100.031 106.57 100.741 107.152 101.555C108.045 102.804 108.609 104.257 108.791 105.782C108.974 107.306 108.77 108.851 108.197 110.276C107.625 111.7 106.702 112.957 105.516 113.93C104.329 114.904 102.916 115.562 101.407 115.844C99.8984 116.127 98.343 116.024 96.8846 115.545C95.4264 115.067 94.1124 114.228 93.064 113.107C92.3808 112.376 91.8248 111.54 91.4152 110.635H79.4396C78.9984 111.608 78.3882 112.5 77.6332 113.267C76.5038 114.416 75.0906 115.244 73.5372 115.67C71.9838 116.095 70.3458 116.101 68.789 115.688C67.2324 115.275 65.8128 114.458 64.6742 113.319C63.5358 112.179 62.7188 110.759 62.3062 109.202C61.8936 107.645 61.9002 106.006 62.325 104.453C62.7498 102.899 63.5778 101.485 64.7254 100.355C65.4924 99.5996 66.3838 98.9888 67.3564 98.5472V86.5608C66.4522 86.1506 65.6178 85.594 64.888 84.9102C63.7682 83.8612 62.931 82.547 62.4536 81.0888C61.976 79.6306 61.8736 78.0756 62.1556 76.5674C62.4376 75.0592 63.0952 73.6462 64.0674 72.4594M113.407 64.757L111.982 66.1458M113.407 64.757C111.751 63.0578 109.499 62.0702 107.128 62.0036C104.756 61.937 102.452 62.7966 100.703 64.4C99.3476 65.6434 98.408 67.2582 97.989 69.0252L78.5346 72.9178C77.9554 72.1114 77.2462 71.402 76.433 70.8202C75.1852 69.9276 73.7326 69.3638 72.2094 69.1816C70.6862 68.9992 69.1416 69.204 67.7184 69.7768C66.2954 70.3498 65.0396 71.2724 64.0674 72.4594M64.0674 72.4594L65.6146 73.7268M107.968 72.2248L109.382 73.6386M107.968 72.2248C107.748 72.4448 107.468 72.5946 107.163 72.6552C106.859 72.7158 106.543 72.6846 106.256 72.5658C105.969 72.4468 105.724 72.2452 105.551 71.9864C105.378 71.728 105.286 71.424 105.286 71.113C105.286 70.6952 105.452 70.2946 105.747 69.9994C106.042 69.7044 106.442 69.5386 106.858 69.538C107.168 69.5382 107.472 69.6302 107.73 69.8028C107.988 69.9756 108.19 70.2214 108.309 70.509C108.428 70.7968 108.459 71.1134 108.398 71.4188C108.338 71.7244 108.188 72.0048 107.968 72.2248ZM70.0312 105.735L68.6166 104.322M70.0312 105.735C70.2512 105.515 70.5312 105.366 70.8358 105.305C71.1404 105.244 71.456 105.275 71.743 105.394C72.03 105.513 72.2756 105.715 72.4484 105.974M70.0312 105.735C69.8114 105.955 69.6616 106.236 69.6008 106.541C69.54 106.847 69.5712 107.163 69.6904 107.451M72.4484 105.974L74.1116 104.863M72.4484 105.974C72.621 106.232 72.7134 106.536 72.7136 106.847C72.7128 107.265 72.5468 107.666 72.2518 107.961C71.9568 108.256 71.5572 108.422 71.1406 108.422C70.8306 108.422 70.5274 108.33 70.2694 108.157C70.011 107.985 69.8094 107.739 69.6904 107.451M69.6904 107.451L67.8528 108.212M70.0324 79.3712C69.7374 79.076 69.5712 78.6758 69.5706 78.258C69.5708 77.9468 69.663 77.6428 69.8358 77.3842C70.0086 77.1254 70.254 76.924 70.541 76.805C70.828 76.686 71.1438 76.6548 71.4484 76.7156C71.753 76.7762 72.033 76.9258 72.2528 77.1458C72.4728 77.3658 72.6226 77.6462 72.6834 77.9518C72.744 78.2572 72.7128 78.574 72.5938 78.8616C72.4746 79.1494 72.273 79.395 72.0146 79.5678C71.7566 79.7404 71.4532 79.8324 71.143 79.8326C70.7266 79.832 70.3272 79.6662 70.0324 79.3712ZM93.9354 99.7972C92.8538 100.684 91.9964 101.802 91.4208 103.062H79.4348C78.9842 102.076 78.3598 101.174 77.5876 100.401C76.8152 99.628 75.9136 99.003 74.9278 98.552V86.5558C76.1868 85.9798 77.3048 85.1216 78.1906 84.0396C79.0764 82.9578 79.697 81.6926 80.0136 80.3448L99.4694 76.452C100.039 77.2404 100.731 77.9332 101.519 78.5038L97.628 97.973C96.281 98.2898 95.0164 98.911 93.9354 99.7972ZM99.7126 108.422C99.4026 108.422 99.0994 108.33 98.8414 108.157C98.583 107.985 98.3814 107.739 98.2624 107.451C98.1432 107.163 98.112 106.847 98.1728 106.541C98.2336 106.236 98.3834 105.955 98.6032 105.735C98.8232 105.515 99.103 105.366 99.4076 105.305C99.7122 105.244 100.028 105.275 100.315 105.394C100.602 105.513 100.848 105.715 101.02 105.974C101.193 106.232 101.285 106.536 101.286 106.847C101.285 107.265 101.119 107.665 100.824 107.961C100.529 108.256 100.129 108.422 99.7126 108.422Z" stroke="black" stroke-width="4"/>
</svg>
