<svg width="56" height="40" viewBox="0 0 56 40" fill="none" xmlns="http://www.w3.org/2000/svg">
<g clip-path="url(#clip0_603_1175)">
<mask id="mask0_603_1175" style="mask-type:luminance" maskUnits="userSpaceOnUse" x="0" y="0" width="56" height="40">
<path d="M56 0H0V39.7419H56V0Z" fill="white"/>
</mask>
<g mask="url(#mask0_603_1175)">
<path d="M15.0953 0.0219459C15.2131 0.022539 15.3308 0.0219458 15.4485 0.0212458C16.1626 0.0204829 16.8633 0.0977185 17.5616 0.247718C17.6061 0.257211 17.6507 0.266704 17.6966 0.276485C19.0108 0.564749 20.2674 1.10204 21.3941 1.83776C21.4233 1.85683 21.4525 1.87589 21.4826 1.89553C21.8417 2.13191 22.1818 2.37853 22.5033 2.66425C22.5862 2.73535 22.6718 2.80283 22.7571 2.87103C22.9672 3.04265 23.1588 3.22804 23.3491 3.42105C23.4036 3.47634 23.4584 3.53133 23.5132 3.58628C23.6911 3.76524 23.8641 3.9458 24.0242 4.14111C24.0403 4.15746 24.0564 4.17382 24.073 4.19066C24.16 4.19912 24.16 4.19912 24.2438 4.09775C24.284 4.05606 24.3242 4.01426 24.3643 3.97238C24.5737 3.75856 24.7906 3.56551 25.0272 3.38185C25.0745 3.34442 25.1218 3.30699 25.1691 3.26955C27.1545 1.71083 29.5869 0.93715 32.108 1.23491C33.6359 1.43483 35.1463 1.95955 36.4033 2.86716C36.4289 2.88524 36.4544 2.90333 36.4808 2.92196C36.8665 3.19525 37.2239 3.4818 37.5631 3.81109C37.6283 3.87312 37.6966 3.93086 37.7657 3.98846C38.2374 4.39883 38.6604 4.92259 39.0088 5.44064C39.0088 5.46491 39.0088 5.48917 39.0088 5.51417C39.0666 5.49586 39.0666 5.49586 39.1256 5.47717C42.0575 4.5509 44.82 4.4165 47.7427 5.51417C47.7866 5.53041 47.7866 5.53041 47.8313 5.54698C49.1166 6.02688 50.2982 6.74295 51.3457 7.62713C51.4086 7.68004 51.4722 7.73213 51.5359 7.78406C51.8126 8.01232 52.0688 8.25974 52.323 8.51274C52.355 8.54444 52.387 8.57615 52.4199 8.60881C52.6379 8.82818 52.8343 9.05931 53.0271 9.30087C53.0588 9.33863 53.0907 9.37626 53.1229 9.4136C53.5809 9.94859 53.9625 10.5283 54.3116 11.1391C54.3297 11.1703 54.3478 11.2016 54.3664 11.2338C55.2105 12.6965 55.7179 14.3186 55.9262 15.9919C55.9305 16.0251 55.9348 16.0582 55.9393 16.0924C56.3483 19.3722 55.3624 22.7702 53.3575 25.3754C53.2895 25.4627 53.2204 25.5491 53.1509 25.6352C53.1039 25.6935 53.0572 25.7521 53.0107 25.8108C52.7539 26.1265 52.4672 26.4135 52.1808 26.7018C52.1605 26.7223 52.1401 26.7429 52.1191 26.7641C51.8591 27.0265 51.5924 27.2696 51.3024 27.4991C51.258 27.5358 51.2138 27.5727 51.1696 27.6098C50.6106 28.0727 49.9982 28.4617 49.3649 28.8142C49.2894 28.8564 49.2143 28.8993 49.1392 28.9424C46.9681 30.1635 44.2184 30.674 41.7611 30.2931C41.7248 30.281 41.6884 30.2689 41.651 30.2564C41.6432 30.2805 41.6353 30.3046 41.6272 30.3295C41.5596 30.4803 41.4672 30.6073 41.3712 30.7412C41.3513 30.7692 41.3314 30.7971 41.3108 30.8259C41.1617 31.034 41.008 31.2365 40.8437 31.4328C40.8288 31.451 40.8139 31.4692 40.7985 31.4879C40.3739 32.006 39.9081 32.4956 39.3758 32.9034C39.3391 32.9326 39.3024 32.9618 39.2645 32.9919C38.7701 33.3834 38.2458 33.7136 37.6877 34.0063C37.6591 34.0215 37.6304 34.0366 37.6009 34.0523C36.0329 34.8726 34.0508 35.2984 32.2932 34.9989C32.2647 34.9942 32.2362 34.9894 32.2068 34.9845C31.4708 34.8558 30.7631 34.6062 30.0547 34.374C30.0387 34.4156 30.0387 34.4156 30.0225 34.458C29.9683 34.5892 29.8959 34.7067 29.8207 34.8266C29.8047 34.8522 29.7887 34.8778 29.7722 34.9041C29.5886 35.1928 29.3844 35.4648 29.1739 35.7342C29.1456 35.7705 29.1173 35.8068 29.0881 35.8442C28.6666 36.3711 28.1941 36.8856 27.6645 37.3047C27.5654 37.3837 27.4681 37.4646 27.3709 37.546C25.3387 39.2123 22.6279 39.9485 20.0299 39.7067C18.0582 39.4973 16.1832 38.7536 14.6418 37.4989C14.6203 37.4814 14.5987 37.4638 14.5765 37.4458C14.4369 37.3313 14.3 37.2141 14.1648 37.0945C14.1356 37.0687 14.1356 37.0687 14.1058 37.0424C13.6433 36.6314 13.2285 36.1834 12.8561 35.689C12.807 35.624 12.7573 35.5594 12.7076 35.4948C11.7061 34.1765 11.7061 34.1765 11.7061 33.7857C11.6658 33.7937 11.6256 33.8017 11.5842 33.8099C9.18851 34.2462 6.55794 33.411 4.58679 32.0578C3.91332 31.5853 3.24058 31.0396 2.71523 30.4034C2.68349 30.3675 2.65175 30.3316 2.61904 30.2946C1.05625 28.5236 0.0902739 26.1567 0.0363308 23.7859C0.0355798 23.7569 0.0348288 23.7279 0.0340551 23.698C-0.0333936 20.7455 1.11893 18.1197 3.12019 15.9939C3.22509 15.8843 3.33412 15.782 3.45061 15.6847C3.53898 15.6105 3.62336 15.5324 3.70835 15.4543C3.84824 15.3275 3.99011 15.2151 4.14642 15.1096C4.09254 14.8888 4.03722 14.6687 3.97584 14.4498C3.75794 13.6713 3.55597 12.8767 3.55181 12.0639C3.55155 12.0302 3.55129 11.9964 3.55103 11.9616C3.54264 10.5467 3.54264 10.5467 3.66936 9.85233C3.67684 9.81052 3.68433 9.76872 3.69204 9.72565C4.05894 7.72491 4.87095 5.81696 6.20147 4.26419C6.23146 4.22742 6.26145 4.19064 6.29235 4.15275C6.5236 3.87153 6.77308 3.61032 7.02945 3.35198C7.0769 3.30394 7.0769 3.30394 7.12531 3.25492C7.34425 3.03662 7.57442 2.83902 7.81615 2.64657C7.85777 2.61241 7.89935 2.57819 7.94086 2.54389C9.38574 1.37943 11.0868 0.605498 12.8987 0.229336C12.9312 0.222473 12.9638 0.21561 12.9973 0.20854C13.6915 0.0726621 14.3889 0.0177382 15.0953 0.0219459ZM8.69688 5.03624C8.66805 5.06391 8.66805 5.06391 8.63865 5.09214C8.38129 5.34038 8.14384 5.59732 7.92624 5.88181C7.90722 5.9064 7.88821 5.93099 7.86861 5.95633C7.54434 6.37771 7.26023 6.81019 7.00881 7.27884C6.9953 7.30389 6.98178 7.32894 6.96786 7.35474C5.86475 9.42143 5.56823 11.9597 6.24096 14.2124C6.41438 14.7682 6.60915 15.3157 6.83673 15.8517C6.86342 15.9221 6.88189 15.9921 6.89872 16.0655C6.87355 16.0743 6.84838 16.0831 6.82245 16.0922C6.6943 16.1481 6.58258 16.2213 6.46752 16.2998C6.44373 16.3159 6.41994 16.3321 6.39543 16.3487C6.31838 16.4011 6.24157 16.4538 6.16477 16.5066C6.13896 16.5242 6.11315 16.5418 6.08656 16.5599C5.28938 17.1041 4.57042 17.7453 3.99963 18.5286C3.97655 18.5597 3.95346 18.5908 3.92968 18.6229C2.93551 19.9991 2.41376 21.6609 2.41248 23.3539C2.41244 23.398 2.41244 23.398 2.4124 23.443C2.41304 23.9208 2.43989 24.3821 2.53174 24.8521C2.5406 24.9001 2.5406 24.9001 2.54964 24.9491C2.82392 26.4085 3.5033 27.6901 4.46648 28.805C4.50919 28.8545 4.55159 28.9042 4.59396 28.954C4.72878 29.11 4.86829 29.2509 5.02572 29.384C5.10238 29.4491 5.17577 29.5171 5.24963 29.5854C5.61799 29.9132 6.0302 30.1973 6.45835 30.4402C6.49875 30.4632 6.49875 30.4632 6.53997 30.4867C8.58518 31.6383 10.8591 31.7643 13.1005 31.1755C13.1064 31.1964 13.1122 31.2173 13.1183 31.2389C13.3831 32.1567 13.7826 33.0862 14.3483 33.8593C14.3733 33.8943 14.3983 33.9293 14.4241 33.9654C14.9149 34.6383 15.4772 35.2383 16.1464 35.7342C16.1672 35.7499 16.188 35.7657 16.2095 35.7819C16.5165 36.0137 16.8349 36.2128 17.1742 36.3937C17.2215 36.419 17.2687 36.4445 17.3157 36.4703C18.0015 36.8466 18.7564 37.0938 19.5226 37.2416C19.5667 37.2505 19.5667 37.2505 19.6118 37.2596C20.8496 37.5013 22.2144 37.396 23.4125 37.021C23.4416 37.0119 23.4707 37.0029 23.5008 36.9936C24.4138 36.7048 25.2709 36.2624 26.018 35.6607C26.0537 35.6324 26.0895 35.604 26.1263 35.5748C26.7143 35.099 27.234 34.5511 27.6694 33.9328C27.6853 33.9107 27.7013 33.8885 27.7178 33.8658C28.1155 33.3142 28.9171 32.1763 28.9171 31.4696C29.2006 31.5769 29.4733 31.7044 29.7466 31.8351C30.1597 32.0321 30.5701 32.2191 31.0088 32.3519C31.0335 32.3598 31.0581 32.3677 31.0836 32.3758C33.0089 32.9878 35.0592 32.7218 36.8391 31.8051C37.1674 31.6321 37.4693 31.4413 37.7611 31.2122C37.7931 31.1878 37.8251 31.1634 37.8581 31.1383C38.1076 30.9443 38.3391 30.7309 38.5684 30.5137C38.5999 30.4842 38.6314 30.4547 38.6638 30.4243C39.3455 29.7651 39.8176 28.9321 40.2405 28.0919C40.2567 28.0597 40.2729 28.0276 40.2896 27.9944C40.3045 27.9645 40.3193 27.9346 40.3346 27.9038C40.3545 27.8638 40.3545 27.8638 40.3749 27.8229C40.4081 27.7572 40.4081 27.7572 40.4033 27.6829C40.4308 27.6897 40.4583 27.6966 40.4867 27.7036C40.7892 27.7765 41.0926 27.8313 41.3999 27.878C41.4772 27.8898 41.5543 27.9018 41.6315 27.9138C42.0023 27.9711 42.364 28.0193 42.7394 28.0212C42.7724 28.0215 42.8054 28.0218 42.8394 28.022C42.9456 28.0227 43.0517 28.0229 43.1579 28.023C43.1942 28.023 43.2304 28.023 43.2678 28.023C43.8136 28.0224 44.3425 28.0044 44.8804 27.9035C44.9164 27.897 44.9525 27.8905 44.9896 27.8838C47.1713 27.4833 49.085 26.4476 50.6533 24.8865C50.687 24.8531 50.7208 24.8196 50.7555 24.7852C50.9778 24.5614 51.1808 24.3279 51.3758 24.08C51.3953 24.0554 51.4149 24.0308 51.4351 24.0055C52.8348 22.2318 53.5687 20.0418 53.651 17.7934C53.6533 17.7334 53.6533 17.7334 53.6557 17.6722C53.6855 16.0757 53.3205 14.4473 52.6235 13.014C52.6072 12.9804 52.5908 12.9467 52.574 12.9121C51.9211 11.5805 50.9771 10.3214 49.7978 9.41116C49.7579 9.37903 49.7181 9.3468 49.6784 9.31451C47.568 7.6085 44.8335 6.84142 42.1428 7.0866C40.6709 7.24599 39.3509 7.72682 38.018 8.345C38.0082 8.31907 37.9984 8.29313 37.9883 8.26641C37.9056 8.06725 37.7965 7.88095 37.6923 7.69244C37.68 7.67027 37.6678 7.6481 37.6552 7.62526C37.445 7.24657 37.2179 6.88703 36.9538 6.54356C36.9265 6.50783 36.8993 6.4721 36.8712 6.43528C36.7114 6.2334 36.5388 6.04339 36.3643 5.85424C36.3435 5.83165 36.3228 5.80906 36.3014 5.78579C35.0956 4.49637 33.2282 3.62063 31.4584 3.56104C31.2932 3.55755 31.1281 3.55661 30.9629 3.55648C30.9335 3.55646 30.904 3.55643 30.8737 3.55641C30.4092 3.55703 29.9599 3.57835 29.5042 3.67597C29.4742 3.68228 29.4442 3.68858 29.4133 3.69508C28.0449 3.99151 26.7893 4.62834 25.7804 5.60701C25.7416 5.64455 25.7026 5.68182 25.6634 5.71888C25.3387 6.02587 25.0634 6.35282 24.799 6.71259C24.6758 6.87898 24.5496 7.04307 24.4239 7.20761C24.3532 7.30055 24.2825 7.39353 24.2119 7.48667C24.1683 7.54416 24.1244 7.60145 24.0802 7.65853C24.06 7.68484 24.0398 7.71115 24.019 7.73825C24.001 7.7614 23.9831 7.78455 23.9646 7.8084C23.9195 7.86562 23.9195 7.86562 23.9262 7.9406C23.902 7.9406 23.8778 7.9406 23.8528 7.9406C23.843 7.91378 23.8332 7.88696 23.8231 7.85933C23.7801 7.75822 23.7309 7.67672 23.6686 7.58646C23.6465 7.55413 23.6243 7.52181 23.6015 7.48851C23.5658 7.43704 23.5658 7.43704 23.5294 7.38454C23.4794 7.31173 23.4293 7.23892 23.3792 7.16611C23.354 7.12957 23.3288 7.09302 23.3028 7.05537C23.2345 6.95599 23.1668 6.85625 23.0994 6.75625C22.7839 6.28855 22.4599 5.84184 22.0736 5.42973C21.9981 5.34851 21.9262 5.26601 21.8551 5.181C21.1929 4.42028 20.2978 3.84433 19.4125 3.38185C19.3864 3.36799 19.3603 3.35412 19.3334 3.33983C16.2185 1.70179 12.3212 2.21261 8.69688 5.03624Z" fill="white"/>
<path d="M32.9913 14.1541C32.9769 14.3953 32.9116 14.8221 32.7344 14.9996C32.68 14.9962 32.6257 14.9904 32.5716 14.9835C32.1242 14.9319 32.1242 14.9319 31.7069 15.0732C31.3332 15.3773 31.3006 15.9171 31.2299 16.3599C31.5811 16.3599 31.9322 16.3599 32.2941 16.3599C32.2941 16.5855 32.2862 16.7342 32.2436 16.9458C32.239 16.9705 32.2343 16.9952 32.2296 17.0206C32.217 17.0828 32.2008 17.1443 32.184 17.2055C32.0787 17.2582 31.9882 17.2463 31.8706 17.2458C31.799 17.2456 31.799 17.2456 31.7258 17.2455C31.6752 17.2452 31.6245 17.2448 31.5739 17.2445C31.523 17.2443 31.472 17.2442 31.4211 17.244C31.2962 17.2436 31.1713 17.243 31.0464 17.2422C31.0453 17.2624 31.0441 17.2825 31.043 17.3033C31.0156 17.6815 30.9433 18.053 30.8774 18.4259C30.864 18.5022 30.8505 18.5786 30.8371 18.6549C30.809 18.8148 30.7808 18.9747 30.7525 19.1346C30.7238 19.2967 30.6953 19.4588 30.667 19.621C30.1835 22.3915 30.1835 22.3915 29.7253 22.9039C29.6931 22.9418 29.6931 22.9418 29.6603 22.9804C29.3775 23.2915 29.0017 23.4348 28.5871 23.4598C28.2205 23.4759 27.8597 23.4767 27.5234 23.3083C27.5446 23.1205 27.5865 22.9585 27.6519 22.7798C27.6682 22.7348 27.6844 22.6898 27.7012 22.6434C27.7436 22.5363 27.7436 22.5363 27.7803 22.4995C27.8348 22.5029 27.889 22.5087 27.9432 22.5156C28.3914 22.5694 28.3914 22.5694 28.8078 22.426C29.1286 22.1365 29.2092 21.6563 29.2886 21.2507C29.2962 21.2122 29.3038 21.1738 29.3117 21.1342C29.448 20.4353 29.571 19.7338 29.6968 19.033C29.7331 18.8306 29.7696 18.6282 29.806 18.4258C29.8771 18.0313 29.948 17.6368 30.0189 17.2422C29.9981 17.2424 29.9774 17.2426 29.956 17.2428C29.8623 17.2436 29.7685 17.2441 29.6748 17.2445C29.6259 17.245 29.6259 17.245 29.5759 17.2455C29.5447 17.2456 29.5135 17.2457 29.4813 17.2458C29.4381 17.2461 29.4381 17.2461 29.3939 17.2464C29.3216 17.2422 29.3216 17.2422 29.2482 17.2055C29.2649 16.9119 29.3183 16.6438 29.395 16.3599C29.6493 16.3599 29.9036 16.3599 30.1656 16.3599C30.1793 16.2405 30.1793 16.2405 30.1932 16.1186C30.2694 15.5286 30.4311 14.8554 30.8996 14.4482C31.5164 13.9843 32.2662 13.9384 32.9913 14.1541Z" fill="white"/>
<path d="M16.237 16.8046C16.698 17.2879 16.67 17.9733 16.6682 18.5993C16.6682 18.6611 16.6683 18.7228 16.6684 18.7845C16.6685 18.9127 16.6684 19.0408 16.668 19.169C16.6676 19.3334 16.6678 19.4978 16.6683 19.6622C16.6685 19.7892 16.6685 19.9161 16.6683 20.043C16.6682 20.1037 16.6683 20.1643 16.6685 20.225C16.6686 20.3093 16.6684 20.3936 16.6679 20.4779C16.6679 20.5258 16.6678 20.5737 16.6678 20.6231C16.6584 20.7345 16.6584 20.7345 16.5851 20.808C16.5024 20.8321 16.5024 20.8321 16.3991 20.8529C16.3612 20.8605 16.3232 20.8682 16.2841 20.8762C16.2434 20.884 16.2027 20.8919 16.1607 20.9C16.0982 20.9121 16.0982 20.9121 16.0343 20.9245C15.0745 21.1072 13.9253 21.2579 13.0621 20.6978C12.8012 20.508 12.6749 20.2326 12.5919 19.9257C12.5897 19.8893 12.5874 19.8529 12.5851 19.8154C12.5832 19.7861 12.5814 19.7568 12.5795 19.7265C12.5639 19.2848 12.6829 18.9346 12.9781 18.6058C13.4353 18.1642 14.076 18.068 14.6846 18.0772C14.7622 18.0783 14.8398 18.0787 14.9174 18.0789C15.1577 18.0803 15.3934 18.0861 15.6309 18.1243C15.6163 18.036 15.6009 17.9481 15.5851 17.86C15.579 17.8229 15.579 17.8229 15.5729 17.785C15.5416 17.6159 15.4967 17.5097 15.374 17.389C15.2898 17.3379 15.2898 17.3379 15.1974 17.3063C15.1677 17.2947 15.1379 17.2831 15.1073 17.2712C14.574 17.1153 13.8678 17.2212 13.3652 17.449C13.2456 17.4993 13.2456 17.4993 13.0988 17.4993C13.0617 17.4114 13.0251 17.3233 12.9887 17.235C12.9782 17.2103 12.9677 17.1855 12.9569 17.16C12.8513 16.9018 12.8513 16.9018 12.8786 16.764C12.9917 16.6409 13.1518 16.6056 13.3075 16.5595C13.3338 16.5515 13.3601 16.5436 13.3872 16.5353C14.2794 16.2686 15.4758 16.1663 16.237 16.8046ZM13.725 19.195C13.6162 19.3874 13.6297 19.6011 13.6493 19.8154C13.738 20.0191 13.8905 20.1314 14.0896 20.2198C14.4464 20.3216 14.8012 20.3022 15.1653 20.2589C15.2085 20.2541 15.2085 20.2541 15.2526 20.2492C15.3831 20.2342 15.5028 20.2152 15.6309 20.1831C15.6309 19.7584 15.6309 19.3338 15.6309 18.8963C15.5227 18.8842 15.4145 18.8721 15.3029 18.8596C15.2696 18.8557 15.2362 18.8519 15.2017 18.8479C14.6928 18.7926 14.0964 18.7869 13.725 19.195Z" fill="white"/>
<path d="M47.9624 16.5071C48.0038 16.5211 48.0038 16.5211 48.046 16.5354C48.4512 16.7038 48.7826 17.1082 48.9533 17.4997C49.112 17.9756 49.1647 18.4861 49.0267 18.9703C47.9852 18.9703 46.9437 18.9703 45.8707 18.9703C45.9856 19.5779 45.9856 19.5779 46.38 19.9917C46.9089 20.2952 47.6553 20.2518 48.2278 20.1026C48.2613 20.0929 48.2949 20.0832 48.3294 20.0732C48.389 20.0584 48.4486 20.0439 48.5083 20.0295C48.5651 20.0147 48.5651 20.0147 48.623 19.9996C48.728 20.1238 48.7805 20.2519 48.8363 20.404C48.8532 20.4488 48.8701 20.4935 48.8875 20.5396C48.9166 20.6614 48.9166 20.6614 48.9012 20.745C48.8126 20.8419 48.7042 20.8697 48.5817 20.905C48.5554 20.9127 48.5291 20.9205 48.502 20.9285C47.6049 21.1816 46.5562 21.1617 45.7276 20.7142C45.2448 20.428 44.9628 19.9909 44.8088 19.4551C44.6652 18.7213 44.7251 17.8809 45.1368 17.2423C45.4893 16.7756 45.9737 16.4624 46.5545 16.3718C47.0448 16.3251 47.4961 16.3404 47.9624 16.5071ZM46.1643 17.4997C45.9775 17.7284 45.9456 17.9347 45.8707 18.235C46.5973 18.235 47.3239 18.235 48.0725 18.235C47.9946 17.8054 47.9185 17.5398 47.5634 17.2848C47.0947 17.0294 46.5332 17.1301 46.1643 17.4997Z" fill="white"/>
<path d="M23.2532 16.6942C23.7115 17.0605 23.9379 17.5004 24.0255 18.0758C24.0583 18.3896 24.0649 18.6697 23.9649 18.9702C22.9234 18.9702 21.882 18.9702 20.8089 18.9702C20.9334 19.5721 20.9334 19.5721 21.3135 19.995C21.6287 20.163 21.9326 20.2018 22.286 20.1972C22.3263 20.197 22.3667 20.1967 22.4082 20.1964C22.7082 20.1913 22.9787 20.1569 23.2677 20.0732C23.3272 20.0584 23.3869 20.0439 23.4466 20.0295C23.5033 20.0147 23.5033 20.0147 23.5612 19.9996C23.6608 20.1193 23.7159 20.2409 23.7722 20.3857C23.7887 20.427 23.8052 20.4683 23.8221 20.5109C23.8684 20.672 23.8684 20.672 23.8181 20.7717C23.2771 21.1711 22.2178 21.1291 21.5823 21.0356C21.039 20.9421 20.5007 20.7146 20.1428 20.2802C19.6811 19.6212 19.6181 18.8342 19.7447 18.0557C19.8791 17.4862 20.1801 17.0004 20.6713 16.6771C21.4165 16.2439 22.5279 16.1811 23.2532 16.6942ZM21.3227 17.3159C21.2648 17.3523 21.2648 17.3523 21.2057 17.3894C20.9634 17.6084 20.8843 17.925 20.8456 18.235C21.5601 18.235 22.2746 18.235 23.0108 18.235C22.8998 17.7089 22.8998 17.7089 22.5933 17.3411C22.2144 17.0971 21.7091 17.07 21.3227 17.3159Z" fill="white"/>
<path d="M36.1058 16.8035C36.5861 17.2096 36.8185 17.7846 36.8757 18.4007C36.9254 19.1542 36.792 19.8519 36.2946 20.4405C35.9129 20.8557 35.3457 21.0441 34.7946 21.073C34.1099 21.0862 33.4665 20.95 32.9529 20.4727C32.4431 19.9153 32.3325 19.211 32.3541 18.4843C32.386 17.8701 32.601 17.2804 33.0574 16.8552C33.9044 16.166 35.2349 16.1709 36.1058 16.8035ZM33.7762 17.5201C33.4917 17.8568 33.4618 18.2769 33.4597 18.6988C33.459 18.7367 33.4582 18.7746 33.4574 18.8136C33.4553 19.2378 33.5638 19.5938 33.7877 19.9511C34.023 20.1868 34.2905 20.2612 34.6157 20.2659C34.9411 20.2619 35.1792 20.1978 35.4192 19.9704C35.8089 19.5051 35.8167 18.9208 35.7808 18.345C35.7372 17.9842 35.6188 17.6406 35.3428 17.3914C34.8398 17.0521 34.2018 17.0784 33.7762 17.5201Z" fill="white"/>
<path d="M11.6697 16.7643C11.6957 16.9492 11.6358 17.0914 11.5596 17.256C11.5491 17.2796 11.5386 17.3032 11.5278 17.3274C11.502 17.385 11.4758 17.4423 11.4495 17.4996C11.2632 17.4783 11.102 17.4366 10.9243 17.3732C10.4964 17.2269 9.90978 17.0671 9.47244 17.2675C9.35605 17.3538 9.29526 17.3997 9.24767 17.5364C9.25014 17.6773 9.25633 17.7606 9.34852 17.8694C9.60578 18.0916 9.97699 18.1766 10.2958 18.2739C11.4124 18.6178 11.4124 18.6178 11.7064 19.0805C11.8718 19.4006 11.8589 19.7766 11.7637 20.1167C11.6355 20.4579 11.3836 20.7014 11.0683 20.8753C10.2855 21.2293 9.32882 21.0956 8.55254 20.802C8.38533 20.7347 8.21831 20.6592 8.07336 20.551C8.03127 20.4245 8.04139 20.4039 8.08927 20.2852C8.10683 20.2409 8.10683 20.2409 8.12475 20.1958C8.13731 20.1652 8.14987 20.1345 8.16281 20.103C8.17522 20.0719 8.18764 20.0408 8.20044 20.0088C8.23117 19.9321 8.26221 19.8555 8.29354 19.779C8.47053 19.7589 8.58247 19.8295 8.72932 19.9168C9.21241 20.1877 9.84151 20.3648 10.3902 20.2102C10.5278 20.1563 10.6377 20.0888 10.7293 19.972C10.7648 19.8439 10.7757 19.7255 10.7523 19.5952C10.5195 19.2238 9.81411 19.1398 9.42119 19.0279C8.93159 18.8817 8.52256 18.6791 8.26143 18.2257C8.15699 17.8769 8.14742 17.518 8.30057 17.1835C8.5298 16.7686 8.8827 16.5428 9.32794 16.4036C10.063 16.2371 11.0324 16.3387 11.6697 16.7643Z" fill="white"/>
<path d="M26.7214 16.3489C26.7771 16.3493 26.7771 16.3493 26.834 16.3496C27.3641 16.3581 27.9552 16.4645 28.4049 16.7648C28.3893 17.0354 28.2954 17.2546 28.1847 17.5001C27.9984 17.4788 27.8372 17.4371 27.6594 17.3737C27.2316 17.2274 26.6449 17.0676 26.2076 17.268C26.0912 17.3543 26.0304 17.4002 25.9828 17.5369C25.9853 17.6778 25.9915 17.7612 26.0837 17.8699C26.3409 18.0921 26.7122 18.1771 27.031 18.2745C28.1476 18.6183 28.1476 18.6183 28.4416 19.081C28.607 19.4011 28.594 19.7771 28.4989 20.1173C28.3837 20.4257 28.1518 20.6827 27.8654 20.8448C27.0435 21.2111 26.1089 21.1131 25.2877 20.8025C25.1205 20.7352 24.9535 20.6598 24.8085 20.5515C24.7569 20.3963 24.8181 20.2904 24.875 20.1448C24.8851 20.1179 24.8951 20.0909 24.9055 20.0632C24.982 19.863 24.982 19.863 25.0654 19.7795C25.2409 19.7905 25.3903 19.8814 25.5448 19.9587C26.022 20.1891 26.5963 20.3597 27.1253 20.2107C27.263 20.1568 27.3728 20.0894 27.4645 19.9725C27.5 19.8444 27.5108 19.726 27.4874 19.5957C27.3108 19.3139 26.8988 19.2491 26.599 19.1588C26.5577 19.1464 26.5165 19.1339 26.474 19.1211C26.3916 19.0965 26.3092 19.0723 26.2266 19.0485C25.7627 18.9112 25.2812 18.726 25.031 18.2859C24.9028 18.001 24.8771 17.6617 24.961 17.3597C25.0952 17.0124 25.3187 16.7352 25.65 16.5613C26.0057 16.4058 26.3346 16.3467 26.7214 16.3489Z" fill="white"/>
<path d="M44.4406 16.5437C44.4827 16.6702 44.4726 16.6909 44.4247 16.8096C44.413 16.8391 44.4013 16.8686 44.3892 16.899C44.3767 16.9296 44.3641 16.9602 44.3512 16.9918C44.3388 17.0229 44.3263 17.0539 44.3135 17.0859C44.2828 17.1627 44.2518 17.2393 44.2204 17.3158C44.1944 17.3133 44.1684 17.3108 44.1415 17.3083C44.1116 17.3055 44.0816 17.3026 44.0507 17.2997C43.9514 17.2903 43.8548 17.2793 43.7569 17.2601C43.578 17.2343 43.4009 17.2325 43.2204 17.2308C43.1662 17.2292 43.1662 17.2292 43.1108 17.2275C42.8262 17.2251 42.5742 17.2739 42.3431 17.4494C42.2755 17.4996 42.2755 17.4996 42.2021 17.4996C42.1918 17.5212 42.1816 17.5427 42.171 17.5649C42.1317 17.6409 42.0878 17.7075 42.0393 17.7776C41.8525 18.082 41.825 18.3828 41.8214 18.7335C41.8208 18.7656 41.8203 18.7978 41.8198 18.8309C41.8225 19.2042 41.9225 19.529 42.1654 19.8157C42.4707 20.1058 42.8253 20.1906 43.2342 20.1903C43.2812 20.1903 43.2812 20.1903 43.3292 20.1903C43.518 20.1885 43.6956 20.1777 43.8791 20.1295C44.004 20.1004 44.1298 20.0879 44.2571 20.0731C44.3012 20.174 44.3447 20.2751 44.3879 20.3764C44.4004 20.405 44.413 20.4335 44.4259 20.463C44.4435 20.5046 44.4435 20.5046 44.4614 20.547C44.4724 20.5724 44.4833 20.5978 44.4946 20.624C44.5179 20.7128 44.5119 20.7605 44.4773 20.8451C43.7874 21.1825 42.7971 21.1518 42.0794 20.9149C41.567 20.714 41.1616 20.3897 40.9177 19.8893C40.6188 19.1801 40.6132 18.3528 40.8879 17.6352C41.1268 17.1111 41.5128 16.7381 42.0428 16.515C42.7553 16.2545 43.733 16.2482 44.4406 16.5437Z" fill="white"/>
<path d="M18.0925 13.9999C18.1336 13.9994 18.1746 13.999 18.2169 13.9985C18.2757 13.9984 18.2757 13.9984 18.3356 13.9983C18.3717 13.9981 18.4077 13.998 18.4449 13.9978C18.5329 14.0068 18.5329 14.0068 18.6063 14.0803C18.6134 14.1724 18.616 14.2605 18.6153 14.3527C18.6154 14.3811 18.6155 14.4095 18.6156 14.4388C18.6158 14.5345 18.6155 14.6302 18.6152 14.7259C18.6152 14.7943 18.6153 14.8627 18.6154 14.9311C18.6156 15.1173 18.6153 15.3034 18.6149 15.4896C18.6146 15.684 18.6147 15.8785 18.6147 16.0729C18.6146 16.3994 18.6143 16.726 18.6138 17.0525C18.6132 17.4306 18.613 17.8086 18.6131 18.1867C18.6131 18.5497 18.6129 18.9128 18.6126 19.2758C18.6125 19.4306 18.6124 19.5854 18.6124 19.7402C18.6123 19.9223 18.6121 20.1044 18.6118 20.2866C18.6116 20.3536 18.6116 20.4206 18.6116 20.4877C18.6116 20.5788 18.6114 20.6699 18.6112 20.761C18.6112 20.7879 18.6113 20.8147 18.6113 20.8424C18.6105 21.0245 18.6105 21.0245 18.5696 21.0655C18.4993 21.0691 18.4289 21.0703 18.3586 21.0703C18.3158 21.0704 18.273 21.0704 18.229 21.0705C18.1839 21.0703 18.1389 21.0702 18.0925 21.0701C18.0475 21.0702 18.0024 21.0703 17.956 21.0705C17.9133 21.0704 17.8705 21.0704 17.8264 21.0703C17.7869 21.0703 17.7474 21.0703 17.7066 21.0702C17.6154 21.0655 17.6154 21.0655 17.5787 21.0287C17.5752 20.9385 17.574 20.8493 17.5743 20.7591C17.5743 20.7305 17.5743 20.702 17.5742 20.6726C17.5742 20.5761 17.5744 20.4797 17.5746 20.3833C17.5746 20.3145 17.5746 20.2457 17.5746 20.1768C17.5745 19.9894 17.5748 19.8019 17.575 19.6145C17.5752 19.4188 17.5753 19.2231 17.5753 19.0274C17.5754 18.6566 17.5757 18.2858 17.5761 17.915C17.5765 17.4929 17.5767 17.0709 17.5769 16.6488C17.5773 15.7804 17.5779 14.912 17.5787 14.0435C17.7299 13.9678 17.9264 14 18.0925 13.9999Z" fill="white"/>
<path d="M40.551 16.4332C40.6136 16.6177 40.5533 16.746 40.4845 16.918C40.4745 16.9446 40.4644 16.9712 40.454 16.9986C40.3782 17.1945 40.3782 17.1945 40.2941 17.2787C40.2101 17.2812 40.1259 17.2798 40.0418 17.2764C39.7032 17.2709 39.3969 17.2972 39.1221 17.5154C38.8215 17.8111 38.7499 18.2095 38.7459 18.6157C38.7454 18.6549 38.7454 18.6549 38.745 18.6949C38.7443 18.7513 38.7438 18.8077 38.7433 18.8641C38.7425 18.9532 38.7415 19.0424 38.7405 19.1315C38.7379 19.3526 38.7357 19.5738 38.7336 19.7949C38.7317 19.9823 38.7297 20.1696 38.7275 20.357C38.7265 20.445 38.7257 20.533 38.725 20.621C38.7244 20.6745 38.7237 20.7281 38.7231 20.7816C38.7227 20.8286 38.7222 20.8755 38.7217 20.9238C38.7162 21.0287 38.7162 21.0287 38.6795 21.0654C38.6092 21.0691 38.5388 21.0702 38.4685 21.0703C38.4257 21.0704 38.3829 21.0704 38.3389 21.0704C38.2938 21.0703 38.2488 21.0702 38.2024 21.07C38.1574 21.0702 38.1123 21.0703 38.0659 21.0704C38.0232 21.0704 37.9804 21.0704 37.9363 21.0703C37.8968 21.0703 37.8573 21.0702 37.8165 21.0702C37.7253 21.0654 37.7253 21.0654 37.6886 21.0287C37.685 20.9692 37.684 20.9096 37.684 20.85C37.6839 20.8114 37.6838 20.7727 37.6837 20.7329C37.6837 20.6901 37.6838 20.6473 37.6839 20.6032C37.6838 20.5584 37.6838 20.5137 37.6837 20.4676C37.6836 20.3444 37.6836 20.2213 37.6837 20.0982C37.6838 19.9696 37.6837 19.841 37.6837 19.7124C37.6836 19.4964 37.6837 19.2805 37.6839 19.0645C37.6841 18.8145 37.684 18.5644 37.6838 18.3144C37.6836 18.1001 37.6836 17.8858 37.6837 17.6715C37.6837 17.5433 37.6838 17.4151 37.6836 17.287C37.6835 17.1442 37.6837 17.0014 37.6839 16.8586C37.6838 16.8158 37.6837 16.773 37.6837 16.729C37.6838 16.6903 37.6839 16.6516 37.684 16.6118C37.684 16.578 37.684 16.5442 37.684 16.5093C37.6886 16.4332 37.6886 16.4332 37.7253 16.3964C37.7929 16.3927 37.8606 16.3916 37.9283 16.3915C37.9694 16.3915 38.0105 16.3914 38.0529 16.3914C38.0962 16.3915 38.1395 16.3916 38.1841 16.3918C38.249 16.3916 38.249 16.3916 38.3152 16.3914C38.3769 16.3914 38.3769 16.3914 38.4398 16.3915C38.4778 16.3915 38.5158 16.3916 38.555 16.3916C38.6428 16.3964 38.6428 16.3964 38.6795 16.4332C38.688 16.4888 38.6946 16.5448 38.7001 16.6009C38.7047 16.6465 38.7047 16.6465 38.7094 16.6929C38.7116 16.7164 38.7139 16.7399 38.7162 16.764C38.7371 16.7472 38.7581 16.7303 38.7797 16.7129C39.2996 16.3187 39.9315 16.2624 40.551 16.4332Z" fill="white"/>
</g>
</g>
<defs>
<clipPath id="clip0_603_1175">
<rect width="56" height="40" fill="white"/>
</clipPath>
</defs>
</svg>
