<svg width="180" height="180" viewBox="0 0 180 180" fill="none" xmlns="http://www.w3.org/2000/svg">
<path d="M80 105.143V100.857H75.4978C75.2218 99.5156 74.6892 98.2402 73.9292 97.1008L77.1222 93.9078L74.0922 90.8778L70.8992 94.0708C69.7598 93.3108 68.4844 92.7782 67.1428 92.5022V88H62.8572V92.5022C61.5156 92.7782 60.2402 93.3108 59.1008 94.0708L55.9078 90.8778L52.8778 93.9078L56.0708 97.1008C55.3108 98.2402 54.7782 99.5156 54.5022 100.857H50V105.143H54.5022C54.7808 106.508 55.325 107.776 56.0708 108.899L52.8778 112.092L55.9078 115.122L59.1008 111.929C60.2402 112.689 61.5156 113.222 62.8572 113.498V118H67.1428V113.498C68.4844 113.222 69.7598 112.689 70.8992 111.929L74.0922 115.122L77.1222 112.092L73.9292 108.899C74.6892 107.76 75.2218 106.484 75.4978 105.143H80ZM65 109.429C61.4558 109.429 58.5714 106.544 58.5714 103C58.5714 99.4558 61.4558 96.5714 65 96.5714C68.5442 96.5714 71.4286 99.4558 71.4286 103C71.4286 106.544 68.5442 109.429 65 109.429Z" stroke="black" stroke-width="3"/>
<path d="M128 86V80H121.697C121.311 78.122 120.565 76.3362 119.501 74.741L123.971 70.271L119.729 66.029L115.259 70.499C113.664 69.435 111.878 68.6894 110 68.303V62H104V68.303C102.122 68.6894 100.336 69.435 98.741 70.499L94.271 66.029L90.029 70.271L94.499 74.741C93.435 76.3362 92.6894 78.122 92.303 80H86V86H92.303C92.693 87.911 93.455 89.687 94.499 91.259L90.029 95.729L94.271 99.971L98.741 95.501C100.336 96.565 102.122 97.3106 104 97.697V104H110V97.697C111.878 97.3106 113.664 96.565 115.259 95.501L119.729 99.971L123.971 95.729L119.501 91.259C120.565 89.6638 121.311 87.878 121.697 86H128ZM107 92C102.038 92 98 87.962 98 83C98 78.038 102.038 74 107 74C111.962 74 116 78.038 116 83C116 87.962 111.962 92 107 92Z" stroke="black" stroke-width="3"/>
<path d="M80.621 49.6724L81.5374 50.41L82.6274 49.9676C86.749 48.2942 90.6954 46.9 95 46.9C102.097 46.9 108.557 49.3888 114.002 53.2322L114.787 53.7868L115.711 53.5194C118.89 52.5992 121.843 51.8 125 51.8C143.209 51.8 158 66.353 158 84.1C158 101.847 143.209 116.4 125 116.4C123.473 116.4 122.068 116.145 120.463 115.854C120.084 115.786 119.695 115.715 119.29 115.645L118.101 115.44L117.365 116.396C113.177 121.84 107.213 125.686 100 125.686C99.87 125.686 99.8272 125.682 99.7986 125.68C99.7652 125.677 99.7486 125.675 99.6778 125.669C99.6572 125.667 99.635 125.665 99.611 125.663C99.564 125.659 99.5102 125.655 99.4476 125.651L98.5602 125.592L97.922 126.211C91.8974 132.059 83.9964 136 75 136C66.2406 136 58.4858 132.26 52.5014 126.661L51.9368 126.133L51.1636 126.122C35.038 125.892 22 113.01 22 97.2712C22 91.3424 24.153 85.99 27.3832 81.3348L27.8638 80.6422L27.7036 79.8146C27.329 77.8806 27 76.1472 27 74.3C27 56.553 41.7912 42 60 42C67.859 42 74.889 45.059 80.621 49.6724Z" stroke="black" stroke-width="6"/>
</svg>
