<svg width="180" height="180" viewBox="0 0 180 180" fill="none" xmlns="http://www.w3.org/2000/svg">
<path d="M125.778 22H56C54.8954 22 54 22.8954 54 24V156C54 157.105 54.8954 158 56 158H125.778C126.882 158 127.778 157.105 127.778 156V24C127.778 22.8954 126.882 22 125.778 22Z" stroke="black" stroke-width="6"/>
<path d="M125.778 134.778H56C54.8954 134.778 54 135.673 54 136.778V156C54 157.105 54.8954 158 56 158H125.778C126.882 158 127.778 157.105 127.778 156V136.778C127.778 135.673 126.882 134.778 125.778 134.778Z" stroke="black" stroke-width="6"/>
<path d="M125.778 22H56C54.8954 22 54 22.8954 54 24V39.3333C54 40.4379 54.8954 41.3333 56 41.3333H125.778C126.882 41.3333 127.778 40.4379 127.778 39.3333V24C127.778 22.8954 126.882 22 125.778 22Z" stroke="black" stroke-width="6"/>
<path d="M79.2227 31.667H102.556" stroke="black" stroke-width="6" stroke-linecap="round"/>
<path d="M85.8908 72.2566L86.349 72.6254L86.894 72.4042C88.6592 71.6876 90.328 71.1 92.1428 71.1C95.1498 71.1 97.8902 72.1544 100.204 73.7876L100.597 74.065L101.059 73.9312C102.422 73.5366 103.67 73.2 105 73.2C112.728 73.2 119 79.3758 119 86.9C119 94.4242 112.728 100.6 105 100.6C104.359 100.6 103.772 100.494 103.086 100.369C102.923 100.34 102.754 100.309 102.577 100.279L101.982 100.176L101.615 100.654C99.8392 102.962 97.3216 104.58 94.2858 104.58C94.2352 104.58 94.2198 104.578 94.2118 104.578L94.1606 104.573C94.1334 104.57 94.1004 104.568 94.0584 104.565L93.6148 104.535L93.2956 104.845C90.735 107.331 87.3832 109 83.5714 109C79.86 109 76.57 107.416 74.0268 105.036L73.7444 104.772L73.3578 104.766C66.5214 104.669 61 99.2084 61 92.5448C61 90.04 61.9094 87.774 63.2816 85.7964L63.5218 85.45L63.4418 85.0362C63.281 84.2058 63.1428 83.4758 63.1428 82.7C63.1428 75.1758 69.4152 69 77.1428 69C80.4724 69 83.4546 70.2958 85.8908 72.2566Z" stroke="black" stroke-width="4"/>
</svg>
