<svg width="290" height="290" viewBox="0 0 290 290" fill="none" xmlns="http://www.w3.org/2000/svg">
<path d="M120.124 195.802L144.999 209.444L169.875 195.802C176.966 191.921 182.897 186.128 187.029 179.043C191.162 171.958 193.341 163.849 193.333 155.587V101.73C193.33 99.5335 192.481 97.4271 190.971 95.8737C189.461 94.3203 187.413 93.4467 185.277 93.4445H104.722C102.586 93.4467 100.538 94.3203 99.0279 95.8737C97.5177 97.4271 96.6683 99.5335 96.666 101.73V155.587C96.6577 163.849 98.8365 171.958 102.969 179.043C107.102 186.128 113.032 191.921 120.124 195.802Z" fill="black"/>
<path d="M123.441 190.874L145 203L166.559 190.874C172.705 187.424 177.845 182.274 181.426 175.977C185.008 169.679 186.897 162.471 186.889 155.127V107.254C186.887 105.301 186.151 103.429 184.842 102.048C183.533 100.667 181.759 99.8908 179.908 99.8889H110.093C108.242 99.8908 106.467 100.667 105.158 102.048C103.849 103.429 103.113 105.301 103.111 107.254V155.127C103.104 162.471 104.992 169.679 108.574 175.977C112.156 182.274 117.295 187.424 123.441 190.874Z" fill="white"/>
<path d="M241.078 85.8761L148.873 33.2469C147.698 32.5757 146.361 32.2222 145 32.2222C143.639 32.2222 142.303 32.5757 141.128 33.2469L48.9226 85.8761C47.7623 86.5386 46.8001 87.4869 46.1315 88.6266C45.4626 89.7663 45.111 91.0578 45.1113 92.3721V197.63C45.111 198.945 45.4626 200.236 46.1315 201.376C46.8001 202.515 47.7623 203.464 48.9226 204.126L141.128 256.755C142.303 257.426 143.639 257.779 145 257.778C146.361 257.779 147.698 257.426 148.873 256.755L241.078 204.126C242.238 203.464 243.2 202.515 243.869 201.376C244.538 200.236 244.889 198.945 244.889 197.63V137.483" stroke="black" stroke-width="6"/>
<path d="M137.482 153.711L127.746 143.956L122.445 149.267L137.482 164.333L167.556 134.2L162.256 128.889L137.482 153.711Z" fill="black"/>
</svg>
