<?xml version="1.0" encoding="UTF-8"?>
<svg version="1.1" xmlns="http://www.w3.org/2000/svg" width="512" height="512">
<path d="M0 0 C1.92137819 -0.00604435 3.84275157 -0.01382399 5.76411647 -0.02318513 C11.03383158 -0.04374599 16.30327456 -0.0393814 21.57301199 -0.03082395 C27.26028288 -0.0258896 32.94748823 -0.04391761 38.63473511 -0.05889893 C49.77292218 -0.08439778 60.91101283 -0.08797969 72.04922418 -0.0832984 C81.10307533 -0.07973221 90.15689721 -0.08323099 99.21074486 -0.09174728 C101.14369624 -0.09353285 101.14369624 -0.09353285 103.11569714 -0.09535449 C105.73357657 -0.097778 108.35145598 -0.10020627 110.9693354 -0.10263924 C128.5466599 -0.11821347 146.12396882 -0.12605211 163.70129871 -0.11800575 C164.73197289 -0.11753662 164.73197289 -0.11753662 165.78346876 -0.11705802 C169.26588777 -0.1154465 172.74830673 -0.11375496 176.23072568 -0.11203142 C176.92232014 -0.11168924 177.6139146 -0.11134706 178.32646646 -0.11099452 C179.72503796 -0.11030121 181.12360946 -0.10960415 182.52218095 -0.10890335 C204.28142755 -0.09819019 226.04051203 -0.11404775 247.79972839 -0.15097046 C272.25814841 -0.19242498 296.71645112 -0.21379092 321.17491072 -0.20581949 C334.12077302 -0.2019945 347.06648764 -0.20697976 360.01232338 -0.23524857 C371.0336346 -0.25907146 382.05470722 -0.26189147 393.07602171 -0.23766823 C398.69784074 -0.22588716 404.31922332 -0.22370081 409.94101334 -0.24767303 C415.0912887 -0.26937917 420.24076292 -0.26319934 425.39100071 -0.23514967 C427.25028647 -0.22985243 429.1096349 -0.23459961 430.96885917 -0.25062139 C442.61914116 -0.34401834 452.38499039 0.30691748 461.52966529 8.51651609 C463.43012853 10.45947094 464.87051503 12.20533062 466.30729675 14.52139282 C466.63849376 15.03242288 466.96969077 15.54345294 467.31092405 16.06996876 C471.73245476 24.15700529 470.86187821 33.2532889 470.81523132 42.18959045 C470.81984266 44.10826801 470.82619714 46.02694202 470.8341403 47.94560868 C470.8508248 53.20779668 470.84259112 58.46969418 470.83019543 63.73188317 C470.82114367 69.41092585 470.83511535 75.08991865 470.84611511 80.76895142 C470.86390386 91.89043556 470.86005862 103.01181174 470.84846455 114.13330012 C470.83943147 123.17238775 470.83820569 132.21144512 470.84255981 141.25053596 C470.84317275 142.5369723 470.84378568 143.82340864 470.84441718 145.1488279 C470.84569609 147.76220179 470.84699294 150.37557567 470.84830755 152.98894954 C470.85938932 176.79771058 470.84789611 200.60640623 470.82693716 224.41515686 C470.8079574 246.14078593 470.80965175 267.86632121 470.82878113 289.59194946 C470.85020944 314.01005553 470.85861362 338.42810137 470.84633207 362.84621674 C470.84505788 365.45028912 470.8438004 368.05436151 470.84255981 370.65843391 C470.84194271 371.93968318 470.84132561 373.22093244 470.84068981 374.54100744 C470.83723664 383.56837627 470.84306461 392.59571181 470.85247803 401.62307549 C470.863699 412.62574297 470.86065586 423.62829632 470.83935505 434.63095074 C470.82884576 440.24432965 470.82472091 445.85751828 470.83795166 451.47089577 C470.84988373 456.61105116 470.84329923 461.75084015 470.82204145 466.89096237 C470.81757887 468.74886338 470.81983392 470.60679544 470.8295446 472.46467643 C470.89028486 485.05284613 470.04816442 494.74787385 461.576828 504.63467407 C452.15230083 512.46952196 443.13143783 512.23416565 431.37335205 512.16304016 C429.42579754 512.16952066 427.47824926 512.17817623 425.53071302 512.18881446 C420.18867007 512.21161086 414.84706311 512.20324996 409.50500548 512.18967521 C403.74005552 512.18041999 397.97519208 512.19991137 392.21026611 512.21565247 C380.92032543 512.24174421 369.63054396 512.24065026 358.34058458 512.22961428 C349.16466774 512.22105681 339.98879697 512.22188591 330.81287956 512.22941017 C329.5070157 512.23046506 328.20115183 512.23151995 326.85571633 512.2326068 C324.20288343 512.23477772 321.55005055 512.2369645 318.89721768 512.23916695 C301.08572701 512.2534557 283.27425297 512.25773149 265.46276188 512.24292278 C264.41836631 512.24205463 264.41836631 512.24205463 263.35287183 512.24116894 C257.69894814 512.23640437 252.0450247 512.23134634 246.39110127 512.22627121 C224.33648833 512.20667846 202.28205848 512.21588304 180.22746277 512.24868774 C155.44018272 512.28547907 130.65301095 512.30247395 105.86570352 512.28927547 C103.22231227 512.28793437 100.578921 512.28662539 97.93552971 512.28534889 C96.63493167 512.28471823 95.33433364 512.28408756 93.99432354 512.28343778 C84.83017798 512.28040991 75.66611389 512.29167366 66.50198555 512.30859947 C55.33275483 512.3289178 44.16376824 512.32806466 32.9945503 512.29996707 C27.29602674 512.28618826 21.59792945 512.28202422 15.89942169 512.30391693 C10.68139592 512.32369892 5.4641721 512.31571601 0.24620181 512.28572259 C-1.6399622 512.27972126 -3.52619139 512.28380968 -5.41230308 512.29908582 C-16.80393396 512.38461482 -24.62041406 511.84928172 -33.46736759 503.9335224 C-42.73769596 494.3052379 -42.26991949 482.24944568 -42.21409607 469.74639893 C-42.22014179 467.82828247 -42.22792212 465.91017084 -42.2372812 463.99206769 C-42.25782417 458.73601318 -42.25348206 453.48023177 -42.24492002 448.22415495 C-42.23998246 442.54985336 -42.25801761 436.87561727 -42.272995 431.20133972 C-42.29848434 420.09069527 -42.30207699 408.98014749 -42.29739447 397.86947872 C-42.29382743 388.83805802 -42.29732889 379.80666667 -42.30584335 370.77524948 C-42.30703373 369.48952608 -42.30822411 368.20380268 -42.30945056 366.87911796 C-42.31187408 364.26711707 -42.31430235 361.65511618 -42.31673531 359.0431153 C-42.33230754 341.50754287 -42.34014953 323.9719883 -42.33210182 306.4364109 C-42.33178907 305.75104366 -42.33147632 305.06567642 -42.33115409 304.35954048 C-42.32954258 300.88602885 -42.32785104 297.41251726 -42.32612748 293.93900569 C-42.32578531 293.24918651 -42.32544313 292.55936733 -42.32509059 291.84864454 C-42.32439728 290.4536638 -42.32370022 289.05868306 -42.32299942 287.66370232 C-42.31228513 265.95799843 -42.32814795 244.25245703 -42.36506653 222.54678345 C-42.40652104 198.14585294 -42.42788711 173.74504758 -42.41991556 149.34407556 C-42.41609075 136.42952715 -42.42107418 123.51512679 -42.44934464 110.60060501 C-42.47316731 99.60676619 -42.47598769 88.61316656 -42.4517643 77.61932446 C-42.43998344 72.01167495 -42.43779636 66.40446299 -42.4617691 60.79684258 C-42.48347571 55.65955937 -42.47729488 50.52307932 -42.44924574 45.38583378 C-42.44394866 43.53128852 -42.44869518 41.67668042 -42.46471746 39.8221968 C-42.55825017 28.18508473 -41.89699454 18.43289806 -33.69757998 9.2988497 C-31.75460401 7.39855245 -30.00868083 5.95812205 -27.69270325 4.52139282 C-27.18195749 4.19035195 -26.67121174 3.85931108 -26.14498883 3.51823866 C-18.05303787 -0.90597212 -8.94260276 -0.03977213 0 0 Z M-22.63020325 21.20889282 C-25.81220277 26.31937691 -26.73437434 30.70069732 -26.70906067 36.66641235 C-26.70366272 37.93855591 -26.69826477 39.21069946 -26.69270325 40.52139282 C-16.88723977 40.61416611 -7.0818811 40.68519499 2.72393227 40.72864151 C7.27743177 40.74949615 11.8306305 40.77777476 16.38395691 40.82315063 C20.78006818 40.86668451 25.17589054 40.89054591 29.57220078 40.90090179 C31.24752219 40.90827967 32.9228282 40.92268711 34.59802628 40.94431305 C36.94888951 40.97344826 39.29856652 40.97734475 41.64958191 40.97549438 C42.33866638 40.98987549 43.02775085 41.00425659 43.73771667 41.01907349 C48.69851438 40.97696027 51.47753616 39.60332141 55.30729675 36.52139282 C58.01667327 32.96167086 58.82123388 29.85299038 59.43229675 25.45889282 C59.91757117 22.08325585 60.45066971 18.82104238 61.30729675 15.52139282 C52.0751373 15.45166424 42.84306949 15.39846606 33.61070347 15.36595631 C29.32303073 15.35034766 25.03553911 15.32919794 20.74797058 15.29507446 C16.60472793 15.26230866 12.46165872 15.24450376 8.31829643 15.23676109 C6.74316112 15.23124832 5.16803453 15.22048369 3.59297371 15.20420265 C-10.55408293 14.78665716 -10.55408293 14.78665716 -22.63020325 21.20889282 Z M76.96354675 20.25576782 C74.71207182 23.33561561 74.38495491 26.01661477 73.80729675 29.77139282 C72.15909581 39.11531213 69.8472233 44.65519728 62.69792175 50.97842407 C56.80084151 54.78454612 51.07095052 55.9677617 44.1471405 55.95376587 C43.37544022 55.96395752 42.60373993 55.97414917 41.80865479 55.98464966 C39.28729287 56.01456484 36.76631215 56.02401227 34.24479675 56.03311157 C32.4850185 56.04997425 30.72525218 56.06812662 28.96549988 56.08750916 C24.35589832 56.13484288 19.74634514 56.16475949 15.13658142 56.19094849 C10.42385813 56.22083826 5.71130125 56.26733953 0.998703 56.31240845 C-8.23169744 56.39825236 -17.46208112 56.46414424 -26.69270325 56.52139282 C-26.69270325 63.45139282 -26.69270325 70.38139282 -26.69270325 77.52139282 C132.36729675 77.52139282 291.42729675 77.52139282 455.30729675 77.52139282 C455.30729675 70.59139282 455.30729675 63.66139282 455.30729675 56.52139282 C450.16200378 56.44791626 450.16200378 56.44791626 444.9127655 56.37295532 C441.59655837 56.31897083 438.28042448 56.26165334 434.96427917 56.20401001 C432.65671731 56.16568867 430.34909507 56.13084141 428.04142761 56.09951782 C424.72748712 56.05393601 421.41396348 55.99592994 418.1002655 55.93545532 C417.06580795 55.92390411 416.0313504 55.91235291 414.96554565 55.90045166 C413.5243914 55.87064713 413.5243914 55.87064713 412.05412292 55.84024048 C411.20806992 55.82691681 410.36201691 55.81359314 409.49032593 55.79986572 C407.30729675 55.52139282 407.30729675 55.52139282 404.30729675 53.52139282 C403.47776404 50.07564155 402.97880629 47.56161262 404.05729675 44.14639282 C405.30729675 42.52139282 405.30729675 42.52139282 408.30729675 41.52139282 C409.856274 41.40714144 411.40941441 41.34521367 412.96232605 41.31607056 C414.37344917 41.28615273 414.37344917 41.28615273 415.81307983 41.25563049 C416.8256636 41.238918 417.83824738 41.22220551 418.8815155 41.20498657 C419.92048477 41.18420547 420.95945404 41.16342438 422.02990723 41.14201355 C425.35146928 41.07658627 428.67311091 41.01766462 431.99479675 40.95889282 C434.24545605 40.91570113 436.49610728 40.87208663 438.74674988 40.82803345 C444.26684785 40.72091184 449.78702513 40.61913266 455.30729675 40.52139282 C455.3126947 39.24924927 455.31809265 37.97710571 455.32365417 36.66641235 C455.32669052 35.9508316 455.32972687 35.23525085 455.33285522 34.49798584 C455.2666517 29.37806233 453.94141835 25.53983054 451.24479675 21.20889282 C444.82602154 15.33639635 437.00918472 15.08415877 428.65811157 15.16062927 C427.62136655 15.158066 426.58462154 15.15550272 425.51646 15.15286177 C422.0617309 15.14794217 418.6074442 15.16438703 415.15275574 15.18081665 C412.66870128 15.18166331 410.18464607 15.18118701 407.70059204 15.17948914 C402.36245533 15.1788072 397.02445487 15.18728568 391.68635368 15.20420265 C383.96850081 15.22864529 376.25070106 15.23640329 368.53281368 15.24016663 C356.00928756 15.24672288 343.48582026 15.26666155 330.96232605 15.29507446 C318.80119622 15.32263647 306.6400824 15.34385955 294.47892761 15.3565979 C293.35339005 15.35778016 293.35339005 15.35778016 292.20511436 15.3589863 C288.44056421 15.36290158 284.67601395 15.36669266 280.91146362 15.37042201 C249.7100319 15.40149217 218.50867328 15.45452932 187.30729675 15.52139282 C187.73149513 18.2636398 188.17105079 21.0018994 188.61979675 23.74014282 C188.79672058 24.89981567 188.79672058 24.89981567 188.97721863 26.08291626 C189.99168943 32.15673505 191.46508126 35.48621325 196.30729675 39.52139282 C199.8391116 40.69866444 202.63133797 40.65207569 206.36074829 40.65942383 C207.44454296 40.66365575 207.44454296 40.66365575 208.55023247 40.66797316 C210.97764685 40.67632362 213.40501566 40.67765778 215.83244324 40.67910767 C217.57021717 40.68377547 219.30798988 40.68891898 221.04576111 40.69450378 C224.79114098 40.70578784 228.53651288 40.71422046 232.28190422 40.72062302 C238.20194345 40.731294 244.12192535 40.75153555 250.04193115 40.77374268 C266.87718588 40.83570014 283.71243714 40.88971309 300.54777527 40.92276001 C309.8432793 40.94108685 319.13868727 40.96999649 328.43412071 41.01076472 C333.35490299 41.03186376 338.27556406 41.04729612 343.19639397 41.04957199 C347.82326934 41.05171447 352.44989216 41.06754269 357.07669067 41.09396172 C358.77624686 41.10117092 360.47583359 41.10324785 362.17540169 41.09985924 C364.49285585 41.09597619 366.80949875 41.11038023 369.12686157 41.12939453 C370.42453681 41.13270468 371.72221205 41.13601482 373.05921078 41.13942528 C376.48870037 41.54272548 377.90114774 42.09339817 380.30729675 44.52139282 C380.8033905 46.45889282 380.8033905 46.45889282 380.74479675 48.52139282 C380.74286316 49.54233032 380.74286316 49.54233032 380.7408905 50.58389282 C380.15535224 53.20035211 379.48305977 53.93193158 377.30729675 55.52139282 C374.13934231 55.90170956 374.13934231 55.90170956 370.1423645 55.90907288 C369.40773391 55.91445841 368.67310331 55.91984395 367.91621119 55.92539269 C365.44736435 55.93973318 362.97904913 55.93255359 360.51017761 55.92544556 C358.74272733 55.93114626 356.97528073 55.93810935 355.20783997 55.94624329 C350.39959548 55.96423106 345.59153295 55.96299481 340.78326488 55.9573009 C336.76775308 55.95421461 332.75227652 55.96029585 328.73676974 55.96633965 C319.25740077 55.98040409 309.77812187 55.97880998 300.29875183 55.96743774 C290.5302481 55.95597728 280.76201958 55.96999291 270.99355215 55.99683422 C262.60272699 56.01902418 254.21198799 56.0256205 245.82113558 56.01975781 C240.81181131 56.01639216 235.8026631 56.01877617 230.79336357 56.03600883 C226.07615364 56.05152645 221.3593489 56.04746911 216.64215469 56.02870369 C214.91607933 56.02502992 213.18997366 56.02809073 211.46392632 56.03858948 C201.16194671 56.09643708 191.89796399 55.99392661 183.49479675 49.27139282 C182.77292175 48.36389282 182.05104675 47.45639282 181.30729675 46.52139282 C180.66341003 45.74408813 180.66341003 45.74408813 180.0065155 44.95108032 C176.77445066 40.54631938 175.71059181 36.21601243 174.80729675 30.89639282 C173.42987587 23.12743873 173.42987587 23.12743873 168.30729675 17.52139282 C163.34409283 15.78434247 158.97953918 15.26536959 153.73893738 15.24673462 C153.01764145 15.24162369 152.29634552 15.23651276 151.55319214 15.23124695 C149.18989054 15.21744715 146.82688363 15.21830007 144.46354675 15.22061157 C142.8088012 15.21672 141.15405664 15.21238438 139.49931335 15.20762634 C136.03960422 15.2001853 132.57999719 15.20044048 129.12028503 15.20571899 C124.69865699 15.21151778 120.27744727 15.19456263 115.85588837 15.17137432 C112.44140706 15.15660701 109.0270259 15.15576923 105.61251831 15.15888405 C103.98271861 15.15837257 102.35291305 15.1531676 100.72314453 15.14307213 C98.44037534 15.13066322 96.15841348 15.13752474 93.87565613 15.14907837 C92.5799469 15.14844894 91.28423767 15.14781952 89.94926453 15.14717102 C84.89676086 15.66632911 81.08617334 17.20502415 76.96354675 20.25576782 Z M-26.69270325 93.52139282 C-26.73395325 157.21139282 -26.77520325 220.90139282 -26.81770325 286.52139282 C-26.83591125 306.65268188 -26.85411926 326.78397095 -26.87287903 347.52529907 C-26.87956673 365.52639736 -26.87956673 365.52639736 -26.8835907 383.52749634 C-26.88545858 391.56298996 -26.89280682 399.59845589 -26.90385437 407.63394165 C-26.91657203 416.8978558 -26.92237817 426.16174332 -26.91959315 435.42566627 C-26.91838667 440.16601395 -26.92031909 444.90630208 -26.93113351 449.64663887 C-26.94085267 453.9328829 -26.94135868 458.21902515 -26.93450546 462.50527382 C-26.93365704 464.05497183 -26.93619646 465.60467618 -26.9424684 467.15436172 C-27.26001693 479.75477526 -27.26001693 479.75477526 -22.94270325 491.33389282 C-19.87381149 494.31753759 -17.02338243 496.3906568 -12.62532043 496.63735962 C-11.92052551 496.62358276 -11.21573059 496.60980591 -10.48957825 496.59561157 C-9.2366095 496.57111938 -7.98364075 496.5466272 -6.69270325 496.52139282 C-6.68390388 495.24472244 -6.68390388 495.24472244 -6.67492676 493.94226074 C-6.61694723 485.90893112 -6.54484039 477.87587798 -6.45698833 469.84281731 C-6.41232092 465.71323485 -6.37305697 461.58375022 -6.3462677 457.45401001 C-6.32019825 453.46620786 -6.27977055 449.47878289 -6.22951698 445.49121475 C-6.21287279 443.97228829 -6.20134328 442.45329662 -6.19508934 440.93429184 C-6.18542117 438.80130519 -6.15733199 436.66927814 -6.12507629 434.53652954 C-6.11397324 433.32407562 -6.10287018 432.1116217 -6.09143066 430.86242676 C-5.6347574 427.03585046 -4.8441086 424.7218279 -2.69270325 421.52139282 C2.88917385 417.65740554 8.55081038 418.09853916 15.07389832 418.13371277 C16.26718876 418.12832723 17.4604792 418.12294169 18.68992996 418.11739296 C21.99422477 418.10557203 25.29801448 418.1071797 28.6022892 418.11455977 C32.16881777 418.11929156 35.73529234 418.10678159 39.30180359 418.09654236 C46.28543564 418.07934984 53.26897774 418.07851519 60.25262547 418.08375526 C65.92845129 418.08779696 71.60425052 418.08635342 77.28007507 418.081007 C78.49186538 418.07988437 78.49186538 418.07988437 79.7281363 418.07873906 C81.36929672 418.07720758 83.01045712 418.07566924 84.65161753 418.07412409 C100.04022663 418.06039769 115.42878488 418.06583797 130.81739283 418.0773093 C144.89710315 418.08724429 158.97668211 418.0742967 173.05637217 418.05037511 C187.51398343 418.02599647 201.97153348 418.01637304 216.42916489 418.02302784 C224.54584829 418.0265225 232.66243063 418.02427163 240.77909851 418.00677681 C247.68777314 417.99207036 254.59627551 417.99139902 261.50494671 418.00884772 C265.02980345 418.01737261 268.55435226 418.01947135 272.07919312 418.00419617 C275.89985226 417.98784392 279.72003392 418.00246742 283.54069519 418.02018738 C284.65528233 418.01058237 285.76986946 418.00097736 286.91823196 417.9910813 C293.01791313 418.04946259 296.68100166 418.40580038 301.30729675 422.52139282 C303.36560089 425.4646451 303.55616355 427.86480463 303.55021667 431.4100647 C303.5532933 432.37786865 303.55636993 433.34567261 303.55953979 434.34280396 C303.54876152 435.90073669 303.54876152 435.90073669 303.5377655 437.49014282 C303.53730728 438.56260254 303.53684906 439.63506226 303.53637695 440.74002075 C303.53335763 443.00618599 303.52548088 445.2723492 303.5131073 447.53848267 C303.49486653 451.00812124 303.49259759 454.47749258 303.49284363 457.94717407 C303.48792759 460.1489993 303.48209889 462.35082271 303.4752655 464.55264282 C303.47415268 465.59126465 303.47303986 466.62988647 303.47189331 467.69998169 C303.46551346 468.66778564 303.45913361 469.6355896 303.45256042 470.63272095 C303.44874863 471.48225342 303.44493683 472.33178589 303.44100952 473.20706177 C303.31208137 475.4385796 302.92786623 477.37944153 302.30729675 479.52139282 C300.89426438 479.77199472 299.47650201 479.99601203 298.05729675 480.20889282 C297.2683905 480.33651001 296.47948425 480.4641272 295.66667175 480.59561157 C293.30729675 480.52139282 293.30729675 480.52139282 289.30729675 477.52139282 C288.97729675 463.00139282 288.64729675 448.48139282 288.30729675 433.52139282 C196.23729675 433.52139282 104.16729675 433.52139282 9.30729675 433.52139282 C9.30729675 454.31139282 9.30729675 475.10139282 9.30729675 496.52139282 C64.47716555 496.61177937 119.64701662 496.68341022 174.81694475 496.72565414 C181.32715661 496.73065709 187.83736832 496.73583437 194.34757996 496.74111938 C196.29171591 496.74269325 196.29171591 496.74269325 198.27512734 496.74429891 C219.27369953 496.76171409 240.27222801 496.79325792 261.27077425 496.83000401 C282.80997169 496.86738243 304.3491462 496.88962212 325.88837475 496.8977468 C339.18407129 496.90324099 352.47964429 496.92060703 365.77530282 496.95305869 C374.88704117 496.97416831 383.99871546 496.98060092 393.1104765 496.97539833 C398.37104569 496.97283103 403.63139868 496.97682445 408.89192963 496.99821472 C413.70659468 497.01764942 418.52089771 497.0186828 423.33557927 497.0049884 C425.07863361 497.00329534 426.82171034 497.00839558 428.56472046 497.02092555 C430.93293125 497.03696192 433.29983263 497.02833796 435.66802311 497.01358414 C437.64161953 497.01586246 437.64161953 497.01586246 439.65508658 497.01818681 C445.30278423 496.24995549 448.99952769 494.10448169 452.68229675 489.64639282 C455.50536445 484.21741649 455.44986208 478.72803662 455.404953 472.71670532 C455.40353806 471.99272552 455.40212311 471.26874573 455.40066528 470.52282715 C455.39510751 468.23063876 455.38256308 465.93855125 455.36979675 463.64639282 C455.36477629 462.08389424 455.36021434 460.52139412 455.35612488 458.95889282 C455.34515195 455.14635448 455.32791685 451.3338907 455.30729675 447.52139282 C454.49905457 447.94291626 453.69081238 448.3644397 452.858078 448.79873657 C451.78944519 449.34658813 450.72081238 449.8944397 449.61979675 450.45889282 C448.56405457 451.00416626 447.50831238 451.5494397 446.420578 452.11123657 C437.47769217 456.16190381 428.13174185 455.26621421 419.108078 451.98233032 C410.7768971 447.63663763 404.32715719 440.85290533 397.75260925 434.26748657 C396.76013905 433.27891238 395.76744902 432.29055884 394.77455139 431.30241394 C392.70882303 429.24409619 390.64694506 427.18201378 388.58757019 425.11734009 C385.95324145 422.47718613 383.307644 419.84864857 380.65887642 417.22299099 C378.61186206 415.19071937 376.57182799 413.15155149 374.53373337 411.11033821 C373.56088194 410.13799849 372.58567925 409.16800515 371.6080513 408.20046806 C370.24427818 406.84906821 368.89103066 405.48707151 367.53825378 404.12466431 C366.76740448 403.35444443 365.99655518 402.58422455 365.2023468 401.79066467 C361.7350385 397.63865553 361.08572716 394.04529456 361.04167175 388.68154907 C361.30729675 386.52139282 361.30729675 386.52139282 363.30729675 380.52139282 C356.04729675 373.26139282 348.78729675 366.00139282 341.30729675 358.52139282 C339.14167175 359.71764282 336.97604675 360.91389282 334.74479675 362.14639282 C325.02012361 367.40436953 314.98590251 371.60656931 304.30729675 374.52139282 C304.26991394 375.76276001 304.23253113 377.0041272 304.1940155 378.28311157 C304.12833725 379.92506794 304.06189055 381.56699369 303.99479675 383.20889282 C303.97223816 384.02551392 303.94967957 384.84213501 303.92643738 385.6835022 C303.71768983 390.37083341 303.44011084 393.79382816 300.30729675 397.52139282 C296.79764072 399.9885614 294.41017963 400.89673523 290.13292789 400.90170956 C288.59259297 400.91436947 288.59259297 400.91436947 287.02114016 400.92728513 C285.89974923 400.92127509 284.77835831 400.91526504 283.62298584 400.90907288 C282.42646627 400.91445841 281.2299467 400.91984395 279.99716896 400.92539269 C276.67921434 400.93722678 273.36176178 400.93559968 270.04382694 400.92822587 C266.46432906 400.92349897 262.88488526 400.9359998 259.30540466 400.94624329 C252.29423004 400.96344599 245.28314498 400.96426827 238.27195472 400.95903038 C232.57369845 400.95499022 226.87546867 400.95643041 221.17721367 400.96177864 C220.36644261 400.96252706 219.55567156 400.96327548 218.72033168 400.96404659 C217.07329273 400.96557805 215.42625379 400.9671164 213.77921485 400.96866155 C198.33099862 400.9823919 182.88283301 400.97694514 167.43461793 400.96547634 C153.29987874 400.95554317 139.16527044 400.96848511 125.03055144 400.99241053 C110.51873129 401.0167893 96.00697213 401.02641243 81.49513191 401.01975781 C73.34713462 401.01626289 65.19923801 401.01851559 57.05125618 401.03600883 C50.11510919 401.05071555 43.17913377 401.0513864 36.2429902 401.03393792 C32.70396398 401.02541283 29.16524446 401.02331474 25.62623405 401.03858948 C21.79019532 401.05494129 17.95463217 401.04031844 14.11859131 401.02259827 C12.99943111 401.03220327 11.8802709 401.04180828 10.72719675 401.05170435 C4.61502249 400.99343646 0.94631987 400.64021529 -3.69270325 396.52139282 C-6.14778804 393.19915024 -5.95158239 389.96503411 -5.96736145 385.9203186 C-5.97247238 385.26612946 -5.97758331 384.61194031 -5.98284912 383.93792725 C-5.99672006 381.78075953 -5.99579007 379.62391227 -5.9934845 377.46670532 C-5.99737328 375.96221804 -6.00170832 374.45773185 -6.00646973 372.95324707 C-6.01392689 369.80095867 -6.01364468 366.64878227 -6.00837708 363.49649048 C-6.00258803 359.46589136 -6.01950183 355.43575261 -6.04272175 351.40522957 C-6.0574881 348.29788553 -6.05832678 345.19065157 -6.05521202 342.08327866 C-6.05572394 340.59778813 -6.06093737 339.11229124 -6.07102394 337.62683487 C-6.08342569 335.5446755 -6.07657508 333.46340236 -6.0650177 331.3812561 C-6.06564713 330.1986319 -6.06627655 329.01600769 -6.06692505 327.79754639 C-5.62818944 323.95660176 -4.9019199 321.70528098 -2.69270325 318.52139282 C2.19752341 315.98428282 5.83729267 315.14389855 11.41311646 315.12266541 C12.09288357 315.11601858 12.77265068 315.10937175 13.4730168 315.10252351 C15.73165336 315.08399591 17.9897554 315.08649173 20.24845886 315.08901978 C21.87509401 315.07999632 23.50172237 315.06966767 25.12834167 315.05813599 C29.5306974 315.03060833 33.93292394 315.02128723 38.33535457 315.01528192 C42.94117121 315.00588722 47.54689178 314.97968293 52.15264893 314.95527649 C60.86826627 314.91163795 69.58386494 314.88307473 78.29955822 314.85995311 C88.22461731 314.83288726 98.14957964 314.78897659 108.07456958 314.74366438 C128.48542822 314.65085598 148.89631307 314.57975529 169.30729675 314.52139282 C167.32729675 309.24139282 165.34729675 303.96139282 163.30729675 298.52139282 C160.30175186 298.51592438 160.30175186 298.51592438 157.23548889 298.51034546 C138.37116021 298.47412961 119.50699086 298.41594661 100.64278984 298.33749008 C90.94404193 298.29768187 81.24537536 298.26529843 71.54655457 298.25039673 C63.09298768 298.23738945 54.63959966 298.21044844 46.1861335 298.16677976 C41.71010974 298.14414412 37.23430675 298.1284834 32.75822067 298.12950897 C28.54413393 298.13025435 24.33053562 298.11235315 20.11657524 298.08022499 C18.57106313 298.07171469 17.02549631 298.06998376 15.47997093 298.07559013 C13.36641343 298.08223509 11.25440775 298.06430121 9.14100647 298.04037476 C7.36839856 298.034844 7.36839856 298.034844 5.55998039 298.02920151 C1.60595969 297.41190014 -0.57839119 295.9891372 -3.69270325 293.52139282 C-6.26995678 289.31794436 -5.98226078 284.7483917 -5.96736145 279.95498657 C-5.97502785 278.67846725 -5.97502785 278.67846725 -5.98284912 277.37615967 C-5.99672012 274.57033202 -5.99579046 271.76475063 -5.9934845 268.95889282 C-5.99737232 267.00503447 -6.00170717 265.05117697 -6.00646973 263.09732056 C-6.01392622 259.00525165 -6.01364443 254.91326903 -6.00837708 250.82119751 C-6.00257815 245.57876615 -6.01952647 240.33668759 -6.04272175 235.09431458 C-6.05745527 231.06055641 -6.05833139 227.02688333 -6.05521202 222.99310303 C-6.05572526 221.06021424 -6.06096343 219.12732068 -6.07102394 217.19445801 C-6.08336586 214.49200503 -6.0766106 211.79024108 -6.0650177 209.08779907 C-6.07648331 207.89224899 -6.07648331 207.89224899 -6.08818054 206.67254639 C-6.04485112 202.10077865 -5.50743805 199.16600661 -2.69270325 195.52139282 C1.75657323 191.6282759 5.42664499 191.40065609 11.21321106 191.4304657 C11.91996235 191.43258338 12.62671365 191.43470106 13.35488164 191.43688291 C15.72919829 191.44495699 18.1034232 191.45999353 20.47770691 191.47476196 C22.17780851 191.48155092 23.87791251 191.48776253 25.57801819 191.49343872 C29.24318501 191.50590255 32.90833552 191.52049668 36.57349014 191.53611946 C42.3730628 191.5588278 48.17257051 191.56451639 53.97218323 191.56544495 C54.9509507 191.56562671 55.92971818 191.56580848 56.93814528 191.56599575 C60.97684244 191.56644569 65.01553948 191.56636333 69.05423665 191.56616032 C80.52050121 191.56642499 91.98621986 191.58313803 103.45231628 191.64810181 C112.5586649 191.69958061 121.66430668 191.71572368 130.77077711 191.69064039 C135.5888648 191.67870701 140.40544411 191.68457377 145.22333145 191.73332405 C149.75978716 191.77883803 154.2938451 191.77738318 158.8303566 191.7405777 C160.49077489 191.73532558 162.15135114 191.74702646 163.81150055 191.77736473 C173.04235474 192.07421365 173.04235474 192.07421365 181.23461533 188.35043144 C183.51434411 185.84720135 185.42075087 183.32748106 187.30729675 180.52139282 C188.39524276 179.21603452 189.49585335 177.92088803 190.61979675 176.64639282 C191.04905457 176.13334595 191.47831238 175.62029907 191.920578 175.09170532 C193.63510267 173.15018725 195.47064306 171.34703175 197.30729675 169.52139282 C195.7990129 169.51781029 195.7990129 169.51781029 194.26025867 169.51415539 C169.80699582 169.45539164 145.35383174 169.3795282 120.90067768 169.28567791 C109.07537031 169.24068975 97.25009326 169.20128204 85.42472839 169.17495728 C75.11916121 169.15200167 64.81368975 169.11863095 54.50819844 169.07269126 C49.05023375 169.04872619 43.59236404 169.03001893 38.13434792 169.02377892 C32.99862696 169.01774294 27.86314914 168.99779694 22.72751808 168.96711731 C20.84133083 168.95831321 18.95511185 168.95461939 17.06890488 168.95638466 C14.49548326 168.95803286 11.92280684 168.94137724 9.3494873 168.92012024 C8.60142565 168.92496782 7.85336399 168.92981539 7.08263379 168.93480986 C2.65129319 168.87431455 -0.14794541 168.21400829 -3.69270325 165.52139282 C-6.51899387 161.90199139 -5.99853691 157.41821349 -5.9934845 153.02920532 C-5.99776962 152.20564545 -6.00205475 151.38208557 -6.00646973 150.53356934 C-6.01220449 148.79367999 -6.01271957 147.05376667 -6.00837708 145.31387329 C-6.0052225 142.66257422 -6.0286673 140.01239734 -6.05403137 137.36123657 C-6.05630512 135.66722756 -6.05700751 133.97321556 -6.0559845 132.27920532 C-6.06519424 131.49151764 -6.07440399 130.70382996 -6.08389282 129.89227295 C-6.04368362 125.06736423 -5.45905649 121.64961297 -2.69270325 117.52139282 C0.86642775 115.06665181 4.22965458 115.27179327 8.45972538 115.27250385 C9.18437753 115.26989657 9.90902968 115.26728928 10.65564099 115.26460299 C13.09674773 115.2582801 15.53759946 115.26628024 17.97869873 115.27415466 C19.7413036 115.27256716 21.50390787 115.27010416 23.26651043 115.26683825 C28.12018269 115.26040877 32.97377189 115.26650524 37.82743871 115.27460253 C43.05787959 115.28116746 48.288311 115.2762337 53.51875305 115.27272034 C63.76892405 115.26767254 74.01906284 115.27332717 84.26922984 115.28257064 C96.19668643 115.29294113 108.12413602 115.29288481 120.05159628 115.29239806 C141.32718489 115.29189714 162.60275848 115.30106718 183.87834167 115.31558228 C204.54110487 115.32967206 225.20385485 115.336753 245.86662292 115.33609009 C247.77567294 115.33603015 247.77567294 115.33603015 249.72328962 115.33596901 C250.99375117 115.33592865 252.26421272 115.3358883 253.57317311 115.33584672 C277.07159741 115.33515748 300.57001607 115.34104328 324.06843855 115.34999994 C332.3901954 115.35302068 340.71195123 115.35408002 349.03370857 115.35453224 C359.16892565 115.35521327 369.30413322 115.35966253 379.43934626 115.36886505 C384.61430497 115.37349276 389.7892515 115.37652497 394.96421242 115.37527084 C399.695752 115.37417975 404.42726461 115.37766995 409.15879857 115.38491937 C410.87608211 115.38673993 412.59336842 115.38685602 414.31065208 115.38515208 C416.63403696 115.38310098 418.95733223 115.38712649 421.28070927 115.39275837 C422.57452646 115.39346279 423.86834366 115.39416722 425.20136744 115.39489299 C428.30729675 115.52139282 428.30729675 115.52139282 431.30729675 116.52139282 C432.24395206 119.33135875 432.43374118 121.0391779 432.43669128 123.94522095 C432.43984344 124.83624512 432.44299561 125.72726929 432.44624329 126.64529419 C432.44320694 128.08443176 432.44320694 128.08443176 432.44010925 129.55264282 C432.44154434 131.03383606 432.44154434 131.03383606 432.44300842 132.54495239 C432.443689 134.63296574 432.44184322 136.7209812 432.43766785 138.80899048 C432.4323179 142.00874576 432.43761699 145.20836067 432.4440155 148.40811157 C432.4433547 150.43545563 432.44207349 152.46279961 432.44010925 154.49014282 C432.44213348 155.44956787 432.44415771 156.40899292 432.44624329 157.39749146 C432.44309113 158.28851563 432.43993896 159.17953979 432.43669128 160.0975647 C432.43549789 161.27312927 432.43549789 161.27312927 432.4342804 162.47244263 C432.30729675 164.52139282 432.30729675 164.52139282 431.30729675 167.52139282 C427.8342895 168.67906191 424.69644728 168.69658839 421.08195496 168.72671509 C419.98402115 168.74156448 419.98402115 168.74156448 418.86390686 168.75671387 C416.44533011 168.78829294 414.02673372 168.81307205 411.608078 168.83779907 C409.93084198 168.85837171 408.25361112 168.87936826 406.5763855 168.90077209 C402.16235016 168.95596083 397.74826829 169.00538421 393.33415222 169.05361938 C388.82971556 169.10385775 384.32534648 169.15953163 379.82096863 169.2147522 C370.98313573 169.32229465 362.14524416 169.42374833 353.30729675 169.52139282 C354.2559046 170.63620399 355.20567561 171.75002547 356.15592957 172.86343384 C356.68470703 173.4838002 357.2134845 174.10416656 357.75828552 174.74333191 C359.7774842 177.06110609 361.92189404 179.24824941 364.05729675 181.45889282 C384.97167316 204.42061029 394.50518825 235.92864822 393.1315155 266.61123657 C391.87258419 286.13568296 386.71166198 305.95702537 375.4440155 322.20889282 C375.06889832 322.97201782 374.69378113 323.73514282 374.30729675 324.52139282 C375.59986167 328.23181448 378.12239231 330.56667705 380.87760925 333.28701782 C381.77350769 334.17647095 382.66940613 335.06592407 383.592453 335.98233032 C384.99817566 337.36291626 384.99817566 337.36291626 386.43229675 338.77139282 C387.38718312 339.71624139 388.34161534 340.66154916 389.295578 341.60733032 C391.62838762 343.9165762 393.96573762 346.22102485 396.30729675 348.52139282 C396.8398407 348.30773071 397.37238464 348.0940686 397.92106628 347.87393188 C398.98236755 347.45965942 398.98236755 347.45965942 400.06510925 347.03701782 C400.7626532 346.76148071 401.46019714 346.4859436 402.17887878 346.20205688 C405.86033172 345.02473516 408.79364637 345.06810718 412.30729675 346.52139282 C422.01882446 353.81714112 430.3422669 363.476551 438.86979675 372.08389282 C441.76409575 375.00469581 444.66164603 377.92221691 447.561203 380.83779907 C448.22463211 381.50952652 448.88806122 382.18125397 449.57159424 382.87333679 C450.17990585 383.48495163 450.78821747 384.09656647 451.41496277 384.72671509 C451.95105667 385.26804581 452.48715057 385.80937653 453.03948975 386.36711121 C454.14477712 387.63359699 454.14477712 387.63359699 455.30729675 387.52139282 C455.30729675 290.50139282 455.30729675 193.48139282 455.30729675 93.52139282 C296.24729675 93.52139282 137.18729675 93.52139282 -26.69270325 93.52139282 Z M9.30729675 130.52139282 C9.30729675 138.11139282 9.30729675 145.70139282 9.30729675 153.52139282 C36.96757683 153.66046738 64.62777227 153.76745286 92.28833199 153.83226585 C105.13250275 153.86316364 117.97645187 153.90526646 130.82048035 153.97402954 C142.0193236 154.03395605 153.21800627 154.07257158 164.41700542 154.08592379 C170.34325541 154.09372503 176.26904612 154.11197508 182.19514847 154.15577316 C187.78156221 154.19672331 193.36733072 154.20901662 198.95388031 154.20003891 C200.99598328 154.20167955 203.03810949 154.21348 205.08008194 154.23662567 C217.45041853 154.36987745 226.26403477 153.21922061 237.30729675 147.52139282 C240.11288724 146.54831936 242.84310283 145.88308373 245.74479675 145.20889282 C247.02225769 144.90338501 248.29971863 144.5978772 249.6158905 144.28311157 C272.92217628 139.473878 298.00642696 141.40334518 319.9728241 150.50234985 C324.31313106 152.29090588 327.43526947 152.82538892 332.30729675 153.52139282 C332.30729675 145.93139282 332.30729675 138.34139282 332.30729675 130.52139282 C225.71729675 130.52139282 119.12729675 130.52139282 9.30729675 130.52139282 Z M348.30729675 130.52139282 C348.30729675 138.11139282 348.30729675 145.70139282 348.30729675 153.52139282 C370.74729675 153.52139282 393.18729675 153.52139282 416.30729675 153.52139282 C416.30729675 145.93139282 416.30729675 138.34139282 416.30729675 130.52139282 C393.86729675 130.52139282 371.42729675 130.52139282 348.30729675 130.52139282 Z M244.30729675 161.52139282 C243.17678894 161.88361938 242.04628113 162.24584595 240.8815155 162.61904907 C228.29409839 167.06610063 217.42511688 173.89204158 207.30729675 182.52139282 C206.29667175 183.28451782 205.28604675 184.04764282 204.24479675 184.83389282 C184.84054977 202.58671453 173.23791328 228.63746264 172.0690155 254.75576782 C171.33170539 284.93543891 182.29641004 311.8912122 203.05729675 333.70889282 C223.80118606 353.61399345 250.70417609 363.12917135 279.26042175 362.73233032 C302.88910508 362.00349432 324.46316441 352.82096478 342.30729675 337.52139282 C342.91831238 337.04315063 343.529328 336.56490845 344.15885925 336.07217407 C363.25747943 320.85432375 374.40166436 295.68346754 377.39176941 271.95254517 C380.26943236 245.39582712 373.73519785 219.36069464 357.36979675 198.04092407 C339.92977281 176.73634937 316.33239115 160.37286697 288.30729675 157.52139282 C273.20372433 156.77430329 258.75651625 156.79790735 244.30729675 161.52139282 Z M9.30729675 206.52139282 C9.30729675 231.60139282 9.30729675 256.68139282 9.30729675 282.52139282 C58.47729675 282.52139282 107.64729675 282.52139282 158.30729675 282.52139282 C157.97729675 278.56139282 157.64729675 274.60139282 157.30729675 270.52139282 C157.21965326 266.80427751 157.16639647 263.11175958 157.18229675 259.39639282 C157.17842957 258.48502563 157.17456238 257.57365845 157.170578 256.63467407 C157.17694245 252.1604647 157.36049047 247.78851115 157.81538391 243.33612061 C157.90702883 242.43474428 157.99867374 241.53336796 158.09309578 240.6046772 C158.1637821 239.91719336 158.23446842 239.22970951 158.30729675 238.52139282 C157.66253545 238.51808268 157.01777414 238.51477253 156.35347462 238.51136208 C140.66266092 238.43013027 124.97195422 238.33803725 109.28127766 238.23386574 C101.69337287 238.18375084 94.10547883 238.1373078 86.51750183 238.09951782 C79.90357309 238.06656952 73.28972798 238.02672263 66.67589158 237.97860277 C63.17414254 237.95336594 59.67244879 237.9315764 56.17063332 237.91804886 C52.26076486 237.90281572 48.35109939 237.87218055 44.44132996 237.84024048 C43.28111328 237.83808029 42.12089661 237.8359201 40.92552185 237.83369446 C39.32493675 237.81694923 39.32493675 237.81694923 37.6920166 237.79986572 C36.76745824 237.79433496 35.84289988 237.78880421 34.89032459 237.78310585 C32.02443006 237.4927327 29.88222132 236.80262928 27.30729675 235.52139282 C25.90271938 232.71223808 26.05834518 230.63328748 26.30729675 227.52139282 C27.48479939 225.35851669 27.48479939 225.35851669 29.30729675 223.52139282 C31.75355053 223.01358414 31.75355053 223.01358414 34.71725464 223.00241089 C36.40206436 222.98154167 36.40206436 222.98154167 38.12091064 222.96025085 C39.97020424 222.9677964 39.97020424 222.9677964 41.8568573 222.97549438 C43.80335175 222.95998787 43.80335175 222.95998787 45.78916931 222.94416809 C49.34888 222.91626084 52.90824365 222.91290442 56.46804786 222.91388798 C60.18772171 222.91076288 63.90723832 222.88515318 67.62683105 222.86190796 C74.67096493 222.82131329 81.71500616 222.80099918 88.75923902 222.78793406 C96.77858625 222.77207569 104.79777554 222.73366506 112.81703126 222.69334078 C129.31374105 222.61089446 145.81041762 222.55683202 162.30729675 222.52139282 C163.31171015 220.23156942 164.31097287 217.93973293 165.30729675 215.64639282 C165.59346863 214.99541626 165.8796405 214.3444397 166.17448425 213.67373657 C167.76655441 210.22500944 167.76655441 210.22500944 168.30729675 206.52139282 C115.83729675 206.52139282 63.36729675 206.52139282 9.30729675 206.52139282 Z M9.30729675 330.52139282 C9.30729675 348.67139282 9.30729675 366.82139282 9.30729675 385.52139282 C101.37729675 385.52139282 193.44729675 385.52139282 288.30729675 385.52139282 C288.30729675 382.88139282 288.30729675 380.24139282 288.30729675 377.52139282 C287.71005798 377.53710327 287.11281921 377.55281372 286.4974823 377.56900024 C267.17568203 378.0068305 243.72905278 378.00119625 226.56485748 367.45030975 C223.26869456 366.09403991 220.0340942 366.24066683 216.52616882 366.25637817 C215.34308726 366.24980627 215.34308726 366.24980627 214.13610506 366.2431016 C211.49063748 366.23077015 208.8453679 366.23259047 206.19987488 366.23428345 C204.30431829 366.22826003 202.40876439 366.22133598 200.51321411 366.21357727 C196.43007624 366.19868096 192.34698734 366.18993726 188.26382446 366.18586731 C181.81020708 366.17916054 175.35669466 366.1574146 168.90312195 366.1333313 C155.20453812 366.08433852 141.50593209 366.05202691 127.80729675 366.02139282 C113.01960629 365.9883233 98.23195683 365.95244624 83.44432974 365.8972621 C77.02607434 365.87388302 70.60789189 365.86016492 64.18959808 365.8537674 C60.20037969 365.84783871 56.21122063 365.83375109 52.22203255 365.81742287 C50.36927623 365.81153545 48.51650545 365.80907701 46.66374016 365.81026268 C44.13850817 365.81141821 41.61361122 365.80043464 39.08842468 365.78640747 C37.98356492 365.79135593 37.98356492 365.79135593 36.85638475 365.79640436 C33.2076716 365.76285557 30.34802953 365.65976567 27.30729675 363.52139282 C25.90271938 360.71223808 26.05834518 358.63328748 26.30729675 355.52139282 C27.40175343 353.35851669 27.40175343 353.35851669 29.30729675 351.52139282 C32.3001585 351.01358414 32.3001585 351.01358414 36.04598999 351.00241089 C36.73459006 350.99490964 37.42319013 350.98740839 38.13265687 350.97967982 C40.44532452 350.95934274 42.75701734 350.96751644 45.06974792 350.97549438 C46.7253517 350.96676258 48.38094703 350.95627817 50.03652954 350.94416809 C54.53627516 350.91623914 59.03574637 350.91290492 63.53556609 350.91388798 C68.23617604 350.91076478 72.93666131 350.88515899 77.63720703 350.86190796 C86.54067962 350.82129886 95.44407888 350.80099573 104.34762985 350.78793406 C114.48300175 350.77208062 124.61824857 350.73367202 134.75354803 350.69334078 C155.60475638 350.61087467 176.45595893 350.55682453 197.30729675 350.52139282 C196.36489965 349.41715884 195.42181093 348.31351509 194.47843933 347.21011353 C193.95333267 346.59545731 193.42822601 345.98080109 192.88720703 345.34751892 C189.80200661 341.78151579 186.57903827 338.34203946 183.3815155 334.87686157 C181.30729675 332.52139282 181.30729675 332.52139282 180.30729675 330.52139282 C123.87729675 330.52139282 67.44729675 330.52139282 9.30729675 330.52139282 Z M363.30729675 338.52139282 C361.7758733 340.23622028 360.33419365 342.01618707 358.87760925 343.79483032 C357.30729675 345.52139282 357.30729675 345.52139282 354.30729675 347.52139282 C355.79383182 350.98769117 357.76452026 353.21161319 360.44010925 355.84951782 C361.24577332 356.64873657 362.05143738 357.44795532 362.8815155 358.27139282 C363.72327332 359.09639282 364.56503113 359.92139282 365.43229675 360.77139282 C366.70653503 362.03209595 366.70653503 362.03209595 368.0065155 363.31826782 C370.10234599 365.39054965 372.20270389 367.45801675 374.30729675 369.52139282 C377.48816194 368.01192771 379.60599581 366.44197457 382.05729675 363.89639282 C382.6708905 363.2647522 383.28448425 362.63311157 383.91667175 361.98233032 C384.375578 361.50022095 384.83448425 361.01811157 385.30729675 360.52139282 C380.93104463 355.28758585 376.33184179 350.39262345 371.49479675 345.58389282 C370.81481628 344.90004517 370.13483582 344.21619751 369.43424988 343.5116272 C368.78778503 342.86645142 368.14132019 342.22127563 367.4752655 341.55654907 C366.89027283 340.97268433 366.30528015 340.38881958 365.70256042 339.78726196 C364.49784911 338.40940438 364.49784911 338.40940438 363.30729675 338.52139282 Z M402.50993347 365.09170532 C401.33047446 366.27148225 400.1565348 367.45679261 398.98698425 368.64639282 C398.36832489 369.26788208 397.74966553 369.88937134 397.11225891 370.5296936 C395.13087944 372.52229805 393.15655327 374.52173315 391.18229675 376.52139282 C389.84291073 377.87080564 388.50307274 379.21977 387.1627655 380.56826782 C383.87233565 383.88078877 380.58821669 387.1994535 377.30729675 390.52139282 C382.01190791 396.15922375 387.0113475 401.41602303 392.1783905 406.63076782 C393.43922203 407.90370697 393.43922203 407.90370697 394.7255249 409.20236206 C396.4948708 410.98547075 398.26572617 412.76708276 400.03800964 414.54727173 C401.84523106 416.3660664 403.64796293 418.18933289 405.44621277 420.01699829 C408.05553588 422.66894106 410.67781163 425.30742978 413.3033905 427.94326782 C414.10151657 428.75890198 414.89964264 429.57453613 415.72195435 430.41488647 C421.03003457 435.70255816 425.13055408 438.98980739 432.74479675 439.95889282 C441.23085096 438.91674581 446.94840497 433.9621266 452.30729675 427.52139282 C454.27093953 424.39104021 454.6302897 421.88579168 454.68229675 418.20889282 C454.71065613 417.30526001 454.7390155 416.4016272 454.76823425 415.47061157 C453.42906333 406.90218744 446.4504321 401.24207958 440.58073425 395.43154907 C439.62666036 394.47799459 438.67310633 393.52391971 437.720047 392.5693512 C435.73265391 390.58204733 433.7402399 388.59996933 431.74382019 386.62173462 C429.18177905 384.08251858 426.63111012 381.53222552 424.08382225 378.97821903 C422.1214307 377.01249426 420.15410204 375.05177436 418.18512344 373.09264946 C416.78349973 371.69675218 415.38538896 370.29733042 413.98731995 368.89787292 C412.71557419 367.64042519 412.71557419 367.64042519 411.4181366 366.35757446 C410.67075226 365.61479752 409.92336792 364.87202057 409.15333557 364.10673523 C406.02706194 361.42195195 405.55551464 362.29332179 402.50993347 365.09170532 Z " fill="#000000" transform="translate(41.69270324707031,0.478607177734375)"/>
<path d="M0 0 C0.97656445 -0.00709439 1.9531289 -0.01418877 2.95928621 -0.02149814 C6.2407919 -0.0391397 9.5211228 -0.02094134 12.8026123 -0.00291443 C15.15136761 -0.00805087 17.50011906 -0.01533005 19.84886169 -0.02459717 C26.23519778 -0.04315419 32.62111784 -0.03014511 39.00743675 -0.01050687 C45.00653964 0.00418891 51.00561187 -0.00172488 57.00472289 -0.00656378 C68.89201086 -0.01513342 80.77913398 0.0015526 92.66638184 0.03126526 C104.20388717 0.06010337 115.74115503 0.06718661 127.27868652 0.05177307 C139.83915605 0.03501595 152.3995128 0.03097166 164.95998526 0.04848343 C171.61003343 0.05764288 178.25999685 0.06167155 184.91004944 0.05244255 C191.16127753 0.04479605 197.41216247 0.05685278 203.66333199 0.08429146 C205.96115157 0.0911935 208.25900309 0.09125392 210.55682182 0.08407593 C213.68662368 0.07542371 216.81535619 0.09126623 219.94506836 0.11352539 C221.31840356 0.10116424 221.31840356 0.10116424 222.7194829 0.08855337 C228.82224829 0.16900578 228.82224829 0.16900578 232.04065704 2.44160557 C234.13385994 5.638083 233.93954198 7.89212671 233.47253418 11.62818909 C231.71238287 14.81322478 230.97362502 15.46115881 227.47253418 16.62818909 C226.1331709 16.71943807 224.78974111 16.75726006 223.44727516 16.75961685 C222.62578755 16.763458 221.80429994 16.76729914 220.95791876 16.77125669 C220.05569504 16.7703902 219.15347131 16.76952372 218.22390747 16.76863098 C217.26523722 16.7716021 216.30656697 16.77457323 215.31884611 16.77763438 C212.0922347 16.78633678 208.86566032 16.78783093 205.63903809 16.7893219 C203.33146586 16.79394893 201.02389441 16.79897344 198.71632385 16.80436707 C192.4374407 16.81750295 186.15856824 16.82393819 179.87967348 16.82837772 C175.959722 16.83130615 172.03977346 16.83541049 168.11982346 16.8398819 C157.26808848 16.85199151 146.41635675 16.86237365 135.56461525 16.86575699 C134.52282704 16.86608634 134.52282704 16.86608634 133.45999261 16.86642234 C132.76380143 16.86664062 132.06761025 16.8668589 131.35032237 16.86708379 C129.93956224 16.86752726 128.52880212 16.86797382 127.11804199 16.86842346 C126.06836237 16.86875561 126.06836237 16.86875561 124.9974771 16.86909446 C113.65549531 16.87304346 102.31357773 16.89050092 90.97162075 16.91378298 C79.3289802 16.93748955 67.68637506 16.94970044 56.04371011 16.95112491 C49.50594594 16.95217475 42.96827235 16.95812084 36.43053055 16.97594452 C30.28281591 16.99237866 24.13526039 16.99460336 17.98753166 16.98580551 C15.72881966 16.98503267 13.47009926 16.98941015 11.21140862 16.99926376 C8.13245703 17.01191009 5.05407524 17.00614619 1.97512817 16.99568176 C0.62848475 17.00776637 0.62848475 17.00776637 -0.74536359 17.02009511 C-5.4837625 16.98232422 -8.69665173 16.74569566 -12.52746582 13.62818909 C-13.95408801 10.77494471 -13.8378045 8.7936436 -13.52746582 5.62818909 C-10.24473459 -0.50350148 -6.28632619 -0.08126557 0 0 Z " fill="#000000" transform="translate(80.5274658203125,457.37181091308594)"/>
<path d="M0 0 C6.19432438 5.66714784 10.20531185 13.57435389 14 21 C14 21.66 14 22.32 14 23 C14.66 23 15.32 23 16 23 C16.23589844 22.18015625 16.47179687 21.3603125 16.71484375 20.515625 C18.2599434 16.28890864 20.2637143 12.60602763 22.5625 8.75 C22.95501953 8.03070313 23.34753906 7.31140625 23.75195312 6.5703125 C25.5742701 3.53406518 26.90415268 1.46638704 30.22631836 0.05249023 C34.96574398 -1.07773615 38.58026767 -1.47936204 43 1 C44.93853666 4.74867849 45.26045609 7.92065718 45.29052734 12.10375977 C45.30328705 13.31173721 45.31604675 14.51971466 45.32919312 15.76429749 C45.33141876 17.06024338 45.33364441 18.35618927 45.3359375 19.69140625 C45.34236911 21.04231405 45.34909774 22.39322046 45.35610962 23.74412537 C45.36805756 26.56927726 45.37179275 29.39430706 45.37060547 32.21948242 C45.37040179 35.83674331 45.39776355 39.4532228 45.43214989 43.07029819 C45.45439532 45.85759573 45.45844385 48.644704 45.45738602 51.43208122 C45.46088729 53.41299629 45.48255484 55.3938523 45.50448608 57.37464905 C45.49833282 58.57947433 45.49217957 59.78429962 45.48583984 61.02563477 C45.48868988 62.08532974 45.49153992 63.14502472 45.49447632 64.23683167 C44.87724836 67.68594478 43.72284682 68.86428758 41 71 C38.74609375 71.4609375 38.74609375 71.4609375 36.4375 71.375 C35.67308594 71.36210937 34.90867187 71.34921875 34.12109375 71.3359375 C32 71 32 71 29 69 C27.83597273 65.50791819 27.78881492 62.60852228 27.68359375 58.92578125 C27.66281265 58.2419487 27.64203156 57.55811615 27.62062073 56.8535614 C27.55533846 54.6733079 27.49633983 52.49293595 27.4375 50.3125 C27.39429447 48.83267014 27.35067953 47.35285217 27.30664062 45.87304688 C27.19967917 42.24882378 27.09835177 38.62446811 27 35 C26.52949219 35.84304688 26.05898438 36.68609375 25.57421875 37.5546875 C24.95160156 38.65039062 24.32898438 39.74609375 23.6875 40.875 C23.07261719 41.96554687 22.45773437 43.05609375 21.82421875 44.1796875 C20 47 20 47 17 49 C14.5625 49.4375 14.5625 49.4375 12 49 C8.7721098 45.98036078 6.95604493 42.15014009 4.87109375 38.30078125 C4.33282959 37.30860596 3.79456543 36.31643066 3.23999023 35.29418945 C2.83079346 34.53710693 2.42159668 33.78002441 2 33 C1.98541748 34.08007324 1.97083496 35.16014648 1.95581055 36.27294922 C1.89792454 40.27263838 1.82069227 44.27175876 1.73754883 48.27099609 C1.70425357 50.00332421 1.67623603 51.735762 1.65356445 53.46826172 C1.62010193 55.95588007 1.56779342 58.44248904 1.51171875 60.9296875 C1.50213387 62.09538773 1.50213387 62.09538773 1.49235535 63.28463745 C1.43237305 65.46826172 1.43237305 65.46826172 1 69 C-2.08520003 71.05680002 -2.91273504 71.29466814 -6.4375 71.3125 C-7.19933594 71.32925781 -7.96117187 71.34601563 -8.74609375 71.36328125 C-11.67100464 70.89184847 -12.88517171 70.07740934 -15 68 C-15.49447632 65.27442932 -15.49447632 65.27442932 -15.48583984 61.93969727 C-15.4919931 60.69152725 -15.49814636 59.44335724 -15.50448608 58.15736389 C-15.49068813 56.79370389 -15.476154 55.43005116 -15.4609375 54.06640625 C-15.45855262 52.66780263 -15.45764785 51.26919577 -15.4581604 49.87059021 C-15.45503221 46.93915755 -15.43846859 44.00821392 -15.41162109 41.0769043 C-15.37767221 37.32301167 -15.36999164 33.56965716 -15.37151146 29.81562901 C-15.37096698 26.92708721 -15.35998692 24.0386626 -15.34550858 21.15015984 C-15.33915227 19.76630477 -15.33520441 18.38243645 -15.33372116 16.99856758 C-15.32937416 15.06222883 -15.31027117 13.12594024 -15.29052734 11.18969727 C-15.28290375 10.08844009 -15.27528015 8.98718292 -15.26742554 7.85255432 C-15.00043815 5.00467365 -14.59689809 3.35431953 -13 1 C-8.42333234 -1.23511676 -4.8649433 -1.47685779 0 0 Z " fill="#000000" transform="translate(356,224)"/>
<path d="M0 0 C0.78628281 -0.00095673 1.57256561 -0.00191345 2.38267517 -0.00289917 C4.04100627 -0.0035783 5.69934006 -0.00174263 7.35766602 0.00244141 C9.89670772 0.0078006 12.43557311 0.00248374 14.97460938 -0.00390625 C16.58723997 -0.00324556 18.19987046 -0.00196459 19.8125 0 C20.57192398 -0.00202423 21.33134796 -0.00404846 22.11378479 -0.00613403 C25.28920512 0.00801138 27.80484832 0.12114736 30.83984375 1.1328125 C32.51955965 4.07231533 32.85599893 5.86355952 32.65234375 9.2578125 C31.78061315 12.3423977 31.38384703 13.27866256 28.83984375 15.1328125 C26.02075195 15.47338867 26.02075195 15.47338867 22.640625 15.42578125 C21.43212891 15.41611328 20.22363281 15.40644531 18.97851562 15.39648438 C17.71587891 15.37134766 16.45324219 15.34621094 15.15234375 15.3203125 C13.24098633 15.30000977 13.24098633 15.30000977 11.29101562 15.27929688 C8.1404455 15.24389721 4.99009209 15.19008974 1.83984375 15.1328125 C1.83984375 20.0828125 1.83984375 25.0328125 1.83984375 30.1328125 C3.04382813 30.09800781 4.2478125 30.06320313 5.48828125 30.02734375 C7.06378817 29.9992097 8.63931013 29.97190913 10.21484375 29.9453125 C11.00890625 29.92017578 11.80296875 29.89503906 12.62109375 29.86914062 C14.69570523 29.84276845 16.7708524 29.97794788 18.83984375 30.1328125 C21.30927904 33.83696543 21.30897464 35.75425755 20.83984375 40.1328125 C18.35865777 42.88478781 16.89951629 43.12805139 13.16796875 43.42578125 C11.80824556 43.40877557 10.44876453 43.37001839 9.08984375 43.3203125 C6.69734375 43.2584375 4.30484375 43.1965625 1.83984375 43.1328125 C1.83984375 48.0828125 1.83984375 53.0328125 1.83984375 58.1328125 C3.83789062 58.10960937 5.8359375 58.08640625 7.89453125 58.0625 C9.82730614 58.04859514 11.76008227 58.03476044 13.69287109 58.02294922 C15.69895735 58.00793143 17.70495699 57.98252269 19.7109375 57.95703125 C20.96777344 57.95058594 22.22460938 57.94414062 23.51953125 57.9375 C24.68210449 57.92702637 25.84467773 57.91655273 27.04248047 57.90576172 C29.83984375 58.1328125 29.83984375 58.1328125 31.83984375 60.1328125 C32.73531776 63.78359117 33.1448809 66.23591223 31.92382812 69.82617188 C29.55899421 72.44366846 29.13280578 72.50309796 25.78320312 72.74804688 C24.08343015 72.7675515 22.38317819 72.7585205 20.68359375 72.7265625 C19.78491577 72.72660278 18.88623779 72.72664307 17.96032715 72.72668457 C16.06055711 72.72132381 14.16078805 72.70371728 12.26123047 72.67480469 C9.3505489 72.63296638 6.44218134 72.63373289 3.53125 72.640625 C1.68618181 72.6301321 -0.15887443 72.61719346 -2.00390625 72.6015625 C-2.87583618 72.60136108 -3.74776611 72.60115967 -4.64611816 72.60095215 C-5.45705933 72.58504028 -6.26800049 72.56912842 -7.10351562 72.55273438 C-7.81616577 72.54431519 -8.52881592 72.535896 -9.26306152 72.52722168 C-11.84918391 71.98956249 -12.67418347 71.32329778 -14.16015625 69.1328125 C-14.53437805 66.27989197 -14.53437805 66.27989197 -14.5324707 62.76538086 C-14.53869949 61.45069321 -14.54492828 60.13600555 -14.55134583 58.78147888 C-14.54265867 57.34520082 -14.53334078 55.90892645 -14.5234375 54.47265625 C-14.5229189 53.00199891 -14.52343659 51.53134086 -14.52494812 50.0606842 C-14.52485842 46.97972251 -14.51443267 43.89902262 -14.49633789 40.81811523 C-14.47363065 36.86450963 -14.47311037 32.91128591 -14.47985554 28.95763302 C-14.48319291 25.92164196 -14.47657019 22.88573835 -14.4667263 19.84976387 C-14.46287148 18.39168314 -14.46172725 16.9335927 -14.46331215 15.47550774 C-14.463682 13.44059956 -14.44960342 11.40570408 -14.43481445 9.37084961 C-14.43020706 8.21185654 -14.42559967 7.05286346 -14.42085266 5.85874939 C-14.16015625 3.1328125 -14.16015625 3.1328125 -12.16015625 1.1328125 C-8.28143334 -0.34831435 -4.09114646 -0.01093402 0 0 Z " fill="#000000" transform="translate(303.16015625,222.8671875)"/>
<path d="M0 0 C2.125 1.75 2.125 1.75 3 4 C2.9301189 7.91334144 2.5102583 10.24406177 0.3125 13.5 C-2 15 -2 15 -4.9375 14.875 C-8 14 -8 14 -10.375 12.9375 C-15.07707419 11.25818779 -20.24379885 11.41459962 -25 13 C-25.67154684 15.28341743 -25.67154684 15.28341743 -25 18 C-21.42477759 20.66389121 -17.8025747 22.59871265 -13.8203125 24.58984375 C-6.27107768 28.43420005 0.55518609 32.01073971 3.89453125 40.19140625 C5.6864675 46.83891168 5.47780181 53.65868272 2.25 59.8125 C-1.67720099 65.37603474 -6.31195984 68.5428878 -13 70 C-23.38702989 71.03870299 -32.4020787 69.80658648 -41.125 63.875 C-43.47956379 61.52043621 -43.94312497 60.51187531 -44.3125 57.1875 C-43.92442854 53.22917108 -42.82562595 51.74713634 -40 49 C-38.1875 47.9375 -38.1875 47.9375 -36 48 C-32.61753567 49.72198184 -29.60325265 51.57772315 -26.5 53.75 C-23.15275955 55.42362022 -20.69717373 55.3361067 -17 55 C-14.64630193 54.11935073 -14.64630193 54.11935073 -13 53 C-12.2444568 50.2587435 -12.2444568 50.2587435 -13 47 C-17.27335694 42.88491554 -22.88407516 40.55861881 -28.1875 38.0625 C-34.31166 35.08233551 -38.2070069 31.797659 -41.125 25.6171875 C-43.06906223 19.80235852 -42.92495241 13.27964567 -40.5 7.625 C-33.10149912 -5.17807953 -11.90118811 -6.42110614 0 0 Z " fill="#000000" transform="translate(278,226)"/>
<path d="M0 0 C0.84671265 -0.00241196 1.69342529 -0.00482391 2.5657959 -0.00730896 C4.35104061 -0.00633206 6.1363162 0.00702428 7.92138672 0.03198242 C10.6478608 0.06630065 13.37109312 0.0526329 16.09765625 0.03320312 C17.83595124 0.04010192 19.5742379 0.0497746 21.3125 0.0625 C22.12408569 0.05754013 22.93567139 0.05258026 23.77185059 0.04747009 C27.75482593 0.12999827 29.72104065 0.35279848 33.16748047 2.53930664 C35.3024443 4.78251256 35.8406946 5.58534255 35.78125 8.62890625 C35.79414062 9.28890625 35.80703125 9.94890625 35.8203125 10.62890625 C34.75498132 13.83743308 32.98573577 14.83380927 30.15625 16.62890625 C27.20623626 17.21780467 24.31370532 17.21365386 21.3125 17.1953125 C20.46578735 17.20151108 19.61907471 17.20770966 18.7467041 17.21409607 C16.96151882 17.22118095 15.17626729 17.21804346 13.39111328 17.20532227 C10.66445089 17.19144798 7.94121695 17.22555282 5.21484375 17.26367188 C3.47656166 17.26462308 1.73827529 17.26276417 0 17.2578125 C-0.81158569 17.27107071 -1.62317139 17.28432892 -2.45935059 17.29798889 C-6.72824621 17.22798625 -8.37664579 16.99342463 -11.85742188 14.27709961 C-13.84375 11.62890625 -13.84375 11.62890625 -14.46875 8.62890625 C-12.7969489 0.60426095 -6.9856313 -0.11411852 0 0 Z " fill="#000000" transform="translate(80.84375,251.37109375)"/>
</svg>
