<?xml version="1.0" encoding="UTF-8"?>
<svg version="1.1" xmlns="http://www.w3.org/2000/svg" width="512" height="512">
<path d="M0 0 C0.8494519 -0.00974854 1.69890381 -0.01949707 2.57409668 -0.02954102 C21.69269555 -0.20373444 40.09401832 0.07726441 58.84765625 4.23828125 C59.69150879 4.4202002 60.53536133 4.60211914 61.40478516 4.78955078 C112.38260502 16.10110748 159.14429528 47.00113598 189.84765625 89.23828125 C190.47542969 90.08261719 191.10320312 90.92695312 191.75 91.796875 C218.7705989 129.11103539 232.34631556 174.02065766 232.16015625 219.86328125 C232.15742203 221.25841446 232.15742203 221.25841446 232.15463257 222.68173218 C232.11035736 236.08673639 231.70967064 249.09724079 228.84765625 262.23828125 C228.68136719 263.06344238 228.51507813 263.88860352 228.34375 264.73876953 C220.60941558 302.83036657 203.42829092 338.56557625 176.83984375 367.09375 C175.04071836 369.03045557 173.35056429 371.01976861 171.66015625 373.05078125 C135.86643818 413.96969683 80.18506305 437.40459282 26.6953125 441.08154297 C-3.23580829 442.72898635 -32.81172206 439.154503 -61.15234375 429.23828125 C-62.39242187 428.82191406 -63.6325 428.40554688 -64.91015625 427.9765625 C-83.26114592 421.61918035 -100.179564 412.19043925 -116.15234375 401.23828125 C-128.79665801 410.51620067 -128.79665801 410.51620067 -136.7421875 423.0234375 C-136.56303094 425.51727286 -136.56303094 425.51727286 -136.15405273 427.83081055 C-136.15189032 430.87703939 -136.83908118 431.60067239 -138.91015625 433.78515625 C-139.5542041 434.47391846 -140.19825195 435.16268066 -140.86181641 435.87231445 C-141.61769043 436.6530835 -142.37356445 437.43385254 -143.15234375 438.23828125 C-144.01778809 439.15633545 -144.88323242 440.07438965 -145.77490234 441.02026367 C-148.1959087 443.57959742 -150.65117685 446.10287129 -153.12255859 448.61352539 C-154.1486986 449.66144589 -155.16851446 450.71559399 -156.18212891 451.77563477 C-157.66822509 453.32876033 -159.17321158 454.86115092 -160.68359375 456.390625 C-161.56595703 457.29804443 -162.44832031 458.20546387 -163.35742188 459.14038086 C-166.70727939 461.6548223 -169.00771565 462.04495923 -173.15234375 462.23828125 C-175.80050386 461.45099041 -176.78118904 460.71548016 -178.46484375 458.55078125 C-179.4838323 455.1232743 -178.94996955 452.70993549 -178.15234375 449.23828125 C-176.01928711 446.42407227 -176.01928711 446.42407227 -173.2421875 443.7421875 C-172.75528946 443.26377914 -172.26839142 442.78537079 -171.76673889 442.29246521 C-170.22137459 440.78045978 -168.65642753 439.29075829 -167.08984375 437.80078125 C-166.03313511 436.77419488 -164.97778084 435.74621244 -163.92382812 434.71679688 C-161.34880164 432.2076186 -158.75578382 429.71800478 -156.15234375 427.23828125 C-160.45861631 422.08998381 -164.97546306 417.28076053 -169.73828125 412.5546875 C-170.440065 411.8543187 -171.14184875 411.15394989 -171.86489868 410.43235779 C-174.08335511 408.21945098 -176.3052819 406.01006709 -178.52734375 403.80078125 C-180.04189841 402.29124811 -181.5562236 400.78148468 -183.0703125 399.27148438 C-186.76167474 395.59108423 -190.45588444 391.91356168 -194.15234375 388.23828125 C-201.18480162 393.99598295 -207.52415333 400.44606618 -213.9453125 406.86328125 C-215.18118748 408.09593775 -216.41713539 409.32852114 -217.65315247 410.56103516 C-220.2327017 413.13462255 -222.81020211 415.71024205 -225.38647461 418.28710938 C-228.67983333 421.58056999 -231.98003598 424.86707953 -235.28202343 428.15188599 C-237.83255485 430.69127926 -240.37850845 433.23522451 -242.92321205 435.78045654 C-244.13797865 436.99404735 -245.35435732 438.20602685 -246.57240868 439.4163208 C-248.27598385 441.11005182 -249.97305135 442.8100583 -251.66870117 444.51171875 C-252.16696411 445.00436218 -252.66522705 445.49700562 -253.17858887 446.00457764 C-259.95238577 452.83927065 -263.40406108 459.32758257 -263.58984375 468.98828125 C-263.45988343 476.68843042 -261.66823264 482.30482835 -256.5078125 488.078125 C-249.45258954 494.59186358 -243.03172921 495.83393561 -233.58203125 495.57421875 C-219.87169526 494.2312929 -210.89220804 482.11827195 -201.7980957 472.84814453 C-200.93704224 471.97391846 -200.93704224 471.97391846 -200.05859375 471.08203125 C-199.54619141 470.55802734 -199.03378906 470.03402344 -198.50585938 469.49414062 C-196.45265156 467.58907191 -195.14508217 467.23731304 -192.33984375 466.86328125 C-189.15234375 467.23828125 -189.15234375 467.23828125 -186.27734375 469.36328125 C-184.15234375 472.23828125 -184.15234375 472.23828125 -183.40234375 475.05078125 C-185.22305917 482.7888218 -194.00327046 489.32702829 -199.46484375 494.86328125 C-200.16029297 495.58773438 -200.85574219 496.3121875 -201.57226562 497.05859375 C-210.58089283 506.17456482 -221.09058138 512.51322192 -234.14111328 512.70654297 C-234.92856934 512.6963916 -235.71602539 512.68624023 -236.52734375 512.67578125 C-237.77233643 512.66442139 -237.77233643 512.66442139 -239.04248047 512.65283203 C-251.61961213 512.31636122 -261.75178622 507.10557044 -270.40234375 498.05078125 C-280.15329667 486.56762312 -281.28548383 473.66651993 -280.15234375 459.23828125 C-277.92499244 448.22880193 -270.91019261 439.5250842 -263.07714844 431.80664062 C-262.39673492 431.12418274 -261.71632141 430.44172485 -261.01528931 429.73858643 C-258.7921032 427.5124219 -256.55844295 425.29711284 -254.32421875 423.08203125 C-252.76758397 421.52845781 -251.21154254 419.97428965 -249.65606689 418.41955566 C-246.4093734 415.17744585 -243.15785523 411.94028617 -239.90234375 408.70703125 C-235.72340035 404.55651048 -231.55331461 400.39722999 -227.38633347 396.23470306 C-224.18019207 393.03270891 -220.97122955 389.83355575 -217.76120758 386.63545227 C-216.22170677 385.10165657 -214.6826786 383.56738631 -213.14412689 382.03263855 C-211.00201359 379.89737097 -208.85655212 377.76553032 -206.70996094 375.63476562 C-206.07202606 374.99794861 -205.43409119 374.36113159 -204.77682495 373.70501709 C-200.38175031 369.35298453 -200.38175031 369.35298453 -198.15234375 368.23828125 C-196.65465954 368.41290885 -195.15731207 368.59043002 -193.66015625 368.76953125 C-188.71630187 368.81934338 -186.5933809 367.43690514 -183.01953125 364.08203125 C-181.3292091 362.32568089 -179.66552525 360.54336212 -178.02734375 358.73828125 C-177.16625 357.83207031 -176.30515625 356.92585938 -175.41796875 355.9921875 C-173.30498267 353.7618133 -171.21885624 351.51163592 -169.15234375 349.23828125 C-172.58173532 342.95584491 -172.58173532 342.95584491 -176.2578125 336.81640625 C-207.15823292 287.4221132 -216.48531779 227.65039513 -203.90234375 170.92578125 C-197.73682255 144.81312433 -187.57211941 117.73576905 -171.15234375 96.23828125 C-168.06060623 94.69241249 -165.55804823 94.94468604 -162.15234375 95.23828125 C-159.71484375 96.73828125 -159.71484375 96.73828125 -158.15234375 99.23828125 C-157.56876772 105.48057769 -158.61956744 109.03095611 -162.15234375 114.23828125 C-162.98885981 115.55575686 -163.82076856 116.87616726 -164.6484375 118.19921875 C-165.0697998 118.86920898 -165.49116211 119.53919922 -165.92529297 120.22949219 C-179.95263893 143.19347997 -188.20980044 170.6025321 -191.15234375 197.23828125 C-191.31669922 198.53958984 -191.31669922 198.53958984 -191.484375 199.8671875 C-196.90604214 250.68628079 -181.8530764 303.93579959 -150.5234375 344.3125 C-117.13012533 385.5177567 -72.29201574 414.42067158 -19.15234375 422.23828125 C-18.38583496 422.35252441 -17.61932617 422.46676758 -16.82958984 422.58447266 C36.04247309 430.08997055 90.52364285 416.17375298 133.28491211 384.29394531 C138.6082167 380.22210109 143.64950013 375.86643495 148.57421875 371.32421875 C150.68659865 369.38605575 152.84763697 367.52804854 155.03515625 365.67578125 C159.04478284 362.16038299 162.45479321 358.34508652 165.84765625 354.23828125 C166.26499023 353.74924316 166.68232422 353.26020508 167.11230469 352.75634766 C198.27861073 316.19037462 215.34582288 269.40353652 215.22265625 221.42578125 C215.22211243 220.62213135 215.2215686 219.81848145 215.2210083 218.99047852 C215.15297787 196.97474122 211.79016771 176.14909072 204.84765625 155.23828125 C204.60789062 154.51463379 204.368125 153.79098633 204.12109375 153.04541016 C200.81682564 143.28465662 196.56007833 134.11029438 191.76757812 124.99707031 C190.96870218 123.4697077 190.19493913 121.92926065 189.42578125 120.38671875 C172.71141288 87.84286034 144.14208976 61.40405686 112.84765625 43.23828125 C112.19925781 42.85720215 111.55085938 42.47612305 110.8828125 42.08349609 C92.60051565 31.4625677 72.49969464 24.52933498 51.84765625 20.23828125 C51.13480469 20.07602051 50.42195313 19.91375977 49.6875 19.74658203 C0.15234562 8.69695851 -54.75560508 21.50789192 -97.41992188 47.62646484 C-106.96994103 53.71535965 -115.72659065 60.68803052 -124.15234375 68.23828125 C-125.01400146 69.00736816 -125.01400146 69.00736816 -125.89306641 69.79199219 C-127.65356352 71.37030226 -129.40515936 72.95775288 -131.15234375 74.55078125 C-131.94451294 75.26995728 -131.94451294 75.26995728 -132.75268555 76.00366211 C-135.32894973 78.38686118 -137.68359239 80.80890047 -139.90234375 83.53125 C-142.45422699 86.60148452 -143.09294778 87.09702845 -146.96484375 87.61328125 C-150.15234375 87.23828125 -150.15234375 87.23828125 -153.02734375 85.17578125 C-155.7274143 81.44333078 -155.71226441 79.77507426 -155.15234375 75.23828125 C-153.47860408 72.84076226 -152.01177538 71.06835375 -149.96484375 69.05078125 C-149.42311523 68.49398682 -148.88138672 67.93719238 -148.32324219 67.36352539 C-146.62070597 65.63235249 -144.89150367 63.9325946 -143.15234375 62.23828125 C-142.62882324 61.72040039 -142.10530273 61.20251953 -141.56591797 60.66894531 C-123.74353878 43.1455804 -102.71492633 29.80884517 -80.15234375 19.23828125 C-79.09789062 18.72910156 -78.0434375 18.21992188 -76.95703125 17.6953125 C-53.21806927 6.81738521 -26.16052714 0.25086351 0 0 Z M-161.03173828 363.890625 C-161.77536621 364.64472656 -162.51899414 365.39882813 -163.28515625 366.17578125 C-164.09082031 366.98789062 -164.89648438 367.8 -165.7265625 368.63671875 C-166.56832031 369.49523437 -167.41007812 370.35375 -168.27734375 371.23828125 C-169.12683594 372.09679687 -169.97632813 372.9553125 -170.8515625 373.83984375 C-172.95634326 375.96827374 -175.05633208 378.10122084 -177.15234375 380.23828125 C-175.53078351 384.33937011 -172.57557345 387.06976292 -169.48828125 390.09765625 C-168.93621002 390.64689758 -168.38413879 391.19613892 -167.81533813 391.76202393 C-166.0573256 393.50887418 -164.29247485 395.24862726 -162.52734375 396.98828125 C-161.33157295 398.17401716 -160.1362551 399.36021005 -158.94140625 400.546875 C-156.01694122 403.4493321 -153.08632501 406.34544535 -150.15234375 409.23828125 C-146.89368015 407.81182345 -144.74985835 406.07123963 -142.26171875 403.54296875 C-141.19824219 402.46982422 -141.19824219 402.46982422 -140.11328125 401.375 C-139.38367188 400.62863281 -138.6540625 399.88226563 -137.90234375 399.11328125 C-137.15726563 398.35917969 -136.4121875 397.60507812 -135.64453125 396.828125 C-133.80920955 394.96927353 -131.97872465 393.1059112 -130.15234375 391.23828125 C-131.80880972 387.68646706 -133.59589602 385.73860051 -136.58984375 383.17578125 C-140.52425696 379.72103525 -144.32479795 376.18705343 -148.02734375 372.48828125 C-148.91164062 371.6065625 -149.7959375 370.72484375 -150.70703125 369.81640625 C-153.15234375 367.23828125 -153.15234375 367.23828125 -155.34765625 364.41015625 C-155.94320312 363.6934375 -156.53875 362.97671875 -157.15234375 362.23828125 C-159.31908388 362.01818634 -159.31908388 362.01818634 -161.03173828 363.890625 Z " fill="#000000" transform="translate(280.15234375,-0.23828125)"/>
<path d="M0 0 C1.69464671 1.55474597 3.38199113 3.1174833 5.0625 4.6875 C5.92617188 5.48542969 6.78984375 6.28335938 7.6796875 7.10546875 C39.79145278 37.86760912 57.87325418 82.57981255 59.265625 126.73046875 C59.70747332 155.65475467 54.55718453 183.51472633 42.0625 209.6875 C41.71848145 210.41130859 41.37446289 211.13511719 41.02001953 211.88085938 C33.29276998 227.86131579 23.27048302 241.84035557 11.0625 254.6875 C9.84722745 256.09821844 8.63829395 257.51443719 7.4375 258.9375 C3.94974177 262.92581613 0.16301009 266.33944042 -3.9375 269.6875 C-5.27167969 270.79544922 -5.27167969 270.79544922 -6.6328125 271.92578125 C-13.21962102 277.2070203 -20.07705122 281.77273582 -27.3125 286.125 C-28.57852051 286.88719849 -28.57852051 286.88719849 -29.87011719 287.66479492 C-41.89410726 294.76609203 -41.89410726 294.76609203 -47.1875 294.5625 C-50.09352917 293.63785436 -51.27697874 293.22197982 -52.9375 290.6875 C-53.94188215 287.38738721 -54.27079829 285.51070663 -52.96484375 282.28515625 C-50.11382183 278.63211275 -46.70491388 277.07710078 -42.625 275 C-26.97648531 266.64921542 -14.42326439 256.24836673 -1.9375 243.6875 C-1.38876221 243.16236816 -0.84002441 242.63723633 -0.2746582 242.09619141 C3.99605585 237.96294041 7.55442465 233.63065155 10.9375 228.75 C11.45143311 228.01201172 11.96536621 227.27402344 12.49487305 226.51367188 C27.33478738 204.87971878 38.01175605 179.91597399 41.0625 153.6875 C41.22685547 152.46933594 41.22685547 152.46933594 41.39453125 151.2265625 C46.05729643 110.81593094 34.79817282 68.11217704 10.0625 35.75 C-18.08004966 0.72717401 -55.45855027 -21.912374 -100.5 -27.625 C-144.23070152 -32.37201439 -186.88898327 -19.2898825 -221.25 7.8125 C-222.81856518 9.09679447 -224.38142653 10.38809845 -225.9375 11.6875 C-227.00097656 12.56535156 -227.00097656 12.56535156 -228.0859375 13.4609375 C-232.86243264 17.50540274 -236.97272723 21.85126232 -240.9375 26.6875 C-241.34371582 27.17605469 -241.74993164 27.66460937 -242.16845703 28.16796875 C-271.04483076 63.05189518 -283.49059622 105.51287864 -279.68994141 150.62597656 C-279.08806708 156.05179898 -278.1385323 161.36439024 -276.9375 166.6875 C-276.6590625 167.94691406 -276.380625 169.20632813 -276.09375 170.50390625 C-275.16572552 174.27600575 -274.11153298 177.98632676 -272.9375 181.6875 C-272.7111084 182.40341309 -272.4847168 183.11932617 -272.25146484 183.85693359 C-259.16122767 224.19905726 -230.48026664 256.6623645 -193.2578125 276.55859375 C-182.08072762 282.24084254 -170.08727702 286.30951853 -158 289.5625 C-156.93881958 289.84915527 -156.93881958 289.84915527 -155.85620117 290.14160156 C-143.75516059 293.19351751 -131.63147145 294.06279861 -119.1875 294 C-118.14249832 293.99876129 -118.14249832 293.99876129 -117.0763855 293.99749756 C-104.19503264 293.96245328 -92.26396534 292.46239891 -79.75 289.4375 C-75.07057434 288.51695725 -71.25876451 288.4145485 -67 290.75 C-65.28476588 293.87777986 -65.10555299 297.27455202 -65.9375 300.6875 C-69.01500616 304.92883464 -72.84835971 305.78854245 -77.75 306.8125 C-78.41708984 306.96847656 -79.08417969 307.12445313 -79.77148438 307.28515625 C-92.67003996 310.1567758 -105.46472032 311.06925683 -118.625 311 C-119.36762085 310.99784485 -120.1102417 310.9956897 -120.87536621 310.99346924 C-132.77665815 310.93825541 -144.30337953 310.33958941 -155.9375 307.6875 C-156.80165527 307.49414062 -157.66581055 307.30078125 -158.55615234 307.1015625 C-183.96569637 301.22631378 -208.67666022 290.26706697 -228.9375 273.6875 C-229.46150391 273.26355957 -229.98550781 272.83961914 -230.52539062 272.40283203 C-267.73900681 242.19711806 -291.63116215 199.5449282 -296.76028442 151.68731689 C-297.2964577 145.63678566 -297.28225849 139.56866192 -297.25 133.5 C-297.24817719 132.78205261 -297.24635437 132.06410522 -297.24447632 131.32440186 C-297.19447623 119.5735658 -296.50458875 108.18229778 -293.9375 96.6875 C-293.76057617 95.8924707 -293.58365234 95.09744141 -293.40136719 94.27832031 C-284.85972222 57.14650619 -265.03814932 20.74624683 -234.9375 -3.3125 C-234.00808594 -4.06789062 -233.07867187 -4.82328125 -232.12109375 -5.6015625 C-163.80348653 -60.23204979 -65.50594067 -57.97533646 0 0 Z " fill="#000000" transform="translate(410.9375,87.3125)"/>
<path d="M0 0 C10.5822376 8.73795592 16.9946578 20.98926469 18.43359375 34.59375 C19.10484314 49.55554562 15.00741663 62.24328614 5.18359375 73.71875 C-4.01037897 83.20829883 -15.64498942 89.20761714 -28.93969727 89.51123047 C-44.3645891 89.63466573 -56.78027448 85.77027206 -68.19140625 74.96875 C-77.41807244 65.15626374 -82.29744237 53.11910544 -82.87890625 39.59375 C-81.94638073 23.83106056 -76.06809439 10.90628724 -64.44140625 0.21875 C-44.64619341 -14.46191024 -19.87362909 -14.49979978 0 0 Z M-59.69140625 18.78125 C-65.10637779 26.56990769 -67.4168243 35.85208952 -66.17578125 45.234375 C-64.05755887 53.8424702 -59.6719981 61.92290636 -52.44140625 67.21875 C-42.6472025 72.93701225 -33.75845792 74.81321068 -22.42578125 72.640625 C-13.34512886 69.78670568 -6.03972316 63.75582544 -1.44140625 55.40625 C2.85323895 45.5484345 3.57183044 36.12490912 -0.26171875 26.06640625 C-4.63777091 16.48689712 -11.7146158 10.26572963 -21.51171875 6.40234375 C-35.97697157 2.21503372 -50.13047367 7.45595579 -59.69140625 18.78125 Z " fill="#000000" transform="translate(397.44140625,180.78125)"/>
<path d="M0 0 C2.046875 1.5859375 2.046875 1.5859375 3.046875 3.5859375 C3.50210513 10.75581198 3.50210513 10.75581198 1.984375 13.5234375 C-1.01726349 15.16949732 -3.53941492 15.38758737 -6.953125 15.5859375 C-9.5984009 14.56983367 -11.77465 13.58812462 -14.203125 12.2109375 C-20.67590003 8.71509276 -25.52494874 6.71132965 -32.953125 7.5859375 C-36.73742189 8.82806216 -40.0074042 10.09253661 -42.1875 13.53515625 C-43.30438728 16.52681861 -42.7932855 18.54843416 -41.953125 21.5859375 C-39.55851271 24.67877248 -36.66211619 25.69290305 -33.0703125 27.07421875 C-31.31847656 27.76354492 -31.31847656 27.76354492 -29.53125 28.46679688 C-27.08683029 29.41181778 -24.64153349 30.35457348 -22.1953125 31.29492188 C-10.608709 35.86222885 -1.50281279 40.85146826 4.921875 51.7734375 C7.22940757 59.59340897 7.0999633 67.26466269 3.29296875 74.5625 C-1.5614319 82.44519448 -7.9781832 87.14248655 -16.79296875 90.23046875 C-29.61363848 92.34019921 -42.81655443 90.71284568 -53.890625 83.7109375 C-63.13915393 76.93208941 -63.13915393 76.93208941 -65.015625 71.5234375 C-64.94052355 67.99366952 -64.09256961 66.35929163 -61.953125 63.5859375 C-58.67867956 61.94871478 -56.60190824 62.12259995 -52.953125 62.5859375 C-50.60578395 64.16821924 -48.50287759 65.95064945 -46.328125 67.76171875 C-39.81013054 72.76813883 -32.91731635 74.27588158 -24.79296875 73.97265625 C-19.35275662 73.23182956 -15.49392219 71.41563416 -11.953125 67.2109375 C-10.7359074 64.0157413 -10.45822519 61.97953616 -10.953125 58.5859375 C-15.76951386 49.60994007 -30.15710608 46.38873814 -39.09375 42.89257812 C-48.60332599 39.0953516 -54.90428083 35.26435806 -59.265625 25.7109375 C-60.89109845 18.32242183 -60.36182095 11.40332941 -56.953125 4.5859375 C-53.00456027 -1.30557178 -48.55003581 -4.90221269 -41.953125 -7.4140625 C-40.90125 -7.8265625 -39.849375 -8.2390625 -38.765625 -8.6640625 C-24.35469304 -11.49899993 -12.07791585 -7.99376511 0 0 Z " fill="#000000" transform="translate(238.953125,179.4140625)"/>
<path d="M0 0 C0.8037355 -0.00570007 1.60747101 -0.01140015 2.43556213 -0.01727295 C4.13256522 -0.02670172 5.82958644 -0.03324848 7.52661133 -0.03710938 C10.11637329 -0.04682797 12.70534554 -0.07787583 15.29492188 -0.109375 C16.94660989 -0.11590448 18.59830355 -0.12115517 20.25 -0.125 C21.02097519 -0.1373468 21.79195038 -0.1496936 22.58628845 -0.16241455 C27.14337482 -0.14361503 30.09275047 0.3429665 33.69140625 3.203125 C35.69140625 6.203125 35.69140625 6.203125 35.50390625 9.703125 C34.43214283 14.31995206 34.43214283 14.31995206 31.69140625 16.203125 C28.50512695 16.54370117 28.50512695 16.54370117 24.6171875 16.49609375 C23.93335495 16.49184891 23.2495224 16.48760406 22.54496765 16.48323059 C20.36421064 16.46645853 18.18438316 16.42881157 16.00390625 16.390625 C14.5241019 16.37557614 13.04428305 16.36188808 11.56445312 16.34960938 C7.93945934 16.31911307 4.3164712 16.26039636 0.69140625 16.203125 C0.69140625 24.783125 0.69140625 33.363125 0.69140625 42.203125 C3.52798828 42.13351563 3.52798828 42.13351563 6.421875 42.0625 C8.90753629 42.02498058 11.39321466 41.98858061 13.87890625 41.953125 C15.12478516 41.91960937 16.37066406 41.88609375 17.65429688 41.8515625 C18.85634766 41.83867187 20.05839844 41.82578125 21.296875 41.8125 C22.40184326 41.79155273 23.50681152 41.77060547 24.64526367 41.74902344 C28.38273007 42.30618361 30.02216286 43.58261266 32.69140625 46.203125 C33.3203125 48.203125 33.3203125 48.203125 33.25390625 50.203125 C33.25583984 51.193125 33.25583984 51.193125 33.2578125 52.203125 C32.4262723 55.13932213 31.06278003 56.30407322 28.69140625 58.203125 C25.66699219 58.65722656 25.66699219 58.65722656 22.17578125 58.59375 C20.92539062 58.58085937 19.675 58.56796875 18.38671875 58.5546875 C16.43378906 58.50441406 16.43378906 58.50441406 14.44140625 58.453125 C13.12398438 58.43507812 11.8065625 58.41703125 10.44921875 58.3984375 C7.19630469 58.35129382 3.94376408 58.27955116 0.69140625 58.203125 C0.69140625 66.783125 0.69140625 75.363125 0.69140625 84.203125 C3.85283203 84.11611328 3.85283203 84.11611328 7.078125 84.02734375 C9.13008872 83.98829758 11.18201032 83.95796824 13.23413086 83.9284668 C14.65521916 83.90339353 16.07617938 83.86932501 17.49682617 83.82592773 C19.54508087 83.76494642 21.59162508 83.73684738 23.640625 83.71484375 C24.87127686 83.68865967 26.10192871 83.66247559 27.36987305 83.63549805 C31.61519184 84.36099354 33.05754581 85.86812754 35.69140625 89.203125 C36.31640625 92.203125 36.31640625 92.203125 35.69140625 95.203125 C33.6841701 97.91654605 32.08020765 99.88211607 28.68969727 100.665802 C26.24952734 100.8484441 23.85690942 100.86995748 21.41015625 100.83203125 C20.51905151 100.83444321 19.62794678 100.83685516 18.70983887 100.83934021 C16.83043964 100.83836303 14.95101118 100.82500011 13.07177734 100.80004883 C10.20049945 100.76573367 7.33229987 100.77939711 4.4609375 100.79882812 C2.63149736 100.79192938 0.80206514 100.78225673 -1.02734375 100.76953125 C-2.31034363 100.77697105 -2.31034363 100.77697105 -3.6192627 100.78456116 C-4.42359741 100.76872482 -5.22793213 100.75288849 -6.05664062 100.73657227 C-7.1099054 100.7272744 -7.1099054 100.7272744 -8.18444824 100.7177887 C-11.4952639 99.91560419 -13.01979285 98.73409217 -15.30859375 96.203125 C-15.80125589 93.10441468 -15.97330956 90.55642077 -15.92382812 87.45898438 C-15.92937714 86.57725052 -15.93492615 85.69551666 -15.94064331 84.7870636 C-15.95245202 81.87311419 -15.92815223 78.9607156 -15.90234375 76.046875 C-15.90063291 74.02193269 -15.90069805 71.99698816 -15.90246582 69.9720459 C-15.90081188 65.72838144 -15.88210001 61.4852448 -15.85058594 57.24169922 C-15.81090826 51.80066864 -15.80654024 46.36032961 -15.81404877 40.91918182 C-15.81711754 36.73787088 -15.8050012 32.55671556 -15.78791809 28.3754425 C-15.78088411 26.36917599 -15.77776404 24.36289183 -15.77861023 22.35661316 C-15.77681355 19.55317272 -15.75544285 16.7505626 -15.72851562 13.94726562 C-15.73144623 13.1170137 -15.73437683 12.28676178 -15.73739624 11.43135071 C-15.68892101 8.16228352 -15.53997298 5.65346798 -14.03234863 2.71911621 C-10.11176683 -0.72891902 -4.95959149 0.02726737 0 0 Z " fill="#000000" transform="translate(273.30859375,169.796875)"/>
</svg>
