<svg width="462" height="513" viewBox="0 0 462 513" fill="none" xmlns="http://www.w3.org/2000/svg">
<path d="M429.403 297.109L419.803 291.562C424.042 268.574 424.042 245.004 419.803 222.016L429.403 216.469C444.097 207.968 454.833 194.002 459.269 177.616C463.705 161.23 461.481 143.755 453.083 129.002C444.549 114.282 430.683 103.616 414.256 99.1357C397.829 94.6557 380.549 97.0024 365.616 105.536L356.016 111.082C338.029 95.6792 317.341 83.7442 295.003 75.8824V64.7891C295.003 29.5891 266.203 0.789062 231.003 0.789062C195.803 0.789062 167.003 29.5891 167.003 64.7891V75.8824C144.603 83.7757 123.909 95.7224 105.989 111.082L96.3895 105.536C81.6695 97.0024 64.3895 94.8691 47.7495 99.1357C31.3228 103.616 17.4562 114.282 8.92282 129.002C0.51792 143.732 -1.73192 161.184 2.66256 177.563C7.05704 193.943 17.7405 207.925 32.3895 216.469L41.9895 222.016C37.7502 245.004 37.7502 268.574 41.9895 291.562L32.3895 297.109C17.6956 305.61 6.95966 319.576 2.52352 335.962C-1.91262 352.348 0.311057 369.823 8.70949 384.576C17.2428 399.296 31.1095 409.962 47.5362 414.442C63.9628 418.922 81.2428 416.576 96.1762 408.042L105.776 402.496C123.696 417.856 144.389 429.802 166.789 437.696V448.789C166.789 483.989 195.589 512.789 230.789 512.789C265.989 512.789 294.789 483.989 294.789 448.789V437.696C317.189 429.802 337.883 417.856 355.803 402.496L365.403 408.042C380.123 416.576 397.403 418.922 414.043 414.442C430.469 409.962 444.336 399.296 452.869 384.576C470.363 354.069 459.909 314.816 429.403 297.109ZM374.789 217.322C378.416 230.549 380.336 243.989 380.336 257.002C380.336 270.016 378.416 283.242 374.789 296.682C372.229 306.069 376.283 315.882 384.816 320.789L408.069 334.229C418.309 340.202 421.723 353.216 415.963 363.456C413.189 368.362 408.496 371.989 402.949 373.482C397.403 374.976 391.643 374.336 386.736 371.349L363.483 357.909C359.399 355.524 354.63 354.584 349.947 355.242C345.263 355.9 340.938 358.117 337.669 361.536C318.683 380.949 294.789 394.816 268.336 401.642C258.949 403.989 252.336 412.522 252.336 422.336V449.216C252.336 460.949 242.736 470.549 231.003 470.549C219.269 470.549 209.669 460.949 209.669 449.216V422.336C209.669 412.522 203.056 404.202 193.669 401.642C167.329 394.858 143.35 380.987 124.336 361.536C120.283 357.269 114.736 355.136 108.976 355.136C105.349 355.136 101.723 355.989 98.3095 357.909L75.0562 371.349C70.1495 374.122 64.3895 374.976 58.8428 373.482C53.2962 371.989 48.8162 368.362 45.8295 363.456C43.0379 358.525 42.3011 352.693 43.7784 347.223C45.2558 341.752 48.8285 337.084 53.7228 334.229L76.9762 320.789C85.5095 315.882 89.5628 306.069 87.0028 296.682C83.3762 283.456 81.4561 270.016 81.4561 257.002C81.4561 243.989 83.3762 230.762 87.0028 217.322C89.5628 207.936 85.5095 198.122 76.9762 193.216L53.7228 179.776C48.8285 176.921 45.2558 172.252 43.7784 166.782C42.3011 161.312 43.0379 155.48 45.8295 150.549C47.219 148.1 49.0805 145.952 51.3061 144.227C53.5317 142.503 56.0773 141.237 58.7954 140.502C61.5135 139.768 64.3503 139.581 67.1415 139.95C69.9326 140.32 72.6228 141.239 75.0562 142.656L98.3095 156.096C106.843 161.002 117.296 159.509 124.123 152.469C143.109 133.056 167.003 119.189 193.456 112.362C202.843 110.016 209.456 101.482 209.456 91.6691V64.7891C209.456 53.0557 219.056 43.4557 230.789 43.4557C242.523 43.4557 252.123 53.0557 252.123 64.7891V91.6691C252.123 101.482 258.736 109.802 268.123 112.362C294.576 119.189 318.469 133.056 337.456 152.469C344.283 159.509 354.95 161.002 363.27 156.096L386.523 142.656C391.43 139.882 397.189 139.029 402.736 140.522C408.283 142.016 412.763 145.642 415.749 150.549C421.509 160.789 418.096 173.802 407.856 179.776L384.603 193.216C376.07 198.122 372.016 207.936 374.576 217.322H374.789ZM268.976 175.936L234.843 346.602C232.923 356.842 223.963 363.669 213.936 363.669C212.656 363.669 211.163 363.669 209.669 363.242C206.92 362.69 204.306 361.6 201.98 360.034C199.653 358.468 197.659 356.457 196.112 354.118C194.566 351.778 193.497 349.156 192.968 346.401C192.439 343.647 192.46 340.815 193.029 338.069L227.163 167.402C229.509 155.882 240.603 148.416 252.336 150.762C263.856 153.109 271.323 164.202 268.976 175.936ZM171.483 232.469L145.669 258.282L171.483 283.669C174.46 286.648 176.484 290.445 177.299 294.577C178.114 298.709 177.682 302.99 176.059 306.877C174.436 310.763 171.695 314.079 168.183 316.405C164.671 318.73 160.548 319.959 156.336 319.936C150.789 319.936 145.456 317.802 141.189 313.749L115.376 287.936C111.422 284.01 108.284 279.34 106.143 274.196C104.001 269.052 102.899 263.535 102.899 257.962C102.899 252.39 104.001 246.873 106.143 241.729C108.284 236.585 111.422 231.915 115.376 227.989L141.189 202.176C143.165 200.201 145.509 198.634 148.09 197.565C150.67 196.496 153.436 195.946 156.229 195.946C159.023 195.946 161.789 196.496 164.369 197.565C166.95 198.634 169.294 200.201 171.269 202.176C173.245 204.151 174.811 206.496 175.88 209.076C176.949 211.657 177.499 214.423 177.499 217.216C177.499 220.009 176.949 222.775 175.88 225.355C174.811 227.936 173.245 230.281 171.269 232.256L171.483 232.469ZM346.629 228.202C363.269 244.842 363.269 271.722 346.629 288.149L320.816 313.962C316.549 318.229 311.216 320.149 305.669 320.149C300.123 320.149 294.789 318.016 290.523 313.962C288.545 311.989 286.976 309.644 285.906 307.064C284.835 304.483 284.284 301.716 284.284 298.922C284.284 296.128 284.835 293.362 285.906 290.781C286.976 288.2 288.545 285.856 290.523 283.882L316.336 258.069L290.523 232.469C288.548 230.494 286.981 228.149 285.912 225.569C284.843 222.988 284.293 220.222 284.293 217.429C284.293 214.636 284.843 211.87 285.912 209.289C286.981 206.709 288.548 204.364 290.523 202.389C292.498 200.414 294.843 198.847 297.423 197.778C300.004 196.709 302.77 196.159 305.563 196.159C308.356 196.159 311.122 196.709 313.702 197.778C316.283 198.847 318.628 200.414 320.603 202.389L346.416 228.202H346.629Z" fill="#024D81"/>
</svg>
