<svg width="512" height="512" viewBox="0 0 512 512" fill="none" xmlns="http://www.w3.org/2000/svg">
<path d="M306.999 55.0001C311.392 58.275 315.206 62.0613 318.999 66.0001C319.675 66.6562 320.35 67.3124 321.046 67.9884C331.383 78.6687 336.512 94.7037 337.437 109.313C337.609 112.985 337.609 112.985 339.815 114.708C344.67 116.678 349.324 116.397 354.516 116.353C356.263 116.356 356.263 116.356 358.045 116.36C360.574 116.363 363.102 116.359 365.631 116.35C369.637 116.336 373.644 116.342 377.65 116.354C388.323 116.385 398.997 116.383 409.671 116.364C416.683 116.352 423.696 116.354 430.709 116.383C434.035 116.395 437.36 116.395 440.686 116.378C444.403 116.359 448.119 116.37 451.836 116.388C452.924 116.375 454.011 116.362 455.132 116.348C462.338 116.425 468.044 117.786 473.999 122C481.822 130.712 482.301 140.49 482.24 151.75C482.242 153.483 482.242 153.483 482.245 155.251C482.248 158.434 482.241 161.618 482.231 164.801C482.223 168.243 482.226 171.684 482.227 175.126C482.228 181.081 482.222 187.036 482.211 192.992C482.194 201.602 482.189 210.212 482.187 218.822C482.182 232.793 482.169 246.764 482.15 260.735C482.132 274.303 482.118 287.871 482.109 301.438C482.109 302.275 482.108 303.112 482.108 303.975C482.105 308.174 482.102 312.373 482.1 316.572C482.079 351.381 482.044 386.191 481.999 421C482.747 420.965 483.495 420.93 484.265 420.895C485.25 420.868 486.235 420.84 487.249 420.813C488.224 420.778 489.198 420.743 490.202 420.707C493.427 421.045 494.707 421.745 496.999 424C499.828 432.487 499.201 446.622 495.999 455C493.053 460.8 489.034 464.208 483.214 466.974C476.329 469.171 469.012 468.684 461.856 468.635C460.007 468.641 458.157 468.649 456.308 468.659C451.242 468.679 446.176 468.669 441.11 468.654C435.64 468.642 430.17 468.66 424.701 468.674C413.992 468.696 403.283 468.691 392.574 468.677C383.87 468.665 375.166 468.664 366.462 468.669C364.604 468.67 364.604 468.67 362.707 468.671C360.19 468.673 357.673 468.675 355.156 468.676C332.227 468.69 309.299 468.676 286.371 468.65C265.451 468.626 244.531 468.628 223.611 468.652C200.094 468.679 176.577 468.689 153.06 468.674C150.552 468.672 148.044 468.671 145.536 468.669C144.302 468.668 143.068 468.668 141.797 468.667C133.104 468.663 124.411 468.67 115.719 468.682C105.124 468.696 94.5297 468.692 83.9351 468.665C78.5303 468.652 73.1258 468.647 67.7209 468.663C62.7713 468.678 57.8223 468.67 52.8728 468.644C51.0842 468.638 49.2956 468.641 47.5071 468.653C29.421 468.766 29.421 468.766 21.9993 463C14.6902 455.105 14.7647 448.457 14.6868 438C14.6578 436.703 14.6288 435.406 14.5989 434.07C14.5905 432.83 14.5821 431.59 14.5735 430.313C14.5589 429.174 14.5443 428.036 14.5293 426.863C14.9993 424 14.9993 424 16.6693 422.333C19.5696 420.674 21.4324 420.694 24.7493 420.813C25.7341 420.84 26.719 420.867 27.7336 420.895C28.8551 420.947 28.8551 420.947 29.9993 421C29.9985 420.406 29.9978 419.813 29.997 419.201C29.9522 384.012 29.9179 348.823 29.8971 313.633C29.8946 309.408 29.892 305.182 29.8894 300.956C29.8889 300.115 29.8884 299.274 29.8878 298.407C29.8791 284.787 29.8634 271.168 29.845 257.548C29.8263 243.572 29.8152 229.596 29.8111 215.62C29.8084 206.997 29.7997 198.374 29.7834 189.751C29.7729 183.836 29.7697 177.922 29.7723 172.008C29.7736 168.597 29.7716 165.185 29.7609 161.774C29.7509 158.072 29.7533 154.37 29.7588 150.668C29.7529 149.594 29.7471 148.52 29.7411 147.414C29.7804 137.565 31.2983 129.563 37.9993 122C45.0276 117.006 51.7543 116.285 60.1626 116.388C61.923 116.38 61.923 116.38 63.719 116.371C67.5693 116.358 71.4186 116.378 75.2688 116.399C77.9554 116.393 80.6419 116.385 83.3285 116.374C90.3809 116.35 97.4331 116.356 104.485 116.368C115.118 116.387 125.75 116.382 136.383 116.348C141.002 116.335 145.621 116.347 150.241 116.364C152.655 116.361 155.069 116.358 157.483 116.353C158.581 116.362 159.678 116.372 160.809 116.381C167.953 116.469 167.953 116.469 173.999 113C175.033 110.14 175.033 110.14 175.437 106.875C177.158 98.3264 180.261 92.6479 187.437 87.5626C193.525 83.8812 198.887 82.7098 205.999 83.0001C206.245 82.1313 206.492 81.2624 206.745 80.3673C212.268 65.538 226.365 55.7128 239.999 49.0001C262.136 40.1507 286.863 42.0317 306.999 55.0001ZM223.999 77.0001C220.331 81.9824 217.411 87.4216 214.445 92.8399C212.999 95.0001 212.999 95.0001 210.374 95.7501C208.523 95.8872 206.672 96.0194 204.82 96.129C199.514 96.5488 196.088 97.2915 191.999 101C187.986 106.301 187.647 111.083 188.152 117.582C187.999 120 187.999 120 186.866 121.652C184.443 123.401 181.914 124.529 179.187 125.75C173.763 128.413 170.201 130.869 166.999 136C166.589 136.645 166.179 137.289 165.757 137.953C162.18 144.614 161.942 151.614 162.999 159C165.813 167.541 170.11 173.864 178.067 178.101C185.347 181.335 191.939 181.568 199.827 181.518C201.192 181.523 202.556 181.53 203.921 181.539C207.599 181.557 211.276 181.55 214.954 181.537C218.82 181.527 222.685 181.537 226.551 181.543C233.04 181.55 239.529 181.541 246.019 181.522C253.5 181.5 260.981 181.507 268.462 181.529C274.908 181.547 281.354 181.55 287.8 181.539C291.64 181.533 295.48 181.532 299.32 181.545C302.932 181.557 306.543 181.549 310.155 181.526C312.097 181.518 314.039 181.53 315.982 181.542C325.493 181.451 334.28 179.697 341.394 172.938C347.471 165.604 350.033 157.959 349.581 148.469C348.243 140.492 344.523 133.181 338.007 128.242C334.795 126.255 331.46 124.578 328.038 122.981C325.999 122 325.999 122 324.999 121C324.832 119.593 324.723 118.18 324.64 116.766C323.557 101.137 320.91 89.594 310.999 77.0001C310.373 76.1648 309.746 75.3295 309.101 74.4688C300.904 64.8396 287.438 58.0906 274.882 56.7789C254.903 55.7098 237.623 61.9129 223.999 77.0001ZM44.9993 134C42.4198 139.663 42.7258 145.295 42.7588 151.389C42.757 152.539 42.7553 153.689 42.7536 154.874C42.7508 158.063 42.7571 161.252 42.7671 164.441C42.7759 167.933 42.7729 171.426 42.7715 174.919C42.7704 181.697 42.7796 188.475 42.7925 195.253C42.8069 203.094 42.8085 210.935 42.8101 218.776C42.8206 239.476 42.8485 260.175 42.8743 280.875C42.9155 327.116 42.9568 373.358 42.9993 421C183.579 421 324.159 421 468.999 421C469.061 374.779 469.123 328.559 469.187 280.938C469.214 266.331 469.241 251.725 469.27 236.676C469.28 223.608 469.28 223.608 469.286 210.541C469.288 204.71 469.299 198.88 469.316 193.049C469.335 186.326 469.344 179.603 469.34 172.879C469.338 169.439 469.341 166 469.357 162.56C469.372 158.877 469.368 155.193 469.36 151.51C469.369 150.437 469.378 149.364 469.387 148.259C469.346 141.566 469.055 136.067 464.091 131.085C461.701 129.845 460.215 129.63 457.532 129.639C456.643 129.635 455.754 129.631 454.838 129.627C453.871 129.638 452.903 129.648 451.906 129.66C450.882 129.659 449.857 129.659 448.801 129.658C445.414 129.66 442.027 129.684 438.64 129.707C436.291 129.713 433.943 129.717 431.595 129.72C425.413 129.731 419.232 129.761 413.051 129.794C406.743 129.825 400.436 129.838 394.128 129.854C381.752 129.886 369.376 129.937 356.999 130C357.193 130.569 357.386 131.137 357.585 131.723C359.181 136.454 360.668 141.188 361.999 146C363.097 146.006 364.195 146.012 365.327 146.018C375.657 146.075 385.987 146.148 396.317 146.236C401.628 146.281 406.939 146.32 412.251 146.347C417.373 146.372 422.495 146.413 427.617 146.463C429.575 146.48 431.533 146.491 433.491 146.498C436.225 146.507 438.959 146.535 441.694 146.568C442.51 146.566 443.325 146.565 444.166 146.563C446.418 146.601 446.418 146.601 449.999 147C452.071 150.107 452.249 150.762 452.251 154.281C452.256 155.159 452.261 156.038 452.267 156.943C452.262 157.909 452.258 158.874 452.253 159.87C452.256 160.895 452.259 161.92 452.263 162.977C452.271 166.429 452.264 169.882 452.258 173.334C452.261 175.803 452.264 178.271 452.269 180.739C452.277 186.758 452.276 192.776 452.27 198.795C452.265 203.685 452.265 208.575 452.267 213.466C452.267 214.161 452.268 214.856 452.268 215.573C452.268 216.985 452.269 218.398 452.27 219.81C452.275 233.063 452.269 246.315 452.258 259.568C452.249 270.945 452.251 282.322 452.26 293.7C452.271 306.904 452.275 320.108 452.269 333.313C452.268 334.72 452.268 336.127 452.267 337.535C452.267 338.227 452.266 338.92 452.266 339.633C452.264 344.519 452.267 349.405 452.272 354.29C452.278 360.863 452.274 367.436 452.262 374.009C452.259 376.426 452.26 378.844 452.265 381.262C452.27 384.551 452.263 387.841 452.253 391.131C452.258 392.096 452.262 393.062 452.267 394.057C452.262 394.936 452.256 395.814 452.251 396.719C452.251 397.479 452.25 398.239 452.25 399.022C451.999 401 451.999 401 449.999 404C447.263 404.373 447.263 404.373 443.694 404.369C443.036 404.373 442.379 404.376 441.702 404.38C439.477 404.388 437.253 404.374 435.029 404.361C433.427 404.362 431.824 404.365 430.222 404.369C425.803 404.375 421.384 404.363 416.964 404.348C412.205 404.335 407.446 404.34 402.686 404.342C394.435 404.344 386.183 404.334 377.932 404.317C366.001 404.293 354.071 404.285 342.141 404.281C322.786 404.275 303.431 404.255 284.077 404.226C265.272 404.199 246.466 404.178 227.661 404.165C226.502 404.164 225.344 404.163 224.15 404.163C218.339 404.159 212.528 404.155 206.717 404.151C158.478 404.12 110.238 404.067 61.9993 404C60.328 401.07 59.749 398.976 59.7476 395.612C59.7424 394.735 59.7372 393.858 59.7318 392.954C59.7362 391.995 59.7407 391.036 59.7453 390.048C59.7422 389.026 59.7391 388.004 59.7358 386.951C59.7278 383.515 59.7342 380.08 59.7405 376.644C59.7378 374.186 59.7342 371.727 59.7299 369.268C59.7217 363.277 59.7229 357.286 59.7287 351.295C59.7332 346.428 59.7338 341.56 59.7316 336.692C59.7313 335.999 59.731 335.307 59.7307 334.594C59.7301 333.187 59.7294 331.78 59.7288 330.374C59.7231 317.181 59.7296 303.988 59.7404 290.795C59.7493 279.47 59.7477 268.144 59.7385 256.818C59.7278 243.671 59.7236 230.525 59.7298 217.378C59.7304 215.977 59.731 214.576 59.7316 213.174C59.732 212.485 59.7323 211.796 59.7326 211.085C59.7343 206.222 59.7314 201.358 59.7267 196.494C59.7205 189.952 59.7249 183.409 59.7365 176.867C59.7391 174.46 59.7383 172.054 59.7339 169.648C59.7285 166.373 59.7353 163.099 59.7453 159.825C59.7408 158.864 59.7364 157.902 59.7318 156.912C59.737 156.038 59.7422 155.163 59.7476 154.262C59.7479 153.506 59.7482 152.75 59.7486 151.971C59.9993 150 59.9993 150 61.9993 147C64.8373 146.684 67.4618 146.563 70.3044 146.568C71.163 146.558 72.0217 146.547 72.9063 146.537C75.7524 146.507 78.5983 146.497 81.4446 146.488C83.4147 146.472 85.3848 146.453 87.3549 146.434C92.5466 146.386 97.7382 146.357 102.93 146.331C108.225 146.301 113.52 146.254 118.816 146.209C129.21 146.123 139.605 146.056 149.999 146C150.647 144.084 151.292 142.167 151.937 140.25C152.296 139.183 152.656 138.115 153.027 137.016C153.78 134.68 154.422 132.381 154.999 130C141.395 129.907 127.792 129.836 114.187 129.793C107.871 129.772 101.554 129.744 95.2373 129.698C89.1424 129.655 83.0478 129.631 76.9528 129.621C74.6263 129.613 72.2999 129.599 69.9735 129.577C66.7173 129.548 63.4619 129.544 60.2056 129.546C59.2417 129.532 58.2779 129.517 57.2848 129.502C51.9871 129.535 48.6292 129.713 44.9993 134ZM71.9993 158C71.9993 235.22 71.9993 312.44 71.9993 392C193.439 392 314.879 392 439.999 392C439.999 314.78 439.999 237.56 439.999 158C414.259 158 388.519 158 361.999 158C360.679 161.96 359.359 165.92 357.999 170C353.092 180.538 345.376 187.132 334.558 191.176C327.48 193.436 320.629 193.664 313.249 193.75C308.877 193.833 304.504 193.915 299.999 194C299.999 206.21 299.999 218.42 299.999 231C303.629 231 307.259 231 310.999 231C313.777 227.631 313.777 227.631 314.96 225.039C317.271 220.505 321.386 218.589 325.999 217C333.065 216.092 339.188 216.695 344.999 221C348.884 224.707 351.763 228.622 352.3 234.024C352.327 241.871 351.928 246.597 346.687 252.688C340.658 257.876 335.87 258.489 328.062 258.285C321.706 257.693 318.071 254.733 313.999 250C312.969 248.015 311.965 246.017 310.999 244C310.409 243.98 309.819 243.96 309.211 243.94C306.536 243.845 303.861 243.735 301.187 243.625C300.258 243.594 299.329 243.563 298.372 243.531C297.48 243.493 296.587 243.454 295.667 243.414C294.434 243.367 294.434 243.367 293.176 243.319C290.999 243 290.999 243 287.999 241C287.601 238.975 287.601 238.975 287.567 236.459C287.547 235.518 287.527 234.577 287.507 233.608C287.497 232.081 287.497 232.081 287.488 230.524C287.47 229.483 287.452 228.443 287.433 227.371C287.379 224.039 287.345 220.707 287.312 217.375C287.279 215.12 287.244 212.865 287.208 210.609C287.121 205.073 287.061 199.537 286.999 194C278.749 194 270.499 194 261.999 194C261.999 201.59 261.999 209.18 261.999 217C264.639 218.32 267.279 219.64 269.999 221C274.656 225.531 276.692 231.136 277.374 237.5C276.61 244.638 274.133 249.983 268.999 255C263.014 258.665 256.895 258.816 249.999 258C244.075 256.275 240.381 253.072 236.999 248C234.046 240.264 234.388 233.902 237.589 226.375C240.429 221.592 244.796 218.735 249.999 217C249.999 209.41 249.999 201.82 249.999 194C241.749 194 233.499 194 224.999 194C224.962 197.37 224.925 200.739 224.886 204.211C224.84 207.464 224.789 210.718 224.737 213.971C224.704 216.237 224.675 218.503 224.653 220.769C224.619 224.021 224.567 227.272 224.511 230.524C224.505 231.541 224.498 232.559 224.492 233.608C224.462 235.019 224.462 235.019 224.432 236.459C224.415 237.704 224.415 237.704 224.398 238.975C224.201 239.978 224.201 239.978 223.999 241C220.798 243.134 220.145 243.217 216.507 243.098C207.044 242.459 207.044 242.459 198.816 245.922C197.642 248.285 197.642 248.285 196.866 250.77C195.389 254.57 192.59 255.374 188.999 257C188.009 257.495 188.009 257.495 186.999 258C179.442 258.653 172.133 258.988 165.999 254C160.47 247.903 159.588 242.429 159.652 234.305C160.292 228.215 163.178 224.73 167.499 220.625C173.49 216.731 178.994 216.214 185.999 217C191.96 218.769 195.461 222.005 198.999 227C199.659 228.32 200.319 229.64 200.999 231C204.629 231 208.259 231 211.999 231C211.999 218.79 211.999 206.58 211.999 194C203.325 193.83 203.325 193.83 194.651 193.702C181.571 193.34 170.676 190.082 160.999 181C155.02 173.765 153.066 167.201 149.999 158C124.259 158 98.5193 158 71.9993 158ZM171.999 234C171.166 237.5 171.166 237.5 171.999 241C174.591 244.692 176.041 245.829 180.499 246.625C184.958 245.829 186.407 244.692 188.999 241C189.833 237.5 189.833 237.5 188.999 234C186.407 230.308 184.958 229.171 180.499 228.375C176.041 229.171 174.591 230.308 171.999 234ZM247.999 233C246.763 236.633 246.655 238.242 248.249 241.75C250.535 244.688 252.157 245.89 255.874 246.375C259.815 245.902 261.321 244.908 263.999 242C265.236 238.367 265.344 236.758 263.749 233.25C261.464 230.312 259.842 229.11 256.124 228.625C252.183 229.098 250.677 230.092 247.999 233ZM322.999 234C322.166 237.5 322.166 237.5 322.999 241C325.591 244.692 327.041 245.829 331.499 246.625C335.958 245.829 337.407 244.692 339.999 241C340.833 237.5 340.833 237.5 339.999 234C337.407 230.308 335.958 229.171 331.499 228.375C327.041 229.171 325.591 230.308 322.999 234ZM26.9993 434C26.4684 444.943 26.4684 444.943 31.6454 453.664C34.8695 455.494 37.8039 455.415 41.4116 455.38C42.5407 455.387 42.5407 455.387 43.6927 455.395C46.2295 455.407 48.7658 455.397 51.3026 455.388C53.1339 455.392 54.9652 455.397 56.7965 455.404C61.8402 455.419 66.8837 455.414 71.9273 455.407C77.3623 455.402 82.7973 455.415 88.2323 455.425C98.8842 455.442 109.536 455.443 120.188 455.438C128.843 455.434 137.498 455.435 146.153 455.44C147.998 455.442 147.998 455.442 149.881 455.443C152.38 455.444 154.879 455.446 157.378 455.447C180.162 455.461 202.946 455.456 225.729 455.445C246.535 455.435 267.339 455.443 288.145 455.467C311.51 455.493 334.875 455.506 358.241 455.498C370.616 455.495 382.991 455.497 395.366 455.515C405.9 455.529 416.435 455.53 426.969 455.513C432.347 455.504 437.725 455.502 443.102 455.517C448.022 455.531 452.941 455.526 457.86 455.507C459.643 455.503 461.426 455.506 463.21 455.517C465.627 455.53 468.044 455.518 470.461 455.501C471.159 455.51 471.857 455.52 472.576 455.53C477.301 455.459 479.686 454.341 482.999 451C485.954 445.231 484.999 441 484.999 434C333.859 434 182.719 434 26.9993 434Z" fill="white"/>
<path d="M261 275C263.51 277.036 263.51 277.036 266.008 279.57C266.469 280.032 266.93 280.494 267.405 280.97C268.916 282.489 270.413 284.022 271.91 285.555C272.965 286.619 274.02 287.683 275.077 288.746C277.85 291.54 280.612 294.346 283.371 297.155C287.787 301.646 292.222 306.119 296.654 310.593C298.196 312.152 299.733 313.716 301.269 315.28C302.22 316.244 303.17 317.207 304.121 318.171C304.945 319.009 305.768 319.847 306.617 320.71C308.989 323.062 308.989 323.062 311.742 325.177C314 327 314 327 315 329C315.312 332.437 315.312 332.437 315 336C312.814 338.235 311.456 338.941 308.343 339.34C307.358 339.325 306.374 339.309 305.359 339.293C304.289 339.283 303.219 339.273 302.117 339.264C300.45 339.226 300.45 339.226 298.75 339.187C297.06 339.167 297.06 339.167 295.336 339.146C292.557 339.111 289.778 339.062 287 339C287.016 340.16 287.031 341.321 287.047 342.516C287.102 346.825 287.136 351.134 287.165 355.443C287.18 357.307 287.2 359.171 287.226 361.035C287.263 363.716 287.28 366.397 287.293 369.078C287.316 370.327 287.316 370.327 287.34 371.6C287.34 372.381 287.34 373.162 287.34 373.966C287.35 374.992 287.35 374.992 287.361 376.038C286.86 378.762 285.976 380.065 284 382C281.533 382.508 281.533 382.508 278.566 382.517C277.455 382.53 276.344 382.543 275.199 382.556C273.399 382.543 273.399 382.543 271.562 382.531C270.331 382.535 269.099 382.539 267.83 382.543C264.556 382.546 261.283 382.53 258.009 382.508C256.002 382.5 253.995 382.508 251.987 382.521C248.137 382.546 244.288 382.543 240.437 382.531C239.237 382.539 238.037 382.547 236.801 382.556C235.134 382.537 235.134 382.537 233.433 382.517C231.965 382.513 231.965 382.513 230.466 382.508C228 382 228 382 226.182 380.22C224.931 377.871 224.634 376.597 224.659 373.966C224.659 373.185 224.66 372.405 224.66 371.6C224.675 370.768 224.691 369.936 224.707 369.078C224.711 368.218 224.715 367.358 224.72 366.472C224.736 363.731 224.774 360.991 224.812 358.25C224.827 356.389 224.841 354.529 224.853 352.668C224.886 348.112 224.938 343.556 225 339C224.294 339.016 223.588 339.031 222.86 339.047C219.657 339.11 216.454 339.149 213.25 339.187C212.139 339.212 211.027 339.238 209.883 339.264C208.813 339.273 207.743 339.283 206.64 339.293C205.656 339.309 204.671 339.324 203.657 339.34C200.546 338.942 199.198 338.216 197 336C196.424 332.112 196.462 329.897 198.5 326.5C200.459 324.54 202.421 322.764 204.526 320.972C209.619 316.533 214.338 311.75 219.082 306.945C220.027 305.993 220.972 305.041 221.918 304.09C225.898 300.086 229.872 296.076 233.841 292.062C236.284 289.593 238.732 287.128 241.183 284.666C242.562 283.278 243.936 281.884 245.309 280.49C246.561 279.232 246.561 279.232 247.839 277.95C248.572 277.209 249.305 276.468 250.06 275.705C253.987 272.252 256.478 273.049 261 275ZM252.421 292.367C251.336 293.46 250.255 294.558 249.18 295.66C248.602 296.243 248.025 296.825 247.43 297.426C245.573 299.3 243.724 301.181 241.875 303.062C239.459 305.515 237.04 307.964 234.617 310.41C234.037 310.996 233.457 311.583 232.859 312.187C229.17 315.893 225.393 319.429 221.36 322.763C219.861 323.977 219.861 323.977 219 326C220.132 326.049 221.263 326.098 222.43 326.148C223.911 326.223 225.393 326.299 226.875 326.375C227.621 326.406 228.368 326.437 229.137 326.469C234.773 326.773 234.773 326.773 237 329C237.246 332.009 237.374 334.932 237.414 337.945C237.433 338.83 237.453 339.715 237.473 340.627C237.532 343.46 237.579 346.292 237.625 349.125C237.663 351.043 237.702 352.961 237.742 354.879C237.84 359.586 237.919 364.292 238 369C249.88 369 261.76 369 274 369C274.049 366.136 274.098 363.271 274.148 360.32C274.202 357.553 274.26 354.787 274.317 352.02C274.356 350.094 274.39 348.167 274.422 346.241C274.467 343.475 274.525 340.71 274.586 337.945C274.597 337.081 274.609 336.216 274.621 335.325C274.772 329.228 274.772 329.228 277 327C279.734 326.693 282.383 326.489 285.125 326.375C285.879 326.336 286.633 326.297 287.41 326.258C289.273 326.163 291.136 326.08 293 326C290.019 322.348 287.11 318.993 283.492 315.969C280.003 312.957 276.714 309.782 273.476 306.504C273 306.021 272.523 305.539 272.032 305.042C270.054 303.037 268.08 301.028 266.111 299.015C264.654 297.528 263.19 296.047 261.726 294.566C260.866 293.689 260.006 292.812 259.119 291.908C255.948 289.053 255.577 289.47 252.421 292.367Z" fill="white"/>
<path d="M298.803 118.362C305.969 124.159 313.668 131.23 317 140C316.756 143.694 316.642 145.358 314 148C307.928 148.675 307.928 148.675 304.938 146.5C303.849 145.096 302.773 143.681 301.742 142.234C293.088 130.222 281.823 122.673 267.27 119.469C250.11 117.009 235.36 121.062 220.871 130.367C215.178 134.832 211.207 141.195 207 147C206 148 206 148 202.625 148.25C199 148 199 148 197.063 146.875C195.514 144.143 195.76 142.105 196 139C202.914 124.807 217.365 113.872 231.964 108.72C254.557 101.193 279.555 103.825 298.803 118.362Z" fill="white"/>
<path d="M285.113 139.266C294.187 147.607 294.187 147.607 296.125 153.313C295.914 157.847 295.914 157.847 294 160C290.687 161.063 290.687 161.063 287 161C284.5 159 284.5 159 282 156C275.239 148.505 268.179 144.139 258 143C249.736 142.633 242.87 145.553 236 150C233.688 152.146 231.827 154.437 230 157C228.062 159.5 228.062 159.5 226 161C219.786 160.786 219.786 160.786 217 158C216.168 154.006 216.351 152.101 218.437 148.563C226.523 137.868 236.448 132.343 249.312 129.188C262.644 128.51 274.548 130.672 285.113 139.266Z" fill="white"/>
<path d="M264.813 155.188C269.316 157.748 272.144 160.715 275.001 165C274.858 168.423 274.585 170.329 272.313 172.938C269.047 174.438 267.4 174.11 264.001 173C262.794 171.701 262.794 171.701 261.563 170.375C259.162 167.632 259.162 167.632 255.563 167.875C252.276 168.913 251.306 169.419 248.938 171.625C246.001 174 246.001 174 242.751 174C240.001 173 240.001 173 238.001 170C237.437 166.898 237.461 164.905 239.098 162.16C245.78 153.733 254.819 152.075 264.813 155.188Z" fill="white"/>
</svg>
