<svg width="260" height="260" viewBox="0 0 260 260" fill="none" xmlns="http://www.w3.org/2000/svg">
<path d="M130 31.7778C164.586 31.7778 184.206 55.3879 187.055 83.909H187.914C210.198 83.909 228.222 102.473 228.222 125.371C228.222 125.936 228.222 126.513 228.185 127.065C223.673 123.04 218.24 120.188 212.365 118.759C206.49 117.33 200.354 117.369 194.497 118.872C188.641 120.375 183.244 123.297 178.784 127.378C174.323 131.46 170.936 136.577 168.92 142.277C162.586 142.409 156.448 144.498 151.348 148.257C146.248 152.016 142.436 157.261 140.436 163.272L139.232 166.833H72.073C49.8133 166.833 31.7773 148.269 31.7773 125.371C31.7773 102.473 49.8257 83.909 72.073 83.909H72.9446C75.8176 55.2038 95.4129 31.7778 130 31.7778ZM203.666 179.11C208.523 179.11 213.27 177.67 217.308 174.972C221.347 172.274 224.494 168.439 226.353 163.952C228.211 159.465 228.697 154.528 227.75 149.764C226.802 145.001 224.464 140.626 221.03 137.192C217.596 133.757 213.22 131.419 208.457 130.471C203.693 129.524 198.756 130.01 194.269 131.869C189.782 133.727 185.947 136.874 183.249 140.913C180.551 144.951 179.111 149.698 179.111 154.555H169.534C165.67 154.558 161.905 155.776 158.772 158.036C155.639 160.297 153.296 163.486 152.075 167.152L145.396 187.189C144.988 188.413 144.205 189.477 143.158 190.231C142.112 190.985 140.854 191.39 139.564 191.388H126.709C123.73 186.229 118.977 182.329 113.336 180.414C107.695 178.5 101.55 178.701 96.0459 180.981C90.542 183.261 86.0549 187.464 83.4203 192.807C80.7856 198.15 80.1833 204.269 81.7254 210.023C83.2677 215.778 86.8491 220.775 91.8027 224.085C96.7563 227.394 102.744 228.79 108.65 228.012C114.557 227.234 119.979 224.336 123.907 219.856C127.834 215.377 130 209.623 130 203.666H139.576C143.44 203.663 147.205 202.445 150.338 200.184C153.471 197.923 155.814 194.735 157.035 191.069L163.714 171.032C164.122 169.808 164.905 168.743 165.952 167.99C166.998 167.236 168.256 166.831 169.546 166.833H182.401C184.556 170.566 187.656 173.665 191.389 175.82C195.121 177.976 199.356 179.11 203.666 179.11ZM203.666 166.833C200.41 166.833 197.287 165.539 194.985 163.236C192.682 160.934 191.388 157.811 191.388 154.555C191.388 151.299 192.682 148.176 194.985 145.873C197.287 143.571 200.41 142.277 203.666 142.277C206.923 142.277 210.045 143.571 212.348 145.873C214.65 148.176 215.944 151.299 215.944 154.555C215.944 157.811 214.65 160.934 212.348 163.236C210.045 165.539 206.923 166.833 203.666 166.833ZM117.722 203.666C117.722 206.922 116.428 210.045 114.126 212.347C111.823 214.65 108.7 215.943 105.444 215.943C102.188 215.943 99.0648 214.65 96.7623 212.347C94.4599 210.045 93.1662 206.922 93.1662 203.666C93.1662 200.41 94.4599 197.287 96.7623 194.984C99.0648 192.681 102.188 191.388 105.444 191.388C108.7 191.388 111.823 192.681 114.126 194.984C116.428 197.287 117.722 200.41 117.722 203.666Z" stroke="black" stroke-width="6"/>
</svg>
