<svg width="512" height="512" viewBox="0 0 512 512" fill="none" xmlns="http://www.w3.org/2000/svg">
<g clip-path="url(#clip0_1203_52)">
<path d="M462 44H414.333V30C414.333 13.458 400.875 0 384.333 0C367.791 0 354.333 13.458 354.333 30V44H186.333V30C186.333 13.458 172.875 0 156.333 0C139.791 0 126.333 13.458 126.333 30V44.37C125.465 44.1268 124.568 44.0024 123.667 44H83.823C56.253 44 33.823 66.43 33.823 94V264.333C33.823 269.856 38.301 274.333 43.823 274.333C49.345 274.333 53.823 269.856 53.823 264.333V147H414.333C419.855 147 424.333 142.523 424.333 137C424.333 131.477 419.855 127 414.333 127H53.823V94C53.823 77.458 67.281 64 83.823 64H123.667C124.592 64 125.483 63.864 126.333 63.63V76.5C126.333 93.042 139.791 106.5 156.333 106.5C172.875 106.5 186.333 93.042 186.333 76.5V64H354.333V76.5C354.333 93.042 367.791 106.5 384.333 106.5C400.875 106.5 414.333 93.042 414.333 76.5V64H462C478.542 64 492 77.458 492 94V473.994C492 483.922 483.923 492 473.994 492C464.065 492 455.988 483.922 455.988 473.994V448.125C455.988 442.602 451.51 438.125 445.988 438.125H329.667C324.145 438.125 319.667 442.602 319.667 448.125C319.667 453.648 324.145 458.125 329.667 458.125H435.988V473.994C435.981 480.281 437.543 486.47 440.533 492H38C28.075 492 20 483.925 20 474V458.125H243.825C249.347 458.125 253.825 453.648 253.825 448.125C253.825 442.602 249.347 438.125 243.825 438.125H143.909C161.383 423.076 172.479 400.816 172.479 376C172.479 330.785 135.694 294 90.479 294C45.264 294 8.479 330.785 8.479 376C8.479 400.816 19.575 423.076 37.049 438.125H10C4.478 438.125 0 442.602 0 448.125V474C0 494.953 17.047 512 38 512H473.994C494.95 512 512 494.951 512 473.994V94C512 66.43 489.57 44 462 44ZM166.333 76.5C166.333 82.014 161.847 86.5 156.333 86.5C150.819 86.5 146.333 82.014 146.333 76.5V30C146.333 24.486 150.819 20 156.333 20C161.847 20 166.333 24.486 166.333 30V76.5ZM394.333 76.5C394.333 82.014 389.847 86.5 384.333 86.5C378.819 86.5 374.333 82.014 374.333 76.5V30C374.333 24.486 378.819 20 384.333 20C389.847 20 394.333 24.486 394.333 30V76.5ZM28.479 376C28.479 341.813 56.292 314 90.479 314C124.666 314 152.479 341.813 152.479 376C152.479 410.187 124.666 438 90.479 438C56.292 438 28.479 410.187 28.479 376Z" fill="white"/>
<path d="M468.308 129.93C466.429 128.061 463.889 127.009 461.239 127C458.608 127 456.029 128.07 454.169 129.93C452.309 131.79 451.239 134.37 451.239 137C451.239 139.63 452.308 142.21 454.169 144.07C456.049 145.938 458.589 146.991 461.239 147C463.869 147 466.449 145.93 468.308 144.07C470.168 142.21 471.239 139.63 471.239 137C471.239 134.37 470.169 131.79 468.308 129.93ZM298.648 441.05C296.789 439.19 294.209 438.13 291.579 438.13C288.949 438.13 286.369 439.19 284.509 441.05C282.642 442.931 281.59 445.47 281.579 448.12C281.579 450.76 282.648 453.33 284.509 455.2C286.369 457.06 288.949 458.12 291.579 458.12C294.209 458.12 296.789 457.06 298.648 455.2C300.516 453.316 301.568 450.773 301.579 448.12C301.579 445.49 300.509 442.92 298.648 441.05ZM226.244 304C205.291 304 188.244 321.047 188.244 342C188.244 362.953 205.291 380 226.244 380C247.197 380 264.244 362.953 264.244 342C264.244 321.047 247.197 304 226.244 304ZM226.244 360C216.319 360 208.244 351.925 208.244 342C208.244 332.075 216.319 324 226.244 324C236.169 324 244.244 332.075 244.244 342C244.244 351.925 236.169 360 226.244 360ZM319.577 304C298.624 304 281.577 321.047 281.577 342C281.577 362.953 298.624 380 319.577 380C340.53 380 357.577 362.953 357.577 342C357.577 321.047 340.53 304 319.577 304ZM319.577 360C309.652 360 301.577 351.925 301.577 342C301.577 332.075 309.652 324 319.577 324C329.502 324 337.577 332.075 337.577 342C337.577 351.925 329.502 360 319.577 360ZM412.911 304C391.958 304 374.911 321.047 374.911 342C374.911 362.953 391.958 380 412.911 380C433.864 380 450.911 362.953 450.911 342C450.911 321.047 433.864 304 412.911 304ZM412.911 360C402.986 360 394.911 351.925 394.911 342C394.911 332.075 402.986 324 412.911 324C422.836 324 430.911 332.075 430.911 342C430.911 351.925 422.836 360 412.911 360ZM132.911 200C111.958 200 94.9111 217.047 94.9111 238C94.9111 258.953 111.958 276 132.911 276C153.864 276 170.911 258.953 170.911 238C170.911 217.047 153.864 200 132.911 200ZM132.911 256C122.986 256 114.911 247.925 114.911 238C114.911 228.075 122.986 220 132.911 220C142.836 220 150.911 228.075 150.911 238C150.911 247.925 142.836 256 132.911 256ZM319.577 200C298.624 200 281.577 217.047 281.577 238C281.577 258.953 298.624 276 319.577 276C340.53 276 357.577 258.953 357.577 238C357.577 217.047 340.53 200 319.577 200ZM319.577 256C309.652 256 301.577 247.925 301.577 238C301.577 228.075 309.652 220 319.577 220C329.502 220 337.577 228.075 337.577 238C337.577 247.925 329.502 256 319.577 256ZM412.911 200C391.958 200 374.911 217.047 374.911 238C374.911 258.953 391.958 276 412.911 276C433.864 276 450.911 258.953 450.911 238C450.911 217.047 433.864 200 412.911 200ZM412.911 256C402.986 256 394.911 247.925 394.911 238C394.911 228.075 402.986 220 412.911 220C422.836 220 430.911 228.075 430.911 238C430.911 247.925 422.836 256 412.911 256ZM226.244 200C205.291 200 188.244 217.047 188.244 238C188.244 258.953 205.291 276 226.244 276C247.197 276 264.244 258.953 264.244 238C264.244 217.047 247.197 200 226.244 200ZM226.244 256C216.319 256 208.244 247.925 208.244 238C208.244 228.075 216.319 220 226.244 220C236.169 220 244.244 228.075 244.244 238C244.244 247.925 236.169 256 226.244 256ZM126.103 351.629C122.197 347.724 115.867 347.724 111.96 351.629L79.3941 384.196L68.2651 373.067C64.3591 369.162 58.0291 369.162 54.1221 373.067C50.2171 376.972 50.2171 383.304 54.1221 387.21L72.3231 405.409C74.1989 407.284 76.7422 408.337 79.3941 408.337C82.046 408.337 84.5894 407.284 86.4651 405.409L126.103 365.771C130.008 361.866 130.008 355.534 126.103 351.629Z" fill="white"/>
</g>
<defs>
<clipPath id="clip0_1203_52">
<rect width="512" height="512" fill="white"/>
</clipPath>
</defs>
</svg>
