<svg width="44" height="44" viewBox="0 0 44 44" fill="none" xmlns="http://www.w3.org/2000/svg">
<path d="M29.3827 19.5402C30.1181 19.0474 30.6454 18.3121 30.8779 17.4444C31.1321 16.496 31.0032 15.508 30.515 14.6624C30.0268 13.8168 29.2356 13.2112 28.2872 12.957C27.4195 12.7246 26.5191 12.8136 25.7245 13.2041L23.6773 9.65821C23.2415 8.90335 22.4587 8.46337 21.5897 8.4782C20.7183 8.49415 19.9546 8.96347 19.5465 9.73363C19.26 10.2747 18.9909 10.8368 18.706 11.4319C17.5449 13.8574 16.2289 16.6064 13.3837 18.2491L9.72788 20.3598C8.46946 21.0863 7.56806 22.2641 7.18964 23.6762C6.81129 25.0884 7.00301 26.5591 7.72954 27.8175C8.73959 29.567 10.5785 30.5461 12.4668 30.5461C13.169 30.5463 13.8646 30.4101 14.5148 30.145L17.0706 34.5717C17.5993 35.4875 18.5617 36 19.5502 36C20.0503 36.0001 20.5415 35.8683 20.9743 35.6177C21.6333 35.2372 22.1053 34.6207 22.3033 33.8818C22.5012 33.1429 22.4008 32.3731 22.0203 31.714L19.5055 27.3582C22.1531 26.0995 24.9323 26.3131 27.4066 26.5043C28.065 26.5552 28.6868 26.6033 29.2992 26.6257C30.169 26.6568 30.9585 26.2308 31.408 25.484C31.8574 24.7373 31.8656 23.8409 31.4298 23.086L29.3826 19.5401L29.3827 19.5402ZM27.9005 14.4002C28.4634 14.551 28.9325 14.9094 29.2211 15.4095C29.7784 16.3747 29.5083 17.5938 28.6331 18.2418L26.4743 14.5026C26.9211 14.3086 27.4189 14.2711 27.9005 14.4002H27.9005ZM12.4643 29.0525C11.0929 29.0524 9.7571 28.3412 9.02352 27.0705C8.49653 26.1578 8.35776 25.0896 8.63291 24.063C8.908 23.0363 9.56222 22.1807 10.475 21.6537L13.4842 19.9163L17.4533 26.7825L14.4404 28.522C13.8174 28.8817 13.1367 29.0525 12.4643 29.0525ZM20.8602 33.4952C20.7656 33.8487 20.5407 34.1429 20.2273 34.3239C19.5762 34.6998 18.7405 34.476 18.3645 33.8248L15.8343 29.4424L18.1962 28.0787L20.7264 32.4611C20.9074 32.7746 20.9549 33.1418 20.8602 33.4952H20.8602ZM30.128 24.7136C29.9581 24.9959 29.6841 25.1454 29.3539 25.1327C28.7718 25.1114 28.1647 25.0645 27.5218 25.0148C24.8216 24.8062 21.7856 24.5722 18.76 26.0577L14.7653 19.1471C17.5679 17.2677 18.8839 14.5206 20.0537 12.0771C20.3318 11.496 20.5946 10.9472 20.8668 10.433C21.0211 10.1417 21.2875 9.97806 21.617 9.97208L21.6356 9.9719C21.9567 9.9719 22.2218 10.1253 22.3834 10.4053L30.1361 23.8333C30.3009 24.1187 30.298 24.4313 30.128 24.7137L30.128 24.7136ZM28.1874 10.0458L29.7301 7.37366C29.9364 7.01634 30.3932 6.89389 30.7506 7.10025C31.1079 7.30655 31.2303 7.76344 31.024 8.1207L29.4813 10.7928C29.4322 10.8778 29.367 10.9523 29.2891 11.012C29.2113 11.0718 29.1225 11.1156 29.0277 11.141C28.9329 11.1664 28.8341 11.1728 28.7368 11.16C28.6396 11.1472 28.5458 11.1153 28.4608 11.0662C28.1035 10.8599 27.9811 10.403 28.1874 10.0458ZM35.123 12.8645L32.3863 14.4447C32.3013 14.4937 32.2075 14.5256 32.1103 14.5384C32.013 14.5512 31.9142 14.5448 31.8194 14.5194C31.7246 14.494 31.6358 14.4502 31.558 14.3904C31.4801 14.3307 31.4148 14.2562 31.3658 14.1712C31.1595 13.8139 31.282 13.357 31.6392 13.1508L34.376 11.5707C34.7332 11.3643 35.1901 11.4868 35.3964 11.8441C35.6027 12.2013 35.4803 12.6583 35.123 12.8645ZM37.1819 18.2395C37.1819 18.652 36.8474 18.9865 36.4348 18.9865H33.3493C32.9367 18.9865 32.6022 18.6521 32.6022 18.2395C32.6022 17.8269 32.9367 17.4924 33.3493 17.4924H36.4348C36.8474 17.4924 37.1819 17.8269 37.1819 18.2395Z" fill="black" stroke="black" stroke-width="0.3"/>
</svg>
