<?xml version="1.0" encoding="UTF-8"?>
<svg version="1.1" xmlns="http://www.w3.org/2000/svg" width="512" height="512">
<path d="M0 0 C1.20555794 -0.01292336 1.20555794 -0.01292336 2.43547058 -0.02610779 C5.08947036 -0.04879222 7.74241643 -0.0420251 10.39648438 -0.03295898 C12.24206863 -0.03819324 14.0876502 -0.044469 15.93322754 -0.05174255 C19.80017693 -0.06215112 23.66675844 -0.05757843 27.53369141 -0.04296875 C32.49068648 -0.02577427 37.44652317 -0.04928163 42.40338898 -0.08445835 C46.21412852 -0.10641118 50.02458993 -0.10499614 53.83537292 -0.09669304 C55.66303275 -0.09587247 57.49071277 -0.10275607 59.3183136 -0.11746407 C61.87309143 -0.13487291 64.42577546 -0.12040042 66.98046875 -0.09765625 C67.73591476 -0.10934845 68.49136078 -0.12104065 69.2696991 -0.13308716 C73.06618242 -0.0642703 74.66700286 0.22558518 77.45959473 2.88539124 C79.34505685 6.14730161 79.60889543 7.82148094 78.99023438 11.53344727 C77.67023438 13.18344727 76.35023438 14.83344727 74.99023438 16.53344727 C51.56023437 16.53344727 28.13023438 16.53344727 3.99023438 16.53344727 C3.99023438 69.33344727 3.99023438 122.13344727 3.99023438 176.53344727 C72.63023438 176.53344727 141.27023438 176.53344727 211.99023438 176.53344727 C211.99023438 149.14344727 211.99023438 121.75344727 211.99023438 93.53344727 C216.99023438 89.53344727 216.99023438 89.53344727 219.99023438 89.03344727 C223.84449342 89.67582377 225.29973323 90.69930889 227.99023438 93.53344727 C228.46882219 96.42438246 228.62595335 98.72136136 228.55786133 101.60668945 C228.55859146 102.41681992 228.55932159 103.22695038 228.56007385 104.06163025 C228.55659471 106.73521245 228.51772 109.40704506 228.47851562 112.08032227 C228.46918862 113.93547616 228.46207197 115.79064237 228.45707703 117.64581299 C228.43799833 122.52547284 228.38889004 127.40438697 228.33355713 132.28375244 C228.28238344 137.26401684 228.259567 142.24440191 228.234375 147.22485352 C228.18077214 156.99471217 228.09544876 166.76401768 227.99023438 176.53344727 C228.57514648 176.5125 229.16005859 176.49155273 229.76269531 176.4699707 C232.42169903 176.38664611 235.08042793 176.3347383 237.74023438 176.28344727 C238.660625 176.24993164 239.58101563 176.21641602 240.52929688 176.18188477 C247.34890939 176.0830498 247.34890939 176.0830498 250.59851074 178.36521912 C252.48878361 181.3101593 252.50748437 183.39335172 252.52148438 186.88110352 C252.52664063 188.12698242 252.53179687 189.37286133 252.53710938 190.65649414 C252.52164062 191.95651367 252.50617188 193.2565332 252.49023438 194.59594727 C252.50570313 195.86889648 252.52117187 197.1418457 252.53710938 198.45336914 C252.48620108 210.84317541 249.63876277 220.4738997 240.99023438 229.53344727 C228.64327216 241.32024484 215.27944372 241.11747463 199.16992188 241.05102539 C196.9595697 241.05645168 194.74922115 241.06357718 192.53887939 241.07226562 C186.55955318 241.09044139 180.58050423 241.08345507 174.6011734 241.07074928 C168.33095069 241.06059186 162.06075103 241.07002257 155.79052734 241.07629395 C144.58914535 241.08402734 133.38786472 241.07163026 122.18650699 241.0512566 C112.04875497 241.03338775 101.91118622 241.03649253 91.7734375 241.05493164 C79.97536262 241.07638087 68.17737692 241.08428285 56.379282 241.07248259 C50.14325183 241.06626029 43.90734766 241.06537729 37.67132568 241.07862854 C31.80739586 241.09021968 25.94381067 241.0821014 20.07991791 241.05905151 C17.93338339 241.05378189 15.78681966 241.0552481 13.64029694 241.06410217 C-1.45450104 241.12060501 -13.54002165 240.48282479 -25.00976562 229.53344727 C-34.8070507 219.27054864 -36.67791185 208.43298005 -36.50976562 194.59594727 C-36.52523437 193.29592773 -36.54070313 191.9959082 -36.55664062 190.65649414 C-36.55148438 189.41061523 -36.54632813 188.16473633 -36.54101562 186.88110352 C-36.53650391 185.75712158 -36.53199219 184.63313965 -36.52734375 183.47509766 C-35.85766202 179.66896788 -35.18048242 178.76021658 -32.00976562 176.53344727 C-28.58129425 176.03765084 -25.21460026 176.15764096 -21.75976562 176.28344727 C-20.82390625 176.30149414 -19.88804688 176.31954102 -18.92382812 176.33813477 C-16.61809547 176.38519053 -14.31445618 176.45091014 -12.00976562 176.53344727 C-12.0134528 175.65069248 -12.01713997 174.7679377 -12.02093887 173.85843277 C-12.10922136 152.39320928 -12.17544184 130.92801703 -12.21701431 109.4626503 C-12.23765208 99.08221167 -12.26579589 88.70189412 -12.31152344 78.3215332 C-12.35135401 69.27551117 -12.3771896 60.22957681 -12.3861196 51.18346953 C-12.39134076 46.39222472 -12.40363755 41.60123075 -12.43268585 36.81006622 C-12.45979528 32.30225928 -12.46821971 27.79480699 -12.46219635 23.28692627 C-12.4632986 21.63087793 -12.47127919 19.97481798 -12.48658752 18.31884003 C-12.5064463 16.06020536 -12.50172101 13.80291529 -12.49078369 11.54425049 C-12.49447086 10.27955051 -12.49815804 9.01485054 -12.50195694 7.71182632 C-12.00976562 4.53344727 -12.00976562 4.53344727 -10.2050209 2.12743855 C-6.97602639 -0.21715853 -3.84139113 -0.03318365 0 0 Z M-20.00976562 192.53344727 C-20.00976562 202.11747805 -19.45877475 210.03688336 -13.00976562 217.53344727 C-3.48982147 225.72309355 8.20115911 224.79381948 19.99023438 224.53344727 C20.02761719 223.70200195 20.065 222.87055664 20.10351562 222.01391602 C20.16925781 220.92723633 20.235 219.84055664 20.30273438 218.72094727 C20.38974609 217.1025293 20.38974609 217.1025293 20.47851562 215.45141602 C20.99023438 212.53344727 20.99023438 212.53344727 22.28320312 210.67016602 C24.34230499 209.29900208 25.53000961 209.13049017 27.99023438 209.15844727 C28.67085937 209.15071289 29.35148437 209.14297852 30.05273438 209.13500977 C31.99023438 209.53344727 31.99023438 209.53344727 34.99023438 212.53344727 C35.48523438 218.47344727 35.48523438 218.47344727 35.99023438 224.53344727 C83.51023438 224.53344727 131.03023438 224.53344727 179.99023438 224.53344727 C180.32023438 220.57344727 180.65023437 216.61344727 180.99023438 212.53344727 C183.99023437 209.53344727 183.99023437 209.53344727 185.92773438 209.13500977 C186.60835937 209.14274414 187.28898438 209.15047852 187.99023438 209.15844727 C188.67085937 209.15071289 189.35148438 209.14297852 190.05273438 209.13500977 C192.6581851 209.6708081 193.47197527 210.34550288 194.99023438 212.53344727 C195.50195312 215.45141602 195.50195312 215.45141602 195.67773438 218.72094727 C195.74347656 219.80762695 195.80921875 220.89430664 195.87695312 222.01391602 C195.93302734 223.26108398 195.93302734 223.26108398 195.99023438 224.53344727 C212.48452013 225.35268784 212.48452013 225.35268784 226.99023438 218.53344727 C234.91688371 210.54977167 235.99023438 203.76562363 235.99023438 192.53344727 C151.51023437 192.53344727 67.03023437 192.53344727 -20.00976562 192.53344727 Z " fill="#000000" transform="translate(52.009765625,255.466552734375)"/>
<path d="M0 0 C6.24048884 4.26179726 11.66897728 13.57649627 13.125 20.9375 C12.97932593 24.50651474 12.20849018 26.2189383 10 29 C6.76616455 30.61691772 3.48297511 30.72868385 0 30 C-2.20638702 28.21178109 -3.37234879 26.39360472 -5 24 C-5.99 23.01 -5.99 23.01 -7 22 C-7.60585937 22.556875 -8.21171875 23.11375 -8.8359375 23.6875 C-13.78371473 28.19378326 -18.80967731 32.51535085 -24.0625 36.66015625 C-27.76310187 39.60784311 -31.41346648 42.61385756 -35.0625 45.625 C-35.78735596 46.223125 -36.51221191 46.82125 -37.2590332 47.4375 C-38.75432724 48.67159658 -40.24952466 49.90581023 -41.74462891 51.14013672 C-43.96674748 52.97257873 -46.19180351 54.80138335 -48.41796875 56.62890625 C-54.9608676 62.0023298 -61.48864426 67.3888608 -67.9375 72.875 C-72.26806785 76.55860726 -76.65587128 80.15450388 -81.11328125 83.68359375 C-85.85266719 87.48664634 -90.52457204 91.37212399 -95.20019531 95.25317383 C-95.9062793 95.83736084 -96.61236328 96.42154785 -97.33984375 97.0234375 C-97.97269287 97.54856934 -98.60554199 98.07370117 -99.25756836 98.61474609 C-100.77789379 99.82342292 -102.38396016 100.92264011 -104 102 C-103.41158944 106.05655004 -102.10756759 108.91158306 -100.015625 112.421875 C-99.40976563 113.44796875 -98.80390625 114.4740625 -98.1796875 115.53125 C-97.54289062 116.5934375 -96.90609375 117.655625 -96.25 118.75 C-93.82800829 122.83020181 -91.41047023 126.91298039 -89 131 C-88.4831665 131.87035889 -87.96633301 132.74071777 -87.43383789 133.63745117 C-86.9774292 134.42611572 -86.52102051 135.21478027 -86.05078125 136.02734375 C-85.45390503 137.0481604 -85.45390503 137.0481604 -84.8449707 138.08959961 C-83.39697903 141.36337449 -83.89800975 143.69402926 -85 147 C-86.625 149.4375 -86.625 149.4375 -89 151 C-93.014557 151.58393556 -95.10894177 151.59692587 -98.51171875 149.31738281 C-101.17284148 146.8390295 -102.64717436 144.61097757 -104.375 141.421875 C-105.26445312 139.80345703 -105.26445312 139.80345703 -106.171875 138.15234375 C-106.77515625 137.02957031 -107.3784375 135.90679687 -108 134.75 C-109.20651966 132.53546925 -110.41481669 130.32190579 -111.625 128.109375 C-112.19605469 127.06330078 -112.76710938 126.01722656 -113.35546875 124.93945312 C-115.4451785 121.20428308 -117.68325385 117.59797697 -120 114 C-125.08595256 116.74770742 -130.15864144 119.51612698 -135.1875 122.3671875 C-135.90099609 122.77138916 -136.61449219 123.17559082 -137.34960938 123.59204102 C-138.76887148 124.39754638 -140.18687037 125.20528207 -141.60351562 126.01538086 C-144.37815843 127.58956179 -146.96531774 128.98843925 -150 130 C-152.45069106 134.01496194 -153.67649971 138.3268753 -154 143 C-151.95347747 150.97742164 -147.24296018 158.27000121 -143.125 165.3125 C-142.52558594 166.37017578 -141.92617187 167.42785156 -141.30859375 168.51757812 C-137.70052791 174.7201642 -134.57442534 179.71278733 -128 183 C-120.61922478 184.0850606 -115.73271533 181.8493069 -109.5 178.125 C-108.19579102 177.3810498 -108.19579102 177.3810498 -106.86523438 176.62207031 C-102.73697868 174.25381859 -98.66447016 171.80536228 -94.625 169.2890625 C-87.78607855 165.05310576 -81.2221372 161.48654579 -73.55859375 158.98828125 C-64.38652905 155.88177279 -55.31267766 152.54032325 -46.25390625 149.12109375 C-45.54971809 148.85555946 -44.84552994 148.59002518 -44.12000275 148.3164444 C-39.69368924 146.64703166 -35.26873458 144.97404247 -30.84410858 143.30016327 C-26.99601789 141.845222 -23.14661148 140.39376999 -19.29736328 138.94189453 C-6.31168996 134.042474 6.67015057 129.13339718 19.63671875 124.18359375 C21.38938956 123.51566771 23.14207428 122.84777818 24.89477539 122.17993164 C27.96003692 121.01176476 31.02265919 119.83703095 34.08374023 118.65795898 C35.40209885 118.15456999 36.72053349 117.65138003 38.0390625 117.1484375 C39.13428223 116.72739746 40.22950195 116.30635742 41.35791016 115.87255859 C44 115 44 115 47 115 C38.90385822 100.42173827 30.69162224 85.92676012 22.25390625 71.54296875 C21.72812988 70.64368652 21.20235352 69.7444043 20.66064453 68.81787109 C19.47625846 66.80814101 18.27774128 64.80671092 17.06982422 62.81103516 C16.43705566 61.75577637 15.80428711 60.70051758 15.15234375 59.61328125 C14.57347412 58.65848877 13.99460449 57.70369629 13.39819336 56.7199707 C11.51406298 53.05468407 10.63339862 50.39975074 11.6875 46.375 C13.19864618 43.64054501 14.23608564 42.45873258 17 41 C20.71524207 40.44666607 22.36475468 40.56693761 25.49145508 42.69848633 C28.10027184 45.09199636 29.52153194 47.16024323 31.19921875 50.26171875 C31.76310303 51.289021 32.3269873 52.31632324 32.90795898 53.37475586 C33.49520752 54.46796143 34.08245605 55.56116699 34.6875 56.6875 C35.94131153 58.97472459 37.19652265 61.2611825 38.453125 63.546875 C39.06220703 64.65998047 39.67128906 65.77308594 40.29882812 66.91992188 C42.44276747 70.80165821 44.66769187 74.6283967 46.9375 78.4375 C51.37137226 85.90367875 55.72386603 93.4157412 60.0625 100.9375 C60.40054657 101.522966 60.73859314 102.10843201 61.08688354 102.7116394 C69.46186313 117.21800404 69.46186313 117.21800404 68 123 C64.68421666 126.0132191 61.58876963 127.78903496 57.40283203 129.33105469 C56.29205292 129.74599182 55.1812738 130.16092896 54.03683472 130.58843994 C52.83100739 131.02847351 51.62518005 131.46850708 50.3828125 131.921875 C49.09600316 132.39939811 47.80956345 132.87791831 46.52346802 133.35736084 C43.77726608 134.38008757 41.02941096 135.39819131 38.28039551 136.41333008 C31.82045023 138.80279994 25.38128902 141.24736642 18.93935394 143.68486023 C15.24452846 145.08190088 11.54802292 146.47447976 7.8515625 147.8671875 C6.35969658 148.42935153 4.86783461 148.99152604 3.37597656 149.55371094 C2.6349469 149.8329541 1.89391724 150.11219727 1.13043213 150.39990234 C-1.13972459 151.25554986 -3.4097312 152.11159437 -5.6796875 152.96777344 C-15.45023124 156.6529069 -25.22310659 160.33174386 -35 164 C-36.08325562 164.40677979 -37.16651123 164.81355957 -38.28259277 165.23266602 C-41.01767941 166.25800246 -43.75442231 167.27871645 -46.4921875 168.296875 C-47.25193878 168.58193909 -48.01169006 168.86700317 -48.79446411 169.16070557 C-53.76765442 171 -53.76765442 171 -56 171 C-55.5560791 171.78648926 -55.1121582 172.57297852 -54.65478516 173.38330078 C-52.99940737 176.32191045 -51.34875727 179.26307416 -49.70117188 182.20605469 C-48.9891629 183.47565327 -48.27532275 184.74422681 -47.55957031 186.01171875 C-46.52698323 187.84103738 -45.50118873 189.67402569 -44.4765625 191.5078125 C-43.549646 193.15740967 -43.549646 193.15740967 -42.60400391 194.84033203 C-39.06187339 201.81784393 -37.8167933 207.87806497 -39.58203125 215.51953125 C-42.25368887 223.46130801 -47.49705186 228.65063575 -54.875 232.5 C-63.32245935 233.8515935 -70.68069584 233.7802125 -78 229 C-84.44994249 222.97084803 -88.75179733 215.81764274 -92.9375 208.125 C-93.51306641 207.09375 -94.08863281 206.0625 -94.68164062 205 C-98.82633159 197.52100523 -98.82633159 197.52100523 -100 194 C-100.76183594 194.40992188 -101.52367187 194.81984375 -102.30859375 195.2421875 C-112.24512924 200.4275456 -120.7535042 203.65332877 -132 201 C-135.2382199 199.6200322 -138.29272963 198.08019238 -141.37109375 196.375 C-144.54612848 194.68642182 -144.54612848 194.68642182 -148 194 C-150.2867152 194.92640296 -150.2867152 194.92640296 -152.5 196.375 C-158.75031713 200.20653002 -164.85658207 201.05184344 -172.08203125 199.57421875 C-178.73987763 197.4337277 -183.88677122 192.93125282 -187.9375 187.3125 C-190.81993366 181.03896792 -191.27103142 173.22065325 -189.28125 166.61328125 C-186.84353969 161.45280579 -183.59394274 157.35873191 -178.45703125 154.66796875 C-175.44701564 152.9910207 -173.26915645 151.60887661 -171 149 C-170.43199607 145.12964763 -170.62926807 141.62186226 -170.8828125 137.72265625 C-171.15038164 129.22287655 -167.01265971 123.39873676 -161.48388672 117.31445312 C-156.97922736 113.11707051 -151.69576887 110.35899534 -146.3125 107.4375 C-145.13856264 106.7817074 -143.96579728 106.12381259 -142.79418945 105.46386719 C-140.5264389 104.18950262 -138.25564651 102.92053174 -135.98144531 101.65771484 C-125.9082756 96.0569269 -117.11032382 89.84823183 -108.46533203 82.26806641 C-106.4396068 80.51504793 -104.35173088 78.84825858 -102.25 77.1875 C-92.37323107 69.350324 -82.6659616 61.29422527 -73.0625 53.125 C-68.71363136 49.42585616 -64.30499155 45.81754984 -59.83203125 42.26953125 C-53.91999556 37.53174817 -48.09767545 32.68314636 -42.25537109 27.85986328 C-40.03325252 26.02742127 -37.80819649 24.19861665 -35.58203125 22.37109375 C-28.31421163 16.40197145 -21.06481982 10.41754994 -13.93261719 4.28637695 C-9.38106582 0.39579907 -6.07415876 -0.96527329 0 0 Z M-164 165 C-165.31322788 165.97819024 -166.62556152 166.9575811 -167.9375 167.9375 C-168.66839844 168.48277344 -169.39929688 169.02804687 -170.15234375 169.58984375 C-171.9134453 170.86907938 -171.9134453 170.86907938 -173 172 C-173.50070321 175.37357334 -173.50070321 175.37357334 -173 179 C-171.00979883 181.65884601 -171.00979883 181.65884601 -168 183 C-163.00363255 183 -159.94431686 180.91128149 -156 178 C-156.95399078 176.20601733 -157.91334026 174.41488345 -158.875 172.625 C-159.67550781 171.12839844 -159.67550781 171.12839844 -160.4921875 169.6015625 C-161.8820138 166.94651605 -161.8820138 166.94651605 -164 165 Z M-74 178 C-79.94 181.465 -79.94 181.465 -86 185 C-85.5153125 185.84820312 -85.030625 186.69640625 -84.53125 187.5703125 C-84.21124023 188.13065186 -83.89123047 188.69099121 -83.56152344 189.26831055 C-82.84714736 190.51781149 -82.13163124 191.76666125 -81.41503906 193.01489258 C-79.52579319 196.30952287 -77.65620787 199.61239741 -75.828125 202.94140625 C-75.30508789 203.8837915 -75.30508789 203.8837915 -74.77148438 204.84521484 C-73.79520582 206.60596961 -72.82708821 208.37124196 -71.859375 210.13671875 C-70.07824575 212.87950813 -68.84158923 214.42568141 -66 216 C-62.22420799 215.93375803 -59.92517078 215.78061285 -57 213.3125 C-55.63191919 210.14881312 -56.23054991 208.33606662 -57 205 C-58.21518414 202.22682449 -58.21518414 202.22682449 -59.80078125 199.5234375 C-60.64866211 198.02296875 -60.64866211 198.02296875 -61.51367188 196.4921875 C-62.10728516 195.46351563 -62.70089844 194.43484375 -63.3125 193.375 C-63.89451172 192.33859375 -64.47652344 191.3021875 -65.07617188 190.234375 C-67.79945035 185.46015634 -70.05960433 181.94039567 -74 178 Z " fill="#000000" transform="translate(262,184)"/>
<path d="M0 0 C1.06077255 -0.00671722 2.1215451 -0.01343445 3.21446228 -0.02035522 C6.72008961 -0.03934785 10.2255256 -0.04326016 13.73120117 -0.04541016 C16.17111795 -0.05183742 18.61103395 -0.05856573 21.0509491 -0.06558228 C26.1661457 -0.07755838 31.28127474 -0.08126277 36.39648438 -0.08007812 C42.94350949 -0.07987497 49.49010035 -0.10717221 56.03702259 -0.14162254 C61.07714315 -0.16388623 66.11715914 -0.16791581 71.15732384 -0.16685867 C73.5705992 -0.16921561 75.9838774 -0.17804428 78.39710426 -0.19352341 C81.77676205 -0.21317076 85.1554826 -0.2073493 88.53515625 -0.1953125 C89.52712006 -0.20655151 90.51908386 -0.21779053 91.54110718 -0.22937012 C98.82624198 -0.16360776 104.17378339 1.40933061 109.70385742 6.25537109 C110.24268555 6.90634766 110.78151367 7.55732422 111.33666992 8.22802734 C111.8909668 8.87642578 112.44526367 9.52482422 113.01635742 10.19287109 C115.92897875 14.42010799 116.71433615 18.12042368 116.75219727 23.21069336 C116.76495697 24.3786293 116.77771667 25.54656525 116.79086304 26.74989319 C116.79308868 28.00209152 116.79531433 29.25428986 116.79760742 30.54443359 C116.80759262 32.48394142 116.80759262 32.48394142 116.81777954 34.46263123 C116.82972556 37.19362735 116.83346287 39.92449719 116.83227539 42.65551758 C116.83207171 46.15172128 116.85943489 49.6471166 116.89381981 53.1431284 C116.92141402 56.48524281 116.9202368 59.82720668 116.92260742 63.16943359 C116.93697845 64.42365616 116.95134949 65.67787872 116.96615601 66.97010803 C116.96000275 68.13489182 116.95384949 69.2996756 116.94750977 70.49975586 C116.9503598 71.52392105 116.95320984 72.54808624 116.95614624 73.60328674 C116.33258513 76.99204101 115.11947099 78.16990513 112.46166992 80.29052734 C110.46166992 80.82177734 110.46166992 80.82177734 108.46166992 80.79052734 C107.47166992 80.80599609 107.47166992 80.80599609 106.46166992 80.82177734 C103.55512917 80.04972746 102.36968732 78.58014517 100.46166992 76.29052734 C99.95614624 73.86903381 99.95614624 73.86903381 99.94750977 71.14233398 C99.93424652 70.11769547 99.92098328 69.09305695 99.90731812 68.03736877 C99.91488632 66.38570961 99.91488632 66.38570961 99.92260742 64.70068359 C99.91081451 63.56400742 99.89902161 62.42733124 99.88687134 61.25621033 C99.85154601 57.62167718 99.84243584 53.98771827 99.83666992 50.35302734 C99.82032621 46.72207967 99.79826943 43.09138945 99.76504517 39.46055603 C99.74542542 37.20131554 99.73607916 34.94195719 99.73812866 32.68263245 C99.73116974 31.65484177 99.72421082 30.62705109 99.71704102 29.56811523 C99.71578217 28.6675087 99.71452332 27.76690216 99.71322632 26.83900452 C99.42259556 23.89467125 98.92124693 21.87428956 97.46166992 19.29052734 C93.12863168 16.5420684 88.12211413 17.0087004 83.16088867 17.03173828 C82.23184723 17.02823364 81.30280579 17.024729 80.34561157 17.02111816 C77.28005462 17.01232844 74.21472915 17.01814032 71.14916992 17.02490234 C69.01595007 17.0235549 66.88273052 17.02161371 64.74951172 17.019104 C60.28081333 17.01615648 55.81219494 17.0204385 51.34350586 17.02978516 C45.61687349 17.04117942 39.89042859 17.03461797 34.1638031 17.02264023 C29.75946644 17.01541165 25.35517419 17.01771417 20.95083618 17.02289581 C18.83932473 17.02422954 16.72780923 17.02259428 14.61630249 17.01793671 C11.66491012 17.01285516 8.71382097 17.02060478 5.76245117 17.03173828 C4.89061188 17.02768982 4.01877258 17.02364136 3.12051392 17.01947021 C-2.98364551 17.00709225 -2.98364551 17.00709225 -8.53833008 19.29052734 C-11.28678902 23.62356559 -10.82015702 28.63008313 -10.79711914 33.59130859 C-10.80062378 34.52035004 -10.80412842 35.44939148 -10.80773926 36.40658569 C-10.81652898 39.47214265 -10.8107171 42.53746811 -10.80395508 45.60302734 C-10.80530252 47.73624719 -10.80724371 49.86946675 -10.80975342 52.00268555 C-10.81270094 56.47138394 -10.80841892 60.94000232 -10.79907227 65.40869141 C-10.78767801 71.13532378 -10.79423945 76.86176867 -10.80621719 82.58839417 C-10.81344577 86.99273083 -10.81114326 91.39702308 -10.80596161 95.80136108 C-10.80462788 97.91287254 -10.80626314 100.02438803 -10.81092072 102.13589478 C-10.81600226 105.08728714 -10.80825264 108.03837629 -10.79711914 110.98974609 C-10.8011676 111.86158539 -10.80521606 112.73342468 -10.80938721 113.63168335 C-10.82176517 119.73584278 -10.82176517 119.73584278 -8.53833008 125.29052734 C-4.20529183 128.03898629 0.80122571 127.57235429 5.76245117 127.54931641 C6.69149261 127.55282104 7.62053406 127.55632568 8.57772827 127.55993652 C11.64328523 127.56872624 14.70861069 127.56291437 17.77416992 127.55615234 C19.90738977 127.55749979 22.04060932 127.55944098 24.17382812 127.56195068 C28.64252652 127.56489821 33.1111449 127.56061619 37.57983398 127.55126953 C43.30646636 127.53987527 49.03291125 127.54643672 54.75953674 127.55841446 C59.16387341 127.56564304 63.56816566 127.56334052 67.97250366 127.55815887 C70.08401512 127.55682515 72.19553061 127.55846041 74.30703735 127.56311798 C77.25842972 127.56819953 80.20951887 127.56044991 83.16088867 127.54931641 C84.03272797 127.55336487 84.90456726 127.55741333 85.80282593 127.56158447 C90.09447316 127.53160777 93.61022465 127.42613 97.46166992 125.29052734 C100.7157606 120.25161723 99.81902635 113.3002139 99.85229492 107.50732422 C100.02868164 100.91732042 100.02868164 100.91732042 102.25073242 97.70068359 C104.57194432 96.22019332 105.73689706 95.74795277 108.46166992 95.79052734 C109.45166992 95.77505859 109.45166992 95.77505859 110.46166992 95.75927734 C113.39743765 96.53909065 114.5565184 97.95150047 116.46166992 100.29052734 C116.97924805 103.09619141 116.97924805 103.09619141 116.99291992 106.30615234 C117.0006543 108.05992187 117.0006543 108.05992187 117.00854492 109.84912109 C116.99307617 111.06728516 116.97760742 112.28544922 116.96166992 113.54052734 C116.98487305 115.34457031 116.98487305 115.34457031 117.00854492 117.18505859 C116.97212154 125.48048441 116.01700989 131.23334018 110.49682617 137.53271484 C109.84584961 138.07154297 109.19487305 138.61037109 108.52416992 139.16552734 C107.87577148 139.71982422 107.22737305 140.27412109 106.55932617 140.84521484 C100.88776087 144.75299727 95.59312802 144.58711189 88.92333984 144.58105469 C87.86256729 144.58777191 86.80179474 144.59448914 85.70887756 144.60140991 C82.20325023 144.62040254 78.69781425 144.62431485 75.19213867 144.62646484 C72.7522219 144.63289211 70.3123059 144.63962042 67.87239075 144.64663696 C62.75719415 144.65861307 57.6420651 144.66231746 52.52685547 144.66113281 C45.97983035 144.66092966 39.43323949 144.6882269 32.88631725 144.72267723 C27.84619669 144.74494092 22.8061807 144.7489705 17.76601601 144.74791336 C15.35274065 144.7502703 12.93946245 144.75909897 10.52623558 144.77457809 C7.14657779 144.79422544 3.76785724 144.78840398 0.38818359 144.77636719 C-1.09976212 144.79322571 -1.09976212 144.79322571 -2.61776733 144.8104248 C-9.90290213 144.74466245 -15.25044355 143.17172408 -20.78051758 138.32568359 C-21.58875977 137.34921875 -21.58875977 137.34921875 -22.41333008 136.35302734 C-22.96762695 135.70462891 -23.52192383 135.05623047 -24.09301758 134.38818359 C-28.0008 128.71661829 -27.83491462 123.42198544 -27.82885742 116.75219727 C-27.83557465 115.69142471 -27.84229187 114.63065216 -27.84921265 113.53773499 C-27.86820527 110.03210766 -27.87211758 106.52667167 -27.87426758 103.02099609 C-27.88069485 100.58107932 -27.88742315 98.14116332 -27.8944397 95.70124817 C-27.9064158 90.58605157 -27.91012019 85.47092252 -27.90893555 80.35571289 C-27.9087324 73.80868777 -27.93602963 67.26209691 -27.97047997 60.71517467 C-27.99274365 55.67505412 -27.99677323 50.63503813 -27.99571609 45.59487343 C-27.99807303 43.18159807 -28.00690171 40.76831987 -28.02238083 38.355093 C-28.04202818 34.97543521 -28.03620672 31.59671466 -28.02416992 28.21704102 C-28.03540894 27.22507721 -28.04664795 26.2331134 -28.05822754 25.21109009 C-27.99246518 17.92595529 -26.41952681 12.57841387 -21.57348633 7.04833984 C-20.92250977 6.50951172 -20.2715332 5.97068359 -19.60083008 5.41552734 C-18.95243164 4.86123047 -18.3040332 4.30693359 -17.63598633 3.73583984 C-11.96442103 -0.17194258 -6.66978817 -0.0060572 0 0 Z " fill="#000000" transform="translate(379.538330078125,263.70947265625)"/>
<path d="M0 0 C1.06077255 -0.00671722 2.1215451 -0.01343445 3.21446228 -0.02035522 C6.72008961 -0.03934785 10.2255256 -0.04326016 13.73120117 -0.04541016 C16.17111795 -0.05183742 18.61103395 -0.05856573 21.0509491 -0.06558228 C26.1661457 -0.07755838 31.28127474 -0.08126277 36.39648438 -0.08007812 C42.94350949 -0.07987497 49.49010035 -0.10717221 56.03702259 -0.14162254 C61.07714315 -0.16388623 66.11715914 -0.16791581 71.15732384 -0.16685867 C73.5705992 -0.16921561 75.9838774 -0.17804428 78.39710426 -0.19352341 C81.77676205 -0.21317076 85.1554826 -0.2073493 88.53515625 -0.1953125 C89.52712006 -0.20655151 90.51908386 -0.21779053 91.54110718 -0.22937012 C98.82624198 -0.16360776 104.17378339 1.40933061 109.70385742 6.25537109 C110.24268555 6.90634766 110.78151367 7.55732422 111.33666992 8.22802734 C111.8909668 8.87642578 112.44526367 9.52482422 113.01635742 10.19287109 C116.92413985 15.8644364 116.75825447 21.15906925 116.75219727 27.82885742 C116.75891449 28.88962997 116.76563171 29.95040253 116.77255249 31.0433197 C116.79154512 34.54894703 116.79545743 38.05438302 116.79760742 41.56005859 C116.80403469 43.99997537 116.810763 46.43989137 116.81777954 48.87980652 C116.82975564 53.99500312 116.83346004 59.11013217 116.83227539 64.2253418 C116.83207224 70.77236692 116.85936947 77.31895777 116.89381981 83.86588001 C116.9160835 88.90600057 116.92011308 93.94601656 116.91905594 98.98618126 C116.92141287 101.39945662 116.93024155 103.81273482 116.94572067 106.22596169 C116.96536802 109.60561948 116.95954656 112.98434002 116.94750977 116.36401367 C116.95874878 117.35597748 116.96998779 118.34794128 116.98156738 119.3699646 C116.91580503 126.6550994 115.34286665 132.00264081 110.49682617 137.53271484 C109.84584961 138.07154297 109.19487305 138.61037109 108.52416992 139.16552734 C107.87577148 139.71982422 107.22737305 140.27412109 106.55932617 140.84521484 C100.88776087 144.75299727 95.59312802 144.58711189 88.92333984 144.58105469 C87.86256729 144.58777191 86.80179474 144.59448914 85.70887756 144.60140991 C82.20325023 144.62040254 78.69781425 144.62431485 75.19213867 144.62646484 C72.7522219 144.63289211 70.3123059 144.63962042 67.87239075 144.64663696 C62.75719415 144.65861307 57.6420651 144.66231746 52.52685547 144.66113281 C45.97983035 144.66092966 39.43323949 144.6882269 32.88631725 144.72267723 C27.84619669 144.74494092 22.8061807 144.7489705 17.76601601 144.74791336 C15.35274065 144.7502703 12.93946245 144.75909897 10.52623558 144.77457809 C7.14657779 144.79422544 3.76785724 144.78840398 0.38818359 144.77636719 C-1.09976212 144.79322571 -1.09976212 144.79322571 -2.61776733 144.8104248 C-9.90290213 144.74466245 -15.25044355 143.17172408 -20.78051758 138.32568359 C-21.58875977 137.34921875 -21.58875977 137.34921875 -22.41333008 136.35302734 C-22.96762695 135.70462891 -23.52192383 135.05623047 -24.09301758 134.38818359 C-27.0056389 130.1609467 -27.7909963 126.46063101 -27.82885742 121.37036133 C-27.84161713 120.20242538 -27.85437683 119.03448944 -27.86752319 117.8311615 C-27.86974884 116.57896317 -27.87197449 115.32676483 -27.87426758 114.03662109 C-27.88092438 112.74361588 -27.88758118 111.45061066 -27.8944397 110.11842346 C-27.90638572 107.38742734 -27.91012302 104.6565575 -27.90893555 101.92553711 C-27.90873186 98.42933341 -27.93609504 94.93393809 -27.97047997 91.43792629 C-27.99807418 88.09581188 -27.99689696 84.75384801 -27.99926758 81.41162109 C-28.01363861 80.15739853 -28.02800964 78.90317596 -28.04281616 77.61094666 C-28.0366629 76.44616287 -28.03050964 75.28137909 -28.02416992 74.08129883 C-28.02701996 73.05713364 -28.02987 72.03296844 -28.0328064 70.97776794 C-27.40924529 67.58901368 -26.19613115 66.41114955 -23.53833008 64.29052734 C-21.53833008 63.75927734 -21.53833008 63.75927734 -19.53833008 63.79052734 C-18.54833008 63.77505859 -18.54833008 63.77505859 -17.53833008 63.75927734 C-14.63178933 64.53132723 -13.44634748 66.00090952 -11.53833008 68.29052734 C-11.0328064 70.71202087 -11.0328064 70.71202087 -11.02416992 73.4387207 C-11.00427505 74.97567848 -11.00427505 74.97567848 -10.98397827 76.54368591 C-10.98902374 77.64479202 -10.99406921 78.74589813 -10.99926758 79.88037109 C-10.98747467 81.01704727 -10.97568176 82.15372345 -10.96353149 83.32484436 C-10.92820617 86.95937751 -10.919096 90.59333642 -10.91333008 94.22802734 C-10.89698637 97.85897502 -10.87492959 101.48966524 -10.84170532 105.12049866 C-10.82208558 107.37973914 -10.81273932 109.63909749 -10.81478882 111.89842224 C-10.8078299 112.92621292 -10.80087097 113.9540036 -10.79370117 115.01293945 C-10.79244232 115.91354599 -10.79118347 116.81415253 -10.78988647 117.74205017 C-10.49925571 120.68638344 -9.99790708 122.70676513 -8.53833008 125.29052734 C-4.20529183 128.03898629 0.80122571 127.57235429 5.76245117 127.54931641 C6.69149261 127.55282104 7.62053406 127.55632568 8.57772827 127.55993652 C11.64328523 127.56872624 14.70861069 127.56291437 17.77416992 127.55615234 C19.90738977 127.55749979 22.04060932 127.55944098 24.17382812 127.56195068 C28.64252652 127.56489821 33.1111449 127.56061619 37.57983398 127.55126953 C43.30646636 127.53987527 49.03291125 127.54643672 54.75953674 127.55841446 C59.16387341 127.56564304 63.56816566 127.56334052 67.97250366 127.55815887 C70.08401512 127.55682515 72.19553061 127.55846041 74.30703735 127.56311798 C77.25842972 127.56819953 80.20951887 127.56044991 83.16088867 127.54931641 C84.03272797 127.55336487 84.90456726 127.55741333 85.80282593 127.56158447 C91.90698536 127.57396244 91.90698536 127.57396244 97.46166992 125.29052734 C100.21012887 120.9574891 99.74349687 115.95097156 99.72045898 110.98974609 C99.72396362 110.06070465 99.72746826 109.13166321 99.7310791 108.17446899 C99.73986882 105.10891204 99.73405695 102.04358658 99.72729492 98.97802734 C99.72864236 96.84480749 99.73058356 94.71158794 99.73309326 92.57836914 C99.73604079 88.10967075 99.73175876 83.64105237 99.72241211 79.17236328 C99.71101785 73.44573091 99.7175793 67.71928602 99.72955704 61.99266052 C99.73678562 57.58832386 99.7344831 53.18403161 99.72930145 48.7796936 C99.72796772 46.66818215 99.72960299 44.55666665 99.73426056 42.44515991 C99.73934211 39.49376755 99.73159249 36.54267839 99.72045898 33.59130859 C99.72450745 32.7194693 99.72855591 31.84763 99.73272705 30.94937134 C99.74510502 24.84521191 99.74510502 24.84521191 97.46166992 19.29052734 C93.12863168 16.5420684 88.12211413 17.0087004 83.16088867 17.03173828 C82.23184723 17.02823364 81.30280579 17.024729 80.34561157 17.02111816 C77.28005462 17.01232844 74.21472915 17.01814032 71.14916992 17.02490234 C69.01595007 17.0235549 66.88273052 17.02161371 64.74951172 17.019104 C60.28081333 17.01615648 55.81219494 17.0204385 51.34350586 17.02978516 C45.61687349 17.04117942 39.89042859 17.03461797 34.1638031 17.02264023 C29.75946644 17.01541165 25.35517419 17.01771417 20.95083618 17.02289581 C18.83932473 17.02422954 16.72780923 17.02259428 14.61630249 17.01793671 C11.66491012 17.01285516 8.71382097 17.02060478 5.76245117 17.03173828 C4.89061188 17.02768982 4.01877258 17.02364136 3.12051392 17.01947021 C-1.17113331 17.04944692 -4.6868848 17.15492469 -8.53833008 19.29052734 C-11.79242076 24.32943745 -10.89568651 31.28084079 -10.92895508 37.07373047 C-11.1053418 43.66373426 -11.1053418 43.66373426 -13.32739258 46.88037109 C-15.64860448 48.36086137 -16.81355721 48.83310192 -19.53833008 48.79052734 C-20.52833008 48.80599609 -20.52833008 48.80599609 -21.53833008 48.82177734 C-24.47409781 48.04196404 -25.63317855 46.62955422 -27.53833008 44.29052734 C-28.0559082 41.48486328 -28.0559082 41.48486328 -28.06958008 38.27490234 C-28.07473633 37.10572266 -28.07989258 35.93654297 -28.08520508 34.73193359 C-28.06200195 32.9046875 -28.06200195 32.9046875 -28.03833008 31.04052734 C-28.05379883 29.83783203 -28.06926758 28.63513672 -28.08520508 27.39599609 C-28.04878169 19.10057027 -27.09367005 13.34771451 -21.57348633 7.04833984 C-20.92250977 6.50951172 -20.2715332 5.97068359 -19.60083008 5.41552734 C-18.95243164 4.86123047 -18.3040332 4.30693359 -17.63598633 3.73583984 C-11.96442103 -0.17194258 -6.66978817 -0.0060572 0 0 Z " fill="#000000" transform="translate(379.538330078125,15.70947265625)"/>
<path d="M0 0 C0.87479004 -0.0112793 1.74958008 -0.02255859 2.65087891 -0.03417969 C4.07859619 -0.0220343 4.07859619 -0.0220343 5.53515625 -0.00964355 C6.54368652 -0.01665283 7.5522168 -0.02366211 8.59130859 -0.03088379 C11.92703739 -0.04849761 15.26191873 -0.03682853 18.59765625 -0.02331543 C20.91406416 -0.02600936 23.23047097 -0.02989094 25.546875 -0.03491211 C30.40245323 -0.04081177 35.25773721 -0.03222881 40.11328125 -0.0135498 C46.34130271 0.00923961 52.5686347 -0.00388091 58.79663086 -0.02783966 C63.5801311 -0.04228475 68.36346752 -0.03769748 73.14697266 -0.02732849 C75.44352296 -0.02465766 77.74008808 -0.02794343 80.03662109 -0.0372467 C83.24486765 -0.0473907 86.45199331 -0.03194026 89.66015625 -0.00964355 C91.08787354 -0.02178894 91.08787354 -0.02178894 92.54443359 -0.03417969 C93.85661865 -0.01726074 93.85661865 -0.01726074 95.1953125 0 C95.95336182 0.0015081 96.71141113 0.0030162 97.49243164 0.00457001 C100.5420827 0.73374934 101.72103262 2.03013215 103.59765625 4.50793457 C104.10102081 7.11291504 104.10102081 7.11291504 104.10559082 10.12512207 C104.11687012 11.26916504 104.12814941 12.41320801 104.13977051 13.59191895 C104.13167358 14.8429541 104.12357666 16.09398926 104.11523438 17.38293457 C104.12065593 18.71692672 104.12777879 20.05091287 104.13647461 21.3848877 C104.15470738 25.00478805 104.14764099 28.62423231 104.13495827 32.24414062 C104.1248302 36.03260527 104.1342234 39.82103089 104.14050293 43.60949707 C104.14777993 49.97154755 104.13819038 56.33341229 104.11914062 62.69543457 C104.09737161 70.05053594 104.10442296 77.4051938 104.12644625 84.76028442 C104.14459887 91.07548824 104.1471593 97.39055855 104.13669157 103.70578003 C104.13045581 107.4774706 104.12962307 111.24895271 104.14283752 115.02062988 C104.1543936 118.5666581 104.14637569 122.1121146 104.1232605 125.65808105 C104.11544939 127.58002944 104.12733147 129.50202619 104.13977051 131.4239502 C104.12285156 133.14001465 104.12285156 133.14001465 104.10559082 134.89074707 C104.10408272 135.88477539 104.10257462 136.87880371 104.10102081 137.9029541 C103.44808017 141.28201124 102.32932149 142.46147328 99.59765625 144.50793457 C97.49243164 145.01129913 97.49243164 145.01129913 95.1953125 145.01586914 C93.88312744 145.03278809 93.88312744 145.03278809 92.54443359 145.05004883 C91.59262207 145.0419519 90.64081055 145.03385498 89.66015625 145.0255127 C88.65162598 145.03252197 87.6430957 145.03953125 86.60400391 145.04675293 C83.26827511 145.06436675 79.93339377 145.05269767 76.59765625 145.03918457 C74.28124834 145.0418785 71.96484153 145.04576008 69.6484375 145.05078125 C64.79285927 145.05668091 59.93757529 145.04809795 55.08203125 145.02941895 C48.85400979 145.00662953 42.6266778 145.01975005 36.39868164 145.0437088 C31.6151814 145.0581539 26.83184498 145.05356662 22.04833984 145.04319763 C19.75178954 145.0405268 17.45522442 145.04381257 15.15869141 145.05311584 C11.95044485 145.06325984 8.74331919 145.0478094 5.53515625 145.0255127 C4.58334473 145.03360962 3.6315332 145.04170654 2.65087891 145.05004883 C1.77608887 145.03876953 0.90129883 145.02749023 0 145.01586914 C-0.75804932 145.01436104 -1.51609863 145.01285294 -2.29711914 145.01129913 C-5.3467702 144.2821198 -6.52572012 142.98573699 -8.40234375 140.50793457 C-8.90570831 137.9029541 -8.90570831 137.9029541 -8.91027832 134.89074707 C-8.92155762 133.7467041 -8.93283691 132.60266113 -8.94445801 131.4239502 C-8.93636108 130.17291504 -8.92826416 128.92187988 -8.91992188 127.63293457 C-8.92534343 126.29894242 -8.93246629 124.96495627 -8.94116211 123.63098145 C-8.95939488 120.01108109 -8.95232849 116.39163683 -8.93964577 112.77172852 C-8.9295177 108.98326387 -8.9389109 105.19483825 -8.94519043 101.40637207 C-8.95246743 95.04432159 -8.94287788 88.68245685 -8.92382812 82.32043457 C-8.90205911 74.9653332 -8.90911046 67.61067534 -8.93113375 60.25558472 C-8.94928637 53.9403809 -8.9518468 47.62531059 -8.94137907 41.31008911 C-8.93514331 37.53839854 -8.93431057 33.76691643 -8.94752502 29.99523926 C-8.9590811 26.44921104 -8.95106319 22.90375454 -8.927948 19.35778809 C-8.92013689 17.4358397 -8.93201897 15.51384295 -8.94445801 13.59191895 C-8.93317871 12.44787598 -8.92189941 11.30383301 -8.91027832 10.12512207 C-8.90877022 9.13109375 -8.90726212 8.13706543 -8.90570831 7.11291504 C-7.94143447 2.122666 -4.93523344 0.00981841 0 0 Z M7.59765625 16.50793457 C7.59765625 53.46793457 7.59765625 90.42793457 7.59765625 128.50793457 C33.99765625 128.50793457 60.39765625 128.50793457 87.59765625 128.50793457 C87.59765625 91.54793457 87.59765625 54.58793457 87.59765625 16.50793457 C61.19765625 16.50793457 34.79765625 16.50793457 7.59765625 16.50793457 Z " fill="#000000" transform="translate(24.40234375,87.4920654296875)"/>
<path d="M0 0 C14.35546434 11.70990834 26.06794902 27.89121936 28.30664062 46.72021484 C29.76601625 68.44058871 26.97909464 88.67535502 12.32739258 105.62890625 C-0.87957734 120.09489289 -17.32732525 130.10586173 -37.24804688 131.03271484 C-57.93878131 131.62467515 -76.50369154 127.612305 -92.13085938 113.34521484 C-106.8738166 99.20544466 -115.50400135 82.70692505 -116.09399414 62.08496094 C-116.33065412 41.68831843 -111.22582647 23.74080029 -96.89331055 8.796875 C-71.34187485 -16.78517169 -29.7766123 -22.50418132 0 0 Z M-77.69335938 14.72021484 C-78.40105469 15.22037109 -79.10875 15.72052734 -79.83789062 16.23583984 C-89.60612736 23.86546854 -96.74620348 36.57305687 -98.69335938 48.72021484 C-100.24013888 65.37187753 -97.74716479 79.03586858 -87.69335938 92.72021484 C-87.19320312 93.42791016 -86.69304687 94.13560547 -86.17773438 94.86474609 C-78.54810568 104.63298283 -65.84051735 111.77305895 -53.69335938 113.72021484 C-37.04169669 115.26699434 -23.37770564 112.77402026 -9.69335938 102.72021484 C-8.98566406 102.22005859 -8.27796875 101.71990234 -7.54882812 101.20458984 C2.21940861 93.57496115 9.35948473 80.86737282 11.30664062 68.72021484 C12.85342013 52.06855216 10.36044604 38.4045611 0.30664062 24.72021484 C-0.19351563 24.01251953 -0.69367188 23.30482422 -1.20898438 22.57568359 C-8.83861307 12.80744686 -21.5462014 5.66737074 -33.69335938 3.72021484 C-50.34502206 2.17343534 -64.00901311 4.66640943 -77.69335938 14.72021484 Z " fill="#000000" transform="translate(259.693359375,21.27978515625)"/>
<path d="M0 0 C8.34468007 4.97590182 13.53387008 11.86345977 16.109375 21.2578125 C17.10789012 32.35758522 16.45884702 41.9922991 9.359375 51.0703125 C3.70168013 57.1280464 -3.34488592 60.84888618 -11.625 61.59375 C-22.35447774 61.83515993 -31.19802606 60.58332943 -39.359375 52.9609375 C-46.75303791 44.73737365 -48.47252567 36.02335615 -48.203125 25.24609375 C-47.72879865 16.86039919 -44.11592977 9.8548755 -37.890625 4.2578125 C-27.15195714 -3.81766573 -12.32399863 -5.91386512 0 0 Z M-29.265625 20.8828125 C-31.46970393 25.46051489 -31.6877889 29.26333661 -30.890625 34.2578125 C-28.56093569 39.09639798 -25.72921048 41.92812319 -20.890625 44.2578125 C-15.89614911 45.0549764 -12.09332739 44.83689143 -7.515625 42.6328125 C-3.93154787 39.39007605 -1.29527259 36.79305354 -0.5078125 31.859375 C-0.25178581 26.17558256 -0.95435568 22.60842595 -4.890625 18.2578125 C-9.24123845 14.32154318 -12.80839506 13.61897331 -18.4921875 13.875 C-23.42586604 14.66246009 -26.02288855 17.29873537 -29.265625 20.8828125 Z " fill="#000000" transform="translate(439.890625,306.7421875)"/>
<path d="M0 0 C5.03619191 1.00196454 9.47468313 3.5034824 14.00897217 5.83291626 C15.64958115 6.65459541 15.64958115 6.65459541 17.32333374 7.49287415 C19.62487697 8.64967004 21.92254105 9.81421242 24.2164917 10.98599243 C27.73591513 12.7823292 31.267562 14.55254588 34.80194092 16.31924438 C37.03838048 17.44729128 39.27408424 18.57679839 41.50897217 19.70791626 C42.56724213 20.23927689 43.62551208 20.77063751 44.71585083 21.31809998 C45.69091583 21.81839218 46.66598083 22.31868439 47.67059326 22.83413696 C48.53026703 23.27159744 49.3899408 23.70905792 50.27566528 24.15977478 C52.36053467 25.46963501 52.36053467 25.46963501 54.36053467 28.46963501 C54.8968983 34.10145319 54.8968983 34.10145319 54.36053467 36.46963501 C51.72889653 39.44773401 49.15414223 41.33055586 45.62713623 43.12686157 C44.69226379 43.6070575 43.75739136 44.08725342 42.79418945 44.58200073 C41.78998962 45.08632629 40.78578979 45.59065186 39.75115967 46.11026001 C38.71038269 46.6373053 37.66960571 47.16435059 36.59729004 47.70736694 C34.39712273 48.81756276 32.19477313 49.92344286 29.99041748 51.02529907 C26.62816447 52.71079719 23.27953716 54.42144467 19.93084717 56.13369751 C17.78840587 57.21078693 15.64520069 58.28635851 13.50115967 59.36026001 C12.50505676 59.8726825 11.50895386 60.38510498 10.48266602 60.91305542 C4.84765164 63.69396694 0.66500478 65.47966691 -5.63946533 64.46963501 C-8.30419905 62.41320659 -9.49055998 61.22600693 -10.1473999 57.88955688 C-10.15058228 56.91567017 -10.15376465 55.94178345 -10.15704346 54.93838501 C-10.1696521 53.83043579 -10.18226074 52.72248657 -10.19525146 51.58096313 C-10.18715454 50.38922485 -10.17905762 49.19748657 -10.17071533 47.96963501 C-10.17454224 46.74180298 -10.17836914 45.51397095 -10.18231201 44.24893188 C-10.18503375 41.65322042 -10.17765444 39.05748165 -10.16094971 36.46182251 C-10.13954608 32.48463902 -10.16074496 28.50926219 -10.18634033 24.53213501 C-10.18369711 22.01129768 -10.17857224 19.49046148 -10.17071533 16.96963501 C-10.17881226 15.77789673 -10.18690918 14.58615845 -10.19525146 13.35830688 C-10.18264282 12.25035767 -10.17003418 11.14240845 -10.15704346 10.00088501 C-10.15386108 9.02699829 -10.15067871 8.05311157 -10.1473999 7.04971313 C-9.06147333 1.53369677 -5.40525798 -0.29501213 0 0 Z M6.36053467 22.46963501 C6.36053467 29.06963501 6.36053467 35.66963501 6.36053467 42.46963501 C11.34891248 40.83389073 11.34891248 40.83389073 16.00897217 38.74307251 C16.62127686 38.43369751 17.23358154 38.12432251 17.86444092 37.80557251 C18.48190186 37.48846313 19.09936279 37.17135376 19.73553467 36.84463501 C20.37619873 36.51979126 21.01686279 36.19494751 21.67694092 35.86026001 C23.24000967 35.06706094 24.80054089 34.2688647 26.36053467 33.46963501 C26.36053467 32.80963501 26.36053467 32.14963501 26.36053467 31.46963501 C23.40545561 29.96315903 20.44596126 28.46557136 17.48553467 26.96963501 C16.64377686 26.5403772 15.80201904 26.11111938 14.93475342 25.66885376 C13.72625732 25.05977173 13.72625732 25.05977173 12.49334717 24.43838501 C11.74971924 24.06133423 11.00609131 23.68428345 10.2399292 23.29580688 C8.39754567 22.33549243 8.39754567 22.33549243 6.36053467 22.46963501 Z " fill="#000000" transform="translate(201.63946533203125,47.530364990234375)"/>
<path d="M0 0 C1.23169922 -0.02449219 2.46339844 -0.04898438 3.73242188 -0.07421875 C5.50649414 -0.08001953 5.50649414 -0.08001953 7.31640625 -0.0859375 C8.3947876 -0.09415527 9.47316895 -0.10237305 10.58422852 -0.11083984 C14.10018452 0.48783838 15.26008602 1.60983561 17.4375 4.375 C17.96875 6.375 17.96875 6.375 17.9375 8.375 C17.95296875 9.365 17.95296875 9.365 17.96875 10.375 C17.13686936 13.50678594 16.12241008 14.52026574 13.4375 16.375 C10.13039939 16.96079882 6.85259529 16.98074604 3.5 17 C-4.30768588 16.88527622 -4.30768588 16.88527622 -11.5625 19.375 C-13.91614197 23.37619135 -14.10073932 27.83435328 -14.5625 32.375 C-13.74265625 32.32859375 -12.9228125 32.2821875 -12.078125 32.234375 C-11.00046875 32.19828125 -9.9228125 32.1621875 -8.8125 32.125 C-7.21148437 32.05539063 -7.21148437 32.05539063 -5.578125 31.984375 C-2.5625 32.375 -2.5625 32.375 -0.203125 34.140625 C1.52773982 36.49789805 1.98242653 37.49970206 1.9375 40.375 C1.9478125 41.035 1.958125 41.695 1.96875 42.375 C1.18549158 45.3237376 -0.19764715 46.47841544 -2.5625 48.375 C-5.578125 48.765625 -5.578125 48.765625 -8.8125 48.625 C-9.89015625 48.58890625 -10.9678125 48.5528125 -12.078125 48.515625 C-12.89796875 48.46921875 -13.7178125 48.4228125 -14.5625 48.375 C-14.54155273 49.20225586 -14.52060547 50.02951172 -14.49902344 50.88183594 C-14.41588381 54.6294337 -14.36384469 58.37683749 -14.3125 62.125 C-14.27898437 63.42695312 -14.24546875 64.72890625 -14.2109375 66.0703125 C-14.19804687 67.32070312 -14.18515625 68.57109375 -14.171875 69.859375 C-14.15092773 71.01147461 -14.12998047 72.16357422 -14.10839844 73.35058594 C-14.65731149 77.00646493 -15.678918 78.14293862 -18.5625 80.375 C-20.5625 80.90625 -20.5625 80.90625 -22.5625 80.875 C-23.2225 80.8853125 -23.8825 80.895625 -24.5625 80.90625 C-27.51863104 80.12102769 -28.66234561 78.74994875 -30.5625 76.375 C-31.01660156 73.35058594 -31.01660156 73.35058594 -30.953125 69.859375 C-30.94023437 68.60898438 -30.92734375 67.35859375 -30.9140625 66.0703125 C-30.88054687 64.76835938 -30.84703125 63.46640625 -30.8125 62.125 C-30.79445313 60.80757812 -30.77640625 59.49015625 -30.7578125 58.1328125 C-30.71066271 54.87947692 -30.64486044 51.62760375 -30.5625 48.375 C-31.38234375 48.42140625 -32.2021875 48.4678125 -33.046875 48.515625 C-34.66335938 48.56976563 -34.66335938 48.56976563 -36.3125 48.625 C-37.37984375 48.67140625 -38.4471875 48.7178125 -39.546875 48.765625 C-43.23093728 48.28841486 -44.3145782 47.26174857 -46.5625 44.375 C-47.09375 42.375 -47.09375 42.375 -47.0625 40.375 C-47.0728125 39.715 -47.083125 39.055 -47.09375 38.375 C-46.30172269 35.39325014 -45.01576814 34.21088941 -42.5625 32.375 C-39.546875 31.984375 -39.546875 31.984375 -36.3125 32.125 C-35.23484375 32.16109375 -34.1571875 32.1971875 -33.046875 32.234375 C-31.81710937 32.30398437 -31.81710937 32.30398437 -30.5625 32.375 C-30.60890625 31.385 -30.6553125 30.395 -30.703125 29.375 C-31.1833247 15.01266356 -31.1833247 15.01266356 -26.5625 9.375 C-18.33827306 0.75587281 -11.61272433 0.01219184 0 0 Z " fill="#000000" transform="translate(438.5625,47.625)"/>
<path d="M0 0 C1.77483667 2.95806112 2.00700002 5.45300046 2.125 8.875 C1.25 11.625 1.25 11.625 -0.875 13.875 C-7.96702789 16.63259567 -15.26243956 18.1759602 -22.7121582 19.66479492 C-24.67591591 20.06016772 -26.63585153 20.47437041 -28.59570312 20.88867188 C-45.07933508 24.21541398 -45.07933508 24.21541398 -51.875 22.875 C-55.6400478 19.75952594 -55.6400478 19.75952594 -56.40625 16.875 C-56.3959375 16.215 -56.385625 15.555 -56.375 14.875 C-56.39046875 13.885 -56.39046875 13.885 -56.40625 12.875 C-55.63135213 9.95773744 -54.16825536 8.80952316 -51.875 6.875 C-49.08862305 5.91772461 -49.08862305 5.91772461 -45.88671875 5.27734375 C-44.71197998 5.03443604 -43.53724121 4.79152832 -42.3269043 4.54125977 C-40.46352417 4.18052368 -40.46352417 4.18052368 -38.5625 3.8125 C-37.29897705 3.55718506 -36.0354541 3.30187012 -34.73364258 3.03881836 C-32.23636376 2.5353153 -29.73792758 2.03751315 -27.23828125 1.54589844 C-24.46252474 0.99219788 -21.69917535 0.40818163 -18.9375 -0.2109375 C-17.65875 -0.49195313 -16.38 -0.77296875 -15.0625 -1.0625 C-14.00417969 -1.29839844 -12.94585937 -1.53429687 -11.85546875 -1.77734375 C-7.7372981 -2.25770704 -3.62310487 -2.17386292 0 0 Z " fill="#000000" transform="translate(390.875,225.125)"/>
<path d="M0 0 C2.5 1.5 2.5 1.5 4 4 C4.77403846 9.41826923 4.77403846 9.41826923 4 12 C-0.28411581 17.10391575 -5.89395744 20.88339286 -11.1875 24.875 C-12.08275391 25.55691406 -12.97800781 26.23882812 -13.90039062 26.94140625 C-16.58758378 28.9786285 -19.28892828 30.99468083 -22 33 C-22.90782227 33.67426025 -23.81564453 34.34852051 -24.75097656 35.04321289 C-26.06340332 35.99442017 -26.06340332 35.99442017 -27.40234375 36.96484375 C-28.57204712 37.81743774 -28.57204712 37.81743774 -29.76538086 38.68725586 C-33.49089486 40.87583761 -35.77673639 40.80096379 -40 40 C-42.5 38.5 -42.5 38.5 -44 36 C-44.77403846 30.58173077 -44.77403846 30.58173077 -44 28 C-39.71588419 22.89608425 -34.10604256 19.11660714 -28.8125 15.125 C-27.91724609 14.44308594 -27.02199219 13.76117188 -26.09960938 13.05859375 C-23.41241622 11.0213715 -20.71107172 9.00531917 -18 7 C-16.6382666 5.98860962 -16.6382666 5.98860962 -15.24902344 4.95678711 C-13.93659668 4.00557983 -13.93659668 4.00557983 -12.59765625 3.03515625 C-11.42795288 2.18256226 -11.42795288 2.18256226 -10.23461914 1.31274414 C-6.50910514 -0.87583761 -4.22326361 -0.80096379 0 0 Z " fill="#000000" transform="translate(356,176)"/>
<path d="M0 0 C2.5 1.5 2.5 1.5 4 4 C4.87028273 10.45693637 3.52808699 13.5235907 -0.37011719 18.64892578 C-0.99047852 19.42478027 -1.61083984 20.20063477 -2.25 21 C-2.8780957 21.81581543 -3.50619141 22.63163086 -4.15332031 23.47216797 C-5.45071364 25.15708164 -6.75513834 26.8366036 -8.06640625 28.51074219 C-9.92381949 30.90192721 -11.73568499 33.31995638 -13.53125 35.7578125 C-14.07491211 36.49515625 -14.61857422 37.2325 -15.17871094 37.9921875 C-16.20863164 39.39016563 -17.23795043 40.78858744 -18.26660156 42.1875 C-21.77426174 46.88713087 -21.77426174 46.88713087 -24 48 C-31.0521327 48.56872038 -31.0521327 48.56872038 -34.5 46.5 C-36.60272988 42.99545019 -36.76350686 39.9300152 -36 36 C-34.29182064 32.69929926 -32.06577208 29.89621885 -29.75 27 C-29.1219043 26.18418457 -28.49380859 25.36836914 -27.84667969 24.52783203 C-26.54928636 22.84291836 -25.24486166 21.1633964 -23.93359375 19.48925781 C-22.07618051 17.09807279 -20.26431501 14.68004362 -18.46875 12.2421875 C-17.92508789 11.50484375 -17.38142578 10.7675 -16.82128906 10.0078125 C-15.79136836 8.60983437 -14.76204957 7.21141256 -13.73339844 5.8125 C-9.64241904 0.33132676 -6.89051477 -0.93961565 0 0 Z " fill="#000000" transform="translate(324,136)"/>
<path d="M0 0 C0.87269531 -0.0038269 1.74539062 -0.00765381 2.64453125 -0.01159668 C4.48699092 -0.0143149 6.32948924 -0.00695994 8.171875 0.00976562 C10.99045934 0.03117752 13.80649485 0.00996199 16.625 -0.015625 C18.41667229 -0.01298171 20.20834299 -0.00785669 22 0 C22.84175781 -0.00809692 23.68351562 -0.01619385 24.55078125 -0.02453613 C30.38715618 0.06889601 30.38715618 0.06889601 33.52929688 2.43945312 C35.12144695 4.7039853 35.542797 5.7922417 35.5 8.53125 C35.5103125 9.19125 35.520625 9.85125 35.53125 10.53125 C34.72011424 13.58493756 33.53019712 14.62236769 31 16.53125 C28.00263779 17.13239553 25.04890723 17.09182764 22 17.0625 C21.12730469 17.0663269 20.25460938 17.07015381 19.35546875 17.07409668 C17.51300908 17.0768149 15.67051076 17.06945994 13.828125 17.05273438 C11.00954066 17.03132248 8.19350515 17.05253801 5.375 17.078125 C3.58332771 17.07548171 1.79165701 17.07035669 0 17.0625 C-0.84175781 17.07059692 -1.68351562 17.07869385 -2.55078125 17.08703613 C-8.38715618 16.99360399 -8.38715618 16.99360399 -11.52929688 14.62304688 C-13.12144695 12.3585147 -13.542797 11.2702583 -13.5 8.53125 C-13.51546875 7.54125 -13.51546875 7.54125 -13.53125 6.53125 C-11.69061453 -0.39820116 -5.94975317 -0.05723107 0 0 Z " fill="#000000" transform="translate(61,183.46875)"/>
<path d="M0 0 C0.87269531 -0.0038269 1.74539062 -0.00765381 2.64453125 -0.01159668 C4.48699092 -0.0143149 6.32948924 -0.00695994 8.171875 0.00976562 C10.99045934 0.03117752 13.80649485 0.00996199 16.625 -0.015625 C18.41667229 -0.01298171 20.20834299 -0.00785669 22 0 C22.84175781 -0.00809692 23.68351562 -0.01619385 24.55078125 -0.02453613 C30.38715618 0.06889601 30.38715618 0.06889601 33.52929688 2.43945312 C35.12144695 4.7039853 35.542797 5.7922417 35.5 8.53125 C35.5103125 9.19125 35.520625 9.85125 35.53125 10.53125 C34.72011424 13.58493756 33.53019712 14.62236769 31 16.53125 C28.00263779 17.13239553 25.04890723 17.09182764 22 17.0625 C21.12730469 17.0663269 20.25460938 17.07015381 19.35546875 17.07409668 C17.51300908 17.0768149 15.67051076 17.06945994 13.828125 17.05273438 C11.00954066 17.03132248 8.19350515 17.05253801 5.375 17.078125 C3.58332771 17.07548171 1.79165701 17.07035669 0 17.0625 C-0.84175781 17.07059692 -1.68351562 17.07869385 -2.55078125 17.08703613 C-8.38715618 16.99360399 -8.38715618 16.99360399 -11.52929688 14.62304688 C-13.12144695 12.3585147 -13.542797 11.2702583 -13.5 8.53125 C-13.51546875 7.54125 -13.51546875 7.54125 -13.53125 6.53125 C-11.69061453 -0.39820116 -5.94975317 -0.05723107 0 0 Z " fill="#000000" transform="translate(61,151.46875)"/>
<path d="M0 0 C1.051875 -0.00515625 2.10375 -0.0103125 3.1875 -0.015625 C4.280625 -0.00015625 5.37375 0.0153125 6.5 0.03125 C8.1396875 0.00804688 8.1396875 0.00804688 9.8125 -0.015625 C10.864375 -0.01046875 11.91625 -0.0053125 13 0 C14.43859375 0.00676758 14.43859375 0.00676758 15.90625 0.01367188 C19.21298564 0.673525 20.40908706 1.94238555 22.5 4.53125 C23.03125 6.53125 23.03125 6.53125 23 8.53125 C23.0103125 9.19125 23.020625 9.85125 23.03125 10.53125 C22.2561666 13.44921104 20.80895833 14.6243588 18.5 16.53125 C15.90625 17.04882812 15.90625 17.04882812 13 17.0625 C11.948125 17.06765625 10.89625 17.0728125 9.8125 17.078125 C8.719375 17.06265625 7.62625 17.0471875 6.5 17.03125 C4.8603125 17.05445313 4.8603125 17.05445313 3.1875 17.078125 C2.135625 17.07296875 1.08375 17.0678125 0 17.0625 C-0.9590625 17.05798828 -1.918125 17.05347656 -2.90625 17.04882812 C-6.21298564 16.388975 -7.40908706 15.12011445 -9.5 12.53125 C-10.03125 10.53125 -10.03125 10.53125 -10 8.53125 C-10.01546875 7.54125 -10.01546875 7.54125 -10.03125 6.53125 C-8.65240655 1.34030994 -4.94094259 0.02324368 0 0 Z " fill="#000000" transform="translate(73.5,119.46875)"/>
</svg>
