<svg width="80" height="80" viewBox="0 0 80 80" fill="none" xmlns="http://www.w3.org/2000/svg">
<path d="M45.5713 3.65177C45.7451 3.65147 45.9188 3.65118 46.0978 3.65088C46.2976 3.64867 46.4974 3.64647 46.7033 3.6442C46.9243 3.64572 47.1454 3.64732 47.3665 3.64899C47.5995 3.64793 47.8326 3.64654 48.0656 3.64484C48.6984 3.64128 49.3311 3.64266 49.9638 3.64514C50.6259 3.64712 51.2879 3.64528 51.9499 3.64406C53.0617 3.64264 54.1734 3.64451 55.2852 3.64823C56.5707 3.65248 57.8562 3.6511 59.1418 3.6468C60.2453 3.64326 61.3488 3.64276 62.4523 3.6448C63.1115 3.64602 63.7707 3.64618 64.4299 3.6436C65.0496 3.64135 65.6692 3.64291 66.2889 3.64742C66.5165 3.64846 66.744 3.64816 66.9715 3.64644C67.2819 3.64431 67.5923 3.64745 67.9026 3.65088C68.1633 3.65132 68.1633 3.65132 68.4292 3.65177C68.8752 3.75008 68.8752 3.75008 69.2438 4.11916C69.5498 4.61101 69.5761 4.89045 69.5712 5.46628C69.5711 5.74304 69.5711 5.74304 69.5711 6.02539C69.5678 6.22301 69.5646 6.42062 69.5613 6.62423C69.5604 6.82774 69.5595 7.03126 69.5586 7.24094C69.5562 7.78015 69.5501 8.31926 69.5432 8.85844C69.5367 9.40936 69.5339 9.9603 69.5308 10.5113C69.5241 11.5909 69.5134 12.6705 69.5002 13.7501C69.5916 13.7468 69.683 13.7435 69.7772 13.7402C70.1927 13.7271 70.6081 13.719 71.0237 13.711C71.1675 13.7058 71.3113 13.7005 71.4595 13.6951C71.6679 13.6921 71.6679 13.6921 71.8806 13.689C72.0721 13.6841 72.0721 13.6841 72.2674 13.6791C72.7657 13.7779 72.9324 13.9843 73.2502 14.3751C73.3286 14.7806 73.3286 14.7806 73.3289 15.2506C73.3305 15.43 73.3321 15.6094 73.3338 15.7942C73.3324 15.9914 73.331 16.1885 73.3296 16.3917C73.3303 16.6032 73.3313 16.8147 73.3326 17.0262C73.3352 17.6079 73.3339 18.1896 73.3319 18.7713C73.3305 19.3984 73.3327 20.0256 73.3344 20.6527C73.3372 21.8815 73.3366 23.1103 73.3348 24.339C73.3334 25.3375 73.3332 26.3359 73.3339 27.3344C73.334 27.4763 73.3341 27.6183 73.3342 27.7646C73.3344 28.053 73.3346 28.3414 73.3348 28.6298C73.3366 31.3356 73.3345 34.0413 73.3311 36.7471C73.3284 39.0701 73.3288 41.393 73.3317 43.7159C73.3351 46.4119 73.3364 49.1078 73.3345 51.8038C73.3343 52.0911 73.3341 52.3784 73.3339 52.6658C73.3337 52.8779 73.3337 52.8779 73.3336 53.0942C73.333 54.0918 73.334 55.0893 73.3354 56.0868C73.3372 57.3021 73.3367 58.5173 73.3334 59.7325C73.3317 60.3529 73.3311 60.9732 73.3332 61.5935C73.335 62.161 73.334 62.7284 73.3307 63.2959C73.3296 63.5993 73.3317 63.9026 73.3338 64.2059C73.3314 64.475 73.3314 64.475 73.3289 64.7495C73.3288 64.9046 73.3287 65.0597 73.3286 65.2196C73.2273 65.7437 73.0452 65.9291 72.6252 66.2501C72.1765 66.3101 71.7883 66.3319 71.34 66.3252C71.2093 66.3258 71.0786 66.3263 70.9439 66.3269C70.5053 66.3279 70.0669 66.3244 69.6283 66.321C69.3141 66.3209 69 66.321 68.6859 66.3213C67.8324 66.3215 66.9789 66.3178 66.1254 66.3135C65.2337 66.3096 64.342 66.3092 63.4503 66.3084C61.7614 66.3065 60.0725 66.3014 58.3837 66.2951C56.4611 66.2881 54.5385 66.2847 52.6159 66.2815C48.6607 66.275 44.7055 66.2639 40.7502 66.2501C40.7502 67.0751 40.7502 67.9001 40.7502 68.7501C41.0186 68.749 41.287 68.748 41.5636 68.7469C44.0904 68.7374 46.6172 68.7304 49.144 68.7258C50.4431 68.7234 51.7422 68.7201 53.0413 68.7147C54.1736 68.71 55.3059 68.707 56.4382 68.706C57.0378 68.7054 57.6373 68.7039 58.2369 68.7005C58.8013 68.6973 59.3657 68.6964 59.9301 68.6971C60.2358 68.6969 60.5415 68.6944 60.8472 68.6918C61.0297 68.6924 61.2122 68.693 61.4002 68.6937C61.5585 68.6933 61.7168 68.6928 61.8799 68.6924C62.3878 68.7601 62.6822 68.9186 63.094 69.2188C63.3514 69.7337 63.2824 70.3066 63.2875 70.8729C63.2887 71.0062 63.29 71.1395 63.2913 71.2769C63.2935 71.5593 63.2951 71.8417 63.2964 72.1241C63.299 72.5559 63.3059 72.9875 63.3128 73.4193C63.3144 73.6935 63.3157 73.9678 63.3168 74.242C63.3209 74.4357 63.3209 74.4357 63.3251 74.6332C63.3244 74.8146 63.3244 74.8146 63.3237 74.9997C63.325 75.1586 63.325 75.1586 63.3264 75.3207C63.2128 75.7747 62.983 75.9556 62.6252 76.2501C62.2197 76.3284 62.2197 76.3284 61.7497 76.3287C61.5703 76.3304 61.3909 76.332 61.2061 76.3337C61.0089 76.3323 60.8118 76.3309 60.6086 76.3294C60.3971 76.3302 60.1857 76.3312 59.9742 76.3324C59.3924 76.335 58.8108 76.3337 58.229 76.3318C57.6019 76.3304 56.9748 76.3326 56.3476 76.3343C55.1188 76.3371 53.8901 76.3364 52.6613 76.3346C51.6628 76.3332 50.6644 76.333 49.666 76.3337C49.453 76.3339 49.453 76.3339 49.2357 76.334C48.9473 76.3342 48.6589 76.3344 48.3706 76.3346C45.6648 76.3364 42.959 76.3343 40.2532 76.331C37.9303 76.3282 35.6073 76.3287 33.2844 76.3316C30.5885 76.3349 27.8925 76.3362 25.1966 76.3343C24.9092 76.3341 24.6219 76.3339 24.3345 76.3337C24.1931 76.3336 24.0518 76.3335 23.9061 76.3334C22.9086 76.3329 21.911 76.3338 20.9135 76.3353C19.6983 76.337 18.483 76.3365 17.2678 76.3332C16.6475 76.3316 16.0272 76.3309 15.4068 76.333C14.8393 76.3349 14.2719 76.3338 13.7044 76.3305C13.4011 76.3295 13.0977 76.3315 12.7944 76.3337C12.5253 76.3312 12.5253 76.3312 12.2508 76.3287C12.0957 76.3286 11.9406 76.3285 11.7808 76.3284C11.2626 76.2283 11.0764 76.031 10.7502 75.6251C10.6719 75.3158 10.6719 75.3158 10.6719 74.9878C10.6704 74.8643 10.6689 74.7407 10.6674 74.6134C10.6692 74.4814 10.6709 74.3493 10.6727 74.2133C10.6725 74.0766 10.6723 73.9399 10.672 73.799C10.6723 73.5105 10.6741 73.2219 10.6773 72.9334C10.6819 72.4913 10.6806 72.0495 10.6785 71.6074C10.6795 71.327 10.6808 71.0465 10.6825 70.7661C10.682 70.6337 10.6816 70.5014 10.6811 70.3651C10.6959 69.4434 10.6959 69.4434 10.9593 69.1119C11.4641 68.7123 11.9453 68.7307 12.5627 68.7313C12.7448 68.7311 12.9269 68.7309 13.1145 68.7306C13.3144 68.7312 13.5143 68.7318 13.7203 68.7323C13.9328 68.7324 14.1453 68.7324 14.3578 68.7323C14.935 68.7322 15.5122 68.7331 16.0894 68.7342C16.6924 68.7352 17.2955 68.7353 17.8986 68.7355C19.0408 68.736 20.1829 68.7373 21.3251 68.7388C22.6253 68.7406 23.9255 68.7414 25.2258 68.7422C27.9006 68.7439 30.5754 68.7466 33.2502 68.7501C33.2502 67.9251 33.2502 67.1001 33.2502 66.2501C32.8523 66.2515 32.4544 66.2529 32.0443 66.2543C28.3011 66.267 24.5579 66.2764 20.8147 66.2825C18.8901 66.2857 16.9655 66.2901 15.0409 66.2972C13.3637 66.3035 11.6866 66.3075 10.0095 66.3089C9.12112 66.3097 8.23279 66.3116 7.34444 66.3162C6.50878 66.3204 5.67316 66.3217 4.83748 66.3208C4.53035 66.3209 4.22321 66.3222 3.91609 66.3246C3.4975 66.3277 3.07909 66.327 2.6605 66.3252C2.5383 66.3271 2.4161 66.3289 2.29019 66.3308C1.77214 66.325 1.44974 66.307 1.03174 65.9875C0.683301 65.5389 0.671963 65.313 0.671595 64.7495C0.669965 64.5701 0.668334 64.3908 0.666655 64.2059C0.668049 64.0088 0.669443 63.8116 0.670879 63.6085C0.67016 63.397 0.669165 63.1855 0.667923 62.974C0.665309 62.3923 0.666609 61.8106 0.668543 61.2289C0.669954 60.6017 0.667774 59.9746 0.666054 59.3475C0.663271 58.1187 0.663877 56.8899 0.665687 55.6611C0.667097 54.6627 0.667288 53.6642 0.666607 52.6658C0.666511 52.5238 0.66642 52.3818 0.666321 52.2356C0.666121 51.9472 0.665916 51.6588 0.665711 51.3704C0.663927 48.6646 0.665978 45.9588 0.669335 43.253C0.672127 40.9301 0.671644 38.6072 0.668762 36.2843C0.665419 33.5883 0.6641 30.8924 0.666021 28.1964C0.66622 27.9091 0.666413 27.6217 0.666607 27.3344C0.666703 27.193 0.666803 27.0516 0.666903 26.9059C0.667443 25.9084 0.666532 24.9109 0.665062 23.9134C0.663311 22.6981 0.663779 21.4829 0.667112 20.2676C0.668758 19.6473 0.669389 19.027 0.667327 18.4067C0.665469 17.8392 0.666483 17.2717 0.669816 16.7043C0.670849 16.4009 0.6688 16.0976 0.666655 15.7942C0.668285 15.6148 0.669916 15.4354 0.671595 15.2506C0.671696 15.0955 0.671795 14.9404 0.6719 14.7806C0.774058 14.2518 0.945682 14.0683 1.37524 13.7501C1.72939 13.6725 1.72939 13.6725 2.12565 13.6732C2.35285 13.6713 2.35285 13.6713 2.58464 13.6694C2.8336 13.6721 2.8336 13.6721 3.08759 13.6749C3.26423 13.6744 3.44087 13.6739 3.62286 13.6733C4.21692 13.6723 4.81088 13.6757 5.40494 13.6791C5.8299 13.6797 6.25486 13.6792 6.67983 13.6789C7.59586 13.6785 8.51187 13.6805 9.4279 13.684C10.7523 13.6891 12.0767 13.6907 13.4012 13.6915C15.5499 13.6929 17.6986 13.697 19.8474 13.7029C21.9348 13.7087 24.0222 13.7131 26.1096 13.7157C26.2382 13.7159 26.3669 13.7161 26.4994 13.7162C27.1448 13.7171 27.7902 13.7179 28.4356 13.7186C33.7905 13.7251 39.1454 13.7361 44.5002 13.7501C44.4989 13.6363 44.4975 13.5226 44.496 13.4054C44.4835 12.3318 44.474 11.2582 44.4679 10.1846C44.4646 9.6327 44.4602 9.08084 44.4531 8.52894C44.445 7.89403 44.442 7.25918 44.4392 6.62423C44.4344 6.3278 44.4344 6.3278 44.4294 6.02539C44.4294 5.84088 44.4293 5.65637 44.4293 5.46628C44.4279 5.30424 44.4265 5.14221 44.4251 4.97526C44.5453 4.26509 44.8576 3.80907 45.5713 3.65177ZM47.1565 6.25008C47.1565 9.96258 47.1565 13.6751 47.1565 17.5001C49.3465 17.5329 49.3465 17.5329 51.5366 17.5607C51.811 17.5657 52.0854 17.571 52.3597 17.5764C52.5024 17.5774 52.6451 17.5783 52.7921 17.5793C52.9284 17.5824 53.0648 17.5856 53.2053 17.5888C53.3236 17.5905 53.4419 17.5922 53.5638 17.594C53.9609 17.6735 54.1004 17.8061 54.344 18.1251C54.4239 18.581 54.4239 18.581 54.4514 19.0919C54.4617 19.2617 54.472 19.4315 54.4825 19.6064C54.4913 19.8013 54.4913 19.8013 54.5002 20.0001C55.2297 19.4046 55.8539 18.7921 56.4564 18.0683C56.7745 17.7167 56.9359 17.6602 57.4115 17.6316C57.6728 17.628 57.6728 17.628 57.9393 17.6242C58.2391 17.6195 58.2391 17.6195 58.5448 17.6147C58.7579 17.6121 58.971 17.6095 59.1841 17.6069C59.3773 17.604 59.5705 17.6011 59.7695 17.5981C60.4935 17.5874 61.2176 17.578 61.9416 17.5684C64.3683 17.5346 64.3683 17.5346 66.844 17.5001C66.844 13.7876 66.844 10.0751 66.844 6.25008C60.3471 6.25008 53.8502 6.25008 47.1565 6.25008ZM3.25024 16.2501C3.25024 29.6563 3.25024 43.0626 3.25024 56.8751C25.5252 56.8751 47.8002 56.8751 70.7502 56.8751C70.7502 43.4688 70.7502 30.0626 70.7502 16.2501C70.3377 16.2501 69.9252 16.2501 69.5002 16.2501C69.498 16.3423 69.4957 16.4345 69.4933 16.5295C69.4817 16.9475 69.4666 17.3654 69.4514 17.7833C69.4479 17.9284 69.4444 18.0735 69.4407 18.223C69.4352 18.3625 69.4296 18.502 69.4239 18.6457C69.4199 18.7742 69.4158 18.9026 69.4115 19.035C69.3256 19.4677 69.2301 19.5824 68.8752 19.8438C68.4229 19.8977 68.4229 19.8977 67.864 19.8916C67.7621 19.8911 67.6602 19.8907 67.5551 19.8903C67.3339 19.8892 67.1126 19.8871 66.8914 19.8841C66.5405 19.8798 66.1898 19.879 65.8389 19.8794C64.8414 19.8799 63.844 19.8763 62.8465 19.8648C62.236 19.858 61.6257 19.8572 61.0152 19.8603C60.7832 19.8603 60.5512 19.858 60.3193 19.8533C59.0331 19.7944 59.0331 19.7944 57.8787 20.2652C57.6019 20.5796 57.3779 20.8952 57.1565 21.2501C56.9606 21.4652 56.7636 21.6794 56.5644 21.8916C56.4164 22.0494 56.4164 22.0494 56.2654 22.2105C56.1663 22.3157 56.0672 22.4209 55.9651 22.5294C55.8648 22.6364 55.7645 22.7435 55.6611 22.8538C53.958 24.6668 53.958 24.6668 53.2698 24.7266C52.7122 24.682 52.5445 24.613 52.1565 24.2188C52.0712 23.7784 52.0712 23.7783 52.0613 23.2502C52.0562 23.0614 52.0512 22.8725 52.046 22.678C52.0438 22.4807 52.0416 22.2834 52.0393 22.0802C52.0324 21.7815 52.0324 21.7815 52.0253 21.4768C52.0142 20.9846 52.006 20.4924 52.0002 20.0001C51.7944 19.9986 51.5886 19.9972 51.3766 19.9957C50.6139 19.9894 49.8513 19.9792 49.0887 19.9677C48.7584 19.9632 48.4282 19.9599 48.0979 19.9577C47.6235 19.9544 47.1493 19.9471 46.6749 19.939C46.527 19.9389 46.379 19.9387 46.2266 19.9385C46.0889 19.9354 45.9513 19.9323 45.8096 19.9291C45.6279 19.927 45.6279 19.927 45.4426 19.9249C45.1252 19.8438 45.1252 19.8438 44.6565 19.2188C44.6049 18.2391 44.5534 17.2595 44.5002 16.2501C30.8877 16.2501 17.2752 16.2501 3.25024 16.2501ZM3.25024 59.5313C3.25024 60.9235 3.25024 62.3157 3.25024 63.7501C25.5252 63.7501 47.8002 63.7501 70.7502 63.7501C70.7502 62.3579 70.7502 60.9657 70.7502 59.5313C48.4752 59.5313 26.2002 59.5313 3.25024 59.5313ZM35.7502 66.2501C35.7502 67.0751 35.7502 67.9001 35.7502 68.7501C36.5752 68.7501 37.4002 68.7501 38.2502 68.7501C38.2502 67.9251 38.2502 67.1001 38.2502 66.2501C37.4252 66.2501 36.6002 66.2501 35.7502 66.2501ZM13.2502 71.4063C13.2502 72.1798 13.2502 72.9532 13.2502 73.7501C28.9252 73.7501 44.6002 73.7501 60.7502 73.7501C60.7502 72.9766 60.7502 72.2032 60.7502 71.4063C45.0752 71.4063 29.4002 71.4063 13.2502 71.4063Z" fill="black"/>
<path d="M8.53043 23.514C8.71576 23.512 8.90109 23.51 9.09204 23.5079C9.29482 23.509 9.4976 23.51 9.70652 23.511C9.92265 23.5099 10.1388 23.5086 10.3549 23.5069C10.9415 23.5034 11.528 23.5039 12.1146 23.5053C12.6043 23.5061 13.0939 23.5049 13.5836 23.5038C14.7386 23.5011 15.8936 23.5017 17.0487 23.5043C18.2405 23.507 19.4323 23.5045 20.6241 23.4994C21.6474 23.4953 22.6706 23.4941 23.6938 23.4955C24.305 23.4962 24.9161 23.4959 25.5273 23.4927C26.1019 23.4898 26.6763 23.4907 27.2509 23.4946C27.5624 23.4957 27.8739 23.493 28.1854 23.4902C28.3707 23.4922 28.556 23.4942 28.747 23.4962C28.9081 23.4963 29.0691 23.4964 29.2351 23.4965C29.807 23.63 29.9696 23.8902 30.2793 24.3756C30.3587 24.7609 30.3587 24.7609 30.3602 25.1691C30.3622 25.3229 30.3641 25.4768 30.3662 25.6352C30.3649 25.7996 30.3636 25.9641 30.3623 26.1334C30.3629 26.3039 30.3635 26.4743 30.3642 26.65C30.3646 27.0098 30.3634 27.3697 30.3608 27.7295C30.3575 28.28 30.3608 28.8301 30.3648 29.3805C30.3644 29.7304 30.3636 30.0804 30.3623 30.4303C30.3636 30.5947 30.3649 30.7591 30.3662 30.9285C30.3573 31.6231 30.3482 32.0669 30.0007 32.6789C29.4294 33.1581 28.8936 33.1454 28.1656 33.1476C27.9899 33.1485 27.8143 33.1494 27.6333 33.1503C27.4412 33.1505 27.2491 33.1506 27.0513 33.1508C26.8485 33.1516 26.6457 33.1524 26.4367 33.1532C25.8808 33.1552 25.3249 33.1562 24.7689 33.1569C24.4215 33.1574 24.074 33.158 23.7265 33.1587C22.6388 33.1608 21.551 33.1624 20.4633 33.163C19.2086 33.1637 17.9539 33.1664 16.6992 33.1709C15.7286 33.1743 14.7581 33.1759 13.7875 33.1761C13.2081 33.1763 12.6288 33.1772 12.0494 33.18C11.403 33.183 10.7567 33.1823 10.1103 33.1813C9.8232 33.1835 9.8232 33.1835 9.53026 33.1857C7.88699 33.1776 7.88699 33.1776 7.15434 32.6569C6.96078 32.2698 6.97513 32.006 6.97043 31.573C6.96842 31.4123 6.96642 31.2517 6.96435 31.0862C6.9632 30.9121 6.96204 30.7379 6.96085 30.5585C6.95959 30.3801 6.95833 30.2017 6.95703 30.0178C6.95487 29.6398 6.95319 29.2618 6.95197 28.8838C6.94927 28.3049 6.94242 27.7261 6.93552 27.1472C6.93394 26.7804 6.93261 26.4136 6.93156 26.0468C6.92882 25.8733 6.92609 25.6997 6.92327 25.521C6.92372 25.3593 6.92418 25.1977 6.92465 25.0312C6.92374 24.8892 6.92282 24.7472 6.92188 24.6009C7.09938 23.7123 7.7017 23.5162 8.53043 23.514ZM9.49809 26.2506C9.49809 27.6428 9.49809 29.035 9.49809 30.4694C15.4793 30.4694 21.4606 30.4694 27.6231 30.4694C27.6231 29.0772 27.6231 27.685 27.6231 26.2506C21.6418 26.2506 15.6606 26.2506 9.49809 26.2506Z" fill="black"/>
<path d="M49.4995 24.0621C50.0522 24.5017 50.5615 24.9705 51.062 25.4683C51.1916 25.5898 51.1916 25.5898 51.3238 25.7137C52.9656 27.4041 53.7049 29.9776 53.7768 32.2652C53.6906 35.0084 52.6853 37.5126 50.7263 39.4441C48.4735 41.4623 45.7817 42.208 42.8237 42.0606C40.3184 41.8504 38.0426 40.6002 36.3745 38.7496C34.686 36.6498 33.8559 34.1053 34.0307 31.4058C34.3604 28.4679 35.6802 26.2338 37.9174 24.3257C38.7036 23.7231 39.5122 23.3161 40.437 22.9683C40.559 22.9184 40.6811 22.8684 40.8068 22.8169C43.6132 21.8486 47.0789 22.4168 49.4995 24.0621ZM38.8061 27.1187C37.4401 28.5995 36.6389 30.4517 36.7071 32.4709C36.8709 34.6305 37.7202 36.3482 39.3432 37.8121C41.1554 39.1227 42.9093 39.5291 45.1245 39.3746C46.9796 39.0057 48.7405 37.9835 49.812 36.4058C50.8982 34.5426 51.3574 32.8334 50.9893 30.6654C50.4591 28.6984 49.3562 27.1394 47.644 26.0445C44.7062 24.3888 41.2995 24.8255 38.8061 27.1187Z" fill="black"/>
<path d="M34.9716 38.1248C35.4368 38.4371 35.8206 38.8291 36.2216 39.2186C36.4202 39.4019 36.6187 39.5852 36.8173 39.7685C37.0325 39.9723 37.2473 40.1763 37.4619 40.3807C37.5674 40.4776 37.6729 40.5745 37.7817 40.6743C38.2787 41.1581 38.6219 41.5273 38.7375 42.2258C38.7168 42.9918 38.7168 42.9918 38.3212 43.3787C38.1708 43.5313 38.1708 43.5313 38.0173 43.687C37.8245 43.8728 37.8245 43.8728 37.6279 44.0623C37.4553 44.2375 37.2833 44.4131 37.1115 44.5891C36.2688 45.4482 35.4204 46.2895 34.5011 47.0671C34.0149 47.4997 33.5637 47.9671 33.1069 48.4301C32.6069 48.9343 32.0887 49.4029 31.5488 49.8631C31.1373 50.2316 30.7501 50.6224 30.3623 51.0155C29.6856 51.7003 28.9897 52.3489 28.2529 52.9686C28.124 53.0846 27.9951 53.2006 27.8623 53.3201C27.0175 53.9114 26.1627 54.1732 25.1279 54.0623C24.1018 53.8322 23.3157 53.2888 22.6279 52.4998C22.1281 51.6791 22.0343 50.7837 22.1591 49.8436C22.5118 48.6334 23.257 47.8635 24.1513 47.0115C24.2722 46.8929 24.393 46.7743 24.5175 46.6521C25.1814 46.0049 25.864 45.3857 26.5654 44.7796C26.9645 44.4269 27.3339 44.0528 27.706 43.6717C28.2788 43.0903 28.8672 42.5409 29.4882 42.0115C29.9781 41.5729 30.4351 41.1021 30.8967 40.6342C31.4164 40.1101 31.9543 39.6185 32.5162 39.1405C32.7653 38.9225 32.9948 38.6958 33.2236 38.4569C33.7975 37.8993 34.2307 37.9012 34.9716 38.1248ZM34.1904 41.2498C34.0937 41.3477 34.0937 41.3477 33.9951 41.4476C31.8487 43.6177 31.8487 43.6177 30.9018 44.4163C30.417 44.8468 29.9679 45.313 29.5128 45.7742C29.109 46.1813 28.6994 46.5718 28.2627 46.9432C27.6135 47.4958 27.0197 48.0992 26.4246 48.7089C26.0691 49.0706 25.7164 49.4031 25.3153 49.7142C24.9302 49.9827 24.9302 49.9827 24.8154 50.4783C24.7786 50.9278 24.7786 50.9278 24.9814 51.2401C25.2866 51.4381 25.2866 51.4381 25.6949 51.4128C26.4792 51.1701 26.9003 50.6481 27.4521 50.0584C27.6629 49.8379 27.8741 49.6178 28.0857 49.398C28.1904 49.2891 28.2952 49.1802 28.4032 49.068C28.8092 48.6624 29.239 48.2905 29.6745 47.9171C30.1343 47.5132 30.5597 47.078 30.9873 46.6405C31.6084 46.0115 32.2363 45.4096 32.9111 44.8381C33.7369 44.0963 34.5048 43.2898 35.2841 42.4998C35.0512 41.9068 34.6971 41.6232 34.1904 41.2498Z" fill="black"/>
<path d="M51.0439 12.6306C51.1875 12.6298 51.331 12.629 51.479 12.6282C51.9554 12.6259 52.4319 12.6249 52.9083 12.624C53.2388 12.6231 53.5693 12.6222 53.8998 12.6213C54.5934 12.6197 55.2871 12.6188 55.9808 12.6182C56.8698 12.6174 57.7588 12.6136 58.6478 12.6092C59.3308 12.6063 60.0137 12.6054 60.6967 12.6052C61.0244 12.6047 61.3522 12.6035 61.6799 12.6014C62.1385 12.5988 62.597 12.5991 63.0556 12.6001C63.1911 12.5986 63.3266 12.5972 63.4662 12.5957C64.2023 12.6008 64.6836 12.6493 65.2832 13.1245C65.5846 13.5217 65.5971 13.7157 65.5762 14.2183C65.4104 14.7865 65.2931 14.9629 64.8145 15.312C64.3271 15.4065 63.8455 15.399 63.3503 15.3954C63.128 15.3974 63.128 15.3974 62.9012 15.3994C62.4112 15.403 61.9213 15.4019 61.4313 15.4005C61.0907 15.4013 60.7502 15.4023 60.4096 15.4034C59.6957 15.4051 58.9819 15.4044 58.268 15.4021C57.353 15.3994 56.4382 15.4031 55.5232 15.4086C54.8199 15.412 54.1166 15.4118 53.4133 15.4105C53.0759 15.4103 52.7386 15.4114 52.4013 15.4137C51.9295 15.4164 51.4581 15.4142 50.9864 15.4106C50.847 15.4124 50.7076 15.4143 50.564 15.4162C49.8731 15.4056 49.5883 15.3784 49.024 14.9445C48.7207 14.5308 48.7207 14.5308 48.6328 14.062C48.74 13.4903 48.9437 13.2258 49.3457 12.812C49.8713 12.5492 50.4658 12.6313 51.0439 12.6306Z" fill="black"/>
<path d="M51.0439 8.25558C51.1875 8.25481 51.331 8.25403 51.479 8.25323C51.9554 8.25095 52.4319 8.24988 52.9083 8.24902C53.2388 8.24812 53.5693 8.24722 53.8998 8.24632C54.5934 8.24468 55.2871 8.24377 55.9808 8.24322C56.8698 8.24237 57.7588 8.23861 58.6478 8.23417C59.3308 8.23126 60.0137 8.23044 60.6967 8.2302C61.0244 8.22973 61.3522 8.22847 61.6799 8.22642C62.1385 8.22376 62.597 8.22405 63.0556 8.22507C63.1911 8.22363 63.3266 8.22219 63.4662 8.2207C64.2023 8.22581 64.6836 8.27429 65.2832 8.74951C65.5846 9.14674 65.5971 9.34067 65.5762 9.84326C65.4104 10.4115 65.2931 10.5879 64.8145 10.937C64.3271 11.0315 63.8455 11.024 63.3503 11.0204C63.128 11.0224 63.128 11.0224 62.9012 11.0244C62.4112 11.028 61.9213 11.0269 61.4313 11.0255C61.0907 11.0263 60.7502 11.0273 60.4096 11.0284C59.6957 11.0301 58.9819 11.0294 58.268 11.0271C57.353 11.0244 56.4382 11.0281 55.5232 11.0336C54.8199 11.037 54.1166 11.0368 53.4133 11.0355C53.0759 11.0353 52.7386 11.0364 52.4013 11.0387C51.9295 11.0414 51.4581 11.0392 50.9864 11.0356C50.847 11.0374 50.7076 11.0393 50.564 11.0412C49.8731 11.0306 49.5883 11.0034 49.024 10.5695C48.7207 10.1558 48.7207 10.1558 48.6328 9.68701C48.74 9.11528 48.9437 8.85081 49.3457 8.43701C49.8713 8.17422 50.4658 8.25632 51.0439 8.25558Z" fill="black"/>
<path d="M9.23184 45.4379C9.42894 45.436 9.42894 45.436 9.63003 45.4341C10.0651 45.4302 10.5001 45.4276 10.9351 45.4254C11.0837 45.4245 11.2322 45.4237 11.3853 45.4228C12.1714 45.4187 12.9574 45.4156 13.7435 45.4134C14.5556 45.4108 15.3677 45.4038 16.1798 45.3958C16.8042 45.3906 17.4285 45.3888 18.0529 45.3879C18.3523 45.3868 18.6517 45.3844 18.9511 45.3807C19.3701 45.3758 19.7888 45.3757 20.2078 45.3769C20.3314 45.3743 20.4549 45.3718 20.5822 45.3691C21.2092 45.3762 21.503 45.4418 22.0045 45.8302C22.3182 46.2493 22.3182 46.2493 22.4158 46.7962C22.2904 47.4988 22.098 47.6896 21.5369 48.1243C21.0613 48.2016 20.6733 48.2314 20.1984 48.2254C20.0654 48.2268 19.9325 48.2282 19.7955 48.2296C19.357 48.233 18.9188 48.2307 18.4803 48.2281C18.175 48.2286 17.8697 48.2294 17.5644 48.2304C16.925 48.2315 16.2857 48.2298 15.6463 48.2262C14.8271 48.2217 14.0081 48.2243 13.1889 48.229C12.5586 48.2318 11.9284 48.2309 11.2981 48.2289C10.9961 48.2284 10.6941 48.229 10.3921 48.2308C9.96974 48.2328 9.54773 48.2298 9.12541 48.2254C8.93861 48.2278 8.93861 48.2278 8.74803 48.2302C8.12029 48.2183 7.82026 48.1501 7.31751 47.7622C6.91129 47.2163 6.90874 46.9157 7.00566 46.2493C7.51155 45.3339 8.28839 45.443 9.23184 45.4379Z" fill="black"/>
<path d="M8.96747 38.6689C9.10219 38.6678 9.23691 38.6667 9.37572 38.6656C9.82084 38.6628 10.2658 38.6646 10.7109 38.6667C11.0203 38.6663 11.3297 38.6657 11.6391 38.6649C12.2875 38.664 12.9358 38.6653 13.5841 38.6683C14.4153 38.6718 15.2465 38.6698 16.0777 38.666C16.7166 38.6638 17.3554 38.6645 17.9943 38.6661C18.3008 38.6665 18.6073 38.666 18.9138 38.6646C19.3421 38.663 19.7702 38.6654 20.1985 38.6689C20.3888 38.667 20.3888 38.667 20.5828 38.665C21.1448 38.6735 21.4692 38.6988 21.9231 39.0441C22.2094 39.4417 22.3057 39.6644 22.3174 40.156C21.9616 41.037 21.9616 41.037 21.5361 41.2497C21.1009 41.2676 20.6694 41.276 20.234 41.2774C20.0993 41.2784 19.9647 41.2795 19.8259 41.2805C19.3791 41.2836 18.9324 41.2854 18.4856 41.287C18.3332 41.2876 18.1809 41.2882 18.0239 41.2889C17.2178 41.2922 16.4116 41.2944 15.6055 41.2959C14.7718 41.2976 13.9382 41.303 13.1045 41.3092C12.4643 41.3133 11.8241 41.3146 11.1839 41.3151C10.8765 41.3159 10.5692 41.3177 10.2618 41.3206C9.83195 41.3244 9.40228 41.3243 8.97243 41.3232C8.84513 41.3252 8.71784 41.3272 8.58668 41.3292C8.0194 41.324 7.69701 41.3008 7.23866 40.9522C6.98559 40.5977 6.92003 40.4304 6.92676 39.9997C6.92434 39.8451 6.92434 39.8451 6.92188 39.6872C7.19709 38.6511 8.05417 38.6598 8.96747 38.6689Z" fill="black"/>
</svg>
