<svg width="300" height="300" viewBox="0 0 300 300" fill="none" xmlns="http://www.w3.org/2000/svg">
<path fill-rule="evenodd" clip-rule="evenodd" d="M45.179 36.9166C47.1937 36.7526 49.2323 36.6666 51.2863 36.6666C91.7967 36.6666 124.633 68.994 124.633 108.864V118.29L140.406 141.582C145.403 148.96 140.028 158.848 131.016 158.848H124.633V169.947C124.63 170.68 124.481 171.405 124.196 172.081C123.911 172.756 123.494 173.37 122.97 173.886C122.446 174.402 121.825 174.81 121.142 175.088C120.459 175.366 119.728 175.507 118.99 175.504H111.851C106.263 175.457 107.703 174.954 107.703 180.582L118.99 186.611C122.106 186.611 124.633 189.096 124.633 192.16V208.824C124.628 212.644 123.629 216.398 121.733 219.721C119.837 223.045 117.108 225.826 113.811 227.794C109.781 230.217 105.444 230.537 101.627 230.045C97.8727 229.56 94.2837 228.247 91.3243 226.996L68.2083 217.25V257.776C68.2083 260.848 65.6897 263.333 62.565 263.333H45.6433C44.1543 263.34 42.7233 262.759 41.6653 261.718C40.6073 260.678 40.0083 259.263 40 257.784V42.4506C40 39.5586 42.251 37.1513 45.179 36.9166ZM99.2423 131.077C100.349 131.082 101.446 130.871 102.47 130.455C103.494 130.039 104.426 129.426 105.211 128.653C105.997 127.879 106.622 126.959 107.049 125.945C107.477 124.932 107.699 123.844 107.703 122.745C107.699 121.646 107.477 120.559 107.049 119.545C106.622 118.532 105.997 117.612 105.211 116.838C104.426 116.064 103.494 115.452 102.47 115.036C101.446 114.62 100.349 114.408 99.2423 114.413C98.1357 114.408 97.039 114.62 96.0147 115.036C94.9903 115.452 94.0587 116.064 93.273 116.838C92.487 117.612 91.8627 118.532 91.435 119.545C91.0077 120.559 90.7853 121.646 90.7813 122.745C90.7853 123.844 91.0077 124.932 91.435 125.945C91.8627 126.959 92.487 127.879 93.273 128.653C94.0587 129.426 94.9903 130.039 96.0147 130.455C97.039 130.871 98.1357 131.082 99.2423 131.077ZM161.955 193.645C164.816 191.981 167.187 189.601 168.832 186.743C170.477 183.885 171.338 180.648 171.329 177.356C171.329 170.377 167.551 164.303 161.963 161.068L169.913 147.569C175.141 150.614 179.475 154.967 182.483 160.193C185.49 165.419 187.067 171.337 187.055 177.356C187.064 183.376 185.484 189.293 182.474 194.518C179.464 199.743 175.127 204.093 169.897 207.136L161.947 193.645H161.955ZM187.826 140.91C197.373 147.765 204.457 161.2 204.457 177.356C204.457 193.512 197.373 206.948 187.826 213.803L197.058 226.465C211.281 216.249 220.198 197.764 220.198 177.356C220.198 156.956 211.281 138.463 197.058 128.24L187.826 140.91ZM214.059 233.765C227.644 223.065 237.592 202.219 237.592 177.356C237.592 152.493 227.644 131.648 214.059 120.955L223.842 108.708C241.96 122.972 253.333 148.788 253.333 177.356C253.333 205.924 241.96 231.741 223.842 246.005L214.059 233.765Z" stroke="black" stroke-width="6"/>
</svg>
