<svg width="44" height="44" viewBox="0 0 44 44" fill="none" xmlns="http://www.w3.org/2000/svg">
<path d="M29.7489 20.2816C29.0052 20.2816 28.3967 20.89 28.3967 21.6338V22.9859C28.3967 28.2054 24.1509 32.4513 18.9314 32.4513C13.712 32.4513 9.46609 28.2054 9.46609 22.9859V21.6338C9.46609 20.89 8.85761 20.2816 8.11391 20.2816C7.3702 20.2816 6.76172 20.89 6.76172 21.6338V22.9859C6.76172 29.233 11.5079 34.3984 17.5792 35.0745V37.86H13.5227C12.779 37.86 12.1705 38.4685 12.1705 39.2122C12.1705 39.9559 12.779 40.5644 13.5227 40.5644H24.3402C25.0839 40.5644 25.6923 39.9559 25.6923 39.2122C25.6923 38.4685 25.0839 37.86 24.3402 37.86H20.2836V35.0745C26.3549 34.3984 31.1011 29.233 31.1011 22.9859V21.6338C31.1011 20.89 30.4926 20.2816 29.7489 20.2816ZM33.8055 2.70312H25.6923C24.2049 2.70312 22.988 3.92009 22.988 5.4075V10.8163C22.988 12.3037 24.2049 13.5206 25.6923 13.5206V14.8728C25.6923 15.4137 26.0169 15.914 26.5307 16.1168C26.7768 16.2213 27.0484 16.2501 27.3109 16.1995C27.5734 16.1489 27.8149 16.0213 28.0046 15.8329L30.3168 13.5206H33.819C35.3064 13.5206 36.5234 12.3037 36.5234 10.8163V5.4075C36.5234 3.92009 35.3064 2.70312 33.819 2.70312H33.8055ZM29.7489 10.8163C29.3838 10.8163 29.0458 10.965 28.7889 11.2084L28.3021 11.6952C28.1128 11.1813 27.6124 10.8163 27.031 10.8163H25.6788V5.4075H33.7919V10.8163H29.7354H29.7489Z" fill="black"/>
<path d="M17.5787 29.7469H20.283C23.2714 29.7469 25.6918 27.3265 25.6918 24.3381V18.9294C25.6918 18.1857 25.0833 17.5772 24.3396 17.5772C23.5959 17.5772 22.9874 18.1857 22.9874 18.9294V20.2816H14.8743V17.5772H17.5787C18.3224 17.5772 18.9309 16.9687 18.9309 16.225C18.9309 15.4813 18.3224 14.8728 17.5787 14.8728H14.8743V12.1684H17.5787C18.3224 12.1684 18.9309 11.56 18.9309 10.8163C18.9309 10.0725 18.3224 9.46406 17.5787 9.46406H14.8743V8.11188C14.8743 6.62447 16.0913 5.4075 17.5787 5.4075H19.0661C19.8098 5.4075 20.4183 4.79902 20.4183 4.05531C20.4183 3.31161 19.8098 2.70312 19.0661 2.70312H17.5787C14.5903 2.70312 12.1699 5.12354 12.1699 8.11188V24.3381C12.1699 27.3265 14.5903 29.7469 17.5787 29.7469ZM22.9874 22.9859V24.3381C22.9874 25.8255 21.7705 27.0425 20.283 27.0425H17.5787C16.0913 27.0425 14.8743 25.8255 14.8743 24.3381V22.9859H22.9874Z" fill="black"/>
</svg>
