<svg width="300" height="300" viewBox="0 0 300 300" fill="none" xmlns="http://www.w3.org/2000/svg">
<path d="M243.074 156.714C238.055 147.618 228.32 141.905 217.739 141.905H210.593C205.255 141.905 200.149 143.348 195.73 145.945L192.771 147.685L191.119 144.675L178.909 122.431C173.89 113.334 164.154 107.619 153.572 107.619H146.426C135.846 107.619 126.111 113.332 121.092 122.428C121.091 122.429 121.091 122.43 121.09 122.431L108.88 144.675L107.228 147.685L104.269 145.945C99.8497 143.348 94.7437 141.905 89.4057 141.905H82.2597C71.6764 141.905 61.9394 147.621 56.9434 156.714L43.133 181.821C41.7567 184.332 42.681 187.476 45.3254 188.875C47.997 190.288 51.304 189.272 52.7023 186.745M243.074 156.714C243.074 156.715 243.073 156.714 243.074 156.714ZM243.074 156.714L256.853 181.818C258.231 184.325 257.304 187.477 254.676 188.877C251.996 190.286 248.712 189.275 247.306 186.743M247.306 186.743C247.306 186.742 247.307 186.743 247.306 186.743ZM247.306 186.743L237.503 168.929L231.249 170.536V184.286C231.249 188.702 227.593 192.381 222.916 192.381H205.416C200.739 192.381 197.083 188.702 197.083 184.286V170.536L190.829 168.929L181.027 186.741C181.026 186.742 181.025 186.744 181.024 186.745C179.617 189.278 176.329 190.287 173.648 188.873L173.609 188.852L173.569 188.833C170.859 187.495 170.015 184.481 171.478 181.82L184.713 157.711L185.968 155.425L184.05 153.656C183.676 153.312 183.389 152.941 183.192 152.556L183.169 152.51L183.144 152.464L173.336 134.643L167.083 136.25V155.714C167.083 160.13 163.427 163.81 158.749 163.81H140.921C136.511 163.81 132.588 160.071 132.588 155.714V136.25L126.312 134.685L117.012 152.168C116.64 152.616 116.375 153.018 116.204 153.28C116.191 153.3 116.178 153.319 116.166 153.337C116.013 153.57 115.956 153.645 115.942 153.662L114.03 155.425L115.286 157.711L128.52 181.818C129.898 184.325 128.971 187.476 126.344 188.877C123.663 190.286 120.377 189.275 118.972 186.741L118.954 186.709L108.819 168.888L102.589 170.615L102.916 184.322C102.896 188.722 99.247 192.381 94.5827 192.381H77.0827C72.4054 192.381 68.7494 188.702 68.7494 184.286V170.536L62.495 168.93L52.7023 186.745M52.7023 186.745C52.702 186.745 52.7027 186.744 52.7023 186.745ZM161.249 84.2856C161.249 90.27 156.28 95.238 149.999 95.238C143.718 95.238 138.749 90.27 138.749 84.2856C138.749 78.3013 143.718 73.3333 149.999 73.3333C156.28 73.3333 161.249 78.3013 161.249 84.2856ZM74.5827 118.571C74.5827 112.584 79.5514 107.619 85.8327 107.619C92.114 107.619 97.0827 112.584 97.0827 118.571C97.0827 124.559 92.114 129.524 85.8327 129.524C79.5514 129.524 74.5827 124.559 74.5827 118.571ZM254.999 210.476C259.677 210.476 263.333 214.155 263.333 218.571C263.333 222.987 259.677 226.667 254.999 226.667H44.9993C40.331 226.667 36.666 222.985 36.666 218.571C36.666 214.157 40.331 210.476 44.9993 210.476H254.999ZM202.916 118.571C202.916 112.584 207.885 107.619 214.166 107.619C220.447 107.619 225.416 112.584 225.416 118.571C225.416 124.559 220.447 129.524 214.166 129.524C207.885 129.524 202.916 124.559 202.916 118.571Z" stroke="black" stroke-width="6"/>
</svg>
