<svg width="80" height="80" viewBox="0 0 80 80" fill="none" xmlns="http://www.w3.org/2000/svg">
<mask id="path-1-inside-1_302_4970" fill="white">
<path fill-rule="evenodd" clip-rule="evenodd" d="M80 40C52.2223 40 40 52.2223 40 80C40 52.2223 27.7778 40 0 40C27.7778 40 40 27.7778 40 0C40 27.7778 52.2223 40 80 40Z"/>
</mask>
<path fill-rule="evenodd" clip-rule="evenodd" d="M80 40C52.2223 40 40 52.2223 40 80C40 52.2223 27.7778 40 0 40C27.7778 40 40 27.7778 40 0C40 27.7778 52.2223 40 80 40Z" fill="white"/>
<path d="M80 390C273.3 390 430 233.3 430 40C430 -153.3 273.3 -310 80 -310V40V390ZM-310 80C-310 273.3 -153.3 430 40 430C233.3 430 390 273.3 390 80H40H-310ZM0 -310C-193.3 -310 -350 -153.3 -350 40C-350 233.3 -193.3 390 0 390V40V-310ZM390 0C390 -193.3 233.3 -350 40 -350C-153.3 -350 -310 -193.3 -310 0H40H390ZM80 40V-310C23.3859 -310 -97.2328 -298.575 -197.904 -197.904C-298.575 -97.2328 -310 23.3859 -310 80H40H390C390 108.836 384.686 209.455 297.071 297.071C209.455 384.686 108.836 390 80 390V40ZM40 80H390C390 23.3862 378.575 -97.2326 277.904 -197.904C177.233 -298.575 56.614 -310 0 -310V40V390C-28.8362 390 -129.455 384.686 -217.071 297.071C-304.687 209.455 -310 108.836 -310 80H40ZM0 40V390C56.6137 390 177.233 378.575 277.904 277.904C378.575 177.233 390 56.6137 390 0H40H-310C-310 -28.8359 -304.687 -129.455 -217.071 -217.071C-129.455 -304.687 -28.8359 -310 0 -310V40ZM40 0H-310C-310 56.614 -298.575 177.233 -197.904 277.904C-97.2326 378.575 23.3862 390 80 390V40V-310C108.836 -310 209.455 -304.687 297.071 -217.071C384.686 -129.455 390 -28.8362 390 0H40Z" fill="white" mask="url(#path-1-inside-1_302_4970)"/>
</svg>
