<svg width="300" height="300" viewBox="0 0 300 300" fill="none" xmlns="http://www.w3.org/2000/svg">
<path d="M202.89 202.889V225.556H93.334C84.3167 225.556 75.6687 221.974 69.2923 215.598C62.916 209.221 59.334 200.573 59.334 191.556C59.334 182.539 62.916 173.89 69.2923 167.514C75.6687 161.138 84.3167 157.556 93.334 157.556H97.1117V142.445H93.334C80.309 142.445 67.8173 147.619 58.607 156.829C49.397 166.039 44.2227 178.531 44.2227 191.556C44.2227 204.581 49.397 217.073 58.607 226.283C67.8173 235.493 80.309 240.667 93.334 240.667H202.89V263.334H263.335V202.889H202.89ZM248.223 248.223H218.001V218H248.223V248.223Z" stroke="black" stroke-width="6"/>
<path d="M187.778 195.335H172.667V172.668H127.334V195.335H112.223V172.668C112.227 168.662 113.82 164.82 116.653 161.987C119.486 159.154 123.327 157.561 127.334 157.557H172.667C176.674 157.561 180.515 159.154 183.348 161.987C186.181 164.82 187.774 168.662 187.778 172.668V195.335ZM150.001 150.001C145.517 150.001 141.135 148.672 137.408 146.181C133.68 143.691 130.775 140.151 129.059 136.009C127.344 131.867 126.895 127.31 127.769 122.913C128.644 118.516 130.803 114.477 133.973 111.307C137.143 108.137 141.182 105.978 145.578 105.104C149.975 104.229 154.533 104.678 158.675 106.393C162.817 108.109 166.357 111.014 168.847 114.742C171.338 118.469 172.667 122.852 172.667 127.335C172.661 133.344 170.271 139.106 166.022 143.356C161.772 147.605 156.01 149.995 150.001 150.001ZM150.001 119.779C148.506 119.779 147.045 120.222 145.803 121.052C144.56 121.883 143.592 123.063 143.02 124.443C142.448 125.824 142.299 127.343 142.59 128.809C142.882 130.274 143.601 131.621 144.658 132.677C145.715 133.734 147.061 134.454 148.527 134.745C149.992 135.037 151.511 134.887 152.892 134.315C154.273 133.743 155.453 132.775 156.283 131.532C157.113 130.29 157.556 128.829 157.556 127.335C157.554 125.331 156.757 123.411 155.341 121.994C153.924 120.578 152.004 119.781 150.001 119.779Z" stroke="black" stroke-width="6"/>
<path d="M206.667 59.3334H97.1107V36.6667H36.666V97.1114H97.1107V74.4447H206.667C215.684 74.4447 224.332 78.0267 230.708 84.403C237.085 90.7794 240.667 99.4274 240.667 108.445C240.667 117.462 237.085 126.11 230.708 132.486C224.332 138.863 215.684 142.445 206.667 142.445H202.889V157.556H206.667C219.692 157.556 232.183 152.382 241.394 143.172C250.604 133.961 255.778 121.47 255.778 108.445C255.778 95.4197 250.604 82.928 241.394 73.7177C232.183 64.5077 219.692 59.3334 206.667 59.3334ZM81.9993 82H51.777V51.7777H81.9993V82Z" stroke="black" stroke-width="6"/>
</svg>
