<svg width="512" height="512" viewBox="0 0 512 512" fill="none" xmlns="http://www.w3.org/2000/svg">
<path fill-rule="evenodd" clip-rule="evenodd" d="M150.391 161.327C150.391 153.949 155.134 146.337 165.112 140.21C182.152 129.747 216.417 122.238 256 122.238C295.583 122.238 329.848 129.747 346.888 140.21C356.866 146.337 361.609 153.949 361.609 161.327V350.673C361.609 358.051 356.866 365.663 346.888 371.79C329.848 382.253 295.583 389.761 256 389.761C216.417 389.761 182.152 382.253 165.112 371.79C155.134 365.663 150.391 358.051 150.391 350.673V161.327ZM345.546 161.327C345.546 159.854 344.437 158.64 343.052 157.315C340.385 154.764 336.443 152.476 331.551 150.351C314.523 142.957 287.011 138.301 256 138.301C224.989 138.301 197.477 142.957 180.449 150.351C175.557 152.476 171.615 154.764 168.948 157.315C167.563 158.64 166.454 159.854 166.454 161.327C166.454 162.799 167.563 164.014 168.948 165.338C171.615 167.888 175.557 170.178 180.449 172.301C197.477 179.695 224.989 184.352 256 184.352C287.011 184.352 314.523 179.695 331.551 172.301C336.443 170.178 340.385 167.888 343.052 165.338C344.437 164.014 345.546 162.799 345.546 161.327ZM345.546 224.443V183.241C328.091 193.285 294.569 200.414 256 200.414C217.431 200.414 183.909 193.285 166.454 183.241V224.443C166.454 225.914 167.563 227.129 168.948 228.453C171.615 231.004 175.557 233.293 180.449 235.418C197.477 242.811 224.989 247.468 256 247.468C287.011 247.468 314.523 242.811 331.551 235.418C336.443 233.293 340.385 231.004 343.052 228.453C344.437 227.129 345.546 225.914 345.546 224.443ZM345.546 287.557V246.356C328.091 256.4 294.569 263.53 256 263.53C217.431 263.53 183.909 256.4 166.454 246.356V287.557C166.454 289.03 167.563 290.245 168.948 291.569C171.615 294.12 175.557 296.409 180.449 298.533C197.477 305.927 224.989 310.583 256 310.583C287.011 310.583 314.523 305.927 331.551 298.533C336.443 296.409 340.385 294.12 343.052 291.569C344.437 290.245 345.546 289.03 345.546 287.557ZM166.454 309.472V350.673C166.454 352.145 167.563 353.36 168.948 354.684C171.615 357.235 175.557 359.524 180.449 361.649C197.477 369.042 224.989 373.699 256 373.699C287.011 373.699 314.523 369.042 331.551 361.649C336.443 359.524 340.385 357.235 343.052 354.684C344.437 353.36 345.546 352.145 345.546 350.673V309.472C328.091 319.517 294.569 326.646 256 326.646C217.431 326.646 183.909 319.517 166.454 309.472ZM246.228 295.089C241.796 295.089 238.197 291.49 238.197 287.057C238.197 282.625 241.796 279.026 246.228 279.026H265.772C270.204 279.026 273.803 282.625 273.803 287.057C273.803 291.49 270.204 295.089 265.772 295.089H246.228ZM246.228 358.204C241.796 358.204 238.197 354.605 238.197 350.173C238.197 345.74 241.796 342.141 246.228 342.141H265.772C270.204 342.141 273.803 345.74 273.803 350.173C273.803 354.605 270.204 358.204 265.772 358.204H246.228ZM246.228 231.973C244.098 231.972 242.056 231.125 240.55 229.619C239.045 228.114 238.198 226.071 238.197 223.942C238.197 219.508 241.796 215.91 246.228 215.91H265.772C267.902 215.911 269.944 216.758 271.45 218.264C272.955 219.77 273.802 221.812 273.803 223.942C273.803 228.374 270.204 231.973 265.772 231.973H246.228ZM277.479 52.9537C283.785 53.2389 289.907 56.2828 293.902 61.7812C300.87 71.3717 298.741 84.8152 289.15 91.7834L268.625 106.696C264.956 109.362 260.536 110.799 256 110.799C251.464 110.799 247.044 109.362 243.375 106.696L222.85 91.7834C213.259 84.8152 211.13 71.3717 218.098 61.7812C222.093 56.2828 228.215 53.2389 234.521 52.9537V28.5062C234.521 16.6519 244.146 7.02734 256 7.02734C267.854 7.02734 277.479 16.6519 277.479 28.5062V52.9537ZM261.416 62.9719V28.5062C261.416 25.5166 258.99 23.0901 256 23.0901C253.01 23.0901 250.584 25.5166 250.584 28.5062V62.9719C250.583 64.4031 250.201 65.8082 249.475 67.0418C248.75 68.2754 247.708 69.2928 246.457 69.9887C245.206 70.6846 243.793 71.0337 242.362 70.9999C240.931 70.9661 239.535 70.5507 238.319 69.7965C237.157 69.0791 235.766 68.8274 234.426 69.092C233.086 69.3565 231.895 70.1178 231.093 71.2231C230.249 72.3855 229.901 73.8352 230.126 75.2537C230.35 76.6723 231.129 77.9438 232.29 78.7887L252.817 93.7009C253.742 94.3733 254.856 94.7355 256 94.7355C257.144 94.7355 258.258 94.3733 259.183 93.7009L279.71 78.7887C280.871 77.9438 281.65 76.6723 281.874 75.2537C282.099 73.8352 281.751 72.3855 280.907 71.2231C280.105 70.1178 278.914 69.3565 277.574 69.092C276.234 68.8274 274.843 69.0791 273.681 69.7965C272.465 70.551 271.069 70.9667 269.638 71.0007C268.207 71.0346 266.793 70.6856 265.542 69.9896C264.292 69.2937 263.25 68.2761 262.524 67.0423C261.799 65.8085 261.416 64.4032 261.416 62.9719ZM442.583 173.078C445.488 178.681 445.914 185.507 443.149 191.715C438.327 202.545 425.621 207.422 414.791 202.601L391.614 192.282C387.47 190.437 384.016 187.328 381.748 183.399C379.48 179.471 378.514 174.926 378.988 170.415L381.641 145.182C382.88 133.393 393.457 124.828 405.247 126.066C412.006 126.776 417.705 130.557 421.104 135.876L442.276 123.652C452.542 117.725 465.689 121.248 471.616 131.514C477.543 141.78 474.021 154.927 463.755 160.854L442.583 173.078ZM425.876 164.176L455.723 146.944C458.312 145.449 459.201 142.134 457.706 139.545C456.211 136.956 452.896 136.068 450.307 137.562L420.459 154.796C419.22 155.511 417.812 155.881 416.381 155.87C414.95 155.858 413.548 155.464 412.32 154.729C411.092 153.994 410.083 152.945 409.396 151.689C408.71 150.433 408.372 149.017 408.416 147.586C408.461 146.184 407.959 144.819 407.017 143.779C406.074 142.739 404.766 142.106 403.366 142.012C401.966 141.918 400.584 142.371 399.511 143.276C398.438 144.18 397.759 145.466 397.615 146.862L394.963 172.093C394.843 173.231 395.087 174.377 395.659 175.368C396.231 176.358 397.101 177.142 398.146 177.608L421.325 187.927C422.605 188.496 424.055 188.547 425.372 188.07C426.689 187.592 427.769 186.623 428.387 185.365C429.004 184.108 429.111 182.661 428.683 181.327C428.256 179.993 427.329 178.876 426.096 178.211C424.835 177.535 423.777 176.534 423.032 175.311C422.287 174.089 421.882 172.69 421.86 171.259C421.837 169.827 422.198 168.416 422.904 167.171C423.61 165.926 424.636 164.892 425.876 164.176ZM421.104 376.124C417.705 381.443 412.006 385.224 405.247 385.933C393.457 387.172 382.88 378.607 381.641 366.818L378.988 341.585C378.514 337.074 379.48 332.529 381.748 328.6C384.016 324.672 387.47 321.563 391.614 319.718L414.791 309.398C425.621 304.578 438.327 309.455 443.149 320.285C445.914 326.493 445.488 333.319 442.583 338.922L463.755 351.146C474.021 357.073 477.543 370.22 471.616 380.486C465.689 390.752 452.542 394.275 442.276 388.348L421.104 376.124ZM420.459 357.204L450.307 374.438C452.896 375.931 456.211 375.044 457.706 372.455C459.201 369.866 458.312 366.551 455.723 365.056L425.876 347.824C424.636 347.108 423.61 346.074 422.904 344.829C422.198 343.584 421.837 342.173 421.86 340.741C421.882 339.31 422.287 337.911 423.032 336.688C423.777 335.466 424.835 334.465 426.096 333.789C427.329 333.124 428.256 332.007 428.683 330.673C429.111 329.339 429.004 327.892 428.387 326.634C427.769 325.377 426.689 324.408 425.372 323.93C424.055 323.453 422.605 323.504 421.325 324.073L398.146 334.392C397.101 334.858 396.231 335.642 395.659 336.632C395.087 337.623 394.843 338.769 394.963 339.907L397.615 365.138C397.759 366.534 398.438 367.82 399.511 368.724C400.584 369.629 401.966 370.082 403.366 369.988C404.766 369.894 406.074 369.26 407.017 368.221C407.959 367.181 408.461 365.816 408.416 364.413C408.371 362.983 408.709 361.566 409.395 360.31C410.081 359.054 411.091 358.004 412.319 357.269C413.547 356.533 414.949 356.14 416.38 356.129C417.812 356.117 419.22 356.489 420.459 357.204ZM234.521 459.046C228.215 458.761 222.093 455.717 218.098 450.219C211.13 440.628 213.259 427.185 222.85 420.216L243.375 405.304C247.044 402.638 251.464 401.201 256 401.201C260.536 401.201 264.956 402.638 268.625 405.304L289.15 420.216C298.741 427.185 300.87 440.628 293.902 450.219C289.907 455.717 283.785 458.761 277.479 459.046V483.494C277.479 495.348 267.854 504.972 256 504.972C244.146 504.972 234.521 495.348 234.521 483.494V459.046ZM250.584 449.028V483.494C250.584 486.483 253.01 488.91 256 488.91C258.99 488.91 261.416 486.483 261.416 483.494V449.028C261.417 447.597 261.799 446.192 262.525 444.958C263.25 443.724 264.292 442.707 265.543 442.011C266.794 441.315 268.207 440.966 269.638 441C271.069 441.034 272.465 441.449 273.681 442.203C274.843 442.921 276.234 443.172 277.574 442.908C278.914 442.643 280.105 441.882 280.907 440.777C281.751 439.614 282.099 438.165 281.874 436.746C281.65 435.327 280.871 434.056 279.71 433.211L259.183 418.299C258.258 417.626 257.144 417.264 256 417.264C254.856 417.264 253.742 417.626 252.817 418.299L232.29 433.211C231.129 434.056 230.35 435.327 230.126 436.746C229.901 438.165 230.249 439.614 231.093 440.777C231.895 441.882 233.086 442.643 234.426 442.908C235.766 443.172 237.157 442.921 238.319 442.203C239.535 441.449 240.931 441.033 242.362 440.999C243.793 440.965 245.207 441.314 246.458 442.01C247.708 442.706 248.75 443.724 249.476 444.958C250.201 446.191 250.584 447.597 250.584 449.028ZM69.4172 338.922C66.5118 333.319 66.0861 326.493 68.8509 320.285C73.6728 309.455 86.3794 304.578 97.2087 309.398L120.386 319.718C124.53 321.563 127.984 324.672 130.252 328.6C132.52 332.529 133.486 337.074 133.012 341.585L130.359 366.818C129.12 378.607 118.543 387.172 106.753 385.933C99.9936 385.224 94.2953 381.443 90.8961 376.124L69.7244 388.348C59.4583 394.275 46.3109 390.752 40.3837 380.486C34.4566 370.22 37.9793 357.073 48.2454 351.146L69.4172 338.922ZM86.1244 347.824L56.2768 365.056C53.6877 366.551 52.7992 369.866 54.2941 372.455C55.7889 375.044 59.1039 375.931 61.693 374.438L91.5406 357.204C92.7802 356.489 94.1884 356.118 95.6194 356.13C97.0504 356.142 98.4524 356.535 99.6803 357.27C100.908 358.005 101.917 359.055 102.604 360.311C103.29 361.567 103.628 362.983 103.584 364.413C103.539 365.816 104.041 367.181 104.983 368.221C105.926 369.26 107.234 369.894 108.634 369.988C110.034 370.082 111.416 369.629 112.489 368.724C113.562 367.82 114.241 366.534 114.385 365.138L117.037 339.907C117.157 338.769 116.913 337.623 116.341 336.632C115.769 335.642 114.899 334.858 113.854 334.392L90.6752 324.073C89.3953 323.504 87.9447 323.453 86.628 323.93C85.3113 324.408 84.2308 325.377 83.6133 326.634C82.9959 327.892 82.8895 329.339 83.3165 330.673C83.7435 332.007 84.6708 333.124 85.9036 333.789C87.1652 334.465 88.2232 335.466 88.9681 336.688C89.713 337.911 90.1176 339.31 90.1401 340.741C90.1627 342.173 89.8023 343.584 89.0962 344.829C88.3902 346.074 87.3642 347.108 86.1244 347.824ZM90.8961 135.876C94.2953 130.557 99.9936 126.776 106.753 126.066C118.543 124.828 129.12 133.393 130.359 145.182L133.012 170.415C133.486 174.926 132.52 179.471 130.252 183.399C127.984 187.328 124.53 190.437 120.386 192.282L97.2087 202.601C86.3794 207.422 73.6728 202.545 68.8509 191.715C66.0861 185.507 66.5118 178.681 69.4172 173.078L48.2454 160.854C37.9793 154.927 34.4566 141.78 40.3837 131.514C46.3109 121.248 59.4583 117.725 69.7244 123.652L90.8961 135.876ZM91.5406 154.796L61.693 137.562C59.1039 136.068 55.7889 136.956 54.2941 139.545C52.7992 142.134 53.6877 145.449 56.2768 146.944L86.1244 164.176C87.3642 164.892 88.3902 165.926 89.0962 167.171C89.8023 168.416 90.1627 169.827 90.1401 171.259C90.1176 172.69 89.713 174.089 88.9681 175.311C88.2232 176.534 87.1652 177.535 85.9036 178.211C84.6708 178.876 83.7435 179.993 83.3165 181.327C82.8895 182.661 82.9959 184.108 83.6133 185.365C84.2308 186.623 85.3113 187.592 86.628 188.07C87.9447 188.547 89.3953 188.496 90.6752 187.927L113.854 177.608C114.899 177.142 115.769 176.358 116.341 175.368C116.913 174.377 117.157 173.231 117.037 172.093L114.385 146.862C114.241 145.466 113.562 144.18 112.489 143.276C111.416 142.371 110.034 141.918 108.634 142.012C107.234 142.106 105.926 142.739 104.983 143.779C104.041 144.819 103.539 146.184 103.584 147.586C103.629 149.017 103.291 150.434 102.605 151.69C101.919 152.946 100.909 153.996 99.6814 154.731C98.4533 155.466 97.051 155.86 95.6197 155.871C94.1884 155.883 92.7801 155.511 91.5406 154.796Z" fill="white"/>
</svg>
