<svg width="512" height="512" viewBox="0 0 512 512" fill="none" xmlns="http://www.w3.org/2000/svg">
<path d="M260.096 35.7374C261.002 35.7336 261.908 35.7298 262.841 35.7258C265.872 35.7155 268.902 35.7195 271.933 35.7235C274.108 35.7191 276.283 35.7139 278.458 35.708C284.363 35.6946 290.268 35.694 296.173 35.6965C301.104 35.6976 306.034 35.6927 310.964 35.6879C322.597 35.6768 334.229 35.6764 345.862 35.6825C357.86 35.6885 369.858 35.6762 381.856 35.6549C392.159 35.6373 402.463 35.6313 412.766 35.6345C418.919 35.6363 425.071 35.6337 431.224 35.6198C437.011 35.6072 442.797 35.6092 448.584 35.6222C450.706 35.6246 452.828 35.6219 454.95 35.6136C457.85 35.6031 460.75 35.6112 463.65 35.6239C464.487 35.6165 465.323 35.6092 466.185 35.6016C473.131 35.6653 478.404 37.2511 484.25 41.1856C490.081 47.1492 492.122 53.7353 492.131 61.9469C492.135 63.172 492.139 64.3971 492.143 65.6593C492.142 67.0208 492.141 68.3824 492.14 69.7439C492.143 71.1887 492.146 72.6336 492.149 74.0784C492.158 78.054 492.159 82.0295 492.16 86.0051C492.162 90.2908 492.169 94.5766 492.176 98.8623C492.19 108.236 492.196 117.61 492.2 126.984C492.203 132.837 492.207 138.69 492.212 144.543C492.224 160.747 492.234 176.951 492.238 193.154C492.238 194.192 492.238 195.229 492.238 196.298C492.238 197.337 492.239 198.377 492.239 199.448C492.239 201.555 492.24 203.662 492.24 205.769C492.24 206.814 492.241 207.859 492.241 208.936C492.245 225.869 492.262 242.801 492.286 259.734C492.309 277.117 492.322 294.5 492.323 311.883C492.324 321.644 492.33 331.404 492.348 341.165C492.363 349.477 492.368 357.788 492.36 366.1C492.356 370.34 492.357 374.58 492.371 378.82C492.384 382.705 492.383 386.589 492.37 390.473C492.369 391.876 492.372 393.278 492.38 394.681C492.434 403.979 492.299 413.12 485.75 420.373C485.209 421 484.667 421.626 484.109 422.272C478.781 426.633 473.427 427.438 466.717 427.359C465.911 427.361 465.105 427.364 464.274 427.367C461.587 427.372 458.9 427.355 456.213 427.339C454.281 427.338 452.349 427.338 450.417 427.34C445.182 427.341 439.947 427.323 434.712 427.302C429.238 427.284 423.763 427.282 418.288 427.278C407.926 427.269 397.563 427.244 387.201 427.214C375.402 427.181 363.602 427.164 351.803 427.149C327.535 427.118 303.268 427.065 279 426.998C279.021 427.895 279.042 428.792 279.063 429.717C279.132 433.079 279.182 436.441 279.22 439.803C279.24 441.252 279.267 442.701 279.302 444.15C279.521 453.515 279.489 460.67 273.141 468.205C272.517 468.735 271.893 469.265 271.25 469.811C270.636 470.353 270.023 470.896 269.391 471.455C263.042 475.553 257.154 476.44 249.791 476.393C248.897 476.399 248.003 476.405 247.082 476.411C244.103 476.428 241.125 476.423 238.147 476.418C236.004 476.425 233.862 476.434 231.719 476.444C225.911 476.466 220.104 476.469 214.296 476.467C209.442 476.467 204.589 476.475 199.736 476.484C188.283 476.503 176.831 476.506 165.379 476.499C153.575 476.492 141.771 476.515 129.968 476.552C119.823 476.583 109.678 476.594 99.5337 476.591C93.4793 476.589 87.4251 476.594 81.3707 476.618C75.6758 476.641 69.9815 476.639 64.2866 476.619C62.201 476.615 60.1152 476.62 58.0296 476.635C45.9095 476.712 36.8407 476.649 27.125 468.623C21.8354 462.089 19.8785 456.369 19.8686 447.973C19.8647 446.757 19.8609 445.54 19.8569 444.286C19.8577 442.94 19.8586 441.593 19.8595 440.246C19.857 438.813 19.854 437.379 19.8505 435.946C19.8425 432.007 19.8407 428.068 19.8399 424.129C19.8381 419.88 19.8305 415.632 19.8238 411.384C19.8102 402.095 19.8042 392.805 19.7998 383.516C19.797 377.716 19.7928 371.915 19.7883 366.115C19.7761 350.054 19.7658 333.994 19.7624 317.933C19.7622 316.905 19.762 315.878 19.7618 314.819C19.7615 313.788 19.7613 312.758 19.7611 311.697C19.7607 309.609 19.7602 307.521 19.7598 305.434C19.7594 303.88 19.7594 303.88 19.7591 302.296C19.7551 285.515 19.7377 268.734 19.7144 251.954C19.6907 234.724 19.6782 217.495 19.6771 200.265C19.6761 190.592 19.6704 180.918 19.6522 171.245C19.6368 163.008 19.6317 154.772 19.64 146.535C19.6439 142.333 19.6429 138.132 19.6289 133.93C19.6162 130.081 19.6174 126.232 19.6295 122.383C19.6315 120.993 19.6284 119.604 19.6197 118.214C19.5656 109.011 19.7078 99.8733 26.1875 92.6856C26.7173 92.0707 27.2471 91.4559 27.793 90.8223C33.5203 86.0884 39.0306 84.4009 46.365 84.5171C47.1681 84.5137 47.9712 84.5103 48.7987 84.5068C51.469 84.5002 54.1383 84.5221 56.8086 84.544C58.7309 84.5452 60.6533 84.5445 62.5756 84.5423C67.7797 84.5411 72.9834 84.5646 78.1873 84.5926C83.6312 84.6176 89.0751 84.6199 94.519 84.6247C104.821 84.6371 115.123 84.6699 125.426 84.7101C137.157 84.7548 148.889 84.7768 160.62 84.7968C184.747 84.8386 208.873 84.909 233 84.9981C232.979 84.0707 232.958 83.1432 232.937 82.1876C232.868 78.7135 232.818 75.2402 232.78 71.7657C232.76 70.2682 232.733 68.7708 232.698 67.2735C232.483 57.7566 232.384 50.3612 238.93 42.7559C239.572 42.2171 240.214 41.6783 240.875 41.1231C241.512 40.5688 242.149 40.0145 242.805 39.4434C248.3 35.8254 253.751 35.7089 260.096 35.7374ZM245.712 52.245C243.536 55.7443 243.54 57.9486 243.609 62.0489C243.615 62.7077 243.621 63.3665 243.627 64.0453C243.649 66.1345 243.699 68.2219 243.75 70.3106C243.77 71.7331 243.788 73.1557 243.805 74.5782C243.845 78.0527 243.923 81.5235 244 84.9981C249.28 84.9981 254.56 84.9981 260 84.9981C260.103 82.9563 260.206 80.9144 260.312 78.8106C260.554 74.033 260.943 70.7725 264 66.9981C268.573 64.1914 272.41 63.5665 277.667 63.6172C278.795 63.6102 278.795 63.6102 279.946 63.603C282.456 63.5911 284.966 63.6005 287.477 63.6099C289.281 63.6059 291.084 63.6005 292.888 63.594C297.781 63.5803 302.673 63.5856 307.566 63.5952C312.688 63.6028 317.81 63.5957 322.932 63.591C331.534 63.5855 340.135 63.5927 348.736 63.607C358.678 63.6233 368.62 63.6181 378.562 63.6015C387.1 63.5879 395.639 63.586 404.177 63.5939C409.276 63.5985 414.374 63.5992 419.473 63.5892C424.266 63.5806 429.06 63.5866 433.853 63.6039C435.612 63.6079 437.37 63.6068 439.128 63.6001C441.53 63.5919 443.932 63.6022 446.333 63.6172C447.028 63.6105 447.722 63.6038 448.438 63.5969C453.005 63.6519 456.104 64.6357 460 66.9981C463.804 71.0646 464.124 74.9709 464.131 80.3774C464.135 81.4755 464.139 82.5735 464.143 83.7048C464.142 84.9109 464.141 86.1169 464.14 87.3594C464.143 88.6408 464.146 89.9223 464.149 91.2425C464.158 94.802 464.159 98.3615 464.16 101.921C464.162 105.759 464.169 109.597 464.176 113.434C464.19 121.827 464.196 130.219 464.2 138.612C464.203 143.851 464.207 149.09 464.212 154.329C464.224 168.832 464.234 183.335 464.238 197.837C464.238 199.23 464.238 199.23 464.238 200.65C464.238 201.58 464.239 202.511 464.239 203.469C464.239 205.355 464.24 207.24 464.24 209.126C464.241 210.528 464.241 210.528 464.241 211.96C464.245 227.119 464.262 242.279 464.286 257.439C464.309 272.999 464.322 288.559 464.323 304.12C464.324 312.858 464.33 321.596 464.348 330.334C464.363 337.774 464.368 345.213 464.36 352.652C464.356 356.449 464.357 360.245 464.371 364.041C464.386 368.155 464.378 372.269 464.367 376.383C464.38 378.185 464.38 378.185 464.392 380.024C464.349 387.232 463.92 391.931 458.77 397.341C455.205 399.474 452.825 399.505 448.679 399.517C447.589 399.528 447.589 399.528 446.476 399.54C444.045 399.56 441.615 399.552 439.184 399.544C437.44 399.553 435.695 399.563 433.951 399.575C429.218 399.603 424.485 399.607 419.752 399.606C414.804 399.609 409.857 399.634 404.909 399.658C395.542 399.698 386.175 399.718 376.807 399.732C366.142 399.747 355.477 399.786 344.812 399.826C322.875 399.909 300.938 399.962 279 399.998C279 405.608 279 411.218 279 416.998C303.522 417.044 328.043 417.08 352.565 417.102C363.951 417.112 375.337 417.126 386.722 417.149C396.646 417.169 406.57 417.182 416.494 417.186C421.749 417.189 427.003 417.195 432.258 417.21C437.205 417.223 442.151 417.227 447.098 417.224C448.913 417.225 450.727 417.229 452.542 417.237C455.022 417.247 457.502 417.244 459.983 417.239C460.698 417.244 461.413 417.25 462.15 417.256C467.211 417.226 472.662 416.88 476.742 413.596C480.19 408.923 481.125 405.947 481.131 400.214C481.135 399 481.139 397.786 481.143 396.535C481.142 395.181 481.141 393.827 481.14 392.473C481.143 391.04 481.146 389.607 481.149 388.174C481.158 384.226 481.159 380.279 481.16 376.332C481.162 372.078 481.169 367.824 481.176 363.57C481.19 354.265 481.196 344.959 481.2 335.653C481.203 329.844 481.207 324.036 481.212 318.227C481.224 302.149 481.234 286.071 481.238 269.994C481.238 268.964 481.238 267.935 481.238 266.874C481.238 265.843 481.239 264.811 481.239 263.748C481.239 261.657 481.24 259.566 481.24 257.475C481.24 256.437 481.241 255.4 481.241 254.332C481.245 237.524 481.262 220.716 481.286 203.908C481.309 186.658 481.322 169.408 481.323 152.158C481.324 142.47 481.33 132.783 481.348 123.095C481.363 114.845 481.368 106.596 481.36 98.347C481.356 94.1376 481.357 89.9283 481.371 85.7188C481.384 81.8647 481.383 78.0108 481.37 74.1567C481.369 72.763 481.372 71.3692 481.38 69.9756C481.654 59.9856 481.654 59.9856 478 50.9981C472.709 46.9177 468.456 46.4207 461.916 46.4969C460.577 46.4886 460.577 46.4886 459.211 46.4802C456.231 46.4666 453.252 46.4815 450.273 46.4964C448.132 46.4926 445.992 46.4871 443.851 46.48C438.045 46.4661 432.24 46.4773 426.434 46.4938C420.359 46.5076 414.283 46.5012 408.208 46.4976C398.007 46.4949 387.807 46.5084 377.607 46.5316C365.81 46.5582 354.014 46.5599 342.217 46.5482C330.871 46.5374 319.524 46.5436 308.177 46.5577C303.347 46.5635 298.517 46.5634 293.687 46.5587C288.003 46.5539 282.318 46.564 276.633 46.5856C274.545 46.5912 272.457 46.5917 270.37 46.5867C267.523 46.5807 264.677 46.5932 261.83 46.6105C260.587 46.6014 260.587 46.6014 259.318 46.5922C253.338 46.6582 250.061 47.9743 245.712 52.245ZM271 74.9981C270.002 87.4785 270.002 87.4785 275.59 98.2989C278.082 101.302 278.127 104.109 278.139 107.849C278.144 108.855 278.15 109.861 278.155 110.897C278.157 112.559 278.157 112.559 278.158 114.255C278.163 115.429 278.168 116.604 278.173 117.814C278.186 121.079 278.194 124.345 278.201 127.61C278.209 131.13 278.222 134.649 278.235 138.168C278.257 144.268 278.275 150.367 278.291 156.467C278.314 165.285 278.342 174.104 278.371 182.923C278.419 197.23 278.462 211.537 278.503 225.844C278.542 239.744 278.583 253.644 278.628 267.543C278.63 268.4 278.633 269.256 278.636 270.139C278.65 274.435 278.663 278.732 278.677 283.029C278.791 318.685 278.898 354.342 279 389.998C301.227 390.068 323.453 390.121 345.68 390.154C356 390.169 366.319 390.19 376.639 390.224C385.632 390.254 394.626 390.274 403.619 390.28C408.382 390.284 413.145 390.294 417.909 390.315C422.39 390.336 426.871 390.342 431.353 390.337C432.999 390.338 434.646 390.344 436.292 390.356C438.537 390.371 440.782 390.367 443.027 390.359C444.913 390.363 444.913 390.363 446.837 390.367C450.349 389.957 451.512 389.444 454 386.998C454.598 384.579 454.598 384.579 454.498 381.796C454.512 380.17 454.512 380.17 454.526 378.511C454.515 377.316 454.505 376.12 454.494 374.889C454.499 373.622 454.504 372.356 454.509 371.051C454.522 367.529 454.51 364.008 454.494 360.486C454.48 356.69 454.49 352.895 454.497 349.099C454.507 341.661 454.496 334.223 454.478 326.784C454.457 318.128 454.457 309.472 454.458 300.815C454.459 285.374 454.441 269.932 454.412 254.49C454.383 239.496 454.369 224.501 454.371 209.506C454.371 208.582 454.371 207.659 454.371 206.708C454.371 205.786 454.371 204.864 454.371 203.914C454.372 186.859 454.361 169.804 454.343 152.75C454.337 146.711 454.335 140.673 454.334 134.634C454.332 127.279 454.323 119.923 454.305 112.567C454.296 108.812 454.29 105.057 454.292 101.302C454.295 97.2369 454.282 93.1723 454.267 89.1075C454.272 87.3144 454.272 87.3144 454.277 85.4851C454.27 84.4011 454.264 83.3171 454.257 82.2003C454.255 80.7919 454.255 80.7919 454.253 79.355C454.155 76.7294 454.155 76.7294 452 73.9981C448.814 73.5448 448.814 73.5448 444.977 73.6306C444.246 73.6274 443.515 73.6241 442.761 73.6207C440.298 73.6134 437.836 73.6276 435.373 73.6417C433.612 73.6409 431.852 73.6388 430.091 73.6355C425.3 73.6303 420.509 73.6439 415.718 73.661C410.713 73.676 405.707 73.6749 400.702 73.6757C392.295 73.6794 383.889 73.6944 375.482 73.7169C364.68 73.7458 353.878 73.7561 343.077 73.7606C333.805 73.7645 324.534 73.777 315.263 73.7909C312.275 73.795 309.288 73.7979 306.3 73.8007C301.612 73.8056 296.924 73.8158 292.235 73.8301C290.511 73.8347 288.786 73.8375 287.062 73.8386C284.715 73.8403 282.369 73.8482 280.023 73.8577C278.707 73.8607 277.391 73.8636 276.036 73.8667C273.081 73.7877 273.081 73.7877 271 74.9981ZM34 100.936C31.1049 105.369 30.8748 108.617 30.8686 113.862C30.8647 115.068 30.8609 116.274 30.8569 117.516C30.8577 118.856 30.8586 120.196 30.8595 121.536C30.857 122.959 30.854 124.381 30.8505 125.803C30.8425 129.716 30.8407 133.629 30.8399 137.542C30.8381 141.76 30.8306 145.978 30.8238 150.196C30.8102 159.421 30.8042 168.647 30.7998 177.872C30.797 183.63 30.7928 189.388 30.7883 195.147C30.7761 211.086 30.7658 227.024 30.7624 242.963C30.7622 243.983 30.762 245.003 30.7618 246.054C30.7615 247.077 30.7613 248.1 30.7611 249.153C30.7607 251.226 30.7602 253.298 30.7598 255.37C30.7595 256.398 30.7593 257.426 30.7591 258.485C30.7551 275.148 30.7377 291.811 30.7144 308.475C30.6907 325.576 30.6782 342.678 30.6771 359.78C30.6761 369.384 30.6704 378.989 30.6522 388.593C30.6368 396.77 30.6317 404.947 30.64 413.124C30.6439 417.297 30.6429 421.469 30.6289 425.642C30.6162 429.462 30.6173 433.281 30.6295 437.1C30.6315 438.483 30.6284 439.865 30.6197 441.247C30.6086 443.126 30.6178 445.004 30.6281 446.883C30.6275 447.927 30.6269 448.97 30.6262 450.045C31.1519 454.198 32.6689 457.572 35.5351 460.643C40.8252 464.688 43.821 465.145 50.3624 465.139C51.6755 465.143 51.6755 465.143 53.0152 465.148C55.9662 465.156 58.9172 465.158 61.8682 465.159C63.9769 465.164 66.0857 465.169 68.1944 465.174C73.9363 465.187 79.6781 465.194 85.4199 465.198C89.005 465.201 92.5901 465.205 96.1752 465.21C107.386 465.223 118.596 465.233 129.807 465.237C142.759 465.242 155.712 465.259 168.664 465.288C178.668 465.31 188.671 465.32 198.675 465.321C204.653 465.322 210.631 465.328 216.61 465.346C222.234 465.362 227.858 465.365 233.482 465.356C235.546 465.355 237.611 465.359 239.676 465.369C242.494 465.382 245.312 465.376 248.13 465.366C248.947 465.374 249.765 465.382 250.608 465.39C255.473 465.348 258.776 464.668 263 461.998C266.984 457.583 268.124 455.181 268.134 449.303C268.141 447.473 268.141 447.473 268.148 445.607C268.148 444.242 268.147 442.876 268.147 441.511C268.15 440.07 268.154 438.628 268.158 437.187C268.168 433.213 268.172 429.238 268.175 425.264C268.179 420.983 268.188 416.702 268.197 412.421C268.217 402.075 268.227 391.73 268.236 381.384C268.24 376.516 268.245 371.647 268.251 366.778C268.268 350.599 268.282 334.421 268.289 318.242C268.291 314.041 268.293 309.841 268.295 305.641C268.296 304.597 268.296 303.553 268.297 302.477C268.305 285.558 268.33 268.64 268.363 251.721C268.396 234.362 268.414 217.002 268.417 199.643C268.419 189.892 268.428 180.141 268.453 170.39C268.475 162.087 268.483 153.784 268.474 145.481C268.469 141.243 268.471 137.006 268.49 132.768C268.508 128.889 268.507 125.011 268.491 121.132C268.489 119.728 268.493 118.324 268.505 116.92C268.793 107.091 268.793 107.091 264 98.9981C258.294 94.7549 252.447 94.8501 245.563 94.8577C244.715 94.8547 243.868 94.8517 242.995 94.8487C240.157 94.84 237.319 94.8385 234.481 94.837C232.446 94.8324 230.411 94.8273 228.375 94.822C222.846 94.8088 217.317 94.8024 211.788 94.7979C208.333 94.795 204.878 94.7909 201.422 94.7864C190.608 94.7728 179.795 94.7631 168.981 94.7592C156.503 94.7548 144.026 94.7372 131.548 94.7082C121.899 94.6866 112.251 94.6765 102.602 94.6752C96.8413 94.6741 91.0804 94.6683 85.3195 94.6504C79.8989 94.6339 74.4786 94.6317 69.058 94.6405C67.0719 94.6413 65.0857 94.637 63.0996 94.6271C60.3812 94.6143 57.6635 94.6202 54.9451 94.6306C54.1654 94.6226 53.3857 94.6145 52.5824 94.6062C45.8549 94.6662 38.6401 95.6526 34 100.936Z" fill="black"/>
<path d="M64.7304 111.47C65.4895 111.462 66.2485 111.453 67.0305 111.445C69.5639 111.422 72.0964 111.428 74.6299 111.433C76.4503 111.423 78.2707 111.411 80.0911 111.397C85.0292 111.366 89.967 111.361 94.9052 111.362C99.0304 111.361 103.156 111.349 107.281 111.337C117.015 111.31 126.748 111.305 136.482 111.312C146.518 111.319 156.552 111.286 166.587 111.233C175.209 111.189 183.831 111.172 192.453 111.177C197.6 111.179 202.746 111.171 207.893 111.136C212.734 111.104 217.574 111.106 222.416 111.133C224.189 111.138 225.963 111.13 227.737 111.11C242.792 110.949 242.792 110.949 248.057 115.364C251.569 119.109 252.126 122.268 252.136 127.301C252.14 128.408 252.145 129.514 252.149 130.654C252.149 131.875 252.149 133.096 252.149 134.353C252.152 135.646 252.156 136.939 252.16 138.271C252.17 141.867 252.173 145.463 252.176 149.059C252.18 152.934 252.19 156.809 252.198 160.685C252.218 170.047 252.228 179.408 252.237 188.77C252.241 193.177 252.247 197.584 252.252 201.991C252.269 216.637 252.284 231.283 252.291 245.929C252.293 249.73 252.295 253.531 252.297 257.332C252.297 258.277 252.298 259.222 252.298 260.195C252.306 275.507 252.332 290.818 252.364 306.13C252.397 321.844 252.415 337.558 252.418 353.272C252.421 362.098 252.429 370.923 252.455 379.749C252.477 387.263 252.485 394.777 252.475 402.292C252.47 406.126 252.472 409.961 252.492 413.795C252.513 417.951 252.502 422.107 252.489 426.262C252.5 427.476 252.511 428.69 252.522 429.941C252.474 436.254 252.316 440.233 248.001 444.998C243.541 448.918 239.497 449.146 233.772 449.139C233.03 449.142 232.289 449.145 231.525 449.148C229.033 449.156 226.541 449.158 224.049 449.159C222.265 449.164 220.481 449.169 218.698 449.174C213.846 449.188 208.995 449.194 204.144 449.198C201.114 449.201 198.083 449.206 195.053 449.21C185.575 449.224 176.096 449.233 166.618 449.237C155.672 449.242 144.727 449.259 133.781 449.288C125.324 449.31 116.866 449.32 108.408 449.321C103.355 449.322 98.3025 449.328 93.2498 449.346C88.4966 449.363 83.7435 449.365 78.9903 449.356C77.2464 449.355 75.5025 449.36 73.7586 449.369C71.3763 449.382 68.9946 449.376 66.6122 449.366C65.5793 449.378 65.5793 449.378 64.5255 449.39C59.3057 449.337 55.2839 448.031 51.3569 444.533C47.5709 439.76 46.8786 436.633 46.8672 430.656C46.8628 429.566 46.8583 428.476 46.8537 427.353C46.8539 426.156 46.8541 424.96 46.8543 423.726C46.8506 422.455 46.8469 421.183 46.8431 419.872C46.8331 416.34 46.8294 412.807 46.8268 409.274C46.8228 405.465 46.8133 401.655 46.8045 397.846C46.7848 388.646 46.7747 379.447 46.7658 370.247C46.7614 365.914 46.7561 361.582 46.7508 357.25C46.7338 342.848 46.7193 328.447 46.7121 314.045C46.7102 310.308 46.7082 306.572 46.7063 302.835C46.7058 301.907 46.7053 300.978 46.7048 300.021C46.6965 284.973 46.6712 269.924 46.6387 254.876C46.6056 239.426 46.5876 223.976 46.5844 208.527C46.5823 199.852 46.5735 191.178 46.548 182.503C46.5263 175.116 46.5182 167.73 46.5279 160.343C46.5325 156.575 46.5306 152.807 46.5112 149.039C46.4903 144.952 46.5005 140.865 46.5137 136.778C46.5027 135.59 46.4918 134.402 46.4805 133.178C46.5312 126.675 46.8995 121.269 51.0015 115.998C55.3563 112.116 59.0702 111.415 64.7304 111.47ZM59.0015 123.998C57.7416 126.518 57.8738 128.24 57.87 131.062C57.8662 132.14 57.8623 133.219 57.8584 134.33C57.8593 135.524 57.8601 136.719 57.861 137.949C57.858 139.211 57.8551 140.472 57.852 141.772C57.8439 145.285 57.8421 148.797 57.8414 152.31C57.8396 156.094 57.832 159.878 57.8253 163.662C57.8117 171.941 57.8057 180.22 57.8013 188.498C57.7985 193.664 57.7943 198.83 57.7898 203.995C57.7776 218.288 57.7673 232.58 57.7639 246.873C57.7637 247.788 57.7634 248.703 57.7632 249.646C57.763 250.564 57.7628 251.481 57.7626 252.426C57.7621 254.285 57.7617 256.144 57.7612 258.003C57.761 258.926 57.7608 259.848 57.7605 260.798C57.7566 275.75 57.7391 290.701 57.7159 305.653C57.6922 320.991 57.6797 336.328 57.6785 351.666C57.6776 360.283 57.6718 368.9 57.6537 377.517C57.6383 384.852 57.6332 392.188 57.6414 399.523C57.6454 403.268 57.6444 407.013 57.6304 410.759C57.6154 414.813 57.6235 418.866 57.634 422.92C57.6259 424.112 57.6179 425.305 57.6095 426.533C57.6194 428.155 57.6194 428.155 57.6295 429.809C57.6289 430.745 57.6283 431.682 57.6277 432.647C57.8246 435.047 57.8246 435.047 59.3282 436.799C62.0894 438.778 64.7659 438.373 68.1063 438.373C68.8344 438.377 69.5624 438.38 70.3125 438.385C72.7586 438.394 75.2041 438.382 77.6501 438.371C79.401 438.373 81.1519 438.377 82.9027 438.382C87.663 438.391 92.423 438.382 97.1832 438.368C102.158 438.357 107.132 438.361 112.107 438.363C120.46 438.364 128.814 438.353 137.168 438.335C146.836 438.313 156.505 438.31 166.173 438.316C175.462 438.322 184.751 438.316 194.04 438.305C197.999 438.3 201.958 438.299 205.917 438.301C210.575 438.303 215.233 438.295 219.891 438.279C221.604 438.275 223.317 438.274 225.031 438.277C227.362 438.28 229.692 438.271 232.024 438.259C233.33 438.257 234.637 438.255 235.984 438.253C239.114 438.316 239.114 438.316 241.001 435.998C241.307 433.662 241.307 433.662 241.259 430.904C241.268 429.275 241.268 429.275 241.278 427.614C241.275 426.412 241.272 425.21 241.269 423.971C241.276 422.067 241.276 422.067 241.283 420.124C241.295 416.588 241.295 413.053 241.292 409.517C241.292 405.709 241.303 401.9 241.312 398.092C241.329 390.626 241.334 383.16 241.336 375.694C241.337 369.629 241.341 363.563 241.347 357.497C241.365 340.314 241.374 323.131 241.372 305.948C241.372 304.557 241.372 304.557 241.372 303.139C241.372 301.746 241.372 301.746 241.372 300.326C241.371 285.277 241.39 270.229 241.418 255.18C241.447 239.743 241.461 224.306 241.459 208.868C241.458 200.196 241.464 191.523 241.486 182.85C241.504 175.467 241.508 168.084 241.494 160.701C241.488 156.931 241.488 153.162 241.505 149.393C241.524 145.312 241.511 141.233 241.496 137.152C241.506 135.952 241.517 134.752 241.527 133.516C241.518 132.428 241.509 131.34 241.499 130.219C241.5 129.276 241.5 128.334 241.501 127.363C241.2 124.862 241.2 124.862 239.17 123.195C236.043 121.469 233.502 121.624 229.942 121.624C229.231 121.62 228.519 121.616 227.787 121.612C225.404 121.602 223.021 121.614 220.638 121.626C218.93 121.624 217.221 121.62 215.513 121.615C210.873 121.606 206.232 121.615 201.592 121.628C196.738 121.64 191.885 121.635 187.031 121.634C178.88 121.633 170.73 121.644 162.579 121.662C153.151 121.683 143.724 121.687 134.297 121.681C125.233 121.675 116.169 121.681 107.105 121.692C103.245 121.696 99.3858 121.697 95.5262 121.695C90.9823 121.693 86.4385 121.701 81.8946 121.717C80.2256 121.721 78.5567 121.722 76.8878 121.72C74.6121 121.716 72.3369 121.725 70.0613 121.738C68.787 121.74 67.5128 121.742 66.1999 121.744C63.178 121.984 61.4802 122.303 59.0015 123.998Z" fill="black"/>
<path d="M201.25 257.311C211.718 265.567 220.826 274.449 229 284.999C229.706 285.816 230.413 286.633 231.141 287.475C235.969 293.159 235.969 293.159 236.125 297.436C235 299.999 235 299.999 232 301.999C228.782 301.839 227.372 301.339 224.98 299.151C224.093 298.055 224.093 298.055 223.188 296.936C222.583 296.203 221.978 295.469 221.355 294.713C220.908 294.147 220.461 293.582 220 292.999C218.727 293.933 217.457 294.871 216.188 295.811C215.48 296.333 214.772 296.855 214.043 297.393C212.215 298.83 210.601 300.317 209 301.999C209.825 303.009 210.65 304.02 211.5 305.061C214.158 308.765 214.631 311.402 214 315.999C212 317.999 212 317.999 209.312 318.686C203.863 317.555 202.096 313.457 199 308.999C195.04 310.979 191.08 312.959 187 314.999C187.33 316.009 187.66 317.02 188 318.061C189.052 321.785 189.381 325.117 189 328.999C186 330.999 186 330.999 183.062 331.124C179.574 329.842 179.26 329.289 177.625 326.124C176.4 323.424 176 322.021 176 318.999C175.287 319.215 174.574 319.432 173.84 319.655C168.382 321.242 163.684 322.378 158 321.999C158.046 322.83 158.093 323.661 158.141 324.518C158.177 325.605 158.213 326.691 158.25 327.811C158.296 328.89 158.343 329.969 158.391 331.081C158 333.999 158 333.999 156.184 335.928C154 336.999 154 336.999 150.812 336.311C148 334.999 148 334.999 147 332.999C146.93 331.125 146.916 329.249 146.938 327.374C146.947 326.371 146.956 325.368 146.965 324.334C146.976 323.564 146.988 322.793 147 321.999C146.264 321.938 145.528 321.877 144.77 321.815C143.306 321.689 143.306 321.689 141.812 321.561C140.85 321.48 139.887 321.399 138.895 321.315C136.242 321.025 133.616 320.522 131 319.999C129.35 323.299 127.7 326.599 126 329.999C122.625 330.124 122.625 330.124 119 329.999C117 327.999 117 327.999 116.75 325.311C117.031 321.582 117.863 318.552 119 314.999C115.04 313.019 111.08 311.039 107 308.999C106.34 310.649 105.68 312.299 105 313.999C102.75 316.874 102.75 316.874 100 318.999C96.75 318.936 96.75 318.936 94 317.999C92.5041 315.007 92.5726 313.357 93 309.999C94.7745 306.827 96.8273 303.908 99 300.999C98.4354 300.752 97.8708 300.506 97.2891 300.252C94.6092 298.784 92.6204 297.005 90.375 294.936C87.4121 292.141 87.4121 292.141 84 289.999C83.7525 290.555 83.505 291.112 83.25 291.686C81.7212 294.514 80.2829 296.716 78 298.999C74.875 299.436 74.875 299.436 72 298.999C70 296.999 70 296.999 69.5859 293.784C70.0832 289.238 71.7596 286.812 74.625 283.436C75.1157 282.839 75.6065 282.242 76.1121 281.626C109.035 242.335 156.64 225.028 201.25 257.311ZM95 277.999C93.7356 280.137 93.7356 280.137 93 281.999C109.39 297.732 129.365 311.968 153 311.999C176.839 310.55 194.4 298.993 212 283.999C210.22 280.146 207.808 277.626 204.688 274.811C203.892 274.091 203.892 274.091 203.08 273.357C193.743 265.085 183.641 258.584 172 253.999C171.144 253.658 170.288 253.318 169.406 252.967C142.115 243.87 113.719 258.51 95 277.999Z" fill="black"/>
<path d="M352.998 156.999C354.873 158.187 354.873 158.187 355.998 159.999C356.39 163.116 356.381 164.493 354.459 167.034C353.771 167.703 353.082 168.372 352.373 169.062C343.098 178.945 339.478 190.63 339.748 203.952C340.711 215.687 345.784 227.707 354.74 235.519C365.956 244.415 377.737 248.169 391.998 246.999C401.81 245.284 410.473 241.594 417.686 234.687C420.756 231.802 421.638 231.062 425.936 230.312C428.998 230.999 428.998 230.999 430.998 233.999C430.29 246.586 421.593 258.681 412.76 267.144C397.869 279.89 380.541 284.297 361.307 283.206C343.252 281.587 328.46 272.014 316.904 258.562C306.122 244.185 301.806 226.641 304.287 208.941C307.501 190.957 316.261 175.933 330.998 165.062C337.796 160.645 344.684 156.394 352.998 156.999ZM329.998 180.999C319.184 192.42 314.445 206.119 314.752 221.671C315.88 236.926 322.8 249.74 333.998 259.999C346.786 269.941 361.03 273.326 376.998 271.999C388.911 269.952 397.754 264.513 406.998 256.999C406.668 256.339 406.338 255.679 405.998 254.999C405.306 255.216 404.614 255.432 403.901 255.655C388.972 259.904 373.637 259.004 359.569 252.386C356.599 250.716 353.794 248.943 350.998 246.999C350.02 246.342 350.02 246.342 349.022 245.671C340.439 239.166 334.106 228.13 330.998 217.999C330.775 217.321 330.552 216.643 330.322 215.945C327.228 204.788 328.634 192.144 330.998 180.999C330.668 180.999 330.338 180.999 329.998 180.999Z" fill="black"/>
<path d="M183 266.002C186.121 268.204 189.086 270.532 192 273.002C192.7 273.594 193.4 274.185 194.121 274.795C194.762 275.379 195.402 275.963 196.062 276.564C196.631 277.081 197.199 277.598 197.785 278.131C199.606 280.935 199.501 282.729 199 286.002C188.674 299.446 171.767 306.145 155.48 308.342C138.126 309.147 123.41 300.211 111 289.002C107.847 286.045 106.222 284.444 106 280.002C109.369 271.013 121.891 265.026 130 261.002C147.571 253.205 167.105 255.588 183 266.002ZM145 275.002C142.541 278.691 142.184 281.72 143 286.002C144.745 289.024 146.833 291.418 150 293.002C154.419 293.512 156.508 293.294 160.375 291.002C163.214 287.757 163.951 286.118 164.172 281.928C163.826 278.048 161.858 275.89 159.25 273.189C154.12 270.482 149.429 271.585 145 275.002ZM125.375 277.002C124.372 277.744 123.369 278.487 122.336 279.252C121.565 279.829 120.794 280.407 120 281.002C123.915 285.284 128.007 288.04 133 291.002C133 285.062 133 279.122 133 273.002C129.768 273.002 127.916 275.111 125.375 277.002ZM174 274.002C174 279.612 174 285.222 174 291.002C177.63 288.692 181.26 286.382 185 284.002C182.955 279.911 182.068 279.073 178.375 276.752C176.931 275.844 175.487 274.937 174 274.002Z" fill="black"/>
<path d="M229.523 258.83C231.487 261.714 231.42 263.581 231 266.998C229 268.998 229 268.998 226.375 269.561C222.085 268.846 220.554 267.175 217.445 264.256C197.951 246.257 174.885 234.291 148 233.998C124.95 235.092 104.695 246.006 88.2031 261.709C85.5621 264.173 84.445 264.998 80.75 264.998C78 263.998 78 263.998 76 260.998C76.3412 255.557 79.2473 253.124 83.0312 249.526C130.207 209.364 186.179 218.086 229.523 258.83Z" fill="black"/>
<path d="M419 123C422.935 124.312 423.908 126.16 425.922 129.664C427.177 132.383 428.1 135.146 429 138C429.892 138.037 430.784 138.075 431.703 138.113C432.874 138.179 434.044 138.245 435.25 138.312C436.99 138.4 436.99 138.4 438.766 138.488C442.188 139.03 443.74 139.376 446 142C446.535 144.941 446.535 144.941 446 148C443.996 150.027 443.996 150.027 441.438 151.938C438.083 154.99 437.051 156.174 436.766 160.773C436.971 163.452 437.392 165.987 437.855 168.645C438 172 438 172 436.227 174.449C434 176 434 176 431.188 176C428.492 175.154 426.831 174.347 424.5 172.875C421.221 170.764 421.221 170.764 418 171C415.442 171.853 413.743 172.718 411.5 174.125C408 176 408 176 404.688 175.875C402 175 402 175 400 173C400.182 171.194 400.374 169.388 400.637 167.591C401.706 160.522 401.706 160.522 399.07 154.152C396.625 151.854 396.625 151.854 394.004 149.992C392 148 392 148 391.465 144.945C392 142 392 142 393.578 140.168C396.699 138.663 399.297 138.485 402.75 138.312C404.506 138.214 404.506 138.214 406.297 138.113C407.635 138.057 407.635 138.057 409 138C409.284 137.1 409.567 136.2 409.859 135.273C413.497 124.834 413.497 124.834 419 123ZM418 143C417.67 144.32 417.34 145.64 417 147C414.69 147.66 412.38 148.32 410 149C410.495 149.701 410.99 150.402 411.5 151.125C413.194 154.371 413.252 156.393 413 160C413.922 159.874 413.922 159.874 414.863 159.746C415.672 159.644 416.48 159.542 417.312 159.438C418.113 159.333 418.914 159.229 419.738 159.121C422 159 422 159 425 160C424.938 159.113 424.876 158.226 424.812 157.312C425.02 153.655 425.916 151.952 428 149C425.69 148.34 423.38 147.68 421 147C420.67 145.68 420.34 144.36 420 143C419.34 143 418.68 143 418 143Z" fill="black"/>
<path d="M207.312 171.938C211.528 173.604 212.946 177.115 215 181C215.29 181.723 215.58 182.446 215.879 183.191C216.853 185.168 216.853 185.168 218.953 185.758C219.711 185.879 220.469 186 221.25 186.125C230.896 187.896 230.896 187.896 234 191C234.125 193.625 234.125 193.625 233 197C231.65 198.175 230.271 199.317 228.875 200.438C225.74 203.295 225.033 204.393 224.801 208.707C224.991 211.384 225.376 213.949 225.793 216.609C226 220 226 220 224.926 222.453C223 224 223 224 220.145 224.426C216.693 223.958 214.676 222.936 211.688 221.188C207.734 219.161 207.734 219.161 203.535 219.781C202.021 220.713 200.533 221.687 199.074 222.703C196.007 224.621 193.506 224.501 190 224C188 222 188 222 187.812 218.375C187.829 216.113 187.946 214.197 188.547 212.012C189.145 209.75 189.42 208.318 189 206C186.852 203.497 184.5 201.381 182.047 199.18C180 197 180 197 179.312 193.062C180 190 180 190 182 188C184.559 187.534 187.047 187.165 189.625 186.875C190.331 186.789 191.038 186.702 191.766 186.613C193.51 186.401 195.255 186.2 197 186C197.289 185.089 197.577 184.177 197.875 183.238C201.749 172.088 201.749 172.088 207.312 171.938ZM206 191C205.814 191.619 205.629 192.238 205.438 192.875C203.286 196.056 200.625 196.195 197 197C197.474 197.516 197.949 198.031 198.438 198.562C200.428 201.668 200.651 204.366 201 208C202.072 207.814 203.145 207.629 204.25 207.438C207.404 207.07 209.098 206.955 212 208C212.155 206.391 212.155 206.391 212.312 204.75C212.974 201.142 213.575 199.636 216 197C214.907 196.567 213.814 196.134 212.688 195.688C209.906 194.505 207.936 193.392 206 191Z" fill="black"/>
<path d="M314.75 289.438C318 290 318 290 319.438 291.645C321.156 294.402 322.69 297.089 323.738 300.172C324.937 302.312 324.937 302.312 327.934 302.906C329.09 303.102 330.246 303.298 331.438 303.5C337.531 304.535 337.531 304.535 339.934 306.918C341 309 341 309 340.625 311.812C339 315.001 338.005 315.858 335.312 318C333.308 319.67 333.308 319.67 332 322C331.86 325.762 332.238 329.176 332.828 332.891C333 336 333 336 331.719 337.895C328.989 339.65 327.19 339.429 324 339C322.266 338.062 322.266 338.062 320.5 336.938C317.849 335.291 317.15 334.997 313.875 335.062C310.966 335.878 310.966 335.878 308.562 337.562C305.181 339.459 302.815 339.432 299 339C296.432 335.148 297.168 333.795 297.875 329.312C298.454 324.094 298.454 324.094 296.328 319.512C294.884 318.193 293.405 316.912 291.891 315.676C290 314 290 314 288.875 310.688C289 308 289 308 291 305C293.237 304.587 295.491 304.267 297.75 304C303.211 302.999 303.211 302.999 307.223 299.398C308.672 296.642 309.888 293.906 311 291C312 290 312 290 314.75 289.438ZM312.062 310.875C311.042 311.927 311.042 311.927 310 313C309.01 313.66 308.02 314.32 307 315C307.66 315.66 308.32 316.32 309 317C309.398 318.988 309.738 320.989 310 323C313.3 323 316.6 323 320 323C320.66 320.03 321.32 317.06 322 314C321.196 313.546 320.391 313.093 319.562 312.625C317 311 317 311 316 309C313.79 308.768 313.79 308.768 312.062 310.875Z" fill="black"/>
<path d="M104.527 338.592C107.748 340.424 108.206 342.096 109.562 345.498C111.736 349.89 111.736 349.89 115.945 352.096C119.156 352.601 119.156 352.601 122.293 352.752C125 352.998 125 352.998 128 354.998C128.688 358.123 128.688 358.123 128 361.998C126.172 363.744 126.172 363.744 123.938 365.561C121.612 367.469 121.612 367.469 120 369.998C119.818 373.779 120.224 377.104 120.891 380.826C121 383.998 121 383.998 119.215 386.42C117 387.998 117 387.998 114.312 387.998C111 386.998 111 386.998 108.965 385.85C106.596 384.538 104.656 383.565 102 382.998C99.1821 383.963 96.8607 385.282 94.3047 386.803C92 387.998 92 387.998 88.4375 387.936C86 386.998 86 386.998 85 384.998C84.8555 380.735 84.8426 377.559 86 373.436C86.3972 370.007 86.3972 370.007 84.3203 368.252C82.8528 367.08 81.3774 365.917 79.8945 364.764C78 362.998 78 362.998 76.8125 359.248C77 355.998 77 355.998 78.0938 354.338C80.8829 352.378 83.3166 352.477 86.6875 352.311C88.4567 352.212 88.4567 352.212 90.2617 352.111C91.6172 352.055 91.6172 352.055 93 351.998C93.29 351.087 93.5801 350.175 93.8789 349.236C95.2143 345.379 96.7834 342.424 99 338.998C102 337.998 102 337.998 104.527 338.592ZM102 356.998C101.588 357.617 101.175 358.236 100.75 358.873C98.9443 361.066 97.5909 361.926 95 362.998C95.99 364.483 95.99 364.483 97 365.998C97.3901 367.988 97.732 369.988 98 371.998C102.455 371.503 102.455 371.503 107 370.998C107.433 369.606 107.433 369.606 107.875 368.186C109 364.998 109 364.998 111 361.998C110.072 361.73 109.144 361.462 108.188 361.186C105.238 360.087 103.944 359.374 102 356.998Z" fill="black"/>
<path d="M419 328.001C422.131 331.506 424.04 335.417 425 340.001C425.915 340.122 426.83 340.243 427.773 340.368C429.556 340.619 429.556 340.619 431.375 340.876C432.558 341.038 433.742 341.201 434.961 341.368C438 342.001 438 342.001 440 344.001C440.595 347.197 440.553 349.17 438.727 351.915C434.754 356.624 434.754 356.624 432 358.001C432.248 359.486 432.248 359.486 432.5 361.001C433.07 365.058 433.208 368.905 433 373.001C431 375.001 431 375.001 427.812 375.376C424.198 375.02 423.273 374.741 420.438 372.876C417.165 370.616 417.165 370.616 413.812 371.626C412.188 372.42 410.576 373.24 409 374.126C406.157 375.37 404.063 375.392 401 375.001C399.266 373.368 399.266 373.368 398 371.001C398.207 368.048 398.207 368.048 398.812 364.751C399.447 359.839 399.447 359.839 397.262 355.618C395.782 354.314 394.278 353.037 392.75 351.79C391 350.001 391 350.001 391 346.001C391.495 344.516 391.495 344.516 392 343.001C394.387 341.923 396.543 341.049 399.16 340.774C401.733 340.474 403.657 340.128 406 339.001C407.755 336.493 408.891 334.054 410.027 331.216C411.802 327.174 414.968 327.289 419 328.001ZM415 346.001C414.35 346.929 414.35 346.929 413.688 347.876C412 350.001 412 350.001 409 352.001C409.99 353.486 409.99 353.486 411 355.001C411 356.321 411 357.641 411 359.001C413.97 359.001 416.94 359.001 420 359.001C420.66 356.361 421.32 353.721 422 351.001C421.402 350.733 420.804 350.465 420.188 350.188C418.028 349.016 416.642 347.807 415 346.001Z" fill="black"/>
<path d="M203.75 375.938C207.955 377.312 208.868 379.184 211.02 382.895C211.966 384.926 212.543 386.811 213 389C214.247 389.056 214.247 389.056 215.52 389.113C216.606 389.179 217.693 389.245 218.812 389.312C219.891 389.371 220.97 389.429 222.082 389.488C225.207 390.036 226.189 390.454 228 393C228.688 395.688 228.688 395.688 228 399C226.685 400.231 225.324 401.413 223.938 402.562C220.986 405.226 220.04 406.226 219.832 410.262C220.205 413.731 220.205 413.731 220.891 417.047C221 420 221 420 219.219 422.391C217 424 217 424 214.25 424C211 423 211 423 209.188 421.852C207.077 420.515 205.442 419.573 203 419C200.183 419.976 197.901 421.255 195.395 422.863C192.426 424.272 191.071 424.048 188 423C187.34 422.34 186.68 421.68 186 421C186.227 418.784 186.531 416.576 186.875 414.375C187.466 409.111 187.466 409.111 185.293 404.508C183.835 403.196 182.347 401.916 180.828 400.676C179 399 179 399 178.312 395.688C179.084 392.67 179.537 391.837 182 390C184.918 389.488 184.918 389.488 188.188 389.312C189.818 389.214 189.818 389.214 191.48 389.113C192.312 389.076 193.143 389.039 194 389C194.371 387.701 194.371 387.701 194.75 386.375C198.572 376.055 198.572 376.055 203.75 375.938ZM203 395C202.67 395.99 202.34 396.98 202 398C200.02 398.33 198.04 398.66 196 399C196.99 400.485 196.99 400.485 198 402C198.39 403.99 198.732 405.99 199 408C201.97 408 204.94 408 208 408C208.309 406.886 208.619 405.773 208.938 404.625C210 401 210 401 211 399C210.051 398.711 209.103 398.423 208.125 398.125C205 397 205 397 203 395Z" fill="black"/>
<path d="M97 133.998C98.1133 136.19 98.1133 136.19 99.125 138.873C100.176 141.669 100.176 141.669 102 143.998C105.4 145.327 108.524 145.914 112.137 146.401C115 146.998 115 146.998 117 149.998C117.379 152.467 117.379 152.467 117 154.998C115.215 156.779 115.215 156.779 112.938 158.498C109.998 161.186 109.04 162.223 108.832 166.264C109.205 169.73 109.205 169.73 109.891 173.045C110 175.998 110 175.998 108.227 178.393C106 179.998 106 179.998 103.125 179.936C100 178.998 100 178.998 96.9375 177.373C93.5342 175.78 92.4878 175.777 89 176.998C88.0306 177.534 87.0612 178.071 86.0625 178.623C82.4453 180.247 80.745 180.19 77 178.998C74.489 175.232 75.1081 174.106 75.8125 169.748C76.3963 164.999 76.3963 164.999 74.5508 160.799C73.2879 159.659 71.9936 158.553 70.668 157.486C69 155.998 69 155.998 67.9375 152.748C68 149.998 68 149.998 70 146.998C72.0887 146.562 74.1979 146.221 76.3125 145.936C81.3122 144.979 81.3122 144.979 84.8984 141.619C86.2178 138.916 86.2178 138.916 87.168 136.178C88.9514 131.506 92.9274 132.687 97 133.998ZM92 150.998C91.3813 151.617 90.7625 152.236 90.125 152.873C88.75 154.248 87.375 155.623 86 156.998C87.3976 160.543 87.3976 160.543 89 163.998C91.64 163.998 94.28 163.998 97 163.998C97.66 161.358 98.32 158.718 99 155.998C98.2163 155.544 97.4325 155.091 96.625 154.623C94 152.998 94 152.998 92 150.998Z" fill="black"/>
<path d="M306.375 84.3745C310.401 86.8667 312.128 90.7302 314 94.9995C314 95.6595 314 96.3195 314 96.9995C315.247 97.0556 315.247 97.0556 316.52 97.1128C317.606 97.1785 318.693 97.2443 319.812 97.312C320.891 97.37 321.97 97.428 323.082 97.4878C326.207 98.0358 327.189 98.4539 329 101C329.688 103.687 329.688 103.687 329 107C327.685 108.23 326.324 109.413 324.938 110.562C321.987 113.229 321.053 114.267 320.762 118.296C320.999 120.588 321.307 122.873 321.695 125.144C322 128 322 128 320 131C315.674 131.593 313.025 131.226 309.438 128.875C306.165 126.615 306.165 126.615 302.812 127.625C301.188 128.418 299.576 129.238 298 130.125C295.228 131.337 292.989 131.259 290 131C289.34 130.34 288.68 129.68 288 129C288.038 126.602 288.154 124.205 288.312 121.812C288.528 116.475 288.528 116.475 286.484 111.628C285.24 110.493 283.959 109.395 282.641 108.347C281 107 281 107 279.812 104.312C280 102 280 102 281.25 99.812C284.308 97.7967 285.798 97.7586 289.375 97.437C293.222 96.9036 294.542 96.5951 296.945 93.4683C297.96 91.4905 298.909 89.4777 299.781 87.4331C301.417 84.1668 302.823 83.8137 306.375 84.3745ZM304 103C303.01 104.485 303.01 104.485 302 106C299.875 107.187 299.875 107.187 298 108C298.99 110.31 299.98 112.62 301 115C303.64 115 306.28 115 309 115C309.309 114.051 309.619 113.102 309.938 112.125C311 109 311 109 312 107C309.03 106.505 309.03 106.505 306 106C305.67 105.01 305.34 104.02 305 103C304.67 103 304.34 103 304 103Z" fill="black"/>
</svg>
