<svg width="390" height="518" viewBox="0 0 390 518" fill="none" xmlns="http://www.w3.org/2000/svg">
<path d="M195 259C220.316 259 245.064 251.493 266.113 237.428C287.162 223.363 303.569 203.372 313.257 179.984C322.945 156.595 325.479 130.858 320.541 106.029C315.602 81.1989 303.411 58.3915 285.51 40.4904C267.609 22.5893 244.801 10.3985 219.972 5.45954C195.142 0.520633 169.405 3.05546 146.017 12.7435C122.628 22.4315 102.637 38.8376 88.5719 59.8871C74.5071 80.9366 67 105.684 67 131C67.0339 164.937 80.5304 197.475 104.528 221.472C128.525 245.47 161.063 258.966 195 259ZM195 45.6667C211.877 45.6667 228.376 50.6714 242.409 60.048C256.442 69.4245 267.379 82.7518 273.838 98.3444C280.296 113.937 281.986 131.095 278.694 147.648C275.401 164.201 267.274 179.406 255.34 191.34C243.406 203.274 228.201 211.401 211.648 214.694C195.095 217.986 177.937 216.296 162.344 209.838C146.752 203.379 133.424 192.442 124.048 178.409C114.671 164.376 109.667 147.877 109.667 131C109.667 108.368 118.657 86.6634 134.66 70.6603C150.663 54.6572 172.368 45.6667 195 45.6667ZM195 301.667C144.096 301.723 95.2926 321.97 59.2979 357.965C23.3031 393.959 3.05647 442.762 3 493.667C3 499.325 5.24761 504.751 9.24839 508.752C13.2492 512.752 18.6754 515 24.3333 515C29.9913 515 35.4175 512.752 39.4183 508.752C43.4191 504.751 45.6667 499.325 45.6667 493.667C45.6667 454.061 61.4 416.078 89.4054 388.072C117.411 360.067 155.394 344.333 195 344.333C234.606 344.333 272.589 360.067 300.595 388.072C328.6 416.078 344.333 454.061 344.333 493.667C344.333 499.325 346.581 504.751 350.582 508.752C354.582 512.752 360.009 515 365.667 515C371.325 515 376.751 512.752 380.752 508.752C384.752 504.751 387 499.325 387 493.667C386.944 442.762 366.697 393.959 330.702 357.965C294.707 321.97 245.904 301.723 195 301.667Z" fill="#024D81" stroke="#024D81" stroke-width="5"/>
</svg>
