<svg width="518" height="518" viewBox="0 0 518 518" fill="none" xmlns="http://www.w3.org/2000/svg">
<path d="M319.395 365.667C315.171 365.676 311.041 364.43 307.527 362.088C304.013 359.745 301.274 356.412 299.658 352.51C298.042 348.608 297.621 344.314 298.45 340.173C299.279 336.032 301.319 332.23 304.312 329.251L359.416 274.147C361.405 272.168 362.983 269.816 364.059 267.226C365.136 264.636 365.691 261.858 365.691 259.053C365.691 256.248 365.136 253.471 364.059 250.881C362.983 248.29 361.405 245.938 359.416 243.96L304.312 188.835C302.331 186.854 300.76 184.503 299.688 181.915C298.616 179.327 298.065 176.553 298.065 173.752C298.065 170.951 298.616 168.177 299.688 165.589C300.76 163.001 302.331 160.65 304.312 158.669C306.293 156.689 308.644 155.117 311.232 154.046C313.82 152.974 316.594 152.422 319.395 152.422C322.196 152.422 324.969 152.974 327.557 154.046C330.145 155.117 332.497 156.689 334.477 158.669L389.581 213.773C401.656 225.848 408.333 241.933 408.333 259.021C408.333 276.109 401.677 292.195 389.581 304.291L334.477 359.395C332.499 361.379 330.148 362.952 327.56 364.025C324.971 365.098 322.197 365.67 319.395 365.667ZM213.688 359.309C215.671 357.33 217.244 354.979 218.317 352.391C219.391 349.803 219.943 347.028 219.943 344.227C219.943 341.425 219.391 338.651 218.317 336.063C217.244 333.474 215.671 331.123 213.688 329.144L158.584 274.04C154.552 270.008 152.333 264.653 152.333 258.936C152.333 253.219 154.552 247.885 158.584 243.853L213.688 188.749C215.669 186.769 217.24 184.417 218.312 181.829C219.384 179.241 219.935 176.468 219.935 173.667C219.935 170.866 219.384 168.092 218.312 165.504C217.24 162.916 215.669 160.565 213.688 158.584C211.707 156.603 209.356 155.032 206.768 153.96C204.18 152.888 201.406 152.337 198.605 152.337C195.804 152.337 193.031 152.888 190.443 153.96C187.855 155.032 185.503 156.603 183.523 158.584L128.419 213.688C116.323 225.784 109.667 241.848 109.667 258.957C109.667 276.067 116.323 292.131 128.419 304.227L183.523 359.331C185.499 361.319 187.849 362.896 190.438 363.973C193.026 365.049 195.802 365.603 198.605 365.603C201.409 365.603 204.184 365.049 206.773 363.973C209.361 362.896 211.711 361.297 213.688 359.309ZM515 408.333V109.667C515 50.8507 467.149 3 408.333 3H109.667C50.8507 3 3 50.8507 3 109.667V408.333C3 467.149 50.8507 515 109.667 515H408.333C467.149 515 515 467.149 515 408.333ZM408.333 45.6667C443.619 45.6667 472.333 74.3813 472.333 109.667V408.333C472.333 443.619 443.619 472.333 408.333 472.333H109.667C74.3813 472.333 45.6667 443.619 45.6667 408.333V109.667C45.6667 74.3813 74.3813 45.6667 109.667 45.6667H408.333Z" fill="#024D81" stroke="#024D81" stroke-width="5"/>
</svg>
