<svg width="464" height="486" viewBox="0 0 464 486" fill="none" xmlns="http://www.w3.org/2000/svg">
<path d="M145.13 262.46C185.22 262.46 217.83 229.85 217.83 189.76C217.83 149.67 185.21 117.06 145.13 117.06C105.05 117.06 72.4303 149.68 72.4303 189.76C72.4303 229.84 105.04 262.46 145.13 262.46ZM145.13 129.05C178.6 129.05 205.83 156.28 205.83 189.75C205.83 223.22 178.6 250.45 145.13 250.45C111.66 250.45 84.4303 223.22 84.4303 189.75C84.4303 156.28 111.66 129.05 145.13 129.05ZM428.38 2H252.46C234.23 2 219.4 16.83 219.4 35.06V127.08C219.4 145.31 234.23 160.14 252.46 160.14H268.52L260.73 213.48C260.36 215.98 261.61 218.44 263.83 219.64C264.72 220.12 265.69 220.35 266.66 220.35C268.11 220.35 269.55 219.83 270.67 218.81L335.94 160.14H428.36C446.59 160.14 461.42 145.31 461.42 127.08V35.06C461.44 16.83 446.61 2 428.38 2ZM449.44 127.08C449.44 138.69 439.99 148.14 428.38 148.14H333.66C332.18 148.14 330.75 148.69 329.65 149.68L275.02 198.79L281.42 155.01C281.544 154.158 281.482 153.289 281.24 152.462C280.998 151.636 280.582 150.871 280.018 150.219C279.455 149.568 278.758 149.045 277.975 148.686C277.192 148.327 276.342 148.141 275.48 148.14H252.48C240.87 148.14 231.42 138.69 231.42 127.08V35.06C231.42 23.45 240.87 14 252.48 14H428.39C440 14 449.45 23.45 449.45 35.06V127.08H449.44ZM362.33 356.43L312.23 345.85L286.69 301.47C286.165 300.556 285.407 299.796 284.494 299.268C283.581 298.739 282.545 298.461 281.49 298.461C280.436 298.461 279.399 298.739 278.486 299.268C277.574 299.796 276.816 300.556 276.29 301.47L250.75 345.85L250.59 345.88C223.49 316.05 185.26 299.01 145.14 299.01C66.5303 299.01 2.57031 362.97 2.57031 441.58V448.61C2.57031 468.12 18.4403 483.99 37.9503 483.99H252.34C271.85 483.99 287.72 468.12 287.72 448.61V443.22L328.25 461.33C329.214 461.76 330.275 461.928 331.325 461.818C332.375 461.707 333.377 461.322 334.23 460.7C335.084 460.081 335.76 459.247 336.188 458.283C336.617 457.319 336.783 456.259 336.67 455.21L331.25 404.3L365.56 366.3C366.269 365.517 366.758 364.561 366.977 363.528C367.197 362.496 367.139 361.423 366.81 360.42C366.475 359.423 365.886 358.53 365.1 357.83C364.314 357.13 363.36 356.648 362.33 356.43ZM252.33 472H37.9403C25.0503 472 14.5603 461.51 14.5603 448.62V441.59C14.5603 369.59 73.1303 311.02 145.13 311.02C179.49 311.02 212.34 324.68 236.76 348.81L200.65 356.43C198.55 356.87 196.85 358.4 196.18 360.45C195.855 361.454 195.799 362.525 196.018 363.557C196.238 364.589 196.725 365.546 197.43 366.33L231.74 404.33L226.32 455.24C226.09 457.37 227.02 459.47 228.76 460.73C230.5 461.99 232.78 462.23 234.73 461.35L275.69 443.05V448.63C275.71 461.51 265.22 472 252.33 472ZM320.52 398.27C319.956 398.898 319.53 399.637 319.27 400.44C319.01 401.242 318.921 402.091 319.01 402.93L323.61 446.14L283.93 428.41C283.15 428.06 282.32 427.89 281.48 427.89C280.64 427.89 279.81 428.06 279.03 428.41L239.35 446.14L243.95 402.93C244.13 401.23 243.58 399.54 242.44 398.27L213.32 366.02L255.84 357.04C257.51 356.69 258.95 355.64 259.8 354.16L281.48 316.49L303.16 354.16C303.58 354.892 304.15 355.527 304.832 356.023C305.515 356.52 306.295 356.866 307.12 357.04L349.64 366.02L320.52 398.27ZM265.87 49.07C265.87 45.76 268.56 43.07 271.87 43.07H346.63C349.94 43.07 352.63 45.76 352.63 49.07C352.63 52.38 349.94 55.07 346.63 55.07H271.87C268.56 55.07 265.87 52.38 265.87 49.07ZM414.97 81.07C414.97 84.38 412.28 87.07 408.97 87.07H271.87C268.56 87.07 265.87 84.38 265.87 81.07C265.87 77.76 268.56 75.07 271.87 75.07H408.96C412.28 75.07 414.97 77.76 414.97 81.07ZM414.97 113.07C414.97 116.38 412.28 119.07 408.97 119.07H271.87C268.56 119.07 265.87 116.38 265.87 113.07C265.87 109.76 268.56 107.07 271.87 107.07H408.96C412.28 107.07 414.97 109.76 414.97 113.07Z" fill="white" stroke="white" stroke-width="4"/>
</svg>
