<?xml version="1.0" encoding="UTF-8"?>
<!DOCTYPE svg PUBLIC "-//W3C//DTD SVG 1.1//EN" "http://www.w3.org/Graphics/SVG/1.1/DTD/svg11.dtd">
<svg xmlns="http://www.w3.org/2000/svg" version="1.1" width="512px" height="512px" style="shape-rendering:geometricPrecision; text-rendering:geometricPrecision; image-rendering:optimizeQuality; fill-rule:evenodd; clip-rule:evenodd" xmlns:xlink="http://www.w3.org/1999/xlink">
<g><path style="opacity:0.943" fill="#000000" d="M 344.5,-0.5 C 346.5,-0.5 348.5,-0.5 350.5,-0.5C 356.894,8.6048 363.061,17.9381 369,27.5C 387.189,70.3712 380.356,108.705 348.5,142.5C 351.411,147.81 353.245,153.477 354,159.5C 353.384,178.088 357.717,195.421 367,211.5C 373.324,218.165 377.491,225.998 379.5,235C 378.249,247.585 371.415,255.085 359,257.5C 354.453,265.927 350.453,274.594 347,283.5C 344.633,323.531 323.467,341.698 283.5,338C 276.901,335.855 270.235,334.022 263.5,332.5C 263.169,340.528 263.502,348.528 264.5,356.5C 299.799,366.433 335.132,376.266 370.5,386C 392.639,393.427 406.139,408.594 411,431.5C 412.415,458.139 412.915,484.805 412.5,511.5C 274.833,511.5 137.167,511.5 -0.5,511.5C -0.5,484.833 -0.5,458.167 -0.5,431.5C 3.90522,412.256 14.9052,398.089 32.5,389C 70.416,377.854 108.416,367.021 146.5,356.5C 148.105,321.815 139.605,289.815 121,260.5C 111,245.833 101,231.167 91,216.5C 68.0537,172.671 67.7204,128.671 90,84.5C 114.254,43.9368 150.088,21.4368 197.5,17C 247.418,17.6214 296.418,11.7881 344.5,-0.5 Z M 340.5,18.5 C 350.607,28.7037 357.107,41.037 360,55.5C 364.777,83.8327 357.11,108.166 337,128.5C 330.921,122.709 323.754,118.876 315.5,117C 302.539,115.894 289.539,115.394 276.5,115.5C 251.891,111.873 229.224,116.707 208.5,130C 189.9,145.37 180.567,165.204 180.5,189.5C 160.221,191.612 149.221,202.779 147.5,223C 149.129,242.796 159.796,253.963 179.5,256.5C 178.079,274.782 171.413,290.782 159.5,304.5C 154.666,288.162 148.166,272.495 140,257.5C 128.725,239.894 117.058,222.56 105,205.5C 80.7782,154.045 87.9449,107.545 126.5,66C 145.118,48.6937 167.118,38.3603 192.5,35C 232.765,34.7941 272.765,31.4608 312.5,25C 322.035,23.1304 331.368,20.9638 340.5,18.5 Z M 251.5,132.5 C 271.533,132.103 291.533,132.603 311.5,134C 322.568,137.619 330.401,144.786 335,155.5C 336.657,164.082 337.657,172.749 338,181.5C 340.002,194.174 344.002,206.174 350,217.5C 354.067,223.39 357.9,229.39 361.5,235.5C 361.41,237.425 360.41,238.592 358.5,239C 354.789,239.175 351.122,239.675 347.5,240.5C 342.061,251.044 336.894,261.711 332,272.5C 329.672,282.447 327.672,292.447 326,302.5C 317.755,317.87 304.922,324.037 287.5,321C 260.922,312.692 234.255,305.025 207.5,298C 205.941,302.843 204.274,307.677 202.5,312.5C 202.709,313.086 203.043,313.586 203.5,314C 217.763,318.477 232.097,322.644 246.5,326.5C 246.667,337.172 246.5,347.839 246,358.5C 232.414,367.376 218.914,376.376 205.5,385.5C 192.086,376.376 178.586,367.376 165,358.5C 164.444,347.818 164.11,337.152 164,326.5C 188.228,302.667 199.394,273.667 197.5,239.5C 190.104,239.8 182.771,239.3 175.5,238C 165.019,232.239 162.519,224.072 168,213.5C 169.543,211.622 171.376,210.122 173.5,209C 181.415,207.599 189.415,207.099 197.5,207.5C 196.152,191.939 198.319,176.939 204,162.5C 214.723,144.231 230.556,134.231 251.5,132.5 Z M 153.5,372.5 C 165.951,380.444 178.285,388.611 190.5,397C 181.5,404.667 172.5,412.333 163.5,420C 162.552,420.483 161.552,420.649 160.5,420.5C 157.307,405.394 153.64,390.394 149.5,375.5C 150.624,374.141 151.958,373.141 153.5,372.5 Z M 256.5,372.5 C 258.042,373.301 259.708,373.634 261.5,373.5C 257.986,389.558 254.152,405.558 250,421.5C 240.074,413.453 230.241,405.286 220.5,397C 232.678,388.97 244.678,380.804 256.5,372.5 Z M 278.5,378.5 C 307.421,386.815 336.421,394.981 365.5,403C 380.661,408.793 390.161,419.627 394,435.5C 394.5,455.164 394.667,474.831 394.5,494.5C 268.5,494.5 142.5,494.5 16.5,494.5C 16.0581,473.455 16.5581,452.455 18,431.5C 21.901,419.6 29.401,410.767 40.5,405C 70.3994,396.191 100.399,387.691 130.5,379.5C 131.647,379.818 132.481,380.484 133,381.5C 138.705,405.322 144.872,428.989 151.5,452.5C 169.244,437.251 187.41,422.584 206,408.5C 223.968,422.964 241.801,437.631 259.5,452.5C 266.456,428.012 272.789,403.345 278.5,378.5 Z"/></g>
<g><path style="opacity:0.929" fill="#000000" d="M 475.5,174.5 C 481.769,178.605 486.936,183.938 491,190.5C 512.813,225.634 516.48,262.634 502,301.5C 495.895,315.389 487.561,327.722 477,338.5C 472.833,334.333 468.667,330.167 464.5,326C 498.226,287.564 502.392,246.064 477,201.5C 473.398,196.062 469.232,191.062 464.5,186.5C 468.189,182.48 471.855,178.48 475.5,174.5 Z"/></g>
<g><path style="opacity:0.929" fill="#000000" d="M 452.5,197.5 C 453.239,197.369 453.906,197.536 454.5,198C 477.908,224.26 483.741,254.093 472,287.5C 467.797,297.927 461.63,306.927 453.5,314.5C 449.167,310.833 445.167,306.833 441.5,302.5C 466.833,271.5 466.833,240.5 441.5,209.5C 445.189,205.48 448.855,201.48 452.5,197.5 Z"/></g>
<g><path style="opacity:0.926" fill="#000000" d="M 429.5,220.5 C 444.486,235.622 448.652,253.288 442,273.5C 439.488,280.533 435.488,286.533 430,291.5C 425.833,287.333 421.667,283.167 417.5,279C 430.833,263.667 430.833,248.333 417.5,233C 421.704,228.964 425.704,224.798 429.5,220.5 Z"/></g>
</svg>
