<svg width="512" height="512" viewBox="0 0 512 512" fill="none" xmlns="http://www.w3.org/2000/svg">
<path d="M424.627 56H87.3725C70.0737 56 56 70.0737 56 87.3725V424.627C56 441.926 70.0737 456 87.3725 456H424.627C441.926 456 456 441.926 456 424.627V87.3725C456 70.0737 441.926 56 424.627 56ZM440.314 150.118H220.706C216.375 150.118 212.863 153.63 212.863 157.961C212.863 162.292 216.375 165.804 220.706 165.804H408.941V322.471C408.941 326.802 412.453 330.314 416.784 330.314C421.115 330.314 424.627 326.802 424.627 322.471V165.804H440.314V424.627C440.314 433.277 433.277 440.314 424.627 440.314H87.3725C78.7231 440.314 71.6863 433.277 71.6863 424.627V165.804H87.3725V416.784C87.3725 421.115 90.8847 424.627 95.2157 424.627H416.784C421.115 424.627 424.627 421.115 424.627 416.784V353.843C424.627 349.512 421.115 346 416.784 346C412.453 346 408.941 349.512 408.941 353.843V408.941H103.059V165.804H189.333C193.664 165.804 197.176 162.292 197.176 157.961C197.176 153.63 193.664 150.118 189.333 150.118H71.6863V87.3725C71.6863 78.7231 78.7231 71.6863 87.3725 71.6863H424.627C433.277 71.6863 440.314 78.7231 440.314 87.3725V150.118Z" fill="#024D81"/>
<path d="M118.745 87.3726C105.771 87.3726 95.2156 97.9279 95.2156 110.902C95.2156 123.876 105.771 134.431 118.745 134.431C131.719 134.431 142.274 123.876 142.274 110.902C142.274 97.9279 131.719 87.3726 118.745 87.3726ZM118.745 118.745C114.42 118.745 110.902 115.227 110.902 110.902C110.902 106.577 114.42 103.059 118.745 103.059C123.07 103.059 126.588 106.577 126.588 110.902C126.588 115.227 123.07 118.745 118.745 118.745ZM205.019 110.902C205.019 97.9279 194.464 87.3726 181.49 87.3726C168.516 87.3726 157.961 97.9279 157.961 110.902C157.961 123.876 168.516 134.431 181.49 134.431C194.464 134.431 205.019 123.876 205.019 110.902ZM181.49 118.745C177.165 118.745 173.647 115.227 173.647 110.902C173.647 106.577 177.165 103.059 181.49 103.059C185.815 103.059 189.333 106.577 189.333 110.902C189.333 115.227 185.815 118.745 181.49 118.745ZM244.235 87.3726C231.261 87.3726 220.706 97.9279 220.706 110.902C220.706 123.876 231.261 134.431 244.235 134.431C257.209 134.431 267.765 123.876 267.765 110.902C267.765 97.9279 257.209 87.3726 244.235 87.3726ZM244.235 118.745C239.91 118.745 236.392 115.227 236.392 110.902C236.392 106.577 239.91 103.059 244.235 103.059C248.56 103.059 252.078 106.577 252.078 110.902C252.078 115.227 248.56 118.745 244.235 118.745ZM393.255 87.3726H306.98C294.006 87.3726 283.451 97.9279 283.451 110.902C283.451 123.876 294.006 134.431 306.98 134.431H393.255C406.229 134.431 416.784 123.876 416.784 110.902C416.784 97.9279 406.229 87.3726 393.255 87.3726ZM393.255 118.745H306.98C302.656 118.745 299.137 115.227 299.137 110.902C299.137 106.577 302.656 103.059 306.98 103.059H393.255C397.58 103.059 401.098 106.577 401.098 110.902C401.098 115.227 397.58 118.745 393.255 118.745ZM198.506 254.081C202.761 247.677 205.027 240.159 205.019 232.471C205.019 210.847 187.427 193.255 165.804 193.255C144.18 193.255 126.588 210.847 126.588 232.471C126.588 254.094 144.18 271.686 165.804 271.686C173.492 271.694 181.011 269.427 187.414 265.173L191.63 269.389C193.106 270.839 195.094 271.647 197.162 271.638C199.231 271.629 201.212 270.803 202.674 269.34C204.137 267.878 204.963 265.897 204.972 263.828C204.981 261.76 204.173 259.772 202.723 258.296L198.506 254.081ZM187.034 242.609L175.831 231.406C172.768 228.344 167.803 228.344 164.739 231.406C161.676 234.469 161.676 239.435 164.739 242.499L175.941 253.701C172.777 255.219 169.312 256.005 165.803 256.001C152.829 256.001 142.274 245.445 142.274 232.471C142.274 219.497 152.829 208.942 165.803 208.942C178.777 208.942 189.332 219.497 189.332 232.471C189.337 235.98 188.551 239.445 187.034 242.609ZM236.392 208.941H377.569C381.9 208.941 385.412 205.429 385.412 201.098C385.412 196.767 381.9 193.255 377.569 193.255H236.392C232.061 193.255 228.549 196.767 228.549 201.098C228.549 205.429 232.061 208.941 236.392 208.941ZM236.392 240.314H377.569C381.9 240.314 385.412 236.802 385.412 232.471C385.412 228.14 381.9 224.627 377.569 224.627H236.392C232.061 224.627 228.549 228.14 228.549 232.471C228.549 236.802 232.061 240.314 236.392 240.314ZM236.392 271.686H314.823C319.154 271.686 322.667 268.174 322.667 263.843C322.667 259.512 319.154 256 314.823 256H236.392C232.061 256 228.549 259.512 228.549 263.843C228.549 268.174 232.061 271.686 236.392 271.686ZM166.467 308.264C165.924 306.74 164.922 305.422 163.6 304.49C162.278 303.557 160.699 303.057 159.081 303.057C157.464 303.057 155.885 303.557 154.563 304.49C153.241 305.422 152.239 306.74 151.696 308.264L129.287 371.009C127.83 375.089 129.956 379.576 134.035 381.033C138.111 382.489 142.602 380.365 144.059 376.285L148.602 363.562H169.561L174.104 376.285C175.563 380.371 180.057 382.489 184.128 381.033C188.207 379.576 190.333 375.089 188.876 371.009L166.467 308.264ZM154.205 347.877L159.081 334.222L163.958 347.877H154.205ZM236.392 318.745H377.569C381.9 318.745 385.412 315.233 385.412 310.902C385.412 306.571 381.9 303.059 377.569 303.059H236.392C232.061 303.059 228.549 306.571 228.549 310.902C228.549 315.233 232.061 318.745 236.392 318.745ZM236.392 350.118H377.569C381.9 350.118 385.412 346.605 385.412 342.275C385.412 337.944 381.9 334.431 377.569 334.431H236.392C232.061 334.431 228.549 337.944 228.549 342.275C228.549 346.605 232.061 350.118 236.392 350.118ZM236.392 381.49H314.823C319.154 381.49 322.667 377.978 322.667 373.647C322.667 369.316 319.154 365.804 314.823 365.804H236.392C232.061 365.804 228.549 369.316 228.549 373.647C228.549 377.978 232.061 381.49 236.392 381.49Z" fill="#024D81"/>
</svg>
