<?xml version="1.0" encoding="UTF-8"?>
<svg version="1.1" xmlns="http://www.w3.org/2000/svg" width="512" height="512">
<path d="M0 0 C0.7367057 -0.00175304 1.4734114 -0.00350607 2.23244151 -0.00531223 C4.72051375 -0.00999332 7.20852808 -0.00750134 9.69660282 -0.00507832 C11.49062986 -0.00694523 13.2846565 -0.00924544 15.07868248 -0.01194364 C20.02387121 -0.01808284 24.96904309 -0.01792556 29.91423476 -0.01674926 C35.24150933 -0.01654579 40.56877842 -0.02205885 45.89605045 -0.02680683 C56.33852221 -0.03512538 66.78098832 -0.03786221 77.22346311 -0.03841921 C85.70781761 -0.03889377 94.19217025 -0.04094549 102.67652416 -0.04411983 C126.71036286 -0.05292942 150.74419709 -0.05753869 174.77803742 -0.05678936 C176.07463339 -0.0567494 177.37122937 -0.05670945 178.70711613 -0.05666828 C180.00528781 -0.0566274 181.30345949 -0.05658652 182.6409697 -0.0565444 C203.68986127 -0.05613776 224.73873497 -0.06571094 245.78762137 -0.07980665 C267.38001389 -0.09415271 288.97239767 -0.10107782 310.56479508 -0.10021287 C322.69554528 -0.09988031 334.82627674 -0.10265345 346.95702267 -0.11339092 C357.28364571 -0.12247264 367.61024152 -0.1246904 377.93686681 -0.1178815 C383.20917101 -0.11460457 388.48142289 -0.11460166 393.75372219 -0.12323475 C398.57542929 -0.13104908 403.39704213 -0.12972066 408.21874679 -0.12095062 C409.96770771 -0.11940438 411.71667548 -0.1212736 413.46562832 -0.12681069 C415.83423672 -0.13381586 418.2025094 -0.12862074 420.57110596 -0.12025452 C421.88938761 -0.12047188 423.20766926 -0.12068925 424.56589884 -0.12091321 C427.64104506 0.11286534 429.35433218 0.36370961 431.84847355 2.12863445 C434.02647798 6.74439432 434.12837625 11.24067943 434.08898258 16.25311565 C434.09154586 17.45524454 434.09154586 17.45524454 434.09416091 18.68165886 C434.09744623 21.35792366 434.08646796 24.03393585 434.07552433 26.71017742 C434.07496001 28.63222021 434.07527718 30.55426343 434.07640934 32.47630596 C434.07698304 37.68863217 434.06522591 42.90086629 434.05126143 48.1131711 C434.03875695 53.56242277 434.03758379 59.01167656 434.03521061 64.46094036 C434.02899502 74.77743217 434.0125831 85.09388159 433.99251163 95.41035473 C433.97015512 107.1563346 433.95915982 118.90231649 433.94912076 130.64831233 C433.92821696 154.80844321 433.89303941 178.96853645 433.84847355 203.12863445 C434.83653996 203.10768719 435.82460636 203.08673992 436.84261417 203.06515789 C440.54005546 202.99226437 444.23743442 202.94665751 447.93538761 202.90890789 C449.52989763 202.88890392 451.12433533 202.86169145 452.71859074 202.82687664 C470.06394503 202.45782655 470.06394503 202.45782655 477.8367548 208.7341032 C483.77209654 215.8249982 485.30421368 223.31411699 485.22942448 232.38852215 C485.23410445 233.27599274 485.23878442 234.16346334 485.24360621 235.07782698 C485.2554958 238.02786117 485.24612269 240.9774256 485.23665714 243.92746258 C485.24072552 246.05209402 485.2460689 248.17672335 485.25258732 250.30134869 C485.26623494 256.05542177 485.26097275 261.80933303 485.25145006 267.56340885 C485.24384027 273.59300826 485.25090274 279.62259406 485.25560856 285.65219402 C485.26106225 295.77669028 485.25388459 305.90112083 485.23958683 316.02560711 C485.22326111 327.72098796 485.22854989 339.4162119 485.24506605 351.11158895 C485.25869187 361.16364619 485.2605952 371.21565626 485.25275004 381.26771975 C485.24807957 387.266718 485.24743149 393.26564256 485.2573595 399.26463604 C485.26604279 404.90522937 485.2599822 410.54562092 485.24267673 416.18619251 C485.2387192 418.25293995 485.23983335 420.31970445 485.24646473 422.38644505 C485.25469925 425.21410611 485.2443356 428.0411262 485.22942448 430.86874676 C485.23611664 431.68072789 485.24280881 432.49270902 485.24970376 433.32929564 C485.16665446 441.48498828 483.1006461 448.23444601 477.8367548 454.5231657 C470.27535315 460.62873757 463.3697182 460.70952438 453.97200871 460.66208172 C452.57819554 460.66914954 451.18439005 460.67789817 449.79059696 460.68818951 C446.02386355 460.71059933 442.25755199 460.70776336 438.49077749 460.69886804 C435.33740844 460.69373937 432.18411737 460.70106605 429.03075635 460.70834011 C421.58646187 460.72531309 414.14237248 460.72180043 406.69808292 460.70505047 C399.03849008 460.68813799 391.37946752 460.70395718 383.71993697 460.73627335 C377.12515145 460.76303502 370.53054273 460.7702274 363.9357084 460.76175827 C360.00509983 460.75684734 356.07483404 460.75894408 352.14426899 460.77954578 C348.44543003 460.79800649 344.74740587 460.79181954 341.04860973 460.76734638 C339.05865654 460.76001406 337.06865925 460.777114 335.07877445 460.79516888 C327.26811333 460.71317532 321.37970363 459.57655366 314.84847355 455.12863445 C312.5945673 452.77707195 312.5945673 452.77707195 311.28597355 450.50363445 C310.83093449 449.74824383 310.37589542 448.9928532 309.9070673 448.21457195 C308.13243651 444.71769801 307.7242479 442.0001931 307.72821903 438.13627911 C307.72615704 436.59030293 307.72615704 436.59030293 307.72405338 435.0130949 C307.72764866 433.88309063 307.73124393 432.75308636 307.73494816 431.58883953 C307.73480213 430.39846584 307.73465611 429.20809216 307.73450565 427.98164654 C307.73508333 424.71744838 307.74010187 421.45329299 307.74707961 418.18910336 C307.75332691 414.77781023 307.75391804 411.36651628 307.75510502 407.95521832 C307.75821427 401.49543767 307.76642219 395.03567393 307.77645451 388.57590073 C307.78762824 381.22168081 307.79312928 373.86746008 307.79814994 366.51323378 C307.80860513 351.38502304 307.82694558 336.25683425 307.84847355 321.12863445 C294.97847355 321.12863445 282.10847355 321.12863445 268.84847355 321.12863445 C268.96636231 330.83556372 268.96636231 330.83556372 269.11873722 340.54196453 C269.20994967 355.53120957 264.46175087 366.78047003 258.22347355 380.12863445 C257.1819913 382.37682949 256.14289876 384.62610958 255.10497379 386.87594891 C254.46318086 388.26500932 253.81890187 389.65292455 253.17180729 391.03952312 C250.93518674 395.85030004 249.72493309 399.41010514 249.72249699 404.71408367 C249.71678684 406.43134151 249.71678684 406.43134151 249.71096134 408.18329144 C249.70942051 410.03955654 249.70942051 410.03955654 249.70784855 411.93332195 C249.68952475 414.54400779 249.66995484 417.15468513 249.6492548 419.7653532 C249.61888902 423.88894935 249.59615467 428.0122401 249.59798527 432.13595867 C249.59892422 436.11041827 249.56014686 440.0840553 249.52034855 444.05832195 C249.52741825 445.29178356 249.53448795 446.52524517 249.54177189 447.7960844 C249.51714878 449.52279873 249.51714878 449.52279873 249.49202824 451.28439617 C249.48838261 452.29460827 249.48473698 453.30482037 249.48098087 454.34564495 C248.59934826 458.22476891 246.8960562 459.62183088 243.84847355 462.12863445 C240.74842167 462.75504684 240.74842167 462.75504684 237.20662785 462.75682354 C236.55251517 462.76391793 235.8984025 462.77101231 235.22446823 462.77832168 C233.03993913 462.79587742 230.85719524 462.77781243 228.6726923 462.75973797 C227.10372452 462.76487779 225.53476251 462.77215956 223.96581364 462.78142071 C219.7094939 462.79993519 215.45380057 462.78699616 211.1975069 462.76733041 C206.74220649 462.75094283 202.28694571 462.75975695 197.83162785 462.76484966 C190.34983663 462.76937051 182.86829542 462.75350143 175.38655949 462.72555828 C166.73804816 462.69350635 158.08998774 462.6935221 149.4414444 462.71077305 C141.12000153 462.72663979 132.79872389 462.71990365 124.47728825 462.70283604 C120.93669579 462.6959655 117.39623577 462.696998 113.85564518 462.70438099 C109.68582204 462.71204522 105.51651171 462.6999136 101.34677601 462.67253208 C99.81695802 462.66564855 98.28709213 462.66554999 96.75727558 462.67274761 C94.66771893 462.68144552 92.57974376 462.66548417 90.49031925 462.64329815 C89.32152729 462.64049123 88.15273533 462.63768431 86.94852543 462.63479233 C83.19197366 462.02144509 81.5140089 460.8019567 78.84847355 458.12863445 C78.22942448 455.53750896 78.22942448 455.53750896 78.23665714 452.56906414 C78.22669712 451.45400494 78.2167371 450.33894573 78.20647526 449.19009686 C78.21981907 447.98903301 78.23316288 446.78796917 78.24691105 445.55050945 C78.23890476 444.30996807 78.23089848 443.06942669 78.22264957 441.79129314 C78.20345265 438.49299765 78.20397265 435.19555552 78.21645451 431.89725018 C78.23255221 427.26768912 78.22739388 422.63835956 78.20287418 418.00882244 C78.19081978 415.54689507 78.1933963 413.08484033 78.21257877 410.62295818 C78.18427392 401.89180643 77.11948505 395.27450413 71.34847355 388.37863445 C70.64722355 387.53687664 69.94597355 386.69511883 69.22347355 385.8278532 C66.64839104 382.90123805 64.00562552 380.04280169 61.34847355 377.19113445 C49.35876996 364.29061084 43.82693038 353.82013786 43.72347355 336.06613445 C43.71872013 335.39324383 43.71396671 334.7203532 43.70906925 334.02707195 C43.72355771 329.6397524 44.19431018 325.46059915 44.84847355 321.12863445 C44.20589603 321.13307568 43.56331852 321.1375169 42.90126896 321.1420927 C36.21800299 321.18631314 29.53477853 321.21649558 22.85140324 321.23849773 C20.3565944 321.24856006 17.86179737 321.26221124 15.36702824 321.27951336 C11.78268871 321.30375114 8.19850502 321.31511527 4.61409855 321.32394695 C3.49730717 321.33426952 2.38051579 321.34459209 1.22988224 321.35522747 C0.18910526 321.35537853 -0.85167171 321.35552959 -1.92398739 321.35568523 C-2.83887936 321.36012646 -3.75377132 321.36456768 -4.69638729 321.36914349 C-7.38544633 321.10571932 -8.92668654 320.65758419 -11.15152645 319.12863445 C-13.13333284 315.97336345 -13.40257914 313.51474608 -13.40600204 309.82464218 C-13.41183424 308.74339225 -13.41766643 307.66214232 -13.42367536 306.54812723 C-13.41989603 305.36088618 -13.41611671 304.17364512 -13.41222286 302.95042706 C-13.41604841 301.68871951 -13.41987396 300.42701196 -13.42381543 299.12707084 C-13.43412172 295.62264384 -13.43190695 292.11831885 -13.42763484 288.61388338 C-13.42517238 284.835352 -13.43417577 281.0568455 -13.44167233 277.27832317 C-13.45443464 269.87499445 -13.45621112 262.47170196 -13.45387206 255.06836409 C-13.4520905 249.05209794 -13.45383507 243.03584281 -13.4580965 237.01957798 C-13.45869169 236.16397693 -13.45928688 235.30837588 -13.45990011 234.42684753 C-13.46111183 232.68880932 -13.46232597 230.95077111 -13.46354248 229.2127329 C-13.47442387 212.90615474 -13.47225266 196.59959725 -13.46615764 180.29301792 C-13.46098763 165.36864767 -13.47224508 150.44434267 -13.49125586 135.51998533 C-13.51061811 120.20251027 -13.51889311 104.88506611 -13.51513261 89.56757873 C-13.51321815 80.9652186 -13.5157319 72.36291402 -13.52984715 63.76056385 C-13.54174137 56.43755407 -13.54318789 49.11463403 -13.53105698 41.79162306 C-13.52515454 38.05430071 -13.52410632 34.31714268 -13.53605938 30.57983112 C-13.54885836 26.53103138 -13.53848631 22.48262528 -13.52574825 18.43382549 C-13.53312254 17.24881516 -13.54049682 16.06380482 -13.54809457 14.84288508 C-13.54088803 13.7590274 -13.53368148 12.67516972 -13.52625656 11.55846786 C-13.52631158 10.6238661 -13.52636659 9.68926434 -13.52642328 8.72634131 C-13.06930259 5.55889508 -12.06203805 3.68099227 -10.15152645 1.12863445 C-6.58959121 -0.05867729 -3.76220366 0.00201058 0 0 Z M3.84847355 17.12863445 C3.84847355 111.50863445 3.84847355 205.88863445 3.84847355 303.12863445 C17.37847355 303.12863445 30.90847355 303.12863445 44.84847355 303.12863445 C45.83847355 299.49863445 46.82847355 295.86863445 47.84847355 292.12863445 C48.49469841 290.1219362 49.14963971 288.11762307 49.84847355 286.12863445 C49.17268253 286.1035783 48.49689152 286.07852215 47.80062199 286.05270672 C44.73305675 285.93652703 41.66578197 285.81390008 38.59847355 285.69113445 C37.00325871 285.63215984 37.00325871 285.63215984 35.3758173 285.57199383 C34.35101261 285.5300993 33.32620792 285.48820477 32.27034855 285.4450407 C31.3277216 285.40838299 30.38509464 285.37172527 29.41390324 285.33395672 C27.10595978 285.14924217 25.06706831 284.77001833 22.84847355 284.12863445 C21.59076875 279.27275499 21.70926148 274.50349205 21.72148991 269.52560711 C21.71992992 268.55297735 21.71836993 267.5803476 21.71676266 266.57824421 C21.71277134 263.31637975 21.71593511 260.05456177 21.71907902 256.79269695 C21.71772415 254.45527399 21.71594374 252.11785123 21.71376896 249.78042889 C21.70920481 243.42934681 21.71098003 237.07828096 21.71414804 230.7271986 C21.71642065 224.75870425 21.71468736 218.79021191 21.71322085 212.8217175 C21.71036951 200.28020885 21.71364766 187.73870751 21.71902122 175.19720006 C21.72348894 164.43671099 21.72271291 153.6762327 21.71810246 142.91574383 C21.71275059 130.41901694 21.71064417 117.92229646 21.71371472 105.42556858 C21.71527508 98.81073911 21.71547781 92.19591706 21.71217823 85.58108807 C21.70929321 79.36280101 21.71128689 73.14453435 21.71707249 66.9262495 C21.71839668 64.64173955 21.71801172 62.35722789 21.71580982 60.07271862 C21.71308502 56.95900969 21.71649587 53.84536652 21.72148991 50.7316618 C21.71925918 49.82359091 21.71702846 48.91552002 21.71473014 47.97993183 C21.72746476 43.89781754 21.81725792 40.11006061 22.84847355 36.12863445 C26.29760879 35.07619169 29.46476495 35.00124097 33.06106663 34.99720669 C34.3449702 34.99336554 35.62887378 34.9895244 36.95168352 34.98556685 C38.37956053 34.9863471 39.80743748 34.98722588 41.23531437 34.98819256 C42.74971832 34.985609 44.2641216 34.98259586 45.77852392 34.97918916 C49.94614508 34.9711152 54.11374902 34.96932937 58.28137708 34.96859169 C62.77359082 34.96674189 67.26579561 34.95919507 71.75800419 34.95245647 C81.58210153 34.9388712 91.40619478 34.93284852 101.23029995 34.92844582 C107.36120916 34.92568449 113.4921168 34.92144742 119.62302494 34.91694164 C136.58945714 34.90475019 153.55588808 34.89444968 170.52232456 34.89106655 C171.60829116 34.89084699 172.69425776 34.89062742 173.81313244 34.8904012 C174.90172411 34.89018292 175.99031578 34.88996464 177.11189508 34.88973975 C179.31787046 34.88929628 181.52384583 34.88884972 183.72982121 34.88840008 C184.82406558 34.88817865 185.91830995 34.88795722 187.04571325 34.88772908 C204.79015749 34.88377812 222.53456074 34.86631445 240.27898914 34.84304056 C258.48589652 34.81935221 276.69278331 34.8068659 294.89970636 34.80569863 C305.12679718 34.80478061 315.35383455 34.7989961 325.58091068 34.78087902 C334.28623819 34.76551217 342.99149572 34.76033741 351.69683421 34.76861712 C356.14084504 34.77253539 360.5847148 34.77153689 365.02870846 34.75755978 C369.09360339 34.74489144 373.15825023 34.74595559 377.22314447 34.75815049 C378.69684372 34.76011979 380.17056012 34.75697265 381.64423519 34.74830613 C383.64142192 34.73730065 385.63868973 34.74644675 387.63588047 34.75669765 C388.74705219 34.75610057 389.85822391 34.75550348 391.00306749 34.7548883 C394.20367856 35.17529089 395.59079087 35.84700935 397.84847355 38.12863445 C398.35628223 41.07464409 398.35628223 41.07464409 398.36745548 44.75343609 C398.37870736 45.76796021 398.37870736 45.76796021 398.39018655 46.80297977 C398.41052145 49.07419443 398.40235042 51.34441627 398.39437199 53.615695 C398.40310392 55.24174268 398.41358837 56.86778176 398.42569828 58.49380779 C398.45362573 62.91297869 398.45696149 67.33187017 398.45597839 71.75111651 C398.45910172 76.36764596 398.48470778 80.98404846 398.50795841 85.6005125 C398.54856652 94.34461321 398.5688704 103.08863926 398.58193231 111.83281976 C398.59778609 121.78681783 398.63619483 131.74068855 398.67652559 141.69461286 C398.75899035 162.17258106 398.81224126 182.65053679 398.84847355 203.12863445 C404.78847355 203.12863445 410.72847355 203.12863445 416.84847355 203.12863445 C416.84847355 141.74863445 416.84847355 80.36863445 416.84847355 17.12863445 C280.55847355 17.12863445 144.26847355 17.12863445 3.84847355 17.12863445 Z M37.84847355 51.12863445 C37.84847355 123.72863445 37.84847355 196.32863445 37.84847355 271.12863445 C63.19635584 273.709215 63.19635584 273.709215 74.84847355 264.12863445 C77.02451709 262.92260599 79.22772547 261.76178179 81.47347355 260.69113445 C83.00874699 259.95056805 83.00874699 259.95056805 84.57503605 259.1950407 C85.32527042 258.84312664 86.0755048 258.49121258 86.84847355 258.12863445 C86.85211918 257.13384579 86.85576481 256.13905712 86.85952091 255.11412334 C86.89655338 245.71311739 86.95441587 236.3124365 87.03237629 226.91167831 C87.07178989 222.07927997 87.1040083 217.24706218 87.11946964 212.41452312 C87.13467661 207.7458667 87.1691935 203.07770686 87.21678257 198.40927219 C87.23155482 196.63325042 87.23951217 194.85715772 87.2403574 193.08107471 C87.25073394 182.20452426 87.91348734 174.14684865 93.97347355 164.87863445 C100.54302407 158.59471656 108.62602773 155.77338999 117.66878605 155.90988445 C125.72130744 156.7180228 132.5291229 160.47185423 138.03597355 166.31613445 C144.28464087 174.1933762 144.30945524 182.99034816 144.3601923 192.6950407 C144.3871191 194.60699482 144.3871191 194.60699482 144.41458988 196.55757427 C144.45934389 199.91618514 144.49176922 203.27443925 144.51802921 206.63321209 C144.54801919 210.07257285 144.59448517 213.51170881 144.63948917 216.95090008 C144.72419798 223.67670692 144.79263636 230.40252925 144.84847355 237.12863445 C146.2719611 236.90337078 146.2719611 236.90337078 147.72420597 236.67355633 C148.97564396 236.48341961 150.22708195 236.29328289 151.5164423 236.09738445 C152.754184 235.90595867 153.9919257 235.71453289 155.26717472 235.51730633 C163.48902955 234.62500332 169.24227565 236.85355714 175.9383173 241.49582195 C177.93322964 243.20108445 179.36109782 244.97450408 180.84847355 247.12863445 C181.77659855 246.72644695 181.77659855 246.72644695 182.72347355 246.31613445 C184.27034855 245.72832195 184.27034855 245.72832195 185.84847355 245.12863445 C186.5651923 244.85277508 187.28191105 244.5769157 188.02034855 244.29269695 C196.56281885 241.32731713 203.95685949 241.52624759 212.22347355 245.31613445 C216.50057667 247.64538488 219.07517252 250.15356965 221.84847355 254.12863445 C222.77659855 253.72644695 222.77659855 253.72644695 223.72347355 253.31613445 C225.27034855 252.72832195 225.27034855 252.72832195 226.84847355 252.12863445 C227.5651923 251.85277508 228.28191105 251.5769157 229.02034855 251.29269695 C237.51857199 248.34267671 244.91761626 248.52125979 253.16097355 252.25363445 C259.31013766 255.62638742 262.74812717 259.92794169 265.84847355 266.12863445 C279.70847355 266.12863445 293.56847355 266.12863445 307.84847355 266.12863445 C307.8742548 262.91242352 307.90003605 259.69621258 307.92659855 256.3825407 C307.96508363 253.24484026 308.01022312 250.10730056 308.05599308 246.96969891 C308.08410359 244.80018149 308.10536714 242.63056354 308.11946964 240.46090984 C308.14103664 237.33010032 308.18775797 234.20048692 308.23909855 231.0700407 C308.24032719 230.11029842 308.24155582 229.15055614 308.24282169 228.16173077 C308.39792956 220.92279604 309.78199431 214.37757215 314.8836298 208.97238445 C315.55265324 208.52894695 316.22167667 208.08550945 316.91097355 207.62863445 C317.58257511 207.16457195 318.25417667 206.70050945 318.9461298 206.22238445 C337.43394962 195.59283712 361.52580609 203.4900356 382.84847355 203.12863445 C382.84847355 152.96863445 382.84847355 102.80863445 382.84847355 51.12863445 C268.99847355 51.12863445 155.14847355 51.12863445 37.84847355 51.12863445 Z M103.84847355 178.12863445 C102.79377855 181.29271945 102.71602665 183.53656605 102.70371342 186.86007977 C102.69336567 188.65197735 102.69336567 188.65197735 102.68280888 190.48007488 C102.6801955 191.79238079 102.67758213 193.1046867 102.67488956 194.45675945 C102.66858398 195.8513335 102.66181818 197.24590552 102.65462589 198.64047527 C102.63995824 201.64429588 102.62823272 204.64810872 102.61867809 207.65194988 C102.60323277 212.39974911 102.57928492 217.14748155 102.55378056 221.89523602 C102.48255499 235.39616971 102.42274062 248.89714123 102.37166691 262.3981657 C102.34338651 269.85405623 102.3080205 277.30987989 102.26501316 284.76570034 C102.23820721 289.48739628 102.22032299 294.2090166 102.20897591 298.93077374 C102.19986406 301.86562668 102.18250943 304.80038749 102.16279697 307.73518658 C102.15173411 309.74916343 102.15057095 311.76318699 102.14966679 313.77719402 C102.13994846 314.97179241 102.13023014 316.1663908 102.12021732 317.39718914 C102.11598538 318.43768414 102.11175344 319.47817913 102.10739326 320.55020428 C101.84847355 323.12863445 101.84847355 323.12863445 99.84847355 326.12863445 C96.23439174 327.08329757 93.76357221 327.40250702 90.16219425 326.32467937 C87.41113869 323.71354244 87.44786466 322.96125278 87.18904972 319.29001141 C87.14784553 317.23266422 87.13378146 315.1746612 87.1414423 313.1169157 C87.12632099 312.03355434 87.11119968 310.95019299 87.09562016 309.83400249 C87.05258921 306.36950396 87.04388994 302.90587411 87.03597355 299.44113445 C87.01284135 297.0941059 86.9874787 294.74709819 86.95980167 292.40011883 C86.89679738 286.64294928 86.8619853 280.88612131 86.84847355 275.12863445 C76.33767173 278.4448864 69.3418529 285.71302882 63.73690128 294.96310711 C59.61931406 303.38009967 60.2112093 312.55341209 60.27205753 321.70529461 C60.28594342 324.62230448 60.25175664 327.53611202 60.21370792 330.4528532 C60.15700588 343.56646492 61.39396965 352.21334395 70.97347355 361.87863445 C97.31787418 389.32184891 93.94874932 400.14242303 94.84847355 445.12863445 C140.05847355 445.12863445 185.26847355 445.12863445 231.84847355 445.12863445 C232.17847355 430.60863445 232.50847355 416.08863445 232.84847355 401.12863445 C234.21615733 394.29021553 235.36207416 389.19308745 238.25472355 383.14425945 C238.58009098 382.44016949 238.90545841 381.73607952 239.24068546 381.0106535 C240.26654873 378.79512591 241.30667419 376.58670665 242.34847355 374.37863445 C243.38753231 372.15511634 244.42345763 369.93019889 245.45626163 367.70376873 C246.09535147 366.32830529 246.73842098 364.95468118 247.38619328 363.58328533 C253.74421388 349.98953905 253.08089407 335.72190448 253.41097355 321.00363445 C253.4308231 320.12644756 253.45067265 319.24926067 253.4711237 318.34549236 C253.56971865 313.91914816 253.66230714 309.49273005 253.74886417 305.06613445 C253.80920757 301.98772935 253.87688957 298.90974091 253.95589542 295.83175945 C254.04468022 292.22238558 254.10781462 288.61368119 254.16097355 285.00363445 C254.20556705 283.45265057 254.20556705 283.45265057 254.25106144 281.87033367 C254.2989369 275.93680065 253.79248854 272.65265165 249.84847355 268.12863445 C246.92174683 265.75561279 245.16538151 265.16896819 241.41097355 264.69113445 C237.13465675 265.21629616 235.1307809 266.36851236 231.84847355 269.12863445 C229.06713612 272.94584019 228.45799232 275.69391073 228.37191105 280.3825407 C228.34097355 281.56654461 228.31003605 282.75054852 228.27816105 283.97043133 C228.26011417 285.19826336 228.2420673 286.42609539 228.22347355 287.69113445 C228.17242424 290.1300154 228.11788703 292.56882652 228.05941105 295.0075407 C228.04184757 296.08592205 228.0242841 297.1643034 228.00618839 298.27536297 C227.87076647 300.72532583 227.55245022 302.78969492 226.84847355 305.12863445 C225.4330394 305.32522253 224.01603324 305.51050991 222.59847355 305.69113445 C221.8095673 305.79554852 221.02066105 305.89996258 220.20784855 306.0075407 C217.84314481 306.12890795 216.09736985 305.82496702 213.84847355 305.12863445 C212.58936506 301.24004477 212.6958687 297.33391043 212.6726923 293.29269695 C212.64949537 291.73799589 212.62537808 290.18330834 212.60042667 288.62863445 C212.56533989 286.19071653 212.53597169 283.75329749 212.52254581 281.31515789 C212.50701093 278.95289878 212.4667767 276.59207382 212.4226923 274.23019695 C212.42555492 273.14709743 212.42555492 273.14709743 212.42847538 272.04211712 C212.30642919 266.95508299 211.05037173 264.04820578 207.84847355 260.12863445 C203.74540626 257.23783704 200.57629207 256.64846492 195.7430048 257.48019695 C191.45942598 258.94632908 189.2556445 262.51787802 186.84847355 266.12863445 C186.63174797 268.76306656 186.5235864 271.30087529 186.50472355 273.9372282 C186.49010075 274.70035824 186.47547794 275.46348827 186.46041203 276.24974346 C186.41392504 278.68848742 186.379721 281.12715046 186.34847355 283.56613445 C186.307293 286.77346551 186.25359792 289.9802271 186.19222355 293.1872282 C186.18694645 293.92275417 186.18166935 294.65828014 186.17623234 295.41609478 C186.04185474 302.33558285 186.04185474 302.33558285 183.84847355 305.12863445 C179.61512637 306.01627176 175.99108668 306.68211438 171.84847355 305.12863445 C171.04447157 302.2910496 170.71661902 299.75238396 170.69075871 296.80661297 C170.68049656 295.96216122 170.67023441 295.11770947 170.65966129 294.24766827 C170.65235996 293.34342617 170.64505863 292.43918407 170.63753605 291.5075407 C170.60947439 289.58370397 170.58080997 287.65987595 170.55159855 285.73605633 C170.5103098 282.70993512 170.47341134 279.6839779 170.44710636 276.65768719 C170.41948815 273.73229928 170.37362682 270.80764541 170.32503605 267.8825407 C170.32178318 266.98032284 170.31853031 266.07810497 170.31517887 265.14854717 C170.22104666 260.33238288 169.98055644 257.03758585 166.84847355 253.12863445 C163.41502755 250.50779507 160.03857426 249.15243647 155.72347355 249.06613445 C151.44701089 250.6465663 148.09043683 253.08814186 145.69454288 257.02449322 C144.76744092 259.33015942 144.58558094 261.00480845 144.56136417 263.48239422 C144.54124271 264.75875492 144.54124271 264.75875492 144.52071476 266.06090069 C144.51543766 266.97141689 144.51016056 267.8819331 144.50472355 268.8200407 C144.49010075 269.76169582 144.47547794 270.70335094 144.46041203 271.67354107 C144.39818121 275.69904493 144.35849959 279.7247008 144.31673527 283.75046062 C144.28303735 286.69048506 144.23792254 289.63018234 144.19222355 292.5700407 C144.18694645 293.48258114 144.18166935 294.39512157 144.17623234 295.33531475 C144.16281803 296.18306973 144.14940372 297.0308247 144.13558292 297.90426922 C144.12829166 298.64943295 144.1210004 299.39459667 144.1134882 300.16234112 C143.84847355 302.12863445 143.84847355 302.12863445 141.84847355 305.12863445 C134.97956404 306.67967854 134.97956404 306.67967854 131.41097355 304.94113445 C128.63461611 301.72055983 128.72370486 298.25199742 128.72390079 294.13232708 C128.72133778 293.1258009 128.71877476 292.11927471 128.71613407 291.08224773 C128.71823383 289.98396648 128.7203336 288.88568523 128.72249699 287.75412273 C128.72062885 286.59274792 128.71876072 285.4313731 128.71683598 284.23480511 C128.71283147 281.71173735 128.71075709 279.18866596 128.71037388 276.66559505 C128.70783203 272.672998 128.69637815 268.68049203 128.68080997 264.68793011 C128.67823712 264.01344487 128.67566427 263.33895964 128.67301345 262.64403546 C128.66774713 261.26500854 128.66246165 259.88598169 128.65715742 258.50695491 C128.6220761 249.2149807 128.59549614 239.92312185 128.59798527 230.63107586 C128.59957514 224.35872487 128.58351061 218.08668876 128.54727864 211.8144387 C128.52884107 208.49751768 128.52219988 205.18123962 128.53175449 201.86426449 C128.5413536 198.16299632 128.52023424 194.46308116 128.49202824 190.76193523 C128.50222492 189.66770245 128.51242161 188.57346966 128.52292728 187.4460783 C128.46637799 180.99103089 128.46637799 180.99103089 125.42934513 175.48749065 C122.09596808 172.44086207 120.39461735 171.29311784 115.91097355 170.81613445 C110.60318143 171.35774589 107.2895701 174.19595268 103.84847355 178.12863445 Z M323.84847355 224.12863445 C323.84847355 231.05863445 323.84847355 237.98863445 323.84847355 245.12863445 C371.36847355 245.12863445 418.88847355 245.12863445 467.84847355 245.12863445 C467.84847355 238.19863445 467.84847355 231.26863445 467.84847355 224.12863445 C463.08101359 218.9050656 463.08101359 218.9050656 457.19368839 218.49371624 C456.06654423 218.47961712 454.93940006 218.465518 453.77810001 218.45099163 C452.55093266 218.46111279 451.3237653 218.47123394 450.05941105 218.4816618 C448.75973392 218.4729002 447.4600568 218.4641386 446.12099552 218.4551115 C442.56298019 218.43234889 439.00569107 218.44114115 435.44766331 218.45700693 C431.72105828 218.46968204 427.99451466 218.45792137 424.26790714 218.4500761 C418.01014405 218.44098416 411.75267618 218.45295523 405.49495792 218.47677898 C398.26416649 218.50398975 391.03407998 218.49517524 383.80330563 218.46764696 C377.59080256 218.44494364 371.37851149 218.44176166 365.16598034 218.4548403 C361.45738644 218.46262824 357.7491237 218.46369494 354.04055119 218.44715786 C349.9057894 218.43000762 345.77223929 218.45378826 341.63753605 218.4816618 C340.41036869 218.47154064 339.18320133 218.46141949 337.91884708 218.45099163 C336.79170292 218.46509075 335.66455875 218.47918987 334.50325871 218.49371624 C333.52619968 218.49560137 332.54914066 218.4974865 331.54247379 218.49942875 C328.02688326 219.07063633 328.02688326 219.07063633 323.84847355 224.12863445 Z M323.84847355 262.12863445 C323.84847355 308.65863445 323.84847355 355.18863445 323.84847355 403.12863445 C371.36847355 403.12863445 418.88847355 403.12863445 467.84847355 403.12863445 C467.84847355 356.59863445 467.84847355 310.06863445 467.84847355 262.12863445 C420.32847355 262.12863445 372.80847355 262.12863445 323.84847355 262.12863445 Z M267.84847355 283.12863445 C267.84847355 290.05863445 267.84847355 296.98863445 267.84847355 304.12863445 C280.71847355 304.12863445 293.58847355 304.12863445 306.84847355 304.12863445 C306.84847355 297.19863445 306.84847355 290.26863445 306.84847355 283.12863445 C293.97847355 283.12863445 281.10847355 283.12863445 267.84847355 283.12863445 Z M323.84847355 418.12863445 C323.84847355 425.05863445 323.84847355 431.98863445 323.84847355 439.12863445 C328.61595392 444.35355165 328.61595392 444.35355165 334.50325871 444.75682354 C336.19397495 444.77580448 336.19397495 444.77580448 337.91884708 444.79516888 C339.14601444 444.78347668 340.3731818 444.77178448 341.63753605 444.75973797 C343.58705173 444.77047092 343.58705173 444.77047092 345.57595158 444.78142071 C349.13398957 444.79991754 352.69127714 444.78700793 356.24928379 444.76733041 C359.97587785 444.75092791 363.70242498 444.75975902 367.42903996 444.76484966 C373.68681143 444.76936886 379.94428384 444.75351184 386.20198917 444.72555828 C393.43270696 444.69350689 400.66288539 444.69352251 407.89364147 444.71077305 C414.85462666 444.72664704 421.81541445 444.71989905 428.77639103 444.70283604 C431.73644623 444.69597053 434.69634297 444.69699276 437.65639591 444.70438099 C441.79103812 444.7134777 445.9248498 444.68948976 450.05941105 444.66208172 C451.90016209 444.67187054 451.90016209 444.67187054 453.77810001 444.68185711 C454.90524418 444.66913265 456.03238834 444.6564082 457.19368839 444.64329815 C458.17074741 444.64049123 459.14780643 444.63768431 460.1544733 444.63479233 C463.54056467 444.21697143 463.54056467 444.21697143 467.84847355 440.12863445 C467.84847355 432.86863445 467.84847355 425.60863445 467.84847355 418.12863445 C420.32847355 418.12863445 372.80847355 418.12863445 323.84847355 418.12863445 Z " fill="#000000" transform="translate(20.15152645111084,24.871365547180176)"/>
<path d="M0 0 C10.53445356 11.2288468 16.43121503 25.22160775 17.25 40.625 C16.75 44.4375 16.75 44.4375 15.3125 47.5 C12.03750424 49.97621631 9.88089777 49.96034516 5.87109375 49.90625 C3.13156377 49.30082901 2.32757974 48.77307601 0.75 46.4375 C0.22593404 43.97730148 -0.16826357 41.60979963 -0.5 39.125 C-2.16811627 28.81674631 -6.03263521 18.09788853 -14.0390625 10.9609375 C-25.98644988 2.72863877 -37.74787223 -0.78650437 -52.25 0.4375 C-63.72959945 2.63600127 -74.38231181 7.98853203 -81.7578125 17.234375 C-86.7944977 24.67073744 -88.940138 32.24421721 -90.08691406 41.04296875 C-90.54298965 44.14855366 -90.89593948 46.06464646 -93.08984375 48.375 C-96.54097231 50.07248096 -99.50031428 50.22892957 -103.25 49.4375 C-106.7230477 46.74588803 -107.18109082 44.96293247 -107.75 40.625 C-106.89832736 23.6199363 -99.77334971 8.89322991 -87.25 -2.5625 C-61.67869907 -23.20925055 -24.34316884 -22.60172449 0 0 Z " fill="#000000" transform="translate(180.25,162.5625)"/>
<path d="M0 0 C0.99698172 -0.00679667 0.99698172 -0.00679667 2.01410449 -0.01373065 C4.24577087 -0.02641143 6.47719435 -0.02475194 8.70889282 -0.02310181 C10.30711685 -0.02908479 11.90533798 -0.0358898 13.5035553 -0.04345703 C17.84863153 -0.06114805 22.19362902 -0.06581372 26.53873777 -0.0670886 C30.16451942 -0.06898632 33.79028266 -0.07634241 37.41605723 -0.08343279 C45.969896 -0.09972624 54.52369266 -0.10460089 63.07754517 -0.10317993 C71.90434093 -0.10197832 80.73089224 -0.12308174 89.55762613 -0.15466726 C97.13308533 -0.18081028 104.7084646 -0.19154805 112.28396857 -0.19026911 C116.80969366 -0.18975888 121.3352016 -0.19547551 125.86088181 -0.21662521 C130.11761731 -0.23597438 134.37392778 -0.23615505 138.63067818 -0.22159195 C140.19276741 -0.21949858 141.75488301 -0.22423617 143.31692696 -0.23631287 C145.45031086 -0.25173809 147.5822242 -0.24247754 149.71557617 -0.22705078 C151.50584512 -0.22868508 151.50584512 -0.22868508 153.33228111 -0.2303524 C157.11754805 0.36734085 158.7862158 1.59709765 161.48477173 4.26742554 C162.34778503 7.01191505 162.12142353 9.47418746 161.48477173 12.26742554 C159.61462079 14.69862176 158.20338828 15.90811726 155.48477173 17.26742554 C153.36769869 17.37030066 151.24731917 17.40696118 149.12776184 17.41459656 C148.46804534 17.41827325 147.80832883 17.42194993 147.12862092 17.42573804 C144.90773047 17.43679201 142.68688677 17.44062159 140.4659729 17.44442749 C138.87775015 17.45069082 137.28952887 17.45733751 135.7013092 17.46434021 C131.37892082 17.48176138 127.05654351 17.4923049 122.73412871 17.50054574 C120.03482543 17.50569328 117.3355256 17.5117691 114.63622475 17.51805687 C106.19416244 17.53711162 97.75210889 17.55134244 89.31002921 17.55966884 C79.55861949 17.56944489 69.80743654 17.59577277 60.05610675 17.63616973 C52.52313993 17.66630793 44.99023821 17.6811355 37.45721227 17.68444985 C32.95604959 17.68680287 28.4551291 17.69579584 23.95403099 17.72091103 C19.71948806 17.7441569 15.48534737 17.74843918 11.25075722 17.73814964 C9.69672433 17.73765333 8.14267188 17.74400201 6.58869934 17.75770569 C4.46622681 17.77537512 2.34520564 17.76834486 0.22273254 17.75517273 C-0.96470456 17.75756108 -2.15214167 17.75994944 -3.37556171 17.76241016 C-7.17433844 17.16351342 -8.82545481 15.97193564 -11.51522827 13.26742554 C-12.75197079 9.6344944 -12.8598103 8.02550601 -11.26522827 4.51742554 C-7.8806482 0.16582259 -5.25342099 0.01476227 0 0 Z " fill="#000000" transform="translate(212.51522827148438,96.73257446289063)"/>
<path d="M0 0 C1.19452789 -0.0112793 2.38905579 -0.02255859 3.61978149 -0.03417969 C4.92692108 -0.02608276 6.23406067 -0.01798584 7.58081055 -0.00964355 C8.97391491 -0.01506481 10.36701355 -0.02218749 11.76010132 -0.03088379 C15.54114715 -0.04912014 19.32175644 -0.04204862 23.10280991 -0.02936745 C27.05943733 -0.01924127 31.01602736 -0.02863206 34.97265625 -0.03491211 C41.6171744 -0.04218965 48.26151471 -0.0325981 54.90600586 -0.0135498 C62.58829023 0.00821927 70.27014997 0.00116797 77.95242405 -0.02085543 C84.54787869 -0.03900648 91.14320548 -0.04156924 97.73867702 -0.03110075 C101.67803851 -0.02486414 105.6172004 -0.02403463 109.55654907 -0.0372467 C113.26015731 -0.04880045 116.96321804 -0.04078895 120.66676712 -0.01766968 C122.67459612 -0.00985623 124.68247142 -0.02174257 126.6902771 -0.03417969 C128.48206894 -0.01726074 128.48206894 -0.01726074 130.31005859 0 C131.34833298 0.0015081 132.38660736 0.0030162 133.4563446 0.00457001 C136.8487744 0.63733342 138.03085209 1.84553712 140.1550293 4.50793457 C140.72143555 6.50793457 140.72143555 6.50793457 140.7175293 8.50793457 C140.73944336 9.16793457 140.76135742 9.82793457 140.78393555 10.50793457 C139.79930201 13.63919153 137.83000553 14.70636805 135.1550293 16.50793457 C132.34891415 17.01129913 132.34891415 17.01129913 129.22776794 17.01586914 C127.44653534 17.03278809 127.44653534 17.03278809 125.62931824 17.05004883 C124.33512466 17.0419519 123.04093109 17.03385498 121.70751953 17.0255127 C120.32411971 17.03093568 118.94072566 17.03805934 117.55734253 17.04675293 C113.80734521 17.06496695 110.05778874 17.05792745 106.30778384 17.04523659 C102.38185877 17.03510086 98.45597113 17.04450366 94.53004456 17.05078125 C87.93858062 17.05805515 81.34729607 17.0484759 74.75585938 17.02941895 C67.13546908 17.00764153 59.51550672 17.01470868 51.89512676 17.03672457 C45.35060667 17.05487522 38.80621541 17.05743885 32.26167828 17.04696989 C28.35363026 17.04073423 24.44578343 17.03990136 20.53774834 17.05311584 C16.86449388 17.06466934 13.19179146 17.0566586 9.51859665 17.03353882 C7.52747609 17.02572589 5.53630884 17.03761129 3.54521179 17.05004883 C2.36054321 17.03876953 1.17587463 17.02749023 -0.04469299 17.01586914 C-1.07429421 17.01436104 -2.10389544 17.01285294 -3.16469669 17.01129913 C-6.54333666 16.37677907 -7.72845587 15.15978175 -9.8449707 12.50793457 C-10.3762207 10.50793457 -10.3762207 10.50793457 -10.3449707 8.50793457 C-10.36043945 7.51793457 -10.36043945 7.51793457 -10.3762207 6.50793457 C-8.94252481 1.11049122 -5.08099275 0.00738019 0 0 Z " fill="#000000" transform="translate(233.844970703125,143.4920654296875)"/>
<path d="M0 0 C1.44678886 -0.00856522 1.44678886 -0.00856522 2.92280579 -0.01730347 C4.5078466 -0.01898026 4.5078466 -0.01898026 6.12490845 -0.02069092 C7.23897568 -0.02565582 8.35304291 -0.03062073 9.50086975 -0.03573608 C13.19407768 -0.05036655 16.88724268 -0.05716085 20.58047485 -0.06268311 C23.14253745 -0.06843338 25.70460003 -0.07419112 28.2666626 -0.07995605 C32.95449405 -0.08912412 37.64230828 -0.09542372 42.33014715 -0.09845281 C49.22669509 -0.10293379 56.12304487 -0.12048526 63.01953256 -0.1494534 C68.99588027 -0.17368402 74.9721343 -0.18139754 80.94853592 -0.18312836 C83.4898855 -0.18615896 86.03123417 -0.19420113 88.57255173 -0.20731354 C92.12531368 -0.22433758 95.67759119 -0.22250252 99.2303772 -0.21600342 C100.28302261 -0.2252182 101.33566803 -0.23443298 102.42021179 -0.243927 C108.05256943 -0.21159493 112.11265426 -0.0539412 116.30703735 4.14044189 C116.89962995 11.37007152 116.89962995 11.37007152 114.43203735 14.57794189 C111.27867025 16.89659418 109.5594378 17.26892999 105.69636536 17.29434204 C104.72479996 17.3029425 103.75323456 17.31154297 102.75222778 17.32040405 C101.14776794 17.32679398 101.14776794 17.32679398 99.51089478 17.33331299 C98.38722 17.34149048 97.26354523 17.34966797 96.1058197 17.35809326 C92.37472066 17.38297509 88.64365969 17.3994695 84.9125061 17.41387939 C83.64080378 17.41920307 82.36910145 17.42452675 81.05886269 17.43001175 C75.71533719 17.45124625 70.37182508 17.47037637 65.02826977 17.48163414 C57.37096356 17.49787277 49.71416482 17.53104819 42.05704993 17.58803499 C36.02356452 17.63140676 29.99031015 17.64737933 23.95665932 17.65376663 C21.39016417 17.66049639 18.8236769 17.67576278 16.25728416 17.69965744 C12.66824874 17.73116969 9.08050017 17.73136603 5.49136353 17.72393799 C3.89601273 17.74854599 3.89601273 17.74854599 2.26843262 17.77365112 C-2.5178002 17.73302543 -4.91111587 17.71152074 -8.86073303 14.82662964 C-11.25408527 11.31779352 -11.29921491 9.30842621 -10.69296265 5.14044189 C-8.10203502 0.45209667 -5.0758791 0.01800096 0 0 Z " fill="#000000" transform="translate(257.6929626464844,189.85955810546875)"/>
<path d="M0 0 C1.093125 -0.02384766 2.18625 -0.04769531 3.3125 -0.07226562 C11.28289627 -0.05761416 11.28289627 -0.05761416 14.71484375 2.91015625 C16.30716903 6.1964446 16.67585493 7.95794038 16 11.5625 C14.1875 14.21484375 14.1875 14.21484375 11 16.5625 C7.13267582 17.28170381 3.35980108 17.21519586 -0.5625 17.125 C-1.60341797 17.13595703 -2.64433594 17.14691406 -3.71679688 17.15820312 C-11.37318302 17.08434731 -11.37318302 17.08434731 -14.29467773 14.65209961 C-16.15259277 12.37552198 -16.54513419 11.45108845 -16.5 8.5625 C-16.51546875 7.5725 -16.51546875 7.5725 -16.53125 6.5625 C-14.42689312 -1.35978474 -6.52194913 -0.06537331 0 0 Z " fill="#000000" transform="translate(416,379.4375)"/>
<path d="M0 0 C1.05638672 -0.00064453 2.11277344 -0.00128906 3.20117188 -0.00195312 C4.29880859 0.01802734 5.39644531 0.03800781 6.52734375 0.05859375 C7.62884766 0.05150391 8.73035156 0.04441406 9.86523438 0.03710938 C17.9412148 0.10124361 17.9412148 0.10124361 20.25170898 1.84350586 C22.08424225 4.33986684 22.28111886 6.43401222 22.46484375 9.49609375 C21.41586793 13.34233841 20.85946914 14.23301016 17.46484375 16.49609375 C13.66759834 16.95798908 9.84968926 16.8664181 6.02734375 16.87109375 C4.97740234 16.89558594 3.92746094 16.92007812 2.84570312 16.9453125 C1.83443359 16.94917969 0.82316406 16.95304687 -0.21875 16.95703125 C-1.14228271 16.96524902 -2.06581543 16.9734668 -3.01733398 16.98193359 C-6.28447065 16.35150579 -7.46795889 15.04366897 -9.53515625 12.49609375 C-10.06640625 10.49609375 -10.06640625 10.49609375 -10.03515625 8.49609375 C-10.050625 7.50609375 -10.050625 7.50609375 -10.06640625 6.49609375 C-8.67992585 1.27640283 -4.96222112 -0.00952442 0 0 Z " fill="#000000" transform="translate(448.53515625,379.50390625)"/>
<path d="M0 0 C1.093125 -0.01095703 2.18625 -0.02191406 3.3125 -0.03320312 C11.33701283 0.04055159 11.33701283 0.04055159 14.3125 2.38305664 C16 4.5625 16 4.5625 16.5 8 C15.88840114 12.35764191 15.33820714 13.681049 12 16.5625 C8.17991758 17.32411099 4.44557439 17.25963141 0.5625 17.1875 C-0.47455078 17.20683594 -1.51160156 17.22617187 -2.58007812 17.24609375 C-7.4975913 17.21451049 -10.1499662 17.18960827 -14.1875 14.2109375 C-16 11.5625 -16 11.5625 -16.5625 8.5625 C-14.7809637 -0.93902691 -8.11213442 -0.17697463 0 0 Z " fill="#000000" transform="translate(377,379.4375)"/>
</svg>
