<svg width="300" height="300" viewBox="0 0 300 300" fill="none" xmlns="http://www.w3.org/2000/svg">
<g clip-path="url(#clip0_369_926)">
<mask id="mask0_369_926" style="mask-type:luminance" maskUnits="userSpaceOnUse" x="0" y="0" width="300" height="300">
<path d="M300 0H0V300H300V0Z" fill="white"/>
</mask>
<g mask="url(#mask0_369_926)">
<path d="M209.63 36.6666H93.3333C91.4924 36.6666 90 38.159 90 40V260C90 261.841 91.4924 263.333 93.3333 263.333H209.63C211.471 263.333 212.963 261.841 212.963 260V40C212.963 38.159 211.471 36.6666 209.63 36.6666Z" stroke="black" stroke-width="6"/>
<path d="M209.63 224.631H93.3333C91.4924 224.631 90 226.123 90 227.964V260.001C90 261.842 91.4924 263.334 93.3333 263.334H209.63C211.471 263.334 212.963 261.842 212.963 260.001V227.964C212.963 226.123 211.471 224.631 209.63 224.631Z" stroke="black" stroke-width="6"/>
<path d="M209.63 36.6666H93.3333C91.4924 36.6666 90 38.159 90 40V65.5555C90 67.3965 91.4924 68.8889 93.3333 68.8889H209.63C211.471 68.8889 212.963 67.3965 212.963 65.5555V40C212.963 38.159 211.471 36.6666 209.63 36.6666Z" stroke="black" stroke-width="6"/>
<path d="M132.037 52.7783H170.926" stroke="black" stroke-width="6" stroke-linecap="round"/>
<path d="M110 125.529C110 121.41 111.645 117.461 114.573 114.548C117.501 111.636 121.472 110 125.613 110H167.248C171.389 110 175.36 111.636 178.288 114.548C181.216 117.461 182.861 121.41 182.861 125.529V141.073C181.086 141.156 179.322 141.55 177.657 142.259V125.529C177.657 122.783 176.56 120.15 174.608 118.209C172.656 116.267 170.008 115.176 167.248 115.176H125.613C122.852 115.176 120.205 116.267 118.253 118.209C116.301 120.15 115.204 122.783 115.204 125.529V174.704C115.204 175.391 114.93 176.049 114.442 176.534C113.954 177.02 113.292 177.292 112.602 177.292C111.912 177.292 111.25 177.02 110.762 176.534C110.274 176.049 110 175.391 110 174.704V125.529ZM112.082 182.65C114.002 183.602 116.401 184.384 118.415 183.944C119.722 183.654 121.418 182.945 123.323 182.148C127.929 180.217 133.747 177.784 138.218 179.575C141.533 180.9 141.257 184.653 140.326 186.46C140.144 186.801 140.284 187.288 140.664 187.376C142.567 187.761 144.511 187.913 146.451 187.831C146.472 187.587 146.512 187.345 146.571 187.107L148.523 179.352C149.022 177.352 150.062 175.526 151.531 174.073L176.668 149.071C177.569 148.161 178.643 147.437 179.826 146.942C181.01 146.446 182.281 146.189 183.565 146.184C184.85 146.179 186.122 146.427 187.31 146.914C188.497 147.401 189.576 148.117 190.484 149.02C191.392 149.924 192.111 150.997 192.6 152.178C193.089 153.36 193.338 154.625 193.333 155.903C193.328 157.18 193.069 158.444 192.57 159.621C192.071 160.799 191.343 161.866 190.428 162.762L165.291 187.759C163.827 189.216 161.992 190.25 159.983 190.751L153.623 192.329C147.789 194.027 139.082 193.479 136.381 191.382C134.044 189.57 133.95 186.791 134.736 184.943C134.913 184.529 134.601 183.996 134.159 184.063C131.582 184.425 129.475 185.357 127.393 186.273C124.348 187.619 121.377 188.929 117.109 188.401C113.409 187.945 111.348 186.025 110.213 184.13C109.578 183.074 110.978 182.101 112.087 182.65H112.082Z" fill="black"/>
</g>
</g>
<defs>
<clipPath id="clip0_369_926">
<rect width="300" height="300" fill="white"/>
</clipPath>
</defs>
</svg>
