<svg width="50" height="50" viewBox="0 0 50 50" fill="none" xmlns="http://www.w3.org/2000/svg">
<g clip-path="url(#clip0_118_61)">
<path d="M15.9013 -0.0374522C15.9834 -0.0379782 16.0655 -0.0385041 16.1502 -0.039046C16.423 -0.0404332 16.6957 -0.0397485 16.9685 -0.0390511C17.1651 -0.0396085 17.3617 -0.0402887 17.5582 -0.0410822C18.0905 -0.0428307 18.6228 -0.0427196 19.155 -0.042162C19.6001 -0.0418597 20.0452 -0.0424555 20.4903 -0.0430447C21.5406 -0.0444153 22.591 -0.0442647 23.6413 -0.0431519C24.7233 -0.042031 25.8053 -0.0434051 26.8873 -0.0460227C27.8178 -0.0481891 28.7483 -0.048834 29.6787 -0.0482613C30.2338 -0.0479327 30.7889 -0.0481648 31.3439 -0.0498483C31.8661 -0.051363 32.3882 -0.0509683 32.9103 -0.0491349C33.1014 -0.0487761 33.2924 -0.0490754 33.4835 -0.0501003C34.681 -0.0560322 35.7258 -0.0209933 36.7371 0.708415C36.8089 0.759272 36.8808 0.81013 36.9549 0.862529C37.0059 0.900294 37.0568 0.93806 37.1094 0.97697C36.797 1.4767 36.4298 1.90733 36.0352 2.34416C35.7635 2.23713 35.5007 2.1262 35.2382 1.99752C34.8455 1.82992 34.4686 1.81436 34.0462 1.81736C33.9665 1.81676 33.8869 1.81617 33.8048 1.81556C33.5393 1.81394 33.2738 1.8144 33.0083 1.81487C32.8173 1.81415 32.6264 1.81331 32.4354 1.81236C31.9177 1.81019 31.4 1.80991 30.8822 1.81009C30.4495 1.8101 30.0168 1.80927 29.5841 1.80845C28.563 1.80657 27.5419 1.80629 26.5207 1.80695C25.4684 1.8076 24.4162 1.80537 23.364 1.80175C22.4595 1.79875 21.5551 1.79764 20.6507 1.79802C20.1109 1.79822 19.5712 1.79769 19.0315 1.7953C18.5237 1.79312 18.0159 1.79331 17.5081 1.79529C17.3223 1.79562 17.1364 1.79513 16.9505 1.79373C15.577 1.76775 15.577 1.76775 14.3555 2.34416C13.5957 3.10393 13.6117 3.89988 13.4766 4.98088C17.8916 4.98088 22.3066 4.98088 26.8555 4.98088C26.8555 5.56095 26.8555 6.14103 26.8555 6.73869C22.4404 6.73869 18.0254 6.73869 13.4766 6.73869C13.4766 8.15666 13.4766 9.57463 13.4766 11.0356C14.0083 10.9389 14.0083 10.9389 14.5508 10.8403C14.7119 10.8403 14.873 10.8403 15.0391 10.8403C15.0391 10.0024 15.0391 9.16447 15.0391 8.30119C15.6191 8.30119 16.1992 8.30119 16.7969 8.30119C16.7969 9.13908 16.7969 9.97697 16.7969 10.8403C17.1836 10.8725 17.5703 10.9047 17.9688 10.9379C20.6587 11.4696 23.2287 13.027 24.8152 15.2881C25.9075 16.9187 26.7578 18.806 26.7578 20.8012C27.5957 20.8012 28.4336 20.8012 29.2969 20.8012C29.2969 21.3813 29.2969 21.9613 29.2969 22.559C28.459 22.559 27.6211 22.559 26.7578 22.559C26.7256 22.9457 26.6934 23.3324 26.6602 23.7309C26.0977 26.5515 24.4994 29.048 22.138 30.7046C20.5039 31.7932 18.7424 32.3431 16.7969 32.5199C16.7969 33.3578 16.7969 34.1957 16.7969 35.059C16.2168 35.059 15.6367 35.059 15.0391 35.059C15.0391 34.2211 15.0391 33.3832 15.0391 32.5199C14.7279 32.4867 14.7279 32.4867 14.4104 32.4528C11.6279 32.1001 9.09542 30.6277 7.34863 28.4367C5.99943 26.6835 5.29782 24.7559 5.07812 22.559C4.24023 22.559 3.40234 22.559 2.53906 22.559C2.53906 21.9789 2.53906 21.3988 2.53906 20.8012C3.37695 20.8012 4.21484 20.8012 5.07812 20.8012C5.10028 20.5937 5.12244 20.3863 5.14526 20.1725C5.49479 17.4154 6.93576 14.9815 9.03244 13.1779C9.69584 12.6654 10.4048 12.2246 11.1555 11.8524C11.2866 11.7873 11.2866 11.7873 11.4203 11.7208C11.4865 11.6881 11.5528 11.6553 11.6211 11.6215C11.622 11.4768 11.622 11.4768 11.6228 11.3291C11.6284 10.4154 11.6356 9.50179 11.6441 8.58815C11.6485 8.11855 11.6523 7.64895 11.6549 7.17933C11.6575 6.72532 11.6614 6.27133 11.6663 5.81733C11.6679 5.64495 11.6691 5.47256 11.6697 5.30018C11.6758 3.75227 11.8199 2.34171 12.9047 1.14253C13.7623 0.359001 14.7487 -0.0464741 15.9013 -0.0374522ZM9.76562 14.9418C9.65629 15.0374 9.65629 15.0374 9.54475 15.1348C7.95038 16.6207 7.10198 18.6729 6.83594 20.8012C7.38379 20.8012 7.93164 20.8012 8.49609 20.8012C8.49609 21.3813 8.49609 21.9613 8.49609 22.559C7.94824 22.559 7.40039 22.559 6.83594 22.559C7.2324 25.0259 8.15749 26.8672 9.96094 28.6137C9.99316 28.6137 10.0254 28.6137 10.0586 28.6137C10.0682 28.5145 10.0777 28.4153 10.0876 28.3131C10.2801 26.4764 10.8612 24.9588 12.3047 23.7309C12.5597 23.5484 12.8113 23.3952 13.0859 23.2426C12.9446 22.9341 12.768 22.6866 12.561 22.4186C11.9321 21.5245 11.6959 20.5175 11.8164 19.434C12.0246 18.3167 12.4782 17.3146 13.414 16.6283C14.5277 15.9279 15.6865 15.6785 16.9872 15.9333C17.9336 16.1962 18.8197 16.6855 19.3357 17.5455C19.9967 18.7374 20.2664 19.9835 19.9158 21.3322C19.7043 21.9231 19.3261 22.4808 18.8751 22.9164C18.7275 23.0406 18.7275 23.0406 18.75 23.2426C18.9242 23.3777 18.9242 23.3777 19.1467 23.5111C20.4722 24.374 21.2955 25.5658 21.6469 27.1271C21.7213 27.6194 21.7486 28.117 21.7773 28.6137C23.5791 27.157 24.6336 25.2347 25 22.9496C25 22.8207 25 22.6918 25 22.559C24.4844 22.559 23.9688 22.559 23.4375 22.559C23.4375 21.9789 23.4375 21.3988 23.4375 20.8012C23.9531 20.8012 24.4687 20.8012 25 20.8012C24.8867 18.385 23.5622 16.2957 21.8311 14.6874C20.4696 13.4623 18.6147 12.7082 16.7969 12.5981C16.7969 13.1459 16.7969 13.6938 16.7969 14.2582C16.2168 14.2582 15.6367 14.2582 15.0391 14.2582C15.0391 13.7104 15.0391 13.1625 15.0391 12.5981C13.1312 12.5981 11.1568 13.7047 9.76562 14.9418ZM14.5508 17.9692C14.4642 18.0235 14.3776 18.0779 14.2883 18.134C13.7748 18.6475 13.5078 19.2671 13.446 19.9833C13.4586 20.6572 13.7217 21.268 14.1724 21.7655C14.6563 22.2039 15.2636 22.4692 15.918 22.5102C16.5887 22.4721 17.3072 22.1597 17.7734 21.6801C18.2982 20.943 18.4558 20.3435 18.3594 19.434C18.1003 18.601 17.61 18.1201 16.8762 17.6884C16.0412 17.442 15.2789 17.4809 14.5508 17.9692ZM12.8906 25.5863C12.8101 25.6689 12.7295 25.7515 12.6465 25.8366C11.923 26.718 11.7996 27.8018 11.8103 28.8944C11.8107 28.9803 11.8112 29.0662 11.8116 29.1546C11.8128 29.3649 11.8145 29.5752 11.8164 29.7856C12.8324 30.3688 13.8825 30.6176 15.0391 30.7621C15.0391 30.2143 15.0391 29.6664 15.0391 29.102C15.6191 29.102 16.1992 29.102 16.7969 29.102C16.7969 29.6498 16.7969 30.1977 16.7969 30.7621C17.76 30.6431 18.6303 30.4366 19.5312 30.0785C19.6248 30.0472 19.7183 30.0158 19.8147 29.9835C20.0671 29.7396 20.0583 29.6467 20.0809 29.3034C20.0819 29.106 20.0796 28.9086 20.0745 28.7113C20.073 28.6095 20.0715 28.5077 20.07 28.4028C20.0415 27.4253 19.8434 26.6624 19.2383 25.8793C19.1996 25.8256 19.161 25.7718 19.1212 25.7164C18.4429 24.8361 17.4882 24.3825 16.4062 24.2192C15.0839 24.0554 13.7722 24.6095 12.8906 25.5863Z" fill="black"/>
<path d="M36.7193 16.6013C37.2994 16.6013 37.8794 16.6013 38.4771 16.6013C38.4771 18.8894 38.4771 21.1775 38.4771 23.5349C39.3861 22.7924 39.3861 22.7924 40.2532 22.009C40.3705 21.899 40.4879 21.789 40.6053 21.6791C40.6599 21.6279 40.7144 21.5768 40.7706 21.5241C41.1726 21.1499 41.5913 20.7952 42.0095 20.4393C42.126 20.34 42.2425 20.2407 42.3589 20.1414C42.4179 20.0911 42.4768 20.0408 42.5376 19.989C42.9229 19.6588 43.2995 19.3209 43.6712 18.9756C44.1248 18.5558 44.591 18.1589 45.0739 17.7732C45.2769 17.6074 45.465 17.4348 45.6548 17.2544C46.1502 16.8279 46.822 16.5885 47.4737 16.5586C48.3324 16.6556 49.083 16.956 49.6417 17.6384C50.0287 18.1815 50.0728 18.6381 50.0555 19.293C50.0565 19.3815 50.0576 19.4701 50.0587 19.5613C50.0487 20.4788 49.6541 20.9829 49.0667 21.6489C48.9902 21.7369 48.9902 21.7369 48.9121 21.8267C48.4838 22.3171 48.0445 22.7973 47.6026 23.2755C47.1963 23.7168 46.8046 24.1699 46.4159 24.6267C45.8468 25.2948 45.2684 25.9512 44.6729 26.5958C44.2666 27.0372 43.8749 27.4902 43.4862 27.947C42.9171 28.6151 42.3388 29.2715 41.7432 29.9161C41.337 30.3575 40.9452 30.8105 40.5565 31.2673C39.9886 31.934 39.4117 32.589 38.8174 33.2323C37.973 34.1066 37.973 34.1066 37.586 35.2231C37.3078 36.7593 36.4853 38.067 35.2377 39.0012C34.2171 39.6653 33.1429 40.0451 31.9246 40.0577C31.8228 40.0589 31.8228 40.0589 31.7189 40.0601C31.4957 40.0625 31.2724 40.0641 31.0491 40.0655C30.9726 40.066 30.8961 40.0666 30.8173 40.0671C30.4127 40.0697 30.0082 40.0716 29.6036 40.073C29.2693 40.0743 28.9349 40.077 28.6006 40.081C28.196 40.0858 27.7915 40.0883 27.3869 40.0889C27.2331 40.0896 27.0792 40.0911 26.9253 40.0934C26.71 40.0965 26.4949 40.0965 26.2796 40.0958C26.1573 40.0966 26.0349 40.0974 25.9088 40.0982C25.4996 40.0228 25.3562 39.8694 25.0982 39.5505C25.0105 39.2781 25.0287 39.0459 25.0982 38.7693C25.2966 38.5168 25.5113 38.341 25.7608 38.1418C26.3305 37.6737 26.5585 37.2617 26.6607 36.5232C26.669 36.3374 26.6735 36.1514 26.6744 35.9655C26.7044 33.9101 26.9742 32.3468 28.4246 30.792C29.3152 29.9381 30.419 29.302 31.6663 29.1768C32.4116 29.0834 32.8394 28.5694 33.3509 28.0678C33.5639 27.8656 33.7915 27.6845 34.0215 27.5022C34.5148 27.1053 34.9777 26.682 35.4379 26.2478C35.4915 26.1972 35.5452 26.1467 35.6004 26.0946C35.6511 26.0446 35.7018 25.9947 35.754 25.9433C35.938 25.781 35.938 25.781 36.1392 25.6685C36.4502 25.4742 36.6744 25.2851 36.7627 24.9156C36.8325 24.3368 36.8087 23.7537 36.7956 23.1721C36.7941 22.9826 36.793 22.7931 36.7922 22.6036C36.7893 22.1063 36.7816 21.6092 36.7729 21.112C36.7649 20.604 36.7614 20.096 36.7574 19.588C36.7491 18.5924 36.7353 17.5969 36.7193 16.6013ZM46.2713 19.1038C45.9184 19.4333 45.5623 19.7487 45.1849 20.0498C44.6236 20.5025 44.1012 20.9917 43.5754 21.4845C43.1193 21.912 42.6473 22.3192 42.1712 22.7243C41.503 23.2937 40.8463 23.8722 40.2013 24.468C39.76 24.8743 39.307 25.2661 38.8502 25.6547C38.1821 26.2238 37.5257 26.8022 36.881 27.3977C36.5397 27.7119 36.192 28.0175 35.8404 28.3201C35.7887 28.3646 35.737 28.409 35.6838 28.4549C35.0882 28.9673 34.4919 29.4785 33.8873 29.9802C34.4133 30.6202 34.9965 31.1982 35.584 31.7808C35.6849 31.8811 35.7857 31.9815 35.8865 32.0819C36.1313 32.3256 36.3764 32.569 36.6216 32.8123C36.9759 32.6475 37.1753 32.4615 37.4334 32.1653C37.5109 32.0769 37.5885 31.9885 37.6684 31.8975C37.7787 31.7702 37.7787 31.7702 37.8912 31.6404C37.9465 31.5777 38.0019 31.515 38.059 31.4504C38.3224 31.1522 38.5821 30.8509 38.8399 30.5479C39.4086 29.8799 39.9868 29.2239 40.582 28.5795C40.9883 28.1381 41.3801 27.6851 41.7688 27.2283C42.3379 26.5602 42.9162 25.9038 43.5117 25.2592C43.918 24.8178 44.3098 24.3648 44.6985 23.908C45.2672 23.2403 45.8452 22.5843 46.4403 21.94C47.6787 20.7555 47.6787 20.7555 48.377 19.3052C48.371 18.9346 48.371 18.9346 48.1268 18.6643C47.3905 18.108 46.8685 18.5346 46.2713 19.1038ZM29.4199 32.3369C28.8875 33.099 28.5121 33.8939 28.4956 34.8295C28.4928 34.9375 28.49 35.0455 28.4872 35.1568C28.4822 35.3811 28.4778 35.6054 28.4742 35.8297C28.4504 36.6901 28.2998 37.4653 28.0279 38.281C28.6166 38.2908 29.2052 38.2978 29.794 38.3025C29.9937 38.3044 30.1934 38.3071 30.3932 38.3105C32.0252 38.3376 33.4258 38.2777 34.6834 37.1091C35.3234 36.4417 35.7733 35.6417 35.8668 34.7109C35.8133 34.2275 35.4406 33.9403 35.1049 33.6175C34.9901 33.5024 34.9901 33.5024 34.8729 33.3848C34.7109 33.2234 34.5476 33.0632 34.3833 32.9041C34.132 32.6603 33.8855 32.4124 33.6393 32.1636C33.4811 32.0071 33.3227 31.8509 33.164 31.6949C33.0535 31.5837 33.0535 31.5837 32.9407 31.4703C32.5129 31.0575 32.5129 31.0575 31.9488 30.9055C30.974 31.0681 30.0483 31.5694 29.4199 32.3369Z" fill="black"/>
<path d="M29.6852 3.26109C29.763 3.2604 29.8408 3.2597 29.921 3.25899C30.1816 3.25727 30.442 3.25904 30.7026 3.2608C30.8894 3.2603 31.0763 3.25959 31.2632 3.25869C31.7707 3.25688 32.2781 3.25814 32.7855 3.26006C33.3164 3.26166 33.8473 3.2608 34.3782 3.26031C35.2697 3.25986 36.1613 3.26141 37.0528 3.26414C38.0838 3.26727 39.1147 3.26727 40.1457 3.26559C41.1372 3.26404 42.1287 3.26469 43.1201 3.26636C43.5422 3.26703 43.9643 3.26693 44.3864 3.26621C44.8833 3.26546 45.3803 3.26664 45.8773 3.26932C46.0597 3.26999 46.2422 3.27 46.4247 3.2693C46.6736 3.26845 46.9224 3.27001 47.1714 3.27218C47.2437 3.27137 47.3161 3.27057 47.3906 3.26974C47.734 3.27527 47.9405 3.31701 48.2387 3.49244C48.4655 3.74347 48.4993 3.83577 48.5 4.16827C48.5014 4.25931 48.5028 4.35035 48.5042 4.44415C48.5032 4.54334 48.5022 4.64253 48.5012 4.74472C48.5021 4.84972 48.5029 4.95472 48.5038 5.0629C48.506 5.41039 48.5045 5.75776 48.5029 6.10526C48.5032 6.34656 48.5037 6.58787 48.5043 6.82917C48.505 7.33512 48.504 7.84104 48.5017 8.34699C48.4989 8.9957 48.5005 9.64431 48.5034 10.293C48.5052 10.7914 48.5046 11.2898 48.5034 11.7882C48.503 12.0274 48.5034 12.2665 48.5046 12.5057C48.5058 12.8401 48.5039 13.1743 48.5012 13.5086C48.5022 13.6076 48.5032 13.7066 48.5042 13.8086C48.5028 13.8999 48.5015 13.9912 48.5 14.0853C48.4999 14.1643 48.4997 14.2433 48.4995 14.3246C48.4041 14.6788 48.2396 14.8217 47.9498 15.0412C47.6707 15.0893 47.4499 15.1074 47.1714 15.1032C47.0935 15.104 47.0157 15.1047 46.9355 15.1055C46.675 15.1074 46.4145 15.1059 46.154 15.1044C45.9671 15.105 45.7802 15.1059 45.5933 15.107C45.0859 15.1092 44.5784 15.1083 44.071 15.1068C43.5401 15.1055 43.0092 15.1067 42.4783 15.1075C41.5868 15.1083 40.6953 15.1072 39.8037 15.1048C38.7727 15.1022 37.7418 15.103 36.7108 15.1057C35.8259 15.108 34.941 15.1083 34.0561 15.107C33.5274 15.1062 32.9988 15.1061 32.4702 15.1077C31.9732 15.1091 31.4763 15.1082 30.9793 15.1053C30.7968 15.1047 30.6143 15.1049 30.4319 15.106C30.1829 15.1073 29.9341 15.1056 29.6852 15.1032C29.6128 15.1043 29.5405 15.1054 29.4659 15.1065C29.0924 15.0994 28.9187 15.0502 28.6179 14.8221C28.4099 14.5413 28.3573 14.4314 28.3565 14.0897C28.3551 13.9993 28.3537 13.909 28.3523 13.8159C28.3538 13.669 28.3538 13.669 28.3553 13.5191C28.3545 13.4151 28.3536 13.311 28.3527 13.2038C28.3506 12.86 28.352 12.5163 28.3537 12.1725C28.3533 11.9336 28.3528 11.6946 28.3522 11.4556C28.3515 10.9548 28.3526 10.4541 28.3548 9.95333C28.3576 9.3113 28.356 8.66937 28.3531 8.02734C28.3513 7.53389 28.3519 7.04047 28.3532 6.54702C28.3535 6.31029 28.3531 6.07356 28.352 5.83683C28.3507 5.50599 28.3526 5.17532 28.3553 4.8445C28.3543 4.74658 28.3533 4.64865 28.3523 4.54776C28.3537 4.45741 28.3551 4.36705 28.3565 4.27396C28.3567 4.19583 28.3569 4.1177 28.3571 4.0372C28.5421 3.35515 29.0588 3.25108 29.6852 3.26109ZM30.1763 5.08025C30.1763 7.78728 30.1763 10.4943 30.1763 13.2834C35.6226 13.2834 41.0689 13.2834 46.6802 13.2834C46.6802 10.5763 46.6802 7.86931 46.6802 5.08025C41.2339 5.08025 35.7876 5.08025 30.1763 5.08025Z" fill="black"/>
<path d="M11.7187 33.3008C12.2988 33.3008 12.8789 33.3008 13.4766 33.3008C13.4766 34.6865 13.4766 36.0723 13.4766 37.5C13.9232 37.4943 14.3698 37.4887 14.83 37.4828C15.1131 37.4803 15.3961 37.478 15.6792 37.4762C16.1284 37.4732 16.5776 37.4698 17.0268 37.4632C17.389 37.4579 17.7511 37.4549 18.1134 37.4537C18.2515 37.4528 18.3897 37.451 18.5278 37.4484C18.7213 37.4448 18.9149 37.4446 19.1085 37.4446C19.2186 37.4435 19.3288 37.4424 19.4423 37.4413C19.7266 37.5 19.7266 37.5 19.9573 37.7019C20.1512 38.0492 20.1723 38.3314 20.1677 38.7188C20.1684 38.7907 20.1691 38.8625 20.1698 38.9365C20.1715 39.173 20.1704 39.4093 20.1691 39.6458C20.1693 39.8105 20.1697 39.9753 20.1702 40.1401C20.1708 40.4849 20.1699 40.8298 20.1681 41.1746C20.1659 41.6165 20.1672 42.0584 20.1695 42.5003C20.1709 42.8404 20.1705 43.1804 20.1694 43.5204C20.1692 43.6834 20.1695 43.8463 20.1704 44.0093C20.1714 44.237 20.1699 44.4646 20.1677 44.6923C20.1685 44.7595 20.1693 44.8267 20.1701 44.896C20.1644 45.2191 20.1365 45.3851 19.937 45.6442C19.5436 45.9369 19.1624 45.9125 18.6935 45.9115C18.6174 45.9117 18.5414 45.9119 18.463 45.9122C18.2073 45.9128 17.9516 45.9127 17.6958 45.9126C17.5128 45.9129 17.3298 45.9132 17.1468 45.9136C16.649 45.9145 16.1513 45.9147 15.6535 45.9148C15.2383 45.9149 14.823 45.9152 14.4078 45.9156C13.4282 45.9164 12.4487 45.9166 11.4692 45.9165C10.4581 45.9165 9.44698 45.9175 8.43589 45.919C7.56838 45.9203 6.70087 45.9208 5.83336 45.9208C5.31499 45.9208 4.79662 45.921 4.27825 45.9221C3.79074 45.923 3.30325 45.923 2.81575 45.9223C2.63674 45.9222 2.45774 45.9224 2.27874 45.923C2.03451 45.9238 1.79032 45.9233 1.5461 45.9226C1.47515 45.9231 1.4042 45.9236 1.33109 45.9241C0.94358 45.9215 0.635333 45.891 0.292959 45.7031C0.0589455 45.3521 0.0687516 45.0983 0.0692744 44.6928C0.0686184 44.6201 0.0679625 44.5473 0.0672866 44.4723C0.0654304 44.2317 0.0650498 43.9911 0.0648398 43.7504C0.0642123 43.5831 0.0635553 43.4159 0.0628699 43.2487C0.0617 42.8981 0.0613386 42.5474 0.0614543 42.1968C0.0614742 41.7475 0.0588067 41.2982 0.0554439 40.8488C0.0532728 40.5034 0.0528759 40.158 0.0529793 39.8126C0.0527487 39.6469 0.051885 39.4812 0.050376 39.3156C0.0484631 39.0839 0.049023 38.8523 0.0502009 38.6206C0.0491034 38.5521 0.0480058 38.4837 0.046875 38.4132C0.050689 38.1181 0.0858947 37.912 0.22872 37.6525C0.652741 37.4034 1.08109 37.4491 1.56354 37.4557C1.67313 37.4556 1.78273 37.4555 1.89564 37.4555C2.25815 37.4558 2.62059 37.4588 2.98308 37.4619C3.23431 37.4626 3.48555 37.4631 3.73678 37.4635C4.33062 37.4649 4.92443 37.4679 5.51826 37.4719C6.19441 37.4762 6.87055 37.4784 7.54671 37.4803C8.9374 37.4844 10.3281 37.4916 11.7187 37.5C11.7187 36.1143 11.7187 34.7285 11.7187 33.3008ZM1.85546 39.2578C1.85546 40.8691 1.85546 42.4805 1.85546 44.1406C7.30175 44.1406 12.748 44.1406 18.3594 44.1406C18.3594 42.5293 18.3594 40.918 18.3594 39.2578C12.9131 39.2578 7.46679 39.2578 1.85546 39.2578Z" fill="black"/>
<path d="M36.7188 38.2812C37.2988 38.2812 37.8789 38.2812 38.4766 38.2812C38.4832 39.3178 38.4886 40.3544 38.4917 41.391C38.4933 41.8724 38.4953 42.3539 38.4987 42.8353C38.5019 43.3007 38.5036 43.7661 38.5044 44.2315C38.5049 44.4082 38.5059 44.585 38.5075 44.7617C38.5211 46.3258 38.4095 47.6613 37.2875 48.8598C36.4197 49.6706 35.4973 50.0308 34.3175 50.0261C34.2356 50.0266 34.1536 50.027 34.0691 50.0275C33.7958 50.0287 33.5224 50.0285 33.249 50.0284C33.0524 50.029 32.8559 50.0296 32.6593 50.0304C32.1262 50.0321 31.5932 50.0325 31.0601 50.0327C30.7267 50.0328 30.3934 50.0332 30.06 50.0337C28.8963 50.0355 27.7325 50.0363 26.5687 50.0362C25.4853 50.0361 24.4019 50.0381 23.3184 50.0412C22.3871 50.0438 21.4558 50.0448 20.5245 50.0447C19.9688 50.0446 19.4131 50.0452 18.8574 50.0473C18.3344 50.0492 17.8115 50.0492 17.2886 50.0478C17.0972 50.0476 16.9058 50.048 16.7145 50.0492C15.1876 50.058 14.0803 49.8708 12.8906 48.8281C12.6638 48.5867 12.4464 48.3483 12.3047 48.0469C12.4359 47.6534 12.6162 47.5947 12.97 47.3877C13.0733 47.3258 13.1767 47.2638 13.2832 47.2C13.5742 47.0703 13.5742 47.0703 13.7928 47.0852C14.0654 47.2164 14.243 47.4411 14.4531 47.6562C15.0227 48.0664 15.413 48.1591 16.1022 48.1596C16.2211 48.1602 16.2212 48.1602 16.3425 48.1609C16.6093 48.1622 16.876 48.1628 17.1427 48.1634C17.3336 48.1641 17.5245 48.1649 17.7153 48.1658C18.3432 48.1683 18.971 48.1698 19.5988 48.1712C19.8149 48.1718 20.0311 48.1723 20.2472 48.1728C21.1465 48.1749 22.0459 48.1768 22.9452 48.1779C24.2336 48.1794 25.5221 48.1827 26.8105 48.1882C27.7166 48.192 28.6227 48.1939 29.5288 48.1944C30.0698 48.1948 30.6108 48.196 31.1519 48.1991C31.6613 48.2021 32.1706 48.2027 32.68 48.2015C32.8665 48.2015 33.0531 48.2023 33.2396 48.2041C34.6199 48.2395 34.6199 48.2395 35.8398 47.6562C37.0017 46.4319 36.6592 45.1445 36.7188 43.3594C31.7559 43.3594 26.793 43.3594 21.6797 43.3594C21.6797 42.7793 21.6797 42.1992 21.6797 41.6016C26.6426 41.6016 31.6055 41.6016 36.7188 41.6016C36.7188 40.5059 36.7188 39.4102 36.7188 38.2812Z" fill="black"/>
<path d="M1.4643 3.26056C1.55233 3.25986 1.64036 3.25916 1.73105 3.25844C2.02142 3.25679 2.31165 3.25868 2.60201 3.26077C2.804 3.26069 3.00599 3.26045 3.20798 3.26006C3.63101 3.25978 4.05399 3.26121 4.47701 3.26389C5.01942 3.26722 5.56175 3.26663 6.10417 3.26481C6.52113 3.26377 6.93807 3.26465 7.35503 3.26611C7.55504 3.26662 7.75505 3.26657 7.95507 3.26596C8.23446 3.26543 8.51372 3.26742 8.7931 3.27009C8.91723 3.26914 8.91723 3.26914 9.04386 3.26816C9.60473 3.2773 9.60473 3.2773 9.907 3.50855C10.1757 3.88189 10.1655 4.12574 10.169 4.58593C10.1696 4.65565 10.1702 4.72538 10.1709 4.79723C10.1728 5.02843 10.174 5.25963 10.175 5.49084C10.1753 5.56978 10.1757 5.64872 10.1762 5.73005C10.1782 6.14789 10.1796 6.56572 10.1805 6.98356C10.1816 7.41507 10.1849 7.84653 10.1888 8.27802C10.1914 8.60987 10.1922 8.9417 10.1925 9.27356C10.193 9.43261 10.1942 9.59166 10.196 9.7507C10.1983 9.9735 10.1983 10.1962 10.1976 10.419C10.1981 10.5457 10.1987 10.6724 10.1993 10.8029C10.1438 11.1897 10.0339 11.349 9.76106 11.623C9.44121 11.7829 9.08712 11.7359 8.73555 11.7364C8.60666 11.7371 8.60666 11.7371 8.47518 11.7378C8.19007 11.7393 7.90497 11.7399 7.61987 11.7405C7.42207 11.741 7.22428 11.7416 7.02649 11.7421C6.61133 11.7432 6.19617 11.7437 5.78102 11.7441C5.24902 11.7446 4.71705 11.747 4.18506 11.7497C3.77631 11.7516 3.36757 11.7521 2.95882 11.7522C2.7627 11.7525 2.56658 11.7533 2.37046 11.7546C2.096 11.7563 1.8216 11.7561 1.54713 11.7554C1.4661 11.7563 1.38506 11.7572 1.30157 11.7582C0.851337 11.7549 0.556602 11.7198 0.190743 11.4277C0.0474327 11.141 0.0761769 10.851 0.0742518 10.5366C0.0734532 10.465 0.0726546 10.3933 0.0718318 10.3195C0.0694047 10.082 0.0677918 9.84446 0.066384 9.6069C0.0658641 9.52581 0.0653442 9.44471 0.0648085 9.36116C0.062198 8.93193 0.060306 8.5027 0.0588976 8.07346C0.0572719 7.63012 0.052899 7.18685 0.0479238 6.74353C0.044637 6.40264 0.0435094 6.06176 0.0429575 5.72085C0.0423015 5.55744 0.0408139 5.39403 0.0384759 5.23063C0.0353877 5.00173 0.0353809 4.77302 0.0361048 4.54411C0.0345027 4.47677 0.0329006 4.40943 0.03125 4.34005C0.0357245 3.99393 0.091286 3.81315 0.285605 3.52433C0.688467 3.24899 0.986689 3.25395 1.4643 3.26056ZM1.8509 5.08C1.8509 6.69133 1.8509 8.30266 1.8509 9.96281C4.01008 9.96281 6.16926 9.96281 8.39387 9.96281C8.39387 8.35148 8.39387 6.74016 8.39387 5.08C6.23469 5.08 4.07551 5.08 1.8509 5.08Z" fill="black"/>
<path d="M31.7344 9.96094C36.1494 9.96094 40.5645 9.96094 45.1133 9.96094C45.1133 10.541 45.1133 11.1211 45.1133 11.7188C40.6982 11.7188 36.2832 11.7188 31.7344 11.7188C31.7344 11.1387 31.7344 10.5586 31.7344 9.96094Z" fill="black"/>
<path d="M36.7188 6.64062C39.4902 6.64062 42.2617 6.64062 45.1172 6.64062C45.1172 7.2207 45.1172 7.80078 45.1172 8.39844C42.3457 8.39844 39.5742 8.39844 36.7188 8.39844C36.7188 7.81836 36.7188 7.23828 36.7188 6.64062Z" fill="black"/>
<path d="M9.17969 40.8203C11.6934 40.8203 14.207 40.8203 16.7969 40.8203C16.7969 41.4004 16.7969 41.9805 16.7969 42.5781C14.2832 42.5781 11.7695 42.5781 9.17969 42.5781C9.17969 41.998 9.17969 41.418 9.17969 40.8203Z" fill="black"/>
<path d="M3.42188 40.8203C4.80762 40.8203 6.19336 40.8203 7.62109 40.8203C7.62109 41.4004 7.62109 41.9805 7.62109 42.5781C6.23535 42.5781 4.84961 42.5781 3.42188 42.5781C3.42188 41.998 3.42188 41.418 3.42188 40.8203Z" fill="black"/>
<path d="M31.7344 6.64062C32.8623 6.64062 33.9902 6.64062 35.1523 6.64062C35.1523 7.2207 35.1523 7.80078 35.1523 8.39844C34.0244 8.39844 32.8965 8.39844 31.7344 8.39844C31.7344 7.81836 31.7344 7.23828 31.7344 6.64062Z" fill="black"/>
<path d="M3.42188 6.64062C4.5498 6.64062 5.67773 6.64062 6.83984 6.64062C6.83984 7.2207 6.83984 7.80078 6.83984 8.39844C5.71191 8.39844 4.58398 8.39844 3.42188 8.39844C3.42188 7.81836 3.42188 7.23828 3.42188 6.64062Z" fill="black"/>
<path d="M24.2188 44.9219C24.7988 44.9219 25.3789 44.9219 25.9766 44.9219C25.9766 45.502 25.9766 46.082 25.9766 46.6797C25.3965 46.6797 24.8164 46.6797 24.2188 46.6797C24.2188 46.0996 24.2188 45.5195 24.2188 44.9219Z" fill="black"/>
</g>
<defs>
<clipPath id="clip0_118_61">
<rect width="50" height="50" fill="white"/>
</clipPath>
</defs>
</svg>
