<?xml version="1.0" encoding="UTF-8"?>
<svg version="1.1" xmlns="http://www.w3.org/2000/svg" width="512" height="512">
<path d="M0 0 C1.91083021 -0.00807831 1.91083021 -0.00807831 3.86026305 -0.01631981 C7.35736797 -0.03064343 10.85423461 -0.02657126 14.35135186 -0.019153 C18.13812605 -0.01439078 21.92485091 -0.02695801 25.71160889 -0.03717041 C33.1154044 -0.0543048 40.51911485 -0.05520954 47.92292503 -0.04995751 C53.94556031 -0.04590426 59.96817058 -0.04737303 65.99080467 -0.05270576 C66.85033644 -0.05345419 67.70986822 -0.05420261 68.5954464 -0.05497371 C70.34199877 -0.0565053 72.08855112 -0.05804365 73.83510347 -0.05958868 C90.18832318 -0.07329453 106.54149495 -0.0678897 122.89471354 -0.05640347 C137.82726836 -0.04647488 152.75969921 -0.05940869 167.69223491 -0.08333766 C183.0563852 -0.10777115 198.42047785 -0.11732599 213.78464717 -0.11068493 C222.39785823 -0.10720191 231.01097402 -0.10936382 239.6241703 -0.12693596 C246.95692036 -0.1417113 254.28950807 -0.14222424 261.62225512 -0.12486505 C265.35699571 -0.11639595 269.09144694 -0.11410401 272.82617188 -0.1295166 C297.64628355 -0.22452485 317.92836992 1.30673435 336.69963074 19.38768005 C362.93600367 47.33414248 363.86667027 83.02839159 363.81315613 119.26463318 C363.81287362 121.95661519 363.81298936 124.64859449 363.81359863 127.34057617 C363.81411963 133.10633818 363.8110175 138.87208876 363.80536079 144.6378479 C363.79718781 152.9738741 363.79462467 161.30989485 363.7933728 169.64592463 C363.79119134 183.17491784 363.78455593 196.70390498 363.77507019 210.2328949 C363.76587256 223.36473053 363.75880326 236.4965645 363.75456238 249.62840271 C363.75416829 250.84527204 363.75416829 250.84527204 363.75376625 252.08672458 C363.75246108 256.15704587 363.75119741 260.22736717 363.74995434 264.29768848 C363.73960995 297.99435674 363.72201643 331.69101765 363.69963074 365.38768005 C364.6177655 365.36673279 365.53590027 365.34578552 366.4818573 365.32420349 C369.89618502 365.25593422 373.30978516 365.20583621 376.72453308 365.16795349 C378.20088664 365.14786705 379.67716092 365.12059204 381.15324402 365.08592224 C383.27828036 365.03726821 385.40226308 365.01468332 387.52775574 364.99705505 C388.80553894 364.97610779 390.08332214 364.95516052 391.39982605 364.93357849 C394.69963074 365.38768005 394.69963074 365.38768005 397.1146698 367.19041443 C399.40651164 370.36764433 399.29817239 373.3659135 399.19963074 377.13768005 C399.18609558 377.88920349 399.17256042 378.64072693 399.15861511 379.4150238 C398.52145748 397.10726138 391.53274758 415.18334366 379.69963074 428.38768005 C379.05767761 429.18174255 378.41572449 429.97580505 377.75431824 430.79393005 C363.99126974 447.24864486 343.15954478 457.72583832 321.85247612 459.7538538 C317.89459042 459.89701315 313.94777134 459.92249267 309.9884491 459.89561462 C308.47636029 459.9002377 306.964276 459.90659995 305.45220089 459.9145236 C301.34613875 459.93104735 297.24045387 459.92304898 293.13439131 459.91057873 C288.6871293 459.90146018 284.23992836 459.91553141 279.79267883 459.92649841 C271.09987269 459.94421617 262.40720527 459.94047386 253.71439385 459.92884785 C246.64491663 459.91978713 239.57547808 459.9186009 232.5059967 459.92294312 C231.4970019 459.92355605 230.48800709 459.92416898 229.44843668 459.92480049 C227.39821091 459.92607948 225.34798516 459.92737634 223.29775941 459.92869085 C204.10604591 459.9400769 184.91440904 459.92701401 165.72270811 459.90548939 C149.28170907 459.88762021 132.84082304 459.89072488 116.39982605 459.90916443 C97.2733261 459.93060611 78.14689318 459.93897844 59.02038288 459.92671537 C56.97801019 459.92544128 54.93563748 459.92418379 52.89326477 459.92294312 C51.38622503 459.92201746 51.38622503 459.92201746 49.84874004 459.92107311 C42.79380196 459.91763009 35.73890667 459.92342586 28.68397522 459.93286133 C20.07769538 459.94411941 11.47156133 459.94096156 2.86529803 459.91973835 C-1.51955382 459.90927897 -5.90416325 459.90501802 -10.28901291 459.91833496 C-14.31343327 459.93037175 -18.33738955 459.92351352 -22.3617686 459.90242475 C-23.80705211 459.89800593 -25.25237594 459.90011671 -26.69763291 459.9099279 C-40.15550949 459.99418257 -53.12312022 457.63940251 -65.23786926 451.57518005 C-65.94822327 451.22898621 -66.65857727 450.88279236 -67.39045715 450.52610779 C-72.92521355 447.74889031 -77.68723319 444.53153357 -82.30036926 440.38768005 C-83.10603333 439.7225238 -83.91169739 439.05736755 -84.74177551 438.37205505 C-100.17223499 425.27383297 -110.63852208 406.53811202 -113.30036926 386.38768005 C-113.50250801 383.51141409 -113.57533467 380.64533651 -113.61286926 377.76268005 C-113.64187317 377.01244568 -113.67087708 376.2622113 -113.70075989 375.48924255 C-113.73918302 372.15529676 -113.68428254 369.9274746 -111.72200012 367.16844177 C-108.40776126 364.73129506 -106.21406498 364.93007848 -102.12849426 364.99705505 C-101.44607666 365.00271484 -100.76365906 365.00837463 -100.06056213 365.01420593 C-97.88977165 365.03652369 -95.7206572 365.08670498 -93.55036926 365.13768005 C-92.07513276 365.1577513 -90.59987027 365.17600099 -89.12458801 365.19236755 C-85.51597425 365.23637125 -81.90833545 365.30536422 -78.30036926 365.38768005 C-78.30093884 364.53030377 -78.30093884 364.53030377 -78.30151993 363.65560675 C-78.32393171 329.72672771 -78.34107282 295.79785037 -78.35143459 261.86896554 C-78.3526852 257.78877792 -78.35397953 253.70859031 -78.3553009 249.62840271 C-78.35556321 248.81616184 -78.35582552 248.00392098 -78.35609578 247.16706675 C-78.36043888 234.04112496 -78.36831891 220.91518759 -78.37752206 207.78924841 C-78.38689649 194.30586346 -78.39243288 180.82248081 -78.39445776 167.33909273 C-78.39582513 159.02915244 -78.40013296 150.71922462 -78.40828573 142.40928817 C-78.41359999 136.69930711 -78.41516298 130.98933244 -78.41387064 125.27934909 C-78.41323453 121.99237478 -78.4147205 118.70542651 -78.41957474 115.41845512 C-78.47034356 79.24908473 -78.47034356 79.24908473 -75.61286926 67.38768005 C-75.43916809 66.64622742 -75.26546692 65.90477478 -75.08650208 65.14085388 C-69.45623203 42.19774738 -57.67417518 21.3070075 -37.30036926 8.38768005 C-25.63485167 1.7761154 -13.24247075 -0.06830432 0 0 Z M-46.30036926 39.38768005 C-57.41592419 56.26740866 -61.65102887 75.62629508 -61.5408783 95.65679932 C-61.54258715 96.8194686 -61.544296 97.98213789 -61.54605663 99.18003958 C-61.54932449 103.03683408 -61.53839263 106.89345068 -61.52742004 110.75022888 C-61.52573813 113.5304373 -61.52708579 116.31064237 -61.52830505 119.09085083 C-61.52934906 125.05639261 -61.52312337 131.02189033 -61.51182938 136.98742104 C-61.49551129 145.61235886 -61.49035994 154.23727558 -61.48785339 162.86222716 C-61.48348614 176.85876062 -61.47020348 190.85527064 -61.45124817 204.85179138 C-61.43286418 218.44065738 -61.41872003 232.029517 -61.41023254 245.61839294 C-61.4097071 246.45731029 -61.40918165 247.29622764 -61.40864028 248.16056672 C-61.40603003 252.36955653 -61.40350266 256.57854638 -61.40101647 260.78753626 C-61.38031421 295.65426756 -61.34511524 330.52097164 -61.30036926 365.38768005 C-60.46823001 365.39006841 -59.63609076 365.39245676 -58.77873516 365.39491749 C-38.54883152 365.4540042 -18.31904765 365.52951348 1.91072559 365.62339497 C11.69362119 365.66839727 21.47648001 365.70780162 31.25944519 365.7341156 C39.7843749 365.75705985 48.30918868 365.79041763 56.83402652 365.83638161 C61.34960232 365.86036221 65.86506298 365.8790592 70.38070107 365.88529396 C74.62835991 365.89132305 78.87572394 365.91124341 83.12327385 365.94195557 C84.68456097 365.95077087 86.24588656 365.95445119 87.80719757 365.95268822 C89.93471597 365.95104398 92.06132649 365.96765999 94.1887207 365.98895264 C95.38059903 365.9935616 96.57247736 365.99817057 97.80047321 366.0029192 C100.69963074 366.38768005 100.69963074 366.38768005 102.54406261 367.72510052 C107.9910728 375.56201423 105.39911486 389.175299 105.69963074 396.38768005 C130.11963074 396.38768005 154.53963074 396.38768005 179.69963074 396.38768005 C180.02963074 387.80768005 180.35963074 379.22768005 180.69963074 370.38768005 C185.1356109 365.9516999 185.48839656 365.88678604 191.33079529 365.86869812 C191.99574847 365.86119687 192.66070165 365.85369562 193.34580493 365.84596705 C195.57246277 365.82567773 197.7981035 365.83379422 200.02482605 365.84178162 C201.62146513 365.8330472 203.21809545 365.82256188 204.81471252 365.81045532 C209.14911762 365.78255825 213.48323762 365.77919145 217.81771946 365.78017521 C222.34749321 365.77704928 226.87713794 365.75143777 231.40684509 365.72819519 C239.98445744 365.68760707 248.5619937 365.66728789 257.1396873 365.6542213 C266.90507975 365.63836076 276.67034256 365.59994915 286.43565989 365.55962801 C306.52360743 365.47719061 326.61154893 365.42312251 346.69963074 365.38768005 C346.76841878 329.89634647 346.82122126 294.40502465 346.85282673 258.91363803 C346.85657848 254.71585766 346.86046148 250.51807742 346.86442566 246.32029724 C346.86521259 245.48465608 346.86599952 244.64901491 346.8668103 243.78805129 C346.87983546 230.28838394 346.90347324 216.78875523 346.93108913 203.28911074 C346.959224 189.41925402 346.97582401 175.54941744 346.98189622 161.67953336 C346.98599597 153.13309379 346.99890626 144.58676348 347.02338014 136.04035757 C347.03933732 130.16589097 347.04400873 124.29148018 347.04013487 118.41699351 C347.03822867 115.036502 347.0426645 111.65635204 347.05724716 108.27586937 C347.17642292 79.20577422 344.37962314 51.92667207 323.37150574 29.8681488 C312.41171723 19.69349134 301.24325474 16.92769621 286.62594604 16.99327087 C285.34025516 16.98717977 284.05456427 16.98108867 282.72991306 16.97481298 C279.18604233 16.95850407 275.64239537 16.96071274 272.09850037 16.96618795 C268.26673516 16.9688694 264.4350281 16.95430554 260.60328674 16.9420929 C253.10584447 16.92108362 245.60847959 16.91649545 238.11101135 16.91828078 C232.01390702 16.91959068 225.91682675 16.91577268 219.81972694 16.90835571 C218.06051105 16.90625642 216.30129516 16.90415882 214.54207927 16.90206289 C213.22847968 16.9004976 213.22847968 16.9004976 211.88834272 16.89890069 C195.34208916 16.88001649 178.79587998 16.88104293 162.24962012 16.88787001 C147.13052986 16.89344419 132.01160912 16.87262217 116.89255848 16.83950955 C101.34884397 16.80573246 85.80521057 16.79060921 70.26145869 16.79522657 C61.54263794 16.79746719 52.82397385 16.79228784 44.10518456 16.76733398 C36.68222304 16.74626887 29.2595041 16.74278033 21.83653244 16.76163357 C18.05351719 16.77075947 14.27095359 16.77203215 10.48797417 16.75127792 C6.37639039 16.72897149 2.26586026 16.74586297 -1.84573364 16.76622009 C-3.61717451 16.74744332 -3.61717451 16.74744332 -5.42440206 16.72828722 C-22.92294709 16.91322795 -35.98925782 25.72499953 -46.30036926 39.38768005 Z M-96.30036926 381.38768005 C-94.40801139 400.31125882 -85.88175446 415.34939667 -71.51521301 427.80174255 C-56.2531075 439.82643174 -40.40633932 443.86770625 -21.23347473 443.76863098 C-19.75483799 443.7720956 -18.27620384 443.77686553 -16.797575 443.78281271 C-12.77020945 443.79524203 -8.74305941 443.7891895 -4.71569347 443.77985406 C-0.35842679 443.77303053 3.99880436 443.78356108 8.35606384 443.79179382 C16.87780592 443.80509827 25.3994685 443.80226812 33.92121363 443.7935559 C40.85014654 443.78676678 47.77905726 443.78586794 54.70799255 443.78912735 C55.69605711 443.78958705 56.68412167 443.79004675 57.70212758 443.79052038 C59.70967913 443.7914796 61.71723068 443.79245224 63.72478223 443.79343815 C82.52723421 443.80198241 101.32964223 443.79217305 120.13208699 443.77603705 C136.24772254 443.76263475 152.36329324 443.76496312 168.47892761 443.77879333 C187.21642816 443.79486619 205.95389023 443.80115853 224.69139671 443.79195654 C226.69135411 443.79100095 228.69131151 443.79005783 230.69126892 443.78912735 C231.6751563 443.78866452 232.65904368 443.7882017 233.67274582 443.78772485 C240.58928933 443.78514007 247.50580832 443.78949488 254.42234802 443.79656601 C262.85711964 443.80500017 271.29180756 443.80266068 279.72656965 443.78672378 C284.02593305 443.7788668 288.32515714 443.7757053 292.62451935 443.78567123 C296.56741238 443.7946723 300.51003821 443.78959718 304.45290732 443.77373858 C305.87198429 443.77041351 307.29108427 443.77203298 308.71014619 443.77936594 C320.75788113 443.83680056 332.12992897 442.39657853 342.88713074 436.70018005 C343.56074646 436.35132751 344.23436218 436.00247498 344.9283905 435.64305115 C361.87095921 426.59807919 374.27244398 411.62677754 380.19963074 393.38768005 C381.50653905 388.97123129 381.69963074 386.18315593 381.69963074 381.38768005 C320.64963074 381.38768005 259.59963074 381.38768005 196.69963074 381.38768005 C196.36963074 389.63768005 196.03963074 397.88768005 195.69963074 406.38768005 C195.36963074 407.70768005 195.03963074 409.02768005 194.69963074 410.38768005 C191.98826715 411.29146792 190.42243067 411.51487729 187.63859558 411.52139282 C186.40203217 411.5277903 186.40203217 411.5277903 185.14048767 411.53431702 C184.23961426 411.53386383 183.33874084 411.53341064 182.41056824 411.53294373 C181.45909912 411.53630234 180.50763 411.53966095 179.52732849 411.54312134 C176.37641603 411.55263477 173.22555667 411.55457452 170.07463074 411.5556488 C167.88892088 411.55886063 165.70321123 411.56222464 163.51750183 411.56573486 C158.93432618 411.57172677 154.3511694 411.57357465 149.76799011 411.57298279 C143.88641986 411.57288105 138.00497002 411.58654486 132.12342834 411.603755 C127.6093744 411.61485512 123.09534977 411.61690262 118.58128357 411.61637306 C116.41229334 411.61755574 114.24330241 411.62199352 112.07432556 411.62970543 C109.04569471 411.63946711 106.01732805 411.63664263 102.98869324 411.63059998 C102.08781982 411.63621948 101.18694641 411.64183899 100.2587738 411.64762878 C99.43439819 411.6434343 98.61002258 411.63923981 97.76066589 411.63491821 C96.6866301 411.63573536 96.6866301 411.63573536 95.59089661 411.63656902 C93.69963074 411.38768005 93.69963074 411.38768005 90.69963074 409.38768005 C87.74065193 400.51074365 89.07361617 390.7373159 88.69963074 381.38768005 C27.64963074 381.38768005 -33.40036926 381.38768005 -96.30036926 381.38768005 Z " fill="#000000" transform="translate(113.30036926269531,25.612319946289063)"/>
<path d="M0 0 C1.06046756 -0.00445784 2.12093511 -0.00891569 3.21353805 -0.01350862 C4.38783217 -0.01332426 5.56212629 -0.01313989 6.77200508 -0.01294994 C8.01229159 -0.01662663 9.25257809 -0.02030332 10.53044903 -0.02409142 C13.98429963 -0.0332309 17.43810267 -0.0378307 20.89196086 -0.04048073 C24.61256257 -0.04437909 28.33315046 -0.05395766 32.05374336 -0.0626936 C41.0437326 -0.08246989 50.03372299 -0.09252508 59.02372855 -0.10142139 C63.25406225 -0.10580184 67.4843947 -0.11116922 71.7147274 -0.11641026 C85.77129736 -0.13342268 99.82786652 -0.14791827 113.88444519 -0.155159 C117.53341739 -0.15706898 121.18238959 -0.1589893 124.83136177 -0.16094494 C126.19181174 -0.16167055 126.19181174 -0.16167055 127.57974555 -0.16241082 C142.2818362 -0.17071644 156.98384563 -0.19606224 171.68590079 -0.22852562 C186.7693906 -0.26156062 201.85283906 -0.27960447 216.93636525 -0.28280324 C225.40964361 -0.2849715 233.88280349 -0.2937663 242.35604668 -0.31926441 C249.57008204 -0.34092277 256.78397015 -0.34904589 263.99803434 -0.33929763 C267.68059348 -0.33473888 271.36284846 -0.33672975 275.04536629 -0.35605907 C279.03331258 -0.37681139 283.02083507 -0.36675069 287.00882149 -0.35352612 C288.17865416 -0.36449536 289.34848684 -0.37546461 290.55376899 -0.38676625 C292.15229357 -0.37389492 292.15229357 -0.37389492 293.78311157 -0.36076355 C294.70398839 -0.36174036 295.62486521 -0.36271717 296.57364738 -0.36372358 C299.78371177 0.29036735 300.98694646 1.61986777 303.01739693 4.13422108 C303.51349068 6.38812733 303.51349068 6.38812733 303.45489693 8.69672108 C303.45296333 9.84334217 303.45296333 9.84334217 303.45099068 11.01312733 C302.90979472 13.66059946 302.1698767 14.52840283 300.01739693 16.13422108 C296.93361276 17.12184918 294.11142311 17.26033325 290.88519573 17.26285553 C289.32079686 17.2676922 289.32079686 17.2676922 287.72479397 17.27262658 C286.00813303 17.27030368 286.00813303 17.27030368 284.25679207 17.26793385 C283.04000359 17.2701994 281.82321512 17.27246496 280.56955427 17.27479917 C277.19055815 17.28004088 273.81161516 17.28078294 270.43261874 17.27960479 C266.78906536 17.27940093 263.14551996 17.28491817 259.50197029 17.28966236 C252.36334747 17.29797218 245.22473291 17.30071734 238.08610565 17.30127474 C232.28485008 17.30174969 226.48359724 17.30380341 220.68234253 17.30697536 C204.24071859 17.31578244 187.79910118 17.3203946 171.35747487 17.31964489 C170.47092542 17.31960493 169.58437597 17.31956498 168.67096138 17.31952381 C167.78333174 17.31948293 166.89570209 17.31944205 165.98117458 17.31939993 C151.59030758 17.31899333 137.19946672 17.32856626 122.80860729 17.34266218 C108.03806256 17.35701606 93.26753059 17.36393292 78.4969787 17.3630684 C70.20203163 17.36273611 61.90711197 17.36549713 53.61217117 17.37624645 C46.55085301 17.38533841 39.48957471 17.38753743 32.42825324 17.38073703 C28.82462894 17.37746535 25.22108115 17.37743842 21.61746407 17.38609028 C17.7132688 17.39536753 13.80918609 17.38919624 9.90498543 17.38145924 C8.76277552 17.3866028 7.62056562 17.39174636 6.44374329 17.39704579 C5.39820296 17.392447 4.35266263 17.3878482 3.27543926 17.38311005 C2.37425289 17.38332741 1.47306651 17.38354478 0.54457146 17.38376874 C-3.42021156 16.9922634 -6.16084265 15.9559815 -8.98260307 13.13422108 C-10.10997482 9.31850132 -10.15232219 7.56255979 -8.67010307 3.82172108 C-6.1627141 -0.17152802 -4.47348246 0.00869167 0 0 Z " fill="#000000" transform="translate(108.98260307312012,159.86577892303467)"/>
<path d="M0 0 C1.59368791 -0.00967334 1.59368791 -0.00967334 3.21957153 -0.0195421 C4.39095281 -0.01644489 5.56233409 -0.01334769 6.76921177 -0.01015663 C8.0103527 -0.01468774 9.25149363 -0.01921886 10.53024489 -0.02388728 C13.98189165 -0.03438274 17.43333059 -0.03585285 20.88497865 -0.03349853 C24.60488887 -0.03309122 28.32476773 -0.04412117 32.04466343 -0.05361366 C39.334825 -0.07024288 46.62495423 -0.07572406 53.91513317 -0.07683842 C59.83894575 -0.0777879 65.76274762 -0.08189321 71.68655682 -0.08823967 C88.47118378 -0.10585667 105.25578514 -0.11507773 122.04042142 -0.11357872 C122.94572097 -0.11349881 123.85102052 -0.1134189 124.7837534 -0.11333656 C126.14335511 -0.11321392 126.14335511 -0.11321392 127.53042353 -0.1130888 C142.22598919 -0.11227558 156.92145244 -0.13142106 171.61698847 -0.1596133 C186.69599556 -0.18831363 201.77495265 -0.20215519 216.85398775 -0.20042574 C225.32389052 -0.19976089 233.79368589 -0.20529471 242.26356411 -0.22678185 C249.47392369 -0.24495613 256.6841272 -0.24937197 263.89449971 -0.235763 C267.57503468 -0.22921446 271.25526991 -0.22918346 274.93577671 -0.2464695 C278.92149241 -0.26499692 282.90676602 -0.25269501 286.89250278 -0.23720741 C288.06165334 -0.24749454 289.2308039 -0.25778167 290.43538326 -0.26838052 C292.03298279 -0.25458414 292.03298279 -0.25458414 293.66285706 -0.24050903 C294.5831918 -0.24094377 295.50352654 -0.24137851 296.45175022 -0.24182642 C299.6547044 0.41263202 300.85812535 1.75841818 302.8943491 4.25726891 C303.4255991 6.25726891 303.4255991 6.25726891 303.3943491 8.25726891 C303.40981785 9.24726891 303.40981785 9.24726891 303.4255991 10.25726891 C302.65280294 13.16661916 301.18896724 14.34995447 298.8943491 16.25726891 C296.45290089 16.75866556 296.45290089 16.75866556 293.66565037 16.76063347 C292.60120071 16.77106446 291.53675106 16.78149545 290.44004536 16.79224253 C289.27157692 16.78331964 288.10310848 16.77439675 286.89923191 16.76520348 C285.65723656 16.77144344 284.4152412 16.7776834 283.13560963 16.78411245 C279.68598404 16.7973258 276.23722709 16.79254541 272.78765392 16.78016758 C269.06842752 16.77113256 265.34927808 16.78507908 261.63006687 16.79608727 C254.34333681 16.81389372 247.05677136 16.8100231 239.77003479 16.7984367 C233.84909747 16.78941098 227.92820636 16.78817464 222.00726414 16.79253197 C220.74424469 16.79345137 220.74424469 16.79345137 219.4557097 16.79438934 C217.74529074 16.79566821 216.0348718 16.79696506 214.32445288 16.7982797 C198.27778277 16.80969172 182.23120399 16.79656206 166.18454885 16.77507824 C152.40938443 16.75720668 138.63435483 16.76031061 124.85919285 16.77875328 C108.87078601 16.80014903 92.88245926 16.80859303 76.89404011 16.79630423 C75.1898381 16.79503 73.48563609 16.79377252 71.78143406 16.79253197 C70.94288734 16.79191487 70.10434062 16.79129776 69.24038339 16.79066196 C63.32509234 16.78720517 57.40985201 16.79304449 51.49456882 16.80245018 C44.2878762 16.81365717 37.08135789 16.81065763 29.87468529 16.7893272 C26.19618031 16.77879912 22.51796619 16.77472453 18.83946323 16.78792381 C14.85596566 16.80200154 10.87294661 16.78521705 6.88946629 16.76520348 C5.13676363 16.77858781 5.13676363 16.77858781 3.34865284 16.79224253 C2.28420319 16.78181154 1.21975353 16.77138055 0.12304783 16.76063347 C-0.79674484 16.75998406 -1.71653751 16.75933465 -2.66420269 16.75866556 C-5.87390512 16.09949366 -7.06364311 14.76370795 -9.1056509 12.25726891 C-10.19875473 9.21219396 -10.22746829 7.69378121 -9.3556509 4.56976891 C-7.06622539 0.33433171 -4.45531578 0.00682141 0 0 Z " fill="#000000" transform="translate(109.10565090179443,116.74273109436035)"/>
<path d="M0 0 C2.14670124 3.1192051 2.25056015 5.80934786 2.25537109 9.53125 C2.26233002 10.63919922 2.26928894 11.74714844 2.27645874 12.88867188 C2.27546173 14.08041016 2.27446472 15.27214844 2.2734375 16.5 C2.29372082 19.02083782 2.31457149 21.54167113 2.3359375 24.0625 C2.35857657 28.03910129 2.37502279 32.01552464 2.38085938 35.9921875 C2.39035508 39.82845242 2.4240932 43.66391413 2.4609375 47.5 C2.45589203 48.69173828 2.45084656 49.88347656 2.44564819 51.11132812 C2.46554306 52.77325195 2.46554306 52.77325195 2.48583984 54.46875 C2.48868988 55.44263672 2.49153992 56.41652344 2.49447632 57.41992188 C3.14254304 60.72750733 4.43586642 61.8845331 7 64 C11.54330107 66.72598064 16.00971957 66.12100502 21 65 C24.74670186 63.25631835 24.74670186 63.25631835 27 60 C27.09921641 58.20345087 27.13556064 56.40327964 27.1418457 54.60400391 C27.14888016 53.47588287 27.15591461 52.34776184 27.16316223 51.18545532 C27.16732651 49.96152069 27.17149078 48.73758606 27.17578125 47.4765625 C27.19897594 44.90363762 27.22309313 42.33072092 27.24804688 39.7578125 C27.28446915 35.68684874 27.31421265 31.61603706 27.32592773 27.54492188 C27.33794443 23.62601739 27.38154497 19.70773939 27.42578125 15.7890625 C27.42387283 14.56917633 27.42196442 13.34929016 27.41999817 12.09243774 C27.43648911 10.95801239 27.45298004 9.82358704 27.4699707 8.65478516 C27.47583694 7.65710114 27.48170319 6.65941711 27.48774719 5.63150024 C28.13931753 2.28431017 29.37428698 1.107868 32 -1 C34.99042163 -2.07348469 36.54765605 -2.11847103 39.625 -1.3125 C42.34542055 0.1908903 43.38618112 1.35846025 45 4 C45.38095093 6.5017395 45.38095093 6.5017395 45.38818359 9.34423828 C45.39764008 10.4128006 45.40709656 11.48136292 45.4168396 12.58230591 C45.41076691 13.73334808 45.40469421 14.88439026 45.3984375 16.0703125 C45.40130768 17.26171844 45.40417786 18.45312439 45.40713501 19.68063354 C45.40917709 22.20408604 45.40363727 24.72755432 45.39111328 27.25097656 C45.37514741 31.08955959 45.39091417 34.927076 45.41015625 38.765625 C45.40817218 41.22135647 45.40432514 43.67708728 45.3984375 46.1328125 C45.40754654 47.84115768 45.40754654 47.84115768 45.4168396 49.58401489 C45.33989038 58.4330115 44.24933358 67.20245802 38.65625 74.3984375 C31.11687664 81.68886929 23.2798777 83.28835068 13.21728516 83.3190918 C5.56932266 83.1847802 0.09244005 80.98382946 -6.3125 76.875 C-14.7068646 67.89498206 -15.15603265 57.91454442 -15.16796875 46.21484375 C-15.17129715 45.08099747 -15.17462555 43.94715118 -15.17805481 42.77894592 C-15.18310632 40.3877096 -15.18546368 37.99646626 -15.18530273 35.60522461 C-15.18749432 31.94698542 -15.20568306 28.28904546 -15.22460938 24.63085938 C-15.22754263 22.30468853 -15.22952788 19.97851625 -15.23046875 17.65234375 C-15.23765427 16.55953598 -15.24483978 15.46672821 -15.25224304 14.34080505 C-15.24916641 13.31946976 -15.24608978 12.29813446 -15.24291992 11.24584961 C-15.24434494 10.35127548 -15.24576996 9.45670135 -15.24723816 8.53501892 C-14.8601542 4.56611235 -13.82441033 1.82441033 -11 -1 C-7.08298597 -2.74089512 -3.84608406 -1.49569935 0 0 Z " fill="#000000" transform="translate(125,227)"/>
<path d="M0 0 C6.56629722 1.96866639 10.66358583 10.5146088 14.28515625 15.81640625 C15.52688864 17.62360447 16.770299 19.42965123 18.015625 21.234375 C18.55985107 22.02996826 19.10407715 22.82556152 19.66479492 23.64526367 C21.08530372 25.7226584 21.08530372 25.7226584 23.09765625 27.62890625 C23.49033691 27.08999756 23.88301758 26.55108887 24.28759766 25.99584961 C26.09630622 23.51718008 27.90944624 21.04178451 29.72265625 18.56640625 C30.34011719 17.71884766 30.95757812 16.87128906 31.59375 15.99804688 C34.42995805 12.13184748 37.28969408 8.283067 40.30078125 4.55078125 C40.74325195 3.99874023 41.18572266 3.44669922 41.64160156 2.87792969 C43.52340731 1.26369123 44.7643416 1.07779143 47.22265625 0.94140625 C51.09765625 1.62890625 51.09765625 1.62890625 53.53515625 3.31640625 C55.32615439 5.96708349 56.02131884 7.42273487 56.09765625 10.62890625 C53.90772393 15.79142711 50.74556903 19.97490756 47.34765625 24.37890625 C46.27350296 25.78942371 45.20058382 27.20088188 44.12890625 28.61328125 C43.61070312 29.29583984 43.0925 29.97839844 42.55859375 30.68164062 C39.62854146 34.58707129 36.85030541 38.59685678 34.09765625 42.62890625 C37.32917181 47.96384467 40.68707111 53.12662227 44.421875 58.12109375 C45.29743042 59.29792725 45.29743042 59.29792725 46.19067383 60.49853516 C47.36268915 62.06411255 48.54587124 63.62140288 49.7409668 65.16943359 C53.06104607 69.61604675 55.03309708 72.87596697 55.09765625 78.62890625 C53.75203226 81.57646357 53.01211081 83.17167897 50.09765625 84.62890625 C46.78515625 85.00390625 46.78515625 85.00390625 43.09765625 84.62890625 C38.37732318 80.64761522 35.06130461 75.59390662 31.53515625 70.56640625 C26.79876218 63.69303203 26.79876218 63.69303203 21.09765625 57.62890625 C20.865625 58.1496875 20.63359375 58.67046875 20.39453125 59.20703125 C18.65187477 62.46138973 16.5091754 65.39564266 14.34765625 68.37890625 C13.90099609 68.99854248 13.45433594 69.61817871 12.99414062 70.2565918 C11.69877565 72.04990369 10.3986998 73.83971199 9.09765625 75.62890625 C8.14632813 76.94568359 8.14632813 76.94568359 7.17578125 78.2890625 C3.35481957 83.50032459 3.35481957 83.50032459 1.09765625 84.62890625 C-3.27596389 85.12403306 -5.22189619 85.12114491 -8.83984375 82.50390625 C-11.32560857 79.03890074 -11.41492541 77.81076059 -10.90234375 73.62890625 C-9.56830628 71.29729209 -8.27994473 69.35617331 -6.65234375 67.25390625 C-6.2150293 66.66101807 -5.77771484 66.06812988 -5.32714844 65.45727539 C-2.78466764 62.02884604 -0.15236923 58.67661049 2.50390625 55.3359375 C3.06045898 54.62421387 3.61701172 53.91249023 4.19042969 53.17919922 C5.28114356 51.78865151 6.38829804 50.41081862 7.51269531 49.04736328 C10.43899288 45.53314554 10.43899288 45.53314554 10.81640625 41.2109375 C8.25259683 37.35939653 5.60607637 33.59382551 2.84765625 29.87890625 C-0.58620207 25.22148921 -4.00403937 20.55588547 -7.28515625 15.7890625 C-7.77387207 15.08144775 -8.26258789 14.37383301 -8.76611328 13.64477539 C-10.55249828 10.4754198 -10.59239121 8.14814832 -9.90234375 4.62890625 C-7.37698521 0.52519863 -4.69857463 0.15879874 0 0 Z " fill="#000000" transform="translate(345.90234375,230.37109375)"/>
<path d="M0 0 C0.66 -0.0103125 1.32 -0.020625 2 -0.03125 C4.91928803 0.74418588 6.09371713 2.18853326 8 4.5 C8.50552368 7.08007812 8.50552368 7.08007812 8.51416016 10.03125 C8.53405502 11.69317383 8.53405502 11.69317383 8.55435181 13.38867188 C8.54930634 14.58041016 8.54426086 15.77214844 8.5390625 17 C8.55085541 18.22783203 8.56264832 19.45566406 8.57479858 20.72070312 C8.61013788 24.64726394 8.61923673 28.57329297 8.625 32.5 C8.6413286 36.42654738 8.66334507 40.35285569 8.69662476 44.27929688 C8.71628939 46.72324465 8.72558593 49.16730209 8.72354126 51.61132812 C8.73050018 52.71927734 8.73745911 53.82722656 8.74462891 54.96875 C8.74588776 55.94263672 8.74714661 56.91652344 8.7484436 57.91992188 C9.01423899 60.64604168 9.47875016 62.23254402 11 64.5 C15.80956538 67.1405457 19.43474503 68.10711872 25 67.5 C28.98066095 65.92275698 30.60667274 65.08999089 33 61.5 C33.31438024 59.05085546 33.31438024 59.05085546 33.28710938 56.28173828 C33.30723083 54.68460495 33.30723083 54.68460495 33.32775879 53.0552063 C33.33303589 51.90519135 33.33831299 50.75517639 33.34375 49.5703125 C33.3583728 48.38782928 33.37299561 47.20534607 33.38806152 45.98703003 C33.43464458 42.19972107 33.46879386 38.41246505 33.5 34.625 C33.54111977 29.64824254 33.59480858 24.67185589 33.65625 19.6953125 C33.6615271 18.54934601 33.6668042 17.40337952 33.67224121 16.22268677 C33.69236267 14.61609695 33.69236267 14.61609695 33.71289062 12.97705078 C33.72018188 12.03789825 33.72747314 11.09874573 33.73498535 10.13113403 C34.13904591 6.11951622 35.14114587 3.35885413 38 0.5 C40.0234375 0.1640625 40.0234375 0.1640625 42.375 0.125 C43.53128906 0.08246094 43.53128906 0.08246094 44.7109375 0.0390625 C47.8969191 0.68060828 48.96703565 1.99857874 51 4.5 C51.50120544 7.12236023 51.50120544 7.12236023 51.50170898 10.13549805 C51.51108994 11.26735031 51.52047089 12.39920258 51.53013611 13.56535339 C51.51890213 14.78515396 51.50766815 16.00495453 51.49609375 17.26171875 C51.49754898 18.5220845 51.49900421 19.78245026 51.50050354 21.08100891 C51.49884259 23.75044045 51.48934671 26.41845079 51.46655273 29.08764648 C51.43831151 32.48580448 51.44086591 35.88306016 51.45364285 39.28128338 C51.46233588 42.54565163 51.44711878 45.80987837 51.43359375 49.07421875 C51.43652939 50.28389816 51.43946503 51.49357758 51.44248962 52.73991394 C51.33200167 62.73642002 49.93224713 70.35578437 42.97265625 77.7734375 C34.88498813 84.852149 25.29934403 85.12285319 15.06298828 84.67480469 C7.86308817 84.06473031 2.59556395 80.75690392 -2.4296875 75.76953125 C-8.01920218 67.69115307 -8.59369492 60.30337054 -8.53125 50.63671875 C-8.5350769 49.32717728 -8.53890381 48.0176358 -8.54284668 46.66841125 C-8.54870596 43.91408135 -8.54028924 41.16027444 -8.52148438 38.40600586 C-8.49858273 34.88068643 -8.51190896 31.35657783 -8.53577423 27.83130169 C-8.55370401 24.45384352 -8.54115631 21.07671129 -8.53125 17.69921875 C-8.53934692 16.43567062 -8.54744385 15.1721225 -8.55578613 13.87028503 C-8.54317749 12.69839127 -8.53056885 11.5264975 -8.51757812 10.3190918 C-8.51439575 9.28922653 -8.51121338 8.25936127 -8.50793457 7.19828796 C-7.63311929 2.5510289 -4.7470641 -0.07417288 0 0 Z " fill="#000000" transform="translate(271,230.5)"/>
<path d="M0 0 C3 1.875 3 1.875 5 5 C5.21340156 11.88417809 3.24172127 18.73896425 1.45556641 25.32739258 C1.19689285 26.30593201 0.9382193 27.28447144 0.67170715 28.29266357 C-0.17721759 31.49541724 -1.03740124 34.69501428 -1.8984375 37.89453125 C-2.49562562 40.13258364 -3.09234886 42.37076013 -3.68862915 44.60905457 C-4.93611455 49.28460712 -6.18919669 53.95861338 -7.44628906 58.6315918 C-9.05639169 64.61861601 -10.65242958 70.6092842 -12.24432945 76.60117054 C-13.47234013 81.21717901 -14.70774214 85.83118409 -15.94539261 90.44461632 C-16.53693859 92.6531968 -17.12618699 94.86239401 -17.71308517 97.07221413 C-18.53348244 100.15674168 -19.36379281 103.23843159 -20.19677734 106.31958008 C-20.43689041 107.23031784 -20.67700348 108.1410556 -20.9243927 109.07939148 C-23.77237998 119.51491999 -23.77237998 119.51491999 -29 123 C-33.03621805 123.61420709 -34.52111041 123.34355123 -37.875 120.9375 C-40.59575446 117.17645707 -40.33287374 115.60316884 -40 111 C-39.34930065 107.64157392 -38.47052753 104.35967975 -37.5690918 101.06079102 C-37.31056427 100.08750854 -37.05203674 99.11422607 -36.78567505 98.1114502 C-35.93201062 94.90659818 -35.06586343 91.70527036 -34.19921875 88.50390625 C-33.60041137 86.26880438 -33.0022614 84.03352628 -32.40473938 81.79808044 C-31.1515904 77.11709603 -29.8926347 72.43772658 -28.62915039 67.75952148 C-27.01318129 61.77555742 -25.40836218 55.78867664 -23.80748272 49.80066013 C-22.57282229 45.18515704 -21.33390588 40.57080535 -20.09354591 35.95683098 C-19.50059211 33.75036147 -18.90855975 31.54364413 -18.31748009 29.33667183 C-17.48873638 26.24620659 -16.65468253 23.15722351 -15.8190918 20.06860352 C-15.57740768 19.16393845 -15.33572357 18.25927338 -15.0867157 17.32719421 C-10.04583802 -1.21242873 -10.04583802 -1.21242873 0 0 Z " fill="#000000" transform="translate(248,209)"/>
<path d="M0 0 C0.66 -0.0103125 1.32 -0.020625 2 -0.03125 C4.98190125 0.76081752 6.09603253 2.08502967 8 4.5 C8.5146637 7.79466248 8.5146637 7.79466248 8.53344727 11.75952148 C8.54206284 12.48359192 8.55067841 13.20766235 8.55955505 13.95367432 C8.58222657 16.34317954 8.57547435 18.73151298 8.56640625 21.12109375 C8.57164167 22.78492074 8.57791785 24.44874475 8.58518982 26.11256409 C8.59559639 29.59870372 8.5910296 33.08443525 8.57641602 36.57055664 C8.55923463 41.03425989 8.58271293 45.49667515 8.61790562 49.96023464 C8.63988635 53.3961487 8.63843649 56.83175494 8.6301403 60.26771736 C8.62932101 61.91313145 8.6361804 63.5585682 8.65091133 65.20391655 C8.66836955 67.50710608 8.6538079 69.80798658 8.63110352 72.11108398 C8.62966087 74.07488258 8.62966087 74.07488258 8.62818909 76.07835388 C7.84134305 80.36417917 6.38979819 81.84588898 3 84.5 C-0.75450896 85.20397043 -2.36717122 84.87632132 -5.64805603 82.92529297 C-8.2294208 80.26342436 -8.59422547 78.87625988 -8.66653442 75.22369385 C-8.65484222 74.533703 -8.64315002 73.84371216 -8.63110352 73.1328125 C-8.63825882 72.3973822 -8.64541412 71.6619519 -8.65278625 70.90423584 C-8.66967281 68.47718881 -8.65027338 66.05198922 -8.62890625 63.625 C-8.62973496 61.93635912 -8.63219444 60.24771832 -8.63621521 58.55908203 C-8.63907315 55.02156263 -8.62437302 51.4846764 -8.59692383 47.94726562 C-8.56284049 43.41407956 -8.56885896 38.88202566 -8.5875864 34.3487854 C-8.59815789 30.86229018 -8.58921734 27.37605816 -8.57420158 23.8895874 C-8.56902036 22.21824933 -8.56950087 20.54688375 -8.57574654 18.87554932 C-8.58120078 16.5388281 -8.56081981 14.20372436 -8.53344727 11.8671875 C-8.53997314 11.17719666 -8.54649902 10.48720581 -8.55322266 9.77630615 C-8.48629536 6.4143155 -8.19641367 4.74982142 -6.09165955 2.07275391 C-3.82034591 0.36491508 -2.80413942 -0.04381468 0 0 Z " fill="#000000" transform="translate(192,225.5)"/>
</svg>
