<svg width="100" height="100" viewBox="0 0 100 100" fill="none" xmlns="http://www.w3.org/2000/svg">
<path d="M49.2308 44.9311C49.8853 44.8937 50.5416 45.0009 51.1566 45.2419L51.1601 45.2384L84.0872 58.0433L84.0908 58.0469L84.7267 58.3542C85.1332 58.5907 85.5007 58.8881 85.8164 59.2367L86.2487 59.794L86.5882 60.4121C86.88 61.0533 87.0239 61.7561 86.999 62.4665C86.9658 63.413 86.6372 64.325 86.0629 65.0782C85.4884 65.8314 84.6948 66.3893 83.7906 66.6717H83.7835L71.1858 70.5803H71.1822C71.0402 70.6243 70.9121 70.7039 70.807 70.809C70.702 70.9141 70.6223 71.0422 70.5784 71.1841V71.1877L66.6733 83.7819V83.789C66.3909 84.6932 65.833 85.4868 65.0798 86.0613C64.3266 86.6356 63.4146 86.9642 62.4681 86.9974C61.5213 87.0306 60.5873 86.7675 59.7956 86.2471C59.0039 85.7266 58.3934 84.9717 58.0485 84.0892L58.0449 84.0856L45.24 51.1585L45.2436 51.155C44.9211 50.3324 44.8402 49.434 45.0185 48.5682L45.2007 47.9287C45.4278 47.3045 45.7883 46.7337 46.2618 46.2602L46.7656 45.8243C47.2983 45.4281 47.9144 45.1519 48.5698 45.0169L49.2308 44.9311ZM62.2073 79.6481L65.3371 69.5621L65.6122 68.8368C65.9299 68.128 66.3746 67.4813 66.927 66.9289C67.6629 66.193 68.566 65.6467 69.5601 65.339L79.6497 62.2057L51.1101 51.1085L62.2073 79.6481Z" fill="black"/>
<path d="M19.3164 65.9631C19.3164 53.5916 24.2309 41.7268 32.9788 32.9788C41.7268 24.2309 53.5916 19.3164 65.9631 19.3164C67.4785 19.3164 68.707 20.5449 68.707 22.0603C68.707 23.5758 67.4785 24.8042 65.9631 24.8042C55.0471 24.8042 44.5777 29.1401 36.8589 36.8589C29.1401 44.5777 24.8042 55.0471 24.8042 65.9631C24.8042 67.4785 23.5758 68.707 22.0603 68.707C20.5449 68.707 19.3164 67.4785 19.3164 65.9631Z" fill="black"/>
<path d="M77.853 22.061C77.853 19.5353 75.8055 17.4878 73.2798 17.4878C70.7541 17.4878 68.7066 19.5353 68.7066 22.061C68.7066 24.5868 70.7541 26.6342 73.2798 26.6342C75.8055 26.6342 77.853 24.5868 77.853 22.061ZM83.3408 22.061C83.3408 27.6176 78.8364 32.1221 73.2798 32.1221C67.7232 32.1221 63.2188 27.6176 63.2188 22.061C63.2188 16.5045 67.7232 12 73.2798 12C78.8364 12 83.3408 16.5045 83.3408 22.061Z" fill="black"/>
<path d="M26.6342 73.2808C26.6342 70.7551 24.5868 68.7076 22.061 68.7076C19.5353 68.7076 17.4878 70.7551 17.4878 73.2808C17.4878 75.8065 19.5353 77.854 22.061 77.854C24.5868 77.854 26.6342 75.8065 26.6342 73.2808ZM32.1221 73.2808C32.1221 78.8373 27.6176 83.3418 22.061 83.3418C16.5045 83.3418 12 78.8373 12 73.2808C12 67.7242 16.5045 63.2197 22.061 63.2197C27.6176 63.2197 32.1221 67.7242 32.1221 73.2808Z" fill="black"/>
</svg>
