<svg width="48" height="48" viewBox="0 0 48 48" fill="none" xmlns="http://www.w3.org/2000/svg">
<path d="M8.86281 1.01825C8.92438 1.01803 8.98594 1.01781 9.04937 1.01758C9.25656 1.01696 9.46374 1.017 9.67093 1.01704C9.82062 1.01673 9.97032 1.01638 10.12 1.01599C10.5321 1.01505 10.9442 1.01471 11.3562 1.01446C11.8004 1.01409 12.2446 1.01319 12.6887 1.01238C13.7617 1.01052 14.8347 1.00958 15.9077 1.00874C16.4129 1.00833 16.9182 1.00783 17.4234 1.00734C19.1028 1.00574 20.7822 1.00439 22.4616 1.00371C22.8974 1.00353 23.3332 1.00335 23.7691 1.00316C23.8774 1.00312 23.9857 1.00307 24.0973 1.00303C25.8523 1.00225 27.6073 0.999873 29.3623 0.996828C31.164 0.993729 32.9656 0.99204 34.7672 0.99174C35.7788 0.991537 36.7904 0.990716 37.802 0.988322C38.6635 0.986287 39.525 0.985532 40.3865 0.986444C40.826 0.98687 41.2655 0.986691 41.705 0.984872C42.1076 0.98322 42.5102 0.983312 42.9128 0.984769C43.0582 0.984992 43.2035 0.984585 43.3489 0.983472C44.3106 0.976568 45.054 1.07889 45.8743 1.60505C46.7223 2.51232 46.7027 3.53615 46.7012 4.70833C46.7014 4.83507 46.7016 4.9618 46.7019 5.08854C46.7025 5.43585 46.7024 5.78315 46.7023 6.13046C46.7023 6.5054 46.7028 6.88035 46.7033 7.2553C46.7041 7.98952 46.7043 8.72374 46.7044 9.45796C46.7044 10.0549 46.7046 10.6518 46.7049 11.2487C46.7057 12.9417 46.7062 14.6347 46.7061 16.3277C46.7061 16.4645 46.7061 16.4645 46.7061 16.6042C46.7061 16.6955 46.7061 16.7868 46.7061 16.881C46.706 18.3613 46.7069 19.8417 46.7082 21.322C46.7096 22.8427 46.7102 24.3634 46.7102 25.8841C46.7101 26.7375 46.7104 27.591 46.7114 28.4445C46.7122 29.1711 46.7125 29.8978 46.7118 30.6245C46.7115 30.995 46.7115 31.3656 46.7123 31.7361C46.7131 32.0758 46.7129 32.4154 46.7121 32.755C46.7119 32.9352 46.7126 33.1154 46.7133 33.2956C46.7093 34.304 46.6558 35.2327 45.9387 35.9996C45.288 36.4881 44.7827 36.6684 43.9743 36.665C43.9125 36.6649 43.8506 36.6647 43.7868 36.6646C43.59 36.6641 43.3933 36.6629 43.1965 36.6617C43.0627 36.6612 42.9289 36.6608 42.7952 36.6604C42.468 36.6594 42.1409 36.6578 41.8137 36.6558C41.8147 36.7645 41.8157 36.8732 41.8167 36.9852C41.8201 37.3923 41.8222 37.7994 41.824 38.2065C41.8249 38.382 41.8262 38.5575 41.8279 38.7329C41.8302 38.9866 41.8312 39.2403 41.832 39.494C41.8335 39.6097 41.8335 39.6097 41.8349 39.7279C41.8351 40.6313 41.7309 41.4011 41.0897 42.0758C40.207 42.9181 39.2241 42.8825 38.078 42.8708C37.9258 42.8703 37.7735 42.8699 37.6213 42.8696C37.2232 42.8685 36.8251 42.8658 36.427 42.8626C36.0198 42.8597 35.6125 42.8585 35.2052 42.8571C34.4081 42.8541 33.6109 42.8493 32.8137 42.8433C32.8157 42.955 32.8176 43.0666 32.8197 43.1816C32.8264 43.596 32.8307 44.0104 32.8343 44.4249C32.8362 44.6042 32.8387 44.7836 32.842 44.9629C32.8465 45.2207 32.8487 45.4785 32.8503 45.7364C32.8532 45.8565 32.8532 45.8565 32.8562 45.9791C32.8562 46.0541 32.8562 46.1292 32.8563 46.2065C32.8571 46.2723 32.8579 46.3381 32.8588 46.4059C32.7925 46.6814 32.6547 46.7894 32.4387 46.9683C32.2062 47.0155 32.2062 47.0155 31.9406 47.0159C31.7892 47.0175 31.7892 47.0175 31.6347 47.0192C31.4693 47.018 31.4693 47.018 31.3005 47.0169C31.1258 47.0178 31.1258 47.0178 30.9475 47.0188C30.6283 47.0202 30.3091 47.0199 29.9899 47.0187C29.6557 47.0177 29.3216 47.0186 28.9874 47.0192C28.4263 47.0199 27.8652 47.019 27.3041 47.0172C26.6554 47.0152 26.0068 47.0158 25.3582 47.0179C24.8012 47.0196 24.2442 47.0198 23.6871 47.0189C23.3545 47.0183 23.0219 47.0182 22.6892 47.0194C22.3184 47.0207 21.9477 47.0189 21.5769 47.0169C21.4666 47.0176 21.3563 47.0184 21.2427 47.0192C21.1418 47.0181 21.0408 47.017 20.9368 47.0159C20.8492 47.0158 20.7615 47.0157 20.6712 47.0155C20.3475 46.9498 20.2475 46.8692 20.0637 46.5933C20.0132 46.3069 20.0201 46.0264 20.0271 45.7364C20.0276 45.6537 20.0281 45.571 20.0287 45.4858C20.0308 45.2221 20.0355 44.9585 20.0403 44.6949C20.0421 44.5159 20.0439 44.337 20.0454 44.158C20.0495 43.7197 20.056 43.2816 20.0637 42.8433C19.9791 42.8437 19.8946 42.844 19.8074 42.8444C17.7471 42.8527 15.6868 42.8589 13.6265 42.8628C12.6301 42.8647 11.6337 42.8673 10.6374 42.8716C9.76866 42.8754 8.89996 42.8778 8.03125 42.8786C7.57151 42.8791 7.11181 42.8802 6.65208 42.883C6.21878 42.8855 5.7855 42.8863 5.35219 42.8857C5.19374 42.8858 5.03528 42.8866 4.87683 42.888C3.85504 42.8969 2.87 42.8847 2.06956 42.1636C1.27201 41.2685 1.29975 40.3092 1.30117 39.1658C1.30099 39.0391 1.30078 38.9124 1.30052 38.7856C1.29995 38.4383 1.29996 38.091 1.30007 37.7437C1.30009 37.3688 1.29957 36.9938 1.29913 36.6189C1.29835 35.8846 1.29809 35.1504 1.29804 34.4162C1.298 33.8193 1.2978 33.2224 1.29751 32.6255C1.29668 30.9325 1.29625 29.2395 1.29632 27.5465C1.29632 27.4552 1.29633 27.364 1.29633 27.27C1.29633 27.1787 1.29634 27.0873 1.29634 26.9932C1.29638 25.5128 1.29548 24.0325 1.29416 22.5521C1.29281 21.0315 1.29217 19.5108 1.29225 17.9901C1.29228 17.1366 1.29202 16.2832 1.29101 15.4297C1.29016 14.703 1.28995 13.9764 1.29059 13.2497C1.2909 12.8792 1.2909 12.5086 1.29009 12.1381C1.28935 11.7984 1.28949 11.4588 1.2903 11.1192C1.29051 10.939 1.28981 10.7588 1.28906 10.5786C1.29317 9.54356 1.36804 8.68009 2.0637 7.87459C2.62761 7.35503 3.20864 7.19371 3.97313 7.20002C4.03684 7.20029 4.10055 7.20056 4.16619 7.20083C4.36772 7.20187 4.56921 7.20422 4.77073 7.20662C4.90818 7.20756 5.04564 7.20841 5.18309 7.20918C5.51831 7.21124 5.8535 7.21447 6.1887 7.21834C6.18723 7.0503 6.18723 7.0503 6.18573 6.87888C6.18231 6.46008 6.18017 6.04127 6.1784 5.62246C6.17746 5.44179 6.17619 5.26113 6.17456 5.08046C6.17226 4.81957 6.17122 4.5587 6.17039 4.2978C6.16942 4.21808 6.16846 4.13836 6.16746 4.05622C6.16729 3.15486 6.31292 2.36778 6.9387 1.68709C7.57086 1.21147 8.07672 1.01945 8.86281 1.01825ZM7.70628 2.89998C7.49022 3.27524 7.4896 3.67263 7.49056 4.09723C7.49057 4.20231 7.49057 4.30738 7.49058 4.41564C7.49107 4.52806 7.49155 4.64047 7.49205 4.7563C7.49218 4.87216 7.49231 4.98803 7.49245 5.10741C7.49288 5.41426 7.49373 5.72112 7.49477 6.02797C7.49573 6.34157 7.49615 6.65516 7.49663 6.96876C7.49758 7.58321 7.49941 8.19764 7.5012 8.81208C8.83152 8.81208 10.1618 8.81208 11.5325 8.81208C11.5484 8.03105 11.5484 8.03105 11.5604 7.24994C11.5632 7.15214 11.5661 7.05433 11.5691 6.95356C11.571 6.8539 11.573 6.75424 11.575 6.65155C11.6396 6.3021 11.7454 6.15096 12.0012 5.90584C12.4055 5.73965 12.75 5.69435 13.1851 5.69259C13.3069 5.69169 13.4286 5.6908 13.554 5.68988C13.6857 5.6899 13.8174 5.68999 13.9491 5.69014C14.0854 5.68977 14.2218 5.68937 14.3581 5.68892C14.6433 5.68822 14.9285 5.68825 15.2137 5.68874C15.5779 5.68928 15.942 5.6877 16.3062 5.68552C16.5876 5.68413 16.869 5.68406 17.1505 5.68435C17.2847 5.6843 17.4189 5.68382 17.5531 5.68287C19.0611 5.67353 19.0611 5.67353 19.7113 6.25941C19.8148 6.36226 19.9172 6.46613 20.0187 6.57087C20.0735 6.62599 20.1283 6.68111 20.1848 6.7379C20.3582 6.91281 20.5303 7.089 20.7024 7.26521C20.8197 7.38358 20.937 7.50186 21.0545 7.62007C21.1663 7.73316 21.2781 7.84631 21.3898 7.95955C21.4421 8.01258 21.4944 8.06561 21.5484 8.12026C21.7652 8.34248 21.9534 8.55293 22.1262 8.81208C22.3035 8.85413 22.3035 8.85413 22.5109 8.84669C22.592 8.84725 22.673 8.84781 22.7565 8.84839C22.8908 8.84716 22.8908 8.84716 23.0279 8.84591C23.1226 8.84615 23.2173 8.84639 23.3149 8.84663C23.6343 8.8471 23.9537 8.84555 24.2732 8.84401C24.5013 8.84393 24.7295 8.84398 24.9577 8.84414C25.4499 8.8442 25.9422 8.8434 26.4345 8.84182C27.1462 8.83954 27.858 8.8388 28.5697 8.83845C29.7244 8.83783 30.8791 8.83596 32.0338 8.8333C33.1556 8.83072 34.2775 8.82873 35.3993 8.82753C35.4685 8.82746 35.5376 8.82739 35.6088 8.82731C35.9555 8.82694 36.3023 8.82659 36.649 8.82624C39.5268 8.82332 42.4046 8.81835 45.2825 8.81208C45.2933 8.07618 45.3017 7.3403 45.3067 6.60433C45.3092 6.26255 45.3125 5.92083 45.3178 5.57908C45.3229 5.24901 45.3257 4.91898 45.3269 4.58887C45.3282 4.40222 45.3319 4.21559 45.3356 4.02898C45.3543 3.34209 45.3543 3.34209 45.0687 2.74219C44.6452 2.39118 44.3845 2.31989 43.8319 2.31922C43.7403 2.31872 43.7403 2.31872 43.6469 2.31822C43.4415 2.31735 43.2361 2.31781 43.0307 2.31826C42.8823 2.31791 42.7339 2.31748 42.5854 2.31698C42.1769 2.31583 41.7684 2.31586 41.3599 2.31608C40.9196 2.31611 40.4792 2.31508 40.0389 2.31419C39.176 2.31263 38.3131 2.31212 37.4502 2.31201C36.7489 2.31192 36.0477 2.31154 35.3465 2.31094C33.3594 2.30929 31.3723 2.30843 29.3852 2.30857C29.278 2.30858 29.1709 2.30858 29.0605 2.30859C28.8995 2.3086 28.8995 2.3086 28.7353 2.30861C26.9958 2.30869 25.2563 2.3069 23.5168 2.30425C21.7317 2.30156 19.9466 2.30026 18.1616 2.30043C17.159 2.30049 16.1564 2.29997 15.1538 2.29796C14.3002 2.29625 13.4467 2.29584 12.5931 2.29711C12.1575 2.29773 11.7219 2.29773 11.2862 2.29611C10.8875 2.29464 10.4889 2.2949 10.0902 2.29654C9.94588 2.29683 9.80154 2.29648 9.65719 2.29544C9.46111 2.29412 9.26517 2.29511 9.0691 2.29667C8.96015 2.29663 8.85121 2.29659 8.73897 2.29655C8.29859 2.36517 8.00736 2.57814 7.70628 2.89998ZM12.845 6.93708C12.8436 6.99897 12.8422 7.06085 12.8408 7.12461C12.8338 7.40786 12.8247 7.69101 12.8157 7.97419C12.8135 8.07154 12.8114 8.16888 12.8092 8.26918C12.7897 8.82789 12.753 9.26188 12.47 9.74959C12.1916 10.0062 12.0062 10.0665 11.6307 10.0714C11.5387 10.0732 11.4468 10.0751 11.3521 10.077C11.2535 10.0776 11.155 10.0782 11.0534 10.0788C10.952 10.0805 10.8506 10.0822 10.7461 10.0839C10.4223 10.089 10.0985 10.0922 9.77464 10.0953C9.55503 10.0984 9.33543 10.1016 9.11583 10.105C8.57763 10.113 8.03943 10.1194 7.5012 10.1246C7.49693 13.1709 7.49361 16.2172 7.49163 19.2634C7.49139 19.6231 7.49115 19.9828 7.4909 20.3424C7.49085 20.414 7.4908 20.4856 7.49075 20.5594C7.48994 21.7187 7.48846 22.878 7.48674 24.0373C7.48498 25.2269 7.48394 26.4165 7.48356 27.606C7.4833 28.3401 7.48249 29.0741 7.48097 29.8081C7.47986 30.3709 7.47974 30.9338 7.47999 31.4967C7.47994 31.7276 7.47957 31.9585 7.47885 32.1893C7.47792 32.5044 7.47814 32.8195 7.47866 33.1345C7.47811 33.226 7.47756 33.3175 7.477 33.4117C7.47443 34.2284 7.47443 34.2284 7.82347 34.9442C8.22695 35.2367 8.42232 35.3551 8.91682 35.3546C9.06866 35.3548 9.06866 35.3548 9.22357 35.355C9.3351 35.3547 9.44664 35.3543 9.56155 35.354C9.73716 35.354 9.73716 35.354 9.91631 35.354C10.2378 35.354 10.5593 35.3535 10.8809 35.3528C11.2167 35.3523 11.5525 35.3522 11.8883 35.3521C12.5245 35.3518 13.1606 35.351 13.7968 35.3501C14.5209 35.349 15.2451 35.3485 15.9692 35.348C17.4591 35.3471 18.9489 35.3454 20.4387 35.3433C20.2474 35.152 20.1271 35.0985 19.8821 34.9976C19.5732 34.8455 19.502 34.7821 19.3078 34.4761C19.0814 33.5705 19.5159 32.9226 19.9465 32.15C20.0108 32.0327 20.0749 31.9153 20.139 31.7979C20.3308 31.4474 20.525 31.0983 20.72 30.7496C20.7738 30.6533 20.8276 30.5569 20.8831 30.4577C21.1301 30.0173 21.379 29.5781 21.6289 29.1394C21.9667 28.5456 22.2987 27.9486 22.6301 27.3511C22.6886 27.2458 22.747 27.1405 22.8073 27.032C23.0476 26.5988 23.2878 26.1655 23.5276 25.7319C23.8802 25.0946 24.2338 24.4578 24.5891 23.822C24.7445 23.5428 24.8984 23.2628 25.0522 22.9826C25.1432 22.8196 25.2343 22.6566 25.3254 22.4937C25.3653 22.4201 25.4051 22.3464 25.4462 22.2705C25.6168 21.9692 25.721 21.7854 26.0245 21.6086C26.3481 21.5422 26.5881 21.5746 26.9075 21.6558C27.2217 21.9213 27.4029 22.2137 27.5978 22.5732C27.657 22.6816 27.7162 22.79 27.7772 22.9017C27.8408 23.0196 27.9044 23.1375 27.968 23.2554C28.0348 23.378 28.1016 23.5006 28.1685 23.6231C28.3062 23.8753 28.4436 24.1276 28.5809 24.38C28.8809 24.9309 29.1862 25.4789 29.4914 26.0269C29.6078 26.2361 29.7241 26.4454 29.8404 26.6546C29.8979 26.7578 29.9553 26.8611 30.0144 26.9674C30.1897 27.2826 30.3648 27.5977 30.5399 27.9129C30.598 28.0175 30.6561 28.1221 30.716 28.2299C30.8327 28.44 30.9494 28.6501 31.066 28.8602C31.3674 29.4032 31.6696 29.9458 31.9729 30.4877C32.2687 31.0164 32.5625 31.546 32.8544 32.0768C32.9449 32.2411 33.0359 32.4052 33.1275 32.5688C33.7061 33.6041 33.7061 33.6041 33.6692 34.0836C33.4378 34.7904 33.4378 34.7904 33.0763 34.9863C32.8658 35.0811 32.6548 35.1685 32.4387 35.2496C32.4387 35.2805 32.4387 35.3115 32.4387 35.3433C33.9936 35.3521 35.5485 35.3587 37.1034 35.3628C37.8254 35.3647 38.5473 35.3673 39.2693 35.3716C39.8987 35.3754 40.528 35.3778 41.1574 35.3786C41.4906 35.3791 41.8237 35.3802 42.1569 35.383C42.529 35.386 42.9011 35.3861 43.2733 35.3859C43.4386 35.3879 43.4386 35.3879 43.6072 35.39C44.1942 35.387 44.5615 35.3735 45.0012 34.9683C45.2417 34.6945 45.3176 34.529 45.3171 34.1651C45.3176 34.0791 45.3182 33.9931 45.3188 33.9045C45.3179 33.8104 45.3171 33.7163 45.3163 33.6193C45.3165 33.5191 45.3168 33.4188 45.317 33.3155C45.3175 32.9786 45.3159 32.6416 45.3144 32.3046C45.3143 32.0635 45.3144 31.8224 45.3145 31.5812C45.3147 31.0615 45.3138 30.5419 45.3122 30.0222C45.3099 29.2708 45.3092 28.5194 45.3088 27.768C45.3082 26.549 45.3063 25.3299 45.3037 24.1109C45.3011 22.9266 45.2991 21.7424 45.2979 20.5582C45.2978 20.4852 45.2978 20.4122 45.2977 20.337C45.2973 19.9708 45.297 19.6047 45.2966 19.2385C45.2937 16.2005 45.2887 13.1626 45.2825 10.1246C45.1013 10.1244 45.1013 10.1244 44.9165 10.1242C42.0503 10.1208 39.1841 10.1155 36.318 10.1079C35.9652 10.107 35.6125 10.106 35.2597 10.1051C35.1544 10.1049 35.1544 10.1049 35.0469 10.1046C33.9097 10.1017 32.7725 10.1001 31.6352 10.099C30.4684 10.0978 29.3016 10.0952 28.1348 10.0913C27.4148 10.089 26.6947 10.0877 25.9747 10.0879C25.4226 10.0879 24.8706 10.0859 24.3186 10.0832C24.0921 10.0824 23.8655 10.0823 23.639 10.0828C23.33 10.0834 23.0211 10.0817 22.7122 10.0795C22.6223 10.0802 22.5323 10.0809 22.4397 10.0817C21.5293 10.0699 21.0933 9.58513 20.4797 8.95967C20.2906 8.75994 20.1079 8.5579 19.9289 8.34919C19.88 8.29368 19.8311 8.23818 19.7807 8.18098C19.6455 8.02626 19.5138 7.86852 19.3843 7.7091C18.9349 7.19914 18.6301 6.87679 17.9217 6.82001C17.6851 6.82017 17.4484 6.82587 17.212 6.83638C17.0853 6.83831 16.9585 6.83977 16.8318 6.8408C16.5016 6.8447 16.1719 6.85479 15.8419 6.86627C15.5038 6.87691 15.1656 6.88155 14.8274 6.88673C14.1664 6.89772 13.5057 6.91527 12.845 6.93708ZM3.0012 8.81208C2.73278 9.14881 2.68469 9.40398 2.68404 9.82889C2.68319 9.9392 2.68234 10.0495 2.68146 10.1632C2.68196 10.284 2.68246 10.4048 2.68298 10.5293C2.68252 10.6592 2.68194 10.7892 2.68125 10.9191C2.67971 11.2761 2.67993 11.6331 2.68044 11.9901C2.68069 12.3751 2.67933 12.7602 2.67818 13.1452C2.6762 13.8995 2.67578 14.6538 2.67595 15.4081C2.67607 16.0211 2.67571 16.6341 2.67502 17.2471C2.67482 17.4236 2.67462 17.6001 2.67443 17.7766C2.67433 17.8644 2.67423 17.9523 2.67413 18.0428C2.67236 19.7044 2.67246 21.3661 2.6731 23.0278C2.67362 24.5484 2.67167 26.069 2.66856 27.5897C2.6654 29.1506 2.66398 30.7115 2.66441 32.2724C2.66462 33.149 2.66413 34.0255 2.6618 34.902C2.65983 35.6482 2.65949 36.3943 2.66126 37.1405C2.66212 37.5213 2.66222 37.902 2.66029 38.2828C2.65854 38.6313 2.65895 38.9798 2.66109 39.3283C2.66167 39.5142 2.65994 39.7001 2.65813 39.886C2.65085 40.5489 2.65085 40.5489 2.92867 41.1291C3.39625 41.5143 3.73655 41.5542 4.33667 41.5534C4.40406 41.5535 4.47146 41.5537 4.5409 41.5539C4.76618 41.5542 4.99143 41.5531 5.21671 41.5521C5.37842 41.5521 5.54012 41.5521 5.70183 41.5522C6.14051 41.5523 6.57919 41.5512 7.01788 41.5498C7.47645 41.5487 7.93501 41.5486 8.39358 41.5483C9.26181 41.5478 10.13 41.5462 10.9983 41.5443C11.9868 41.5422 12.9753 41.5412 13.9638 41.5403C15.9971 41.5383 18.0304 41.535 20.0637 41.5308C20.0658 41.4195 20.0658 41.4195 20.0678 41.3059C20.0748 40.9687 20.0839 40.6316 20.093 40.2945C20.0962 40.1193 20.0962 40.1193 20.0994 39.9406C20.1027 39.8279 20.1061 39.7152 20.1095 39.5991C20.1132 39.4437 20.1132 39.4437 20.1169 39.2852C20.1723 38.895 20.3251 38.6468 20.5984 38.3679C20.8996 38.2024 21.204 38.1729 21.5403 38.1383C21.6056 38.1306 21.671 38.1229 21.7384 38.115C21.8988 38.0963 22.0594 38.0791 22.22 38.0621C22.2258 37.9519 22.2316 37.8417 22.2375 37.7281C22.2408 37.6661 22.2441 37.6041 22.2474 37.5402C22.2086 37.2175 22.0696 36.9515 21.9387 36.6558C21.869 36.6557 21.7993 36.6556 21.7276 36.6554C20.0295 36.6519 18.3314 36.6464 16.6334 36.6386C15.8122 36.6349 14.991 36.6318 14.1699 36.6304C13.4538 36.6292 12.7378 36.6267 12.0218 36.6226C11.6429 36.6205 11.2641 36.619 10.8852 36.6191C10.528 36.6192 10.1708 36.6175 9.81361 36.6145C9.68309 36.6137 9.55256 36.6135 9.42203 36.614C8.5145 36.6172 7.83644 36.4891 7.05003 36.0347C6.31016 35.2314 6.26858 34.302 6.26762 33.2657C6.26716 33.1599 6.26669 33.0542 6.26622 32.9452C6.26478 32.5907 6.26399 32.2361 6.2632 31.8816C6.26236 31.6275 6.26137 31.3734 6.26039 31.1193C6.25835 30.5722 6.25665 30.0251 6.25518 29.478C6.25305 28.687 6.25041 27.896 6.24765 27.105C6.24318 25.8216 6.23913 24.5381 6.23533 23.2547C6.23163 22.0081 6.22775 20.7615 6.22361 19.5149C6.22335 19.438 6.2231 19.3612 6.22283 19.282C6.22155 18.8964 6.22026 18.5108 6.21898 18.1252C6.2083 14.9271 6.19828 11.729 6.1887 8.53083C5.76293 8.52265 5.33718 8.51766 4.91136 8.51326C4.79087 8.5109 4.67038 8.50854 4.54625 8.50612C4.42963 8.50521 4.31301 8.5043 4.19285 8.50337C4.08583 8.5019 3.9788 8.50042 3.86853 8.49891C3.51422 8.53602 3.29986 8.6185 3.0012 8.81208ZM25.6887 24.4683C24.9678 25.764 24.2482 27.0604 23.5325 28.359C23.0357 29.2601 22.5378 30.1605 22.0383 31.0601C21.9803 31.1648 21.9223 31.2694 21.8625 31.3772C21.6104 31.8314 21.3572 32.2846 21.0975 32.7344C21.0365 32.8406 21.0365 32.8406 20.9743 32.9489C20.901 33.0759 20.8272 33.2026 20.7526 33.3287C20.6735 33.4659 20.602 33.6074 20.5325 33.7496C20.656 33.9967 20.8197 34.0378 21.0631 34.1486C22.1253 34.6337 22.6615 35.2166 23.2095 36.2578C23.4063 36.8362 23.4517 37.4564 23.5325 38.0621C25.4506 38.0621 27.3687 38.0621 29.345 38.0621C29.4378 37.366 29.4378 37.366 29.5325 36.6558C30.0345 35.4365 30.6704 34.6743 31.8762 34.1246C32.0319 34.0608 32.188 33.9979 32.345 33.9371C32.2112 33.5846 32.0522 33.2565 31.8744 32.9241C31.8178 32.8183 31.7613 32.7125 31.703 32.6035C31.6416 32.4895 31.5802 32.3754 31.5188 32.2613C31.4874 32.2029 31.4561 32.1445 31.4237 32.0843C30.9601 31.2211 30.4859 30.3646 30.0008 29.5133C29.5803 28.7746 29.1687 28.0313 28.759 27.2867C28.2405 26.3444 27.7191 25.4039 27.1887 24.4683C27.1578 24.4683 27.1268 24.4683 27.095 24.4683C27.0763 24.8603 27.0628 25.252 27.0538 25.6442C27.05 25.7775 27.0449 25.9107 27.0384 26.0438C26.968 26.8044 26.968 26.8044 27.2572 27.4634C27.4533 27.5881 27.4533 27.5881 27.6602 27.6649C28.0345 27.8365 28.1518 28.224 28.2903 28.5933C28.3641 29.1844 28.3092 29.6612 28.0325 30.1871C27.6733 30.6239 27.3137 30.9009 26.7416 30.9671C26.1364 30.9899 25.6056 30.9616 25.1262 30.5621C24.6714 30.0073 24.516 29.497 24.5637 28.7808C24.6905 28.2555 24.8925 27.9131 25.3137 27.5621C25.3952 27.5247 25.4767 27.4873 25.5606 27.4488C25.8133 27.2968 25.8133 27.2968 25.8357 26.9907C25.8332 26.8744 25.8308 26.758 25.8282 26.6381C25.8272 26.5451 25.8272 26.5451 25.8262 26.4502C25.8236 26.2523 25.8177 26.0548 25.8118 25.857C25.8094 25.7228 25.8073 25.5886 25.8053 25.4544C25.8002 25.1256 25.7921 24.797 25.7825 24.4683C25.7515 24.4683 25.7206 24.4683 25.6887 24.4683ZM25.9289 28.6988C25.7577 28.961 25.7577 28.961 25.7883 29.2672C25.8555 29.5586 25.8555 29.5586 26.1575 29.7183C26.4347 29.773 26.4347 29.773 26.72 29.7183C26.961 29.5244 26.961 29.5244 27.095 29.2496C27.0885 28.9782 27.0376 28.8364 26.8899 28.6109C26.5282 28.3739 26.2447 28.4235 25.9289 28.6988ZM30.9387 36.6558C30.6761 37.2044 30.6761 37.2044 30.6399 37.7281C30.6457 37.8383 30.6515 37.9485 30.6575 38.0621C30.7321 38.0656 30.8068 38.0691 30.8838 38.0727C31.5207 38.1122 32.008 38.1582 32.5149 38.5777C32.7553 38.8814 32.7374 39.2098 32.7496 39.5808C32.7535 39.6941 32.7575 39.8074 32.7615 39.9241C32.7652 40.0424 32.7689 40.1608 32.7727 40.2828C32.7767 40.4022 32.7808 40.5217 32.785 40.6448C32.7949 40.9401 32.8045 41.2355 32.8137 41.5308C33.6719 41.5374 34.53 41.5423 35.3882 41.5454C35.7867 41.5469 36.1852 41.5489 36.5837 41.552C36.9684 41.5551 37.3532 41.5568 37.738 41.5575C37.8846 41.558 38.0312 41.559 38.1778 41.5606C38.3836 41.5626 38.5893 41.5629 38.7951 41.5628C38.9706 41.5637 38.9706 41.5637 39.1496 41.5647C39.6173 41.5153 39.9225 41.3625 40.2493 41.0269C40.9536 39.9313 40.5012 36.998 40.5012 36.6558C37.3456 36.6558 34.19 36.6558 30.9387 36.6558ZM21.3762 39.3746C21.3762 41.4474 21.3762 43.5202 21.3762 45.6558C24.7175 45.6558 28.0587 45.6558 31.5012 45.6558C31.5012 43.583 31.5012 41.5102 31.5012 39.3746C28.16 39.3746 24.8187 39.3746 21.3762 39.3746Z" fill="white"/>
<path d="M25.4731 14.482C25.55 14.4817 25.627 14.4813 25.7063 14.4809C25.8683 14.4807 26.0303 14.4814 26.1922 14.483C26.4392 14.485 26.6859 14.483 26.9328 14.4806C27.0908 14.4808 27.2487 14.4813 27.4067 14.482C27.5166 14.4809 27.5166 14.4809 27.6287 14.4797C28.1174 14.4881 28.3946 14.5866 28.7836 14.9068C29.2232 15.4782 29.0649 15.8908 29.0649 16.6881C31.8493 16.6881 34.6336 16.6881 37.5024 16.6881C37.6416 16.2704 37.6416 16.2704 37.7836 15.8443C38.0857 15.3458 38.4962 14.986 39.0416 14.7779C39.7828 14.5985 40.5373 14.6442 41.2315 14.9636C41.7138 15.2662 42.1396 15.7576 42.336 16.2973C42.497 17.0883 42.4653 17.8489 42.0533 18.5517C41.6259 19.1393 41.1214 19.453 40.4086 19.5943C39.6447 19.6932 38.9535 19.5398 38.3355 19.0681C37.9531 18.711 37.8671 18.5321 37.6899 18.0006C35.8955 18.0315 34.1011 18.0625 32.2524 18.0943C32.6546 18.3418 33.0568 18.5893 33.4711 18.8443C33.7935 19.089 34.1023 19.3319 34.4086 19.5943C34.4867 19.6598 34.5648 19.7253 34.6452 19.7928C36.4248 21.3315 37.6259 23.4363 38.2524 25.6881C38.2524 25.7809 38.2524 25.8737 38.2524 25.9693C38.3417 25.9661 38.431 25.9628 38.523 25.9595C38.6406 25.9569 38.7582 25.9544 38.8793 25.9518C38.9957 25.9485 39.1121 25.9452 39.232 25.9419C39.7016 25.9806 39.93 26.1384 40.2446 26.4791C40.6249 27.036 40.5232 27.7188 40.5249 28.3683C40.5258 28.5751 40.5287 28.7818 40.5317 28.9886C40.5323 29.1214 40.5328 29.2543 40.5331 29.3872C40.534 29.507 40.5349 29.6269 40.5358 29.7504C40.4872 30.2511 40.36 30.6186 39.9868 30.9732C39.5796 31.2379 39.2154 31.2357 38.7457 31.2384C38.6746 31.2389 38.6035 31.2395 38.5302 31.24C38.3798 31.2409 38.2294 31.2415 38.0789 31.2419C37.8499 31.2428 37.621 31.2457 37.392 31.2486C37.2456 31.2493 37.0991 31.2497 36.9527 31.2501C36.8847 31.2513 36.8167 31.2524 36.7467 31.2536C36.3019 31.2517 35.997 31.1881 35.6274 30.9381C35.2317 30.4913 35.1967 30.1302 35.2026 29.5611C35.2022 29.4842 35.2019 29.4073 35.2015 29.328C35.2012 29.166 35.2019 29.004 35.2035 28.842C35.2055 28.595 35.2035 28.3484 35.2011 28.1014C35.2014 27.9435 35.2018 27.7855 35.2026 27.6275C35.2018 27.5543 35.2011 27.481 35.2003 27.4056C35.2086 26.9175 35.3052 26.6377 35.6274 26.2506C36.0471 25.9708 36.3511 25.9588 36.8461 25.9693C35.9271 23.1585 34.2615 20.7166 31.5775 19.3384C30.7859 18.9473 30.0124 18.6073 29.1586 18.3756C29.1409 18.4365 29.1232 18.4975 29.1049 18.5603C28.9763 18.9937 28.8721 19.3081 28.5024 19.5943C28.0224 19.8344 27.2638 19.7175 26.7295 19.7209C26.5527 19.7225 26.3759 19.725 26.1992 19.7286C25.944 19.7338 25.6888 19.7358 25.4335 19.7372C25.355 19.7393 25.2765 19.7414 25.1956 19.7436C24.811 19.7422 24.5482 19.7172 24.2374 19.4788C24.0058 19.2231 23.9234 19.1023 23.8735 18.7682C23.8612 18.6941 23.8488 18.62 23.8361 18.5437C23.8256 18.4605 23.8256 18.4605 23.8149 18.3756C20.8539 19.2587 18.5225 20.9229 17.0041 23.6571C16.602 24.4047 16.289 25.1597 16.0336 25.9693C16.1458 25.9635 16.2579 25.9577 16.3735 25.9518C16.765 25.9538 17.0166 26.0259 17.3461 26.2506C17.7252 26.7087 17.7761 27.0379 17.7677 27.607C17.7678 27.6819 17.7679 27.7568 17.7681 27.8339C17.7679 27.9915 17.7668 28.1491 17.7649 28.3066C17.7622 28.5468 17.763 28.7867 17.7642 29.0268C17.7636 29.1805 17.7628 29.3342 17.7618 29.4879C17.7621 29.5591 17.7623 29.6303 17.7626 29.7037C17.7548 30.148 17.7028 30.47 17.4399 30.8443C16.9723 31.1891 16.6026 31.275 16.0216 31.2659C15.9157 31.2661 15.9157 31.2661 15.8077 31.2663C15.6595 31.2661 15.5113 31.265 15.3631 31.2631C15.1374 31.2604 14.9119 31.2612 14.6862 31.2624C14.5415 31.2618 14.3967 31.261 14.252 31.26C14.1852 31.2603 14.1184 31.2605 14.0496 31.2608C13.612 31.2526 13.3121 31.1673 12.9399 30.9381C12.5097 30.473 12.4553 30.1031 12.4488 29.4897C12.4481 29.4212 12.4473 29.3526 12.4465 29.2819C12.4452 29.1367 12.4442 28.9915 12.4435 28.8462C12.4424 28.6987 12.4405 28.5511 12.4377 28.4036C12.4089 26.8744 12.4089 26.8744 12.8461 26.2506C13.349 25.838 14.0109 25.9446 14.6274 25.9693C14.6401 25.9055 14.6528 25.8417 14.6658 25.776C14.8578 24.9117 15.1862 24.1398 15.5649 23.3443C15.6072 23.2545 15.6495 23.1648 15.6931 23.0722C16.7743 20.945 18.5774 19.2658 20.6274 18.0943C18.864 18.0943 17.1005 18.0943 15.2836 18.0943C15.1599 18.3109 15.0361 18.5275 14.9086 18.7506C14.4487 19.2922 13.8738 19.5341 13.1794 19.624C12.4169 19.6611 11.7405 19.4406 11.1704 18.9264C10.6562 18.3563 10.4357 17.6798 10.4727 16.9173C10.5642 16.2106 10.8112 15.6671 11.3461 15.1881C12.054 14.684 12.748 14.6515 13.5961 14.7193C14.2268 14.8612 14.6124 15.2232 15.0372 15.6935C15.1899 15.9381 15.1899 15.9381 15.3774 16.6881C18.1618 16.6881 20.9461 16.6881 23.8149 16.6881C23.8149 16.2859 23.8149 15.8837 23.8149 15.4693C24.0745 14.6474 24.6917 14.4739 25.4731 14.482ZM25.1274 15.8443C25.1274 16.7106 25.1274 17.5768 25.1274 18.4693C25.9936 18.4693 26.8599 18.4693 27.7524 18.4693C27.7524 17.6031 27.7524 16.7368 27.7524 15.8443C26.8861 15.8443 26.0199 15.8443 25.1274 15.8443ZM12.0961 16.3131C11.851 16.6935 11.7492 16.9873 11.8149 17.4381C12.0276 17.8398 12.2279 18.1191 12.6586 18.2818C13.125 18.3099 13.4172 18.2573 13.7836 17.9596C14.0846 17.574 14.1167 17.2628 14.0649 16.7818C13.9131 16.4403 13.7453 16.2002 13.4086 16.0318C12.914 15.9641 12.4848 15.9702 12.0961 16.3131ZM38.9086 16.5006C38.743 16.8319 38.7549 17.1711 38.8149 17.5318C38.9883 17.8899 39.2051 18.1258 39.5828 18.2624C39.9716 18.3289 40.1774 18.3029 40.5375 18.1295C40.9477 17.759 40.9477 17.759 41.077 17.237C41.0547 16.8292 41.0059 16.6371 40.7426 16.3131C40.3774 16.028 40.1438 15.9952 39.6894 15.9981C39.3221 16.0549 39.1614 16.2352 38.9086 16.5006ZM13.7836 27.2818C13.7836 28.1481 13.7836 29.0143 13.7836 29.9068C14.6499 29.9068 15.5161 29.9068 16.4086 29.9068C16.4086 29.0406 16.4086 28.1743 16.4086 27.2818C15.5424 27.2818 14.6761 27.2818 13.7836 27.2818ZM36.4711 27.2818C36.4664 28.3126 36.4664 28.3126 36.518 29.3326C36.5412 29.6169 36.5412 29.6169 36.5649 29.9068C37.4311 29.9068 38.2974 29.9068 39.1899 29.9068C39.1918 29.6999 39.1938 29.4931 39.1957 29.2799C39.1968 29.1635 39.1979 29.0471 39.199 28.9272C39.1873 28.3778 39.1383 27.8298 39.0961 27.2818C38.2299 27.2818 37.3636 27.2818 36.4711 27.2818Z" fill="white"/>
<path d="M34.818 3.98464C35.2873 4.25929 35.5402 4.66127 35.6856 5.17886C35.7909 5.82072 35.6147 6.29036 35.2692 6.82644C34.8593 7.23629 34.5086 7.33171 33.9391 7.34792C33.4044 7.33142 33.0488 7.26622 32.6592 6.87661C32.2119 6.37874 32.1191 5.99814 32.1253 5.33083C32.1911 4.78945 32.4835 4.4457 32.8727 4.08425C33.4314 3.71672 34.211 3.72218 34.818 3.98464ZM33.5817 5.26785C33.4446 5.43853 33.4446 5.43853 33.4938 5.68386C33.5433 5.90007 33.5433 5.90007 33.6579 6.00027C33.8843 6.0472 33.8843 6.0472 34.1266 6.00027C34.3012 5.77446 34.3012 5.77446 34.4079 5.53152C34.2929 5.33654 34.2929 5.33654 34.1266 5.15652C33.77 5.12227 33.77 5.12227 33.5817 5.26785Z" fill="white"/>
<path d="M38.6263 3.84369C39.1729 4.02458 39.5015 4.40642 39.7748 4.89837C39.9405 5.50618 39.8992 6.0302 39.5898 6.58184C39.3371 6.93664 39.0435 7.1734 38.6263 7.31244C37.9819 7.37926 37.4375 7.38478 36.9033 6.98834C36.4797 6.58512 36.3139 6.1358 36.2734 5.55645C36.2948 5.05951 36.4691 4.70594 36.7865 4.33001C37.3896 3.82747 37.8522 3.75128 38.6263 3.84369ZM37.8763 5.15619C37.7135 5.31321 37.7135 5.31321 37.5951 5.53119C37.6616 5.7875 37.6616 5.7875 37.7826 5.99994C38.056 6.01557 38.056 6.01557 38.3451 5.99994C38.407 5.93806 38.4688 5.87619 38.5326 5.81244C38.5024 5.52188 38.5024 5.52188 38.4388 5.24994C38.1604 5.20353 38.1604 5.20353 37.8763 5.15619Z" fill="white"/>
<path d="M43.0577 3.9438C43.4332 4.2145 43.7574 4.55223 43.9659 4.96919C44.032 5.6357 44.0604 6.23855 43.6404 6.78889C43.1966 7.25085 42.8526 7.33699 42.2257 7.35981C41.642 7.33976 41.3331 7.2248 40.926 6.79768C40.4996 6.31598 40.4688 5.93722 40.4778 5.31782C40.517 4.80228 40.7346 4.52334 41.1066 4.18989C41.6584 3.72883 42.3907 3.72984 43.0577 3.9438ZM41.8097 5.34419C41.7784 5.57857 41.7784 5.57857 41.8097 5.81294C41.981 6.0238 41.981 6.0238 42.2316 6.02388C42.4821 6.0238 42.4821 6.0238 42.6534 5.81294C42.6847 5.57857 42.6847 5.57857 42.6534 5.34419C42.4821 5.13333 42.4821 5.13333 42.2316 5.13325C41.981 5.13333 41.981 5.13333 41.8097 5.34419Z" fill="white"/>
</svg>
