<svg width="80" height="80" viewBox="0 0 80 80" fill="none" xmlns="http://www.w3.org/2000/svg">
<path d="M14.6229 1.69717C14.7255 1.6968 14.8281 1.69643 14.9339 1.69606C15.2792 1.69501 15.6245 1.69508 15.9698 1.69515C16.2193 1.69463 16.4688 1.69405 16.7182 1.6934C17.405 1.69184 18.0918 1.69126 18.7786 1.69084C19.5189 1.69023 20.2592 1.68874 20.9994 1.68737C22.7878 1.68429 24.5761 1.68271 26.3644 1.68132C27.2065 1.68064 28.0485 1.6798 28.8906 1.67898C31.6895 1.67632 34.4885 1.67406 37.2875 1.67293C38.0139 1.67263 38.7403 1.67233 39.4667 1.67202C39.6472 1.67195 39.8278 1.67187 40.0138 1.67179C42.9388 1.6705 45.8638 1.66654 48.7888 1.66146C51.7915 1.6563 54.7942 1.65348 57.7969 1.65298C59.4829 1.65264 61.1689 1.65127 62.855 1.64728C64.2908 1.64389 65.7266 1.64263 67.1625 1.64415C67.8949 1.64486 68.6274 1.64457 69.3598 1.64153C70.0309 1.63878 70.7019 1.63893 71.3729 1.64136C71.6152 1.64173 71.8575 1.64106 72.0997 1.6392C73.7025 1.62769 74.9416 1.79822 76.3086 2.67517C77.7221 4.18728 77.6894 5.89367 77.687 7.8473C77.6873 8.05853 77.6876 8.26976 77.688 8.48098C77.689 9.05983 77.689 9.63867 77.6888 10.2175C77.6888 10.8424 77.6896 11.4673 77.6904 12.0922C77.6917 13.3159 77.6921 14.5396 77.6922 15.7634C77.6922 16.7582 77.6926 17.753 77.6931 18.7479C77.6944 21.5696 77.6952 24.3912 77.695 27.2129C77.695 27.441 77.695 27.441 77.695 27.6737C77.695 27.8259 77.695 27.9782 77.695 28.135C77.6949 30.6023 77.6964 33.0696 77.6986 35.5368C77.7009 38.0713 77.702 40.6057 77.7018 43.1402C77.7018 44.5626 77.7022 45.9851 77.7039 47.4076C77.7053 48.6187 77.7057 49.8297 77.7046 51.0408C77.7041 51.6584 77.7041 52.276 77.7054 52.8936C77.7067 53.4597 77.7064 54.0257 77.7051 54.5918C77.7047 54.8921 77.7059 55.1924 77.7071 55.4927C77.7005 57.1735 77.6113 58.7213 76.4161 59.9994C75.3316 60.8136 74.4893 61.1141 73.1421 61.1084C73.039 61.1082 72.9358 61.108 72.8295 61.1077C72.5016 61.1069 72.1737 61.1049 71.8458 61.1029C71.6228 61.1021 71.3998 61.1014 71.1768 61.1008C70.6316 61.099 70.0863 61.0964 69.5411 61.0931C69.5427 61.2743 69.5443 61.4554 69.546 61.6421C69.5517 62.3206 69.5553 62.9991 69.5582 63.6776C69.5598 63.9701 69.5619 64.2625 69.5646 64.555C69.5685 64.9778 69.5702 65.4005 69.5716 65.8234C69.574 66.0163 69.574 66.0163 69.5765 66.2132C69.5768 67.7189 69.4031 69.0019 68.3344 70.1263C66.8633 71.5302 65.2251 71.4709 63.3149 71.4514C63.0612 71.4505 62.8074 71.4499 62.5537 71.4494C61.8902 71.4476 61.2267 71.443 60.5633 71.4378C59.8845 71.433 59.2057 71.4309 58.527 71.4285C57.1983 71.4235 55.8697 71.4155 54.5411 71.4056C54.5443 71.5917 54.5476 71.7777 54.551 71.9694C54.5623 72.6601 54.5695 73.3508 54.5754 74.0416C54.5785 74.3405 54.5828 74.6393 54.5882 74.9382C54.5958 75.368 54.5993 75.7976 54.6021 76.2274C54.6069 76.4276 54.6069 76.4276 54.6119 76.6319C54.6119 76.757 54.612 76.8821 54.612 77.0109C54.6134 77.1206 54.6148 77.2302 54.6162 77.3432C54.5057 77.8025 54.2761 77.9824 53.9161 78.2806C53.5286 78.3593 53.5286 78.3593 53.0858 78.36C52.8335 78.3626 52.8335 78.3626 52.576 78.3653C52.3003 78.3634 52.3003 78.3634 52.0191 78.3615C51.7279 78.3632 51.7279 78.3632 51.4307 78.3648C50.8987 78.3671 50.3668 78.3666 49.8347 78.3646C49.2778 78.363 48.7209 78.3645 48.164 78.3655C47.2287 78.3666 46.2935 78.3651 45.3583 78.3621C44.2773 78.3587 43.1963 78.3598 42.1152 78.3633C41.1868 78.3661 40.2585 78.3665 39.3301 78.3649C38.7757 78.3639 38.2214 78.3638 37.667 78.3658C37.049 78.368 36.431 78.365 35.813 78.3615C35.6293 78.3628 35.4455 78.364 35.2561 78.3653C35.0879 78.3636 34.9196 78.3618 34.7463 78.36C34.6002 78.3598 34.4541 78.3595 34.3036 78.3593C33.7641 78.2498 33.5975 78.1154 33.2911 77.6556C33.2068 77.1783 33.2184 76.7108 33.23 76.2274C33.2309 76.0896 33.2318 75.9517 33.2327 75.8097C33.2362 75.3702 33.244 74.931 33.252 74.4916C33.2551 74.1933 33.258 73.8951 33.2606 73.5968C33.2674 72.8663 33.2782 72.136 33.2911 71.4056C33.1501 71.4062 33.0092 71.4068 32.864 71.4074C29.4301 71.4212 25.9962 71.4315 22.5623 71.438C20.9017 71.4412 19.2411 71.4456 17.5805 71.4528C16.1327 71.459 14.6848 71.4631 13.237 71.4644C12.4708 71.4653 11.7046 71.4672 10.9384 71.4717C10.2162 71.476 9.49407 71.4773 8.77189 71.4763C8.50779 71.4765 8.2437 71.4777 7.97961 71.4801C6.27663 71.4949 4.6349 71.4746 3.30083 70.2728C1.97158 68.781 2.01781 67.1821 2.02017 65.2765C2.01988 65.0653 2.01952 64.854 2.0191 64.6428C2.01815 64.0639 2.01817 63.4851 2.01835 62.9063C2.01838 62.2814 2.01752 61.6564 2.01678 61.0315C2.01548 59.8078 2.01505 58.5841 2.01496 57.3604C2.01489 56.3656 2.01457 55.3707 2.01407 54.3759C2.0127 51.5542 2.01198 48.7325 2.01209 45.9109C2.0121 45.7588 2.01211 45.6068 2.01211 45.4501C2.01212 45.2979 2.01213 45.1456 2.01213 44.9888C2.0122 42.5215 2.0107 40.0542 2.0085 37.587C2.00625 35.0525 2.00517 32.5181 2.00531 29.9836C2.00536 28.5611 2.00493 27.1387 2.00325 25.7162C2.00183 24.5051 2.00149 23.294 2.00255 22.0829C2.00306 21.4653 2.00307 20.8478 2.00171 20.2302C2.00048 19.6641 2.00071 19.0981 2.00207 18.532C2.00242 18.2317 2.00124 17.9314 2 17.6311C2.00685 15.906 2.13163 14.4669 3.29107 13.1244C4.23092 12.2585 5.1993 11.9896 6.47344 12.0001C6.57962 12.0006 6.68581 12.001 6.79521 12.0015C7.1311 12.0032 7.46692 12.0071 7.80278 12.0111C8.03187 12.0127 8.26095 12.0141 8.49004 12.0154C9.04874 12.0188 9.6074 12.0242 10.1661 12.0306C10.1636 11.7506 10.1636 11.7506 10.1611 11.4649C10.1554 10.7669 10.1519 10.0689 10.1489 9.37084C10.1473 9.06973 10.1452 8.76862 10.1425 8.46752C10.1387 8.0327 10.1369 7.59792 10.1355 7.16309C10.1339 7.03022 10.1323 6.89735 10.1307 6.76045C10.1304 5.25817 10.3731 3.94639 11.4161 2.81189C12.4697 2.0192 13.3128 1.69917 14.6229 1.69717ZM12.6954 4.83338C12.3353 5.45881 12.3342 6.12112 12.3358 6.8288C12.3358 7.00393 12.3359 7.17905 12.3359 7.35948C12.3367 7.54684 12.3375 7.73421 12.3383 7.92725C12.3385 8.12036 12.3388 8.31347 12.339 8.51243C12.3397 9.02386 12.3411 9.53528 12.3428 10.0467C12.3444 10.5694 12.3451 11.092 12.3459 11.6147C12.3475 12.6388 12.3506 13.6628 12.3536 14.6869C14.5708 14.6869 16.7879 14.6869 19.0723 14.6869C19.0989 13.3852 19.0989 13.3852 19.1189 12.0833C19.1236 11.9203 19.1284 11.7573 19.1334 11.5894C19.1366 11.4233 19.1399 11.2571 19.1433 11.086C19.2509 10.5036 19.4272 10.2517 19.8536 9.84314C20.5275 9.56616 21.1015 9.49066 21.8268 9.48772C22.0297 9.48624 22.2325 9.48475 22.4415 9.48321C22.661 9.48325 22.8805 9.4834 23.1 9.48364C23.3273 9.48304 23.5545 9.48236 23.7818 9.48161C24.2571 9.48045 24.7324 9.48049 25.2077 9.48132C25.8147 9.48222 26.4216 9.47958 27.0286 9.47595C27.4976 9.47364 27.9666 9.47351 28.4357 9.474C28.6594 9.47392 28.8831 9.47311 29.1068 9.47153C31.62 9.45596 31.62 9.45596 32.7038 10.4324C32.8762 10.6038 33.0468 10.777 33.216 10.9515C33.3073 11.0434 33.3987 11.1353 33.4928 11.2299C33.7819 11.5214 34.0687 11.8151 34.3555 12.1088C34.551 12.306 34.7466 12.5032 34.9424 12.7002C35.1288 12.8887 35.315 13.0773 35.5012 13.266C35.5884 13.3544 35.6756 13.4428 35.7655 13.5338C36.1269 13.9042 36.4406 14.255 36.7286 14.6869C37.0241 14.757 37.0241 14.757 37.3698 14.7446C37.5048 14.7455 37.6399 14.7464 37.779 14.7474C38.0029 14.7453 38.0029 14.7453 38.2313 14.7433C38.3892 14.7437 38.5471 14.7441 38.7097 14.7445C39.2421 14.7452 39.7744 14.7427 40.3068 14.7401C40.6871 14.74 41.0674 14.74 41.4477 14.7403C42.2681 14.7404 43.0886 14.7391 43.909 14.7365C45.0953 14.7326 46.2815 14.7314 47.4678 14.7308C49.3922 14.7298 51.3167 14.7267 53.2412 14.7223C55.1109 14.718 56.9807 14.7146 58.8505 14.7126C58.9657 14.7125 59.0809 14.7124 59.1995 14.7123C59.7774 14.7117 60.3553 14.7111 60.9332 14.7105C65.7296 14.7056 70.526 14.6973 75.3223 14.6869C75.3405 13.4604 75.3543 12.2339 75.3628 11.0073C75.3669 10.4377 75.3724 9.86813 75.3813 9.29855C75.3898 8.74843 75.3944 8.19839 75.3964 7.6482C75.3986 7.33712 75.4047 7.02607 75.4108 6.71505C75.4421 5.57023 75.4421 5.57023 74.966 4.57039C74.2603 3.98537 73.8258 3.86656 72.9047 3.86544C72.7521 3.86462 72.7521 3.86462 72.5964 3.86378C72.2541 3.86232 71.9118 3.8631 71.5694 3.86386C71.322 3.86327 71.0747 3.86255 70.8273 3.86171C70.1464 3.85979 69.4656 3.85984 68.7847 3.86021C68.0508 3.86027 67.317 3.85855 66.5831 3.85707C65.1449 3.85447 63.7067 3.85361 62.2685 3.85344C61.0998 3.85329 59.9311 3.85265 58.7624 3.85166C55.4505 3.8489 52.1387 3.84746 48.8269 3.8477C48.6483 3.84771 48.4697 3.84772 48.2857 3.84773C48.0174 3.84775 48.0174 3.84775 47.7437 3.84777C44.8446 3.8479 41.9454 3.84491 39.0462 3.8405C36.0711 3.83602 33.096 3.83386 30.1208 3.83413C28.4498 3.83423 26.7788 3.83337 25.1078 3.83001C23.6853 3.82717 22.2627 3.82648 20.8401 3.8286C20.114 3.82963 19.388 3.82963 18.6619 3.82693C17.9975 3.82448 17.3331 3.82491 16.6686 3.82765C16.428 3.82813 16.1875 3.82755 15.9469 3.82581C15.6201 3.82361 15.2935 3.82526 14.9667 3.82786C14.7852 3.8278 14.6036 3.82773 14.4165 3.82766C13.6825 3.94203 13.1972 4.29697 12.6954 4.83338ZM21.2598 11.5619C21.2575 11.665 21.2553 11.7682 21.2529 11.8744C21.2412 12.3465 21.2261 12.8184 21.211 13.2904C21.2075 13.4526 21.2039 13.6149 21.2003 13.782C21.1678 14.7132 21.1065 15.4365 20.6348 16.2494C20.1708 16.6771 19.8619 16.7776 19.236 16.7857C19.0828 16.7888 18.9296 16.7919 18.7717 16.7951C18.6074 16.7961 18.4432 16.7971 18.274 16.7981C18.1049 16.8009 17.9359 16.8037 17.7617 16.8066C17.222 16.8151 16.6824 16.8203 16.1426 16.8256C15.7766 16.8307 15.4106 16.8361 15.0446 16.8417C14.1476 16.855 13.2506 16.8657 12.3536 16.8744C12.3464 21.9515 12.3409 27.0287 12.3376 32.1058C12.3372 32.7053 12.3368 33.3047 12.3364 33.9042C12.3363 34.0235 12.3362 34.1428 12.3362 34.2658C12.3348 36.1979 12.3323 38.1301 12.3295 40.0622C12.3265 42.0449 12.3248 44.0275 12.3242 46.0102C12.3237 47.2335 12.3224 48.4568 12.3198 49.6802C12.318 50.6183 12.3178 51.5565 12.3182 52.4946C12.3181 52.8794 12.3175 53.2642 12.3163 53.649C12.3148 54.1741 12.3151 54.6992 12.316 55.2243C12.3151 55.3768 12.3142 55.5292 12.3132 55.6863C12.309 57.0473 12.309 57.0473 12.8907 58.2404C13.5632 58.7279 13.8888 58.9252 14.7129 58.9244C14.966 58.9248 14.966 58.9247 15.2242 58.9251C15.4101 58.9245 15.596 58.924 15.7875 58.9234C16.0802 58.9234 16.0802 58.9234 16.3787 58.9234C16.9146 58.9234 17.4505 58.9226 17.9863 58.9215C18.546 58.9205 19.1058 58.9204 19.6655 58.9202C20.7257 58.9197 21.786 58.9185 22.8462 58.9169C24.0531 58.9151 25.26 58.9143 26.4669 58.9135C28.95 58.9119 31.433 58.9091 33.9161 58.9056C33.5973 58.5868 33.3967 58.4975 32.9883 58.3295C32.4736 58.0758 32.3549 57.9703 32.0313 57.4603C31.654 55.951 32.3781 54.8711 33.0958 53.5834C33.2028 53.3878 33.3097 53.1922 33.4165 52.9966C33.7362 52.4124 34.0598 51.8306 34.3848 51.2494C34.4745 51.0889 34.5643 50.9283 34.6567 50.7629C35.0684 50.029 35.4832 49.2969 35.8997 48.5657C36.4628 47.576 37.0161 46.581 37.5684 45.5853C37.6658 45.4098 37.7633 45.2342 37.8637 45.0534C38.2642 44.3313 38.6646 43.6092 39.0642 42.8867C39.6518 41.8244 40.2412 40.7632 40.8333 39.7034C41.0925 39.2381 41.3489 38.7713 41.6053 38.3044C41.7569 38.0328 41.9087 37.7611 42.0606 37.4896C42.127 37.3669 42.1934 37.2441 42.2619 37.1176C42.5462 36.6153 42.7199 36.309 43.2258 36.0144C43.7651 35.9038 44.1651 35.9577 44.6973 36.0931C45.2211 36.5355 45.5231 37.0228 45.8478 37.6221C45.9465 37.8028 46.0452 37.9835 46.1469 38.1696C46.2529 38.3661 46.3589 38.5626 46.4649 38.7592C46.5762 38.9635 46.6875 39.1677 46.799 39.3719C47.0285 39.7922 47.2575 40.2128 47.4863 40.6335C47.9864 41.5517 48.4952 42.4649 49.004 43.3783C49.1979 43.727 49.3918 44.0757 49.5856 44.4244C49.6813 44.5965 49.777 44.7686 49.8756 44.9458C50.1677 45.471 50.4596 45.9963 50.7514 46.5216C50.8483 46.696 50.9451 46.8703 51.0449 47.05C51.2394 47.4001 51.4338 47.7503 51.6282 48.1005C52.1306 49.0054 52.6342 49.9097 53.1397 50.813C53.6327 51.694 54.1223 52.5768 54.6088 53.4615C54.7597 53.7353 54.9113 54.0087 55.0641 54.2815C56.0283 56.007 56.0283 56.007 55.9669 56.806C55.5813 57.9841 55.5813 57.9841 54.9787 58.3105C54.6279 58.4686 54.2762 58.6142 53.9161 58.7494C53.9161 58.8009 53.9161 58.8525 53.9161 58.9056C56.5075 58.9202 59.099 58.9313 61.6905 58.938C62.8938 58.9412 64.0971 58.9456 65.3004 58.9528C66.3493 58.959 67.3983 58.9631 68.4472 58.9644C69.0025 58.9653 69.5578 58.9672 70.113 58.9717C70.7333 58.9768 71.3534 58.9769 71.9737 58.9766C72.2492 58.98 72.2492 58.98 72.5302 58.9834C73.5086 58.9784 74.1208 58.956 74.8536 58.2806C75.2544 57.8242 75.3809 57.5484 75.38 56.9418C75.3809 56.7985 75.3819 56.6552 75.3828 56.5076C75.3815 56.3507 75.3801 56.1939 75.3787 56.0323C75.3791 55.8652 75.3795 55.6981 75.3799 55.526C75.3807 54.9643 75.3781 54.4027 75.3755 53.8411C75.3754 53.4392 75.3755 53.0373 75.3757 52.6355C75.376 51.7693 75.3745 50.9032 75.3719 50.037C75.3681 48.7847 75.3669 47.5324 75.3663 46.2801C75.3652 44.2484 75.3621 42.2166 75.3577 40.1849C75.3534 38.2111 75.3501 36.2374 75.3481 34.2637C75.3479 34.142 75.3478 34.0204 75.3477 33.8951C75.3471 33.2848 75.3465 32.6745 75.3459 32.0642C75.341 27.0009 75.3328 21.9377 75.3223 16.8744C75.0204 16.874 75.0204 16.874 74.7124 16.8737C69.9354 16.8681 65.1585 16.8593 60.3815 16.8466C59.7936 16.845 59.2057 16.8435 58.6178 16.842C58.4422 16.8415 58.4422 16.8415 58.2631 16.841C56.3677 16.8362 54.4723 16.8335 52.577 16.8317C50.6323 16.8298 48.6876 16.8255 46.7429 16.819C45.5428 16.8151 44.3428 16.813 43.1427 16.8132C42.2226 16.8132 41.3026 16.81 40.3825 16.8055C40.005 16.8041 39.6274 16.8039 39.2499 16.8047C38.7349 16.8058 38.2201 16.803 37.7052 16.7992C37.5553 16.8004 37.4055 16.8017 37.2511 16.8029C35.7337 16.7833 35.0071 15.9753 33.9844 14.9329C33.6692 14.6 33.3648 14.2632 33.0665 13.9154C32.9849 13.8229 32.9034 13.7304 32.8194 13.6351C32.5941 13.3772 32.3746 13.1143 32.1587 12.8486C31.4098 11.9987 30.9017 11.4614 29.721 11.3668C29.3267 11.367 28.9322 11.3765 28.5383 11.394C28.327 11.3973 28.1158 11.3997 27.9046 11.4014C27.3542 11.4079 26.8047 11.4247 26.2547 11.4439C25.6912 11.4616 25.1276 11.4693 24.564 11.478C23.4622 11.4963 22.3611 11.5255 21.2598 11.5619ZM4.85357 14.6869C4.4062 15.2481 4.32605 15.6734 4.32496 16.3816C4.32354 16.5654 4.32213 16.7493 4.32067 16.9387C4.3215 17.1401 4.32233 17.3414 4.32319 17.5489C4.32243 17.7654 4.32146 17.982 4.32031 18.1986C4.31774 18.7936 4.31811 19.3886 4.31896 19.9836C4.31938 20.6253 4.31711 21.267 4.31519 21.9088C4.3119 23.1659 4.31119 24.4231 4.31147 25.6803C4.31168 26.702 4.31108 27.7236 4.30992 28.7453C4.30959 29.0395 4.30927 29.3336 4.30894 29.6277C4.30878 29.7741 4.30861 29.9205 4.30844 30.0714C4.30549 32.8408 4.30566 35.6103 4.30672 38.3797C4.30759 40.9141 4.30434 43.4485 4.29916 45.9829C4.2939 48.5844 4.29152 51.1859 4.29225 53.7875C4.2926 55.2484 4.29177 56.7092 4.28789 58.1701C4.28461 59.4137 4.28404 60.6573 4.287 61.9009C4.28843 62.5355 4.2886 63.1701 4.28538 63.8047C4.28246 64.3856 4.28315 64.9664 4.28671 65.5473C4.28768 65.8571 4.2848 66.1669 4.28179 66.4767C4.26964 67.5815 4.26964 67.5815 4.73268 68.5486C5.51197 69.1906 6.07914 69.2571 7.07934 69.2557C7.19167 69.256 7.30399 69.2562 7.41972 69.2565C7.79519 69.257 8.17062 69.2553 8.54608 69.2536C8.81559 69.2535 9.0851 69.2536 9.3546 69.2538C10.0858 69.2538 10.8169 69.252 11.548 69.2498C12.3123 69.2479 13.0766 69.2477 13.8409 69.2473C15.2879 69.2463 16.735 69.2438 18.182 69.2406C19.8295 69.2372 21.477 69.2354 23.1245 69.2339C26.5134 69.2306 29.9022 69.2251 33.2911 69.2181C33.2945 69.0326 33.2945 69.0326 33.298 68.8433C33.3096 68.2813 33.3247 67.7195 33.3399 67.1576C33.3452 66.8656 33.3452 66.8656 33.3506 66.5677C33.3561 66.3799 33.3617 66.192 33.3674 65.9985C33.3735 65.7396 33.3735 65.7396 33.3798 65.4753C33.4721 64.8251 33.7267 64.4114 34.1822 63.9465C34.6842 63.6707 35.1915 63.6216 35.752 63.5638C35.861 63.551 35.9699 63.5383 36.0822 63.5251C36.3495 63.494 36.6172 63.4652 36.8848 63.4369C36.8945 63.2532 36.9042 63.0695 36.9141 62.8802C36.9196 62.7769 36.925 62.6736 36.9306 62.5671C36.8658 62.0293 36.6342 61.5859 36.4161 61.0931C36.2999 61.0929 36.1838 61.0927 36.0642 61.0924C33.2341 61.0866 30.404 61.0774 27.5739 61.0644C26.2053 61.0582 24.8366 61.0531 23.468 61.0508C22.2746 61.0488 21.0813 61.0445 19.8879 61.0377C19.2564 61.0342 18.625 61.0317 17.9936 61.0319C17.3982 61.032 16.8029 61.0292 16.2076 61.0242C15.99 61.0229 15.7725 61.0226 15.555 61.0235C14.0424 61.0288 12.9123 60.8153 11.6016 60.058C10.3685 58.7192 10.2992 57.1701 10.2976 55.4429C10.2968 55.2666 10.2961 55.0904 10.2953 54.9087C10.2929 54.3179 10.2915 53.727 10.2902 53.1361C10.2888 52.7126 10.2872 52.2891 10.2855 51.8657C10.2822 50.9538 10.2793 50.042 10.2769 49.1301C10.2733 47.8118 10.2689 46.4934 10.2643 45.175C10.2569 43.036 10.2501 40.897 10.2438 38.7579C10.2376 36.6802 10.2311 34.6026 10.2242 32.5249C10.2238 32.3968 10.2234 32.2687 10.223 32.1367C10.2208 31.494 10.2187 30.8514 10.2165 30.2087C10.1987 24.8785 10.182 19.5483 10.1661 14.2181C9.45645 14.2045 8.74687 14.1962 8.03716 14.1888C7.83635 14.1849 7.63554 14.181 7.42864 14.1769C7.23427 14.1754 7.03991 14.1739 6.83965 14.1724C6.66127 14.1699 6.48289 14.1675 6.29911 14.1649C5.7086 14.2268 5.35134 14.3642 4.85357 14.6869ZM42.6661 40.7806C41.4645 42.9401 40.2652 45.1007 39.0723 47.265C38.2444 48.7669 37.4146 50.2677 36.5821 51.767C36.4854 51.9414 36.3887 52.1158 36.2891 52.2955C35.869 53.0524 35.4469 53.8078 35.0141 54.5575C34.9124 54.7344 34.9124 54.7344 34.8087 54.915C34.6866 55.1266 34.5635 55.3377 34.4392 55.548C34.3075 55.7766 34.1883 56.0124 34.0723 56.2494C34.2783 56.6613 34.551 56.7297 34.9567 56.9144C36.727 57.7229 37.6207 58.6944 38.534 60.4297C38.8621 61.3937 38.9377 62.4275 39.0723 63.4369C42.2692 63.4369 45.4661 63.4369 48.7598 63.4369C48.9145 62.2767 48.9145 62.2767 49.0723 61.0931C49.9091 59.061 50.969 57.7906 52.9786 56.8744C53.2381 56.7681 53.4983 56.6632 53.7598 56.5619C53.5368 55.9745 53.2718 55.4275 52.9755 54.8737C52.8813 54.6973 52.787 54.521 52.6899 54.3393C52.5876 54.1492 52.4853 53.959 52.3829 53.7689C52.3306 53.6716 52.2783 53.5742 52.2245 53.4739C51.4518 52.0353 50.6613 50.6078 49.8529 49.1889C49.1521 47.9578 48.4661 46.719 47.7833 45.4779C46.919 43.9075 46.0501 42.34 45.1661 40.7806C45.1145 40.7806 45.0629 40.7806 45.0098 40.7806C44.9788 41.4339 44.9562 42.0867 44.9412 42.7404C44.9349 42.9625 44.9264 43.1846 44.9155 43.4065C44.7983 44.6742 44.7983 44.6742 45.2802 45.7724C45.6071 45.9802 45.6071 45.9802 45.9519 46.1082C46.5758 46.3942 46.7712 47.0401 47.002 47.6556C47.1251 48.6407 47.0336 49.4354 46.5723 50.3119C45.9736 51.04 45.3744 51.5016 44.4208 51.6119C43.4122 51.65 42.5276 51.6028 41.7286 50.9369C40.9706 50.0122 40.7115 49.1617 40.7911 47.9681C41.0025 47.0926 41.3391 46.5219 42.0411 45.9369C42.1769 45.8746 42.3127 45.8123 42.4526 45.7481C42.8737 45.4947 42.8737 45.4947 42.911 44.9846C42.9069 44.7907 42.9028 44.5968 42.8986 44.397C42.897 44.2419 42.897 44.2419 42.8953 44.0837C42.8909 43.754 42.8811 43.4247 42.8711 43.0951C42.8672 42.8714 42.8637 42.6477 42.8605 42.424C42.8519 41.8761 42.8384 41.3284 42.8223 40.7806C42.7708 40.7806 42.7192 40.7806 42.6661 40.7806ZM43.0665 47.8314C42.781 48.2684 42.781 48.2684 42.8321 48.7787C42.944 49.2644 42.944 49.2644 43.4473 49.5306C43.9094 49.6218 43.9094 49.6218 44.3848 49.5306C44.7866 49.2074 44.7866 49.2074 45.0098 48.7494C44.9991 48.2971 44.9143 48.0608 44.668 47.6849C44.0652 47.29 43.5927 47.3726 43.0665 47.8314ZM51.4161 61.0931C50.9783 62.0074 50.9783 62.0074 50.918 62.8802C50.9277 63.0639 50.9374 63.2476 50.9473 63.4369C51.0718 63.4427 51.1963 63.4486 51.3245 63.4546C52.386 63.5204 53.1982 63.5971 54.043 64.2963C54.4437 64.8024 54.4139 65.3497 54.4343 65.968C54.4408 66.1568 54.4473 66.3457 54.4541 66.5402C54.4602 66.7375 54.4664 66.9348 54.4727 67.1381C54.4795 67.3372 54.4862 67.5363 54.4932 67.7414C54.5098 68.2336 54.5257 68.7259 54.5411 69.2181C55.9713 69.229 57.4016 69.2373 58.8318 69.2424C59.496 69.2449 60.1602 69.2482 60.8243 69.2535C61.4656 69.2586 62.1069 69.2614 62.7482 69.2626C62.9926 69.2635 63.2369 69.2652 63.4812 69.2677C63.8242 69.2711 64.167 69.2716 64.51 69.2713C64.8025 69.2729 64.8025 69.2729 65.1009 69.2745C65.8804 69.1922 66.3891 68.9375 66.9336 68.3783C68.1075 66.5523 67.3536 61.6634 67.3536 61.0931C62.0942 61.0931 56.8348 61.0931 51.4161 61.0931ZM35.4786 65.6244C35.4786 69.0791 35.4786 72.5338 35.4786 76.0931C41.0473 76.0931 46.6161 76.0931 52.3536 76.0931C52.3536 72.6385 52.3536 69.1838 52.3536 65.6244C46.7848 65.6244 41.2161 65.6244 35.4786 65.6244Z" fill="#242121"/>
<path d="M42.3041 24.1366C42.4324 24.136 42.5606 24.1355 42.6927 24.1348C42.9627 24.1344 43.2327 24.1356 43.5027 24.1382C43.9143 24.1415 44.3254 24.1382 44.737 24.1342C45.0002 24.1346 45.2635 24.1354 45.5268 24.1366C45.7099 24.1347 45.7099 24.1347 45.8968 24.1328C46.7112 24.1467 47.1733 24.3109 47.8217 24.8447C48.5543 25.797 48.2904 26.4846 48.2904 27.8134C52.9311 27.8134 57.5717 27.8134 62.3529 27.8134C62.585 27.1173 62.585 27.1173 62.8217 26.4072C63.3252 25.5762 64.0093 24.9767 64.9183 24.6298C66.1536 24.3308 67.4111 24.4068 68.5681 24.9393C69.372 25.4436 70.0817 26.2626 70.409 27.1622C70.6774 28.4804 70.6245 29.748 69.9378 30.9195C69.2254 31.8987 68.3846 32.4215 67.1967 32.6572C65.9234 32.8219 64.7714 32.5663 63.7415 31.7801C63.1041 31.1849 62.9607 30.8867 62.6654 30.0009C59.6748 30.0525 56.6842 30.104 53.6029 30.1572C54.2733 30.5697 54.9436 30.9822 55.6342 31.4072C56.1715 31.815 56.6861 32.2197 57.1967 32.6572C57.3268 32.7663 57.4569 32.8755 57.591 32.988C60.5569 35.5524 62.5588 39.0604 63.6029 42.8134C63.6029 42.9681 63.6029 43.1228 63.6029 43.2822C63.7518 43.2767 63.9006 43.2713 64.054 43.2657C64.25 43.2614 64.4459 43.2572 64.6479 43.2529C64.8418 43.2474 65.0358 43.242 65.2356 43.2364C66.0184 43.301 66.399 43.5639 66.9233 44.1318C67.5571 45.0599 67.3876 46.198 67.3905 47.2805C67.392 47.6251 67.3968 47.9696 67.4018 48.3142C67.4028 48.5357 67.4036 48.7571 67.4042 48.9786C67.4057 49.1783 67.4071 49.3781 67.4086 49.5839C67.3275 50.4185 67.1157 51.031 66.4936 51.622C65.815 52.0631 65.208 52.0593 64.4251 52.0639C64.3066 52.0648 64.1881 52.0657 64.066 52.0666C63.8153 52.0681 63.5646 52.0691 63.3138 52.0697C62.9321 52.0712 62.5506 52.0761 62.1689 52.081C61.9249 52.082 61.6808 52.0828 61.4368 52.0834C61.3235 52.0854 61.2102 52.0873 61.0934 52.0893C60.3522 52.0861 59.8439 51.9801 59.2279 51.5634C58.5685 50.8187 58.5101 50.2169 58.5199 49.2685C58.5193 49.1402 58.5187 49.012 58.5181 48.8799C58.5177 48.6099 58.5188 48.3399 58.5215 48.0699C58.5248 47.6583 58.5215 47.2472 58.5175 46.8356C58.5179 46.5724 58.5187 46.3091 58.5199 46.0458C58.5187 45.9237 58.5174 45.8016 58.5161 45.6758C58.5299 44.8624 58.6909 44.3961 59.2279 43.7509C59.9274 43.2846 60.4341 43.2646 61.2592 43.2822C59.7275 38.5974 56.9515 34.5276 52.4781 32.2305C51.1588 31.5787 49.8697 31.0121 48.4467 30.6259C48.4171 30.7275 48.3876 30.829 48.3571 30.9337C48.1428 31.6561 47.9691 32.1801 47.3529 32.6572C46.5529 33.0572 45.2887 32.8624 44.3981 32.8681C44.1035 32.8707 43.8089 32.875 43.5143 32.8809C43.0889 32.8895 42.6637 32.8929 42.2382 32.8952C42.1073 32.8987 41.9764 32.9023 41.8416 32.9059C41.2007 32.9036 40.7627 32.8619 40.2446 32.4647C39.8586 32.0384 39.7212 31.8371 39.6381 31.2802C39.6176 31.1567 39.597 31.0333 39.5758 30.9061C39.5583 30.7674 39.5583 30.7674 39.5404 30.6259C34.6054 32.0978 30.7198 34.8715 28.1891 39.4284C27.5189 40.6744 26.9972 41.9328 26.5717 43.2822C26.7586 43.2725 26.9455 43.2628 27.1381 43.2529C27.7907 43.2563 28.21 43.3764 28.7592 43.7509C29.3909 44.5145 29.4757 45.0631 29.4617 46.0116C29.4619 46.1364 29.4622 46.2612 29.4624 46.3897C29.4621 46.6524 29.4604 46.915 29.4571 47.1776C29.4526 47.5779 29.4539 47.9778 29.4559 48.378C29.4549 48.6341 29.4536 48.8903 29.452 49.1464C29.4524 49.2651 29.4529 49.3838 29.4533 49.506C29.4403 50.2467 29.3535 50.7832 28.9155 51.4072C28.1361 51.9818 27.52 52.125 26.5516 52.1097C26.3751 52.11 26.3751 52.11 26.1952 52.1104C25.9482 52.1101 25.7012 52.1083 25.4542 52.1051C25.078 52.1005 24.7021 52.1018 24.3259 52.1039C24.0847 52.1029 23.8435 52.1016 23.6023 52.0999C23.491 52.1004 23.3796 52.1008 23.2649 52.1013C22.5356 52.0876 22.0357 51.9455 21.4155 51.5634C20.6984 50.7882 20.6077 50.1717 20.597 49.1495C20.5957 49.0352 20.5944 48.9209 20.5931 48.8031C20.591 48.5611 20.5893 48.319 20.5881 48.077C20.5863 47.831 20.5831 47.5851 20.5785 47.3392C20.5305 44.7906 20.5305 44.7906 21.2592 43.7509C22.0972 43.0633 23.2004 43.241 24.228 43.2822C24.2491 43.1758 24.2702 43.0695 24.292 42.9599C24.6119 41.5195 25.1593 40.2329 25.7905 38.9072C25.8609 38.7575 25.9314 38.6079 26.0041 38.4537C27.8061 34.9083 30.8112 32.1096 34.228 30.1572C31.2889 30.1572 28.3498 30.1572 25.3217 30.1572C25.1155 30.5181 24.9092 30.879 24.6967 31.2509C23.9301 32.1537 22.972 32.5568 21.8146 32.7066C20.5438 32.7683 19.4164 32.4009 18.4662 31.5439C17.6092 30.5937 17.2418 29.4663 17.3035 28.1955C17.4559 27.0177 17.8676 26.1117 18.7592 25.3134C19.939 24.4732 21.0957 24.4191 22.5092 24.5322C23.5602 24.7686 24.203 25.3719 24.9109 26.1557C25.1655 26.5634 25.1655 26.5634 25.478 27.8134C30.1186 27.8134 34.7592 27.8134 39.5404 27.8134C39.5404 27.1431 39.5404 26.4728 39.5404 25.7822C39.973 24.4123 41.0018 24.1232 42.3041 24.1366ZM41.7279 26.4072C41.7279 27.8509 41.7279 29.2947 41.7279 30.7822C43.1717 30.7822 44.6154 30.7822 46.1029 30.7822C46.1029 29.3384 46.1029 27.8947 46.1029 26.4072C44.6592 26.4072 43.2154 26.4072 41.7279 26.4072ZM20.0092 27.1884C19.6006 27.8225 19.4309 28.3121 19.5405 29.0634C19.8949 29.7329 20.2287 30.1984 20.9467 30.4697C21.7239 30.5164 22.211 30.4288 22.8217 29.9325C23.3232 29.29 23.3768 28.7713 23.2905 27.9697C23.0374 27.4004 22.7579 27.0002 22.1967 26.7197C21.3723 26.6067 20.6569 26.6169 20.0092 27.1884ZM64.6967 27.5009C64.4206 28.053 64.4404 28.6184 64.5404 29.2197C64.8295 29.8165 65.1909 30.2095 65.8204 30.4373C66.4683 30.548 66.8113 30.5047 67.4115 30.2157C68.0951 29.5983 68.0951 29.5983 68.3106 28.7283C68.2734 28.0485 68.1922 27.7285 67.7533 27.1884C67.1446 26.7133 66.7554 26.6586 65.998 26.6635C65.3857 26.758 65.118 27.0585 64.6967 27.5009ZM22.8217 45.4697C22.8217 46.9134 22.8217 48.3572 22.8217 49.8447C24.2655 49.8447 25.7092 49.8447 27.1967 49.8447C27.1967 48.4009 27.1967 46.9572 27.1967 45.4697C25.753 45.4697 24.3092 45.4697 22.8217 45.4697ZM60.6342 45.4697C60.6263 47.1875 60.6263 47.1875 60.7123 48.8876C60.751 49.3614 60.751 49.3614 60.7904 49.8447C62.2342 49.8447 63.6779 49.8447 65.1654 49.8447C65.1687 49.4998 65.1719 49.155 65.1752 48.7997C65.177 48.6058 65.1788 48.4118 65.1807 48.212C65.1611 47.2963 65.0794 46.3828 65.0092 45.4697C63.5654 45.4697 62.1217 45.4697 60.6342 45.4697Z" fill="#242121"/>
<path d="M57.879 6.64107C58.6612 7.09881 59.0826 7.76879 59.3249 8.63143C59.5005 9.7012 59.2068 10.4839 58.631 11.3774C57.9479 12.0605 57.3632 12.2195 56.4142 12.2465C55.5229 12.219 54.9303 12.1104 54.281 11.461C53.5354 10.6312 53.3808 9.9969 53.3911 8.88473C53.5008 7.98242 53.9881 7.40951 54.6368 6.80709C55.5679 6.19453 56.8673 6.20364 57.879 6.64107ZM55.8185 8.77974C55.5899 9.06421 55.5899 9.06421 55.672 9.4731C55.7544 9.83345 55.7544 9.83345 55.9454 10.0004C56.3227 10.0787 56.3227 10.0787 56.7267 10.0004C57.0177 9.62411 57.0177 9.62411 57.1954 9.2192C57.0039 8.89423 57.0039 8.89423 56.7267 8.5942C56.1324 8.53711 56.1324 8.53711 55.8185 8.77974Z" fill="#242121"/>
<path d="M64.234 6.40606C65.145 6.70756 65.6926 7.34395 66.1481 8.16387C66.4243 9.17689 66.3555 10.0503 65.8398 10.9697C65.4186 11.561 64.9292 11.9556 64.234 12.1873C63.16 12.2987 62.2525 12.3079 61.3623 11.6472C60.6562 10.9751 60.3799 10.2263 60.3125 9.26068C60.3481 8.43244 60.6385 7.84315 61.1676 7.21661C62.1727 6.37903 62.9438 6.25206 64.234 6.40606ZM62.984 8.59356C62.7127 8.85526 62.7127 8.85526 62.5153 9.21856C62.6261 9.64575 62.6261 9.64575 62.8278 9.99981C63.2835 10.0259 63.2835 10.0259 63.7653 9.99981C63.8684 9.89669 63.9715 9.79356 64.0778 9.68731C64.0274 9.20305 64.0274 9.20305 63.9215 8.74981C63.4574 8.67247 63.4574 8.67247 62.984 8.59356Z" fill="#242121"/>
<path d="M71.6223 6.57284C72.2481 7.02401 72.7885 7.58689 73.1359 8.28182C73.2461 9.39266 73.2934 10.3974 72.5933 11.3147C71.8537 12.0846 71.2804 12.2282 70.2355 12.2662C69.2628 12.2328 68.7478 12.0412 68.0694 11.3293C67.3587 10.5265 67.3074 9.89521 67.3223 8.86288C67.3878 8.00363 67.7503 7.53873 68.3703 6.98299C69.29 6.21455 70.5105 6.21624 71.6223 6.57284ZM69.5422 8.90682C69.4901 9.29745 69.4901 9.29745 69.5422 9.68807C69.8276 10.0395 69.8276 10.0395 70.2453 10.0396C70.6629 10.0395 70.6629 10.0395 70.9484 9.68807C71.0005 9.29745 71.0005 9.29745 70.9484 8.90682C70.6629 8.55538 70.6629 8.55538 70.2453 8.55526C69.8276 8.55538 69.8276 8.55538 69.5422 8.90682Z" fill="#242121"/>
</svg>
