<svg width="16" height="16" viewBox="0 0 16 16" fill="none" xmlns="http://www.w3.org/2000/svg">
<mask id="path-1-inside-1_466_2745" fill="white">
<path d="M3.44668 1.06632C3.67124 1.19951 3.83143 1.35745 3.98227 1.56958C3.98227 1.60248 3.98227 1.63539 3.98227 1.66929C4.83784 1.66929 5.69341 1.66929 6.5749 1.66929C6.5749 1.53767 6.5749 1.40604 6.5749 1.27043C6.6526 1.14733 6.6526 1.14733 6.77433 1.07099C6.93648 1.04598 6.93648 1.04598 7.12665 1.04626C7.16032 1.04619 7.19399 1.04611 7.22868 1.04604C7.29963 1.04612 7.37057 1.0467 7.44151 1.04773C7.55009 1.04918 7.65854 1.04876 7.76711 1.04811C7.83616 1.04842 7.9052 1.04884 7.97424 1.04937C8.03694 1.04986 8.09964 1.05035 8.16424 1.05085C8.31994 1.07099 8.31994 1.07099 8.46951 1.22057C8.46951 1.36865 8.46951 1.51673 8.46951 1.66929C9.32508 1.66929 10.1806 1.66929 11.0621 1.66929C11.095 1.58703 11.128 1.50476 11.1619 1.42C11.2409 1.33372 11.2409 1.33372 11.3301 1.26108C11.3593 1.23672 11.3885 1.21236 11.4185 1.18726C11.6762 1.00194 11.8973 0.984533 12.2089 1.02113C12.5424 1.11392 12.7338 1.3277 12.9069 1.61943C13.016 1.94668 12.9684 2.21157 12.8206 2.51454C12.6739 2.75111 12.4699 2.87627 12.2089 2.96561C11.8476 3.02253 11.6018 2.96728 11.3052 2.75624C11.2117 2.66646 11.2117 2.66646 11.1531 2.53246C11.076 2.40936 11.076 2.40936 10.9664 2.39724C10.8448 2.39257 10.7257 2.39547 10.6041 2.40158C10.5619 2.40271 10.5198 2.40383 10.4764 2.40499C10.3725 2.40793 10.2686 2.4124 10.1647 2.41717C10.1961 2.44191 10.2274 2.46665 10.2597 2.49215C10.3948 2.59938 10.5292 2.7075 10.6633 2.81603C10.7167 2.85893 10.7167 2.85893 10.7712 2.9027C11.5153 3.52376 12.0668 4.5001 12.2089 5.45852C12.2498 5.45563 12.2906 5.45273 12.3327 5.44975C12.4133 5.44638 12.4133 5.44638 12.4956 5.44294C12.5488 5.44004 12.602 5.43715 12.6568 5.43417C12.8072 5.45852 12.8072 5.45852 12.9146 5.56394C13.0251 5.7367 13.0323 5.83596 13.0331 6.03968C13.0335 6.13464 13.0335 6.13464 13.0339 6.23152C13.0331 6.29726 13.0323 6.36301 13.0315 6.43075C13.0327 6.52938 13.0327 6.52938 13.0339 6.62999C13.0336 6.6933 13.0334 6.7566 13.0331 6.82183C13.0329 6.87951 13.0326 6.93719 13.0324 6.99662C13.0015 7.18487 12.939 7.26769 12.8072 7.40299C12.5937 7.50972 12.3115 7.46621 12.0746 7.46756C11.9698 7.46842 11.8652 7.47061 11.7604 7.47281C11.6935 7.47332 11.6266 7.47374 11.5597 7.47408C11.4687 7.47517 11.4687 7.47517 11.3757 7.47628C11.1747 7.44756 11.0949 7.40745 10.9624 7.25341C10.9382 7.11802 10.9296 7.01425 10.9328 6.87928C10.9328 6.8434 10.9328 6.80752 10.9328 6.77055C10.9331 6.6949 10.934 6.61926 10.9354 6.54363C10.9375 6.42783 10.9374 6.31218 10.9371 6.19636C10.9376 6.12277 10.9383 6.04919 10.9391 5.9756C10.9391 5.94101 10.9391 5.90642 10.9391 5.87078C10.9426 5.72948 10.9477 5.63017 11.0272 5.51092C11.1657 5.42534 11.303 5.44957 11.461 5.45852C11.3053 4.52428 10.6318 3.68568 9.88034 3.13657C9.45854 2.83912 9.02621 2.62207 8.51937 2.51688C8.51526 2.56316 8.51114 2.60943 8.50691 2.65711C8.46951 2.81603 8.46951 2.81603 8.38869 2.8994C8.23017 2.98788 8.11153 2.98577 7.93042 2.98722C7.89798 2.98749 7.86553 2.98775 7.8321 2.98802C7.76372 2.98834 7.69532 2.98827 7.62694 2.98785C7.52251 2.98742 7.41822 2.98886 7.31381 2.99044C7.24721 2.99052 7.1806 2.99049 7.11399 2.99034C7.02347 2.99048 7.02347 2.99048 6.93111 2.99062C6.745 2.96093 6.68515 2.9168 6.5749 2.76617C6.56243 2.60413 6.56243 2.60413 6.5749 2.46702C5.91099 2.71968 5.32035 2.99071 4.78 3.46419C4.72852 3.50854 4.72852 3.50854 4.676 3.55378C4.14671 4.04332 3.75384 4.76127 3.5834 5.45852C3.63791 5.45543 3.69241 5.45235 3.74856 5.44917C3.93241 5.45852 3.93241 5.45852 4.01723 5.51092C4.11483 5.65738 4.10531 5.80528 4.10536 5.9756C4.10593 6.02935 4.10593 6.02935 4.10651 6.08419C4.10705 6.15992 4.10719 6.23565 4.10696 6.31138C4.10692 6.42709 4.10899 6.54264 4.1112 6.65833C4.11146 6.73198 4.11159 6.80563 4.11159 6.87928C4.11282 6.93102 4.11282 6.93102 4.11407 6.9838C4.11156 7.15893 4.09303 7.24059 3.9776 7.37464C3.72313 7.51198 3.44932 7.48607 3.16723 7.48433C3.06013 7.48401 2.95331 7.48635 2.84624 7.48888C2.27705 7.49489 2.27705 7.49489 2.1159 7.3467C1.96057 7.07989 2.00435 6.72452 2.00975 6.42764C2.00921 6.36211 2.00866 6.29659 2.0081 6.22908C2.01177 5.74875 2.01177 5.74875 2.1292 5.56405C2.23723 5.45852 2.23723 5.45852 2.39849 5.43417C2.45634 5.43706 2.51418 5.43996 2.57378 5.44294C2.63213 5.44519 2.69049 5.44744 2.75062 5.44975C2.79509 5.45265 2.83957 5.45554 2.88539 5.45852C2.88745 5.3999 2.8895 5.34129 2.89162 5.2809C3.01496 4.21753 3.80993 3.32573 4.57706 2.64757C4.6893 2.55968 4.806 2.488 4.92958 2.41717C4.77588 2.40846 4.62225 2.40316 4.46839 2.39847C4.42488 2.39596 4.38137 2.39346 4.33654 2.39087C4.21189 2.38802 4.10383 2.38902 3.98227 2.41717C3.85714 2.5551 3.85714 2.5551 3.78284 2.71631C3.45694 2.9624 3.18606 3.00592 2.78567 2.96561C2.50443 2.871 2.33528 2.67616 2.18328 2.42924C2.08565 2.19076 2.11264 1.9215 2.13752 1.66929C2.25303 1.41516 2.45975 1.23212 2.68596 1.07099C2.9347 0.988077 3.19937 0.967052 3.44668 1.06632Z"/>
</mask>
<path d="M3.44668 1.06632C3.67124 1.19951 3.83143 1.35745 3.98227 1.56958C3.98227 1.60248 3.98227 1.63539 3.98227 1.66929C4.83784 1.66929 5.69341 1.66929 6.5749 1.66929C6.5749 1.53767 6.5749 1.40604 6.5749 1.27043C6.6526 1.14733 6.6526 1.14733 6.77433 1.07099C6.93648 1.04598 6.93648 1.04598 7.12665 1.04626C7.16032 1.04619 7.19399 1.04611 7.22868 1.04604C7.29963 1.04612 7.37057 1.0467 7.44151 1.04773C7.55009 1.04918 7.65854 1.04876 7.76711 1.04811C7.83616 1.04842 7.9052 1.04884 7.97424 1.04937C8.03694 1.04986 8.09964 1.05035 8.16424 1.05085C8.31994 1.07099 8.31994 1.07099 8.46951 1.22057C8.46951 1.36865 8.46951 1.51673 8.46951 1.66929C9.32508 1.66929 10.1806 1.66929 11.0621 1.66929C11.095 1.58703 11.128 1.50476 11.1619 1.42C11.2409 1.33372 11.2409 1.33372 11.3301 1.26108C11.3593 1.23672 11.3885 1.21236 11.4185 1.18726C11.6762 1.00194 11.8973 0.984533 12.2089 1.02113C12.5424 1.11392 12.7338 1.3277 12.9069 1.61943C13.016 1.94668 12.9684 2.21157 12.8206 2.51454C12.6739 2.75111 12.4699 2.87627 12.2089 2.96561C11.8476 3.02253 11.6018 2.96728 11.3052 2.75624C11.2117 2.66646 11.2117 2.66646 11.1531 2.53246C11.076 2.40936 11.076 2.40936 10.9664 2.39724C10.8448 2.39257 10.7257 2.39547 10.6041 2.40158C10.5619 2.40271 10.5198 2.40383 10.4764 2.40499C10.3725 2.40793 10.2686 2.4124 10.1647 2.41717C10.1961 2.44191 10.2274 2.46665 10.2597 2.49215C10.3948 2.59938 10.5292 2.7075 10.6633 2.81603C10.7167 2.85893 10.7167 2.85893 10.7712 2.9027C11.5153 3.52376 12.0668 4.5001 12.2089 5.45852C12.2498 5.45563 12.2906 5.45273 12.3327 5.44975C12.4133 5.44638 12.4133 5.44638 12.4956 5.44294C12.5488 5.44004 12.602 5.43715 12.6568 5.43417C12.8072 5.45852 12.8072 5.45852 12.9146 5.56394C13.0251 5.7367 13.0323 5.83596 13.0331 6.03968C13.0335 6.13464 13.0335 6.13464 13.0339 6.23152C13.0331 6.29726 13.0323 6.36301 13.0315 6.43075C13.0327 6.52938 13.0327 6.52938 13.0339 6.62999C13.0336 6.6933 13.0334 6.7566 13.0331 6.82183C13.0329 6.87951 13.0326 6.93719 13.0324 6.99662C13.0015 7.18487 12.939 7.26769 12.8072 7.40299C12.5937 7.50972 12.3115 7.46621 12.0746 7.46756C11.9698 7.46842 11.8652 7.47061 11.7604 7.47281C11.6935 7.47332 11.6266 7.47374 11.5597 7.47408C11.4687 7.47517 11.4687 7.47517 11.3757 7.47628C11.1747 7.44756 11.0949 7.40745 10.9624 7.25341C10.9382 7.11802 10.9296 7.01425 10.9328 6.87928C10.9328 6.8434 10.9328 6.80752 10.9328 6.77055C10.9331 6.6949 10.934 6.61926 10.9354 6.54363C10.9375 6.42783 10.9374 6.31218 10.9371 6.19636C10.9376 6.12277 10.9383 6.04919 10.9391 5.9756C10.9391 5.94101 10.9391 5.90642 10.9391 5.87078C10.9426 5.72948 10.9477 5.63017 11.0272 5.51092C11.1657 5.42534 11.303 5.44957 11.461 5.45852C11.3053 4.52428 10.6318 3.68568 9.88034 3.13657C9.45854 2.83912 9.02621 2.62207 8.51937 2.51688C8.51526 2.56316 8.51114 2.60943 8.50691 2.65711C8.46951 2.81603 8.46951 2.81603 8.38869 2.8994C8.23017 2.98788 8.11153 2.98577 7.93042 2.98722C7.89798 2.98749 7.86553 2.98775 7.8321 2.98802C7.76372 2.98834 7.69532 2.98827 7.62694 2.98785C7.52251 2.98742 7.41822 2.98886 7.31381 2.99044C7.24721 2.99052 7.1806 2.99049 7.11399 2.99034C7.02347 2.99048 7.02347 2.99048 6.93111 2.99062C6.745 2.96093 6.68515 2.9168 6.5749 2.76617C6.56243 2.60413 6.56243 2.60413 6.5749 2.46702C5.91099 2.71968 5.32035 2.99071 4.78 3.46419C4.72852 3.50854 4.72852 3.50854 4.676 3.55378C4.14671 4.04332 3.75384 4.76127 3.5834 5.45852C3.63791 5.45543 3.69241 5.45235 3.74856 5.44917C3.93241 5.45852 3.93241 5.45852 4.01723 5.51092C4.11483 5.65738 4.10531 5.80528 4.10536 5.9756C4.10593 6.02935 4.10593 6.02935 4.10651 6.08419C4.10705 6.15992 4.10719 6.23565 4.10696 6.31138C4.10692 6.42709 4.10899 6.54264 4.1112 6.65833C4.11146 6.73198 4.11159 6.80563 4.11159 6.87928C4.11282 6.93102 4.11282 6.93102 4.11407 6.9838C4.11156 7.15893 4.09303 7.24059 3.9776 7.37464C3.72313 7.51198 3.44932 7.48607 3.16723 7.48433C3.06013 7.48401 2.95331 7.48635 2.84624 7.48888C2.27705 7.49489 2.27705 7.49489 2.1159 7.3467C1.96057 7.07989 2.00435 6.72452 2.00975 6.42764C2.00921 6.36211 2.00866 6.29659 2.0081 6.22908C2.01177 5.74875 2.01177 5.74875 2.1292 5.56405C2.23723 5.45852 2.23723 5.45852 2.39849 5.43417C2.45634 5.43706 2.51418 5.43996 2.57378 5.44294C2.63213 5.44519 2.69049 5.44744 2.75062 5.44975C2.79509 5.45265 2.83957 5.45554 2.88539 5.45852C2.88745 5.3999 2.8895 5.34129 2.89162 5.2809C3.01496 4.21753 3.80993 3.32573 4.57706 2.64757C4.6893 2.55968 4.806 2.488 4.92958 2.41717C4.77588 2.40846 4.62225 2.40316 4.46839 2.39847C4.42488 2.39596 4.38137 2.39346 4.33654 2.39087C4.21189 2.38802 4.10383 2.38902 3.98227 2.41717C3.85714 2.5551 3.85714 2.5551 3.78284 2.71631C3.45694 2.9624 3.18606 3.00592 2.78567 2.96561C2.50443 2.871 2.33528 2.67616 2.18328 2.42924C2.08565 2.19076 2.11264 1.9215 2.13752 1.66929C2.25303 1.41516 2.45975 1.23212 2.68596 1.07099C2.9347 0.988077 3.19937 0.967052 3.44668 1.06632Z" stroke="black" mask="url(#path-1-inside-1_466_2745)"/>
<path d="M7.46706 3.96196L7.47312 4.25578C7.4824 4.70572 7.48949 5.15577 7.49383 5.60604L7.46706 3.96196ZM7.46706 3.96196H7.17318M7.46706 3.96196H7.17318M7.17318 3.96196C7.1638 3.96196 7.15387 3.96187 7.14343 3.96177C7.02209 3.96065 6.83353 3.95891 6.67709 4.0936C6.60345 4.157 6.55103 4.23722 6.50849 4.31067C6.46579 4.3844 6.4178 4.4792 6.36136 4.59067L6.35751 4.59828L6.35749 4.59827L6.35599 4.60132L6.30315 4.70869C6.24241 4.82956 6.18161 4.95088 6.12123 5.07263L6.12118 5.07272C6.0782 5.15946 6.03508 5.24613 5.99183 5.33275C5.90094 5.51446 5.81008 5.6964 5.71953 5.8786L5.71947 5.87873C5.60244 6.11449 5.48539 6.34995 5.36784 6.58506L7.17318 3.96196ZM7.21536 7.06879C7.23168 7.67231 7.23168 7.67231 7.08524 7.87191C7.02868 7.92023 7.00183 7.94318 6.97349 7.96412C6.94787 7.98305 6.92104 8.00034 6.86994 8.03326M7.21536 7.06879L5.63615 6.71926C5.54417 6.90316 5.45228 7.08711 5.36056 7.27115L5.22871 7.53586M7.21536 7.06879C7.2132 6.99214 7.21176 6.91547 7.21103 6.83879L7.21536 7.06879ZM6.86994 8.03326C6.75849 8.11227 6.72286 8.17394 6.6746 8.30048M6.86994 8.03326L7.03243 8.28545C7.03451 8.2841 7.03656 8.28278 7.03858 8.28148M6.86994 8.03326L7.04343 8.27801C7.04176 8.2792 7.04014 8.28035 7.03858 8.28148M6.6746 8.30048C6.64043 8.61912 6.62876 8.93085 6.82418 9.19793M6.6746 8.30048L6.95491 8.40738C6.96016 8.39362 6.96474 8.3821 6.96877 8.3724M6.6746 8.30048L6.97289 8.33247C6.97144 8.34598 6.97006 8.35929 6.96877 8.3724M6.82418 9.19793C7.02406 9.39781 7.19926 9.50355 7.4848 9.50954M6.82418 9.19793L7.06628 9.02078C7.06205 9.01499 7.05795 9.00915 7.05399 9.00326M6.82418 9.19793L7.03631 8.9858C7.0423 8.99179 7.04819 8.99761 7.05399 9.00326M7.4848 9.50954C7.73958 9.50541 7.95472 9.45741 8.14581 9.27622M7.4848 9.50954L7.49109 9.20961C7.48929 9.20957 7.48749 9.20953 7.48571 9.20948M7.4848 9.50954L7.47993 9.20958C7.48186 9.20955 7.48379 9.20952 7.48571 9.20948M8.14581 9.27622C8.37704 9.01063 8.38729 8.78654 8.38361 8.44752M8.14581 9.27622L7.93939 9.05852C7.93602 9.06172 7.93263 9.06486 7.92923 9.06794M8.14581 9.27622L7.91955 9.07923C7.92285 9.07544 7.92608 9.07167 7.92923 9.06794M8.38361 8.44752C8.36483 8.24785 8.30794 8.14617 8.17035 8.00133M8.38361 8.44752L8.08363 8.45078C8.08367 8.45523 8.08372 8.45963 8.08376 8.46399M8.38361 8.44752L8.08493 8.47561C8.08455 8.47163 8.08416 8.46776 8.08376 8.46399M8.17035 8.00133L8.01549 7.91555C7.93935 7.85558 7.90339 7.82725 7.88112 7.79061C7.86118 7.7578 7.85222 7.71833 7.83522 7.64353L7.83724 7.4543M8.17035 8.00133L7.95285 8.20796C7.96394 8.21963 7.97384 8.23038 7.9827 8.24034M8.17035 8.00133L8.02498 8.26376L7.9827 8.24034M7.83724 7.4543L7.83711 7.34959C7.83731 7.23569 7.83964 7.12193 7.84198 7.00806M7.83724 7.4543L7.53725 7.45111L7.53724 7.45289M7.83724 7.4543L7.53724 7.45468L7.53724 7.45289M7.84198 7.00806C7.84254 6.92898 7.84297 6.8499 7.84327 6.77082C7.84441 6.56292 7.84735 6.35509 7.85066 6.14722M7.84198 7.00806L7.54205 7.00188C7.54203 7.00256 7.54202 7.00324 7.54201 7.00391M7.84198 7.00806L7.54199 7.00594C7.542 7.00527 7.542 7.00459 7.54201 7.00391M7.85066 6.14722C7.85348 5.95151 7.85486 5.75578 7.85624 5.56005C7.85636 5.54356 7.85647 5.52706 7.85659 5.51056C7.85903 5.19461 7.86255 4.87868 7.86686 4.56276C7.86051 4.56215 7.85366 4.56154 7.84628 4.56093L7.8712 4.26196L8.17116 4.2665C8.17067 4.29936 8.17018 4.33222 8.1697 4.36508C8.18647 4.37918 8.20386 4.39535 8.22241 4.41393C8.34148 4.59365 8.43862 4.7784 8.534 4.97149L8.59574 5.09466C8.66269 5.22841 8.72921 5.36237 8.79572 5.49634L8.93535 5.77589C9.03272 5.97085 9.12989 6.16591 9.2269 6.36105C9.35137 6.61139 9.47618 6.86155 9.60112 7.11166L9.88892 7.68856L10.027 7.96539C10.0912 8.09412 10.1552 8.22291 10.2192 8.35173L10.2771 8.46758C10.4599 8.83627 10.5646 9.18121 10.4341 9.59027C10.3304 9.85097 10.1977 10.0977 10.065 10.3445L10.065 10.3447L9.99217 10.481C9.84383 10.7578 9.69321 11.0333 9.54043 11.3077C9.48854 11.4018 9.43749 11.4964 9.38705 11.5914L9.30813 11.7395L9.23726 11.874C9.16902 11.9875 9.12198 12.0586 9.01794 12.1396C8.95877 12.1483 8.92649 12.1531 8.89403 12.1558C8.85506 12.1591 8.81583 12.1593 8.72951 12.1597L8.55001 12.1616L8.35595 12.1612L8.15682 12.162C8.01771 12.1624 7.87861 12.1623 7.73951 12.1618C7.56138 12.1612 7.38331 12.1622 7.2052 12.1637C7.05137 12.1647 6.89754 12.1645 6.74371 12.1644C6.72749 12.1643 6.71127 12.1643 6.69505 12.1643L6.5013 12.166L6.32132 12.1646L6.16299 12.1646C5.99099 12.1331 5.93543 12.0745 5.82701 11.9401C5.76258 11.8303 5.7037 11.7225 5.64705 11.6088L5.59712 11.5111C5.54458 11.4081 5.49258 11.3049 5.44061 11.2016L5.28693 10.8993L5.18476 10.6981C5.04586 10.4247 4.90216 10.1541 4.75569 9.88466C4.63715 9.66515 4.5718 9.49423 4.56497 9.24467L4.55933 9.11204C4.61469 8.68588 4.83996 8.26681 5.05247 7.87147C5.11374 7.75749 5.17394 7.64549 5.22871 7.53586M7.85066 6.14722L7.5507 6.14245C7.55069 6.14249 7.55069 6.14253 7.55069 6.14257C7.55069 6.14268 7.55069 6.14279 7.55069 6.14289L7.85066 6.14722ZM5.22871 7.53586L4.96019 7.40208L4.96026 7.40195M5.22871 7.53586L4.96034 7.40179L5.09202 7.13741L5.09206 7.13733C5.18386 6.95315 5.2758 6.76908 5.36782 6.58509L4.96026 7.40195M4.96026 7.40195C4.90765 7.50725 4.84968 7.61509 4.7881 7.72967C4.78098 7.74291 4.77381 7.75624 4.7666 7.76967C4.69794 7.89751 4.6259 8.03273 4.55894 8.1711C4.42598 8.44587 4.30364 8.75153 4.26183 9.07339L4.2585 9.099L4.2596 9.1248L4.26515 9.25525C4.27409 9.56713 4.36071 9.78462 4.49173 10.0272L4.49213 10.028C4.63768 10.2957 4.78001 10.5638 4.91731 10.834L5.01956 11.0353L5.01957 11.0354L5.17263 11.3365C5.17271 11.3366 5.1728 11.3368 5.17288 11.337C5.22476 11.4401 5.27702 11.5438 5.32988 11.6474L5.32997 11.6476L5.37923 11.744C5.43901 11.8639 5.50099 11.9773 5.56824 12.0919L5.57952 12.1111L5.59352 12.1285C5.64488 12.1922 5.7092 12.2718 5.79543 12.3341C5.89119 12.4033 5.99407 12.4386 6.10898 12.4597L6.13574 12.4645L6.16294 12.4646L6.31896 12.4646L6.32127 12.4646L6.49894 12.466L6.49894 12.466L6.50393 12.466L6.69472 12.4643L6.69618 12.4643L6.74347 12.4644C6.89712 12.4645 7.05213 12.4647 7.2072 12.4637L7.20765 12.4637C7.38532 12.4622 7.56204 12.4612 7.73844 12.4618C7.87808 12.4623 8.01786 12.4624 8.15778 12.462L8.15801 12.462L8.35527 12.4612L8.35616 12.4612L8.54932 12.4616V12.4616L8.55321 12.4616L8.73106 12.4597C8.73132 12.4597 8.73158 12.4597 8.73184 12.4597C8.9008 12.4588 8.91546 12.4581 9.06199 12.4363L9.13993 12.4247L9.20212 12.3764C9.35066 12.2608 9.42065 12.1512 9.49434 12.0287L9.49871 12.0214L9.50267 12.0139L9.5729 11.8806L9.57354 11.8794L9.65183 11.7324L9.65198 11.7321C9.70172 11.6385 9.75195 11.5455 9.80288 11.453C9.9563 11.1775 10.1076 10.9008 10.2566 10.6227L10.2568 10.6223L10.3292 10.4867L10.3296 10.486L10.333 10.4797C10.4632 10.2374 10.6027 9.97792 10.7128 9.70119L10.7167 9.69143L10.7199 9.68143C10.8856 9.16202 10.7416 8.72909 10.5459 8.33429L10.5455 8.33357L10.4879 8.21822C10.4879 8.21817 10.4879 8.21812 10.4878 8.21807C10.4238 8.08925 10.3597 7.96037 10.2955 7.83151L10.2954 7.83145L10.1574 7.55473L9.8695 6.97761L9.86949 6.97759C9.74459 6.72757 9.61988 6.47759 9.49553 6.22749C9.39845 6.03222 9.3012 5.837 9.20374 5.64186L9.2037 5.64177L9.06443 5.36294C9.06437 5.36284 9.06432 5.36273 9.06427 5.36263C8.99784 5.22881 8.93116 5.09453 8.86401 4.96038L8.86393 4.96023L8.80297 4.83863C8.80285 4.83837 8.80272 4.83812 8.80259 4.83786C8.70552 4.64138 8.6019 4.44354 8.47249 4.24823L8.45593 4.22323L8.43474 4.20201C8.3612 4.12833 8.28152 4.0639 8.17775 4.02139C8.07945 3.98112 7.9814 3.97011 7.89611 3.963L7.57609 3.93633L7.57123 4.25742C7.56493 4.67418 7.55981 5.09112 7.5566 5.50825L7.5566 5.50843C7.55648 5.52485 7.55637 5.54126 7.55625 5.55766L4.96026 7.40195ZM7.54201 7.00391C7.53968 7.11673 7.53732 7.23257 7.5371 7.34904L7.53711 7.34997L7.53724 7.45289M7.54201 7.00391L7.51524 7.06034L7.51525 7.06068C7.51565 7.07547 7.51604 7.09 7.51643 7.10428C7.52354 7.36436 7.52836 7.54087 7.50747 7.6698C7.47956 7.84209 7.40521 7.94319 7.33568 8.03772C7.33282 8.04161 7.32996 8.0455 7.32712 8.04937L7.30655 8.07741L7.28012 8.09999C7.16528 8.19812 7.15289 8.20777 7.03858 8.28148M7.53724 7.45289L7.53524 7.64033L7.53487 7.67559L7.54268 7.70998C7.54385 7.71515 7.54507 7.72067 7.54636 7.72651C7.55964 7.78668 7.58021 7.87986 7.63467 7.96203C7.68527 8.03838 7.76 8.09668 7.81418 8.13895C7.81964 8.1432 7.82488 8.14729 7.82987 8.15123L7.84892 8.16623L7.87012 8.17797L7.9827 8.24034M7.9827 8.24034C8.02187 8.28434 8.04075 8.31277 8.05247 8.33654C8.06484 8.36164 8.07654 8.39637 8.08376 8.46399M8.08376 8.46399C8.08532 8.62846 8.08177 8.73159 8.0608 8.82061C8.04258 8.89792 8.00854 8.97409 7.92923 9.06794M7.92923 9.06794C7.81778 9.16888 7.69181 9.2055 7.48571 9.20948M7.48571 9.20948C7.38451 9.20675 7.31526 9.18744 7.25639 9.15805C7.19696 9.12837 7.13426 9.08153 7.05399 9.00326M7.05399 9.00326C6.94967 8.84817 6.94044 8.65852 6.96877 8.3724M6.96877 8.3724C6.9819 8.34077 6.98911 8.32854 6.99408 8.32146C6.99759 8.31646 7.00583 8.30519 7.03858 8.28148M7.51102 6.83662C7.50998 6.63406 7.50759 6.43125 7.5032 6.22811L7.5032 6.22807C7.49871 6.02118 7.49591 5.814 7.49384 5.60614L7.51102 6.83662Z" stroke="black" stroke-width="0.6"/>
<path d="M7.63965 14.9972L7.63876 15.2972C7.67574 15.2973 7.71441 15.298 7.75449 15.2988C8.05398 15.3047 8.43272 15.3122 8.78424 15.0612L8.79328 15.0547L8.80182 15.0476L8.88741 14.9764L8.97334 14.9067L8.99031 14.893L9.0051 14.8769C9.20762 14.657 9.30529 14.4288 9.33353 14.1364L9.3351 14.1202L9.33489 14.1038L9.33253 13.9133L9.33141 13.7264L9.33143 13.7264L9.33137 13.7229L9.32725 13.4874L9.31791 12.7341L9.31424 12.4378H9.01794H9.01198H9.00602H9.00006H8.9941H8.98815H8.98219H8.97624H8.97028H8.96433H8.95837H8.95242H8.94647H8.94052H8.93457H8.92862H8.92267H8.91672H8.91077H8.90483H8.89888H8.89293H8.88699H8.88104H8.8751H8.86916H8.86321H8.85727H8.85133H8.84539H8.83945H8.83351H8.82757H8.82163H8.8157H8.80976H8.80382H8.79789H8.79195H8.78602H8.78009H8.77415H8.76822H8.76229H8.75636H8.75043H8.7445H8.73857H8.73264H8.72671H8.72078H8.71486H8.70893H8.70301H8.69708H8.69116H8.68523H8.67931H8.67339H8.66747H8.66154H8.65562H8.6497H8.64378H8.63787H8.63195H8.62603H8.62011H8.6142H8.60828H8.60236H8.59645H8.59054H8.58462H8.57871H8.5728H8.56689H8.56097H8.55506H8.54915H8.54324H8.53734H8.53143H8.52552H8.51961H8.51371H8.5078H8.50189H8.49599H8.49009H8.48418H8.47828H8.47238H8.46647H8.46057H8.45467H8.44877H8.44287H8.43697H8.43107H8.42518H8.41928H8.41338H8.40748H8.40159H8.39569H8.3898H8.3839H8.37801H8.37212H8.36622H8.36033H8.35444H8.34855H8.34266H8.33677H8.33088H8.32499H8.3191H8.31321H8.30733H8.30144H8.29555H8.28967H8.28378H8.2779H8.27201H8.26613H8.26025H8.25436H8.24848H8.2426H8.23672H8.23084H8.22496H8.21908H8.2132H8.20732H8.20144H8.19557H8.18969H8.18381H8.17794H8.17206H8.16619H8.16031H8.15444H8.14856H8.14269H8.13682H8.13094H8.12507H8.1192H8.11333H8.10746H8.10159H8.09572H8.08985H8.08398H8.07812H8.07225H8.06638H8.06052H8.05465H8.04878H8.04292H8.03705H8.03119H8.02533H8.01946H8.0136H8.00774H8.00188H7.99602H7.99015H7.98429H7.97843H7.97257H7.96671H7.96086H7.955H7.94914H7.94328H7.93743H7.93157H7.92571H7.91986H7.914H7.90815H7.90229H7.89644H7.89059H7.88473H7.87888H7.87303H7.86718H7.86133H7.85547H7.84962H7.84377H7.83792H7.83208H7.82623H7.82038H7.81453H7.80868H7.80284H7.79699H7.79114H7.7853H7.77945H7.77361H7.76776H7.76192H7.75607H7.75023H7.74439H7.73854H7.7327H7.72686H7.72102H7.71518H7.70934H7.7035H7.69766H7.69182H7.68598H7.68014H7.6743H7.66846H7.66262H7.65679H7.65095H7.64511H7.63928H7.63344H7.6276H7.62177H7.61594H7.6101H7.60427H7.59843H7.5926H7.58677H7.58093H7.5751H7.56927H7.56344H7.55761H7.55178H7.54595H7.54012H7.53429H7.52846H7.52263H7.5168H7.51097H7.50514H7.49932H7.49349H7.48766H7.48184H7.47601H7.47018H7.46436H7.45853H7.45271H7.44688H7.44106H7.43523H7.42941H7.42359H7.41776H7.41194H7.40612H7.4003H7.39448H7.38865H7.38283H7.37701H7.37119H7.36537H7.35955H7.35373H7.34791H7.34209H7.33627H7.33046H7.32464H7.31882H7.313H7.30719H7.30137H7.29555H7.28974H7.28392H7.27811H7.27229H7.26647H7.26066H7.25485H7.24903H7.24322H7.2374H7.23159H7.22578H7.21996H7.21415H7.20834H7.20253H7.19672H7.1909H7.18509H7.17928H7.17347H7.16766H7.16185H7.15604H7.15023H7.14442H7.13861H7.1328H7.12699H7.12119H7.11538H7.10957H7.10376H7.09796H7.09215H7.08634H7.08054H7.07473H7.06892H7.06312H7.05731H7.05151H7.0457H7.0399H7.03409H7.02829H7.02248H7.01668H7.01087H7.00507H6.99927H6.99346H6.98766H6.98186H6.97606H6.97025H6.96445H6.95865H6.95285H6.94705H6.94125H6.93545H6.92964H6.92384H6.91804H6.91224H6.90644H6.90064H6.89485H6.88905H6.88325H6.87745H6.87165H6.86585H6.86005H6.85425H6.84846H6.84266H6.83686H6.83106H6.82527H6.81947H6.81367H6.80788H6.80208H6.79628H6.79049H6.78469H6.7789H6.7731H6.7673H6.76151H6.75571H6.74992H6.74413H6.73833H6.73254H6.72674H6.72095H6.71515H6.70936H6.70357H6.69777H6.69198H6.68619H6.68039H6.6746H6.66881H6.66302H6.65722H6.65143H6.64564H6.63985H6.63406H6.62826H6.62247H6.61668H6.61089H6.6051H6.59931H6.59352H6.58773H6.58194H6.57615H6.57036H6.56457H6.55877H6.55299H6.5472H6.54141H6.53562H6.52983H6.52404H6.51825H6.51246H6.50667H6.50088H6.49509H6.4893H6.48351H6.47773H6.47194H6.46615H6.46036H6.45457H6.44879H6.443H6.43721H6.43142H6.42563H6.41985H6.41406H6.40827H6.40249H6.3967H6.39091H6.38512H6.37934H6.37355H6.36776H6.36198H6.35619H6.3504H6.34462H6.33883H6.33305H6.32726H6.32147H6.31569H6.3099H6.30412H6.29833H6.29254H6.28676H6.28097H6.27519H6.2694H6.26362H6.25783H6.25204H6.24626H6.24047H6.23469H6.2289H6.22312H6.21733H6.21155H6.20576H6.19998H6.19419H6.18841H6.18262H6.17684H6.17105H6.16527H6.15949H6.1537H6.14792H6.14213H6.13635H6.13056H6.12478H6.11899H6.11321H6.10742H6.10164H6.09586H6.09007H6.08429H6.0785H6.07272H6.06693H6.06115H6.05536H6.04958H6.0438H6.03801H6.03223H6.02644H5.72766L5.72645 12.7366L5.72333 13.4995L5.72333 13.5L5.72196 13.7399H5.72195L5.72195 13.741L5.72158 13.9295C5.72158 13.9296 5.72158 13.9297 5.72157 13.9298C5.7215 13.9483 5.72122 13.9674 5.72093 13.9872C5.71803 14.1857 5.71422 14.4462 5.90491 14.7067L5.91176 14.7161L5.91931 14.7249L6.0065 14.8265C6.235 15.0984 6.49176 15.2587 6.87047 15.2983L6.88639 15.3L6.90241 15.3L7.09545 15.2995L7.09636 15.2995L7.30863 15.2994V15.2994L7.31158 15.2994C7.42217 15.2981 7.53086 15.297 7.63923 15.2972L7.63965 14.9972ZM7.63965 14.9972C7.52913 14.997 7.41867 14.9982 7.30815 14.9994L8.69697 14.7446L8.60992 14.817C8.34437 15.0066 8.07032 15.0028 7.7648 14.9984C7.72367 14.9979 7.68198 14.9973 7.63965 14.9972Z" stroke="black" stroke-width="0.6"/>
</svg>
