<svg width="512" height="512" viewBox="0 0 512 512" fill="none" xmlns="http://www.w3.org/2000/svg">
<path d="M504.996 365.503H383.008V286.458C383.008 284.605 382.272 282.828 380.962 281.517C379.651 280.207 377.874 279.471 376.021 279.471H74.782C72.929 279.471 71.1518 280.207 69.8415 281.517C68.5312 282.828 67.795 284.605 67.795 286.458V341.238H35.635C34.7175 341.238 33.8089 341.419 32.9612 341.77C32.1135 342.121 31.3433 342.636 30.6945 343.284C30.0457 343.933 29.531 344.703 29.1799 345.551C28.8288 346.399 28.648 347.307 28.648 348.225V458.776C28.648 459.694 28.8288 460.602 29.1799 461.45C29.531 462.298 30.0457 463.068 30.6945 463.717C31.3433 464.365 32.1135 464.88 32.9612 465.231C33.8089 465.582 34.7175 465.763 35.635 465.763H124.527L118.37 471.92C117.721 472.569 117.206 473.339 116.855 474.187C116.504 475.034 116.323 475.943 116.323 476.861C116.323 477.778 116.504 478.687 116.855 479.534C117.206 480.382 117.721 481.152 118.37 481.801C119.734 483.166 121.523 483.848 123.311 483.848C125.099 483.848 126.888 483.166 128.252 481.801L146.337 463.716C146.986 463.067 147.501 462.297 147.852 461.449C148.203 460.602 148.384 459.693 148.384 458.776C148.384 457.858 148.203 456.949 147.852 456.102C147.501 455.254 146.986 454.484 146.337 453.835L128.252 435.75C127.603 435.101 126.833 434.586 125.985 434.235C125.137 433.883 124.229 433.703 123.311 433.703C122.393 433.703 121.485 433.883 120.637 434.235C119.789 434.586 119.019 435.101 118.37 435.75C117.721 436.399 117.206 437.169 116.855 438.017C116.504 438.864 116.323 439.773 116.323 440.69C116.323 441.608 116.504 442.517 116.855 443.364C117.206 444.212 117.721 444.982 118.37 445.631L124.527 451.788H42.623V355.212H67.795V410.02C67.795 411.873 68.5312 413.65 69.8415 414.961C71.1518 416.271 72.929 417.007 74.782 417.007H196.771V496.051C196.771 496.969 196.952 497.877 197.303 498.725C197.654 499.573 198.169 500.343 198.817 500.992C199.466 501.64 200.237 502.155 201.084 502.506C201.932 502.857 202.84 503.038 203.758 503.038H504.995C505.913 503.038 506.821 502.857 507.669 502.506C508.517 502.155 509.287 501.64 509.936 500.992C510.584 500.343 511.099 499.573 511.45 498.725C511.801 497.877 511.982 496.969 511.982 496.051V372.49C511.982 371.572 511.802 370.664 511.451 369.816C511.1 368.968 510.585 368.198 509.937 367.549C509.288 366.9 508.518 366.386 507.67 366.035C506.822 365.684 505.914 365.503 504.996 365.503ZM81.769 403.033V293.445H369.033V365.503H203.758C201.905 365.503 200.128 366.239 198.817 367.549C197.507 368.86 196.771 370.637 196.771 372.49V403.033H81.769ZM498.008 489.064H210.746V379.478H498.009V489.064H498.008ZM257.702 119.824H423.416C424.334 119.824 425.242 120.005 426.09 120.356C426.938 120.707 427.708 121.222 428.357 121.87C429.005 122.519 429.52 123.289 429.871 124.137C430.222 124.985 430.403 125.893 430.403 126.811C430.403 127.729 430.222 128.637 429.871 129.485C429.52 130.333 429.005 131.103 428.357 131.752C427.708 132.4 426.938 132.915 426.09 133.266C425.242 133.617 424.334 133.798 423.416 133.798H257.702C255.849 133.798 254.072 133.062 252.761 131.752C251.451 130.441 250.715 128.664 250.715 126.811C250.715 124.958 251.451 123.181 252.761 121.87C254.072 120.56 255.849 119.824 257.702 119.824ZM430.403 154.138C430.403 155.991 429.667 157.768 428.357 159.079C427.046 160.389 425.269 161.125 423.416 161.125H257.702C255.849 161.125 254.072 160.389 252.761 159.079C251.451 157.768 250.715 155.991 250.715 154.138C250.715 152.285 251.451 150.508 252.761 149.197C254.072 147.887 255.849 147.151 257.702 147.151H423.416C424.334 147.151 425.242 147.331 426.09 147.682C426.938 148.033 427.708 148.548 428.357 149.197C429.006 149.846 429.521 150.616 429.872 151.464C430.223 152.312 430.403 153.22 430.403 154.138ZM135.571 318.036C135.571 316.183 136.307 314.406 137.617 313.095C138.928 311.785 140.705 311.049 142.558 311.049H308.272C309.19 311.049 310.098 311.23 310.946 311.581C311.794 311.932 312.564 312.447 313.213 313.095C313.861 313.744 314.376 314.514 314.727 315.362C315.078 316.21 315.259 317.118 315.259 318.036C315.259 318.954 315.078 319.862 314.727 320.71C314.376 321.558 313.861 322.328 313.213 322.977C312.564 323.625 311.794 324.14 310.946 324.491C310.098 324.842 309.19 325.023 308.272 325.023H142.558C141.64 325.023 140.732 324.843 139.884 324.491C139.036 324.14 138.266 323.626 137.617 322.977C136.968 322.328 136.454 321.558 136.103 320.71C135.752 319.862 135.571 318.954 135.571 318.036ZM308.272 352.321H142.558C140.705 352.321 138.928 351.585 137.617 350.275C136.307 348.964 135.571 347.187 135.571 345.334C135.571 343.481 136.307 341.704 137.617 340.393C138.928 339.083 140.705 338.347 142.558 338.347H308.272C310.125 338.347 311.902 339.083 313.213 340.393C314.523 341.704 315.259 343.481 315.259 345.334C315.259 347.187 314.523 348.964 313.213 350.275C311.902 351.585 310.125 352.321 308.272 352.321ZM271.535 413.606H437.248C439.101 413.606 440.878 414.342 442.189 415.652C443.499 416.963 444.235 418.74 444.235 420.593C444.235 422.446 443.499 424.223 442.189 425.534C440.878 426.844 439.101 427.58 437.248 427.58H271.535C269.682 427.58 267.905 426.844 266.594 425.534C265.284 424.223 264.548 422.446 264.548 420.593C264.548 418.74 265.284 416.963 266.594 415.652C267.905 414.342 269.682 413.606 271.535 413.606ZM444.235 447.92C444.235 448.838 444.054 449.746 443.703 450.594C443.352 451.442 442.837 452.212 442.189 452.861C441.54 453.509 440.77 454.024 439.922 454.375C439.074 454.726 438.166 454.907 437.248 454.907H271.535C269.682 454.907 267.905 454.171 266.594 452.861C265.284 451.55 264.548 449.773 264.548 447.92C264.548 446.067 265.284 444.29 266.594 442.979C267.905 441.669 269.682 440.933 271.535 440.933H437.248C439.101 440.933 440.878 441.669 442.189 442.979C443.499 444.29 444.235 446.067 444.235 447.92ZM34.82 229.836L59.848 215.388C70.0585 225.19 82.2917 232.638 95.688 237.207V265C95.688 266.853 96.4242 268.63 97.7345 269.941C99.0448 271.251 100.822 271.987 102.675 271.987H151.318C153.171 271.987 154.948 271.251 156.259 269.941C157.569 268.63 158.305 266.853 158.305 265V237.204C171.695 232.625 183.925 225.179 194.14 215.385L219.173 229.836C220.778 230.762 222.684 231.013 224.474 230.534C226.263 230.055 227.789 228.884 228.716 227.28L239.13 209.257H454.952V326.187H433.964L440.121 320.031C441.409 318.716 442.127 316.946 442.118 315.105C442.108 313.264 441.373 311.501 440.071 310.2C438.77 308.898 437.007 308.162 435.166 308.152C433.325 308.143 431.555 308.86 430.24 310.148L412.154 328.233C410.844 329.543 410.108 331.319 410.107 333.172C410.106 335.024 410.841 336.801 412.15 338.112L430.236 356.225C430.884 356.876 431.655 357.392 432.503 357.744C433.352 358.096 434.261 358.276 435.18 358.275C436.561 358.274 437.911 357.864 439.059 357.096C440.207 356.329 441.103 355.238 441.632 353.962C442.161 352.687 442.3 351.283 442.032 349.928C441.764 348.573 441.1 347.328 440.125 346.35L433.946 340.162H461.94C463.793 340.162 465.57 339.426 466.881 338.116C468.191 336.805 468.927 335.028 468.927 333.175V209.257H491.193C493.046 209.257 494.823 208.521 496.134 207.211C497.444 205.9 498.18 204.123 498.18 202.27V78.679C498.18 76.8259 497.444 75.0488 496.134 73.7384C494.823 72.4281 493.046 71.692 491.193 71.692H239.129L228.715 53.669C227.788 52.0652 226.262 50.8951 224.473 50.4159C222.683 49.9366 220.777 50.1873 219.172 51.113L187.468 69.415C178.733 62.4584 168.868 57.0535 158.304 53.436V15.948C158.304 14.0949 157.568 12.3178 156.258 11.0074C154.947 9.69713 153.17 8.961 151.317 8.961H102.674C100.821 8.961 99.0438 9.69713 97.7335 11.0074C96.4232 12.3178 95.687 14.0949 95.687 15.948V53.434C85.119 57.0452 75.2521 62.4499 66.519 69.411L34.82 51.112C33.2155 50.1861 31.3089 49.9352 29.5194 50.4145C27.7299 50.8938 26.204 52.064 25.277 53.668L0.955034 95.763C0.0282184 97.3674 -0.223487 99.2742 0.255264 101.064C0.734015 102.854 1.90403 104.381 3.50803 105.308L32.71 122.194C30.878 129.688 29.953 137.443 29.953 145.322C29.953 150.121 30.308 154.951 31.013 159.739L3.50803 175.642C1.90403 176.569 0.734015 178.096 0.255264 179.886C-0.223487 181.676 0.0282184 183.583 0.955034 185.187L25.276 227.281C26.2035 228.885 27.7297 230.055 29.5193 230.534C31.3088 231.013 33.2154 230.762 34.82 229.836ZM484.204 85.666V195.282H247.204L253.037 185.186C253.496 184.391 253.795 183.514 253.915 182.604C254.035 181.694 253.975 180.77 253.737 179.883C253.5 178.997 253.09 178.165 252.532 177.437C251.973 176.709 251.277 176.098 250.482 175.639L222.968 159.744C223.681 154.969 224.039 150.148 224.039 145.32C224.042 137.53 223.113 129.767 221.272 122.197L250.484 105.306C252.088 104.378 253.258 102.852 253.736 101.062C254.215 99.272 253.963 97.3653 253.036 95.761L247.203 85.664H484.204V85.666ZM16.55 184.243L42.222 169.398C43.4853 168.667 44.4881 167.56 45.0898 166.23C45.6915 164.901 45.8619 163.416 45.577 161.985C44.483 156.498 43.93 150.916 43.926 145.321C43.926 136.928 45.147 128.714 47.556 120.905C48.0223 119.393 47.9616 117.768 47.3839 116.295C46.8062 114.822 45.7458 113.589 44.376 112.797L16.55 96.706L33.883 66.708L63.778 83.965C65.0499 84.6988 66.5207 85.0134 67.9815 84.864C69.4423 84.7147 70.8189 84.109 71.916 83.133C81.3071 74.7988 92.4675 68.705 104.556 65.311C106.025 64.9007 107.32 64.0209 108.242 62.8059C109.164 61.5908 109.663 60.1074 109.663 58.582V22.936H144.331V58.582C144.331 60.1074 144.83 61.5909 145.752 62.806C146.674 64.0211 147.969 64.9009 149.438 65.311C161.423 68.66 172.713 74.825 182.085 83.14C183.182 84.1131 184.558 84.7164 186.017 84.8645C187.476 85.0126 188.945 84.6979 190.215 83.965L220.11 66.708L237.442 96.706L209.615 112.797C208.249 113.587 207.19 114.817 206.611 116.285C206.033 117.754 205.969 119.375 206.429 120.885C208.844 128.806 210.069 137.041 210.065 145.322C210.065 150.915 209.502 156.51 208.392 161.955C208.1 163.391 208.266 164.882 208.867 166.218C209.469 167.555 210.475 168.668 211.744 169.401L237.441 184.246L220.11 214.24L196.452 200.583C195.083 199.793 193.487 199.49 191.924 199.725C190.361 199.959 188.923 200.716 187.846 201.873C177.387 213.102 164.103 221.216 149.43 225.334C147.963 225.746 146.67 226.627 145.75 227.841C144.829 229.056 144.331 230.538 144.331 232.062V258.013H109.663V232.062C109.663 230.537 109.165 229.055 108.243 227.84C107.322 226.625 106.029 225.744 104.561 225.333C89.863 221.215 76.582 213.104 66.154 201.879C65.0773 200.72 63.6391 199.961 62.0747 199.725C60.5102 199.49 58.9122 199.792 57.542 200.583L33.883 214.24L16.55 184.243ZM88.19 193.581H165.802C174.647 193.581 182.55 189.017 186.935 181.382C191.419 173.605 191.416 164.702 186.932 156.962L143.536 81.876C140.15 76.008 134.314 72.615 127.478 72.57C120.789 72.57 114.776 75.997 111.396 81.734L67.146 156.767C62.633 164.42 62.575 173.585 66.978 181.259C71.365 188.976 79.295 193.581 88.19 193.581ZM79.185 163.866L123.436 88.831C124.33 87.314 125.689 86.545 127.432 86.545C129.206 86.557 130.553 87.336 131.432 88.86L131.434 88.864L174.836 163.961C176.779 167.315 176.776 171.023 174.823 174.411C172.899 177.762 169.695 179.606 165.802 179.606H88.19C84.272 179.606 81.053 177.74 79.114 174.33C77.174 170.949 77.2 167.232 79.185 163.866ZM120.009 138.575V115.303C120.009 113.45 120.745 111.673 122.055 110.362C123.366 109.052 125.143 108.316 126.996 108.316C128.849 108.316 130.626 109.052 131.937 110.362C133.247 111.673 133.983 113.45 133.983 115.303V138.575C133.983 140.428 133.247 142.205 131.937 143.516C130.626 144.826 128.849 145.562 126.996 145.562C125.143 145.562 123.366 144.826 122.055 143.516C120.745 142.205 120.009 140.428 120.009 138.575ZM120.009 164.002V163.718C120.009 161.865 120.745 160.088 122.055 158.777C123.366 157.467 125.143 156.731 126.996 156.731C128.849 156.731 130.626 157.467 131.937 158.777C133.247 160.088 133.983 161.865 133.983 163.718V164.002C133.983 165.855 133.247 167.632 131.937 168.943C130.626 170.253 128.849 170.989 126.996 170.989C125.143 170.989 123.366 170.253 122.055 168.943C120.745 167.632 120.009 165.855 120.009 164.002Z" fill="white"/>
</svg>
