<svg width="290" height="290" viewBox="0 0 290 290" fill="none" xmlns="http://www.w3.org/2000/svg">
<path d="M287.562 2.43718C291.947 10.2535 287.765 21.9702 286.202 30.3481C285.901 31.9947 285.6 33.6414 285.3 35.2883C284.487 39.7399 283.664 44.1895 282.839 48.6387C282.15 52.3585 281.466 56.0793 280.782 59.8C279.168 68.5768 277.547 77.3521 275.92 86.1264C274.243 95.1717 272.579 104.219 270.92 113.268C269.494 121.048 268.061 128.826 266.622 136.604C265.764 141.244 264.908 145.885 264.058 150.527C263.26 154.89 262.452 159.251 261.638 163.61C261.341 165.208 261.047 166.807 260.756 168.406C260.358 170.593 259.949 172.777 259.538 174.961C259.312 176.182 259.086 177.404 258.853 178.663C257.963 182.144 256.862 184.927 255 188C251.295 189.747 249.162 190.314 245.184 189.238C240.238 185.761 238.149 180.901 235.375 175.625C234.151 173.365 232.925 171.106 231.699 168.847C231.086 167.707 230.473 166.566 229.841 165.391C227.041 160.233 224.118 155.147 221.187 150.062C220.201 148.345 219.215 146.628 218.23 144.91C217.822 144.2 217.414 143.489 216.993 142.758C216.296 141.523 215.634 140.268 215 139C210.866 140.423 207.917 142.415 204.5 145.125C203.347 146.029 202.193 146.933 201.039 147.836C200.082 148.587 200.082 148.587 199.106 149.354C195.055 152.519 190.964 155.633 186.875 158.75C185.974 159.437 185.073 160.124 184.144 160.832C177.535 165.861 170.865 170.802 164.165 175.71C158.224 180.072 152.353 184.52 146.5 189C139.88 194.066 133.225 199.074 126.5 204C118.805 209.637 111.202 215.386 103.625 221.179C97.8046 225.629 91.9592 230.042 86.0902 234.426C80.5944 238.539 75.1405 242.706 69.6874 246.875C62.2469 252.56 54.7491 258.157 47.1933 263.688C40.0643 268.92 33.0353 274.279 26.0273 279.672C12.59 289.979 12.59 289.979 4.99992 289C2.49992 287.5 2.49992 287.5 0.999918 285C0.179503 278.676 1.34652 275.636 5.16398 270.609C5.76984 269.851 6.3757 269.093 6.99992 268.312C7.6264 267.496 8.25289 266.68 8.89836 265.84C10.2342 264.102 11.5782 262.372 12.9296 260.647C15.6511 257.167 18.3235 253.651 20.9965 250.134C22.3386 248.369 23.6833 246.606 25.0307 244.845C29.4633 239.049 33.8171 233.201 38.1249 227.312C43.2115 220.361 48.4399 213.539 53.7548 206.762C58.4935 200.699 63.0667 194.526 67.6093 188.316C72.0022 182.322 76.4823 176.4 80.9999 170.5C86.0665 163.88 91.0743 157.225 95.9999 150.5C101.585 142.874 107.289 135.347 113.035 127.842C118.049 121.281 122.955 114.647 127.83 107.981C132.557 101.543 137.434 95.2292 142.383 88.9599C148.158 82.5669 148.158 82.5669 151 74.9997C150.443 74.699 149.887 74.3983 149.314 74.0885C138.655 68.3215 128.028 62.5029 117.5 56.4997C116.635 56.0082 115.771 55.5168 114.88 55.0104C102.399 47.8614 102.399 47.8614 100.437 43.6247C99.9113 39.2651 100.447 37.5415 103 33.9997C106.567 32.2681 110.111 31.4761 113.996 30.7611C115.199 30.5369 116.403 30.3128 117.643 30.0818C118.969 29.8403 120.295 29.5989 121.621 29.3576C123.024 29.0982 124.428 28.8384 125.831 28.5782C129.641 27.8729 133.453 27.1742 137.264 26.4765C141.274 25.7414 145.283 25.0004 149.293 24.26C156.908 22.8546 164.525 21.4546 172.142 20.0565C180.723 18.4811 189.303 16.8995 197.883 15.3175C208.38 13.3822 218.878 11.4485 229.376 9.51814C230.489 9.31342 230.489 9.31342 231.624 9.10457C235.211 8.44522 238.798 7.78719 242.385 7.13197C248.486 6.01696 254.585 4.893 260.677 3.72447C262.186 3.43885 262.186 3.43885 263.725 3.14746C265.523 2.80654 267.32 2.45959 269.115 2.10453C282.486 -0.410621 282.486 -0.410621 287.562 2.43718Z" fill="white"/>
</svg>
