<svg width="512" height="512" viewBox="0 0 512 512" fill="none" xmlns="http://www.w3.org/2000/svg">
<path d="M98.6982 20.3599C99.3379 20.3576 99.9776 20.3553 100.637 20.353C102.79 20.3466 104.942 20.347 107.095 20.3474C108.651 20.3442 110.206 20.3407 111.762 20.3367C116.044 20.3271 120.325 20.3235 124.607 20.3209C129.222 20.3172 133.838 20.308 138.453 20.2996C149.602 20.2806 160.752 20.2709 171.901 20.2624C177.151 20.2582 182.401 20.253 187.651 20.248C205.101 20.2316 222.551 20.2177 240.002 20.2107C244.53 20.2089 249.059 20.207 253.588 20.2052C254.714 20.2047 255.839 20.2042 256.999 20.2037C275.235 20.1958 293.471 20.1714 311.707 20.1402C330.428 20.1084 349.148 20.0911 367.868 20.088C378.38 20.0859 388.892 20.0775 399.403 20.053C408.355 20.0321 417.307 20.0244 426.259 20.0337C430.825 20.0381 435.392 20.0363 439.958 20.0176C444.142 20.0007 448.325 20.0016 452.509 20.0166C454.019 20.0188 455.53 20.0147 457.04 20.0033C467.033 19.9325 474.758 20.9815 483.281 26.3761C492.094 35.678 491.889 46.1751 491.874 58.1931C491.876 59.4925 491.878 60.7918 491.881 62.0912C491.887 65.6521 491.887 69.2128 491.886 72.7737C491.885 76.6179 491.891 80.4621 491.895 84.3063C491.904 91.834 491.906 99.3618 491.907 106.89C491.907 113.009 491.909 119.129 491.912 125.249C491.921 142.607 491.925 159.965 491.925 177.323C491.925 178.726 491.925 178.726 491.925 180.157C491.924 181.094 491.924 182.03 491.924 182.995C491.924 198.173 491.933 213.351 491.947 228.528C491.961 244.119 491.968 259.71 491.967 275.301C491.967 284.052 491.969 292.802 491.98 301.552C491.989 309.003 491.991 316.453 491.984 323.903C491.981 327.702 491.981 331.501 491.989 335.3C491.997 338.783 491.996 342.265 491.987 345.747C491.985 347.594 491.992 349.442 492 351.289C491.958 361.628 491.402 371.15 483.951 379.012C477.19 384.021 471.939 385.87 463.539 385.835C462.896 385.833 462.253 385.832 461.59 385.83C459.546 385.825 457.501 385.813 455.457 385.801C454.067 385.796 452.677 385.792 451.286 385.788C447.887 385.777 444.488 385.761 441.088 385.741C441.098 386.855 441.109 387.969 441.119 389.118C441.155 393.291 441.177 397.465 441.195 401.639C441.205 403.438 441.218 405.238 441.235 407.037C441.259 409.638 441.27 412.238 441.279 414.839C441.294 416.026 441.294 416.026 441.309 417.237C441.311 426.5 440.228 434.392 433.565 441.309C424.394 449.945 414.18 449.581 402.271 449.461C400.689 449.455 399.107 449.451 397.525 449.448C393.389 449.438 389.252 449.409 385.116 449.377C380.884 449.348 376.652 449.335 372.42 449.32C364.137 449.289 355.853 449.24 347.57 449.179C347.59 450.324 347.611 451.468 347.632 452.648C347.702 456.896 347.747 461.145 347.784 465.395C347.804 467.233 347.83 469.072 347.864 470.91C347.911 473.554 347.933 476.197 347.951 478.841C347.981 480.073 347.981 480.073 348.011 481.329C348.012 482.099 348.012 482.868 348.012 483.661C348.021 484.335 348.03 485.01 348.039 485.705C347.35 488.53 345.918 489.637 343.673 491.472C341.257 491.955 341.257 491.955 338.497 491.96C336.924 491.976 336.924 491.976 335.319 491.993C333.6 491.981 333.6 491.981 331.847 491.969C330.031 491.979 330.031 491.979 328.178 491.989C324.861 492.003 321.545 492 318.228 491.988C314.756 491.978 311.284 491.987 307.812 491.993C301.981 492 296.15 491.991 290.32 491.973C283.58 491.952 276.84 491.959 270.1 491.98C264.312 491.997 258.524 492 252.737 491.99C249.28 491.984 245.824 491.983 242.368 491.996C238.515 492.009 234.662 491.99 230.809 491.969C229.663 491.977 228.517 491.985 227.337 491.993C226.288 491.982 225.239 491.971 224.158 491.96C223.248 491.958 222.337 491.957 221.398 491.955C218.035 491.282 216.996 490.455 215.086 487.627C214.561 484.691 214.632 481.814 214.705 478.841C214.711 477.993 214.716 477.145 214.722 476.271C214.744 473.568 214.793 470.866 214.842 468.163C214.862 466.328 214.88 464.493 214.895 462.658C214.938 458.165 215.006 453.672 215.086 449.179C214.207 449.183 213.328 449.186 212.423 449.19C191.014 449.275 169.606 449.339 148.197 449.378C137.844 449.398 127.491 449.425 117.137 449.469C108.111 449.508 99.0842 449.532 90.0575 449.541C85.2804 449.546 80.5037 449.558 75.7267 449.586C71.2243 449.612 66.7222 449.62 62.2197 449.614C60.5732 449.615 58.9266 449.623 57.2802 449.638C46.6629 449.728 36.4274 449.604 28.1101 442.211C19.8228 433.033 20.111 423.197 20.1258 411.475C20.124 410.176 20.1217 408.876 20.1191 407.577C20.1131 404.016 20.1133 400.455 20.1144 396.894C20.1146 393.05 20.1092 389.206 20.1046 385.362C20.0965 377.834 20.0938 370.306 20.0933 362.779C20.0928 356.659 20.0908 350.539 20.0877 344.419C20.0792 327.061 20.0747 309.703 20.0754 292.345C20.0754 291.41 20.0755 290.475 20.0755 289.511C20.0756 288.574 20.0756 287.638 20.0756 286.673C20.076 271.495 20.0667 256.318 20.053 241.14C20.039 225.549 20.0323 209.958 20.0331 194.367C20.0334 185.617 20.0308 176.866 20.0203 168.116C20.0114 160.665 20.0093 153.215 20.0159 145.765C20.0191 141.966 20.0191 138.167 20.0107 134.368C20.003 130.885 20.0044 127.403 20.0129 123.921C20.0151 122.074 20.0078 120.227 20 118.379C20.0427 107.767 20.8206 98.9143 28.0492 90.6557C33.9088 85.3288 39.9462 83.6748 47.8899 83.7396C48.5519 83.7423 49.2139 83.7451 49.896 83.7479C51.9901 83.7585 54.0838 83.7826 56.1778 83.8072C57.606 83.8169 59.0342 83.8256 60.4625 83.8335C63.9457 83.8546 67.4287 83.8877 70.9118 83.9273C70.8965 82.2046 70.8965 82.2046 70.8808 80.447C70.8454 76.1531 70.8231 71.8593 70.8047 67.5653C70.795 65.713 70.7817 63.8607 70.7648 62.0084C70.7409 59.3336 70.73 56.659 70.7215 53.984C70.7114 53.1667 70.7014 52.3493 70.691 51.5072C70.6893 42.2658 72.2025 34.1962 78.705 27.2172C85.2736 22.3409 90.53 20.3722 98.6982 20.3599ZM86.6808 39.6526C84.4357 43.5 84.4293 47.5743 84.4393 51.9277C84.4393 53.005 84.4394 54.0822 84.4395 55.1922C84.4445 56.3448 84.4495 57.4974 84.4547 58.6849C84.4561 59.8728 84.4575 61.0607 84.4589 62.2847C84.4634 65.4308 84.4722 68.5768 84.483 71.7229C84.493 74.9381 84.4973 78.1533 84.5023 81.3686C84.5122 87.6683 84.5313 93.9679 84.5498 100.268C98.373 100.268 112.196 100.268 126.438 100.268C126.604 92.2598 126.604 92.2598 126.728 84.2514C126.758 83.2487 126.788 82.2459 126.819 81.2127C126.839 80.1909 126.86 79.1691 126.881 78.1163C127.552 74.5335 128.651 72.9839 131.309 70.4707C135.51 68.7668 139.089 68.3024 143.611 68.2843C144.876 68.2752 146.141 68.266 147.444 68.2566C148.812 68.2568 150.181 68.2577 151.549 68.2592C152.966 68.2555 154.383 68.2513 155.8 68.2467C158.763 68.2396 161.726 68.2398 164.69 68.2449C168.474 68.2505 172.258 68.2342 176.042 68.2119C178.966 68.1977 181.89 68.1969 184.815 68.1999C186.209 68.1994 187.604 68.1944 188.998 68.1847C204.667 68.0889 204.667 68.0889 211.424 74.0958C212.499 75.1503 213.563 76.2153 214.618 77.2891C215.187 77.8542 215.757 78.4194 216.344 79.0016C218.146 80.7949 219.934 82.6013 221.722 84.4079C222.941 85.6215 224.16 86.8343 225.381 88.0462C226.543 89.2056 227.704 90.3658 228.865 91.5267C229.409 92.0705 229.952 92.6142 230.513 93.1745C232.766 95.4528 234.722 97.6105 236.517 100.268C238.36 100.699 238.36 100.699 240.515 100.622C241.357 100.628 242.199 100.634 243.066 100.64C244.462 100.627 244.462 100.627 245.886 100.614C246.87 100.617 247.854 100.619 248.869 100.622C252.188 100.627 255.507 100.611 258.826 100.595C261.197 100.594 263.568 100.595 265.938 100.596C271.054 100.597 276.169 100.589 281.284 100.572C288.68 100.549 296.075 100.541 303.471 100.538C315.469 100.532 327.467 100.512 339.466 100.485C351.123 100.459 362.78 100.438 374.437 100.426C375.155 100.425 375.873 100.424 376.613 100.424C380.216 100.42 383.819 100.416 387.422 100.413C417.325 100.383 447.229 100.332 477.132 100.268C477.245 92.7226 477.331 85.1778 477.384 77.6322C477.409 74.128 477.444 70.6244 477.499 67.1206C477.552 63.7364 477.581 60.3528 477.594 56.9683C477.607 55.0546 477.645 53.1412 477.684 51.2279C477.879 44.1854 477.879 44.1854 474.91 38.0348C470.51 34.436 467.801 33.7051 462.059 33.6982C461.108 33.6932 461.108 33.6932 460.137 33.688C458.003 33.679 455.868 33.6838 453.734 33.6885C452.192 33.6849 450.65 33.6805 449.107 33.6753C444.862 33.6635 440.618 33.6638 436.373 33.666C431.797 33.6664 427.222 33.6558 422.647 33.6467C413.68 33.6307 404.714 33.6254 395.747 33.6244C388.461 33.6235 381.174 33.6195 373.888 33.6134C353.24 33.5965 332.593 33.5876 311.945 33.5891C310.831 33.5891 309.718 33.5892 308.57 33.5893C306.898 33.5894 306.898 33.5894 305.192 33.5895C287.117 33.5903 269.042 33.5719 250.967 33.5448C232.418 33.5172 213.869 33.5039 195.321 33.5056C184.903 33.5062 174.485 33.5009 164.067 33.4802C155.198 33.4628 146.329 33.4585 137.46 33.4716C132.933 33.4779 128.406 33.478 123.88 33.4613C119.737 33.4463 115.595 33.4489 111.452 33.4657C109.952 33.4687 108.452 33.4651 106.953 33.4545C104.915 33.4409 102.879 33.451 100.842 33.4671C99.7097 33.4666 98.5777 33.4662 97.4113 33.4658C92.8354 34.1694 89.8093 36.3528 86.6808 39.6526ZM140.076 81.0438C140.062 81.6782 140.048 82.3127 140.033 82.9664C139.96 85.8704 139.866 88.7735 139.772 91.6769C139.75 92.675 139.728 93.673 139.705 94.7013C139.503 100.43 139.121 104.879 136.18 109.879C133.287 112.511 131.361 113.129 127.459 113.179C126.504 113.198 125.548 113.217 124.564 113.236C123.54 113.242 122.516 113.249 121.461 113.255C120.407 113.272 119.353 113.289 118.267 113.307C114.902 113.359 111.538 113.392 108.173 113.424C105.891 113.456 103.609 113.489 101.327 113.523C95.7349 113.605 90.1425 113.671 84.5498 113.724C84.5054 144.957 84.4709 176.189 84.4503 207.422C84.4479 211.11 84.4454 214.797 84.4428 218.485C84.4423 219.219 84.4418 219.953 84.4413 220.709C84.4328 232.595 84.4174 244.481 84.3995 256.367C84.3813 268.563 84.3705 280.76 84.3665 292.956C84.3639 300.482 84.3554 308.007 84.3396 315.533C84.3281 321.304 84.3268 327.075 84.3295 332.846C84.3289 335.213 84.3251 337.58 84.3176 339.947C84.3079 343.178 84.3102 346.408 84.3156 349.638C84.3099 350.576 84.3042 351.514 84.2984 352.48C84.2717 360.853 84.2717 360.853 87.8985 368.192C92.0911 371.191 94.1211 372.405 99.2594 372.4C100.837 372.402 100.837 372.402 102.447 372.404C103.606 372.4 104.765 372.397 105.959 372.393C107.783 372.393 107.783 372.393 109.645 372.394C112.986 372.393 116.327 372.388 119.668 372.382C123.157 372.376 126.647 372.375 130.136 372.374C136.746 372.371 143.357 372.363 149.967 372.353C157.491 372.343 165.016 372.337 172.54 372.332C188.021 372.322 203.502 372.305 218.982 372.284C216.995 370.323 215.745 369.774 213.198 368.74C209.989 367.179 209.249 366.53 207.232 363.393C204.879 354.108 209.394 347.465 213.868 339.544C214.536 338.341 215.202 337.137 215.868 335.934C217.861 332.34 219.879 328.761 221.905 325.186C222.464 324.198 223.024 323.211 223.6 322.193C226.167 317.678 228.753 313.175 231.349 308.677C234.86 302.589 238.31 296.468 241.753 290.343C242.361 289.263 242.968 288.183 243.594 287.07C246.091 282.629 248.587 278.186 251.079 273.742C254.742 267.207 258.417 260.679 262.108 254.16C263.724 251.297 265.323 248.426 266.921 245.554C267.866 243.882 268.813 242.211 269.76 240.541C270.174 239.786 270.588 239.031 271.015 238.253C272.788 235.163 273.871 233.278 277.024 231.466C280.387 230.785 282.881 231.117 286.199 231.95C289.464 234.672 291.347 237.67 293.372 241.356C293.987 242.467 294.602 243.579 295.236 244.724C295.897 245.933 296.558 247.142 297.219 248.351C297.912 249.608 298.607 250.864 299.302 252.12C300.733 254.706 302.16 257.293 303.587 259.881C306.704 265.529 309.877 271.147 313.049 276.766C314.258 278.911 315.466 281.056 316.675 283.201C317.272 284.26 317.868 285.318 318.483 286.409C320.304 289.64 322.124 292.871 323.943 296.102C324.547 297.175 325.151 298.248 325.773 299.353C326.986 301.507 328.198 303.661 329.41 305.815C332.542 311.382 335.681 316.945 338.833 322.501C341.907 327.921 344.959 333.352 347.992 338.794C348.933 340.478 349.878 342.16 350.831 343.838C356.842 354.453 356.842 354.453 356.459 359.368C354.055 366.615 354.055 366.615 350.298 368.623C348.111 369.595 345.919 370.492 343.673 371.323C343.673 371.64 343.673 371.957 343.673 372.284C359.83 372.374 375.987 372.442 392.144 372.483C399.646 372.503 407.148 372.53 414.65 372.574C421.189 372.612 427.729 372.637 434.269 372.646C437.731 372.651 441.192 372.663 444.654 372.691C448.521 372.722 452.388 372.722 456.255 372.721C457.972 372.741 457.972 372.741 459.724 372.762C465.824 372.732 469.641 372.594 474.209 368.439C476.708 365.632 477.497 363.935 477.491 360.204C477.497 359.322 477.503 358.44 477.509 357.532C477.5 356.567 477.492 355.602 477.483 354.608C477.486 353.58 477.488 352.553 477.491 351.494C477.496 348.039 477.479 344.584 477.464 341.129C477.463 338.657 477.463 336.185 477.465 333.712C477.466 328.384 477.457 323.056 477.441 317.728C477.417 310.024 477.409 302.321 477.406 294.617C477.399 282.118 477.38 269.62 477.352 257.121C477.325 244.98 477.305 232.838 477.292 220.696C477.292 219.948 477.291 219.2 477.29 218.429C477.286 214.675 477.282 210.92 477.279 207.166C477.249 176.019 477.197 144.872 477.132 113.724C475.25 113.722 475.25 113.722 473.329 113.72C443.547 113.686 413.765 113.632 383.982 113.553C380.317 113.544 376.652 113.534 372.986 113.525C371.892 113.522 371.892 113.522 370.775 113.519C358.958 113.489 347.142 113.473 335.325 113.462C323.2 113.45 311.076 113.423 298.952 113.383C291.47 113.359 283.988 113.346 276.506 113.348C270.77 113.348 265.034 113.328 259.298 113.3C256.944 113.292 254.59 113.29 252.236 113.296C249.026 113.302 245.816 113.285 242.606 113.262C241.672 113.269 240.737 113.277 239.775 113.284C230.314 113.164 225.784 108.193 219.409 101.781C217.443 99.733 215.546 97.6614 213.685 95.5217C213.177 94.9526 212.669 94.3835 212.145 93.7971C210.741 92.2107 209.372 90.5935 208.026 88.959C203.357 83.7306 200.189 80.4256 192.828 79.8435C190.369 79.8451 187.91 79.9035 185.454 80.0112C184.137 80.031 182.82 80.046 181.503 80.0566C178.072 80.0965 174.646 80.2 171.217 80.3178C167.704 80.4269 164.19 80.4744 160.676 80.5275C153.807 80.6402 146.942 80.8201 140.076 81.0438ZM37.7907 100.268C35.0016 103.72 34.5019 106.336 34.4951 110.693C34.4862 111.824 34.4774 112.955 34.4683 114.12C34.4735 115.359 34.4787 116.597 34.484 117.873C34.4793 119.206 34.4732 120.538 34.4661 121.87C34.4501 125.53 34.4524 129.19 34.4577 132.851C34.4603 136.798 34.4461 140.746 34.4342 144.694C34.4137 152.427 34.4093 160.161 34.411 167.895C34.4123 174.18 34.4086 180.465 34.4013 186.749C34.3993 188.559 34.3972 190.368 34.3952 192.178C34.3942 193.078 34.3932 193.979 34.3921 194.907C34.3737 211.943 34.3747 228.98 34.3814 246.016C34.3868 261.607 34.3665 277.198 34.3343 292.788C34.3014 308.792 34.2866 324.795 34.2911 340.799C34.2933 349.786 34.2882 358.773 34.264 367.759C34.2435 375.41 34.24 383.06 34.2584 390.71C34.2673 394.614 34.2684 398.517 34.2483 402.421C34.2301 405.995 34.2344 409.568 34.2566 413.141C34.2627 415.047 34.2447 416.953 34.2259 418.858C34.1502 425.655 34.1502 425.655 37.037 431.604C41.8956 435.553 45.4316 435.963 51.6674 435.954C52.3677 435.955 53.068 435.957 53.7896 435.959C56.1304 435.962 58.471 435.951 60.8119 435.941C62.4921 435.94 64.1724 435.941 65.8527 435.942C70.411 435.942 74.9693 435.931 79.5277 435.917C84.2926 435.905 89.0575 435.904 93.8225 435.902C102.844 435.896 111.866 435.88 120.888 435.861C131.159 435.84 141.431 435.829 151.702 435.819C172.83 435.799 193.958 435.765 215.086 435.723C215.107 434.581 215.107 434.581 215.129 433.416C215.201 429.959 215.296 426.503 215.39 423.047C215.423 421.251 215.423 421.251 215.457 419.418C215.491 418.263 215.526 417.107 215.561 415.917C215.6 414.324 215.6 414.324 215.639 412.698C216.214 408.698 217.802 406.153 220.641 403.294C223.771 401.597 226.934 401.295 230.429 400.94C231.108 400.861 231.787 400.782 232.487 400.701C234.154 400.51 235.822 400.333 237.491 400.159C237.551 399.029 237.612 397.899 237.674 396.734C237.708 396.099 237.742 395.463 237.777 394.808C237.373 391.499 235.928 388.772 234.569 385.741C233.845 385.739 233.121 385.738 232.375 385.736C214.73 385.701 197.086 385.644 179.442 385.564C170.909 385.526 162.376 385.495 153.843 385.48C146.403 385.468 138.963 385.442 131.523 385.4C127.586 385.378 123.65 385.363 119.713 385.364C116.001 385.365 112.29 385.347 108.578 385.317C107.222 385.309 105.865 385.307 104.509 385.312C95.0789 385.345 88.0333 384.031 79.8618 379.373C72.1738 371.137 71.7418 361.607 71.7318 350.983C71.727 349.898 71.7222 348.814 71.7172 347.697C71.7022 344.062 71.6941 340.427 71.6859 336.792C71.6771 334.187 71.6669 331.582 71.6567 328.977C71.6355 323.368 71.6178 317.758 71.6025 312.149C71.5804 304.039 71.553 295.929 71.5243 287.819C71.4779 274.66 71.4357 261.502 71.3962 248.343C71.3579 235.562 71.3175 222.781 71.2745 210C71.2718 209.212 71.2691 208.424 71.2664 207.612C71.2531 203.659 71.2397 199.705 71.2263 195.752C71.1154 162.963 71.0113 130.173 70.9118 97.384C66.4876 97.3 62.0637 97.2489 57.639 97.2038C56.387 97.1796 55.135 97.1554 53.8451 97.1306C52.6333 97.1213 51.4216 97.112 50.173 97.1024C49.0609 97.0873 47.9488 97.0722 46.803 97.0566C43.1214 97.4371 40.8941 98.2828 37.7907 100.268ZM273.535 260.786C266.043 274.07 258.566 287.362 251.129 300.675C245.968 309.914 240.794 319.147 235.604 328.37C235.001 329.443 234.398 330.516 233.777 331.621C231.158 336.277 228.526 340.924 225.828 345.536C225.194 346.625 225.194 346.625 224.547 347.735C223.786 349.037 223.019 350.335 222.244 351.629C221.423 353.035 220.68 354.486 219.957 355.944C221.241 358.478 222.941 358.899 225.47 360.035C236.507 365.008 242.079 370.984 247.773 381.659C249.819 387.59 250.29 393.949 251.129 400.159C271.06 400.159 290.991 400.159 311.526 400.159C312.491 393.022 312.491 393.022 313.475 385.741C318.692 373.24 325.299 365.425 337.828 359.789C339.447 359.135 341.069 358.489 342.699 357.866C341.309 354.253 339.657 350.888 337.809 347.481C337.222 346.396 336.634 345.311 336.029 344.194C335.391 343.024 334.753 341.854 334.115 340.685C333.789 340.086 333.463 339.487 333.127 338.87C328.309 330.02 323.382 321.239 318.341 312.51C313.972 304.937 309.695 297.317 305.438 289.682C300.05 280.021 294.633 270.379 289.121 260.786C288.8 260.786 288.478 260.786 288.147 260.786C287.954 264.805 287.813 268.82 287.719 272.842C287.68 274.208 287.627 275.574 287.559 276.939C286.828 284.738 286.828 284.738 289.833 291.494C291.871 292.772 291.871 292.772 294.021 293.559C297.91 295.319 299.128 299.292 300.567 303.078C301.335 309.138 300.764 314.027 297.888 319.419C294.156 323.898 290.42 326.738 284.475 327.416C278.186 327.65 272.672 327.36 267.69 323.263C262.964 317.575 261.349 312.343 261.845 305.001C263.163 299.615 265.261 296.104 269.638 292.505C270.485 292.122 271.331 291.739 272.204 291.344C274.829 289.785 274.829 289.785 275.062 286.647C275.036 285.454 275.011 284.262 274.984 283.032C274.974 282.078 274.974 282.078 274.964 281.105C274.936 279.077 274.875 277.051 274.813 275.024C274.789 273.648 274.767 272.272 274.747 270.896C274.693 267.525 274.609 264.156 274.509 260.786C274.187 260.786 273.866 260.786 273.535 260.786ZM276.031 304.16C274.251 306.848 274.251 306.848 274.57 309.987C275.268 312.975 275.268 312.975 278.405 314.613C281.286 315.174 281.286 315.174 284.25 314.613C286.755 312.625 286.755 312.625 288.147 309.807C288.08 307.024 287.551 305.571 286.016 303.259C282.258 300.829 279.312 301.337 276.031 304.16ZM328.087 385.741C325.358 391.365 325.358 391.365 324.982 396.734C325.042 397.864 325.102 398.994 325.165 400.159C325.941 400.194 326.717 400.23 327.516 400.267C334.134 400.673 339.198 401.144 344.465 405.445C346.963 408.559 346.777 411.925 346.904 415.729C346.945 416.891 346.986 418.052 347.028 419.249C347.066 420.463 347.104 421.676 347.144 422.927C347.186 424.152 347.228 425.376 347.271 426.638C347.375 429.666 347.474 432.694 347.57 435.723C356.487 435.789 365.404 435.841 374.321 435.872C378.462 435.887 382.603 435.907 386.743 435.94C390.742 435.971 394.74 435.989 398.738 435.996C400.261 436.001 401.784 436.012 403.308 436.027C405.446 436.048 407.584 436.051 409.722 436.05C411.545 436.06 411.545 436.06 413.406 436.069C418.266 435.563 421.437 433.996 424.832 430.556C432.151 419.323 427.45 389.249 427.45 385.741C394.66 385.741 361.87 385.741 328.087 385.741ZM228.724 413.615C228.724 434.867 228.724 456.119 228.724 478.015C263.443 478.015 298.161 478.015 333.932 478.015C333.932 456.763 333.932 435.511 333.932 413.615C299.213 413.615 264.495 413.615 228.724 413.615Z" fill="white"/>
<path d="M271.282 158.39C272.081 158.386 272.881 158.382 273.705 158.378C275.388 158.376 277.071 158.383 278.754 158.399C281.32 158.42 283.884 158.399 286.45 158.375C288.091 158.377 289.732 158.382 291.374 158.39C292.515 158.378 292.515 158.378 293.68 158.366C298.758 158.451 301.639 159.461 305.681 162.745C310.249 168.603 308.604 172.834 308.604 181.008C337.536 181.008 366.468 181.008 396.277 181.008C397.724 176.725 397.724 176.725 399.2 172.357C402.339 167.245 406.604 163.557 412.271 161.423C419.972 159.584 427.813 160.052 435.026 163.327C440.038 166.429 444.462 171.468 446.503 177.001C448.176 185.111 447.847 192.909 443.565 200.115C439.124 206.139 433.882 209.355 426.476 210.804C418.537 211.818 411.355 210.246 404.934 205.409C400.96 201.748 400.066 199.913 398.226 194.464C379.58 194.781 360.935 195.099 341.725 195.425C345.904 197.963 350.083 200.5 354.389 203.115C357.738 205.624 360.947 208.114 364.13 210.804C364.942 211.476 365.753 212.148 366.589 212.839C385.08 228.615 397.561 250.194 404.07 273.282C404.07 274.233 404.07 275.185 404.07 276.165C404.998 276.132 405.926 276.098 406.883 276.064C408.104 276.038 409.326 276.012 410.585 275.985C411.794 275.952 413.004 275.918 414.25 275.884C419.13 276.281 421.503 277.898 424.771 281.392C428.723 287.101 427.666 294.102 427.684 300.761C427.693 302.881 427.724 305.001 427.754 307.12C427.761 308.483 427.766 309.845 427.77 311.207C427.779 312.436 427.788 313.665 427.797 314.931C427.292 320.065 425.971 323.833 422.092 327.469C417.862 330.182 414.077 330.159 409.196 330.187C408.457 330.193 407.719 330.198 406.957 330.204C405.394 330.213 403.831 330.219 402.268 330.223C399.888 330.232 397.509 330.262 395.13 330.292C393.608 330.298 392.087 330.304 390.566 330.307C389.859 330.319 389.153 330.331 388.425 330.343C383.803 330.323 380.635 329.672 376.794 327.108C372.683 322.527 372.319 318.825 372.38 312.991C372.376 312.202 372.373 311.413 372.369 310.6C372.366 308.939 372.373 307.278 372.39 305.618C372.411 303.086 372.39 300.557 372.365 298.025C372.368 296.405 372.372 294.786 372.38 293.166C372.372 292.415 372.364 291.664 372.356 290.89C372.443 285.886 373.446 283.018 376.794 279.049C381.155 276.18 384.314 276.057 389.458 276.165C379.909 247.346 362.602 222.31 334.712 208.18C326.487 204.17 318.45 200.684 309.578 198.309C309.394 198.934 309.209 199.558 309.019 200.202C307.683 204.646 306.6 207.87 302.759 210.804C297.771 213.265 289.889 212.067 284.337 212.102C282.5 212.118 280.663 212.144 278.827 212.181C276.174 212.234 273.524 212.255 270.871 212.269C270.055 212.29 269.239 212.312 268.398 212.335C264.402 212.321 261.671 212.064 258.442 209.62C256.035 206.998 255.179 205.76 254.66 202.334C254.532 201.574 254.404 200.815 254.272 200.032C254.163 199.179 254.163 199.179 254.052 198.309C223.284 207.363 199.059 224.426 183.281 252.458C179.103 260.123 175.85 267.865 173.197 276.165C174.363 276.106 175.528 276.046 176.728 275.985C180.797 276.006 183.411 276.745 186.835 279.049C190.774 283.746 191.303 287.121 191.215 292.956C191.217 293.724 191.218 294.491 191.219 295.282C191.218 296.898 191.207 298.513 191.186 300.129C191.158 302.591 191.166 305.051 191.179 307.513C191.173 309.088 191.165 310.664 191.154 312.24C191.157 312.97 191.16 313.7 191.163 314.452C191.082 319.008 190.541 322.309 187.809 326.147C182.95 329.682 179.109 330.563 173.072 330.469C171.972 330.471 171.972 330.471 170.85 330.473C169.31 330.471 167.77 330.46 166.23 330.44C163.885 330.412 161.541 330.421 159.196 330.433C157.692 330.427 156.188 330.419 154.685 330.409C153.99 330.411 153.296 330.414 152.581 330.417C148.034 330.333 144.918 329.459 141.05 327.108C136.58 322.34 136.014 318.547 135.947 312.259C135.94 311.556 135.932 310.853 135.924 310.128C135.91 308.639 135.9 307.15 135.892 305.661C135.881 304.148 135.861 302.635 135.832 301.123C135.533 285.444 135.533 285.444 140.076 279.049C145.301 274.819 152.179 275.912 158.585 276.165C158.717 275.511 158.849 274.857 158.985 274.183C160.979 265.322 164.391 257.407 168.326 249.252C168.766 248.331 169.205 247.411 169.658 246.462C180.893 224.652 199.629 207.436 220.93 195.425C202.607 195.425 184.283 195.425 165.404 195.425C164.118 197.646 162.832 199.866 161.507 202.154C156.728 207.707 150.755 210.187 143.539 211.109C135.616 211.488 128.587 209.228 122.663 203.956C117.32 198.111 115.029 191.175 115.414 183.358C116.364 176.112 118.931 170.539 124.49 165.629C131.845 160.46 139.056 160.127 147.869 160.823C154.422 162.277 158.429 165.989 162.843 170.81C164.43 173.318 164.43 173.318 166.378 181.008C195.31 181.008 224.243 181.008 254.052 181.008C254.052 176.884 254.052 172.761 254.052 168.512C256.749 160.085 263.162 158.307 271.282 158.39ZM267.69 172.357C267.69 181.238 267.69 190.12 267.69 199.27C276.691 199.27 285.692 199.27 294.966 199.27C294.966 190.389 294.966 181.507 294.966 172.357C285.965 172.357 276.964 172.357 267.69 172.357ZM132.283 177.163C129.735 181.063 128.677 184.075 129.361 188.697C131.57 192.816 133.651 195.679 138.128 197.348C142.973 197.635 146.01 197.096 149.818 194.044C152.944 190.091 153.278 186.9 152.74 181.969C151.163 178.467 149.42 176.005 145.921 174.279C140.782 173.585 136.321 173.647 132.283 177.163ZM410.889 179.085C409.168 182.481 409.292 185.96 409.915 189.658C411.717 193.33 413.97 195.748 417.895 197.149C421.935 197.83 424.073 197.564 427.815 195.786C432.077 191.988 432.077 191.988 433.42 186.636C433.189 182.454 432.682 180.485 429.946 177.163C426.151 174.24 423.724 173.904 419.002 173.934C415.185 174.515 413.516 176.364 410.889 179.085ZM149.818 289.622C149.818 298.503 149.818 307.385 149.818 316.535C158.819 316.535 167.82 316.535 177.094 316.535C177.094 307.654 177.094 298.772 177.094 289.622C168.093 289.622 159.092 289.622 149.818 289.622ZM385.562 289.622C385.513 300.19 385.513 300.19 386.049 310.648C386.29 313.562 386.29 313.562 386.536 316.535C395.537 316.535 404.538 316.535 413.812 316.535C413.832 314.414 413.852 312.293 413.873 310.107C413.884 308.914 413.895 307.721 413.907 306.492C413.785 300.859 413.276 295.239 412.838 289.622C403.837 289.622 394.835 289.622 385.562 289.622Z" fill="white"/>
<path d="M368.392 50.7664C373.269 53.5823 375.896 57.7037 377.407 63.0103C378.501 69.5911 376.67 74.4062 373.081 79.9025C368.822 84.1046 365.177 85.0829 359.26 85.2491C353.703 85.0799 350.009 84.4114 345.96 80.4169C341.312 75.3124 340.348 71.4102 340.412 64.5685C341.096 59.0179 344.134 55.4935 348.179 51.7877C353.984 48.0195 362.085 48.0755 368.392 50.7664ZM355.546 63.9227C354.121 65.6726 354.121 65.6726 354.633 68.188C355.146 70.4047 355.146 70.4047 356.337 71.432C358.69 71.9132 358.69 71.9132 361.208 71.432C363.022 69.1169 363.022 69.1169 364.131 66.6261C362.936 64.627 362.936 64.627 361.208 62.7813C357.503 62.4301 357.503 62.4301 355.546 63.9227Z" fill="white"/>
<path d="M407.967 49.3243C413.647 51.179 417.061 55.0938 419.9 60.1377C421.623 66.3694 421.194 71.742 417.979 77.3978C415.352 81.0354 412.301 83.4628 407.967 84.8883C401.271 85.5735 395.614 85.63 390.063 81.5655C385.661 77.4313 383.939 72.8246 383.518 66.8848C383.74 61.7898 385.551 58.1647 388.849 54.3105C395.116 49.1581 399.923 48.3769 407.967 49.3243ZM400.174 62.781C398.482 64.3909 398.482 64.3909 397.252 66.6257C397.943 69.2536 397.943 69.2536 399.2 71.4317C402.041 71.592 402.041 71.592 405.045 71.4317C405.688 70.7973 406.331 70.1629 406.993 69.5093C406.679 66.5303 406.679 66.5303 406.019 63.7422C403.126 63.2664 403.126 63.2664 400.174 62.781Z" fill="white"/>
<path d="M454.057 50.3458C457.958 53.1212 461.328 56.5839 463.494 60.8588C464.18 67.6923 464.475 73.8732 460.111 79.5157C455.499 84.252 451.926 85.1352 445.411 85.3692C439.346 85.1635 436.136 83.9849 431.906 79.6058C427.475 74.667 427.155 70.7838 427.249 64.4333C427.657 59.1475 429.917 56.2877 433.782 52.869C439.516 48.1418 447.126 48.1522 454.057 50.3458ZM441.088 64.7036C440.764 67.1066 440.764 67.1066 441.088 69.5095C442.868 71.6714 442.868 71.6714 445.472 71.6722C448.076 71.6714 448.076 71.6714 449.856 69.5095C450.18 67.1066 450.18 67.1066 449.856 64.7036C448.076 62.5417 448.076 62.5417 445.472 62.5409C442.868 62.5417 442.868 62.5417 441.088 64.7036Z" fill="white"/>
</svg>
