<svg width="512" height="512" viewBox="0 0 512 512" fill="none" xmlns="http://www.w3.org/2000/svg">
<path d="M480 24H32C25.6348 24 19.5303 26.5286 15.0294 31.0294C10.5286 35.5303 8 41.6348 8 48V464C8 470.365 10.5286 476.47 15.0294 480.971C19.5303 485.471 25.6348 488 32 488H480C486.365 488 492.47 485.471 496.971 480.971C501.471 476.47 504 470.365 504 464V48C504 41.6348 501.471 35.5303 496.971 31.0294C492.47 26.5286 486.365 24 480 24ZM32 40H480C482.122 40 484.157 40.8429 485.657 42.3431C487.157 43.8434 488 45.8783 488 48V88H24V48C24 45.8783 24.8429 43.8434 26.3431 42.3431C27.8434 40.8429 29.8783 40 32 40ZM480 472H32C29.8783 472 27.8434 471.157 26.3431 469.657C24.8429 468.157 24 466.122 24 464V104H488V464C488 466.122 487.157 468.157 485.657 469.657C484.157 471.157 482.122 472 480 472Z" fill="white"/>
<path d="M40 56H56V72H40V56ZM72 56H88V72H72V56ZM104 56H120V72H104V56ZM208 263.848V264H208.208C221.977 274.384 238.754 280 256 280C273.246 280 290.023 274.384 303.792 264H304V263.848C317.432 253.774 327.355 239.728 332.361 223.701C337.367 207.675 337.204 190.479 331.895 174.55C326.585 158.621 316.398 144.766 302.777 134.949C289.156 125.131 272.791 119.848 256 119.848C239.209 119.848 222.844 125.131 209.223 134.949C195.602 144.766 185.415 158.621 180.105 174.55C174.796 190.479 174.633 207.675 179.639 223.701C184.645 239.728 194.568 253.774 208 263.848ZM224 255.344V248C224 239.513 227.371 231.374 233.373 225.373C239.374 219.371 247.513 216 256 216C264.487 216 272.626 219.371 278.627 225.373C284.629 231.374 288 239.513 288 248V255.344C278.288 261.013 267.245 264 256 264C244.755 264 233.712 261.013 224 255.344ZM240 184C240 180.835 240.938 177.742 242.696 175.111C244.455 172.48 246.953 170.429 249.877 169.218C252.801 168.007 256.018 167.69 259.121 168.307C262.225 168.925 265.076 170.449 267.314 172.686C269.551 174.924 271.075 177.775 271.693 180.879C272.31 183.982 271.993 187.199 270.782 190.123C269.571 193.047 267.52 195.545 264.889 197.304C262.258 199.062 259.165 200 256 200C251.757 200 247.687 198.314 244.686 195.314C241.686 192.313 240 188.243 240 184ZM256 136C268.35 135.981 280.44 139.541 290.809 146.25C301.178 152.958 309.38 162.528 314.424 173.801C319.468 185.074 321.136 197.567 319.228 209.769C317.32 221.97 311.917 233.357 303.672 242.552C302.794 234.942 300.109 227.652 295.843 221.29C291.576 214.928 285.851 209.677 279.144 205.976C283.471 201.444 286.373 195.741 287.489 189.576C288.604 183.41 287.885 177.052 285.421 171.291C282.956 165.53 278.854 160.619 273.624 157.168C268.394 153.717 262.266 151.877 256 151.877C249.734 151.877 243.606 153.717 238.376 157.168C233.146 160.619 229.044 165.53 226.579 171.291C224.115 177.052 223.396 183.41 224.511 189.576C225.627 195.741 228.529 201.444 232.856 205.976C226.149 209.677 220.424 214.928 216.157 221.29C211.891 227.652 209.206 234.942 208.328 242.552C200.083 233.357 194.68 221.97 192.772 209.769C190.864 197.567 192.532 185.074 197.576 173.801C202.62 162.528 210.822 152.958 221.191 146.25C231.559 139.541 243.65 135.981 256 136ZM152 296H72C69.8783 296 67.8434 296.843 66.3431 298.343C64.8429 299.843 64 301.878 64 304V352C64 354.122 64.8429 356.157 66.3431 357.657C67.8434 359.157 69.8783 360 72 360H152C154.122 360 156.157 359.157 157.657 357.657C159.157 356.157 160 354.122 160 352V304C160 301.878 159.157 299.843 157.657 298.343C156.157 296.843 154.122 296 152 296ZM144 344H80V312H144V344ZM152 376H72C69.8783 376 67.8434 376.843 66.3431 378.343C64.8429 379.843 64 381.878 64 384V448C64 450.122 64.8429 452.157 66.3431 453.657C67.8434 455.157 69.8783 456 72 456H152C154.122 456 156.157 455.157 157.657 453.657C159.157 452.157 160 450.122 160 448V384C160 381.878 159.157 379.843 157.657 378.343C156.157 376.843 154.122 376 152 376ZM144 440H80V392H144V440ZM440 296H184C181.878 296 179.843 296.843 178.343 298.343C176.843 299.843 176 301.878 176 304V352C176 354.122 176.843 356.157 178.343 357.657C179.843 359.157 181.878 360 184 360H440C442.122 360 444.157 359.157 445.657 357.657C447.157 356.157 448 354.122 448 352V304C448 301.878 447.157 299.843 445.657 298.343C444.157 296.843 442.122 296 440 296ZM432 344H192V312H432V344ZM440 376H184C181.878 376 179.843 376.843 178.343 378.343C176.843 379.843 176 381.878 176 384V448C176 450.122 176.843 452.157 178.343 453.657C179.843 455.157 181.878 456 184 456H440C442.122 456 444.157 455.157 445.657 453.657C447.157 452.157 448 450.122 448 448V384C448 381.878 447.157 379.843 445.657 378.343C444.157 376.843 442.122 376 440 376ZM432 440H192V392H432V440Z" fill="white"/>
<path d="M208 408H224V424H208V408ZM240 408H256V424H240V408ZM272 408H288V424H272V408ZM304 408H320V424H304V408ZM336 408H352V424H336V408ZM368 408H384V424H368V408ZM400 408H416V424H400V408Z" fill="white"/>
</svg>
