<svg width="70" height="70" viewBox="0 0 70 70" fill="none" xmlns="http://www.w3.org/2000/svg">
<circle cx="35" cy="35" r="35" fill="#FFE8AF"/>
<path d="M22.9853 20.0083C23.0962 20.0081 23.2071 20.0079 23.3181 20.0076C23.622 20.0069 23.926 20.0071 24.2299 20.0073C24.5581 20.0075 24.8862 20.0069 25.2143 20.0064C25.8569 20.0056 26.4994 20.0055 27.1419 20.0057C27.6642 20.0058 28.1865 20.0057 28.7088 20.0054C28.7832 20.0053 28.8575 20.0053 28.9341 20.0053C29.0852 20.0052 29.2362 20.0051 29.3873 20.005C30.8036 20.0043 32.22 20.0045 33.6363 20.0049C34.9318 20.0052 36.2272 20.0045 37.5227 20.0033C38.8532 20.002 40.1837 20.0015 41.5143 20.0017C42.2611 20.0019 43.008 20.0017 43.7548 20.0008C44.3906 20.0001 45.0264 20 45.6621 20.0007C45.9864 20.0011 46.3107 20.0012 46.635 20.0004C46.9321 19.9997 47.2292 19.9999 47.5262 20.0008C47.6335 20.001 47.7407 20.0008 47.848 20.0003C48.8816 19.9957 49.8672 20.175 50.6478 20.9151C51.2318 21.549 51.6663 22.3003 51.6677 23.1764C51.6678 23.2178 51.668 23.2592 51.6681 23.3018C51.6686 23.4411 51.6685 23.5803 51.6685 23.7195C51.6687 23.8201 51.669 23.9207 51.6692 24.0213C51.6699 24.2983 51.6701 24.5752 51.6703 24.8522C51.6705 25.1507 51.6711 25.4492 51.6717 25.7477C51.673 26.4689 51.6736 27.1902 51.6742 27.9114C51.6744 28.251 51.6748 28.5907 51.6751 28.9303C51.6762 30.0595 51.6771 31.1886 51.6776 32.3178C51.6777 32.6108 51.6778 32.9039 51.6779 33.1969C51.678 33.2698 51.678 33.3426 51.678 33.4177C51.6786 34.5973 51.6802 35.7769 51.6823 36.9566C51.6844 38.1678 51.6855 39.379 51.6857 40.5902C51.6859 41.2702 51.6864 41.9502 51.688 42.6302C51.6894 43.2094 51.6899 43.7885 51.6893 44.3677C51.689 44.6631 51.6891 44.9585 51.6904 45.2539C51.6915 45.5246 51.6914 45.7954 51.6905 46.0662C51.6903 46.1638 51.6906 46.2614 51.6913 46.359C51.6987 47.3699 51.4311 48.2239 50.7421 48.9821C49.8721 49.8373 48.87 49.9946 47.7064 49.9917C47.5955 49.9919 47.4846 49.9921 47.3737 49.9924C47.0697 49.9931 46.7658 49.9929 46.4618 49.9927C46.1337 49.9925 45.8055 49.9931 45.4774 49.9936C44.8349 49.9944 44.1923 49.9945 43.5498 49.9943C43.0275 49.9942 42.5052 49.9943 41.9829 49.9946C41.9086 49.9947 41.8342 49.9947 41.7576 49.9947C41.6066 49.9948 41.4555 49.9949 41.3045 49.995C39.8881 49.9957 38.4718 49.9955 37.0554 49.9951C35.7599 49.9948 34.4645 49.9955 33.169 49.9967C31.8385 49.998 30.508 49.9985 29.1775 49.9982C28.4306 49.9981 27.6838 49.9983 26.9369 49.9992C26.3011 49.9999 25.6654 50 25.0296 49.9993C24.7053 49.9989 24.381 49.9988 24.0567 49.9996C23.7596 50.0003 23.4626 50.0001 23.1655 49.9992C23.0582 49.999 22.951 49.9992 22.8437 49.9997C21.8101 50.0043 20.8246 49.825 20.044 49.0849C19.46 48.451 19.0254 47.6997 19.024 46.8236C19.0239 46.7822 19.0237 46.7408 19.0236 46.6982C19.0232 46.5589 19.0232 46.4197 19.0232 46.2805C19.023 46.1799 19.0228 46.0793 19.0225 45.9787C19.0219 45.7017 19.0216 45.4248 19.0215 45.1478C19.0212 44.8493 19.0206 44.5508 19.02 44.2523C19.0188 43.5311 19.0181 42.8098 19.0176 42.0886C19.0173 41.749 19.0169 41.4093 19.0166 41.0697C19.0155 39.9405 19.0146 38.8114 19.0141 37.6822C19.014 37.3892 19.0139 37.0961 19.0138 36.8031C19.0137 36.7302 19.0137 36.6574 19.0137 36.5823C19.0132 35.4027 19.0115 34.2231 19.0095 33.0434C19.0074 31.8322 19.0062 30.621 19.006 29.4098C19.0059 28.7298 19.0053 28.0498 19.0037 27.3698C19.0023 26.7906 19.0018 26.2115 19.0024 25.6323C19.0027 25.3369 19.0026 25.0415 19.0013 24.7461C19.0002 24.4754 19.0003 24.2046 19.0013 23.9338C19.0014 23.8362 19.0012 23.7386 19.0004 23.641C18.993 22.6301 19.2606 21.7761 19.9496 21.0179C20.8196 20.1627 21.8218 20.0054 22.9853 20.0083ZM21.008 22.0004C20.1141 23.0496 20.4345 23.8707 20.4345 25.4414C30.276 25.4414 40.1175 25.4414 50.2572 25.4414C50.4105 23.6025 50.4105 23.6025 49.7529 22.0691C49.2663 21.5843 48.6752 21.4111 48.002 21.4106C47.9573 21.4104 47.9125 21.4102 47.8665 21.41C47.7174 21.4095 47.5683 21.4099 47.4192 21.4102C47.3109 21.41 47.2027 21.4098 47.0944 21.4095C46.7974 21.4088 46.5005 21.409 46.2035 21.4092C45.883 21.4094 45.5625 21.4088 45.242 21.4084C44.6144 21.4075 43.9867 21.4074 43.3591 21.4076C42.8489 21.4077 42.3387 21.4076 41.8286 21.4073C41.756 21.4073 41.6833 21.4072 41.6085 21.4072C41.461 21.4071 41.3135 21.407 41.166 21.407C39.7827 21.4063 38.3993 21.4064 37.016 21.4068C35.7505 21.4071 34.4851 21.4064 33.2197 21.4052C31.9202 21.404 30.6207 21.4034 29.3212 21.4037C28.5917 21.4038 27.8622 21.4036 27.1327 21.4027C26.5117 21.402 25.8907 21.4019 25.2697 21.4027C24.9529 21.403 24.6361 21.4031 24.3193 21.4023C24.0291 21.4016 23.739 21.4018 23.4488 21.4027C23.344 21.4029 23.2392 21.4028 23.1344 21.4022C22.3434 21.3987 21.6261 21.4521 21.008 22.0004ZM20.4345 26.8434C20.4293 30.1541 20.424 33.4648 20.4186 36.8759C20.4163 37.9219 20.4139 38.968 20.4115 40.0457C20.4107 40.982 20.4107 40.982 20.4102 41.9182C20.4099 42.3358 20.409 42.7533 20.4076 43.1709C20.406 43.6525 20.4052 44.1341 20.4056 44.6158C20.4057 44.8621 20.4055 45.1085 20.4041 45.3548C20.4026 45.6188 20.4032 45.8827 20.4039 46.1466C20.4031 46.2233 20.4024 46.2999 20.4016 46.3789C20.4048 46.8281 20.4669 47.1614 20.6894 47.5536C20.7178 47.6044 20.7462 47.6553 20.7755 47.7077C21.1366 48.2094 21.6188 48.4556 22.2188 48.5732C22.3755 48.584 22.5327 48.5893 22.6897 48.5894C22.7345 48.5896 22.7792 48.5898 22.8253 48.59C22.9744 48.5905 23.1234 48.5901 23.2725 48.5898C23.3808 48.59 23.4891 48.5902 23.5973 48.5905C23.8943 48.5912 24.1912 48.591 24.4882 48.5908C24.8087 48.5906 25.1292 48.5912 25.4497 48.5916C26.0773 48.5925 26.705 48.5926 27.3326 48.5924C27.8428 48.5923 28.353 48.5924 28.8632 48.5927C28.9358 48.5927 29.0084 48.5928 29.0832 48.5928C29.2307 48.5929 29.3782 48.593 29.5257 48.593C30.9091 48.5937 32.2924 48.5936 33.6758 48.5932C34.9412 48.5929 36.2066 48.5936 37.472 48.5948C38.7715 48.596 40.071 48.5966 41.3705 48.5963C42.1 48.5962 42.8295 48.5964 43.559 48.5973C44.18 48.598 44.801 48.5981 45.4221 48.5973C45.7388 48.597 46.0556 48.5969 46.3724 48.5977C46.6626 48.5984 46.9528 48.5982 47.2429 48.5973C47.3477 48.5971 47.4525 48.5972 47.5573 48.5978C48.3483 48.6013 49.0657 48.5479 49.6837 47.9996C50.0393 47.5823 50.2733 47.1779 50.2729 46.6185C50.2732 46.5476 50.2734 46.4767 50.2737 46.4036C50.2733 46.3264 50.2729 46.2492 50.2725 46.1696C50.2727 46.0873 50.2728 46.0049 50.2729 45.92C50.2732 45.6914 50.2727 45.4628 50.272 45.2342C50.2715 44.9838 50.2716 44.7335 50.2717 44.4832C50.2718 43.9973 50.2712 43.5114 50.2704 43.0255C50.2695 42.4635 50.2694 41.9015 50.2693 41.3394C50.2686 39.8556 50.2668 38.3717 50.2652 36.8878C50.2626 33.5731 50.2599 30.2585 50.2572 26.8434C40.4157 26.8434 30.5742 26.8434 20.4345 26.8434Z" fill="black"/>
<path d="M30.3659 29.5094C32.3037 29.4544 34.2151 30.1438 35.6323 31.4679C37.0592 32.8504 38.032 34.578 38.1076 36.6031C38.1364 38.6309 37.5955 40.377 36.3019 41.946C36.2664 41.9905 36.2309 42.035 36.1944 42.0809C35.0111 43.5278 33.1366 44.3286 31.318 44.531C29.3777 44.717 27.4075 44.1437 25.8851 42.9175C24.3562 41.6545 23.3663 39.9743 23.1111 37.9951C23.0909 37.6869 23.0868 37.3799 23.0872 37.0711C23.0872 37.0292 23.0873 36.9873 23.0873 36.9442C23.09 36.2274 23.1547 35.5588 23.366 34.8727C23.3793 34.8289 23.3926 34.7851 23.4063 34.7401C23.7031 33.8005 24.1803 32.936 24.8316 32.1963C24.8753 32.1442 24.919 32.0921 24.9641 32.0384C26.2203 30.5789 28.0835 29.6743 30.001 29.5303C30.1226 29.5234 30.2442 29.5164 30.3659 29.5094ZM26.0304 32.9769C24.8578 34.3112 24.4223 35.9362 24.513 37.6765C24.6172 38.7338 25.0614 39.6467 25.5963 40.5441C25.7218 40.3878 25.8468 40.2312 25.9697 40.0729C26.6055 39.2597 27.2935 38.7251 28.209 38.25C28.1166 38.0498 28.0027 37.8843 27.8705 37.7084C27.2673 36.8596 27.1813 36.0103 27.2531 35.0001C27.4033 34.1877 27.8973 33.4109 28.5679 32.9301C29.4399 32.3718 30.3522 32.1686 31.3743 32.3698C32.2448 32.6221 32.9937 33.104 33.4781 33.8872C33.9519 34.7769 34.0988 35.6976 33.8446 36.6808C33.6548 37.2663 33.3175 37.7226 32.9245 38.1863C32.9702 38.2121 32.9702 38.2121 33.0167 38.2385C34.0581 38.8349 34.8347 39.4569 35.4735 40.4803C35.7501 40.3881 35.8159 40.1804 35.9435 39.9347C35.9688 39.8862 35.9941 39.8377 36.0203 39.7877C36.7878 38.2715 36.8678 36.6157 36.3457 35.0081C36.0858 34.2776 35.697 33.6945 35.2186 33.0884C35.1739 33.0276 35.1739 33.0276 35.1282 32.9657C34.2863 31.8802 32.9024 31.2992 31.6028 31.0104C29.4492 30.7522 27.5328 31.3989 26.0304 32.9769ZM29.1648 34.2354C28.7279 34.7482 28.5581 35.1992 28.5719 35.8723C28.6259 36.4598 28.9134 36.9119 29.356 37.2942C29.9001 37.6319 30.3751 37.7292 31.0128 37.6765C31.225 37.6201 31.3992 37.5354 31.5863 37.4216C31.6309 37.3953 31.6754 37.369 31.7213 37.3419C32.1476 37.0588 32.4171 36.6415 32.5701 36.1551C32.6725 35.6262 32.5861 35.1054 32.3239 34.6382C31.9774 34.1274 31.5651 33.8084 30.9563 33.6898C30.2737 33.6059 29.6832 33.7756 29.1648 34.2354ZM27.1257 40.8149C26.8026 41.1799 26.8026 41.1799 26.6893 41.6274C26.91 42.148 27.8967 42.4993 28.4002 42.7107C29.883 43.2472 31.6228 43.2311 33.0686 42.5823C33.5857 42.3341 34.0751 42.0583 34.5176 41.6911C34.2559 40.759 33.4086 40.0546 32.5997 39.5884C30.6206 38.545 28.5458 39.2552 27.1257 40.8149Z" fill="black"/>
<path d="M40.1005 39.0689C40.1624 39.0685 40.2243 39.068 40.2881 39.0676C40.3562 39.0674 40.4244 39.0672 40.4946 39.067C40.602 39.0664 40.602 39.0664 40.7116 39.0658C40.9494 39.0645 41.1871 39.0638 41.4249 39.0631C41.5059 39.0629 41.587 39.0626 41.6705 39.0623C42.055 39.0612 42.4396 39.0602 42.8242 39.0597C43.2681 39.0591 43.7119 39.0574 44.1558 39.0548C44.5403 39.0527 44.9247 39.0519 45.3092 39.0517C45.4728 39.0513 45.6363 39.0506 45.7999 39.0494C46.0286 39.0479 46.2572 39.0479 46.4859 39.0484C46.5537 39.0476 46.6215 39.0467 46.6913 39.0459C47.1506 39.0492 47.1506 39.0492 47.3985 39.1997C47.5766 39.4 47.5894 39.5117 47.5922 39.7743C47.5935 39.8722 47.5935 39.8722 47.5947 39.9721C47.5952 40.043 47.5957 40.1138 47.5961 40.1868C47.5967 40.2594 47.5972 40.332 47.5977 40.4068C47.5986 40.5607 47.5993 40.7146 47.5998 40.8685C47.6009 41.1039 47.6037 41.3392 47.6065 41.5746C47.6071 41.724 47.6077 41.8734 47.6081 42.0228C47.6092 42.0932 47.6103 42.1637 47.6115 42.2363C47.6101 42.7257 47.6101 42.7257 47.4598 42.9766C47.2642 43.1467 47.1584 43.1647 46.9048 43.166C46.8119 43.1667 46.8119 43.1667 46.7172 43.1674C46.649 43.1676 46.5809 43.1677 46.5106 43.1679C46.439 43.1683 46.3674 43.1688 46.2937 43.1692C46.0559 43.1704 45.8181 43.1712 45.5804 43.1718C45.4993 43.1721 45.4183 43.1723 45.3348 43.1726C44.9502 43.1738 44.5657 43.1747 44.1811 43.1753C43.7372 43.1759 43.2933 43.1776 42.8495 43.1801C42.465 43.1823 42.0805 43.183 41.696 43.1833C41.5325 43.1836 41.3689 43.1844 41.2054 43.1855C40.9767 43.1871 40.7481 43.187 40.5194 43.1866C40.4516 43.1874 40.3838 43.1882 40.314 43.1891C39.8547 43.1858 39.8547 43.1858 39.6068 43.0353C39.4286 42.835 39.4159 42.7233 39.413 42.4607C39.4122 42.3954 39.4114 42.3301 39.4106 42.2628C39.4101 42.192 39.4096 42.1212 39.4091 42.0482C39.4086 41.9756 39.4081 41.903 39.4076 41.8282C39.4067 41.6743 39.406 41.5204 39.4055 41.3664C39.4044 41.1311 39.4016 40.8957 39.3988 40.6603C39.3982 40.5109 39.3976 40.3615 39.3972 40.2122C39.3955 40.1065 39.3955 40.1065 39.3938 39.9987C39.3952 39.5093 39.3952 39.5093 39.5455 39.2584C39.7411 39.0882 39.8468 39.0702 40.1005 39.0689ZM40.8262 40.4802C40.8262 40.9008 40.8262 41.3214 40.8262 41.7547C42.5927 41.7547 44.3591 41.7547 46.179 41.7547C46.179 41.3341 46.179 40.9136 46.179 40.4802C44.4126 40.4802 42.6462 40.4802 40.8262 40.4802Z" fill="black"/>
<path d="M40.1005 30.9122C40.1624 30.9117 40.2243 30.9113 40.2881 30.9108C40.3562 30.9107 40.4244 30.9105 40.4946 30.9103C40.602 30.9097 40.602 30.9097 40.7116 30.909C40.9494 30.9078 41.1871 30.907 41.4249 30.9064C41.5059 30.9061 41.587 30.9059 41.6705 30.9056C42.055 30.9044 42.4396 30.9035 42.8242 30.903C43.2681 30.9023 43.7119 30.9007 44.1558 30.8981C44.5403 30.8959 44.9247 30.8952 45.3092 30.8949C45.4728 30.8946 45.6363 30.8939 45.7999 30.8927C46.0286 30.8911 46.2572 30.8912 46.4859 30.8916C46.5537 30.8908 46.6215 30.89 46.6913 30.8892C47.1506 30.8924 47.1506 30.8924 47.3985 31.0429C47.5766 31.2433 47.5894 31.355 47.5922 31.6175C47.5935 31.7155 47.5935 31.7155 47.5947 31.8154C47.5952 31.8862 47.5957 31.9571 47.5961 32.03C47.5967 32.1026 47.5972 32.1753 47.5977 32.2501C47.5986 32.404 47.5993 32.5579 47.5998 32.7118C47.6009 32.9472 47.6037 33.1825 47.6065 33.4179C47.6071 33.5673 47.6077 33.7167 47.6081 33.8661C47.6092 33.9365 47.6103 34.0069 47.6115 34.0795C47.6101 34.5689 47.6101 34.5689 47.4598 34.8199C47.2642 34.99 47.1584 35.008 46.9048 35.0093C46.8119 35.01 46.8119 35.01 46.7172 35.0107C46.649 35.0108 46.5809 35.011 46.5106 35.0112C46.439 35.0116 46.3674 35.012 46.2937 35.0125C46.0559 35.0137 45.8181 35.0145 45.5804 35.0151C45.4993 35.0153 45.4183 35.0156 45.3348 35.0159C44.9502 35.0171 44.5657 35.018 44.1811 35.0185C43.7372 35.0191 43.2933 35.0208 42.8495 35.0234C42.465 35.0256 42.0805 35.0263 41.696 35.0266C41.5325 35.0269 41.3689 35.0276 41.2054 35.0288C40.9767 35.0303 40.7481 35.0303 40.5194 35.0299C40.4516 35.0307 40.3838 35.0315 40.314 35.0323C39.8547 35.0291 39.8547 35.0291 39.6068 34.8785C39.4286 34.6782 39.4159 34.5665 39.413 34.304C39.4122 34.2387 39.4114 34.1734 39.4106 34.1061C39.4101 34.0353 39.4096 33.9644 39.4091 33.8915C39.4086 33.8188 39.4081 33.7462 39.4076 33.6714C39.4067 33.5175 39.406 33.3636 39.4055 33.2097C39.4044 32.9743 39.4016 32.739 39.3988 32.5036C39.3982 32.3542 39.3976 32.2048 39.3972 32.0554C39.3955 31.9498 39.3955 31.9498 39.3938 31.842C39.3952 31.3526 39.3952 31.3526 39.5455 31.1016C39.7411 30.9315 39.8468 30.9135 40.1005 30.9122ZM40.8262 32.3235C40.8262 32.7441 40.8262 33.1647 40.8262 33.598C42.5927 33.598 44.3591 33.598 46.179 33.598C46.179 33.1774 46.179 32.7568 46.179 32.3235C44.4126 32.3235 42.6462 32.3235 40.8262 32.3235Z" fill="black"/>
<path d="M25.469 22.765C25.6489 22.9046 25.7503 23.0091 25.8513 23.2111C25.877 23.4784 25.8667 23.6269 25.7438 23.8682C25.5858 24.0519 25.5129 24.1177 25.2778 24.1669C24.9917 24.1618 24.8687 24.1346 24.6485 23.9479C24.4361 23.6917 24.4268 23.5441 24.4494 23.2111C24.6655 22.748 24.9939 22.6885 25.469 22.765Z" fill="black"/>
<path d="M28.1453 22.7651C28.3328 22.848 28.3895 22.9179 28.5277 23.0837C28.6229 23.3458 28.6083 23.5408 28.5237 23.8046C28.3703 24.0174 28.2679 24.0868 28.0179 24.167C27.7147 24.192 27.5523 24.1401 27.3169 23.944C27.1665 23.7323 27.1476 23.5379 27.1619 23.2826C27.2031 23.0809 27.2966 22.9679 27.4444 22.8288C27.6674 22.7173 27.902 22.73 28.1453 22.7651Z" fill="black"/>
<path d="M22.7285 22.765C22.9114 22.8793 23.0147 22.955 23.1109 23.1473C23.1515 23.4375 23.1603 23.6993 22.9834 23.9439C22.7481 24.14 22.5856 24.1919 22.2825 24.1669C22.0325 24.0867 21.9301 24.0173 21.7767 23.8045C21.692 23.5407 21.6774 23.3457 21.7727 23.0836C22.0442 22.7577 22.311 22.6796 22.7285 22.765Z" fill="black"/>
</svg>
