<svg width="512" height="512" viewBox="0 0 512 512" fill="none" xmlns="http://www.w3.org/2000/svg">
<path d="M154.061 55.9766H234.182" stroke="white" stroke-width="15" stroke-miterlimit="10" stroke-linecap="round" stroke-linejoin="round"/>
<path d="M320.326 381.734C333.052 381.734 343.369 371.418 343.369 358.691C343.369 345.965 333.052 335.648 320.326 335.648C307.6 335.648 297.283 345.965 297.283 358.691C297.283 371.418 307.6 381.734 320.326 381.734Z" stroke="white" stroke-width="15" stroke-miterlimit="10" stroke-linecap="round" stroke-linejoin="round"/>
<path d="M315.881 197.631C315.881 197.631 308.038 191.038 298.788 193.824C290.295 196.382 289.107 206.175 295.252 210.18C295.252 210.18 301.281 212.87 307.968 215.336C324.065 221.274 317.131 236.847 304.173 236.847C297.683 236.847 292.237 234.005 288.941 230.367M303.133 192.801V183.127M303.133 246.859V237.186M355.836 199.454H422.278M355.836 230.532H422.278M112.583 240.377H166.278M112.583 271.454H213.19M380.906 348.605H414.127M380.906 379.682H414.127M283.77 420.605V398.297C283.77 389.151 291.184 381.737 300.33 381.737H340.323C349.468 381.737 356.882 389.151 356.882 398.297V420.605H283.77Z" stroke="white" stroke-width="15" stroke-miterlimit="10" stroke-linecap="round" stroke-linejoin="round"/>
<path d="M378.547 158.531H270.636C263.094 158.531 256.98 164.646 256.98 172.188V257.796C256.98 265.338 263.094 271.453 270.636 271.453H440.582C448.124 271.453 454.239 265.338 454.239 257.796V172.188C454.239 164.646 448.124 158.531 440.582 158.531H410.413M440.582 420.604H270.636C263.094 420.604 256.98 414.49 256.98 406.947V321.339C256.98 313.797 263.094 307.682 270.636 307.682H440.582C448.124 307.682 454.239 313.797 454.239 321.339V406.947C454.239 414.49 448.124 420.604 440.582 420.604ZM182.205 194.412C174.616 190.031 168.315 183.73 163.933 176.141C159.552 168.553 157.246 159.944 157.246 151.182V139.024C157.246 138.032 157.775 137.117 158.632 136.621L192.734 116.932C193.155 116.689 193.634 116.561 194.121 116.561C194.608 116.561 195.086 116.689 195.508 116.932L229.609 136.621C230.031 136.864 230.381 137.215 230.625 137.636C230.868 138.058 230.996 138.537 230.996 139.024V151.182C230.996 159.944 228.689 168.553 224.308 176.141C219.927 183.73 213.625 190.031 206.036 194.412L195.507 200.492C195.085 200.735 194.607 200.863 194.12 200.863C193.633 200.863 193.154 200.735 192.733 200.492L182.205 194.412Z" stroke="white" stroke-width="15" stroke-miterlimit="10" stroke-linecap="round" stroke-linejoin="round"/>
<path d="M194.121 200.863V116.561" stroke="white" stroke-width="15" stroke-miterlimit="10" stroke-linejoin="round"/>
<path d="M145.764 345.817H116.732C115.524 345.817 114.367 345.338 113.513 344.484C112.659 343.63 112.179 342.472 112.179 341.265V312.234C112.179 311.027 112.659 309.869 113.513 309.015C114.367 308.161 115.524 307.682 116.732 307.682H145.764C146.971 307.682 148.129 308.161 148.983 309.015C149.836 309.869 150.316 311.027 150.316 312.234V341.266C150.316 342.473 149.836 343.631 148.982 344.484C148.129 345.338 146.971 345.817 145.764 345.817ZM215.011 345.817H185.979C184.771 345.817 183.614 345.338 182.76 344.484C181.906 343.63 181.427 342.472 181.427 341.265V312.234C181.427 311.027 181.906 309.869 182.76 309.015C183.614 308.161 184.771 307.682 185.979 307.682H215.011C216.218 307.682 217.376 308.161 218.23 309.015C219.083 309.869 219.563 311.027 219.563 312.234V341.266C219.563 342.473 219.083 343.631 218.229 344.484C217.376 345.338 216.218 345.817 215.011 345.817ZM145.764 420.604H116.732C115.524 420.604 114.367 420.124 113.513 419.27C112.659 418.417 112.179 417.259 112.179 416.051V387.019C112.179 385.812 112.659 384.654 113.513 383.8C114.367 382.947 115.524 382.467 116.732 382.467H145.764C146.971 382.467 148.129 382.947 148.983 383.8C149.836 384.654 150.316 385.812 150.316 387.019V416.051C150.316 417.259 149.836 418.417 148.983 419.27C148.129 420.124 146.971 420.604 145.764 420.604ZM215.011 420.604H185.979C184.771 420.604 183.614 420.124 182.76 419.27C181.906 418.417 181.427 417.259 181.427 416.051V387.019C181.427 385.812 181.906 384.654 182.76 383.8C183.614 382.947 184.771 382.467 185.979 382.467H215.011C216.218 382.467 217.376 382.947 218.23 383.8C219.083 384.654 219.563 385.812 219.563 387.019V416.051C219.563 417.259 219.083 418.417 218.23 419.27C217.376 420.124 216.218 420.604 215.011 420.604Z" stroke="white" stroke-width="15" stroke-miterlimit="10" stroke-linecap="round" stroke-linejoin="round"/>
<path d="M331.242 158.531V71.5626C331.242 48.608 312.634 30 289.68 30H98.5626C75.608 30 57 48.608 57 71.5626V367.108M57 398.974V440.938C57 463.893 75.608 482.501 98.5626 482.501H289.681C312.635 482.501 331.243 463.893 331.243 440.938V420.604M331.242 307.682V271.453" stroke="white" stroke-width="15" stroke-miterlimit="10" stroke-linecap="round" stroke-linejoin="round"/>
</svg>
