<?xml version="1.0" encoding="UTF-8"?>
<!DOCTYPE svg PUBLIC "-//W3C//DTD SVG 1.1//EN" "http://www.w3.org/Graphics/SVG/1.1/DTD/svg11.dtd">
<svg xmlns="http://www.w3.org/2000/svg" version="1.1" width="512px" height="512px" style="shape-rendering:geometricPrecision; text-rendering:geometricPrecision; image-rendering:optimizeQuality; fill-rule:evenodd; clip-rule:evenodd" xmlns:xlink="http://www.w3.org/1999/xlink">
<g><path style="opacity:0.953" fill="#000000" d="M 44.5,-0.5 C 64.1667,-0.5 83.8333,-0.5 103.5,-0.5C 109.08,2.96978 110.913,7.96978 109,14.5C 107.833,16.3333 106.333,17.8333 104.5,19C 89.5583,20.4338 74.5583,20.9338 59.5,20.5C 59.6666,34.8372 59.4999,49.1705 59,63.5C 54.439,71.1062 48.439,72.4395 41,67.5C 40.3333,66.1667 39.6667,64.8333 39,63.5C 38.3333,44.1667 38.3333,24.8333 39,5.5C 40.3597,2.97739 42.193,0.977392 44.5,-0.5 Z"/></g>
<g><path style="opacity:0.948" fill="#000000" d="M 230.5,-0.5 C 238.5,-0.5 246.5,-0.5 254.5,-0.5C 262.328,1.4528 269.328,5.11947 275.5,10.5C 281.878,5.47911 288.878,1.81244 296.5,-0.5C 303.833,-0.5 311.167,-0.5 318.5,-0.5C 352.979,7.32771 374.812,28.3277 384,62.5C 387.071,89.7771 385.571,116.777 379.5,143.5C 395.089,147.265 403.756,157.265 405.5,173.5C 405,176.5 404.5,179.5 404,182.5C 393.682,202.469 383.348,222.469 373,242.5C 368.953,247.35 363.953,250.684 358,252.5C 348.355,277.599 334.521,299.932 316.5,319.5C 315.337,324.802 315.171,330.136 316,335.5C 352.553,345.782 386.387,361.616 417.5,383C 455.096,415.085 471.596,455.918 467,505.5C 465.64,508.023 463.807,510.023 461.5,511.5C 406.5,511.5 351.5,511.5 296.5,511.5C 289.388,506.099 288.721,499.933 294.5,493C 296.087,492.138 297.754,491.471 299.5,491C 348.499,490.5 397.499,490.333 446.5,490.5C 444.301,442.171 421.967,406.671 379.5,384C 358.83,373.079 337.33,364.246 315,357.5C 303.881,392.48 280.048,407.98 243.5,404C 218.766,397.6 202.933,382.1 196,357.5C 163.734,366.718 133.9,380.885 106.5,400C 79.1643,423.845 65.1643,454.012 64.5,490.5C 113.501,490.333 162.501,490.5 211.5,491C 219.064,492.952 221.897,497.785 220,505.5C 218.64,508.023 216.807,510.023 214.5,511.5C 159.5,511.5 104.5,511.5 49.5,511.5C 47.193,510.023 45.3597,508.023 44,505.5C 39.4141,445.164 62.9141,399.664 114.5,369C 140.031,354.712 166.864,343.545 195,335.5C 195.829,330.136 195.663,324.802 194.5,319.5C 176.479,299.932 162.645,277.599 153,252.5C 147.001,250.667 142.001,247.334 138,242.5C 126.869,222.572 116.536,202.239 107,181.5C 103.853,161.446 112.02,148.78 131.5,143.5C 121.649,87.7269 140.316,44.5602 187.5,14C 201.181,6.82885 215.515,1.99551 230.5,-0.5 Z M 232.5,20.5 C 238.842,20.3338 245.175,20.5005 251.5,21C 257.345,23.5106 262.678,26.8439 267.5,31C 272.833,33 278.167,33 283.5,31C 288.705,26.8968 294.372,23.5635 300.5,21C 324.258,19.6293 342.758,28.796 356,48.5C 362.911,61.2921 365.744,74.9587 364.5,89.5C 364.659,100.908 363.826,112.241 362,123.5C 353.551,112.721 343.051,104.554 330.5,99C 322.071,90.6362 317.571,80.4695 317,68.5C 311.97,62.6866 306.303,62.02 300,66.5C 298,74.4489 296,82.4489 294,90.5C 282.564,114.468 263.731,123.968 237.5,119C 229.75,116.292 222.75,112.292 216.5,107C 192.234,93.8482 170.067,96.6815 150,115.5C 152.175,72.6547 173.008,42.8214 212.5,26C 219.208,23.8261 225.875,21.9927 232.5,20.5 Z M 308.5,108.5 C 311.899,110.388 314.899,112.888 317.5,116C 326.956,120.475 335.456,126.308 343,133.5C 348.839,141.186 352.506,149.853 354,159.5C 355.964,163.799 359.298,166.132 364,166.5C 371.814,161.54 378.147,162.874 383,170.5C 383.667,172.833 383.667,175.167 383,177.5C 373.921,195.325 364.588,212.992 355,230.5C 349.684,228.456 345.351,229.79 342,234.5C 334.197,256.443 323.53,276.777 310,295.5C 287.161,320.751 259.661,327.585 227.5,316C 215.575,310.413 205.741,302.246 198,291.5C 185.972,273.779 176.306,254.779 169,234.5C 165.15,230.027 160.483,228.36 155,229.5C 146,212.167 137,194.833 128,177.5C 126.543,169.778 129.71,165.111 137.5,163.5C 142.789,165.864 148.122,166.03 153.5,164C 155.317,162.2 156.484,160.034 157,157.5C 156.955,131.542 169.788,119.375 195.5,121C 205.673,126.921 216.006,132.587 226.5,138C 255.806,147.209 280.973,140.709 302,118.5C 304.81,115.536 306.976,112.202 308.5,108.5 Z M 216.5,334.5 C 242.17,345.141 267.836,345.141 293.5,334.5C 297.05,359.26 287.05,375.427 263.5,383C 230.581,383.911 214.914,367.744 216.5,334.5 Z"/></g>
<g><path style="opacity:0.953" fill="#000000" d="M 406.5,-0.5 C 426.5,-0.5 446.5,-0.5 466.5,-0.5C 468.807,0.977392 470.64,2.97739 472,5.5C 472.667,24.8333 472.667,44.1667 472,63.5C 469.318,69.257 464.818,71.4237 458.5,70C 455.667,68.5 453.5,66.3333 452,63.5C 451.5,49.1705 451.333,34.8372 451.5,20.5C 436.442,20.9338 421.442,20.4338 406.5,19C 401.78,15.7015 400.28,11.2015 402,5.5C 403.332,3.34004 404.832,1.34004 406.5,-0.5 Z"/></g>
<g><path style="opacity:0.948" fill="#000000" d="M 44.5,274.5 C 51.445,272.775 56.2783,275.108 59,281.5C 59.4999,295.829 59.6666,310.163 59.5,324.5C 73.8372,324.333 88.1705,324.5 102.5,325C 109.053,327.73 111.22,332.563 109,339.5C 107.833,342 106,343.833 103.5,345C 83.0773,345.976 62.7439,345.643 42.5,344C 40.9512,342.786 39.7845,341.286 39,339.5C 38.3333,319.833 38.3333,300.167 39,280.5C 40.3597,277.977 42.193,275.977 44.5,274.5 Z"/></g>
<g><path style="opacity:0.948" fill="#000000" d="M 457.5,274.5 C 463.898,273.053 468.731,275.053 472,280.5C 472.976,300.923 472.643,321.256 471,341.5C 469.786,343.049 468.286,344.215 466.5,345C 446.833,345.667 427.167,345.667 407.5,345C 401.891,341.723 400.058,336.89 402,330.5C 403.251,327.619 405.417,325.786 408.5,325C 422.829,324.5 437.163,324.333 451.5,324.5C 451.333,310.163 451.5,295.829 452,281.5C 452.967,278.379 454.8,276.046 457.5,274.5 Z"/></g>
<g><path style="opacity:0.891" fill="#000000" d="M 260.5,511.5 C 257.167,511.5 253.833,511.5 250.5,511.5C 244.665,505.996 243.999,499.829 248.5,493C 257.934,488.642 263.934,491.475 266.5,501.5C 265.995,505.861 263.995,509.195 260.5,511.5 Z"/></g>
</svg>
