<?xml version="1.0" encoding="UTF-8"?>
<svg version="1.1" xmlns="http://www.w3.org/2000/svg" width="512" height="512">
<path d="M0 0 C1.06013276 -0.00445784 2.12026552 -0.00891569 3.21252352 -0.01350862 C4.37621712 -0.01332426 5.53991072 -0.01313989 6.73886776 -0.01294994 C7.97592415 -0.01662663 9.21298055 -0.02030332 10.4875235 -0.02409142 C13.92334116 -0.03321188 17.35911108 -0.03782656 20.7949363 -0.04048073 C24.49995834 -0.04438688 28.20496659 -0.05396506 31.90997982 -0.0626936 C40.8591262 -0.08245007 49.80827369 -0.09252355 58.75743642 -0.10142139 C62.97341495 -0.10580595 67.18939222 -0.11117236 71.40536976 -0.11641026 C85.42340395 -0.13342234 99.44143736 -0.14791576 113.45948029 -0.155159 C117.09671244 -0.15706884 120.73394459 -0.15898918 124.37117672 -0.16094494 C125.27517619 -0.16142868 126.17917566 -0.16191242 127.11056905 -0.16241082 C141.74960512 -0.17070832 156.3885594 -0.19604059 171.02755976 -0.22852562 C186.06255615 -0.2616169 201.097511 -0.27960966 216.13254398 -0.28280324 C224.57192236 -0.28496651 233.01118149 -0.29368821 241.45052433 -0.31926441 C248.63905879 -0.34099977 255.82744503 -0.34900795 263.01600862 -0.33929763 C266.68122233 -0.33476099 270.34613044 -0.33660158 274.01130199 -0.35605907 C277.9923123 -0.37700992 281.97290455 -0.36667935 285.95395565 -0.35352612 C287.1020342 -0.36449536 288.25011274 -0.37546461 289.43298155 -0.38676625 C298.33487292 -0.31593252 306.95816784 1.11725294 313.72835445 7.32172108 C321.1349108 15.74892416 321.36800247 24.49152233 321.2920599 35.32320118 C321.29595665 36.86382289 321.3016001 38.40444099 321.3088308 39.94505066 C321.32354955 44.16218759 321.31342566 48.37894975 321.29909408 52.59607446 C321.28796785 57.15032251 321.29993231 61.7045187 321.30893612 66.25876331 C321.322859 75.17377336 321.31531958 84.08864162 321.30026054 93.00364489 C321.28338916 103.38727363 321.2866121 113.77086716 321.29035462 124.15450536 C321.29623138 142.68187088 321.28206843 161.2091684 321.25740719 179.736516 C321.2334835 197.71180234 321.22640453 215.68699785 321.23689938 233.66229725 C321.24830988 253.24096362 321.25023726 272.81958799 321.23580128 292.39825386 C321.23427545 294.48608966 321.2327551 296.57392547 321.23124027 298.66176128 C321.23048246 299.68899383 321.22972464 300.71622637 321.22894387 301.77458717 C321.22420234 309.01152738 321.22605152 316.24844883 321.23030567 323.48538876 C321.2352334 332.30468133 321.22924306 341.12388804 321.20941138 349.94316096 C321.19954318 354.44237284 321.19442921 358.94145403 321.20230389 363.44067287 C321.20936699 367.56049002 321.20254139 371.68004359 321.18470026 375.79982602 C321.18065987 377.28891731 321.18164878 378.77803267 321.18821912 380.26711494 C321.22929525 390.44911493 320.81632551 398.73208679 313.6619482 406.52875233 C304.81318899 414.12132026 294.89744026 414.28304075 283.81665707 414.26793385 C282.60098201 414.2701994 281.38530695 414.27246496 280.13279325 414.27479917 C276.76603817 414.28002968 273.39933655 414.28078485 270.03258121 414.27960479 C266.39852986 414.27940051 262.76448645 414.28492215 259.1304388 414.28966236 C252.01347444 414.29796353 244.89651836 414.30071696 237.77954956 414.30127474 C231.99363173 414.30175015 226.20771663 414.30380616 220.42179966 414.30697536 C204.01225467 414.31578048 187.60271621 414.32039496 171.19316884 414.31964489 C170.30880109 414.31960493 169.42443334 414.31956498 168.51326656 414.31952381 C167.62781716 414.31948293 166.74236777 414.31944205 165.83008657 414.31939993 C151.48084809 414.3189935 137.13163586 414.3285627 122.78240498 414.34266218 C108.04341796 414.35703018 93.30444374 414.36393213 78.56544954 414.3630684 C70.29276122 414.36273658 62.02010041 414.36547721 53.7474184 414.37624645 C46.70383002 414.38535703 39.66028162 414.38752212 32.61668988 414.38073703 C29.02470758 414.37747464 25.43280197 414.37740494 21.84082699 414.38609028 C17.94251685 414.39541918 14.04431838 414.38917187 10.14600277 414.38145924 C9.01680847 414.3866028 7.88761417 414.39174636 6.72420186 414.39704579 C-1.49478664 414.36112591 -9.35777149 414.09166929 -16.14664555 409.00922108 C-18.90109927 406.75340415 -18.90109927 406.75340415 -22.20914555 406.13422108 C-24.33669734 407.56458359 -26.37968916 409.09010726 -28.4318018 410.62640858 C-35.6946247 414.56937572 -43.8322352 414.42782867 -51.90421391 414.40887928 C-53.04038654 414.41399021 -54.17655918 414.41910114 -55.34716129 414.42436695 C-59.08115841 414.43820089 -62.81496969 414.43731095 -66.5489893 414.43500233 C-69.15775972 414.43889236 -71.76652952 414.44322766 -74.3752985 414.44798756 C-79.83482337 414.45617789 -85.29429643 414.45530744 -90.75382328 414.44989491 C-97.0426396 414.44385562 -103.33123215 414.45617312 -109.62001032 414.47746497 C-115.69781271 414.49727706 -121.77551127 414.50024634 -127.85334301 414.49672985 C-130.4268385 414.4972418 -133.00033766 414.50245567 -135.57381344 414.51254177 C-139.17760995 414.52493454 -142.78089381 414.51809712 -146.38468266 414.50653553 C-147.43797764 414.51417927 -148.49127262 414.52182301 -149.57648563 414.52969837 C-158.63796129 414.46572961 -167.01554327 412.98947874 -174.20914555 407.13422108 C-181.8720751 398.93666853 -183.36039231 391.73145034 -183.34958744 380.97571278 C-183.35255856 380.05082436 -183.35552969 379.12593594 -183.35859084 378.1730206 C-183.36726544 375.07251316 -183.36878504 371.97204438 -183.37027836 368.87152576 C-183.37490739 366.64896532 -183.37993217 364.42640566 -183.38532352 362.20384693 C-183.39844093 356.16447542 -183.40489116 350.12511503 -183.40933418 344.08573151 C-183.41226585 340.31214149 -183.41637083 336.5385545 -183.42083836 332.76496601 C-183.43294516 322.30947881 -183.443328 311.85399339 -183.44671345 301.39849949 C-183.4470428 300.39543735 -183.4470428 300.39543735 -183.4473788 299.37211134 C-183.44770622 298.366701 -183.44770622 298.366701 -183.44804025 297.34097934 C-183.44848371 295.98283466 -183.44893027 294.62468998 -183.44937992 293.2665453 C-183.44960135 292.59286404 -183.44982278 291.91918279 -183.45005092 291.22508696 C-183.45399769 280.31272412 -183.47144936 269.40042811 -183.49473944 258.48809108 C-183.51847802 247.27477519 -183.53065867 236.06149164 -183.53208137 224.84814668 C-183.53312925 218.55620515 -183.5390337 212.26435793 -183.55690098 205.97243977 C-183.57338406 200.05286004 -183.5755359 194.13344548 -183.56676197 188.21385098 C-183.56599174 186.04389535 -183.57033243 183.87393084 -183.58022022 181.70399761 C-183.59294899 178.73602379 -183.58705764 175.76863412 -183.57663822 172.80066395 C-183.58469463 171.94704486 -183.59275103 171.09342577 -183.60105157 170.21393943 C-183.53330977 161.93293397 -181.42001473 154.68502805 -176.20914555 148.13422108 C-167.18317354 139.50940338 -157.74726796 138.98389738 -145.93058109 138.98895741 C-144.80299381 138.98559879 -143.67540653 138.98224018 -142.51364994 138.97877979 C-138.79104348 138.96929146 -135.0684821 138.96732772 -131.3458643 138.96625233 C-128.75283127 138.96303824 -126.15979843 138.95967405 -123.56676579 138.95616627 C-118.13220567 138.95018027 -112.69766338 138.94828293 -107.26310062 138.94891834 C-100.99880389 138.94951859 -94.73459342 138.93897383 -88.4703185 138.92317468 C-82.42510504 138.90847619 -76.37993809 138.90493156 -70.3347044 138.90552807 C-67.7715485 138.90435009 -65.20839193 138.89993858 -62.64524746 138.8921957 C-59.05539063 138.88236676 -55.46575419 138.8852855 -51.87589359 138.89130116 C-50.82364094 138.88568165 -49.77138828 138.88006214 -48.68724918 138.87427235 C-41.04288942 138.90672081 -34.04143621 139.49815723 -27.20914555 143.13422108 C-27.21191092 142.51891561 -27.2146763 141.90361013 -27.21752548 141.26965904 C-27.28389424 126.27019658 -27.33347896 111.27077944 -27.36458206 96.27120781 C-27.38002463 89.01740259 -27.40106392 81.76369563 -27.43546391 74.5099535 C-27.46544654 68.18463667 -27.48473951 61.85939103 -27.49141103 55.53400511 C-27.49530841 52.18736967 -27.50600672 48.84109849 -27.52633572 45.49449825 C-27.54816953 41.75066742 -27.55110989 38.00725591 -27.54972172 34.26337147 C-27.56050755 33.16428959 -27.57129337 32.06520771 -27.58240604 30.93282032 C-27.54398188 21.33156453 -25.84974926 13.95669579 -19.17789555 6.86078358 C-13.60156163 1.97042725 -7.31797779 0.01428902 0 0 Z M-11.58414555 17.44672108 C-14.557718 22.36455245 -15.45909994 26.80212125 -15.46362114 32.50644302 C-15.46945333 33.77506162 -15.47528553 35.04368022 -15.48129445 36.3507418 C-15.47766159 37.75101643 -15.47383723 39.15129057 -15.46984196 40.55156422 C-15.47286325 42.04493337 -15.47675263 43.53830099 -15.48143452 45.03166586 C-15.49172599 49.13199187 -15.48952979 53.23223055 -15.48525393 57.33256376 C-15.48278881 61.75595602 -15.49179818 66.17932714 -15.49929142 70.60271168 C-15.51204616 79.26709445 -15.51383116 87.93144624 -15.51149116 96.59583681 C-15.50970879 103.63749517 -15.51145588 110.67914412 -15.5157156 117.72080135 C-15.51631079 118.72264812 -15.51690598 119.72449489 -15.5175192 120.75670065 C-15.51873094 122.79188533 -15.51994507 124.82707001 -15.52116158 126.86225469 C-15.53203999 145.95157202 -15.52987313 165.04087169 -15.52377673 184.13019002 C-15.51860666 201.59765636 -15.52986488 219.06506695 -15.54887495 236.53252225 C-15.56824155 254.46491807 -15.57651146 272.3972875 -15.5727517 290.32969385 C-15.57083795 300.39867396 -15.5733442 310.4676066 -15.58746624 320.53657818 C-15.59936596 329.10782902 -15.60080074 337.67900317 -15.58867607 346.25025504 C-15.58277763 350.62376428 -15.58171459 354.99713315 -15.59367847 359.37063313 C-15.60450413 363.3745485 -15.60147364 367.37820575 -15.58741679 371.38210887 C-15.5847607 372.8302274 -15.58716495 374.27836593 -15.59515265 375.72646486 C-15.69132023 387.8516144 -15.69132023 387.8516144 -9.70914555 398.00922108 C-6.17642495 401.01203358 -3.60365757 401.25969708 0.87530136 401.26844215 C1.93304317 401.2729 2.99078498 401.27735784 4.08057958 401.28195077 C5.24670567 401.28176641 6.41283176 401.28158205 7.61429501 401.2813921 C8.84994125 401.28506879 10.0855875 401.28874547 11.35867757 401.29253358 C14.79500608 401.30166342 18.23128682 401.30627075 21.66762292 401.30892289 C25.37120359 401.31282513 29.07477041 401.32240343 32.77834225 401.33113575 C41.72491333 401.350901 50.67148555 401.36096582 59.61807302 401.36986354 C63.82971714 401.37424578 68.04136 401.3796127 72.25300312 401.38485241 C86.25041887 401.40186369 100.24783383 401.41635882 114.24525833 401.42360115 C117.87788869 401.42551108 121.51051904 401.42743141 125.14314938 401.42938709 C126.49747824 401.4301127 126.49747824 401.4301127 127.87916728 401.43085297 C142.5119449 401.43915689 157.14464088 401.46450034 171.77738283 401.49696777 C186.79537323 401.53001881 201.8133221 401.54804808 216.83134907 401.55124539 C225.26555265 401.55341215 233.69963711 401.56218519 242.13380527 401.58770657 C249.31518737 401.60938678 256.49642141 401.6174772 263.67783252 401.60773978 C267.34241964 401.60318743 271.00670111 401.60513515 274.67124653 401.62450123 C278.64311308 401.64531035 282.61455597 401.63517224 286.58646297 401.62196827 C287.7458969 401.63293752 288.90533083 401.64390676 290.09989911 401.65520841 C296.1034626 401.60686229 300.26347138 401.51560204 304.79085445 397.13422108 C310.13471516 390.67808577 309.34921416 383.47571761 309.2920599 375.43803883 C309.29595462 373.92659134 309.30159644 372.41514752 309.3088308 370.90371233 C309.32357877 366.75800469 309.31340826 362.61267714 309.29909408 358.46698177 C309.28798451 353.99317332 309.2999268 349.5194182 309.30893612 345.04561329 C309.32287034 336.28473826 309.31531121 327.52400735 309.30026054 318.76313918 C309.28340299 308.56239135 309.28661035 298.36167945 309.29035462 288.160922 C309.29623346 269.96180701 309.28206028 251.7627612 309.25740719 233.56366444 C309.23348283 215.90055212 309.22640428 198.23753223 309.23689938 180.57440662 C309.24830585 161.34296375 309.25024226 142.11156364 309.23580128 122.88012129 C309.23427543 120.82992399 309.23275507 118.77972669 309.23124027 116.72952938 C309.23048246 115.72077421 309.22972464 114.71201904 309.22894387 113.67269553 C309.22419923 106.56057468 309.22605373 99.44847291 309.23030567 92.33635235 C309.23522972 83.6710302 309.22925955 75.00579548 309.20941138 66.34049337 C309.19953254 61.91850255 309.19444066 57.49664491 309.20230389 53.07464695 C309.20935314 49.02763593 309.20257387 44.98089383 309.18470026 40.9339183 C309.18065088 39.46902887 309.18166386 38.00411499 309.18821912 36.53923463 C309.19636331 34.54913581 309.18426702 32.55898491 309.17117119 30.56891251 C309.17014206 29.46316421 309.16911293 28.35741591 309.16805261 27.21816009 C308.58011452 22.41122992 306.68155335 18.35787882 302.85335445 15.32172108 C298.68288809 12.34281653 295.72980912 12.009812 290.68265057 12.00279331 C289.64505148 11.99895217 288.60745239 11.99511102 287.5384109 11.99115348 C285.83065592 11.9924532 285.83065592 11.9924532 284.08840084 11.99377918 C282.87781262 11.99080806 281.66722439 11.98783694 280.41995168 11.98477578 C277.05815088 11.9775952 273.69640119 11.97491644 270.3345964 11.97417831 C266.70938879 11.97232704 263.08419225 11.96477933 259.45899105 11.9580431 C251.53125918 11.94446219 243.60353236 11.93843544 235.67579079 11.93403244 C230.72545864 11.93126962 225.77512845 11.92703219 220.82479763 11.92252827 C207.11815037 11.91033593 193.41150467 11.90003654 179.7048521 11.89665318 C178.38901076 11.89632383 178.38901076 11.89632383 177.04658677 11.89598782 C176.16726329 11.89576955 175.28793981 11.89555127 174.38197017 11.89532638 C172.60013342 11.89488291 170.81829667 11.89443635 169.03645992 11.8939867 C167.71068178 11.89365456 167.71068178 11.89365456 166.35812023 11.8933157 C152.03716618 11.88936785 137.71626301 11.87191405 123.39532861 11.84862718 C108.69143996 11.82491063 93.98757684 11.81245119 79.28366876 11.81128526 C71.02829196 11.81036867 62.77298147 11.80462043 54.51762295 11.78646564 C47.48785249 11.77106057 40.45816882 11.76594659 33.42838469 11.77420375 C29.84257856 11.77810882 26.2569472 11.77718778 22.67116261 11.7631464 C18.78111398 11.74805306 14.89131093 11.75627827 11.00124264 11.7667284 C9.8716622 11.758672 8.74208177 11.75061559 7.57827163 11.74231505 C0.33605982 11.78785291 -6.13567741 12.14163368 -11.58414555 17.44672108 Z M-168.33388233 158.69489288 C-170.76728223 163.15787217 -170.76836865 166.51147927 -170.71708012 171.50909901 C-170.72332008 172.44512565 -170.72956004 173.3811523 -170.73598909 174.34554338 C-170.75192689 177.47783382 -170.73931148 180.60934693 -170.72672367 183.74164295 C-170.73214442 185.98892642 -170.73926681 188.23620633 -170.74796391 190.4834795 C-170.76620558 196.58466072 -170.75912606 202.6855715 -170.74644756 208.78675747 C-170.73632438 215.17012355 -170.74571136 221.5534664 -170.75199223 227.93683338 C-170.75973688 239.34357321 -170.74730196 250.7501632 -170.72695488 262.1568777 C-170.70908428 272.49525234 -170.71218852 282.83344733 -170.73062992 293.17181873 C-170.75204522 305.18297083 -170.75999918 317.19398725 -170.74818087 329.20516539 C-170.74194296 335.56127613 -170.7411186 341.91726316 -170.75432682 348.27336597 C-170.76587658 354.24883761 -170.75787511 360.22396977 -170.73474979 366.19940472 C-170.7294581 368.39318687 -170.73098431 370.58699757 -170.73980045 372.78076839 C-170.75072094 375.7740131 -170.73703393 378.76616799 -170.71708012 381.75934315 C-170.726003 382.62880054 -170.73492589 383.49825793 -170.74411917 384.39406252 C-170.67424641 389.79273598 -169.77455989 392.83872027 -166.20914555 397.13422108 C-160.82872599 402.15118794 -155.38584488 401.69657836 -148.4239893 401.63593006 C-147.24281528 401.64133305 -146.06164127 401.64673603 -144.84467411 401.65230274 C-141.61721881 401.66264371 -138.39043336 401.65511467 -135.16302204 401.63859153 C-131.77857174 401.62469924 -128.39415121 401.63120585 -125.00968266 401.63472462 C-119.32705952 401.63742346 -113.644648 401.62397943 -107.96207523 401.60077381 C-101.40113332 401.57416595 -94.8405451 401.5724181 -88.27956772 401.58416218 C-81.95666022 401.59495805 -75.63388011 401.58873876 -69.3109827 401.5746069 C-66.62530331 401.56886272 -63.93971762 401.56891735 -61.2540369 401.57367229 C-57.50057505 401.57658297 -53.74769068 401.560083 -49.9943018 401.53827381 C-48.88450962 401.54277546 -47.77471745 401.54727711 -46.6312952 401.55191517 C-41.09373811 401.49846301 -36.94717529 401.34345801 -32.20914555 398.13422108 C-27.20293326 392.72209969 -27.06163388 388.29788095 -27.06870365 381.19603443 C-27.06573253 380.27073817 -27.06276141 379.3454419 -27.05970025 378.39210635 C-27.05099915 375.27838489 -27.04950381 372.1647018 -27.04801273 369.05096912 C-27.04338558 366.82383612 -27.03836106 364.59670392 -27.03296757 362.36957264 C-27.01983212 356.30962363 -27.01339643 350.24968571 -27.00895691 344.18972468 C-27.00602816 340.40578324 -27.00192375 336.62184484 -26.99745274 332.83790493 C-26.98534273 322.36104683 -26.97496095 311.88419053 -26.97157764 301.40732574 C-26.97135808 300.73679273 -26.97113851 300.06625971 -26.97091229 299.37540751 C-26.97069401 298.70327137 -26.97047574 298.03113523 -26.97025084 297.33863133 C-26.96980738 295.97663065 -26.96936082 294.61462996 -26.96891117 293.25262928 C-26.96868974 292.57703009 -26.96846831 291.90143091 -26.96824017 291.20535902 C-26.96429225 280.25850982 -26.94683831 269.31172719 -26.92355165 258.36490371 C-26.89983598 247.12567533 -26.88763367 235.8864792 -26.88620973 224.64722186 C-26.88516039 218.33690225 -26.87922515 212.02667653 -26.86139011 205.71638012 C-26.84494203 199.78124159 -26.84273811 193.84626785 -26.85152912 187.91111469 C-26.85230123 185.73183788 -26.84793398 183.55255232 -26.83807087 181.37329769 C-26.82540151 178.3997872 -26.83120108 175.42686475 -26.84165287 172.45335865 C-26.83359647 171.58963679 -26.82554006 170.72591494 -26.81723952 169.83601969 C-26.85820957 164.85715843 -27.45218137 161.44867804 -30.20914555 157.13422108 C-34.27665987 153.46353742 -36.65761891 152.01286604 -42.07883549 151.98705006 C-43.62236446 151.9763171 -43.62236446 151.9763171 -45.19707584 151.96536732 C-46.89736187 151.96133396 -46.89736187 151.96133396 -48.63199711 151.95721912 C-49.82234058 151.95064793 -51.01268406 151.94407673 -52.23909855 151.9373064 C-56.19264932 151.91753682 -60.14618684 151.90590231 -64.09977055 151.89593983 C-65.46106582 151.89189226 -66.82236088 151.88777533 -68.18365574 151.88358974 C-74.58021047 151.86453539 -80.97675365 151.85030585 -87.37333131 151.84197778 C-94.75441279 151.83220914 -102.13519407 151.8059008 -109.51616979 151.76547688 C-115.22241635 151.73529902 -120.92857696 151.72050727 -126.63490176 151.71719676 C-130.04233568 151.71484779 -133.44944899 151.70590826 -136.85679722 151.68073559 C-140.66101442 151.65644714 -144.46444522 151.65729096 -148.26871586 151.66425037 C-149.9568565 151.64503529 -149.9568565 151.64503529 -151.67910099 151.62543201 C-159.20854008 151.67568975 -163.34786454 152.68588732 -168.33388233 158.69489288 Z " fill="#000000" transform="translate(187.20914554595947,49.86577892303467)"/>
<path d="M0 0 C1.00508102 -0.00852997 2.01016205 -0.01705994 3.04570007 -0.02584839 C4.14241028 -0.02494202 5.23912048 -0.02403564 6.36906433 -0.02310181 C7.52883286 -0.02981903 8.68860138 -0.03653625 9.8835144 -0.04345703 C13.72403732 -0.06248129 17.56438587 -0.06636358 21.404953 -0.06851196 C23.39864843 -0.07331333 25.39234388 -0.07811807 27.38603801 -0.08343279 C33.65643468 -0.0997115 39.92677395 -0.10460231 46.19718933 -0.10317993 C52.65585658 -0.10197927 59.11418924 -0.12306677 65.57277185 -0.15466726 C71.12537349 -0.18086241 76.67786609 -0.19154585 82.23052901 -0.19026911 C85.54351019 -0.18976032 88.85612791 -0.19724762 92.16906166 -0.21662521 C95.86752147 -0.2362308 99.56512179 -0.23046723 103.26359558 -0.21841431 C104.35423309 -0.22965332 105.44487061 -0.24089233 106.56855774 -0.25247192 C112.94834514 -0.19966704 116.81606963 0.48015342 122.01042175 4.26742554 C126.33933743 8.83033665 128.25405445 13.16639046 128.27784729 19.44645691 C128.29064224 20.97921516 128.29064224 20.97921516 128.30369568 22.54293823 C128.30233612 24.20830627 128.30233612 24.20830627 128.3009491 25.90731812 C128.30766632 27.08513351 128.31438354 28.26294891 128.32130432 29.47645569 C128.33703026 32.6997748 128.3436584 35.92293911 128.34493589 39.14629197 C128.34636002 41.16304194 128.35063459 43.17976511 128.35593033 45.19650841 C128.37442133 52.24075401 128.38260225 59.28492405 128.38102722 66.32919312 C128.37982658 72.88158547 128.40091584 79.43364803 128.43251455 85.98595697 C128.45872298 91.62266988 128.46939259 97.25927539 128.4681164 102.89604872 C128.46760803 106.25765347 128.47322092 109.61896508 128.4944725 112.9805088 C128.51409867 116.7337328 128.50830641 120.48611134 128.4962616 124.23934937 C128.50750061 125.34352203 128.51873962 126.4476947 128.53031921 127.58532715 C128.47090778 134.88198608 127.54562566 140.68660609 122.1940155 146.10726929 C121.61780457 146.46949585 121.04159363 146.83172241 120.44792175 147.20492554 C119.57973816 147.77533569 119.57973816 147.77533569 118.6940155 148.35726929 C115.47339986 150.09834456 112.80938337 150.39671696 109.22375488 150.41459656 C108.23832199 150.42175186 107.2528891 150.42890717 106.2375946 150.4362793 C104.61754517 150.44031265 104.61754517 150.44031265 102.96476746 150.44442749 C101.82625839 150.45099869 100.68774933 150.45756989 99.51473999 150.46434021 C95.73856035 150.48408668 91.96242052 150.49573923 88.186203 150.50570679 C86.89709707 150.50978231 85.60799114 150.51385784 84.2798214 150.51805687 C78.15984193 150.53677175 72.03988242 150.55133559 65.91988021 150.55966884 C58.86709526 150.56943186 51.81462494 150.59572785 44.76195079 150.63616973 C38.64465314 150.67003767 32.52748713 150.68181959 26.41010094 150.68587303 C23.81260737 150.69074326 21.21511727 150.70236953 18.61768532 150.72091103 C14.9792189 150.7452681 11.34157177 150.744343 7.70304871 150.73739624 C6.6331369 150.7502063 5.5632251 150.76301636 4.46089172 150.7762146 C-3.19091783 150.72305696 -8.8531889 149.40381488 -14.36457825 143.89242554 C-18.40681181 137.36266363 -18.28121036 131.15162959 -18.26423645 123.69760132 C-18.26934738 122.53914703 -18.27445831 121.38069275 -18.27972412 120.18713379 C-18.29361024 116.36228247 -18.29266399 112.53761155 -18.2903595 108.71273804 C-18.29326415 106.72325922 -18.29617367 104.73378033 -18.29976624 102.74430263 C-18.310846 96.49108698 -18.3113077 90.2379314 -18.30525208 83.98471069 C-18.29921502 77.54879748 -18.31151983 71.11310304 -18.33282214 64.67722714 C-18.35047721 59.13815936 -18.35643331 53.59916096 -18.3531844 48.0600661 C-18.35137735 44.75776953 -18.35527566 41.45566306 -18.36789894 38.15338516 C-18.38025933 34.46743252 -18.37347327 30.78198363 -18.3618927 27.09603882 C-18.36953644 26.01213867 -18.37718018 24.92823853 -18.38505554 23.81149292 C-18.34058364 17.39508834 -18.17478851 10.77228007 -13.60846424 5.74771309 C-9.27545931 1.97456962 -5.72340018 0.02199532 0 0 Z M-4.98957825 15.26742554 C-5.575306 17.24263903 -5.575306 17.24263903 -5.47059631 19.46253967 C-5.47609497 20.31649323 -5.48159363 21.17044678 -5.48725891 22.05027771 C-5.47287781 22.98391647 -5.4584967 23.91755524 -5.44367981 24.87948608 C-5.44426392 25.86503479 -5.44484802 26.8505835 -5.44544983 27.86599731 C-5.44265935 31.12906917 -5.41152112 34.39123168 -5.38020325 37.65414429 C-5.37274431 39.91429648 -5.36704974 42.17445513 -5.36305237 44.43461609 C-5.34776884 50.38765268 -5.30846321 56.34029982 -5.26423645 62.29318237 C-5.22334257 68.36592337 -5.20505391 74.43872721 -5.18489075 80.51156616 C-5.14197192 92.4303572 -5.07368743 104.34885901 -4.98957825 116.26742554 C-1.70491199 113.01461634 1.3588658 109.74250422 4.26042175 106.14242554 C5.42831238 104.6999646 5.42831238 104.6999646 6.61979675 103.22836304 C7.80315613 101.76269897 7.80315613 101.76269897 9.01042175 100.26742554 C11.24945286 97.52654262 13.49263596 94.78911173 15.73698425 92.05258179 C17.32354115 90.10891328 18.90097024 88.15777384 20.47135925 86.20101929 C21.26799988 85.21230835 22.0646405 84.22359741 22.88542175 83.20492554 C23.60471863 82.30644897 24.3240155 81.40797241 25.06510925 80.48226929 C27.01042175 78.26742554 27.01042175 78.26742554 30.01042175 76.26742554 C33.17341861 76.40689626 34.54916562 76.7823292 36.748703 79.09555054 C37.26819519 79.89476929 37.78768738 80.69398804 38.32292175 81.51742554 C39.20077332 82.85160522 39.20077332 82.85160522 40.09635925 84.21273804 C40.72799988 85.22078491 41.3596405 86.22883179 42.01042175 87.26742554 C42.37168152 87.84331421 42.73294128 88.41920288 43.10514832 89.01254272 C45.43948079 92.74465496 47.73601777 96.49841322 50.01042175 100.26742554 C55.6883932 96.00894695 59.66868298 90.8417092 64.01042175 85.26742554 C65.48399158 83.45037236 66.96324774 81.63791706 68.44792175 79.82992554 C69.19815613 78.91469116 69.9483905 77.99945679 70.72135925 77.05648804 C72.24740092 75.19711304 73.77344259 73.33773804 75.29948425 71.47836304 C76.04971863 70.56312866 76.799953 69.64789429 77.57292175 68.70492554 C78.31413269 67.8090271 79.05534363 66.91312866 79.8190155 65.99008179 C81.29354054 64.15809614 82.72320059 62.28917972 84.108078 60.38851929 C89.08467449 53.64758031 89.08467449 53.64758031 92.06510925 52.42367554 C94.01042175 52.14242554 94.01042175 52.14242554 97.01042175 52.26742554 C101.51273137 58.04070279 105.4816286 64.03907724 109.32292175 70.26742554 C110.37826638 71.97776797 111.43667879 73.68622271 112.498703 75.39242554 C112.95801208 76.13750366 113.41732117 76.88258179 113.89054871 77.65023804 C114.26010681 78.18390991 114.62966492 78.71758179 115.01042175 79.26742554 C115.34042175 79.26742554 115.67042175 79.26742554 116.01042175 79.26742554 C116.08001148 71.40041955 116.13327842 63.53348602 116.16585827 55.66624928 C116.18149708 52.01293355 116.20270224 48.35982882 116.23674011 44.70663452 C116.269398 41.17937338 116.28728819 37.65231486 116.29505348 34.12491417 C116.30327309 32.12798245 116.32668236 30.13113195 116.35031128 28.13432312 C116.35053787 26.91343491 116.35076447 25.69254669 116.35099792 24.43466187 C116.35765976 23.36210648 116.36432159 22.28955109 116.3711853 21.18449402 C115.95754339 17.83986067 114.99785402 15.96537226 113.01042175 13.26742554 C110.63716116 12.08079524 109.19304849 12.1366033 106.5448761 12.12698364 C105.60552216 12.1212735 104.66616821 12.11556335 103.698349 12.10968018 C102.14763702 12.10800339 102.14763702 12.10800339 100.56559753 12.10629272 C99.47933075 12.10132782 98.39306396 12.09636292 97.27388 12.09124756 C93.66782506 12.07660042 90.0618141 12.06981991 86.45573425 12.06430054 C83.95710752 12.05855148 81.45848082 12.05279372 78.95985413 12.04702759 C74.38666451 12.03785596 69.81348757 12.0315584 65.24028981 12.02853084 C58.50842119 12.02404977 51.77675558 12.00650012 45.0449487 11.97753024 C39.21543799 11.95331367 33.38599508 11.94558675 27.55643845 11.94385529 C25.07566599 11.94082249 22.59489452 11.93277301 20.11415482 11.9196701 C16.64729064 11.90266496 13.18092369 11.90447646 9.71403503 11.91098022 C8.68427551 11.90176544 7.65451599 11.89255066 6.59355164 11.88305664 C5.17606125 11.89141037 5.17606125 11.89141037 3.72993469 11.89993286 C2.91029299 11.8984663 2.09065128 11.89699974 1.24617195 11.89548874 C-1.60196613 12.36930167 -2.95606461 13.22906892 -4.98957825 15.26742554 Z M93.01042175 68.26742554 C92.0767016 69.29061765 91.18355753 70.35086499 90.30729675 71.42367554 C89.74542664 72.10873169 89.18355652 72.79378784 88.60466003 73.49960327 C87.9960614 74.24798462 87.38746277 74.99636597 86.76042175 75.76742554 C86.13506531 76.53192017 85.50970886 77.29641479 84.86540222 78.08407593 C82.91052005 80.47591729 80.96009686 82.87133867 79.01042175 85.26742554 C77.83077426 86.71407275 76.65108843 88.16068869 75.47135925 89.60726929 C69.6138939 96.7977079 63.78488601 104.01009281 58.01042175 111.26742554 C65.21092683 125.63206321 65.21092683 125.63206321 75.01042175 138.26742554 C77.54556969 138.39322987 80.05198228 138.45607548 82.58854675 138.47055054 C83.35213501 138.47625061 84.11572327 138.48195068 84.90245056 138.48782349 C86.52322498 138.49728961 88.14401879 138.50381384 89.76481628 138.50765991 C92.23635442 138.51733136 94.70704898 138.54832397 97.1783905 138.57992554 C98.75260431 138.58645888 100.32682408 138.59170805 101.90104675 138.59555054 C102.63768555 138.60789734 103.37432434 138.62024414 104.13328552 138.63296509 C108.58946221 138.61378129 111.51379705 138.1029307 115.01042175 135.26742554 C118.31472602 125.35451273 118.46430077 109.06546198 114.87516785 99.12240601 C112.09894213 93.75641051 108.52746449 89.07188989 104.70817566 84.41000366 C102.10399116 81.12350335 99.94859652 77.58816016 97.76042175 74.01742554 C96.5438109 72.07127217 95.30427823 70.16424426 94.01042175 68.26742554 C93.68042175 68.26742554 93.35042175 68.26742554 93.01042175 68.26742554 Z M30.01042175 93.26742554 C28.28146385 95.10310923 26.67199495 96.94784622 25.07292175 98.89242554 C24.58565613 99.47637085 24.0983905 100.06031616 23.59635925 100.66195679 C19.69033268 105.37127931 15.90872097 110.17473352 12.15959167 115.0093689 C8.40323153 119.83242474 4.47806164 124.49543592 0.44987488 129.09359741 C-1.62672547 131.49533755 -2.97329764 133.21858372 -3.98957825 136.26742554 C-0.58718986 138.32847178 2.02712362 138.51105284 5.97233582 138.49447632 C7.17327881 138.49432526 8.3742218 138.49417419 9.61155701 138.49401855 C10.90333862 138.48369598 12.19512024 138.47337341 13.52604675 138.46273804 C14.86554249 138.45900587 16.20504096 138.45615986 17.54454041 138.4541626 C21.06270441 138.4465421 24.58070215 138.4269074 28.09880066 138.40475464 C31.69171398 138.38426197 35.28465428 138.37515358 38.87760925 138.36508179 C45.92194792 138.34365988 52.96617396 138.30954318 60.01042175 138.26742554 C58.90181185 136.3570088 57.79194918 134.44731899 56.68156433 132.53793335 C56.06364517 131.47439636 55.44572601 130.41085937 54.80908203 129.31509399 C52.54355507 125.47636183 50.15094657 121.73796232 47.69792175 118.01742554 C44.79334977 113.58514722 41.91600034 109.14399273 39.15104675 104.62289429 C38.69641052 103.88136108 38.24177429 103.13982788 37.77336121 102.37582397 C36.90389422 100.95174948 36.04023473 99.52410946 35.18302917 98.09262085 C34.17838448 96.45066575 33.10121773 94.85345569 32.01042175 93.26742554 C31.35042175 93.26742554 30.69042175 93.26742554 30.01042175 93.26742554 Z " fill="#000000" transform="translate(205.9895782470703,181.73257446289063)"/>
<path d="M0 0 C1.05656538 -0.00453111 2.11313075 -0.00906223 3.20171326 -0.01373065 C6.73593519 -0.02637328 10.27000298 -0.02475434 13.804245 -0.02310181 C16.34074603 -0.02908711 18.87724525 -0.03589266 21.41374207 -0.04345703 C27.5850883 -0.05928905 33.75637824 -0.06556538 39.92774288 -0.06668179 C44.94608853 -0.06763347 49.96442161 -0.07174975 54.98276329 -0.07808304 C69.22317586 -0.09568803 83.46355833 -0.10492303 97.70398185 -0.10342209 C98.47102865 -0.10334218 99.23807545 -0.10326227 100.02836609 -0.10317993 C100.7963537 -0.10309817 101.56434131 -0.10301641 102.35560127 -0.10293217 C114.79974932 -0.1021194 127.24377629 -0.12125676 139.68788932 -0.14945666 C152.47764818 -0.17821025 165.26734805 -0.19199561 178.05714005 -0.19026911 C185.23273884 -0.18960608 192.40821068 -0.19506015 199.58378029 -0.21662521 C206.33323837 -0.23678034 213.08238428 -0.23613811 219.83187103 -0.22159195 C222.30618112 -0.21950166 224.78050794 -0.22421774 227.25478935 -0.23631287 C230.63843519 -0.25177937 234.02115876 -0.24244681 237.40478516 -0.22705078 C238.86556369 -0.24248147 238.86556369 -0.24248147 240.3558529 -0.25822389 C247.30954781 -0.18853798 254.96118014 0.81201625 260.08456498 5.97081625 C263.4730104 10.56629063 264.5148736 14.22098081 264.56987 19.80526733 C264.58270523 20.94042282 264.59554047 22.07557831 264.60876465 23.24513245 C264.61984505 25.08728081 264.61984505 25.08728081 264.63114929 26.96664429 C264.63922104 28.23079666 264.64729279 29.49494904 264.65560913 30.79740906 C264.66945159 33.47649805 264.68046685 36.15546395 264.68803406 38.83456421 C264.69906787 42.24968166 264.73343611 45.66414203 264.77320576 49.07902813 C264.80580465 52.35400102 264.8101627 55.62903391 264.81864929 58.90414429 C264.83615738 60.12212204 264.85366547 61.34009979 264.8717041 62.59498596 C264.85206472 70.32110421 264.22446295 76.30979132 258.61161804 82.10726929 C258.04443054 82.46949585 257.47724304 82.83172241 256.89286804 83.20492554 C256.04208679 83.77533569 256.04208679 83.77533569 255.17411804 84.35726929 C251.79317269 86.08481373 248.58677859 86.39292764 244.82847881 86.3988533 C243.91218187 86.40269445 242.99588493 86.40653559 242.05182141 86.41049314 C240.54731804 86.40919341 240.54731804 86.40919341 239.01242065 86.40786743 C237.9440512 86.41083855 236.87568174 86.41380968 235.77493745 86.41687083 C232.18297351 86.42556573 228.59104286 86.42706675 224.99906921 86.42855835 C222.42858814 86.43318592 219.85810776 86.4382105 217.28762817 86.44360352 C210.29588421 86.45717995 203.30414599 86.46321037 196.31239104 86.46761417 C191.94634044 86.47037755 187.58029204 86.47461506 183.21424294 86.47911835 C171.12461454 86.49130971 159.03498792 86.50160955 146.94535351 86.50499344 C146.17174078 86.505213 145.39812805 86.50543257 144.60107251 86.50565879 C143.43788887 86.50598621 143.43788887 86.50598621 142.25120658 86.50632024 C140.6798561 86.5067637 139.10850563 86.50721027 137.53715515 86.50765991 C136.36799081 86.50799206 136.36799081 86.50799206 135.175207 86.50833091 C122.5445709 86.5122792 109.91399249 86.52973474 97.28337868 86.55301943 C84.31406363 86.57673547 71.34477751 86.58919539 58.37544042 86.59036136 C51.09427804 86.59127793 43.81319084 86.59702591 36.53204918 86.61518097 C29.68419829 86.63219559 22.83649231 86.6338327 15.98862648 86.62504196 C13.47435754 86.62426989 10.96008101 86.62863653 8.4458313 86.63850021 C5.01513852 86.65117064 1.58495534 86.64536915 -1.84573364 86.63491821 C-3.34019877 86.64700282 -3.34019877 86.64700282 -4.86485511 86.65933156 C-11.93714621 86.60889949 -16.74805517 85.60667018 -22.35713196 81.01742554 C-28.07843292 74.02472436 -28.05200137 67.56430215 -28.00556946 58.83383179 C-28.00843964 57.64192734 -28.01130981 56.45002289 -28.01426697 55.22200012 C-28.01630322 52.70808434 -28.0108042 50.19415257 -27.99824524 47.68026733 C-27.9822006 43.84632676 -27.99810268 40.01344266 -28.01728821 36.17953491 C-28.01530542 33.73096489 -28.01146102 31.28239552 -28.00556946 28.83383179 C-28.01164215 27.69402359 -28.01771484 26.55421539 -28.02397156 25.37986755 C-27.96180377 18.29336836 -27.55143738 12.04254982 -23.02900696 6.24398804 C-22.47728821 5.79797241 -21.92556946 5.35195679 -21.35713196 4.89242554 C-20.81572571 4.43094116 -20.27431946 3.96945679 -19.71650696 3.49398804 C-13.48904904 -0.12716342 -6.99807529 -0.02210452 0 0 Z M-14.60713196 16.26742554 C-15.06205757 18.72521343 -15.06205757 18.72521343 -14.99531555 21.51742554 C-15.00477203 22.58863647 -15.01422852 23.65984741 -15.02397156 24.76351929 C-15.01789886 25.91980835 -15.01182617 27.07609741 -15.00556946 28.26742554 C-15.00843964 29.4546521 -15.01130981 30.64187866 -15.01426697 31.86508179 C-15.01630972 34.37680538 -15.01076518 36.88854481 -14.99824524 39.40023804 C-14.98219556 43.25216125 -14.99808783 47.10303509 -15.01728821 50.95492554 C-15.01530582 53.39242786 -15.01146222 55.82992953 -15.00556946 58.26742554 C-15.01164215 59.4237146 -15.01771484 60.58000366 -15.02397156 61.77133179 C-15.01451508 62.84254272 -15.00505859 63.91375366 -14.99531555 65.01742554 C-14.99292877 65.96101929 -14.99054199 66.90461304 -14.98808289 67.87680054 C-14.52611969 70.77581112 -13.88923851 71.47852868 -11.60713196 73.26742554 C-9.51832311 73.71775986 -9.51832311 73.71775986 -7.17023468 73.65053558 C-6.25694539 73.65959222 -5.34365609 73.66864886 -4.40269136 73.67797995 C-2.89556243 73.66998806 -2.89556243 73.66998806 -1.35798645 73.66183472 C-0.29173271 73.66792582 0.77452104 73.67401692 1.8730855 73.68029261 C5.46377078 73.69700809 9.05410476 73.69213456 12.64482117 73.68734741 C15.21179577 73.6946827 17.77876706 73.70326734 20.34573364 73.7130127 C26.60485654 73.73408995 32.86388685 73.73860628 39.12304103 73.73682481 C44.20876815 73.73551848 49.29446632 73.73931471 54.38018799 73.74674988 C55.84369993 73.74884901 57.30721187 73.75094661 58.77072382 73.7530427 C59.49909049 73.75408623 60.22745717 73.75512975 60.97789556 73.7562049 C74.75974584 73.7751161 88.54154291 73.77405422 102.3234008 73.76723558 C114.9406932 73.76165786 127.5577827 73.78249361 140.17502767 73.81559604 C153.12170673 73.84929996 166.06828849 73.86450562 179.01501226 73.85987902 C186.28716244 73.85763117 193.55912501 73.86292333 200.83123779 73.88777161 C207.6668491 73.91092905 214.50203003 73.90824234 221.33764839 73.88784409 C223.85198352 73.88441683 226.36634666 73.88959615 228.88064384 73.90382767 C232.30217313 73.92186392 235.72223963 73.90938648 239.14372253 73.8888855 C240.14847516 73.90140335 241.15322778 73.91392119 242.18842745 73.92681837 C244.69220122 73.89445415 246.95402482 73.83306787 249.39286804 73.26742554 C252.26635675 70.0313898 252.76827931 67.42966868 252.7651825 63.1734314 C252.77452568 61.69180763 252.77452568 61.69180763 252.78405762 60.18025208 C252.77484787 59.12491776 252.76563812 58.06958344 252.75614929 56.98226929 C252.7566478 55.88902847 252.7571463 54.79578766 252.75765991 53.66941833 C252.75532283 51.36214375 252.74561596 49.05486644 252.72904968 46.74765015 C252.70543069 43.2142969 252.70849515 39.68169719 252.71513367 36.14828491 C252.70955757 33.90544187 252.70244812 31.662602 252.69364929 29.41976929 C252.6950164 27.83373146 252.6950164 27.83373146 252.69641113 26.21565247 C252.68687912 25.23105545 252.67734711 24.24645844 252.66752625 23.23202515 C252.66061516 21.93560341 252.66061516 21.93560341 252.65356445 20.61299133 C252.36906493 18.0532616 251.7649064 16.4375188 250.39286804 14.26742554 C248.05675821 13.09937062 246.69734331 13.14011783 244.09463596 13.13599777 C243.18682111 13.13215663 242.27900626 13.12831548 241.34368187 13.12435794 C240.33990736 13.12522442 239.33613284 13.1260909 238.30194092 13.12698364 C237.24062515 13.12401252 236.17930939 13.1210414 235.08583254 13.11798024 C231.50595958 13.10926266 227.92611994 13.10778243 224.34623718 13.10629272 C221.78926522 13.10166678 219.23229395 13.09664243 216.67532349 13.09124756 C209.71265236 13.07810155 202.74999227 13.07163817 195.78731084 13.0672369 C191.44240843 13.06447654 187.09750825 13.06023961 182.75260735 13.05573273 C170.72996313 13.0435395 158.70732071 13.03323981 146.68467045 13.02985764 C145.53003945 13.02952829 145.53003945 13.02952829 144.35208258 13.02919228 C143.58045868 13.02897401 142.80883478 13.02875573 142.01382834 13.02853084 C140.45015212 13.02808737 138.8864759 13.0276408 137.32279968 13.02719116 C136.54715778 13.02696973 135.77151587 13.0267483 134.97236966 13.02652016 C122.39710281 13.02257002 109.82189382 13.00510967 97.24664933 12.98183164 C84.34521763 12.95814192 71.44381501 12.9456569 58.5423612 12.94448972 C51.29483129 12.94357169 44.04737681 12.93778731 36.79986763 12.9196701 C29.98652343 12.90269853 23.17334717 12.9009986 16.35997963 12.90980911 C13.85370755 12.91058333 11.34742798 12.90618661 8.84117508 12.89635086 C5.43086892 12.88374778 2.0210804 12.88944459 -1.38922119 12.89993286 C-2.89153688 12.88784825 -2.89153688 12.88784825 -4.42420238 12.87551951 C-5.33462498 12.88210936 -6.24504758 12.8886992 -7.18305874 12.89548874 C-8.36445121 12.89459311 -8.36445121 12.89459311 -9.5697102 12.89367938 C-12.14406932 13.36592172 -13.03093907 14.21247125 -14.60713196 16.26742554 Z " fill="#000000" transform="translate(215.6071319580078,78.73257446289063)"/>
<path d="M0 0 C3.61217922 2.76282897 6.83421441 5.74023933 10 9 C10.56074219 9.54011719 11.12148437 10.08023437 11.69921875 10.63671875 C21.92288062 21.28972076 26.3965649 37.0615166 26.1484375 51.52734375 C25.11822858 68.68845546 17.99144927 82.94850275 5.6484375 94.828125 C-7.42819977 105.55173905 -23.14729054 110.34055643 -40 109 C-56.63307035 106.21664347 -70.80042841 99.34200446 -81.1875 85.75 C-91.12035883 71.47394996 -95.3027473 55.4463994 -92.34375 38.16796875 C-88.12482933 20.51033095 -79.26071991 7.6492476 -64 -2 C-43.43138301 -13.65856999 -19.88823399 -12.32309236 0 0 Z M-63 13 C-64.03125 13.721875 -65.0625 14.44375 -66.125 15.1875 C-74.41145351 22.39211097 -79.35548097 34.18656498 -80.875 44.875 C-81.41366751 52.70446958 -80.14786324 60.81437126 -77 68 C-76.46375 67.319375 -75.9275 66.63875 -75.375 65.9375 C-74.199375 64.4834375 -74.199375 64.4834375 -73 63 C-72.55269531 62.43410156 -72.10539062 61.86820313 -71.64453125 61.28515625 C-68.16669509 57.02410766 -64.59188099 54.03064145 -60 51 C-60.33 49.865625 -60.66 48.73125 -61 47.5625 C-63.31417993 38.10599495 -61.90885292 30.21587421 -57.1875 21.75 C-51.55978143 14.6751538 -44.81786398 11.12176921 -35.86328125 9.6484375 C-27.73957288 9.28591907 -19.97092694 12.17422457 -13.75390625 17.2734375 C-8.47568903 22.46936625 -5.62604639 28.62918972 -5 36 C-5.13199616 41.11311453 -5.65265307 46.05972792 -7 51 C-6.34773438 51.556875 -5.69546875 52.11375 -5.0234375 52.6875 C0.36961551 57.39647844 5.00873358 62.04554969 9 68 C14.70187696 59.44718456 14.22064378 47.40289792 12.34765625 37.578125 C8.94372986 26.29987963 1.2596369 15.35578214 -8.9296875 9.2421875 C-27.33762705 -0.26016533 -46.32249972 0.32509979 -63 13 Z M-47.3125 28.625 C-50.78782242 33.51619452 -50.59805518 38.12743039 -50 44 C-47.81473658 48.45146251 -45.0605479 51.18885145 -41 54 C-36.40937391 55.5302087 -31.62459862 55.9413765 -26.99609375 54.28125 C-22.03716326 51.62506261 -18.77675083 48.3302525 -17 43 C-16.22485699 36.44305257 -17.12287083 32.34415102 -21 27 C-26.16986463 22.32250343 -29.395009 21.64718637 -36.23828125 21.71875 C-41.38802556 22.24319355 -44.01372397 24.88044342 -47.3125 28.625 Z M-53 61 C-60.74780283 66.19963656 -66.01214707 72.0364412 -69 81 C-60.48102634 89.70416874 -49.16927471 95.99411942 -36.85717773 96.29248047 C-24.13168276 96.40055821 -14.18777337 94.00912529 -4 86 C-3.43925781 85.56429687 -2.87851563 85.12859375 -2.30078125 84.6796875 C-0.14031031 82.79741418 0.95236744 81.58746827 1.1875 78.6875 C-2.09952993 71.24843226 -7.78284454 66.04946636 -14 61 C-14.65484375 61.34933594 -15.3096875 61.69867188 -15.984375 62.05859375 C-24.68344541 66.39584213 -32.82034901 68.44306505 -42.375 65.75 C-46.07209086 64.4560182 -49.56737116 62.89697909 -53 61 Z " fill="#000000" transform="translate(122,277)"/>
<path d="M0 0 C0.66172307 -0.00538554 1.32344614 -0.01077108 2.00522143 -0.01631981 C4.20920427 -0.03055853 6.41258302 -0.02350621 8.61659241 -0.01637268 C10.2021635 -0.02207841 11.78773048 -0.02904346 13.37329102 -0.03717041 C17.6708487 -0.05509455 21.96820211 -0.05393486 26.26578593 -0.04822803 C29.85674142 -0.0451351 33.44765774 -0.05122978 37.03860766 -0.05726677 C45.5115759 -0.07130793 53.98444331 -0.06975411 62.45741272 -0.05836487 C71.19165495 -0.0468837 79.92559012 -0.06096017 88.65979189 -0.08776134 C96.1657146 -0.10992914 103.67154099 -0.1165533 111.17749411 -0.11068493 C115.65739487 -0.10731677 120.13709881 -0.10972104 124.61697197 -0.12693596 C128.83027304 -0.1424203 133.04311975 -0.13843326 137.25640297 -0.11963081 C138.79990935 -0.11594904 140.34344951 -0.11904145 141.88692474 -0.1295166 C156.37171393 -0.22029259 156.37171393 -0.22029259 162.1754303 4.38768005 C166.7272661 9.18556103 168.41578308 13.59915376 168.46595764 20.16844177 C168.47871735 21.30667389 168.49147705 22.44490601 168.50462341 23.61763 C168.50684906 24.8385434 168.50907471 26.05945679 168.5113678 27.31736755 C168.521353 29.21290878 168.521353 29.21290878 168.53153992 31.14674377 C168.54165908 33.81818242 168.54722323 36.48921397 168.54603577 39.16062927 C168.5458327 42.56910983 168.57313104 45.97675546 168.60758018 49.38503838 C168.63528101 52.65411611 168.63400054 55.92318846 168.6363678 59.19236755 C168.65073883 60.40923248 168.66510986 61.62609741 168.67991638 62.87983704 C168.6384599 70.59094555 167.90658409 75.31898913 162.57777405 81.12986755 C157.75728629 84.85771142 154.68846972 85.51341981 148.6803894 85.5415802 C147.68658273 85.54815358 147.68658273 85.54815358 146.67269915 85.55485976 C144.44810209 85.56823594 142.22354463 85.57442396 139.99891663 85.58055115 C138.40556154 85.58845311 136.81220823 85.59672212 135.21885681 85.60533142 C129.98174242 85.63154275 124.74462008 85.64685912 119.50746155 85.66111755 C117.70385419 85.66647778 115.90024689 85.67185529 114.09663963 85.67724991 C106.59305037 85.69887817 99.08946326 85.71761412 91.58585072 85.7288723 C80.8367753 85.7451065 70.08806164 85.77827194 59.33912259 85.83527315 C51.77891468 85.87399574 44.21880342 85.89350779 36.65849894 85.89879286 C32.14433829 85.90244342 27.63056356 85.91443288 23.11651039 85.9468956 C18.86711104 85.97701686 14.61833029 85.98327381 10.36884689 85.97151184 C8.81283828 85.97129144 7.25680062 85.97956911 5.70089149 85.99716568 C-8.45453766 86.14848726 -8.45453766 86.14848726 -14.39282703 81.80271339 C-19.61986533 76.63667789 -20.92965171 70.40464777 -20.98570251 63.28123474 C-20.99531006 62.28960327 -21.0049176 61.2979718 -21.01481628 60.27629089 C-21.01906616 59.21476807 -21.02331604 58.15324524 -21.0276947 57.05955505 C-21.03339478 55.95597656 -21.03909485 54.85239807 -21.04496765 53.71537781 C-21.05440271 51.38203384 -21.06094569 49.04867663 -21.06480408 46.71531677 C-21.07449661 43.16445886 -21.10552963 39.61418318 -21.1370697 36.0634613 C-21.1436017 33.79132931 -21.1488514 31.51919319 -21.1526947 29.24705505 C-21.1650415 28.19362915 -21.17738831 27.14020325 -21.19010925 26.05485535 C-21.16721791 18.39485999 -20.42701472 11.62315224 -15.5120697 5.51268005 C-10.46570942 1.52253471 -6.4323232 0.01324542 0 0 Z M-7.8245697 16.38768005 C-8.42484546 18.88960061 -8.42484546 18.88960061 -8.34214783 21.64353943 C-8.35475647 22.69142639 -8.36736511 23.73931335 -8.38035583 24.81895447 C-8.37225891 25.94507141 -8.36416199 27.07118835 -8.3558197 28.23143005 C-8.35964661 29.39267395 -8.36347351 30.55391785 -8.36741638 31.75035095 C-8.37013762 34.20482755 -8.36276175 36.65933304 -8.34605408 39.11375427 C-8.32464935 42.87368847 -8.34585058 46.63171164 -8.3714447 50.3915863 C-8.36880147 52.77570511 -8.36367658 55.15982273 -8.3558197 57.54393005 C-8.36391663 58.670047 -8.37201355 59.79616394 -8.38035583 60.95640564 C-8.36774719 62.0042926 -8.35513855 63.05217957 -8.34214783 64.13182068 C-8.33896545 65.05241272 -8.33578308 65.97300476 -8.33250427 66.92149353 C-7.64824933 70.24377247 -6.46844276 71.28978086 -3.8245697 73.38768005 C-0.83268731 73.99117941 -0.83268731 73.99117941 2.55189514 73.90234375 C3.86422119 73.91506821 5.17654724 73.92779266 6.52864075 73.94090271 C7.98121823 73.93472041 9.43379396 73.92811438 10.8863678 73.92112732 C12.41740247 73.92818522 13.94843016 73.93692969 15.47944641 73.94723511 C19.63648451 73.96975239 23.79314231 73.96678423 27.9502182 73.95791364 C31.41958647 73.95280697 34.88888306 73.96009359 38.35824394 73.96738571 C46.5415103 73.98439177 54.72459021 73.98081137 62.90785217 73.96409607 C71.3536246 73.94716782 79.79888046 73.96301712 88.24459648 73.99531895 C95.49397548 74.02199605 102.74319349 74.02929615 109.99261665 74.02080387 C114.32326345 74.01586986 118.65359927 74.0181158 122.98420715 74.03859138 C127.05558235 74.05691962 131.12621297 74.05102569 135.19754791 74.02639198 C136.69232052 74.02137517 138.18714959 74.02489653 139.68187714 74.03754044 C141.7208575 74.05342483 143.760018 74.03552947 145.79896545 74.01586914 C146.94048065 74.01528283 148.08199585 74.01469652 149.25810242 74.01409245 C152.37222271 73.62303985 152.37222271 73.62303985 154.54179287 71.00490475 C156.34876105 68.10998959 156.68508277 66.59518777 156.70887756 63.21775818 C156.7247139 62.21321594 156.74055023 61.20867371 156.75686646 60.1736908 C156.75190659 59.09961975 156.74694672 58.02554871 156.74183655 56.91893005 C156.75113441 55.24933228 156.75113441 55.24933228 156.76062012 53.54600525 C156.76771482 51.19587579 156.76455046 48.84569604 156.75184631 46.49559021 C156.73797815 42.90008619 156.77206337 39.3071832 156.81019592 35.7118988 C156.8111471 33.42674192 156.80928836 31.14158177 156.80433655 28.85643005 C156.81759476 27.78235901 156.83085297 26.70828796 156.84451294 25.60166931 C156.83197983 24.59712708 156.81944672 23.59258484 156.80653381 22.55760193 C156.80557205 21.67777649 156.80461029 20.79795105 156.80361938 19.89146423 C155.88607659 16.23439796 154.04553699 14.77519385 151.1754303 12.38768005 C148.10505445 11.6454695 148.10505445 11.6454695 144.7166748 11.75949097 C142.75874496 11.74051003 142.75874496 11.74051003 140.76126099 11.72114563 C139.32175811 11.732461 137.88225918 11.74428845 136.44276428 11.75657654 C134.92143418 11.75143653 133.40011003 11.74415462 131.87879944 11.7348938 C127.75270104 11.71638317 123.62724902 11.72931518 119.50117755 11.7489841 C115.18287579 11.76537192 110.86461493 11.75655766 106.54629517 11.75146484 C99.29569677 11.74694451 92.04535641 11.76281109 84.79481506 11.79075623 C76.41098482 11.82282004 68.02761965 11.8227876 59.64375633 11.80554146 C51.57859744 11.78968181 43.51360914 11.79640549 35.44845772 11.81347847 C32.01588974 11.82035281 28.58345833 11.81931267 25.15089226 11.81193352 C21.10992739 11.80427624 17.06949235 11.81637799 13.02861786 11.84378242 C11.5451445 11.85067283 10.06162173 11.85075716 8.5781498 11.84356689 C6.55449538 11.83488809 4.53077861 11.85324701 2.50720215 11.87301636 C1.37436011 11.87582328 0.24151808 11.8786302 -0.9256525 11.88152218 C-4.47107934 12.50056218 -5.65252466 13.57045135 -7.8245697 16.38768005 Z " fill="#000000" transform="translate(311.82456970214844,348.61231994628906)"/>
<path d="M0 0 C0.87837524 -0.0049649 1.75675049 -0.00992981 2.66174316 -0.01504517 C5.57097148 -0.02966385 8.48014526 -0.03646846 11.3894043 -0.04199219 C13.41098533 -0.04774406 15.43256634 -0.05350179 17.45414734 -0.05926514 C21.69518284 -0.06977441 25.9361994 -0.0756175 30.17724609 -0.07910156 C35.60793768 -0.08458485 41.03837836 -0.10860975 46.46899128 -0.13707352 C50.64603911 -0.15571038 54.82302664 -0.16090607 59.00011253 -0.16243744 C61.00195881 -0.16546233 63.00380406 -0.17348534 65.00560951 -0.18662262 C67.80862051 -0.2037042 70.61102037 -0.20179762 73.4140625 -0.1953125 C74.65101112 -0.20913467 74.65101112 -0.20913467 75.91294861 -0.22323608 C80.81651325 -0.18775183 84.14364058 0.46773796 88.40112305 3.16113281 C92.36934324 7.45110059 93.52186237 10.56933656 93.54829407 16.33416748 C93.55544937 17.40518707 93.56260468 18.47620667 93.56997681 19.5796814 C93.57266571 20.75479279 93.57535461 21.92990417 93.578125 23.140625 C93.5846962 24.37827606 93.5912674 25.61592712 93.59803772 26.89108276 C93.61778754 30.99672689 93.62943878 35.10233195 93.6394043 39.20800781 C93.6434527 40.62283599 93.64756965 42.03766398 93.65175438 43.45249176 C93.67080235 50.10052912 93.68503375 56.7485554 93.69336635 63.39661479 C93.70313527 71.06349373 93.72944711 78.7300837 93.76986724 86.39686084 C93.80005738 92.32734504 93.81483799 98.25774655 93.81814736 104.18830609 C93.82049473 107.72821458 93.82941358 111.26781422 93.85460854 114.80764008 C93.88228458 118.75987427 93.87804921 122.71173026 93.87109375 126.6640625 C93.88390381 127.83107697 93.89671387 128.99809143 93.90991211 130.20046997 C93.86819451 136.70278838 93.63548421 141.07273384 89.40112305 146.16113281 C84.10748207 150.1028932 78.88272197 150.74456836 72.44995117 150.67871094 C71.59356552 150.68572021 70.73717987 150.69272949 69.85484314 150.69995117 C67.04701523 150.71743886 64.24020974 150.7059415 61.43237305 150.69238281 C59.46756804 150.69508038 57.50276433 150.69896501 55.53796387 150.70397949 C51.4292321 150.70986205 47.32084926 150.70135166 43.2121582 150.68261719 C37.95987419 150.6598285 32.70840792 150.67295825 27.45615387 150.69690704 C23.40165099 150.71139862 19.34734026 150.70674363 15.29283142 150.69639587 C13.35684613 150.69373787 11.42084309 150.69696556 9.48487854 150.70631409 C6.77355093 150.71653519 4.06352612 150.70090161 1.35229492 150.67871094 C0.56140976 150.68680786 -0.2294754 150.69490479 -1.04432678 150.70324707 C-6.57396156 150.61989715 -11.17013933 149.62962075 -15.59887695 146.16113281 C-20.5996658 140.28983667 -20.16807844 133.02371137 -20.11645508 125.70581055 C-20.12346436 124.47718292 -20.13047363 123.2485553 -20.13769531 121.98269653 C-20.15222464 118.6332825 -20.14890425 115.2848645 -20.13617897 111.93550754 C-20.12600117 108.41939956 -20.13545763 104.90333206 -20.14172363 101.38722229 C-20.14898527 95.48536603 -20.13945057 89.5837105 -20.12036133 83.68188477 C-20.09858512 76.87092723 -20.10565499 70.06044858 -20.12766695 63.2495026 C-20.14585146 57.38681851 -20.14836476 51.5242781 -20.13791227 45.6615749 C-20.1316953 42.16650457 -20.13079199 38.67165896 -20.14405823 35.17660332 C-20.15781805 31.2799014 -20.1387172 27.38373092 -20.11645508 23.48706055 C-20.124552 22.33725204 -20.13264893 21.18744354 -20.14099121 20.00279236 C-20.07220375 13.49770922 -19.49095271 9.44599949 -15.59887695 4.16113281 C-10.86077521 -0.1462324 -6.12180315 0.00823796 0 0 Z M-5.59887695 12.16113281 C-7.76194309 15.40573202 -7.84845657 16.27626715 -7.84611511 20.01940918 C-7.8503096 21.02048203 -7.85450409 22.02155487 -7.85882568 23.05296326 C-7.85320618 24.15020218 -7.84758667 25.2474411 -7.84179688 26.37792969 C-7.84369522 27.53422379 -7.84559357 28.69051788 -7.84754944 29.8818512 C-7.85126249 33.71459677 -7.84054522 37.547154 -7.8293457 41.37988281 C-7.82815408 44.03642051 -7.82764986 46.69295022 -7.82795715 49.3494873 C-7.82702051 54.92132929 -7.81833666 60.49311682 -7.8046875 66.06494141 C-7.78896198 72.50820458 -7.78368941 78.95140811 -7.78442305 85.39468908 C-7.78503332 91.59102042 -7.77992798 97.78733233 -7.77163124 103.98365784 C-7.76844241 106.62154523 -7.76647667 109.25943439 -7.76573753 111.89732361 C-7.76357626 115.57969171 -7.75483651 119.26198404 -7.74414062 122.94433594 C-7.74459381 124.04157486 -7.745047 125.13881378 -7.74551392 126.26930237 C-7.74124893 127.27037521 -7.73698395 128.27144806 -7.73258972 129.30285645 C-7.73091388 130.17374153 -7.72923803 131.04462662 -7.72751141 131.94190216 C-7.68553872 134.3358158 -7.68553872 134.3358158 -6.59887695 137.16113281 C-2.94656205 138.37857111 0.41818572 138.31660648 4.22143555 138.32226562 C5.41455353 138.32971298 5.41455353 138.32971298 6.6317749 138.33731079 C9.26323306 138.35191768 11.89463101 138.35873077 14.52612305 138.36425781 C16.35310874 138.37000901 18.18009442 138.37576675 20.00708008 138.38153076 C23.83699831 138.39203553 27.66689556 138.39788211 31.49682617 138.40136719 C36.40992107 138.406861 41.32274009 138.43091005 46.23574829 138.45933914 C50.00863463 138.47793674 53.78145401 138.48316951 57.55438232 138.48470306 C59.36612461 138.48773496 61.17786557 138.49578149 62.98956299 138.50888824 C65.52019469 138.52589424 68.05014531 138.52408246 70.58081055 138.51757812 C71.70770294 138.5314003 71.70770294 138.5314003 72.85736084 138.54550171 C76.71087631 138.56684338 76.71087631 138.56684338 80.09358501 136.94417953 C81.81600508 134.5953718 81.77589873 133.16490244 81.77534485 130.26489258 C81.78235916 129.25540558 81.78937347 128.24591858 81.79660034 127.20584106 C81.7889566 126.0992514 81.78131287 124.99266174 81.7734375 123.85253906 C81.77708817 122.68649139 81.78073883 121.52044373 81.78450012 120.31906128 C81.79262481 116.45377161 81.77897908 112.58889862 81.7644043 108.72363281 C81.76388592 106.04467172 81.76435027 103.36572658 81.76591492 100.68676758 C81.76679799 95.06782021 81.75571485 89.44899346 81.73730469 83.83007812 C81.7161368 77.33224758 81.71262708 70.83459376 81.71886665 64.33673573 C81.72455992 58.08806333 81.7189151 51.83945321 81.7076931 45.59078979 C81.70383567 42.93057506 81.70269512 40.270355 81.70427895 37.61013794 C81.70464856 33.89656343 81.69205813 30.18326041 81.67578125 26.46972656 C81.67825867 25.3631369 81.68073608 24.25654724 81.68328857 23.11642456 C81.67620377 22.10693756 81.66911896 21.09745056 81.66181946 20.05737305 C81.65976659 19.17911362 81.65771372 18.30085419 81.65559864 17.39598083 C81.54108367 14.87598617 81.54108367 14.87598617 79.40112305 12.16113281 C76.66111048 11.85892768 74.14599746 11.75171615 71.40307617 11.77294922 C70.57694321 11.76769226 69.75081024 11.7624353 68.89964294 11.75701904 C66.1603624 11.74378159 63.42165981 11.75257021 60.68237305 11.76269531 C58.78430062 11.76067565 56.88622894 11.75776512 54.98815918 11.7539978 C51.00676091 11.74956938 47.02556432 11.75602215 43.04418945 11.77001953 C37.93250731 11.78711172 32.82129766 11.7772733 27.70963287 11.75930214 C23.78920918 11.74847828 19.8688981 11.7519042 15.94847107 11.75968552 C14.06334884 11.7616914 12.1782165 11.75921471 10.29310608 11.75224686 C7.66151723 11.74465527 5.030701 11.75620391 2.39916992 11.77294922 C1.61468979 11.76687653 0.83020966 11.76080383 0.0219574 11.75454712 C-2.36502011 11.74743873 -2.36502011 11.74743873 -5.59887695 12.16113281 Z " fill="#000000" transform="translate(386.598876953125,181.8388671875)"/>
<path d="M0 0 C0.94147888 -0.00960754 1.88295776 -0.01921509 2.85296631 -0.02911377 C3.87376282 -0.03336365 4.89455933 -0.03761353 5.94628906 -0.04199219 C6.99463928 -0.04769226 8.0429895 -0.05339233 9.12310791 -0.05926514 C11.34573352 -0.06872452 13.56837322 -0.07525283 15.79101562 -0.07910156 C19.18417036 -0.08878799 22.57671458 -0.11979511 25.96972656 -0.15136719 C28.12857713 -0.15789908 30.28743203 -0.16314882 32.44628906 -0.16699219 C33.96533844 -0.18551239 33.96533844 -0.18551239 35.51507568 -0.20440674 C40.91696633 -0.187415 44.82338349 0.06447562 49.46191406 3.16113281 C53.57676719 7.72083493 54.58609046 10.18431296 54.63891602 16.25976562 C54.65816887 18.18251312 54.65816887 18.18251312 54.67781067 20.144104 C54.68597911 21.55081801 54.69342264 22.95753639 54.70019531 24.36425781 C54.70427084 25.07205132 54.70834637 25.77984482 54.71254539 26.50908661 C54.73340969 30.2571941 54.74770838 34.00526496 54.75708008 37.75341797 C54.76813027 41.61824799 54.80251216 45.48249997 54.84225178 49.34712601 C54.86844758 52.32406659 54.87677461 55.30087026 54.88036156 58.27791595 C54.88522191 59.7020329 54.89682032 61.12614396 54.91539955 62.55014801 C54.93984348 64.54826401 54.93640104 66.54666147 54.93188477 68.54492188 C54.93775101 69.68028381 54.94361725 70.81564575 54.94966125 71.9854126 C54.17471247 77.03110134 51.60115664 80.1176249 47.90527344 83.50292969 C43.02563902 85.85279334 38.7192781 85.73477664 33.36816406 85.69238281 C32.30327759 85.69620972 31.23839111 85.70003662 30.14123535 85.70397949 C27.89541679 85.70669491 25.64956639 85.69935975 23.40380859 85.68261719 C19.97323862 85.6612035 16.54476292 85.68243272 13.11425781 85.70800781 C10.92805529 85.70536447 8.74185407 85.70023937 6.55566406 85.69238281 C5.53363892 85.70047974 4.51161377 85.70857666 3.45861816 85.71691895 C-2.53504002 85.6382963 -5.96068559 85.12578156 -10.53808594 81.16113281 C-15.02158541 76.31410635 -15.65587822 72.86466453 -15.69921875 66.40209961 C-15.70882629 65.24377121 -15.71843384 64.08544281 -15.72833252 62.89201355 C-15.7325824 61.64406509 -15.73683228 60.39611664 -15.74121094 59.11035156 C-15.74691101 57.82304642 -15.75261108 56.53574127 -15.75848389 55.20942688 C-15.76897379 52.48507291 -15.77482943 49.76074826 -15.77832031 47.03637695 C-15.7837977 43.55965864 -15.80781749 40.08333339 -15.83629227 36.60673809 C-15.8594913 33.2746173 -15.86137301 29.94254887 -15.86621094 26.61035156 C-15.87855774 25.3684758 -15.89090454 24.12660004 -15.90362549 22.84709167 C-15.88558426 15.82690607 -15.85368765 9.92387674 -11.00292969 4.41894531 C-7.01534635 1.46140268 -4.92672834 0.04052117 0 0 Z M-2.53808594 14.16113281 C-2.84487594 16.65467759 -2.84487594 16.65467759 -2.796875 19.58886719 C-2.80317932 20.7234436 -2.80948364 21.85802002 -2.815979 23.02697754 C-2.81193054 24.25718628 -2.80788208 25.48739502 -2.80371094 26.75488281 C-2.80562439 28.01248413 -2.80753784 29.27008545 -2.80950928 30.5657959 C-2.81087243 33.22906156 -2.808166 35.89196211 -2.79882812 38.55517578 C-2.78743346 41.97184675 -2.79399341 45.38820354 -2.80597305 48.80486298 C-2.81493047 52.05904761 -2.80866222 55.31319409 -2.80371094 58.56738281 C-2.8077594 59.79759155 -2.81180786 61.02780029 -2.815979 62.29528809 C-2.80967468 63.4298645 -2.80337036 64.56444092 -2.796875 65.73339844 C-2.79528381 66.73552368 -2.79369263 67.73764893 -2.79205322 68.7701416 C-2.77166033 71.34653422 -2.77166033 71.34653422 -0.53808594 73.16113281 C2.52370179 73.36127434 5.49310699 73.44084353 8.55566406 73.42675781 C9.45812866 73.42867126 10.36059326 73.43058472 11.29040527 73.43255615 C13.20027953 73.4339184 15.11016302 73.43021919 17.02001953 73.421875 C19.95008056 73.41117602 22.87952844 73.42176892 25.80957031 73.43457031 C27.66243625 73.43324872 29.51530181 73.43068635 31.36816406 73.42675781 C32.24839233 73.43080627 33.12862061 73.43485474 34.03552246 73.43902588 C38.73157555 73.63072954 38.73157555 73.63072954 42.46191406 71.16113281 C42.76870406 68.66758803 42.76870406 68.66758803 42.72070312 65.73339844 C42.72700745 64.59882202 42.73331177 63.46424561 42.73980713 62.29528809 C42.73575867 61.06507935 42.73171021 59.83487061 42.72753906 58.56738281 C42.72945251 57.30978149 42.73136597 56.05218018 42.7333374 54.75646973 C42.73470055 52.09320406 42.73199412 49.43030351 42.72265625 46.76708984 C42.71126158 43.35041887 42.71782154 39.93406209 42.72980118 36.51740265 C42.7387586 33.26321802 42.73249034 30.00907154 42.72753906 26.75488281 C42.73158752 25.52467407 42.73563599 24.29446533 42.73980713 23.02697754 C42.73350281 21.89240112 42.72719849 20.75782471 42.72070312 19.58886719 C42.71911194 18.58674194 42.71752075 17.5846167 42.71588135 16.55212402 C42.69548845 13.97573141 42.69548845 13.97573141 40.46191406 12.16113281 C37.40012634 11.96099129 34.43072114 11.8814221 31.36816406 11.89550781 C30.46569946 11.89359436 29.56323486 11.89168091 28.63342285 11.88970947 C26.7235486 11.88834722 24.8136651 11.89204644 22.90380859 11.90039062 C19.97374756 11.9110896 17.04429968 11.90049671 14.11425781 11.88769531 C12.26139187 11.8890169 10.40852631 11.89157928 8.55566406 11.89550781 C7.67543579 11.89145935 6.79520752 11.88741089 5.88830566 11.88323975 C1.19225257 11.69153608 1.19225257 11.69153608 -2.53808594 14.16113281 Z " fill="#000000" transform="translate(203.5380859375,348.8388671875)"/>
<path d="M0 0 C5.31902066 3.05560761 10.19842185 8.22056056 12.171875 14.10546875 C12.56500393 16.42890489 12.65195379 18.61600047 12.64453125 20.97265625 C12.64839844 22.18888672 12.64839844 22.18888672 12.65234375 23.4296875 C12.51953125 26.16015625 12.51953125 26.16015625 11.609375 29.578125 C11.17415928 33.00277093 11.17415928 33.00277093 12.65625 34.82348633 C14.35629004 36.53255267 16.1140204 38.10635634 17.95703125 39.66015625 C24.37688528 45.10610054 24.37688528 45.10610054 25.03125 49.94140625 C24.51953125 53.16015625 24.51953125 53.16015625 22.89453125 55.16015625 C19.5594678 56.56439349 17.99421564 56.20048092 14.51953125 55.16015625 C11.43955992 52.65432269 8.90914392 49.6131037 6.28710938 46.64453125 C4.76150122 45.00129021 3.32018011 43.49732362 1.51953125 42.16015625 C-1.03827189 42.11211601 -1.03827189 42.11211601 -3.48046875 43.16015625 C-11.07441573 43.75328143 -18.31857019 44.18512136 -24.48046875 39.16015625 C-29.5240371 33.85707543 -32.12347698 28.73007393 -32.85546875 21.41015625 C-32.66298267 15.49970134 -30.73033811 9.75123803 -26.83203125 5.26171875 C-19.43092611 -1.36372471 -9.55166894 -3.23402964 0 0 Z M-18.48046875 15.16015625 C-20.09486135 18.38894144 -20.06229595 21.66919307 -19.48046875 25.16015625 C-16.92342527 28.80200606 -15.25774166 29.93807827 -10.98046875 31.16015625 C-6.9993431 31.16015625 -5.51536439 30.68923595 -2.48046875 28.16015625 C-0.15563973 25.29286713 0.53432509 23.87026074 0.45703125 20.16015625 C-0.6132894 16.73513017 -2.0301957 14.7589307 -4.48046875 12.16015625 C-9.97089521 9.41494302 -14.38195396 11.06164146 -18.48046875 15.16015625 Z " fill="#000000" transform="translate(416.48046875,94.83984375)"/>
<path d="M0 0 C1.46374557 -0.01268921 1.46374557 -0.01268921 2.95706177 -0.02563477 C4.02624847 -0.01956207 5.09543518 -0.01348938 6.19702148 -0.00723267 C7.32405487 -0.01248962 8.45108826 -0.01774658 9.61227417 -0.02316284 C13.34769439 -0.03639562 17.08269048 -0.02761283 20.81811523 -0.01748657 C23.40739016 -0.01950636 25.99666453 -0.02241699 28.5859375 -0.02618408 C34.0165805 -0.0306119 39.4470633 -0.02444659 44.87768555 -0.01016235 C51.15743981 0.00616455 57.43690188 0.00087613 63.71664906 -0.01564157 C69.75603591 -0.03089163 75.79527972 -0.029283 81.83468628 -0.02049637 C84.4055892 -0.01849092 86.97649954 -0.02096566 89.5473938 -0.02793503 C93.13653498 -0.03552877 96.72511011 -0.02397373 100.31420898 -0.00723267 C101.91798904 -0.01634171 101.91798904 -0.01634171 103.5541687 -0.02563477 C104.52999908 -0.01717529 105.50582947 -0.00871582 106.51123047 0 C107.35999252 0.00113108 108.20875458 0.00226215 109.08323669 0.00342751 C111.25561523 0.38095093 111.25561523 0.38095093 113.05995178 1.68210411 C114.25561523 3.38095093 114.25561523 3.38095093 114.13061523 6.94345093 C113.25561523 10.38095093 113.25561523 10.38095093 110.25561523 12.38095093 C108.09885406 12.63542652 108.09885406 12.63542652 105.54919434 12.64164734 C104.58177811 12.64873215 103.61436188 12.65581696 102.61763 12.66311646 C101.55779404 12.66063904 100.49795807 12.65816162 99.40600586 12.65560913 C97.73008614 12.66327553 97.73008614 12.66327553 96.02030945 12.6710968 C92.31744063 12.68502696 88.61475718 12.68403359 84.91186523 12.68173218 C82.34501068 12.68561689 79.77815678 12.68995109 77.21130371 12.69471741 C71.82777553 12.70218676 66.4443196 12.70202068 61.06079102 12.69662476 C54.83557998 12.69058125 48.61059474 12.70290504 42.38542223 12.72419482 C36.39837517 12.74391822 30.41144663 12.74698669 24.42436218 12.7434597 C21.87578297 12.7439744 19.32720026 12.74923978 16.77864075 12.75927162 C13.22065645 12.77155851 9.66319997 12.76489092 6.10522461 12.75326538 C4.51547066 12.76473099 4.51547066 12.76473099 2.89360046 12.77642822 C1.44247612 12.76590675 1.44247612 12.76590675 -0.03796387 12.75517273 C-1.30004543 12.75542434 -1.30004543 12.75542434 -2.5876236 12.75568104 C-5.26063079 12.29125489 -6.14598073 11.54474481 -7.74438477 9.38095093 C-8.38568469 4.2505515 -8.38568469 4.2505515 -6.51747131 1.71726036 C-4.21316757 -0.01940773 -2.87053228 0.00382533 0 0 Z " fill="#000000" transform="translate(234.744384765625,115.61904907226563)"/>
<path d="M0 0 C5.56340585 3.36669624 9.53349183 8.25193794 11.5 14.4375 C12.30869642 22.30818497 12.57501419 29.99613583 7.5 36.4375 C3.10626711 41.41175201 -1.93604606 44.34176842 -8.5 45.4375 C-16.01410733 45.79123116 -21.72137101 44.29470751 -27.5 39.4375 C-32.68892461 34.36388483 -35.28256765 28.92683846 -35.6328125 21.6953125 C-35.32763525 15.21478387 -33.85470663 10.31391965 -29.5 5.4375 C-21.37454913 -1.81680117 -10.45710436 -4.75138334 0 0 Z M-21.3125 15.125 C-23.06934427 18.54622305 -23.28220664 21.7326849 -22.5 25.4375 C-20.74700706 28.4565434 -18.66977599 30.85261201 -15.5 32.4375 C-9.74789672 32.9549655 -9.74789672 32.9549655 -4.625 30.6875 C-1.70992464 27.60094962 -0.67486401 25.77812405 -0.125 21.5625 C-0.60458455 17.56596204 -1.96739433 15.53290692 -4.5 12.4375 C-10.44559496 8.07739703 -16.41209989 10.56255852 -21.3125 15.125 Z " fill="#000000" transform="translate(267.5,206.5625)"/>
<path d="M0 0 C0.71606918 -0.00525696 1.43213837 -0.01051392 2.16990662 -0.01593018 C4.52617494 -0.02908558 6.88176246 -0.02040931 9.23803711 -0.01025391 C10.88040801 -0.01227571 12.52277804 -0.01518804 14.16514587 -0.01895142 C17.60237194 -0.02336852 21.03936371 -0.01696278 24.4765625 -0.00292969 C28.88063449 0.01417548 33.28415852 0.00430895 37.68821049 -0.01364708 C41.07771429 -0.02449008 44.46708827 -0.02103647 47.85659599 -0.0132637 C49.48049421 -0.01126382 51.10440424 -0.01371356 52.72828865 -0.02070236 C54.9975621 -0.02832703 57.2659488 -0.01670005 59.53515625 0 C60.82579483 0.00238678 62.11643341 0.00477356 63.44618225 0.00723267 C66.89259343 0.41037514 68.26622365 0.97828153 70.70288086 3.38818359 C71.64038086 5.26318359 71.64038086 5.26318359 71.70288086 7.38818359 C69.4413424 12.01895282 69.4413424 12.01895282 66.70288086 13.38818359 C64.35529019 13.49589765 62.00456986 13.53712211 59.65454102 13.54931641 C58.92915634 13.55428131 58.20377167 13.55924622 57.45640564 13.56436157 C55.0515753 13.57899218 52.64681093 13.58578665 50.24194336 13.59130859 C48.57286578 13.59705929 46.90378823 13.60281704 45.23471069 13.60858154 C41.73256115 13.61909408 38.23043459 13.62493509 34.72827148 13.62841797 C30.24009458 13.63390337 25.75222095 13.65793116 21.26413918 13.68638992 C17.81547152 13.70501118 14.36687699 13.71022162 10.9181633 13.71175385 C9.26354692 13.71478205 7.60893188 13.72281626 5.95436478 13.73593903 C3.63934491 13.75298928 1.32506691 13.75112213 -0.98999023 13.74462891 C-2.30744232 13.74827454 -3.62489441 13.75192017 -4.98226929 13.75567627 C-8.47672317 13.36827224 -9.91868777 12.94443517 -12.29711914 10.38818359 C-12.85961914 6.88818359 -12.85961914 6.88818359 -12.29711914 3.38818359 C-8.33537049 0.1592952 -5.00169112 0.00924394 0 0 Z " fill="#000000" transform="translate(384.297119140625,384.61181640625)"/>
<path d="M0 0 C1.72221268 -0.02409439 1.72221268 -0.02409439 3.47921753 -0.04867554 C8.72733824 -0.09300912 13.97537139 -0.13462196 19.22363281 -0.15722656 C21.99610336 -0.17057296 24.76783907 -0.19843734 27.54003906 -0.23925781 C31.52813806 -0.29798174 35.51587787 -0.31587672 39.50439453 -0.33056641 C40.74615448 -0.35323578 41.98791443 -0.37590515 43.26730347 -0.39926147 C44.99897263 -0.39498642 44.99897263 -0.39498642 46.765625 -0.390625 C47.78107391 -0.39871185 48.79652283 -0.40679871 49.84274292 -0.41513062 C52.51220703 0.19287109 52.51220703 0.19287109 54.86746216 2.5652771 C56.51220703 5.19287109 56.51220703 5.19287109 56.57470703 7.81787109 C55.15158614 10.99896484 53.60764465 11.66075114 50.51220703 13.19287109 C47.85656738 13.57382202 47.85656738 13.57382202 44.97509766 13.58105469 C43.34815979 13.59523941 43.34815979 13.59523941 41.68835449 13.60971069 C40.52678833 13.603638 39.36522217 13.59756531 38.16845703 13.59130859 C36.36568298 13.59561386 36.36568298 13.59561386 34.52648926 13.6000061 C31.98803231 13.6020456 29.44955961 13.59652379 26.91113281 13.58398438 C23.02649785 13.56793015 19.14290339 13.58383805 15.25830078 13.60302734 C12.79085057 13.60104489 10.323401 13.59720118 7.85595703 13.59130859 C6.69439087 13.59738129 5.53282471 13.60345398 4.33605957 13.60971069 C3.25143433 13.60025421 2.16680908 13.59079773 1.04931641 13.58105469 C-0.37701111 13.57747452 -0.37701111 13.57747452 -1.83215332 13.57382202 C-5.00358113 13.11888139 -6.90051612 12.05232047 -9.48779297 10.19287109 C-10.48779297 8.31787109 -10.48779297 8.31787109 -10.48779297 6.19287109 C-7.78992757 0.66867052 -5.93453727 0.07527742 0 0 Z " fill="#000000" transform="translate(400.48779296875,294.80712890625)"/>
<path d="M0 0 C1.19141098 -0.01283524 2.38282196 -0.02567047 3.6103363 -0.03889465 C4.90302933 -0.04628159 6.19572235 -0.05366852 7.52758789 -0.0612793 C8.18396303 -0.06535482 8.84033817 -0.06943035 9.51660347 -0.07362938 C12.98893036 -0.09448194 16.4612178 -0.10878863 19.93359375 -0.11816406 C23.52297075 -0.12924333 27.1117303 -0.16366168 30.70088863 -0.20333576 C33.45896066 -0.22945229 36.21688423 -0.23785125 38.97506905 -0.24144554 C40.94220415 -0.24869496 42.90923795 -0.27515194 44.87620544 -0.30183411 C46.66805016 -0.29744576 46.66805016 -0.29744576 48.49609375 -0.29296875 C50.07589272 -0.30176811 50.07589272 -0.30176811 51.68760681 -0.31074524 C54.31274414 0.17700195 54.31274414 0.17700195 56.18800354 2.01106262 C57.77463543 5.06647684 57.23100416 6.92777419 56.31274414 10.17700195 C53.64351123 12.84623487 52.35419632 12.43015338 48.62548828 12.43579102 C47.4340773 12.44209534 46.24266632 12.44839966 45.01515198 12.45489502 C43.72245895 12.45084656 42.42976593 12.4467981 41.09790039 12.44262695 C39.7627302 12.44397388 38.42756048 12.44591464 37.09239197 12.44842529 C34.29217872 12.45137629 31.49209297 12.44708049 28.69189453 12.43774414 C25.10269274 12.4263605 21.5137904 12.4329021 17.92459965 12.44488907 C15.16651658 12.45211781 12.40850444 12.44981491 9.65041924 12.44463348 C7.6833718 12.44265012 5.7163216 12.44872498 3.74928284 12.45489502 C2.5547197 12.4485907 1.36015656 12.44228638 0.12939453 12.43579102 C-1.45040443 12.43340424 -1.45040443 12.43340424 -3.06211853 12.43096924 C-5.68725586 12.17700195 -5.68725586 12.17700195 -8.68725586 10.17700195 C-9.66593738 7.31624057 -9.90860697 5.78997427 -8.87475586 2.92700195 C-6.56505944 -0.47676119 -3.83878686 0.0359081 0 0 Z " fill="#000000" transform="translate(399.687255859375,235.822998046875)"/>
<path d="M0 0 C1.601922 -0.00144264 1.601922 -0.00144264 3.23620605 -0.00291443 C4.44756226 -0.01544754 5.65891846 -0.02798065 6.90698242 -0.04089355 C8.21638794 -0.02763535 9.52579346 -0.01437714 10.87487793 -0.00071716 C12.23104035 -0.0015458 13.58720267 -0.004005 14.94335938 -0.00802612 C17.78493499 -0.01088473 20.62572265 0.00382089 23.46716309 0.03126526 C27.10936695 0.06535019 30.75016185 0.0593316 34.39243317 0.04060268 C37.19264467 0.0300333 39.99252833 0.03896951 42.79270935 0.0539875 C44.78855064 0.06169087 46.7844316 0.05431294 48.78027344 0.04675293 C50.59730774 0.07050743 50.59730774 0.07050743 52.4510498 0.09474182 C53.5189978 0.1009404 54.5869458 0.10713898 55.68725586 0.11352539 C58.34362793 0.62818909 58.34362793 0.62818909 60.21972656 2.46621704 C61.81858933 5.54183979 61.33492372 7.37107434 60.34362793 10.62818909 C56.91969275 12.91081254 55.66142923 12.88487688 51.63464355 12.90284729 C50.46332886 12.9123793 49.29201416 12.92191132 48.08520508 12.93173218 C46.81954712 12.93082077 45.55388916 12.92990936 44.24987793 12.92897034 C42.30256775 12.93539803 42.30256775 12.93539803 40.31591797 12.94195557 C37.56876542 12.94941464 34.8217414 12.94912852 32.07458496 12.94386292 C28.55369253 12.93806377 25.03332539 12.95501074 21.51251984 12.97820759 C18.15411684 12.99647666 14.79583041 12.99275997 11.43737793 12.99147034 C10.17171997 13.00068008 8.90606201 13.00988983 7.60205078 13.01937866 C5.84507874 13.01003548 5.84507874 13.01003548 4.0526123 13.00050354 C3.02019409 13.00113297 1.98777588 13.00176239 0.92407227 13.00241089 C-2.03139215 12.57380284 -2.88880768 11.98014578 -4.65637207 9.62818909 C-5.53137207 7.75318909 -5.53137207 7.75318909 -5.65637207 5.62818909 C-3.58463019 0.84770714 -3.58463019 0.84770714 0 0 Z " fill="#000000" transform="translate(395.6563720703125,265.37181091308594)"/>
<path d="M0 0 C1.17139023 -0.00630432 2.34278046 -0.01260864 3.54966736 -0.019104 C5.45589622 -0.01303131 5.45589622 -0.01303131 7.40063477 -0.00683594 C8.7002565 -0.00874939 9.99987823 -0.01066284 11.33888245 -0.01263428 C14.09201806 -0.01558519 16.84502398 -0.01128977 19.59814453 -0.00195312 C23.12681394 0.00943034 26.65517875 0.002889 30.18383694 -0.00909805 C33.54779392 -0.01806586 36.91166912 -0.01178511 40.27563477 -0.00683594 C41.54442978 -0.0108844 42.81322479 -0.01493286 44.12046814 -0.019104 C45.88228172 -0.00964752 45.88228172 -0.00964752 47.6796875 0 C48.71512192 0.00159119 49.75055634 0.00318237 50.81736755 0.00482178 C53.40454102 0.25878906 53.40454102 0.25878906 56.40454102 2.25878906 C57.39583681 5.51590381 57.87950242 7.34513836 56.28063965 10.42076111 C53.68968675 12.95913717 52.1032492 12.7713918 48.51196289 12.79223633 C47.30060669 12.80807266 46.08925049 12.823909 44.84118652 12.84022522 C43.53178101 12.83526535 42.22237549 12.83030548 40.87329102 12.82519531 C39.51712618 12.83042971 38.160965 12.83670552 36.80480957 12.84397888 C33.96336732 12.85438717 31.12242574 12.84981594 28.28100586 12.83520508 C24.63866508 12.81800935 20.99790063 12.84151643 17.35573578 12.87669468 C14.55553729 12.89864923 11.75571724 12.89723237 8.95545959 12.88892937 C6.95956306 12.88770984 4.96369011 12.90766355 2.96789551 12.9278717 C1.15086121 12.90907204 1.15086121 12.90907204 -0.70288086 12.88989258 C-1.77082886 12.88893082 -2.83877686 12.88796906 -3.93908691 12.88697815 C-6.59545898 12.25878906 -6.59545898 12.25878906 -8.50671387 9.88731384 C-9.59545898 7.25878906 -9.59545898 7.25878906 -8.90795898 4.57128906 C-6.41874299 0.18552755 -4.86121571 0.00747614 0 0 Z " fill="#000000" transform="translate(399.595458984375,205.7412109375)"/>
<path d="M0 0 C0.85049927 -0.00428513 1.70099854 -0.00857025 2.57727051 -0.01298523 C4.37263093 -0.01871953 6.16801458 -0.01923542 7.96337891 -0.01489258 C10.70906151 -0.01172991 13.45366908 -0.03521166 16.19921875 -0.06054688 C17.94531114 -0.0628197 19.69140643 -0.06352344 21.4375 -0.0625 C22.25738403 -0.07170975 23.07726807 -0.08091949 23.92199707 -0.09040833 C27.29055241 -0.06307362 29.74148252 0.03140587 32.70898438 1.70629883 C34.5536278 3.65444989 35.13946817 4.60519905 35.21875 7.30078125 C32.95721154 11.93155048 32.95721154 11.93155048 30.21875 13.30078125 C27.27605475 13.43658355 24.35821874 13.51353875 21.4140625 13.5390625 C20.53853729 13.54713425 19.66301208 13.55520599 18.76095581 13.56352234 C16.90657533 13.57736346 15.05216937 13.58808549 13.19775391 13.59594727 C10.36181434 13.61317154 7.52703714 13.65705768 4.69140625 13.70117188 C2.89063358 13.7112978 1.08985099 13.71981422 -0.7109375 13.7265625 C-1.98298538 13.75282463 -1.98298538 13.75282463 -3.2807312 13.77961731 C-7.12204977 13.7654649 -9.13945601 13.75084279 -12.34814453 11.50073242 C-13.78125 9.30078125 -13.78125 9.30078125 -13.78125 5.67578125 C-12.78125 2.30078125 -12.78125 2.30078125 -11.26757812 1.10864258 C-7.55228326 -0.0985364 -3.86644158 -0.00429805 0 0 Z " fill="#000000" transform="translate(329.78125,384.69921875)"/>
<path d="M0 0 C0.85098267 -0.00953201 1.70196533 -0.01906403 2.57873535 -0.02888489 C3.49441284 -0.02797348 4.41009033 -0.02706207 5.35351562 -0.02612305 C6.29658569 -0.03040817 7.23965576 -0.0346933 8.21130371 -0.03910828 C10.20515134 -0.04485112 12.19901991 -0.04535218 14.19287109 -0.04101562 C17.2480834 -0.03785389 20.3023292 -0.06132156 23.35742188 -0.08666992 C25.29361857 -0.08894269 27.22981787 -0.08964652 29.16601562 -0.08862305 C30.53953186 -0.10243767 30.53953186 -0.10243767 31.9407959 -0.11653137 C33.2172699 -0.10718819 33.2172699 -0.10718819 34.51953125 -0.09765625 C35.26771118 -0.09828568 36.01589111 -0.0989151 36.78674316 -0.0995636 C39.32885956 0.38259785 40.2133816 1.22960696 41.75976562 3.2746582 C42.40342608 8.42394187 42.40342608 8.42394187 40.50134277 10.93789673 C38.34256658 12.59488267 37.2198394 12.6542275 34.51953125 12.6628418 C33.66854858 12.67229828 32.81756592 12.68175476 31.9407959 12.6914978 C31.02511841 12.68542511 30.10944092 12.67935242 29.16601562 12.6730957 C28.22294556 12.67596588 27.27987549 12.67883606 26.30822754 12.68179321 C24.31436564 12.68383467 22.32048375 12.67829913 20.32666016 12.66577148 C17.27135518 12.64971909 14.21737311 12.66561753 11.16210938 12.68481445 C9.22590853 12.68283204 7.28970852 12.67898839 5.35351562 12.6730957 C3.97999939 12.68220474 3.97999939 12.68220474 2.57873535 12.6914978 C1.72775269 12.68204132 0.87677002 12.67258484 0 12.6628418 C-1.1222699 12.65926163 -1.1222699 12.65926163 -2.26721191 12.65560913 C-4.82071604 12.16257888 -5.70331069 11.34892375 -7.24023438 9.2746582 C-7.61523438 5.7121582 -7.61523438 5.7121582 -7.24023438 2.2746582 C-4.15579891 0.21836789 -3.48907047 0.02148616 0 0 Z " fill="#000000" transform="translate(71.240234375,209.725341796875)"/>
<path d="M0 0 C1.19496094 -0.00257813 2.38992187 -0.00515625 3.62109375 -0.0078125 C4.87019531 -0.00007813 6.11929688 0.00765625 7.40625 0.015625 C9.27990234 0.00402344 9.27990234 0.00402344 11.19140625 -0.0078125 C12.98384766 -0.00394531 12.98384766 -0.00394531 14.8125 0 C16.45702148 0.00338379 16.45702148 0.00338379 18.13476562 0.00683594 C20.90625 0.265625 20.90625 0.265625 23.90625 2.265625 C25.09067276 5.39588515 25.10587055 6.78154515 23.82226562 9.89428711 C21.90625 12.265625 21.90625 12.265625 18.95117188 12.89672852 C17.1809668 12.89564087 17.1809668 12.89564087 15.375 12.89453125 C13.44720703 12.89743164 13.44720703 12.89743164 11.48046875 12.90039062 C10.81192871 12.88790283 10.14338867 12.87541504 9.45458984 12.86254883 C7.41233455 12.82822726 5.37440509 12.84188398 3.33203125 12.86132812 C-6.55087888 12.78698326 -6.55087888 12.78698326 -9.00976562 10.42553711 C-10.55358096 7.34938074 -10.07883259 5.50232493 -9.09375 2.265625 C-5.59245264 -0.06857324 -4.13913161 0.00851673 0 0 Z " fill="#000000" transform="translate(81.09375,430.734375)"/>
<path d="M0 0 C2.05093661 -0.01190287 4.09886842 -0.06107223 6.14916992 -0.11157227 C7.43887695 -0.11866211 8.72858398 -0.12575195 10.05737305 -0.13305664 C11.24387451 -0.14651123 12.43037598 -0.15996582 13.65283203 -0.17382812 C16.6237793 0.42553711 16.6237793 0.42553711 18.57714844 2.75732422 C19.6237793 5.42553711 19.6237793 5.42553711 18.9362793 8.67553711 C17.6237793 11.42553711 17.6237793 11.42553711 15.6237793 12.42553711 C11.17125294 12.72382593 6.71011692 12.70361321 2.2487793 12.73803711 C1.00354492 12.76704102 -0.24168945 12.79604492 -1.5246582 12.82592773 C-2.7209082 12.83430664 -3.9171582 12.84268555 -5.1496582 12.85131836 C-6.24713379 12.86590088 -7.34460938 12.8804834 -8.4753418 12.89550781 C-12.04920305 12.3165074 -13.24464912 11.30929439 -15.3762207 8.42553711 C-14.97455435 -1.61612181 -8.18589128 0.02255066 0 0 Z " fill="#000000" transform="translate(86.376220703125,231.574462890625)"/>
</svg>
