<svg width="300" height="300" viewBox="0 0 300 300" fill="none" xmlns="http://www.w3.org/2000/svg">
<path d="M263.333 150.741C263.333 198.283 213.42 238.148 149.999 238.148C86.579 238.148 36.666 198.283 36.666 150.741C36.666 103.198 86.579 63.3334 149.999 63.3334C213.42 63.3334 263.333 103.198 263.333 150.741Z" stroke="black" stroke-width="6"/>
<path d="M179.074 150.741C179.074 166.798 166.057 179.815 150 179.815C133.942 179.815 120.926 166.798 120.926 150.741C120.926 134.684 133.942 121.667 150 121.667C166.057 121.667 179.074 134.684 179.074 150.741Z" stroke="black" stroke-width="6"/>
<path d="M149.995 212.222C141.921 212.222 133.926 210.631 126.467 207.54C119.008 204.45 112.231 199.92 106.523 194.211C94.9935 182.679 88.5179 167.041 88.5195 150.735C88.5209 134.429 95.0002 118.791 106.531 107.263C118.063 95.7336 133.701 89.2576 150.007 89.2593C166.313 89.2609 181.95 95.7399 193.479 107.271C205.008 118.802 211.484 134.441 211.482 150.747C211.481 167.053 205.002 182.69 193.471 194.219C181.939 205.748 166.301 212.224 149.995 212.222Z" stroke="black" stroke-width="6"/>
</svg>
