<?xml version="1.0" encoding="UTF-8"?>
<svg version="1.1" xmlns="http://www.w3.org/2000/svg" width="512" height="512">
<path d="M0 0 C1.22558445 -0.00644889 2.45116891 -0.01289778 3.71389228 -0.0195421 C5.06562581 -0.01660012 6.41735893 -0.01346471 7.76909161 -0.01015663 C9.21153825 -0.01389447 10.65398287 -0.01849653 12.09642428 -0.02388728 C16.05606677 -0.03611616 20.01562477 -0.03585695 23.97528183 -0.03349853 C28.24738531 -0.03309033 32.5194617 -0.04412973 36.79155254 -0.05361366 C45.15982032 -0.07022391 53.52805991 -0.07572322 61.89634279 -0.07683842 C68.69866336 -0.07778886 75.50097464 -0.08189896 82.30329227 -0.08823967 C101.59039208 -0.10585198 120.87746962 -0.11507853 140.16457752 -0.11357872 C141.20426904 -0.11349881 142.24396056 -0.1134189 143.31515789 -0.11333656 C144.87659994 -0.11321392 144.87659994 -0.11321392 146.46958628 -0.1130888 C163.34079715 -0.11227586 180.21191876 -0.13141572 197.08310381 -0.1596133 C214.40756371 -0.18833991 231.73198006 -0.20215372 249.05646437 -0.20042574 C258.78235499 -0.19976178 268.50815202 -0.20525707 278.23402119 -0.22678185 C286.51464463 -0.24499068 294.79513205 -0.2493434 303.07576684 -0.235763 C307.29969954 -0.2292319 311.52337127 -0.22912116 315.74727917 -0.2464695 C319.6169048 -0.26219913 323.48606252 -0.25933802 327.35567673 -0.24190123 C328.75268939 -0.23883108 330.14973696 -0.24246442 331.54670844 -0.25362138 C340.12190253 -0.31755102 348.16815888 -0.16556278 354.69253379 6.03658736 C358.76860077 10.5160132 361.0685178 14.28122642 361.07804203 20.44355965 C361.08449092 21.49857571 361.09093982 22.55359178 361.09758413 23.64057803 C361.09293832 25.37751512 361.09293832 25.37751512 361.08819866 27.14954185 C361.09272977 28.38054784 361.09726089 29.61155383 361.10192931 30.87986302 C361.11241357 34.2987256 361.11389676 37.71737812 361.11154056 41.13624191 C361.11113283 44.82280935 361.12216736 48.50934526 361.13165569 52.19589806 C361.14827707 59.41975349 361.15376578 66.6435763 361.15488045 73.86744925 C361.1558305 79.73971615 361.15993866 85.61197227 361.1662817 91.48423576 C361.18389818 108.13201691 361.19312008 124.77977227 361.19162075 141.4275628 C361.19154084 142.32527207 361.19146093 143.22298133 361.19137859 144.14789391 C361.19129683 145.04669908 361.19121507 145.94550425 361.19113083 146.87154594 C361.19031809 161.43501569 361.20945166 175.99838197 361.23765533 190.56182179 C361.26638396 205.51431852 361.28019559 220.46676479 361.27846777 235.41928983 C361.2778038 243.81441124 361.28329894 252.20942423 361.30482388 260.6045208 C361.32303554 267.75325787 361.32738328 274.90183739 361.31380503 282.05058762 C361.30727488 285.69719665 361.30715942 289.34350342 361.32451153 292.99008369 C361.34314116 296.94588287 361.33068856 300.90124072 361.31524944 304.85706139 C361.32553657 306.00609656 361.3358237 307.15513174 361.34642255 308.33898616 C361.2805881 315.96523468 360.16558299 321.30153486 355.10983562 327.28070641 C354.560695 327.72672203 354.01155437 328.17273766 353.44577312 328.63226891 C352.90178875 329.09375328 352.35780437 329.55523766 351.79733562 330.03070641 C347.30397198 332.81907831 342.85212996 333.50758657 337.64154625 333.51453781 C336.4159618 333.5209867 335.19037734 333.5274356 333.92765397 333.53407991 C332.57592044 333.53113793 331.22418732 333.52800252 329.87245464 333.52469444 C328.430008 333.52843228 326.98756338 333.53303434 325.54512197 333.53842509 C321.58547948 333.55065398 317.62592148 333.55039476 313.66626441 333.54803634 C309.39416094 333.54762814 305.12208455 333.55866754 300.84999371 333.56815147 C292.48172593 333.58476173 284.11348634 333.59026103 275.74520346 333.59137623 C268.94288289 333.59232667 262.14057161 333.59643677 255.33825397 333.60277748 C236.05115417 333.62038979 216.76407663 333.62961634 197.47696873 333.62811653 C196.43727721 333.62803662 195.39758568 333.62795671 194.32638836 333.62787437 C193.28542699 333.62779261 192.24446562 333.62771085 191.17195997 333.62762661 C174.3007491 333.62681367 157.42962749 333.64595353 140.55844244 333.67415111 C123.23398254 333.70287773 105.90956619 333.71669153 88.58508188 333.71496356 C78.85919126 333.71429959 69.13339423 333.71979488 59.40752506 333.74131966 C51.12690162 333.75952849 42.8464142 333.76388121 34.56577941 333.75030081 C30.34184671 333.74376972 26.11817498 333.74365897 21.89426708 333.76100731 C18.02464145 333.77673694 14.15548373 333.77387583 10.28586952 333.75643905 C8.88885686 333.75336889 7.49180929 333.75700223 6.09483781 333.7681592 C-2.48035628 333.83208883 -10.52661263 333.68010059 -17.05098754 327.47795045 C-21.13297975 322.99201303 -23.42612694 319.22573677 -23.43928909 313.05536079 C-23.44635468 311.99686133 -23.45342028 310.93836187 -23.46069998 309.84778666 C-23.45828489 308.68593765 -23.45586981 307.52408864 -23.45338154 306.32703209 C-23.45861822 305.09194255 -23.4638549 303.85685301 -23.46925026 302.58433652 C-23.48167376 299.15407652 -23.48509336 295.72402135 -23.48465335 292.29375291 C-23.48630063 288.59491171 -23.49936549 284.89610793 -23.51084614 281.19728661 C-23.53370267 273.10840186 -23.5416175 265.01954334 -23.54667258 256.93063068 C-23.54992895 251.87978983 -23.55645108 246.82895659 -23.56367397 241.77812004 C-23.58324103 227.79353518 -23.59964453 213.80895742 -23.60255051 199.82435799 C-23.60273808 198.92932476 -23.60292565 198.03429153 -23.6031189 197.11213608 C-23.60348515 195.29768419 -23.60384885 193.4832323 -23.60421001 191.66878042 C-23.60439282 190.76808416 -23.60457563 189.8673879 -23.60476398 188.93939781 C-23.60494453 188.03760203 -23.60512508 187.13580624 -23.6053111 186.20668331 C-23.60885266 171.59469291 -23.63587341 156.9828499 -23.67326187 142.37091061 C-23.71134173 127.36869281 -23.73070796 112.36654815 -23.73101002 97.36428094 C-23.73159468 88.94118459 -23.74009185 80.51826404 -23.76900768 72.09521294 C-23.79351734 64.92266564 -23.80080739 57.75035824 -23.78576016 50.5777804 C-23.77858933 46.9189545 -23.7794553 43.26060235 -23.80217075 39.60182953 C-23.82657591 35.63282289 -23.81212947 31.66449243 -23.79395771 27.69544029 C-23.81375766 25.96605111 -23.81375766 25.96605111 -23.83395761 24.20172477 C-23.75205117 16.37661938 -22.15016341 11.43371868 -16.73655981 5.73993754 C-11.74416585 1.20564039 -6.58928457 0.00879052 0 0 Z M-9.17922688 17.25726891 C-12.60225182 26.47225119 -12.60225182 26.47225119 -11.17922688 50.25726891 C107.62077312 50.25726891 226.42077312 50.25726891 348.82077312 50.25726891 C350.90992346 31.34868857 350.90992346 31.34868857 344.00088781 14.3435387 C341.17415237 12.93508191 339.09678244 12.8800566 335.93893814 12.87695217 C334.72880257 12.86851223 333.518667 12.86007229 332.27186066 12.85137659 C330.92720677 12.85717198 329.58255409 12.86325302 328.23790264 12.86958885 C326.81082869 12.86541723 325.38375805 12.85994066 323.95669359 12.85326904 C320.0303737 12.83877302 316.10426297 12.84307204 312.17793143 12.85043585 C307.94539915 12.85515499 303.71291295 12.84266883 299.48039532 12.83241844 C291.1867065 12.81520044 282.89309334 12.81439663 274.59939129 12.81963135 C267.85991383 12.82366868 261.12045878 12.82223469 254.3809824 12.81688309 C253.42269298 12.81613467 252.46440357 12.81538624 251.47707508 12.81461514 C249.53046787 12.8130837 247.58386066 12.81154536 245.63725346 12.81000017 C227.37206764 12.79626429 209.10692462 12.80172048 190.84173977 12.81318539 C174.12289191 12.82311907 157.40415469 12.81017669 140.6853239 12.78625119 C123.52818331 12.76188298 106.3710943 12.7522467 89.21393675 12.75890392 C79.57757566 12.7624012 69.9412997 12.76013062 60.30495167 12.74265289 C52.10174493 12.72795937 43.89868326 12.72725804 35.69547946 12.7447238 C31.50851542 12.75325975 27.32181082 12.75532045 23.13486004 12.74007225 C19.3035952 12.7262919 15.4728137 12.73090166 11.6415773 12.75031149 C10.25400076 12.75409239 8.86638612 12.75108967 7.47884334 12.74069984 C5.59541667 12.72759732 3.71185982 12.7414559 1.82844925 12.75669765 C0.25795078 12.75685866 0.25795078 12.75685866 -1.34427494 12.75702292 C-5.01719346 13.40513364 -6.60545819 14.57572893 -9.17922688 17.25726891 Z M-11.17922688 63.25726891 C-11.24110188 103.86789391 -11.30297688 144.47851891 -11.36672688 186.31976891 C-11.39403889 199.1511776 -11.4213509 211.98258629 -11.44949055 225.20282555 C-11.45952274 236.6868255 -11.45952274 236.6868255 -11.46555805 248.17082787 C-11.46835736 253.2930535 -11.47936906 258.41520815 -11.49595356 263.53740501 C-11.51706802 270.06835684 -11.52270463 276.59919989 -11.5184437 283.13019264 C-11.51933489 285.52876158 -11.52529751 287.92733518 -11.53687227 290.32587636 C-11.55177238 293.56356014 -11.54820494 296.80071644 -11.53999043 300.03841209 C-11.54872842 300.9788156 -11.55746641 301.91921911 -11.56646919 302.8881197 C-11.52857024 308.43789781 -10.93602093 312.39173777 -8.17922688 317.25726891 C-4.9730741 320.32788859 -2.67030689 320.63328669 1.70260811 320.63758564 C2.91274368 320.64602558 4.12287925 320.65446552 5.36968559 320.66316122 C6.71433948 320.65736583 8.05899216 320.65128479 9.40364361 320.64494896 C10.83071756 320.64912058 12.2577882 320.65459715 13.68485266 320.66126877 C17.61117255 320.67576479 21.53728328 320.67146578 25.46361482 320.66410196 C29.6961471 320.65938282 33.9286333 320.67186899 38.16115093 320.68211937 C46.45483975 320.69933737 54.74845291 320.70014118 63.04215496 320.69490647 C69.78163242 320.69086913 76.52108747 320.69230312 83.26056385 320.69765472 C84.69799797 320.69877736 84.69799797 320.69877736 86.16447117 320.69992267 C88.11107838 320.70145411 90.05768559 320.70299245 92.00429279 320.70453764 C110.26947861 320.71827352 128.53462163 320.71281733 146.79980648 320.70135242 C163.51865434 320.69141874 180.23739156 320.70436112 196.95622235 320.72828662 C214.11336294 320.75265483 231.27045195 320.76229111 248.4276095 320.75563389 C258.06397059 320.75213661 267.70024655 320.75440719 277.33659458 320.77188492 C285.53980132 320.78657844 293.74286299 320.78727977 301.94606679 320.76981401 C306.13303083 320.76127806 310.31973543 320.75921736 314.50668621 320.77446556 C318.33795105 320.78824591 322.16873255 320.78363615 325.99996895 320.76422632 C327.38754549 320.76044542 328.77516012 320.76344814 330.16270291 320.77383798 C332.04612958 320.7869405 333.92968643 320.77308191 335.813097 320.75784016 C336.86009598 320.75773282 337.90709496 320.75762548 338.98582119 320.75751489 C342.56521516 320.12590719 344.23153393 318.76055234 346.82077312 316.25726891 C349.37804146 311.09562417 349.09606857 305.7917539 349.06128216 300.15866661 C349.06299419 299.14734169 349.06470623 298.13601677 349.06647015 297.09404564 C349.06977888 293.69672141 349.05873605 290.29959463 349.04782391 286.90228844 C349.04721123 284.42851772 349.04747823 281.95474666 349.04855442 279.4809761 C349.04896032 273.525653 349.04039251 267.57040623 349.02755176 261.61510222 C349.01314054 254.72490458 349.01156165 247.83473712 349.00998211 240.94452477 C348.99948538 222.75709658 348.9715631 204.56968183 348.94577312 186.38226891 C348.90452312 145.75101891 348.86327312 105.11976891 348.82077312 63.25726891 C230.02077312 63.25726891 111.22077312 63.25726891 -11.17922688 63.25726891 Z " fill="#000000" transform="translate(87.17922687530518,89.74273109436035)"/>
<path d="M0 0 C2.12073269 1.86767047 4.14855496 3.79593696 6.13867188 5.80175781 C7.98018411 7.63981289 9.86285502 9.43130116 11.74609375 11.2265625 C13.19021207 12.62354391 14.63291594 14.02198894 16.07421875 15.421875 C16.76467285 16.0821167 17.45512695 16.7423584 18.16650391 17.42260742 C24.23143387 23.42143663 28.1245446 29.42466324 28.734375 38.06640625 C28.53345202 51.17104981 20.53953559 59.00621716 11.87329102 67.82739258 C10.7567138 68.97426651 9.64064348 70.12163413 8.52503967 71.26945496 C4.86728669 75.02615112 1.19308311 78.76650963 -2.484375 82.50390625 C-3.11344419 83.14351595 -3.74251338 83.78312564 -4.39064527 84.44211745 C-10.34521153 90.49474712 -16.30647335 96.54071633 -22.28262234 102.57204151 C-29.87387477 110.23433127 -37.43188582 117.92632308 -44.94677395 125.66354257 C-50.26025961 131.12868845 -55.61096385 136.55567547 -60.98900753 141.95729369 C-64.18528558 145.16954941 -67.36433008 148.39498608 -70.50375175 151.66291237 C-86.89648794 168.69601854 -100.93701938 179.10723512 -124.30078125 184.359375 C-123.44802707 184.36176335 -122.59527288 184.36415171 -121.71667767 184.36661243 C-100.98606396 184.42569793 -80.25556713 184.50120642 -59.52508068 184.59508991 C-49.50004819 184.64009312 -39.47505158 184.67949727 -29.44995117 184.70581055 C-20.71407228 184.72875406 -11.97830652 184.76211102 -3.24251729 184.80807656 C1.3848408 184.83205814 6.01208652 184.85075449 10.63950539 184.85698891 C14.99222031 184.86301754 19.34464749 184.88293629 23.69725609 184.91365051 C25.29724508 184.92246654 26.89727162 184.92614599 28.49728394 184.92438316 C30.67734292 184.92273919 32.8565155 184.93935281 35.03645325 184.96064758 C36.25782895 184.96525655 37.47920465 184.96986551 38.73759174 184.97461414 C41.69921875 185.359375 41.69921875 185.359375 43.59611034 186.69679546 C45.30599571 189.27389523 45.0126715 191.35022857 44.69921875 194.359375 C42.69921875 197.359375 42.69921875 197.359375 39.69921875 198.359375 C36.93722848 198.46393723 34.20003786 198.51155867 31.43765259 198.51327515 C30.5851547 198.5176574 29.73265681 198.52203965 28.85432565 198.5265547 C25.98702869 198.53994941 23.11976247 198.54612302 20.25244141 198.55224609 C18.20102296 198.56014636 16.1496059 198.56841526 14.09819031 198.57702637 C7.35323413 198.60324929 0.60827173 198.61855159 -6.13671875 198.6328125 C-8.45673247 198.63817156 -10.77674616 198.64354906 -13.0967598 198.64894485 C-22.74408874 198.67057156 -32.391416 198.68931011 -42.03876305 198.70056725 C-55.87674172 198.71681948 -69.71444018 198.75003076 -83.55231321 198.80696809 C-93.27636295 198.84561905 -103.00033759 198.86519404 -112.72446215 198.87048781 C-118.53572832 198.87414712 -124.34669565 198.88623062 -130.15787888 198.91859055 C-135.62279846 198.94858674 -141.08723704 198.95501313 -146.5522213 198.94320679 C-148.55938824 198.94298536 -150.56657698 198.95134705 -152.57366753 198.96886063 C-155.31144484 198.99145249 -158.04746309 198.9833042 -160.7852478 198.96737671 C-161.58184543 198.9812588 -162.37844306 198.99514088 -163.19918001 199.00944364 C-167.22169208 198.95167466 -169.1057732 198.50877595 -172.33682251 196.03338146 C-174.30078125 193.359375 -174.30078125 193.359375 -174.23965454 189.9672699 C-173.33336259 186.4845783 -172.38936249 183.05636922 -171.27880859 179.63305664 C-171.07532806 179.00114914 -170.87184753 178.36924164 -170.66220093 177.71818542 C-169.99371059 175.6497293 -169.31613006 173.58442424 -168.63671875 171.51953125 C-168.4036565 170.80778685 -168.17059425 170.09604244 -167.93046951 169.36273003 C-166.69711984 165.59710084 -165.45675515 161.83386983 -164.21044922 158.07250977 C-162.93229612 154.21054695 -161.67804352 150.34126415 -160.4292202 146.46973515 C-159.45745355 143.47198216 -158.46807319 140.48025308 -157.47398758 137.48983574 C-157.0042541 136.06678735 -156.54098135 134.6415878 -156.08463669 133.21418953 C-155.44133261 131.20781808 -154.77325807 129.21127763 -154.09912109 127.21508789 C-153.72685394 126.08148331 -153.35458679 124.94787872 -152.97103882 123.77992249 C-148.68090175 114.9940814 -140.39236925 108.29172903 -133.56713867 101.44873047 C-132.49842153 100.37373417 -131.42988935 99.29855396 -130.36152649 98.22320557 C-126.87997119 94.72079512 -123.39325034 91.22355045 -119.90625 87.7265625 C-118.69946992 86.51572912 -117.49272179 85.30486391 -116.28600502 84.09396744 C-110.61817606 78.40713441 -104.94797112 72.7226837 -99.27481478 67.04116523 C-92.74975864 60.50632847 -86.23307743 53.96328588 -79.72334021 47.41318977 C-74.67282468 42.33244967 -69.61459559 37.2594715 -64.55059892 32.19216835 C-61.53401353 29.17324159 -58.52076984 26.15115479 -55.5156765 23.12078476 C-52.6885549 20.27026327 -49.85191647 17.42955849 -47.00796318 14.59583282 C-45.97177265 13.56013472 -44.93893705 12.52106628 -43.90992355 11.47823715 C-32.07472668 -0.50679775 -16.40448248 -11.69759362 0 0 Z M-30.30078125 18.359375 C-18.75078125 29.909375 -7.20078125 41.459375 4.69921875 53.359375 C9.32240742 51.04778066 12.11231642 48.84719598 14.69921875 44.359375 C15.63801129 40.77330413 15.53716496 37.95682278 14.69921875 34.359375 C13.40617661 32.34949765 13.40617661 32.34949765 11.65625 30.56640625 C10.70673462 29.53809692 10.70673462 29.53809692 9.73803711 28.48901367 C9.06522705 27.78623291 8.39241699 27.08345215 7.69921875 26.359375 C7.04123291 25.66368408 6.38324707 24.96799316 5.70532227 24.2512207 C3.68322624 22.13989654 1.63358647 20.0593145 -0.42578125 17.984375 C-1.11542969 17.27410156 -1.80507813 16.56382812 -2.515625 15.83203125 C-3.18980469 15.15269531 -3.86398437 14.47335938 -4.55859375 13.7734375 C-5.15816895 13.1645166 -5.75774414 12.5555957 -6.37548828 11.92822266 C-9.18814476 9.63629639 -12.07244675 8.59176261 -15.61328125 7.921875 C-22.26512381 9.00473309 -26.22828187 13.26875077 -30.30078125 18.359375 Z M-41.90747929 28.84302521 C-42.60712016 29.54358788 -43.30676104 30.24415054 -44.02760315 30.96594238 C-44.82832245 31.76528702 -45.62904175 32.56463165 -46.45402527 33.38819885 C-47.78111259 34.72067909 -47.78111259 34.72067909 -49.13500977 36.08007812 C-50.061745 37.00666733 -50.98848022 37.93325653 -51.94329834 38.88792419 C-54.49292304 41.43726082 -57.0394429 43.98967896 -59.58543897 46.54263878 C-62.24357041 49.20700217 -64.90451543 51.86855245 -67.56517029 54.53039551 C-72.60683308 59.57517208 -77.64594036 64.62249339 -82.68414682 69.67072153 C-88.41849283 75.41622721 -94.15566315 81.15890908 -99.89307892 86.90134907 C-111.69880406 98.71753967 -123.50095633 110.53729229 -135.30078125 122.359375 C-133.90745551 125.72657887 -132.32185265 127.3453274 -129.30078125 129.359375 C-128.88001879 128.93769074 -128.45925632 128.51600649 -128.02574348 128.08154392 C-117.79668952 117.83042432 -107.56488211 107.58205922 -97.32998848 97.33677006 C-92.38057917 92.38220018 -87.43211262 87.42669547 -82.48583984 82.46899414 C-77.71598099 77.68811958 -72.94353062 72.9098465 -68.1694603 68.1331768 C-66.34485977 66.3067229 -64.52114225 64.47938645 -62.69830704 62.65117073 C-60.15290075 60.09854766 -57.60442522 57.54902831 -55.05517578 55.00024414 C-54.29560577 54.23707886 -53.53603577 53.47391357 -52.75344849 52.68762207 C-52.06073853 51.99628677 -51.36802856 51.30495148 -50.65432739 50.59266663 C-50.05147478 49.98889222 -49.44862217 49.38511782 -48.8275013 48.76304722 C-45.30489455 45.52434918 -41.86787017 46.28571228 -37.30078125 46.359375 C-35.95958745 51.60222349 -35.95958745 51.60222349 -37.29524231 54.56620789 C-40.16814751 58.56737893 -43.58275745 61.90205325 -47.0769043 65.36254883 C-47.86738159 66.15331818 -48.65785889 66.94408752 -49.47229004 67.75881958 C-52.08097979 70.36611825 -54.69667779 72.96626505 -57.3125 75.56640625 C-59.12468814 77.37486348 -60.93643463 79.18376336 -62.74775696 80.99308777 C-67.02577073 85.26425076 -71.30820641 89.5309304 -75.59282857 93.7954604 C-80.47221534 98.65246331 -85.34589883 103.51517198 -90.21911943 108.37836039 C-100.24002166 118.37837871 -110.26803944 128.37123605 -120.30078125 138.359375 C-119.34241031 139.48327859 -118.38321674 140.60648074 -117.42367554 141.72938538 C-116.88961279 142.35494355 -116.35555004 142.98050173 -115.80530357 143.62501621 C-114.15542957 145.52693114 -112.44101412 147.33367263 -110.65234375 149.10546875 C-110.04003906 149.71455078 -109.42773438 150.32363281 -108.796875 150.95117188 C-107.87068359 151.86479492 -107.87068359 151.86479492 -106.92578125 152.796875 C-106.28511719 153.43302734 -105.64445312 154.06917969 -104.984375 154.72460938 C-103.42547103 156.27187973 -101.86381273 157.81627792 -100.30078125 159.359375 C-94.68101881 154.68188399 -89.49306789 149.68816015 -84.33618164 144.50830078 C-83.46709167 143.63935684 -82.59800171 142.7704129 -81.70257568 141.87513733 C-79.3396778 139.51166556 -76.97900864 137.14600972 -74.61933446 134.77932215 C-72.14544444 132.29914574 -69.66868843 129.82183462 -67.19224548 127.34420776 C-62.51201716 122.66088162 -57.83434199 117.97501411 -53.15759701 113.2882098 C-47.82941689 107.94882022 -42.49836888 102.61229795 -37.16708767 97.27600503 C-26.20847616 86.30696425 -15.25344049 75.33435937 -4.30078125 64.359375 C-5.69410699 60.99217113 -7.27970985 59.3734226 -10.30078125 57.359375 C-10.72301027 57.78713478 -11.1452393 58.21489456 -11.58026314 58.65561676 C-21.85471904 69.06257454 -32.14576807 79.45291411 -42.45547676 89.82494354 C-47.44079275 94.84119849 -52.42034592 99.86293295 -57.38671875 104.89794922 C-62.17764107 109.75505818 -66.98407826 114.59635742 -71.80041122 119.42826843 C-73.63731136 121.27627318 -75.46891351 123.12955941 -77.29513931 124.9881134 C-79.84985344 127.58624649 -82.42259475 130.16512784 -85.00048828 132.74023438 C-85.75502792 133.51634567 -86.50956757 134.29245697 -87.28697205 135.09208679 C-92.48458356 140.22902969 -92.48458356 140.22902969 -96.69845581 140.90197754 C-99.30078125 140.359375 -99.30078125 140.359375 -101.23828125 139.296875 C-102.57268958 136.86354217 -102.47974968 135.06557645 -102.0275898 132.362257 C-100.47233534 128.07640872 -96.8650798 125.15192383 -93.65991211 122.03735352 C-92.46000389 120.83613106 -92.46000389 120.83613106 -91.2358551 119.61064148 C-88.59308669 116.972047 -85.92971683 114.35532999 -83.265625 111.73828125 C-81.42728891 109.91113774 -79.59027468 108.08266339 -77.75453186 106.25291443 C-73.41643654 101.93537282 -69.06524642 97.63145119 -64.70738941 93.33386892 C-59.74519069 88.43881872 -54.80009184 83.52664643 -49.85633266 78.61298478 C-39.69002285 68.50932933 -29.50249052 58.42727993 -19.30078125 48.359375 C-20.25954043 47.23552038 -21.21905082 46.11230659 -22.17887878 44.98936462 C-22.71312564 44.36380645 -23.24737249 43.73824827 -23.79780865 43.09373379 C-25.44031886 41.19835525 -27.14250809 39.38847709 -28.9140625 37.61328125 C-29.52185547 37.00419922 -30.12964844 36.39511719 -30.75585938 35.76757812 C-31.36880859 35.15849609 -31.98175781 34.54941406 -32.61328125 33.921875 C-33.24556641 33.28572266 -33.87785156 32.64957031 -34.52929688 31.99414062 C-35.43131836 31.09405273 -35.43131836 31.09405273 -36.3515625 30.17578125 C-36.89466064 29.63381104 -37.43775879 29.09184082 -37.99731445 28.53344727 C-39.93560353 26.78757123 -39.95193013 27.0372404 -41.90747929 28.84302521 Z M-142.30078125 136.359375 C-144.54122252 141.74596783 -146.65835474 147.17492135 -148.61328125 152.671875 C-148.96003906 153.63738281 -149.30679688 154.60289062 -149.6640625 155.59765625 C-150.3778955 158.69385216 -150.31505137 160.36045133 -149.30078125 163.359375 C-147.84759775 165.54170818 -147.84759775 165.54170818 -145.98828125 167.484375 C-145.39402344 168.14695312 -144.79976562 168.80953125 -144.1875 169.4921875 C-142.29863213 171.36150187 -140.56673615 172.96528165 -138.30078125 174.359375 C-129.36312223 173.29897478 -120.7199872 169.43320679 -112.30078125 166.359375 C-117.34836552 160.21335271 -122.89637086 154.61065763 -128.52514648 149.00463867 C-130.1305864 147.40462838 -131.73052433 145.7992519 -133.33007812 144.19335938 C-134.34733516 143.17676194 -135.36490172 142.1604741 -136.3828125 141.14453125 C-137.30296143 140.22551025 -138.22311035 139.30648926 -139.17114258 138.35961914 C-140.93531501 136.24527229 -140.93531501 136.24527229 -142.30078125 136.359375 Z M-156.30078125 176.359375 C-156.63078125 178.009375 -156.96078125 179.659375 -157.30078125 181.359375 C-155.98078125 181.029375 -154.66078125 180.699375 -153.30078125 180.359375 C-153.96078125 179.039375 -154.62078125 177.719375 -155.30078125 176.359375 C-155.63078125 176.359375 -155.96078125 176.359375 -156.30078125 176.359375 Z " fill="#000000" transform="translate(286.30078125,184.640625)"/>
<path d="M0 0 C1.54686745 -0.01913956 1.54686745 -0.01913956 3.12498474 -0.03866577 C4.24268753 -0.04089142 5.36039032 -0.04311707 6.51196289 -0.04541016 C8.22833702 -0.05539536 8.22833702 -0.05539536 9.97938538 -0.06558228 C12.40290719 -0.07572197 14.826457 -0.08039889 17.25 -0.08007812 C20.96604214 -0.0844508 24.68089675 -0.12075716 28.39672852 -0.15869141 C30.7476359 -0.16455924 33.09854894 -0.16852885 35.44946289 -0.17041016 C37.12298073 -0.19196671 37.12298073 -0.19196671 38.83030701 -0.21395874 C39.86470413 -0.20780548 40.89910126 -0.20165222 41.96484375 -0.1953125 C42.87592392 -0.19816254 43.78700409 -0.20101257 44.72569275 -0.20394897 C47.04711914 0.29052734 47.04711914 0.29052734 48.8686676 2.12948608 C50.04711914 4.29052734 50.04711914 4.29052734 49.98461914 7.35302734 C48.88849082 10.78756275 48.08021952 11.47069611 45.04711914 13.29052734 C42.81544495 13.67147827 42.81544495 13.67147827 40.35791016 13.67871094 C38.97110802 13.69289566 38.97110802 13.69289566 37.55628967 13.70736694 C36.06868385 13.6982579 36.06868385 13.6982579 34.55102539 13.68896484 C33.52532944 13.69183502 32.49963348 13.6947052 31.44285583 13.69766235 C29.27504931 13.69970256 27.10722437 13.69417574 24.93945312 13.68164062 C21.62531215 13.66560328 18.31239378 13.68148282 14.99829102 13.70068359 C12.89086645 13.69870083 10.78344265 13.69485648 8.67602539 13.68896484 C7.68631241 13.69503754 6.69659943 13.70111023 5.67689514 13.70736694 C-3.05833786 13.61832335 -3.05833786 13.61832335 -6.95288086 10.29052734 C-7.76520936 7.42181479 -7.28998189 5.32443665 -6.95288086 2.29052734 C-4.41756273 -0.24479079 -3.51426215 0.0294318 0 0 Z " fill="#000000" transform="translate(349.952880859375,369.70947265625)"/>
<path d="M0 0 C1.58748047 -0.02416992 1.58748047 -0.02416992 3.20703125 -0.04882812 C4.22152344 -0.04947266 5.23601562 -0.05011719 6.28125 -0.05078125 C7.21001953 -0.05376221 8.13878906 -0.05674316 9.09570312 -0.05981445 C11.5 0.3125 11.5 0.3125 13.30273438 1.61645508 C15.30494299 4.45278118 14.85820736 6.96923133 14.5 10.3125 C13.30053711 12.00415039 13.30053711 12.00415039 11.5 13.3125 C7.71834836 13.95224583 3.89216925 13.77576536 0.0625 13.75 C-1.51241211 13.7799707 -1.51241211 13.7799707 -3.11914062 13.81054688 C-4.63604492 13.80958008 -4.63604492 13.80958008 -6.18359375 13.80859375 C-7.56889282 13.81137329 -7.56889282 13.81137329 -8.98217773 13.81420898 C-12.27892181 13.15728965 -13.48953808 11.96548372 -15.5 9.3125 C-15.4375 5.6875 -15.4375 5.6875 -14.5 2.3125 C-9.92734569 -0.73593621 -5.37785396 -0.01637593 0 0 Z " fill="#000000" transform="translate(185.5,114.6875)"/>
<path d="M0 0 C1.57491211 -0.0299707 1.57491211 -0.0299707 3.18164062 -0.06054688 C4.69854492 -0.05958008 4.69854492 -0.05958008 6.24609375 -0.05859375 C7.63139282 -0.06137329 7.63139282 -0.06137329 9.04467773 -0.06420898 C12.34142181 0.59271035 13.55203808 1.78451628 15.5625 4.4375 C15.5 8.0625 15.5 8.0625 14.5625 11.4375 C10.10190842 14.41122772 5.87163019 13.76680535 0.625 13.75 C-0.87836914 13.77416992 -0.87836914 13.77416992 -2.41210938 13.79882812 C-3.37826172 13.79947266 -4.34441406 13.80011719 -5.33984375 13.80078125 C-6.66230103 13.80525269 -6.66230103 13.80525269 -8.01147461 13.80981445 C-10.96101488 13.35715782 -12.3280088 12.53131846 -14.4375 10.4375 C-15.18172467 4.48370263 -15.18172467 4.48370263 -13.23413086 1.74584961 C-9.52426751 -0.95576171 -4.41526445 -0.02970514 0 0 Z " fill="#000000" transform="translate(102.4375,114.5625)"/>
<path d="M0 0 C1.00224609 -0.01611328 2.00449219 -0.03222656 3.03710938 -0.04882812 C4.48633789 -0.04979492 4.48633789 -0.04979492 5.96484375 -0.05078125 C6.84648193 -0.05376221 7.72812012 -0.05674316 8.63647461 -0.05981445 C11.58624019 0.39287675 12.95066035 1.22113149 15.0625 3.3125 C15.5625 6.8125 15.5625 6.8125 15.0625 10.3125 C11.35987251 13.96504924 8.04006144 13.72831842 3.0859375 13.77148438 C2.08820313 13.76439453 1.09046875 13.75730469 0.0625 13.75 C-1.43410156 13.7799707 -1.43410156 13.7799707 -2.9609375 13.81054688 C-10.20038254 13.8056947 -10.20038254 13.8056947 -13.62890625 11.51171875 C-14.9375 9.3125 -14.9375 9.3125 -14.875 5.6875 C-12.84957143 -1.60404287 -6.27971064 -0.02011438 0 0 Z " fill="#000000" transform="translate(143.9375,114.6875)"/>
</svg>
