<svg width="70" height="70" viewBox="0 0 70 70" fill="none" xmlns="http://www.w3.org/2000/svg">
<circle cx="35" cy="35" r="35" fill="#FFE8AF"/>
<path d="M40.1776 17.001C40.2299 17.0018 40.2823 17.0026 40.3362 17.0035C41.2216 17.0341 41.9795 17.4081 42.5854 18.0512C42.8447 18.3701 43.0432 18.7273 43.2483 19.0822C43.2835 19.1427 43.3187 19.2032 43.355 19.2655C43.6627 19.7946 43.9677 20.3253 44.2719 20.8565C44.2944 20.8957 44.3168 20.9349 44.34 20.9753C44.7048 21.6125 45.0688 22.2502 45.4327 22.888C45.5703 23.1292 45.708 23.3703 45.8457 23.6115C45.9133 23.73 45.9809 23.8485 46.0485 23.967C46.2814 24.3747 46.5155 24.7817 46.7517 25.1875C46.7998 25.2703 46.8479 25.3531 46.896 25.4359C46.9873 25.5929 47.0789 25.7497 47.1708 25.9064C47.2316 26.011 47.2316 26.011 47.2936 26.1178C47.3296 26.1792 47.3655 26.2407 47.4025 26.304C47.4791 26.452 47.4791 26.452 47.4791 26.5885C47.5213 26.5903 47.5634 26.592 47.6068 26.5938C48.4249 26.6486 49.1166 27.0331 49.6798 27.6249C50.1842 28.2207 50.4366 28.9608 50.4289 29.7369C50.4289 29.7903 50.4289 29.8436 50.429 29.8985C50.4289 30.0731 50.4278 30.2478 50.4267 30.4224C50.4265 30.5441 50.4263 30.6658 50.4262 30.7875C50.4256 31.1067 50.4243 31.4259 50.4228 31.745C50.4214 32.0712 50.4208 32.3973 50.4201 32.7235C50.4186 33.3625 50.4163 34.0016 50.4134 34.6407C50.4776 34.6611 50.5418 34.6815 50.608 34.7026C51.1112 34.8772 51.5235 35.2691 51.7782 35.7325C51.9492 36.1381 52.0131 36.5066 52.0105 36.9443C52.0112 37.0286 52.0112 37.0286 52.0119 37.1147C52.0131 37.2986 52.0129 37.4825 52.0125 37.6664C52.0128 37.7954 52.0132 37.9245 52.0136 38.0536C52.0142 38.3233 52.014 38.593 52.0133 38.8628C52.0126 39.207 52.0139 39.5512 52.0159 39.8955C52.0172 40.1618 52.0172 40.4281 52.0168 40.6944C52.0168 40.8213 52.0172 40.9481 52.018 41.075C52.0228 41.9018 52.0177 42.6169 51.4242 43.2601C51.3531 43.3399 51.3531 43.3399 51.2805 43.4213C51.1151 43.5634 50.9673 43.6571 50.7772 43.7605C50.7218 43.7907 50.6665 43.8209 50.6095 43.8521C50.5462 43.8863 50.5462 43.8863 50.4816 43.9211C50.4814 43.9867 50.4811 44.0523 50.4809 44.1198C50.4784 44.7412 50.4744 45.3625 50.4691 45.9838C50.4664 46.3032 50.4642 46.6225 50.4632 46.9419C50.4621 47.2507 50.4598 47.5595 50.4565 47.8684C50.4555 47.9855 50.455 48.1027 50.4549 48.2198C50.4539 49.1935 50.3438 50.018 49.731 50.8133C49.6888 50.8738 49.6466 50.9343 49.6031 50.9966C49.1005 51.5436 48.3949 51.9371 47.6485 51.9905C47.563 51.9906 47.4775 51.9906 47.3894 51.9907C47.3172 51.991 47.3172 51.991 47.2435 51.9913C47.0825 51.9919 46.9216 51.9915 46.7606 51.9911C46.6439 51.9913 46.5272 51.9916 46.4104 51.9919C46.0899 51.9926 45.7694 51.9924 45.449 51.9922C45.1032 51.992 44.7574 51.9926 44.4117 51.9931C43.7344 51.994 43.0571 51.9941 42.3798 51.9939C41.8293 51.9938 41.2788 51.9939 40.7283 51.9942C40.6108 51.9943 40.6108 51.9943 40.4909 51.9944C40.3318 51.9944 40.1726 51.9945 40.0135 51.9946C38.5208 51.9953 37.0282 51.9952 35.5355 51.9948C34.1701 51.9944 32.8046 51.9952 31.4392 51.9965C30.0371 51.9978 28.6351 51.9984 27.233 51.9981C26.4459 51.998 25.6588 51.9982 24.8716 51.9991C24.2015 51.9999 23.5314 52 22.8612 51.9992C22.5193 51.9988 22.1775 51.9987 21.8356 51.9996C21.5225 52.0003 21.2094 52.0001 20.8962 51.9991C20.7831 51.9989 20.67 51.9991 20.5569 51.9997C19.5355 52.0042 18.7405 51.849 17.9646 51.1321C17.2537 50.3822 17.0238 49.633 17.026 48.6224C17.0256 48.5393 17.0253 48.4562 17.0249 48.3706C17.024 48.1408 17.0238 47.9109 17.0238 47.6811C17.0237 47.4329 17.0228 47.1846 17.022 46.9364C17.0205 46.394 17.0199 45.8516 17.0196 45.3092C17.0194 44.9703 17.0189 44.6313 17.0184 44.2923C17.0171 43.353 17.016 42.4137 17.0158 41.4744C17.0158 41.4143 17.0158 41.3543 17.0158 41.2924C17.0157 41.1706 17.0157 41.0488 17.0157 40.9271C17.0157 40.8666 17.0157 40.8062 17.0156 40.7439C17.0156 40.6834 17.0156 40.6229 17.0156 40.5605C17.0154 39.5804 17.0135 38.6004 17.011 37.6203C17.0084 36.613 17.007 35.6056 17.007 34.5983C17.007 34.0332 17.0064 33.4681 17.0044 32.9029C17.0028 32.4216 17.0023 31.9403 17.0033 31.459C17.0038 31.2137 17.0037 30.9684 17.0022 30.7231C17.0005 30.4565 17.0015 30.1898 17.0027 29.9232C17.0018 29.8467 17.0009 29.7702 17 29.6914C17.0098 28.7648 17.3742 28.0545 18.0043 27.397C18.7704 26.6623 19.6448 26.5045 20.6712 26.5232C22.6603 26.58 22.6603 26.58 24.3833 25.6916C24.6873 25.4619 25.0215 25.283 25.3527 25.0958C25.4906 25.0156 25.6285 24.9353 25.7662 24.8548C26.1241 24.6468 26.4827 24.4401 26.8415 24.2337C27.5252 23.8404 28.2062 23.4433 28.8841 23.0401C29.8507 22.4653 30.8247 21.904 31.7999 21.3441C32.6281 20.8683 33.454 20.3893 34.275 19.9011C35.0216 19.4571 35.7719 19.0201 36.5255 18.5881C36.7938 18.4341 37.0611 18.2786 37.3272 18.1208C37.4465 18.05 37.5661 17.9796 37.6857 17.9093C37.8348 17.8214 37.9837 17.733 38.1321 17.6439C38.7764 17.2661 39.4197 16.9812 40.1776 17.001ZM37.3849 20.0227C36.9295 20.2953 36.4709 20.562 36.0108 20.8266C35.9379 20.8686 35.8649 20.9105 35.7898 20.9538C35.4958 21.1229 35.2017 21.2918 34.9076 21.4607C34.0794 21.9365 33.2534 22.4154 32.4325 22.9036C31.6119 23.3916 30.7862 23.8704 29.9584 24.346C29.3671 24.6857 28.7764 25.0265 28.186 25.3678C28.0327 25.4564 27.8793 25.5449 27.7259 25.6333C27.4948 25.7666 27.2639 25.9003 27.0331 26.0341C26.9619 26.0751 26.8906 26.1161 26.8172 26.1584C26.7201 26.2148 26.7201 26.2148 26.621 26.2724C26.5637 26.3055 26.5064 26.3387 26.4473 26.3728C26.407 26.399 26.3667 26.4251 26.3251 26.452C26.3251 26.4746 26.3251 26.4971 26.3251 26.5203C28.1336 26.6474 29.4614 26.7039 30.9552 25.5825C31.289 25.3432 31.6453 25.1477 32.0043 24.9497C32.2054 24.8382 32.4051 24.724 32.6047 24.6099C32.6441 24.5873 32.6836 24.5648 32.7242 24.5416C33.1558 24.2947 33.5833 24.0408 34.0105 23.7865C34.9741 23.2128 35.9454 22.6531 36.9178 22.0947C37.9859 21.481 39.0481 20.8584 40.1069 20.2288C40.4072 20.0505 40.7081 19.8733 41.0093 19.6964C41.0575 19.668 41.1058 19.6397 41.1555 19.6105C41.2617 19.5481 41.3679 19.4858 41.4741 19.4234C41.1917 18.9578 40.8851 18.7662 40.361 18.6326C39.3601 18.5362 38.1955 19.5372 37.3849 20.0227ZM41.8756 21.0569C41.8027 21.1005 41.7299 21.1442 41.6549 21.1891C41.5962 21.2245 41.5962 21.2245 41.5364 21.2606C41.3272 21.3867 41.1173 21.5119 40.9074 21.6369C40.8639 21.6629 40.8204 21.6888 40.7756 21.7155C40.3294 21.981 39.8785 22.2379 39.427 22.4942C38.7948 22.8533 38.1666 23.2183 37.5419 23.5903C36.7259 24.076 35.9048 24.5524 35.0814 25.0253C34.8428 25.1625 34.6044 25.2999 34.3661 25.4375C34.3258 25.4608 34.2855 25.4841 34.2439 25.508C34.1249 25.5768 34.0059 25.6455 33.8868 25.7142C33.4594 25.961 33.0319 26.2076 32.6031 26.452C32.6031 26.4746 32.6031 26.4971 32.6031 26.5203C35.0333 26.6808 35.0333 26.6808 37.1746 25.6444C37.5336 25.386 37.9185 25.172 38.301 24.9508C38.4553 24.8593 38.6095 24.7677 38.7635 24.676C39.2117 24.4104 39.6622 24.1489 40.1136 23.8888C40.2214 23.8267 40.2214 23.8267 40.3313 23.7633C40.6761 23.5648 41.0213 23.367 41.3673 23.1704C41.5313 23.0772 41.6952 22.9837 41.859 22.8901C41.9745 22.8242 42.0903 22.7589 42.2061 22.6936C42.2761 22.6535 42.3461 22.6135 42.4183 22.5723C42.5107 22.5199 42.5107 22.5199 42.605 22.4664C42.8011 22.3458 42.8011 22.3458 43.0436 22.0848C42.8184 21.6794 42.5933 21.2741 42.3612 20.8565C42.1604 20.8565 42.047 20.9535 41.8756 21.0569ZM43.3827 23.8398C43.3128 23.8803 43.2428 23.9209 43.1708 23.9627C43.095 24.0073 43.0193 24.0519 42.9413 24.0978C42.862 24.144 42.7827 24.1903 42.7034 24.2365C42.4524 24.3829 42.2021 24.5302 41.9518 24.6778C41.9111 24.7018 41.8704 24.7258 41.8284 24.7506C41.3965 25.0053 40.9652 25.261 40.5343 25.5175C40.2687 25.6754 40.0027 25.8323 39.7356 25.9877C39.6806 26.0198 39.6255 26.0518 39.5688 26.0849C39.4686 26.1431 39.3684 26.2012 39.268 26.259C39.1606 26.3215 39.0548 26.3864 38.9493 26.452C38.9493 26.4746 38.9493 26.4971 38.9493 26.5203C41.1111 26.5203 43.2729 26.5203 45.5002 26.5203C45.3992 26.2172 45.3159 26.0077 45.1582 25.7414C45.0975 25.6381 45.0975 25.6381 45.0355 25.5327C44.9932 25.4617 44.9509 25.3907 44.9074 25.3176C44.8247 25.1774 44.742 25.0371 44.6592 24.8969C44.618 24.8279 44.5768 24.7588 44.5344 24.6876C44.447 24.5388 44.3616 24.3887 44.2779 24.2378C44.2361 24.1629 44.1943 24.088 44.1512 24.0109C44.1137 23.9425 44.0763 23.8741 44.0377 23.8037C44.0024 23.7544 43.9671 23.7051 43.9307 23.6542C43.6856 23.6542 43.5931 23.7169 43.3827 23.8398ZM19.0236 28.7039C18.69 29.1915 18.6333 29.6372 18.6395 30.216C18.6391 30.297 18.6386 30.378 18.6381 30.4614C18.6371 30.6845 18.6376 30.9075 18.6388 31.1305C18.6397 31.3718 18.6387 31.613 18.6379 31.8542C18.6366 32.3261 18.6372 32.7979 18.6384 33.2697C18.6394 33.6532 18.6396 34.0367 18.6394 34.4203C18.6394 34.4749 18.6393 34.5296 18.6393 34.5859C18.6392 34.697 18.6392 34.8081 18.6391 34.9192C18.6385 35.9003 18.6396 36.8815 18.6417 37.8627C18.6436 38.8141 18.6441 39.7655 18.6431 40.717C18.6419 41.754 18.6417 42.791 18.6428 43.828C18.643 43.9386 18.6431 44.0492 18.6432 44.1598C18.6433 44.2142 18.6433 44.2687 18.6434 44.3247C18.6438 44.7077 18.6436 45.0908 18.6431 45.4738C18.6426 45.9406 18.6431 46.4074 18.6448 46.8743C18.6456 47.1123 18.646 47.3504 18.6453 47.5884C18.6447 47.8467 18.6458 48.1049 18.6473 48.3632C18.6467 48.4381 18.6462 48.5131 18.6456 48.5903C18.6512 49.1097 18.7378 49.4732 19.0894 49.8744C19.1561 49.9296 19.1561 49.9296 19.2241 49.9859C19.2683 50.0237 19.3125 50.0615 19.3581 50.1005C19.6714 50.3164 19.9389 50.3527 20.3158 50.3529C20.3628 50.3532 20.4098 50.3534 20.4583 50.3536C20.6162 50.3542 20.7741 50.3538 20.9321 50.3534C21.0463 50.3536 21.1605 50.3538 21.2748 50.3542C21.5889 50.3549 21.9031 50.3547 22.2173 50.3544C22.5561 50.3543 22.8948 50.3549 23.2335 50.3554C23.8973 50.3563 24.561 50.3564 25.2247 50.3562C25.7641 50.3561 26.3035 50.3562 26.8429 50.3565C26.9196 50.3565 26.9963 50.3566 27.0754 50.3566C27.2312 50.3567 27.387 50.3568 27.5428 50.3569C29.0048 50.3576 30.4669 50.3575 31.9289 50.3571C33.2669 50.3567 34.6049 50.3575 35.943 50.3588C37.3162 50.3601 38.6895 50.3607 40.0628 50.3604C40.834 50.3603 41.6052 50.3604 42.3765 50.3614C43.033 50.3622 43.6896 50.3623 44.3462 50.3615C44.6812 50.3611 45.0163 50.361 45.3514 50.3618C45.658 50.3626 45.9647 50.3624 46.2714 50.3614C46.3824 50.3612 46.4934 50.3614 46.6044 50.3619C46.7552 50.3626 46.906 50.362 47.0569 50.3612C47.1826 50.3612 47.1826 50.3612 47.3108 50.3612C47.7978 50.3085 48.174 50.0773 48.5027 49.7214C48.8726 49.1912 48.8106 48.5583 48.8023 47.9427C48.8018 47.8304 48.8014 47.718 48.8012 47.6057C48.8001 47.3119 48.7975 47.0181 48.7944 46.7243C48.7916 46.4237 48.7904 46.1232 48.789 45.8226C48.7861 45.2343 48.7814 44.646 48.7757 44.0576C48.7106 44.0574 48.6455 44.0571 48.5784 44.0569C47.9601 44.0543 47.3419 44.0504 46.7236 44.0451C46.4059 44.0424 46.0882 44.0402 45.7704 44.0391C45.4629 44.0381 45.1554 44.0357 44.8479 44.0325C44.7315 44.0315 44.615 44.0309 44.4986 44.0309C43.0075 44.0294 41.7004 43.6761 40.6222 42.6004C39.6752 41.6048 39.2724 40.3665 39.2905 39.008C39.3814 37.714 39.9403 36.4973 40.9138 35.6315C42.0295 34.7528 43.1617 34.5424 44.5374 34.5375C44.6602 34.5364 44.7829 34.5351 44.9057 34.5338C45.2261 34.5306 45.5464 34.5285 45.8668 34.5267C46.1949 34.5247 46.5229 34.5215 46.8509 34.5185C47.4925 34.5126 48.1341 34.508 48.7757 34.5042C48.782 33.8564 48.7869 33.2086 48.7898 32.5608C48.7912 32.26 48.7932 31.9592 48.7963 31.6583C48.7993 31.3676 48.8009 31.0769 48.8016 30.7862C48.8021 30.6757 48.8031 30.5652 48.8045 30.4546C48.813 29.793 48.8177 29.2089 48.3662 28.6807C48.3212 28.6447 48.2762 28.6088 48.2298 28.5717C48.1847 28.5345 48.1397 28.4973 48.0933 28.4589C47.6887 28.1737 47.2903 28.1495 46.8027 28.1492C46.7566 28.1491 46.7106 28.149 46.6632 28.1489C46.5091 28.1485 46.355 28.1487 46.2009 28.1489C46.0892 28.1487 45.9775 28.1486 45.8659 28.1484C45.5591 28.148 45.2523 28.148 44.9456 28.1481C44.6147 28.1481 44.2838 28.1477 43.9529 28.1474C43.3047 28.1468 42.6565 28.1466 42.0083 28.1466C41.4814 28.1466 40.9546 28.1464 40.4277 28.1462C38.9341 28.1456 37.4405 28.1453 35.9469 28.1453C35.8261 28.1454 35.8261 28.1454 35.7029 28.1454C35.5819 28.1454 35.5819 28.1454 35.4585 28.1454C34.1517 28.1454 32.8449 28.1447 31.5381 28.1438C30.1964 28.1428 28.8548 28.1423 27.5131 28.1424C26.7598 28.1424 26.0065 28.1422 25.2532 28.1415C24.6118 28.1409 23.9705 28.1407 23.3291 28.1412C23.0019 28.1414 22.6747 28.1414 22.3475 28.1408C22.0479 28.1403 21.7482 28.1404 21.4486 28.141C21.3403 28.1411 21.232 28.1409 21.1237 28.1406C19.9738 28.1258 19.9738 28.1258 19.0236 28.7039ZM42.1565 36.7561C42.1154 36.7862 42.0742 36.8162 42.0318 36.8472C41.4357 37.3163 41.1623 37.9646 40.9282 38.6668C40.859 39.6215 40.9457 40.4498 41.5794 41.2167C41.6122 41.2534 41.645 41.2902 41.6789 41.3281C41.7309 41.3872 41.783 41.4463 41.8367 41.5072C42.596 42.1783 43.3843 42.4285 44.3859 42.432C44.4431 42.4324 44.5003 42.4329 44.5592 42.4333C44.7471 42.4347 44.9349 42.4355 45.1228 42.4362C45.2195 42.4366 45.2195 42.4366 45.3181 42.437C45.6589 42.4384 45.9997 42.4394 46.3405 42.44C46.6918 42.4408 47.0431 42.4431 47.3944 42.4458C47.6653 42.4476 47.9362 42.4482 48.2072 42.4484C48.3367 42.4488 48.4662 42.4496 48.5957 42.4508C48.7769 42.4525 48.9581 42.4524 49.1394 42.452C49.1924 42.4528 49.2455 42.4537 49.3001 42.4546C49.6772 42.451 49.901 42.3686 50.2087 42.1469C50.3892 41.9191 50.3654 41.6528 50.365 41.3734C50.3655 41.3235 50.3659 41.2735 50.3664 41.222C50.3677 41.0571 50.3679 40.8922 50.3681 40.7273C50.3685 40.6123 50.369 40.4974 50.3695 40.3825C50.3703 40.1417 50.3705 39.9009 50.3705 39.6601C50.3704 39.352 50.3723 39.044 50.3747 38.7359C50.3762 38.4986 50.3765 38.2612 50.3764 38.0239C50.3765 37.9104 50.3771 37.7968 50.3782 37.6832C50.3795 37.5241 50.3791 37.3652 50.3783 37.2061C50.3791 37.1595 50.3799 37.1129 50.3806 37.0649C50.3762 36.7283 50.287 36.5349 50.0722 36.2784C49.8249 36.0825 49.5139 36.1218 49.2123 36.1221C49.1531 36.1216 49.094 36.1212 49.033 36.1207C48.8371 36.1194 48.6413 36.1192 48.4454 36.119C48.3087 36.1186 48.172 36.1181 48.0353 36.1176C47.7483 36.1168 47.4613 36.1166 47.1743 36.1166C46.8086 36.1167 46.4429 36.1148 46.0772 36.1124C45.7945 36.1109 45.5118 36.1106 45.2291 36.1107C45.0944 36.1106 44.9597 36.11 44.825 36.1089C43.8497 36.1019 42.9666 36.1432 42.1565 36.7561Z" fill="black"/>
<path d="M45.0225 37.9162C45.3687 38.2221 45.6039 38.5404 45.662 39.0067C45.6744 39.6052 45.588 40.0478 45.1801 40.501C44.8169 40.8156 44.4044 40.9089 43.9307 40.9187C43.4106 40.8587 43.0517 40.6167 42.7024 40.2363C42.4022 39.8198 42.3723 39.373 42.4295 38.8715C42.5848 38.3642 42.8581 38.0398 43.3166 37.7797C43.8854 37.5134 44.4915 37.6016 45.0225 37.9162Z" fill="black"/>
</svg>
