<svg width="100" height="100" viewBox="0 0 100 100" fill="none" xmlns="http://www.w3.org/2000/svg">
<path d="M80.1163 50C80.1163 33.3672 66.6328 19.8837 50 19.8837C33.3672 19.8837 19.8837 33.3672 19.8837 50C19.8837 66.6328 33.3672 80.1163 50 80.1163C66.6328 80.1163 80.1163 66.6328 80.1163 50ZM85 50C85 69.33 69.33 85 50 85C30.67 85 15 69.33 15 50C15 30.67 30.67 15 50 15C69.33 15 85 30.67 85 50Z" fill="black"/>
<path d="M60.5817 50C60.5817 39.3904 56.8137 29.1569 50.0003 21.0983C43.1868 29.1569 39.4189 39.3904 39.4189 50C39.4189 60.6088 43.1878 70.8402 50.0003 78.8985C56.8127 70.8402 60.5817 60.6088 60.5817 50ZM65.4654 50C65.4654 62.7493 60.5607 75.0111 51.7681 84.2433C51.3073 84.7267 50.6682 85 50.0003 85C49.3324 85 48.6933 84.7267 48.2325 84.2433C39.4399 75.0111 34.5352 62.7493 34.5352 50C34.5352 37.2507 39.4399 24.9889 48.2325 15.7567L48.4137 15.585C48.8538 15.209 49.416 15 50.0003 15C50.6682 15 51.3073 15.2733 51.7681 15.7567C60.5607 24.9889 65.4654 37.2507 65.4654 50Z" fill="black"/>
<path d="M82.5581 47.5586C83.9067 47.5586 85 48.6519 85 50.0005C85 51.3491 83.9067 52.4423 82.5581 52.4423H17.4419C16.0933 52.4423 15 51.3491 15 50.0005C15 48.6519 16.0933 47.5586 17.4419 47.5586H82.5581Z" fill="black"/>
</svg>
