<svg width="48" height="48" viewBox="0 0 48 48" fill="none" xmlns="http://www.w3.org/2000/svg">
<g clip-path="url(#clip0_603_1118)">
<mask id="mask0_603_1118" style="mask-type:luminance" maskUnits="userSpaceOnUse" x="0" y="0" width="48" height="48">
<path d="M48 0H0V48H48V0Z" fill="white"/>
</mask>
<g mask="url(#mask0_603_1118)">
<path d="M5.07338 2.7994C5.13972 2.79918 5.20606 2.79896 5.27441 2.79873C5.49726 2.79811 5.72012 2.79815 5.94298 2.79819C6.10415 2.79788 6.26533 2.79753 6.4265 2.79714C6.86989 2.7962 7.31328 2.79586 7.75667 2.79561C8.2347 2.79524 8.71274 2.79434 9.19077 2.79352C10.3455 2.79167 11.5002 2.79073 12.6549 2.78989C13.1988 2.78948 13.7426 2.78898 14.2865 2.78849C16.0946 2.78689 17.9026 2.78553 19.7107 2.78486C20.1799 2.78468 20.649 2.7845 21.1182 2.78431C21.2931 2.78425 21.2931 2.78425 21.4716 2.78418C23.3604 2.7834 25.2492 2.78102 27.1379 2.77798C29.0774 2.77488 31.0168 2.77319 32.9563 2.77289C34.0451 2.77269 35.1339 2.77187 36.2227 2.76947C37.15 2.76744 38.0774 2.76668 39.0047 2.76759C39.4776 2.76802 39.9505 2.76784 40.4235 2.76602C40.857 2.76437 41.2905 2.76446 41.724 2.76592C41.8803 2.76614 42.0366 2.76574 42.1928 2.76462C43.9262 2.75302 45.3406 3.20437 46.6074 4.40867C47.7203 5.57879 48.0444 6.94301 48.0372 8.5103C48.0376 8.64946 48.0381 8.78861 48.0387 8.92776C48.0401 9.3081 48.0397 9.68842 48.039 10.0688C48.0385 10.4797 48.0397 10.8907 48.0407 11.3017C48.0423 12.1061 48.0424 12.9105 48.0419 13.7149C48.0415 14.369 48.0416 15.0231 48.0421 15.6771C48.0422 15.7703 48.0423 15.8635 48.0423 15.9595C48.0425 16.1488 48.0426 16.3382 48.0428 16.5275C48.0441 18.302 48.0436 20.0766 48.0425 21.8511C48.0416 23.4731 48.0428 25.0951 48.045 26.7171C48.0473 28.3841 48.0482 30.0511 48.0476 31.7181C48.0472 32.6534 48.0475 33.5886 48.0491 34.5239C48.0505 35.3202 48.0505 36.1164 48.0489 36.9127C48.0481 37.3186 48.0479 37.7245 48.0493 38.1304C48.0506 38.5027 48.0502 38.8749 48.0484 39.2472C48.048 39.3811 48.0483 39.5151 48.0493 39.6491C48.0605 41.2905 47.5678 42.557 46.4452 43.7507C45.4802 44.6812 44.269 45.1977 42.9286 45.1996C42.8291 45.1999 42.8291 45.1999 42.7276 45.2002C42.5049 45.2009 42.2821 45.2008 42.0594 45.2008C41.8982 45.2011 41.7371 45.2014 41.576 45.2018C41.1328 45.2028 40.6896 45.2031 40.2464 45.2034C39.7686 45.2037 39.2907 45.2046 38.8129 45.2055C37.6586 45.2073 36.5043 45.2082 35.35 45.2091C34.8063 45.2095 34.2626 45.21 33.7189 45.2105C31.9112 45.2121 30.1035 45.2134 28.2959 45.2141C27.8268 45.2143 27.3577 45.2145 26.8886 45.2147C26.772 45.2147 26.6555 45.2148 26.5353 45.2148C24.6472 45.2156 22.7591 45.218 20.871 45.221C18.9321 45.2241 16.9932 45.2258 15.0543 45.2261C13.9658 45.2263 12.8774 45.2271 11.7889 45.2295C10.8618 45.2315 9.93474 45.2323 9.00764 45.2314C8.53489 45.231 8.06215 45.2311 7.5894 45.233C7.15593 45.2346 6.7225 45.2345 6.28903 45.2331C6.13288 45.2328 5.97672 45.2332 5.82057 45.2344C4.09095 45.2459 2.72515 44.8426 1.43713 43.6313C0.577537 42.7399 -0.00930722 41.5565 -0.0119977 40.3052C-0.0124735 40.1877 -0.0129492 40.0703 -0.0134393 39.9493C-0.0134958 39.8187 -0.0135424 39.6882 -0.0135806 39.5576C-0.0139571 39.419 -0.0143731 39.2805 -0.0148255 39.142C-0.015947 38.7607 -0.0164769 38.3795 -0.0169051 37.9983C-0.0174636 37.5872 -0.018552 37.1762 -0.0195573 36.7652C-0.0218564 35.7722 -0.0232278 34.7792 -0.0244378 33.7861C-0.0247859 33.5055 -0.0251584 33.2249 -0.0255397 32.9443C-0.0279061 31.2013 -0.0299731 29.4582 -0.0311391 27.7152C-0.0314137 27.3114 -0.0316916 26.9077 -0.0319741 26.5039C-0.0320441 26.4035 -0.0321141 26.3032 -0.0321862 26.1998C-0.0333716 24.5754 -0.0364849 22.9511 -0.040393 21.3267C-0.0443744 19.6583 -0.0465799 17.9899 -0.0470692 16.3214C-0.0473888 15.385 -0.0484854 14.4485 -0.0515789 13.5121C-0.0542103 12.7142 -0.0552325 11.9164 -0.0541857 11.1185C-0.053701 10.7118 -0.0539597 10.3052 -0.0562918 9.89849C-0.0584139 9.52526 -0.0583207 9.1521 -0.0565539 8.77887C-0.0562933 8.64473 -0.0568059 8.51058 -0.058224 8.37645C-0.0737352 6.81215 0.3981 5.43228 1.48913 4.28269C2.48353 3.35103 3.70369 2.80135 5.07338 2.7994ZM2.36218 5.93503C0.78959 8.08046 1.5946 11.7948 1.5946 13.8745C16.3827 13.8745 31.1708 13.8745 46.4071 13.8745C46.8451 9.42207 46.8451 9.42207 45.2111 5.44101C44.4898 4.78383 43.6986 4.47647 42.7231 4.47537C42.6571 4.47504 42.5911 4.47471 42.5231 4.47437C42.3026 4.4735 42.0822 4.47396 41.8616 4.47441C41.7017 4.47406 41.5418 4.47363 41.3819 4.47313C40.9428 4.47198 40.5038 4.47201 40.0647 4.47223C39.591 4.47226 39.1174 4.47123 38.6437 4.47034C37.7158 4.46878 36.7879 4.46827 35.86 4.46816C35.1057 4.46807 34.3515 4.46769 33.5972 4.46709C31.4585 4.46544 29.3198 4.46458 27.1811 4.46472C27.0658 4.46473 26.9505 4.46473 26.8318 4.46474C26.6586 4.46475 26.6586 4.46475 26.482 4.46476C24.6112 4.46484 22.7405 4.46305 20.8698 4.4604C18.9488 4.45771 17.0278 4.45641 15.1068 4.45658C14.0283 4.45664 12.9499 4.45612 11.8715 4.45411C10.9533 4.4524 10.0351 4.45199 9.11688 4.45326C8.64852 4.45388 8.18018 4.45389 7.71183 4.45226C7.28272 4.45078 6.85365 4.45105 6.42455 4.45269C6.26967 4.45298 6.11478 4.45264 5.9599 4.45159C4.46826 4.44218 3.34804 4.75032 2.36218 5.93503ZM1.5946 15.562C1.59073 19.5626 1.58686 23.5632 1.58288 27.685C1.58117 28.9482 1.57946 30.2114 1.57771 31.5128C1.57708 32.6452 1.57708 32.6452 1.5767 33.7775C1.57653 34.2819 1.57584 34.7862 1.5748 35.2905C1.57348 35.9342 1.57313 36.5778 1.5734 37.2215C1.57334 37.4575 1.57297 37.6935 1.57224 37.9295C1.57131 38.2489 1.57154 38.5682 1.57205 38.8876C1.5715 38.9794 1.57096 39.0712 1.5704 39.1658C1.57573 40.4082 1.82287 41.5611 2.68444 42.5034C3.88242 43.5966 5.35278 43.6218 6.88884 43.6171C7.04292 43.6173 7.19699 43.6176 7.35107 43.6179C7.77178 43.6187 8.19248 43.6183 8.61319 43.6177C9.06795 43.6173 9.52271 43.618 9.97747 43.6185C10.8673 43.6193 11.7571 43.6192 12.6469 43.6186C13.3703 43.6182 14.0937 43.6181 14.8171 43.6183C14.9201 43.6184 15.0232 43.6184 15.1294 43.6184C15.3389 43.6185 15.5483 43.6185 15.7577 43.6186C17.72 43.6191 19.6823 43.6185 21.6446 43.6175C23.3272 43.6167 25.0098 43.6168 26.6924 43.6177C28.6478 43.6187 30.6033 43.6191 32.5587 43.6185C32.7674 43.6184 32.976 43.6184 33.1846 43.6183C33.2873 43.6183 33.3899 43.6183 33.4957 43.6182C34.2179 43.6181 34.9402 43.6184 35.6624 43.6188C36.543 43.6193 37.4235 43.6192 38.3041 43.6182C38.7531 43.6177 39.2021 43.6175 39.6511 43.6181C40.0626 43.6187 40.4741 43.6184 40.8856 43.6174C41.0339 43.6172 41.1823 43.6173 41.3307 43.6177C42.7993 43.6219 44.1798 43.5413 45.3173 42.5034C46.257 41.4755 46.4376 40.2282 46.4296 38.8876C46.4298 38.7874 46.43 38.6873 46.4301 38.584C46.4304 38.2501 46.4294 37.9163 46.4284 37.5824C46.4283 37.3382 46.4284 37.094 46.4285 36.8498C46.4286 36.2637 46.4277 35.6775 46.4265 35.0914C46.4251 34.4127 46.425 33.734 46.4248 33.0554C46.4239 31.2653 46.4212 29.4751 46.4188 27.685C46.415 23.6844 46.4111 19.6838 46.4071 15.562C31.619 15.562 16.8308 15.562 1.5946 15.562Z" fill="white"/>
<path d="M25.7827 20.1564C26.017 20.2795 26.017 20.2795 26.1577 20.5314C26.2577 21.376 26.0538 22.2028 25.8781 23.0234C25.848 23.1678 25.818 23.3122 25.7881 23.4566C25.7071 23.846 25.6248 24.235 25.5422 24.6239C25.4557 25.0321 25.3703 25.4405 25.2847 25.8488C25.141 26.5338 24.9964 27.2186 24.8513 27.9032C24.6837 28.6943 24.5175 29.4857 24.3519 30.2772C24.1924 31.04 24.0318 31.8027 23.8708 32.5653C23.8024 32.8893 23.7344 33.2134 23.6666 33.5375C23.5868 33.9189 23.5062 34.3001 23.4249 34.6812C23.3952 34.8209 23.3659 34.9607 23.3368 35.1006C23.2971 35.2916 23.2563 35.4824 23.2152 35.6732C23.1926 35.78 23.1701 35.8867 23.1468 35.9968C23.0196 36.4337 22.882 36.6839 22.5014 36.9377C22.0997 36.9897 21.9111 36.9811 21.5698 36.756C21.2029 36.2112 21.3747 35.5822 21.492 34.9687C21.5451 34.7079 21.6005 34.4475 21.6559 34.1872C21.686 34.043 21.7161 33.8987 21.746 33.7545C21.8272 33.3648 21.9094 32.9754 21.9919 32.586C22.0782 32.1776 22.1637 31.769 22.2494 31.3605C22.3932 30.6748 22.5378 29.9893 22.6828 29.3039C22.8502 28.5122 23.0165 27.7202 23.1822 26.9281C23.3418 26.1648 23.5024 25.4017 23.6633 24.6387C23.7317 24.3145 23.7997 23.9903 23.8675 23.666C23.9473 23.2841 24.028 22.9023 24.1092 22.5207C24.1388 22.3809 24.1682 22.241 24.1973 22.101C24.2371 21.9096 24.2779 21.7183 24.3189 21.5272C24.3414 21.4202 24.364 21.3133 24.3872 21.2031C24.6083 20.4123 24.9204 20.0263 25.7827 20.1564Z" fill="white"/>
<path d="M29.4395 23.344C30.0973 23.7246 30.6627 24.311 31.2332 24.8096C31.5564 25.0918 31.8827 25.3702 32.2109 25.6467C32.7503 26.1016 33.288 26.5583 33.8219 27.0196C34.0106 27.1825 34.2007 27.3417 34.3939 27.4994C34.9359 27.9503 34.9359 27.9503 35.0938 28.3186C35.0253 28.9616 34.6897 29.2688 34.209 29.6604C34.1179 29.7317 34.0267 29.803 33.9329 29.8764C33.675 30.0807 33.4319 30.2936 33.1895 30.5159C32.7962 30.8739 32.3897 31.2106 31.9762 31.5449C31.6997 31.773 31.4287 32.0061 31.1587 32.2418C30.9204 32.4499 30.6809 32.6566 30.4413 32.8631C30.3039 32.9822 30.168 33.103 30.0323 33.224C29.7095 33.4989 29.4679 33.694 29.0352 33.7209C28.6895 33.6565 28.6895 33.6565 28.4609 33.51C28.2658 33.2056 28.227 32.9859 28.2207 32.6252C28.4275 32.1725 28.767 31.9004 29.1406 31.5881C29.2338 31.5089 29.2338 31.5089 29.3289 31.428C29.4581 31.3182 29.5875 31.2087 29.7171 31.0994C29.8978 30.9465 30.0774 30.7925 30.2565 30.6378C31.0647 29.9398 31.8862 29.2604 32.7207 28.594C32.5727 28.1901 32.2627 27.9629 31.9414 27.6975C31.8828 27.6482 31.8242 27.5989 31.7638 27.5481C31.6422 27.4459 31.5204 27.3439 31.3985 27.2422C31.1349 27.0224 30.8732 26.8003 30.6113 26.5784C30.5117 26.494 30.4121 26.4096 30.3125 26.3253C30.2623 26.2828 30.2122 26.2404 30.1605 26.1966C30.0501 26.1034 29.9395 26.0103 29.8287 25.9175C29.6517 25.7691 29.4753 25.62 29.2988 25.4709C29.2449 25.426 29.1909 25.381 29.1353 25.3347C28.2606 24.5926 28.2606 24.5926 28.168 24.0881C28.2333 23.7469 28.3517 23.588 28.5957 23.344C28.9432 23.2281 29.0862 23.244 29.4395 23.344Z" fill="white"/>
<path d="M19.4062 23.3437C19.6671 23.5778 19.7628 23.7368 19.8457 24.0761C19.6427 25.0172 18.4228 25.7491 17.7188 26.3437C17.6123 26.4341 17.5058 26.5246 17.3994 26.615C16.9858 26.9661 16.5715 27.3162 16.1532 27.6617C16.0965 27.7088 16.0399 27.7559 15.9815 27.8045C15.8722 27.8953 15.7626 27.9857 15.6525 28.0755C15.5253 28.1817 15.4027 28.2935 15.2812 28.4062C15.2812 28.4681 15.2812 28.5299 15.2812 28.5937C15.4188 28.7186 15.5628 28.8364 15.709 28.9511C16.1471 29.3016 16.5752 29.6605 16.998 30.0292C17.1178 30.1335 17.2375 30.2377 17.3573 30.342C17.417 30.3939 17.4766 30.4458 17.5381 30.4994C17.8316 30.7541 18.1266 31.007 18.4219 31.2597C18.4993 31.326 18.4993 31.326 18.5784 31.3937C18.6282 31.4363 18.6781 31.479 18.7295 31.523C18.7782 31.5651 18.8269 31.6071 18.8771 31.6504C18.9871 31.7438 19.0988 31.8351 19.2116 31.9251C19.2709 31.9732 19.3302 32.0213 19.3912 32.0709C19.4455 32.1139 19.4997 32.1569 19.5556 32.2012C19.8076 32.4735 19.7871 32.7321 19.7812 33.0937C19.6795 33.416 19.6037 33.4621 19.3125 33.6562C18.8452 33.7096 18.6583 33.718 18.2589 33.4603C18.1612 33.3731 18.0652 33.284 17.9707 33.1933C17.8645 33.0974 17.7581 33.0016 17.6517 32.9058C17.5997 32.8579 17.5476 32.8101 17.4939 32.7608C17.2829 32.5699 17.062 32.3925 16.8398 32.2148C16.3061 31.7802 15.7873 31.3292 15.2684 30.877C15.0271 30.6669 14.7847 30.4582 14.5411 30.2508C14.4824 30.2007 14.4236 30.1507 14.3631 30.0991C14.2522 30.0048 14.1413 29.9107 14.0302 29.8167C13.0446 28.9775 13.0446 28.9775 12.9375 28.4062C13.0522 27.9733 13.3074 27.731 13.6348 27.4452C13.6851 27.4002 13.7355 27.3552 13.7874 27.3088C14.1831 26.9577 14.5911 26.6225 15.0029 26.2906C15.3294 26.023 15.6484 25.7477 15.9668 25.4706C16.026 25.4192 16.0852 25.3678 16.1462 25.3149C16.3866 25.1059 16.6269 24.8969 16.8663 24.6868C18.6828 23.0933 18.6828 23.0933 19.4062 23.3437Z" fill="white"/>
<path d="M14.8125 6.93741C15.4877 7.43258 15.9362 7.93709 16.0975 8.76993C16.1912 9.55437 16.0008 10.2208 15.5625 10.8749C15.0469 11.4581 14.3967 11.7504 13.6241 11.812C12.8688 11.8133 12.2157 11.5447 11.6715 11.0203C11.2038 10.4884 10.9997 9.95744 10.9453 9.26358C11.0018 8.40158 11.2708 7.80645 11.9063 7.21866C12.7495 6.55108 13.8555 6.44081 14.8125 6.93741ZM12.8438 8.62491C12.6803 8.89977 12.6549 9.06075 12.668 9.38077C12.7639 9.70292 12.8572 9.83031 13.125 10.0312C13.4502 10.1595 13.5653 10.1366 13.8926 10.0019C14.2009 9.81684 14.3195 9.74025 14.4199 9.39248C14.4412 9.0313 14.3771 8.90663 14.1563 8.62491C13.9508 8.42632 13.8357 8.35204 13.5527 8.3085C13.2509 8.35267 13.0838 8.43673 12.8438 8.62491Z" fill="white"/>
<path d="M22.9682 7.31234C23.5213 7.8495 23.776 8.44805 23.8354 9.20492C23.7788 10.0675 23.5094 10.6612 22.8744 11.2498C22.2914 11.7213 21.6491 11.8775 20.9057 11.8123C20.102 11.6192 19.5227 11.2718 19.0307 10.5936C18.6684 9.9078 18.5647 9.21357 18.7641 8.46187C19.046 7.70611 19.5306 7.19943 20.2494 6.84359C21.1629 6.47124 22.2221 6.68253 22.9682 7.31234ZM20.7182 8.53109C20.5034 8.76127 20.3719 8.96485 20.3432 9.28109C20.436 9.59834 20.5399 9.83679 20.8119 10.0311C21.1629 10.1403 21.3314 10.1406 21.6791 10.0135C21.9974 9.80664 21.9974 9.80664 22.1244 9.46859C22.1114 9.10468 22.0843 8.88505 21.8666 8.58968C21.4618 8.29728 21.1537 8.2904 20.7182 8.53109Z" fill="white"/>
<path d="M7.10207 6.90718C7.65598 7.23165 8.04749 7.68423 8.28237 8.28267C8.48571 9.09364 8.4331 9.86591 8.00771 10.5891C7.61603 11.1592 7.12483 11.5027 6.46963 11.7185C5.67385 11.8206 4.96573 11.7608 4.30202 11.2988C3.75031 10.8554 3.42505 10.3507 3.28213 9.65596C3.19236 8.81717 3.40106 8.16871 3.8622 7.47042C4.76366 6.60903 5.95809 6.38202 7.10207 6.90718ZM5.06338 8.71846C4.92963 8.98595 4.94053 9.1717 4.96963 9.46846C5.13837 9.72158 5.25873 9.89426 5.53213 10.031C5.93462 10.0765 6.1247 10.0743 6.46377 9.84346C6.67878 9.53072 6.7282 9.36535 6.70217 8.99385C6.62066 8.66516 6.46209 8.52982 6.18838 8.34346C5.67581 8.26108 5.42765 8.35418 5.06338 8.71846Z" fill="white"/>
</g>
</g>
<defs>
<clipPath id="clip0_603_1118">
<rect width="48" height="48" fill="white"/>
</clipPath>
</defs>
</svg>
