<svg width="40" height="40" viewBox="0 0 40 40" fill="none" xmlns="http://www.w3.org/2000/svg">
<g clip-path="url(#clip0_819_1137)">
<path d="M19.972 -0.025094C20.0515 -0.0249257 20.131 -0.0247573 20.213 -0.0245838C21.3543 -0.0207033 22.474 -0.00110199 23.595 0.233695C23.6712 0.249217 23.7473 0.264738 23.8258 0.28073C28.4794 1.25417 32.882 3.7456 35.7825 7.57745C35.815 7.61954 35.8474 7.66164 35.8808 7.70501C37.795 10.1948 39.0834 13.0506 39.7132 16.1273C39.7247 16.1834 39.7362 16.2396 39.7481 16.2974C39.9804 17.5198 40.0304 18.7287 40.0257 19.97C40.0255 20.0495 40.0253 20.1291 40.0252 20.211C40.0213 21.3523 40.0017 22.472 39.7669 23.5931C39.7436 23.7073 39.7436 23.7073 39.7199 23.8239C38.919 27.6526 37.1737 31.0904 34.4544 33.9056C34.4076 33.9541 34.3608 34.0026 34.3126 34.0526C33.7139 34.6698 33.1091 35.2593 32.4231 35.7806C32.3809 35.8131 32.3387 35.8457 32.2952 35.8792C29.8055 37.7931 26.9499 39.0815 23.8733 39.7112C23.8172 39.7227 23.761 39.7343 23.7031 39.7461C22.5566 39.964 21.4218 40.0266 20.257 40.024C20.0273 40.0237 19.7977 40.0256 19.5681 40.0275C18.5233 40.031 17.5158 39.9369 16.4856 39.7649C16.3524 39.7429 16.3524 39.7429 16.2165 39.7204C16.0137 39.684 15.8128 39.6435 15.6116 39.5989C15.5031 39.5749 15.5031 39.5749 15.3924 39.5505C11.8694 38.7313 8.69058 36.9551 6.09502 34.4524C6.01972 34.3803 6.01972 34.3803 5.94289 34.3068C5.22601 33.6172 4.57368 32.911 3.98565 32.1087C3.93587 32.042 3.93587 32.042 3.88509 31.9739C3.37606 31.291 2.92034 30.5844 2.50127 29.8431C2.46985 29.7878 2.43843 29.7326 2.40606 29.6756C1.38845 27.8682 0.704944 25.9017 0.289359 23.8714C0.277847 23.8152 0.266335 23.7591 0.254474 23.7012C0.0221411 22.4788 -0.0278678 21.27 -0.0231409 20.0286C-0.0229725 19.9491 -0.0228042 19.8696 -0.0226307 19.7876C-0.0187502 18.6463 0.000851132 17.5266 0.235648 16.4056C0.25117 16.3294 0.266691 16.2533 0.282683 16.1748C1.07336 12.3949 2.78558 8.95836 5.47002 6.1712C5.51941 6.11968 5.56879 6.06817 5.61967 6.0151C6.33408 5.27383 7.06044 4.59102 7.8919 3.9837C7.98182 3.91666 8.07175 3.84962 8.16167 3.78258C8.80149 3.3109 9.46576 2.89037 10.1575 2.49932C10.2128 2.4679 10.268 2.43648 10.325 2.40411C12.1324 1.38649 14.0989 0.702991 16.1292 0.287406C16.1854 0.275894 16.2415 0.264382 16.2994 0.252521C17.5218 0.0201879 18.7306 -0.0298209 19.972 -0.025094ZM11.4417 11.7718C9.20282 14.3455 8.33793 17.5022 8.5169 20.8587C8.5558 21.3375 8.63791 21.7987 8.75127 22.2649C8.76427 22.3215 8.77726 22.378 8.79064 22.4363C9.02474 23.4379 9.37785 24.4273 9.90789 25.313C10.0893 25.766 9.90487 26.2794 9.77678 26.7333C9.76216 26.7856 9.74755 26.8379 9.73249 26.8917C9.70105 27.004 9.66942 27.1163 9.6376 27.2284C9.58728 27.406 9.53756 27.5837 9.488 27.7614C9.3471 28.2663 9.20507 28.7709 9.06278 29.2753C8.97552 29.5849 8.88889 29.8946 8.80265 30.2045C8.7697 30.3223 8.73649 30.4401 8.70303 30.5578C8.65639 30.7218 8.61057 30.886 8.56493 31.0503C8.52546 31.1903 8.52546 31.1903 8.48521 31.3332C8.41828 31.5653 8.41828 31.5653 8.5169 31.7962C8.59122 31.7764 8.66555 31.7567 8.74212 31.7363C9.44303 31.5502 10.1442 31.3651 10.8456 31.181C11.2062 31.0863 11.5667 30.9912 11.927 30.8954C12.2748 30.8029 12.6228 30.7113 12.971 30.6203C13.1037 30.5855 13.2364 30.5503 13.3689 30.5148C13.5547 30.4651 13.7409 30.4165 13.9271 30.3683C14.0089 30.3459 14.0089 30.3459 14.0924 30.3231C14.6581 30.1792 15.0123 30.3018 15.5189 30.5608C18.2462 31.8898 21.5104 31.9435 24.3543 30.9707C26.038 30.3616 27.4678 29.4411 28.7513 28.2024C28.8169 28.1417 28.8826 28.081 28.9502 28.0184C30.6577 26.3952 31.7307 24.1672 32.1888 21.8743C32.2063 21.7874 32.2238 21.7005 32.2419 21.611C32.6459 19.173 32.2471 16.6638 31.1731 14.4524C31.1499 14.4036 31.1267 14.3548 31.1027 14.3045C30.1139 12.2505 28.446 10.521 26.4856 9.37432C26.4371 9.34524 26.3885 9.31616 26.3385 9.2862C21.4048 6.36259 15.2591 7.72388 11.4417 11.7718Z" fill="white"/>
<path d="M26.9304 12.0566C27.1234 12.2275 27.3122 12.4019 27.4999 12.5784C27.546 12.6195 27.5921 12.6606 27.6397 12.7029C29.255 14.2034 30.3082 16.6421 30.4004 18.8274C30.4723 21.9256 29.6504 24.5046 27.4999 26.7972C25.632 28.6651 23.0897 29.6304 20.4735 29.7073C20.3416 29.7035 20.2097 29.6965 20.078 29.6878C20.0277 29.6846 19.9773 29.6814 19.9254 29.6781C18.6019 29.5863 17.38 29.296 16.1721 28.7457C16.1228 28.7238 16.0735 28.702 16.0227 28.6794C15.8593 28.594 15.8593 28.594 15.6788 28.4568C15.2853 28.1905 14.9806 28.0967 14.5123 28.1756C14.0267 28.2812 13.5519 28.4223 13.0761 28.5647C12.9086 28.6124 12.7411 28.6597 12.5734 28.7067C12.2071 28.8096 11.8417 28.9154 11.4769 29.024C11.328 29.0628 11.328 29.0628 11.1718 29.0628C11.2101 28.8885 11.2492 28.7144 11.289 28.5403C11.3084 28.4551 11.3084 28.4551 11.3282 28.3681C11.424 27.9604 11.5333 27.5581 11.6497 27.1558C11.6789 27.0538 11.7082 26.9519 11.7374 26.85C11.7814 26.6969 11.8259 26.5439 11.8717 26.3912C11.9152 26.2465 11.957 26.1013 11.9988 25.9561C12.0238 25.8717 12.0488 25.7873 12.0746 25.7003C12.1149 25.4315 12.0767 25.3169 11.953 25.0784C11.926 25.0262 11.8989 24.9739 11.871 24.9201C11.8421 24.8689 11.8132 24.8177 11.7833 24.765C11.3209 23.9298 10.9501 23.1111 10.703 22.1878C10.6765 22.0894 10.6501 21.991 10.6228 21.8896C10.0461 19.2563 10.5884 16.5849 11.953 14.2972C12.3381 13.6996 12.7943 13.1729 13.2811 12.6565C13.3281 12.6046 13.375 12.5526 13.4234 12.4991C16.9323 8.76231 23.1588 8.8284 26.9304 12.0566ZM14.9087 15.0995C14.39 15.8725 14.2823 16.7382 14.4054 17.6477C14.647 18.7829 15.2863 19.7523 15.9923 20.6522C16.0813 20.7658 16.1685 20.881 16.2554 20.9964C17.1268 22.1172 18.1791 23.1384 19.3749 23.9065C19.4323 23.9438 19.4896 23.981 19.5487 24.0194C20.0517 24.3346 20.5711 24.5644 21.1229 24.7806C21.2456 24.8303 21.2456 24.8303 21.3707 24.8811C22.4328 25.3027 23.5321 25.6261 24.6551 25.2383C25.3038 24.957 25.8529 24.5786 26.2499 23.9847C26.3311 23.7669 26.3311 23.7669 26.3866 23.5306C26.4072 23.4527 26.4277 23.3749 26.4489 23.2947C26.4925 22.9893 26.5026 22.7962 26.4061 22.5003C26.2023 22.3276 25.9735 22.2219 25.7323 22.1097C25.6657 22.0769 25.5991 22.044 25.5304 22.0102C25.3941 21.9435 25.2572 21.8777 25.12 21.8128C24.9376 21.7265 24.7568 21.6376 24.5763 21.5475C23.9943 21.2167 23.9943 21.2167 23.3593 21.1722C23.1975 21.3289 23.0664 21.4745 22.9296 21.6507C22.8936 21.6952 22.8577 21.7397 22.8206 21.7856C22.7849 21.8299 22.7491 21.8742 22.7123 21.9199C22.6765 21.964 22.6408 22.0081 22.604 22.0536C22.4982 22.1862 22.4982 22.1862 22.408 22.3287C22.3168 22.4606 22.3168 22.4606 22.1093 22.6565C21.644 22.6679 21.2861 22.5172 20.8788 22.305C20.8249 22.2775 20.7711 22.2499 20.7156 22.2216C20.1994 21.9495 19.7489 21.6194 19.2968 21.2503C19.2476 21.2139 19.1985 21.1776 19.1478 21.1401C18.5302 20.6638 17.5936 19.624 17.4639 18.847C17.5223 18.4367 17.7948 18.1834 18.0607 17.8776C18.2646 17.6243 18.3938 17.4355 18.3754 17.103C18.2868 16.6288 18.0822 16.1874 17.8876 15.7486C17.8219 15.6002 17.7577 15.4513 17.6937 15.3023C17.4619 14.7242 17.4619 14.7242 17.1093 14.219C16.8931 14.187 16.7144 14.1753 16.4989 14.18C16.417 14.1782 16.417 14.1782 16.3334 14.1763C15.6548 14.1814 15.3027 14.5894 14.9087 15.0995Z" fill="white"/>
</g>
<defs>
<clipPath id="clip0_819_1137">
<rect width="40" height="40" fill="white"/>
</clipPath>
</defs>
</svg>
