<?xml version="1.0" encoding="UTF-8"?>
<svg version="1.1" xmlns="http://www.w3.org/2000/svg" width="512" height="512">
<path d="M0 0 C1.92137819 -0.00604435 3.84275157 -0.01382399 5.76411647 -0.02318513 C11.03383158 -0.04374599 16.30327456 -0.0393814 21.57301199 -0.03082395 C27.26028288 -0.0258896 32.94748823 -0.04391761 38.63473511 -0.05889893 C49.77292218 -0.08439778 60.91101283 -0.08797969 72.04922418 -0.0832984 C81.10307533 -0.07973221 90.15689721 -0.08323099 99.21074486 -0.09174728 C101.14369624 -0.09353285 101.14369624 -0.09353285 103.11569714 -0.09535449 C105.73357657 -0.097778 108.35145598 -0.10020627 110.9693354 -0.10263924 C128.5466599 -0.11821347 146.12396882 -0.12605211 163.70129871 -0.11800575 C164.73197289 -0.11753662 164.73197289 -0.11753662 165.78346876 -0.11705802 C169.26588777 -0.1154465 172.74830673 -0.11375496 176.23072568 -0.11203142 C176.92232014 -0.11168924 177.6139146 -0.11134706 178.32646646 -0.11099452 C179.72503796 -0.11030121 181.12360946 -0.10960415 182.52218095 -0.10890335 C204.28142755 -0.09819019 226.04051203 -0.11404775 247.79972839 -0.15097046 C272.25814841 -0.19242498 296.71645112 -0.21379092 321.17491072 -0.20581949 C334.12077302 -0.2019945 347.06648764 -0.20697976 360.01232338 -0.23524857 C371.0336346 -0.25907146 382.05470722 -0.26189147 393.07602171 -0.23766823 C398.69784074 -0.22588716 404.31922332 -0.22370081 409.94101334 -0.24767303 C415.0912887 -0.26937917 420.24076292 -0.26319934 425.39100071 -0.23514967 C427.25028647 -0.22985243 429.1096349 -0.23459961 430.96885917 -0.25062139 C442.61914116 -0.34401834 452.38499039 0.30691748 461.52966529 8.51651609 C463.43012853 10.45947094 464.87051503 12.20533062 466.30729675 14.52139282 C466.63833763 15.04623266 466.9693785 15.57107251 467.31045091 16.11181659 C471.52119388 23.94553658 470.8699677 32.36796242 470.82868958 40.99925232 C470.83473483 42.78863734 470.84251492 44.5780172 470.85187471 46.36738795 C470.87242401 51.27225897 470.86807397 56.17683744 470.85951352 61.08173239 C470.85457706 66.37636374 470.87260982 71.67092482 470.8875885 76.9655304 C470.91308154 87.33368829 470.91666999 97.70174258 470.91198798 108.06992654 C470.90842111 116.49830166 470.91192201 124.92664535 470.92043686 133.35501671 C470.92162724 134.5548394 470.92281762 135.7546621 470.92404407 136.99084305 C470.92646758 139.42833848 470.92889585 141.8658339 470.93132882 144.30332931 C470.95307967 167.16027914 470.94875498 190.01716996 470.93655913 212.87412312 C470.92622161 233.77826515 470.94872944 254.68222076 470.98675556 275.58632592 C471.02551239 297.05692206 471.04202431 318.52743001 471.03450906 339.99806136 C471.03068487 352.0496663 471.0356616 364.10111259 471.06393814 376.15268898 C471.08776788 386.41277173 471.09057342 396.67259818 471.06635781 406.93268446 C471.05458145 412.16566384 471.05237714 417.39817445 471.07636261 422.63112259 C471.09808502 427.42613726 471.09186997 432.22029191 471.06383924 437.01526638 C471.05854644 438.74534706 471.06327532 440.47549518 471.07931097 442.20550964 C471.17586454 453.40380306 470.04591692 462.75230793 462.49869692 471.65475684 C452.46162504 481.30529659 440.64863784 481.09793201 427.55680847 481.02932739 C425.64139266 481.03393978 423.72598039 481.04029496 421.81057549 481.04823637 C416.56204802 481.06490632 411.31381217 481.05669383 406.06528378 481.0442915 C400.39921041 481.03523383 394.73318686 481.04921431 389.06712341 481.06021118 C377.97318185 481.07799328 366.87934857 481.07415775 355.78540277 481.06256062 C346.76874561 481.05352538 337.75211877 481.0523027 328.73545837 481.05665588 C327.45193289 481.05726882 326.1684074 481.05788175 324.8459872 481.05851325 C322.23849184 481.05979216 319.6309965 481.06108901 317.02350116 481.06240362 C293.27255091 481.07348343 269.52166623 481.0619952 245.77072641 481.04103323 C224.09864012 481.02205144 202.42664785 481.02374997 180.75456238 481.0428772 C156.39394684 481.06430549 132.03339527 481.07270989 107.67276955 481.06042814 C105.07489142 481.05915395 102.47701328 481.05789647 99.87913513 481.05665588 C97.96184988 481.05573023 97.96184988 481.05573023 96.0058316 481.05478588 C87.00049252 481.05133286 77.99518681 481.05716031 68.98985291 481.0665741 C58.0146579 481.07779495 47.03957733 481.0747521 36.06439543 481.05345112 C30.46518627 481.042942 24.86616787 481.03881673 19.26696014 481.05204773 C14.13979728 481.06398 9.01300174 481.05739498 3.88587213 481.03613752 C2.03271161 481.03167505 0.17951998 481.03392973 -1.67362046 481.04364067 C-14.2481646 481.10447199 -23.93047235 480.25258849 -33.8059845 471.79092407 C-41.3797392 462.68046551 -41.40821761 454.17019797 -41.33435059 442.80229187 C-41.34083202 440.98673038 -41.34948816 439.17117558 -41.36012489 437.35563368 C-41.38290886 432.37843066 -41.37456502 427.40169592 -41.36098564 422.42447722 C-41.35172656 417.05216634 -41.37122446 411.67994811 -41.38696289 406.30766296 C-41.41304879 395.78774981 -41.41196238 385.26800756 -41.4009247 374.74807436 C-41.39236571 366.19763324 -41.39319753 357.64724157 -41.4007206 349.09679985 C-41.40177548 347.87974754 -41.40283037 346.66269524 -41.40391723 345.40876256 C-41.40608816 342.93631366 -41.40827493 340.46386478 -41.41047738 337.99141591 C-41.42990716 314.80736207 -41.41790937 291.62340411 -41.39569143 268.43935811 C-41.37744135 248.54939839 -41.38834323 228.6596243 -41.41999817 208.76968384 C-41.45675935 185.67000869 -41.47378297 162.57044949 -41.46058589 139.47074503 C-41.4592448 137.00709722 -41.45793582 134.5434494 -41.45665932 132.07980156 C-41.45602865 130.86765505 -41.45539799 129.65550855 -41.45474821 128.40663033 C-41.45172093 119.8676556 -41.46298144 111.32876833 -41.4799099 102.78981209 C-41.50023292 92.3818094 -41.49936796 81.97406868 -41.4712775 71.56607968 C-41.45750316 66.25639653 -41.45332483 60.94717073 -41.47522736 55.63750458 C-41.49502137 50.77473931 -41.48701002 45.91283414 -41.45703302 41.05012827 C-41.45103576 39.29316963 -41.45510944 37.53614096 -41.47039624 35.77923859 C-41.55777777 24.94497719 -40.66386857 17.06691202 -33.06943244 8.741983 C-31.36356609 7.13067791 -29.6461983 5.81869026 -27.69270325 4.52139282 C-26.86521567 3.97044919 -26.86521567 3.97044919 -26.02101117 3.40837538 C-17.98608379 -0.92027361 -8.85728446 -0.03939268 0 0 Z M-22.63020325 21.20889282 C-27.41781887 28.89809367 -26.96323143 36.98737502 -26.88801575 45.77139282 C-26.88518585 47.0252478 -26.88235596 48.27910278 -26.87944031 49.57095337 C-26.87018469 52.87863932 -26.85226541 56.18612464 -26.83003235 59.4937439 C-26.80944688 62.87923752 -26.80041164 66.26476069 -26.7903595 69.65029907 C-26.76837199 76.2740745 -26.73494901 82.89771728 -26.69270325 89.52139282 C-26.13560165 89.52947968 -25.57850006 89.53756653 -25.0045166 89.54589844 C-19.21325098 89.63186551 -13.42233075 89.73136543 -7.63142395 89.83877563 C-5.46937352 89.87709086 -3.30725878 89.91193922 -1.14509583 89.94326782 C1.9603628 89.98886299 5.06537774 90.04686666 8.170578 90.10733032 C9.13941422 90.11888153 10.10825043 90.13043274 11.10644531 90.14233398 C12.00715256 90.16220367 12.9078598 90.18207336 13.83586121 90.20254517 C14.62861954 90.21586884 15.42137787 90.2291925 16.23815918 90.24291992 C18.30729675 90.52139282 18.30729675 90.52139282 21.30729675 92.52139282 C22.14301676 95.99284516 22.66428402 98.47789158 21.49479675 101.89639282 C20.30729675 103.52139282 20.30729675 103.52139282 18.30729675 104.52139282 C16.85781746 104.63906754 15.40335679 104.6982855 13.9493866 104.72671509 C12.59821243 104.75663292 12.59821243 104.75663292 11.21974182 104.78715515 C10.24574432 104.80386765 9.27174683 104.82058014 8.26823425 104.83779907 C7.27224213 104.85858017 6.27625 104.87936127 5.25007629 104.90077209 C2.06088821 104.96628324 -1.12838382 105.02515987 -4.31770325 105.08389282 C-6.47656618 105.12707655 -8.63542055 105.17069079 -10.79426575 105.2147522 C-16.09365554 105.32196619 -21.3931293 105.42372967 -26.69270325 105.52139282 C-26.73847522 149.08138593 -26.77371968 192.64137649 -26.79483391 236.2013889 C-26.79733534 241.34337592 -26.79992398 246.4853629 -26.80256653 251.62734985 C-26.80309115 252.65103224 -26.80361577 253.67471462 -26.80415629 254.72941768 C-26.81286026 271.30742762 -26.8286302 287.88542369 -26.84700884 304.4634254 C-26.86570809 321.47240981 -26.87682003 338.48138697 -26.88088024 355.49038124 C-26.88362524 365.98687034 -26.89229699 376.48332026 -26.90853618 386.9797973 C-26.91910336 394.17640929 -26.92230447 401.37300101 -26.919706 408.56962019 C-26.9184243 412.72243459 -26.92039717 416.87518048 -26.9311142 421.02798271 C-26.94085856 424.83167361 -26.94133045 428.63525004 -26.93450104 432.43894625 C-26.93325812 434.46309246 -26.94187327 436.48723736 -26.95086586 438.51136398 C-27.01923825 451.08478516 -27.01923825 451.08478516 -20.69270325 461.52139282 C-16.53226001 464.64095556 -12.95611755 464.95030648 -7.91582012 464.90729618 C-6.7457836 464.91518485 -6.7457836 464.91518485 -5.55210999 464.92323288 C-2.92854275 464.93723045 -0.30547302 464.92981247 2.31811523 464.92253113 C4.21414129 464.92813421 6.11016387 464.93503582 8.00618094 464.9431271 C13.22420285 464.96151604 18.44208082 464.96107626 23.66012776 464.95754397 C29.28467171 464.95693283 34.90916906 464.97347979 40.53369141 464.98771667 C51.55609795 465.01265708 62.57845637 465.02088213 73.60088877 465.02255381 C82.55856547 465.0239783 91.51622626 465.03013755 100.47389793 465.03965569 C121.72697022 465.0617796 142.98002914 465.08022954 164.23311329 465.07866001 C164.91289718 465.07861328 165.59268107 465.07856654 166.29306448 465.07851839 C169.73853931 465.07826906 173.18401415 465.07797194 176.62948898 465.07766426 C177.65592543 465.07757451 177.65592543 465.07757451 178.70309798 465.07748294 C180.08690134 465.07736163 181.4707047 465.07723624 182.85450806 465.07710677 C204.38481154 465.07526846 225.91497329 465.09778835 247.44523621 465.13882446 C271.63110716 465.18490303 295.81685529 465.21068537 320.00278109 465.2079348 C332.80997223 465.20693794 345.61700353 465.21522035 358.4241581 465.24746895 C369.32782829 465.27474814 380.23126619 465.28133949 391.13495568 465.26094068 C396.69955136 465.25112664 402.26370109 465.25104005 407.8282547 465.27700043 C412.92172833 465.30051895 418.01440051 465.29638186 423.10785397 465.27014803 C424.95104141 465.26552592 426.7942879 465.2710562 428.63740573 465.28772826 C440.69491995 465.69960401 440.69491995 465.69960401 451.0085699 460.19844192 C455.15351852 454.84605984 455.43275163 449.01683812 455.43034458 442.42634773 C455.43233563 441.21959676 455.43432668 440.01284579 455.43637806 438.7695266 C455.4320088 436.79384928 455.4320088 436.79384928 455.42755127 434.77825928 C455.4279875 433.35827422 455.42886337 431.93828925 455.43014044 430.51830471 C455.43237513 426.62111067 455.42837812 422.72394415 455.42336237 418.82675362 C455.41904336 414.62232083 455.42050533 410.41788958 455.42126465 406.2134552 C455.42178896 398.93057004 455.41865181 391.64769385 455.41302681 384.36481094 C455.4048993 373.83498859 455.4022953 363.30517058 455.40103882 352.77534543 C455.39885027 335.69134315 455.39219552 318.60734564 455.38273621 301.52334595 C455.373557 284.92796859 455.36647865 268.33259252 455.36222839 251.73721313 C455.36196567 250.71424999 455.36170295 249.69128685 455.36143226 248.63732482 C455.36012722 243.5054122 455.35886352 238.37349956 455.35762036 233.24158692 C455.34725388 190.66818558 455.32964091 148.09478945 455.30729675 105.52139282 C454.43068823 105.52079573 453.5540797 105.52019865 452.65090728 105.51958346 C400.73587285 105.48371651 348.82089648 105.42711919 296.9059159 105.34347187 C290.67724231 105.333454 284.44856845 105.32360994 278.21989441 105.31387329 C276.35981058 105.31096123 276.35981058 105.31096123 274.46214929 105.30799034 C254.36365675 105.27693993 234.26517563 105.25998121 214.16666362 105.2481986 C193.55518542 105.23580278 172.94376737 105.20833695 152.33232713 105.16677976 C139.6063115 105.14159936 126.88039556 105.12827885 114.15435466 105.12996325 C105.43646893 105.12999293 96.71868499 105.11543051 88.00083891 105.08922854 C82.96546719 105.07453052 77.93030425 105.06642399 72.89491463 105.07559013 C68.28945836 105.08383216 63.68442294 105.07384679 59.07902935 105.0490562 C57.40872281 105.04333762 55.73837684 105.04444156 54.06808183 105.05288038 C51.80510896 105.06333826 49.54357263 105.04942666 47.28069687 105.02920151 C46.02154425 105.02768263 44.76239164 105.02616374 43.46508288 105.02459884 C39.71665974 104.42727242 38.52095765 103.56132762 36.30729675 100.52139282 C35.80729675 96.95889282 35.80729675 96.95889282 36.30729675 93.52139282 C38.6403076 91.04890005 40.07038722 90.54982746 43.46508288 90.1423853 C45.35381181 90.1395374 45.35381181 90.1395374 47.28069687 90.13663197 C48.33863255 90.12890711 48.33863255 90.12890711 49.41794068 90.12102619 C51.79324298 90.10735548 54.1679969 90.11510641 56.5433197 90.12266541 C58.2585686 90.11722883 59.97381375 90.11047848 61.68905282 90.10252351 C66.41171196 90.08444022 71.13421434 90.08506233 75.85689998 90.08865297 C80.94620115 90.08927519 86.03544897 90.07267206 91.12472534 90.05813599 C99.94532919 90.03531174 108.76589345 90.02345829 117.58652496 90.01900673 C130.33974677 90.0125547 143.0928969 89.98963404 155.84608987 89.96266343 C176.536111 89.91935654 197.22612912 89.88941209 217.91618347 89.86782837 C238.01743552 89.84683036 258.1186629 89.81956557 278.21989441 89.78384399 C280.07772282 89.78054576 280.07772282 89.78054576 281.97308311 89.77718089 C288.18639033 89.76611153 294.39969732 89.75491867 300.61300421 89.74366438 C352.17774658 89.65042405 403.74250295 89.57885169 455.30729675 89.52139282 C455.35381581 82.22771026 455.38926477 74.93406015 455.4109211 67.64025879 C455.42131962 64.25276415 455.43540608 60.86537166 455.45817566 57.47793579 C455.48251971 53.57572768 455.493802 49.67366319 455.50260925 45.77139282 C455.51293182 44.56587769 455.52325439 43.36036255 455.53388977 42.11831665 C455.53490705 34.43743842 455.40469218 27.88993699 451.24479675 21.20889282 C443.01834548 13.68256507 431.62451343 15.09826742 421.201828 15.14044189 C419.34431178 15.13698317 417.48679761 15.13221716 415.62928772 15.12626016 C410.5362331 15.1137501 405.44334739 15.11992064 400.35029221 15.12921882 C394.8532828 15.1360089 389.35630235 15.12552827 383.85929871 15.11727905 C373.09510605 15.10393913 362.33097616 15.10682064 351.56678104 15.11551698 C342.81849719 15.12229208 334.07023092 15.12321099 325.32194519 15.11994553 C324.07685055 15.11948583 322.83175591 15.11902613 321.54893112 15.1185525 C319.0195465 15.11759332 316.49016189 15.11662068 313.96077728 15.11563472 C290.91878712 15.10732394 267.8768266 15.1159426 244.83484364 15.13166252 C223.80741385 15.14589897 202.78003857 15.14462507 181.75260925 15.13027954 C158.11936368 15.11421008 134.48614211 15.10790405 110.85289001 15.11711633 C108.33280945 15.11807198 105.81272889 15.11901509 103.29264832 15.11994553 C101.43275583 15.12063977 101.43275583 15.12063977 99.53528976 15.12134803 C90.7975008 15.12393832 82.05973116 15.11956608 73.32194519 15.11250687 C62.67353359 15.10409318 52.02518833 15.10636931 41.37678432 15.1223491 C35.94380479 15.13023351 30.51093587 15.1333204 25.07795715 15.12340164 C20.10383107 15.11445793 15.12991808 15.11938243 10.15581131 15.1353343 C8.35714554 15.13868344 6.55846175 15.13698503 4.75980759 15.12970693 C-9.97673381 14.64889044 -9.97673381 14.64889044 -22.63020325 21.20889282 Z " fill="#000000" transform="translate(40.69270324707031,16.478607177734375)"/>
<path d="M0 0 C1.62371029 -0.00456866 3.24741866 -0.00987626 4.87112427 -0.0158844 C8.26523724 -0.0247899 11.6591146 -0.02242234 15.05322266 -0.01245117 C19.37938691 -0.00097351 23.70473341 -0.0211671 28.03079033 -0.05036831 C31.38193841 -0.06881275 34.73289358 -0.0684214 38.08407974 -0.06273079 C39.67791006 -0.06257853 41.27175427 -0.06854287 42.86553574 -0.08102226 C52.82749767 -0.1480391 61.94074511 0.03192159 70.0390625 6.58203125 C70.6475 7.31679687 71.2559375 8.0515625 71.8828125 8.80859375 C72.82640625 9.90300781 72.82640625 9.90300781 73.7890625 11.01953125 C77.13009894 16.0802188 77.53814647 20.6014452 77.5703125 26.55859375 C77.70957907 30.2118263 77.70957907 30.2118263 78.3828125 33.43359375 C81.16351764 35.78204012 81.16351764 35.78204012 83.3984375 36.51953125 C87.27276289 38.30416145 89.99250141 41.97642065 92.3828125 45.43359375 C92.7128125 46.75359375 93.0428125 48.07359375 93.3828125 49.43359375 C131.9928125 49.43359375 170.6028125 49.43359375 210.3828125 49.43359375 C210.7128125 47.78359375 211.0428125 46.13359375 211.3828125 44.43359375 C214.47103091 39.90088608 218.31440756 35.68621817 223.3828125 33.43359375 C224.3728125 33.43359375 225.3628125 33.43359375 226.3828125 33.43359375 C226.33640625 32.37140625 226.29 31.30921875 226.2421875 30.21484375 C225.76569937 14.95097964 225.76569937 14.95097964 230.3828125 9.43359375 C235.28965262 4.30138728 239.64377876 0.71553062 246.92939758 0.16616821 C248.31131759 0.14830883 249.69340517 0.14129755 251.07543945 0.14306641 C252.21305725 0.13299057 252.21305725 0.13299057 253.37365723 0.12271118 C255.87286999 0.103764 258.37181369 0.09980852 260.87109375 0.09765625 C262.61598316 0.09122551 264.3608715 0.08449694 266.10575867 0.07748413 C269.76153054 0.06551919 273.41720798 0.06180245 277.07299805 0.06298828 C281.74353649 0.0631913 286.41346531 0.03590312 291.08385944 0.00144386 C294.68797045 -0.02086196 298.29193568 -0.02484812 301.89610863 -0.02379227 C303.61720058 -0.02614321 305.33829686 -0.0349381 307.05932045 -0.050457 C309.47397385 -0.0701902 311.8873248 -0.06425102 314.30200195 -0.05224609 C315.35513832 -0.06910461 315.35513832 -0.06910461 316.42955017 -0.08630371 C322.77922889 -0.00662064 327.76082423 2.26639282 332.58984375 6.2578125 C333.11964844 6.87269531 333.64945312 7.48757812 334.1953125 8.12109375 C334.73800781 8.72308594 335.28070313 9.32507813 335.83984375 9.9453125 C341.18763624 18.56947406 340.82639512 27.7110329 340.78125 37.4921875 C340.78327536 39.04720699 340.78619064 40.60222555 340.78994751 42.15724182 C340.79435045 45.4041556 340.78800669 48.65082043 340.77392578 51.89770508 C340.75684928 56.03428482 340.76667801 60.17027978 340.78464317 64.30683804 C340.79554853 67.51471767 340.79200371 70.72246154 340.7842598 73.93034554 C340.78227564 75.45438775 340.78465344 76.97844279 340.79169846 78.50247002 C340.86849043 99.78134327 340.86849043 99.78134327 333.12890625 107.96484375 C326.92898206 113.17999251 320.37995217 114.55123436 312.4621582 114.59472656 C311.77377365 114.59969147 311.0853891 114.60465637 310.37614441 114.60977173 C308.10361724 114.62434914 305.83115996 114.63118922 303.55859375 114.63671875 C301.97161356 114.64247542 300.38463338 114.64823308 298.7976532 114.6539917 C295.46967242 114.66449022 292.1417157 114.67033988 288.8137207 114.67382812 C284.56822225 114.67929952 280.32304665 114.70330317 276.07764912 114.73180008 C272.79777629 114.75051235 269.51797976 114.75563668 266.23805809 114.757164 C264.67409698 114.76017353 263.11013666 114.76814403 261.54622841 114.78134918 C250.84535261 114.8652283 240.97696224 114.6604924 232.3828125 107.43359375 C227.36585438 100.71712407 226.13002113 95.16595219 226.21679688 86.8828125 C226.20460837 84.63289065 226.20460837 84.63289065 225.3828125 81.43359375 C222.56887395 79.47185208 222.56887395 79.47185208 219.3828125 78.43359375 C214.81837182 75.3906333 212.79264102 72.25325078 210.3828125 67.43359375 C210.3828125 66.77359375 210.3828125 66.11359375 210.3828125 65.43359375 C171.7728125 65.43359375 133.1628125 65.43359375 93.3828125 65.43359375 C92.7228125 67.41359375 92.0628125 69.39359375 91.3828125 71.43359375 C87.95656563 76.32823213 84.73705773 78.80698288 79.3828125 81.43359375 C78.7228125 81.43359375 78.0628125 81.43359375 77.3828125 81.43359375 C77.43501953 82.8103125 77.43501953 82.8103125 77.48828125 84.21484375 C77.69026379 93.37138573 77.58809245 100.94929528 70.99609375 108.046875 C62.89887746 115.00695195 54.56974301 115.04480958 44.3828125 114.43359375 C44.09792969 115.35914063 43.81304687 116.2846875 43.51953125 117.23828125 C41.07306394 124.11529244 36.69426163 127.33741116 30.3828125 130.43359375 C29.7228125 130.43359375 29.0628125 130.43359375 28.3828125 130.43359375 C28.45194686 135.02396215 28.54003538 139.61344187 28.64526367 144.203125 C28.67839917 145.76259456 28.7064662 147.32218077 28.72924805 148.88183594 C28.76300531 151.13136227 28.81532754 153.37983062 28.87109375 155.62890625 C28.87748367 156.31977325 28.8838736 157.01064026 28.89045715 157.72244263 C29.02837652 162.32272547 29.99973183 165.50598463 32.3828125 169.43359375 C36.70180769 173.34768314 40.57497343 173.57512509 46.25341797 173.67407227 C47.29541351 173.69356682 47.29541351 173.69356682 48.35845947 173.7134552 C55.60370553 173.83991463 62.85009074 173.89685383 70.09619141 173.94848633 C73.53434193 173.97527056 76.9711133 174.02405662 80.40869141 174.09204102 C84.56202442 174.17396378 88.71404033 174.21666315 92.86813736 174.23155022 C94.44951087 174.24379945 96.03084068 174.26983698 97.61175156 174.30999947 C106.0693583 174.89595729 106.0693583 174.89595729 113.42449951 171.66950989 C114.70682207 169.62152071 115.55204078 167.69363009 116.3828125 165.43359375 C118.2265625 163.375 118.2265625 163.375 119.8828125 161.99609375 C120.429375 161.52300781 120.9759375 161.04992187 121.5390625 160.5625 C123.78007362 159.19035548 125.80102796 158.81820891 128.3828125 158.43359375 C128.33640625 157.37140625 128.29 156.30921875 128.2421875 155.21484375 C127.94375948 145.54280307 128.34566522 139.36788487 134.6328125 131.68359375 C143.54114738 124.39495612 152.13094287 124.82687852 163.09375 124.8671875 C164.8295627 124.86194502 166.56537255 124.85566626 168.30117798 124.84840393 C171.93073984 124.83802495 175.55990906 124.84252392 179.18945312 124.85717773 C183.8184406 124.87434584 188.44618443 124.85088215 193.07503319 124.81568813 C196.65782749 124.79362177 200.24032856 124.79517808 203.82316971 124.80345345 C205.52864571 124.80426823 207.23414427 124.79749615 208.93955612 124.78268242 C226.78524335 124.65143192 226.78524335 124.65143192 234.3828125 130.43359375 C242.39867862 138.60989429 242.72876424 147.66899317 242.6953125 158.62109375 C242.71142578 159.68779297 242.72753906 160.75449219 242.74414062 161.85351562 C242.74478516 162.88412109 242.74542969 163.91472656 242.74609375 164.9765625 C242.75056519 166.36911255 242.75056519 166.36911255 242.75512695 167.78979492 C242.30841416 170.96189517 241.24652924 172.84972074 239.3828125 175.43359375 C236.29107498 176.97946251 233.78851698 176.72718896 230.3828125 176.43359375 C227.70983008 174.38823546 226.53342555 173.18873295 225.86865234 169.85571289 C225.86043457 168.90301514 225.8522168 167.95031738 225.84375 166.96875 C225.82054687 165.92138672 225.79734375 164.87402344 225.7734375 163.79492188 C225.76828125 162.70630859 225.763125 161.61769531 225.7578125 160.49609375 C225.73220274 158.34103209 225.69863077 156.18604709 225.65625 154.03125 C225.65028809 153.07742432 225.64432617 152.12359863 225.63818359 151.14086914 C225.36170732 148.20985062 224.69853516 146.06126991 223.3828125 143.43359375 C220.43447047 141.95942273 217.79331166 142.28997119 214.50219727 142.27246094 C213.44097153 142.26501358 213.44097153 142.26501358 212.35830688 142.25741577 C210.01360102 142.24278843 207.66896278 142.23599176 205.32421875 142.23046875 C203.69758603 142.22471842 202.07095334 142.21896067 200.44432068 142.2131958 C197.03213179 142.20268464 193.61996648 142.19684252 190.20776367 142.19335938 C185.83158535 142.18786984 181.45571743 142.16383271 177.07963657 142.13538742 C173.71936628 142.11678237 170.35917114 142.11155662 166.99885368 142.1100235 C165.38527667 142.10699235 163.77170112 142.09894827 162.15817451 142.08583832 C159.90281522 142.06881942 157.64821937 142.07064726 155.39282227 142.07714844 C154.10867935 142.07350281 152.82453644 142.06985718 151.5014801 142.06610107 C148.42806788 142.17997174 148.42806788 142.17997174 146.47666931 143.75982666 C144.73883167 146.41898225 144.85025891 148.99117621 144.6953125 152.12109375 C144.62957031 153.30058594 144.56382812 154.48007812 144.49609375 155.6953125 C144.45871094 156.59894531 144.42132813 157.50257813 144.3828125 158.43359375 C145.29804688 158.70171875 146.21328125 158.96984375 147.15625 159.24609375 C152.56704599 161.2374763 155.87313629 164.79055358 158.71484375 169.765625 C161.66647341 176.3885396 162.77822607 182.81455098 160.65234375 189.8515625 C157.39836628 197.7806423 153.01227701 202.54406282 145.3828125 206.43359375 C145.32875128 208.37078753 145.28999225 210.30841296 145.2578125 212.24609375 C145.23460937 213.32503906 145.21140625 214.40398437 145.1875 215.515625 C145.15257533 218.62762243 145.15257533 218.62762243 147.3828125 221.43359375 C152.07575253 222.99790709 156.51905426 223.53231324 161.3828125 222.43359375 C163.41752696 220.3725115 164.60482409 218.29724498 165.9921875 215.76171875 C168.64126143 211.32675228 172.62525541 209.25378706 177.1953125 207.12109375 C185.5450615 205.32016749 193.74137773 206.00350089 201.13671875 210.5 C205.13229917 213.53423776 207.2178084 217.02031617 209.3828125 221.43359375 C209.3828125 222.09359375 209.3828125 222.75359375 209.3828125 223.43359375 C211.48981976 223.23221074 213.5935636 222.99646602 215.6953125 222.74609375 C217.45294922 222.55466797 217.45294922 222.55466797 219.24609375 222.359375 C222.49335451 221.73662504 222.49335451 221.73662504 224.05786133 219.23925781 C225.54149418 216.09757571 225.7383244 214.07318842 225.71875 210.6171875 C225.73808594 208.9765332 225.73808594 208.9765332 225.7578125 207.30273438 C225.7578125 205.01105439 225.74997314 202.71936127 225.734375 200.42773438 C225.85269812 192.07116374 225.85269812 192.07116374 228.6953125 188.65234375 C232.36395807 186.98865564 234.54185454 187.36666098 238.3828125 188.43359375 C240.96736535 190.3289325 241.34556756 191.32185892 242.3828125 194.43359375 C242.64159063 198.1164771 242.61427637 201.80508608 242.6328125 205.49609375 C242.66375 206.9955957 242.66375 206.9955957 242.6953125 208.52539062 C242.7469516 218.45946271 241.215236 226.49871048 234.21484375 233.80859375 C228.53110059 238.85003758 222.39283847 239.57656107 215.0703125 239.49609375 C214.00167969 239.48707031 212.93304688 239.47804688 211.83203125 239.46875 C211.02378906 239.45714844 210.21554687 239.44554687 209.3828125 239.43359375 C209.28097656 240.17480469 209.17914063 240.91601562 209.07421875 241.6796875 C207.91425585 246.29987871 204.86839651 249.29589912 201.3828125 252.43359375 C199.31640625 253.484375 199.31640625 253.484375 197.2578125 254.30859375 C192.61232225 256.30463291 191.48984181 259.57682557 189.515625 264.03515625 C186.68808954 270.02173132 181.02297185 273.36572465 175.3828125 276.43359375 C171.5700736 277.70450672 167.99898399 277.56179291 164.02758789 277.54370117 C162.26123554 277.54424381 160.49488321 277.54483081 158.72853088 277.54545593 C157.79202761 277.54402777 156.85552433 277.5425996 155.89064217 277.54112816 C150.93810701 277.53761282 145.98568611 277.56339844 141.03320312 277.58398438 C134.7278491 277.60834581 128.4228262 277.62399455 122.11743164 277.60864258 C117.0238119 277.59700198 111.93101383 277.61431914 106.83752251 277.65108681 C104.89545903 277.65971813 102.9533172 277.6575977 101.01127815 277.64458275 C98.29574357 277.62774129 95.58281294 277.64782539 92.86743164 277.67651367 C92.06366089 277.66272171 91.25989014 277.64892975 90.4317627 277.63471985 C87.90618289 277.62131535 87.90618289 277.62131535 84.3828125 278.43359375 C81.88513129 281.24452495 81.88513129 281.24452495 80.3828125 284.43359375 C78.63671875 286.296875 78.63671875 286.296875 76.9453125 287.74609375 C76.38972656 288.23722656 75.83414063 288.72835938 75.26171875 289.234375 C73.00269755 290.6762035 71.01570663 291.04972411 68.3828125 291.43359375 C68.42921875 292.49578125 68.475625 293.55796875 68.5234375 294.65234375 C68.80524716 303.67986014 69.01777927 310.4929164 62.546875 317.390625 C56.47143536 323.10526267 50.98685552 324.73496599 42.66845703 324.72412109 C41.91965271 324.73083832 41.17084839 324.73755554 40.39935303 324.74447632 C37.93804179 324.763385 35.47700423 324.76737677 33.015625 324.76953125 C31.29458507 324.77596378 29.57354622 324.78269248 27.85250854 324.78970337 C24.24979112 324.80165804 20.64716945 324.80538602 17.04443359 324.80419922 C12.44230173 324.80399605 7.84078753 324.83130373 3.23880196 324.86574364 C-0.31469509 324.88804894 -3.86804429 324.89203566 -7.42160416 324.89097977 C-9.11757664 324.89333004 -10.81355356 324.90212111 -12.50945663 324.9176445 C-30.01641731 325.06290292 -30.01641731 325.06290292 -37.82421875 318.609375 C-38.61892578 317.68705078 -38.61892578 317.68705078 -39.4296875 316.74609375 C-40.24373047 315.84310547 -40.24373047 315.84310547 -41.07421875 314.921875 C-46.42201124 306.29771344 -46.06077012 297.1561546 -46.015625 287.375 C-46.01765036 285.81998051 -46.02056564 284.26496195 -46.02432251 282.70994568 C-46.02872545 279.4630319 -46.02238169 276.21636707 -46.00830078 272.96948242 C-45.99122428 268.83290268 -46.00105301 264.69690772 -46.01901817 260.56034946 C-46.02992353 257.35246983 -46.02637871 254.14472596 -46.0186348 250.93684196 C-46.01665064 249.41279975 -46.01902844 247.88874471 -46.02607346 246.36471748 C-46.10286543 225.08584423 -46.10286543 225.08584423 -38.36328125 216.90234375 C-32.12456805 211.6545671 -25.55313171 210.31548906 -17.58886719 210.27246094 C-16.88912277 210.26749603 -16.18937836 210.26253113 -15.46842957 210.25741577 C-13.15863044 210.24283872 -10.84890003 210.23599891 -8.5390625 210.23046875 C-6.92726643 210.22471276 -5.31547037 210.21895508 -3.70367432 210.2131958 C-0.32441897 210.20269788 3.05481268 210.1968476 6.43408203 210.19335938 C10.74917866 210.18788324 15.06395838 210.1638691 19.37895584 210.13538742 C22.70940036 210.11669581 26.03976962 210.11155194 29.37026215 210.1100235 C30.96016926 210.10701014 32.55007546 210.09902642 34.13993073 210.08583832 C44.39181848 210.00688098 53.29899642 210.24328792 61.77734375 216.8203125 C67.341224 222.41126759 68.68175334 228.70230601 68.8203125 236.37109375 C68.78744141 238.27181641 68.78744141 238.27181641 68.75390625 240.2109375 C68.96144531 241.27441406 69.16898437 242.33789062 69.3828125 243.43359375 C72.19244518 245.37490605 72.19244518 245.37490605 75.3828125 246.43359375 C80.43936476 249.64018786 82.95477317 254.08157515 85.3828125 259.43359375 C85.3828125 260.09359375 85.3828125 260.75359375 85.3828125 261.43359375 C96.24881789 261.34920351 107.11467627 261.25432509 117.98047161 261.14606667 C123.02593424 261.09612693 128.07137616 261.04979658 133.11694336 261.01171875 C137.9864492 260.97483676 142.85578088 260.92846869 147.72513771 260.87553024 C149.58262895 260.85700182 151.44015751 260.84188813 153.2977047 260.83024979 C155.90006712 260.81336085 158.50203203 260.78431936 161.10424805 260.75244141 C161.8717337 260.75028122 162.63921936 260.74812103 163.42996216 260.74589539 C167.48268642 260.68250053 170.79268138 260.39850886 174.3828125 258.43359375 C175.26974553 256.39253736 175.26974553 256.39253736 175.3828125 254.43359375 C174.3 254.09328125 174.3 254.09328125 173.1953125 253.74609375 C168.41510258 251.51532912 165.79163749 248.5001625 163.8828125 243.68359375 C163.0116156 241.79314853 163.0116156 241.79314853 161.3828125 240.43359375 C158.12906016 239.78554349 155.02156954 239.67872973 151.70703125 239.5859375 C144.66551646 239.26323588 138.99301396 237.02585177 133.88671875 232.1328125 C128.47061136 226.01331454 127.86197295 219.98544914 128.06103516 211.98095703 C128.10577236 209.68304208 128.10577236 209.68304208 127.3828125 206.43359375 C124.58035126 204.45937831 124.58035126 204.45937831 121.3828125 203.43359375 C117.33920596 200.64157971 114.83298262 197.6987047 112.3828125 193.43359375 C112.3828125 192.44359375 112.3828125 191.45359375 112.3828125 190.43359375 C111.02550522 190.4435865 111.02550522 190.4435865 109.64077759 190.45378113 C101.07912527 190.5140962 92.51754515 190.55967138 83.95572853 190.58903027 C79.55486552 190.60463179 75.15417928 190.62576827 70.75341797 190.65991211 C66.49994565 190.6927036 62.24664249 190.71048815 57.99305344 190.71822548 C56.37687902 190.7237337 54.76071301 190.73448917 53.14461136 190.75078392 C40.95580573 190.86870175 29.90490279 190.5666104 20.5703125 181.71484375 C11.08128541 171.75136531 11.99568113 160.74166738 12.1953125 147.87109375 C12.21038392 146.17774625 12.22406799 144.48438581 12.23632812 142.79101562 C12.26914546 138.67155153 12.32079187 134.55271745 12.3828125 130.43359375 C10.99449219 130.00626953 10.99449219 130.00626953 9.578125 129.5703125 C2.70111381 127.12384519 -0.52100491 122.74504288 -3.6171875 116.43359375 C-3.6171875 115.77359375 -3.6171875 115.11359375 -3.6171875 114.43359375 C-4.58398438 114.49160156 -5.55078125 114.54960937 -6.546875 114.609375 C-14.8731264 114.89790846 -21.76930746 114.74550069 -28.6171875 109.43359375 C-34.82178131 103.12537415 -36.85642588 96.7296637 -36.90771484 87.91870117 C-36.91779068 86.82716484 -36.91779068 86.82716484 -36.92807007 85.71357727 C-36.94697555 83.32200174 -36.95097055 80.93070799 -36.953125 78.5390625 C-36.95955847 76.86525866 -36.96628724 75.19145594 -36.97329712 73.51765442 C-36.98525152 70.01328934 -36.98897988 66.50902269 -36.98779297 63.00463867 C-36.98758997 58.53263385 -37.0148805 54.06126585 -37.04933739 49.58941174 C-37.07166782 46.13280893 -37.07562863 42.67635785 -37.07457352 39.21969032 C-37.07692068 37.57199219 -37.08569394 35.92428931 -37.10123825 34.27666283 C-37.18467136 24.51921805 -37.15648817 16.06003785 -30.7578125 8.12890625 C-30.13390625 7.61070312 -29.51 7.0925 -28.8671875 6.55859375 C-27.94679688 5.75808594 -27.94679688 5.75808594 -27.0078125 4.94140625 C-18.44193639 -0.46125418 -9.75618432 -0.02408704 0 0 Z M-19.6171875 20.43359375 C-21.05755946 23.31433767 -20.75245091 25.80381759 -20.76245117 29.02294922 C-20.76580978 29.69956604 -20.7691684 30.37618286 -20.77262878 31.07330322 C-20.78214749 33.31581445 -20.78408243 35.55825106 -20.78515625 37.80078125 C-20.78836849 39.35775788 -20.79173254 40.91473421 -20.79524231 42.47171021 C-20.80123609 45.73847147 -20.80308199 49.00520628 -20.80249023 52.27197266 C-20.80238867 56.45741599 -20.81603422 60.64268948 -20.83326244 64.82809258 C-20.84438359 68.04514342 -20.8464094 71.26215324 -20.84588051 74.47922134 C-20.84706071 76.02218333 -20.85148473 77.56514637 -20.85921288 79.10808945 C-20.86901398 81.2673301 -20.86613428 83.4262026 -20.86010742 85.58544922 C-20.86153244 86.81407684 -20.86295746 88.04270447 -20.86442566 89.30856323 C-20.62559417 92.32733546 -20.3216856 93.96624351 -18.6171875 96.43359375 C-14.54478865 99.14852632 -11.38306954 99.13820874 -6.5625 99.0859375 C-3.54034427 98.68485589 -3.54034427 98.68485589 -1.671875 96.5625 C-0.67351306 94.97087062 0.27238115 93.3451641 1.1640625 91.69140625 C3.54013072 87.28958756 7.6515363 84.78527892 12.23828125 82.9765625 C19.37238362 81.17029614 26.77948294 81.68553507 33.34375 85.02734375 C38.2775811 88.42998589 41.88226583 93.0217826 44.3828125 98.43359375 C52.2852802 99.09008003 52.2852802 99.09008003 59.6328125 96.68359375 C62.34131336 91.65352073 62.96923508 86.97096398 61.3828125 81.43359375 C59.04724938 79.36684072 56.74647806 78.20801697 53.9375 76.8671875 C49.11354562 74.16016723 47.07832106 69.52011943 45.3828125 64.43359375 C44.71155472 56.48854261 44.67328964 49.14466383 49.3828125 42.43359375 C52.95323655 38.62172709 56.63198447 35.62873081 61.3828125 33.43359375 C61.98929274 26.05244506 61.98929274 26.05244506 59.5078125 19.30859375 C55.89215674 16.11830926 53.57617363 16.29492927 48.80932617 16.2565918 C48.13431564 16.2500206 47.45930511 16.2434494 46.76383972 16.23667908 C44.52615246 16.21694112 42.28853235 16.20528217 40.05078125 16.1953125 C39.28657679 16.19123697 38.52237232 16.18716145 37.73501015 16.18296242 C33.68979792 16.16209907 29.64461964 16.1477988 25.59936523 16.13842773 C21.422818 16.12736551 17.24680388 16.09296914 13.07044506 16.05325603 C9.85764074 16.02709872 6.64496358 16.0187367 3.43206215 16.01514626 C1.89268711 16.01027758 0.35331786 15.99865545 -1.18595314 15.98010826 C-3.34290297 15.95573507 -5.49847194 15.95667756 -7.65551758 15.96362305 C-8.88192459 15.95775681 -10.1083316 15.95189056 -11.37190247 15.94584656 C-15.22879352 16.52551453 -16.86657934 17.72406094 -19.6171875 20.43359375 Z M242.3828125 21.43359375 C241.30236394 25.55794561 241.36788195 29.29313843 242.3828125 33.43359375 C244.21429246 35.32671006 245.91671081 36.23450671 248.28125 37.375 C253.39435558 39.95056062 256.13454662 44.98300704 257.875 50.234375 C259.69670393 58.12375433 258.36341832 64.4813551 254.3828125 71.43359375 C252.01520436 75.15412082 249.99486974 76.6262597 246.1328125 78.49609375 C243.98392619 79.63094099 243.98392619 79.63094099 242.3828125 81.43359375 C241.30724182 85.59131052 241.16517862 89.30899612 242.3828125 93.43359375 C245.21787642 97.03177814 246.98456997 98.23288163 251.55987549 98.88964844 C255.67758754 99.06403086 259.76688653 99.07617596 263.88671875 99.02734375 C265.41316127 99.02563115 266.93960673 99.02569985 268.46604919 99.02746582 C271.65791134 99.025816 274.84906822 99.00717974 278.04077148 98.97558594 C282.12529592 98.935875 286.20889916 98.93154656 290.29358006 98.93904877 C293.44297171 98.94212264 296.5921575 98.92998381 299.74149895 98.91291809 C301.2473312 98.90590415 302.75318677 98.90276161 304.25903511 98.90361023 C306.36525539 98.90180607 308.47038515 98.88037517 310.57641602 98.85351562 C311.77299332 98.84509644 312.96957062 98.83667725 314.20240784 98.82800293 C317.73676474 98.38969933 319.59030976 97.62198698 322.3828125 95.43359375 C324.81903951 92.097216 324.64175058 88.85654937 324.6574707 84.81665039 C324.6651371 83.83295723 324.6651371 83.83295723 324.67295837 82.82939148 C324.68682751 80.66741745 324.6858997 78.50576316 324.68359375 76.34375 C324.68748215 74.83686709 324.69181712 73.32998526 324.69657898 71.82310486 C324.7040354 68.66662033 324.70375413 65.51024767 324.69848633 62.35375977 C324.69269229 58.31409475 324.70962351 54.27488832 324.732831 50.23529911 C324.74758185 47.12370641 324.74843823 44.01222381 324.74532127 40.90060234 C324.7458338 39.41149423 324.75105879 37.92237986 324.76113319 36.43330574 C324.77350709 34.34854688 324.76670133 32.26467689 324.75512695 30.17993164 C324.75575638 28.99508682 324.7563858 27.810242 324.7570343 26.5894928 C324.22868734 22.13382058 322.51179748 19.56257873 319.3828125 16.43359375 C316.30129076 16.10453614 316.30129076 16.10453614 312.62573242 16.12719727 C311.58395592 16.11471199 311.58395592 16.11471199 310.52113342 16.10197449 C308.21845944 16.07782267 305.91606858 16.06909537 303.61328125 16.0625 C302.01385919 16.05353613 300.414438 16.04441433 298.8150177 16.03514099 C295.45828207 16.01863336 292.10164638 16.01094793 288.74487305 16.00805664 C284.44709544 16.00267719 280.15025975 15.96502409 275.85274792 15.91931248 C272.54727266 15.88953893 269.24202385 15.882333 265.93642616 15.88133049 C264.35238655 15.87712712 262.76834634 15.86468795 261.18443871 15.84381294 C258.96495239 15.8168956 256.74764343 15.82172288 254.52807617 15.83422852 C252.63517097 15.82662254 252.63517097 15.82662254 250.70402527 15.81886292 C246.48533033 16.59971077 245.01705163 18.11668071 242.3828125 21.43359375 Z M227.3828125 50.43359375 C225.08471789 53.26791044 224.39657897 54.77280318 224.3203125 58.43359375 C225.79721473 62.60367064 227.63112694 64.14089702 231.3828125 66.43359375 C235.35141914 66.502018 237.48447038 66.04824889 240.7578125 63.80859375 C242.99746764 60.53525163 243.45123675 58.40220039 243.3828125 54.43359375 C241.09011577 50.68190819 239.55288939 48.84799598 235.3828125 47.37109375 C231.72202193 47.44736022 230.21712919 48.13549914 227.3828125 50.43359375 Z M61.3828125 52.43359375 C59.81345656 55.57230563 60.03080147 57.97215197 60.3828125 61.43359375 C62.37064687 64.35322548 63.8142822 66.04462353 67.3203125 66.9140625 C71.24362316 67.18899147 73.05336386 66.65322618 76.3828125 64.43359375 C78.59091082 61.12144627 79.19295142 59.28368952 78.93359375 55.37109375 C77.88622804 51.68674346 75.55011177 50.31051184 72.3828125 48.43359375 C67.31181031 47.50218518 65.00610662 48.91382232 61.3828125 52.43359375 Z M12.3828125 101.43359375 C10.81345656 104.57230563 11.03080147 106.97215197 11.3828125 110.43359375 C13.37064687 113.35322548 14.8142822 115.04462353 18.3203125 115.9140625 C22.28297156 116.19174884 24.04692651 115.66451537 27.3828125 113.37109375 C29.90211485 109.67086842 30.0894466 107.83042815 29.3828125 103.43359375 C27.58718845 100.68030354 26.33026328 98.90731914 23.3828125 97.43359375 C18.26762245 96.8652393 16.05439667 97.86691199 12.3828125 101.43359375 Z M129.3828125 175.43359375 C127.0342897 178.33010521 126.36880022 179.74699192 126.4453125 183.49609375 C127.55058923 186.95929416 128.41954256 188.32811248 131.3828125 190.43359375 C135.28543299 191.49794479 137.44161179 191.8309896 141.1953125 190.24609375 C143.55200868 188.29340263 144.56607759 187.37383941 145.3828125 184.43359375 C145.24554182 180.59001477 144.93824496 178.21531351 142.6953125 175.05859375 C137.82064028 171.63314841 133.98793315 171.69971214 129.3828125 175.43359375 Z M177.3828125 227.43359375 C176.0518809 230.83329186 176.0518809 230.83329186 176.3828125 234.43359375 C178.67550923 238.18527931 180.21273561 240.01919152 184.3828125 241.49609375 C188.04360307 241.41982728 189.54849581 240.73168836 192.3828125 238.43359375 C194.46257962 236.27287908 194.46257962 236.27287908 195.3828125 233.43359375 C194.80043526 229.28415589 193.98163802 227.0823214 191.1328125 223.99609375 C185.10588259 220.57170175 181.4153079 222.0185285 177.3828125 227.43359375 Z M-27.6171875 229.43359375 C-30.05341451 232.7699715 -29.87612558 236.01063813 -29.8918457 240.05053711 C-29.89695663 240.70633255 -29.90206757 241.36212799 -29.90733337 242.03779602 C-29.92120251 244.19977005 -29.9202747 246.36142434 -29.91796875 248.5234375 C-29.92185715 250.03032041 -29.92619212 251.53720224 -29.93095398 253.04408264 C-29.9384104 256.20056717 -29.93812913 259.35693983 -29.93286133 262.51342773 C-29.92706729 266.55309275 -29.94399851 270.59229918 -29.967206 274.63188839 C-29.98195685 277.74348109 -29.98281323 280.85496369 -29.97969627 283.96658516 C-29.9802088 285.45569327 -29.98543379 286.94480764 -29.99550819 288.43388176 C-30.00788209 290.51864062 -30.00107633 292.60251061 -29.98950195 294.68725586 C-29.99013138 295.87210068 -29.9907608 297.0569455 -29.9914093 298.2776947 C-29.46306234 302.73336692 -27.74617248 305.30460877 -24.6171875 308.43359375 C-21.53566576 308.76265136 -21.53566576 308.76265136 -17.86010742 308.73999023 C-16.81833092 308.75247551 -16.81833092 308.75247551 -15.75550842 308.76521301 C-13.45283444 308.78936483 -11.15044358 308.79809213 -8.84765625 308.8046875 C-7.24823419 308.81365137 -5.648813 308.82277317 -4.0493927 308.83204651 C-0.69265707 308.84855414 2.66397862 308.85623957 6.02075195 308.85913086 C10.31852956 308.86451031 14.61536525 308.90216341 18.91287708 308.94787502 C22.21835234 308.97764857 25.52360115 308.9848545 28.82919884 308.98585701 C30.41323845 308.99006038 31.99727866 309.00249955 33.58118629 309.02337456 C35.80067261 309.0502919 38.01798157 309.04546462 40.23754883 309.03295898 C42.13045403 309.04056496 42.13045403 309.04056496 44.06159973 309.04832458 C48.27979792 308.26756868 49.7445282 306.74591531 52.3828125 303.43359375 C53.58802392 299.26860731 53.5796225 295.60533147 52.3828125 291.43359375 C50.04555775 289.40503302 47.72515434 288.26033837 44.9375 286.9296875 C40.28087637 284.20264339 38.30555632 279.47745 36.78125 274.44921875 C35.23111844 266.60737672 36.30747691 259.3330654 40.3828125 252.43359375 C43.21935869 249.24079887 46.22290622 246.98994415 50.0703125 245.14453125 C52.65846456 243.6189076 52.65846456 243.6189076 53.01171875 240.65625 C52.98980469 239.61339844 52.96789062 238.57054687 52.9453125 237.49609375 C52.94660156 236.45582031 52.94789063 235.41554688 52.94921875 234.34375 C52.26376812 230.82195196 51.13990263 229.65472618 48.3828125 227.43359375 C45.52949218 226.00693359 43.09092977 226.29051682 39.90112305 226.27246094 C39.23586609 226.26749603 38.57060913 226.26253113 37.88519287 226.25741577 C35.67996187 226.24278753 33.47480284 226.23599049 31.26953125 226.23046875 C29.73737079 226.22471708 28.20521035 226.21895935 26.67304993 226.2131958 C23.45756698 226.20268341 20.24210905 226.19684256 17.02661133 226.19335938 C12.9106936 226.18787933 8.79510747 226.16386308 4.67929363 226.13538742 C1.51281273 226.11674124 -1.65358869 226.11155436 -4.82011986 226.1100235 C-6.337148 226.10700003 -7.85417485 226.09898177 -9.37114906 226.08583832 C-11.496792 226.06873856 -13.6216302 226.0706673 -15.74731445 226.07714844 C-16.95595657 226.07350281 -18.16459869 226.06985718 -19.40986633 226.06610107 C-22.97553558 226.47465303 -24.8083189 227.22332241 -27.6171875 229.43359375 Z M53.3828125 261.43359375 C51.28179655 264.10761405 51.38434274 265.4764406 51.5078125 268.93359375 C52.47457573 272.80064668 53.1476917 274.16026562 56.3828125 276.43359375 C59.2424131 277.60469824 59.2424131 277.60469824 62.3828125 277.43359375 C65.50514927 275.81238043 67.67549271 274.35618478 69.8203125 271.55859375 C70.63113454 268.49548825 70.26686595 266.46463415 69.3828125 263.43359375 C67.13894851 260.24040268 65.73601354 259.52992131 61.9453125 258.49609375 C57.93878099 258.42580372 56.43926732 258.90110261 53.3828125 261.43359375 Z " fill="#000000" transform="translate(107.6171875,139.56640625)"/>
<path d="M0 0 C0.76845214 -0.00623996 1.53690428 -0.01247993 2.32864285 -0.01890898 C4.89982862 -0.03484522 7.4700672 -0.02223273 10.04125977 -0.00964355 C11.8860835 -0.01506441 13.73090291 -0.02218686 15.57571411 -0.03088379 C20.58396639 -0.04912444 25.59188919 -0.04204651 30.60014725 -0.02936745 C35.8402114 -0.01924366 41.08024725 -0.0286314 46.3203125 -0.03491211 C55.12025011 -0.04219032 63.92005347 -0.03259623 72.7199707 -0.0135498 C82.89533593 0.00821923 93.07038057 0.00116799 103.24573803 -0.02085543 C111.98047983 -0.03900446 120.71512509 -0.04157017 129.44987965 -0.03110075 C134.66747607 -0.0248631 139.88492179 -0.0240377 145.10250854 -0.0372467 C150.00769948 -0.04879731 154.9124769 -0.04079384 159.81762314 -0.01766968 C161.61835925 -0.01237837 163.41913014 -0.01390357 165.21985245 -0.02272034 C167.67714954 -0.03364303 170.13311962 -0.01995298 172.59033203 0 C173.66061724 -0.01338433 173.66061724 -0.01338433 174.75252438 -0.02703905 C179.51365261 0.04800933 181.96265792 1.11793535 185.29516602 4.50793457 C185.92407227 6.50793457 185.92407227 6.50793457 185.85766602 8.50793457 C185.85895508 9.16793457 185.86024414 9.82793457 185.86157227 10.50793457 C185.01801506 13.48656415 183.73400608 14.60506006 181.29516602 16.50793457 C178.60270655 16.90096343 176.31862726 17.04898927 173.62792969 17.01586914 C172.8514593 17.0221091 172.07498892 17.02834907 171.27498913 17.03477812 C168.67072964 17.05074496 166.06740135 17.03808988 163.46313477 17.0255127 C161.59713189 17.03093219 159.73113329 17.03805387 157.86514282 17.04675293 C152.79491845 17.06500977 147.72501913 17.05790899 142.65478897 17.04523659 C137.3528581 17.03512116 132.05095538 17.04449821 126.74902344 17.05078125 C117.84475702 17.0580619 108.94062324 17.04845897 100.03637695 17.02941895 C89.73661387 17.00764944 79.43716748 17.01470052 69.13741207 17.03672457 C60.29994715 17.05486664 51.46257766 17.05744272 42.62510014 17.04696989 C37.34436412 17.04072841 32.06377703 17.03991734 26.78305054 17.05311584 C21.81878177 17.06465635 16.85492198 17.05668153 11.89069748 17.03353882 C10.0669663 17.0282421 8.24320079 17.02978192 6.41948318 17.03858948 C3.93332228 17.04949081 1.44847887 17.03584804 -1.03759766 17.01586914 C-2.12494815 17.02925347 -2.12494815 17.02925347 -3.23426533 17.04290819 C-6.66058801 16.98935259 -8.4109621 16.73722444 -11.14863586 14.60118866 C-12.82684641 12.34381472 -13.2727637 11.2879487 -13.26733398 8.50793457 C-13.28924805 7.84793457 -13.31116211 7.18793457 -13.33374023 6.50793457 C-11.4019851 0.36471329 -5.54486364 -0.06934066 0 0 Z " fill="#000000" transform="translate(273.704833984375,60.4920654296875)"/>
<path d="M0 0 C6.04902053 3.50206452 10.67449544 9.19584665 12.5 16 C13.93533736 23.09307493 13.91099826 29.73852218 10.2734375 36.16796875 C5.45424695 43.03595956 -0.14864134 47.41612163 -8.5 49 C-16.32075914 49.95018569 -23.08889826 48.09787298 -29.546875 43.5625 C-35.52535944 38.24829161 -37.97869352 31.24492417 -38.9375 23.4375 C-37.90345509 15.31286139 -35.953302 8.39830359 -29.5 3 C-20.77807228 -3.3286179 -9.89477092 -4.38111845 0 0 Z M-21.5 19 C-22.69095575 22.57286725 -22.83245458 24.20580295 -21.375 27.6875 C-19.20398212 30.36508872 -17.70061707 31.69065665 -14.5 33 C-10.17810277 33 -8.25157361 32.73179536 -5.125 29.6875 C-3.09886135 26.53671805 -3.09886135 26.53671805 -2.5 23 C-4.33038827 17.63075415 -4.33038827 17.63075415 -8.5 14 C-14.7618616 13.29301563 -17.61009758 13.57771178 -21.5 19 Z " fill="#000000" transform="translate(138.5,46)"/>
<path d="M0 0 C6.86276462 4.02299995 10.85448596 9.02604882 13.03125 16.68359375 C14.44999747 23.50540449 13.59562999 29.66966966 10.5 35.9375 C6.0027299 42.50328193 0.45765519 47.31873744 -7.5 48.9375 C-15.95850021 49.77849811 -23.15655894 48.14870775 -29.8125 42.75 C-35.99381981 36.79076354 -37.72586399 32.07278432 -38 23.4375 C-37.77220153 15.53524949 -36.21666405 11.083111 -31.125 5.1875 C-22.13104969 -2.52160027 -11.20166147 -5.20016248 0 0 Z M-21.5 18.9375 C-22.19785446 21.77467878 -22.21033909 24.10187217 -21.5 26.9375 C-19.07902228 30.28414567 -17.41240083 31.63336639 -13.5 32.9375 C-9.8139451 32.9375 -8.35074644 32.24891604 -5.5 29.9375 C-3.18858396 27.08675356 -2.5 25.6235549 -2.5 21.9375 C-3.80413361 18.02509917 -5.15335433 16.35847772 -8.5 13.9375 C-14.30597243 12.48307458 -18.11987215 13.86730822 -21.5 18.9375 Z " fill="#000000" transform="translate(78.5,46.0625)"/>
<path d="M0 0 C6.66369975 5.3855332 11.1378781 10.8690326 12.18359375 19.54296875 C12.36592849 28.25213383 10.97303511 34.59195896 5.23828125 41.30859375 C-0.03936595 46.32789458 -6.41723149 48.50826822 -13.625 48.90234375 C-20.14430244 48.65116222 -25.93816299 46.26431336 -31 42.21484375 C-37.44205665 34.11625825 -40.0220297 27.88859212 -39.1875 17.46484375 C-37.73870598 10.1544152 -33.24891058 4.33932122 -27.22265625 0.07421875 C-19.31340485 -4.10870005 -7.80343348 -4.72578622 0 0 Z M-22.1875 17.46484375 C-23.24168517 20.21743836 -23.55834182 22.53744086 -23.1875 25.46484375 C-20.80441389 29.560773 -19.26467219 31.11231467 -14.75 32.58984375 C-10.38320474 32.43662286 -8.50833564 31.23220679 -5.1875 28.46484375 C-3.63725536 25.36435447 -3.89757985 22.88590157 -4.1875 19.46484375 C-5.98312405 16.71155354 -7.24004922 14.93856914 -10.1875 13.46484375 C-15.58465119 12.95567854 -18.58766663 13.22974567 -22.1875 17.46484375 Z " fill="#000000" transform="translate(199.1875,46.53515625)"/>
</svg>
