<?xml version="1.0" encoding="UTF-8"?>
<svg version="1.1" xmlns="http://www.w3.org/2000/svg" width="512" height="512">
<path d="M0 0 C1.54984389 -0.00489117 3.09968413 -0.01108202 4.64951819 -0.01845789 C8.90144331 -0.03485205 13.15318294 -0.03254055 17.4051286 -0.02708292 C21.99353821 -0.02441207 26.58189846 -0.0389456 31.17028809 -0.05117798 C40.1570617 -0.0722321 49.1437708 -0.07677283 58.13056616 -0.07499009 C65.43581395 -0.07368241 72.74104162 -0.07748693 80.04628563 -0.08491516 C82.15065803 -0.08701436 84.25503043 -0.08911196 86.35940284 -0.09120798 C87.40681664 -0.09225151 88.45423044 -0.09329504 89.53338405 -0.09437019 C109.34291017 -0.11327262 129.15239925 -0.1122224 148.96193065 -0.10540086 C167.08046179 -0.09982589 185.1988515 -0.12064888 203.31734959 -0.15376133 C221.92441586 -0.18750253 240.5314144 -0.20266609 259.13851184 -0.1980443 C269.58375512 -0.19579999 280.02886771 -0.20103724 290.47408485 -0.22593689 C299.36695981 -0.24695557 308.25963241 -0.25053637 317.15251569 -0.2316373 C321.68851058 -0.22248284 326.22412824 -0.22132749 330.76009369 -0.24199295 C334.91600798 -0.26071727 339.07123647 -0.2561835 343.22712477 -0.23344713 C344.72708455 -0.22926501 346.22709705 -0.23344844 347.72700105 -0.24704307 C357.48245355 -0.3294115 365.61932516 0.50307819 373.08808833 7.35487223 C381.35474507 15.85811695 381.40564262 24.99743312 381.34953308 36.28894043 C381.351557 37.7276372 381.35447109 39.16633296 381.35823059 40.60502625 C381.36263192 43.60482654 381.35628948 46.60435722 381.34220886 49.60412598 C381.32504033 53.44885625 381.33501967 57.29296169 381.35292625 61.13766956 C381.36375786 64.1016462 381.36032205 67.06547411 381.35254288 70.02945518 C381.35054312 71.44763959 381.35299229 72.86583753 381.35998154 74.28400612 C381.36759332 76.26066456 381.353936 78.23737051 381.33927917 80.21398926 C381.3368924 81.3379158 381.33450562 82.46184235 381.33204651 83.61982727 C380.95109558 86.39440918 380.95109558 86.39440918 379.84274405 88.04474908 C377.01968184 90.05895757 374.74706666 89.7667677 371.30376911 89.76355267 C370.28048748 89.76874497 370.28048748 89.76874497 369.23653349 89.77404216 C366.93375759 89.78202945 364.63160171 89.76848632 362.32885742 89.75517273 C360.66809701 89.75648008 359.00733719 89.75910519 357.34658068 89.76294023 C352.76984741 89.76967106 348.19332343 89.75761696 343.61661685 89.74260604 C338.68615308 89.72968725 333.75570175 89.73403219 328.82522583 89.73631287 C320.27850343 89.73788824 311.73184958 89.72845149 303.18514442 89.71159935 C290.82795434 89.68724963 278.47079751 89.67940821 266.11358603 89.67563538 C246.06632106 89.66906456 226.01909265 89.64908632 205.97184753 89.62072754 C186.49431034 89.59320327 167.01678306 89.5719617 147.53923035 89.5592041 C146.33924629 89.55841593 145.13926224 89.55762776 143.90291504 89.55681571 C137.88313036 89.55290068 131.86334561 89.54910954 125.84356081 89.54538 C75.87938047 89.51426447 25.9152398 89.46141154 -24.04890442 89.39440918 C-23.99004011 139.83372194 -23.91550551 190.27299058 -23.81991814 240.71224785 C-23.80864981 246.66538345 -23.79751138 252.61851928 -23.78645325 258.57165527 C-23.78424956 259.75683085 -23.78204588 260.94200644 -23.77977542 262.16309643 C-23.74439103 281.36003538 -23.71953334 300.5569743 -23.6985574 319.75393379 C-23.67680445 339.44785466 -23.64375882 359.14173317 -23.60020286 378.83561802 C-23.57367747 390.9904096 -23.55598862 403.14514837 -23.54955838 415.29996747 C-23.54430723 423.63194743 -23.52809939 431.96386092 -23.50323876 440.29580528 C-23.48921448 445.10481156 -23.48005644 449.91369881 -23.48389626 454.72272682 C-23.48730552 459.12602046 -23.47694711 463.52905984 -23.4556689 467.9323014 C-23.45039898 469.52461829 -23.45016824 471.11696157 -23.45550879 472.70927823 C-23.84234609 485.7568812 -23.84234609 485.7568812 -17.73640442 496.76940918 C-12.80701592 499.74996966 -8.36278612 500.64437829 -2.64544773 500.64888477 C-1.36986234 500.65471697 -0.09427695 500.66054916 1.21996254 500.66655809 C2.62809766 500.66292521 4.03623231 500.65910086 5.44436646 500.65510559 C6.9459852 500.65812686 8.44760241 500.66201622 9.9492169 500.66669816 C14.07234591 500.67699 18.19538807 500.67479332 22.31852424 500.67051756 C26.76645656 500.66805251 31.21436784 500.67706173 35.66229248 500.68455505 C44.37480214 500.69730998 53.087281 500.69909478 61.79979842 500.69675479 C68.88054907 500.69497245 75.96129035 500.69671947 83.04203987 500.70097923 C84.04943736 500.70157442 85.05683485 500.70216961 86.09475954 500.70278284 C88.14121822 500.70399457 90.1876769 500.70520871 92.23413558 500.70642521 C111.42932313 500.7173037 130.62449311 500.71513673 149.81968165 500.70904037 C167.38414576 500.70387028 184.94855443 500.71512852 202.51300757 500.73413859 C220.54484446 500.75350504 238.57665509 500.76177512 256.60850245 500.75801533 C266.7333738 500.75610156 276.85819796 500.75860805 286.98306084 500.77272987 C295.60188868 500.7846294 304.22064026 500.78606458 312.83946913 500.77393971 C317.23728128 500.76804113 321.63495385 500.76697859 326.03275681 500.77894211 C330.05887676 500.78976732 334.08474001 500.7867378 338.11084778 500.77268042 C339.56704162 500.77002421 341.02325536 500.77242897 342.47942971 500.78041629 C354.63900208 500.88390698 354.63900208 500.88390698 364.82609558 494.89440918 C368.1174832 491.02218845 368.07693582 488.06803248 368.08138084 483.14869022 C368.08681737 481.1735705 368.08681737 481.1735705 368.09236372 479.15854937 C368.09136702 477.68842759 368.09028489 476.21830587 368.08912659 474.7481842 C368.09154367 473.19339534 368.09440563 471.63860711 368.09767592 470.08381981 C368.10544481 465.79992372 368.10704917 461.51604364 368.10772705 457.23214138 C368.10956392 452.61652758 368.11716909 448.00092322 368.12420654 443.38531494 C368.13574139 435.3837502 368.1439808 427.38218758 368.15032578 419.38061714 C368.16063982 406.73960602 368.18119964 394.09862129 368.20344543 381.45762634 C368.21092537 377.13546476 368.21833905 372.81330306 368.2257328 368.49114132 C368.22850865 366.87085794 368.22850865 366.87085794 368.23134058 365.21784155 C368.25227483 352.91724362 368.27110036 340.61664276 368.28898621 328.31604004 C368.29062439 327.19132402 368.29226257 326.06660799 368.29395039 324.90780967 C368.32024863 306.67186911 368.33888452 288.43592652 368.35557811 270.19997502 C368.3729815 251.49135151 368.40180728 232.7827679 368.44046748 214.07417625 C368.46390151 202.52644827 368.4778651 190.97878532 368.47979511 179.43103337 C368.48189994 171.52194557 368.49479087 163.61292254 368.51627444 155.70386381 C368.52833572 151.13633359 368.53543342 146.56893198 368.529562 142.00138664 C368.52428749 137.82355664 368.53267164 133.64598955 368.55211838 129.46820354 C368.55671349 127.95343404 368.55619686 126.43863904 368.55016999 124.92387456 C368.54272934 122.87124323 368.55537536 120.81856803 368.56912804 118.76596928 C368.57048457 117.62387786 368.57184109 116.48178644 368.57323873 115.3050862 C368.99367712 112.06639845 369.63057548 110.66679868 371.95109558 108.39440918 C375.03765914 107.94428533 376.98384026 107.73475656 379.61500037 109.52916557 C381.56541879 112.25202952 381.32720742 114.34615924 381.328619 117.675807 C381.33297933 118.31845376 381.33733965 118.96110052 381.3418321 119.62322143 C381.35284071 121.79156166 381.34234084 123.95927293 381.33204651 126.12760925 C381.33550091 127.69192434 381.340264 129.25623701 381.34622824 130.82054454 C381.35879863 135.13098539 381.35254049 139.44122802 381.34326959 143.75166976 C381.33650376 148.39599915 381.34694822 153.04029357 381.35520935 157.68461609 C381.36857689 166.78891991 381.36565507 175.89314969 381.35697143 184.99745645 C381.35020507 192.39720894 381.34927362 199.79694064 381.35254288 207.19669533 C381.35300258 208.24861635 381.35346228 209.30053736 381.3539359 210.38433478 C381.35489506 212.52114433 381.3558677 214.65795388 381.35685368 216.79476342 C381.36541696 236.85220098 381.35555984 256.90959747 381.33945258 276.9670283 C381.3260583 294.17876376 381.32836834 311.3904385 381.34220886 328.60217285 C381.35826494 348.57852183 381.36458261 368.55483473 381.35537207 388.53118926 C381.35441641 390.66180757 381.3534733 392.79242589 381.35254288 394.9230442 C381.35208005 395.97139545 381.35161722 397.01974669 381.35114037 398.09986615 C381.34854984 405.48852418 381.35292305 412.87715934 381.35998154 420.26581383 C381.36839746 429.27372449 381.36611482 438.28155673 381.3501393 447.28945842 C381.34225636 451.88584404 381.33916528 456.48209893 381.34908676 461.07848358 C381.35803424 465.28735251 381.35309987 469.49596971 381.33715411 473.70481584 C381.33380641 475.22639023 381.33550014 476.74798594 381.34278147 478.26954659 C381.38986794 488.92784677 380.87065075 497.42820611 373.08816719 505.4339987 C364.99369428 512.8593416 355.97333098 513.1140648 345.54142761 513.02932739 C343.98898977 513.03509593 342.43655877 513.04304195 340.88414192 513.05296361 C336.63886208 513.07375993 332.39414708 513.06355492 328.1488657 513.04803252 C323.56253878 513.03669323 318.97630721 513.05419449 314.38999939 513.06793213 C305.41361064 513.09014158 296.43743118 513.08537356 287.4610343 513.07086892 C280.16443003 513.05956766 272.86788432 513.05804963 265.5712738 513.06348801 C264.01233326 513.06463725 264.01233326 513.06463725 262.42189896 513.06580972 C260.3104596 513.06740838 258.19902025 513.06902945 256.08758092 513.07067268 C236.29803667 513.08492346 216.50860831 513.06854795 196.71908307 513.04167084 C179.74623234 513.01933269 162.7735526 513.02321301 145.80070496 513.04626465 C126.08099745 513.07303447 106.36139146 513.08355023 86.64166832 513.06820333 C84.53808468 513.06661062 82.43450103 513.06503876 80.33091736 513.06348801 C79.2959689 513.06271663 78.26102043 513.06194525 77.1947099 513.0611505 C69.90858527 513.05683705 62.62252515 513.0641124 55.33641052 513.07588577 C46.45457027 513.08992242 37.5729509 513.08608628 28.69113588 513.05948205 C24.16120786 513.04635958 19.63164785 513.04116464 15.10172272 513.05772781 C10.9514595 513.07267306 6.80190395 513.06436442 2.65170455 513.03784005 C1.15386137 513.03227438 -0.34404212 513.03505247 -1.84184623 513.04721899 C-11.57760878 513.12020923 -19.77205808 512.30738444 -27.18597603 505.40470183 C-33.23472949 499.07083679 -35.50818286 492.87868378 -35.43201447 484.18960857 C-35.43697398 483.38761525 -35.4419335 482.58562192 -35.4470433 481.75932577 C-35.45999248 479.07304653 -35.45161691 476.38726491 -35.4433136 473.70097351 C-35.44820282 471.75514969 -35.45439277 469.80932878 -35.46177149 467.86351281 C-35.47819017 462.51704797 -35.47584912 457.1707304 -35.47039652 451.82424915 C-35.4677287 446.05791908 -35.48225348 440.29162848 -35.49449158 434.52531433 C-35.5155584 423.22845072 -35.5200857 411.93163841 -35.51830369 400.63475748 C-35.51699667 391.4530808 -35.52079715 382.27142014 -35.52822876 373.08974648 C-35.53032793 370.44614373 -35.53242553 367.80254098 -35.53452158 365.15893823 C-35.53556511 363.84318731 -35.53660864 362.5274364 -35.53768378 361.17181424 C-35.55145445 343.35258837 -35.5588093 325.53336802 -35.55435944 307.71413708 C-35.5541015 306.66894346 -35.5541015 306.66894346 -35.55383836 305.60263482 C-35.55294948 302.07103896 -35.55200467 298.53944311 -35.55104035 295.00784727 C-35.55084932 294.3064681 -35.55065829 293.60508893 -35.55046146 292.88245585 C-35.55007437 291.46409661 -35.54968404 290.04573738 -35.54929049 288.62737814 C-35.543321 266.55968874 -35.55875659 244.49210423 -35.59089661 222.42443848 C-35.62698081 197.6276648 -35.64626148 172.8309582 -35.6413579 148.03415662 C-35.63911227 134.906139 -35.64437007 121.77822535 -35.66925049 108.6502285 C-35.69025198 97.47366391 -35.69386695 86.29726029 -35.6749509 75.12068912 C-35.66578601 69.41816844 -35.66467347 63.715948 -35.68530655 58.01345062 C-35.70399107 52.7917408 -35.69954093 47.57057764 -35.67676073 42.34888879 C-35.67256865 40.46131404 -35.67679537 38.57369759 -35.69035667 36.6861669 C-35.82511484 16.55670391 -35.82511484 16.55670391 -28.0591445 8.27165288 C-19.51751202 0.0494249 -11.39202697 -0.04437718 0 0 Z M-19.92390442 17.20690918 C-31.13590665 34.02491252 -24.04890442 61.70413708 -24.04890442 77.39440918 C105.64109558 77.39440918 235.33109558 77.39440918 368.95109558 77.39440918 C372.00600772 45.55200428 372.00600772 45.55200428 364.95109558 16.39440918 C359.50300153 12.08133472 355.60095133 11.27069282 348.79652786 11.26298141 C347.52554127 11.25914027 346.25455468 11.25529912 344.94505334 11.25134158 C343.53172313 11.25212183 342.11839296 11.25300061 340.70506287 11.25396729 C339.20588408 11.25138368 337.70670598 11.24837053 336.20752883 11.24496388 C332.08183481 11.23689011 327.95615819 11.2351041 323.83045721 11.23436642 C319.38315711 11.23251652 314.93586605 11.22496952 310.48857117 11.2182312 C300.76130962 11.20464479 291.03405218 11.19862271 281.30678272 11.19422054 C275.23413569 11.19145871 269.16149025 11.18722147 263.0888443 11.18271637 C246.2785464 11.17052342 229.46824977 11.16022408 212.65794754 11.15684128 C211.04386127 11.15651193 211.04386127 11.15651193 209.39716719 11.15617593 C207.7791997 11.15584851 207.7791997 11.15584851 206.128546 11.15551448 C203.94276826 11.15507101 201.75699051 11.15462445 199.57121277 11.1541748 C198.48698948 11.15395337 197.40276619 11.15373195 196.28568766 11.15350381 C178.71530841 11.14955535 161.14497063 11.13209997 143.5746074 11.10881528 C125.53944257 11.08510735 107.50429855 11.07263969 89.46911788 11.07147336 C79.34138592 11.0705563 69.21370799 11.06479612 59.08599091 11.04665375 C50.46239067 11.03126032 41.83886116 11.02612783 33.21524981 11.03439185 C28.81529867 11.038301 24.41548998 11.03735581 20.01555634 11.0233345 C15.98622645 11.01061161 11.9571463 11.01177887 7.92781684 11.02392522 C6.47154291 11.02588501 5.01525139 11.02279072 3.55900219 11.01408085 C-9.34530169 10.68725203 -9.34530169 10.68725203 -19.92390442 17.20690918 Z " fill="#000000" transform="translate(35.04890441894531,-0.3944091796875)"/>
<path d="M0 0 C1.24508331 -0.00845947 2.49016663 -0.01691895 3.77297974 -0.02563477 C5.15521371 -0.01980168 6.53744639 -0.01365716 7.91967773 -0.00723267 C9.37336624 -0.01129714 10.82705166 -0.01663832 12.2807312 -0.02316284 C16.23111905 -0.03685716 20.18127225 -0.03152917 24.13166428 -0.02202559 C28.26226187 -0.0144399 32.39283913 -0.02147156 36.5234375 -0.02618408 C43.46056736 -0.03164483 50.39760147 -0.02444169 57.3347168 -0.01016235 C65.35945974 0.00616481 73.38397403 0.00087653 81.40871143 -0.01564157 C88.29370744 -0.02924739 95.17863454 -0.03118054 102.06363964 -0.02332556 C106.1778914 -0.01864405 110.29203563 -0.01803726 114.40628052 -0.02793503 C118.27393442 -0.03658932 122.14129301 -0.03061123 126.00891495 -0.01325226 C127.42992792 -0.00927914 128.85096566 -0.01043555 130.27196884 -0.01704025 C132.20848464 -0.02521243 134.14505463 -0.01315709 136.08154297 0 C137.16628403 0.00113108 138.25102509 0.00226215 139.36863708 0.00342751 C142.04077148 0.38095093 142.04077148 0.38095093 143.8898344 1.57501793 C145.45813236 4.03583102 145.41550647 5.74432602 145.41499329 8.65682983 C145.4220076 9.75045837 145.42902191 10.84408691 145.43624878 11.97085571 C145.42860504 13.17095276 145.4209613 14.3710498 145.41308594 15.60751343 C145.4167366 16.8710968 145.42038727 18.13468018 145.42414856 19.43655396 C145.43356137 22.9035107 145.42412908 26.37018533 145.41081643 29.83712006 C145.3995081 33.46322172 145.40360896 37.08930936 145.40556335 40.71542358 C145.40644653 46.80515152 145.39536113 52.89476817 145.37695312 58.98446655 C145.3557851 66.02760898 145.35227547 73.07058838 145.35851508 80.11375618 C145.36420753 86.885684 145.3585645 93.65755434 145.34734154 100.42947388 C145.34269396 103.31298891 145.34182238 106.19646881 145.34392738 109.07998657 C145.34615877 113.10487427 145.33170939 117.12953309 145.31542969 121.15438843 C145.3179071 122.35448547 145.32038452 123.55458252 145.32293701 124.79104614 C145.3158522 125.88467468 145.3087674 126.97830322 145.3014679 128.10507202 C145.29838859 129.53307632 145.29838859 129.53307632 145.29524708 130.9899292 C145.04077148 133.38095093 145.04077148 133.38095093 143.04077148 136.38095093 C139.85806292 137.44185378 137.59130257 137.51194178 134.24685669 137.52139282 C133.03832031 137.52710297 131.82978394 137.53281311 130.58462524 137.53869629 C129.24334727 137.53994162 127.90206918 137.54106672 126.56079102 137.54208374 C125.14975861 137.5467125 123.73872745 137.55173724 122.32769775 137.55712891 C118.49295171 137.57024843 114.65822317 137.57669687 110.82345819 137.58113956 C108.42784419 137.58407072 106.03223498 137.58817558 103.63662338 137.59264374 C96.14176427 137.60631684 88.64691609 137.61598469 81.15204537 137.61984563 C72.49925915 137.62432755 63.84663081 137.64188237 55.1938926 137.67084622 C48.50590793 137.69245665 41.81796771 137.70254955 35.1299485 137.70388675 C31.13521689 137.70493514 27.14063373 137.71085026 23.14593887 137.72870636 C19.38829279 137.74517631 15.63090691 137.74734792 11.87323761 137.73856735 C10.49497913 137.73779642 9.11670672 137.74214713 7.73848343 137.7520256 C5.85524929 137.76473102 3.97191075 137.75708168 2.08865356 137.7484436 C1.03525347 137.74991016 -0.01814663 137.75137672 -1.10346794 137.75288773 C-4.49138617 137.31164224 -6.33672953 136.57660953 -8.95922852 134.38095093 C-9.5828476 131.97431183 -9.5828476 131.97431183 -9.58068848 129.06710815 C-9.59189728 127.96506546 -9.60310608 126.86302277 -9.61465454 125.72758484 C-9.6013913 124.51813705 -9.58812805 123.30868927 -9.57446289 122.06259155 C-9.5800119 120.78925461 -9.58556091 119.51591766 -9.59127808 118.20399475 C-9.60554209 114.70999389 -9.58844998 111.21677849 -9.5649929 107.72285271 C-9.54490641 104.06872708 -9.5507623 100.41463478 -9.55310059 96.76046753 C-9.55304699 90.62357607 -9.53327592 84.48699225 -9.5012207 78.35018921 C-9.46432662 71.25245452 -9.45554482 64.15512292 -9.46251822 57.05730486 C-9.46882079 50.23301779 -9.45807356 43.40886913 -9.43855286 36.58460999 C-9.43037236 33.67875702 -9.42767049 30.77297473 -9.429245 27.86711121 C-9.43028614 23.81096998 -9.40612903 19.75536181 -9.37915039 15.6993103 C-9.38208099 14.48986252 -9.3850116 13.28041473 -9.38803101 12.03431702 C-9.37100632 10.38125298 -9.37100632 10.38125298 -9.3536377 8.6947937 C-9.34990898 7.73541649 -9.34618027 6.77603928 -9.34233856 5.78759003 C-8.95922852 3.38095093 -8.95922852 3.38095093 -7.80702972 1.57264519 C-5.15599671 -0.13707381 -3.14341581 0.00327769 0 0 Z M14.04077148 12.38095093 C19.27745313 18.51294984 19.27745313 18.51294984 25.10327148 23.56845093 C29.42640517 27.01170666 33.51504889 30.60206618 37.54077148 34.38095093 C42.28752515 38.82754222 47.17639122 42.99621956 52.25170898 47.06845093 C57.36108169 51.30479357 62.19072749 55.85255034 67.04077148 60.38095093 C70.90319539 58.78302142 73.6229495 56.1594558 76.60327148 53.31845093 C80.45647041 49.71046093 84.3543316 46.24502157 88.47827148 42.94345093 C93.25033454 39.10520165 97.72292602 35.0255579 102.18481445 30.83798218 C106.52044851 26.7939827 111.02518554 23.06529544 115.70092773 19.41610718 C118.52311804 17.08417558 118.52311804 17.08417558 122.04077148 12.38095093 C86.40077148 12.38095093 50.76077148 12.38095093 14.04077148 12.38095093 Z M3.04077148 20.38095093 C3.04077148 52.39095093 3.04077148 84.40095093 3.04077148 117.38095093 C5.35077148 115.40095093 7.66077148 113.42095093 10.04077148 111.38095093 C11.74475918 110.0005692 13.45284182 108.62522072 15.16577148 107.25595093 C20.03350817 103.29508025 24.62644628 99.11040264 29.20336914 94.82382202 C33.37958989 90.93433794 37.73296609 87.33093369 42.18530273 83.75985718 C47.66979229 79.19069967 52.83987962 74.26763947 58.04077148 69.38095093 C56.9659573 66.15650839 56.3650509 65.54820426 53.85327148 63.44345093 C53.13397461 62.8324353 52.41467773 62.22141968 51.67358398 61.59188843 C50.80475586 60.86227905 49.93592773 60.13266968 49.04077148 59.38095093 C46.76586908 57.4482029 44.49670486 55.50878479 42.22827148 53.56845093 C41.62305664 53.05185913 41.0178418 52.53526733 40.39428711 52.00302124 C36.65174407 48.79769489 32.9805192 45.52968737 29.35327148 42.19345093 C24.93474919 38.13827261 20.36544863 34.32745794 15.69702148 30.56454468 C12.27506675 27.7514966 8.99165175 24.80052669 5.72045898 21.81454468 C4.28204828 20.27275301 4.28204828 20.27275301 3.04077148 20.38095093 Z M125.66577148 25.75595093 C125.03525879 26.29888794 124.40474609 26.84182495 123.75512695 27.4012146 C118.92358059 31.5780187 114.18431858 35.84482507 109.47436523 40.15829468 C103.18199626 45.90525768 96.67919402 51.41185788 90.20507812 56.95175171 C85.79034473 60.73135365 81.39940794 64.53668772 77.04077148 68.38095093 C83.8203083 75.23338598 90.90256122 81.71462688 98.41577148 87.75595093 C102.61892775 91.14482051 106.60270415 94.69343515 110.54077148 98.38095093 C116.17400184 103.65322675 121.99849481 108.57811562 128.04077148 113.38095093 C129.69077148 114.70095093 131.34077148 116.02095093 133.04077148 117.38095093 C133.04077148 85.37095093 133.04077148 53.36095093 133.04077148 20.38095093 C130.5671391 20.38095093 127.56046891 24.11660423 125.66577148 25.75595093 Z M67.04077148 77.38095093 C64.72695945 79.07673159 62.66087429 80.77817934 60.54077148 82.69345093 C59.91928223 83.24089966 59.29779297 83.78834839 58.6574707 84.35238647 C56.7745302 86.01702552 54.90560297 87.69606814 53.04077148 89.38095093 C52.51257813 89.85661499 51.98438477 90.33227905 51.44018555 90.82235718 C49.10942375 92.9247932 46.78919239 95.03832961 44.47436523 97.15829468 C37.63053697 103.40891792 30.54694351 109.3903839 23.50561523 115.41610718 C22.94342285 115.89837769 22.38123047 116.38064819 21.80200195 116.87753296 C20.55574754 117.94135811 19.30423354 118.99903609 18.04907227 120.05233765 C17.40824707 120.59261597 16.76742187 121.13289429 16.10717773 121.68954468 C15.52009033 122.18124146 14.93300293 122.67293823 14.328125 123.17953491 C13.69088501 123.77423584 13.69088501 123.77423584 13.04077148 124.38095093 C13.04077148 124.71095093 13.04077148 125.04095093 13.04077148 125.38095093 C49.34077148 125.38095093 85.64077148 125.38095093 123.04077148 125.38095093 C114.68531281 117.02549226 106.07232037 109.12137969 96.85327148 101.72470093 C93.64224015 99.04884148 90.59086536 96.23699681 87.54077148 93.38095093 C78.20914113 83.88273264 78.20914113 83.88273264 67.04077148 77.38095093 Z " fill="#000000" transform="translate(51.959228515625,283.6190490722656)"/>
<path d="M0 0 C1.09225388 -0.00571014 2.18450775 -0.01142029 3.30986023 -0.01730347 C4.51355255 -0.01842133 5.71724487 -0.01953918 6.95741272 -0.02069092 C8.22085007 -0.02565582 9.48428741 -0.03062073 10.78601074 -0.03573608 C14.25705689 -0.0488664 17.72808369 -0.05530606 21.1991508 -0.05974674 C23.36642833 -0.06267595 25.53370055 -0.06678043 27.70097542 -0.07125092 C34.47822385 -0.08492641 41.25546018 -0.09459328 48.03272146 -0.09845281 C55.86316751 -0.10293633 63.69343923 -0.12049752 71.52383226 -0.1494534 C77.57228071 -0.17104574 83.62068003 -0.18115574 89.66916662 -0.18249393 C93.28379452 -0.18354356 96.89825858 -0.18948487 100.51284599 -0.20731354 C104.54265357 -0.22680363 108.57209457 -0.2225151 112.60194397 -0.21600342 C113.80361206 -0.2252182 115.00528015 -0.23443298 116.24336243 -0.243927 C117.88597298 -0.23557327 117.88597298 -0.23557327 119.56176758 -0.22705078 C120.51506927 -0.22851734 121.46837095 -0.2299839 122.45056057 -0.2314949 C124.84437561 0.14044189 124.84437561 0.14044189 126.65114975 1.33366776 C128.27560295 3.79340328 128.21911553 5.47580557 128.21859741 8.4163208 C128.22561172 9.50994934 128.23262604 10.60357788 128.23985291 11.73034668 C128.23220917 12.93044373 128.22456543 14.13054077 128.21669006 15.36700439 C128.22034073 16.63058777 128.22399139 17.89417114 128.22775269 19.19604492 C128.2371655 22.66300167 128.2277332 26.12967629 128.21442056 29.59661102 C128.20311223 33.22271268 128.20721309 36.84880033 128.20916748 40.47491455 C128.21005065 46.56464248 128.19896526 52.65425914 128.18055725 58.74395752 C128.15938922 65.78709995 128.15587959 72.83007935 128.16211921 79.87324715 C128.16781166 86.64517497 128.16216862 93.41704531 128.15094566 100.18896484 C128.14629809 103.07247988 128.14542651 105.95595977 128.14753151 108.83947754 C128.1497629 112.86436524 128.13531351 116.88902405 128.11903381 120.91387939 C128.12151123 122.11397644 128.12398865 123.31407349 128.12654114 124.55053711 C128.11945633 125.64416565 128.11237152 126.73779419 128.10507202 127.86456299 C128.10199272 129.29256729 128.10199272 129.29256729 128.0988512 130.74942017 C127.84437561 133.14044189 127.84437561 133.14044189 125.84437561 136.14044189 C122.84393826 137.14058768 120.83171806 137.27549771 117.69584656 137.29434204 C116.6303508 137.3029425 115.56485504 137.31154297 114.46707153 137.32040405 C112.71371742 137.32679398 112.71371742 137.32679398 110.92494202 137.33331299 C109.69383194 137.34149048 108.46272186 137.34966797 107.19430542 137.35809326 C103.11151962 137.38295084 99.02877081 137.39961456 94.94593811 137.41387939 C93.53973255 137.41924007 92.13352706 137.42461758 90.72732162 137.43001175 C84.87849376 137.45163277 79.02966862 137.4703701 73.18081093 137.48163414 C64.8009249 137.49787972 56.42150203 137.5310804 48.0417906 137.58803499 C42.14785778 137.62672855 36.25404889 137.64626593 30.35999238 137.6515547 C26.84018838 137.6552083 23.32087877 137.66722946 19.80121231 137.69965744 C15.87486905 137.73531545 11.94910809 137.73136865 8.02259827 137.72393799 C6.27531685 137.74854599 6.27531685 137.74854599 4.49273682 137.77365112 C-0.15071761 137.73758987 -3.27273718 137.62693315 -7.37930298 135.36412048 C-10.14618742 130.34276225 -9.82695858 125.62178861 -9.75498962 119.97808838 C-9.75893234 118.74507996 -9.76287506 117.51207153 -9.76693726 116.24169922 C-9.77249475 112.8672887 -9.75576713 109.49441369 -9.72845721 106.12020373 C-9.70459666 102.58668846 -9.70757193 99.05318902 -9.70715332 95.51960754 C-9.70252787 89.58716607 -9.67890301 83.65504591 -9.64268494 77.72271729 C-9.60093363 70.86585867 -9.58336882 64.00928923 -9.58006519 57.15231079 C-9.57646446 49.84824552 -9.55758975 42.54428415 -9.53294492 35.24026227 C-9.52671946 33.13698042 -9.52308118 31.03370648 -9.51991081 28.93041801 C-9.51290913 25.01131394 -9.48851419 21.09242389 -9.46202087 17.17340088 C-9.4613562 16.00809341 -9.46069153 14.84278595 -9.46000671 13.64216614 C-9.45003159 12.57529572 -9.44005646 11.50842529 -9.42977905 10.40922546 C-9.42512855 9.48286506 -9.42047804 8.55650465 -9.41568661 7.60207272 C-9.13847296 4.97809426 -8.57159235 3.35565439 -7.15562439 1.14044189 C-4.61624874 -0.12924593 -2.84369396 0.00887691 0 0 Z M12.84437561 12.14044189 C17.88879641 18.03352841 17.88879641 18.03352841 23.19740295 23.60699463 C23.99777985 24.40729599 24.79815674 25.20759735 25.62278748 26.03215027 C26.46677094 26.87097244 27.31075439 27.70979462 28.18031311 28.57403564 C29.05966522 29.45197281 29.93901733 30.32990997 30.84501648 31.23445129 C33.63411619 34.01798601 36.42668579 36.79800958 39.21937561 39.57794189 C41.11962982 41.47260855 43.01912214 43.36803819 44.91859436 45.26348877 C49.55788165 49.89179351 54.20001728 54.5172261 58.84437561 59.14044189 C62.3700239 57.6344342 64.63969839 55.59301394 67.33753967 52.89019775 C68.21815063 52.01266342 69.0987616 51.13512909 70.00605774 50.23100281 C70.95755386 49.27261091 71.90886381 48.31403414 72.86000061 47.35528564 C73.84040955 46.37368419 74.82118889 45.39245256 75.80232239 44.41157532 C77.85298462 42.35935166 79.90025043 40.30381925 81.94496155 38.2456665 C84.57179318 35.60178945 87.20521607 32.96459942 89.84096146 30.32961178 C91.86405077 28.30625128 93.88452915 26.28030096 95.9041214 24.25345039 C96.87480575 23.27957536 97.84610448 22.30631231 98.81801605 21.33366203 C100.17079969 19.97872224 101.51989382 18.62010179 102.86878967 17.2612915 C103.63838013 16.48788925 104.40797058 15.714487 105.20088196 14.91764832 C106.9575336 13.42151874 106.9575336 13.42151874 106.84437561 12.14044189 C75.82437561 12.14044189 44.80437561 12.14044189 12.84437561 12.14044189 Z M2.84437561 21.14044189 C2.84437561 52.49044189 2.84437561 83.84044189 2.84437561 116.14044189 C8.78415442 111.05159793 8.78415442 111.05159793 14.40272522 105.69561768 C15.22304733 104.87522003 16.04336945 104.05482239 16.8885498 103.20956421 C17.74924576 102.34370697 18.60994171 101.47784973 19.49671936 100.58575439 C20.39685257 99.68420624 21.29698578 98.78265808 22.22439575 97.85379028 C24.59510384 95.47845973 26.96362076 93.10098784 29.33106995 90.72241211 C31.7561829 88.28699473 34.18419646 85.85447277 36.61195374 83.42169189 C41.35874689 78.66391421 46.10266842 73.9032881 50.84437561 69.14044189 C45.97101474 63.27074067 40.72380754 57.87439354 35.32484436 52.48809814 C34.42566788 51.58796494 33.52649139 50.68783173 32.60006714 49.76042175 C30.71112122 47.87079848 28.82121253 45.98220374 26.92958069 44.09527588 C24.50052352 41.67196456 22.07604987 39.24412446 19.65284252 36.81496525 C17.337596 34.49525465 15.01856343 32.1793369 12.69984436 29.86309814 C11.82700302 28.98823257 10.95416168 28.113367 10.05487061 27.21199036 C9.25346146 26.41373337 8.45205231 25.61547638 7.62635803 24.79302979 C6.5642939 23.73215904 6.5642939 23.73215904 5.48077393 22.64985657 C4.09290661 21.02743996 4.09290661 21.02743996 2.84437561 21.14044189 Z M112.9777832 22.88677979 C112.16281876 23.70396484 111.34785431 24.5211499 110.50819397 25.36309814 C109.58731491 26.28405273 108.66643585 27.20500732 107.71765137 28.15386963 C106.70645429 29.17017424 105.69531158 30.18653296 104.68421936 31.20294189 C103.6545348 32.23449051 102.62462997 33.2658193 101.59451294 34.29693604 C98.87808437 37.01719076 96.16467155 39.74043469 93.45185852 42.46429443 C90.68541078 45.2409542 87.91614547 48.01480068 85.14710999 50.78887939 C79.71009064 56.23663779 74.2762515 61.68755451 68.84437561 67.14044189 C70.35038331 70.66609018 72.39180356 72.93576467 75.09461975 75.63360596 C75.97215408 76.51421692 76.84968842 77.39482788 77.7538147 78.30212402 C78.7122066 79.25362015 79.67078336 80.20493009 80.62953186 81.15606689 C81.61113332 82.13647583 82.59236495 83.11725517 83.57324219 84.09838867 C85.62546585 86.14905091 87.68099826 88.19631672 89.739151 90.24102783 C92.38302805 92.86785947 95.02021809 95.50128235 97.65520573 98.13702774 C99.67856623 100.16011706 101.70451655 102.18059543 103.73136711 104.20018768 C104.70524214 105.17087203 105.67850519 106.14217076 106.65115547 107.11408234 C108.00609526 108.46686598 109.36471571 109.81596011 110.723526 111.16485596 C111.49692825 111.93444641 112.27033051 112.70403687 113.06716919 113.49694824 C114.56329877 115.25359989 114.56329877 115.25359989 115.84437561 115.14044189 C115.84437561 84.12044189 115.84437561 53.10044189 115.84437561 21.14044189 C114.54005825 21.02657643 114.54005825 21.02657643 112.9777832 22.88677979 Z M54.41639709 81.43902588 C53.72855133 82.12424316 53.72855133 82.12424316 53.02680969 82.82330322 C51.50382806 84.34186484 49.98455526 85.86407766 48.46546936 87.38653564 C47.41329361 88.4380384 46.36096941 89.48939261 45.3085022 90.54060364 C43.10015894 92.74746972 40.89364207 94.95614198 38.68836975 97.16607666 C35.85457591 100.0055678 33.01631762 102.84054719 30.17668056 105.67419338 C28.00195851 107.84531035 25.82961356 110.01879312 23.65799141 112.19301033 C22.61208179 113.23958937 21.56542241 114.28541967 20.51801872 115.33050346 C19.05723879 116.78875774 17.59967981 118.25015522 16.14295959 119.71246338 C15.31102585 120.54519272 14.4790921 121.37792206 13.62194824 122.23588562 C11.73065635 123.82808384 11.73065635 123.82808384 11.84437561 125.14044189 C43.19437561 125.14044189 74.54437561 125.14044189 106.84437561 125.14044189 C101.76023403 119.20584643 101.76023403 119.20584643 96.41542053 113.58209229 C95.1896656 112.35160912 95.1896656 112.35160912 93.93914795 111.0962677 C93.07642776 110.23557175 92.21370758 109.37487579 91.32484436 108.48809814 C90.42566788 107.58796494 89.52649139 106.68783173 88.60006714 105.76042175 C86.71112122 103.87079848 84.82121253 101.98220374 82.92958069 100.09527588 C80.50052352 97.67196456 78.07604987 95.24412446 75.65284252 92.81496525 C73.337596 90.49525465 71.01856343 88.1793369 68.69984436 85.86309814 C67.82700302 84.98823257 66.95416168 84.113367 66.05487061 83.21199036 C64.85275688 82.01460487 64.85275688 82.01460487 63.62635803 80.79302979 C62.91831528 80.08578262 62.21027252 79.37853546 61.48077393 78.64985657 C58.25582694 75.67516376 57.10418547 78.75380543 54.41639709 81.43902588 Z " fill="#000000" transform="translate(243.15562438964844,283.85955810546875)"/>
<path d="M0 0 C1.10204269 -0.01134979 2.20408539 -0.02269958 3.33952332 -0.03439331 C5.15369499 -0.02999741 5.15369499 -0.02999741 7.0045166 -0.0255127 C8.91452202 -0.03821701 8.91452202 -0.03821701 10.8631134 -0.05117798 C14.35688562 -0.07341762 17.85042217 -0.07632355 21.34425545 -0.07443047 C24.25943462 -0.0743109 27.1745636 -0.08286919 30.08972883 -0.09120798 C36.96549283 -0.11045012 43.8411354 -0.11332264 50.71691895 -0.10656738 C57.81475522 -0.09992248 64.91207235 -0.12280655 72.0098033 -0.15988111 C78.10076128 -0.19054466 84.19155196 -0.20194192 90.28258562 -0.1980443 C93.92188174 -0.19597363 97.56077378 -0.20150434 101.19999695 -0.22593689 C105.25628222 -0.25226968 109.31146582 -0.23850208 113.36779785 -0.2208252 C115.18196953 -0.24072006 115.18196953 -0.24072006 117.03279114 -0.26101685 C118.13483383 -0.24980804 119.23687653 -0.23859924 120.37231445 -0.22705078 C121.33169167 -0.22776329 122.29106888 -0.2284758 123.27951813 -0.2292099 C125.68615723 0.39440918 125.68615723 0.39440918 127.49446297 2.59880829 C128.76013012 5.56794253 129.06315208 7.53444162 129.06710815 10.7454834 C129.07556763 11.80531433 129.0840271 12.86514526 129.09274292 13.95709229 C129.08363388 15.68563446 129.08363388 15.68563446 129.07434082 17.44909668 C129.08222626 19.28156952 129.08222626 19.28156952 129.090271 21.15106201 C129.10120131 24.49416674 129.09865517 27.8367134 129.08913374 31.17978668 C129.08152599 34.68216184 129.08858585 38.18451353 129.09329224 41.68688965 C129.09874655 47.56795521 129.09156674 53.44890767 129.07727051 59.32995605 C129.06094452 66.12434644 129.06623327 72.91846673 129.08274972 79.71285057 C129.09637388 85.55164587 129.09827973 91.39035997 129.09043372 97.22916603 C129.08576228 100.71412202 129.08511768 104.19895114 129.09504318 107.68389893 C129.10533665 111.56927956 129.09106019 115.45435888 129.07434082 119.33972168 C129.08041351 120.49208313 129.08648621 121.64444458 129.09274292 122.83172607 C129.08005371 124.42147247 129.08005371 124.42147247 129.06710815 126.04333496 C129.06597708 126.96139923 129.064846 127.8794635 129.06368065 128.8253479 C128.58998778 132.04884593 127.75645948 133.87451805 125.68615723 136.39440918 C123.26110744 137.01802826 123.26110744 137.01802826 120.32762146 137.01586914 C118.65976845 137.03268234 118.65976845 137.03268234 116.95822144 137.04983521 C115.73785187 137.03657196 114.5174823 137.02330872 113.26013184 137.00964355 C111.97543503 137.01519257 110.69073822 137.02074158 109.36711121 137.02645874 C105.84218925 137.04072228 102.31804588 137.02363195 98.79319835 137.00017357 C95.10790825 136.98009076 91.4226513 136.9859427 87.73731995 136.98828125 C81.54915495 136.98822766 75.36129508 136.96845661 69.17321777 136.93640137 C62.01298005 136.89949113 54.85314188 136.89072772 47.69282144 136.89769888 C40.81086627 136.90399751 33.9290485 136.89326259 27.04712105 136.87373352 C24.11532195 136.86554639 21.18359295 136.86285236 18.25178337 136.86442566 C14.16191178 136.8654654 10.07257054 136.84133034 5.98278809 136.81433105 C4.14919739 136.81872696 4.14919739 136.81872696 2.27856445 136.82321167 C1.16948227 136.81186188 0.06040009 136.80051208 -1.08229065 136.78881836 C-2.53380067 136.78322529 -2.53380067 136.78322529 -4.01463413 136.77751923 C-4.77337298 136.65109291 -5.53211184 136.5246666 -6.31384277 136.39440918 C-8.53732746 133.05918215 -8.56615283 132.00763697 -8.57453918 128.11853027 C-8.58162399 127.02490173 -8.5887088 125.93127319 -8.5960083 124.80450439 C-8.59353088 123.60440735 -8.59105347 122.4043103 -8.58850098 121.16784668 C-8.59361191 119.90426331 -8.59872284 118.64067993 -8.60398865 117.33880615 C-8.6173894 113.87192142 -8.61795623 110.40514564 -8.61542535 106.93824005 C-8.61435654 104.04544126 -8.6192366 101.15266459 -8.62403077 98.25987053 C-8.6351293 91.43686141 -8.63556118 84.61390734 -8.6295166 77.79089355 C-8.62347305 70.74771913 -8.63579659 63.70474429 -8.65708667 56.66160393 C-8.67468666 50.61737225 -8.68070665 44.5732042 -8.67744893 38.52894783 C-8.67563363 34.91770121 -8.67829677 31.306597 -8.69216347 27.69537354 C-8.70704037 23.67044046 -8.69778584 19.64591538 -8.68615723 15.62097168 C-8.69380096 14.42087463 -8.7014447 13.22077759 -8.70932007 11.98431396 C-8.70230576 10.89068542 -8.69529144 9.79705688 -8.68806458 8.67028809 C-8.68823232 7.71828522 -8.68840006 6.76628235 -8.68857288 5.78543091 C-8.31384277 3.39440918 -8.31384277 3.39440918 -7.12256908 1.58931732 C-4.655301 -0.04064665 -2.94996976 0.01146535 0 0 Z M12.68615723 12.39440918 C17.73057803 18.2874957 17.73057803 18.2874957 23.03918457 23.86096191 C23.83956146 24.66126328 24.63993835 25.46156464 25.46456909 26.28611755 C26.30855255 27.12493973 27.15253601 27.9637619 28.02209473 28.82800293 C28.90144684 29.70594009 29.78079895 30.58387726 30.6867981 31.48841858 C33.4758978 34.2719533 36.26846741 37.05197686 39.06115723 39.83190918 C40.96141143 41.72657583 42.86090376 43.62200548 44.76037598 45.51745605 C49.39966327 50.14576079 54.0417989 54.77119339 58.68615723 59.39440918 C62.21180551 57.88840148 64.48148001 55.84698123 67.17932129 53.14416504 C68.05993225 52.26663071 68.94054321 51.38909637 69.84783936 50.48497009 C70.79933548 49.52657819 71.75064542 48.56800143 72.70178223 47.60925293 C73.68219116 46.62765147 74.6629705 45.64641984 75.644104 44.6655426 C77.69476624 42.61331894 79.74203205 40.55778653 81.78674316 38.49963379 C84.4135748 35.85575674 87.04699768 33.2185667 89.68274307 30.58357906 C91.70583239 28.56021856 93.72631076 26.53426824 95.74590302 24.50741768 C96.71658736 23.53354265 97.68788609 22.5602796 98.65979767 21.58762932 C100.01258131 20.23268953 101.36167544 18.87406908 102.71057129 17.51525879 C103.48016174 16.74185654 104.2497522 15.96845428 105.04266357 15.1716156 C106.79931522 13.67548602 106.79931522 13.67548602 106.68615723 12.39440918 C75.66615723 12.39440918 44.64615723 12.39440918 12.68615723 12.39440918 Z M3.68615723 21.39440918 C3.68615723 52.41440918 3.68615723 83.43440918 3.68615723 115.39440918 C9.57924374 110.34998838 9.57924374 110.34998838 15.15270996 105.04138184 C15.95301132 104.24100494 16.75331268 103.44062805 17.5778656 102.61599731 C18.41668777 101.77201385 19.25550995 100.9280304 20.11975098 100.05847168 C20.99768814 99.17911957 21.87562531 98.29976746 22.78016663 97.39376831 C25.56370134 94.6046686 28.34372491 91.812099 31.12365723 89.01940918 C33.01832388 87.11915497 34.91375352 85.21966265 36.8092041 83.32019043 C41.43750884 78.68090314 46.06294143 74.03876751 50.68615723 69.39440918 C49.18014953 65.86876089 47.13872928 63.5990864 44.43591309 60.90124512 C43.55837875 60.02063416 42.68084442 59.14002319 41.77671814 58.23272705 C40.81832624 57.28123093 39.85974948 56.32992098 38.90100098 55.37878418 C37.91939952 54.39837524 36.93816789 53.4175959 35.95729065 52.4364624 C33.90506699 50.38580017 31.84953458 48.33853436 29.79138184 46.29382324 C27.14750478 43.66699161 24.51031475 41.03356872 21.87532711 38.39782333 C19.85196661 36.37473402 17.82601629 34.35425564 15.79916573 32.33466339 C14.8252907 31.36397904 13.85202765 30.39268031 12.87937737 29.42076874 C11.52443758 28.0679851 10.16581712 26.71889097 8.80700684 25.36999512 C8.03360458 24.60040466 7.26020233 23.83081421 6.46336365 23.03790283 C4.96723407 21.28125119 4.96723407 21.28125119 3.68615723 21.39440918 Z M113.78160095 23.17871094 C112.94887161 24.01366089 112.11614227 24.84861084 111.25817871 25.7088623 C110.79961487 26.16728012 110.34105103 26.62569794 109.86859131 27.0980072 C108.34576385 28.62153416 106.82651386 30.14857827 105.30725098 31.67565918 C104.25514616 32.72962804 103.20282109 33.78337708 102.15028381 34.83691406 C99.37467166 37.61635244 96.60207495 40.39878031 93.83007812 43.18182373 C91.00330719 46.01880655 88.17371887 48.85297615 85.34436035 51.68737793 C79.78885157 57.25362588 74.2365226 62.82303251 68.68615723 68.39440918 C73.5595181 74.2641104 78.8067253 79.66045753 84.20568848 85.04675293 C85.5544532 86.39695274 85.5544532 86.39695274 86.9304657 87.77442932 C88.81941161 89.6640526 90.70932031 91.55264734 92.60095215 93.4395752 C95.03000931 95.86288651 97.45448297 98.29072661 99.87769032 100.71988583 C102.19293684 103.03959642 104.51196941 105.35551418 106.83068848 107.67175293 C107.70352982 108.5466185 108.57637115 109.42148407 109.47566223 110.32286072 C110.27707138 111.12111771 111.07848053 111.91937469 111.9041748 112.74182129 C112.61221756 113.44906845 113.32026031 114.15631561 114.04975891 114.88499451 C115.43762622 116.50741111 115.43762622 116.50741111 116.68615723 116.39440918 C116.68615723 85.04440918 116.68615723 53.69440918 116.68615723 21.39440918 C115.37281859 21.28046046 115.37281859 21.28046046 113.78160095 23.17871094 Z M55.25817871 81.69299316 C54.57033295 82.37821045 54.57033295 82.37821045 53.86859131 83.07727051 C52.34560968 84.59583212 50.82633688 86.11804494 49.30725098 87.64050293 C48.25507523 88.69200568 47.20275102 89.7433599 46.15028381 90.79457092 C43.94194056 93.001437 41.73542368 95.21010927 39.53015137 97.42004395 C36.69635752 100.25953508 33.85809923 103.09451447 31.01846218 105.92816067 C28.84374013 108.09927764 26.67139517 110.2727604 24.49977303 112.44697762 C23.4538634 113.49355666 22.40720403 114.53938695 21.35980034 115.58447075 C19.89902041 117.04272502 18.44146143 118.5041225 16.98474121 119.96643066 C16.15280746 120.79916 15.32087372 121.63188934 14.46372986 122.48985291 C12.57243797 124.08205112 12.57243797 124.08205112 12.68615723 125.39440918 C44.03615723 125.39440918 75.38615723 125.39440918 107.68615723 125.39440918 C102.60201564 119.45981371 102.60201564 119.45981371 97.25720215 113.83605957 C96.03144722 112.6055764 96.03144722 112.6055764 94.78092957 111.35023499 C93.91820938 110.48953903 93.0554892 109.62884308 92.16662598 108.74206543 C91.26744949 107.84193222 90.36827301 106.94179901 89.44184875 106.01438904 C87.55290284 104.12476576 85.66299414 102.23617102 83.7713623 100.34924316 C81.34230514 97.92593185 78.91783149 95.49809175 76.49462414 93.06893253 C74.17937762 90.74922194 71.86034505 88.43330418 69.54162598 86.11706543 C68.66878464 85.24219986 67.7959433 84.36733429 66.89665222 83.46595764 C65.6945385 82.26857216 65.6945385 82.26857216 64.46813965 81.04699707 C63.76009689 80.33974991 63.05205414 79.63250275 62.32255554 78.90382385 C59.09760856 75.92913105 57.94596709 79.00777271 55.25817871 81.69299316 Z " fill="#000000" transform="translate(51.3138427734375,119.6055908203125)"/>
<path d="M0 0 C4.60543106 0.8528576 5.62889707 2.71566853 8.28515625 6.44140625 C11.3842966 11.16252659 14.4364833 15.91288995 17.37634289 20.73512667 C20.06417756 25.11528691 22.83179004 29.30491052 26.00805473 33.34759235 C36.47861611 46.97959114 38.37464721 57.53627529 38.02783203 74.43237305 C38.03043845 76.84287368 38.03917521 79.25337413 38.05349731 81.66383362 C38.07224808 87.47486475 38.02721663 93.28272122 37.95147015 99.09323194 C37.86616596 105.87693031 37.85831558 112.66010903 37.85343145 119.44426236 C37.84235792 131.55095919 37.76625506 143.65633535 37.65087891 155.76245117 C37.53927343 167.48225699 37.46861515 179.20130775 37.44580078 190.92163086 C37.44438427 191.64526055 37.44296775 192.36889023 37.44150831 193.11444809 C37.43868961 194.57246384 37.43588081 196.03047961 37.43308198 197.4884954 C37.43170059 198.20789375 37.4303192 198.92729211 37.42889595 199.66849041 C37.42753909 200.38619715 37.42618223 201.1039039 37.42478425 201.84335933 C37.40228801 213.06054286 37.34834666 224.27760479 37.28883926 235.49464547 C37.27102316 238.87244706 37.2546501 242.25024307 37.24161768 245.62806678 C37.21174534 253.32011558 37.16319111 261.01161929 37.08353806 268.70332909 C37.06232229 271.02923981 37.04769637 273.35522167 37.04023743 275.68121719 C37.02870478 278.86285084 36.9925967 282.04330325 36.95022583 285.22465515 C36.95232752 286.1383755 36.95442921 287.05209586 36.95659459 287.9935047 C36.75587817 298.44019406 32.88807228 305.95543589 25.74609375 313.42578125 C16.74182829 321.77734872 7.66992046 323.21392685 -4.203125 322.92578125 C-14.76458093 322.38616102 -21.55624353 317.23364373 -28.625 309.625 C-34.72230215 301.8855673 -35.92029367 294.24417905 -35.96644592 284.63684082 C-35.97873826 283.64661753 -35.9910306 282.65639424 -36.00369543 281.63616419 C-36.04203814 278.32582738 -36.06620511 275.01554858 -36.09008789 271.70507812 C-36.11408822 269.32759465 -36.13873737 266.95011764 -36.16398621 264.57264709 C-36.24216776 256.76728862 -36.29792831 248.96183093 -36.34765625 241.15625 C-36.35193873 240.49088486 -36.35622121 239.82551972 -36.36063346 239.139992 C-36.44534245 225.89662671 -36.51741564 212.6532076 -36.56644535 199.40966034 C-36.57740154 196.50145904 -36.58853179 193.59325849 -36.59985352 190.68505859 C-36.60265717 189.96234963 -36.60546082 189.23964066 -36.60834944 188.49503142 C-36.65529024 176.82211912 -36.76104604 165.15049793 -36.89056296 153.47824079 C-37.02282456 141.45798432 -37.09716515 129.43839003 -37.11766809 117.41741705 C-37.13065325 110.68247653 -37.17012219 103.95008909 -37.27208138 97.21583557 C-37.36707012 90.86512609 -37.38902395 84.51808164 -37.35820198 78.16677666 C-37.35912476 75.85418858 -37.38511187 73.54143092 -37.43999863 71.22949409 C-37.83501958 53.64622453 -33.08850051 43.08242152 -22.49391544 29.14223194 C-19.63548821 25.292232 -17.10140223 21.25215389 -14.5625 17.1875 C-4.26950999 1.01655 -4.26950999 1.01655 0 0 Z M-0.625 18.625 C-2.25590349 20.8439988 -3.76542134 23.06047543 -5.25 25.375 C-6.14557794 26.74886443 -7.04141503 28.12255997 -7.9375 29.49609375 C-8.38609375 30.18815918 -8.8346875 30.88022461 -9.296875 31.59326172 C-10.53269092 33.48378747 -11.79018555 35.35656019 -13.0625 37.22265625 C-13.784375 38.28355469 -14.50625 39.34445313 -15.25 40.4375 C-15.90226562 41.39269531 -16.55453125 42.34789062 -17.2265625 43.33203125 C-18.79856167 45.46195547 -18.79856167 45.46195547 -18.625 47.625 C-6.085 47.625 6.455 47.625 19.375 47.625 C17.82234072 43.7433518 16.47141097 41.03183993 14.1875 37.6484375 C13.26324219 36.27171875 13.26324219 36.27171875 12.3203125 34.8671875 C11.67835938 33.92101562 11.03640625 32.97484375 10.375 32 C9.73304688 31.04609375 9.09109375 30.0921875 8.4296875 29.109375 C7.24037682 27.34282566 6.04917371 25.57754783 4.85546875 23.81396484 C3.68867154 22.08878282 2.53027802 20.35791704 1.375 18.625 C0.715 18.625 0.055 18.625 -0.625 18.625 Z M-23.625 59.625 C-23.625 123.975 -23.625 188.325 -23.625 254.625 C-7.455 254.625 8.715 254.625 25.375 254.625 C25.375 190.275 25.375 125.925 25.375 59.625 C9.205 59.625 -6.965 59.625 -23.625 59.625 Z M-23.625 266.625 C-23.728125 270.70875 -23.83125 274.7925 -23.9375 279 C-23.98302002 280.26634277 -24.02854004 281.53268555 -24.07543945 282.83740234 C-24.1755397 291.09987034 -22.83870809 297.92465636 -17.18115234 304.2355957 C-11.80786568 309.00902052 -5.81976983 311.59869371 1.375 311.625 C9.19774437 310.99479643 14.59422887 307.63607191 19.9140625 301.9921875 C27.83695704 292.03065342 25.375 278.39327141 25.375 266.625 C9.205 266.625 -6.965 266.625 -23.625 266.625 Z " fill="#000000" transform="translate(475.625,189.375)"/>
<path d="M0 0 C1.51101146 -0.01173486 1.51101146 -0.01173486 3.05254841 -0.02370679 C4.71726075 -0.01366855 4.71726075 -0.01366855 6.41560364 -0.00342751 C7.59211329 -0.00810748 8.76862295 -0.01278745 9.98078442 -0.01760924 C13.25198117 -0.02752736 16.52284583 -0.02392745 19.79403448 -0.01465058 C23.31965274 -0.00787986 26.84522512 -0.01833146 30.37083435 -0.02659035 C37.27968169 -0.03995109 44.18843143 -0.03703957 51.09728265 -0.02835242 C56.71075255 -0.02158547 62.32419504 -0.02065487 67.93766785 -0.02392387 C68.73569925 -0.02438357 69.53373064 -0.02484327 70.35594481 -0.0253169 C71.97697903 -0.02627605 73.59801323 -0.02724869 75.21904743 -0.02823468 C90.43015186 -0.03679542 105.64120211 -0.02694371 120.85229766 -0.01083358 C133.91257068 0.00257023 146.97276371 0.00024233 160.03303528 -0.01358986 C175.18859964 -0.0296336 190.34411648 -0.03597139 205.49968815 -0.02675307 C207.11485862 -0.02579739 208.7300291 -0.02485428 210.34519958 -0.02392387 C211.53733457 -0.02322963 211.53733457 -0.02322963 212.75355309 -0.02252137 C218.36221815 -0.01992785 223.97085315 -0.02431024 229.57951355 -0.03136253 C236.41183716 -0.03976436 243.24405733 -0.03752527 250.07636905 -0.0215203 C253.56432843 -0.01361972 257.05211517 -0.01057615 260.54007339 -0.02046776 C264.31597817 -0.02861219 268.09139075 -0.01844734 271.86726379 -0.00342751 C272.97707202 -0.01011967 274.08688025 -0.01681184 275.23031902 -0.02370679 C276.23766 -0.01588355 277.24500097 -0.00806031 278.28286743 0 C279.15497769 0.00048706 280.02708796 0.00097411 280.9256258 0.00147593 C283.14143372 0.37752342 283.14143372 0.37752342 284.95290661 1.67846239 C286.14143372 3.37752342 286.14143372 3.37752342 286.01643372 6.94002342 C285.14143372 10.37752342 285.14143372 10.37752342 282.14143372 12.37752342 C279.93960053 12.62937242 279.93960053 12.62937242 277.31689548 12.63199902 C276.317138 12.63783121 275.31738052 12.6436634 274.28732735 12.64967233 C273.18598314 12.64589301 272.08463893 12.64211368 270.94992065 12.63821983 C269.19846517 12.64395815 269.19846517 12.64395815 267.41162676 12.6498124 C264.16523057 12.65836497 260.91897815 12.65790141 257.67257798 12.65363181 C254.17353177 12.65117115 250.6745125 12.6601705 247.17547607 12.6676693 C240.31845217 12.68043672 233.46146739 12.68220745 226.6044336 12.67986903 C221.032452 12.67808801 215.4604823 12.67983088 209.88850212 12.68409348 C209.09631017 12.68468866 208.30411821 12.68528385 207.48792044 12.68589708 C205.87872597 12.68710879 204.2695315 12.68832293 202.66033702 12.68953945 C187.55985547 12.70042285 172.45939623 12.69824871 157.35891341 12.69215461 C143.53634471 12.68698462 129.71384645 12.69824162 115.89129169 12.71725283 C101.70725506 12.73661206 87.5232518 12.74489061 73.33920187 12.74112958 C65.3723417 12.73921463 57.40554151 12.74173356 49.43869209 12.75584412 C42.65654264 12.76773453 35.87449007 12.76918922 29.09233934 12.75705395 C25.63057944 12.75114873 22.16899697 12.7501108 18.70724869 12.76205635 C14.9579759 12.77244054 11.2091853 12.76448992 7.45993042 12.75174522 C6.36081693 12.75911951 5.26170344 12.76649379 4.12928349 12.77409154 C3.12691826 12.766885 2.12455302 12.75967846 1.09181309 12.75225353 C0.22615807 12.75230855 -0.63949695 12.75236356 -1.53138393 12.75242025 C-4.40195406 12.28998651 -5.78088562 11.39005901 -7.85856628 9.37752342 C-8.31496364 6.24794155 -8.55230499 4.32083539 -6.63488293 1.71361864 C-4.30028311 -0.04240141 -2.90729212 0.00162367 0 0 Z " fill="#000000" transform="translate(50.85856628417969,454.6224765777588)"/>
<path d="M0 0 C1.28570892 -0.00852997 2.57141785 -0.01705994 3.89608765 -0.02584839 C5.32395947 -0.02514934 6.7518312 -0.02422627 8.17970276 -0.02310181 C9.6810286 -0.02908506 11.18235135 -0.03589014 12.68367004 -0.04345703 C16.76422576 -0.06114384 20.84469763 -0.0658135 24.92528796 -0.0670886 C28.3299702 -0.06898643 31.73463285 -0.07634254 35.13930756 -0.08343279 C43.17052359 -0.09972414 51.20169476 -0.10460102 59.23292542 -0.10317993 C67.5223844 -0.10197793 75.81158327 -0.12308964 84.10097641 -0.15466726 C91.21442881 -0.18080133 98.3277961 -0.19154846 105.44129616 -0.19026911 C109.69145062 -0.18975868 113.94137392 -0.19548663 118.19148064 -0.21662521 C122.18803606 -0.23595978 126.18413864 -0.23616526 130.18070984 -0.22159195 C131.64807863 -0.21949684 133.11547542 -0.22424645 134.5827961 -0.23631287 C136.58460021 -0.25170936 138.58655801 -0.24008365 140.58837891 -0.22705078 C142.26941538 -0.22868508 142.26941538 -0.22868508 143.98441219 -0.2303524 C147.52377688 0.38282291 148.74122555 1.4050169 150.85768127 4.26742554 C150.70974126 7.96592594 150.49962554 9.62548127 147.85768127 12.26742554 C145.19927311 12.52190113 145.19927311 12.52190113 141.75296021 12.52812195 C140.45035248 12.53520676 139.14774475 12.54229156 137.80566406 12.54959106 C136.35368313 12.54729702 134.90170252 12.54478729 133.44972229 12.54208374 C131.92721811 12.54642885 130.40471612 12.55161131 128.88221741 12.55757141 C124.73968002 12.57099462 120.59723368 12.57153639 116.45467877 12.56900811 C113.00024741 12.56794061 109.54583464 12.5728161 106.09140724 12.57761353 C97.94374169 12.58872027 89.79612223 12.58913962 81.64845276 12.58309937 C73.23463802 12.57705784 64.82099043 12.58937242 56.40720421 12.61066943 C49.19102998 12.62826546 41.97490905 12.63428995 34.75871414 12.63103169 C30.44546622 12.62921544 26.13233752 12.63188887 21.81910896 12.64574623 C17.76353128 12.65828752 13.70821479 12.65641583 9.6526413 12.64333534 C8.16228333 12.64096187 6.6719072 12.6437317 5.18157005 12.65195847 C3.15086577 12.66236165 1.1200876 12.65255869 -0.91061401 12.64164734 C-2.0482743 12.64181508 -3.18593458 12.64198282 -4.35806942 12.64215565 C-7.14231873 12.26742554 -7.14231873 12.26742554 -9.03961277 10.96669292 C-10.14231873 9.26742554 -10.14231873 9.26742554 -10.01731873 5.70492554 C-8.53067933 -0.13544351 -5.38206393 0.01610174 0 0 Z " fill="#000000" transform="translate(222.14231872558594,181.73257446289063)"/>
<path d="M0 0 C1.30398239 -0.00990463 2.60796478 -0.01980927 3.95146179 -0.03001404 C5.39981173 -0.02577576 6.84816076 -0.02121788 8.29650879 -0.01637268 C9.81916303 -0.02207379 11.34181299 -0.02903704 12.86445618 -0.03717041 C17.00283913 -0.05514465 21.14101055 -0.05392562 25.27942085 -0.04822803 C28.73142516 -0.04514267 32.18338846 -0.05122124 35.63538694 -0.05726677 C43.77685664 -0.07132406 51.91822144 -0.0697404 60.05969238 -0.05836487 C68.46619857 -0.04687877 76.87238591 -0.06096472 85.27885008 -0.08776134 C92.49081025 -0.10989181 99.70267015 -0.11656184 106.91466188 -0.11068493 C111.2245729 -0.1073082 115.53427944 -0.10977778 119.84416199 -0.12693596 C123.89572486 -0.14236123 127.94681392 -0.13849929 131.99835777 -0.11963081 C133.4871022 -0.11593277 134.97588139 -0.11908868 136.46459389 -0.1295166 C138.4930434 -0.14264283 140.52161453 -0.12882307 142.55004883 -0.11352539 C143.68641029 -0.11331611 144.82277176 -0.11310682 145.99356842 -0.1128912 C148.77502441 0.38768005 148.77502441 0.38768005 150.67189789 2.22369289 C152.24095826 5.30169565 151.76354719 7.13967663 150.77502441 10.38768005 C147.25109668 12.73696521 145.80573255 12.64262098 141.63270569 12.65510559 C140.34699677 12.66363556 139.06128784 12.67216553 137.73661804 12.68095398 C136.30874622 12.68025493 134.88087448 12.67933186 133.45300293 12.6782074 C131.95167709 12.68419065 130.45035434 12.69099573 128.94903564 12.69856262 C124.86847993 12.71624943 120.78800806 12.72091909 116.70741773 12.72219419 C113.30273549 12.72409202 109.89807284 12.73144813 106.49339813 12.73853838 C98.4621821 12.75482973 90.43101092 12.75970662 82.39978027 12.75828552 C74.11032128 12.75708352 65.82112242 12.77819523 57.53172928 12.80977285 C50.41827688 12.83590692 43.30490959 12.84665405 36.19140953 12.8453747 C31.94125507 12.84486427 27.69133177 12.85059222 23.44122505 12.8717308 C19.44466963 12.89106537 15.44856705 12.89127085 11.45199585 12.87669754 C9.98462705 12.87460243 8.51723027 12.87935204 7.04990959 12.89141846 C5.04810548 12.90681495 3.04614767 12.89518924 1.04432678 12.88215637 C-0.63670969 12.88379067 -0.63670969 12.88379067 -2.3517065 12.88545799 C-5.8843073 12.27345449 -7.06588505 11.19857092 -9.22497559 8.38768005 C-9.70950573 5.54971777 -9.74999376 4.13862641 -8.08669281 1.75956631 C-5.38542364 -0.23097983 -3.33450686 0.00713022 0 0 Z " fill="#000000" transform="translate(221.2249755859375,131.61231994628906)"/>
<path d="M0 0 C1.27729477 -0.00708481 2.55458954 -0.01416962 3.87059021 -0.02146912 C5.28901708 -0.01917521 6.70744361 -0.0166655 8.12586975 -0.01396179 C9.61734269 -0.01830824 11.10881339 -0.02349116 12.60028076 -0.02944946 C16.65398651 -0.04285805 20.70759913 -0.04341607 24.76132274 -0.04088616 C28.14363564 -0.0398177 31.52592961 -0.04469662 34.90823847 -0.04949158 C42.88672107 -0.06059322 50.8651566 -0.0610205 58.84364319 -0.05497742 C67.07852859 -0.0489361 75.3132432 -0.0612511 83.54809946 -0.08254749 C90.61484173 -0.10015199 97.68152958 -0.10616667 104.74829298 -0.10290974 C108.97045601 -0.10109489 113.19249722 -0.10375314 117.41464043 -0.11762428 C121.38487561 -0.13017934 125.35484417 -0.12828073 129.32507515 -0.11521339 C130.7827628 -0.11284297 132.24046908 -0.11559898 133.69813538 -0.12383652 C135.68683476 -0.13426521 137.67560977 -0.12442234 139.66430664 -0.11352539 C141.3342816 -0.113777 141.3342816 -0.113777 143.03799343 -0.1140337 C146.24585873 0.30662068 147.63840706 0.96731512 149.89564514 3.26069641 C150.34593306 6.34838501 150.55727788 8.2941566 148.75736237 10.92354584 C146.05251365 12.86626301 143.98152141 12.64424178 140.67066956 12.65510559 C139.36668716 12.66645538 138.06270477 12.67780518 136.71920776 12.6894989 C135.27085815 12.68685548 133.82250911 12.68388423 132.37416077 12.68061829 C130.85150529 12.6879562 129.32885538 12.69654161 127.80621338 12.70628357 C123.66784273 12.72853572 119.52967097 12.73142849 115.3912487 12.72953606 C111.93924193 12.72941655 108.4872776 12.73797256 105.03528261 12.74631357 C96.89381879 12.76556029 88.75245751 12.76842657 80.61097717 12.76167297 C72.20441553 12.75502804 63.7982922 12.7779116 55.39181948 12.81498671 C48.1798564 12.8456427 40.96803464 12.8570483 33.75600767 12.85314989 C29.44604008 12.85107843 25.13641363 12.85662249 20.82650757 12.88104248 C16.77487157 12.90324028 12.72395051 12.90149085 8.67231178 12.88111496 C7.18356081 12.87769264 5.69476235 12.88284644 4.20607567 12.89709854 C2.17766517 12.9151812 0.14903689 12.89959228 -1.87937927 12.88215637 C-3.01574074 12.88286888 -4.1521022 12.88358139 -5.32289886 12.88431549 C-8.10435486 12.26069641 -8.10435486 12.26069641 -10.03247833 9.88982391 C-11.10435486 7.26069641 -11.10435486 7.26069641 -10.47935486 4.57319641 C-7.77765905 0.02943528 -4.89580221 0.00903054 0 0 Z " fill="#000000" transform="translate(43.10435485839844,38.73930358886719)"/>
<path d="M0 0 C1.01797165 -0.00426498 2.0359433 -0.00852997 3.08476257 -0.01292419 C4.20586929 -0.01247101 5.32697601 -0.01201782 6.48205566 -0.0115509 C8.24794792 -0.01658882 8.24794792 -0.01658882 10.04951477 -0.02172852 C13.28290859 -0.02961526 16.51626392 -0.0329069 19.74966621 -0.0335443 C22.44616206 -0.03449272 25.14265172 -0.03817015 27.83914518 -0.0417164 C34.19847139 -0.04986332 40.55778343 -0.05230037 46.91711426 -0.05158997 C53.48479693 -0.05098873 60.05239758 -0.061549 66.62005949 -0.07733363 C72.25320941 -0.09039155 77.88633245 -0.09577462 83.51949739 -0.09513456 C86.88645592 -0.0948791 90.25334154 -0.09775643 93.62028503 -0.10831261 C97.37245596 -0.1180546 101.12441292 -0.11525757 104.87658691 -0.10920715 C105.99769363 -0.11482666 107.11880035 -0.12044617 108.27388 -0.12623596 C109.80083748 -0.11994423 109.80083748 -0.11994423 111.35864258 -0.11352539 C112.24649696 -0.11407016 113.13435135 -0.11461493 114.04911041 -0.1151762 C116.17932129 0.13371277 116.17932129 0.13371277 118.17932129 2.13371277 C118.42932129 5.63371277 118.42932129 5.63371277 118.17932129 9.13371277 C115.66278957 11.65024449 114.84603396 11.38634951 111.3653717 11.39440918 C110.34884521 11.40149399 109.33231873 11.4085788 108.2849884 11.4158783 C107.16545273 11.41340088 106.04591705 11.41092346 104.89245605 11.40837097 C103.12897324 11.41603737 103.12897324 11.41603737 101.3298645 11.42385864 C98.10049785 11.43540031 94.87128985 11.43782447 91.64190793 11.43529534 C88.9479849 11.4342273 86.25408567 11.43910474 83.56016773 11.44390076 C77.20558044 11.45500497 70.85105226 11.45542834 64.49645996 11.4493866 C57.93670029 11.44334576 51.37715506 11.45565834 44.81743199 11.47695667 C39.18935195 11.49455948 33.56134024 11.5005761 27.93323368 11.49731892 C24.57012572 11.49550369 21.20717069 11.4981658 17.8440876 11.51203346 C14.09441559 11.52431869 10.34524456 11.51765341 6.59558105 11.50602722 C4.91931389 11.51749283 4.91931389 11.51749283 3.20918274 11.52919006 C2.18983643 11.52217575 1.17049011 11.51516144 0.12025452 11.50793457 C-1.21014437 11.50818618 -1.21014437 11.50818618 -2.56742001 11.50844288 C-4.82067871 11.13371277 -4.82067871 11.13371277 -6.64120579 9.83688641 C-7.82067871 8.13371277 -7.82067871 8.13371277 -7.63317871 4.50871277 C-7.36505371 3.39496277 -7.09692871 2.28121277 -6.82067871 1.13371277 C-4.36046409 -0.09639454 -2.75170215 0.0051939 0 0 Z " fill="#000000" transform="translate(219.8206787109375,232.8662872314453)"/>
<path d="M0 0 C5.02033907 3.67368159 8.58626694 8.16180347 9.8203125 14.33203125 C10.85254505 21.6566403 8.99750706 27.26767773 4.8203125 33.33203125 C0.27245058 38.27234826 -5.61459612 39.90912659 -12.1796875 40.33203125 C-18.69215522 40.09482216 -22.88566201 37.66615732 -27.51953125 33.1796875 C-32.16402223 28.01064224 -33.4908262 22.15700924 -33.1796875 15.33203125 C-31.77371753 9.00051085 -29.16891348 4.34986634 -23.95703125 0.44921875 C-16.66702396 -4.13307155 -7.44889372 -4.26728122 0 0 Z M-19.1796875 12.33203125 C-20.9096423 15.24150068 -21.18632088 17.00699545 -21.1171875 20.39453125 C-19.92624387 24.12615464 -18.46270223 25.2706034 -15.1796875 27.33203125 C-12.55514609 28.48026812 -11.47655796 28.40624887 -8.6796875 27.70703125 C-5.50285674 25.95977433 -3.99890992 24.48068545 -2.1796875 21.33203125 C-2.10131992 16.943447 -2.74140368 14.92058381 -5.3671875 11.39453125 C-8.01507706 9.12783329 -8.01507706 9.12783329 -11.1796875 8.83203125 C-14.59488249 9.40123042 -16.48304423 10.15973528 -19.1796875 12.33203125 Z " fill="#000000" transform="translate(257.1796875,25.66796875)"/>
<path d="M0 0 C5.23782695 3.54529778 8.03943963 8.24000291 9.54296875 14.3203125 C10.42349832 20.3727947 9.99761481 25.44827826 6.5546875 30.6171875 C2.28836516 35.80110024 -1.68662748 38.58063799 -8.26953125 40.1953125 C-15.66000332 40.57109922 -21.46769944 38.95435748 -27.2265625 34.20703125 C-31.5236097 29.67718691 -33.1542502 24.48001445 -33.45703125 18.3203125 C-33.17276365 12.40571246 -31.36543447 7.95101499 -27.30859375 3.625 C-19.28509982 -3.62767792 -9.79595023 -4.95865799 0 0 Z M-19.95703125 13.3828125 C-21.40851028 16.28577055 -21.3294215 18.15543029 -20.95703125 21.3828125 C-18.77960059 24.68006464 -17.17663227 26.85119154 -13.51953125 28.4453125 C-9.86826725 28.35625728 -7.95741552 27.47003634 -4.95703125 25.3828125 C-2.88130684 21.88002755 -1.70100914 19.75893134 -2.45703125 15.6953125 C-4.33209821 12.80458426 -6.01283369 11.18947918 -8.95703125 9.3828125 C-14.0358747 8.53633859 -16.32801546 9.85748287 -19.95703125 13.3828125 Z " fill="#000000" transform="translate(314.95703125,25.6171875)"/>
<path d="M0 0 C5.78732529 3.30369581 9.67291853 8.13072537 11.75 14.4375 C12.65824371 21.50279121 12.05531594 27.62664413 7.75 33.4375 C3.13382775 38.27584097 -1.4391988 40.72124709 -8.1015625 41.40234375 C-14.3900605 41.50524644 -19.35345583 39.33247832 -24.25 35.4375 C-29.78237659 29.2904149 -30.72503487 24.88913867 -30.55078125 16.69921875 C-30.13275133 12.16603719 -29.23839922 8.91605993 -26.25 5.4375 C-18.54479802 -0.90468791 -9.65163504 -4.35160424 0 0 Z M-17.25 14.4375 C-18.81935594 17.57621188 -18.60201103 19.97605822 -18.25 23.4375 C-15.99331324 26.40343118 -14.26115924 28.02266544 -10.8125 29.4375 C-7.28785492 29.4375 -5.21622231 28.28314944 -2.25 26.4375 C0.2415904 22.7001144 0.20793285 20.86418417 -0.25 16.4375 C-2.04562405 13.68420979 -3.30254922 11.91122539 -6.25 10.4375 C-11.36519005 9.86914555 -13.57841583 10.87081824 -17.25 14.4375 Z " fill="#000000" transform="translate(370.25,24.5625)"/>
<path d="M0 0 C2.57047921 3.50533376 2.28258942 7.38447624 2.25878906 11.55078125 C2.2622937 12.30571869 2.26579834 13.06065613 2.26940918 13.83847046 C2.27819999 16.32990762 2.27238676 18.82106003 2.265625 21.3125 C2.26697241 23.04598037 2.26891358 24.77946037 2.27142334 26.51293945 C2.27437101 30.14440512 2.27008844 33.77577234 2.26074219 37.40722656 C2.24934785 42.06120134 2.25590923 46.71494543 2.26788712 51.36891174 C2.27511535 54.94797503 2.27281335 58.52698365 2.26763153 62.10604858 C2.2662977 63.82205228 2.26793342 65.53806094 2.27259064 67.25405884 C2.27767169 69.65257914 2.26992356 72.05072623 2.25878906 74.44921875 C2.26283752 75.15791107 2.26688599 75.86660339 2.27105713 76.59677124 C2.24029735 80.17484799 2.20589954 83.08006699 0 86 C-3.4375 86.9375 -3.4375 86.9375 -7 87 C-8.69740295 85.99267578 -8.69740295 85.99267578 -10 84 C-10.30121149 81.31668422 -10.4201391 78.86427582 -10.40405273 76.1796875 C-10.41091599 75.38427551 -10.41777924 74.58886353 -10.42485046 73.76934814 C-10.44316572 71.13771767 -10.43927472 68.50668059 -10.43359375 65.875 C-10.43815297 64.04801234 -10.44345777 62.2210264 -10.44947815 60.39404297 C-10.45841829 56.56405675 -10.45597552 52.73427895 -10.44604492 48.90429688 C-10.43454826 43.99105207 -10.45477262 39.07852521 -10.48396206 34.16537476 C-10.50228811 30.39245011 -10.50203891 26.61969869 -10.49632454 22.84674072 C-10.49617091 21.03500358 -10.50224917 19.223255 -10.51461601 17.41156006 C-10.52945848 14.88068278 -10.51890015 12.35114715 -10.50170898 9.8203125 C-10.51137695 9.0690509 -10.52104492 8.31778931 -10.53100586 7.54376221 C-10.48424342 4.2639268 -10.43337079 2.4703413 -8.16395569 0.00732422 C-5.05455386 -1.44010642 -3.21733734 -1.04913174 0 0 Z " fill="#000000" transform="translate(454,72)"/>
<path d="M0 0 C2.875 0.875 2.875 0.875 4.875 3.875 C5.13569641 6.14500427 5.13569641 6.14500427 5.1496582 8.83374023 C5.15919022 9.84166122 5.16872223 10.84958221 5.17854309 11.88804626 C5.17763168 12.97557693 5.17672028 14.0631076 5.17578125 15.18359375 C5.18006638 16.3018605 5.1843515 17.42012726 5.18876648 18.57228088 C5.19451261 20.93856122 5.19500797 23.30485923 5.19067383 25.67114258 C5.18751548 29.29473976 5.21096488 32.91751953 5.23632812 36.54101562 C5.23860121 38.83854063 5.23930457 41.13606784 5.23828125 43.43359375 C5.247491 44.51910019 5.25670074 45.60460663 5.26618958 46.7230072 C5.25996078 47.73408035 5.25373199 48.7451535 5.24731445 49.78686523 C5.24794388 50.6749437 5.2485733 51.56302216 5.2492218 52.47801208 C4.7939184 55.39434869 3.9236447 56.77083169 1.875 58.875 C-1.24444595 59.3299192 -3.17632592 59.56269008 -5.7872467 57.67004395 C-7.58371096 55.25948566 -7.51159295 53.70861885 -7.52905273 50.71679688 C-7.54173691 49.66560669 -7.55442108 48.6144165 -7.56748962 47.53137207 C-7.56455399 46.39695679 -7.56161835 45.2625415 -7.55859375 44.09375 C-7.5638356 42.92871948 -7.56907745 41.76368896 -7.57447815 40.56335449 C-7.58090527 38.09872231 -7.57955249 35.63405948 -7.57104492 33.16943359 C-7.56253321 29.38974653 -7.59129226 25.61156897 -7.62304688 21.83203125 C-7.62465882 19.44010462 -7.62408149 17.04817531 -7.62109375 14.65625 C-7.63232773 13.52183472 -7.64356171 12.38741943 -7.65513611 11.21862793 C-7.64575516 10.16743774 -7.63637421 9.11624756 -7.62670898 8.03320312 C-7.62654282 7.10737427 -7.62637665 6.18154541 -7.62620544 5.22766113 C-7.125 2.875 -7.125 2.875 -5.28895569 1.0447998 C-3.125 -0.125 -3.125 -0.125 0 0 Z " fill="#000000" transform="translate(474.125,301.125)"/>
<path d="M0 0 C1.66796875 1.0234375 1.66796875 1.0234375 3 3 C3.27164428 5.75733549 3.37364021 8.25113595 3.3125 11 C3.31572266 11.72445313 3.31894531 12.44890625 3.32226562 13.1953125 C3.28385299 16.9807029 3.14469404 18.78295894 1 22 C-1.86076138 22.97868153 -3.38702769 23.22135111 -6.25 22.1875 C-8 21 -8 21 -9 19 C-9.15051566 16.33992519 -9.23127734 13.72345815 -9.25 11.0625 C-9.270625 10.33353516 -9.29125 9.60457031 -9.3125 8.85351562 C-9.35157792 3.52426472 -9.35157792 3.52426472 -7.671875 1.01953125 C-5.03820192 -0.58651706 -3.00477363 -0.3755967 0 0 Z " fill="#000000" transform="translate(476,378)"/>
<path d="M0 0 C1.2375 0.00128906 2.475 0.00257813 3.75 0.00390625 C7 0.4375 7 0.4375 8.91015625 1.77734375 C10.64346408 4.41768722 10.44685507 6.37335092 10 9.4375 C7.71167144 11.75294145 6.34120616 12.39490648 3.08984375 12.80078125 C2.04957031 12.78402344 1.00929688 12.76726562 -0.0625 12.75 C-1.10535156 12.74613281 -2.14820313 12.74226563 -3.22265625 12.73828125 C-6 12.4375 -6 12.4375 -9 10.4375 C-9.98205214 7.21075725 -10.44497611 5.35217312 -8.9453125 2.26953125 C-6.07768996 -0.43110122 -3.86786928 -0.06043546 0 0 Z " fill="#000000" transform="translate(361,454.5625)"/>
<path d="M0 0 C3.5625 0.375 3.5625 0.375 5.265625 2.0859375 C6.7752542 4.75052399 6.93528107 6.33312456 6.875 9.375 C6.87113281 10.220625 6.86726563 11.06625 6.86328125 11.9375 C6.53943376 14.56192645 6.05591705 16.1934398 4.5625 18.375 C1.125 19.3125 1.125 19.3125 -2.4375 19.375 C-4.140625 18.3203125 -4.140625 18.3203125 -5.4375 16.375 C-5.80078125 13.08984375 -5.80078125 13.08984375 -5.75 9.3125 C-5.74613281 8.06339844 -5.74226563 6.81429687 -5.73828125 5.52734375 C-5.30867262 1.02482214 -4.46914958 0.48754359 0 0 Z " fill="#000000" transform="translate(449.4375,38.625)"/>
<path d="M0 0 C1.02770508 0.00483398 1.02770508 0.00483398 2.07617188 0.00976562 C3.09807617 -0.0144043 3.09807617 -0.0144043 4.140625 -0.0390625 C7.08982646 -0.04195104 9.12935775 -0.03394807 11.58789062 1.68554688 C13.10216532 4.04421266 13.05023191 5.57853203 12.63867188 8.32226562 C11.58789062 9.95898438 11.58789062 9.95898438 9.63867188 11.32226562 C7.02185271 11.59357464 4.68346156 11.69643284 2.07617188 11.63476562 C1.39103516 11.63798828 0.70589844 11.64121094 0 11.64453125 C-5.09405227 11.58954148 -5.09405227 11.58954148 -7.36132812 9.32226562 C-7.61132812 5.82226562 -7.61132812 5.82226562 -7.36132812 2.32226562 C-4.88747141 -0.15159109 -3.38628585 0.03655461 0 0 Z " fill="#000000" transform="translate(360.361328125,232.677734375)"/>
</svg>
