<svg width="240" height="245" viewBox="0 0 240 245" fill="none" xmlns="http://www.w3.org/2000/svg">
<path d="M33.9607 61.0412H5.78707C5.15398 61.0782 4.5418 61.2818 4.01181 61.6304C3.54239 62.0561 3.19343 62.5984 3 63.2032V204.574C3.36738 206.396 4.14785 208.11 5.28117 209.581C6.52466 210.827 8.07178 211.724 9.76768 212.184H219.343C220.911 211.973 222.391 211.334 223.622 210.337C224.58 208.888 225.148 207.216 225.271 205.482V64.05C225.232 63.2017 224.87 62.4015 224.259 61.813C223.402 61.3123 222.429 61.0458 221.437 61.0412H195.292M73.9429 241.994H153.106M95.144 242V219.237M134.104 242V219.237M197.41 19.0533H82.6941V33.3402M143.159 19.0533V77.9051M83.9174 72.4096V144.554M144.614 122.732V145.085M100.53 72.1722V40.0723H68.5285V72.1722H100.53ZM160.792 118.711V86.6115H128.79V118.711H160.792ZM237 35.0999V3H204.998V35.0999H237ZM159.788 151.418H38.3944V186.932H159.788V151.418Z" stroke="black" stroke-width="6" stroke-linecap="round" stroke-linejoin="round"/>
</svg>
