<?xml version="1.0" encoding="UTF-8"?>
<svg version="1.1" xmlns="http://www.w3.org/2000/svg" width="512" height="512">
<path d="M0 0 C1.59790739 -0.00842908 3.19580484 -0.01896119 4.79368591 -0.03141785 C9.10379879 -0.05831662 13.41332927 -0.05380505 17.72348857 -0.04171729 C21.33412923 -0.03455143 24.94466452 -0.04310864 28.55529696 -0.05162269 C37.07895464 -0.07152819 45.60233153 -0.06605884 54.12597656 -0.04394531 C62.89275464 -0.02158619 71.65879611 -0.03918503 80.42550462 -0.0769946 C87.97834981 -0.10831364 95.530968 -0.1161189 103.08386999 -0.10504085 C107.58350106 -0.09858093 112.08270752 -0.10042518 116.58228874 -0.12436485 C120.8155782 -0.14574408 125.04783551 -0.13747591 129.28106117 -0.10727119 C130.82569034 -0.10098742 132.37040113 -0.10469808 133.9149704 -0.11968231 C144.86851239 -0.21725286 153.84810944 1.39847162 162.34890652 8.80904102 C169.0496181 15.52041953 171.94384109 22.65136241 172.03344727 32.09179688 C172.02355999 34.08037538 172.00579455 36.06892814 171.98071289 38.05737305 C171.97394531 39.0781897 171.96717773 40.09900635 171.96020508 41.15075684 C171.94262684 43.65492338 171.91801766 46.15881217 171.88696289 48.6628418 C172.45135574 48.65395935 173.0157486 48.6450769 173.59724426 48.63592529 C179.51915262 48.5468142 185.44086777 48.48684567 191.36328125 48.44311523 C193.56778715 48.42311094 195.77224075 48.39589857 197.9765625 48.36108398 C201.16167173 48.31207122 204.34607405 48.28976053 207.53149414 48.2722168 C208.50278763 48.25157166 209.47408112 48.23092651 210.47480774 48.20965576 C221.65455346 48.20606305 230.80189444 51.94458175 238.88696289 59.6628418 C249.20804557 70.47443138 250.55172799 81.9248583 250.40844727 96.23364258 C250.38694114 98.79042746 250.40836395 101.34442166 250.43383789 103.90112305 C250.45284718 114.44293163 249.90175114 122.94236537 242.38696289 131.0378418 C241.53618164 131.97756836 241.53618164 131.97756836 240.66821289 132.9362793 C238.88696289 134.6628418 238.88696289 134.6628418 236.80638885 135.93013763 C234.66140184 137.52091473 234.66140184 137.52091473 234.39032745 140.12522125 C234.39183556 141.11107964 234.39334366 142.09693802 234.39489746 143.1126709 C234.38676529 144.24522308 234.37863312 145.37777527 234.37025452 146.54464722 C234.38156906 147.78828033 234.39288361 149.03191345 234.40454102 150.31323242 C234.39853481 152.32310776 234.39252759 154.33298309 234.38648224 156.34285831 C234.38385085 158.50547656 234.39109689 160.66786475 234.40110779 162.83045959 C234.42144781 167.34530949 234.41146339 171.85978037 234.39685059 176.37463379 C234.36780082 186.78401124 234.3785147 197.19327811 234.38954926 207.60267639 C234.39924194 217.1223275 234.40037746 226.64177988 234.36966848 236.16139746 C234.35635958 240.64021467 234.36216414 245.1184608 234.38303375 249.59724331 C234.39208553 252.39922024 234.38448603 255.20098223 234.37262154 258.00294113 C234.36950997 259.90092238 234.38617638 261.7989047 234.40367126 263.69680786 C234.3198664 275.60062706 231.17661756 284.97922334 222.88696289 293.6628418 C213.71517052 302.4185226 203.70511175 305.27915588 191.23608398 305.17077637 C190.11555319 305.17701633 188.99502239 305.18325629 187.84053612 305.18968534 C184.11360542 305.20554558 180.38733508 305.1930378 176.66040039 305.18041992 C173.97713331 305.18584413 171.2939106 305.19282464 168.61065674 305.20166016 C162.09590369 305.21938838 155.58133563 305.21563097 149.06657553 305.20400959 C143.76895735 305.19495299 138.47139079 305.19376086 133.17376709 305.19810486 C132.41798445 305.19871779 131.66220181 305.19933072 130.88351667 305.19996223 C129.34785857 305.20124121 127.81220049 305.20253807 126.27654243 305.20385259 C111.89779678 305.2152417 97.51915337 305.20217097 83.14042449 305.18065113 C70.819558 305.16278165 58.49884229 305.16588622 46.17797852 305.18432617 C31.84849124 305.20576246 17.51909343 305.21414322 3.18959236 305.20187712 C1.65978115 305.200603 0.12996993 305.19934552 -1.39984131 305.19810486 C-2.15241482 305.19748776 -2.90498834 305.19687065 -3.68036711 305.19623485 C-8.96778054 305.19279021 -14.25513692 305.19859111 -19.5425415 305.20802307 C-25.99166321 305.21927517 -32.44059033 305.21613593 -38.88968992 305.1949001 C-42.17623845 305.18443246 -45.46239864 305.18236977 -48.74895477 305.1934967 C-52.32034268 305.20447095 -55.89082741 305.19066424 -59.4621582 305.17077637 C-61.00202109 305.1841607 -61.00202109 305.1841607 -62.57299232 305.19781542 C-73.80089099 305.07702135 -82.97677438 301.42997352 -91.11303711 293.6628418 C-100.54040391 283.78744172 -102.72413832 273.37424681 -102.53198242 260.04077148 C-102.52812568 258.01951509 -102.52427758 255.99825867 -102.52075624 253.97700167 C-102.51337251 251.82692646 -102.49629827 249.67711842 -102.47663116 247.5271225 C-102.43688813 243.02958421 -102.43237119 238.53241806 -102.43377686 234.034729 C-102.43251155 221.25364073 -102.38458058 208.47295104 -102.30200195 195.69213867 C-102.25658809 188.61549416 -102.2399609 181.53935122 -102.25397754 174.46256948 C-102.26109795 169.99538754 -102.23254275 165.53033522 -102.17706251 161.06351423 C-102.1447806 157.63128165 -102.16473056 154.19969076 -102.17651367 150.76733398 C-102.15081802 149.53808197 -102.12512238 148.30882996 -102.09864807 147.04232788 C-102.08335031 140.80324225 -102.08335031 140.80324225 -104.85570526 135.42545319 C-106.93091289 133.55347743 -106.93091289 133.55347743 -109.11520004 132.08128738 C-114.11239876 128.53332314 -116.49585687 123.42765251 -118.11303711 117.6628418 C-118.41077574 114.82444358 -118.44068379 112.00355711 -118.44897461 109.15112305 C-118.45563141 108.34225143 -118.46228821 107.53337982 -118.46914673 106.69999695 C-118.47923549 104.99305479 -118.48396492 103.2860735 -118.48364258 101.57910156 C-118.48799513 99.00021284 -118.52429563 96.42306664 -118.56225586 93.84448242 C-118.65576428 80.32118519 -116.78877481 69.79841654 -107.11303711 59.6628418 C-98.03797161 50.9994995 -88.12220999 48.00940254 -75.75756836 48.2722168 C-74.21609383 48.28070648 -74.21609383 48.28070648 -72.64347839 48.28936768 C-69.40366385 48.31152236 -66.16500986 48.36167826 -62.92553711 48.4128418 C-60.71136052 48.43293385 -58.49716637 48.45117984 -56.28295898 48.4675293 C-50.89259789 48.51131798 -45.50290045 48.57801583 -40.11303711 48.6628418 C-40.12056503 48.02912659 -40.12809296 47.39541138 -40.135849 46.74249268 C-40.16589705 43.84617191 -40.18448402 40.94988406 -40.20288086 38.0534668 C-40.21492554 37.05653809 -40.22697021 36.05960938 -40.23937988 35.0324707 C-40.29421418 23.52203669 -37.58933522 16.64523387 -30.01538086 7.9519043 C-20.76107926 0.65308769 -11.36466733 -0.0696517 0 0 Z M-20.11303711 22.6628418 C-24.60374909 30.52623178 -24.60374909 30.52623178 -23.11303711 48.6628418 C35.62696289 48.6628418 94.36696289 48.6628418 154.88696289 48.6628418 C156.54075935 30.21327598 156.54075935 30.21327598 150.88696289 21.6628418 C145.32305849 17.1643659 140.69674154 16.53998708 133.71414185 16.52912903 C132.47208984 16.52486404 131.23003784 16.52059906 129.9503479 16.51620483 C128.58172604 16.51655431 127.21310421 16.51701583 125.84448242 16.51757812 C124.39699212 16.51458455 122.94950262 16.51118156 121.50201416 16.50740051 C117.57634132 16.49857676 113.65069029 16.49622309 109.72500849 16.49558473 C107.2707398 16.49487333 104.81647663 16.4927373 102.36220932 16.49008751 C93.79542438 16.48083962 85.228655 16.47675195 76.66186523 16.47753906 C68.68378902 16.47813978 60.70578044 16.4675877 52.72772133 16.4517954 C45.87151367 16.4387087 39.01532809 16.43335564 32.15910804 16.43399447 C28.06712902 16.43424912 23.97521012 16.43141635 19.88324356 16.42081642 C16.03367911 16.41111636 12.18423204 16.4110693 8.33466339 16.41833305 C6.92499749 16.41937651 5.5153242 16.41703022 4.10567093 16.4109726 C-9.13091894 16.09633124 -9.13091894 16.09633124 -20.11303711 22.6628418 Z M-96.36303711 74.1003418 C-102.28675002 81.36965007 -102.29384419 89.52917395 -102.30053711 98.5378418 C-102.3127832 99.39764648 -102.3250293 100.25745117 -102.33764648 101.14331055 C-102.35589929 109.16237477 -101.68508339 115.47923687 -96.11303711 121.6628418 C-93.71649846 123.51587919 -93.71649846 123.51587919 -91.03491211 125.1159668 C-89.5525708 126.03853271 -89.5525708 126.03853271 -88.0402832 126.97973633 C-86.46754639 127.93662354 -86.46754639 127.93662354 -84.86303711 128.9128418 C-83.24582764 129.90646729 -83.24582764 129.90646729 -81.59594727 130.92016602 C-78.44293811 132.84791986 -75.28036135 134.75871977 -72.11303711 136.6628418 C-70.89342285 137.40099121 -70.89342285 137.40099121 -69.64916992 138.15405273 C-60.81721101 143.46428284 -52.09591262 147.86988 -42.11303711 150.6628418 C-41.49790284 150.83519159 -40.88276857 151.00754139 -40.24899387 151.18511391 C-31.37382207 153.30882058 -22.3193791 152.95907102 -13.25537109 152.95336914 C-11.35046629 152.95936124 -9.44556391 152.96616835 -7.54066467 152.97372437 C-2.38737408 152.9913256 2.76585001 152.99607736 7.91916776 152.99735594 C11.14660337 152.99878183 14.37402232 153.00305979 17.60145378 153.00835037 C28.88356465 153.0268337 40.1656284 153.03502342 51.44775391 153.03344727 C61.92686139 153.03224747 72.40576238 153.05332242 82.88481766 153.08493459 C91.91112239 153.11118361 100.93736006 153.1218109 109.96370262 153.12053645 C115.34147693 153.12002919 120.71906772 153.12558005 126.09680367 153.14689255 C131.16211098 153.16641993 136.22706248 153.16630138 141.29238319 153.15185928 C143.13808469 153.1497877 144.98380931 153.15437197 146.82947159 153.1665802 C174.39376779 153.33690914 193.89939895 142.94299515 216.88696289 128.6628418 C217.54374023 128.2596875 218.20051758 127.8565332 218.87719727 127.44116211 C228.51283996 121.63586233 228.51283996 121.63586233 233.62524414 111.90112305 C233.97738176 107.54407698 234.07119921 103.22041201 234.07446289 98.8503418 C234.08670898 97.99891602 234.09895508 97.14749023 234.11157227 96.27026367 C234.13071083 87.89395278 233.35870755 80.31766638 227.88696289 73.6628418 C219.05354508 64.89251982 210.28407884 64.51220039 198.29240417 64.52912903 C197.11756464 64.52686347 195.9427251 64.52459792 194.73228437 64.52226371 C191.47955211 64.51703438 188.22685467 64.51627782 184.97411954 64.51745808 C181.46276859 64.5176624 177.95142585 64.51214031 174.44007874 64.50740051 C167.56374901 64.49910027 160.68742785 64.49634595 153.81109353 64.49578813 C148.22063717 64.49531268 142.63018363 64.49325644 137.03972816 64.49008751 C121.18355841 64.48128264 105.32739542 64.47666787 89.4712232 64.47741798 C88.6167254 64.47745794 87.76222761 64.4774979 86.88183594 64.47753906 C85.59852106 64.47760038 85.59852106 64.47760038 84.28928063 64.47766294 C70.42503125 64.47806937 56.56080903 64.46850034 42.6965675 64.4544007 C28.45478587 64.44003159 14.21301748 64.43313081 -0.02877158 64.43399447 C-8.02200352 64.43432626 -16.01520698 64.43158727 -24.00843239 64.42081642 C-30.81413549 64.4117044 -37.6197972 64.40954194 -44.42550377 64.41632584 C-47.89597106 64.4195875 -51.36635898 64.41966057 -54.8368187 64.4109726 C-58.60379251 64.40326008 -62.37055816 64.40789285 -66.13752747 64.41560364 C-67.22781228 64.41046007 -68.3180971 64.40531651 -69.44142085 64.40001708 C-80.36872538 64.44940828 -88.73876832 65.64934507 -96.36303711 74.1003418 Z M-86.11303711 147.6628418 C-86.15984656 162.76229332 -86.19506968 177.86174148 -86.21666145 192.96124935 C-86.22695527 199.97288889 -86.24097918 206.98448323 -86.26391602 213.99609375 C-86.28604919 220.76528411 -86.29761319 227.53442753 -86.3027916 234.30365181 C-86.30648104 236.88355815 -86.31368558 239.46346199 -86.32449722 242.04334831 C-86.33905845 245.66258119 -86.34101308 249.28162135 -86.34008789 252.90087891 C-86.34727844 253.96255783 -86.35446899 255.02423676 -86.36187744 256.11808777 C-86.33781818 264.84128989 -85.83481337 272.70392473 -80.11303711 279.6628418 C-71.630277 288.08501076 -63.28338278 288.81494743 -51.73332214 288.79655457 C-50.68915628 288.79882012 -49.64499042 288.80108568 -48.56918317 288.80341989 C-45.0710132 288.80974904 -41.57288209 288.80893121 -38.07470703 288.80810547 C-35.56628876 288.81109763 -33.05787094 288.81450029 -30.54945374 288.81828308 C-24.44315312 288.82620335 -18.33686673 288.82933748 -12.23056146 288.82989546 C-7.26558178 288.83037108 -2.30060528 288.83242815 2.6643734 288.83559608 C16.74974242 288.84440004 30.83510384 288.84901587 44.92047564 288.84826561 C46.05884655 288.84820568 46.05884655 288.84820568 47.22021484 288.84814453 C48.35998021 288.84808321 48.35998021 288.84808321 49.52277114 288.84802065 C61.83505565 288.84761426 74.14730957 288.85718264 86.45958523 288.8712829 C99.11030964 288.88565611 111.76101914 288.89255256 124.41175193 288.89168912 C131.51072366 288.89135748 138.60966333 288.89409032 145.7086277 288.90486717 C152.38577053 288.91493893 159.06283445 288.91462716 165.73998451 288.90735054 C168.1889099 288.90630473 170.63783951 288.90866737 173.08675766 288.914711 C176.43335033 288.92243423 179.77970932 288.91778371 183.126297 288.91007996 C184.09207147 288.91522352 185.05784594 288.92036708 186.05288631 288.92566651 C195.42961016 288.87806923 203.62198265 287.96569959 210.51586914 281.0222168 C218.03486779 272.68790505 218.03663665 264.02445196 218.00048828 253.24145508 C218.00070732 251.52838921 218.00070732 251.52838921 218.00093079 249.78071594 C218.00023545 246.01484258 217.99246073 242.24901899 217.98461914 238.4831543 C217.98275362 235.86856107 217.98133035 233.25396748 217.98033142 230.63937378 C217.97722846 224.46656196 217.96902907 218.29376793 217.95898193 212.12096393 C217.9477886 205.09073128 217.94230224 198.06049776 217.9372865 191.03025842 C217.92684556 176.57444371 217.90926622 162.118643 217.88696289 147.6628418 C216.94522217 148.20336182 216.00348145 148.74388184 215.03320312 149.30078125 C213.77484505 150.02177056 212.51646153 150.74271546 211.25805664 151.46362305 C210.64007202 151.81847778 210.0220874 152.17333252 209.38537598 152.53894043 C192.15027145 162.40619363 175.20497622 168.82159864 155.18774414 169.0769043 C154.22668259 169.09627045 153.26562103 169.1156366 152.2754364 169.1355896 C149.25019799 169.19466479 146.22492001 169.24147834 143.19946289 169.2878418 C141.12978619 169.32608811 139.06012427 169.36514354 136.99047852 169.4050293 C131.9560955 169.50030561 126.92163824 169.58459743 121.88696289 169.6628418 C121.87238037 170.98002197 121.85779785 172.29720215 121.84277344 173.65429688 C121.78485576 178.53543417 121.70762253 183.41610698 121.62451172 188.296875 C121.59123161 190.41040516 121.56320936 192.52402485 121.54052734 194.63769531 C121.50703817 197.67380985 121.45472525 200.70910155 121.39868164 203.74487305 C121.39229172 204.69183548 121.38590179 205.63879791 121.37931824 206.61445618 C121.349627 207.93548592 121.349627 207.93548592 121.31933594 209.28320312 C121.30268135 210.44569328 121.30268135 210.44569328 121.28569031 211.63166809 C120.77358326 214.24041363 119.94670981 215.0122597 117.88696289 216.6628418 C115.9019928 217.04036522 115.9019928 217.04036522 113.59814453 217.04379272 C112.723284 217.0522522 111.84842346 217.06071167 110.947052 217.06942749 C109.99007416 217.0633548 109.03309631 217.0572821 108.04711914 217.05102539 C106.53213333 217.05891083 106.53213333 217.05891083 104.98654175 217.06695557 C101.64069249 217.08018303 98.29531717 217.07140756 94.94946289 217.0612793 C92.62923084 217.06329924 90.3089994 217.06621 87.98876953 217.06997681 C83.12306684 217.07440389 78.25752923 217.0679566 73.3918457 217.05395508 C67.1469865 217.03686316 60.90251407 217.04670226 54.65766907 217.06467247 C49.86565218 217.07549983 45.07372738 217.07206875 40.28170776 217.06428909 C37.97874913 217.06228419 35.67578221 217.06475648 33.37283325 217.07172775 C30.15726494 217.07932484 26.9423278 217.06776204 23.72680664 217.05102539 C22.7698288 217.05709808 21.81285095 217.06317078 20.82687378 217.06942749 C19.51458298 217.05673828 19.51458298 217.05673828 18.17578125 217.04379272 C17.03537636 217.04209611 17.03537636 217.04209611 15.87193298 217.04036522 C13.345787 216.55991502 12.45499136 215.66286474 10.88696289 213.6628418 C10.48823547 211.63166809 10.48823547 211.63166809 10.45458984 209.28320312 C10.43479568 208.40251663 10.41500153 207.52183014 10.39460754 206.61445618 C10.38821762 205.66749374 10.3818277 204.72053131 10.37524414 203.74487305 C10.35729294 202.77249191 10.33934174 201.80011078 10.32084656 200.79826355 C10.26663822 197.69066716 10.23281391 194.58322527 10.19946289 191.4753418 C10.16629913 189.36920046 10.13181036 187.26307953 10.09594727 185.15698242 C10.01090558 179.99238018 9.94414449 174.82782461 9.88696289 169.6628418 C8.029021 169.64882324 8.029021 169.64882324 6.13354492 169.63452148 C1.44765912 169.59403049 -3.23760994 169.52812254 -7.9230957 169.45532227 C-9.93408157 169.42744975 -11.94517013 169.40607149 -13.95629883 169.3918457 C-39.60093232 169.19979902 -60.61641145 163.76511588 -82.11303711 149.60424805 C-84.65739693 147.57229236 -84.65739693 147.57229236 -86.11303711 147.6628418 Z M25.88696289 169.6628418 C25.88696289 179.8928418 25.88696289 190.1228418 25.88696289 200.6628418 C52.28696289 200.6628418 78.68696289 200.6628418 105.88696289 200.6628418 C105.88696289 190.4328418 105.88696289 180.2028418 105.88696289 169.6628418 C79.48696289 169.6628418 53.08696289 169.6628418 25.88696289 169.6628418 Z " fill="#000000" transform="translate(190.113037109375,103.337158203125)"/>
</svg>
