<svg width="65" height="65" viewBox="0 0 65 65" fill="none" xmlns="http://www.w3.org/2000/svg">
<path d="M38.6832 51.1866C40.4283 51.1866 41.8429 49.772 41.8429 48.0269C41.8429 46.2819 40.4283 44.8672 38.6832 44.8672C36.9381 44.8672 35.5234 46.2819 35.5234 48.0269C35.5234 49.772 36.9381 51.1866 38.6832 51.1866Z" stroke="#024D81" stroke-width="2"/>
<path d="M38.6832 19.589C40.4283 19.589 41.8429 18.1744 41.8429 16.4293C41.8429 14.6842 40.4283 13.2695 38.6832 13.2695C36.9381 13.2695 35.5234 14.6842 35.5234 16.4293C35.5234 18.1744 36.9381 19.589 38.6832 19.589Z" stroke="#024D81" stroke-width="2"/>
<path d="M11.8257 35.3898C13.5708 35.3898 14.9855 33.9751 14.9855 32.23C14.9855 30.485 13.5708 29.0703 11.8257 29.0703C10.0807 29.0703 8.66602 30.485 8.66602 32.23C8.66602 33.9751 10.0807 35.3898 11.8257 35.3898Z" stroke="#024D81" stroke-width="2"/>
<path d="M49.7429 25.908C48.3457 25.9122 46.9893 26.3797 45.8863 27.2374C44.7833 28.0951 43.9961 29.2945 43.6478 30.6476H36.8796C36.6559 29.7566 36.239 28.9258 35.6584 28.2139C35.0778 27.5019 34.3478 26.9264 33.5201 26.528C32.6924 26.1296 31.7872 25.918 30.8686 25.9084C29.95 25.8987 29.0406 26.0911 28.2046 26.472L23.1854 20.2C24.011 19.1157 24.4603 17.7917 24.4651 16.4288C24.4651 15.1789 24.0944 13.9572 23.4001 12.918C22.7057 11.8787 21.7187 11.0687 20.564 10.5905C19.4092 10.1121 18.1386 9.98697 16.9128 10.2308C15.6869 10.4747 14.5609 11.0765 13.6771 11.9603C12.7933 12.8441 12.1915 13.9701 11.9476 15.196C11.7038 16.4218 11.8289 17.6924 12.3073 18.8472C12.7855 20.0019 13.5955 20.9889 14.6348 21.6833C15.674 22.3776 16.8957 22.7483 18.1456 22.7483C19.0365 22.7462 19.9166 22.5539 20.7271 22.1843L25.7448 28.4564C24.9154 29.5385 24.4659 30.864 24.4659 32.2274C24.4659 33.5909 24.9154 34.9164 25.7448 35.9986L20.7271 42.2707C19.9166 41.901 19.0365 41.7087 18.1456 41.7066C16.8957 41.7066 15.674 42.0773 14.6348 42.7717C13.5955 43.4661 12.7855 44.453 12.3073 45.6078C11.8289 46.7624 11.7038 48.0331 11.9476 49.259C12.1915 50.4848 12.7933 51.6108 13.6771 52.4946C14.5609 53.3784 15.6869 53.9803 16.9128 54.2241C18.1386 54.468 19.4092 54.3428 20.564 53.8645C21.7187 53.3862 22.7057 52.5762 23.4001 51.537C24.0944 50.4978 24.4651 49.2759 24.4651 48.0261C24.4604 46.6633 24.0112 45.3392 23.1854 44.255L28.2031 37.9829C29.039 38.3641 29.9487 38.5567 30.8674 38.5472C31.7862 38.5377 32.6916 38.3262 33.5196 37.9278C34.3475 37.5293 35.0776 36.9537 35.6583 36.2416C36.239 35.5296 36.656 34.6985 36.8796 33.8073H43.6478C43.9453 34.9488 44.5569 35.9842 45.4132 36.7955C46.2695 37.6069 47.3362 38.162 48.492 38.3976C49.6479 38.6333 50.8468 38.5401 51.9523 38.1287C53.058 37.7173 54.0261 37.0041 54.7467 36.0701C55.4674 35.1362 55.9117 34.0188 56.0293 32.845C56.1468 31.6713 55.9329 30.488 55.4118 29.4296C54.8906 28.3713 54.0832 27.4803 53.0812 26.8578C52.0791 26.2353 50.9225 25.9063 49.7429 25.908ZM14.9859 16.4288C14.9859 15.8039 15.1712 15.193 15.5184 14.6734C15.8656 14.1538 16.3591 13.7488 16.9365 13.5096C17.5138 13.2705 18.1492 13.2079 18.762 13.3298C19.375 13.4518 19.938 13.7527 20.3799 14.1946C20.8218 14.6365 21.1227 15.1995 21.2447 15.8124C21.3666 16.4254 21.304 17.0606 21.0648 17.638C20.8257 18.2154 20.4207 18.7089 19.9011 19.0561C19.3815 19.4032 18.7706 19.5885 18.1456 19.5885C17.3078 19.5878 16.5047 19.2545 15.9123 18.6622C15.3199 18.0698 14.9868 17.2666 14.9859 16.4288ZM18.1456 51.1858C17.5207 51.1858 16.9098 51.0005 16.3902 50.6533C15.8706 50.3061 15.4656 49.8126 15.2264 49.2353C14.9873 48.6579 14.9247 48.0226 15.0466 47.4096C15.1686 46.7968 15.4695 46.2337 15.9114 45.7919C16.3533 45.3499 16.9163 45.049 17.5292 44.9271C18.1422 44.8052 18.7774 44.8677 19.3548 45.1069C19.9322 45.346 20.4257 45.751 20.7729 46.2706C21.12 46.7903 21.3053 47.4012 21.3053 48.0261C21.3046 48.8638 20.9713 49.6671 20.379 50.2594C19.7866 50.8518 18.9834 51.185 18.1456 51.1858ZM30.7845 35.3872C30.1596 35.3872 29.5487 35.2018 29.0291 34.8547C28.5094 34.5075 28.1045 34.014 27.8654 33.4367C27.6262 32.8592 27.5636 32.224 27.6855 31.611C27.8074 30.9981 28.1084 30.4351 28.5502 29.9932C28.9922 29.5513 29.5551 29.2504 30.1681 29.1285C30.781 29.0065 31.4163 29.0691 31.9937 29.3083C32.5711 29.5474 33.0646 29.9524 33.4117 30.472C33.7589 30.9916 33.9442 31.6025 33.9442 32.2274C33.9434 33.0652 33.6103 33.8684 33.0178 34.4608C32.4255 35.0532 31.6223 35.3864 30.7845 35.3872ZM49.7429 35.3872C49.118 35.3872 48.507 35.2018 47.9874 34.8547C47.4678 34.5075 47.0628 34.014 46.8237 33.4367C46.5845 32.8592 46.522 32.224 46.6439 31.611C46.7658 30.9981 47.0667 30.4351 47.5087 29.9932C47.9505 29.5513 48.5136 29.2504 49.1264 29.1285C49.7394 29.0065 50.3747 29.0691 50.9521 29.3083C51.5294 29.5474 52.0229 29.9524 52.3701 30.472C52.7173 30.9916 52.9026 31.6025 52.9026 32.2274C52.9018 33.0652 52.5686 33.8684 51.9762 34.4608C51.3839 35.0532 50.5806 35.3864 49.7429 35.3872Z" stroke="#024D81" stroke-width="2"/>
</svg>
