<svg width="44" height="44" viewBox="0 0 44 44" fill="none" xmlns="http://www.w3.org/2000/svg">
<path d="M25.3811 33.4318H17.6126C17.2058 33.4318 16.823 33.2736 16.5357 32.9858L15.5216 31.9718C15.2343 31.684 15.0757 31.3017 15.0757 30.8949V23.1264C15.0757 22.7192 15.2339 22.3369 15.5216 22.0495L16.5357 21.0355C16.8246 20.7473 17.2066 20.5891 17.6126 20.5891H25.3811C25.7879 20.5891 26.1702 20.7477 26.458 21.0355L27.472 22.0495C27.7602 22.338 27.9184 22.7204 27.9184 23.1264V30.8945C27.9184 31.2947 27.7559 31.6871 27.4728 31.971L26.458 32.9858C26.1706 33.2736 25.7879 33.4318 25.3811 33.4318ZM17.6238 31.8806H25.3695L26.3669 30.8832V23.138L25.3691 22.1399H17.6242L16.6268 23.1376V30.8832L17.6238 31.8806Z" fill="black" stroke="black" stroke-width="0.3"/>
<path d="M22.9393 18.8789H24.4904V21.0629H22.9393V18.8789ZM18.5026 18.8789H20.0538V21.3902H18.5026V18.8789ZM27.4438 28.4529H29.6278V30.0041H27.4438V28.4529ZM27.1165 24.0163H29.6278V25.5674H27.1165V24.0163ZM13.3652 28.4529H15.5492V30.0041H13.3652V28.4529ZM13.3652 24.0163H15.8765V25.5674H13.3652V24.0163ZM22.9424 32.6557H24.4935V34.9999H22.9424V32.6557ZM18.5174 32.6557H20.0685V34.9999H18.5174V32.6557Z" fill="black" stroke="black" stroke-width="0.3"/>
<path d="M31.568 27.8205H31.2256V26.2693H31.568C31.6975 26.2693 31.829 26.2577 31.9589 26.2352C31.9709 26.2332 31.9829 26.2313 31.9946 26.2298C32.6336 26.1487 33.2421 25.9451 33.8028 25.6244C35.3291 24.7496 36.2781 23.1147 36.2781 21.358C36.2781 19.3051 34.9821 17.4511 33.0532 16.7449C32.9127 16.6935 32.79 16.6025 32.7 16.4829C32.61 16.3633 32.5565 16.2203 32.546 16.071C32.5297 15.8813 32.5057 15.6894 32.4747 15.5005C32.4739 15.497 32.4735 15.4932 32.4731 15.4897C32.4723 15.485 32.4712 15.4804 32.4704 15.4757C31.8635 12.0427 28.888 9.55114 25.3952 9.55114C23.1181 9.55114 21.0253 10.5954 19.6533 12.4161C19.581 12.512 19.4875 12.5898 19.38 12.6434C19.2725 12.697 19.1541 12.7248 19.034 12.7248C18.8851 12.7248 18.7385 12.6817 18.6132 12.6011C17.776 12.0613 16.8034 11.7685 15.801 11.7549C14.3635 11.7355 13.0101 12.2738 11.9902 13.2708C10.9715 14.2666 10.4026 15.6056 10.3891 17.0408C10.3848 17.5015 10.4391 17.9587 10.5504 18.3996C10.6074 18.6253 10.5601 18.8646 10.4216 19.0515C10.2832 19.2384 10.068 19.3532 9.83569 19.3644C7.99332 19.4532 6.55037 20.9691 6.55037 22.8153C6.55037 24.6332 7.97005 26.1472 9.78295 26.2623C9.85857 26.267 9.93419 26.2693 10.0048 26.2693H11.6036V27.8205H10.0055C9.90356 27.8205 9.79653 27.817 9.68756 27.8104C7.05798 27.6432 5 25.4491 5 22.8153C5 20.4394 6.64964 18.4407 8.8895 17.9335C8.85304 17.6333 8.83598 17.3305 8.8387 17.0261C8.85615 15.1752 9.59061 13.4476 10.9068 12.1613C12.2237 10.8743 13.9703 10.179 15.8227 10.2038C16.8822 10.2185 17.9164 10.4745 18.8502 10.9503C19.5769 10.1297 20.4591 9.44489 21.4321 8.94852C22.6668 8.31915 24 8 25.3952 8C27.4602 8 29.4643 8.73408 31.0383 10.0673C32.591 11.3823 33.6411 13.2029 33.9955 15.1953C33.9994 15.2151 34.0029 15.2357 34.006 15.2566C34.0177 15.3287 34.0289 15.4013 34.039 15.4738C35.0759 15.9445 35.9663 16.6782 36.6344 17.6163C37.4158 18.7137 37.8288 20.0078 37.8288 21.358C37.8288 23.6692 36.5813 25.8199 34.573 26.9704C33.8389 27.3904 33.0431 27.6576 32.2071 27.7662C31.9957 27.8022 31.7805 27.8205 31.568 27.8205Z" fill="black"/>
<path d="M32.4762 15.5036C32.4762 15.504 32.4762 15.5044 32.4766 15.5048M31.568 27.8205H31.2256V26.2693H31.568C31.6975 26.2693 31.829 26.2577 31.9589 26.2352C31.9709 26.2332 31.9829 26.2313 31.9946 26.2298C32.6336 26.1487 33.2421 25.9451 33.8028 25.6244C35.3291 24.7496 36.2781 23.1147 36.2781 21.358C36.2781 19.3051 34.9821 17.4511 33.0532 16.7449C32.9127 16.6935 32.79 16.6025 32.7 16.4829C32.61 16.3633 32.5565 16.2203 32.546 16.071C32.5297 15.8813 32.5057 15.6894 32.4747 15.5005C32.4739 15.497 32.4735 15.4932 32.4731 15.4897C32.4723 15.485 32.4712 15.4804 32.4704 15.4757C31.8635 12.0427 28.888 9.55114 25.3952 9.55114C23.1181 9.55114 21.0253 10.5954 19.6533 12.4161C19.581 12.512 19.4875 12.5898 19.38 12.6434C19.2725 12.697 19.1541 12.7248 19.034 12.7248C18.8851 12.7248 18.7385 12.6817 18.6132 12.6011C17.776 12.0613 16.8034 11.7685 15.801 11.7549C14.3635 11.7355 13.0101 12.2738 11.9902 13.2708C10.9715 14.2666 10.4026 15.6056 10.3891 17.0408C10.3848 17.5015 10.4391 17.9587 10.5504 18.3996C10.6074 18.6253 10.5601 18.8646 10.4216 19.0515C10.2832 19.2384 10.068 19.3532 9.83569 19.3644C7.99332 19.4532 6.55037 20.9691 6.55037 22.8153C6.55037 24.6332 7.97005 26.1472 9.78295 26.2623C9.85857 26.267 9.93419 26.2693 10.0048 26.2693H11.6036V27.8205H10.0055C9.90356 27.8205 9.79653 27.817 9.68756 27.8104C7.05798 27.6432 5 25.4491 5 22.8153C5 20.4394 6.64964 18.4407 8.8895 17.9335C8.85304 17.6333 8.83598 17.3305 8.8387 17.0261C8.85615 15.1752 9.59061 13.4476 10.9068 12.1613C12.2237 10.8743 13.9703 10.179 15.8227 10.2038C16.8822 10.2185 17.9164 10.4745 18.8502 10.9503C19.5769 10.1297 20.4591 9.44489 21.4321 8.94852C22.6668 8.31915 24 8 25.3952 8C27.4602 8 29.4643 8.73408 31.0383 10.0673C32.591 11.3823 33.6411 13.2029 33.9955 15.1953C33.9994 15.2151 34.0029 15.2357 34.006 15.2566C34.0177 15.3287 34.0289 15.4013 34.039 15.4738C35.0759 15.9445 35.9663 16.6782 36.6344 17.6163C37.4158 18.7137 37.8288 20.0078 37.8288 21.358C37.8288 23.6692 36.5813 25.8199 34.573 26.9704C33.8389 27.3904 33.0431 27.6576 32.2071 27.7662C31.9957 27.8022 31.7805 27.8205 31.568 27.8205Z" stroke="black" stroke-width="0.3"/>
<path d="M18.4263 15.0217L16.917 14.6641C17.1908 13.5082 17.691 12.4371 18.403 11.4812L19.647 12.4076C19.0618 13.1929 18.6512 14.0728 18.4263 15.0217Z" fill="black" stroke="black" stroke-width="0.3"/>
</svg>
