<svg width="40" height="40" viewBox="0 0 40 40" fill="none" xmlns="http://www.w3.org/2000/svg">
<g clip-path="url(#clip0_819_1142)">
<path d="M19.972 -0.025094C20.0515 -0.0249257 20.131 -0.0247573 20.213 -0.0245838C21.3543 -0.0207033 22.474 -0.00110199 23.595 0.233695C23.6712 0.249217 23.7473 0.264738 23.8258 0.28073C27.6056 1.0714 31.0422 2.78363 33.8294 5.46807C33.9067 5.54215 33.9067 5.54215 33.9855 5.61772C34.7268 6.33213 35.4096 7.05849 36.0169 7.88995C36.0839 7.97987 36.151 8.0698 36.218 8.15972C36.6897 8.79966 37.1084 9.46479 37.5013 10.1556C37.5297 10.2049 37.5582 10.2543 37.5876 10.3051C39.2755 13.2542 40.0385 16.5954 40.0257 19.97C40.0255 20.0495 40.0253 20.1291 40.0252 20.211C40.0213 21.3523 40.0017 22.472 39.7669 23.5931C39.7436 23.7073 39.7436 23.7073 39.7199 23.8239C38.9292 27.6037 37.217 31.0403 34.5325 33.8274C34.4831 33.879 34.4338 33.9305 34.3829 33.9835C33.6685 34.7248 32.9421 35.4076 32.1106 36.0149C32.0207 36.082 31.9308 36.149 31.8409 36.2161C31.2011 36.6877 30.5368 37.1083 29.845 37.4993C29.7898 37.5307 29.7345 37.5622 29.6776 37.5945C27.8701 38.6121 25.9036 39.2956 23.8733 39.7112C23.8172 39.7227 23.761 39.7343 23.7031 39.7461C22.5566 39.964 21.4218 40.0266 20.257 40.024C20.0273 40.0237 19.7977 40.0256 19.5681 40.0275C18.5233 40.031 17.5158 39.9369 16.4856 39.7649C16.3524 39.7429 16.3524 39.7429 16.2165 39.7204C12.8362 39.1132 9.62917 37.5517 7.03252 35.3118C6.97431 35.2623 6.9161 35.2127 6.85613 35.1617C5.80105 34.2389 4.8111 33.2428 3.98565 32.1087C3.91873 32.0189 3.8518 31.929 3.78484 31.8392C3.31297 31.1994 2.89239 30.535 2.50127 29.8431C2.46985 29.7878 2.43843 29.7326 2.40606 29.6756C1.38845 27.8682 0.704944 25.9017 0.289359 23.8714C0.277847 23.8152 0.266335 23.7591 0.254474 23.7012C0.0221411 22.4788 -0.0278678 21.27 -0.0231409 20.0286C-0.0229725 19.9491 -0.0228042 19.8696 -0.0226307 19.7876C-0.0187502 18.6463 0.000851132 17.5266 0.235648 16.4056C0.25117 16.3294 0.266691 16.2533 0.282683 16.1748C1.07336 12.3949 2.78558 8.95836 5.47002 6.1712C5.51941 6.11968 5.56879 6.06817 5.61967 6.0151C6.33408 5.27383 7.06044 4.59102 7.8919 3.9837C7.98182 3.91666 8.07175 3.84962 8.16167 3.78258C8.80149 3.3109 9.46576 2.89037 10.1575 2.49932C10.2128 2.4679 10.268 2.43648 10.325 2.40411C12.1324 1.38649 14.0989 0.702991 16.1292 0.287406C16.1854 0.275894 16.2415 0.264382 16.2994 0.252521C17.5218 0.0201879 18.7306 -0.0298209 19.972 -0.025094ZM10.3138 15.0774C10.2677 15.2359 10.2677 15.2359 10.2741 15.4058C10.2732 15.4708 10.2723 15.5357 10.2714 15.6026C10.2721 15.6732 10.2727 15.7437 10.2733 15.8164C10.2728 15.8913 10.2722 15.9662 10.2717 16.0433C10.2703 16.2911 10.2712 16.5389 10.2723 16.7867C10.2721 16.9594 10.2718 17.132 10.2714 17.3047C10.2709 17.667 10.2716 18.0293 10.273 18.3917C10.2748 18.8544 10.2738 19.317 10.2719 19.7797C10.2708 20.1366 10.2711 20.4935 10.272 20.8504C10.2722 21.0209 10.2719 21.1913 10.2712 21.3618C10.267 22.6025 10.3215 23.5729 11.222 24.5058C11.7549 25.0005 12.3927 25.2426 13.1142 25.2447C13.2075 25.2451 13.3008 25.2456 13.397 25.246C13.4991 25.2461 13.6012 25.2462 13.7064 25.2463C13.8152 25.2466 13.9241 25.247 14.0329 25.2475C14.3283 25.2485 14.6237 25.249 14.9191 25.2493C15.1036 25.2496 15.2881 25.2499 15.4726 25.2502C16.05 25.2513 16.6273 25.2521 17.2046 25.2524C17.8711 25.2527 18.5377 25.2541 19.2042 25.2563C19.7195 25.258 20.2347 25.2588 20.75 25.2589C21.0578 25.259 21.3655 25.2595 21.6733 25.2609C21.9626 25.2621 22.2519 25.2623 22.5413 25.2616C22.6981 25.2615 22.855 25.2626 23.0118 25.2637C23.1052 25.2633 23.1985 25.2629 23.2946 25.2624C23.3757 25.2625 23.4569 25.2626 23.5404 25.2628C23.7856 25.229 23.8928 25.1774 24.0638 24.9993C24.1106 24.8466 24.1106 24.8466 24.104 24.6749C24.1055 24.5759 24.1055 24.5759 24.107 24.4749C24.1062 24.3666 24.1062 24.3666 24.1054 24.2561C24.1061 24.1798 24.1068 24.1036 24.1075 24.025C24.1093 23.7721 24.1087 23.5192 24.108 23.2662C24.1084 23.0901 24.1089 22.9141 24.1095 22.738C24.1103 22.3682 24.1099 21.9983 24.1088 21.6285C24.1075 21.1565 24.1093 20.6845 24.112 20.2124C24.1138 19.8483 24.1136 19.4841 24.113 19.12C24.1129 18.9461 24.1135 18.7722 24.1146 18.5983C24.1216 17.3615 24.0731 16.4205 23.1739 15.4836C22.617 15.0143 21.9865 14.7564 21.2634 14.7534C21.1701 14.7529 21.0767 14.7523 20.9806 14.7518C20.8785 14.7515 20.7763 14.7513 20.6711 14.7511C20.5623 14.7506 20.4535 14.7501 20.3446 14.7496C19.9877 14.7479 19.6307 14.7471 19.2737 14.7463C19.1508 14.746 19.0278 14.7457 18.9049 14.7454C18.3276 14.7439 17.7503 14.7428 17.1729 14.7421C16.5064 14.7414 15.8399 14.7393 15.1734 14.7361C14.6581 14.7338 14.1428 14.7326 13.6276 14.7324C13.3198 14.7322 13.012 14.7315 12.7043 14.7295C12.4149 14.7277 12.1256 14.7274 11.8363 14.7282C11.6794 14.7282 11.5226 14.7267 11.3657 14.7252C11.2724 14.7257 11.1791 14.7263 11.0829 14.7268C10.9612 14.7266 10.9612 14.7266 10.8371 14.7263C10.5679 14.7757 10.4761 14.86 10.3138 15.0774ZM29.0198 14.9487C28.9373 15.0089 28.9373 15.0089 28.8531 15.0704C28.7937 15.1146 28.7343 15.1588 28.6731 15.2044C28.6109 15.2501 28.5487 15.2958 28.4845 15.3428C28.2866 15.4882 28.0893 15.6344 27.8919 15.7806C27.7683 15.8715 27.6447 15.9623 27.5211 16.0531C27.2761 16.2331 27.0314 16.4135 26.7869 16.5942C26.5204 16.7911 26.2537 16.9876 25.9867 17.1838C25.884 17.2593 25.884 17.2593 25.7791 17.3364C25.6469 17.4336 25.5146 17.5308 25.3823 17.6279C25.2937 17.6931 25.2937 17.6931 25.2033 17.7596C25.151 17.7981 25.0986 17.8365 25.0447 17.8762C24.9264 17.9612 24.9264 17.9612 24.845 18.0462C24.8337 18.165 24.8276 18.2844 24.8238 18.4037C24.8212 18.4799 24.8187 18.5561 24.8161 18.6346C24.8075 18.9853 24.801 19.3359 24.7962 19.6867C24.793 19.8714 24.7882 20.056 24.7818 20.2407C24.704 21.2593 24.704 21.2593 24.9996 22.1993C25.2011 22.3619 25.392 22.4685 25.6263 22.5774C25.7386 22.6566 25.8493 22.7381 25.958 22.8222C26.067 22.9003 26.1762 22.9782 26.2855 23.056C26.7979 23.4231 27.307 23.7944 27.8138 24.1692C27.9952 24.3029 28.1767 24.4364 28.3582 24.5699C28.4565 24.6424 28.5547 24.715 28.6527 24.7878C28.7615 24.8688 28.8711 24.9487 28.9808 25.0286C29.0363 25.0695 29.0917 25.1104 29.1489 25.1525C29.3156 25.2586 29.3156 25.2586 29.6106 25.2337C29.71 25.0351 29.6988 24.8966 29.6992 24.6741C29.6996 24.5887 29.6999 24.5032 29.7002 24.4152C29.7002 24.321 29.7002 24.2269 29.7001 24.1299C29.7004 24.031 29.7006 23.9322 29.7009 23.8304C29.7016 23.5589 29.7018 23.2874 29.7018 23.0159C29.7019 22.7895 29.7022 22.5631 29.7025 22.3367C29.7031 21.8028 29.7033 21.2689 29.7032 20.735C29.7032 20.1836 29.704 19.6321 29.7053 19.0807C29.7063 18.6078 29.7067 18.1348 29.7067 17.6619C29.7066 17.3792 29.7069 17.0965 29.7077 16.8138C29.7086 16.4988 29.7082 16.1838 29.7078 15.8688C29.7082 15.7746 29.7086 15.6804 29.7091 15.5834C29.7088 15.498 29.7084 15.4125 29.7081 15.3245C29.7081 15.25 29.7082 15.1754 29.7082 15.0986C29.7058 14.9056 29.7058 14.9056 29.5325 14.7649C29.2693 14.7649 29.2241 14.798 29.0198 14.9487Z" fill="white"/>
</g>
<defs>
<clipPath id="clip0_819_1142">
<rect width="40" height="40" fill="white"/>
</clipPath>
</defs>
</svg>
